<?xml version="1.0" encoding="utf-8" standalone="no"?>
<!DOCTYPE svg PUBLIC "-//W3C//DTD SVG 1.1//EN"
  "http://www.w3.org/Graphics/SVG/1.1/DTD/svg11.dtd">
<!-- Created with matplotlib (https://matplotlib.org/) -->
<svg height="345.6pt" version="1.1" viewBox="0 0 460.8 345.6" width="460.8pt" xmlns="http://www.w3.org/2000/svg" xmlns:xlink="http://www.w3.org/1999/xlink">
 <metadata>
  <rdf:RDF xmlns:cc="http://creativecommons.org/ns#" xmlns:dc="http://purl.org/dc/elements/1.1/" xmlns:rdf="http://www.w3.org/1999/02/22-rdf-syntax-ns#">
   <cc:Work>
    <dc:type rdf:resource="http://purl.org/dc/dcmitype/StillImage"/>
    <dc:date>2021-06-17T01:39:18.733092</dc:date>
    <dc:format>image/svg+xml</dc:format>
    <dc:creator>
     <cc:Agent>
      <dc:title>Matplotlib v3.3.4, https://matplotlib.org/</dc:title>
     </cc:Agent>
    </dc:creator>
   </cc:Work>
  </rdf:RDF>
 </metadata>
 <defs>
  <style type="text/css">*{stroke-linecap:butt;stroke-linejoin:round;}</style>
 </defs>
 <g id="figure_1">
  <g id="patch_1">
   <path d="M 0 345.6 
L 460.8 345.6 
L 460.8 0 
L 0 0 
z
" style="fill:#ffffff;"/>
  </g>
  <g id="axes_1">
   <g id="patch_2">
    <path d="M 0 293.76 
L 460.8 293.76 
L 460.8 3.456 
L 0 3.456 
z
" style="fill:#ffffff;"/>
   </g>
   <g id="matplotlib.axis_1">
    <g id="xtick_1">
     <g id="line2d_1">
      <path clip-path="url(#p10cbc49c5c)" d="M 105.771835 293.76 
L 105.771835 3.456 
" style="fill:none;stroke:#b0b0b0;stroke-linecap:square;stroke-width:0.8;"/>
     </g>
     <g id="line2d_2">
      <defs>
       <path d="M 0 0 
L 0 3.5 
" id="m99e8dbacd3" style="stroke:#000000;stroke-width:0.8;"/>
      </defs>
      <g>
       <use style="stroke:#000000;stroke-width:0.8;" x="105.771835" xlink:href="#m99e8dbacd3" y="293.76"/>
      </g>
     </g>
     <g id="text_1">
      <!-- -4 -->
      <g transform="translate(95.801522 315.956875)scale(0.2 -0.2)">
       <defs>
        <path d="M 4.890625 31.390625 
L 31.203125 31.390625 
L 31.203125 23.390625 
L 4.890625 23.390625 
z
" id="DejaVuSans-45"/>
        <path d="M 37.796875 64.3125 
L 12.890625 25.390625 
L 37.796875 25.390625 
z
M 35.203125 72.90625 
L 47.609375 72.90625 
L 47.609375 25.390625 
L 58.015625 25.390625 
L 58.015625 17.1875 
L 47.609375 17.1875 
L 47.609375 0 
L 37.796875 0 
L 37.796875 17.1875 
L 4.890625 17.1875 
L 4.890625 26.703125 
z
" id="DejaVuSans-52"/>
       </defs>
       <use xlink:href="#DejaVuSans-45"/>
       <use x="36.083984" xlink:href="#DejaVuSans-52"/>
      </g>
     </g>
    </g>
    <g id="xtick_2">
     <g id="line2d_3">
      <path clip-path="url(#p10cbc49c5c)" d="M 211.658063 293.76 
L 211.658063 3.456 
" style="fill:none;stroke:#b0b0b0;stroke-linecap:square;stroke-width:0.8;"/>
     </g>
     <g id="line2d_4">
      <g>
       <use style="stroke:#000000;stroke-width:0.8;" x="211.658063" xlink:href="#m99e8dbacd3" y="293.76"/>
      </g>
     </g>
     <g id="text_2">
      <!-- 0 -->
      <g transform="translate(205.295563 315.956875)scale(0.2 -0.2)">
       <defs>
        <path d="M 31.78125 66.40625 
Q 24.171875 66.40625 20.328125 58.90625 
Q 16.5 51.421875 16.5 36.375 
Q 16.5 21.390625 20.328125 13.890625 
Q 24.171875 6.390625 31.78125 6.390625 
Q 39.453125 6.390625 43.28125 13.890625 
Q 47.125 21.390625 47.125 36.375 
Q 47.125 51.421875 43.28125 58.90625 
Q 39.453125 66.40625 31.78125 66.40625 
z
M 31.78125 74.21875 
Q 44.046875 74.21875 50.515625 64.515625 
Q 56.984375 54.828125 56.984375 36.375 
Q 56.984375 17.96875 50.515625 8.265625 
Q 44.046875 -1.421875 31.78125 -1.421875 
Q 19.53125 -1.421875 13.0625 8.265625 
Q 6.59375 17.96875 6.59375 36.375 
Q 6.59375 54.828125 13.0625 64.515625 
Q 19.53125 74.21875 31.78125 74.21875 
z
" id="DejaVuSans-48"/>
       </defs>
       <use xlink:href="#DejaVuSans-48"/>
      </g>
     </g>
    </g>
    <g id="xtick_3">
     <g id="line2d_5">
      <path clip-path="url(#p10cbc49c5c)" d="M 317.544291 293.76 
L 317.544291 3.456 
" style="fill:none;stroke:#b0b0b0;stroke-linecap:square;stroke-width:0.8;"/>
     </g>
     <g id="line2d_6">
      <g>
       <use style="stroke:#000000;stroke-width:0.8;" x="317.544291" xlink:href="#m99e8dbacd3" y="293.76"/>
      </g>
     </g>
     <g id="text_3">
      <!-- 4 -->
      <g transform="translate(311.181791 315.956875)scale(0.2 -0.2)">
       <use xlink:href="#DejaVuSans-52"/>
      </g>
     </g>
    </g>
    <g id="xtick_4">
     <g id="line2d_7">
      <path clip-path="url(#p10cbc49c5c)" d="M 423.430519 293.76 
L 423.430519 3.456 
" style="fill:none;stroke:#b0b0b0;stroke-linecap:square;stroke-width:0.8;"/>
     </g>
     <g id="line2d_8">
      <g>
       <use style="stroke:#000000;stroke-width:0.8;" x="423.430519" xlink:href="#m99e8dbacd3" y="293.76"/>
      </g>
     </g>
     <g id="text_4">
      <!-- 8 -->
      <g transform="translate(417.068019 315.956875)scale(0.2 -0.2)">
       <defs>
        <path d="M 31.78125 34.625 
Q 24.75 34.625 20.71875 30.859375 
Q 16.703125 27.09375 16.703125 20.515625 
Q 16.703125 13.921875 20.71875 10.15625 
Q 24.75 6.390625 31.78125 6.390625 
Q 38.8125 6.390625 42.859375 10.171875 
Q 46.921875 13.96875 46.921875 20.515625 
Q 46.921875 27.09375 42.890625 30.859375 
Q 38.875 34.625 31.78125 34.625 
z
M 21.921875 38.8125 
Q 15.578125 40.375 12.03125 44.71875 
Q 8.5 49.078125 8.5 55.328125 
Q 8.5 64.0625 14.71875 69.140625 
Q 20.953125 74.21875 31.78125 74.21875 
Q 42.671875 74.21875 48.875 69.140625 
Q 55.078125 64.0625 55.078125 55.328125 
Q 55.078125 49.078125 51.53125 44.71875 
Q 48 40.375 41.703125 38.8125 
Q 48.828125 37.15625 52.796875 32.3125 
Q 56.78125 27.484375 56.78125 20.515625 
Q 56.78125 9.90625 50.3125 4.234375 
Q 43.84375 -1.421875 31.78125 -1.421875 
Q 19.734375 -1.421875 13.25 4.234375 
Q 6.78125 9.90625 6.78125 20.515625 
Q 6.78125 27.484375 10.78125 32.3125 
Q 14.796875 37.15625 21.921875 38.8125 
z
M 18.3125 54.390625 
Q 18.3125 48.734375 21.84375 45.5625 
Q 25.390625 42.390625 31.78125 42.390625 
Q 38.140625 42.390625 41.71875 45.5625 
Q 45.3125 48.734375 45.3125 54.390625 
Q 45.3125 60.0625 41.71875 63.234375 
Q 38.140625 66.40625 31.78125 66.40625 
Q 25.390625 66.40625 21.84375 63.234375 
Q 18.3125 60.0625 18.3125 54.390625 
z
" id="DejaVuSans-56"/>
       </defs>
       <use xlink:href="#DejaVuSans-56"/>
      </g>
     </g>
    </g>
    <g id="text_5">
     <!-- log10 of Df -->
     <g transform="translate(175.214063 339.313125)scale(0.2 -0.2)">
      <defs>
       <path d="M 9.421875 75.984375 
L 18.40625 75.984375 
L 18.40625 0 
L 9.421875 0 
z
" id="DejaVuSans-108"/>
       <path d="M 30.609375 48.390625 
Q 23.390625 48.390625 19.1875 42.75 
Q 14.984375 37.109375 14.984375 27.296875 
Q 14.984375 17.484375 19.15625 11.84375 
Q 23.34375 6.203125 30.609375 6.203125 
Q 37.796875 6.203125 41.984375 11.859375 
Q 46.1875 17.53125 46.1875 27.296875 
Q 46.1875 37.015625 41.984375 42.703125 
Q 37.796875 48.390625 30.609375 48.390625 
z
M 30.609375 56 
Q 42.328125 56 49.015625 48.375 
Q 55.71875 40.765625 55.71875 27.296875 
Q 55.71875 13.875 49.015625 6.21875 
Q 42.328125 -1.421875 30.609375 -1.421875 
Q 18.84375 -1.421875 12.171875 6.21875 
Q 5.515625 13.875 5.515625 27.296875 
Q 5.515625 40.765625 12.171875 48.375 
Q 18.84375 56 30.609375 56 
z
" id="DejaVuSans-111"/>
       <path d="M 45.40625 27.984375 
Q 45.40625 37.75 41.375 43.109375 
Q 37.359375 48.484375 30.078125 48.484375 
Q 22.859375 48.484375 18.828125 43.109375 
Q 14.796875 37.75 14.796875 27.984375 
Q 14.796875 18.265625 18.828125 12.890625 
Q 22.859375 7.515625 30.078125 7.515625 
Q 37.359375 7.515625 41.375 12.890625 
Q 45.40625 18.265625 45.40625 27.984375 
z
M 54.390625 6.78125 
Q 54.390625 -7.171875 48.1875 -13.984375 
Q 42 -20.796875 29.203125 -20.796875 
Q 24.46875 -20.796875 20.265625 -20.09375 
Q 16.0625 -19.390625 12.109375 -17.921875 
L 12.109375 -9.1875 
Q 16.0625 -11.328125 19.921875 -12.34375 
Q 23.78125 -13.375 27.78125 -13.375 
Q 36.625 -13.375 41.015625 -8.765625 
Q 45.40625 -4.15625 45.40625 5.171875 
L 45.40625 9.625 
Q 42.625 4.78125 38.28125 2.390625 
Q 33.9375 0 27.875 0 
Q 17.828125 0 11.671875 7.65625 
Q 5.515625 15.328125 5.515625 27.984375 
Q 5.515625 40.671875 11.671875 48.328125 
Q 17.828125 56 27.875 56 
Q 33.9375 56 38.28125 53.609375 
Q 42.625 51.21875 45.40625 46.390625 
L 45.40625 54.6875 
L 54.390625 54.6875 
z
" id="DejaVuSans-103"/>
       <path d="M 12.40625 8.296875 
L 28.515625 8.296875 
L 28.515625 63.921875 
L 10.984375 60.40625 
L 10.984375 69.390625 
L 28.421875 72.90625 
L 38.28125 72.90625 
L 38.28125 8.296875 
L 54.390625 8.296875 
L 54.390625 0 
L 12.40625 0 
z
" id="DejaVuSans-49"/>
       <path id="DejaVuSans-32"/>
       <path d="M 37.109375 75.984375 
L 37.109375 68.5 
L 28.515625 68.5 
Q 23.6875 68.5 21.796875 66.546875 
Q 19.921875 64.59375 19.921875 59.515625 
L 19.921875 54.6875 
L 34.71875 54.6875 
L 34.71875 47.703125 
L 19.921875 47.703125 
L 19.921875 0 
L 10.890625 0 
L 10.890625 47.703125 
L 2.296875 47.703125 
L 2.296875 54.6875 
L 10.890625 54.6875 
L 10.890625 58.5 
Q 10.890625 67.625 15.140625 71.796875 
Q 19.390625 75.984375 28.609375 75.984375 
z
" id="DejaVuSans-102"/>
       <path d="M 19.671875 64.796875 
L 19.671875 8.109375 
L 31.59375 8.109375 
Q 46.6875 8.109375 53.6875 14.9375 
Q 60.6875 21.78125 60.6875 36.53125 
Q 60.6875 51.171875 53.6875 57.984375 
Q 46.6875 64.796875 31.59375 64.796875 
z
M 9.8125 72.90625 
L 30.078125 72.90625 
Q 51.265625 72.90625 61.171875 64.09375 
Q 71.09375 55.28125 71.09375 36.53125 
Q 71.09375 17.671875 61.125 8.828125 
Q 51.171875 0 30.078125 0 
L 9.8125 0 
z
" id="DejaVuSans-68"/>
      </defs>
      <use xlink:href="#DejaVuSans-108"/>
      <use x="27.783203" xlink:href="#DejaVuSans-111"/>
      <use x="88.964844" xlink:href="#DejaVuSans-103"/>
      <use x="152.441406" xlink:href="#DejaVuSans-49"/>
      <use x="216.064453" xlink:href="#DejaVuSans-48"/>
      <use x="279.6875" xlink:href="#DejaVuSans-32"/>
      <use x="311.474609" xlink:href="#DejaVuSans-111"/>
      <use x="372.65625" xlink:href="#DejaVuSans-102"/>
      <use x="407.861328" xlink:href="#DejaVuSans-32"/>
      <use x="439.648438" xlink:href="#DejaVuSans-68"/>
      <use x="516.650391" xlink:href="#DejaVuSans-102"/>
     </g>
    </g>
   </g>
   <g id="matplotlib.axis_2">
    <g id="ytick_1">
     <g id="line2d_9">
      <path clip-path="url(#p10cbc49c5c)" d="M 0 293.76 
L 460.8 293.76 
" style="fill:none;stroke:#b0b0b0;stroke-linecap:square;stroke-width:0.8;"/>
     </g>
     <g id="line2d_10">
      <defs>
       <path d="M 0 0 
L -3.5 0 
" id="me06e69d5e6" style="stroke:#000000;stroke-width:0.8;"/>
      </defs>
      <g>
       <use style="stroke:#000000;stroke-width:0.8;" x="0" xlink:href="#me06e69d5e6" y="293.76"/>
      </g>
     </g>
    </g>
    <g id="ytick_2">
     <g id="line2d_11">
      <path clip-path="url(#p10cbc49c5c)" d="M 0 236.274059 
L 460.8 236.274059 
" style="fill:none;stroke:#b0b0b0;stroke-linecap:square;stroke-width:0.8;"/>
     </g>
     <g id="line2d_12">
      <g>
       <use style="stroke:#000000;stroke-width:0.8;" x="0" xlink:href="#me06e69d5e6" y="236.274059"/>
      </g>
     </g>
    </g>
    <g id="ytick_3">
     <g id="line2d_13">
      <path clip-path="url(#p10cbc49c5c)" d="M 0 178.788119 
L 460.8 178.788119 
" style="fill:none;stroke:#b0b0b0;stroke-linecap:square;stroke-width:0.8;"/>
     </g>
     <g id="line2d_14">
      <g>
       <use style="stroke:#000000;stroke-width:0.8;" x="0" xlink:href="#me06e69d5e6" y="178.788119"/>
      </g>
     </g>
    </g>
    <g id="ytick_4">
     <g id="line2d_15">
      <path clip-path="url(#p10cbc49c5c)" d="M 0 121.302178 
L 460.8 121.302178 
" style="fill:none;stroke:#b0b0b0;stroke-linecap:square;stroke-width:0.8;"/>
     </g>
     <g id="line2d_16">
      <g>
       <use style="stroke:#000000;stroke-width:0.8;" x="0" xlink:href="#me06e69d5e6" y="121.302178"/>
      </g>
     </g>
    </g>
    <g id="ytick_5">
     <g id="line2d_17">
      <path clip-path="url(#p10cbc49c5c)" d="M 0 63.816238 
L 460.8 63.816238 
" style="fill:none;stroke:#b0b0b0;stroke-linecap:square;stroke-width:0.8;"/>
     </g>
     <g id="line2d_18">
      <g>
       <use style="stroke:#000000;stroke-width:0.8;" x="0" xlink:href="#me06e69d5e6" y="63.816238"/>
      </g>
     </g>
    </g>
    <g id="ytick_6">
     <g id="line2d_19">
      <path clip-path="url(#p10cbc49c5c)" d="M 0 6.330297 
L 460.8 6.330297 
" style="fill:none;stroke:#b0b0b0;stroke-linecap:square;stroke-width:0.8;"/>
     </g>
     <g id="line2d_20">
      <g>
       <use style="stroke:#000000;stroke-width:0.8;" x="0" xlink:href="#me06e69d5e6" y="6.330297"/>
      </g>
     </g>
    </g>
   </g>
   <g id="line2d_21">
    <path clip-path="url(#p10cbc49c5c)" d="M -1 226.693069 
L -0.114393 226.693069 
L -0.114393 221.902574 
L -0.114393 221.902574 
L -0.114393 217.112079 
L -0.114393 217.112079 
L -0.114393 212.321584 
L -0.114393 212.321584 
L -0.114393 207.531089 
L -0.114393 207.531089 
L -0.114393 202.740594 
L -0.114393 202.740594 
L -0.114393 197.950099 
L -0.114393 197.950099 
L -0.114393 193.159604 
L -0.114393 193.159604 
L -0.114393 188.369109 
L -0.114393 188.369109 
L -0.114393 183.578614 
L -0.114393 183.578614 
L -0.114393 178.788119 
L -0.114393 178.788119 
L -0.114393 173.997624 
L -0.114393 173.997624 
L -0.114393 169.207129 
L -0.114393 169.207129 
L -0.114393 164.416634 
L -0.114393 164.416634 
L -0.114393 159.626139 
L -0.114393 159.626139 
L -0.114393 154.835644 
L -0.114393 154.835644 
L -0.114393 150.045149 
L -0.114393 150.045149 
L -0.114393 145.254653 
L -0.114393 145.254653 
L -0.114393 140.464158 
L -0.114393 140.464158 
L -0.114393 135.673663 
L -0.114393 135.673663 
L -0.114393 130.883168 
L -0.114393 130.883168 
L -0.114393 126.092673 
L -0.114393 126.092673 
L -0.114393 121.302178 
L -0.114393 121.302178 
L -0.114393 116.511683 
L -0.114393 116.511683 
L -0.114393 111.721188 
L -0.114393 111.721188 
L -0.114393 106.930693 
L -0.114393 106.930693 
L -0.114393 102.140198 
L -0.114393 102.140198 
L -0.114393 97.349703 
L -0.114393 97.349703 
L -0.114393 92.559208 
L 36.13906 92.559208 
L 36.13906 87.768713 
L 203.621091 87.768713 
L 203.621091 82.978218 
L 211.880202 82.978218 
L 211.880202 78.187723 
L 213.206591 78.187723 
L 213.206591 73.397228 
L 213.469029 73.397228 
L 213.469029 68.606733 
L 218.203945 68.606733 
L 218.203945 63.816238 
L 218.900906 63.816238 
L 218.900906 59.025743 
L 221.71564 59.025743 
L 221.71564 54.235248 
L 222.579409 54.235248 
L 222.579409 49.444752 
L 224.586844 49.444752 
L 224.586844 44.654257 
L 225.407566 44.654257 
L 225.407566 39.863762 
L 225.717607 39.863762 
L 225.717607 35.073267 
L 227.395014 35.073267 
L 227.395014 30.282772 
L 227.395014 30.282772 
L 227.395014 25.492277 
L 229.345505 25.492277 
L 229.345505 20.701782 
L 234.082232 20.701782 
L 234.082232 15.911287 
L 234.993071 15.911287 
L 234.993071 11.120792 
L 262.356149 11.120792 
L 262.356149 6.330297 
L 262.356149 6.330297 
L 262.356149 6.330297 
L 460.8 6.330297 
" style="fill:none;stroke:#ff0000;stroke-linecap:square;stroke-width:3;"/>
   </g>
   <g id="line2d_22">
    <path clip-path="url(#p10cbc49c5c)" d="M 241.247253 293.76 
L 241.247253 288.969505 
L 244.782753 288.969505 
L 244.782753 284.17901 
L 249.114611 284.17901 
L 249.114611 279.388515 
L 249.114611 279.388515 
L 249.114611 274.59802 
L 249.114611 274.59802 
L 249.114611 269.807525 
L 249.114611 269.807525 
L 249.114611 265.01703 
L 249.114611 265.01703 
L 249.114611 260.226535 
L 249.114611 260.226535 
L 249.114611 255.43604 
L 249.114611 255.43604 
L 249.114611 250.645545 
L 249.114611 250.645545 
L 249.114611 245.85505 
L 249.114611 245.85505 
L 249.114611 241.064554 
L 249.114611 241.064554 
L 249.114611 236.274059 
L 249.114611 236.274059 
L 249.114611 231.483564 
L 249.114611 231.483564 
L 249.114611 226.693069 
L 249.114611 226.693069 
L 249.114611 221.902574 
L 249.114611 221.902574 
L 249.114611 217.112079 
L 249.114611 217.112079 
L 249.114611 212.321584 
L 250.841145 212.321584 
L 250.841145 207.531089 
L 252.715342 207.531089 
L 252.715342 202.740594 
L 255.569853 202.740594 
L 255.569853 197.950099 
L 262.561768 197.950099 
L 262.561768 193.159604 
L 268.991511 193.159604 
L 268.991511 188.369109 
L 270.250514 188.369109 
L 270.250514 183.578614 
L 270.314094 183.578614 
L 270.314094 178.788119 
L 271.61893 178.788119 
L 271.61893 173.997624 
L 272.087409 173.997624 
L 272.087409 169.207129 
L 273.412862 169.207129 
L 273.412862 164.416634 
L 276.185599 164.416634 
L 276.185599 159.626139 
L 277.757794 159.626139 
L 277.757794 154.835644 
L 282.005258 154.835644 
L 282.005258 150.045149 
L 285.653862 150.045149 
L 285.653862 145.254653 
L 294.325815 145.254653 
L 294.325815 140.464158 
L 301.952117 140.464158 
L 301.952117 135.673663 
L 306.760342 135.673663 
L 306.760342 130.883168 
L 307.568375 130.883168 
L 307.568375 126.092673 
L 309.73069 126.092673 
L 309.73069 121.302178 
L 309.907845 121.302178 
L 309.907845 116.511683 
L 311.942894 116.511683 
L 311.942894 111.721188 
L 314.347014 111.721188 
L 314.347014 106.930693 
L 319.120823 106.930693 
L 319.120823 102.140198 
L 320.322246 102.140198 
L 320.322246 97.349703 
L 321.804777 97.349703 
L 321.804777 92.559208 
L 322.709856 92.559208 
L 322.709856 87.768713 
L 324.360086 87.768713 
L 324.360086 82.978218 
L 324.464714 82.978218 
L 324.464714 78.187723 
L 327.714614 78.187723 
L 327.714614 73.397228 
L 332.206297 73.397228 
L 332.206297 68.606733 
L 334.563668 68.606733 
L 334.563668 63.816238 
L 337.156632 63.816238 
L 337.156632 59.025743 
L 339.376113 59.025743 
L 339.376113 54.235248 
L 340.494466 54.235248 
L 340.494466 49.444752 
L 341.34872 49.444752 
L 341.34872 44.654257 
L 345.536427 44.654257 
L 345.536427 39.863762 
L 347.503462 39.863762 
L 347.503462 35.073267 
L 348.696017 35.073267 
L 348.696017 30.282772 
L 351.018133 30.282772 
L 351.018133 25.492277 
L 356.180292 25.492277 
L 356.180292 20.701782 
L 356.572606 20.701782 
L 356.572606 15.911287 
L 360.923936 15.911287 
L 360.923936 11.120792 
L 364.19848 11.120792 
L 364.19848 6.330297 
L 364.19848 6.330297 
L 364.19848 6.330297 
L 460.8 6.330297 
" style="fill:none;stroke:#00bfbf;stroke-linecap:square;stroke-width:1.5;"/>
   </g>
   <g id="line2d_23">
    <path clip-path="url(#p10cbc49c5c)" d="M 234.770165 293.76 
L 234.770165 288.969505 
L 237.229357 288.969505 
L 237.229357 284.17901 
L 243.880597 284.17901 
L 243.880597 279.388515 
L 245.22715 279.388515 
L 245.22715 274.59802 
L 246.087374 274.59802 
L 246.087374 269.807525 
L 246.393485 269.807525 
L 246.393485 265.01703 
L 248.917267 265.01703 
L 248.917267 260.226535 
L 249.114611 260.226535 
L 249.114611 255.43604 
L 249.114611 255.43604 
L 249.114611 250.645545 
L 249.114611 250.645545 
L 249.114611 245.85505 
L 249.114611 245.85505 
L 249.114611 241.064554 
L 249.114611 241.064554 
L 249.114611 236.274059 
L 249.114611 236.274059 
L 249.114611 231.483564 
L 249.114611 231.483564 
L 249.114611 226.693069 
L 249.114611 226.693069 
L 249.114611 221.902574 
L 249.114611 221.902574 
L 249.114611 217.112079 
L 249.114611 217.112079 
L 249.114611 212.321584 
L 249.114611 212.321584 
L 249.114611 207.531089 
L 252.335304 207.531089 
L 252.335304 202.740594 
L 252.715342 202.740594 
L 252.715342 197.950099 
L 262.561768 197.950099 
L 262.561768 193.159604 
L 268.991511 193.159604 
L 268.991511 188.369109 
L 270.250514 188.369109 
L 270.250514 183.578614 
L 270.314094 183.578614 
L 270.314094 178.788119 
L 271.61893 178.788119 
L 271.61893 173.997624 
L 272.087409 173.997624 
L 272.087409 169.207129 
L 273.274249 169.207129 
L 273.274249 164.416634 
L 275.587602 164.416634 
L 275.587602 159.626139 
L 277.757794 159.626139 
L 277.757794 154.835644 
L 281.391552 154.835644 
L 281.391552 150.045149 
L 285.653862 150.045149 
L 285.653862 145.254653 
L 291.089528 145.254653 
L 291.089528 140.464158 
L 297.294927 140.464158 
L 297.294927 135.673663 
L 306.241606 135.673663 
L 306.241606 130.883168 
L 307.568375 130.883168 
L 307.568375 126.092673 
L 309.73069 126.092673 
L 309.73069 121.302178 
L 309.907845 121.302178 
L 309.907845 116.511683 
L 310.068158 116.511683 
L 310.068158 111.721188 
L 310.924229 111.721188 
L 310.924229 106.930693 
L 316.357287 106.930693 
L 316.357287 102.140198 
L 319.120823 102.140198 
L 319.120823 97.349703 
L 319.971952 97.349703 
L 319.971952 92.559208 
L 321.804777 92.559208 
L 321.804777 87.768713 
L 322.816893 87.768713 
L 322.816893 82.978218 
L 324.360086 82.978218 
L 324.360086 78.187723 
L 327.714614 78.187723 
L 327.714614 73.397228 
L 331.742189 73.397228 
L 331.742189 68.606733 
L 332.206297 68.606733 
L 332.206297 63.816238 
L 332.355287 63.816238 
L 332.355287 59.025743 
L 339.004839 59.025743 
L 339.004839 54.235248 
L 339.907342 54.235248 
L 339.907342 49.444752 
L 340.494466 49.444752 
L 340.494466 44.654257 
L 345.276128 44.654257 
L 345.276128 39.863762 
L 347.503462 39.863762 
L 347.503462 35.073267 
L 348.022206 35.073267 
L 348.022206 30.282772 
L 350.598811 30.282772 
L 350.598811 25.492277 
L 355.23583 25.492277 
L 355.23583 20.701782 
L 356.572606 20.701782 
L 356.572606 15.911287 
L 358.298573 15.911287 
L 358.298573 11.120792 
L 364.178794 11.120792 
L 364.178794 6.330297 
L 364.178794 6.330297 
L 364.178794 6.330297 
L 460.8 6.330297 
" style="fill:none;stroke:#bf00bf;stroke-linecap:square;stroke-width:1.5;"/>
   </g>
   <g id="line2d_24">
    <path clip-path="url(#p10cbc49c5c)" d="M 231.990872 293.76 
L 231.990872 288.969505 
L 234.347256 288.969505 
L 234.347256 284.17901 
L 237.229357 284.17901 
L 237.229357 279.388515 
L 240.847352 279.388515 
L 240.847352 274.59802 
L 243.575906 274.59802 
L 243.575906 269.807525 
L 245.20508 269.807525 
L 245.20508 265.01703 
L 245.225866 265.01703 
L 245.225866 260.226535 
L 245.474453 260.226535 
L 245.474453 255.43604 
L 245.599947 255.43604 
L 245.599947 250.645545 
L 245.800586 250.645545 
L 245.800586 245.85505 
L 246.399643 245.85505 
L 246.399643 241.064554 
L 247.130466 241.064554 
L 247.130466 236.274059 
L 247.808173 236.274059 
L 247.808173 231.483564 
L 248.234428 231.483564 
L 248.234428 226.693069 
L 248.669073 226.693069 
L 248.669073 221.902574 
L 249.045958 221.902574 
L 249.045958 217.112079 
L 249.114611 217.112079 
L 249.114611 212.321584 
L 249.114611 212.321584 
L 249.114611 207.531089 
L 249.114611 207.531089 
L 249.114611 202.740594 
L 250.736904 202.740594 
L 250.736904 197.950099 
L 262.426737 197.950099 
L 262.426737 193.159604 
L 264.820037 193.159604 
L 264.820037 188.369109 
L 265.990892 188.369109 
L 265.990892 183.578614 
L 266.883563 183.578614 
L 266.883563 178.788119 
L 266.916097 178.788119 
L 266.916097 173.997624 
L 270.039468 173.997624 
L 270.039468 169.207129 
L 271.386907 169.207129 
L 271.386907 164.416634 
L 272.587494 164.416634 
L 272.587494 159.626139 
L 272.912909 159.626139 
L 272.912909 154.835644 
L 281.391552 154.835644 
L 281.391552 150.045149 
L 283.299196 150.045149 
L 283.299196 145.254653 
L 288.831019 145.254653 
L 288.831019 140.464158 
L 291.089528 140.464158 
L 291.089528 135.673663 
L 291.777456 135.673663 
L 291.777456 130.883168 
L 303.94466 130.883168 
L 303.94466 126.092673 
L 304.88671 126.092673 
L 304.88671 121.302178 
L 306.804708 121.302178 
L 306.804708 116.511683 
L 307.459392 116.511683 
L 307.459392 111.721188 
L 307.554834 111.721188 
L 307.554834 106.930693 
L 310.727399 106.930693 
L 310.727399 102.140198 
L 314.456919 102.140198 
L 314.456919 97.349703 
L 317.177586 97.349703 
L 317.177586 92.559208 
L 317.437456 92.559208 
L 317.437456 87.768713 
L 321.481625 87.768713 
L 321.481625 82.978218 
L 322.152904 82.978218 
L 322.152904 78.187723 
L 325.684925 78.187723 
L 325.684925 73.397228 
L 326.291643 73.397228 
L 326.291643 68.606733 
L 330.05283 68.606733 
L 330.05283 63.816238 
L 331.574207 63.816238 
L 331.574207 59.025743 
L 332.449586 59.025743 
L 332.449586 54.235248 
L 338.477876 54.235248 
L 338.477876 49.444752 
L 338.807706 49.444752 
L 338.807706 44.654257 
L 344.743458 44.654257 
L 344.743458 39.863762 
L 346.495974 39.863762 
L 346.495974 35.073267 
L 346.89051 35.073267 
L 346.89051 30.282772 
L 348.205655 30.282772 
L 348.205655 25.492277 
L 353.507549 25.492277 
L 353.507549 20.701782 
L 354.644903 20.701782 
L 354.644903 15.911287 
L 357.715961 15.911287 
L 357.715961 11.120792 
L 363.605574 11.120792 
L 363.605574 6.330297 
L 363.605574 6.330297 
L 363.605574 6.330297 
L 460.8 6.330297 
" style="fill:none;stroke:#000000;stroke-linecap:square;stroke-width:1.5;"/>
   </g>
   <g id="line2d_25">
    <path clip-path="url(#p10cbc49c5c)" d="M 222.680372 293.76 
L 222.680372 288.969505 
L 225.549254 288.969505 
L 225.549254 284.17901 
L 226.398047 284.17901 
L 226.398047 279.388515 
L 227.223239 279.388515 
L 227.223239 274.59802 
L 230.44451 274.59802 
L 230.44451 269.807525 
L 231.445242 269.807525 
L 231.445242 265.01703 
L 232.163034 265.01703 
L 232.163034 260.226535 
L 233.98447 260.226535 
L 233.98447 255.43604 
L 235.635828 255.43604 
L 235.635828 250.645545 
L 237.987695 250.645545 
L 237.987695 245.85505 
L 239.329668 245.85505 
L 239.329668 241.064554 
L 240.000591 241.064554 
L 240.000591 236.274059 
L 243.263525 236.274059 
L 243.263525 231.483564 
L 244.219921 231.483564 
L 244.219921 226.693069 
L 245.225866 226.693069 
L 245.225866 221.902574 
L 245.236772 221.902574 
L 245.236772 217.112079 
L 245.474453 217.112079 
L 245.474453 212.321584 
L 245.705839 212.321584 
L 245.705839 207.531089 
L 247.808173 207.531089 
L 247.808173 202.740594 
L 249.031692 202.740594 
L 249.031692 197.950099 
L 249.114611 197.950099 
L 249.114611 193.159604 
L 249.114611 193.159604 
L 249.114611 188.369109 
L 252.299845 188.369109 
L 252.299845 183.578614 
L 254.180773 183.578614 
L 254.180773 178.788119 
L 255.863861 178.788119 
L 255.863861 173.997624 
L 256.569006 173.997624 
L 256.569006 169.207129 
L 258.103255 169.207129 
L 258.103255 164.416634 
L 258.672071 164.416634 
L 258.672071 159.626139 
L 259.493373 159.626139 
L 259.493373 154.835644 
L 260.935465 154.835644 
L 260.935465 150.045149 
L 261.514954 150.045149 
L 261.514954 145.254653 
L 262.426737 145.254653 
L 262.426737 140.464158 
L 266.052455 140.464158 
L 266.052455 135.673663 
L 268.776434 135.673663 
L 268.776434 130.883168 
L 270.703776 130.883168 
L 270.703776 126.092673 
L 275.262129 126.092673 
L 275.262129 121.302178 
L 276.06893 121.302178 
L 276.06893 116.511683 
L 279.145103 116.511683 
L 279.145103 111.721188 
L 279.972145 111.721188 
L 279.972145 106.930693 
L 281.422164 106.930693 
L 281.422164 102.140198 
L 286.840055 102.140198 
L 286.840055 97.349703 
L 286.900577 97.349703 
L 286.900577 92.559208 
L 287.215431 92.559208 
L 287.215431 87.768713 
L 292.51151 87.768713 
L 292.51151 82.978218 
L 293.957152 82.978218 
L 293.957152 78.187723 
L 300.049724 78.187723 
L 300.049724 73.397228 
L 301.53371 73.397228 
L 301.53371 68.606733 
L 306.048776 68.606733 
L 306.048776 63.816238 
L 317.592357 63.816238 
L 317.592357 59.025743 
L 320.555711 59.025743 
L 320.555711 54.235248 
L 321.171449 54.235248 
L 321.171449 49.444752 
L 325.00043 49.444752 
L 325.00043 44.654257 
L 329.059324 44.654257 
L 329.059324 39.863762 
L 330.737964 39.863762 
L 330.737964 35.073267 
L 331.702093 35.073267 
L 331.702093 30.282772 
L 333.823402 30.282772 
L 333.823402 25.492277 
L 338.292524 25.492277 
L 338.292524 20.701782 
L 344.706828 20.701782 
L 344.706828 15.911287 
L 345.836776 15.911287 
L 345.836776 11.120792 
L 357.276627 11.120792 
L 357.276627 6.330297 
L 357.276627 6.330297 
L 357.276627 6.330297 
L 460.8 6.330297 
" style="fill:none;stroke:#00bfbf;stroke-linecap:square;stroke-width:1.5;"/>
   </g>
   <g id="line2d_26">
    <path clip-path="url(#p10cbc49c5c)" d="M 184.929963 293.76 
L 184.929963 288.969505 
L 190.031843 288.969505 
L 190.031843 284.17901 
L 193.36003 284.17901 
L 193.36003 279.388515 
L 198.561519 279.388515 
L 198.561519 274.59802 
L 200.882356 274.59802 
L 200.882356 269.807525 
L 203.449838 269.807525 
L 203.449838 265.01703 
L 203.621091 265.01703 
L 203.621091 260.226535 
L 204.266826 260.226535 
L 204.266826 255.43604 
L 204.953496 255.43604 
L 204.953496 250.645545 
L 206.195288 250.645545 
L 206.195288 245.85505 
L 207.902612 245.85505 
L 207.902612 241.064554 
L 209.211539 241.064554 
L 209.211539 236.274059 
L 209.374853 236.274059 
L 209.374853 231.483564 
L 211.880202 231.483564 
L 211.880202 226.693069 
L 212.390035 226.693069 
L 212.390035 221.902574 
L 213.206591 221.902574 
L 213.206591 217.112079 
L 213.288571 217.112079 
L 213.288571 212.321584 
L 213.469029 212.321584 
L 213.469029 207.531089 
L 215.290918 207.531089 
L 215.290918 202.740594 
L 216.238329 202.740594 
L 216.238329 197.950099 
L 216.334873 197.950099 
L 216.334873 193.159604 
L 216.556407 193.159604 
L 216.556407 188.369109 
L 217.836686 188.369109 
L 217.836686 183.578614 
L 218.203945 183.578614 
L 218.203945 178.788119 
L 218.900906 178.788119 
L 218.900906 173.997624 
L 218.955971 173.997624 
L 218.955971 169.207129 
L 221.198744 169.207129 
L 221.198744 164.416634 
L 221.71564 164.416634 
L 221.71564 159.626139 
L 221.81817 159.626139 
L 221.81817 154.835644 
L 222.318526 154.835644 
L 222.318526 150.045149 
L 222.579409 150.045149 
L 222.579409 145.254653 
L 224.586844 145.254653 
L 224.586844 140.464158 
L 225.407566 140.464158 
L 225.407566 135.673663 
L 225.717607 135.673663 
L 225.717607 130.883168 
L 225.881937 130.883168 
L 225.881937 126.092673 
L 227.042751 126.092673 
L 227.042751 121.302178 
L 228.168751 121.302178 
L 228.168751 116.511683 
L 228.510802 116.511683 
L 228.510802 111.721188 
L 229.249763 111.721188 
L 229.249763 106.930693 
L 229.345505 106.930693 
L 229.345505 102.140198 
L 229.482175 102.140198 
L 229.482175 97.349703 
L 230.435947 97.349703 
L 230.435947 92.559208 
L 231.297594 92.559208 
L 231.297594 87.768713 
L 234.082232 87.768713 
L 234.082232 82.978218 
L 234.993071 82.978218 
L 234.993071 78.187723 
L 235.079752 78.187723 
L 235.079752 73.397228 
L 236.829237 73.397228 
L 236.829237 68.606733 
L 239.284426 68.606733 
L 239.284426 63.816238 
L 239.434429 63.816238 
L 239.434429 59.025743 
L 240.231739 59.025743 
L 240.231739 54.235248 
L 241.441805 54.235248 
L 241.441805 49.444752 
L 243.551675 49.444752 
L 243.551675 44.654257 
L 247.922049 44.654257 
L 247.922049 39.863762 
L 250.354491 39.863762 
L 250.354491 35.073267 
L 252.754189 35.073267 
L 252.754189 30.282772 
L 262.356149 30.282772 
L 262.356149 25.492277 
L 262.50504 25.492277 
L 262.50504 20.701782 
L 263.50118 20.701782 
L 263.50118 15.911287 
L 272.124527 15.911287 
L 272.124527 11.120792 
L 272.329619 11.120792 
L 272.329619 6.330297 
L 272.329619 6.330297 
L 272.329619 6.330297 
L 460.8 6.330297 
" style="fill:none;stroke:#bf00bf;stroke-linecap:square;stroke-width:1.5;"/>
   </g>
   <g id="line2d_27">
    <path clip-path="url(#p10cbc49c5c)" d="M -1 279.388515 
L -0.114393 279.388515 
L -0.114393 274.59802 
L -0.114393 274.59802 
L -0.114393 269.807525 
L -0.114393 269.807525 
L -0.114393 265.01703 
L -0.114393 265.01703 
L -0.114393 260.226535 
L -0.114393 260.226535 
L -0.114393 255.43604 
L -0.114393 255.43604 
L -0.114393 250.645545 
L -0.114393 250.645545 
L -0.114393 245.85505 
L -0.114393 245.85505 
L -0.114393 241.064554 
L -0.114393 241.064554 
L -0.114393 236.274059 
L -0.114393 236.274059 
L -0.114393 231.483564 
L -0.114393 231.483564 
L -0.114393 226.693069 
L -0.114393 226.693069 
L -0.114393 221.902574 
L -0.114393 221.902574 
L -0.114393 217.112079 
L -0.114393 217.112079 
L -0.114393 212.321584 
L -0.114393 212.321584 
L -0.114393 207.531089 
L -0.114393 207.531089 
L -0.114393 202.740594 
L -0.114393 202.740594 
L -0.114393 197.950099 
L -0.114393 197.950099 
L -0.114393 193.159604 
L -0.114393 193.159604 
L -0.114393 188.369109 
L -0.114393 188.369109 
L -0.114393 183.578614 
L -0.114393 183.578614 
L -0.114393 178.788119 
L -0.114393 178.788119 
L -0.114393 173.997624 
L -0.114393 173.997624 
L -0.114393 169.207129 
L -0.114393 169.207129 
L -0.114393 164.416634 
L -0.114393 164.416634 
L -0.114393 159.626139 
L -0.114393 159.626139 
L -0.114393 154.835644 
L -0.114393 154.835644 
L -0.114393 150.045149 
L 7.272944 150.045149 
L 7.272944 145.254653 
L 26.009968 145.254653 
L 26.009968 140.464158 
L 56.115719 140.464158 
L 56.115719 135.673663 
L 71.290669 135.673663 
L 71.290669 130.883168 
L 136.472873 130.883168 
L 136.472873 126.092673 
L 142.804285 126.092673 
L 142.804285 121.302178 
L 167.089887 121.302178 
L 167.089887 116.511683 
L 185.282587 116.511683 
L 185.282587 111.721188 
L 188.940675 111.721188 
L 188.940675 106.930693 
L 196.141464 106.930693 
L 196.141464 102.140198 
L 196.741902 102.140198 
L 196.741902 97.349703 
L 203.621091 97.349703 
L 203.621091 92.559208 
L 211.880202 92.559208 
L 211.880202 87.768713 
L 213.206591 87.768713 
L 213.206591 82.978218 
L 213.469029 82.978218 
L 213.469029 78.187723 
L 218.203945 78.187723 
L 218.203945 73.397228 
L 218.900906 73.397228 
L 218.900906 68.606733 
L 221.71564 68.606733 
L 221.71564 63.816238 
L 222.579409 63.816238 
L 222.579409 59.025743 
L 224.586844 59.025743 
L 224.586844 54.235248 
L 225.407566 54.235248 
L 225.407566 49.444752 
L 225.717607 49.444752 
L 225.717607 44.654257 
L 226.454247 44.654257 
L 226.454247 39.863762 
L 227.395014 39.863762 
L 227.395014 35.073267 
L 227.395014 35.073267 
L 227.395014 30.282772 
L 229.345505 30.282772 
L 229.345505 25.492277 
L 234.082232 25.492277 
L 234.082232 20.701782 
L 234.993071 20.701782 
L 234.993071 15.911287 
L 235.746537 15.911287 
L 235.746537 11.120792 
L 262.356149 11.120792 
L 262.356149 6.330297 
L 262.356149 6.330297 
L 262.356149 6.330297 
L 460.8 6.330297 
" style="fill:none;stroke:#000000;stroke-linecap:square;stroke-width:1.5;"/>
   </g>
   <g id="patch_3">
    <path d="M 0 293.76 
L 0 3.456 
" style="fill:none;stroke:#000000;stroke-linecap:square;stroke-linejoin:miter;stroke-width:0.8;"/>
   </g>
   <g id="patch_4">
    <path d="M 460.8 293.76 
L 460.8 3.456 
" style="fill:none;stroke:#000000;stroke-linecap:square;stroke-linejoin:miter;stroke-width:0.8;"/>
   </g>
   <g id="patch_5">
    <path d="M 0 293.76 
L 460.8 293.76 
" style="fill:none;stroke:#000000;stroke-linecap:square;stroke-linejoin:miter;stroke-width:0.8;"/>
   </g>
   <g id="patch_6">
    <path d="M 0 3.456 
L 460.8 3.456 
" style="fill:none;stroke:#000000;stroke-linecap:square;stroke-linejoin:miter;stroke-width:0.8;"/>
   </g>
   <g id="text_6">
    <!-- {f6-f9}, 5-D -->
    <g transform="translate(331.334 287.95392)scale(0.2 -0.2)">
     <defs>
      <path d="M 51.125 -9.28125 
L 51.125 -16.3125 
L 48.09375 -16.3125 
Q 35.9375 -16.3125 31.8125 -12.6875 
Q 27.6875 -9.078125 27.6875 1.703125 
L 27.6875 13.375 
Q 27.6875 20.75 25.046875 23.578125 
Q 22.40625 26.421875 15.484375 26.421875 
L 12.5 26.421875 
L 12.5 33.40625 
L 15.484375 33.40625 
Q 22.46875 33.40625 25.078125 36.203125 
Q 27.6875 39.015625 27.6875 46.296875 
L 27.6875 58.015625 
Q 27.6875 68.796875 31.8125 72.390625 
Q 35.9375 75.984375 48.09375 75.984375 
L 51.125 75.984375 
L 51.125 69 
L 47.796875 69 
Q 40.921875 69 38.8125 66.84375 
Q 36.71875 64.703125 36.71875 57.8125 
L 36.71875 45.703125 
Q 36.71875 38.03125 34.5 34.5625 
Q 32.28125 31.109375 26.90625 29.890625 
Q 32.328125 28.5625 34.515625 25.09375 
Q 36.71875 21.625 36.71875 14.015625 
L 36.71875 1.90625 
Q 36.71875 -4.984375 38.8125 -7.125 
Q 40.921875 -9.28125 47.796875 -9.28125 
z
" id="DejaVuSans-123"/>
      <path d="M 33.015625 40.375 
Q 26.375 40.375 22.484375 35.828125 
Q 18.609375 31.296875 18.609375 23.390625 
Q 18.609375 15.53125 22.484375 10.953125 
Q 26.375 6.390625 33.015625 6.390625 
Q 39.65625 6.390625 43.53125 10.953125 
Q 47.40625 15.53125 47.40625 23.390625 
Q 47.40625 31.296875 43.53125 35.828125 
Q 39.65625 40.375 33.015625 40.375 
z
M 52.59375 71.296875 
L 52.59375 62.3125 
Q 48.875 64.0625 45.09375 64.984375 
Q 41.3125 65.921875 37.59375 65.921875 
Q 27.828125 65.921875 22.671875 59.328125 
Q 17.53125 52.734375 16.796875 39.40625 
Q 19.671875 43.65625 24.015625 45.921875 
Q 28.375 48.1875 33.59375 48.1875 
Q 44.578125 48.1875 50.953125 41.515625 
Q 57.328125 34.859375 57.328125 23.390625 
Q 57.328125 12.15625 50.6875 5.359375 
Q 44.046875 -1.421875 33.015625 -1.421875 
Q 20.359375 -1.421875 13.671875 8.265625 
Q 6.984375 17.96875 6.984375 36.375 
Q 6.984375 53.65625 15.1875 63.9375 
Q 23.390625 74.21875 37.203125 74.21875 
Q 40.921875 74.21875 44.703125 73.484375 
Q 48.484375 72.75 52.59375 71.296875 
z
" id="DejaVuSans-54"/>
      <path d="M 10.984375 1.515625 
L 10.984375 10.5 
Q 14.703125 8.734375 18.5 7.8125 
Q 22.3125 6.890625 25.984375 6.890625 
Q 35.75 6.890625 40.890625 13.453125 
Q 46.046875 20.015625 46.78125 33.40625 
Q 43.953125 29.203125 39.59375 26.953125 
Q 35.25 24.703125 29.984375 24.703125 
Q 19.046875 24.703125 12.671875 31.3125 
Q 6.296875 37.9375 6.296875 49.421875 
Q 6.296875 60.640625 12.9375 67.421875 
Q 19.578125 74.21875 30.609375 74.21875 
Q 43.265625 74.21875 49.921875 64.515625 
Q 56.59375 54.828125 56.59375 36.375 
Q 56.59375 19.140625 48.40625 8.859375 
Q 40.234375 -1.421875 26.421875 -1.421875 
Q 22.703125 -1.421875 18.890625 -0.6875 
Q 15.09375 0.046875 10.984375 1.515625 
z
M 30.609375 32.421875 
Q 37.25 32.421875 41.125 36.953125 
Q 45.015625 41.5 45.015625 49.421875 
Q 45.015625 57.28125 41.125 61.84375 
Q 37.25 66.40625 30.609375 66.40625 
Q 23.96875 66.40625 20.09375 61.84375 
Q 16.21875 57.28125 16.21875 49.421875 
Q 16.21875 41.5 20.09375 36.953125 
Q 23.96875 32.421875 30.609375 32.421875 
z
" id="DejaVuSans-57"/>
      <path d="M 12.5 -9.28125 
L 15.921875 -9.28125 
Q 22.75 -9.28125 24.828125 -7.171875 
Q 26.90625 -5.078125 26.90625 1.90625 
L 26.90625 14.015625 
Q 26.90625 21.625 29.09375 25.09375 
Q 31.296875 28.5625 36.71875 29.890625 
Q 31.296875 31.109375 29.09375 34.5625 
Q 26.90625 38.03125 26.90625 45.703125 
L 26.90625 57.8125 
Q 26.90625 64.75 24.828125 66.875 
Q 22.75 69 15.921875 69 
L 12.5 69 
L 12.5 75.984375 
L 15.578125 75.984375 
Q 27.734375 75.984375 31.8125 72.390625 
Q 35.890625 68.796875 35.890625 58.015625 
L 35.890625 46.296875 
Q 35.890625 39.015625 38.515625 36.203125 
Q 41.15625 33.40625 48.09375 33.40625 
L 51.125 33.40625 
L 51.125 26.421875 
L 48.09375 26.421875 
Q 41.15625 26.421875 38.515625 23.578125 
Q 35.890625 20.75 35.890625 13.375 
L 35.890625 1.703125 
Q 35.890625 -9.078125 31.8125 -12.6875 
Q 27.734375 -16.3125 15.578125 -16.3125 
L 12.5 -16.3125 
z
" id="DejaVuSans-125"/>
      <path d="M 11.71875 12.40625 
L 22.015625 12.40625 
L 22.015625 4 
L 14.015625 -11.625 
L 7.71875 -11.625 
L 11.71875 4 
z
" id="DejaVuSans-44"/>
      <path d="M 10.796875 72.90625 
L 49.515625 72.90625 
L 49.515625 64.59375 
L 19.828125 64.59375 
L 19.828125 46.734375 
Q 21.96875 47.46875 24.109375 47.828125 
Q 26.265625 48.1875 28.421875 48.1875 
Q 40.625 48.1875 47.75 41.5 
Q 54.890625 34.8125 54.890625 23.390625 
Q 54.890625 11.625 47.5625 5.09375 
Q 40.234375 -1.421875 26.90625 -1.421875 
Q 22.3125 -1.421875 17.546875 -0.640625 
Q 12.796875 0.140625 7.71875 1.703125 
L 7.71875 11.625 
Q 12.109375 9.234375 16.796875 8.0625 
Q 21.484375 6.890625 26.703125 6.890625 
Q 35.15625 6.890625 40.078125 11.328125 
Q 45.015625 15.765625 45.015625 23.390625 
Q 45.015625 31 40.078125 35.4375 
Q 35.15625 39.890625 26.703125 39.890625 
Q 22.75 39.890625 18.8125 39.015625 
Q 14.890625 38.140625 10.796875 36.28125 
z
" id="DejaVuSans-53"/>
     </defs>
     <use xlink:href="#DejaVuSans-123"/>
     <use x="63.623047" xlink:href="#DejaVuSans-102"/>
     <use x="98.828125" xlink:href="#DejaVuSans-54"/>
     <use x="162.451172" xlink:href="#DejaVuSans-45"/>
     <use x="198.535156" xlink:href="#DejaVuSans-102"/>
     <use x="233.740234" xlink:href="#DejaVuSans-57"/>
     <use x="297.363281" xlink:href="#DejaVuSans-125"/>
     <use x="360.986328" xlink:href="#DejaVuSans-44"/>
     <use x="392.773438" xlink:href="#DejaVuSans-32"/>
     <use x="424.560547" xlink:href="#DejaVuSans-53"/>
     <use x="488.183594" xlink:href="#DejaVuSans-45"/>
     <use x="524.267578" xlink:href="#DejaVuSans-68"/>
    </g>
   </g>
   <g id="text_7">
    <!-- v2.4 -->
    <g style="fill:#808080;" transform="translate(219.489063 288.777272)scale(0.1 -0.1)">
     <defs>
      <path d="M 2.984375 54.6875 
L 12.5 54.6875 
L 29.59375 8.796875 
L 46.6875 54.6875 
L 56.203125 54.6875 
L 35.6875 0 
L 23.484375 0 
z
" id="DejaVuSans-118"/>
      <path d="M 19.1875 8.296875 
L 53.609375 8.296875 
L 53.609375 0 
L 7.328125 0 
L 7.328125 8.296875 
Q 12.9375 14.109375 22.625 23.890625 
Q 32.328125 33.6875 34.8125 36.53125 
Q 39.546875 41.84375 41.421875 45.53125 
Q 43.3125 49.21875 43.3125 52.78125 
Q 43.3125 58.59375 39.234375 62.25 
Q 35.15625 65.921875 28.609375 65.921875 
Q 23.96875 65.921875 18.8125 64.3125 
Q 13.671875 62.703125 7.8125 59.421875 
L 7.8125 69.390625 
Q 13.765625 71.78125 18.9375 73 
Q 24.125 74.21875 28.421875 74.21875 
Q 39.75 74.21875 46.484375 68.546875 
Q 53.21875 62.890625 53.21875 53.421875 
Q 53.21875 48.921875 51.53125 44.890625 
Q 49.859375 40.875 45.40625 35.40625 
Q 44.1875 33.984375 37.640625 27.21875 
Q 31.109375 20.453125 19.1875 8.296875 
z
" id="DejaVuSans-50"/>
      <path d="M 10.6875 12.40625 
L 21 12.40625 
L 21 0 
L 10.6875 0 
z
" id="DejaVuSans-46"/>
     </defs>
     <use xlink:href="#DejaVuSans-118"/>
     <use x="59.179688" xlink:href="#DejaVuSans-50"/>
     <use x="122.802734" xlink:href="#DejaVuSans-46"/>
     <use x="154.589844" xlink:href="#DejaVuSans-52"/>
    </g>
   </g>
  </g>
 </g>
 <defs>
  <clipPath id="p10cbc49c5c">
   <rect height="290.304" width="460.8" x="0" y="3.456"/>
  </clipPath>
 </defs>
</svg>
