<?xml version="1.0" encoding="utf-8" standalone="no"?>
<!DOCTYPE svg PUBLIC "-//W3C//DTD SVG 1.1//EN"
  "http://www.w3.org/Graphics/SVG/1.1/DTD/svg11.dtd">
<!-- Created with matplotlib (https://matplotlib.org/) -->
<svg height="345.6pt" version="1.1" viewBox="0 0 460.8 345.6" width="460.8pt" xmlns="http://www.w3.org/2000/svg" xmlns:xlink="http://www.w3.org/1999/xlink">
 <metadata>
  <rdf:RDF xmlns:cc="http://creativecommons.org/ns#" xmlns:dc="http://purl.org/dc/elements/1.1/" xmlns:rdf="http://www.w3.org/1999/02/22-rdf-syntax-ns#">
   <cc:Work>
    <dc:type rdf:resource="http://purl.org/dc/dcmitype/StillImage"/>
    <dc:date>2021-06-17T01:39:19.095473</dc:date>
    <dc:format>image/svg+xml</dc:format>
    <dc:creator>
     <cc:Agent>
      <dc:title>Matplotlib v3.3.4, https://matplotlib.org/</dc:title>
     </cc:Agent>
    </dc:creator>
   </cc:Work>
  </rdf:RDF>
 </metadata>
 <defs>
  <style type="text/css">*{stroke-linecap:butt;stroke-linejoin:round;}</style>
 </defs>
 <g id="figure_1">
  <g id="patch_1">
   <path d="M 0 345.6 
L 460.8 345.6 
L 460.8 0 
L 0 0 
z
" style="fill:#ffffff;"/>
  </g>
  <g id="axes_1">
   <g id="patch_2">
    <path d="M 0 293.76 
L 460.8 293.76 
L 460.8 3.456 
L 0 3.456 
z
" style="fill:#ffffff;"/>
   </g>
   <g id="matplotlib.axis_1">
    <g id="xtick_1">
     <g id="line2d_1">
      <path clip-path="url(#pf589ec9c2e)" d="M 105.771835 293.76 
L 105.771835 3.456 
" style="fill:none;stroke:#b0b0b0;stroke-linecap:square;stroke-width:0.8;"/>
     </g>
     <g id="line2d_2">
      <defs>
       <path d="M 0 0 
L 0 3.5 
" id="m2e7bf02a62" style="stroke:#000000;stroke-width:0.8;"/>
      </defs>
      <g>
       <use style="stroke:#000000;stroke-width:0.8;" x="105.771835" xlink:href="#m2e7bf02a62" y="293.76"/>
      </g>
     </g>
     <g id="text_1">
      <!-- -4 -->
      <g transform="translate(95.801522 315.956875)scale(0.2 -0.2)">
       <defs>
        <path d="M 4.890625 31.390625 
L 31.203125 31.390625 
L 31.203125 23.390625 
L 4.890625 23.390625 
z
" id="DejaVuSans-45"/>
        <path d="M 37.796875 64.3125 
L 12.890625 25.390625 
L 37.796875 25.390625 
z
M 35.203125 72.90625 
L 47.609375 72.90625 
L 47.609375 25.390625 
L 58.015625 25.390625 
L 58.015625 17.1875 
L 47.609375 17.1875 
L 47.609375 0 
L 37.796875 0 
L 37.796875 17.1875 
L 4.890625 17.1875 
L 4.890625 26.703125 
z
" id="DejaVuSans-52"/>
       </defs>
       <use xlink:href="#DejaVuSans-45"/>
       <use x="36.083984" xlink:href="#DejaVuSans-52"/>
      </g>
     </g>
    </g>
    <g id="xtick_2">
     <g id="line2d_3">
      <path clip-path="url(#pf589ec9c2e)" d="M 211.658063 293.76 
L 211.658063 3.456 
" style="fill:none;stroke:#b0b0b0;stroke-linecap:square;stroke-width:0.8;"/>
     </g>
     <g id="line2d_4">
      <g>
       <use style="stroke:#000000;stroke-width:0.8;" x="211.658063" xlink:href="#m2e7bf02a62" y="293.76"/>
      </g>
     </g>
     <g id="text_2">
      <!-- 0 -->
      <g transform="translate(205.295563 315.956875)scale(0.2 -0.2)">
       <defs>
        <path d="M 31.78125 66.40625 
Q 24.171875 66.40625 20.328125 58.90625 
Q 16.5 51.421875 16.5 36.375 
Q 16.5 21.390625 20.328125 13.890625 
Q 24.171875 6.390625 31.78125 6.390625 
Q 39.453125 6.390625 43.28125 13.890625 
Q 47.125 21.390625 47.125 36.375 
Q 47.125 51.421875 43.28125 58.90625 
Q 39.453125 66.40625 31.78125 66.40625 
z
M 31.78125 74.21875 
Q 44.046875 74.21875 50.515625 64.515625 
Q 56.984375 54.828125 56.984375 36.375 
Q 56.984375 17.96875 50.515625 8.265625 
Q 44.046875 -1.421875 31.78125 -1.421875 
Q 19.53125 -1.421875 13.0625 8.265625 
Q 6.59375 17.96875 6.59375 36.375 
Q 6.59375 54.828125 13.0625 64.515625 
Q 19.53125 74.21875 31.78125 74.21875 
z
" id="DejaVuSans-48"/>
       </defs>
       <use xlink:href="#DejaVuSans-48"/>
      </g>
     </g>
    </g>
    <g id="xtick_3">
     <g id="line2d_5">
      <path clip-path="url(#pf589ec9c2e)" d="M 317.544291 293.76 
L 317.544291 3.456 
" style="fill:none;stroke:#b0b0b0;stroke-linecap:square;stroke-width:0.8;"/>
     </g>
     <g id="line2d_6">
      <g>
       <use style="stroke:#000000;stroke-width:0.8;" x="317.544291" xlink:href="#m2e7bf02a62" y="293.76"/>
      </g>
     </g>
     <g id="text_3">
      <!-- 4 -->
      <g transform="translate(311.181791 315.956875)scale(0.2 -0.2)">
       <use xlink:href="#DejaVuSans-52"/>
      </g>
     </g>
    </g>
    <g id="xtick_4">
     <g id="line2d_7">
      <path clip-path="url(#pf589ec9c2e)" d="M 423.430519 293.76 
L 423.430519 3.456 
" style="fill:none;stroke:#b0b0b0;stroke-linecap:square;stroke-width:0.8;"/>
     </g>
     <g id="line2d_8">
      <g>
       <use style="stroke:#000000;stroke-width:0.8;" x="423.430519" xlink:href="#m2e7bf02a62" y="293.76"/>
      </g>
     </g>
     <g id="text_4">
      <!-- 8 -->
      <g transform="translate(417.068019 315.956875)scale(0.2 -0.2)">
       <defs>
        <path d="M 31.78125 34.625 
Q 24.75 34.625 20.71875 30.859375 
Q 16.703125 27.09375 16.703125 20.515625 
Q 16.703125 13.921875 20.71875 10.15625 
Q 24.75 6.390625 31.78125 6.390625 
Q 38.8125 6.390625 42.859375 10.171875 
Q 46.921875 13.96875 46.921875 20.515625 
Q 46.921875 27.09375 42.890625 30.859375 
Q 38.875 34.625 31.78125 34.625 
z
M 21.921875 38.8125 
Q 15.578125 40.375 12.03125 44.71875 
Q 8.5 49.078125 8.5 55.328125 
Q 8.5 64.0625 14.71875 69.140625 
Q 20.953125 74.21875 31.78125 74.21875 
Q 42.671875 74.21875 48.875 69.140625 
Q 55.078125 64.0625 55.078125 55.328125 
Q 55.078125 49.078125 51.53125 44.71875 
Q 48 40.375 41.703125 38.8125 
Q 48.828125 37.15625 52.796875 32.3125 
Q 56.78125 27.484375 56.78125 20.515625 
Q 56.78125 9.90625 50.3125 4.234375 
Q 43.84375 -1.421875 31.78125 -1.421875 
Q 19.734375 -1.421875 13.25 4.234375 
Q 6.78125 9.90625 6.78125 20.515625 
Q 6.78125 27.484375 10.78125 32.3125 
Q 14.796875 37.15625 21.921875 38.8125 
z
M 18.3125 54.390625 
Q 18.3125 48.734375 21.84375 45.5625 
Q 25.390625 42.390625 31.78125 42.390625 
Q 38.140625 42.390625 41.71875 45.5625 
Q 45.3125 48.734375 45.3125 54.390625 
Q 45.3125 60.0625 41.71875 63.234375 
Q 38.140625 66.40625 31.78125 66.40625 
Q 25.390625 66.40625 21.84375 63.234375 
Q 18.3125 60.0625 18.3125 54.390625 
z
" id="DejaVuSans-56"/>
       </defs>
       <use xlink:href="#DejaVuSans-56"/>
      </g>
     </g>
    </g>
    <g id="text_5">
     <!-- log10 of Df -->
     <g transform="translate(175.214063 339.313125)scale(0.2 -0.2)">
      <defs>
       <path d="M 9.421875 75.984375 
L 18.40625 75.984375 
L 18.40625 0 
L 9.421875 0 
z
" id="DejaVuSans-108"/>
       <path d="M 30.609375 48.390625 
Q 23.390625 48.390625 19.1875 42.75 
Q 14.984375 37.109375 14.984375 27.296875 
Q 14.984375 17.484375 19.15625 11.84375 
Q 23.34375 6.203125 30.609375 6.203125 
Q 37.796875 6.203125 41.984375 11.859375 
Q 46.1875 17.53125 46.1875 27.296875 
Q 46.1875 37.015625 41.984375 42.703125 
Q 37.796875 48.390625 30.609375 48.390625 
z
M 30.609375 56 
Q 42.328125 56 49.015625 48.375 
Q 55.71875 40.765625 55.71875 27.296875 
Q 55.71875 13.875 49.015625 6.21875 
Q 42.328125 -1.421875 30.609375 -1.421875 
Q 18.84375 -1.421875 12.171875 6.21875 
Q 5.515625 13.875 5.515625 27.296875 
Q 5.515625 40.765625 12.171875 48.375 
Q 18.84375 56 30.609375 56 
z
" id="DejaVuSans-111"/>
       <path d="M 45.40625 27.984375 
Q 45.40625 37.75 41.375 43.109375 
Q 37.359375 48.484375 30.078125 48.484375 
Q 22.859375 48.484375 18.828125 43.109375 
Q 14.796875 37.75 14.796875 27.984375 
Q 14.796875 18.265625 18.828125 12.890625 
Q 22.859375 7.515625 30.078125 7.515625 
Q 37.359375 7.515625 41.375 12.890625 
Q 45.40625 18.265625 45.40625 27.984375 
z
M 54.390625 6.78125 
Q 54.390625 -7.171875 48.1875 -13.984375 
Q 42 -20.796875 29.203125 -20.796875 
Q 24.46875 -20.796875 20.265625 -20.09375 
Q 16.0625 -19.390625 12.109375 -17.921875 
L 12.109375 -9.1875 
Q 16.0625 -11.328125 19.921875 -12.34375 
Q 23.78125 -13.375 27.78125 -13.375 
Q 36.625 -13.375 41.015625 -8.765625 
Q 45.40625 -4.15625 45.40625 5.171875 
L 45.40625 9.625 
Q 42.625 4.78125 38.28125 2.390625 
Q 33.9375 0 27.875 0 
Q 17.828125 0 11.671875 7.65625 
Q 5.515625 15.328125 5.515625 27.984375 
Q 5.515625 40.671875 11.671875 48.328125 
Q 17.828125 56 27.875 56 
Q 33.9375 56 38.28125 53.609375 
Q 42.625 51.21875 45.40625 46.390625 
L 45.40625 54.6875 
L 54.390625 54.6875 
z
" id="DejaVuSans-103"/>
       <path d="M 12.40625 8.296875 
L 28.515625 8.296875 
L 28.515625 63.921875 
L 10.984375 60.40625 
L 10.984375 69.390625 
L 28.421875 72.90625 
L 38.28125 72.90625 
L 38.28125 8.296875 
L 54.390625 8.296875 
L 54.390625 0 
L 12.40625 0 
z
" id="DejaVuSans-49"/>
       <path id="DejaVuSans-32"/>
       <path d="M 37.109375 75.984375 
L 37.109375 68.5 
L 28.515625 68.5 
Q 23.6875 68.5 21.796875 66.546875 
Q 19.921875 64.59375 19.921875 59.515625 
L 19.921875 54.6875 
L 34.71875 54.6875 
L 34.71875 47.703125 
L 19.921875 47.703125 
L 19.921875 0 
L 10.890625 0 
L 10.890625 47.703125 
L 2.296875 47.703125 
L 2.296875 54.6875 
L 10.890625 54.6875 
L 10.890625 58.5 
Q 10.890625 67.625 15.140625 71.796875 
Q 19.390625 75.984375 28.609375 75.984375 
z
" id="DejaVuSans-102"/>
       <path d="M 19.671875 64.796875 
L 19.671875 8.109375 
L 31.59375 8.109375 
Q 46.6875 8.109375 53.6875 14.9375 
Q 60.6875 21.78125 60.6875 36.53125 
Q 60.6875 51.171875 53.6875 57.984375 
Q 46.6875 64.796875 31.59375 64.796875 
z
M 9.8125 72.90625 
L 30.078125 72.90625 
Q 51.265625 72.90625 61.171875 64.09375 
Q 71.09375 55.28125 71.09375 36.53125 
Q 71.09375 17.671875 61.125 8.828125 
Q 51.171875 0 30.078125 0 
L 9.8125 0 
z
" id="DejaVuSans-68"/>
      </defs>
      <use xlink:href="#DejaVuSans-108"/>
      <use x="27.783203" xlink:href="#DejaVuSans-111"/>
      <use x="88.964844" xlink:href="#DejaVuSans-103"/>
      <use x="152.441406" xlink:href="#DejaVuSans-49"/>
      <use x="216.064453" xlink:href="#DejaVuSans-48"/>
      <use x="279.6875" xlink:href="#DejaVuSans-32"/>
      <use x="311.474609" xlink:href="#DejaVuSans-111"/>
      <use x="372.65625" xlink:href="#DejaVuSans-102"/>
      <use x="407.861328" xlink:href="#DejaVuSans-32"/>
      <use x="439.648438" xlink:href="#DejaVuSans-68"/>
      <use x="516.650391" xlink:href="#DejaVuSans-102"/>
     </g>
    </g>
   </g>
   <g id="matplotlib.axis_2">
    <g id="ytick_1">
     <g id="line2d_9">
      <path clip-path="url(#pf589ec9c2e)" d="M 0 293.76 
L 460.8 293.76 
" style="fill:none;stroke:#b0b0b0;stroke-linecap:square;stroke-width:0.8;"/>
     </g>
     <g id="line2d_10">
      <defs>
       <path d="M 0 0 
L -3.5 0 
" id="m27e87fb35f" style="stroke:#000000;stroke-width:0.8;"/>
      </defs>
      <g>
       <use style="stroke:#000000;stroke-width:0.8;" x="0" xlink:href="#m27e87fb35f" y="293.76"/>
      </g>
     </g>
    </g>
    <g id="ytick_2">
     <g id="line2d_11">
      <path clip-path="url(#pf589ec9c2e)" d="M 0 236.274059 
L 460.8 236.274059 
" style="fill:none;stroke:#b0b0b0;stroke-linecap:square;stroke-width:0.8;"/>
     </g>
     <g id="line2d_12">
      <g>
       <use style="stroke:#000000;stroke-width:0.8;" x="0" xlink:href="#m27e87fb35f" y="236.274059"/>
      </g>
     </g>
    </g>
    <g id="ytick_3">
     <g id="line2d_13">
      <path clip-path="url(#pf589ec9c2e)" d="M 0 178.788119 
L 460.8 178.788119 
" style="fill:none;stroke:#b0b0b0;stroke-linecap:square;stroke-width:0.8;"/>
     </g>
     <g id="line2d_14">
      <g>
       <use style="stroke:#000000;stroke-width:0.8;" x="0" xlink:href="#m27e87fb35f" y="178.788119"/>
      </g>
     </g>
    </g>
    <g id="ytick_4">
     <g id="line2d_15">
      <path clip-path="url(#pf589ec9c2e)" d="M 0 121.302178 
L 460.8 121.302178 
" style="fill:none;stroke:#b0b0b0;stroke-linecap:square;stroke-width:0.8;"/>
     </g>
     <g id="line2d_16">
      <g>
       <use style="stroke:#000000;stroke-width:0.8;" x="0" xlink:href="#m27e87fb35f" y="121.302178"/>
      </g>
     </g>
    </g>
    <g id="ytick_5">
     <g id="line2d_17">
      <path clip-path="url(#pf589ec9c2e)" d="M 0 63.816238 
L 460.8 63.816238 
" style="fill:none;stroke:#b0b0b0;stroke-linecap:square;stroke-width:0.8;"/>
     </g>
     <g id="line2d_18">
      <g>
       <use style="stroke:#000000;stroke-width:0.8;" x="0" xlink:href="#m27e87fb35f" y="63.816238"/>
      </g>
     </g>
    </g>
    <g id="ytick_6">
     <g id="line2d_19">
      <path clip-path="url(#pf589ec9c2e)" d="M 0 6.330297 
L 460.8 6.330297 
" style="fill:none;stroke:#b0b0b0;stroke-linecap:square;stroke-width:0.8;"/>
     </g>
     <g id="line2d_20">
      <g>
       <use style="stroke:#000000;stroke-width:0.8;" x="0" xlink:href="#m27e87fb35f" y="6.330297"/>
      </g>
     </g>
    </g>
   </g>
   <g id="line2d_21">
    <path clip-path="url(#pf589ec9c2e)" d="M -0.114393 293.76 
L -0.114393 266.933228 
L 185.556204 266.933228 
L 185.556204 263.100832 
L 198.557553 263.100832 
L 198.557553 259.268436 
L 202.18101 259.268436 
L 202.18101 255.43604 
L 205.823245 255.43604 
L 205.823245 251.603644 
L 206.702981 251.603644 
L 206.702981 247.771248 
L 207.314001 247.771248 
L 207.314001 243.938851 
L 207.988276 243.938851 
L 207.988276 240.106455 
L 208.124968 240.106455 
L 208.124968 236.274059 
L 209.64277 236.274059 
L 209.64277 232.441663 
L 210.787395 232.441663 
L 210.787395 228.609267 
L 212.810458 228.609267 
L 212.810458 224.776871 
L 213.128284 224.776871 
L 213.128284 220.944475 
L 213.603518 220.944475 
L 213.603518 217.112079 
L 213.850333 217.112079 
L 213.850333 213.279683 
L 214.179703 213.279683 
L 214.179703 205.614891 
L 216.016263 205.614891 
L 216.016263 201.782495 
L 216.175952 201.782495 
L 216.248836 194.117703 
L 216.619939 194.117703 
L 216.619939 186.452911 
L 218.00675 186.452911 
L 218.00675 178.788119 
L 218.434792 178.788119 
L 218.434792 174.955723 
L 218.719837 174.955723 
L 218.765294 163.458535 
L 219.15825 163.458535 
L 219.15825 159.626139 
L 219.875069 159.626139 
L 219.927404 148.12895 
L 220.366524 148.12895 
L 220.366524 140.464158 
L 221.950413 140.464158 
L 221.950413 136.631762 
L 222.067196 136.631762 
L 222.067196 132.799366 
L 222.601182 132.799366 
L 222.601182 121.302178 
L 228.051343 121.302178 
L 228.051343 117.469782 
L 233.726764 117.469782 
L 233.726764 113.637386 
L 234.047336 113.637386 
L 234.047336 105.972594 
L 234.539176 105.972594 
L 234.539176 102.140198 
L 235.356295 102.140198 
L 235.356295 98.307802 
L 235.740366 98.307802 
L 235.740366 94.475406 
L 236.584954 94.475406 
L 236.584954 86.810614 
L 238.115324 86.810614 
L 238.115324 82.978218 
L 238.485022 82.978218 
L 238.485022 79.145822 
L 239.198654 79.145822 
L 239.198654 75.313426 
L 239.355893 75.313426 
L 239.355893 71.48103 
L 240.819449 71.48103 
L 240.819449 67.648634 
L 241.709258 67.648634 
L 241.709258 63.816238 
L 245.069752 63.816238 
L 245.133521 56.151446 
L 245.764979 56.151446 
L 245.764979 52.31905 
L 246.568846 52.31905 
L 246.568846 48.486653 
L 247.677948 48.486653 
L 247.677948 44.654257 
L 248.120123 44.654257 
L 248.154166 36.989465 
L 248.588611 36.989465 
L 248.588611 33.157069 
L 248.880975 33.157069 
L 248.880975 29.324673 
L 249.228565 29.324673 
L 249.228565 25.492277 
L 249.976672 25.492277 
L 249.976672 21.659881 
L 250.791224 21.659881 
L 250.791224 13.995089 
L 252.39467 13.995089 
L 252.39467 10.162693 
L 256.669985 10.162693 
L 256.669985 6.330297 
L 256.669985 6.330297 
L 460.8 6.330297 
L 460.8 6.330297 
" style="fill:none;stroke:#ff0000;stroke-linecap:square;stroke-width:3;"/>
   </g>
   <g id="line2d_22">
    <path clip-path="url(#pf589ec9c2e)" d="M 233.093972 293.76 
L 233.093972 289.927604 
L 233.221242 289.927604 
L 233.221242 286.095208 
L 233.554578 286.095208 
L 233.554578 282.262812 
L 234.733436 282.262812 
L 234.733436 278.430416 
L 236.995466 278.430416 
L 236.995466 274.59802 
L 238.824244 274.59802 
L 238.824244 270.765624 
L 239.742243 270.765624 
L 239.742243 266.933228 
L 240.756882 266.933228 
L 240.756882 263.100832 
L 241.02293 263.100832 
L 241.02293 259.268436 
L 241.7802 259.268436 
L 241.7802 255.43604 
L 242.709313 255.43604 
L 242.709313 251.603644 
L 243.237951 251.603644 
L 243.237951 247.771248 
L 244.026077 247.771248 
L 244.026077 243.938851 
L 245.866674 243.938851 
L 245.866674 240.106455 
L 246.207267 240.106455 
L 246.207267 236.274059 
L 246.374833 236.274059 
L 246.374833 232.441663 
L 246.616448 232.441663 
L 246.616448 228.609267 
L 247.895304 228.609267 
L 247.895304 224.776871 
L 249.505853 224.776871 
L 249.505853 220.944475 
L 251.59926 220.944475 
L 251.59926 217.112079 
L 252.237372 217.112079 
L 252.237372 213.279683 
L 252.381439 213.279683 
L 252.381439 209.447287 
L 254.744313 209.447287 
L 254.827142 201.782495 
L 255.576096 201.782495 
L 255.576096 197.950099 
L 256.409718 197.950099 
L 256.409718 194.117703 
L 256.607067 194.117703 
L 256.607067 190.285307 
L 257.600151 190.285307 
L 257.600151 186.452911 
L 257.888984 186.452911 
L 257.888984 182.620515 
L 258.108392 182.620515 
L 258.108392 178.788119 
L 258.467973 178.788119 
L 258.467973 174.955723 
L 258.643734 174.955723 
L 258.746146 167.290931 
L 259.189333 167.290931 
L 259.23666 151.961347 
L 259.679204 151.961347 
L 259.750613 144.296554 
L 259.844734 144.296554 
L 259.856366 136.631762 
L 260.259906 136.631762 
L 260.311051 125.134574 
L 260.41394 125.134574 
L 260.459854 117.469782 
L 260.569087 117.469782 
L 260.650738 109.80499 
L 260.704553 109.80499 
L 260.704553 105.972594 
L 260.991844 105.972594 
L 261.096371 98.307802 
L 261.133154 98.307802 
L 261.133154 94.475406 
L 261.519141 94.475406 
L 261.519141 90.64301 
L 261.735549 90.64301 
L 261.776721 82.978218 
L 261.89965 82.978218 
L 261.89965 79.145822 
L 263.090746 79.145822 
L 263.090746 75.313426 
L 263.493936 75.313426 
L 263.56188 67.648634 
L 263.900472 67.648634 
L 263.900472 63.816238 
L 304.004362 63.816238 
L 304.004584 52.31905 
L 312.38338 52.31905 
L 312.38338 48.486653 
L 312.754536 48.486653 
L 312.754536 6.330297 
L 312.754536 6.330297 
L 460.8 6.330297 
L 460.8 6.330297 
" style="fill:none;stroke:#00bfbf;stroke-linecap:square;stroke-width:1.5;"/>
   </g>
   <g id="line2d_23">
    <path clip-path="url(#pf589ec9c2e)" d="M 222.2255 293.76 
L 222.2255 289.927604 
L 228.023715 289.927604 
L 228.023715 286.095208 
L 228.98386 286.095208 
L 228.98386 282.262812 
L 229.383967 282.262812 
L 229.383967 278.430416 
L 233.221242 278.430416 
L 233.221242 274.59802 
L 233.554578 274.59802 
L 233.554578 270.765624 
L 233.888808 270.765624 
L 233.938967 263.100832 
L 234.540972 263.100832 
L 234.540972 259.268436 
L 235.322378 259.268436 
L 235.322378 255.43604 
L 235.664989 255.43604 
L 235.664989 251.603644 
L 236.995466 251.603644 
L 236.995466 247.771248 
L 237.142177 247.771248 
L 237.142177 243.938851 
L 238.175287 243.938851 
L 238.175287 240.106455 
L 242.434595 240.106455 
L 242.434595 236.274059 
L 242.976484 236.274059 
L 242.976484 232.441663 
L 244.026077 232.441663 
L 244.026077 228.609267 
L 244.378289 228.609267 
L 244.378289 224.776871 
L 246.207267 224.776871 
L 246.207267 220.944475 
L 249.505853 220.944475 
L 249.508826 213.279683 
L 251.59926 213.279683 
L 251.59926 209.447287 
L 252.151234 209.447287 
L 252.151234 205.614891 
L 252.381439 205.614891 
L 252.44912 197.950099 
L 253.096687 197.950099 
L 253.096687 194.117703 
L 253.708778 194.117703 
L 253.708778 190.285307 
L 254.475203 190.285307 
L 254.475203 186.452911 
L 255.985079 186.452911 
L 255.985079 182.620515 
L 256.354898 182.620515 
L 256.354898 178.788119 
L 256.572231 178.788119 
L 256.572231 174.955723 
L 257.337247 174.955723 
L 257.436995 167.290931 
L 257.600151 167.290931 
L 257.600151 163.458535 
L 257.985714 163.458535 
L 257.985714 159.626139 
L 258.108392 159.626139 
L 258.19718 151.961347 
L 258.256848 151.961347 
L 258.256848 148.12895 
L 258.374992 148.12895 
L 258.374992 144.296554 
L 259.077975 144.296554 
L 259.135517 132.799366 
L 259.282524 132.799366 
L 259.282524 128.96697 
L 259.679204 128.96697 
L 259.750613 121.302178 
L 259.844734 121.302178 
L 259.856366 113.637386 
L 260.05061 113.637386 
L 260.126543 105.972594 
L 260.259906 105.972594 
L 260.311051 98.307802 
L 260.650738 98.307802 
L 260.704721 86.810614 
L 260.883766 86.810614 
L 260.903808 79.145822 
L 260.998515 79.145822 
L 260.998515 75.313426 
L 261.133154 75.313426 
L 261.189843 67.648634 
L 261.807106 67.648634 
L 261.807106 63.816238 
L 299.271863 63.816238 
L 299.271863 56.151446 
L 300.281513 56.151446 
L 300.281513 52.31905 
L 300.616707 52.31905 
L 300.616707 48.486653 
L 304.004362 48.486653 
L 304.004584 36.989465 
L 305.756217 36.989465 
L 305.759096 25.492277 
L 306.712242 25.492277 
L 306.712242 21.659881 
L 306.90335 21.659881 
L 306.905024 10.162693 
L 309.586137 10.162693 
L 309.586137 6.330297 
L 309.586137 6.330297 
L 460.8 6.330297 
L 460.8 6.330297 
" style="fill:none;stroke:#bf00bf;stroke-linecap:square;stroke-width:1.5;"/>
   </g>
   <g id="line2d_24">
    <path clip-path="url(#pf589ec9c2e)" d="M 203.957258 293.76 
L 203.957258 289.927604 
L 222.2255 289.927604 
L 222.2255 286.095208 
L 226.850784 286.095208 
L 226.850784 282.262812 
L 228.023715 282.262812 
L 228.023715 278.430416 
L 228.98386 278.430416 
L 228.98386 274.59802 
L 231.309636 274.59802 
L 231.309636 270.765624 
L 231.519203 270.765624 
L 231.519203 266.933228 
L 232.456858 266.933228 
L 232.456858 263.100832 
L 233.001215 263.100832 
L 233.001215 259.268436 
L 233.815045 259.268436 
L 233.815045 255.43604 
L 233.938967 255.43604 
L 233.938967 251.603644 
L 235.322378 251.603644 
L 235.322378 247.771248 
L 235.664989 247.771248 
L 235.664989 243.938851 
L 235.925119 243.938851 
L 235.925119 240.106455 
L 236.995466 240.106455 
L 236.995466 236.274059 
L 238.175287 236.274059 
L 238.175287 232.441663 
L 239.309113 232.441663 
L 239.309113 228.609267 
L 240.482387 228.609267 
L 240.482387 224.776871 
L 242.975887 224.776871 
L 242.975887 220.944475 
L 245.739215 220.944475 
L 245.739215 217.112079 
L 246.814669 217.112079 
L 246.814669 213.279683 
L 249.290409 213.279683 
L 249.290409 209.447287 
L 249.508826 209.447287 
L 249.508826 205.614891 
L 249.676643 205.614891 
L 249.676643 201.782495 
L 250.030266 201.782495 
L 250.030266 197.950099 
L 250.358041 197.950099 
L 250.358041 194.117703 
L 251.003584 194.117703 
L 251.003584 190.285307 
L 253.096687 190.285307 
L 253.096687 186.452911 
L 255.870986 186.452911 
L 255.974689 171.123327 
L 256.354898 171.123327 
L 256.354898 167.290931 
L 256.554715 167.290931 
L 256.572231 159.626139 
L 256.758577 159.626139 
L 256.758577 155.793743 
L 256.874179 155.793743 
L 256.957418 148.12895 
L 257.197696 148.12895 
L 257.197696 144.296554 
L 257.337247 144.296554 
L 257.423239 136.631762 
L 257.558093 136.631762 
L 257.600151 128.96697 
L 258.108392 128.96697 
L 258.196203 121.302178 
L 258.374992 121.302178 
L 258.431498 113.637386 
L 259.274228 113.637386 
L 259.374155 94.475406 
L 259.620357 94.475406 
L 259.707471 82.978218 
L 259.920711 82.978218 
L 259.920711 79.145822 
L 260.322334 79.145822 
L 260.322334 75.313426 
L 260.551863 75.313426 
L 260.551863 71.48103 
L 260.756537 71.48103 
L 260.809803 63.816238 
L 287.368286 63.816238 
L 287.368286 59.983842 
L 292.545632 59.983842 
L 292.551796 48.486653 
L 296.422141 48.486653 
L 296.422141 40.821861 
L 300.281513 40.821861 
L 300.281513 36.989465 
L 300.616707 36.989465 
L 300.616707 33.157069 
L 304.918892 33.157069 
L 304.919826 21.659881 
L 306.712242 21.659881 
L 306.712242 17.827485 
L 306.90335 17.827485 
L 306.905024 6.330297 
L 306.905024 6.330297 
L 460.8 6.330297 
L 460.8 6.330297 
" style="fill:none;stroke:#000000;stroke-linecap:square;stroke-width:1.5;"/>
   </g>
   <g id="line2d_25">
    <path clip-path="url(#pf589ec9c2e)" d="M 174.241743 293.76 
L 174.241743 289.927604 
L 193.873001 289.927604 
L 193.873001 286.095208 
L 219.624309 286.095208 
L 219.624309 282.262812 
L 221.718091 282.262812 
L 221.718091 278.430416 
L 222.2255 278.430416 
L 222.2255 274.59802 
L 223.377821 274.59802 
L 223.377821 270.765624 
L 223.699731 270.765624 
L 223.699731 266.933228 
L 224.237276 266.933228 
L 224.237276 263.100832 
L 224.973417 263.100832 
L 224.973417 259.268436 
L 225.277247 259.268436 
L 225.277247 255.43604 
L 225.991716 255.43604 
L 225.991716 251.603644 
L 226.709814 251.603644 
L 226.709814 243.938851 
L 226.850784 243.938851 
L 226.957755 228.609267 
L 227.021798 228.609267 
L 227.021798 224.776871 
L 227.652208 224.776871 
L 227.652208 220.944475 
L 228.023715 220.944475 
L 228.023715 217.112079 
L 228.98386 217.112079 
L 228.98386 213.279683 
L 229.297413 213.279683 
L 229.371278 201.782495 
L 230.709944 201.782495 
L 230.709944 197.950099 
L 232.670846 197.950099 
L 232.670846 194.117703 
L 233.007241 194.117703 
L 233.007241 190.285307 
L 233.205004 190.285307 
L 233.205004 186.452911 
L 233.815045 186.452911 
L 233.815045 182.620515 
L 235.628301 182.620515 
L 235.628301 178.788119 
L 236.470373 178.788119 
L 236.470373 174.955723 
L 236.987449 174.955723 
L 236.987449 171.123327 
L 237.156992 171.123327 
L 237.156992 167.290931 
L 238.368367 167.290931 
L 238.414027 159.626139 
L 243.477947 159.626139 
L 243.477947 155.793743 
L 245.322338 155.793743 
L 245.322338 151.961347 
L 246.575456 151.961347 
L 246.575456 148.12895 
L 246.893235 148.12895 
L 246.893235 144.296554 
L 248.258996 144.296554 
L 248.258996 140.464158 
L 249.521111 140.464158 
L 249.61573 132.799366 
L 249.998425 132.799366 
L 249.998425 128.96697 
L 250.275643 128.96697 
L 250.275643 125.134574 
L 250.55756 125.134574 
L 250.55756 121.302178 
L 252.039171 121.302178 
L 252.039171 117.469782 
L 252.212591 117.469782 
L 252.322602 105.972594 
L 253.220954 105.972594 
L 253.220954 102.140198 
L 253.621316 102.140198 
L 253.691128 94.475406 
L 253.96148 94.475406 
L 253.96148 86.810614 
L 254.127836 86.810614 
L 254.173424 79.145822 
L 254.377553 79.145822 
L 254.377553 75.313426 
L 254.620466 75.313426 
L 254.685054 63.816238 
L 255.18086 63.816238 
L 255.18086 59.983842 
L 255.33472 59.983842 
L 255.33472 56.151446 
L 255.892886 56.151446 
L 255.959254 48.486653 
L 256.562732 48.486653 
L 256.600301 40.821861 
L 256.714774 40.821861 
L 256.714774 36.989465 
L 256.937991 36.989465 
L 256.957418 29.324673 
L 257.309931 29.324673 
L 257.309931 25.492277 
L 257.795123 25.492277 
L 257.795123 21.659881 
L 259.272484 21.659881 
L 259.283055 13.995089 
L 259.937321 13.995089 
L 259.937321 10.162693 
L 266.856479 10.162693 
L 266.856479 6.330297 
L 266.856479 6.330297 
L 460.8 6.330297 
L 460.8 6.330297 
" style="fill:none;stroke:#00bfbf;stroke-linecap:square;stroke-width:1.5;"/>
   </g>
   <g id="line2d_26">
    <path clip-path="url(#pf589ec9c2e)" d="M 90.961496 293.76 
L 90.961496 289.927604 
L 109.664853 289.927604 
L 109.664853 286.095208 
L 115.379837 286.095208 
L 115.379837 282.262812 
L 118.440847 282.262812 
L 118.440847 278.430416 
L 147.3206 278.430416 
L 147.3206 274.59802 
L 158.727177 274.59802 
L 158.727177 270.765624 
L 187.79874 270.765624 
L 187.79874 266.933228 
L 206.086637 266.933228 
L 206.086637 263.100832 
L 208.31459 263.100832 
L 208.31459 259.268436 
L 212.838381 259.268436 
L 212.838381 255.43604 
L 213.758421 255.43604 
L 213.758421 251.603644 
L 213.984486 251.603644 
L 213.984486 247.771248 
L 214.182345 247.771248 
L 214.182345 243.938851 
L 216.109966 243.938851 
L 216.109966 240.106455 
L 216.248836 240.106455 
L 216.248836 236.274059 
L 216.662257 236.274059 
L 216.662257 232.441663 
L 217.430438 232.441663 
L 217.430438 224.776871 
L 217.638996 224.776871 
L 217.638996 220.944475 
L 217.917734 220.944475 
L 217.917734 217.112079 
L 218.073458 217.112079 
L 218.073458 209.447287 
L 218.450641 209.447287 
L 218.450641 205.614891 
L 218.585666 205.614891 
L 218.585666 201.782495 
L 218.719837 201.782495 
L 218.790075 194.117703 
L 218.890295 194.117703 
L 218.890295 190.285307 
L 219.347877 190.285307 
L 219.347877 186.452911 
L 219.725398 186.452911 
L 219.725398 182.620515 
L 220.182491 182.620515 
L 220.24633 171.123327 
L 220.411525 171.123327 
L 220.411525 163.458535 
L 220.955139 163.458535 
L 220.955139 159.626139 
L 222.008319 159.626139 
L 222.070207 151.961347 
L 222.673665 151.961347 
L 222.673665 148.12895 
L 222.863637 148.12895 
L 222.918417 140.464158 
L 223.226004 140.464158 
L 223.289905 132.799366 
L 224.89553 132.799366 
L 224.973417 125.134574 
L 225.19878 125.134574 
L 225.19878 121.302178 
L 228.052277 121.302178 
L 228.052277 117.469782 
L 234.047405 117.469782 
L 234.047437 109.80499 
L 234.656146 109.80499 
L 234.656146 105.972594 
L 235.356404 105.972594 
L 235.356404 102.140198 
L 235.772614 102.140198 
L 235.772614 98.307802 
L 236.586598 98.307802 
L 236.63329 90.64301 
L 238.115324 90.64301 
L 238.115324 86.810614 
L 239.244996 86.810614 
L 239.244996 82.978218 
L 239.356228 82.978218 
L 239.356228 79.145822 
L 242.056712 79.145822 
L 242.056712 75.313426 
L 243.937946 75.313426 
L 243.937946 71.48103 
L 245.069825 71.48103 
L 245.069825 67.648634 
L 245.870873 67.648634 
L 245.870873 63.816238 
L 246.319355 63.816238 
L 246.319355 59.983842 
L 247.551881 59.983842 
L 247.551881 56.151446 
L 249.700157 56.151446 
L 249.767685 44.654257 
L 250.470114 44.654257 
L 250.470114 40.821861 
L 250.68419 40.821861 
L 250.68419 36.989465 
L 251.182862 36.989465 
L 251.20321 29.324673 
L 251.31981 29.324673 
L 251.339975 21.659881 
L 251.434249 21.659881 
L 251.434249 17.827485 
L 251.605976 17.827485 
L 251.605976 13.995089 
L 252.51463 13.995089 
L 252.51463 10.162693 
L 256.86411 10.162693 
L 256.86411 6.330297 
L 256.86411 6.330297 
L 460.8 6.330297 
L 460.8 6.330297 
" style="fill:none;stroke:#bf00bf;stroke-linecap:square;stroke-width:1.5;"/>
   </g>
   <g id="line2d_27">
    <path clip-path="url(#pf589ec9c2e)" d="M -0.114393 293.76 
L -0.114393 266.933228 
L 185.556204 266.933228 
L 185.556204 263.100832 
L 198.557553 263.100832 
L 198.557553 259.268436 
L 202.18101 259.268436 
L 202.18101 255.43604 
L 205.863536 255.43604 
L 205.863536 251.603644 
L 206.702981 251.603644 
L 206.702981 247.771248 
L 207.318731 247.771248 
L 207.318731 243.938851 
L 207.988276 243.938851 
L 207.988276 240.106455 
L 208.125554 240.106455 
L 208.125554 236.274059 
L 209.64277 236.274059 
L 209.64277 232.441663 
L 210.787395 232.441663 
L 210.787395 228.609267 
L 212.810458 228.609267 
L 212.810458 224.776871 
L 213.248592 224.776871 
L 213.248592 220.944475 
L 213.603518 220.944475 
L 213.603518 217.112079 
L 213.850333 217.112079 
L 213.850333 213.279683 
L 214.179703 213.279683 
L 214.179703 205.614891 
L 216.016263 205.614891 
L 216.016263 201.782495 
L 216.175952 201.782495 
L 216.248836 194.117703 
L 216.619939 194.117703 
L 216.619939 186.452911 
L 218.00675 186.452911 
L 218.00675 178.788119 
L 218.434792 178.788119 
L 218.434792 174.955723 
L 218.719837 174.955723 
L 218.765294 163.458535 
L 219.164174 163.458535 
L 219.164174 159.626139 
L 219.875069 159.626139 
L 219.927404 148.12895 
L 220.366524 148.12895 
L 220.366524 140.464158 
L 221.950413 140.464158 
L 221.950413 136.631762 
L 222.067196 136.631762 
L 222.067196 132.799366 
L 222.601182 132.799366 
L 222.601182 121.302178 
L 228.051343 121.302178 
L 228.051343 117.469782 
L 233.726764 117.469782 
L 233.726764 113.637386 
L 234.047336 113.637386 
L 234.047336 105.972594 
L 234.539176 105.972594 
L 234.539176 102.140198 
L 235.356295 102.140198 
L 235.356295 98.307802 
L 235.740366 98.307802 
L 235.740366 94.475406 
L 236.584954 94.475406 
L 236.584954 86.810614 
L 238.115324 86.810614 
L 238.115324 82.978218 
L 238.485022 82.978218 
L 238.485022 79.145822 
L 239.198654 79.145822 
L 239.198654 75.313426 
L 239.355893 75.313426 
L 239.355893 71.48103 
L 240.819449 71.48103 
L 240.819449 67.648634 
L 241.709258 67.648634 
L 241.709258 63.816238 
L 245.069752 63.816238 
L 245.133521 56.151446 
L 245.764979 56.151446 
L 245.764979 52.31905 
L 246.568846 52.31905 
L 246.568846 48.486653 
L 247.677948 48.486653 
L 247.677948 44.654257 
L 248.120123 44.654257 
L 248.154166 36.989465 
L 248.588611 36.989465 
L 248.588611 33.157069 
L 248.880975 33.157069 
L 248.880975 29.324673 
L 249.228565 29.324673 
L 249.228565 25.492277 
L 249.976672 25.492277 
L 249.976672 21.659881 
L 250.791224 21.659881 
L 250.791224 13.995089 
L 252.39467 13.995089 
L 252.39467 10.162693 
L 256.669985 10.162693 
L 256.669985 6.330297 
L 256.669985 6.330297 
L 460.8 6.330297 
L 460.8 6.330297 
" style="fill:none;stroke:#000000;stroke-linecap:square;stroke-width:1.5;"/>
   </g>
   <g id="patch_3">
    <path d="M 0 293.76 
L 0 3.456 
" style="fill:none;stroke:#000000;stroke-linecap:square;stroke-linejoin:miter;stroke-width:0.8;"/>
   </g>
   <g id="patch_4">
    <path d="M 460.8 293.76 
L 460.8 3.456 
" style="fill:none;stroke:#000000;stroke-linecap:square;stroke-linejoin:miter;stroke-width:0.8;"/>
   </g>
   <g id="patch_5">
    <path d="M 0 293.76 
L 460.8 293.76 
" style="fill:none;stroke:#000000;stroke-linecap:square;stroke-linejoin:miter;stroke-width:0.8;"/>
   </g>
   <g id="patch_6">
    <path d="M 0 3.456 
L 460.8 3.456 
" style="fill:none;stroke:#000000;stroke-linecap:square;stroke-linejoin:miter;stroke-width:0.8;"/>
   </g>
   <g id="text_6">
    <!-- {f20-f24}, 5-D -->
    <g transform="translate(305.884 287.95392)scale(0.2 -0.2)">
     <defs>
      <path d="M 51.125 -9.28125 
L 51.125 -16.3125 
L 48.09375 -16.3125 
Q 35.9375 -16.3125 31.8125 -12.6875 
Q 27.6875 -9.078125 27.6875 1.703125 
L 27.6875 13.375 
Q 27.6875 20.75 25.046875 23.578125 
Q 22.40625 26.421875 15.484375 26.421875 
L 12.5 26.421875 
L 12.5 33.40625 
L 15.484375 33.40625 
Q 22.46875 33.40625 25.078125 36.203125 
Q 27.6875 39.015625 27.6875 46.296875 
L 27.6875 58.015625 
Q 27.6875 68.796875 31.8125 72.390625 
Q 35.9375 75.984375 48.09375 75.984375 
L 51.125 75.984375 
L 51.125 69 
L 47.796875 69 
Q 40.921875 69 38.8125 66.84375 
Q 36.71875 64.703125 36.71875 57.8125 
L 36.71875 45.703125 
Q 36.71875 38.03125 34.5 34.5625 
Q 32.28125 31.109375 26.90625 29.890625 
Q 32.328125 28.5625 34.515625 25.09375 
Q 36.71875 21.625 36.71875 14.015625 
L 36.71875 1.90625 
Q 36.71875 -4.984375 38.8125 -7.125 
Q 40.921875 -9.28125 47.796875 -9.28125 
z
" id="DejaVuSans-123"/>
      <path d="M 19.1875 8.296875 
L 53.609375 8.296875 
L 53.609375 0 
L 7.328125 0 
L 7.328125 8.296875 
Q 12.9375 14.109375 22.625 23.890625 
Q 32.328125 33.6875 34.8125 36.53125 
Q 39.546875 41.84375 41.421875 45.53125 
Q 43.3125 49.21875 43.3125 52.78125 
Q 43.3125 58.59375 39.234375 62.25 
Q 35.15625 65.921875 28.609375 65.921875 
Q 23.96875 65.921875 18.8125 64.3125 
Q 13.671875 62.703125 7.8125 59.421875 
L 7.8125 69.390625 
Q 13.765625 71.78125 18.9375 73 
Q 24.125 74.21875 28.421875 74.21875 
Q 39.75 74.21875 46.484375 68.546875 
Q 53.21875 62.890625 53.21875 53.421875 
Q 53.21875 48.921875 51.53125 44.890625 
Q 49.859375 40.875 45.40625 35.40625 
Q 44.1875 33.984375 37.640625 27.21875 
Q 31.109375 20.453125 19.1875 8.296875 
z
" id="DejaVuSans-50"/>
      <path d="M 12.5 -9.28125 
L 15.921875 -9.28125 
Q 22.75 -9.28125 24.828125 -7.171875 
Q 26.90625 -5.078125 26.90625 1.90625 
L 26.90625 14.015625 
Q 26.90625 21.625 29.09375 25.09375 
Q 31.296875 28.5625 36.71875 29.890625 
Q 31.296875 31.109375 29.09375 34.5625 
Q 26.90625 38.03125 26.90625 45.703125 
L 26.90625 57.8125 
Q 26.90625 64.75 24.828125 66.875 
Q 22.75 69 15.921875 69 
L 12.5 69 
L 12.5 75.984375 
L 15.578125 75.984375 
Q 27.734375 75.984375 31.8125 72.390625 
Q 35.890625 68.796875 35.890625 58.015625 
L 35.890625 46.296875 
Q 35.890625 39.015625 38.515625 36.203125 
Q 41.15625 33.40625 48.09375 33.40625 
L 51.125 33.40625 
L 51.125 26.421875 
L 48.09375 26.421875 
Q 41.15625 26.421875 38.515625 23.578125 
Q 35.890625 20.75 35.890625 13.375 
L 35.890625 1.703125 
Q 35.890625 -9.078125 31.8125 -12.6875 
Q 27.734375 -16.3125 15.578125 -16.3125 
L 12.5 -16.3125 
z
" id="DejaVuSans-125"/>
      <path d="M 11.71875 12.40625 
L 22.015625 12.40625 
L 22.015625 4 
L 14.015625 -11.625 
L 7.71875 -11.625 
L 11.71875 4 
z
" id="DejaVuSans-44"/>
      <path d="M 10.796875 72.90625 
L 49.515625 72.90625 
L 49.515625 64.59375 
L 19.828125 64.59375 
L 19.828125 46.734375 
Q 21.96875 47.46875 24.109375 47.828125 
Q 26.265625 48.1875 28.421875 48.1875 
Q 40.625 48.1875 47.75 41.5 
Q 54.890625 34.8125 54.890625 23.390625 
Q 54.890625 11.625 47.5625 5.09375 
Q 40.234375 -1.421875 26.90625 -1.421875 
Q 22.3125 -1.421875 17.546875 -0.640625 
Q 12.796875 0.140625 7.71875 1.703125 
L 7.71875 11.625 
Q 12.109375 9.234375 16.796875 8.0625 
Q 21.484375 6.890625 26.703125 6.890625 
Q 35.15625 6.890625 40.078125 11.328125 
Q 45.015625 15.765625 45.015625 23.390625 
Q 45.015625 31 40.078125 35.4375 
Q 35.15625 39.890625 26.703125 39.890625 
Q 22.75 39.890625 18.8125 39.015625 
Q 14.890625 38.140625 10.796875 36.28125 
z
" id="DejaVuSans-53"/>
     </defs>
     <use xlink:href="#DejaVuSans-123"/>
     <use x="63.623047" xlink:href="#DejaVuSans-102"/>
     <use x="98.828125" xlink:href="#DejaVuSans-50"/>
     <use x="162.451172" xlink:href="#DejaVuSans-48"/>
     <use x="226.074219" xlink:href="#DejaVuSans-45"/>
     <use x="262.158203" xlink:href="#DejaVuSans-102"/>
     <use x="297.363281" xlink:href="#DejaVuSans-50"/>
     <use x="360.986328" xlink:href="#DejaVuSans-52"/>
     <use x="424.609375" xlink:href="#DejaVuSans-125"/>
     <use x="488.232422" xlink:href="#DejaVuSans-44"/>
     <use x="520.019531" xlink:href="#DejaVuSans-32"/>
     <use x="551.806641" xlink:href="#DejaVuSans-53"/>
     <use x="615.429688" xlink:href="#DejaVuSans-45"/>
     <use x="651.513672" xlink:href="#DejaVuSans-68"/>
    </g>
   </g>
   <g id="text_7">
    <!-- v2.4 -->
    <g style="fill:#808080;" transform="translate(219.489063 288.777272)scale(0.1 -0.1)">
     <defs>
      <path d="M 2.984375 54.6875 
L 12.5 54.6875 
L 29.59375 8.796875 
L 46.6875 54.6875 
L 56.203125 54.6875 
L 35.6875 0 
L 23.484375 0 
z
" id="DejaVuSans-118"/>
      <path d="M 10.6875 12.40625 
L 21 12.40625 
L 21 0 
L 10.6875 0 
z
" id="DejaVuSans-46"/>
     </defs>
     <use xlink:href="#DejaVuSans-118"/>
     <use x="59.179688" xlink:href="#DejaVuSans-50"/>
     <use x="122.802734" xlink:href="#DejaVuSans-46"/>
     <use x="154.589844" xlink:href="#DejaVuSans-52"/>
    </g>
   </g>
  </g>
 </g>
 <defs>
  <clipPath id="pf589ec9c2e">
   <rect height="290.304" width="460.8" x="0" y="3.456"/>
  </clipPath>
 </defs>
</svg>
