<?xml version="1.0" encoding="utf-8" standalone="no"?>
<!DOCTYPE svg PUBLIC "-//W3C//DTD SVG 1.1//EN"
  "http://www.w3.org/Graphics/SVG/1.1/DTD/svg11.dtd">
<!-- Created with matplotlib (https://matplotlib.org/) -->
<svg height="345.6pt" version="1.1" viewBox="0 0 460.8 345.6" width="460.8pt" xmlns="http://www.w3.org/2000/svg" xmlns:xlink="http://www.w3.org/1999/xlink">
 <metadata>
  <rdf:RDF xmlns:cc="http://creativecommons.org/ns#" xmlns:dc="http://purl.org/dc/elements/1.1/" xmlns:rdf="http://www.w3.org/1999/02/22-rdf-syntax-ns#">
   <cc:Work>
    <dc:type rdf:resource="http://purl.org/dc/dcmitype/StillImage"/>
    <dc:date>2021-06-17T01:40:27.891164</dc:date>
    <dc:format>image/svg+xml</dc:format>
    <dc:creator>
     <cc:Agent>
      <dc:title>Matplotlib v3.3.4, https://matplotlib.org/</dc:title>
     </cc:Agent>
    </dc:creator>
   </cc:Work>
  </rdf:RDF>
 </metadata>
 <defs>
  <style type="text/css">*{stroke-linecap:butt;stroke-linejoin:round;}</style>
 </defs>
 <g id="figure_1">
  <g id="patch_1">
   <path d="M 0 345.6 
L 460.8 345.6 
L 460.8 0 
L 0 0 
z
" style="fill:#ffffff;"/>
  </g>
  <g id="axes_1">
   <g id="patch_2">
    <path d="M 57.6 298.944 
L 338.688 298.944 
L 338.688 27.648 
L 57.6 27.648 
z
" style="fill:#ffffff;"/>
   </g>
   <g id="line2d_1">
    <path d="M 73.579452 298.944 
L 73.579452 293.677139 
L 83.830028 293.677139 
L 83.830028 288.410278 
L 91.535274 288.410278 
L 91.535274 283.143418 
L 95.918017 283.143418 
L 95.918017 277.876557 
L 97.755429 277.876557 
L 97.755429 272.609696 
L 100.192776 272.609696 
L 100.192776 267.342835 
L 100.934985 267.342835 
L 100.934985 262.075974 
L 102.989037 262.075974 
L 102.989037 256.809114 
L 105.398279 256.809114 
L 105.398279 251.542253 
L 106.48859 251.542253 
L 106.48859 246.275392 
L 107.514726 246.275392 
L 107.514726 241.008531 
L 108.948899 241.008531 
L 108.948899 235.74167 
L 109.843417 235.74167 
L 109.843417 230.47481 
L 110.694282 230.47481 
L 110.694282 225.207949 
L 111.104637 225.207949 
L 111.104637 219.941088 
L 112.280765 219.941088 
L 112.280765 214.674227 
L 114.080224 214.674227 
L 114.080224 209.407366 
L 114.751048 209.407366 
L 114.751048 204.140506 
L 115.397021 204.140506 
L 115.397021 198.873645 
L 116.019919 198.873645 
L 116.019919 193.606784 
L 116.914437 193.606784 
L 116.914437 188.339923 
L 117.486268 188.339923 
L 117.486268 183.073062 
L 118.039942 183.073062 
L 118.039942 177.806202 
L 118.838828 177.806202 
L 118.838828 172.539341 
L 119.097192 172.539341 
L 119.097192 167.27248 
L 119.850084 167.27248 
L 119.850084 162.005619 
L 120.571812 162.005619 
L 120.571812 156.738758 
L 121.036887 156.738758 
L 121.036887 151.471897 
L 121.712041 151.471897 
L 121.712041 146.205037 
L 122.148045 146.205037 
L 122.148045 140.938176 
L 122.573415 140.938176 
L 122.573415 135.671315 
L 123.394238 135.671315 
L 123.394238 130.404454 
L 123.790603 130.404454 
L 123.790603 125.137593 
L 124.178158 125.137593 
L 124.178158 119.870733 
L 124.557288 119.870733 
L 124.557288 114.603872 
L 124.92835 114.603872 
L 124.92835 109.337011 
L 125.470548 109.337011 
L 125.470548 104.07015 
L 125.822869 104.07015 
L 125.822869 98.803289 
L 126.168212 98.803289 
L 126.168212 93.536429 
L 126.50685 93.536429 
L 126.50685 88.269568 
L 127.165014 88.269568 
L 127.165014 83.002707 
L 127.799239 83.002707 
L 127.799239 77.735846 
L 128.107907 77.735846 
L 128.107907 72.468985 
L 128.411207 72.468985 
L 128.411207 67.202125 
L 128.709321 67.202125 
L 128.709321 61.935264 
L 129.290685 61.935264 
L 129.290685 56.668403 
L 129.574256 56.668403 
L 129.574256 51.401542 
L 129.991152 51.401542 
L 129.991152 46.134681 
L 130.127931 46.134681 
L 130.127931 40.867821 
L 130.398313 40.867821 
L 130.398313 35.60096 
L 130.796184 35.60096 
L 130.796184 30.334099 
L 338.688 30.334099 
" style="fill:none;stroke:#f5deb3;stroke-linecap:square;stroke-width:4;"/>
   </g>
   <g id="line2d_2">
    <defs>
     <path d="M -0 7.778175 
L 7.778175 0 
L 0 -7.778175 
L -7.778175 -0 
z
" id="m13109d3c75" style="stroke:#f5deb3;stroke-linejoin:miter;stroke-width:1.5;"/>
    </defs>
    <g>
     <use style="fill:#f5deb3;stroke:#f5deb3;stroke-linejoin:miter;stroke-width:1.5;" x="114.080224" xlink:href="#m13109d3c75" y="209.407366"/>
     <use style="fill:#f5deb3;stroke:#f5deb3;stroke-linejoin:miter;stroke-width:1.5;" x="128.107907" xlink:href="#m13109d3c75" y="77.735846"/>
     <use style="fill:#f5deb3;stroke:#f5deb3;stroke-linejoin:miter;stroke-width:1.5;" x="130.796184" xlink:href="#m13109d3c75" y="30.334099"/>
     <use style="fill:#f5deb3;stroke:#f5deb3;stroke-linejoin:miter;stroke-width:1.5;" x="130.796184" xlink:href="#m13109d3c75" y="30.334099"/>
     <use style="fill:#f5deb3;stroke:#f5deb3;stroke-linejoin:miter;stroke-width:1.5;" x="338.688" xlink:href="#m13109d3c75" y="30.334099"/>
    </g>
   </g>
   <g id="line2d_3">
    <path style="fill:none;stroke:#f5deb3;stroke-linecap:square;stroke-width:4;"/>
    <g/>
   </g>
   <g id="line2d_4">
    <path d="M 338.688 30.334099 
L 369.60768 35.706297 
" style="fill:none;stroke:#f5deb3;stroke-linecap:square;stroke-width:4;"/>
    <g>
     <use style="fill:#f5deb3;stroke:#f5deb3;stroke-linejoin:miter;stroke-width:1.5;" x="338.688" xlink:href="#m13109d3c75" y="30.334099"/>
     <use style="fill:#f5deb3;stroke:#f5deb3;stroke-linejoin:miter;stroke-width:1.5;" x="369.60768" xlink:href="#m13109d3c75" y="35.706297"/>
    </g>
   </g>
   <g id="matplotlib.axis_1">
    <g id="xtick_1">
     <g id="line2d_5">
      <path clip-path="url(#pfccd461dc4)" d="M 57.6 298.944 
L 57.6 27.648 
" style="fill:none;stroke:#b0b0b0;stroke-linecap:square;stroke-width:0.8;"/>
     </g>
     <g id="line2d_6">
      <defs>
       <path d="M 0 0 
L 0 3.5 
" id="m1a9698c964" style="stroke:#000000;stroke-width:0.8;"/>
      </defs>
      <g>
       <use style="stroke:#000000;stroke-width:0.8;" x="57.6" xlink:href="#m1a9698c964" y="298.944"/>
      </g>
     </g>
     <g id="text_1">
      <!-- 0 -->
      <g transform="translate(51.2375 321.140875)scale(0.2 -0.2)">
       <defs>
        <path d="M 31.78125 66.40625 
Q 24.171875 66.40625 20.328125 58.90625 
Q 16.5 51.421875 16.5 36.375 
Q 16.5 21.390625 20.328125 13.890625 
Q 24.171875 6.390625 31.78125 6.390625 
Q 39.453125 6.390625 43.28125 13.890625 
Q 47.125 21.390625 47.125 36.375 
Q 47.125 51.421875 43.28125 58.90625 
Q 39.453125 66.40625 31.78125 66.40625 
z
M 31.78125 74.21875 
Q 44.046875 74.21875 50.515625 64.515625 
Q 56.984375 54.828125 56.984375 36.375 
Q 56.984375 17.96875 50.515625 8.265625 
Q 44.046875 -1.421875 31.78125 -1.421875 
Q 19.53125 -1.421875 13.0625 8.265625 
Q 6.59375 17.96875 6.59375 36.375 
Q 6.59375 54.828125 13.0625 64.515625 
Q 19.53125 74.21875 31.78125 74.21875 
z
" id="DejaVuSans-48"/>
       </defs>
       <use xlink:href="#DejaVuSans-48"/>
      </g>
     </g>
    </g>
    <g id="xtick_2">
     <g id="line2d_7">
      <path clip-path="url(#pfccd461dc4)" d="M 137.910857 298.944 
L 137.910857 27.648 
" style="fill:none;stroke:#b0b0b0;stroke-linecap:square;stroke-width:0.8;"/>
     </g>
     <g id="line2d_8">
      <g>
       <use style="stroke:#000000;stroke-width:0.8;" x="137.910857" xlink:href="#m1a9698c964" y="298.944"/>
      </g>
     </g>
     <g id="text_2">
      <!-- 2 -->
      <g transform="translate(131.548357 321.140875)scale(0.2 -0.2)">
       <defs>
        <path d="M 19.1875 8.296875 
L 53.609375 8.296875 
L 53.609375 0 
L 7.328125 0 
L 7.328125 8.296875 
Q 12.9375 14.109375 22.625 23.890625 
Q 32.328125 33.6875 34.8125 36.53125 
Q 39.546875 41.84375 41.421875 45.53125 
Q 43.3125 49.21875 43.3125 52.78125 
Q 43.3125 58.59375 39.234375 62.25 
Q 35.15625 65.921875 28.609375 65.921875 
Q 23.96875 65.921875 18.8125 64.3125 
Q 13.671875 62.703125 7.8125 59.421875 
L 7.8125 69.390625 
Q 13.765625 71.78125 18.9375 73 
Q 24.125 74.21875 28.421875 74.21875 
Q 39.75 74.21875 46.484375 68.546875 
Q 53.21875 62.890625 53.21875 53.421875 
Q 53.21875 48.921875 51.53125 44.890625 
Q 49.859375 40.875 45.40625 35.40625 
Q 44.1875 33.984375 37.640625 27.21875 
Q 31.109375 20.453125 19.1875 8.296875 
z
" id="DejaVuSans-50"/>
       </defs>
       <use xlink:href="#DejaVuSans-50"/>
      </g>
     </g>
    </g>
    <g id="xtick_3">
     <g id="line2d_9">
      <path clip-path="url(#pfccd461dc4)" d="M 218.221714 298.944 
L 218.221714 27.648 
" style="fill:none;stroke:#b0b0b0;stroke-linecap:square;stroke-width:0.8;"/>
     </g>
     <g id="line2d_10">
      <g>
       <use style="stroke:#000000;stroke-width:0.8;" x="218.221714" xlink:href="#m1a9698c964" y="298.944"/>
      </g>
     </g>
     <g id="text_3">
      <!-- 4 -->
      <g transform="translate(211.859214 321.140875)scale(0.2 -0.2)">
       <defs>
        <path d="M 37.796875 64.3125 
L 12.890625 25.390625 
L 37.796875 25.390625 
z
M 35.203125 72.90625 
L 47.609375 72.90625 
L 47.609375 25.390625 
L 58.015625 25.390625 
L 58.015625 17.1875 
L 47.609375 17.1875 
L 47.609375 0 
L 37.796875 0 
L 37.796875 17.1875 
L 4.890625 17.1875 
L 4.890625 26.703125 
z
" id="DejaVuSans-52"/>
       </defs>
       <use xlink:href="#DejaVuSans-52"/>
      </g>
     </g>
    </g>
    <g id="xtick_4">
     <g id="line2d_11">
      <path clip-path="url(#pfccd461dc4)" d="M 298.532571 298.944 
L 298.532571 27.648 
" style="fill:none;stroke:#b0b0b0;stroke-linecap:square;stroke-width:0.8;"/>
     </g>
     <g id="line2d_12">
      <g>
       <use style="stroke:#000000;stroke-width:0.8;" x="298.532571" xlink:href="#m1a9698c964" y="298.944"/>
      </g>
     </g>
     <g id="text_4">
      <!-- 6 -->
      <g transform="translate(292.170071 321.140875)scale(0.2 -0.2)">
       <defs>
        <path d="M 33.015625 40.375 
Q 26.375 40.375 22.484375 35.828125 
Q 18.609375 31.296875 18.609375 23.390625 
Q 18.609375 15.53125 22.484375 10.953125 
Q 26.375 6.390625 33.015625 6.390625 
Q 39.65625 6.390625 43.53125 10.953125 
Q 47.40625 15.53125 47.40625 23.390625 
Q 47.40625 31.296875 43.53125 35.828125 
Q 39.65625 40.375 33.015625 40.375 
z
M 52.59375 71.296875 
L 52.59375 62.3125 
Q 48.875 64.0625 45.09375 64.984375 
Q 41.3125 65.921875 37.59375 65.921875 
Q 27.828125 65.921875 22.671875 59.328125 
Q 17.53125 52.734375 16.796875 39.40625 
Q 19.671875 43.65625 24.015625 45.921875 
Q 28.375 48.1875 33.59375 48.1875 
Q 44.578125 48.1875 50.953125 41.515625 
Q 57.328125 34.859375 57.328125 23.390625 
Q 57.328125 12.15625 50.6875 5.359375 
Q 44.046875 -1.421875 33.015625 -1.421875 
Q 20.359375 -1.421875 13.671875 8.265625 
Q 6.984375 17.96875 6.984375 36.375 
Q 6.984375 53.65625 15.1875 63.9375 
Q 23.390625 74.21875 37.203125 74.21875 
Q 40.921875 74.21875 44.703125 73.484375 
Q 48.484375 72.75 52.59375 71.296875 
z
" id="DejaVuSans-54"/>
       </defs>
       <use xlink:href="#DejaVuSans-54"/>
      </g>
     </g>
    </g>
    <g id="xtick_5">
     <g id="line2d_13">
      <path clip-path="url(#pfccd461dc4)" d="M 97.755429 298.944 
L 97.755429 27.648 
" style="fill:none;stroke:#b0b0b0;stroke-linecap:square;stroke-width:0.8;"/>
     </g>
     <g id="line2d_14">
      <defs>
       <path d="M 0 0 
L 0 2 
" id="m1221081ba2" style="stroke:#000000;stroke-width:0.6;"/>
      </defs>
      <g>
       <use style="stroke:#000000;stroke-width:0.6;" x="97.755429" xlink:href="#m1221081ba2" y="298.944"/>
      </g>
     </g>
    </g>
    <g id="xtick_6">
     <g id="line2d_15">
      <path clip-path="url(#pfccd461dc4)" d="M 178.066286 298.944 
L 178.066286 27.648 
" style="fill:none;stroke:#b0b0b0;stroke-linecap:square;stroke-width:0.8;"/>
     </g>
     <g id="line2d_16">
      <g>
       <use style="stroke:#000000;stroke-width:0.6;" x="178.066286" xlink:href="#m1221081ba2" y="298.944"/>
      </g>
     </g>
    </g>
    <g id="xtick_7">
     <g id="line2d_17">
      <path clip-path="url(#pfccd461dc4)" d="M 258.377143 298.944 
L 258.377143 27.648 
" style="fill:none;stroke:#b0b0b0;stroke-linecap:square;stroke-width:0.8;"/>
     </g>
     <g id="line2d_18">
      <g>
       <use style="stroke:#000000;stroke-width:0.6;" x="258.377143" xlink:href="#m1221081ba2" y="298.944"/>
      </g>
     </g>
    </g>
    <g id="xtick_8">
     <g id="line2d_19">
      <path clip-path="url(#pfccd461dc4)" d="M 338.688 298.944 
L 338.688 27.648 
" style="fill:none;stroke:#b0b0b0;stroke-linecap:square;stroke-width:0.8;"/>
     </g>
     <g id="line2d_20">
      <g>
       <use style="stroke:#000000;stroke-width:0.6;" x="338.688" xlink:href="#m1221081ba2" y="298.944"/>
      </g>
     </g>
    </g>
    <g id="text_5">
     <!-- log10(# f-evals / dimension) -->
     <g transform="translate(77.764078 342.217594)scale(0.17 -0.17)">
      <defs>
       <path d="M 9.421875 75.984375 
L 18.40625 75.984375 
L 18.40625 0 
L 9.421875 0 
z
" id="DejaVuSans-108"/>
       <path d="M 30.609375 48.390625 
Q 23.390625 48.390625 19.1875 42.75 
Q 14.984375 37.109375 14.984375 27.296875 
Q 14.984375 17.484375 19.15625 11.84375 
Q 23.34375 6.203125 30.609375 6.203125 
Q 37.796875 6.203125 41.984375 11.859375 
Q 46.1875 17.53125 46.1875 27.296875 
Q 46.1875 37.015625 41.984375 42.703125 
Q 37.796875 48.390625 30.609375 48.390625 
z
M 30.609375 56 
Q 42.328125 56 49.015625 48.375 
Q 55.71875 40.765625 55.71875 27.296875 
Q 55.71875 13.875 49.015625 6.21875 
Q 42.328125 -1.421875 30.609375 -1.421875 
Q 18.84375 -1.421875 12.171875 6.21875 
Q 5.515625 13.875 5.515625 27.296875 
Q 5.515625 40.765625 12.171875 48.375 
Q 18.84375 56 30.609375 56 
z
" id="DejaVuSans-111"/>
       <path d="M 45.40625 27.984375 
Q 45.40625 37.75 41.375 43.109375 
Q 37.359375 48.484375 30.078125 48.484375 
Q 22.859375 48.484375 18.828125 43.109375 
Q 14.796875 37.75 14.796875 27.984375 
Q 14.796875 18.265625 18.828125 12.890625 
Q 22.859375 7.515625 30.078125 7.515625 
Q 37.359375 7.515625 41.375 12.890625 
Q 45.40625 18.265625 45.40625 27.984375 
z
M 54.390625 6.78125 
Q 54.390625 -7.171875 48.1875 -13.984375 
Q 42 -20.796875 29.203125 -20.796875 
Q 24.46875 -20.796875 20.265625 -20.09375 
Q 16.0625 -19.390625 12.109375 -17.921875 
L 12.109375 -9.1875 
Q 16.0625 -11.328125 19.921875 -12.34375 
Q 23.78125 -13.375 27.78125 -13.375 
Q 36.625 -13.375 41.015625 -8.765625 
Q 45.40625 -4.15625 45.40625 5.171875 
L 45.40625 9.625 
Q 42.625 4.78125 38.28125 2.390625 
Q 33.9375 0 27.875 0 
Q 17.828125 0 11.671875 7.65625 
Q 5.515625 15.328125 5.515625 27.984375 
Q 5.515625 40.671875 11.671875 48.328125 
Q 17.828125 56 27.875 56 
Q 33.9375 56 38.28125 53.609375 
Q 42.625 51.21875 45.40625 46.390625 
L 45.40625 54.6875 
L 54.390625 54.6875 
z
" id="DejaVuSans-103"/>
       <path d="M 12.40625 8.296875 
L 28.515625 8.296875 
L 28.515625 63.921875 
L 10.984375 60.40625 
L 10.984375 69.390625 
L 28.421875 72.90625 
L 38.28125 72.90625 
L 38.28125 8.296875 
L 54.390625 8.296875 
L 54.390625 0 
L 12.40625 0 
z
" id="DejaVuSans-49"/>
       <path d="M 31 75.875 
Q 24.46875 64.65625 21.28125 53.65625 
Q 18.109375 42.671875 18.109375 31.390625 
Q 18.109375 20.125 21.3125 9.0625 
Q 24.515625 -2 31 -13.1875 
L 23.1875 -13.1875 
Q 15.875 -1.703125 12.234375 9.375 
Q 8.59375 20.453125 8.59375 31.390625 
Q 8.59375 42.28125 12.203125 53.3125 
Q 15.828125 64.359375 23.1875 75.875 
z
" id="DejaVuSans-40"/>
       <path d="M 51.125 44 
L 36.921875 44 
L 32.8125 27.6875 
L 47.125 27.6875 
z
M 43.796875 71.78125 
L 38.71875 51.515625 
L 52.984375 51.515625 
L 58.109375 71.78125 
L 65.921875 71.78125 
L 60.890625 51.515625 
L 76.125 51.515625 
L 76.125 44 
L 58.984375 44 
L 54.984375 27.6875 
L 70.515625 27.6875 
L 70.515625 20.21875 
L 53.078125 20.21875 
L 48 0 
L 40.1875 0 
L 45.21875 20.21875 
L 30.90625 20.21875 
L 25.875 0 
L 18.015625 0 
L 23.09375 20.21875 
L 7.71875 20.21875 
L 7.71875 27.6875 
L 24.90625 27.6875 
L 29 44 
L 13.28125 44 
L 13.28125 51.515625 
L 30.90625 51.515625 
L 35.890625 71.78125 
z
" id="DejaVuSans-35"/>
       <path id="DejaVuSans-32"/>
       <path d="M 37.109375 75.984375 
L 37.109375 68.5 
L 28.515625 68.5 
Q 23.6875 68.5 21.796875 66.546875 
Q 19.921875 64.59375 19.921875 59.515625 
L 19.921875 54.6875 
L 34.71875 54.6875 
L 34.71875 47.703125 
L 19.921875 47.703125 
L 19.921875 0 
L 10.890625 0 
L 10.890625 47.703125 
L 2.296875 47.703125 
L 2.296875 54.6875 
L 10.890625 54.6875 
L 10.890625 58.5 
Q 10.890625 67.625 15.140625 71.796875 
Q 19.390625 75.984375 28.609375 75.984375 
z
" id="DejaVuSans-102"/>
       <path d="M 4.890625 31.390625 
L 31.203125 31.390625 
L 31.203125 23.390625 
L 4.890625 23.390625 
z
" id="DejaVuSans-45"/>
       <path d="M 56.203125 29.59375 
L 56.203125 25.203125 
L 14.890625 25.203125 
Q 15.484375 15.921875 20.484375 11.0625 
Q 25.484375 6.203125 34.421875 6.203125 
Q 39.59375 6.203125 44.453125 7.46875 
Q 49.3125 8.734375 54.109375 11.28125 
L 54.109375 2.78125 
Q 49.265625 0.734375 44.1875 -0.34375 
Q 39.109375 -1.421875 33.890625 -1.421875 
Q 20.796875 -1.421875 13.15625 6.1875 
Q 5.515625 13.8125 5.515625 26.8125 
Q 5.515625 40.234375 12.765625 48.109375 
Q 20.015625 56 32.328125 56 
Q 43.359375 56 49.78125 48.890625 
Q 56.203125 41.796875 56.203125 29.59375 
z
M 47.21875 32.234375 
Q 47.125 39.59375 43.09375 43.984375 
Q 39.0625 48.390625 32.421875 48.390625 
Q 24.90625 48.390625 20.390625 44.140625 
Q 15.875 39.890625 15.1875 32.171875 
z
" id="DejaVuSans-101"/>
       <path d="M 2.984375 54.6875 
L 12.5 54.6875 
L 29.59375 8.796875 
L 46.6875 54.6875 
L 56.203125 54.6875 
L 35.6875 0 
L 23.484375 0 
z
" id="DejaVuSans-118"/>
       <path d="M 34.28125 27.484375 
Q 23.390625 27.484375 19.1875 25 
Q 14.984375 22.515625 14.984375 16.5 
Q 14.984375 11.71875 18.140625 8.90625 
Q 21.296875 6.109375 26.703125 6.109375 
Q 34.1875 6.109375 38.703125 11.40625 
Q 43.21875 16.703125 43.21875 25.484375 
L 43.21875 27.484375 
z
M 52.203125 31.203125 
L 52.203125 0 
L 43.21875 0 
L 43.21875 8.296875 
Q 40.140625 3.328125 35.546875 0.953125 
Q 30.953125 -1.421875 24.3125 -1.421875 
Q 15.921875 -1.421875 10.953125 3.296875 
Q 6 8.015625 6 15.921875 
Q 6 25.140625 12.171875 29.828125 
Q 18.359375 34.515625 30.609375 34.515625 
L 43.21875 34.515625 
L 43.21875 35.40625 
Q 43.21875 41.609375 39.140625 45 
Q 35.0625 48.390625 27.6875 48.390625 
Q 23 48.390625 18.546875 47.265625 
Q 14.109375 46.140625 10.015625 43.890625 
L 10.015625 52.203125 
Q 14.9375 54.109375 19.578125 55.046875 
Q 24.21875 56 28.609375 56 
Q 40.484375 56 46.34375 49.84375 
Q 52.203125 43.703125 52.203125 31.203125 
z
" id="DejaVuSans-97"/>
       <path d="M 44.28125 53.078125 
L 44.28125 44.578125 
Q 40.484375 46.53125 36.375 47.5 
Q 32.28125 48.484375 27.875 48.484375 
Q 21.1875 48.484375 17.84375 46.4375 
Q 14.5 44.390625 14.5 40.28125 
Q 14.5 37.15625 16.890625 35.375 
Q 19.28125 33.59375 26.515625 31.984375 
L 29.59375 31.296875 
Q 39.15625 29.25 43.1875 25.515625 
Q 47.21875 21.78125 47.21875 15.09375 
Q 47.21875 7.46875 41.1875 3.015625 
Q 35.15625 -1.421875 24.609375 -1.421875 
Q 20.21875 -1.421875 15.453125 -0.5625 
Q 10.6875 0.296875 5.421875 2 
L 5.421875 11.28125 
Q 10.40625 8.6875 15.234375 7.390625 
Q 20.0625 6.109375 24.8125 6.109375 
Q 31.15625 6.109375 34.5625 8.28125 
Q 37.984375 10.453125 37.984375 14.40625 
Q 37.984375 18.0625 35.515625 20.015625 
Q 33.0625 21.96875 24.703125 23.78125 
L 21.578125 24.515625 
Q 13.234375 26.265625 9.515625 29.90625 
Q 5.8125 33.546875 5.8125 39.890625 
Q 5.8125 47.609375 11.28125 51.796875 
Q 16.75 56 26.8125 56 
Q 31.78125 56 36.171875 55.265625 
Q 40.578125 54.546875 44.28125 53.078125 
z
" id="DejaVuSans-115"/>
       <path d="M 25.390625 72.90625 
L 33.6875 72.90625 
L 8.296875 -9.28125 
L 0 -9.28125 
z
" id="DejaVuSans-47"/>
       <path d="M 45.40625 46.390625 
L 45.40625 75.984375 
L 54.390625 75.984375 
L 54.390625 0 
L 45.40625 0 
L 45.40625 8.203125 
Q 42.578125 3.328125 38.25 0.953125 
Q 33.9375 -1.421875 27.875 -1.421875 
Q 17.96875 -1.421875 11.734375 6.484375 
Q 5.515625 14.40625 5.515625 27.296875 
Q 5.515625 40.1875 11.734375 48.09375 
Q 17.96875 56 27.875 56 
Q 33.9375 56 38.25 53.625 
Q 42.578125 51.265625 45.40625 46.390625 
z
M 14.796875 27.296875 
Q 14.796875 17.390625 18.875 11.75 
Q 22.953125 6.109375 30.078125 6.109375 
Q 37.203125 6.109375 41.296875 11.75 
Q 45.40625 17.390625 45.40625 27.296875 
Q 45.40625 37.203125 41.296875 42.84375 
Q 37.203125 48.484375 30.078125 48.484375 
Q 22.953125 48.484375 18.875 42.84375 
Q 14.796875 37.203125 14.796875 27.296875 
z
" id="DejaVuSans-100"/>
       <path d="M 9.421875 54.6875 
L 18.40625 54.6875 
L 18.40625 0 
L 9.421875 0 
z
M 9.421875 75.984375 
L 18.40625 75.984375 
L 18.40625 64.59375 
L 9.421875 64.59375 
z
" id="DejaVuSans-105"/>
       <path d="M 52 44.1875 
Q 55.375 50.25 60.0625 53.125 
Q 64.75 56 71.09375 56 
Q 79.640625 56 84.28125 50.015625 
Q 88.921875 44.046875 88.921875 33.015625 
L 88.921875 0 
L 79.890625 0 
L 79.890625 32.71875 
Q 79.890625 40.578125 77.09375 44.375 
Q 74.3125 48.1875 68.609375 48.1875 
Q 61.625 48.1875 57.5625 43.546875 
Q 53.515625 38.921875 53.515625 30.90625 
L 53.515625 0 
L 44.484375 0 
L 44.484375 32.71875 
Q 44.484375 40.625 41.703125 44.40625 
Q 38.921875 48.1875 33.109375 48.1875 
Q 26.21875 48.1875 22.15625 43.53125 
Q 18.109375 38.875 18.109375 30.90625 
L 18.109375 0 
L 9.078125 0 
L 9.078125 54.6875 
L 18.109375 54.6875 
L 18.109375 46.1875 
Q 21.1875 51.21875 25.484375 53.609375 
Q 29.78125 56 35.6875 56 
Q 41.65625 56 45.828125 52.96875 
Q 50 49.953125 52 44.1875 
z
" id="DejaVuSans-109"/>
       <path d="M 54.890625 33.015625 
L 54.890625 0 
L 45.90625 0 
L 45.90625 32.71875 
Q 45.90625 40.484375 42.875 44.328125 
Q 39.84375 48.1875 33.796875 48.1875 
Q 26.515625 48.1875 22.3125 43.546875 
Q 18.109375 38.921875 18.109375 30.90625 
L 18.109375 0 
L 9.078125 0 
L 9.078125 54.6875 
L 18.109375 54.6875 
L 18.109375 46.1875 
Q 21.34375 51.125 25.703125 53.5625 
Q 30.078125 56 35.796875 56 
Q 45.21875 56 50.046875 50.171875 
Q 54.890625 44.34375 54.890625 33.015625 
z
" id="DejaVuSans-110"/>
       <path d="M 8.015625 75.875 
L 15.828125 75.875 
Q 23.140625 64.359375 26.78125 53.3125 
Q 30.421875 42.28125 30.421875 31.390625 
Q 30.421875 20.453125 26.78125 9.375 
Q 23.140625 -1.703125 15.828125 -13.1875 
L 8.015625 -13.1875 
Q 14.5 -2 17.703125 9.0625 
Q 20.90625 20.125 20.90625 31.390625 
Q 20.90625 42.671875 17.703125 53.65625 
Q 14.5 64.65625 8.015625 75.875 
z
" id="DejaVuSans-41"/>
      </defs>
      <use xlink:href="#DejaVuSans-108"/>
      <use x="27.783203" xlink:href="#DejaVuSans-111"/>
      <use x="88.964844" xlink:href="#DejaVuSans-103"/>
      <use x="152.441406" xlink:href="#DejaVuSans-49"/>
      <use x="216.064453" xlink:href="#DejaVuSans-48"/>
      <use x="279.6875" xlink:href="#DejaVuSans-40"/>
      <use x="318.701172" xlink:href="#DejaVuSans-35"/>
      <use x="402.490234" xlink:href="#DejaVuSans-32"/>
      <use x="434.277344" xlink:href="#DejaVuSans-102"/>
      <use x="463.982422" xlink:href="#DejaVuSans-45"/>
      <use x="500.066406" xlink:href="#DejaVuSans-101"/>
      <use x="561.589844" xlink:href="#DejaVuSans-118"/>
      <use x="620.769531" xlink:href="#DejaVuSans-97"/>
      <use x="682.048828" xlink:href="#DejaVuSans-108"/>
      <use x="709.832031" xlink:href="#DejaVuSans-115"/>
      <use x="761.931641" xlink:href="#DejaVuSans-32"/>
      <use x="793.71875" xlink:href="#DejaVuSans-47"/>
      <use x="827.410156" xlink:href="#DejaVuSans-32"/>
      <use x="859.197266" xlink:href="#DejaVuSans-100"/>
      <use x="922.673828" xlink:href="#DejaVuSans-105"/>
      <use x="950.457031" xlink:href="#DejaVuSans-109"/>
      <use x="1047.869141" xlink:href="#DejaVuSans-101"/>
      <use x="1109.392578" xlink:href="#DejaVuSans-110"/>
      <use x="1172.771484" xlink:href="#DejaVuSans-115"/>
      <use x="1224.871094" xlink:href="#DejaVuSans-105"/>
      <use x="1252.654297" xlink:href="#DejaVuSans-111"/>
      <use x="1313.835938" xlink:href="#DejaVuSans-110"/>
      <use x="1377.214844" xlink:href="#DejaVuSans-41"/>
     </g>
    </g>
   </g>
   <g id="matplotlib.axis_2">
    <g id="ytick_1">
     <g id="line2d_21">
      <path clip-path="url(#pfccd461dc4)" d="M 57.6 298.944 
L 338.688 298.944 
" style="fill:none;stroke:#b0b0b0;stroke-linecap:square;stroke-width:0.8;"/>
     </g>
     <g id="line2d_22">
      <defs>
       <path d="M 0 0 
L -3.5 0 
" id="m7cdc5d27b9" style="stroke:#000000;stroke-width:0.8;"/>
      </defs>
      <g>
       <use style="stroke:#000000;stroke-width:0.8;" x="57.6" xlink:href="#m7cdc5d27b9" y="298.944"/>
      </g>
     </g>
     <g id="text_6">
      <!-- 0.0 -->
      <g transform="translate(25.155 305.02275)scale(0.16 -0.16)">
       <defs>
        <path d="M 10.6875 12.40625 
L 21 12.40625 
L 21 0 
L 10.6875 0 
z
" id="DejaVuSans-46"/>
       </defs>
       <use xlink:href="#DejaVuSans-48"/>
       <use x="63.623047" xlink:href="#DejaVuSans-46"/>
       <use x="95.410156" xlink:href="#DejaVuSans-48"/>
      </g>
     </g>
    </g>
    <g id="ytick_2">
     <g id="line2d_23">
      <path clip-path="url(#pfccd461dc4)" d="M 57.6 245.22202 
L 338.688 245.22202 
" style="fill:none;stroke:#b0b0b0;stroke-linecap:square;stroke-width:0.8;"/>
     </g>
     <g id="line2d_24">
      <g>
       <use style="stroke:#000000;stroke-width:0.8;" x="57.6" xlink:href="#m7cdc5d27b9" y="245.22202"/>
      </g>
     </g>
     <g id="text_7">
      <!-- 0.2 -->
      <g transform="translate(25.155 251.30077)scale(0.16 -0.16)">
       <use xlink:href="#DejaVuSans-48"/>
       <use x="63.623047" xlink:href="#DejaVuSans-46"/>
       <use x="95.410156" xlink:href="#DejaVuSans-50"/>
      </g>
     </g>
    </g>
    <g id="ytick_3">
     <g id="line2d_25">
      <path clip-path="url(#pfccd461dc4)" d="M 57.6 191.50004 
L 338.688 191.50004 
" style="fill:none;stroke:#b0b0b0;stroke-linecap:square;stroke-width:0.8;"/>
     </g>
     <g id="line2d_26">
      <g>
       <use style="stroke:#000000;stroke-width:0.8;" x="57.6" xlink:href="#m7cdc5d27b9" y="191.50004"/>
      </g>
     </g>
     <g id="text_8">
      <!-- 0.4 -->
      <g transform="translate(25.155 197.57879)scale(0.16 -0.16)">
       <use xlink:href="#DejaVuSans-48"/>
       <use x="63.623047" xlink:href="#DejaVuSans-46"/>
       <use x="95.410156" xlink:href="#DejaVuSans-52"/>
      </g>
     </g>
    </g>
    <g id="ytick_4">
     <g id="line2d_27">
      <path clip-path="url(#pfccd461dc4)" d="M 57.6 137.778059 
L 338.688 137.778059 
" style="fill:none;stroke:#b0b0b0;stroke-linecap:square;stroke-width:0.8;"/>
     </g>
     <g id="line2d_28">
      <g>
       <use style="stroke:#000000;stroke-width:0.8;" x="57.6" xlink:href="#m7cdc5d27b9" y="137.778059"/>
      </g>
     </g>
     <g id="text_9">
      <!-- 0.6 -->
      <g transform="translate(25.155 143.856809)scale(0.16 -0.16)">
       <use xlink:href="#DejaVuSans-48"/>
       <use x="63.623047" xlink:href="#DejaVuSans-46"/>
       <use x="95.410156" xlink:href="#DejaVuSans-54"/>
      </g>
     </g>
    </g>
    <g id="ytick_5">
     <g id="line2d_29">
      <path clip-path="url(#pfccd461dc4)" d="M 57.6 84.056079 
L 338.688 84.056079 
" style="fill:none;stroke:#b0b0b0;stroke-linecap:square;stroke-width:0.8;"/>
     </g>
     <g id="line2d_30">
      <g>
       <use style="stroke:#000000;stroke-width:0.8;" x="57.6" xlink:href="#m7cdc5d27b9" y="84.056079"/>
      </g>
     </g>
     <g id="text_10">
      <!-- 0.8 -->
      <g transform="translate(25.155 90.134829)scale(0.16 -0.16)">
       <defs>
        <path d="M 31.78125 34.625 
Q 24.75 34.625 20.71875 30.859375 
Q 16.703125 27.09375 16.703125 20.515625 
Q 16.703125 13.921875 20.71875 10.15625 
Q 24.75 6.390625 31.78125 6.390625 
Q 38.8125 6.390625 42.859375 10.171875 
Q 46.921875 13.96875 46.921875 20.515625 
Q 46.921875 27.09375 42.890625 30.859375 
Q 38.875 34.625 31.78125 34.625 
z
M 21.921875 38.8125 
Q 15.578125 40.375 12.03125 44.71875 
Q 8.5 49.078125 8.5 55.328125 
Q 8.5 64.0625 14.71875 69.140625 
Q 20.953125 74.21875 31.78125 74.21875 
Q 42.671875 74.21875 48.875 69.140625 
Q 55.078125 64.0625 55.078125 55.328125 
Q 55.078125 49.078125 51.53125 44.71875 
Q 48 40.375 41.703125 38.8125 
Q 48.828125 37.15625 52.796875 32.3125 
Q 56.78125 27.484375 56.78125 20.515625 
Q 56.78125 9.90625 50.3125 4.234375 
Q 43.84375 -1.421875 31.78125 -1.421875 
Q 19.734375 -1.421875 13.25 4.234375 
Q 6.78125 9.90625 6.78125 20.515625 
Q 6.78125 27.484375 10.78125 32.3125 
Q 14.796875 37.15625 21.921875 38.8125 
z
M 18.3125 54.390625 
Q 18.3125 48.734375 21.84375 45.5625 
Q 25.390625 42.390625 31.78125 42.390625 
Q 38.140625 42.390625 41.71875 45.5625 
Q 45.3125 48.734375 45.3125 54.390625 
Q 45.3125 60.0625 41.71875 63.234375 
Q 38.140625 66.40625 31.78125 66.40625 
Q 25.390625 66.40625 21.84375 63.234375 
Q 18.3125 60.0625 18.3125 54.390625 
z
" id="DejaVuSans-56"/>
       </defs>
       <use xlink:href="#DejaVuSans-48"/>
       <use x="63.623047" xlink:href="#DejaVuSans-46"/>
       <use x="95.410156" xlink:href="#DejaVuSans-56"/>
      </g>
     </g>
    </g>
    <g id="ytick_6">
     <g id="line2d_31">
      <path clip-path="url(#pfccd461dc4)" d="M 57.6 30.334099 
L 338.688 30.334099 
" style="fill:none;stroke:#b0b0b0;stroke-linecap:square;stroke-width:0.8;"/>
     </g>
     <g id="line2d_32">
      <g>
       <use style="stroke:#000000;stroke-width:0.8;" x="57.6" xlink:href="#m7cdc5d27b9" y="30.334099"/>
      </g>
     </g>
     <g id="text_11">
      <!-- 1.0 -->
      <g transform="translate(25.155 36.412849)scale(0.16 -0.16)">
       <use xlink:href="#DejaVuSans-49"/>
       <use x="63.623047" xlink:href="#DejaVuSans-46"/>
       <use x="95.410156" xlink:href="#DejaVuSans-48"/>
      </g>
     </g>
    </g>
    <g id="text_12">
     <!-- Fraction of function,target pairs -->
     <g transform="translate(17.619531 297.681)rotate(-90)scale(0.17 -0.17)">
      <defs>
       <path d="M 9.8125 72.90625 
L 51.703125 72.90625 
L 51.703125 64.59375 
L 19.671875 64.59375 
L 19.671875 43.109375 
L 48.578125 43.109375 
L 48.578125 34.8125 
L 19.671875 34.8125 
L 19.671875 0 
L 9.8125 0 
z
" id="DejaVuSans-70"/>
       <path d="M 41.109375 46.296875 
Q 39.59375 47.171875 37.8125 47.578125 
Q 36.03125 48 33.890625 48 
Q 26.265625 48 22.1875 43.046875 
Q 18.109375 38.09375 18.109375 28.8125 
L 18.109375 0 
L 9.078125 0 
L 9.078125 54.6875 
L 18.109375 54.6875 
L 18.109375 46.1875 
Q 20.953125 51.171875 25.484375 53.578125 
Q 30.03125 56 36.53125 56 
Q 37.453125 56 38.578125 55.875 
Q 39.703125 55.765625 41.0625 55.515625 
z
" id="DejaVuSans-114"/>
       <path d="M 48.78125 52.59375 
L 48.78125 44.1875 
Q 44.96875 46.296875 41.140625 47.34375 
Q 37.3125 48.390625 33.40625 48.390625 
Q 24.65625 48.390625 19.8125 42.84375 
Q 14.984375 37.3125 14.984375 27.296875 
Q 14.984375 17.28125 19.8125 11.734375 
Q 24.65625 6.203125 33.40625 6.203125 
Q 37.3125 6.203125 41.140625 7.25 
Q 44.96875 8.296875 48.78125 10.40625 
L 48.78125 2.09375 
Q 45.015625 0.34375 40.984375 -0.53125 
Q 36.96875 -1.421875 32.421875 -1.421875 
Q 20.0625 -1.421875 12.78125 6.34375 
Q 5.515625 14.109375 5.515625 27.296875 
Q 5.515625 40.671875 12.859375 48.328125 
Q 20.21875 56 33.015625 56 
Q 37.15625 56 41.109375 55.140625 
Q 45.0625 54.296875 48.78125 52.59375 
z
" id="DejaVuSans-99"/>
       <path d="M 18.3125 70.21875 
L 18.3125 54.6875 
L 36.8125 54.6875 
L 36.8125 47.703125 
L 18.3125 47.703125 
L 18.3125 18.015625 
Q 18.3125 11.328125 20.140625 9.421875 
Q 21.96875 7.515625 27.59375 7.515625 
L 36.8125 7.515625 
L 36.8125 0 
L 27.59375 0 
Q 17.1875 0 13.234375 3.875 
Q 9.28125 7.765625 9.28125 18.015625 
L 9.28125 47.703125 
L 2.6875 47.703125 
L 2.6875 54.6875 
L 9.28125 54.6875 
L 9.28125 70.21875 
z
" id="DejaVuSans-116"/>
       <path d="M 8.5 21.578125 
L 8.5 54.6875 
L 17.484375 54.6875 
L 17.484375 21.921875 
Q 17.484375 14.15625 20.5 10.265625 
Q 23.53125 6.390625 29.59375 6.390625 
Q 36.859375 6.390625 41.078125 11.03125 
Q 45.3125 15.671875 45.3125 23.6875 
L 45.3125 54.6875 
L 54.296875 54.6875 
L 54.296875 0 
L 45.3125 0 
L 45.3125 8.40625 
Q 42.046875 3.421875 37.71875 1 
Q 33.40625 -1.421875 27.6875 -1.421875 
Q 18.265625 -1.421875 13.375 4.4375 
Q 8.5 10.296875 8.5 21.578125 
z
M 31.109375 56 
z
" id="DejaVuSans-117"/>
       <path d="M 11.71875 12.40625 
L 22.015625 12.40625 
L 22.015625 4 
L 14.015625 -11.625 
L 7.71875 -11.625 
L 11.71875 4 
z
" id="DejaVuSans-44"/>
       <path d="M 18.109375 8.203125 
L 18.109375 -20.796875 
L 9.078125 -20.796875 
L 9.078125 54.6875 
L 18.109375 54.6875 
L 18.109375 46.390625 
Q 20.953125 51.265625 25.265625 53.625 
Q 29.59375 56 35.59375 56 
Q 45.5625 56 51.78125 48.09375 
Q 58.015625 40.1875 58.015625 27.296875 
Q 58.015625 14.40625 51.78125 6.484375 
Q 45.5625 -1.421875 35.59375 -1.421875 
Q 29.59375 -1.421875 25.265625 0.953125 
Q 20.953125 3.328125 18.109375 8.203125 
z
M 48.6875 27.296875 
Q 48.6875 37.203125 44.609375 42.84375 
Q 40.53125 48.484375 33.40625 48.484375 
Q 26.265625 48.484375 22.1875 42.84375 
Q 18.109375 37.203125 18.109375 27.296875 
Q 18.109375 17.390625 22.1875 11.75 
Q 26.265625 6.109375 33.40625 6.109375 
Q 40.53125 6.109375 44.609375 11.75 
Q 48.6875 17.390625 48.6875 27.296875 
z
" id="DejaVuSans-112"/>
      </defs>
      <use xlink:href="#DejaVuSans-70"/>
      <use x="50.269531" xlink:href="#DejaVuSans-114"/>
      <use x="91.382812" xlink:href="#DejaVuSans-97"/>
      <use x="152.662109" xlink:href="#DejaVuSans-99"/>
      <use x="207.642578" xlink:href="#DejaVuSans-116"/>
      <use x="246.851562" xlink:href="#DejaVuSans-105"/>
      <use x="274.634766" xlink:href="#DejaVuSans-111"/>
      <use x="335.816406" xlink:href="#DejaVuSans-110"/>
      <use x="399.195312" xlink:href="#DejaVuSans-32"/>
      <use x="430.982422" xlink:href="#DejaVuSans-111"/>
      <use x="492.164062" xlink:href="#DejaVuSans-102"/>
      <use x="527.369141" xlink:href="#DejaVuSans-32"/>
      <use x="559.15625" xlink:href="#DejaVuSans-102"/>
      <use x="594.361328" xlink:href="#DejaVuSans-117"/>
      <use x="657.740234" xlink:href="#DejaVuSans-110"/>
      <use x="721.119141" xlink:href="#DejaVuSans-99"/>
      <use x="776.099609" xlink:href="#DejaVuSans-116"/>
      <use x="815.308594" xlink:href="#DejaVuSans-105"/>
      <use x="843.091797" xlink:href="#DejaVuSans-111"/>
      <use x="904.273438" xlink:href="#DejaVuSans-110"/>
      <use x="967.652344" xlink:href="#DejaVuSans-44"/>
      <use x="999.439453" xlink:href="#DejaVuSans-116"/>
      <use x="1038.648438" xlink:href="#DejaVuSans-97"/>
      <use x="1099.927734" xlink:href="#DejaVuSans-114"/>
      <use x="1139.291016" xlink:href="#DejaVuSans-103"/>
      <use x="1202.767578" xlink:href="#DejaVuSans-101"/>
      <use x="1264.291016" xlink:href="#DejaVuSans-116"/>
      <use x="1303.5" xlink:href="#DejaVuSans-32"/>
      <use x="1335.287109" xlink:href="#DejaVuSans-112"/>
      <use x="1398.763672" xlink:href="#DejaVuSans-97"/>
      <use x="1460.042969" xlink:href="#DejaVuSans-105"/>
      <use x="1487.826172" xlink:href="#DejaVuSans-114"/>
      <use x="1528.939453" xlink:href="#DejaVuSans-115"/>
     </g>
    </g>
   </g>
   <g id="line2d_33">
    <defs>
     <path d="M 0 1.5 
C 0.397805 1.5 0.77937 1.341951 1.06066 1.06066 
C 1.341951 0.77937 1.5 0.397805 1.5 0 
C 1.5 -0.397805 1.341951 -0.77937 1.06066 -1.06066 
C 0.77937 -1.341951 0.397805 -1.5 0 -1.5 
C -0.397805 -1.5 -0.77937 -1.341951 -1.06066 -1.06066 
C -1.341951 -0.77937 -1.5 -0.397805 -1.5 0 
C -1.5 0.397805 -1.341951 0.77937 -1.06066 1.06066 
C -0.77937 1.341951 -0.397805 1.5 0 1.5 
z
" id="me4797045d9" style="stroke:#f5deb3;"/>
    </defs>
    <g>
     <use style="fill:#f5deb3;stroke:#f5deb3;" x="130.796184" xlink:href="#me4797045d9" y="30.334099"/>
     <use style="fill:#f5deb3;stroke:#f5deb3;" x="130.796184" xlink:href="#me4797045d9" y="30.334099"/>
    </g>
   </g>
   <g id="line2d_34">
    <defs>
     <path d="M 0 1.5 
C 0.397805 1.5 0.77937 1.341951 1.06066 1.06066 
C 1.341951 0.77937 1.5 0.397805 1.5 0 
C 1.5 -0.397805 1.341951 -0.77937 1.06066 -1.06066 
C 0.77937 -1.341951 0.397805 -1.5 0 -1.5 
C -0.397805 -1.5 -0.77937 -1.341951 -1.06066 -1.06066 
C -1.341951 -0.77937 -1.5 -0.397805 -1.5 0 
C -1.5 0.397805 -1.341951 0.77937 -1.06066 1.06066 
C -0.77937 1.341951 -0.397805 1.5 0 1.5 
z
" id="mb85f2d3d56" style="stroke:#000080;"/>
    </defs>
    <g>
     <use style="fill:#000080;stroke:#000080;" x="180.328363" xlink:href="#mb85f2d3d56" y="30.334099"/>
     <use style="fill:#000080;stroke:#000080;" x="180.328363" xlink:href="#mb85f2d3d56" y="30.334099"/>
    </g>
   </g>
   <g id="line2d_35">
    <path d="M 57.6 298.944 
L 57.6 298.417314 
L 64.67102 298.417314 
L 64.67102 297.890628 
L 93.863965 297.890628 
L 93.863965 296.837256 
L 96.86091 296.837256 
L 96.86091 295.783884 
L 97.755429 295.783884 
L 97.755429 294.730511 
L 98.606294 294.730511 
L 98.606294 293.677139 
L 99.41757 293.677139 
L 99.41757 293.150453 
L 100.192776 293.150453 
L 100.192776 292.097081 
L 100.934985 292.097081 
L 100.934985 291.570395 
L 102.330873 291.570395 
L 102.330873 291.043709 
L 104.826449 291.043709 
L 104.826449 289.990337 
L 106.48859 289.990337 
L 106.48859 289.463651 
L 108.483824 289.463651 
L 108.483824 288.936964 
L 108.948899 288.936964 
L 108.948899 287.883592 
L 109.843417 287.883592 
L 109.843417 287.356906 
L 112.280765 287.356906 
L 112.280765 286.303534 
L 112.655818 286.303534 
L 112.655818 285.250162 
L 113.022974 285.250162 
L 113.022974 284.723476 
L 113.382559 284.723476 
L 113.382559 284.19679 
L 115.077025 284.19679 
L 115.077025 283.670104 
L 116.019919 283.670104 
L 116.019919 283.143418 
L 117.202696 283.143418 
L 117.202696 282.616732 
L 117.486268 282.616732 
L 117.486268 282.090045 
L 118.039942 282.090045 
L 118.039942 281.036673 
L 119.097192 281.036673 
L 119.097192 278.929929 
L 121.036887 278.929929 
L 121.036887 278.403243 
L 121.264855 278.403243 
L 121.264855 277.876557 
L 121.489881 277.876557 
L 121.489881 275.243126 
L 122.573415 275.243126 
L 122.573415 274.189754 
L 122.988655 274.189754 
L 122.988655 273.663068 
L 123.192626 273.663068 
L 123.192626 272.609696 
L 124.368753 272.609696 
L 124.368753 272.08301 
L 125.647598 272.08301 
L 125.647598 270.502952 
L 126.168212 270.502952 
L 126.168212 268.922893 
L 126.338353 268.922893 
L 126.338353 268.396207 
L 127.002787 268.396207 
L 127.002787 267.869521 
L 127.799239 267.869521 
L 127.799239 267.342835 
L 128.411207 267.342835 
L 128.411207 266.816149 
L 129.002426 266.816149 
L 129.002426 266.289463 
L 130.796184 266.289463 
L 130.796184 263.129347 
L 131.439773 263.129347 
L 131.439773 262.60266 
L 131.814826 262.60266 
L 131.814826 261.549288 
L 132.181982 261.549288 
L 132.181982 261.022602 
L 133.009765 261.022602 
L 133.009765 260.495916 
L 133.57787 260.495916 
L 133.57787 258.915858 
L 135.381712 258.915858 
L 135.381712 258.389172 
L 136.266147 258.389172 
L 136.266147 257.862486 
L 137.289545 257.862486 
L 137.289545 255.755741 
L 137.647286 255.755741 
L 137.647286 252.068939 
L 138.256201 252.068939 
L 138.256201 249.962195 
L 140.272217 249.962195 
L 140.272217 248.908822 
L 142.553247 248.908822 
L 142.553247 248.382136 
L 145.097753 248.382136 
L 145.097753 247.328764 
L 145.384119 247.328764 
L 145.384119 246.802078 
L 146.052799 246.802078 
L 146.052799 246.275392 
L 147.96658 246.275392 
L 147.96658 245.22202 
L 148.112924 245.22202 
L 148.112924 244.695334 
L 148.306159 244.695334 
L 148.306159 244.168648 
L 148.686322 244.168648 
L 148.686322 243.641962 
L 149.422654 243.641962 
L 149.422654 243.115275 
L 149.557321 243.115275 
L 149.557321 241.008531 
L 150.891184 241.008531 
L 150.891184 240.481845 
L 151.13797 240.481845 
L 151.13797 239.955159 
L 151.740076 239.955159 
L 151.740076 239.428473 
L 152.0141 239.428473 
L 152.0141 238.901787 
L 152.130233 238.901787 
L 152.130233 238.375101 
L 152.283884 238.375101 
L 152.283884 237.848415 
L 153.359122 237.848415 
L 153.359122 237.321729 
L 153.959927 237.321729 
L 154.063835 235.214984 
L 155.393186 235.214984 
L 155.393186 234.688298 
L 155.55245 234.688298 
L 155.61575 232.581554 
L 155.741666 232.581554 
L 155.773004 231.001496 
L 155.86668 231.001496 
L 155.897793 228.894751 
L 155.990803 228.894751 
L 155.990803 228.368065 
L 156.114049 228.368065 
L 156.114049 227.841379 
L 156.266892 227.841379 
L 156.297301 226.788007 
L 156.478647 226.788007 
L 156.478647 225.734635 
L 156.598505 225.734635 
L 156.628341 224.681263 
L 156.835778 224.681263 
L 156.835778 223.101204 
L 157.1279 223.101204 
L 157.1279 222.574518 
L 157.300853 222.574518 
L 157.358125 220.99446 
L 157.500487 220.99446 
L 157.500487 219.941088 
L 157.837488 219.941088 
L 157.94839 218.36103 
L 158.249784 218.36103 
L 158.249784 217.834344 
L 158.889829 217.834344 
L 158.889829 216.780971 
L 159.123917 216.780971 
L 159.123917 216.254285 
L 159.303838 216.254285 
L 159.32939 214.147541 
L 159.456591 214.147541 
L 159.456591 213.620855 
L 159.683242 213.620855 
L 159.683242 212.567483 
L 159.931669 212.567483 
L 159.980933 211.514111 
L 160.054568 211.514111 
L 160.152267 209.934052 
L 160.176607 209.934052 
L 160.176607 208.88068 
L 160.321935 208.88068 
L 160.321935 208.353994 
L 160.466062 208.353994 
L 160.466062 207.827308 
L 160.585265 207.827308 
L 160.585265 207.300622 
L 160.727241 207.300622 
L 160.727241 206.773936 
L 161.030947 206.773936 
L 161.077205 205.193878 
L 161.146363 205.193878 
L 161.146363 204.667192 
L 161.306672 204.667192 
L 161.306672 203.613819 
L 161.510643 203.613819 
L 161.510643 203.087133 
L 161.622937 203.087133 
L 161.622937 202.033761 
L 161.867469 202.033761 
L 161.955547 200.453703 
L 162.021314 200.453703 
L 162.065021 198.346959 
L 162.559939 198.346959 
L 162.559939 197.820273 
L 163.327764 197.820273 
L 163.348054 196.7669 
L 163.609699 196.7669 
L 163.689421 195.713528 
L 163.788565 195.713528 
L 163.788565 194.660156 
L 163.906798 194.660156 
L 163.965615 193.080098 
L 164.082658 193.080098 
L 164.082658 192.553412 
L 164.19892 192.553412 
L 164.19892 190.973354 
L 164.314412 190.973354 
L 164.314412 189.393295 
L 164.486229 189.393295 
L 164.486229 188.866609 
L 164.637547 188.866609 
L 164.65637 187.286551 
L 164.787563 187.286551 
L 164.880672 184.126434 
L 165.230021 184.126434 
L 165.320804 182.01969 
L 165.429123 182.01969 
L 165.429123 181.493004 
L 165.55465 181.493004 
L 165.643763 178.332888 
L 165.732422 178.332888 
L 165.785402 174.646085 
L 165.890882 174.646085 
L 165.9084 172.539341 
L 166.151824 172.539341 
L 166.151824 172.012655 
L 166.510705 172.012655 
L 166.578233 169.90591 
L 166.795913 169.90591 
L 166.878918 168.325852 
L 167.076532 168.325852 
L 167.0929 166.219108 
L 167.223287 166.219108 
L 167.255733 163.585677 
L 167.336582 163.585677 
L 167.43311 159.898875 
L 167.735303 159.898875 
L 167.84533 157.265444 
L 167.892273 157.265444 
L 167.892273 156.738758 
L 168.047843 156.738758 
L 168.078792 154.105328 
L 168.171308 154.105328 
L 168.248032 152.52527 
L 168.293904 152.52527 
L 168.370092 149.365153 
L 168.611679 149.365153 
L 168.611679 148.838467 
L 168.746115 148.838467 
L 168.820356 144.624978 
L 168.86475 144.624978 
L 168.923766 142.518234 
L 169.026567 142.518234 
L 169.114201 139.358118 
L 169.201398 139.358118 
L 169.244833 138.304745 
L 169.331381 138.304745 
L 169.388841 137.251373 
L 169.446113 137.251373 
L 169.503198 135.144629 
L 169.588476 135.144629 
L 169.673338 133.037885 
L 169.743743 133.037885 
L 169.799863 131.457826 
L 169.855803 131.457826 
L 169.855803 130.93114 
L 169.967148 130.93114 
L 170.063995 129.351082 
L 170.187727 129.351082 
L 170.296979 126.190966 
L 170.364915 126.190966 
L 170.459584 121.977477 
L 170.553741 121.977477 
L 170.647393 119.344047 
L 170.713981 119.344047 
L 170.819995 117.763988 
L 170.833202 117.763988 
L 170.872762 116.710616 
L 171.134225 116.710616 
L 171.160157 114.077186 
L 171.314944 114.077186 
L 171.391826 112.497128 
L 171.506517 112.497128 
L 171.607834 109.863697 
L 171.620458 109.863697 
L 171.67086 106.176895 
L 171.846131 106.176895 
L 171.93311 104.07015 
L 172.031987 104.07015 
L 172.093501 100.910034 
L 172.154799 100.910034 
L 172.154799 100.383348 
L 172.361615 100.383348 
L 172.446067 99.329976 
L 172.518131 99.329976 
L 172.577957 96.169859 
L 172.768032 96.169859 
L 172.874047 93.536429 
L 172.932666 93.536429 
L 173.00275 90.902998 
L 173.14208 90.902998 
L 173.234351 87.742882 
L 173.257343 87.742882 
L 173.31469 86.68951 
L 173.406055 86.68951 
L 173.496944 84.582765 
L 173.519593 84.582765 
L 173.519593 83.002707 
L 173.688525 83.002707 
L 173.688525 82.476021 
L 173.889107 82.476021 
L 173.900183 79.842591 
L 174.065485 79.842591 
L 174.13117 77.20916 
L 174.196608 77.20916 
L 174.196608 76.682474 
L 174.337554 76.682474 
L 174.423728 75.102416 
L 174.806323 75.102416 
L 174.827334 74.049044 
L 174.952873 74.049044 
L 175.056802 72.995672 
L 175.077514 72.995672 
L 175.077514 72.468985 
L 175.537141 72.468985 
L 175.537141 71.942299 
L 175.667697 71.942299 
L 175.737594 68.255497 
L 175.797284 68.255497 
L 175.846869 65.09538 
L 175.94562 65.09538 
L 176.053603 62.46195 
L 176.151193 62.46195 
L 176.219183 59.301833 
L 176.277249 59.301833 
L 176.315853 57.721775 
L 176.488521 57.721775 
L 176.488521 57.195089 
L 176.668945 57.195089 
L 176.687829 55.088345 
L 176.800705 55.088345 
L 176.810078 54.034973 
L 176.94078 54.034973 
L 176.94078 53.508287 
L 177.061275 53.508287 
L 177.061275 52.9816 
L 177.190115 52.9816 
L 177.281564 51.401542 
L 177.345294 51.401542 
L 177.345294 50.34817 
L 177.48108 50.34817 
L 177.579988 48.241426 
L 177.767269 48.241426 
L 177.846921 46.661368 
L 177.934998 46.661368 
L 178.031372 45.081309 
L 178.144586 45.081309 
L 178.205245 42.974565 
L 178.325932 42.974565 
L 178.325932 41.394507 
L 178.44579 41.394507 
L 178.44579 39.814448 
L 178.817212 39.814448 
L 178.842251 38.23439 
L 179.20541 38.23439 
L 179.20541 37.707704 
L 179.351823 37.707704 
L 179.400355 36.127646 
L 179.472902 36.127646 
L 179.537135 32.967529 
L 180.042657 32.967529 
L 180.042657 31.387471 
L 180.282349 31.387471 
L 180.328363 30.334099 
L 338.688 30.334099 
L 338.688 30.334099 
" style="fill:none;stroke:#000080;stroke-linecap:square;stroke-width:1.5;"/>
   </g>
   <g id="line2d_36">
    <defs>
     <path d="M 0 6 
C 1.591219 6 3.117479 5.367802 4.242641 4.242641 
C 5.367802 3.117479 6 1.591219 6 0 
C 6 -1.591219 5.367802 -3.117479 4.242641 -4.242641 
C 3.117479 -5.367802 1.591219 -6 0 -6 
C -1.591219 -6 -3.117479 -5.367802 -4.242641 -4.242641 
C -5.367802 -3.117479 -6 -1.591219 -6 0 
C -6 1.591219 -5.367802 3.117479 -4.242641 4.242641 
C -3.117479 5.367802 -1.591219 6 0 6 
z
" id="madf794ab6a" style="stroke:#000080;stroke-width:1.5;"/>
    </defs>
    <g>
     <use style="fill-opacity:0;stroke:#000080;stroke-width:1.5;" x="168.820356" xlink:href="#madf794ab6a" y="147.258409"/>
     <use style="fill-opacity:0;stroke:#000080;stroke-width:1.5;" x="180.328363" xlink:href="#madf794ab6a" y="30.860785"/>
     <use style="fill-opacity:0;stroke:#000080;stroke-width:1.5;" x="180.328363" xlink:href="#madf794ab6a" y="30.334099"/>
     <use style="fill-opacity:0;stroke:#000080;stroke-width:1.5;" x="180.328363" xlink:href="#madf794ab6a" y="30.334099"/>
     <use style="fill-opacity:0;stroke:#000080;stroke-width:1.5;" x="338.688" xlink:href="#madf794ab6a" y="30.334099"/>
    </g>
   </g>
   <g id="line2d_37">
    <path style="fill:none;stroke:#000080;stroke-linecap:square;stroke-width:1.5;"/>
    <g/>
   </g>
   <g id="line2d_38">
    <defs>
     <path d="M 0 1.5 
C 0.397805 1.5 0.77937 1.341951 1.06066 1.06066 
C 1.341951 0.77937 1.5 0.397805 1.5 0 
C 1.5 -0.397805 1.341951 -0.77937 1.06066 -1.06066 
C 0.77937 -1.341951 0.397805 -1.5 0 -1.5 
C -0.397805 -1.5 -0.77937 -1.341951 -1.06066 -1.06066 
C -1.341951 -0.77937 -1.5 -0.397805 -1.5 0 
C -1.5 0.397805 -1.341951 0.77937 -1.06066 1.06066 
C -0.77937 1.341951 -0.397805 1.5 0 1.5 
z
" id="m8bcb1fda3c" style="stroke:#ff00ff;"/>
    </defs>
    <g>
     <use style="fill:#ff00ff;stroke:#ff00ff;" x="182.815256" xlink:href="#m8bcb1fda3c" y="30.334099"/>
     <use style="fill:#ff00ff;stroke:#ff00ff;" x="182.815256" xlink:href="#m8bcb1fda3c" y="30.334099"/>
    </g>
   </g>
   <g id="line2d_39">
    <path d="M 45.512012 298.944 
L 45.512012 298.417314 
L 95.918017 298.417314 
L 95.918017 297.363942 
L 98.606294 297.363942 
L 98.606294 295.257197 
L 100.192776 295.257197 
L 100.192776 294.203825 
L 100.934985 294.203825 
L 100.934985 293.677139 
L 101.646892 293.677139 
L 101.646892 293.150453 
L 102.330873 293.150453 
L 102.330873 292.623767 
L 102.989037 292.623767 
L 102.989037 292.097081 
L 108.948899 292.097081 
L 108.948899 291.570395 
L 110.694282 291.570395 
L 110.694282 291.043709 
L 111.505558 291.043709 
L 111.505558 289.463651 
L 114.751048 289.463651 
L 114.751048 287.883592 
L 115.077025 287.883592 
L 115.077025 286.83022 
L 115.397021 286.83022 
L 115.397021 286.303534 
L 115.711251 286.303534 
L 115.711251 285.776848 
L 116.621333 285.776848 
L 116.621333 284.723476 
L 119.602714 284.723476 
L 119.602714 283.670104 
L 120.093994 283.670104 
L 120.093994 283.143418 
L 120.571812 283.143418 
L 120.571812 282.090045 
L 121.489881 282.090045 
L 121.489881 281.563359 
L 121.712041 281.563359 
L 121.712041 279.983301 
L 123.593547 279.983301 
L 123.593547 279.456615 
L 123.790603 279.456615 
L 123.790603 278.929929 
L 123.985457 278.929929 
L 123.985457 275.769812 
L 125.470548 275.769812 
L 125.470548 275.243126 
L 125.822869 275.243126 
L 125.822869 273.663068 
L 126.839037 273.663068 
L 126.839037 273.136382 
L 127.954256 273.136382 
L 127.954256 272.609696 
L 128.107907 272.609696 
L 128.107907 272.08301 
L 128.260216 272.08301 
L 128.260216 270.502952 
L 128.560901 270.502952 
L 128.560901 269.976266 
L 128.709321 269.976266 
L 128.709321 269.449579 
L 129.002426 269.449579 
L 129.002426 268.396207 
L 129.853291 268.396207 
L 129.853291 267.869521 
L 129.991152 267.869521 
L 129.991152 267.342835 
L 130.398313 267.342835 
L 130.398313 266.816149 
L 130.926816 266.816149 
L 130.926816 265.762777 
L 131.056477 265.762777 
L 131.056477 265.236091 
L 131.938072 265.236091 
L 131.938072 264.709405 
L 132.659801 264.709405 
L 132.659801 261.022602 
L 133.352844 261.022602 
L 133.352844 259.96923 
L 134.019394 259.96923 
L 134.019394 259.442544 
L 134.973757 259.442544 
L 134.973757 258.915858 
L 136.170062 258.915858 
L 136.170062 256.809114 
L 136.456742 256.809114 
L 136.456742 256.282427 
L 138.256201 256.282427 
L 138.256201 255.755741 
L 139.413734 255.755741 
L 139.413734 255.229055 
L 140.272217 255.229055 
L 140.272217 252.068939 
L 140.871049 252.068939 
L 140.871049 250.488881 
L 141.378673 250.488881 
L 141.378673 249.962195 
L 142.884173 249.962195 
L 142.884173 249.435508 
L 145.097753 249.435508 
L 145.097753 248.908822 
L 145.212864 248.908822 
L 145.212864 247.85545 
L 147.368603 247.85545 
L 147.368603 246.275392 
L 148.686322 246.275392 
L 148.686322 245.748706 
L 150.640855 245.748706 
L 150.640855 244.695334 
L 150.766468 244.695334 
L 150.766468 244.168648 
L 152.0141 244.168648 
L 152.0141 243.641962 
L 152.207228 243.641962 
L 152.207228 242.061903 
L 153.785358 242.061903 
L 153.785358 241.535217 
L 153.994632 241.535217 
L 153.994632 241.008531 
L 154.54072 241.008531 
L 154.54072 240.481845 
L 154.77436 240.481845 
L 154.807483 239.428473 
L 155.457066 239.428473 
L 155.457066 238.901787 
L 155.928852 238.901787 
L 155.928852 238.375101 
L 156.448553 238.375101 
L 156.538679 236.268356 
L 156.628341 236.268356 
L 156.628341 235.74167 
L 156.776762 235.74167 
L 156.776762 235.214984 
L 157.185742 235.214984 
L 157.185742 234.688298 
L 158.058592 234.688298 
L 158.058592 234.161612 
L 158.222599 234.161612 
L 158.331086 232.581554 
L 158.51933 232.581554 
L 158.572743 229.948123 
L 158.784773 229.948123 
L 158.784773 229.421437 
L 158.942121 229.421437 
L 159.046236 227.841379 
L 159.149734 227.841379 
L 159.149734 227.314693 
L 159.278248 227.314693 
L 159.278248 224.681263 
L 159.507213 224.681263 
L 159.507213 223.101204 
L 159.807898 223.101204 
L 159.807898 222.574518 
L 159.980933 222.574518 
L 160.030058 221.521146 
L 160.176607 221.521146 
L 160.176607 220.99446 
L 160.513841 220.99446 
L 160.513841 220.467774 
L 160.914762 220.467774 
L 160.961329 219.414402 
L 161.442917 219.414402 
L 161.442917 217.834344 
L 161.555647 217.834344 
L 161.555647 217.307658 
L 161.801118 217.307658 
L 161.867469 216.254285 
L 161.977497 216.254285 
L 161.977497 215.727599 
L 162.346481 215.727599 
L 162.346481 215.200913 
L 162.602318 215.200913 
L 162.644595 214.147541 
L 162.728843 214.147541 
L 162.833584 212.567483 
L 162.854457 212.567483 
L 162.958448 210.987425 
L 163.103002 210.987425 
L 163.205526 208.353994 
L 163.266752 208.353994 
L 163.266752 207.827308 
L 163.408783 207.827308 
L 163.408783 207.300622 
L 163.709295 207.300622 
L 163.709295 206.773936 
L 163.985177 206.773936 
L 164.082658 203.613819 
L 164.19892 203.613819 
L 164.295217 198.346959 
L 164.35274 198.346959 
L 164.35274 196.7669 
L 164.543127 196.7669 
L 164.543127 196.240214 
L 164.693955 196.240214 
L 164.731458 195.186842 
L 165.230021 195.186842 
L 165.230021 194.660156 
L 165.995728 194.660156 
L 165.995728 194.13347 
L 166.272273 194.13347 
L 166.357802 192.553412 
L 166.408919 192.553412 
L 166.459886 191.50004 
L 166.6119 191.50004 
L 166.645502 188.866609 
L 166.7626 188.866609 
L 166.829163 186.759865 
L 166.878918 186.759865 
L 166.928532 184.126434 
L 166.994465 184.126434 
L 166.994465 182.546376 
L 167.158215 182.546376 
L 167.190782 181.493004 
L 167.465168 181.493004 
L 167.560988 178.332888 
L 167.719528 178.332888 
L 167.719528 177.806202 
L 167.907893 177.806202 
L 168.001318 176.226143 
L 168.063324 176.226143 
L 168.109685 175.172771 
L 168.232714 175.172771 
L 168.324419 173.592713 
L 168.400474 173.592713 
L 168.506396 168.852538 
L 168.581663 168.852538 
L 168.581663 167.799166 
L 169.157854 167.799166 
L 169.259288 165.165736 
L 169.27373 165.165736 
L 169.27373 164.63905 
L 169.474679 164.63905 
L 169.560096 163.058991 
L 169.630959 163.058991 
L 169.729685 160.425561 
L 169.75779 160.425561 
L 169.841835 157.265444 
L 169.897641 157.265444 
L 170.008719 155.1587 
L 170.022555 155.1587 
L 170.063995 153.578642 
L 170.174022 153.578642 
L 170.174022 153.051956 
L 170.419074 153.051956 
L 170.446091 151.471897 
L 170.567151 151.471897 
L 170.567151 150.945211 
L 170.713981 150.945211 
L 170.753812 147.258409 
L 170.846398 147.258409 
L 170.846398 146.731723 
L 170.977818 146.731723 
L 171.056197 141.464862 
L 171.147196 141.464862 
L 171.147196 140.41149 
L 171.289242 140.41149 
L 171.289242 139.884804 
L 171.417378 139.884804 
L 171.49381 136.724687 
L 171.54458 136.724687 
L 171.607834 134.617943 
L 171.783736 134.617943 
L 171.883461 131.984513 
L 172.00732 131.984513 
L 172.118046 129.351082 
L 172.130306 129.351082 
L 172.203683 126.190966 
L 172.264595 126.190966 
L 172.349517 124.610907 
L 172.42198 124.610907 
L 172.470121 123.030849 
L 172.744386 123.030849 
L 172.744386 121.977477 
L 172.862299 121.977477 
L 172.967743 118.817361 
L 172.97942 118.817361 
L 173.084161 116.18393 
L 173.118935 116.18393 
L 173.14208 114.603872 
L 173.234351 114.603872 
L 173.31469 111.443755 
L 173.417442 111.443755 
L 173.519593 108.810325 
L 173.755642 108.810325 
L 173.844732 106.176895 
L 174.07645 106.176895 
L 174.142093 105.123522 
L 174.229235 105.123522 
L 174.305129 103.016778 
L 174.348349 103.016778 
L 174.445204 101.963406 
L 174.530849 101.963406 
L 174.616074 98.803289 
L 174.66913 98.803289 
L 174.774759 94.063115 
L 174.816832 94.063115 
L 174.83783 93.009743 
L 175.046437 93.009743 
L 175.056802 91.95637 
L 175.20127 91.95637 
L 175.262821 90.376312 
L 175.364924 90.376312 
L 175.466434 85.636137 
L 175.617599 85.636137 
L 175.617599 84.056079 
L 175.747557 84.056079 
L 175.827052 83.002707 
L 175.916053 83.002707 
L 176.02422 81.422649 
L 176.082938 81.422649 
L 176.131719 77.735846 
L 176.199784 77.735846 
L 176.228874 75.629102 
L 176.363988 75.629102 
L 176.363988 75.102416 
L 176.574218 75.102416 
L 176.574218 74.049044 
L 176.697263 74.049044 
L 176.763161 72.995672 
L 176.810078 72.995672 
L 176.875552 71.942299 
L 177.024289 71.942299 
L 177.107399 69.835555 
L 177.633702 69.835555 
L 177.633702 69.308869 
L 178.351686 69.308869 
L 178.420176 66.675439 
L 178.479885 66.675439 
L 178.530902 62.988636 
L 178.607149 62.988636 
L 178.691478 61.935264 
L 178.73349 61.935264 
L 178.833909 59.301833 
L 178.850589 59.301833 
L 178.850589 58.775147 
L 178.999998 58.775147 
L 179.107114 56.141717 
L 179.213577 56.141717 
L 179.213577 55.615031 
L 179.351823 55.615031 
L 179.440696 54.034973 
L 179.529118 54.034973 
L 179.529118 53.508287 
L 179.744273 53.508287 
L 179.831174 52.454914 
L 179.917643 52.454914 
L 180.027079 49.821484 
L 180.16678 49.821484 
L 180.16678 48.768112 
L 180.374256 48.768112 
L 180.480872 46.661368 
L 180.714656 46.661368 
L 180.714656 46.134681 
L 180.826662 46.134681 
L 180.886106 44.027937 
L 181.011755 44.027937 
L 181.107232 40.341135 
L 181.22403 40.341135 
L 181.22403 39.287762 
L 181.412173 39.287762 
L 181.498329 37.707704 
L 181.887852 37.707704 
L 181.887852 37.181018 
L 182.034313 37.181018 
L 182.055136 36.127646 
L 182.151983 36.127646 
L 182.220831 31.914157 
L 182.581258 31.914157 
L 182.581258 30.860785 
L 182.815256 30.860785 
L 182.815256 30.334099 
L 338.688 30.334099 
L 338.688 30.334099 
" style="fill:none;stroke:#ff00ff;stroke-linecap:square;stroke-width:1.5;"/>
   </g>
   <g id="line2d_40">
    <defs>
     <path d="M -0 8.485281 
L 5.091169 0 
L 0 -8.485281 
L -5.091169 -0 
z
" id="mb638fd06dc" style="stroke:#ff00ff;stroke-linejoin:miter;stroke-width:1.5;"/>
    </defs>
    <g>
     <use style="fill-opacity:0;stroke:#ff00ff;stroke-linejoin:miter;stroke-width:1.5;" x="148.686322" xlink:href="#mb638fd06dc" y="246.275392"/>
     <use style="fill-opacity:0;stroke:#ff00ff;stroke-linejoin:miter;stroke-width:1.5;" x="173.14208" xlink:href="#mb638fd06dc" y="115.130558"/>
     <use style="fill-opacity:0;stroke:#ff00ff;stroke-linejoin:miter;stroke-width:1.5;" x="182.815256" xlink:href="#mb638fd06dc" y="30.860785"/>
     <use style="fill-opacity:0;stroke:#ff00ff;stroke-linejoin:miter;stroke-width:1.5;" x="182.815256" xlink:href="#mb638fd06dc" y="30.334099"/>
     <use style="fill-opacity:0;stroke:#ff00ff;stroke-linejoin:miter;stroke-width:1.5;" x="182.815256" xlink:href="#mb638fd06dc" y="30.334099"/>
     <use style="fill-opacity:0;stroke:#ff00ff;stroke-linejoin:miter;stroke-width:1.5;" x="338.688" xlink:href="#mb638fd06dc" y="30.334099"/>
    </g>
   </g>
   <g id="line2d_41">
    <path style="fill:none;stroke:#ff00ff;stroke-linecap:square;stroke-width:1.5;"/>
    <g/>
   </g>
   <g id="line2d_42">
    <defs>
     <path d="M 0 1.5 
C 0.397805 1.5 0.77937 1.341951 1.06066 1.06066 
C 1.341951 0.77937 1.5 0.397805 1.5 0 
C 1.5 -0.397805 1.341951 -0.77937 1.06066 -1.06066 
C 0.77937 -1.341951 0.397805 -1.5 0 -1.5 
C -0.397805 -1.5 -0.77937 -1.341951 -1.06066 -1.06066 
C -1.341951 -0.77937 -1.5 -0.397805 -1.5 0 
C -1.5 0.397805 -1.341951 0.77937 -1.06066 1.06066 
C -0.77937 1.341951 -0.397805 1.5 0 1.5 
z
" id="m88a4bc4d82" style="stroke:#ff7500;"/>
    </defs>
    <g>
     <use style="fill:#ff7500;stroke:#ff7500;" x="180.737115" xlink:href="#m88a4bc4d82" y="30.334099"/>
     <use style="fill:#ff7500;stroke:#ff7500;" x="180.737115" xlink:href="#m88a4bc4d82" y="30.334099"/>
    </g>
   </g>
   <g id="line2d_43">
    <path d="M 57.6 298.944 
L 57.6 298.417314 
L 88.846997 298.417314 
L 88.846997 297.890628 
L 96.86091 297.890628 
L 96.86091 296.31057 
L 97.755429 296.31057 
L 97.755429 295.257197 
L 98.606294 295.257197 
L 98.606294 294.730511 
L 100.934985 294.730511 
L 100.934985 294.203825 
L 101.646892 294.203825 
L 101.646892 293.677139 
L 102.330873 293.677139 
L 102.330873 293.150453 
L 104.826449 293.150453 
L 104.826449 291.043709 
L 106.48859 291.043709 
L 106.48859 289.990337 
L 108.483824 289.990337 
L 108.483824 288.936964 
L 108.948899 288.936964 
L 108.948899 288.410278 
L 109.843417 288.410278 
L 109.843417 287.883592 
L 112.655818 287.883592 
L 112.655818 286.303534 
L 113.022974 286.303534 
L 113.022974 285.776848 
L 113.382559 285.776848 
L 113.382559 285.250162 
L 113.73488 285.250162 
L 113.73488 284.723476 
L 114.418861 284.723476 
L 114.418861 283.670104 
L 116.323218 283.670104 
L 116.323218 283.143418 
L 117.486268 283.143418 
L 117.486268 282.616732 
L 117.765302 282.616732 
L 117.765302 282.090045 
L 118.310324 282.090045 
L 118.310324 281.563359 
L 119.351785 281.563359 
L 119.351785 278.403243 
L 121.264855 278.403243 
L 121.264855 277.876557 
L 121.712041 277.876557 
L 121.712041 275.769812 
L 122.782271 275.769812 
L 122.782271 275.243126 
L 123.593547 275.243126 
L 123.593547 273.136382 
L 124.743806 273.136382 
L 124.743806 272.609696 
L 125.822869 272.609696 
L 125.822869 272.08301 
L 125.996395 272.08301 
L 125.996395 271.556324 
L 126.673734 271.556324 
L 126.673734 270.502952 
L 127.325746 270.502952 
L 127.325746 269.976266 
L 128.107907 269.976266 
L 128.107907 269.449579 
L 128.709321 269.449579 
L 128.709321 268.396207 
L 130.398313 268.396207 
L 130.398313 266.289463 
L 131.185181 266.289463 
L 131.185181 264.182719 
L 131.814826 264.182719 
L 131.814826 263.656033 
L 132.181982 263.656033 
L 132.181982 263.129347 
L 132.541568 263.129347 
L 132.541568 262.60266 
L 133.910056 262.60266 
L 133.910056 260.495916 
L 134.12805 260.495916 
L 134.12805 259.96923 
L 135.076644 259.96923 
L 135.076644 259.442544 
L 135.97629 259.442544 
L 135.97629 258.915858 
L 136.645276 258.915858 
L 136.645276 258.389172 
L 137.997836 258.389172 
L 137.997836 255.229055 
L 138.594838 255.229055 
L 138.594838 253.122311 
L 139.090775 253.122311 
L 139.090775 252.595625 
L 140.64889 252.595625 
L 140.64889 252.068939 
L 142.949611 252.068939 
L 142.949611 250.488881 
L 145.097753 250.488881 
L 145.097753 248.908822 
L 145.497361 248.908822 
L 145.497361 248.382136 
L 146.431341 248.382136 
L 146.431341 247.85545 
L 148.112924 247.85545 
L 148.112924 247.328764 
L 148.497276 247.328764 
L 148.497276 246.802078 
L 149.955193 246.802078 
L 149.955193 244.168648 
L 151.260066 244.168648 
L 151.260066 243.641962 
L 151.541675 243.641962 
L 151.541675 243.115275 
L 151.740076 243.115275 
L 151.740076 242.588589 
L 152.130233 242.588589 
L 152.130233 242.061903 
L 152.398241 242.061903 
L 152.398241 241.535217 
L 152.511852 241.535217 
L 152.511852 239.955159 
L 152.662192 239.955159 
L 152.662192 238.901787 
L 153.644434 238.901787 
L 153.750233 237.321729 
L 154.167129 237.321729 
L 154.167129 236.795043 
L 154.337936 236.795043 
L 154.337936 234.688298 
L 154.507086 234.688298 
L 154.507086 234.161612 
L 154.741174 234.161612 
L 154.741174 233.634926 
L 154.906477 233.634926 
L 154.906477 233.10824 
L 155.959855 233.10824 
L 156.021696 231.528182 
L 156.144725 231.528182 
L 156.175347 229.948123 
L 156.266892 229.948123 
L 156.297301 227.314693 
L 156.38821 227.314693 
L 156.448553 226.261321 
L 156.508689 226.261321 
L 156.508689 225.734635 
L 156.687861 225.734635 
L 156.687861 225.207949 
L 156.865211 225.207949 
L 156.865211 224.154577 
L 156.98245 224.154577 
L 157.011638 221.521146 
L 157.098907 221.521146 
L 157.098907 220.467774 
L 157.243392 220.467774 
L 157.243392 218.887716 
L 157.528821 218.887716 
L 157.528821 218.36103 
L 157.697862 218.36103 
L 157.753847 217.307658 
L 158.331086 217.307658 
L 158.331086 216.780971 
L 158.652556 216.780971 
L 158.652556 216.254285 
L 159.149734 216.254285 
L 159.149734 215.727599 
L 159.278248 215.727599 
L 159.278248 215.200913 
L 159.532469 215.200913 
L 159.532469 214.674227 
L 159.708245 214.674227 
L 159.733212 213.094169 
L 159.857512 213.094169 
L 159.857512 212.567483 
L 160.079044 212.567483 
L 160.079044 211.514111 
L 160.442124 211.514111 
L 160.489968 210.460738 
L 160.56149 210.460738 
L 160.585265 208.353994 
L 160.750792 208.353994 
L 160.750792 207.827308 
L 160.86807 207.827308 
L 160.938061 206.24725 
L 160.984566 206.24725 
L 160.984566 205.720564 
L 161.12334 205.720564 
L 161.12334 205.193878 
L 161.420284 205.193878 
L 161.442917 204.140506 
L 161.911563 204.140506 
L 162.021314 197.293586 
L 162.086834 197.293586 
L 162.086834 196.7669 
L 162.346481 196.7669 
L 162.453536 193.606784 
L 162.9377 193.606784 
L 162.958448 192.553412 
L 163.729146 192.553412 
L 163.748975 191.50004 
L 163.985177 191.50004 
L 164.082658 188.866609 
L 164.121498 188.866609 
L 164.179597 186.759865 
L 164.314412 186.759865 
L 164.371873 185.179807 
L 164.486229 185.179807 
L 164.562052 183.599748 
L 164.599841 183.599748 
L 164.693955 181.493004 
L 164.712717 181.493004 
L 164.712717 179.38626 
L 164.880672 179.38626 
L 164.880672 178.859574 
L 165.02862 178.859574 
L 165.065412 177.806202 
L 165.193576 177.806202 
L 165.284547 175.172771 
L 165.447111 175.172771 
L 165.447111 174.646085 
L 165.625977 174.646085 
L 165.714726 173.066027 
L 165.785402 173.066027 
L 165.838222 171.485969 
L 165.960849 171.485969 
L 166.047915 168.852538 
L 166.134549 168.852538 
L 166.186323 165.165736 
L 166.289413 165.165736 
L 166.306535 164.112363 
L 166.91201 164.112363 
L 166.994465 162.532305 
L 167.190782 162.532305 
L 167.190782 160.952247 
L 167.481174 160.952247 
L 167.560988 158.318817 
L 167.624577 158.318817 
L 167.735303 155.1587 
L 167.751064 155.1587 
L 167.829655 151.471897 
L 167.93909 151.471897 
L 167.93909 150.945211 
L 168.140524 150.945211 
L 168.171308 149.365153 
L 168.293904 149.365153 
L 168.293904 148.838467 
L 168.430803 148.838467 
L 168.476198 145.151665 
L 168.566635 145.151665 
L 168.656606 143.571606 
L 168.701418 143.571606 
L 168.77585 139.884804 
L 169.011918 139.884804 
L 169.011918 139.358118 
L 169.143315 139.358118 
L 169.215888 135.671315 
L 169.27373 135.671315 
L 169.331381 133.564571 
L 169.51744 133.564571 
L 169.602648 131.984513 
L 169.630959 131.984513 
L 169.729685 130.404454 
L 169.78585 130.404454 
L 169.841835 128.29771 
L 169.911564 128.29771 
L 169.994873 126.190966 
L 170.063995 126.190966 
L 170.174022 124.084221 
L 170.187727 124.084221 
L 170.256089 121.977477 
L 170.473066 121.977477 
L 170.473066 120.924105 
L 170.59394 120.924105 
L 170.700684 117.763988 
L 170.793552 117.763988 
L 170.859585 115.130558 
L 170.951613 115.130558 
L 171.056197 111.970441 
L 171.121244 111.970441 
L 171.224819 109.863697 
L 171.531901 109.863697 
L 171.569909 107.756953 
L 171.721118 107.756953 
L 171.8212 105.650209 
L 171.945501 105.650209 
L 172.019658 99.856662 
L 172.068921 99.856662 
L 172.068921 99.329976 
L 172.337411 99.329976 
L 172.337411 98.276603 
L 172.458099 98.276603 
L 172.554051 93.536429 
L 172.768032 93.536429 
L 172.779844 92.483056 
L 172.920958 92.483056 
L 172.97942 89.849626 
L 173.084161 89.849626 
L 173.188276 87.216196 
L 173.257343 87.216196 
L 173.337576 84.056079 
L 173.406055 84.056079 
L 173.406055 83.002707 
L 173.542212 83.002707 
L 173.643636 80.895963 
L 173.666095 80.895963 
L 173.722116 79.842591 
L 173.811376 79.842591 
L 173.922314 77.20916 
L 174.185719 77.20916 
L 174.294307 74.57573 
L 174.305129 74.57573 
L 174.305129 74.049044 
L 174.466655 74.049044 
L 174.552194 71.415613 
L 174.827334 71.415613 
L 174.827334 69.835555 
L 175.211544 69.835555 
L 175.232072 68.782183 
L 175.354741 68.782183 
L 175.354741 68.255497 
L 175.486665 68.255497 
L 175.486665 67.728811 
L 176.073165 67.728811 
L 176.131719 65.622066 
L 176.199784 65.622066 
L 176.24824 62.988636 
L 176.335123 62.988636 
L 176.354372 61.935264 
L 176.459861 61.935264 
L 176.55521 60.355206 
L 176.621646 60.355206 
L 176.725536 58.775147 
L 176.82881 58.775147 
L 176.82881 58.248461 
L 177.07051 58.248461 
L 177.088964 56.668403 
L 177.2176 56.668403 
L 177.25418 55.615031 
L 177.345294 55.615031 
L 177.454007 54.561659 
L 177.463036 54.561659 
L 177.517111 53.508287 
L 177.642639 53.508287 
L 177.749519 49.821484 
L 177.891015 49.821484 
L 177.891015 49.294798 
L 178.343106 49.294798 
L 178.437256 47.71474 
L 178.547874 47.71474 
L 178.590234 46.134681 
L 178.73349 46.134681 
L 178.73349 44.027937 
L 178.850589 44.027937 
L 178.942047 40.867821 
L 179.221739 40.867821 
L 179.221739 39.814448 
L 179.609115 39.814448 
L 179.609115 39.287762 
L 179.760106 39.287762 
L 179.807517 37.181018 
L 179.878392 37.181018 
L 179.941152 32.440843 
L 180.351324 32.440843 
L 180.351324 31.387471 
L 180.692168 31.387471 
L 180.737115 30.334099 
L 338.688 30.334099 
L 338.688 30.334099 
" style="fill:none;stroke:#ff7500;stroke-linecap:square;stroke-width:1.5;"/>
   </g>
   <g id="line2d_44">
    <defs>
     <path d="M 0 -6 
L -1.347084 -1.854102 
L -5.706339 -1.854102 
L -2.179628 0.708204 
L -3.526712 4.854102 
L -0 2.291796 
L 3.526712 4.854102 
L 2.179628 0.708204 
L 5.706339 -1.854102 
L 1.347084 -1.854102 
z
" id="m9ad9c58282" style="stroke:#ff7500;stroke-linejoin:bevel;stroke-width:1.5;"/>
    </defs>
    <g>
     <use style="fill-opacity:0;stroke:#ff7500;stroke-linejoin:bevel;stroke-width:1.5;" x="159.278248" xlink:href="#m9ad9c58282" y="215.200913"/>
     <use style="fill-opacity:0;stroke:#ff7500;stroke-linejoin:bevel;stroke-width:1.5;" x="173.922314" xlink:href="#m9ad9c58282" y="78.262532"/>
     <use style="fill-opacity:0;stroke:#ff7500;stroke-linejoin:bevel;stroke-width:1.5;" x="180.737115" xlink:href="#m9ad9c58282" y="30.334099"/>
     <use style="fill-opacity:0;stroke:#ff7500;stroke-linejoin:bevel;stroke-width:1.5;" x="180.737115" xlink:href="#m9ad9c58282" y="30.334099"/>
     <use style="fill-opacity:0;stroke:#ff7500;stroke-linejoin:bevel;stroke-width:1.5;" x="338.688" xlink:href="#m9ad9c58282" y="30.334099"/>
    </g>
   </g>
   <g id="line2d_45">
    <path style="fill:none;stroke:#ff7500;stroke-linecap:square;stroke-width:1.5;"/>
    <g/>
   </g>
   <g id="line2d_46">
    <defs>
     <path d="M 0 1.5 
C 0.397805 1.5 0.77937 1.341951 1.06066 1.06066 
C 1.341951 0.77937 1.5 0.397805 1.5 0 
C 1.5 -0.397805 1.341951 -0.77937 1.06066 -1.06066 
C 0.77937 -1.341951 0.397805 -1.5 0 -1.5 
C -0.397805 -1.5 -0.77937 -1.341951 -1.06066 -1.06066 
C -1.341951 -0.77937 -1.5 -0.397805 -1.5 0 
C -1.5 0.397805 -1.341951 0.77937 -1.06066 1.06066 
C -0.77937 1.341951 -0.397805 1.5 0 1.5 
z
" id="m4da77babcc" style="stroke:#6495ed;"/>
    </defs>
    <g>
     <use style="fill:#6495ed;stroke:#6495ed;" x="179.656938" xlink:href="#m4da77babcc" y="30.334099"/>
     <use style="fill:#6495ed;stroke:#6495ed;" x="179.656938" xlink:href="#m4da77babcc" y="30.334099"/>
    </g>
   </g>
   <g id="line2d_47">
    <path d="M 45.512012 298.944 
L 45.512012 298.417314 
L 91.535274 298.417314 
L 91.535274 296.837256 
L 95.918017 296.837256 
L 95.918017 295.783884 
L 99.41757 295.783884 
L 99.41757 293.677139 
L 100.192776 293.677139 
L 100.192776 289.990337 
L 101.646892 289.990337 
L 101.646892 287.356906 
L 102.330873 287.356906 
L 102.330873 286.83022 
L 109.401893 286.83022 
L 109.401893 284.19679 
L 110.274038 284.19679 
L 110.274038 283.670104 
L 112.280765 283.670104 
L 112.280765 283.143418 
L 112.655818 283.143418 
L 112.655818 281.563359 
L 113.382559 281.563359 
L 113.382559 281.036673 
L 114.418861 281.036673 
L 114.418861 280.509987 
L 114.751048 280.509987 
L 114.751048 277.876557 
L 115.397021 277.876557 
L 115.397021 276.823185 
L 118.039942 276.823185 
L 118.039942 275.769812 
L 118.838828 275.769812 
L 118.838828 273.663068 
L 119.097192 273.663068 
L 119.097192 272.609696 
L 119.351785 272.609696 
L 119.351785 271.029638 
L 120.33454 271.029638 
L 120.33454 269.976266 
L 120.571812 269.976266 
L 120.571812 268.396207 
L 121.489881 268.396207 
L 121.489881 267.869521 
L 121.712041 267.869521 
L 121.712041 266.816149 
L 122.148045 266.816149 
L 122.148045 266.289463 
L 123.394238 266.289463 
L 123.394238 265.762777 
L 124.178158 265.762777 
L 124.178158 264.182719 
L 125.470548 264.182719 
L 125.470548 263.656033 
L 125.822869 263.656033 
L 125.822869 261.549288 
L 126.338353 261.549288 
L 126.338353 260.495916 
L 127.325746 260.495916 
L 127.325746 259.96923 
L 128.260216 259.96923 
L 128.260216 258.389172 
L 129.147151 258.389172 
L 129.147151 255.755741 
L 133.689303 255.755741 
L 133.689303 255.229055 
L 134.343353 255.229055 
L 134.343353 253.648997 
L 136.170062 253.648997 
L 136.170062 252.595625 
L 137.107884 252.595625 
L 137.107884 252.068939 
L 137.37967 252.068939 
L 137.469333 251.015567 
L 137.910857 251.015567 
L 137.910857 249.435508 
L 138.341479 249.435508 
L 138.341479 248.908822 
L 138.927025 248.908822 
L 138.927025 248.382136 
L 139.253002 248.382136 
L 139.253002 247.85545 
L 139.652088 247.85545 
L 139.652088 247.328764 
L 140.042245 247.328764 
L 140.042245 246.275392 
L 140.574203 246.275392 
L 140.574203 245.748706 
L 140.79731 245.748706 
L 140.79731 245.22202 
L 141.162927 245.22202 
L 141.162927 244.695334 
L 141.45 244.695334 
L 141.45 243.115275 
L 142.486301 243.115275 
L 142.486301 242.588589 
L 142.818488 242.588589 
L 142.818488 242.061903 
L 143.653678 242.061903 
L 143.653678 241.535217 
L 143.778691 241.535217 
L 143.778691 241.008531 
L 144.209312 241.008531 
L 144.209312 238.375101 
L 145.039911 238.375101 
L 145.039911 237.848415 
L 145.721664 237.848415 
L 145.721664 237.321729 
L 146.052799 237.321729 
L 146.052799 236.795043 
L 146.324022 236.795043 
L 146.324022 236.268356 
L 146.801841 236.268356 
L 146.801841 235.74167 
L 147.061745 235.74167 
L 147.113265 234.161612 
L 147.419225 234.161612 
L 147.52003 232.581554 
L 147.71991 232.581554 
L 147.769524 231.001496 
L 147.917524 231.001496 
L 147.96658 229.948123 
L 149.058374 229.948123 
L 149.15016 228.368065 
L 149.377533 228.368065 
L 149.377533 227.314693 
L 149.512548 227.314693 
L 149.512548 226.261321 
L 149.867558 226.261321 
L 149.911431 223.627891 
L 150.38688 223.627891 
L 150.38688 222.574518 
L 151.300575 222.574518 
L 151.300575 222.047832 
L 152.168773 222.047832 
L 152.168773 219.414402 
L 152.283884 219.414402 
L 152.283884 218.887716 
L 152.436193 218.887716 
L 152.436193 218.36103 
L 153.287059 218.36103 
L 153.287059 217.834344 
L 153.573542 217.834344 
L 153.573542 216.780971 
L 153.855395 216.780971 
L 153.855395 216.254285 
L 154.098334 216.254285 
L 154.098334 215.200913 
L 154.269814 215.200913 
L 154.269814 214.674227 
L 154.473387 214.674227 
L 154.473387 213.620855 
L 154.741174 213.620855 
L 154.741174 213.094169 
L 154.906477 213.094169 
L 154.93935 211.514111 
L 155.264719 211.514111 
L 155.264719 210.987425 
L 155.61575 210.987425 
L 155.61575 210.460738 
L 155.773004 210.460738 
L 155.773004 209.934052 
L 155.897793 209.934052 
L 155.897793 208.88068 
L 156.266892 208.88068 
L 156.357959 207.300622 
L 156.717545 207.300622 
L 156.717545 206.773936 
L 156.835778 206.773936 
L 156.835778 206.24725 
L 156.98245 206.24725 
L 157.069866 204.140506 
L 157.1279 204.140506 
L 157.214591 202.033761 
L 157.329512 202.033761 
L 157.358125 199.927017 
L 157.613546 199.927017 
L 157.669802 197.820273 
L 157.86528 197.820273 
L 157.976006 196.240214 
L 158.003578 196.240214 
L 158.003578 195.713528 
L 158.195371 195.713528 
L 158.195371 195.186842 
L 158.572743 195.186842 
L 158.572743 194.660156 
L 158.811096 194.660156 
L 158.863624 192.553412 
L 158.994256 192.553412 
L 159.098062 189.393295 
L 159.123917 189.393295 
L 159.226956 187.286551 
L 159.278248 187.286551 
L 159.278248 186.759865 
L 159.532469 186.759865 
L 159.582872 185.706493 
L 159.683242 185.706493 
L 159.683242 183.599748 
L 159.832723 183.599748 
L 159.832723 183.073062 
L 160.273627 183.073062 
L 160.273627 180.966318 
L 160.489968 180.966318 
L 160.489968 180.439632 
L 160.86807 180.439632 
L 160.86807 178.859574 
L 161.26102 178.859574 
L 161.26102 178.332888 
L 161.756743 178.332888 
L 161.756743 177.279515 
L 161.88953 177.279515 
L 161.977497 175.699457 
L 162.021314 175.699457 
L 162.086834 173.592713 
L 162.19549 173.592713 
L 162.238764 172.012655 
L 162.432178 172.012655 
L 162.517456 169.90591 
L 162.581141 169.90591 
L 162.581141 169.379224 
L 162.896128 169.379224 
L 162.958448 168.325852 
L 163.082425 168.325852 
L 163.082425 167.799166 
L 163.368321 167.799166 
L 163.368321 167.27248 
L 163.549667 167.27248 
L 163.609699 165.692422 
L 164.102088 165.692422 
L 164.121498 163.058991 
L 164.333587 163.058991 
L 164.333587 162.532305 
L 164.580957 162.532305 
L 164.637547 161.478933 
L 164.731458 161.478933 
L 164.787563 160.425561 
L 164.843488 160.425561 
L 164.843488 159.898875 
L 165.010195 159.898875 
L 165.083779 157.79213 
L 165.284547 157.79213 
L 165.356985 155.685386 
L 165.59035 155.685386 
L 165.59035 154.105328 
L 166.117256 154.105328 
L 166.117256 153.578642 
L 166.289413 153.578642 
L 166.391896 152.52527 
L 166.408919 152.52527 
L 166.510705 150.418525 
L 166.544502 150.418525 
L 166.561376 148.838467 
L 166.679039 148.838467 
L 166.679039 148.311781 
L 166.895472 148.311781 
L 166.96153 146.731723 
L 167.043752 146.731723 
L 167.076532 145.151665 
L 167.190782 145.151665 
L 167.207042 142.518234 
L 167.336582 142.518234 
L 167.43311 138.831432 
L 167.449146 138.831432 
L 167.497166 137.251373 
L 167.576907 137.251373 
L 167.656285 135.671315 
L 167.719528 135.671315 
L 167.813965 131.984513 
L 167.907893 131.984513 
L 167.954668 129.877768 
L 168.047843 129.877768 
L 168.047843 129.351082 
L 168.18668 129.351082 
L 168.278627 125.137593 
L 168.370092 125.137593 
L 168.46108 124.084221 
L 168.551595 124.084221 
L 168.641643 122.504163 
L 168.731229 122.504163 
L 168.805533 119.870733 
L 168.909031 119.870733 
L 168.909031 117.763988 
L 169.026567 117.763988 
L 169.085039 116.710616 
L 169.172381 116.710616 
L 169.259288 113.5505 
L 169.51744 113.5505 
L 169.53167 111.970441 
L 169.659223 111.970441 
L 169.743743 108.283639 
L 169.813865 108.283639 
L 169.813865 106.703581 
L 170.008719 106.703581 
L 170.077786 100.910034 
L 170.351349 100.910034 
L 170.351349 100.383348 
L 170.51345 100.383348 
L 170.553741 98.803289 
L 170.687376 98.803289 
L 170.687376 98.276603 
L 170.912232 98.276603 
L 171.017051 97.223231 
L 171.069226 97.223231 
L 171.147196 95.116487 
L 171.18605 95.116487 
L 171.250617 91.429684 
L 171.327782 91.429684 
L 171.404607 87.742882 
L 171.455636 87.742882 
L 171.455636 85.636137 
L 171.83367 85.636137 
L 171.920711 82.476021 
L 171.994974 82.476021 
L 171.994974 81.949335 
L 172.203683 81.949335 
L 172.203683 81.422649 
L 172.349517 81.422649 
L 172.349517 79.842591 
L 172.470121 79.842591 
L 172.518131 78.262532 
L 172.708856 78.262532 
L 172.779844 76.155788 
L 172.850543 76.155788 
L 172.850543 75.629102 
L 172.991089 75.629102 
L 173.09576 72.468985 
L 173.222844 72.468985 
L 173.280304 69.308869 
L 173.406055 69.308869 
L 173.474266 66.148752 
L 173.530906 66.148752 
L 173.598631 64.568694 
L 173.677313 64.568694 
L 173.677313 64.042008 
L 173.83362 64.042008 
L 173.944417 57.721775 
L 173.955458 57.721775 
L 174.065485 56.668403 
L 174.207491 56.668403 
L 174.207491 54.561659 
L 174.509477 54.561659 
L 174.509477 54.034973 
L 174.658532 54.034973 
L 174.732584 51.928228 
L 174.785287 51.928228 
L 174.869281 50.34817 
L 174.942445 50.34817 
L 174.994519 48.241426 
L 175.077514 48.241426 
L 175.170413 46.134681 
L 175.252577 46.134681 
L 175.334356 44.027937 
L 175.647675 44.027937 
L 175.647675 43.501251 
L 175.866664 43.501251 
L 175.866664 41.921193 
L 176.131719 41.921193 
L 176.131719 40.867821 
L 176.52666 40.867821 
L 176.52666 39.814448 
L 176.977944 39.814448 
L 176.977944 39.287762 
L 177.107399 39.287762 
L 177.171768 37.707704 
L 177.417845 37.707704 
L 177.499105 36.127646 
L 177.79386 36.127646 
L 177.855749 35.074274 
L 178.420176 35.074274 
L 178.420176 34.547588 
L 178.590234 34.547588 
L 178.624047 33.494215 
L 178.875579 33.494215 
L 178.875579 32.967529 
L 179.303155 32.967529 
L 179.327506 31.914157 
L 179.464856 31.914157 
L 179.464856 31.387471 
L 179.656938 31.387471 
L 179.656938 30.334099 
L 338.688 30.334099 
L 338.688 30.334099 
" style="fill:none;stroke:#6495ed;stroke-linecap:square;stroke-width:1.5;"/>
   </g>
   <g id="line2d_48">
    <defs>
     <path d="M -0 6 
L 6 -6 
L -6 -6 
z
" id="m130d0cba56" style="stroke:#6495ed;stroke-linejoin:miter;stroke-width:1.5;"/>
    </defs>
    <g>
     <use style="fill-opacity:0;stroke:#6495ed;stroke-linejoin:miter;stroke-width:1.5;" x="119.351785" xlink:href="#m130d0cba56" y="272.609696"/>
     <use style="fill-opacity:0;stroke:#6495ed;stroke-linejoin:miter;stroke-width:1.5;" x="159.582872" xlink:href="#m130d0cba56" y="186.233179"/>
     <use style="fill-opacity:0;stroke:#6495ed;stroke-linejoin:miter;stroke-width:1.5;" x="179.656938" xlink:href="#m130d0cba56" y="31.387471"/>
     <use style="fill-opacity:0;stroke:#6495ed;stroke-linejoin:miter;stroke-width:1.5;" x="179.656938" xlink:href="#m130d0cba56" y="30.334099"/>
     <use style="fill-opacity:0;stroke:#6495ed;stroke-linejoin:miter;stroke-width:1.5;" x="179.656938" xlink:href="#m130d0cba56" y="30.334099"/>
     <use style="fill-opacity:0;stroke:#6495ed;stroke-linejoin:miter;stroke-width:1.5;" x="338.688" xlink:href="#m130d0cba56" y="30.334099"/>
    </g>
   </g>
   <g id="line2d_49">
    <path style="fill:none;stroke:#6495ed;stroke-linecap:square;stroke-width:1.5;"/>
    <g/>
   </g>
   <g id="line2d_50">
    <path d="M 338.688 30.334099 
L 369.60768 293.571802 
" style="fill:none;stroke:#ff00ff;stroke-linecap:square;stroke-width:1.5;"/>
    <g>
     <use style="fill-opacity:0;stroke:#ff00ff;stroke-linejoin:miter;stroke-width:1.5;" x="338.688" xlink:href="#mb638fd06dc" y="30.334099"/>
     <use style="fill-opacity:0;stroke:#ff00ff;stroke-linejoin:miter;stroke-width:1.5;" x="369.60768" xlink:href="#mb638fd06dc" y="293.571802"/>
    </g>
   </g>
   <g id="line2d_51">
    <path d="M 338.688 30.334099 
L 369.60768 229.105426 
" style="fill:none;stroke:#ff7500;stroke-linecap:square;stroke-width:1.5;"/>
    <g>
     <use style="fill-opacity:0;stroke:#ff7500;stroke-linejoin:bevel;stroke-width:1.5;" x="338.688" xlink:href="#m9ad9c58282" y="30.334099"/>
     <use style="fill-opacity:0;stroke:#ff7500;stroke-linejoin:bevel;stroke-width:1.5;" x="369.60768" xlink:href="#m9ad9c58282" y="229.105426"/>
    </g>
   </g>
   <g id="line2d_52">
    <path d="M 338.688 30.334099 
L 369.60768 164.63905 
" style="fill:none;stroke:#000080;stroke-linecap:square;stroke-width:1.5;"/>
    <g>
     <use style="fill-opacity:0;stroke:#000080;stroke-width:1.5;" x="338.688" xlink:href="#madf794ab6a" y="30.334099"/>
     <use style="fill-opacity:0;stroke:#000080;stroke-width:1.5;" x="369.60768" xlink:href="#madf794ab6a" y="164.63905"/>
    </g>
   </g>
   <g id="line2d_53">
    <path d="M 338.688 30.334099 
L 369.60768 100.172673 
" style="fill:none;stroke:#6495ed;stroke-linecap:square;stroke-width:1.5;"/>
    <g>
     <use style="fill-opacity:0;stroke:#6495ed;stroke-linejoin:miter;stroke-width:1.5;" x="338.688" xlink:href="#m130d0cba56" y="30.334099"/>
     <use style="fill-opacity:0;stroke:#6495ed;stroke-linejoin:miter;stroke-width:1.5;" x="369.60768" xlink:href="#m130d0cba56" y="100.172673"/>
    </g>
   </g>
   <g id="line2d_54">
    <path d="M 338.688 298.944 
L 338.688 30.334099 
" style="fill:none;stroke:#000000;stroke-linecap:square;stroke-width:1.5;"/>
   </g>
   <g id="patch_3">
    <path d="M 57.6 298.944 
L 57.6 27.648 
" style="fill:none;stroke:#000000;stroke-linecap:square;stroke-linejoin:miter;stroke-width:0.8;"/>
   </g>
   <g id="patch_4">
    <path d="M 338.688 298.944 
L 338.688 27.648 
" style="fill:none;stroke:#000000;stroke-linecap:square;stroke-linejoin:miter;stroke-width:0.8;"/>
   </g>
   <g id="patch_5">
    <path d="M 57.6 298.944 
L 338.688 298.944 
" style="fill:none;stroke:#000000;stroke-linecap:square;stroke-linejoin:miter;stroke-width:0.8;"/>
   </g>
   <g id="patch_6">
    <path d="M 57.6 27.648 
L 338.688 27.648 
" style="fill:none;stroke:#000000;stroke-linecap:square;stroke-linejoin:miter;stroke-width:0.8;"/>
   </g>
   <g id="text_13">
    <!-- maes mid -->
    <g transform="translate(375.22944 298.262739)scale(0.17 -0.17)">
     <use xlink:href="#DejaVuSans-109"/>
     <use x="97.412109" xlink:href="#DejaVuSans-97"/>
     <use x="158.691406" xlink:href="#DejaVuSans-101"/>
     <use x="220.214844" xlink:href="#DejaVuSans-115"/>
     <use x="272.314453" xlink:href="#DejaVuSans-32"/>
     <use x="304.101562" xlink:href="#DejaVuSans-109"/>
     <use x="401.513672" xlink:href="#DejaVuSans-105"/>
     <use x="429.296875" xlink:href="#DejaVuSans-100"/>
    </g>
   </g>
   <g id="text_14">
    <!-- maes stp -->
    <g transform="translate(375.22944 233.796363)scale(0.17 -0.17)">
     <use xlink:href="#DejaVuSans-109"/>
     <use x="97.412109" xlink:href="#DejaVuSans-97"/>
     <use x="158.691406" xlink:href="#DejaVuSans-101"/>
     <use x="220.214844" xlink:href="#DejaVuSans-115"/>
     <use x="272.314453" xlink:href="#DejaVuSans-32"/>
     <use x="304.101562" xlink:href="#DejaVuSans-115"/>
     <use x="356.201172" xlink:href="#DejaVuSans-116"/>
     <use x="395.410156" xlink:href="#DejaVuSans-112"/>
    </g>
   </g>
   <g id="text_15">
    <!-- maes -->
    <g transform="translate(375.22944 169.329987)scale(0.17 -0.17)">
     <use xlink:href="#DejaVuSans-109"/>
     <use x="97.412109" xlink:href="#DejaVuSans-97"/>
     <use x="158.691406" xlink:href="#DejaVuSans-101"/>
     <use x="220.214844" xlink:href="#DejaVuSans-115"/>
    </g>
   </g>
   <g id="text_16">
    <!-- maes red -->
    <g transform="translate(375.22944 104.863611)scale(0.17 -0.17)">
     <use xlink:href="#DejaVuSans-109"/>
     <use x="97.412109" xlink:href="#DejaVuSans-97"/>
     <use x="158.691406" xlink:href="#DejaVuSans-101"/>
     <use x="220.214844" xlink:href="#DejaVuSans-115"/>
     <use x="272.314453" xlink:href="#DejaVuSans-32"/>
     <use x="304.101562" xlink:href="#DejaVuSans-114"/>
     <use x="342.964844" xlink:href="#DejaVuSans-101"/>
     <use x="404.488281" xlink:href="#DejaVuSans-100"/>
    </g>
   </g>
   <g id="text_17">
    <!-- best 2009 -->
    <g transform="translate(375.22944 40.397235)scale(0.17 -0.17)">
     <defs>
      <path d="M 48.6875 27.296875 
Q 48.6875 37.203125 44.609375 42.84375 
Q 40.53125 48.484375 33.40625 48.484375 
Q 26.265625 48.484375 22.1875 42.84375 
Q 18.109375 37.203125 18.109375 27.296875 
Q 18.109375 17.390625 22.1875 11.75 
Q 26.265625 6.109375 33.40625 6.109375 
Q 40.53125 6.109375 44.609375 11.75 
Q 48.6875 17.390625 48.6875 27.296875 
z
M 18.109375 46.390625 
Q 20.953125 51.265625 25.265625 53.625 
Q 29.59375 56 35.59375 56 
Q 45.5625 56 51.78125 48.09375 
Q 58.015625 40.1875 58.015625 27.296875 
Q 58.015625 14.40625 51.78125 6.484375 
Q 45.5625 -1.421875 35.59375 -1.421875 
Q 29.59375 -1.421875 25.265625 0.953125 
Q 20.953125 3.328125 18.109375 8.203125 
L 18.109375 0 
L 9.078125 0 
L 9.078125 75.984375 
L 18.109375 75.984375 
z
" id="DejaVuSans-98"/>
      <path d="M 10.984375 1.515625 
L 10.984375 10.5 
Q 14.703125 8.734375 18.5 7.8125 
Q 22.3125 6.890625 25.984375 6.890625 
Q 35.75 6.890625 40.890625 13.453125 
Q 46.046875 20.015625 46.78125 33.40625 
Q 43.953125 29.203125 39.59375 26.953125 
Q 35.25 24.703125 29.984375 24.703125 
Q 19.046875 24.703125 12.671875 31.3125 
Q 6.296875 37.9375 6.296875 49.421875 
Q 6.296875 60.640625 12.9375 67.421875 
Q 19.578125 74.21875 30.609375 74.21875 
Q 43.265625 74.21875 49.921875 64.515625 
Q 56.59375 54.828125 56.59375 36.375 
Q 56.59375 19.140625 48.40625 8.859375 
Q 40.234375 -1.421875 26.421875 -1.421875 
Q 22.703125 -1.421875 18.890625 -0.6875 
Q 15.09375 0.046875 10.984375 1.515625 
z
M 30.609375 32.421875 
Q 37.25 32.421875 41.125 36.953125 
Q 45.015625 41.5 45.015625 49.421875 
Q 45.015625 57.28125 41.125 61.84375 
Q 37.25 66.40625 30.609375 66.40625 
Q 23.96875 66.40625 20.09375 61.84375 
Q 16.21875 57.28125 16.21875 49.421875 
Q 16.21875 41.5 20.09375 36.953125 
Q 23.96875 32.421875 30.609375 32.421875 
z
" id="DejaVuSans-57"/>
     </defs>
     <use xlink:href="#DejaVuSans-98"/>
     <use x="63.476562" xlink:href="#DejaVuSans-101"/>
     <use x="125" xlink:href="#DejaVuSans-115"/>
     <use x="177.099609" xlink:href="#DejaVuSans-116"/>
     <use x="216.308594" xlink:href="#DejaVuSans-32"/>
     <use x="248.095703" xlink:href="#DejaVuSans-50"/>
     <use x="311.71875" xlink:href="#DejaVuSans-48"/>
     <use x="375.341797" xlink:href="#DejaVuSans-48"/>
     <use x="438.964844" xlink:href="#DejaVuSans-57"/>
    </g>
   </g>
   <g id="text_18">
    <!-- bbob f13, 2-D -->
    <g transform="translate(60.41088 38.111366)scale(0.102 -0.102)">
     <defs>
      <path d="M 40.578125 39.3125 
Q 47.65625 37.796875 51.625 33 
Q 55.609375 28.21875 55.609375 21.1875 
Q 55.609375 10.40625 48.1875 4.484375 
Q 40.765625 -1.421875 27.09375 -1.421875 
Q 22.515625 -1.421875 17.65625 -0.515625 
Q 12.796875 0.390625 7.625 2.203125 
L 7.625 11.71875 
Q 11.71875 9.328125 16.59375 8.109375 
Q 21.484375 6.890625 26.8125 6.890625 
Q 36.078125 6.890625 40.9375 10.546875 
Q 45.796875 14.203125 45.796875 21.1875 
Q 45.796875 27.640625 41.28125 31.265625 
Q 36.765625 34.90625 28.71875 34.90625 
L 20.21875 34.90625 
L 20.21875 43.015625 
L 29.109375 43.015625 
Q 36.375 43.015625 40.234375 45.921875 
Q 44.09375 48.828125 44.09375 54.296875 
Q 44.09375 59.90625 40.109375 62.90625 
Q 36.140625 65.921875 28.71875 65.921875 
Q 24.65625 65.921875 20.015625 65.03125 
Q 15.375 64.15625 9.8125 62.3125 
L 9.8125 71.09375 
Q 15.4375 72.65625 20.34375 73.4375 
Q 25.25 74.21875 29.59375 74.21875 
Q 40.828125 74.21875 47.359375 69.109375 
Q 53.90625 64.015625 53.90625 55.328125 
Q 53.90625 49.265625 50.4375 45.09375 
Q 46.96875 40.921875 40.578125 39.3125 
z
" id="DejaVuSans-51"/>
      <path d="M 19.671875 64.796875 
L 19.671875 8.109375 
L 31.59375 8.109375 
Q 46.6875 8.109375 53.6875 14.9375 
Q 60.6875 21.78125 60.6875 36.53125 
Q 60.6875 51.171875 53.6875 57.984375 
Q 46.6875 64.796875 31.59375 64.796875 
z
M 9.8125 72.90625 
L 30.078125 72.90625 
Q 51.265625 72.90625 61.171875 64.09375 
Q 71.09375 55.28125 71.09375 36.53125 
Q 71.09375 17.671875 61.125 8.828125 
Q 51.171875 0 30.078125 0 
L 9.8125 0 
z
" id="DejaVuSans-68"/>
     </defs>
     <use xlink:href="#DejaVuSans-98"/>
     <use x="63.476562" xlink:href="#DejaVuSans-98"/>
     <use x="126.953125" xlink:href="#DejaVuSans-111"/>
     <use x="188.134766" xlink:href="#DejaVuSans-98"/>
     <use x="251.611328" xlink:href="#DejaVuSans-32"/>
     <use x="283.398438" xlink:href="#DejaVuSans-102"/>
     <use x="318.603516" xlink:href="#DejaVuSans-49"/>
     <use x="382.226562" xlink:href="#DejaVuSans-51"/>
     <use x="445.849609" xlink:href="#DejaVuSans-44"/>
     <use x="477.636719" xlink:href="#DejaVuSans-32"/>
     <use x="509.423828" xlink:href="#DejaVuSans-50"/>
     <use x="573.046875" xlink:href="#DejaVuSans-45"/>
     <use x="609.130859" xlink:href="#DejaVuSans-68"/>
    </g>
    <!-- 51 targets: 100..1e-08 -->
    <g transform="translate(60.41088 49.533135)scale(0.102 -0.102)">
     <defs>
      <path d="M 10.796875 72.90625 
L 49.515625 72.90625 
L 49.515625 64.59375 
L 19.828125 64.59375 
L 19.828125 46.734375 
Q 21.96875 47.46875 24.109375 47.828125 
Q 26.265625 48.1875 28.421875 48.1875 
Q 40.625 48.1875 47.75 41.5 
Q 54.890625 34.8125 54.890625 23.390625 
Q 54.890625 11.625 47.5625 5.09375 
Q 40.234375 -1.421875 26.90625 -1.421875 
Q 22.3125 -1.421875 17.546875 -0.640625 
Q 12.796875 0.140625 7.71875 1.703125 
L 7.71875 11.625 
Q 12.109375 9.234375 16.796875 8.0625 
Q 21.484375 6.890625 26.703125 6.890625 
Q 35.15625 6.890625 40.078125 11.328125 
Q 45.015625 15.765625 45.015625 23.390625 
Q 45.015625 31 40.078125 35.4375 
Q 35.15625 39.890625 26.703125 39.890625 
Q 22.75 39.890625 18.8125 39.015625 
Q 14.890625 38.140625 10.796875 36.28125 
z
" id="DejaVuSans-53"/>
      <path d="M 11.71875 12.40625 
L 22.015625 12.40625 
L 22.015625 0 
L 11.71875 0 
z
M 11.71875 51.703125 
L 22.015625 51.703125 
L 22.015625 39.3125 
L 11.71875 39.3125 
z
" id="DejaVuSans-58"/>
     </defs>
     <use xlink:href="#DejaVuSans-53"/>
     <use x="63.623047" xlink:href="#DejaVuSans-49"/>
     <use x="127.246094" xlink:href="#DejaVuSans-32"/>
     <use x="159.033203" xlink:href="#DejaVuSans-116"/>
     <use x="198.242188" xlink:href="#DejaVuSans-97"/>
     <use x="259.521484" xlink:href="#DejaVuSans-114"/>
     <use x="298.884766" xlink:href="#DejaVuSans-103"/>
     <use x="362.361328" xlink:href="#DejaVuSans-101"/>
     <use x="423.884766" xlink:href="#DejaVuSans-116"/>
     <use x="463.09375" xlink:href="#DejaVuSans-115"/>
     <use x="515.193359" xlink:href="#DejaVuSans-58"/>
     <use x="548.884766" xlink:href="#DejaVuSans-32"/>
     <use x="580.671875" xlink:href="#DejaVuSans-49"/>
     <use x="644.294922" xlink:href="#DejaVuSans-48"/>
     <use x="707.917969" xlink:href="#DejaVuSans-48"/>
     <use x="771.541016" xlink:href="#DejaVuSans-46"/>
     <use x="803.328125" xlink:href="#DejaVuSans-46"/>
     <use x="835.115234" xlink:href="#DejaVuSans-49"/>
     <use x="898.738281" xlink:href="#DejaVuSans-101"/>
     <use x="960.261719" xlink:href="#DejaVuSans-45"/>
     <use x="996.345703" xlink:href="#DejaVuSans-48"/>
     <use x="1059.96875" xlink:href="#DejaVuSans-56"/>
    </g>
    <!-- 15 instances -->
    <g transform="translate(60.41088 60.954904)scale(0.102 -0.102)">
     <use xlink:href="#DejaVuSans-49"/>
     <use x="63.623047" xlink:href="#DejaVuSans-53"/>
     <use x="127.246094" xlink:href="#DejaVuSans-32"/>
     <use x="159.033203" xlink:href="#DejaVuSans-105"/>
     <use x="186.816406" xlink:href="#DejaVuSans-110"/>
     <use x="250.195312" xlink:href="#DejaVuSans-115"/>
     <use x="302.294922" xlink:href="#DejaVuSans-116"/>
     <use x="341.503906" xlink:href="#DejaVuSans-97"/>
     <use x="402.783203" xlink:href="#DejaVuSans-110"/>
     <use x="466.162109" xlink:href="#DejaVuSans-99"/>
     <use x="521.142578" xlink:href="#DejaVuSans-101"/>
     <use x="582.666016" xlink:href="#DejaVuSans-115"/>
    </g>
   </g>
   <g id="text_19">
    <!-- v2.4 -->
    <g style="fill:#808080;" transform="translate(187.233062 294.151352)scale(0.1 -0.1)">
     <use xlink:href="#DejaVuSans-118"/>
     <use x="59.179688" xlink:href="#DejaVuSans-50"/>
     <use x="122.802734" xlink:href="#DejaVuSans-46"/>
     <use x="154.589844" xlink:href="#DejaVuSans-52"/>
    </g>
   </g>
   <g id="text_20">
    <!-- 13 Sharp ridge -->
    <g transform="translate(124.05025 21.648)scale(0.2 -0.2)">
     <defs>
      <path d="M 53.515625 70.515625 
L 53.515625 60.890625 
Q 47.90625 63.578125 42.921875 64.890625 
Q 37.9375 66.21875 33.296875 66.21875 
Q 25.25 66.21875 20.875 63.09375 
Q 16.5 59.96875 16.5 54.203125 
Q 16.5 49.359375 19.40625 46.890625 
Q 22.3125 44.4375 30.421875 42.921875 
L 36.375 41.703125 
Q 47.40625 39.59375 52.65625 34.296875 
Q 57.90625 29 57.90625 20.125 
Q 57.90625 9.515625 50.796875 4.046875 
Q 43.703125 -1.421875 29.984375 -1.421875 
Q 24.8125 -1.421875 18.96875 -0.25 
Q 13.140625 0.921875 6.890625 3.21875 
L 6.890625 13.375 
Q 12.890625 10.015625 18.65625 8.296875 
Q 24.421875 6.59375 29.984375 6.59375 
Q 38.421875 6.59375 43.015625 9.90625 
Q 47.609375 13.234375 47.609375 19.390625 
Q 47.609375 24.75 44.3125 27.78125 
Q 41.015625 30.8125 33.5 32.328125 
L 27.484375 33.5 
Q 16.453125 35.6875 11.515625 40.375 
Q 6.59375 45.0625 6.59375 53.421875 
Q 6.59375 63.09375 13.40625 68.65625 
Q 20.21875 74.21875 32.171875 74.21875 
Q 37.3125 74.21875 42.625 73.28125 
Q 47.953125 72.359375 53.515625 70.515625 
z
" id="DejaVuSans-83"/>
      <path d="M 54.890625 33.015625 
L 54.890625 0 
L 45.90625 0 
L 45.90625 32.71875 
Q 45.90625 40.484375 42.875 44.328125 
Q 39.84375 48.1875 33.796875 48.1875 
Q 26.515625 48.1875 22.3125 43.546875 
Q 18.109375 38.921875 18.109375 30.90625 
L 18.109375 0 
L 9.078125 0 
L 9.078125 75.984375 
L 18.109375 75.984375 
L 18.109375 46.1875 
Q 21.34375 51.125 25.703125 53.5625 
Q 30.078125 56 35.796875 56 
Q 45.21875 56 50.046875 50.171875 
Q 54.890625 44.34375 54.890625 33.015625 
z
" id="DejaVuSans-104"/>
     </defs>
     <use xlink:href="#DejaVuSans-49"/>
     <use x="63.623047" xlink:href="#DejaVuSans-51"/>
     <use x="127.246094" xlink:href="#DejaVuSans-32"/>
     <use x="159.033203" xlink:href="#DejaVuSans-83"/>
     <use x="222.509766" xlink:href="#DejaVuSans-104"/>
     <use x="285.888672" xlink:href="#DejaVuSans-97"/>
     <use x="347.167969" xlink:href="#DejaVuSans-114"/>
     <use x="388.28125" xlink:href="#DejaVuSans-112"/>
     <use x="451.757812" xlink:href="#DejaVuSans-32"/>
     <use x="483.544922" xlink:href="#DejaVuSans-114"/>
     <use x="524.658203" xlink:href="#DejaVuSans-105"/>
     <use x="552.441406" xlink:href="#DejaVuSans-100"/>
     <use x="615.917969" xlink:href="#DejaVuSans-103"/>
     <use x="679.394531" xlink:href="#DejaVuSans-101"/>
    </g>
   </g>
  </g>
 </g>
 <defs>
  <clipPath id="pfccd461dc4">
   <rect height="271.296" width="281.088" x="57.6" y="27.648"/>
  </clipPath>
 </defs>
</svg>
