<?xml version="1.0" encoding="utf-8" standalone="no"?>
<!DOCTYPE svg PUBLIC "-//W3C//DTD SVG 1.1//EN"
  "http://www.w3.org/Graphics/SVG/1.1/DTD/svg11.dtd">
<!-- Created with matplotlib (https://matplotlib.org/) -->
<svg height="345.6pt" version="1.1" viewBox="0 0 460.8 345.6" width="460.8pt" xmlns="http://www.w3.org/2000/svg" xmlns:xlink="http://www.w3.org/1999/xlink">
 <metadata>
  <rdf:RDF xmlns:cc="http://creativecommons.org/ns#" xmlns:dc="http://purl.org/dc/elements/1.1/" xmlns:rdf="http://www.w3.org/1999/02/22-rdf-syntax-ns#">
   <cc:Work>
    <dc:type rdf:resource="http://purl.org/dc/dcmitype/StillImage"/>
    <dc:date>2021-06-17T01:40:23.471603</dc:date>
    <dc:format>image/svg+xml</dc:format>
    <dc:creator>
     <cc:Agent>
      <dc:title>Matplotlib v3.3.4, https://matplotlib.org/</dc:title>
     </cc:Agent>
    </dc:creator>
   </cc:Work>
  </rdf:RDF>
 </metadata>
 <defs>
  <style type="text/css">*{stroke-linecap:butt;stroke-linejoin:round;}</style>
 </defs>
 <g id="figure_1">
  <g id="patch_1">
   <path d="M 0 345.6 
L 460.8 345.6 
L 460.8 0 
L 0 0 
z
" style="fill:#ffffff;"/>
  </g>
  <g id="axes_1">
   <g id="patch_2">
    <path d="M 57.6 298.944 
L 338.688 298.944 
L 338.688 27.648 
L 57.6 27.648 
z
" style="fill:#ffffff;"/>
   </g>
   <g id="line2d_1">
    <path d="M 85.66744 298.944 
L 85.66744 293.677139 
L 86.792945 293.677139 
L 86.792945 288.410278 
L 88.846997 288.410278 
L 88.846997 283.143418 
L 90.684409 283.143418 
L 90.684409 277.876557 
L 93.863965 277.876557 
L 93.863965 272.609696 
L 95.918017 272.609696 
L 95.918017 267.342835 
L 98.32726 267.342835 
L 98.32726 251.542253 
L 102.772397 251.542253 
L 102.772397 246.275392 
L 104.826449 246.275392 
L 104.826449 241.008531 
L 121.036887 241.008531 
L 121.036887 235.74167 
L 123.056911 235.74167 
L 123.056911 230.47481 
L 124.114161 230.47481 
L 124.114161 225.207949 
L 125.23165 225.207949 
L 125.23165 219.941088 
L 126.053856 219.941088 
L 126.053856 214.674227 
L 126.839037 214.674227 
L 126.839037 209.407366 
L 127.48501 209.407366 
L 127.48501 204.140506 
L 128.107907 204.140506 
L 128.107907 198.873645 
L 128.511146 198.873645 
L 128.511146 193.606784 
L 128.905271 193.606784 
L 128.905271 188.339923 
L 129.195127 188.339923 
L 129.195127 183.073062 
L 129.290685 183.073062 
L 129.290685 177.806202 
L 129.574256 177.806202 
L 129.574256 167.27248 
L 129.760775 167.27248 
L 129.760775 162.005619 
L 129.853291 162.005619 
L 129.853291 156.738758 
L 130.036864 156.738758 
L 130.036864 151.471897 
L 130.127931 151.471897 
L 130.127931 146.205037 
L 130.30865 146.205037 
L 130.30865 140.938176 
L 130.398313 140.938176 
L 130.398313 130.404454 
L 130.487516 130.404454 
L 130.487516 125.137593 
L 130.576266 125.137593 
L 130.576266 114.603872 
L 130.664567 114.603872 
L 130.664567 104.07015 
L 130.926816 104.07015 
L 130.926816 93.536429 
L 131.013364 93.536429 
L 131.013364 88.269568 
L 131.099484 88.269568 
L 131.099484 83.002707 
L 131.185181 83.002707 
L 131.185181 77.735846 
L 131.270459 77.735846 
L 131.270459 72.468985 
L 131.523818 72.468985 
L 131.523818 56.668403 
L 131.60746 56.668403 
L 131.60746 40.867821 
L 131.690703 40.867821 
L 131.690703 30.334099 
L 338.688 30.334099 
" style="fill:none;stroke:#f5deb3;stroke-linecap:square;stroke-width:4;"/>
   </g>
   <g id="line2d_2">
    <defs>
     <path d="M -0 7.778175 
L 7.778175 0 
L 0 -7.778175 
L -7.778175 -0 
z
" id="m43e6686973" style="stroke:#f5deb3;stroke-linejoin:miter;stroke-width:1.5;"/>
    </defs>
    <g>
     <use style="fill:#f5deb3;stroke:#f5deb3;stroke-linejoin:miter;stroke-width:1.5;" x="130.576266" xlink:href="#m43e6686973" y="125.137593"/>
     <use style="fill:#f5deb3;stroke:#f5deb3;stroke-linejoin:miter;stroke-width:1.5;" x="131.690703" xlink:href="#m43e6686973" y="40.867821"/>
     <use style="fill:#f5deb3;stroke:#f5deb3;stroke-linejoin:miter;stroke-width:1.5;" x="131.690703" xlink:href="#m43e6686973" y="30.334099"/>
     <use style="fill:#f5deb3;stroke:#f5deb3;stroke-linejoin:miter;stroke-width:1.5;" x="131.690703" xlink:href="#m43e6686973" y="30.334099"/>
     <use style="fill:#f5deb3;stroke:#f5deb3;stroke-linejoin:miter;stroke-width:1.5;" x="338.688" xlink:href="#m43e6686973" y="30.334099"/>
    </g>
   </g>
   <g id="line2d_3">
    <path style="fill:none;stroke:#f5deb3;stroke-linecap:square;stroke-width:4;"/>
    <g/>
   </g>
   <g id="line2d_4">
    <path d="M 338.688 30.334099 
L 369.60768 35.706297 
" style="fill:none;stroke:#f5deb3;stroke-linecap:square;stroke-width:4;"/>
    <g>
     <use style="fill:#f5deb3;stroke:#f5deb3;stroke-linejoin:miter;stroke-width:1.5;" x="338.688" xlink:href="#m43e6686973" y="30.334099"/>
     <use style="fill:#f5deb3;stroke:#f5deb3;stroke-linejoin:miter;stroke-width:1.5;" x="369.60768" xlink:href="#m43e6686973" y="35.706297"/>
    </g>
   </g>
   <g id="matplotlib.axis_1">
    <g id="xtick_1">
     <g id="line2d_5">
      <path clip-path="url(#p6178ab2f4b)" d="M 57.6 298.944 
L 57.6 27.648 
" style="fill:none;stroke:#b0b0b0;stroke-linecap:square;stroke-width:0.8;"/>
     </g>
     <g id="line2d_6">
      <defs>
       <path d="M 0 0 
L 0 3.5 
" id="m90bf5cf33b" style="stroke:#000000;stroke-width:0.8;"/>
      </defs>
      <g>
       <use style="stroke:#000000;stroke-width:0.8;" x="57.6" xlink:href="#m90bf5cf33b" y="298.944"/>
      </g>
     </g>
     <g id="text_1">
      <!-- 0 -->
      <g transform="translate(51.2375 321.140875)scale(0.2 -0.2)">
       <defs>
        <path d="M 31.78125 66.40625 
Q 24.171875 66.40625 20.328125 58.90625 
Q 16.5 51.421875 16.5 36.375 
Q 16.5 21.390625 20.328125 13.890625 
Q 24.171875 6.390625 31.78125 6.390625 
Q 39.453125 6.390625 43.28125 13.890625 
Q 47.125 21.390625 47.125 36.375 
Q 47.125 51.421875 43.28125 58.90625 
Q 39.453125 66.40625 31.78125 66.40625 
z
M 31.78125 74.21875 
Q 44.046875 74.21875 50.515625 64.515625 
Q 56.984375 54.828125 56.984375 36.375 
Q 56.984375 17.96875 50.515625 8.265625 
Q 44.046875 -1.421875 31.78125 -1.421875 
Q 19.53125 -1.421875 13.0625 8.265625 
Q 6.59375 17.96875 6.59375 36.375 
Q 6.59375 54.828125 13.0625 64.515625 
Q 19.53125 74.21875 31.78125 74.21875 
z
" id="DejaVuSans-48"/>
       </defs>
       <use xlink:href="#DejaVuSans-48"/>
      </g>
     </g>
    </g>
    <g id="xtick_2">
     <g id="line2d_7">
      <path clip-path="url(#p6178ab2f4b)" d="M 137.910857 298.944 
L 137.910857 27.648 
" style="fill:none;stroke:#b0b0b0;stroke-linecap:square;stroke-width:0.8;"/>
     </g>
     <g id="line2d_8">
      <g>
       <use style="stroke:#000000;stroke-width:0.8;" x="137.910857" xlink:href="#m90bf5cf33b" y="298.944"/>
      </g>
     </g>
     <g id="text_2">
      <!-- 2 -->
      <g transform="translate(131.548357 321.140875)scale(0.2 -0.2)">
       <defs>
        <path d="M 19.1875 8.296875 
L 53.609375 8.296875 
L 53.609375 0 
L 7.328125 0 
L 7.328125 8.296875 
Q 12.9375 14.109375 22.625 23.890625 
Q 32.328125 33.6875 34.8125 36.53125 
Q 39.546875 41.84375 41.421875 45.53125 
Q 43.3125 49.21875 43.3125 52.78125 
Q 43.3125 58.59375 39.234375 62.25 
Q 35.15625 65.921875 28.609375 65.921875 
Q 23.96875 65.921875 18.8125 64.3125 
Q 13.671875 62.703125 7.8125 59.421875 
L 7.8125 69.390625 
Q 13.765625 71.78125 18.9375 73 
Q 24.125 74.21875 28.421875 74.21875 
Q 39.75 74.21875 46.484375 68.546875 
Q 53.21875 62.890625 53.21875 53.421875 
Q 53.21875 48.921875 51.53125 44.890625 
Q 49.859375 40.875 45.40625 35.40625 
Q 44.1875 33.984375 37.640625 27.21875 
Q 31.109375 20.453125 19.1875 8.296875 
z
" id="DejaVuSans-50"/>
       </defs>
       <use xlink:href="#DejaVuSans-50"/>
      </g>
     </g>
    </g>
    <g id="xtick_3">
     <g id="line2d_9">
      <path clip-path="url(#p6178ab2f4b)" d="M 218.221714 298.944 
L 218.221714 27.648 
" style="fill:none;stroke:#b0b0b0;stroke-linecap:square;stroke-width:0.8;"/>
     </g>
     <g id="line2d_10">
      <g>
       <use style="stroke:#000000;stroke-width:0.8;" x="218.221714" xlink:href="#m90bf5cf33b" y="298.944"/>
      </g>
     </g>
     <g id="text_3">
      <!-- 4 -->
      <g transform="translate(211.859214 321.140875)scale(0.2 -0.2)">
       <defs>
        <path d="M 37.796875 64.3125 
L 12.890625 25.390625 
L 37.796875 25.390625 
z
M 35.203125 72.90625 
L 47.609375 72.90625 
L 47.609375 25.390625 
L 58.015625 25.390625 
L 58.015625 17.1875 
L 47.609375 17.1875 
L 47.609375 0 
L 37.796875 0 
L 37.796875 17.1875 
L 4.890625 17.1875 
L 4.890625 26.703125 
z
" id="DejaVuSans-52"/>
       </defs>
       <use xlink:href="#DejaVuSans-52"/>
      </g>
     </g>
    </g>
    <g id="xtick_4">
     <g id="line2d_11">
      <path clip-path="url(#p6178ab2f4b)" d="M 298.532571 298.944 
L 298.532571 27.648 
" style="fill:none;stroke:#b0b0b0;stroke-linecap:square;stroke-width:0.8;"/>
     </g>
     <g id="line2d_12">
      <g>
       <use style="stroke:#000000;stroke-width:0.8;" x="298.532571" xlink:href="#m90bf5cf33b" y="298.944"/>
      </g>
     </g>
     <g id="text_4">
      <!-- 6 -->
      <g transform="translate(292.170071 321.140875)scale(0.2 -0.2)">
       <defs>
        <path d="M 33.015625 40.375 
Q 26.375 40.375 22.484375 35.828125 
Q 18.609375 31.296875 18.609375 23.390625 
Q 18.609375 15.53125 22.484375 10.953125 
Q 26.375 6.390625 33.015625 6.390625 
Q 39.65625 6.390625 43.53125 10.953125 
Q 47.40625 15.53125 47.40625 23.390625 
Q 47.40625 31.296875 43.53125 35.828125 
Q 39.65625 40.375 33.015625 40.375 
z
M 52.59375 71.296875 
L 52.59375 62.3125 
Q 48.875 64.0625 45.09375 64.984375 
Q 41.3125 65.921875 37.59375 65.921875 
Q 27.828125 65.921875 22.671875 59.328125 
Q 17.53125 52.734375 16.796875 39.40625 
Q 19.671875 43.65625 24.015625 45.921875 
Q 28.375 48.1875 33.59375 48.1875 
Q 44.578125 48.1875 50.953125 41.515625 
Q 57.328125 34.859375 57.328125 23.390625 
Q 57.328125 12.15625 50.6875 5.359375 
Q 44.046875 -1.421875 33.015625 -1.421875 
Q 20.359375 -1.421875 13.671875 8.265625 
Q 6.984375 17.96875 6.984375 36.375 
Q 6.984375 53.65625 15.1875 63.9375 
Q 23.390625 74.21875 37.203125 74.21875 
Q 40.921875 74.21875 44.703125 73.484375 
Q 48.484375 72.75 52.59375 71.296875 
z
" id="DejaVuSans-54"/>
       </defs>
       <use xlink:href="#DejaVuSans-54"/>
      </g>
     </g>
    </g>
    <g id="xtick_5">
     <g id="line2d_13">
      <path clip-path="url(#p6178ab2f4b)" d="M 97.755429 298.944 
L 97.755429 27.648 
" style="fill:none;stroke:#b0b0b0;stroke-linecap:square;stroke-width:0.8;"/>
     </g>
     <g id="line2d_14">
      <defs>
       <path d="M 0 0 
L 0 2 
" id="m9d63022de8" style="stroke:#000000;stroke-width:0.6;"/>
      </defs>
      <g>
       <use style="stroke:#000000;stroke-width:0.6;" x="97.755429" xlink:href="#m9d63022de8" y="298.944"/>
      </g>
     </g>
    </g>
    <g id="xtick_6">
     <g id="line2d_15">
      <path clip-path="url(#p6178ab2f4b)" d="M 178.066286 298.944 
L 178.066286 27.648 
" style="fill:none;stroke:#b0b0b0;stroke-linecap:square;stroke-width:0.8;"/>
     </g>
     <g id="line2d_16">
      <g>
       <use style="stroke:#000000;stroke-width:0.6;" x="178.066286" xlink:href="#m9d63022de8" y="298.944"/>
      </g>
     </g>
    </g>
    <g id="xtick_7">
     <g id="line2d_17">
      <path clip-path="url(#p6178ab2f4b)" d="M 258.377143 298.944 
L 258.377143 27.648 
" style="fill:none;stroke:#b0b0b0;stroke-linecap:square;stroke-width:0.8;"/>
     </g>
     <g id="line2d_18">
      <g>
       <use style="stroke:#000000;stroke-width:0.6;" x="258.377143" xlink:href="#m9d63022de8" y="298.944"/>
      </g>
     </g>
    </g>
    <g id="xtick_8">
     <g id="line2d_19">
      <path clip-path="url(#p6178ab2f4b)" d="M 338.688 298.944 
L 338.688 27.648 
" style="fill:none;stroke:#b0b0b0;stroke-linecap:square;stroke-width:0.8;"/>
     </g>
     <g id="line2d_20">
      <g>
       <use style="stroke:#000000;stroke-width:0.6;" x="338.688" xlink:href="#m9d63022de8" y="298.944"/>
      </g>
     </g>
    </g>
    <g id="text_5">
     <!-- log10(# f-evals / dimension) -->
     <g transform="translate(77.764078 342.217594)scale(0.17 -0.17)">
      <defs>
       <path d="M 9.421875 75.984375 
L 18.40625 75.984375 
L 18.40625 0 
L 9.421875 0 
z
" id="DejaVuSans-108"/>
       <path d="M 30.609375 48.390625 
Q 23.390625 48.390625 19.1875 42.75 
Q 14.984375 37.109375 14.984375 27.296875 
Q 14.984375 17.484375 19.15625 11.84375 
Q 23.34375 6.203125 30.609375 6.203125 
Q 37.796875 6.203125 41.984375 11.859375 
Q 46.1875 17.53125 46.1875 27.296875 
Q 46.1875 37.015625 41.984375 42.703125 
Q 37.796875 48.390625 30.609375 48.390625 
z
M 30.609375 56 
Q 42.328125 56 49.015625 48.375 
Q 55.71875 40.765625 55.71875 27.296875 
Q 55.71875 13.875 49.015625 6.21875 
Q 42.328125 -1.421875 30.609375 -1.421875 
Q 18.84375 -1.421875 12.171875 6.21875 
Q 5.515625 13.875 5.515625 27.296875 
Q 5.515625 40.765625 12.171875 48.375 
Q 18.84375 56 30.609375 56 
z
" id="DejaVuSans-111"/>
       <path d="M 45.40625 27.984375 
Q 45.40625 37.75 41.375 43.109375 
Q 37.359375 48.484375 30.078125 48.484375 
Q 22.859375 48.484375 18.828125 43.109375 
Q 14.796875 37.75 14.796875 27.984375 
Q 14.796875 18.265625 18.828125 12.890625 
Q 22.859375 7.515625 30.078125 7.515625 
Q 37.359375 7.515625 41.375 12.890625 
Q 45.40625 18.265625 45.40625 27.984375 
z
M 54.390625 6.78125 
Q 54.390625 -7.171875 48.1875 -13.984375 
Q 42 -20.796875 29.203125 -20.796875 
Q 24.46875 -20.796875 20.265625 -20.09375 
Q 16.0625 -19.390625 12.109375 -17.921875 
L 12.109375 -9.1875 
Q 16.0625 -11.328125 19.921875 -12.34375 
Q 23.78125 -13.375 27.78125 -13.375 
Q 36.625 -13.375 41.015625 -8.765625 
Q 45.40625 -4.15625 45.40625 5.171875 
L 45.40625 9.625 
Q 42.625 4.78125 38.28125 2.390625 
Q 33.9375 0 27.875 0 
Q 17.828125 0 11.671875 7.65625 
Q 5.515625 15.328125 5.515625 27.984375 
Q 5.515625 40.671875 11.671875 48.328125 
Q 17.828125 56 27.875 56 
Q 33.9375 56 38.28125 53.609375 
Q 42.625 51.21875 45.40625 46.390625 
L 45.40625 54.6875 
L 54.390625 54.6875 
z
" id="DejaVuSans-103"/>
       <path d="M 12.40625 8.296875 
L 28.515625 8.296875 
L 28.515625 63.921875 
L 10.984375 60.40625 
L 10.984375 69.390625 
L 28.421875 72.90625 
L 38.28125 72.90625 
L 38.28125 8.296875 
L 54.390625 8.296875 
L 54.390625 0 
L 12.40625 0 
z
" id="DejaVuSans-49"/>
       <path d="M 31 75.875 
Q 24.46875 64.65625 21.28125 53.65625 
Q 18.109375 42.671875 18.109375 31.390625 
Q 18.109375 20.125 21.3125 9.0625 
Q 24.515625 -2 31 -13.1875 
L 23.1875 -13.1875 
Q 15.875 -1.703125 12.234375 9.375 
Q 8.59375 20.453125 8.59375 31.390625 
Q 8.59375 42.28125 12.203125 53.3125 
Q 15.828125 64.359375 23.1875 75.875 
z
" id="DejaVuSans-40"/>
       <path d="M 51.125 44 
L 36.921875 44 
L 32.8125 27.6875 
L 47.125 27.6875 
z
M 43.796875 71.78125 
L 38.71875 51.515625 
L 52.984375 51.515625 
L 58.109375 71.78125 
L 65.921875 71.78125 
L 60.890625 51.515625 
L 76.125 51.515625 
L 76.125 44 
L 58.984375 44 
L 54.984375 27.6875 
L 70.515625 27.6875 
L 70.515625 20.21875 
L 53.078125 20.21875 
L 48 0 
L 40.1875 0 
L 45.21875 20.21875 
L 30.90625 20.21875 
L 25.875 0 
L 18.015625 0 
L 23.09375 20.21875 
L 7.71875 20.21875 
L 7.71875 27.6875 
L 24.90625 27.6875 
L 29 44 
L 13.28125 44 
L 13.28125 51.515625 
L 30.90625 51.515625 
L 35.890625 71.78125 
z
" id="DejaVuSans-35"/>
       <path id="DejaVuSans-32"/>
       <path d="M 37.109375 75.984375 
L 37.109375 68.5 
L 28.515625 68.5 
Q 23.6875 68.5 21.796875 66.546875 
Q 19.921875 64.59375 19.921875 59.515625 
L 19.921875 54.6875 
L 34.71875 54.6875 
L 34.71875 47.703125 
L 19.921875 47.703125 
L 19.921875 0 
L 10.890625 0 
L 10.890625 47.703125 
L 2.296875 47.703125 
L 2.296875 54.6875 
L 10.890625 54.6875 
L 10.890625 58.5 
Q 10.890625 67.625 15.140625 71.796875 
Q 19.390625 75.984375 28.609375 75.984375 
z
" id="DejaVuSans-102"/>
       <path d="M 4.890625 31.390625 
L 31.203125 31.390625 
L 31.203125 23.390625 
L 4.890625 23.390625 
z
" id="DejaVuSans-45"/>
       <path d="M 56.203125 29.59375 
L 56.203125 25.203125 
L 14.890625 25.203125 
Q 15.484375 15.921875 20.484375 11.0625 
Q 25.484375 6.203125 34.421875 6.203125 
Q 39.59375 6.203125 44.453125 7.46875 
Q 49.3125 8.734375 54.109375 11.28125 
L 54.109375 2.78125 
Q 49.265625 0.734375 44.1875 -0.34375 
Q 39.109375 -1.421875 33.890625 -1.421875 
Q 20.796875 -1.421875 13.15625 6.1875 
Q 5.515625 13.8125 5.515625 26.8125 
Q 5.515625 40.234375 12.765625 48.109375 
Q 20.015625 56 32.328125 56 
Q 43.359375 56 49.78125 48.890625 
Q 56.203125 41.796875 56.203125 29.59375 
z
M 47.21875 32.234375 
Q 47.125 39.59375 43.09375 43.984375 
Q 39.0625 48.390625 32.421875 48.390625 
Q 24.90625 48.390625 20.390625 44.140625 
Q 15.875 39.890625 15.1875 32.171875 
z
" id="DejaVuSans-101"/>
       <path d="M 2.984375 54.6875 
L 12.5 54.6875 
L 29.59375 8.796875 
L 46.6875 54.6875 
L 56.203125 54.6875 
L 35.6875 0 
L 23.484375 0 
z
" id="DejaVuSans-118"/>
       <path d="M 34.28125 27.484375 
Q 23.390625 27.484375 19.1875 25 
Q 14.984375 22.515625 14.984375 16.5 
Q 14.984375 11.71875 18.140625 8.90625 
Q 21.296875 6.109375 26.703125 6.109375 
Q 34.1875 6.109375 38.703125 11.40625 
Q 43.21875 16.703125 43.21875 25.484375 
L 43.21875 27.484375 
z
M 52.203125 31.203125 
L 52.203125 0 
L 43.21875 0 
L 43.21875 8.296875 
Q 40.140625 3.328125 35.546875 0.953125 
Q 30.953125 -1.421875 24.3125 -1.421875 
Q 15.921875 -1.421875 10.953125 3.296875 
Q 6 8.015625 6 15.921875 
Q 6 25.140625 12.171875 29.828125 
Q 18.359375 34.515625 30.609375 34.515625 
L 43.21875 34.515625 
L 43.21875 35.40625 
Q 43.21875 41.609375 39.140625 45 
Q 35.0625 48.390625 27.6875 48.390625 
Q 23 48.390625 18.546875 47.265625 
Q 14.109375 46.140625 10.015625 43.890625 
L 10.015625 52.203125 
Q 14.9375 54.109375 19.578125 55.046875 
Q 24.21875 56 28.609375 56 
Q 40.484375 56 46.34375 49.84375 
Q 52.203125 43.703125 52.203125 31.203125 
z
" id="DejaVuSans-97"/>
       <path d="M 44.28125 53.078125 
L 44.28125 44.578125 
Q 40.484375 46.53125 36.375 47.5 
Q 32.28125 48.484375 27.875 48.484375 
Q 21.1875 48.484375 17.84375 46.4375 
Q 14.5 44.390625 14.5 40.28125 
Q 14.5 37.15625 16.890625 35.375 
Q 19.28125 33.59375 26.515625 31.984375 
L 29.59375 31.296875 
Q 39.15625 29.25 43.1875 25.515625 
Q 47.21875 21.78125 47.21875 15.09375 
Q 47.21875 7.46875 41.1875 3.015625 
Q 35.15625 -1.421875 24.609375 -1.421875 
Q 20.21875 -1.421875 15.453125 -0.5625 
Q 10.6875 0.296875 5.421875 2 
L 5.421875 11.28125 
Q 10.40625 8.6875 15.234375 7.390625 
Q 20.0625 6.109375 24.8125 6.109375 
Q 31.15625 6.109375 34.5625 8.28125 
Q 37.984375 10.453125 37.984375 14.40625 
Q 37.984375 18.0625 35.515625 20.015625 
Q 33.0625 21.96875 24.703125 23.78125 
L 21.578125 24.515625 
Q 13.234375 26.265625 9.515625 29.90625 
Q 5.8125 33.546875 5.8125 39.890625 
Q 5.8125 47.609375 11.28125 51.796875 
Q 16.75 56 26.8125 56 
Q 31.78125 56 36.171875 55.265625 
Q 40.578125 54.546875 44.28125 53.078125 
z
" id="DejaVuSans-115"/>
       <path d="M 25.390625 72.90625 
L 33.6875 72.90625 
L 8.296875 -9.28125 
L 0 -9.28125 
z
" id="DejaVuSans-47"/>
       <path d="M 45.40625 46.390625 
L 45.40625 75.984375 
L 54.390625 75.984375 
L 54.390625 0 
L 45.40625 0 
L 45.40625 8.203125 
Q 42.578125 3.328125 38.25 0.953125 
Q 33.9375 -1.421875 27.875 -1.421875 
Q 17.96875 -1.421875 11.734375 6.484375 
Q 5.515625 14.40625 5.515625 27.296875 
Q 5.515625 40.1875 11.734375 48.09375 
Q 17.96875 56 27.875 56 
Q 33.9375 56 38.25 53.625 
Q 42.578125 51.265625 45.40625 46.390625 
z
M 14.796875 27.296875 
Q 14.796875 17.390625 18.875 11.75 
Q 22.953125 6.109375 30.078125 6.109375 
Q 37.203125 6.109375 41.296875 11.75 
Q 45.40625 17.390625 45.40625 27.296875 
Q 45.40625 37.203125 41.296875 42.84375 
Q 37.203125 48.484375 30.078125 48.484375 
Q 22.953125 48.484375 18.875 42.84375 
Q 14.796875 37.203125 14.796875 27.296875 
z
" id="DejaVuSans-100"/>
       <path d="M 9.421875 54.6875 
L 18.40625 54.6875 
L 18.40625 0 
L 9.421875 0 
z
M 9.421875 75.984375 
L 18.40625 75.984375 
L 18.40625 64.59375 
L 9.421875 64.59375 
z
" id="DejaVuSans-105"/>
       <path d="M 52 44.1875 
Q 55.375 50.25 60.0625 53.125 
Q 64.75 56 71.09375 56 
Q 79.640625 56 84.28125 50.015625 
Q 88.921875 44.046875 88.921875 33.015625 
L 88.921875 0 
L 79.890625 0 
L 79.890625 32.71875 
Q 79.890625 40.578125 77.09375 44.375 
Q 74.3125 48.1875 68.609375 48.1875 
Q 61.625 48.1875 57.5625 43.546875 
Q 53.515625 38.921875 53.515625 30.90625 
L 53.515625 0 
L 44.484375 0 
L 44.484375 32.71875 
Q 44.484375 40.625 41.703125 44.40625 
Q 38.921875 48.1875 33.109375 48.1875 
Q 26.21875 48.1875 22.15625 43.53125 
Q 18.109375 38.875 18.109375 30.90625 
L 18.109375 0 
L 9.078125 0 
L 9.078125 54.6875 
L 18.109375 54.6875 
L 18.109375 46.1875 
Q 21.1875 51.21875 25.484375 53.609375 
Q 29.78125 56 35.6875 56 
Q 41.65625 56 45.828125 52.96875 
Q 50 49.953125 52 44.1875 
z
" id="DejaVuSans-109"/>
       <path d="M 54.890625 33.015625 
L 54.890625 0 
L 45.90625 0 
L 45.90625 32.71875 
Q 45.90625 40.484375 42.875 44.328125 
Q 39.84375 48.1875 33.796875 48.1875 
Q 26.515625 48.1875 22.3125 43.546875 
Q 18.109375 38.921875 18.109375 30.90625 
L 18.109375 0 
L 9.078125 0 
L 9.078125 54.6875 
L 18.109375 54.6875 
L 18.109375 46.1875 
Q 21.34375 51.125 25.703125 53.5625 
Q 30.078125 56 35.796875 56 
Q 45.21875 56 50.046875 50.171875 
Q 54.890625 44.34375 54.890625 33.015625 
z
" id="DejaVuSans-110"/>
       <path d="M 8.015625 75.875 
L 15.828125 75.875 
Q 23.140625 64.359375 26.78125 53.3125 
Q 30.421875 42.28125 30.421875 31.390625 
Q 30.421875 20.453125 26.78125 9.375 
Q 23.140625 -1.703125 15.828125 -13.1875 
L 8.015625 -13.1875 
Q 14.5 -2 17.703125 9.0625 
Q 20.90625 20.125 20.90625 31.390625 
Q 20.90625 42.671875 17.703125 53.65625 
Q 14.5 64.65625 8.015625 75.875 
z
" id="DejaVuSans-41"/>
      </defs>
      <use xlink:href="#DejaVuSans-108"/>
      <use x="27.783203" xlink:href="#DejaVuSans-111"/>
      <use x="88.964844" xlink:href="#DejaVuSans-103"/>
      <use x="152.441406" xlink:href="#DejaVuSans-49"/>
      <use x="216.064453" xlink:href="#DejaVuSans-48"/>
      <use x="279.6875" xlink:href="#DejaVuSans-40"/>
      <use x="318.701172" xlink:href="#DejaVuSans-35"/>
      <use x="402.490234" xlink:href="#DejaVuSans-32"/>
      <use x="434.277344" xlink:href="#DejaVuSans-102"/>
      <use x="463.982422" xlink:href="#DejaVuSans-45"/>
      <use x="500.066406" xlink:href="#DejaVuSans-101"/>
      <use x="561.589844" xlink:href="#DejaVuSans-118"/>
      <use x="620.769531" xlink:href="#DejaVuSans-97"/>
      <use x="682.048828" xlink:href="#DejaVuSans-108"/>
      <use x="709.832031" xlink:href="#DejaVuSans-115"/>
      <use x="761.931641" xlink:href="#DejaVuSans-32"/>
      <use x="793.71875" xlink:href="#DejaVuSans-47"/>
      <use x="827.410156" xlink:href="#DejaVuSans-32"/>
      <use x="859.197266" xlink:href="#DejaVuSans-100"/>
      <use x="922.673828" xlink:href="#DejaVuSans-105"/>
      <use x="950.457031" xlink:href="#DejaVuSans-109"/>
      <use x="1047.869141" xlink:href="#DejaVuSans-101"/>
      <use x="1109.392578" xlink:href="#DejaVuSans-110"/>
      <use x="1172.771484" xlink:href="#DejaVuSans-115"/>
      <use x="1224.871094" xlink:href="#DejaVuSans-105"/>
      <use x="1252.654297" xlink:href="#DejaVuSans-111"/>
      <use x="1313.835938" xlink:href="#DejaVuSans-110"/>
      <use x="1377.214844" xlink:href="#DejaVuSans-41"/>
     </g>
    </g>
   </g>
   <g id="matplotlib.axis_2">
    <g id="ytick_1">
     <g id="line2d_21">
      <path clip-path="url(#p6178ab2f4b)" d="M 57.6 298.944 
L 338.688 298.944 
" style="fill:none;stroke:#b0b0b0;stroke-linecap:square;stroke-width:0.8;"/>
     </g>
     <g id="line2d_22">
      <defs>
       <path d="M 0 0 
L -3.5 0 
" id="m7c270510a7" style="stroke:#000000;stroke-width:0.8;"/>
      </defs>
      <g>
       <use style="stroke:#000000;stroke-width:0.8;" x="57.6" xlink:href="#m7c270510a7" y="298.944"/>
      </g>
     </g>
     <g id="text_6">
      <!-- 0.0 -->
      <g transform="translate(25.155 305.02275)scale(0.16 -0.16)">
       <defs>
        <path d="M 10.6875 12.40625 
L 21 12.40625 
L 21 0 
L 10.6875 0 
z
" id="DejaVuSans-46"/>
       </defs>
       <use xlink:href="#DejaVuSans-48"/>
       <use x="63.623047" xlink:href="#DejaVuSans-46"/>
       <use x="95.410156" xlink:href="#DejaVuSans-48"/>
      </g>
     </g>
    </g>
    <g id="ytick_2">
     <g id="line2d_23">
      <path clip-path="url(#p6178ab2f4b)" d="M 57.6 245.22202 
L 338.688 245.22202 
" style="fill:none;stroke:#b0b0b0;stroke-linecap:square;stroke-width:0.8;"/>
     </g>
     <g id="line2d_24">
      <g>
       <use style="stroke:#000000;stroke-width:0.8;" x="57.6" xlink:href="#m7c270510a7" y="245.22202"/>
      </g>
     </g>
     <g id="text_7">
      <!-- 0.2 -->
      <g transform="translate(25.155 251.30077)scale(0.16 -0.16)">
       <use xlink:href="#DejaVuSans-48"/>
       <use x="63.623047" xlink:href="#DejaVuSans-46"/>
       <use x="95.410156" xlink:href="#DejaVuSans-50"/>
      </g>
     </g>
    </g>
    <g id="ytick_3">
     <g id="line2d_25">
      <path clip-path="url(#p6178ab2f4b)" d="M 57.6 191.50004 
L 338.688 191.50004 
" style="fill:none;stroke:#b0b0b0;stroke-linecap:square;stroke-width:0.8;"/>
     </g>
     <g id="line2d_26">
      <g>
       <use style="stroke:#000000;stroke-width:0.8;" x="57.6" xlink:href="#m7c270510a7" y="191.50004"/>
      </g>
     </g>
     <g id="text_8">
      <!-- 0.4 -->
      <g transform="translate(25.155 197.57879)scale(0.16 -0.16)">
       <use xlink:href="#DejaVuSans-48"/>
       <use x="63.623047" xlink:href="#DejaVuSans-46"/>
       <use x="95.410156" xlink:href="#DejaVuSans-52"/>
      </g>
     </g>
    </g>
    <g id="ytick_4">
     <g id="line2d_27">
      <path clip-path="url(#p6178ab2f4b)" d="M 57.6 137.778059 
L 338.688 137.778059 
" style="fill:none;stroke:#b0b0b0;stroke-linecap:square;stroke-width:0.8;"/>
     </g>
     <g id="line2d_28">
      <g>
       <use style="stroke:#000000;stroke-width:0.8;" x="57.6" xlink:href="#m7c270510a7" y="137.778059"/>
      </g>
     </g>
     <g id="text_9">
      <!-- 0.6 -->
      <g transform="translate(25.155 143.856809)scale(0.16 -0.16)">
       <use xlink:href="#DejaVuSans-48"/>
       <use x="63.623047" xlink:href="#DejaVuSans-46"/>
       <use x="95.410156" xlink:href="#DejaVuSans-54"/>
      </g>
     </g>
    </g>
    <g id="ytick_5">
     <g id="line2d_29">
      <path clip-path="url(#p6178ab2f4b)" d="M 57.6 84.056079 
L 338.688 84.056079 
" style="fill:none;stroke:#b0b0b0;stroke-linecap:square;stroke-width:0.8;"/>
     </g>
     <g id="line2d_30">
      <g>
       <use style="stroke:#000000;stroke-width:0.8;" x="57.6" xlink:href="#m7c270510a7" y="84.056079"/>
      </g>
     </g>
     <g id="text_10">
      <!-- 0.8 -->
      <g transform="translate(25.155 90.134829)scale(0.16 -0.16)">
       <defs>
        <path d="M 31.78125 34.625 
Q 24.75 34.625 20.71875 30.859375 
Q 16.703125 27.09375 16.703125 20.515625 
Q 16.703125 13.921875 20.71875 10.15625 
Q 24.75 6.390625 31.78125 6.390625 
Q 38.8125 6.390625 42.859375 10.171875 
Q 46.921875 13.96875 46.921875 20.515625 
Q 46.921875 27.09375 42.890625 30.859375 
Q 38.875 34.625 31.78125 34.625 
z
M 21.921875 38.8125 
Q 15.578125 40.375 12.03125 44.71875 
Q 8.5 49.078125 8.5 55.328125 
Q 8.5 64.0625 14.71875 69.140625 
Q 20.953125 74.21875 31.78125 74.21875 
Q 42.671875 74.21875 48.875 69.140625 
Q 55.078125 64.0625 55.078125 55.328125 
Q 55.078125 49.078125 51.53125 44.71875 
Q 48 40.375 41.703125 38.8125 
Q 48.828125 37.15625 52.796875 32.3125 
Q 56.78125 27.484375 56.78125 20.515625 
Q 56.78125 9.90625 50.3125 4.234375 
Q 43.84375 -1.421875 31.78125 -1.421875 
Q 19.734375 -1.421875 13.25 4.234375 
Q 6.78125 9.90625 6.78125 20.515625 
Q 6.78125 27.484375 10.78125 32.3125 
Q 14.796875 37.15625 21.921875 38.8125 
z
M 18.3125 54.390625 
Q 18.3125 48.734375 21.84375 45.5625 
Q 25.390625 42.390625 31.78125 42.390625 
Q 38.140625 42.390625 41.71875 45.5625 
Q 45.3125 48.734375 45.3125 54.390625 
Q 45.3125 60.0625 41.71875 63.234375 
Q 38.140625 66.40625 31.78125 66.40625 
Q 25.390625 66.40625 21.84375 63.234375 
Q 18.3125 60.0625 18.3125 54.390625 
z
" id="DejaVuSans-56"/>
       </defs>
       <use xlink:href="#DejaVuSans-48"/>
       <use x="63.623047" xlink:href="#DejaVuSans-46"/>
       <use x="95.410156" xlink:href="#DejaVuSans-56"/>
      </g>
     </g>
    </g>
    <g id="ytick_6">
     <g id="line2d_31">
      <path clip-path="url(#p6178ab2f4b)" d="M 57.6 30.334099 
L 338.688 30.334099 
" style="fill:none;stroke:#b0b0b0;stroke-linecap:square;stroke-width:0.8;"/>
     </g>
     <g id="line2d_32">
      <g>
       <use style="stroke:#000000;stroke-width:0.8;" x="57.6" xlink:href="#m7c270510a7" y="30.334099"/>
      </g>
     </g>
     <g id="text_11">
      <!-- 1.0 -->
      <g transform="translate(25.155 36.412849)scale(0.16 -0.16)">
       <use xlink:href="#DejaVuSans-49"/>
       <use x="63.623047" xlink:href="#DejaVuSans-46"/>
       <use x="95.410156" xlink:href="#DejaVuSans-48"/>
      </g>
     </g>
    </g>
    <g id="text_12">
     <!-- Fraction of function,target pairs -->
     <g transform="translate(17.619531 297.681)rotate(-90)scale(0.17 -0.17)">
      <defs>
       <path d="M 9.8125 72.90625 
L 51.703125 72.90625 
L 51.703125 64.59375 
L 19.671875 64.59375 
L 19.671875 43.109375 
L 48.578125 43.109375 
L 48.578125 34.8125 
L 19.671875 34.8125 
L 19.671875 0 
L 9.8125 0 
z
" id="DejaVuSans-70"/>
       <path d="M 41.109375 46.296875 
Q 39.59375 47.171875 37.8125 47.578125 
Q 36.03125 48 33.890625 48 
Q 26.265625 48 22.1875 43.046875 
Q 18.109375 38.09375 18.109375 28.8125 
L 18.109375 0 
L 9.078125 0 
L 9.078125 54.6875 
L 18.109375 54.6875 
L 18.109375 46.1875 
Q 20.953125 51.171875 25.484375 53.578125 
Q 30.03125 56 36.53125 56 
Q 37.453125 56 38.578125 55.875 
Q 39.703125 55.765625 41.0625 55.515625 
z
" id="DejaVuSans-114"/>
       <path d="M 48.78125 52.59375 
L 48.78125 44.1875 
Q 44.96875 46.296875 41.140625 47.34375 
Q 37.3125 48.390625 33.40625 48.390625 
Q 24.65625 48.390625 19.8125 42.84375 
Q 14.984375 37.3125 14.984375 27.296875 
Q 14.984375 17.28125 19.8125 11.734375 
Q 24.65625 6.203125 33.40625 6.203125 
Q 37.3125 6.203125 41.140625 7.25 
Q 44.96875 8.296875 48.78125 10.40625 
L 48.78125 2.09375 
Q 45.015625 0.34375 40.984375 -0.53125 
Q 36.96875 -1.421875 32.421875 -1.421875 
Q 20.0625 -1.421875 12.78125 6.34375 
Q 5.515625 14.109375 5.515625 27.296875 
Q 5.515625 40.671875 12.859375 48.328125 
Q 20.21875 56 33.015625 56 
Q 37.15625 56 41.109375 55.140625 
Q 45.0625 54.296875 48.78125 52.59375 
z
" id="DejaVuSans-99"/>
       <path d="M 18.3125 70.21875 
L 18.3125 54.6875 
L 36.8125 54.6875 
L 36.8125 47.703125 
L 18.3125 47.703125 
L 18.3125 18.015625 
Q 18.3125 11.328125 20.140625 9.421875 
Q 21.96875 7.515625 27.59375 7.515625 
L 36.8125 7.515625 
L 36.8125 0 
L 27.59375 0 
Q 17.1875 0 13.234375 3.875 
Q 9.28125 7.765625 9.28125 18.015625 
L 9.28125 47.703125 
L 2.6875 47.703125 
L 2.6875 54.6875 
L 9.28125 54.6875 
L 9.28125 70.21875 
z
" id="DejaVuSans-116"/>
       <path d="M 8.5 21.578125 
L 8.5 54.6875 
L 17.484375 54.6875 
L 17.484375 21.921875 
Q 17.484375 14.15625 20.5 10.265625 
Q 23.53125 6.390625 29.59375 6.390625 
Q 36.859375 6.390625 41.078125 11.03125 
Q 45.3125 15.671875 45.3125 23.6875 
L 45.3125 54.6875 
L 54.296875 54.6875 
L 54.296875 0 
L 45.3125 0 
L 45.3125 8.40625 
Q 42.046875 3.421875 37.71875 1 
Q 33.40625 -1.421875 27.6875 -1.421875 
Q 18.265625 -1.421875 13.375 4.4375 
Q 8.5 10.296875 8.5 21.578125 
z
M 31.109375 56 
z
" id="DejaVuSans-117"/>
       <path d="M 11.71875 12.40625 
L 22.015625 12.40625 
L 22.015625 4 
L 14.015625 -11.625 
L 7.71875 -11.625 
L 11.71875 4 
z
" id="DejaVuSans-44"/>
       <path d="M 18.109375 8.203125 
L 18.109375 -20.796875 
L 9.078125 -20.796875 
L 9.078125 54.6875 
L 18.109375 54.6875 
L 18.109375 46.390625 
Q 20.953125 51.265625 25.265625 53.625 
Q 29.59375 56 35.59375 56 
Q 45.5625 56 51.78125 48.09375 
Q 58.015625 40.1875 58.015625 27.296875 
Q 58.015625 14.40625 51.78125 6.484375 
Q 45.5625 -1.421875 35.59375 -1.421875 
Q 29.59375 -1.421875 25.265625 0.953125 
Q 20.953125 3.328125 18.109375 8.203125 
z
M 48.6875 27.296875 
Q 48.6875 37.203125 44.609375 42.84375 
Q 40.53125 48.484375 33.40625 48.484375 
Q 26.265625 48.484375 22.1875 42.84375 
Q 18.109375 37.203125 18.109375 27.296875 
Q 18.109375 17.390625 22.1875 11.75 
Q 26.265625 6.109375 33.40625 6.109375 
Q 40.53125 6.109375 44.609375 11.75 
Q 48.6875 17.390625 48.6875 27.296875 
z
" id="DejaVuSans-112"/>
      </defs>
      <use xlink:href="#DejaVuSans-70"/>
      <use x="50.269531" xlink:href="#DejaVuSans-114"/>
      <use x="91.382812" xlink:href="#DejaVuSans-97"/>
      <use x="152.662109" xlink:href="#DejaVuSans-99"/>
      <use x="207.642578" xlink:href="#DejaVuSans-116"/>
      <use x="246.851562" xlink:href="#DejaVuSans-105"/>
      <use x="274.634766" xlink:href="#DejaVuSans-111"/>
      <use x="335.816406" xlink:href="#DejaVuSans-110"/>
      <use x="399.195312" xlink:href="#DejaVuSans-32"/>
      <use x="430.982422" xlink:href="#DejaVuSans-111"/>
      <use x="492.164062" xlink:href="#DejaVuSans-102"/>
      <use x="527.369141" xlink:href="#DejaVuSans-32"/>
      <use x="559.15625" xlink:href="#DejaVuSans-102"/>
      <use x="594.361328" xlink:href="#DejaVuSans-117"/>
      <use x="657.740234" xlink:href="#DejaVuSans-110"/>
      <use x="721.119141" xlink:href="#DejaVuSans-99"/>
      <use x="776.099609" xlink:href="#DejaVuSans-116"/>
      <use x="815.308594" xlink:href="#DejaVuSans-105"/>
      <use x="843.091797" xlink:href="#DejaVuSans-111"/>
      <use x="904.273438" xlink:href="#DejaVuSans-110"/>
      <use x="967.652344" xlink:href="#DejaVuSans-44"/>
      <use x="999.439453" xlink:href="#DejaVuSans-116"/>
      <use x="1038.648438" xlink:href="#DejaVuSans-97"/>
      <use x="1099.927734" xlink:href="#DejaVuSans-114"/>
      <use x="1139.291016" xlink:href="#DejaVuSans-103"/>
      <use x="1202.767578" xlink:href="#DejaVuSans-101"/>
      <use x="1264.291016" xlink:href="#DejaVuSans-116"/>
      <use x="1303.5" xlink:href="#DejaVuSans-32"/>
      <use x="1335.287109" xlink:href="#DejaVuSans-112"/>
      <use x="1398.763672" xlink:href="#DejaVuSans-97"/>
      <use x="1460.042969" xlink:href="#DejaVuSans-105"/>
      <use x="1487.826172" xlink:href="#DejaVuSans-114"/>
      <use x="1528.939453" xlink:href="#DejaVuSans-115"/>
     </g>
    </g>
   </g>
   <g id="line2d_33">
    <defs>
     <path d="M 0 1.5 
C 0.397805 1.5 0.77937 1.341951 1.06066 1.06066 
C 1.341951 0.77937 1.5 0.397805 1.5 0 
C 1.5 -0.397805 1.341951 -0.77937 1.06066 -1.06066 
C 0.77937 -1.341951 0.397805 -1.5 0 -1.5 
C -0.397805 -1.5 -0.77937 -1.341951 -1.06066 -1.06066 
C -1.341951 -0.77937 -1.5 -0.397805 -1.5 0 
C -1.5 0.397805 -1.341951 0.77937 -1.06066 1.06066 
C -0.77937 1.341951 -0.397805 1.5 0 1.5 
z
" id="mdb3caa5453" style="stroke:#f5deb3;"/>
    </defs>
    <g>
     <use style="fill:#f5deb3;stroke:#f5deb3;" x="131.690703" xlink:href="#mdb3caa5453" y="30.334099"/>
     <use style="fill:#f5deb3;stroke:#f5deb3;" x="131.690703" xlink:href="#mdb3caa5453" y="30.334099"/>
    </g>
   </g>
   <g id="line2d_34">
    <defs>
     <path d="M 0 1.5 
C 0.397805 1.5 0.77937 1.341951 1.06066 1.06066 
C 1.341951 0.77937 1.5 0.397805 1.5 0 
C 1.5 -0.397805 1.341951 -0.77937 1.06066 -1.06066 
C 0.77937 -1.341951 0.397805 -1.5 0 -1.5 
C -0.397805 -1.5 -0.77937 -1.341951 -1.06066 -1.06066 
C -1.341951 -0.77937 -1.5 -0.397805 -1.5 0 
C -1.5 0.397805 -1.341951 0.77937 -1.06066 1.06066 
C -0.77937 1.341951 -0.397805 1.5 0 1.5 
z
" id="md706331da5" style="stroke:#000080;"/>
    </defs>
    <g>
     <use style="fill:#000080;stroke:#000080;" x="174.774759" xlink:href="#md706331da5" y="30.334099"/>
     <use style="fill:#000080;stroke:#000080;" x="174.774759" xlink:href="#md706331da5" y="30.334099"/>
    </g>
   </g>
   <g id="line2d_35">
    <path d="M 62.616969 298.944 
L 62.616969 291.570395 
L 88.846997 291.570395 
L 88.846997 290.517023 
L 93.863965 290.517023 
L 93.863965 289.990337 
L 95.918017 289.990337 
L 95.918017 288.410278 
L 97.755429 288.410278 
L 97.755429 287.356906 
L 99.41757 287.356906 
L 99.41757 286.303534 
L 99.938184 286.303534 
L 99.938184 285.250162 
L 100.443706 285.250162 
L 100.443706 284.723476 
L 103.203018 284.723476 
L 103.203018 284.19679 
L 104.033617 284.19679 
L 104.033617 283.143418 
L 107.680028 283.143418 
L 107.680028 282.090045 
L 108.006005 282.090045 
L 108.006005 281.036673 
L 108.326001 281.036673 
L 108.326001 279.456615 
L 109.252198 279.456615 
L 109.252198 276.823185 
L 109.550313 276.823185 
L 109.550313 276.296499 
L 110.131676 276.296499 
L 110.131676 275.769812 
L 113.022974 275.769812 
L 113.022974 275.243126 
L 114.418861 275.243126 
L 114.418861 274.71644 
L 115.077025 274.71644 
L 115.077025 274.189754 
L 116.121606 274.189754 
L 116.121606 273.663068 
L 116.323218 273.663068 
L 116.323218 273.136382 
L 116.719583 273.136382 
L 116.719583 272.609696 
L 118.039942 272.609696 
L 118.039942 271.556324 
L 118.576578 271.556324 
L 118.576578 267.869521 
L 118.751849 267.869521 
L 118.751849 266.289463 
L 118.925375 266.289463 
L 118.925375 264.182719 
L 119.43583 264.182719 
L 119.43583 263.656033 
L 119.602714 263.656033 
L 119.602714 260.495916 
L 120.728219 260.495916 
L 120.728219 259.442544 
L 122.362027 259.442544 
L 122.362027 257.862486 
L 122.503236 257.862486 
L 122.503236 254.702369 
L 122.643312 254.702369 
L 122.643312 254.175683 
L 122.920132 254.175683 
L 122.920132 253.648997 
L 123.327293 253.648997 
L 123.327293 253.122311 
L 123.460928 253.122311 
L 123.460928 252.595625 
L 123.855796 252.595625 
L 123.855796 250.488881 
L 123.985457 250.488881 
L 123.985457 249.435508 
L 124.989434 249.435508 
L 124.989434 247.328764 
L 125.23165 247.328764 
L 125.23165 246.802078 
L 125.470548 246.802078 
L 125.470548 245.22202 
L 127.272333 245.22202 
L 127.378995 244.168648 
L 127.48501 244.168648 
L 127.48501 243.641962 
L 129.099042 243.641962 
L 129.099042 243.115275 
L 129.667765 243.115275 
L 129.667765 241.535217 
L 131.099484 241.535217 
L 131.099484 241.008531 
L 131.60746 241.008531 
L 131.60746 239.428473 
L 131.938072 239.428473 
L 131.938072 238.375101 
L 132.262533 238.375101 
L 132.262533 237.848415 
L 132.501978 237.848415 
L 132.501978 237.321729 
L 133.201197 237.321729 
L 133.201197 236.268356 
L 134.019394 236.268356 
L 134.019394 235.74167 
L 134.37898 235.74167 
L 134.37898 235.214984 
L 135.212889 235.214984 
L 135.212889 234.161612 
L 135.415281 234.161612 
L 135.415281 233.634926 
L 136.707671 233.634926 
L 136.707671 233.10824 
L 136.893527 233.10824 
L 136.893527 232.054868 
L 137.259399 232.054868 
L 137.259399 231.528182 
L 137.910857 231.528182 
L 137.910857 231.001496 
L 138.026733 231.001496 
L 138.026733 230.47481 
L 138.256201 230.47481 
L 138.256201 229.948123 
L 138.538853 229.948123 
L 138.594838 226.788007 
L 139.625765 226.788007 
L 139.730821 225.734635 
L 140.39868 225.734635 
L 140.39868 225.207949 
L 140.747977 225.207949 
L 140.747977 224.154577 
L 141.568232 224.154577 
L 141.568232 223.627891 
L 142.170445 223.627891 
L 142.170445 223.101204 
L 143.058132 223.101204 
L 143.058132 222.574518 
L 143.273169 222.574518 
L 143.273169 222.047832 
L 143.778691 222.047832 
L 143.778691 220.99446 
L 144.06695 220.99446 
L 144.06695 220.467774 
L 144.229555 220.467774 
L 144.229555 219.941088 
L 145.136208 219.941088 
L 145.136208 218.887716 
L 145.703082 218.887716 
L 145.703082 218.36103 
L 145.814278 218.36103 
L 145.814278 217.834344 
L 146.143677 217.834344 
L 146.216039 216.780971 
L 146.502522 216.780971 
L 146.573414 212.567483 
L 146.854132 212.567483 
L 146.958248 211.514111 
L 147.061745 211.514111 
L 147.061745 210.987425 
L 147.232888 210.987425 
L 147.232888 209.934052 
L 147.436066 209.934052 
L 147.436066 209.407366 
L 147.835457 209.407366 
L 147.835457 208.88068 
L 148.225905 208.88068 
L 148.225905 208.353994 
L 148.386046 208.353994 
L 148.386046 207.827308 
L 149.012299 207.827308 
L 149.012299 207.300622 
L 149.195872 207.300622 
L 149.195872 206.773936 
L 149.646525 206.773936 
L 149.735275 204.667192 
L 150.027887 204.667192 
L 150.114722 203.613819 
L 150.401087 203.613819 
L 150.401087 203.087133 
L 150.542526 203.087133 
L 150.542526 202.560447 
L 150.766468 202.560447 
L 150.822008 201.507075 
L 151.042412 201.507075 
L 151.097081 200.453703 
L 151.367883 200.453703 
L 151.367883 199.927017 
L 151.554972 199.927017 
L 151.60806 198.346959 
L 151.68739 198.346959 
L 151.68739 197.820273 
L 152.001148 197.820273 
L 152.001148 197.293586 
L 152.181601 197.293586 
L 152.181601 196.7669 
L 152.461449 196.7669 
L 152.461449 195.186842 
L 152.761703 195.186842 
L 152.761703 193.606784 
L 152.934492 193.606784 
L 152.959038 191.50004 
L 153.202607 191.50004 
L 153.202607 190.973354 
L 153.726778 190.973354 
L 153.726778 190.446667 
L 153.843742 190.446667 
L 153.843742 189.919981 
L 154.098334 189.919981 
L 154.098334 189.393295 
L 154.258434 189.393295 
L 154.281186 187.286551 
L 154.641235 187.286551 
L 154.641235 186.759865 
L 154.884527 186.759865 
L 154.972161 183.599748 
L 155.167744 183.599748 
L 155.189341 182.546376 
L 155.318362 182.546376 
L 155.339773 181.493004 
L 155.488919 181.493004 
L 155.488919 180.966318 
L 155.6368 180.966318 
L 155.657823 179.912946 
L 155.86668 179.912946 
L 155.928852 177.279515 
L 156.073064 177.279515 
L 156.175347 176.226143 
L 156.357959 176.226143 
L 156.418408 175.172771 
L 156.478647 175.172771 
L 156.478647 174.119399 
L 156.757045 174.119399 
L 156.816128 173.066027 
L 156.933697 173.066027 
L 157.011638 169.379224 
L 157.089232 169.379224 
L 157.089232 168.852538 
L 157.453162 168.852538 
L 157.528821 167.799166 
L 157.604152 167.799166 
L 157.604152 167.27248 
L 157.883783 167.27248 
L 157.994392 162.532305 
L 158.231665 162.532305 
L 158.340096 160.952247 
L 158.412011 160.952247 
L 158.501489 159.372189 
L 158.537152 159.372189 
L 158.572743 157.79213 
L 158.784773 157.79213 
L 158.872364 153.578642 
L 158.924708 153.578642 
L 158.924708 153.051956 
L 159.063529 153.051956 
L 159.132527 150.945211 
L 159.184097 150.945211 
L 159.184097 150.418525 
L 159.320876 150.418525 
L 159.388866 148.838467 
L 159.524055 148.838467 
L 159.524055 147.785095 
L 159.6749 147.785095 
L 159.6749 147.258409 
L 159.84099 147.258409 
L 159.84099 146.731723 
L 160.02188 146.731723 
L 160.02188 145.678351 
L 160.184713 145.678351 
L 160.265562 144.624978 
L 160.410154 144.624978 
L 160.489968 142.518234 
L 160.537682 142.518234 
L 160.601097 137.251373 
L 160.727241 137.251373 
L 160.742945 134.617943 
L 160.930298 134.617943 
L 161.038665 133.564571 
L 161.131018 133.564571 
L 161.177012 129.877768 
L 161.480575 129.877768 
L 161.480575 128.824396 
L 161.689969 128.824396 
L 161.749336 127.771024 
L 161.823263 127.771024 
L 161.88218 125.66428 
L 161.999419 125.66428 
L 162.072295 121.450791 
L 162.115875 121.450791 
L 162.20271 117.763988 
L 162.245966 117.763988 
L 162.346481 115.130558 
L 162.389382 115.130558 
L 162.389382 113.5505 
L 162.503271 113.5505 
L 162.503271 111.970441 
L 162.672723 111.970441 
L 162.770815 108.283639 
L 162.896128 108.283639 
L 162.979172 103.543464 
L 163.103002 103.543464 
L 163.21234 97.223231 
L 163.266752 97.223231 
L 163.375071 90.902998 
L 163.496131 90.902998 
L 163.549667 89.849626 
L 163.748975 89.849626 
L 163.775378 88.796254 
L 163.906798 88.796254 
L 163.932963 86.68951 
L 164.063205 86.68951 
L 164.166702 80.895963 
L 164.179597 80.895963 
L 164.243924 79.842591 
L 164.460881 79.842591 
L 164.549438 78.789218 
L 164.712717 78.789218 
L 164.712717 78.262532 
L 164.899235 78.262532 
L 164.985598 71.415613 
L 165.083779 71.415613 
L 165.083779 70.888927 
L 165.242153 70.888927 
L 165.242153 68.782183 
L 165.375047 68.782183 
L 165.375047 68.255497 
L 165.494988 68.255497 
L 165.602233 67.202125 
L 165.896723 67.202125 
L 165.896723 66.675439 
L 166.105719 66.675439 
L 166.105719 65.622066 
L 166.403246 65.622066 
L 166.403246 65.09538 
L 167.179933 65.09538 
L 167.288118 64.042008 
L 167.502494 64.042008 
L 167.545055 60.355206 
L 167.629866 60.355206 
L 167.724788 58.775147 
L 167.7773 58.775147 
L 167.7773 57.195089 
L 167.902688 57.195089 
L 167.975417 56.141717 
L 168.273531 56.141717 
L 168.334579 55.088345 
L 168.415645 55.088345 
L 168.425752 52.454914 
L 168.626667 52.454914 
L 168.626667 51.928228 
L 168.9532 51.928228 
L 168.9532 51.401542 
L 169.089902 51.401542 
L 169.128764 49.821484 
L 169.588476 49.821484 
L 169.645097 46.134681 
L 170.18316 46.134681 
L 170.18316 45.607995 
L 170.373953 45.607995 
L 170.373953 45.081309 
L 170.517932 45.081309 
L 170.517932 44.554623 
L 170.731695 44.554623 
L 170.731695 43.501251 
L 170.907851 43.501251 
L 170.907851 42.974565 
L 171.030109 42.974565 
L 171.030109 41.921193 
L 171.408865 41.921193 
L 171.408865 40.341135 
L 172.546075 40.341135 
L 172.546075 39.814448 
L 172.846623 39.814448 
L 172.846623 38.761076 
L 172.971637 38.761076 
L 172.971637 38.23439 
L 173.211329 38.23439 
L 173.280304 37.181018 
L 173.755642 37.181018 
L 173.755642 36.127646 
L 174.13117 36.127646 
L 174.196608 34.020902 
L 174.355542 34.020902 
L 174.448781 31.914157 
L 174.647927 31.914157 
L 174.647927 31.387471 
L 174.774759 31.387471 
L 174.774759 30.334099 
L 338.688 30.334099 
L 338.688 30.334099 
" style="fill:none;stroke:#000080;stroke-linecap:square;stroke-width:1.5;"/>
   </g>
   <g id="line2d_36">
    <defs>
     <path d="M 0 6 
C 1.591219 6 3.117479 5.367802 4.242641 4.242641 
C 5.367802 3.117479 6 1.591219 6 0 
C 6 -1.591219 5.367802 -3.117479 4.242641 -4.242641 
C 3.117479 -5.367802 1.591219 -6 0 -6 
C -1.591219 -6 -3.117479 -5.367802 -4.242641 -4.242641 
C -5.367802 -3.117479 -6 -1.591219 -6 0 
C -6 1.591219 -5.367802 3.117479 -4.242641 4.242641 
C -3.117479 5.367802 -1.591219 6 0 6 
z
" id="m2dfcace6dc" style="stroke:#000080;stroke-width:1.5;"/>
    </defs>
    <g>
     <use style="fill-opacity:0;stroke:#000080;stroke-width:1.5;" x="125.470548" xlink:href="#m2dfcace6dc" y="245.22202"/>
     <use style="fill-opacity:0;stroke:#000080;stroke-width:1.5;" x="163.103002" xlink:href="#m2dfcace6dc" y="103.543464"/>
     <use style="fill-opacity:0;stroke:#000080;stroke-width:1.5;" x="174.774759" xlink:href="#m2dfcace6dc" y="31.387471"/>
     <use style="fill-opacity:0;stroke:#000080;stroke-width:1.5;" x="174.774759" xlink:href="#m2dfcace6dc" y="30.334099"/>
     <use style="fill-opacity:0;stroke:#000080;stroke-width:1.5;" x="338.688" xlink:href="#m2dfcace6dc" y="30.334099"/>
    </g>
   </g>
   <g id="line2d_37">
    <path style="fill:none;stroke:#000080;stroke-linecap:square;stroke-width:1.5;"/>
    <g/>
   </g>
   <g id="line2d_38">
    <defs>
     <path d="M 0 1.5 
C 0.397805 1.5 0.77937 1.341951 1.06066 1.06066 
C 1.341951 0.77937 1.5 0.397805 1.5 0 
C 1.5 -0.397805 1.341951 -0.77937 1.06066 -1.06066 
C 0.77937 -1.341951 0.397805 -1.5 0 -1.5 
C -0.397805 -1.5 -0.77937 -1.341951 -1.06066 -1.06066 
C -1.341951 -0.77937 -1.5 -0.397805 -1.5 0 
C -1.5 0.397805 -1.341951 0.77937 -1.06066 1.06066 
C -0.77937 1.341951 -0.397805 1.5 0 1.5 
z
" id="m092ce3644c" style="stroke:#ff00ff;"/>
    </defs>
    <g>
     <use style="fill:#ff00ff;stroke:#ff00ff;" x="177.098184" xlink:href="#m092ce3644c" y="30.334099"/>
     <use style="fill:#ff00ff;stroke:#ff00ff;" x="177.098184" xlink:href="#m092ce3644c" y="30.334099"/>
    </g>
   </g>
   <g id="line2d_39">
    <path d="M 38.440992 298.944 
L 38.440992 298.417314 
L 62.616969 298.417314 
L 62.616969 293.677139 
L 90.684409 293.677139 
L 90.684409 292.623767 
L 93.121756 292.623767 
L 93.121756 292.097081 
L 95.918017 292.097081 
L 95.918017 291.570395 
L 97.755429 291.570395 
L 97.755429 289.990337 
L 99.938184 289.990337 
L 99.938184 287.883592 
L 101.412804 287.883592 
L 101.412804 286.83022 
L 101.877879 286.83022 
L 101.877879 286.303534 
L 105.209745 286.303534 
L 105.209745 285.776848 
L 105.584798 285.776848 
L 105.584798 285.250162 
L 105.951954 285.250162 
L 105.951954 283.670104 
L 106.311539 283.670104 
L 106.311539 282.090045 
L 108.948899 282.090045 
L 108.948899 281.036673 
L 109.843417 281.036673 
L 109.843417 279.983301 
L 110.131676 279.983301 
L 110.131676 278.403243 
L 110.415248 278.403243 
L 110.415248 277.349871 
L 111.239304 277.349871 
L 111.239304 272.609696 
L 111.505558 272.609696 
L 111.505558 269.449579 
L 112.280765 269.449579 
L 112.280765 268.922893 
L 113.26352 268.922893 
L 113.26352 268.396207 
L 115.077025 268.396207 
L 115.077025 267.869521 
L 116.522527 267.869521 
L 116.522527 267.342835 
L 117.672786 267.342835 
L 117.672786 266.289463 
L 118.925375 266.289463 
L 118.925375 265.762777 
L 119.602714 265.762777 
L 119.602714 263.656033 
L 120.254726 263.656033 
L 120.254726 262.60266 
L 120.728219 262.60266 
L 120.728219 258.915858 
L 120.883236 258.915858 
L 120.883236 257.3358 
L 121.036887 257.3358 
L 121.036887 255.755741 
L 121.189196 255.755741 
L 121.189196 254.702369 
L 121.638301 254.702369 
L 121.638301 254.175683 
L 124.743806 254.175683 
L 124.743806 251.015567 
L 124.867052 251.015567 
L 124.867052 250.488881 
L 125.110962 250.488881 
L 125.110962 249.962195 
L 125.23165 249.962195 
L 125.23165 249.435508 
L 126.053856 249.435508 
L 126.053856 248.908822 
L 126.168212 248.908822 
L 126.168212 248.382136 
L 126.281824 248.382136 
L 126.281824 247.85545 
L 127.272333 247.85545 
L 127.272333 246.275392 
L 127.695124 246.275392 
L 127.695124 244.168648 
L 127.902737 244.168648 
L 127.902737 243.641962 
L 129.667765 243.641962 
L 129.667765 243.115275 
L 130.926816 243.115275 
L 130.926816 241.535217 
L 131.938072 241.535217 
L 131.938072 240.481845 
L 132.101058 240.481845 
L 132.101058 239.955159 
L 133.873458 239.955159 
L 133.873458 238.901787 
L 134.661403 238.901787 
L 134.661403 238.375101 
L 134.800918 238.375101 
L 134.800918 237.848415 
L 135.212889 237.848415 
L 135.212889 237.321729 
L 135.482227 237.321729 
L 135.482227 236.268356 
L 135.747468 236.268356 
L 135.747468 235.74167 
L 136.769843 235.74167 
L 136.769843 235.214984 
L 137.259399 235.214984 
L 137.259399 233.10824 
L 137.499118 233.10824 
L 137.499118 232.054868 
L 139.199094 232.054868 
L 139.199094 231.528182 
L 140.093612 231.528182 
L 140.195896 230.47481 
L 140.348205 230.47481 
L 140.348205 229.948123 
L 140.549236 229.948123 
L 140.549236 229.421437 
L 140.747977 229.421437 
L 140.747977 228.368065 
L 140.89556 228.368065 
L 140.89556 226.261321 
L 142.033307 226.261321 
L 142.033307 225.734635 
L 143.861538 225.734635 
L 143.861538 225.207949 
L 144.470655 225.207949 
L 144.470655 224.681263 
L 145.251067 224.681263 
L 145.251067 224.154577 
L 145.365173 224.154577 
L 145.365173 223.627891 
L 145.851187 223.627891 
L 145.851187 223.101204 
L 146.071013 223.101204 
L 146.071013 221.521146 
L 146.538004 221.521146 
L 146.538004 220.99446 
L 147.334773 220.99446 
L 147.436066 219.414402 
L 147.999207 219.414402 
L 147.999207 218.887716 
L 148.129109 218.887716 
L 148.129109 218.36103 
L 148.449693 218.36103 
L 148.513109 217.307658 
L 148.79566 217.307658 
L 148.888835 213.620855 
L 148.950676 213.620855 
L 148.950676 213.094169 
L 149.165411 213.094169 
L 149.256637 212.040797 
L 149.377533 212.040797 
L 149.377533 211.514111 
L 149.527485 211.514111 
L 149.527485 210.460738 
L 149.735275 210.460738 
L 149.794191 209.407366 
L 150.143571 209.407366 
L 150.201126 208.353994 
L 151.949246 208.353994 
L 152.052897 206.773936 
L 152.334802 206.773936 
L 152.436193 205.720564 
L 152.461449 205.720564 
L 152.461449 205.193878 
L 152.612222 205.193878 
L 152.712018 204.140506 
L 152.811246 204.140506 
L 152.811246 203.613819 
L 153.129893 203.613819 
L 153.129893 202.560447 
L 153.347132 202.560447 
L 153.418948 201.507075 
L 153.679772 201.507075 
L 153.703291 199.927017 
L 153.867041 199.927017 
L 153.913546 198.346959 
L 154.258434 198.346959 
L 154.303908 197.293586 
L 154.484627 197.293586 
L 154.484627 196.7669 
L 154.77436 196.7669 
L 154.77436 194.660156 
L 155.081089 194.660156 
L 155.081089 193.606784 
L 155.210911 193.606784 
L 155.275461 191.50004 
L 155.55245 191.50004 
L 155.55245 190.973354 
L 155.720743 190.973354 
L 155.741666 189.393295 
L 155.887428 189.393295 
L 155.887428 188.866609 
L 156.154939 188.866609 
L 156.154939 187.286551 
L 156.538679 187.286551 
L 156.598505 185.706493 
L 157.011638 185.706493 
L 157.011638 185.179807 
L 157.166482 185.179807 
L 157.224197 182.01969 
L 157.28172 182.01969 
L 157.358125 180.439632 
L 157.491032 180.439632 
L 157.509937 179.38626 
L 157.660438 179.38626 
L 157.660438 178.859574 
L 157.809652 178.859574 
L 157.828215 177.279515 
L 157.957601 177.279515 
L 158.067744 174.646085 
L 158.177196 174.646085 
L 158.177196 173.066027 
L 158.39406 173.066027 
L 158.48363 172.012655 
L 158.784773 172.012655 
L 158.854881 169.90591 
L 159.132527 169.90591 
L 159.201253 164.63905 
L 159.252621 164.63905 
L 159.337899 160.425561 
L 159.405822 160.425561 
L 159.473482 159.372189 
L 159.574482 159.372189 
L 159.574482 158.845503 
L 159.923445 158.845503 
L 159.923445 158.318817 
L 160.249422 158.318817 
L 160.313893 156.738758 
L 160.394148 156.738758 
L 160.442124 155.685386 
L 160.521792 155.685386 
L 160.553557 154.105328 
L 160.664283 154.105328 
L 160.774311 151.998584 
L 160.852479 151.998584 
L 160.883648 149.891839 
L 161.100288 149.891839 
L 161.192316 146.731723 
L 161.268637 146.731723 
L 161.374928 145.678351 
L 161.450455 145.678351 
L 161.450455 145.151665 
L 161.64531 145.151665 
L 161.64531 144.624978 
L 161.838011 144.624978 
L 161.940898 143.04492 
L 162.303474 143.04492 
L 162.346481 141.991548 
L 162.44642 141.991548 
L 162.503271 140.938176 
L 162.574077 140.938176 
L 162.588203 139.884804 
L 162.770815 139.884804 
L 162.854457 137.251373 
L 162.909996 137.251373 
L 162.923853 134.617943 
L 163.048075 134.617943 
L 163.157756 132.511199 
L 163.225959 132.511199 
L 163.33453 131.457826 
L 163.361568 131.457826 
L 163.455871 128.824396 
L 163.496131 128.824396 
L 163.549667 127.771024 
L 163.656248 127.771024 
L 163.656248 124.610907 
L 163.801742 124.610907 
L 163.867476 123.557535 
L 163.972138 123.557535 
L 164.076176 121.450791 
L 164.166702 121.450791 
L 164.179597 118.290674 
L 164.282408 118.290674 
L 164.320806 115.130558 
L 164.435497 115.130558 
L 164.524182 110.917069 
L 164.562052 110.917069 
L 164.587254 107.756953 
L 164.687696 107.756953 
L 164.687696 106.176895 
L 164.800007 106.176895 
L 164.886862 105.123522 
L 164.923954 105.123522 
L 165.010195 103.016778 
L 165.083779 103.016778 
L 165.18141 99.856662 
L 165.278497 99.856662 
L 165.375047 94.063115 
L 165.423123 94.063115 
L 165.471066 92.483056 
L 165.59035 92.483056 
L 165.673366 87.742882 
L 165.849938 87.742882 
L 165.849938 86.162824 
L 166.036331 86.162824 
L 166.036331 84.582765 
L 166.255117 84.582765 
L 166.312239 83.529393 
L 166.403246 83.529393 
L 166.48249 81.422649 
L 166.561376 81.422649 
L 166.561376 80.369277 
L 166.706937 80.369277 
L 166.706937 79.842591 
L 166.895472 79.842591 
L 166.983494 78.789218 
L 167.223287 78.789218 
L 167.309674 72.468985 
L 167.745812 72.468985 
L 167.819196 70.888927 
L 167.923499 70.888927 
L 167.923499 70.362241 
L 168.171308 70.362241 
L 168.222494 69.308869 
L 168.293904 69.308869 
L 168.293904 68.255497 
L 168.726264 68.255497 
L 168.726264 67.728811 
L 168.86475 67.728811 
L 168.86475 67.202125 
L 169.503198 67.202125 
L 169.60737 66.148752 
L 169.823193 66.148752 
L 169.86976 62.988636 
L 169.953269 62.988636 
L 169.99949 60.881892 
L 170.100748 60.881892 
L 170.100748 60.355206 
L 170.301516 60.355206 
L 170.301516 59.301833 
L 170.499999 59.301833 
L 170.5984 58.248461 
L 170.660731 58.248461 
L 170.749391 54.561659 
L 170.951613 54.561659 
L 171.047505 53.508287 
L 171.272086 53.508287 
L 171.272086 52.9816 
L 171.408865 52.9816 
L 171.451389 51.401542 
L 171.553027 51.401542 
L 171.620458 49.294798 
L 171.91244 49.294798 
L 171.970255 47.188054 
L 172.506141 47.188054 
L 172.506141 46.134681 
L 172.696997 46.134681 
L 172.791647 45.081309 
L 172.83878 45.081309 
L 172.83878 44.027937 
L 173.041565 44.027937 
L 173.041565 43.501251 
L 173.356625 43.501251 
L 173.356625 42.447879 
L 173.733298 42.447879 
L 173.733298 41.394507 
L 174.830834 41.394507 
L 174.907643 40.341135 
L 175.170413 40.341135 
L 175.170413 39.287762 
L 175.537141 39.287762 
L 175.604215 37.181018 
L 175.657689 37.181018 
L 175.657689 36.654332 
L 176.053603 36.654332 
L 176.053603 35.60096 
L 176.523485 35.60096 
L 176.523485 34.547588 
L 176.668945 34.547588 
L 176.775685 32.440843 
L 176.97485 32.440843 
L 176.97485 31.387471 
L 177.098184 31.387471 
L 177.098184 30.334099 
L 338.688 30.334099 
L 338.688 30.334099 
" style="fill:none;stroke:#ff00ff;stroke-linecap:square;stroke-width:1.5;"/>
   </g>
   <g id="line2d_40">
    <defs>
     <path d="M -0 8.485281 
L 5.091169 0 
L 0 -8.485281 
L -5.091169 -0 
z
" id="m16dc91a062" style="stroke:#ff00ff;stroke-linejoin:miter;stroke-width:1.5;"/>
    </defs>
    <g>
     <use style="fill-opacity:0;stroke:#ff00ff;stroke-linejoin:miter;stroke-width:1.5;" x="145.365173" xlink:href="#m16dc91a062" y="223.627891"/>
     <use style="fill-opacity:0;stroke:#ff00ff;stroke-linejoin:miter;stroke-width:1.5;" x="165.083779" xlink:href="#m16dc91a062" y="103.016778"/>
     <use style="fill-opacity:0;stroke:#ff00ff;stroke-linejoin:miter;stroke-width:1.5;" x="177.098184" xlink:href="#m16dc91a062" y="31.387471"/>
     <use style="fill-opacity:0;stroke:#ff00ff;stroke-linejoin:miter;stroke-width:1.5;" x="177.098184" xlink:href="#m16dc91a062" y="30.334099"/>
     <use style="fill-opacity:0;stroke:#ff00ff;stroke-linejoin:miter;stroke-width:1.5;" x="177.098184" xlink:href="#m16dc91a062" y="30.334099"/>
     <use style="fill-opacity:0;stroke:#ff00ff;stroke-linejoin:miter;stroke-width:1.5;" x="338.688" xlink:href="#m16dc91a062" y="30.334099"/>
    </g>
   </g>
   <g id="line2d_41">
    <path style="fill:none;stroke:#ff00ff;stroke-linecap:square;stroke-width:1.5;"/>
    <g/>
   </g>
   <g id="line2d_42">
    <defs>
     <path d="M 0 1.5 
C 0.397805 1.5 0.77937 1.341951 1.06066 1.06066 
C 1.341951 0.77937 1.5 0.397805 1.5 0 
C 1.5 -0.397805 1.341951 -0.77937 1.06066 -1.06066 
C 0.77937 -1.341951 0.397805 -1.5 0 -1.5 
C -0.397805 -1.5 -0.77937 -1.341951 -1.06066 -1.06066 
C -1.341951 -0.77937 -1.5 -0.397805 -1.5 0 
C -1.5 0.397805 -1.341951 0.77937 -1.06066 1.06066 
C -0.77937 1.341951 -0.397805 1.5 0 1.5 
z
" id="mb454343c74" style="stroke:#ff7500;"/>
    </defs>
    <g>
     <use style="fill:#ff7500;stroke:#ff7500;" x="175.046437" xlink:href="#mb454343c74" y="30.334099"/>
     <use style="fill:#ff7500;stroke:#ff7500;" x="175.046437" xlink:href="#mb454343c74" y="30.334099"/>
    </g>
   </g>
   <g id="line2d_43">
    <path d="M 38.440992 298.944 
L 38.440992 298.417314 
L 62.616969 298.417314 
L 62.616969 292.623767 
L 88.846997 292.623767 
L 88.846997 291.043709 
L 91.535274 291.043709 
L 91.535274 290.517023 
L 95.918017 290.517023 
L 95.918017 289.463651 
L 97.755429 289.463651 
L 97.755429 286.303534 
L 99.41757 286.303534 
L 99.41757 285.250162 
L 99.938184 285.250162 
L 99.938184 284.19679 
L 100.443706 284.19679 
L 100.443706 283.670104 
L 103.623262 283.670104 
L 103.623262 283.143418 
L 104.033617 283.143418 
L 104.033617 282.616732 
L 107.680028 282.616732 
L 107.680028 281.563359 
L 108.006005 281.563359 
L 108.006005 279.983301 
L 108.326001 279.983301 
L 108.326001 279.456615 
L 109.252198 279.456615 
L 109.252198 276.823185 
L 110.131676 276.823185 
L 110.131676 276.296499 
L 111.239304 276.296499 
L 111.239304 275.243126 
L 113.26352 275.243126 
L 113.26352 274.189754 
L 115.291007 274.189754 
L 115.291007 273.136382 
L 115.502395 273.136382 
L 115.502395 272.609696 
L 115.711251 272.609696 
L 115.711251 272.08301 
L 116.323218 272.08301 
L 116.323218 271.556324 
L 116.914437 271.556324 
L 116.914437 271.029638 
L 118.220662 271.029638 
L 118.220662 269.976266 
L 118.751849 269.976266 
L 118.751849 268.396207 
L 119.097192 268.396207 
L 119.097192 266.289463 
L 119.602714 266.289463 
L 119.602714 265.236091 
L 119.768017 265.236091 
L 119.768017 261.549288 
L 120.883236 261.549288 
L 120.883236 260.495916 
L 121.189196 260.495916 
L 121.189196 259.96923 
L 122.503236 259.96923 
L 122.503236 259.442544 
L 122.643312 259.442544 
L 122.643312 257.3358 
L 122.782271 257.3358 
L 122.782271 256.809114 
L 123.056911 256.809114 
L 123.056911 256.282427 
L 123.192626 256.282427 
L 123.192626 255.229055 
L 123.593547 255.229055 
L 123.593547 254.702369 
L 123.725164 254.702369 
L 123.725164 252.068939 
L 124.114161 252.068939 
L 124.114161 251.015567 
L 124.241922 251.015567 
L 124.241922 249.962195 
L 125.23165 249.962195 
L 125.23165 247.85545 
L 125.470548 247.85545 
L 125.470548 247.328764 
L 125.706218 247.328764 
L 125.706218 245.748706 
L 127.48501 245.748706 
L 127.48501 245.22202 
L 129.290685 245.22202 
L 129.290685 244.695334 
L 129.853291 244.695334 
L 129.853291 243.115275 
L 130.036864 243.115275 
L 130.036864 242.588589 
L 130.218525 242.588589 
L 130.218525 240.481845 
L 130.926816 240.481845 
L 130.926816 239.955159 
L 131.856005 239.955159 
L 131.856005 238.375101 
L 132.181982 238.375101 
L 132.181982 237.321729 
L 133.201197 237.321729 
L 133.201197 236.795043 
L 133.428175 236.795043 
L 133.428175 236.268356 
L 134.236034 236.268356 
L 134.236034 235.74167 
L 134.591225 235.74167 
L 134.591225 235.214984 
L 134.7313 235.214984 
L 134.7313 234.688298 
L 135.212889 234.688298 
L 135.212889 233.10824 
L 135.482227 233.10824 
L 135.482227 232.054868 
L 137.138292 232.054868 
L 137.138292 231.528182 
L 137.499118 231.528182 
L 137.499118 231.001496 
L 138.026733 231.001496 
L 138.026733 230.47481 
L 138.256201 230.47481 
L 138.256201 229.948123 
L 138.482688 229.948123 
L 138.482688 229.421437 
L 138.761723 229.421437 
L 138.816998 227.314693 
L 139.090775 227.314693 
L 139.090775 226.788007 
L 139.887228 226.788007 
L 139.990725 225.734635 
L 140.993259 225.734635 
L 140.993259 224.681263 
L 141.80232 224.681263 
L 141.80232 223.627891 
L 142.441528 223.627891 
L 142.441528 223.101204 
L 143.527762 223.101204 
L 143.527762 222.574518 
L 144.026061 222.574518 
L 144.026061 221.521146 
L 144.310293 221.521146 
L 144.310293 220.99446 
L 144.470655 220.99446 
L 144.470655 220.467774 
L 145.289185 220.467774 
L 145.289185 219.941088 
L 145.403044 219.941088 
L 145.403044 219.414402 
L 145.961446 219.414402 
L 145.961446 218.887716 
L 146.395642 218.887716 
L 146.466968 217.834344 
L 146.749392 217.834344 
L 146.819289 213.094169 
L 146.888907 213.094169 
L 146.888907 212.567483 
L 147.334773 212.567483 
L 147.334773 212.040797 
L 147.50327 212.040797 
L 147.50327 211.514111 
L 147.70334 211.514111 
L 147.70334 210.987425 
L 148.48143 210.987425 
L 148.48143 210.460738 
L 148.639252 210.460738 
L 148.670646 209.407366 
L 148.888835 209.407366 
L 148.888835 208.88068 
L 149.256637 208.88068 
L 149.256637 208.353994 
L 149.437669 208.353994 
L 149.467659 207.300622 
L 150.287105 207.300622 
L 150.372662 205.720564 
L 150.401087 205.720564 
L 150.401087 205.193878 
L 150.79426 205.193878 
L 150.79426 204.140506 
L 151.015013 204.140506 
L 151.069768 203.087133 
L 151.367883 203.087133 
L 151.367883 202.560447 
L 151.634543 202.560447 
L 151.660987 200.453703 
L 151.818809 200.453703 
L 151.871101 199.400331 
L 151.949246 199.400331 
L 151.949246 198.873645 
L 152.207228 198.873645 
L 152.283884 197.293586 
L 152.436193 197.293586 
L 152.436193 196.7669 
L 152.712018 196.7669 
L 152.712018 195.186842 
L 153.032466 195.186842 
L 153.032466 193.606784 
L 153.202607 193.606784 
L 153.29909 190.446667 
L 153.466662 190.446667 
L 153.561699 189.393295 
L 153.679772 189.393295 
L 153.679772 188.339923 
L 153.983071 188.339923 
L 153.983071 187.813237 
L 154.371897 187.813237 
L 154.417077 186.759865 
L 154.529516 186.759865 
L 154.551917 185.179807 
L 155.146121 185.179807 
L 155.232454 181.493004 
L 155.296925 181.493004 
L 155.296925 180.966318 
L 155.425155 180.966318 
L 155.531298 179.38626 
L 155.573575 179.38626 
L 155.594676 178.332888 
L 155.720743 178.332888 
L 155.783437 176.226143 
L 155.908152 176.226143 
L 155.928852 175.172771 
L 156.134506 175.172771 
L 156.195732 173.592713 
L 156.43851 173.592713 
L 156.43851 172.539341 
L 156.618401 172.539341 
L 156.677955 171.485969 
L 156.737306 171.485969 
L 156.796456 169.90591 
L 157.011638 169.90591 
L 157.089232 168.325852 
L 157.147202 168.325852 
L 157.224197 166.219108 
L 157.262567 166.219108 
L 157.358125 164.112363 
L 157.528821 164.112363 
L 157.528821 163.585677 
L 157.716543 163.585677 
L 157.79107 162.005619 
L 157.86528 162.005619 
L 157.86528 161.478933 
L 158.159001 161.478933 
L 158.267884 156.738758 
L 158.39406 156.738758 
L 158.501489 155.685386 
L 158.608261 155.685386 
L 158.608261 154.632014 
L 158.767202 154.632014 
L 158.83738 151.998584 
L 158.907277 151.998584 
L 158.907277 151.471897 
L 159.046236 151.471897 
L 159.115303 148.838467 
L 159.388866 148.838467 
L 159.456591 146.731723 
L 159.658204 146.731723 
L 159.658204 146.205037 
L 159.791329 146.205037 
L 159.89051 144.624978 
L 159.93989 144.624978 
L 159.93989 144.098292 
L 160.103486 144.098292 
L 160.103486 143.571606 
L 160.249422 143.571606 
L 160.281688 141.991548 
L 160.394148 141.991548 
L 160.458086 140.41149 
L 160.569418 140.41149 
L 160.680044 139.358118 
L 160.727241 139.358118 
L 160.80562 136.724687 
L 160.852479 136.724687 
L 160.86807 134.091257 
L 160.992304 134.091257 
L 161.100288 132.511199 
L 161.192316 132.511199 
L 161.299072 130.404454 
L 161.359783 130.404454 
L 161.450455 126.190966 
L 161.615474 126.190966 
L 161.630398 125.137593 
L 161.749336 125.137593 
L 161.749336 123.557535 
L 161.955547 123.557535 
L 162.014019 121.450791 
L 162.086834 121.450791 
L 162.188268 119.870733 
L 162.260361 119.870733 
L 162.346481 115.657244 
L 162.389382 115.657244 
L 162.46065 112.497128 
L 162.517456 112.497128 
L 162.616422 109.337011 
L 162.658665 109.337011 
L 162.742845 107.230267 
L 162.770815 107.230267 
L 162.868358 103.543464 
L 162.9377 103.543464 
L 163.034316 100.383348 
L 163.157756 100.383348 
L 163.253165 96.169859 
L 163.307451 96.169859 
L 163.375071 90.902998 
L 163.482721 90.902998 
L 163.589711 86.162824 
L 163.616356 86.162824 
L 163.642961 84.056079 
L 163.762182 84.056079 
L 163.762182 83.529393 
L 164.011225 83.529393 
L 164.037234 82.476021 
L 164.179597 82.476021 
L 164.205356 80.369277 
L 164.333587 80.369277 
L 164.435497 75.102416 
L 164.448194 75.102416 
L 164.51154 73.522358 
L 164.725213 73.522358 
L 164.725213 72.995672 
L 164.837283 72.995672 
L 164.837283 72.468985 
L 164.985598 72.468985 
L 164.997901 71.415613 
L 165.169236 71.415613 
L 165.254276 66.148752 
L 165.35096 66.148752 
L 165.35096 65.622066 
L 165.506937 65.622066 
L 165.506937 64.042008 
L 165.637836 64.042008 
L 165.637836 63.515322 
L 165.76776 63.515322 
L 165.76776 62.46195 
L 166.117256 62.46195 
L 166.117256 61.935264 
L 166.369174 61.935264 
L 166.369174 60.881892 
L 167.449146 60.881892 
L 167.555679 59.301833 
L 167.76681 59.301833 
L 167.819196 57.721775 
L 167.902688 57.721775 
L 167.996141 56.141717 
L 168.047843 56.141717 
L 168.047843 54.561659 
L 168.171308 54.561659 
L 168.242927 53.508287 
L 168.445948 53.508287 
L 168.445948 52.9816 
L 168.686493 52.9816 
L 168.696445 49.821484 
L 169.379278 49.821484 
L 169.3984 48.768112 
L 169.503198 48.768112 
L 169.503198 48.241426 
L 169.860457 48.241426 
L 169.916203 45.081309 
L 170.455087 45.081309 
L 170.455087 44.554623 
L 170.784729 44.554623 
L 170.784729 43.501251 
L 171.003983 43.501251 
L 171.003983 42.447879 
L 171.177424 42.447879 
L 171.177424 41.921193 
L 171.297814 41.921193 
L 171.297814 41.394507 
L 171.679247 41.394507 
L 171.679247 40.867821 
L 171.904165 40.867821 
L 171.904165 40.341135 
L 172.649478 40.341135 
L 172.649478 39.814448 
L 172.775907 39.814448 
L 172.854463 38.23439 
L 173.118935 38.23439 
L 173.118935 37.707704 
L 173.55351 37.707704 
L 173.55351 36.127646 
L 174.028886 36.127646 
L 174.028886 35.074274 
L 174.398638 35.074274 
L 174.470228 33.494215 
L 174.626698 33.494215 
L 174.718503 32.440843 
L 174.921573 32.440843 
L 174.921573 31.387471 
L 175.046437 31.387471 
L 175.046437 30.334099 
L 338.688 30.334099 
L 338.688 30.334099 
" style="fill:none;stroke:#ff7500;stroke-linecap:square;stroke-width:1.5;"/>
   </g>
   <g id="line2d_44">
    <defs>
     <path d="M 0 -6 
L -1.347084 -1.854102 
L -5.706339 -1.854102 
L -2.179628 0.708204 
L -3.526712 4.854102 
L -0 2.291796 
L 3.526712 4.854102 
L 2.179628 0.708204 
L 5.706339 -1.854102 
L 1.347084 -1.854102 
z
" id="mde43ba6610" style="stroke:#ff7500;stroke-linejoin:bevel;stroke-width:1.5;"/>
    </defs>
    <g>
     <use style="fill-opacity:0;stroke:#ff7500;stroke-linejoin:bevel;stroke-width:1.5;" x="124.241922" xlink:href="#mde43ba6610" y="251.015567"/>
     <use style="fill-opacity:0;stroke:#ff7500;stroke-linejoin:bevel;stroke-width:1.5;" x="161.450455" xlink:href="#mde43ba6610" y="126.190966"/>
     <use style="fill-opacity:0;stroke:#ff7500;stroke-linejoin:bevel;stroke-width:1.5;" x="175.046437" xlink:href="#mde43ba6610" y="31.387471"/>
     <use style="fill-opacity:0;stroke:#ff7500;stroke-linejoin:bevel;stroke-width:1.5;" x="175.046437" xlink:href="#mde43ba6610" y="30.334099"/>
     <use style="fill-opacity:0;stroke:#ff7500;stroke-linejoin:bevel;stroke-width:1.5;" x="175.046437" xlink:href="#mde43ba6610" y="30.334099"/>
     <use style="fill-opacity:0;stroke:#ff7500;stroke-linejoin:bevel;stroke-width:1.5;" x="338.688" xlink:href="#mde43ba6610" y="30.334099"/>
    </g>
   </g>
   <g id="line2d_45">
    <path style="fill:none;stroke:#ff7500;stroke-linecap:square;stroke-width:1.5;"/>
    <g/>
   </g>
   <g id="line2d_46">
    <defs>
     <path d="M 0 1.5 
C 0.397805 1.5 0.77937 1.341951 1.06066 1.06066 
C 1.341951 0.77937 1.5 0.397805 1.5 0 
C 1.5 -0.397805 1.341951 -0.77937 1.06066 -1.06066 
C 0.77937 -1.341951 0.397805 -1.5 0 -1.5 
C -0.397805 -1.5 -0.77937 -1.341951 -1.06066 -1.06066 
C -1.341951 -0.77937 -1.5 -0.397805 -1.5 0 
C -1.5 0.397805 -1.341951 0.77937 -1.06066 1.06066 
C -0.77937 1.341951 -0.397805 1.5 0 1.5 
z
" id="m821db2b814" style="stroke:#6495ed;"/>
    </defs>
    <g>
     <use style="fill:#6495ed;stroke:#6495ed;" x="179.717854" xlink:href="#m821db2b814" y="30.334099"/>
     <use style="fill:#6495ed;stroke:#6495ed;" x="179.717854" xlink:href="#m821db2b814" y="30.334099"/>
    </g>
   </g>
   <g id="line2d_47">
    <path d="M 38.440992 298.944 
L 38.440992 298.417314 
L 62.616969 298.417314 
L 62.616969 291.043709 
L 94.575872 291.043709 
L 94.575872 289.990337 
L 98.880934 289.990337 
L 98.880934 289.463651 
L 102.330873 289.463651 
L 102.330873 288.936964 
L 102.772397 288.936964 
L 102.772397 287.883592 
L 107.009204 287.883592 
L 107.009204 287.356906 
L 107.680028 287.356906 
L 107.680028 285.776848 
L 108.006005 285.776848 
L 108.006005 285.250162 
L 108.640231 285.250162 
L 108.640231 284.723476 
L 110.131676 284.723476 
L 110.131676 284.19679 
L 110.415248 284.19679 
L 110.415248 283.143418 
L 110.968922 283.143418 
L 110.968922 282.090045 
L 111.239304 282.090045 
L 111.239304 281.563359 
L 112.531694 281.563359 
L 112.531694 281.036673 
L 112.779064 281.036673 
L 112.779064 279.456615 
L 113.022974 279.456615 
L 113.022974 277.876557 
L 113.965867 277.876557 
L 113.965867 275.769812 
L 114.418861 275.769812 
L 114.418861 273.136382 
L 115.291007 273.136382 
L 115.291007 272.08301 
L 115.917635 272.08301 
L 115.917635 270.502952 
L 117.297733 270.502952 
L 117.297733 269.976266 
L 118.399528 269.976266 
L 118.399528 269.449579 
L 119.097192 269.449579 
L 119.097192 268.922893 
L 119.267333 268.922893 
L 119.267333 267.869521 
L 119.768017 267.869521 
L 119.768017 267.342835 
L 119.931767 267.342835 
L 119.931767 266.289463 
L 120.254726 266.289463 
L 120.254726 265.762777 
L 121.036887 265.762777 
L 121.036887 264.709405 
L 121.931406 264.709405 
L 121.931406 264.182719 
L 122.920132 264.182719 
L 122.920132 263.129347 
L 123.327293 263.129347 
L 123.327293 261.549288 
L 123.460928 261.549288 
L 123.460928 260.495916 
L 123.855796 260.495916 
L 123.855796 259.442544 
L 125.110962 259.442544 
L 125.110962 257.862486 
L 125.23165 257.862486 
L 125.23165 257.3358 
L 125.351508 257.3358 
L 125.351508 256.282427 
L 125.470548 256.282427 
L 125.470548 255.229055 
L 125.588781 255.229055 
L 125.588781 254.702369 
L 125.938745 254.702369 
L 125.938745 252.068939 
L 126.3947 252.068939 
L 126.3947 251.542253 
L 126.839037 251.542253 
L 126.839037 250.488881 
L 127.378995 250.488881 
L 127.378995 249.962195 
L 127.799239 249.962195 
L 127.799239 249.435508 
L 128.807571 249.435508 
L 128.807571 248.908822 
L 129.195127 248.908822 
L 129.195127 248.382136 
L 129.574256 248.382136 
L 129.574256 247.328764 
L 130.036864 247.328764 
L 130.127931 245.748706 
L 130.30865 245.748706 
L 130.30865 243.115275 
L 131.013364 243.115275 
L 131.013364 242.588589 
L 131.439773 242.588589 
L 131.439773 241.535217 
L 134.37898 241.535217 
L 134.37898 241.008531 
L 135.076644 241.008531 
L 135.144899 239.955159 
L 135.415281 239.955159 
L 135.415281 239.428473 
L 137.077422 239.428473 
L 137.077422 238.375101 
L 137.37967 238.375101 
L 137.37967 237.848415 
L 138.369812 237.848415 
L 138.369812 237.321729 
L 140.89556 237.321729 
L 140.89556 236.795043 
L 142.441528 236.795043 
L 142.441528 236.268356 
L 145.020588 236.268356 
L 145.020588 235.74167 
L 150.51433 235.74167 
L 150.51433 234.161612 
L 150.79426 234.161612 
L 150.79426 233.634926 
L 151.097081 233.634926 
L 151.097081 232.581554 
L 151.233007 232.581554 
L 151.287083 231.528182 
L 151.581536 231.528182 
L 151.581536 231.001496 
L 151.844975 231.001496 
L 151.871101 229.948123 
L 152.078714 229.948123 
L 152.078714 229.421437 
L 152.207228 229.421437 
L 152.207228 228.894751 
L 152.835965 228.894751 
L 152.835965 228.368065 
L 153.29909 228.368065 
L 153.29909 227.841379 
L 153.466662 227.841379 
L 153.466662 227.314693 
L 153.632638 227.314693 
L 153.632638 226.788007 
L 153.773658 226.788007 
L 153.867041 225.734635 
L 154.417077 225.734635 
L 154.417077 225.207949 
L 154.906477 225.207949 
L 154.906477 224.681263 
L 155.189341 224.681263 
L 155.189341 223.627891 
L 155.361158 223.627891 
L 155.46769 222.574518 
L 155.531298 222.574518 
L 155.531298 221.521146 
L 155.657823 221.521146 
L 155.762564 219.941088 
L 155.86668 219.941088 
L 155.908152 218.36103 
L 156.052535 218.36103 
L 156.052535 217.834344 
L 156.195732 217.834344 
L 156.236431 215.200913 
L 156.398281 215.200913 
L 156.398281 214.674227 
L 157.262567 214.674227 
L 157.300853 213.620855 
L 157.547684 213.620855 
L 157.566527 212.567483 
L 157.716543 212.567483 
L 157.716543 211.514111 
L 158.012759 211.514111 
L 158.012759 210.987425 
L 158.376091 210.987425 
L 158.465753 208.88068 
L 158.661402 208.88068 
L 158.67908 207.827308 
L 158.959517 207.827308 
L 158.959517 206.773936 
L 159.201253 206.773936 
L 159.252621 205.720564 
L 159.337899 205.720564 
L 159.337899 205.193878 
L 159.608019 205.193878 
L 159.708245 203.613819 
L 159.724893 203.613819 
L 159.724893 203.087133 
L 159.84099 203.087133 
L 159.84099 202.560447 
L 160.233268 202.560447 
L 160.233268 202.033761 
L 160.394148 202.033761 
L 160.394148 201.507075 
L 160.553557 201.507075 
L 160.553557 200.980389 
L 160.961329 200.980389 
L 161.023225 198.346959 
L 161.207607 198.346959 
L 161.314269 196.7669 
L 161.465522 196.7669 
L 161.540659 194.13347 
L 161.64531 194.13347 
L 161.689969 193.080098 
L 161.764147 193.080098 
L 161.852746 189.919981 
L 161.911563 189.919981 
L 161.955547 188.866609 
L 162.072295 188.866609 
L 162.144868 187.813237 
L 162.375093 187.813237 
L 162.403659 184.126434 
L 162.574077 184.126434 
L 162.658665 182.01969 
L 162.756836 182.01969 
L 162.826621 180.439632 
L 162.882249 180.439632 
L 162.951535 179.38626 
L 163.006766 179.38626 
L 163.103002 176.752829 
L 163.225959 176.752829 
L 163.33453 174.119399 
L 163.402046 174.119399 
L 163.50953 171.485969 
L 163.576373 171.485969 
L 163.682792 169.379224 
L 163.709295 169.379224 
L 163.775378 167.799166 
L 164.037234 167.799166 
L 164.037234 167.27248 
L 164.205356 167.27248 
L 164.282408 163.058991 
L 164.346358 163.058991 
L 164.435497 161.478933 
L 164.498889 161.478933 
L 164.574657 159.898875 
L 164.75018 159.898875 
L 164.849691 158.845503 
L 164.874481 158.845503 
L 164.973287 153.578642 
L 164.985598 153.578642 
L 165.022481 150.945211 
L 165.132663 150.945211 
L 165.18141 149.891839 
L 165.278497 149.891839 
L 165.326839 147.785095 
L 165.399101 147.785095 
L 165.471066 145.151665 
L 165.518877 145.151665 
L 165.602233 142.518234 
L 165.637836 142.518234 
L 165.685193 141.464862 
L 165.885039 141.464862 
L 165.966667 139.358118 
L 166.047915 139.358118 
L 166.140309 136.198001 
L 166.163331 136.198001 
L 166.266556 133.564571 
L 166.312239 133.564571 
L 166.346422 131.984513 
L 166.516342 131.984513 
L 166.617505 129.877768 
L 166.740356 129.877768 
L 166.740356 129.351082 
L 166.928532 129.351082 
L 166.994465 127.244338 
L 167.223287 127.244338 
L 167.223287 126.717652 
L 167.341959 126.717652 
L 167.395635 125.137593 
L 167.587512 125.137593 
L 167.693205 124.084221 
L 167.745812 124.084221 
L 167.756314 123.030849 
L 167.902688 123.030849 
L 167.902688 121.977477 
L 168.078792 121.977477 
L 168.181557 119.870733 
L 168.273531 119.870733 
L 168.344733 117.763988 
L 168.60668 117.763988 
L 168.686493 116.18393 
L 168.795644 116.18393 
L 168.854895 111.970441 
L 169.099626 111.970441 
L 169.099626 111.443755 
L 169.321786 111.443755 
L 169.427043 109.337011 
L 169.436581 109.337011 
L 169.436581 108.810325 
L 169.776502 108.810325 
L 169.879059 107.230267 
L 169.897641 107.230267 
L 170.008719 104.596836 
L 170.045589 104.596836 
L 170.155732 102.490092 
L 170.228776 102.490092 
L 170.24699 100.910034 
L 170.562682 100.910034 
L 170.642945 98.276603 
L 170.696249 98.276603 
L 170.775901 95.643173 
L 170.916612 95.643173 
L 171.021405 94.063115 
L 171.116915 94.063115 
L 171.142873 91.95637 
L 171.280666 91.95637 
L 171.280666 91.429684 
L 171.485334 91.429684 
L 171.595202 90.376312 
L 171.637275 90.376312 
L 171.637275 89.849626 
L 171.837825 89.849626 
L 171.837825 89.32294 
L 171.978498 89.32294 
L 172.027878 87.216196 
L 172.12622 87.216196 
L 172.12622 86.68951 
L 172.321256 86.68951 
L 172.321256 86.162824 
L 172.434028 86.162824 
L 172.538095 83.529393 
L 172.60183 83.529393 
L 172.712807 81.422649 
L 172.720707 81.422649 
L 172.815229 78.789218 
L 172.870132 78.789218 
L 172.97942 73.522358 
L 173.041565 73.522358 
L 173.041565 72.995672 
L 173.172891 72.995672 
L 173.195964 71.415613 
L 173.371849 71.415613 
L 173.371849 70.362241 
L 173.523365 70.362241 
L 173.523365 69.835555 
L 173.733298 69.835555 
L 173.837325 68.782183 
L 173.859536 68.782183 
L 173.955458 66.675439 
L 174.116595 66.675439 
L 174.116595 65.09538 
L 174.240098 65.09538 
L 174.26903 62.46195 
L 174.598353 62.46195 
L 174.69736 59.301833 
L 174.956347 59.301833 
L 174.977178 58.248461 
L 175.108535 58.248461 
L 175.142939 57.195089 
L 175.225232 57.195089 
L 175.300328 53.508287 
L 175.388663 53.508287 
L 175.436043 52.454914 
L 175.503506 52.454914 
L 175.503506 51.928228 
L 175.651014 51.928228 
L 175.671032 50.874856 
L 175.85017 50.874856 
L 175.955464 49.821484 
L 176.066647 49.821484 
L 176.066647 48.768112 
L 176.203019 48.768112 
L 176.209486 46.661368 
L 176.466234 46.661368 
L 176.466234 46.134681 
L 177.541091 46.134681 
L 177.648594 44.554623 
L 177.725824 44.554623 
L 177.826305 42.974565 
L 177.873391 42.974565 
L 177.92621 40.867821 
L 178.002224 40.867821 
L 178.054656 39.814448 
L 178.268566 39.814448 
L 178.348826 38.23439 
L 178.417327 38.23439 
L 178.525241 36.654332 
L 178.570479 36.654332 
L 178.570479 35.60096 
L 178.939282 35.60096 
L 178.939282 35.074274 
L 179.082454 35.074274 
L 179.18634 34.020902 
L 179.251636 34.020902 
L 179.322098 32.440843 
L 179.408431 32.440843 
L 179.408431 31.387471 
L 179.717854 31.387471 
L 179.717854 30.334099 
L 338.688 30.334099 
L 338.688 30.334099 
" style="fill:none;stroke:#6495ed;stroke-linecap:square;stroke-width:1.5;"/>
   </g>
   <g id="line2d_48">
    <defs>
     <path d="M -0 6 
L 6 -6 
L -6 -6 
z
" id="me2e4d210e1" style="stroke:#6495ed;stroke-linejoin:miter;stroke-width:1.5;"/>
    </defs>
    <g>
     <use style="fill-opacity:0;stroke:#6495ed;stroke-linejoin:miter;stroke-width:1.5;" x="98.880934" xlink:href="#me2e4d210e1" y="289.463651"/>
     <use style="fill-opacity:0;stroke:#6495ed;stroke-linejoin:miter;stroke-width:1.5;" x="151.097081" xlink:href="#me2e4d210e1" y="233.634926"/>
     <use style="fill-opacity:0;stroke:#6495ed;stroke-linejoin:miter;stroke-width:1.5;" x="171.837825" xlink:href="#me2e4d210e1" y="89.32294"/>
     <use style="fill-opacity:0;stroke:#6495ed;stroke-linejoin:miter;stroke-width:1.5;" x="179.717854" xlink:href="#me2e4d210e1" y="31.387471"/>
     <use style="fill-opacity:0;stroke:#6495ed;stroke-linejoin:miter;stroke-width:1.5;" x="179.717854" xlink:href="#me2e4d210e1" y="30.334099"/>
     <use style="fill-opacity:0;stroke:#6495ed;stroke-linejoin:miter;stroke-width:1.5;" x="338.688" xlink:href="#me2e4d210e1" y="30.334099"/>
    </g>
   </g>
   <g id="line2d_49">
    <path style="fill:none;stroke:#6495ed;stroke-linecap:square;stroke-width:1.5;"/>
    <g/>
   </g>
   <g id="line2d_50">
    <path d="M 338.688 30.334099 
L 369.60768 293.571802 
" style="fill:none;stroke:#6495ed;stroke-linecap:square;stroke-width:1.5;"/>
    <g>
     <use style="fill-opacity:0;stroke:#6495ed;stroke-linejoin:miter;stroke-width:1.5;" x="338.688" xlink:href="#me2e4d210e1" y="30.334099"/>
     <use style="fill-opacity:0;stroke:#6495ed;stroke-linejoin:miter;stroke-width:1.5;" x="369.60768" xlink:href="#me2e4d210e1" y="293.571802"/>
    </g>
   </g>
   <g id="line2d_51">
    <path d="M 338.688 30.334099 
L 369.60768 229.105426 
" style="fill:none;stroke:#ff00ff;stroke-linecap:square;stroke-width:1.5;"/>
    <g>
     <use style="fill-opacity:0;stroke:#ff00ff;stroke-linejoin:miter;stroke-width:1.5;" x="338.688" xlink:href="#m16dc91a062" y="30.334099"/>
     <use style="fill-opacity:0;stroke:#ff00ff;stroke-linejoin:miter;stroke-width:1.5;" x="369.60768" xlink:href="#m16dc91a062" y="229.105426"/>
    </g>
   </g>
   <g id="line2d_52">
    <path d="M 338.688 30.334099 
L 369.60768 164.63905 
" style="fill:none;stroke:#ff7500;stroke-linecap:square;stroke-width:1.5;"/>
    <g>
     <use style="fill-opacity:0;stroke:#ff7500;stroke-linejoin:bevel;stroke-width:1.5;" x="338.688" xlink:href="#mde43ba6610" y="30.334099"/>
     <use style="fill-opacity:0;stroke:#ff7500;stroke-linejoin:bevel;stroke-width:1.5;" x="369.60768" xlink:href="#mde43ba6610" y="164.63905"/>
    </g>
   </g>
   <g id="line2d_53">
    <path d="M 338.688 30.334099 
L 369.60768 100.172673 
" style="fill:none;stroke:#000080;stroke-linecap:square;stroke-width:1.5;"/>
    <g>
     <use style="fill-opacity:0;stroke:#000080;stroke-width:1.5;" x="338.688" xlink:href="#m2dfcace6dc" y="30.334099"/>
     <use style="fill-opacity:0;stroke:#000080;stroke-width:1.5;" x="369.60768" xlink:href="#m2dfcace6dc" y="100.172673"/>
    </g>
   </g>
   <g id="line2d_54">
    <path d="M 338.688 298.944 
L 338.688 30.334099 
" style="fill:none;stroke:#000000;stroke-linecap:square;stroke-width:1.5;"/>
   </g>
   <g id="patch_3">
    <path d="M 57.6 298.944 
L 57.6 27.648 
" style="fill:none;stroke:#000000;stroke-linecap:square;stroke-linejoin:miter;stroke-width:0.8;"/>
   </g>
   <g id="patch_4">
    <path d="M 338.688 298.944 
L 338.688 27.648 
" style="fill:none;stroke:#000000;stroke-linecap:square;stroke-linejoin:miter;stroke-width:0.8;"/>
   </g>
   <g id="patch_5">
    <path d="M 57.6 298.944 
L 338.688 298.944 
" style="fill:none;stroke:#000000;stroke-linecap:square;stroke-linejoin:miter;stroke-width:0.8;"/>
   </g>
   <g id="patch_6">
    <path d="M 57.6 27.648 
L 338.688 27.648 
" style="fill:none;stroke:#000000;stroke-linecap:square;stroke-linejoin:miter;stroke-width:0.8;"/>
   </g>
   <g id="text_13">
    <!-- maes red -->
    <g transform="translate(375.22944 298.262739)scale(0.17 -0.17)">
     <use xlink:href="#DejaVuSans-109"/>
     <use x="97.412109" xlink:href="#DejaVuSans-97"/>
     <use x="158.691406" xlink:href="#DejaVuSans-101"/>
     <use x="220.214844" xlink:href="#DejaVuSans-115"/>
     <use x="272.314453" xlink:href="#DejaVuSans-32"/>
     <use x="304.101562" xlink:href="#DejaVuSans-114"/>
     <use x="342.964844" xlink:href="#DejaVuSans-101"/>
     <use x="404.488281" xlink:href="#DejaVuSans-100"/>
    </g>
   </g>
   <g id="text_14">
    <!-- maes mid -->
    <g transform="translate(375.22944 233.796363)scale(0.17 -0.17)">
     <use xlink:href="#DejaVuSans-109"/>
     <use x="97.412109" xlink:href="#DejaVuSans-97"/>
     <use x="158.691406" xlink:href="#DejaVuSans-101"/>
     <use x="220.214844" xlink:href="#DejaVuSans-115"/>
     <use x="272.314453" xlink:href="#DejaVuSans-32"/>
     <use x="304.101562" xlink:href="#DejaVuSans-109"/>
     <use x="401.513672" xlink:href="#DejaVuSans-105"/>
     <use x="429.296875" xlink:href="#DejaVuSans-100"/>
    </g>
   </g>
   <g id="text_15">
    <!-- maes stp -->
    <g transform="translate(375.22944 169.329987)scale(0.17 -0.17)">
     <use xlink:href="#DejaVuSans-109"/>
     <use x="97.412109" xlink:href="#DejaVuSans-97"/>
     <use x="158.691406" xlink:href="#DejaVuSans-101"/>
     <use x="220.214844" xlink:href="#DejaVuSans-115"/>
     <use x="272.314453" xlink:href="#DejaVuSans-32"/>
     <use x="304.101562" xlink:href="#DejaVuSans-115"/>
     <use x="356.201172" xlink:href="#DejaVuSans-116"/>
     <use x="395.410156" xlink:href="#DejaVuSans-112"/>
    </g>
   </g>
   <g id="text_16">
    <!-- maes -->
    <g transform="translate(375.22944 104.863611)scale(0.17 -0.17)">
     <use xlink:href="#DejaVuSans-109"/>
     <use x="97.412109" xlink:href="#DejaVuSans-97"/>
     <use x="158.691406" xlink:href="#DejaVuSans-101"/>
     <use x="220.214844" xlink:href="#DejaVuSans-115"/>
    </g>
   </g>
   <g id="text_17">
    <!-- best 2009 -->
    <g transform="translate(375.22944 40.397235)scale(0.17 -0.17)">
     <defs>
      <path d="M 48.6875 27.296875 
Q 48.6875 37.203125 44.609375 42.84375 
Q 40.53125 48.484375 33.40625 48.484375 
Q 26.265625 48.484375 22.1875 42.84375 
Q 18.109375 37.203125 18.109375 27.296875 
Q 18.109375 17.390625 22.1875 11.75 
Q 26.265625 6.109375 33.40625 6.109375 
Q 40.53125 6.109375 44.609375 11.75 
Q 48.6875 17.390625 48.6875 27.296875 
z
M 18.109375 46.390625 
Q 20.953125 51.265625 25.265625 53.625 
Q 29.59375 56 35.59375 56 
Q 45.5625 56 51.78125 48.09375 
Q 58.015625 40.1875 58.015625 27.296875 
Q 58.015625 14.40625 51.78125 6.484375 
Q 45.5625 -1.421875 35.59375 -1.421875 
Q 29.59375 -1.421875 25.265625 0.953125 
Q 20.953125 3.328125 18.109375 8.203125 
L 18.109375 0 
L 9.078125 0 
L 9.078125 75.984375 
L 18.109375 75.984375 
z
" id="DejaVuSans-98"/>
      <path d="M 10.984375 1.515625 
L 10.984375 10.5 
Q 14.703125 8.734375 18.5 7.8125 
Q 22.3125 6.890625 25.984375 6.890625 
Q 35.75 6.890625 40.890625 13.453125 
Q 46.046875 20.015625 46.78125 33.40625 
Q 43.953125 29.203125 39.59375 26.953125 
Q 35.25 24.703125 29.984375 24.703125 
Q 19.046875 24.703125 12.671875 31.3125 
Q 6.296875 37.9375 6.296875 49.421875 
Q 6.296875 60.640625 12.9375 67.421875 
Q 19.578125 74.21875 30.609375 74.21875 
Q 43.265625 74.21875 49.921875 64.515625 
Q 56.59375 54.828125 56.59375 36.375 
Q 56.59375 19.140625 48.40625 8.859375 
Q 40.234375 -1.421875 26.421875 -1.421875 
Q 22.703125 -1.421875 18.890625 -0.6875 
Q 15.09375 0.046875 10.984375 1.515625 
z
M 30.609375 32.421875 
Q 37.25 32.421875 41.125 36.953125 
Q 45.015625 41.5 45.015625 49.421875 
Q 45.015625 57.28125 41.125 61.84375 
Q 37.25 66.40625 30.609375 66.40625 
Q 23.96875 66.40625 20.09375 61.84375 
Q 16.21875 57.28125 16.21875 49.421875 
Q 16.21875 41.5 20.09375 36.953125 
Q 23.96875 32.421875 30.609375 32.421875 
z
" id="DejaVuSans-57"/>
     </defs>
     <use xlink:href="#DejaVuSans-98"/>
     <use x="63.476562" xlink:href="#DejaVuSans-101"/>
     <use x="125" xlink:href="#DejaVuSans-115"/>
     <use x="177.099609" xlink:href="#DejaVuSans-116"/>
     <use x="216.308594" xlink:href="#DejaVuSans-32"/>
     <use x="248.095703" xlink:href="#DejaVuSans-50"/>
     <use x="311.71875" xlink:href="#DejaVuSans-48"/>
     <use x="375.341797" xlink:href="#DejaVuSans-48"/>
     <use x="438.964844" xlink:href="#DejaVuSans-57"/>
    </g>
   </g>
   <g id="text_18">
    <!-- bbob f8, 3-D -->
    <g transform="translate(60.41088 38.111366)scale(0.102 -0.102)">
     <defs>
      <path d="M 40.578125 39.3125 
Q 47.65625 37.796875 51.625 33 
Q 55.609375 28.21875 55.609375 21.1875 
Q 55.609375 10.40625 48.1875 4.484375 
Q 40.765625 -1.421875 27.09375 -1.421875 
Q 22.515625 -1.421875 17.65625 -0.515625 
Q 12.796875 0.390625 7.625 2.203125 
L 7.625 11.71875 
Q 11.71875 9.328125 16.59375 8.109375 
Q 21.484375 6.890625 26.8125 6.890625 
Q 36.078125 6.890625 40.9375 10.546875 
Q 45.796875 14.203125 45.796875 21.1875 
Q 45.796875 27.640625 41.28125 31.265625 
Q 36.765625 34.90625 28.71875 34.90625 
L 20.21875 34.90625 
L 20.21875 43.015625 
L 29.109375 43.015625 
Q 36.375 43.015625 40.234375 45.921875 
Q 44.09375 48.828125 44.09375 54.296875 
Q 44.09375 59.90625 40.109375 62.90625 
Q 36.140625 65.921875 28.71875 65.921875 
Q 24.65625 65.921875 20.015625 65.03125 
Q 15.375 64.15625 9.8125 62.3125 
L 9.8125 71.09375 
Q 15.4375 72.65625 20.34375 73.4375 
Q 25.25 74.21875 29.59375 74.21875 
Q 40.828125 74.21875 47.359375 69.109375 
Q 53.90625 64.015625 53.90625 55.328125 
Q 53.90625 49.265625 50.4375 45.09375 
Q 46.96875 40.921875 40.578125 39.3125 
z
" id="DejaVuSans-51"/>
      <path d="M 19.671875 64.796875 
L 19.671875 8.109375 
L 31.59375 8.109375 
Q 46.6875 8.109375 53.6875 14.9375 
Q 60.6875 21.78125 60.6875 36.53125 
Q 60.6875 51.171875 53.6875 57.984375 
Q 46.6875 64.796875 31.59375 64.796875 
z
M 9.8125 72.90625 
L 30.078125 72.90625 
Q 51.265625 72.90625 61.171875 64.09375 
Q 71.09375 55.28125 71.09375 36.53125 
Q 71.09375 17.671875 61.125 8.828125 
Q 51.171875 0 30.078125 0 
L 9.8125 0 
z
" id="DejaVuSans-68"/>
     </defs>
     <use xlink:href="#DejaVuSans-98"/>
     <use x="63.476562" xlink:href="#DejaVuSans-98"/>
     <use x="126.953125" xlink:href="#DejaVuSans-111"/>
     <use x="188.134766" xlink:href="#DejaVuSans-98"/>
     <use x="251.611328" xlink:href="#DejaVuSans-32"/>
     <use x="283.398438" xlink:href="#DejaVuSans-102"/>
     <use x="318.603516" xlink:href="#DejaVuSans-56"/>
     <use x="382.226562" xlink:href="#DejaVuSans-44"/>
     <use x="414.013672" xlink:href="#DejaVuSans-32"/>
     <use x="445.800781" xlink:href="#DejaVuSans-51"/>
     <use x="509.423828" xlink:href="#DejaVuSans-45"/>
     <use x="545.507812" xlink:href="#DejaVuSans-68"/>
    </g>
    <!-- 51 targets: 100..1e-08 -->
    <g transform="translate(60.41088 49.533135)scale(0.102 -0.102)">
     <defs>
      <path d="M 10.796875 72.90625 
L 49.515625 72.90625 
L 49.515625 64.59375 
L 19.828125 64.59375 
L 19.828125 46.734375 
Q 21.96875 47.46875 24.109375 47.828125 
Q 26.265625 48.1875 28.421875 48.1875 
Q 40.625 48.1875 47.75 41.5 
Q 54.890625 34.8125 54.890625 23.390625 
Q 54.890625 11.625 47.5625 5.09375 
Q 40.234375 -1.421875 26.90625 -1.421875 
Q 22.3125 -1.421875 17.546875 -0.640625 
Q 12.796875 0.140625 7.71875 1.703125 
L 7.71875 11.625 
Q 12.109375 9.234375 16.796875 8.0625 
Q 21.484375 6.890625 26.703125 6.890625 
Q 35.15625 6.890625 40.078125 11.328125 
Q 45.015625 15.765625 45.015625 23.390625 
Q 45.015625 31 40.078125 35.4375 
Q 35.15625 39.890625 26.703125 39.890625 
Q 22.75 39.890625 18.8125 39.015625 
Q 14.890625 38.140625 10.796875 36.28125 
z
" id="DejaVuSans-53"/>
      <path d="M 11.71875 12.40625 
L 22.015625 12.40625 
L 22.015625 0 
L 11.71875 0 
z
M 11.71875 51.703125 
L 22.015625 51.703125 
L 22.015625 39.3125 
L 11.71875 39.3125 
z
" id="DejaVuSans-58"/>
     </defs>
     <use xlink:href="#DejaVuSans-53"/>
     <use x="63.623047" xlink:href="#DejaVuSans-49"/>
     <use x="127.246094" xlink:href="#DejaVuSans-32"/>
     <use x="159.033203" xlink:href="#DejaVuSans-116"/>
     <use x="198.242188" xlink:href="#DejaVuSans-97"/>
     <use x="259.521484" xlink:href="#DejaVuSans-114"/>
     <use x="298.884766" xlink:href="#DejaVuSans-103"/>
     <use x="362.361328" xlink:href="#DejaVuSans-101"/>
     <use x="423.884766" xlink:href="#DejaVuSans-116"/>
     <use x="463.09375" xlink:href="#DejaVuSans-115"/>
     <use x="515.193359" xlink:href="#DejaVuSans-58"/>
     <use x="548.884766" xlink:href="#DejaVuSans-32"/>
     <use x="580.671875" xlink:href="#DejaVuSans-49"/>
     <use x="644.294922" xlink:href="#DejaVuSans-48"/>
     <use x="707.917969" xlink:href="#DejaVuSans-48"/>
     <use x="771.541016" xlink:href="#DejaVuSans-46"/>
     <use x="803.328125" xlink:href="#DejaVuSans-46"/>
     <use x="835.115234" xlink:href="#DejaVuSans-49"/>
     <use x="898.738281" xlink:href="#DejaVuSans-101"/>
     <use x="960.261719" xlink:href="#DejaVuSans-45"/>
     <use x="996.345703" xlink:href="#DejaVuSans-48"/>
     <use x="1059.96875" xlink:href="#DejaVuSans-56"/>
    </g>
    <!-- 15 instances -->
    <g transform="translate(60.41088 60.954904)scale(0.102 -0.102)">
     <use xlink:href="#DejaVuSans-49"/>
     <use x="63.623047" xlink:href="#DejaVuSans-53"/>
     <use x="127.246094" xlink:href="#DejaVuSans-32"/>
     <use x="159.033203" xlink:href="#DejaVuSans-105"/>
     <use x="186.816406" xlink:href="#DejaVuSans-110"/>
     <use x="250.195312" xlink:href="#DejaVuSans-115"/>
     <use x="302.294922" xlink:href="#DejaVuSans-116"/>
     <use x="341.503906" xlink:href="#DejaVuSans-97"/>
     <use x="402.783203" xlink:href="#DejaVuSans-110"/>
     <use x="466.162109" xlink:href="#DejaVuSans-99"/>
     <use x="521.142578" xlink:href="#DejaVuSans-101"/>
     <use x="582.666016" xlink:href="#DejaVuSans-115"/>
    </g>
   </g>
   <g id="text_19">
    <!-- v2.4 -->
    <g style="fill:#808080;" transform="translate(187.233062 294.151352)scale(0.1 -0.1)">
     <use xlink:href="#DejaVuSans-118"/>
     <use x="59.179688" xlink:href="#DejaVuSans-50"/>
     <use x="122.802734" xlink:href="#DejaVuSans-46"/>
     <use x="154.589844" xlink:href="#DejaVuSans-52"/>
    </g>
   </g>
   <g id="text_20">
    <!-- 8 Rosenbrock original -->
    <g transform="translate(90.08775 21.648)scale(0.2 -0.2)">
     <defs>
      <path d="M 44.390625 34.1875 
Q 47.5625 33.109375 50.5625 29.59375 
Q 53.5625 26.078125 56.59375 19.921875 
L 66.609375 0 
L 56 0 
L 46.6875 18.703125 
Q 43.0625 26.03125 39.671875 28.421875 
Q 36.28125 30.8125 30.421875 30.8125 
L 19.671875 30.8125 
L 19.671875 0 
L 9.8125 0 
L 9.8125 72.90625 
L 32.078125 72.90625 
Q 44.578125 72.90625 50.734375 67.671875 
Q 56.890625 62.453125 56.890625 51.90625 
Q 56.890625 45.015625 53.6875 40.46875 
Q 50.484375 35.9375 44.390625 34.1875 
z
M 19.671875 64.796875 
L 19.671875 38.921875 
L 32.078125 38.921875 
Q 39.203125 38.921875 42.84375 42.21875 
Q 46.484375 45.515625 46.484375 51.90625 
Q 46.484375 58.296875 42.84375 61.546875 
Q 39.203125 64.796875 32.078125 64.796875 
z
" id="DejaVuSans-82"/>
      <path d="M 9.078125 75.984375 
L 18.109375 75.984375 
L 18.109375 31.109375 
L 44.921875 54.6875 
L 56.390625 54.6875 
L 27.390625 29.109375 
L 57.625 0 
L 45.90625 0 
L 18.109375 26.703125 
L 18.109375 0 
L 9.078125 0 
z
" id="DejaVuSans-107"/>
     </defs>
     <use xlink:href="#DejaVuSans-56"/>
     <use x="63.623047" xlink:href="#DejaVuSans-32"/>
     <use x="95.410156" xlink:href="#DejaVuSans-82"/>
     <use x="160.392578" xlink:href="#DejaVuSans-111"/>
     <use x="221.574219" xlink:href="#DejaVuSans-115"/>
     <use x="273.673828" xlink:href="#DejaVuSans-101"/>
     <use x="335.197266" xlink:href="#DejaVuSans-110"/>
     <use x="398.576172" xlink:href="#DejaVuSans-98"/>
     <use x="462.052734" xlink:href="#DejaVuSans-114"/>
     <use x="500.916016" xlink:href="#DejaVuSans-111"/>
     <use x="562.097656" xlink:href="#DejaVuSans-99"/>
     <use x="617.078125" xlink:href="#DejaVuSans-107"/>
     <use x="674.988281" xlink:href="#DejaVuSans-32"/>
     <use x="706.775391" xlink:href="#DejaVuSans-111"/>
     <use x="767.957031" xlink:href="#DejaVuSans-114"/>
     <use x="809.070312" xlink:href="#DejaVuSans-105"/>
     <use x="836.853516" xlink:href="#DejaVuSans-103"/>
     <use x="900.330078" xlink:href="#DejaVuSans-105"/>
     <use x="928.113281" xlink:href="#DejaVuSans-110"/>
     <use x="991.492188" xlink:href="#DejaVuSans-97"/>
     <use x="1052.771484" xlink:href="#DejaVuSans-108"/>
    </g>
   </g>
  </g>
 </g>
 <defs>
  <clipPath id="p6178ab2f4b">
   <rect height="271.296" width="281.088" x="57.6" y="27.648"/>
  </clipPath>
 </defs>
</svg>
