<?xml version="1.0" encoding="utf-8" standalone="no"?>
<!DOCTYPE svg PUBLIC "-//W3C//DTD SVG 1.1//EN"
  "http://www.w3.org/Graphics/SVG/1.1/DTD/svg11.dtd">
<!-- Created with matplotlib (https://matplotlib.org/) -->
<svg height="345.6pt" version="1.1" viewBox="0 0 460.8 345.6" width="460.8pt" xmlns="http://www.w3.org/2000/svg" xmlns:xlink="http://www.w3.org/1999/xlink">
 <metadata>
  <rdf:RDF xmlns:cc="http://creativecommons.org/ns#" xmlns:dc="http://purl.org/dc/elements/1.1/" xmlns:rdf="http://www.w3.org/1999/02/22-rdf-syntax-ns#">
   <cc:Work>
    <dc:type rdf:resource="http://purl.org/dc/dcmitype/StillImage"/>
    <dc:date>2021-06-17T01:40:36.523088</dc:date>
    <dc:format>image/svg+xml</dc:format>
    <dc:creator>
     <cc:Agent>
      <dc:title>Matplotlib v3.3.4, https://matplotlib.org/</dc:title>
     </cc:Agent>
    </dc:creator>
   </cc:Work>
  </rdf:RDF>
 </metadata>
 <defs>
  <style type="text/css">*{stroke-linecap:butt;stroke-linejoin:round;}</style>
 </defs>
 <g id="figure_1">
  <g id="patch_1">
   <path d="M 0 345.6 
L 460.8 345.6 
L 460.8 0 
L 0 0 
z
" style="fill:#ffffff;"/>
  </g>
  <g id="axes_1">
   <g id="patch_2">
    <path d="M 57.6 298.944 
L 338.688 298.944 
L 338.688 27.648 
L 57.6 27.648 
z
" style="fill:#ffffff;"/>
   </g>
   <g id="line2d_1">
    <path d="M 17.444571 298.944 
L 17.444571 293.677139 
L 67.850577 293.677139 
L 67.850577 288.410278 
L 76.759008 288.410278 
L 76.759008 283.143418 
L 83.037197 283.143418 
L 83.037197 277.876557 
L 93.197415 277.876557 
L 93.197415 272.609696 
L 97.403108 272.609696 
L 97.403108 267.342835 
L 105.398279 267.342835 
L 105.398279 262.075974 
L 129.88095 262.075974 
L 129.88095 256.809114 
L 134.279041 256.809114 
L 134.279041 251.542253 
L 156.040206 251.542253 
L 156.040206 246.275392 
L 156.107908 246.275392 
L 156.107908 241.008531 
L 169.443254 241.008531 
L 169.443254 235.74167 
L 169.724059 235.74167 
L 169.724059 230.47481 
L 169.830653 230.47481 
L 169.830653 225.207949 
L 169.878129 225.207949 
L 169.878129 219.941088 
L 170.154817 219.941088 
L 170.154817 214.674227 
L 170.2479 214.674227 
L 170.2479 209.407366 
L 170.432588 209.407366 
L 170.432588 204.140506 
L 170.559106 204.140506 
L 170.559106 198.873645 
L 170.671394 198.873645 
L 170.671394 193.606784 
L 170.872762 193.606784 
L 170.872762 188.339923 
L 170.951613 188.339923 
L 170.951613 183.073062 
L 170.990905 183.073062 
L 170.990905 177.806202 
L 171.196397 177.806202 
L 171.196397 172.539341 
L 171.309807 172.539341 
L 171.309807 167.27248 
L 171.335479 167.27248 
L 171.335479 162.005619 
L 171.534438 162.005619 
L 171.534438 156.738758 
L 171.559782 156.738758 
L 171.559782 151.471897 
L 171.577501 151.471897 
L 171.577501 146.205037 
L 171.620458 146.205037 
L 171.620458 140.938176 
L 171.655755 140.938176 
L 171.655755 135.671315 
L 171.890917 135.671315 
L 171.890917 130.404454 
L 171.920711 130.404454 
L 171.920711 125.137593 
L 172.066461 125.137593 
L 172.066461 119.870733 
L 174.789496 119.870733 
L 174.789496 114.603872 
L 174.808425 114.603872 
L 174.808425 109.337011 
L 175.006993 109.337011 
L 175.006993 104.07015 
L 175.058874 104.07015 
L 175.058874 98.803289 
L 175.081653 98.803289 
L 175.081653 93.536429 
L 175.174531 93.536429 
L 175.174531 88.269568 
L 178.534298 88.269568 
L 178.534298 83.002707 
L 178.547874 83.002707 
L 178.547874 77.735846 
L 178.578383 77.735846 
L 178.578383 72.468985 
L 178.597002 72.468985 
L 178.597002 67.202125 
L 178.624047 67.202125 
L 178.624047 61.935264 
L 178.667907 61.935264 
L 178.667907 56.668403 
L 178.679696 56.668403 
L 178.679696 51.401542 
L 183.266275 51.401542 
L 183.266275 46.134681 
L 183.310225 46.134681 
L 183.310225 40.867821 
L 183.341183 40.867821 
L 183.341183 35.60096 
L 183.572899 35.60096 
L 183.572899 30.334099 
L 338.688 30.334099 
" style="fill:none;stroke:#f5deb3;stroke-linecap:square;stroke-width:4;"/>
   </g>
   <g id="line2d_2">
    <defs>
     <path d="M -0 7.778175 
L 7.778175 0 
L 0 -7.778175 
L -7.778175 -0 
z
" id="ma031f28a39" style="stroke:#f5deb3;stroke-linejoin:miter;stroke-width:1.5;"/>
    </defs>
    <g>
     <use style="fill:#f5deb3;stroke:#f5deb3;stroke-linejoin:miter;stroke-width:1.5;" x="129.88095" xlink:href="#ma031f28a39" y="256.809114"/>
     <use style="fill:#f5deb3;stroke:#f5deb3;stroke-linejoin:miter;stroke-width:1.5;" x="171.335479" xlink:href="#ma031f28a39" y="162.005619"/>
     <use style="fill:#f5deb3;stroke:#f5deb3;stroke-linejoin:miter;stroke-width:1.5;" x="183.572899" xlink:href="#ma031f28a39" y="35.60096"/>
     <use style="fill:#f5deb3;stroke:#f5deb3;stroke-linejoin:miter;stroke-width:1.5;" x="183.572899" xlink:href="#ma031f28a39" y="30.334099"/>
     <use style="fill:#f5deb3;stroke:#f5deb3;stroke-linejoin:miter;stroke-width:1.5;" x="183.572899" xlink:href="#ma031f28a39" y="30.334099"/>
     <use style="fill:#f5deb3;stroke:#f5deb3;stroke-linejoin:miter;stroke-width:1.5;" x="338.688" xlink:href="#ma031f28a39" y="30.334099"/>
    </g>
   </g>
   <g id="line2d_3">
    <path style="fill:none;stroke:#f5deb3;stroke-linecap:square;stroke-width:4;"/>
    <g/>
   </g>
   <g id="line2d_4">
    <path d="M 338.688 30.334099 
L 369.60768 35.706297 
" style="fill:none;stroke:#f5deb3;stroke-linecap:square;stroke-width:4;"/>
    <g>
     <use style="fill:#f5deb3;stroke:#f5deb3;stroke-linejoin:miter;stroke-width:1.5;" x="338.688" xlink:href="#ma031f28a39" y="30.334099"/>
     <use style="fill:#f5deb3;stroke:#f5deb3;stroke-linejoin:miter;stroke-width:1.5;" x="369.60768" xlink:href="#ma031f28a39" y="35.706297"/>
    </g>
   </g>
   <g id="matplotlib.axis_1">
    <g id="xtick_1">
     <g id="line2d_5">
      <path clip-path="url(#pbf3933c819)" d="M 57.6 298.944 
L 57.6 27.648 
" style="fill:none;stroke:#b0b0b0;stroke-linecap:square;stroke-width:0.8;"/>
     </g>
     <g id="line2d_6">
      <defs>
       <path d="M 0 0 
L 0 3.5 
" id="ma692eafde4" style="stroke:#000000;stroke-width:0.8;"/>
      </defs>
      <g>
       <use style="stroke:#000000;stroke-width:0.8;" x="57.6" xlink:href="#ma692eafde4" y="298.944"/>
      </g>
     </g>
     <g id="text_1">
      <!-- 0 -->
      <g transform="translate(51.2375 321.140875)scale(0.2 -0.2)">
       <defs>
        <path d="M 31.78125 66.40625 
Q 24.171875 66.40625 20.328125 58.90625 
Q 16.5 51.421875 16.5 36.375 
Q 16.5 21.390625 20.328125 13.890625 
Q 24.171875 6.390625 31.78125 6.390625 
Q 39.453125 6.390625 43.28125 13.890625 
Q 47.125 21.390625 47.125 36.375 
Q 47.125 51.421875 43.28125 58.90625 
Q 39.453125 66.40625 31.78125 66.40625 
z
M 31.78125 74.21875 
Q 44.046875 74.21875 50.515625 64.515625 
Q 56.984375 54.828125 56.984375 36.375 
Q 56.984375 17.96875 50.515625 8.265625 
Q 44.046875 -1.421875 31.78125 -1.421875 
Q 19.53125 -1.421875 13.0625 8.265625 
Q 6.59375 17.96875 6.59375 36.375 
Q 6.59375 54.828125 13.0625 64.515625 
Q 19.53125 74.21875 31.78125 74.21875 
z
" id="DejaVuSans-48"/>
       </defs>
       <use xlink:href="#DejaVuSans-48"/>
      </g>
     </g>
    </g>
    <g id="xtick_2">
     <g id="line2d_7">
      <path clip-path="url(#pbf3933c819)" d="M 137.910857 298.944 
L 137.910857 27.648 
" style="fill:none;stroke:#b0b0b0;stroke-linecap:square;stroke-width:0.8;"/>
     </g>
     <g id="line2d_8">
      <g>
       <use style="stroke:#000000;stroke-width:0.8;" x="137.910857" xlink:href="#ma692eafde4" y="298.944"/>
      </g>
     </g>
     <g id="text_2">
      <!-- 2 -->
      <g transform="translate(131.548357 321.140875)scale(0.2 -0.2)">
       <defs>
        <path d="M 19.1875 8.296875 
L 53.609375 8.296875 
L 53.609375 0 
L 7.328125 0 
L 7.328125 8.296875 
Q 12.9375 14.109375 22.625 23.890625 
Q 32.328125 33.6875 34.8125 36.53125 
Q 39.546875 41.84375 41.421875 45.53125 
Q 43.3125 49.21875 43.3125 52.78125 
Q 43.3125 58.59375 39.234375 62.25 
Q 35.15625 65.921875 28.609375 65.921875 
Q 23.96875 65.921875 18.8125 64.3125 
Q 13.671875 62.703125 7.8125 59.421875 
L 7.8125 69.390625 
Q 13.765625 71.78125 18.9375 73 
Q 24.125 74.21875 28.421875 74.21875 
Q 39.75 74.21875 46.484375 68.546875 
Q 53.21875 62.890625 53.21875 53.421875 
Q 53.21875 48.921875 51.53125 44.890625 
Q 49.859375 40.875 45.40625 35.40625 
Q 44.1875 33.984375 37.640625 27.21875 
Q 31.109375 20.453125 19.1875 8.296875 
z
" id="DejaVuSans-50"/>
       </defs>
       <use xlink:href="#DejaVuSans-50"/>
      </g>
     </g>
    </g>
    <g id="xtick_3">
     <g id="line2d_9">
      <path clip-path="url(#pbf3933c819)" d="M 218.221714 298.944 
L 218.221714 27.648 
" style="fill:none;stroke:#b0b0b0;stroke-linecap:square;stroke-width:0.8;"/>
     </g>
     <g id="line2d_10">
      <g>
       <use style="stroke:#000000;stroke-width:0.8;" x="218.221714" xlink:href="#ma692eafde4" y="298.944"/>
      </g>
     </g>
     <g id="text_3">
      <!-- 4 -->
      <g transform="translate(211.859214 321.140875)scale(0.2 -0.2)">
       <defs>
        <path d="M 37.796875 64.3125 
L 12.890625 25.390625 
L 37.796875 25.390625 
z
M 35.203125 72.90625 
L 47.609375 72.90625 
L 47.609375 25.390625 
L 58.015625 25.390625 
L 58.015625 17.1875 
L 47.609375 17.1875 
L 47.609375 0 
L 37.796875 0 
L 37.796875 17.1875 
L 4.890625 17.1875 
L 4.890625 26.703125 
z
" id="DejaVuSans-52"/>
       </defs>
       <use xlink:href="#DejaVuSans-52"/>
      </g>
     </g>
    </g>
    <g id="xtick_4">
     <g id="line2d_11">
      <path clip-path="url(#pbf3933c819)" d="M 298.532571 298.944 
L 298.532571 27.648 
" style="fill:none;stroke:#b0b0b0;stroke-linecap:square;stroke-width:0.8;"/>
     </g>
     <g id="line2d_12">
      <g>
       <use style="stroke:#000000;stroke-width:0.8;" x="298.532571" xlink:href="#ma692eafde4" y="298.944"/>
      </g>
     </g>
     <g id="text_4">
      <!-- 6 -->
      <g transform="translate(292.170071 321.140875)scale(0.2 -0.2)">
       <defs>
        <path d="M 33.015625 40.375 
Q 26.375 40.375 22.484375 35.828125 
Q 18.609375 31.296875 18.609375 23.390625 
Q 18.609375 15.53125 22.484375 10.953125 
Q 26.375 6.390625 33.015625 6.390625 
Q 39.65625 6.390625 43.53125 10.953125 
Q 47.40625 15.53125 47.40625 23.390625 
Q 47.40625 31.296875 43.53125 35.828125 
Q 39.65625 40.375 33.015625 40.375 
z
M 52.59375 71.296875 
L 52.59375 62.3125 
Q 48.875 64.0625 45.09375 64.984375 
Q 41.3125 65.921875 37.59375 65.921875 
Q 27.828125 65.921875 22.671875 59.328125 
Q 17.53125 52.734375 16.796875 39.40625 
Q 19.671875 43.65625 24.015625 45.921875 
Q 28.375 48.1875 33.59375 48.1875 
Q 44.578125 48.1875 50.953125 41.515625 
Q 57.328125 34.859375 57.328125 23.390625 
Q 57.328125 12.15625 50.6875 5.359375 
Q 44.046875 -1.421875 33.015625 -1.421875 
Q 20.359375 -1.421875 13.671875 8.265625 
Q 6.984375 17.96875 6.984375 36.375 
Q 6.984375 53.65625 15.1875 63.9375 
Q 23.390625 74.21875 37.203125 74.21875 
Q 40.921875 74.21875 44.703125 73.484375 
Q 48.484375 72.75 52.59375 71.296875 
z
" id="DejaVuSans-54"/>
       </defs>
       <use xlink:href="#DejaVuSans-54"/>
      </g>
     </g>
    </g>
    <g id="xtick_5">
     <g id="line2d_13">
      <path clip-path="url(#pbf3933c819)" d="M 97.755429 298.944 
L 97.755429 27.648 
" style="fill:none;stroke:#b0b0b0;stroke-linecap:square;stroke-width:0.8;"/>
     </g>
     <g id="line2d_14">
      <defs>
       <path d="M 0 0 
L 0 2 
" id="m06cca9da98" style="stroke:#000000;stroke-width:0.6;"/>
      </defs>
      <g>
       <use style="stroke:#000000;stroke-width:0.6;" x="97.755429" xlink:href="#m06cca9da98" y="298.944"/>
      </g>
     </g>
    </g>
    <g id="xtick_6">
     <g id="line2d_15">
      <path clip-path="url(#pbf3933c819)" d="M 178.066286 298.944 
L 178.066286 27.648 
" style="fill:none;stroke:#b0b0b0;stroke-linecap:square;stroke-width:0.8;"/>
     </g>
     <g id="line2d_16">
      <g>
       <use style="stroke:#000000;stroke-width:0.6;" x="178.066286" xlink:href="#m06cca9da98" y="298.944"/>
      </g>
     </g>
    </g>
    <g id="xtick_7">
     <g id="line2d_17">
      <path clip-path="url(#pbf3933c819)" d="M 258.377143 298.944 
L 258.377143 27.648 
" style="fill:none;stroke:#b0b0b0;stroke-linecap:square;stroke-width:0.8;"/>
     </g>
     <g id="line2d_18">
      <g>
       <use style="stroke:#000000;stroke-width:0.6;" x="258.377143" xlink:href="#m06cca9da98" y="298.944"/>
      </g>
     </g>
    </g>
    <g id="xtick_8">
     <g id="line2d_19">
      <path clip-path="url(#pbf3933c819)" d="M 338.688 298.944 
L 338.688 27.648 
" style="fill:none;stroke:#b0b0b0;stroke-linecap:square;stroke-width:0.8;"/>
     </g>
     <g id="line2d_20">
      <g>
       <use style="stroke:#000000;stroke-width:0.6;" x="338.688" xlink:href="#m06cca9da98" y="298.944"/>
      </g>
     </g>
    </g>
    <g id="text_5">
     <!-- log10(# f-evals / dimension) -->
     <g transform="translate(77.764078 342.217594)scale(0.17 -0.17)">
      <defs>
       <path d="M 9.421875 75.984375 
L 18.40625 75.984375 
L 18.40625 0 
L 9.421875 0 
z
" id="DejaVuSans-108"/>
       <path d="M 30.609375 48.390625 
Q 23.390625 48.390625 19.1875 42.75 
Q 14.984375 37.109375 14.984375 27.296875 
Q 14.984375 17.484375 19.15625 11.84375 
Q 23.34375 6.203125 30.609375 6.203125 
Q 37.796875 6.203125 41.984375 11.859375 
Q 46.1875 17.53125 46.1875 27.296875 
Q 46.1875 37.015625 41.984375 42.703125 
Q 37.796875 48.390625 30.609375 48.390625 
z
M 30.609375 56 
Q 42.328125 56 49.015625 48.375 
Q 55.71875 40.765625 55.71875 27.296875 
Q 55.71875 13.875 49.015625 6.21875 
Q 42.328125 -1.421875 30.609375 -1.421875 
Q 18.84375 -1.421875 12.171875 6.21875 
Q 5.515625 13.875 5.515625 27.296875 
Q 5.515625 40.765625 12.171875 48.375 
Q 18.84375 56 30.609375 56 
z
" id="DejaVuSans-111"/>
       <path d="M 45.40625 27.984375 
Q 45.40625 37.75 41.375 43.109375 
Q 37.359375 48.484375 30.078125 48.484375 
Q 22.859375 48.484375 18.828125 43.109375 
Q 14.796875 37.75 14.796875 27.984375 
Q 14.796875 18.265625 18.828125 12.890625 
Q 22.859375 7.515625 30.078125 7.515625 
Q 37.359375 7.515625 41.375 12.890625 
Q 45.40625 18.265625 45.40625 27.984375 
z
M 54.390625 6.78125 
Q 54.390625 -7.171875 48.1875 -13.984375 
Q 42 -20.796875 29.203125 -20.796875 
Q 24.46875 -20.796875 20.265625 -20.09375 
Q 16.0625 -19.390625 12.109375 -17.921875 
L 12.109375 -9.1875 
Q 16.0625 -11.328125 19.921875 -12.34375 
Q 23.78125 -13.375 27.78125 -13.375 
Q 36.625 -13.375 41.015625 -8.765625 
Q 45.40625 -4.15625 45.40625 5.171875 
L 45.40625 9.625 
Q 42.625 4.78125 38.28125 2.390625 
Q 33.9375 0 27.875 0 
Q 17.828125 0 11.671875 7.65625 
Q 5.515625 15.328125 5.515625 27.984375 
Q 5.515625 40.671875 11.671875 48.328125 
Q 17.828125 56 27.875 56 
Q 33.9375 56 38.28125 53.609375 
Q 42.625 51.21875 45.40625 46.390625 
L 45.40625 54.6875 
L 54.390625 54.6875 
z
" id="DejaVuSans-103"/>
       <path d="M 12.40625 8.296875 
L 28.515625 8.296875 
L 28.515625 63.921875 
L 10.984375 60.40625 
L 10.984375 69.390625 
L 28.421875 72.90625 
L 38.28125 72.90625 
L 38.28125 8.296875 
L 54.390625 8.296875 
L 54.390625 0 
L 12.40625 0 
z
" id="DejaVuSans-49"/>
       <path d="M 31 75.875 
Q 24.46875 64.65625 21.28125 53.65625 
Q 18.109375 42.671875 18.109375 31.390625 
Q 18.109375 20.125 21.3125 9.0625 
Q 24.515625 -2 31 -13.1875 
L 23.1875 -13.1875 
Q 15.875 -1.703125 12.234375 9.375 
Q 8.59375 20.453125 8.59375 31.390625 
Q 8.59375 42.28125 12.203125 53.3125 
Q 15.828125 64.359375 23.1875 75.875 
z
" id="DejaVuSans-40"/>
       <path d="M 51.125 44 
L 36.921875 44 
L 32.8125 27.6875 
L 47.125 27.6875 
z
M 43.796875 71.78125 
L 38.71875 51.515625 
L 52.984375 51.515625 
L 58.109375 71.78125 
L 65.921875 71.78125 
L 60.890625 51.515625 
L 76.125 51.515625 
L 76.125 44 
L 58.984375 44 
L 54.984375 27.6875 
L 70.515625 27.6875 
L 70.515625 20.21875 
L 53.078125 20.21875 
L 48 0 
L 40.1875 0 
L 45.21875 20.21875 
L 30.90625 20.21875 
L 25.875 0 
L 18.015625 0 
L 23.09375 20.21875 
L 7.71875 20.21875 
L 7.71875 27.6875 
L 24.90625 27.6875 
L 29 44 
L 13.28125 44 
L 13.28125 51.515625 
L 30.90625 51.515625 
L 35.890625 71.78125 
z
" id="DejaVuSans-35"/>
       <path id="DejaVuSans-32"/>
       <path d="M 37.109375 75.984375 
L 37.109375 68.5 
L 28.515625 68.5 
Q 23.6875 68.5 21.796875 66.546875 
Q 19.921875 64.59375 19.921875 59.515625 
L 19.921875 54.6875 
L 34.71875 54.6875 
L 34.71875 47.703125 
L 19.921875 47.703125 
L 19.921875 0 
L 10.890625 0 
L 10.890625 47.703125 
L 2.296875 47.703125 
L 2.296875 54.6875 
L 10.890625 54.6875 
L 10.890625 58.5 
Q 10.890625 67.625 15.140625 71.796875 
Q 19.390625 75.984375 28.609375 75.984375 
z
" id="DejaVuSans-102"/>
       <path d="M 4.890625 31.390625 
L 31.203125 31.390625 
L 31.203125 23.390625 
L 4.890625 23.390625 
z
" id="DejaVuSans-45"/>
       <path d="M 56.203125 29.59375 
L 56.203125 25.203125 
L 14.890625 25.203125 
Q 15.484375 15.921875 20.484375 11.0625 
Q 25.484375 6.203125 34.421875 6.203125 
Q 39.59375 6.203125 44.453125 7.46875 
Q 49.3125 8.734375 54.109375 11.28125 
L 54.109375 2.78125 
Q 49.265625 0.734375 44.1875 -0.34375 
Q 39.109375 -1.421875 33.890625 -1.421875 
Q 20.796875 -1.421875 13.15625 6.1875 
Q 5.515625 13.8125 5.515625 26.8125 
Q 5.515625 40.234375 12.765625 48.109375 
Q 20.015625 56 32.328125 56 
Q 43.359375 56 49.78125 48.890625 
Q 56.203125 41.796875 56.203125 29.59375 
z
M 47.21875 32.234375 
Q 47.125 39.59375 43.09375 43.984375 
Q 39.0625 48.390625 32.421875 48.390625 
Q 24.90625 48.390625 20.390625 44.140625 
Q 15.875 39.890625 15.1875 32.171875 
z
" id="DejaVuSans-101"/>
       <path d="M 2.984375 54.6875 
L 12.5 54.6875 
L 29.59375 8.796875 
L 46.6875 54.6875 
L 56.203125 54.6875 
L 35.6875 0 
L 23.484375 0 
z
" id="DejaVuSans-118"/>
       <path d="M 34.28125 27.484375 
Q 23.390625 27.484375 19.1875 25 
Q 14.984375 22.515625 14.984375 16.5 
Q 14.984375 11.71875 18.140625 8.90625 
Q 21.296875 6.109375 26.703125 6.109375 
Q 34.1875 6.109375 38.703125 11.40625 
Q 43.21875 16.703125 43.21875 25.484375 
L 43.21875 27.484375 
z
M 52.203125 31.203125 
L 52.203125 0 
L 43.21875 0 
L 43.21875 8.296875 
Q 40.140625 3.328125 35.546875 0.953125 
Q 30.953125 -1.421875 24.3125 -1.421875 
Q 15.921875 -1.421875 10.953125 3.296875 
Q 6 8.015625 6 15.921875 
Q 6 25.140625 12.171875 29.828125 
Q 18.359375 34.515625 30.609375 34.515625 
L 43.21875 34.515625 
L 43.21875 35.40625 
Q 43.21875 41.609375 39.140625 45 
Q 35.0625 48.390625 27.6875 48.390625 
Q 23 48.390625 18.546875 47.265625 
Q 14.109375 46.140625 10.015625 43.890625 
L 10.015625 52.203125 
Q 14.9375 54.109375 19.578125 55.046875 
Q 24.21875 56 28.609375 56 
Q 40.484375 56 46.34375 49.84375 
Q 52.203125 43.703125 52.203125 31.203125 
z
" id="DejaVuSans-97"/>
       <path d="M 44.28125 53.078125 
L 44.28125 44.578125 
Q 40.484375 46.53125 36.375 47.5 
Q 32.28125 48.484375 27.875 48.484375 
Q 21.1875 48.484375 17.84375 46.4375 
Q 14.5 44.390625 14.5 40.28125 
Q 14.5 37.15625 16.890625 35.375 
Q 19.28125 33.59375 26.515625 31.984375 
L 29.59375 31.296875 
Q 39.15625 29.25 43.1875 25.515625 
Q 47.21875 21.78125 47.21875 15.09375 
Q 47.21875 7.46875 41.1875 3.015625 
Q 35.15625 -1.421875 24.609375 -1.421875 
Q 20.21875 -1.421875 15.453125 -0.5625 
Q 10.6875 0.296875 5.421875 2 
L 5.421875 11.28125 
Q 10.40625 8.6875 15.234375 7.390625 
Q 20.0625 6.109375 24.8125 6.109375 
Q 31.15625 6.109375 34.5625 8.28125 
Q 37.984375 10.453125 37.984375 14.40625 
Q 37.984375 18.0625 35.515625 20.015625 
Q 33.0625 21.96875 24.703125 23.78125 
L 21.578125 24.515625 
Q 13.234375 26.265625 9.515625 29.90625 
Q 5.8125 33.546875 5.8125 39.890625 
Q 5.8125 47.609375 11.28125 51.796875 
Q 16.75 56 26.8125 56 
Q 31.78125 56 36.171875 55.265625 
Q 40.578125 54.546875 44.28125 53.078125 
z
" id="DejaVuSans-115"/>
       <path d="M 25.390625 72.90625 
L 33.6875 72.90625 
L 8.296875 -9.28125 
L 0 -9.28125 
z
" id="DejaVuSans-47"/>
       <path d="M 45.40625 46.390625 
L 45.40625 75.984375 
L 54.390625 75.984375 
L 54.390625 0 
L 45.40625 0 
L 45.40625 8.203125 
Q 42.578125 3.328125 38.25 0.953125 
Q 33.9375 -1.421875 27.875 -1.421875 
Q 17.96875 -1.421875 11.734375 6.484375 
Q 5.515625 14.40625 5.515625 27.296875 
Q 5.515625 40.1875 11.734375 48.09375 
Q 17.96875 56 27.875 56 
Q 33.9375 56 38.25 53.625 
Q 42.578125 51.265625 45.40625 46.390625 
z
M 14.796875 27.296875 
Q 14.796875 17.390625 18.875 11.75 
Q 22.953125 6.109375 30.078125 6.109375 
Q 37.203125 6.109375 41.296875 11.75 
Q 45.40625 17.390625 45.40625 27.296875 
Q 45.40625 37.203125 41.296875 42.84375 
Q 37.203125 48.484375 30.078125 48.484375 
Q 22.953125 48.484375 18.875 42.84375 
Q 14.796875 37.203125 14.796875 27.296875 
z
" id="DejaVuSans-100"/>
       <path d="M 9.421875 54.6875 
L 18.40625 54.6875 
L 18.40625 0 
L 9.421875 0 
z
M 9.421875 75.984375 
L 18.40625 75.984375 
L 18.40625 64.59375 
L 9.421875 64.59375 
z
" id="DejaVuSans-105"/>
       <path d="M 52 44.1875 
Q 55.375 50.25 60.0625 53.125 
Q 64.75 56 71.09375 56 
Q 79.640625 56 84.28125 50.015625 
Q 88.921875 44.046875 88.921875 33.015625 
L 88.921875 0 
L 79.890625 0 
L 79.890625 32.71875 
Q 79.890625 40.578125 77.09375 44.375 
Q 74.3125 48.1875 68.609375 48.1875 
Q 61.625 48.1875 57.5625 43.546875 
Q 53.515625 38.921875 53.515625 30.90625 
L 53.515625 0 
L 44.484375 0 
L 44.484375 32.71875 
Q 44.484375 40.625 41.703125 44.40625 
Q 38.921875 48.1875 33.109375 48.1875 
Q 26.21875 48.1875 22.15625 43.53125 
Q 18.109375 38.875 18.109375 30.90625 
L 18.109375 0 
L 9.078125 0 
L 9.078125 54.6875 
L 18.109375 54.6875 
L 18.109375 46.1875 
Q 21.1875 51.21875 25.484375 53.609375 
Q 29.78125 56 35.6875 56 
Q 41.65625 56 45.828125 52.96875 
Q 50 49.953125 52 44.1875 
z
" id="DejaVuSans-109"/>
       <path d="M 54.890625 33.015625 
L 54.890625 0 
L 45.90625 0 
L 45.90625 32.71875 
Q 45.90625 40.484375 42.875 44.328125 
Q 39.84375 48.1875 33.796875 48.1875 
Q 26.515625 48.1875 22.3125 43.546875 
Q 18.109375 38.921875 18.109375 30.90625 
L 18.109375 0 
L 9.078125 0 
L 9.078125 54.6875 
L 18.109375 54.6875 
L 18.109375 46.1875 
Q 21.34375 51.125 25.703125 53.5625 
Q 30.078125 56 35.796875 56 
Q 45.21875 56 50.046875 50.171875 
Q 54.890625 44.34375 54.890625 33.015625 
z
" id="DejaVuSans-110"/>
       <path d="M 8.015625 75.875 
L 15.828125 75.875 
Q 23.140625 64.359375 26.78125 53.3125 
Q 30.421875 42.28125 30.421875 31.390625 
Q 30.421875 20.453125 26.78125 9.375 
Q 23.140625 -1.703125 15.828125 -13.1875 
L 8.015625 -13.1875 
Q 14.5 -2 17.703125 9.0625 
Q 20.90625 20.125 20.90625 31.390625 
Q 20.90625 42.671875 17.703125 53.65625 
Q 14.5 64.65625 8.015625 75.875 
z
" id="DejaVuSans-41"/>
      </defs>
      <use xlink:href="#DejaVuSans-108"/>
      <use x="27.783203" xlink:href="#DejaVuSans-111"/>
      <use x="88.964844" xlink:href="#DejaVuSans-103"/>
      <use x="152.441406" xlink:href="#DejaVuSans-49"/>
      <use x="216.064453" xlink:href="#DejaVuSans-48"/>
      <use x="279.6875" xlink:href="#DejaVuSans-40"/>
      <use x="318.701172" xlink:href="#DejaVuSans-35"/>
      <use x="402.490234" xlink:href="#DejaVuSans-32"/>
      <use x="434.277344" xlink:href="#DejaVuSans-102"/>
      <use x="463.982422" xlink:href="#DejaVuSans-45"/>
      <use x="500.066406" xlink:href="#DejaVuSans-101"/>
      <use x="561.589844" xlink:href="#DejaVuSans-118"/>
      <use x="620.769531" xlink:href="#DejaVuSans-97"/>
      <use x="682.048828" xlink:href="#DejaVuSans-108"/>
      <use x="709.832031" xlink:href="#DejaVuSans-115"/>
      <use x="761.931641" xlink:href="#DejaVuSans-32"/>
      <use x="793.71875" xlink:href="#DejaVuSans-47"/>
      <use x="827.410156" xlink:href="#DejaVuSans-32"/>
      <use x="859.197266" xlink:href="#DejaVuSans-100"/>
      <use x="922.673828" xlink:href="#DejaVuSans-105"/>
      <use x="950.457031" xlink:href="#DejaVuSans-109"/>
      <use x="1047.869141" xlink:href="#DejaVuSans-101"/>
      <use x="1109.392578" xlink:href="#DejaVuSans-110"/>
      <use x="1172.771484" xlink:href="#DejaVuSans-115"/>
      <use x="1224.871094" xlink:href="#DejaVuSans-105"/>
      <use x="1252.654297" xlink:href="#DejaVuSans-111"/>
      <use x="1313.835938" xlink:href="#DejaVuSans-110"/>
      <use x="1377.214844" xlink:href="#DejaVuSans-41"/>
     </g>
    </g>
   </g>
   <g id="matplotlib.axis_2">
    <g id="ytick_1">
     <g id="line2d_21">
      <path clip-path="url(#pbf3933c819)" d="M 57.6 298.944 
L 338.688 298.944 
" style="fill:none;stroke:#b0b0b0;stroke-linecap:square;stroke-width:0.8;"/>
     </g>
     <g id="line2d_22">
      <defs>
       <path d="M 0 0 
L -3.5 0 
" id="m40b1fe1df0" style="stroke:#000000;stroke-width:0.8;"/>
      </defs>
      <g>
       <use style="stroke:#000000;stroke-width:0.8;" x="57.6" xlink:href="#m40b1fe1df0" y="298.944"/>
      </g>
     </g>
     <g id="text_6">
      <!-- 0.0 -->
      <g transform="translate(25.155 305.02275)scale(0.16 -0.16)">
       <defs>
        <path d="M 10.6875 12.40625 
L 21 12.40625 
L 21 0 
L 10.6875 0 
z
" id="DejaVuSans-46"/>
       </defs>
       <use xlink:href="#DejaVuSans-48"/>
       <use x="63.623047" xlink:href="#DejaVuSans-46"/>
       <use x="95.410156" xlink:href="#DejaVuSans-48"/>
      </g>
     </g>
    </g>
    <g id="ytick_2">
     <g id="line2d_23">
      <path clip-path="url(#pbf3933c819)" d="M 57.6 245.22202 
L 338.688 245.22202 
" style="fill:none;stroke:#b0b0b0;stroke-linecap:square;stroke-width:0.8;"/>
     </g>
     <g id="line2d_24">
      <g>
       <use style="stroke:#000000;stroke-width:0.8;" x="57.6" xlink:href="#m40b1fe1df0" y="245.22202"/>
      </g>
     </g>
     <g id="text_7">
      <!-- 0.2 -->
      <g transform="translate(25.155 251.30077)scale(0.16 -0.16)">
       <use xlink:href="#DejaVuSans-48"/>
       <use x="63.623047" xlink:href="#DejaVuSans-46"/>
       <use x="95.410156" xlink:href="#DejaVuSans-50"/>
      </g>
     </g>
    </g>
    <g id="ytick_3">
     <g id="line2d_25">
      <path clip-path="url(#pbf3933c819)" d="M 57.6 191.50004 
L 338.688 191.50004 
" style="fill:none;stroke:#b0b0b0;stroke-linecap:square;stroke-width:0.8;"/>
     </g>
     <g id="line2d_26">
      <g>
       <use style="stroke:#000000;stroke-width:0.8;" x="57.6" xlink:href="#m40b1fe1df0" y="191.50004"/>
      </g>
     </g>
     <g id="text_8">
      <!-- 0.4 -->
      <g transform="translate(25.155 197.57879)scale(0.16 -0.16)">
       <use xlink:href="#DejaVuSans-48"/>
       <use x="63.623047" xlink:href="#DejaVuSans-46"/>
       <use x="95.410156" xlink:href="#DejaVuSans-52"/>
      </g>
     </g>
    </g>
    <g id="ytick_4">
     <g id="line2d_27">
      <path clip-path="url(#pbf3933c819)" d="M 57.6 137.778059 
L 338.688 137.778059 
" style="fill:none;stroke:#b0b0b0;stroke-linecap:square;stroke-width:0.8;"/>
     </g>
     <g id="line2d_28">
      <g>
       <use style="stroke:#000000;stroke-width:0.8;" x="57.6" xlink:href="#m40b1fe1df0" y="137.778059"/>
      </g>
     </g>
     <g id="text_9">
      <!-- 0.6 -->
      <g transform="translate(25.155 143.856809)scale(0.16 -0.16)">
       <use xlink:href="#DejaVuSans-48"/>
       <use x="63.623047" xlink:href="#DejaVuSans-46"/>
       <use x="95.410156" xlink:href="#DejaVuSans-54"/>
      </g>
     </g>
    </g>
    <g id="ytick_5">
     <g id="line2d_29">
      <path clip-path="url(#pbf3933c819)" d="M 57.6 84.056079 
L 338.688 84.056079 
" style="fill:none;stroke:#b0b0b0;stroke-linecap:square;stroke-width:0.8;"/>
     </g>
     <g id="line2d_30">
      <g>
       <use style="stroke:#000000;stroke-width:0.8;" x="57.6" xlink:href="#m40b1fe1df0" y="84.056079"/>
      </g>
     </g>
     <g id="text_10">
      <!-- 0.8 -->
      <g transform="translate(25.155 90.134829)scale(0.16 -0.16)">
       <defs>
        <path d="M 31.78125 34.625 
Q 24.75 34.625 20.71875 30.859375 
Q 16.703125 27.09375 16.703125 20.515625 
Q 16.703125 13.921875 20.71875 10.15625 
Q 24.75 6.390625 31.78125 6.390625 
Q 38.8125 6.390625 42.859375 10.171875 
Q 46.921875 13.96875 46.921875 20.515625 
Q 46.921875 27.09375 42.890625 30.859375 
Q 38.875 34.625 31.78125 34.625 
z
M 21.921875 38.8125 
Q 15.578125 40.375 12.03125 44.71875 
Q 8.5 49.078125 8.5 55.328125 
Q 8.5 64.0625 14.71875 69.140625 
Q 20.953125 74.21875 31.78125 74.21875 
Q 42.671875 74.21875 48.875 69.140625 
Q 55.078125 64.0625 55.078125 55.328125 
Q 55.078125 49.078125 51.53125 44.71875 
Q 48 40.375 41.703125 38.8125 
Q 48.828125 37.15625 52.796875 32.3125 
Q 56.78125 27.484375 56.78125 20.515625 
Q 56.78125 9.90625 50.3125 4.234375 
Q 43.84375 -1.421875 31.78125 -1.421875 
Q 19.734375 -1.421875 13.25 4.234375 
Q 6.78125 9.90625 6.78125 20.515625 
Q 6.78125 27.484375 10.78125 32.3125 
Q 14.796875 37.15625 21.921875 38.8125 
z
M 18.3125 54.390625 
Q 18.3125 48.734375 21.84375 45.5625 
Q 25.390625 42.390625 31.78125 42.390625 
Q 38.140625 42.390625 41.71875 45.5625 
Q 45.3125 48.734375 45.3125 54.390625 
Q 45.3125 60.0625 41.71875 63.234375 
Q 38.140625 66.40625 31.78125 66.40625 
Q 25.390625 66.40625 21.84375 63.234375 
Q 18.3125 60.0625 18.3125 54.390625 
z
" id="DejaVuSans-56"/>
       </defs>
       <use xlink:href="#DejaVuSans-48"/>
       <use x="63.623047" xlink:href="#DejaVuSans-46"/>
       <use x="95.410156" xlink:href="#DejaVuSans-56"/>
      </g>
     </g>
    </g>
    <g id="ytick_6">
     <g id="line2d_31">
      <path clip-path="url(#pbf3933c819)" d="M 57.6 30.334099 
L 338.688 30.334099 
" style="fill:none;stroke:#b0b0b0;stroke-linecap:square;stroke-width:0.8;"/>
     </g>
     <g id="line2d_32">
      <g>
       <use style="stroke:#000000;stroke-width:0.8;" x="57.6" xlink:href="#m40b1fe1df0" y="30.334099"/>
      </g>
     </g>
     <g id="text_11">
      <!-- 1.0 -->
      <g transform="translate(25.155 36.412849)scale(0.16 -0.16)">
       <use xlink:href="#DejaVuSans-49"/>
       <use x="63.623047" xlink:href="#DejaVuSans-46"/>
       <use x="95.410156" xlink:href="#DejaVuSans-48"/>
      </g>
     </g>
    </g>
    <g id="text_12">
     <!-- Fraction of function,target pairs -->
     <g transform="translate(17.619531 297.681)rotate(-90)scale(0.17 -0.17)">
      <defs>
       <path d="M 9.8125 72.90625 
L 51.703125 72.90625 
L 51.703125 64.59375 
L 19.671875 64.59375 
L 19.671875 43.109375 
L 48.578125 43.109375 
L 48.578125 34.8125 
L 19.671875 34.8125 
L 19.671875 0 
L 9.8125 0 
z
" id="DejaVuSans-70"/>
       <path d="M 41.109375 46.296875 
Q 39.59375 47.171875 37.8125 47.578125 
Q 36.03125 48 33.890625 48 
Q 26.265625 48 22.1875 43.046875 
Q 18.109375 38.09375 18.109375 28.8125 
L 18.109375 0 
L 9.078125 0 
L 9.078125 54.6875 
L 18.109375 54.6875 
L 18.109375 46.1875 
Q 20.953125 51.171875 25.484375 53.578125 
Q 30.03125 56 36.53125 56 
Q 37.453125 56 38.578125 55.875 
Q 39.703125 55.765625 41.0625 55.515625 
z
" id="DejaVuSans-114"/>
       <path d="M 48.78125 52.59375 
L 48.78125 44.1875 
Q 44.96875 46.296875 41.140625 47.34375 
Q 37.3125 48.390625 33.40625 48.390625 
Q 24.65625 48.390625 19.8125 42.84375 
Q 14.984375 37.3125 14.984375 27.296875 
Q 14.984375 17.28125 19.8125 11.734375 
Q 24.65625 6.203125 33.40625 6.203125 
Q 37.3125 6.203125 41.140625 7.25 
Q 44.96875 8.296875 48.78125 10.40625 
L 48.78125 2.09375 
Q 45.015625 0.34375 40.984375 -0.53125 
Q 36.96875 -1.421875 32.421875 -1.421875 
Q 20.0625 -1.421875 12.78125 6.34375 
Q 5.515625 14.109375 5.515625 27.296875 
Q 5.515625 40.671875 12.859375 48.328125 
Q 20.21875 56 33.015625 56 
Q 37.15625 56 41.109375 55.140625 
Q 45.0625 54.296875 48.78125 52.59375 
z
" id="DejaVuSans-99"/>
       <path d="M 18.3125 70.21875 
L 18.3125 54.6875 
L 36.8125 54.6875 
L 36.8125 47.703125 
L 18.3125 47.703125 
L 18.3125 18.015625 
Q 18.3125 11.328125 20.140625 9.421875 
Q 21.96875 7.515625 27.59375 7.515625 
L 36.8125 7.515625 
L 36.8125 0 
L 27.59375 0 
Q 17.1875 0 13.234375 3.875 
Q 9.28125 7.765625 9.28125 18.015625 
L 9.28125 47.703125 
L 2.6875 47.703125 
L 2.6875 54.6875 
L 9.28125 54.6875 
L 9.28125 70.21875 
z
" id="DejaVuSans-116"/>
       <path d="M 8.5 21.578125 
L 8.5 54.6875 
L 17.484375 54.6875 
L 17.484375 21.921875 
Q 17.484375 14.15625 20.5 10.265625 
Q 23.53125 6.390625 29.59375 6.390625 
Q 36.859375 6.390625 41.078125 11.03125 
Q 45.3125 15.671875 45.3125 23.6875 
L 45.3125 54.6875 
L 54.296875 54.6875 
L 54.296875 0 
L 45.3125 0 
L 45.3125 8.40625 
Q 42.046875 3.421875 37.71875 1 
Q 33.40625 -1.421875 27.6875 -1.421875 
Q 18.265625 -1.421875 13.375 4.4375 
Q 8.5 10.296875 8.5 21.578125 
z
M 31.109375 56 
z
" id="DejaVuSans-117"/>
       <path d="M 11.71875 12.40625 
L 22.015625 12.40625 
L 22.015625 4 
L 14.015625 -11.625 
L 7.71875 -11.625 
L 11.71875 4 
z
" id="DejaVuSans-44"/>
       <path d="M 18.109375 8.203125 
L 18.109375 -20.796875 
L 9.078125 -20.796875 
L 9.078125 54.6875 
L 18.109375 54.6875 
L 18.109375 46.390625 
Q 20.953125 51.265625 25.265625 53.625 
Q 29.59375 56 35.59375 56 
Q 45.5625 56 51.78125 48.09375 
Q 58.015625 40.1875 58.015625 27.296875 
Q 58.015625 14.40625 51.78125 6.484375 
Q 45.5625 -1.421875 35.59375 -1.421875 
Q 29.59375 -1.421875 25.265625 0.953125 
Q 20.953125 3.328125 18.109375 8.203125 
z
M 48.6875 27.296875 
Q 48.6875 37.203125 44.609375 42.84375 
Q 40.53125 48.484375 33.40625 48.484375 
Q 26.265625 48.484375 22.1875 42.84375 
Q 18.109375 37.203125 18.109375 27.296875 
Q 18.109375 17.390625 22.1875 11.75 
Q 26.265625 6.109375 33.40625 6.109375 
Q 40.53125 6.109375 44.609375 11.75 
Q 48.6875 17.390625 48.6875 27.296875 
z
" id="DejaVuSans-112"/>
      </defs>
      <use xlink:href="#DejaVuSans-70"/>
      <use x="50.269531" xlink:href="#DejaVuSans-114"/>
      <use x="91.382812" xlink:href="#DejaVuSans-97"/>
      <use x="152.662109" xlink:href="#DejaVuSans-99"/>
      <use x="207.642578" xlink:href="#DejaVuSans-116"/>
      <use x="246.851562" xlink:href="#DejaVuSans-105"/>
      <use x="274.634766" xlink:href="#DejaVuSans-111"/>
      <use x="335.816406" xlink:href="#DejaVuSans-110"/>
      <use x="399.195312" xlink:href="#DejaVuSans-32"/>
      <use x="430.982422" xlink:href="#DejaVuSans-111"/>
      <use x="492.164062" xlink:href="#DejaVuSans-102"/>
      <use x="527.369141" xlink:href="#DejaVuSans-32"/>
      <use x="559.15625" xlink:href="#DejaVuSans-102"/>
      <use x="594.361328" xlink:href="#DejaVuSans-117"/>
      <use x="657.740234" xlink:href="#DejaVuSans-110"/>
      <use x="721.119141" xlink:href="#DejaVuSans-99"/>
      <use x="776.099609" xlink:href="#DejaVuSans-116"/>
      <use x="815.308594" xlink:href="#DejaVuSans-105"/>
      <use x="843.091797" xlink:href="#DejaVuSans-111"/>
      <use x="904.273438" xlink:href="#DejaVuSans-110"/>
      <use x="967.652344" xlink:href="#DejaVuSans-44"/>
      <use x="999.439453" xlink:href="#DejaVuSans-116"/>
      <use x="1038.648438" xlink:href="#DejaVuSans-97"/>
      <use x="1099.927734" xlink:href="#DejaVuSans-114"/>
      <use x="1139.291016" xlink:href="#DejaVuSans-103"/>
      <use x="1202.767578" xlink:href="#DejaVuSans-101"/>
      <use x="1264.291016" xlink:href="#DejaVuSans-116"/>
      <use x="1303.5" xlink:href="#DejaVuSans-32"/>
      <use x="1335.287109" xlink:href="#DejaVuSans-112"/>
      <use x="1398.763672" xlink:href="#DejaVuSans-97"/>
      <use x="1460.042969" xlink:href="#DejaVuSans-105"/>
      <use x="1487.826172" xlink:href="#DejaVuSans-114"/>
      <use x="1528.939453" xlink:href="#DejaVuSans-115"/>
     </g>
    </g>
   </g>
   <g id="line2d_33">
    <defs>
     <path d="M 0 1.5 
C 0.397805 1.5 0.77937 1.341951 1.06066 1.06066 
C 1.341951 0.77937 1.5 0.397805 1.5 0 
C 1.5 -0.397805 1.341951 -0.77937 1.06066 -1.06066 
C 0.77937 -1.341951 0.397805 -1.5 0 -1.5 
C -0.397805 -1.5 -0.77937 -1.341951 -1.06066 -1.06066 
C -1.341951 -0.77937 -1.5 -0.397805 -1.5 0 
C -1.5 0.397805 -1.341951 0.77937 -1.06066 1.06066 
C -0.77937 1.341951 -0.397805 1.5 0 1.5 
z
" id="mb913c55514" style="stroke:#f5deb3;"/>
    </defs>
    <g>
     <use style="fill:#f5deb3;stroke:#f5deb3;" x="183.572899" xlink:href="#mb913c55514" y="30.334099"/>
     <use style="fill:#f5deb3;stroke:#f5deb3;" x="183.572899" xlink:href="#mb913c55514" y="30.334099"/>
    </g>
   </g>
   <g id="line2d_34">
    <defs>
     <path d="M 0 1.5 
C 0.397805 1.5 0.77937 1.341951 1.06066 1.06066 
C 1.341951 0.77937 1.5 0.397805 1.5 0 
C 1.5 -0.397805 1.341951 -0.77937 1.06066 -1.06066 
C 0.77937 -1.341951 0.397805 -1.5 0 -1.5 
C -0.397805 -1.5 -0.77937 -1.341951 -1.06066 -1.06066 
C -1.341951 -0.77937 -1.5 -0.397805 -1.5 0 
C -1.5 0.397805 -1.341951 0.77937 -1.06066 1.06066 
C -0.77937 1.341951 -0.397805 1.5 0 1.5 
z
" id="m69ff7beb40" style="stroke:#000080;"/>
    </defs>
    <g>
     <use style="fill:#000080;stroke:#000080;" x="287.130472" xlink:href="#m69ff7beb40" y="30.334099"/>
     <use style="fill:#000080;stroke:#000080;" x="287.130472" xlink:href="#m69ff7beb40" y="30.334099"/>
    </g>
   </g>
   <g id="line2d_35">
    <path d="M 17.444571 298.944 
L 17.444571 293.677139 
L 51.379845 293.677139 
L 51.379845 293.150453 
L 91.029752 293.150453 
L 91.029752 292.623767 
L 93.422441 292.623767 
L 93.422441 292.097081 
L 96.110718 292.097081 
L 96.110718 290.517023 
L 97.403108 290.517023 
L 97.403108 289.990337 
L 97.755429 289.990337 
L 97.755429 289.463651 
L 98.270913 289.463651 
L 98.270913 288.936964 
L 99.258306 288.936964 
L 99.258306 288.410278 
L 100.040467 288.410278 
L 100.040467 287.883592 
L 100.192776 287.883592 
L 100.192776 287.356906 
L 101.223245 287.356906 
L 101.223245 286.83022 
L 102.196206 286.83022 
L 102.196206 286.303534 
L 102.464508 286.303534 
L 102.464508 285.776848 
L 103.372333 285.776848 
L 103.372333 285.250162 
L 103.498249 285.250162 
L 103.498249 284.19679 
L 104.23523 284.19679 
L 104.23523 283.670104 
L 106.48859 283.670104 
L 106.48859 283.143418 
L 107.213174 283.143418 
L 107.314272 282.090045 
L 108.006005 282.090045 
L 108.006005 281.563359 
L 108.198707 281.563359 
L 108.294265 280.509987 
L 108.483824 280.509987 
L 108.483824 279.983301 
L 108.856871 279.983301 
L 108.856871 278.929929 
L 109.756002 278.929929 
L 109.756002 278.403243 
L 110.443353 278.403243 
L 110.443353 277.349871 
L 111.023335 277.349871 
L 111.023335 276.823185 
L 111.266113 276.823185 
L 111.266113 276.296499 
L 111.974805 276.296499 
L 111.974805 275.769812 
L 113.239614 275.769812 
L 113.239614 274.71644 
L 113.524343 274.71644 
L 113.524343 274.189754 
L 113.664983 274.189754 
L 113.664983 273.663068 
L 114.418861 273.663068 
L 114.485807 272.609696 
L 114.685115 272.609696 
L 114.685115 272.08301 
L 116.914437 272.08301 
L 116.914437 271.556324 
L 117.087964 271.556324 
L 117.087964 271.029638 
L 118.148599 271.029638 
L 118.148599 269.976266 
L 120.712642 269.976266 
L 120.712642 269.449579 
L 120.944859 269.449579 
L 120.944859 268.922893 
L 121.84399 268.922893 
L 121.84399 268.396207 
L 122.061712 268.396207 
L 122.061712 267.869521 
L 122.657258 267.869521 
L 122.657258 267.342835 
L 122.906394 267.342835 
L 122.906394 266.816149 
L 123.192626 266.816149 
L 123.192626 266.289463 
L 125.506102 266.289463 
L 125.506102 265.762777 
L 125.647598 265.762777 
L 125.647598 265.236091 
L 126.099688 265.236091 
L 126.099688 264.709405 
L 126.405947 264.709405 
L 126.405947 264.182719 
L 126.937471 264.182719 
L 126.937471 263.656033 
L 128.199452 263.656033 
L 128.199452 263.129347 
L 128.531065 263.129347 
L 128.531065 262.60266 
L 130.822389 262.60266 
L 130.822389 262.075974 
L 133.352844 262.075974 
L 133.352844 261.549288 
L 133.46572 261.549288 
L 133.46572 261.022602 
L 133.844123 261.022602 
L 133.844123 260.495916 
L 135.056115 260.495916 
L 135.056115 259.96923 
L 135.641855 259.96923 
L 135.641855 259.442544 
L 136.924311 259.442544 
L 136.924311 258.915858 
L 137.61184 258.915858 
L 137.61184 258.389172 
L 138.324456 258.389172 
L 138.324456 257.862486 
L 142.910378 257.862486 
L 142.910378 257.3358 
L 144.958609 257.3358 
L 144.958609 256.809114 
L 146.749392 256.809114 
L 146.749392 256.282427 
L 148.17112 256.282427 
L 148.17112 255.755741 
L 149.955193 255.755741 
L 149.955193 255.229055 
L 150.284246 255.229055 
L 150.284246 254.702369 
L 150.556607 254.702369 
L 150.556607 254.175683 
L 152.39064 254.175683 
L 152.39064 253.648997 
L 152.647216 253.648997 
L 152.647216 253.122311 
L 152.944315 253.122311 
L 152.944315 252.595625 
L 153.987696 252.595625 
L 153.987696 252.068939 
L 154.235652 252.068939 
L 154.235652 251.542253 
L 154.493614 251.542253 
L 154.493614 251.015567 
L 154.667942 251.015567 
L 154.667942 250.488881 
L 155.258271 250.488881 
L 155.258271 249.962195 
L 155.766741 249.962195 
L 155.766741 249.435508 
L 156.114049 249.435508 
L 156.114049 248.908822 
L 156.333721 248.908822 
L 156.430472 247.85545 
L 156.568618 247.85545 
L 156.670026 246.802078 
L 156.794487 246.802078 
L 156.888722 245.22202 
L 157.034952 245.22202 
L 157.034952 244.695334 
L 157.185742 244.695334 
L 157.249147 243.641962 
L 157.94839 243.641962 
L 158.003578 242.061903 
L 158.069574 242.061903 
L 158.069574 241.535217 
L 158.379686 241.535217 
L 158.449648 240.481845 
L 158.811096 240.481845 
L 158.811096 239.955159 
L 159.009867 239.955159 
L 159.009867 239.428473 
L 159.185813 239.428473 
L 159.185813 238.901787 
L 159.872369 238.901787 
L 159.872369 238.375101 
L 160.297798 238.375101 
L 160.297798 237.848415 
L 160.746084 237.848415 
L 160.746084 237.321729 
L 160.947372 237.321729 
L 161.02168 236.268356 
L 161.164758 236.268356 
L 161.27016 235.214984 
L 161.587082 235.214984 
L 161.685508 234.161612 
L 161.814408 234.161612 
L 161.92477 232.054868 
L 162.043181 232.054868 
L 162.069386 231.001496 
L 218.254992 231.001496 
L 218.359462 223.627891 
L 218.392478 223.627891 
L 218.426466 221.521146 
L 218.520662 221.521146 
L 218.630033 220.467774 
L 218.661011 220.467774 
L 218.768155 211.514111 
L 218.776942 211.514111 
L 218.886904 208.353994 
L 218.899658 208.353994 
L 218.905192 207.300622 
L 230.336713 207.300622 
L 230.421218 199.400331 
L 230.466213 199.400331 
L 230.571239 190.446667 
L 230.582832 190.446667 
L 230.654362 178.859574 
L 237.398502 178.859574 
L 237.500525 167.27248 
L 237.513741 167.27248 
L 237.611653 149.365153 
L 242.410025 149.365153 
L 242.515964 144.098292 
L 242.523497 144.098292 
L 242.568714 137.251373 
L 246.305784 137.251373 
L 246.411774 125.66428 
L 246.418042 125.66428 
L 246.425138 123.557535 
L 249.480014 123.557535 
L 249.584645 112.497128 
L 252.162842 112.497128 
L 252.251997 100.383348 
L 254.496641 100.383348 
L 254.571488 93.009743 
L 256.55691 93.009743 
L 256.616508 84.582765 
L 258.388928 84.582765 
L 258.446292 76.155788 
L 260.063191 76.155788 
L 260.100973 71.942299 
L 261.579342 71.942299 
L 261.61401 66.675439 
L 262.959695 66.675439 
L 263.00583 60.881892 
L 264.255014 60.881892 
L 264.294434 57.195089 
L 265.457543 57.195089 
L 265.48767 53.508287 
L 266.596335 53.508287 
L 266.60849 51.401542 
L 267.641409 51.401542 
L 267.670921 49.294798 
L 268.637047 49.294798 
L 268.660852 47.71474 
L 269.599722 47.71474 
L 269.599722 47.188054 
L 270.473875 47.188054 
L 270.498356 44.554623 
L 271.33273 44.554623 
L 271.343114 42.447879 
L 272.148741 42.447879 
L 272.156039 41.394507 
L 272.913084 41.394507 
L 272.92534 39.814448 
L 273.663846 39.814448 
L 273.673628 38.761076 
L 274.368819 38.761076 
L 274.370505 37.707704 
L 275.064947 37.707704 
L 275.064947 37.181018 
L 275.707186 37.181018 
L 275.707186 36.654332 
L 276.348374 36.654332 
L 276.357649 35.60096 
L 276.968466 35.60096 
L 276.968466 34.547588 
L 277.556108 34.547588 
L 277.556108 34.020902 
L 278.122709 34.020902 
L 278.130622 32.440843 
L 278.675984 32.440843 
L 278.675984 31.914157 
L 281.197353 31.914157 
L 281.197353 31.387471 
L 286.098344 31.387471 
L 286.098344 30.860785 
L 287.130472 30.860785 
L 287.130472 30.334099 
L 338.688 30.334099 
L 338.688 30.334099 
" style="fill:none;stroke:#000080;stroke-linecap:square;stroke-width:1.5;"/>
   </g>
   <g id="line2d_36">
    <defs>
     <path d="M 0 6 
C 1.591219 6 3.117479 5.367802 4.242641 4.242641 
C 5.367802 3.117479 6 1.591219 6 0 
C 6 -1.591219 5.367802 -3.117479 4.242641 -4.242641 
C 3.117479 -5.367802 1.591219 -6 0 -6 
C -1.591219 -6 -3.117479 -5.367802 -4.242641 -4.242641 
C -5.367802 -3.117479 -6 -1.591219 -6 0 
C -6 1.591219 -5.367802 3.117479 -4.242641 4.242641 
C -3.117479 5.367802 -1.591219 6 0 6 
z
" id="me79bd85281" style="stroke:#000080;stroke-width:1.5;"/>
    </defs>
    <g>
     <use style="fill-opacity:0;stroke:#000080;stroke-width:1.5;" x="144.958609" xlink:href="#me79bd85281" y="256.809114"/>
     <use style="fill-opacity:0;stroke:#000080;stroke-width:1.5;" x="218.667472" xlink:href="#me79bd85281" y="219.414402"/>
     <use style="fill-opacity:0;stroke:#000080;stroke-width:1.5;" x="264.294434" xlink:href="#me79bd85281" y="57.195089"/>
     <use style="fill-opacity:0;stroke:#000080;stroke-width:1.5;" x="287.130472" xlink:href="#me79bd85281" y="30.334099"/>
     <use style="fill-opacity:0;stroke:#000080;stroke-width:1.5;" x="338.688" xlink:href="#me79bd85281" y="30.334099"/>
    </g>
   </g>
   <g id="line2d_37">
    <path style="fill:none;stroke:#000080;stroke-linecap:square;stroke-width:1.5;"/>
    <g/>
   </g>
   <g id="line2d_38">
    <path clip-path="url(#pbf3933c819)" d="M 218.221889 231.001496 
" style="fill:none;stroke:#000080;stroke-linecap:square;stroke-width:1.5;"/>
    <defs>
     <path d="M -12 12 
L 12 -12 
M -12 -12 
L 12 12 
" id="mba5246e30a" style="stroke:#000080;"/>
    </defs>
    <g clip-path="url(#pbf3933c819)">
     <use style="fill:#000080;stroke:#000080;" x="218.221889" xlink:href="#mba5246e30a" y="231.001496"/>
    </g>
   </g>
   <g id="line2d_39">
    <defs>
     <path d="M 0 1.5 
C 0.397805 1.5 0.77937 1.341951 1.06066 1.06066 
C 1.341951 0.77937 1.5 0.397805 1.5 0 
C 1.5 -0.397805 1.341951 -0.77937 1.06066 -1.06066 
C 0.77937 -1.341951 0.397805 -1.5 0 -1.5 
C -0.397805 -1.5 -0.77937 -1.341951 -1.06066 -1.06066 
C -1.341951 -0.77937 -1.5 -0.397805 -1.5 0 
C -1.5 0.397805 -1.341951 0.77937 -1.06066 1.06066 
C -0.77937 1.341951 -0.397805 1.5 0 1.5 
z
" id="mf630cf692b" style="stroke:#ff00ff;"/>
    </defs>
    <g>
     <use style="fill:#ff00ff;stroke:#ff00ff;" x="284.232652" xlink:href="#mf630cf692b" y="30.334099"/>
     <use style="fill:#ff00ff;stroke:#ff00ff;" x="284.232652" xlink:href="#mf630cf692b" y="30.334099"/>
    </g>
   </g>
   <g id="line2d_40">
    <path d="M 17.444571 298.944 
L 17.444571 293.677139 
L 85.315119 293.677139 
L 85.315119 293.150453 
L 91.029752 293.150453 
L 91.029752 292.623767 
L 93.644601 292.623767 
L 93.644601 292.097081 
L 97.043522 292.097081 
L 97.043522 291.570395 
L 97.580158 291.570395 
L 97.580158 290.517023 
L 98.935347 290.517023 
L 98.935347 289.990337 
L 99.886816 289.990337 
L 99.886816 289.463651 
L 100.493461 289.463651 
L 100.493461 288.936964 
L 100.789049 288.936964 
L 100.789049 288.410278 
L 101.646892 288.410278 
L 101.646892 287.883592 
L 101.785851 287.883592 
L 101.785851 287.356906 
L 102.859376 287.356906 
L 102.859376 286.303534 
L 103.747386 286.303534 
L 103.747386 285.776848 
L 104.355088 285.776848 
L 104.355088 285.250162 
L 105.057436 285.250162 
L 105.057436 284.19679 
L 105.732589 284.19679 
L 105.842616 283.143418 
L 106.802819 283.143418 
L 106.802819 282.616732 
L 108.102622 282.616732 
L 108.198707 281.563359 
L 108.764355 281.563359 
L 108.856871 280.509987 
L 108.948899 280.509987 
L 108.948899 279.983301 
L 109.756002 279.983301 
L 109.756002 279.456615 
L 110.443353 279.456615 
L 110.527398 278.403243 
L 111.346294 278.403243 
L 111.346294 277.876557 
L 112.051799 277.876557 
L 112.051799 277.349871 
L 112.655818 277.349871 
L 112.655818 276.823185 
L 112.877038 276.823185 
L 112.877038 276.296499 
L 113.239614 276.296499 
L 113.239614 275.769812 
L 113.73488 275.769812 
L 113.73488 275.243126 
L 114.882171 275.243126 
L 114.882171 274.71644 
L 115.141496 274.71644 
L 115.141496 274.189754 
L 115.269727 274.189754 
L 115.269727 273.663068 
L 115.460322 273.663068 
L 115.460322 273.136382 
L 116.019919 273.136382 
L 116.019919 272.609696 
L 116.141872 272.609696 
L 116.141872 272.08301 
L 117.259781 272.08301 
L 117.259781 271.556324 
L 118.734401 271.556324 
L 118.734401 271.029638 
L 118.994305 271.029638 
L 118.994305 270.502952 
L 119.45259 270.502952 
L 119.45259 269.976266 
L 119.80089 269.976266 
L 119.80089 269.449579 
L 122.362027 269.449579 
L 122.362027 268.396207 
L 122.823744 268.396207 
L 122.823744 267.869521 
L 123.474235 267.869521 
L 123.474235 267.342835 
L 123.712047 267.342835 
L 123.712047 266.816149 
L 124.062793 266.816149 
L 124.062793 266.289463 
L 124.557288 266.289463 
L 124.557288 265.762777 
L 124.817858 265.762777 
L 124.817858 265.236091 
L 127.132689 265.236091 
L 127.132689 264.709405 
L 127.736845 264.709405 
L 127.736845 264.182719 
L 128.046609 264.182719 
L 128.046609 263.656033 
L 128.590686 263.656033 
L 128.590686 263.129347 
L 129.489668 263.129347 
L 129.489668 262.60266 
L 130.182344 262.60266 
L 130.182344 262.075974 
L 131.640805 262.075974 
L 131.640805 261.549288 
L 132.470242 261.549288 
L 132.470242 261.022602 
L 134.994383 261.022602 
L 134.994383 260.495916 
L 135.50226 260.495916 
L 135.50226 259.96923 
L 136.701442 259.96923 
L 136.701442 259.442544 
L 137.289545 259.442544 
L 137.289545 258.915858 
L 138.578062 258.915858 
L 138.578062 258.389172 
L 139.269142 258.389172 
L 139.269142 257.862486 
L 139.980403 257.862486 
L 139.980403 257.3358 
L 143.87806 257.3358 
L 143.87806 256.809114 
L 144.570138 256.809114 
L 144.570138 256.282427 
L 145.074639 256.282427 
L 145.074639 255.755741 
L 147.174888 255.755741 
L 147.174888 255.229055 
L 148.40198 255.229055 
L 148.40198 254.702369 
L 149.104327 254.702369 
L 149.104327 254.175683 
L 149.823575 254.175683 
L 149.823575 253.648997 
L 151.61336 253.648997 
L 151.61336 253.122311 
L 152.214909 253.122311 
L 152.214909 252.595625 
L 154.050017 252.595625 
L 154.050017 252.068939 
L 154.303908 252.068939 
L 154.303908 251.542253 
L 154.601099 251.542253 
L 154.601099 251.015567 
L 155.174226 251.015567 
L 155.174226 250.488881 
L 155.590458 250.488881 
L 155.590458 249.962195 
L 155.891575 249.962195 
L 155.891575 249.435508 
L 156.107908 249.435508 
L 156.218128 248.382136 
L 156.242527 248.382136 
L 156.327657 247.328764 
L 156.812195 247.328764 
L 156.900466 246.275392 
L 156.964915 246.275392 
L 156.964915 245.748706 
L 157.720277 245.748706 
L 157.720277 245.22202 
L 158.091517 245.22202 
L 158.091517 244.695334 
L 158.228039 244.695334 
L 158.228039 244.168648 
L 158.694975 244.168648 
L 158.795307 243.115275 
L 158.905533 243.115275 
L 158.905533 242.588589 
L 159.608019 242.588589 
L 159.663214 241.535217 
L 159.728221 241.535217 
L 159.728221 241.008531 
L 160.844678 241.008531 
L 160.938061 239.955159 
L 161.53316 239.955159 
L 161.53316 239.428473 
L 161.955547 239.428473 
L 161.955547 238.901787 
L 162.393666 238.901787 
L 162.393666 238.375101 
L 162.534461 238.375101 
L 162.534461 237.848415 
L 162.825228 237.848415 
L 162.929393 236.795043 
L 163.090659 236.795043 
L 163.090659 236.268356 
L 163.246367 236.268356 
L 163.356164 234.688298 
L 163.473328 234.688298 
L 163.577708 233.634926 
L 163.585711 233.634926 
L 163.665543 232.581554 
L 218.253773 232.581554 
L 218.333663 225.207949 
L 218.370013 225.207949 
L 218.47569 221.521146 
L 218.506943 221.521146 
L 218.613671 219.941088 
L 218.670361 219.941088 
L 218.77559 213.094169 
L 218.781502 213.094169 
L 218.885058 204.667192 
L 218.901 204.667192 
L 218.97214 201.507075 
L 230.331837 201.507075 
L 230.441048 191.50004 
L 230.453073 191.50004 
L 230.560069 185.706493 
L 230.579484 185.706493 
L 230.68588 177.806202 
L 237.39885 177.806202 
L 237.486837 169.379224 
L 237.512587 169.379224 
L 237.623409 159.372189 
L 237.62937 159.372189 
L 237.631032 158.318817 
L 242.418301 158.318817 
L 242.527089 151.471897 
L 242.536175 151.471897 
L 242.588605 141.991548 
L 246.307595 141.991548 
L 246.416068 132.511199 
L 246.432058 132.511199 
L 246.442122 130.404454 
L 249.485561 130.404454 
L 249.596335 118.817361 
L 252.185366 118.817361 
L 252.263911 109.337011 
L 254.497338 109.337011 
L 254.581571 96.696545 
L 256.549649 96.696545 
L 256.624724 86.162824 
L 258.392674 86.162824 
L 258.435519 79.842591 
L 260.047859 79.842591 
L 260.108602 71.415613 
L 261.567683 71.415613 
L 261.62057 60.355206 
L 262.983374 60.355206 
L 263.009681 57.721775 
L 264.257342 57.721775 
L 264.296806 52.9816 
L 265.474488 52.9816 
L 265.486603 51.401542 
L 266.589357 51.401542 
L 266.61457 49.821484 
L 267.664318 49.821484 
L 267.66786 48.768112 
L 268.638132 48.768112 
L 268.664313 47.188054 
L 269.594846 47.188054 
L 269.610155 45.081309 
L 270.473073 45.081309 
L 270.503621 41.921193 
L 271.328507 41.921193 
L 271.351495 39.287762 
L 272.155105 39.287762 
L 272.156831 38.23439 
L 272.919773 38.23439 
L 272.93444 36.654332 
L 273.655991 36.654332 
L 273.6654 35.60096 
L 274.380177 35.60096 
L 274.380177 35.074274 
L 275.063125 35.074274 
L 275.063125 34.547588 
L 275.706069 34.547588 
L 275.710072 33.494215 
L 276.351099 33.494215 
L 276.351099 32.967529 
L 276.951528 32.967529 
L 276.951528 32.440843 
L 279.213754 32.440843 
L 279.213754 31.914157 
L 281.672057 31.914157 
L 281.672057 31.387471 
L 282.118686 31.387471 
L 282.118686 30.860785 
L 284.232652 30.860785 
L 284.232652 30.334099 
L 338.688 30.334099 
L 338.688 30.334099 
" style="fill:none;stroke:#ff00ff;stroke-linecap:square;stroke-width:1.5;"/>
   </g>
   <g id="line2d_41">
    <defs>
     <path d="M -0 8.485281 
L 5.091169 0 
L 0 -8.485281 
L -5.091169 -0 
z
" id="m56ffeb88d0" style="stroke:#ff00ff;stroke-linejoin:miter;stroke-width:1.5;"/>
    </defs>
    <g>
     <use style="fill-opacity:0;stroke:#ff00ff;stroke-linejoin:miter;stroke-width:1.5;" x="119.80089" xlink:href="#m56ffeb88d0" y="269.976266"/>
     <use style="fill-opacity:0;stroke:#ff00ff;stroke-linejoin:miter;stroke-width:1.5;" x="163.665543" xlink:href="#m56ffeb88d0" y="232.581554"/>
     <use style="fill-opacity:0;stroke:#ff00ff;stroke-linejoin:miter;stroke-width:1.5;" x="249.596335" xlink:href="#m56ffeb88d0" y="119.344047"/>
     <use style="fill-opacity:0;stroke:#ff00ff;stroke-linejoin:miter;stroke-width:1.5;" x="284.232652" xlink:href="#m56ffeb88d0" y="30.334099"/>
     <use style="fill-opacity:0;stroke:#ff00ff;stroke-linejoin:miter;stroke-width:1.5;" x="284.232652" xlink:href="#m56ffeb88d0" y="30.334099"/>
     <use style="fill-opacity:0;stroke:#ff00ff;stroke-linejoin:miter;stroke-width:1.5;" x="338.688" xlink:href="#m56ffeb88d0" y="30.334099"/>
    </g>
   </g>
   <g id="line2d_42">
    <path style="fill:none;stroke:#ff00ff;stroke-linecap:square;stroke-width:1.5;"/>
    <g/>
   </g>
   <g id="line2d_43">
    <path clip-path="url(#pbf3933c819)" d="M 218.222063 232.581554 
" style="fill:none;stroke:#ff00ff;stroke-linecap:square;stroke-width:1.5;"/>
    <defs>
     <path d="M -12 12 
L 12 -12 
M -12 -12 
L 12 12 
" id="m0d51efe6ab" style="stroke:#ff00ff;"/>
    </defs>
    <g clip-path="url(#pbf3933c819)">
     <use style="fill:#ff00ff;stroke:#ff00ff;" x="218.222063" xlink:href="#m0d51efe6ab" y="232.581554"/>
    </g>
   </g>
   <g id="line2d_44">
    <defs>
     <path d="M 0 1.5 
C 0.397805 1.5 0.77937 1.341951 1.06066 1.06066 
C 1.341951 0.77937 1.5 0.397805 1.5 0 
C 1.5 -0.397805 1.341951 -0.77937 1.06066 -1.06066 
C 0.77937 -1.341951 0.397805 -1.5 0 -1.5 
C -0.397805 -1.5 -0.77937 -1.341951 -1.06066 -1.06066 
C -1.341951 -0.77937 -1.5 -0.397805 -1.5 0 
C -1.5 0.397805 -1.341951 0.77937 -1.06066 1.06066 
C -0.77937 1.341951 -0.397805 1.5 0 1.5 
z
" id="m7e637fba68" style="stroke:#ff7500;"/>
    </defs>
    <g>
     <use style="fill:#ff7500;stroke:#ff7500;" x="282.571631" xlink:href="#m7e637fba68" y="30.334099"/>
     <use style="fill:#ff7500;stroke:#ff7500;" x="282.571631" xlink:href="#m7e637fba68" y="30.334099"/>
    </g>
   </g>
   <g id="line2d_45">
    <path d="M 17.444571 298.944 
L 17.444571 293.677139 
L 83.830028 293.677139 
L 83.830028 293.150453 
L 89.418828 293.150453 
L 89.418828 292.623767 
L 91.029752 292.623767 
L 91.029752 292.097081 
L 93.422441 292.097081 
L 93.422441 291.570395 
L 94.714831 291.570395 
L 94.714831 291.043709 
L 95.526106 291.043709 
L 95.526106 290.517023 
L 95.723163 290.517023 
L 95.723163 289.990337 
L 96.110718 289.990337 
L 96.110718 288.410278 
L 97.755429 288.410278 
L 97.755429 287.883592 
L 98.270913 287.883592 
L 98.270913 287.356906 
L 99.258306 287.356906 
L 99.258306 286.83022 
L 100.192776 286.83022 
L 100.192776 286.303534 
L 101.223245 286.303534 
L 101.223245 285.776848 
L 102.464508 285.776848 
L 102.464508 285.250162 
L 102.728744 285.250162 
L 102.728744 284.723476 
L 103.498249 284.723476 
L 103.498249 284.19679 
L 104.114542 284.19679 
L 104.114542 283.670104 
L 104.23523 283.670104 
L 104.23523 283.143418 
L 105.171792 283.143418 
L 105.171792 282.616732 
L 106.48859 282.616732 
L 106.48859 282.090045 
L 107.213174 282.090045 
L 107.314272 281.036673 
L 108.006005 281.036673 
L 108.006005 280.509987 
L 108.198707 280.509987 
L 108.294265 279.456615 
L 108.483824 279.456615 
L 108.483824 278.929929 
L 108.856871 278.929929 
L 108.856871 277.876557 
L 109.401893 277.876557 
L 109.401893 277.349871 
L 109.756002 277.349871 
L 109.756002 276.823185 
L 110.103064 276.823185 
L 110.103064 276.296499 
L 111.104637 276.296499 
L 111.104637 275.769812 
L 111.346294 275.769812 
L 111.346294 275.243126 
L 112.051799 275.243126 
L 112.051799 274.71644 
L 112.204777 274.71644 
L 112.204777 274.189754 
L 113.73488 274.189754 
L 113.73488 273.663068 
L 114.485807 273.663068 
L 114.485807 273.136382 
L 116.323218 273.136382 
L 116.323218 272.609696 
L 116.972471 272.609696 
L 116.972471 272.08301 
L 117.202696 272.08301 
L 117.202696 271.556324 
L 117.429921 271.556324 
L 117.429921 271.029638 
L 117.875678 271.029638 
L 117.875678 270.502952 
L 118.202674 270.502952 
L 118.202674 269.449579 
L 120.759333 269.449579 
L 120.759333 268.922893 
L 121.219499 268.922893 
L 121.219499 267.869521 
L 121.887753 267.869521 
L 121.887753 267.342835 
L 122.104932 267.342835 
L 122.104932 266.816149 
L 122.740699 266.816149 
L 122.740699 266.289463 
L 123.273551 266.289463 
L 123.273551 265.762777 
L 125.576994 265.762777 
L 125.576994 265.236091 
L 126.168212 265.236091 
L 126.168212 264.709405 
L 126.806101 264.709405 
L 126.806101 264.182719 
L 127.002787 264.182719 
L 127.002787 263.656033 
L 128.590686 263.656033 
L 128.590686 263.129347 
L 130.073348 263.129347 
L 130.073348 262.60266 
L 130.900768 262.60266 
L 130.900768 262.075974 
L 131.515432 262.075974 
L 131.515432 261.549288 
L 133.420657 261.549288 
L 133.420657 261.022602 
L 133.533096 261.022602 
L 133.533096 260.495916 
L 133.910056 260.495916 
L 133.910056 259.96923 
L 135.138086 259.96923 
L 135.138086 259.442544 
L 135.721125 259.442544 
L 135.721125 258.915858 
L 137.68266 258.915858 
L 137.68266 258.389172 
L 138.084384 258.389172 
L 138.084384 257.862486 
L 140.871049 257.862486 
L 140.871049 257.3358 
L 142.311031 257.3358 
L 142.311031 256.809114 
L 142.988757 256.809114 
L 142.988757 256.282427 
L 143.553018 256.282427 
L 143.553018 255.755741 
L 145.598655 255.755741 
L 145.598655 255.229055 
L 146.833235 255.229055 
L 146.833235 254.702369 
L 148.248413 254.702369 
L 148.248413 254.175683 
L 149.814765 254.175683 
L 149.814765 253.648997 
L 150.033689 253.648997 
L 150.033689 253.122311 
L 150.369816 253.122311 
L 150.369816 252.595625 
L 150.640855 252.595625 
L 150.640855 252.068939 
L 152.474064 252.068939 
L 152.474064 251.542253 
L 153.025137 251.542253 
L 153.025137 251.015567 
L 154.015422 251.015567 
L 154.015422 250.488881 
L 154.674612 250.488881 
L 154.674612 249.962195 
L 154.833936 249.962195 
L 154.833936 249.435508 
L 155.238912 249.435508 
L 155.341913 248.382136 
L 156.652174 248.382136 
L 156.753099 247.328764 
L 156.941506 247.328764 
L 157.046598 246.275392 
L 157.220355 246.275392 
L 157.220355 245.748706 
L 158.031107 245.748706 
L 158.086033 244.168648 
L 158.179014 244.168648 
L 158.179014 243.641962 
L 158.465753 243.641962 
L 158.535371 242.588589 
L 159.092886 242.588589 
L 159.092886 242.061903 
L 159.956318 242.061903 
L 159.956318 241.535217 
L 160.379729 241.535217 
L 160.379729 241.008531 
L 160.830627 241.008531 
L 160.830627 240.481845 
L 161.104901 240.481845 
L 161.104901 239.955159 
L 161.247301 239.955159 
L 161.356752 238.901787 
L 161.515149 238.901787 
L 161.515149 238.375101 
L 161.672119 238.375101 
L 161.770068 237.321729 
L 161.898347 237.321729 
L 161.898347 236.795043 
L 162.126028 236.795043 
L 162.126028 236.268356 
L 218.240539 236.268356 
L 218.324997 228.368065 
L 218.387815 228.368065 
L 218.462451 226.261321 
L 218.511574 226.261321 
L 218.620491 220.99446 
L 218.626285 220.99446 
L 218.735675 213.620855 
L 218.742954 213.620855 
L 218.829736 209.934052 
L 218.870278 209.934052 
L 218.908546 202.560447 
L 230.335494 202.560447 
L 230.441827 196.240214 
L 230.455927 196.240214 
L 230.564624 188.339923 
L 230.568834 188.339923 
L 230.657696 175.699457 
L 237.395424 175.699457 
L 237.482734 168.852538 
L 237.527869 168.852538 
L 237.613603 154.105328 
L 242.415819 154.105328 
L 242.52631 143.571606 
L 242.527046 143.571606 
L 242.570743 138.304745 
L 246.304947 138.304745 
L 246.413575 128.29771 
L 246.421365 128.29771 
L 246.427006 126.190966 
L 249.492703 126.190966 
L 249.586406 110.917069 
L 252.172701 110.917069 
L 252.255416 99.856662 
L 254.495443 99.856662 
L 254.573114 86.162824 
L 256.548565 86.162824 
L 256.61809 79.842591 
L 258.3902 79.842591 
L 258.445302 72.468985 
L 260.048556 72.468985 
L 260.104117 63.515322 
L 261.578166 63.515322 
L 261.613749 59.82852 
L 262.964643 59.82852 
L 263.007755 54.034973 
L 264.259184 54.034973 
L 264.295887 48.241426 
L 265.461295 48.241426 
L 265.483308 46.134681 
L 266.609687 46.134681 
L 266.618767 44.027937 
L 267.642434 44.027937 
L 267.642434 43.501251 
L 268.634142 43.501251 
L 268.666237 40.341135 
L 269.591042 40.341135 
L 269.601078 38.761076 
L 270.501446 38.761076 
L 270.501498 37.707704 
L 271.348271 37.707704 
L 271.348271 37.181018 
L 272.153855 37.181018 
L 272.153855 36.654332 
L 272.921341 36.654332 
L 272.925772 35.60096 
L 273.656122 35.60096 
L 273.663941 34.547588 
L 274.374576 34.547588 
L 274.380087 32.967529 
L 275.726008 32.967529 
L 275.726008 32.440843 
L 276.352828 32.440843 
L 276.352828 31.914157 
L 277.556119 31.914157 
L 277.556119 31.387471 
L 278.128509 31.387471 
L 278.128509 30.860785 
L 282.571631 30.860785 
L 282.571631 30.334099 
L 338.688 30.334099 
L 338.688 30.334099 
" style="fill:none;stroke:#ff7500;stroke-linecap:square;stroke-width:1.5;"/>
   </g>
   <g id="line2d_46">
    <defs>
     <path d="M 0 -6 
L -1.347084 -1.854102 
L -5.706339 -1.854102 
L -2.179628 0.708204 
L -3.526712 4.854102 
L -0 2.291796 
L 3.526712 4.854102 
L 2.179628 0.708204 
L 5.706339 -1.854102 
L 1.347084 -1.854102 
z
" id="m2482198430" style="stroke:#ff7500;stroke-linejoin:bevel;stroke-width:1.5;"/>
    </defs>
    <g>
     <use style="fill-opacity:0;stroke:#ff7500;stroke-linejoin:bevel;stroke-width:1.5;" x="148.248413" xlink:href="#m2482198430" y="254.702369"/>
     <use style="fill-opacity:0;stroke:#ff7500;stroke-linejoin:bevel;stroke-width:1.5;" x="230.657696" xlink:href="#m2482198430" y="176.752829"/>
     <use style="fill-opacity:0;stroke:#ff7500;stroke-linejoin:bevel;stroke-width:1.5;" x="262.965809" xlink:href="#m2482198430" y="59.301833"/>
     <use style="fill-opacity:0;stroke:#ff7500;stroke-linejoin:bevel;stroke-width:1.5;" x="282.571631" xlink:href="#m2482198430" y="30.334099"/>
     <use style="fill-opacity:0;stroke:#ff7500;stroke-linejoin:bevel;stroke-width:1.5;" x="338.688" xlink:href="#m2482198430" y="30.334099"/>
    </g>
   </g>
   <g id="line2d_47">
    <path style="fill:none;stroke:#ff7500;stroke-linecap:square;stroke-width:1.5;"/>
    <g/>
   </g>
   <g id="line2d_48">
    <path clip-path="url(#pbf3933c819)" d="M 218.223109 236.268356 
" style="fill:none;stroke:#ff7500;stroke-linecap:square;stroke-width:1.5;"/>
    <defs>
     <path d="M -12 12 
L 12 -12 
M -12 -12 
L 12 12 
" id="ma37ff308a7" style="stroke:#ff7500;"/>
    </defs>
    <g clip-path="url(#pbf3933c819)">
     <use style="fill:#ff7500;stroke:#ff7500;" x="218.223109" xlink:href="#ma37ff308a7" y="236.268356"/>
    </g>
   </g>
   <g id="line2d_49">
    <defs>
     <path d="M 0 1.5 
C 0.397805 1.5 0.77937 1.341951 1.06066 1.06066 
C 1.341951 0.77937 1.5 0.397805 1.5 0 
C 1.5 -0.397805 1.341951 -0.77937 1.06066 -1.06066 
C 0.77937 -1.341951 0.397805 -1.5 0 -1.5 
C -0.397805 -1.5 -0.77937 -1.341951 -1.06066 -1.06066 
C -1.341951 -0.77937 -1.5 -0.397805 -1.5 0 
C -1.5 0.397805 -1.341951 0.77937 -1.06066 1.06066 
C -0.77937 1.341951 -0.397805 1.5 0 1.5 
z
" id="m35f31ec057" style="stroke:#6495ed;"/>
    </defs>
    <g>
     <use style="fill:#6495ed;stroke:#6495ed;" x="285.375232" xlink:href="#m35f31ec057" y="30.334099"/>
     <use style="fill:#6495ed;stroke:#6495ed;" x="285.375232" xlink:href="#m35f31ec057" y="30.334099"/>
    </g>
   </g>
   <g id="line2d_50">
    <path d="M 17.444571 298.944 
L 17.444571 293.677139 
L 51.379845 293.677139 
L 51.379845 293.150453 
L 82.626842 293.150453 
L 82.626842 292.623767 
L 89.972502 292.623767 
L 89.972502 292.097081 
L 91.029752 292.097081 
L 91.029752 291.043709 
L 93.197415 291.043709 
L 93.197415 290.517023 
L 93.422441 290.517023 
L 93.422441 289.990337 
L 94.505975 289.990337 
L 94.505975 289.463651 
L 95.918017 289.463651 
L 95.918017 288.936964 
L 96.86091 288.936964 
L 96.86091 288.410278 
L 97.928955 288.410278 
L 97.928955 287.883592 
L 99.731799 287.883592 
L 99.731799 287.356906 
L 100.040467 287.356906 
L 100.040467 286.83022 
L 100.934985 286.83022 
L 100.934985 286.303534 
L 101.506816 286.303534 
L 101.506816 285.776848 
L 101.646892 285.776848 
L 101.646892 285.250162 
L 101.785851 285.250162 
L 101.785851 284.19679 
L 102.989037 284.19679 
L 102.989037 283.670104 
L 103.747386 283.670104 
L 103.747386 283.143418 
L 104.23523 283.143418 
L 104.23523 282.616732 
L 104.474128 282.616732 
L 104.474128 281.036673 
L 105.171792 281.036673 
L 105.171792 280.509987 
L 106.275913 280.509987 
L 106.275913 279.983301 
L 107.213174 279.983301 
L 107.213174 279.456615 
L 108.294265 279.456615 
L 108.294265 278.929929 
L 109.040444 278.929929 
L 109.040444 278.403243 
L 109.401893 278.403243 
L 109.401893 277.349871 
L 109.756002 277.349871 
L 109.756002 276.823185 
L 109.930396 276.823185 
L 109.930396 276.296499 
L 110.61104 276.296499 
L 110.61104 275.769812 
L 110.77713 275.769812 
L 110.77713 275.243126 
L 111.505558 275.243126 
L 111.505558 274.71644 
L 111.74176 274.71644 
L 111.74176 274.189754 
L 112.356423 274.189754 
L 112.356423 273.663068 
L 113.942906 273.663068 
L 113.942906 272.609696 
L 115.141496 272.609696 
L 115.141496 272.08301 
L 115.773423 272.08301 
L 115.835374 271.029638 
L 117.875678 271.029638 
L 117.875678 270.502952 
L 118.629344 270.502952 
L 118.629344 269.976266 
L 118.786692 269.976266 
L 118.786692 269.449579 
L 119.40226 269.449579 
L 119.40226 268.922893 
L 119.948058 268.922893 
L 119.948058 268.396207 
L 121.53454 268.396207 
L 121.53454 267.869521 
L 121.712041 267.869521 
L 121.712041 267.342835 
L 123.07053 267.342835 
L 123.07053 266.289463 
L 123.790603 266.289463 
L 123.790603 265.762777 
L 125.470548 265.762777 
L 125.470548 265.236091 
L 127.132689 265.236091 
L 127.132689 264.709405 
L 127.261631 264.709405 
L 127.261631 264.182719 
L 128.229861 264.182719 
L 128.229861 263.656033 
L 128.885774 263.656033 
L 128.885774 263.129347 
L 129.602362 263.129347 
L 129.602362 262.60266 
L 130.236587 262.60266 
L 130.236587 262.075974 
L 131.133813 262.075974 
L 131.133813 261.022602 
L 131.962617 261.022602 
L 131.962617 260.495916 
L 132.847322 260.495916 
L 132.847322 259.96923 
L 134.55603 259.96923 
L 134.55603 259.442544 
L 135.076644 259.442544 
L 135.076644 258.915858 
L 135.956794 258.915858 
L 135.956794 258.389172 
L 137.540732 258.389172 
L 137.540732 257.862486 
L 138.728473 257.862486 
L 138.728473 257.3358 
L 139.058148 257.3358 
L 139.058148 256.809114 
L 139.620495 256.809114 
L 139.620495 256.282427 
L 142.805321 256.282427 
L 142.805321 255.755741 
L 145.932112 255.755741 
L 145.932112 255.229055 
L 147.499916 255.229055 
L 147.499916 254.702369 
L 147.96658 254.702369 
L 147.96658 254.175683 
L 148.190475 254.175683 
L 148.190475 253.648997 
L 148.411533 253.648997 
L 148.411533 253.122311 
L 148.826773 253.122311 
L 148.826773 252.595625 
L 148.956849 252.595625 
L 148.956849 252.068939 
L 149.619812 252.068939 
L 149.619812 251.542253 
L 149.83238 251.542253 
L 149.920192 250.488881 
L 150.352736 250.488881 
L 150.352736 249.962195 
L 150.480434 249.962195 
L 150.54816 248.908822 
L 150.990318 248.908822 
L 150.990318 248.382136 
L 151.340991 248.382136 
L 151.340991 247.85545 
L 151.589498 247.85545 
L 151.589498 247.328764 
L 151.944047 247.328764 
L 151.944047 246.802078 
L 152.23026 246.802078 
L 152.23026 246.275392 
L 152.55709 246.275392 
L 152.55709 245.748706 
L 152.959038 245.748706 
L 152.959038 245.22202 
L 153.112882 245.22202 
L 153.127464 244.168648 
L 153.25815 244.168648 
L 153.25815 243.641962 
L 153.402218 243.641962 
L 153.473807 242.588589 
L 153.883332 242.588589 
L 153.883332 242.061903 
L 154.105226 242.061903 
L 154.173993 241.008531 
L 154.310719 241.008531 
L 154.317527 239.955159 
L 154.513818 239.955159 
L 154.513818 239.428473 
L 154.866947 239.428473 
L 154.866947 238.901787 
L 155.128803 238.901787 
L 155.16126 237.848415 
L 155.271165 237.848415 
L 155.367568 236.795043 
L 155.672525 236.795043 
L 155.672525 236.268356 
L 156.058696 236.268356 
L 156.058696 235.74167 
L 156.472632 235.74167 
L 156.580579 234.161612 
L 156.687861 234.161612 
L 156.687861 233.634926 
L 156.92979 233.634926 
L 157.023299 232.054868 
L 157.692253 232.054868 
L 157.692253 231.528182 
L 158.217157 231.528182 
L 158.217157 231.001496 
L 218.244893 231.001496 
L 218.345442 217.307658 
L 218.369495 217.307658 
L 218.429223 214.674227 
L 218.495959 214.674227 
L 218.587221 209.934052 
L 218.607532 209.934052 
L 218.708731 202.033761 
L 218.727376 202.033761 
L 218.751246 200.980389 
L 230.328092 200.980389 
L 230.413852 195.713528 
L 230.447451 195.713528 
L 230.548977 183.599748 
L 230.56239 183.599748 
L 230.578883 179.38626 
L 237.388569 179.38626 
L 237.498273 172.012655 
L 237.507798 172.012655 
L 237.553962 165.165736 
L 242.413423 165.165736 
L 242.5238 152.52527 
L 242.524579 152.52527 
L 242.527132 149.891839 
L 246.298151 149.891839 
L 246.391397 134.091257 
L 249.483383 134.091257 
L 249.559016 114.603872 
L 252.167797 114.603872 
L 252.236802 106.703581 
L 254.500628 106.703581 
L 254.553496 95.643173 
L 256.553038 95.643173 
L 256.601879 87.216196 
L 258.394382 87.216196 
L 258.42853 77.20916 
L 260.060436 77.20916 
L 260.083302 73.522358 
L 261.56289 73.522358 
L 261.599475 69.835555 
L 262.96416 69.835555 
L 262.992638 62.46195 
L 264.258885 62.46195 
L 264.282232 58.248461 
L 265.457926 58.248461 
L 265.48122 54.034973 
L 266.583105 54.034973 
L 266.605868 49.294798 
L 267.64184 49.294798 
L 267.66011 47.188054 
L 268.646137 47.188054 
L 268.651063 46.134681 
L 269.580404 46.134681 
L 269.594553 44.554623 
L 270.487448 44.554623 
L 270.490722 42.974565 
L 271.331809 42.974565 
L 271.337674 41.921193 
L 272.151148 41.921193 
L 272.151148 41.394507 
L 272.918296 41.394507 
L 272.923159 40.341135 
L 273.651975 40.341135 
L 273.660986 38.761076 
L 274.371 38.761076 
L 274.375635 36.654332 
L 275.714609 36.654332 
L 275.717125 34.547588 
L 276.953067 34.547588 
L 276.953067 34.020902 
L 279.2015 34.020902 
L 279.2015 33.494215 
L 280.236522 33.494215 
L 280.237209 32.440843 
L 280.724614 32.440843 
L 280.727848 31.387471 
L 284.609973 31.387471 
L 284.609973 30.860785 
L 285.375232 30.860785 
L 285.375232 30.334099 
L 338.688 30.334099 
L 338.688 30.334099 
" style="fill:none;stroke:#6495ed;stroke-linecap:square;stroke-width:1.5;"/>
   </g>
   <g id="line2d_51">
    <defs>
     <path d="M -0 6 
L 6 -6 
L -6 -6 
z
" id="m1889006760" style="stroke:#6495ed;stroke-linejoin:miter;stroke-width:1.5;"/>
    </defs>
    <g>
     <use style="fill-opacity:0;stroke:#6495ed;stroke-linejoin:miter;stroke-width:1.5;" x="82.626842" xlink:href="#m1889006760" y="292.623767"/>
     <use style="fill-opacity:0;stroke:#6495ed;stroke-linejoin:miter;stroke-width:1.5;" x="158.217157" xlink:href="#m1889006760" y="231.001496"/>
     <use style="fill-opacity:0;stroke:#6495ed;stroke-linejoin:miter;stroke-width:1.5;" x="237.553962" xlink:href="#m1889006760" y="165.692422"/>
     <use style="fill-opacity:0;stroke:#6495ed;stroke-linejoin:miter;stroke-width:1.5;" x="272.923159" xlink:href="#m1889006760" y="40.867821"/>
     <use style="fill-opacity:0;stroke:#6495ed;stroke-linejoin:miter;stroke-width:1.5;" x="285.375232" xlink:href="#m1889006760" y="30.334099"/>
     <use style="fill-opacity:0;stroke:#6495ed;stroke-linejoin:miter;stroke-width:1.5;" x="338.688" xlink:href="#m1889006760" y="30.334099"/>
    </g>
   </g>
   <g id="line2d_52">
    <path style="fill:none;stroke:#6495ed;stroke-linecap:square;stroke-width:1.5;"/>
    <g/>
   </g>
   <g id="line2d_53">
    <path clip-path="url(#pbf3933c819)" d="M 218.221889 231.001496 
" style="fill:none;stroke:#6495ed;stroke-linecap:square;stroke-width:1.5;"/>
    <defs>
     <path d="M -12 12 
L 12 -12 
M -12 -12 
L 12 12 
" id="mf69aa5ffff" style="stroke:#6495ed;"/>
    </defs>
    <g clip-path="url(#pbf3933c819)">
     <use style="fill:#6495ed;stroke:#6495ed;" x="218.221889" xlink:href="#mf69aa5ffff" y="231.001496"/>
    </g>
   </g>
   <g id="line2d_54">
    <path d="M 338.688 30.334099 
L 369.60768 293.571802 
" style="fill:none;stroke:#000080;stroke-linecap:square;stroke-width:1.5;"/>
    <g>
     <use style="fill-opacity:0;stroke:#000080;stroke-width:1.5;" x="338.688" xlink:href="#me79bd85281" y="30.334099"/>
     <use style="fill-opacity:0;stroke:#000080;stroke-width:1.5;" x="369.60768" xlink:href="#me79bd85281" y="293.571802"/>
    </g>
   </g>
   <g id="line2d_55">
    <path d="M 338.688 30.334099 
L 369.60768 229.105426 
" style="fill:none;stroke:#6495ed;stroke-linecap:square;stroke-width:1.5;"/>
    <g>
     <use style="fill-opacity:0;stroke:#6495ed;stroke-linejoin:miter;stroke-width:1.5;" x="338.688" xlink:href="#m1889006760" y="30.334099"/>
     <use style="fill-opacity:0;stroke:#6495ed;stroke-linejoin:miter;stroke-width:1.5;" x="369.60768" xlink:href="#m1889006760" y="229.105426"/>
    </g>
   </g>
   <g id="line2d_56">
    <path d="M 338.688 30.334099 
L 369.60768 164.63905 
" style="fill:none;stroke:#ff00ff;stroke-linecap:square;stroke-width:1.5;"/>
    <g>
     <use style="fill-opacity:0;stroke:#ff00ff;stroke-linejoin:miter;stroke-width:1.5;" x="338.688" xlink:href="#m56ffeb88d0" y="30.334099"/>
     <use style="fill-opacity:0;stroke:#ff00ff;stroke-linejoin:miter;stroke-width:1.5;" x="369.60768" xlink:href="#m56ffeb88d0" y="164.63905"/>
    </g>
   </g>
   <g id="line2d_57">
    <path d="M 338.688 30.334099 
L 369.60768 100.172673 
" style="fill:none;stroke:#ff7500;stroke-linecap:square;stroke-width:1.5;"/>
    <g>
     <use style="fill-opacity:0;stroke:#ff7500;stroke-linejoin:bevel;stroke-width:1.5;" x="338.688" xlink:href="#m2482198430" y="30.334099"/>
     <use style="fill-opacity:0;stroke:#ff7500;stroke-linejoin:bevel;stroke-width:1.5;" x="369.60768" xlink:href="#m2482198430" y="100.172673"/>
    </g>
   </g>
   <g id="line2d_58">
    <path d="M 338.688 298.944 
L 338.688 30.334099 
" style="fill:none;stroke:#000000;stroke-linecap:square;stroke-width:1.5;"/>
   </g>
   <g id="patch_3">
    <path d="M 57.6 298.944 
L 57.6 27.648 
" style="fill:none;stroke:#000000;stroke-linecap:square;stroke-linejoin:miter;stroke-width:0.8;"/>
   </g>
   <g id="patch_4">
    <path d="M 338.688 298.944 
L 338.688 27.648 
" style="fill:none;stroke:#000000;stroke-linecap:square;stroke-linejoin:miter;stroke-width:0.8;"/>
   </g>
   <g id="patch_5">
    <path d="M 57.6 298.944 
L 338.688 298.944 
" style="fill:none;stroke:#000000;stroke-linecap:square;stroke-linejoin:miter;stroke-width:0.8;"/>
   </g>
   <g id="patch_6">
    <path d="M 57.6 27.648 
L 338.688 27.648 
" style="fill:none;stroke:#000000;stroke-linecap:square;stroke-linejoin:miter;stroke-width:0.8;"/>
   </g>
   <g id="text_13">
    <!-- maes -->
    <g transform="translate(375.22944 298.262739)scale(0.17 -0.17)">
     <use xlink:href="#DejaVuSans-109"/>
     <use x="97.412109" xlink:href="#DejaVuSans-97"/>
     <use x="158.691406" xlink:href="#DejaVuSans-101"/>
     <use x="220.214844" xlink:href="#DejaVuSans-115"/>
    </g>
   </g>
   <g id="text_14">
    <!-- maes red -->
    <g transform="translate(375.22944 233.796363)scale(0.17 -0.17)">
     <use xlink:href="#DejaVuSans-109"/>
     <use x="97.412109" xlink:href="#DejaVuSans-97"/>
     <use x="158.691406" xlink:href="#DejaVuSans-101"/>
     <use x="220.214844" xlink:href="#DejaVuSans-115"/>
     <use x="272.314453" xlink:href="#DejaVuSans-32"/>
     <use x="304.101562" xlink:href="#DejaVuSans-114"/>
     <use x="342.964844" xlink:href="#DejaVuSans-101"/>
     <use x="404.488281" xlink:href="#DejaVuSans-100"/>
    </g>
   </g>
   <g id="text_15">
    <!-- maes mid -->
    <g transform="translate(375.22944 169.329987)scale(0.17 -0.17)">
     <use xlink:href="#DejaVuSans-109"/>
     <use x="97.412109" xlink:href="#DejaVuSans-97"/>
     <use x="158.691406" xlink:href="#DejaVuSans-101"/>
     <use x="220.214844" xlink:href="#DejaVuSans-115"/>
     <use x="272.314453" xlink:href="#DejaVuSans-32"/>
     <use x="304.101562" xlink:href="#DejaVuSans-109"/>
     <use x="401.513672" xlink:href="#DejaVuSans-105"/>
     <use x="429.296875" xlink:href="#DejaVuSans-100"/>
    </g>
   </g>
   <g id="text_16">
    <!-- maes stp -->
    <g transform="translate(375.22944 104.863611)scale(0.17 -0.17)">
     <use xlink:href="#DejaVuSans-109"/>
     <use x="97.412109" xlink:href="#DejaVuSans-97"/>
     <use x="158.691406" xlink:href="#DejaVuSans-101"/>
     <use x="220.214844" xlink:href="#DejaVuSans-115"/>
     <use x="272.314453" xlink:href="#DejaVuSans-32"/>
     <use x="304.101562" xlink:href="#DejaVuSans-115"/>
     <use x="356.201172" xlink:href="#DejaVuSans-116"/>
     <use x="395.410156" xlink:href="#DejaVuSans-112"/>
    </g>
   </g>
   <g id="text_17">
    <!-- best 2009 -->
    <g transform="translate(375.22944 40.397235)scale(0.17 -0.17)">
     <defs>
      <path d="M 48.6875 27.296875 
Q 48.6875 37.203125 44.609375 42.84375 
Q 40.53125 48.484375 33.40625 48.484375 
Q 26.265625 48.484375 22.1875 42.84375 
Q 18.109375 37.203125 18.109375 27.296875 
Q 18.109375 17.390625 22.1875 11.75 
Q 26.265625 6.109375 33.40625 6.109375 
Q 40.53125 6.109375 44.609375 11.75 
Q 48.6875 17.390625 48.6875 27.296875 
z
M 18.109375 46.390625 
Q 20.953125 51.265625 25.265625 53.625 
Q 29.59375 56 35.59375 56 
Q 45.5625 56 51.78125 48.09375 
Q 58.015625 40.1875 58.015625 27.296875 
Q 58.015625 14.40625 51.78125 6.484375 
Q 45.5625 -1.421875 35.59375 -1.421875 
Q 29.59375 -1.421875 25.265625 0.953125 
Q 20.953125 3.328125 18.109375 8.203125 
L 18.109375 0 
L 9.078125 0 
L 9.078125 75.984375 
L 18.109375 75.984375 
z
" id="DejaVuSans-98"/>
      <path d="M 10.984375 1.515625 
L 10.984375 10.5 
Q 14.703125 8.734375 18.5 7.8125 
Q 22.3125 6.890625 25.984375 6.890625 
Q 35.75 6.890625 40.890625 13.453125 
Q 46.046875 20.015625 46.78125 33.40625 
Q 43.953125 29.203125 39.59375 26.953125 
Q 35.25 24.703125 29.984375 24.703125 
Q 19.046875 24.703125 12.671875 31.3125 
Q 6.296875 37.9375 6.296875 49.421875 
Q 6.296875 60.640625 12.9375 67.421875 
Q 19.578125 74.21875 30.609375 74.21875 
Q 43.265625 74.21875 49.921875 64.515625 
Q 56.59375 54.828125 56.59375 36.375 
Q 56.59375 19.140625 48.40625 8.859375 
Q 40.234375 -1.421875 26.421875 -1.421875 
Q 22.703125 -1.421875 18.890625 -0.6875 
Q 15.09375 0.046875 10.984375 1.515625 
z
M 30.609375 32.421875 
Q 37.25 32.421875 41.125 36.953125 
Q 45.015625 41.5 45.015625 49.421875 
Q 45.015625 57.28125 41.125 61.84375 
Q 37.25 66.40625 30.609375 66.40625 
Q 23.96875 66.40625 20.09375 61.84375 
Q 16.21875 57.28125 16.21875 49.421875 
Q 16.21875 41.5 20.09375 36.953125 
Q 23.96875 32.421875 30.609375 32.421875 
z
" id="DejaVuSans-57"/>
     </defs>
     <use xlink:href="#DejaVuSans-98"/>
     <use x="63.476562" xlink:href="#DejaVuSans-101"/>
     <use x="125" xlink:href="#DejaVuSans-115"/>
     <use x="177.099609" xlink:href="#DejaVuSans-116"/>
     <use x="216.308594" xlink:href="#DejaVuSans-32"/>
     <use x="248.095703" xlink:href="#DejaVuSans-50"/>
     <use x="311.71875" xlink:href="#DejaVuSans-48"/>
     <use x="375.341797" xlink:href="#DejaVuSans-48"/>
     <use x="438.964844" xlink:href="#DejaVuSans-57"/>
    </g>
   </g>
   <g id="text_18">
    <!-- bbob f22, 10-D -->
    <g transform="translate(60.41088 38.111366)scale(0.102 -0.102)">
     <defs>
      <path d="M 19.671875 64.796875 
L 19.671875 8.109375 
L 31.59375 8.109375 
Q 46.6875 8.109375 53.6875 14.9375 
Q 60.6875 21.78125 60.6875 36.53125 
Q 60.6875 51.171875 53.6875 57.984375 
Q 46.6875 64.796875 31.59375 64.796875 
z
M 9.8125 72.90625 
L 30.078125 72.90625 
Q 51.265625 72.90625 61.171875 64.09375 
Q 71.09375 55.28125 71.09375 36.53125 
Q 71.09375 17.671875 61.125 8.828125 
Q 51.171875 0 30.078125 0 
L 9.8125 0 
z
" id="DejaVuSans-68"/>
     </defs>
     <use xlink:href="#DejaVuSans-98"/>
     <use x="63.476562" xlink:href="#DejaVuSans-98"/>
     <use x="126.953125" xlink:href="#DejaVuSans-111"/>
     <use x="188.134766" xlink:href="#DejaVuSans-98"/>
     <use x="251.611328" xlink:href="#DejaVuSans-32"/>
     <use x="283.398438" xlink:href="#DejaVuSans-102"/>
     <use x="318.603516" xlink:href="#DejaVuSans-50"/>
     <use x="382.226562" xlink:href="#DejaVuSans-50"/>
     <use x="445.849609" xlink:href="#DejaVuSans-44"/>
     <use x="477.636719" xlink:href="#DejaVuSans-32"/>
     <use x="509.423828" xlink:href="#DejaVuSans-49"/>
     <use x="573.046875" xlink:href="#DejaVuSans-48"/>
     <use x="636.669922" xlink:href="#DejaVuSans-45"/>
     <use x="672.753906" xlink:href="#DejaVuSans-68"/>
    </g>
    <!-- 51 targets: 100..1e-08 -->
    <g transform="translate(60.41088 49.533135)scale(0.102 -0.102)">
     <defs>
      <path d="M 10.796875 72.90625 
L 49.515625 72.90625 
L 49.515625 64.59375 
L 19.828125 64.59375 
L 19.828125 46.734375 
Q 21.96875 47.46875 24.109375 47.828125 
Q 26.265625 48.1875 28.421875 48.1875 
Q 40.625 48.1875 47.75 41.5 
Q 54.890625 34.8125 54.890625 23.390625 
Q 54.890625 11.625 47.5625 5.09375 
Q 40.234375 -1.421875 26.90625 -1.421875 
Q 22.3125 -1.421875 17.546875 -0.640625 
Q 12.796875 0.140625 7.71875 1.703125 
L 7.71875 11.625 
Q 12.109375 9.234375 16.796875 8.0625 
Q 21.484375 6.890625 26.703125 6.890625 
Q 35.15625 6.890625 40.078125 11.328125 
Q 45.015625 15.765625 45.015625 23.390625 
Q 45.015625 31 40.078125 35.4375 
Q 35.15625 39.890625 26.703125 39.890625 
Q 22.75 39.890625 18.8125 39.015625 
Q 14.890625 38.140625 10.796875 36.28125 
z
" id="DejaVuSans-53"/>
      <path d="M 11.71875 12.40625 
L 22.015625 12.40625 
L 22.015625 0 
L 11.71875 0 
z
M 11.71875 51.703125 
L 22.015625 51.703125 
L 22.015625 39.3125 
L 11.71875 39.3125 
z
" id="DejaVuSans-58"/>
     </defs>
     <use xlink:href="#DejaVuSans-53"/>
     <use x="63.623047" xlink:href="#DejaVuSans-49"/>
     <use x="127.246094" xlink:href="#DejaVuSans-32"/>
     <use x="159.033203" xlink:href="#DejaVuSans-116"/>
     <use x="198.242188" xlink:href="#DejaVuSans-97"/>
     <use x="259.521484" xlink:href="#DejaVuSans-114"/>
     <use x="298.884766" xlink:href="#DejaVuSans-103"/>
     <use x="362.361328" xlink:href="#DejaVuSans-101"/>
     <use x="423.884766" xlink:href="#DejaVuSans-116"/>
     <use x="463.09375" xlink:href="#DejaVuSans-115"/>
     <use x="515.193359" xlink:href="#DejaVuSans-58"/>
     <use x="548.884766" xlink:href="#DejaVuSans-32"/>
     <use x="580.671875" xlink:href="#DejaVuSans-49"/>
     <use x="644.294922" xlink:href="#DejaVuSans-48"/>
     <use x="707.917969" xlink:href="#DejaVuSans-48"/>
     <use x="771.541016" xlink:href="#DejaVuSans-46"/>
     <use x="803.328125" xlink:href="#DejaVuSans-46"/>
     <use x="835.115234" xlink:href="#DejaVuSans-49"/>
     <use x="898.738281" xlink:href="#DejaVuSans-101"/>
     <use x="960.261719" xlink:href="#DejaVuSans-45"/>
     <use x="996.345703" xlink:href="#DejaVuSans-48"/>
     <use x="1059.96875" xlink:href="#DejaVuSans-56"/>
    </g>
    <!-- 15 instances -->
    <g transform="translate(60.41088 60.954904)scale(0.102 -0.102)">
     <use xlink:href="#DejaVuSans-49"/>
     <use x="63.623047" xlink:href="#DejaVuSans-53"/>
     <use x="127.246094" xlink:href="#DejaVuSans-32"/>
     <use x="159.033203" xlink:href="#DejaVuSans-105"/>
     <use x="186.816406" xlink:href="#DejaVuSans-110"/>
     <use x="250.195312" xlink:href="#DejaVuSans-115"/>
     <use x="302.294922" xlink:href="#DejaVuSans-116"/>
     <use x="341.503906" xlink:href="#DejaVuSans-97"/>
     <use x="402.783203" xlink:href="#DejaVuSans-110"/>
     <use x="466.162109" xlink:href="#DejaVuSans-99"/>
     <use x="521.142578" xlink:href="#DejaVuSans-101"/>
     <use x="582.666016" xlink:href="#DejaVuSans-115"/>
    </g>
   </g>
   <g id="text_19">
    <!-- v2.4 -->
    <g style="fill:#808080;" transform="translate(187.233062 294.151352)scale(0.1 -0.1)">
     <use xlink:href="#DejaVuSans-118"/>
     <use x="59.179688" xlink:href="#DejaVuSans-50"/>
     <use x="122.802734" xlink:href="#DejaVuSans-46"/>
     <use x="154.589844" xlink:href="#DejaVuSans-52"/>
    </g>
   </g>
   <g id="text_20">
    <!-- 22 Gallagher 21 peaks -->
    <g transform="translate(85.019 21.648)scale(0.2 -0.2)">
     <defs>
      <path d="M 59.515625 10.40625 
L 59.515625 29.984375 
L 43.40625 29.984375 
L 43.40625 38.09375 
L 69.28125 38.09375 
L 69.28125 6.78125 
Q 63.578125 2.734375 56.6875 0.65625 
Q 49.8125 -1.421875 42 -1.421875 
Q 24.90625 -1.421875 15.25 8.5625 
Q 5.609375 18.5625 5.609375 36.375 
Q 5.609375 54.25 15.25 64.234375 
Q 24.90625 74.21875 42 74.21875 
Q 49.125 74.21875 55.546875 72.453125 
Q 61.96875 70.703125 67.390625 67.28125 
L 67.390625 56.78125 
Q 61.921875 61.421875 55.765625 63.765625 
Q 49.609375 66.109375 42.828125 66.109375 
Q 29.4375 66.109375 22.71875 58.640625 
Q 16.015625 51.171875 16.015625 36.375 
Q 16.015625 21.625 22.71875 14.15625 
Q 29.4375 6.6875 42.828125 6.6875 
Q 48.046875 6.6875 52.140625 7.59375 
Q 56.25 8.5 59.515625 10.40625 
z
" id="DejaVuSans-71"/>
      <path d="M 54.890625 33.015625 
L 54.890625 0 
L 45.90625 0 
L 45.90625 32.71875 
Q 45.90625 40.484375 42.875 44.328125 
Q 39.84375 48.1875 33.796875 48.1875 
Q 26.515625 48.1875 22.3125 43.546875 
Q 18.109375 38.921875 18.109375 30.90625 
L 18.109375 0 
L 9.078125 0 
L 9.078125 75.984375 
L 18.109375 75.984375 
L 18.109375 46.1875 
Q 21.34375 51.125 25.703125 53.5625 
Q 30.078125 56 35.796875 56 
Q 45.21875 56 50.046875 50.171875 
Q 54.890625 44.34375 54.890625 33.015625 
z
" id="DejaVuSans-104"/>
      <path d="M 9.078125 75.984375 
L 18.109375 75.984375 
L 18.109375 31.109375 
L 44.921875 54.6875 
L 56.390625 54.6875 
L 27.390625 29.109375 
L 57.625 0 
L 45.90625 0 
L 18.109375 26.703125 
L 18.109375 0 
L 9.078125 0 
z
" id="DejaVuSans-107"/>
     </defs>
     <use xlink:href="#DejaVuSans-50"/>
     <use x="63.623047" xlink:href="#DejaVuSans-50"/>
     <use x="127.246094" xlink:href="#DejaVuSans-32"/>
     <use x="159.033203" xlink:href="#DejaVuSans-71"/>
     <use x="236.523438" xlink:href="#DejaVuSans-97"/>
     <use x="297.802734" xlink:href="#DejaVuSans-108"/>
     <use x="325.585938" xlink:href="#DejaVuSans-108"/>
     <use x="353.369141" xlink:href="#DejaVuSans-97"/>
     <use x="414.648438" xlink:href="#DejaVuSans-103"/>
     <use x="478.125" xlink:href="#DejaVuSans-104"/>
     <use x="541.503906" xlink:href="#DejaVuSans-101"/>
     <use x="603.027344" xlink:href="#DejaVuSans-114"/>
     <use x="644.140625" xlink:href="#DejaVuSans-32"/>
     <use x="675.927734" xlink:href="#DejaVuSans-50"/>
     <use x="739.550781" xlink:href="#DejaVuSans-49"/>
     <use x="803.173828" xlink:href="#DejaVuSans-32"/>
     <use x="834.960938" xlink:href="#DejaVuSans-112"/>
     <use x="898.4375" xlink:href="#DejaVuSans-101"/>
     <use x="959.960938" xlink:href="#DejaVuSans-97"/>
     <use x="1021.240234" xlink:href="#DejaVuSans-107"/>
     <use x="1079.150391" xlink:href="#DejaVuSans-115"/>
    </g>
   </g>
  </g>
 </g>
 <defs>
  <clipPath id="pbf3933c819">
   <rect height="271.296" width="281.088" x="57.6" y="27.648"/>
  </clipPath>
 </defs>
</svg>
