<?xml version="1.0" encoding="utf-8" standalone="no"?>
<!DOCTYPE svg PUBLIC "-//W3C//DTD SVG 1.1//EN"
  "http://www.w3.org/Graphics/SVG/1.1/DTD/svg11.dtd">
<!-- Created with matplotlib (https://matplotlib.org/) -->
<svg height="345.6pt" version="1.1" viewBox="0 0 460.8 345.6" width="460.8pt" xmlns="http://www.w3.org/2000/svg" xmlns:xlink="http://www.w3.org/1999/xlink">
 <metadata>
  <rdf:RDF xmlns:cc="http://creativecommons.org/ns#" xmlns:dc="http://purl.org/dc/elements/1.1/" xmlns:rdf="http://www.w3.org/1999/02/22-rdf-syntax-ns#">
   <cc:Work>
    <dc:type rdf:resource="http://purl.org/dc/dcmitype/StillImage"/>
    <dc:date>2021-06-17T01:40:29.567902</dc:date>
    <dc:format>image/svg+xml</dc:format>
    <dc:creator>
     <cc:Agent>
      <dc:title>Matplotlib v3.3.4, https://matplotlib.org/</dc:title>
     </cc:Agent>
    </dc:creator>
   </cc:Work>
  </rdf:RDF>
 </metadata>
 <defs>
  <style type="text/css">*{stroke-linecap:butt;stroke-linejoin:round;}</style>
 </defs>
 <g id="figure_1">
  <g id="patch_1">
   <path d="M 0 345.6 
L 460.8 345.6 
L 460.8 0 
L 0 0 
z
" style="fill:#ffffff;"/>
  </g>
  <g id="axes_1">
   <g id="patch_2">
    <path d="M 57.6 298.944 
L 338.688 298.944 
L 338.688 27.648 
L 57.6 27.648 
z
" style="fill:#ffffff;"/>
   </g>
   <g id="line2d_1">
    <path d="M 5.356583 298.944 
L 5.356583 293.677139 
L 54.765787 293.677139 
L 54.765787 288.410278 
L 79.069525 288.410278 
L 79.069525 283.143418 
L 83.438118 283.143418 
L 83.438118 277.876557 
L 88.627632 277.876557 
L 88.627632 272.609696 
L 92.969447 272.609696 
L 92.969447 267.342835 
L 96.442905 267.342835 
L 96.442905 262.075974 
L 99.338119 262.075974 
L 99.338119 256.809114 
L 101.785851 256.809114 
L 101.785851 251.542253 
L 104.084239 251.542253 
L 104.084239 246.275392 
L 105.285403 246.275392 
L 105.285403 241.008531 
L 106.30264 241.008531 
L 106.30264 235.74167 
L 107.187808 235.74167 
L 107.187808 230.47481 
L 107.90885 230.47481 
L 107.90885 225.207949 
L 108.601261 225.207949 
L 108.601261 219.941088 
L 109.334689 219.941088 
L 109.334689 214.674227 
L 110.252758 214.674227 
L 110.252758 209.407366 
L 111.485729 209.407366 
L 111.485729 204.140506 
L 112.877038 204.140506 
L 112.877038 198.873645 
L 114.097313 198.873645 
L 114.097313 193.606784 
L 115.476111 193.606784 
L 115.476111 188.339923 
L 117.202696 188.339923 
L 117.202696 183.073062 
L 119.813201 183.073062 
L 119.813201 177.806202 
L 122.740699 177.806202 
L 122.740699 172.539341 
L 125.083692 172.539341 
L 125.083692 167.27248 
L 127.54041 167.27248 
L 127.54041 162.005619 
L 131.471338 162.005619 
L 131.471338 156.738758 
L 132.905511 156.738758 
L 132.905511 151.471897 
L 134.04118 151.471897 
L 134.04118 146.205037 
L 135.209496 146.205037 
L 135.209496 140.938176 
L 136.184509 140.938176 
L 136.184509 135.671315 
L 137.217107 135.671315 
L 137.217107 130.404454 
L 138.264747 130.404454 
L 138.264747 125.137593 
L 139.240888 125.137593 
L 139.240888 119.870733 
L 140.184419 119.870733 
L 140.184419 114.603872 
L 141.181008 114.603872 
L 141.181008 109.337011 
L 142.385399 109.337011 
L 142.385399 104.07015 
L 172.211004 104.07015 
L 172.211004 98.803289 
L 175.236688 98.803289 
L 175.236688 93.536429 
L 176.788512 93.536429 
L 176.788512 88.269568 
L 178.387677 88.269568 
L 178.387677 83.002707 
L 179.472097 83.002707 
L 179.472097 77.735846 
L 180.858267 77.735846 
L 180.858267 72.468985 
L 182.621596 72.468985 
L 182.621596 67.202125 
L 183.962435 67.202125 
L 183.962435 61.935264 
L 184.458974 61.935264 
L 184.458974 56.668403 
L 184.963503 56.668403 
L 184.963503 51.401542 
L 185.412981 51.401542 
L 185.412981 46.134681 
L 185.900756 46.134681 
L 185.900756 40.867821 
L 186.355754 40.867821 
L 186.355754 35.60096 
L 186.833763 35.60096 
L 186.833763 30.334099 
L 338.688 30.334099 
" style="fill:none;stroke:#f5deb3;stroke-linecap:square;stroke-width:4;"/>
   </g>
   <g id="line2d_2">
    <defs>
     <path d="M -0 7.778175 
L 7.778175 0 
L 0 -7.778175 
L -7.778175 -0 
z
" id="mca75f8e389" style="stroke:#f5deb3;stroke-linejoin:miter;stroke-width:1.5;"/>
    </defs>
    <g>
     <use style="fill:#f5deb3;stroke:#f5deb3;stroke-linejoin:miter;stroke-width:1.5;" x="119.813201" xlink:href="#mca75f8e389" y="183.073062"/>
     <use style="fill:#f5deb3;stroke:#f5deb3;stroke-linejoin:miter;stroke-width:1.5;" x="142.385399" xlink:href="#mca75f8e389" y="109.337011"/>
     <use style="fill:#f5deb3;stroke:#f5deb3;stroke-linejoin:miter;stroke-width:1.5;" x="186.833763" xlink:href="#mca75f8e389" y="35.60096"/>
     <use style="fill:#f5deb3;stroke:#f5deb3;stroke-linejoin:miter;stroke-width:1.5;" x="186.833763" xlink:href="#mca75f8e389" y="30.334099"/>
     <use style="fill:#f5deb3;stroke:#f5deb3;stroke-linejoin:miter;stroke-width:1.5;" x="338.688" xlink:href="#mca75f8e389" y="30.334099"/>
    </g>
   </g>
   <g id="line2d_3">
    <path style="fill:none;stroke:#f5deb3;stroke-linecap:square;stroke-width:4;"/>
    <g/>
   </g>
   <g id="line2d_4">
    <path d="M 338.688 30.334099 
L 369.60768 35.706297 
" style="fill:none;stroke:#f5deb3;stroke-linecap:square;stroke-width:4;"/>
    <g>
     <use style="fill:#f5deb3;stroke:#f5deb3;stroke-linejoin:miter;stroke-width:1.5;" x="338.688" xlink:href="#mca75f8e389" y="30.334099"/>
     <use style="fill:#f5deb3;stroke:#f5deb3;stroke-linejoin:miter;stroke-width:1.5;" x="369.60768" xlink:href="#mca75f8e389" y="35.706297"/>
    </g>
   </g>
   <g id="matplotlib.axis_1">
    <g id="xtick_1">
     <g id="line2d_5">
      <path clip-path="url(#p07d5b7560f)" d="M 57.6 298.944 
L 57.6 27.648 
" style="fill:none;stroke:#b0b0b0;stroke-linecap:square;stroke-width:0.8;"/>
     </g>
     <g id="line2d_6">
      <defs>
       <path d="M 0 0 
L 0 3.5 
" id="m647cc59735" style="stroke:#000000;stroke-width:0.8;"/>
      </defs>
      <g>
       <use style="stroke:#000000;stroke-width:0.8;" x="57.6" xlink:href="#m647cc59735" y="298.944"/>
      </g>
     </g>
     <g id="text_1">
      <!-- 0 -->
      <g transform="translate(51.2375 321.140875)scale(0.2 -0.2)">
       <defs>
        <path d="M 31.78125 66.40625 
Q 24.171875 66.40625 20.328125 58.90625 
Q 16.5 51.421875 16.5 36.375 
Q 16.5 21.390625 20.328125 13.890625 
Q 24.171875 6.390625 31.78125 6.390625 
Q 39.453125 6.390625 43.28125 13.890625 
Q 47.125 21.390625 47.125 36.375 
Q 47.125 51.421875 43.28125 58.90625 
Q 39.453125 66.40625 31.78125 66.40625 
z
M 31.78125 74.21875 
Q 44.046875 74.21875 50.515625 64.515625 
Q 56.984375 54.828125 56.984375 36.375 
Q 56.984375 17.96875 50.515625 8.265625 
Q 44.046875 -1.421875 31.78125 -1.421875 
Q 19.53125 -1.421875 13.0625 8.265625 
Q 6.59375 17.96875 6.59375 36.375 
Q 6.59375 54.828125 13.0625 64.515625 
Q 19.53125 74.21875 31.78125 74.21875 
z
" id="DejaVuSans-48"/>
       </defs>
       <use xlink:href="#DejaVuSans-48"/>
      </g>
     </g>
    </g>
    <g id="xtick_2">
     <g id="line2d_7">
      <path clip-path="url(#p07d5b7560f)" d="M 137.910857 298.944 
L 137.910857 27.648 
" style="fill:none;stroke:#b0b0b0;stroke-linecap:square;stroke-width:0.8;"/>
     </g>
     <g id="line2d_8">
      <g>
       <use style="stroke:#000000;stroke-width:0.8;" x="137.910857" xlink:href="#m647cc59735" y="298.944"/>
      </g>
     </g>
     <g id="text_2">
      <!-- 2 -->
      <g transform="translate(131.548357 321.140875)scale(0.2 -0.2)">
       <defs>
        <path d="M 19.1875 8.296875 
L 53.609375 8.296875 
L 53.609375 0 
L 7.328125 0 
L 7.328125 8.296875 
Q 12.9375 14.109375 22.625 23.890625 
Q 32.328125 33.6875 34.8125 36.53125 
Q 39.546875 41.84375 41.421875 45.53125 
Q 43.3125 49.21875 43.3125 52.78125 
Q 43.3125 58.59375 39.234375 62.25 
Q 35.15625 65.921875 28.609375 65.921875 
Q 23.96875 65.921875 18.8125 64.3125 
Q 13.671875 62.703125 7.8125 59.421875 
L 7.8125 69.390625 
Q 13.765625 71.78125 18.9375 73 
Q 24.125 74.21875 28.421875 74.21875 
Q 39.75 74.21875 46.484375 68.546875 
Q 53.21875 62.890625 53.21875 53.421875 
Q 53.21875 48.921875 51.53125 44.890625 
Q 49.859375 40.875 45.40625 35.40625 
Q 44.1875 33.984375 37.640625 27.21875 
Q 31.109375 20.453125 19.1875 8.296875 
z
" id="DejaVuSans-50"/>
       </defs>
       <use xlink:href="#DejaVuSans-50"/>
      </g>
     </g>
    </g>
    <g id="xtick_3">
     <g id="line2d_9">
      <path clip-path="url(#p07d5b7560f)" d="M 218.221714 298.944 
L 218.221714 27.648 
" style="fill:none;stroke:#b0b0b0;stroke-linecap:square;stroke-width:0.8;"/>
     </g>
     <g id="line2d_10">
      <g>
       <use style="stroke:#000000;stroke-width:0.8;" x="218.221714" xlink:href="#m647cc59735" y="298.944"/>
      </g>
     </g>
     <g id="text_3">
      <!-- 4 -->
      <g transform="translate(211.859214 321.140875)scale(0.2 -0.2)">
       <defs>
        <path d="M 37.796875 64.3125 
L 12.890625 25.390625 
L 37.796875 25.390625 
z
M 35.203125 72.90625 
L 47.609375 72.90625 
L 47.609375 25.390625 
L 58.015625 25.390625 
L 58.015625 17.1875 
L 47.609375 17.1875 
L 47.609375 0 
L 37.796875 0 
L 37.796875 17.1875 
L 4.890625 17.1875 
L 4.890625 26.703125 
z
" id="DejaVuSans-52"/>
       </defs>
       <use xlink:href="#DejaVuSans-52"/>
      </g>
     </g>
    </g>
    <g id="xtick_4">
     <g id="line2d_11">
      <path clip-path="url(#p07d5b7560f)" d="M 298.532571 298.944 
L 298.532571 27.648 
" style="fill:none;stroke:#b0b0b0;stroke-linecap:square;stroke-width:0.8;"/>
     </g>
     <g id="line2d_12">
      <g>
       <use style="stroke:#000000;stroke-width:0.8;" x="298.532571" xlink:href="#m647cc59735" y="298.944"/>
      </g>
     </g>
     <g id="text_4">
      <!-- 6 -->
      <g transform="translate(292.170071 321.140875)scale(0.2 -0.2)">
       <defs>
        <path d="M 33.015625 40.375 
Q 26.375 40.375 22.484375 35.828125 
Q 18.609375 31.296875 18.609375 23.390625 
Q 18.609375 15.53125 22.484375 10.953125 
Q 26.375 6.390625 33.015625 6.390625 
Q 39.65625 6.390625 43.53125 10.953125 
Q 47.40625 15.53125 47.40625 23.390625 
Q 47.40625 31.296875 43.53125 35.828125 
Q 39.65625 40.375 33.015625 40.375 
z
M 52.59375 71.296875 
L 52.59375 62.3125 
Q 48.875 64.0625 45.09375 64.984375 
Q 41.3125 65.921875 37.59375 65.921875 
Q 27.828125 65.921875 22.671875 59.328125 
Q 17.53125 52.734375 16.796875 39.40625 
Q 19.671875 43.65625 24.015625 45.921875 
Q 28.375 48.1875 33.59375 48.1875 
Q 44.578125 48.1875 50.953125 41.515625 
Q 57.328125 34.859375 57.328125 23.390625 
Q 57.328125 12.15625 50.6875 5.359375 
Q 44.046875 -1.421875 33.015625 -1.421875 
Q 20.359375 -1.421875 13.671875 8.265625 
Q 6.984375 17.96875 6.984375 36.375 
Q 6.984375 53.65625 15.1875 63.9375 
Q 23.390625 74.21875 37.203125 74.21875 
Q 40.921875 74.21875 44.703125 73.484375 
Q 48.484375 72.75 52.59375 71.296875 
z
" id="DejaVuSans-54"/>
       </defs>
       <use xlink:href="#DejaVuSans-54"/>
      </g>
     </g>
    </g>
    <g id="xtick_5">
     <g id="line2d_13">
      <path clip-path="url(#p07d5b7560f)" d="M 97.755429 298.944 
L 97.755429 27.648 
" style="fill:none;stroke:#b0b0b0;stroke-linecap:square;stroke-width:0.8;"/>
     </g>
     <g id="line2d_14">
      <defs>
       <path d="M 0 0 
L 0 2 
" id="mcf1bb9c504" style="stroke:#000000;stroke-width:0.6;"/>
      </defs>
      <g>
       <use style="stroke:#000000;stroke-width:0.6;" x="97.755429" xlink:href="#mcf1bb9c504" y="298.944"/>
      </g>
     </g>
    </g>
    <g id="xtick_6">
     <g id="line2d_15">
      <path clip-path="url(#p07d5b7560f)" d="M 178.066286 298.944 
L 178.066286 27.648 
" style="fill:none;stroke:#b0b0b0;stroke-linecap:square;stroke-width:0.8;"/>
     </g>
     <g id="line2d_16">
      <g>
       <use style="stroke:#000000;stroke-width:0.6;" x="178.066286" xlink:href="#mcf1bb9c504" y="298.944"/>
      </g>
     </g>
    </g>
    <g id="xtick_7">
     <g id="line2d_17">
      <path clip-path="url(#p07d5b7560f)" d="M 258.377143 298.944 
L 258.377143 27.648 
" style="fill:none;stroke:#b0b0b0;stroke-linecap:square;stroke-width:0.8;"/>
     </g>
     <g id="line2d_18">
      <g>
       <use style="stroke:#000000;stroke-width:0.6;" x="258.377143" xlink:href="#mcf1bb9c504" y="298.944"/>
      </g>
     </g>
    </g>
    <g id="xtick_8">
     <g id="line2d_19">
      <path clip-path="url(#p07d5b7560f)" d="M 338.688 298.944 
L 338.688 27.648 
" style="fill:none;stroke:#b0b0b0;stroke-linecap:square;stroke-width:0.8;"/>
     </g>
     <g id="line2d_20">
      <g>
       <use style="stroke:#000000;stroke-width:0.6;" x="338.688" xlink:href="#mcf1bb9c504" y="298.944"/>
      </g>
     </g>
    </g>
    <g id="text_5">
     <!-- log10(# f-evals / dimension) -->
     <g transform="translate(77.764078 342.217594)scale(0.17 -0.17)">
      <defs>
       <path d="M 9.421875 75.984375 
L 18.40625 75.984375 
L 18.40625 0 
L 9.421875 0 
z
" id="DejaVuSans-108"/>
       <path d="M 30.609375 48.390625 
Q 23.390625 48.390625 19.1875 42.75 
Q 14.984375 37.109375 14.984375 27.296875 
Q 14.984375 17.484375 19.15625 11.84375 
Q 23.34375 6.203125 30.609375 6.203125 
Q 37.796875 6.203125 41.984375 11.859375 
Q 46.1875 17.53125 46.1875 27.296875 
Q 46.1875 37.015625 41.984375 42.703125 
Q 37.796875 48.390625 30.609375 48.390625 
z
M 30.609375 56 
Q 42.328125 56 49.015625 48.375 
Q 55.71875 40.765625 55.71875 27.296875 
Q 55.71875 13.875 49.015625 6.21875 
Q 42.328125 -1.421875 30.609375 -1.421875 
Q 18.84375 -1.421875 12.171875 6.21875 
Q 5.515625 13.875 5.515625 27.296875 
Q 5.515625 40.765625 12.171875 48.375 
Q 18.84375 56 30.609375 56 
z
" id="DejaVuSans-111"/>
       <path d="M 45.40625 27.984375 
Q 45.40625 37.75 41.375 43.109375 
Q 37.359375 48.484375 30.078125 48.484375 
Q 22.859375 48.484375 18.828125 43.109375 
Q 14.796875 37.75 14.796875 27.984375 
Q 14.796875 18.265625 18.828125 12.890625 
Q 22.859375 7.515625 30.078125 7.515625 
Q 37.359375 7.515625 41.375 12.890625 
Q 45.40625 18.265625 45.40625 27.984375 
z
M 54.390625 6.78125 
Q 54.390625 -7.171875 48.1875 -13.984375 
Q 42 -20.796875 29.203125 -20.796875 
Q 24.46875 -20.796875 20.265625 -20.09375 
Q 16.0625 -19.390625 12.109375 -17.921875 
L 12.109375 -9.1875 
Q 16.0625 -11.328125 19.921875 -12.34375 
Q 23.78125 -13.375 27.78125 -13.375 
Q 36.625 -13.375 41.015625 -8.765625 
Q 45.40625 -4.15625 45.40625 5.171875 
L 45.40625 9.625 
Q 42.625 4.78125 38.28125 2.390625 
Q 33.9375 0 27.875 0 
Q 17.828125 0 11.671875 7.65625 
Q 5.515625 15.328125 5.515625 27.984375 
Q 5.515625 40.671875 11.671875 48.328125 
Q 17.828125 56 27.875 56 
Q 33.9375 56 38.28125 53.609375 
Q 42.625 51.21875 45.40625 46.390625 
L 45.40625 54.6875 
L 54.390625 54.6875 
z
" id="DejaVuSans-103"/>
       <path d="M 12.40625 8.296875 
L 28.515625 8.296875 
L 28.515625 63.921875 
L 10.984375 60.40625 
L 10.984375 69.390625 
L 28.421875 72.90625 
L 38.28125 72.90625 
L 38.28125 8.296875 
L 54.390625 8.296875 
L 54.390625 0 
L 12.40625 0 
z
" id="DejaVuSans-49"/>
       <path d="M 31 75.875 
Q 24.46875 64.65625 21.28125 53.65625 
Q 18.109375 42.671875 18.109375 31.390625 
Q 18.109375 20.125 21.3125 9.0625 
Q 24.515625 -2 31 -13.1875 
L 23.1875 -13.1875 
Q 15.875 -1.703125 12.234375 9.375 
Q 8.59375 20.453125 8.59375 31.390625 
Q 8.59375 42.28125 12.203125 53.3125 
Q 15.828125 64.359375 23.1875 75.875 
z
" id="DejaVuSans-40"/>
       <path d="M 51.125 44 
L 36.921875 44 
L 32.8125 27.6875 
L 47.125 27.6875 
z
M 43.796875 71.78125 
L 38.71875 51.515625 
L 52.984375 51.515625 
L 58.109375 71.78125 
L 65.921875 71.78125 
L 60.890625 51.515625 
L 76.125 51.515625 
L 76.125 44 
L 58.984375 44 
L 54.984375 27.6875 
L 70.515625 27.6875 
L 70.515625 20.21875 
L 53.078125 20.21875 
L 48 0 
L 40.1875 0 
L 45.21875 20.21875 
L 30.90625 20.21875 
L 25.875 0 
L 18.015625 0 
L 23.09375 20.21875 
L 7.71875 20.21875 
L 7.71875 27.6875 
L 24.90625 27.6875 
L 29 44 
L 13.28125 44 
L 13.28125 51.515625 
L 30.90625 51.515625 
L 35.890625 71.78125 
z
" id="DejaVuSans-35"/>
       <path id="DejaVuSans-32"/>
       <path d="M 37.109375 75.984375 
L 37.109375 68.5 
L 28.515625 68.5 
Q 23.6875 68.5 21.796875 66.546875 
Q 19.921875 64.59375 19.921875 59.515625 
L 19.921875 54.6875 
L 34.71875 54.6875 
L 34.71875 47.703125 
L 19.921875 47.703125 
L 19.921875 0 
L 10.890625 0 
L 10.890625 47.703125 
L 2.296875 47.703125 
L 2.296875 54.6875 
L 10.890625 54.6875 
L 10.890625 58.5 
Q 10.890625 67.625 15.140625 71.796875 
Q 19.390625 75.984375 28.609375 75.984375 
z
" id="DejaVuSans-102"/>
       <path d="M 4.890625 31.390625 
L 31.203125 31.390625 
L 31.203125 23.390625 
L 4.890625 23.390625 
z
" id="DejaVuSans-45"/>
       <path d="M 56.203125 29.59375 
L 56.203125 25.203125 
L 14.890625 25.203125 
Q 15.484375 15.921875 20.484375 11.0625 
Q 25.484375 6.203125 34.421875 6.203125 
Q 39.59375 6.203125 44.453125 7.46875 
Q 49.3125 8.734375 54.109375 11.28125 
L 54.109375 2.78125 
Q 49.265625 0.734375 44.1875 -0.34375 
Q 39.109375 -1.421875 33.890625 -1.421875 
Q 20.796875 -1.421875 13.15625 6.1875 
Q 5.515625 13.8125 5.515625 26.8125 
Q 5.515625 40.234375 12.765625 48.109375 
Q 20.015625 56 32.328125 56 
Q 43.359375 56 49.78125 48.890625 
Q 56.203125 41.796875 56.203125 29.59375 
z
M 47.21875 32.234375 
Q 47.125 39.59375 43.09375 43.984375 
Q 39.0625 48.390625 32.421875 48.390625 
Q 24.90625 48.390625 20.390625 44.140625 
Q 15.875 39.890625 15.1875 32.171875 
z
" id="DejaVuSans-101"/>
       <path d="M 2.984375 54.6875 
L 12.5 54.6875 
L 29.59375 8.796875 
L 46.6875 54.6875 
L 56.203125 54.6875 
L 35.6875 0 
L 23.484375 0 
z
" id="DejaVuSans-118"/>
       <path d="M 34.28125 27.484375 
Q 23.390625 27.484375 19.1875 25 
Q 14.984375 22.515625 14.984375 16.5 
Q 14.984375 11.71875 18.140625 8.90625 
Q 21.296875 6.109375 26.703125 6.109375 
Q 34.1875 6.109375 38.703125 11.40625 
Q 43.21875 16.703125 43.21875 25.484375 
L 43.21875 27.484375 
z
M 52.203125 31.203125 
L 52.203125 0 
L 43.21875 0 
L 43.21875 8.296875 
Q 40.140625 3.328125 35.546875 0.953125 
Q 30.953125 -1.421875 24.3125 -1.421875 
Q 15.921875 -1.421875 10.953125 3.296875 
Q 6 8.015625 6 15.921875 
Q 6 25.140625 12.171875 29.828125 
Q 18.359375 34.515625 30.609375 34.515625 
L 43.21875 34.515625 
L 43.21875 35.40625 
Q 43.21875 41.609375 39.140625 45 
Q 35.0625 48.390625 27.6875 48.390625 
Q 23 48.390625 18.546875 47.265625 
Q 14.109375 46.140625 10.015625 43.890625 
L 10.015625 52.203125 
Q 14.9375 54.109375 19.578125 55.046875 
Q 24.21875 56 28.609375 56 
Q 40.484375 56 46.34375 49.84375 
Q 52.203125 43.703125 52.203125 31.203125 
z
" id="DejaVuSans-97"/>
       <path d="M 44.28125 53.078125 
L 44.28125 44.578125 
Q 40.484375 46.53125 36.375 47.5 
Q 32.28125 48.484375 27.875 48.484375 
Q 21.1875 48.484375 17.84375 46.4375 
Q 14.5 44.390625 14.5 40.28125 
Q 14.5 37.15625 16.890625 35.375 
Q 19.28125 33.59375 26.515625 31.984375 
L 29.59375 31.296875 
Q 39.15625 29.25 43.1875 25.515625 
Q 47.21875 21.78125 47.21875 15.09375 
Q 47.21875 7.46875 41.1875 3.015625 
Q 35.15625 -1.421875 24.609375 -1.421875 
Q 20.21875 -1.421875 15.453125 -0.5625 
Q 10.6875 0.296875 5.421875 2 
L 5.421875 11.28125 
Q 10.40625 8.6875 15.234375 7.390625 
Q 20.0625 6.109375 24.8125 6.109375 
Q 31.15625 6.109375 34.5625 8.28125 
Q 37.984375 10.453125 37.984375 14.40625 
Q 37.984375 18.0625 35.515625 20.015625 
Q 33.0625 21.96875 24.703125 23.78125 
L 21.578125 24.515625 
Q 13.234375 26.265625 9.515625 29.90625 
Q 5.8125 33.546875 5.8125 39.890625 
Q 5.8125 47.609375 11.28125 51.796875 
Q 16.75 56 26.8125 56 
Q 31.78125 56 36.171875 55.265625 
Q 40.578125 54.546875 44.28125 53.078125 
z
" id="DejaVuSans-115"/>
       <path d="M 25.390625 72.90625 
L 33.6875 72.90625 
L 8.296875 -9.28125 
L 0 -9.28125 
z
" id="DejaVuSans-47"/>
       <path d="M 45.40625 46.390625 
L 45.40625 75.984375 
L 54.390625 75.984375 
L 54.390625 0 
L 45.40625 0 
L 45.40625 8.203125 
Q 42.578125 3.328125 38.25 0.953125 
Q 33.9375 -1.421875 27.875 -1.421875 
Q 17.96875 -1.421875 11.734375 6.484375 
Q 5.515625 14.40625 5.515625 27.296875 
Q 5.515625 40.1875 11.734375 48.09375 
Q 17.96875 56 27.875 56 
Q 33.9375 56 38.25 53.625 
Q 42.578125 51.265625 45.40625 46.390625 
z
M 14.796875 27.296875 
Q 14.796875 17.390625 18.875 11.75 
Q 22.953125 6.109375 30.078125 6.109375 
Q 37.203125 6.109375 41.296875 11.75 
Q 45.40625 17.390625 45.40625 27.296875 
Q 45.40625 37.203125 41.296875 42.84375 
Q 37.203125 48.484375 30.078125 48.484375 
Q 22.953125 48.484375 18.875 42.84375 
Q 14.796875 37.203125 14.796875 27.296875 
z
" id="DejaVuSans-100"/>
       <path d="M 9.421875 54.6875 
L 18.40625 54.6875 
L 18.40625 0 
L 9.421875 0 
z
M 9.421875 75.984375 
L 18.40625 75.984375 
L 18.40625 64.59375 
L 9.421875 64.59375 
z
" id="DejaVuSans-105"/>
       <path d="M 52 44.1875 
Q 55.375 50.25 60.0625 53.125 
Q 64.75 56 71.09375 56 
Q 79.640625 56 84.28125 50.015625 
Q 88.921875 44.046875 88.921875 33.015625 
L 88.921875 0 
L 79.890625 0 
L 79.890625 32.71875 
Q 79.890625 40.578125 77.09375 44.375 
Q 74.3125 48.1875 68.609375 48.1875 
Q 61.625 48.1875 57.5625 43.546875 
Q 53.515625 38.921875 53.515625 30.90625 
L 53.515625 0 
L 44.484375 0 
L 44.484375 32.71875 
Q 44.484375 40.625 41.703125 44.40625 
Q 38.921875 48.1875 33.109375 48.1875 
Q 26.21875 48.1875 22.15625 43.53125 
Q 18.109375 38.875 18.109375 30.90625 
L 18.109375 0 
L 9.078125 0 
L 9.078125 54.6875 
L 18.109375 54.6875 
L 18.109375 46.1875 
Q 21.1875 51.21875 25.484375 53.609375 
Q 29.78125 56 35.6875 56 
Q 41.65625 56 45.828125 52.96875 
Q 50 49.953125 52 44.1875 
z
" id="DejaVuSans-109"/>
       <path d="M 54.890625 33.015625 
L 54.890625 0 
L 45.90625 0 
L 45.90625 32.71875 
Q 45.90625 40.484375 42.875 44.328125 
Q 39.84375 48.1875 33.796875 48.1875 
Q 26.515625 48.1875 22.3125 43.546875 
Q 18.109375 38.921875 18.109375 30.90625 
L 18.109375 0 
L 9.078125 0 
L 9.078125 54.6875 
L 18.109375 54.6875 
L 18.109375 46.1875 
Q 21.34375 51.125 25.703125 53.5625 
Q 30.078125 56 35.796875 56 
Q 45.21875 56 50.046875 50.171875 
Q 54.890625 44.34375 54.890625 33.015625 
z
" id="DejaVuSans-110"/>
       <path d="M 8.015625 75.875 
L 15.828125 75.875 
Q 23.140625 64.359375 26.78125 53.3125 
Q 30.421875 42.28125 30.421875 31.390625 
Q 30.421875 20.453125 26.78125 9.375 
Q 23.140625 -1.703125 15.828125 -13.1875 
L 8.015625 -13.1875 
Q 14.5 -2 17.703125 9.0625 
Q 20.90625 20.125 20.90625 31.390625 
Q 20.90625 42.671875 17.703125 53.65625 
Q 14.5 64.65625 8.015625 75.875 
z
" id="DejaVuSans-41"/>
      </defs>
      <use xlink:href="#DejaVuSans-108"/>
      <use x="27.783203" xlink:href="#DejaVuSans-111"/>
      <use x="88.964844" xlink:href="#DejaVuSans-103"/>
      <use x="152.441406" xlink:href="#DejaVuSans-49"/>
      <use x="216.064453" xlink:href="#DejaVuSans-48"/>
      <use x="279.6875" xlink:href="#DejaVuSans-40"/>
      <use x="318.701172" xlink:href="#DejaVuSans-35"/>
      <use x="402.490234" xlink:href="#DejaVuSans-32"/>
      <use x="434.277344" xlink:href="#DejaVuSans-102"/>
      <use x="463.982422" xlink:href="#DejaVuSans-45"/>
      <use x="500.066406" xlink:href="#DejaVuSans-101"/>
      <use x="561.589844" xlink:href="#DejaVuSans-118"/>
      <use x="620.769531" xlink:href="#DejaVuSans-97"/>
      <use x="682.048828" xlink:href="#DejaVuSans-108"/>
      <use x="709.832031" xlink:href="#DejaVuSans-115"/>
      <use x="761.931641" xlink:href="#DejaVuSans-32"/>
      <use x="793.71875" xlink:href="#DejaVuSans-47"/>
      <use x="827.410156" xlink:href="#DejaVuSans-32"/>
      <use x="859.197266" xlink:href="#DejaVuSans-100"/>
      <use x="922.673828" xlink:href="#DejaVuSans-105"/>
      <use x="950.457031" xlink:href="#DejaVuSans-109"/>
      <use x="1047.869141" xlink:href="#DejaVuSans-101"/>
      <use x="1109.392578" xlink:href="#DejaVuSans-110"/>
      <use x="1172.771484" xlink:href="#DejaVuSans-115"/>
      <use x="1224.871094" xlink:href="#DejaVuSans-105"/>
      <use x="1252.654297" xlink:href="#DejaVuSans-111"/>
      <use x="1313.835938" xlink:href="#DejaVuSans-110"/>
      <use x="1377.214844" xlink:href="#DejaVuSans-41"/>
     </g>
    </g>
   </g>
   <g id="matplotlib.axis_2">
    <g id="ytick_1">
     <g id="line2d_21">
      <path clip-path="url(#p07d5b7560f)" d="M 57.6 298.944 
L 338.688 298.944 
" style="fill:none;stroke:#b0b0b0;stroke-linecap:square;stroke-width:0.8;"/>
     </g>
     <g id="line2d_22">
      <defs>
       <path d="M 0 0 
L -3.5 0 
" id="m160e682a7e" style="stroke:#000000;stroke-width:0.8;"/>
      </defs>
      <g>
       <use style="stroke:#000000;stroke-width:0.8;" x="57.6" xlink:href="#m160e682a7e" y="298.944"/>
      </g>
     </g>
     <g id="text_6">
      <!-- 0.0 -->
      <g transform="translate(25.155 305.02275)scale(0.16 -0.16)">
       <defs>
        <path d="M 10.6875 12.40625 
L 21 12.40625 
L 21 0 
L 10.6875 0 
z
" id="DejaVuSans-46"/>
       </defs>
       <use xlink:href="#DejaVuSans-48"/>
       <use x="63.623047" xlink:href="#DejaVuSans-46"/>
       <use x="95.410156" xlink:href="#DejaVuSans-48"/>
      </g>
     </g>
    </g>
    <g id="ytick_2">
     <g id="line2d_23">
      <path clip-path="url(#p07d5b7560f)" d="M 57.6 245.22202 
L 338.688 245.22202 
" style="fill:none;stroke:#b0b0b0;stroke-linecap:square;stroke-width:0.8;"/>
     </g>
     <g id="line2d_24">
      <g>
       <use style="stroke:#000000;stroke-width:0.8;" x="57.6" xlink:href="#m160e682a7e" y="245.22202"/>
      </g>
     </g>
     <g id="text_7">
      <!-- 0.2 -->
      <g transform="translate(25.155 251.30077)scale(0.16 -0.16)">
       <use xlink:href="#DejaVuSans-48"/>
       <use x="63.623047" xlink:href="#DejaVuSans-46"/>
       <use x="95.410156" xlink:href="#DejaVuSans-50"/>
      </g>
     </g>
    </g>
    <g id="ytick_3">
     <g id="line2d_25">
      <path clip-path="url(#p07d5b7560f)" d="M 57.6 191.50004 
L 338.688 191.50004 
" style="fill:none;stroke:#b0b0b0;stroke-linecap:square;stroke-width:0.8;"/>
     </g>
     <g id="line2d_26">
      <g>
       <use style="stroke:#000000;stroke-width:0.8;" x="57.6" xlink:href="#m160e682a7e" y="191.50004"/>
      </g>
     </g>
     <g id="text_8">
      <!-- 0.4 -->
      <g transform="translate(25.155 197.57879)scale(0.16 -0.16)">
       <use xlink:href="#DejaVuSans-48"/>
       <use x="63.623047" xlink:href="#DejaVuSans-46"/>
       <use x="95.410156" xlink:href="#DejaVuSans-52"/>
      </g>
     </g>
    </g>
    <g id="ytick_4">
     <g id="line2d_27">
      <path clip-path="url(#p07d5b7560f)" d="M 57.6 137.778059 
L 338.688 137.778059 
" style="fill:none;stroke:#b0b0b0;stroke-linecap:square;stroke-width:0.8;"/>
     </g>
     <g id="line2d_28">
      <g>
       <use style="stroke:#000000;stroke-width:0.8;" x="57.6" xlink:href="#m160e682a7e" y="137.778059"/>
      </g>
     </g>
     <g id="text_9">
      <!-- 0.6 -->
      <g transform="translate(25.155 143.856809)scale(0.16 -0.16)">
       <use xlink:href="#DejaVuSans-48"/>
       <use x="63.623047" xlink:href="#DejaVuSans-46"/>
       <use x="95.410156" xlink:href="#DejaVuSans-54"/>
      </g>
     </g>
    </g>
    <g id="ytick_5">
     <g id="line2d_29">
      <path clip-path="url(#p07d5b7560f)" d="M 57.6 84.056079 
L 338.688 84.056079 
" style="fill:none;stroke:#b0b0b0;stroke-linecap:square;stroke-width:0.8;"/>
     </g>
     <g id="line2d_30">
      <g>
       <use style="stroke:#000000;stroke-width:0.8;" x="57.6" xlink:href="#m160e682a7e" y="84.056079"/>
      </g>
     </g>
     <g id="text_10">
      <!-- 0.8 -->
      <g transform="translate(25.155 90.134829)scale(0.16 -0.16)">
       <defs>
        <path d="M 31.78125 34.625 
Q 24.75 34.625 20.71875 30.859375 
Q 16.703125 27.09375 16.703125 20.515625 
Q 16.703125 13.921875 20.71875 10.15625 
Q 24.75 6.390625 31.78125 6.390625 
Q 38.8125 6.390625 42.859375 10.171875 
Q 46.921875 13.96875 46.921875 20.515625 
Q 46.921875 27.09375 42.890625 30.859375 
Q 38.875 34.625 31.78125 34.625 
z
M 21.921875 38.8125 
Q 15.578125 40.375 12.03125 44.71875 
Q 8.5 49.078125 8.5 55.328125 
Q 8.5 64.0625 14.71875 69.140625 
Q 20.953125 74.21875 31.78125 74.21875 
Q 42.671875 74.21875 48.875 69.140625 
Q 55.078125 64.0625 55.078125 55.328125 
Q 55.078125 49.078125 51.53125 44.71875 
Q 48 40.375 41.703125 38.8125 
Q 48.828125 37.15625 52.796875 32.3125 
Q 56.78125 27.484375 56.78125 20.515625 
Q 56.78125 9.90625 50.3125 4.234375 
Q 43.84375 -1.421875 31.78125 -1.421875 
Q 19.734375 -1.421875 13.25 4.234375 
Q 6.78125 9.90625 6.78125 20.515625 
Q 6.78125 27.484375 10.78125 32.3125 
Q 14.796875 37.15625 21.921875 38.8125 
z
M 18.3125 54.390625 
Q 18.3125 48.734375 21.84375 45.5625 
Q 25.390625 42.390625 31.78125 42.390625 
Q 38.140625 42.390625 41.71875 45.5625 
Q 45.3125 48.734375 45.3125 54.390625 
Q 45.3125 60.0625 41.71875 63.234375 
Q 38.140625 66.40625 31.78125 66.40625 
Q 25.390625 66.40625 21.84375 63.234375 
Q 18.3125 60.0625 18.3125 54.390625 
z
" id="DejaVuSans-56"/>
       </defs>
       <use xlink:href="#DejaVuSans-48"/>
       <use x="63.623047" xlink:href="#DejaVuSans-46"/>
       <use x="95.410156" xlink:href="#DejaVuSans-56"/>
      </g>
     </g>
    </g>
    <g id="ytick_6">
     <g id="line2d_31">
      <path clip-path="url(#p07d5b7560f)" d="M 57.6 30.334099 
L 338.688 30.334099 
" style="fill:none;stroke:#b0b0b0;stroke-linecap:square;stroke-width:0.8;"/>
     </g>
     <g id="line2d_32">
      <g>
       <use style="stroke:#000000;stroke-width:0.8;" x="57.6" xlink:href="#m160e682a7e" y="30.334099"/>
      </g>
     </g>
     <g id="text_11">
      <!-- 1.0 -->
      <g transform="translate(25.155 36.412849)scale(0.16 -0.16)">
       <use xlink:href="#DejaVuSans-49"/>
       <use x="63.623047" xlink:href="#DejaVuSans-46"/>
       <use x="95.410156" xlink:href="#DejaVuSans-48"/>
      </g>
     </g>
    </g>
    <g id="text_12">
     <!-- Fraction of function,target pairs -->
     <g transform="translate(17.619531 297.681)rotate(-90)scale(0.17 -0.17)">
      <defs>
       <path d="M 9.8125 72.90625 
L 51.703125 72.90625 
L 51.703125 64.59375 
L 19.671875 64.59375 
L 19.671875 43.109375 
L 48.578125 43.109375 
L 48.578125 34.8125 
L 19.671875 34.8125 
L 19.671875 0 
L 9.8125 0 
z
" id="DejaVuSans-70"/>
       <path d="M 41.109375 46.296875 
Q 39.59375 47.171875 37.8125 47.578125 
Q 36.03125 48 33.890625 48 
Q 26.265625 48 22.1875 43.046875 
Q 18.109375 38.09375 18.109375 28.8125 
L 18.109375 0 
L 9.078125 0 
L 9.078125 54.6875 
L 18.109375 54.6875 
L 18.109375 46.1875 
Q 20.953125 51.171875 25.484375 53.578125 
Q 30.03125 56 36.53125 56 
Q 37.453125 56 38.578125 55.875 
Q 39.703125 55.765625 41.0625 55.515625 
z
" id="DejaVuSans-114"/>
       <path d="M 48.78125 52.59375 
L 48.78125 44.1875 
Q 44.96875 46.296875 41.140625 47.34375 
Q 37.3125 48.390625 33.40625 48.390625 
Q 24.65625 48.390625 19.8125 42.84375 
Q 14.984375 37.3125 14.984375 27.296875 
Q 14.984375 17.28125 19.8125 11.734375 
Q 24.65625 6.203125 33.40625 6.203125 
Q 37.3125 6.203125 41.140625 7.25 
Q 44.96875 8.296875 48.78125 10.40625 
L 48.78125 2.09375 
Q 45.015625 0.34375 40.984375 -0.53125 
Q 36.96875 -1.421875 32.421875 -1.421875 
Q 20.0625 -1.421875 12.78125 6.34375 
Q 5.515625 14.109375 5.515625 27.296875 
Q 5.515625 40.671875 12.859375 48.328125 
Q 20.21875 56 33.015625 56 
Q 37.15625 56 41.109375 55.140625 
Q 45.0625 54.296875 48.78125 52.59375 
z
" id="DejaVuSans-99"/>
       <path d="M 18.3125 70.21875 
L 18.3125 54.6875 
L 36.8125 54.6875 
L 36.8125 47.703125 
L 18.3125 47.703125 
L 18.3125 18.015625 
Q 18.3125 11.328125 20.140625 9.421875 
Q 21.96875 7.515625 27.59375 7.515625 
L 36.8125 7.515625 
L 36.8125 0 
L 27.59375 0 
Q 17.1875 0 13.234375 3.875 
Q 9.28125 7.765625 9.28125 18.015625 
L 9.28125 47.703125 
L 2.6875 47.703125 
L 2.6875 54.6875 
L 9.28125 54.6875 
L 9.28125 70.21875 
z
" id="DejaVuSans-116"/>
       <path d="M 8.5 21.578125 
L 8.5 54.6875 
L 17.484375 54.6875 
L 17.484375 21.921875 
Q 17.484375 14.15625 20.5 10.265625 
Q 23.53125 6.390625 29.59375 6.390625 
Q 36.859375 6.390625 41.078125 11.03125 
Q 45.3125 15.671875 45.3125 23.6875 
L 45.3125 54.6875 
L 54.296875 54.6875 
L 54.296875 0 
L 45.3125 0 
L 45.3125 8.40625 
Q 42.046875 3.421875 37.71875 1 
Q 33.40625 -1.421875 27.6875 -1.421875 
Q 18.265625 -1.421875 13.375 4.4375 
Q 8.5 10.296875 8.5 21.578125 
z
M 31.109375 56 
z
" id="DejaVuSans-117"/>
       <path d="M 11.71875 12.40625 
L 22.015625 12.40625 
L 22.015625 4 
L 14.015625 -11.625 
L 7.71875 -11.625 
L 11.71875 4 
z
" id="DejaVuSans-44"/>
       <path d="M 18.109375 8.203125 
L 18.109375 -20.796875 
L 9.078125 -20.796875 
L 9.078125 54.6875 
L 18.109375 54.6875 
L 18.109375 46.390625 
Q 20.953125 51.265625 25.265625 53.625 
Q 29.59375 56 35.59375 56 
Q 45.5625 56 51.78125 48.09375 
Q 58.015625 40.1875 58.015625 27.296875 
Q 58.015625 14.40625 51.78125 6.484375 
Q 45.5625 -1.421875 35.59375 -1.421875 
Q 29.59375 -1.421875 25.265625 0.953125 
Q 20.953125 3.328125 18.109375 8.203125 
z
M 48.6875 27.296875 
Q 48.6875 37.203125 44.609375 42.84375 
Q 40.53125 48.484375 33.40625 48.484375 
Q 26.265625 48.484375 22.1875 42.84375 
Q 18.109375 37.203125 18.109375 27.296875 
Q 18.109375 17.390625 22.1875 11.75 
Q 26.265625 6.109375 33.40625 6.109375 
Q 40.53125 6.109375 44.609375 11.75 
Q 48.6875 17.390625 48.6875 27.296875 
z
" id="DejaVuSans-112"/>
      </defs>
      <use xlink:href="#DejaVuSans-70"/>
      <use x="50.269531" xlink:href="#DejaVuSans-114"/>
      <use x="91.382812" xlink:href="#DejaVuSans-97"/>
      <use x="152.662109" xlink:href="#DejaVuSans-99"/>
      <use x="207.642578" xlink:href="#DejaVuSans-116"/>
      <use x="246.851562" xlink:href="#DejaVuSans-105"/>
      <use x="274.634766" xlink:href="#DejaVuSans-111"/>
      <use x="335.816406" xlink:href="#DejaVuSans-110"/>
      <use x="399.195312" xlink:href="#DejaVuSans-32"/>
      <use x="430.982422" xlink:href="#DejaVuSans-111"/>
      <use x="492.164062" xlink:href="#DejaVuSans-102"/>
      <use x="527.369141" xlink:href="#DejaVuSans-32"/>
      <use x="559.15625" xlink:href="#DejaVuSans-102"/>
      <use x="594.361328" xlink:href="#DejaVuSans-117"/>
      <use x="657.740234" xlink:href="#DejaVuSans-110"/>
      <use x="721.119141" xlink:href="#DejaVuSans-99"/>
      <use x="776.099609" xlink:href="#DejaVuSans-116"/>
      <use x="815.308594" xlink:href="#DejaVuSans-105"/>
      <use x="843.091797" xlink:href="#DejaVuSans-111"/>
      <use x="904.273438" xlink:href="#DejaVuSans-110"/>
      <use x="967.652344" xlink:href="#DejaVuSans-44"/>
      <use x="999.439453" xlink:href="#DejaVuSans-116"/>
      <use x="1038.648438" xlink:href="#DejaVuSans-97"/>
      <use x="1099.927734" xlink:href="#DejaVuSans-114"/>
      <use x="1139.291016" xlink:href="#DejaVuSans-103"/>
      <use x="1202.767578" xlink:href="#DejaVuSans-101"/>
      <use x="1264.291016" xlink:href="#DejaVuSans-116"/>
      <use x="1303.5" xlink:href="#DejaVuSans-32"/>
      <use x="1335.287109" xlink:href="#DejaVuSans-112"/>
      <use x="1398.763672" xlink:href="#DejaVuSans-97"/>
      <use x="1460.042969" xlink:href="#DejaVuSans-105"/>
      <use x="1487.826172" xlink:href="#DejaVuSans-114"/>
      <use x="1528.939453" xlink:href="#DejaVuSans-115"/>
     </g>
    </g>
   </g>
   <g id="line2d_33">
    <defs>
     <path d="M 0 1.5 
C 0.397805 1.5 0.77937 1.341951 1.06066 1.06066 
C 1.341951 0.77937 1.5 0.397805 1.5 0 
C 1.5 -0.397805 1.341951 -0.77937 1.06066 -1.06066 
C 0.77937 -1.341951 0.397805 -1.5 0 -1.5 
C -0.397805 -1.5 -0.77937 -1.341951 -1.06066 -1.06066 
C -1.341951 -0.77937 -1.5 -0.397805 -1.5 0 
C -1.5 0.397805 -1.341951 0.77937 -1.06066 1.06066 
C -0.77937 1.341951 -0.397805 1.5 0 1.5 
z
" id="m165c706f57" style="stroke:#f5deb3;"/>
    </defs>
    <g>
     <use style="fill:#f5deb3;stroke:#f5deb3;" x="186.833763" xlink:href="#m165c706f57" y="30.334099"/>
     <use style="fill:#f5deb3;stroke:#f5deb3;" x="186.833763" xlink:href="#m165c706f57" y="30.334099"/>
    </g>
   </g>
   <g id="line2d_34">
    <defs>
     <path d="M 0 1.5 
C 0.397805 1.5 0.77937 1.341951 1.06066 1.06066 
C 1.341951 0.77937 1.5 0.397805 1.5 0 
C 1.5 -0.397805 1.341951 -0.77937 1.06066 -1.06066 
C 0.77937 -1.341951 0.397805 -1.5 0 -1.5 
C -0.397805 -1.5 -0.77937 -1.341951 -1.06066 -1.06066 
C -1.341951 -0.77937 -1.5 -0.397805 -1.5 0 
C -1.5 0.397805 -1.341951 0.77937 -1.06066 1.06066 
C -0.77937 1.341951 -0.397805 1.5 0 1.5 
z
" id="m34e138d7ef" style="stroke:#000080;"/>
    </defs>
    <g>
     <use style="fill:#000080;stroke:#000080;" x="196.943419" xlink:href="#m34e138d7ef" y="30.334099"/>
     <use style="fill:#000080;stroke:#000080;" x="196.943419" xlink:href="#m34e138d7ef" y="30.334099"/>
    </g>
   </g>
   <g id="line2d_35">
    <path d="M -1 294.730511 
L 12.427603 294.730511 
L 12.427603 293.677139 
L 21.336035 293.677139 
L 21.336035 293.150453 
L 29.53256 293.150453 
L 29.53256 292.623767 
L 39.291857 292.623767 
L 39.291857 292.097081 
L 42.677798 292.097081 
L 42.677798 291.570395 
L 55.271309 291.570395 
L 55.271309 291.043709 
L 69.021438 291.043709 
L 69.021438 290.517023 
L 70.538854 290.517023 
L 70.538854 289.990337 
L 74.094936 289.990337 
L 74.094936 289.463651 
L 74.263433 289.463651 
L 74.263433 288.936964 
L 74.921597 288.936964 
L 74.921597 288.410278 
L 76.016799 288.410278 
L 76.016799 287.883592 
L 77.470915 287.883592 
L 77.470915 287.356906 
L 77.747734 287.356906 
L 77.747734 286.83022 
L 79.938565 286.83022 
L 79.938565 286.303534 
L 82.626842 286.303534 
L 82.626842 285.776848 
L 83.338749 285.776848 
L 83.338749 285.250162 
L 85.66744 285.250162 
L 85.66744 284.723476 
L 87.721492 284.723476 
L 87.721492 284.19679 
L 87.952479 284.19679 
L 87.952479 283.670104 
L 88.104788 283.670104 
L 88.104788 283.143418 
L 88.330786 283.143418 
L 88.330786 282.616732 
L 88.479841 282.616732 
L 88.479841 282.090045 
L 90.640756 282.090045 
L 90.640756 281.563359 
L 91.72113 281.563359 
L 91.72113 281.036673 
L 92.386139 281.036673 
L 92.386139 280.509987 
L 94.505975 280.509987 
L 94.505975 279.983301 
L 95.624913 279.983301 
L 95.624913 279.456615 
L 96.952455 279.456615 
L 96.952455 278.929929 
L 97.134116 278.929929 
L 97.224242 277.876557 
L 97.447539 277.876557 
L 97.447539 277.349871 
L 98.18605 277.349871 
L 98.18605 276.823185 
L 100.002181 276.823185 
L 100.002181 276.296499 
L 101.007498 276.296499 
L 101.007498 275.769812 
L 102.026396 275.769812 
L 102.026396 275.243126 
L 102.297303 275.243126 
L 102.297303 274.71644 
L 102.431195 274.71644 
L 102.431195 274.189754 
L 103.403898 274.189754 
L 103.403898 273.663068 
L 103.654376 273.663068 
L 103.654376 273.136382 
L 103.870632 273.136382 
L 103.870632 272.609696 
L 103.993014 272.609696 
L 103.993014 272.08301 
L 104.144793 272.08301 
L 104.144793 271.029638 
L 104.709797 271.029638 
L 104.709797 270.502952 
L 105.057436 270.502952 
L 105.057436 269.976266 
L 106.409139 269.976266 
L 106.409139 269.449579 
L 106.906317 269.449579 
L 106.906317 268.922893 
L 107.663568 268.922893 
L 107.663568 268.396207 
L 108.174735 268.396207 
L 108.174735 267.869521 
L 108.389302 267.869521 
L 108.41298 266.816149 
L 108.601261 266.816149 
L 108.648015 265.762777 
L 108.810674 265.762777 
L 108.810674 265.236091 
L 109.040444 265.236091 
L 109.040444 264.709405 
L 109.176867 264.709405 
L 109.176867 264.182719 
L 110.590167 264.182719 
L 110.590167 263.656033 
L 110.735755 263.656033 
L 110.735755 263.129347 
L 111.023335 263.129347 
L 111.023335 262.075974 
L 111.30625 262.075974 
L 111.30625 261.549288 
L 111.525364 261.549288 
L 111.545148 260.495916 
L 111.663381 260.495916 
L 111.663381 259.96923 
L 111.83924 259.96923 
L 111.83924 259.442544 
L 111.955503 259.442544 
L 111.955503 258.915858 
L 113.612376 258.915858 
L 113.612376 257.862486 
L 113.85653 257.862486 
L 113.85653 257.3358 
L 114.334816 257.3358 
L 114.334816 256.809114 
L 114.849483 256.809114 
L 114.882171 255.755741 
L 115.012316 255.755741 
L 115.012316 255.229055 
L 115.205729 255.229055 
L 115.205729 254.702369 
L 115.897107 254.702369 
L 115.897107 254.175683 
L 116.202531 254.175683 
L 116.202531 253.648997 
L 116.783149 253.648997 
L 116.885347 251.542253 
L 116.972471 251.542253 
L 116.972471 251.015567 
L 117.288253 251.015567 
L 117.387541 249.962195 
L 117.528409 249.962195 
L 117.542433 248.908822 
L 117.765302 248.908822 
L 117.765302 248.382136 
L 117.958004 248.382136 
L 117.999021 246.275392 
L 118.296904 246.275392 
L 118.296904 245.748706 
L 118.838828 245.748706 
L 118.838828 245.22202 
L 119.313832 245.22202 
L 119.389655 244.168648 
L 119.702083 244.168648 
L 119.702083 243.641962 
L 119.837798 243.641962 
L 119.837798 242.588589 
L 120.154442 242.588589 
L 120.20265 241.535217 
L 120.465439 241.535217 
L 120.47729 240.481845 
L 120.583592 240.481845 
L 120.583592 239.955159 
L 121.377731 239.955159 
L 121.422678 238.901787 
L 121.567959 238.901787 
L 121.612419 237.321729 
L 122.201787 237.321729 
L 122.308777 235.214984 
L 122.625864 235.214984 
L 122.66771 234.161612 
L 122.885768 234.161612 
L 122.885768 233.10824 
L 123.141856 233.10824 
L 123.202762 232.054868 
L 123.524047 232.054868 
L 123.543933 231.001496 
L 123.741547 231.001496 
L 123.780803 228.894751 
L 123.898042 228.894751 
L 123.898042 228.368065 
L 124.158984 228.368065 
L 124.158984 227.841379 
L 124.406624 227.841379 
L 124.482119 226.788007 
L 124.75308 226.788007 
L 124.75308 226.261321 
L 124.955864 226.261321 
L 124.983335 224.681263 
L 125.21059 224.681263 
L 125.300669 223.101204 
L 125.452744 223.101204 
L 125.479443 222.047832 
L 125.665205 222.047832 
L 125.665205 221.521146 
L 126.168212 221.521146 
L 126.168212 219.941088 
L 126.464878 219.941088 
L 126.490073 218.887716 
L 126.839037 218.887716 
L 126.880118 217.834344 
L 127.140776 217.834344 
L 127.140776 216.780971 
L 127.30173 216.780971 
L 127.30173 216.254285 
L 127.556207 216.254285 
L 127.556207 215.727599 
L 127.674226 215.727599 
L 127.697735 214.674227 
L 128.023567 214.674227 
L 128.023567 214.147541 
L 128.282949 214.147541 
L 128.282949 213.620855 
L 128.987887 213.620855 
L 128.987887 213.094169 
L 129.447219 213.094169 
L 129.447219 212.567483 
L 129.644435 212.567483 
L 129.644435 212.040797 
L 129.922357 212.040797 
L 129.922357 211.514111 
L 130.039146 211.514111 
L 130.066513 210.460738 
L 130.236587 210.460738 
L 130.236587 209.934052 
L 130.511968 209.934052 
L 130.511968 209.407366 
L 131.165936 209.407366 
L 131.191591 208.353994 
L 131.293837 208.353994 
L 131.293837 207.827308 
L 131.477644 207.827308 
L 131.477644 207.300622 
L 131.808641 207.300622 
L 131.808641 206.773936 
L 131.981004 206.773936 
L 131.981004 206.24725 
L 132.145613 206.24725 
L 132.175926 204.667192 
L 132.320701 204.667192 
L 132.320701 204.140506 
L 132.565279 204.140506 
L 132.565279 203.613819 
L 133.061659 203.613819 
L 133.061659 203.087133 
L 133.392433 203.087133 
L 133.392433 202.560447 
L 133.733678 202.560447 
L 133.733678 202.033761 
L 134.117215 202.033761 
L 134.117215 201.507075 
L 134.327297 201.507075 
L 134.343353 200.453703 
L 134.692892 200.453703 
L 134.692892 199.927017 
L 134.989229 199.927017 
L 134.989229 199.400331 
L 135.209496 199.400331 
L 135.209496 198.873645 
L 135.341343 198.873645 
L 135.341343 198.346959 
L 136.170062 198.346959 
L 136.170062 197.820273 
L 136.729457 197.820273 
L 136.729457 197.293586 
L 136.938146 197.293586 
L 136.938146 196.7669 
L 137.21257 196.7669 
L 137.285026 195.713528 
L 137.919575 195.713528 
L 137.919575 195.186842 
L 138.166208 195.186842 
L 138.27329 194.13347 
L 138.281828 194.13347 
L 138.281828 193.606784 
L 138.531843 193.606784 
L 138.611599 192.553412 
L 138.770025 192.553412 
L 138.770025 192.026726 
L 139.176133 192.026726 
L 139.200444 190.973354 
L 139.349619 190.973354 
L 139.349619 190.446667 
L 139.980403 190.446667 
L 139.980403 189.919981 
L 140.211187 189.919981 
L 140.211187 189.393295 
L 140.749212 189.393295 
L 140.834218 188.339923 
L 141.166544 188.339923 
L 141.263941 187.286551 
L 141.435758 187.286551 
L 141.435758 186.759865 
L 141.861513 186.759865 
L 141.861513 186.233179 
L 142.02757 186.233179 
L 142.02757 185.706493 
L 142.559927 185.706493 
L 142.663148 184.126434 
L 143.150923 184.126434 
L 143.150923 183.599748 
L 143.40093 183.599748 
L 143.40093 183.073062 
L 143.518281 183.073062 
L 143.518281 182.546376 
L 144.209312 182.546376 
L 144.209312 182.01969 
L 144.357553 182.01969 
L 144.357553 181.493004 
L 144.66215 181.493004 
L 144.727156 180.439632 
L 145.115068 180.439632 
L 145.115068 179.912946 
L 145.72445 179.912946 
L 145.72445 179.38626 
L 145.901809 179.38626 
L 145.901809 178.859574 
L 146.014489 178.859574 
L 146.058265 177.806202 
L 146.924479 177.806202 
L 147.02042 176.226143 
L 147.162068 176.226143 
L 147.162068 175.699457 
L 147.360997 175.699457 
L 147.459617 174.646085 
L 148.320566 174.646085 
L 148.320566 174.119399 
L 148.601505 174.119399 
L 148.601505 173.592713 
L 148.938326 173.592713 
L 148.938326 172.539341 
L 149.501336 172.539341 
L 149.537187 171.485969 
L 149.893895 171.485969 
L 149.933325 170.432596 
L 150.318524 170.432596 
L 150.410316 168.852538 
L 150.573489 168.852538 
L 150.581924 167.799166 
L 151.649092 167.799166 
L 151.649092 167.27248 
L 151.854123 167.27248 
L 151.854123 166.745794 
L 152.220667 166.745794 
L 152.220667 166.219108 
L 152.579665 166.219108 
L 152.579665 165.692422 
L 152.911143 165.692422 
L 152.993955 164.63905 
L 153.178403 164.63905 
L 153.178403 164.112363 
L 153.534429 164.112363 
L 153.642665 163.058991 
L 153.855395 163.058991 
L 153.855395 162.532305 
L 153.972081 162.532305 
L 153.972081 162.005619 
L 154.344733 162.005619 
L 154.344733 161.478933 
L 154.564226 161.478933 
L 154.564226 160.425561 
L 155.135299 160.425561 
L 155.135299 159.898875 
L 155.576214 159.898875 
L 155.576214 159.372189 
L 156.451565 159.372189 
L 156.454576 158.318817 
L 156.574599 158.318817 
L 156.574599 157.79213 
L 156.907802 157.79213 
L 156.907802 157.265444 
L 157.174189 157.265444 
L 157.174189 156.738758 
L 157.289376 156.738758 
L 157.363842 155.1587 
L 158.053098 155.1587 
L 158.121643 154.105328 
L 158.512642 154.105328 
L 158.512642 153.578642 
L 158.652556 153.578642 
L 158.652556 153.051956 
L 158.996859 153.051956 
L 159.031957 151.998584 
L 159.130375 151.998584 
L 159.162628 150.945211 
L 159.90822 150.945211 
L 159.90822 150.418525 
L 160.324347 150.418525 
L 160.324347 149.891839 
L 160.529341 149.891839 
L 160.529341 149.365153 
L 161.02168 149.365153 
L 161.02168 148.838467 
L 161.157862 148.838467 
L 161.207225 147.785095 
L 161.486969 147.785095 
L 161.486969 147.258409 
L 161.819943 147.258409 
L 161.819943 146.731723 
L 162.453536 146.731723 
L 162.564181 145.151665 
L 162.759283 145.151665 
L 162.84298 144.098292 
L 163.249427 144.098292 
L 163.249427 143.571606 
L 163.565696 143.571606 
L 163.610698 141.991548 
L 163.970507 141.991548 
L 163.970507 141.464862 
L 164.237502 141.464862 
L 164.237502 140.938176 
L 164.563944 140.938176 
L 164.573397 139.884804 
L 164.899235 139.884804 
L 164.899235 139.358118 
L 165.28001 139.358118 
L 165.357888 138.304745 
L 165.417421 138.304745 
L 165.417421 137.778059 
L 165.663306 137.778059 
L 165.663306 137.251373 
L 165.923277 137.251373 
L 165.923277 136.724687 
L 166.37571 136.724687 
L 166.37571 136.198001 
L 166.780098 136.198001 
L 166.840785 135.144629 
L 166.902916 135.144629 
L 166.902916 134.617943 
L 167.46757 134.617943 
L 167.46757 134.091257 
L 167.634096 134.091257 
L 167.634096 133.564571 
L 167.768384 133.564571 
L 167.837494 132.511199 
L 167.931296 132.511199 
L 167.931296 131.984513 
L 168.069513 131.984513 
L 168.118942 130.93114 
L 168.556109 130.93114 
L 168.556109 130.404454 
L 168.885428 130.404454 
L 168.885428 129.877768 
L 169.017046 129.877768 
L 169.017046 129.351082 
L 169.276617 129.351082 
L 169.276617 128.824396 
L 169.53167 128.824396 
L 169.53167 128.29771 
L 169.746554 128.29771 
L 169.813865 126.717652 
L 169.87534 126.717652 
L 169.895551 125.66428 
L 170.081921 125.66428 
L 170.084678 124.610907 
L 170.484518 124.610907 
L 170.484518 124.084221 
L 171.097205 124.084221 
L 171.175698 123.030849 
L 171.296314 123.030849 
L 171.296314 122.504163 
L 171.846131 122.504163 
L 171.895887 121.450791 
L 172.020891 121.450791 
L 172.09964 120.397419 
L 172.340438 120.397419 
L 172.340438 119.870733 
L 172.549864 119.870733 
L 172.549864 119.344047 
L 172.678598 119.344047 
L 172.678598 118.817361 
L 173.660483 118.817361 
L 173.696368 117.237302 
L 173.805811 117.237302 
L 173.827506 116.18393 
L 174.208579 116.18393 
L 174.256921 115.130558 
L 174.516426 115.130558 
L 174.562324 114.077186 
L 174.630415 114.077186 
L 174.630415 113.5505 
L 175.294026 113.5505 
L 175.294026 113.023814 
L 175.503843 113.023814 
L 175.582444 111.970441 
L 175.739089 111.970441 
L 175.739089 111.443755 
L 175.853305 111.443755 
L 175.92345 110.390383 
L 175.969729 110.390383 
L 176.035489 108.810325 
L 176.174048 108.810325 
L 176.174048 108.283639 
L 176.37408 108.283639 
L 176.37408 107.756953 
L 177.053884 107.756953 
L 177.053884 107.230267 
L 177.172685 107.230267 
L 177.172685 106.703581 
L 177.891896 106.703581 
L 177.922254 105.650209 
L 178.018262 105.650209 
L 178.02001 104.596836 
L 178.190533 104.596836 
L 178.190533 104.07015 
L 178.361548 104.07015 
L 178.373546 103.016778 
L 178.53642 103.016778 
L 178.53642 102.490092 
L 178.883902 102.490092 
L 178.883902 101.963406 
L 179.052815 101.963406 
L 179.052815 101.43672 
L 179.193562 101.43672 
L 179.193562 100.910034 
L 179.750608 100.910034 
L 179.750608 100.383348 
L 179.86306 100.383348 
L 179.866206 99.329976 
L 180.072605 99.329976 
L 180.112585 98.276603 
L 180.188797 98.276603 
L 180.244681 97.223231 
L 180.900564 97.223231 
L 180.900564 96.696545 
L 181.290111 96.696545 
L 181.342218 95.643173 
L 181.484716 95.643173 
L 181.562667 94.589801 
L 181.604716 94.589801 
L 181.622148 93.536429 
L 181.963328 93.536429 
L 181.963328 93.009743 
L 182.203645 93.009743 
L 182.264752 90.902998 
L 182.322572 90.902998 
L 182.322572 90.376312 
L 182.759049 90.376312 
L 182.775698 89.32294 
L 182.899394 89.32294 
L 182.973259 88.269568 
L 183.021235 88.269568 
L 183.021235 87.742882 
L 183.242638 87.742882 
L 183.266922 86.68951 
L 183.442377 86.68951 
L 183.5312 85.109451 
L 183.657265 85.109451 
L 183.667387 84.056079 
L 183.944393 84.056079 
L 183.944393 83.529393 
L 184.2486 83.529393 
L 184.2486 83.002707 
L 184.417829 83.002707 
L 184.417829 82.476021 
L 184.543982 82.476021 
L 184.543982 81.949335 
L 184.817283 81.949335 
L 184.817283 81.422649 
L 184.957337 81.422649 
L 184.992542 80.369277 
L 185.164606 80.369277 
L 185.200843 79.315904 
L 185.549486 79.315904 
L 185.63246 78.262532 
L 186.132347 78.262532 
L 186.132347 77.735846 
L 186.257088 77.735846 
L 186.337314 76.682474 
L 186.450361 76.682474 
L 186.526753 75.629102 
L 187.02913 75.629102 
L 187.065861 74.049044 
L 187.252481 74.049044 
L 187.254798 72.995672 
L 187.530874 72.995672 
L 187.561506 71.942299 
L 187.788422 71.942299 
L 187.788422 71.415613 
L 187.922227 71.415613 
L 187.95119 69.835555 
L 188.175322 69.835555 
L 188.175322 69.308869 
L 188.330905 69.308869 
L 188.330905 68.782183 
L 188.497103 68.782183 
L 188.544981 67.728811 
L 188.670278 67.728811 
L 188.764962 66.675439 
L 188.815407 66.675439 
L 188.833758 65.622066 
L 189.013415 65.622066 
L 189.093754 63.515322 
L 189.182255 63.515322 
L 189.249657 60.355206 
L 189.3033 60.355206 
L 189.317485 59.301833 
L 189.965126 59.301833 
L 189.965126 58.775147 
L 190.419933 58.775147 
L 190.419933 58.248461 
L 190.537405 58.248461 
L 190.594888 55.615031 
L 190.778204 55.615031 
L 190.778204 55.088345 
L 190.94462 55.088345 
L 190.958156 53.508287 
L 191.078893 53.508287 
L 191.106367 52.454914 
L 191.380175 52.454914 
L 191.47016 50.34817 
L 191.621116 50.34817 
L 191.621116 49.821484 
L 191.770577 49.821484 
L 191.770577 49.294798 
L 191.898069 49.294798 
L 191.962254 47.71474 
L 192.010728 47.71474 
L 192.010728 47.188054 
L 192.335747 47.188054 
L 192.335747 46.661368 
L 192.476943 46.661368 
L 192.549109 45.081309 
L 192.693495 45.081309 
L 192.718353 44.027937 
L 192.924138 44.027937 
L 192.924138 43.501251 
L 193.262292 43.501251 
L 193.262292 42.974565 
L 193.442848 42.974565 
L 193.540421 41.921193 
L 193.669733 41.921193 
L 193.780219 39.287762 
L 193.984418 39.287762 
L 194.064736 37.707704 
L 194.124385 37.707704 
L 194.138615 36.654332 
L 194.398944 36.654332 
L 194.398944 36.127646 
L 194.680349 36.127646 
L 194.765901 34.547588 
L 194.999605 34.547588 
L 194.999605 34.020902 
L 195.410636 34.020902 
L 195.410636 33.494215 
L 195.547334 33.494215 
L 195.568922 32.440843 
L 195.667404 32.440843 
L 195.71723 30.860785 
L 196.943419 30.860785 
L 196.943419 30.334099 
L 338.688 30.334099 
L 338.688 30.334099 
" style="fill:none;stroke:#000080;stroke-linecap:square;stroke-width:1.5;"/>
   </g>
   <g id="line2d_36">
    <defs>
     <path d="M 0 6 
C 1.591219 6 3.117479 5.367802 4.242641 4.242641 
C 5.367802 3.117479 6 1.591219 6 0 
C 6 -1.591219 5.367802 -3.117479 4.242641 -4.242641 
C 3.117479 -5.367802 1.591219 -6 0 -6 
C -1.591219 -6 -3.117479 -5.367802 -4.242641 -4.242641 
C -5.367802 -3.117479 -6 -1.591219 -6 0 
C -6 1.591219 -5.367802 3.117479 -4.242641 4.242641 
C -3.117479 5.367802 -1.591219 6 0 6 
z
" id="m556a2be5bf" style="stroke:#000080;stroke-width:1.5;"/>
    </defs>
    <g>
     <use style="fill-opacity:0;stroke:#000080;stroke-width:1.5;" x="119.837798" xlink:href="#m556a2be5bf" y="243.641962"/>
     <use style="fill-opacity:0;stroke:#000080;stroke-width:1.5;" x="177.172685" xlink:href="#m556a2be5bf" y="107.230267"/>
     <use style="fill-opacity:0;stroke:#000080;stroke-width:1.5;" x="196.943419" xlink:href="#m556a2be5bf" y="30.860785"/>
     <use style="fill-opacity:0;stroke:#000080;stroke-width:1.5;" x="196.943419" xlink:href="#m556a2be5bf" y="30.334099"/>
     <use style="fill-opacity:0;stroke:#000080;stroke-width:1.5;" x="338.688" xlink:href="#m556a2be5bf" y="30.334099"/>
    </g>
   </g>
   <g id="line2d_37">
    <path style="fill:none;stroke:#000080;stroke-linecap:square;stroke-width:1.5;"/>
    <g/>
   </g>
   <g id="line2d_38">
    <defs>
     <path d="M 0 1.5 
C 0.397805 1.5 0.77937 1.341951 1.06066 1.06066 
C 1.341951 0.77937 1.5 0.397805 1.5 0 
C 1.5 -0.397805 1.341951 -0.77937 1.06066 -1.06066 
C 0.77937 -1.341951 0.397805 -1.5 0 -1.5 
C -0.397805 -1.5 -0.77937 -1.341951 -1.06066 -1.06066 
C -1.341951 -0.77937 -1.5 -0.397805 -1.5 0 
C -1.5 0.397805 -1.341951 0.77937 -1.06066 1.06066 
C -0.77937 1.341951 -0.397805 1.5 0 1.5 
z
" id="m6e796c51a9" style="stroke:#ff00ff;"/>
    </defs>
    <g>
     <use style="fill:#ff00ff;stroke:#ff00ff;" x="198.068822" xlink:href="#m6e796c51a9" y="30.334099"/>
     <use style="fill:#ff00ff;stroke:#ff00ff;" x="198.068822" xlink:href="#m6e796c51a9" y="30.334099"/>
    </g>
   </g>
   <g id="line2d_39">
    <path d="M -1 295.257197 
L 12.427603 295.257197 
L 12.427603 294.203825 
L 21.336035 294.203825 
L 21.336035 293.677139 
L 29.53256 293.677139 
L 29.53256 293.150453 
L 43.6746 293.150453 
L 43.6746 292.623767 
L 44.617493 292.623767 
L 44.617493 292.097081 
L 56.240407 292.097081 
L 56.240407 291.570395 
L 71.547186 291.570395 
L 71.547186 291.043709 
L 71.934741 291.043709 
L 71.934741 290.517023 
L 75.082329 290.517023 
L 75.082329 289.990337 
L 75.241593 289.990337 
L 75.241593 289.463651 
L 76.016799 289.463651 
L 76.016799 288.936964 
L 77.047268 288.936964 
L 77.047268 287.883592 
L 78.552767 287.883592 
L 78.552767 287.356906 
L 78.81306 287.356906 
L 78.81306 286.83022 
L 83.732873 286.83022 
L 83.732873 286.303534 
L 86.765675 286.303534 
L 86.765675 285.776848 
L 88.104788 285.776848 
L 88.104788 285.250162 
L 88.774181 285.250162 
L 88.774181 284.723476 
L 89.063637 284.723476 
L 89.063637 284.19679 
L 89.418828 284.19679 
L 89.418828 283.670104 
L 89.558903 283.670104 
L 89.558903 283.143418 
L 89.972502 283.143418 
L 89.972502 282.616732 
L 91.472879 282.616732 
L 91.472879 282.090045 
L 91.72113 282.090045 
L 91.72113 281.563359 
L 92.147241 281.563359 
L 92.147241 281.036673 
L 93.478247 281.036673 
L 93.478247 280.509987 
L 95.624913 280.509987 
L 95.624913 279.983301 
L 96.86091 279.983301 
L 96.86091 279.456615 
L 98.100772 279.456615 
L 98.100772 278.929929 
L 98.228533 278.929929 
L 98.31319 277.876557 
L 99.137896 277.876557 
L 99.137896 277.349871 
L 99.258306 277.349871 
L 99.298258 276.296499 
L 101.115705 276.296499 
L 101.115705 275.769812 
L 102.530943 275.769812 
L 102.530943 275.243126 
L 103.403898 275.243126 
L 103.498249 274.189754 
L 103.529587 274.189754 
L 103.529587 273.663068 
L 104.768221 273.663068 
L 104.768221 273.136382 
L 104.971174 273.136382 
L 104.971174 272.609696 
L 105.086095 272.609696 
L 105.114708 271.556324 
L 105.815175 271.556324 
L 105.815175 271.029638 
L 105.979182 271.029638 
L 105.979182 270.502952 
L 106.435663 270.502952 
L 106.435663 269.976266 
L 107.238504 269.976266 
L 107.238504 269.449579 
L 108.764355 269.449579 
L 108.764355 268.922893 
L 108.925937 268.922893 
L 108.925937 268.396207 
L 109.513326 268.396207 
L 109.557701 265.762777 
L 109.865203 265.762777 
L 109.865203 265.236091 
L 110.210119 265.236091 
L 110.210119 264.709405 
L 111.83924 264.709405 
L 111.83924 264.182719 
L 112.128456 264.182719 
L 112.147567 262.60266 
L 112.450537 262.60266 
L 112.450537 262.075974 
L 112.748334 262.075974 
L 112.748334 261.549288 
L 113.04113 261.549288 
L 113.04113 261.022602 
L 113.167699 261.022602 
L 113.167699 260.495916 
L 113.612376 260.495916 
L 113.612376 259.442544 
L 113.891132 259.442544 
L 113.891132 258.915858 
L 114.165502 258.915858 
L 114.165502 258.389172 
L 114.701622 258.389172 
L 114.701622 257.862486 
L 115.221751 257.862486 
L 115.221751 257.3358 
L 115.726815 257.3358 
L 115.726815 255.755741 
L 115.973966 255.755741 
L 115.973966 254.702369 
L 116.323218 254.702369 
L 116.323218 254.175683 
L 116.458001 254.175683 
L 116.458001 253.648997 
L 116.695072 253.648997 
L 116.695072 253.122311 
L 116.928964 253.122311 
L 117.015871 252.068939 
L 117.15976 252.068939 
L 117.15976 251.542253 
L 117.387541 251.542253 
L 117.387541 251.015567 
L 117.834369 251.015567 
L 117.834369 250.488881 
L 118.053562 250.488881 
L 118.053562 248.908822 
L 118.510395 248.908822 
L 118.510395 248.382136 
L 118.642511 248.382136 
L 118.695079 245.748706 
L 118.903779 245.748706 
L 118.903779 244.695334 
L 119.122819 244.695334 
L 119.122819 244.168648 
L 119.515299 244.168648 
L 119.515299 243.641962 
L 119.911382 243.641962 
L 119.911382 243.115275 
L 120.1061 243.115275 
L 120.1061 242.588589 
L 120.677541 242.588589 
L 120.677541 241.008531 
L 120.863934 241.008531 
L 120.863934 240.481845 
L 121.411452 240.481845 
L 121.411452 239.955159 
L 121.590203 239.955159 
L 121.590203 238.375101 
L 121.767141 238.375101 
L 121.767141 237.848415 
L 122.11572 237.848415 
L 122.11572 237.321729 
L 122.457469 237.321729 
L 122.541869 235.74167 
L 122.625864 235.74167 
L 122.625864 235.214984 
L 122.957853 235.214984 
L 122.957853 234.688298 
L 123.414272 234.688298 
L 123.444279 233.10824 
L 123.603452 233.10824 
L 123.603452 231.528182 
L 123.790603 231.528182 
L 123.790603 231.001496 
L 123.917505 231.001496 
L 123.917505 229.948123 
L 124.072436 229.948123 
L 124.072436 229.421437 
L 124.321299 229.421437 
L 124.378229 228.368065 
L 124.529137 228.368065 
L 124.529137 227.841379 
L 124.974183 227.841379 
L 124.974183 226.788007 
L 125.120043 226.788007 
L 125.120043 224.681263 
L 125.408153 224.681263 
L 125.408153 223.101204 
L 125.691581 223.101204 
L 125.691581 222.574518 
L 126.108269 222.574518 
L 126.108269 222.047832 
L 126.244981 222.047832 
L 126.244981 221.521146 
L 126.38063 221.521146 
L 126.38063 220.467774 
L 126.515232 220.467774 
L 126.515232 219.941088 
L 126.648803 219.941088 
L 126.648803 219.414402 
L 126.863697 219.414402 
L 126.863697 218.887716 
L 127.30173 218.887716 
L 127.30173 218.36103 
L 128.054283 218.36103 
L 128.054283 217.834344 
L 128.176611 217.834344 
L 128.176611 216.780971 
L 128.298087 216.780971 
L 128.298087 216.254285 
L 128.418722 216.254285 
L 128.418722 215.200913 
L 128.775701 215.200913 
L 128.775701 214.147541 
L 129.00969 214.147541 
L 129.00969 213.620855 
L 129.404667 213.620855 
L 129.404667 213.094169 
L 129.581287 213.094169 
L 129.581287 210.987425 
L 130.134742 210.987425 
L 130.134742 210.460738 
L 130.458575 210.460738 
L 130.458575 209.934052 
L 130.671171 209.934052 
L 130.671171 209.407366 
L 131.185181 209.407366 
L 131.293837 208.353994 
L 131.634557 208.353994 
L 131.634557 207.827308 
L 132.254495 207.827308 
L 132.290639 206.773936 
L 132.416555 206.773936 
L 132.476197 205.193878 
L 133.130612 205.193878 
L 133.130612 204.667192 
L 133.267705 204.667192 
L 133.313164 203.087133 
L 134.182126 203.087133 
L 134.182126 202.560447 
L 134.37008 202.560447 
L 134.37008 202.033761 
L 134.854682 202.033761 
L 134.854682 201.507075 
L 135.411927 201.507075 
L 135.447112 200.453703 
L 135.814792 200.453703 
L 135.922624 198.873645 
L 136.232577 198.873645 
L 136.232577 198.346959 
L 136.61243 198.346959 
L 136.61243 197.820273 
L 136.762084 197.820273 
L 136.762084 197.293586 
L 136.901228 197.293586 
L 136.901228 196.7669 
L 137.854087 196.7669 
L 137.854087 196.240214 
L 138.337225 196.240214 
L 138.409402 195.186842 
L 139.041811 195.186842 
L 139.041811 194.660156 
L 139.257039 194.660156 
L 139.257039 194.13347 
L 139.397728 194.13347 
L 139.405733 193.080098 
L 139.703305 193.080098 
L 139.703305 192.553412 
L 139.895012 192.553412 
L 139.895012 192.026726 
L 140.29885 192.026726 
L 140.325443 190.973354 
L 140.472866 190.973354 
L 140.472866 190.446667 
L 140.860008 190.446667 
L 140.860008 189.919981 
L 141.439319 189.919981 
L 141.439319 189.393295 
L 141.871938 189.393295 
L 141.903176 188.339923 
L 142.290693 188.339923 
L 142.382025 187.286551 
L 142.985498 187.286551 
L 142.985498 186.759865 
L 143.150923 186.759865 
L 143.228231 185.706493 
L 143.317992 185.706493 
L 143.317992 185.179807 
L 143.759996 185.179807 
L 143.788031 184.126434 
L 144.525441 184.126434 
L 144.608783 183.073062 
L 145.332919 183.073062 
L 145.332919 182.546376 
L 145.785621 182.546376 
L 145.852109 181.493004 
L 146.237689 181.493004 
L 146.237689 180.966318 
L 146.84891 180.966318 
L 146.84891 180.439632 
L 147.025591 180.439632 
L 147.025591 179.912946 
L 147.138967 179.912946 
L 147.182575 178.859574 
L 147.345775 178.859574 
L 147.406583 177.806202 
L 148.047221 177.806202 
L 148.144471 176.226143 
L 148.286932 176.226143 
L 148.344551 175.172771 
L 148.509152 175.172771 
L 148.509152 174.646085 
L 149.422654 174.646085 
L 149.433916 173.592713 
L 149.72642 173.592713 
L 149.72642 173.066027 
L 150.061949 173.066027 
L 150.061949 172.012655 
L 150.226247 172.012655 
L 150.226247 171.485969 
L 150.617727 171.485969 
L 150.626141 170.432596 
L 151.049939 170.432596 
L 151.049939 169.90591 
L 151.533692 169.90591 
L 151.533692 169.379224 
L 151.694644 169.379224 
L 151.73021 167.799166 
L 152.708908 167.799166 
L 152.708908 167.27248 
L 152.975586 167.27248 
L 152.975586 166.745794 
L 153.288864 166.745794 
L 153.344733 165.692422 
L 153.704466 165.692422 
L 153.727365 164.63905 
L 154.030998 164.63905 
L 154.119001 163.585677 
L 154.412564 163.585677 
L 154.412564 163.058991 
L 154.550798 163.058991 
L 154.611142 162.005619 
L 154.980355 162.005619 
L 154.980355 161.478933 
L 155.096285 161.478933 
L 155.096285 160.952247 
L 155.688263 160.952247 
L 155.688263 159.898875 
L 156.259282 159.898875 
L 156.259282 159.372189 
L 157.552868 159.372189 
L 157.620588 157.79213 
L 157.938715 157.79213 
L 158.032482 156.738758 
L 158.298611 156.738758 
L 158.298611 156.212072 
L 158.477822 156.212072 
L 158.488543 155.1587 
L 159.178088 155.1587 
L 159.246208 154.105328 
L 159.599222 154.105328 
L 159.599222 153.578642 
L 160.121795 153.578642 
L 160.157138 152.52527 
L 160.269998 152.52527 
L 160.269998 151.998584 
L 160.506683 151.998584 
L 160.506683 151.471897 
L 160.982243 151.471897 
L 161.033263 150.418525 
L 161.448571 150.418525 
L 161.448571 149.891839 
L 161.950055 149.891839 
L 161.950055 149.365153 
L 162.14016 149.365153 
L 162.14016 148.838467 
L 162.283008 148.838467 
L 162.283008 148.311781 
L 162.591733 148.311781 
L 162.61184 147.258409 
L 162.944964 147.258409 
L 162.944964 146.731723 
L 163.163564 146.731723 
L 163.163564 146.205037 
L 163.574705 146.205037 
L 163.578708 145.151665 
L 163.689421 145.151665 
L 163.689421 144.624978 
L 163.967572 144.624978 
L 163.967572 144.098292 
L 164.372829 144.098292 
L 164.372829 143.571606 
L 164.6902 143.571606 
L 164.735204 142.518234 
L 165.362406 142.518234 
L 165.362406 141.991548 
L 165.480339 141.991548 
L 165.480339 141.464862 
L 165.698785 141.464862 
L 165.698785 140.938176 
L 166.007048 140.938176 
L 166.064409 139.884804 
L 166.404665 139.884804 
L 166.404665 139.358118 
L 166.542813 139.358118 
L 166.542813 138.831432 
L 166.788423 138.831432 
L 166.828332 137.778059 
L 167.048673 137.778059 
L 167.048673 137.251373 
L 167.821027 137.251373 
L 167.893055 136.198001 
L 167.965564 136.198001 
L 168.044746 134.617943 
L 168.836647 134.617943 
L 168.893545 133.564571 
L 168.962755 133.564571 
L 169.056558 132.511199 
L 169.210818 132.511199 
L 169.24411 131.457826 
L 169.615393 131.457826 
L 169.681097 130.404454 
L 169.752875 130.404454 
L 169.752875 129.877768 
L 170.14246 129.877768 
L 170.14246 129.351082 
L 170.401491 129.351082 
L 170.401491 128.824396 
L 170.656731 128.824396 
L 170.656731 128.29771 
L 170.871444 128.29771 
L 170.939152 127.244338 
L 171.000715 127.244338 
L 171.020317 126.190966 
L 171.488725 126.190966 
L 171.488725 125.66428 
L 171.609729 125.66428 
L 171.609729 125.137593 
L 172.222589 125.137593 
L 172.299221 124.084221 
L 172.421377 124.084221 
L 172.480334 123.030849 
L 172.971247 123.030849 
L 173.02081 121.977477 
L 173.146127 121.977477 
L 173.216512 120.924105 
L 173.463484 120.924105 
L 173.526947 119.870733 
L 173.757875 119.870733 
L 173.757875 119.344047 
L 174.25909 119.344047 
L 174.25909 118.817361 
L 174.716742 118.817361 
L 174.804746 117.237302 
L 174.917917 117.237302 
L 174.951309 115.130558 
L 175.718151 115.130558 
L 175.718151 114.603872 
L 175.948574 114.603872 
L 175.948574 114.077186 
L 176.41918 114.077186 
L 176.513798 113.023814 
L 176.583239 113.023814 
L 176.583239 112.497128 
L 176.766919 112.497128 
L 176.864345 111.443755 
L 177.157535 111.443755 
L 177.157535 110.917069 
L 177.299341 110.917069 
L 177.299341 110.390383 
L 177.463487 110.390383 
L 177.499105 109.337011 
L 177.961773 109.337011 
L 177.961773 108.810325 
L 178.156301 108.810325 
L 178.179274 107.756953 
L 178.530477 107.756953 
L 178.573726 106.703581 
L 179.010326 106.703581 
L 179.06517 105.123522 
L 179.141991 105.123522 
L 179.14527 104.07015 
L 179.315741 104.07015 
L 179.315741 103.543464 
L 179.498623 103.543464 
L 179.498623 103.016778 
L 180.009147 103.016778 
L 180.009147 102.490092 
L 180.177985 102.490092 
L 180.177985 101.963406 
L 180.318787 101.963406 
L 180.318787 101.43672 
L 180.600795 101.43672 
L 180.600795 100.910034 
L 180.840798 100.910034 
L 180.840798 100.383348 
L 180.98264 100.383348 
L 181.00181 99.329976 
L 181.363523 99.329976 
L 181.373625 97.749917 
L 181.939253 97.749917 
L 182.024935 96.696545 
L 182.221862 96.696545 
L 182.221862 96.169859 
L 182.415571 96.169859 
L 182.415571 95.643173 
L 182.60984 95.643173 
L 182.60984 95.116487 
L 182.730044 95.116487 
L 182.743719 94.063115 
L 183.088703 94.063115 
L 183.115161 93.009743 
L 183.356963 93.009743 
L 183.444299 90.902998 
L 183.884222 90.902998 
L 183.901078 89.849626 
L 184.024817 89.849626 
L 184.098085 88.796254 
L 184.146453 88.796254 
L 184.18855 87.742882 
L 184.368083 87.742882 
L 184.392367 86.68951 
L 184.567722 86.68951 
L 184.637553 85.636137 
L 184.790026 85.636137 
L 184.790026 85.109451 
L 185.077036 85.109451 
L 185.077036 84.582765 
L 185.322627 84.582765 
L 185.36858 83.529393 
L 185.542104 83.529393 
L 185.542104 83.002707 
L 185.68662 83.002707 
L 185.68662 82.476021 
L 186.079006 82.476021 
L 186.109821 81.422649 
L 186.324014 81.422649 
L 186.326186 80.369277 
L 186.668159 80.369277 
L 186.773268 78.262532 
L 186.957269 78.262532 
L 186.957269 77.735846 
L 187.25763 77.735846 
L 187.25763 77.20916 
L 187.381759 77.20916 
L 187.459274 76.155788 
L 187.785926 76.155788 
L 187.785926 75.629102 
L 188.183867 75.629102 
L 188.25037 73.522358 
L 188.380207 73.522358 
L 188.402155 72.468985 
L 188.656269 72.468985 
L 188.656269 71.942299 
L 188.878611 71.942299 
L 188.960039 70.362241 
L 189.076603 70.362241 
L 189.076603 69.835555 
L 189.204597 69.835555 
L 189.204597 69.308869 
L 189.456214 69.308869 
L 189.456214 68.782183 
L 189.795724 68.782183 
L 189.890261 67.728811 
L 189.940427 67.728811 
L 189.959175 66.675439 
L 190.13879 66.675439 
L 190.213684 64.568694 
L 190.300369 64.568694 
L 190.375004 61.935264 
L 190.428734 61.935264 
L 190.428734 61.408578 
L 190.824416 61.408578 
L 190.908541 60.355206 
L 191.084887 60.355206 
L 191.084887 59.82852 
L 191.233053 59.82852 
L 191.233053 59.301833 
L 191.545399 59.301833 
L 191.625324 58.248461 
L 191.66275 58.248461 
L 191.679736 56.141717 
L 191.903592 56.141717 
L 191.903592 55.615031 
L 192.068446 55.615031 
L 192.088748 54.034973 
L 192.204256 54.034973 
L 192.30764 52.9816 
L 192.512778 52.9816 
L 192.591812 51.928228 
L 192.896033 51.928228 
L 192.949041 50.874856 
L 193.023538 50.874856 
L 193.132301 48.768112 
L 193.25609 48.768112 
L 193.25609 48.241426 
L 193.397839 48.241426 
L 193.461072 47.188054 
L 193.673653 47.188054 
L 193.769414 45.607995 
L 193.812769 45.607995 
L 193.843671 44.554623 
L 194.048702 44.554623 
L 194.053235 43.501251 
L 194.35017 43.501251 
L 194.388516 41.921193 
L 194.554617 41.921193 
L 194.65999 40.867821 
L 194.794158 40.867821 
L 194.882313 38.761076 
L 194.905569 38.761076 
L 194.905569 38.23439 
L 195.091001 38.23439 
L 195.185352 36.654332 
L 195.264077 36.654332 
L 195.316688 35.074274 
L 195.804162 35.074274 
L 195.842118 34.020902 
L 196.423386 34.020902 
L 196.423386 33.494215 
L 196.535325 33.494215 
L 196.535325 32.967529 
L 196.67267 32.967529 
L 196.67582 31.914157 
L 196.792264 31.914157 
L 196.816828 30.860785 
L 198.068822 30.860785 
L 198.068822 30.334099 
L 338.688 30.334099 
L 338.688 30.334099 
" style="fill:none;stroke:#ff00ff;stroke-linecap:square;stroke-width:1.5;"/>
   </g>
   <g id="line2d_40">
    <defs>
     <path d="M -0 8.485281 
L 5.091169 0 
L 0 -8.485281 
L -5.091169 -0 
z
" id="m46a8162edb" style="stroke:#ff00ff;stroke-linejoin:miter;stroke-width:1.5;"/>
    </defs>
    <g>
     <use style="fill-opacity:0;stroke:#ff00ff;stroke-linejoin:miter;stroke-width:1.5;" x="125.408153" xlink:href="#m46a8162edb" y="223.101204"/>
     <use style="fill-opacity:0;stroke:#ff00ff;stroke-linejoin:miter;stroke-width:1.5;" x="172.971247" xlink:href="#m46a8162edb" y="122.504163"/>
     <use style="fill-opacity:0;stroke:#ff00ff;stroke-linejoin:miter;stroke-width:1.5;" x="198.068822" xlink:href="#m46a8162edb" y="30.860785"/>
     <use style="fill-opacity:0;stroke:#ff00ff;stroke-linejoin:miter;stroke-width:1.5;" x="198.068822" xlink:href="#m46a8162edb" y="30.334099"/>
     <use style="fill-opacity:0;stroke:#ff00ff;stroke-linejoin:miter;stroke-width:1.5;" x="198.068822" xlink:href="#m46a8162edb" y="30.334099"/>
     <use style="fill-opacity:0;stroke:#ff00ff;stroke-linejoin:miter;stroke-width:1.5;" x="338.688" xlink:href="#m46a8162edb" y="30.334099"/>
    </g>
   </g>
   <g id="line2d_41">
    <path style="fill:none;stroke:#ff00ff;stroke-linecap:square;stroke-width:1.5;"/>
    <g/>
   </g>
   <g id="line2d_42">
    <path d="M 338.688 30.334099 
L 369.60768 293.571802 
" style="fill:none;stroke:#ff00ff;stroke-linecap:square;stroke-width:1.5;"/>
    <g>
     <use style="fill-opacity:0;stroke:#ff00ff;stroke-linejoin:miter;stroke-width:1.5;" x="338.688" xlink:href="#m46a8162edb" y="30.334099"/>
     <use style="fill-opacity:0;stroke:#ff00ff;stroke-linejoin:miter;stroke-width:1.5;" x="369.60768" xlink:href="#m46a8162edb" y="293.571802"/>
    </g>
   </g>
   <g id="line2d_43">
    <path d="M 338.688 30.334099 
L 369.60768 164.63905 
" style="fill:none;stroke:#000080;stroke-linecap:square;stroke-width:1.5;"/>
    <g>
     <use style="fill-opacity:0;stroke:#000080;stroke-width:1.5;" x="338.688" xlink:href="#m556a2be5bf" y="30.334099"/>
     <use style="fill-opacity:0;stroke:#000080;stroke-width:1.5;" x="369.60768" xlink:href="#m556a2be5bf" y="164.63905"/>
    </g>
   </g>
   <g id="line2d_44">
    <path d="M 338.688 298.944 
L 338.688 30.334099 
" style="fill:none;stroke:#000000;stroke-linecap:square;stroke-width:1.5;"/>
   </g>
   <g id="patch_3">
    <path d="M 57.6 298.944 
L 57.6 27.648 
" style="fill:none;stroke:#000000;stroke-linecap:square;stroke-linejoin:miter;stroke-width:0.8;"/>
   </g>
   <g id="patch_4">
    <path d="M 338.688 298.944 
L 338.688 27.648 
" style="fill:none;stroke:#000000;stroke-linecap:square;stroke-linejoin:miter;stroke-width:0.8;"/>
   </g>
   <g id="patch_5">
    <path d="M 57.6 298.944 
L 338.688 298.944 
" style="fill:none;stroke:#000000;stroke-linecap:square;stroke-linejoin:miter;stroke-width:0.8;"/>
   </g>
   <g id="patch_6">
    <path d="M 57.6 27.648 
L 338.688 27.648 
" style="fill:none;stroke:#000000;stroke-linecap:square;stroke-linejoin:miter;stroke-width:0.8;"/>
   </g>
   <g id="text_13">
    <!-- maes mid -->
    <g transform="translate(375.22944 298.262739)scale(0.17 -0.17)">
     <use xlink:href="#DejaVuSans-109"/>
     <use x="97.412109" xlink:href="#DejaVuSans-97"/>
     <use x="158.691406" xlink:href="#DejaVuSans-101"/>
     <use x="220.214844" xlink:href="#DejaVuSans-115"/>
     <use x="272.314453" xlink:href="#DejaVuSans-32"/>
     <use x="304.101562" xlink:href="#DejaVuSans-109"/>
     <use x="401.513672" xlink:href="#DejaVuSans-105"/>
     <use x="429.296875" xlink:href="#DejaVuSans-100"/>
    </g>
   </g>
   <g id="text_14">
    <!-- maes -->
    <g transform="translate(375.22944 169.329987)scale(0.17 -0.17)">
     <use xlink:href="#DejaVuSans-109"/>
     <use x="97.412109" xlink:href="#DejaVuSans-97"/>
     <use x="158.691406" xlink:href="#DejaVuSans-101"/>
     <use x="220.214844" xlink:href="#DejaVuSans-115"/>
    </g>
   </g>
   <g id="text_15">
    <!-- best 2009 -->
    <g transform="translate(375.22944 40.397235)scale(0.17 -0.17)">
     <defs>
      <path d="M 48.6875 27.296875 
Q 48.6875 37.203125 44.609375 42.84375 
Q 40.53125 48.484375 33.40625 48.484375 
Q 26.265625 48.484375 22.1875 42.84375 
Q 18.109375 37.203125 18.109375 27.296875 
Q 18.109375 17.390625 22.1875 11.75 
Q 26.265625 6.109375 33.40625 6.109375 
Q 40.53125 6.109375 44.609375 11.75 
Q 48.6875 17.390625 48.6875 27.296875 
z
M 18.109375 46.390625 
Q 20.953125 51.265625 25.265625 53.625 
Q 29.59375 56 35.59375 56 
Q 45.5625 56 51.78125 48.09375 
Q 58.015625 40.1875 58.015625 27.296875 
Q 58.015625 14.40625 51.78125 6.484375 
Q 45.5625 -1.421875 35.59375 -1.421875 
Q 29.59375 -1.421875 25.265625 0.953125 
Q 20.953125 3.328125 18.109375 8.203125 
L 18.109375 0 
L 9.078125 0 
L 9.078125 75.984375 
L 18.109375 75.984375 
z
" id="DejaVuSans-98"/>
      <path d="M 10.984375 1.515625 
L 10.984375 10.5 
Q 14.703125 8.734375 18.5 7.8125 
Q 22.3125 6.890625 25.984375 6.890625 
Q 35.75 6.890625 40.890625 13.453125 
Q 46.046875 20.015625 46.78125 33.40625 
Q 43.953125 29.203125 39.59375 26.953125 
Q 35.25 24.703125 29.984375 24.703125 
Q 19.046875 24.703125 12.671875 31.3125 
Q 6.296875 37.9375 6.296875 49.421875 
Q 6.296875 60.640625 12.9375 67.421875 
Q 19.578125 74.21875 30.609375 74.21875 
Q 43.265625 74.21875 49.921875 64.515625 
Q 56.59375 54.828125 56.59375 36.375 
Q 56.59375 19.140625 48.40625 8.859375 
Q 40.234375 -1.421875 26.421875 -1.421875 
Q 22.703125 -1.421875 18.890625 -0.6875 
Q 15.09375 0.046875 10.984375 1.515625 
z
M 30.609375 32.421875 
Q 37.25 32.421875 41.125 36.953125 
Q 45.015625 41.5 45.015625 49.421875 
Q 45.015625 57.28125 41.125 61.84375 
Q 37.25 66.40625 30.609375 66.40625 
Q 23.96875 66.40625 20.09375 61.84375 
Q 16.21875 57.28125 16.21875 49.421875 
Q 16.21875 41.5 20.09375 36.953125 
Q 23.96875 32.421875 30.609375 32.421875 
z
" id="DejaVuSans-57"/>
     </defs>
     <use xlink:href="#DejaVuSans-98"/>
     <use x="63.476562" xlink:href="#DejaVuSans-101"/>
     <use x="125" xlink:href="#DejaVuSans-115"/>
     <use x="177.099609" xlink:href="#DejaVuSans-116"/>
     <use x="216.308594" xlink:href="#DejaVuSans-32"/>
     <use x="248.095703" xlink:href="#DejaVuSans-50"/>
     <use x="311.71875" xlink:href="#DejaVuSans-48"/>
     <use x="375.341797" xlink:href="#DejaVuSans-48"/>
     <use x="438.964844" xlink:href="#DejaVuSans-57"/>
    </g>
   </g>
   <g id="text_16">
    <!-- bbob f14, 40-D -->
    <g transform="translate(60.41088 38.111366)scale(0.102 -0.102)">
     <defs>
      <path d="M 19.671875 64.796875 
L 19.671875 8.109375 
L 31.59375 8.109375 
Q 46.6875 8.109375 53.6875 14.9375 
Q 60.6875 21.78125 60.6875 36.53125 
Q 60.6875 51.171875 53.6875 57.984375 
Q 46.6875 64.796875 31.59375 64.796875 
z
M 9.8125 72.90625 
L 30.078125 72.90625 
Q 51.265625 72.90625 61.171875 64.09375 
Q 71.09375 55.28125 71.09375 36.53125 
Q 71.09375 17.671875 61.125 8.828125 
Q 51.171875 0 30.078125 0 
L 9.8125 0 
z
" id="DejaVuSans-68"/>
     </defs>
     <use xlink:href="#DejaVuSans-98"/>
     <use x="63.476562" xlink:href="#DejaVuSans-98"/>
     <use x="126.953125" xlink:href="#DejaVuSans-111"/>
     <use x="188.134766" xlink:href="#DejaVuSans-98"/>
     <use x="251.611328" xlink:href="#DejaVuSans-32"/>
     <use x="283.398438" xlink:href="#DejaVuSans-102"/>
     <use x="318.603516" xlink:href="#DejaVuSans-49"/>
     <use x="382.226562" xlink:href="#DejaVuSans-52"/>
     <use x="445.849609" xlink:href="#DejaVuSans-44"/>
     <use x="477.636719" xlink:href="#DejaVuSans-32"/>
     <use x="509.423828" xlink:href="#DejaVuSans-52"/>
     <use x="573.046875" xlink:href="#DejaVuSans-48"/>
     <use x="636.669922" xlink:href="#DejaVuSans-45"/>
     <use x="672.753906" xlink:href="#DejaVuSans-68"/>
    </g>
    <!-- 51 targets: 100..1e-08 -->
    <g transform="translate(60.41088 49.533135)scale(0.102 -0.102)">
     <defs>
      <path d="M 10.796875 72.90625 
L 49.515625 72.90625 
L 49.515625 64.59375 
L 19.828125 64.59375 
L 19.828125 46.734375 
Q 21.96875 47.46875 24.109375 47.828125 
Q 26.265625 48.1875 28.421875 48.1875 
Q 40.625 48.1875 47.75 41.5 
Q 54.890625 34.8125 54.890625 23.390625 
Q 54.890625 11.625 47.5625 5.09375 
Q 40.234375 -1.421875 26.90625 -1.421875 
Q 22.3125 -1.421875 17.546875 -0.640625 
Q 12.796875 0.140625 7.71875 1.703125 
L 7.71875 11.625 
Q 12.109375 9.234375 16.796875 8.0625 
Q 21.484375 6.890625 26.703125 6.890625 
Q 35.15625 6.890625 40.078125 11.328125 
Q 45.015625 15.765625 45.015625 23.390625 
Q 45.015625 31 40.078125 35.4375 
Q 35.15625 39.890625 26.703125 39.890625 
Q 22.75 39.890625 18.8125 39.015625 
Q 14.890625 38.140625 10.796875 36.28125 
z
" id="DejaVuSans-53"/>
      <path d="M 11.71875 12.40625 
L 22.015625 12.40625 
L 22.015625 0 
L 11.71875 0 
z
M 11.71875 51.703125 
L 22.015625 51.703125 
L 22.015625 39.3125 
L 11.71875 39.3125 
z
" id="DejaVuSans-58"/>
     </defs>
     <use xlink:href="#DejaVuSans-53"/>
     <use x="63.623047" xlink:href="#DejaVuSans-49"/>
     <use x="127.246094" xlink:href="#DejaVuSans-32"/>
     <use x="159.033203" xlink:href="#DejaVuSans-116"/>
     <use x="198.242188" xlink:href="#DejaVuSans-97"/>
     <use x="259.521484" xlink:href="#DejaVuSans-114"/>
     <use x="298.884766" xlink:href="#DejaVuSans-103"/>
     <use x="362.361328" xlink:href="#DejaVuSans-101"/>
     <use x="423.884766" xlink:href="#DejaVuSans-116"/>
     <use x="463.09375" xlink:href="#DejaVuSans-115"/>
     <use x="515.193359" xlink:href="#DejaVuSans-58"/>
     <use x="548.884766" xlink:href="#DejaVuSans-32"/>
     <use x="580.671875" xlink:href="#DejaVuSans-49"/>
     <use x="644.294922" xlink:href="#DejaVuSans-48"/>
     <use x="707.917969" xlink:href="#DejaVuSans-48"/>
     <use x="771.541016" xlink:href="#DejaVuSans-46"/>
     <use x="803.328125" xlink:href="#DejaVuSans-46"/>
     <use x="835.115234" xlink:href="#DejaVuSans-49"/>
     <use x="898.738281" xlink:href="#DejaVuSans-101"/>
     <use x="960.261719" xlink:href="#DejaVuSans-45"/>
     <use x="996.345703" xlink:href="#DejaVuSans-48"/>
     <use x="1059.96875" xlink:href="#DejaVuSans-56"/>
    </g>
    <!-- 15 instances -->
    <g transform="translate(60.41088 60.954904)scale(0.102 -0.102)">
     <use xlink:href="#DejaVuSans-49"/>
     <use x="63.623047" xlink:href="#DejaVuSans-53"/>
     <use x="127.246094" xlink:href="#DejaVuSans-32"/>
     <use x="159.033203" xlink:href="#DejaVuSans-105"/>
     <use x="186.816406" xlink:href="#DejaVuSans-110"/>
     <use x="250.195312" xlink:href="#DejaVuSans-115"/>
     <use x="302.294922" xlink:href="#DejaVuSans-116"/>
     <use x="341.503906" xlink:href="#DejaVuSans-97"/>
     <use x="402.783203" xlink:href="#DejaVuSans-110"/>
     <use x="466.162109" xlink:href="#DejaVuSans-99"/>
     <use x="521.142578" xlink:href="#DejaVuSans-101"/>
     <use x="582.666016" xlink:href="#DejaVuSans-115"/>
    </g>
   </g>
   <g id="text_17">
    <!-- v2.4 -->
    <g style="fill:#808080;" transform="translate(187.233062 294.151352)scale(0.1 -0.1)">
     <use xlink:href="#DejaVuSans-118"/>
     <use x="59.179688" xlink:href="#DejaVuSans-50"/>
     <use x="122.802734" xlink:href="#DejaVuSans-46"/>
     <use x="154.589844" xlink:href="#DejaVuSans-52"/>
    </g>
   </g>
   <g id="text_18">
    <!-- 14 Sum of different powers -->
    <g transform="translate(61.904937 21.648)scale(0.2 -0.2)">
     <defs>
      <path d="M 53.515625 70.515625 
L 53.515625 60.890625 
Q 47.90625 63.578125 42.921875 64.890625 
Q 37.9375 66.21875 33.296875 66.21875 
Q 25.25 66.21875 20.875 63.09375 
Q 16.5 59.96875 16.5 54.203125 
Q 16.5 49.359375 19.40625 46.890625 
Q 22.3125 44.4375 30.421875 42.921875 
L 36.375 41.703125 
Q 47.40625 39.59375 52.65625 34.296875 
Q 57.90625 29 57.90625 20.125 
Q 57.90625 9.515625 50.796875 4.046875 
Q 43.703125 -1.421875 29.984375 -1.421875 
Q 24.8125 -1.421875 18.96875 -0.25 
Q 13.140625 0.921875 6.890625 3.21875 
L 6.890625 13.375 
Q 12.890625 10.015625 18.65625 8.296875 
Q 24.421875 6.59375 29.984375 6.59375 
Q 38.421875 6.59375 43.015625 9.90625 
Q 47.609375 13.234375 47.609375 19.390625 
Q 47.609375 24.75 44.3125 27.78125 
Q 41.015625 30.8125 33.5 32.328125 
L 27.484375 33.5 
Q 16.453125 35.6875 11.515625 40.375 
Q 6.59375 45.0625 6.59375 53.421875 
Q 6.59375 63.09375 13.40625 68.65625 
Q 20.21875 74.21875 32.171875 74.21875 
Q 37.3125 74.21875 42.625 73.28125 
Q 47.953125 72.359375 53.515625 70.515625 
z
" id="DejaVuSans-83"/>
      <path d="M 4.203125 54.6875 
L 13.1875 54.6875 
L 24.421875 12.015625 
L 35.59375 54.6875 
L 46.1875 54.6875 
L 57.421875 12.015625 
L 68.609375 54.6875 
L 77.59375 54.6875 
L 63.28125 0 
L 52.6875 0 
L 40.921875 44.828125 
L 29.109375 0 
L 18.5 0 
z
" id="DejaVuSans-119"/>
     </defs>
     <use xlink:href="#DejaVuSans-49"/>
     <use x="63.623047" xlink:href="#DejaVuSans-52"/>
     <use x="127.246094" xlink:href="#DejaVuSans-32"/>
     <use x="159.033203" xlink:href="#DejaVuSans-83"/>
     <use x="222.509766" xlink:href="#DejaVuSans-117"/>
     <use x="285.888672" xlink:href="#DejaVuSans-109"/>
     <use x="383.300781" xlink:href="#DejaVuSans-32"/>
     <use x="415.087891" xlink:href="#DejaVuSans-111"/>
     <use x="476.269531" xlink:href="#DejaVuSans-102"/>
     <use x="511.474609" xlink:href="#DejaVuSans-32"/>
     <use x="543.261719" xlink:href="#DejaVuSans-100"/>
     <use x="606.738281" xlink:href="#DejaVuSans-105"/>
     <use x="634.521484" xlink:href="#DejaVuSans-102"/>
     <use x="669.726562" xlink:href="#DejaVuSans-102"/>
     <use x="704.931641" xlink:href="#DejaVuSans-101"/>
     <use x="766.455078" xlink:href="#DejaVuSans-114"/>
     <use x="805.318359" xlink:href="#DejaVuSans-101"/>
     <use x="866.841797" xlink:href="#DejaVuSans-110"/>
     <use x="930.220703" xlink:href="#DejaVuSans-116"/>
     <use x="969.429688" xlink:href="#DejaVuSans-32"/>
     <use x="1001.216797" xlink:href="#DejaVuSans-112"/>
     <use x="1064.693359" xlink:href="#DejaVuSans-111"/>
     <use x="1125.875" xlink:href="#DejaVuSans-119"/>
     <use x="1207.662109" xlink:href="#DejaVuSans-101"/>
     <use x="1269.185547" xlink:href="#DejaVuSans-114"/>
     <use x="1310.298828" xlink:href="#DejaVuSans-115"/>
    </g>
   </g>
  </g>
 </g>
 <defs>
  <clipPath id="p07d5b7560f">
   <rect height="271.296" width="281.088" x="57.6" y="27.648"/>
  </clipPath>
 </defs>
</svg>
