<?xml version="1.0" encoding="utf-8" standalone="no"?>
<!DOCTYPE svg PUBLIC "-//W3C//DTD SVG 1.1//EN"
  "http://www.w3.org/Graphics/SVG/1.1/DTD/svg11.dtd">
<!-- Created with matplotlib (https://matplotlib.org/) -->
<svg height="345.6pt" version="1.1" viewBox="0 0 460.8 345.6" width="460.8pt" xmlns="http://www.w3.org/2000/svg" xmlns:xlink="http://www.w3.org/1999/xlink">
 <metadata>
  <rdf:RDF xmlns:cc="http://creativecommons.org/ns#" xmlns:dc="http://purl.org/dc/elements/1.1/" xmlns:rdf="http://www.w3.org/1999/02/22-rdf-syntax-ns#">
   <cc:Work>
    <dc:type rdf:resource="http://purl.org/dc/dcmitype/StillImage"/>
    <dc:date>2021-06-17T01:40:24.839821</dc:date>
    <dc:format>image/svg+xml</dc:format>
    <dc:creator>
     <cc:Agent>
      <dc:title>Matplotlib v3.3.4, https://matplotlib.org/</dc:title>
     </cc:Agent>
    </dc:creator>
   </cc:Work>
  </rdf:RDF>
 </metadata>
 <defs>
  <style type="text/css">*{stroke-linecap:butt;stroke-linejoin:round;}</style>
 </defs>
 <g id="figure_1">
  <g id="patch_1">
   <path d="M 0 345.6 
L 460.8 345.6 
L 460.8 0 
L 0 0 
z
" style="fill:#ffffff;"/>
  </g>
  <g id="axes_1">
   <g id="patch_2">
    <path d="M 57.6 298.944 
L 338.688 298.944 
L 338.688 27.648 
L 57.6 27.648 
z
" style="fill:#ffffff;"/>
   </g>
   <g id="line2d_1">
    <path d="M 107.860069 298.944 
L 107.860069 293.677139 
L 115.711251 293.677139 
L 115.711251 288.410278 
L 119.199476 288.410278 
L 119.199476 283.143418 
L 120.944859 283.143418 
L 120.944859 277.876557 
L 125.074593 277.876557 
L 125.074593 272.609696 
L 135.240011 272.609696 
L 135.240011 267.342835 
L 138.230536 267.342835 
L 138.230536 262.075974 
L 144.263915 262.075974 
L 144.263915 256.809114 
L 144.859373 256.809114 
L 144.859373 251.542253 
L 145.264418 251.542253 
L 145.264418 246.275392 
L 145.564956 246.275392 
L 145.564956 241.008531 
L 145.805039 241.008531 
L 145.805039 235.74167 
L 146.06373 235.74167 
L 146.06373 230.47481 
L 146.243097 230.47481 
L 146.243097 225.207949 
L 146.388493 225.207949 
L 146.388493 219.941088 
L 146.522046 219.941088 
L 146.522046 214.674227 
L 146.633446 214.674227 
L 146.633446 209.407366 
L 146.733626 209.407366 
L 146.733626 204.140506 
L 146.838461 204.140506 
L 146.838461 198.873645 
L 146.937474 198.873645 
L 146.937474 193.606784 
L 147.056585 193.606784 
L 147.056585 188.339923 
L 147.159502 188.339923 
L 147.159502 183.073062 
L 147.226074 183.073062 
L 147.226074 177.806202 
L 147.292393 177.806202 
L 147.292393 172.539341 
L 147.368603 172.539341 
L 147.368603 167.27248 
L 147.444481 167.27248 
L 147.444481 162.005619 
L 147.515004 162.005619 
L 147.515004 156.738758 
L 147.580235 156.738758 
L 147.580235 151.471897 
L 147.645223 151.471897 
L 147.645223 146.205037 
L 147.724877 146.205037 
L 147.724877 140.938176 
L 147.814056 140.938176 
L 147.814056 135.671315 
L 147.883103 135.671315 
L 147.883103 130.404454 
L 147.951877 130.404454 
L 147.951877 125.137593 
L 148.035027 125.137593 
L 148.035027 119.870733 
L 148.074019 119.870733 
L 148.074019 114.603872 
L 148.132344 114.603872 
L 148.132344 109.337011 
L 148.190475 109.337011 
L 148.190475 104.07015 
L 148.243592 104.07015 
L 148.243592 98.803289 
L 148.306159 98.803289 
L 148.306159 93.536429 
L 148.378074 93.536429 
L 148.378074 88.269568 
L 148.45922 88.269568 
L 148.45922 83.002707 
L 148.52102 83.002707 
L 148.52102 77.735846 
L 148.606228 77.735846 
L 148.606228 72.468985 
L 148.658095 72.468985 
L 148.658095 67.202125 
L 148.709809 67.202125 
L 148.709809 61.935264 
L 148.76605 61.935264 
L 148.76605 56.668403 
L 148.82211 56.668403 
L 148.82211 51.401542 
L 148.864037 51.401542 
L 148.864037 46.134681 
L 148.924421 46.134681 
L 148.924421 40.867821 
L 148.970728 40.867821 
L 148.970728 35.60096 
L 149.030744 35.60096 
L 149.030744 30.334099 
L 338.688 30.334099 
" style="fill:none;stroke:#f5deb3;stroke-linecap:square;stroke-width:4;"/>
   </g>
   <g id="line2d_2">
    <defs>
     <path d="M -0 7.778175 
L 7.778175 0 
L 0 -7.778175 
L -7.778175 -0 
z
" id="mca3c40159b" style="stroke:#f5deb3;stroke-linejoin:miter;stroke-width:1.5;"/>
    </defs>
    <g>
     <use style="fill:#f5deb3;stroke:#f5deb3;stroke-linejoin:miter;stroke-width:1.5;" x="147.814056" xlink:href="#mca3c40159b" y="135.671315"/>
     <use style="fill:#f5deb3;stroke:#f5deb3;stroke-linejoin:miter;stroke-width:1.5;" x="149.030744" xlink:href="#mca3c40159b" y="35.60096"/>
     <use style="fill:#f5deb3;stroke:#f5deb3;stroke-linejoin:miter;stroke-width:1.5;" x="149.030744" xlink:href="#mca3c40159b" y="30.334099"/>
     <use style="fill:#f5deb3;stroke:#f5deb3;stroke-linejoin:miter;stroke-width:1.5;" x="149.030744" xlink:href="#mca3c40159b" y="30.334099"/>
     <use style="fill:#f5deb3;stroke:#f5deb3;stroke-linejoin:miter;stroke-width:1.5;" x="338.688" xlink:href="#mca3c40159b" y="30.334099"/>
    </g>
   </g>
   <g id="line2d_3">
    <path style="fill:none;stroke:#f5deb3;stroke-linecap:square;stroke-width:4;"/>
    <g/>
   </g>
   <g id="line2d_4">
    <path d="M 338.688 30.334099 
L 369.60768 35.706297 
" style="fill:none;stroke:#f5deb3;stroke-linecap:square;stroke-width:4;"/>
    <g>
     <use style="fill:#f5deb3;stroke:#f5deb3;stroke-linejoin:miter;stroke-width:1.5;" x="338.688" xlink:href="#mca3c40159b" y="30.334099"/>
     <use style="fill:#f5deb3;stroke:#f5deb3;stroke-linejoin:miter;stroke-width:1.5;" x="369.60768" xlink:href="#mca3c40159b" y="35.706297"/>
    </g>
   </g>
   <g id="matplotlib.axis_1">
    <g id="xtick_1">
     <g id="line2d_5">
      <path clip-path="url(#p8c2e1762a3)" d="M 57.6 298.944 
L 57.6 27.648 
" style="fill:none;stroke:#b0b0b0;stroke-linecap:square;stroke-width:0.8;"/>
     </g>
     <g id="line2d_6">
      <defs>
       <path d="M 0 0 
L 0 3.5 
" id="m8b207677c3" style="stroke:#000000;stroke-width:0.8;"/>
      </defs>
      <g>
       <use style="stroke:#000000;stroke-width:0.8;" x="57.6" xlink:href="#m8b207677c3" y="298.944"/>
      </g>
     </g>
     <g id="text_1">
      <!-- 0 -->
      <g transform="translate(51.2375 321.140875)scale(0.2 -0.2)">
       <defs>
        <path d="M 31.78125 66.40625 
Q 24.171875 66.40625 20.328125 58.90625 
Q 16.5 51.421875 16.5 36.375 
Q 16.5 21.390625 20.328125 13.890625 
Q 24.171875 6.390625 31.78125 6.390625 
Q 39.453125 6.390625 43.28125 13.890625 
Q 47.125 21.390625 47.125 36.375 
Q 47.125 51.421875 43.28125 58.90625 
Q 39.453125 66.40625 31.78125 66.40625 
z
M 31.78125 74.21875 
Q 44.046875 74.21875 50.515625 64.515625 
Q 56.984375 54.828125 56.984375 36.375 
Q 56.984375 17.96875 50.515625 8.265625 
Q 44.046875 -1.421875 31.78125 -1.421875 
Q 19.53125 -1.421875 13.0625 8.265625 
Q 6.59375 17.96875 6.59375 36.375 
Q 6.59375 54.828125 13.0625 64.515625 
Q 19.53125 74.21875 31.78125 74.21875 
z
" id="DejaVuSans-48"/>
       </defs>
       <use xlink:href="#DejaVuSans-48"/>
      </g>
     </g>
    </g>
    <g id="xtick_2">
     <g id="line2d_7">
      <path clip-path="url(#p8c2e1762a3)" d="M 137.910857 298.944 
L 137.910857 27.648 
" style="fill:none;stroke:#b0b0b0;stroke-linecap:square;stroke-width:0.8;"/>
     </g>
     <g id="line2d_8">
      <g>
       <use style="stroke:#000000;stroke-width:0.8;" x="137.910857" xlink:href="#m8b207677c3" y="298.944"/>
      </g>
     </g>
     <g id="text_2">
      <!-- 2 -->
      <g transform="translate(131.548357 321.140875)scale(0.2 -0.2)">
       <defs>
        <path d="M 19.1875 8.296875 
L 53.609375 8.296875 
L 53.609375 0 
L 7.328125 0 
L 7.328125 8.296875 
Q 12.9375 14.109375 22.625 23.890625 
Q 32.328125 33.6875 34.8125 36.53125 
Q 39.546875 41.84375 41.421875 45.53125 
Q 43.3125 49.21875 43.3125 52.78125 
Q 43.3125 58.59375 39.234375 62.25 
Q 35.15625 65.921875 28.609375 65.921875 
Q 23.96875 65.921875 18.8125 64.3125 
Q 13.671875 62.703125 7.8125 59.421875 
L 7.8125 69.390625 
Q 13.765625 71.78125 18.9375 73 
Q 24.125 74.21875 28.421875 74.21875 
Q 39.75 74.21875 46.484375 68.546875 
Q 53.21875 62.890625 53.21875 53.421875 
Q 53.21875 48.921875 51.53125 44.890625 
Q 49.859375 40.875 45.40625 35.40625 
Q 44.1875 33.984375 37.640625 27.21875 
Q 31.109375 20.453125 19.1875 8.296875 
z
" id="DejaVuSans-50"/>
       </defs>
       <use xlink:href="#DejaVuSans-50"/>
      </g>
     </g>
    </g>
    <g id="xtick_3">
     <g id="line2d_9">
      <path clip-path="url(#p8c2e1762a3)" d="M 218.221714 298.944 
L 218.221714 27.648 
" style="fill:none;stroke:#b0b0b0;stroke-linecap:square;stroke-width:0.8;"/>
     </g>
     <g id="line2d_10">
      <g>
       <use style="stroke:#000000;stroke-width:0.8;" x="218.221714" xlink:href="#m8b207677c3" y="298.944"/>
      </g>
     </g>
     <g id="text_3">
      <!-- 4 -->
      <g transform="translate(211.859214 321.140875)scale(0.2 -0.2)">
       <defs>
        <path d="M 37.796875 64.3125 
L 12.890625 25.390625 
L 37.796875 25.390625 
z
M 35.203125 72.90625 
L 47.609375 72.90625 
L 47.609375 25.390625 
L 58.015625 25.390625 
L 58.015625 17.1875 
L 47.609375 17.1875 
L 47.609375 0 
L 37.796875 0 
L 37.796875 17.1875 
L 4.890625 17.1875 
L 4.890625 26.703125 
z
" id="DejaVuSans-52"/>
       </defs>
       <use xlink:href="#DejaVuSans-52"/>
      </g>
     </g>
    </g>
    <g id="xtick_4">
     <g id="line2d_11">
      <path clip-path="url(#p8c2e1762a3)" d="M 298.532571 298.944 
L 298.532571 27.648 
" style="fill:none;stroke:#b0b0b0;stroke-linecap:square;stroke-width:0.8;"/>
     </g>
     <g id="line2d_12">
      <g>
       <use style="stroke:#000000;stroke-width:0.8;" x="298.532571" xlink:href="#m8b207677c3" y="298.944"/>
      </g>
     </g>
     <g id="text_4">
      <!-- 6 -->
      <g transform="translate(292.170071 321.140875)scale(0.2 -0.2)">
       <defs>
        <path d="M 33.015625 40.375 
Q 26.375 40.375 22.484375 35.828125 
Q 18.609375 31.296875 18.609375 23.390625 
Q 18.609375 15.53125 22.484375 10.953125 
Q 26.375 6.390625 33.015625 6.390625 
Q 39.65625 6.390625 43.53125 10.953125 
Q 47.40625 15.53125 47.40625 23.390625 
Q 47.40625 31.296875 43.53125 35.828125 
Q 39.65625 40.375 33.015625 40.375 
z
M 52.59375 71.296875 
L 52.59375 62.3125 
Q 48.875 64.0625 45.09375 64.984375 
Q 41.3125 65.921875 37.59375 65.921875 
Q 27.828125 65.921875 22.671875 59.328125 
Q 17.53125 52.734375 16.796875 39.40625 
Q 19.671875 43.65625 24.015625 45.921875 
Q 28.375 48.1875 33.59375 48.1875 
Q 44.578125 48.1875 50.953125 41.515625 
Q 57.328125 34.859375 57.328125 23.390625 
Q 57.328125 12.15625 50.6875 5.359375 
Q 44.046875 -1.421875 33.015625 -1.421875 
Q 20.359375 -1.421875 13.671875 8.265625 
Q 6.984375 17.96875 6.984375 36.375 
Q 6.984375 53.65625 15.1875 63.9375 
Q 23.390625 74.21875 37.203125 74.21875 
Q 40.921875 74.21875 44.703125 73.484375 
Q 48.484375 72.75 52.59375 71.296875 
z
" id="DejaVuSans-54"/>
       </defs>
       <use xlink:href="#DejaVuSans-54"/>
      </g>
     </g>
    </g>
    <g id="xtick_5">
     <g id="line2d_13">
      <path clip-path="url(#p8c2e1762a3)" d="M 97.755429 298.944 
L 97.755429 27.648 
" style="fill:none;stroke:#b0b0b0;stroke-linecap:square;stroke-width:0.8;"/>
     </g>
     <g id="line2d_14">
      <defs>
       <path d="M 0 0 
L 0 2 
" id="m3d32b93413" style="stroke:#000000;stroke-width:0.6;"/>
      </defs>
      <g>
       <use style="stroke:#000000;stroke-width:0.6;" x="97.755429" xlink:href="#m3d32b93413" y="298.944"/>
      </g>
     </g>
    </g>
    <g id="xtick_6">
     <g id="line2d_15">
      <path clip-path="url(#p8c2e1762a3)" d="M 178.066286 298.944 
L 178.066286 27.648 
" style="fill:none;stroke:#b0b0b0;stroke-linecap:square;stroke-width:0.8;"/>
     </g>
     <g id="line2d_16">
      <g>
       <use style="stroke:#000000;stroke-width:0.6;" x="178.066286" xlink:href="#m3d32b93413" y="298.944"/>
      </g>
     </g>
    </g>
    <g id="xtick_7">
     <g id="line2d_17">
      <path clip-path="url(#p8c2e1762a3)" d="M 258.377143 298.944 
L 258.377143 27.648 
" style="fill:none;stroke:#b0b0b0;stroke-linecap:square;stroke-width:0.8;"/>
     </g>
     <g id="line2d_18">
      <g>
       <use style="stroke:#000000;stroke-width:0.6;" x="258.377143" xlink:href="#m3d32b93413" y="298.944"/>
      </g>
     </g>
    </g>
    <g id="xtick_8">
     <g id="line2d_19">
      <path clip-path="url(#p8c2e1762a3)" d="M 338.688 298.944 
L 338.688 27.648 
" style="fill:none;stroke:#b0b0b0;stroke-linecap:square;stroke-width:0.8;"/>
     </g>
     <g id="line2d_20">
      <g>
       <use style="stroke:#000000;stroke-width:0.6;" x="338.688" xlink:href="#m3d32b93413" y="298.944"/>
      </g>
     </g>
    </g>
    <g id="text_5">
     <!-- log10(# f-evals / dimension) -->
     <g transform="translate(77.764078 342.217594)scale(0.17 -0.17)">
      <defs>
       <path d="M 9.421875 75.984375 
L 18.40625 75.984375 
L 18.40625 0 
L 9.421875 0 
z
" id="DejaVuSans-108"/>
       <path d="M 30.609375 48.390625 
Q 23.390625 48.390625 19.1875 42.75 
Q 14.984375 37.109375 14.984375 27.296875 
Q 14.984375 17.484375 19.15625 11.84375 
Q 23.34375 6.203125 30.609375 6.203125 
Q 37.796875 6.203125 41.984375 11.859375 
Q 46.1875 17.53125 46.1875 27.296875 
Q 46.1875 37.015625 41.984375 42.703125 
Q 37.796875 48.390625 30.609375 48.390625 
z
M 30.609375 56 
Q 42.328125 56 49.015625 48.375 
Q 55.71875 40.765625 55.71875 27.296875 
Q 55.71875 13.875 49.015625 6.21875 
Q 42.328125 -1.421875 30.609375 -1.421875 
Q 18.84375 -1.421875 12.171875 6.21875 
Q 5.515625 13.875 5.515625 27.296875 
Q 5.515625 40.765625 12.171875 48.375 
Q 18.84375 56 30.609375 56 
z
" id="DejaVuSans-111"/>
       <path d="M 45.40625 27.984375 
Q 45.40625 37.75 41.375 43.109375 
Q 37.359375 48.484375 30.078125 48.484375 
Q 22.859375 48.484375 18.828125 43.109375 
Q 14.796875 37.75 14.796875 27.984375 
Q 14.796875 18.265625 18.828125 12.890625 
Q 22.859375 7.515625 30.078125 7.515625 
Q 37.359375 7.515625 41.375 12.890625 
Q 45.40625 18.265625 45.40625 27.984375 
z
M 54.390625 6.78125 
Q 54.390625 -7.171875 48.1875 -13.984375 
Q 42 -20.796875 29.203125 -20.796875 
Q 24.46875 -20.796875 20.265625 -20.09375 
Q 16.0625 -19.390625 12.109375 -17.921875 
L 12.109375 -9.1875 
Q 16.0625 -11.328125 19.921875 -12.34375 
Q 23.78125 -13.375 27.78125 -13.375 
Q 36.625 -13.375 41.015625 -8.765625 
Q 45.40625 -4.15625 45.40625 5.171875 
L 45.40625 9.625 
Q 42.625 4.78125 38.28125 2.390625 
Q 33.9375 0 27.875 0 
Q 17.828125 0 11.671875 7.65625 
Q 5.515625 15.328125 5.515625 27.984375 
Q 5.515625 40.671875 11.671875 48.328125 
Q 17.828125 56 27.875 56 
Q 33.9375 56 38.28125 53.609375 
Q 42.625 51.21875 45.40625 46.390625 
L 45.40625 54.6875 
L 54.390625 54.6875 
z
" id="DejaVuSans-103"/>
       <path d="M 12.40625 8.296875 
L 28.515625 8.296875 
L 28.515625 63.921875 
L 10.984375 60.40625 
L 10.984375 69.390625 
L 28.421875 72.90625 
L 38.28125 72.90625 
L 38.28125 8.296875 
L 54.390625 8.296875 
L 54.390625 0 
L 12.40625 0 
z
" id="DejaVuSans-49"/>
       <path d="M 31 75.875 
Q 24.46875 64.65625 21.28125 53.65625 
Q 18.109375 42.671875 18.109375 31.390625 
Q 18.109375 20.125 21.3125 9.0625 
Q 24.515625 -2 31 -13.1875 
L 23.1875 -13.1875 
Q 15.875 -1.703125 12.234375 9.375 
Q 8.59375 20.453125 8.59375 31.390625 
Q 8.59375 42.28125 12.203125 53.3125 
Q 15.828125 64.359375 23.1875 75.875 
z
" id="DejaVuSans-40"/>
       <path d="M 51.125 44 
L 36.921875 44 
L 32.8125 27.6875 
L 47.125 27.6875 
z
M 43.796875 71.78125 
L 38.71875 51.515625 
L 52.984375 51.515625 
L 58.109375 71.78125 
L 65.921875 71.78125 
L 60.890625 51.515625 
L 76.125 51.515625 
L 76.125 44 
L 58.984375 44 
L 54.984375 27.6875 
L 70.515625 27.6875 
L 70.515625 20.21875 
L 53.078125 20.21875 
L 48 0 
L 40.1875 0 
L 45.21875 20.21875 
L 30.90625 20.21875 
L 25.875 0 
L 18.015625 0 
L 23.09375 20.21875 
L 7.71875 20.21875 
L 7.71875 27.6875 
L 24.90625 27.6875 
L 29 44 
L 13.28125 44 
L 13.28125 51.515625 
L 30.90625 51.515625 
L 35.890625 71.78125 
z
" id="DejaVuSans-35"/>
       <path id="DejaVuSans-32"/>
       <path d="M 37.109375 75.984375 
L 37.109375 68.5 
L 28.515625 68.5 
Q 23.6875 68.5 21.796875 66.546875 
Q 19.921875 64.59375 19.921875 59.515625 
L 19.921875 54.6875 
L 34.71875 54.6875 
L 34.71875 47.703125 
L 19.921875 47.703125 
L 19.921875 0 
L 10.890625 0 
L 10.890625 47.703125 
L 2.296875 47.703125 
L 2.296875 54.6875 
L 10.890625 54.6875 
L 10.890625 58.5 
Q 10.890625 67.625 15.140625 71.796875 
Q 19.390625 75.984375 28.609375 75.984375 
z
" id="DejaVuSans-102"/>
       <path d="M 4.890625 31.390625 
L 31.203125 31.390625 
L 31.203125 23.390625 
L 4.890625 23.390625 
z
" id="DejaVuSans-45"/>
       <path d="M 56.203125 29.59375 
L 56.203125 25.203125 
L 14.890625 25.203125 
Q 15.484375 15.921875 20.484375 11.0625 
Q 25.484375 6.203125 34.421875 6.203125 
Q 39.59375 6.203125 44.453125 7.46875 
Q 49.3125 8.734375 54.109375 11.28125 
L 54.109375 2.78125 
Q 49.265625 0.734375 44.1875 -0.34375 
Q 39.109375 -1.421875 33.890625 -1.421875 
Q 20.796875 -1.421875 13.15625 6.1875 
Q 5.515625 13.8125 5.515625 26.8125 
Q 5.515625 40.234375 12.765625 48.109375 
Q 20.015625 56 32.328125 56 
Q 43.359375 56 49.78125 48.890625 
Q 56.203125 41.796875 56.203125 29.59375 
z
M 47.21875 32.234375 
Q 47.125 39.59375 43.09375 43.984375 
Q 39.0625 48.390625 32.421875 48.390625 
Q 24.90625 48.390625 20.390625 44.140625 
Q 15.875 39.890625 15.1875 32.171875 
z
" id="DejaVuSans-101"/>
       <path d="M 2.984375 54.6875 
L 12.5 54.6875 
L 29.59375 8.796875 
L 46.6875 54.6875 
L 56.203125 54.6875 
L 35.6875 0 
L 23.484375 0 
z
" id="DejaVuSans-118"/>
       <path d="M 34.28125 27.484375 
Q 23.390625 27.484375 19.1875 25 
Q 14.984375 22.515625 14.984375 16.5 
Q 14.984375 11.71875 18.140625 8.90625 
Q 21.296875 6.109375 26.703125 6.109375 
Q 34.1875 6.109375 38.703125 11.40625 
Q 43.21875 16.703125 43.21875 25.484375 
L 43.21875 27.484375 
z
M 52.203125 31.203125 
L 52.203125 0 
L 43.21875 0 
L 43.21875 8.296875 
Q 40.140625 3.328125 35.546875 0.953125 
Q 30.953125 -1.421875 24.3125 -1.421875 
Q 15.921875 -1.421875 10.953125 3.296875 
Q 6 8.015625 6 15.921875 
Q 6 25.140625 12.171875 29.828125 
Q 18.359375 34.515625 30.609375 34.515625 
L 43.21875 34.515625 
L 43.21875 35.40625 
Q 43.21875 41.609375 39.140625 45 
Q 35.0625 48.390625 27.6875 48.390625 
Q 23 48.390625 18.546875 47.265625 
Q 14.109375 46.140625 10.015625 43.890625 
L 10.015625 52.203125 
Q 14.9375 54.109375 19.578125 55.046875 
Q 24.21875 56 28.609375 56 
Q 40.484375 56 46.34375 49.84375 
Q 52.203125 43.703125 52.203125 31.203125 
z
" id="DejaVuSans-97"/>
       <path d="M 44.28125 53.078125 
L 44.28125 44.578125 
Q 40.484375 46.53125 36.375 47.5 
Q 32.28125 48.484375 27.875 48.484375 
Q 21.1875 48.484375 17.84375 46.4375 
Q 14.5 44.390625 14.5 40.28125 
Q 14.5 37.15625 16.890625 35.375 
Q 19.28125 33.59375 26.515625 31.984375 
L 29.59375 31.296875 
Q 39.15625 29.25 43.1875 25.515625 
Q 47.21875 21.78125 47.21875 15.09375 
Q 47.21875 7.46875 41.1875 3.015625 
Q 35.15625 -1.421875 24.609375 -1.421875 
Q 20.21875 -1.421875 15.453125 -0.5625 
Q 10.6875 0.296875 5.421875 2 
L 5.421875 11.28125 
Q 10.40625 8.6875 15.234375 7.390625 
Q 20.0625 6.109375 24.8125 6.109375 
Q 31.15625 6.109375 34.5625 8.28125 
Q 37.984375 10.453125 37.984375 14.40625 
Q 37.984375 18.0625 35.515625 20.015625 
Q 33.0625 21.96875 24.703125 23.78125 
L 21.578125 24.515625 
Q 13.234375 26.265625 9.515625 29.90625 
Q 5.8125 33.546875 5.8125 39.890625 
Q 5.8125 47.609375 11.28125 51.796875 
Q 16.75 56 26.8125 56 
Q 31.78125 56 36.171875 55.265625 
Q 40.578125 54.546875 44.28125 53.078125 
z
" id="DejaVuSans-115"/>
       <path d="M 25.390625 72.90625 
L 33.6875 72.90625 
L 8.296875 -9.28125 
L 0 -9.28125 
z
" id="DejaVuSans-47"/>
       <path d="M 45.40625 46.390625 
L 45.40625 75.984375 
L 54.390625 75.984375 
L 54.390625 0 
L 45.40625 0 
L 45.40625 8.203125 
Q 42.578125 3.328125 38.25 0.953125 
Q 33.9375 -1.421875 27.875 -1.421875 
Q 17.96875 -1.421875 11.734375 6.484375 
Q 5.515625 14.40625 5.515625 27.296875 
Q 5.515625 40.1875 11.734375 48.09375 
Q 17.96875 56 27.875 56 
Q 33.9375 56 38.25 53.625 
Q 42.578125 51.265625 45.40625 46.390625 
z
M 14.796875 27.296875 
Q 14.796875 17.390625 18.875 11.75 
Q 22.953125 6.109375 30.078125 6.109375 
Q 37.203125 6.109375 41.296875 11.75 
Q 45.40625 17.390625 45.40625 27.296875 
Q 45.40625 37.203125 41.296875 42.84375 
Q 37.203125 48.484375 30.078125 48.484375 
Q 22.953125 48.484375 18.875 42.84375 
Q 14.796875 37.203125 14.796875 27.296875 
z
" id="DejaVuSans-100"/>
       <path d="M 9.421875 54.6875 
L 18.40625 54.6875 
L 18.40625 0 
L 9.421875 0 
z
M 9.421875 75.984375 
L 18.40625 75.984375 
L 18.40625 64.59375 
L 9.421875 64.59375 
z
" id="DejaVuSans-105"/>
       <path d="M 52 44.1875 
Q 55.375 50.25 60.0625 53.125 
Q 64.75 56 71.09375 56 
Q 79.640625 56 84.28125 50.015625 
Q 88.921875 44.046875 88.921875 33.015625 
L 88.921875 0 
L 79.890625 0 
L 79.890625 32.71875 
Q 79.890625 40.578125 77.09375 44.375 
Q 74.3125 48.1875 68.609375 48.1875 
Q 61.625 48.1875 57.5625 43.546875 
Q 53.515625 38.921875 53.515625 30.90625 
L 53.515625 0 
L 44.484375 0 
L 44.484375 32.71875 
Q 44.484375 40.625 41.703125 44.40625 
Q 38.921875 48.1875 33.109375 48.1875 
Q 26.21875 48.1875 22.15625 43.53125 
Q 18.109375 38.875 18.109375 30.90625 
L 18.109375 0 
L 9.078125 0 
L 9.078125 54.6875 
L 18.109375 54.6875 
L 18.109375 46.1875 
Q 21.1875 51.21875 25.484375 53.609375 
Q 29.78125 56 35.6875 56 
Q 41.65625 56 45.828125 52.96875 
Q 50 49.953125 52 44.1875 
z
" id="DejaVuSans-109"/>
       <path d="M 54.890625 33.015625 
L 54.890625 0 
L 45.90625 0 
L 45.90625 32.71875 
Q 45.90625 40.484375 42.875 44.328125 
Q 39.84375 48.1875 33.796875 48.1875 
Q 26.515625 48.1875 22.3125 43.546875 
Q 18.109375 38.921875 18.109375 30.90625 
L 18.109375 0 
L 9.078125 0 
L 9.078125 54.6875 
L 18.109375 54.6875 
L 18.109375 46.1875 
Q 21.34375 51.125 25.703125 53.5625 
Q 30.078125 56 35.796875 56 
Q 45.21875 56 50.046875 50.171875 
Q 54.890625 44.34375 54.890625 33.015625 
z
" id="DejaVuSans-110"/>
       <path d="M 8.015625 75.875 
L 15.828125 75.875 
Q 23.140625 64.359375 26.78125 53.3125 
Q 30.421875 42.28125 30.421875 31.390625 
Q 30.421875 20.453125 26.78125 9.375 
Q 23.140625 -1.703125 15.828125 -13.1875 
L 8.015625 -13.1875 
Q 14.5 -2 17.703125 9.0625 
Q 20.90625 20.125 20.90625 31.390625 
Q 20.90625 42.671875 17.703125 53.65625 
Q 14.5 64.65625 8.015625 75.875 
z
" id="DejaVuSans-41"/>
      </defs>
      <use xlink:href="#DejaVuSans-108"/>
      <use x="27.783203" xlink:href="#DejaVuSans-111"/>
      <use x="88.964844" xlink:href="#DejaVuSans-103"/>
      <use x="152.441406" xlink:href="#DejaVuSans-49"/>
      <use x="216.064453" xlink:href="#DejaVuSans-48"/>
      <use x="279.6875" xlink:href="#DejaVuSans-40"/>
      <use x="318.701172" xlink:href="#DejaVuSans-35"/>
      <use x="402.490234" xlink:href="#DejaVuSans-32"/>
      <use x="434.277344" xlink:href="#DejaVuSans-102"/>
      <use x="463.982422" xlink:href="#DejaVuSans-45"/>
      <use x="500.066406" xlink:href="#DejaVuSans-101"/>
      <use x="561.589844" xlink:href="#DejaVuSans-118"/>
      <use x="620.769531" xlink:href="#DejaVuSans-97"/>
      <use x="682.048828" xlink:href="#DejaVuSans-108"/>
      <use x="709.832031" xlink:href="#DejaVuSans-115"/>
      <use x="761.931641" xlink:href="#DejaVuSans-32"/>
      <use x="793.71875" xlink:href="#DejaVuSans-47"/>
      <use x="827.410156" xlink:href="#DejaVuSans-32"/>
      <use x="859.197266" xlink:href="#DejaVuSans-100"/>
      <use x="922.673828" xlink:href="#DejaVuSans-105"/>
      <use x="950.457031" xlink:href="#DejaVuSans-109"/>
      <use x="1047.869141" xlink:href="#DejaVuSans-101"/>
      <use x="1109.392578" xlink:href="#DejaVuSans-110"/>
      <use x="1172.771484" xlink:href="#DejaVuSans-115"/>
      <use x="1224.871094" xlink:href="#DejaVuSans-105"/>
      <use x="1252.654297" xlink:href="#DejaVuSans-111"/>
      <use x="1313.835938" xlink:href="#DejaVuSans-110"/>
      <use x="1377.214844" xlink:href="#DejaVuSans-41"/>
     </g>
    </g>
   </g>
   <g id="matplotlib.axis_2">
    <g id="ytick_1">
     <g id="line2d_21">
      <path clip-path="url(#p8c2e1762a3)" d="M 57.6 298.944 
L 338.688 298.944 
" style="fill:none;stroke:#b0b0b0;stroke-linecap:square;stroke-width:0.8;"/>
     </g>
     <g id="line2d_22">
      <defs>
       <path d="M 0 0 
L -3.5 0 
" id="m2f239c4733" style="stroke:#000000;stroke-width:0.8;"/>
      </defs>
      <g>
       <use style="stroke:#000000;stroke-width:0.8;" x="57.6" xlink:href="#m2f239c4733" y="298.944"/>
      </g>
     </g>
     <g id="text_6">
      <!-- 0.0 -->
      <g transform="translate(25.155 305.02275)scale(0.16 -0.16)">
       <defs>
        <path d="M 10.6875 12.40625 
L 21 12.40625 
L 21 0 
L 10.6875 0 
z
" id="DejaVuSans-46"/>
       </defs>
       <use xlink:href="#DejaVuSans-48"/>
       <use x="63.623047" xlink:href="#DejaVuSans-46"/>
       <use x="95.410156" xlink:href="#DejaVuSans-48"/>
      </g>
     </g>
    </g>
    <g id="ytick_2">
     <g id="line2d_23">
      <path clip-path="url(#p8c2e1762a3)" d="M 57.6 245.22202 
L 338.688 245.22202 
" style="fill:none;stroke:#b0b0b0;stroke-linecap:square;stroke-width:0.8;"/>
     </g>
     <g id="line2d_24">
      <g>
       <use style="stroke:#000000;stroke-width:0.8;" x="57.6" xlink:href="#m2f239c4733" y="245.22202"/>
      </g>
     </g>
     <g id="text_7">
      <!-- 0.2 -->
      <g transform="translate(25.155 251.30077)scale(0.16 -0.16)">
       <use xlink:href="#DejaVuSans-48"/>
       <use x="63.623047" xlink:href="#DejaVuSans-46"/>
       <use x="95.410156" xlink:href="#DejaVuSans-50"/>
      </g>
     </g>
    </g>
    <g id="ytick_3">
     <g id="line2d_25">
      <path clip-path="url(#p8c2e1762a3)" d="M 57.6 191.50004 
L 338.688 191.50004 
" style="fill:none;stroke:#b0b0b0;stroke-linecap:square;stroke-width:0.8;"/>
     </g>
     <g id="line2d_26">
      <g>
       <use style="stroke:#000000;stroke-width:0.8;" x="57.6" xlink:href="#m2f239c4733" y="191.50004"/>
      </g>
     </g>
     <g id="text_8">
      <!-- 0.4 -->
      <g transform="translate(25.155 197.57879)scale(0.16 -0.16)">
       <use xlink:href="#DejaVuSans-48"/>
       <use x="63.623047" xlink:href="#DejaVuSans-46"/>
       <use x="95.410156" xlink:href="#DejaVuSans-52"/>
      </g>
     </g>
    </g>
    <g id="ytick_4">
     <g id="line2d_27">
      <path clip-path="url(#p8c2e1762a3)" d="M 57.6 137.778059 
L 338.688 137.778059 
" style="fill:none;stroke:#b0b0b0;stroke-linecap:square;stroke-width:0.8;"/>
     </g>
     <g id="line2d_28">
      <g>
       <use style="stroke:#000000;stroke-width:0.8;" x="57.6" xlink:href="#m2f239c4733" y="137.778059"/>
      </g>
     </g>
     <g id="text_9">
      <!-- 0.6 -->
      <g transform="translate(25.155 143.856809)scale(0.16 -0.16)">
       <use xlink:href="#DejaVuSans-48"/>
       <use x="63.623047" xlink:href="#DejaVuSans-46"/>
       <use x="95.410156" xlink:href="#DejaVuSans-54"/>
      </g>
     </g>
    </g>
    <g id="ytick_5">
     <g id="line2d_29">
      <path clip-path="url(#p8c2e1762a3)" d="M 57.6 84.056079 
L 338.688 84.056079 
" style="fill:none;stroke:#b0b0b0;stroke-linecap:square;stroke-width:0.8;"/>
     </g>
     <g id="line2d_30">
      <g>
       <use style="stroke:#000000;stroke-width:0.8;" x="57.6" xlink:href="#m2f239c4733" y="84.056079"/>
      </g>
     </g>
     <g id="text_10">
      <!-- 0.8 -->
      <g transform="translate(25.155 90.134829)scale(0.16 -0.16)">
       <defs>
        <path d="M 31.78125 34.625 
Q 24.75 34.625 20.71875 30.859375 
Q 16.703125 27.09375 16.703125 20.515625 
Q 16.703125 13.921875 20.71875 10.15625 
Q 24.75 6.390625 31.78125 6.390625 
Q 38.8125 6.390625 42.859375 10.171875 
Q 46.921875 13.96875 46.921875 20.515625 
Q 46.921875 27.09375 42.890625 30.859375 
Q 38.875 34.625 31.78125 34.625 
z
M 21.921875 38.8125 
Q 15.578125 40.375 12.03125 44.71875 
Q 8.5 49.078125 8.5 55.328125 
Q 8.5 64.0625 14.71875 69.140625 
Q 20.953125 74.21875 31.78125 74.21875 
Q 42.671875 74.21875 48.875 69.140625 
Q 55.078125 64.0625 55.078125 55.328125 
Q 55.078125 49.078125 51.53125 44.71875 
Q 48 40.375 41.703125 38.8125 
Q 48.828125 37.15625 52.796875 32.3125 
Q 56.78125 27.484375 56.78125 20.515625 
Q 56.78125 9.90625 50.3125 4.234375 
Q 43.84375 -1.421875 31.78125 -1.421875 
Q 19.734375 -1.421875 13.25 4.234375 
Q 6.78125 9.90625 6.78125 20.515625 
Q 6.78125 27.484375 10.78125 32.3125 
Q 14.796875 37.15625 21.921875 38.8125 
z
M 18.3125 54.390625 
Q 18.3125 48.734375 21.84375 45.5625 
Q 25.390625 42.390625 31.78125 42.390625 
Q 38.140625 42.390625 41.71875 45.5625 
Q 45.3125 48.734375 45.3125 54.390625 
Q 45.3125 60.0625 41.71875 63.234375 
Q 38.140625 66.40625 31.78125 66.40625 
Q 25.390625 66.40625 21.84375 63.234375 
Q 18.3125 60.0625 18.3125 54.390625 
z
" id="DejaVuSans-56"/>
       </defs>
       <use xlink:href="#DejaVuSans-48"/>
       <use x="63.623047" xlink:href="#DejaVuSans-46"/>
       <use x="95.410156" xlink:href="#DejaVuSans-56"/>
      </g>
     </g>
    </g>
    <g id="ytick_6">
     <g id="line2d_31">
      <path clip-path="url(#p8c2e1762a3)" d="M 57.6 30.334099 
L 338.688 30.334099 
" style="fill:none;stroke:#b0b0b0;stroke-linecap:square;stroke-width:0.8;"/>
     </g>
     <g id="line2d_32">
      <g>
       <use style="stroke:#000000;stroke-width:0.8;" x="57.6" xlink:href="#m2f239c4733" y="30.334099"/>
      </g>
     </g>
     <g id="text_11">
      <!-- 1.0 -->
      <g transform="translate(25.155 36.412849)scale(0.16 -0.16)">
       <use xlink:href="#DejaVuSans-49"/>
       <use x="63.623047" xlink:href="#DejaVuSans-46"/>
       <use x="95.410156" xlink:href="#DejaVuSans-48"/>
      </g>
     </g>
    </g>
    <g id="text_12">
     <!-- Fraction of function,target pairs -->
     <g transform="translate(17.619531 297.681)rotate(-90)scale(0.17 -0.17)">
      <defs>
       <path d="M 9.8125 72.90625 
L 51.703125 72.90625 
L 51.703125 64.59375 
L 19.671875 64.59375 
L 19.671875 43.109375 
L 48.578125 43.109375 
L 48.578125 34.8125 
L 19.671875 34.8125 
L 19.671875 0 
L 9.8125 0 
z
" id="DejaVuSans-70"/>
       <path d="M 41.109375 46.296875 
Q 39.59375 47.171875 37.8125 47.578125 
Q 36.03125 48 33.890625 48 
Q 26.265625 48 22.1875 43.046875 
Q 18.109375 38.09375 18.109375 28.8125 
L 18.109375 0 
L 9.078125 0 
L 9.078125 54.6875 
L 18.109375 54.6875 
L 18.109375 46.1875 
Q 20.953125 51.171875 25.484375 53.578125 
Q 30.03125 56 36.53125 56 
Q 37.453125 56 38.578125 55.875 
Q 39.703125 55.765625 41.0625 55.515625 
z
" id="DejaVuSans-114"/>
       <path d="M 48.78125 52.59375 
L 48.78125 44.1875 
Q 44.96875 46.296875 41.140625 47.34375 
Q 37.3125 48.390625 33.40625 48.390625 
Q 24.65625 48.390625 19.8125 42.84375 
Q 14.984375 37.3125 14.984375 27.296875 
Q 14.984375 17.28125 19.8125 11.734375 
Q 24.65625 6.203125 33.40625 6.203125 
Q 37.3125 6.203125 41.140625 7.25 
Q 44.96875 8.296875 48.78125 10.40625 
L 48.78125 2.09375 
Q 45.015625 0.34375 40.984375 -0.53125 
Q 36.96875 -1.421875 32.421875 -1.421875 
Q 20.0625 -1.421875 12.78125 6.34375 
Q 5.515625 14.109375 5.515625 27.296875 
Q 5.515625 40.671875 12.859375 48.328125 
Q 20.21875 56 33.015625 56 
Q 37.15625 56 41.109375 55.140625 
Q 45.0625 54.296875 48.78125 52.59375 
z
" id="DejaVuSans-99"/>
       <path d="M 18.3125 70.21875 
L 18.3125 54.6875 
L 36.8125 54.6875 
L 36.8125 47.703125 
L 18.3125 47.703125 
L 18.3125 18.015625 
Q 18.3125 11.328125 20.140625 9.421875 
Q 21.96875 7.515625 27.59375 7.515625 
L 36.8125 7.515625 
L 36.8125 0 
L 27.59375 0 
Q 17.1875 0 13.234375 3.875 
Q 9.28125 7.765625 9.28125 18.015625 
L 9.28125 47.703125 
L 2.6875 47.703125 
L 2.6875 54.6875 
L 9.28125 54.6875 
L 9.28125 70.21875 
z
" id="DejaVuSans-116"/>
       <path d="M 8.5 21.578125 
L 8.5 54.6875 
L 17.484375 54.6875 
L 17.484375 21.921875 
Q 17.484375 14.15625 20.5 10.265625 
Q 23.53125 6.390625 29.59375 6.390625 
Q 36.859375 6.390625 41.078125 11.03125 
Q 45.3125 15.671875 45.3125 23.6875 
L 45.3125 54.6875 
L 54.296875 54.6875 
L 54.296875 0 
L 45.3125 0 
L 45.3125 8.40625 
Q 42.046875 3.421875 37.71875 1 
Q 33.40625 -1.421875 27.6875 -1.421875 
Q 18.265625 -1.421875 13.375 4.4375 
Q 8.5 10.296875 8.5 21.578125 
z
M 31.109375 56 
z
" id="DejaVuSans-117"/>
       <path d="M 11.71875 12.40625 
L 22.015625 12.40625 
L 22.015625 4 
L 14.015625 -11.625 
L 7.71875 -11.625 
L 11.71875 4 
z
" id="DejaVuSans-44"/>
       <path d="M 18.109375 8.203125 
L 18.109375 -20.796875 
L 9.078125 -20.796875 
L 9.078125 54.6875 
L 18.109375 54.6875 
L 18.109375 46.390625 
Q 20.953125 51.265625 25.265625 53.625 
Q 29.59375 56 35.59375 56 
Q 45.5625 56 51.78125 48.09375 
Q 58.015625 40.1875 58.015625 27.296875 
Q 58.015625 14.40625 51.78125 6.484375 
Q 45.5625 -1.421875 35.59375 -1.421875 
Q 29.59375 -1.421875 25.265625 0.953125 
Q 20.953125 3.328125 18.109375 8.203125 
z
M 48.6875 27.296875 
Q 48.6875 37.203125 44.609375 42.84375 
Q 40.53125 48.484375 33.40625 48.484375 
Q 26.265625 48.484375 22.1875 42.84375 
Q 18.109375 37.203125 18.109375 27.296875 
Q 18.109375 17.390625 22.1875 11.75 
Q 26.265625 6.109375 33.40625 6.109375 
Q 40.53125 6.109375 44.609375 11.75 
Q 48.6875 17.390625 48.6875 27.296875 
z
" id="DejaVuSans-112"/>
      </defs>
      <use xlink:href="#DejaVuSans-70"/>
      <use x="50.269531" xlink:href="#DejaVuSans-114"/>
      <use x="91.382812" xlink:href="#DejaVuSans-97"/>
      <use x="152.662109" xlink:href="#DejaVuSans-99"/>
      <use x="207.642578" xlink:href="#DejaVuSans-116"/>
      <use x="246.851562" xlink:href="#DejaVuSans-105"/>
      <use x="274.634766" xlink:href="#DejaVuSans-111"/>
      <use x="335.816406" xlink:href="#DejaVuSans-110"/>
      <use x="399.195312" xlink:href="#DejaVuSans-32"/>
      <use x="430.982422" xlink:href="#DejaVuSans-111"/>
      <use x="492.164062" xlink:href="#DejaVuSans-102"/>
      <use x="527.369141" xlink:href="#DejaVuSans-32"/>
      <use x="559.15625" xlink:href="#DejaVuSans-102"/>
      <use x="594.361328" xlink:href="#DejaVuSans-117"/>
      <use x="657.740234" xlink:href="#DejaVuSans-110"/>
      <use x="721.119141" xlink:href="#DejaVuSans-99"/>
      <use x="776.099609" xlink:href="#DejaVuSans-116"/>
      <use x="815.308594" xlink:href="#DejaVuSans-105"/>
      <use x="843.091797" xlink:href="#DejaVuSans-111"/>
      <use x="904.273438" xlink:href="#DejaVuSans-110"/>
      <use x="967.652344" xlink:href="#DejaVuSans-44"/>
      <use x="999.439453" xlink:href="#DejaVuSans-116"/>
      <use x="1038.648438" xlink:href="#DejaVuSans-97"/>
      <use x="1099.927734" xlink:href="#DejaVuSans-114"/>
      <use x="1139.291016" xlink:href="#DejaVuSans-103"/>
      <use x="1202.767578" xlink:href="#DejaVuSans-101"/>
      <use x="1264.291016" xlink:href="#DejaVuSans-116"/>
      <use x="1303.5" xlink:href="#DejaVuSans-32"/>
      <use x="1335.287109" xlink:href="#DejaVuSans-112"/>
      <use x="1398.763672" xlink:href="#DejaVuSans-97"/>
      <use x="1460.042969" xlink:href="#DejaVuSans-105"/>
      <use x="1487.826172" xlink:href="#DejaVuSans-114"/>
      <use x="1528.939453" xlink:href="#DejaVuSans-115"/>
     </g>
    </g>
   </g>
   <g id="line2d_33">
    <defs>
     <path d="M 0 1.5 
C 0.397805 1.5 0.77937 1.341951 1.06066 1.06066 
C 1.341951 0.77937 1.5 0.397805 1.5 0 
C 1.5 -0.397805 1.341951 -0.77937 1.06066 -1.06066 
C 0.77937 -1.341951 0.397805 -1.5 0 -1.5 
C -0.397805 -1.5 -0.77937 -1.341951 -1.06066 -1.06066 
C -1.341951 -0.77937 -1.5 -0.397805 -1.5 0 
C -1.5 0.397805 -1.341951 0.77937 -1.06066 1.06066 
C -0.77937 1.341951 -0.397805 1.5 0 1.5 
z
" id="m22b1e7b1c2" style="stroke:#f5deb3;"/>
    </defs>
    <g>
     <use style="fill:#f5deb3;stroke:#f5deb3;" x="149.030744" xlink:href="#m22b1e7b1c2" y="30.334099"/>
     <use style="fill:#f5deb3;stroke:#f5deb3;" x="149.030744" xlink:href="#m22b1e7b1c2" y="30.334099"/>
    </g>
   </g>
   <g id="line2d_34">
    <defs>
     <path d="M 0 1.5 
C 0.397805 1.5 0.77937 1.341951 1.06066 1.06066 
C 1.341951 0.77937 1.5 0.397805 1.5 0 
C 1.5 -0.397805 1.341951 -0.77937 1.06066 -1.06066 
C 0.77937 -1.341951 0.397805 -1.5 0 -1.5 
C -0.397805 -1.5 -0.77937 -1.341951 -1.06066 -1.06066 
C -1.341951 -0.77937 -1.5 -0.397805 -1.5 0 
C -1.5 0.397805 -1.341951 0.77937 -1.06066 1.06066 
C -0.77937 1.341951 -0.397805 1.5 0 1.5 
z
" id="m902b4b58bf" style="stroke:#000080;"/>
    </defs>
    <g>
     <use style="fill:#000080;stroke:#000080;" x="191.181544" xlink:href="#m902b4b58bf" y="30.334099"/>
     <use style="fill:#000080;stroke:#000080;" x="191.181544" xlink:href="#m902b4b58bf" y="30.334099"/>
    </g>
   </g>
   <g id="line2d_35">
    <path d="M 94.400601 298.944 
L 94.400601 298.417314 
L 99.653771 298.417314 
L 99.653771 297.890628 
L 101.365607 297.890628 
L 101.365607 297.363942 
L 104.533344 297.363942 
L 104.533344 296.837256 
L 105.398279 296.837256 
L 105.398279 296.31057 
L 106.006367 296.31057 
L 106.006367 295.257197 
L 106.435663 295.257197 
L 106.435663 294.730511 
L 109.799764 294.730511 
L 109.843417 293.677139 
L 110.61104 293.677139 
L 110.61104 293.150453 
L 111.897469 293.150453 
L 111.897469 292.623767 
L 112.242812 292.623767 
L 112.280765 291.570395 
L 113.13163 291.570395 
L 113.13163 291.043709 
L 113.524343 291.043709 
L 113.524343 290.517023 
L 114.045996 290.517023 
L 114.045996 289.990337 
L 114.783921 289.990337 
L 114.816733 288.936964 
L 115.205729 288.936964 
L 115.205729 288.410278 
L 115.680082 288.410278 
L 115.680082 287.356906 
L 116.202531 287.356906 
L 116.202531 286.83022 
L 118.864837 286.83022 
L 118.864837 286.303534 
L 119.751557 286.303534 
L 119.751557 285.776848 
L 121.355214 285.776848 
L 121.355214 285.250162 
L 121.512225 285.250162 
L 121.512225 284.723476 
L 122.083336 284.723476 
L 122.083336 284.19679 
L 122.425713 284.19679 
L 122.425713 283.670104 
L 122.573415 283.670104 
L 122.573415 283.143418 
L 123.152022 283.143418 
L 123.152022 282.616732 
L 123.313873 282.616732 
L 123.313873 282.090045 
L 124.836322 282.090045 
L 124.836322 281.563359 
L 125.147256 281.563359 
L 125.147256 281.036673 
L 125.327602 281.036673 
L 125.327602 280.509987 
L 126.50685 280.509987 
L 126.50685 279.983301 
L 126.673734 279.983301 
L 126.673734 279.456615 
L 127.148859 279.456615 
L 127.148859 278.929929 
L 127.736845 278.929929 
L 127.783662 277.876557 
L 128.335875 277.876557 
L 128.335875 277.349871 
L 129.276384 277.349871 
L 129.276384 276.823185 
L 129.47553 276.823185 
L 129.47553 276.296499 
L 134.787017 276.296499 
L 134.787017 275.769812 
L 141.45 275.769812 
L 141.45 275.243126 
L 141.982752 275.243126 
L 141.982752 274.71644 
L 142.365148 274.71644 
L 142.365148 274.189754 
L 142.51311 274.189754 
L 142.51311 273.663068 
L 146.140051 273.663068 
L 146.221454 272.609696 
L 147.04626 272.609696 
L 147.04626 272.08301 
L 150.493153 272.08301 
L 150.493153 271.556324 
L 151.109358 271.556324 
L 151.109358 271.029638 
L 152.222586 271.029638 
L 152.222586 270.502952 
L 152.922207 270.502952 
L 152.922207 269.976266 
L 153.778339 269.976266 
L 153.778339 269.449579 
L 155.987711 269.449579 
L 155.987711 268.922893 
L 157.295115 268.922893 
L 157.295115 268.396207 
L 158.360802 268.396207 
L 158.360802 267.869521 
L 158.93951 267.869521 
L 158.93951 267.342835 
L 159.514794 267.342835 
L 159.514794 266.816149 
L 160.582889 266.816149 
L 160.582889 266.289463 
L 161.111818 266.289463 
L 161.111818 265.762777 
L 161.304393 265.762777 
L 161.304393 265.236091 
L 161.546656 265.236091 
L 161.546656 264.709405 
L 161.696658 264.709405 
L 161.696658 264.182719 
L 162.03881 264.182719 
L 162.03881 263.656033 
L 162.359362 263.656033 
L 162.359362 263.129347 
L 163.653591 263.129347 
L 163.653591 262.60266 
L 168.07106 262.60266 
L 168.07106 262.075974 
L 168.195896 262.075974 
L 168.195896 261.549288 
L 168.521475 261.549288 
L 168.521475 261.022602 
L 168.812946 261.022602 
L 168.876569 259.96923 
L 169.181091 259.96923 
L 169.181091 259.442544 
L 169.60973 259.442544 
L 169.626715 258.389172 
L 169.830653 258.389172 
L 169.830653 257.862486 
L 170.059855 257.862486 
L 170.059855 257.3358 
L 170.262911 257.3358 
L 170.262911 256.809114 
L 170.415018 256.809114 
L 170.415018 256.282427 
L 170.761767 256.282427 
L 170.771044 255.229055 
L 170.929308 255.229055 
L 170.929308 254.702369 
L 171.048375 254.702369 
L 171.048375 254.175683 
L 171.307238 254.175683 
L 171.307238 253.648997 
L 171.576236 253.648997 
L 171.576236 253.122311 
L 171.709823 253.122311 
L 171.709823 252.595625 
L 171.949216 252.595625 
L 171.949216 252.068939 
L 172.130306 252.068939 
L 172.145006 251.015567 
L 172.386994 251.015567 
L 172.428005 249.962195 
L 172.530112 249.962195 
L 172.530112 249.435508 
L 172.69225 249.435508 
L 172.69225 248.908822 
L 172.812873 248.908822 
L 172.83878 247.85545 
L 173.245851 247.85545 
L 173.245851 247.328764 
L 173.416304 247.328764 
L 173.416304 246.802078 
L 173.551251 246.802078 
L 173.551251 246.275392 
L 174.16392 246.275392 
L 174.16392 245.748706 
L 174.339714 245.748706 
L 174.339714 245.22202 
L 175.299647 245.22202 
L 175.299647 244.695334 
L 175.80622 244.695334 
L 175.80622 244.168648 
L 176.02618 244.168648 
L 176.134642 243.115275 
L 176.507601 243.115275 
L 176.507601 242.588589 
L 176.885818 242.588589 
L 176.885818 242.061903 
L 177.002986 242.061903 
L 177.080662 240.481845 
L 177.267877 240.481845 
L 177.267877 239.955159 
L 177.754846 239.955159 
L 177.846038 238.901787 
L 178.128086 238.901787 
L 178.222537 237.848415 
L 178.277758 237.848415 
L 178.277758 237.321729 
L 178.597002 237.321729 
L 178.685588 235.74167 
L 179.325072 235.74167 
L 179.421344 234.161612 
L 179.516285 234.161612 
L 179.516285 233.634926 
L 179.793307 233.634926 
L 179.823292 232.581554 
L 180.242372 232.581554 
L 180.282349 231.001496 
L 180.490739 231.001496 
L 180.522579 228.894751 
L 180.635069 228.894751 
L 180.635069 228.368065 
L 180.775228 228.368065 
L 180.837079 227.314693 
L 180.90464 227.314693 
L 180.985222 225.734635 
L 181.186885 225.734635 
L 181.286487 223.101204 
L 181.316184 223.101204 
L 181.405694 221.521146 
L 181.500477 221.521146 
L 181.54839 220.467774 
L 181.704798 220.467774 
L 181.712581 218.887716 
L 181.845779 218.887716 
L 181.906752 216.780971 
L 182.175422 216.780971 
L 182.268179 215.727599 
L 182.308563 215.727599 
L 182.392453 213.094169 
L 182.445444 213.094169 
L 182.551618 210.460738 
L 182.614208 210.460738 
L 182.721366 208.88068 
L 182.747386 208.88068 
L 182.814592 207.300622 
L 182.962726 207.300622 
L 183.032388 204.667192 
L 183.082818 204.667192 
L 183.176739 200.980389 
L 183.253975 200.980389 
L 183.358572 198.873645 
L 183.375944 198.873645 
L 183.458706 194.660156 
L 183.514939 194.660156 
L 183.59768 192.553412 
L 183.653468 192.553412 
L 183.753186 189.393295 
L 183.787137 189.393295 
L 183.884846 187.286551 
L 183.917295 187.286551 
L 184.003117 184.126434 
L 184.031631 184.126434 
L 184.127368 181.493004 
L 184.142761 181.493004 
L 184.22932 177.806202 
L 184.278853 177.806202 
L 184.385389 174.119399 
L 184.401768 174.119399 
L 184.493691 168.325852 
L 184.523221 168.325852 
L 184.609714 163.585677 
L 184.65041 163.585677 
L 184.744008 159.372189 
L 184.763024 159.372189 
L 184.860746 156.212072 
L 184.898504 156.212072 
L 185.008361 150.945211 
L 185.024165 150.945211 
L 185.131492 146.205037 
L 185.13905 146.205037 
L 185.244518 142.518234 
L 185.26011 142.518234 
L 185.318313 141.464862 
L 185.385494 141.464862 
L 185.489487 139.358118 
L 185.538979 139.358118 
L 185.586066 138.304745 
L 185.732748 138.304745 
L 185.810663 136.198001 
L 185.86929 136.198001 
L 185.962131 133.564571 
L 185.983188 133.564571 
L 186.051171 131.457826 
L 186.156215 131.457826 
L 186.229536 129.877768 
L 186.267715 129.877768 
L 186.318854 128.29771 
L 186.380131 128.29771 
L 186.453057 126.190966 
L 186.508492 126.190966 
L 186.60388 122.504163 
L 186.678007 122.504163 
L 186.781999 119.870733 
L 186.826905 119.870733 
L 186.937357 118.290674 
L 186.945744 118.290674 
L 187.031998 115.657244 
L 187.058052 115.657244 
L 187.150488 113.023814 
L 187.175331 113.023814 
L 187.276922 109.863697 
L 187.339029 109.863697 
L 187.447822 105.650209 
L 187.472245 105.650209 
L 187.579708 101.43672 
L 187.594356 101.43672 
L 187.692538 96.169859 
L 187.7096 96.169859 
L 187.818107 93.536429 
L 187.834549 93.536429 
L 187.943768 88.269568 
L 187.971461 88.269568 
L 188.07197 84.056079 
L 188.093082 84.056079 
L 188.19387 78.789218 
L 188.226039 78.789218 
L 188.331873 74.57573 
L 188.340583 74.57573 
L 188.412034 71.942299 
L 188.46495 71.942299 
L 188.557408 68.255497 
L 188.59988 68.255497 
L 188.696841 65.622066 
L 188.711055 65.622066 
L 188.818702 62.46195 
L 188.825291 62.46195 
L 188.917267 60.881892 
L 188.937848 60.881892 
L 189.036673 55.615031 
L 189.077067 55.615031 
L 189.170035 52.9816 
L 189.238633 52.9816 
L 189.317028 50.874856 
L 189.405998 50.874856 
L 189.444184 49.821484 
L 189.533414 49.821484 
L 189.619042 48.241426 
L 189.659905 48.241426 
L 189.760531 46.134681 
L 189.789938 46.134681 
L 189.885834 43.501251 
L 189.91945 43.501251 
L 189.928286 41.921193 
L 190.044059 41.921193 
L 190.14119 39.287762 
L 190.189118 39.287762 
L 190.231707 38.23439 
L 190.398451 38.23439 
L 190.487646 36.654332 
L 190.530366 36.654332 
L 190.579791 35.60096 
L 190.652819 35.60096 
L 190.730605 34.020902 
L 190.82903 34.020902 
L 190.891414 32.967529 
L 191.011367 32.967529 
L 191.066071 31.387471 
L 191.16386 31.387471 
L 191.181544 30.334099 
L 338.688 30.334099 
L 338.688 30.334099 
" style="fill:none;stroke:#000080;stroke-linecap:square;stroke-width:1.5;"/>
   </g>
   <g id="line2d_36">
    <defs>
     <path d="M 0 6 
C 1.591219 6 3.117479 5.367802 4.242641 4.242641 
C 5.367802 3.117479 6 1.591219 6 0 
C 6 -1.591219 5.367802 -3.117479 4.242641 -4.242641 
C 3.117479 -5.367802 1.591219 -6 0 -6 
C -1.591219 -6 -3.117479 -5.367802 -4.242641 -4.242641 
C -5.367802 -3.117479 -6 -1.591219 -6 0 
C -6 1.591219 -5.367802 3.117479 -4.242641 4.242641 
C -3.117479 5.367802 -1.591219 6 0 6 
z
" id="m4a32b8c363" style="stroke:#000080;stroke-width:1.5;"/>
    </defs>
    <g>
     <use style="fill-opacity:0;stroke:#000080;stroke-width:1.5;" x="163.653591" xlink:href="#m4a32b8c363" y="263.129347"/>
     <use style="fill-opacity:0;stroke:#000080;stroke-width:1.5;" x="188.988729" xlink:href="#m4a32b8c363" y="57.721775"/>
     <use style="fill-opacity:0;stroke:#000080;stroke-width:1.5;" x="191.181544" xlink:href="#m4a32b8c363" y="30.334099"/>
     <use style="fill-opacity:0;stroke:#000080;stroke-width:1.5;" x="191.181544" xlink:href="#m4a32b8c363" y="30.334099"/>
     <use style="fill-opacity:0;stroke:#000080;stroke-width:1.5;" x="338.688" xlink:href="#m4a32b8c363" y="30.334099"/>
    </g>
   </g>
   <g id="line2d_37">
    <path style="fill:none;stroke:#000080;stroke-linecap:square;stroke-width:1.5;"/>
    <g/>
   </g>
   <g id="line2d_38">
    <defs>
     <path d="M 0 1.5 
C 0.397805 1.5 0.77937 1.341951 1.06066 1.06066 
C 1.341951 0.77937 1.5 0.397805 1.5 0 
C 1.5 -0.397805 1.341951 -0.77937 1.06066 -1.06066 
C 0.77937 -1.341951 0.397805 -1.5 0 -1.5 
C -0.397805 -1.5 -0.77937 -1.341951 -1.06066 -1.06066 
C -1.341951 -0.77937 -1.5 -0.397805 -1.5 0 
C -1.5 0.397805 -1.341951 0.77937 -1.06066 1.06066 
C -0.77937 1.341951 -0.397805 1.5 0 1.5 
z
" id="m4af63d900a" style="stroke:#ff00ff;"/>
    </defs>
    <g>
     <use style="fill:#ff00ff;stroke:#ff00ff;" x="192.589726" xlink:href="#m4af63d900a" y="30.334099"/>
     <use style="fill:#ff00ff;stroke:#ff00ff;" x="192.589726" xlink:href="#m4af63d900a" y="30.334099"/>
    </g>
   </g>
   <g id="line2d_39">
    <path d="M 92.026554 298.944 
L 92.026554 298.417314 
L 95.723163 298.417314 
L 95.723163 297.890628 
L 100.567829 297.890628 
L 100.567829 297.363942 
L 102.397818 297.363942 
L 102.397818 296.837256 
L 103.560868 296.837256 
L 103.560868 295.783884 
L 104.053884 295.783884 
L 104.053884 295.257197 
L 105.566235 295.257197 
L 105.566235 294.730511 
L 106.957836 294.730511 
L 106.957836 294.203825 
L 107.364602 294.203825 
L 107.364602 293.677139 
L 107.860069 293.677139 
L 107.860069 293.150453 
L 111.104637 293.150453 
L 111.104637 292.623767 
L 111.225884 292.623767 
L 111.225884 292.097081 
L 111.624059 292.097081 
L 111.624059 291.570395 
L 113.095487 291.570395 
L 113.095487 291.043709 
L 113.55961 291.043709 
L 113.55961 290.517023 
L 114.0117 290.517023 
L 114.0117 289.990337 
L 114.914798 289.990337 
L 114.914798 289.463651 
L 115.301637 289.463651 
L 115.301637 288.936964 
L 116.59175 288.936964 
L 116.59175 288.410278 
L 117.570448 288.410278 
L 117.570448 287.883592 
L 119.020084 287.883592 
L 119.020084 287.356906 
L 119.527814 287.356906 
L 119.527814 286.83022 
L 120.238719 286.83022 
L 120.238719 286.303534 
L 120.618882 286.303534 
L 120.618882 285.776848 
L 121.400219 285.776848 
L 121.400219 285.250162 
L 121.800118 285.250162 
L 121.800118 284.723476 
L 122.740699 284.723476 
L 122.740699 284.19679 
L 123.474235 284.19679 
L 123.474235 283.670104 
L 123.966069 283.670104 
L 123.966069 283.143418 
L 124.444412 283.143418 
L 124.538526 282.090045 
L 125.629974 282.090045 
L 125.629974 281.563359 
L 126.321413 281.563359 
L 126.321413 281.036673 
L 126.540355 281.036673 
L 126.540355 280.509987 
L 126.70692 280.509987 
L 126.70692 279.983301 
L 127.892415 279.983301 
L 127.892415 279.456615 
L 128.061954 279.456615 
L 128.061954 278.929929 
L 128.381113 278.929929 
L 128.381113 278.403243 
L 128.958773 278.403243 
L 128.958773 277.876557 
L 129.118302 277.876557 
L 129.175952 276.823185 
L 129.333516 276.823185 
L 129.333516 276.296499 
L 130.861623 276.296499 
L 130.861623 275.769812 
L 142.83822 275.769812 
L 142.83822 275.243126 
L 143.375453 275.243126 
L 143.375453 274.71644 
L 143.759996 274.71644 
L 143.759996 274.189754 
L 143.902815 274.189754 
L 143.902815 273.663068 
L 145.270136 273.663068 
L 145.270136 273.136382 
L 147.615259 273.136382 
L 147.615259 272.609696 
L 149.400108 272.609696 
L 149.400108 272.08301 
L 151.885454 272.08301 
L 151.885454 271.556324 
L 152.504301 271.556324 
L 152.504301 271.029638 
L 155.170985 271.029638 
L 155.170985 270.502952 
L 156.744217 270.502952 
L 156.744217 269.976266 
L 157.380981 269.976266 
L 157.380981 269.449579 
L 158.20082 269.449579 
L 158.20082 268.922893 
L 160.333991 268.922893 
L 160.333991 268.396207 
L 160.905434 268.396207 
L 160.905434 267.869521 
L 161.388547 267.869521 
L 161.388547 267.342835 
L 161.977497 267.342835 
L 161.977497 266.816149 
L 162.553573 266.816149 
L 162.553573 266.289463 
L 162.699403 266.289463 
L 162.699403 265.762777 
L 162.935623 265.762777 
L 162.935623 265.236091 
L 163.090659 265.236091 
L 163.090659 264.709405 
L 163.433016 264.709405 
L 163.433016 264.182719 
L 163.752938 264.182719 
L 163.752938 263.656033 
L 167.867253 263.656033 
L 167.867253 263.129347 
L 168.82332 263.129347 
L 168.829244 262.075974 
L 169.173833 262.075974 
L 169.173833 261.549288 
L 169.591311 261.549288 
L 169.652161 260.495916 
L 170.271093 260.495916 
L 170.271093 259.96923 
L 170.576532 259.96923 
L 170.576532 259.442544 
L 170.854311 259.442544 
L 170.854311 258.915858 
L 171.022276 258.915858 
L 171.022276 258.389172 
L 171.222237 258.389172 
L 171.222237 257.862486 
L 171.636855 257.862486 
L 171.678408 256.809114 
L 171.809969 256.809114 
L 171.809969 256.282427 
L 171.980146 256.282427 
L 171.980146 255.755741 
L 172.137657 255.755741 
L 172.153575 254.702369 
L 172.264595 254.702369 
L 172.296186 253.648997 
L 172.390616 253.648997 
L 172.390616 253.122311 
L 172.702927 253.122311 
L 172.773939 252.068939 
L 172.961902 252.068939 
L 172.961902 251.542253 
L 173.105034 251.542253 
L 173.143236 250.488881 
L 173.344436 250.488881 
L 173.344436 249.962195 
L 173.52525 249.962195 
L 173.539951 248.908822 
L 173.763456 248.908822 
L 173.763456 248.382136 
L 173.907932 248.382136 
L 174.008357 247.328764 
L 174.208579 247.328764 
L 174.221628 246.275392 
L 174.542592 246.275392 
L 174.641561 245.22202 
L 174.709344 245.22202 
L 174.777918 244.168648 
L 174.845174 244.168648 
L 174.946617 243.115275 
L 175.559304 243.115275 
L 175.559304 242.588589 
L 175.734604 242.588589 
L 175.734604 242.061903 
L 176.695377 242.061903 
L 176.695377 241.535217 
L 177.408792 241.535217 
L 177.408792 241.008531 
L 177.527007 241.008531 
L 177.529705 239.955159 
L 178.281203 239.955159 
L 178.281203 239.428473 
L 178.397946 239.428473 
L 178.465403 238.375101 
L 178.662852 238.375101 
L 178.662852 237.848415 
L 179.150597 237.848415 
L 179.241314 236.268356 
L 179.523505 236.268356 
L 179.523505 235.74167 
L 179.878392 235.74167 
L 179.878392 235.214984 
L 179.992759 235.214984 
L 180.080763 234.161612 
L 180.38342 234.161612 
L 180.38342 233.634926 
L 180.720648 233.634926 
L 180.816983 232.054868 
L 180.870521 232.054868 
L 180.912049 231.001496 
L 181.105767 231.001496 
L 181.216753 228.894751 
L 181.63743 228.894751 
L 181.677882 227.314693 
L 181.88505 227.314693 
L 181.917942 226.261321 
L 182.003032 226.261321 
L 182.003032 225.734635 
L 182.156122 225.734635 
L 182.21877 224.681263 
L 182.300357 224.681263 
L 182.395855 222.574518 
L 182.582604 222.574518 
L 182.66385 220.99446 
L 182.724037 220.99446 
L 182.724037 220.467774 
L 182.864331 220.467774 
L 182.943618 219.414402 
L 183.090011 219.414402 
L 183.139623 217.834344 
L 183.233888 217.834344 
L 183.302477 215.200913 
L 183.518766 215.200913 
L 183.570991 213.620855 
L 183.647137 213.620855 
L 183.740595 211.514111 
L 183.765139 211.514111 
L 183.846704 209.934052 
L 183.895461 209.934052 
L 183.970828 208.353994 
L 184.00994 208.353994 
L 184.030392 207.300622 
L 184.156295 207.300622 
L 184.249517 206.24725 
L 184.328853 206.24725 
L 184.427821 203.613819 
L 184.478605 203.613819 
L 184.532852 199.927017 
L 184.595328 199.927017 
L 184.702338 197.820273 
L 184.754113 197.820273 
L 184.854248 194.13347 
L 184.910286 194.13347 
L 184.985507 191.50004 
L 185.048722 191.50004 
L 185.147185 187.813237 
L 185.182589 187.813237 
L 185.280301 186.233179 
L 185.312559 186.233179 
L 185.395234 184.126434 
L 185.447279 184.126434 
L 185.556581 180.439632 
L 185.566793 180.439632 
L 185.674223 177.279515 
L 185.680986 177.279515 
L 185.780996 173.066027 
L 185.821846 173.066027 
L 185.930499 167.799166 
L 185.933276 167.799166 
L 186.038479 163.585677 
L 186.052274 163.585677 
L 186.145794 159.898875 
L 186.16389 159.898875 
L 186.266626 156.738758 
L 186.27643 156.738758 
L 186.372551 153.051956 
L 186.428782 153.051956 
L 186.53373 148.311781 
L 186.542313 148.311781 
L 186.645515 146.205037 
L 186.713625 146.205037 
L 186.776179 144.624978 
L 186.834818 144.624978 
L 186.934736 141.991548 
L 186.981866 141.991548 
L 187.061696 140.41149 
L 187.109524 140.41149 
L 187.20427 137.778059 
L 187.250679 137.778059 
L 187.352345 135.144629 
L 187.371278 135.144629 
L 187.449858 132.511199 
L 187.572126 132.511199 
L 187.635207 129.877768 
L 187.703078 129.877768 
L 187.801151 127.771024 
L 187.830565 127.771024 
L 187.883286 125.66428 
L 187.946738 125.66428 
L 188.036562 121.450791 
L 188.068531 121.450791 
L 188.176787 118.817361 
L 188.199236 118.817361 
L 188.308625 116.18393 
L 188.332841 116.18393 
L 188.400949 113.5505 
L 188.453419 113.5505 
L 188.562185 110.390383 
L 188.624171 110.390383 
L 188.726677 107.230267 
L 188.778177 107.230267 
L 188.868054 103.543464 
L 188.929431 103.543464 
L 189.021326 99.856662 
L 189.067325 99.856662 
L 189.165421 96.169859 
L 189.194005 96.169859 
L 189.290935 91.95637 
L 189.316113 91.95637 
L 189.426011 87.742882 
L 189.431919 87.742882 
L 189.508548 83.529393 
L 189.555537 83.529393 
L 189.656316 77.735846 
L 189.672459 77.735846 
L 189.77123 72.995672 
L 189.786821 72.995672 
L 189.897784 69.308869 
L 189.938441 69.308869 
L 190.035721 64.568694 
L 190.056778 64.568694 
L 190.138135 61.408578 
L 190.17214 61.408578 
L 190.273759 57.721775 
L 190.285014 57.721775 
L 190.385118 53.508287 
L 190.419504 53.508287 
L 190.517988 50.34817 
L 190.565744 50.34817 
L 190.634166 48.768112 
L 190.69091 48.768112 
L 190.69091 48.241426 
L 190.839932 48.241426 
L 190.839932 47.71474 
L 190.974802 47.71474 
L 191.073517 45.607995 
L 191.140803 45.607995 
L 191.250462 44.027937 
L 191.280325 44.027937 
L 191.370012 40.341135 
L 191.43333 40.341135 
L 191.510543 38.761076 
L 191.570942 38.761076 
L 191.570942 38.23439 
L 191.856796 38.23439 
L 191.880506 37.181018 
L 192.038926 37.181018 
L 192.148542 35.074274 
L 192.287205 35.074274 
L 192.366497 32.967529 
L 192.406392 32.967529 
L 192.471027 31.914157 
L 192.555189 31.914157 
L 192.589726 30.334099 
L 338.688 30.334099 
L 338.688 30.334099 
" style="fill:none;stroke:#ff00ff;stroke-linecap:square;stroke-width:1.5;"/>
   </g>
   <g id="line2d_40">
    <defs>
     <path d="M -0 8.485281 
L 5.091169 0 
L 0 -8.485281 
L -5.091169 -0 
z
" id="m280757d2bd" style="stroke:#ff00ff;stroke-linejoin:miter;stroke-width:1.5;"/>
    </defs>
    <g>
     <use style="fill-opacity:0;stroke:#ff00ff;stroke-linejoin:miter;stroke-width:1.5;" x="184.358056" xlink:href="#m280757d2bd" y="205.193878"/>
     <use style="fill-opacity:0;stroke:#ff00ff;stroke-linejoin:miter;stroke-width:1.5;" x="192.589726" xlink:href="#m280757d2bd" y="30.860785"/>
     <use style="fill-opacity:0;stroke:#ff00ff;stroke-linejoin:miter;stroke-width:1.5;" x="192.589726" xlink:href="#m280757d2bd" y="30.334099"/>
     <use style="fill-opacity:0;stroke:#ff00ff;stroke-linejoin:miter;stroke-width:1.5;" x="192.589726" xlink:href="#m280757d2bd" y="30.334099"/>
     <use style="fill-opacity:0;stroke:#ff00ff;stroke-linejoin:miter;stroke-width:1.5;" x="338.688" xlink:href="#m280757d2bd" y="30.334099"/>
    </g>
   </g>
   <g id="line2d_41">
    <path style="fill:none;stroke:#ff00ff;stroke-linecap:square;stroke-width:1.5;"/>
    <g/>
   </g>
   <g id="line2d_42">
    <path d="M 338.688 30.334099 
L 369.60768 293.571802 
" style="fill:none;stroke:#ff00ff;stroke-linecap:square;stroke-width:1.5;"/>
    <g>
     <use style="fill-opacity:0;stroke:#ff00ff;stroke-linejoin:miter;stroke-width:1.5;" x="338.688" xlink:href="#m280757d2bd" y="30.334099"/>
     <use style="fill-opacity:0;stroke:#ff00ff;stroke-linejoin:miter;stroke-width:1.5;" x="369.60768" xlink:href="#m280757d2bd" y="293.571802"/>
    </g>
   </g>
   <g id="line2d_43">
    <path d="M 338.688 30.334099 
L 369.60768 164.63905 
" style="fill:none;stroke:#000080;stroke-linecap:square;stroke-width:1.5;"/>
    <g>
     <use style="fill-opacity:0;stroke:#000080;stroke-width:1.5;" x="338.688" xlink:href="#m4a32b8c363" y="30.334099"/>
     <use style="fill-opacity:0;stroke:#000080;stroke-width:1.5;" x="369.60768" xlink:href="#m4a32b8c363" y="164.63905"/>
    </g>
   </g>
   <g id="line2d_44">
    <path d="M 338.688 298.944 
L 338.688 30.334099 
" style="fill:none;stroke:#000000;stroke-linecap:square;stroke-width:1.5;"/>
   </g>
   <g id="patch_3">
    <path d="M 57.6 298.944 
L 57.6 27.648 
" style="fill:none;stroke:#000000;stroke-linecap:square;stroke-linejoin:miter;stroke-width:0.8;"/>
   </g>
   <g id="patch_4">
    <path d="M 338.688 298.944 
L 338.688 27.648 
" style="fill:none;stroke:#000000;stroke-linecap:square;stroke-linejoin:miter;stroke-width:0.8;"/>
   </g>
   <g id="patch_5">
    <path d="M 57.6 298.944 
L 338.688 298.944 
" style="fill:none;stroke:#000000;stroke-linecap:square;stroke-linejoin:miter;stroke-width:0.8;"/>
   </g>
   <g id="patch_6">
    <path d="M 57.6 27.648 
L 338.688 27.648 
" style="fill:none;stroke:#000000;stroke-linecap:square;stroke-linejoin:miter;stroke-width:0.8;"/>
   </g>
   <g id="text_13">
    <!-- maes mid -->
    <g transform="translate(375.22944 298.262739)scale(0.17 -0.17)">
     <use xlink:href="#DejaVuSans-109"/>
     <use x="97.412109" xlink:href="#DejaVuSans-97"/>
     <use x="158.691406" xlink:href="#DejaVuSans-101"/>
     <use x="220.214844" xlink:href="#DejaVuSans-115"/>
     <use x="272.314453" xlink:href="#DejaVuSans-32"/>
     <use x="304.101562" xlink:href="#DejaVuSans-109"/>
     <use x="401.513672" xlink:href="#DejaVuSans-105"/>
     <use x="429.296875" xlink:href="#DejaVuSans-100"/>
    </g>
   </g>
   <g id="text_14">
    <!-- maes -->
    <g transform="translate(375.22944 169.329987)scale(0.17 -0.17)">
     <use xlink:href="#DejaVuSans-109"/>
     <use x="97.412109" xlink:href="#DejaVuSans-97"/>
     <use x="158.691406" xlink:href="#DejaVuSans-101"/>
     <use x="220.214844" xlink:href="#DejaVuSans-115"/>
    </g>
   </g>
   <g id="text_15">
    <!-- best 2009 -->
    <g transform="translate(375.22944 40.397235)scale(0.17 -0.17)">
     <defs>
      <path d="M 48.6875 27.296875 
Q 48.6875 37.203125 44.609375 42.84375 
Q 40.53125 48.484375 33.40625 48.484375 
Q 26.265625 48.484375 22.1875 42.84375 
Q 18.109375 37.203125 18.109375 27.296875 
Q 18.109375 17.390625 22.1875 11.75 
Q 26.265625 6.109375 33.40625 6.109375 
Q 40.53125 6.109375 44.609375 11.75 
Q 48.6875 17.390625 48.6875 27.296875 
z
M 18.109375 46.390625 
Q 20.953125 51.265625 25.265625 53.625 
Q 29.59375 56 35.59375 56 
Q 45.5625 56 51.78125 48.09375 
Q 58.015625 40.1875 58.015625 27.296875 
Q 58.015625 14.40625 51.78125 6.484375 
Q 45.5625 -1.421875 35.59375 -1.421875 
Q 29.59375 -1.421875 25.265625 0.953125 
Q 20.953125 3.328125 18.109375 8.203125 
L 18.109375 0 
L 9.078125 0 
L 9.078125 75.984375 
L 18.109375 75.984375 
z
" id="DejaVuSans-98"/>
      <path d="M 10.984375 1.515625 
L 10.984375 10.5 
Q 14.703125 8.734375 18.5 7.8125 
Q 22.3125 6.890625 25.984375 6.890625 
Q 35.75 6.890625 40.890625 13.453125 
Q 46.046875 20.015625 46.78125 33.40625 
Q 43.953125 29.203125 39.59375 26.953125 
Q 35.25 24.703125 29.984375 24.703125 
Q 19.046875 24.703125 12.671875 31.3125 
Q 6.296875 37.9375 6.296875 49.421875 
Q 6.296875 60.640625 12.9375 67.421875 
Q 19.578125 74.21875 30.609375 74.21875 
Q 43.265625 74.21875 49.921875 64.515625 
Q 56.59375 54.828125 56.59375 36.375 
Q 56.59375 19.140625 48.40625 8.859375 
Q 40.234375 -1.421875 26.421875 -1.421875 
Q 22.703125 -1.421875 18.890625 -0.6875 
Q 15.09375 0.046875 10.984375 1.515625 
z
M 30.609375 32.421875 
Q 37.25 32.421875 41.125 36.953125 
Q 45.015625 41.5 45.015625 49.421875 
Q 45.015625 57.28125 41.125 61.84375 
Q 37.25 66.40625 30.609375 66.40625 
Q 23.96875 66.40625 20.09375 61.84375 
Q 16.21875 57.28125 16.21875 49.421875 
Q 16.21875 41.5 20.09375 36.953125 
Q 23.96875 32.421875 30.609375 32.421875 
z
" id="DejaVuSans-57"/>
     </defs>
     <use xlink:href="#DejaVuSans-98"/>
     <use x="63.476562" xlink:href="#DejaVuSans-101"/>
     <use x="125" xlink:href="#DejaVuSans-115"/>
     <use x="177.099609" xlink:href="#DejaVuSans-116"/>
     <use x="216.308594" xlink:href="#DejaVuSans-32"/>
     <use x="248.095703" xlink:href="#DejaVuSans-50"/>
     <use x="311.71875" xlink:href="#DejaVuSans-48"/>
     <use x="375.341797" xlink:href="#DejaVuSans-48"/>
     <use x="438.964844" xlink:href="#DejaVuSans-57"/>
    </g>
   </g>
   <g id="text_16">
    <!-- bbob f9, 20-D -->
    <g transform="translate(60.41088 38.111366)scale(0.102 -0.102)">
     <defs>
      <path d="M 19.671875 64.796875 
L 19.671875 8.109375 
L 31.59375 8.109375 
Q 46.6875 8.109375 53.6875 14.9375 
Q 60.6875 21.78125 60.6875 36.53125 
Q 60.6875 51.171875 53.6875 57.984375 
Q 46.6875 64.796875 31.59375 64.796875 
z
M 9.8125 72.90625 
L 30.078125 72.90625 
Q 51.265625 72.90625 61.171875 64.09375 
Q 71.09375 55.28125 71.09375 36.53125 
Q 71.09375 17.671875 61.125 8.828125 
Q 51.171875 0 30.078125 0 
L 9.8125 0 
z
" id="DejaVuSans-68"/>
     </defs>
     <use xlink:href="#DejaVuSans-98"/>
     <use x="63.476562" xlink:href="#DejaVuSans-98"/>
     <use x="126.953125" xlink:href="#DejaVuSans-111"/>
     <use x="188.134766" xlink:href="#DejaVuSans-98"/>
     <use x="251.611328" xlink:href="#DejaVuSans-32"/>
     <use x="283.398438" xlink:href="#DejaVuSans-102"/>
     <use x="318.603516" xlink:href="#DejaVuSans-57"/>
     <use x="382.226562" xlink:href="#DejaVuSans-44"/>
     <use x="414.013672" xlink:href="#DejaVuSans-32"/>
     <use x="445.800781" xlink:href="#DejaVuSans-50"/>
     <use x="509.423828" xlink:href="#DejaVuSans-48"/>
     <use x="573.046875" xlink:href="#DejaVuSans-45"/>
     <use x="609.130859" xlink:href="#DejaVuSans-68"/>
    </g>
    <!-- 51 targets: 100..1e-08 -->
    <g transform="translate(60.41088 49.533135)scale(0.102 -0.102)">
     <defs>
      <path d="M 10.796875 72.90625 
L 49.515625 72.90625 
L 49.515625 64.59375 
L 19.828125 64.59375 
L 19.828125 46.734375 
Q 21.96875 47.46875 24.109375 47.828125 
Q 26.265625 48.1875 28.421875 48.1875 
Q 40.625 48.1875 47.75 41.5 
Q 54.890625 34.8125 54.890625 23.390625 
Q 54.890625 11.625 47.5625 5.09375 
Q 40.234375 -1.421875 26.90625 -1.421875 
Q 22.3125 -1.421875 17.546875 -0.640625 
Q 12.796875 0.140625 7.71875 1.703125 
L 7.71875 11.625 
Q 12.109375 9.234375 16.796875 8.0625 
Q 21.484375 6.890625 26.703125 6.890625 
Q 35.15625 6.890625 40.078125 11.328125 
Q 45.015625 15.765625 45.015625 23.390625 
Q 45.015625 31 40.078125 35.4375 
Q 35.15625 39.890625 26.703125 39.890625 
Q 22.75 39.890625 18.8125 39.015625 
Q 14.890625 38.140625 10.796875 36.28125 
z
" id="DejaVuSans-53"/>
      <path d="M 11.71875 12.40625 
L 22.015625 12.40625 
L 22.015625 0 
L 11.71875 0 
z
M 11.71875 51.703125 
L 22.015625 51.703125 
L 22.015625 39.3125 
L 11.71875 39.3125 
z
" id="DejaVuSans-58"/>
     </defs>
     <use xlink:href="#DejaVuSans-53"/>
     <use x="63.623047" xlink:href="#DejaVuSans-49"/>
     <use x="127.246094" xlink:href="#DejaVuSans-32"/>
     <use x="159.033203" xlink:href="#DejaVuSans-116"/>
     <use x="198.242188" xlink:href="#DejaVuSans-97"/>
     <use x="259.521484" xlink:href="#DejaVuSans-114"/>
     <use x="298.884766" xlink:href="#DejaVuSans-103"/>
     <use x="362.361328" xlink:href="#DejaVuSans-101"/>
     <use x="423.884766" xlink:href="#DejaVuSans-116"/>
     <use x="463.09375" xlink:href="#DejaVuSans-115"/>
     <use x="515.193359" xlink:href="#DejaVuSans-58"/>
     <use x="548.884766" xlink:href="#DejaVuSans-32"/>
     <use x="580.671875" xlink:href="#DejaVuSans-49"/>
     <use x="644.294922" xlink:href="#DejaVuSans-48"/>
     <use x="707.917969" xlink:href="#DejaVuSans-48"/>
     <use x="771.541016" xlink:href="#DejaVuSans-46"/>
     <use x="803.328125" xlink:href="#DejaVuSans-46"/>
     <use x="835.115234" xlink:href="#DejaVuSans-49"/>
     <use x="898.738281" xlink:href="#DejaVuSans-101"/>
     <use x="960.261719" xlink:href="#DejaVuSans-45"/>
     <use x="996.345703" xlink:href="#DejaVuSans-48"/>
     <use x="1059.96875" xlink:href="#DejaVuSans-56"/>
    </g>
    <!-- 15 instances -->
    <g transform="translate(60.41088 60.954904)scale(0.102 -0.102)">
     <use xlink:href="#DejaVuSans-49"/>
     <use x="63.623047" xlink:href="#DejaVuSans-53"/>
     <use x="127.246094" xlink:href="#DejaVuSans-32"/>
     <use x="159.033203" xlink:href="#DejaVuSans-105"/>
     <use x="186.816406" xlink:href="#DejaVuSans-110"/>
     <use x="250.195312" xlink:href="#DejaVuSans-115"/>
     <use x="302.294922" xlink:href="#DejaVuSans-116"/>
     <use x="341.503906" xlink:href="#DejaVuSans-97"/>
     <use x="402.783203" xlink:href="#DejaVuSans-110"/>
     <use x="466.162109" xlink:href="#DejaVuSans-99"/>
     <use x="521.142578" xlink:href="#DejaVuSans-101"/>
     <use x="582.666016" xlink:href="#DejaVuSans-115"/>
    </g>
   </g>
   <g id="text_17">
    <!-- v2.4 -->
    <g style="fill:#808080;" transform="translate(187.233062 294.151352)scale(0.1 -0.1)">
     <use xlink:href="#DejaVuSans-118"/>
     <use x="59.179688" xlink:href="#DejaVuSans-50"/>
     <use x="122.802734" xlink:href="#DejaVuSans-46"/>
     <use x="154.589844" xlink:href="#DejaVuSans-52"/>
    </g>
   </g>
   <g id="text_18">
    <!-- 9 Rosenbrock rotated -->
    <g transform="translate(90.990875 21.648)scale(0.2 -0.2)">
     <defs>
      <path d="M 44.390625 34.1875 
Q 47.5625 33.109375 50.5625 29.59375 
Q 53.5625 26.078125 56.59375 19.921875 
L 66.609375 0 
L 56 0 
L 46.6875 18.703125 
Q 43.0625 26.03125 39.671875 28.421875 
Q 36.28125 30.8125 30.421875 30.8125 
L 19.671875 30.8125 
L 19.671875 0 
L 9.8125 0 
L 9.8125 72.90625 
L 32.078125 72.90625 
Q 44.578125 72.90625 50.734375 67.671875 
Q 56.890625 62.453125 56.890625 51.90625 
Q 56.890625 45.015625 53.6875 40.46875 
Q 50.484375 35.9375 44.390625 34.1875 
z
M 19.671875 64.796875 
L 19.671875 38.921875 
L 32.078125 38.921875 
Q 39.203125 38.921875 42.84375 42.21875 
Q 46.484375 45.515625 46.484375 51.90625 
Q 46.484375 58.296875 42.84375 61.546875 
Q 39.203125 64.796875 32.078125 64.796875 
z
" id="DejaVuSans-82"/>
      <path d="M 9.078125 75.984375 
L 18.109375 75.984375 
L 18.109375 31.109375 
L 44.921875 54.6875 
L 56.390625 54.6875 
L 27.390625 29.109375 
L 57.625 0 
L 45.90625 0 
L 18.109375 26.703125 
L 18.109375 0 
L 9.078125 0 
z
" id="DejaVuSans-107"/>
     </defs>
     <use xlink:href="#DejaVuSans-57"/>
     <use x="63.623047" xlink:href="#DejaVuSans-32"/>
     <use x="95.410156" xlink:href="#DejaVuSans-82"/>
     <use x="160.392578" xlink:href="#DejaVuSans-111"/>
     <use x="221.574219" xlink:href="#DejaVuSans-115"/>
     <use x="273.673828" xlink:href="#DejaVuSans-101"/>
     <use x="335.197266" xlink:href="#DejaVuSans-110"/>
     <use x="398.576172" xlink:href="#DejaVuSans-98"/>
     <use x="462.052734" xlink:href="#DejaVuSans-114"/>
     <use x="500.916016" xlink:href="#DejaVuSans-111"/>
     <use x="562.097656" xlink:href="#DejaVuSans-99"/>
     <use x="617.078125" xlink:href="#DejaVuSans-107"/>
     <use x="674.988281" xlink:href="#DejaVuSans-32"/>
     <use x="706.775391" xlink:href="#DejaVuSans-114"/>
     <use x="745.638672" xlink:href="#DejaVuSans-111"/>
     <use x="806.820312" xlink:href="#DejaVuSans-116"/>
     <use x="846.029297" xlink:href="#DejaVuSans-97"/>
     <use x="907.308594" xlink:href="#DejaVuSans-116"/>
     <use x="946.517578" xlink:href="#DejaVuSans-101"/>
     <use x="1008.041016" xlink:href="#DejaVuSans-100"/>
    </g>
   </g>
  </g>
 </g>
 <defs>
  <clipPath id="p8c2e1762a3">
   <rect height="271.296" width="281.088" x="57.6" y="27.648"/>
  </clipPath>
 </defs>
</svg>
