<?xml version="1.0" encoding="utf-8" standalone="no"?>
<!DOCTYPE svg PUBLIC "-//W3C//DTD SVG 1.1//EN"
  "http://www.w3.org/Graphics/SVG/1.1/DTD/svg11.dtd">
<!-- Created with matplotlib (https://matplotlib.org/) -->
<svg height="345.6pt" version="1.1" viewBox="0 0 460.8 345.6" width="460.8pt" xmlns="http://www.w3.org/2000/svg" xmlns:xlink="http://www.w3.org/1999/xlink">
 <metadata>
  <rdf:RDF xmlns:cc="http://creativecommons.org/ns#" xmlns:dc="http://purl.org/dc/elements/1.1/" xmlns:rdf="http://www.w3.org/1999/02/22-rdf-syntax-ns#">
   <cc:Work>
    <dc:type rdf:resource="http://purl.org/dc/dcmitype/StillImage"/>
    <dc:date>2021-06-17T01:40:22.250467</dc:date>
    <dc:format>image/svg+xml</dc:format>
    <dc:creator>
     <cc:Agent>
      <dc:title>Matplotlib v3.3.4, https://matplotlib.org/</dc:title>
     </cc:Agent>
    </dc:creator>
   </cc:Work>
  </rdf:RDF>
 </metadata>
 <defs>
  <style type="text/css">*{stroke-linecap:butt;stroke-linejoin:round;}</style>
 </defs>
 <g id="figure_1">
  <g id="patch_1">
   <path d="M 0 345.6 
L 460.8 345.6 
L 460.8 0 
L 0 0 
z
" style="fill:#ffffff;"/>
  </g>
  <g id="axes_1">
   <g id="patch_2">
    <path d="M 57.6 298.944 
L 338.688 298.944 
L 338.688 27.648 
L 57.6 27.648 
z
" style="fill:#ffffff;"/>
   </g>
   <g id="line2d_1">
    <path d="M 124.378229 298.944 
L 124.378229 293.677139 
L 126.847261 293.677139 
L 126.847261 288.410278 
L 128.987887 288.410278 
L 128.987887 283.143418 
L 130.763373 283.143418 
L 130.763373 277.876557 
L 133.205004 277.876557 
L 133.205004 272.609696 
L 135.617009 272.609696 
L 135.617009 267.342835 
L 137.567432 267.342835 
L 137.567432 262.075974 
L 139.413734 262.075974 
L 139.413734 256.809114 
L 141.202681 256.809114 
L 141.202681 251.542253 
L 142.294085 251.542253 
L 142.294085 246.275392 
L 143.537237 246.275392 
L 143.537237 241.008531 
L 144.49259 241.008531 
L 144.49259 235.74167 
L 145.089089 235.74167 
L 145.089089 230.47481 
L 146.052799 230.47481 
L 146.052799 225.207949 
L 146.986771 225.207949 
L 146.986771 219.941088 
L 148.083753 219.941088 
L 148.083753 214.674227 
L 149.438419 214.674227 
L 149.438419 209.407366 
L 150.772725 209.407366 
L 150.772725 204.140506 
L 151.477707 204.140506 
L 151.477707 198.873645 
L 152.337344 198.873645 
L 152.337344 193.606784 
L 152.940632 193.606784 
L 152.940632 188.339923 
L 153.640896 188.339923 
L 153.640896 183.073062 
L 154.261279 183.073062 
L 154.261279 177.806202 
L 154.921277 177.806202 
L 154.921277 172.539341 
L 155.656773 172.539341 
L 155.656773 167.27248 
L 156.385187 167.27248 
L 156.385187 162.005619 
L 157.004345 162.005619 
L 157.004345 156.738758 
L 157.592403 156.738758 
L 157.592403 151.471897 
L 158.131218 151.471897 
L 158.131218 146.205037 
L 158.436215 146.205037 
L 158.436215 140.938176 
L 158.830813 140.938176 
L 158.830813 135.671315 
L 159.092886 135.671315 
L 159.092886 130.404454 
L 159.452789 130.404454 
L 159.452789 125.137593 
L 160.058242 125.137593 
L 160.058242 119.870733 
L 160.537682 119.870733 
L 160.537682 114.603872 
L 160.969465 114.603872 
L 160.969465 109.337011 
L 161.442917 109.337011 
L 161.442917 104.07015 
L 161.787817 104.07015 
L 161.787817 98.803289 
L 162.146679 98.803289 
L 162.146679 93.536429 
L 162.595968 93.536429 
L 162.595968 88.269568 
L 162.865926 88.269568 
L 162.865926 83.002707 
L 163.435034 83.002707 
L 163.435034 77.735846 
L 164.021308 77.735846 
L 164.021308 72.468985 
L 164.502369 72.468985 
L 164.502369 67.202125 
L 164.968668 67.202125 
L 164.968668 61.935264 
L 165.286362 61.935264 
L 165.286362 56.668403 
L 165.528722 56.668403 
L 165.528722 51.401542 
L 165.833826 51.401542 
L 165.833826 46.134681 
L 166.046178 46.134681 
L 166.046178 40.867821 
L 166.339876 40.867821 
L 166.339876 35.60096 
L 166.711675 35.60096 
L 166.711675 30.334099 
L 338.688 30.334099 
" style="fill:none;stroke:#f5deb3;stroke-linecap:square;stroke-width:4;"/>
   </g>
   <g id="line2d_2">
    <defs>
     <path d="M -0 7.778175 
L 7.778175 0 
L 0 -7.778175 
L -7.778175 -0 
z
" id="m656ba1a17c" style="stroke:#f5deb3;stroke-linejoin:miter;stroke-width:1.5;"/>
    </defs>
    <g>
     <use style="fill:#f5deb3;stroke:#f5deb3;stroke-linejoin:miter;stroke-width:1.5;" x="144.49259" xlink:href="#m656ba1a17c" y="235.74167"/>
     <use style="fill:#f5deb3;stroke:#f5deb3;stroke-linejoin:miter;stroke-width:1.5;" x="160.969465" xlink:href="#m656ba1a17c" y="109.337011"/>
     <use style="fill:#f5deb3;stroke:#f5deb3;stroke-linejoin:miter;stroke-width:1.5;" x="166.711675" xlink:href="#m656ba1a17c" y="35.60096"/>
     <use style="fill:#f5deb3;stroke:#f5deb3;stroke-linejoin:miter;stroke-width:1.5;" x="166.711675" xlink:href="#m656ba1a17c" y="30.334099"/>
     <use style="fill:#f5deb3;stroke:#f5deb3;stroke-linejoin:miter;stroke-width:1.5;" x="338.688" xlink:href="#m656ba1a17c" y="30.334099"/>
    </g>
   </g>
   <g id="line2d_3">
    <path style="fill:none;stroke:#f5deb3;stroke-linecap:square;stroke-width:4;"/>
    <g/>
   </g>
   <g id="line2d_4">
    <path d="M 338.688 30.334099 
L 369.60768 35.706297 
" style="fill:none;stroke:#f5deb3;stroke-linecap:square;stroke-width:4;"/>
    <g>
     <use style="fill:#f5deb3;stroke:#f5deb3;stroke-linejoin:miter;stroke-width:1.5;" x="338.688" xlink:href="#m656ba1a17c" y="30.334099"/>
     <use style="fill:#f5deb3;stroke:#f5deb3;stroke-linejoin:miter;stroke-width:1.5;" x="369.60768" xlink:href="#m656ba1a17c" y="35.706297"/>
    </g>
   </g>
   <g id="matplotlib.axis_1">
    <g id="xtick_1">
     <g id="line2d_5">
      <path clip-path="url(#p1f72ec3fd6)" d="M 57.6 298.944 
L 57.6 27.648 
" style="fill:none;stroke:#b0b0b0;stroke-linecap:square;stroke-width:0.8;"/>
     </g>
     <g id="line2d_6">
      <defs>
       <path d="M 0 0 
L 0 3.5 
" id="m74fc1e7873" style="stroke:#000000;stroke-width:0.8;"/>
      </defs>
      <g>
       <use style="stroke:#000000;stroke-width:0.8;" x="57.6" xlink:href="#m74fc1e7873" y="298.944"/>
      </g>
     </g>
     <g id="text_1">
      <!-- 0 -->
      <g transform="translate(51.2375 321.140875)scale(0.2 -0.2)">
       <defs>
        <path d="M 31.78125 66.40625 
Q 24.171875 66.40625 20.328125 58.90625 
Q 16.5 51.421875 16.5 36.375 
Q 16.5 21.390625 20.328125 13.890625 
Q 24.171875 6.390625 31.78125 6.390625 
Q 39.453125 6.390625 43.28125 13.890625 
Q 47.125 21.390625 47.125 36.375 
Q 47.125 51.421875 43.28125 58.90625 
Q 39.453125 66.40625 31.78125 66.40625 
z
M 31.78125 74.21875 
Q 44.046875 74.21875 50.515625 64.515625 
Q 56.984375 54.828125 56.984375 36.375 
Q 56.984375 17.96875 50.515625 8.265625 
Q 44.046875 -1.421875 31.78125 -1.421875 
Q 19.53125 -1.421875 13.0625 8.265625 
Q 6.59375 17.96875 6.59375 36.375 
Q 6.59375 54.828125 13.0625 64.515625 
Q 19.53125 74.21875 31.78125 74.21875 
z
" id="DejaVuSans-48"/>
       </defs>
       <use xlink:href="#DejaVuSans-48"/>
      </g>
     </g>
    </g>
    <g id="xtick_2">
     <g id="line2d_7">
      <path clip-path="url(#p1f72ec3fd6)" d="M 137.910857 298.944 
L 137.910857 27.648 
" style="fill:none;stroke:#b0b0b0;stroke-linecap:square;stroke-width:0.8;"/>
     </g>
     <g id="line2d_8">
      <g>
       <use style="stroke:#000000;stroke-width:0.8;" x="137.910857" xlink:href="#m74fc1e7873" y="298.944"/>
      </g>
     </g>
     <g id="text_2">
      <!-- 2 -->
      <g transform="translate(131.548357 321.140875)scale(0.2 -0.2)">
       <defs>
        <path d="M 19.1875 8.296875 
L 53.609375 8.296875 
L 53.609375 0 
L 7.328125 0 
L 7.328125 8.296875 
Q 12.9375 14.109375 22.625 23.890625 
Q 32.328125 33.6875 34.8125 36.53125 
Q 39.546875 41.84375 41.421875 45.53125 
Q 43.3125 49.21875 43.3125 52.78125 
Q 43.3125 58.59375 39.234375 62.25 
Q 35.15625 65.921875 28.609375 65.921875 
Q 23.96875 65.921875 18.8125 64.3125 
Q 13.671875 62.703125 7.8125 59.421875 
L 7.8125 69.390625 
Q 13.765625 71.78125 18.9375 73 
Q 24.125 74.21875 28.421875 74.21875 
Q 39.75 74.21875 46.484375 68.546875 
Q 53.21875 62.890625 53.21875 53.421875 
Q 53.21875 48.921875 51.53125 44.890625 
Q 49.859375 40.875 45.40625 35.40625 
Q 44.1875 33.984375 37.640625 27.21875 
Q 31.109375 20.453125 19.1875 8.296875 
z
" id="DejaVuSans-50"/>
       </defs>
       <use xlink:href="#DejaVuSans-50"/>
      </g>
     </g>
    </g>
    <g id="xtick_3">
     <g id="line2d_9">
      <path clip-path="url(#p1f72ec3fd6)" d="M 218.221714 298.944 
L 218.221714 27.648 
" style="fill:none;stroke:#b0b0b0;stroke-linecap:square;stroke-width:0.8;"/>
     </g>
     <g id="line2d_10">
      <g>
       <use style="stroke:#000000;stroke-width:0.8;" x="218.221714" xlink:href="#m74fc1e7873" y="298.944"/>
      </g>
     </g>
     <g id="text_3">
      <!-- 4 -->
      <g transform="translate(211.859214 321.140875)scale(0.2 -0.2)">
       <defs>
        <path d="M 37.796875 64.3125 
L 12.890625 25.390625 
L 37.796875 25.390625 
z
M 35.203125 72.90625 
L 47.609375 72.90625 
L 47.609375 25.390625 
L 58.015625 25.390625 
L 58.015625 17.1875 
L 47.609375 17.1875 
L 47.609375 0 
L 37.796875 0 
L 37.796875 17.1875 
L 4.890625 17.1875 
L 4.890625 26.703125 
z
" id="DejaVuSans-52"/>
       </defs>
       <use xlink:href="#DejaVuSans-52"/>
      </g>
     </g>
    </g>
    <g id="xtick_4">
     <g id="line2d_11">
      <path clip-path="url(#p1f72ec3fd6)" d="M 298.532571 298.944 
L 298.532571 27.648 
" style="fill:none;stroke:#b0b0b0;stroke-linecap:square;stroke-width:0.8;"/>
     </g>
     <g id="line2d_12">
      <g>
       <use style="stroke:#000000;stroke-width:0.8;" x="298.532571" xlink:href="#m74fc1e7873" y="298.944"/>
      </g>
     </g>
     <g id="text_4">
      <!-- 6 -->
      <g transform="translate(292.170071 321.140875)scale(0.2 -0.2)">
       <defs>
        <path d="M 33.015625 40.375 
Q 26.375 40.375 22.484375 35.828125 
Q 18.609375 31.296875 18.609375 23.390625 
Q 18.609375 15.53125 22.484375 10.953125 
Q 26.375 6.390625 33.015625 6.390625 
Q 39.65625 6.390625 43.53125 10.953125 
Q 47.40625 15.53125 47.40625 23.390625 
Q 47.40625 31.296875 43.53125 35.828125 
Q 39.65625 40.375 33.015625 40.375 
z
M 52.59375 71.296875 
L 52.59375 62.3125 
Q 48.875 64.0625 45.09375 64.984375 
Q 41.3125 65.921875 37.59375 65.921875 
Q 27.828125 65.921875 22.671875 59.328125 
Q 17.53125 52.734375 16.796875 39.40625 
Q 19.671875 43.65625 24.015625 45.921875 
Q 28.375 48.1875 33.59375 48.1875 
Q 44.578125 48.1875 50.953125 41.515625 
Q 57.328125 34.859375 57.328125 23.390625 
Q 57.328125 12.15625 50.6875 5.359375 
Q 44.046875 -1.421875 33.015625 -1.421875 
Q 20.359375 -1.421875 13.671875 8.265625 
Q 6.984375 17.96875 6.984375 36.375 
Q 6.984375 53.65625 15.1875 63.9375 
Q 23.390625 74.21875 37.203125 74.21875 
Q 40.921875 74.21875 44.703125 73.484375 
Q 48.484375 72.75 52.59375 71.296875 
z
" id="DejaVuSans-54"/>
       </defs>
       <use xlink:href="#DejaVuSans-54"/>
      </g>
     </g>
    </g>
    <g id="xtick_5">
     <g id="line2d_13">
      <path clip-path="url(#p1f72ec3fd6)" d="M 97.755429 298.944 
L 97.755429 27.648 
" style="fill:none;stroke:#b0b0b0;stroke-linecap:square;stroke-width:0.8;"/>
     </g>
     <g id="line2d_14">
      <defs>
       <path d="M 0 0 
L 0 2 
" id="m95924762ac" style="stroke:#000000;stroke-width:0.6;"/>
      </defs>
      <g>
       <use style="stroke:#000000;stroke-width:0.6;" x="97.755429" xlink:href="#m95924762ac" y="298.944"/>
      </g>
     </g>
    </g>
    <g id="xtick_6">
     <g id="line2d_15">
      <path clip-path="url(#p1f72ec3fd6)" d="M 178.066286 298.944 
L 178.066286 27.648 
" style="fill:none;stroke:#b0b0b0;stroke-linecap:square;stroke-width:0.8;"/>
     </g>
     <g id="line2d_16">
      <g>
       <use style="stroke:#000000;stroke-width:0.6;" x="178.066286" xlink:href="#m95924762ac" y="298.944"/>
      </g>
     </g>
    </g>
    <g id="xtick_7">
     <g id="line2d_17">
      <path clip-path="url(#p1f72ec3fd6)" d="M 258.377143 298.944 
L 258.377143 27.648 
" style="fill:none;stroke:#b0b0b0;stroke-linecap:square;stroke-width:0.8;"/>
     </g>
     <g id="line2d_18">
      <g>
       <use style="stroke:#000000;stroke-width:0.6;" x="258.377143" xlink:href="#m95924762ac" y="298.944"/>
      </g>
     </g>
    </g>
    <g id="xtick_8">
     <g id="line2d_19">
      <path clip-path="url(#p1f72ec3fd6)" d="M 338.688 298.944 
L 338.688 27.648 
" style="fill:none;stroke:#b0b0b0;stroke-linecap:square;stroke-width:0.8;"/>
     </g>
     <g id="line2d_20">
      <g>
       <use style="stroke:#000000;stroke-width:0.6;" x="338.688" xlink:href="#m95924762ac" y="298.944"/>
      </g>
     </g>
    </g>
    <g id="text_5">
     <!-- log10(# f-evals / dimension) -->
     <g transform="translate(77.764078 342.217594)scale(0.17 -0.17)">
      <defs>
       <path d="M 9.421875 75.984375 
L 18.40625 75.984375 
L 18.40625 0 
L 9.421875 0 
z
" id="DejaVuSans-108"/>
       <path d="M 30.609375 48.390625 
Q 23.390625 48.390625 19.1875 42.75 
Q 14.984375 37.109375 14.984375 27.296875 
Q 14.984375 17.484375 19.15625 11.84375 
Q 23.34375 6.203125 30.609375 6.203125 
Q 37.796875 6.203125 41.984375 11.859375 
Q 46.1875 17.53125 46.1875 27.296875 
Q 46.1875 37.015625 41.984375 42.703125 
Q 37.796875 48.390625 30.609375 48.390625 
z
M 30.609375 56 
Q 42.328125 56 49.015625 48.375 
Q 55.71875 40.765625 55.71875 27.296875 
Q 55.71875 13.875 49.015625 6.21875 
Q 42.328125 -1.421875 30.609375 -1.421875 
Q 18.84375 -1.421875 12.171875 6.21875 
Q 5.515625 13.875 5.515625 27.296875 
Q 5.515625 40.765625 12.171875 48.375 
Q 18.84375 56 30.609375 56 
z
" id="DejaVuSans-111"/>
       <path d="M 45.40625 27.984375 
Q 45.40625 37.75 41.375 43.109375 
Q 37.359375 48.484375 30.078125 48.484375 
Q 22.859375 48.484375 18.828125 43.109375 
Q 14.796875 37.75 14.796875 27.984375 
Q 14.796875 18.265625 18.828125 12.890625 
Q 22.859375 7.515625 30.078125 7.515625 
Q 37.359375 7.515625 41.375 12.890625 
Q 45.40625 18.265625 45.40625 27.984375 
z
M 54.390625 6.78125 
Q 54.390625 -7.171875 48.1875 -13.984375 
Q 42 -20.796875 29.203125 -20.796875 
Q 24.46875 -20.796875 20.265625 -20.09375 
Q 16.0625 -19.390625 12.109375 -17.921875 
L 12.109375 -9.1875 
Q 16.0625 -11.328125 19.921875 -12.34375 
Q 23.78125 -13.375 27.78125 -13.375 
Q 36.625 -13.375 41.015625 -8.765625 
Q 45.40625 -4.15625 45.40625 5.171875 
L 45.40625 9.625 
Q 42.625 4.78125 38.28125 2.390625 
Q 33.9375 0 27.875 0 
Q 17.828125 0 11.671875 7.65625 
Q 5.515625 15.328125 5.515625 27.984375 
Q 5.515625 40.671875 11.671875 48.328125 
Q 17.828125 56 27.875 56 
Q 33.9375 56 38.28125 53.609375 
Q 42.625 51.21875 45.40625 46.390625 
L 45.40625 54.6875 
L 54.390625 54.6875 
z
" id="DejaVuSans-103"/>
       <path d="M 12.40625 8.296875 
L 28.515625 8.296875 
L 28.515625 63.921875 
L 10.984375 60.40625 
L 10.984375 69.390625 
L 28.421875 72.90625 
L 38.28125 72.90625 
L 38.28125 8.296875 
L 54.390625 8.296875 
L 54.390625 0 
L 12.40625 0 
z
" id="DejaVuSans-49"/>
       <path d="M 31 75.875 
Q 24.46875 64.65625 21.28125 53.65625 
Q 18.109375 42.671875 18.109375 31.390625 
Q 18.109375 20.125 21.3125 9.0625 
Q 24.515625 -2 31 -13.1875 
L 23.1875 -13.1875 
Q 15.875 -1.703125 12.234375 9.375 
Q 8.59375 20.453125 8.59375 31.390625 
Q 8.59375 42.28125 12.203125 53.3125 
Q 15.828125 64.359375 23.1875 75.875 
z
" id="DejaVuSans-40"/>
       <path d="M 51.125 44 
L 36.921875 44 
L 32.8125 27.6875 
L 47.125 27.6875 
z
M 43.796875 71.78125 
L 38.71875 51.515625 
L 52.984375 51.515625 
L 58.109375 71.78125 
L 65.921875 71.78125 
L 60.890625 51.515625 
L 76.125 51.515625 
L 76.125 44 
L 58.984375 44 
L 54.984375 27.6875 
L 70.515625 27.6875 
L 70.515625 20.21875 
L 53.078125 20.21875 
L 48 0 
L 40.1875 0 
L 45.21875 20.21875 
L 30.90625 20.21875 
L 25.875 0 
L 18.015625 0 
L 23.09375 20.21875 
L 7.71875 20.21875 
L 7.71875 27.6875 
L 24.90625 27.6875 
L 29 44 
L 13.28125 44 
L 13.28125 51.515625 
L 30.90625 51.515625 
L 35.890625 71.78125 
z
" id="DejaVuSans-35"/>
       <path id="DejaVuSans-32"/>
       <path d="M 37.109375 75.984375 
L 37.109375 68.5 
L 28.515625 68.5 
Q 23.6875 68.5 21.796875 66.546875 
Q 19.921875 64.59375 19.921875 59.515625 
L 19.921875 54.6875 
L 34.71875 54.6875 
L 34.71875 47.703125 
L 19.921875 47.703125 
L 19.921875 0 
L 10.890625 0 
L 10.890625 47.703125 
L 2.296875 47.703125 
L 2.296875 54.6875 
L 10.890625 54.6875 
L 10.890625 58.5 
Q 10.890625 67.625 15.140625 71.796875 
Q 19.390625 75.984375 28.609375 75.984375 
z
" id="DejaVuSans-102"/>
       <path d="M 4.890625 31.390625 
L 31.203125 31.390625 
L 31.203125 23.390625 
L 4.890625 23.390625 
z
" id="DejaVuSans-45"/>
       <path d="M 56.203125 29.59375 
L 56.203125 25.203125 
L 14.890625 25.203125 
Q 15.484375 15.921875 20.484375 11.0625 
Q 25.484375 6.203125 34.421875 6.203125 
Q 39.59375 6.203125 44.453125 7.46875 
Q 49.3125 8.734375 54.109375 11.28125 
L 54.109375 2.78125 
Q 49.265625 0.734375 44.1875 -0.34375 
Q 39.109375 -1.421875 33.890625 -1.421875 
Q 20.796875 -1.421875 13.15625 6.1875 
Q 5.515625 13.8125 5.515625 26.8125 
Q 5.515625 40.234375 12.765625 48.109375 
Q 20.015625 56 32.328125 56 
Q 43.359375 56 49.78125 48.890625 
Q 56.203125 41.796875 56.203125 29.59375 
z
M 47.21875 32.234375 
Q 47.125 39.59375 43.09375 43.984375 
Q 39.0625 48.390625 32.421875 48.390625 
Q 24.90625 48.390625 20.390625 44.140625 
Q 15.875 39.890625 15.1875 32.171875 
z
" id="DejaVuSans-101"/>
       <path d="M 2.984375 54.6875 
L 12.5 54.6875 
L 29.59375 8.796875 
L 46.6875 54.6875 
L 56.203125 54.6875 
L 35.6875 0 
L 23.484375 0 
z
" id="DejaVuSans-118"/>
       <path d="M 34.28125 27.484375 
Q 23.390625 27.484375 19.1875 25 
Q 14.984375 22.515625 14.984375 16.5 
Q 14.984375 11.71875 18.140625 8.90625 
Q 21.296875 6.109375 26.703125 6.109375 
Q 34.1875 6.109375 38.703125 11.40625 
Q 43.21875 16.703125 43.21875 25.484375 
L 43.21875 27.484375 
z
M 52.203125 31.203125 
L 52.203125 0 
L 43.21875 0 
L 43.21875 8.296875 
Q 40.140625 3.328125 35.546875 0.953125 
Q 30.953125 -1.421875 24.3125 -1.421875 
Q 15.921875 -1.421875 10.953125 3.296875 
Q 6 8.015625 6 15.921875 
Q 6 25.140625 12.171875 29.828125 
Q 18.359375 34.515625 30.609375 34.515625 
L 43.21875 34.515625 
L 43.21875 35.40625 
Q 43.21875 41.609375 39.140625 45 
Q 35.0625 48.390625 27.6875 48.390625 
Q 23 48.390625 18.546875 47.265625 
Q 14.109375 46.140625 10.015625 43.890625 
L 10.015625 52.203125 
Q 14.9375 54.109375 19.578125 55.046875 
Q 24.21875 56 28.609375 56 
Q 40.484375 56 46.34375 49.84375 
Q 52.203125 43.703125 52.203125 31.203125 
z
" id="DejaVuSans-97"/>
       <path d="M 44.28125 53.078125 
L 44.28125 44.578125 
Q 40.484375 46.53125 36.375 47.5 
Q 32.28125 48.484375 27.875 48.484375 
Q 21.1875 48.484375 17.84375 46.4375 
Q 14.5 44.390625 14.5 40.28125 
Q 14.5 37.15625 16.890625 35.375 
Q 19.28125 33.59375 26.515625 31.984375 
L 29.59375 31.296875 
Q 39.15625 29.25 43.1875 25.515625 
Q 47.21875 21.78125 47.21875 15.09375 
Q 47.21875 7.46875 41.1875 3.015625 
Q 35.15625 -1.421875 24.609375 -1.421875 
Q 20.21875 -1.421875 15.453125 -0.5625 
Q 10.6875 0.296875 5.421875 2 
L 5.421875 11.28125 
Q 10.40625 8.6875 15.234375 7.390625 
Q 20.0625 6.109375 24.8125 6.109375 
Q 31.15625 6.109375 34.5625 8.28125 
Q 37.984375 10.453125 37.984375 14.40625 
Q 37.984375 18.0625 35.515625 20.015625 
Q 33.0625 21.96875 24.703125 23.78125 
L 21.578125 24.515625 
Q 13.234375 26.265625 9.515625 29.90625 
Q 5.8125 33.546875 5.8125 39.890625 
Q 5.8125 47.609375 11.28125 51.796875 
Q 16.75 56 26.8125 56 
Q 31.78125 56 36.171875 55.265625 
Q 40.578125 54.546875 44.28125 53.078125 
z
" id="DejaVuSans-115"/>
       <path d="M 25.390625 72.90625 
L 33.6875 72.90625 
L 8.296875 -9.28125 
L 0 -9.28125 
z
" id="DejaVuSans-47"/>
       <path d="M 45.40625 46.390625 
L 45.40625 75.984375 
L 54.390625 75.984375 
L 54.390625 0 
L 45.40625 0 
L 45.40625 8.203125 
Q 42.578125 3.328125 38.25 0.953125 
Q 33.9375 -1.421875 27.875 -1.421875 
Q 17.96875 -1.421875 11.734375 6.484375 
Q 5.515625 14.40625 5.515625 27.296875 
Q 5.515625 40.1875 11.734375 48.09375 
Q 17.96875 56 27.875 56 
Q 33.9375 56 38.25 53.625 
Q 42.578125 51.265625 45.40625 46.390625 
z
M 14.796875 27.296875 
Q 14.796875 17.390625 18.875 11.75 
Q 22.953125 6.109375 30.078125 6.109375 
Q 37.203125 6.109375 41.296875 11.75 
Q 45.40625 17.390625 45.40625 27.296875 
Q 45.40625 37.203125 41.296875 42.84375 
Q 37.203125 48.484375 30.078125 48.484375 
Q 22.953125 48.484375 18.875 42.84375 
Q 14.796875 37.203125 14.796875 27.296875 
z
" id="DejaVuSans-100"/>
       <path d="M 9.421875 54.6875 
L 18.40625 54.6875 
L 18.40625 0 
L 9.421875 0 
z
M 9.421875 75.984375 
L 18.40625 75.984375 
L 18.40625 64.59375 
L 9.421875 64.59375 
z
" id="DejaVuSans-105"/>
       <path d="M 52 44.1875 
Q 55.375 50.25 60.0625 53.125 
Q 64.75 56 71.09375 56 
Q 79.640625 56 84.28125 50.015625 
Q 88.921875 44.046875 88.921875 33.015625 
L 88.921875 0 
L 79.890625 0 
L 79.890625 32.71875 
Q 79.890625 40.578125 77.09375 44.375 
Q 74.3125 48.1875 68.609375 48.1875 
Q 61.625 48.1875 57.5625 43.546875 
Q 53.515625 38.921875 53.515625 30.90625 
L 53.515625 0 
L 44.484375 0 
L 44.484375 32.71875 
Q 44.484375 40.625 41.703125 44.40625 
Q 38.921875 48.1875 33.109375 48.1875 
Q 26.21875 48.1875 22.15625 43.53125 
Q 18.109375 38.875 18.109375 30.90625 
L 18.109375 0 
L 9.078125 0 
L 9.078125 54.6875 
L 18.109375 54.6875 
L 18.109375 46.1875 
Q 21.1875 51.21875 25.484375 53.609375 
Q 29.78125 56 35.6875 56 
Q 41.65625 56 45.828125 52.96875 
Q 50 49.953125 52 44.1875 
z
" id="DejaVuSans-109"/>
       <path d="M 54.890625 33.015625 
L 54.890625 0 
L 45.90625 0 
L 45.90625 32.71875 
Q 45.90625 40.484375 42.875 44.328125 
Q 39.84375 48.1875 33.796875 48.1875 
Q 26.515625 48.1875 22.3125 43.546875 
Q 18.109375 38.921875 18.109375 30.90625 
L 18.109375 0 
L 9.078125 0 
L 9.078125 54.6875 
L 18.109375 54.6875 
L 18.109375 46.1875 
Q 21.34375 51.125 25.703125 53.5625 
Q 30.078125 56 35.796875 56 
Q 45.21875 56 50.046875 50.171875 
Q 54.890625 44.34375 54.890625 33.015625 
z
" id="DejaVuSans-110"/>
       <path d="M 8.015625 75.875 
L 15.828125 75.875 
Q 23.140625 64.359375 26.78125 53.3125 
Q 30.421875 42.28125 30.421875 31.390625 
Q 30.421875 20.453125 26.78125 9.375 
Q 23.140625 -1.703125 15.828125 -13.1875 
L 8.015625 -13.1875 
Q 14.5 -2 17.703125 9.0625 
Q 20.90625 20.125 20.90625 31.390625 
Q 20.90625 42.671875 17.703125 53.65625 
Q 14.5 64.65625 8.015625 75.875 
z
" id="DejaVuSans-41"/>
      </defs>
      <use xlink:href="#DejaVuSans-108"/>
      <use x="27.783203" xlink:href="#DejaVuSans-111"/>
      <use x="88.964844" xlink:href="#DejaVuSans-103"/>
      <use x="152.441406" xlink:href="#DejaVuSans-49"/>
      <use x="216.064453" xlink:href="#DejaVuSans-48"/>
      <use x="279.6875" xlink:href="#DejaVuSans-40"/>
      <use x="318.701172" xlink:href="#DejaVuSans-35"/>
      <use x="402.490234" xlink:href="#DejaVuSans-32"/>
      <use x="434.277344" xlink:href="#DejaVuSans-102"/>
      <use x="463.982422" xlink:href="#DejaVuSans-45"/>
      <use x="500.066406" xlink:href="#DejaVuSans-101"/>
      <use x="561.589844" xlink:href="#DejaVuSans-118"/>
      <use x="620.769531" xlink:href="#DejaVuSans-97"/>
      <use x="682.048828" xlink:href="#DejaVuSans-108"/>
      <use x="709.832031" xlink:href="#DejaVuSans-115"/>
      <use x="761.931641" xlink:href="#DejaVuSans-32"/>
      <use x="793.71875" xlink:href="#DejaVuSans-47"/>
      <use x="827.410156" xlink:href="#DejaVuSans-32"/>
      <use x="859.197266" xlink:href="#DejaVuSans-100"/>
      <use x="922.673828" xlink:href="#DejaVuSans-105"/>
      <use x="950.457031" xlink:href="#DejaVuSans-109"/>
      <use x="1047.869141" xlink:href="#DejaVuSans-101"/>
      <use x="1109.392578" xlink:href="#DejaVuSans-110"/>
      <use x="1172.771484" xlink:href="#DejaVuSans-115"/>
      <use x="1224.871094" xlink:href="#DejaVuSans-105"/>
      <use x="1252.654297" xlink:href="#DejaVuSans-111"/>
      <use x="1313.835938" xlink:href="#DejaVuSans-110"/>
      <use x="1377.214844" xlink:href="#DejaVuSans-41"/>
     </g>
    </g>
   </g>
   <g id="matplotlib.axis_2">
    <g id="ytick_1">
     <g id="line2d_21">
      <path clip-path="url(#p1f72ec3fd6)" d="M 57.6 298.944 
L 338.688 298.944 
" style="fill:none;stroke:#b0b0b0;stroke-linecap:square;stroke-width:0.8;"/>
     </g>
     <g id="line2d_22">
      <defs>
       <path d="M 0 0 
L -3.5 0 
" id="mfadae03f21" style="stroke:#000000;stroke-width:0.8;"/>
      </defs>
      <g>
       <use style="stroke:#000000;stroke-width:0.8;" x="57.6" xlink:href="#mfadae03f21" y="298.944"/>
      </g>
     </g>
     <g id="text_6">
      <!-- 0.0 -->
      <g transform="translate(25.155 305.02275)scale(0.16 -0.16)">
       <defs>
        <path d="M 10.6875 12.40625 
L 21 12.40625 
L 21 0 
L 10.6875 0 
z
" id="DejaVuSans-46"/>
       </defs>
       <use xlink:href="#DejaVuSans-48"/>
       <use x="63.623047" xlink:href="#DejaVuSans-46"/>
       <use x="95.410156" xlink:href="#DejaVuSans-48"/>
      </g>
     </g>
    </g>
    <g id="ytick_2">
     <g id="line2d_23">
      <path clip-path="url(#p1f72ec3fd6)" d="M 57.6 245.22202 
L 338.688 245.22202 
" style="fill:none;stroke:#b0b0b0;stroke-linecap:square;stroke-width:0.8;"/>
     </g>
     <g id="line2d_24">
      <g>
       <use style="stroke:#000000;stroke-width:0.8;" x="57.6" xlink:href="#mfadae03f21" y="245.22202"/>
      </g>
     </g>
     <g id="text_7">
      <!-- 0.2 -->
      <g transform="translate(25.155 251.30077)scale(0.16 -0.16)">
       <use xlink:href="#DejaVuSans-48"/>
       <use x="63.623047" xlink:href="#DejaVuSans-46"/>
       <use x="95.410156" xlink:href="#DejaVuSans-50"/>
      </g>
     </g>
    </g>
    <g id="ytick_3">
     <g id="line2d_25">
      <path clip-path="url(#p1f72ec3fd6)" d="M 57.6 191.50004 
L 338.688 191.50004 
" style="fill:none;stroke:#b0b0b0;stroke-linecap:square;stroke-width:0.8;"/>
     </g>
     <g id="line2d_26">
      <g>
       <use style="stroke:#000000;stroke-width:0.8;" x="57.6" xlink:href="#mfadae03f21" y="191.50004"/>
      </g>
     </g>
     <g id="text_8">
      <!-- 0.4 -->
      <g transform="translate(25.155 197.57879)scale(0.16 -0.16)">
       <use xlink:href="#DejaVuSans-48"/>
       <use x="63.623047" xlink:href="#DejaVuSans-46"/>
       <use x="95.410156" xlink:href="#DejaVuSans-52"/>
      </g>
     </g>
    </g>
    <g id="ytick_4">
     <g id="line2d_27">
      <path clip-path="url(#p1f72ec3fd6)" d="M 57.6 137.778059 
L 338.688 137.778059 
" style="fill:none;stroke:#b0b0b0;stroke-linecap:square;stroke-width:0.8;"/>
     </g>
     <g id="line2d_28">
      <g>
       <use style="stroke:#000000;stroke-width:0.8;" x="57.6" xlink:href="#mfadae03f21" y="137.778059"/>
      </g>
     </g>
     <g id="text_9">
      <!-- 0.6 -->
      <g transform="translate(25.155 143.856809)scale(0.16 -0.16)">
       <use xlink:href="#DejaVuSans-48"/>
       <use x="63.623047" xlink:href="#DejaVuSans-46"/>
       <use x="95.410156" xlink:href="#DejaVuSans-54"/>
      </g>
     </g>
    </g>
    <g id="ytick_5">
     <g id="line2d_29">
      <path clip-path="url(#p1f72ec3fd6)" d="M 57.6 84.056079 
L 338.688 84.056079 
" style="fill:none;stroke:#b0b0b0;stroke-linecap:square;stroke-width:0.8;"/>
     </g>
     <g id="line2d_30">
      <g>
       <use style="stroke:#000000;stroke-width:0.8;" x="57.6" xlink:href="#mfadae03f21" y="84.056079"/>
      </g>
     </g>
     <g id="text_10">
      <!-- 0.8 -->
      <g transform="translate(25.155 90.134829)scale(0.16 -0.16)">
       <defs>
        <path d="M 31.78125 34.625 
Q 24.75 34.625 20.71875 30.859375 
Q 16.703125 27.09375 16.703125 20.515625 
Q 16.703125 13.921875 20.71875 10.15625 
Q 24.75 6.390625 31.78125 6.390625 
Q 38.8125 6.390625 42.859375 10.171875 
Q 46.921875 13.96875 46.921875 20.515625 
Q 46.921875 27.09375 42.890625 30.859375 
Q 38.875 34.625 31.78125 34.625 
z
M 21.921875 38.8125 
Q 15.578125 40.375 12.03125 44.71875 
Q 8.5 49.078125 8.5 55.328125 
Q 8.5 64.0625 14.71875 69.140625 
Q 20.953125 74.21875 31.78125 74.21875 
Q 42.671875 74.21875 48.875 69.140625 
Q 55.078125 64.0625 55.078125 55.328125 
Q 55.078125 49.078125 51.53125 44.71875 
Q 48 40.375 41.703125 38.8125 
Q 48.828125 37.15625 52.796875 32.3125 
Q 56.78125 27.484375 56.78125 20.515625 
Q 56.78125 9.90625 50.3125 4.234375 
Q 43.84375 -1.421875 31.78125 -1.421875 
Q 19.734375 -1.421875 13.25 4.234375 
Q 6.78125 9.90625 6.78125 20.515625 
Q 6.78125 27.484375 10.78125 32.3125 
Q 14.796875 37.15625 21.921875 38.8125 
z
M 18.3125 54.390625 
Q 18.3125 48.734375 21.84375 45.5625 
Q 25.390625 42.390625 31.78125 42.390625 
Q 38.140625 42.390625 41.71875 45.5625 
Q 45.3125 48.734375 45.3125 54.390625 
Q 45.3125 60.0625 41.71875 63.234375 
Q 38.140625 66.40625 31.78125 66.40625 
Q 25.390625 66.40625 21.84375 63.234375 
Q 18.3125 60.0625 18.3125 54.390625 
z
" id="DejaVuSans-56"/>
       </defs>
       <use xlink:href="#DejaVuSans-48"/>
       <use x="63.623047" xlink:href="#DejaVuSans-46"/>
       <use x="95.410156" xlink:href="#DejaVuSans-56"/>
      </g>
     </g>
    </g>
    <g id="ytick_6">
     <g id="line2d_31">
      <path clip-path="url(#p1f72ec3fd6)" d="M 57.6 30.334099 
L 338.688 30.334099 
" style="fill:none;stroke:#b0b0b0;stroke-linecap:square;stroke-width:0.8;"/>
     </g>
     <g id="line2d_32">
      <g>
       <use style="stroke:#000000;stroke-width:0.8;" x="57.6" xlink:href="#mfadae03f21" y="30.334099"/>
      </g>
     </g>
     <g id="text_11">
      <!-- 1.0 -->
      <g transform="translate(25.155 36.412849)scale(0.16 -0.16)">
       <use xlink:href="#DejaVuSans-49"/>
       <use x="63.623047" xlink:href="#DejaVuSans-46"/>
       <use x="95.410156" xlink:href="#DejaVuSans-48"/>
      </g>
     </g>
    </g>
    <g id="text_12">
     <!-- Fraction of function,target pairs -->
     <g transform="translate(17.619531 297.681)rotate(-90)scale(0.17 -0.17)">
      <defs>
       <path d="M 9.8125 72.90625 
L 51.703125 72.90625 
L 51.703125 64.59375 
L 19.671875 64.59375 
L 19.671875 43.109375 
L 48.578125 43.109375 
L 48.578125 34.8125 
L 19.671875 34.8125 
L 19.671875 0 
L 9.8125 0 
z
" id="DejaVuSans-70"/>
       <path d="M 41.109375 46.296875 
Q 39.59375 47.171875 37.8125 47.578125 
Q 36.03125 48 33.890625 48 
Q 26.265625 48 22.1875 43.046875 
Q 18.109375 38.09375 18.109375 28.8125 
L 18.109375 0 
L 9.078125 0 
L 9.078125 54.6875 
L 18.109375 54.6875 
L 18.109375 46.1875 
Q 20.953125 51.171875 25.484375 53.578125 
Q 30.03125 56 36.53125 56 
Q 37.453125 56 38.578125 55.875 
Q 39.703125 55.765625 41.0625 55.515625 
z
" id="DejaVuSans-114"/>
       <path d="M 48.78125 52.59375 
L 48.78125 44.1875 
Q 44.96875 46.296875 41.140625 47.34375 
Q 37.3125 48.390625 33.40625 48.390625 
Q 24.65625 48.390625 19.8125 42.84375 
Q 14.984375 37.3125 14.984375 27.296875 
Q 14.984375 17.28125 19.8125 11.734375 
Q 24.65625 6.203125 33.40625 6.203125 
Q 37.3125 6.203125 41.140625 7.25 
Q 44.96875 8.296875 48.78125 10.40625 
L 48.78125 2.09375 
Q 45.015625 0.34375 40.984375 -0.53125 
Q 36.96875 -1.421875 32.421875 -1.421875 
Q 20.0625 -1.421875 12.78125 6.34375 
Q 5.515625 14.109375 5.515625 27.296875 
Q 5.515625 40.671875 12.859375 48.328125 
Q 20.21875 56 33.015625 56 
Q 37.15625 56 41.109375 55.140625 
Q 45.0625 54.296875 48.78125 52.59375 
z
" id="DejaVuSans-99"/>
       <path d="M 18.3125 70.21875 
L 18.3125 54.6875 
L 36.8125 54.6875 
L 36.8125 47.703125 
L 18.3125 47.703125 
L 18.3125 18.015625 
Q 18.3125 11.328125 20.140625 9.421875 
Q 21.96875 7.515625 27.59375 7.515625 
L 36.8125 7.515625 
L 36.8125 0 
L 27.59375 0 
Q 17.1875 0 13.234375 3.875 
Q 9.28125 7.765625 9.28125 18.015625 
L 9.28125 47.703125 
L 2.6875 47.703125 
L 2.6875 54.6875 
L 9.28125 54.6875 
L 9.28125 70.21875 
z
" id="DejaVuSans-116"/>
       <path d="M 8.5 21.578125 
L 8.5 54.6875 
L 17.484375 54.6875 
L 17.484375 21.921875 
Q 17.484375 14.15625 20.5 10.265625 
Q 23.53125 6.390625 29.59375 6.390625 
Q 36.859375 6.390625 41.078125 11.03125 
Q 45.3125 15.671875 45.3125 23.6875 
L 45.3125 54.6875 
L 54.296875 54.6875 
L 54.296875 0 
L 45.3125 0 
L 45.3125 8.40625 
Q 42.046875 3.421875 37.71875 1 
Q 33.40625 -1.421875 27.6875 -1.421875 
Q 18.265625 -1.421875 13.375 4.4375 
Q 8.5 10.296875 8.5 21.578125 
z
M 31.109375 56 
z
" id="DejaVuSans-117"/>
       <path d="M 11.71875 12.40625 
L 22.015625 12.40625 
L 22.015625 4 
L 14.015625 -11.625 
L 7.71875 -11.625 
L 11.71875 4 
z
" id="DejaVuSans-44"/>
       <path d="M 18.109375 8.203125 
L 18.109375 -20.796875 
L 9.078125 -20.796875 
L 9.078125 54.6875 
L 18.109375 54.6875 
L 18.109375 46.390625 
Q 20.953125 51.265625 25.265625 53.625 
Q 29.59375 56 35.59375 56 
Q 45.5625 56 51.78125 48.09375 
Q 58.015625 40.1875 58.015625 27.296875 
Q 58.015625 14.40625 51.78125 6.484375 
Q 45.5625 -1.421875 35.59375 -1.421875 
Q 29.59375 -1.421875 25.265625 0.953125 
Q 20.953125 3.328125 18.109375 8.203125 
z
M 48.6875 27.296875 
Q 48.6875 37.203125 44.609375 42.84375 
Q 40.53125 48.484375 33.40625 48.484375 
Q 26.265625 48.484375 22.1875 42.84375 
Q 18.109375 37.203125 18.109375 27.296875 
Q 18.109375 17.390625 22.1875 11.75 
Q 26.265625 6.109375 33.40625 6.109375 
Q 40.53125 6.109375 44.609375 11.75 
Q 48.6875 17.390625 48.6875 27.296875 
z
" id="DejaVuSans-112"/>
      </defs>
      <use xlink:href="#DejaVuSans-70"/>
      <use x="50.269531" xlink:href="#DejaVuSans-114"/>
      <use x="91.382812" xlink:href="#DejaVuSans-97"/>
      <use x="152.662109" xlink:href="#DejaVuSans-99"/>
      <use x="207.642578" xlink:href="#DejaVuSans-116"/>
      <use x="246.851562" xlink:href="#DejaVuSans-105"/>
      <use x="274.634766" xlink:href="#DejaVuSans-111"/>
      <use x="335.816406" xlink:href="#DejaVuSans-110"/>
      <use x="399.195312" xlink:href="#DejaVuSans-32"/>
      <use x="430.982422" xlink:href="#DejaVuSans-111"/>
      <use x="492.164062" xlink:href="#DejaVuSans-102"/>
      <use x="527.369141" xlink:href="#DejaVuSans-32"/>
      <use x="559.15625" xlink:href="#DejaVuSans-102"/>
      <use x="594.361328" xlink:href="#DejaVuSans-117"/>
      <use x="657.740234" xlink:href="#DejaVuSans-110"/>
      <use x="721.119141" xlink:href="#DejaVuSans-99"/>
      <use x="776.099609" xlink:href="#DejaVuSans-116"/>
      <use x="815.308594" xlink:href="#DejaVuSans-105"/>
      <use x="843.091797" xlink:href="#DejaVuSans-111"/>
      <use x="904.273438" xlink:href="#DejaVuSans-110"/>
      <use x="967.652344" xlink:href="#DejaVuSans-44"/>
      <use x="999.439453" xlink:href="#DejaVuSans-116"/>
      <use x="1038.648438" xlink:href="#DejaVuSans-97"/>
      <use x="1099.927734" xlink:href="#DejaVuSans-114"/>
      <use x="1139.291016" xlink:href="#DejaVuSans-103"/>
      <use x="1202.767578" xlink:href="#DejaVuSans-101"/>
      <use x="1264.291016" xlink:href="#DejaVuSans-116"/>
      <use x="1303.5" xlink:href="#DejaVuSans-32"/>
      <use x="1335.287109" xlink:href="#DejaVuSans-112"/>
      <use x="1398.763672" xlink:href="#DejaVuSans-97"/>
      <use x="1460.042969" xlink:href="#DejaVuSans-105"/>
      <use x="1487.826172" xlink:href="#DejaVuSans-114"/>
      <use x="1528.939453" xlink:href="#DejaVuSans-115"/>
     </g>
    </g>
   </g>
   <g id="line2d_33">
    <defs>
     <path d="M 0 1.5 
C 0.397805 1.5 0.77937 1.341951 1.06066 1.06066 
C 1.341951 0.77937 1.5 0.397805 1.5 0 
C 1.5 -0.397805 1.341951 -0.77937 1.06066 -1.06066 
C 0.77937 -1.341951 0.397805 -1.5 0 -1.5 
C -0.397805 -1.5 -0.77937 -1.341951 -1.06066 -1.06066 
C -1.341951 -0.77937 -1.5 -0.397805 -1.5 0 
C -1.5 0.397805 -1.341951 0.77937 -1.06066 1.06066 
C -0.77937 1.341951 -0.397805 1.5 0 1.5 
z
" id="m12b4de66e2" style="stroke:#f5deb3;"/>
    </defs>
    <g>
     <use style="fill:#f5deb3;stroke:#f5deb3;" x="166.711675" xlink:href="#m12b4de66e2" y="30.334099"/>
     <use style="fill:#f5deb3;stroke:#f5deb3;" x="166.711675" xlink:href="#m12b4de66e2" y="30.334099"/>
    </g>
   </g>
   <g id="line2d_34">
    <defs>
     <path d="M 0 1.5 
C 0.397805 1.5 0.77937 1.341951 1.06066 1.06066 
C 1.341951 0.77937 1.5 0.397805 1.5 0 
C 1.5 -0.397805 1.341951 -0.77937 1.06066 -1.06066 
C 0.77937 -1.341951 0.397805 -1.5 0 -1.5 
C -0.397805 -1.5 -0.77937 -1.341951 -1.06066 -1.06066 
C -1.341951 -0.77937 -1.5 -0.397805 -1.5 0 
C -1.5 0.397805 -1.341951 0.77937 -1.06066 1.06066 
C -0.77937 1.341951 -0.397805 1.5 0 1.5 
z
" id="mbfb6ac016c" style="stroke:#000080;"/>
    </defs>
    <g>
     <use style="fill:#000080;stroke:#000080;" x="312.94788" xlink:href="#mbfb6ac016c" y="219.941088"/>
     <use style="fill:#000080;stroke:#000080;" x="312.94788" xlink:href="#mbfb6ac016c" y="219.941088"/>
    </g>
   </g>
   <g id="line2d_35">
    <path d="M 123.741547 298.944 
L 123.741547 298.417314 
L 124.594752 298.417314 
L 124.594752 297.890628 
L 125.961828 297.890628 
L 125.961828 297.363942 
L 126.338353 297.363942 
L 126.338353 296.837256 
L 126.590491 296.837256 
L 126.590491 296.31057 
L 127.492935 296.31057 
L 127.492935 295.783884 
L 128.60556 295.783884 
L 128.60556 295.257197 
L 128.716709 295.257197 
L 128.716709 294.730511 
L 129.00969 294.730511 
L 129.00969 294.203825 
L 129.190335 294.203825 
L 129.190335 293.677139 
L 129.721306 293.677139 
L 129.721306 293.150453 
L 130.216266 293.150453 
L 130.216266 292.623767 
L 130.710746 292.623767 
L 130.710746 292.097081 
L 131.452406 292.097081 
L 131.452406 291.570395 
L 131.728032 291.570395 
L 131.728032 291.043709 
L 133.233532 291.043709 
L 133.233532 290.517023 
L 133.386783 290.517023 
L 133.392433 289.463651 
L 133.838618 289.463651 
L 133.838618 288.936964 
L 135.477215 288.936964 
L 135.482227 287.883592 
L 135.907958 287.883592 
L 135.907958 287.356906 
L 136.034648 287.356906 
L 136.034648 286.83022 
L 136.395027 286.83022 
L 136.395027 286.303534 
L 136.933536 286.303534 
L 136.933536 285.776848 
L 138.33297 285.776848 
L 138.33297 285.250162 
L 138.799052 285.250162 
L 138.799052 284.723476 
L 138.99271 284.723476 
L 138.99271 284.19679 
L 139.726893 284.19679 
L 139.726893 283.670104 
L 141.166544 283.670104 
L 141.166544 283.143418 
L 141.425068 283.143418 
L 141.482002 282.090045 
L 141.574123 282.090045 
L 141.605898 281.036673 
L 144.221461 281.036673 
L 144.221461 280.509987 
L 144.812477 280.509987 
L 144.85059 279.456615 
L 144.984783 279.456615 
L 144.984783 278.929929 
L 145.149647 278.929929 
L 145.149647 278.403243 
L 146.167227 278.403243 
L 146.229573 277.349871 
L 146.966032 277.349871 
L 146.98418 276.296499 
L 147.082371 276.296499 
L 147.082371 275.769812 
L 147.885564 275.769812 
L 147.885564 275.243126 
L 148.192893 275.243126 
L 148.192893 274.71644 
L 148.76371 274.71644 
L 148.76371 274.189754 
L 149.145582 274.189754 
L 149.145582 273.663068 
L 149.642076 273.663068 
L 149.706481 272.609696 
L 151.397416 272.609696 
L 151.397416 272.08301 
L 151.765704 272.08301 
L 151.765704 271.556324 
L 151.979109 271.556324 
L 151.979109 271.029638 
L 152.180319 271.029638 
L 152.180319 270.502952 
L 152.979261 270.502952 
L 152.979261 269.976266 
L 153.61434 269.976266 
L 153.61434 269.449579 
L 153.808151 269.449579 
L 153.808151 268.922893 
L 154.368504 268.922893 
L 154.368504 268.396207 
L 154.569258 268.396207 
L 154.569258 267.869521 
L 154.819061 267.869521 
L 154.819061 267.342835 
L 155.141793 267.342835 
L 155.187182 266.289463 
L 156.329173 266.289463 
L 156.329173 265.762777 
L 156.850501 265.762777 
L 156.850501 265.236091 
L 157.171299 265.236091 
L 157.273583 264.182719 
L 157.472107 264.182719 
L 157.472107 263.656033 
L 157.945626 263.656033 
L 157.945626 263.129347 
L 159.165206 263.129347 
L 159.165206 262.60266 
L 159.951391 262.60266 
L 159.951391 262.075974 
L 160.251844 262.075974 
L 160.251844 261.549288 
L 160.718991 261.549288 
L 160.718991 261.022602 
L 162.915887 261.022602 
L 162.915887 260.495916 
L 164.237502 260.495916 
L 164.237502 259.96923 
L 166.144916 259.96923 
L 166.144916 259.442544 
L 166.693273 259.442544 
L 166.780098 258.389172 
L 167.241951 258.389172 
L 167.241951 257.862486 
L 167.930517 257.862486 
L 167.930517 257.3358 
L 168.31527 257.3358 
L 168.31527 256.809114 
L 168.679026 256.809114 
L 168.782533 255.755741 
L 168.807758 255.755741 
L 168.807758 255.229055 
L 169.970616 255.229055 
L 169.970616 254.702369 
L 173.297506 254.702369 
L 173.297506 254.175683 
L 174.287811 254.175683 
L 174.287811 253.648997 
L 174.498781 253.648997 
L 174.498781 253.122311 
L 179.40399 253.122311 
L 179.40399 252.595625 
L 179.528317 252.595625 
L 179.528317 252.068939 
L 183.230646 252.068939 
L 183.230646 251.542253 
L 183.622109 251.542253 
L 183.622109 251.015567 
L 186.37986 251.015567 
L 186.37986 250.488881 
L 187.973437 250.488881 
L 187.973437 249.962195 
L 190.922523 249.962195 
L 190.922523 249.435508 
L 194.712774 249.435508 
L 194.712774 248.908822 
L 195.399989 248.908822 
L 195.399989 248.382136 
L 197.395223 248.382136 
L 197.395223 247.85545 
L 200.000922 247.85545 
L 200.000922 247.328764 
L 201.773104 247.328764 
L 201.773104 246.802078 
L 203.825949 246.802078 
L 203.825949 246.275392 
L 204.879205 246.275392 
L 204.879205 245.748706 
L 205.484561 245.748706 
L 205.484561 245.22202 
L 209.349577 245.22202 
L 209.349577 244.695334 
L 214.738953 244.695334 
L 214.738953 244.168648 
L 215.139909 244.168648 
L 215.139909 243.641962 
L 219.811809 243.641962 
L 219.811809 243.115275 
L 242.865533 243.115275 
L 242.865533 242.588589 
L 243.150727 242.588589 
L 243.150727 242.061903 
L 244.209955 242.061903 
L 244.209955 241.008531 
L 245.646088 241.008531 
L 245.714883 239.955159 
L 246.619035 239.955159 
L 246.619035 239.428473 
L 254.650798 239.428473 
L 254.650798 238.901787 
L 254.866294 238.901787 
L 254.974477 237.321729 
L 255.065 237.321729 
L 255.065 236.795043 
L 261.62889 236.795043 
L 261.653979 235.214984 
L 262.341892 235.214984 
L 262.341892 233.634926 
L 266.865766 233.634926 
L 266.865766 233.10824 
L 267.165868 233.10824 
L 267.165868 232.054868 
L 267.444277 232.054868 
L 267.444277 231.528182 
L 270.508508 231.528182 
L 270.618414 229.421437 
L 270.940501 229.421437 
L 270.940501 228.894751 
L 271.165073 228.894751 
L 271.165073 228.368065 
L 273.680854 228.368065 
L 273.680854 227.841379 
L 276.37476 227.841379 
L 276.37476 227.314693 
L 279.168237 227.314693 
L 279.168237 226.261321 
L 284.536938 226.261321 
L 284.536938 225.734635 
L 285.796746 225.734635 
L 285.796746 225.207949 
L 287.151111 225.207949 
L 287.187719 224.154577 
L 293.872997 224.154577 
L 293.961721 223.101204 
L 294.679604 223.101204 
L 294.679604 222.574518 
L 295.528642 222.574518 
L 295.528642 222.047832 
L 297.111944 222.047832 
L 297.111944 221.521146 
L 298.62874 221.521146 
L 298.62874 220.99446 
L 304.46917 220.99446 
L 304.46917 220.467774 
L 312.94788 220.467774 
L 312.94788 219.941088 
L 338.688 219.941088 
L 338.688 219.941088 
" style="fill:none;stroke:#000080;stroke-linecap:square;stroke-width:1.5;"/>
   </g>
   <g id="line2d_36">
    <defs>
     <path d="M 0 6 
C 1.591219 6 3.117479 5.367802 4.242641 4.242641 
C 5.367802 3.117479 6 1.591219 6 0 
C 6 -1.591219 5.367802 -3.117479 4.242641 -4.242641 
C 3.117479 -5.367802 1.591219 -6 0 -6 
C -1.591219 -6 -3.117479 -5.367802 -4.242641 -4.242641 
C -5.367802 -3.117479 -6 -1.591219 -6 0 
C -6 1.591219 -5.367802 3.117479 -4.242641 4.242641 
C -3.117479 5.367802 -1.591219 6 0 6 
z
" id="maf14a2e34a" style="stroke:#000080;stroke-width:1.5;"/>
    </defs>
    <g>
     <use style="fill-opacity:0;stroke:#000080;stroke-width:1.5;" x="173.297506" xlink:href="#maf14a2e34a" y="254.702369"/>
     <use style="fill-opacity:0;stroke:#000080;stroke-width:1.5;" x="246.619035" xlink:href="#maf14a2e34a" y="239.955159"/>
     <use style="fill-opacity:0;stroke:#000080;stroke-width:1.5;" x="298.62874" xlink:href="#maf14a2e34a" y="221.521146"/>
     <use style="fill-opacity:0;stroke:#000080;stroke-width:1.5;" x="312.94788" xlink:href="#maf14a2e34a" y="219.941088"/>
     <use style="fill-opacity:0;stroke:#000080;stroke-width:1.5;" x="338.688" xlink:href="#maf14a2e34a" y="219.941088"/>
    </g>
   </g>
   <g id="line2d_37">
    <path style="fill:none;stroke:#000080;stroke-linecap:square;stroke-width:1.5;"/>
    <g/>
   </g>
   <g id="line2d_38">
    <path clip-path="url(#p1f72ec3fd6)" d="M 242.397757 243.115275 
" style="fill:none;stroke:#000080;stroke-linecap:square;stroke-width:1.5;"/>
    <defs>
     <path d="M -12 12 
L 12 -12 
M -12 -12 
L 12 12 
" id="m3dbc313b78" style="stroke:#000080;"/>
    </defs>
    <g clip-path="url(#p1f72ec3fd6)">
     <use style="fill:#000080;stroke:#000080;" x="242.397757" xlink:href="#m3dbc313b78" y="243.115275"/>
    </g>
   </g>
   <g id="line2d_39">
    <defs>
     <path d="M 0 1.5 
C 0.397805 1.5 0.77937 1.341951 1.06066 1.06066 
C 1.341951 0.77937 1.5 0.397805 1.5 0 
C 1.5 -0.397805 1.341951 -0.77937 1.06066 -1.06066 
C 0.77937 -1.341951 0.397805 -1.5 0 -1.5 
C -0.397805 -1.5 -0.77937 -1.341951 -1.06066 -1.06066 
C -1.341951 -0.77937 -1.5 -0.397805 -1.5 0 
C -1.5 0.397805 -1.341951 0.77937 -1.06066 1.06066 
C -0.77937 1.341951 -0.397805 1.5 0 1.5 
z
" id="m3b251094d6" style="stroke:#ff00ff;"/>
    </defs>
    <g>
     <use style="fill:#ff00ff;stroke:#ff00ff;" x="315.4747" xlink:href="#m3b251094d6" y="219.941088"/>
     <use style="fill:#ff00ff;stroke:#ff00ff;" x="315.4747" xlink:href="#m3b251094d6" y="219.941088"/>
    </g>
   </g>
   <g id="line2d_40">
    <path d="M 124.863982 298.944 
L 124.863982 298.417314 
L 125.717918 298.417314 
L 125.717918 297.890628 
L 126.797858 297.890628 
L 126.797858 297.363942 
L 127.461213 297.363942 
L 127.5641 296.31057 
L 127.713389 296.31057 
L 127.713389 295.783884 
L 128.612992 295.783884 
L 128.612992 295.257197 
L 130.842017 295.257197 
L 130.842017 294.730511 
L 131.338382 294.730511 
L 131.338382 294.203825 
L 131.790072 294.203825 
L 131.833369 293.150453 
L 132.577122 293.150453 
L 132.577122 292.623767 
L 132.788938 292.623767 
L 132.788938 292.097081 
L 133.33018 292.097081 
L 133.33018 291.570395 
L 133.443203 291.570395 
L 133.443203 291.043709 
L 134.354049 291.043709 
L 134.354049 290.517023 
L 134.508403 290.517023 
L 134.513701 289.463651 
L 134.776584 289.463651 
L 134.776584 288.936964 
L 134.963435 288.936964 
L 134.963435 288.410278 
L 136.598334 288.410278 
L 136.603034 287.356906 
L 137.030101 287.356906 
L 137.030101 286.83022 
L 137.15803 286.83022 
L 137.15803 286.303534 
L 137.366181 286.303534 
L 137.366181 285.776848 
L 137.989158 285.776848 
L 138.058465 284.723476 
L 139.457677 284.723476 
L 139.457677 284.19679 
L 139.922227 284.19679 
L 139.922227 283.670104 
L 140.115398 283.670104 
L 140.115398 283.143418 
L 140.715835 283.143418 
L 140.715835 282.616732 
L 142.606619 282.616732 
L 142.606619 282.090045 
L 142.729419 282.090045 
L 142.729419 281.563359 
L 142.884173 281.563359 
L 142.884173 281.036673 
L 143.337167 281.036673 
L 143.337167 280.509987 
L 143.868769 280.509987 
L 143.868769 279.983301 
L 144.480629 279.983301 
L 144.480629 279.456615 
L 144.847661 279.456615 
L 144.847661 278.929929 
L 145.34431 278.929929 
L 145.34431 278.403243 
L 146.420639 278.403243 
L 146.420639 277.876557 
L 147.292393 277.876557 
L 147.353388 276.823185 
L 148.108066 276.823185 
L 148.108066 276.296499 
L 149.009992 276.296499 
L 149.009992 275.769812 
L 149.27331 275.769812 
L 149.27331 275.243126 
L 150.269227 275.243126 
L 150.269227 274.71644 
L 150.831016 274.71644 
L 150.831016 274.189754 
L 151.996613 274.189754 
L 151.996613 273.663068 
L 152.188011 273.663068 
L 152.191856 272.609696 
L 152.89084 272.609696 
L 152.89084 272.08301 
L 153.103763 272.08301 
L 153.103763 271.556324 
L 153.305103 271.556324 
L 153.305103 271.029638 
L 154.103503 271.029638 
L 154.155109 269.976266 
L 154.8141 269.976266 
L 154.8141 269.449579 
L 154.93278 269.449579 
L 154.93278 268.922893 
L 155.694554 268.922893 
L 155.694554 268.396207 
L 155.94436 268.396207 
L 155.94436 267.869521 
L 156.312485 267.869521 
L 156.312485 267.342835 
L 157.453636 267.342835 
L 157.453636 266.816149 
L 157.974626 266.816149 
L 157.974626 266.289463 
L 158.295902 266.289463 
L 158.295902 265.762777 
L 158.596725 265.762777 
L 158.596725 265.236091 
L 160.29055 265.236091 
L 160.29055 264.709405 
L 161.377198 264.709405 
L 161.377198 264.182719 
L 161.844275 264.182719 
L 161.844275 263.656033 
L 163.271845 263.656033 
L 163.382493 262.60266 
L 163.553675 262.60266 
L 163.553675 262.075974 
L 164.445338 262.075974 
L 164.445338 261.549288 
L 164.757663 261.549288 
L 164.757663 261.022602 
L 165.362406 261.022602 
L 165.362406 260.495916 
L 165.77129 260.495916 
L 165.77129 259.96923 
L 166.023581 259.96923 
L 166.023581 259.442544 
L 166.364626 259.442544 
L 166.364626 258.915858 
L 167.010088 258.915858 
L 167.010088 258.389172 
L 167.258164 258.389172 
L 167.258164 257.862486 
L 167.90477 257.862486 
L 167.90477 257.3358 
L 168.367051 257.3358 
L 168.367051 256.809114 
L 169.055827 256.809114 
L 169.055827 256.282427 
L 169.440395 256.282427 
L 169.440395 255.755741 
L 169.804065 255.755741 
L 169.804065 255.229055 
L 169.933124 255.229055 
L 169.933124 254.702369 
L 171.095905 254.702369 
L 171.095905 254.175683 
L 171.923192 254.175683 
L 171.923192 253.648997 
L 172.228073 253.648997 
L 172.228073 253.122311 
L 173.630709 253.122311 
L 173.630709 252.595625 
L 174.422653 252.595625 
L 174.422653 252.068939 
L 175.413215 252.068939 
L 175.413215 251.542253 
L 177.063123 251.542253 
L 177.063123 251.015567 
L 178.222537 251.015567 
L 178.222537 250.488881 
L 179.972447 250.488881 
L 179.972447 249.962195 
L 180.529394 249.962195 
L 180.529394 249.435508 
L 180.653496 249.435508 
L 180.653496 248.908822 
L 184.355928 248.908822 
L 184.355928 248.382136 
L 187.505264 248.382136 
L 187.505264 247.85545 
L 192.047924 247.85545 
L 192.047924 247.328764 
L 193.516528 247.328764 
L 193.516528 246.802078 
L 195.838185 246.802078 
L 195.838185 246.275392 
L 199.494773 246.275392 
L 199.494773 245.748706 
L 201.126404 245.748706 
L 201.126404 245.22202 
L 202.898554 245.22202 
L 202.898554 244.695334 
L 206.610055 244.695334 
L 206.610055 244.168648 
L 215.864449 244.168648 
L 215.864449 243.641962 
L 220.9373 243.641962 
L 220.9373 243.115275 
L 242.53492 243.115275 
L 242.53492 242.588589 
L 242.655845 242.588589 
L 242.70689 241.535217 
L 243.424262 241.535217 
L 243.424262 241.008531 
L 243.610989 241.008531 
L 243.610989 240.481845 
L 243.9613 240.481845 
L 243.9613 239.955159 
L 244.505325 239.955159 
L 244.505325 239.428473 
L 246.309816 239.428473 
L 246.309816 238.901787 
L 255.006523 238.901787 
L 255.102883 237.848415 
L 255.725468 237.848415 
L 255.725468 236.795043 
L 261.660384 236.795043 
L 261.660384 236.268356 
L 261.828173 236.268356 
L 261.828173 233.634926 
L 266.620577 233.634926 
L 266.620577 233.10824 
L 266.777671 233.10824 
L 266.885006 231.528182 
L 267.204583 231.528182 
L 267.204583 231.001496 
L 270.971678 231.001496 
L 270.971678 230.47481 
L 271.210695 230.47481 
L 271.210695 229.948123 
L 273.696613 229.948123 
L 273.780958 228.368065 
L 273.852866 228.368065 
L 273.852866 227.314693 
L 274.360738 227.314693 
L 274.360738 226.788007 
L 280.998942 226.788007 
L 280.998942 225.734635 
L 282.678329 225.734635 
L 282.678329 225.207949 
L 282.986272 225.207949 
L 282.986272 224.681263 
L 284.289727 224.681263 
L 284.289727 224.154577 
L 287.152554 224.154577 
L 287.152554 223.627891 
L 288.443232 223.627891 
L 288.443232 223.101204 
L 291.825246 223.101204 
L 291.825246 222.574518 
L 292.945894 222.574518 
L 292.945894 222.047832 
L 299.315123 222.047832 
L 299.315123 221.521146 
L 301.79759 221.521146 
L 301.79759 220.99446 
L 303.970314 220.99446 
L 303.970314 220.467774 
L 315.4747 220.467774 
L 315.4747 219.941088 
L 338.688 219.941088 
L 338.688 219.941088 
" style="fill:none;stroke:#ff00ff;stroke-linecap:square;stroke-width:1.5;"/>
   </g>
   <g id="line2d_41">
    <defs>
     <path d="M -0 8.485281 
L 5.091169 0 
L 0 -8.485281 
L -5.091169 -0 
z
" id="m763d1745f4" style="stroke:#ff00ff;stroke-linejoin:miter;stroke-width:1.5;"/>
    </defs>
    <g>
     <use style="fill-opacity:0;stroke:#ff00ff;stroke-linejoin:miter;stroke-width:1.5;" x="142.884173" xlink:href="#m763d1745f4" y="281.563359"/>
     <use style="fill-opacity:0;stroke:#ff00ff;stroke-linejoin:miter;stroke-width:1.5;" x="206.610055" xlink:href="#m763d1745f4" y="244.695334"/>
     <use style="fill-opacity:0;stroke:#ff00ff;stroke-linejoin:miter;stroke-width:1.5;" x="274.360738" xlink:href="#m763d1745f4" y="227.314693"/>
     <use style="fill-opacity:0;stroke:#ff00ff;stroke-linejoin:miter;stroke-width:1.5;" x="315.4747" xlink:href="#m763d1745f4" y="219.941088"/>
     <use style="fill-opacity:0;stroke:#ff00ff;stroke-linejoin:miter;stroke-width:1.5;" x="338.688" xlink:href="#m763d1745f4" y="219.941088"/>
    </g>
   </g>
   <g id="line2d_42">
    <path style="fill:none;stroke:#ff00ff;stroke-linecap:square;stroke-width:1.5;"/>
    <g/>
   </g>
   <g id="line2d_43">
    <path clip-path="url(#p1f72ec3fd6)" d="M 242.397702 243.115275 
" style="fill:none;stroke:#ff00ff;stroke-linecap:square;stroke-width:1.5;"/>
    <defs>
     <path d="M -12 12 
L 12 -12 
M -12 -12 
L 12 12 
" id="md805e3874f" style="stroke:#ff00ff;"/>
    </defs>
    <g clip-path="url(#p1f72ec3fd6)">
     <use style="fill:#ff00ff;stroke:#ff00ff;" x="242.397702" xlink:href="#md805e3874f" y="243.115275"/>
    </g>
   </g>
   <g id="line2d_44">
    <path d="M 338.688 219.941088 
L 369.60768 293.571802 
" style="fill:none;stroke:#ff00ff;stroke-linecap:square;stroke-width:1.5;"/>
    <g>
     <use style="fill-opacity:0;stroke:#ff00ff;stroke-linejoin:miter;stroke-width:1.5;" x="338.688" xlink:href="#m763d1745f4" y="219.941088"/>
     <use style="fill-opacity:0;stroke:#ff00ff;stroke-linejoin:miter;stroke-width:1.5;" x="369.60768" xlink:href="#m763d1745f4" y="293.571802"/>
    </g>
   </g>
   <g id="line2d_45">
    <path d="M 338.688 219.941088 
L 369.60768 164.63905 
" style="fill:none;stroke:#000080;stroke-linecap:square;stroke-width:1.5;"/>
    <g>
     <use style="fill-opacity:0;stroke:#000080;stroke-width:1.5;" x="338.688" xlink:href="#maf14a2e34a" y="219.941088"/>
     <use style="fill-opacity:0;stroke:#000080;stroke-width:1.5;" x="369.60768" xlink:href="#maf14a2e34a" y="164.63905"/>
    </g>
   </g>
   <g id="line2d_46">
    <path d="M 338.688 298.944 
L 338.688 30.334099 
" style="fill:none;stroke:#000000;stroke-linecap:square;stroke-width:1.5;"/>
   </g>
   <g id="patch_3">
    <path d="M 57.6 298.944 
L 57.6 27.648 
" style="fill:none;stroke:#000000;stroke-linecap:square;stroke-linejoin:miter;stroke-width:0.8;"/>
   </g>
   <g id="patch_4">
    <path d="M 338.688 298.944 
L 338.688 27.648 
" style="fill:none;stroke:#000000;stroke-linecap:square;stroke-linejoin:miter;stroke-width:0.8;"/>
   </g>
   <g id="patch_5">
    <path d="M 57.6 298.944 
L 338.688 298.944 
" style="fill:none;stroke:#000000;stroke-linecap:square;stroke-linejoin:miter;stroke-width:0.8;"/>
   </g>
   <g id="patch_6">
    <path d="M 57.6 27.648 
L 338.688 27.648 
" style="fill:none;stroke:#000000;stroke-linecap:square;stroke-linejoin:miter;stroke-width:0.8;"/>
   </g>
   <g id="text_13">
    <!-- maes mid -->
    <g transform="translate(375.22944 298.262739)scale(0.17 -0.17)">
     <use xlink:href="#DejaVuSans-109"/>
     <use x="97.412109" xlink:href="#DejaVuSans-97"/>
     <use x="158.691406" xlink:href="#DejaVuSans-101"/>
     <use x="220.214844" xlink:href="#DejaVuSans-115"/>
     <use x="272.314453" xlink:href="#DejaVuSans-32"/>
     <use x="304.101562" xlink:href="#DejaVuSans-109"/>
     <use x="401.513672" xlink:href="#DejaVuSans-105"/>
     <use x="429.296875" xlink:href="#DejaVuSans-100"/>
    </g>
   </g>
   <g id="text_14">
    <!-- maes -->
    <g transform="translate(375.22944 169.329987)scale(0.17 -0.17)">
     <use xlink:href="#DejaVuSans-109"/>
     <use x="97.412109" xlink:href="#DejaVuSans-97"/>
     <use x="158.691406" xlink:href="#DejaVuSans-101"/>
     <use x="220.214844" xlink:href="#DejaVuSans-115"/>
    </g>
   </g>
   <g id="text_15">
    <!-- best 2009 -->
    <g transform="translate(375.22944 40.397235)scale(0.17 -0.17)">
     <defs>
      <path d="M 48.6875 27.296875 
Q 48.6875 37.203125 44.609375 42.84375 
Q 40.53125 48.484375 33.40625 48.484375 
Q 26.265625 48.484375 22.1875 42.84375 
Q 18.109375 37.203125 18.109375 27.296875 
Q 18.109375 17.390625 22.1875 11.75 
Q 26.265625 6.109375 33.40625 6.109375 
Q 40.53125 6.109375 44.609375 11.75 
Q 48.6875 17.390625 48.6875 27.296875 
z
M 18.109375 46.390625 
Q 20.953125 51.265625 25.265625 53.625 
Q 29.59375 56 35.59375 56 
Q 45.5625 56 51.78125 48.09375 
Q 58.015625 40.1875 58.015625 27.296875 
Q 58.015625 14.40625 51.78125 6.484375 
Q 45.5625 -1.421875 35.59375 -1.421875 
Q 29.59375 -1.421875 25.265625 0.953125 
Q 20.953125 3.328125 18.109375 8.203125 
L 18.109375 0 
L 9.078125 0 
L 9.078125 75.984375 
L 18.109375 75.984375 
z
" id="DejaVuSans-98"/>
      <path d="M 10.984375 1.515625 
L 10.984375 10.5 
Q 14.703125 8.734375 18.5 7.8125 
Q 22.3125 6.890625 25.984375 6.890625 
Q 35.75 6.890625 40.890625 13.453125 
Q 46.046875 20.015625 46.78125 33.40625 
Q 43.953125 29.203125 39.59375 26.953125 
Q 35.25 24.703125 29.984375 24.703125 
Q 19.046875 24.703125 12.671875 31.3125 
Q 6.296875 37.9375 6.296875 49.421875 
Q 6.296875 60.640625 12.9375 67.421875 
Q 19.578125 74.21875 30.609375 74.21875 
Q 43.265625 74.21875 49.921875 64.515625 
Q 56.59375 54.828125 56.59375 36.375 
Q 56.59375 19.140625 48.40625 8.859375 
Q 40.234375 -1.421875 26.421875 -1.421875 
Q 22.703125 -1.421875 18.890625 -0.6875 
Q 15.09375 0.046875 10.984375 1.515625 
z
M 30.609375 32.421875 
Q 37.25 32.421875 41.125 36.953125 
Q 45.015625 41.5 45.015625 49.421875 
Q 45.015625 57.28125 41.125 61.84375 
Q 37.25 66.40625 30.609375 66.40625 
Q 23.96875 66.40625 20.09375 61.84375 
Q 16.21875 57.28125 16.21875 49.421875 
Q 16.21875 41.5 20.09375 36.953125 
Q 23.96875 32.421875 30.609375 32.421875 
z
" id="DejaVuSans-57"/>
     </defs>
     <use xlink:href="#DejaVuSans-98"/>
     <use x="63.476562" xlink:href="#DejaVuSans-101"/>
     <use x="125" xlink:href="#DejaVuSans-115"/>
     <use x="177.099609" xlink:href="#DejaVuSans-116"/>
     <use x="216.308594" xlink:href="#DejaVuSans-32"/>
     <use x="248.095703" xlink:href="#DejaVuSans-50"/>
     <use x="311.71875" xlink:href="#DejaVuSans-48"/>
     <use x="375.341797" xlink:href="#DejaVuSans-48"/>
     <use x="438.964844" xlink:href="#DejaVuSans-57"/>
    </g>
   </g>
   <g id="text_16">
    <!-- bbob f6, 40-D -->
    <g transform="translate(60.41088 38.111366)scale(0.102 -0.102)">
     <defs>
      <path d="M 19.671875 64.796875 
L 19.671875 8.109375 
L 31.59375 8.109375 
Q 46.6875 8.109375 53.6875 14.9375 
Q 60.6875 21.78125 60.6875 36.53125 
Q 60.6875 51.171875 53.6875 57.984375 
Q 46.6875 64.796875 31.59375 64.796875 
z
M 9.8125 72.90625 
L 30.078125 72.90625 
Q 51.265625 72.90625 61.171875 64.09375 
Q 71.09375 55.28125 71.09375 36.53125 
Q 71.09375 17.671875 61.125 8.828125 
Q 51.171875 0 30.078125 0 
L 9.8125 0 
z
" id="DejaVuSans-68"/>
     </defs>
     <use xlink:href="#DejaVuSans-98"/>
     <use x="63.476562" xlink:href="#DejaVuSans-98"/>
     <use x="126.953125" xlink:href="#DejaVuSans-111"/>
     <use x="188.134766" xlink:href="#DejaVuSans-98"/>
     <use x="251.611328" xlink:href="#DejaVuSans-32"/>
     <use x="283.398438" xlink:href="#DejaVuSans-102"/>
     <use x="318.603516" xlink:href="#DejaVuSans-54"/>
     <use x="382.226562" xlink:href="#DejaVuSans-44"/>
     <use x="414.013672" xlink:href="#DejaVuSans-32"/>
     <use x="445.800781" xlink:href="#DejaVuSans-52"/>
     <use x="509.423828" xlink:href="#DejaVuSans-48"/>
     <use x="573.046875" xlink:href="#DejaVuSans-45"/>
     <use x="609.130859" xlink:href="#DejaVuSans-68"/>
    </g>
    <!-- 51 targets: 100..1e-08 -->
    <g transform="translate(60.41088 49.533135)scale(0.102 -0.102)">
     <defs>
      <path d="M 10.796875 72.90625 
L 49.515625 72.90625 
L 49.515625 64.59375 
L 19.828125 64.59375 
L 19.828125 46.734375 
Q 21.96875 47.46875 24.109375 47.828125 
Q 26.265625 48.1875 28.421875 48.1875 
Q 40.625 48.1875 47.75 41.5 
Q 54.890625 34.8125 54.890625 23.390625 
Q 54.890625 11.625 47.5625 5.09375 
Q 40.234375 -1.421875 26.90625 -1.421875 
Q 22.3125 -1.421875 17.546875 -0.640625 
Q 12.796875 0.140625 7.71875 1.703125 
L 7.71875 11.625 
Q 12.109375 9.234375 16.796875 8.0625 
Q 21.484375 6.890625 26.703125 6.890625 
Q 35.15625 6.890625 40.078125 11.328125 
Q 45.015625 15.765625 45.015625 23.390625 
Q 45.015625 31 40.078125 35.4375 
Q 35.15625 39.890625 26.703125 39.890625 
Q 22.75 39.890625 18.8125 39.015625 
Q 14.890625 38.140625 10.796875 36.28125 
z
" id="DejaVuSans-53"/>
      <path d="M 11.71875 12.40625 
L 22.015625 12.40625 
L 22.015625 0 
L 11.71875 0 
z
M 11.71875 51.703125 
L 22.015625 51.703125 
L 22.015625 39.3125 
L 11.71875 39.3125 
z
" id="DejaVuSans-58"/>
     </defs>
     <use xlink:href="#DejaVuSans-53"/>
     <use x="63.623047" xlink:href="#DejaVuSans-49"/>
     <use x="127.246094" xlink:href="#DejaVuSans-32"/>
     <use x="159.033203" xlink:href="#DejaVuSans-116"/>
     <use x="198.242188" xlink:href="#DejaVuSans-97"/>
     <use x="259.521484" xlink:href="#DejaVuSans-114"/>
     <use x="298.884766" xlink:href="#DejaVuSans-103"/>
     <use x="362.361328" xlink:href="#DejaVuSans-101"/>
     <use x="423.884766" xlink:href="#DejaVuSans-116"/>
     <use x="463.09375" xlink:href="#DejaVuSans-115"/>
     <use x="515.193359" xlink:href="#DejaVuSans-58"/>
     <use x="548.884766" xlink:href="#DejaVuSans-32"/>
     <use x="580.671875" xlink:href="#DejaVuSans-49"/>
     <use x="644.294922" xlink:href="#DejaVuSans-48"/>
     <use x="707.917969" xlink:href="#DejaVuSans-48"/>
     <use x="771.541016" xlink:href="#DejaVuSans-46"/>
     <use x="803.328125" xlink:href="#DejaVuSans-46"/>
     <use x="835.115234" xlink:href="#DejaVuSans-49"/>
     <use x="898.738281" xlink:href="#DejaVuSans-101"/>
     <use x="960.261719" xlink:href="#DejaVuSans-45"/>
     <use x="996.345703" xlink:href="#DejaVuSans-48"/>
     <use x="1059.96875" xlink:href="#DejaVuSans-56"/>
    </g>
    <!-- 15 instances -->
    <g transform="translate(60.41088 60.954904)scale(0.102 -0.102)">
     <use xlink:href="#DejaVuSans-49"/>
     <use x="63.623047" xlink:href="#DejaVuSans-53"/>
     <use x="127.246094" xlink:href="#DejaVuSans-32"/>
     <use x="159.033203" xlink:href="#DejaVuSans-105"/>
     <use x="186.816406" xlink:href="#DejaVuSans-110"/>
     <use x="250.195312" xlink:href="#DejaVuSans-115"/>
     <use x="302.294922" xlink:href="#DejaVuSans-116"/>
     <use x="341.503906" xlink:href="#DejaVuSans-97"/>
     <use x="402.783203" xlink:href="#DejaVuSans-110"/>
     <use x="466.162109" xlink:href="#DejaVuSans-99"/>
     <use x="521.142578" xlink:href="#DejaVuSans-101"/>
     <use x="582.666016" xlink:href="#DejaVuSans-115"/>
    </g>
   </g>
   <g id="text_17">
    <!-- v2.4 -->
    <g style="fill:#808080;" transform="translate(187.233062 294.151352)scale(0.1 -0.1)">
     <use xlink:href="#DejaVuSans-118"/>
     <use x="59.179688" xlink:href="#DejaVuSans-50"/>
     <use x="122.802734" xlink:href="#DejaVuSans-46"/>
     <use x="154.589844" xlink:href="#DejaVuSans-52"/>
    </g>
   </g>
   <g id="text_18">
    <!-- 6 Attractive sector -->
    <g transform="translate(105.40025 21.648)scale(0.2 -0.2)">
     <defs>
      <path d="M 34.1875 63.1875 
L 20.796875 26.90625 
L 47.609375 26.90625 
z
M 28.609375 72.90625 
L 39.796875 72.90625 
L 67.578125 0 
L 57.328125 0 
L 50.6875 18.703125 
L 17.828125 18.703125 
L 11.1875 0 
L 0.78125 0 
z
" id="DejaVuSans-65"/>
     </defs>
     <use xlink:href="#DejaVuSans-54"/>
     <use x="63.623047" xlink:href="#DejaVuSans-32"/>
     <use x="95.410156" xlink:href="#DejaVuSans-65"/>
     <use x="162.068359" xlink:href="#DejaVuSans-116"/>
     <use x="201.277344" xlink:href="#DejaVuSans-116"/>
     <use x="240.486328" xlink:href="#DejaVuSans-114"/>
     <use x="281.599609" xlink:href="#DejaVuSans-97"/>
     <use x="342.878906" xlink:href="#DejaVuSans-99"/>
     <use x="397.859375" xlink:href="#DejaVuSans-116"/>
     <use x="437.068359" xlink:href="#DejaVuSans-105"/>
     <use x="464.851562" xlink:href="#DejaVuSans-118"/>
     <use x="524.03125" xlink:href="#DejaVuSans-101"/>
     <use x="585.554688" xlink:href="#DejaVuSans-32"/>
     <use x="617.341797" xlink:href="#DejaVuSans-115"/>
     <use x="669.441406" xlink:href="#DejaVuSans-101"/>
     <use x="730.964844" xlink:href="#DejaVuSans-99"/>
     <use x="785.945312" xlink:href="#DejaVuSans-116"/>
     <use x="825.154297" xlink:href="#DejaVuSans-111"/>
     <use x="886.335938" xlink:href="#DejaVuSans-114"/>
    </g>
   </g>
  </g>
 </g>
 <defs>
  <clipPath id="p1f72ec3fd6">
   <rect height="271.296" width="281.088" x="57.6" y="27.648"/>
  </clipPath>
 </defs>
</svg>
