<?xml version="1.0" encoding="utf-8" standalone="no"?>
<!DOCTYPE svg PUBLIC "-//W3C//DTD SVG 1.1//EN"
  "http://www.w3.org/Graphics/SVG/1.1/DTD/svg11.dtd">
<!-- Created with matplotlib (https://matplotlib.org/) -->
<svg height="345.6pt" version="1.1" viewBox="0 0 460.8 345.6" width="460.8pt" xmlns="http://www.w3.org/2000/svg" xmlns:xlink="http://www.w3.org/1999/xlink">
 <metadata>
  <rdf:RDF xmlns:cc="http://creativecommons.org/ns#" xmlns:dc="http://purl.org/dc/elements/1.1/" xmlns:rdf="http://www.w3.org/1999/02/22-rdf-syntax-ns#">
   <cc:Work>
    <dc:type rdf:resource="http://purl.org/dc/dcmitype/StillImage"/>
    <dc:date>2021-06-17T01:40:27.732539</dc:date>
    <dc:format>image/svg+xml</dc:format>
    <dc:creator>
     <cc:Agent>
      <dc:title>Matplotlib v3.3.4, https://matplotlib.org/</dc:title>
     </cc:Agent>
    </dc:creator>
   </cc:Work>
  </rdf:RDF>
 </metadata>
 <defs>
  <style type="text/css">*{stroke-linecap:butt;stroke-linejoin:round;}</style>
 </defs>
 <g id="figure_1">
  <g id="patch_1">
   <path d="M 0 345.6 
L 460.8 345.6 
L 460.8 0 
L 0 0 
z
" style="fill:#ffffff;"/>
  </g>
  <g id="axes_1">
   <g id="patch_2">
    <path d="M 57.6 298.944 
L 338.688 298.944 
L 338.688 27.648 
L 57.6 27.648 
z
" style="fill:#ffffff;"/>
   </g>
   <g id="line2d_1">
    <path d="M 117.245527 298.944 
L 117.245527 293.677139 
L 117.903163 293.677139 
L 117.903163 288.410278 
L 129.567223 288.410278 
L 129.567223 283.143418 
L 131.332025 283.143418 
L 131.332025 277.876557 
L 135.194218 277.876557 
L 135.194218 272.609696 
L 138.632527 272.609696 
L 138.632527 267.342835 
L 142.133981 267.342835 
L 142.133981 262.075974 
L 143.483476 262.075974 
L 143.483476 256.809114 
L 145.61548 256.809114 
L 145.61548 251.542253 
L 147.238848 251.542253 
L 147.238848 246.275392 
L 148.76137 246.275392 
L 148.76137 241.008531 
L 150.072806 241.008531 
L 150.072806 235.74167 
L 150.872533 235.74167 
L 150.872533 230.47481 
L 151.497722 230.47481 
L 151.497722 225.207949 
L 152.045145 225.207949 
L 152.045145 219.941088 
L 152.386839 219.941088 
L 152.386839 214.674227 
L 153.27261 214.674227 
L 153.27261 209.407366 
L 154.11728 209.407366 
L 154.11728 204.140506 
L 154.498668 204.140506 
L 154.498668 198.873645 
L 154.848799 198.873645 
L 154.848799 193.606784 
L 155.153151 193.606784 
L 155.153151 188.339923 
L 155.433138 188.339923 
L 155.433138 183.073062 
L 155.798033 183.073062 
L 155.798033 177.806202 
L 157.010179 177.806202 
L 157.010179 172.539341 
L 157.279327 172.539341 
L 157.279327 167.27248 
L 158.660518 167.27248 
L 158.660518 162.005619 
L 165.417421 162.005619 
L 165.417421 156.738758 
L 165.803907 156.738758 
L 165.803907 151.471897 
L 166.179429 151.471897 
L 166.179429 146.205037 
L 166.536903 146.205037 
L 166.536903 140.938176 
L 166.86815 140.938176 
L 166.86815 135.671315 
L 167.181018 135.671315 
L 167.181018 130.404454 
L 167.457159 130.404454 
L 167.457159 125.137593 
L 167.733726 125.137593 
L 167.733726 119.870733 
L 167.979563 119.870733 
L 167.979563 114.603872 
L 168.231181 114.603872 
L 168.231181 109.337011 
L 168.430803 109.337011 
L 168.430803 104.07015 
L 168.628915 104.07015 
L 168.628915 98.803289 
L 168.839608 98.803289 
L 168.839608 93.536429 
L 169.045591 93.536429 
L 169.045591 88.269568 
L 169.239048 88.269568 
L 169.239048 83.002707 
L 169.40461 83.002707 
L 169.40461 77.735846 
L 169.563646 77.735846 
L 169.563646 72.468985 
L 169.714208 72.468985 
L 169.714208 67.202125 
L 169.873248 67.202125 
L 169.873248 61.935264 
L 170.003182 61.935264 
L 170.003182 56.668403 
L 170.12872 56.668403 
L 170.12872 51.401542 
L 170.251995 51.401542 
L 170.251995 46.134681 
L 170.386599 46.134681 
L 170.386599 40.867821 
L 170.560447 40.867821 
L 170.560447 35.60096 
L 171.193164 35.60096 
L 171.193164 30.334099 
L 338.688 30.334099 
" style="fill:none;stroke:#f5deb3;stroke-linecap:square;stroke-width:4;"/>
   </g>
   <g id="line2d_2">
    <defs>
     <path d="M -0 7.778175 
L 7.778175 0 
L 0 -7.778175 
L -7.778175 -0 
z
" id="m9588d4480b" style="stroke:#f5deb3;stroke-linejoin:miter;stroke-width:1.5;"/>
    </defs>
    <g>
     <use style="fill:#f5deb3;stroke:#f5deb3;stroke-linejoin:miter;stroke-width:1.5;" x="166.536903" xlink:href="#m9588d4480b" y="146.205037"/>
     <use style="fill:#f5deb3;stroke:#f5deb3;stroke-linejoin:miter;stroke-width:1.5;" x="171.193164" xlink:href="#m9588d4480b" y="35.60096"/>
     <use style="fill:#f5deb3;stroke:#f5deb3;stroke-linejoin:miter;stroke-width:1.5;" x="171.193164" xlink:href="#m9588d4480b" y="30.334099"/>
     <use style="fill:#f5deb3;stroke:#f5deb3;stroke-linejoin:miter;stroke-width:1.5;" x="171.193164" xlink:href="#m9588d4480b" y="30.334099"/>
     <use style="fill:#f5deb3;stroke:#f5deb3;stroke-linejoin:miter;stroke-width:1.5;" x="338.688" xlink:href="#m9588d4480b" y="30.334099"/>
    </g>
   </g>
   <g id="line2d_3">
    <path style="fill:none;stroke:#f5deb3;stroke-linecap:square;stroke-width:4;"/>
    <g/>
   </g>
   <g id="line2d_4">
    <path d="M 338.688 30.334099 
L 369.60768 35.706297 
" style="fill:none;stroke:#f5deb3;stroke-linecap:square;stroke-width:4;"/>
    <g>
     <use style="fill:#f5deb3;stroke:#f5deb3;stroke-linejoin:miter;stroke-width:1.5;" x="338.688" xlink:href="#m9588d4480b" y="30.334099"/>
     <use style="fill:#f5deb3;stroke:#f5deb3;stroke-linejoin:miter;stroke-width:1.5;" x="369.60768" xlink:href="#m9588d4480b" y="35.706297"/>
    </g>
   </g>
   <g id="matplotlib.axis_1">
    <g id="xtick_1">
     <g id="line2d_5">
      <path clip-path="url(#p920f56702a)" d="M 57.6 298.944 
L 57.6 27.648 
" style="fill:none;stroke:#b0b0b0;stroke-linecap:square;stroke-width:0.8;"/>
     </g>
     <g id="line2d_6">
      <defs>
       <path d="M 0 0 
L 0 3.5 
" id="m135a10fd86" style="stroke:#000000;stroke-width:0.8;"/>
      </defs>
      <g>
       <use style="stroke:#000000;stroke-width:0.8;" x="57.6" xlink:href="#m135a10fd86" y="298.944"/>
      </g>
     </g>
     <g id="text_1">
      <!-- 0 -->
      <g transform="translate(51.2375 321.140875)scale(0.2 -0.2)">
       <defs>
        <path d="M 31.78125 66.40625 
Q 24.171875 66.40625 20.328125 58.90625 
Q 16.5 51.421875 16.5 36.375 
Q 16.5 21.390625 20.328125 13.890625 
Q 24.171875 6.390625 31.78125 6.390625 
Q 39.453125 6.390625 43.28125 13.890625 
Q 47.125 21.390625 47.125 36.375 
Q 47.125 51.421875 43.28125 58.90625 
Q 39.453125 66.40625 31.78125 66.40625 
z
M 31.78125 74.21875 
Q 44.046875 74.21875 50.515625 64.515625 
Q 56.984375 54.828125 56.984375 36.375 
Q 56.984375 17.96875 50.515625 8.265625 
Q 44.046875 -1.421875 31.78125 -1.421875 
Q 19.53125 -1.421875 13.0625 8.265625 
Q 6.59375 17.96875 6.59375 36.375 
Q 6.59375 54.828125 13.0625 64.515625 
Q 19.53125 74.21875 31.78125 74.21875 
z
" id="DejaVuSans-48"/>
       </defs>
       <use xlink:href="#DejaVuSans-48"/>
      </g>
     </g>
    </g>
    <g id="xtick_2">
     <g id="line2d_7">
      <path clip-path="url(#p920f56702a)" d="M 137.910857 298.944 
L 137.910857 27.648 
" style="fill:none;stroke:#b0b0b0;stroke-linecap:square;stroke-width:0.8;"/>
     </g>
     <g id="line2d_8">
      <g>
       <use style="stroke:#000000;stroke-width:0.8;" x="137.910857" xlink:href="#m135a10fd86" y="298.944"/>
      </g>
     </g>
     <g id="text_2">
      <!-- 2 -->
      <g transform="translate(131.548357 321.140875)scale(0.2 -0.2)">
       <defs>
        <path d="M 19.1875 8.296875 
L 53.609375 8.296875 
L 53.609375 0 
L 7.328125 0 
L 7.328125 8.296875 
Q 12.9375 14.109375 22.625 23.890625 
Q 32.328125 33.6875 34.8125 36.53125 
Q 39.546875 41.84375 41.421875 45.53125 
Q 43.3125 49.21875 43.3125 52.78125 
Q 43.3125 58.59375 39.234375 62.25 
Q 35.15625 65.921875 28.609375 65.921875 
Q 23.96875 65.921875 18.8125 64.3125 
Q 13.671875 62.703125 7.8125 59.421875 
L 7.8125 69.390625 
Q 13.765625 71.78125 18.9375 73 
Q 24.125 74.21875 28.421875 74.21875 
Q 39.75 74.21875 46.484375 68.546875 
Q 53.21875 62.890625 53.21875 53.421875 
Q 53.21875 48.921875 51.53125 44.890625 
Q 49.859375 40.875 45.40625 35.40625 
Q 44.1875 33.984375 37.640625 27.21875 
Q 31.109375 20.453125 19.1875 8.296875 
z
" id="DejaVuSans-50"/>
       </defs>
       <use xlink:href="#DejaVuSans-50"/>
      </g>
     </g>
    </g>
    <g id="xtick_3">
     <g id="line2d_9">
      <path clip-path="url(#p920f56702a)" d="M 218.221714 298.944 
L 218.221714 27.648 
" style="fill:none;stroke:#b0b0b0;stroke-linecap:square;stroke-width:0.8;"/>
     </g>
     <g id="line2d_10">
      <g>
       <use style="stroke:#000000;stroke-width:0.8;" x="218.221714" xlink:href="#m135a10fd86" y="298.944"/>
      </g>
     </g>
     <g id="text_3">
      <!-- 4 -->
      <g transform="translate(211.859214 321.140875)scale(0.2 -0.2)">
       <defs>
        <path d="M 37.796875 64.3125 
L 12.890625 25.390625 
L 37.796875 25.390625 
z
M 35.203125 72.90625 
L 47.609375 72.90625 
L 47.609375 25.390625 
L 58.015625 25.390625 
L 58.015625 17.1875 
L 47.609375 17.1875 
L 47.609375 0 
L 37.796875 0 
L 37.796875 17.1875 
L 4.890625 17.1875 
L 4.890625 26.703125 
z
" id="DejaVuSans-52"/>
       </defs>
       <use xlink:href="#DejaVuSans-52"/>
      </g>
     </g>
    </g>
    <g id="xtick_4">
     <g id="line2d_11">
      <path clip-path="url(#p920f56702a)" d="M 298.532571 298.944 
L 298.532571 27.648 
" style="fill:none;stroke:#b0b0b0;stroke-linecap:square;stroke-width:0.8;"/>
     </g>
     <g id="line2d_12">
      <g>
       <use style="stroke:#000000;stroke-width:0.8;" x="298.532571" xlink:href="#m135a10fd86" y="298.944"/>
      </g>
     </g>
     <g id="text_4">
      <!-- 6 -->
      <g transform="translate(292.170071 321.140875)scale(0.2 -0.2)">
       <defs>
        <path d="M 33.015625 40.375 
Q 26.375 40.375 22.484375 35.828125 
Q 18.609375 31.296875 18.609375 23.390625 
Q 18.609375 15.53125 22.484375 10.953125 
Q 26.375 6.390625 33.015625 6.390625 
Q 39.65625 6.390625 43.53125 10.953125 
Q 47.40625 15.53125 47.40625 23.390625 
Q 47.40625 31.296875 43.53125 35.828125 
Q 39.65625 40.375 33.015625 40.375 
z
M 52.59375 71.296875 
L 52.59375 62.3125 
Q 48.875 64.0625 45.09375 64.984375 
Q 41.3125 65.921875 37.59375 65.921875 
Q 27.828125 65.921875 22.671875 59.328125 
Q 17.53125 52.734375 16.796875 39.40625 
Q 19.671875 43.65625 24.015625 45.921875 
Q 28.375 48.1875 33.59375 48.1875 
Q 44.578125 48.1875 50.953125 41.515625 
Q 57.328125 34.859375 57.328125 23.390625 
Q 57.328125 12.15625 50.6875 5.359375 
Q 44.046875 -1.421875 33.015625 -1.421875 
Q 20.359375 -1.421875 13.671875 8.265625 
Q 6.984375 17.96875 6.984375 36.375 
Q 6.984375 53.65625 15.1875 63.9375 
Q 23.390625 74.21875 37.203125 74.21875 
Q 40.921875 74.21875 44.703125 73.484375 
Q 48.484375 72.75 52.59375 71.296875 
z
" id="DejaVuSans-54"/>
       </defs>
       <use xlink:href="#DejaVuSans-54"/>
      </g>
     </g>
    </g>
    <g id="xtick_5">
     <g id="line2d_13">
      <path clip-path="url(#p920f56702a)" d="M 97.755429 298.944 
L 97.755429 27.648 
" style="fill:none;stroke:#b0b0b0;stroke-linecap:square;stroke-width:0.8;"/>
     </g>
     <g id="line2d_14">
      <defs>
       <path d="M 0 0 
L 0 2 
" id="mc9e0a823e4" style="stroke:#000000;stroke-width:0.6;"/>
      </defs>
      <g>
       <use style="stroke:#000000;stroke-width:0.6;" x="97.755429" xlink:href="#mc9e0a823e4" y="298.944"/>
      </g>
     </g>
    </g>
    <g id="xtick_6">
     <g id="line2d_15">
      <path clip-path="url(#p920f56702a)" d="M 178.066286 298.944 
L 178.066286 27.648 
" style="fill:none;stroke:#b0b0b0;stroke-linecap:square;stroke-width:0.8;"/>
     </g>
     <g id="line2d_16">
      <g>
       <use style="stroke:#000000;stroke-width:0.6;" x="178.066286" xlink:href="#mc9e0a823e4" y="298.944"/>
      </g>
     </g>
    </g>
    <g id="xtick_7">
     <g id="line2d_17">
      <path clip-path="url(#p920f56702a)" d="M 258.377143 298.944 
L 258.377143 27.648 
" style="fill:none;stroke:#b0b0b0;stroke-linecap:square;stroke-width:0.8;"/>
     </g>
     <g id="line2d_18">
      <g>
       <use style="stroke:#000000;stroke-width:0.6;" x="258.377143" xlink:href="#mc9e0a823e4" y="298.944"/>
      </g>
     </g>
    </g>
    <g id="xtick_8">
     <g id="line2d_19">
      <path clip-path="url(#p920f56702a)" d="M 338.688 298.944 
L 338.688 27.648 
" style="fill:none;stroke:#b0b0b0;stroke-linecap:square;stroke-width:0.8;"/>
     </g>
     <g id="line2d_20">
      <g>
       <use style="stroke:#000000;stroke-width:0.6;" x="338.688" xlink:href="#mc9e0a823e4" y="298.944"/>
      </g>
     </g>
    </g>
    <g id="text_5">
     <!-- log10(# f-evals / dimension) -->
     <g transform="translate(77.764078 342.217594)scale(0.17 -0.17)">
      <defs>
       <path d="M 9.421875 75.984375 
L 18.40625 75.984375 
L 18.40625 0 
L 9.421875 0 
z
" id="DejaVuSans-108"/>
       <path d="M 30.609375 48.390625 
Q 23.390625 48.390625 19.1875 42.75 
Q 14.984375 37.109375 14.984375 27.296875 
Q 14.984375 17.484375 19.15625 11.84375 
Q 23.34375 6.203125 30.609375 6.203125 
Q 37.796875 6.203125 41.984375 11.859375 
Q 46.1875 17.53125 46.1875 27.296875 
Q 46.1875 37.015625 41.984375 42.703125 
Q 37.796875 48.390625 30.609375 48.390625 
z
M 30.609375 56 
Q 42.328125 56 49.015625 48.375 
Q 55.71875 40.765625 55.71875 27.296875 
Q 55.71875 13.875 49.015625 6.21875 
Q 42.328125 -1.421875 30.609375 -1.421875 
Q 18.84375 -1.421875 12.171875 6.21875 
Q 5.515625 13.875 5.515625 27.296875 
Q 5.515625 40.765625 12.171875 48.375 
Q 18.84375 56 30.609375 56 
z
" id="DejaVuSans-111"/>
       <path d="M 45.40625 27.984375 
Q 45.40625 37.75 41.375 43.109375 
Q 37.359375 48.484375 30.078125 48.484375 
Q 22.859375 48.484375 18.828125 43.109375 
Q 14.796875 37.75 14.796875 27.984375 
Q 14.796875 18.265625 18.828125 12.890625 
Q 22.859375 7.515625 30.078125 7.515625 
Q 37.359375 7.515625 41.375 12.890625 
Q 45.40625 18.265625 45.40625 27.984375 
z
M 54.390625 6.78125 
Q 54.390625 -7.171875 48.1875 -13.984375 
Q 42 -20.796875 29.203125 -20.796875 
Q 24.46875 -20.796875 20.265625 -20.09375 
Q 16.0625 -19.390625 12.109375 -17.921875 
L 12.109375 -9.1875 
Q 16.0625 -11.328125 19.921875 -12.34375 
Q 23.78125 -13.375 27.78125 -13.375 
Q 36.625 -13.375 41.015625 -8.765625 
Q 45.40625 -4.15625 45.40625 5.171875 
L 45.40625 9.625 
Q 42.625 4.78125 38.28125 2.390625 
Q 33.9375 0 27.875 0 
Q 17.828125 0 11.671875 7.65625 
Q 5.515625 15.328125 5.515625 27.984375 
Q 5.515625 40.671875 11.671875 48.328125 
Q 17.828125 56 27.875 56 
Q 33.9375 56 38.28125 53.609375 
Q 42.625 51.21875 45.40625 46.390625 
L 45.40625 54.6875 
L 54.390625 54.6875 
z
" id="DejaVuSans-103"/>
       <path d="M 12.40625 8.296875 
L 28.515625 8.296875 
L 28.515625 63.921875 
L 10.984375 60.40625 
L 10.984375 69.390625 
L 28.421875 72.90625 
L 38.28125 72.90625 
L 38.28125 8.296875 
L 54.390625 8.296875 
L 54.390625 0 
L 12.40625 0 
z
" id="DejaVuSans-49"/>
       <path d="M 31 75.875 
Q 24.46875 64.65625 21.28125 53.65625 
Q 18.109375 42.671875 18.109375 31.390625 
Q 18.109375 20.125 21.3125 9.0625 
Q 24.515625 -2 31 -13.1875 
L 23.1875 -13.1875 
Q 15.875 -1.703125 12.234375 9.375 
Q 8.59375 20.453125 8.59375 31.390625 
Q 8.59375 42.28125 12.203125 53.3125 
Q 15.828125 64.359375 23.1875 75.875 
z
" id="DejaVuSans-40"/>
       <path d="M 51.125 44 
L 36.921875 44 
L 32.8125 27.6875 
L 47.125 27.6875 
z
M 43.796875 71.78125 
L 38.71875 51.515625 
L 52.984375 51.515625 
L 58.109375 71.78125 
L 65.921875 71.78125 
L 60.890625 51.515625 
L 76.125 51.515625 
L 76.125 44 
L 58.984375 44 
L 54.984375 27.6875 
L 70.515625 27.6875 
L 70.515625 20.21875 
L 53.078125 20.21875 
L 48 0 
L 40.1875 0 
L 45.21875 20.21875 
L 30.90625 20.21875 
L 25.875 0 
L 18.015625 0 
L 23.09375 20.21875 
L 7.71875 20.21875 
L 7.71875 27.6875 
L 24.90625 27.6875 
L 29 44 
L 13.28125 44 
L 13.28125 51.515625 
L 30.90625 51.515625 
L 35.890625 71.78125 
z
" id="DejaVuSans-35"/>
       <path id="DejaVuSans-32"/>
       <path d="M 37.109375 75.984375 
L 37.109375 68.5 
L 28.515625 68.5 
Q 23.6875 68.5 21.796875 66.546875 
Q 19.921875 64.59375 19.921875 59.515625 
L 19.921875 54.6875 
L 34.71875 54.6875 
L 34.71875 47.703125 
L 19.921875 47.703125 
L 19.921875 0 
L 10.890625 0 
L 10.890625 47.703125 
L 2.296875 47.703125 
L 2.296875 54.6875 
L 10.890625 54.6875 
L 10.890625 58.5 
Q 10.890625 67.625 15.140625 71.796875 
Q 19.390625 75.984375 28.609375 75.984375 
z
" id="DejaVuSans-102"/>
       <path d="M 4.890625 31.390625 
L 31.203125 31.390625 
L 31.203125 23.390625 
L 4.890625 23.390625 
z
" id="DejaVuSans-45"/>
       <path d="M 56.203125 29.59375 
L 56.203125 25.203125 
L 14.890625 25.203125 
Q 15.484375 15.921875 20.484375 11.0625 
Q 25.484375 6.203125 34.421875 6.203125 
Q 39.59375 6.203125 44.453125 7.46875 
Q 49.3125 8.734375 54.109375 11.28125 
L 54.109375 2.78125 
Q 49.265625 0.734375 44.1875 -0.34375 
Q 39.109375 -1.421875 33.890625 -1.421875 
Q 20.796875 -1.421875 13.15625 6.1875 
Q 5.515625 13.8125 5.515625 26.8125 
Q 5.515625 40.234375 12.765625 48.109375 
Q 20.015625 56 32.328125 56 
Q 43.359375 56 49.78125 48.890625 
Q 56.203125 41.796875 56.203125 29.59375 
z
M 47.21875 32.234375 
Q 47.125 39.59375 43.09375 43.984375 
Q 39.0625 48.390625 32.421875 48.390625 
Q 24.90625 48.390625 20.390625 44.140625 
Q 15.875 39.890625 15.1875 32.171875 
z
" id="DejaVuSans-101"/>
       <path d="M 2.984375 54.6875 
L 12.5 54.6875 
L 29.59375 8.796875 
L 46.6875 54.6875 
L 56.203125 54.6875 
L 35.6875 0 
L 23.484375 0 
z
" id="DejaVuSans-118"/>
       <path d="M 34.28125 27.484375 
Q 23.390625 27.484375 19.1875 25 
Q 14.984375 22.515625 14.984375 16.5 
Q 14.984375 11.71875 18.140625 8.90625 
Q 21.296875 6.109375 26.703125 6.109375 
Q 34.1875 6.109375 38.703125 11.40625 
Q 43.21875 16.703125 43.21875 25.484375 
L 43.21875 27.484375 
z
M 52.203125 31.203125 
L 52.203125 0 
L 43.21875 0 
L 43.21875 8.296875 
Q 40.140625 3.328125 35.546875 0.953125 
Q 30.953125 -1.421875 24.3125 -1.421875 
Q 15.921875 -1.421875 10.953125 3.296875 
Q 6 8.015625 6 15.921875 
Q 6 25.140625 12.171875 29.828125 
Q 18.359375 34.515625 30.609375 34.515625 
L 43.21875 34.515625 
L 43.21875 35.40625 
Q 43.21875 41.609375 39.140625 45 
Q 35.0625 48.390625 27.6875 48.390625 
Q 23 48.390625 18.546875 47.265625 
Q 14.109375 46.140625 10.015625 43.890625 
L 10.015625 52.203125 
Q 14.9375 54.109375 19.578125 55.046875 
Q 24.21875 56 28.609375 56 
Q 40.484375 56 46.34375 49.84375 
Q 52.203125 43.703125 52.203125 31.203125 
z
" id="DejaVuSans-97"/>
       <path d="M 44.28125 53.078125 
L 44.28125 44.578125 
Q 40.484375 46.53125 36.375 47.5 
Q 32.28125 48.484375 27.875 48.484375 
Q 21.1875 48.484375 17.84375 46.4375 
Q 14.5 44.390625 14.5 40.28125 
Q 14.5 37.15625 16.890625 35.375 
Q 19.28125 33.59375 26.515625 31.984375 
L 29.59375 31.296875 
Q 39.15625 29.25 43.1875 25.515625 
Q 47.21875 21.78125 47.21875 15.09375 
Q 47.21875 7.46875 41.1875 3.015625 
Q 35.15625 -1.421875 24.609375 -1.421875 
Q 20.21875 -1.421875 15.453125 -0.5625 
Q 10.6875 0.296875 5.421875 2 
L 5.421875 11.28125 
Q 10.40625 8.6875 15.234375 7.390625 
Q 20.0625 6.109375 24.8125 6.109375 
Q 31.15625 6.109375 34.5625 8.28125 
Q 37.984375 10.453125 37.984375 14.40625 
Q 37.984375 18.0625 35.515625 20.015625 
Q 33.0625 21.96875 24.703125 23.78125 
L 21.578125 24.515625 
Q 13.234375 26.265625 9.515625 29.90625 
Q 5.8125 33.546875 5.8125 39.890625 
Q 5.8125 47.609375 11.28125 51.796875 
Q 16.75 56 26.8125 56 
Q 31.78125 56 36.171875 55.265625 
Q 40.578125 54.546875 44.28125 53.078125 
z
" id="DejaVuSans-115"/>
       <path d="M 25.390625 72.90625 
L 33.6875 72.90625 
L 8.296875 -9.28125 
L 0 -9.28125 
z
" id="DejaVuSans-47"/>
       <path d="M 45.40625 46.390625 
L 45.40625 75.984375 
L 54.390625 75.984375 
L 54.390625 0 
L 45.40625 0 
L 45.40625 8.203125 
Q 42.578125 3.328125 38.25 0.953125 
Q 33.9375 -1.421875 27.875 -1.421875 
Q 17.96875 -1.421875 11.734375 6.484375 
Q 5.515625 14.40625 5.515625 27.296875 
Q 5.515625 40.1875 11.734375 48.09375 
Q 17.96875 56 27.875 56 
Q 33.9375 56 38.25 53.625 
Q 42.578125 51.265625 45.40625 46.390625 
z
M 14.796875 27.296875 
Q 14.796875 17.390625 18.875 11.75 
Q 22.953125 6.109375 30.078125 6.109375 
Q 37.203125 6.109375 41.296875 11.75 
Q 45.40625 17.390625 45.40625 27.296875 
Q 45.40625 37.203125 41.296875 42.84375 
Q 37.203125 48.484375 30.078125 48.484375 
Q 22.953125 48.484375 18.875 42.84375 
Q 14.796875 37.203125 14.796875 27.296875 
z
" id="DejaVuSans-100"/>
       <path d="M 9.421875 54.6875 
L 18.40625 54.6875 
L 18.40625 0 
L 9.421875 0 
z
M 9.421875 75.984375 
L 18.40625 75.984375 
L 18.40625 64.59375 
L 9.421875 64.59375 
z
" id="DejaVuSans-105"/>
       <path d="M 52 44.1875 
Q 55.375 50.25 60.0625 53.125 
Q 64.75 56 71.09375 56 
Q 79.640625 56 84.28125 50.015625 
Q 88.921875 44.046875 88.921875 33.015625 
L 88.921875 0 
L 79.890625 0 
L 79.890625 32.71875 
Q 79.890625 40.578125 77.09375 44.375 
Q 74.3125 48.1875 68.609375 48.1875 
Q 61.625 48.1875 57.5625 43.546875 
Q 53.515625 38.921875 53.515625 30.90625 
L 53.515625 0 
L 44.484375 0 
L 44.484375 32.71875 
Q 44.484375 40.625 41.703125 44.40625 
Q 38.921875 48.1875 33.109375 48.1875 
Q 26.21875 48.1875 22.15625 43.53125 
Q 18.109375 38.875 18.109375 30.90625 
L 18.109375 0 
L 9.078125 0 
L 9.078125 54.6875 
L 18.109375 54.6875 
L 18.109375 46.1875 
Q 21.1875 51.21875 25.484375 53.609375 
Q 29.78125 56 35.6875 56 
Q 41.65625 56 45.828125 52.96875 
Q 50 49.953125 52 44.1875 
z
" id="DejaVuSans-109"/>
       <path d="M 54.890625 33.015625 
L 54.890625 0 
L 45.90625 0 
L 45.90625 32.71875 
Q 45.90625 40.484375 42.875 44.328125 
Q 39.84375 48.1875 33.796875 48.1875 
Q 26.515625 48.1875 22.3125 43.546875 
Q 18.109375 38.921875 18.109375 30.90625 
L 18.109375 0 
L 9.078125 0 
L 9.078125 54.6875 
L 18.109375 54.6875 
L 18.109375 46.1875 
Q 21.34375 51.125 25.703125 53.5625 
Q 30.078125 56 35.796875 56 
Q 45.21875 56 50.046875 50.171875 
Q 54.890625 44.34375 54.890625 33.015625 
z
" id="DejaVuSans-110"/>
       <path d="M 8.015625 75.875 
L 15.828125 75.875 
Q 23.140625 64.359375 26.78125 53.3125 
Q 30.421875 42.28125 30.421875 31.390625 
Q 30.421875 20.453125 26.78125 9.375 
Q 23.140625 -1.703125 15.828125 -13.1875 
L 8.015625 -13.1875 
Q 14.5 -2 17.703125 9.0625 
Q 20.90625 20.125 20.90625 31.390625 
Q 20.90625 42.671875 17.703125 53.65625 
Q 14.5 64.65625 8.015625 75.875 
z
" id="DejaVuSans-41"/>
      </defs>
      <use xlink:href="#DejaVuSans-108"/>
      <use x="27.783203" xlink:href="#DejaVuSans-111"/>
      <use x="88.964844" xlink:href="#DejaVuSans-103"/>
      <use x="152.441406" xlink:href="#DejaVuSans-49"/>
      <use x="216.064453" xlink:href="#DejaVuSans-48"/>
      <use x="279.6875" xlink:href="#DejaVuSans-40"/>
      <use x="318.701172" xlink:href="#DejaVuSans-35"/>
      <use x="402.490234" xlink:href="#DejaVuSans-32"/>
      <use x="434.277344" xlink:href="#DejaVuSans-102"/>
      <use x="463.982422" xlink:href="#DejaVuSans-45"/>
      <use x="500.066406" xlink:href="#DejaVuSans-101"/>
      <use x="561.589844" xlink:href="#DejaVuSans-118"/>
      <use x="620.769531" xlink:href="#DejaVuSans-97"/>
      <use x="682.048828" xlink:href="#DejaVuSans-108"/>
      <use x="709.832031" xlink:href="#DejaVuSans-115"/>
      <use x="761.931641" xlink:href="#DejaVuSans-32"/>
      <use x="793.71875" xlink:href="#DejaVuSans-47"/>
      <use x="827.410156" xlink:href="#DejaVuSans-32"/>
      <use x="859.197266" xlink:href="#DejaVuSans-100"/>
      <use x="922.673828" xlink:href="#DejaVuSans-105"/>
      <use x="950.457031" xlink:href="#DejaVuSans-109"/>
      <use x="1047.869141" xlink:href="#DejaVuSans-101"/>
      <use x="1109.392578" xlink:href="#DejaVuSans-110"/>
      <use x="1172.771484" xlink:href="#DejaVuSans-115"/>
      <use x="1224.871094" xlink:href="#DejaVuSans-105"/>
      <use x="1252.654297" xlink:href="#DejaVuSans-111"/>
      <use x="1313.835938" xlink:href="#DejaVuSans-110"/>
      <use x="1377.214844" xlink:href="#DejaVuSans-41"/>
     </g>
    </g>
   </g>
   <g id="matplotlib.axis_2">
    <g id="ytick_1">
     <g id="line2d_21">
      <path clip-path="url(#p920f56702a)" d="M 57.6 298.944 
L 338.688 298.944 
" style="fill:none;stroke:#b0b0b0;stroke-linecap:square;stroke-width:0.8;"/>
     </g>
     <g id="line2d_22">
      <defs>
       <path d="M 0 0 
L -3.5 0 
" id="m0bd8255881" style="stroke:#000000;stroke-width:0.8;"/>
      </defs>
      <g>
       <use style="stroke:#000000;stroke-width:0.8;" x="57.6" xlink:href="#m0bd8255881" y="298.944"/>
      </g>
     </g>
     <g id="text_6">
      <!-- 0.0 -->
      <g transform="translate(25.155 305.02275)scale(0.16 -0.16)">
       <defs>
        <path d="M 10.6875 12.40625 
L 21 12.40625 
L 21 0 
L 10.6875 0 
z
" id="DejaVuSans-46"/>
       </defs>
       <use xlink:href="#DejaVuSans-48"/>
       <use x="63.623047" xlink:href="#DejaVuSans-46"/>
       <use x="95.410156" xlink:href="#DejaVuSans-48"/>
      </g>
     </g>
    </g>
    <g id="ytick_2">
     <g id="line2d_23">
      <path clip-path="url(#p920f56702a)" d="M 57.6 245.22202 
L 338.688 245.22202 
" style="fill:none;stroke:#b0b0b0;stroke-linecap:square;stroke-width:0.8;"/>
     </g>
     <g id="line2d_24">
      <g>
       <use style="stroke:#000000;stroke-width:0.8;" x="57.6" xlink:href="#m0bd8255881" y="245.22202"/>
      </g>
     </g>
     <g id="text_7">
      <!-- 0.2 -->
      <g transform="translate(25.155 251.30077)scale(0.16 -0.16)">
       <use xlink:href="#DejaVuSans-48"/>
       <use x="63.623047" xlink:href="#DejaVuSans-46"/>
       <use x="95.410156" xlink:href="#DejaVuSans-50"/>
      </g>
     </g>
    </g>
    <g id="ytick_3">
     <g id="line2d_25">
      <path clip-path="url(#p920f56702a)" d="M 57.6 191.50004 
L 338.688 191.50004 
" style="fill:none;stroke:#b0b0b0;stroke-linecap:square;stroke-width:0.8;"/>
     </g>
     <g id="line2d_26">
      <g>
       <use style="stroke:#000000;stroke-width:0.8;" x="57.6" xlink:href="#m0bd8255881" y="191.50004"/>
      </g>
     </g>
     <g id="text_8">
      <!-- 0.4 -->
      <g transform="translate(25.155 197.57879)scale(0.16 -0.16)">
       <use xlink:href="#DejaVuSans-48"/>
       <use x="63.623047" xlink:href="#DejaVuSans-46"/>
       <use x="95.410156" xlink:href="#DejaVuSans-52"/>
      </g>
     </g>
    </g>
    <g id="ytick_4">
     <g id="line2d_27">
      <path clip-path="url(#p920f56702a)" d="M 57.6 137.778059 
L 338.688 137.778059 
" style="fill:none;stroke:#b0b0b0;stroke-linecap:square;stroke-width:0.8;"/>
     </g>
     <g id="line2d_28">
      <g>
       <use style="stroke:#000000;stroke-width:0.8;" x="57.6" xlink:href="#m0bd8255881" y="137.778059"/>
      </g>
     </g>
     <g id="text_9">
      <!-- 0.6 -->
      <g transform="translate(25.155 143.856809)scale(0.16 -0.16)">
       <use xlink:href="#DejaVuSans-48"/>
       <use x="63.623047" xlink:href="#DejaVuSans-46"/>
       <use x="95.410156" xlink:href="#DejaVuSans-54"/>
      </g>
     </g>
    </g>
    <g id="ytick_5">
     <g id="line2d_29">
      <path clip-path="url(#p920f56702a)" d="M 57.6 84.056079 
L 338.688 84.056079 
" style="fill:none;stroke:#b0b0b0;stroke-linecap:square;stroke-width:0.8;"/>
     </g>
     <g id="line2d_30">
      <g>
       <use style="stroke:#000000;stroke-width:0.8;" x="57.6" xlink:href="#m0bd8255881" y="84.056079"/>
      </g>
     </g>
     <g id="text_10">
      <!-- 0.8 -->
      <g transform="translate(25.155 90.134829)scale(0.16 -0.16)">
       <defs>
        <path d="M 31.78125 34.625 
Q 24.75 34.625 20.71875 30.859375 
Q 16.703125 27.09375 16.703125 20.515625 
Q 16.703125 13.921875 20.71875 10.15625 
Q 24.75 6.390625 31.78125 6.390625 
Q 38.8125 6.390625 42.859375 10.171875 
Q 46.921875 13.96875 46.921875 20.515625 
Q 46.921875 27.09375 42.890625 30.859375 
Q 38.875 34.625 31.78125 34.625 
z
M 21.921875 38.8125 
Q 15.578125 40.375 12.03125 44.71875 
Q 8.5 49.078125 8.5 55.328125 
Q 8.5 64.0625 14.71875 69.140625 
Q 20.953125 74.21875 31.78125 74.21875 
Q 42.671875 74.21875 48.875 69.140625 
Q 55.078125 64.0625 55.078125 55.328125 
Q 55.078125 49.078125 51.53125 44.71875 
Q 48 40.375 41.703125 38.8125 
Q 48.828125 37.15625 52.796875 32.3125 
Q 56.78125 27.484375 56.78125 20.515625 
Q 56.78125 9.90625 50.3125 4.234375 
Q 43.84375 -1.421875 31.78125 -1.421875 
Q 19.734375 -1.421875 13.25 4.234375 
Q 6.78125 9.90625 6.78125 20.515625 
Q 6.78125 27.484375 10.78125 32.3125 
Q 14.796875 37.15625 21.921875 38.8125 
z
M 18.3125 54.390625 
Q 18.3125 48.734375 21.84375 45.5625 
Q 25.390625 42.390625 31.78125 42.390625 
Q 38.140625 42.390625 41.71875 45.5625 
Q 45.3125 48.734375 45.3125 54.390625 
Q 45.3125 60.0625 41.71875 63.234375 
Q 38.140625 66.40625 31.78125 66.40625 
Q 25.390625 66.40625 21.84375 63.234375 
Q 18.3125 60.0625 18.3125 54.390625 
z
" id="DejaVuSans-56"/>
       </defs>
       <use xlink:href="#DejaVuSans-48"/>
       <use x="63.623047" xlink:href="#DejaVuSans-46"/>
       <use x="95.410156" xlink:href="#DejaVuSans-56"/>
      </g>
     </g>
    </g>
    <g id="ytick_6">
     <g id="line2d_31">
      <path clip-path="url(#p920f56702a)" d="M 57.6 30.334099 
L 338.688 30.334099 
" style="fill:none;stroke:#b0b0b0;stroke-linecap:square;stroke-width:0.8;"/>
     </g>
     <g id="line2d_32">
      <g>
       <use style="stroke:#000000;stroke-width:0.8;" x="57.6" xlink:href="#m0bd8255881" y="30.334099"/>
      </g>
     </g>
     <g id="text_11">
      <!-- 1.0 -->
      <g transform="translate(25.155 36.412849)scale(0.16 -0.16)">
       <use xlink:href="#DejaVuSans-49"/>
       <use x="63.623047" xlink:href="#DejaVuSans-46"/>
       <use x="95.410156" xlink:href="#DejaVuSans-48"/>
      </g>
     </g>
    </g>
    <g id="text_12">
     <!-- Fraction of function,target pairs -->
     <g transform="translate(17.619531 297.681)rotate(-90)scale(0.17 -0.17)">
      <defs>
       <path d="M 9.8125 72.90625 
L 51.703125 72.90625 
L 51.703125 64.59375 
L 19.671875 64.59375 
L 19.671875 43.109375 
L 48.578125 43.109375 
L 48.578125 34.8125 
L 19.671875 34.8125 
L 19.671875 0 
L 9.8125 0 
z
" id="DejaVuSans-70"/>
       <path d="M 41.109375 46.296875 
Q 39.59375 47.171875 37.8125 47.578125 
Q 36.03125 48 33.890625 48 
Q 26.265625 48 22.1875 43.046875 
Q 18.109375 38.09375 18.109375 28.8125 
L 18.109375 0 
L 9.078125 0 
L 9.078125 54.6875 
L 18.109375 54.6875 
L 18.109375 46.1875 
Q 20.953125 51.171875 25.484375 53.578125 
Q 30.03125 56 36.53125 56 
Q 37.453125 56 38.578125 55.875 
Q 39.703125 55.765625 41.0625 55.515625 
z
" id="DejaVuSans-114"/>
       <path d="M 48.78125 52.59375 
L 48.78125 44.1875 
Q 44.96875 46.296875 41.140625 47.34375 
Q 37.3125 48.390625 33.40625 48.390625 
Q 24.65625 48.390625 19.8125 42.84375 
Q 14.984375 37.3125 14.984375 27.296875 
Q 14.984375 17.28125 19.8125 11.734375 
Q 24.65625 6.203125 33.40625 6.203125 
Q 37.3125 6.203125 41.140625 7.25 
Q 44.96875 8.296875 48.78125 10.40625 
L 48.78125 2.09375 
Q 45.015625 0.34375 40.984375 -0.53125 
Q 36.96875 -1.421875 32.421875 -1.421875 
Q 20.0625 -1.421875 12.78125 6.34375 
Q 5.515625 14.109375 5.515625 27.296875 
Q 5.515625 40.671875 12.859375 48.328125 
Q 20.21875 56 33.015625 56 
Q 37.15625 56 41.109375 55.140625 
Q 45.0625 54.296875 48.78125 52.59375 
z
" id="DejaVuSans-99"/>
       <path d="M 18.3125 70.21875 
L 18.3125 54.6875 
L 36.8125 54.6875 
L 36.8125 47.703125 
L 18.3125 47.703125 
L 18.3125 18.015625 
Q 18.3125 11.328125 20.140625 9.421875 
Q 21.96875 7.515625 27.59375 7.515625 
L 36.8125 7.515625 
L 36.8125 0 
L 27.59375 0 
Q 17.1875 0 13.234375 3.875 
Q 9.28125 7.765625 9.28125 18.015625 
L 9.28125 47.703125 
L 2.6875 47.703125 
L 2.6875 54.6875 
L 9.28125 54.6875 
L 9.28125 70.21875 
z
" id="DejaVuSans-116"/>
       <path d="M 8.5 21.578125 
L 8.5 54.6875 
L 17.484375 54.6875 
L 17.484375 21.921875 
Q 17.484375 14.15625 20.5 10.265625 
Q 23.53125 6.390625 29.59375 6.390625 
Q 36.859375 6.390625 41.078125 11.03125 
Q 45.3125 15.671875 45.3125 23.6875 
L 45.3125 54.6875 
L 54.296875 54.6875 
L 54.296875 0 
L 45.3125 0 
L 45.3125 8.40625 
Q 42.046875 3.421875 37.71875 1 
Q 33.40625 -1.421875 27.6875 -1.421875 
Q 18.265625 -1.421875 13.375 4.4375 
Q 8.5 10.296875 8.5 21.578125 
z
M 31.109375 56 
z
" id="DejaVuSans-117"/>
       <path d="M 11.71875 12.40625 
L 22.015625 12.40625 
L 22.015625 4 
L 14.015625 -11.625 
L 7.71875 -11.625 
L 11.71875 4 
z
" id="DejaVuSans-44"/>
       <path d="M 18.109375 8.203125 
L 18.109375 -20.796875 
L 9.078125 -20.796875 
L 9.078125 54.6875 
L 18.109375 54.6875 
L 18.109375 46.390625 
Q 20.953125 51.265625 25.265625 53.625 
Q 29.59375 56 35.59375 56 
Q 45.5625 56 51.78125 48.09375 
Q 58.015625 40.1875 58.015625 27.296875 
Q 58.015625 14.40625 51.78125 6.484375 
Q 45.5625 -1.421875 35.59375 -1.421875 
Q 29.59375 -1.421875 25.265625 0.953125 
Q 20.953125 3.328125 18.109375 8.203125 
z
M 48.6875 27.296875 
Q 48.6875 37.203125 44.609375 42.84375 
Q 40.53125 48.484375 33.40625 48.484375 
Q 26.265625 48.484375 22.1875 42.84375 
Q 18.109375 37.203125 18.109375 27.296875 
Q 18.109375 17.390625 22.1875 11.75 
Q 26.265625 6.109375 33.40625 6.109375 
Q 40.53125 6.109375 44.609375 11.75 
Q 48.6875 17.390625 48.6875 27.296875 
z
" id="DejaVuSans-112"/>
      </defs>
      <use xlink:href="#DejaVuSans-70"/>
      <use x="50.269531" xlink:href="#DejaVuSans-114"/>
      <use x="91.382812" xlink:href="#DejaVuSans-97"/>
      <use x="152.662109" xlink:href="#DejaVuSans-99"/>
      <use x="207.642578" xlink:href="#DejaVuSans-116"/>
      <use x="246.851562" xlink:href="#DejaVuSans-105"/>
      <use x="274.634766" xlink:href="#DejaVuSans-111"/>
      <use x="335.816406" xlink:href="#DejaVuSans-110"/>
      <use x="399.195312" xlink:href="#DejaVuSans-32"/>
      <use x="430.982422" xlink:href="#DejaVuSans-111"/>
      <use x="492.164062" xlink:href="#DejaVuSans-102"/>
      <use x="527.369141" xlink:href="#DejaVuSans-32"/>
      <use x="559.15625" xlink:href="#DejaVuSans-102"/>
      <use x="594.361328" xlink:href="#DejaVuSans-117"/>
      <use x="657.740234" xlink:href="#DejaVuSans-110"/>
      <use x="721.119141" xlink:href="#DejaVuSans-99"/>
      <use x="776.099609" xlink:href="#DejaVuSans-116"/>
      <use x="815.308594" xlink:href="#DejaVuSans-105"/>
      <use x="843.091797" xlink:href="#DejaVuSans-111"/>
      <use x="904.273438" xlink:href="#DejaVuSans-110"/>
      <use x="967.652344" xlink:href="#DejaVuSans-44"/>
      <use x="999.439453" xlink:href="#DejaVuSans-116"/>
      <use x="1038.648438" xlink:href="#DejaVuSans-97"/>
      <use x="1099.927734" xlink:href="#DejaVuSans-114"/>
      <use x="1139.291016" xlink:href="#DejaVuSans-103"/>
      <use x="1202.767578" xlink:href="#DejaVuSans-101"/>
      <use x="1264.291016" xlink:href="#DejaVuSans-116"/>
      <use x="1303.5" xlink:href="#DejaVuSans-32"/>
      <use x="1335.287109" xlink:href="#DejaVuSans-112"/>
      <use x="1398.763672" xlink:href="#DejaVuSans-97"/>
      <use x="1460.042969" xlink:href="#DejaVuSans-105"/>
      <use x="1487.826172" xlink:href="#DejaVuSans-114"/>
      <use x="1528.939453" xlink:href="#DejaVuSans-115"/>
     </g>
    </g>
   </g>
   <g id="line2d_33">
    <defs>
     <path d="M 0 1.5 
C 0.397805 1.5 0.77937 1.341951 1.06066 1.06066 
C 1.341951 0.77937 1.5 0.397805 1.5 0 
C 1.5 -0.397805 1.341951 -0.77937 1.06066 -1.06066 
C 0.77937 -1.341951 0.397805 -1.5 0 -1.5 
C -0.397805 -1.5 -0.77937 -1.341951 -1.06066 -1.06066 
C -1.341951 -0.77937 -1.5 -0.397805 -1.5 0 
C -1.5 0.397805 -1.341951 0.77937 -1.06066 1.06066 
C -0.77937 1.341951 -0.397805 1.5 0 1.5 
z
" id="ma19854f484" style="stroke:#f5deb3;"/>
    </defs>
    <g>
     <use style="fill:#f5deb3;stroke:#f5deb3;" x="171.193164" xlink:href="#ma19854f484" y="30.334099"/>
     <use style="fill:#f5deb3;stroke:#f5deb3;" x="171.193164" xlink:href="#ma19854f484" y="30.334099"/>
    </g>
   </g>
   <g id="line2d_34">
    <defs>
     <path d="M 0 1.5 
C 0.397805 1.5 0.77937 1.341951 1.06066 1.06066 
C 1.341951 0.77937 1.5 0.397805 1.5 0 
C 1.5 -0.397805 1.341951 -0.77937 1.06066 -1.06066 
C 0.77937 -1.341951 0.397805 -1.5 0 -1.5 
C -0.397805 -1.5 -0.77937 -1.341951 -1.06066 -1.06066 
C -1.341951 -0.77937 -1.5 -0.397805 -1.5 0 
C -1.5 0.397805 -1.341951 0.77937 -1.06066 1.06066 
C -0.77937 1.341951 -0.397805 1.5 0 1.5 
z
" id="m5a8e18d7d2" style="stroke:#000080;"/>
    </defs>
    <g>
     <use style="fill:#000080;stroke:#000080;" x="202.901283" xlink:href="#m5a8e18d7d2" y="30.334099"/>
     <use style="fill:#000080;stroke:#000080;" x="202.901283" xlink:href="#m5a8e18d7d2" y="30.334099"/>
    </g>
   </g>
   <g id="line2d_35">
    <path d="M 134.465959 298.944 
L 134.465959 298.417314 
L 134.916909 298.417314 
L 134.916909 297.890628 
L 135.056115 297.890628 
L 135.107392 296.837256 
L 135.22476 296.837256 
L 135.22476 296.31057 
L 135.50226 296.31057 
L 135.50226 295.783884 
L 135.809875 295.783884 
L 135.898175 294.203825 
L 136.010356 294.203825 
L 136.010356 292.623767 
L 136.170062 292.623767 
L 136.170062 292.097081 
L 136.304433 292.097081 
L 136.409288 290.517023 
L 136.635898 290.517023 
L 136.729457 288.410278 
L 136.831795 288.410278 
L 136.933536 285.776848 
L 137.002566 285.776848 
L 137.007158 283.670104 
L 137.144368 283.670104 
L 137.208032 282.616732 
L 137.25789 282.616732 
L 137.275986 281.563359 
L 137.827823 281.563359 
L 137.906497 279.983301 
L 137.976132 279.983301 
L 137.976132 279.456615 
L 138.157613 279.456615 
L 138.226255 276.823185 
L 138.337225 276.823185 
L 138.405164 275.769812 
L 138.460171 275.769812 
L 138.50658 274.71644 
L 138.728473 274.71644 
L 138.728473 274.189754 
L 138.84457 274.189754 
L 138.93936 271.029638 
L 139.009092 271.029638 
L 139.111136 269.449579 
L 139.163964 269.449579 
L 139.216633 267.342835 
L 139.301378 267.342835 
L 139.397728 264.709405 
L 139.663921 264.709405 
L 139.770054 262.075974 
L 140.134598 262.075974 
L 140.226464 260.495916 
L 140.435184 260.495916 
L 140.435184 259.442544 
L 140.551735 259.442544 
L 140.551735 258.389172 
L 140.663789 258.389172 
L 140.663789 257.862486 
L 140.944478 257.862486 
L 140.944478 257.3358 
L 141.155689 257.3358 
L 141.191848 256.282427 
L 141.414373 256.282427 
L 141.414373 255.755741 
L 141.602371 255.755741 
L 141.602371 255.229055 
L 142.133981 255.229055 
L 142.133981 254.702369 
L 142.857929 254.702369 
L 142.939811 253.648997 
L 143.079756 253.648997 
L 143.079756 253.122311 
L 143.644266 253.122311 
L 143.644266 252.595625 
L 157.420907 252.595625 
L 157.420907 252.068939 
L 157.561347 252.068939 
L 157.561347 251.542253 
L 158.322973 251.542253 
L 158.322973 251.015567 
L 158.497919 251.015567 
L 158.497919 250.488881 
L 158.955169 250.488881 
L 158.955169 249.962195 
L 159.180664 249.962195 
L 159.180664 249.435508 
L 160.075375 249.435508 
L 160.075375 248.908822 
L 160.267579 248.908822 
L 160.267579 248.382136 
L 160.443321 248.382136 
L 160.443321 247.85545 
L 160.759027 247.85545 
L 160.759027 247.328764 
L 161.017045 247.328764 
L 161.02168 246.275392 
L 161.245013 246.275392 
L 161.245013 245.748706 
L 161.396487 245.748706 
L 161.453093 244.168648 
L 161.61286 244.168648 
L 161.61286 243.641962 
L 162.435383 243.641962 
L 162.435383 243.115275 
L 162.685717 243.115275 
L 162.685717 242.588589 
L 163.0886 242.588589 
L 163.141006 241.535217 
L 163.623677 241.535217 
L 163.643626 240.481845 
L 163.865507 240.481845 
L 163.951909 239.428473 
L 164.575287 239.428473 
L 164.575287 238.901787 
L 164.726775 238.901787 
L 164.726775 238.375101 
L 164.854652 238.375101 
L 164.854652 237.848415 
L 164.979752 237.848415 
L 165.014804 236.795043 
L 165.150654 236.795043 
L 165.150654 236.268356 
L 165.292712 236.268356 
L 165.374145 235.214984 
L 165.421022 235.214984 
L 165.421022 234.688298 
L 165.583216 234.688298 
L 165.583216 234.161612 
L 165.712956 234.161612 
L 165.823273 232.581554 
L 165.956484 232.581554 
L 165.956484 232.054868 
L 166.255975 232.054868 
L 166.288556 231.001496 
L 166.766768 231.001496 
L 166.876434 229.948123 
L 166.944214 229.948123 
L 166.944214 229.421437 
L 167.587247 229.421437 
L 167.587247 228.894751 
L 167.870382 228.894751 
L 167.870382 228.368065 
L 168.138213 228.368065 
L 168.156692 227.314693 
L 168.255685 227.314693 
L 168.255685 226.788007 
L 168.446705 226.788007 
L 168.446705 226.261321 
L 168.664083 226.261321 
L 168.664083 225.734635 
L 169.019244 225.734635 
L 169.019244 225.207949 
L 169.362289 225.207949 
L 169.468969 222.574518 
L 169.536648 222.574518 
L 169.536648 222.047832 
L 169.845328 222.047832 
L 169.845328 221.521146 
L 170.491924 221.521146 
L 170.586577 219.941088 
L 170.604643 219.941088 
L 170.688042 218.887716 
L 171.082896 218.887716 
L 171.163396 217.307658 
L 171.370077 217.307658 
L 171.370077 216.780971 
L 171.625505 216.780971 
L 171.717354 214.674227 
L 172.110073 214.674227 
L 172.22015 213.620855 
L 172.255472 213.620855 
L 172.324084 212.567483 
L 172.471323 212.567483 
L 172.471323 212.040797 
L 172.783385 212.040797 
L 172.806979 210.987425 
L 173.063263 210.987425 
L 173.129933 209.407366 
L 173.537125 209.407366 
L 173.537125 208.88068 
L 173.68292 208.88068 
L 173.73721 207.827308 
L 173.918443 207.827308 
L 174.027054 206.24725 
L 174.07645 206.24725 
L 174.07645 205.720564 
L 174.255836 205.720564 
L 174.255836 205.193878 
L 174.586293 205.193878 
L 174.586293 204.667192 
L 174.843076 204.667192 
L 174.8944 203.613819 
L 175.015824 203.613819 
L 175.025688 202.560447 
L 175.228482 202.560447 
L 175.327726 200.980389 
L 175.358815 200.980389 
L 175.359833 199.927017 
L 175.500308 199.927017 
L 175.519995 198.873645 
L 175.63966 198.873645 
L 175.656688 197.820273 
L 175.95448 197.820273 
L 175.994295 196.7669 
L 176.173562 196.7669 
L 176.283528 194.13347 
L 176.422054 194.13347 
L 176.443122 193.080098 
L 176.66989 193.080098 
L 176.748591 191.50004 
L 176.829746 191.50004 
L 176.936594 190.446667 
L 177.233156 190.446667 
L 177.267421 189.393295 
L 177.355288 189.393295 
L 177.355288 188.866609 
L 177.544086 188.866609 
L 177.551272 187.813237 
L 177.940269 187.813237 
L 178.002516 186.759865 
L 178.075439 186.759865 
L 178.147624 185.179807 
L 178.203515 185.179807 
L 178.281634 184.126434 
L 178.330657 184.126434 
L 178.376116 183.073062 
L 178.477756 183.073062 
L 178.477756 182.546376 
L 178.63038 182.546376 
L 178.63038 182.01969 
L 178.788374 182.01969 
L 178.825562 180.966318 
L 178.937485 180.966318 
L 179.045809 178.332888 
L 179.262495 178.332888 
L 179.282024 177.279515 
L 179.482954 177.279515 
L 179.482954 176.752829 
L 179.681595 176.752829 
L 179.681595 175.699457 
L 179.794097 175.699457 
L 179.877999 173.066027 
L 179.916075 173.066027 
L 180.015386 171.485969 
L 180.116074 171.485969 
L 180.116074 170.959282 
L 180.290794 170.959282 
L 180.3712 168.852538 
L 180.515761 168.852538 
L 180.54869 167.27248 
L 180.627165 167.27248 
L 180.659509 166.219108 
L 180.789034 166.219108 
L 180.878686 165.165736 
L 180.944978 165.165736 
L 181.009177 163.585677 
L 181.065433 163.585677 
L 181.073875 162.532305 
L 181.18725 162.532305 
L 181.260006 161.478933 
L 181.373625 161.478933 
L 181.475754 159.898875 
L 181.485791 159.898875 
L 181.58513 158.318817 
L 181.640627 158.318817 
L 181.640627 157.79213 
L 181.896954 157.79213 
L 181.896954 157.265444 
L 182.031882 157.265444 
L 182.047157 156.212072 
L 182.154397 156.212072 
L 182.247266 154.632014 
L 182.266466 154.632014 
L 182.364875 151.998584 
L 182.406056 151.998584 
L 182.406056 151.471897 
L 182.721032 151.471897 
L 182.721032 150.945211 
L 182.852407 150.945211 
L 182.931089 149.365153 
L 182.992991 149.365153 
L 183.097527 147.785095 
L 183.125602 147.785095 
L 183.208584 146.731723 
L 183.360825 146.731723 
L 183.453265 145.151665 
L 183.513982 145.151665 
L 183.513982 144.624978 
L 183.684454 144.624978 
L 183.731461 143.04492 
L 183.8711 143.04492 
L 183.914178 141.991548 
L 184.168897 141.991548 
L 184.238198 140.41149 
L 184.415102 140.41149 
L 184.415102 139.884804 
L 184.571626 139.884804 
L 184.672215 137.778059 
L 184.8758 137.778059 
L 184.943235 136.198001 
L 185.073828 136.198001 
L 185.073828 135.671315 
L 185.186937 135.671315 
L 185.207503 134.617943 
L 185.397239 134.617943 
L 185.405255 133.037885 
L 185.670841 133.037885 
L 185.734152 131.457826 
L 185.985126 131.457826 
L 186.050619 130.404454 
L 186.203581 130.404454 
L 186.306899 128.824396 
L 186.434179 128.824396 
L 186.468683 127.771024 
L 186.551428 127.771024 
L 186.551428 127.244338 
L 186.809749 127.244338 
L 186.866433 125.66428 
L 186.997287 125.66428 
L 187.05649 124.084221 
L 187.180761 124.084221 
L 187.285147 122.504163 
L 187.292598 122.504163 
L 187.380992 119.870733 
L 187.487746 119.870733 
L 187.585771 118.290674 
L 187.847244 118.290674 
L 187.957373 116.18393 
L 187.958362 116.18393 
L 187.958362 115.657244 
L 188.327033 115.657244 
L 188.373207 114.603872 
L 188.450535 114.603872 
L 188.53111 113.5505 
L 188.687833 113.5505 
L 188.741575 111.970441 
L 188.833758 111.970441 
L 188.913756 110.390383 
L 188.984533 110.390383 
L 189.029931 109.337011 
L 189.120375 109.337011 
L 189.216563 108.283639 
L 189.251264 108.283639 
L 189.283146 107.230267 
L 189.462339 107.230267 
L 189.55847 104.07015 
L 189.75094 104.07015 
L 189.858584 101.963406 
L 189.890039 101.963406 
L 189.890039 101.43672 
L 190.0616 101.43672 
L 190.111496 100.383348 
L 190.267912 100.383348 
L 190.345921 98.803289 
L 190.473525 98.803289 
L 190.473525 98.276603 
L 190.594038 98.276603 
L 190.594038 97.749917 
L 190.718579 97.749917 
L 190.718579 97.223231 
L 190.848732 97.223231 
L 190.919602 95.643173 
L 191.024644 95.643173 
L 191.120809 94.589801 
L 191.190379 94.589801 
L 191.242887 93.009743 
L 191.329506 93.009743 
L 191.434748 91.95637 
L 191.481477 91.95637 
L 191.551838 90.376312 
L 191.621717 90.376312 
L 191.681733 88.269568 
L 191.735173 88.269568 
L 191.77157 87.216196 
L 191.880506 87.216196 
L 191.943771 85.109451 
L 192.019349 85.109451 
L 192.047337 84.056079 
L 192.174577 84.056079 
L 192.208713 83.002707 
L 192.288362 83.002707 
L 192.37456 80.895963 
L 192.423626 80.895963 
L 192.483047 78.789218 
L 192.578158 78.789218 
L 192.655197 77.735846 
L 192.693307 77.735846 
L 192.763647 76.155788 
L 192.806015 76.155788 
L 192.806015 75.629102 
L 192.94031 75.629102 
L 192.971312 74.049044 
L 193.157459 74.049044 
L 193.206936 72.468985 
L 193.334376 72.468985 
L 193.430207 70.362241 
L 193.511134 70.362241 
L 193.541857 68.782183 
L 193.633522 68.782183 
L 193.73554 67.728811 
L 193.781635 67.728811 
L 193.849492 66.675439 
L 194.011872 66.675439 
L 194.11466 64.568694 
L 194.351884 64.568694 
L 194.351884 64.042008 
L 194.544451 64.042008 
L 194.648706 62.46195 
L 194.656622 62.46195 
L 194.656622 61.935264 
L 194.865849 61.935264 
L 194.895108 60.881892 
L 195.157395 60.881892 
L 195.196457 59.301833 
L 195.377222 59.301833 
L 195.399182 58.248461 
L 195.57691 58.248461 
L 195.599099 57.195089 
L 195.866801 57.195089 
L 195.924205 56.141717 
L 196.102424 56.141717 
L 196.102424 55.615031 
L 196.318534 55.615031 
L 196.325421 54.561659 
L 196.473377 54.561659 
L 196.535173 53.508287 
L 196.716866 53.508287 
L 196.716866 52.9816 
L 196.971163 52.9816 
L 197.041948 51.928228 
L 197.353581 51.928228 
L 197.353581 51.401542 
L 197.475918 51.401542 
L 197.475918 50.874856 
L 197.612192 50.874856 
L 197.694579 49.821484 
L 197.835477 49.821484 
L 197.835477 49.294798 
L 197.980257 49.294798 
L 198.076436 48.241426 
L 198.353524 48.241426 
L 198.432762 46.661368 
L 198.672485 46.661368 
L 198.672485 46.134681 
L 198.803605 46.134681 
L 198.887832 45.081309 
L 199.206206 45.081309 
L 199.23524 43.501251 
L 199.607076 43.501251 
L 199.607076 42.974565 
L 199.73591 42.974565 
L 199.73591 42.447879 
L 199.927144 42.447879 
L 199.965562 40.867821 
L 200.100536 40.867821 
L 200.100536 40.341135 
L 200.270269 40.341135 
L 200.285761 39.287762 
L 200.505562 39.287762 
L 200.592761 37.181018 
L 200.63787 37.181018 
L 200.696088 36.127646 
L 200.837245 36.127646 
L 200.889502 35.074274 
L 201.025836 35.074274 
L 201.025836 34.547588 
L 201.192743 34.547588 
L 201.192743 34.020902 
L 201.4017 34.020902 
L 201.4017 33.494215 
L 201.649165 33.494215 
L 201.649165 32.967529 
L 201.87236 32.967529 
L 201.87236 32.440843 
L 202.545239 32.440843 
L 202.545239 31.914157 
L 202.664162 31.914157 
L 202.714943 30.860785 
L 202.901283 30.860785 
L 202.901283 30.334099 
L 338.688 30.334099 
L 338.688 30.334099 
" style="fill:none;stroke:#000080;stroke-linecap:square;stroke-width:1.5;"/>
   </g>
   <g id="line2d_36">
    <defs>
     <path d="M 0 6 
C 1.591219 6 3.117479 5.367802 4.242641 4.242641 
C 5.367802 3.117479 6 1.591219 6 0 
C 6 -1.591219 5.367802 -3.117479 4.242641 -4.242641 
C 3.117479 -5.367802 1.591219 -6 0 -6 
C -1.591219 -6 -3.117479 -5.367802 -4.242641 -4.242641 
C -5.367802 -3.117479 -6 -1.591219 -6 0 
C -6 1.591219 -5.367802 3.117479 -4.242641 4.242641 
C -3.117479 5.367802 -1.591219 6 0 6 
z
" id="ma12bcb4210" style="stroke:#000080;stroke-width:1.5;"/>
    </defs>
    <g>
     <use style="fill-opacity:0;stroke:#000080;stroke-width:1.5;" x="168.446705" xlink:href="#ma12bcb4210" y="226.261321"/>
     <use style="fill-opacity:0;stroke:#000080;stroke-width:1.5;" x="197.980257" xlink:href="#ma12bcb4210" y="49.294798"/>
     <use style="fill-opacity:0;stroke:#000080;stroke-width:1.5;" x="202.901283" xlink:href="#ma12bcb4210" y="30.334099"/>
     <use style="fill-opacity:0;stroke:#000080;stroke-width:1.5;" x="202.901283" xlink:href="#ma12bcb4210" y="30.334099"/>
     <use style="fill-opacity:0;stroke:#000080;stroke-width:1.5;" x="338.688" xlink:href="#ma12bcb4210" y="30.334099"/>
    </g>
   </g>
   <g id="line2d_37">
    <path style="fill:none;stroke:#000080;stroke-linecap:square;stroke-width:1.5;"/>
    <g/>
   </g>
   <g id="line2d_38">
    <defs>
     <path d="M 0 1.5 
C 0.397805 1.5 0.77937 1.341951 1.06066 1.06066 
C 1.341951 0.77937 1.5 0.397805 1.5 0 
C 1.5 -0.397805 1.341951 -0.77937 1.06066 -1.06066 
C 0.77937 -1.341951 0.397805 -1.5 0 -1.5 
C -0.397805 -1.5 -0.77937 -1.341951 -1.06066 -1.06066 
C -1.341951 -0.77937 -1.5 -0.397805 -1.5 0 
C -1.5 0.397805 -1.341951 0.77937 -1.06066 1.06066 
C -0.77937 1.341951 -0.397805 1.5 0 1.5 
z
" id="mb3da22bb34" style="stroke:#ff00ff;"/>
    </defs>
    <g>
     <use style="fill:#ff00ff;stroke:#ff00ff;" x="203.670684" xlink:href="#mb3da22bb34" y="30.334099"/>
     <use style="fill:#ff00ff;stroke:#ff00ff;" x="203.670684" xlink:href="#mb3da22bb34" y="30.334099"/>
    </g>
   </g>
   <g id="line2d_39">
    <path d="M 135.366585 298.944 
L 135.447112 297.890628 
L 135.52727 297.890628 
L 135.52727 297.363942 
L 135.765556 297.363942 
L 135.765556 296.837256 
L 136.155604 296.837256 
L 136.232577 295.257197 
L 136.385513 295.257197 
L 136.385513 294.730511 
L 136.910465 294.730511 
L 136.984184 292.097081 
L 137.057594 292.097081 
L 137.057594 291.570395 
L 137.203492 291.570395 
L 137.203492 291.043709 
L 137.348179 291.043709 
L 137.420076 288.936964 
L 137.491677 288.936964 
L 137.491677 288.410278 
L 137.634002 288.410278 
L 137.634002 286.303534 
L 137.845337 286.303534 
L 137.845337 285.250162 
L 137.984817 285.250162 
L 138.054141 283.143418 
L 138.12319 283.143418 
L 138.191968 279.456615 
L 138.464395 279.456615 
L 138.531843 277.876557 
L 138.799052 277.876557 
L 138.799052 277.349871 
L 139.127408 277.349871 
L 139.192344 275.769812 
L 139.257039 275.769812 
L 139.321494 273.136382 
L 139.576961 273.136382 
L 139.576961 272.08301 
L 139.703305 272.08301 
L 139.703305 271.029638 
L 139.82874 271.029638 
L 139.89112 269.449579 
L 139.953279 269.449579 
L 139.953279 268.922893 
L 140.076934 268.922893 
L 140.146108 267.342835 
L 140.26079 267.342835 
L 140.26079 266.816149 
L 140.442727 266.816149 
L 140.502953 264.182719 
L 140.562972 264.182719 
L 140.622786 262.075974 
L 140.801004 262.075974 
L 140.801004 261.022602 
L 141.209899 261.022602 
L 141.317815 258.915858 
L 141.382246 258.915858 
L 141.439319 257.862486 
L 141.559982 257.862486 
L 141.609425 255.755741 
L 141.721914 255.755741 
L 141.721914 255.229055 
L 141.833683 255.229055 
L 141.833683 254.702369 
L 142.219325 254.702369 
L 142.219325 254.175683 
L 142.382025 254.175683 
L 142.382025 253.648997 
L 142.649864 253.648997 
L 142.649864 252.595625 
L 143.018058 252.595625 
L 143.018058 251.542253 
L 143.327582 251.542253 
L 143.327582 251.015567 
L 143.781805 251.015567 
L 143.781805 250.488881 
L 143.979946 250.488881 
L 143.979946 249.962195 
L 144.369598 249.962195 
L 144.369598 249.435508 
L 157.286505 249.435508 
L 157.286505 248.908822 
L 158.685705 248.908822 
L 158.685705 248.382136 
L 159.447717 248.382136 
L 159.447717 247.85545 
L 159.623089 247.85545 
L 159.623089 247.328764 
L 159.998142 247.328764 
L 160.080267 246.275392 
L 160.327964 246.275392 
L 160.327964 245.748706 
L 161.175098 245.748706 
L 161.274728 244.695334 
L 161.46891 244.695334 
L 161.46891 244.168648 
L 161.8774 244.168648 
L 161.8774 243.641962 
L 162.142333 243.641962 
L 162.142333 243.115275 
L 162.370089 243.115275 
L 162.370089 242.588589 
L 162.501498 242.588589 
L 162.52596 241.535217 
L 162.704664 241.535217 
L 162.704664 241.008531 
L 163.45016 241.008531 
L 163.560688 239.955159 
L 163.793507 239.955159 
L 163.810301 238.901787 
L 164.234612 238.901787 
L 164.343166 237.321729 
L 164.651666 237.321729 
L 164.651666 236.795043 
L 164.988983 236.795043 
L 165.022174 235.74167 
L 165.700557 235.74167 
L 165.770408 234.688298 
L 165.851402 234.688298 
L 165.851402 234.161612 
L 166.139733 234.161612 
L 166.139733 233.634926 
L 166.275702 233.634926 
L 166.275702 233.10824 
L 166.417424 233.10824 
L 166.49886 232.054868 
L 166.541969 232.054868 
L 166.541969 231.528182 
L 166.703313 231.528182 
L 166.703313 231.001496 
L 166.948338 231.001496 
L 166.948338 230.47481 
L 168.001318 230.47481 
L 168.001318 229.948123 
L 168.461836 229.948123 
L 168.461836 229.421437 
L 168.711112 229.421437 
L 168.711112 228.894751 
L 168.99579 228.894751 
L 168.99579 228.368065 
L 169.299696 228.368065 
L 169.360853 227.314693 
L 170.14864 227.314693 
L 170.14864 226.788007 
L 170.487211 226.788007 
L 170.59394 224.154577 
L 170.662064 224.154577 
L 170.662064 223.627891 
L 171.03272 223.627891 
L 171.03272 223.101204 
L 171.382234 223.101204 
L 171.485546 222.047832 
L 171.617303 222.047832 
L 171.711706 220.467774 
L 171.729898 220.467774 
L 171.81309 219.414402 
L 171.889054 219.414402 
L 171.889054 218.887716 
L 172.207954 218.887716 
L 172.288294 217.307658 
L 172.667907 217.307658 
L 172.678598 216.254285 
L 172.82112 216.254285 
L 172.911586 214.147541 
L 173.327281 214.147541 
L 173.345579 213.094169 
L 173.449287 213.094169 
L 173.449287 212.567483 
L 173.596378 212.567483 
L 173.596378 212.040797 
L 173.82973 212.040797 
L 173.82973 211.514111 
L 174.086312 211.514111 
L 174.188442 210.460738 
L 174.226519 210.460738 
L 174.303506 208.88068 
L 174.662242 208.88068 
L 174.722024 207.827308 
L 174.788444 207.827308 
L 174.862471 206.24725 
L 175.114733 206.24725 
L 175.201784 204.667192 
L 175.363906 204.667192 
L 175.381206 203.613819 
L 175.657188 203.613819 
L 175.657188 203.087133 
L 175.968254 203.087133 
L 176.019808 202.033761 
L 176.140972 202.033761 
L 176.162868 200.453703 
L 176.353891 200.453703 
L 176.432112 199.400331 
L 176.484225 199.400331 
L 176.484225 198.873645 
L 176.625434 198.873645 
L 176.645311 197.820273 
L 176.76504 197.820273 
L 176.781943 196.7669 
L 177.079739 196.7669 
L 177.119371 195.713528 
L 177.370721 195.713528 
L 177.408792 193.606784 
L 177.543188 193.606784 
L 177.568328 192.026726 
L 177.795189 192.026726 
L 177.873832 190.446667 
L 177.955193 190.446667 
L 178.061925 188.866609 
L 178.278619 188.866609 
L 178.278619 188.339923 
L 178.428291 188.339923 
L 178.480736 186.759865 
L 178.662852 186.759865 
L 178.676329 185.179807 
L 179.09972 185.179807 
L 179.09972 184.653121 
L 179.255166 184.653121 
L 179.328723 183.073062 
L 179.406816 183.073062 
L 179.406816 182.546376 
L 179.566763 182.546376 
L 179.668078 181.493004 
L 179.755753 181.493004 
L 179.755753 180.966318 
L 179.913722 180.966318 
L 179.950937 179.912946 
L 180.062887 179.912946 
L 180.124212 177.806202 
L 180.387618 177.806202 
L 180.480113 176.226143 
L 180.594762 176.226143 
L 180.608333 175.172771 
L 180.806926 175.172771 
L 180.806926 174.646085 
L 180.919454 174.646085 
L 181.003283 172.539341 
L 181.083045 172.539341 
L 181.140526 171.485969 
L 181.241482 171.485969 
L 181.241482 170.959282 
L 181.416131 170.959282 
L 181.416131 170.432596 
L 181.643468 170.432596 
L 181.673983 169.379224 
L 181.784944 169.379224 
L 181.796917 168.325852 
L 181.918291 168.325852 
L 182.004076 167.27248 
L 182.070391 167.27248 
L 182.115383 166.219108 
L 182.190572 166.219108 
L 182.199174 165.165736 
L 182.410814 165.165736 
L 182.49895 164.112363 
L 182.530705 164.112363 
L 182.601103 163.058991 
L 182.710346 163.058991 
L 182.769706 160.952247 
L 182.94955 160.952247 
L 182.975891 159.898875 
L 183.157214 159.898875 
L 183.172511 158.845503 
L 183.27986 158.845503 
L 183.372728 157.79213 
L 183.391693 157.79213 
L 183.49004 155.685386 
L 183.531519 155.685386 
L 183.59768 154.632014 
L 183.855153 154.632014 
L 183.930694 153.051956 
L 184.056388 153.051956 
L 184.147991 151.471897 
L 184.222889 151.471897 
L 184.333419 149.365153 
L 184.39358 149.365153 
L 184.41692 148.311781 
L 184.534958 148.311781 
L 184.639348 146.205037 
L 184.856907 146.205037 
L 184.856907 145.678351 
L 184.984627 145.678351 
L 185.044924 143.571606 
L 185.211844 143.571606 
L 185.315724 141.991548 
L 185.363416 141.991548 
L 185.456414 140.41149 
L 185.5404 140.41149 
L 185.56424 138.831432 
L 185.697037 138.831432 
L 185.798075 137.251373 
L 185.956308 137.251373 
L 186.001176 136.198001 
L 186.085063 136.198001 
L 186.173753 134.617943 
L 186.312334 134.617943 
L 186.41285 133.037885 
L 186.527826 133.037885 
L 186.527826 132.511199 
L 186.677475 132.511199 
L 186.769298 131.457826 
L 186.796276 131.457826 
L 186.895363 129.877768 
L 186.985265 129.877768 
L 186.985265 129.351082 
L 187.109783 129.351082 
L 187.180244 127.771024 
L 187.328522 127.771024 
L 187.429482 125.66428 
L 187.453167 125.66428 
L 187.453167 125.137593 
L 187.575159 125.137593 
L 187.676715 123.030849 
L 187.70634 123.030849 
L 187.731155 121.977477 
L 187.925943 121.977477 
L 187.991708 118.817361 
L 188.05157 118.817361 
L 188.141592 117.237302 
L 188.181914 117.237302 
L 188.181914 116.710616 
L 188.306202 116.710616 
L 188.410589 115.657244 
L 188.418055 115.657244 
L 188.497582 113.5505 
L 188.61322 113.5505 
L 188.61322 113.023814 
L 188.85843 113.023814 
L 188.947195 111.970441 
L 188.971241 111.970441 
L 189.068253 109.863697 
L 189.082631 109.863697 
L 189.08379 108.810325 
L 189.237943 108.810325 
L 189.325945 107.756953 
L 189.498592 107.756953 
L 189.57583 106.703581 
L 189.656541 106.703581 
L 189.74737 105.650209 
L 189.813294 105.650209 
L 189.858362 104.07015 
L 189.959175 104.07015 
L 190.064449 101.963406 
L 190.109966 101.963406 
L 190.109966 101.43672 
L 190.245808 101.43672 
L 190.34204 100.383348 
L 190.376726 100.383348 
L 190.458964 98.803289 
L 190.590424 98.803289 
L 190.683933 97.223231 
L 190.798384 97.223231 
L 190.876362 96.169859 
L 190.98395 96.169859 
L 191.063174 94.589801 
L 191.17291 94.589801 
L 191.186886 93.536429 
L 191.393377 93.536429 
L 191.471373 91.95637 
L 191.598856 91.95637 
L 191.627928 90.902998 
L 191.719437 90.902998 
L 191.737164 89.849626 
L 191.974041 89.849626 
L 192.04499 88.796254 
L 192.150098 88.796254 
L 192.251869 87.742882 
L 192.31573 87.742882 
L 192.368226 86.162824 
L 192.454795 86.162824 
L 192.560127 85.109451 
L 192.586314 85.109451 
L 192.677281 83.002707 
L 192.795339 83.002707 
L 192.895474 81.949335 
L 193.005962 81.949335 
L 193.069154 80.369277 
L 193.120536 80.369277 
L 193.221386 78.789218 
L 193.275968 78.789218 
L 193.334194 77.20916 
L 193.412313 77.20916 
L 193.499982 76.155788 
L 193.549035 76.155788 
L 193.589898 74.57573 
L 193.702134 74.57573 
L 193.702134 74.049044 
L 193.818777 74.049044 
L 193.889129 72.468985 
L 193.935522 72.468985 
L 194.010125 71.415613 
L 194.065433 71.415613 
L 194.172409 68.782183 
L 194.261688 68.782183 
L 194.332338 66.675439 
L 194.456782 66.675439 
L 194.555633 65.09538 
L 194.635729 65.09538 
L 194.743296 63.515322 
L 194.907063 63.515322 
L 194.974821 62.46195 
L 195.135619 62.46195 
L 195.239992 60.355206 
L 195.36704 60.355206 
L 195.477272 58.775147 
L 195.511296 58.775147 
L 195.511296 58.248461 
L 195.733226 58.248461 
L 195.736075 57.195089 
L 195.989847 57.195089 
L 196.020551 56.141717 
L 196.113115 56.141717 
L 196.113115 55.615031 
L 196.282829 55.615031 
L 196.321136 54.034973 
L 196.524587 54.034973 
L 196.524587 53.508287 
L 196.702346 53.508287 
L 196.702346 52.9816 
L 196.992237 52.9816 
L 197.049583 51.401542 
L 197.442652 51.401542 
L 197.442652 50.874856 
L 197.598826 50.874856 
L 197.598826 50.34817 
L 197.766016 50.34817 
L 197.867023 49.294798 
L 198.010848 49.294798 
L 198.010848 48.768112 
L 198.250234 48.768112 
L 198.250234 48.241426 
L 198.478942 48.241426 
L 198.478942 47.71474 
L 198.820058 47.71474 
L 198.820058 47.188054 
L 199.201924 47.188054 
L 199.26694 46.134681 
L 199.478945 46.134681 
L 199.5582 45.081309 
L 199.797965 45.081309 
L 199.797965 44.554623 
L 200.036953 44.554623 
L 200.13796 43.501251 
L 200.329238 43.501251 
L 200.360348 41.921193 
L 200.507609 41.921193 
L 200.507609 41.394507 
L 200.732495 41.394507 
L 200.794188 40.341135 
L 201.070307 40.341135 
L 201.088949 39.287762 
L 201.225934 39.287762 
L 201.324898 38.23439 
L 201.395522 38.23439 
L 201.411191 37.181018 
L 201.519567 37.181018 
L 201.532968 36.127646 
L 201.631 36.127646 
L 201.651758 35.074274 
L 201.854984 35.074274 
L 201.962639 33.494215 
L 202.274713 33.494215 
L 202.35341 31.914157 
L 202.462455 31.914157 
L 202.462455 31.387471 
L 202.997782 31.387471 
L 202.997782 30.860785 
L 203.670684 30.860785 
L 203.670684 30.334099 
L 338.688 30.334099 
L 338.688 30.334099 
" style="fill:none;stroke:#ff00ff;stroke-linecap:square;stroke-width:1.5;"/>
   </g>
   <g id="line2d_40">
    <defs>
     <path d="M -0 8.485281 
L 5.091169 0 
L 0 -8.485281 
L -5.091169 -0 
z
" id="mf63780a2f9" style="stroke:#ff00ff;stroke-linejoin:miter;stroke-width:1.5;"/>
    </defs>
    <g>
     <use style="fill-opacity:0;stroke:#ff00ff;stroke-linejoin:miter;stroke-width:1.5;" x="181.796917" xlink:href="#mf63780a2f9" y="168.325852"/>
     <use style="fill-opacity:0;stroke:#ff00ff;stroke-linejoin:miter;stroke-width:1.5;" x="203.670684" xlink:href="#mf63780a2f9" y="30.860785"/>
     <use style="fill-opacity:0;stroke:#ff00ff;stroke-linejoin:miter;stroke-width:1.5;" x="203.670684" xlink:href="#mf63780a2f9" y="30.334099"/>
     <use style="fill-opacity:0;stroke:#ff00ff;stroke-linejoin:miter;stroke-width:1.5;" x="203.670684" xlink:href="#mf63780a2f9" y="30.334099"/>
     <use style="fill-opacity:0;stroke:#ff00ff;stroke-linejoin:miter;stroke-width:1.5;" x="338.688" xlink:href="#mf63780a2f9" y="30.334099"/>
    </g>
   </g>
   <g id="line2d_41">
    <path style="fill:none;stroke:#ff00ff;stroke-linecap:square;stroke-width:1.5;"/>
    <g/>
   </g>
   <g id="line2d_42">
    <path d="M 338.688 30.334099 
L 369.60768 293.571802 
" style="fill:none;stroke:#ff00ff;stroke-linecap:square;stroke-width:1.5;"/>
    <g>
     <use style="fill-opacity:0;stroke:#ff00ff;stroke-linejoin:miter;stroke-width:1.5;" x="338.688" xlink:href="#mf63780a2f9" y="30.334099"/>
     <use style="fill-opacity:0;stroke:#ff00ff;stroke-linejoin:miter;stroke-width:1.5;" x="369.60768" xlink:href="#mf63780a2f9" y="293.571802"/>
    </g>
   </g>
   <g id="line2d_43">
    <path d="M 338.688 30.334099 
L 369.60768 164.63905 
" style="fill:none;stroke:#000080;stroke-linecap:square;stroke-width:1.5;"/>
    <g>
     <use style="fill-opacity:0;stroke:#000080;stroke-width:1.5;" x="338.688" xlink:href="#ma12bcb4210" y="30.334099"/>
     <use style="fill-opacity:0;stroke:#000080;stroke-width:1.5;" x="369.60768" xlink:href="#ma12bcb4210" y="164.63905"/>
    </g>
   </g>
   <g id="line2d_44">
    <path d="M 338.688 298.944 
L 338.688 30.334099 
" style="fill:none;stroke:#000000;stroke-linecap:square;stroke-width:1.5;"/>
   </g>
   <g id="patch_3">
    <path d="M 57.6 298.944 
L 57.6 27.648 
" style="fill:none;stroke:#000000;stroke-linecap:square;stroke-linejoin:miter;stroke-width:0.8;"/>
   </g>
   <g id="patch_4">
    <path d="M 338.688 298.944 
L 338.688 27.648 
" style="fill:none;stroke:#000000;stroke-linecap:square;stroke-linejoin:miter;stroke-width:0.8;"/>
   </g>
   <g id="patch_5">
    <path d="M 57.6 298.944 
L 338.688 298.944 
" style="fill:none;stroke:#000000;stroke-linecap:square;stroke-linejoin:miter;stroke-width:0.8;"/>
   </g>
   <g id="patch_6">
    <path d="M 57.6 27.648 
L 338.688 27.648 
" style="fill:none;stroke:#000000;stroke-linecap:square;stroke-linejoin:miter;stroke-width:0.8;"/>
   </g>
   <g id="text_13">
    <!-- maes mid -->
    <g transform="translate(375.22944 298.262739)scale(0.17 -0.17)">
     <use xlink:href="#DejaVuSans-109"/>
     <use x="97.412109" xlink:href="#DejaVuSans-97"/>
     <use x="158.691406" xlink:href="#DejaVuSans-101"/>
     <use x="220.214844" xlink:href="#DejaVuSans-115"/>
     <use x="272.314453" xlink:href="#DejaVuSans-32"/>
     <use x="304.101562" xlink:href="#DejaVuSans-109"/>
     <use x="401.513672" xlink:href="#DejaVuSans-105"/>
     <use x="429.296875" xlink:href="#DejaVuSans-100"/>
    </g>
   </g>
   <g id="text_14">
    <!-- maes -->
    <g transform="translate(375.22944 169.329987)scale(0.17 -0.17)">
     <use xlink:href="#DejaVuSans-109"/>
     <use x="97.412109" xlink:href="#DejaVuSans-97"/>
     <use x="158.691406" xlink:href="#DejaVuSans-101"/>
     <use x="220.214844" xlink:href="#DejaVuSans-115"/>
    </g>
   </g>
   <g id="text_15">
    <!-- best 2009 -->
    <g transform="translate(375.22944 40.397235)scale(0.17 -0.17)">
     <defs>
      <path d="M 48.6875 27.296875 
Q 48.6875 37.203125 44.609375 42.84375 
Q 40.53125 48.484375 33.40625 48.484375 
Q 26.265625 48.484375 22.1875 42.84375 
Q 18.109375 37.203125 18.109375 27.296875 
Q 18.109375 17.390625 22.1875 11.75 
Q 26.265625 6.109375 33.40625 6.109375 
Q 40.53125 6.109375 44.609375 11.75 
Q 48.6875 17.390625 48.6875 27.296875 
z
M 18.109375 46.390625 
Q 20.953125 51.265625 25.265625 53.625 
Q 29.59375 56 35.59375 56 
Q 45.5625 56 51.78125 48.09375 
Q 58.015625 40.1875 58.015625 27.296875 
Q 58.015625 14.40625 51.78125 6.484375 
Q 45.5625 -1.421875 35.59375 -1.421875 
Q 29.59375 -1.421875 25.265625 0.953125 
Q 20.953125 3.328125 18.109375 8.203125 
L 18.109375 0 
L 9.078125 0 
L 9.078125 75.984375 
L 18.109375 75.984375 
z
" id="DejaVuSans-98"/>
      <path d="M 10.984375 1.515625 
L 10.984375 10.5 
Q 14.703125 8.734375 18.5 7.8125 
Q 22.3125 6.890625 25.984375 6.890625 
Q 35.75 6.890625 40.890625 13.453125 
Q 46.046875 20.015625 46.78125 33.40625 
Q 43.953125 29.203125 39.59375 26.953125 
Q 35.25 24.703125 29.984375 24.703125 
Q 19.046875 24.703125 12.671875 31.3125 
Q 6.296875 37.9375 6.296875 49.421875 
Q 6.296875 60.640625 12.9375 67.421875 
Q 19.578125 74.21875 30.609375 74.21875 
Q 43.265625 74.21875 49.921875 64.515625 
Q 56.59375 54.828125 56.59375 36.375 
Q 56.59375 19.140625 48.40625 8.859375 
Q 40.234375 -1.421875 26.421875 -1.421875 
Q 22.703125 -1.421875 18.890625 -0.6875 
Q 15.09375 0.046875 10.984375 1.515625 
z
M 30.609375 32.421875 
Q 37.25 32.421875 41.125 36.953125 
Q 45.015625 41.5 45.015625 49.421875 
Q 45.015625 57.28125 41.125 61.84375 
Q 37.25 66.40625 30.609375 66.40625 
Q 23.96875 66.40625 20.09375 61.84375 
Q 16.21875 57.28125 16.21875 49.421875 
Q 16.21875 41.5 20.09375 36.953125 
Q 23.96875 32.421875 30.609375 32.421875 
z
" id="DejaVuSans-57"/>
     </defs>
     <use xlink:href="#DejaVuSans-98"/>
     <use x="63.476562" xlink:href="#DejaVuSans-101"/>
     <use x="125" xlink:href="#DejaVuSans-115"/>
     <use x="177.099609" xlink:href="#DejaVuSans-116"/>
     <use x="216.308594" xlink:href="#DejaVuSans-32"/>
     <use x="248.095703" xlink:href="#DejaVuSans-50"/>
     <use x="311.71875" xlink:href="#DejaVuSans-48"/>
     <use x="375.341797" xlink:href="#DejaVuSans-48"/>
     <use x="438.964844" xlink:href="#DejaVuSans-57"/>
    </g>
   </g>
   <g id="text_16">
    <!-- bbob f12, 40-D -->
    <g transform="translate(60.41088 38.111366)scale(0.102 -0.102)">
     <defs>
      <path d="M 19.671875 64.796875 
L 19.671875 8.109375 
L 31.59375 8.109375 
Q 46.6875 8.109375 53.6875 14.9375 
Q 60.6875 21.78125 60.6875 36.53125 
Q 60.6875 51.171875 53.6875 57.984375 
Q 46.6875 64.796875 31.59375 64.796875 
z
M 9.8125 72.90625 
L 30.078125 72.90625 
Q 51.265625 72.90625 61.171875 64.09375 
Q 71.09375 55.28125 71.09375 36.53125 
Q 71.09375 17.671875 61.125 8.828125 
Q 51.171875 0 30.078125 0 
L 9.8125 0 
z
" id="DejaVuSans-68"/>
     </defs>
     <use xlink:href="#DejaVuSans-98"/>
     <use x="63.476562" xlink:href="#DejaVuSans-98"/>
     <use x="126.953125" xlink:href="#DejaVuSans-111"/>
     <use x="188.134766" xlink:href="#DejaVuSans-98"/>
     <use x="251.611328" xlink:href="#DejaVuSans-32"/>
     <use x="283.398438" xlink:href="#DejaVuSans-102"/>
     <use x="318.603516" xlink:href="#DejaVuSans-49"/>
     <use x="382.226562" xlink:href="#DejaVuSans-50"/>
     <use x="445.849609" xlink:href="#DejaVuSans-44"/>
     <use x="477.636719" xlink:href="#DejaVuSans-32"/>
     <use x="509.423828" xlink:href="#DejaVuSans-52"/>
     <use x="573.046875" xlink:href="#DejaVuSans-48"/>
     <use x="636.669922" xlink:href="#DejaVuSans-45"/>
     <use x="672.753906" xlink:href="#DejaVuSans-68"/>
    </g>
    <!-- 51 targets: 100..1e-08 -->
    <g transform="translate(60.41088 49.533135)scale(0.102 -0.102)">
     <defs>
      <path d="M 10.796875 72.90625 
L 49.515625 72.90625 
L 49.515625 64.59375 
L 19.828125 64.59375 
L 19.828125 46.734375 
Q 21.96875 47.46875 24.109375 47.828125 
Q 26.265625 48.1875 28.421875 48.1875 
Q 40.625 48.1875 47.75 41.5 
Q 54.890625 34.8125 54.890625 23.390625 
Q 54.890625 11.625 47.5625 5.09375 
Q 40.234375 -1.421875 26.90625 -1.421875 
Q 22.3125 -1.421875 17.546875 -0.640625 
Q 12.796875 0.140625 7.71875 1.703125 
L 7.71875 11.625 
Q 12.109375 9.234375 16.796875 8.0625 
Q 21.484375 6.890625 26.703125 6.890625 
Q 35.15625 6.890625 40.078125 11.328125 
Q 45.015625 15.765625 45.015625 23.390625 
Q 45.015625 31 40.078125 35.4375 
Q 35.15625 39.890625 26.703125 39.890625 
Q 22.75 39.890625 18.8125 39.015625 
Q 14.890625 38.140625 10.796875 36.28125 
z
" id="DejaVuSans-53"/>
      <path d="M 11.71875 12.40625 
L 22.015625 12.40625 
L 22.015625 0 
L 11.71875 0 
z
M 11.71875 51.703125 
L 22.015625 51.703125 
L 22.015625 39.3125 
L 11.71875 39.3125 
z
" id="DejaVuSans-58"/>
     </defs>
     <use xlink:href="#DejaVuSans-53"/>
     <use x="63.623047" xlink:href="#DejaVuSans-49"/>
     <use x="127.246094" xlink:href="#DejaVuSans-32"/>
     <use x="159.033203" xlink:href="#DejaVuSans-116"/>
     <use x="198.242188" xlink:href="#DejaVuSans-97"/>
     <use x="259.521484" xlink:href="#DejaVuSans-114"/>
     <use x="298.884766" xlink:href="#DejaVuSans-103"/>
     <use x="362.361328" xlink:href="#DejaVuSans-101"/>
     <use x="423.884766" xlink:href="#DejaVuSans-116"/>
     <use x="463.09375" xlink:href="#DejaVuSans-115"/>
     <use x="515.193359" xlink:href="#DejaVuSans-58"/>
     <use x="548.884766" xlink:href="#DejaVuSans-32"/>
     <use x="580.671875" xlink:href="#DejaVuSans-49"/>
     <use x="644.294922" xlink:href="#DejaVuSans-48"/>
     <use x="707.917969" xlink:href="#DejaVuSans-48"/>
     <use x="771.541016" xlink:href="#DejaVuSans-46"/>
     <use x="803.328125" xlink:href="#DejaVuSans-46"/>
     <use x="835.115234" xlink:href="#DejaVuSans-49"/>
     <use x="898.738281" xlink:href="#DejaVuSans-101"/>
     <use x="960.261719" xlink:href="#DejaVuSans-45"/>
     <use x="996.345703" xlink:href="#DejaVuSans-48"/>
     <use x="1059.96875" xlink:href="#DejaVuSans-56"/>
    </g>
    <!-- 15 instances -->
    <g transform="translate(60.41088 60.954904)scale(0.102 -0.102)">
     <use xlink:href="#DejaVuSans-49"/>
     <use x="63.623047" xlink:href="#DejaVuSans-53"/>
     <use x="127.246094" xlink:href="#DejaVuSans-32"/>
     <use x="159.033203" xlink:href="#DejaVuSans-105"/>
     <use x="186.816406" xlink:href="#DejaVuSans-110"/>
     <use x="250.195312" xlink:href="#DejaVuSans-115"/>
     <use x="302.294922" xlink:href="#DejaVuSans-116"/>
     <use x="341.503906" xlink:href="#DejaVuSans-97"/>
     <use x="402.783203" xlink:href="#DejaVuSans-110"/>
     <use x="466.162109" xlink:href="#DejaVuSans-99"/>
     <use x="521.142578" xlink:href="#DejaVuSans-101"/>
     <use x="582.666016" xlink:href="#DejaVuSans-115"/>
    </g>
   </g>
   <g id="text_17">
    <!-- v2.4 -->
    <g style="fill:#808080;" transform="translate(187.233062 294.151352)scale(0.1 -0.1)">
     <use xlink:href="#DejaVuSans-118"/>
     <use x="59.179688" xlink:href="#DejaVuSans-50"/>
     <use x="122.802734" xlink:href="#DejaVuSans-46"/>
     <use x="154.589844" xlink:href="#DejaVuSans-52"/>
    </g>
   </g>
   <g id="text_18">
    <!-- 12 Bent cigar -->
    <g transform="translate(130.926812 21.648)scale(0.2 -0.2)">
     <defs>
      <path d="M 19.671875 34.8125 
L 19.671875 8.109375 
L 35.5 8.109375 
Q 43.453125 8.109375 47.28125 11.40625 
Q 51.125 14.703125 51.125 21.484375 
Q 51.125 28.328125 47.28125 31.5625 
Q 43.453125 34.8125 35.5 34.8125 
z
M 19.671875 64.796875 
L 19.671875 42.828125 
L 34.28125 42.828125 
Q 41.5 42.828125 45.03125 45.53125 
Q 48.578125 48.25 48.578125 53.8125 
Q 48.578125 59.328125 45.03125 62.0625 
Q 41.5 64.796875 34.28125 64.796875 
z
M 9.8125 72.90625 
L 35.015625 72.90625 
Q 46.296875 72.90625 52.390625 68.21875 
Q 58.5 63.53125 58.5 54.890625 
Q 58.5 48.1875 55.375 44.234375 
Q 52.25 40.28125 46.1875 39.3125 
Q 53.46875 37.75 57.5 32.78125 
Q 61.53125 27.828125 61.53125 20.40625 
Q 61.53125 10.640625 54.890625 5.3125 
Q 48.25 0 35.984375 0 
L 9.8125 0 
z
" id="DejaVuSans-66"/>
     </defs>
     <use xlink:href="#DejaVuSans-49"/>
     <use x="63.623047" xlink:href="#DejaVuSans-50"/>
     <use x="127.246094" xlink:href="#DejaVuSans-32"/>
     <use x="159.033203" xlink:href="#DejaVuSans-66"/>
     <use x="227.636719" xlink:href="#DejaVuSans-101"/>
     <use x="289.160156" xlink:href="#DejaVuSans-110"/>
     <use x="352.539062" xlink:href="#DejaVuSans-116"/>
     <use x="391.748047" xlink:href="#DejaVuSans-32"/>
     <use x="423.535156" xlink:href="#DejaVuSans-99"/>
     <use x="478.515625" xlink:href="#DejaVuSans-105"/>
     <use x="506.298828" xlink:href="#DejaVuSans-103"/>
     <use x="569.775391" xlink:href="#DejaVuSans-97"/>
     <use x="631.054688" xlink:href="#DejaVuSans-114"/>
    </g>
   </g>
  </g>
 </g>
 <defs>
  <clipPath id="p920f56702a">
   <rect height="271.296" width="281.088" x="57.6" y="27.648"/>
  </clipPath>
 </defs>
</svg>
