<?xml version="1.0" encoding="utf-8" standalone="no"?>
<!DOCTYPE svg PUBLIC "-//W3C//DTD SVG 1.1//EN"
  "http://www.w3.org/Graphics/SVG/1.1/DTD/svg11.dtd">
<!-- Created with matplotlib (https://matplotlib.org/) -->
<svg height="345.6pt" version="1.1" viewBox="0 0 460.8 345.6" width="460.8pt" xmlns="http://www.w3.org/2000/svg" xmlns:xlink="http://www.w3.org/1999/xlink">
 <metadata>
  <rdf:RDF xmlns:cc="http://creativecommons.org/ns#" xmlns:dc="http://purl.org/dc/elements/1.1/" xmlns:rdf="http://www.w3.org/1999/02/22-rdf-syntax-ns#">
   <cc:Work>
    <dc:type rdf:resource="http://purl.org/dc/dcmitype/StillImage"/>
    <dc:date>2021-06-17T01:40:24.695619</dc:date>
    <dc:format>image/svg+xml</dc:format>
    <dc:creator>
     <cc:Agent>
      <dc:title>Matplotlib v3.3.4, https://matplotlib.org/</dc:title>
     </cc:Agent>
    </dc:creator>
   </cc:Work>
  </rdf:RDF>
 </metadata>
 <defs>
  <style type="text/css">*{stroke-linecap:butt;stroke-linejoin:round;}</style>
 </defs>
 <g id="figure_1">
  <g id="patch_1">
   <path d="M 0 345.6 
L 460.8 345.6 
L 460.8 0 
L 0 0 
z
" style="fill:#ffffff;"/>
  </g>
  <g id="axes_1">
   <g id="patch_2">
    <path d="M 57.6 298.944 
L 338.688 298.944 
L 338.688 27.648 
L 57.6 27.648 
z
" style="fill:#ffffff;"/>
   </g>
   <g id="line2d_1">
    <path d="M 17.444571 298.944 
L 17.444571 288.410278 
L 101.646892 288.410278 
L 101.646892 283.143418 
L 104.592361 283.143418 
L 104.592361 277.876557 
L 108.006005 277.876557 
L 108.006005 272.609696 
L 109.843417 272.609696 
L 109.843417 267.342835 
L 113.664983 267.342835 
L 113.664983 262.075974 
L 120.665825 262.075974 
L 120.665825 256.809114 
L 125.219619 256.809114 
L 125.219619 251.542253 
L 127.892415 251.542253 
L 127.892415 246.275392 
L 130.344571 246.275392 
L 130.344571 241.008531 
L 131.565689 241.008531 
L 131.565689 235.74167 
L 132.823992 235.74167 
L 132.823992 230.47481 
L 133.689303 230.47481 
L 133.689303 225.207949 
L 134.849486 225.207949 
L 134.849486 219.941088 
L 135.219673 219.941088 
L 135.219673 214.674227 
L 136.150782 214.674227 
L 136.150782 209.407366 
L 136.246972 209.407366 
L 136.246972 204.140506 
L 136.701442 204.140506 
L 136.701442 198.873645 
L 137.307607 198.873645 
L 137.307607 193.606784 
L 137.788353 193.606784 
L 137.788353 188.339923 
L 137.875944 188.339923 
L 137.875944 183.073062 
L 137.893409 183.073062 
L 137.893409 177.806202 
L 138.307417 177.806202 
L 138.307417 172.539341 
L 138.628343 172.539341 
L 138.628343 167.27248 
L 139.009092 167.27248 
L 139.009092 162.005619 
L 139.317473 162.005619 
L 139.317473 156.738758 
L 139.620495 156.738758 
L 139.620495 146.205037 
L 139.715103 146.205037 
L 139.715103 140.938176 
L 139.77789 140.938176 
L 139.77789 130.404454 
L 139.793552 130.404454 
L 139.793552 125.137593 
L 139.933878 125.137593 
L 139.933878 119.870733 
L 139.964909 119.870733 
L 139.964909 114.603872 
L 140.165274 114.603872 
L 140.165274 109.337011 
L 140.256979 109.337011 
L 140.256979 104.07015 
L 140.469102 104.07015 
L 140.469102 93.536429 
L 140.559227 93.536429 
L 140.559227 88.269568 
L 140.812083 88.269568 
L 140.812083 83.002707 
L 140.826843 83.002707 
L 140.826843 77.735846 
L 140.871049 77.735846 
L 140.871049 56.668403 
L 140.959126 56.668403 
L 140.959126 51.401542 
L 141.002999 51.401542 
L 141.002999 46.134681 
L 141.046761 46.134681 
L 141.046761 30.334099 
L 338.688 30.334099 
" style="fill:none;stroke:#f5deb3;stroke-linecap:square;stroke-width:4;"/>
   </g>
   <g id="line2d_2">
    <defs>
     <path d="M -0 7.778175 
L 7.778175 0 
L 0 -7.778175 
L -7.778175 -0 
z
" id="m205370eb62" style="stroke:#f5deb3;stroke-linejoin:miter;stroke-width:1.5;"/>
    </defs>
    <g>
     <use style="fill:#f5deb3;stroke:#f5deb3;stroke-linejoin:miter;stroke-width:1.5;" x="136.246972" xlink:href="#m205370eb62" y="204.140506"/>
     <use style="fill:#f5deb3;stroke:#f5deb3;stroke-linejoin:miter;stroke-width:1.5;" x="140.559227" xlink:href="#m205370eb62" y="93.536429"/>
     <use style="fill:#f5deb3;stroke:#f5deb3;stroke-linejoin:miter;stroke-width:1.5;" x="141.046761" xlink:href="#m205370eb62" y="46.134681"/>
     <use style="fill:#f5deb3;stroke:#f5deb3;stroke-linejoin:miter;stroke-width:1.5;" x="141.046761" xlink:href="#m205370eb62" y="30.334099"/>
     <use style="fill:#f5deb3;stroke:#f5deb3;stroke-linejoin:miter;stroke-width:1.5;" x="141.046761" xlink:href="#m205370eb62" y="30.334099"/>
     <use style="fill:#f5deb3;stroke:#f5deb3;stroke-linejoin:miter;stroke-width:1.5;" x="338.688" xlink:href="#m205370eb62" y="30.334099"/>
    </g>
   </g>
   <g id="line2d_3">
    <path style="fill:none;stroke:#f5deb3;stroke-linecap:square;stroke-width:4;"/>
    <g/>
   </g>
   <g id="line2d_4">
    <path d="M 338.688 30.334099 
L 369.60768 35.706297 
" style="fill:none;stroke:#f5deb3;stroke-linecap:square;stroke-width:4;"/>
    <g>
     <use style="fill:#f5deb3;stroke:#f5deb3;stroke-linejoin:miter;stroke-width:1.5;" x="338.688" xlink:href="#m205370eb62" y="30.334099"/>
     <use style="fill:#f5deb3;stroke:#f5deb3;stroke-linejoin:miter;stroke-width:1.5;" x="369.60768" xlink:href="#m205370eb62" y="35.706297"/>
    </g>
   </g>
   <g id="matplotlib.axis_1">
    <g id="xtick_1">
     <g id="line2d_5">
      <path clip-path="url(#pb9b2b6e6bb)" d="M 57.6 298.944 
L 57.6 27.648 
" style="fill:none;stroke:#b0b0b0;stroke-linecap:square;stroke-width:0.8;"/>
     </g>
     <g id="line2d_6">
      <defs>
       <path d="M 0 0 
L 0 3.5 
" id="mca8f02faaa" style="stroke:#000000;stroke-width:0.8;"/>
      </defs>
      <g>
       <use style="stroke:#000000;stroke-width:0.8;" x="57.6" xlink:href="#mca8f02faaa" y="298.944"/>
      </g>
     </g>
     <g id="text_1">
      <!-- 0 -->
      <g transform="translate(51.2375 321.140875)scale(0.2 -0.2)">
       <defs>
        <path d="M 31.78125 66.40625 
Q 24.171875 66.40625 20.328125 58.90625 
Q 16.5 51.421875 16.5 36.375 
Q 16.5 21.390625 20.328125 13.890625 
Q 24.171875 6.390625 31.78125 6.390625 
Q 39.453125 6.390625 43.28125 13.890625 
Q 47.125 21.390625 47.125 36.375 
Q 47.125 51.421875 43.28125 58.90625 
Q 39.453125 66.40625 31.78125 66.40625 
z
M 31.78125 74.21875 
Q 44.046875 74.21875 50.515625 64.515625 
Q 56.984375 54.828125 56.984375 36.375 
Q 56.984375 17.96875 50.515625 8.265625 
Q 44.046875 -1.421875 31.78125 -1.421875 
Q 19.53125 -1.421875 13.0625 8.265625 
Q 6.59375 17.96875 6.59375 36.375 
Q 6.59375 54.828125 13.0625 64.515625 
Q 19.53125 74.21875 31.78125 74.21875 
z
" id="DejaVuSans-48"/>
       </defs>
       <use xlink:href="#DejaVuSans-48"/>
      </g>
     </g>
    </g>
    <g id="xtick_2">
     <g id="line2d_7">
      <path clip-path="url(#pb9b2b6e6bb)" d="M 137.910857 298.944 
L 137.910857 27.648 
" style="fill:none;stroke:#b0b0b0;stroke-linecap:square;stroke-width:0.8;"/>
     </g>
     <g id="line2d_8">
      <g>
       <use style="stroke:#000000;stroke-width:0.8;" x="137.910857" xlink:href="#mca8f02faaa" y="298.944"/>
      </g>
     </g>
     <g id="text_2">
      <!-- 2 -->
      <g transform="translate(131.548357 321.140875)scale(0.2 -0.2)">
       <defs>
        <path d="M 19.1875 8.296875 
L 53.609375 8.296875 
L 53.609375 0 
L 7.328125 0 
L 7.328125 8.296875 
Q 12.9375 14.109375 22.625 23.890625 
Q 32.328125 33.6875 34.8125 36.53125 
Q 39.546875 41.84375 41.421875 45.53125 
Q 43.3125 49.21875 43.3125 52.78125 
Q 43.3125 58.59375 39.234375 62.25 
Q 35.15625 65.921875 28.609375 65.921875 
Q 23.96875 65.921875 18.8125 64.3125 
Q 13.671875 62.703125 7.8125 59.421875 
L 7.8125 69.390625 
Q 13.765625 71.78125 18.9375 73 
Q 24.125 74.21875 28.421875 74.21875 
Q 39.75 74.21875 46.484375 68.546875 
Q 53.21875 62.890625 53.21875 53.421875 
Q 53.21875 48.921875 51.53125 44.890625 
Q 49.859375 40.875 45.40625 35.40625 
Q 44.1875 33.984375 37.640625 27.21875 
Q 31.109375 20.453125 19.1875 8.296875 
z
" id="DejaVuSans-50"/>
       </defs>
       <use xlink:href="#DejaVuSans-50"/>
      </g>
     </g>
    </g>
    <g id="xtick_3">
     <g id="line2d_9">
      <path clip-path="url(#pb9b2b6e6bb)" d="M 218.221714 298.944 
L 218.221714 27.648 
" style="fill:none;stroke:#b0b0b0;stroke-linecap:square;stroke-width:0.8;"/>
     </g>
     <g id="line2d_10">
      <g>
       <use style="stroke:#000000;stroke-width:0.8;" x="218.221714" xlink:href="#mca8f02faaa" y="298.944"/>
      </g>
     </g>
     <g id="text_3">
      <!-- 4 -->
      <g transform="translate(211.859214 321.140875)scale(0.2 -0.2)">
       <defs>
        <path d="M 37.796875 64.3125 
L 12.890625 25.390625 
L 37.796875 25.390625 
z
M 35.203125 72.90625 
L 47.609375 72.90625 
L 47.609375 25.390625 
L 58.015625 25.390625 
L 58.015625 17.1875 
L 47.609375 17.1875 
L 47.609375 0 
L 37.796875 0 
L 37.796875 17.1875 
L 4.890625 17.1875 
L 4.890625 26.703125 
z
" id="DejaVuSans-52"/>
       </defs>
       <use xlink:href="#DejaVuSans-52"/>
      </g>
     </g>
    </g>
    <g id="xtick_4">
     <g id="line2d_11">
      <path clip-path="url(#pb9b2b6e6bb)" d="M 298.532571 298.944 
L 298.532571 27.648 
" style="fill:none;stroke:#b0b0b0;stroke-linecap:square;stroke-width:0.8;"/>
     </g>
     <g id="line2d_12">
      <g>
       <use style="stroke:#000000;stroke-width:0.8;" x="298.532571" xlink:href="#mca8f02faaa" y="298.944"/>
      </g>
     </g>
     <g id="text_4">
      <!-- 6 -->
      <g transform="translate(292.170071 321.140875)scale(0.2 -0.2)">
       <defs>
        <path d="M 33.015625 40.375 
Q 26.375 40.375 22.484375 35.828125 
Q 18.609375 31.296875 18.609375 23.390625 
Q 18.609375 15.53125 22.484375 10.953125 
Q 26.375 6.390625 33.015625 6.390625 
Q 39.65625 6.390625 43.53125 10.953125 
Q 47.40625 15.53125 47.40625 23.390625 
Q 47.40625 31.296875 43.53125 35.828125 
Q 39.65625 40.375 33.015625 40.375 
z
M 52.59375 71.296875 
L 52.59375 62.3125 
Q 48.875 64.0625 45.09375 64.984375 
Q 41.3125 65.921875 37.59375 65.921875 
Q 27.828125 65.921875 22.671875 59.328125 
Q 17.53125 52.734375 16.796875 39.40625 
Q 19.671875 43.65625 24.015625 45.921875 
Q 28.375 48.1875 33.59375 48.1875 
Q 44.578125 48.1875 50.953125 41.515625 
Q 57.328125 34.859375 57.328125 23.390625 
Q 57.328125 12.15625 50.6875 5.359375 
Q 44.046875 -1.421875 33.015625 -1.421875 
Q 20.359375 -1.421875 13.671875 8.265625 
Q 6.984375 17.96875 6.984375 36.375 
Q 6.984375 53.65625 15.1875 63.9375 
Q 23.390625 74.21875 37.203125 74.21875 
Q 40.921875 74.21875 44.703125 73.484375 
Q 48.484375 72.75 52.59375 71.296875 
z
" id="DejaVuSans-54"/>
       </defs>
       <use xlink:href="#DejaVuSans-54"/>
      </g>
     </g>
    </g>
    <g id="xtick_5">
     <g id="line2d_13">
      <path clip-path="url(#pb9b2b6e6bb)" d="M 97.755429 298.944 
L 97.755429 27.648 
" style="fill:none;stroke:#b0b0b0;stroke-linecap:square;stroke-width:0.8;"/>
     </g>
     <g id="line2d_14">
      <defs>
       <path d="M 0 0 
L 0 2 
" id="mbab1b945cf" style="stroke:#000000;stroke-width:0.6;"/>
      </defs>
      <g>
       <use style="stroke:#000000;stroke-width:0.6;" x="97.755429" xlink:href="#mbab1b945cf" y="298.944"/>
      </g>
     </g>
    </g>
    <g id="xtick_6">
     <g id="line2d_15">
      <path clip-path="url(#pb9b2b6e6bb)" d="M 178.066286 298.944 
L 178.066286 27.648 
" style="fill:none;stroke:#b0b0b0;stroke-linecap:square;stroke-width:0.8;"/>
     </g>
     <g id="line2d_16">
      <g>
       <use style="stroke:#000000;stroke-width:0.6;" x="178.066286" xlink:href="#mbab1b945cf" y="298.944"/>
      </g>
     </g>
    </g>
    <g id="xtick_7">
     <g id="line2d_17">
      <path clip-path="url(#pb9b2b6e6bb)" d="M 258.377143 298.944 
L 258.377143 27.648 
" style="fill:none;stroke:#b0b0b0;stroke-linecap:square;stroke-width:0.8;"/>
     </g>
     <g id="line2d_18">
      <g>
       <use style="stroke:#000000;stroke-width:0.6;" x="258.377143" xlink:href="#mbab1b945cf" y="298.944"/>
      </g>
     </g>
    </g>
    <g id="xtick_8">
     <g id="line2d_19">
      <path clip-path="url(#pb9b2b6e6bb)" d="M 338.688 298.944 
L 338.688 27.648 
" style="fill:none;stroke:#b0b0b0;stroke-linecap:square;stroke-width:0.8;"/>
     </g>
     <g id="line2d_20">
      <g>
       <use style="stroke:#000000;stroke-width:0.6;" x="338.688" xlink:href="#mbab1b945cf" y="298.944"/>
      </g>
     </g>
    </g>
    <g id="text_5">
     <!-- log10(# f-evals / dimension) -->
     <g transform="translate(77.764078 342.217594)scale(0.17 -0.17)">
      <defs>
       <path d="M 9.421875 75.984375 
L 18.40625 75.984375 
L 18.40625 0 
L 9.421875 0 
z
" id="DejaVuSans-108"/>
       <path d="M 30.609375 48.390625 
Q 23.390625 48.390625 19.1875 42.75 
Q 14.984375 37.109375 14.984375 27.296875 
Q 14.984375 17.484375 19.15625 11.84375 
Q 23.34375 6.203125 30.609375 6.203125 
Q 37.796875 6.203125 41.984375 11.859375 
Q 46.1875 17.53125 46.1875 27.296875 
Q 46.1875 37.015625 41.984375 42.703125 
Q 37.796875 48.390625 30.609375 48.390625 
z
M 30.609375 56 
Q 42.328125 56 49.015625 48.375 
Q 55.71875 40.765625 55.71875 27.296875 
Q 55.71875 13.875 49.015625 6.21875 
Q 42.328125 -1.421875 30.609375 -1.421875 
Q 18.84375 -1.421875 12.171875 6.21875 
Q 5.515625 13.875 5.515625 27.296875 
Q 5.515625 40.765625 12.171875 48.375 
Q 18.84375 56 30.609375 56 
z
" id="DejaVuSans-111"/>
       <path d="M 45.40625 27.984375 
Q 45.40625 37.75 41.375 43.109375 
Q 37.359375 48.484375 30.078125 48.484375 
Q 22.859375 48.484375 18.828125 43.109375 
Q 14.796875 37.75 14.796875 27.984375 
Q 14.796875 18.265625 18.828125 12.890625 
Q 22.859375 7.515625 30.078125 7.515625 
Q 37.359375 7.515625 41.375 12.890625 
Q 45.40625 18.265625 45.40625 27.984375 
z
M 54.390625 6.78125 
Q 54.390625 -7.171875 48.1875 -13.984375 
Q 42 -20.796875 29.203125 -20.796875 
Q 24.46875 -20.796875 20.265625 -20.09375 
Q 16.0625 -19.390625 12.109375 -17.921875 
L 12.109375 -9.1875 
Q 16.0625 -11.328125 19.921875 -12.34375 
Q 23.78125 -13.375 27.78125 -13.375 
Q 36.625 -13.375 41.015625 -8.765625 
Q 45.40625 -4.15625 45.40625 5.171875 
L 45.40625 9.625 
Q 42.625 4.78125 38.28125 2.390625 
Q 33.9375 0 27.875 0 
Q 17.828125 0 11.671875 7.65625 
Q 5.515625 15.328125 5.515625 27.984375 
Q 5.515625 40.671875 11.671875 48.328125 
Q 17.828125 56 27.875 56 
Q 33.9375 56 38.28125 53.609375 
Q 42.625 51.21875 45.40625 46.390625 
L 45.40625 54.6875 
L 54.390625 54.6875 
z
" id="DejaVuSans-103"/>
       <path d="M 12.40625 8.296875 
L 28.515625 8.296875 
L 28.515625 63.921875 
L 10.984375 60.40625 
L 10.984375 69.390625 
L 28.421875 72.90625 
L 38.28125 72.90625 
L 38.28125 8.296875 
L 54.390625 8.296875 
L 54.390625 0 
L 12.40625 0 
z
" id="DejaVuSans-49"/>
       <path d="M 31 75.875 
Q 24.46875 64.65625 21.28125 53.65625 
Q 18.109375 42.671875 18.109375 31.390625 
Q 18.109375 20.125 21.3125 9.0625 
Q 24.515625 -2 31 -13.1875 
L 23.1875 -13.1875 
Q 15.875 -1.703125 12.234375 9.375 
Q 8.59375 20.453125 8.59375 31.390625 
Q 8.59375 42.28125 12.203125 53.3125 
Q 15.828125 64.359375 23.1875 75.875 
z
" id="DejaVuSans-40"/>
       <path d="M 51.125 44 
L 36.921875 44 
L 32.8125 27.6875 
L 47.125 27.6875 
z
M 43.796875 71.78125 
L 38.71875 51.515625 
L 52.984375 51.515625 
L 58.109375 71.78125 
L 65.921875 71.78125 
L 60.890625 51.515625 
L 76.125 51.515625 
L 76.125 44 
L 58.984375 44 
L 54.984375 27.6875 
L 70.515625 27.6875 
L 70.515625 20.21875 
L 53.078125 20.21875 
L 48 0 
L 40.1875 0 
L 45.21875 20.21875 
L 30.90625 20.21875 
L 25.875 0 
L 18.015625 0 
L 23.09375 20.21875 
L 7.71875 20.21875 
L 7.71875 27.6875 
L 24.90625 27.6875 
L 29 44 
L 13.28125 44 
L 13.28125 51.515625 
L 30.90625 51.515625 
L 35.890625 71.78125 
z
" id="DejaVuSans-35"/>
       <path id="DejaVuSans-32"/>
       <path d="M 37.109375 75.984375 
L 37.109375 68.5 
L 28.515625 68.5 
Q 23.6875 68.5 21.796875 66.546875 
Q 19.921875 64.59375 19.921875 59.515625 
L 19.921875 54.6875 
L 34.71875 54.6875 
L 34.71875 47.703125 
L 19.921875 47.703125 
L 19.921875 0 
L 10.890625 0 
L 10.890625 47.703125 
L 2.296875 47.703125 
L 2.296875 54.6875 
L 10.890625 54.6875 
L 10.890625 58.5 
Q 10.890625 67.625 15.140625 71.796875 
Q 19.390625 75.984375 28.609375 75.984375 
z
" id="DejaVuSans-102"/>
       <path d="M 4.890625 31.390625 
L 31.203125 31.390625 
L 31.203125 23.390625 
L 4.890625 23.390625 
z
" id="DejaVuSans-45"/>
       <path d="M 56.203125 29.59375 
L 56.203125 25.203125 
L 14.890625 25.203125 
Q 15.484375 15.921875 20.484375 11.0625 
Q 25.484375 6.203125 34.421875 6.203125 
Q 39.59375 6.203125 44.453125 7.46875 
Q 49.3125 8.734375 54.109375 11.28125 
L 54.109375 2.78125 
Q 49.265625 0.734375 44.1875 -0.34375 
Q 39.109375 -1.421875 33.890625 -1.421875 
Q 20.796875 -1.421875 13.15625 6.1875 
Q 5.515625 13.8125 5.515625 26.8125 
Q 5.515625 40.234375 12.765625 48.109375 
Q 20.015625 56 32.328125 56 
Q 43.359375 56 49.78125 48.890625 
Q 56.203125 41.796875 56.203125 29.59375 
z
M 47.21875 32.234375 
Q 47.125 39.59375 43.09375 43.984375 
Q 39.0625 48.390625 32.421875 48.390625 
Q 24.90625 48.390625 20.390625 44.140625 
Q 15.875 39.890625 15.1875 32.171875 
z
" id="DejaVuSans-101"/>
       <path d="M 2.984375 54.6875 
L 12.5 54.6875 
L 29.59375 8.796875 
L 46.6875 54.6875 
L 56.203125 54.6875 
L 35.6875 0 
L 23.484375 0 
z
" id="DejaVuSans-118"/>
       <path d="M 34.28125 27.484375 
Q 23.390625 27.484375 19.1875 25 
Q 14.984375 22.515625 14.984375 16.5 
Q 14.984375 11.71875 18.140625 8.90625 
Q 21.296875 6.109375 26.703125 6.109375 
Q 34.1875 6.109375 38.703125 11.40625 
Q 43.21875 16.703125 43.21875 25.484375 
L 43.21875 27.484375 
z
M 52.203125 31.203125 
L 52.203125 0 
L 43.21875 0 
L 43.21875 8.296875 
Q 40.140625 3.328125 35.546875 0.953125 
Q 30.953125 -1.421875 24.3125 -1.421875 
Q 15.921875 -1.421875 10.953125 3.296875 
Q 6 8.015625 6 15.921875 
Q 6 25.140625 12.171875 29.828125 
Q 18.359375 34.515625 30.609375 34.515625 
L 43.21875 34.515625 
L 43.21875 35.40625 
Q 43.21875 41.609375 39.140625 45 
Q 35.0625 48.390625 27.6875 48.390625 
Q 23 48.390625 18.546875 47.265625 
Q 14.109375 46.140625 10.015625 43.890625 
L 10.015625 52.203125 
Q 14.9375 54.109375 19.578125 55.046875 
Q 24.21875 56 28.609375 56 
Q 40.484375 56 46.34375 49.84375 
Q 52.203125 43.703125 52.203125 31.203125 
z
" id="DejaVuSans-97"/>
       <path d="M 44.28125 53.078125 
L 44.28125 44.578125 
Q 40.484375 46.53125 36.375 47.5 
Q 32.28125 48.484375 27.875 48.484375 
Q 21.1875 48.484375 17.84375 46.4375 
Q 14.5 44.390625 14.5 40.28125 
Q 14.5 37.15625 16.890625 35.375 
Q 19.28125 33.59375 26.515625 31.984375 
L 29.59375 31.296875 
Q 39.15625 29.25 43.1875 25.515625 
Q 47.21875 21.78125 47.21875 15.09375 
Q 47.21875 7.46875 41.1875 3.015625 
Q 35.15625 -1.421875 24.609375 -1.421875 
Q 20.21875 -1.421875 15.453125 -0.5625 
Q 10.6875 0.296875 5.421875 2 
L 5.421875 11.28125 
Q 10.40625 8.6875 15.234375 7.390625 
Q 20.0625 6.109375 24.8125 6.109375 
Q 31.15625 6.109375 34.5625 8.28125 
Q 37.984375 10.453125 37.984375 14.40625 
Q 37.984375 18.0625 35.515625 20.015625 
Q 33.0625 21.96875 24.703125 23.78125 
L 21.578125 24.515625 
Q 13.234375 26.265625 9.515625 29.90625 
Q 5.8125 33.546875 5.8125 39.890625 
Q 5.8125 47.609375 11.28125 51.796875 
Q 16.75 56 26.8125 56 
Q 31.78125 56 36.171875 55.265625 
Q 40.578125 54.546875 44.28125 53.078125 
z
" id="DejaVuSans-115"/>
       <path d="M 25.390625 72.90625 
L 33.6875 72.90625 
L 8.296875 -9.28125 
L 0 -9.28125 
z
" id="DejaVuSans-47"/>
       <path d="M 45.40625 46.390625 
L 45.40625 75.984375 
L 54.390625 75.984375 
L 54.390625 0 
L 45.40625 0 
L 45.40625 8.203125 
Q 42.578125 3.328125 38.25 0.953125 
Q 33.9375 -1.421875 27.875 -1.421875 
Q 17.96875 -1.421875 11.734375 6.484375 
Q 5.515625 14.40625 5.515625 27.296875 
Q 5.515625 40.1875 11.734375 48.09375 
Q 17.96875 56 27.875 56 
Q 33.9375 56 38.25 53.625 
Q 42.578125 51.265625 45.40625 46.390625 
z
M 14.796875 27.296875 
Q 14.796875 17.390625 18.875 11.75 
Q 22.953125 6.109375 30.078125 6.109375 
Q 37.203125 6.109375 41.296875 11.75 
Q 45.40625 17.390625 45.40625 27.296875 
Q 45.40625 37.203125 41.296875 42.84375 
Q 37.203125 48.484375 30.078125 48.484375 
Q 22.953125 48.484375 18.875 42.84375 
Q 14.796875 37.203125 14.796875 27.296875 
z
" id="DejaVuSans-100"/>
       <path d="M 9.421875 54.6875 
L 18.40625 54.6875 
L 18.40625 0 
L 9.421875 0 
z
M 9.421875 75.984375 
L 18.40625 75.984375 
L 18.40625 64.59375 
L 9.421875 64.59375 
z
" id="DejaVuSans-105"/>
       <path d="M 52 44.1875 
Q 55.375 50.25 60.0625 53.125 
Q 64.75 56 71.09375 56 
Q 79.640625 56 84.28125 50.015625 
Q 88.921875 44.046875 88.921875 33.015625 
L 88.921875 0 
L 79.890625 0 
L 79.890625 32.71875 
Q 79.890625 40.578125 77.09375 44.375 
Q 74.3125 48.1875 68.609375 48.1875 
Q 61.625 48.1875 57.5625 43.546875 
Q 53.515625 38.921875 53.515625 30.90625 
L 53.515625 0 
L 44.484375 0 
L 44.484375 32.71875 
Q 44.484375 40.625 41.703125 44.40625 
Q 38.921875 48.1875 33.109375 48.1875 
Q 26.21875 48.1875 22.15625 43.53125 
Q 18.109375 38.875 18.109375 30.90625 
L 18.109375 0 
L 9.078125 0 
L 9.078125 54.6875 
L 18.109375 54.6875 
L 18.109375 46.1875 
Q 21.1875 51.21875 25.484375 53.609375 
Q 29.78125 56 35.6875 56 
Q 41.65625 56 45.828125 52.96875 
Q 50 49.953125 52 44.1875 
z
" id="DejaVuSans-109"/>
       <path d="M 54.890625 33.015625 
L 54.890625 0 
L 45.90625 0 
L 45.90625 32.71875 
Q 45.90625 40.484375 42.875 44.328125 
Q 39.84375 48.1875 33.796875 48.1875 
Q 26.515625 48.1875 22.3125 43.546875 
Q 18.109375 38.921875 18.109375 30.90625 
L 18.109375 0 
L 9.078125 0 
L 9.078125 54.6875 
L 18.109375 54.6875 
L 18.109375 46.1875 
Q 21.34375 51.125 25.703125 53.5625 
Q 30.078125 56 35.796875 56 
Q 45.21875 56 50.046875 50.171875 
Q 54.890625 44.34375 54.890625 33.015625 
z
" id="DejaVuSans-110"/>
       <path d="M 8.015625 75.875 
L 15.828125 75.875 
Q 23.140625 64.359375 26.78125 53.3125 
Q 30.421875 42.28125 30.421875 31.390625 
Q 30.421875 20.453125 26.78125 9.375 
Q 23.140625 -1.703125 15.828125 -13.1875 
L 8.015625 -13.1875 
Q 14.5 -2 17.703125 9.0625 
Q 20.90625 20.125 20.90625 31.390625 
Q 20.90625 42.671875 17.703125 53.65625 
Q 14.5 64.65625 8.015625 75.875 
z
" id="DejaVuSans-41"/>
      </defs>
      <use xlink:href="#DejaVuSans-108"/>
      <use x="27.783203" xlink:href="#DejaVuSans-111"/>
      <use x="88.964844" xlink:href="#DejaVuSans-103"/>
      <use x="152.441406" xlink:href="#DejaVuSans-49"/>
      <use x="216.064453" xlink:href="#DejaVuSans-48"/>
      <use x="279.6875" xlink:href="#DejaVuSans-40"/>
      <use x="318.701172" xlink:href="#DejaVuSans-35"/>
      <use x="402.490234" xlink:href="#DejaVuSans-32"/>
      <use x="434.277344" xlink:href="#DejaVuSans-102"/>
      <use x="463.982422" xlink:href="#DejaVuSans-45"/>
      <use x="500.066406" xlink:href="#DejaVuSans-101"/>
      <use x="561.589844" xlink:href="#DejaVuSans-118"/>
      <use x="620.769531" xlink:href="#DejaVuSans-97"/>
      <use x="682.048828" xlink:href="#DejaVuSans-108"/>
      <use x="709.832031" xlink:href="#DejaVuSans-115"/>
      <use x="761.931641" xlink:href="#DejaVuSans-32"/>
      <use x="793.71875" xlink:href="#DejaVuSans-47"/>
      <use x="827.410156" xlink:href="#DejaVuSans-32"/>
      <use x="859.197266" xlink:href="#DejaVuSans-100"/>
      <use x="922.673828" xlink:href="#DejaVuSans-105"/>
      <use x="950.457031" xlink:href="#DejaVuSans-109"/>
      <use x="1047.869141" xlink:href="#DejaVuSans-101"/>
      <use x="1109.392578" xlink:href="#DejaVuSans-110"/>
      <use x="1172.771484" xlink:href="#DejaVuSans-115"/>
      <use x="1224.871094" xlink:href="#DejaVuSans-105"/>
      <use x="1252.654297" xlink:href="#DejaVuSans-111"/>
      <use x="1313.835938" xlink:href="#DejaVuSans-110"/>
      <use x="1377.214844" xlink:href="#DejaVuSans-41"/>
     </g>
    </g>
   </g>
   <g id="matplotlib.axis_2">
    <g id="ytick_1">
     <g id="line2d_21">
      <path clip-path="url(#pb9b2b6e6bb)" d="M 57.6 298.944 
L 338.688 298.944 
" style="fill:none;stroke:#b0b0b0;stroke-linecap:square;stroke-width:0.8;"/>
     </g>
     <g id="line2d_22">
      <defs>
       <path d="M 0 0 
L -3.5 0 
" id="mbbb3bffb15" style="stroke:#000000;stroke-width:0.8;"/>
      </defs>
      <g>
       <use style="stroke:#000000;stroke-width:0.8;" x="57.6" xlink:href="#mbbb3bffb15" y="298.944"/>
      </g>
     </g>
     <g id="text_6">
      <!-- 0.0 -->
      <g transform="translate(25.155 305.02275)scale(0.16 -0.16)">
       <defs>
        <path d="M 10.6875 12.40625 
L 21 12.40625 
L 21 0 
L 10.6875 0 
z
" id="DejaVuSans-46"/>
       </defs>
       <use xlink:href="#DejaVuSans-48"/>
       <use x="63.623047" xlink:href="#DejaVuSans-46"/>
       <use x="95.410156" xlink:href="#DejaVuSans-48"/>
      </g>
     </g>
    </g>
    <g id="ytick_2">
     <g id="line2d_23">
      <path clip-path="url(#pb9b2b6e6bb)" d="M 57.6 245.22202 
L 338.688 245.22202 
" style="fill:none;stroke:#b0b0b0;stroke-linecap:square;stroke-width:0.8;"/>
     </g>
     <g id="line2d_24">
      <g>
       <use style="stroke:#000000;stroke-width:0.8;" x="57.6" xlink:href="#mbbb3bffb15" y="245.22202"/>
      </g>
     </g>
     <g id="text_7">
      <!-- 0.2 -->
      <g transform="translate(25.155 251.30077)scale(0.16 -0.16)">
       <use xlink:href="#DejaVuSans-48"/>
       <use x="63.623047" xlink:href="#DejaVuSans-46"/>
       <use x="95.410156" xlink:href="#DejaVuSans-50"/>
      </g>
     </g>
    </g>
    <g id="ytick_3">
     <g id="line2d_25">
      <path clip-path="url(#pb9b2b6e6bb)" d="M 57.6 191.50004 
L 338.688 191.50004 
" style="fill:none;stroke:#b0b0b0;stroke-linecap:square;stroke-width:0.8;"/>
     </g>
     <g id="line2d_26">
      <g>
       <use style="stroke:#000000;stroke-width:0.8;" x="57.6" xlink:href="#mbbb3bffb15" y="191.50004"/>
      </g>
     </g>
     <g id="text_8">
      <!-- 0.4 -->
      <g transform="translate(25.155 197.57879)scale(0.16 -0.16)">
       <use xlink:href="#DejaVuSans-48"/>
       <use x="63.623047" xlink:href="#DejaVuSans-46"/>
       <use x="95.410156" xlink:href="#DejaVuSans-52"/>
      </g>
     </g>
    </g>
    <g id="ytick_4">
     <g id="line2d_27">
      <path clip-path="url(#pb9b2b6e6bb)" d="M 57.6 137.778059 
L 338.688 137.778059 
" style="fill:none;stroke:#b0b0b0;stroke-linecap:square;stroke-width:0.8;"/>
     </g>
     <g id="line2d_28">
      <g>
       <use style="stroke:#000000;stroke-width:0.8;" x="57.6" xlink:href="#mbbb3bffb15" y="137.778059"/>
      </g>
     </g>
     <g id="text_9">
      <!-- 0.6 -->
      <g transform="translate(25.155 143.856809)scale(0.16 -0.16)">
       <use xlink:href="#DejaVuSans-48"/>
       <use x="63.623047" xlink:href="#DejaVuSans-46"/>
       <use x="95.410156" xlink:href="#DejaVuSans-54"/>
      </g>
     </g>
    </g>
    <g id="ytick_5">
     <g id="line2d_29">
      <path clip-path="url(#pb9b2b6e6bb)" d="M 57.6 84.056079 
L 338.688 84.056079 
" style="fill:none;stroke:#b0b0b0;stroke-linecap:square;stroke-width:0.8;"/>
     </g>
     <g id="line2d_30">
      <g>
       <use style="stroke:#000000;stroke-width:0.8;" x="57.6" xlink:href="#mbbb3bffb15" y="84.056079"/>
      </g>
     </g>
     <g id="text_10">
      <!-- 0.8 -->
      <g transform="translate(25.155 90.134829)scale(0.16 -0.16)">
       <defs>
        <path d="M 31.78125 34.625 
Q 24.75 34.625 20.71875 30.859375 
Q 16.703125 27.09375 16.703125 20.515625 
Q 16.703125 13.921875 20.71875 10.15625 
Q 24.75 6.390625 31.78125 6.390625 
Q 38.8125 6.390625 42.859375 10.171875 
Q 46.921875 13.96875 46.921875 20.515625 
Q 46.921875 27.09375 42.890625 30.859375 
Q 38.875 34.625 31.78125 34.625 
z
M 21.921875 38.8125 
Q 15.578125 40.375 12.03125 44.71875 
Q 8.5 49.078125 8.5 55.328125 
Q 8.5 64.0625 14.71875 69.140625 
Q 20.953125 74.21875 31.78125 74.21875 
Q 42.671875 74.21875 48.875 69.140625 
Q 55.078125 64.0625 55.078125 55.328125 
Q 55.078125 49.078125 51.53125 44.71875 
Q 48 40.375 41.703125 38.8125 
Q 48.828125 37.15625 52.796875 32.3125 
Q 56.78125 27.484375 56.78125 20.515625 
Q 56.78125 9.90625 50.3125 4.234375 
Q 43.84375 -1.421875 31.78125 -1.421875 
Q 19.734375 -1.421875 13.25 4.234375 
Q 6.78125 9.90625 6.78125 20.515625 
Q 6.78125 27.484375 10.78125 32.3125 
Q 14.796875 37.15625 21.921875 38.8125 
z
M 18.3125 54.390625 
Q 18.3125 48.734375 21.84375 45.5625 
Q 25.390625 42.390625 31.78125 42.390625 
Q 38.140625 42.390625 41.71875 45.5625 
Q 45.3125 48.734375 45.3125 54.390625 
Q 45.3125 60.0625 41.71875 63.234375 
Q 38.140625 66.40625 31.78125 66.40625 
Q 25.390625 66.40625 21.84375 63.234375 
Q 18.3125 60.0625 18.3125 54.390625 
z
" id="DejaVuSans-56"/>
       </defs>
       <use xlink:href="#DejaVuSans-48"/>
       <use x="63.623047" xlink:href="#DejaVuSans-46"/>
       <use x="95.410156" xlink:href="#DejaVuSans-56"/>
      </g>
     </g>
    </g>
    <g id="ytick_6">
     <g id="line2d_31">
      <path clip-path="url(#pb9b2b6e6bb)" d="M 57.6 30.334099 
L 338.688 30.334099 
" style="fill:none;stroke:#b0b0b0;stroke-linecap:square;stroke-width:0.8;"/>
     </g>
     <g id="line2d_32">
      <g>
       <use style="stroke:#000000;stroke-width:0.8;" x="57.6" xlink:href="#mbbb3bffb15" y="30.334099"/>
      </g>
     </g>
     <g id="text_11">
      <!-- 1.0 -->
      <g transform="translate(25.155 36.412849)scale(0.16 -0.16)">
       <use xlink:href="#DejaVuSans-49"/>
       <use x="63.623047" xlink:href="#DejaVuSans-46"/>
       <use x="95.410156" xlink:href="#DejaVuSans-48"/>
      </g>
     </g>
    </g>
    <g id="text_12">
     <!-- Fraction of function,target pairs -->
     <g transform="translate(17.619531 297.681)rotate(-90)scale(0.17 -0.17)">
      <defs>
       <path d="M 9.8125 72.90625 
L 51.703125 72.90625 
L 51.703125 64.59375 
L 19.671875 64.59375 
L 19.671875 43.109375 
L 48.578125 43.109375 
L 48.578125 34.8125 
L 19.671875 34.8125 
L 19.671875 0 
L 9.8125 0 
z
" id="DejaVuSans-70"/>
       <path d="M 41.109375 46.296875 
Q 39.59375 47.171875 37.8125 47.578125 
Q 36.03125 48 33.890625 48 
Q 26.265625 48 22.1875 43.046875 
Q 18.109375 38.09375 18.109375 28.8125 
L 18.109375 0 
L 9.078125 0 
L 9.078125 54.6875 
L 18.109375 54.6875 
L 18.109375 46.1875 
Q 20.953125 51.171875 25.484375 53.578125 
Q 30.03125 56 36.53125 56 
Q 37.453125 56 38.578125 55.875 
Q 39.703125 55.765625 41.0625 55.515625 
z
" id="DejaVuSans-114"/>
       <path d="M 48.78125 52.59375 
L 48.78125 44.1875 
Q 44.96875 46.296875 41.140625 47.34375 
Q 37.3125 48.390625 33.40625 48.390625 
Q 24.65625 48.390625 19.8125 42.84375 
Q 14.984375 37.3125 14.984375 27.296875 
Q 14.984375 17.28125 19.8125 11.734375 
Q 24.65625 6.203125 33.40625 6.203125 
Q 37.3125 6.203125 41.140625 7.25 
Q 44.96875 8.296875 48.78125 10.40625 
L 48.78125 2.09375 
Q 45.015625 0.34375 40.984375 -0.53125 
Q 36.96875 -1.421875 32.421875 -1.421875 
Q 20.0625 -1.421875 12.78125 6.34375 
Q 5.515625 14.109375 5.515625 27.296875 
Q 5.515625 40.671875 12.859375 48.328125 
Q 20.21875 56 33.015625 56 
Q 37.15625 56 41.109375 55.140625 
Q 45.0625 54.296875 48.78125 52.59375 
z
" id="DejaVuSans-99"/>
       <path d="M 18.3125 70.21875 
L 18.3125 54.6875 
L 36.8125 54.6875 
L 36.8125 47.703125 
L 18.3125 47.703125 
L 18.3125 18.015625 
Q 18.3125 11.328125 20.140625 9.421875 
Q 21.96875 7.515625 27.59375 7.515625 
L 36.8125 7.515625 
L 36.8125 0 
L 27.59375 0 
Q 17.1875 0 13.234375 3.875 
Q 9.28125 7.765625 9.28125 18.015625 
L 9.28125 47.703125 
L 2.6875 47.703125 
L 2.6875 54.6875 
L 9.28125 54.6875 
L 9.28125 70.21875 
z
" id="DejaVuSans-116"/>
       <path d="M 8.5 21.578125 
L 8.5 54.6875 
L 17.484375 54.6875 
L 17.484375 21.921875 
Q 17.484375 14.15625 20.5 10.265625 
Q 23.53125 6.390625 29.59375 6.390625 
Q 36.859375 6.390625 41.078125 11.03125 
Q 45.3125 15.671875 45.3125 23.6875 
L 45.3125 54.6875 
L 54.296875 54.6875 
L 54.296875 0 
L 45.3125 0 
L 45.3125 8.40625 
Q 42.046875 3.421875 37.71875 1 
Q 33.40625 -1.421875 27.6875 -1.421875 
Q 18.265625 -1.421875 13.375 4.4375 
Q 8.5 10.296875 8.5 21.578125 
z
M 31.109375 56 
z
" id="DejaVuSans-117"/>
       <path d="M 11.71875 12.40625 
L 22.015625 12.40625 
L 22.015625 4 
L 14.015625 -11.625 
L 7.71875 -11.625 
L 11.71875 4 
z
" id="DejaVuSans-44"/>
       <path d="M 18.109375 8.203125 
L 18.109375 -20.796875 
L 9.078125 -20.796875 
L 9.078125 54.6875 
L 18.109375 54.6875 
L 18.109375 46.390625 
Q 20.953125 51.265625 25.265625 53.625 
Q 29.59375 56 35.59375 56 
Q 45.5625 56 51.78125 48.09375 
Q 58.015625 40.1875 58.015625 27.296875 
Q 58.015625 14.40625 51.78125 6.484375 
Q 45.5625 -1.421875 35.59375 -1.421875 
Q 29.59375 -1.421875 25.265625 0.953125 
Q 20.953125 3.328125 18.109375 8.203125 
z
M 48.6875 27.296875 
Q 48.6875 37.203125 44.609375 42.84375 
Q 40.53125 48.484375 33.40625 48.484375 
Q 26.265625 48.484375 22.1875 42.84375 
Q 18.109375 37.203125 18.109375 27.296875 
Q 18.109375 17.390625 22.1875 11.75 
Q 26.265625 6.109375 33.40625 6.109375 
Q 40.53125 6.109375 44.609375 11.75 
Q 48.6875 17.390625 48.6875 27.296875 
z
" id="DejaVuSans-112"/>
      </defs>
      <use xlink:href="#DejaVuSans-70"/>
      <use x="50.269531" xlink:href="#DejaVuSans-114"/>
      <use x="91.382812" xlink:href="#DejaVuSans-97"/>
      <use x="152.662109" xlink:href="#DejaVuSans-99"/>
      <use x="207.642578" xlink:href="#DejaVuSans-116"/>
      <use x="246.851562" xlink:href="#DejaVuSans-105"/>
      <use x="274.634766" xlink:href="#DejaVuSans-111"/>
      <use x="335.816406" xlink:href="#DejaVuSans-110"/>
      <use x="399.195312" xlink:href="#DejaVuSans-32"/>
      <use x="430.982422" xlink:href="#DejaVuSans-111"/>
      <use x="492.164062" xlink:href="#DejaVuSans-102"/>
      <use x="527.369141" xlink:href="#DejaVuSans-32"/>
      <use x="559.15625" xlink:href="#DejaVuSans-102"/>
      <use x="594.361328" xlink:href="#DejaVuSans-117"/>
      <use x="657.740234" xlink:href="#DejaVuSans-110"/>
      <use x="721.119141" xlink:href="#DejaVuSans-99"/>
      <use x="776.099609" xlink:href="#DejaVuSans-116"/>
      <use x="815.308594" xlink:href="#DejaVuSans-105"/>
      <use x="843.091797" xlink:href="#DejaVuSans-111"/>
      <use x="904.273438" xlink:href="#DejaVuSans-110"/>
      <use x="967.652344" xlink:href="#DejaVuSans-44"/>
      <use x="999.439453" xlink:href="#DejaVuSans-116"/>
      <use x="1038.648438" xlink:href="#DejaVuSans-97"/>
      <use x="1099.927734" xlink:href="#DejaVuSans-114"/>
      <use x="1139.291016" xlink:href="#DejaVuSans-103"/>
      <use x="1202.767578" xlink:href="#DejaVuSans-101"/>
      <use x="1264.291016" xlink:href="#DejaVuSans-116"/>
      <use x="1303.5" xlink:href="#DejaVuSans-32"/>
      <use x="1335.287109" xlink:href="#DejaVuSans-112"/>
      <use x="1398.763672" xlink:href="#DejaVuSans-97"/>
      <use x="1460.042969" xlink:href="#DejaVuSans-105"/>
      <use x="1487.826172" xlink:href="#DejaVuSans-114"/>
      <use x="1528.939453" xlink:href="#DejaVuSans-115"/>
     </g>
    </g>
   </g>
   <g id="line2d_33">
    <defs>
     <path d="M 0 1.5 
C 0.397805 1.5 0.77937 1.341951 1.06066 1.06066 
C 1.341951 0.77937 1.5 0.397805 1.5 0 
C 1.5 -0.397805 1.341951 -0.77937 1.06066 -1.06066 
C 0.77937 -1.341951 0.397805 -1.5 0 -1.5 
C -0.397805 -1.5 -0.77937 -1.341951 -1.06066 -1.06066 
C -1.341951 -0.77937 -1.5 -0.397805 -1.5 0 
C -1.5 0.397805 -1.341951 0.77937 -1.06066 1.06066 
C -0.77937 1.341951 -0.397805 1.5 0 1.5 
z
" id="m7ac3417bda" style="stroke:#f5deb3;"/>
    </defs>
    <g>
     <use style="fill:#f5deb3;stroke:#f5deb3;" x="141.046761" xlink:href="#m7ac3417bda" y="30.334099"/>
     <use style="fill:#f5deb3;stroke:#f5deb3;" x="141.046761" xlink:href="#m7ac3417bda" y="30.334099"/>
    </g>
   </g>
   <g id="line2d_34">
    <defs>
     <path d="M 0 1.5 
C 0.397805 1.5 0.77937 1.341951 1.06066 1.06066 
C 1.341951 0.77937 1.5 0.397805 1.5 0 
C 1.5 -0.397805 1.341951 -0.77937 1.06066 -1.06066 
C 0.77937 -1.341951 0.397805 -1.5 0 -1.5 
C -0.397805 -1.5 -0.77937 -1.341951 -1.06066 -1.06066 
C -1.341951 -0.77937 -1.5 -0.397805 -1.5 0 
C -1.5 0.397805 -1.341951 0.77937 -1.06066 1.06066 
C -0.77937 1.341951 -0.397805 1.5 0 1.5 
z
" id="m2aaf7c3973" style="stroke:#000080;"/>
    </defs>
    <g>
     <use style="fill:#000080;stroke:#000080;" x="185.062739" xlink:href="#m2aaf7c3973" y="30.334099"/>
     <use style="fill:#000080;stroke:#000080;" x="185.062739" xlink:href="#m2aaf7c3973" y="30.334099"/>
    </g>
   </g>
   <g id="line2d_35">
    <path d="M 17.444571 298.944 
L 17.444571 288.410278 
L 77.884514 288.410278 
L 77.884514 287.883592 
L 87.952479 287.883592 
L 87.952479 287.356906 
L 97.403108 287.356906 
L 97.403108 286.83022 
L 103.372333 286.83022 
L 103.372333 286.303534 
L 103.993014 286.303534 
L 103.993014 285.250162 
L 104.114542 285.250162 
L 104.114542 284.723476 
L 104.23523 284.723476 
L 104.23523 284.19679 
L 104.826449 284.19679 
L 104.826449 283.670104 
L 106.802819 283.670104 
L 106.802819 283.143418 
L 107.213174 283.143418 
L 107.213174 282.616732 
L 107.811151 282.616732 
L 107.811151 281.563359 
L 108.006005 281.563359 
L 108.006005 281.036673 
L 108.764355 281.036673 
L 108.764355 280.509987 
L 108.948899 280.509987 
L 108.948899 279.983301 
L 110.188761 279.983301 
L 110.188761 279.456615 
L 110.358901 279.456615 
L 110.358901 278.929929 
L 112.280765 278.929929 
L 112.280765 278.403243 
L 112.431755 278.403243 
L 112.431755 277.349871 
L 113.524343 277.349871 
L 113.524343 276.823185 
L 113.664983 276.823185 
L 113.664983 276.296499 
L 114.0117 276.296499 
L 114.0117 275.243126 
L 116.019919 275.243126 
L 116.019919 274.71644 
L 116.262979 274.71644 
L 116.262979 274.189754 
L 117.145424 274.189754 
L 117.145424 272.609696 
L 120.382253 272.609696 
L 120.429836 271.556324 
L 120.571812 271.556324 
L 120.571812 271.029638 
L 121.310093 271.029638 
L 121.355214 269.449579 
L 122.061712 269.449579 
L 122.061712 268.922893 
L 122.657258 268.922893 
L 122.657258 268.396207 
L 123.354102 268.396207 
L 123.354102 267.869521 
L 123.593547 267.869521 
L 123.593547 267.342835 
L 123.790603 267.342835 
L 123.790603 266.816149 
L 123.907776 266.816149 
L 123.907776 266.289463 
L 124.482119 266.289463 
L 124.482119 265.762777 
L 124.92835 265.762777 
L 124.92835 265.236091 
L 125.147256 265.236091 
L 125.147256 264.182719 
L 126.236468 264.182719 
L 126.236468 263.656033 
L 126.937471 263.656033 
L 126.937471 263.129347 
L 128.679738 263.129347 
L 128.679738 262.60266 
L 129.630422 262.60266 
L 129.630422 262.075974 
L 131.590764 262.075974 
L 131.590764 261.549288 
L 132.278599 261.549288 
L 132.278599 261.022602 
L 132.494049 261.022602 
L 132.494049 260.495916 
L 132.963507 260.495916 
L 132.963507 259.96923 
L 134.407429 259.96923 
L 134.407429 259.442544 
L 135.421987 259.442544 
L 135.421987 258.915858 
L 142.120287 258.915858 
L 142.120287 258.389172 
L 142.324576 258.389172 
L 142.324576 257.862486 
L 142.936543 257.862486 
L 142.936543 257.3358 
L 143.196061 257.3358 
L 143.196061 256.809114 
L 145.474772 256.809114 
L 145.474772 256.282427 
L 148.40198 256.282427 
L 148.468742 255.229055 
L 148.554206 255.229055 
L 148.554206 254.702369 
L 149.752971 254.702369 
L 149.752971 254.175683 
L 150.47195 254.175683 
L 150.47195 253.648997 
L 150.73306 253.648997 
L 150.73306 253.122311 
L 151.405461 253.122311 
L 151.405461 252.595625 
L 151.928441 252.595625 
L 151.928441 252.068939 
L 152.877907 252.068939 
L 152.966394 251.015567 
L 153.344733 251.015567 
L 153.344733 250.488881 
L 153.516621 250.488881 
L 153.516621 249.962195 
L 153.764292 249.962195 
L 153.764292 249.435508 
L 154.385464 249.435508 
L 154.385464 248.908822 
L 154.833936 248.908822 
L 154.899894 247.85545 
L 155.004911 247.85545 
L 155.004911 247.328764 
L 155.444309 247.328764 
L 155.444309 246.802078 
L 155.972241 246.802078 
L 156.064855 244.695334 
L 156.610446 244.695334 
L 156.610446 244.168648 
L 157.220355 244.168648 
L 157.329512 243.115275 
L 157.466426 243.115275 
L 157.466426 242.588589 
L 157.647321 242.588589 
L 157.647321 242.061903 
L 157.765022 242.061903 
L 157.765022 241.535217 
L 158.157181 241.535217 
L 158.157181 241.008531 
L 158.271501 241.008531 
L 158.368898 239.955159 
L 158.481843 239.955159 
L 158.481843 239.428473 
L 158.710855 239.428473 
L 158.710855 238.901787 
L 158.826871 238.901787 
L 158.826871 238.375101 
L 159.400737 238.375101 
L 159.497101 237.321729 
L 159.572803 237.321729 
L 159.618067 236.268356 
L 159.788013 236.268356 
L 159.788013 235.74167 
L 160.680044 235.74167 
L 160.680044 235.214984 
L 160.821253 235.214984 
L 160.830627 233.634926 
L 160.933404 233.634926 
L 160.993852 232.581554 
L 161.12334 232.581554 
L 161.12334 232.054868 
L 161.320345 232.054868 
L 161.388547 231.001496 
L 161.470039 231.001496 
L 161.546656 229.421437 
L 161.596053 229.421437 
L 161.596053 228.894751 
L 161.770068 228.894751 
L 161.863054 227.314693 
L 161.986269 227.314693 
L 162.07375 226.261321 
L 162.121678 226.261321 
L 162.204154 224.681263 
L 162.238764 224.681263 
L 162.238764 224.154577 
L 162.389382 224.154577 
L 162.462072 222.047832 
L 162.55145 222.047832 
L 162.585379 220.99446 
L 162.68677 220.99446 
L 162.68677 220.467774 
L 162.825228 220.467774 
L 162.825228 219.941088 
L 163.004009 219.941088 
L 163.004009 219.414402 
L 163.319642 219.414402 
L 163.400698 218.36103 
L 163.697374 218.36103 
L 163.697374 217.834344 
L 163.863539 217.834344 
L 163.863539 217.307658 
L 164.008622 217.307658 
L 164.098204 215.200913 
L 164.229793 215.200913 
L 164.229793 214.674227 
L 164.641313 214.674227 
L 164.641313 214.147541 
L 164.824867 214.147541 
L 164.824867 213.620855 
L 165.017568 213.620855 
L 165.124118 212.567483 
L 165.55465 212.567483 
L 165.604609 211.514111 
L 165.725346 211.514111 
L 165.778348 209.934052 
L 165.88387 209.934052 
L 165.992243 208.353994 
L 166.459886 208.353994 
L 166.46667 207.300622 
L 166.689087 207.300622 
L 166.775933 206.24725 
L 166.968122 206.24725 
L 166.974711 205.193878 
L 167.083081 205.193878 
L 167.167992 203.613819 
L 167.20054 203.613819 
L 167.20054 203.087133 
L 167.362375 203.087133 
L 167.471572 202.033761 
L 167.595991 202.033761 
L 167.595991 201.507075 
L 167.864123 201.507075 
L 167.870382 200.453703 
L 168.590673 200.453703 
L 168.590673 199.927017 
L 168.763962 199.927017 
L 168.802567 198.346959 
L 169.029495 198.346959 
L 169.108373 197.293586 
L 169.62247 197.293586 
L 169.684622 195.713528 
L 169.850217 195.713528 
L 169.850217 195.186842 
L 170.036379 195.186842 
L 170.116344 194.13347 
L 170.165794 194.13347 
L 170.242438 193.080098 
L 170.340488 193.080098 
L 170.419074 191.50004 
L 170.537636 191.50004 
L 170.537636 190.973354 
L 170.682051 190.973354 
L 170.753812 189.919981 
L 170.793552 189.919981 
L 170.833202 188.339923 
L 171.064015 188.339923 
L 171.144602 186.759865 
L 171.175698 186.759865 
L 171.204153 185.706493 
L 171.345738 185.706493 
L 171.373917 184.653121 
L 171.562314 184.653121 
L 171.655755 182.01969 
L 171.678408 182.01969 
L 171.708567 180.439632 
L 171.813714 180.439632 
L 171.880975 178.859574 
L 172.022124 178.859574 
L 172.071381 177.806202 
L 172.135207 177.806202 
L 172.211004 175.172771 
L 172.271891 175.172771 
L 172.376122 173.592713 
L 172.385786 173.592713 
L 172.491742 172.012655 
L 172.501342 172.012655 
L 172.608985 170.432596 
L 172.779844 170.432596 
L 172.848191 168.325852 
L 172.967743 168.325852 
L 173.077198 165.165736 
L 173.128197 165.165736 
L 173.172121 162.532305 
L 173.294067 162.532305 
L 173.310109 160.952247 
L 173.462916 160.952247 
L 173.503742 159.372189 
L 173.598631 159.372189 
L 173.641388 157.79213 
L 173.818053 157.79213 
L 173.893538 155.685386 
L 173.933369 155.685386 
L 174.030352 153.051956 
L 174.179182 153.051956 
L 174.266139 150.945211 
L 174.315944 150.945211 
L 174.39792 148.838467 
L 174.436617 148.838467 
L 174.492361 146.731723 
L 174.550061 146.731723 
L 174.660652 145.151665 
L 174.673367 145.151665 
L 174.778971 142.518234 
L 174.802118 142.518234 
L 174.902766 139.358118 
L 174.929925 139.358118 
L 175.02984 136.198001 
L 175.04851 136.198001 
L 175.08786 133.564571 
L 175.170413 133.564571 
L 175.262821 129.351082 
L 175.283289 129.351082 
L 175.362888 126.717652 
L 175.40763 126.717652 
L 175.504853 123.557535 
L 175.541172 123.557535 
L 175.641664 116.710616 
L 175.691693 116.710616 
L 175.797284 111.970441 
L 175.803242 111.970441 
L 175.880507 107.756953 
L 175.963336 107.756953 
L 176.067299 101.43672 
L 176.09661 101.43672 
L 176.116124 99.856662 
L 176.209486 99.856662 
L 176.261784 96.696545 
L 176.429239 96.696545 
L 176.534278 94.589801 
L 176.574218 94.589801 
L 176.672724 91.95637 
L 176.727419 91.95637 
L 176.819447 89.32294 
L 176.918444 89.32294 
L 176.983512 86.162824 
L 177.048339 86.162824 
L 177.155238 84.582765 
L 177.175439 84.582765 
L 177.241386 80.895963 
L 177.299796 80.895963 
L 177.383421 78.789218 
L 177.423274 78.789218 
L 177.493699 76.155788 
L 177.545883 76.155788 
L 177.637277 73.522358 
L 177.690816 73.522358 
L 177.800944 67.202125 
L 177.836322 67.202125 
L 177.931484 64.042008 
L 178.069773 64.042008 
L 178.153265 60.881892 
L 178.208705 60.881892 
L 178.300141 58.248461 
L 178.331086 58.248461 
L 178.360262 57.195089 
L 178.44579 57.195089 
L 178.479885 55.615031 
L 178.569914 55.615031 
L 178.661166 52.454914 
L 178.689795 52.454914 
L 178.738525 50.874856 
L 178.905521 50.874856 
L 179.003304 49.294798 
L 179.041275 49.294798 
L 179.118611 47.188054 
L 179.156332 47.188054 
L 179.17598 46.134681 
L 181.658022 46.134681 
L 181.658022 45.607995 
L 181.880847 45.607995 
L 181.880847 45.081309 
L 182.103627 45.081309 
L 182.103627 44.554623 
L 182.699318 44.554623 
L 182.699318 44.027937 
L 182.837821 44.027937 
L 182.837821 43.501251 
L 182.998906 43.501251 
L 182.998906 42.974565 
L 183.250736 42.974565 
L 183.250736 42.447879 
L 183.391371 42.447879 
L 183.391371 41.921193 
L 183.523231 41.921193 
L 183.523231 41.394507 
L 183.817886 41.394507 
L 183.817886 40.867821 
L 183.930382 40.867821 
L 184.035966 39.287762 
L 184.050821 39.287762 
L 184.123672 37.707704 
L 184.175348 37.707704 
L 184.24034 36.654332 
L 184.36231 36.654332 
L 184.39267 35.60096 
L 184.477397 35.60096 
L 184.572527 34.547588 
L 184.614507 34.547588 
L 184.614507 34.020902 
L 184.779052 34.020902 
L 184.822907 32.440843 
L 184.919707 32.440843 
L 184.951463 30.860785 
L 185.062739 30.860785 
L 185.062739 30.334099 
L 338.688 30.334099 
L 338.688 30.334099 
" style="fill:none;stroke:#000080;stroke-linecap:square;stroke-width:1.5;"/>
   </g>
   <g id="line2d_36">
    <defs>
     <path d="M 0 6 
C 1.591219 6 3.117479 5.367802 4.242641 4.242641 
C 5.367802 3.117479 6 1.591219 6 0 
C 6 -1.591219 5.367802 -3.117479 4.242641 -4.242641 
C 3.117479 -5.367802 1.591219 -6 0 -6 
C -1.591219 -6 -3.117479 -5.367802 -4.242641 -4.242641 
C -5.367802 -3.117479 -6 -1.591219 -6 0 
C -6 1.591219 -5.367802 3.117479 -4.242641 4.242641 
C -3.117479 5.367802 -1.591219 6 0 6 
z
" id="m8c324e2cdf" style="stroke:#000080;stroke-width:1.5;"/>
    </defs>
    <g>
     <use style="fill-opacity:0;stroke:#000080;stroke-width:1.5;" x="87.952479" xlink:href="#m8c324e2cdf" y="287.883592"/>
     <use style="fill-opacity:0;stroke:#000080;stroke-width:1.5;" x="171.826189" xlink:href="#m8c324e2cdf" y="179.38626"/>
     <use style="fill-opacity:0;stroke:#000080;stroke-width:1.5;" x="178.593618" xlink:href="#m8c324e2cdf" y="54.561659"/>
     <use style="fill-opacity:0;stroke:#000080;stroke-width:1.5;" x="185.062739" xlink:href="#m8c324e2cdf" y="30.334099"/>
     <use style="fill-opacity:0;stroke:#000080;stroke-width:1.5;" x="185.062739" xlink:href="#m8c324e2cdf" y="30.334099"/>
     <use style="fill-opacity:0;stroke:#000080;stroke-width:1.5;" x="338.688" xlink:href="#m8c324e2cdf" y="30.334099"/>
    </g>
   </g>
   <g id="line2d_37">
    <path style="fill:none;stroke:#000080;stroke-linecap:square;stroke-width:1.5;"/>
    <g/>
   </g>
   <g id="line2d_38">
    <defs>
     <path d="M 0 1.5 
C 0.397805 1.5 0.77937 1.341951 1.06066 1.06066 
C 1.341951 0.77937 1.5 0.397805 1.5 0 
C 1.5 -0.397805 1.341951 -0.77937 1.06066 -1.06066 
C 0.77937 -1.341951 0.397805 -1.5 0 -1.5 
C -0.397805 -1.5 -0.77937 -1.341951 -1.06066 -1.06066 
C -1.341951 -0.77937 -1.5 -0.397805 -1.5 0 
C -1.5 0.397805 -1.341951 0.77937 -1.06066 1.06066 
C -0.77937 1.341951 -0.397805 1.5 0 1.5 
z
" id="me4df47e86d" style="stroke:#ff00ff;"/>
    </defs>
    <g>
     <use style="fill:#ff00ff;stroke:#ff00ff;" x="186.695559" xlink:href="#me4df47e86d" y="30.334099"/>
     <use style="fill:#ff00ff;stroke:#ff00ff;" x="186.695559" xlink:href="#me4df47e86d" y="30.334099"/>
    </g>
   </g>
   <g id="line2d_39">
    <path d="M 17.444571 298.944 
L 17.444571 288.410278 
L 89.418828 288.410278 
L 89.418828 287.883592 
L 97.755429 287.883592 
L 97.755429 287.356906 
L 98.771596 287.356906 
L 98.771596 286.83022 
L 98.935347 286.83022 
L 98.935347 286.303534 
L 102.728744 286.303534 
L 102.728744 285.776848 
L 104.114542 285.776848 
L 104.114542 285.250162 
L 104.942325 285.250162 
L 104.942325 284.723476 
L 105.398279 284.723476 
L 105.398279 284.19679 
L 105.621863 284.19679 
L 105.621863 283.670104 
L 106.382575 283.670104 
L 106.382575 283.143418 
L 108.198707 283.143418 
L 108.198707 282.616732 
L 108.389302 282.616732 
L 108.389302 282.090045 
L 108.764355 282.090045 
L 108.764355 281.563359 
L 109.579846 281.563359 
L 109.579846 281.036673 
L 110.358901 281.036673 
L 110.443353 279.983301 
L 110.694282 279.983301 
L 110.694282 278.929929 
L 111.974805 278.929929 
L 111.974805 278.403243 
L 114.751048 278.403243 
L 114.751048 277.876557 
L 115.269727 277.876557 
L 115.269727 277.349871 
L 115.460322 277.349871 
L 115.523393 275.769812 
L 115.648856 275.769812 
L 115.648856 275.243126 
L 116.797786 275.243126 
L 116.797786 274.71644 
L 117.030313 274.71644 
L 117.030313 274.189754 
L 117.429921 274.189754 
L 117.429921 273.663068 
L 117.875678 273.663068 
L 117.875678 273.136382 
L 118.786692 273.136382 
L 118.786692 272.08301 
L 120.286695 272.08301 
L 120.286695 271.029638 
L 122.018385 271.029638 
L 122.061712 269.976266 
L 122.947573 269.976266 
L 122.947573 269.449579 
L 123.633136 269.449579 
L 123.712047 268.396207 
L 124.482119 268.396207 
L 124.482119 267.869521 
L 125.001625 267.869521 
L 125.001625 267.342835 
L 125.434921 267.342835 
L 125.434921 266.816149 
L 126.439646 266.816149 
L 126.439646 266.289463 
L 126.573795 266.289463 
L 126.573795 265.762777 
L 129.175952 265.762777 
L 129.233413 264.709405 
L 129.770048 264.709405 
L 129.770048 264.182719 
L 130.317637 264.182719 
L 130.317637 263.656033 
L 131.26195 263.656033 
L 131.287464 262.60266 
L 132.612604 262.60266 
L 132.683351 261.549288 
L 134.61933 261.549288 
L 134.61933 261.022602 
L 136.757427 261.022602 
L 136.757427 259.96923 
L 144.59393 259.96923 
L 144.59393 259.442544 
L 144.853518 259.442544 
L 144.853518 258.915858 
L 147.13383 258.915858 
L 147.13383 258.389172 
L 147.509976 258.389172 
L 147.509976 257.862486 
L 149.548376 257.862486 
L 149.548376 257.3358 
L 150.059777 257.3358 
L 150.129152 256.282427 
L 152.076134 256.282427 
L 152.130233 254.702369 
L 152.26858 254.702369 
L 152.26858 254.175683 
L 153.01047 254.175683 
L 153.01047 253.648997 
L 153.587744 253.648997 
L 153.587744 253.122311 
L 154.015422 253.122311 
L 154.015422 252.595625 
L 154.533999 252.595625 
L 154.533999 252.068939 
L 155.004911 252.068939 
L 155.004911 251.542253 
L 155.174226 251.542253 
L 155.174226 251.015567 
L 155.425155 251.015567 
L 155.425155 250.488881 
L 155.785523 250.488881 
L 155.785523 249.962195 
L 156.046372 249.962195 
L 156.046372 249.435508 
L 156.49067 249.435508 
L 156.574599 247.85545 
L 157.104709 247.85545 
L 157.104709 247.328764 
L 157.630442 247.328764 
L 157.669802 246.275392 
L 157.854169 246.275392 
L 157.854169 245.748706 
L 158.184468 245.748706 
L 158.184468 245.22202 
L 159.303838 245.22202 
L 159.380382 244.168648 
L 159.577838 244.168648 
L 159.577838 243.641962 
L 159.753159 243.641962 
L 159.753159 243.115275 
L 160.034962 243.115275 
L 160.059466 242.061903 
L 160.346039 242.061903 
L 160.346039 241.535217 
L 160.470846 241.535217 
L 160.470846 241.008531 
L 160.661129 241.008531 
L 160.670589 239.955159 
L 160.839995 239.955159 
L 160.839995 239.428473 
L 161.058716 239.428473 
L 161.155563 238.375101 
L 161.233571 238.375101 
L 161.279295 237.321729 
L 161.573617 237.321729 
L 161.573617 236.795043 
L 161.694428 236.795043 
L 161.761186 235.74167 
L 161.867469 235.74167 
L 161.898347 234.688298 
L 162.082474 234.688298 
L 162.156452 233.634926 
L 162.273306 233.634926 
L 162.273306 233.10824 
L 162.440724 233.10824 
L 162.491916 231.528182 
L 162.653039 231.528182 
L 162.678343 230.47481 
L 162.783387 230.47481 
L 162.783387 229.948123 
L 162.979172 229.948123 
L 163.04945 228.894751 
L 163.17688 228.894751 
L 163.254524 227.841379 
L 163.521581 227.841379 
L 163.597709 226.261321 
L 163.780654 226.261321 
L 163.839898 225.207949 
L 163.89894 225.207949 
L 163.926426 224.154577 
L 164.047627 224.154577 
L 164.098204 222.047832 
L 164.210504 222.047832 
L 164.268307 220.467774 
L 164.486229 220.467774 
L 164.486229 219.941088 
L 164.645079 219.941088 
L 164.645079 219.414402 
L 165.061737 219.414402 
L 165.080107 218.36103 
L 165.335285 218.36103 
L 165.335285 217.834344 
L 165.522458 217.834344 
L 165.522458 217.307658 
L 165.668633 217.307658 
L 165.757166 215.200913 
L 166.299688 215.200913 
L 166.299688 214.674227 
L 166.48362 214.674227 
L 166.48362 214.147541 
L 166.675688 214.147541 
L 166.782596 212.567483 
L 166.964826 212.567483 
L 166.964826 212.040797 
L 167.213542 212.040797 
L 167.265454 210.987425 
L 167.384913 210.987425 
L 167.439526 208.88068 
L 167.615054 208.88068 
L 167.653117 207.827308 
L 167.920379 207.827308 
L 167.920379 207.300622 
L 168.348793 207.300622 
L 168.348793 206.773936 
L 168.530517 206.773936 
L 168.626667 205.720564 
L 168.662588 205.720564 
L 168.662588 205.193878 
L 168.82332 205.193878 
L 168.900184 202.560447 
L 169.241941 202.560447 
L 169.241941 202.033761 
L 169.608314 202.033761 
L 169.608314 201.507075 
L 169.933819 201.507075 
L 169.933819 200.980389 
L 170.280634 200.980389 
L 170.280634 200.453703 
L 170.451489 200.453703 
L 170.497308 198.873645 
L 170.690039 198.873645 
L 170.769719 197.820273 
L 170.875396 197.820273 
L 170.875396 197.293586 
L 171.284097 197.293586 
L 171.345738 194.660156 
L 171.526827 194.660156 
L 171.526827 194.13347 
L 171.696007 194.13347 
L 171.776234 193.080098 
L 171.903338 193.080098 
L 172.004852 191.50004 
L 172.068921 191.50004 
L 172.078757 190.446667 
L 172.198801 190.446667 
L 172.284043 189.393295 
L 172.342255 189.393295 
L 172.453287 187.813237 
L 172.465313 187.813237 
L 172.494143 186.759865 
L 172.599444 186.759865 
L 172.599444 186.233179 
L 172.77512 186.233179 
L 172.8058 185.179807 
L 173.014404 185.179807 
L 173.121251 184.126434 
L 173.135139 184.126434 
L 173.222844 183.073062 
L 173.250449 183.073062 
L 173.360433 180.439632 
L 173.362717 180.439632 
L 173.471997 179.38626 
L 173.474266 179.38626 
L 173.542212 177.806202 
L 173.681799 177.806202 
L 173.708687 176.752829 
L 173.795789 176.752829 
L 173.87137 174.646085 
L 173.933369 174.646085 
L 174.039142 173.066027 
L 174.045731 173.066027 
L 174.15301 170.959282 
L 174.161738 170.959282 
L 174.266139 167.27248 
L 174.287811 167.27248 
L 174.37854 165.692422 
L 174.432321 165.692422 
L 174.466655 164.63905 
L 174.596935 164.63905 
L 174.683956 162.532305 
L 174.736806 162.532305 
L 174.846223 159.372189 
L 174.925749 159.372189 
L 174.992439 157.79213 
L 175.127122 157.79213 
L 175.219758 155.1587 
L 175.258724 155.1587 
L 175.30782 152.52527 
L 175.440098 152.52527 
L 175.478575 151.471897 
L 175.5935 151.471897 
L 175.693692 148.838467 
L 175.75154 148.838467 
L 175.840927 147.785095 
L 175.882484 147.785095 
L 175.977102 146.205037 
L 176.03402 146.205037 
L 176.141459 143.04492 
L 176.15314 143.04492 
L 176.252111 140.41149 
L 176.321636 140.41149 
L 176.417742 136.198001 
L 176.473242 136.198001 
L 176.560915 134.091257 
L 176.608379 134.091257 
L 176.691603 132.511199 
L 176.733067 132.511199 
L 176.841911 128.824396 
L 176.858739 128.824396 
L 176.950079 125.66428 
L 176.977944 125.66428 
L 177.068663 123.030849 
L 177.094497 123.030849 
L 177.202947 120.924105 
L 177.219431 120.924105 
L 177.303441 114.603872 
L 177.352563 114.603872 
L 177.46123 107.230267 
L 177.506309 107.230267 
L 177.599702 104.07015 
L 177.624761 104.07015 
L 177.728195 97.223231 
L 177.756621 97.223231 
L 177.843388 94.589801 
L 177.873391 94.589801 
L 177.922694 93.009743 
L 177.989384 93.009743 
L 178.031372 91.95637 
L 178.120264 91.95637 
L 178.21908 88.796254 
L 178.267417 88.796254 
L 178.370547 87.742882 
L 178.401368 87.742882 
L 178.476478 85.636137 
L 178.580077 85.636137 
L 178.645991 82.476021 
L 178.709976 82.476021 
L 178.817212 78.262532 
L 178.853923 78.262532 
L 178.963594 74.57573 
L 178.981806 74.57573 
L 179.090678 71.415613 
L 179.108757 71.415613 
L 179.207044 70.362241 
L 179.280397 70.362241 
L 179.387427 67.728811 
L 179.395508 67.728811 
L 179.497017 64.568694 
L 179.519494 64.568694 
L 179.623476 61.935264 
L 179.660121 61.935264 
L 179.755358 60.355206 
L 179.793307 60.355206 
L 179.813828 59.301833 
L 179.911369 59.301833 
L 179.992759 56.668403 
L 180.10638 56.668403 
L 180.16678 53.508287 
L 180.228512 53.508287 
L 180.320702 50.874856 
L 180.374256 50.874856 
L 180.423075 48.768112 
L 180.567209 48.768112 
L 180.665144 47.188054 
L 180.729632 47.188054 
L 180.834104 44.554623 
L 182.017637 44.554623 
L 182.017637 44.027937 
L 182.998906 44.027937 
L 182.998906 43.501251 
L 183.31926 43.501251 
L 183.31926 42.974565 
L 183.679399 42.974565 
L 183.679399 42.447879 
L 184.361095 42.447879 
L 184.361095 41.921193 
L 184.659972 41.921193 
L 184.659972 41.394507 
L 184.912642 41.394507 
L 184.912642 40.867821 
L 185.052227 40.867821 
L 185.052227 40.341135 
L 185.184908 40.341135 
L 185.184908 39.814448 
L 185.479229 39.814448 
L 185.479229 39.287762 
L 185.59173 39.287762 
L 185.696756 37.707704 
L 185.746226 37.707704 
L 185.83693 36.127646 
L 186.023567 36.127646 
L 186.124933 35.074274 
L 186.184157 35.074274 
L 186.234449 34.020902 
L 186.305268 34.020902 
L 186.359548 32.967529 
L 186.436338 32.967529 
L 186.507417 31.387471 
L 186.554643 31.387471 
L 186.554643 30.860785 
L 186.695559 30.860785 
L 186.695559 30.334099 
L 338.688 30.334099 
L 338.688 30.334099 
" style="fill:none;stroke:#ff00ff;stroke-linecap:square;stroke-width:1.5;"/>
   </g>
   <g id="line2d_40">
    <defs>
     <path d="M -0 8.485281 
L 5.091169 0 
L 0 -8.485281 
L -5.091169 -0 
z
" id="m623267bee7" style="stroke:#ff00ff;stroke-linejoin:miter;stroke-width:1.5;"/>
    </defs>
    <g>
     <use style="fill-opacity:0;stroke:#ff00ff;stroke-linejoin:miter;stroke-width:1.5;" x="129.770048" xlink:href="#m623267bee7" y="264.182719"/>
     <use style="fill-opacity:0;stroke:#ff00ff;stroke-linejoin:miter;stroke-width:1.5;" x="175.258724" xlink:href="#m623267bee7" y="155.1587"/>
     <use style="fill-opacity:0;stroke:#ff00ff;stroke-linejoin:miter;stroke-width:1.5;" x="186.695559" xlink:href="#m623267bee7" y="30.860785"/>
     <use style="fill-opacity:0;stroke:#ff00ff;stroke-linejoin:miter;stroke-width:1.5;" x="186.695559" xlink:href="#m623267bee7" y="30.334099"/>
     <use style="fill-opacity:0;stroke:#ff00ff;stroke-linejoin:miter;stroke-width:1.5;" x="186.695559" xlink:href="#m623267bee7" y="30.334099"/>
     <use style="fill-opacity:0;stroke:#ff00ff;stroke-linejoin:miter;stroke-width:1.5;" x="338.688" xlink:href="#m623267bee7" y="30.334099"/>
    </g>
   </g>
   <g id="line2d_41">
    <path style="fill:none;stroke:#ff00ff;stroke-linecap:square;stroke-width:1.5;"/>
    <g/>
   </g>
   <g id="line2d_42">
    <defs>
     <path d="M 0 1.5 
C 0.397805 1.5 0.77937 1.341951 1.06066 1.06066 
C 1.341951 0.77937 1.5 0.397805 1.5 0 
C 1.5 -0.397805 1.341951 -0.77937 1.06066 -1.06066 
C 0.77937 -1.341951 0.397805 -1.5 0 -1.5 
C -0.397805 -1.5 -0.77937 -1.341951 -1.06066 -1.06066 
C -1.341951 -0.77937 -1.5 -0.397805 -1.5 0 
C -1.5 0.397805 -1.341951 0.77937 -1.06066 1.06066 
C -0.77937 1.341951 -0.397805 1.5 0 1.5 
z
" id="md48559e269" style="stroke:#ff7500;"/>
    </defs>
    <g>
     <use style="fill:#ff7500;stroke:#ff7500;" x="185.038202" xlink:href="#md48559e269" y="30.334099"/>
     <use style="fill:#ff7500;stroke:#ff7500;" x="185.038202" xlink:href="#md48559e269" y="30.334099"/>
    </g>
   </g>
   <g id="line2d_43">
    <path d="M 17.444571 298.944 
L 17.444571 288.410278 
L 77.884514 288.410278 
L 77.884514 287.883592 
L 96.489848 287.883592 
L 96.489848 287.356906 
L 97.224242 287.356906 
L 97.224242 286.83022 
L 102.464508 286.83022 
L 102.464508 286.303534 
L 103.993014 286.303534 
L 103.993014 284.723476 
L 104.23523 284.723476 
L 104.23523 284.19679 
L 104.826449 284.19679 
L 104.826449 283.143418 
L 107.213174 283.143418 
L 107.213174 282.616732 
L 107.811151 282.616732 
L 107.811151 281.563359 
L 108.764355 281.563359 
L 108.764355 281.036673 
L 108.948899 281.036673 
L 108.948899 280.509987 
L 110.188761 280.509987 
L 110.188761 279.983301 
L 110.358901 279.983301 
L 110.358901 279.456615 
L 112.356423 279.456615 
L 112.356423 278.929929 
L 112.506763 278.929929 
L 112.506763 278.403243 
L 113.453595 278.403243 
L 113.453595 277.876557 
L 113.594805 277.876557 
L 113.594805 277.349871 
L 113.73488 277.349871 
L 113.73488 276.823185 
L 114.080224 276.823185 
L 114.080224 276.296499 
L 115.460322 276.296499 
L 115.460322 275.769812 
L 116.081002 275.769812 
L 116.081002 275.243126 
L 116.323218 275.243126 
L 116.323218 274.71644 
L 117.202696 274.71644 
L 117.202696 273.136382 
L 118.202674 273.136382 
L 118.202674 272.609696 
L 118.942633 272.609696 
L 118.942633 272.08301 
L 119.45259 272.08301 
L 119.45259 271.556324 
L 120.429836 271.556324 
L 120.47729 270.502952 
L 121.355214 270.502952 
L 121.400219 268.922893 
L 122.104932 268.922893 
L 122.104932 268.396207 
L 122.489167 268.396207 
L 122.489167 267.869521 
L 122.740699 267.869521 
L 122.740699 267.342835 
L 123.434283 267.342835 
L 123.434283 266.816149 
L 123.672636 266.816149 
L 123.672636 266.289463 
L 123.868806 266.289463 
L 123.868806 265.762777 
L 125.219619 265.762777 
L 125.219619 265.236091 
L 126.304457 265.236091 
L 126.304457 264.709405 
L 127.642832 264.709405 
L 127.642832 264.182719 
L 128.199452 264.182719 
L 128.199452 263.656033 
L 128.709321 263.656033 
L 128.738855 262.60266 
L 129.376241 262.60266 
L 129.376241 262.075974 
L 129.714332 262.075974 
L 129.742212 261.022602 
L 132.565279 261.022602 
L 132.565279 260.495916 
L 133.032848 260.495916 
L 133.032848 259.96923 
L 138.794909 259.96923 
L 138.794909 259.442544 
L 142.20229 259.442544 
L 142.20229 258.915858 
L 143.014805 258.915858 
L 143.014805 258.389172 
L 144.981877 258.389172 
L 144.981877 257.862486 
L 147.96658 257.862486 
L 147.96658 257.3358 
L 148.554206 257.3358 
L 148.639252 256.282427 
L 150.505862 256.282427 
L 150.556607 254.702369 
L 150.624038 254.702369 
L 150.624038 254.175683 
L 151.485716 254.175683 
L 151.485716 253.648997 
L 152.0141 253.648997 
L 152.0141 252.595625 
L 152.161072 252.595625 
L 152.161072 252.068939 
L 152.959038 252.068939 
L 152.959038 251.542253 
L 153.848404 251.542253 
L 153.848404 251.015567 
L 154.208275 251.015567 
L 154.208275 250.488881 
L 154.46664 250.488881 
L 154.46664 249.962195 
L 154.919633 249.962195 
L 154.985269 248.908822 
L 155.527065 248.908822 
L 155.527065 248.382136 
L 156.058696 248.382136 
L 156.058696 247.85545 
L 156.279062 247.85545 
L 156.279062 247.328764 
L 156.693802 247.328764 
L 156.693802 246.802078 
L 156.964915 246.802078 
L 156.964915 246.275392 
L 157.415209 246.275392 
L 157.415209 245.748706 
L 157.80408 245.748706 
L 157.80408 245.22202 
L 158.003578 245.22202 
L 158.003578 244.695334 
L 158.195371 244.695334 
L 158.238915 243.641962 
L 158.358103 243.641962 
L 158.460386 242.061903 
L 158.487203 242.061903 
L 158.567409 241.008531 
L 158.75841 241.008531 
L 158.75841 240.481845 
L 159.092886 240.481845 
L 159.092886 239.955159 
L 159.262876 239.955159 
L 159.262876 239.428473 
L 159.658204 239.428473 
L 159.658204 238.901787 
L 159.872369 238.901787 
L 159.872369 238.375101 
L 160.162007 238.375101 
L 160.162007 237.848415 
L 160.321935 237.848415 
L 160.321935 236.795043 
L 160.509069 236.795043 
L 160.509069 236.268356 
L 160.698938 236.268356 
L 160.764907 235.214984 
L 160.830627 235.214984 
L 160.914762 233.634926 
L 161.017045 233.634926 
L 161.100288 232.581554 
L 161.206078 232.581554 
L 161.206078 232.054868 
L 161.406689 232.054868 
L 161.474555 231.001496 
L 161.555647 231.001496 
L 161.63189 229.421437 
L 161.681046 229.421437 
L 161.681046 228.894751 
L 161.88953 228.894751 
L 161.973109 227.841379 
L 162.021314 227.841379 
L 162.069386 226.788007 
L 162.156452 226.788007 
L 162.221468 225.207949 
L 162.290551 225.207949 
L 162.324991 224.154577 
L 162.444996 224.154577 
L 162.547205 222.047832 
L 162.636148 222.047832 
L 162.699403 220.467774 
L 162.866969 220.467774 
L 162.90861 219.414402 
L 163.070067 219.414402 
L 163.070067 218.887716 
L 163.404741 218.887716 
L 163.505512 217.307658 
L 163.780654 217.307658 
L 163.780654 216.780971 
L 164.094319 216.780971 
L 164.183463 215.200913 
L 164.314412 215.200913 
L 164.314412 214.674227 
L 164.910363 214.674227 
L 164.910363 214.147541 
L 165.10946 214.147541 
L 165.208163 213.094169 
L 165.389484 213.094169 
L 165.389484 212.567483 
L 165.640207 212.567483 
L 165.689922 211.514111 
L 165.810071 211.514111 
L 165.862816 209.407366 
L 166.03749 209.407366 
L 166.075685 208.353994 
L 166.374858 208.353994 
L 166.374858 207.827308 
L 166.551253 207.827308 
L 166.551253 207.300622 
L 166.772601 207.300622 
L 166.772601 206.773936 
L 167.06015 206.773936 
L 167.167992 205.720564 
L 167.239518 205.720564 
L 167.288118 203.087133 
L 167.449146 203.087133 
L 167.449146 202.560447 
L 167.722684 202.560447 
L 167.807685 201.507075 
L 167.954668 201.507075 
L 167.954668 200.980389 
L 168.128195 200.980389 
L 168.128195 200.453703 
L 168.357924 200.453703 
L 168.357924 199.927017 
L 168.488284 199.927017 
L 168.488284 199.400331 
L 168.674545 199.400331 
L 168.707384 198.346959 
L 168.849965 198.346959 
L 168.923766 196.7669 
L 169.302579 196.7669 
L 169.337135 195.713528 
L 169.709984 195.713528 
L 169.76902 194.13347 
L 169.936599 194.13347 
L 170.02532 192.026726 
L 170.201421 192.026726 
L 170.25063 190.973354 
L 170.427184 190.973354 
L 170.427184 190.446667 
L 170.88856 190.446667 
L 170.917488 189.393295 
L 171.198983 189.393295 
L 171.289242 187.813237 
L 171.332914 187.813237 
L 171.437793 186.233179 
L 171.547114 186.233179 
L 171.648197 185.179807 
L 171.696007 185.179807 
L 171.763723 184.126434 
L 171.898371 184.126434 
L 171.947978 182.546376 
L 172.108232 182.546376 
L 172.157246 181.493004 
L 172.225636 181.493004 
L 172.296186 179.38626 
L 172.462909 179.38626 
L 172.527716 177.806202 
L 172.577957 177.806202 
L 172.637578 176.752829 
L 172.713597 176.752829 
L 172.803442 175.699457 
L 172.862299 175.699457 
L 172.958396 173.066027 
L 172.97942 173.066027 
L 173.08184 170.432596 
L 173.105034 170.432596 
L 173.213633 168.325852 
L 173.229749 168.325852 
L 173.339863 165.692422 
L 173.349008 165.692422 
L 173.383259 163.585677 
L 173.544472 163.585677 
L 173.645883 160.425561 
L 173.66385 160.425561 
L 173.731062 157.79213 
L 173.858056 157.79213 
L 173.968698 156.212072 
L 173.979723 156.212072 
L 174.080834 151.998584 
L 174.118053 151.998584 
L 174.122426 150.945211 
L 174.263971 150.945211 
L 174.352665 148.838467 
L 174.470942 148.838467 
L 174.577774 143.571606 
L 174.635193 143.571606 
L 174.715685 141.991548 
L 174.829434 141.991548 
L 174.888124 138.831432 
L 174.969543 138.831432 
L 175.073373 134.091257 
L 175.098201 134.091257 
L 175.199215 129.877768 
L 175.215651 129.877768 
L 175.283289 127.244338 
L 175.332316 127.244338 
L 175.436043 122.504163 
L 175.448206 122.504163 
L 175.545203 119.870733 
L 175.583449 119.870733 
L 175.669698 115.130558 
L 175.699685 115.130558 
L 175.809197 111.443755 
L 175.827052 111.443755 
L 175.929857 107.756953 
L 175.94562 107.756953 
L 176.049688 104.07015 
L 176.067299 104.07015 
L 176.15314 98.803289 
L 176.182307 98.803289 
L 176.255981 97.223231 
L 176.323564 97.223231 
L 176.348599 95.116487 
L 176.503787 95.116487 
L 176.608379 91.95637 
L 176.670834 91.95637 
L 176.759402 89.849626 
L 176.813826 89.849626 
L 176.905401 86.162824 
L 177.003912 86.162824 
L 177.07051 81.422649 
L 177.122133 81.422649 
L 177.190115 78.262532 
L 177.241386 78.262532 
L 177.327109 74.049044 
L 177.370721 74.049044 
L 177.46123 70.362241 
L 177.579988 70.362241 
L 177.690816 68.255497 
L 177.795631 68.255497 
L 177.887492 61.935264 
L 177.922694 61.935264 
L 178.017387 59.82852 
L 178.10287 59.82852 
L 178.210434 58.248461 
L 178.234632 58.248461 
L 178.312182 56.668403 
L 178.363691 56.668403 
L 178.44579 55.088345 
L 178.5326 55.088345 
L 178.608839 52.454914 
L 178.725096 52.454914 
L 178.823893 48.768112 
L 178.847254 48.768112 
L 178.847254 47.71474 
L 178.980151 47.71474 
L 179.089033 46.134681 
L 179.159608 46.134681 
L 179.262495 42.974565 
L 181.423685 42.974565 
L 181.423685 42.447879 
L 181.967512 42.447879 
L 181.967512 41.921193 
L 182.103627 41.921193 
L 182.189195 40.867821 
L 182.463749 40.867821 
L 182.463749 40.341135 
L 182.92383 40.341135 
L 182.92383 39.814448 
L 183.085434 39.814448 
L 183.085434 39.287762 
L 183.206636 39.287762 
L 183.206636 38.761076 
L 183.337316 38.761076 
L 183.337316 38.23439 
L 183.60974 38.23439 
L 183.60974 37.707704 
L 183.743743 37.707704 
L 183.743743 37.181018 
L 184.080492 37.181018 
L 184.12244 36.127646 
L 184.209713 36.127646 
L 184.261135 34.547588 
L 184.327027 34.547588 
L 184.327027 34.020902 
L 184.448394 34.020902 
L 184.478605 32.967529 
L 184.564118 32.967529 
L 184.609714 31.914157 
L 184.86547 31.914157 
L 184.899683 30.860785 
L 185.038202 30.860785 
L 185.038202 30.334099 
L 338.688 30.334099 
L 338.688 30.334099 
" style="fill:none;stroke:#ff7500;stroke-linecap:square;stroke-width:1.5;"/>
   </g>
   <g id="line2d_44">
    <defs>
     <path d="M 0 -6 
L -1.347084 -1.854102 
L -5.706339 -1.854102 
L -2.179628 0.708204 
L -3.526712 4.854102 
L -0 2.291796 
L 3.526712 4.854102 
L 2.179628 0.708204 
L 5.706339 -1.854102 
L 1.347084 -1.854102 
z
" id="m916531b5b9" style="stroke:#ff7500;stroke-linejoin:bevel;stroke-width:1.5;"/>
    </defs>
    <g>
     <use style="fill-opacity:0;stroke:#ff7500;stroke-linejoin:bevel;stroke-width:1.5;" x="164.094319" xlink:href="#m916531b5b9" y="216.780971"/>
     <use style="fill-opacity:0;stroke:#ff7500;stroke-linejoin:bevel;stroke-width:1.5;" x="178.363691" xlink:href="#m916531b5b9" y="56.141717"/>
     <use style="fill-opacity:0;stroke:#ff7500;stroke-linejoin:bevel;stroke-width:1.5;" x="185.038202" xlink:href="#m916531b5b9" y="30.334099"/>
     <use style="fill-opacity:0;stroke:#ff7500;stroke-linejoin:bevel;stroke-width:1.5;" x="185.038202" xlink:href="#m916531b5b9" y="30.334099"/>
     <use style="fill-opacity:0;stroke:#ff7500;stroke-linejoin:bevel;stroke-width:1.5;" x="338.688" xlink:href="#m916531b5b9" y="30.334099"/>
    </g>
   </g>
   <g id="line2d_45">
    <path style="fill:none;stroke:#ff7500;stroke-linecap:square;stroke-width:1.5;"/>
    <g/>
   </g>
   <g id="line2d_46">
    <defs>
     <path d="M 0 1.5 
C 0.397805 1.5 0.77937 1.341951 1.06066 1.06066 
C 1.341951 0.77937 1.5 0.397805 1.5 0 
C 1.5 -0.397805 1.341951 -0.77937 1.06066 -1.06066 
C 0.77937 -1.341951 0.397805 -1.5 0 -1.5 
C -0.397805 -1.5 -0.77937 -1.341951 -1.06066 -1.06066 
C -1.341951 -0.77937 -1.5 -0.397805 -1.5 0 
C -1.5 0.397805 -1.341951 0.77937 -1.06066 1.06066 
C -0.77937 1.341951 -0.397805 1.5 0 1.5 
z
" id="m12d37e561e" style="stroke:#6495ed;"/>
    </defs>
    <g>
     <use style="fill:#6495ed;stroke:#6495ed;" x="180.610971" xlink:href="#m12d37e561e" y="30.334099"/>
     <use style="fill:#6495ed;stroke:#6495ed;" x="180.610971" xlink:href="#m12d37e561e" y="30.334099"/>
    </g>
   </g>
   <g id="line2d_47">
    <path d="M 17.444571 298.944 
L 17.444571 288.410278 
L 89.135256 288.410278 
L 89.135256 287.883592 
L 89.697862 287.883592 
L 89.697862 287.356906 
L 99.575392 287.356906 
L 99.575392 286.83022 
L 101.079711 286.83022 
L 101.079711 286.303534 
L 101.506816 286.303534 
L 101.506816 285.776848 
L 102.464508 285.776848 
L 102.464508 285.250162 
L 104.23523 285.250162 
L 104.23523 284.19679 
L 104.942325 284.19679 
L 104.942325 283.670104 
L 105.951954 283.670104 
L 106.06061 282.090045 
L 106.275913 282.090045 
L 106.275913 281.563359 
L 106.698704 281.563359 
L 106.698704 281.036673 
L 107.111487 281.036673 
L 107.111487 279.983301 
L 107.614095 279.983301 
L 107.614095 279.456615 
L 109.930396 279.456615 
L 109.930396 278.403243 
L 111.584648 278.403243 
L 111.584648 277.876557 
L 112.128456 277.876557 
L 112.128456 277.349871 
L 113.453595 277.349871 
L 113.453595 276.823185 
L 113.804498 276.823185 
L 113.804498 276.296499 
L 114.216469 276.296499 
L 114.216469 275.769812 
L 114.485807 275.769812 
L 114.485807 275.243126 
L 115.205729 275.243126 
L 115.205729 274.71644 
L 115.33349 274.71644 
L 115.33349 274.189754 
L 115.897107 274.189754 
L 115.897107 273.663068 
L 116.323218 273.663068 
L 116.38325 272.609696 
L 118.202674 272.609696 
L 118.202674 272.08301 
L 118.523652 272.08301 
L 118.629344 271.029638 
L 118.734401 271.029638 
L 118.734401 270.502952 
L 118.942633 270.502952 
L 118.942633 269.976266 
L 119.199476 269.976266 
L 119.199476 269.449579 
L 119.65247 269.449579 
L 119.65247 268.922893 
L 121.219499 268.922893 
L 121.219499 268.396207 
L 122.573415 268.396207 
L 122.573415 267.869521 
L 122.947573 267.869521 
L 122.947573 267.342835 
L 126.065325 267.342835 
L 126.065325 266.816149 
L 128.168991 266.816149 
L 128.168991 266.289463 
L 129.06046 266.289463 
L 129.06046 265.762777 
L 129.79784 265.762777 
L 129.79784 265.236091 
L 131.133813 265.236091 
L 131.210808 263.656033 
L 133.307488 263.656033 
L 133.307488 263.129347 
L 134.257551 263.129347 
L 134.257551 262.60266 
L 134.682402 262.60266 
L 134.682402 262.075974 
L 135.300881 262.075974 
L 135.300881 261.549288 
L 137.415591 261.549288 
L 137.415591 261.022602 
L 138.067109 261.022602 
L 138.067109 260.495916 
L 141.104941 260.495916 
L 141.104941 259.96923 
L 144.038338 259.96923 
L 144.038338 259.442544 
L 145.564956 259.442544 
L 145.564956 258.915858 
L 145.688202 258.915858 
L 145.688202 258.389172 
L 148.554206 258.389172 
L 148.554206 257.862486 
L 149.214124 257.862486 
L 149.214124 257.3358 
L 151.692666 257.3358 
L 151.692666 256.809114 
L 151.998557 256.809114 
L 151.998557 256.282427 
L 152.122515 256.282427 
L 152.122515 255.755741 
L 152.291531 255.755741 
L 152.291531 255.229055 
L 152.721966 255.229055 
L 152.721966 254.702369 
L 153.330332 254.702369 
L 153.330332 254.175683 
L 153.70094 254.175683 
L 153.70094 253.648997 
L 153.883332 253.648997 
L 153.883332 253.122311 
L 154.112115 253.122311 
L 154.201424 252.068939 
L 154.378682 252.068939 
L 154.385464 251.015567 
L 154.513818 251.015567 
L 154.580996 249.962195 
L 154.833936 249.962195 
L 154.833936 249.435508 
L 155.590458 249.435508 
L 155.590458 248.908822 
L 155.747938 248.908822 
L 155.760475 247.85545 
L 155.86668 247.85545 
L 155.86668 247.328764 
L 156.071012 247.328764 
L 156.071012 246.802078 
L 156.520691 246.802078 
L 156.598505 245.22202 
L 156.687861 245.22202 
L 156.687861 244.695334 
L 157.093102 244.695334 
L 157.174189 243.115275 
L 157.226117 243.115275 
L 157.226117 242.588589 
L 157.432298 242.588589 
L 157.477787 241.535217 
L 157.815223 241.535217 
L 157.870833 240.481845 
L 158.255216 240.481845 
L 158.363501 238.901787 
L 158.487203 238.901787 
L 158.487203 238.375101 
L 158.663171 238.375101 
L 158.663171 237.321729 
L 158.790041 237.321729 
L 158.790041 236.795043 
L 158.92645 236.795043 
L 159.004665 235.74167 
L 159.129083 235.74167 
L 159.129083 235.214984 
L 159.308951 235.214984 
L 159.319173 234.161612 
L 159.597964 234.161612 
L 159.597964 233.634926 
L 160.542446 233.634926 
L 160.542446 233.10824 
L 160.661129 233.10824 
L 160.661129 232.581554 
L 160.886762 232.581554 
L 160.886762 232.054868 
L 161.030947 232.054868 
L 161.104901 231.001496 
L 161.663187 231.001496 
L 161.663187 230.47481 
L 161.840959 230.47481 
L 161.840959 229.948123 
L 162.047552 229.948123 
L 162.091193 228.894751 
L 162.342185 228.894751 
L 162.342185 228.368065 
L 162.50469 228.368065 
L 162.50469 227.841379 
L 162.758234 227.841379 
L 162.829407 226.261321 
L 163.0577 226.261321 
L 163.0577 225.734635 
L 163.376421 225.734635 
L 163.376421 225.207949 
L 163.553675 225.207949 
L 163.601707 224.154577 
L 163.701348 224.154577 
L 163.701348 223.627891 
L 163.90287 223.627891 
L 163.957784 222.047832 
L 164.233648 222.047832 
L 164.233648 221.521146 
L 164.65637 221.521146 
L 164.682688 220.467774 
L 164.780093 220.467774 
L 164.791297 219.414402 
L 164.951104 219.414402 
L 165.054383 217.307658 
L 165.105794 217.307658 
L 165.189927 216.254285 
L 165.309935 216.254285 
L 165.309935 215.727599 
L 165.461488 215.727599 
L 165.461488 215.200913 
L 165.654426 215.200913 
L 165.700557 214.147541 
L 165.778348 214.147541 
L 165.778348 213.620855 
L 165.981785 213.620855 
L 166.058334 212.567483 
L 166.158729 212.567483 
L 166.158729 212.040797 
L 166.299688 212.040797 
L 166.391896 210.460738 
L 166.446309 210.460738 
L 166.463278 209.407366 
L 166.621987 209.407366 
L 166.665632 207.827308 
L 166.782596 207.827308 
L 166.832484 206.24725 
L 166.941739 206.24725 
L 167.047033 204.140506 
L 167.063428 204.140506 
L 167.096171 203.087133 
L 167.320442 203.087133 
L 167.320442 202.560447 
L 167.439526 202.560447 
L 167.471572 200.453703 
L 167.615054 200.453703 
L 167.624577 199.400331 
L 167.804544 199.400331 
L 167.911015 197.293586 
L 167.985782 197.293586 
L 168.081883 196.240214 
L 168.137442 196.240214 
L 168.149765 194.660156 
L 168.266395 194.660156 
L 168.266395 194.13347 
L 168.439892 194.13347 
L 168.515445 192.026726 
L 168.599679 192.026726 
L 168.599679 191.50004 
L 168.746115 191.50004 
L 168.826282 189.919981 
L 168.879523 189.919981 
L 168.970836 187.286551 
L 169.006055 187.286551 
L 169.070439 185.179807 
L 169.16076 185.179807 
L 169.250616 183.599748 
L 169.276617 183.599748 
L 169.368752 180.966318 
L 169.406043 180.966318 
L 169.514592 177.806202 
L 169.602648 177.806202 
L 169.701534 176.226143 
L 169.752173 176.226143 
L 169.84463 172.539341 
L 169.864179 172.539341 
L 169.947714 170.432596 
L 170.011487 170.432596 
L 170.039142 168.852538 
L 170.176764 168.852538 
L 170.258818 166.219108 
L 170.307866 166.219108 
L 170.364915 164.112363 
L 170.475761 164.112363 
L 170.56447 160.952247 
L 170.591263 160.952247 
L 170.591263 160.425561 
L 170.73258 160.425561 
L 170.796198 158.845503 
L 170.875396 158.845503 
L 170.980436 155.685386 
L 170.996138 155.685386 
L 171.105655 153.051956 
L 171.154974 153.051956 
L 171.253194 148.311781 
L 171.273802 148.311781 
L 171.335479 146.731723 
L 171.407162 146.731723 
L 171.503976 141.991548 
L 171.521752 141.991548 
L 171.622982 139.358118 
L 171.67086 139.358118 
L 171.773733 134.617943 
L 171.798732 134.617943 
L 171.873514 133.037885 
L 171.967781 133.037885 
L 172.061541 130.93114 
L 172.110686 130.93114 
L 172.203683 127.244338 
L 172.242691 127.244338 
L 172.334989 124.610907 
L 172.42439 124.610907 
L 172.534903 119.870733 
L 172.544479 119.870733 
L 172.651857 114.077186 
L 172.668501 114.077186 
L 172.758578 111.970441 
L 172.789287 111.970441 
L 172.848191 109.337011 
L 172.97942 109.337011 
L 173.077198 105.650209 
L 173.105034 105.650209 
L 173.204416 99.856662 
L 173.24815 99.856662 
L 173.335289 96.696545 
L 173.383259 96.696545 
L 173.487877 92.483056 
L 173.528644 92.483056 
L 173.605389 90.376312 
L 173.64813 90.376312 
L 173.757875 88.796254 
L 173.802471 88.796254 
L 173.906825 85.636137 
L 173.915677 85.636137 
L 174.003955 83.002707 
L 174.089598 83.002707 
L 174.198785 78.789218 
L 174.218366 78.789218 
L 174.307293 73.522358 
L 174.382848 73.522358 
L 174.492361 69.835555 
L 174.500921 69.835555 
L 174.564989 66.148752 
L 174.677604 66.148752 
L 174.785287 62.46195 
L 174.808425 62.46195 
L 174.8944 59.301833 
L 174.923661 59.301833 
L 174.988278 56.668403 
L 175.089929 56.668403 
L 175.172472 54.561659 
L 175.227969 54.561659 
L 175.295559 53.508287 
L 175.413723 53.508287 
L 175.482621 51.928228 
L 175.573393 51.928228 
L 175.679699 49.821484 
L 175.701682 49.821484 
L 175.735601 48.768112 
L 175.860728 48.768112 
L 175.957432 47.188054 
L 176.073165 47.188054 
L 176.1473 46.134681 
L 176.188135 46.134681 
L 176.188135 45.607995 
L 176.327418 45.607995 
L 176.43307 44.027937 
L 176.614066 44.027937 
L 176.708578 42.974565 
L 176.738714 42.974565 
L 176.80258 41.394507 
L 177.184613 41.394507 
L 177.184613 40.867821 
L 177.464841 40.867821 
L 177.464841 40.341135 
L 177.838089 40.341135 
L 177.838089 39.814448 
L 178.356832 39.814448 
L 178.356832 39.287762 
L 178.522409 39.287762 
L 178.522409 38.761076 
L 178.810529 38.761076 
L 178.912168 37.707704 
L 179.018172 37.707704 
L 179.084099 36.654332 
L 179.296656 36.654332 
L 179.296656 36.127646 
L 179.62826 36.127646 
L 179.62826 35.60096 
L 179.777505 35.60096 
L 179.809095 34.547588 
L 180.027079 34.547588 
L 180.065997 33.494215 
L 180.214641 33.494215 
L 180.214641 32.967529 
L 180.342143 32.967529 
L 180.342143 32.440843 
L 180.464161 32.440843 
L 180.55058 31.387471 
L 180.577782 31.387471 
L 180.610971 30.334099 
L 338.688 30.334099 
L 338.688 30.334099 
" style="fill:none;stroke:#6495ed;stroke-linecap:square;stroke-width:1.5;"/>
   </g>
   <g id="line2d_48">
    <defs>
     <path d="M -0 6 
L 6 -6 
L -6 -6 
z
" id="med6176c49c" style="stroke:#6495ed;stroke-linejoin:miter;stroke-width:1.5;"/>
    </defs>
    <g>
     <use style="fill-opacity:0;stroke:#6495ed;stroke-linejoin:miter;stroke-width:1.5;" x="122.947573" xlink:href="#med6176c49c" y="267.342835"/>
     <use style="fill-opacity:0;stroke:#6495ed;stroke-linejoin:miter;stroke-width:1.5;" x="173.465187" xlink:href="#med6176c49c" y="93.536429"/>
     <use style="fill-opacity:0;stroke:#6495ed;stroke-linejoin:miter;stroke-width:1.5;" x="180.610971" xlink:href="#med6176c49c" y="30.860785"/>
     <use style="fill-opacity:0;stroke:#6495ed;stroke-linejoin:miter;stroke-width:1.5;" x="180.610971" xlink:href="#med6176c49c" y="30.334099"/>
     <use style="fill-opacity:0;stroke:#6495ed;stroke-linejoin:miter;stroke-width:1.5;" x="180.610971" xlink:href="#med6176c49c" y="30.334099"/>
     <use style="fill-opacity:0;stroke:#6495ed;stroke-linejoin:miter;stroke-width:1.5;" x="338.688" xlink:href="#med6176c49c" y="30.334099"/>
    </g>
   </g>
   <g id="line2d_49">
    <path style="fill:none;stroke:#6495ed;stroke-linecap:square;stroke-width:1.5;"/>
    <g/>
   </g>
   <g id="line2d_50">
    <path d="M 338.688 30.334099 
L 369.60768 293.571802 
" style="fill:none;stroke:#ff00ff;stroke-linecap:square;stroke-width:1.5;"/>
    <g>
     <use style="fill-opacity:0;stroke:#ff00ff;stroke-linejoin:miter;stroke-width:1.5;" x="338.688" xlink:href="#m623267bee7" y="30.334099"/>
     <use style="fill-opacity:0;stroke:#ff00ff;stroke-linejoin:miter;stroke-width:1.5;" x="369.60768" xlink:href="#m623267bee7" y="293.571802"/>
    </g>
   </g>
   <g id="line2d_51">
    <path d="M 338.688 30.334099 
L 369.60768 229.105426 
" style="fill:none;stroke:#000080;stroke-linecap:square;stroke-width:1.5;"/>
    <g>
     <use style="fill-opacity:0;stroke:#000080;stroke-width:1.5;" x="338.688" xlink:href="#m8c324e2cdf" y="30.334099"/>
     <use style="fill-opacity:0;stroke:#000080;stroke-width:1.5;" x="369.60768" xlink:href="#m8c324e2cdf" y="229.105426"/>
    </g>
   </g>
   <g id="line2d_52">
    <path d="M 338.688 30.334099 
L 369.60768 164.63905 
" style="fill:none;stroke:#ff7500;stroke-linecap:square;stroke-width:1.5;"/>
    <g>
     <use style="fill-opacity:0;stroke:#ff7500;stroke-linejoin:bevel;stroke-width:1.5;" x="338.688" xlink:href="#m916531b5b9" y="30.334099"/>
     <use style="fill-opacity:0;stroke:#ff7500;stroke-linejoin:bevel;stroke-width:1.5;" x="369.60768" xlink:href="#m916531b5b9" y="164.63905"/>
    </g>
   </g>
   <g id="line2d_53">
    <path d="M 338.688 30.334099 
L 369.60768 100.172673 
" style="fill:none;stroke:#6495ed;stroke-linecap:square;stroke-width:1.5;"/>
    <g>
     <use style="fill-opacity:0;stroke:#6495ed;stroke-linejoin:miter;stroke-width:1.5;" x="338.688" xlink:href="#med6176c49c" y="30.334099"/>
     <use style="fill-opacity:0;stroke:#6495ed;stroke-linejoin:miter;stroke-width:1.5;" x="369.60768" xlink:href="#med6176c49c" y="100.172673"/>
    </g>
   </g>
   <g id="line2d_54">
    <path d="M 338.688 298.944 
L 338.688 30.334099 
" style="fill:none;stroke:#000000;stroke-linecap:square;stroke-width:1.5;"/>
   </g>
   <g id="patch_3">
    <path d="M 57.6 298.944 
L 57.6 27.648 
" style="fill:none;stroke:#000000;stroke-linecap:square;stroke-linejoin:miter;stroke-width:0.8;"/>
   </g>
   <g id="patch_4">
    <path d="M 338.688 298.944 
L 338.688 27.648 
" style="fill:none;stroke:#000000;stroke-linecap:square;stroke-linejoin:miter;stroke-width:0.8;"/>
   </g>
   <g id="patch_5">
    <path d="M 57.6 298.944 
L 338.688 298.944 
" style="fill:none;stroke:#000000;stroke-linecap:square;stroke-linejoin:miter;stroke-width:0.8;"/>
   </g>
   <g id="patch_6">
    <path d="M 57.6 27.648 
L 338.688 27.648 
" style="fill:none;stroke:#000000;stroke-linecap:square;stroke-linejoin:miter;stroke-width:0.8;"/>
   </g>
   <g id="text_13">
    <!-- maes mid -->
    <g transform="translate(375.22944 298.262739)scale(0.17 -0.17)">
     <use xlink:href="#DejaVuSans-109"/>
     <use x="97.412109" xlink:href="#DejaVuSans-97"/>
     <use x="158.691406" xlink:href="#DejaVuSans-101"/>
     <use x="220.214844" xlink:href="#DejaVuSans-115"/>
     <use x="272.314453" xlink:href="#DejaVuSans-32"/>
     <use x="304.101562" xlink:href="#DejaVuSans-109"/>
     <use x="401.513672" xlink:href="#DejaVuSans-105"/>
     <use x="429.296875" xlink:href="#DejaVuSans-100"/>
    </g>
   </g>
   <g id="text_14">
    <!-- maes -->
    <g transform="translate(375.22944 233.796363)scale(0.17 -0.17)">
     <use xlink:href="#DejaVuSans-109"/>
     <use x="97.412109" xlink:href="#DejaVuSans-97"/>
     <use x="158.691406" xlink:href="#DejaVuSans-101"/>
     <use x="220.214844" xlink:href="#DejaVuSans-115"/>
    </g>
   </g>
   <g id="text_15">
    <!-- maes stp -->
    <g transform="translate(375.22944 169.329987)scale(0.17 -0.17)">
     <use xlink:href="#DejaVuSans-109"/>
     <use x="97.412109" xlink:href="#DejaVuSans-97"/>
     <use x="158.691406" xlink:href="#DejaVuSans-101"/>
     <use x="220.214844" xlink:href="#DejaVuSans-115"/>
     <use x="272.314453" xlink:href="#DejaVuSans-32"/>
     <use x="304.101562" xlink:href="#DejaVuSans-115"/>
     <use x="356.201172" xlink:href="#DejaVuSans-116"/>
     <use x="395.410156" xlink:href="#DejaVuSans-112"/>
    </g>
   </g>
   <g id="text_16">
    <!-- maes red -->
    <g transform="translate(375.22944 104.863611)scale(0.17 -0.17)">
     <use xlink:href="#DejaVuSans-109"/>
     <use x="97.412109" xlink:href="#DejaVuSans-97"/>
     <use x="158.691406" xlink:href="#DejaVuSans-101"/>
     <use x="220.214844" xlink:href="#DejaVuSans-115"/>
     <use x="272.314453" xlink:href="#DejaVuSans-32"/>
     <use x="304.101562" xlink:href="#DejaVuSans-114"/>
     <use x="342.964844" xlink:href="#DejaVuSans-101"/>
     <use x="404.488281" xlink:href="#DejaVuSans-100"/>
    </g>
   </g>
   <g id="text_17">
    <!-- best 2009 -->
    <g transform="translate(375.22944 40.397235)scale(0.17 -0.17)">
     <defs>
      <path d="M 48.6875 27.296875 
Q 48.6875 37.203125 44.609375 42.84375 
Q 40.53125 48.484375 33.40625 48.484375 
Q 26.265625 48.484375 22.1875 42.84375 
Q 18.109375 37.203125 18.109375 27.296875 
Q 18.109375 17.390625 22.1875 11.75 
Q 26.265625 6.109375 33.40625 6.109375 
Q 40.53125 6.109375 44.609375 11.75 
Q 48.6875 17.390625 48.6875 27.296875 
z
M 18.109375 46.390625 
Q 20.953125 51.265625 25.265625 53.625 
Q 29.59375 56 35.59375 56 
Q 45.5625 56 51.78125 48.09375 
Q 58.015625 40.1875 58.015625 27.296875 
Q 58.015625 14.40625 51.78125 6.484375 
Q 45.5625 -1.421875 35.59375 -1.421875 
Q 29.59375 -1.421875 25.265625 0.953125 
Q 20.953125 3.328125 18.109375 8.203125 
L 18.109375 0 
L 9.078125 0 
L 9.078125 75.984375 
L 18.109375 75.984375 
z
" id="DejaVuSans-98"/>
      <path d="M 10.984375 1.515625 
L 10.984375 10.5 
Q 14.703125 8.734375 18.5 7.8125 
Q 22.3125 6.890625 25.984375 6.890625 
Q 35.75 6.890625 40.890625 13.453125 
Q 46.046875 20.015625 46.78125 33.40625 
Q 43.953125 29.203125 39.59375 26.953125 
Q 35.25 24.703125 29.984375 24.703125 
Q 19.046875 24.703125 12.671875 31.3125 
Q 6.296875 37.9375 6.296875 49.421875 
Q 6.296875 60.640625 12.9375 67.421875 
Q 19.578125 74.21875 30.609375 74.21875 
Q 43.265625 74.21875 49.921875 64.515625 
Q 56.59375 54.828125 56.59375 36.375 
Q 56.59375 19.140625 48.40625 8.859375 
Q 40.234375 -1.421875 26.421875 -1.421875 
Q 22.703125 -1.421875 18.890625 -0.6875 
Q 15.09375 0.046875 10.984375 1.515625 
z
M 30.609375 32.421875 
Q 37.25 32.421875 41.125 36.953125 
Q 45.015625 41.5 45.015625 49.421875 
Q 45.015625 57.28125 41.125 61.84375 
Q 37.25 66.40625 30.609375 66.40625 
Q 23.96875 66.40625 20.09375 61.84375 
Q 16.21875 57.28125 16.21875 49.421875 
Q 16.21875 41.5 20.09375 36.953125 
Q 23.96875 32.421875 30.609375 32.421875 
z
" id="DejaVuSans-57"/>
     </defs>
     <use xlink:href="#DejaVuSans-98"/>
     <use x="63.476562" xlink:href="#DejaVuSans-101"/>
     <use x="125" xlink:href="#DejaVuSans-115"/>
     <use x="177.099609" xlink:href="#DejaVuSans-116"/>
     <use x="216.308594" xlink:href="#DejaVuSans-32"/>
     <use x="248.095703" xlink:href="#DejaVuSans-50"/>
     <use x="311.71875" xlink:href="#DejaVuSans-48"/>
     <use x="375.341797" xlink:href="#DejaVuSans-48"/>
     <use x="438.964844" xlink:href="#DejaVuSans-57"/>
    </g>
   </g>
   <g id="text_18">
    <!-- bbob f9, 10-D -->
    <g transform="translate(60.41088 38.111366)scale(0.102 -0.102)">
     <defs>
      <path d="M 19.671875 64.796875 
L 19.671875 8.109375 
L 31.59375 8.109375 
Q 46.6875 8.109375 53.6875 14.9375 
Q 60.6875 21.78125 60.6875 36.53125 
Q 60.6875 51.171875 53.6875 57.984375 
Q 46.6875 64.796875 31.59375 64.796875 
z
M 9.8125 72.90625 
L 30.078125 72.90625 
Q 51.265625 72.90625 61.171875 64.09375 
Q 71.09375 55.28125 71.09375 36.53125 
Q 71.09375 17.671875 61.125 8.828125 
Q 51.171875 0 30.078125 0 
L 9.8125 0 
z
" id="DejaVuSans-68"/>
     </defs>
     <use xlink:href="#DejaVuSans-98"/>
     <use x="63.476562" xlink:href="#DejaVuSans-98"/>
     <use x="126.953125" xlink:href="#DejaVuSans-111"/>
     <use x="188.134766" xlink:href="#DejaVuSans-98"/>
     <use x="251.611328" xlink:href="#DejaVuSans-32"/>
     <use x="283.398438" xlink:href="#DejaVuSans-102"/>
     <use x="318.603516" xlink:href="#DejaVuSans-57"/>
     <use x="382.226562" xlink:href="#DejaVuSans-44"/>
     <use x="414.013672" xlink:href="#DejaVuSans-32"/>
     <use x="445.800781" xlink:href="#DejaVuSans-49"/>
     <use x="509.423828" xlink:href="#DejaVuSans-48"/>
     <use x="573.046875" xlink:href="#DejaVuSans-45"/>
     <use x="609.130859" xlink:href="#DejaVuSans-68"/>
    </g>
    <!-- 51 targets: 100..1e-08 -->
    <g transform="translate(60.41088 49.533135)scale(0.102 -0.102)">
     <defs>
      <path d="M 10.796875 72.90625 
L 49.515625 72.90625 
L 49.515625 64.59375 
L 19.828125 64.59375 
L 19.828125 46.734375 
Q 21.96875 47.46875 24.109375 47.828125 
Q 26.265625 48.1875 28.421875 48.1875 
Q 40.625 48.1875 47.75 41.5 
Q 54.890625 34.8125 54.890625 23.390625 
Q 54.890625 11.625 47.5625 5.09375 
Q 40.234375 -1.421875 26.90625 -1.421875 
Q 22.3125 -1.421875 17.546875 -0.640625 
Q 12.796875 0.140625 7.71875 1.703125 
L 7.71875 11.625 
Q 12.109375 9.234375 16.796875 8.0625 
Q 21.484375 6.890625 26.703125 6.890625 
Q 35.15625 6.890625 40.078125 11.328125 
Q 45.015625 15.765625 45.015625 23.390625 
Q 45.015625 31 40.078125 35.4375 
Q 35.15625 39.890625 26.703125 39.890625 
Q 22.75 39.890625 18.8125 39.015625 
Q 14.890625 38.140625 10.796875 36.28125 
z
" id="DejaVuSans-53"/>
      <path d="M 11.71875 12.40625 
L 22.015625 12.40625 
L 22.015625 0 
L 11.71875 0 
z
M 11.71875 51.703125 
L 22.015625 51.703125 
L 22.015625 39.3125 
L 11.71875 39.3125 
z
" id="DejaVuSans-58"/>
     </defs>
     <use xlink:href="#DejaVuSans-53"/>
     <use x="63.623047" xlink:href="#DejaVuSans-49"/>
     <use x="127.246094" xlink:href="#DejaVuSans-32"/>
     <use x="159.033203" xlink:href="#DejaVuSans-116"/>
     <use x="198.242188" xlink:href="#DejaVuSans-97"/>
     <use x="259.521484" xlink:href="#DejaVuSans-114"/>
     <use x="298.884766" xlink:href="#DejaVuSans-103"/>
     <use x="362.361328" xlink:href="#DejaVuSans-101"/>
     <use x="423.884766" xlink:href="#DejaVuSans-116"/>
     <use x="463.09375" xlink:href="#DejaVuSans-115"/>
     <use x="515.193359" xlink:href="#DejaVuSans-58"/>
     <use x="548.884766" xlink:href="#DejaVuSans-32"/>
     <use x="580.671875" xlink:href="#DejaVuSans-49"/>
     <use x="644.294922" xlink:href="#DejaVuSans-48"/>
     <use x="707.917969" xlink:href="#DejaVuSans-48"/>
     <use x="771.541016" xlink:href="#DejaVuSans-46"/>
     <use x="803.328125" xlink:href="#DejaVuSans-46"/>
     <use x="835.115234" xlink:href="#DejaVuSans-49"/>
     <use x="898.738281" xlink:href="#DejaVuSans-101"/>
     <use x="960.261719" xlink:href="#DejaVuSans-45"/>
     <use x="996.345703" xlink:href="#DejaVuSans-48"/>
     <use x="1059.96875" xlink:href="#DejaVuSans-56"/>
    </g>
    <!-- 15 instances -->
    <g transform="translate(60.41088 60.954904)scale(0.102 -0.102)">
     <use xlink:href="#DejaVuSans-49"/>
     <use x="63.623047" xlink:href="#DejaVuSans-53"/>
     <use x="127.246094" xlink:href="#DejaVuSans-32"/>
     <use x="159.033203" xlink:href="#DejaVuSans-105"/>
     <use x="186.816406" xlink:href="#DejaVuSans-110"/>
     <use x="250.195312" xlink:href="#DejaVuSans-115"/>
     <use x="302.294922" xlink:href="#DejaVuSans-116"/>
     <use x="341.503906" xlink:href="#DejaVuSans-97"/>
     <use x="402.783203" xlink:href="#DejaVuSans-110"/>
     <use x="466.162109" xlink:href="#DejaVuSans-99"/>
     <use x="521.142578" xlink:href="#DejaVuSans-101"/>
     <use x="582.666016" xlink:href="#DejaVuSans-115"/>
    </g>
   </g>
   <g id="text_19">
    <!-- v2.4 -->
    <g style="fill:#808080;" transform="translate(187.233062 294.151352)scale(0.1 -0.1)">
     <use xlink:href="#DejaVuSans-118"/>
     <use x="59.179688" xlink:href="#DejaVuSans-50"/>
     <use x="122.802734" xlink:href="#DejaVuSans-46"/>
     <use x="154.589844" xlink:href="#DejaVuSans-52"/>
    </g>
   </g>
   <g id="text_20">
    <!-- 9 Rosenbrock rotated -->
    <g transform="translate(90.990875 21.648)scale(0.2 -0.2)">
     <defs>
      <path d="M 44.390625 34.1875 
Q 47.5625 33.109375 50.5625 29.59375 
Q 53.5625 26.078125 56.59375 19.921875 
L 66.609375 0 
L 56 0 
L 46.6875 18.703125 
Q 43.0625 26.03125 39.671875 28.421875 
Q 36.28125 30.8125 30.421875 30.8125 
L 19.671875 30.8125 
L 19.671875 0 
L 9.8125 0 
L 9.8125 72.90625 
L 32.078125 72.90625 
Q 44.578125 72.90625 50.734375 67.671875 
Q 56.890625 62.453125 56.890625 51.90625 
Q 56.890625 45.015625 53.6875 40.46875 
Q 50.484375 35.9375 44.390625 34.1875 
z
M 19.671875 64.796875 
L 19.671875 38.921875 
L 32.078125 38.921875 
Q 39.203125 38.921875 42.84375 42.21875 
Q 46.484375 45.515625 46.484375 51.90625 
Q 46.484375 58.296875 42.84375 61.546875 
Q 39.203125 64.796875 32.078125 64.796875 
z
" id="DejaVuSans-82"/>
      <path d="M 9.078125 75.984375 
L 18.109375 75.984375 
L 18.109375 31.109375 
L 44.921875 54.6875 
L 56.390625 54.6875 
L 27.390625 29.109375 
L 57.625 0 
L 45.90625 0 
L 18.109375 26.703125 
L 18.109375 0 
L 9.078125 0 
z
" id="DejaVuSans-107"/>
     </defs>
     <use xlink:href="#DejaVuSans-57"/>
     <use x="63.623047" xlink:href="#DejaVuSans-32"/>
     <use x="95.410156" xlink:href="#DejaVuSans-82"/>
     <use x="160.392578" xlink:href="#DejaVuSans-111"/>
     <use x="221.574219" xlink:href="#DejaVuSans-115"/>
     <use x="273.673828" xlink:href="#DejaVuSans-101"/>
     <use x="335.197266" xlink:href="#DejaVuSans-110"/>
     <use x="398.576172" xlink:href="#DejaVuSans-98"/>
     <use x="462.052734" xlink:href="#DejaVuSans-114"/>
     <use x="500.916016" xlink:href="#DejaVuSans-111"/>
     <use x="562.097656" xlink:href="#DejaVuSans-99"/>
     <use x="617.078125" xlink:href="#DejaVuSans-107"/>
     <use x="674.988281" xlink:href="#DejaVuSans-32"/>
     <use x="706.775391" xlink:href="#DejaVuSans-114"/>
     <use x="745.638672" xlink:href="#DejaVuSans-111"/>
     <use x="806.820312" xlink:href="#DejaVuSans-116"/>
     <use x="846.029297" xlink:href="#DejaVuSans-97"/>
     <use x="907.308594" xlink:href="#DejaVuSans-116"/>
     <use x="946.517578" xlink:href="#DejaVuSans-101"/>
     <use x="1008.041016" xlink:href="#DejaVuSans-100"/>
    </g>
   </g>
  </g>
 </g>
 <defs>
  <clipPath id="pb9b2b6e6bb">
   <rect height="271.296" width="281.088" x="57.6" y="27.648"/>
  </clipPath>
 </defs>
</svg>
