<?xml version="1.0" encoding="utf-8" standalone="no"?>
<!DOCTYPE svg PUBLIC "-//W3C//DTD SVG 1.1//EN"
  "http://www.w3.org/Graphics/SVG/1.1/DTD/svg11.dtd">
<!-- Created with matplotlib (https://matplotlib.org/) -->
<svg height="345.6pt" version="1.1" viewBox="0 0 460.8 345.6" width="460.8pt" xmlns="http://www.w3.org/2000/svg" xmlns:xlink="http://www.w3.org/1999/xlink">
 <metadata>
  <rdf:RDF xmlns:cc="http://creativecommons.org/ns#" xmlns:dc="http://purl.org/dc/elements/1.1/" xmlns:rdf="http://www.w3.org/1999/02/22-rdf-syntax-ns#">
   <cc:Work>
    <dc:type rdf:resource="http://purl.org/dc/dcmitype/StillImage"/>
    <dc:date>2021-06-17T01:40:17.484547</dc:date>
    <dc:format>image/svg+xml</dc:format>
    <dc:creator>
     <cc:Agent>
      <dc:title>Matplotlib v3.3.4, https://matplotlib.org/</dc:title>
     </cc:Agent>
    </dc:creator>
   </cc:Work>
  </rdf:RDF>
 </metadata>
 <defs>
  <style type="text/css">*{stroke-linecap:butt;stroke-linejoin:round;}</style>
 </defs>
 <g id="figure_1">
  <g id="patch_1">
   <path d="M 0 345.6 
L 460.8 345.6 
L 460.8 0 
L 0 0 
z
" style="fill:#ffffff;"/>
  </g>
  <g id="axes_1">
   <g id="patch_2">
    <path d="M 57.6 298.944 
L 338.688 298.944 
L 338.688 27.648 
L 57.6 27.648 
z
" style="fill:#ffffff;"/>
   </g>
   <g id="line2d_1">
    <path d="M 17.444571 298.944 
L 17.444571 293.677139 
L 36.60358 293.677139 
L 36.60358 288.410278 
L 53.708537 288.410278 
L 53.708537 283.143418 
L 65.796525 283.143418 
L 65.796525 277.876557 
L 71.35013 277.876557 
L 71.35013 251.542253 
L 72.125336 251.542253 
L 72.125336 30.334099 
L 338.688 30.334099 
" style="fill:none;stroke:#f5deb3;stroke-linecap:square;stroke-width:4;"/>
   </g>
   <g id="line2d_2">
    <defs>
     <path d="M -0 7.778175 
L 7.778175 0 
L 0 -7.778175 
L -7.778175 -0 
z
" id="m7d7fe1db79" style="stroke:#f5deb3;stroke-linejoin:miter;stroke-width:1.5;"/>
    </defs>
    <g>
     <use style="fill:#f5deb3;stroke:#f5deb3;stroke-linejoin:miter;stroke-width:1.5;" x="71.35013" xlink:href="#m7d7fe1db79" y="251.542253"/>
     <use style="fill:#f5deb3;stroke:#f5deb3;stroke-linejoin:miter;stroke-width:1.5;" x="72.125336" xlink:href="#m7d7fe1db79" y="251.542253"/>
     <use style="fill:#f5deb3;stroke:#f5deb3;stroke-linejoin:miter;stroke-width:1.5;" x="72.125336" xlink:href="#m7d7fe1db79" y="251.542253"/>
     <use style="fill:#f5deb3;stroke:#f5deb3;stroke-linejoin:miter;stroke-width:1.5;" x="72.125336" xlink:href="#m7d7fe1db79" y="30.334099"/>
     <use style="fill:#f5deb3;stroke:#f5deb3;stroke-linejoin:miter;stroke-width:1.5;" x="72.125336" xlink:href="#m7d7fe1db79" y="30.334099"/>
     <use style="fill:#f5deb3;stroke:#f5deb3;stroke-linejoin:miter;stroke-width:1.5;" x="338.688" xlink:href="#m7d7fe1db79" y="30.334099"/>
    </g>
   </g>
   <g id="line2d_3">
    <path style="fill:none;stroke:#f5deb3;stroke-linecap:square;stroke-width:4;"/>
    <g/>
   </g>
   <g id="line2d_4">
    <path d="M 338.688 30.334099 
L 369.60768 35.706297 
" style="fill:none;stroke:#f5deb3;stroke-linecap:square;stroke-width:4;"/>
    <g>
     <use style="fill:#f5deb3;stroke:#f5deb3;stroke-linejoin:miter;stroke-width:1.5;" x="338.688" xlink:href="#m7d7fe1db79" y="30.334099"/>
     <use style="fill:#f5deb3;stroke:#f5deb3;stroke-linejoin:miter;stroke-width:1.5;" x="369.60768" xlink:href="#m7d7fe1db79" y="35.706297"/>
    </g>
   </g>
   <g id="matplotlib.axis_1">
    <g id="xtick_1">
     <g id="line2d_5">
      <path clip-path="url(#pd9ab68cf36)" d="M 57.6 298.944 
L 57.6 27.648 
" style="fill:none;stroke:#b0b0b0;stroke-linecap:square;stroke-width:0.8;"/>
     </g>
     <g id="line2d_6">
      <defs>
       <path d="M 0 0 
L 0 3.5 
" id="m22a80afc11" style="stroke:#000000;stroke-width:0.8;"/>
      </defs>
      <g>
       <use style="stroke:#000000;stroke-width:0.8;" x="57.6" xlink:href="#m22a80afc11" y="298.944"/>
      </g>
     </g>
     <g id="text_1">
      <!-- 0 -->
      <g transform="translate(51.2375 321.140875)scale(0.2 -0.2)">
       <defs>
        <path d="M 31.78125 66.40625 
Q 24.171875 66.40625 20.328125 58.90625 
Q 16.5 51.421875 16.5 36.375 
Q 16.5 21.390625 20.328125 13.890625 
Q 24.171875 6.390625 31.78125 6.390625 
Q 39.453125 6.390625 43.28125 13.890625 
Q 47.125 21.390625 47.125 36.375 
Q 47.125 51.421875 43.28125 58.90625 
Q 39.453125 66.40625 31.78125 66.40625 
z
M 31.78125 74.21875 
Q 44.046875 74.21875 50.515625 64.515625 
Q 56.984375 54.828125 56.984375 36.375 
Q 56.984375 17.96875 50.515625 8.265625 
Q 44.046875 -1.421875 31.78125 -1.421875 
Q 19.53125 -1.421875 13.0625 8.265625 
Q 6.59375 17.96875 6.59375 36.375 
Q 6.59375 54.828125 13.0625 64.515625 
Q 19.53125 74.21875 31.78125 74.21875 
z
" id="DejaVuSans-48"/>
       </defs>
       <use xlink:href="#DejaVuSans-48"/>
      </g>
     </g>
    </g>
    <g id="xtick_2">
     <g id="line2d_7">
      <path clip-path="url(#pd9ab68cf36)" d="M 137.910857 298.944 
L 137.910857 27.648 
" style="fill:none;stroke:#b0b0b0;stroke-linecap:square;stroke-width:0.8;"/>
     </g>
     <g id="line2d_8">
      <g>
       <use style="stroke:#000000;stroke-width:0.8;" x="137.910857" xlink:href="#m22a80afc11" y="298.944"/>
      </g>
     </g>
     <g id="text_2">
      <!-- 2 -->
      <g transform="translate(131.548357 321.140875)scale(0.2 -0.2)">
       <defs>
        <path d="M 19.1875 8.296875 
L 53.609375 8.296875 
L 53.609375 0 
L 7.328125 0 
L 7.328125 8.296875 
Q 12.9375 14.109375 22.625 23.890625 
Q 32.328125 33.6875 34.8125 36.53125 
Q 39.546875 41.84375 41.421875 45.53125 
Q 43.3125 49.21875 43.3125 52.78125 
Q 43.3125 58.59375 39.234375 62.25 
Q 35.15625 65.921875 28.609375 65.921875 
Q 23.96875 65.921875 18.8125 64.3125 
Q 13.671875 62.703125 7.8125 59.421875 
L 7.8125 69.390625 
Q 13.765625 71.78125 18.9375 73 
Q 24.125 74.21875 28.421875 74.21875 
Q 39.75 74.21875 46.484375 68.546875 
Q 53.21875 62.890625 53.21875 53.421875 
Q 53.21875 48.921875 51.53125 44.890625 
Q 49.859375 40.875 45.40625 35.40625 
Q 44.1875 33.984375 37.640625 27.21875 
Q 31.109375 20.453125 19.1875 8.296875 
z
" id="DejaVuSans-50"/>
       </defs>
       <use xlink:href="#DejaVuSans-50"/>
      </g>
     </g>
    </g>
    <g id="xtick_3">
     <g id="line2d_9">
      <path clip-path="url(#pd9ab68cf36)" d="M 218.221714 298.944 
L 218.221714 27.648 
" style="fill:none;stroke:#b0b0b0;stroke-linecap:square;stroke-width:0.8;"/>
     </g>
     <g id="line2d_10">
      <g>
       <use style="stroke:#000000;stroke-width:0.8;" x="218.221714" xlink:href="#m22a80afc11" y="298.944"/>
      </g>
     </g>
     <g id="text_3">
      <!-- 4 -->
      <g transform="translate(211.859214 321.140875)scale(0.2 -0.2)">
       <defs>
        <path d="M 37.796875 64.3125 
L 12.890625 25.390625 
L 37.796875 25.390625 
z
M 35.203125 72.90625 
L 47.609375 72.90625 
L 47.609375 25.390625 
L 58.015625 25.390625 
L 58.015625 17.1875 
L 47.609375 17.1875 
L 47.609375 0 
L 37.796875 0 
L 37.796875 17.1875 
L 4.890625 17.1875 
L 4.890625 26.703125 
z
" id="DejaVuSans-52"/>
       </defs>
       <use xlink:href="#DejaVuSans-52"/>
      </g>
     </g>
    </g>
    <g id="xtick_4">
     <g id="line2d_11">
      <path clip-path="url(#pd9ab68cf36)" d="M 298.532571 298.944 
L 298.532571 27.648 
" style="fill:none;stroke:#b0b0b0;stroke-linecap:square;stroke-width:0.8;"/>
     </g>
     <g id="line2d_12">
      <g>
       <use style="stroke:#000000;stroke-width:0.8;" x="298.532571" xlink:href="#m22a80afc11" y="298.944"/>
      </g>
     </g>
     <g id="text_4">
      <!-- 6 -->
      <g transform="translate(292.170071 321.140875)scale(0.2 -0.2)">
       <defs>
        <path d="M 33.015625 40.375 
Q 26.375 40.375 22.484375 35.828125 
Q 18.609375 31.296875 18.609375 23.390625 
Q 18.609375 15.53125 22.484375 10.953125 
Q 26.375 6.390625 33.015625 6.390625 
Q 39.65625 6.390625 43.53125 10.953125 
Q 47.40625 15.53125 47.40625 23.390625 
Q 47.40625 31.296875 43.53125 35.828125 
Q 39.65625 40.375 33.015625 40.375 
z
M 52.59375 71.296875 
L 52.59375 62.3125 
Q 48.875 64.0625 45.09375 64.984375 
Q 41.3125 65.921875 37.59375 65.921875 
Q 27.828125 65.921875 22.671875 59.328125 
Q 17.53125 52.734375 16.796875 39.40625 
Q 19.671875 43.65625 24.015625 45.921875 
Q 28.375 48.1875 33.59375 48.1875 
Q 44.578125 48.1875 50.953125 41.515625 
Q 57.328125 34.859375 57.328125 23.390625 
Q 57.328125 12.15625 50.6875 5.359375 
Q 44.046875 -1.421875 33.015625 -1.421875 
Q 20.359375 -1.421875 13.671875 8.265625 
Q 6.984375 17.96875 6.984375 36.375 
Q 6.984375 53.65625 15.1875 63.9375 
Q 23.390625 74.21875 37.203125 74.21875 
Q 40.921875 74.21875 44.703125 73.484375 
Q 48.484375 72.75 52.59375 71.296875 
z
" id="DejaVuSans-54"/>
       </defs>
       <use xlink:href="#DejaVuSans-54"/>
      </g>
     </g>
    </g>
    <g id="xtick_5">
     <g id="line2d_13">
      <path clip-path="url(#pd9ab68cf36)" d="M 97.755429 298.944 
L 97.755429 27.648 
" style="fill:none;stroke:#b0b0b0;stroke-linecap:square;stroke-width:0.8;"/>
     </g>
     <g id="line2d_14">
      <defs>
       <path d="M 0 0 
L 0 2 
" id="m283a060dc2" style="stroke:#000000;stroke-width:0.6;"/>
      </defs>
      <g>
       <use style="stroke:#000000;stroke-width:0.6;" x="97.755429" xlink:href="#m283a060dc2" y="298.944"/>
      </g>
     </g>
    </g>
    <g id="xtick_6">
     <g id="line2d_15">
      <path clip-path="url(#pd9ab68cf36)" d="M 178.066286 298.944 
L 178.066286 27.648 
" style="fill:none;stroke:#b0b0b0;stroke-linecap:square;stroke-width:0.8;"/>
     </g>
     <g id="line2d_16">
      <g>
       <use style="stroke:#000000;stroke-width:0.6;" x="178.066286" xlink:href="#m283a060dc2" y="298.944"/>
      </g>
     </g>
    </g>
    <g id="xtick_7">
     <g id="line2d_17">
      <path clip-path="url(#pd9ab68cf36)" d="M 258.377143 298.944 
L 258.377143 27.648 
" style="fill:none;stroke:#b0b0b0;stroke-linecap:square;stroke-width:0.8;"/>
     </g>
     <g id="line2d_18">
      <g>
       <use style="stroke:#000000;stroke-width:0.6;" x="258.377143" xlink:href="#m283a060dc2" y="298.944"/>
      </g>
     </g>
    </g>
    <g id="xtick_8">
     <g id="line2d_19">
      <path clip-path="url(#pd9ab68cf36)" d="M 338.688 298.944 
L 338.688 27.648 
" style="fill:none;stroke:#b0b0b0;stroke-linecap:square;stroke-width:0.8;"/>
     </g>
     <g id="line2d_20">
      <g>
       <use style="stroke:#000000;stroke-width:0.6;" x="338.688" xlink:href="#m283a060dc2" y="298.944"/>
      </g>
     </g>
    </g>
    <g id="text_5">
     <!-- log10(# f-evals / dimension) -->
     <g transform="translate(77.764078 342.217594)scale(0.17 -0.17)">
      <defs>
       <path d="M 9.421875 75.984375 
L 18.40625 75.984375 
L 18.40625 0 
L 9.421875 0 
z
" id="DejaVuSans-108"/>
       <path d="M 30.609375 48.390625 
Q 23.390625 48.390625 19.1875 42.75 
Q 14.984375 37.109375 14.984375 27.296875 
Q 14.984375 17.484375 19.15625 11.84375 
Q 23.34375 6.203125 30.609375 6.203125 
Q 37.796875 6.203125 41.984375 11.859375 
Q 46.1875 17.53125 46.1875 27.296875 
Q 46.1875 37.015625 41.984375 42.703125 
Q 37.796875 48.390625 30.609375 48.390625 
z
M 30.609375 56 
Q 42.328125 56 49.015625 48.375 
Q 55.71875 40.765625 55.71875 27.296875 
Q 55.71875 13.875 49.015625 6.21875 
Q 42.328125 -1.421875 30.609375 -1.421875 
Q 18.84375 -1.421875 12.171875 6.21875 
Q 5.515625 13.875 5.515625 27.296875 
Q 5.515625 40.765625 12.171875 48.375 
Q 18.84375 56 30.609375 56 
z
" id="DejaVuSans-111"/>
       <path d="M 45.40625 27.984375 
Q 45.40625 37.75 41.375 43.109375 
Q 37.359375 48.484375 30.078125 48.484375 
Q 22.859375 48.484375 18.828125 43.109375 
Q 14.796875 37.75 14.796875 27.984375 
Q 14.796875 18.265625 18.828125 12.890625 
Q 22.859375 7.515625 30.078125 7.515625 
Q 37.359375 7.515625 41.375 12.890625 
Q 45.40625 18.265625 45.40625 27.984375 
z
M 54.390625 6.78125 
Q 54.390625 -7.171875 48.1875 -13.984375 
Q 42 -20.796875 29.203125 -20.796875 
Q 24.46875 -20.796875 20.265625 -20.09375 
Q 16.0625 -19.390625 12.109375 -17.921875 
L 12.109375 -9.1875 
Q 16.0625 -11.328125 19.921875 -12.34375 
Q 23.78125 -13.375 27.78125 -13.375 
Q 36.625 -13.375 41.015625 -8.765625 
Q 45.40625 -4.15625 45.40625 5.171875 
L 45.40625 9.625 
Q 42.625 4.78125 38.28125 2.390625 
Q 33.9375 0 27.875 0 
Q 17.828125 0 11.671875 7.65625 
Q 5.515625 15.328125 5.515625 27.984375 
Q 5.515625 40.671875 11.671875 48.328125 
Q 17.828125 56 27.875 56 
Q 33.9375 56 38.28125 53.609375 
Q 42.625 51.21875 45.40625 46.390625 
L 45.40625 54.6875 
L 54.390625 54.6875 
z
" id="DejaVuSans-103"/>
       <path d="M 12.40625 8.296875 
L 28.515625 8.296875 
L 28.515625 63.921875 
L 10.984375 60.40625 
L 10.984375 69.390625 
L 28.421875 72.90625 
L 38.28125 72.90625 
L 38.28125 8.296875 
L 54.390625 8.296875 
L 54.390625 0 
L 12.40625 0 
z
" id="DejaVuSans-49"/>
       <path d="M 31 75.875 
Q 24.46875 64.65625 21.28125 53.65625 
Q 18.109375 42.671875 18.109375 31.390625 
Q 18.109375 20.125 21.3125 9.0625 
Q 24.515625 -2 31 -13.1875 
L 23.1875 -13.1875 
Q 15.875 -1.703125 12.234375 9.375 
Q 8.59375 20.453125 8.59375 31.390625 
Q 8.59375 42.28125 12.203125 53.3125 
Q 15.828125 64.359375 23.1875 75.875 
z
" id="DejaVuSans-40"/>
       <path d="M 51.125 44 
L 36.921875 44 
L 32.8125 27.6875 
L 47.125 27.6875 
z
M 43.796875 71.78125 
L 38.71875 51.515625 
L 52.984375 51.515625 
L 58.109375 71.78125 
L 65.921875 71.78125 
L 60.890625 51.515625 
L 76.125 51.515625 
L 76.125 44 
L 58.984375 44 
L 54.984375 27.6875 
L 70.515625 27.6875 
L 70.515625 20.21875 
L 53.078125 20.21875 
L 48 0 
L 40.1875 0 
L 45.21875 20.21875 
L 30.90625 20.21875 
L 25.875 0 
L 18.015625 0 
L 23.09375 20.21875 
L 7.71875 20.21875 
L 7.71875 27.6875 
L 24.90625 27.6875 
L 29 44 
L 13.28125 44 
L 13.28125 51.515625 
L 30.90625 51.515625 
L 35.890625 71.78125 
z
" id="DejaVuSans-35"/>
       <path id="DejaVuSans-32"/>
       <path d="M 37.109375 75.984375 
L 37.109375 68.5 
L 28.515625 68.5 
Q 23.6875 68.5 21.796875 66.546875 
Q 19.921875 64.59375 19.921875 59.515625 
L 19.921875 54.6875 
L 34.71875 54.6875 
L 34.71875 47.703125 
L 19.921875 47.703125 
L 19.921875 0 
L 10.890625 0 
L 10.890625 47.703125 
L 2.296875 47.703125 
L 2.296875 54.6875 
L 10.890625 54.6875 
L 10.890625 58.5 
Q 10.890625 67.625 15.140625 71.796875 
Q 19.390625 75.984375 28.609375 75.984375 
z
" id="DejaVuSans-102"/>
       <path d="M 4.890625 31.390625 
L 31.203125 31.390625 
L 31.203125 23.390625 
L 4.890625 23.390625 
z
" id="DejaVuSans-45"/>
       <path d="M 56.203125 29.59375 
L 56.203125 25.203125 
L 14.890625 25.203125 
Q 15.484375 15.921875 20.484375 11.0625 
Q 25.484375 6.203125 34.421875 6.203125 
Q 39.59375 6.203125 44.453125 7.46875 
Q 49.3125 8.734375 54.109375 11.28125 
L 54.109375 2.78125 
Q 49.265625 0.734375 44.1875 -0.34375 
Q 39.109375 -1.421875 33.890625 -1.421875 
Q 20.796875 -1.421875 13.15625 6.1875 
Q 5.515625 13.8125 5.515625 26.8125 
Q 5.515625 40.234375 12.765625 48.109375 
Q 20.015625 56 32.328125 56 
Q 43.359375 56 49.78125 48.890625 
Q 56.203125 41.796875 56.203125 29.59375 
z
M 47.21875 32.234375 
Q 47.125 39.59375 43.09375 43.984375 
Q 39.0625 48.390625 32.421875 48.390625 
Q 24.90625 48.390625 20.390625 44.140625 
Q 15.875 39.890625 15.1875 32.171875 
z
" id="DejaVuSans-101"/>
       <path d="M 2.984375 54.6875 
L 12.5 54.6875 
L 29.59375 8.796875 
L 46.6875 54.6875 
L 56.203125 54.6875 
L 35.6875 0 
L 23.484375 0 
z
" id="DejaVuSans-118"/>
       <path d="M 34.28125 27.484375 
Q 23.390625 27.484375 19.1875 25 
Q 14.984375 22.515625 14.984375 16.5 
Q 14.984375 11.71875 18.140625 8.90625 
Q 21.296875 6.109375 26.703125 6.109375 
Q 34.1875 6.109375 38.703125 11.40625 
Q 43.21875 16.703125 43.21875 25.484375 
L 43.21875 27.484375 
z
M 52.203125 31.203125 
L 52.203125 0 
L 43.21875 0 
L 43.21875 8.296875 
Q 40.140625 3.328125 35.546875 0.953125 
Q 30.953125 -1.421875 24.3125 -1.421875 
Q 15.921875 -1.421875 10.953125 3.296875 
Q 6 8.015625 6 15.921875 
Q 6 25.140625 12.171875 29.828125 
Q 18.359375 34.515625 30.609375 34.515625 
L 43.21875 34.515625 
L 43.21875 35.40625 
Q 43.21875 41.609375 39.140625 45 
Q 35.0625 48.390625 27.6875 48.390625 
Q 23 48.390625 18.546875 47.265625 
Q 14.109375 46.140625 10.015625 43.890625 
L 10.015625 52.203125 
Q 14.9375 54.109375 19.578125 55.046875 
Q 24.21875 56 28.609375 56 
Q 40.484375 56 46.34375 49.84375 
Q 52.203125 43.703125 52.203125 31.203125 
z
" id="DejaVuSans-97"/>
       <path d="M 44.28125 53.078125 
L 44.28125 44.578125 
Q 40.484375 46.53125 36.375 47.5 
Q 32.28125 48.484375 27.875 48.484375 
Q 21.1875 48.484375 17.84375 46.4375 
Q 14.5 44.390625 14.5 40.28125 
Q 14.5 37.15625 16.890625 35.375 
Q 19.28125 33.59375 26.515625 31.984375 
L 29.59375 31.296875 
Q 39.15625 29.25 43.1875 25.515625 
Q 47.21875 21.78125 47.21875 15.09375 
Q 47.21875 7.46875 41.1875 3.015625 
Q 35.15625 -1.421875 24.609375 -1.421875 
Q 20.21875 -1.421875 15.453125 -0.5625 
Q 10.6875 0.296875 5.421875 2 
L 5.421875 11.28125 
Q 10.40625 8.6875 15.234375 7.390625 
Q 20.0625 6.109375 24.8125 6.109375 
Q 31.15625 6.109375 34.5625 8.28125 
Q 37.984375 10.453125 37.984375 14.40625 
Q 37.984375 18.0625 35.515625 20.015625 
Q 33.0625 21.96875 24.703125 23.78125 
L 21.578125 24.515625 
Q 13.234375 26.265625 9.515625 29.90625 
Q 5.8125 33.546875 5.8125 39.890625 
Q 5.8125 47.609375 11.28125 51.796875 
Q 16.75 56 26.8125 56 
Q 31.78125 56 36.171875 55.265625 
Q 40.578125 54.546875 44.28125 53.078125 
z
" id="DejaVuSans-115"/>
       <path d="M 25.390625 72.90625 
L 33.6875 72.90625 
L 8.296875 -9.28125 
L 0 -9.28125 
z
" id="DejaVuSans-47"/>
       <path d="M 45.40625 46.390625 
L 45.40625 75.984375 
L 54.390625 75.984375 
L 54.390625 0 
L 45.40625 0 
L 45.40625 8.203125 
Q 42.578125 3.328125 38.25 0.953125 
Q 33.9375 -1.421875 27.875 -1.421875 
Q 17.96875 -1.421875 11.734375 6.484375 
Q 5.515625 14.40625 5.515625 27.296875 
Q 5.515625 40.1875 11.734375 48.09375 
Q 17.96875 56 27.875 56 
Q 33.9375 56 38.25 53.625 
Q 42.578125 51.265625 45.40625 46.390625 
z
M 14.796875 27.296875 
Q 14.796875 17.390625 18.875 11.75 
Q 22.953125 6.109375 30.078125 6.109375 
Q 37.203125 6.109375 41.296875 11.75 
Q 45.40625 17.390625 45.40625 27.296875 
Q 45.40625 37.203125 41.296875 42.84375 
Q 37.203125 48.484375 30.078125 48.484375 
Q 22.953125 48.484375 18.875 42.84375 
Q 14.796875 37.203125 14.796875 27.296875 
z
" id="DejaVuSans-100"/>
       <path d="M 9.421875 54.6875 
L 18.40625 54.6875 
L 18.40625 0 
L 9.421875 0 
z
M 9.421875 75.984375 
L 18.40625 75.984375 
L 18.40625 64.59375 
L 9.421875 64.59375 
z
" id="DejaVuSans-105"/>
       <path d="M 52 44.1875 
Q 55.375 50.25 60.0625 53.125 
Q 64.75 56 71.09375 56 
Q 79.640625 56 84.28125 50.015625 
Q 88.921875 44.046875 88.921875 33.015625 
L 88.921875 0 
L 79.890625 0 
L 79.890625 32.71875 
Q 79.890625 40.578125 77.09375 44.375 
Q 74.3125 48.1875 68.609375 48.1875 
Q 61.625 48.1875 57.5625 43.546875 
Q 53.515625 38.921875 53.515625 30.90625 
L 53.515625 0 
L 44.484375 0 
L 44.484375 32.71875 
Q 44.484375 40.625 41.703125 44.40625 
Q 38.921875 48.1875 33.109375 48.1875 
Q 26.21875 48.1875 22.15625 43.53125 
Q 18.109375 38.875 18.109375 30.90625 
L 18.109375 0 
L 9.078125 0 
L 9.078125 54.6875 
L 18.109375 54.6875 
L 18.109375 46.1875 
Q 21.1875 51.21875 25.484375 53.609375 
Q 29.78125 56 35.6875 56 
Q 41.65625 56 45.828125 52.96875 
Q 50 49.953125 52 44.1875 
z
" id="DejaVuSans-109"/>
       <path d="M 54.890625 33.015625 
L 54.890625 0 
L 45.90625 0 
L 45.90625 32.71875 
Q 45.90625 40.484375 42.875 44.328125 
Q 39.84375 48.1875 33.796875 48.1875 
Q 26.515625 48.1875 22.3125 43.546875 
Q 18.109375 38.921875 18.109375 30.90625 
L 18.109375 0 
L 9.078125 0 
L 9.078125 54.6875 
L 18.109375 54.6875 
L 18.109375 46.1875 
Q 21.34375 51.125 25.703125 53.5625 
Q 30.078125 56 35.796875 56 
Q 45.21875 56 50.046875 50.171875 
Q 54.890625 44.34375 54.890625 33.015625 
z
" id="DejaVuSans-110"/>
       <path d="M 8.015625 75.875 
L 15.828125 75.875 
Q 23.140625 64.359375 26.78125 53.3125 
Q 30.421875 42.28125 30.421875 31.390625 
Q 30.421875 20.453125 26.78125 9.375 
Q 23.140625 -1.703125 15.828125 -13.1875 
L 8.015625 -13.1875 
Q 14.5 -2 17.703125 9.0625 
Q 20.90625 20.125 20.90625 31.390625 
Q 20.90625 42.671875 17.703125 53.65625 
Q 14.5 64.65625 8.015625 75.875 
z
" id="DejaVuSans-41"/>
      </defs>
      <use xlink:href="#DejaVuSans-108"/>
      <use x="27.783203" xlink:href="#DejaVuSans-111"/>
      <use x="88.964844" xlink:href="#DejaVuSans-103"/>
      <use x="152.441406" xlink:href="#DejaVuSans-49"/>
      <use x="216.064453" xlink:href="#DejaVuSans-48"/>
      <use x="279.6875" xlink:href="#DejaVuSans-40"/>
      <use x="318.701172" xlink:href="#DejaVuSans-35"/>
      <use x="402.490234" xlink:href="#DejaVuSans-32"/>
      <use x="434.277344" xlink:href="#DejaVuSans-102"/>
      <use x="463.982422" xlink:href="#DejaVuSans-45"/>
      <use x="500.066406" xlink:href="#DejaVuSans-101"/>
      <use x="561.589844" xlink:href="#DejaVuSans-118"/>
      <use x="620.769531" xlink:href="#DejaVuSans-97"/>
      <use x="682.048828" xlink:href="#DejaVuSans-108"/>
      <use x="709.832031" xlink:href="#DejaVuSans-115"/>
      <use x="761.931641" xlink:href="#DejaVuSans-32"/>
      <use x="793.71875" xlink:href="#DejaVuSans-47"/>
      <use x="827.410156" xlink:href="#DejaVuSans-32"/>
      <use x="859.197266" xlink:href="#DejaVuSans-100"/>
      <use x="922.673828" xlink:href="#DejaVuSans-105"/>
      <use x="950.457031" xlink:href="#DejaVuSans-109"/>
      <use x="1047.869141" xlink:href="#DejaVuSans-101"/>
      <use x="1109.392578" xlink:href="#DejaVuSans-110"/>
      <use x="1172.771484" xlink:href="#DejaVuSans-115"/>
      <use x="1224.871094" xlink:href="#DejaVuSans-105"/>
      <use x="1252.654297" xlink:href="#DejaVuSans-111"/>
      <use x="1313.835938" xlink:href="#DejaVuSans-110"/>
      <use x="1377.214844" xlink:href="#DejaVuSans-41"/>
     </g>
    </g>
   </g>
   <g id="matplotlib.axis_2">
    <g id="ytick_1">
     <g id="line2d_21">
      <path clip-path="url(#pd9ab68cf36)" d="M 57.6 298.944 
L 338.688 298.944 
" style="fill:none;stroke:#b0b0b0;stroke-linecap:square;stroke-width:0.8;"/>
     </g>
     <g id="line2d_22">
      <defs>
       <path d="M 0 0 
L -3.5 0 
" id="me96d5dbc8b" style="stroke:#000000;stroke-width:0.8;"/>
      </defs>
      <g>
       <use style="stroke:#000000;stroke-width:0.8;" x="57.6" xlink:href="#me96d5dbc8b" y="298.944"/>
      </g>
     </g>
     <g id="text_6">
      <!-- 0.0 -->
      <g transform="translate(25.155 305.02275)scale(0.16 -0.16)">
       <defs>
        <path d="M 10.6875 12.40625 
L 21 12.40625 
L 21 0 
L 10.6875 0 
z
" id="DejaVuSans-46"/>
       </defs>
       <use xlink:href="#DejaVuSans-48"/>
       <use x="63.623047" xlink:href="#DejaVuSans-46"/>
       <use x="95.410156" xlink:href="#DejaVuSans-48"/>
      </g>
     </g>
    </g>
    <g id="ytick_2">
     <g id="line2d_23">
      <path clip-path="url(#pd9ab68cf36)" d="M 57.6 245.22202 
L 338.688 245.22202 
" style="fill:none;stroke:#b0b0b0;stroke-linecap:square;stroke-width:0.8;"/>
     </g>
     <g id="line2d_24">
      <g>
       <use style="stroke:#000000;stroke-width:0.8;" x="57.6" xlink:href="#me96d5dbc8b" y="245.22202"/>
      </g>
     </g>
     <g id="text_7">
      <!-- 0.2 -->
      <g transform="translate(25.155 251.30077)scale(0.16 -0.16)">
       <use xlink:href="#DejaVuSans-48"/>
       <use x="63.623047" xlink:href="#DejaVuSans-46"/>
       <use x="95.410156" xlink:href="#DejaVuSans-50"/>
      </g>
     </g>
    </g>
    <g id="ytick_3">
     <g id="line2d_25">
      <path clip-path="url(#pd9ab68cf36)" d="M 57.6 191.50004 
L 338.688 191.50004 
" style="fill:none;stroke:#b0b0b0;stroke-linecap:square;stroke-width:0.8;"/>
     </g>
     <g id="line2d_26">
      <g>
       <use style="stroke:#000000;stroke-width:0.8;" x="57.6" xlink:href="#me96d5dbc8b" y="191.50004"/>
      </g>
     </g>
     <g id="text_8">
      <!-- 0.4 -->
      <g transform="translate(25.155 197.57879)scale(0.16 -0.16)">
       <use xlink:href="#DejaVuSans-48"/>
       <use x="63.623047" xlink:href="#DejaVuSans-46"/>
       <use x="95.410156" xlink:href="#DejaVuSans-52"/>
      </g>
     </g>
    </g>
    <g id="ytick_4">
     <g id="line2d_27">
      <path clip-path="url(#pd9ab68cf36)" d="M 57.6 137.778059 
L 338.688 137.778059 
" style="fill:none;stroke:#b0b0b0;stroke-linecap:square;stroke-width:0.8;"/>
     </g>
     <g id="line2d_28">
      <g>
       <use style="stroke:#000000;stroke-width:0.8;" x="57.6" xlink:href="#me96d5dbc8b" y="137.778059"/>
      </g>
     </g>
     <g id="text_9">
      <!-- 0.6 -->
      <g transform="translate(25.155 143.856809)scale(0.16 -0.16)">
       <use xlink:href="#DejaVuSans-48"/>
       <use x="63.623047" xlink:href="#DejaVuSans-46"/>
       <use x="95.410156" xlink:href="#DejaVuSans-54"/>
      </g>
     </g>
    </g>
    <g id="ytick_5">
     <g id="line2d_29">
      <path clip-path="url(#pd9ab68cf36)" d="M 57.6 84.056079 
L 338.688 84.056079 
" style="fill:none;stroke:#b0b0b0;stroke-linecap:square;stroke-width:0.8;"/>
     </g>
     <g id="line2d_30">
      <g>
       <use style="stroke:#000000;stroke-width:0.8;" x="57.6" xlink:href="#me96d5dbc8b" y="84.056079"/>
      </g>
     </g>
     <g id="text_10">
      <!-- 0.8 -->
      <g transform="translate(25.155 90.134829)scale(0.16 -0.16)">
       <defs>
        <path d="M 31.78125 34.625 
Q 24.75 34.625 20.71875 30.859375 
Q 16.703125 27.09375 16.703125 20.515625 
Q 16.703125 13.921875 20.71875 10.15625 
Q 24.75 6.390625 31.78125 6.390625 
Q 38.8125 6.390625 42.859375 10.171875 
Q 46.921875 13.96875 46.921875 20.515625 
Q 46.921875 27.09375 42.890625 30.859375 
Q 38.875 34.625 31.78125 34.625 
z
M 21.921875 38.8125 
Q 15.578125 40.375 12.03125 44.71875 
Q 8.5 49.078125 8.5 55.328125 
Q 8.5 64.0625 14.71875 69.140625 
Q 20.953125 74.21875 31.78125 74.21875 
Q 42.671875 74.21875 48.875 69.140625 
Q 55.078125 64.0625 55.078125 55.328125 
Q 55.078125 49.078125 51.53125 44.71875 
Q 48 40.375 41.703125 38.8125 
Q 48.828125 37.15625 52.796875 32.3125 
Q 56.78125 27.484375 56.78125 20.515625 
Q 56.78125 9.90625 50.3125 4.234375 
Q 43.84375 -1.421875 31.78125 -1.421875 
Q 19.734375 -1.421875 13.25 4.234375 
Q 6.78125 9.90625 6.78125 20.515625 
Q 6.78125 27.484375 10.78125 32.3125 
Q 14.796875 37.15625 21.921875 38.8125 
z
M 18.3125 54.390625 
Q 18.3125 48.734375 21.84375 45.5625 
Q 25.390625 42.390625 31.78125 42.390625 
Q 38.140625 42.390625 41.71875 45.5625 
Q 45.3125 48.734375 45.3125 54.390625 
Q 45.3125 60.0625 41.71875 63.234375 
Q 38.140625 66.40625 31.78125 66.40625 
Q 25.390625 66.40625 21.84375 63.234375 
Q 18.3125 60.0625 18.3125 54.390625 
z
" id="DejaVuSans-56"/>
       </defs>
       <use xlink:href="#DejaVuSans-48"/>
       <use x="63.623047" xlink:href="#DejaVuSans-46"/>
       <use x="95.410156" xlink:href="#DejaVuSans-56"/>
      </g>
     </g>
    </g>
    <g id="ytick_6">
     <g id="line2d_31">
      <path clip-path="url(#pd9ab68cf36)" d="M 57.6 30.334099 
L 338.688 30.334099 
" style="fill:none;stroke:#b0b0b0;stroke-linecap:square;stroke-width:0.8;"/>
     </g>
     <g id="line2d_32">
      <g>
       <use style="stroke:#000000;stroke-width:0.8;" x="57.6" xlink:href="#me96d5dbc8b" y="30.334099"/>
      </g>
     </g>
     <g id="text_11">
      <!-- 1.0 -->
      <g transform="translate(25.155 36.412849)scale(0.16 -0.16)">
       <use xlink:href="#DejaVuSans-49"/>
       <use x="63.623047" xlink:href="#DejaVuSans-46"/>
       <use x="95.410156" xlink:href="#DejaVuSans-48"/>
      </g>
     </g>
    </g>
    <g id="text_12">
     <!-- Fraction of function,target pairs -->
     <g transform="translate(17.619531 297.681)rotate(-90)scale(0.17 -0.17)">
      <defs>
       <path d="M 9.8125 72.90625 
L 51.703125 72.90625 
L 51.703125 64.59375 
L 19.671875 64.59375 
L 19.671875 43.109375 
L 48.578125 43.109375 
L 48.578125 34.8125 
L 19.671875 34.8125 
L 19.671875 0 
L 9.8125 0 
z
" id="DejaVuSans-70"/>
       <path d="M 41.109375 46.296875 
Q 39.59375 47.171875 37.8125 47.578125 
Q 36.03125 48 33.890625 48 
Q 26.265625 48 22.1875 43.046875 
Q 18.109375 38.09375 18.109375 28.8125 
L 18.109375 0 
L 9.078125 0 
L 9.078125 54.6875 
L 18.109375 54.6875 
L 18.109375 46.1875 
Q 20.953125 51.171875 25.484375 53.578125 
Q 30.03125 56 36.53125 56 
Q 37.453125 56 38.578125 55.875 
Q 39.703125 55.765625 41.0625 55.515625 
z
" id="DejaVuSans-114"/>
       <path d="M 48.78125 52.59375 
L 48.78125 44.1875 
Q 44.96875 46.296875 41.140625 47.34375 
Q 37.3125 48.390625 33.40625 48.390625 
Q 24.65625 48.390625 19.8125 42.84375 
Q 14.984375 37.3125 14.984375 27.296875 
Q 14.984375 17.28125 19.8125 11.734375 
Q 24.65625 6.203125 33.40625 6.203125 
Q 37.3125 6.203125 41.140625 7.25 
Q 44.96875 8.296875 48.78125 10.40625 
L 48.78125 2.09375 
Q 45.015625 0.34375 40.984375 -0.53125 
Q 36.96875 -1.421875 32.421875 -1.421875 
Q 20.0625 -1.421875 12.78125 6.34375 
Q 5.515625 14.109375 5.515625 27.296875 
Q 5.515625 40.671875 12.859375 48.328125 
Q 20.21875 56 33.015625 56 
Q 37.15625 56 41.109375 55.140625 
Q 45.0625 54.296875 48.78125 52.59375 
z
" id="DejaVuSans-99"/>
       <path d="M 18.3125 70.21875 
L 18.3125 54.6875 
L 36.8125 54.6875 
L 36.8125 47.703125 
L 18.3125 47.703125 
L 18.3125 18.015625 
Q 18.3125 11.328125 20.140625 9.421875 
Q 21.96875 7.515625 27.59375 7.515625 
L 36.8125 7.515625 
L 36.8125 0 
L 27.59375 0 
Q 17.1875 0 13.234375 3.875 
Q 9.28125 7.765625 9.28125 18.015625 
L 9.28125 47.703125 
L 2.6875 47.703125 
L 2.6875 54.6875 
L 9.28125 54.6875 
L 9.28125 70.21875 
z
" id="DejaVuSans-116"/>
       <path d="M 8.5 21.578125 
L 8.5 54.6875 
L 17.484375 54.6875 
L 17.484375 21.921875 
Q 17.484375 14.15625 20.5 10.265625 
Q 23.53125 6.390625 29.59375 6.390625 
Q 36.859375 6.390625 41.078125 11.03125 
Q 45.3125 15.671875 45.3125 23.6875 
L 45.3125 54.6875 
L 54.296875 54.6875 
L 54.296875 0 
L 45.3125 0 
L 45.3125 8.40625 
Q 42.046875 3.421875 37.71875 1 
Q 33.40625 -1.421875 27.6875 -1.421875 
Q 18.265625 -1.421875 13.375 4.4375 
Q 8.5 10.296875 8.5 21.578125 
z
M 31.109375 56 
z
" id="DejaVuSans-117"/>
       <path d="M 11.71875 12.40625 
L 22.015625 12.40625 
L 22.015625 4 
L 14.015625 -11.625 
L 7.71875 -11.625 
L 11.71875 4 
z
" id="DejaVuSans-44"/>
       <path d="M 18.109375 8.203125 
L 18.109375 -20.796875 
L 9.078125 -20.796875 
L 9.078125 54.6875 
L 18.109375 54.6875 
L 18.109375 46.390625 
Q 20.953125 51.265625 25.265625 53.625 
Q 29.59375 56 35.59375 56 
Q 45.5625 56 51.78125 48.09375 
Q 58.015625 40.1875 58.015625 27.296875 
Q 58.015625 14.40625 51.78125 6.484375 
Q 45.5625 -1.421875 35.59375 -1.421875 
Q 29.59375 -1.421875 25.265625 0.953125 
Q 20.953125 3.328125 18.109375 8.203125 
z
M 48.6875 27.296875 
Q 48.6875 37.203125 44.609375 42.84375 
Q 40.53125 48.484375 33.40625 48.484375 
Q 26.265625 48.484375 22.1875 42.84375 
Q 18.109375 37.203125 18.109375 27.296875 
Q 18.109375 17.390625 22.1875 11.75 
Q 26.265625 6.109375 33.40625 6.109375 
Q 40.53125 6.109375 44.609375 11.75 
Q 48.6875 17.390625 48.6875 27.296875 
z
" id="DejaVuSans-112"/>
      </defs>
      <use xlink:href="#DejaVuSans-70"/>
      <use x="50.269531" xlink:href="#DejaVuSans-114"/>
      <use x="91.382812" xlink:href="#DejaVuSans-97"/>
      <use x="152.662109" xlink:href="#DejaVuSans-99"/>
      <use x="207.642578" xlink:href="#DejaVuSans-116"/>
      <use x="246.851562" xlink:href="#DejaVuSans-105"/>
      <use x="274.634766" xlink:href="#DejaVuSans-111"/>
      <use x="335.816406" xlink:href="#DejaVuSans-110"/>
      <use x="399.195312" xlink:href="#DejaVuSans-32"/>
      <use x="430.982422" xlink:href="#DejaVuSans-111"/>
      <use x="492.164062" xlink:href="#DejaVuSans-102"/>
      <use x="527.369141" xlink:href="#DejaVuSans-32"/>
      <use x="559.15625" xlink:href="#DejaVuSans-102"/>
      <use x="594.361328" xlink:href="#DejaVuSans-117"/>
      <use x="657.740234" xlink:href="#DejaVuSans-110"/>
      <use x="721.119141" xlink:href="#DejaVuSans-99"/>
      <use x="776.099609" xlink:href="#DejaVuSans-116"/>
      <use x="815.308594" xlink:href="#DejaVuSans-105"/>
      <use x="843.091797" xlink:href="#DejaVuSans-111"/>
      <use x="904.273438" xlink:href="#DejaVuSans-110"/>
      <use x="967.652344" xlink:href="#DejaVuSans-44"/>
      <use x="999.439453" xlink:href="#DejaVuSans-116"/>
      <use x="1038.648438" xlink:href="#DejaVuSans-97"/>
      <use x="1099.927734" xlink:href="#DejaVuSans-114"/>
      <use x="1139.291016" xlink:href="#DejaVuSans-103"/>
      <use x="1202.767578" xlink:href="#DejaVuSans-101"/>
      <use x="1264.291016" xlink:href="#DejaVuSans-116"/>
      <use x="1303.5" xlink:href="#DejaVuSans-32"/>
      <use x="1335.287109" xlink:href="#DejaVuSans-112"/>
      <use x="1398.763672" xlink:href="#DejaVuSans-97"/>
      <use x="1460.042969" xlink:href="#DejaVuSans-105"/>
      <use x="1487.826172" xlink:href="#DejaVuSans-114"/>
      <use x="1528.939453" xlink:href="#DejaVuSans-115"/>
     </g>
    </g>
   </g>
   <g id="line2d_33">
    <defs>
     <path d="M 0 1.5 
C 0.397805 1.5 0.77937 1.341951 1.06066 1.06066 
C 1.341951 0.77937 1.5 0.397805 1.5 0 
C 1.5 -0.397805 1.341951 -0.77937 1.06066 -1.06066 
C 0.77937 -1.341951 0.397805 -1.5 0 -1.5 
C -0.397805 -1.5 -0.77937 -1.341951 -1.06066 -1.06066 
C -1.341951 -0.77937 -1.5 -0.397805 -1.5 0 
C -1.5 0.397805 -1.341951 0.77937 -1.06066 1.06066 
C -0.77937 1.341951 -0.397805 1.5 0 1.5 
z
" id="me1cdec0053" style="stroke:#f5deb3;"/>
    </defs>
    <g>
     <use style="fill:#f5deb3;stroke:#f5deb3;" x="72.125336" xlink:href="#me1cdec0053" y="30.334099"/>
     <use style="fill:#f5deb3;stroke:#f5deb3;" x="72.125336" xlink:href="#me1cdec0053" y="30.334099"/>
    </g>
   </g>
   <g id="line2d_34">
    <defs>
     <path d="M 0 1.5 
C 0.397805 1.5 0.77937 1.341951 1.06066 1.06066 
C 1.341951 0.77937 1.5 0.397805 1.5 0 
C 1.5 -0.397805 1.341951 -0.77937 1.06066 -1.06066 
C 0.77937 -1.341951 0.397805 -1.5 0 -1.5 
C -0.397805 -1.5 -0.77937 -1.341951 -1.06066 -1.06066 
C -1.341951 -0.77937 -1.5 -0.397805 -1.5 0 
C -1.5 0.397805 -1.341951 0.77937 -1.06066 1.06066 
C -0.77937 1.341951 -0.397805 1.5 0 1.5 
z
" id="m2182821a4b" style="stroke:#000080;"/>
    </defs>
    <g>
     <use style="fill:#000080;stroke:#000080;" x="151.747966" xlink:href="#m2182821a4b" y="30.334099"/>
     <use style="fill:#000080;stroke:#000080;" x="151.747966" xlink:href="#m2182821a4b" y="30.334099"/>
    </g>
   </g>
   <g id="line2d_35">
    <path d="M 17.444571 298.944 
L 17.444571 288.936964 
L 62.175444 288.936964 
L 62.175444 288.410278 
L 64.67102 288.410278 
L 64.67102 287.883592 
L 71.35013 287.883592 
L 71.35013 287.356906 
L 72.125336 287.356906 
L 72.125336 286.83022 
L 73.579452 286.83022 
L 73.579452 286.303534 
L 83.037197 286.303534 
L 83.037197 285.776848 
L 85.315119 285.776848 
L 85.315119 285.250162 
L 85.66744 285.250162 
L 85.66744 284.723476 
L 87.009585 284.723476 
L 87.009585 284.19679 
L 88.255778 284.19679 
L 88.255778 283.670104 
L 90.242884 283.670104 
L 90.242884 283.143418 
L 91.782644 283.143418 
L 91.782644 282.616732 
L 93.644601 282.616732 
L 93.644601 281.563359 
L 94.080605 281.563359 
L 94.080605 281.036673 
L 94.294587 281.036673 
L 94.294587 280.509987 
L 95.723163 280.509987 
L 95.723163 279.983301 
L 96.301313 279.983301 
L 96.301313 279.456615 
L 96.489848 279.456615 
L 96.489848 278.929929 
L 97.043522 278.929929 
L 97.043522 278.403243 
L 98.100772 278.403243 
L 98.100772 277.349871 
L 99.097574 277.349871 
L 99.097574 276.823185 
L 100.040467 276.823185 
L 100.040467 276.296499 
L 100.192776 276.296499 
L 100.192776 275.243126 
L 102.330873 275.243126 
L 102.330873 274.71644 
L 102.597126 274.71644 
L 102.597126 274.189754 
L 103.372333 274.189754 
L 103.372333 273.663068 
L 103.870632 273.663068 
L 103.870632 272.609696 
L 103.993014 272.609696 
L 103.993014 272.08301 
L 104.355088 272.08301 
L 104.355088 271.556324 
L 105.057436 271.556324 
L 105.057436 271.029638 
L 105.171792 271.029638 
L 105.171792 269.976266 
L 105.842616 269.976266 
L 105.951954 268.922893 
L 106.382575 268.922893 
L 106.48859 267.869521 
L 107.009204 267.869521 
L 107.111487 266.816149 
L 107.414787 266.816149 
L 107.414787 266.289463 
L 108.006005 266.289463 
L 108.006005 265.762777 
L 108.389302 265.762777 
L 108.389302 265.236091 
L 108.764355 265.236091 
L 108.764355 264.709405 
L 109.401893 264.709405 
L 109.491096 263.656033 
L 109.756002 263.656033 
L 109.843417 262.60266 
L 111.023335 262.60266 
L 111.023335 261.549288 
L 111.584648 261.549288 
L 111.584648 261.022602 
L 111.819788 261.022602 
L 111.819788 260.495916 
L 111.974805 260.495916 
L 111.974805 259.96923 
L 112.204777 259.96923 
L 112.204777 259.442544 
L 112.431755 259.442544 
L 112.431755 258.915858 
L 112.655818 258.915858 
L 112.655818 258.389172 
L 112.877038 258.389172 
L 112.877038 257.862486 
L 114.0117 257.862486 
L 114.0117 256.809114 
L 114.418861 256.809114 
L 114.485807 255.229055 
L 114.552496 255.229055 
L 114.552496 254.702369 
L 115.012316 254.702369 
L 115.012316 253.648997 
L 115.773423 253.648997 
L 115.773423 252.595625 
L 116.621333 252.595625 
L 116.621333 252.068939 
L 116.914437 252.068939 
L 116.914437 251.015567 
L 117.145424 251.015567 
L 117.145424 249.962195 
L 117.598418 249.962195 
L 117.598418 248.908822 
L 118.148599 248.908822 
L 118.148599 246.802078 
L 118.523652 246.802078 
L 118.523652 245.22202 
L 119.199476 245.22202 
L 119.199476 244.695334 
L 119.40226 244.695334 
L 119.40226 244.168648 
L 119.702083 244.168648 
L 119.702083 243.641962 
L 120.712642 243.641962 
L 120.759333 242.061903 
L 121.355214 242.061903 
L 121.355214 241.008531 
L 122.061712 241.008531 
L 122.061712 240.481845 
L 122.191052 240.481845 
L 122.276749 238.901787 
L 122.531342 238.901787 
L 122.531342 238.375101 
L 122.657258 238.375101 
L 122.657258 237.321729 
L 122.865118 237.321729 
L 122.906394 236.268356 
L 123.593547 236.268356 
L 123.633136 235.214984 
L 123.907776 235.214984 
L 123.94666 234.161612 
L 124.254646 234.161612 
L 124.254646 233.634926 
L 124.557288 233.634926 
L 124.557288 233.10824 
L 124.706662 233.10824 
L 124.780872 231.001496 
L 125.038147 231.001496 
L 125.038147 230.47481 
L 125.219619 230.47481 
L 125.327602 228.894751 
L 125.612332 228.894751 
L 125.647598 227.841379 
L 126.573795 227.841379 
L 126.573795 226.261321 
L 126.773103 226.261321 
L 126.773103 224.154577 
L 127.067859 224.154577 
L 127.132689 222.047832 
L 127.261631 222.047832 
L 127.261631 221.521146 
L 127.389626 221.521146 
L 127.48501 220.467774 
L 127.954256 220.467774 
L 127.985095 218.887716 
L 128.138476 218.887716 
L 128.229861 215.727599 
L 128.531065 215.727599 
L 128.531065 211.514111 
L 128.827155 211.514111 
L 128.827155 210.987425 
L 129.31925 210.987425 
L 129.31925 209.934052 
L 129.630422 209.934052 
L 129.630422 209.407366 
L 129.908566 209.407366 
L 129.991152 208.353994 
L 130.182344 208.353994 
L 130.236587 206.773936 
L 130.822389 206.773936 
L 130.848555 205.193878 
L 131.490249 205.193878 
L 131.490249 203.087133 
L 131.839545 203.087133 
L 131.839545 202.560447 
L 132.011604 202.560447 
L 132.011604 200.980389 
L 132.133473 200.980389 
L 132.230358 199.400331 
L 132.278599 199.400331 
L 132.278599 197.820273 
L 132.494049 197.820273 
L 132.494049 197.293586 
L 132.70687 197.293586 
L 132.70687 195.713528 
L 132.963507 195.713528 
L 132.963507 195.186842 
L 133.078923 195.186842 
L 133.078923 194.13347 
L 133.33018 194.13347 
L 133.420657 192.553412 
L 133.622529 192.553412 
L 133.622529 187.286551 
L 133.733678 187.286551 
L 133.844123 185.179807 
L 133.997581 185.179807 
L 134.062938 183.599748 
L 134.192921 183.599748 
L 134.214491 180.439632 
L 134.407429 180.439632 
L 134.513701 178.859574 
L 134.787017 178.859574 
L 134.787017 177.806202 
L 134.953107 177.806202 
L 134.994383 174.646085 
L 135.158519 174.646085 
L 135.240011 173.066027 
L 135.300881 173.066027 
L 135.381712 171.485969 
L 135.421987 171.485969 
L 135.421987 170.959282 
L 135.621981 170.959282 
L 135.681535 168.325852 
L 135.97629 168.325852 
L 135.97629 167.27248 
L 136.304433 167.27248 
L 136.304433 166.745794 
L 136.418789 166.745794 
L 136.513517 164.112363 
L 136.720123 164.112363 
L 136.720123 163.585677 
L 137.034686 163.585677 
L 137.034686 163.058991 
L 137.415591 163.058991 
L 137.415591 162.005619 
L 137.68266 162.005619 
L 137.68266 160.425561 
L 138.084384 160.425561 
L 138.187677 158.318817 
L 138.204833 158.318817 
L 138.204833 157.265444 
L 138.510793 157.265444 
L 138.561269 155.1587 
L 138.645071 155.1587 
L 138.645071 154.105328 
L 138.89409 154.105328 
L 138.89409 153.578642 
L 139.02546 153.578642 
L 139.02546 153.051956 
L 139.285267 153.051956 
L 139.349619 150.945211 
L 139.413734 150.945211 
L 139.509467 148.311781 
L 139.730821 148.311781 
L 139.77789 145.151665 
L 140.11924 145.151665 
L 140.180592 143.04492 
L 140.317849 143.04492 
L 140.408758 136.198001 
L 140.529237 136.198001 
L 140.589166 134.617943 
L 140.64889 134.617943 
L 140.752916 133.564571 
L 140.812083 133.564571 
L 140.812083 133.037885 
L 140.959126 133.037885 
L 140.959126 131.984513 
L 141.133958 131.984513 
L 141.133958 131.457826 
L 141.46423 131.457826 
L 141.46423 130.93114 
L 141.634094 130.93114 
L 141.648175 129.877768 
L 141.788363 129.877768 
L 141.885829 128.824396 
L 141.941279 128.824396 
L 142.037896 124.610907 
L 142.147664 124.610907 
L 142.147664 123.557535 
L 142.33811 123.557535 
L 142.432559 121.450791 
L 142.459451 121.450791 
L 142.459451 119.870733 
L 142.579953 119.870733 
L 142.579953 119.344047 
L 142.726112 119.344047 
L 142.726112 118.817361 
L 142.857929 118.817361 
L 142.936543 115.130558 
L 143.066785 115.130558 
L 143.170282 111.970441 
L 143.183176 111.970441 
L 143.183176 111.443755 
L 143.553018 111.443755 
L 143.615998 109.337011 
L 143.691276 109.337011 
L 143.778691 107.230267 
L 143.840863 107.230267 
L 143.915178 103.543464 
L 144.026061 103.543464 
L 144.026061 103.016778 
L 144.629556 103.016778 
L 144.653267 99.329976 
L 144.794859 99.329976 
L 144.794859 97.749917 
L 144.93531 97.749917 
L 144.993499 92.483056 
L 145.097753 92.483056 
L 145.143889 91.429684 
L 145.474772 91.429684 
L 145.48607 88.796254 
L 145.609873 88.796254 
L 145.699363 84.582765 
L 145.799493 84.582765 
L 145.899052 80.369277 
L 145.943118 80.369277 
L 145.943118 78.262532 
L 146.08557 78.262532 
L 146.08557 77.735846 
L 146.237689 77.735846 
L 146.248504 76.682474 
L 146.356287 76.682474 
L 146.452726 73.522358 
L 146.675697 73.522358 
L 146.77039 67.202125 
L 146.791364 67.202125 
L 146.791364 66.148752 
L 146.906268 66.148752 
L 146.978997 65.09538 
L 147.12355 65.09538 
L 147.12355 64.568694 
L 147.307662 64.568694 
L 147.327999 61.935264 
L 147.429332 61.935264 
L 147.439433 59.82852 
L 147.828875 59.82852 
L 147.888024 55.615031 
L 148.025265 55.615031 
L 148.103206 54.034973 
L 148.1808 54.034973 
L 148.267683 52.454914 
L 148.344551 52.454914 
L 148.421081 50.874856 
L 148.478259 50.874856 
L 148.582601 47.71474 
L 148.592055 47.71474 
L 148.667509 45.081309 
L 148.752007 45.081309 
L 148.770728 41.921193 
L 149.131841 41.921193 
L 149.214124 40.867821 
L 149.277854 40.867821 
L 149.332295 39.287762 
L 149.485628 39.287762 
L 149.485628 38.761076 
L 149.619812 38.761076 
L 149.619812 38.23439 
L 149.920192 38.23439 
L 150.024985 36.127646 
L 150.129152 36.127646 
L 150.215485 35.074274 
L 150.480434 35.074274 
L 150.480434 33.494215 
L 150.73306 33.494215 
L 150.73306 32.967529 
L 151.015013 32.967529 
L 151.015013 31.914157 
L 151.251953 31.914157 
L 151.251953 31.387471 
L 151.557631 31.387471 
L 151.557631 30.860785 
L 151.747966 30.860785 
L 151.747966 30.334099 
L 338.688 30.334099 
L 338.688 30.334099 
" style="fill:none;stroke:#000080;stroke-linecap:square;stroke-width:1.5;"/>
   </g>
   <g id="line2d_36">
    <defs>
     <path d="M 0 6 
C 1.591219 6 3.117479 5.367802 4.242641 4.242641 
C 5.367802 3.117479 6 1.591219 6 0 
C 6 -1.591219 5.367802 -3.117479 4.242641 -4.242641 
C 3.117479 -5.367802 1.591219 -6 0 -6 
C -1.591219 -6 -3.117479 -5.367802 -4.242641 -4.242641 
C -5.367802 -3.117479 -6 -1.591219 -6 0 
C -6 1.591219 -5.367802 3.117479 -4.242641 4.242641 
C -3.117479 5.367802 -1.591219 6 0 6 
z
" id="m7e22f19201" style="stroke:#000080;stroke-width:1.5;"/>
    </defs>
    <g>
     <use style="fill-opacity:0;stroke:#000080;stroke-width:1.5;" x="127.067859" xlink:href="#m7e22f19201" y="222.574518"/>
     <use style="fill-opacity:0;stroke:#000080;stroke-width:1.5;" x="144.629556" xlink:href="#m7e22f19201" y="101.43672"/>
     <use style="fill-opacity:0;stroke:#000080;stroke-width:1.5;" x="151.747966" xlink:href="#m7e22f19201" y="30.860785"/>
     <use style="fill-opacity:0;stroke:#000080;stroke-width:1.5;" x="151.747966" xlink:href="#m7e22f19201" y="30.334099"/>
     <use style="fill-opacity:0;stroke:#000080;stroke-width:1.5;" x="151.747966" xlink:href="#m7e22f19201" y="30.334099"/>
     <use style="fill-opacity:0;stroke:#000080;stroke-width:1.5;" x="338.688" xlink:href="#m7e22f19201" y="30.334099"/>
    </g>
   </g>
   <g id="line2d_37">
    <path style="fill:none;stroke:#000080;stroke-linecap:square;stroke-width:1.5;"/>
    <g/>
   </g>
   <g id="line2d_38">
    <defs>
     <path d="M 0 1.5 
C 0.397805 1.5 0.77937 1.341951 1.06066 1.06066 
C 1.341951 0.77937 1.5 0.397805 1.5 0 
C 1.5 -0.397805 1.341951 -0.77937 1.06066 -1.06066 
C 0.77937 -1.341951 0.397805 -1.5 0 -1.5 
C -0.397805 -1.5 -0.77937 -1.341951 -1.06066 -1.06066 
C -1.341951 -0.77937 -1.5 -0.397805 -1.5 0 
C -1.5 0.397805 -1.341951 0.77937 -1.06066 1.06066 
C -0.77937 1.341951 -0.397805 1.5 0 1.5 
z
" id="m33364791c3" style="stroke:#ff00ff;"/>
    </defs>
    <g>
     <use style="fill:#ff00ff;stroke:#ff00ff;" x="153.402218" xlink:href="#m33364791c3" y="30.334099"/>
     <use style="fill:#ff00ff;stroke:#ff00ff;" x="153.402218" xlink:href="#m33364791c3" y="30.334099"/>
    </g>
   </g>
   <g id="line2d_39">
    <path d="M 17.444571 298.944 
L 17.444571 287.883592 
L 65.796525 287.883592 
L 65.796525 287.356906 
L 72.867545 287.356906 
L 72.867545 286.303534 
L 73.579452 286.303534 
L 73.579452 285.776848 
L 81.334453 285.776848 
L 81.334453 285.250162 
L 84.588378 285.250162 
L 84.588378 284.723476 
L 86.683608 284.723476 
L 86.683608 284.19679 
L 87.009585 284.19679 
L 87.009585 283.670104 
L 88.553893 283.670104 
L 88.553893 283.143418 
L 89.697862 283.143418 
L 89.697862 282.616732 
L 91.284345 282.616732 
L 91.284345 282.090045 
L 91.782644 282.090045 
L 91.782644 281.563359 
L 93.197415 281.563359 
L 93.197415 281.036673 
L 94.505975 281.036673 
L 94.505975 280.509987 
L 95.125186 280.509987 
L 95.125186 279.456615 
L 95.526106 279.456615 
L 95.526106 278.929929 
L 97.043522 278.929929 
L 97.043522 278.403243 
L 97.928955 278.403243 
L 97.928955 277.349871 
L 98.100772 277.349871 
L 98.100772 276.823185 
L 99.731799 276.823185 
L 99.731799 276.296499 
L 100.040467 276.296499 
L 100.040467 275.769812 
L 101.365607 275.769812 
L 101.365607 275.243126 
L 101.646892 275.243126 
L 101.646892 274.71644 
L 101.785851 274.71644 
L 101.785851 274.189754 
L 102.464508 274.189754 
L 102.464508 273.663068 
L 103.870632 273.663068 
L 103.870632 273.136382 
L 104.23523 273.136382 
L 104.23523 272.609696 
L 105.057436 272.609696 
L 105.057436 272.08301 
L 105.51043 272.08301 
L 105.51043 271.029638 
L 105.621863 271.029638 
L 105.621863 270.502952 
L 105.951954 270.502952 
L 105.951954 269.976266 
L 106.802819 269.976266 
L 106.802819 269.449579 
L 107.414787 269.449579 
L 107.514726 268.396207 
L 107.712901 268.396207 
L 107.712901 267.869521 
L 108.006005 267.869521 
L 108.102622 266.816149 
L 108.671345 266.816149 
L 108.671345 266.289463 
L 108.948899 266.289463 
L 109.040444 265.236091 
L 110.358901 265.236091 
L 110.358901 264.709405 
L 110.694282 264.709405 
L 110.694282 264.182719 
L 111.023335 264.182719 
L 111.104637 262.075974 
L 111.584648 262.075974 
L 111.584648 261.022602 
L 112.431755 261.022602 
L 112.431755 260.495916 
L 112.877038 260.495916 
L 112.877038 259.96923 
L 113.594805 259.96923 
L 113.594805 259.442544 
L 113.804498 259.442544 
L 113.804498 258.915858 
L 114.0117 258.915858 
L 114.080224 256.809114 
L 114.351658 256.809114 
L 114.351658 256.282427 
L 115.460322 256.282427 
L 115.460322 255.755741 
L 115.648856 255.755741 
L 115.648856 255.229055 
L 115.897107 255.229055 
L 115.958621 254.175683 
L 116.019919 254.175683 
L 116.081002 253.122311 
L 116.141872 253.122311 
L 116.141872 252.595625 
L 116.621333 252.595625 
L 116.621333 252.068939 
L 117.373392 252.068939 
L 117.373392 251.542253 
L 118.039942 251.542253 
L 118.039942 251.015567 
L 118.523652 251.015567 
L 118.629344 249.435508 
L 118.786692 249.435508 
L 118.786692 248.908822 
L 119.80089 248.908822 
L 119.80089 247.85545 
L 120.142369 247.85545 
L 120.238719 246.275392 
L 120.524615 246.275392 
L 120.524615 245.748706 
L 121.036887 245.748706 
L 121.036887 245.22202 
L 121.355214 245.22202 
L 121.355214 244.695334 
L 122.018385 244.695334 
L 122.018385 244.168648 
L 122.276749 244.168648 
L 122.362027 242.588589 
L 122.782271 242.588589 
L 122.782271 242.061903 
L 122.988655 242.061903 
L 122.988655 241.535217 
L 123.354102 241.535217 
L 123.354102 241.008531 
L 123.593547 241.008531 
L 123.633136 238.901787 
L 123.712047 238.901787 
L 123.751369 237.321729 
L 123.907776 237.321729 
L 123.907776 236.795043 
L 124.062793 236.795043 
L 124.062793 235.214984 
L 124.292765 235.214984 
L 124.292765 234.688298 
L 124.519744 234.688298 
L 124.519744 234.161612 
L 125.255688 234.161612 
L 125.327602 233.10824 
L 125.892487 233.10824 
L 125.892487 232.581554 
L 126.202373 232.581554 
L 126.202373 232.054868 
L 126.372183 232.054868 
L 126.439646 229.421437 
L 126.573795 229.421437 
L 126.673734 228.368065 
L 126.97016 228.368065 
L 126.97016 227.314693 
L 127.293718 227.314693 
L 127.293718 226.788007 
L 127.516689 226.788007 
L 127.516689 225.734635 
L 127.705564 225.734635 
L 127.705564 225.207949 
L 127.861412 225.207949 
L 127.861412 223.627891 
L 127.985095 223.627891 
L 127.985095 223.101204 
L 128.199452 223.101204 
L 128.199452 222.047832 
L 128.411207 222.047832 
L 128.411207 221.521146 
L 128.709321 221.521146 
L 128.709321 219.941088 
L 128.856489 219.941088 
L 128.91501 218.887716 
L 129.031467 218.887716 
L 129.118302 217.834344 
L 129.630422 217.834344 
L 129.714332 216.780971 
L 129.770048 216.780971 
L 129.79784 215.727599 
L 130.100661 215.727599 
L 130.182344 211.514111 
L 130.478617 211.514111 
L 130.478617 210.987425 
L 131.26195 210.987425 
L 131.26195 209.407366 
L 131.540579 209.407366 
L 131.540579 208.88068 
L 131.814826 208.88068 
L 131.814826 206.773936 
L 132.157744 206.773936 
L 132.157744 206.24725 
L 132.350712 206.24725 
L 132.446401 204.667192 
L 132.494049 204.667192 
L 132.494049 204.140506 
L 133.147807 204.140506 
L 133.147807 202.560447 
L 133.375477 202.560447 
L 133.375477 201.507075 
L 133.622529 201.507075 
L 133.667073 197.820273 
L 133.800029 197.820273 
L 133.800029 197.293586 
L 133.931979 197.293586 
L 133.931979 196.240214 
L 134.106373 196.240214 
L 134.149701 193.606784 
L 134.343353 193.606784 
L 134.364738 191.50004 
L 134.807865 191.50004 
L 134.807865 190.446667 
L 134.973757 190.446667 
L 135.076644 188.339923 
L 135.260324 188.339923 
L 135.280614 185.706493 
L 135.381712 185.706493 
L 135.482227 183.599748 
L 135.50226 183.599748 
L 135.50226 183.073062 
L 135.721125 183.073062 
L 135.721125 182.546376 
L 135.839358 182.546376 
L 135.858985 181.493004 
L 136.170062 181.493004 
L 136.170062 180.966318 
L 136.342635 180.966318 
L 136.437776 178.332888 
L 136.551264 178.332888 
L 136.645276 176.752829 
L 136.701442 176.752829 
L 136.757427 174.119399 
L 136.813232 174.119399 
L 136.813232 173.592713 
L 136.96118 173.592713 
L 136.96118 171.485969 
L 137.162581 171.485969 
L 137.271464 169.379224 
L 137.361683 169.379224 
L 137.361683 168.325852 
L 137.558536 168.325852 
L 137.558536 166.219108 
L 137.717962 166.219108 
L 137.753193 165.165736 
L 137.945701 165.165736 
L 137.963097 163.585677 
L 138.084384 163.585677 
L 138.153314 161.478933 
L 138.324456 161.478933 
L 138.324456 160.952247 
L 138.510793 160.952247 
L 138.510793 160.425561 
L 138.69516 160.425561 
L 138.69516 159.372189 
L 138.877599 159.372189 
L 138.877599 158.845503 
L 139.058148 158.845503 
L 139.058148 158.318817 
L 139.333553 158.318817 
L 139.413734 157.265444 
L 139.746525 157.265444 
L 139.856059 155.685386 
L 140.211187 155.685386 
L 140.302652 153.051956 
L 140.544239 153.051956 
L 140.604116 151.998584 
L 140.841591 151.998584 
L 140.944478 149.365153 
L 141.162927 149.365153 
L 141.162927 147.785095 
L 141.378673 147.785095 
L 141.435758 145.151665 
L 141.492656 145.151665 
L 141.577657 143.571606 
L 141.71841 143.571606 
L 141.71841 141.991548 
L 141.830201 141.991548 
L 141.830201 140.938176 
L 141.968939 140.938176 
L 142.065403 136.724687 
L 142.120287 136.724687 
L 142.188649 135.144629 
L 142.243147 135.144629 
L 142.324576 133.037885 
L 142.419098 133.037885 
L 142.419098 132.511199 
L 142.606619 132.511199 
L 142.619936 130.404454 
L 142.765762 130.404454 
L 142.792145 129.351082 
L 143.053804 129.351082 
L 143.092717 128.29771 
L 143.196061 128.29771 
L 143.298796 126.717652 
L 143.439077 126.717652 
L 143.540394 124.610907 
L 143.615998 124.610907 
L 143.691276 120.924105 
L 143.75376 120.924105 
L 143.803587 118.817361 
L 143.989178 118.817361 
L 144.087359 116.18393 
L 144.160633 116.18393 
L 144.233601 115.130558 
L 144.510517 115.130558 
L 144.59393 110.390383 
L 144.688773 110.390383 
L 144.724207 108.283639 
L 144.818346 108.283639 
L 144.841802 107.230267 
L 144.946964 107.230267 
L 144.946964 106.176895 
L 145.074639 106.176895 
L 145.074639 105.650209 
L 145.201387 105.650209 
L 145.270136 101.963406 
L 145.327221 101.963406 
L 145.327221 101.43672 
L 145.452153 101.43672 
L 145.497361 99.329976 
L 145.576196 99.329976 
L 145.576196 97.749917 
L 145.699363 97.749917 
L 145.699363 97.223231 
L 145.943118 97.223231 
L 145.943118 96.696545 
L 146.06373 96.696545 
L 146.129168 95.643173 
L 146.313254 95.643173 
L 146.420639 92.483056 
L 146.538004 92.483056 
L 146.644018 89.32294 
L 146.654584 89.32294 
L 146.654584 88.269568 
L 146.77039 88.269568 
L 146.77039 87.216196 
L 146.885432 87.216196 
L 146.885432 86.162824 
L 147.226074 86.162824 
L 147.327999 84.056079 
L 147.449528 84.056079 
L 147.56019 78.262532 
L 147.670154 78.262532 
L 147.779429 76.155788 
L 148.064279 76.155788 
L 148.112924 72.995672 
L 148.209809 72.995672 
L 148.315765 71.942299 
L 148.421081 71.942299 
L 148.525764 64.042008 
L 148.563676 64.042008 
L 148.563676 63.515322 
L 148.733265 63.515322 
L 148.780082 62.46195 
L 148.938326 62.46195 
L 149.039959 60.881892 
L 149.095146 60.881892 
L 149.141003 59.301833 
L 149.485628 59.301833 
L 149.548376 53.508287 
L 149.637625 53.508287 
L 149.735275 51.928228 
L 149.88512 51.928228 
L 149.928949 50.34817 
L 149.998846 50.34817 
L 150.024985 49.294798 
L 150.120495 49.294798 
L 150.215485 47.188054 
L 150.241302 47.188054 
L 150.327083 45.081309 
L 150.403927 45.081309 
L 150.49739 39.814448 
L 150.590355 39.814448 
L 150.590355 39.287762 
L 150.774811 39.287762 
L 150.774811 37.707704 
L 151.557631 37.707704 
L 151.60541 36.654332 
L 151.684751 36.654332 
L 151.755852 35.074274 
L 151.928441 35.074274 
L 151.928441 34.547588 
L 152.137948 34.547588 
L 152.137948 34.020902 
L 152.39064 34.020902 
L 152.39064 32.967529 
L 152.602211 32.967529 
L 152.602211 32.440843 
L 152.907453 32.440843 
L 153.01047 31.387471 
L 153.402218 31.387471 
L 153.402218 30.334099 
L 338.688 30.334099 
L 338.688 30.334099 
" style="fill:none;stroke:#ff00ff;stroke-linecap:square;stroke-width:1.5;"/>
   </g>
   <g id="line2d_40">
    <defs>
     <path d="M -0 8.485281 
L 5.091169 0 
L 0 -8.485281 
L -5.091169 -0 
z
" id="m6fefe899a1" style="stroke:#ff00ff;stroke-linejoin:miter;stroke-width:1.5;"/>
    </defs>
    <g>
     <use style="fill-opacity:0;stroke:#ff00ff;stroke-linejoin:miter;stroke-width:1.5;" x="93.197415" xlink:href="#m6fefe899a1" y="281.563359"/>
     <use style="fill-opacity:0;stroke:#ff00ff;stroke-linejoin:miter;stroke-width:1.5;" x="134.364738" xlink:href="#m6fefe899a1" y="191.50004"/>
     <use style="fill-opacity:0;stroke:#ff00ff;stroke-linejoin:miter;stroke-width:1.5;" x="151.928441" xlink:href="#m6fefe899a1" y="35.074274"/>
     <use style="fill-opacity:0;stroke:#ff00ff;stroke-linejoin:miter;stroke-width:1.5;" x="153.402218" xlink:href="#m6fefe899a1" y="30.334099"/>
     <use style="fill-opacity:0;stroke:#ff00ff;stroke-linejoin:miter;stroke-width:1.5;" x="153.402218" xlink:href="#m6fefe899a1" y="30.334099"/>
     <use style="fill-opacity:0;stroke:#ff00ff;stroke-linejoin:miter;stroke-width:1.5;" x="338.688" xlink:href="#m6fefe899a1" y="30.334099"/>
    </g>
   </g>
   <g id="line2d_41">
    <path style="fill:none;stroke:#ff00ff;stroke-linecap:square;stroke-width:1.5;"/>
    <g/>
   </g>
   <g id="line2d_42">
    <defs>
     <path d="M 0 1.5 
C 0.397805 1.5 0.77937 1.341951 1.06066 1.06066 
C 1.341951 0.77937 1.5 0.397805 1.5 0 
C 1.5 -0.397805 1.341951 -0.77937 1.06066 -1.06066 
C 0.77937 -1.341951 0.397805 -1.5 0 -1.5 
C -0.397805 -1.5 -0.77937 -1.341951 -1.06066 -1.06066 
C -1.341951 -0.77937 -1.5 -0.397805 -1.5 0 
C -1.5 0.397805 -1.341951 0.77937 -1.06066 1.06066 
C -0.77937 1.341951 -0.397805 1.5 0 1.5 
z
" id="m2b1069c089" style="stroke:#ff7500;"/>
    </defs>
    <g>
     <use style="fill:#ff7500;stroke:#ff7500;" x="151.826663" xlink:href="#m2b1069c089" y="30.334099"/>
     <use style="fill:#ff7500;stroke:#ff7500;" x="151.826663" xlink:href="#m2b1069c089" y="30.334099"/>
    </g>
   </g>
   <g id="line2d_43">
    <path d="M 17.444571 298.944 
L 17.444571 288.410278 
L 62.175444 288.410278 
L 62.175444 287.883592 
L 64.67102 287.883592 
L 64.67102 287.356906 
L 71.35013 287.356906 
L 71.35013 286.83022 
L 72.125336 286.83022 
L 72.125336 286.303534 
L 73.579452 286.303534 
L 73.579452 285.776848 
L 79.938565 285.776848 
L 79.938565 285.250162 
L 83.037197 285.250162 
L 83.037197 284.723476 
L 85.315119 284.723476 
L 85.315119 284.19679 
L 88.255778 284.19679 
L 88.255778 283.670104 
L 89.697862 283.670104 
L 89.697862 283.143418 
L 91.782644 283.143418 
L 91.782644 282.616732 
L 92.504372 282.616732 
L 92.504372 282.090045 
L 92.969447 282.090045 
L 92.969447 281.563359 
L 94.080605 281.563359 
L 94.080605 281.036673 
L 94.294587 281.036673 
L 94.294587 280.509987 
L 96.301313 280.509987 
L 96.301313 279.983301 
L 96.489848 279.983301 
L 96.489848 279.456615 
L 97.043522 279.456615 
L 97.043522 278.929929 
L 98.100772 278.929929 
L 98.100772 277.876557 
L 98.43941 277.876557 
L 98.43941 277.349871 
L 99.097574 277.349871 
L 99.097574 276.823185 
L 99.731799 276.823185 
L 99.731799 276.296499 
L 100.040467 276.296499 
L 100.040467 275.769812 
L 100.192776 275.769812 
L 100.192776 274.71644 
L 100.934985 274.71644 
L 100.934985 274.189754 
L 102.330873 274.189754 
L 102.330873 273.663068 
L 102.597126 273.663068 
L 102.597126 273.136382 
L 103.498249 273.136382 
L 103.498249 272.609696 
L 105.171792 272.609696 
L 105.171792 272.08301 
L 105.842616 272.08301 
L 105.951954 271.029638 
L 106.382575 271.029638 
L 106.48859 269.449579 
L 107.009204 269.449579 
L 107.009204 268.396207 
L 107.314272 268.396207 
L 107.414787 267.342835 
L 108.006005 267.342835 
L 108.006005 266.816149 
L 108.389302 266.816149 
L 108.389302 266.289463 
L 108.764355 266.289463 
L 108.764355 265.762777 
L 109.401893 265.762777 
L 109.491096 264.709405 
L 109.756002 264.709405 
L 109.756002 264.182719 
L 109.930396 264.182719 
L 109.930396 263.656033 
L 110.527398 263.656033 
L 110.527398 263.129347 
L 110.859585 263.129347 
L 110.859585 262.60266 
L 111.104637 262.60266 
L 111.104637 262.075974 
L 111.663381 262.075974 
L 111.663381 261.549288 
L 111.897469 261.549288 
L 111.897469 261.022602 
L 112.051799 261.022602 
L 112.051799 260.495916 
L 112.506763 260.495916 
L 112.506763 259.442544 
L 112.72987 259.442544 
L 112.803609 258.389172 
L 114.080224 258.389172 
L 114.080224 257.862486 
L 114.351658 257.862486 
L 114.418861 256.809114 
L 114.485807 256.809114 
L 114.552496 255.755741 
L 114.618932 255.755741 
L 114.618932 255.229055 
L 115.077025 255.229055 
L 115.141496 254.175683 
L 115.835374 254.175683 
L 115.835374 252.068939 
L 116.680349 252.068939 
L 116.680349 251.542253 
L 116.797786 251.542253 
L 116.797786 251.015567 
L 116.972471 251.015567 
L 116.972471 250.488881 
L 117.202696 250.488881 
L 117.202696 248.908822 
L 117.654224 248.908822 
L 117.654224 248.382136 
L 118.202674 248.382136 
L 118.202674 247.328764 
L 118.576578 247.328764 
L 118.681952 245.748706 
L 118.942633 245.748706 
L 118.942633 245.22202 
L 119.250393 245.22202 
L 119.250393 244.695334 
L 119.751557 244.695334 
L 119.751557 244.168648 
L 120.429836 244.168648 
L 120.429836 243.641962 
L 120.759333 243.641962 
L 120.8059 241.535217 
L 121.400219 241.535217 
L 121.400219 240.481845 
L 121.756135 240.481845 
L 121.756135 239.955159 
L 122.018385 239.955159 
L 122.104932 238.375101 
L 122.233953 238.375101 
L 122.31944 236.795043 
L 122.489167 236.795043 
L 122.489167 234.161612 
L 122.740699 234.161612 
L 122.740699 233.634926 
L 122.988655 233.634926 
L 122.988655 232.581554 
L 123.751369 232.581554 
L 123.751369 232.054868 
L 124.024168 232.054868 
L 124.024168 231.528182 
L 124.632135 231.528182 
L 124.632135 231.001496 
L 124.817858 231.001496 
L 124.817858 228.894751 
L 125.001625 228.894751 
L 125.110962 227.314693 
L 125.291682 227.314693 
L 125.399222 226.261321 
L 125.682793 226.261321 
L 125.717918 225.207949 
L 126.133984 225.207949 
L 126.133984 224.681263 
L 126.439646 224.681263 
L 126.439646 224.154577 
L 126.640485 224.154577 
L 126.640485 222.047832 
L 126.839037 222.047832 
L 126.839037 220.99446 
L 127.100304 220.99446 
L 127.197279 218.36103 
L 127.325746 218.36103 
L 127.325746 217.834344 
L 128.015879 217.834344 
L 128.046609 216.780971 
L 128.199452 216.780971 
L 128.290519 214.147541 
L 128.590686 214.147541 
L 128.590686 212.040797 
L 128.885774 212.040797 
L 128.885774 210.460738 
L 129.376241 210.460738 
L 129.376241 209.934052 
L 129.714332 209.934052 
L 129.714332 209.407366 
L 129.991152 209.407366 
L 129.991152 208.88068 
L 130.155159 208.88068 
L 130.155159 208.353994 
L 130.317637 208.353994 
L 130.317637 207.827308 
L 130.585116 207.827308 
L 130.585116 207.300622 
L 130.822389 207.300622 
L 130.926816 203.613819 
L 131.565689 203.613819 
L 131.565689 201.507075 
L 131.913493 201.507075 
L 131.962617 200.453703 
L 132.084827 200.453703 
L 132.084827 198.873645 
L 132.230358 198.873645 
L 132.30267 197.820273 
L 132.350712 197.820273 
L 132.350712 196.7669 
L 132.565279 196.7669 
L 132.565279 196.240214 
L 132.777237 196.240214 
L 132.777237 194.660156 
L 133.032848 194.660156 
L 133.032848 194.13347 
L 133.147807 194.13347 
L 133.147807 193.606784 
L 133.398082 193.606784 
L 133.488207 192.026726 
L 133.689303 192.026726 
L 133.689303 188.339923 
L 133.910056 188.339923 
L 133.910056 187.286551 
L 134.062938 187.286551 
L 134.12805 185.179807 
L 134.257551 185.179807 
L 134.343353 180.439632 
L 134.787017 180.439632 
L 134.870259 179.38626 
L 135.056115 179.38626 
L 135.138086 176.752829 
L 135.280614 176.752829 
L 135.381712 175.172771 
L 135.46217 175.172771 
L 135.50226 173.066027 
L 135.701341 173.066027 
L 135.760625 170.959282 
L 136.054058 170.959282 
L 136.150782 169.379224 
L 136.170062 169.379224 
L 136.170062 168.852538 
L 136.380754 168.852538 
L 136.380754 168.325852 
L 136.494612 168.325852 
L 136.58893 165.692422 
L 136.79465 165.692422 
L 136.887363 164.112363 
L 137.126135 164.112363 
L 137.126135 163.585677 
L 137.271464 163.585677 
L 137.271464 163.058991 
L 137.48721 163.058991 
L 137.594091 160.952247 
L 137.753193 160.952247 
L 137.753193 159.372189 
L 138.153314 159.372189 
L 138.187677 157.265444 
L 138.27329 157.265444 
L 138.290362 155.685386 
L 138.594838 155.685386 
L 138.645071 153.578642 
L 138.728473 153.578642 
L 138.728473 153.051956 
L 138.976312 153.051956 
L 138.976312 152.52527 
L 139.107066 152.52527 
L 139.107066 151.998584 
L 139.269142 151.998584 
L 139.36567 150.945211 
L 139.413734 150.945211 
L 139.429726 149.891839 
L 139.572998 149.891839 
L 139.588845 146.731723 
L 139.8092 146.731723 
L 139.918342 143.571606 
L 140.195896 143.571606 
L 140.256979 140.938176 
L 140.393639 140.938176 
L 140.484155 133.037885 
L 140.663789 133.037885 
L 140.663789 132.511199 
L 140.826843 132.511199 
L 140.88576 131.457826 
L 141.032186 131.457826 
L 141.032186 128.824396 
L 141.20629 128.824396 
L 141.20629 128.29771 
L 141.549369 128.29771 
L 141.577657 126.717652 
L 141.732423 126.717652 
L 141.732423 126.190966 
L 141.871938 126.190966 
L 141.871938 125.66428 
L 142.037896 125.66428 
L 142.120287 119.870733 
L 142.229539 119.870733 
L 142.229539 119.344047 
L 142.419098 119.344047 
L 142.51311 117.763988 
L 142.539878 117.763988 
L 142.539878 116.710616 
L 142.659828 116.710616 
L 142.659828 116.18393 
L 142.805321 116.18393 
L 142.805321 115.657244 
L 143.001786 115.657244 
L 143.014805 111.970441 
L 143.144465 111.970441 
L 143.247504 109.863697 
L 143.260342 109.863697 
L 143.260342 109.337011 
L 143.439077 109.337011 
L 143.489809 108.283639 
L 143.60342 108.283639 
L 143.666219 105.650209 
L 143.76623 105.650209 
L 143.853271 104.07015 
L 143.915178 104.07015 
L 144.001481 99.329976 
L 144.111818 99.329976 
L 144.111818 98.803289 
L 144.712404 98.803289 
L 144.736002 96.169859 
L 145.016721 96.169859 
L 145.074639 91.95637 
L 145.178411 91.95637 
L 145.224334 90.902998 
L 145.452153 90.902998 
L 145.553708 88.269568 
L 145.564956 88.269568 
L 145.564956 87.216196 
L 145.688202 87.216196 
L 145.777292 83.002707 
L 145.876977 83.002707 
L 145.976095 80.895963 
L 146.019967 80.895963 
L 146.074653 79.315904 
L 146.161795 79.315904 
L 146.161795 78.262532 
L 146.313254 78.262532 
L 146.313254 77.735846 
L 146.442037 77.735846 
L 146.538004 73.522358 
L 146.759894 73.522358 
L 146.854132 66.675439 
L 146.875005 66.675439 
L 146.875005 65.622066 
L 147.205618 65.622066 
L 147.205618 64.568694 
L 147.338159 64.568694 
L 147.409112 61.935264 
L 147.509976 61.935264 
L 147.52003 59.301833 
L 147.907696 59.301833 
L 147.96658 53.508287 
L 148.103206 53.508287 
L 148.161434 52.454914 
L 148.229122 52.454914 
L 148.306159 50.34817 
L 148.354135 50.34817 
L 148.430623 48.241426 
L 148.563676 48.241426 
L 148.592055 46.134681 
L 148.714503 46.134681 
L 148.752007 44.027937 
L 148.836097 44.027937 
L 148.854728 41.394507 
L 149.29602 41.394507 
L 149.40462 39.814448 
L 149.413639 39.814448 
L 149.413639 39.287762 
L 149.566262 39.287762 
L 149.566262 38.761076 
L 149.699829 38.761076 
L 149.699829 38.23439 
L 149.823575 38.23439 
L 149.823575 37.707704 
L 149.981398 37.707704 
L 149.998846 36.654332 
L 150.103169 36.654332 
L 150.181003 34.020902 
L 150.816462 34.020902 
L 150.816462 33.494215 
L 151.097081 33.494215 
L 151.13797 31.914157 
L 151.63719 31.914157 
L 151.63719 31.387471 
L 151.826663 31.387471 
L 151.826663 30.334099 
L 338.688 30.334099 
L 338.688 30.334099 
" style="fill:none;stroke:#ff7500;stroke-linecap:square;stroke-width:1.5;"/>
   </g>
   <g id="line2d_44">
    <defs>
     <path d="M 0 -6 
L -1.347084 -1.854102 
L -5.706339 -1.854102 
L -2.179628 0.708204 
L -3.526712 4.854102 
L -0 2.291796 
L 3.526712 4.854102 
L 2.179628 0.708204 
L 5.706339 -1.854102 
L 1.347084 -1.854102 
z
" id="mb617266b41" style="stroke:#ff7500;stroke-linejoin:bevel;stroke-width:1.5;"/>
    </defs>
    <g>
     <use style="fill-opacity:0;stroke:#ff7500;stroke-linejoin:bevel;stroke-width:1.5;" x="134.257551" xlink:href="#mb617266b41" y="185.179807"/>
     <use style="fill-opacity:0;stroke:#ff7500;stroke-linejoin:bevel;stroke-width:1.5;" x="148.714503" xlink:href="#mb617266b41" y="45.607995"/>
     <use style="fill-opacity:0;stroke:#ff7500;stroke-linejoin:bevel;stroke-width:1.5;" x="151.826663" xlink:href="#mb617266b41" y="30.334099"/>
     <use style="fill-opacity:0;stroke:#ff7500;stroke-linejoin:bevel;stroke-width:1.5;" x="151.826663" xlink:href="#mb617266b41" y="30.334099"/>
     <use style="fill-opacity:0;stroke:#ff7500;stroke-linejoin:bevel;stroke-width:1.5;" x="338.688" xlink:href="#mb617266b41" y="30.334099"/>
    </g>
   </g>
   <g id="line2d_45">
    <path style="fill:none;stroke:#ff7500;stroke-linecap:square;stroke-width:1.5;"/>
    <g/>
   </g>
   <g id="line2d_46">
    <defs>
     <path d="M 0 1.5 
C 0.397805 1.5 0.77937 1.341951 1.06066 1.06066 
C 1.341951 0.77937 1.5 0.397805 1.5 0 
C 1.5 -0.397805 1.341951 -0.77937 1.06066 -1.06066 
C 0.77937 -1.341951 0.397805 -1.5 0 -1.5 
C -0.397805 -1.5 -0.77937 -1.341951 -1.06066 -1.06066 
C -1.341951 -0.77937 -1.5 -0.397805 -1.5 0 
C -1.5 0.397805 -1.341951 0.77937 -1.06066 1.06066 
C -0.77937 1.341951 -0.397805 1.5 0 1.5 
z
" id="mdcc8d57893" style="stroke:#6495ed;"/>
    </defs>
    <g>
     <use style="fill:#6495ed;stroke:#6495ed;" x="150.691209" xlink:href="#mdcc8d57893" y="30.334099"/>
     <use style="fill:#6495ed;stroke:#6495ed;" x="150.691209" xlink:href="#mdcc8d57893" y="30.334099"/>
    </g>
   </g>
   <g id="line2d_47">
    <path d="M 17.444571 298.944 
L 17.444571 289.463651 
L 53.708537 289.463651 
L 53.708537 288.936964 
L 60.779557 288.936964 
L 60.779557 287.883592 
L 65.796525 287.883592 
L 65.796525 287.356906 
L 72.867545 287.356906 
L 72.867545 286.83022 
L 73.579452 286.83022 
L 73.579452 286.303534 
L 74.921597 286.303534 
L 74.921597 285.776848 
L 81.334453 285.776848 
L 81.334453 285.250162 
L 83.037197 285.250162 
L 83.037197 284.723476 
L 83.438118 284.723476 
L 83.438118 284.19679 
L 86.351421 284.19679 
L 86.351421 283.670104 
L 87.009585 283.670104 
L 87.009585 283.143418 
L 89.418828 283.143418 
L 89.418828 282.616732 
L 90.242884 282.616732 
L 90.242884 282.090045 
L 90.771388 282.090045 
L 90.771388 281.563359 
L 92.73846 281.563359 
L 92.73846 280.509987 
L 94.294587 280.509987 
L 94.294587 279.983301 
L 94.505975 279.983301 
L 94.505975 279.456615 
L 94.714831 279.456615 
L 94.714831 278.403243 
L 94.921215 278.403243 
L 94.921215 277.349871 
L 95.723163 277.349871 
L 95.723163 276.823185 
L 96.110718 276.823185 
L 96.110718 276.296499 
L 97.043522 276.296499 
L 97.043522 275.769812 
L 97.403108 275.769812 
L 97.403108 275.243126 
L 98.606294 275.243126 
L 98.606294 274.189754 
L 98.771596 274.189754 
L 98.771596 273.663068 
L 99.097574 273.663068 
L 99.097574 273.136382 
L 99.575392 273.136382 
L 99.575392 272.609696 
L 100.040467 272.609696 
L 100.040467 272.08301 
L 100.192776 272.08301 
L 100.192776 271.556324 
L 101.365607 271.556324 
L 101.365607 271.029638 
L 101.923711 271.029638 
L 101.923711 269.976266 
L 102.728744 269.976266 
L 102.728744 269.449579 
L 104.114542 269.449579 
L 104.114542 268.922893 
L 104.23523 268.922893 
L 104.23523 268.396207 
L 105.171792 268.396207 
L 105.171792 267.342835 
L 105.732589 267.342835 
L 105.842616 265.762777 
L 106.06061 265.762777 
L 106.06061 264.182719 
L 106.906317 264.182719 
L 106.906317 263.656033 
L 107.811151 263.656033 
L 107.811151 262.60266 
L 108.102622 262.60266 
L 108.102622 262.075974 
L 108.389302 262.075974 
L 108.389302 261.549288 
L 108.856871 261.549288 
L 108.856871 261.022602 
L 109.040444 261.022602 
L 109.040444 260.495916 
L 109.491096 260.495916 
L 109.491096 259.96923 
L 109.930396 259.96923 
L 109.930396 258.915858 
L 110.527398 258.915858 
L 110.527398 258.389172 
L 110.694282 258.389172 
L 110.694282 257.862486 
L 111.584648 257.862486 
L 111.584648 256.809114 
L 111.897469 256.809114 
L 111.897469 256.282427 
L 112.280765 256.282427 
L 112.280765 255.755741 
L 113.804498 255.755741 
L 113.873839 253.648997 
L 114.0117 253.648997 
L 114.0117 253.122311 
L 114.148479 253.122311 
L 114.148479 252.595625 
L 114.485807 252.595625 
L 114.485807 252.068939 
L 114.816733 252.068939 
L 114.816733 251.542253 
L 115.141496 251.542253 
L 115.141496 251.015567 
L 115.460322 251.015567 
L 115.460322 250.488881 
L 115.773423 250.488881 
L 115.835374 249.435508 
L 116.262979 249.435508 
L 116.262979 248.908822 
L 116.38325 248.908822 
L 116.38325 248.382136 
L 117.542433 248.382136 
L 117.542433 247.85545 
L 118.202674 247.85545 
L 118.202674 247.328764 
L 118.629344 247.328764 
L 118.734401 244.695334 
L 118.942633 244.695334 
L 118.942633 242.061903 
L 119.148409 242.061903 
L 119.148409 241.535217 
L 119.948058 241.535217 
L 119.948058 239.955159 
L 120.618882 239.955159 
L 120.618882 238.375101 
L 121.08272 238.375101 
L 121.08272 237.848415 
L 121.53454 237.848415 
L 121.53454 237.321729 
L 122.362027 237.321729 
L 122.40451 235.74167 
L 122.531342 235.74167 
L 122.531342 234.161612 
L 122.823744 234.161612 
L 122.823744 233.634926 
L 122.947573 233.634926 
L 122.988655 232.054868 
L 123.152022 232.054868 
L 123.233135 229.421437 
L 123.633136 229.421437 
L 123.633136 228.368065 
L 123.790603 228.368065 
L 123.790603 227.314693 
L 124.024168 227.314693 
L 124.024168 224.681263 
L 124.406624 224.681263 
L 124.406624 223.627891 
L 124.519744 223.627891 
L 124.519744 223.101204 
L 125.147256 223.101204 
L 125.147256 222.047832 
L 125.506102 222.047832 
L 125.506102 221.521146 
L 126.270496 221.521146 
L 126.270496 220.99446 
L 126.540355 220.99446 
L 126.573795 219.414402 
L 126.740043 219.414402 
L 126.740043 218.887716 
L 126.87191 218.887716 
L 126.87191 218.36103 
L 127.516689 218.36103 
L 127.516689 217.307658 
L 127.76807 217.307658 
L 127.830353 216.254285 
L 128.381113 216.254285 
L 128.441249 215.200913 
L 128.590686 215.200913 
L 128.590686 214.674227 
L 128.738855 214.674227 
L 128.768338 213.620855 
L 129.031467 213.620855 
L 129.089405 211.514111 
L 129.602362 211.514111 
L 129.686407 209.934052 
L 129.742212 209.934052 
L 129.79784 207.827308 
L 129.88095 207.827308 
L 129.88095 206.24725 
L 130.155159 206.24725 
L 130.155159 205.193878 
L 130.344571 205.193878 
L 130.425122 204.140506 
L 130.478617 204.140506 
L 130.478617 203.613819 
L 130.952826 203.613819 
L 130.952826 202.560447 
L 131.210808 202.560447 
L 131.287464 198.873645 
L 131.465029 198.873645 
L 131.465029 196.240214 
L 131.715598 196.240214 
L 131.715598 195.713528 
L 131.962617 195.713528 
L 131.962617 195.186842 
L 132.109167 195.186842 
L 132.206187 194.13347 
L 132.636218 194.13347 
L 132.683351 192.026726 
L 133.307488 192.026726 
L 133.375477 189.919981 
L 133.420657 189.919981 
L 133.420657 189.393295 
L 133.600213 189.393295 
L 133.600213 187.813237 
L 133.82209 187.813237 
L 133.82209 186.759865 
L 133.975741 186.759865 
L 134.04118 184.126434 
L 134.257551 184.126434 
L 134.257551 182.01969 
L 134.47127 182.01969 
L 134.513701 179.912946 
L 134.682402 179.912946 
L 134.787017 175.699457 
L 135.097149 175.699457 
L 135.158519 174.646085 
L 135.300881 174.646085 
L 135.300881 173.592713 
L 135.701341 173.592713 
L 135.701341 172.539341 
L 135.878591 172.539341 
L 135.956794 170.959282 
L 136.015217 170.959282 
L 136.015217 168.325852 
L 136.2853 168.325852 
L 136.2853 167.799166 
L 136.475687 167.799166 
L 136.513517 166.745794 
L 136.607732 166.745794 
L 136.607732 166.219108 
L 136.720123 166.219108 
L 136.720123 165.165736 
L 136.850337 165.165736 
L 136.86886 163.058991 
L 137.034686 163.058991 
L 137.034686 161.478933 
L 137.217107 161.478933 
L 137.217107 159.372189 
L 137.343676 159.372189 
L 137.39764 157.265444 
L 137.576323 157.265444 
L 137.576323 156.212072 
L 137.753193 156.212072 
L 137.753193 155.1587 
L 138.084384 155.1587 
L 138.101642 153.578642 
L 138.27329 153.578642 
L 138.27329 153.051956 
L 138.611599 153.051956 
L 138.611599 150.945211 
L 139.269142 150.945211 
L 139.349619 149.891839 
L 140.057671 149.891839 
L 140.057671 148.838467 
L 140.333034 148.838467 
L 140.333034 148.311781 
L 140.469102 148.311781 
L 140.469102 146.731723 
L 140.663789 146.731723 
L 140.663789 146.205037 
L 140.812083 146.205037 
L 140.915143 145.151665 
L 140.944478 145.151665 
L 140.973763 143.04492 
L 141.104941 143.04492 
L 141.104941 139.884804 
L 141.249546 139.884804 
L 141.335737 137.778059 
L 141.521035 137.778059 
L 141.563518 136.724687 
L 141.676303 136.724687 
L 141.676303 136.198001 
L 141.816266 136.198001 
L 141.858037 134.091257 
L 141.955115 134.091257 
L 141.955115 131.457826 
L 142.133981 131.457826 
L 142.243147 127.771024 
L 142.297475 127.771024 
L 142.365148 126.190966 
L 142.419098 126.190966 
L 142.499711 124.084221 
L 142.792145 124.084221 
L 142.792145 123.030849 
L 142.962669 123.030849 
L 142.962669 122.504163 
L 143.105668 122.504163 
L 143.208936 120.397419 
L 143.47714 120.397419 
L 143.47714 119.870733 
L 143.615998 119.870733 
L 143.666219 117.237302 
L 143.791143 117.237302 
L 143.86567 115.130558 
L 143.915178 115.130558 
L 143.976867 111.970441 
L 144.038338 111.970441 
L 144.099593 110.390383 
L 144.160633 110.390383 
L 144.160633 108.283639 
L 144.282077 108.283639 
L 144.294175 107.230267 
L 144.402681 107.230267 
L 144.402681 106.703581 
L 144.629556 106.703581 
L 144.629556 106.176895 
L 144.759569 106.176895 
L 144.77134 105.123522 
L 144.876926 105.123522 
L 144.900303 99.856662 
L 144.993499 99.856662 
L 144.993499 97.749917 
L 145.224334 97.749917 
L 145.224334 96.169859 
L 145.338615 96.169859 
L 145.418169 91.429684 
L 145.452153 91.429684 
L 145.508645 90.376312 
L 145.564956 90.376312 
L 145.564956 89.849626 
L 145.721664 89.849626 
L 145.821666 86.162824 
L 145.899052 86.162824 
L 146.00901 85.109451 
L 146.226867 85.109451 
L 146.226867 84.582765 
L 146.442037 84.582765 
L 146.548634 81.949335 
L 146.654584 81.949335 
L 146.759894 78.262532 
L 146.916676 78.262532 
L 146.916676 77.735846 
L 147.072061 77.735846 
L 147.072061 75.629102 
L 147.317833 75.629102 
L 147.378739 71.415613 
L 147.509976 71.415613 
L 147.580235 68.782183 
L 147.680117 68.782183 
L 147.779429 61.935264 
L 147.828875 61.935264 
L 147.917524 60.355206 
L 148.074019 60.355206 
L 148.17112 56.668403 
L 148.267683 56.668403 
L 148.286932 55.088345 
L 148.554206 55.088345 
L 148.648676 48.241426 
L 148.742638 48.241426 
L 148.836097 46.134681 
L 148.929057 46.134681 
L 148.956849 44.554623 
L 149.085961 44.554623 
L 149.195872 42.447879 
L 149.259669 42.447879 
L 149.29602 40.867821 
L 149.60198 40.867821 
L 149.60198 40.341135 
L 149.717561 40.341135 
L 149.744125 38.761076 
L 149.83238 38.761076 
L 149.920192 37.181018 
L 149.998846 37.181018 
L 150.094499 34.547588 
L 150.181003 34.547588 
L 150.267081 33.494215 
L 150.352736 33.494215 
L 150.352736 31.914157 
L 150.56505 31.914157 
L 150.607205 30.860785 
L 150.691209 30.860785 
L 150.691209 30.334099 
L 338.688 30.334099 
L 338.688 30.334099 
" style="fill:none;stroke:#6495ed;stroke-linecap:square;stroke-width:1.5;"/>
   </g>
   <g id="line2d_48">
    <defs>
     <path d="M -0 6 
L 6 -6 
L -6 -6 
z
" id="mcccfec855f" style="stroke:#6495ed;stroke-linejoin:miter;stroke-width:1.5;"/>
    </defs>
    <g>
     <use style="fill-opacity:0;stroke:#6495ed;stroke-linejoin:miter;stroke-width:1.5;" x="94.921215" xlink:href="#mcccfec855f" y="278.403243"/>
     <use style="fill-opacity:0;stroke:#6495ed;stroke-linejoin:miter;stroke-width:1.5;" x="140.469102" xlink:href="#mcccfec855f" y="148.311781"/>
     <use style="fill-opacity:0;stroke:#6495ed;stroke-linejoin:miter;stroke-width:1.5;" x="150.691209" xlink:href="#mcccfec855f" y="30.860785"/>
     <use style="fill-opacity:0;stroke:#6495ed;stroke-linejoin:miter;stroke-width:1.5;" x="150.691209" xlink:href="#mcccfec855f" y="30.334099"/>
     <use style="fill-opacity:0;stroke:#6495ed;stroke-linejoin:miter;stroke-width:1.5;" x="150.691209" xlink:href="#mcccfec855f" y="30.334099"/>
     <use style="fill-opacity:0;stroke:#6495ed;stroke-linejoin:miter;stroke-width:1.5;" x="338.688" xlink:href="#mcccfec855f" y="30.334099"/>
    </g>
   </g>
   <g id="line2d_49">
    <path style="fill:none;stroke:#6495ed;stroke-linecap:square;stroke-width:1.5;"/>
    <g/>
   </g>
   <g id="line2d_50">
    <path d="M 338.688 30.334099 
L 369.60768 293.571802 
" style="fill:none;stroke:#ff00ff;stroke-linecap:square;stroke-width:1.5;"/>
    <g>
     <use style="fill-opacity:0;stroke:#ff00ff;stroke-linejoin:miter;stroke-width:1.5;" x="338.688" xlink:href="#m6fefe899a1" y="30.334099"/>
     <use style="fill-opacity:0;stroke:#ff00ff;stroke-linejoin:miter;stroke-width:1.5;" x="369.60768" xlink:href="#m6fefe899a1" y="293.571802"/>
    </g>
   </g>
   <g id="line2d_51">
    <path d="M 338.688 30.334099 
L 369.60768 229.105426 
" style="fill:none;stroke:#ff7500;stroke-linecap:square;stroke-width:1.5;"/>
    <g>
     <use style="fill-opacity:0;stroke:#ff7500;stroke-linejoin:bevel;stroke-width:1.5;" x="338.688" xlink:href="#mb617266b41" y="30.334099"/>
     <use style="fill-opacity:0;stroke:#ff7500;stroke-linejoin:bevel;stroke-width:1.5;" x="369.60768" xlink:href="#mb617266b41" y="229.105426"/>
    </g>
   </g>
   <g id="line2d_52">
    <path d="M 338.688 30.334099 
L 369.60768 164.63905 
" style="fill:none;stroke:#000080;stroke-linecap:square;stroke-width:1.5;"/>
    <g>
     <use style="fill-opacity:0;stroke:#000080;stroke-width:1.5;" x="338.688" xlink:href="#m7e22f19201" y="30.334099"/>
     <use style="fill-opacity:0;stroke:#000080;stroke-width:1.5;" x="369.60768" xlink:href="#m7e22f19201" y="164.63905"/>
    </g>
   </g>
   <g id="line2d_53">
    <path d="M 338.688 30.334099 
L 369.60768 100.172673 
" style="fill:none;stroke:#6495ed;stroke-linecap:square;stroke-width:1.5;"/>
    <g>
     <use style="fill-opacity:0;stroke:#6495ed;stroke-linejoin:miter;stroke-width:1.5;" x="338.688" xlink:href="#mcccfec855f" y="30.334099"/>
     <use style="fill-opacity:0;stroke:#6495ed;stroke-linejoin:miter;stroke-width:1.5;" x="369.60768" xlink:href="#mcccfec855f" y="100.172673"/>
    </g>
   </g>
   <g id="line2d_54">
    <path d="M 338.688 298.944 
L 338.688 30.334099 
" style="fill:none;stroke:#000000;stroke-linecap:square;stroke-width:1.5;"/>
   </g>
   <g id="patch_3">
    <path d="M 57.6 298.944 
L 57.6 27.648 
" style="fill:none;stroke:#000000;stroke-linecap:square;stroke-linejoin:miter;stroke-width:0.8;"/>
   </g>
   <g id="patch_4">
    <path d="M 338.688 298.944 
L 338.688 27.648 
" style="fill:none;stroke:#000000;stroke-linecap:square;stroke-linejoin:miter;stroke-width:0.8;"/>
   </g>
   <g id="patch_5">
    <path d="M 57.6 298.944 
L 338.688 298.944 
" style="fill:none;stroke:#000000;stroke-linecap:square;stroke-linejoin:miter;stroke-width:0.8;"/>
   </g>
   <g id="patch_6">
    <path d="M 57.6 27.648 
L 338.688 27.648 
" style="fill:none;stroke:#000000;stroke-linecap:square;stroke-linejoin:miter;stroke-width:0.8;"/>
   </g>
   <g id="text_13">
    <!-- maes mid -->
    <g transform="translate(375.22944 298.262739)scale(0.17 -0.17)">
     <use xlink:href="#DejaVuSans-109"/>
     <use x="97.412109" xlink:href="#DejaVuSans-97"/>
     <use x="158.691406" xlink:href="#DejaVuSans-101"/>
     <use x="220.214844" xlink:href="#DejaVuSans-115"/>
     <use x="272.314453" xlink:href="#DejaVuSans-32"/>
     <use x="304.101562" xlink:href="#DejaVuSans-109"/>
     <use x="401.513672" xlink:href="#DejaVuSans-105"/>
     <use x="429.296875" xlink:href="#DejaVuSans-100"/>
    </g>
   </g>
   <g id="text_14">
    <!-- maes stp -->
    <g transform="translate(375.22944 233.796363)scale(0.17 -0.17)">
     <use xlink:href="#DejaVuSans-109"/>
     <use x="97.412109" xlink:href="#DejaVuSans-97"/>
     <use x="158.691406" xlink:href="#DejaVuSans-101"/>
     <use x="220.214844" xlink:href="#DejaVuSans-115"/>
     <use x="272.314453" xlink:href="#DejaVuSans-32"/>
     <use x="304.101562" xlink:href="#DejaVuSans-115"/>
     <use x="356.201172" xlink:href="#DejaVuSans-116"/>
     <use x="395.410156" xlink:href="#DejaVuSans-112"/>
    </g>
   </g>
   <g id="text_15">
    <!-- maes -->
    <g transform="translate(375.22944 169.329987)scale(0.17 -0.17)">
     <use xlink:href="#DejaVuSans-109"/>
     <use x="97.412109" xlink:href="#DejaVuSans-97"/>
     <use x="158.691406" xlink:href="#DejaVuSans-101"/>
     <use x="220.214844" xlink:href="#DejaVuSans-115"/>
    </g>
   </g>
   <g id="text_16">
    <!-- maes red -->
    <g transform="translate(375.22944 104.863611)scale(0.17 -0.17)">
     <use xlink:href="#DejaVuSans-109"/>
     <use x="97.412109" xlink:href="#DejaVuSans-97"/>
     <use x="158.691406" xlink:href="#DejaVuSans-101"/>
     <use x="220.214844" xlink:href="#DejaVuSans-115"/>
     <use x="272.314453" xlink:href="#DejaVuSans-32"/>
     <use x="304.101562" xlink:href="#DejaVuSans-114"/>
     <use x="342.964844" xlink:href="#DejaVuSans-101"/>
     <use x="404.488281" xlink:href="#DejaVuSans-100"/>
    </g>
   </g>
   <g id="text_17">
    <!-- best 2009 -->
    <g transform="translate(375.22944 40.397235)scale(0.17 -0.17)">
     <defs>
      <path d="M 48.6875 27.296875 
Q 48.6875 37.203125 44.609375 42.84375 
Q 40.53125 48.484375 33.40625 48.484375 
Q 26.265625 48.484375 22.1875 42.84375 
Q 18.109375 37.203125 18.109375 27.296875 
Q 18.109375 17.390625 22.1875 11.75 
Q 26.265625 6.109375 33.40625 6.109375 
Q 40.53125 6.109375 44.609375 11.75 
Q 48.6875 17.390625 48.6875 27.296875 
z
M 18.109375 46.390625 
Q 20.953125 51.265625 25.265625 53.625 
Q 29.59375 56 35.59375 56 
Q 45.5625 56 51.78125 48.09375 
Q 58.015625 40.1875 58.015625 27.296875 
Q 58.015625 14.40625 51.78125 6.484375 
Q 45.5625 -1.421875 35.59375 -1.421875 
Q 29.59375 -1.421875 25.265625 0.953125 
Q 20.953125 3.328125 18.109375 8.203125 
L 18.109375 0 
L 9.078125 0 
L 9.078125 75.984375 
L 18.109375 75.984375 
z
" id="DejaVuSans-98"/>
      <path d="M 10.984375 1.515625 
L 10.984375 10.5 
Q 14.703125 8.734375 18.5 7.8125 
Q 22.3125 6.890625 25.984375 6.890625 
Q 35.75 6.890625 40.890625 13.453125 
Q 46.046875 20.015625 46.78125 33.40625 
Q 43.953125 29.203125 39.59375 26.953125 
Q 35.25 24.703125 29.984375 24.703125 
Q 19.046875 24.703125 12.671875 31.3125 
Q 6.296875 37.9375 6.296875 49.421875 
Q 6.296875 60.640625 12.9375 67.421875 
Q 19.578125 74.21875 30.609375 74.21875 
Q 43.265625 74.21875 49.921875 64.515625 
Q 56.59375 54.828125 56.59375 36.375 
Q 56.59375 19.140625 48.40625 8.859375 
Q 40.234375 -1.421875 26.421875 -1.421875 
Q 22.703125 -1.421875 18.890625 -0.6875 
Q 15.09375 0.046875 10.984375 1.515625 
z
M 30.609375 32.421875 
Q 37.25 32.421875 41.125 36.953125 
Q 45.015625 41.5 45.015625 49.421875 
Q 45.015625 57.28125 41.125 61.84375 
Q 37.25 66.40625 30.609375 66.40625 
Q 23.96875 66.40625 20.09375 61.84375 
Q 16.21875 57.28125 16.21875 49.421875 
Q 16.21875 41.5 20.09375 36.953125 
Q 23.96875 32.421875 30.609375 32.421875 
z
" id="DejaVuSans-57"/>
     </defs>
     <use xlink:href="#DejaVuSans-98"/>
     <use x="63.476562" xlink:href="#DejaVuSans-101"/>
     <use x="125" xlink:href="#DejaVuSans-115"/>
     <use x="177.099609" xlink:href="#DejaVuSans-116"/>
     <use x="216.308594" xlink:href="#DejaVuSans-32"/>
     <use x="248.095703" xlink:href="#DejaVuSans-50"/>
     <use x="311.71875" xlink:href="#DejaVuSans-48"/>
     <use x="375.341797" xlink:href="#DejaVuSans-48"/>
     <use x="438.964844" xlink:href="#DejaVuSans-57"/>
    </g>
   </g>
   <g id="text_18">
    <!-- bbob f1, 10-D -->
    <g transform="translate(60.41088 38.111366)scale(0.102 -0.102)">
     <defs>
      <path d="M 19.671875 64.796875 
L 19.671875 8.109375 
L 31.59375 8.109375 
Q 46.6875 8.109375 53.6875 14.9375 
Q 60.6875 21.78125 60.6875 36.53125 
Q 60.6875 51.171875 53.6875 57.984375 
Q 46.6875 64.796875 31.59375 64.796875 
z
M 9.8125 72.90625 
L 30.078125 72.90625 
Q 51.265625 72.90625 61.171875 64.09375 
Q 71.09375 55.28125 71.09375 36.53125 
Q 71.09375 17.671875 61.125 8.828125 
Q 51.171875 0 30.078125 0 
L 9.8125 0 
z
" id="DejaVuSans-68"/>
     </defs>
     <use xlink:href="#DejaVuSans-98"/>
     <use x="63.476562" xlink:href="#DejaVuSans-98"/>
     <use x="126.953125" xlink:href="#DejaVuSans-111"/>
     <use x="188.134766" xlink:href="#DejaVuSans-98"/>
     <use x="251.611328" xlink:href="#DejaVuSans-32"/>
     <use x="283.398438" xlink:href="#DejaVuSans-102"/>
     <use x="318.603516" xlink:href="#DejaVuSans-49"/>
     <use x="382.226562" xlink:href="#DejaVuSans-44"/>
     <use x="414.013672" xlink:href="#DejaVuSans-32"/>
     <use x="445.800781" xlink:href="#DejaVuSans-49"/>
     <use x="509.423828" xlink:href="#DejaVuSans-48"/>
     <use x="573.046875" xlink:href="#DejaVuSans-45"/>
     <use x="609.130859" xlink:href="#DejaVuSans-68"/>
    </g>
    <!-- 51 targets: 100..1e-08 -->
    <g transform="translate(60.41088 49.533135)scale(0.102 -0.102)">
     <defs>
      <path d="M 10.796875 72.90625 
L 49.515625 72.90625 
L 49.515625 64.59375 
L 19.828125 64.59375 
L 19.828125 46.734375 
Q 21.96875 47.46875 24.109375 47.828125 
Q 26.265625 48.1875 28.421875 48.1875 
Q 40.625 48.1875 47.75 41.5 
Q 54.890625 34.8125 54.890625 23.390625 
Q 54.890625 11.625 47.5625 5.09375 
Q 40.234375 -1.421875 26.90625 -1.421875 
Q 22.3125 -1.421875 17.546875 -0.640625 
Q 12.796875 0.140625 7.71875 1.703125 
L 7.71875 11.625 
Q 12.109375 9.234375 16.796875 8.0625 
Q 21.484375 6.890625 26.703125 6.890625 
Q 35.15625 6.890625 40.078125 11.328125 
Q 45.015625 15.765625 45.015625 23.390625 
Q 45.015625 31 40.078125 35.4375 
Q 35.15625 39.890625 26.703125 39.890625 
Q 22.75 39.890625 18.8125 39.015625 
Q 14.890625 38.140625 10.796875 36.28125 
z
" id="DejaVuSans-53"/>
      <path d="M 11.71875 12.40625 
L 22.015625 12.40625 
L 22.015625 0 
L 11.71875 0 
z
M 11.71875 51.703125 
L 22.015625 51.703125 
L 22.015625 39.3125 
L 11.71875 39.3125 
z
" id="DejaVuSans-58"/>
     </defs>
     <use xlink:href="#DejaVuSans-53"/>
     <use x="63.623047" xlink:href="#DejaVuSans-49"/>
     <use x="127.246094" xlink:href="#DejaVuSans-32"/>
     <use x="159.033203" xlink:href="#DejaVuSans-116"/>
     <use x="198.242188" xlink:href="#DejaVuSans-97"/>
     <use x="259.521484" xlink:href="#DejaVuSans-114"/>
     <use x="298.884766" xlink:href="#DejaVuSans-103"/>
     <use x="362.361328" xlink:href="#DejaVuSans-101"/>
     <use x="423.884766" xlink:href="#DejaVuSans-116"/>
     <use x="463.09375" xlink:href="#DejaVuSans-115"/>
     <use x="515.193359" xlink:href="#DejaVuSans-58"/>
     <use x="548.884766" xlink:href="#DejaVuSans-32"/>
     <use x="580.671875" xlink:href="#DejaVuSans-49"/>
     <use x="644.294922" xlink:href="#DejaVuSans-48"/>
     <use x="707.917969" xlink:href="#DejaVuSans-48"/>
     <use x="771.541016" xlink:href="#DejaVuSans-46"/>
     <use x="803.328125" xlink:href="#DejaVuSans-46"/>
     <use x="835.115234" xlink:href="#DejaVuSans-49"/>
     <use x="898.738281" xlink:href="#DejaVuSans-101"/>
     <use x="960.261719" xlink:href="#DejaVuSans-45"/>
     <use x="996.345703" xlink:href="#DejaVuSans-48"/>
     <use x="1059.96875" xlink:href="#DejaVuSans-56"/>
    </g>
    <!-- 15 instances -->
    <g transform="translate(60.41088 60.954904)scale(0.102 -0.102)">
     <use xlink:href="#DejaVuSans-49"/>
     <use x="63.623047" xlink:href="#DejaVuSans-53"/>
     <use x="127.246094" xlink:href="#DejaVuSans-32"/>
     <use x="159.033203" xlink:href="#DejaVuSans-105"/>
     <use x="186.816406" xlink:href="#DejaVuSans-110"/>
     <use x="250.195312" xlink:href="#DejaVuSans-115"/>
     <use x="302.294922" xlink:href="#DejaVuSans-116"/>
     <use x="341.503906" xlink:href="#DejaVuSans-97"/>
     <use x="402.783203" xlink:href="#DejaVuSans-110"/>
     <use x="466.162109" xlink:href="#DejaVuSans-99"/>
     <use x="521.142578" xlink:href="#DejaVuSans-101"/>
     <use x="582.666016" xlink:href="#DejaVuSans-115"/>
    </g>
   </g>
   <g id="text_19">
    <!-- v2.4 -->
    <g style="fill:#808080;" transform="translate(187.233062 294.151352)scale(0.1 -0.1)">
     <use xlink:href="#DejaVuSans-118"/>
     <use x="59.179688" xlink:href="#DejaVuSans-50"/>
     <use x="122.802734" xlink:href="#DejaVuSans-46"/>
     <use x="154.589844" xlink:href="#DejaVuSans-52"/>
    </g>
   </g>
   <g id="text_20">
    <!-- 1 Sphere -->
    <g transform="translate(153.376812 21.648)scale(0.2 -0.2)">
     <defs>
      <path d="M 53.515625 70.515625 
L 53.515625 60.890625 
Q 47.90625 63.578125 42.921875 64.890625 
Q 37.9375 66.21875 33.296875 66.21875 
Q 25.25 66.21875 20.875 63.09375 
Q 16.5 59.96875 16.5 54.203125 
Q 16.5 49.359375 19.40625 46.890625 
Q 22.3125 44.4375 30.421875 42.921875 
L 36.375 41.703125 
Q 47.40625 39.59375 52.65625 34.296875 
Q 57.90625 29 57.90625 20.125 
Q 57.90625 9.515625 50.796875 4.046875 
Q 43.703125 -1.421875 29.984375 -1.421875 
Q 24.8125 -1.421875 18.96875 -0.25 
Q 13.140625 0.921875 6.890625 3.21875 
L 6.890625 13.375 
Q 12.890625 10.015625 18.65625 8.296875 
Q 24.421875 6.59375 29.984375 6.59375 
Q 38.421875 6.59375 43.015625 9.90625 
Q 47.609375 13.234375 47.609375 19.390625 
Q 47.609375 24.75 44.3125 27.78125 
Q 41.015625 30.8125 33.5 32.328125 
L 27.484375 33.5 
Q 16.453125 35.6875 11.515625 40.375 
Q 6.59375 45.0625 6.59375 53.421875 
Q 6.59375 63.09375 13.40625 68.65625 
Q 20.21875 74.21875 32.171875 74.21875 
Q 37.3125 74.21875 42.625 73.28125 
Q 47.953125 72.359375 53.515625 70.515625 
z
" id="DejaVuSans-83"/>
      <path d="M 54.890625 33.015625 
L 54.890625 0 
L 45.90625 0 
L 45.90625 32.71875 
Q 45.90625 40.484375 42.875 44.328125 
Q 39.84375 48.1875 33.796875 48.1875 
Q 26.515625 48.1875 22.3125 43.546875 
Q 18.109375 38.921875 18.109375 30.90625 
L 18.109375 0 
L 9.078125 0 
L 9.078125 75.984375 
L 18.109375 75.984375 
L 18.109375 46.1875 
Q 21.34375 51.125 25.703125 53.5625 
Q 30.078125 56 35.796875 56 
Q 45.21875 56 50.046875 50.171875 
Q 54.890625 44.34375 54.890625 33.015625 
z
" id="DejaVuSans-104"/>
     </defs>
     <use xlink:href="#DejaVuSans-49"/>
     <use x="63.623047" xlink:href="#DejaVuSans-32"/>
     <use x="95.410156" xlink:href="#DejaVuSans-83"/>
     <use x="158.886719" xlink:href="#DejaVuSans-112"/>
     <use x="222.363281" xlink:href="#DejaVuSans-104"/>
     <use x="285.742188" xlink:href="#DejaVuSans-101"/>
     <use x="347.265625" xlink:href="#DejaVuSans-114"/>
     <use x="386.128906" xlink:href="#DejaVuSans-101"/>
    </g>
   </g>
  </g>
 </g>
 <defs>
  <clipPath id="pd9ab68cf36">
   <rect height="271.296" width="281.088" x="57.6" y="27.648"/>
  </clipPath>
 </defs>
</svg>
