<?xml version="1.0" encoding="utf-8" standalone="no"?>
<!DOCTYPE svg PUBLIC "-//W3C//DTD SVG 1.1//EN"
  "http://www.w3.org/Graphics/SVG/1.1/DTD/svg11.dtd">
<!-- Created with matplotlib (https://matplotlib.org/) -->
<svg height="345.6pt" version="1.1" viewBox="0 0 460.8 345.6" width="460.8pt" xmlns="http://www.w3.org/2000/svg" xmlns:xlink="http://www.w3.org/1999/xlink">
 <metadata>
  <rdf:RDF xmlns:cc="http://creativecommons.org/ns#" xmlns:dc="http://purl.org/dc/elements/1.1/" xmlns:rdf="http://www.w3.org/1999/02/22-rdf-syntax-ns#">
   <cc:Work>
    <dc:type rdf:resource="http://purl.org/dc/dcmitype/StillImage"/>
    <dc:date>2021-06-17T01:40:26.982183</dc:date>
    <dc:format>image/svg+xml</dc:format>
    <dc:creator>
     <cc:Agent>
      <dc:title>Matplotlib v3.3.4, https://matplotlib.org/</dc:title>
     </cc:Agent>
    </dc:creator>
   </cc:Work>
  </rdf:RDF>
 </metadata>
 <defs>
  <style type="text/css">*{stroke-linecap:butt;stroke-linejoin:round;}</style>
 </defs>
 <g id="figure_1">
  <g id="patch_1">
   <path d="M 0 345.6 
L 460.8 345.6 
L 460.8 0 
L 0 0 
z
" style="fill:#ffffff;"/>
  </g>
  <g id="axes_1">
   <g id="patch_2">
    <path d="M 57.6 298.944 
L 338.688 298.944 
L 338.688 27.648 
L 57.6 27.648 
z
" style="fill:#ffffff;"/>
   </g>
   <g id="line2d_1">
    <path d="M 95.918017 298.944 
L 95.918017 293.677139 
L 97.755429 293.677139 
L 97.755429 288.410278 
L 98.606294 288.410278 
L 98.606294 283.143418 
L 100.934985 283.143418 
L 100.934985 277.876557 
L 105.398279 277.876557 
L 105.398279 272.609696 
L 107.514726 272.609696 
L 107.514726 267.342835 
L 108.948899 267.342835 
L 108.948899 262.075974 
L 109.401893 262.075974 
L 109.401893 256.809114 
L 109.843417 256.809114 
L 109.843417 251.542253 
L 110.694282 251.542253 
L 110.694282 246.275392 
L 112.280765 246.275392 
L 112.280765 241.008531 
L 113.73488 241.008531 
L 113.73488 235.74167 
L 115.711251 235.74167 
L 115.711251 230.47481 
L 117.765302 230.47481 
L 117.765302 225.207949 
L 118.838828 225.207949 
L 118.838828 219.941088 
L 120.8059 219.941088 
L 120.8059 214.674227 
L 122.148045 214.674227 
L 122.148045 209.407366 
L 122.782271 209.407366 
L 122.782271 204.140506 
L 123.394238 204.140506 
L 123.394238 198.873645 
L 124.178158 198.873645 
L 124.178158 193.606784 
L 124.743806 193.606784 
L 124.743806 188.339923 
L 125.110962 188.339923 
L 125.110962 183.073062 
L 125.291682 183.073062 
L 125.291682 177.806202 
L 125.647598 177.806202 
L 125.647598 172.539341 
L 125.996395 172.539341 
L 125.996395 167.27248 
L 126.673734 167.27248 
L 126.673734 162.005619 
L 127.165014 162.005619 
L 127.165014 156.738758 
L 127.799239 156.738758 
L 127.799239 151.471897 
L 128.411207 151.471897 
L 128.411207 146.205037 
L 129.002426 146.205037 
L 129.002426 140.938176 
L 129.714332 140.938176 
L 129.714332 135.671315 
L 130.664567 135.671315 
L 130.664567 130.404454 
L 131.056477 130.404454 
L 131.056477 125.137593 
L 131.938072 125.137593 
L 131.938072 119.870733 
L 132.659801 119.870733 
L 132.659801 114.603872 
L 133.239232 114.603872 
L 133.239232 109.337011 
L 133.57787 109.337011 
L 133.57787 104.07015 
L 134.019394 104.07015 
L 134.019394 98.803289 
L 134.55603 98.803289 
L 134.55603 93.536429 
L 135.076644 93.536429 
L 135.076644 88.269568 
L 135.582166 88.269568 
L 135.582166 83.002707 
L 136.073445 83.002707 
L 136.073445 77.735846 
L 136.456742 77.735846 
L 136.456742 72.468985 
L 136.738785 72.468985 
L 136.738785 67.202125 
L 137.107884 67.202125 
L 137.107884 61.935264 
L 137.469333 61.935264 
L 137.469333 56.668403 
L 137.910857 56.668403 
L 137.910857 51.401542 
L 138.084384 51.401542 
L 138.084384 46.134681 
L 138.256201 46.134681 
L 138.256201 40.867821 
L 138.594838 40.867821 
L 138.594838 35.60096 
L 138.84457 35.60096 
L 138.84457 30.334099 
L 338.688 30.334099 
" style="fill:none;stroke:#f5deb3;stroke-linecap:square;stroke-width:4;"/>
   </g>
   <g id="line2d_2">
    <defs>
     <path d="M -0 7.778175 
L 7.778175 0 
L 0 -7.778175 
L -7.778175 -0 
z
" id="md3a0865cf7" style="stroke:#f5deb3;stroke-linejoin:miter;stroke-width:1.5;"/>
    </defs>
    <g>
     <use style="fill:#f5deb3;stroke:#f5deb3;stroke-linejoin:miter;stroke-width:1.5;" x="122.782271" xlink:href="#md3a0865cf7" y="209.407366"/>
     <use style="fill:#f5deb3;stroke:#f5deb3;stroke-linejoin:miter;stroke-width:1.5;" x="136.073445" xlink:href="#md3a0865cf7" y="77.735846"/>
     <use style="fill:#f5deb3;stroke:#f5deb3;stroke-linejoin:miter;stroke-width:1.5;" x="138.84457" xlink:href="#md3a0865cf7" y="35.60096"/>
     <use style="fill:#f5deb3;stroke:#f5deb3;stroke-linejoin:miter;stroke-width:1.5;" x="138.84457" xlink:href="#md3a0865cf7" y="30.334099"/>
     <use style="fill:#f5deb3;stroke:#f5deb3;stroke-linejoin:miter;stroke-width:1.5;" x="338.688" xlink:href="#md3a0865cf7" y="30.334099"/>
    </g>
   </g>
   <g id="line2d_3">
    <path style="fill:none;stroke:#f5deb3;stroke-linecap:square;stroke-width:4;"/>
    <g/>
   </g>
   <g id="line2d_4">
    <path d="M 338.688 30.334099 
L 369.60768 35.706297 
" style="fill:none;stroke:#f5deb3;stroke-linecap:square;stroke-width:4;"/>
    <g>
     <use style="fill:#f5deb3;stroke:#f5deb3;stroke-linejoin:miter;stroke-width:1.5;" x="338.688" xlink:href="#md3a0865cf7" y="30.334099"/>
     <use style="fill:#f5deb3;stroke:#f5deb3;stroke-linejoin:miter;stroke-width:1.5;" x="369.60768" xlink:href="#md3a0865cf7" y="35.706297"/>
    </g>
   </g>
   <g id="matplotlib.axis_1">
    <g id="xtick_1">
     <g id="line2d_5">
      <path clip-path="url(#p74a0772795)" d="M 57.6 298.944 
L 57.6 27.648 
" style="fill:none;stroke:#b0b0b0;stroke-linecap:square;stroke-width:0.8;"/>
     </g>
     <g id="line2d_6">
      <defs>
       <path d="M 0 0 
L 0 3.5 
" id="mcdf9c5afb0" style="stroke:#000000;stroke-width:0.8;"/>
      </defs>
      <g>
       <use style="stroke:#000000;stroke-width:0.8;" x="57.6" xlink:href="#mcdf9c5afb0" y="298.944"/>
      </g>
     </g>
     <g id="text_1">
      <!-- 0 -->
      <g transform="translate(51.2375 321.140875)scale(0.2 -0.2)">
       <defs>
        <path d="M 31.78125 66.40625 
Q 24.171875 66.40625 20.328125 58.90625 
Q 16.5 51.421875 16.5 36.375 
Q 16.5 21.390625 20.328125 13.890625 
Q 24.171875 6.390625 31.78125 6.390625 
Q 39.453125 6.390625 43.28125 13.890625 
Q 47.125 21.390625 47.125 36.375 
Q 47.125 51.421875 43.28125 58.90625 
Q 39.453125 66.40625 31.78125 66.40625 
z
M 31.78125 74.21875 
Q 44.046875 74.21875 50.515625 64.515625 
Q 56.984375 54.828125 56.984375 36.375 
Q 56.984375 17.96875 50.515625 8.265625 
Q 44.046875 -1.421875 31.78125 -1.421875 
Q 19.53125 -1.421875 13.0625 8.265625 
Q 6.59375 17.96875 6.59375 36.375 
Q 6.59375 54.828125 13.0625 64.515625 
Q 19.53125 74.21875 31.78125 74.21875 
z
" id="DejaVuSans-48"/>
       </defs>
       <use xlink:href="#DejaVuSans-48"/>
      </g>
     </g>
    </g>
    <g id="xtick_2">
     <g id="line2d_7">
      <path clip-path="url(#p74a0772795)" d="M 137.910857 298.944 
L 137.910857 27.648 
" style="fill:none;stroke:#b0b0b0;stroke-linecap:square;stroke-width:0.8;"/>
     </g>
     <g id="line2d_8">
      <g>
       <use style="stroke:#000000;stroke-width:0.8;" x="137.910857" xlink:href="#mcdf9c5afb0" y="298.944"/>
      </g>
     </g>
     <g id="text_2">
      <!-- 2 -->
      <g transform="translate(131.548357 321.140875)scale(0.2 -0.2)">
       <defs>
        <path d="M 19.1875 8.296875 
L 53.609375 8.296875 
L 53.609375 0 
L 7.328125 0 
L 7.328125 8.296875 
Q 12.9375 14.109375 22.625 23.890625 
Q 32.328125 33.6875 34.8125 36.53125 
Q 39.546875 41.84375 41.421875 45.53125 
Q 43.3125 49.21875 43.3125 52.78125 
Q 43.3125 58.59375 39.234375 62.25 
Q 35.15625 65.921875 28.609375 65.921875 
Q 23.96875 65.921875 18.8125 64.3125 
Q 13.671875 62.703125 7.8125 59.421875 
L 7.8125 69.390625 
Q 13.765625 71.78125 18.9375 73 
Q 24.125 74.21875 28.421875 74.21875 
Q 39.75 74.21875 46.484375 68.546875 
Q 53.21875 62.890625 53.21875 53.421875 
Q 53.21875 48.921875 51.53125 44.890625 
Q 49.859375 40.875 45.40625 35.40625 
Q 44.1875 33.984375 37.640625 27.21875 
Q 31.109375 20.453125 19.1875 8.296875 
z
" id="DejaVuSans-50"/>
       </defs>
       <use xlink:href="#DejaVuSans-50"/>
      </g>
     </g>
    </g>
    <g id="xtick_3">
     <g id="line2d_9">
      <path clip-path="url(#p74a0772795)" d="M 218.221714 298.944 
L 218.221714 27.648 
" style="fill:none;stroke:#b0b0b0;stroke-linecap:square;stroke-width:0.8;"/>
     </g>
     <g id="line2d_10">
      <g>
       <use style="stroke:#000000;stroke-width:0.8;" x="218.221714" xlink:href="#mcdf9c5afb0" y="298.944"/>
      </g>
     </g>
     <g id="text_3">
      <!-- 4 -->
      <g transform="translate(211.859214 321.140875)scale(0.2 -0.2)">
       <defs>
        <path d="M 37.796875 64.3125 
L 12.890625 25.390625 
L 37.796875 25.390625 
z
M 35.203125 72.90625 
L 47.609375 72.90625 
L 47.609375 25.390625 
L 58.015625 25.390625 
L 58.015625 17.1875 
L 47.609375 17.1875 
L 47.609375 0 
L 37.796875 0 
L 37.796875 17.1875 
L 4.890625 17.1875 
L 4.890625 26.703125 
z
" id="DejaVuSans-52"/>
       </defs>
       <use xlink:href="#DejaVuSans-52"/>
      </g>
     </g>
    </g>
    <g id="xtick_4">
     <g id="line2d_11">
      <path clip-path="url(#p74a0772795)" d="M 298.532571 298.944 
L 298.532571 27.648 
" style="fill:none;stroke:#b0b0b0;stroke-linecap:square;stroke-width:0.8;"/>
     </g>
     <g id="line2d_12">
      <g>
       <use style="stroke:#000000;stroke-width:0.8;" x="298.532571" xlink:href="#mcdf9c5afb0" y="298.944"/>
      </g>
     </g>
     <g id="text_4">
      <!-- 6 -->
      <g transform="translate(292.170071 321.140875)scale(0.2 -0.2)">
       <defs>
        <path d="M 33.015625 40.375 
Q 26.375 40.375 22.484375 35.828125 
Q 18.609375 31.296875 18.609375 23.390625 
Q 18.609375 15.53125 22.484375 10.953125 
Q 26.375 6.390625 33.015625 6.390625 
Q 39.65625 6.390625 43.53125 10.953125 
Q 47.40625 15.53125 47.40625 23.390625 
Q 47.40625 31.296875 43.53125 35.828125 
Q 39.65625 40.375 33.015625 40.375 
z
M 52.59375 71.296875 
L 52.59375 62.3125 
Q 48.875 64.0625 45.09375 64.984375 
Q 41.3125 65.921875 37.59375 65.921875 
Q 27.828125 65.921875 22.671875 59.328125 
Q 17.53125 52.734375 16.796875 39.40625 
Q 19.671875 43.65625 24.015625 45.921875 
Q 28.375 48.1875 33.59375 48.1875 
Q 44.578125 48.1875 50.953125 41.515625 
Q 57.328125 34.859375 57.328125 23.390625 
Q 57.328125 12.15625 50.6875 5.359375 
Q 44.046875 -1.421875 33.015625 -1.421875 
Q 20.359375 -1.421875 13.671875 8.265625 
Q 6.984375 17.96875 6.984375 36.375 
Q 6.984375 53.65625 15.1875 63.9375 
Q 23.390625 74.21875 37.203125 74.21875 
Q 40.921875 74.21875 44.703125 73.484375 
Q 48.484375 72.75 52.59375 71.296875 
z
" id="DejaVuSans-54"/>
       </defs>
       <use xlink:href="#DejaVuSans-54"/>
      </g>
     </g>
    </g>
    <g id="xtick_5">
     <g id="line2d_13">
      <path clip-path="url(#p74a0772795)" d="M 97.755429 298.944 
L 97.755429 27.648 
" style="fill:none;stroke:#b0b0b0;stroke-linecap:square;stroke-width:0.8;"/>
     </g>
     <g id="line2d_14">
      <defs>
       <path d="M 0 0 
L 0 2 
" id="m72e89d65c4" style="stroke:#000000;stroke-width:0.6;"/>
      </defs>
      <g>
       <use style="stroke:#000000;stroke-width:0.6;" x="97.755429" xlink:href="#m72e89d65c4" y="298.944"/>
      </g>
     </g>
    </g>
    <g id="xtick_6">
     <g id="line2d_15">
      <path clip-path="url(#p74a0772795)" d="M 178.066286 298.944 
L 178.066286 27.648 
" style="fill:none;stroke:#b0b0b0;stroke-linecap:square;stroke-width:0.8;"/>
     </g>
     <g id="line2d_16">
      <g>
       <use style="stroke:#000000;stroke-width:0.6;" x="178.066286" xlink:href="#m72e89d65c4" y="298.944"/>
      </g>
     </g>
    </g>
    <g id="xtick_7">
     <g id="line2d_17">
      <path clip-path="url(#p74a0772795)" d="M 258.377143 298.944 
L 258.377143 27.648 
" style="fill:none;stroke:#b0b0b0;stroke-linecap:square;stroke-width:0.8;"/>
     </g>
     <g id="line2d_18">
      <g>
       <use style="stroke:#000000;stroke-width:0.6;" x="258.377143" xlink:href="#m72e89d65c4" y="298.944"/>
      </g>
     </g>
    </g>
    <g id="xtick_8">
     <g id="line2d_19">
      <path clip-path="url(#p74a0772795)" d="M 338.688 298.944 
L 338.688 27.648 
" style="fill:none;stroke:#b0b0b0;stroke-linecap:square;stroke-width:0.8;"/>
     </g>
     <g id="line2d_20">
      <g>
       <use style="stroke:#000000;stroke-width:0.6;" x="338.688" xlink:href="#m72e89d65c4" y="298.944"/>
      </g>
     </g>
    </g>
    <g id="text_5">
     <!-- log10(# f-evals / dimension) -->
     <g transform="translate(77.764078 342.217594)scale(0.17 -0.17)">
      <defs>
       <path d="M 9.421875 75.984375 
L 18.40625 75.984375 
L 18.40625 0 
L 9.421875 0 
z
" id="DejaVuSans-108"/>
       <path d="M 30.609375 48.390625 
Q 23.390625 48.390625 19.1875 42.75 
Q 14.984375 37.109375 14.984375 27.296875 
Q 14.984375 17.484375 19.15625 11.84375 
Q 23.34375 6.203125 30.609375 6.203125 
Q 37.796875 6.203125 41.984375 11.859375 
Q 46.1875 17.53125 46.1875 27.296875 
Q 46.1875 37.015625 41.984375 42.703125 
Q 37.796875 48.390625 30.609375 48.390625 
z
M 30.609375 56 
Q 42.328125 56 49.015625 48.375 
Q 55.71875 40.765625 55.71875 27.296875 
Q 55.71875 13.875 49.015625 6.21875 
Q 42.328125 -1.421875 30.609375 -1.421875 
Q 18.84375 -1.421875 12.171875 6.21875 
Q 5.515625 13.875 5.515625 27.296875 
Q 5.515625 40.765625 12.171875 48.375 
Q 18.84375 56 30.609375 56 
z
" id="DejaVuSans-111"/>
       <path d="M 45.40625 27.984375 
Q 45.40625 37.75 41.375 43.109375 
Q 37.359375 48.484375 30.078125 48.484375 
Q 22.859375 48.484375 18.828125 43.109375 
Q 14.796875 37.75 14.796875 27.984375 
Q 14.796875 18.265625 18.828125 12.890625 
Q 22.859375 7.515625 30.078125 7.515625 
Q 37.359375 7.515625 41.375 12.890625 
Q 45.40625 18.265625 45.40625 27.984375 
z
M 54.390625 6.78125 
Q 54.390625 -7.171875 48.1875 -13.984375 
Q 42 -20.796875 29.203125 -20.796875 
Q 24.46875 -20.796875 20.265625 -20.09375 
Q 16.0625 -19.390625 12.109375 -17.921875 
L 12.109375 -9.1875 
Q 16.0625 -11.328125 19.921875 -12.34375 
Q 23.78125 -13.375 27.78125 -13.375 
Q 36.625 -13.375 41.015625 -8.765625 
Q 45.40625 -4.15625 45.40625 5.171875 
L 45.40625 9.625 
Q 42.625 4.78125 38.28125 2.390625 
Q 33.9375 0 27.875 0 
Q 17.828125 0 11.671875 7.65625 
Q 5.515625 15.328125 5.515625 27.984375 
Q 5.515625 40.671875 11.671875 48.328125 
Q 17.828125 56 27.875 56 
Q 33.9375 56 38.28125 53.609375 
Q 42.625 51.21875 45.40625 46.390625 
L 45.40625 54.6875 
L 54.390625 54.6875 
z
" id="DejaVuSans-103"/>
       <path d="M 12.40625 8.296875 
L 28.515625 8.296875 
L 28.515625 63.921875 
L 10.984375 60.40625 
L 10.984375 69.390625 
L 28.421875 72.90625 
L 38.28125 72.90625 
L 38.28125 8.296875 
L 54.390625 8.296875 
L 54.390625 0 
L 12.40625 0 
z
" id="DejaVuSans-49"/>
       <path d="M 31 75.875 
Q 24.46875 64.65625 21.28125 53.65625 
Q 18.109375 42.671875 18.109375 31.390625 
Q 18.109375 20.125 21.3125 9.0625 
Q 24.515625 -2 31 -13.1875 
L 23.1875 -13.1875 
Q 15.875 -1.703125 12.234375 9.375 
Q 8.59375 20.453125 8.59375 31.390625 
Q 8.59375 42.28125 12.203125 53.3125 
Q 15.828125 64.359375 23.1875 75.875 
z
" id="DejaVuSans-40"/>
       <path d="M 51.125 44 
L 36.921875 44 
L 32.8125 27.6875 
L 47.125 27.6875 
z
M 43.796875 71.78125 
L 38.71875 51.515625 
L 52.984375 51.515625 
L 58.109375 71.78125 
L 65.921875 71.78125 
L 60.890625 51.515625 
L 76.125 51.515625 
L 76.125 44 
L 58.984375 44 
L 54.984375 27.6875 
L 70.515625 27.6875 
L 70.515625 20.21875 
L 53.078125 20.21875 
L 48 0 
L 40.1875 0 
L 45.21875 20.21875 
L 30.90625 20.21875 
L 25.875 0 
L 18.015625 0 
L 23.09375 20.21875 
L 7.71875 20.21875 
L 7.71875 27.6875 
L 24.90625 27.6875 
L 29 44 
L 13.28125 44 
L 13.28125 51.515625 
L 30.90625 51.515625 
L 35.890625 71.78125 
z
" id="DejaVuSans-35"/>
       <path id="DejaVuSans-32"/>
       <path d="M 37.109375 75.984375 
L 37.109375 68.5 
L 28.515625 68.5 
Q 23.6875 68.5 21.796875 66.546875 
Q 19.921875 64.59375 19.921875 59.515625 
L 19.921875 54.6875 
L 34.71875 54.6875 
L 34.71875 47.703125 
L 19.921875 47.703125 
L 19.921875 0 
L 10.890625 0 
L 10.890625 47.703125 
L 2.296875 47.703125 
L 2.296875 54.6875 
L 10.890625 54.6875 
L 10.890625 58.5 
Q 10.890625 67.625 15.140625 71.796875 
Q 19.390625 75.984375 28.609375 75.984375 
z
" id="DejaVuSans-102"/>
       <path d="M 4.890625 31.390625 
L 31.203125 31.390625 
L 31.203125 23.390625 
L 4.890625 23.390625 
z
" id="DejaVuSans-45"/>
       <path d="M 56.203125 29.59375 
L 56.203125 25.203125 
L 14.890625 25.203125 
Q 15.484375 15.921875 20.484375 11.0625 
Q 25.484375 6.203125 34.421875 6.203125 
Q 39.59375 6.203125 44.453125 7.46875 
Q 49.3125 8.734375 54.109375 11.28125 
L 54.109375 2.78125 
Q 49.265625 0.734375 44.1875 -0.34375 
Q 39.109375 -1.421875 33.890625 -1.421875 
Q 20.796875 -1.421875 13.15625 6.1875 
Q 5.515625 13.8125 5.515625 26.8125 
Q 5.515625 40.234375 12.765625 48.109375 
Q 20.015625 56 32.328125 56 
Q 43.359375 56 49.78125 48.890625 
Q 56.203125 41.796875 56.203125 29.59375 
z
M 47.21875 32.234375 
Q 47.125 39.59375 43.09375 43.984375 
Q 39.0625 48.390625 32.421875 48.390625 
Q 24.90625 48.390625 20.390625 44.140625 
Q 15.875 39.890625 15.1875 32.171875 
z
" id="DejaVuSans-101"/>
       <path d="M 2.984375 54.6875 
L 12.5 54.6875 
L 29.59375 8.796875 
L 46.6875 54.6875 
L 56.203125 54.6875 
L 35.6875 0 
L 23.484375 0 
z
" id="DejaVuSans-118"/>
       <path d="M 34.28125 27.484375 
Q 23.390625 27.484375 19.1875 25 
Q 14.984375 22.515625 14.984375 16.5 
Q 14.984375 11.71875 18.140625 8.90625 
Q 21.296875 6.109375 26.703125 6.109375 
Q 34.1875 6.109375 38.703125 11.40625 
Q 43.21875 16.703125 43.21875 25.484375 
L 43.21875 27.484375 
z
M 52.203125 31.203125 
L 52.203125 0 
L 43.21875 0 
L 43.21875 8.296875 
Q 40.140625 3.328125 35.546875 0.953125 
Q 30.953125 -1.421875 24.3125 -1.421875 
Q 15.921875 -1.421875 10.953125 3.296875 
Q 6 8.015625 6 15.921875 
Q 6 25.140625 12.171875 29.828125 
Q 18.359375 34.515625 30.609375 34.515625 
L 43.21875 34.515625 
L 43.21875 35.40625 
Q 43.21875 41.609375 39.140625 45 
Q 35.0625 48.390625 27.6875 48.390625 
Q 23 48.390625 18.546875 47.265625 
Q 14.109375 46.140625 10.015625 43.890625 
L 10.015625 52.203125 
Q 14.9375 54.109375 19.578125 55.046875 
Q 24.21875 56 28.609375 56 
Q 40.484375 56 46.34375 49.84375 
Q 52.203125 43.703125 52.203125 31.203125 
z
" id="DejaVuSans-97"/>
       <path d="M 44.28125 53.078125 
L 44.28125 44.578125 
Q 40.484375 46.53125 36.375 47.5 
Q 32.28125 48.484375 27.875 48.484375 
Q 21.1875 48.484375 17.84375 46.4375 
Q 14.5 44.390625 14.5 40.28125 
Q 14.5 37.15625 16.890625 35.375 
Q 19.28125 33.59375 26.515625 31.984375 
L 29.59375 31.296875 
Q 39.15625 29.25 43.1875 25.515625 
Q 47.21875 21.78125 47.21875 15.09375 
Q 47.21875 7.46875 41.1875 3.015625 
Q 35.15625 -1.421875 24.609375 -1.421875 
Q 20.21875 -1.421875 15.453125 -0.5625 
Q 10.6875 0.296875 5.421875 2 
L 5.421875 11.28125 
Q 10.40625 8.6875 15.234375 7.390625 
Q 20.0625 6.109375 24.8125 6.109375 
Q 31.15625 6.109375 34.5625 8.28125 
Q 37.984375 10.453125 37.984375 14.40625 
Q 37.984375 18.0625 35.515625 20.015625 
Q 33.0625 21.96875 24.703125 23.78125 
L 21.578125 24.515625 
Q 13.234375 26.265625 9.515625 29.90625 
Q 5.8125 33.546875 5.8125 39.890625 
Q 5.8125 47.609375 11.28125 51.796875 
Q 16.75 56 26.8125 56 
Q 31.78125 56 36.171875 55.265625 
Q 40.578125 54.546875 44.28125 53.078125 
z
" id="DejaVuSans-115"/>
       <path d="M 25.390625 72.90625 
L 33.6875 72.90625 
L 8.296875 -9.28125 
L 0 -9.28125 
z
" id="DejaVuSans-47"/>
       <path d="M 45.40625 46.390625 
L 45.40625 75.984375 
L 54.390625 75.984375 
L 54.390625 0 
L 45.40625 0 
L 45.40625 8.203125 
Q 42.578125 3.328125 38.25 0.953125 
Q 33.9375 -1.421875 27.875 -1.421875 
Q 17.96875 -1.421875 11.734375 6.484375 
Q 5.515625 14.40625 5.515625 27.296875 
Q 5.515625 40.1875 11.734375 48.09375 
Q 17.96875 56 27.875 56 
Q 33.9375 56 38.25 53.625 
Q 42.578125 51.265625 45.40625 46.390625 
z
M 14.796875 27.296875 
Q 14.796875 17.390625 18.875 11.75 
Q 22.953125 6.109375 30.078125 6.109375 
Q 37.203125 6.109375 41.296875 11.75 
Q 45.40625 17.390625 45.40625 27.296875 
Q 45.40625 37.203125 41.296875 42.84375 
Q 37.203125 48.484375 30.078125 48.484375 
Q 22.953125 48.484375 18.875 42.84375 
Q 14.796875 37.203125 14.796875 27.296875 
z
" id="DejaVuSans-100"/>
       <path d="M 9.421875 54.6875 
L 18.40625 54.6875 
L 18.40625 0 
L 9.421875 0 
z
M 9.421875 75.984375 
L 18.40625 75.984375 
L 18.40625 64.59375 
L 9.421875 64.59375 
z
" id="DejaVuSans-105"/>
       <path d="M 52 44.1875 
Q 55.375 50.25 60.0625 53.125 
Q 64.75 56 71.09375 56 
Q 79.640625 56 84.28125 50.015625 
Q 88.921875 44.046875 88.921875 33.015625 
L 88.921875 0 
L 79.890625 0 
L 79.890625 32.71875 
Q 79.890625 40.578125 77.09375 44.375 
Q 74.3125 48.1875 68.609375 48.1875 
Q 61.625 48.1875 57.5625 43.546875 
Q 53.515625 38.921875 53.515625 30.90625 
L 53.515625 0 
L 44.484375 0 
L 44.484375 32.71875 
Q 44.484375 40.625 41.703125 44.40625 
Q 38.921875 48.1875 33.109375 48.1875 
Q 26.21875 48.1875 22.15625 43.53125 
Q 18.109375 38.875 18.109375 30.90625 
L 18.109375 0 
L 9.078125 0 
L 9.078125 54.6875 
L 18.109375 54.6875 
L 18.109375 46.1875 
Q 21.1875 51.21875 25.484375 53.609375 
Q 29.78125 56 35.6875 56 
Q 41.65625 56 45.828125 52.96875 
Q 50 49.953125 52 44.1875 
z
" id="DejaVuSans-109"/>
       <path d="M 54.890625 33.015625 
L 54.890625 0 
L 45.90625 0 
L 45.90625 32.71875 
Q 45.90625 40.484375 42.875 44.328125 
Q 39.84375 48.1875 33.796875 48.1875 
Q 26.515625 48.1875 22.3125 43.546875 
Q 18.109375 38.921875 18.109375 30.90625 
L 18.109375 0 
L 9.078125 0 
L 9.078125 54.6875 
L 18.109375 54.6875 
L 18.109375 46.1875 
Q 21.34375 51.125 25.703125 53.5625 
Q 30.078125 56 35.796875 56 
Q 45.21875 56 50.046875 50.171875 
Q 54.890625 44.34375 54.890625 33.015625 
z
" id="DejaVuSans-110"/>
       <path d="M 8.015625 75.875 
L 15.828125 75.875 
Q 23.140625 64.359375 26.78125 53.3125 
Q 30.421875 42.28125 30.421875 31.390625 
Q 30.421875 20.453125 26.78125 9.375 
Q 23.140625 -1.703125 15.828125 -13.1875 
L 8.015625 -13.1875 
Q 14.5 -2 17.703125 9.0625 
Q 20.90625 20.125 20.90625 31.390625 
Q 20.90625 42.671875 17.703125 53.65625 
Q 14.5 64.65625 8.015625 75.875 
z
" id="DejaVuSans-41"/>
      </defs>
      <use xlink:href="#DejaVuSans-108"/>
      <use x="27.783203" xlink:href="#DejaVuSans-111"/>
      <use x="88.964844" xlink:href="#DejaVuSans-103"/>
      <use x="152.441406" xlink:href="#DejaVuSans-49"/>
      <use x="216.064453" xlink:href="#DejaVuSans-48"/>
      <use x="279.6875" xlink:href="#DejaVuSans-40"/>
      <use x="318.701172" xlink:href="#DejaVuSans-35"/>
      <use x="402.490234" xlink:href="#DejaVuSans-32"/>
      <use x="434.277344" xlink:href="#DejaVuSans-102"/>
      <use x="463.982422" xlink:href="#DejaVuSans-45"/>
      <use x="500.066406" xlink:href="#DejaVuSans-101"/>
      <use x="561.589844" xlink:href="#DejaVuSans-118"/>
      <use x="620.769531" xlink:href="#DejaVuSans-97"/>
      <use x="682.048828" xlink:href="#DejaVuSans-108"/>
      <use x="709.832031" xlink:href="#DejaVuSans-115"/>
      <use x="761.931641" xlink:href="#DejaVuSans-32"/>
      <use x="793.71875" xlink:href="#DejaVuSans-47"/>
      <use x="827.410156" xlink:href="#DejaVuSans-32"/>
      <use x="859.197266" xlink:href="#DejaVuSans-100"/>
      <use x="922.673828" xlink:href="#DejaVuSans-105"/>
      <use x="950.457031" xlink:href="#DejaVuSans-109"/>
      <use x="1047.869141" xlink:href="#DejaVuSans-101"/>
      <use x="1109.392578" xlink:href="#DejaVuSans-110"/>
      <use x="1172.771484" xlink:href="#DejaVuSans-115"/>
      <use x="1224.871094" xlink:href="#DejaVuSans-105"/>
      <use x="1252.654297" xlink:href="#DejaVuSans-111"/>
      <use x="1313.835938" xlink:href="#DejaVuSans-110"/>
      <use x="1377.214844" xlink:href="#DejaVuSans-41"/>
     </g>
    </g>
   </g>
   <g id="matplotlib.axis_2">
    <g id="ytick_1">
     <g id="line2d_21">
      <path clip-path="url(#p74a0772795)" d="M 57.6 298.944 
L 338.688 298.944 
" style="fill:none;stroke:#b0b0b0;stroke-linecap:square;stroke-width:0.8;"/>
     </g>
     <g id="line2d_22">
      <defs>
       <path d="M 0 0 
L -3.5 0 
" id="m2001d35dfb" style="stroke:#000000;stroke-width:0.8;"/>
      </defs>
      <g>
       <use style="stroke:#000000;stroke-width:0.8;" x="57.6" xlink:href="#m2001d35dfb" y="298.944"/>
      </g>
     </g>
     <g id="text_6">
      <!-- 0.0 -->
      <g transform="translate(25.155 305.02275)scale(0.16 -0.16)">
       <defs>
        <path d="M 10.6875 12.40625 
L 21 12.40625 
L 21 0 
L 10.6875 0 
z
" id="DejaVuSans-46"/>
       </defs>
       <use xlink:href="#DejaVuSans-48"/>
       <use x="63.623047" xlink:href="#DejaVuSans-46"/>
       <use x="95.410156" xlink:href="#DejaVuSans-48"/>
      </g>
     </g>
    </g>
    <g id="ytick_2">
     <g id="line2d_23">
      <path clip-path="url(#p74a0772795)" d="M 57.6 245.22202 
L 338.688 245.22202 
" style="fill:none;stroke:#b0b0b0;stroke-linecap:square;stroke-width:0.8;"/>
     </g>
     <g id="line2d_24">
      <g>
       <use style="stroke:#000000;stroke-width:0.8;" x="57.6" xlink:href="#m2001d35dfb" y="245.22202"/>
      </g>
     </g>
     <g id="text_7">
      <!-- 0.2 -->
      <g transform="translate(25.155 251.30077)scale(0.16 -0.16)">
       <use xlink:href="#DejaVuSans-48"/>
       <use x="63.623047" xlink:href="#DejaVuSans-46"/>
       <use x="95.410156" xlink:href="#DejaVuSans-50"/>
      </g>
     </g>
    </g>
    <g id="ytick_3">
     <g id="line2d_25">
      <path clip-path="url(#p74a0772795)" d="M 57.6 191.50004 
L 338.688 191.50004 
" style="fill:none;stroke:#b0b0b0;stroke-linecap:square;stroke-width:0.8;"/>
     </g>
     <g id="line2d_26">
      <g>
       <use style="stroke:#000000;stroke-width:0.8;" x="57.6" xlink:href="#m2001d35dfb" y="191.50004"/>
      </g>
     </g>
     <g id="text_8">
      <!-- 0.4 -->
      <g transform="translate(25.155 197.57879)scale(0.16 -0.16)">
       <use xlink:href="#DejaVuSans-48"/>
       <use x="63.623047" xlink:href="#DejaVuSans-46"/>
       <use x="95.410156" xlink:href="#DejaVuSans-52"/>
      </g>
     </g>
    </g>
    <g id="ytick_4">
     <g id="line2d_27">
      <path clip-path="url(#p74a0772795)" d="M 57.6 137.778059 
L 338.688 137.778059 
" style="fill:none;stroke:#b0b0b0;stroke-linecap:square;stroke-width:0.8;"/>
     </g>
     <g id="line2d_28">
      <g>
       <use style="stroke:#000000;stroke-width:0.8;" x="57.6" xlink:href="#m2001d35dfb" y="137.778059"/>
      </g>
     </g>
     <g id="text_9">
      <!-- 0.6 -->
      <g transform="translate(25.155 143.856809)scale(0.16 -0.16)">
       <use xlink:href="#DejaVuSans-48"/>
       <use x="63.623047" xlink:href="#DejaVuSans-46"/>
       <use x="95.410156" xlink:href="#DejaVuSans-54"/>
      </g>
     </g>
    </g>
    <g id="ytick_5">
     <g id="line2d_29">
      <path clip-path="url(#p74a0772795)" d="M 57.6 84.056079 
L 338.688 84.056079 
" style="fill:none;stroke:#b0b0b0;stroke-linecap:square;stroke-width:0.8;"/>
     </g>
     <g id="line2d_30">
      <g>
       <use style="stroke:#000000;stroke-width:0.8;" x="57.6" xlink:href="#m2001d35dfb" y="84.056079"/>
      </g>
     </g>
     <g id="text_10">
      <!-- 0.8 -->
      <g transform="translate(25.155 90.134829)scale(0.16 -0.16)">
       <defs>
        <path d="M 31.78125 34.625 
Q 24.75 34.625 20.71875 30.859375 
Q 16.703125 27.09375 16.703125 20.515625 
Q 16.703125 13.921875 20.71875 10.15625 
Q 24.75 6.390625 31.78125 6.390625 
Q 38.8125 6.390625 42.859375 10.171875 
Q 46.921875 13.96875 46.921875 20.515625 
Q 46.921875 27.09375 42.890625 30.859375 
Q 38.875 34.625 31.78125 34.625 
z
M 21.921875 38.8125 
Q 15.578125 40.375 12.03125 44.71875 
Q 8.5 49.078125 8.5 55.328125 
Q 8.5 64.0625 14.71875 69.140625 
Q 20.953125 74.21875 31.78125 74.21875 
Q 42.671875 74.21875 48.875 69.140625 
Q 55.078125 64.0625 55.078125 55.328125 
Q 55.078125 49.078125 51.53125 44.71875 
Q 48 40.375 41.703125 38.8125 
Q 48.828125 37.15625 52.796875 32.3125 
Q 56.78125 27.484375 56.78125 20.515625 
Q 56.78125 9.90625 50.3125 4.234375 
Q 43.84375 -1.421875 31.78125 -1.421875 
Q 19.734375 -1.421875 13.25 4.234375 
Q 6.78125 9.90625 6.78125 20.515625 
Q 6.78125 27.484375 10.78125 32.3125 
Q 14.796875 37.15625 21.921875 38.8125 
z
M 18.3125 54.390625 
Q 18.3125 48.734375 21.84375 45.5625 
Q 25.390625 42.390625 31.78125 42.390625 
Q 38.140625 42.390625 41.71875 45.5625 
Q 45.3125 48.734375 45.3125 54.390625 
Q 45.3125 60.0625 41.71875 63.234375 
Q 38.140625 66.40625 31.78125 66.40625 
Q 25.390625 66.40625 21.84375 63.234375 
Q 18.3125 60.0625 18.3125 54.390625 
z
" id="DejaVuSans-56"/>
       </defs>
       <use xlink:href="#DejaVuSans-48"/>
       <use x="63.623047" xlink:href="#DejaVuSans-46"/>
       <use x="95.410156" xlink:href="#DejaVuSans-56"/>
      </g>
     </g>
    </g>
    <g id="ytick_6">
     <g id="line2d_31">
      <path clip-path="url(#p74a0772795)" d="M 57.6 30.334099 
L 338.688 30.334099 
" style="fill:none;stroke:#b0b0b0;stroke-linecap:square;stroke-width:0.8;"/>
     </g>
     <g id="line2d_32">
      <g>
       <use style="stroke:#000000;stroke-width:0.8;" x="57.6" xlink:href="#m2001d35dfb" y="30.334099"/>
      </g>
     </g>
     <g id="text_11">
      <!-- 1.0 -->
      <g transform="translate(25.155 36.412849)scale(0.16 -0.16)">
       <use xlink:href="#DejaVuSans-49"/>
       <use x="63.623047" xlink:href="#DejaVuSans-46"/>
       <use x="95.410156" xlink:href="#DejaVuSans-48"/>
      </g>
     </g>
    </g>
    <g id="text_12">
     <!-- Fraction of function,target pairs -->
     <g transform="translate(17.619531 297.681)rotate(-90)scale(0.17 -0.17)">
      <defs>
       <path d="M 9.8125 72.90625 
L 51.703125 72.90625 
L 51.703125 64.59375 
L 19.671875 64.59375 
L 19.671875 43.109375 
L 48.578125 43.109375 
L 48.578125 34.8125 
L 19.671875 34.8125 
L 19.671875 0 
L 9.8125 0 
z
" id="DejaVuSans-70"/>
       <path d="M 41.109375 46.296875 
Q 39.59375 47.171875 37.8125 47.578125 
Q 36.03125 48 33.890625 48 
Q 26.265625 48 22.1875 43.046875 
Q 18.109375 38.09375 18.109375 28.8125 
L 18.109375 0 
L 9.078125 0 
L 9.078125 54.6875 
L 18.109375 54.6875 
L 18.109375 46.1875 
Q 20.953125 51.171875 25.484375 53.578125 
Q 30.03125 56 36.53125 56 
Q 37.453125 56 38.578125 55.875 
Q 39.703125 55.765625 41.0625 55.515625 
z
" id="DejaVuSans-114"/>
       <path d="M 48.78125 52.59375 
L 48.78125 44.1875 
Q 44.96875 46.296875 41.140625 47.34375 
Q 37.3125 48.390625 33.40625 48.390625 
Q 24.65625 48.390625 19.8125 42.84375 
Q 14.984375 37.3125 14.984375 27.296875 
Q 14.984375 17.28125 19.8125 11.734375 
Q 24.65625 6.203125 33.40625 6.203125 
Q 37.3125 6.203125 41.140625 7.25 
Q 44.96875 8.296875 48.78125 10.40625 
L 48.78125 2.09375 
Q 45.015625 0.34375 40.984375 -0.53125 
Q 36.96875 -1.421875 32.421875 -1.421875 
Q 20.0625 -1.421875 12.78125 6.34375 
Q 5.515625 14.109375 5.515625 27.296875 
Q 5.515625 40.671875 12.859375 48.328125 
Q 20.21875 56 33.015625 56 
Q 37.15625 56 41.109375 55.140625 
Q 45.0625 54.296875 48.78125 52.59375 
z
" id="DejaVuSans-99"/>
       <path d="M 18.3125 70.21875 
L 18.3125 54.6875 
L 36.8125 54.6875 
L 36.8125 47.703125 
L 18.3125 47.703125 
L 18.3125 18.015625 
Q 18.3125 11.328125 20.140625 9.421875 
Q 21.96875 7.515625 27.59375 7.515625 
L 36.8125 7.515625 
L 36.8125 0 
L 27.59375 0 
Q 17.1875 0 13.234375 3.875 
Q 9.28125 7.765625 9.28125 18.015625 
L 9.28125 47.703125 
L 2.6875 47.703125 
L 2.6875 54.6875 
L 9.28125 54.6875 
L 9.28125 70.21875 
z
" id="DejaVuSans-116"/>
       <path d="M 8.5 21.578125 
L 8.5 54.6875 
L 17.484375 54.6875 
L 17.484375 21.921875 
Q 17.484375 14.15625 20.5 10.265625 
Q 23.53125 6.390625 29.59375 6.390625 
Q 36.859375 6.390625 41.078125 11.03125 
Q 45.3125 15.671875 45.3125 23.6875 
L 45.3125 54.6875 
L 54.296875 54.6875 
L 54.296875 0 
L 45.3125 0 
L 45.3125 8.40625 
Q 42.046875 3.421875 37.71875 1 
Q 33.40625 -1.421875 27.6875 -1.421875 
Q 18.265625 -1.421875 13.375 4.4375 
Q 8.5 10.296875 8.5 21.578125 
z
M 31.109375 56 
z
" id="DejaVuSans-117"/>
       <path d="M 11.71875 12.40625 
L 22.015625 12.40625 
L 22.015625 4 
L 14.015625 -11.625 
L 7.71875 -11.625 
L 11.71875 4 
z
" id="DejaVuSans-44"/>
       <path d="M 18.109375 8.203125 
L 18.109375 -20.796875 
L 9.078125 -20.796875 
L 9.078125 54.6875 
L 18.109375 54.6875 
L 18.109375 46.390625 
Q 20.953125 51.265625 25.265625 53.625 
Q 29.59375 56 35.59375 56 
Q 45.5625 56 51.78125 48.09375 
Q 58.015625 40.1875 58.015625 27.296875 
Q 58.015625 14.40625 51.78125 6.484375 
Q 45.5625 -1.421875 35.59375 -1.421875 
Q 29.59375 -1.421875 25.265625 0.953125 
Q 20.953125 3.328125 18.109375 8.203125 
z
M 48.6875 27.296875 
Q 48.6875 37.203125 44.609375 42.84375 
Q 40.53125 48.484375 33.40625 48.484375 
Q 26.265625 48.484375 22.1875 42.84375 
Q 18.109375 37.203125 18.109375 27.296875 
Q 18.109375 17.390625 22.1875 11.75 
Q 26.265625 6.109375 33.40625 6.109375 
Q 40.53125 6.109375 44.609375 11.75 
Q 48.6875 17.390625 48.6875 27.296875 
z
" id="DejaVuSans-112"/>
      </defs>
      <use xlink:href="#DejaVuSans-70"/>
      <use x="50.269531" xlink:href="#DejaVuSans-114"/>
      <use x="91.382812" xlink:href="#DejaVuSans-97"/>
      <use x="152.662109" xlink:href="#DejaVuSans-99"/>
      <use x="207.642578" xlink:href="#DejaVuSans-116"/>
      <use x="246.851562" xlink:href="#DejaVuSans-105"/>
      <use x="274.634766" xlink:href="#DejaVuSans-111"/>
      <use x="335.816406" xlink:href="#DejaVuSans-110"/>
      <use x="399.195312" xlink:href="#DejaVuSans-32"/>
      <use x="430.982422" xlink:href="#DejaVuSans-111"/>
      <use x="492.164062" xlink:href="#DejaVuSans-102"/>
      <use x="527.369141" xlink:href="#DejaVuSans-32"/>
      <use x="559.15625" xlink:href="#DejaVuSans-102"/>
      <use x="594.361328" xlink:href="#DejaVuSans-117"/>
      <use x="657.740234" xlink:href="#DejaVuSans-110"/>
      <use x="721.119141" xlink:href="#DejaVuSans-99"/>
      <use x="776.099609" xlink:href="#DejaVuSans-116"/>
      <use x="815.308594" xlink:href="#DejaVuSans-105"/>
      <use x="843.091797" xlink:href="#DejaVuSans-111"/>
      <use x="904.273438" xlink:href="#DejaVuSans-110"/>
      <use x="967.652344" xlink:href="#DejaVuSans-44"/>
      <use x="999.439453" xlink:href="#DejaVuSans-116"/>
      <use x="1038.648438" xlink:href="#DejaVuSans-97"/>
      <use x="1099.927734" xlink:href="#DejaVuSans-114"/>
      <use x="1139.291016" xlink:href="#DejaVuSans-103"/>
      <use x="1202.767578" xlink:href="#DejaVuSans-101"/>
      <use x="1264.291016" xlink:href="#DejaVuSans-116"/>
      <use x="1303.5" xlink:href="#DejaVuSans-32"/>
      <use x="1335.287109" xlink:href="#DejaVuSans-112"/>
      <use x="1398.763672" xlink:href="#DejaVuSans-97"/>
      <use x="1460.042969" xlink:href="#DejaVuSans-105"/>
      <use x="1487.826172" xlink:href="#DejaVuSans-114"/>
      <use x="1528.939453" xlink:href="#DejaVuSans-115"/>
     </g>
    </g>
   </g>
   <g id="line2d_33">
    <defs>
     <path d="M 0 1.5 
C 0.397805 1.5 0.77937 1.341951 1.06066 1.06066 
C 1.341951 0.77937 1.5 0.397805 1.5 0 
C 1.5 -0.397805 1.341951 -0.77937 1.06066 -1.06066 
C 0.77937 -1.341951 0.397805 -1.5 0 -1.5 
C -0.397805 -1.5 -0.77937 -1.341951 -1.06066 -1.06066 
C -1.341951 -0.77937 -1.5 -0.397805 -1.5 0 
C -1.5 0.397805 -1.341951 0.77937 -1.06066 1.06066 
C -0.77937 1.341951 -0.397805 1.5 0 1.5 
z
" id="m542575e926" style="stroke:#f5deb3;"/>
    </defs>
    <g>
     <use style="fill:#f5deb3;stroke:#f5deb3;" x="138.84457" xlink:href="#m542575e926" y="30.334099"/>
     <use style="fill:#f5deb3;stroke:#f5deb3;" x="138.84457" xlink:href="#m542575e926" y="30.334099"/>
    </g>
   </g>
   <g id="line2d_34">
    <defs>
     <path d="M 0 1.5 
C 0.397805 1.5 0.77937 1.341951 1.06066 1.06066 
C 1.341951 0.77937 1.5 0.397805 1.5 0 
C 1.5 -0.397805 1.341951 -0.77937 1.06066 -1.06066 
C 0.77937 -1.341951 0.397805 -1.5 0 -1.5 
C -0.397805 -1.5 -0.77937 -1.341951 -1.06066 -1.06066 
C -1.341951 -0.77937 -1.5 -0.397805 -1.5 0 
C -1.5 0.397805 -1.341951 0.77937 -1.06066 1.06066 
C -0.77937 1.341951 -0.397805 1.5 0 1.5 
z
" id="m21d1281253" style="stroke:#000080;"/>
    </defs>
    <g>
     <use style="fill:#000080;stroke:#000080;" x="205.310654" xlink:href="#m21d1281253" y="30.334099"/>
     <use style="fill:#000080;stroke:#000080;" x="205.310654" xlink:href="#m21d1281253" y="30.334099"/>
    </g>
   </g>
   <g id="line2d_35">
    <path d="M 100.934985 298.944 
L 100.934985 296.837256 
L 107.009204 296.837256 
L 107.009204 295.783884 
L 114.418861 295.783884 
L 114.418861 294.203825 
L 120.8059 294.203825 
L 120.8059 293.150453 
L 122.148045 293.150453 
L 122.148045 292.623767 
L 122.988655 292.623767 
L 122.988655 292.097081 
L 123.394238 292.097081 
L 123.394238 289.463651 
L 124.557288 289.463651 
L 124.557288 287.883592 
L 124.92835 287.883592 
L 124.92835 287.356906 
L 125.647598 287.356906 
L 125.647598 286.83022 
L 126.168212 286.83022 
L 126.168212 284.723476 
L 126.50685 284.723476 
L 126.50685 283.670104 
L 127.002787 283.670104 
L 127.002787 282.090045 
L 129.714332 282.090045 
L 129.714332 281.563359 
L 130.127931 281.563359 
L 130.127931 279.456615 
L 131.938072 279.456615 
L 131.938072 278.929929 
L 132.541568 278.929929 
L 132.541568 274.71644 
L 133.57787 274.71644 
L 133.57787 272.609696 
L 133.689303 272.609696 
L 133.689303 272.08301 
L 134.766144 272.08301 
L 134.870259 265.762777 
L 135.381712 265.762777 
L 135.482227 264.709405 
L 135.582166 264.709405 
L 135.582166 258.389172 
L 136.456742 258.389172 
L 136.456742 257.862486 
L 137.910857 257.862486 
L 137.910857 257.3358 
L 140.272217 257.3358 
L 140.272217 255.229055 
L 140.64889 255.229055 
L 140.64889 253.648997 
L 142.486301 253.648997 
L 142.486301 253.122311 
L 146.161795 253.122311 
L 146.161795 252.068939 
L 147.96658 252.068939 
L 147.96658 251.542253 
L 148.112924 251.542253 
L 148.161434 250.488881 
L 148.258051 250.488881 
L 148.258051 249.962195 
L 148.733265 249.962195 
L 148.733265 249.435508 
L 149.15016 249.435508 
L 149.15016 248.382136 
L 149.512548 248.382136 
L 149.512548 247.328764 
L 149.779481 247.328764 
L 149.779481 245.748706 
L 149.955193 245.748706 
L 150.042389 244.168648 
L 150.301393 244.168648 
L 150.301393 243.641962 
L 150.429467 243.641962 
L 150.51433 241.535217 
L 150.598782 241.535217 
L 150.682827 238.901787 
L 150.932558 238.901787 
L 150.973835 235.74167 
L 151.260066 235.74167 
L 151.260066 233.10824 
L 151.421542 233.10824 
L 151.501723 231.001496 
L 151.660987 231.001496 
L 151.660987 229.421437 
L 151.818809 229.421437 
L 151.818809 227.841379 
L 152.207228 227.841379 
L 152.283884 224.154577 
L 152.322086 224.154577 
L 152.322086 223.627891 
L 152.436193 223.627891 
L 152.436193 219.941088 
L 152.811246 219.941088 
L 152.885298 217.834344 
L 153.142033 217.834344 
L 153.142033 217.307658 
L 153.890309 217.307658 
L 153.890309 216.780971 
L 154.405793 216.780971 
L 154.507086 211.514111 
L 154.54072 211.514111 
L 154.54072 210.460738 
L 154.741174 210.460738 
L 154.741174 209.934052 
L 155.102793 209.934052 
L 155.102793 209.407366 
L 155.264719 209.407366 
L 155.296925 207.827308 
L 155.457066 207.827308 
L 155.488919 206.773936 
L 155.647315 206.773936 
L 155.678822 203.613819 
L 155.773004 203.613819 
L 155.773004 200.980389 
L 155.928852 200.980389 
L 155.959855 197.293586 
L 156.175347 197.293586 
L 156.266892 194.13347 
L 156.508689 194.13347 
L 156.508689 193.606784 
L 156.628341 193.606784 
L 156.687861 192.553412 
L 157.472107 192.553412 
L 157.557108 188.339923 
L 157.58535 188.339923 
L 157.58535 187.813237 
L 157.920731 187.813237 
L 158.003578 184.126434 
L 158.465753 184.126434 
L 158.51933 182.546376 
L 158.67908 182.546376 
L 158.784773 179.912946 
L 158.915995 179.912946 
L 159.020266 177.279515 
L 159.072168 177.279515 
L 159.149734 174.646085 
L 159.201253 174.646085 
L 159.226956 170.432596 
L 159.658204 170.432596 
L 159.683242 169.379224 
L 159.783038 169.379224 
L 159.832723 166.745794 
L 160.176607 166.745794 
L 160.273627 162.532305 
L 160.585265 162.532305 
L 160.585265 162.005619 
L 160.703658 162.005619 
L 160.750792 160.952247 
L 160.844678 160.952247 
L 160.938061 159.372189 
L 160.984566 159.372189 
L 160.984566 158.845503 
L 161.100288 158.845503 
L 161.169354 155.685386 
L 161.329454 155.685386 
L 161.374928 153.578642 
L 161.442917 153.578642 
L 161.510643 151.998584 
L 161.823263 151.998584 
L 161.823263 151.471897 
L 161.999419 151.471897 
L 162.065021 150.418525 
L 162.152109 150.418525 
L 162.173813 148.838467 
L 162.367945 148.838467 
L 162.474869 147.785095 
L 162.602318 147.785095 
L 162.602318 146.731723 
L 162.728843 146.731723 
L 162.728843 145.678351 
L 162.9377 145.678351 
L 163.020547 144.098292 
L 163.307451 144.098292 
L 163.327764 141.464862 
L 163.52961 141.464862 
L 163.52961 140.41149 
L 163.689421 140.41149 
L 163.788565 137.778059 
L 163.808326 137.778059 
L 163.906798 130.93114 
L 163.946031 130.93114 
L 163.965615 129.351082 
L 164.063205 129.351082 
L 164.160252 127.771024 
L 164.256762 127.771024 
L 164.256762 125.66428 
L 164.543127 125.66428 
L 164.580957 121.977477 
L 164.693955 121.977477 
L 164.768882 119.344047 
L 164.824867 119.344047 
L 164.843488 118.290674 
L 164.9363 118.290674 
L 165.010195 113.023814 
L 165.266391 113.023814 
L 165.266391 112.497128 
L 165.411116 112.497128 
L 165.447111 107.230267 
L 165.643763 107.230267 
L 165.732422 105.123522 
L 165.785402 105.123522 
L 165.890882 103.016778 
L 165.943384 103.016778 
L 165.943384 97.749917 
L 166.203547 97.749917 
L 166.203547 96.696545 
L 166.323641 96.696545 
L 166.357802 95.116487 
L 166.442913 95.116487 
L 166.442913 94.589801 
L 166.91201 94.589801 
L 166.91201 93.009743 
L 167.109252 93.009743 
L 167.207042 91.429684 
L 167.656285 91.429684 
L 167.735303 89.32294 
L 167.782543 89.32294 
L 167.892273 86.162824 
L 167.954668 86.162824 
L 168.032349 81.422649 
L 168.140524 81.422649 
L 168.140524 79.842591 
L 168.581663 79.842591 
L 168.581663 75.629102 
L 168.805533 75.629102 
L 168.805533 75.102416 
L 168.967898 75.102416 
L 168.997257 74.049044 
L 169.431813 74.049044 
L 169.431813 72.995672 
L 169.715615 72.995672 
L 169.715615 71.942299 
L 170.105336 71.942299 
L 170.105336 71.415613 
L 170.607318 71.415613 
L 170.607318 70.362241 
L 170.767069 70.362241 
L 170.767069 68.255497 
L 171.379036 68.255497 
L 171.379036 67.728811 
L 171.83367 67.728811 
L 171.83367 67.202125 
L 172.458099 67.202125 
L 172.458099 66.675439 
L 172.66137 66.675439 
L 172.744386 62.988636 
L 173.084161 62.988636 
L 173.084161 62.46195 
L 173.31469 62.46195 
L 173.383259 60.881892 
L 173.428822 60.881892 
L 173.428822 59.301833 
L 173.911252 59.301833 
L 174.010558 58.248461 
L 176.52666 58.248461 
L 176.52666 57.721775 
L 178.479885 57.721775 
L 178.479885 57.195089 
L 181.803604 57.195089 
L 181.803604 56.668403 
L 182.316765 56.668403 
L 182.316765 56.141717 
L 184.956162 56.141717 
L 184.956162 55.615031 
L 185.276265 55.615031 
L 185.276265 55.088345 
L 186.338942 55.088345 
L 186.338942 54.561659 
L 186.941551 54.561659 
L 187.014782 53.508287 
L 187.640243 53.508287 
L 187.640243 52.9816 
L 189.232199 52.9816 
L 189.232199 52.454914 
L 189.396894 52.454914 
L 189.396894 51.928228 
L 191.919162 51.928228 
L 191.919162 50.874856 
L 192.103375 50.874856 
L 192.103375 50.34817 
L 192.293377 50.34817 
L 192.358815 49.294798 
L 192.458424 49.294798 
L 192.462244 47.71474 
L 192.869934 47.71474 
L 192.966675 46.134681 
L 193.195221 46.134681 
L 193.264664 44.027937 
L 193.557646 44.027937 
L 193.62209 42.974565 
L 193.725419 42.974565 
L 193.83167 41.394507 
L 193.856369 41.394507 
L 193.866943 40.341135 
L 194.017812 40.341135 
L 194.125774 39.287762 
L 194.15006 39.287762 
L 194.246869 37.707704 
L 194.45593 37.707704 
L 194.45593 37.181018 
L 194.870008 37.181018 
L 194.972836 35.60096 
L 195.510174 35.60096 
L 195.510174 35.074274 
L 195.631613 35.074274 
L 195.726893 32.440843 
L 198.57013 32.440843 
L 198.57013 31.914157 
L 203.650889 31.914157 
L 203.650889 31.387471 
L 203.848827 31.387471 
L 203.848827 30.860785 
L 205.310654 30.860785 
L 205.310654 30.334099 
L 338.688 30.334099 
L 338.688 30.334099 
" style="fill:none;stroke:#000080;stroke-linecap:square;stroke-width:1.5;"/>
   </g>
   <g id="line2d_36">
    <defs>
     <path d="M 0 6 
C 1.591219 6 3.117479 5.367802 4.242641 4.242641 
C 5.367802 3.117479 6 1.591219 6 0 
C 6 -1.591219 5.367802 -3.117479 4.242641 -4.242641 
C 3.117479 -5.367802 1.591219 -6 0 -6 
C -1.591219 -6 -3.117479 -5.367802 -4.242641 -4.242641 
C -5.367802 -3.117479 -6 -1.591219 -6 0 
C -6 1.591219 -5.367802 3.117479 -4.242641 4.242641 
C -3.117479 5.367802 -1.591219 6 0 6 
z
" id="mcd1d87d49d" style="stroke:#000080;stroke-width:1.5;"/>
    </defs>
    <g>
     <use style="fill-opacity:0;stroke:#000080;stroke-width:1.5;" x="155.928852" xlink:href="#mcd1d87d49d" y="198.346959"/>
     <use style="fill-opacity:0;stroke:#000080;stroke-width:1.5;" x="193.866943" xlink:href="#mcd1d87d49d" y="40.867821"/>
     <use style="fill-opacity:0;stroke:#000080;stroke-width:1.5;" x="205.310654" xlink:href="#mcd1d87d49d" y="30.334099"/>
     <use style="fill-opacity:0;stroke:#000080;stroke-width:1.5;" x="205.310654" xlink:href="#mcd1d87d49d" y="30.334099"/>
     <use style="fill-opacity:0;stroke:#000080;stroke-width:1.5;" x="338.688" xlink:href="#mcd1d87d49d" y="30.334099"/>
    </g>
   </g>
   <g id="line2d_37">
    <path style="fill:none;stroke:#000080;stroke-linecap:square;stroke-width:1.5;"/>
    <g/>
   </g>
   <g id="line2d_38">
    <path clip-path="url(#p74a0772795)" d="M 190.167349 51.928228 
" style="fill:none;stroke:#000080;stroke-linecap:square;stroke-width:1.5;"/>
    <defs>
     <path d="M -12 12 
L 12 -12 
M -12 -12 
L 12 12 
" id="m0ee542113a" style="stroke:#000080;"/>
    </defs>
    <g clip-path="url(#p74a0772795)">
     <use style="fill:#000080;stroke:#000080;" x="190.167349" xlink:href="#m0ee542113a" y="51.928228"/>
    </g>
   </g>
   <g id="line2d_39">
    <defs>
     <path d="M 0 1.5 
C 0.397805 1.5 0.77937 1.341951 1.06066 1.06066 
C 1.341951 0.77937 1.5 0.397805 1.5 0 
C 1.5 -0.397805 1.341951 -0.77937 1.06066 -1.06066 
C 0.77937 -1.341951 0.397805 -1.5 0 -1.5 
C -0.397805 -1.5 -0.77937 -1.341951 -1.06066 -1.06066 
C -1.341951 -0.77937 -1.5 -0.397805 -1.5 0 
C -1.5 0.397805 -1.341951 0.77937 -1.06066 1.06066 
C -0.77937 1.341951 -0.397805 1.5 0 1.5 
z
" id="m48d4d3ab59" style="stroke:#ff00ff;"/>
    </defs>
    <g>
     <use style="fill:#ff00ff;stroke:#ff00ff;" x="205.609729" xlink:href="#m48d4d3ab59" y="30.334099"/>
     <use style="fill:#ff00ff;stroke:#ff00ff;" x="205.609729" xlink:href="#m48d4d3ab59" y="30.334099"/>
    </g>
   </g>
   <g id="line2d_40">
    <path d="M 102.989037 298.944 
L 102.989037 295.257197 
L 109.401893 295.257197 
L 109.401893 293.677139 
L 116.019919 293.677139 
L 116.019919 289.463651 
L 116.914437 289.463651 
L 116.914437 287.883592 
L 121.489881 287.883592 
L 121.489881 287.356906 
L 123.394238 287.356906 
L 123.394238 286.303534 
L 124.743806 286.303534 
L 124.743806 285.250162 
L 125.647598 285.250162 
L 125.647598 284.19679 
L 125.996395 284.19679 
L 125.996395 282.090045 
L 126.839037 282.090045 
L 126.839037 281.563359 
L 127.165014 281.563359 
L 127.165014 279.983301 
L 128.709321 279.983301 
L 128.709321 278.929929 
L 129.147151 278.929929 
L 129.147151 277.349871 
L 129.574256 277.349871 
L 129.574256 275.769812 
L 132.659801 275.769812 
L 132.659801 271.029638 
L 132.777237 271.029638 
L 132.777237 268.922893 
L 133.46572 268.922893 
L 133.46572 266.816149 
L 134.55603 266.816149 
L 134.55603 266.289463 
L 134.973757 266.289463 
L 134.973757 264.182719 
L 135.582166 264.182719 
L 135.681535 263.129347 
L 136.266147 263.129347 
L 136.266147 262.60266 
L 137.37967 262.60266 
L 137.469333 257.3358 
L 137.647286 257.3358 
L 137.647286 256.809114 
L 137.997836 256.809114 
L 138.084384 255.755741 
L 138.170504 255.755741 
L 138.170504 253.122311 
L 140.499195 253.122311 
L 140.499195 252.595625 
L 143.273169 252.595625 
L 143.273169 251.542253 
L 147.368603 251.542253 
L 147.368603 251.015567 
L 148.826773 251.015567 
L 148.826773 250.488881 
L 150.766468 250.488881 
L 150.808139 249.435508 
L 150.932558 249.435508 
L 150.932558 248.382136 
L 151.818809 248.382136 
L 151.818809 247.328764 
L 152.168773 247.328764 
L 152.168773 246.802078 
L 152.436193 246.802078 
L 152.436193 245.22202 
L 152.624728 245.22202 
L 152.662192 243.115275 
L 153.069065 243.115275 
L 153.178403 240.481845 
L 153.250915 240.481845 
L 153.359122 237.321729 
L 153.609024 237.321729 
L 153.644434 233.10824 
L 153.925152 233.10824 
L 153.925152 231.528182 
L 154.098334 231.528182 
L 154.167129 229.948123 
L 154.337936 229.948123 
L 154.337936 228.368065 
L 154.473387 228.368065 
L 154.507086 227.314693 
L 154.93935 227.314693 
L 154.972161 223.101204 
L 155.102793 223.101204 
L 155.102793 221.521146 
L 155.488919 221.521146 
L 155.55245 218.36103 
L 155.741666 218.36103 
L 155.741666 217.834344 
L 156.38821 217.834344 
L 156.38821 217.307658 
L 156.568618 217.307658 
L 156.568618 215.200913 
L 157.069866 215.200913 
L 157.1279 214.147541 
L 157.185742 214.147541 
L 157.214591 211.514111 
L 157.415209 211.514111 
L 157.415209 209.934052 
L 157.781772 209.934052 
L 157.781772 209.407366 
L 157.920731 209.407366 
L 157.920731 208.353994 
L 158.168101 208.353994 
L 158.168101 207.827308 
L 158.304027 207.827308 
L 158.304027 205.193878 
L 158.438903 205.193878 
L 158.438903 202.560447 
L 158.572743 202.560447 
L 158.625992 198.873645 
L 158.83738 198.873645 
L 158.942121 194.13347 
L 158.968208 194.13347 
L 158.968208 193.606784 
L 159.226956 193.606784 
L 159.226956 192.553412 
L 159.354904 192.553412 
L 159.354904 192.026726 
L 160.225184 192.026726 
L 160.249422 187.813237 
L 160.680044 187.813237 
L 160.680044 183.599748 
L 161.12334 183.599748 
L 161.146363 182.01969 
L 161.352206 182.01969 
L 161.397621 179.912946 
L 161.578106 179.912946 
L 161.578106 178.332888 
L 161.689969 178.332888 
L 161.734513 176.226143 
L 161.801118 176.226143 
L 161.88953 171.485969 
L 162.324991 171.485969 
L 162.324991 170.959282 
L 162.453536 170.959282 
L 162.496175 168.325852 
L 162.854457 168.325852 
L 162.9377 165.692422 
L 163.266752 165.692422 
L 163.368321 163.585677 
L 163.428979 163.585677 
L 163.50953 162.005619 
L 163.569701 162.005619 
L 163.649606 159.898875 
L 163.768781 159.898875 
L 163.847782 155.1587 
L 164.004716 155.1587 
L 164.102088 152.52527 
L 164.121498 152.52527 
L 164.140886 150.945211 
L 164.276 150.945211 
L 164.276 150.418525 
L 164.505216 150.418525 
L 164.505216 149.891839 
L 164.618704 149.891839 
L 164.618704 149.365153 
L 164.824867 149.365153 
L 164.843488 146.731723 
L 165.230021 146.731723 
L 165.284547 145.151665 
L 165.411116 145.151665 
L 165.411116 144.624978 
L 165.608172 144.624978 
L 165.697012 143.04492 
L 165.978297 143.04492 
L 165.995728 141.464862 
L 166.203547 141.464862 
L 166.203547 140.938176 
L 166.357802 140.938176 
L 166.459886 139.358118 
L 166.476842 139.358118 
L 166.578233 130.93114 
L 166.6119 130.93114 
L 166.645502 127.244338 
L 166.74592 127.244338 
L 166.829163 125.66428 
L 166.928532 125.66428 
L 167.010909 122.504163 
L 167.190782 122.504163 
L 167.255733 118.817361 
L 167.368818 118.817361 
L 167.449146 117.763988 
L 167.513144 117.763988 
L 167.513144 116.710616 
L 167.624577 116.710616 
L 167.640438 113.5505 
L 167.782543 113.5505 
L 167.782543 113.023814 
L 167.93909 113.023814 
L 167.93909 112.497128 
L 168.094245 112.497128 
L 168.125111 108.283639 
L 168.339657 108.283639 
L 168.415645 105.123522 
L 168.46108 105.123522 
L 168.566635 102.490092 
L 168.626667 102.490092 
L 168.626667 96.696545 
L 168.879523 96.696545 
L 168.879523 96.169859 
L 168.997257 96.169859 
L 169.041203 94.589801 
L 169.114201 94.589801 
L 169.114201 94.063115 
L 169.51744 94.063115 
L 169.588476 92.483056 
L 169.78585 92.483056 
L 169.883706 90.902998 
L 170.337772 90.902998 
L 170.432588 88.796254 
L 170.499999 88.796254 
L 170.567151 86.162824 
L 170.634045 86.162824 
L 170.713981 83.529393 
L 170.819995 83.529393 
L 170.819995 81.422649 
L 171.263501 81.422649 
L 171.263501 76.155788 
L 171.481095 76.155788 
L 171.481095 75.629102 
L 171.67086 75.629102 
L 171.67086 75.102416 
L 172.105778 75.102416 
L 172.105778 74.049044 
L 172.397859 74.049044 
L 172.470121 71.942299 
L 172.827009 71.942299 
L 172.827009 71.415613 
L 173.222844 71.415613 
L 173.291774 69.308869 
L 173.451559 69.308869 
L 173.451559 68.255497 
L 174.054514 68.255497 
L 174.054514 67.728811 
L 174.229235 67.728811 
L 174.229235 67.202125 
L 174.509477 67.202125 
L 174.509477 66.675439 
L 174.66913 66.675439 
L 174.66913 66.148752 
L 175.139502 66.148752 
L 175.170413 65.09538 
L 175.344551 65.09538 
L 175.425901 62.46195 
L 175.767465 62.46195 
L 175.767465 61.935264 
L 175.994786 61.935264 
L 176.063387 60.355206 
L 176.112223 60.355206 
L 176.112223 59.301833 
L 176.593204 59.301833 
L 176.687829 58.248461 
L 176.800705 58.248461 
L 176.800705 57.721775 
L 177.66942 57.721775 
L 177.66942 57.195089 
L 179.20541 57.195089 
L 179.20541 56.668403 
L 181.165729 56.668403 
L 181.165729 56.141717 
L 182.131275 56.141717 
L 182.131275 55.615031 
L 183.890467 55.615031 
L 183.890467 55.088345 
L 184.485848 55.088345 
L 184.485848 54.561659 
L 184.985507 54.561659 
L 185.003089 53.508287 
L 185.425565 53.508287 
L 185.425565 52.9816 
L 186.82585 52.9816 
L 186.82585 52.454914 
L 187.959598 52.454914 
L 187.959598 51.928228 
L 189.024118 51.928228 
L 189.024118 51.401542 
L 189.627582 51.401542 
L 189.68142 50.34817 
L 192.091675 50.34817 
L 192.091675 49.294798 
L 192.546069 49.294798 
L 192.655953 47.71474 
L 193.231804 47.71474 
L 193.30838 45.081309 
L 193.42081 45.081309 
L 193.496563 42.974565 
L 193.582736 42.974565 
L 193.643519 41.921193 
L 193.711203 41.921193 
L 193.711203 41.394507 
L 194.066652 41.394507 
L 194.17085 39.814448 
L 194.177775 39.814448 
L 194.198532 38.23439 
L 194.846705 38.23439 
L 194.846705 37.707704 
L 195.055323 37.707704 
L 195.117753 36.127646 
L 195.254968 36.127646 
L 195.254968 35.60096 
L 195.548614 35.60096 
L 195.548614 35.074274 
L 196.40405 35.074274 
L 196.40405 34.547588 
L 198.334443 34.547588 
L 198.334443 34.020902 
L 200.66927 34.020902 
L 200.66927 33.494215 
L 203.634796 33.494215 
L 203.634796 32.967529 
L 204.383293 32.967529 
L 204.485182 31.914157 
L 204.506254 31.914157 
L 204.603622 30.860785 
L 205.609729 30.860785 
L 205.609729 30.334099 
L 338.688 30.334099 
L 338.688 30.334099 
" style="fill:none;stroke:#ff00ff;stroke-linecap:square;stroke-width:1.5;"/>
   </g>
   <g id="line2d_41">
    <defs>
     <path d="M -0 8.485281 
L 5.091169 0 
L 0 -8.485281 
L -5.091169 -0 
z
" id="md42bf20d83" style="stroke:#ff00ff;stroke-linejoin:miter;stroke-width:1.5;"/>
    </defs>
    <g>
     <use style="fill-opacity:0;stroke:#ff00ff;stroke-linejoin:miter;stroke-width:1.5;" x="140.499195" xlink:href="#md42bf20d83" y="253.122311"/>
     <use style="fill-opacity:0;stroke:#ff00ff;stroke-linejoin:miter;stroke-width:1.5;" x="179.20541" xlink:href="#md42bf20d83" y="56.668403"/>
     <use style="fill-opacity:0;stroke:#ff00ff;stroke-linejoin:miter;stroke-width:1.5;" x="205.609729" xlink:href="#md42bf20d83" y="30.860785"/>
     <use style="fill-opacity:0;stroke:#ff00ff;stroke-linejoin:miter;stroke-width:1.5;" x="205.609729" xlink:href="#md42bf20d83" y="30.334099"/>
     <use style="fill-opacity:0;stroke:#ff00ff;stroke-linejoin:miter;stroke-width:1.5;" x="338.688" xlink:href="#md42bf20d83" y="30.334099"/>
    </g>
   </g>
   <g id="line2d_42">
    <path style="fill:none;stroke:#ff00ff;stroke-linecap:square;stroke-width:1.5;"/>
    <g/>
   </g>
   <g id="line2d_43">
    <path clip-path="url(#p74a0772795)" d="M 190.17606 50.34817 
" style="fill:none;stroke:#ff00ff;stroke-linecap:square;stroke-width:1.5;"/>
    <defs>
     <path d="M -12 12 
L 12 -12 
M -12 -12 
L 12 12 
" id="mf519173a67" style="stroke:#ff00ff;"/>
    </defs>
    <g clip-path="url(#p74a0772795)">
     <use style="fill:#ff00ff;stroke:#ff00ff;" x="190.17606" xlink:href="#mf519173a67" y="50.34817"/>
    </g>
   </g>
   <g id="line2d_44">
    <defs>
     <path d="M 0 1.5 
C 0.397805 1.5 0.77937 1.341951 1.06066 1.06066 
C 1.341951 0.77937 1.5 0.397805 1.5 0 
C 1.5 -0.397805 1.341951 -0.77937 1.06066 -1.06066 
C 0.77937 -1.341951 0.397805 -1.5 0 -1.5 
C -0.397805 -1.5 -0.77937 -1.341951 -1.06066 -1.06066 
C -1.341951 -0.77937 -1.5 -0.397805 -1.5 0 
C -1.5 0.397805 -1.341951 0.77937 -1.06066 1.06066 
C -0.77937 1.341951 -0.397805 1.5 0 1.5 
z
" id="md3599116d9" style="stroke:#ff7500;"/>
    </defs>
    <g>
     <use style="fill:#ff7500;stroke:#ff7500;" x="204.158192" xlink:href="#md3599116d9" y="30.334099"/>
     <use style="fill:#ff7500;stroke:#ff7500;" x="204.158192" xlink:href="#md3599116d9" y="30.334099"/>
    </g>
   </g>
   <g id="line2d_45">
    <path d="M 100.934985 298.944 
L 100.934985 296.31057 
L 107.009204 296.31057 
L 107.009204 294.203825 
L 114.751048 294.203825 
L 114.751048 293.150453 
L 117.486268 293.150453 
L 117.486268 292.623767 
L 121.036887 292.623767 
L 121.036887 291.043709 
L 122.362027 291.043709 
L 122.362027 289.990337 
L 123.192626 289.990337 
L 123.192626 289.463651 
L 123.394238 289.463651 
L 123.394238 288.410278 
L 123.790603 288.410278 
L 123.790603 286.83022 
L 124.92835 286.83022 
L 124.92835 284.723476 
L 126.50685 284.723476 
L 126.50685 282.090045 
L 126.839037 282.090045 
L 126.839037 281.036673 
L 127.325746 281.036673 
L 127.325746 280.509987 
L 129.991152 280.509987 
L 129.991152 279.983301 
L 130.398313 279.983301 
L 130.398313 277.349871 
L 130.531948 277.349871 
L 130.531948 274.71644 
L 132.30267 274.71644 
L 132.30267 273.136382 
L 132.893889 273.136382 
L 132.893889 271.029638 
L 133.910056 271.029638 
L 134.019394 267.342835 
L 135.076644 267.342835 
L 135.178927 259.96923 
L 135.381712 259.96923 
L 135.381712 258.389172 
L 135.780341 258.389172 
L 135.780341 257.862486 
L 135.97629 257.862486 
L 135.97629 253.122311 
L 136.831795 253.122311 
L 136.831795 252.595625 
L 140.64889 252.595625 
L 140.64889 252.068939 
L 141.017599 252.068939 
L 141.017599 251.542253 
L 146.538004 251.542253 
L 146.538004 251.015567 
L 148.54473 251.015567 
L 148.639252 249.962195 
L 149.557321 249.962195 
L 149.557321 248.908822 
L 149.911431 248.908822 
L 149.911431 247.85545 
L 150.172372 247.85545 
L 150.172372 246.802078 
L 150.344189 246.802078 
L 150.429467 244.168648 
L 150.891184 244.168648 
L 150.973835 242.588589 
L 151.015013 242.588589 
L 151.056095 239.955159 
L 151.340991 239.955159 
L 151.381313 235.74167 
L 151.660987 235.74167 
L 151.660987 233.634926 
L 151.818809 233.634926 
L 151.897188 231.528182 
L 152.052897 231.528182 
L 152.052897 229.948123 
L 152.207228 229.948123 
L 152.245598 228.894751 
L 152.587184 228.894751 
L 152.662192 224.154577 
L 152.699575 224.154577 
L 152.699575 223.101204 
L 152.811246 223.101204 
L 152.811246 222.574518 
L 153.214697 222.574518 
L 153.323128 218.36103 
L 153.466662 218.36103 
L 153.537988 217.307658 
L 154.098334 217.307658 
L 154.098334 216.780971 
L 154.269814 216.780971 
L 154.269814 215.200913 
L 154.873541 215.200913 
L 154.93935 210.987425 
L 155.135299 210.987425 
L 155.135299 209.407366 
L 155.425155 209.407366 
L 155.488919 207.827308 
L 155.897793 207.827308 
L 155.897793 206.773936 
L 156.052535 206.773936 
L 156.052535 204.140506 
L 156.175347 204.140506 
L 156.175347 199.927017 
L 156.297301 199.927017 
L 156.357959 194.660156 
L 156.568618 194.660156 
L 156.598505 190.973354 
L 156.687861 190.973354 
L 156.747178 189.919981 
L 156.894595 189.919981 
L 156.953214 188.866609 
L 157.011638 188.866609 
L 157.069866 187.813237 
L 157.86528 187.813237 
L 157.976006 184.126434 
L 158.304027 184.126434 
L 158.412011 178.859574 
L 158.863624 178.859574 
L 158.968208 176.752829 
L 159.072168 176.752829 
L 159.123917 175.172771 
L 159.303838 175.172771 
L 159.405822 172.539341 
L 159.456591 172.539341 
L 159.557689 169.90591 
L 159.582872 169.90591 
L 159.633129 166.745794 
L 160.054568 166.745794 
L 160.079044 165.692422 
L 160.176607 165.692422 
L 160.225184 163.058991 
L 160.537682 163.058991 
L 160.585265 161.478933 
L 160.680044 161.478933 
L 160.680044 158.845503 
L 160.984566 158.845503 
L 160.984566 157.79213 
L 161.100288 157.79213 
L 161.192316 155.685386 
L 161.238149 155.685386 
L 161.283861 154.632014 
L 161.374928 154.632014 
L 161.374928 153.578642 
L 161.488097 153.578642 
L 161.578106 149.365153 
L 161.734513 149.365153 
L 161.84538 146.731723 
L 161.867469 146.731723 
L 161.955547 145.151665 
L 162.260361 145.151665 
L 162.260361 144.624978 
L 162.389382 144.624978 
L 162.474869 143.04492 
L 162.559939 143.04492 
L 162.581141 139.884804 
L 162.770815 139.884804 
L 162.875305 138.831432 
L 162.999872 138.831432 
L 162.999872 137.778059 
L 163.123555 137.778059 
L 163.123555 136.724687 
L 163.327764 136.724687 
L 163.327764 136.198001 
L 163.709295 136.198001 
L 163.729146 133.564571 
L 164.082658 133.564571 
L 164.179597 131.457826 
L 164.19892 131.457826 
L 164.276 125.137593 
L 164.314412 125.137593 
L 164.371873 121.977477 
L 164.467222 121.977477 
L 164.562052 120.397419 
L 164.65637 120.397419 
L 164.731458 116.18393 
L 164.9363 116.18393 
L 164.973287 113.5505 
L 165.102127 113.5505 
L 165.175324 111.443755 
L 165.230021 111.443755 
L 165.230021 110.917069 
L 165.356985 110.917069 
L 165.411116 105.650209 
L 165.500963 105.650209 
L 165.500963 105.123522 
L 165.661531 105.123522 
L 165.661531 104.596836 
L 165.820633 104.596836 
L 165.855793 99.856662 
L 166.047915 99.856662 
L 166.134549 97.223231 
L 166.186323 97.223231 
L 166.289413 94.589801 
L 166.34073 94.589801 
L 166.34073 90.902998 
L 166.6119 90.902998 
L 166.6119 90.376312 
L 166.729224 90.376312 
L 166.7626 89.32294 
L 167.239518 89.32294 
L 167.320442 86.162824 
L 167.513144 86.162824 
L 167.608702 84.582765 
L 168.140524 84.582765 
L 168.18668 81.422649 
L 168.263336 81.422649 
L 168.354881 77.735846 
L 168.385289 77.735846 
L 168.430803 75.102416 
L 168.536542 75.102416 
L 168.536542 73.522358 
L 168.982583 73.522358 
L 168.982583 69.835555 
L 169.201398 69.835555 
L 169.201398 69.308869 
L 169.403177 69.308869 
L 169.403177 67.728811 
L 169.827856 67.728811 
L 169.827856 66.675439 
L 170.119095 66.675439 
L 170.119095 65.622066 
L 170.51345 65.622066 
L 170.51345 65.09538 
L 170.938496 65.09538 
L 171.017051 63.515322 
L 171.173108 63.515322 
L 171.173108 61.935264 
L 171.783736 61.935264 
L 171.858583 60.881892 
L 172.240256 60.881892 
L 172.276753 59.301833 
L 172.685129 59.301833 
L 172.685129 58.775147 
L 173.14208 58.775147 
L 173.15364 56.668403 
L 173.485609 56.668403 
L 173.485609 56.141717 
L 173.733298 56.141717 
L 173.83362 54.561659 
L 174.315944 54.561659 
L 174.315944 54.034973 
L 175.385274 54.034973 
L 175.385274 53.508287 
L 176.931477 53.508287 
L 176.931477 52.9816 
L 181.612545 52.9816 
L 181.612545 52.454914 
L 182.207084 52.454914 
L 182.207084 51.928228 
L 182.722034 51.928228 
L 182.722034 51.401542 
L 184.267247 51.401542 
L 184.267247 50.874856 
L 184.55811 50.874856 
L 184.55811 50.34817 
L 185.362555 50.34817 
L 185.362555 49.821484 
L 187.350809 49.821484 
L 187.350809 49.294798 
L 189.641057 49.294798 
L 189.641057 48.768112 
L 189.806402 48.768112 
L 189.806402 48.241426 
L 192.099476 48.241426 
L 192.185058 46.661368 
L 192.347285 46.661368 
L 192.435488 45.081309 
L 192.599203 45.081309 
L 192.599203 44.554623 
L 192.780157 44.554623 
L 192.780157 44.027937 
L 192.922092 44.027937 
L 192.970385 42.447879 
L 193.129177 42.447879 
L 193.239112 40.867821 
L 193.257367 40.867821 
L 193.297461 39.287762 
L 193.438876 39.287762 
L 193.438876 38.761076 
L 193.70409 38.761076 
L 193.810471 37.181018 
L 193.895111 37.181018 
L 193.895111 36.654332 
L 194.084062 36.654332 
L 194.084062 36.127646 
L 194.343143 36.127646 
L 194.343143 35.074274 
L 194.523933 35.074274 
L 194.578145 33.494215 
L 194.806684 33.494215 
L 194.806684 32.440843 
L 194.992669 32.440843 
L 194.992669 31.914157 
L 195.685669 31.914157 
L 195.685669 31.387471 
L 195.94408 31.387471 
L 195.94408 30.860785 
L 204.158192 30.860785 
L 204.158192 30.334099 
L 338.688 30.334099 
L 338.688 30.334099 
" style="fill:none;stroke:#ff7500;stroke-linecap:square;stroke-width:1.5;"/>
   </g>
   <g id="line2d_46">
    <defs>
     <path d="M 0 -6 
L -1.347084 -1.854102 
L -5.706339 -1.854102 
L -2.179628 0.708204 
L -3.526712 4.854102 
L -0 2.291796 
L 3.526712 4.854102 
L 2.179628 0.708204 
L 5.706339 -1.854102 
L 1.347084 -1.854102 
z
" id="m5a72efa116" style="stroke:#ff7500;stroke-linejoin:bevel;stroke-width:1.5;"/>
    </defs>
    <g>
     <use style="fill-opacity:0;stroke:#ff7500;stroke-linejoin:bevel;stroke-width:1.5;" x="155.897793" xlink:href="#m5a72efa116" y="207.827308"/>
     <use style="fill-opacity:0;stroke:#ff7500;stroke-linejoin:bevel;stroke-width:1.5;" x="176.931477" xlink:href="#m5a72efa116" y="53.508287"/>
     <use style="fill-opacity:0;stroke:#ff7500;stroke-linejoin:bevel;stroke-width:1.5;" x="204.158192" xlink:href="#m5a72efa116" y="30.334099"/>
     <use style="fill-opacity:0;stroke:#ff7500;stroke-linejoin:bevel;stroke-width:1.5;" x="204.158192" xlink:href="#m5a72efa116" y="30.334099"/>
     <use style="fill-opacity:0;stroke:#ff7500;stroke-linejoin:bevel;stroke-width:1.5;" x="338.688" xlink:href="#m5a72efa116" y="30.334099"/>
    </g>
   </g>
   <g id="line2d_47">
    <path style="fill:none;stroke:#ff7500;stroke-linecap:square;stroke-width:1.5;"/>
    <g/>
   </g>
   <g id="line2d_48">
    <path clip-path="url(#p74a0772795)" d="M 190.180414 48.241426 
" style="fill:none;stroke:#ff7500;stroke-linecap:square;stroke-width:1.5;"/>
    <defs>
     <path d="M -12 12 
L 12 -12 
M -12 -12 
L 12 12 
" id="m1e92c891df" style="stroke:#ff7500;"/>
    </defs>
    <g clip-path="url(#p74a0772795)">
     <use style="fill:#ff7500;stroke:#ff7500;" x="190.180414" xlink:href="#m1e92c891df" y="48.241426"/>
    </g>
   </g>
   <g id="line2d_49">
    <defs>
     <path d="M 0 1.5 
C 0.397805 1.5 0.77937 1.341951 1.06066 1.06066 
C 1.341951 0.77937 1.5 0.397805 1.5 0 
C 1.5 -0.397805 1.341951 -0.77937 1.06066 -1.06066 
C 0.77937 -1.341951 0.397805 -1.5 0 -1.5 
C -0.397805 -1.5 -0.77937 -1.341951 -1.06066 -1.06066 
C -1.341951 -0.77937 -1.5 -0.397805 -1.5 0 
C -1.5 0.397805 -1.341951 0.77937 -1.06066 1.06066 
C -0.77937 1.341951 -0.397805 1.5 0 1.5 
z
" id="m2532888c69" style="stroke:#6495ed;"/>
    </defs>
    <g>
     <use style="fill:#6495ed;stroke:#6495ed;" x="210.393769" xlink:href="#m2532888c69" y="30.334099"/>
     <use style="fill:#6495ed;stroke:#6495ed;" x="210.393769" xlink:href="#m2532888c69" y="30.334099"/>
    </g>
   </g>
   <g id="line2d_50">
    <path d="M 108.006005 298.944 
L 108.006005 297.363942 
L 112.280765 297.363942 
L 112.280765 295.257197 
L 112.655818 295.257197 
L 112.655818 293.150453 
L 114.418861 293.150453 
L 114.418861 292.623767 
L 115.397021 292.623767 
L 115.397021 291.570395 
L 117.202696 291.570395 
L 117.202696 291.043709 
L 117.765302 291.043709 
L 117.765302 289.463651 
L 118.310324 289.463651 
L 118.310324 287.883592 
L 118.838828 287.883592 
L 118.838828 287.356906 
L 120.33454 287.356906 
L 120.33454 286.303534 
L 121.036887 286.303534 
L 121.036887 285.776848 
L 121.931406 285.776848 
L 121.931406 284.19679 
L 122.988655 284.19679 
L 122.988655 283.143418 
L 125.110962 283.143418 
L 125.110962 282.090045 
L 126.50685 282.090045 
L 126.50685 281.563359 
L 127.954256 281.563359 
L 127.954256 280.509987 
L 128.260216 280.509987 
L 128.260216 278.403243 
L 130.127931 278.403243 
L 130.127931 277.876557 
L 130.263646 277.876557 
L 130.263646 276.296499 
L 133.239232 276.296499 
L 133.239232 275.243126 
L 133.46572 275.243126 
L 133.46572 274.189754 
L 133.689303 274.189754 
L 133.689303 268.922893 
L 134.12805 268.922893 
L 134.12805 268.396207 
L 134.661403 268.396207 
L 134.661403 267.342835 
L 134.973757 267.342835 
L 135.076644 266.289463 
L 136.073445 266.289463 
L 136.073445 265.762777 
L 136.456742 265.762777 
L 136.456742 263.656033 
L 136.645276 263.656033 
L 136.645276 263.129347 
L 137.823442 263.129347 
L 137.823442 261.549288 
L 138.341479 261.549288 
L 138.341479 260.495916 
L 138.67848 260.495916 
L 138.67848 258.915858 
L 140.348205 258.915858 
L 140.348205 256.809114 
L 141.017599 256.809114 
L 141.017599 255.755741 
L 141.662245 255.755741 
L 141.662245 255.229055 
L 142.486301 255.229055 
L 142.486301 254.702369 
L 143.208936 254.702369 
L 143.208936 254.175683 
L 143.716296 254.175683 
L 143.716296 253.648997 
L 144.688773 253.648997 
L 144.688773 253.122311 
L 145.097753 253.122311 
L 145.097753 252.595625 
L 146.958248 252.595625 
L 146.958248 252.068939 
L 147.96658 252.068939 
L 147.96658 251.542253 
L 148.919783 251.542253 
L 148.919783 251.015567 
L 149.286939 251.015567 
L 149.377533 249.435508 
L 149.557321 249.435508 
L 149.60198 247.328764 
L 149.867558 247.328764 
L 149.867558 246.802078 
L 150.042389 246.802078 
L 150.042389 245.22202 
L 150.640855 245.22202 
L 150.724698 244.168648 
L 150.973835 244.168648 
L 150.973835 243.641962 
L 151.421542 243.641962 
L 151.421542 243.115275 
L 151.581536 243.115275 
L 151.660987 241.008531 
L 151.858043 241.008531 
L 151.897188 238.901787 
L 151.975216 238.901787 
L 151.975216 238.375101 
L 152.511852 238.375101 
L 152.511852 236.268356 
L 152.848312 236.268356 
L 152.848312 234.161612 
L 153.105587 234.161612 
L 153.142033 232.054868 
L 153.466662 232.054868 
L 153.537988 228.368065 
L 154.098334 228.368065 
L 154.201424 223.101204 
L 154.507086 223.101204 
L 154.57429 221.521146 
L 154.707925 221.521146 
L 154.77436 219.941088 
L 154.840544 219.941088 
L 154.840544 217.834344 
L 155.0376 217.834344 
L 155.0376 216.780971 
L 155.167744 216.780971 
L 155.264719 214.147541 
L 155.361158 214.147541 
L 155.361158 212.040797 
L 155.488919 212.040797 
L 155.584129 209.934052 
L 155.741666 209.934052 
L 155.741666 208.353994 
L 155.86668 208.353994 
L 155.959855 206.773936 
L 156.052535 206.773936 
L 156.052535 200.980389 
L 156.205916 200.980389 
L 156.236431 199.400331 
L 156.327657 199.400331 
L 156.418408 196.7669 
L 156.568618 196.7669 
L 156.658127 195.713528 
L 156.835778 195.713528 
L 156.835778 194.660156 
L 156.953214 194.660156 
L 156.953214 193.606784 
L 157.1279 193.606784 
L 157.214591 189.919981 
L 157.243392 189.919981 
L 157.300853 188.866609 
L 157.38669 188.866609 
L 157.38669 187.813237 
L 157.528821 187.813237 
L 157.58535 185.179807 
L 157.669802 185.179807 
L 157.669802 184.653121 
L 157.809652 184.653121 
L 157.837488 182.546376 
L 157.94839 182.546376 
L 158.058592 179.912946 
L 158.113432 179.912946 
L 158.222599 175.699457 
L 158.249784 175.699457 
L 158.331086 170.959282 
L 158.438903 170.959282 
L 158.438903 169.90591 
L 158.625992 169.90591 
L 158.625992 169.379224 
L 158.75841 169.379224 
L 158.83738 167.27248 
L 158.915995 167.27248 
L 158.994256 166.219108 
L 159.098062 166.219108 
L 159.175513 163.585677 
L 159.32939 163.585677 
L 159.380382 161.478933 
L 159.608019 161.478933 
L 159.708245 158.318817 
L 159.956318 158.318817 
L 159.956318 157.265444 
L 160.176607 157.265444 
L 160.176607 156.738758 
L 160.656397 156.738758 
L 160.750792 155.1587 
L 160.774311 155.1587 
L 160.774311 154.632014 
L 160.938061 154.632014 
L 161.007772 153.051956 
L 161.054091 153.051956 
L 161.146363 148.838467 
L 161.238149 148.838467 
L 161.329454 146.205037 
L 161.374928 146.205037 
L 161.374928 145.678351 
L 161.488097 145.678351 
L 161.53316 141.464862 
L 161.64531 141.464862 
L 161.64531 140.938176 
L 161.84538 140.938176 
L 161.955547 138.304745 
L 162.217141 138.304745 
L 162.281931 134.617943 
L 162.517456 134.617943 
L 162.517456 134.091257 
L 162.644595 134.091257 
L 162.728843 132.511199 
L 162.770815 132.511199 
L 162.854457 130.404454 
L 162.896128 130.404454 
L 162.999872 128.824396 
L 163.020547 128.824396 
L 163.082425 127.771024 
L 163.225959 127.771024 
L 163.225959 127.244338 
L 163.348054 127.244338 
L 163.348054 126.717652 
L 163.50953 126.717652 
L 163.549667 121.450791 
L 163.669525 121.450791 
L 163.669525 114.603872 
L 164.140886 114.603872 
L 164.237502 109.863697 
L 164.86209 109.863697 
L 164.86209 109.337011 
L 165.047026 109.337011 
L 165.047026 108.810325 
L 165.284547 108.810325 
L 165.338904 106.176895 
L 165.625977 106.176895 
L 165.625977 103.543464 
L 166.030537 103.543464 
L 166.030537 103.016778 
L 166.186323 103.016778 
L 166.186323 100.910034 
L 166.493781 100.910034 
L 166.544502 98.803289 
L 166.712511 98.803289 
L 166.712511 98.276603 
L 166.862349 98.276603 
L 166.895472 96.696545 
L 166.978005 96.696545 
L 166.978005 96.169859 
L 167.125588 96.169859 
L 167.207042 93.536429 
L 167.320442 93.536429 
L 167.320442 89.32294 
L 167.43311 89.32294 
L 167.43311 88.269568 
L 167.576907 88.269568 
L 167.656285 86.162824 
L 168.063324 86.162824 
L 168.094245 84.582765 
L 168.324419 84.582765 
L 168.324419 83.529393 
L 168.521475 83.529393 
L 168.566635 81.949335 
L 168.731229 81.949335 
L 168.820356 79.842591 
L 168.879523 79.842591 
L 168.879523 76.682474 
L 168.997257 76.682474 
L 168.997257 76.155788 
L 169.431813 76.155788 
L 169.431813 74.049044 
L 170.378471 74.049044 
L 170.459584 72.468985 
L 170.951613 72.468985 
L 170.951613 71.942299 
L 175.303734 71.942299 
L 175.385274 70.888927 
L 176.190077 70.888927 
L 176.190077 70.362241 
L 178.73349 70.362241 
L 178.73349 69.835555 
L 179.768016 69.835555 
L 179.768016 69.308869 
L 181.22403 69.308869 
L 181.22403 68.782183 
L 181.697718 68.782183 
L 181.697718 68.255497 
L 182.788672 68.255497 
L 182.788672 67.728811 
L 183.473421 67.728811 
L 183.569083 66.675439 
L 183.777712 66.675439 
L 183.777712 66.148752 
L 184.582131 66.148752 
L 184.600125 65.09538 
L 184.814618 65.09538 
L 184.814618 64.568694 
L 185.641499 64.568694 
L 185.697882 63.515322 
L 185.93272 63.515322 
L 185.93272 62.988636 
L 186.240998 62.988636 
L 186.240998 62.46195 
L 186.624176 62.46195 
L 186.624176 61.935264 
L 186.794161 61.935264 
L 186.799447 60.881892 
L 187.340566 60.881892 
L 187.345688 59.82852 
L 188.008973 59.82852 
L 188.008973 59.301833 
L 188.633687 59.301833 
L 188.742757 58.248461 
L 189.319315 58.248461 
L 189.319315 57.721775 
L 189.442368 57.721775 
L 189.442368 57.195089 
L 191.788649 57.195089 
L 191.788649 56.668403 
L 191.982092 56.668403 
L 192.08387 55.615031 
L 192.247037 55.615031 
L 192.247037 55.088345 
L 192.473699 55.088345 
L 192.473699 53.508287 
L 192.58783 53.508287 
L 192.58783 52.9816 
L 192.704987 52.9816 
L 192.787656 48.241426 
L 193.114466 48.241426 
L 193.129177 47.188054 
L 193.253717 47.188054 
L 193.315656 46.134681 
L 193.377375 46.134681 
L 193.474953 45.081309 
L 193.500162 45.081309 
L 193.597057 42.447879 
L 193.618516 42.447879 
L 193.714758 40.341135 
L 193.83873 40.341135 
L 193.930257 38.761076 
L 193.986343 38.761076 
L 193.986343 37.707704 
L 194.097977 37.707704 
L 194.17085 36.654332 
L 194.332853 36.654332 
L 194.332853 36.127646 
L 194.500162 36.127646 
L 194.571377 34.547588 
L 194.675976 34.547588 
L 194.675976 34.020902 
L 194.803344 34.020902 
L 194.803344 33.494215 
L 203.381387 33.494215 
L 203.381387 32.967529 
L 203.578352 32.967529 
L 203.683032 31.914157 
L 204.036677 31.914157 
L 204.036677 31.387471 
L 204.855014 31.387471 
L 204.855014 30.860785 
L 210.393769 30.860785 
L 210.393769 30.334099 
L 338.688 30.334099 
L 338.688 30.334099 
" style="fill:none;stroke:#6495ed;stroke-linecap:square;stroke-width:1.5;"/>
   </g>
   <g id="line2d_51">
    <defs>
     <path d="M -0 6 
L 6 -6 
L -6 -6 
z
" id="mfa669e5c25" style="stroke:#6495ed;stroke-linejoin:miter;stroke-width:1.5;"/>
    </defs>
    <g>
     <use style="fill-opacity:0;stroke:#6495ed;stroke-linejoin:miter;stroke-width:1.5;" x="157.185742" xlink:href="#mfa669e5c25" y="192.026726"/>
     <use style="fill-opacity:0;stroke:#6495ed;stroke-linejoin:miter;stroke-width:1.5;" x="178.73349" xlink:href="#mfa669e5c25" y="70.362241"/>
     <use style="fill-opacity:0;stroke:#6495ed;stroke-linejoin:miter;stroke-width:1.5;" x="210.393769" xlink:href="#mfa669e5c25" y="30.334099"/>
     <use style="fill-opacity:0;stroke:#6495ed;stroke-linejoin:miter;stroke-width:1.5;" x="210.393769" xlink:href="#mfa669e5c25" y="30.334099"/>
     <use style="fill-opacity:0;stroke:#6495ed;stroke-linejoin:miter;stroke-width:1.5;" x="338.688" xlink:href="#mfa669e5c25" y="30.334099"/>
    </g>
   </g>
   <g id="line2d_52">
    <path style="fill:none;stroke:#6495ed;stroke-linecap:square;stroke-width:1.5;"/>
    <g/>
   </g>
   <g id="line2d_53">
    <path clip-path="url(#p74a0772795)" d="M 190.167349 57.195089 
" style="fill:none;stroke:#6495ed;stroke-linecap:square;stroke-width:1.5;"/>
    <defs>
     <path d="M -12 12 
L 12 -12 
M -12 -12 
L 12 12 
" id="m8a0b46536b" style="stroke:#6495ed;"/>
    </defs>
    <g clip-path="url(#p74a0772795)">
     <use style="fill:#6495ed;stroke:#6495ed;" x="190.167349" xlink:href="#m8a0b46536b" y="57.195089"/>
    </g>
   </g>
   <g id="line2d_54">
    <path d="M 338.688 30.334099 
L 369.60768 293.571802 
" style="fill:none;stroke:#6495ed;stroke-linecap:square;stroke-width:1.5;"/>
    <g>
     <use style="fill-opacity:0;stroke:#6495ed;stroke-linejoin:miter;stroke-width:1.5;" x="338.688" xlink:href="#mfa669e5c25" y="30.334099"/>
     <use style="fill-opacity:0;stroke:#6495ed;stroke-linejoin:miter;stroke-width:1.5;" x="369.60768" xlink:href="#mfa669e5c25" y="293.571802"/>
    </g>
   </g>
   <g id="line2d_55">
    <path d="M 338.688 30.334099 
L 369.60768 229.105426 
" style="fill:none;stroke:#ff00ff;stroke-linecap:square;stroke-width:1.5;"/>
    <g>
     <use style="fill-opacity:0;stroke:#ff00ff;stroke-linejoin:miter;stroke-width:1.5;" x="338.688" xlink:href="#md42bf20d83" y="30.334099"/>
     <use style="fill-opacity:0;stroke:#ff00ff;stroke-linejoin:miter;stroke-width:1.5;" x="369.60768" xlink:href="#md42bf20d83" y="229.105426"/>
    </g>
   </g>
   <g id="line2d_56">
    <path d="M 338.688 30.334099 
L 369.60768 164.63905 
" style="fill:none;stroke:#000080;stroke-linecap:square;stroke-width:1.5;"/>
    <g>
     <use style="fill-opacity:0;stroke:#000080;stroke-width:1.5;" x="338.688" xlink:href="#mcd1d87d49d" y="30.334099"/>
     <use style="fill-opacity:0;stroke:#000080;stroke-width:1.5;" x="369.60768" xlink:href="#mcd1d87d49d" y="164.63905"/>
    </g>
   </g>
   <g id="line2d_57">
    <path d="M 338.688 30.334099 
L 369.60768 100.172673 
" style="fill:none;stroke:#ff7500;stroke-linecap:square;stroke-width:1.5;"/>
    <g>
     <use style="fill-opacity:0;stroke:#ff7500;stroke-linejoin:bevel;stroke-width:1.5;" x="338.688" xlink:href="#m5a72efa116" y="30.334099"/>
     <use style="fill-opacity:0;stroke:#ff7500;stroke-linejoin:bevel;stroke-width:1.5;" x="369.60768" xlink:href="#m5a72efa116" y="100.172673"/>
    </g>
   </g>
   <g id="line2d_58">
    <path d="M 338.688 298.944 
L 338.688 30.334099 
" style="fill:none;stroke:#000000;stroke-linecap:square;stroke-width:1.5;"/>
   </g>
   <g id="patch_3">
    <path d="M 57.6 298.944 
L 57.6 27.648 
" style="fill:none;stroke:#000000;stroke-linecap:square;stroke-linejoin:miter;stroke-width:0.8;"/>
   </g>
   <g id="patch_4">
    <path d="M 338.688 298.944 
L 338.688 27.648 
" style="fill:none;stroke:#000000;stroke-linecap:square;stroke-linejoin:miter;stroke-width:0.8;"/>
   </g>
   <g id="patch_5">
    <path d="M 57.6 298.944 
L 338.688 298.944 
" style="fill:none;stroke:#000000;stroke-linecap:square;stroke-linejoin:miter;stroke-width:0.8;"/>
   </g>
   <g id="patch_6">
    <path d="M 57.6 27.648 
L 338.688 27.648 
" style="fill:none;stroke:#000000;stroke-linecap:square;stroke-linejoin:miter;stroke-width:0.8;"/>
   </g>
   <g id="text_13">
    <!-- maes red -->
    <g transform="translate(375.22944 298.262739)scale(0.17 -0.17)">
     <use xlink:href="#DejaVuSans-109"/>
     <use x="97.412109" xlink:href="#DejaVuSans-97"/>
     <use x="158.691406" xlink:href="#DejaVuSans-101"/>
     <use x="220.214844" xlink:href="#DejaVuSans-115"/>
     <use x="272.314453" xlink:href="#DejaVuSans-32"/>
     <use x="304.101562" xlink:href="#DejaVuSans-114"/>
     <use x="342.964844" xlink:href="#DejaVuSans-101"/>
     <use x="404.488281" xlink:href="#DejaVuSans-100"/>
    </g>
   </g>
   <g id="text_14">
    <!-- maes mid -->
    <g transform="translate(375.22944 233.796363)scale(0.17 -0.17)">
     <use xlink:href="#DejaVuSans-109"/>
     <use x="97.412109" xlink:href="#DejaVuSans-97"/>
     <use x="158.691406" xlink:href="#DejaVuSans-101"/>
     <use x="220.214844" xlink:href="#DejaVuSans-115"/>
     <use x="272.314453" xlink:href="#DejaVuSans-32"/>
     <use x="304.101562" xlink:href="#DejaVuSans-109"/>
     <use x="401.513672" xlink:href="#DejaVuSans-105"/>
     <use x="429.296875" xlink:href="#DejaVuSans-100"/>
    </g>
   </g>
   <g id="text_15">
    <!-- maes -->
    <g transform="translate(375.22944 169.329987)scale(0.17 -0.17)">
     <use xlink:href="#DejaVuSans-109"/>
     <use x="97.412109" xlink:href="#DejaVuSans-97"/>
     <use x="158.691406" xlink:href="#DejaVuSans-101"/>
     <use x="220.214844" xlink:href="#DejaVuSans-115"/>
    </g>
   </g>
   <g id="text_16">
    <!-- maes stp -->
    <g transform="translate(375.22944 104.863611)scale(0.17 -0.17)">
     <use xlink:href="#DejaVuSans-109"/>
     <use x="97.412109" xlink:href="#DejaVuSans-97"/>
     <use x="158.691406" xlink:href="#DejaVuSans-101"/>
     <use x="220.214844" xlink:href="#DejaVuSans-115"/>
     <use x="272.314453" xlink:href="#DejaVuSans-32"/>
     <use x="304.101562" xlink:href="#DejaVuSans-115"/>
     <use x="356.201172" xlink:href="#DejaVuSans-116"/>
     <use x="395.410156" xlink:href="#DejaVuSans-112"/>
    </g>
   </g>
   <g id="text_17">
    <!-- best 2009 -->
    <g transform="translate(375.22944 40.397235)scale(0.17 -0.17)">
     <defs>
      <path d="M 48.6875 27.296875 
Q 48.6875 37.203125 44.609375 42.84375 
Q 40.53125 48.484375 33.40625 48.484375 
Q 26.265625 48.484375 22.1875 42.84375 
Q 18.109375 37.203125 18.109375 27.296875 
Q 18.109375 17.390625 22.1875 11.75 
Q 26.265625 6.109375 33.40625 6.109375 
Q 40.53125 6.109375 44.609375 11.75 
Q 48.6875 17.390625 48.6875 27.296875 
z
M 18.109375 46.390625 
Q 20.953125 51.265625 25.265625 53.625 
Q 29.59375 56 35.59375 56 
Q 45.5625 56 51.78125 48.09375 
Q 58.015625 40.1875 58.015625 27.296875 
Q 58.015625 14.40625 51.78125 6.484375 
Q 45.5625 -1.421875 35.59375 -1.421875 
Q 29.59375 -1.421875 25.265625 0.953125 
Q 20.953125 3.328125 18.109375 8.203125 
L 18.109375 0 
L 9.078125 0 
L 9.078125 75.984375 
L 18.109375 75.984375 
z
" id="DejaVuSans-98"/>
      <path d="M 10.984375 1.515625 
L 10.984375 10.5 
Q 14.703125 8.734375 18.5 7.8125 
Q 22.3125 6.890625 25.984375 6.890625 
Q 35.75 6.890625 40.890625 13.453125 
Q 46.046875 20.015625 46.78125 33.40625 
Q 43.953125 29.203125 39.59375 26.953125 
Q 35.25 24.703125 29.984375 24.703125 
Q 19.046875 24.703125 12.671875 31.3125 
Q 6.296875 37.9375 6.296875 49.421875 
Q 6.296875 60.640625 12.9375 67.421875 
Q 19.578125 74.21875 30.609375 74.21875 
Q 43.265625 74.21875 49.921875 64.515625 
Q 56.59375 54.828125 56.59375 36.375 
Q 56.59375 19.140625 48.40625 8.859375 
Q 40.234375 -1.421875 26.421875 -1.421875 
Q 22.703125 -1.421875 18.890625 -0.6875 
Q 15.09375 0.046875 10.984375 1.515625 
z
M 30.609375 32.421875 
Q 37.25 32.421875 41.125 36.953125 
Q 45.015625 41.5 45.015625 49.421875 
Q 45.015625 57.28125 41.125 61.84375 
Q 37.25 66.40625 30.609375 66.40625 
Q 23.96875 66.40625 20.09375 61.84375 
Q 16.21875 57.28125 16.21875 49.421875 
Q 16.21875 41.5 20.09375 36.953125 
Q 23.96875 32.421875 30.609375 32.421875 
z
" id="DejaVuSans-57"/>
     </defs>
     <use xlink:href="#DejaVuSans-98"/>
     <use x="63.476562" xlink:href="#DejaVuSans-101"/>
     <use x="125" xlink:href="#DejaVuSans-115"/>
     <use x="177.099609" xlink:href="#DejaVuSans-116"/>
     <use x="216.308594" xlink:href="#DejaVuSans-32"/>
     <use x="248.095703" xlink:href="#DejaVuSans-50"/>
     <use x="311.71875" xlink:href="#DejaVuSans-48"/>
     <use x="375.341797" xlink:href="#DejaVuSans-48"/>
     <use x="438.964844" xlink:href="#DejaVuSans-57"/>
    </g>
   </g>
   <g id="text_18">
    <!-- bbob f12, 2-D -->
    <g transform="translate(60.41088 38.111366)scale(0.102 -0.102)">
     <defs>
      <path d="M 19.671875 64.796875 
L 19.671875 8.109375 
L 31.59375 8.109375 
Q 46.6875 8.109375 53.6875 14.9375 
Q 60.6875 21.78125 60.6875 36.53125 
Q 60.6875 51.171875 53.6875 57.984375 
Q 46.6875 64.796875 31.59375 64.796875 
z
M 9.8125 72.90625 
L 30.078125 72.90625 
Q 51.265625 72.90625 61.171875 64.09375 
Q 71.09375 55.28125 71.09375 36.53125 
Q 71.09375 17.671875 61.125 8.828125 
Q 51.171875 0 30.078125 0 
L 9.8125 0 
z
" id="DejaVuSans-68"/>
     </defs>
     <use xlink:href="#DejaVuSans-98"/>
     <use x="63.476562" xlink:href="#DejaVuSans-98"/>
     <use x="126.953125" xlink:href="#DejaVuSans-111"/>
     <use x="188.134766" xlink:href="#DejaVuSans-98"/>
     <use x="251.611328" xlink:href="#DejaVuSans-32"/>
     <use x="283.398438" xlink:href="#DejaVuSans-102"/>
     <use x="318.603516" xlink:href="#DejaVuSans-49"/>
     <use x="382.226562" xlink:href="#DejaVuSans-50"/>
     <use x="445.849609" xlink:href="#DejaVuSans-44"/>
     <use x="477.636719" xlink:href="#DejaVuSans-32"/>
     <use x="509.423828" xlink:href="#DejaVuSans-50"/>
     <use x="573.046875" xlink:href="#DejaVuSans-45"/>
     <use x="609.130859" xlink:href="#DejaVuSans-68"/>
    </g>
    <!-- 51 targets: 100..1e-08 -->
    <g transform="translate(60.41088 49.533135)scale(0.102 -0.102)">
     <defs>
      <path d="M 10.796875 72.90625 
L 49.515625 72.90625 
L 49.515625 64.59375 
L 19.828125 64.59375 
L 19.828125 46.734375 
Q 21.96875 47.46875 24.109375 47.828125 
Q 26.265625 48.1875 28.421875 48.1875 
Q 40.625 48.1875 47.75 41.5 
Q 54.890625 34.8125 54.890625 23.390625 
Q 54.890625 11.625 47.5625 5.09375 
Q 40.234375 -1.421875 26.90625 -1.421875 
Q 22.3125 -1.421875 17.546875 -0.640625 
Q 12.796875 0.140625 7.71875 1.703125 
L 7.71875 11.625 
Q 12.109375 9.234375 16.796875 8.0625 
Q 21.484375 6.890625 26.703125 6.890625 
Q 35.15625 6.890625 40.078125 11.328125 
Q 45.015625 15.765625 45.015625 23.390625 
Q 45.015625 31 40.078125 35.4375 
Q 35.15625 39.890625 26.703125 39.890625 
Q 22.75 39.890625 18.8125 39.015625 
Q 14.890625 38.140625 10.796875 36.28125 
z
" id="DejaVuSans-53"/>
      <path d="M 11.71875 12.40625 
L 22.015625 12.40625 
L 22.015625 0 
L 11.71875 0 
z
M 11.71875 51.703125 
L 22.015625 51.703125 
L 22.015625 39.3125 
L 11.71875 39.3125 
z
" id="DejaVuSans-58"/>
     </defs>
     <use xlink:href="#DejaVuSans-53"/>
     <use x="63.623047" xlink:href="#DejaVuSans-49"/>
     <use x="127.246094" xlink:href="#DejaVuSans-32"/>
     <use x="159.033203" xlink:href="#DejaVuSans-116"/>
     <use x="198.242188" xlink:href="#DejaVuSans-97"/>
     <use x="259.521484" xlink:href="#DejaVuSans-114"/>
     <use x="298.884766" xlink:href="#DejaVuSans-103"/>
     <use x="362.361328" xlink:href="#DejaVuSans-101"/>
     <use x="423.884766" xlink:href="#DejaVuSans-116"/>
     <use x="463.09375" xlink:href="#DejaVuSans-115"/>
     <use x="515.193359" xlink:href="#DejaVuSans-58"/>
     <use x="548.884766" xlink:href="#DejaVuSans-32"/>
     <use x="580.671875" xlink:href="#DejaVuSans-49"/>
     <use x="644.294922" xlink:href="#DejaVuSans-48"/>
     <use x="707.917969" xlink:href="#DejaVuSans-48"/>
     <use x="771.541016" xlink:href="#DejaVuSans-46"/>
     <use x="803.328125" xlink:href="#DejaVuSans-46"/>
     <use x="835.115234" xlink:href="#DejaVuSans-49"/>
     <use x="898.738281" xlink:href="#DejaVuSans-101"/>
     <use x="960.261719" xlink:href="#DejaVuSans-45"/>
     <use x="996.345703" xlink:href="#DejaVuSans-48"/>
     <use x="1059.96875" xlink:href="#DejaVuSans-56"/>
    </g>
    <!-- 15 instances -->
    <g transform="translate(60.41088 60.954904)scale(0.102 -0.102)">
     <use xlink:href="#DejaVuSans-49"/>
     <use x="63.623047" xlink:href="#DejaVuSans-53"/>
     <use x="127.246094" xlink:href="#DejaVuSans-32"/>
     <use x="159.033203" xlink:href="#DejaVuSans-105"/>
     <use x="186.816406" xlink:href="#DejaVuSans-110"/>
     <use x="250.195312" xlink:href="#DejaVuSans-115"/>
     <use x="302.294922" xlink:href="#DejaVuSans-116"/>
     <use x="341.503906" xlink:href="#DejaVuSans-97"/>
     <use x="402.783203" xlink:href="#DejaVuSans-110"/>
     <use x="466.162109" xlink:href="#DejaVuSans-99"/>
     <use x="521.142578" xlink:href="#DejaVuSans-101"/>
     <use x="582.666016" xlink:href="#DejaVuSans-115"/>
    </g>
   </g>
   <g id="text_19">
    <!-- v2.4 -->
    <g style="fill:#808080;" transform="translate(187.233062 294.151352)scale(0.1 -0.1)">
     <use xlink:href="#DejaVuSans-118"/>
     <use x="59.179688" xlink:href="#DejaVuSans-50"/>
     <use x="122.802734" xlink:href="#DejaVuSans-46"/>
     <use x="154.589844" xlink:href="#DejaVuSans-52"/>
    </g>
   </g>
   <g id="text_20">
    <!-- 12 Bent cigar -->
    <g transform="translate(130.926812 21.648)scale(0.2 -0.2)">
     <defs>
      <path d="M 19.671875 34.8125 
L 19.671875 8.109375 
L 35.5 8.109375 
Q 43.453125 8.109375 47.28125 11.40625 
Q 51.125 14.703125 51.125 21.484375 
Q 51.125 28.328125 47.28125 31.5625 
Q 43.453125 34.8125 35.5 34.8125 
z
M 19.671875 64.796875 
L 19.671875 42.828125 
L 34.28125 42.828125 
Q 41.5 42.828125 45.03125 45.53125 
Q 48.578125 48.25 48.578125 53.8125 
Q 48.578125 59.328125 45.03125 62.0625 
Q 41.5 64.796875 34.28125 64.796875 
z
M 9.8125 72.90625 
L 35.015625 72.90625 
Q 46.296875 72.90625 52.390625 68.21875 
Q 58.5 63.53125 58.5 54.890625 
Q 58.5 48.1875 55.375 44.234375 
Q 52.25 40.28125 46.1875 39.3125 
Q 53.46875 37.75 57.5 32.78125 
Q 61.53125 27.828125 61.53125 20.40625 
Q 61.53125 10.640625 54.890625 5.3125 
Q 48.25 0 35.984375 0 
L 9.8125 0 
z
" id="DejaVuSans-66"/>
     </defs>
     <use xlink:href="#DejaVuSans-49"/>
     <use x="63.623047" xlink:href="#DejaVuSans-50"/>
     <use x="127.246094" xlink:href="#DejaVuSans-32"/>
     <use x="159.033203" xlink:href="#DejaVuSans-66"/>
     <use x="227.636719" xlink:href="#DejaVuSans-101"/>
     <use x="289.160156" xlink:href="#DejaVuSans-110"/>
     <use x="352.539062" xlink:href="#DejaVuSans-116"/>
     <use x="391.748047" xlink:href="#DejaVuSans-32"/>
     <use x="423.535156" xlink:href="#DejaVuSans-99"/>
     <use x="478.515625" xlink:href="#DejaVuSans-105"/>
     <use x="506.298828" xlink:href="#DejaVuSans-103"/>
     <use x="569.775391" xlink:href="#DejaVuSans-97"/>
     <use x="631.054688" xlink:href="#DejaVuSans-114"/>
    </g>
   </g>
  </g>
 </g>
 <defs>
  <clipPath id="p74a0772795">
   <rect height="271.296" width="281.088" x="57.6" y="27.648"/>
  </clipPath>
 </defs>
</svg>
