<?xml version="1.0" encoding="utf-8" standalone="no"?>
<!DOCTYPE svg PUBLIC "-//W3C//DTD SVG 1.1//EN"
  "http://www.w3.org/Graphics/SVG/1.1/DTD/svg11.dtd">
<!-- Created with matplotlib (https://matplotlib.org/) -->
<svg height="345.6pt" version="1.1" viewBox="0 0 460.8 345.6" width="460.8pt" xmlns="http://www.w3.org/2000/svg" xmlns:xlink="http://www.w3.org/1999/xlink">
 <metadata>
  <rdf:RDF xmlns:cc="http://creativecommons.org/ns#" xmlns:dc="http://purl.org/dc/elements/1.1/" xmlns:rdf="http://www.w3.org/1999/02/22-rdf-syntax-ns#">
   <cc:Work>
    <dc:type rdf:resource="http://purl.org/dc/dcmitype/StillImage"/>
    <dc:date>2021-06-17T01:40:36.347226</dc:date>
    <dc:format>image/svg+xml</dc:format>
    <dc:creator>
     <cc:Agent>
      <dc:title>Matplotlib v3.3.4, https://matplotlib.org/</dc:title>
     </cc:Agent>
    </dc:creator>
   </cc:Work>
  </rdf:RDF>
 </metadata>
 <defs>
  <style type="text/css">*{stroke-linecap:butt;stroke-linejoin:round;}</style>
 </defs>
 <g id="figure_1">
  <g id="patch_1">
   <path d="M 0 345.6 
L 460.8 345.6 
L 460.8 0 
L 0 0 
z
" style="fill:#ffffff;"/>
  </g>
  <g id="axes_1">
   <g id="patch_2">
    <path d="M 57.6 298.944 
L 338.688 298.944 
L 338.688 27.648 
L 57.6 27.648 
z
" style="fill:#ffffff;"/>
   </g>
   <g id="line2d_1">
    <path d="M 29.53256 298.944 
L 29.53256 293.677139 
L 53.708537 293.677139 
L 53.708537 288.410278 
L 76.759008 288.410278 
L 76.759008 283.143418 
L 89.972502 283.143418 
L 89.972502 277.876557 
L 97.043522 277.876557 
L 97.043522 272.609696 
L 103.870632 272.609696 
L 103.870632 267.342835 
L 109.668146 267.342835 
L 109.668146 262.075974 
L 113.73488 262.075974 
L 113.73488 256.809114 
L 118.148599 256.809114 
L 118.148599 251.542253 
L 131.236397 251.542253 
L 131.236397 246.275392 
L 133.398082 246.275392 
L 133.398082 241.008531 
L 148.411533 241.008531 
L 148.411533 235.74167 
L 148.582601 235.74167 
L 148.582601 230.47481 
L 148.620389 230.47481 
L 148.620389 225.207949 
L 148.733265 225.207949 
L 148.733265 219.941088 
L 148.882639 219.941088 
L 148.882639 214.674227 
L 149.049169 214.674227 
L 149.049169 209.407366 
L 149.25057 209.407366 
L 149.25057 204.140506 
L 149.341352 204.140506 
L 149.341352 198.873645 
L 149.485628 198.873645 
L 149.485628 193.606784 
L 149.646525 193.606784 
L 149.646525 188.339923 
L 149.699829 188.339923 
L 149.699829 183.073062 
L 149.770648 183.073062 
L 149.770648 177.806202 
L 150.085825 177.806202 
L 150.085825 172.539341 
L 150.103169 172.539341 
L 150.103169 167.27248 
L 150.137805 167.27248 
L 150.137805 162.005619 
L 150.241302 162.005619 
L 150.241302 156.738758 
L 150.309961 156.738758 
L 150.309961 151.471897 
L 150.37835 151.471897 
L 150.37835 146.205037 
L 150.412445 146.205037 
L 150.412445 140.938176 
L 150.463462 140.938176 
L 150.463462 135.671315 
L 150.51433 135.671315 
L 150.51433 130.404454 
L 150.531253 130.404454 
L 150.531253 125.137593 
L 150.632448 125.137593 
L 150.632448 119.870733 
L 150.649257 119.870733 
L 150.649257 114.603872 
L 150.682827 114.603872 
L 150.682827 109.337011 
L 150.783149 109.337011 
L 150.783149 104.07015 
L 150.799813 104.07015 
L 150.799813 93.536429 
L 150.899466 93.536429 
L 150.899466 88.269568 
L 150.94908 88.269568 
L 150.94908 83.002707 
L 150.982078 83.002707 
L 150.982078 77.735846 
L 151.015013 77.735846 
L 151.015013 72.468985 
L 151.047887 72.468985 
L 151.047887 67.202125 
L 151.097081 67.202125 
L 151.097081 61.935264 
L 151.146137 61.935264 
L 151.146137 56.668403 
L 151.162458 56.668403 
L 151.162458 51.401542 
L 151.227591 51.401542 
L 151.227591 46.134681 
L 151.260066 46.134681 
L 151.260066 40.867821 
L 151.276281 40.867821 
L 151.276281 35.60096 
L 151.340991 35.60096 
L 151.340991 30.334099 
L 338.688 30.334099 
" style="fill:none;stroke:#f5deb3;stroke-linecap:square;stroke-width:4;"/>
   </g>
   <g id="line2d_2">
    <defs>
     <path d="M -0 7.778175 
L 7.778175 0 
L 0 -7.778175 
L -7.778175 -0 
z
" id="mea51bda7dc" style="stroke:#f5deb3;stroke-linejoin:miter;stroke-width:1.5;"/>
    </defs>
    <g>
     <use style="fill:#f5deb3;stroke:#f5deb3;stroke-linejoin:miter;stroke-width:1.5;" x="103.870632" xlink:href="#mea51bda7dc" y="267.342835"/>
     <use style="fill:#f5deb3;stroke:#f5deb3;stroke-linejoin:miter;stroke-width:1.5;" x="150.412445" xlink:href="#mea51bda7dc" y="146.205037"/>
     <use style="fill:#f5deb3;stroke:#f5deb3;stroke-linejoin:miter;stroke-width:1.5;" x="151.340991" xlink:href="#mea51bda7dc" y="35.60096"/>
     <use style="fill:#f5deb3;stroke:#f5deb3;stroke-linejoin:miter;stroke-width:1.5;" x="151.340991" xlink:href="#mea51bda7dc" y="30.334099"/>
     <use style="fill:#f5deb3;stroke:#f5deb3;stroke-linejoin:miter;stroke-width:1.5;" x="151.340991" xlink:href="#mea51bda7dc" y="30.334099"/>
     <use style="fill:#f5deb3;stroke:#f5deb3;stroke-linejoin:miter;stroke-width:1.5;" x="338.688" xlink:href="#mea51bda7dc" y="30.334099"/>
    </g>
   </g>
   <g id="line2d_3">
    <path style="fill:none;stroke:#f5deb3;stroke-linecap:square;stroke-width:4;"/>
    <g/>
   </g>
   <g id="line2d_4">
    <path d="M 338.688 30.334099 
L 369.60768 35.706297 
" style="fill:none;stroke:#f5deb3;stroke-linecap:square;stroke-width:4;"/>
    <g>
     <use style="fill:#f5deb3;stroke:#f5deb3;stroke-linejoin:miter;stroke-width:1.5;" x="338.688" xlink:href="#mea51bda7dc" y="30.334099"/>
     <use style="fill:#f5deb3;stroke:#f5deb3;stroke-linejoin:miter;stroke-width:1.5;" x="369.60768" xlink:href="#mea51bda7dc" y="35.706297"/>
    </g>
   </g>
   <g id="matplotlib.axis_1">
    <g id="xtick_1">
     <g id="line2d_5">
      <path clip-path="url(#pd4b47de936)" d="M 57.6 298.944 
L 57.6 27.648 
" style="fill:none;stroke:#b0b0b0;stroke-linecap:square;stroke-width:0.8;"/>
     </g>
     <g id="line2d_6">
      <defs>
       <path d="M 0 0 
L 0 3.5 
" id="mc598424ff0" style="stroke:#000000;stroke-width:0.8;"/>
      </defs>
      <g>
       <use style="stroke:#000000;stroke-width:0.8;" x="57.6" xlink:href="#mc598424ff0" y="298.944"/>
      </g>
     </g>
     <g id="text_1">
      <!-- 0 -->
      <g transform="translate(51.2375 321.140875)scale(0.2 -0.2)">
       <defs>
        <path d="M 31.78125 66.40625 
Q 24.171875 66.40625 20.328125 58.90625 
Q 16.5 51.421875 16.5 36.375 
Q 16.5 21.390625 20.328125 13.890625 
Q 24.171875 6.390625 31.78125 6.390625 
Q 39.453125 6.390625 43.28125 13.890625 
Q 47.125 21.390625 47.125 36.375 
Q 47.125 51.421875 43.28125 58.90625 
Q 39.453125 66.40625 31.78125 66.40625 
z
M 31.78125 74.21875 
Q 44.046875 74.21875 50.515625 64.515625 
Q 56.984375 54.828125 56.984375 36.375 
Q 56.984375 17.96875 50.515625 8.265625 
Q 44.046875 -1.421875 31.78125 -1.421875 
Q 19.53125 -1.421875 13.0625 8.265625 
Q 6.59375 17.96875 6.59375 36.375 
Q 6.59375 54.828125 13.0625 64.515625 
Q 19.53125 74.21875 31.78125 74.21875 
z
" id="DejaVuSans-48"/>
       </defs>
       <use xlink:href="#DejaVuSans-48"/>
      </g>
     </g>
    </g>
    <g id="xtick_2">
     <g id="line2d_7">
      <path clip-path="url(#pd4b47de936)" d="M 137.910857 298.944 
L 137.910857 27.648 
" style="fill:none;stroke:#b0b0b0;stroke-linecap:square;stroke-width:0.8;"/>
     </g>
     <g id="line2d_8">
      <g>
       <use style="stroke:#000000;stroke-width:0.8;" x="137.910857" xlink:href="#mc598424ff0" y="298.944"/>
      </g>
     </g>
     <g id="text_2">
      <!-- 2 -->
      <g transform="translate(131.548357 321.140875)scale(0.2 -0.2)">
       <defs>
        <path d="M 19.1875 8.296875 
L 53.609375 8.296875 
L 53.609375 0 
L 7.328125 0 
L 7.328125 8.296875 
Q 12.9375 14.109375 22.625 23.890625 
Q 32.328125 33.6875 34.8125 36.53125 
Q 39.546875 41.84375 41.421875 45.53125 
Q 43.3125 49.21875 43.3125 52.78125 
Q 43.3125 58.59375 39.234375 62.25 
Q 35.15625 65.921875 28.609375 65.921875 
Q 23.96875 65.921875 18.8125 64.3125 
Q 13.671875 62.703125 7.8125 59.421875 
L 7.8125 69.390625 
Q 13.765625 71.78125 18.9375 73 
Q 24.125 74.21875 28.421875 74.21875 
Q 39.75 74.21875 46.484375 68.546875 
Q 53.21875 62.890625 53.21875 53.421875 
Q 53.21875 48.921875 51.53125 44.890625 
Q 49.859375 40.875 45.40625 35.40625 
Q 44.1875 33.984375 37.640625 27.21875 
Q 31.109375 20.453125 19.1875 8.296875 
z
" id="DejaVuSans-50"/>
       </defs>
       <use xlink:href="#DejaVuSans-50"/>
      </g>
     </g>
    </g>
    <g id="xtick_3">
     <g id="line2d_9">
      <path clip-path="url(#pd4b47de936)" d="M 218.221714 298.944 
L 218.221714 27.648 
" style="fill:none;stroke:#b0b0b0;stroke-linecap:square;stroke-width:0.8;"/>
     </g>
     <g id="line2d_10">
      <g>
       <use style="stroke:#000000;stroke-width:0.8;" x="218.221714" xlink:href="#mc598424ff0" y="298.944"/>
      </g>
     </g>
     <g id="text_3">
      <!-- 4 -->
      <g transform="translate(211.859214 321.140875)scale(0.2 -0.2)">
       <defs>
        <path d="M 37.796875 64.3125 
L 12.890625 25.390625 
L 37.796875 25.390625 
z
M 35.203125 72.90625 
L 47.609375 72.90625 
L 47.609375 25.390625 
L 58.015625 25.390625 
L 58.015625 17.1875 
L 47.609375 17.1875 
L 47.609375 0 
L 37.796875 0 
L 37.796875 17.1875 
L 4.890625 17.1875 
L 4.890625 26.703125 
z
" id="DejaVuSans-52"/>
       </defs>
       <use xlink:href="#DejaVuSans-52"/>
      </g>
     </g>
    </g>
    <g id="xtick_4">
     <g id="line2d_11">
      <path clip-path="url(#pd4b47de936)" d="M 298.532571 298.944 
L 298.532571 27.648 
" style="fill:none;stroke:#b0b0b0;stroke-linecap:square;stroke-width:0.8;"/>
     </g>
     <g id="line2d_12">
      <g>
       <use style="stroke:#000000;stroke-width:0.8;" x="298.532571" xlink:href="#mc598424ff0" y="298.944"/>
      </g>
     </g>
     <g id="text_4">
      <!-- 6 -->
      <g transform="translate(292.170071 321.140875)scale(0.2 -0.2)">
       <defs>
        <path d="M 33.015625 40.375 
Q 26.375 40.375 22.484375 35.828125 
Q 18.609375 31.296875 18.609375 23.390625 
Q 18.609375 15.53125 22.484375 10.953125 
Q 26.375 6.390625 33.015625 6.390625 
Q 39.65625 6.390625 43.53125 10.953125 
Q 47.40625 15.53125 47.40625 23.390625 
Q 47.40625 31.296875 43.53125 35.828125 
Q 39.65625 40.375 33.015625 40.375 
z
M 52.59375 71.296875 
L 52.59375 62.3125 
Q 48.875 64.0625 45.09375 64.984375 
Q 41.3125 65.921875 37.59375 65.921875 
Q 27.828125 65.921875 22.671875 59.328125 
Q 17.53125 52.734375 16.796875 39.40625 
Q 19.671875 43.65625 24.015625 45.921875 
Q 28.375 48.1875 33.59375 48.1875 
Q 44.578125 48.1875 50.953125 41.515625 
Q 57.328125 34.859375 57.328125 23.390625 
Q 57.328125 12.15625 50.6875 5.359375 
Q 44.046875 -1.421875 33.015625 -1.421875 
Q 20.359375 -1.421875 13.671875 8.265625 
Q 6.984375 17.96875 6.984375 36.375 
Q 6.984375 53.65625 15.1875 63.9375 
Q 23.390625 74.21875 37.203125 74.21875 
Q 40.921875 74.21875 44.703125 73.484375 
Q 48.484375 72.75 52.59375 71.296875 
z
" id="DejaVuSans-54"/>
       </defs>
       <use xlink:href="#DejaVuSans-54"/>
      </g>
     </g>
    </g>
    <g id="xtick_5">
     <g id="line2d_13">
      <path clip-path="url(#pd4b47de936)" d="M 97.755429 298.944 
L 97.755429 27.648 
" style="fill:none;stroke:#b0b0b0;stroke-linecap:square;stroke-width:0.8;"/>
     </g>
     <g id="line2d_14">
      <defs>
       <path d="M 0 0 
L 0 2 
" id="m4ece3de1da" style="stroke:#000000;stroke-width:0.6;"/>
      </defs>
      <g>
       <use style="stroke:#000000;stroke-width:0.6;" x="97.755429" xlink:href="#m4ece3de1da" y="298.944"/>
      </g>
     </g>
    </g>
    <g id="xtick_6">
     <g id="line2d_15">
      <path clip-path="url(#pd4b47de936)" d="M 178.066286 298.944 
L 178.066286 27.648 
" style="fill:none;stroke:#b0b0b0;stroke-linecap:square;stroke-width:0.8;"/>
     </g>
     <g id="line2d_16">
      <g>
       <use style="stroke:#000000;stroke-width:0.6;" x="178.066286" xlink:href="#m4ece3de1da" y="298.944"/>
      </g>
     </g>
    </g>
    <g id="xtick_7">
     <g id="line2d_17">
      <path clip-path="url(#pd4b47de936)" d="M 258.377143 298.944 
L 258.377143 27.648 
" style="fill:none;stroke:#b0b0b0;stroke-linecap:square;stroke-width:0.8;"/>
     </g>
     <g id="line2d_18">
      <g>
       <use style="stroke:#000000;stroke-width:0.6;" x="258.377143" xlink:href="#m4ece3de1da" y="298.944"/>
      </g>
     </g>
    </g>
    <g id="xtick_8">
     <g id="line2d_19">
      <path clip-path="url(#pd4b47de936)" d="M 338.688 298.944 
L 338.688 27.648 
" style="fill:none;stroke:#b0b0b0;stroke-linecap:square;stroke-width:0.8;"/>
     </g>
     <g id="line2d_20">
      <g>
       <use style="stroke:#000000;stroke-width:0.6;" x="338.688" xlink:href="#m4ece3de1da" y="298.944"/>
      </g>
     </g>
    </g>
    <g id="text_5">
     <!-- log10(# f-evals / dimension) -->
     <g transform="translate(77.764078 342.217594)scale(0.17 -0.17)">
      <defs>
       <path d="M 9.421875 75.984375 
L 18.40625 75.984375 
L 18.40625 0 
L 9.421875 0 
z
" id="DejaVuSans-108"/>
       <path d="M 30.609375 48.390625 
Q 23.390625 48.390625 19.1875 42.75 
Q 14.984375 37.109375 14.984375 27.296875 
Q 14.984375 17.484375 19.15625 11.84375 
Q 23.34375 6.203125 30.609375 6.203125 
Q 37.796875 6.203125 41.984375 11.859375 
Q 46.1875 17.53125 46.1875 27.296875 
Q 46.1875 37.015625 41.984375 42.703125 
Q 37.796875 48.390625 30.609375 48.390625 
z
M 30.609375 56 
Q 42.328125 56 49.015625 48.375 
Q 55.71875 40.765625 55.71875 27.296875 
Q 55.71875 13.875 49.015625 6.21875 
Q 42.328125 -1.421875 30.609375 -1.421875 
Q 18.84375 -1.421875 12.171875 6.21875 
Q 5.515625 13.875 5.515625 27.296875 
Q 5.515625 40.765625 12.171875 48.375 
Q 18.84375 56 30.609375 56 
z
" id="DejaVuSans-111"/>
       <path d="M 45.40625 27.984375 
Q 45.40625 37.75 41.375 43.109375 
Q 37.359375 48.484375 30.078125 48.484375 
Q 22.859375 48.484375 18.828125 43.109375 
Q 14.796875 37.75 14.796875 27.984375 
Q 14.796875 18.265625 18.828125 12.890625 
Q 22.859375 7.515625 30.078125 7.515625 
Q 37.359375 7.515625 41.375 12.890625 
Q 45.40625 18.265625 45.40625 27.984375 
z
M 54.390625 6.78125 
Q 54.390625 -7.171875 48.1875 -13.984375 
Q 42 -20.796875 29.203125 -20.796875 
Q 24.46875 -20.796875 20.265625 -20.09375 
Q 16.0625 -19.390625 12.109375 -17.921875 
L 12.109375 -9.1875 
Q 16.0625 -11.328125 19.921875 -12.34375 
Q 23.78125 -13.375 27.78125 -13.375 
Q 36.625 -13.375 41.015625 -8.765625 
Q 45.40625 -4.15625 45.40625 5.171875 
L 45.40625 9.625 
Q 42.625 4.78125 38.28125 2.390625 
Q 33.9375 0 27.875 0 
Q 17.828125 0 11.671875 7.65625 
Q 5.515625 15.328125 5.515625 27.984375 
Q 5.515625 40.671875 11.671875 48.328125 
Q 17.828125 56 27.875 56 
Q 33.9375 56 38.28125 53.609375 
Q 42.625 51.21875 45.40625 46.390625 
L 45.40625 54.6875 
L 54.390625 54.6875 
z
" id="DejaVuSans-103"/>
       <path d="M 12.40625 8.296875 
L 28.515625 8.296875 
L 28.515625 63.921875 
L 10.984375 60.40625 
L 10.984375 69.390625 
L 28.421875 72.90625 
L 38.28125 72.90625 
L 38.28125 8.296875 
L 54.390625 8.296875 
L 54.390625 0 
L 12.40625 0 
z
" id="DejaVuSans-49"/>
       <path d="M 31 75.875 
Q 24.46875 64.65625 21.28125 53.65625 
Q 18.109375 42.671875 18.109375 31.390625 
Q 18.109375 20.125 21.3125 9.0625 
Q 24.515625 -2 31 -13.1875 
L 23.1875 -13.1875 
Q 15.875 -1.703125 12.234375 9.375 
Q 8.59375 20.453125 8.59375 31.390625 
Q 8.59375 42.28125 12.203125 53.3125 
Q 15.828125 64.359375 23.1875 75.875 
z
" id="DejaVuSans-40"/>
       <path d="M 51.125 44 
L 36.921875 44 
L 32.8125 27.6875 
L 47.125 27.6875 
z
M 43.796875 71.78125 
L 38.71875 51.515625 
L 52.984375 51.515625 
L 58.109375 71.78125 
L 65.921875 71.78125 
L 60.890625 51.515625 
L 76.125 51.515625 
L 76.125 44 
L 58.984375 44 
L 54.984375 27.6875 
L 70.515625 27.6875 
L 70.515625 20.21875 
L 53.078125 20.21875 
L 48 0 
L 40.1875 0 
L 45.21875 20.21875 
L 30.90625 20.21875 
L 25.875 0 
L 18.015625 0 
L 23.09375 20.21875 
L 7.71875 20.21875 
L 7.71875 27.6875 
L 24.90625 27.6875 
L 29 44 
L 13.28125 44 
L 13.28125 51.515625 
L 30.90625 51.515625 
L 35.890625 71.78125 
z
" id="DejaVuSans-35"/>
       <path id="DejaVuSans-32"/>
       <path d="M 37.109375 75.984375 
L 37.109375 68.5 
L 28.515625 68.5 
Q 23.6875 68.5 21.796875 66.546875 
Q 19.921875 64.59375 19.921875 59.515625 
L 19.921875 54.6875 
L 34.71875 54.6875 
L 34.71875 47.703125 
L 19.921875 47.703125 
L 19.921875 0 
L 10.890625 0 
L 10.890625 47.703125 
L 2.296875 47.703125 
L 2.296875 54.6875 
L 10.890625 54.6875 
L 10.890625 58.5 
Q 10.890625 67.625 15.140625 71.796875 
Q 19.390625 75.984375 28.609375 75.984375 
z
" id="DejaVuSans-102"/>
       <path d="M 4.890625 31.390625 
L 31.203125 31.390625 
L 31.203125 23.390625 
L 4.890625 23.390625 
z
" id="DejaVuSans-45"/>
       <path d="M 56.203125 29.59375 
L 56.203125 25.203125 
L 14.890625 25.203125 
Q 15.484375 15.921875 20.484375 11.0625 
Q 25.484375 6.203125 34.421875 6.203125 
Q 39.59375 6.203125 44.453125 7.46875 
Q 49.3125 8.734375 54.109375 11.28125 
L 54.109375 2.78125 
Q 49.265625 0.734375 44.1875 -0.34375 
Q 39.109375 -1.421875 33.890625 -1.421875 
Q 20.796875 -1.421875 13.15625 6.1875 
Q 5.515625 13.8125 5.515625 26.8125 
Q 5.515625 40.234375 12.765625 48.109375 
Q 20.015625 56 32.328125 56 
Q 43.359375 56 49.78125 48.890625 
Q 56.203125 41.796875 56.203125 29.59375 
z
M 47.21875 32.234375 
Q 47.125 39.59375 43.09375 43.984375 
Q 39.0625 48.390625 32.421875 48.390625 
Q 24.90625 48.390625 20.390625 44.140625 
Q 15.875 39.890625 15.1875 32.171875 
z
" id="DejaVuSans-101"/>
       <path d="M 2.984375 54.6875 
L 12.5 54.6875 
L 29.59375 8.796875 
L 46.6875 54.6875 
L 56.203125 54.6875 
L 35.6875 0 
L 23.484375 0 
z
" id="DejaVuSans-118"/>
       <path d="M 34.28125 27.484375 
Q 23.390625 27.484375 19.1875 25 
Q 14.984375 22.515625 14.984375 16.5 
Q 14.984375 11.71875 18.140625 8.90625 
Q 21.296875 6.109375 26.703125 6.109375 
Q 34.1875 6.109375 38.703125 11.40625 
Q 43.21875 16.703125 43.21875 25.484375 
L 43.21875 27.484375 
z
M 52.203125 31.203125 
L 52.203125 0 
L 43.21875 0 
L 43.21875 8.296875 
Q 40.140625 3.328125 35.546875 0.953125 
Q 30.953125 -1.421875 24.3125 -1.421875 
Q 15.921875 -1.421875 10.953125 3.296875 
Q 6 8.015625 6 15.921875 
Q 6 25.140625 12.171875 29.828125 
Q 18.359375 34.515625 30.609375 34.515625 
L 43.21875 34.515625 
L 43.21875 35.40625 
Q 43.21875 41.609375 39.140625 45 
Q 35.0625 48.390625 27.6875 48.390625 
Q 23 48.390625 18.546875 47.265625 
Q 14.109375 46.140625 10.015625 43.890625 
L 10.015625 52.203125 
Q 14.9375 54.109375 19.578125 55.046875 
Q 24.21875 56 28.609375 56 
Q 40.484375 56 46.34375 49.84375 
Q 52.203125 43.703125 52.203125 31.203125 
z
" id="DejaVuSans-97"/>
       <path d="M 44.28125 53.078125 
L 44.28125 44.578125 
Q 40.484375 46.53125 36.375 47.5 
Q 32.28125 48.484375 27.875 48.484375 
Q 21.1875 48.484375 17.84375 46.4375 
Q 14.5 44.390625 14.5 40.28125 
Q 14.5 37.15625 16.890625 35.375 
Q 19.28125 33.59375 26.515625 31.984375 
L 29.59375 31.296875 
Q 39.15625 29.25 43.1875 25.515625 
Q 47.21875 21.78125 47.21875 15.09375 
Q 47.21875 7.46875 41.1875 3.015625 
Q 35.15625 -1.421875 24.609375 -1.421875 
Q 20.21875 -1.421875 15.453125 -0.5625 
Q 10.6875 0.296875 5.421875 2 
L 5.421875 11.28125 
Q 10.40625 8.6875 15.234375 7.390625 
Q 20.0625 6.109375 24.8125 6.109375 
Q 31.15625 6.109375 34.5625 8.28125 
Q 37.984375 10.453125 37.984375 14.40625 
Q 37.984375 18.0625 35.515625 20.015625 
Q 33.0625 21.96875 24.703125 23.78125 
L 21.578125 24.515625 
Q 13.234375 26.265625 9.515625 29.90625 
Q 5.8125 33.546875 5.8125 39.890625 
Q 5.8125 47.609375 11.28125 51.796875 
Q 16.75 56 26.8125 56 
Q 31.78125 56 36.171875 55.265625 
Q 40.578125 54.546875 44.28125 53.078125 
z
" id="DejaVuSans-115"/>
       <path d="M 25.390625 72.90625 
L 33.6875 72.90625 
L 8.296875 -9.28125 
L 0 -9.28125 
z
" id="DejaVuSans-47"/>
       <path d="M 45.40625 46.390625 
L 45.40625 75.984375 
L 54.390625 75.984375 
L 54.390625 0 
L 45.40625 0 
L 45.40625 8.203125 
Q 42.578125 3.328125 38.25 0.953125 
Q 33.9375 -1.421875 27.875 -1.421875 
Q 17.96875 -1.421875 11.734375 6.484375 
Q 5.515625 14.40625 5.515625 27.296875 
Q 5.515625 40.1875 11.734375 48.09375 
Q 17.96875 56 27.875 56 
Q 33.9375 56 38.25 53.625 
Q 42.578125 51.265625 45.40625 46.390625 
z
M 14.796875 27.296875 
Q 14.796875 17.390625 18.875 11.75 
Q 22.953125 6.109375 30.078125 6.109375 
Q 37.203125 6.109375 41.296875 11.75 
Q 45.40625 17.390625 45.40625 27.296875 
Q 45.40625 37.203125 41.296875 42.84375 
Q 37.203125 48.484375 30.078125 48.484375 
Q 22.953125 48.484375 18.875 42.84375 
Q 14.796875 37.203125 14.796875 27.296875 
z
" id="DejaVuSans-100"/>
       <path d="M 9.421875 54.6875 
L 18.40625 54.6875 
L 18.40625 0 
L 9.421875 0 
z
M 9.421875 75.984375 
L 18.40625 75.984375 
L 18.40625 64.59375 
L 9.421875 64.59375 
z
" id="DejaVuSans-105"/>
       <path d="M 52 44.1875 
Q 55.375 50.25 60.0625 53.125 
Q 64.75 56 71.09375 56 
Q 79.640625 56 84.28125 50.015625 
Q 88.921875 44.046875 88.921875 33.015625 
L 88.921875 0 
L 79.890625 0 
L 79.890625 32.71875 
Q 79.890625 40.578125 77.09375 44.375 
Q 74.3125 48.1875 68.609375 48.1875 
Q 61.625 48.1875 57.5625 43.546875 
Q 53.515625 38.921875 53.515625 30.90625 
L 53.515625 0 
L 44.484375 0 
L 44.484375 32.71875 
Q 44.484375 40.625 41.703125 44.40625 
Q 38.921875 48.1875 33.109375 48.1875 
Q 26.21875 48.1875 22.15625 43.53125 
Q 18.109375 38.875 18.109375 30.90625 
L 18.109375 0 
L 9.078125 0 
L 9.078125 54.6875 
L 18.109375 54.6875 
L 18.109375 46.1875 
Q 21.1875 51.21875 25.484375 53.609375 
Q 29.78125 56 35.6875 56 
Q 41.65625 56 45.828125 52.96875 
Q 50 49.953125 52 44.1875 
z
" id="DejaVuSans-109"/>
       <path d="M 54.890625 33.015625 
L 54.890625 0 
L 45.90625 0 
L 45.90625 32.71875 
Q 45.90625 40.484375 42.875 44.328125 
Q 39.84375 48.1875 33.796875 48.1875 
Q 26.515625 48.1875 22.3125 43.546875 
Q 18.109375 38.921875 18.109375 30.90625 
L 18.109375 0 
L 9.078125 0 
L 9.078125 54.6875 
L 18.109375 54.6875 
L 18.109375 46.1875 
Q 21.34375 51.125 25.703125 53.5625 
Q 30.078125 56 35.796875 56 
Q 45.21875 56 50.046875 50.171875 
Q 54.890625 44.34375 54.890625 33.015625 
z
" id="DejaVuSans-110"/>
       <path d="M 8.015625 75.875 
L 15.828125 75.875 
Q 23.140625 64.359375 26.78125 53.3125 
Q 30.421875 42.28125 30.421875 31.390625 
Q 30.421875 20.453125 26.78125 9.375 
Q 23.140625 -1.703125 15.828125 -13.1875 
L 8.015625 -13.1875 
Q 14.5 -2 17.703125 9.0625 
Q 20.90625 20.125 20.90625 31.390625 
Q 20.90625 42.671875 17.703125 53.65625 
Q 14.5 64.65625 8.015625 75.875 
z
" id="DejaVuSans-41"/>
      </defs>
      <use xlink:href="#DejaVuSans-108"/>
      <use x="27.783203" xlink:href="#DejaVuSans-111"/>
      <use x="88.964844" xlink:href="#DejaVuSans-103"/>
      <use x="152.441406" xlink:href="#DejaVuSans-49"/>
      <use x="216.064453" xlink:href="#DejaVuSans-48"/>
      <use x="279.6875" xlink:href="#DejaVuSans-40"/>
      <use x="318.701172" xlink:href="#DejaVuSans-35"/>
      <use x="402.490234" xlink:href="#DejaVuSans-32"/>
      <use x="434.277344" xlink:href="#DejaVuSans-102"/>
      <use x="463.982422" xlink:href="#DejaVuSans-45"/>
      <use x="500.066406" xlink:href="#DejaVuSans-101"/>
      <use x="561.589844" xlink:href="#DejaVuSans-118"/>
      <use x="620.769531" xlink:href="#DejaVuSans-97"/>
      <use x="682.048828" xlink:href="#DejaVuSans-108"/>
      <use x="709.832031" xlink:href="#DejaVuSans-115"/>
      <use x="761.931641" xlink:href="#DejaVuSans-32"/>
      <use x="793.71875" xlink:href="#DejaVuSans-47"/>
      <use x="827.410156" xlink:href="#DejaVuSans-32"/>
      <use x="859.197266" xlink:href="#DejaVuSans-100"/>
      <use x="922.673828" xlink:href="#DejaVuSans-105"/>
      <use x="950.457031" xlink:href="#DejaVuSans-109"/>
      <use x="1047.869141" xlink:href="#DejaVuSans-101"/>
      <use x="1109.392578" xlink:href="#DejaVuSans-110"/>
      <use x="1172.771484" xlink:href="#DejaVuSans-115"/>
      <use x="1224.871094" xlink:href="#DejaVuSans-105"/>
      <use x="1252.654297" xlink:href="#DejaVuSans-111"/>
      <use x="1313.835938" xlink:href="#DejaVuSans-110"/>
      <use x="1377.214844" xlink:href="#DejaVuSans-41"/>
     </g>
    </g>
   </g>
   <g id="matplotlib.axis_2">
    <g id="ytick_1">
     <g id="line2d_21">
      <path clip-path="url(#pd4b47de936)" d="M 57.6 298.944 
L 338.688 298.944 
" style="fill:none;stroke:#b0b0b0;stroke-linecap:square;stroke-width:0.8;"/>
     </g>
     <g id="line2d_22">
      <defs>
       <path d="M 0 0 
L -3.5 0 
" id="m701db5ab66" style="stroke:#000000;stroke-width:0.8;"/>
      </defs>
      <g>
       <use style="stroke:#000000;stroke-width:0.8;" x="57.6" xlink:href="#m701db5ab66" y="298.944"/>
      </g>
     </g>
     <g id="text_6">
      <!-- 0.0 -->
      <g transform="translate(25.155 305.02275)scale(0.16 -0.16)">
       <defs>
        <path d="M 10.6875 12.40625 
L 21 12.40625 
L 21 0 
L 10.6875 0 
z
" id="DejaVuSans-46"/>
       </defs>
       <use xlink:href="#DejaVuSans-48"/>
       <use x="63.623047" xlink:href="#DejaVuSans-46"/>
       <use x="95.410156" xlink:href="#DejaVuSans-48"/>
      </g>
     </g>
    </g>
    <g id="ytick_2">
     <g id="line2d_23">
      <path clip-path="url(#pd4b47de936)" d="M 57.6 245.22202 
L 338.688 245.22202 
" style="fill:none;stroke:#b0b0b0;stroke-linecap:square;stroke-width:0.8;"/>
     </g>
     <g id="line2d_24">
      <g>
       <use style="stroke:#000000;stroke-width:0.8;" x="57.6" xlink:href="#m701db5ab66" y="245.22202"/>
      </g>
     </g>
     <g id="text_7">
      <!-- 0.2 -->
      <g transform="translate(25.155 251.30077)scale(0.16 -0.16)">
       <use xlink:href="#DejaVuSans-48"/>
       <use x="63.623047" xlink:href="#DejaVuSans-46"/>
       <use x="95.410156" xlink:href="#DejaVuSans-50"/>
      </g>
     </g>
    </g>
    <g id="ytick_3">
     <g id="line2d_25">
      <path clip-path="url(#pd4b47de936)" d="M 57.6 191.50004 
L 338.688 191.50004 
" style="fill:none;stroke:#b0b0b0;stroke-linecap:square;stroke-width:0.8;"/>
     </g>
     <g id="line2d_26">
      <g>
       <use style="stroke:#000000;stroke-width:0.8;" x="57.6" xlink:href="#m701db5ab66" y="191.50004"/>
      </g>
     </g>
     <g id="text_8">
      <!-- 0.4 -->
      <g transform="translate(25.155 197.57879)scale(0.16 -0.16)">
       <use xlink:href="#DejaVuSans-48"/>
       <use x="63.623047" xlink:href="#DejaVuSans-46"/>
       <use x="95.410156" xlink:href="#DejaVuSans-52"/>
      </g>
     </g>
    </g>
    <g id="ytick_4">
     <g id="line2d_27">
      <path clip-path="url(#pd4b47de936)" d="M 57.6 137.778059 
L 338.688 137.778059 
" style="fill:none;stroke:#b0b0b0;stroke-linecap:square;stroke-width:0.8;"/>
     </g>
     <g id="line2d_28">
      <g>
       <use style="stroke:#000000;stroke-width:0.8;" x="57.6" xlink:href="#m701db5ab66" y="137.778059"/>
      </g>
     </g>
     <g id="text_9">
      <!-- 0.6 -->
      <g transform="translate(25.155 143.856809)scale(0.16 -0.16)">
       <use xlink:href="#DejaVuSans-48"/>
       <use x="63.623047" xlink:href="#DejaVuSans-46"/>
       <use x="95.410156" xlink:href="#DejaVuSans-54"/>
      </g>
     </g>
    </g>
    <g id="ytick_5">
     <g id="line2d_29">
      <path clip-path="url(#pd4b47de936)" d="M 57.6 84.056079 
L 338.688 84.056079 
" style="fill:none;stroke:#b0b0b0;stroke-linecap:square;stroke-width:0.8;"/>
     </g>
     <g id="line2d_30">
      <g>
       <use style="stroke:#000000;stroke-width:0.8;" x="57.6" xlink:href="#m701db5ab66" y="84.056079"/>
      </g>
     </g>
     <g id="text_10">
      <!-- 0.8 -->
      <g transform="translate(25.155 90.134829)scale(0.16 -0.16)">
       <defs>
        <path d="M 31.78125 34.625 
Q 24.75 34.625 20.71875 30.859375 
Q 16.703125 27.09375 16.703125 20.515625 
Q 16.703125 13.921875 20.71875 10.15625 
Q 24.75 6.390625 31.78125 6.390625 
Q 38.8125 6.390625 42.859375 10.171875 
Q 46.921875 13.96875 46.921875 20.515625 
Q 46.921875 27.09375 42.890625 30.859375 
Q 38.875 34.625 31.78125 34.625 
z
M 21.921875 38.8125 
Q 15.578125 40.375 12.03125 44.71875 
Q 8.5 49.078125 8.5 55.328125 
Q 8.5 64.0625 14.71875 69.140625 
Q 20.953125 74.21875 31.78125 74.21875 
Q 42.671875 74.21875 48.875 69.140625 
Q 55.078125 64.0625 55.078125 55.328125 
Q 55.078125 49.078125 51.53125 44.71875 
Q 48 40.375 41.703125 38.8125 
Q 48.828125 37.15625 52.796875 32.3125 
Q 56.78125 27.484375 56.78125 20.515625 
Q 56.78125 9.90625 50.3125 4.234375 
Q 43.84375 -1.421875 31.78125 -1.421875 
Q 19.734375 -1.421875 13.25 4.234375 
Q 6.78125 9.90625 6.78125 20.515625 
Q 6.78125 27.484375 10.78125 32.3125 
Q 14.796875 37.15625 21.921875 38.8125 
z
M 18.3125 54.390625 
Q 18.3125 48.734375 21.84375 45.5625 
Q 25.390625 42.390625 31.78125 42.390625 
Q 38.140625 42.390625 41.71875 45.5625 
Q 45.3125 48.734375 45.3125 54.390625 
Q 45.3125 60.0625 41.71875 63.234375 
Q 38.140625 66.40625 31.78125 66.40625 
Q 25.390625 66.40625 21.84375 63.234375 
Q 18.3125 60.0625 18.3125 54.390625 
z
" id="DejaVuSans-56"/>
       </defs>
       <use xlink:href="#DejaVuSans-48"/>
       <use x="63.623047" xlink:href="#DejaVuSans-46"/>
       <use x="95.410156" xlink:href="#DejaVuSans-56"/>
      </g>
     </g>
    </g>
    <g id="ytick_6">
     <g id="line2d_31">
      <path clip-path="url(#pd4b47de936)" d="M 57.6 30.334099 
L 338.688 30.334099 
" style="fill:none;stroke:#b0b0b0;stroke-linecap:square;stroke-width:0.8;"/>
     </g>
     <g id="line2d_32">
      <g>
       <use style="stroke:#000000;stroke-width:0.8;" x="57.6" xlink:href="#m701db5ab66" y="30.334099"/>
      </g>
     </g>
     <g id="text_11">
      <!-- 1.0 -->
      <g transform="translate(25.155 36.412849)scale(0.16 -0.16)">
       <use xlink:href="#DejaVuSans-49"/>
       <use x="63.623047" xlink:href="#DejaVuSans-46"/>
       <use x="95.410156" xlink:href="#DejaVuSans-48"/>
      </g>
     </g>
    </g>
    <g id="text_12">
     <!-- Fraction of function,target pairs -->
     <g transform="translate(17.619531 297.681)rotate(-90)scale(0.17 -0.17)">
      <defs>
       <path d="M 9.8125 72.90625 
L 51.703125 72.90625 
L 51.703125 64.59375 
L 19.671875 64.59375 
L 19.671875 43.109375 
L 48.578125 43.109375 
L 48.578125 34.8125 
L 19.671875 34.8125 
L 19.671875 0 
L 9.8125 0 
z
" id="DejaVuSans-70"/>
       <path d="M 41.109375 46.296875 
Q 39.59375 47.171875 37.8125 47.578125 
Q 36.03125 48 33.890625 48 
Q 26.265625 48 22.1875 43.046875 
Q 18.109375 38.09375 18.109375 28.8125 
L 18.109375 0 
L 9.078125 0 
L 9.078125 54.6875 
L 18.109375 54.6875 
L 18.109375 46.1875 
Q 20.953125 51.171875 25.484375 53.578125 
Q 30.03125 56 36.53125 56 
Q 37.453125 56 38.578125 55.875 
Q 39.703125 55.765625 41.0625 55.515625 
z
" id="DejaVuSans-114"/>
       <path d="M 48.78125 52.59375 
L 48.78125 44.1875 
Q 44.96875 46.296875 41.140625 47.34375 
Q 37.3125 48.390625 33.40625 48.390625 
Q 24.65625 48.390625 19.8125 42.84375 
Q 14.984375 37.3125 14.984375 27.296875 
Q 14.984375 17.28125 19.8125 11.734375 
Q 24.65625 6.203125 33.40625 6.203125 
Q 37.3125 6.203125 41.140625 7.25 
Q 44.96875 8.296875 48.78125 10.40625 
L 48.78125 2.09375 
Q 45.015625 0.34375 40.984375 -0.53125 
Q 36.96875 -1.421875 32.421875 -1.421875 
Q 20.0625 -1.421875 12.78125 6.34375 
Q 5.515625 14.109375 5.515625 27.296875 
Q 5.515625 40.671875 12.859375 48.328125 
Q 20.21875 56 33.015625 56 
Q 37.15625 56 41.109375 55.140625 
Q 45.0625 54.296875 48.78125 52.59375 
z
" id="DejaVuSans-99"/>
       <path d="M 18.3125 70.21875 
L 18.3125 54.6875 
L 36.8125 54.6875 
L 36.8125 47.703125 
L 18.3125 47.703125 
L 18.3125 18.015625 
Q 18.3125 11.328125 20.140625 9.421875 
Q 21.96875 7.515625 27.59375 7.515625 
L 36.8125 7.515625 
L 36.8125 0 
L 27.59375 0 
Q 17.1875 0 13.234375 3.875 
Q 9.28125 7.765625 9.28125 18.015625 
L 9.28125 47.703125 
L 2.6875 47.703125 
L 2.6875 54.6875 
L 9.28125 54.6875 
L 9.28125 70.21875 
z
" id="DejaVuSans-116"/>
       <path d="M 8.5 21.578125 
L 8.5 54.6875 
L 17.484375 54.6875 
L 17.484375 21.921875 
Q 17.484375 14.15625 20.5 10.265625 
Q 23.53125 6.390625 29.59375 6.390625 
Q 36.859375 6.390625 41.078125 11.03125 
Q 45.3125 15.671875 45.3125 23.6875 
L 45.3125 54.6875 
L 54.296875 54.6875 
L 54.296875 0 
L 45.3125 0 
L 45.3125 8.40625 
Q 42.046875 3.421875 37.71875 1 
Q 33.40625 -1.421875 27.6875 -1.421875 
Q 18.265625 -1.421875 13.375 4.4375 
Q 8.5 10.296875 8.5 21.578125 
z
M 31.109375 56 
z
" id="DejaVuSans-117"/>
       <path d="M 11.71875 12.40625 
L 22.015625 12.40625 
L 22.015625 4 
L 14.015625 -11.625 
L 7.71875 -11.625 
L 11.71875 4 
z
" id="DejaVuSans-44"/>
       <path d="M 18.109375 8.203125 
L 18.109375 -20.796875 
L 9.078125 -20.796875 
L 9.078125 54.6875 
L 18.109375 54.6875 
L 18.109375 46.390625 
Q 20.953125 51.265625 25.265625 53.625 
Q 29.59375 56 35.59375 56 
Q 45.5625 56 51.78125 48.09375 
Q 58.015625 40.1875 58.015625 27.296875 
Q 58.015625 14.40625 51.78125 6.484375 
Q 45.5625 -1.421875 35.59375 -1.421875 
Q 29.59375 -1.421875 25.265625 0.953125 
Q 20.953125 3.328125 18.109375 8.203125 
z
M 48.6875 27.296875 
Q 48.6875 37.203125 44.609375 42.84375 
Q 40.53125 48.484375 33.40625 48.484375 
Q 26.265625 48.484375 22.1875 42.84375 
Q 18.109375 37.203125 18.109375 27.296875 
Q 18.109375 17.390625 22.1875 11.75 
Q 26.265625 6.109375 33.40625 6.109375 
Q 40.53125 6.109375 44.609375 11.75 
Q 48.6875 17.390625 48.6875 27.296875 
z
" id="DejaVuSans-112"/>
      </defs>
      <use xlink:href="#DejaVuSans-70"/>
      <use x="50.269531" xlink:href="#DejaVuSans-114"/>
      <use x="91.382812" xlink:href="#DejaVuSans-97"/>
      <use x="152.662109" xlink:href="#DejaVuSans-99"/>
      <use x="207.642578" xlink:href="#DejaVuSans-116"/>
      <use x="246.851562" xlink:href="#DejaVuSans-105"/>
      <use x="274.634766" xlink:href="#DejaVuSans-111"/>
      <use x="335.816406" xlink:href="#DejaVuSans-110"/>
      <use x="399.195312" xlink:href="#DejaVuSans-32"/>
      <use x="430.982422" xlink:href="#DejaVuSans-111"/>
      <use x="492.164062" xlink:href="#DejaVuSans-102"/>
      <use x="527.369141" xlink:href="#DejaVuSans-32"/>
      <use x="559.15625" xlink:href="#DejaVuSans-102"/>
      <use x="594.361328" xlink:href="#DejaVuSans-117"/>
      <use x="657.740234" xlink:href="#DejaVuSans-110"/>
      <use x="721.119141" xlink:href="#DejaVuSans-99"/>
      <use x="776.099609" xlink:href="#DejaVuSans-116"/>
      <use x="815.308594" xlink:href="#DejaVuSans-105"/>
      <use x="843.091797" xlink:href="#DejaVuSans-111"/>
      <use x="904.273438" xlink:href="#DejaVuSans-110"/>
      <use x="967.652344" xlink:href="#DejaVuSans-44"/>
      <use x="999.439453" xlink:href="#DejaVuSans-116"/>
      <use x="1038.648438" xlink:href="#DejaVuSans-97"/>
      <use x="1099.927734" xlink:href="#DejaVuSans-114"/>
      <use x="1139.291016" xlink:href="#DejaVuSans-103"/>
      <use x="1202.767578" xlink:href="#DejaVuSans-101"/>
      <use x="1264.291016" xlink:href="#DejaVuSans-116"/>
      <use x="1303.5" xlink:href="#DejaVuSans-32"/>
      <use x="1335.287109" xlink:href="#DejaVuSans-112"/>
      <use x="1398.763672" xlink:href="#DejaVuSans-97"/>
      <use x="1460.042969" xlink:href="#DejaVuSans-105"/>
      <use x="1487.826172" xlink:href="#DejaVuSans-114"/>
      <use x="1528.939453" xlink:href="#DejaVuSans-115"/>
     </g>
    </g>
   </g>
   <g id="line2d_33">
    <defs>
     <path d="M 0 1.5 
C 0.397805 1.5 0.77937 1.341951 1.06066 1.06066 
C 1.341951 0.77937 1.5 0.397805 1.5 0 
C 1.5 -0.397805 1.341951 -0.77937 1.06066 -1.06066 
C 0.77937 -1.341951 0.397805 -1.5 0 -1.5 
C -0.397805 -1.5 -0.77937 -1.341951 -1.06066 -1.06066 
C -1.341951 -0.77937 -1.5 -0.397805 -1.5 0 
C -1.5 0.397805 -1.341951 0.77937 -1.06066 1.06066 
C -0.77937 1.341951 -0.397805 1.5 0 1.5 
z
" id="mc66049bc51" style="stroke:#f5deb3;"/>
    </defs>
    <g>
     <use style="fill:#f5deb3;stroke:#f5deb3;" x="151.340991" xlink:href="#mc66049bc51" y="30.334099"/>
     <use style="fill:#f5deb3;stroke:#f5deb3;" x="151.340991" xlink:href="#mc66049bc51" y="30.334099"/>
    </g>
   </g>
   <g id="line2d_34">
    <defs>
     <path d="M 0 1.5 
C 0.397805 1.5 0.77937 1.341951 1.06066 1.06066 
C 1.341951 0.77937 1.5 0.397805 1.5 0 
C 1.5 -0.397805 1.341951 -0.77937 1.06066 -1.06066 
C 0.77937 -1.341951 0.397805 -1.5 0 -1.5 
C -0.397805 -1.5 -0.77937 -1.341951 -1.06066 -1.06066 
C -1.341951 -0.77937 -1.5 -0.397805 -1.5 0 
C -1.5 0.397805 -1.341951 0.77937 -1.06066 1.06066 
C -0.77937 1.341951 -0.397805 1.5 0 1.5 
z
" id="m86784b309d" style="stroke:#000080;"/>
    </defs>
    <g>
     <use style="fill:#000080;stroke:#000080;" x="263.637419" xlink:href="#m86784b309d" y="30.334099"/>
     <use style="fill:#000080;stroke:#000080;" x="263.637419" xlink:href="#m86784b309d" y="30.334099"/>
    </g>
   </g>
   <g id="line2d_35">
    <path d="M 29.53256 298.944 
L 29.53256 289.990337 
L 41.620548 289.990337 
L 41.620548 289.463651 
L 48.691568 289.463651 
L 48.691568 288.936964 
L 53.708537 288.936964 
L 53.708537 287.883592 
L 60.779557 287.883592 
L 60.779557 287.356906 
L 67.850577 287.356906 
L 67.850577 286.83022 
L 69.687988 286.83022 
L 69.687988 286.303534 
L 71.35013 286.303534 
L 71.35013 285.250162 
L 72.867545 285.250162 
L 72.867545 284.19679 
L 76.759008 284.19679 
L 76.759008 283.670104 
L 80.881459 283.670104 
L 80.881459 282.616732 
L 81.775977 282.616732 
L 81.775977 282.090045 
L 82.626842 282.090045 
L 82.626842 281.036673 
L 86.351421 281.036673 
L 86.351421 276.823185 
L 88.846997 276.823185 
L 88.846997 275.769812 
L 92.969447 275.769812 
L 92.969447 274.71644 
L 93.422441 274.71644 
L 93.422441 274.189754 
L 99.097574 274.189754 
L 99.097574 273.663068 
L 101.785851 273.663068 
L 101.785851 273.136382 
L 102.859376 273.136382 
L 102.859376 272.609696 
L 104.592361 272.609696 
L 104.592361 272.08301 
L 105.285403 272.08301 
L 105.285403 271.556324 
L 106.593963 271.556324 
L 106.593963 271.029638 
L 109.843417 271.029638 
L 109.843417 270.502952 
L 110.016944 270.502952 
L 110.016944 269.976266 
L 111.346294 269.976266 
L 111.346294 269.449579 
L 112.72987 269.449579 
L 112.72987 268.922893 
L 116.680349 268.922893 
L 116.680349 268.396207 
L 117.373392 268.396207 
L 117.373392 267.869521 
L 118.681952 267.869521 
L 118.681952 267.342835 
L 119.996839 267.342835 
L 119.996839 266.816149 
L 120.47729 266.816149 
L 120.47729 266.289463 
L 121.219499 266.289463 
L 121.310093 265.236091 
L 122.531342 265.236091 
L 122.531342 264.709405 
L 122.865118 264.709405 
L 122.865118 264.182719 
L 123.111324 264.182719 
L 123.111324 263.656033 
L 123.751369 263.656033 
L 123.751369 263.129347 
L 124.139788 263.129347 
L 124.216444 262.075974 
L 124.594752 262.075974 
L 124.594752 261.549288 
L 124.891598 261.549288 
L 124.891598 261.022602 
L 125.752972 261.022602 
L 125.752972 260.495916 
L 127.985095 260.495916 
L 128.046609 259.442544 
L 130.664567 259.442544 
L 130.717333 258.389172 
L 131.888878 258.389172 
L 131.888878 257.862486 
L 132.374684 257.862486 
L 132.374684 257.3358 
L 134.149701 257.3358 
L 134.149701 256.809114 
L 134.407429 256.809114 
L 134.407429 256.282427 
L 137.307607 256.282427 
L 137.343676 255.229055 
L 140.529237 255.229055 
L 140.529237 254.702369 
L 145.998045 254.702369 
L 145.998045 254.175683 
L 146.150926 254.175683 
L 146.150926 253.648997 
L 146.60169 253.648997 
L 146.60169 253.122311 
L 147.061745 253.122311 
L 147.061745 252.595625 
L 147.226074 252.595625 
L 147.226074 252.068939 
L 148.083753 252.068939 
L 148.083753 251.542253 
L 148.582601 251.542253 
L 148.582601 251.015567 
L 149.25057 251.015567 
L 149.25057 250.488881 
L 149.431665 250.488881 
L 149.431665 249.435508 
L 149.557321 249.435508 
L 149.557321 248.908822 
L 150.103169 248.908822 
L 150.103169 248.382136 
L 150.463462 248.382136 
L 150.463462 247.85545 
L 151.357131 247.85545 
L 151.357131 247.328764 
L 152.068392 247.328764 
L 152.145659 246.275392 
L 152.405838 246.275392 
L 152.436193 245.22202 
L 152.855715 245.22202 
L 152.855715 244.695334 
L 153.032466 244.695334 
L 153.032466 244.168648 
L 153.323128 244.168648 
L 153.323128 243.641962 
L 153.48095 243.641962 
L 153.48095 243.115275 
L 153.609024 243.115275 
L 153.609024 242.588589 
L 155.399584 242.588589 
L 155.501643 241.535217 
L 155.590458 241.535217 
L 155.590458 241.008531 
L 155.841748 241.008531 
L 155.841748 240.481845 
L 156.077167 240.481845 
L 156.077167 239.428473 
L 156.514691 239.428473 
L 156.514691 238.901787 
L 156.764934 238.901787 
L 156.788581 237.848415 
L 157.335239 237.848415 
L 157.335239 237.321729 
L 157.44937 237.321729 
L 157.44937 236.795043 
L 157.574059 236.795043 
L 157.652944 235.214984 
L 158.476481 235.214984 
L 158.476481 234.161612 
L 158.83738 234.161612 
L 158.83738 233.10824 
L 159.046236 233.10824 
L 159.098062 232.054868 
L 159.221818 232.054868 
L 159.221818 231.528182 
L 159.39565 231.528182 
L 159.39565 231.001496 
L 159.597964 231.001496 
L 159.597964 230.47481 
L 159.768105 230.47481 
L 159.768105 229.948123 
L 159.976013 229.948123 
L 160.074152 228.894751 
L 160.403753 228.894751 
L 160.403753 227.841379 
L 160.670589 227.841379 
L 160.708377 226.788007 
L 161.465522 226.788007 
L 161.546656 225.734635 
L 161.600536 225.734635 
L 161.654251 224.681263 
L 161.832113 224.681263 
L 161.911563 223.627891 
L 206.137213 223.627891 
L 206.220011 215.200913 
L 206.249833 215.200913 
L 206.32727 209.407366 
L 206.386499 209.407366 
L 206.468808 207.827308 
L 206.647855 207.827308 
L 206.748483 205.193878 
L 206.790185 205.193878 
L 206.801602 203.613819 
L 206.902684 203.613819 
L 206.971964 197.820273 
L 207.029046 197.820273 
L 207.110364 190.973354 
L 207.172254 190.973354 
L 207.27971 188.339923 
L 207.296033 188.339923 
L 207.378066 182.546376 
L 207.440958 182.546376 
L 207.502333 180.439632 
L 218.224156 180.439632 
L 218.321183 170.432596 
L 218.337128 170.432596 
L 218.432152 165.165736 
L 218.507114 165.165736 
L 218.61657 161.478933 
L 218.618275 161.478933 
L 218.724326 153.051956 
L 218.748031 153.051956 
L 218.855317 146.731723 
L 218.885226 146.731723 
L 218.899658 144.624978 
L 225.295989 144.624978 
L 225.405376 137.778059 
L 225.433539 137.778059 
L 225.518673 134.091257 
L 225.557191 134.091257 
L 225.650384 128.29771 
L 225.679746 128.29771 
L 225.761425 124.610907 
L 230.310575 124.610907 
L 230.381579 118.817361 
L 230.440182 118.817361 
L 230.549063 111.970441 
L 230.557146 111.970441 
L 230.646325 105.123522 
L 234.202003 105.123522 
L 234.269116 99.856662 
L 234.326417 99.856662 
L 234.427242 94.589801 
L 234.444448 94.589801 
L 234.447337 93.536429 
L 237.381885 93.536429 
L 237.48805 86.68951 
L 237.525102 86.68951 
L 237.610104 82.476021 
L 240.071591 82.476021 
L 240.165892 76.155788 
L 240.183919 76.155788 
L 240.261657 68.782183 
L 242.414686 68.782183 
L 242.51986 65.09538 
L 242.541235 65.09538 
L 242.567678 62.988636 
L 244.454455 62.988636 
L 244.541806 59.301833 
L 244.572238 59.301833 
L 244.592624 57.195089 
L 246.318358 57.195089 
L 246.418284 51.928228 
L 247.959474 51.928228 
L 248.029817 49.294798 
L 248.076534 49.294798 
L 248.076534 48.768112 
L 249.490555 48.768112 
L 249.558929 44.027937 
L 250.86594 44.027937 
L 250.958998 39.287762 
L 252.214542 39.287762 
L 252.255614 37.707704 
L 253.369845 37.707704 
L 253.443544 36.127646 
L 254.557121 36.127646 
L 254.572095 35.074274 
L 255.587926 35.074274 
L 255.587926 34.547588 
L 256.546396 34.547588 
L 256.606068 32.967529 
L 258.394713 32.967529 
L 258.394713 32.440843 
L 259.259304 32.440843 
L 259.259304 31.914157 
L 260.055289 31.914157 
L 260.055289 31.387471 
L 262.991259 31.387471 
L 262.991259 30.860785 
L 263.637419 30.860785 
L 263.637419 30.334099 
L 338.688 30.334099 
L 338.688 30.334099 
" style="fill:none;stroke:#000080;stroke-linecap:square;stroke-width:1.5;"/>
   </g>
   <g id="line2d_36">
    <defs>
     <path d="M 0 6 
C 1.591219 6 3.117479 5.367802 4.242641 4.242641 
C 5.367802 3.117479 6 1.591219 6 0 
C 6 -1.591219 5.367802 -3.117479 4.242641 -4.242641 
C 3.117479 -5.367802 1.591219 -6 0 -6 
C -1.591219 -6 -3.117479 -5.367802 -4.242641 -4.242641 
C -5.367802 -3.117479 -6 -1.591219 -6 0 
C -6 1.591219 -5.367802 3.117479 -4.242641 4.242641 
C -3.117479 5.367802 -1.591219 6 0 6 
z
" id="mee7b0be7a3" style="stroke:#000080;stroke-width:1.5;"/>
    </defs>
    <g>
     <use style="fill-opacity:0;stroke:#000080;stroke-width:1.5;" x="121.310093" xlink:href="#mee7b0be7a3" y="265.236091"/>
     <use style="fill-opacity:0;stroke:#000080;stroke-width:1.5;" x="161.911563" xlink:href="#mee7b0be7a3" y="223.627891"/>
     <use style="fill-opacity:0;stroke:#000080;stroke-width:1.5;" x="234.447337" xlink:href="#mee7b0be7a3" y="94.063115"/>
     <use style="fill-opacity:0;stroke:#000080;stroke-width:1.5;" x="263.637419" xlink:href="#mee7b0be7a3" y="30.334099"/>
     <use style="fill-opacity:0;stroke:#000080;stroke-width:1.5;" x="263.637419" xlink:href="#mee7b0be7a3" y="30.334099"/>
     <use style="fill-opacity:0;stroke:#000080;stroke-width:1.5;" x="338.688" xlink:href="#mee7b0be7a3" y="30.334099"/>
    </g>
   </g>
   <g id="line2d_37">
    <path style="fill:none;stroke:#000080;stroke-linecap:square;stroke-width:1.5;"/>
    <g/>
   </g>
   <g id="line2d_38">
    <path clip-path="url(#pd4b47de936)" d="M 206.134423 223.627891 
" style="fill:none;stroke:#000080;stroke-linecap:square;stroke-width:1.5;"/>
    <defs>
     <path d="M -12 12 
L 12 -12 
M -12 -12 
L 12 12 
" id="m78fd5783d1" style="stroke:#000080;"/>
    </defs>
    <g clip-path="url(#pd4b47de936)">
     <use style="fill:#000080;stroke:#000080;" x="206.134423" xlink:href="#m78fd5783d1" y="223.627891"/>
    </g>
   </g>
   <g id="line2d_39">
    <defs>
     <path d="M 0 1.5 
C 0.397805 1.5 0.77937 1.341951 1.06066 1.06066 
C 1.341951 0.77937 1.5 0.397805 1.5 0 
C 1.5 -0.397805 1.341951 -0.77937 1.06066 -1.06066 
C 0.77937 -1.341951 0.397805 -1.5 0 -1.5 
C -0.397805 -1.5 -0.77937 -1.341951 -1.06066 -1.06066 
C -1.341951 -0.77937 -1.5 -0.397805 -1.5 0 
C -1.5 0.397805 -1.341951 0.77937 -1.06066 1.06066 
C -0.77937 1.341951 -0.397805 1.5 0 1.5 
z
" id="m74ff15a587" style="stroke:#ff00ff;"/>
    </defs>
    <g>
     <use style="fill:#ff00ff;stroke:#ff00ff;" x="264.270942" xlink:href="#m74ff15a587" y="30.334099"/>
     <use style="fill:#ff00ff;stroke:#ff00ff;" x="264.270942" xlink:href="#m74ff15a587" y="30.334099"/>
    </g>
   </g>
   <g id="line2d_40">
    <path d="M 29.53256 298.944 
L 29.53256 289.463651 
L 53.708537 289.463651 
L 53.708537 288.936964 
L 57.6 288.936964 
L 57.6 288.410278 
L 60.779557 288.410278 
L 60.779557 287.883592 
L 72.867545 287.883592 
L 72.867545 287.356906 
L 74.263433 287.356906 
L 74.263433 286.303534 
L 82.626842 286.303534 
L 82.626842 285.776848 
L 83.438118 285.776848 
L 83.438118 285.250162 
L 84.213325 285.250162 
L 84.213325 284.19679 
L 87.643811 284.19679 
L 87.643811 283.143418 
L 88.255778 283.143418 
L 88.255778 280.509987 
L 90.509138 280.509987 
L 90.509138 278.929929 
L 92.504372 278.929929 
L 92.504372 278.403243 
L 95.125186 278.403243 
L 95.125186 277.876557 
L 98.43941 277.876557 
L 98.43941 277.349871 
L 99.097574 277.349871 
L 99.097574 276.823185 
L 100.934985 276.823185 
L 100.934985 276.296499 
L 101.785851 276.296499 
L 101.785851 275.769812 
L 102.859376 275.769812 
L 102.859376 275.243126 
L 103.623262 275.243126 
L 103.623262 274.71644 
L 104.355088 274.71644 
L 104.355088 274.189754 
L 104.826449 274.189754 
L 104.826449 273.663068 
L 106.382575 273.663068 
L 106.382575 271.556324 
L 106.802819 271.556324 
L 106.802819 271.029638 
L 107.213174 271.029638 
L 107.213174 270.502952 
L 110.188761 270.502952 
L 110.188761 269.976266 
L 113.311233 269.976266 
L 113.311233 269.449579 
L 118.681952 269.449579 
L 118.681952 268.396207 
L 119.40226 268.396207 
L 119.40226 267.869521 
L 122.018385 267.869521 
L 122.018385 267.342835 
L 122.615387 267.342835 
L 122.615387 266.816149 
L 123.273551 266.816149 
L 123.273551 266.289463 
L 123.514096 266.289463 
L 123.514096 265.762777 
L 124.519744 265.762777 
L 124.594752 264.709405 
L 125.110962 264.709405 
L 125.110962 264.182719 
L 125.752972 264.182719 
L 125.752972 263.656033 
L 126.168212 263.656033 
L 126.236468 262.60266 
L 126.50685 262.60266 
L 126.573795 261.549288 
L 127.736845 261.549288 
L 127.736845 261.022602 
L 129.686407 261.022602 
L 129.686407 260.495916 
L 130.018593 260.495916 
L 130.073348 259.442544 
L 132.70687 259.442544 
L 132.80063 257.862486 
L 133.931979 257.862486 
L 133.931979 257.3358 
L 134.407429 257.3358 
L 134.407429 256.809114 
L 134.745246 256.809114 
L 134.745246 256.282427 
L 136.189322 256.282427 
L 136.189322 255.755741 
L 139.381706 255.755741 
L 139.381706 255.229055 
L 142.566605 255.229055 
L 142.566605 254.702369 
L 143.273169 254.702369 
L 143.273169 254.175683 
L 146.958248 254.175683 
L 146.958248 253.648997 
L 147.907696 253.648997 
L 147.907696 253.122311 
L 148.044783 253.122311 
L 148.044783 252.595625 
L 148.200145 252.595625 
L 148.200145 252.068939 
L 148.639252 252.068939 
L 148.639252 251.542253 
L 148.919783 251.542253 
L 148.919783 251.015567 
L 150.632448 251.015567 
L 150.632448 250.488881 
L 151.469695 250.488881 
L 151.469695 249.962195 
L 152.145659 249.962195 
L 152.145659 249.435508 
L 152.511852 249.435508 
L 152.511852 248.908822 
L 153.395042 248.908822 
L 153.395042 248.382136 
L 154.453136 248.382136 
L 154.480132 247.328764 
L 154.57429 247.328764 
L 154.57429 246.275392 
L 155.076745 246.275392 
L 155.076745 245.748706 
L 155.373976 245.748706 
L 155.373976 245.22202 
L 155.527065 245.22202 
L 155.527065 244.695334 
L 155.653621 244.695334 
L 155.653621 243.641962 
L 156.988292 243.641962 
L 156.988292 243.115275 
L 157.551454 243.115275 
L 157.641697 242.061903 
L 157.887482 242.061903 
L 157.887482 241.535217 
L 158.118907 241.535217 
L 158.217157 239.428473 
L 158.325678 239.428473 
L 158.390468 238.375101 
L 158.647247 238.375101 
L 158.710855 237.321729 
L 158.83738 237.321729 
L 158.83738 236.795043 
L 159.385473 236.795043 
L 159.385473 236.268356 
L 159.497101 236.268356 
L 159.497101 235.74167 
L 159.618067 235.74167 
L 159.698248 234.161612 
L 160.432539 234.161612 
L 160.528149 233.10824 
L 160.727241 233.10824 
L 160.727241 232.581554 
L 160.886762 232.581554 
L 160.886762 232.054868 
L 161.091058 232.054868 
L 161.091058 231.528182 
L 161.26559 231.528182 
L 161.26559 231.001496 
L 161.447441 231.001496 
L 161.447441 230.47481 
L 161.64531 230.47481 
L 161.64531 229.948123 
L 161.814408 229.948123 
L 161.814408 229.421437 
L 162.02569 229.421437 
L 162.051921 228.368065 
L 162.449267 228.368065 
L 162.449267 227.314693 
L 162.720437 227.314693 
L 162.754039 226.261321 
L 163.517565 226.261321 
L 163.597709 224.681263 
L 163.645619 224.681263 
L 163.701348 223.627891 
L 163.883215 223.627891 
L 163.883215 223.101204 
L 164.478629 223.101204 
L 164.478629 222.574518 
L 206.136516 222.574518 
L 206.231807 215.200913 
L 206.275453 215.200913 
L 206.32934 210.987425 
L 206.392685 210.987425 
L 206.453062 208.88068 
L 206.5105 208.88068 
L 206.585432 207.300622 
L 206.712081 207.300622 
L 206.7922 204.667192 
L 206.842507 204.667192 
L 206.923363 201.507075 
L 207.009818 201.507075 
L 207.07471 195.713528 
L 207.147261 195.713528 
L 207.245056 192.553412 
L 207.267949 192.553412 
L 207.311688 189.919981 
L 207.380664 189.919981 
L 207.475225 185.179807 
L 207.504912 185.179807 
L 207.602651 181.493004 
L 207.617393 181.493004 
L 207.666656 180.439632 
L 218.225551 180.439632 
L 218.334356 168.852538 
L 218.36863 168.852538 
L 218.412154 166.745794 
L 218.581755 166.745794 
L 218.671381 163.585677 
L 218.763591 163.585677 
L 218.863051 157.265444 
L 218.886569 157.265444 
L 218.972641 154.105328 
L 225.297849 154.105328 
L 225.401217 143.571606 
L 225.420617 143.571606 
L 225.512015 139.884804 
L 225.600195 139.884804 
L 225.695658 134.091257 
L 225.71269 134.091257 
L 225.820179 126.717652 
L 230.316851 126.717652 
L 230.406397 121.450791 
L 230.429967 121.450791 
L 230.537018 117.763988 
L 230.551299 117.763988 
L 230.648548 110.917069 
L 230.669744 110.917069 
L 230.694155 109.337011 
L 234.207164 109.337011 
L 234.267171 105.123522 
L 234.326556 105.123522 
L 234.433025 102.490092 
L 234.441696 102.490092 
L 234.511185 99.856662 
L 237.391299 99.856662 
L 237.492903 91.429684 
L 237.508837 91.429684 
L 237.613316 85.109451 
L 237.622721 85.109451 
L 237.622721 84.582765 
L 240.072388 84.582765 
L 240.169558 81.422649 
L 240.209541 81.422649 
L 240.291593 75.102416 
L 242.402312 75.102416 
L 242.51016 70.888927 
L 242.529469 70.888927 
L 242.588045 65.622066 
L 244.454843 65.622066 
L 244.537951 62.46195 
L 244.572931 62.46195 
L 244.622046 59.301833 
L 246.291596 59.301833 
L 246.379604 54.034973 
L 246.411912 54.034973 
L 246.435586 52.454914 
L 247.966128 52.454914 
L 248.072756 48.768112 
L 249.480856 48.768112 
L 249.591169 44.027937 
L 250.879134 44.027937 
L 250.968762 41.394507 
L 252.165656 41.394507 
L 252.241587 38.761076 
L 253.375235 38.761076 
L 253.468611 36.654332 
L 254.489036 36.654332 
L 254.489036 36.127646 
L 255.553882 36.127646 
L 255.553882 35.60096 
L 256.620771 35.60096 
L 256.620771 35.074274 
L 257.491067 35.074274 
L 257.533766 34.020902 
L 258.393772 34.020902 
L 258.42347 32.967529 
L 259.274484 32.967529 
L 259.274484 32.440843 
L 260.074128 32.440843 
L 260.075488 31.387471 
L 261.609171 31.387471 
L 261.609171 30.860785 
L 264.270942 30.860785 
L 264.270942 30.334099 
L 338.688 30.334099 
L 338.688 30.334099 
" style="fill:none;stroke:#ff00ff;stroke-linecap:square;stroke-width:1.5;"/>
   </g>
   <g id="line2d_41">
    <defs>
     <path d="M -0 8.485281 
L 5.091169 0 
L 0 -8.485281 
L -5.091169 -0 
z
" id="m6b86270d6c" style="stroke:#ff00ff;stroke-linejoin:miter;stroke-width:1.5;"/>
    </defs>
    <g>
     <use style="fill-opacity:0;stroke:#ff00ff;stroke-linejoin:miter;stroke-width:1.5;" x="123.273551" xlink:href="#m6b86270d6c" y="266.816149"/>
     <use style="fill-opacity:0;stroke:#ff00ff;stroke-linejoin:miter;stroke-width:1.5;" x="164.478629" xlink:href="#m6b86270d6c" y="222.574518"/>
     <use style="fill-opacity:0;stroke:#ff00ff;stroke-linejoin:miter;stroke-width:1.5;" x="230.406397" xlink:href="#m6b86270d6c" y="121.450791"/>
     <use style="fill-opacity:0;stroke:#ff00ff;stroke-linejoin:miter;stroke-width:1.5;" x="264.270942" xlink:href="#m6b86270d6c" y="30.860785"/>
     <use style="fill-opacity:0;stroke:#ff00ff;stroke-linejoin:miter;stroke-width:1.5;" x="264.270942" xlink:href="#m6b86270d6c" y="30.334099"/>
     <use style="fill-opacity:0;stroke:#ff00ff;stroke-linejoin:miter;stroke-width:1.5;" x="338.688" xlink:href="#m6b86270d6c" y="30.334099"/>
    </g>
   </g>
   <g id="line2d_42">
    <path style="fill:none;stroke:#ff00ff;stroke-linecap:square;stroke-width:1.5;"/>
    <g/>
   </g>
   <g id="line2d_43">
    <path clip-path="url(#pd4b47de936)" d="M 206.135818 222.574518 
" style="fill:none;stroke:#ff00ff;stroke-linecap:square;stroke-width:1.5;"/>
    <defs>
     <path d="M -12 12 
L 12 -12 
M -12 -12 
L 12 12 
" id="m45e273124e" style="stroke:#ff00ff;"/>
    </defs>
    <g clip-path="url(#pd4b47de936)">
     <use style="fill:#ff00ff;stroke:#ff00ff;" x="206.135818" xlink:href="#m45e273124e" y="222.574518"/>
    </g>
   </g>
   <g id="line2d_44">
    <defs>
     <path d="M 0 1.5 
C 0.397805 1.5 0.77937 1.341951 1.06066 1.06066 
C 1.341951 0.77937 1.5 0.397805 1.5 0 
C 1.5 -0.397805 1.341951 -0.77937 1.06066 -1.06066 
C 0.77937 -1.341951 0.397805 -1.5 0 -1.5 
C -0.397805 -1.5 -0.77937 -1.341951 -1.06066 -1.06066 
C -1.341951 -0.77937 -1.5 -0.397805 -1.5 0 
C -1.5 0.397805 -1.341951 0.77937 -1.06066 1.06066 
C -0.77937 1.341951 -0.397805 1.5 0 1.5 
z
" id="me07e0a3bb0" style="stroke:#ff7500;"/>
    </defs>
    <g>
     <use style="fill:#ff7500;stroke:#ff7500;" x="263.642372" xlink:href="#me07e0a3bb0" y="30.334099"/>
     <use style="fill:#ff7500;stroke:#ff7500;" x="263.642372" xlink:href="#me07e0a3bb0" y="30.334099"/>
    </g>
   </g>
   <g id="line2d_45">
    <path d="M 29.53256 298.944 
L 29.53256 289.990337 
L 41.620548 289.990337 
L 41.620548 289.463651 
L 48.691568 289.463651 
L 48.691568 288.936964 
L 53.708537 288.936964 
L 53.708537 287.883592 
L 60.779557 287.883592 
L 60.779557 287.356906 
L 67.850577 287.356906 
L 67.850577 286.83022 
L 69.687988 286.83022 
L 69.687988 286.303534 
L 72.867545 286.303534 
L 72.867545 284.723476 
L 80.881459 284.723476 
L 80.881459 283.670104 
L 82.626842 283.670104 
L 82.626842 282.616732 
L 86.351421 282.616732 
L 86.351421 281.036673 
L 88.846997 281.036673 
L 88.846997 279.456615 
L 92.969447 279.456615 
L 92.969447 278.403243 
L 99.097574 278.403243 
L 99.097574 277.876557 
L 100.040467 277.876557 
L 100.040467 277.349871 
L 102.859376 277.349871 
L 102.859376 276.296499 
L 104.592361 276.296499 
L 104.592361 275.769812 
L 104.826449 275.769812 
L 104.826449 275.243126 
L 106.593963 275.243126 
L 106.593963 274.71644 
L 107.213174 274.71644 
L 107.213174 274.189754 
L 110.016944 274.189754 
L 110.016944 273.663068 
L 111.505558 273.663068 
L 111.505558 272.609696 
L 113.594805 272.609696 
L 113.594805 272.08301 
L 116.797786 272.08301 
L 116.797786 271.029638 
L 117.486268 271.029638 
L 117.486268 270.502952 
L 120.093994 270.502952 
L 120.093994 269.976266 
L 120.571812 269.976266 
L 120.571812 269.449579 
L 120.852343 269.449579 
L 120.852343 268.922893 
L 121.310093 268.922893 
L 121.310093 268.396207 
L 121.579085 268.396207 
L 121.579085 267.869521 
L 121.84399 267.869521 
L 121.84399 267.342835 
L 122.615387 267.342835 
L 122.699028 266.289463 
L 123.029641 266.289463 
L 123.029641 265.762777 
L 123.273551 265.762777 
L 123.273551 265.236091 
L 123.907776 265.236091 
L 123.907776 264.709405 
L 124.292765 264.709405 
L 124.292765 264.182719 
L 124.669438 264.182719 
L 124.669438 263.129347 
L 125.038147 263.129347 
L 125.038147 262.60266 
L 125.892487 262.60266 
L 125.892487 262.075974 
L 126.099688 262.075974 
L 126.099688 261.549288 
L 128.107907 261.549288 
L 128.168991 260.495916 
L 130.874681 260.495916 
L 130.926816 259.442544 
L 132.036046 259.442544 
L 132.036046 258.915858 
L 132.517825 258.915858 
L 132.517825 258.389172 
L 132.847322 258.389172 
L 132.847322 257.862486 
L 134.534878 257.862486 
L 134.534878 257.3358 
L 137.451437 257.3358 
L 137.48721 256.282427 
L 141.378673 256.282427 
L 141.378673 255.755741 
L 145.074639 255.755741 
L 145.074639 255.229055 
L 146.150926 255.229055 
L 146.150926 254.702369 
L 146.302479 254.702369 
L 146.302479 254.175683 
L 146.749392 254.175683 
L 146.749392 253.648997 
L 147.041095 253.648997 
L 147.041095 253.122311 
L 147.226074 253.122311 
L 147.226074 252.595625 
L 148.695721 252.595625 
L 148.733265 251.542253 
L 149.413639 251.542253 
L 149.413639 251.015567 
L 149.593058 251.015567 
L 149.593058 249.962195 
L 149.717561 249.962195 
L 149.717561 249.435508 
L 150.615623 249.435508 
L 150.615623 248.908822 
L 152.222586 248.908822 
L 152.299175 247.85545 
L 152.481628 247.85545 
L 152.572143 246.802078 
L 152.602211 246.802078 
L 152.692105 245.22202 
L 153.48095 245.22202 
L 153.48095 244.695334 
L 153.637357 244.695334 
L 153.637357 244.168648 
L 153.764292 244.168648 
L 153.764292 243.115275 
L 153.918189 243.115275 
L 153.918189 242.588589 
L 154.945917 242.588589 
L 154.945917 242.061903 
L 155.102793 242.061903 
L 155.102793 241.535217 
L 155.754208 241.535217 
L 155.754208 241.008531 
L 156.003167 241.008531 
L 156.003167 240.481845 
L 156.236431 240.481845 
L 156.236431 238.901787 
L 156.502685 238.901787 
L 156.502685 238.375101 
L 156.670026 238.375101 
L 156.764934 237.321729 
L 156.92979 237.321729 
L 156.953214 235.74167 
L 157.1279 235.74167 
L 157.1279 235.214984 
L 157.574059 235.214984 
L 157.60791 234.161612 
L 157.731474 234.161612 
L 157.809652 233.10824 
L 158.636623 233.10824 
L 158.636623 232.581554 
L 158.83738 232.581554 
L 158.83738 232.054868 
L 158.994256 232.054868 
L 158.994256 231.528182 
L 159.211539 231.528182 
L 159.262876 230.47481 
L 159.385473 230.47481 
L 159.385473 229.948123 
L 159.557689 229.948123 
L 159.557689 229.421437 
L 159.758143 229.421437 
L 159.758143 228.894751 
L 159.926735 228.894751 
L 159.926735 228.368065 
L 160.171742 228.368065 
L 160.239731 227.314693 
L 160.566247 227.314693 
L 160.566247 226.261321 
L 160.830627 226.261321 
L 160.86807 224.681263 
L 161.627414 224.681263 
L 161.7078 223.101204 
L 161.761186 223.101204 
L 161.761186 222.574518 
L 161.990653 222.574518 
L 162.078112 221.521146 
L 162.593851 221.521146 
L 162.593851 220.99446 
L 206.141397 220.99446 
L 206.215151 210.987425 
L 206.254683 210.987425 
L 206.332788 205.193878 
L 206.397496 205.193878 
L 206.47565 203.087133 
L 206.542556 203.087133 
L 206.542556 202.560447 
L 206.693852 202.560447 
L 206.800259 197.820273 
L 206.806972 197.820273 
L 206.91336 194.13347 
L 206.928696 194.13347 
L 206.990569 190.973354 
L 207.04097 190.973354 
L 207.146603 185.706493 
L 207.178825 185.706493 
L 207.247019 182.01969 
L 207.305167 182.01969 
L 207.37222 178.859574 
L 207.45131 178.859574 
L 207.479746 177.279515 
L 218.23078 177.279515 
L 218.326037 167.27248 
L 218.342671 167.27248 
L 218.42974 165.165736 
L 218.501967 165.165736 
L 218.602925 159.372189 
L 218.618275 159.372189 
L 218.725681 151.998584 
L 218.730425 151.998584 
L 218.808166 147.785095 
L 218.842868 147.785095 
L 218.892947 141.464862 
L 225.300406 141.464862 
L 225.39174 134.617943 
L 225.433308 134.617943 
L 225.523263 129.877768 
L 225.574588 129.877768 
L 225.652889 127.771024 
L 225.699747 127.771024 
L 225.756218 124.084221 
L 230.315457 124.084221 
L 230.379668 117.763988 
L 230.46267 117.763988 
L 230.572442 110.917069 
L 230.585321 110.917069 
L 230.657953 103.016778 
L 234.206606 103.016778 
L 234.31755 96.169859 
L 234.325725 96.169859 
L 234.407399 92.483056 
L 234.445686 92.483056 
L 234.482654 89.849626 
L 237.388627 89.849626 
L 237.485392 86.162824 
L 237.505605 86.162824 
L 237.612284 82.476021 
L 240.083941 82.476021 
L 240.187186 74.049044 
L 240.21389 74.049044 
L 240.277813 70.888927 
L 242.40484 70.888927 
L 242.490829 66.148752 
L 242.517955 66.148752 
L 242.575966 61.935264 
L 244.465843 61.935264 
L 244.570467 56.668403 
L 244.585934 56.668403 
L 244.585934 56.141717 
L 246.294316 56.141717 
L 246.402836 48.768112 
L 246.429359 48.768112 
L 246.430397 47.71474 
L 247.957826 47.71474 
L 248.046602 45.607995 
L 248.082452 45.607995 
L 248.082452 45.081309 
L 249.479404 45.081309 
L 249.558582 41.921193 
L 250.931651 41.921193 
L 250.952272 40.867821 
L 252.176111 40.867821 
L 252.260667 38.761076 
L 253.36594 38.761076 
L 253.448495 37.707704 
L 254.506551 37.707704 
L 254.506856 36.654332 
L 255.595374 36.654332 
L 255.615 35.60096 
L 256.544807 35.60096 
L 256.544807 35.074274 
L 257.494112 35.074274 
L 257.53922 32.967529 
L 258.425626 32.967529 
L 258.425626 32.440843 
L 259.291471 32.440843 
L 259.291471 31.914157 
L 260.055479 31.914157 
L 260.103058 30.860785 
L 263.642372 30.860785 
L 263.642372 30.334099 
L 338.688 30.334099 
L 338.688 30.334099 
" style="fill:none;stroke:#ff7500;stroke-linecap:square;stroke-width:1.5;"/>
   </g>
   <g id="line2d_46">
    <defs>
     <path d="M 0 -6 
L -1.347084 -1.854102 
L -5.706339 -1.854102 
L -2.179628 0.708204 
L -3.526712 4.854102 
L -0 2.291796 
L 3.526712 4.854102 
L 2.179628 0.708204 
L 5.706339 -1.854102 
L 1.347084 -1.854102 
z
" id="m829e5bba47" style="stroke:#ff7500;stroke-linejoin:bevel;stroke-width:1.5;"/>
    </defs>
    <g>
     <use style="fill-opacity:0;stroke:#ff7500;stroke-linejoin:bevel;stroke-width:1.5;" x="141.378673" xlink:href="#m829e5bba47" y="255.755741"/>
     <use style="fill-opacity:0;stroke:#ff7500;stroke-linejoin:bevel;stroke-width:1.5;" x="206.15673" xlink:href="#m829e5bba47" y="219.414402"/>
     <use style="fill-opacity:0;stroke:#ff7500;stroke-linejoin:bevel;stroke-width:1.5;" x="240.277813" xlink:href="#m829e5bba47" y="71.415613"/>
     <use style="fill-opacity:0;stroke:#ff7500;stroke-linejoin:bevel;stroke-width:1.5;" x="263.642372" xlink:href="#m829e5bba47" y="30.334099"/>
     <use style="fill-opacity:0;stroke:#ff7500;stroke-linejoin:bevel;stroke-width:1.5;" x="263.642372" xlink:href="#m829e5bba47" y="30.334099"/>
     <use style="fill-opacity:0;stroke:#ff7500;stroke-linejoin:bevel;stroke-width:1.5;" x="338.688" xlink:href="#m829e5bba47" y="30.334099"/>
    </g>
   </g>
   <g id="line2d_47">
    <path style="fill:none;stroke:#ff7500;stroke-linecap:square;stroke-width:1.5;"/>
    <g/>
   </g>
   <g id="line2d_48">
    <path clip-path="url(#pd4b47de936)" d="M 206.138608 220.99446 
" style="fill:none;stroke:#ff7500;stroke-linecap:square;stroke-width:1.5;"/>
    <defs>
     <path d="M -12 12 
L 12 -12 
M -12 -12 
L 12 12 
" id="ma9e5bd6dc4" style="stroke:#ff7500;"/>
    </defs>
    <g clip-path="url(#pd4b47de936)">
     <use style="fill:#ff7500;stroke:#ff7500;" x="206.138608" xlink:href="#ma9e5bd6dc4" y="220.99446"/>
    </g>
   </g>
   <g id="line2d_49">
    <defs>
     <path d="M 0 1.5 
C 0.397805 1.5 0.77937 1.341951 1.06066 1.06066 
C 1.341951 0.77937 1.5 0.397805 1.5 0 
C 1.5 -0.397805 1.341951 -0.77937 1.06066 -1.06066 
C 0.77937 -1.341951 0.397805 -1.5 0 -1.5 
C -0.397805 -1.5 -0.77937 -1.341951 -1.06066 -1.06066 
C -1.341951 -0.77937 -1.5 -0.397805 -1.5 0 
C -1.5 0.397805 -1.341951 0.77937 -1.06066 1.06066 
C -0.77937 1.341951 -0.397805 1.5 0 1.5 
z
" id="m3bd830f2c6" style="stroke:#6495ed;"/>
    </defs>
    <g>
     <use style="fill:#6495ed;stroke:#6495ed;" x="262.960285" xlink:href="#m3bd830f2c6" y="30.334099"/>
     <use style="fill:#6495ed;stroke:#6495ed;" x="262.960285" xlink:href="#m3bd830f2c6" y="30.334099"/>
    </g>
   </g>
   <g id="line2d_50">
    <path d="M 29.53256 298.944 
L 29.53256 289.990337 
L 41.620548 289.990337 
L 41.620548 289.463651 
L 48.691568 289.463651 
L 48.691568 288.410278 
L 53.708537 288.410278 
L 53.708537 287.883592 
L 57.6 287.883592 
L 57.6 287.356906 
L 72.867545 287.356906 
L 72.867545 286.303534 
L 74.263433 286.303534 
L 74.263433 285.250162 
L 77.884514 285.250162 
L 77.884514 284.723476 
L 79.938565 284.723476 
L 79.938565 283.670104 
L 80.881459 283.670104 
L 80.881459 283.143418 
L 82.626842 283.143418 
L 82.626842 282.616732 
L 84.213325 282.616732 
L 84.213325 281.563359 
L 88.846997 281.563359 
L 88.846997 281.036673 
L 91.029752 281.036673 
L 91.029752 279.983301 
L 93.863965 279.983301 
L 93.863965 279.456615 
L 94.714831 279.456615 
L 94.714831 278.403243 
L 95.125186 278.403243 
L 95.125186 277.876557 
L 98.771596 277.876557 
L 98.771596 277.349871 
L 100.343767 277.349871 
L 100.343767 276.823185 
L 101.785851 276.823185 
L 101.785851 276.296499 
L 102.330873 276.296499 
L 102.330873 274.71644 
L 102.597126 274.71644 
L 102.597126 274.189754 
L 103.117741 274.189754 
L 103.117741 271.556324 
L 104.826449 271.556324 
L 104.826449 271.029638 
L 105.951954 271.029638 
L 105.951954 270.502952 
L 109.668146 270.502952 
L 109.668146 269.976266 
L 110.358901 269.976266 
L 110.358901 269.449579 
L 116.680349 269.449579 
L 116.680349 268.396207 
L 118.681952 268.396207 
L 118.681952 267.869521 
L 118.994305 267.869521 
L 118.994305 267.342835 
L 120.47729 267.342835 
L 120.571812 266.289463 
L 122.276749 266.289463 
L 122.276749 265.762777 
L 122.782271 265.762777 
L 122.782271 265.236091 
L 123.434283 265.236091 
L 123.434283 264.182719 
L 125.038147 264.182719 
L 125.038147 263.129347 
L 125.183475 263.129347 
L 125.183475 262.60266 
L 125.327602 262.60266 
L 125.327602 262.075974 
L 126.573795 262.075974 
L 126.573795 261.549288 
L 128.168991 261.549288 
L 128.168991 261.022602 
L 128.531065 261.022602 
L 128.531065 260.495916 
L 129.290685 260.495916 
L 129.290685 259.442544 
L 129.574256 259.442544 
L 129.574256 258.915858 
L 129.908566 258.915858 
L 129.908566 258.389172 
L 130.236587 258.389172 
L 130.236587 257.862486 
L 130.76994 257.862486 
L 130.822389 256.809114 
L 131.839545 256.809114 
L 131.839545 256.282427 
L 133.216421 256.282427 
L 133.216421 255.755741 
L 133.57787 255.755741 
L 133.622529 254.702369 
L 134.192921 254.702369 
L 134.192921 254.175683 
L 134.407429 254.175683 
L 134.407429 253.648997 
L 134.994383 253.648997 
L 134.994383 253.122311 
L 136.034648 253.122311 
L 136.034648 252.595625 
L 137.053015 252.595625 
L 137.053015 252.068939 
L 138.01518 252.068939 
L 138.01518 251.542253 
L 144.653267 251.542253 
L 144.653267 251.015567 
L 144.981877 251.015567 
L 144.981877 250.488881 
L 147.550159 250.488881 
L 147.550159 249.962195 
L 147.769524 249.962195 
L 147.769524 249.435508 
L 147.96658 249.435508 
L 148.005725 248.382136 
L 148.142046 248.382136 
L 148.142046 247.328764 
L 148.354135 247.328764 
L 148.449693 246.275392 
L 148.752007 246.275392 
L 148.845415 244.695334 
L 148.901221 244.695334 
L 148.901221 244.168648 
L 149.214124 244.168648 
L 149.305096 243.115275 
L 149.593058 243.115275 
L 149.610898 240.481845 
L 149.928949 240.481845 
L 149.963932 239.428473 
L 150.103169 239.428473 
L 150.103169 238.375101 
L 150.241302 238.375101 
L 150.241302 237.321729 
L 150.649257 237.321729 
L 150.649257 236.795043 
L 150.866312 236.795043 
L 150.866312 233.10824 
L 151.0643 233.10824 
L 151.0643 232.581554 
L 151.260066 232.581554 
L 151.260066 231.528182 
L 151.389366 231.528182 
L 151.389366 231.001496 
L 151.597455 231.001496 
L 151.597455 228.368065 
L 152.176471 228.368065 
L 152.26858 225.207949 
L 152.360205 225.207949 
L 152.360205 224.154577 
L 153.047115 224.154577 
L 153.13475 223.101204 
L 153.552218 223.101204 
L 153.552218 221.521146 
L 154.056927 221.521146 
L 154.139643 219.941088 
L 154.358321 219.941088 
L 154.453136 217.834344 
L 154.614488 217.834344 
L 154.641235 215.200913 
L 206.136516 215.200913 
L 206.220705 205.193878 
L 206.249833 205.193878 
L 206.357598 194.660156 
L 206.361041 194.660156 
L 206.437302 190.973354 
L 206.708707 190.973354 
L 206.802944 180.966318 
L 206.822401 180.966318 
L 206.911359 165.165736 
L 206.946016 165.165736 
L 207.021755 156.738758 
L 218.222761 156.738758 
L 218.332623 144.624978 
L 218.334356 144.624978 
L 218.396967 140.938176 
L 218.500937 140.938176 
L 218.600536 131.457826 
L 218.61316 131.457826 
L 218.671721 125.137593 
L 225.294594 125.137593 
L 225.39752 115.657244 
L 225.409996 115.657244 
L 225.519361 108.283639 
L 225.523492 108.283639 
L 225.593797 96.169859 
L 230.311272 96.169859 
L 230.397897 90.376312 
L 230.445028 90.376312 
L 230.536502 75.629102 
L 234.202561 75.629102 
L 234.258829 68.255497 
L 234.313808 68.255497 
L 234.382979 61.935264 
L 237.382932 61.935264 
L 237.486895 58.248461 
L 237.494751 58.248461 
L 237.523372 56.141717 
L 240.076173 56.141717 
L 240.182236 50.34817 
L 242.401789 50.34817 
L 242.502448 47.188054 
L 244.457477 47.188054 
L 244.550209 42.447879 
L 246.305679 42.447879 
L 246.368705 39.814448 
L 247.953134 39.814448 
L 248.032658 37.707704 
L 249.512139 37.707704 
L 249.544871 35.074274 
L 250.922882 35.074274 
L 250.922882 34.547588 
L 252.161422 34.547588 
L 252.222586 32.967529 
L 253.361104 32.967529 
L 253.361104 32.440843 
L 255.596928 32.440843 
L 255.596928 31.914157 
L 258.386941 31.914157 
L 258.386941 31.387471 
L 262.269889 31.387471 
L 262.269889 30.860785 
L 262.960285 30.860785 
L 262.960285 30.334099 
L 338.688 30.334099 
L 338.688 30.334099 
" style="fill:none;stroke:#6495ed;stroke-linecap:square;stroke-width:1.5;"/>
   </g>
   <g id="line2d_51">
    <defs>
     <path d="M -0 6 
L 6 -6 
L -6 -6 
z
" id="mec121dfbc5" style="stroke:#6495ed;stroke-linejoin:miter;stroke-width:1.5;"/>
    </defs>
    <g>
     <use style="fill-opacity:0;stroke:#6495ed;stroke-linejoin:miter;stroke-width:1.5;" x="95.125186" xlink:href="#mec121dfbc5" y="278.403243"/>
     <use style="fill-opacity:0;stroke:#6495ed;stroke-linejoin:miter;stroke-width:1.5;" x="154.641235" xlink:href="#mec121dfbc5" y="217.307658"/>
     <use style="fill-opacity:0;stroke:#6495ed;stroke-linejoin:miter;stroke-width:1.5;" x="225.3408" xlink:href="#mec121dfbc5" y="119.870733"/>
     <use style="fill-opacity:0;stroke:#6495ed;stroke-linejoin:miter;stroke-width:1.5;" x="262.960285" xlink:href="#mec121dfbc5" y="30.334099"/>
     <use style="fill-opacity:0;stroke:#6495ed;stroke-linejoin:miter;stroke-width:1.5;" x="262.960285" xlink:href="#mec121dfbc5" y="30.334099"/>
     <use style="fill-opacity:0;stroke:#6495ed;stroke-linejoin:miter;stroke-width:1.5;" x="338.688" xlink:href="#mec121dfbc5" y="30.334099"/>
    </g>
   </g>
   <g id="line2d_52">
    <path style="fill:none;stroke:#6495ed;stroke-linecap:square;stroke-width:1.5;"/>
    <g/>
   </g>
   <g id="line2d_53">
    <path clip-path="url(#pd4b47de936)" d="M 206.134423 215.200913 
" style="fill:none;stroke:#6495ed;stroke-linecap:square;stroke-width:1.5;"/>
    <defs>
     <path d="M -12 12 
L 12 -12 
M -12 -12 
L 12 12 
" id="m418472415d" style="stroke:#6495ed;"/>
    </defs>
    <g clip-path="url(#pd4b47de936)">
     <use style="fill:#6495ed;stroke:#6495ed;" x="206.134423" xlink:href="#m418472415d" y="215.200913"/>
    </g>
   </g>
   <g id="line2d_54">
    <path d="M 338.688 30.334099 
L 369.60768 293.571802 
" style="fill:none;stroke:#ff00ff;stroke-linecap:square;stroke-width:1.5;"/>
    <g>
     <use style="fill-opacity:0;stroke:#ff00ff;stroke-linejoin:miter;stroke-width:1.5;" x="338.688" xlink:href="#m6b86270d6c" y="30.334099"/>
     <use style="fill-opacity:0;stroke:#ff00ff;stroke-linejoin:miter;stroke-width:1.5;" x="369.60768" xlink:href="#m6b86270d6c" y="293.571802"/>
    </g>
   </g>
   <g id="line2d_55">
    <path d="M 338.688 30.334099 
L 369.60768 229.105426 
" style="fill:none;stroke:#ff7500;stroke-linecap:square;stroke-width:1.5;"/>
    <g>
     <use style="fill-opacity:0;stroke:#ff7500;stroke-linejoin:bevel;stroke-width:1.5;" x="338.688" xlink:href="#m829e5bba47" y="30.334099"/>
     <use style="fill-opacity:0;stroke:#ff7500;stroke-linejoin:bevel;stroke-width:1.5;" x="369.60768" xlink:href="#m829e5bba47" y="229.105426"/>
    </g>
   </g>
   <g id="line2d_56">
    <path d="M 338.688 30.334099 
L 369.60768 164.63905 
" style="fill:none;stroke:#000080;stroke-linecap:square;stroke-width:1.5;"/>
    <g>
     <use style="fill-opacity:0;stroke:#000080;stroke-width:1.5;" x="338.688" xlink:href="#mee7b0be7a3" y="30.334099"/>
     <use style="fill-opacity:0;stroke:#000080;stroke-width:1.5;" x="369.60768" xlink:href="#mee7b0be7a3" y="164.63905"/>
    </g>
   </g>
   <g id="line2d_57">
    <path d="M 338.688 30.334099 
L 369.60768 100.172673 
" style="fill:none;stroke:#6495ed;stroke-linecap:square;stroke-width:1.5;"/>
    <g>
     <use style="fill-opacity:0;stroke:#6495ed;stroke-linejoin:miter;stroke-width:1.5;" x="338.688" xlink:href="#mec121dfbc5" y="30.334099"/>
     <use style="fill-opacity:0;stroke:#6495ed;stroke-linejoin:miter;stroke-width:1.5;" x="369.60768" xlink:href="#mec121dfbc5" y="100.172673"/>
    </g>
   </g>
   <g id="line2d_58">
    <path d="M 338.688 298.944 
L 338.688 30.334099 
" style="fill:none;stroke:#000000;stroke-linecap:square;stroke-width:1.5;"/>
   </g>
   <g id="patch_3">
    <path d="M 57.6 298.944 
L 57.6 27.648 
" style="fill:none;stroke:#000000;stroke-linecap:square;stroke-linejoin:miter;stroke-width:0.8;"/>
   </g>
   <g id="patch_4">
    <path d="M 338.688 298.944 
L 338.688 27.648 
" style="fill:none;stroke:#000000;stroke-linecap:square;stroke-linejoin:miter;stroke-width:0.8;"/>
   </g>
   <g id="patch_5">
    <path d="M 57.6 298.944 
L 338.688 298.944 
" style="fill:none;stroke:#000000;stroke-linecap:square;stroke-linejoin:miter;stroke-width:0.8;"/>
   </g>
   <g id="patch_6">
    <path d="M 57.6 27.648 
L 338.688 27.648 
" style="fill:none;stroke:#000000;stroke-linecap:square;stroke-linejoin:miter;stroke-width:0.8;"/>
   </g>
   <g id="text_13">
    <!-- maes mid -->
    <g transform="translate(375.22944 298.262739)scale(0.17 -0.17)">
     <use xlink:href="#DejaVuSans-109"/>
     <use x="97.412109" xlink:href="#DejaVuSans-97"/>
     <use x="158.691406" xlink:href="#DejaVuSans-101"/>
     <use x="220.214844" xlink:href="#DejaVuSans-115"/>
     <use x="272.314453" xlink:href="#DejaVuSans-32"/>
     <use x="304.101562" xlink:href="#DejaVuSans-109"/>
     <use x="401.513672" xlink:href="#DejaVuSans-105"/>
     <use x="429.296875" xlink:href="#DejaVuSans-100"/>
    </g>
   </g>
   <g id="text_14">
    <!-- maes stp -->
    <g transform="translate(375.22944 233.796363)scale(0.17 -0.17)">
     <use xlink:href="#DejaVuSans-109"/>
     <use x="97.412109" xlink:href="#DejaVuSans-97"/>
     <use x="158.691406" xlink:href="#DejaVuSans-101"/>
     <use x="220.214844" xlink:href="#DejaVuSans-115"/>
     <use x="272.314453" xlink:href="#DejaVuSans-32"/>
     <use x="304.101562" xlink:href="#DejaVuSans-115"/>
     <use x="356.201172" xlink:href="#DejaVuSans-116"/>
     <use x="395.410156" xlink:href="#DejaVuSans-112"/>
    </g>
   </g>
   <g id="text_15">
    <!-- maes -->
    <g transform="translate(375.22944 169.329987)scale(0.17 -0.17)">
     <use xlink:href="#DejaVuSans-109"/>
     <use x="97.412109" xlink:href="#DejaVuSans-97"/>
     <use x="158.691406" xlink:href="#DejaVuSans-101"/>
     <use x="220.214844" xlink:href="#DejaVuSans-115"/>
    </g>
   </g>
   <g id="text_16">
    <!-- maes red -->
    <g transform="translate(375.22944 104.863611)scale(0.17 -0.17)">
     <use xlink:href="#DejaVuSans-109"/>
     <use x="97.412109" xlink:href="#DejaVuSans-97"/>
     <use x="158.691406" xlink:href="#DejaVuSans-101"/>
     <use x="220.214844" xlink:href="#DejaVuSans-115"/>
     <use x="272.314453" xlink:href="#DejaVuSans-32"/>
     <use x="304.101562" xlink:href="#DejaVuSans-114"/>
     <use x="342.964844" xlink:href="#DejaVuSans-101"/>
     <use x="404.488281" xlink:href="#DejaVuSans-100"/>
    </g>
   </g>
   <g id="text_17">
    <!-- best 2009 -->
    <g transform="translate(375.22944 40.397235)scale(0.17 -0.17)">
     <defs>
      <path d="M 48.6875 27.296875 
Q 48.6875 37.203125 44.609375 42.84375 
Q 40.53125 48.484375 33.40625 48.484375 
Q 26.265625 48.484375 22.1875 42.84375 
Q 18.109375 37.203125 18.109375 27.296875 
Q 18.109375 17.390625 22.1875 11.75 
Q 26.265625 6.109375 33.40625 6.109375 
Q 40.53125 6.109375 44.609375 11.75 
Q 48.6875 17.390625 48.6875 27.296875 
z
M 18.109375 46.390625 
Q 20.953125 51.265625 25.265625 53.625 
Q 29.59375 56 35.59375 56 
Q 45.5625 56 51.78125 48.09375 
Q 58.015625 40.1875 58.015625 27.296875 
Q 58.015625 14.40625 51.78125 6.484375 
Q 45.5625 -1.421875 35.59375 -1.421875 
Q 29.59375 -1.421875 25.265625 0.953125 
Q 20.953125 3.328125 18.109375 8.203125 
L 18.109375 0 
L 9.078125 0 
L 9.078125 75.984375 
L 18.109375 75.984375 
z
" id="DejaVuSans-98"/>
      <path d="M 10.984375 1.515625 
L 10.984375 10.5 
Q 14.703125 8.734375 18.5 7.8125 
Q 22.3125 6.890625 25.984375 6.890625 
Q 35.75 6.890625 40.890625 13.453125 
Q 46.046875 20.015625 46.78125 33.40625 
Q 43.953125 29.203125 39.59375 26.953125 
Q 35.25 24.703125 29.984375 24.703125 
Q 19.046875 24.703125 12.671875 31.3125 
Q 6.296875 37.9375 6.296875 49.421875 
Q 6.296875 60.640625 12.9375 67.421875 
Q 19.578125 74.21875 30.609375 74.21875 
Q 43.265625 74.21875 49.921875 64.515625 
Q 56.59375 54.828125 56.59375 36.375 
Q 56.59375 19.140625 48.40625 8.859375 
Q 40.234375 -1.421875 26.421875 -1.421875 
Q 22.703125 -1.421875 18.890625 -0.6875 
Q 15.09375 0.046875 10.984375 1.515625 
z
M 30.609375 32.421875 
Q 37.25 32.421875 41.125 36.953125 
Q 45.015625 41.5 45.015625 49.421875 
Q 45.015625 57.28125 41.125 61.84375 
Q 37.25 66.40625 30.609375 66.40625 
Q 23.96875 66.40625 20.09375 61.84375 
Q 16.21875 57.28125 16.21875 49.421875 
Q 16.21875 41.5 20.09375 36.953125 
Q 23.96875 32.421875 30.609375 32.421875 
z
" id="DejaVuSans-57"/>
     </defs>
     <use xlink:href="#DejaVuSans-98"/>
     <use x="63.476562" xlink:href="#DejaVuSans-101"/>
     <use x="125" xlink:href="#DejaVuSans-115"/>
     <use x="177.099609" xlink:href="#DejaVuSans-116"/>
     <use x="216.308594" xlink:href="#DejaVuSans-32"/>
     <use x="248.095703" xlink:href="#DejaVuSans-50"/>
     <use x="311.71875" xlink:href="#DejaVuSans-48"/>
     <use x="375.341797" xlink:href="#DejaVuSans-48"/>
     <use x="438.964844" xlink:href="#DejaVuSans-57"/>
    </g>
   </g>
   <g id="text_18">
    <!-- bbob f22, 5-D -->
    <g transform="translate(60.41088 38.111366)scale(0.102 -0.102)">
     <defs>
      <path d="M 10.796875 72.90625 
L 49.515625 72.90625 
L 49.515625 64.59375 
L 19.828125 64.59375 
L 19.828125 46.734375 
Q 21.96875 47.46875 24.109375 47.828125 
Q 26.265625 48.1875 28.421875 48.1875 
Q 40.625 48.1875 47.75 41.5 
Q 54.890625 34.8125 54.890625 23.390625 
Q 54.890625 11.625 47.5625 5.09375 
Q 40.234375 -1.421875 26.90625 -1.421875 
Q 22.3125 -1.421875 17.546875 -0.640625 
Q 12.796875 0.140625 7.71875 1.703125 
L 7.71875 11.625 
Q 12.109375 9.234375 16.796875 8.0625 
Q 21.484375 6.890625 26.703125 6.890625 
Q 35.15625 6.890625 40.078125 11.328125 
Q 45.015625 15.765625 45.015625 23.390625 
Q 45.015625 31 40.078125 35.4375 
Q 35.15625 39.890625 26.703125 39.890625 
Q 22.75 39.890625 18.8125 39.015625 
Q 14.890625 38.140625 10.796875 36.28125 
z
" id="DejaVuSans-53"/>
      <path d="M 19.671875 64.796875 
L 19.671875 8.109375 
L 31.59375 8.109375 
Q 46.6875 8.109375 53.6875 14.9375 
Q 60.6875 21.78125 60.6875 36.53125 
Q 60.6875 51.171875 53.6875 57.984375 
Q 46.6875 64.796875 31.59375 64.796875 
z
M 9.8125 72.90625 
L 30.078125 72.90625 
Q 51.265625 72.90625 61.171875 64.09375 
Q 71.09375 55.28125 71.09375 36.53125 
Q 71.09375 17.671875 61.125 8.828125 
Q 51.171875 0 30.078125 0 
L 9.8125 0 
z
" id="DejaVuSans-68"/>
     </defs>
     <use xlink:href="#DejaVuSans-98"/>
     <use x="63.476562" xlink:href="#DejaVuSans-98"/>
     <use x="126.953125" xlink:href="#DejaVuSans-111"/>
     <use x="188.134766" xlink:href="#DejaVuSans-98"/>
     <use x="251.611328" xlink:href="#DejaVuSans-32"/>
     <use x="283.398438" xlink:href="#DejaVuSans-102"/>
     <use x="318.603516" xlink:href="#DejaVuSans-50"/>
     <use x="382.226562" xlink:href="#DejaVuSans-50"/>
     <use x="445.849609" xlink:href="#DejaVuSans-44"/>
     <use x="477.636719" xlink:href="#DejaVuSans-32"/>
     <use x="509.423828" xlink:href="#DejaVuSans-53"/>
     <use x="573.046875" xlink:href="#DejaVuSans-45"/>
     <use x="609.130859" xlink:href="#DejaVuSans-68"/>
    </g>
    <!-- 51 targets: 100..1e-08 -->
    <g transform="translate(60.41088 49.533135)scale(0.102 -0.102)">
     <defs>
      <path d="M 11.71875 12.40625 
L 22.015625 12.40625 
L 22.015625 0 
L 11.71875 0 
z
M 11.71875 51.703125 
L 22.015625 51.703125 
L 22.015625 39.3125 
L 11.71875 39.3125 
z
" id="DejaVuSans-58"/>
     </defs>
     <use xlink:href="#DejaVuSans-53"/>
     <use x="63.623047" xlink:href="#DejaVuSans-49"/>
     <use x="127.246094" xlink:href="#DejaVuSans-32"/>
     <use x="159.033203" xlink:href="#DejaVuSans-116"/>
     <use x="198.242188" xlink:href="#DejaVuSans-97"/>
     <use x="259.521484" xlink:href="#DejaVuSans-114"/>
     <use x="298.884766" xlink:href="#DejaVuSans-103"/>
     <use x="362.361328" xlink:href="#DejaVuSans-101"/>
     <use x="423.884766" xlink:href="#DejaVuSans-116"/>
     <use x="463.09375" xlink:href="#DejaVuSans-115"/>
     <use x="515.193359" xlink:href="#DejaVuSans-58"/>
     <use x="548.884766" xlink:href="#DejaVuSans-32"/>
     <use x="580.671875" xlink:href="#DejaVuSans-49"/>
     <use x="644.294922" xlink:href="#DejaVuSans-48"/>
     <use x="707.917969" xlink:href="#DejaVuSans-48"/>
     <use x="771.541016" xlink:href="#DejaVuSans-46"/>
     <use x="803.328125" xlink:href="#DejaVuSans-46"/>
     <use x="835.115234" xlink:href="#DejaVuSans-49"/>
     <use x="898.738281" xlink:href="#DejaVuSans-101"/>
     <use x="960.261719" xlink:href="#DejaVuSans-45"/>
     <use x="996.345703" xlink:href="#DejaVuSans-48"/>
     <use x="1059.96875" xlink:href="#DejaVuSans-56"/>
    </g>
    <!-- 15 instances -->
    <g transform="translate(60.41088 60.954904)scale(0.102 -0.102)">
     <use xlink:href="#DejaVuSans-49"/>
     <use x="63.623047" xlink:href="#DejaVuSans-53"/>
     <use x="127.246094" xlink:href="#DejaVuSans-32"/>
     <use x="159.033203" xlink:href="#DejaVuSans-105"/>
     <use x="186.816406" xlink:href="#DejaVuSans-110"/>
     <use x="250.195312" xlink:href="#DejaVuSans-115"/>
     <use x="302.294922" xlink:href="#DejaVuSans-116"/>
     <use x="341.503906" xlink:href="#DejaVuSans-97"/>
     <use x="402.783203" xlink:href="#DejaVuSans-110"/>
     <use x="466.162109" xlink:href="#DejaVuSans-99"/>
     <use x="521.142578" xlink:href="#DejaVuSans-101"/>
     <use x="582.666016" xlink:href="#DejaVuSans-115"/>
    </g>
   </g>
   <g id="text_19">
    <!-- v2.4 -->
    <g style="fill:#808080;" transform="translate(187.233062 294.151352)scale(0.1 -0.1)">
     <use xlink:href="#DejaVuSans-118"/>
     <use x="59.179688" xlink:href="#DejaVuSans-50"/>
     <use x="122.802734" xlink:href="#DejaVuSans-46"/>
     <use x="154.589844" xlink:href="#DejaVuSans-52"/>
    </g>
   </g>
   <g id="text_20">
    <!-- 22 Gallagher 21 peaks -->
    <g transform="translate(85.019 21.648)scale(0.2 -0.2)">
     <defs>
      <path d="M 59.515625 10.40625 
L 59.515625 29.984375 
L 43.40625 29.984375 
L 43.40625 38.09375 
L 69.28125 38.09375 
L 69.28125 6.78125 
Q 63.578125 2.734375 56.6875 0.65625 
Q 49.8125 -1.421875 42 -1.421875 
Q 24.90625 -1.421875 15.25 8.5625 
Q 5.609375 18.5625 5.609375 36.375 
Q 5.609375 54.25 15.25 64.234375 
Q 24.90625 74.21875 42 74.21875 
Q 49.125 74.21875 55.546875 72.453125 
Q 61.96875 70.703125 67.390625 67.28125 
L 67.390625 56.78125 
Q 61.921875 61.421875 55.765625 63.765625 
Q 49.609375 66.109375 42.828125 66.109375 
Q 29.4375 66.109375 22.71875 58.640625 
Q 16.015625 51.171875 16.015625 36.375 
Q 16.015625 21.625 22.71875 14.15625 
Q 29.4375 6.6875 42.828125 6.6875 
Q 48.046875 6.6875 52.140625 7.59375 
Q 56.25 8.5 59.515625 10.40625 
z
" id="DejaVuSans-71"/>
      <path d="M 54.890625 33.015625 
L 54.890625 0 
L 45.90625 0 
L 45.90625 32.71875 
Q 45.90625 40.484375 42.875 44.328125 
Q 39.84375 48.1875 33.796875 48.1875 
Q 26.515625 48.1875 22.3125 43.546875 
Q 18.109375 38.921875 18.109375 30.90625 
L 18.109375 0 
L 9.078125 0 
L 9.078125 75.984375 
L 18.109375 75.984375 
L 18.109375 46.1875 
Q 21.34375 51.125 25.703125 53.5625 
Q 30.078125 56 35.796875 56 
Q 45.21875 56 50.046875 50.171875 
Q 54.890625 44.34375 54.890625 33.015625 
z
" id="DejaVuSans-104"/>
      <path d="M 9.078125 75.984375 
L 18.109375 75.984375 
L 18.109375 31.109375 
L 44.921875 54.6875 
L 56.390625 54.6875 
L 27.390625 29.109375 
L 57.625 0 
L 45.90625 0 
L 18.109375 26.703125 
L 18.109375 0 
L 9.078125 0 
z
" id="DejaVuSans-107"/>
     </defs>
     <use xlink:href="#DejaVuSans-50"/>
     <use x="63.623047" xlink:href="#DejaVuSans-50"/>
     <use x="127.246094" xlink:href="#DejaVuSans-32"/>
     <use x="159.033203" xlink:href="#DejaVuSans-71"/>
     <use x="236.523438" xlink:href="#DejaVuSans-97"/>
     <use x="297.802734" xlink:href="#DejaVuSans-108"/>
     <use x="325.585938" xlink:href="#DejaVuSans-108"/>
     <use x="353.369141" xlink:href="#DejaVuSans-97"/>
     <use x="414.648438" xlink:href="#DejaVuSans-103"/>
     <use x="478.125" xlink:href="#DejaVuSans-104"/>
     <use x="541.503906" xlink:href="#DejaVuSans-101"/>
     <use x="603.027344" xlink:href="#DejaVuSans-114"/>
     <use x="644.140625" xlink:href="#DejaVuSans-32"/>
     <use x="675.927734" xlink:href="#DejaVuSans-50"/>
     <use x="739.550781" xlink:href="#DejaVuSans-49"/>
     <use x="803.173828" xlink:href="#DejaVuSans-32"/>
     <use x="834.960938" xlink:href="#DejaVuSans-112"/>
     <use x="898.4375" xlink:href="#DejaVuSans-101"/>
     <use x="959.960938" xlink:href="#DejaVuSans-97"/>
     <use x="1021.240234" xlink:href="#DejaVuSans-107"/>
     <use x="1079.150391" xlink:href="#DejaVuSans-115"/>
    </g>
   </g>
  </g>
 </g>
 <defs>
  <clipPath id="pd4b47de936">
   <rect height="271.296" width="281.088" x="57.6" y="27.648"/>
  </clipPath>
 </defs>
</svg>
