<?xml version="1.0" encoding="utf-8" standalone="no"?>
<!DOCTYPE svg PUBLIC "-//W3C//DTD SVG 1.1//EN"
  "http://www.w3.org/Graphics/SVG/1.1/DTD/svg11.dtd">
<!-- Created with matplotlib (https://matplotlib.org/) -->
<svg height="345.6pt" version="1.1" viewBox="0 0 460.8 345.6" width="460.8pt" xmlns="http://www.w3.org/2000/svg" xmlns:xlink="http://www.w3.org/1999/xlink">
 <metadata>
  <rdf:RDF xmlns:cc="http://creativecommons.org/ns#" xmlns:dc="http://purl.org/dc/elements/1.1/" xmlns:rdf="http://www.w3.org/1999/02/22-rdf-syntax-ns#">
   <cc:Work>
    <dc:type rdf:resource="http://purl.org/dc/dcmitype/StillImage"/>
    <dc:date>2021-06-17T01:37:54.409487</dc:date>
    <dc:format>image/svg+xml</dc:format>
    <dc:creator>
     <cc:Agent>
      <dc:title>Matplotlib v3.3.4, https://matplotlib.org/</dc:title>
     </cc:Agent>
    </dc:creator>
   </cc:Work>
  </rdf:RDF>
 </metadata>
 <defs>
  <style type="text/css">*{stroke-linecap:butt;stroke-linejoin:round;}</style>
 </defs>
 <g id="figure_1">
  <g id="patch_1">
   <path d="M 0 345.6 
L 460.8 345.6 
L 460.8 0 
L 0 0 
z
" style="fill:#ffffff;"/>
  </g>
  <g id="axes_1">
   <g id="patch_2">
    <path d="M 22.69 315.44 
L 453.192 315.44 
L 453.192 27.72 
L 22.69 27.72 
z
" style="fill:#ffffff;"/>
   </g>
   <g id="line2d_1">
    <path clip-path="url(#p64e2ef1c36)" d="M 36.781228 206.421085 
L 91.009334 148.520811 
L 159.328668 102.489395 
L 252.032228 67.405435 
L 344.735788 49.588736 
L 437.439347 25.124256 
" style="fill:none;stroke:#f5deb3;stroke-linecap:square;stroke-width:10;"/>
    <defs>
     <path d="M -0 17.67767 
L 10.606602 0 
L 0 -17.67767 
L -10.606602 -0 
z
" id="me37249cc61" style="stroke:#000000;stroke-linejoin:miter;"/>
    </defs>
    <g clip-path="url(#p64e2ef1c36)">
     <use style="fill:#f5deb3;stroke:#000000;stroke-linejoin:miter;" x="36.781228" xlink:href="#me37249cc61" y="206.421085"/>
     <use style="fill:#f5deb3;stroke:#000000;stroke-linejoin:miter;" x="91.009334" xlink:href="#me37249cc61" y="148.520811"/>
     <use style="fill:#f5deb3;stroke:#000000;stroke-linejoin:miter;" x="159.328668" xlink:href="#me37249cc61" y="102.489395"/>
     <use style="fill:#f5deb3;stroke:#000000;stroke-linejoin:miter;" x="252.032228" xlink:href="#me37249cc61" y="67.405435"/>
     <use style="fill:#f5deb3;stroke:#000000;stroke-linejoin:miter;" x="344.735788" xlink:href="#me37249cc61" y="49.588736"/>
     <use style="fill:#f5deb3;stroke:#000000;stroke-linejoin:miter;" x="437.439347" xlink:href="#me37249cc61" y="25.124256"/>
    </g>
   </g>
   <g id="line2d_2">
    <defs>
     <path d="M -15 0 
L 15 0 
M 0 15 
L 0 -15 
" id="mb26a6e2bf2" style="stroke:#ff0000;stroke-width:5;"/>
    </defs>
    <g clip-path="url(#p64e2ef1c36)">
     <use style="fill:#ff0000;stroke:#ff0000;stroke-width:5;" x="36.781228" xlink:href="#mb26a6e2bf2" y="185.968348"/>
    </g>
   </g>
   <g id="line2d_3">
    <g clip-path="url(#p64e2ef1c36)">
     <use style="fill:#ff0000;stroke:#ff0000;stroke-width:5;" x="91.009334" xlink:href="#mb26a6e2bf2" y="190.67391"/>
    </g>
   </g>
   <g id="line2d_4">
    <defs>
     <path d="M -15 0 
L 15 0 
M 0 15 
L 0 -15 
" id="mbbdcb4ab6a" style="stroke:#008000;stroke-width:5;"/>
    </defs>
    <g clip-path="url(#p64e2ef1c36)">
     <use style="fill:#008000;stroke:#008000;stroke-width:5;" x="159.328668" xlink:href="#mbbdcb4ab6a" y="189.753006"/>
    </g>
   </g>
   <g id="line2d_5">
    <defs>
     <path d="M -15 0 
L 15 0 
M 0 15 
L 0 -15 
" id="m2042f8008e" style="stroke:#00bfbf;stroke-width:5;"/>
    </defs>
    <g clip-path="url(#p64e2ef1c36)">
     <use style="fill:#00bfbf;stroke:#00bfbf;stroke-width:5;" x="252.032228" xlink:href="#m2042f8008e" y="168.522594"/>
    </g>
   </g>
   <g id="line2d_6">
    <g clip-path="url(#p64e2ef1c36)">
     <use style="fill:#00bfbf;stroke:#00bfbf;stroke-width:5;" x="344.735788" xlink:href="#m2042f8008e" y="160.835876"/>
    </g>
   </g>
   <g id="line2d_7">
    <g clip-path="url(#p64e2ef1c36)">
     <use style="fill:#00bfbf;stroke:#00bfbf;stroke-width:5;" x="437.439347" xlink:href="#m2042f8008e" y="150.392625"/>
    </g>
   </g>
   <g id="matplotlib.axis_1">
    <g id="xtick_1">
     <g id="line2d_8">
      <defs>
       <path d="M 0 0 
L 0 3.5 
" id="m3d31002a25" style="stroke:#000000;stroke-width:0.8;"/>
      </defs>
      <g>
       <use style="stroke:#000000;stroke-width:0.8;" x="36.781228" xlink:href="#m3d31002a25" y="315.44"/>
      </g>
     </g>
     <g id="text_1">
      <!-- 2 -->
      <g transform="translate(30.418728 337.636875)scale(0.2 -0.2)">
       <defs>
        <path d="M 19.1875 8.296875 
L 53.609375 8.296875 
L 53.609375 0 
L 7.328125 0 
L 7.328125 8.296875 
Q 12.9375 14.109375 22.625 23.890625 
Q 32.328125 33.6875 34.8125 36.53125 
Q 39.546875 41.84375 41.421875 45.53125 
Q 43.3125 49.21875 43.3125 52.78125 
Q 43.3125 58.59375 39.234375 62.25 
Q 35.15625 65.921875 28.609375 65.921875 
Q 23.96875 65.921875 18.8125 64.3125 
Q 13.671875 62.703125 7.8125 59.421875 
L 7.8125 69.390625 
Q 13.765625 71.78125 18.9375 73 
Q 24.125 74.21875 28.421875 74.21875 
Q 39.75 74.21875 46.484375 68.546875 
Q 53.21875 62.890625 53.21875 53.421875 
Q 53.21875 48.921875 51.53125 44.890625 
Q 49.859375 40.875 45.40625 35.40625 
Q 44.1875 33.984375 37.640625 27.21875 
Q 31.109375 20.453125 19.1875 8.296875 
z
" id="DejaVuSans-50"/>
       </defs>
       <use xlink:href="#DejaVuSans-50"/>
      </g>
     </g>
    </g>
    <g id="xtick_2">
     <g id="line2d_9">
      <g>
       <use style="stroke:#000000;stroke-width:0.8;" x="91.009334" xlink:href="#m3d31002a25" y="315.44"/>
      </g>
     </g>
     <g id="text_2">
      <!-- 3 -->
      <g transform="translate(84.646834 337.636875)scale(0.2 -0.2)">
       <defs>
        <path d="M 40.578125 39.3125 
Q 47.65625 37.796875 51.625 33 
Q 55.609375 28.21875 55.609375 21.1875 
Q 55.609375 10.40625 48.1875 4.484375 
Q 40.765625 -1.421875 27.09375 -1.421875 
Q 22.515625 -1.421875 17.65625 -0.515625 
Q 12.796875 0.390625 7.625 2.203125 
L 7.625 11.71875 
Q 11.71875 9.328125 16.59375 8.109375 
Q 21.484375 6.890625 26.8125 6.890625 
Q 36.078125 6.890625 40.9375 10.546875 
Q 45.796875 14.203125 45.796875 21.1875 
Q 45.796875 27.640625 41.28125 31.265625 
Q 36.765625 34.90625 28.71875 34.90625 
L 20.21875 34.90625 
L 20.21875 43.015625 
L 29.109375 43.015625 
Q 36.375 43.015625 40.234375 45.921875 
Q 44.09375 48.828125 44.09375 54.296875 
Q 44.09375 59.90625 40.109375 62.90625 
Q 36.140625 65.921875 28.71875 65.921875 
Q 24.65625 65.921875 20.015625 65.03125 
Q 15.375 64.15625 9.8125 62.3125 
L 9.8125 71.09375 
Q 15.4375 72.65625 20.34375 73.4375 
Q 25.25 74.21875 29.59375 74.21875 
Q 40.828125 74.21875 47.359375 69.109375 
Q 53.90625 64.015625 53.90625 55.328125 
Q 53.90625 49.265625 50.4375 45.09375 
Q 46.96875 40.921875 40.578125 39.3125 
z
" id="DejaVuSans-51"/>
       </defs>
       <use xlink:href="#DejaVuSans-51"/>
      </g>
     </g>
    </g>
    <g id="xtick_3">
     <g id="line2d_10">
      <g>
       <use style="stroke:#000000;stroke-width:0.8;" x="159.328668" xlink:href="#m3d31002a25" y="315.44"/>
      </g>
     </g>
     <g id="text_3">
      <!-- 5 -->
      <g transform="translate(152.966168 337.636875)scale(0.2 -0.2)">
       <defs>
        <path d="M 10.796875 72.90625 
L 49.515625 72.90625 
L 49.515625 64.59375 
L 19.828125 64.59375 
L 19.828125 46.734375 
Q 21.96875 47.46875 24.109375 47.828125 
Q 26.265625 48.1875 28.421875 48.1875 
Q 40.625 48.1875 47.75 41.5 
Q 54.890625 34.8125 54.890625 23.390625 
Q 54.890625 11.625 47.5625 5.09375 
Q 40.234375 -1.421875 26.90625 -1.421875 
Q 22.3125 -1.421875 17.546875 -0.640625 
Q 12.796875 0.140625 7.71875 1.703125 
L 7.71875 11.625 
Q 12.109375 9.234375 16.796875 8.0625 
Q 21.484375 6.890625 26.703125 6.890625 
Q 35.15625 6.890625 40.078125 11.328125 
Q 45.015625 15.765625 45.015625 23.390625 
Q 45.015625 31 40.078125 35.4375 
Q 35.15625 39.890625 26.703125 39.890625 
Q 22.75 39.890625 18.8125 39.015625 
Q 14.890625 38.140625 10.796875 36.28125 
z
" id="DejaVuSans-53"/>
       </defs>
       <use xlink:href="#DejaVuSans-53"/>
      </g>
     </g>
    </g>
    <g id="xtick_4">
     <g id="line2d_11">
      <g>
       <use style="stroke:#000000;stroke-width:0.8;" x="252.032228" xlink:href="#m3d31002a25" y="315.44"/>
      </g>
     </g>
     <g id="text_4">
      <!-- 10 -->
      <g transform="translate(239.307228 337.636875)scale(0.2 -0.2)">
       <defs>
        <path d="M 12.40625 8.296875 
L 28.515625 8.296875 
L 28.515625 63.921875 
L 10.984375 60.40625 
L 10.984375 69.390625 
L 28.421875 72.90625 
L 38.28125 72.90625 
L 38.28125 8.296875 
L 54.390625 8.296875 
L 54.390625 0 
L 12.40625 0 
z
" id="DejaVuSans-49"/>
        <path d="M 31.78125 66.40625 
Q 24.171875 66.40625 20.328125 58.90625 
Q 16.5 51.421875 16.5 36.375 
Q 16.5 21.390625 20.328125 13.890625 
Q 24.171875 6.390625 31.78125 6.390625 
Q 39.453125 6.390625 43.28125 13.890625 
Q 47.125 21.390625 47.125 36.375 
Q 47.125 51.421875 43.28125 58.90625 
Q 39.453125 66.40625 31.78125 66.40625 
z
M 31.78125 74.21875 
Q 44.046875 74.21875 50.515625 64.515625 
Q 56.984375 54.828125 56.984375 36.375 
Q 56.984375 17.96875 50.515625 8.265625 
Q 44.046875 -1.421875 31.78125 -1.421875 
Q 19.53125 -1.421875 13.0625 8.265625 
Q 6.59375 17.96875 6.59375 36.375 
Q 6.59375 54.828125 13.0625 64.515625 
Q 19.53125 74.21875 31.78125 74.21875 
z
" id="DejaVuSans-48"/>
       </defs>
       <use xlink:href="#DejaVuSans-49"/>
       <use x="63.623047" xlink:href="#DejaVuSans-48"/>
      </g>
     </g>
    </g>
    <g id="xtick_5">
     <g id="line2d_12">
      <g>
       <use style="stroke:#000000;stroke-width:0.8;" x="344.735788" xlink:href="#m3d31002a25" y="315.44"/>
      </g>
     </g>
     <g id="text_5">
      <!-- 20 -->
      <g transform="translate(332.010788 337.636875)scale(0.2 -0.2)">
       <use xlink:href="#DejaVuSans-50"/>
       <use x="63.623047" xlink:href="#DejaVuSans-48"/>
      </g>
     </g>
    </g>
    <g id="xtick_6">
     <g id="line2d_13">
      <g>
       <use style="stroke:#000000;stroke-width:0.8;" x="437.439347" xlink:href="#m3d31002a25" y="315.44"/>
      </g>
     </g>
     <g id="text_6">
      <!-- 40 -->
      <g transform="translate(424.714347 337.636875)scale(0.2 -0.2)">
       <defs>
        <path d="M 37.796875 64.3125 
L 12.890625 25.390625 
L 37.796875 25.390625 
z
M 35.203125 72.90625 
L 47.609375 72.90625 
L 47.609375 25.390625 
L 58.015625 25.390625 
L 58.015625 17.1875 
L 47.609375 17.1875 
L 47.609375 0 
L 37.796875 0 
L 37.796875 17.1875 
L 4.890625 17.1875 
L 4.890625 26.703125 
z
" id="DejaVuSans-52"/>
       </defs>
       <use xlink:href="#DejaVuSans-52"/>
       <use x="63.623047" xlink:href="#DejaVuSans-48"/>
      </g>
     </g>
    </g>
    <g id="xtick_7">
     <g id="line2d_14">
      <defs>
       <path d="M 0 0 
L 0 2 
" id="m94f2835fc3" style="stroke:#000000;stroke-width:0.6;"/>
      </defs>
      <g>
       <use style="stroke:#000000;stroke-width:0.6;" x="129.484788" xlink:href="#m94f2835fc3" y="315.44"/>
      </g>
     </g>
    </g>
    <g id="xtick_8">
     <g id="line2d_15">
      <g>
       <use style="stroke:#000000;stroke-width:0.6;" x="183.712894" xlink:href="#m94f2835fc3" y="315.44"/>
      </g>
     </g>
    </g>
    <g id="xtick_9">
     <g id="line2d_16">
      <g>
       <use style="stroke:#000000;stroke-width:0.6;" x="204.329463" xlink:href="#m94f2835fc3" y="315.44"/>
      </g>
     </g>
    </g>
    <g id="xtick_10">
     <g id="line2d_17">
      <g>
       <use style="stroke:#000000;stroke-width:0.6;" x="222.188347" xlink:href="#m94f2835fc3" y="315.44"/>
      </g>
     </g>
    </g>
    <g id="xtick_11">
     <g id="line2d_18">
      <g>
       <use style="stroke:#000000;stroke-width:0.6;" x="237.941" xlink:href="#m94f2835fc3" y="315.44"/>
      </g>
     </g>
    </g>
    <g id="xtick_12">
     <g id="line2d_19">
      <g>
       <use style="stroke:#000000;stroke-width:0.6;" x="398.963894" xlink:href="#m94f2835fc3" y="315.44"/>
      </g>
     </g>
    </g>
   </g>
   <g id="matplotlib.axis_2">
    <g id="ytick_1">
     <g id="line2d_20">
      <path clip-path="url(#p64e2ef1c36)" d="M 22.69 306.15871 
L 453.192 306.15871 
" style="fill:none;stroke:#b0b0b0;stroke-linecap:square;stroke-width:0.8;"/>
     </g>
     <g id="line2d_21">
      <defs>
       <path d="M 0 0 
L -3.5 0 
" id="m4d0979221c" style="stroke:#000000;stroke-width:0.8;"/>
      </defs>
      <g>
       <use style="stroke:#000000;stroke-width:0.8;" x="22.69" xlink:href="#m4d0979221c" y="306.15871"/>
      </g>
     </g>
     <g id="text_7">
      <!-- 0 -->
      <g transform="translate(2.965 313.757148)scale(0.2 -0.2)">
       <use xlink:href="#DejaVuSans-48"/>
      </g>
     </g>
    </g>
    <g id="ytick_2">
     <g id="line2d_22">
      <path clip-path="url(#p64e2ef1c36)" d="M 22.69 259.752262 
L 453.192 259.752262 
" style="fill:none;stroke:#b0b0b0;stroke-linecap:square;stroke-width:0.8;"/>
     </g>
     <g id="line2d_23">
      <g>
       <use style="stroke:#000000;stroke-width:0.8;" x="22.69" xlink:href="#m4d0979221c" y="259.752262"/>
      </g>
     </g>
     <g id="text_8">
      <!-- 1 -->
      <g transform="translate(2.965 267.350699)scale(0.2 -0.2)">
       <use xlink:href="#DejaVuSans-49"/>
      </g>
     </g>
    </g>
    <g id="ytick_3">
     <g id="line2d_24">
      <path clip-path="url(#p64e2ef1c36)" d="M 22.69 213.345814 
L 453.192 213.345814 
" style="fill:none;stroke:#b0b0b0;stroke-linecap:square;stroke-width:0.8;"/>
     </g>
     <g id="line2d_25">
      <g>
       <use style="stroke:#000000;stroke-width:0.8;" x="22.69" xlink:href="#m4d0979221c" y="213.345814"/>
      </g>
     </g>
     <g id="text_9">
      <!-- 2 -->
      <g transform="translate(2.965 220.944251)scale(0.2 -0.2)">
       <use xlink:href="#DejaVuSans-50"/>
      </g>
     </g>
    </g>
    <g id="ytick_4">
     <g id="line2d_26">
      <path clip-path="url(#p64e2ef1c36)" d="M 22.69 166.939365 
L 453.192 166.939365 
" style="fill:none;stroke:#b0b0b0;stroke-linecap:square;stroke-width:0.8;"/>
     </g>
     <g id="line2d_27">
      <g>
       <use style="stroke:#000000;stroke-width:0.8;" x="22.69" xlink:href="#m4d0979221c" y="166.939365"/>
      </g>
     </g>
     <g id="text_10">
      <!-- 3 -->
      <g transform="translate(2.965 174.537803)scale(0.2 -0.2)">
       <use xlink:href="#DejaVuSans-51"/>
      </g>
     </g>
    </g>
    <g id="ytick_5">
     <g id="line2d_28">
      <path clip-path="url(#p64e2ef1c36)" d="M 22.69 120.532917 
L 453.192 120.532917 
" style="fill:none;stroke:#b0b0b0;stroke-linecap:square;stroke-width:0.8;"/>
     </g>
     <g id="line2d_29">
      <g>
       <use style="stroke:#000000;stroke-width:0.8;" x="22.69" xlink:href="#m4d0979221c" y="120.532917"/>
      </g>
     </g>
     <g id="text_11">
      <!-- 4 -->
      <g transform="translate(2.965 128.131354)scale(0.2 -0.2)">
       <use xlink:href="#DejaVuSans-52"/>
      </g>
     </g>
    </g>
    <g id="ytick_6">
     <g id="line2d_30">
      <path clip-path="url(#p64e2ef1c36)" d="M 22.69 74.126469 
L 453.192 74.126469 
" style="fill:none;stroke:#b0b0b0;stroke-linecap:square;stroke-width:0.8;"/>
     </g>
     <g id="line2d_31">
      <g>
       <use style="stroke:#000000;stroke-width:0.8;" x="22.69" xlink:href="#m4d0979221c" y="74.126469"/>
      </g>
     </g>
     <g id="text_12">
      <!-- 5 -->
      <g transform="translate(2.965 81.724906)scale(0.2 -0.2)">
       <use xlink:href="#DejaVuSans-53"/>
      </g>
     </g>
    </g>
    <g id="ytick_7">
     <g id="line2d_32">
      <path clip-path="url(#p64e2ef1c36)" d="M 22.69 27.72002 
L 453.192 27.72002 
" style="fill:none;stroke:#b0b0b0;stroke-linecap:square;stroke-width:0.8;"/>
     </g>
     <g id="line2d_33">
      <g>
       <use style="stroke:#000000;stroke-width:0.8;" x="22.69" xlink:href="#m4d0979221c" y="27.72002"/>
      </g>
     </g>
     <g id="text_13">
      <!-- 6 -->
      <g transform="translate(2.965 35.318458)scale(0.2 -0.2)">
       <defs>
        <path d="M 33.015625 40.375 
Q 26.375 40.375 22.484375 35.828125 
Q 18.609375 31.296875 18.609375 23.390625 
Q 18.609375 15.53125 22.484375 10.953125 
Q 26.375 6.390625 33.015625 6.390625 
Q 39.65625 6.390625 43.53125 10.953125 
Q 47.40625 15.53125 47.40625 23.390625 
Q 47.40625 31.296875 43.53125 35.828125 
Q 39.65625 40.375 33.015625 40.375 
z
M 52.59375 71.296875 
L 52.59375 62.3125 
Q 48.875 64.0625 45.09375 64.984375 
Q 41.3125 65.921875 37.59375 65.921875 
Q 27.828125 65.921875 22.671875 59.328125 
Q 17.53125 52.734375 16.796875 39.40625 
Q 19.671875 43.65625 24.015625 45.921875 
Q 28.375 48.1875 33.59375 48.1875 
Q 44.578125 48.1875 50.953125 41.515625 
Q 57.328125 34.859375 57.328125 23.390625 
Q 57.328125 12.15625 50.6875 5.359375 
Q 44.046875 -1.421875 33.015625 -1.421875 
Q 20.359375 -1.421875 13.671875 8.265625 
Q 6.984375 17.96875 6.984375 36.375 
Q 6.984375 53.65625 15.1875 63.9375 
Q 23.390625 74.21875 37.203125 74.21875 
Q 40.921875 74.21875 44.703125 73.484375 
Q 48.484375 72.75 52.59375 71.296875 
z
" id="DejaVuSans-54"/>
       </defs>
       <use xlink:href="#DejaVuSans-54"/>
      </g>
     </g>
    </g>
   </g>
   <g id="line2d_34">
    <path clip-path="url(#p64e2ef1c36)" d="M 33.594461 320.128443 
L 35.825198 320.128443 
L 33.594461 320.128443 
L 39.967994 320.128443 
L 37.737258 320.128443 
L 39.967994 320.128443 
L 33.594461 320.128443 
" style="fill:none;stroke:#000000;stroke-linecap:square;"/>
   </g>
   <g id="line2d_35">
    <path clip-path="url(#p64e2ef1c36)" d="M 33.594461 320.128443 
L 39.967994 320.128443 
L 39.967994 320.128443 
L 33.594461 320.128443 
L 33.594461 320.128443 
" style="fill:none;"/>
    <defs>
     <path d="M 0 3 
C 0.795609 3 1.55874 2.683901 2.12132 2.12132 
C 2.683901 1.55874 3 0.795609 3 0 
C 3 -0.795609 2.683901 -1.55874 2.12132 -2.12132 
C 1.55874 -2.683901 0.795609 -3 0 -3 
C -0.795609 -3 -1.55874 -2.683901 -2.12132 -2.12132 
C -2.683901 -1.55874 -3 -0.795609 -3 0 
C -3 0.795609 -2.683901 1.55874 -2.12132 2.12132 
C -1.55874 2.683901 -0.795609 3 0 3 
z
" id="m6d751a3234" style="stroke:#000000;stroke-width:2;"/>
    </defs>
    <g clip-path="url(#p64e2ef1c36)">
     <use style="stroke:#000000;stroke-width:2;" x="33.594461" xlink:href="#m6d751a3234" y="320.128443"/>
     <use style="stroke:#000000;stroke-width:2;" x="39.967994" xlink:href="#m6d751a3234" y="320.128443"/>
     <use style="stroke:#000000;stroke-width:2;" x="39.967994" xlink:href="#m6d751a3234" y="320.128443"/>
     <use style="stroke:#000000;stroke-width:2;" x="33.594461" xlink:href="#m6d751a3234" y="320.128443"/>
     <use style="stroke:#000000;stroke-width:2;" x="33.594461" xlink:href="#m6d751a3234" y="320.128443"/>
    </g>
   </g>
   <g id="line2d_36">
    <path clip-path="url(#p64e2ef1c36)" d="M 33.594461 320.128443 
L 39.967994 320.128443 
" style="fill:none;stroke:#000000;stroke-linecap:square;stroke-width:2;"/>
   </g>
   <g id="line2d_37">
    <path clip-path="url(#p64e2ef1c36)" d="M 87.822567 328.300213 
L 90.053304 328.300213 
L 87.822567 328.300213 
L 94.196101 328.300213 
L 91.965364 328.300213 
L 94.196101 328.300213 
L 87.822567 328.300213 
" style="fill:none;stroke:#000000;stroke-linecap:square;"/>
   </g>
   <g id="line2d_38">
    <path clip-path="url(#p64e2ef1c36)" d="M 87.822567 328.300213 
L 94.196101 328.300213 
L 94.196101 328.300213 
L 87.822567 328.300213 
L 87.822567 328.300213 
" style="fill:none;"/>
    <g clip-path="url(#p64e2ef1c36)">
     <use style="stroke:#000000;stroke-width:2;" x="87.822567" xlink:href="#m6d751a3234" y="328.300213"/>
     <use style="stroke:#000000;stroke-width:2;" x="94.196101" xlink:href="#m6d751a3234" y="328.300213"/>
     <use style="stroke:#000000;stroke-width:2;" x="94.196101" xlink:href="#m6d751a3234" y="328.300213"/>
     <use style="stroke:#000000;stroke-width:2;" x="87.822567" xlink:href="#m6d751a3234" y="328.300213"/>
     <use style="stroke:#000000;stroke-width:2;" x="87.822567" xlink:href="#m6d751a3234" y="328.300213"/>
    </g>
   </g>
   <g id="line2d_39">
    <path clip-path="url(#p64e2ef1c36)" d="M 87.822567 328.300213 
L 94.196101 328.300213 
" style="fill:none;stroke:#000000;stroke-linecap:square;stroke-width:2;"/>
   </g>
   <g id="line2d_40">
    <path clip-path="url(#p64e2ef1c36)" d="M 156.141902 338.595426 
L 158.372638 338.595426 
L 156.141902 338.595426 
L 162.515435 338.595426 
L 160.284698 338.595426 
L 162.515435 338.595426 
L 156.141902 338.595426 
" style="fill:none;stroke:#000000;stroke-linecap:square;"/>
   </g>
   <g id="line2d_41">
    <path clip-path="url(#p64e2ef1c36)" d="M 156.141902 338.595426 
L 162.515435 338.595426 
L 162.515435 338.595426 
L 156.141902 338.595426 
L 156.141902 338.595426 
" style="fill:none;"/>
    <g clip-path="url(#p64e2ef1c36)">
     <use style="stroke:#000000;stroke-width:2;" x="156.141902" xlink:href="#m6d751a3234" y="338.595426"/>
     <use style="stroke:#000000;stroke-width:2;" x="162.515435" xlink:href="#m6d751a3234" y="338.595426"/>
     <use style="stroke:#000000;stroke-width:2;" x="162.515435" xlink:href="#m6d751a3234" y="338.595426"/>
     <use style="stroke:#000000;stroke-width:2;" x="156.141902" xlink:href="#m6d751a3234" y="338.595426"/>
     <use style="stroke:#000000;stroke-width:2;" x="156.141902" xlink:href="#m6d751a3234" y="338.595426"/>
    </g>
   </g>
   <g id="line2d_42">
    <path clip-path="url(#p64e2ef1c36)" d="M 156.141902 338.595426 
L 162.515435 338.595426 
" style="fill:none;stroke:#000000;stroke-linecap:square;stroke-width:2;"/>
   </g>
   <g id="line2d_43">
    <path clip-path="url(#p64e2ef1c36)" style="fill:none;stroke:#000000;stroke-linecap:square;"/>
   </g>
   <g id="line2d_44">
    <path clip-path="url(#p64e2ef1c36)" style="fill:none;"/>
    <g clip-path="url(#p64e2ef1c36)">
     <use style="stroke:#000000;stroke-width:2;" x="248.845461" xlink:href="#m6d751a3234" y="352.565159"/>
     <use style="stroke:#000000;stroke-width:2;" x="255.218994" xlink:href="#m6d751a3234" y="352.565159"/>
     <use style="stroke:#000000;stroke-width:2;" x="255.218994" xlink:href="#m6d751a3234" y="352.565159"/>
     <use style="stroke:#000000;stroke-width:2;" x="248.845461" xlink:href="#m6d751a3234" y="352.565159"/>
     <use style="stroke:#000000;stroke-width:2;" x="248.845461" xlink:href="#m6d751a3234" y="352.565159"/>
    </g>
   </g>
   <g id="line2d_45">
    <path clip-path="url(#p64e2ef1c36)" style="fill:none;stroke:#000000;stroke-linecap:square;stroke-width:2;"/>
   </g>
   <g id="line2d_46">
    <path clip-path="url(#p64e2ef1c36)" style="fill:none;stroke:#000000;stroke-linecap:square;"/>
   </g>
   <g id="line2d_47">
    <path clip-path="url(#p64e2ef1c36)" style="fill:none;"/>
    <g clip-path="url(#p64e2ef1c36)">
     <use style="stroke:#000000;stroke-width:2;" x="341.549021" xlink:href="#m6d751a3234" y="366.534892"/>
     <use style="stroke:#000000;stroke-width:2;" x="347.922554" xlink:href="#m6d751a3234" y="366.534892"/>
     <use style="stroke:#000000;stroke-width:2;" x="347.922554" xlink:href="#m6d751a3234" y="366.534892"/>
     <use style="stroke:#000000;stroke-width:2;" x="341.549021" xlink:href="#m6d751a3234" y="366.534892"/>
     <use style="stroke:#000000;stroke-width:2;" x="341.549021" xlink:href="#m6d751a3234" y="366.534892"/>
    </g>
   </g>
   <g id="line2d_48">
    <path clip-path="url(#p64e2ef1c36)" style="fill:none;stroke:#000000;stroke-linecap:square;stroke-width:2;"/>
   </g>
   <g id="line2d_49">
    <path clip-path="url(#p64e2ef1c36)" style="fill:none;stroke:#000000;stroke-linecap:square;"/>
   </g>
   <g id="line2d_50">
    <path clip-path="url(#p64e2ef1c36)" style="fill:none;"/>
    <g clip-path="url(#p64e2ef1c36)">
     <use style="stroke:#000000;stroke-width:2;" x="434.252581" xlink:href="#m6d751a3234" y="380.504625"/>
     <use style="stroke:#000000;stroke-width:2;" x="440.626114" xlink:href="#m6d751a3234" y="380.504625"/>
     <use style="stroke:#000000;stroke-width:2;" x="440.626114" xlink:href="#m6d751a3234" y="380.504625"/>
     <use style="stroke:#000000;stroke-width:2;" x="434.252581" xlink:href="#m6d751a3234" y="380.504625"/>
     <use style="stroke:#000000;stroke-width:2;" x="434.252581" xlink:href="#m6d751a3234" y="380.504625"/>
    </g>
   </g>
   <g id="line2d_51">
    <path clip-path="url(#p64e2ef1c36)" style="fill:none;stroke:#000000;stroke-linecap:square;stroke-width:2;"/>
   </g>
   <g id="line2d_52">
    <path clip-path="url(#p64e2ef1c36)" d="M 36.781228 320.128443 
L 91.009334 328.300213 
" style="fill:none;stroke:#000000;stroke-linecap:square;stroke-width:4;"/>
   </g>
   <g id="line2d_53">
    <path clip-path="url(#p64e2ef1c36)" d="M 91.009334 328.300213 
L 159.328668 338.595426 
" style="fill:none;stroke:#000000;stroke-linecap:square;stroke-width:4;"/>
   </g>
   <g id="line2d_54">
    <path clip-path="url(#p64e2ef1c36)" d="M 159.328668 338.595426 
L 212.447259 346.6 
" style="fill:none;stroke:#000000;stroke-linecap:square;stroke-width:4;"/>
   </g>
   <g id="line2d_55">
    <path clip-path="url(#p64e2ef1c36)" style="fill:none;stroke:#000000;stroke-linecap:square;stroke-width:4;"/>
   </g>
   <g id="line2d_56">
    <path clip-path="url(#p64e2ef1c36)" style="fill:none;stroke:#000000;stroke-linecap:square;stroke-width:4;"/>
   </g>
   <g id="line2d_57">
    <path clip-path="url(#p64e2ef1c36)" d="M 36.781228 320.128443 
L 91.009334 328.300213 
L 159.328668 338.595426 
L 212.447259 346.6 
" style="fill:none;"/>
    <defs>
     <path d="M 0 10 
C 2.652031 10 5.195799 8.946337 7.071068 7.071068 
C 8.946337 5.195799 10 2.652031 10 0 
C 10 -2.652031 8.946337 -5.195799 7.071068 -7.071068 
C 5.195799 -8.946337 2.652031 -10 0 -10 
C -2.652031 -10 -5.195799 -8.946337 -7.071068 -7.071068 
C -8.946337 -5.195799 -10 -2.652031 -10 0 
C -10 2.652031 -8.946337 5.195799 -7.071068 7.071068 
C -5.195799 8.946337 -2.652031 10 0 10 
z
" id="m3f1ac693f9" style="stroke:#000000;stroke-width:2;"/>
    </defs>
    <g clip-path="url(#p64e2ef1c36)">
     <use style="stroke:#000000;stroke-width:2;" x="36.781228" xlink:href="#m3f1ac693f9" y="320.128443"/>
     <use style="stroke:#000000;stroke-width:2;" x="91.009334" xlink:href="#m3f1ac693f9" y="328.300213"/>
     <use style="stroke:#000000;stroke-width:2;" x="159.328668" xlink:href="#m3f1ac693f9" y="338.595426"/>
     <use style="stroke:#000000;stroke-width:2;" x="252.032228" xlink:href="#m3f1ac693f9" y="352.565159"/>
     <use style="stroke:#000000;stroke-width:2;" x="344.735788" xlink:href="#m3f1ac693f9" y="366.534892"/>
     <use style="stroke:#000000;stroke-width:2;" x="437.439347" xlink:href="#m3f1ac693f9" y="380.504625"/>
    </g>
   </g>
   <g id="line2d_58">
    <path clip-path="url(#p64e2ef1c36)" d="M 32.532206 320.128443 
L 35.506521 320.128443 
L 32.532206 320.128443 
L 41.03025 320.128443 
L 38.055934 320.128443 
L 41.03025 320.128443 
L 32.532206 320.128443 
" style="fill:none;stroke:#0000ff;stroke-linecap:square;"/>
   </g>
   <g id="line2d_59">
    <path clip-path="url(#p64e2ef1c36)" d="M 32.532206 320.128443 
L 41.03025 320.128443 
L 41.03025 320.128443 
L 32.532206 320.128443 
L 32.532206 320.128443 
" style="fill:none;"/>
    <defs>
     <path d="M 0 1.5 
C 0.397805 1.5 0.77937 1.341951 1.06066 1.06066 
C 1.341951 0.77937 1.5 0.397805 1.5 0 
C 1.5 -0.397805 1.341951 -0.77937 1.06066 -1.06066 
C 0.77937 -1.341951 0.397805 -1.5 0 -1.5 
C -0.397805 -1.5 -0.77937 -1.341951 -1.06066 -1.06066 
C -1.341951 -0.77937 -1.5 -0.397805 -1.5 0 
C -1.5 0.397805 -1.341951 0.77937 -1.06066 1.06066 
C -0.77937 1.341951 -0.397805 1.5 0 1.5 
z
" id="m937a4117ee" style="stroke:#0000ff;"/>
    </defs>
    <g clip-path="url(#p64e2ef1c36)">
     <use style="fill:#0000ff;stroke:#0000ff;" x="32.532206" xlink:href="#m937a4117ee" y="320.128443"/>
     <use style="fill:#0000ff;stroke:#0000ff;" x="41.03025" xlink:href="#m937a4117ee" y="320.128443"/>
     <use style="fill:#0000ff;stroke:#0000ff;" x="41.03025" xlink:href="#m937a4117ee" y="320.128443"/>
     <use style="fill:#0000ff;stroke:#0000ff;" x="32.532206" xlink:href="#m937a4117ee" y="320.128443"/>
     <use style="fill:#0000ff;stroke:#0000ff;" x="32.532206" xlink:href="#m937a4117ee" y="320.128443"/>
    </g>
   </g>
   <g id="line2d_60">
    <path clip-path="url(#p64e2ef1c36)" d="M 32.532206 320.128443 
L 41.03025 320.128443 
" style="fill:none;stroke:#0000ff;stroke-linecap:square;stroke-width:2;"/>
   </g>
   <g id="line2d_61">
    <path clip-path="url(#p64e2ef1c36)" d="M 86.760312 328.300213 
L 89.734627 328.300213 
L 86.760312 328.300213 
L 95.258356 328.300213 
L 92.284041 328.300213 
L 95.258356 328.300213 
L 86.760312 328.300213 
" style="fill:none;stroke:#0000ff;stroke-linecap:square;"/>
   </g>
   <g id="line2d_62">
    <path clip-path="url(#p64e2ef1c36)" d="M 86.760312 328.300213 
L 95.258356 328.300213 
L 95.258356 328.300213 
L 86.760312 328.300213 
L 86.760312 328.300213 
" style="fill:none;"/>
    <g clip-path="url(#p64e2ef1c36)">
     <use style="fill:#0000ff;stroke:#0000ff;" x="86.760312" xlink:href="#m937a4117ee" y="328.300213"/>
     <use style="fill:#0000ff;stroke:#0000ff;" x="95.258356" xlink:href="#m937a4117ee" y="328.300213"/>
     <use style="fill:#0000ff;stroke:#0000ff;" x="95.258356" xlink:href="#m937a4117ee" y="328.300213"/>
     <use style="fill:#0000ff;stroke:#0000ff;" x="86.760312" xlink:href="#m937a4117ee" y="328.300213"/>
     <use style="fill:#0000ff;stroke:#0000ff;" x="86.760312" xlink:href="#m937a4117ee" y="328.300213"/>
    </g>
   </g>
   <g id="line2d_63">
    <path clip-path="url(#p64e2ef1c36)" d="M 86.760312 328.300213 
L 95.258356 328.300213 
" style="fill:none;stroke:#0000ff;stroke-linecap:square;stroke-width:2;"/>
   </g>
   <g id="line2d_64">
    <path clip-path="url(#p64e2ef1c36)" d="M 155.079646 338.595426 
L 158.053961 338.595426 
L 155.079646 338.595426 
L 163.57769 338.595426 
L 160.603375 338.595426 
L 163.57769 338.595426 
L 155.079646 338.595426 
" style="fill:none;stroke:#0000ff;stroke-linecap:square;"/>
   </g>
   <g id="line2d_65">
    <path clip-path="url(#p64e2ef1c36)" d="M 155.079646 338.595426 
L 163.57769 338.595426 
L 163.57769 338.595426 
L 155.079646 338.595426 
L 155.079646 338.595426 
" style="fill:none;"/>
    <g clip-path="url(#p64e2ef1c36)">
     <use style="fill:#0000ff;stroke:#0000ff;" x="155.079646" xlink:href="#m937a4117ee" y="338.595426"/>
     <use style="fill:#0000ff;stroke:#0000ff;" x="163.57769" xlink:href="#m937a4117ee" y="338.595426"/>
     <use style="fill:#0000ff;stroke:#0000ff;" x="163.57769" xlink:href="#m937a4117ee" y="338.595426"/>
     <use style="fill:#0000ff;stroke:#0000ff;" x="155.079646" xlink:href="#m937a4117ee" y="338.595426"/>
     <use style="fill:#0000ff;stroke:#0000ff;" x="155.079646" xlink:href="#m937a4117ee" y="338.595426"/>
    </g>
   </g>
   <g id="line2d_66">
    <path clip-path="url(#p64e2ef1c36)" d="M 155.079646 338.595426 
L 163.57769 338.595426 
" style="fill:none;stroke:#0000ff;stroke-linecap:square;stroke-width:2;"/>
   </g>
   <g id="line2d_67">
    <path clip-path="url(#p64e2ef1c36)" style="fill:none;stroke:#0000ff;stroke-linecap:square;"/>
   </g>
   <g id="line2d_68">
    <path clip-path="url(#p64e2ef1c36)" style="fill:none;"/>
    <g clip-path="url(#p64e2ef1c36)">
     <use style="fill:#0000ff;stroke:#0000ff;" x="247.783206" xlink:href="#m937a4117ee" y="352.565159"/>
     <use style="fill:#0000ff;stroke:#0000ff;" x="256.28125" xlink:href="#m937a4117ee" y="352.565159"/>
     <use style="fill:#0000ff;stroke:#0000ff;" x="256.28125" xlink:href="#m937a4117ee" y="352.565159"/>
     <use style="fill:#0000ff;stroke:#0000ff;" x="247.783206" xlink:href="#m937a4117ee" y="352.565159"/>
     <use style="fill:#0000ff;stroke:#0000ff;" x="247.783206" xlink:href="#m937a4117ee" y="352.565159"/>
    </g>
   </g>
   <g id="line2d_69">
    <path clip-path="url(#p64e2ef1c36)" style="fill:none;stroke:#0000ff;stroke-linecap:square;stroke-width:2;"/>
   </g>
   <g id="line2d_70">
    <path clip-path="url(#p64e2ef1c36)" style="fill:none;stroke:#0000ff;stroke-linecap:square;"/>
   </g>
   <g id="line2d_71">
    <path clip-path="url(#p64e2ef1c36)" style="fill:none;"/>
    <g clip-path="url(#p64e2ef1c36)">
     <use style="fill:#0000ff;stroke:#0000ff;" x="340.486766" xlink:href="#m937a4117ee" y="366.534892"/>
     <use style="fill:#0000ff;stroke:#0000ff;" x="348.98481" xlink:href="#m937a4117ee" y="366.534892"/>
     <use style="fill:#0000ff;stroke:#0000ff;" x="348.98481" xlink:href="#m937a4117ee" y="366.534892"/>
     <use style="fill:#0000ff;stroke:#0000ff;" x="340.486766" xlink:href="#m937a4117ee" y="366.534892"/>
     <use style="fill:#0000ff;stroke:#0000ff;" x="340.486766" xlink:href="#m937a4117ee" y="366.534892"/>
    </g>
   </g>
   <g id="line2d_72">
    <path clip-path="url(#p64e2ef1c36)" style="fill:none;stroke:#0000ff;stroke-linecap:square;stroke-width:2;"/>
   </g>
   <g id="line2d_73">
    <path clip-path="url(#p64e2ef1c36)" style="fill:none;stroke:#0000ff;stroke-linecap:square;"/>
   </g>
   <g id="line2d_74">
    <path clip-path="url(#p64e2ef1c36)" style="fill:none;"/>
    <g clip-path="url(#p64e2ef1c36)">
     <use style="fill:#0000ff;stroke:#0000ff;" x="433.190325" xlink:href="#m937a4117ee" y="380.504625"/>
     <use style="fill:#0000ff;stroke:#0000ff;" x="441.68837" xlink:href="#m937a4117ee" y="380.504625"/>
     <use style="fill:#0000ff;stroke:#0000ff;" x="441.68837" xlink:href="#m937a4117ee" y="380.504625"/>
     <use style="fill:#0000ff;stroke:#0000ff;" x="433.190325" xlink:href="#m937a4117ee" y="380.504625"/>
     <use style="fill:#0000ff;stroke:#0000ff;" x="433.190325" xlink:href="#m937a4117ee" y="380.504625"/>
    </g>
   </g>
   <g id="line2d_75">
    <path clip-path="url(#p64e2ef1c36)" style="fill:none;stroke:#0000ff;stroke-linecap:square;stroke-width:2;"/>
   </g>
   <g id="line2d_76">
    <path clip-path="url(#p64e2ef1c36)" d="M 36.781228 320.128443 
L 91.009334 328.300213 
" style="fill:none;stroke:#0000ff;stroke-linecap:square;stroke-width:4;"/>
   </g>
   <g id="line2d_77">
    <path clip-path="url(#p64e2ef1c36)" d="M 91.009334 328.300213 
L 159.328668 338.595426 
" style="fill:none;stroke:#0000ff;stroke-linecap:square;stroke-width:4;"/>
   </g>
   <g id="line2d_78">
    <path clip-path="url(#p64e2ef1c36)" d="M 159.328668 338.595426 
L 212.447259 346.6 
" style="fill:none;stroke:#0000ff;stroke-linecap:square;stroke-width:4;"/>
   </g>
   <g id="line2d_79">
    <path clip-path="url(#p64e2ef1c36)" style="fill:none;stroke:#0000ff;stroke-linecap:square;stroke-width:4;"/>
   </g>
   <g id="line2d_80">
    <path clip-path="url(#p64e2ef1c36)" style="fill:none;stroke:#0000ff;stroke-linecap:square;stroke-width:4;"/>
   </g>
   <g id="line2d_81">
    <path clip-path="url(#p64e2ef1c36)" d="M 36.781228 320.128443 
L 91.009334 328.300213 
L 159.328668 338.595426 
L 212.447259 346.6 
" style="fill:none;"/>
    <defs>
     <path d="M 0 5 
C 1.326016 5 2.597899 4.473168 3.535534 3.535534 
C 4.473168 2.597899 5 1.326016 5 0 
C 5 -1.326016 4.473168 -2.597899 3.535534 -3.535534 
C 2.597899 -4.473168 1.326016 -5 0 -5 
C -1.326016 -5 -2.597899 -4.473168 -3.535534 -3.535534 
C -4.473168 -2.597899 -5 -1.326016 -5 0 
C -5 1.326016 -4.473168 2.597899 -3.535534 3.535534 
C -2.597899 4.473168 -1.326016 5 0 5 
z
" id="md0e33e4e79" style="stroke:#0000ff;"/>
    </defs>
    <g clip-path="url(#p64e2ef1c36)">
     <use style="fill:#0000ff;stroke:#0000ff;" x="36.781228" xlink:href="#md0e33e4e79" y="320.128443"/>
     <use style="fill:#0000ff;stroke:#0000ff;" x="91.009334" xlink:href="#md0e33e4e79" y="328.300213"/>
     <use style="fill:#0000ff;stroke:#0000ff;" x="159.328668" xlink:href="#md0e33e4e79" y="338.595426"/>
     <use style="fill:#0000ff;stroke:#0000ff;" x="252.032228" xlink:href="#md0e33e4e79" y="352.565159"/>
     <use style="fill:#0000ff;stroke:#0000ff;" x="344.735788" xlink:href="#md0e33e4e79" y="366.534892"/>
     <use style="fill:#0000ff;stroke:#0000ff;" x="437.439347" xlink:href="#md0e33e4e79" y="380.504625"/>
    </g>
   </g>
   <g id="line2d_82">
    <path clip-path="url(#p64e2ef1c36)" d="M 31.46995 264.249511 
L 35.187845 254.464556 
L 31.46995 240.110924 
L 42.092505 240.110924 
L 38.374611 254.464556 
L 42.092505 264.249511 
L 31.46995 264.249511 
" style="fill:none;stroke:#00bfbf;stroke-linecap:square;"/>
   </g>
   <g id="line2d_83">
    <path clip-path="url(#p64e2ef1c36)" d="M 31.46995 264.249511 
L 42.092505 264.249511 
L 42.092505 240.110924 
L 31.46995 240.110924 
L 31.46995 264.249511 
" style="fill:none;"/>
    <defs>
     <path d="M -0 3 
L 3 -3 
L -3 -3 
z
" id="m11df7e7c16" style="stroke:#00bfbf;stroke-linejoin:miter;stroke-width:2;"/>
    </defs>
    <g clip-path="url(#p64e2ef1c36)">
     <use style="fill:#00bfbf;stroke:#00bfbf;stroke-linejoin:miter;stroke-width:2;" x="31.46995" xlink:href="#m11df7e7c16" y="264.249511"/>
     <use style="fill:#00bfbf;stroke:#00bfbf;stroke-linejoin:miter;stroke-width:2;" x="42.092505" xlink:href="#m11df7e7c16" y="264.249511"/>
     <use style="fill:#00bfbf;stroke:#00bfbf;stroke-linejoin:miter;stroke-width:2;" x="42.092505" xlink:href="#m11df7e7c16" y="240.110924"/>
     <use style="fill:#00bfbf;stroke:#00bfbf;stroke-linejoin:miter;stroke-width:2;" x="31.46995" xlink:href="#m11df7e7c16" y="240.110924"/>
     <use style="fill:#00bfbf;stroke:#00bfbf;stroke-linejoin:miter;stroke-width:2;" x="31.46995" xlink:href="#m11df7e7c16" y="264.249511"/>
    </g>
   </g>
   <g id="line2d_84">
    <path clip-path="url(#p64e2ef1c36)" d="M 31.46995 254.464556 
L 42.092505 254.464556 
" style="fill:none;stroke:#00bfbf;stroke-linecap:square;stroke-width:2;"/>
   </g>
   <g id="line2d_85">
    <path clip-path="url(#p64e2ef1c36)" d="M 85.698056 252.033411 
L 89.415951 221.669309 
L 85.698056 144.788907 
L 96.320612 144.788907 
L 92.602717 221.669309 
L 96.320612 252.033411 
L 85.698056 252.033411 
" style="fill:none;stroke:#00bfbf;stroke-linecap:square;"/>
   </g>
   <g id="line2d_86">
    <path clip-path="url(#p64e2ef1c36)" d="M 85.698056 252.033411 
L 96.320612 252.033411 
L 96.320612 144.788907 
L 85.698056 144.788907 
L 85.698056 252.033411 
" style="fill:none;"/>
    <g clip-path="url(#p64e2ef1c36)">
     <use style="fill:#00bfbf;stroke:#00bfbf;stroke-linejoin:miter;stroke-width:2;" x="85.698056" xlink:href="#m11df7e7c16" y="252.033411"/>
     <use style="fill:#00bfbf;stroke:#00bfbf;stroke-linejoin:miter;stroke-width:2;" x="96.320612" xlink:href="#m11df7e7c16" y="252.033411"/>
     <use style="fill:#00bfbf;stroke:#00bfbf;stroke-linejoin:miter;stroke-width:2;" x="96.320612" xlink:href="#m11df7e7c16" y="144.788907"/>
     <use style="fill:#00bfbf;stroke:#00bfbf;stroke-linejoin:miter;stroke-width:2;" x="85.698056" xlink:href="#m11df7e7c16" y="144.788907"/>
     <use style="fill:#00bfbf;stroke:#00bfbf;stroke-linejoin:miter;stroke-width:2;" x="85.698056" xlink:href="#m11df7e7c16" y="252.033411"/>
    </g>
   </g>
   <g id="line2d_87">
    <path clip-path="url(#p64e2ef1c36)" d="M 85.698056 221.669309 
L 96.320612 221.669309 
" style="fill:none;stroke:#00bfbf;stroke-linecap:square;stroke-width:2;"/>
   </g>
   <g id="line2d_88">
    <path clip-path="url(#p64e2ef1c36)" d="M 154.017391 208.465274 
L 157.735285 134.268614 
L 154.017391 120.338764 
L 164.639946 120.338764 
L 160.922051 134.268614 
L 164.639946 208.465274 
L 154.017391 208.465274 
" style="fill:none;stroke:#00bfbf;stroke-linecap:square;"/>
   </g>
   <g id="line2d_89">
    <path clip-path="url(#p64e2ef1c36)" d="M 154.017391 208.465274 
L 164.639946 208.465274 
L 164.639946 120.338764 
L 154.017391 120.338764 
L 154.017391 208.465274 
" style="fill:none;"/>
    <g clip-path="url(#p64e2ef1c36)">
     <use style="fill:#00bfbf;stroke:#00bfbf;stroke-linejoin:miter;stroke-width:2;" x="154.017391" xlink:href="#m11df7e7c16" y="208.465274"/>
     <use style="fill:#00bfbf;stroke:#00bfbf;stroke-linejoin:miter;stroke-width:2;" x="164.639946" xlink:href="#m11df7e7c16" y="208.465274"/>
     <use style="fill:#00bfbf;stroke:#00bfbf;stroke-linejoin:miter;stroke-width:2;" x="164.639946" xlink:href="#m11df7e7c16" y="120.338764"/>
     <use style="fill:#00bfbf;stroke:#00bfbf;stroke-linejoin:miter;stroke-width:2;" x="154.017391" xlink:href="#m11df7e7c16" y="120.338764"/>
     <use style="fill:#00bfbf;stroke:#00bfbf;stroke-linejoin:miter;stroke-width:2;" x="154.017391" xlink:href="#m11df7e7c16" y="208.465274"/>
    </g>
   </g>
   <g id="line2d_90">
    <path clip-path="url(#p64e2ef1c36)" d="M 154.017391 134.268614 
L 164.639946 134.268614 
" style="fill:none;stroke:#00bfbf;stroke-linecap:square;stroke-width:2;"/>
   </g>
   <g id="line2d_91">
    <path clip-path="url(#p64e2ef1c36)" d="M 246.72095 169.513437 
L 250.438845 155.552866 
L 246.72095 120.311835 
L 257.343505 120.311835 
L 253.625611 155.552866 
L 257.343505 169.513437 
L 246.72095 169.513437 
" style="fill:none;stroke:#00bfbf;stroke-linecap:square;"/>
   </g>
   <g id="line2d_92">
    <path clip-path="url(#p64e2ef1c36)" d="M 246.72095 169.513437 
L 257.343505 169.513437 
L 257.343505 120.311835 
L 246.72095 120.311835 
L 246.72095 169.513437 
" style="fill:none;"/>
    <g clip-path="url(#p64e2ef1c36)">
     <use style="fill:#00bfbf;stroke:#00bfbf;stroke-linejoin:miter;stroke-width:2;" x="246.72095" xlink:href="#m11df7e7c16" y="169.513437"/>
     <use style="fill:#00bfbf;stroke:#00bfbf;stroke-linejoin:miter;stroke-width:2;" x="257.343505" xlink:href="#m11df7e7c16" y="169.513437"/>
     <use style="fill:#00bfbf;stroke:#00bfbf;stroke-linejoin:miter;stroke-width:2;" x="257.343505" xlink:href="#m11df7e7c16" y="120.311835"/>
     <use style="fill:#00bfbf;stroke:#00bfbf;stroke-linejoin:miter;stroke-width:2;" x="246.72095" xlink:href="#m11df7e7c16" y="120.311835"/>
     <use style="fill:#00bfbf;stroke:#00bfbf;stroke-linejoin:miter;stroke-width:2;" x="246.72095" xlink:href="#m11df7e7c16" y="169.513437"/>
    </g>
   </g>
   <g id="line2d_93">
    <path clip-path="url(#p64e2ef1c36)" d="M 246.72095 155.552866 
L 257.343505 155.552866 
" style="fill:none;stroke:#00bfbf;stroke-linecap:square;stroke-width:2;"/>
   </g>
   <g id="line2d_94">
    <path clip-path="url(#p64e2ef1c36)" d="M 339.42451 161.415846 
L 343.142404 150.112375 
L 339.42451 105.761587 
L 350.047065 105.761587 
L 346.329171 150.112375 
L 350.047065 161.415846 
L 339.42451 161.415846 
" style="fill:none;stroke:#00bfbf;stroke-linecap:square;"/>
   </g>
   <g id="line2d_95">
    <path clip-path="url(#p64e2ef1c36)" d="M 339.42451 161.415846 
L 350.047065 161.415846 
L 350.047065 105.761587 
L 339.42451 105.761587 
L 339.42451 161.415846 
" style="fill:none;"/>
    <g clip-path="url(#p64e2ef1c36)">
     <use style="fill:#00bfbf;stroke:#00bfbf;stroke-linejoin:miter;stroke-width:2;" x="339.42451" xlink:href="#m11df7e7c16" y="161.415846"/>
     <use style="fill:#00bfbf;stroke:#00bfbf;stroke-linejoin:miter;stroke-width:2;" x="350.047065" xlink:href="#m11df7e7c16" y="161.415846"/>
     <use style="fill:#00bfbf;stroke:#00bfbf;stroke-linejoin:miter;stroke-width:2;" x="350.047065" xlink:href="#m11df7e7c16" y="105.761587"/>
     <use style="fill:#00bfbf;stroke:#00bfbf;stroke-linejoin:miter;stroke-width:2;" x="339.42451" xlink:href="#m11df7e7c16" y="105.761587"/>
     <use style="fill:#00bfbf;stroke:#00bfbf;stroke-linejoin:miter;stroke-width:2;" x="339.42451" xlink:href="#m11df7e7c16" y="161.415846"/>
    </g>
   </g>
   <g id="line2d_96">
    <path clip-path="url(#p64e2ef1c36)" d="M 339.42451 150.112375 
L 350.047065 150.112375 
" style="fill:none;stroke:#00bfbf;stroke-linecap:square;stroke-width:2;"/>
   </g>
   <g id="line2d_97">
    <path clip-path="url(#p64e2ef1c36)" d="M 432.12807 150.066515 
L 435.845964 91.547397 
L 432.12807 78.114163 
L 442.750625 78.114163 
L 439.032731 91.547397 
L 442.750625 150.066515 
L 432.12807 150.066515 
" style="fill:none;stroke:#00bfbf;stroke-linecap:square;"/>
   </g>
   <g id="line2d_98">
    <path clip-path="url(#p64e2ef1c36)" d="M 432.12807 150.066515 
L 442.750625 150.066515 
L 442.750625 78.114163 
L 432.12807 78.114163 
L 432.12807 150.066515 
" style="fill:none;"/>
    <g clip-path="url(#p64e2ef1c36)">
     <use style="fill:#00bfbf;stroke:#00bfbf;stroke-linejoin:miter;stroke-width:2;" x="432.12807" xlink:href="#m11df7e7c16" y="150.066515"/>
     <use style="fill:#00bfbf;stroke:#00bfbf;stroke-linejoin:miter;stroke-width:2;" x="442.750625" xlink:href="#m11df7e7c16" y="150.066515"/>
     <use style="fill:#00bfbf;stroke:#00bfbf;stroke-linejoin:miter;stroke-width:2;" x="442.750625" xlink:href="#m11df7e7c16" y="78.114163"/>
     <use style="fill:#00bfbf;stroke:#00bfbf;stroke-linejoin:miter;stroke-width:2;" x="432.12807" xlink:href="#m11df7e7c16" y="78.114163"/>
     <use style="fill:#00bfbf;stroke:#00bfbf;stroke-linejoin:miter;stroke-width:2;" x="432.12807" xlink:href="#m11df7e7c16" y="150.066515"/>
    </g>
   </g>
   <g id="line2d_99">
    <path clip-path="url(#p64e2ef1c36)" d="M 432.12807 91.547397 
L 442.750625 91.547397 
" style="fill:none;stroke:#00bfbf;stroke-linecap:square;stroke-width:2;"/>
   </g>
   <g id="line2d_100">
    <path clip-path="url(#p64e2ef1c36)" d="M 36.781228 203.712025 
L 91.009334 168.980246 
" style="fill:none;stroke:#00bfbf;stroke-linecap:square;stroke-width:4;"/>
   </g>
   <g id="line2d_101">
    <path clip-path="url(#p64e2ef1c36)" d="M 91.009334 168.980246 
L 159.328668 130.655926 
" style="fill:none;stroke:#00bfbf;stroke-linecap:square;stroke-width:4;"/>
   </g>
   <g id="line2d_102">
    <path clip-path="url(#p64e2ef1c36)" d="M 159.328668 130.655926 
L 252.032228 129.693773 
" style="fill:none;stroke:#00bfbf;stroke-linecap:square;stroke-width:4;"/>
   </g>
   <g id="line2d_103">
    <path clip-path="url(#p64e2ef1c36)" d="M 252.032228 129.693773 
L 344.735788 123.206389 
" style="fill:none;stroke:#00bfbf;stroke-linecap:square;stroke-width:4;"/>
   </g>
   <g id="line2d_104">
    <path clip-path="url(#p64e2ef1c36)" d="M 344.735788 123.206389 
L 437.439347 83.622504 
" style="fill:none;stroke:#00bfbf;stroke-linecap:square;stroke-width:4;"/>
   </g>
   <g id="line2d_105">
    <path clip-path="url(#p64e2ef1c36)" d="M 36.781228 203.712025 
L 91.009334 168.980246 
L 159.328668 130.655926 
L 252.032228 129.693773 
L 344.735788 123.206389 
L 437.439347 83.622504 
" style="fill:none;"/>
    <defs>
     <path d="M -0 10 
L 10 -10 
L -10 -10 
z
" id="mc49756674d" style="stroke:#000000;stroke-linejoin:miter;stroke-width:2;"/>
    </defs>
    <g clip-path="url(#p64e2ef1c36)">
     <use style="fill:#00bfbf;stroke:#000000;stroke-linejoin:miter;stroke-width:2;" x="36.781228" xlink:href="#mc49756674d" y="203.712025"/>
     <use style="fill:#00bfbf;stroke:#000000;stroke-linejoin:miter;stroke-width:2;" x="91.009334" xlink:href="#mc49756674d" y="168.980246"/>
     <use style="fill:#00bfbf;stroke:#000000;stroke-linejoin:miter;stroke-width:2;" x="159.328668" xlink:href="#mc49756674d" y="130.655926"/>
     <use style="fill:#00bfbf;stroke:#000000;stroke-linejoin:miter;stroke-width:2;" x="252.032228" xlink:href="#mc49756674d" y="129.693773"/>
     <use style="fill:#00bfbf;stroke:#000000;stroke-linejoin:miter;stroke-width:2;" x="344.735788" xlink:href="#mc49756674d" y="123.206389"/>
     <use style="fill:#00bfbf;stroke:#000000;stroke-linejoin:miter;stroke-width:2;" x="437.439347" xlink:href="#mc49756674d" y="83.622504"/>
    </g>
   </g>
   <g id="line2d_106">
    <path clip-path="url(#p64e2ef1c36)" d="M 30.407695 193.81888 
L 34.869168 151.762031 
L 30.407695 137.89697 
L 43.154761 137.89697 
L 38.693288 151.762031 
L 43.154761 193.81888 
L 30.407695 193.81888 
" style="fill:none;stroke:#008000;stroke-linecap:square;"/>
   </g>
   <g id="line2d_107">
    <path clip-path="url(#p64e2ef1c36)" d="M 30.407695 193.81888 
L 43.154761 193.81888 
L 43.154761 137.89697 
L 30.407695 137.89697 
L 30.407695 193.81888 
" style="fill:none;"/>
    <defs>
     <path d="M 0 1.5 
C 0.397805 1.5 0.77937 1.341951 1.06066 1.06066 
C 1.341951 0.77937 1.5 0.397805 1.5 0 
C 1.5 -0.397805 1.341951 -0.77937 1.06066 -1.06066 
C 0.77937 -1.341951 0.397805 -1.5 0 -1.5 
C -0.397805 -1.5 -0.77937 -1.341951 -1.06066 -1.06066 
C -1.341951 -0.77937 -1.5 -0.397805 -1.5 0 
C -1.5 0.397805 -1.341951 0.77937 -1.06066 1.06066 
C -0.77937 1.341951 -0.397805 1.5 0 1.5 
z
" id="mf11d8efea6" style="stroke:#008000;"/>
    </defs>
    <g clip-path="url(#p64e2ef1c36)">
     <use style="fill:#008000;stroke:#008000;" x="30.407695" xlink:href="#mf11d8efea6" y="193.81888"/>
     <use style="fill:#008000;stroke:#008000;" x="43.154761" xlink:href="#mf11d8efea6" y="193.81888"/>
     <use style="fill:#008000;stroke:#008000;" x="43.154761" xlink:href="#mf11d8efea6" y="137.89697"/>
     <use style="fill:#008000;stroke:#008000;" x="30.407695" xlink:href="#mf11d8efea6" y="137.89697"/>
     <use style="fill:#008000;stroke:#008000;" x="30.407695" xlink:href="#mf11d8efea6" y="193.81888"/>
    </g>
   </g>
   <g id="line2d_108">
    <path clip-path="url(#p64e2ef1c36)" d="M 30.407695 151.762031 
L 43.154761 151.762031 
" style="fill:none;stroke:#008000;stroke-linecap:square;stroke-width:2;"/>
   </g>
   <g id="line2d_109">
    <path clip-path="url(#p64e2ef1c36)" d="M 84.635801 195.067819 
L 89.097274 126.005238 
L 84.635801 116.444479 
L 97.382867 116.444479 
L 92.921394 126.005238 
L 97.382867 195.067819 
L 84.635801 195.067819 
" style="fill:none;stroke:#008000;stroke-linecap:square;"/>
   </g>
   <g id="line2d_110">
    <path clip-path="url(#p64e2ef1c36)" d="M 84.635801 195.067819 
L 97.382867 195.067819 
L 97.382867 116.444479 
L 84.635801 116.444479 
L 84.635801 195.067819 
" style="fill:none;"/>
    <g clip-path="url(#p64e2ef1c36)">
     <use style="fill:#008000;stroke:#008000;" x="84.635801" xlink:href="#mf11d8efea6" y="195.067819"/>
     <use style="fill:#008000;stroke:#008000;" x="97.382867" xlink:href="#mf11d8efea6" y="195.067819"/>
     <use style="fill:#008000;stroke:#008000;" x="97.382867" xlink:href="#mf11d8efea6" y="116.444479"/>
     <use style="fill:#008000;stroke:#008000;" x="84.635801" xlink:href="#mf11d8efea6" y="116.444479"/>
     <use style="fill:#008000;stroke:#008000;" x="84.635801" xlink:href="#mf11d8efea6" y="195.067819"/>
    </g>
   </g>
   <g id="line2d_111">
    <path clip-path="url(#p64e2ef1c36)" d="M 84.635801 126.005238 
L 97.382867 126.005238 
" style="fill:none;stroke:#008000;stroke-linecap:square;stroke-width:2;"/>
   </g>
   <g id="line2d_112">
    <path clip-path="url(#p64e2ef1c36)" d="M 152.955135 119.891061 
L 157.416608 103.900257 
L 152.955135 70.395462 
L 165.702201 70.395462 
L 161.240728 103.900257 
L 165.702201 119.891061 
L 152.955135 119.891061 
" style="fill:none;stroke:#008000;stroke-linecap:square;"/>
   </g>
   <g id="line2d_113">
    <path clip-path="url(#p64e2ef1c36)" d="M 152.955135 119.891061 
L 165.702201 119.891061 
L 165.702201 70.395462 
L 152.955135 70.395462 
L 152.955135 119.891061 
" style="fill:none;"/>
    <g clip-path="url(#p64e2ef1c36)">
     <use style="fill:#008000;stroke:#008000;" x="152.955135" xlink:href="#mf11d8efea6" y="119.891061"/>
     <use style="fill:#008000;stroke:#008000;" x="165.702201" xlink:href="#mf11d8efea6" y="119.891061"/>
     <use style="fill:#008000;stroke:#008000;" x="165.702201" xlink:href="#mf11d8efea6" y="70.395462"/>
     <use style="fill:#008000;stroke:#008000;" x="152.955135" xlink:href="#mf11d8efea6" y="70.395462"/>
     <use style="fill:#008000;stroke:#008000;" x="152.955135" xlink:href="#mf11d8efea6" y="119.891061"/>
    </g>
   </g>
   <g id="line2d_114">
    <path clip-path="url(#p64e2ef1c36)" d="M 152.955135 103.900257 
L 165.702201 103.900257 
" style="fill:none;stroke:#008000;stroke-linecap:square;stroke-width:2;"/>
   </g>
   <g id="line2d_115">
    <path clip-path="url(#p64e2ef1c36)" d="M 36.781228 148.887189 
L 91.009334 130.265909 
" style="fill:none;stroke:#008000;stroke-linecap:square;stroke-width:4;"/>
   </g>
   <g id="line2d_116">
    <path clip-path="url(#p64e2ef1c36)" d="M 91.009334 130.265909 
L 159.328668 81.2199 
" style="fill:none;stroke:#008000;stroke-linecap:square;stroke-width:4;"/>
   </g>
   <g id="line2d_117">
    <path clip-path="url(#p64e2ef1c36)" d="M 36.781228 148.887189 
L 91.009334 130.265909 
L 159.328668 81.2199 
" style="fill:none;"/>
    <defs>
     <path d="M 0 5 
C 1.326016 5 2.597899 4.473168 3.535534 3.535534 
C 4.473168 2.597899 5 1.326016 5 0 
C 5 -1.326016 4.473168 -2.597899 3.535534 -3.535534 
C 2.597899 -4.473168 1.326016 -5 0 -5 
C -1.326016 -5 -2.597899 -4.473168 -3.535534 -3.535534 
C -4.473168 -2.597899 -5 -1.326016 -5 0 
C -5 1.326016 -4.473168 2.597899 -3.535534 3.535534 
C -2.597899 4.473168 -1.326016 5 0 5 
z
" id="m4c044d3d78" style="stroke:#008000;"/>
    </defs>
    <g clip-path="url(#p64e2ef1c36)">
     <use style="fill:#008000;stroke:#008000;" x="36.781228" xlink:href="#m4c044d3d78" y="148.887189"/>
     <use style="fill:#008000;stroke:#008000;" x="91.009334" xlink:href="#m4c044d3d78" y="130.265909"/>
     <use style="fill:#008000;stroke:#008000;" x="159.328668" xlink:href="#m4c044d3d78" y="81.2199"/>
    </g>
   </g>
   <g id="line2d_118">
    <path clip-path="url(#p64e2ef1c36)" d="M 29.345439 194.244005 
L 34.550491 187.418133 
L 29.345439 137.549376 
L 44.217016 137.549376 
L 39.011964 187.418133 
L 44.217016 194.244005 
L 29.345439 194.244005 
" style="fill:none;stroke:#bfbf00;stroke-linecap:square;"/>
   </g>
   <g id="line2d_119">
    <path clip-path="url(#p64e2ef1c36)" d="M 29.345439 194.244005 
L 44.217016 194.244005 
L 44.217016 137.549376 
L 29.345439 137.549376 
L 29.345439 194.244005 
" style="fill:none;"/>
    <defs>
     <path d="M 0 -3 
L -3 3 
L 3 3 
z
" id="mb0a9c11f46" style="stroke:#bfbf00;stroke-linejoin:miter;stroke-width:2;"/>
    </defs>
    <g clip-path="url(#p64e2ef1c36)">
     <use style="fill:#bfbf00;stroke:#bfbf00;stroke-linejoin:miter;stroke-width:2;" x="29.345439" xlink:href="#mb0a9c11f46" y="194.244005"/>
     <use style="fill:#bfbf00;stroke:#bfbf00;stroke-linejoin:miter;stroke-width:2;" x="44.217016" xlink:href="#mb0a9c11f46" y="194.244005"/>
     <use style="fill:#bfbf00;stroke:#bfbf00;stroke-linejoin:miter;stroke-width:2;" x="44.217016" xlink:href="#mb0a9c11f46" y="137.549376"/>
     <use style="fill:#bfbf00;stroke:#bfbf00;stroke-linejoin:miter;stroke-width:2;" x="29.345439" xlink:href="#mb0a9c11f46" y="137.549376"/>
     <use style="fill:#bfbf00;stroke:#bfbf00;stroke-linejoin:miter;stroke-width:2;" x="29.345439" xlink:href="#mb0a9c11f46" y="194.244005"/>
    </g>
   </g>
   <g id="line2d_120">
    <path clip-path="url(#p64e2ef1c36)" d="M 29.345439 187.418133 
L 44.217016 187.418133 
" style="fill:none;stroke:#bfbf00;stroke-linecap:square;stroke-width:2;"/>
   </g>
   <g id="line2d_121">
    <path clip-path="url(#p64e2ef1c36)" d="M 83.573545 194.036763 
L 88.778597 143.568655 
L 83.573545 122.149966 
L 98.445123 122.149966 
L 93.240071 143.568655 
L 98.445123 194.036763 
L 83.573545 194.036763 
" style="fill:none;stroke:#bfbf00;stroke-linecap:square;"/>
   </g>
   <g id="line2d_122">
    <path clip-path="url(#p64e2ef1c36)" d="M 83.573545 194.036763 
L 98.445123 194.036763 
L 98.445123 122.149966 
L 83.573545 122.149966 
L 83.573545 194.036763 
" style="fill:none;"/>
    <g clip-path="url(#p64e2ef1c36)">
     <use style="fill:#bfbf00;stroke:#bfbf00;stroke-linejoin:miter;stroke-width:2;" x="83.573545" xlink:href="#mb0a9c11f46" y="194.036763"/>
     <use style="fill:#bfbf00;stroke:#bfbf00;stroke-linejoin:miter;stroke-width:2;" x="98.445123" xlink:href="#mb0a9c11f46" y="194.036763"/>
     <use style="fill:#bfbf00;stroke:#bfbf00;stroke-linejoin:miter;stroke-width:2;" x="98.445123" xlink:href="#mb0a9c11f46" y="122.149966"/>
     <use style="fill:#bfbf00;stroke:#bfbf00;stroke-linejoin:miter;stroke-width:2;" x="83.573545" xlink:href="#mb0a9c11f46" y="122.149966"/>
     <use style="fill:#bfbf00;stroke:#bfbf00;stroke-linejoin:miter;stroke-width:2;" x="83.573545" xlink:href="#mb0a9c11f46" y="194.036763"/>
    </g>
   </g>
   <g id="line2d_123">
    <path clip-path="url(#p64e2ef1c36)" d="M 83.573545 143.568655 
L 98.445123 143.568655 
" style="fill:none;stroke:#bfbf00;stroke-linecap:square;stroke-width:2;"/>
   </g>
   <g id="line2d_124">
    <path clip-path="url(#p64e2ef1c36)" d="M 36.781228 148.403401 
L 91.009334 130.141076 
" style="fill:none;stroke:#bfbf00;stroke-linecap:square;stroke-width:4;"/>
   </g>
   <g id="line2d_125">
    <path clip-path="url(#p64e2ef1c36)" d="M 36.781228 148.403401 
L 91.009334 130.141076 
" style="fill:none;"/>
    <defs>
     <path d="M 0 -10 
L -10 10 
L 10 10 
z
" id="m233e6b6278" style="stroke:#000000;stroke-linejoin:miter;stroke-width:2;"/>
    </defs>
    <g clip-path="url(#p64e2ef1c36)">
     <use style="fill:#bfbf00;stroke:#000000;stroke-linejoin:miter;stroke-width:2;" x="36.781228" xlink:href="#m233e6b6278" y="148.403401"/>
     <use style="fill:#bfbf00;stroke:#000000;stroke-linejoin:miter;stroke-width:2;" x="91.009334" xlink:href="#m233e6b6278" y="130.141076"/>
    </g>
   </g>
   <g id="line2d_126">
    <path clip-path="url(#p64e2ef1c36)" d="M 28.283184 151.909681 
L 34.231815 137.480337 
L 28.283184 129.798476 
L 45.279272 129.798476 
L 39.330641 137.480337 
L 45.279272 151.909681 
L 28.283184 151.909681 
" style="fill:none;stroke:#bf00bf;stroke-linecap:square;"/>
   </g>
   <g id="line2d_127">
    <path clip-path="url(#p64e2ef1c36)" d="M 28.283184 151.909681 
L 45.279272 151.909681 
L 45.279272 129.798476 
L 28.283184 129.798476 
L 28.283184 151.909681 
" style="fill:none;"/>
    <defs>
     <path d="M 0 1.5 
C 0.397805 1.5 0.77937 1.341951 1.06066 1.06066 
C 1.341951 0.77937 1.5 0.397805 1.5 0 
C 1.5 -0.397805 1.341951 -0.77937 1.06066 -1.06066 
C 0.77937 -1.341951 0.397805 -1.5 0 -1.5 
C -0.397805 -1.5 -0.77937 -1.341951 -1.06066 -1.06066 
C -1.341951 -0.77937 -1.5 -0.397805 -1.5 0 
C -1.5 0.397805 -1.341951 0.77937 -1.06066 1.06066 
C -0.77937 1.341951 -0.397805 1.5 0 1.5 
z
" id="mb8fcece7bb" style="stroke:#bf00bf;"/>
    </defs>
    <g clip-path="url(#p64e2ef1c36)">
     <use style="fill:#bf00bf;stroke:#bf00bf;" x="28.283184" xlink:href="#mb8fcece7bb" y="151.909681"/>
     <use style="fill:#bf00bf;stroke:#bf00bf;" x="45.279272" xlink:href="#mb8fcece7bb" y="151.909681"/>
     <use style="fill:#bf00bf;stroke:#bf00bf;" x="45.279272" xlink:href="#mb8fcece7bb" y="129.798476"/>
     <use style="fill:#bf00bf;stroke:#bf00bf;" x="28.283184" xlink:href="#mb8fcece7bb" y="129.798476"/>
     <use style="fill:#bf00bf;stroke:#bf00bf;" x="28.283184" xlink:href="#mb8fcece7bb" y="151.909681"/>
    </g>
   </g>
   <g id="line2d_128">
    <path clip-path="url(#p64e2ef1c36)" d="M 28.283184 137.480337 
L 45.279272 137.480337 
" style="fill:none;stroke:#bf00bf;stroke-linecap:square;stroke-width:2;"/>
   </g>
   <g id="line2d_129">
    <path clip-path="url(#p64e2ef1c36)" d="M 82.51129 188.602884 
L 88.459921 129.953872 
L 82.51129 122.195878 
L 99.507378 122.195878 
L 93.558747 129.953872 
L 99.507378 188.602884 
L 82.51129 188.602884 
" style="fill:none;stroke:#bf00bf;stroke-linecap:square;"/>
   </g>
   <g id="line2d_130">
    <path clip-path="url(#p64e2ef1c36)" d="M 82.51129 188.602884 
L 99.507378 188.602884 
L 99.507378 122.195878 
L 82.51129 122.195878 
L 82.51129 188.602884 
" style="fill:none;"/>
    <g clip-path="url(#p64e2ef1c36)">
     <use style="fill:#bf00bf;stroke:#bf00bf;" x="82.51129" xlink:href="#mb8fcece7bb" y="188.602884"/>
     <use style="fill:#bf00bf;stroke:#bf00bf;" x="99.507378" xlink:href="#mb8fcece7bb" y="188.602884"/>
     <use style="fill:#bf00bf;stroke:#bf00bf;" x="99.507378" xlink:href="#mb8fcece7bb" y="122.195878"/>
     <use style="fill:#bf00bf;stroke:#bf00bf;" x="82.51129" xlink:href="#mb8fcece7bb" y="122.195878"/>
     <use style="fill:#bf00bf;stroke:#bf00bf;" x="82.51129" xlink:href="#mb8fcece7bb" y="188.602884"/>
    </g>
   </g>
   <g id="line2d_131">
    <path clip-path="url(#p64e2ef1c36)" d="M 82.51129 129.953872 
L 99.507378 129.953872 
" style="fill:none;stroke:#bf00bf;stroke-linecap:square;stroke-width:2;"/>
   </g>
   <g id="line2d_132">
    <path clip-path="url(#p64e2ef1c36)" d="M 36.781228 142.933036 
L 91.009334 129.954515 
" style="fill:none;stroke:#bf00bf;stroke-linecap:square;stroke-width:4;"/>
   </g>
   <g id="line2d_133">
    <path clip-path="url(#p64e2ef1c36)" d="M 36.781228 142.933036 
L 91.009334 129.954515 
" style="fill:none;"/>
    <defs>
     <path d="M 0 5 
C 1.326016 5 2.597899 4.473168 3.535534 3.535534 
C 4.473168 2.597899 5 1.326016 5 0 
C 5 -1.326016 4.473168 -2.597899 3.535534 -3.535534 
C 2.597899 -4.473168 1.326016 -5 0 -5 
C -1.326016 -5 -2.597899 -4.473168 -3.535534 -3.535534 
C -4.473168 -2.597899 -5 -1.326016 -5 0 
C -5 1.326016 -4.473168 2.597899 -3.535534 3.535534 
C -2.597899 4.473168 -1.326016 5 0 5 
z
" id="m31c583b340" style="stroke:#bf00bf;"/>
    </defs>
    <g clip-path="url(#p64e2ef1c36)">
     <use style="fill:#bf00bf;stroke:#bf00bf;" x="36.781228" xlink:href="#m31c583b340" y="142.933036"/>
     <use style="fill:#bf00bf;stroke:#bf00bf;" x="91.009334" xlink:href="#m31c583b340" y="129.954515"/>
    </g>
   </g>
   <g id="line2d_134">
    <path clip-path="url(#p64e2ef1c36)" d="M 27.220928 183.212489 
L 33.913138 149.236415 
L 27.220928 136.846751 
L 46.341527 136.846751 
L 39.649318 149.236415 
L 46.341527 183.212489 
L 27.220928 183.212489 
" style="fill:none;stroke:#ff0000;stroke-linecap:square;"/>
   </g>
   <g id="line2d_135">
    <path clip-path="url(#p64e2ef1c36)" d="M 27.220928 183.212489 
L 46.341527 183.212489 
L 46.341527 136.846751 
L 27.220928 136.846751 
L 27.220928 183.212489 
" style="fill:none;"/>
    <defs>
     <path d="M 0 3 
C 0.795609 3 1.55874 2.683901 2.12132 2.12132 
C 2.683901 1.55874 3 0.795609 3 0 
C 3 -0.795609 2.683901 -1.55874 2.12132 -2.12132 
C 1.55874 -2.683901 0.795609 -3 0 -3 
C -0.795609 -3 -1.55874 -2.683901 -2.12132 -2.12132 
C -2.683901 -1.55874 -3 -0.795609 -3 0 
C -3 0.795609 -2.683901 1.55874 -2.12132 2.12132 
C -1.55874 2.683901 -0.795609 3 0 3 
z
" id="m1737834639" style="stroke:#ff0000;stroke-width:2;"/>
    </defs>
    <g clip-path="url(#p64e2ef1c36)">
     <use style="fill:#ff0000;stroke:#ff0000;stroke-width:2;" x="27.220928" xlink:href="#m1737834639" y="183.212489"/>
     <use style="fill:#ff0000;stroke:#ff0000;stroke-width:2;" x="46.341527" xlink:href="#m1737834639" y="183.212489"/>
     <use style="fill:#ff0000;stroke:#ff0000;stroke-width:2;" x="46.341527" xlink:href="#m1737834639" y="136.846751"/>
     <use style="fill:#ff0000;stroke:#ff0000;stroke-width:2;" x="27.220928" xlink:href="#m1737834639" y="136.846751"/>
     <use style="fill:#ff0000;stroke:#ff0000;stroke-width:2;" x="27.220928" xlink:href="#m1737834639" y="183.212489"/>
    </g>
   </g>
   <g id="line2d_136">
    <path clip-path="url(#p64e2ef1c36)" d="M 27.220928 149.236415 
L 46.341527 149.236415 
" style="fill:none;stroke:#ff0000;stroke-linecap:square;stroke-width:2;"/>
   </g>
   <g id="line2d_137">
    <path clip-path="url(#p64e2ef1c36)" d="M 81.449034 190.67391 
L 88.141244 154.615455 
L 81.449034 129.974253 
L 100.569634 129.974253 
L 93.877424 154.615455 
L 100.569634 190.67391 
L 81.449034 190.67391 
" style="fill:none;stroke:#ff0000;stroke-linecap:square;"/>
   </g>
   <g id="line2d_138">
    <path clip-path="url(#p64e2ef1c36)" d="M 81.449034 190.67391 
L 100.569634 190.67391 
L 100.569634 129.974253 
L 81.449034 129.974253 
L 81.449034 190.67391 
" style="fill:none;"/>
    <g clip-path="url(#p64e2ef1c36)">
     <use style="fill:#ff0000;stroke:#ff0000;stroke-width:2;" x="81.449034" xlink:href="#m1737834639" y="190.67391"/>
     <use style="fill:#ff0000;stroke:#ff0000;stroke-width:2;" x="100.569634" xlink:href="#m1737834639" y="190.67391"/>
     <use style="fill:#ff0000;stroke:#ff0000;stroke-width:2;" x="100.569634" xlink:href="#m1737834639" y="129.974253"/>
     <use style="fill:#ff0000;stroke:#ff0000;stroke-width:2;" x="81.449034" xlink:href="#m1737834639" y="129.974253"/>
     <use style="fill:#ff0000;stroke:#ff0000;stroke-width:2;" x="81.449034" xlink:href="#m1737834639" y="190.67391"/>
    </g>
   </g>
   <g id="line2d_139">
    <path clip-path="url(#p64e2ef1c36)" d="M 81.449034 154.615455 
L 100.569634 154.615455 
" style="fill:none;stroke:#ff0000;stroke-linecap:square;stroke-width:2;"/>
   </g>
   <g id="line2d_140">
    <path clip-path="url(#p64e2ef1c36)" d="M 36.781228 142.316358 
L 91.009334 129.749914 
" style="fill:none;stroke:#ff0000;stroke-linecap:square;stroke-width:4;"/>
   </g>
   <g id="line2d_141">
    <path clip-path="url(#p64e2ef1c36)" d="M 36.781228 142.316358 
L 91.009334 129.749914 
" style="fill:none;"/>
    <defs>
     <path d="M 0 10 
C 2.652031 10 5.195799 8.946337 7.071068 7.071068 
C 8.946337 5.195799 10 2.652031 10 0 
C 10 -2.652031 8.946337 -5.195799 7.071068 -7.071068 
C 5.195799 -8.946337 2.652031 -10 0 -10 
C -2.652031 -10 -5.195799 -8.946337 -7.071068 -7.071068 
C -8.946337 -5.195799 -10 -2.652031 -10 0 
C -10 2.652031 -8.946337 5.195799 -7.071068 7.071068 
C -5.195799 8.946337 -2.652031 10 0 10 
z
" id="m2bf7fdf62e" style="stroke:#000000;stroke-width:2;"/>
    </defs>
    <g clip-path="url(#p64e2ef1c36)">
     <use style="fill:#ff0000;stroke:#000000;stroke-width:2;" x="36.781228" xlink:href="#m2bf7fdf62e" y="142.316358"/>
     <use style="fill:#ff0000;stroke:#000000;stroke-width:2;" x="91.009334" xlink:href="#m2bf7fdf62e" y="129.749914"/>
    </g>
   </g>
   <g id="line2d_142"/>
   <g id="line2d_143"/>
   <g id="line2d_144"/>
   <g id="line2d_145"/>
   <g id="line2d_146"/>
   <g id="line2d_147"/>
   <g id="line2d_148"/>
   <g id="line2d_149">
    <defs>
     <path d="M -10 10 
L 10 -10 
M -10 -10 
L 10 10 
" id="m6ab23af560" style="stroke:#ff0000;"/>
    </defs>
    <g clip-path="url(#p64e2ef1c36)">
     <use style="fill:#ff0000;stroke:#ff0000;" x="36.781228" xlink:href="#m6ab23af560" y="152.944455"/>
     <use style="fill:#ff0000;stroke:#ff0000;" x="91.009334" xlink:href="#m6ab23af560" y="144.795623"/>
     <use style="fill:#ff0000;stroke:#ff0000;" x="159.328668" xlink:href="#m6ab23af560" y="134.500231"/>
     <use style="fill:#ff0000;stroke:#ff0000;" x="252.032228" xlink:href="#m6ab23af560" y="120.532514"/>
     <use style="fill:#ff0000;stroke:#ff0000;" x="344.735788" xlink:href="#m6ab23af560" y="106.56263"/>
     <use style="fill:#ff0000;stroke:#ff0000;" x="437.439347" xlink:href="#m6ab23af560" y="92.593438"/>
    </g>
   </g>
   <g id="line2d_150">
    <path clip-path="url(#p64e2ef1c36)" d="M 76.366197 346.6 
L 461.8 288.518009 
" style="fill:none;stroke:#000000;stroke-dasharray:0.5,0.825;stroke-dashoffset:0;stroke-width:0.5;"/>
   </g>
   <g id="line2d_151">
    <path clip-path="url(#p64e2ef1c36)" d="M -1 265.44561 
L 461.8 195.705113 
" style="fill:none;stroke:#000000;stroke-dasharray:0.5,0.825;stroke-dashoffset:0;stroke-width:0.5;"/>
   </g>
   <g id="line2d_152">
    <path clip-path="url(#p64e2ef1c36)" d="M -1 172.632714 
L 461.8 102.892216 
" style="fill:none;stroke:#000000;stroke-dasharray:0.5,0.825;stroke-dashoffset:0;stroke-width:0.5;"/>
   </g>
   <g id="line2d_153">
    <path clip-path="url(#p64e2ef1c36)" d="M -1 79.819817 
L 461.8 10.079319 
" style="fill:none;stroke:#000000;stroke-dasharray:0.5,0.825;stroke-dashoffset:0;stroke-width:0.5;"/>
   </g>
   <g id="line2d_154">
    <path clip-path="url(#p64e2ef1c36)" style="fill:none;stroke:#000000;stroke-dasharray:0.5,0.825;stroke-dashoffset:0;stroke-width:0.5;"/>
   </g>
   <g id="patch_3">
    <path d="M 22.69 315.44 
L 22.69 27.72 
" style="fill:none;stroke:#000000;stroke-linecap:square;stroke-linejoin:miter;stroke-width:0.8;"/>
   </g>
   <g id="patch_4">
    <path d="M 453.192 315.44 
L 453.192 27.72 
" style="fill:none;stroke:#000000;stroke-linecap:square;stroke-linejoin:miter;stroke-width:0.8;"/>
   </g>
   <g id="patch_5">
    <path d="M 22.69 315.44 
L 453.192 315.44 
" style="fill:none;stroke:#000000;stroke-linecap:square;stroke-linejoin:miter;stroke-width:0.8;"/>
   </g>
   <g id="patch_6">
    <path d="M 22.69 27.72 
L 453.192 27.72 
" style="fill:none;stroke:#000000;stroke-linecap:square;stroke-linejoin:miter;stroke-width:0.8;"/>
   </g>
   <g id="text_14">
    <!-- 6 -->
    <g transform="translate(31.373103 130.609119)scale(0.17 -0.17)">
     <use xlink:href="#DejaVuSans-54"/>
    </g>
   </g>
   <g id="text_15">
    <!-- 5 -->
    <g transform="translate(85.601209 118.042676)scale(0.17 -0.17)">
     <use xlink:href="#DejaVuSans-53"/>
    </g>
   </g>
   <g id="text_16">
    <!-- 1 -->
    <g transform="translate(153.920543 69.512662)scale(0.17 -0.17)">
     <use xlink:href="#DejaVuSans-49"/>
    </g>
   </g>
   <g id="text_17">
    <!-- 10 -->
    <g transform="translate(241.215978 117.986535)scale(0.17 -0.17)">
     <use xlink:href="#DejaVuSans-49"/>
     <use x="63.623047" xlink:href="#DejaVuSans-48"/>
    </g>
   </g>
   <g id="text_18">
    <!-- 11 -->
    <g transform="translate(333.919538 111.499151)scale(0.17 -0.17)">
     <use xlink:href="#DejaVuSans-49"/>
     <use x="63.623047" xlink:href="#DejaVuSans-49"/>
    </g>
   </g>
   <g id="text_19">
    <!-- 6 -->
    <g transform="translate(432.031222 71.915266)scale(0.17 -0.17)">
     <use xlink:href="#DejaVuSans-54"/>
    </g>
   </g>
   <g id="text_20">
    <!-- 15 instances -->
    <g transform="translate(22.69 296.8515)scale(0.14 -0.14)">
     <defs>
      <path id="DejaVuSans-32"/>
      <path d="M 9.421875 54.6875 
L 18.40625 54.6875 
L 18.40625 0 
L 9.421875 0 
z
M 9.421875 75.984375 
L 18.40625 75.984375 
L 18.40625 64.59375 
L 9.421875 64.59375 
z
" id="DejaVuSans-105"/>
      <path d="M 54.890625 33.015625 
L 54.890625 0 
L 45.90625 0 
L 45.90625 32.71875 
Q 45.90625 40.484375 42.875 44.328125 
Q 39.84375 48.1875 33.796875 48.1875 
Q 26.515625 48.1875 22.3125 43.546875 
Q 18.109375 38.921875 18.109375 30.90625 
L 18.109375 0 
L 9.078125 0 
L 9.078125 54.6875 
L 18.109375 54.6875 
L 18.109375 46.1875 
Q 21.34375 51.125 25.703125 53.5625 
Q 30.078125 56 35.796875 56 
Q 45.21875 56 50.046875 50.171875 
Q 54.890625 44.34375 54.890625 33.015625 
z
" id="DejaVuSans-110"/>
      <path d="M 44.28125 53.078125 
L 44.28125 44.578125 
Q 40.484375 46.53125 36.375 47.5 
Q 32.28125 48.484375 27.875 48.484375 
Q 21.1875 48.484375 17.84375 46.4375 
Q 14.5 44.390625 14.5 40.28125 
Q 14.5 37.15625 16.890625 35.375 
Q 19.28125 33.59375 26.515625 31.984375 
L 29.59375 31.296875 
Q 39.15625 29.25 43.1875 25.515625 
Q 47.21875 21.78125 47.21875 15.09375 
Q 47.21875 7.46875 41.1875 3.015625 
Q 35.15625 -1.421875 24.609375 -1.421875 
Q 20.21875 -1.421875 15.453125 -0.5625 
Q 10.6875 0.296875 5.421875 2 
L 5.421875 11.28125 
Q 10.40625 8.6875 15.234375 7.390625 
Q 20.0625 6.109375 24.8125 6.109375 
Q 31.15625 6.109375 34.5625 8.28125 
Q 37.984375 10.453125 37.984375 14.40625 
Q 37.984375 18.0625 35.515625 20.015625 
Q 33.0625 21.96875 24.703125 23.78125 
L 21.578125 24.515625 
Q 13.234375 26.265625 9.515625 29.90625 
Q 5.8125 33.546875 5.8125 39.890625 
Q 5.8125 47.609375 11.28125 51.796875 
Q 16.75 56 26.8125 56 
Q 31.78125 56 36.171875 55.265625 
Q 40.578125 54.546875 44.28125 53.078125 
z
" id="DejaVuSans-115"/>
      <path d="M 18.3125 70.21875 
L 18.3125 54.6875 
L 36.8125 54.6875 
L 36.8125 47.703125 
L 18.3125 47.703125 
L 18.3125 18.015625 
Q 18.3125 11.328125 20.140625 9.421875 
Q 21.96875 7.515625 27.59375 7.515625 
L 36.8125 7.515625 
L 36.8125 0 
L 27.59375 0 
Q 17.1875 0 13.234375 3.875 
Q 9.28125 7.765625 9.28125 18.015625 
L 9.28125 47.703125 
L 2.6875 47.703125 
L 2.6875 54.6875 
L 9.28125 54.6875 
L 9.28125 70.21875 
z
" id="DejaVuSans-116"/>
      <path d="M 34.28125 27.484375 
Q 23.390625 27.484375 19.1875 25 
Q 14.984375 22.515625 14.984375 16.5 
Q 14.984375 11.71875 18.140625 8.90625 
Q 21.296875 6.109375 26.703125 6.109375 
Q 34.1875 6.109375 38.703125 11.40625 
Q 43.21875 16.703125 43.21875 25.484375 
L 43.21875 27.484375 
z
M 52.203125 31.203125 
L 52.203125 0 
L 43.21875 0 
L 43.21875 8.296875 
Q 40.140625 3.328125 35.546875 0.953125 
Q 30.953125 -1.421875 24.3125 -1.421875 
Q 15.921875 -1.421875 10.953125 3.296875 
Q 6 8.015625 6 15.921875 
Q 6 25.140625 12.171875 29.828125 
Q 18.359375 34.515625 30.609375 34.515625 
L 43.21875 34.515625 
L 43.21875 35.40625 
Q 43.21875 41.609375 39.140625 45 
Q 35.0625 48.390625 27.6875 48.390625 
Q 23 48.390625 18.546875 47.265625 
Q 14.109375 46.140625 10.015625 43.890625 
L 10.015625 52.203125 
Q 14.9375 54.109375 19.578125 55.046875 
Q 24.21875 56 28.609375 56 
Q 40.484375 56 46.34375 49.84375 
Q 52.203125 43.703125 52.203125 31.203125 
z
" id="DejaVuSans-97"/>
      <path d="M 48.78125 52.59375 
L 48.78125 44.1875 
Q 44.96875 46.296875 41.140625 47.34375 
Q 37.3125 48.390625 33.40625 48.390625 
Q 24.65625 48.390625 19.8125 42.84375 
Q 14.984375 37.3125 14.984375 27.296875 
Q 14.984375 17.28125 19.8125 11.734375 
Q 24.65625 6.203125 33.40625 6.203125 
Q 37.3125 6.203125 41.140625 7.25 
Q 44.96875 8.296875 48.78125 10.40625 
L 48.78125 2.09375 
Q 45.015625 0.34375 40.984375 -0.53125 
Q 36.96875 -1.421875 32.421875 -1.421875 
Q 20.0625 -1.421875 12.78125 6.34375 
Q 5.515625 14.109375 5.515625 27.296875 
Q 5.515625 40.671875 12.859375 48.328125 
Q 20.21875 56 33.015625 56 
Q 37.15625 56 41.109375 55.140625 
Q 45.0625 54.296875 48.78125 52.59375 
z
" id="DejaVuSans-99"/>
      <path d="M 56.203125 29.59375 
L 56.203125 25.203125 
L 14.890625 25.203125 
Q 15.484375 15.921875 20.484375 11.0625 
Q 25.484375 6.203125 34.421875 6.203125 
Q 39.59375 6.203125 44.453125 7.46875 
Q 49.3125 8.734375 54.109375 11.28125 
L 54.109375 2.78125 
Q 49.265625 0.734375 44.1875 -0.34375 
Q 39.109375 -1.421875 33.890625 -1.421875 
Q 20.796875 -1.421875 13.15625 6.1875 
Q 5.515625 13.8125 5.515625 26.8125 
Q 5.515625 40.234375 12.765625 48.109375 
Q 20.015625 56 32.328125 56 
Q 43.359375 56 49.78125 48.890625 
Q 56.203125 41.796875 56.203125 29.59375 
z
M 47.21875 32.234375 
Q 47.125 39.59375 43.09375 43.984375 
Q 39.0625 48.390625 32.421875 48.390625 
Q 24.90625 48.390625 20.390625 44.140625 
Q 15.875 39.890625 15.1875 32.171875 
z
" id="DejaVuSans-101"/>
     </defs>
     <use xlink:href="#DejaVuSans-49"/>
     <use x="63.623047" xlink:href="#DejaVuSans-53"/>
     <use x="127.246094" xlink:href="#DejaVuSans-32"/>
     <use x="159.033203" xlink:href="#DejaVuSans-105"/>
     <use x="186.816406" xlink:href="#DejaVuSans-110"/>
     <use x="250.195312" xlink:href="#DejaVuSans-115"/>
     <use x="302.294922" xlink:href="#DejaVuSans-116"/>
     <use x="341.503906" xlink:href="#DejaVuSans-97"/>
     <use x="402.783203" xlink:href="#DejaVuSans-110"/>
     <use x="466.162109" xlink:href="#DejaVuSans-99"/>
     <use x="521.142578" xlink:href="#DejaVuSans-101"/>
     <use x="582.666016" xlink:href="#DejaVuSans-115"/>
    </g>
    <!-- absolute targets -->
    <g transform="translate(22.69 312.528437)scale(0.14 -0.14)">
     <defs>
      <path d="M 48.6875 27.296875 
Q 48.6875 37.203125 44.609375 42.84375 
Q 40.53125 48.484375 33.40625 48.484375 
Q 26.265625 48.484375 22.1875 42.84375 
Q 18.109375 37.203125 18.109375 27.296875 
Q 18.109375 17.390625 22.1875 11.75 
Q 26.265625 6.109375 33.40625 6.109375 
Q 40.53125 6.109375 44.609375 11.75 
Q 48.6875 17.390625 48.6875 27.296875 
z
M 18.109375 46.390625 
Q 20.953125 51.265625 25.265625 53.625 
Q 29.59375 56 35.59375 56 
Q 45.5625 56 51.78125 48.09375 
Q 58.015625 40.1875 58.015625 27.296875 
Q 58.015625 14.40625 51.78125 6.484375 
Q 45.5625 -1.421875 35.59375 -1.421875 
Q 29.59375 -1.421875 25.265625 0.953125 
Q 20.953125 3.328125 18.109375 8.203125 
L 18.109375 0 
L 9.078125 0 
L 9.078125 75.984375 
L 18.109375 75.984375 
z
" id="DejaVuSans-98"/>
      <path d="M 30.609375 48.390625 
Q 23.390625 48.390625 19.1875 42.75 
Q 14.984375 37.109375 14.984375 27.296875 
Q 14.984375 17.484375 19.15625 11.84375 
Q 23.34375 6.203125 30.609375 6.203125 
Q 37.796875 6.203125 41.984375 11.859375 
Q 46.1875 17.53125 46.1875 27.296875 
Q 46.1875 37.015625 41.984375 42.703125 
Q 37.796875 48.390625 30.609375 48.390625 
z
M 30.609375 56 
Q 42.328125 56 49.015625 48.375 
Q 55.71875 40.765625 55.71875 27.296875 
Q 55.71875 13.875 49.015625 6.21875 
Q 42.328125 -1.421875 30.609375 -1.421875 
Q 18.84375 -1.421875 12.171875 6.21875 
Q 5.515625 13.875 5.515625 27.296875 
Q 5.515625 40.765625 12.171875 48.375 
Q 18.84375 56 30.609375 56 
z
" id="DejaVuSans-111"/>
      <path d="M 9.421875 75.984375 
L 18.40625 75.984375 
L 18.40625 0 
L 9.421875 0 
z
" id="DejaVuSans-108"/>
      <path d="M 8.5 21.578125 
L 8.5 54.6875 
L 17.484375 54.6875 
L 17.484375 21.921875 
Q 17.484375 14.15625 20.5 10.265625 
Q 23.53125 6.390625 29.59375 6.390625 
Q 36.859375 6.390625 41.078125 11.03125 
Q 45.3125 15.671875 45.3125 23.6875 
L 45.3125 54.6875 
L 54.296875 54.6875 
L 54.296875 0 
L 45.3125 0 
L 45.3125 8.40625 
Q 42.046875 3.421875 37.71875 1 
Q 33.40625 -1.421875 27.6875 -1.421875 
Q 18.265625 -1.421875 13.375 4.4375 
Q 8.5 10.296875 8.5 21.578125 
z
M 31.109375 56 
z
" id="DejaVuSans-117"/>
      <path d="M 41.109375 46.296875 
Q 39.59375 47.171875 37.8125 47.578125 
Q 36.03125 48 33.890625 48 
Q 26.265625 48 22.1875 43.046875 
Q 18.109375 38.09375 18.109375 28.8125 
L 18.109375 0 
L 9.078125 0 
L 9.078125 54.6875 
L 18.109375 54.6875 
L 18.109375 46.1875 
Q 20.953125 51.171875 25.484375 53.578125 
Q 30.03125 56 36.53125 56 
Q 37.453125 56 38.578125 55.875 
Q 39.703125 55.765625 41.0625 55.515625 
z
" id="DejaVuSans-114"/>
      <path d="M 45.40625 27.984375 
Q 45.40625 37.75 41.375 43.109375 
Q 37.359375 48.484375 30.078125 48.484375 
Q 22.859375 48.484375 18.828125 43.109375 
Q 14.796875 37.75 14.796875 27.984375 
Q 14.796875 18.265625 18.828125 12.890625 
Q 22.859375 7.515625 30.078125 7.515625 
Q 37.359375 7.515625 41.375 12.890625 
Q 45.40625 18.265625 45.40625 27.984375 
z
M 54.390625 6.78125 
Q 54.390625 -7.171875 48.1875 -13.984375 
Q 42 -20.796875 29.203125 -20.796875 
Q 24.46875 -20.796875 20.265625 -20.09375 
Q 16.0625 -19.390625 12.109375 -17.921875 
L 12.109375 -9.1875 
Q 16.0625 -11.328125 19.921875 -12.34375 
Q 23.78125 -13.375 27.78125 -13.375 
Q 36.625 -13.375 41.015625 -8.765625 
Q 45.40625 -4.15625 45.40625 5.171875 
L 45.40625 9.625 
Q 42.625 4.78125 38.28125 2.390625 
Q 33.9375 0 27.875 0 
Q 17.828125 0 11.671875 7.65625 
Q 5.515625 15.328125 5.515625 27.984375 
Q 5.515625 40.671875 11.671875 48.328125 
Q 17.828125 56 27.875 56 
Q 33.9375 56 38.28125 53.609375 
Q 42.625 51.21875 45.40625 46.390625 
L 45.40625 54.6875 
L 54.390625 54.6875 
z
" id="DejaVuSans-103"/>
     </defs>
     <use xlink:href="#DejaVuSans-97"/>
     <use x="61.279297" xlink:href="#DejaVuSans-98"/>
     <use x="124.755859" xlink:href="#DejaVuSans-115"/>
     <use x="176.855469" xlink:href="#DejaVuSans-111"/>
     <use x="238.037109" xlink:href="#DejaVuSans-108"/>
     <use x="265.820312" xlink:href="#DejaVuSans-117"/>
     <use x="329.199219" xlink:href="#DejaVuSans-116"/>
     <use x="368.408203" xlink:href="#DejaVuSans-101"/>
     <use x="429.931641" xlink:href="#DejaVuSans-32"/>
     <use x="461.71875" xlink:href="#DejaVuSans-116"/>
     <use x="500.927734" xlink:href="#DejaVuSans-97"/>
     <use x="562.207031" xlink:href="#DejaVuSans-114"/>
     <use x="601.570312" xlink:href="#DejaVuSans-103"/>
     <use x="665.046875" xlink:href="#DejaVuSans-101"/>
     <use x="726.570312" xlink:href="#DejaVuSans-116"/>
     <use x="765.779297" xlink:href="#DejaVuSans-115"/>
    </g>
   </g>
   <g id="text_21">
    <!-- v2.4 -->
    <g style="fill:#808080;" transform="translate(227.030063 310.483113)scale(0.1 -0.1)">
     <defs>
      <path d="M 2.984375 54.6875 
L 12.5 54.6875 
L 29.59375 8.796875 
L 46.6875 54.6875 
L 56.203125 54.6875 
L 35.6875 0 
L 23.484375 0 
z
" id="DejaVuSans-118"/>
      <path d="M 10.6875 12.40625 
L 21 12.40625 
L 21 0 
L 10.6875 0 
z
" id="DejaVuSans-46"/>
     </defs>
     <use xlink:href="#DejaVuSans-118"/>
     <use x="59.179688" xlink:href="#DejaVuSans-50"/>
     <use x="122.802734" xlink:href="#DejaVuSans-46"/>
     <use x="154.589844" xlink:href="#DejaVuSans-52"/>
    </g>
   </g>
   <g id="text_22">
    <!-- 19 Griewank-Rosenbrock F8F2 -->
    <g transform="translate(55.419125 21.72)scale(0.24 -0.24)">
     <defs>
      <path d="M 10.984375 1.515625 
L 10.984375 10.5 
Q 14.703125 8.734375 18.5 7.8125 
Q 22.3125 6.890625 25.984375 6.890625 
Q 35.75 6.890625 40.890625 13.453125 
Q 46.046875 20.015625 46.78125 33.40625 
Q 43.953125 29.203125 39.59375 26.953125 
Q 35.25 24.703125 29.984375 24.703125 
Q 19.046875 24.703125 12.671875 31.3125 
Q 6.296875 37.9375 6.296875 49.421875 
Q 6.296875 60.640625 12.9375 67.421875 
Q 19.578125 74.21875 30.609375 74.21875 
Q 43.265625 74.21875 49.921875 64.515625 
Q 56.59375 54.828125 56.59375 36.375 
Q 56.59375 19.140625 48.40625 8.859375 
Q 40.234375 -1.421875 26.421875 -1.421875 
Q 22.703125 -1.421875 18.890625 -0.6875 
Q 15.09375 0.046875 10.984375 1.515625 
z
M 30.609375 32.421875 
Q 37.25 32.421875 41.125 36.953125 
Q 45.015625 41.5 45.015625 49.421875 
Q 45.015625 57.28125 41.125 61.84375 
Q 37.25 66.40625 30.609375 66.40625 
Q 23.96875 66.40625 20.09375 61.84375 
Q 16.21875 57.28125 16.21875 49.421875 
Q 16.21875 41.5 20.09375 36.953125 
Q 23.96875 32.421875 30.609375 32.421875 
z
" id="DejaVuSans-57"/>
      <path d="M 59.515625 10.40625 
L 59.515625 29.984375 
L 43.40625 29.984375 
L 43.40625 38.09375 
L 69.28125 38.09375 
L 69.28125 6.78125 
Q 63.578125 2.734375 56.6875 0.65625 
Q 49.8125 -1.421875 42 -1.421875 
Q 24.90625 -1.421875 15.25 8.5625 
Q 5.609375 18.5625 5.609375 36.375 
Q 5.609375 54.25 15.25 64.234375 
Q 24.90625 74.21875 42 74.21875 
Q 49.125 74.21875 55.546875 72.453125 
Q 61.96875 70.703125 67.390625 67.28125 
L 67.390625 56.78125 
Q 61.921875 61.421875 55.765625 63.765625 
Q 49.609375 66.109375 42.828125 66.109375 
Q 29.4375 66.109375 22.71875 58.640625 
Q 16.015625 51.171875 16.015625 36.375 
Q 16.015625 21.625 22.71875 14.15625 
Q 29.4375 6.6875 42.828125 6.6875 
Q 48.046875 6.6875 52.140625 7.59375 
Q 56.25 8.5 59.515625 10.40625 
z
" id="DejaVuSans-71"/>
      <path d="M 4.203125 54.6875 
L 13.1875 54.6875 
L 24.421875 12.015625 
L 35.59375 54.6875 
L 46.1875 54.6875 
L 57.421875 12.015625 
L 68.609375 54.6875 
L 77.59375 54.6875 
L 63.28125 0 
L 52.6875 0 
L 40.921875 44.828125 
L 29.109375 0 
L 18.5 0 
z
" id="DejaVuSans-119"/>
      <path d="M 9.078125 75.984375 
L 18.109375 75.984375 
L 18.109375 31.109375 
L 44.921875 54.6875 
L 56.390625 54.6875 
L 27.390625 29.109375 
L 57.625 0 
L 45.90625 0 
L 18.109375 26.703125 
L 18.109375 0 
L 9.078125 0 
z
" id="DejaVuSans-107"/>
      <path d="M 4.890625 31.390625 
L 31.203125 31.390625 
L 31.203125 23.390625 
L 4.890625 23.390625 
z
" id="DejaVuSans-45"/>
      <path d="M 44.390625 34.1875 
Q 47.5625 33.109375 50.5625 29.59375 
Q 53.5625 26.078125 56.59375 19.921875 
L 66.609375 0 
L 56 0 
L 46.6875 18.703125 
Q 43.0625 26.03125 39.671875 28.421875 
Q 36.28125 30.8125 30.421875 30.8125 
L 19.671875 30.8125 
L 19.671875 0 
L 9.8125 0 
L 9.8125 72.90625 
L 32.078125 72.90625 
Q 44.578125 72.90625 50.734375 67.671875 
Q 56.890625 62.453125 56.890625 51.90625 
Q 56.890625 45.015625 53.6875 40.46875 
Q 50.484375 35.9375 44.390625 34.1875 
z
M 19.671875 64.796875 
L 19.671875 38.921875 
L 32.078125 38.921875 
Q 39.203125 38.921875 42.84375 42.21875 
Q 46.484375 45.515625 46.484375 51.90625 
Q 46.484375 58.296875 42.84375 61.546875 
Q 39.203125 64.796875 32.078125 64.796875 
z
" id="DejaVuSans-82"/>
      <path d="M 9.8125 72.90625 
L 51.703125 72.90625 
L 51.703125 64.59375 
L 19.671875 64.59375 
L 19.671875 43.109375 
L 48.578125 43.109375 
L 48.578125 34.8125 
L 19.671875 34.8125 
L 19.671875 0 
L 9.8125 0 
z
" id="DejaVuSans-70"/>
      <path d="M 31.78125 34.625 
Q 24.75 34.625 20.71875 30.859375 
Q 16.703125 27.09375 16.703125 20.515625 
Q 16.703125 13.921875 20.71875 10.15625 
Q 24.75 6.390625 31.78125 6.390625 
Q 38.8125 6.390625 42.859375 10.171875 
Q 46.921875 13.96875 46.921875 20.515625 
Q 46.921875 27.09375 42.890625 30.859375 
Q 38.875 34.625 31.78125 34.625 
z
M 21.921875 38.8125 
Q 15.578125 40.375 12.03125 44.71875 
Q 8.5 49.078125 8.5 55.328125 
Q 8.5 64.0625 14.71875 69.140625 
Q 20.953125 74.21875 31.78125 74.21875 
Q 42.671875 74.21875 48.875 69.140625 
Q 55.078125 64.0625 55.078125 55.328125 
Q 55.078125 49.078125 51.53125 44.71875 
Q 48 40.375 41.703125 38.8125 
Q 48.828125 37.15625 52.796875 32.3125 
Q 56.78125 27.484375 56.78125 20.515625 
Q 56.78125 9.90625 50.3125 4.234375 
Q 43.84375 -1.421875 31.78125 -1.421875 
Q 19.734375 -1.421875 13.25 4.234375 
Q 6.78125 9.90625 6.78125 20.515625 
Q 6.78125 27.484375 10.78125 32.3125 
Q 14.796875 37.15625 21.921875 38.8125 
z
M 18.3125 54.390625 
Q 18.3125 48.734375 21.84375 45.5625 
Q 25.390625 42.390625 31.78125 42.390625 
Q 38.140625 42.390625 41.71875 45.5625 
Q 45.3125 48.734375 45.3125 54.390625 
Q 45.3125 60.0625 41.71875 63.234375 
Q 38.140625 66.40625 31.78125 66.40625 
Q 25.390625 66.40625 21.84375 63.234375 
Q 18.3125 60.0625 18.3125 54.390625 
z
" id="DejaVuSans-56"/>
     </defs>
     <use xlink:href="#DejaVuSans-49"/>
     <use x="63.623047" xlink:href="#DejaVuSans-57"/>
     <use x="127.246094" xlink:href="#DejaVuSans-32"/>
     <use x="159.033203" xlink:href="#DejaVuSans-71"/>
     <use x="236.523438" xlink:href="#DejaVuSans-114"/>
     <use x="277.636719" xlink:href="#DejaVuSans-105"/>
     <use x="305.419922" xlink:href="#DejaVuSans-101"/>
     <use x="366.943359" xlink:href="#DejaVuSans-119"/>
     <use x="448.730469" xlink:href="#DejaVuSans-97"/>
     <use x="510.009766" xlink:href="#DejaVuSans-110"/>
     <use x="573.388672" xlink:href="#DejaVuSans-107"/>
     <use x="631.298828" xlink:href="#DejaVuSans-45"/>
     <use x="667.382812" xlink:href="#DejaVuSans-82"/>
     <use x="732.365234" xlink:href="#DejaVuSans-111"/>
     <use x="793.546875" xlink:href="#DejaVuSans-115"/>
     <use x="845.646484" xlink:href="#DejaVuSans-101"/>
     <use x="907.169922" xlink:href="#DejaVuSans-110"/>
     <use x="970.548828" xlink:href="#DejaVuSans-98"/>
     <use x="1034.025391" xlink:href="#DejaVuSans-114"/>
     <use x="1072.888672" xlink:href="#DejaVuSans-111"/>
     <use x="1134.070312" xlink:href="#DejaVuSans-99"/>
     <use x="1189.050781" xlink:href="#DejaVuSans-107"/>
     <use x="1246.960938" xlink:href="#DejaVuSans-32"/>
     <use x="1278.748047" xlink:href="#DejaVuSans-70"/>
     <use x="1336.267578" xlink:href="#DejaVuSans-56"/>
     <use x="1399.890625" xlink:href="#DejaVuSans-70"/>
     <use x="1457.410156" xlink:href="#DejaVuSans-50"/>
    </g>
   </g>
  </g>
 </g>
 <defs>
  <clipPath id="p64e2ef1c36">
   <rect height="287.72" width="430.502" x="22.69" y="27.72"/>
  </clipPath>
 </defs>
</svg>
