<?xml version="1.0" encoding="utf-8" standalone="no"?>
<!DOCTYPE svg PUBLIC "-//W3C//DTD SVG 1.1//EN"
  "http://www.w3.org/Graphics/SVG/1.1/DTD/svg11.dtd">
<!-- Created with matplotlib (https://matplotlib.org/) -->
<svg height="345.6pt" version="1.1" viewBox="0 0 460.8 345.6" width="460.8pt" xmlns="http://www.w3.org/2000/svg" xmlns:xlink="http://www.w3.org/1999/xlink">
 <metadata>
  <rdf:RDF xmlns:cc="http://creativecommons.org/ns#" xmlns:dc="http://purl.org/dc/elements/1.1/" xmlns:rdf="http://www.w3.org/1999/02/22-rdf-syntax-ns#">
   <cc:Work>
    <dc:type rdf:resource="http://purl.org/dc/dcmitype/StillImage"/>
    <dc:date>2021-06-17T01:37:59.715336</dc:date>
    <dc:format>image/svg+xml</dc:format>
    <dc:creator>
     <cc:Agent>
      <dc:title>Matplotlib v3.3.4, https://matplotlib.org/</dc:title>
     </cc:Agent>
    </dc:creator>
   </cc:Work>
  </rdf:RDF>
 </metadata>
 <defs>
  <style type="text/css">*{stroke-linecap:butt;stroke-linejoin:round;}</style>
 </defs>
 <g id="figure_1">
  <g id="patch_1">
   <path d="M 0 345.6 
L 460.8 345.6 
L 460.8 0 
L 0 0 
z
" style="fill:#ffffff;"/>
  </g>
  <g id="axes_1">
   <g id="patch_2">
    <path d="M 0 293.76 
L 460.8 293.76 
L 460.8 3.456 
L 0 3.456 
z
" style="fill:#ffffff;"/>
   </g>
   <g id="matplotlib.axis_1">
    <g id="xtick_1">
     <g id="line2d_1">
      <path clip-path="url(#p6f50506c58)" d="M 102.824509 293.76 
L 102.824509 3.456 
" style="fill:none;stroke:#b0b0b0;stroke-linecap:square;stroke-width:0.8;"/>
     </g>
     <g id="line2d_2">
      <defs>
       <path d="M 0 0 
L 0 3.5 
" id="m3c56338b28" style="stroke:#000000;stroke-width:0.8;"/>
      </defs>
      <g>
       <use style="stroke:#000000;stroke-width:0.8;" x="102.824509" xlink:href="#m3c56338b28" y="293.76"/>
      </g>
     </g>
     <g id="text_1">
      <!-- -4 -->
      <g transform="translate(92.854196 315.956875)scale(0.2 -0.2)">
       <defs>
        <path d="M 4.890625 31.390625 
L 31.203125 31.390625 
L 31.203125 23.390625 
L 4.890625 23.390625 
z
" id="DejaVuSans-45"/>
        <path d="M 37.796875 64.3125 
L 12.890625 25.390625 
L 37.796875 25.390625 
z
M 35.203125 72.90625 
L 47.609375 72.90625 
L 47.609375 25.390625 
L 58.015625 25.390625 
L 58.015625 17.1875 
L 47.609375 17.1875 
L 47.609375 0 
L 37.796875 0 
L 37.796875 17.1875 
L 4.890625 17.1875 
L 4.890625 26.703125 
z
" id="DejaVuSans-52"/>
       </defs>
       <use xlink:href="#DejaVuSans-45"/>
       <use x="36.083984" xlink:href="#DejaVuSans-52"/>
      </g>
     </g>
    </g>
    <g id="xtick_2">
     <g id="line2d_3">
      <path clip-path="url(#p6f50506c58)" d="M 205.760223 293.76 
L 205.760223 3.456 
" style="fill:none;stroke:#b0b0b0;stroke-linecap:square;stroke-width:0.8;"/>
     </g>
     <g id="line2d_4">
      <g>
       <use style="stroke:#000000;stroke-width:0.8;" x="205.760223" xlink:href="#m3c56338b28" y="293.76"/>
      </g>
     </g>
     <g id="text_2">
      <!-- 0 -->
      <g transform="translate(199.397723 315.956875)scale(0.2 -0.2)">
       <defs>
        <path d="M 31.78125 66.40625 
Q 24.171875 66.40625 20.328125 58.90625 
Q 16.5 51.421875 16.5 36.375 
Q 16.5 21.390625 20.328125 13.890625 
Q 24.171875 6.390625 31.78125 6.390625 
Q 39.453125 6.390625 43.28125 13.890625 
Q 47.125 21.390625 47.125 36.375 
Q 47.125 51.421875 43.28125 58.90625 
Q 39.453125 66.40625 31.78125 66.40625 
z
M 31.78125 74.21875 
Q 44.046875 74.21875 50.515625 64.515625 
Q 56.984375 54.828125 56.984375 36.375 
Q 56.984375 17.96875 50.515625 8.265625 
Q 44.046875 -1.421875 31.78125 -1.421875 
Q 19.53125 -1.421875 13.0625 8.265625 
Q 6.59375 17.96875 6.59375 36.375 
Q 6.59375 54.828125 13.0625 64.515625 
Q 19.53125 74.21875 31.78125 74.21875 
z
" id="DejaVuSans-48"/>
       </defs>
       <use xlink:href="#DejaVuSans-48"/>
      </g>
     </g>
    </g>
    <g id="xtick_3">
     <g id="line2d_5">
      <path clip-path="url(#p6f50506c58)" d="M 308.695938 293.76 
L 308.695938 3.456 
" style="fill:none;stroke:#b0b0b0;stroke-linecap:square;stroke-width:0.8;"/>
     </g>
     <g id="line2d_6">
      <g>
       <use style="stroke:#000000;stroke-width:0.8;" x="308.695938" xlink:href="#m3c56338b28" y="293.76"/>
      </g>
     </g>
     <g id="text_3">
      <!-- 4 -->
      <g transform="translate(302.333438 315.956875)scale(0.2 -0.2)">
       <use xlink:href="#DejaVuSans-52"/>
      </g>
     </g>
    </g>
    <g id="xtick_4">
     <g id="line2d_7">
      <path clip-path="url(#p6f50506c58)" d="M 411.631653 293.76 
L 411.631653 3.456 
" style="fill:none;stroke:#b0b0b0;stroke-linecap:square;stroke-width:0.8;"/>
     </g>
     <g id="line2d_8">
      <g>
       <use style="stroke:#000000;stroke-width:0.8;" x="411.631653" xlink:href="#m3c56338b28" y="293.76"/>
      </g>
     </g>
     <g id="text_4">
      <!-- 8 -->
      <g transform="translate(405.269153 315.956875)scale(0.2 -0.2)">
       <defs>
        <path d="M 31.78125 34.625 
Q 24.75 34.625 20.71875 30.859375 
Q 16.703125 27.09375 16.703125 20.515625 
Q 16.703125 13.921875 20.71875 10.15625 
Q 24.75 6.390625 31.78125 6.390625 
Q 38.8125 6.390625 42.859375 10.171875 
Q 46.921875 13.96875 46.921875 20.515625 
Q 46.921875 27.09375 42.890625 30.859375 
Q 38.875 34.625 31.78125 34.625 
z
M 21.921875 38.8125 
Q 15.578125 40.375 12.03125 44.71875 
Q 8.5 49.078125 8.5 55.328125 
Q 8.5 64.0625 14.71875 69.140625 
Q 20.953125 74.21875 31.78125 74.21875 
Q 42.671875 74.21875 48.875 69.140625 
Q 55.078125 64.0625 55.078125 55.328125 
Q 55.078125 49.078125 51.53125 44.71875 
Q 48 40.375 41.703125 38.8125 
Q 48.828125 37.15625 52.796875 32.3125 
Q 56.78125 27.484375 56.78125 20.515625 
Q 56.78125 9.90625 50.3125 4.234375 
Q 43.84375 -1.421875 31.78125 -1.421875 
Q 19.734375 -1.421875 13.25 4.234375 
Q 6.78125 9.90625 6.78125 20.515625 
Q 6.78125 27.484375 10.78125 32.3125 
Q 14.796875 37.15625 21.921875 38.8125 
z
M 18.3125 54.390625 
Q 18.3125 48.734375 21.84375 45.5625 
Q 25.390625 42.390625 31.78125 42.390625 
Q 38.140625 42.390625 41.71875 45.5625 
Q 45.3125 48.734375 45.3125 54.390625 
Q 45.3125 60.0625 41.71875 63.234375 
Q 38.140625 66.40625 31.78125 66.40625 
Q 25.390625 66.40625 21.84375 63.234375 
Q 18.3125 60.0625 18.3125 54.390625 
z
" id="DejaVuSans-56"/>
       </defs>
       <use xlink:href="#DejaVuSans-56"/>
      </g>
     </g>
    </g>
    <g id="text_5">
     <!-- log10 of Df -->
     <g transform="translate(175.214063 339.313125)scale(0.2 -0.2)">
      <defs>
       <path d="M 9.421875 75.984375 
L 18.40625 75.984375 
L 18.40625 0 
L 9.421875 0 
z
" id="DejaVuSans-108"/>
       <path d="M 30.609375 48.390625 
Q 23.390625 48.390625 19.1875 42.75 
Q 14.984375 37.109375 14.984375 27.296875 
Q 14.984375 17.484375 19.15625 11.84375 
Q 23.34375 6.203125 30.609375 6.203125 
Q 37.796875 6.203125 41.984375 11.859375 
Q 46.1875 17.53125 46.1875 27.296875 
Q 46.1875 37.015625 41.984375 42.703125 
Q 37.796875 48.390625 30.609375 48.390625 
z
M 30.609375 56 
Q 42.328125 56 49.015625 48.375 
Q 55.71875 40.765625 55.71875 27.296875 
Q 55.71875 13.875 49.015625 6.21875 
Q 42.328125 -1.421875 30.609375 -1.421875 
Q 18.84375 -1.421875 12.171875 6.21875 
Q 5.515625 13.875 5.515625 27.296875 
Q 5.515625 40.765625 12.171875 48.375 
Q 18.84375 56 30.609375 56 
z
" id="DejaVuSans-111"/>
       <path d="M 45.40625 27.984375 
Q 45.40625 37.75 41.375 43.109375 
Q 37.359375 48.484375 30.078125 48.484375 
Q 22.859375 48.484375 18.828125 43.109375 
Q 14.796875 37.75 14.796875 27.984375 
Q 14.796875 18.265625 18.828125 12.890625 
Q 22.859375 7.515625 30.078125 7.515625 
Q 37.359375 7.515625 41.375 12.890625 
Q 45.40625 18.265625 45.40625 27.984375 
z
M 54.390625 6.78125 
Q 54.390625 -7.171875 48.1875 -13.984375 
Q 42 -20.796875 29.203125 -20.796875 
Q 24.46875 -20.796875 20.265625 -20.09375 
Q 16.0625 -19.390625 12.109375 -17.921875 
L 12.109375 -9.1875 
Q 16.0625 -11.328125 19.921875 -12.34375 
Q 23.78125 -13.375 27.78125 -13.375 
Q 36.625 -13.375 41.015625 -8.765625 
Q 45.40625 -4.15625 45.40625 5.171875 
L 45.40625 9.625 
Q 42.625 4.78125 38.28125 2.390625 
Q 33.9375 0 27.875 0 
Q 17.828125 0 11.671875 7.65625 
Q 5.515625 15.328125 5.515625 27.984375 
Q 5.515625 40.671875 11.671875 48.328125 
Q 17.828125 56 27.875 56 
Q 33.9375 56 38.28125 53.609375 
Q 42.625 51.21875 45.40625 46.390625 
L 45.40625 54.6875 
L 54.390625 54.6875 
z
" id="DejaVuSans-103"/>
       <path d="M 12.40625 8.296875 
L 28.515625 8.296875 
L 28.515625 63.921875 
L 10.984375 60.40625 
L 10.984375 69.390625 
L 28.421875 72.90625 
L 38.28125 72.90625 
L 38.28125 8.296875 
L 54.390625 8.296875 
L 54.390625 0 
L 12.40625 0 
z
" id="DejaVuSans-49"/>
       <path id="DejaVuSans-32"/>
       <path d="M 37.109375 75.984375 
L 37.109375 68.5 
L 28.515625 68.5 
Q 23.6875 68.5 21.796875 66.546875 
Q 19.921875 64.59375 19.921875 59.515625 
L 19.921875 54.6875 
L 34.71875 54.6875 
L 34.71875 47.703125 
L 19.921875 47.703125 
L 19.921875 0 
L 10.890625 0 
L 10.890625 47.703125 
L 2.296875 47.703125 
L 2.296875 54.6875 
L 10.890625 54.6875 
L 10.890625 58.5 
Q 10.890625 67.625 15.140625 71.796875 
Q 19.390625 75.984375 28.609375 75.984375 
z
" id="DejaVuSans-102"/>
       <path d="M 19.671875 64.796875 
L 19.671875 8.109375 
L 31.59375 8.109375 
Q 46.6875 8.109375 53.6875 14.9375 
Q 60.6875 21.78125 60.6875 36.53125 
Q 60.6875 51.171875 53.6875 57.984375 
Q 46.6875 64.796875 31.59375 64.796875 
z
M 9.8125 72.90625 
L 30.078125 72.90625 
Q 51.265625 72.90625 61.171875 64.09375 
Q 71.09375 55.28125 71.09375 36.53125 
Q 71.09375 17.671875 61.125 8.828125 
Q 51.171875 0 30.078125 0 
L 9.8125 0 
z
" id="DejaVuSans-68"/>
      </defs>
      <use xlink:href="#DejaVuSans-108"/>
      <use x="27.783203" xlink:href="#DejaVuSans-111"/>
      <use x="88.964844" xlink:href="#DejaVuSans-103"/>
      <use x="152.441406" xlink:href="#DejaVuSans-49"/>
      <use x="216.064453" xlink:href="#DejaVuSans-48"/>
      <use x="279.6875" xlink:href="#DejaVuSans-32"/>
      <use x="311.474609" xlink:href="#DejaVuSans-111"/>
      <use x="372.65625" xlink:href="#DejaVuSans-102"/>
      <use x="407.861328" xlink:href="#DejaVuSans-32"/>
      <use x="439.648438" xlink:href="#DejaVuSans-68"/>
      <use x="516.650391" xlink:href="#DejaVuSans-102"/>
     </g>
    </g>
   </g>
   <g id="matplotlib.axis_2">
    <g id="ytick_1">
     <g id="line2d_9">
      <path clip-path="url(#p6f50506c58)" d="M 0 293.76 
L 460.8 293.76 
" style="fill:none;stroke:#b0b0b0;stroke-linecap:square;stroke-width:0.8;"/>
     </g>
     <g id="line2d_10">
      <defs>
       <path d="M 0 0 
L -3.5 0 
" id="m19d5fe4eb7" style="stroke:#000000;stroke-width:0.8;"/>
      </defs>
      <g>
       <use style="stroke:#000000;stroke-width:0.8;" x="0" xlink:href="#m19d5fe4eb7" y="293.76"/>
      </g>
     </g>
    </g>
    <g id="ytick_2">
     <g id="line2d_11">
      <path clip-path="url(#p6f50506c58)" d="M 0 236.274059 
L 460.8 236.274059 
" style="fill:none;stroke:#b0b0b0;stroke-linecap:square;stroke-width:0.8;"/>
     </g>
     <g id="line2d_12">
      <g>
       <use style="stroke:#000000;stroke-width:0.8;" x="0" xlink:href="#m19d5fe4eb7" y="236.274059"/>
      </g>
     </g>
    </g>
    <g id="ytick_3">
     <g id="line2d_13">
      <path clip-path="url(#p6f50506c58)" d="M 0 178.788119 
L 460.8 178.788119 
" style="fill:none;stroke:#b0b0b0;stroke-linecap:square;stroke-width:0.8;"/>
     </g>
     <g id="line2d_14">
      <g>
       <use style="stroke:#000000;stroke-width:0.8;" x="0" xlink:href="#m19d5fe4eb7" y="178.788119"/>
      </g>
     </g>
    </g>
    <g id="ytick_4">
     <g id="line2d_15">
      <path clip-path="url(#p6f50506c58)" d="M 0 121.302178 
L 460.8 121.302178 
" style="fill:none;stroke:#b0b0b0;stroke-linecap:square;stroke-width:0.8;"/>
     </g>
     <g id="line2d_16">
      <g>
       <use style="stroke:#000000;stroke-width:0.8;" x="0" xlink:href="#m19d5fe4eb7" y="121.302178"/>
      </g>
     </g>
    </g>
    <g id="ytick_5">
     <g id="line2d_17">
      <path clip-path="url(#p6f50506c58)" d="M 0 63.816238 
L 460.8 63.816238 
" style="fill:none;stroke:#b0b0b0;stroke-linecap:square;stroke-width:0.8;"/>
     </g>
     <g id="line2d_18">
      <g>
       <use style="stroke:#000000;stroke-width:0.8;" x="0" xlink:href="#m19d5fe4eb7" y="63.816238"/>
      </g>
     </g>
    </g>
    <g id="ytick_6">
     <g id="line2d_19">
      <path clip-path="url(#p6f50506c58)" d="M 0 6.330297 
L 460.8 6.330297 
" style="fill:none;stroke:#b0b0b0;stroke-linecap:square;stroke-width:0.8;"/>
     </g>
     <g id="line2d_20">
      <g>
       <use style="stroke:#000000;stroke-width:0.8;" x="0" xlink:href="#m19d5fe4eb7" y="6.330297"/>
      </g>
     </g>
    </g>
   </g>
   <g id="line2d_21">
    <path clip-path="url(#p6f50506c58)" d="M -1 154.835644 
L 194.19518 154.835644 
L 194.19518 150.045149 
L 194.270887 150.045149 
L 194.270887 145.254653 
L 194.622294 145.254653 
L 194.622294 140.464158 
L 201.953647 140.464158 
L 201.953647 135.673663 
L 202.255145 135.673663 
L 202.255145 130.883168 
L 208.181773 130.883168 
L 208.181773 126.092673 
L 212.068071 126.092673 
L 212.068071 121.302178 
L 218.148266 121.302178 
L 218.148266 116.511683 
L 218.522145 116.511683 
L 218.522145 111.721188 
L 219.376503 111.721188 
L 219.376503 106.930693 
L 221.216156 106.930693 
L 221.216156 102.140198 
L 221.388111 102.140198 
L 221.388111 97.349703 
L 222.007482 97.349703 
L 222.007482 92.559208 
L 225.3382 92.559208 
L 225.3382 87.768713 
L 228.049234 87.768713 
L 228.049234 82.978218 
L 229.476014 82.978218 
L 229.476014 78.187723 
L 230.014065 78.187723 
L 230.014065 73.397228 
L 233.393509 73.397228 
L 233.393509 68.606733 
L 234.001529 68.606733 
L 234.001529 63.816238 
L 235.968293 63.816238 
L 235.968293 59.025743 
L 236.071086 59.025743 
L 236.071086 54.235248 
L 236.810479 54.235248 
L 236.810479 49.444752 
L 239.795001 49.444752 
L 239.795001 44.654257 
L 240.996143 44.654257 
L 240.996143 39.863762 
L 241.72048 39.863762 
L 241.72048 35.073267 
L 242.163923 35.073267 
L 242.163923 30.282772 
L 242.796923 30.282772 
L 242.796923 25.492277 
L 243.212854 25.492277 
L 243.212854 20.701782 
L 243.974452 20.701782 
L 243.974452 15.911287 
L 244.983106 15.911287 
L 244.983106 11.120792 
L 248.41263 11.120792 
L 248.41263 6.330297 
L 248.41263 6.330297 
L 248.41263 6.330297 
L 460.8 6.330297 
" style="fill:none;stroke:#ff0000;stroke-linecap:square;stroke-width:3;"/>
   </g>
   <g id="line2d_22">
    <path clip-path="url(#p6f50506c58)" d="M 259.587032 293.76 
L 259.587032 288.969505 
L 259.587032 288.969505 
L 259.587032 284.17901 
L 259.587032 284.17901 
L 259.587032 279.388515 
L 259.587032 279.388515 
L 259.587032 274.59802 
L 259.587032 274.59802 
L 259.587032 269.807525 
L 259.587032 269.807525 
L 259.587032 265.01703 
L 259.587032 265.01703 
L 259.587032 260.226535 
L 259.587032 260.226535 
L 259.587032 255.43604 
L 259.587032 255.43604 
L 259.587032 250.645545 
L 259.587032 250.645545 
L 259.587032 245.85505 
L 259.587032 245.85505 
L 259.587032 241.064554 
L 259.587032 241.064554 
L 259.587032 236.274059 
L 259.587032 236.274059 
L 259.587032 231.483564 
L 259.587032 231.483564 
L 259.587032 226.693069 
L 259.587032 226.693069 
L 259.587032 221.902574 
L 271.23851 221.902574 
L 271.23851 217.112079 
L 275.791782 217.112079 
L 275.791782 212.321584 
L 275.989523 212.321584 
L 275.989523 207.531089 
L 276.724384 207.531089 
L 276.724384 202.740594 
L 278.091855 202.740594 
L 278.091855 197.950099 
L 278.622588 197.950099 
L 278.622588 193.159604 
L 279.489922 193.159604 
L 279.489922 188.369109 
L 280.826693 188.369109 
L 280.826693 183.578614 
L 283.968669 183.578614 
L 283.968669 178.788119 
L 285.037137 178.788119 
L 285.037137 173.997624 
L 285.377941 173.997624 
L 285.377941 169.207129 
L 286.846651 169.207129 
L 286.846651 164.416634 
L 287.94854 164.416634 
L 287.94854 159.626139 
L 290.962736 159.626139 
L 290.962736 154.835644 
L 293.867458 154.835644 
L 293.867458 150.045149 
L 314.887505 150.045149 
L 314.887505 145.254653 
L 317.615615 145.254653 
L 317.615615 140.464158 
L 317.945911 140.464158 
L 317.945911 135.673663 
L 319.862161 135.673663 
L 319.862161 130.883168 
L 321.851706 130.883168 
L 321.851706 126.092673 
L 322.048974 126.092673 
L 322.048974 121.302178 
L 322.934931 121.302178 
L 322.934931 116.511683 
L 325.492411 116.511683 
L 325.492411 111.721188 
L 326.526041 111.721188 
L 326.526041 106.930693 
L 326.663582 106.930693 
L 326.663582 102.140198 
L 327.117181 102.140198 
L 327.117181 97.349703 
L 328.996324 97.349703 
L 328.996324 92.559208 
L 329.877115 92.559208 
L 329.877115 87.768713 
L 330.543524 87.768713 
L 330.543524 82.978218 
L 330.97557 82.978218 
L 330.97557 78.187723 
L 336.190395 78.187723 
L 336.190395 73.397228 
L 339.091585 73.397228 
L 339.091585 68.606733 
L 344.442939 68.606733 
L 344.442939 63.816238 
L 347.248054 63.816238 
L 347.248054 59.025743 
L 347.800777 59.025743 
L 347.800777 54.235248 
L 347.913089 54.235248 
L 347.913089 49.444752 
L 348.90209 49.444752 
L 348.90209 44.654257 
L 352.038786 44.654257 
L 352.038786 39.863762 
L 353.356189 39.863762 
L 353.356189 35.073267 
L 353.528473 35.073267 
L 353.528473 30.282772 
L 354.486787 30.282772 
L 354.486787 25.492277 
L 354.757862 25.492277 
L 354.757862 20.701782 
L 355.288017 20.701782 
L 355.288017 15.911287 
L 359.601372 15.911287 
L 359.601372 11.120792 
L 361.031114 11.120792 
L 361.031114 6.330297 
L 361.031114 6.330297 
L 361.031114 6.330297 
L 460.8 6.330297 
" style="fill:none;stroke:#00bfbf;stroke-linecap:square;stroke-width:1.5;"/>
   </g>
   <g id="line2d_23">
    <path clip-path="url(#p6f50506c58)" d="M 259.587032 293.76 
L 259.587032 288.969505 
L 259.587032 288.969505 
L 259.587032 284.17901 
L 259.587032 284.17901 
L 259.587032 279.388515 
L 259.587032 279.388515 
L 259.587032 274.59802 
L 259.587032 274.59802 
L 259.587032 269.807525 
L 259.587032 269.807525 
L 259.587032 265.01703 
L 259.587032 265.01703 
L 259.587032 260.226535 
L 259.587032 260.226535 
L 259.587032 255.43604 
L 259.587032 255.43604 
L 259.587032 250.645545 
L 259.587032 250.645545 
L 259.587032 245.85505 
L 259.587032 245.85505 
L 259.587032 241.064554 
L 259.587032 241.064554 
L 259.587032 236.274059 
L 259.587032 236.274059 
L 259.587032 231.483564 
L 259.587032 231.483564 
L 259.587032 226.693069 
L 259.587032 226.693069 
L 259.587032 221.902574 
L 270.38752 221.902574 
L 270.38752 217.112079 
L 272.158927 217.112079 
L 272.158927 212.321584 
L 275.791782 212.321584 
L 275.791782 207.531089 
L 275.962226 207.531089 
L 275.962226 202.740594 
L 276.858725 202.740594 
L 276.858725 197.950099 
L 278.514622 197.950099 
L 278.514622 193.159604 
L 279.439687 193.159604 
L 279.439687 188.369109 
L 279.489922 188.369109 
L 279.489922 183.578614 
L 283.210381 183.578614 
L 283.210381 178.788119 
L 283.694399 178.788119 
L 283.694399 173.997624 
L 285.159725 173.997624 
L 285.159725 169.207129 
L 286.842021 169.207129 
L 286.842021 164.416634 
L 287.92307 164.416634 
L 287.92307 159.626139 
L 290.589482 159.626139 
L 290.589482 154.835644 
L 292.561165 154.835644 
L 292.561165 150.045149 
L 314.887505 150.045149 
L 314.887505 145.254653 
L 316.62781 145.254653 
L 316.62781 140.464158 
L 316.659006 140.464158 
L 316.659006 135.673663 
L 318.759188 135.673663 
L 318.759188 130.883168 
L 319.862161 130.883168 
L 319.862161 126.092673 
L 320.588233 126.092673 
L 320.588233 121.302178 
L 320.631902 121.302178 
L 320.631902 116.511683 
L 321.516036 116.511683 
L 321.516036 111.721188 
L 324.3393 111.721188 
L 324.3393 106.930693 
L 324.828988 106.930693 
L 324.828988 102.140198 
L 325.339028 102.140198 
L 325.339028 97.349703 
L 326.962495 97.349703 
L 326.962495 92.559208 
L 329.688804 92.559208 
L 329.688804 87.768713 
L 329.877115 87.768713 
L 329.877115 82.978218 
L 330.3448 82.978218 
L 330.3448 78.187723 
L 335.900748 78.187723 
L 335.900748 73.397228 
L 336.364984 73.397228 
L 336.364984 68.606733 
L 344.275534 68.606733 
L 344.275534 63.816238 
L 346.205284 63.816238 
L 346.205284 59.025743 
L 347.143252 59.025743 
L 347.143252 54.235248 
L 347.238878 54.235248 
L 347.238878 49.444752 
L 348.271445 49.444752 
L 348.271445 44.654257 
L 349.341793 44.654257 
L 349.341793 39.863762 
L 351.090374 39.863762 
L 351.090374 35.073267 
L 352.78244 35.073267 
L 352.78244 30.282772 
L 354.170674 30.282772 
L 354.170674 25.492277 
L 354.294726 25.492277 
L 354.294726 20.701782 
L 355.288017 20.701782 
L 355.288017 15.911287 
L 358.954037 15.911287 
L 358.954037 11.120792 
L 360.896768 11.120792 
L 360.896768 6.330297 
L 360.896768 6.330297 
L 360.896768 6.330297 
L 460.8 6.330297 
" style="fill:none;stroke:#bf00bf;stroke-linecap:square;stroke-width:1.5;"/>
   </g>
   <g id="line2d_24">
    <path clip-path="url(#p6f50506c58)" d="M 259.587032 293.76 
L 259.587032 288.969505 
L 259.587032 288.969505 
L 259.587032 284.17901 
L 259.587032 284.17901 
L 259.587032 279.388515 
L 259.587032 279.388515 
L 259.587032 274.59802 
L 259.587032 274.59802 
L 259.587032 269.807525 
L 259.587032 269.807525 
L 259.587032 265.01703 
L 259.587032 265.01703 
L 259.587032 260.226535 
L 259.587032 260.226535 
L 259.587032 255.43604 
L 259.587032 255.43604 
L 259.587032 250.645545 
L 259.587032 250.645545 
L 259.587032 245.85505 
L 259.587032 245.85505 
L 259.587032 241.064554 
L 259.587032 241.064554 
L 259.587032 236.274059 
L 259.587032 236.274059 
L 259.587032 231.483564 
L 259.587032 231.483564 
L 259.587032 226.693069 
L 259.587032 226.693069 
L 259.587032 221.902574 
L 266.919404 221.902574 
L 266.919404 217.112079 
L 272.158927 217.112079 
L 272.158927 212.321584 
L 273.697549 212.321584 
L 273.697549 207.531089 
L 274.488782 207.531089 
L 274.488782 202.740594 
L 275.206818 202.740594 
L 275.206818 197.950099 
L 275.657632 197.950099 
L 275.657632 193.159604 
L 278.136114 193.159604 
L 278.136114 188.369109 
L 278.86801 188.369109 
L 278.86801 183.578614 
L 281.76223 183.578614 
L 281.76223 178.788119 
L 282.133998 178.788119 
L 282.133998 173.997624 
L 282.395625 173.997624 
L 282.395625 169.207129 
L 285.866788 169.207129 
L 285.866788 164.416634 
L 285.956866 164.416634 
L 285.956866 159.626139 
L 288.745404 159.626139 
L 288.745404 154.835644 
L 290.767065 154.835644 
L 290.767065 150.045149 
L 310.015731 150.045149 
L 310.015731 145.254653 
L 312.999377 145.254653 
L 312.999377 140.464158 
L 313.964324 140.464158 
L 313.964324 135.673663 
L 315.177547 135.673663 
L 315.177547 130.883168 
L 315.384179 130.883168 
L 315.384179 126.092673 
L 318.169559 126.092673 
L 318.169559 121.302178 
L 318.583448 121.302178 
L 318.583448 116.511683 
L 319.518739 116.511683 
L 319.518739 111.721188 
L 319.773634 111.721188 
L 319.773634 106.930693 
L 321.815291 106.930693 
L 321.815291 102.140198 
L 325.001823 102.140198 
L 325.001823 97.349703 
L 326.821991 97.349703 
L 326.821991 92.559208 
L 327.732291 92.559208 
L 327.732291 87.768713 
L 327.793377 87.768713 
L 327.793377 82.978218 
L 328.769985 82.978218 
L 328.769985 78.187723 
L 329.941063 78.187723 
L 329.941063 73.397228 
L 333.657643 73.397228 
L 333.657643 68.606733 
L 342.243661 68.606733 
L 342.243661 63.816238 
L 342.913029 63.816238 
L 342.913029 59.025743 
L 345.089897 59.025743 
L 345.089897 54.235248 
L 346.054054 54.235248 
L 346.054054 49.444752 
L 347.168027 49.444752 
L 347.168027 44.654257 
L 347.319136 44.654257 
L 347.319136 39.863762 
L 347.911488 39.863762 
L 347.911488 35.073267 
L 349.139892 35.073267 
L 349.139892 30.282772 
L 353.392008 30.282772 
L 353.392008 25.492277 
L 354.089334 25.492277 
L 354.089334 20.701782 
L 354.646163 20.701782 
L 354.646163 15.911287 
L 355.425847 15.911287 
L 355.425847 11.120792 
L 359.160418 11.120792 
L 359.160418 6.330297 
L 359.160418 6.330297 
L 359.160418 6.330297 
L 460.8 6.330297 
" style="fill:none;stroke:#000000;stroke-linecap:square;stroke-width:1.5;"/>
   </g>
   <g id="line2d_25">
    <path clip-path="url(#p6f50506c58)" d="M 255.916479 293.76 
L 255.916479 288.969505 
L 256.411417 288.969505 
L 256.411417 284.17901 
L 258.449969 284.17901 
L 258.449969 279.388515 
L 258.715363 279.388515 
L 258.715363 274.59802 
L 258.751821 274.59802 
L 258.751821 269.807525 
L 258.912525 269.807525 
L 258.912525 265.01703 
L 258.987031 265.01703 
L 258.987031 260.226535 
L 259.054156 260.226535 
L 259.054156 255.43604 
L 259.394901 255.43604 
L 259.394901 250.645545 
L 259.587032 250.645545 
L 259.587032 245.85505 
L 259.587032 245.85505 
L 259.587032 241.064554 
L 259.587032 241.064554 
L 259.587032 236.274059 
L 259.587032 236.274059 
L 259.587032 231.483564 
L 259.587032 231.483564 
L 259.587032 226.693069 
L 259.587032 226.693069 
L 259.587032 221.902574 
L 259.587032 221.902574 
L 259.587032 217.112079 
L 260.773546 217.112079 
L 260.773546 212.321584 
L 261.185633 212.321584 
L 261.185633 207.531089 
L 262.294947 207.531089 
L 262.294947 202.740594 
L 264.782943 202.740594 
L 264.782943 197.950099 
L 266.681974 197.950099 
L 266.681974 193.159604 
L 266.992125 193.159604 
L 266.992125 188.369109 
L 267.063701 188.369109 
L 267.063701 183.578614 
L 267.635208 183.578614 
L 267.635208 178.788119 
L 273.405437 178.788119 
L 273.405437 173.997624 
L 275.037585 173.997624 
L 275.037585 169.207129 
L 275.465514 169.207129 
L 275.465514 164.416634 
L 276.517502 164.416634 
L 276.517502 159.626139 
L 279.011447 159.626139 
L 279.011447 154.835644 
L 281.353702 154.835644 
L 281.353702 150.045149 
L 287.462011 150.045149 
L 287.462011 145.254653 
L 291.483578 145.254653 
L 291.483578 140.464158 
L 294.350763 140.464158 
L 294.350763 135.673663 
L 294.720044 135.673663 
L 294.720044 130.883168 
L 297.735162 130.883168 
L 297.735162 126.092673 
L 298.087276 126.092673 
L 298.087276 121.302178 
L 300.777106 121.302178 
L 300.777106 116.511683 
L 302.105958 116.511683 
L 302.105958 111.721188 
L 307.450335 111.721188 
L 307.450335 106.930693 
L 307.879308 106.930693 
L 307.879308 102.140198 
L 312.226353 102.140198 
L 312.226353 97.349703 
L 312.689278 97.349703 
L 312.689278 92.559208 
L 312.731184 92.559208 
L 312.731184 87.768713 
L 312.808897 87.768713 
L 312.808897 82.978218 
L 313.027692 82.978218 
L 313.027692 78.187723 
L 314.140432 78.187723 
L 314.140432 73.397228 
L 314.455579 73.397228 
L 314.455579 68.606733 
L 322.468738 68.606733 
L 322.468738 63.816238 
L 329.28135 63.816238 
L 329.28135 59.025743 
L 334.085345 59.025743 
L 334.085345 54.235248 
L 334.098318 54.235248 
L 334.098318 49.444752 
L 335.991868 49.444752 
L 335.991868 44.654257 
L 337.48865 44.654257 
L 337.48865 39.863762 
L 339.632471 39.863762 
L 339.632471 35.073267 
L 341.038808 35.073267 
L 341.038808 30.282772 
L 343.191177 30.282772 
L 343.191177 25.492277 
L 344.371452 25.492277 
L 344.371452 20.701782 
L 348.4525 20.701782 
L 348.4525 15.911287 
L 349.704143 15.911287 
L 349.704143 11.120792 
L 350.397178 11.120792 
L 350.397178 6.330297 
L 350.397178 6.330297 
L 350.397178 6.330297 
L 460.8 6.330297 
" style="fill:none;stroke:#00bfbf;stroke-linecap:square;stroke-width:1.5;"/>
   </g>
   <g id="line2d_26">
    <path clip-path="url(#p6f50506c58)" d="M 229.072603 293.76 
L 229.072603 288.969505 
L 229.476014 288.969505 
L 229.476014 284.17901 
L 230.014065 284.17901 
L 230.014065 279.388515 
L 231.237374 279.388515 
L 231.237374 274.59802 
L 231.798776 274.59802 
L 231.798776 269.807525 
L 231.854827 269.807525 
L 231.854827 265.01703 
L 232.373395 265.01703 
L 232.373395 260.226535 
L 232.484012 260.226535 
L 232.484012 255.43604 
L 232.924778 255.43604 
L 232.924778 250.645545 
L 233.393509 250.645545 
L 233.393509 245.85505 
L 233.868546 245.85505 
L 233.868546 241.064554 
L 235.614684 241.064554 
L 235.614684 236.274059 
L 235.819071 236.274059 
L 235.819071 231.483564 
L 235.968293 231.483564 
L 235.968293 226.693069 
L 236.009002 226.693069 
L 236.009002 221.902574 
L 236.071086 221.902574 
L 236.071086 217.112079 
L 236.270017 217.112079 
L 236.270017 212.321584 
L 236.443002 212.321584 
L 236.443002 207.531089 
L 236.810479 207.531089 
L 236.810479 202.740594 
L 237.077499 202.740594 
L 237.077499 197.950099 
L 237.133536 197.950099 
L 237.133536 193.159604 
L 237.156336 193.159604 
L 237.156336 188.369109 
L 237.367672 188.369109 
L 237.367672 183.578614 
L 237.368399 183.578614 
L 237.368399 178.788119 
L 237.406557 178.788119 
L 237.406557 173.997624 
L 237.434582 173.997624 
L 237.434582 169.207129 
L 237.556391 169.207129 
L 237.556391 164.416634 
L 237.64716 164.416634 
L 237.64716 159.626139 
L 237.869109 159.626139 
L 237.869109 154.835644 
L 238.112795 154.835644 
L 238.112795 150.045149 
L 238.208151 150.045149 
L 238.208151 145.254653 
L 238.310901 145.254653 
L 238.310901 140.464158 
L 238.675869 140.464158 
L 238.675869 135.673663 
L 239.795001 135.673663 
L 239.795001 130.883168 
L 240.326874 130.883168 
L 240.326874 126.092673 
L 240.996143 126.092673 
L 240.996143 121.302178 
L 241.72048 121.302178 
L 241.72048 116.511683 
L 241.932479 116.511683 
L 241.932479 111.721188 
L 242.163923 111.721188 
L 242.163923 106.930693 
L 242.319438 106.930693 
L 242.319438 102.140198 
L 242.403054 102.140198 
L 242.403054 97.349703 
L 242.796923 97.349703 
L 242.796923 92.559208 
L 243.212854 92.559208 
L 243.212854 87.768713 
L 243.974452 87.768713 
L 243.974452 82.978218 
L 244.231912 82.978218 
L 244.231912 78.187723 
L 244.376674 78.187723 
L 244.376674 73.397228 
L 244.983106 73.397228 
L 244.983106 68.606733 
L 245.363591 68.606733 
L 245.363591 63.816238 
L 245.521834 63.816238 
L 245.521834 59.025743 
L 245.637603 59.025743 
L 245.637603 54.235248 
L 246.326548 54.235248 
L 246.326548 49.444752 
L 247.969598 49.444752 
L 247.969598 44.654257 
L 248.41263 44.654257 
L 248.41263 39.863762 
L 252.750286 39.863762 
L 252.750286 35.073267 
L 252.854697 35.073267 
L 252.854697 30.282772 
L 253.727946 30.282772 
L 253.727946 25.492277 
L 254.473058 25.492277 
L 254.473058 20.701782 
L 260.735324 20.701782 
L 260.735324 15.911287 
L 262.5502 15.911287 
L 262.5502 11.120792 
L 262.776551 11.120792 
L 262.776551 6.330297 
L 262.776551 6.330297 
L 262.776551 6.330297 
L 460.8 6.330297 
" style="fill:none;stroke:#bf00bf;stroke-linecap:square;stroke-width:1.5;"/>
   </g>
   <g id="line2d_27">
    <path clip-path="url(#p6f50506c58)" d="M -1 288.969505 
L 197.52331 288.969505 
L 197.52331 284.17901 
L 201.512324 284.17901 
L 201.512324 279.388515 
L 202.246099 279.388515 
L 202.246099 274.59802 
L 204.103807 274.59802 
L 204.103807 269.807525 
L 204.264644 269.807525 
L 204.264644 265.01703 
L 204.394107 265.01703 
L 204.394107 260.226535 
L 206.233286 260.226535 
L 206.233286 255.43604 
L 206.99154 255.43604 
L 206.99154 250.645545 
L 207.941744 250.645545 
L 207.941744 245.85505 
L 210.335583 245.85505 
L 210.335583 241.064554 
L 212.010928 241.064554 
L 212.010928 236.274059 
L 220.407514 236.274059 
L 220.407514 231.483564 
L 220.847575 231.483564 
L 220.847575 226.693069 
L 220.982562 226.693069 
L 220.982562 221.902574 
L 221.436023 221.902574 
L 221.436023 217.112079 
L 221.834788 217.112079 
L 221.834788 212.321584 
L 224.128941 212.321584 
L 224.128941 207.531089 
L 224.939951 207.531089 
L 224.939951 202.740594 
L 225.291424 202.740594 
L 225.291424 197.950099 
L 225.911898 197.950099 
L 225.911898 193.159604 
L 226.040125 193.159604 
L 226.040125 188.369109 
L 226.095571 188.369109 
L 226.095571 183.578614 
L 226.814238 183.578614 
L 226.814238 178.788119 
L 226.881877 178.788119 
L 226.881877 173.997624 
L 227.025069 173.997624 
L 227.025069 169.207129 
L 227.413342 169.207129 
L 227.413342 164.416634 
L 227.580844 164.416634 
L 227.580844 159.626139 
L 227.918147 159.626139 
L 227.918147 154.835644 
L 227.952959 154.835644 
L 227.952959 150.045149 
L 228.027288 150.045149 
L 228.027288 145.254653 
L 228.973727 145.254653 
L 228.973727 140.464158 
L 229.25129 140.464158 
L 229.25129 135.673663 
L 229.372244 135.673663 
L 229.372244 130.883168 
L 229.400668 130.883168 
L 229.400668 126.092673 
L 229.476014 126.092673 
L 229.476014 121.302178 
L 229.875254 121.302178 
L 229.875254 116.511683 
L 229.89945 116.511683 
L 229.89945 111.721188 
L 230.014065 111.721188 
L 230.014065 106.930693 
L 230.165004 106.930693 
L 230.165004 102.140198 
L 230.253497 102.140198 
L 230.253497 97.349703 
L 230.289503 97.349703 
L 230.289503 92.559208 
L 231.223664 92.559208 
L 231.223664 87.768713 
L 233.393509 87.768713 
L 233.393509 82.978218 
L 234.094541 82.978218 
L 234.094541 78.187723 
L 234.943687 78.187723 
L 234.943687 73.397228 
L 235.968293 73.397228 
L 235.968293 68.606733 
L 236.071086 68.606733 
L 236.071086 63.816238 
L 236.810479 63.816238 
L 236.810479 59.025743 
L 239.795001 59.025743 
L 239.795001 54.235248 
L 240.709878 54.235248 
L 240.709878 49.444752 
L 240.996143 49.444752 
L 240.996143 44.654257 
L 241.72048 44.654257 
L 241.72048 39.863762 
L 242.163923 39.863762 
L 242.163923 35.073267 
L 242.796923 35.073267 
L 242.796923 30.282772 
L 243.212854 30.282772 
L 243.212854 25.492277 
L 243.974452 25.492277 
L 243.974452 20.701782 
L 244.983106 20.701782 
L 244.983106 15.911287 
L 248.41263 15.911287 
L 248.41263 11.120792 
L 254.125614 11.120792 
L 254.125614 6.330297 
L 254.125614 6.330297 
L 254.125614 6.330297 
L 460.8 6.330297 
" style="fill:none;stroke:#000000;stroke-linecap:square;stroke-width:1.5;"/>
   </g>
   <g id="line2d_28">
    <path clip-path="url(#p6f50506c58)" d="M -1 154.835644 
L 194.19518 154.835644 
L 194.19518 150.045149 
L 194.270887 150.045149 
L 194.270887 145.254653 
L 194.622294 145.254653 
L 194.622294 140.464158 
L 201.953647 140.464158 
L 201.953647 135.673663 
L 202.255145 135.673663 
L 202.255145 130.883168 
L 208.181773 130.883168 
L 208.181773 126.092673 
L 212.068071 126.092673 
L 212.068071 121.302178 
L 218.148266 121.302178 
L 218.148266 116.511683 
L 218.522145 116.511683 
L 218.522145 111.721188 
L 219.763769 111.721188 
L 219.763769 106.930693 
L 221.216156 106.930693 
L 221.216156 102.140198 
L 221.388111 102.140198 
L 221.388111 97.349703 
L 222.007482 97.349703 
L 222.007482 92.559208 
L 225.3382 92.559208 
L 225.3382 87.768713 
L 228.049234 87.768713 
L 228.049234 82.978218 
L 229.476014 82.978218 
L 229.476014 78.187723 
L 230.014065 78.187723 
L 230.014065 73.397228 
L 233.393509 73.397228 
L 233.393509 68.606733 
L 234.001529 68.606733 
L 234.001529 63.816238 
L 235.968293 63.816238 
L 235.968293 59.025743 
L 236.071086 59.025743 
L 236.071086 54.235248 
L 236.810479 54.235248 
L 236.810479 49.444752 
L 239.795001 49.444752 
L 239.795001 44.654257 
L 240.996143 44.654257 
L 240.996143 39.863762 
L 241.72048 39.863762 
L 241.72048 35.073267 
L 242.163923 35.073267 
L 242.163923 30.282772 
L 242.796923 30.282772 
L 242.796923 25.492277 
L 243.212854 25.492277 
L 243.212854 20.701782 
L 243.974452 20.701782 
L 243.974452 15.911287 
L 244.983106 15.911287 
L 244.983106 11.120792 
L 248.41263 11.120792 
L 248.41263 6.330297 
L 248.41263 6.330297 
L 248.41263 6.330297 
L 460.8 6.330297 
" style="fill:none;stroke:#00bfbf;stroke-linecap:square;stroke-width:1.5;"/>
   </g>
   <g id="patch_3">
    <path d="M 0 293.76 
L 0 3.456 
" style="fill:none;stroke:#000000;stroke-linecap:square;stroke-linejoin:miter;stroke-width:0.8;"/>
   </g>
   <g id="patch_4">
    <path d="M 460.8 293.76 
L 460.8 3.456 
" style="fill:none;stroke:#000000;stroke-linecap:square;stroke-linejoin:miter;stroke-width:0.8;"/>
   </g>
   <g id="patch_5">
    <path d="M 0 293.76 
L 460.8 293.76 
" style="fill:none;stroke:#000000;stroke-linecap:square;stroke-linejoin:miter;stroke-width:0.8;"/>
   </g>
   <g id="patch_6">
    <path d="M 0 3.456 
L 460.8 3.456 
" style="fill:none;stroke:#000000;stroke-linecap:square;stroke-linejoin:miter;stroke-width:0.8;"/>
   </g>
   <g id="text_6">
    <!-- {f6-f9}, 20-D -->
    <g transform="translate(318.609 287.95392)scale(0.2 -0.2)">
     <defs>
      <path d="M 51.125 -9.28125 
L 51.125 -16.3125 
L 48.09375 -16.3125 
Q 35.9375 -16.3125 31.8125 -12.6875 
Q 27.6875 -9.078125 27.6875 1.703125 
L 27.6875 13.375 
Q 27.6875 20.75 25.046875 23.578125 
Q 22.40625 26.421875 15.484375 26.421875 
L 12.5 26.421875 
L 12.5 33.40625 
L 15.484375 33.40625 
Q 22.46875 33.40625 25.078125 36.203125 
Q 27.6875 39.015625 27.6875 46.296875 
L 27.6875 58.015625 
Q 27.6875 68.796875 31.8125 72.390625 
Q 35.9375 75.984375 48.09375 75.984375 
L 51.125 75.984375 
L 51.125 69 
L 47.796875 69 
Q 40.921875 69 38.8125 66.84375 
Q 36.71875 64.703125 36.71875 57.8125 
L 36.71875 45.703125 
Q 36.71875 38.03125 34.5 34.5625 
Q 32.28125 31.109375 26.90625 29.890625 
Q 32.328125 28.5625 34.515625 25.09375 
Q 36.71875 21.625 36.71875 14.015625 
L 36.71875 1.90625 
Q 36.71875 -4.984375 38.8125 -7.125 
Q 40.921875 -9.28125 47.796875 -9.28125 
z
" id="DejaVuSans-123"/>
      <path d="M 33.015625 40.375 
Q 26.375 40.375 22.484375 35.828125 
Q 18.609375 31.296875 18.609375 23.390625 
Q 18.609375 15.53125 22.484375 10.953125 
Q 26.375 6.390625 33.015625 6.390625 
Q 39.65625 6.390625 43.53125 10.953125 
Q 47.40625 15.53125 47.40625 23.390625 
Q 47.40625 31.296875 43.53125 35.828125 
Q 39.65625 40.375 33.015625 40.375 
z
M 52.59375 71.296875 
L 52.59375 62.3125 
Q 48.875 64.0625 45.09375 64.984375 
Q 41.3125 65.921875 37.59375 65.921875 
Q 27.828125 65.921875 22.671875 59.328125 
Q 17.53125 52.734375 16.796875 39.40625 
Q 19.671875 43.65625 24.015625 45.921875 
Q 28.375 48.1875 33.59375 48.1875 
Q 44.578125 48.1875 50.953125 41.515625 
Q 57.328125 34.859375 57.328125 23.390625 
Q 57.328125 12.15625 50.6875 5.359375 
Q 44.046875 -1.421875 33.015625 -1.421875 
Q 20.359375 -1.421875 13.671875 8.265625 
Q 6.984375 17.96875 6.984375 36.375 
Q 6.984375 53.65625 15.1875 63.9375 
Q 23.390625 74.21875 37.203125 74.21875 
Q 40.921875 74.21875 44.703125 73.484375 
Q 48.484375 72.75 52.59375 71.296875 
z
" id="DejaVuSans-54"/>
      <path d="M 10.984375 1.515625 
L 10.984375 10.5 
Q 14.703125 8.734375 18.5 7.8125 
Q 22.3125 6.890625 25.984375 6.890625 
Q 35.75 6.890625 40.890625 13.453125 
Q 46.046875 20.015625 46.78125 33.40625 
Q 43.953125 29.203125 39.59375 26.953125 
Q 35.25 24.703125 29.984375 24.703125 
Q 19.046875 24.703125 12.671875 31.3125 
Q 6.296875 37.9375 6.296875 49.421875 
Q 6.296875 60.640625 12.9375 67.421875 
Q 19.578125 74.21875 30.609375 74.21875 
Q 43.265625 74.21875 49.921875 64.515625 
Q 56.59375 54.828125 56.59375 36.375 
Q 56.59375 19.140625 48.40625 8.859375 
Q 40.234375 -1.421875 26.421875 -1.421875 
Q 22.703125 -1.421875 18.890625 -0.6875 
Q 15.09375 0.046875 10.984375 1.515625 
z
M 30.609375 32.421875 
Q 37.25 32.421875 41.125 36.953125 
Q 45.015625 41.5 45.015625 49.421875 
Q 45.015625 57.28125 41.125 61.84375 
Q 37.25 66.40625 30.609375 66.40625 
Q 23.96875 66.40625 20.09375 61.84375 
Q 16.21875 57.28125 16.21875 49.421875 
Q 16.21875 41.5 20.09375 36.953125 
Q 23.96875 32.421875 30.609375 32.421875 
z
" id="DejaVuSans-57"/>
      <path d="M 12.5 -9.28125 
L 15.921875 -9.28125 
Q 22.75 -9.28125 24.828125 -7.171875 
Q 26.90625 -5.078125 26.90625 1.90625 
L 26.90625 14.015625 
Q 26.90625 21.625 29.09375 25.09375 
Q 31.296875 28.5625 36.71875 29.890625 
Q 31.296875 31.109375 29.09375 34.5625 
Q 26.90625 38.03125 26.90625 45.703125 
L 26.90625 57.8125 
Q 26.90625 64.75 24.828125 66.875 
Q 22.75 69 15.921875 69 
L 12.5 69 
L 12.5 75.984375 
L 15.578125 75.984375 
Q 27.734375 75.984375 31.8125 72.390625 
Q 35.890625 68.796875 35.890625 58.015625 
L 35.890625 46.296875 
Q 35.890625 39.015625 38.515625 36.203125 
Q 41.15625 33.40625 48.09375 33.40625 
L 51.125 33.40625 
L 51.125 26.421875 
L 48.09375 26.421875 
Q 41.15625 26.421875 38.515625 23.578125 
Q 35.890625 20.75 35.890625 13.375 
L 35.890625 1.703125 
Q 35.890625 -9.078125 31.8125 -12.6875 
Q 27.734375 -16.3125 15.578125 -16.3125 
L 12.5 -16.3125 
z
" id="DejaVuSans-125"/>
      <path d="M 11.71875 12.40625 
L 22.015625 12.40625 
L 22.015625 4 
L 14.015625 -11.625 
L 7.71875 -11.625 
L 11.71875 4 
z
" id="DejaVuSans-44"/>
      <path d="M 19.1875 8.296875 
L 53.609375 8.296875 
L 53.609375 0 
L 7.328125 0 
L 7.328125 8.296875 
Q 12.9375 14.109375 22.625 23.890625 
Q 32.328125 33.6875 34.8125 36.53125 
Q 39.546875 41.84375 41.421875 45.53125 
Q 43.3125 49.21875 43.3125 52.78125 
Q 43.3125 58.59375 39.234375 62.25 
Q 35.15625 65.921875 28.609375 65.921875 
Q 23.96875 65.921875 18.8125 64.3125 
Q 13.671875 62.703125 7.8125 59.421875 
L 7.8125 69.390625 
Q 13.765625 71.78125 18.9375 73 
Q 24.125 74.21875 28.421875 74.21875 
Q 39.75 74.21875 46.484375 68.546875 
Q 53.21875 62.890625 53.21875 53.421875 
Q 53.21875 48.921875 51.53125 44.890625 
Q 49.859375 40.875 45.40625 35.40625 
Q 44.1875 33.984375 37.640625 27.21875 
Q 31.109375 20.453125 19.1875 8.296875 
z
" id="DejaVuSans-50"/>
     </defs>
     <use xlink:href="#DejaVuSans-123"/>
     <use x="63.623047" xlink:href="#DejaVuSans-102"/>
     <use x="98.828125" xlink:href="#DejaVuSans-54"/>
     <use x="162.451172" xlink:href="#DejaVuSans-45"/>
     <use x="198.535156" xlink:href="#DejaVuSans-102"/>
     <use x="233.740234" xlink:href="#DejaVuSans-57"/>
     <use x="297.363281" xlink:href="#DejaVuSans-125"/>
     <use x="360.986328" xlink:href="#DejaVuSans-44"/>
     <use x="392.773438" xlink:href="#DejaVuSans-32"/>
     <use x="424.560547" xlink:href="#DejaVuSans-50"/>
     <use x="488.183594" xlink:href="#DejaVuSans-48"/>
     <use x="551.806641" xlink:href="#DejaVuSans-45"/>
     <use x="587.890625" xlink:href="#DejaVuSans-68"/>
    </g>
   </g>
   <g id="text_7">
    <!-- v2.4 -->
    <g style="fill:#808080;" transform="translate(219.489063 288.777272)scale(0.1 -0.1)">
     <defs>
      <path d="M 2.984375 54.6875 
L 12.5 54.6875 
L 29.59375 8.796875 
L 46.6875 54.6875 
L 56.203125 54.6875 
L 35.6875 0 
L 23.484375 0 
z
" id="DejaVuSans-118"/>
      <path d="M 10.6875 12.40625 
L 21 12.40625 
L 21 0 
L 10.6875 0 
z
" id="DejaVuSans-46"/>
     </defs>
     <use xlink:href="#DejaVuSans-118"/>
     <use x="59.179688" xlink:href="#DejaVuSans-50"/>
     <use x="122.802734" xlink:href="#DejaVuSans-46"/>
     <use x="154.589844" xlink:href="#DejaVuSans-52"/>
    </g>
   </g>
  </g>
 </g>
 <defs>
  <clipPath id="p6f50506c58">
   <rect height="290.304" width="460.8" x="0" y="3.456"/>
  </clipPath>
 </defs>
</svg>
