<?xml version="1.0" encoding="utf-8" standalone="no"?>
<!DOCTYPE svg PUBLIC "-//W3C//DTD SVG 1.1//EN"
  "http://www.w3.org/Graphics/SVG/1.1/DTD/svg11.dtd">
<!-- Created with matplotlib (https://matplotlib.org/) -->
<svg height="345.6pt" version="1.1" viewBox="0 0 460.8 345.6" width="460.8pt" xmlns="http://www.w3.org/2000/svg" xmlns:xlink="http://www.w3.org/1999/xlink">
 <metadata>
  <rdf:RDF xmlns:cc="http://creativecommons.org/ns#" xmlns:dc="http://purl.org/dc/elements/1.1/" xmlns:rdf="http://www.w3.org/1999/02/22-rdf-syntax-ns#">
   <cc:Work>
    <dc:type rdf:resource="http://purl.org/dc/dcmitype/StillImage"/>
    <dc:date>2021-06-17T01:37:58.050766</dc:date>
    <dc:format>image/svg+xml</dc:format>
    <dc:creator>
     <cc:Agent>
      <dc:title>Matplotlib v3.3.4, https://matplotlib.org/</dc:title>
     </cc:Agent>
    </dc:creator>
   </cc:Work>
  </rdf:RDF>
 </metadata>
 <defs>
  <style type="text/css">*{stroke-linecap:butt;stroke-linejoin:round;}</style>
 </defs>
 <g id="figure_1">
  <g id="patch_1">
   <path d="M 0 345.6 
L 460.8 345.6 
L 460.8 0 
L 0 0 
z
" style="fill:#ffffff;"/>
  </g>
  <g id="axes_1">
   <g id="patch_2">
    <path d="M 0 293.76 
L 460.8 293.76 
L 460.8 3.456 
L 0 3.456 
z
" style="fill:#ffffff;"/>
   </g>
   <g id="matplotlib.axis_1">
    <g id="xtick_1">
     <g id="line2d_1">
      <path clip-path="url(#p1d1963a8aa)" d="M 105.789456 293.76 
L 105.789456 3.456 
" style="fill:none;stroke:#b0b0b0;stroke-linecap:square;stroke-width:0.8;"/>
     </g>
     <g id="line2d_2">
      <defs>
       <path d="M 0 0 
L 0 3.5 
" id="med2be8059f" style="stroke:#000000;stroke-width:0.8;"/>
      </defs>
      <g>
       <use style="stroke:#000000;stroke-width:0.8;" x="105.789456" xlink:href="#med2be8059f" y="293.76"/>
      </g>
     </g>
     <g id="text_1">
      <!-- -4 -->
      <g transform="translate(95.819144 315.956875)scale(0.2 -0.2)">
       <defs>
        <path d="M 4.890625 31.390625 
L 31.203125 31.390625 
L 31.203125 23.390625 
L 4.890625 23.390625 
z
" id="DejaVuSans-45"/>
        <path d="M 37.796875 64.3125 
L 12.890625 25.390625 
L 37.796875 25.390625 
z
M 35.203125 72.90625 
L 47.609375 72.90625 
L 47.609375 25.390625 
L 58.015625 25.390625 
L 58.015625 17.1875 
L 47.609375 17.1875 
L 47.609375 0 
L 37.796875 0 
L 37.796875 17.1875 
L 4.890625 17.1875 
L 4.890625 26.703125 
z
" id="DejaVuSans-52"/>
       </defs>
       <use xlink:href="#DejaVuSans-45"/>
       <use x="36.083984" xlink:href="#DejaVuSans-52"/>
      </g>
     </g>
    </g>
    <g id="xtick_2">
     <g id="line2d_3">
      <path clip-path="url(#p1d1963a8aa)" d="M 211.693325 293.76 
L 211.693325 3.456 
" style="fill:none;stroke:#b0b0b0;stroke-linecap:square;stroke-width:0.8;"/>
     </g>
     <g id="line2d_4">
      <g>
       <use style="stroke:#000000;stroke-width:0.8;" x="211.693325" xlink:href="#med2be8059f" y="293.76"/>
      </g>
     </g>
     <g id="text_2">
      <!-- 0 -->
      <g transform="translate(205.330825 315.956875)scale(0.2 -0.2)">
       <defs>
        <path d="M 31.78125 66.40625 
Q 24.171875 66.40625 20.328125 58.90625 
Q 16.5 51.421875 16.5 36.375 
Q 16.5 21.390625 20.328125 13.890625 
Q 24.171875 6.390625 31.78125 6.390625 
Q 39.453125 6.390625 43.28125 13.890625 
Q 47.125 21.390625 47.125 36.375 
Q 47.125 51.421875 43.28125 58.90625 
Q 39.453125 66.40625 31.78125 66.40625 
z
M 31.78125 74.21875 
Q 44.046875 74.21875 50.515625 64.515625 
Q 56.984375 54.828125 56.984375 36.375 
Q 56.984375 17.96875 50.515625 8.265625 
Q 44.046875 -1.421875 31.78125 -1.421875 
Q 19.53125 -1.421875 13.0625 8.265625 
Q 6.59375 17.96875 6.59375 36.375 
Q 6.59375 54.828125 13.0625 64.515625 
Q 19.53125 74.21875 31.78125 74.21875 
z
" id="DejaVuSans-48"/>
       </defs>
       <use xlink:href="#DejaVuSans-48"/>
      </g>
     </g>
    </g>
    <g id="xtick_3">
     <g id="line2d_5">
      <path clip-path="url(#p1d1963a8aa)" d="M 317.597194 293.76 
L 317.597194 3.456 
" style="fill:none;stroke:#b0b0b0;stroke-linecap:square;stroke-width:0.8;"/>
     </g>
     <g id="line2d_6">
      <g>
       <use style="stroke:#000000;stroke-width:0.8;" x="317.597194" xlink:href="#med2be8059f" y="293.76"/>
      </g>
     </g>
     <g id="text_3">
      <!-- 4 -->
      <g transform="translate(311.234694 315.956875)scale(0.2 -0.2)">
       <use xlink:href="#DejaVuSans-52"/>
      </g>
     </g>
    </g>
    <g id="xtick_4">
     <g id="line2d_7">
      <path clip-path="url(#p1d1963a8aa)" d="M 423.501063 293.76 
L 423.501063 3.456 
" style="fill:none;stroke:#b0b0b0;stroke-linecap:square;stroke-width:0.8;"/>
     </g>
     <g id="line2d_8">
      <g>
       <use style="stroke:#000000;stroke-width:0.8;" x="423.501063" xlink:href="#med2be8059f" y="293.76"/>
      </g>
     </g>
     <g id="text_4">
      <!-- 8 -->
      <g transform="translate(417.138563 315.956875)scale(0.2 -0.2)">
       <defs>
        <path d="M 31.78125 34.625 
Q 24.75 34.625 20.71875 30.859375 
Q 16.703125 27.09375 16.703125 20.515625 
Q 16.703125 13.921875 20.71875 10.15625 
Q 24.75 6.390625 31.78125 6.390625 
Q 38.8125 6.390625 42.859375 10.171875 
Q 46.921875 13.96875 46.921875 20.515625 
Q 46.921875 27.09375 42.890625 30.859375 
Q 38.875 34.625 31.78125 34.625 
z
M 21.921875 38.8125 
Q 15.578125 40.375 12.03125 44.71875 
Q 8.5 49.078125 8.5 55.328125 
Q 8.5 64.0625 14.71875 69.140625 
Q 20.953125 74.21875 31.78125 74.21875 
Q 42.671875 74.21875 48.875 69.140625 
Q 55.078125 64.0625 55.078125 55.328125 
Q 55.078125 49.078125 51.53125 44.71875 
Q 48 40.375 41.703125 38.8125 
Q 48.828125 37.15625 52.796875 32.3125 
Q 56.78125 27.484375 56.78125 20.515625 
Q 56.78125 9.90625 50.3125 4.234375 
Q 43.84375 -1.421875 31.78125 -1.421875 
Q 19.734375 -1.421875 13.25 4.234375 
Q 6.78125 9.90625 6.78125 20.515625 
Q 6.78125 27.484375 10.78125 32.3125 
Q 14.796875 37.15625 21.921875 38.8125 
z
M 18.3125 54.390625 
Q 18.3125 48.734375 21.84375 45.5625 
Q 25.390625 42.390625 31.78125 42.390625 
Q 38.140625 42.390625 41.71875 45.5625 
Q 45.3125 48.734375 45.3125 54.390625 
Q 45.3125 60.0625 41.71875 63.234375 
Q 38.140625 66.40625 31.78125 66.40625 
Q 25.390625 66.40625 21.84375 63.234375 
Q 18.3125 60.0625 18.3125 54.390625 
z
" id="DejaVuSans-56"/>
       </defs>
       <use xlink:href="#DejaVuSans-56"/>
      </g>
     </g>
    </g>
    <g id="text_5">
     <!-- log10 of Df -->
     <g transform="translate(175.214063 339.313125)scale(0.2 -0.2)">
      <defs>
       <path d="M 9.421875 75.984375 
L 18.40625 75.984375 
L 18.40625 0 
L 9.421875 0 
z
" id="DejaVuSans-108"/>
       <path d="M 30.609375 48.390625 
Q 23.390625 48.390625 19.1875 42.75 
Q 14.984375 37.109375 14.984375 27.296875 
Q 14.984375 17.484375 19.15625 11.84375 
Q 23.34375 6.203125 30.609375 6.203125 
Q 37.796875 6.203125 41.984375 11.859375 
Q 46.1875 17.53125 46.1875 27.296875 
Q 46.1875 37.015625 41.984375 42.703125 
Q 37.796875 48.390625 30.609375 48.390625 
z
M 30.609375 56 
Q 42.328125 56 49.015625 48.375 
Q 55.71875 40.765625 55.71875 27.296875 
Q 55.71875 13.875 49.015625 6.21875 
Q 42.328125 -1.421875 30.609375 -1.421875 
Q 18.84375 -1.421875 12.171875 6.21875 
Q 5.515625 13.875 5.515625 27.296875 
Q 5.515625 40.765625 12.171875 48.375 
Q 18.84375 56 30.609375 56 
z
" id="DejaVuSans-111"/>
       <path d="M 45.40625 27.984375 
Q 45.40625 37.75 41.375 43.109375 
Q 37.359375 48.484375 30.078125 48.484375 
Q 22.859375 48.484375 18.828125 43.109375 
Q 14.796875 37.75 14.796875 27.984375 
Q 14.796875 18.265625 18.828125 12.890625 
Q 22.859375 7.515625 30.078125 7.515625 
Q 37.359375 7.515625 41.375 12.890625 
Q 45.40625 18.265625 45.40625 27.984375 
z
M 54.390625 6.78125 
Q 54.390625 -7.171875 48.1875 -13.984375 
Q 42 -20.796875 29.203125 -20.796875 
Q 24.46875 -20.796875 20.265625 -20.09375 
Q 16.0625 -19.390625 12.109375 -17.921875 
L 12.109375 -9.1875 
Q 16.0625 -11.328125 19.921875 -12.34375 
Q 23.78125 -13.375 27.78125 -13.375 
Q 36.625 -13.375 41.015625 -8.765625 
Q 45.40625 -4.15625 45.40625 5.171875 
L 45.40625 9.625 
Q 42.625 4.78125 38.28125 2.390625 
Q 33.9375 0 27.875 0 
Q 17.828125 0 11.671875 7.65625 
Q 5.515625 15.328125 5.515625 27.984375 
Q 5.515625 40.671875 11.671875 48.328125 
Q 17.828125 56 27.875 56 
Q 33.9375 56 38.28125 53.609375 
Q 42.625 51.21875 45.40625 46.390625 
L 45.40625 54.6875 
L 54.390625 54.6875 
z
" id="DejaVuSans-103"/>
       <path d="M 12.40625 8.296875 
L 28.515625 8.296875 
L 28.515625 63.921875 
L 10.984375 60.40625 
L 10.984375 69.390625 
L 28.421875 72.90625 
L 38.28125 72.90625 
L 38.28125 8.296875 
L 54.390625 8.296875 
L 54.390625 0 
L 12.40625 0 
z
" id="DejaVuSans-49"/>
       <path id="DejaVuSans-32"/>
       <path d="M 37.109375 75.984375 
L 37.109375 68.5 
L 28.515625 68.5 
Q 23.6875 68.5 21.796875 66.546875 
Q 19.921875 64.59375 19.921875 59.515625 
L 19.921875 54.6875 
L 34.71875 54.6875 
L 34.71875 47.703125 
L 19.921875 47.703125 
L 19.921875 0 
L 10.890625 0 
L 10.890625 47.703125 
L 2.296875 47.703125 
L 2.296875 54.6875 
L 10.890625 54.6875 
L 10.890625 58.5 
Q 10.890625 67.625 15.140625 71.796875 
Q 19.390625 75.984375 28.609375 75.984375 
z
" id="DejaVuSans-102"/>
       <path d="M 19.671875 64.796875 
L 19.671875 8.109375 
L 31.59375 8.109375 
Q 46.6875 8.109375 53.6875 14.9375 
Q 60.6875 21.78125 60.6875 36.53125 
Q 60.6875 51.171875 53.6875 57.984375 
Q 46.6875 64.796875 31.59375 64.796875 
z
M 9.8125 72.90625 
L 30.078125 72.90625 
Q 51.265625 72.90625 61.171875 64.09375 
Q 71.09375 55.28125 71.09375 36.53125 
Q 71.09375 17.671875 61.125 8.828125 
Q 51.171875 0 30.078125 0 
L 9.8125 0 
z
" id="DejaVuSans-68"/>
      </defs>
      <use xlink:href="#DejaVuSans-108"/>
      <use x="27.783203" xlink:href="#DejaVuSans-111"/>
      <use x="88.964844" xlink:href="#DejaVuSans-103"/>
      <use x="152.441406" xlink:href="#DejaVuSans-49"/>
      <use x="216.064453" xlink:href="#DejaVuSans-48"/>
      <use x="279.6875" xlink:href="#DejaVuSans-32"/>
      <use x="311.474609" xlink:href="#DejaVuSans-111"/>
      <use x="372.65625" xlink:href="#DejaVuSans-102"/>
      <use x="407.861328" xlink:href="#DejaVuSans-32"/>
      <use x="439.648438" xlink:href="#DejaVuSans-68"/>
      <use x="516.650391" xlink:href="#DejaVuSans-102"/>
     </g>
    </g>
   </g>
   <g id="matplotlib.axis_2">
    <g id="ytick_1">
     <g id="line2d_9">
      <path clip-path="url(#p1d1963a8aa)" d="M 0 293.76 
L 460.8 293.76 
" style="fill:none;stroke:#b0b0b0;stroke-linecap:square;stroke-width:0.8;"/>
     </g>
     <g id="line2d_10">
      <defs>
       <path d="M 0 0 
L -3.5 0 
" id="mb6d3b8e813" style="stroke:#000000;stroke-width:0.8;"/>
      </defs>
      <g>
       <use style="stroke:#000000;stroke-width:0.8;" x="0" xlink:href="#mb6d3b8e813" y="293.76"/>
      </g>
     </g>
    </g>
    <g id="ytick_2">
     <g id="line2d_11">
      <path clip-path="url(#p1d1963a8aa)" d="M 0 236.274059 
L 460.8 236.274059 
" style="fill:none;stroke:#b0b0b0;stroke-linecap:square;stroke-width:0.8;"/>
     </g>
     <g id="line2d_12">
      <g>
       <use style="stroke:#000000;stroke-width:0.8;" x="0" xlink:href="#mb6d3b8e813" y="236.274059"/>
      </g>
     </g>
    </g>
    <g id="ytick_3">
     <g id="line2d_13">
      <path clip-path="url(#p1d1963a8aa)" d="M 0 178.788119 
L 460.8 178.788119 
" style="fill:none;stroke:#b0b0b0;stroke-linecap:square;stroke-width:0.8;"/>
     </g>
     <g id="line2d_14">
      <g>
       <use style="stroke:#000000;stroke-width:0.8;" x="0" xlink:href="#mb6d3b8e813" y="178.788119"/>
      </g>
     </g>
    </g>
    <g id="ytick_4">
     <g id="line2d_15">
      <path clip-path="url(#p1d1963a8aa)" d="M 0 121.302178 
L 460.8 121.302178 
" style="fill:none;stroke:#b0b0b0;stroke-linecap:square;stroke-width:0.8;"/>
     </g>
     <g id="line2d_16">
      <g>
       <use style="stroke:#000000;stroke-width:0.8;" x="0" xlink:href="#mb6d3b8e813" y="121.302178"/>
      </g>
     </g>
    </g>
    <g id="ytick_5">
     <g id="line2d_17">
      <path clip-path="url(#p1d1963a8aa)" d="M 0 63.816238 
L 460.8 63.816238 
" style="fill:none;stroke:#b0b0b0;stroke-linecap:square;stroke-width:0.8;"/>
     </g>
     <g id="line2d_18">
      <g>
       <use style="stroke:#000000;stroke-width:0.8;" x="0" xlink:href="#mb6d3b8e813" y="63.816238"/>
      </g>
     </g>
    </g>
    <g id="ytick_6">
     <g id="line2d_19">
      <path clip-path="url(#p1d1963a8aa)" d="M 0 6.330297 
L 460.8 6.330297 
" style="fill:none;stroke:#b0b0b0;stroke-linecap:square;stroke-width:0.8;"/>
     </g>
     <g id="line2d_20">
      <g>
       <use style="stroke:#000000;stroke-width:0.8;" x="0" xlink:href="#mb6d3b8e813" y="6.330297"/>
      </g>
     </g>
    </g>
   </g>
   <g id="line2d_21">
    <path clip-path="url(#p1d1963a8aa)" d="M -0.114413 293.76 
L -0.114413 270.765624 
L 163.298717 270.765624 
L 163.298717 266.933228 
L 186.649746 266.933228 
L 186.649746 263.100832 
L 192.789964 263.100832 
L 192.789964 259.268436 
L 199.566651 259.268436 
L 199.591234 251.603644 
L 200.631014 251.603644 
L 200.631014 247.771248 
L 201.838744 247.771248 
L 201.838744 243.938851 
L 202.374346 243.938851 
L 202.374346 240.106455 
L 203.793007 240.106455 
L 203.793007 236.274059 
L 206.291146 236.274059 
L 206.291146 232.441663 
L 208.192932 232.441663 
L 208.192932 228.609267 
L 210.04126 228.609267 
L 210.04126 224.776871 
L 211.799409 224.776871 
L 211.799409 220.944475 
L 213.993997 220.944475 
L 213.993997 217.112079 
L 214.215386 217.112079 
L 214.215386 209.447287 
L 215.411631 209.447287 
L 215.411631 205.614891 
L 217.508442 205.614891 
L 217.508442 201.782495 
L 218.04307 201.782495 
L 218.130342 194.117703 
L 218.471183 194.117703 
L 218.554498 182.620515 
L 219.044177 182.620515 
L 219.044177 174.955723 
L 219.911701 174.955723 
L 219.911701 171.123327 
L 220.619855 171.123327 
L 220.619855 167.290931 
L 220.816343 167.290931 
L 220.816343 159.626139 
L 221.800572 159.626139 
L 221.830926 151.961347 
L 222.104193 151.961347 
L 222.104193 148.12895 
L 222.53004 148.12895 
L 222.638268 132.799366 
L 222.709905 132.799366 
L 222.709905 125.134574 
L 228.089337 125.134574 
L 228.089337 121.302178 
L 234.086329 121.302178 
L 234.086329 113.637386 
L 235.395506 113.637386 
L 235.395506 109.80499 
L 235.77964 109.80499 
L 235.77964 105.972594 
L 236.624369 105.972594 
L 236.624369 98.307802 
L 237.937882 98.307802 
L 237.937882 94.475406 
L 239.238504 94.475406 
L 239.238504 90.64301 
L 239.395769 90.64301 
L 239.415889 82.978218 
L 240.80676 82.978218 
L 240.80676 79.145822 
L 242.607142 79.145822 
L 242.607142 75.313426 
L 245.11058 75.313426 
L 245.116395 67.648634 
L 245.866933 67.648634 
L 245.866933 63.816238 
L 246.431815 63.816238 
L 246.4637 56.151446 
L 246.64034 56.151446 
L 246.64034 52.31905 
L 247.00672 52.31905 
L 247.00672 48.486653 
L 247.504815 48.486653 
L 247.607255 40.821861 
L 248.357801 40.821861 
L 248.357801 36.989465 
L 248.918872 36.989465 
L 248.922439 29.324673 
L 249.357292 29.324673 
L 249.357292 25.492277 
L 250.833006 25.492277 
L 250.833006 17.827485 
L 251.768853 17.827485 
L 251.768853 13.995089 
L 256.712747 13.995089 
L 256.712747 6.330297 
L 256.712747 6.330297 
L 460.8 6.330297 
L 460.8 6.330297 
" style="fill:none;stroke:#ff0000;stroke-linecap:square;stroke-width:3;"/>
   </g>
   <g id="line2d_22">
    <path clip-path="url(#p1d1963a8aa)" d="M 233.132805 293.76 
L 233.132805 289.927604 
L 233.260097 289.927604 
L 233.260097 286.095208 
L 233.593489 286.095208 
L 233.593489 282.262812 
L 234.772543 282.262812 
L 234.772543 278.430416 
L 237.034949 278.430416 
L 237.034949 274.59802 
L 238.864032 274.59802 
L 238.864032 270.765624 
L 239.782184 270.765624 
L 239.782184 266.933228 
L 240.796992 266.933228 
L 240.796992 263.100832 
L 241.063085 263.100832 
L 241.063085 259.268436 
L 241.820481 259.268436 
L 241.820481 255.43604 
L 242.749749 255.43604 
L 242.749749 251.603644 
L 243.278475 251.603644 
L 243.278475 247.771248 
L 244.066732 247.771248 
L 244.066732 243.938851 
L 245.907635 243.938851 
L 245.907635 240.106455 
L 246.248285 240.106455 
L 246.248285 236.274059 
L 246.41588 236.274059 
L 246.41588 232.441663 
L 246.657535 232.441663 
L 246.657535 228.609267 
L 247.936603 228.609267 
L 247.936603 224.776871 
L 249.547421 224.776871 
L 249.547421 220.944475 
L 251.641177 220.944475 
L 251.641177 217.112079 
L 252.279395 217.112079 
L 252.279395 213.279683 
L 252.423486 213.279683 
L 252.423486 209.447287 
L 254.786754 209.447287 
L 254.869596 201.782495 
L 255.618675 201.782495 
L 255.618675 197.950099 
L 256.452436 197.950099 
L 256.452436 194.117703 
L 256.649818 194.117703 
L 256.649818 190.285307 
L 257.643067 190.285307 
L 257.643067 186.452911 
L 257.931948 186.452911 
L 257.931948 182.620515 
L 258.151393 182.620515 
L 258.151393 178.788119 
L 258.511034 178.788119 
L 258.511034 174.955723 
L 258.686824 174.955723 
L 258.789254 167.290931 
L 259.232514 167.290931 
L 259.279849 151.961347 
L 259.722466 151.961347 
L 259.793887 144.296554 
L 259.888024 144.296554 
L 259.899658 136.631762 
L 260.303265 136.631762 
L 260.354419 125.134574 
L 260.457325 125.134574 
L 260.503247 117.469782 
L 260.612498 117.469782 
L 260.694163 109.80499 
L 260.747986 109.80499 
L 260.747986 105.972594 
L 261.035325 105.972594 
L 261.13987 98.307802 
L 261.176659 98.307802 
L 261.176659 94.475406 
L 261.56271 94.475406 
L 261.56271 90.64301 
L 261.779155 90.64301 
L 261.820333 82.978218 
L 261.943282 82.978218 
L 261.943282 79.145822 
L 263.134577 79.145822 
L 263.134577 75.313426 
L 263.537834 75.313426 
L 263.605789 67.648634 
L 263.944438 67.648634 
L 263.944438 63.816238 
L 304.055009 63.816238 
L 304.055231 52.31905 
L 312.435423 52.31905 
L 312.435423 48.486653 
L 312.806641 48.486653 
L 312.806641 6.330297 
L 312.806641 6.330297 
L 460.8 6.330297 
L 460.8 6.330297 
" style="fill:none;stroke:#00bfbf;stroke-linecap:square;stroke-width:1.5;"/>
   </g>
   <g id="line2d_23">
    <path clip-path="url(#p1d1963a8aa)" d="M 222.262523 293.76 
L 222.262523 289.927604 
L 228.061704 289.927604 
L 228.061704 286.095208 
L 229.022009 286.095208 
L 229.022009 282.262812 
L 229.422183 282.262812 
L 229.422183 278.430416 
L 233.260097 278.430416 
L 233.260097 274.59802 
L 233.593489 274.59802 
L 233.593489 270.765624 
L 233.927774 270.765624 
L 233.977941 263.100832 
L 234.580047 263.100832 
L 234.580047 259.268436 
L 235.361583 259.268436 
L 235.361583 255.43604 
L 235.704251 255.43604 
L 235.704251 251.603644 
L 237.034949 251.603644 
L 237.034949 247.771248 
L 237.181685 247.771248 
L 237.181685 243.938851 
L 238.214967 243.938851 
L 238.214967 240.106455 
L 242.474985 240.106455 
L 242.474985 236.274059 
L 243.016964 236.274059 
L 243.016964 232.441663 
L 244.066732 232.441663 
L 244.066732 228.609267 
L 244.419003 228.609267 
L 244.419003 224.776871 
L 246.248285 224.776871 
L 246.248285 220.944475 
L 249.547421 220.944475 
L 249.550394 213.279683 
L 251.641177 213.279683 
L 251.641177 209.447287 
L 252.193242 209.447287 
L 252.193242 205.614891 
L 252.423486 205.614891 
L 252.491178 197.950099 
L 253.138853 197.950099 
L 253.138853 194.117703 
L 253.751046 194.117703 
L 253.751046 190.285307 
L 254.517599 190.285307 
L 254.517599 186.452911 
L 256.027727 186.452911 
L 256.027727 182.620515 
L 256.397607 182.620515 
L 256.397607 178.788119 
L 256.614976 178.788119 
L 256.614976 174.955723 
L 257.38012 174.955723 
L 257.479885 167.290931 
L 257.643067 167.290931 
L 257.643067 163.458535 
L 258.028695 163.458535 
L 258.028695 159.626139 
L 258.151393 159.626139 
L 258.240195 151.961347 
L 258.299874 151.961347 
L 258.299874 148.12895 
L 258.418038 148.12895 
L 258.418038 144.296554 
L 259.121138 144.296554 
L 259.178689 132.799366 
L 259.32572 132.799366 
L 259.32572 128.96697 
L 259.722466 128.96697 
L 259.793887 121.302178 
L 259.888024 121.302178 
L 259.899658 113.637386 
L 260.093934 113.637386 
L 260.16988 105.972594 
L 260.303265 105.972594 
L 260.354419 98.307802 
L 260.694163 98.307802 
L 260.748154 86.810614 
L 260.92723 86.810614 
L 260.947275 79.145822 
L 261.041997 79.145822 
L 261.041997 75.313426 
L 261.176659 75.313426 
L 261.233358 67.648634 
L 261.850723 67.648634 
L 261.850723 63.816238 
L 299.321722 63.816238 
L 299.321722 56.151446 
L 300.33154 56.151446 
L 300.33154 52.31905 
L 300.66679 52.31905 
L 300.66679 48.486653 
L 304.055009 48.486653 
L 304.055231 36.989465 
L 305.807156 36.989465 
L 305.810036 25.492277 
L 306.763341 25.492277 
L 306.763341 21.659881 
L 306.95448 21.659881 
L 306.956155 10.162693 
L 309.637714 10.162693 
L 309.637714 6.330297 
L 309.637714 6.330297 
L 460.8 6.330297 
L 460.8 6.330297 
" style="fill:none;stroke:#bf00bf;stroke-linecap:square;stroke-width:1.5;"/>
   </g>
   <g id="line2d_24">
    <path clip-path="url(#p1d1963a8aa)" d="M 220.174421 293.76 
L 220.174421 289.927604 
L 221.668034 289.927604 
L 221.668034 286.095208 
L 226.888577 286.095208 
L 226.888577 282.262812 
L 227.897431 282.262812 
L 227.897431 278.430416 
L 228.061704 278.430416 
L 228.061704 274.59802 
L 229.022009 274.59802 
L 229.022009 270.765624 
L 231.030743 270.765624 
L 231.030743 266.933228 
L 231.379569 266.933228 
L 231.379569 263.100832 
L 231.736177 263.100832 
L 231.736177 259.268436 
L 232.20618 259.268436 
L 232.20618 255.43604 
L 232.887533 255.43604 
L 232.887533 251.603644 
L 233.593489 251.603644 
L 233.593489 247.771248 
L 233.853999 247.771248 
L 233.853999 243.938851 
L 233.977941 243.938851 
L 233.977941 240.106455 
L 235.361583 240.106455 
L 235.361583 236.274059 
L 236.390597 236.274059 
L 236.390597 232.441663 
L 238.214967 232.441663 
L 238.214967 228.609267 
L 240.281148 228.609267 
L 240.281148 224.776871 
L 243.618788 224.776871 
L 243.618788 220.944475 
L 245.966199 220.944475 
L 245.966199 217.112079 
L 246.34622 217.112079 
L 246.34622 213.279683 
L 249.479539 213.279683 
L 249.550394 205.614891 
L 249.745099 205.614891 
L 249.745099 201.782495 
L 250.071721 201.782495 
L 250.071922 194.117703 
L 251.961223 194.117703 
L 251.961223 190.285307 
L 253.138853 190.285307 
L 253.138853 186.452911 
L 253.534956 186.452911 
L 253.534956 182.620515 
L 254.064175 182.620515 
L 254.064175 178.788119 
L 254.278482 178.788119 
L 254.339057 171.123327 
L 254.927616 171.123327 
L 254.927616 167.290931 
L 255.781072 167.290931 
L 255.781072 163.458535 
L 256.027727 163.458535 
L 256.027727 159.626139 
L 256.397607 159.626139 
L 256.409672 151.961347 
L 256.577528 151.961347 
L 256.660258 140.464158 
L 257.000228 140.464158 
L 257.000228 136.631762 
L 257.479885 136.631762 
L 257.562889 125.134574 
L 258.04195 125.134574 
L 258.04195 121.302178 
L 258.157221 121.302178 
L 258.157221 117.469782 
L 258.418038 117.469782 
L 258.418038 113.637386 
L 258.669492 113.637386 
L 258.669492 109.80499 
L 258.890662 109.80499 
L 258.890662 105.972594 
L 259.346848 105.972594 
L 259.346848 102.140198 
L 259.499414 102.140198 
L 259.502346 94.475406 
L 259.706127 94.475406 
L 259.706127 90.64301 
L 260.101185 90.64301 
L 260.101185 86.810614 
L 260.374258 86.810614 
L 260.374258 82.978218 
L 260.502334 82.978218 
L 260.502334 79.145822 
L 260.659564 79.145822 
L 260.748736 67.648634 
L 260.832882 67.648634 
L 260.832882 63.816238 
L 284.204651 63.816238 
L 284.204651 59.983842 
L 292.112327 59.983842 
L 292.112824 48.486653 
L 299.321722 48.486653 
L 299.321722 40.821861 
L 300.33154 40.821861 
L 300.33154 36.989465 
L 300.66679 36.989465 
L 300.66679 33.157069 
L 305.807156 33.157069 
L 305.810036 21.659881 
L 306.763341 21.659881 
L 306.763341 17.827485 
L 306.95448 17.827485 
L 306.956155 6.330297 
L 306.956155 6.330297 
L 460.8 6.330297 
L 460.8 6.330297 
" style="fill:none;stroke:#000000;stroke-linecap:square;stroke-width:1.5;"/>
   </g>
   <g id="line2d_25">
    <path clip-path="url(#p1d1963a8aa)" d="M 177.090549 293.76 
L 177.090549 289.927604 
L 197.005857 289.927604 
L 197.005857 286.095208 
L 218.738552 286.095208 
L 218.738552 282.262812 
L 219.54927 282.262812 
L 219.54927 278.430416 
L 219.738103 278.430416 
L 219.738103 270.765624 
L 225.130613 270.765624 
L 225.130613 266.933228 
L 225.722626 266.933228 
L 225.722626 263.100832 
L 225.945896 263.100832 
L 225.945896 259.268436 
L 226.247083 259.268436 
L 226.247083 251.603644 
L 226.618495 251.603644 
L 226.618495 247.771248 
L 227.091581 247.771248 
L 227.091581 243.938851 
L 227.952959 243.938851 
L 228.061704 236.274059 
L 229.022009 236.274059 
L 229.022009 232.441663 
L 230.070003 232.441663 
L 230.070003 228.609267 
L 230.287435 228.609267 
L 230.287435 224.776871 
L 231.030743 224.776871 
L 231.030743 220.944475 
L 231.214151 220.944475 
L 231.322327 213.279683 
L 232.887533 213.279683 
L 232.887533 209.447287 
L 233.509318 209.447287 
L 233.593489 197.950099 
L 233.977941 197.950099 
L 233.977941 194.117703 
L 234.173033 194.117703 
L 234.173033 190.285307 
L 235.945675 190.285307 
L 235.945675 186.452911 
L 237.494702 186.452911 
L 237.494702 182.620515 
L 238.458141 182.620515 
L 238.467558 174.955723 
L 239.589575 174.955723 
L 239.589575 171.123327 
L 241.208942 171.123327 
L 241.208942 167.290931 
L 245.980428 167.290931 
L 245.980428 163.458535 
L 247.243469 163.458535 
L 247.289382 155.793743 
L 248.865683 155.793743 
L 248.865683 151.961347 
L 249.047884 151.961347 
L 249.047884 148.12895 
L 249.588663 148.12895 
L 249.588663 144.296554 
L 249.954403 144.296554 
L 249.954403 140.464158 
L 251.072047 140.464158 
L 251.072047 136.631762 
L 251.489604 136.631762 
L 251.522333 128.96697 
L 252.253458 128.96697 
L 252.296088 121.302178 
L 253.138853 121.302178 
L 253.138853 117.469782 
L 253.592511 117.469782 
L 253.592511 113.637386 
L 254.059461 113.637386 
L 254.158818 105.972594 
L 254.475959 105.972594 
L 254.475959 102.140198 
L 254.927616 102.140198 
L 255.009213 94.475406 
L 255.236151 94.475406 
L 255.322297 86.810614 
L 255.668792 86.810614 
L 255.668792 82.978218 
L 255.8247 82.978218 
L 255.8247 79.145822 
L 256.027727 79.145822 
L 256.027727 75.313426 
L 256.397607 75.313426 
L 256.397607 71.48103 
L 256.839979 71.48103 
L 256.839979 67.648634 
L 256.977422 67.648634 
L 256.977422 63.816238 
L 257.386576 63.816238 
L 257.386576 59.983842 
L 257.563244 59.983842 
L 257.563244 56.151446 
L 258.158791 56.151446 
L 258.193961 48.486653 
L 258.913479 48.486653 
L 258.913479 44.654257 
L 259.575215 44.654257 
L 259.575215 40.821861 
L 260.3155 40.821861 
L 260.354529 33.157069 
L 265.951689 33.157069 
L 265.951689 29.324673 
L 270.057403 29.324673 
L 270.057403 25.492277 
L 271.548702 25.492277 
L 271.548702 21.659881 
L 274.172491 21.659881 
L 274.172491 17.827485 
L 277.477134 17.827485 
L 277.513898 6.330297 
L 277.513898 6.330297 
L 460.8 6.330297 
L 460.8 6.330297 
" style="fill:none;stroke:#00bfbf;stroke-linecap:square;stroke-width:1.5;"/>
   </g>
   <g id="line2d_26">
    <path clip-path="url(#p1d1963a8aa)" d="M 57.050061 293.76 
L 57.050061 289.927604 
L 117.417374 289.927604 
L 117.417374 286.095208 
L 130.050282 286.095208 
L 130.050282 282.262812 
L 153.024942 282.262812 
L 153.024942 278.430416 
L 161.725864 278.430416 
L 161.725864 274.59802 
L 195.810416 274.59802 
L 195.810416 270.765624 
L 206.562479 270.765624 
L 206.562479 266.933228 
L 206.995908 266.933228 
L 206.995908 263.100832 
L 212.593846 263.100832 
L 212.593846 259.268436 
L 213.110368 259.268436 
L 213.160827 251.603644 
L 213.740269 251.603644 
L 213.740269 247.771248 
L 214.231165 247.771248 
L 214.231165 243.938851 
L 215.075507 243.938851 
L 215.075507 240.106455 
L 215.54394 240.106455 
L 215.54394 236.274059 
L 216.372106 236.274059 
L 216.477607 228.609267 
L 217.570416 228.609267 
L 217.570416 224.776871 
L 218.081428 224.776871 
L 218.17688 213.279683 
L 218.471465 213.279683 
L 218.471465 209.447287 
L 219.015116 209.447287 
L 219.015116 205.614891 
L 219.178363 205.614891 
L 219.178363 197.950099 
L 219.465923 197.950099 
L 219.509927 186.452911 
L 220.000426 186.452911 
L 220.000426 182.620515 
L 220.619855 182.620515 
L 220.619855 178.788119 
L 220.877837 178.788119 
L 220.877837 171.123327 
L 221.844205 171.123327 
L 221.844205 167.290931 
L 222.015678 167.290931 
L 222.111271 159.626139 
L 222.14046 159.626139 
L 222.14046 155.793743 
L 222.545889 155.793743 
L 222.545889 151.961347 
L 222.713196 151.961347 
L 222.713196 144.296554 
L 222.940506 144.296554 
L 222.940506 140.464158 
L 223.134319 140.464158 
L 223.134319 136.631762 
L 223.399686 136.631762 
L 223.399686 132.799366 
L 225.236169 132.799366 
L 225.236169 128.96697 
L 228.09128 128.96697 
L 228.09128 125.134574 
L 228.55251 125.134574 
L 228.55251 121.302178 
L 234.08654 121.302178 
L 234.086933 113.637386 
L 235.422826 113.637386 
L 235.422826 109.80499 
L 236.426475 109.80499 
L 236.426475 105.972594 
L 236.632225 105.972594 
L 236.632225 102.140198 
L 237.488601 102.140198 
L 237.488601 98.307802 
L 239.301359 98.307802 
L 239.399907 90.64301 
L 240.806485 90.64301 
L 240.806485 86.810614 
L 242.605851 86.810614 
L 242.605851 82.978218 
L 244.431261 82.978218 
L 244.431261 79.145822 
L 245.110936 79.145822 
L 245.110936 75.313426 
L 246.860316 75.313426 
L 246.860316 71.48103 
L 247.557555 71.48103 
L 247.599489 63.816238 
L 247.961999 63.816238 
L 248.029624 56.151446 
L 248.487103 56.151446 
L 248.487103 52.31905 
L 249.15697 52.31905 
L 249.256683 44.654257 
L 249.305671 44.654257 
L 249.305671 40.821861 
L 249.846405 40.821861 
L 249.846405 36.989465 
L 251.319558 36.989465 
L 251.319558 33.157069 
L 252.354092 33.157069 
L 252.354092 29.324673 
L 252.858581 29.324673 
L 252.933836 21.659881 
L 253.499875 21.659881 
L 253.499875 17.827485 
L 254.353653 17.827485 
L 254.353653 13.995089 
L 256.713081 13.995089 
L 256.713081 10.162693 
L 256.893945 10.162693 
L 256.893945 6.330297 
L 256.893945 6.330297 
L 460.8 6.330297 
L 460.8 6.330297 
" style="fill:none;stroke:#bf00bf;stroke-linecap:square;stroke-width:1.5;"/>
   </g>
   <g id="line2d_27">
    <path clip-path="url(#p1d1963a8aa)" d="M -0.114413 293.76 
L -0.114413 270.765624 
L 163.31884 270.765624 
L 163.31884 266.933228 
L 186.649746 266.933228 
L 186.649746 263.100832 
L 192.794801 263.100832 
L 192.794801 259.268436 
L 199.566651 259.268436 
L 199.591234 251.603644 
L 200.631014 251.603644 
L 200.631014 247.771248 
L 201.838744 247.771248 
L 201.838744 243.938851 
L 202.374346 243.938851 
L 202.374346 240.106455 
L 203.793008 240.106455 
L 203.793008 236.274059 
L 206.291146 236.274059 
L 206.291146 232.441663 
L 208.192932 232.441663 
L 208.192932 228.609267 
L 210.04126 228.609267 
L 210.04126 224.776871 
L 211.799409 224.776871 
L 211.799409 220.944475 
L 213.993998 220.944475 
L 213.993998 217.112079 
L 214.215386 217.112079 
L 214.215386 209.447287 
L 215.411631 209.447287 
L 215.411631 205.614891 
L 217.508442 205.614891 
L 217.508442 201.782495 
L 218.04307 201.782495 
L 218.130342 194.117703 
L 218.471183 194.117703 
L 218.554498 182.620515 
L 219.044177 182.620515 
L 219.044177 174.955723 
L 219.911701 174.955723 
L 219.911701 171.123327 
L 220.619855 171.123327 
L 220.619855 167.290931 
L 220.816343 167.290931 
L 220.816343 159.626139 
L 221.800572 159.626139 
L 221.830927 151.961347 
L 222.104193 151.961347 
L 222.104193 148.12895 
L 222.53004 148.12895 
L 222.638268 132.799366 
L 222.709905 132.799366 
L 222.709905 125.134574 
L 228.089337 125.134574 
L 228.089337 121.302178 
L 234.086329 121.302178 
L 234.086329 113.637386 
L 235.395506 113.637386 
L 235.395506 109.80499 
L 235.77964 109.80499 
L 235.77964 105.972594 
L 236.624369 105.972594 
L 236.624369 98.307802 
L 237.937882 98.307802 
L 237.937882 94.475406 
L 239.238504 94.475406 
L 239.238504 90.64301 
L 239.395769 90.64301 
L 239.415889 82.978218 
L 240.80676 82.978218 
L 240.80676 79.145822 
L 242.607142 79.145822 
L 242.607142 75.313426 
L 245.11058 75.313426 
L 245.116395 67.648634 
L 245.866933 67.648634 
L 245.866933 63.816238 
L 246.431815 63.816238 
L 246.4637 56.151446 
L 246.64034 56.151446 
L 246.64034 52.31905 
L 247.00672 52.31905 
L 247.00672 48.486653 
L 247.504815 48.486653 
L 247.607255 40.821861 
L 248.357801 40.821861 
L 248.357801 36.989465 
L 248.918872 36.989465 
L 248.922439 29.324673 
L 249.357292 29.324673 
L 249.357292 25.492277 
L 250.833006 25.492277 
L 250.833006 17.827485 
L 251.768853 17.827485 
L 251.768853 13.995089 
L 256.712747 13.995089 
L 256.712747 6.330297 
L 256.712747 6.330297 
L 460.8 6.330297 
L 460.8 6.330297 
" style="fill:none;stroke:#000000;stroke-linecap:square;stroke-width:1.5;"/>
   </g>
   <g id="patch_3">
    <path d="M 0 293.76 
L 0 3.456 
" style="fill:none;stroke:#000000;stroke-linecap:square;stroke-linejoin:miter;stroke-width:0.8;"/>
   </g>
   <g id="patch_4">
    <path d="M 460.8 293.76 
L 460.8 3.456 
" style="fill:none;stroke:#000000;stroke-linecap:square;stroke-linejoin:miter;stroke-width:0.8;"/>
   </g>
   <g id="patch_5">
    <path d="M 0 293.76 
L 460.8 293.76 
" style="fill:none;stroke:#000000;stroke-linecap:square;stroke-linejoin:miter;stroke-width:0.8;"/>
   </g>
   <g id="patch_6">
    <path d="M 0 3.456 
L 460.8 3.456 
" style="fill:none;stroke:#000000;stroke-linecap:square;stroke-linejoin:miter;stroke-width:0.8;"/>
   </g>
   <g id="text_6">
    <!-- {f20-f24}, 5-D -->
    <g transform="translate(305.884 287.95392)scale(0.2 -0.2)">
     <defs>
      <path d="M 51.125 -9.28125 
L 51.125 -16.3125 
L 48.09375 -16.3125 
Q 35.9375 -16.3125 31.8125 -12.6875 
Q 27.6875 -9.078125 27.6875 1.703125 
L 27.6875 13.375 
Q 27.6875 20.75 25.046875 23.578125 
Q 22.40625 26.421875 15.484375 26.421875 
L 12.5 26.421875 
L 12.5 33.40625 
L 15.484375 33.40625 
Q 22.46875 33.40625 25.078125 36.203125 
Q 27.6875 39.015625 27.6875 46.296875 
L 27.6875 58.015625 
Q 27.6875 68.796875 31.8125 72.390625 
Q 35.9375 75.984375 48.09375 75.984375 
L 51.125 75.984375 
L 51.125 69 
L 47.796875 69 
Q 40.921875 69 38.8125 66.84375 
Q 36.71875 64.703125 36.71875 57.8125 
L 36.71875 45.703125 
Q 36.71875 38.03125 34.5 34.5625 
Q 32.28125 31.109375 26.90625 29.890625 
Q 32.328125 28.5625 34.515625 25.09375 
Q 36.71875 21.625 36.71875 14.015625 
L 36.71875 1.90625 
Q 36.71875 -4.984375 38.8125 -7.125 
Q 40.921875 -9.28125 47.796875 -9.28125 
z
" id="DejaVuSans-123"/>
      <path d="M 19.1875 8.296875 
L 53.609375 8.296875 
L 53.609375 0 
L 7.328125 0 
L 7.328125 8.296875 
Q 12.9375 14.109375 22.625 23.890625 
Q 32.328125 33.6875 34.8125 36.53125 
Q 39.546875 41.84375 41.421875 45.53125 
Q 43.3125 49.21875 43.3125 52.78125 
Q 43.3125 58.59375 39.234375 62.25 
Q 35.15625 65.921875 28.609375 65.921875 
Q 23.96875 65.921875 18.8125 64.3125 
Q 13.671875 62.703125 7.8125 59.421875 
L 7.8125 69.390625 
Q 13.765625 71.78125 18.9375 73 
Q 24.125 74.21875 28.421875 74.21875 
Q 39.75 74.21875 46.484375 68.546875 
Q 53.21875 62.890625 53.21875 53.421875 
Q 53.21875 48.921875 51.53125 44.890625 
Q 49.859375 40.875 45.40625 35.40625 
Q 44.1875 33.984375 37.640625 27.21875 
Q 31.109375 20.453125 19.1875 8.296875 
z
" id="DejaVuSans-50"/>
      <path d="M 12.5 -9.28125 
L 15.921875 -9.28125 
Q 22.75 -9.28125 24.828125 -7.171875 
Q 26.90625 -5.078125 26.90625 1.90625 
L 26.90625 14.015625 
Q 26.90625 21.625 29.09375 25.09375 
Q 31.296875 28.5625 36.71875 29.890625 
Q 31.296875 31.109375 29.09375 34.5625 
Q 26.90625 38.03125 26.90625 45.703125 
L 26.90625 57.8125 
Q 26.90625 64.75 24.828125 66.875 
Q 22.75 69 15.921875 69 
L 12.5 69 
L 12.5 75.984375 
L 15.578125 75.984375 
Q 27.734375 75.984375 31.8125 72.390625 
Q 35.890625 68.796875 35.890625 58.015625 
L 35.890625 46.296875 
Q 35.890625 39.015625 38.515625 36.203125 
Q 41.15625 33.40625 48.09375 33.40625 
L 51.125 33.40625 
L 51.125 26.421875 
L 48.09375 26.421875 
Q 41.15625 26.421875 38.515625 23.578125 
Q 35.890625 20.75 35.890625 13.375 
L 35.890625 1.703125 
Q 35.890625 -9.078125 31.8125 -12.6875 
Q 27.734375 -16.3125 15.578125 -16.3125 
L 12.5 -16.3125 
z
" id="DejaVuSans-125"/>
      <path d="M 11.71875 12.40625 
L 22.015625 12.40625 
L 22.015625 4 
L 14.015625 -11.625 
L 7.71875 -11.625 
L 11.71875 4 
z
" id="DejaVuSans-44"/>
      <path d="M 10.796875 72.90625 
L 49.515625 72.90625 
L 49.515625 64.59375 
L 19.828125 64.59375 
L 19.828125 46.734375 
Q 21.96875 47.46875 24.109375 47.828125 
Q 26.265625 48.1875 28.421875 48.1875 
Q 40.625 48.1875 47.75 41.5 
Q 54.890625 34.8125 54.890625 23.390625 
Q 54.890625 11.625 47.5625 5.09375 
Q 40.234375 -1.421875 26.90625 -1.421875 
Q 22.3125 -1.421875 17.546875 -0.640625 
Q 12.796875 0.140625 7.71875 1.703125 
L 7.71875 11.625 
Q 12.109375 9.234375 16.796875 8.0625 
Q 21.484375 6.890625 26.703125 6.890625 
Q 35.15625 6.890625 40.078125 11.328125 
Q 45.015625 15.765625 45.015625 23.390625 
Q 45.015625 31 40.078125 35.4375 
Q 35.15625 39.890625 26.703125 39.890625 
Q 22.75 39.890625 18.8125 39.015625 
Q 14.890625 38.140625 10.796875 36.28125 
z
" id="DejaVuSans-53"/>
     </defs>
     <use xlink:href="#DejaVuSans-123"/>
     <use x="63.623047" xlink:href="#DejaVuSans-102"/>
     <use x="98.828125" xlink:href="#DejaVuSans-50"/>
     <use x="162.451172" xlink:href="#DejaVuSans-48"/>
     <use x="226.074219" xlink:href="#DejaVuSans-45"/>
     <use x="262.158203" xlink:href="#DejaVuSans-102"/>
     <use x="297.363281" xlink:href="#DejaVuSans-50"/>
     <use x="360.986328" xlink:href="#DejaVuSans-52"/>
     <use x="424.609375" xlink:href="#DejaVuSans-125"/>
     <use x="488.232422" xlink:href="#DejaVuSans-44"/>
     <use x="520.019531" xlink:href="#DejaVuSans-32"/>
     <use x="551.806641" xlink:href="#DejaVuSans-53"/>
     <use x="615.429688" xlink:href="#DejaVuSans-45"/>
     <use x="651.513672" xlink:href="#DejaVuSans-68"/>
    </g>
   </g>
   <g id="text_7">
    <!-- v2.4 -->
    <g style="fill:#808080;" transform="translate(219.489063 288.777272)scale(0.1 -0.1)">
     <defs>
      <path d="M 2.984375 54.6875 
L 12.5 54.6875 
L 29.59375 8.796875 
L 46.6875 54.6875 
L 56.203125 54.6875 
L 35.6875 0 
L 23.484375 0 
z
" id="DejaVuSans-118"/>
      <path d="M 10.6875 12.40625 
L 21 12.40625 
L 21 0 
L 10.6875 0 
z
" id="DejaVuSans-46"/>
     </defs>
     <use xlink:href="#DejaVuSans-118"/>
     <use x="59.179688" xlink:href="#DejaVuSans-50"/>
     <use x="122.802734" xlink:href="#DejaVuSans-46"/>
     <use x="154.589844" xlink:href="#DejaVuSans-52"/>
    </g>
   </g>
  </g>
 </g>
 <defs>
  <clipPath id="p1d1963a8aa">
   <rect height="290.304" width="460.8" x="0" y="3.456"/>
  </clipPath>
 </defs>
</svg>
