<?xml version="1.0" encoding="utf-8" standalone="no"?>
<!DOCTYPE svg PUBLIC "-//W3C//DTD SVG 1.1//EN"
  "http://www.w3.org/Graphics/SVG/1.1/DTD/svg11.dtd">
<!-- Created with matplotlib (https://matplotlib.org/) -->
<svg height="345.6pt" version="1.1" viewBox="0 0 460.8 345.6" width="460.8pt" xmlns="http://www.w3.org/2000/svg" xmlns:xlink="http://www.w3.org/1999/xlink">
 <metadata>
  <rdf:RDF xmlns:cc="http://creativecommons.org/ns#" xmlns:dc="http://purl.org/dc/elements/1.1/" xmlns:rdf="http://www.w3.org/1999/02/22-rdf-syntax-ns#">
   <cc:Work>
    <dc:type rdf:resource="http://purl.org/dc/dcmitype/StillImage"/>
    <dc:date>2021-06-17T01:38:00.763000</dc:date>
    <dc:format>image/svg+xml</dc:format>
    <dc:creator>
     <cc:Agent>
      <dc:title>Matplotlib v3.3.4, https://matplotlib.org/</dc:title>
     </cc:Agent>
    </dc:creator>
   </cc:Work>
  </rdf:RDF>
 </metadata>
 <defs>
  <style type="text/css">*{stroke-linecap:butt;stroke-linejoin:round;}</style>
 </defs>
 <g id="figure_1">
  <g id="patch_1">
   <path d="M 0 345.6 
L 460.8 345.6 
L 460.8 0 
L 0 0 
z
" style="fill:#ffffff;"/>
  </g>
  <g id="axes_1">
   <g id="patch_2">
    <path d="M 0 293.76 
L 460.8 293.76 
L 460.8 3.456 
L 0 3.456 
z
" style="fill:#ffffff;"/>
   </g>
   <g id="matplotlib.axis_1">
    <g id="xtick_1">
     <g id="line2d_1">
      <path clip-path="url(#p4da9f3f0eb)" d="M 102.824509 293.76 
L 102.824509 3.456 
" style="fill:none;stroke:#b0b0b0;stroke-linecap:square;stroke-width:0.8;"/>
     </g>
     <g id="line2d_2">
      <defs>
       <path d="M 0 0 
L 0 3.5 
" id="me2fc976780" style="stroke:#000000;stroke-width:0.8;"/>
      </defs>
      <g>
       <use style="stroke:#000000;stroke-width:0.8;" x="102.824509" xlink:href="#me2fc976780" y="293.76"/>
      </g>
     </g>
     <g id="text_1">
      <!-- -4 -->
      <g transform="translate(92.854196 315.956875)scale(0.2 -0.2)">
       <defs>
        <path d="M 4.890625 31.390625 
L 31.203125 31.390625 
L 31.203125 23.390625 
L 4.890625 23.390625 
z
" id="DejaVuSans-45"/>
        <path d="M 37.796875 64.3125 
L 12.890625 25.390625 
L 37.796875 25.390625 
z
M 35.203125 72.90625 
L 47.609375 72.90625 
L 47.609375 25.390625 
L 58.015625 25.390625 
L 58.015625 17.1875 
L 47.609375 17.1875 
L 47.609375 0 
L 37.796875 0 
L 37.796875 17.1875 
L 4.890625 17.1875 
L 4.890625 26.703125 
z
" id="DejaVuSans-52"/>
       </defs>
       <use xlink:href="#DejaVuSans-45"/>
       <use x="36.083984" xlink:href="#DejaVuSans-52"/>
      </g>
     </g>
    </g>
    <g id="xtick_2">
     <g id="line2d_3">
      <path clip-path="url(#p4da9f3f0eb)" d="M 205.760223 293.76 
L 205.760223 3.456 
" style="fill:none;stroke:#b0b0b0;stroke-linecap:square;stroke-width:0.8;"/>
     </g>
     <g id="line2d_4">
      <g>
       <use style="stroke:#000000;stroke-width:0.8;" x="205.760223" xlink:href="#me2fc976780" y="293.76"/>
      </g>
     </g>
     <g id="text_2">
      <!-- 0 -->
      <g transform="translate(199.397723 315.956875)scale(0.2 -0.2)">
       <defs>
        <path d="M 31.78125 66.40625 
Q 24.171875 66.40625 20.328125 58.90625 
Q 16.5 51.421875 16.5 36.375 
Q 16.5 21.390625 20.328125 13.890625 
Q 24.171875 6.390625 31.78125 6.390625 
Q 39.453125 6.390625 43.28125 13.890625 
Q 47.125 21.390625 47.125 36.375 
Q 47.125 51.421875 43.28125 58.90625 
Q 39.453125 66.40625 31.78125 66.40625 
z
M 31.78125 74.21875 
Q 44.046875 74.21875 50.515625 64.515625 
Q 56.984375 54.828125 56.984375 36.375 
Q 56.984375 17.96875 50.515625 8.265625 
Q 44.046875 -1.421875 31.78125 -1.421875 
Q 19.53125 -1.421875 13.0625 8.265625 
Q 6.59375 17.96875 6.59375 36.375 
Q 6.59375 54.828125 13.0625 64.515625 
Q 19.53125 74.21875 31.78125 74.21875 
z
" id="DejaVuSans-48"/>
       </defs>
       <use xlink:href="#DejaVuSans-48"/>
      </g>
     </g>
    </g>
    <g id="xtick_3">
     <g id="line2d_5">
      <path clip-path="url(#p4da9f3f0eb)" d="M 308.695938 293.76 
L 308.695938 3.456 
" style="fill:none;stroke:#b0b0b0;stroke-linecap:square;stroke-width:0.8;"/>
     </g>
     <g id="line2d_6">
      <g>
       <use style="stroke:#000000;stroke-width:0.8;" x="308.695938" xlink:href="#me2fc976780" y="293.76"/>
      </g>
     </g>
     <g id="text_3">
      <!-- 4 -->
      <g transform="translate(302.333438 315.956875)scale(0.2 -0.2)">
       <use xlink:href="#DejaVuSans-52"/>
      </g>
     </g>
    </g>
    <g id="xtick_4">
     <g id="line2d_7">
      <path clip-path="url(#p4da9f3f0eb)" d="M 411.631653 293.76 
L 411.631653 3.456 
" style="fill:none;stroke:#b0b0b0;stroke-linecap:square;stroke-width:0.8;"/>
     </g>
     <g id="line2d_8">
      <g>
       <use style="stroke:#000000;stroke-width:0.8;" x="411.631653" xlink:href="#me2fc976780" y="293.76"/>
      </g>
     </g>
     <g id="text_4">
      <!-- 8 -->
      <g transform="translate(405.269153 315.956875)scale(0.2 -0.2)">
       <defs>
        <path d="M 31.78125 34.625 
Q 24.75 34.625 20.71875 30.859375 
Q 16.703125 27.09375 16.703125 20.515625 
Q 16.703125 13.921875 20.71875 10.15625 
Q 24.75 6.390625 31.78125 6.390625 
Q 38.8125 6.390625 42.859375 10.171875 
Q 46.921875 13.96875 46.921875 20.515625 
Q 46.921875 27.09375 42.890625 30.859375 
Q 38.875 34.625 31.78125 34.625 
z
M 21.921875 38.8125 
Q 15.578125 40.375 12.03125 44.71875 
Q 8.5 49.078125 8.5 55.328125 
Q 8.5 64.0625 14.71875 69.140625 
Q 20.953125 74.21875 31.78125 74.21875 
Q 42.671875 74.21875 48.875 69.140625 
Q 55.078125 64.0625 55.078125 55.328125 
Q 55.078125 49.078125 51.53125 44.71875 
Q 48 40.375 41.703125 38.8125 
Q 48.828125 37.15625 52.796875 32.3125 
Q 56.78125 27.484375 56.78125 20.515625 
Q 56.78125 9.90625 50.3125 4.234375 
Q 43.84375 -1.421875 31.78125 -1.421875 
Q 19.734375 -1.421875 13.25 4.234375 
Q 6.78125 9.90625 6.78125 20.515625 
Q 6.78125 27.484375 10.78125 32.3125 
Q 14.796875 37.15625 21.921875 38.8125 
z
M 18.3125 54.390625 
Q 18.3125 48.734375 21.84375 45.5625 
Q 25.390625 42.390625 31.78125 42.390625 
Q 38.140625 42.390625 41.71875 45.5625 
Q 45.3125 48.734375 45.3125 54.390625 
Q 45.3125 60.0625 41.71875 63.234375 
Q 38.140625 66.40625 31.78125 66.40625 
Q 25.390625 66.40625 21.84375 63.234375 
Q 18.3125 60.0625 18.3125 54.390625 
z
" id="DejaVuSans-56"/>
       </defs>
       <use xlink:href="#DejaVuSans-56"/>
      </g>
     </g>
    </g>
    <g id="text_5">
     <!-- log10 of Df -->
     <g transform="translate(175.214063 339.313125)scale(0.2 -0.2)">
      <defs>
       <path d="M 9.421875 75.984375 
L 18.40625 75.984375 
L 18.40625 0 
L 9.421875 0 
z
" id="DejaVuSans-108"/>
       <path d="M 30.609375 48.390625 
Q 23.390625 48.390625 19.1875 42.75 
Q 14.984375 37.109375 14.984375 27.296875 
Q 14.984375 17.484375 19.15625 11.84375 
Q 23.34375 6.203125 30.609375 6.203125 
Q 37.796875 6.203125 41.984375 11.859375 
Q 46.1875 17.53125 46.1875 27.296875 
Q 46.1875 37.015625 41.984375 42.703125 
Q 37.796875 48.390625 30.609375 48.390625 
z
M 30.609375 56 
Q 42.328125 56 49.015625 48.375 
Q 55.71875 40.765625 55.71875 27.296875 
Q 55.71875 13.875 49.015625 6.21875 
Q 42.328125 -1.421875 30.609375 -1.421875 
Q 18.84375 -1.421875 12.171875 6.21875 
Q 5.515625 13.875 5.515625 27.296875 
Q 5.515625 40.765625 12.171875 48.375 
Q 18.84375 56 30.609375 56 
z
" id="DejaVuSans-111"/>
       <path d="M 45.40625 27.984375 
Q 45.40625 37.75 41.375 43.109375 
Q 37.359375 48.484375 30.078125 48.484375 
Q 22.859375 48.484375 18.828125 43.109375 
Q 14.796875 37.75 14.796875 27.984375 
Q 14.796875 18.265625 18.828125 12.890625 
Q 22.859375 7.515625 30.078125 7.515625 
Q 37.359375 7.515625 41.375 12.890625 
Q 45.40625 18.265625 45.40625 27.984375 
z
M 54.390625 6.78125 
Q 54.390625 -7.171875 48.1875 -13.984375 
Q 42 -20.796875 29.203125 -20.796875 
Q 24.46875 -20.796875 20.265625 -20.09375 
Q 16.0625 -19.390625 12.109375 -17.921875 
L 12.109375 -9.1875 
Q 16.0625 -11.328125 19.921875 -12.34375 
Q 23.78125 -13.375 27.78125 -13.375 
Q 36.625 -13.375 41.015625 -8.765625 
Q 45.40625 -4.15625 45.40625 5.171875 
L 45.40625 9.625 
Q 42.625 4.78125 38.28125 2.390625 
Q 33.9375 0 27.875 0 
Q 17.828125 0 11.671875 7.65625 
Q 5.515625 15.328125 5.515625 27.984375 
Q 5.515625 40.671875 11.671875 48.328125 
Q 17.828125 56 27.875 56 
Q 33.9375 56 38.28125 53.609375 
Q 42.625 51.21875 45.40625 46.390625 
L 45.40625 54.6875 
L 54.390625 54.6875 
z
" id="DejaVuSans-103"/>
       <path d="M 12.40625 8.296875 
L 28.515625 8.296875 
L 28.515625 63.921875 
L 10.984375 60.40625 
L 10.984375 69.390625 
L 28.421875 72.90625 
L 38.28125 72.90625 
L 38.28125 8.296875 
L 54.390625 8.296875 
L 54.390625 0 
L 12.40625 0 
z
" id="DejaVuSans-49"/>
       <path id="DejaVuSans-32"/>
       <path d="M 37.109375 75.984375 
L 37.109375 68.5 
L 28.515625 68.5 
Q 23.6875 68.5 21.796875 66.546875 
Q 19.921875 64.59375 19.921875 59.515625 
L 19.921875 54.6875 
L 34.71875 54.6875 
L 34.71875 47.703125 
L 19.921875 47.703125 
L 19.921875 0 
L 10.890625 0 
L 10.890625 47.703125 
L 2.296875 47.703125 
L 2.296875 54.6875 
L 10.890625 54.6875 
L 10.890625 58.5 
Q 10.890625 67.625 15.140625 71.796875 
Q 19.390625 75.984375 28.609375 75.984375 
z
" id="DejaVuSans-102"/>
       <path d="M 19.671875 64.796875 
L 19.671875 8.109375 
L 31.59375 8.109375 
Q 46.6875 8.109375 53.6875 14.9375 
Q 60.6875 21.78125 60.6875 36.53125 
Q 60.6875 51.171875 53.6875 57.984375 
Q 46.6875 64.796875 31.59375 64.796875 
z
M 9.8125 72.90625 
L 30.078125 72.90625 
Q 51.265625 72.90625 61.171875 64.09375 
Q 71.09375 55.28125 71.09375 36.53125 
Q 71.09375 17.671875 61.125 8.828125 
Q 51.171875 0 30.078125 0 
L 9.8125 0 
z
" id="DejaVuSans-68"/>
      </defs>
      <use xlink:href="#DejaVuSans-108"/>
      <use x="27.783203" xlink:href="#DejaVuSans-111"/>
      <use x="88.964844" xlink:href="#DejaVuSans-103"/>
      <use x="152.441406" xlink:href="#DejaVuSans-49"/>
      <use x="216.064453" xlink:href="#DejaVuSans-48"/>
      <use x="279.6875" xlink:href="#DejaVuSans-32"/>
      <use x="311.474609" xlink:href="#DejaVuSans-111"/>
      <use x="372.65625" xlink:href="#DejaVuSans-102"/>
      <use x="407.861328" xlink:href="#DejaVuSans-32"/>
      <use x="439.648438" xlink:href="#DejaVuSans-68"/>
      <use x="516.650391" xlink:href="#DejaVuSans-102"/>
     </g>
    </g>
   </g>
   <g id="matplotlib.axis_2">
    <g id="ytick_1">
     <g id="line2d_9">
      <path clip-path="url(#p4da9f3f0eb)" d="M 0 293.76 
L 460.8 293.76 
" style="fill:none;stroke:#b0b0b0;stroke-linecap:square;stroke-width:0.8;"/>
     </g>
     <g id="line2d_10">
      <defs>
       <path d="M 0 0 
L -3.5 0 
" id="m586395b0c3" style="stroke:#000000;stroke-width:0.8;"/>
      </defs>
      <g>
       <use style="stroke:#000000;stroke-width:0.8;" x="0" xlink:href="#m586395b0c3" y="293.76"/>
      </g>
     </g>
    </g>
    <g id="ytick_2">
     <g id="line2d_11">
      <path clip-path="url(#p4da9f3f0eb)" d="M 0 236.274059 
L 460.8 236.274059 
" style="fill:none;stroke:#b0b0b0;stroke-linecap:square;stroke-width:0.8;"/>
     </g>
     <g id="line2d_12">
      <g>
       <use style="stroke:#000000;stroke-width:0.8;" x="0" xlink:href="#m586395b0c3" y="236.274059"/>
      </g>
     </g>
    </g>
    <g id="ytick_3">
     <g id="line2d_13">
      <path clip-path="url(#p4da9f3f0eb)" d="M 0 178.788119 
L 460.8 178.788119 
" style="fill:none;stroke:#b0b0b0;stroke-linecap:square;stroke-width:0.8;"/>
     </g>
     <g id="line2d_14">
      <g>
       <use style="stroke:#000000;stroke-width:0.8;" x="0" xlink:href="#m586395b0c3" y="178.788119"/>
      </g>
     </g>
    </g>
    <g id="ytick_4">
     <g id="line2d_15">
      <path clip-path="url(#p4da9f3f0eb)" d="M 0 121.302178 
L 460.8 121.302178 
" style="fill:none;stroke:#b0b0b0;stroke-linecap:square;stroke-width:0.8;"/>
     </g>
     <g id="line2d_16">
      <g>
       <use style="stroke:#000000;stroke-width:0.8;" x="0" xlink:href="#m586395b0c3" y="121.302178"/>
      </g>
     </g>
    </g>
    <g id="ytick_5">
     <g id="line2d_17">
      <path clip-path="url(#p4da9f3f0eb)" d="M 0 63.816238 
L 460.8 63.816238 
" style="fill:none;stroke:#b0b0b0;stroke-linecap:square;stroke-width:0.8;"/>
     </g>
     <g id="line2d_18">
      <g>
       <use style="stroke:#000000;stroke-width:0.8;" x="0" xlink:href="#m586395b0c3" y="63.816238"/>
      </g>
     </g>
    </g>
    <g id="ytick_6">
     <g id="line2d_19">
      <path clip-path="url(#p4da9f3f0eb)" d="M 0 6.330297 
L 460.8 6.330297 
" style="fill:none;stroke:#b0b0b0;stroke-linecap:square;stroke-width:0.8;"/>
     </g>
     <g id="line2d_20">
      <g>
       <use style="stroke:#000000;stroke-width:0.8;" x="0" xlink:href="#m586395b0c3" y="6.330297"/>
      </g>
     </g>
    </g>
   </g>
   <g id="line2d_21">
    <path clip-path="url(#p4da9f3f0eb)" d="M -1 178.788119 
L -0.111206 178.788119 
L -0.111206 121.302178 
L 254.394715 121.302178 
L 254.394715 117.469782 
L 255.355222 117.469782 
L 255.355222 113.637386 
L 256.715311 113.637386 
L 256.715311 109.80499 
L 257.392857 109.80499 
L 257.392857 105.972594 
L 257.822755 105.972594 
L 257.822755 102.140198 
L 258.236713 102.140198 
L 258.3379 94.475406 
L 258.53744 94.475406 
L 258.635926 86.810614 
L 260.189386 86.810614 
L 260.189386 82.978218 
L 260.358694 82.978218 
L 260.358694 79.145822 
L 260.851858 79.145822 
L 260.851858 75.313426 
L 261.703032 75.313426 
L 261.703032 71.48103 
L 261.924379 71.48103 
L 261.924379 67.648634 
L 262.141377 67.648634 
L 262.141377 63.816238 
L 262.424326 63.816238 
L 262.424326 59.983842 
L 263.740675 59.983842 
L 263.802601 52.31905 
L 265.621993 52.31905 
L 265.726441 44.654257 
L 265.881316 44.654257 
L 265.881316 40.821861 
L 266.234537 40.821861 
L 266.333401 33.157069 
L 268.020986 33.157069 
L 268.020986 29.324673 
L 268.436522 29.324673 
L 268.436522 25.492277 
L 269.52395 25.492277 
L 269.52395 21.659881 
L 269.70748 21.659881 
L 269.70748 17.827485 
L 270.309758 17.827485 
L 270.309758 13.995089 
L 270.615925 13.995089 
L 270.716233 6.330297 
L 270.716233 6.330297 
L 460.8 6.330297 
L 460.8 6.330297 
" style="fill:none;stroke:#ff0000;stroke-linecap:square;stroke-width:3;"/>
   </g>
   <g id="line2d_22">
    <path clip-path="url(#p4da9f3f0eb)" d="M 251.115598 293.76 
L 251.115598 289.927604 
L 254.415103 289.927604 
L 254.415103 286.095208 
L 255.059757 286.095208 
L 255.059757 282.262812 
L 255.175906 282.262812 
L 255.175906 278.430416 
L 256.194574 278.430416 
L 256.194574 274.59802 
L 256.39253 274.59802 
L 256.39253 270.765624 
L 256.834199 270.765624 
L 256.834199 266.933228 
L 257.76841 266.933228 
L 257.79618 255.43604 
L 258.841686 255.43604 
L 258.841686 251.603644 
L 259.162909 251.603644 
L 259.162909 247.771248 
L 259.344142 247.771248 
L 259.344142 243.938851 
L 259.522645 243.938851 
L 259.522645 240.106455 
L 261.139854 240.106455 
L 261.139854 236.274059 
L 272.265709 236.274059 
L 272.299118 224.776871 
L 272.401247 224.776871 
L 272.477286 190.285307 
L 272.513788 190.285307 
L 272.596333 178.788119 
L 274.043952 178.788119 
L 274.043952 174.955723 
L 275.020595 174.955723 
L 275.020595 171.123327 
L 275.325817 171.123327 
L 275.325817 167.290931 
L 275.5208 167.290931 
L 275.623964 151.961347 
L 275.945287 151.961347 
L 275.980499 144.296554 
L 276.163776 144.296554 
L 276.163776 140.464158 
L 276.501336 140.464158 
L 276.501336 136.631762 
L 276.706665 136.631762 
L 276.706665 132.799366 
L 276.885877 132.799366 
L 276.885877 128.96697 
L 277.383898 128.96697 
L 277.383898 125.134574 
L 277.732538 125.134574 
L 277.732538 121.302178 
L 278.240799 121.302178 
L 278.240799 117.469782 
L 278.643961 117.469782 
L 278.745597 105.972594 
L 278.973758 105.972594 
L 279.013641 98.307802 
L 279.153604 98.307802 
L 279.153604 94.475406 
L 279.597804 94.475406 
L 279.706979 82.978218 
L 281.304306 82.978218 
L 281.304306 79.145822 
L 281.628075 79.145822 
L 281.628075 75.313426 
L 281.890952 75.313426 
L 281.899839 67.648634 
L 282.390113 67.648634 
L 282.390113 63.816238 
L 372.194904 63.816238 
L 372.194904 59.983842 
L 374.077264 59.983842 
L 374.077264 56.151446 
L 378.205703 56.151446 
L 378.205703 52.31905 
L 378.623136 52.31905 
L 378.623136 48.486653 
L 380.257161 48.486653 
L 380.257161 44.654257 
L 382.925567 44.654257 
L 382.925567 40.821861 
L 383.168819 40.821861 
L 383.168819 36.989465 
L 384.322715 36.989465 
L 384.322715 33.157069 
L 384.473149 33.157069 
L 384.525841 25.492277 
L 385.42178 25.492277 
L 385.42178 21.659881 
L 387.887468 21.659881 
L 387.887468 17.827485 
L 390.379608 17.827485 
L 390.379608 13.995089 
L 392.132685 13.995089 
L 392.132685 10.162693 
L 392.342751 10.162693 
L 392.342751 6.330297 
L 392.342751 6.330297 
L 460.8 6.330297 
L 460.8 6.330297 
" style="fill:none;stroke:#00bfbf;stroke-linecap:square;stroke-width:1.5;"/>
   </g>
   <g id="line2d_23">
    <path clip-path="url(#p4da9f3f0eb)" d="M 251.115598 293.76 
L 251.115598 289.927604 
L 253.937802 289.927604 
L 253.937802 286.095208 
L 254.188186 286.095208 
L 254.188186 282.262812 
L 254.375511 282.262812 
L 254.375511 278.430416 
L 254.602733 278.430416 
L 254.602733 274.59802 
L 255.157963 274.59802 
L 255.157963 270.765624 
L 255.567918 270.765624 
L 255.567918 266.933228 
L 256.673032 266.933228 
L 256.673032 263.100832 
L 257.43543 263.100832 
L 257.43543 259.268436 
L 257.606561 259.268436 
L 257.606561 255.43604 
L 258.493427 255.43604 
L 258.493427 251.603644 
L 258.647349 251.603644 
L 258.647349 247.771248 
L 258.954517 247.771248 
L 258.954517 243.938851 
L 259.268428 243.938851 
L 259.268428 240.106455 
L 260.837975 240.106455 
L 260.837975 236.274059 
L 271.967224 236.274059 
L 272.076354 228.609267 
L 272.103519 228.609267 
L 272.162808 213.279683 
L 272.215992 213.279683 
L 272.27765 197.950099 
L 272.347511 197.950099 
L 272.347511 194.117703 
L 272.460841 194.117703 
L 272.556212 178.788119 
L 274.02789 178.788119 
L 274.02789 174.955723 
L 274.790305 174.955723 
L 274.790305 171.123327 
L 274.970761 171.123327 
L 274.970761 167.290931 
L 275.325817 167.290931 
L 275.372122 159.626139 
L 275.5208 159.626139 
L 275.623964 148.12895 
L 275.898404 148.12895 
L 275.980499 140.464158 
L 276.288767 140.464158 
L 276.39321 132.799366 
L 276.879679 132.799366 
L 276.897805 125.134574 
L 277.102135 125.134574 
L 277.102135 121.302178 
L 277.626661 121.302178 
L 277.645222 113.637386 
L 277.820444 113.637386 
L 277.820444 109.80499 
L 278.281392 109.80499 
L 278.362247 98.307802 
L 278.409934 98.307802 
L 278.409934 94.475406 
L 278.654329 94.475406 
L 278.72929 86.810614 
L 278.973758 86.810614 
L 278.973758 82.978218 
L 280.735479 82.978218 
L 280.735479 79.145822 
L 280.927746 79.145822 
L 280.927746 75.313426 
L 281.089122 75.313426 
L 281.16195 67.648634 
L 281.386393 67.648634 
L 281.386393 63.816238 
L 370.156047 63.816238 
L 370.156047 59.983842 
L 372.913066 59.983842 
L 372.913066 56.151446 
L 377.178026 56.151446 
L 377.178026 52.31905 
L 377.598154 52.31905 
L 377.598154 48.486653 
L 377.918475 48.486653 
L 377.918475 44.654257 
L 378.148382 44.654257 
L 378.148382 40.821861 
L 379.046921 40.821861 
L 379.046921 36.989465 
L 380.887614 36.989465 
L 380.887614 33.157069 
L 382.381397 33.157069 
L 382.381397 29.324673 
L 383.374683 29.324673 
L 383.444654 21.659881 
L 386.740681 21.659881 
L 386.740681 17.827485 
L 387.278734 17.827485 
L 387.278734 13.995089 
L 389.165973 13.995089 
L 389.165973 10.162693 
L 392.151216 10.162693 
L 392.151216 6.330297 
L 392.151216 6.330297 
L 460.8 6.330297 
L 460.8 6.330297 
" style="fill:none;stroke:#bf00bf;stroke-linecap:square;stroke-width:1.5;"/>
   </g>
   <g id="line2d_24">
    <path clip-path="url(#p4da9f3f0eb)" d="M 250.557495 293.76 
L 250.557495 289.927604 
L 252.919282 289.927604 
L 252.926892 282.262812 
L 253.040901 282.262812 
L 253.114608 274.59802 
L 254.11097 274.59802 
L 254.11097 270.765624 
L 254.784898 270.765624 
L 254.784898 266.933228 
L 255.550906 266.933228 
L 255.550906 263.100832 
L 256.463236 263.100832 
L 256.463236 259.268436 
L 256.653292 259.268436 
L 256.653292 255.43604 
L 257.257416 255.43604 
L 257.257416 251.603644 
L 258.013153 251.603644 
L 258.117506 243.938851 
L 258.28979 243.938851 
L 258.28979 240.106455 
L 259.821464 240.106455 
L 259.821464 236.274059 
L 271.564427 236.274059 
L 271.615162 228.609267 
L 271.779137 228.609267 
L 271.862498 213.279683 
L 271.95729 213.279683 
L 272.017973 197.950099 
L 272.156211 197.950099 
L 272.227123 190.285307 
L 272.305688 190.285307 
L 272.332135 178.788119 
L 273.244586 178.788119 
L 273.244586 174.955723 
L 273.53521 174.955723 
L 273.53521 171.123327 
L 274.265392 171.123327 
L 274.366402 159.626139 
L 274.790305 159.626139 
L 274.851006 151.961347 
L 275.149583 151.961347 
L 275.175843 144.296554 
L 275.439566 144.296554 
L 275.439566 140.464158 
L 275.592329 140.464158 
L 275.697481 132.799366 
L 276.072056 132.799366 
L 276.072056 128.96697 
L 276.248993 128.96697 
L 276.248993 125.134574 
L 276.38031 125.134574 
L 276.42268 117.469782 
L 276.553487 117.469782 
L 276.553487 113.637386 
L 276.682658 113.637386 
L 276.682658 109.80499 
L 277.188337 109.80499 
L 277.188337 105.972594 
L 277.472904 105.972594 
L 277.517613 98.307802 
L 277.820444 98.307802 
L 277.84435 86.810614 
L 278.409934 86.810614 
L 278.500092 79.145822 
L 279.325013 79.145822 
L 279.325013 75.313426 
L 279.495234 75.313426 
L 279.495234 71.48103 
L 279.678193 71.48103 
L 279.678193 67.648634 
L 280.842397 67.648634 
L 280.842397 63.816238 
L 362.853461 63.816238 
L 362.853461 59.983842 
L 370.738962 59.983842 
L 370.738962 56.151446 
L 371.180765 56.151446 
L 371.180765 52.31905 
L 372.450759 52.31905 
L 372.450759 48.486653 
L 374.204797 48.486653 
L 374.204797 44.654257 
L 375.688096 44.654257 
L 375.688096 40.821861 
L 377.700326 40.821861 
L 377.700326 36.989465 
L 379.599572 36.989465 
L 379.666859 29.324673 
L 379.877011 29.324673 
L 379.877011 25.492277 
L 380.061624 25.492277 
L 380.061624 21.659881 
L 383.71695 21.659881 
L 383.71695 17.827485 
L 386.717865 17.827485 
L 386.717865 13.995089 
L 388.147623 13.995089 
L 388.147623 10.162693 
L 390.33599 10.162693 
L 390.33599 6.330297 
L 390.33599 6.330297 
L 460.8 6.330297 
L 460.8 6.330297 
" style="fill:none;stroke:#000000;stroke-linecap:square;stroke-width:1.5;"/>
   </g>
   <g id="line2d_25">
    <path clip-path="url(#p4da9f3f0eb)" d="M 240.103335 293.76 
L 240.103335 289.927604 
L 241.110226 289.927604 
L 241.110226 286.095208 
L 242.35594 286.095208 
L 242.35594 282.262812 
L 245.388597 282.262812 
L 245.388597 278.430416 
L 245.961929 278.430416 
L 245.961929 274.59802 
L 246.5682 274.59802 
L 246.5682 270.765624 
L 247.064007 270.765624 
L 247.134074 263.100832 
L 247.353387 263.100832 
L 247.353387 259.268436 
L 247.694101 259.268436 
L 247.694101 255.43604 
L 250.382159 255.43604 
L 250.382159 251.603644 
L 252.280724 251.603644 
L 252.280724 247.771248 
L 252.488005 247.771248 
L 252.488005 243.938851 
L 254.252981 243.938851 
L 254.283917 236.274059 
L 266.618677 236.274059 
L 266.618677 232.441663 
L 267.867397 232.441663 
L 267.941104 224.776871 
L 268.495852 224.776871 
L 268.495852 220.944475 
L 268.657681 220.944475 
L 268.657681 217.112079 
L 268.865665 217.112079 
L 268.913962 209.447287 
L 269.176845 209.447287 
L 269.185842 201.782495 
L 269.872761 201.782495 
L 269.872761 197.950099 
L 270.072317 197.950099 
L 270.072317 194.117703 
L 270.216476 194.117703 
L 270.216476 190.285307 
L 270.367306 190.285307 
L 270.367306 186.452911 
L 270.563397 186.452911 
L 270.658247 178.788119 
L 270.716224 178.788119 
L 270.716224 174.955723 
L 270.8354 174.955723 
L 270.8354 171.123327 
L 271.148452 171.123327 
L 271.148508 163.458535 
L 271.811515 163.458535 
L 271.811515 159.626139 
L 271.924917 159.626139 
L 272.0012 151.961347 
L 272.333739 151.961347 
L 272.353647 144.296554 
L 272.512318 144.296554 
L 272.512318 140.464158 
L 272.730544 140.464158 
L 272.798218 132.799366 
L 273.201778 132.799366 
L 273.255454 121.302178 
L 273.396018 121.302178 
L 273.396018 117.469782 
L 273.579893 117.469782 
L 273.579893 113.637386 
L 274.289561 113.637386 
L 274.370056 105.972594 
L 274.46287 105.972594 
L 274.46287 102.140198 
L 274.674658 102.140198 
L 274.674658 98.307802 
L 274.871255 98.307802 
L 274.871255 94.475406 
L 275.325625 94.475406 
L 275.325625 90.64301 
L 275.567682 90.64301 
L 275.567682 86.810614 
L 275.729574 86.810614 
L 275.729574 82.978218 
L 275.87193 82.978218 
L 275.90316 75.313426 
L 276.068895 75.313426 
L 276.068895 71.48103 
L 276.29134 71.48103 
L 276.29134 67.648634 
L 278.295485 67.648634 
L 278.295485 63.816238 
L 347.969434 63.816238 
L 347.969434 59.983842 
L 348.134787 59.983842 
L 348.134787 56.151446 
L 350.321701 56.151446 
L 350.321701 52.31905 
L 350.704301 52.31905 
L 350.704301 48.486653 
L 352.63276 48.486653 
L 352.63276 44.654257 
L 354.781068 44.654257 
L 354.781068 40.821861 
L 355.472306 40.821861 
L 355.472306 36.989465 
L 356.258671 36.989465 
L 356.258671 33.157069 
L 358.727584 33.157069 
L 358.727584 29.324673 
L 363.04388 29.324673 
L 363.04388 25.492277 
L 363.186113 25.492277 
L 363.186113 21.659881 
L 367.419475 21.659881 
L 367.419475 17.827485 
L 370.109401 17.827485 
L 370.109401 13.995089 
L 372.869675 13.995089 
L 372.869675 10.162693 
L 375.054701 10.162693 
L 375.054701 6.330297 
L 375.054701 6.330297 
L 460.8 6.330297 
L 460.8 6.330297 
" style="fill:none;stroke:#00bfbf;stroke-linecap:square;stroke-width:1.5;"/>
   </g>
   <g id="line2d_26">
    <path clip-path="url(#p4da9f3f0eb)" d="M -0.111206 293.76 
L -0.111206 236.274059 
L 86.372464 236.274059 
L 86.372464 232.441663 
L 89.601759 232.441663 
L 89.601759 228.609267 
L 95.306515 228.609267 
L 95.306515 224.776871 
L 95.647113 224.776871 
L 95.647113 220.944475 
L 96.107172 220.944475 
L 96.107172 217.112079 
L 97.179455 217.112079 
L 97.179455 213.279683 
L 97.301022 213.279683 
L 97.301022 209.447287 
L 98.140585 209.447287 
L 98.140585 205.614891 
L 100.308094 205.614891 
L 100.308094 201.782495 
L 101.342576 201.782495 
L 101.342576 197.950099 
L 103.872299 197.950099 
L 103.872299 194.117703 
L 105.896294 194.117703 
L 105.896294 190.285307 
L 110.165908 190.285307 
L 110.165908 186.452911 
L 110.530456 186.452911 
L 110.530456 182.620515 
L 111.719271 182.620515 
L 111.719271 178.788119 
L 254.445672 178.788119 
L 254.445672 174.955723 
L 255.543996 174.955723 
L 255.543996 171.123327 
L 257.218198 171.123327 
L 257.218198 167.290931 
L 257.514049 167.290931 
L 257.514049 163.458535 
L 258.292659 163.458535 
L 258.292659 159.626139 
L 258.552236 159.626139 
L 258.654747 148.12895 
L 258.681744 148.12895 
L 258.681744 144.296554 
L 260.206766 144.296554 
L 260.206766 140.464158 
L 260.397828 140.464158 
L 260.397828 136.631762 
L 261.070023 136.631762 
L 261.070023 132.799366 
L 261.729443 132.799366 
L 261.729443 128.96697 
L 261.936393 128.96697 
L 261.936393 125.134574 
L 262.457346 125.134574 
L 262.457346 121.302178 
L 263.633962 121.302178 
L 263.633962 117.469782 
L 263.76177 117.469782 
L 263.808374 109.80499 
L 265.623503 109.80499 
L 265.623503 105.972594 
L 265.950624 105.972594 
L 265.950624 102.140198 
L 266.237786 102.140198 
L 266.237786 98.307802 
L 266.378907 98.307802 
L 266.378907 94.475406 
L 266.635091 94.475406 
L 266.635091 90.64301 
L 268.027842 90.64301 
L 268.027842 86.810614 
L 268.447826 86.810614 
L 268.447826 82.978218 
L 269.524728 82.978218 
L 269.524728 79.145822 
L 269.71065 79.145822 
L 269.71065 75.313426 
L 270.313991 75.313426 
L 270.313991 71.48103 
L 270.61636 71.48103 
L 270.61636 67.648634 
L 270.733129 67.648634 
L 270.733129 63.816238 
L 311.568455 63.816238 
L 311.568455 59.983842 
L 313.622584 59.983842 
L 313.622584 56.151446 
L 314.314378 56.151446 
L 314.314378 52.31905 
L 315.38532 52.31905 
L 315.38532 48.486653 
L 315.713239 48.486653 
L 315.713239 44.654257 
L 316.054251 44.654257 
L 316.054251 40.821861 
L 316.472674 40.821861 
L 316.472674 36.989465 
L 317.135207 36.989465 
L 317.135207 33.157069 
L 318.811077 33.157069 
L 318.811077 29.324673 
L 320.015821 29.324673 
L 320.015821 25.492277 
L 320.163461 25.492277 
L 320.163461 21.659881 
L 322.027328 21.659881 
L 322.027328 17.827485 
L 322.45889 17.827485 
L 322.45889 13.995089 
L 323.767694 13.995089 
L 323.767694 10.162693 
L 324.277279 10.162693 
L 324.277279 6.330297 
L 324.277279 6.330297 
L 460.8 6.330297 
L 460.8 6.330297 
" style="fill:none;stroke:#bf00bf;stroke-linecap:square;stroke-width:1.5;"/>
   </g>
   <g id="line2d_27">
    <path clip-path="url(#p4da9f3f0eb)" d="M -1 236.274059 
L -0.111206 236.274059 
L -0.111206 178.788119 
L 219.243849 178.788119 
L 219.243849 174.955723 
L 229.310859 174.955723 
L 229.310859 171.123327 
L 230.698303 171.123327 
L 230.698303 167.290931 
L 235.437475 167.290931 
L 235.437475 163.458535 
L 236.85483 163.458535 
L 236.85483 159.626139 
L 237.244089 159.626139 
L 237.244089 155.793743 
L 238.923318 155.793743 
L 238.923318 151.961347 
L 241.778078 151.961347 
L 241.778078 148.12895 
L 243.285971 148.12895 
L 243.331931 140.464158 
L 244.768309 140.464158 
L 244.768309 136.631762 
L 245.275367 136.631762 
L 245.275367 132.799366 
L 246.191402 132.799366 
L 246.191402 128.96697 
L 250.147354 128.96697 
L 250.147354 125.134574 
L 254.394715 125.134574 
L 254.394715 121.302178 
L 255.355222 121.302178 
L 255.355222 117.469782 
L 256.715311 117.469782 
L 256.715311 113.637386 
L 257.392857 113.637386 
L 257.392857 109.80499 
L 257.822755 109.80499 
L 257.822755 105.972594 
L 258.236713 105.972594 
L 258.3379 98.307802 
L 258.53744 98.307802 
L 258.635926 90.64301 
L 260.189386 90.64301 
L 260.189386 86.810614 
L 260.358694 86.810614 
L 260.358694 82.978218 
L 260.851858 82.978218 
L 260.851858 79.145822 
L 261.703032 79.145822 
L 261.703032 75.313426 
L 261.924379 75.313426 
L 261.992801 67.648634 
L 262.141377 67.648634 
L 262.141377 63.816238 
L 262.424326 63.816238 
L 262.424326 59.983842 
L 263.740675 59.983842 
L 263.802601 52.31905 
L 265.621993 52.31905 
L 265.726441 44.654257 
L 265.881316 44.654257 
L 265.881316 40.821861 
L 266.234537 40.821861 
L 266.333401 33.157069 
L 268.020986 33.157069 
L 268.020986 29.324673 
L 268.436522 29.324673 
L 268.436522 25.492277 
L 269.52395 25.492277 
L 269.52395 21.659881 
L 269.70748 21.659881 
L 269.70748 17.827485 
L 270.309758 17.827485 
L 270.309758 13.995089 
L 270.615925 13.995089 
L 270.716233 6.330297 
L 270.716233 6.330297 
L 460.8 6.330297 
L 460.8 6.330297 
" style="fill:none;stroke:#000000;stroke-linecap:square;stroke-width:1.5;"/>
   </g>
   <g id="line2d_28">
    <path clip-path="url(#p4da9f3f0eb)" d="M -1 178.788119 
L -0.111206 178.788119 
L -0.111206 121.302178 
L 254.394715 121.302178 
L 254.394715 117.469782 
L 255.355222 117.469782 
L 255.355222 113.637386 
L 256.715311 113.637386 
L 256.715311 109.80499 
L 257.392857 109.80499 
L 257.392857 105.972594 
L 257.822755 105.972594 
L 257.822755 102.140198 
L 258.236713 102.140198 
L 258.3379 94.475406 
L 258.53744 94.475406 
L 258.635926 86.810614 
L 260.189386 86.810614 
L 260.189386 82.978218 
L 260.358694 82.978218 
L 260.358694 79.145822 
L 260.851858 79.145822 
L 260.851858 75.313426 
L 261.703032 75.313426 
L 261.703032 71.48103 
L 261.924379 71.48103 
L 261.924379 67.648634 
L 262.141377 67.648634 
L 262.141377 63.816238 
L 262.424326 63.816238 
L 262.424326 59.983842 
L 263.740675 59.983842 
L 263.802601 52.31905 
L 265.621993 52.31905 
L 265.726441 44.654257 
L 265.881316 44.654257 
L 265.881316 40.821861 
L 266.234537 40.821861 
L 266.333401 33.157069 
L 268.020986 33.157069 
L 268.020986 29.324673 
L 268.436522 29.324673 
L 268.436522 25.492277 
L 269.52395 25.492277 
L 269.52395 21.659881 
L 269.70748 21.659881 
L 269.70748 17.827485 
L 270.309758 17.827485 
L 270.309758 13.995089 
L 270.615925 13.995089 
L 270.716233 6.330297 
L 270.716233 6.330297 
L 460.8 6.330297 
L 460.8 6.330297 
" style="fill:none;stroke:#00bfbf;stroke-linecap:square;stroke-width:1.5;"/>
   </g>
   <g id="patch_3">
    <path d="M 0 293.76 
L 0 3.456 
" style="fill:none;stroke:#000000;stroke-linecap:square;stroke-linejoin:miter;stroke-width:0.8;"/>
   </g>
   <g id="patch_4">
    <path d="M 460.8 293.76 
L 460.8 3.456 
" style="fill:none;stroke:#000000;stroke-linecap:square;stroke-linejoin:miter;stroke-width:0.8;"/>
   </g>
   <g id="patch_5">
    <path d="M 0 293.76 
L 460.8 293.76 
" style="fill:none;stroke:#000000;stroke-linecap:square;stroke-linejoin:miter;stroke-width:0.8;"/>
   </g>
   <g id="patch_6">
    <path d="M 0 3.456 
L 460.8 3.456 
" style="fill:none;stroke:#000000;stroke-linecap:square;stroke-linejoin:miter;stroke-width:0.8;"/>
   </g>
   <g id="text_6">
    <!-- {f1-f5}, 20-D -->
    <g transform="translate(318.609 287.95392)scale(0.2 -0.2)">
     <defs>
      <path d="M 51.125 -9.28125 
L 51.125 -16.3125 
L 48.09375 -16.3125 
Q 35.9375 -16.3125 31.8125 -12.6875 
Q 27.6875 -9.078125 27.6875 1.703125 
L 27.6875 13.375 
Q 27.6875 20.75 25.046875 23.578125 
Q 22.40625 26.421875 15.484375 26.421875 
L 12.5 26.421875 
L 12.5 33.40625 
L 15.484375 33.40625 
Q 22.46875 33.40625 25.078125 36.203125 
Q 27.6875 39.015625 27.6875 46.296875 
L 27.6875 58.015625 
Q 27.6875 68.796875 31.8125 72.390625 
Q 35.9375 75.984375 48.09375 75.984375 
L 51.125 75.984375 
L 51.125 69 
L 47.796875 69 
Q 40.921875 69 38.8125 66.84375 
Q 36.71875 64.703125 36.71875 57.8125 
L 36.71875 45.703125 
Q 36.71875 38.03125 34.5 34.5625 
Q 32.28125 31.109375 26.90625 29.890625 
Q 32.328125 28.5625 34.515625 25.09375 
Q 36.71875 21.625 36.71875 14.015625 
L 36.71875 1.90625 
Q 36.71875 -4.984375 38.8125 -7.125 
Q 40.921875 -9.28125 47.796875 -9.28125 
z
" id="DejaVuSans-123"/>
      <path d="M 10.796875 72.90625 
L 49.515625 72.90625 
L 49.515625 64.59375 
L 19.828125 64.59375 
L 19.828125 46.734375 
Q 21.96875 47.46875 24.109375 47.828125 
Q 26.265625 48.1875 28.421875 48.1875 
Q 40.625 48.1875 47.75 41.5 
Q 54.890625 34.8125 54.890625 23.390625 
Q 54.890625 11.625 47.5625 5.09375 
Q 40.234375 -1.421875 26.90625 -1.421875 
Q 22.3125 -1.421875 17.546875 -0.640625 
Q 12.796875 0.140625 7.71875 1.703125 
L 7.71875 11.625 
Q 12.109375 9.234375 16.796875 8.0625 
Q 21.484375 6.890625 26.703125 6.890625 
Q 35.15625 6.890625 40.078125 11.328125 
Q 45.015625 15.765625 45.015625 23.390625 
Q 45.015625 31 40.078125 35.4375 
Q 35.15625 39.890625 26.703125 39.890625 
Q 22.75 39.890625 18.8125 39.015625 
Q 14.890625 38.140625 10.796875 36.28125 
z
" id="DejaVuSans-53"/>
      <path d="M 12.5 -9.28125 
L 15.921875 -9.28125 
Q 22.75 -9.28125 24.828125 -7.171875 
Q 26.90625 -5.078125 26.90625 1.90625 
L 26.90625 14.015625 
Q 26.90625 21.625 29.09375 25.09375 
Q 31.296875 28.5625 36.71875 29.890625 
Q 31.296875 31.109375 29.09375 34.5625 
Q 26.90625 38.03125 26.90625 45.703125 
L 26.90625 57.8125 
Q 26.90625 64.75 24.828125 66.875 
Q 22.75 69 15.921875 69 
L 12.5 69 
L 12.5 75.984375 
L 15.578125 75.984375 
Q 27.734375 75.984375 31.8125 72.390625 
Q 35.890625 68.796875 35.890625 58.015625 
L 35.890625 46.296875 
Q 35.890625 39.015625 38.515625 36.203125 
Q 41.15625 33.40625 48.09375 33.40625 
L 51.125 33.40625 
L 51.125 26.421875 
L 48.09375 26.421875 
Q 41.15625 26.421875 38.515625 23.578125 
Q 35.890625 20.75 35.890625 13.375 
L 35.890625 1.703125 
Q 35.890625 -9.078125 31.8125 -12.6875 
Q 27.734375 -16.3125 15.578125 -16.3125 
L 12.5 -16.3125 
z
" id="DejaVuSans-125"/>
      <path d="M 11.71875 12.40625 
L 22.015625 12.40625 
L 22.015625 4 
L 14.015625 -11.625 
L 7.71875 -11.625 
L 11.71875 4 
z
" id="DejaVuSans-44"/>
      <path d="M 19.1875 8.296875 
L 53.609375 8.296875 
L 53.609375 0 
L 7.328125 0 
L 7.328125 8.296875 
Q 12.9375 14.109375 22.625 23.890625 
Q 32.328125 33.6875 34.8125 36.53125 
Q 39.546875 41.84375 41.421875 45.53125 
Q 43.3125 49.21875 43.3125 52.78125 
Q 43.3125 58.59375 39.234375 62.25 
Q 35.15625 65.921875 28.609375 65.921875 
Q 23.96875 65.921875 18.8125 64.3125 
Q 13.671875 62.703125 7.8125 59.421875 
L 7.8125 69.390625 
Q 13.765625 71.78125 18.9375 73 
Q 24.125 74.21875 28.421875 74.21875 
Q 39.75 74.21875 46.484375 68.546875 
Q 53.21875 62.890625 53.21875 53.421875 
Q 53.21875 48.921875 51.53125 44.890625 
Q 49.859375 40.875 45.40625 35.40625 
Q 44.1875 33.984375 37.640625 27.21875 
Q 31.109375 20.453125 19.1875 8.296875 
z
" id="DejaVuSans-50"/>
     </defs>
     <use xlink:href="#DejaVuSans-123"/>
     <use x="63.623047" xlink:href="#DejaVuSans-102"/>
     <use x="98.828125" xlink:href="#DejaVuSans-49"/>
     <use x="162.451172" xlink:href="#DejaVuSans-45"/>
     <use x="198.535156" xlink:href="#DejaVuSans-102"/>
     <use x="233.740234" xlink:href="#DejaVuSans-53"/>
     <use x="297.363281" xlink:href="#DejaVuSans-125"/>
     <use x="360.986328" xlink:href="#DejaVuSans-44"/>
     <use x="392.773438" xlink:href="#DejaVuSans-32"/>
     <use x="424.560547" xlink:href="#DejaVuSans-50"/>
     <use x="488.183594" xlink:href="#DejaVuSans-48"/>
     <use x="551.806641" xlink:href="#DejaVuSans-45"/>
     <use x="587.890625" xlink:href="#DejaVuSans-68"/>
    </g>
   </g>
   <g id="text_7">
    <!-- v2.4 -->
    <g style="fill:#808080;" transform="translate(219.489063 288.777272)scale(0.1 -0.1)">
     <defs>
      <path d="M 2.984375 54.6875 
L 12.5 54.6875 
L 29.59375 8.796875 
L 46.6875 54.6875 
L 56.203125 54.6875 
L 35.6875 0 
L 23.484375 0 
z
" id="DejaVuSans-118"/>
      <path d="M 10.6875 12.40625 
L 21 12.40625 
L 21 0 
L 10.6875 0 
z
" id="DejaVuSans-46"/>
     </defs>
     <use xlink:href="#DejaVuSans-118"/>
     <use x="59.179688" xlink:href="#DejaVuSans-50"/>
     <use x="122.802734" xlink:href="#DejaVuSans-46"/>
     <use x="154.589844" xlink:href="#DejaVuSans-52"/>
    </g>
   </g>
  </g>
 </g>
 <defs>
  <clipPath id="p4da9f3f0eb">
   <rect height="290.304" width="460.8" x="0" y="3.456"/>
  </clipPath>
 </defs>
</svg>
