<?xml version="1.0" encoding="utf-8" standalone="no"?>
<!DOCTYPE svg PUBLIC "-//W3C//DTD SVG 1.1//EN"
  "http://www.w3.org/Graphics/SVG/1.1/DTD/svg11.dtd">
<!-- Created with matplotlib (https://matplotlib.org/) -->
<svg height="345.6pt" version="1.1" viewBox="0 0 460.8 345.6" width="460.8pt" xmlns="http://www.w3.org/2000/svg" xmlns:xlink="http://www.w3.org/1999/xlink">
 <metadata>
  <rdf:RDF xmlns:cc="http://creativecommons.org/ns#" xmlns:dc="http://purl.org/dc/elements/1.1/" xmlns:rdf="http://www.w3.org/1999/02/22-rdf-syntax-ns#">
   <cc:Work>
    <dc:type rdf:resource="http://purl.org/dc/dcmitype/StillImage"/>
    <dc:date>2021-06-17T01:37:27.869690</dc:date>
    <dc:format>image/svg+xml</dc:format>
    <dc:creator>
     <cc:Agent>
      <dc:title>Matplotlib v3.3.4, https://matplotlib.org/</dc:title>
     </cc:Agent>
    </dc:creator>
   </cc:Work>
  </rdf:RDF>
 </metadata>
 <defs>
  <style type="text/css">*{stroke-linecap:butt;stroke-linejoin:round;}</style>
 </defs>
 <g id="figure_1">
  <g id="patch_1">
   <path d="M 0 345.6 
L 460.8 345.6 
L 460.8 0 
L 0 0 
z
" style="fill:#ffffff;"/>
  </g>
  <g id="axes_1">
   <g id="patch_2">
    <path d="M 57.6 298.944 
L 338.688 298.944 
L 338.688 3.456 
L 57.6 3.456 
z
" style="fill:#ffffff;"/>
   </g>
   <g id="matplotlib.axis_1">
    <g id="xtick_1">
     <g id="line2d_1">
      <path clip-path="url(#p8ed6f040e9)" d="M 57.6 298.944 
L 57.6 3.456 
" style="fill:none;stroke:#b0b0b0;stroke-linecap:square;stroke-width:0.8;"/>
     </g>
     <g id="line2d_2">
      <defs>
       <path d="M 0 0 
L 0 3.5 
" id="m2ec4d1431f" style="stroke:#000000;stroke-width:0.8;"/>
      </defs>
      <g>
       <use style="stroke:#000000;stroke-width:0.8;" x="57.6" xlink:href="#m2ec4d1431f" y="298.944"/>
      </g>
     </g>
     <g id="text_1">
      <!-- 0 -->
      <g transform="translate(51.2375 321.140875)scale(0.2 -0.2)">
       <defs>
        <path d="M 31.78125 66.40625 
Q 24.171875 66.40625 20.328125 58.90625 
Q 16.5 51.421875 16.5 36.375 
Q 16.5 21.390625 20.328125 13.890625 
Q 24.171875 6.390625 31.78125 6.390625 
Q 39.453125 6.390625 43.28125 13.890625 
Q 47.125 21.390625 47.125 36.375 
Q 47.125 51.421875 43.28125 58.90625 
Q 39.453125 66.40625 31.78125 66.40625 
z
M 31.78125 74.21875 
Q 44.046875 74.21875 50.515625 64.515625 
Q 56.984375 54.828125 56.984375 36.375 
Q 56.984375 17.96875 50.515625 8.265625 
Q 44.046875 -1.421875 31.78125 -1.421875 
Q 19.53125 -1.421875 13.0625 8.265625 
Q 6.59375 17.96875 6.59375 36.375 
Q 6.59375 54.828125 13.0625 64.515625 
Q 19.53125 74.21875 31.78125 74.21875 
z
" id="DejaVuSans-48"/>
       </defs>
       <use xlink:href="#DejaVuSans-48"/>
      </g>
     </g>
    </g>
    <g id="xtick_2">
     <g id="line2d_3">
      <path clip-path="url(#p8ed6f040e9)" d="M 137.910857 298.944 
L 137.910857 3.456 
" style="fill:none;stroke:#b0b0b0;stroke-linecap:square;stroke-width:0.8;"/>
     </g>
     <g id="line2d_4">
      <g>
       <use style="stroke:#000000;stroke-width:0.8;" x="137.910857" xlink:href="#m2ec4d1431f" y="298.944"/>
      </g>
     </g>
     <g id="text_2">
      <!-- 2 -->
      <g transform="translate(131.548357 321.140875)scale(0.2 -0.2)">
       <defs>
        <path d="M 19.1875 8.296875 
L 53.609375 8.296875 
L 53.609375 0 
L 7.328125 0 
L 7.328125 8.296875 
Q 12.9375 14.109375 22.625 23.890625 
Q 32.328125 33.6875 34.8125 36.53125 
Q 39.546875 41.84375 41.421875 45.53125 
Q 43.3125 49.21875 43.3125 52.78125 
Q 43.3125 58.59375 39.234375 62.25 
Q 35.15625 65.921875 28.609375 65.921875 
Q 23.96875 65.921875 18.8125 64.3125 
Q 13.671875 62.703125 7.8125 59.421875 
L 7.8125 69.390625 
Q 13.765625 71.78125 18.9375 73 
Q 24.125 74.21875 28.421875 74.21875 
Q 39.75 74.21875 46.484375 68.546875 
Q 53.21875 62.890625 53.21875 53.421875 
Q 53.21875 48.921875 51.53125 44.890625 
Q 49.859375 40.875 45.40625 35.40625 
Q 44.1875 33.984375 37.640625 27.21875 
Q 31.109375 20.453125 19.1875 8.296875 
z
" id="DejaVuSans-50"/>
       </defs>
       <use xlink:href="#DejaVuSans-50"/>
      </g>
     </g>
    </g>
    <g id="xtick_3">
     <g id="line2d_5">
      <path clip-path="url(#p8ed6f040e9)" d="M 218.221714 298.944 
L 218.221714 3.456 
" style="fill:none;stroke:#b0b0b0;stroke-linecap:square;stroke-width:0.8;"/>
     </g>
     <g id="line2d_6">
      <g>
       <use style="stroke:#000000;stroke-width:0.8;" x="218.221714" xlink:href="#m2ec4d1431f" y="298.944"/>
      </g>
     </g>
     <g id="text_3">
      <!-- 4 -->
      <g transform="translate(211.859214 321.140875)scale(0.2 -0.2)">
       <defs>
        <path d="M 37.796875 64.3125 
L 12.890625 25.390625 
L 37.796875 25.390625 
z
M 35.203125 72.90625 
L 47.609375 72.90625 
L 47.609375 25.390625 
L 58.015625 25.390625 
L 58.015625 17.1875 
L 47.609375 17.1875 
L 47.609375 0 
L 37.796875 0 
L 37.796875 17.1875 
L 4.890625 17.1875 
L 4.890625 26.703125 
z
" id="DejaVuSans-52"/>
       </defs>
       <use xlink:href="#DejaVuSans-52"/>
      </g>
     </g>
    </g>
    <g id="xtick_4">
     <g id="line2d_7">
      <path clip-path="url(#p8ed6f040e9)" d="M 298.532571 298.944 
L 298.532571 3.456 
" style="fill:none;stroke:#b0b0b0;stroke-linecap:square;stroke-width:0.8;"/>
     </g>
     <g id="line2d_8">
      <g>
       <use style="stroke:#000000;stroke-width:0.8;" x="298.532571" xlink:href="#m2ec4d1431f" y="298.944"/>
      </g>
     </g>
     <g id="text_4">
      <!-- 6 -->
      <g transform="translate(292.170071 321.140875)scale(0.2 -0.2)">
       <defs>
        <path d="M 33.015625 40.375 
Q 26.375 40.375 22.484375 35.828125 
Q 18.609375 31.296875 18.609375 23.390625 
Q 18.609375 15.53125 22.484375 10.953125 
Q 26.375 6.390625 33.015625 6.390625 
Q 39.65625 6.390625 43.53125 10.953125 
Q 47.40625 15.53125 47.40625 23.390625 
Q 47.40625 31.296875 43.53125 35.828125 
Q 39.65625 40.375 33.015625 40.375 
z
M 52.59375 71.296875 
L 52.59375 62.3125 
Q 48.875 64.0625 45.09375 64.984375 
Q 41.3125 65.921875 37.59375 65.921875 
Q 27.828125 65.921875 22.671875 59.328125 
Q 17.53125 52.734375 16.796875 39.40625 
Q 19.671875 43.65625 24.015625 45.921875 
Q 28.375 48.1875 33.59375 48.1875 
Q 44.578125 48.1875 50.953125 41.515625 
Q 57.328125 34.859375 57.328125 23.390625 
Q 57.328125 12.15625 50.6875 5.359375 
Q 44.046875 -1.421875 33.015625 -1.421875 
Q 20.359375 -1.421875 13.671875 8.265625 
Q 6.984375 17.96875 6.984375 36.375 
Q 6.984375 53.65625 15.1875 63.9375 
Q 23.390625 74.21875 37.203125 74.21875 
Q 40.921875 74.21875 44.703125 73.484375 
Q 48.484375 72.75 52.59375 71.296875 
z
" id="DejaVuSans-54"/>
       </defs>
       <use xlink:href="#DejaVuSans-54"/>
      </g>
     </g>
    </g>
    <g id="xtick_5">
     <g id="line2d_9">
      <path clip-path="url(#p8ed6f040e9)" d="M 97.755429 298.944 
L 97.755429 3.456 
" style="fill:none;stroke:#b0b0b0;stroke-linecap:square;stroke-width:0.8;"/>
     </g>
     <g id="line2d_10">
      <defs>
       <path d="M 0 0 
L 0 2 
" id="mf36dccb8d3" style="stroke:#000000;stroke-width:0.6;"/>
      </defs>
      <g>
       <use style="stroke:#000000;stroke-width:0.6;" x="97.755429" xlink:href="#mf36dccb8d3" y="298.944"/>
      </g>
     </g>
    </g>
    <g id="xtick_6">
     <g id="line2d_11">
      <path clip-path="url(#p8ed6f040e9)" d="M 178.066286 298.944 
L 178.066286 3.456 
" style="fill:none;stroke:#b0b0b0;stroke-linecap:square;stroke-width:0.8;"/>
     </g>
     <g id="line2d_12">
      <g>
       <use style="stroke:#000000;stroke-width:0.6;" x="178.066286" xlink:href="#mf36dccb8d3" y="298.944"/>
      </g>
     </g>
    </g>
    <g id="xtick_7">
     <g id="line2d_13">
      <path clip-path="url(#p8ed6f040e9)" d="M 258.377143 298.944 
L 258.377143 3.456 
" style="fill:none;stroke:#b0b0b0;stroke-linecap:square;stroke-width:0.8;"/>
     </g>
     <g id="line2d_14">
      <g>
       <use style="stroke:#000000;stroke-width:0.6;" x="258.377143" xlink:href="#mf36dccb8d3" y="298.944"/>
      </g>
     </g>
    </g>
    <g id="xtick_8">
     <g id="line2d_15">
      <path clip-path="url(#p8ed6f040e9)" d="M 338.688 298.944 
L 338.688 3.456 
" style="fill:none;stroke:#b0b0b0;stroke-linecap:square;stroke-width:0.8;"/>
     </g>
     <g id="line2d_16">
      <g>
       <use style="stroke:#000000;stroke-width:0.6;" x="338.688" xlink:href="#mf36dccb8d3" y="298.944"/>
      </g>
     </g>
    </g>
    <g id="text_5">
     <!-- log10(# f-evals / dimension) -->
     <g transform="translate(77.764078 342.217594)scale(0.17 -0.17)">
      <defs>
       <path d="M 9.421875 75.984375 
L 18.40625 75.984375 
L 18.40625 0 
L 9.421875 0 
z
" id="DejaVuSans-108"/>
       <path d="M 30.609375 48.390625 
Q 23.390625 48.390625 19.1875 42.75 
Q 14.984375 37.109375 14.984375 27.296875 
Q 14.984375 17.484375 19.15625 11.84375 
Q 23.34375 6.203125 30.609375 6.203125 
Q 37.796875 6.203125 41.984375 11.859375 
Q 46.1875 17.53125 46.1875 27.296875 
Q 46.1875 37.015625 41.984375 42.703125 
Q 37.796875 48.390625 30.609375 48.390625 
z
M 30.609375 56 
Q 42.328125 56 49.015625 48.375 
Q 55.71875 40.765625 55.71875 27.296875 
Q 55.71875 13.875 49.015625 6.21875 
Q 42.328125 -1.421875 30.609375 -1.421875 
Q 18.84375 -1.421875 12.171875 6.21875 
Q 5.515625 13.875 5.515625 27.296875 
Q 5.515625 40.765625 12.171875 48.375 
Q 18.84375 56 30.609375 56 
z
" id="DejaVuSans-111"/>
       <path d="M 45.40625 27.984375 
Q 45.40625 37.75 41.375 43.109375 
Q 37.359375 48.484375 30.078125 48.484375 
Q 22.859375 48.484375 18.828125 43.109375 
Q 14.796875 37.75 14.796875 27.984375 
Q 14.796875 18.265625 18.828125 12.890625 
Q 22.859375 7.515625 30.078125 7.515625 
Q 37.359375 7.515625 41.375 12.890625 
Q 45.40625 18.265625 45.40625 27.984375 
z
M 54.390625 6.78125 
Q 54.390625 -7.171875 48.1875 -13.984375 
Q 42 -20.796875 29.203125 -20.796875 
Q 24.46875 -20.796875 20.265625 -20.09375 
Q 16.0625 -19.390625 12.109375 -17.921875 
L 12.109375 -9.1875 
Q 16.0625 -11.328125 19.921875 -12.34375 
Q 23.78125 -13.375 27.78125 -13.375 
Q 36.625 -13.375 41.015625 -8.765625 
Q 45.40625 -4.15625 45.40625 5.171875 
L 45.40625 9.625 
Q 42.625 4.78125 38.28125 2.390625 
Q 33.9375 0 27.875 0 
Q 17.828125 0 11.671875 7.65625 
Q 5.515625 15.328125 5.515625 27.984375 
Q 5.515625 40.671875 11.671875 48.328125 
Q 17.828125 56 27.875 56 
Q 33.9375 56 38.28125 53.609375 
Q 42.625 51.21875 45.40625 46.390625 
L 45.40625 54.6875 
L 54.390625 54.6875 
z
" id="DejaVuSans-103"/>
       <path d="M 12.40625 8.296875 
L 28.515625 8.296875 
L 28.515625 63.921875 
L 10.984375 60.40625 
L 10.984375 69.390625 
L 28.421875 72.90625 
L 38.28125 72.90625 
L 38.28125 8.296875 
L 54.390625 8.296875 
L 54.390625 0 
L 12.40625 0 
z
" id="DejaVuSans-49"/>
       <path d="M 31 75.875 
Q 24.46875 64.65625 21.28125 53.65625 
Q 18.109375 42.671875 18.109375 31.390625 
Q 18.109375 20.125 21.3125 9.0625 
Q 24.515625 -2 31 -13.1875 
L 23.1875 -13.1875 
Q 15.875 -1.703125 12.234375 9.375 
Q 8.59375 20.453125 8.59375 31.390625 
Q 8.59375 42.28125 12.203125 53.3125 
Q 15.828125 64.359375 23.1875 75.875 
z
" id="DejaVuSans-40"/>
       <path d="M 51.125 44 
L 36.921875 44 
L 32.8125 27.6875 
L 47.125 27.6875 
z
M 43.796875 71.78125 
L 38.71875 51.515625 
L 52.984375 51.515625 
L 58.109375 71.78125 
L 65.921875 71.78125 
L 60.890625 51.515625 
L 76.125 51.515625 
L 76.125 44 
L 58.984375 44 
L 54.984375 27.6875 
L 70.515625 27.6875 
L 70.515625 20.21875 
L 53.078125 20.21875 
L 48 0 
L 40.1875 0 
L 45.21875 20.21875 
L 30.90625 20.21875 
L 25.875 0 
L 18.015625 0 
L 23.09375 20.21875 
L 7.71875 20.21875 
L 7.71875 27.6875 
L 24.90625 27.6875 
L 29 44 
L 13.28125 44 
L 13.28125 51.515625 
L 30.90625 51.515625 
L 35.890625 71.78125 
z
" id="DejaVuSans-35"/>
       <path id="DejaVuSans-32"/>
       <path d="M 37.109375 75.984375 
L 37.109375 68.5 
L 28.515625 68.5 
Q 23.6875 68.5 21.796875 66.546875 
Q 19.921875 64.59375 19.921875 59.515625 
L 19.921875 54.6875 
L 34.71875 54.6875 
L 34.71875 47.703125 
L 19.921875 47.703125 
L 19.921875 0 
L 10.890625 0 
L 10.890625 47.703125 
L 2.296875 47.703125 
L 2.296875 54.6875 
L 10.890625 54.6875 
L 10.890625 58.5 
Q 10.890625 67.625 15.140625 71.796875 
Q 19.390625 75.984375 28.609375 75.984375 
z
" id="DejaVuSans-102"/>
       <path d="M 4.890625 31.390625 
L 31.203125 31.390625 
L 31.203125 23.390625 
L 4.890625 23.390625 
z
" id="DejaVuSans-45"/>
       <path d="M 56.203125 29.59375 
L 56.203125 25.203125 
L 14.890625 25.203125 
Q 15.484375 15.921875 20.484375 11.0625 
Q 25.484375 6.203125 34.421875 6.203125 
Q 39.59375 6.203125 44.453125 7.46875 
Q 49.3125 8.734375 54.109375 11.28125 
L 54.109375 2.78125 
Q 49.265625 0.734375 44.1875 -0.34375 
Q 39.109375 -1.421875 33.890625 -1.421875 
Q 20.796875 -1.421875 13.15625 6.1875 
Q 5.515625 13.8125 5.515625 26.8125 
Q 5.515625 40.234375 12.765625 48.109375 
Q 20.015625 56 32.328125 56 
Q 43.359375 56 49.78125 48.890625 
Q 56.203125 41.796875 56.203125 29.59375 
z
M 47.21875 32.234375 
Q 47.125 39.59375 43.09375 43.984375 
Q 39.0625 48.390625 32.421875 48.390625 
Q 24.90625 48.390625 20.390625 44.140625 
Q 15.875 39.890625 15.1875 32.171875 
z
" id="DejaVuSans-101"/>
       <path d="M 2.984375 54.6875 
L 12.5 54.6875 
L 29.59375 8.796875 
L 46.6875 54.6875 
L 56.203125 54.6875 
L 35.6875 0 
L 23.484375 0 
z
" id="DejaVuSans-118"/>
       <path d="M 34.28125 27.484375 
Q 23.390625 27.484375 19.1875 25 
Q 14.984375 22.515625 14.984375 16.5 
Q 14.984375 11.71875 18.140625 8.90625 
Q 21.296875 6.109375 26.703125 6.109375 
Q 34.1875 6.109375 38.703125 11.40625 
Q 43.21875 16.703125 43.21875 25.484375 
L 43.21875 27.484375 
z
M 52.203125 31.203125 
L 52.203125 0 
L 43.21875 0 
L 43.21875 8.296875 
Q 40.140625 3.328125 35.546875 0.953125 
Q 30.953125 -1.421875 24.3125 -1.421875 
Q 15.921875 -1.421875 10.953125 3.296875 
Q 6 8.015625 6 15.921875 
Q 6 25.140625 12.171875 29.828125 
Q 18.359375 34.515625 30.609375 34.515625 
L 43.21875 34.515625 
L 43.21875 35.40625 
Q 43.21875 41.609375 39.140625 45 
Q 35.0625 48.390625 27.6875 48.390625 
Q 23 48.390625 18.546875 47.265625 
Q 14.109375 46.140625 10.015625 43.890625 
L 10.015625 52.203125 
Q 14.9375 54.109375 19.578125 55.046875 
Q 24.21875 56 28.609375 56 
Q 40.484375 56 46.34375 49.84375 
Q 52.203125 43.703125 52.203125 31.203125 
z
" id="DejaVuSans-97"/>
       <path d="M 44.28125 53.078125 
L 44.28125 44.578125 
Q 40.484375 46.53125 36.375 47.5 
Q 32.28125 48.484375 27.875 48.484375 
Q 21.1875 48.484375 17.84375 46.4375 
Q 14.5 44.390625 14.5 40.28125 
Q 14.5 37.15625 16.890625 35.375 
Q 19.28125 33.59375 26.515625 31.984375 
L 29.59375 31.296875 
Q 39.15625 29.25 43.1875 25.515625 
Q 47.21875 21.78125 47.21875 15.09375 
Q 47.21875 7.46875 41.1875 3.015625 
Q 35.15625 -1.421875 24.609375 -1.421875 
Q 20.21875 -1.421875 15.453125 -0.5625 
Q 10.6875 0.296875 5.421875 2 
L 5.421875 11.28125 
Q 10.40625 8.6875 15.234375 7.390625 
Q 20.0625 6.109375 24.8125 6.109375 
Q 31.15625 6.109375 34.5625 8.28125 
Q 37.984375 10.453125 37.984375 14.40625 
Q 37.984375 18.0625 35.515625 20.015625 
Q 33.0625 21.96875 24.703125 23.78125 
L 21.578125 24.515625 
Q 13.234375 26.265625 9.515625 29.90625 
Q 5.8125 33.546875 5.8125 39.890625 
Q 5.8125 47.609375 11.28125 51.796875 
Q 16.75 56 26.8125 56 
Q 31.78125 56 36.171875 55.265625 
Q 40.578125 54.546875 44.28125 53.078125 
z
" id="DejaVuSans-115"/>
       <path d="M 25.390625 72.90625 
L 33.6875 72.90625 
L 8.296875 -9.28125 
L 0 -9.28125 
z
" id="DejaVuSans-47"/>
       <path d="M 45.40625 46.390625 
L 45.40625 75.984375 
L 54.390625 75.984375 
L 54.390625 0 
L 45.40625 0 
L 45.40625 8.203125 
Q 42.578125 3.328125 38.25 0.953125 
Q 33.9375 -1.421875 27.875 -1.421875 
Q 17.96875 -1.421875 11.734375 6.484375 
Q 5.515625 14.40625 5.515625 27.296875 
Q 5.515625 40.1875 11.734375 48.09375 
Q 17.96875 56 27.875 56 
Q 33.9375 56 38.25 53.625 
Q 42.578125 51.265625 45.40625 46.390625 
z
M 14.796875 27.296875 
Q 14.796875 17.390625 18.875 11.75 
Q 22.953125 6.109375 30.078125 6.109375 
Q 37.203125 6.109375 41.296875 11.75 
Q 45.40625 17.390625 45.40625 27.296875 
Q 45.40625 37.203125 41.296875 42.84375 
Q 37.203125 48.484375 30.078125 48.484375 
Q 22.953125 48.484375 18.875 42.84375 
Q 14.796875 37.203125 14.796875 27.296875 
z
" id="DejaVuSans-100"/>
       <path d="M 9.421875 54.6875 
L 18.40625 54.6875 
L 18.40625 0 
L 9.421875 0 
z
M 9.421875 75.984375 
L 18.40625 75.984375 
L 18.40625 64.59375 
L 9.421875 64.59375 
z
" id="DejaVuSans-105"/>
       <path d="M 52 44.1875 
Q 55.375 50.25 60.0625 53.125 
Q 64.75 56 71.09375 56 
Q 79.640625 56 84.28125 50.015625 
Q 88.921875 44.046875 88.921875 33.015625 
L 88.921875 0 
L 79.890625 0 
L 79.890625 32.71875 
Q 79.890625 40.578125 77.09375 44.375 
Q 74.3125 48.1875 68.609375 48.1875 
Q 61.625 48.1875 57.5625 43.546875 
Q 53.515625 38.921875 53.515625 30.90625 
L 53.515625 0 
L 44.484375 0 
L 44.484375 32.71875 
Q 44.484375 40.625 41.703125 44.40625 
Q 38.921875 48.1875 33.109375 48.1875 
Q 26.21875 48.1875 22.15625 43.53125 
Q 18.109375 38.875 18.109375 30.90625 
L 18.109375 0 
L 9.078125 0 
L 9.078125 54.6875 
L 18.109375 54.6875 
L 18.109375 46.1875 
Q 21.1875 51.21875 25.484375 53.609375 
Q 29.78125 56 35.6875 56 
Q 41.65625 56 45.828125 52.96875 
Q 50 49.953125 52 44.1875 
z
" id="DejaVuSans-109"/>
       <path d="M 54.890625 33.015625 
L 54.890625 0 
L 45.90625 0 
L 45.90625 32.71875 
Q 45.90625 40.484375 42.875 44.328125 
Q 39.84375 48.1875 33.796875 48.1875 
Q 26.515625 48.1875 22.3125 43.546875 
Q 18.109375 38.921875 18.109375 30.90625 
L 18.109375 0 
L 9.078125 0 
L 9.078125 54.6875 
L 18.109375 54.6875 
L 18.109375 46.1875 
Q 21.34375 51.125 25.703125 53.5625 
Q 30.078125 56 35.796875 56 
Q 45.21875 56 50.046875 50.171875 
Q 54.890625 44.34375 54.890625 33.015625 
z
" id="DejaVuSans-110"/>
       <path d="M 8.015625 75.875 
L 15.828125 75.875 
Q 23.140625 64.359375 26.78125 53.3125 
Q 30.421875 42.28125 30.421875 31.390625 
Q 30.421875 20.453125 26.78125 9.375 
Q 23.140625 -1.703125 15.828125 -13.1875 
L 8.015625 -13.1875 
Q 14.5 -2 17.703125 9.0625 
Q 20.90625 20.125 20.90625 31.390625 
Q 20.90625 42.671875 17.703125 53.65625 
Q 14.5 64.65625 8.015625 75.875 
z
" id="DejaVuSans-41"/>
      </defs>
      <use xlink:href="#DejaVuSans-108"/>
      <use x="27.783203" xlink:href="#DejaVuSans-111"/>
      <use x="88.964844" xlink:href="#DejaVuSans-103"/>
      <use x="152.441406" xlink:href="#DejaVuSans-49"/>
      <use x="216.064453" xlink:href="#DejaVuSans-48"/>
      <use x="279.6875" xlink:href="#DejaVuSans-40"/>
      <use x="318.701172" xlink:href="#DejaVuSans-35"/>
      <use x="402.490234" xlink:href="#DejaVuSans-32"/>
      <use x="434.277344" xlink:href="#DejaVuSans-102"/>
      <use x="463.982422" xlink:href="#DejaVuSans-45"/>
      <use x="500.066406" xlink:href="#DejaVuSans-101"/>
      <use x="561.589844" xlink:href="#DejaVuSans-118"/>
      <use x="620.769531" xlink:href="#DejaVuSans-97"/>
      <use x="682.048828" xlink:href="#DejaVuSans-108"/>
      <use x="709.832031" xlink:href="#DejaVuSans-115"/>
      <use x="761.931641" xlink:href="#DejaVuSans-32"/>
      <use x="793.71875" xlink:href="#DejaVuSans-47"/>
      <use x="827.410156" xlink:href="#DejaVuSans-32"/>
      <use x="859.197266" xlink:href="#DejaVuSans-100"/>
      <use x="922.673828" xlink:href="#DejaVuSans-105"/>
      <use x="950.457031" xlink:href="#DejaVuSans-109"/>
      <use x="1047.869141" xlink:href="#DejaVuSans-101"/>
      <use x="1109.392578" xlink:href="#DejaVuSans-110"/>
      <use x="1172.771484" xlink:href="#DejaVuSans-115"/>
      <use x="1224.871094" xlink:href="#DejaVuSans-105"/>
      <use x="1252.654297" xlink:href="#DejaVuSans-111"/>
      <use x="1313.835938" xlink:href="#DejaVuSans-110"/>
      <use x="1377.214844" xlink:href="#DejaVuSans-41"/>
     </g>
    </g>
   </g>
   <g id="matplotlib.axis_2">
    <g id="ytick_1">
     <g id="line2d_17">
      <path clip-path="url(#p8ed6f040e9)" d="M 57.6 298.944 
L 338.688 298.944 
" style="fill:none;stroke:#b0b0b0;stroke-linecap:square;stroke-width:0.8;"/>
     </g>
     <g id="line2d_18">
      <defs>
       <path d="M 0 0 
L -3.5 0 
" id="mb54acaa622" style="stroke:#000000;stroke-width:0.8;"/>
      </defs>
      <g>
       <use style="stroke:#000000;stroke-width:0.8;" x="57.6" xlink:href="#mb54acaa622" y="298.944"/>
      </g>
     </g>
     <g id="text_6">
      <!-- 0.0 -->
      <g transform="translate(25.155 305.02275)scale(0.16 -0.16)">
       <defs>
        <path d="M 10.6875 12.40625 
L 21 12.40625 
L 21 0 
L 10.6875 0 
z
" id="DejaVuSans-46"/>
       </defs>
       <use xlink:href="#DejaVuSans-48"/>
       <use x="63.623047" xlink:href="#DejaVuSans-46"/>
       <use x="95.410156" xlink:href="#DejaVuSans-48"/>
      </g>
     </g>
    </g>
    <g id="ytick_2">
     <g id="line2d_19">
      <path clip-path="url(#p8ed6f040e9)" d="M 57.6 240.431525 
L 338.688 240.431525 
" style="fill:none;stroke:#b0b0b0;stroke-linecap:square;stroke-width:0.8;"/>
     </g>
     <g id="line2d_20">
      <g>
       <use style="stroke:#000000;stroke-width:0.8;" x="57.6" xlink:href="#mb54acaa622" y="240.431525"/>
      </g>
     </g>
     <g id="text_7">
      <!-- 0.2 -->
      <g transform="translate(25.155 246.510275)scale(0.16 -0.16)">
       <use xlink:href="#DejaVuSans-48"/>
       <use x="63.623047" xlink:href="#DejaVuSans-46"/>
       <use x="95.410156" xlink:href="#DejaVuSans-50"/>
      </g>
     </g>
    </g>
    <g id="ytick_3">
     <g id="line2d_21">
      <path clip-path="url(#p8ed6f040e9)" d="M 57.6 181.91905 
L 338.688 181.91905 
" style="fill:none;stroke:#b0b0b0;stroke-linecap:square;stroke-width:0.8;"/>
     </g>
     <g id="line2d_22">
      <g>
       <use style="stroke:#000000;stroke-width:0.8;" x="57.6" xlink:href="#mb54acaa622" y="181.91905"/>
      </g>
     </g>
     <g id="text_8">
      <!-- 0.4 -->
      <g transform="translate(25.155 187.9978)scale(0.16 -0.16)">
       <use xlink:href="#DejaVuSans-48"/>
       <use x="63.623047" xlink:href="#DejaVuSans-46"/>
       <use x="95.410156" xlink:href="#DejaVuSans-52"/>
      </g>
     </g>
    </g>
    <g id="ytick_4">
     <g id="line2d_23">
      <path clip-path="url(#p8ed6f040e9)" d="M 57.6 123.406574 
L 338.688 123.406574 
" style="fill:none;stroke:#b0b0b0;stroke-linecap:square;stroke-width:0.8;"/>
     </g>
     <g id="line2d_24">
      <g>
       <use style="stroke:#000000;stroke-width:0.8;" x="57.6" xlink:href="#mb54acaa622" y="123.406574"/>
      </g>
     </g>
     <g id="text_9">
      <!-- 0.6 -->
      <g transform="translate(25.155 129.485324)scale(0.16 -0.16)">
       <use xlink:href="#DejaVuSans-48"/>
       <use x="63.623047" xlink:href="#DejaVuSans-46"/>
       <use x="95.410156" xlink:href="#DejaVuSans-54"/>
      </g>
     </g>
    </g>
    <g id="ytick_5">
     <g id="line2d_25">
      <path clip-path="url(#p8ed6f040e9)" d="M 57.6 64.894099 
L 338.688 64.894099 
" style="fill:none;stroke:#b0b0b0;stroke-linecap:square;stroke-width:0.8;"/>
     </g>
     <g id="line2d_26">
      <g>
       <use style="stroke:#000000;stroke-width:0.8;" x="57.6" xlink:href="#mb54acaa622" y="64.894099"/>
      </g>
     </g>
     <g id="text_10">
      <!-- 0.8 -->
      <g transform="translate(25.155 70.972849)scale(0.16 -0.16)">
       <defs>
        <path d="M 31.78125 34.625 
Q 24.75 34.625 20.71875 30.859375 
Q 16.703125 27.09375 16.703125 20.515625 
Q 16.703125 13.921875 20.71875 10.15625 
Q 24.75 6.390625 31.78125 6.390625 
Q 38.8125 6.390625 42.859375 10.171875 
Q 46.921875 13.96875 46.921875 20.515625 
Q 46.921875 27.09375 42.890625 30.859375 
Q 38.875 34.625 31.78125 34.625 
z
M 21.921875 38.8125 
Q 15.578125 40.375 12.03125 44.71875 
Q 8.5 49.078125 8.5 55.328125 
Q 8.5 64.0625 14.71875 69.140625 
Q 20.953125 74.21875 31.78125 74.21875 
Q 42.671875 74.21875 48.875 69.140625 
Q 55.078125 64.0625 55.078125 55.328125 
Q 55.078125 49.078125 51.53125 44.71875 
Q 48 40.375 41.703125 38.8125 
Q 48.828125 37.15625 52.796875 32.3125 
Q 56.78125 27.484375 56.78125 20.515625 
Q 56.78125 9.90625 50.3125 4.234375 
Q 43.84375 -1.421875 31.78125 -1.421875 
Q 19.734375 -1.421875 13.25 4.234375 
Q 6.78125 9.90625 6.78125 20.515625 
Q 6.78125 27.484375 10.78125 32.3125 
Q 14.796875 37.15625 21.921875 38.8125 
z
M 18.3125 54.390625 
Q 18.3125 48.734375 21.84375 45.5625 
Q 25.390625 42.390625 31.78125 42.390625 
Q 38.140625 42.390625 41.71875 45.5625 
Q 45.3125 48.734375 45.3125 54.390625 
Q 45.3125 60.0625 41.71875 63.234375 
Q 38.140625 66.40625 31.78125 66.40625 
Q 25.390625 66.40625 21.84375 63.234375 
Q 18.3125 60.0625 18.3125 54.390625 
z
" id="DejaVuSans-56"/>
       </defs>
       <use xlink:href="#DejaVuSans-48"/>
       <use x="63.623047" xlink:href="#DejaVuSans-46"/>
       <use x="95.410156" xlink:href="#DejaVuSans-56"/>
      </g>
     </g>
    </g>
    <g id="ytick_6">
     <g id="line2d_27">
      <path clip-path="url(#p8ed6f040e9)" d="M 57.6 6.381624 
L 338.688 6.381624 
" style="fill:none;stroke:#b0b0b0;stroke-linecap:square;stroke-width:0.8;"/>
     </g>
     <g id="line2d_28">
      <g>
       <use style="stroke:#000000;stroke-width:0.8;" x="57.6" xlink:href="#mb54acaa622" y="6.381624"/>
      </g>
     </g>
     <g id="text_11">
      <!-- 1.0 -->
      <g transform="translate(25.155 12.460374)scale(0.16 -0.16)">
       <use xlink:href="#DejaVuSans-49"/>
       <use x="63.623047" xlink:href="#DejaVuSans-46"/>
       <use x="95.410156" xlink:href="#DejaVuSans-48"/>
      </g>
     </g>
    </g>
    <g id="text_12">
     <!-- Fraction of function,target pairs -->
     <g transform="translate(17.619531 285.585)rotate(-90)scale(0.17 -0.17)">
      <defs>
       <path d="M 9.8125 72.90625 
L 51.703125 72.90625 
L 51.703125 64.59375 
L 19.671875 64.59375 
L 19.671875 43.109375 
L 48.578125 43.109375 
L 48.578125 34.8125 
L 19.671875 34.8125 
L 19.671875 0 
L 9.8125 0 
z
" id="DejaVuSans-70"/>
       <path d="M 41.109375 46.296875 
Q 39.59375 47.171875 37.8125 47.578125 
Q 36.03125 48 33.890625 48 
Q 26.265625 48 22.1875 43.046875 
Q 18.109375 38.09375 18.109375 28.8125 
L 18.109375 0 
L 9.078125 0 
L 9.078125 54.6875 
L 18.109375 54.6875 
L 18.109375 46.1875 
Q 20.953125 51.171875 25.484375 53.578125 
Q 30.03125 56 36.53125 56 
Q 37.453125 56 38.578125 55.875 
Q 39.703125 55.765625 41.0625 55.515625 
z
" id="DejaVuSans-114"/>
       <path d="M 48.78125 52.59375 
L 48.78125 44.1875 
Q 44.96875 46.296875 41.140625 47.34375 
Q 37.3125 48.390625 33.40625 48.390625 
Q 24.65625 48.390625 19.8125 42.84375 
Q 14.984375 37.3125 14.984375 27.296875 
Q 14.984375 17.28125 19.8125 11.734375 
Q 24.65625 6.203125 33.40625 6.203125 
Q 37.3125 6.203125 41.140625 7.25 
Q 44.96875 8.296875 48.78125 10.40625 
L 48.78125 2.09375 
Q 45.015625 0.34375 40.984375 -0.53125 
Q 36.96875 -1.421875 32.421875 -1.421875 
Q 20.0625 -1.421875 12.78125 6.34375 
Q 5.515625 14.109375 5.515625 27.296875 
Q 5.515625 40.671875 12.859375 48.328125 
Q 20.21875 56 33.015625 56 
Q 37.15625 56 41.109375 55.140625 
Q 45.0625 54.296875 48.78125 52.59375 
z
" id="DejaVuSans-99"/>
       <path d="M 18.3125 70.21875 
L 18.3125 54.6875 
L 36.8125 54.6875 
L 36.8125 47.703125 
L 18.3125 47.703125 
L 18.3125 18.015625 
Q 18.3125 11.328125 20.140625 9.421875 
Q 21.96875 7.515625 27.59375 7.515625 
L 36.8125 7.515625 
L 36.8125 0 
L 27.59375 0 
Q 17.1875 0 13.234375 3.875 
Q 9.28125 7.765625 9.28125 18.015625 
L 9.28125 47.703125 
L 2.6875 47.703125 
L 2.6875 54.6875 
L 9.28125 54.6875 
L 9.28125 70.21875 
z
" id="DejaVuSans-116"/>
       <path d="M 8.5 21.578125 
L 8.5 54.6875 
L 17.484375 54.6875 
L 17.484375 21.921875 
Q 17.484375 14.15625 20.5 10.265625 
Q 23.53125 6.390625 29.59375 6.390625 
Q 36.859375 6.390625 41.078125 11.03125 
Q 45.3125 15.671875 45.3125 23.6875 
L 45.3125 54.6875 
L 54.296875 54.6875 
L 54.296875 0 
L 45.3125 0 
L 45.3125 8.40625 
Q 42.046875 3.421875 37.71875 1 
Q 33.40625 -1.421875 27.6875 -1.421875 
Q 18.265625 -1.421875 13.375 4.4375 
Q 8.5 10.296875 8.5 21.578125 
z
M 31.109375 56 
z
" id="DejaVuSans-117"/>
       <path d="M 11.71875 12.40625 
L 22.015625 12.40625 
L 22.015625 4 
L 14.015625 -11.625 
L 7.71875 -11.625 
L 11.71875 4 
z
" id="DejaVuSans-44"/>
       <path d="M 18.109375 8.203125 
L 18.109375 -20.796875 
L 9.078125 -20.796875 
L 9.078125 54.6875 
L 18.109375 54.6875 
L 18.109375 46.390625 
Q 20.953125 51.265625 25.265625 53.625 
Q 29.59375 56 35.59375 56 
Q 45.5625 56 51.78125 48.09375 
Q 58.015625 40.1875 58.015625 27.296875 
Q 58.015625 14.40625 51.78125 6.484375 
Q 45.5625 -1.421875 35.59375 -1.421875 
Q 29.59375 -1.421875 25.265625 0.953125 
Q 20.953125 3.328125 18.109375 8.203125 
z
M 48.6875 27.296875 
Q 48.6875 37.203125 44.609375 42.84375 
Q 40.53125 48.484375 33.40625 48.484375 
Q 26.265625 48.484375 22.1875 42.84375 
Q 18.109375 37.203125 18.109375 27.296875 
Q 18.109375 17.390625 22.1875 11.75 
Q 26.265625 6.109375 33.40625 6.109375 
Q 40.53125 6.109375 44.609375 11.75 
Q 48.6875 17.390625 48.6875 27.296875 
z
" id="DejaVuSans-112"/>
      </defs>
      <use xlink:href="#DejaVuSans-70"/>
      <use x="50.269531" xlink:href="#DejaVuSans-114"/>
      <use x="91.382812" xlink:href="#DejaVuSans-97"/>
      <use x="152.662109" xlink:href="#DejaVuSans-99"/>
      <use x="207.642578" xlink:href="#DejaVuSans-116"/>
      <use x="246.851562" xlink:href="#DejaVuSans-105"/>
      <use x="274.634766" xlink:href="#DejaVuSans-111"/>
      <use x="335.816406" xlink:href="#DejaVuSans-110"/>
      <use x="399.195312" xlink:href="#DejaVuSans-32"/>
      <use x="430.982422" xlink:href="#DejaVuSans-111"/>
      <use x="492.164062" xlink:href="#DejaVuSans-102"/>
      <use x="527.369141" xlink:href="#DejaVuSans-32"/>
      <use x="559.15625" xlink:href="#DejaVuSans-102"/>
      <use x="594.361328" xlink:href="#DejaVuSans-117"/>
      <use x="657.740234" xlink:href="#DejaVuSans-110"/>
      <use x="721.119141" xlink:href="#DejaVuSans-99"/>
      <use x="776.099609" xlink:href="#DejaVuSans-116"/>
      <use x="815.308594" xlink:href="#DejaVuSans-105"/>
      <use x="843.091797" xlink:href="#DejaVuSans-111"/>
      <use x="904.273438" xlink:href="#DejaVuSans-110"/>
      <use x="967.652344" xlink:href="#DejaVuSans-44"/>
      <use x="999.439453" xlink:href="#DejaVuSans-116"/>
      <use x="1038.648438" xlink:href="#DejaVuSans-97"/>
      <use x="1099.927734" xlink:href="#DejaVuSans-114"/>
      <use x="1139.291016" xlink:href="#DejaVuSans-103"/>
      <use x="1202.767578" xlink:href="#DejaVuSans-101"/>
      <use x="1264.291016" xlink:href="#DejaVuSans-116"/>
      <use x="1303.5" xlink:href="#DejaVuSans-32"/>
      <use x="1335.287109" xlink:href="#DejaVuSans-112"/>
      <use x="1398.763672" xlink:href="#DejaVuSans-97"/>
      <use x="1460.042969" xlink:href="#DejaVuSans-105"/>
      <use x="1487.826172" xlink:href="#DejaVuSans-114"/>
      <use x="1528.939453" xlink:href="#DejaVuSans-115"/>
     </g>
    </g>
   </g>
   <g id="line2d_29">
    <defs>
     <path d="M 0 1.5 
C 0.397805 1.5 0.77937 1.341951 1.06066 1.06066 
C 1.341951 0.77937 1.5 0.397805 1.5 0 
C 1.5 -0.397805 1.341951 -0.77937 1.06066 -1.06066 
C 0.77937 -1.341951 0.397805 -1.5 0 -1.5 
C -0.397805 -1.5 -0.77937 -1.341951 -1.06066 -1.06066 
C -1.341951 -0.77937 -1.5 -0.397805 -1.5 0 
C -1.5 0.397805 -1.341951 0.77937 -1.06066 1.06066 
C -0.77937 1.341951 -0.397805 1.5 0 1.5 
z
" id="mc328f334d2" style="stroke:#000080;"/>
    </defs>
    <g>
     <use style="fill:#000080;stroke:#000080;" x="252.17753" xlink:href="#mc328f334d2" y="241.578828"/>
     <use style="fill:#000080;stroke:#000080;" x="252.17753" xlink:href="#mc328f334d2" y="241.578828"/>
    </g>
   </g>
   <g id="line2d_30">
    <path d="M 83.037197 298.944 
L 83.037197 296.649393 
L 84.213325 296.649393 
L 84.213325 293.781135 
L 84.955534 293.781135 
L 84.955534 290.912876 
L 87.009585 290.912876 
L 87.009585 288.618269 
L 87.643811 288.618269 
L 87.643811 286.323662 
L 89.697862 286.323662 
L 89.697862 285.75001 
L 91.284345 285.75001 
L 91.284345 285.176359 
L 91.535274 285.176359 
L 91.535274 284.602707 
L 92.026554 284.602707 
L 92.026554 282.3081 
L 92.267099 282.3081 
L 92.267099 281.160797 
L 93.422441 281.160797 
L 93.422441 280.587145 
L 93.863965 280.587145 
L 93.863965 277.718886 
L 94.505975 277.718886 
L 94.505975 274.850628 
L 94.921215 274.850628 
L 94.921215 269.687762 
L 95.326798 269.687762 
L 95.326798 269.114111 
L 96.489848 269.114111 
L 96.489848 266.819504 
L 97.224242 266.819504 
L 97.224242 266.245852 
L 97.755429 266.245852 
L 97.755429 265.6722 
L 98.100772 265.6722 
L 98.100772 265.098549 
L 99.41757 265.098549 
L 99.41757 264.524897 
L 99.886816 264.524897 
L 99.886816 263.377593 
L 101.079711 263.377593 
L 101.079711 261.082987 
L 101.223245 261.082987 
L 101.223245 258.214728 
L 102.464508 258.214728 
L 102.464508 255.920121 
L 102.859376 255.920121 
L 102.859376 255.346469 
L 103.372333 255.346469 
L 103.372333 254.199166 
L 106.48859 254.199166 
L 106.48859 253.625514 
L 107.811151 253.625514 
L 107.811151 253.051863 
L 115.648856 253.051863 
L 115.648856 252.478211 
L 117.373392 252.478211 
L 117.373392 251.904559 
L 118.576578 251.904559 
L 118.576578 251.330907 
L 121.887753 251.330907 
L 121.887753 250.757256 
L 124.557288 250.757256 
L 124.557288 250.183604 
L 126.338353 250.183604 
L 126.338353 249.609952 
L 129.602362 249.609952 
L 129.602362 248.462649 
L 129.630422 248.462649 
L 129.630422 247.888997 
L 131.312942 247.888997 
L 131.312942 247.315345 
L 134.407429 247.315345 
L 134.407429 246.741694 
L 141.788363 246.741694 
L 141.788363 246.168042 
L 230.381058 246.168042 
L 230.381058 245.59439 
L 230.418446 245.59439 
L 230.418446 245.020738 
L 237.453351 245.020738 
L 237.453351 243.873435 
L 242.433492 243.873435 
L 242.433492 243.299783 
L 242.452234 243.299783 
L 242.452234 242.726132 
L 249.492645 242.726132 
L 249.492645 242.15248 
L 252.17753 242.15248 
L 252.17753 241.578828 
L 338.688 241.578828 
" style="fill:none;stroke:#000080;stroke-linecap:square;stroke-width:1.5;"/>
   </g>
   <g id="line2d_31">
    <defs>
     <path d="M 0 6 
C 1.591219 6 3.117479 5.367802 4.242641 4.242641 
C 5.367802 3.117479 6 1.591219 6 0 
C 6 -1.591219 5.367802 -3.117479 4.242641 -4.242641 
C 3.117479 -5.367802 1.591219 -6 0 -6 
C -1.591219 -6 -3.117479 -5.367802 -4.242641 -4.242641 
C -5.367802 -3.117479 -6 -1.591219 -6 0 
C -6 1.591219 -5.367802 3.117479 -4.242641 4.242641 
C -3.117479 5.367802 -1.591219 6 0 6 
z
" id="m5ba34cc33b" style="stroke:#000080;stroke-width:1.5;"/>
    </defs>
    <g>
     <use style="fill-opacity:0;stroke:#000080;stroke-width:1.5;" x="95.326798" xlink:href="#m5ba34cc33b" y="269.114111"/>
     <use style="fill-opacity:0;stroke:#000080;stroke-width:1.5;" x="121.887753" xlink:href="#m5ba34cc33b" y="251.330907"/>
     <use style="fill-opacity:0;stroke:#000080;stroke-width:1.5;" x="252.17753" xlink:href="#m5ba34cc33b" y="242.15248"/>
     <use style="fill-opacity:0;stroke:#000080;stroke-width:1.5;" x="252.17753" xlink:href="#m5ba34cc33b" y="241.578828"/>
     <use style="fill-opacity:0;stroke:#000080;stroke-width:1.5;" x="338.688" xlink:href="#m5ba34cc33b" y="241.578828"/>
    </g>
   </g>
   <g id="line2d_32">
    <path style="fill:none;stroke:#000080;stroke-linecap:square;stroke-width:1.5;"/>
    <g/>
   </g>
   <g id="line2d_33">
    <path clip-path="url(#p8ed6f040e9)" d="M 218.221889 246.168042 
" style="fill:none;stroke:#000080;stroke-linecap:square;stroke-width:1.5;"/>
    <defs>
     <path d="M -12 12 
L 12 -12 
M -12 -12 
L 12 12 
" id="mf8b308bca0" style="stroke:#000080;"/>
    </defs>
    <g clip-path="url(#p8ed6f040e9)">
     <use style="fill:#000080;stroke:#000080;" x="218.221889" xlink:href="#mf8b308bca0" y="246.168042"/>
    </g>
   </g>
   <g id="line2d_34">
    <defs>
     <path d="M 0 1.5 
C 0.397805 1.5 0.77937 1.341951 1.06066 1.06066 
C 1.341951 0.77937 1.5 0.397805 1.5 0 
C 1.5 -0.397805 1.341951 -0.77937 1.06066 -1.06066 
C 0.77937 -1.341951 0.397805 -1.5 0 -1.5 
C -0.397805 -1.5 -0.77937 -1.341951 -1.06066 -1.06066 
C -1.341951 -0.77937 -1.5 -0.397805 -1.5 0 
C -1.5 0.397805 -1.341951 0.77937 -1.06066 1.06066 
C -0.77937 1.341951 -0.397805 1.5 0 1.5 
z
" id="m7f46bda634" style="stroke:#ff00ff;"/>
    </defs>
    <g>
     <use style="fill:#ff00ff;stroke:#ff00ff;" x="272.134421" xlink:href="#m7f46bda634" y="6.381624"/>
     <use style="fill:#ff00ff;stroke:#ff00ff;" x="272.134421" xlink:href="#m7f46bda634" y="6.381624"/>
    </g>
   </g>
   <g id="line2d_35">
    <path d="M 17.444571 298.944 
L 17.444571 291.486528 
L 29.53256 291.486528 
L 29.53256 290.912876 
L 60.779557 290.912876 
L 60.779557 290.339224 
L 64.67102 290.339224 
L 64.67102 289.765573 
L 65.796525 289.765573 
L 65.796525 289.191921 
L 78.421149 289.191921 
L 78.421149 288.044617 
L 78.941764 288.044617 
L 78.941764 286.897314 
L 80.881459 286.897314 
L 80.881459 286.323662 
L 82.626842 286.323662 
L 82.626842 285.176359 
L 83.037197 285.176359 
L 83.037197 284.602707 
L 86.351421 284.602707 
L 86.351421 284.029055 
L 86.683608 284.029055 
L 86.683608 283.455404 
L 87.009585 283.455404 
L 87.009585 282.3081 
L 87.643811 282.3081 
L 87.643811 281.734448 
L 87.952479 281.734448 
L 87.952479 281.160797 
L 94.714831 281.160797 
L 94.714831 280.587145 
L 97.403108 280.587145 
L 97.403108 280.013493 
L 98.100772 280.013493 
L 98.100772 279.439842 
L 98.606294 279.439842 
L 98.606294 278.86619 
L 99.886816 278.86619 
L 99.886816 278.292538 
L 100.040467 278.292538 
L 100.040467 277.718886 
L 102.196206 277.718886 
L 102.196206 277.145235 
L 102.464508 277.145235 
L 102.464508 275.997931 
L 103.870632 275.997931 
L 103.870632 275.42428 
L 105.171792 275.42428 
L 105.171792 274.850628 
L 107.614095 274.850628 
L 107.712901 273.703324 
L 107.811151 273.703324 
L 107.811151 273.129673 
L 108.764355 273.129673 
L 108.764355 272.556021 
L 110.103064 272.556021 
L 110.103064 271.982369 
L 110.274038 271.982369 
L 110.358901 270.835066 
L 110.443353 270.835066 
L 110.527398 269.114111 
L 111.974805 269.114111 
L 111.974805 268.540459 
L 112.431755 268.540459 
L 112.431755 267.966807 
L 112.58145 267.966807 
L 112.655818 266.819504 
L 114.080224 266.819504 
L 114.080224 266.245852 
L 116.202531 266.245852 
L 116.202531 265.6722 
L 116.38325 265.6722 
L 116.38325 265.098549 
L 116.739166 265.098549 
L 116.739166 264.524897 
L 118.629344 264.524897 
L 118.629344 263.377593 
L 120.759333 263.377593 
L 120.852343 262.23029 
L 121.53454 262.23029 
L 121.53454 261.656638 
L 122.061712 261.656638 
L 122.061712 260.509335 
L 122.40451 260.509335 
L 122.40451 259.935683 
L 123.07053 259.935683 
L 123.111324 258.78838 
L 123.907776 258.78838 
L 123.907776 257.641076 
L 124.632135 257.641076 
L 124.632135 257.067425 
L 124.743806 257.067425 
L 124.743806 256.493773 
L 125.147256 256.493773 
L 125.147256 255.346469 
L 126.030894 255.346469 
L 126.099688 253.625514 
L 126.338353 253.625514 
L 126.338353 253.051863 
L 127.035353 253.051863 
L 127.035353 251.904559 
L 127.389626 251.904559 
L 127.48501 250.757256 
L 128.046609 250.757256 
L 128.046609 250.183604 
L 128.229861 250.183604 
L 128.260216 249.036301 
L 128.531065 249.036301 
L 128.531065 248.462649 
L 129.433047 248.462649 
L 129.433047 247.888997 
L 129.714332 247.888997 
L 129.714332 247.315345 
L 129.825588 247.315345 
L 129.825588 246.741694 
L 129.963666 246.741694 
L 129.991152 245.59439 
L 130.558552 245.59439 
L 130.558552 245.020738 
L 130.796184 245.020738 
L 130.822389 243.873435 
L 130.978796 243.873435 
L 130.978796 242.15248 
L 131.490249 242.15248 
L 131.490249 241.578828 
L 131.839545 241.578828 
L 131.839545 241.005176 
L 132.230358 241.005176 
L 132.230358 240.431525 
L 133.124876 240.431525 
L 133.170708 239.284221 
L 133.307488 239.284221 
L 133.307488 238.71057 
L 133.600213 238.71057 
L 133.622529 237.563266 
L 133.997581 237.563266 
L 134.062938 235.842311 
L 134.214491 235.842311 
L 134.214491 235.268659 
L 134.703375 235.268659 
L 134.703375 234.695008 
L 134.849486 234.695008 
L 134.849486 234.121356 
L 135.321124 234.121356 
L 135.421987 230.679446 
L 135.641855 230.679446 
L 135.641855 230.105794 
L 136.494612 230.105794 
L 136.513517 228.384839 
L 136.997972 228.384839 
L 136.997972 227.237535 
L 137.629572 227.237535 
L 137.629572 226.090232 
L 138.221972 226.090232 
L 138.221972 225.51658 
L 138.510793 225.51658 
L 138.561269 224.369277 
L 138.89409 224.369277 
L 138.89409 223.795625 
L 139.090775 223.795625 
L 139.090775 223.221973 
L 139.493548 223.221973 
L 139.493548 222.07467 
L 139.652088 222.07467 
L 139.730821 220.927366 
L 139.77789 220.927366 
L 139.77789 220.353715 
L 140.088482 220.353715 
L 140.180592 218.632759 
L 140.408758 218.632759 
L 140.469102 217.485456 
L 140.64889 217.485456 
L 140.693549 216.338153 
L 141.104941 216.338153 
L 141.104941 215.764501 
L 141.378673 215.764501 
L 141.392962 214.617197 
L 141.563518 214.617197 
L 141.563518 214.043546 
L 141.871938 214.043546 
L 141.885829 211.748939 
L 142.037896 211.748939 
L 142.037896 211.175287 
L 144.653267 211.175287 
L 144.653267 210.601635 
L 218.237054 210.601635 
L 218.344576 184.787308 
L 218.357732 184.787308 
L 218.446792 163.562195 
L 218.476721 163.562195 
L 218.476721 162.988543 
L 230.325217 162.988543 
L 230.422691 132.585002 
L 230.437759 132.585002 
L 230.43949 131.437698 
L 237.390021 131.437698 
L 237.454393 108.49163 
L 242.406844 108.49163 
L 242.453017 88.413819 
L 246.299685 88.413819 
L 246.333464 70.056964 
L 249.479753 70.056964 
L 249.505353 57.436627 
L 252.1672 57.436627 
L 252.186361 44.816289 
L 254.494005 44.816289 
L 254.512429 37.932468 
L 256.545427 37.932468 
L 256.561962 33.343255 
L 258.382496 33.343255 
L 258.399399 25.31213 
L 260.043136 25.31213 
L 260.058995 18.42831 
L 261.56119 18.42831 
L 261.575103 14.9864 
L 262.960594 14.9864 
L 262.964991 11.544489 
L 264.259757 11.544489 
L 264.259757 10.970838 
L 266.577079 10.970838 
L 266.577079 10.397186 
L 267.6374 10.397186 
L 267.642322 8.676231 
L 269.582101 8.676231 
L 269.582101 8.102579 
L 271.323328 8.102579 
L 271.323328 7.528927 
L 272.131457 7.528927 
L 272.134421 6.381624 
L 338.688 6.381624 
L 338.688 6.381624 
" style="fill:none;stroke:#ff00ff;stroke-linecap:square;stroke-width:1.5;"/>
   </g>
   <g id="line2d_36">
    <defs>
     <path d="M -0 8.485281 
L 5.091169 0 
L 0 -8.485281 
L -5.091169 -0 
z
" id="m51546c9a6f" style="stroke:#ff00ff;stroke-linejoin:miter;stroke-width:1.5;"/>
    </defs>
    <g>
     <use style="fill-opacity:0;stroke:#ff00ff;stroke-linejoin:miter;stroke-width:1.5;" x="130.558552" xlink:href="#m51546c9a6f" y="245.020738"/>
     <use style="fill-opacity:0;stroke:#ff00ff;stroke-linejoin:miter;stroke-width:1.5;" x="144.653267" xlink:href="#m51546c9a6f" y="210.601635"/>
     <use style="fill-opacity:0;stroke:#ff00ff;stroke-linejoin:miter;stroke-width:1.5;" x="249.505353" xlink:href="#m51546c9a6f" y="58.010278"/>
     <use style="fill-opacity:0;stroke:#ff00ff;stroke-linejoin:miter;stroke-width:1.5;" x="272.134421" xlink:href="#m51546c9a6f" y="6.381624"/>
     <use style="fill-opacity:0;stroke:#ff00ff;stroke-linejoin:miter;stroke-width:1.5;" x="272.134421" xlink:href="#m51546c9a6f" y="6.381624"/>
     <use style="fill-opacity:0;stroke:#ff00ff;stroke-linejoin:miter;stroke-width:1.5;" x="338.688" xlink:href="#m51546c9a6f" y="6.381624"/>
    </g>
   </g>
   <g id="line2d_37">
    <path style="fill:none;stroke:#ff00ff;stroke-linecap:square;stroke-width:1.5;"/>
    <g/>
   </g>
   <g id="line2d_38">
    <path clip-path="url(#p8ed6f040e9)" d="M 218.221889 210.601635 
" style="fill:none;stroke:#ff00ff;stroke-linecap:square;stroke-width:1.5;"/>
    <defs>
     <path d="M -12 12 
L 12 -12 
M -12 -12 
L 12 12 
" id="mf140cda02d" style="stroke:#ff00ff;"/>
    </defs>
    <g clip-path="url(#p8ed6f040e9)">
     <use style="fill:#ff00ff;stroke:#ff00ff;" x="218.221889" xlink:href="#mf140cda02d" y="210.601635"/>
    </g>
   </g>
   <g id="line2d_39">
    <defs>
     <path d="M 0 1.5 
C 0.397805 1.5 0.77937 1.341951 1.06066 1.06066 
C 1.341951 0.77937 1.5 0.397805 1.5 0 
C 1.5 -0.397805 1.341951 -0.77937 1.06066 -1.06066 
C 0.77937 -1.341951 0.397805 -1.5 0 -1.5 
C -0.397805 -1.5 -0.77937 -1.341951 -1.06066 -1.06066 
C -1.341951 -0.77937 -1.5 -0.397805 -1.5 0 
C -1.5 0.397805 -1.341951 0.77937 -1.06066 1.06066 
C -0.77937 1.341951 -0.397805 1.5 0 1.5 
z
" id="m0301202abd" style="stroke:#ff7500;"/>
    </defs>
    <g>
     <use style="fill:#ff7500;stroke:#ff7500;" x="282.999264" xlink:href="#m0301202abd" y="6.381624"/>
     <use style="fill:#ff7500;stroke:#ff7500;" x="282.999264" xlink:href="#m0301202abd" y="6.381624"/>
    </g>
   </g>
   <g id="line2d_40">
    <path d="M 17.444571 298.944 
L 17.444571 293.207483 
L 51.379845 293.207483 
L 51.379845 292.633831 
L 83.830028 292.633831 
L 83.830028 292.060179 
L 91.029752 292.060179 
L 91.029752 291.486528 
L 92.026554 291.486528 
L 92.026554 290.912876 
L 93.422441 290.912876 
L 93.422441 290.339224 
L 95.723163 290.339224 
L 95.723163 289.765573 
L 96.110718 289.765573 
L 96.110718 288.044617 
L 97.403108 288.044617 
L 97.403108 287.470966 
L 101.223245 287.470966 
L 101.223245 286.323662 
L 101.646892 286.323662 
L 101.646892 285.75001 
L 102.464508 285.75001 
L 102.464508 285.176359 
L 102.728744 285.176359 
L 102.728744 284.602707 
L 103.372333 284.602707 
L 103.372333 284.029055 
L 103.498249 284.029055 
L 103.498249 282.881752 
L 104.114542 282.881752 
L 104.114542 282.3081 
L 105.171792 282.3081 
L 105.171792 281.734448 
L 106.48859 281.734448 
L 106.593963 280.587145 
L 107.213174 280.587145 
L 107.213174 280.013493 
L 108.006005 280.013493 
L 108.006005 279.439842 
L 108.198707 279.439842 
L 108.198707 278.86619 
L 108.483824 278.86619 
L 108.483824 278.292538 
L 108.856871 278.292538 
L 108.856871 277.145235 
L 109.401893 277.145235 
L 109.401893 276.571583 
L 110.103064 276.571583 
L 110.103064 275.997931 
L 110.443353 275.997931 
L 110.443353 274.850628 
L 111.266113 274.850628 
L 111.266113 274.276976 
L 111.974805 274.276976 
L 111.974805 273.703324 
L 112.128456 273.703324 
L 112.128456 273.129673 
L 113.239614 273.129673 
L 113.239614 272.556021 
L 113.664983 272.556021 
L 113.664983 271.982369 
L 114.418861 271.982369 
L 114.485807 270.835066 
L 114.685115 270.835066 
L 114.685115 270.261414 
L 115.648856 270.261414 
L 115.648856 269.687762 
L 116.262979 269.687762 
L 116.262979 269.114111 
L 116.914437 269.114111 
L 116.914437 268.540459 
L 117.087964 268.540459 
L 117.087964 267.966807 
L 117.373392 267.966807 
L 117.373392 267.393156 
L 117.820578 267.393156 
L 117.820578 266.819504 
L 118.148599 266.819504 
L 118.148599 265.6722 
L 120.712642 265.6722 
L 120.712642 265.098549 
L 121.174025 265.098549 
L 121.174025 264.524897 
L 122.657258 264.524897 
L 122.657258 263.951245 
L 122.906394 263.951245 
L 122.906394 263.377593 
L 124.817858 263.377593 
L 124.817858 262.803942 
L 125.506102 262.803942 
L 125.506102 262.23029 
L 126.099688 262.23029 
L 126.099688 261.656638 
L 126.405947 261.656638 
L 126.405947 261.082987 
L 126.740043 261.082987 
L 126.740043 260.509335 
L 126.937471 260.509335 
L 126.937471 259.935683 
L 128.531065 259.935683 
L 128.531065 258.78838 
L 130.822389 258.78838 
L 130.822389 258.214728 
L 133.352844 258.214728 
L 133.352844 257.641076 
L 133.46572 257.641076 
L 133.46572 257.067425 
L 136.924311 257.067425 
L 136.924311 256.493773 
L 137.61184 256.493773 
L 137.61184 255.920121 
L 138.01518 255.920121 
L 138.01518 255.346469 
L 138.324456 255.346469 
L 138.324456 254.772818 
L 143.47714 254.772818 
L 143.47714 254.199166 
L 144.958609 254.199166 
L 144.958609 253.625514 
L 147.449528 253.625514 
L 147.449528 253.051863 
L 148.17112 253.051863 
L 148.17112 252.478211 
L 149.735275 252.478211 
L 149.735275 251.904559 
L 149.955193 251.904559 
L 149.955193 251.330907 
L 150.556607 251.330907 
L 150.556607 250.757256 
L 152.39064 250.757256 
L 152.39064 250.183604 
L 152.944315 250.183604 
L 152.944315 249.609952 
L 153.516621 249.609952 
L 153.516621 249.036301 
L 153.932113 249.036301 
L 153.932113 248.462649 
L 154.235652 248.462649 
L 154.235652 247.888997 
L 154.56087 247.888997 
L 154.5944 246.741694 
L 155.258271 246.741694 
L 155.34833 245.020738 
L 156.114049 245.020738 
L 156.114049 244.447087 
L 156.333721 244.447087 
L 156.430472 243.299783 
L 156.568618 243.299783 
L 156.670026 242.15248 
L 156.888722 242.15248 
L 156.964915 241.005176 
L 157.034952 241.005176 
L 157.034952 240.431525 
L 157.249147 240.431525 
L 157.249147 239.857873 
L 157.94839 239.857873 
L 158.003578 238.136918 
L 158.069574 238.136918 
L 158.096998 236.989614 
L 158.379686 236.989614 
L 158.449648 235.842311 
L 158.811096 235.842311 
L 158.811096 235.268659 
L 159.009867 235.268659 
L 159.009867 234.695008 
L 159.278248 234.695008 
L 159.278248 234.121356 
L 159.872369 234.121356 
L 159.872369 233.547704 
L 160.297798 233.547704 
L 160.297798 232.974052 
L 161.02168 232.974052 
L 161.02168 232.400401 
L 161.164758 232.400401 
L 161.27016 230.679446 
L 161.429341 230.679446 
L 161.429341 230.105794 
L 161.814408 230.105794 
L 161.920369 228.95849 
L 162.043181 228.95849 
L 162.043181 228.384839 
L 218.237751 228.384839 
L 218.341805 217.485456 
L 218.355655 217.485456 
L 218.460215 213.469894 
L 218.481189 213.469894 
L 218.533172 210.601635 
L 218.623218 210.601635 
L 218.732118 201.99686 
L 218.736352 201.99686 
L 218.840343 195.113039 
L 218.863387 195.113039 
L 218.905192 189.950174 
L 230.337932 189.950174 
L 230.44425 178.477139 
L 230.466213 178.477139 
L 230.572184 166.430453 
L 230.589612 166.430453 
L 230.652054 157.825677 
L 237.402566 157.825677 
L 237.485277 151.515508 
L 237.526428 151.515508 
L 237.611653 141.189778 
L 242.411071 141.189778 
L 242.511979 130.864047 
L 242.526137 130.864047 
L 242.568714 122.259271 
L 246.312542 122.259271 
L 246.423165 108.49163 
L 246.424376 108.49163 
L 246.428148 103.902416 
L 249.49189 103.902416 
L 249.58297 88.987471 
L 252.16837 88.987471 
L 252.255614 70.056964 
L 254.50311 70.056964 
L 254.57203 61.452189 
L 256.547132 61.452189 
L 256.61236 53.994716 
L 258.386331 53.994716 
L 258.446761 45.963592 
L 260.050014 45.963592 
L 260.1026 41.374379 
L 261.569629 41.374379 
L 261.614372 36.211513 
L 262.975016 36.211513 
L 262.99233 34.490558 
L 264.266663 34.490558 
L 264.292633 31.622299 
L 265.454347 31.622299 
L 265.48767 28.754041 
L 266.60329 28.754041 
L 266.616984 27.033086 
L 267.645202 27.033086 
L 267.665987 25.31213 
L 268.653201 25.31213 
L 268.659324 23.017524 
L 269.579808 23.017524 
L 269.596322 21.296568 
L 270.485297 21.296568 
L 270.498557 20.149265 
L 271.342435 20.149265 
L 271.34842 19.001962 
L 272.135562 19.001962 
L 272.148868 17.854658 
L 272.923023 17.854658 
L 272.932926 15.560051 
L 273.654539 15.560051 
L 273.669587 14.412748 
L 274.362293 14.412748 
L 274.377823 12.118141 
L 275.707799 12.118141 
L 275.72355 9.823534 
L 276.353774 9.823534 
L 276.35401 8.676231 
L 280.231238 8.676231 
L 280.231238 8.102579 
L 281.198334 8.102579 
L 281.198334 7.528927 
L 281.675335 7.528927 
L 281.675335 6.955275 
L 282.999264 6.955275 
L 282.999264 6.381624 
L 338.688 6.381624 
L 338.688 6.381624 
" style="fill:none;stroke:#ff7500;stroke-linecap:square;stroke-width:1.5;"/>
   </g>
   <g id="line2d_41">
    <defs>
     <path d="M 0 -6 
L -1.347084 -1.854102 
L -5.706339 -1.854102 
L -2.179628 0.708204 
L -3.526712 4.854102 
L -0 2.291796 
L 3.526712 4.854102 
L 2.179628 0.708204 
L 5.706339 -1.854102 
L 1.347084 -1.854102 
z
" id="m84232c0d09" style="stroke:#ff7500;stroke-linejoin:bevel;stroke-width:1.5;"/>
    </defs>
    <g>
     <use style="fill-opacity:0;stroke:#ff7500;stroke-linejoin:bevel;stroke-width:1.5;" x="110.443353" xlink:href="#m84232c0d09" y="274.850628"/>
     <use style="fill-opacity:0;stroke:#ff7500;stroke-linejoin:bevel;stroke-width:1.5;" x="162.043181" xlink:href="#m84232c0d09" y="228.95849"/>
     <use style="fill-opacity:0;stroke:#ff7500;stroke-linejoin:bevel;stroke-width:1.5;" x="246.343202" xlink:href="#m84232c0d09" y="119.964664"/>
     <use style="fill-opacity:0;stroke:#ff7500;stroke-linejoin:bevel;stroke-width:1.5;" x="282.999264" xlink:href="#m84232c0d09" y="6.955275"/>
     <use style="fill-opacity:0;stroke:#ff7500;stroke-linejoin:bevel;stroke-width:1.5;" x="282.999264" xlink:href="#m84232c0d09" y="6.381624"/>
     <use style="fill-opacity:0;stroke:#ff7500;stroke-linejoin:bevel;stroke-width:1.5;" x="338.688" xlink:href="#m84232c0d09" y="6.381624"/>
    </g>
   </g>
   <g id="line2d_42">
    <path style="fill:none;stroke:#ff7500;stroke-linecap:square;stroke-width:1.5;"/>
    <g/>
   </g>
   <g id="line2d_43">
    <path clip-path="url(#p8ed6f040e9)" d="M 218.221889 228.384839 
" style="fill:none;stroke:#ff7500;stroke-linecap:square;stroke-width:1.5;"/>
    <defs>
     <path d="M -12 12 
L 12 -12 
M -12 -12 
L 12 12 
" id="m9e11a3ebcf" style="stroke:#ff7500;"/>
    </defs>
    <g clip-path="url(#p8ed6f040e9)">
     <use style="fill:#ff7500;stroke:#ff7500;" x="218.221889" xlink:href="#m9e11a3ebcf" y="228.384839"/>
    </g>
   </g>
   <g id="line2d_44">
    <defs>
     <path d="M 0 1.5 
C 0.397805 1.5 0.77937 1.341951 1.06066 1.06066 
C 1.341951 0.77937 1.5 0.397805 1.5 0 
C 1.5 -0.397805 1.341951 -0.77937 1.06066 -1.06066 
C 0.77937 -1.341951 0.397805 -1.5 0 -1.5 
C -0.397805 -1.5 -0.77937 -1.341951 -1.06066 -1.06066 
C -1.341951 -0.77937 -1.5 -0.397805 -1.5 0 
C -1.5 0.397805 -1.341951 0.77937 -1.06066 1.06066 
C -0.77937 1.341951 -0.397805 1.5 0 1.5 
z
" id="mcea2c0bf1a" style="stroke:#6495ed;"/>
    </defs>
    <g>
     <use style="fill:#6495ed;stroke:#6495ed;" x="298.360126" xlink:href="#mcea2c0bf1a" y="207.159725"/>
     <use style="fill:#6495ed;stroke:#6495ed;" x="298.360126" xlink:href="#mcea2c0bf1a" y="207.159725"/>
    </g>
   </g>
   <g id="line2d_45">
    <path d="M 17.444571 298.944 
L 17.444571 275.42428 
L 29.53256 275.42428 
L 29.53256 271.408718 
L 36.60358 271.408718 
L 36.60358 268.540459 
L 41.620548 268.540459 
L 41.620548 266.245852 
L 45.512012 266.245852 
L 45.512012 265.6722 
L 48.691568 265.6722 
L 48.691568 263.377593 
L 51.379845 263.377593 
L 51.379845 262.803942 
L 59.262141 262.803942 
L 59.262141 262.23029 
L 64.67102 262.23029 
L 64.67102 261.656638 
L 65.796525 261.656638 
L 65.796525 261.082987 
L 66.853775 261.082987 
L 66.853775 260.509335 
L 67.850577 260.509335 
L 67.850577 259.935683 
L 71.35013 259.935683 
L 71.35013 259.362031 
L 76.16779 259.362031 
L 76.16779 258.78838 
L 82.626842 258.78838 
L 82.626842 258.214728 
L 84.955534 258.214728 
L 84.955534 257.641076 
L 85.66744 257.641076 
L 85.66744 257.067425 
L 89.972502 257.067425 
L 89.972502 256.493773 
L 90.509138 256.493773 
L 90.509138 255.920121 
L 95.125186 255.920121 
L 95.125186 255.346469 
L 96.676366 255.346469 
L 96.676366 254.772818 
L 102.196206 254.772818 
L 102.196206 254.199166 
L 106.698704 254.199166 
L 106.698704 253.625514 
L 113.664983 253.625514 
L 113.664983 253.051863 
L 115.835374 253.051863 
L 115.835374 252.478211 
L 117.316679 252.478211 
L 117.316679 251.904559 
L 125.927192 251.904559 
L 125.927192 251.330907 
L 128.768338 251.330907 
L 128.768338 250.757256 
L 131.108073 250.757256 
L 131.108073 250.183604 
L 131.363785 250.183604 
L 131.363785 249.036301 
L 131.839545 249.036301 
L 131.864229 247.888997 
L 132.70687 247.888997 
L 132.70687 247.315345 
L 133.46572 247.315345 
L 133.555497 246.168042 
L 133.622529 246.168042 
L 133.689303 244.447087 
L 133.975741 244.447087 
L 133.997581 243.299783 
L 134.55603 243.299783 
L 134.55603 242.726132 
L 134.953107 242.726132 
L 135.014985 241.578828 
L 135.199312 241.578828 
L 135.240011 240.431525 
L 135.401861 240.431525 
L 135.50226 239.284221 
L 135.562224 239.284221 
L 135.562224 238.71057 
L 135.681535 238.71057 
L 135.701341 237.563266 
L 135.97629 237.563266 
L 135.97629 236.989614 
L 136.323544 236.989614 
L 136.323544 236.415963 
L 136.86886 236.415963 
L 136.86886 235.842311 
L 137.664982 235.842311 
L 137.664982 235.268659 
L 138.118883 235.268659 
L 138.118883 234.695008 
L 138.811478 234.695008 
L 138.811478 234.121356 
L 139.090775 234.121356 
L 139.188293 232.974052 
L 139.683624 232.974052 
L 139.683624 232.400401 
L 140.134598 232.400401 
L 140.134598 231.826749 
L 140.841591 231.826749 
L 140.841591 230.679446 
L 141.292695 230.679446 
L 141.350061 229.532142 
L 143.092717 229.532142 
L 143.092717 228.95849 
L 145.039911 228.95849 
L 145.039911 228.384839 
L 145.677034 228.384839 
L 145.677034 227.811187 
L 148.23877 227.811187 
L 148.23877 227.237535 
L 169.967148 227.237535 
L 169.967148 226.663884 
L 218.374682 226.663884 
L 218.482392 222.648321 
L 218.504197 222.648321 
L 218.504197 222.07467 
L 230.43923 222.07467 
L 230.43923 221.501018 
L 237.442986 221.501018 
L 237.468165 219.206411 
L 242.443714 219.206411 
L 242.468872 218.059108 
L 246.330437 218.059108 
L 246.376515 216.338153 
L 249.504135 216.338153 
L 249.504135 215.190849 
L 254.512298 215.190849 
L 254.512298 214.617197 
L 256.563413 214.617197 
L 256.568734 213.469894 
L 260.058694 213.469894 
L 260.058694 212.896242 
L 264.260267 212.896242 
L 264.260267 212.322591 
L 268.642469 212.322591 
L 268.642469 211.175287 
L 272.139373 211.175287 
L 272.139373 210.601635 
L 276.954155 210.601635 
L 276.954155 210.027984 
L 278.114985 210.027984 
L 278.114985 209.454332 
L 279.204881 209.454332 
L 279.204881 208.88068 
L 281.664346 208.88068 
L 281.664346 208.307029 
L 285.738318 208.307029 
L 285.738318 207.733377 
L 298.360126 207.733377 
L 298.360126 207.159725 
L 338.688 207.159725 
L 338.688 207.159725 
" style="fill:none;stroke:#6495ed;stroke-linecap:square;stroke-width:1.5;"/>
   </g>
   <g id="line2d_46">
    <defs>
     <path d="M -0 6 
L 6 -6 
L -6 -6 
z
" id="m7cc22ca53c" style="stroke:#6495ed;stroke-linejoin:miter;stroke-width:1.5;"/>
    </defs>
    <g>
     <use style="fill-opacity:0;stroke:#6495ed;stroke-linejoin:miter;stroke-width:1.5;" x="139.188293" xlink:href="#m7cc22ca53c" y="232.974052"/>
     <use style="fill-opacity:0;stroke:#6495ed;stroke-linejoin:miter;stroke-width:1.5;" x="218.504197" xlink:href="#m7cc22ca53c" y="222.648321"/>
     <use style="fill-opacity:0;stroke:#6495ed;stroke-linejoin:miter;stroke-width:1.5;" x="285.738318" xlink:href="#m7cc22ca53c" y="208.307029"/>
     <use style="fill-opacity:0;stroke:#6495ed;stroke-linejoin:miter;stroke-width:1.5;" x="298.360126" xlink:href="#m7cc22ca53c" y="207.159725"/>
     <use style="fill-opacity:0;stroke:#6495ed;stroke-linejoin:miter;stroke-width:1.5;" x="338.688" xlink:href="#m7cc22ca53c" y="207.159725"/>
    </g>
   </g>
   <g id="line2d_47">
    <path style="fill:none;stroke:#6495ed;stroke-linecap:square;stroke-width:1.5;"/>
    <g/>
   </g>
   <g id="line2d_48">
    <path clip-path="url(#p8ed6f040e9)" d="M 218.221889 226.663884 
" style="fill:none;stroke:#6495ed;stroke-linecap:square;stroke-width:1.5;"/>
    <defs>
     <path d="M -12 12 
L 12 -12 
M -12 -12 
L 12 12 
" id="mb97d304eee" style="stroke:#6495ed;"/>
    </defs>
    <g clip-path="url(#p8ed6f040e9)">
     <use style="fill:#6495ed;stroke:#6495ed;" x="218.221889" xlink:href="#mb97d304eee" y="226.663884"/>
    </g>
   </g>
   <g id="line2d_49">
    <defs>
     <path d="M 0 1.5 
C 0.397805 1.5 0.77937 1.341951 1.06066 1.06066 
C 1.341951 0.77937 1.5 0.397805 1.5 0 
C 1.5 -0.397805 1.341951 -0.77937 1.06066 -1.06066 
C 0.77937 -1.341951 0.397805 -1.5 0 -1.5 
C -0.397805 -1.5 -0.77937 -1.341951 -1.06066 -1.06066 
C -1.341951 -0.77937 -1.5 -0.397805 -1.5 0 
C -1.5 0.397805 -1.341951 0.77937 -1.06066 1.06066 
C -0.77937 1.341951 -0.397805 1.5 0 1.5 
z
" id="m2da5be394d" style="stroke:#ff0000;"/>
    </defs>
    <g>
     <use style="fill:#ff0000;stroke:#ff0000;" x="266.592264" xlink:href="#m2da5be394d" y="281.734448"/>
     <use style="fill:#ff0000;stroke:#ff0000;" x="266.592264" xlink:href="#m2da5be394d" y="281.734448"/>
    </g>
   </g>
   <g id="line2d_50">
    <path d="M 81.334453 298.944 
L 81.334453 298.370348 
L 85.315119 298.370348 
L 85.315119 297.796697 
L 86.012784 297.796697 
L 86.012784 297.223045 
L 86.351421 297.223045 
L 86.351421 296.649393 
L 92.026554 296.649393 
L 92.026554 296.075741 
L 94.080605 296.075741 
L 94.080605 295.50209 
L 110.61104 295.50209 
L 110.61104 294.928438 
L 113.311233 294.928438 
L 113.311233 294.354786 
L 119.948058 294.354786 
L 119.948058 293.781135 
L 123.192626 293.781135 
L 123.192626 293.207483 
L 129.770048 293.207483 
L 129.770048 292.633831 
L 131.056477 292.633831 
L 131.056477 292.060179 
L 132.494049 292.060179 
L 132.494049 291.486528 
L 132.541568 291.486528 
L 132.541568 290.912876 
L 133.398082 290.912876 
L 133.398082 290.339224 
L 133.931979 290.339224 
L 133.931979 289.765573 
L 136.342635 289.765573 
L 136.342635 289.191921 
L 137.325651 289.191921 
L 137.325651 288.618269 
L 137.48721 288.618269 
L 137.48721 288.044617 
L 138.307417 288.044617 
L 138.307417 287.470966 
L 138.745106 287.470966 
L 138.745106 286.897314 
L 218.514318 286.897314 
L 218.514318 285.176359 
L 242.440365 285.176359 
L 242.440365 284.029055 
L 242.471434 284.029055 
L 242.471434 283.455404 
L 246.323337 283.455404 
L 246.323337 282.881752 
L 258.39433 282.881752 
L 258.39433 282.3081 
L 266.592264 282.3081 
L 266.592264 281.734448 
L 338.688 281.734448 
" style="fill:none;stroke:#ff0000;stroke-linecap:square;stroke-width:1.5;"/>
   </g>
   <g id="line2d_51">
    <defs>
     <path d="M 0 -6 
L -5.196152 -3 
L -5.196152 3 
L -0 6 
L 5.196152 3 
L 5.196152 -3 
z
" id="m9d75346a84" style="stroke:#ff0000;stroke-linejoin:miter;stroke-width:1.5;"/>
    </defs>
    <g>
     <use style="fill-opacity:0;stroke:#ff0000;stroke-linejoin:miter;stroke-width:1.5;" x="132.541568" xlink:href="#m9d75346a84" y="291.486528"/>
     <use style="fill-opacity:0;stroke:#ff0000;stroke-linejoin:miter;stroke-width:1.5;" x="138.745106" xlink:href="#m9d75346a84" y="286.897314"/>
     <use style="fill-opacity:0;stroke:#ff0000;stroke-linejoin:miter;stroke-width:1.5;" x="258.39433" xlink:href="#m9d75346a84" y="282.881752"/>
     <use style="fill-opacity:0;stroke:#ff0000;stroke-linejoin:miter;stroke-width:1.5;" x="266.592264" xlink:href="#m9d75346a84" y="281.734448"/>
     <use style="fill-opacity:0;stroke:#ff0000;stroke-linejoin:miter;stroke-width:1.5;" x="338.688" xlink:href="#m9d75346a84" y="281.734448"/>
    </g>
   </g>
   <g id="line2d_52">
    <path style="fill:none;stroke:#ff0000;stroke-linecap:square;stroke-width:1.5;"/>
    <g/>
   </g>
   <g id="line2d_53">
    <path clip-path="url(#p8ed6f040e9)" d="M 218.221889 286.897314 
" style="fill:none;stroke:#ff0000;stroke-linecap:square;stroke-width:1.5;"/>
    <defs>
     <path d="M -12 12 
L 12 -12 
M -12 -12 
L 12 12 
" id="mffab28c0b1" style="stroke:#ff0000;"/>
    </defs>
    <g clip-path="url(#p8ed6f040e9)">
     <use style="fill:#ff0000;stroke:#ff0000;" x="218.221889" xlink:href="#mffab28c0b1" y="286.897314"/>
    </g>
   </g>
   <g id="line2d_54">
    <path d="M 338.688 281.734448 
L 369.60768 293.092752 
" style="fill:none;stroke:#ff0000;stroke-linecap:square;stroke-width:1.5;"/>
    <g>
     <use style="fill-opacity:0;stroke:#ff0000;stroke-linejoin:miter;stroke-width:1.5;" x="338.688" xlink:href="#m9d75346a84" y="281.734448"/>
     <use style="fill-opacity:0;stroke:#ff0000;stroke-linejoin:miter;stroke-width:1.5;" x="369.60768" xlink:href="#m9d75346a84" y="293.092752"/>
    </g>
   </g>
   <g id="line2d_55">
    <path d="M 338.688 241.578828 
L 369.60768 222.877782 
" style="fill:none;stroke:#000080;stroke-linecap:square;stroke-width:1.5;"/>
    <g>
     <use style="fill-opacity:0;stroke:#000080;stroke-width:1.5;" x="338.688" xlink:href="#m5ba34cc33b" y="241.578828"/>
     <use style="fill-opacity:0;stroke:#000080;stroke-width:1.5;" x="369.60768" xlink:href="#m5ba34cc33b" y="222.877782"/>
    </g>
   </g>
   <g id="line2d_56">
    <path d="M 338.688 207.159725 
L 369.60768 152.662812 
" style="fill:none;stroke:#6495ed;stroke-linecap:square;stroke-width:1.5;"/>
    <g>
     <use style="fill-opacity:0;stroke:#6495ed;stroke-linejoin:miter;stroke-width:1.5;" x="338.688" xlink:href="#m7cc22ca53c" y="207.159725"/>
     <use style="fill-opacity:0;stroke:#6495ed;stroke-linejoin:miter;stroke-width:1.5;" x="369.60768" xlink:href="#m7cc22ca53c" y="152.662812"/>
    </g>
   </g>
   <g id="line2d_57">
    <path d="M 338.688 6.381624 
L 369.60768 82.447842 
" style="fill:none;stroke:#ff7500;stroke-linecap:square;stroke-width:1.5;"/>
    <g>
     <use style="fill-opacity:0;stroke:#ff7500;stroke-linejoin:bevel;stroke-width:1.5;" x="338.688" xlink:href="#m84232c0d09" y="6.381624"/>
     <use style="fill-opacity:0;stroke:#ff7500;stroke-linejoin:bevel;stroke-width:1.5;" x="369.60768" xlink:href="#m84232c0d09" y="82.447842"/>
    </g>
   </g>
   <g id="line2d_58">
    <path d="M 338.688 6.381624 
L 369.60768 12.232871 
" style="fill:none;stroke:#ff00ff;stroke-linecap:square;stroke-width:1.5;"/>
    <g>
     <use style="fill-opacity:0;stroke:#ff00ff;stroke-linejoin:miter;stroke-width:1.5;" x="338.688" xlink:href="#m51546c9a6f" y="6.381624"/>
     <use style="fill-opacity:0;stroke:#ff00ff;stroke-linejoin:miter;stroke-width:1.5;" x="369.60768" xlink:href="#m51546c9a6f" y="12.232871"/>
    </g>
   </g>
   <g id="line2d_59">
    <path d="M 338.688 298.944 
L 338.688 6.381624 
" style="fill:none;stroke:#000000;stroke-linecap:square;stroke-width:1.5;"/>
   </g>
   <g id="patch_3">
    <path d="M 57.6 298.944 
L 57.6 3.456 
" style="fill:none;stroke:#000000;stroke-linecap:square;stroke-linejoin:miter;stroke-width:0.8;"/>
   </g>
   <g id="patch_4">
    <path d="M 338.688 298.944 
L 338.688 3.456 
" style="fill:none;stroke:#000000;stroke-linecap:square;stroke-linejoin:miter;stroke-width:0.8;"/>
   </g>
   <g id="patch_5">
    <path d="M 57.6 298.944 
L 338.688 298.944 
" style="fill:none;stroke:#000000;stroke-linecap:square;stroke-linejoin:miter;stroke-width:0.8;"/>
   </g>
   <g id="patch_6">
    <path d="M 57.6 3.456 
L 338.688 3.456 
" style="fill:none;stroke:#000000;stroke-linecap:square;stroke-linejoin:miter;stroke-width:0.8;"/>
   </g>
   <g id="text_13">
    <!-- f24 -->
    <g transform="translate(375.22944 297.78369)scale(0.17 -0.17)">
     <use xlink:href="#DejaVuSans-102"/>
     <use x="35.205078" xlink:href="#DejaVuSans-50"/>
     <use x="98.828125" xlink:href="#DejaVuSans-52"/>
    </g>
   </g>
   <g id="text_14">
    <!-- f20 -->
    <g transform="translate(375.22944 227.56872)scale(0.17 -0.17)">
     <use xlink:href="#DejaVuSans-102"/>
     <use x="35.205078" xlink:href="#DejaVuSans-50"/>
     <use x="98.828125" xlink:href="#DejaVuSans-48"/>
    </g>
   </g>
   <g id="text_15">
    <!-- f23 -->
    <g transform="translate(375.22944 157.353749)scale(0.17 -0.17)">
     <defs>
      <path d="M 40.578125 39.3125 
Q 47.65625 37.796875 51.625 33 
Q 55.609375 28.21875 55.609375 21.1875 
Q 55.609375 10.40625 48.1875 4.484375 
Q 40.765625 -1.421875 27.09375 -1.421875 
Q 22.515625 -1.421875 17.65625 -0.515625 
Q 12.796875 0.390625 7.625 2.203125 
L 7.625 11.71875 
Q 11.71875 9.328125 16.59375 8.109375 
Q 21.484375 6.890625 26.8125 6.890625 
Q 36.078125 6.890625 40.9375 10.546875 
Q 45.796875 14.203125 45.796875 21.1875 
Q 45.796875 27.640625 41.28125 31.265625 
Q 36.765625 34.90625 28.71875 34.90625 
L 20.21875 34.90625 
L 20.21875 43.015625 
L 29.109375 43.015625 
Q 36.375 43.015625 40.234375 45.921875 
Q 44.09375 48.828125 44.09375 54.296875 
Q 44.09375 59.90625 40.109375 62.90625 
Q 36.140625 65.921875 28.71875 65.921875 
Q 24.65625 65.921875 20.015625 65.03125 
Q 15.375 64.15625 9.8125 62.3125 
L 9.8125 71.09375 
Q 15.4375 72.65625 20.34375 73.4375 
Q 25.25 74.21875 29.59375 74.21875 
Q 40.828125 74.21875 47.359375 69.109375 
Q 53.90625 64.015625 53.90625 55.328125 
Q 53.90625 49.265625 50.4375 45.09375 
Q 46.96875 40.921875 40.578125 39.3125 
z
" id="DejaVuSans-51"/>
     </defs>
     <use xlink:href="#DejaVuSans-102"/>
     <use x="35.205078" xlink:href="#DejaVuSans-50"/>
     <use x="98.828125" xlink:href="#DejaVuSans-51"/>
    </g>
   </g>
   <g id="text_16">
    <!-- f22 -->
    <g transform="translate(375.22944 87.138779)scale(0.17 -0.17)">
     <use xlink:href="#DejaVuSans-102"/>
     <use x="35.205078" xlink:href="#DejaVuSans-50"/>
     <use x="98.828125" xlink:href="#DejaVuSans-50"/>
    </g>
   </g>
   <g id="text_17">
    <!-- f21 -->
    <g transform="translate(375.22944 16.923809)scale(0.17 -0.17)">
     <use xlink:href="#DejaVuSans-102"/>
     <use x="35.205078" xlink:href="#DejaVuSans-50"/>
     <use x="98.828125" xlink:href="#DejaVuSans-49"/>
    </g>
   </g>
   <g id="text_18">
    <!-- bbob -->
    <g transform="translate(60.41088 14.161286)scale(0.102 -0.102)">
     <defs>
      <path d="M 48.6875 27.296875 
Q 48.6875 37.203125 44.609375 42.84375 
Q 40.53125 48.484375 33.40625 48.484375 
Q 26.265625 48.484375 22.1875 42.84375 
Q 18.109375 37.203125 18.109375 27.296875 
Q 18.109375 17.390625 22.1875 11.75 
Q 26.265625 6.109375 33.40625 6.109375 
Q 40.53125 6.109375 44.609375 11.75 
Q 48.6875 17.390625 48.6875 27.296875 
z
M 18.109375 46.390625 
Q 20.953125 51.265625 25.265625 53.625 
Q 29.59375 56 35.59375 56 
Q 45.5625 56 51.78125 48.09375 
Q 58.015625 40.1875 58.015625 27.296875 
Q 58.015625 14.40625 51.78125 6.484375 
Q 45.5625 -1.421875 35.59375 -1.421875 
Q 29.59375 -1.421875 25.265625 0.953125 
Q 20.953125 3.328125 18.109375 8.203125 
L 18.109375 0 
L 9.078125 0 
L 9.078125 75.984375 
L 18.109375 75.984375 
z
" id="DejaVuSans-98"/>
     </defs>
     <use xlink:href="#DejaVuSans-98"/>
     <use x="63.476562" xlink:href="#DejaVuSans-98"/>
     <use x="126.953125" xlink:href="#DejaVuSans-111"/>
     <use x="188.134766" xlink:href="#DejaVuSans-98"/>
    </g>
    <!-- Weak structure functions, 10-D -->
    <g transform="translate(60.41088 25.583055)scale(0.102 -0.102)">
     <defs>
      <path d="M 3.328125 72.90625 
L 13.28125 72.90625 
L 28.609375 11.28125 
L 43.890625 72.90625 
L 54.984375 72.90625 
L 70.3125 11.28125 
L 85.59375 72.90625 
L 95.609375 72.90625 
L 77.296875 0 
L 64.890625 0 
L 49.515625 63.28125 
L 33.984375 0 
L 21.578125 0 
z
" id="DejaVuSans-87"/>
      <path d="M 9.078125 75.984375 
L 18.109375 75.984375 
L 18.109375 31.109375 
L 44.921875 54.6875 
L 56.390625 54.6875 
L 27.390625 29.109375 
L 57.625 0 
L 45.90625 0 
L 18.109375 26.703125 
L 18.109375 0 
L 9.078125 0 
z
" id="DejaVuSans-107"/>
      <path d="M 19.671875 64.796875 
L 19.671875 8.109375 
L 31.59375 8.109375 
Q 46.6875 8.109375 53.6875 14.9375 
Q 60.6875 21.78125 60.6875 36.53125 
Q 60.6875 51.171875 53.6875 57.984375 
Q 46.6875 64.796875 31.59375 64.796875 
z
M 9.8125 72.90625 
L 30.078125 72.90625 
Q 51.265625 72.90625 61.171875 64.09375 
Q 71.09375 55.28125 71.09375 36.53125 
Q 71.09375 17.671875 61.125 8.828125 
Q 51.171875 0 30.078125 0 
L 9.8125 0 
z
" id="DejaVuSans-68"/>
     </defs>
     <use xlink:href="#DejaVuSans-87"/>
     <use x="93.001953" xlink:href="#DejaVuSans-101"/>
     <use x="154.525391" xlink:href="#DejaVuSans-97"/>
     <use x="215.804688" xlink:href="#DejaVuSans-107"/>
     <use x="273.714844" xlink:href="#DejaVuSans-32"/>
     <use x="305.501953" xlink:href="#DejaVuSans-115"/>
     <use x="357.601562" xlink:href="#DejaVuSans-116"/>
     <use x="396.810547" xlink:href="#DejaVuSans-114"/>
     <use x="437.923828" xlink:href="#DejaVuSans-117"/>
     <use x="501.302734" xlink:href="#DejaVuSans-99"/>
     <use x="556.283203" xlink:href="#DejaVuSans-116"/>
     <use x="595.492188" xlink:href="#DejaVuSans-117"/>
     <use x="658.871094" xlink:href="#DejaVuSans-114"/>
     <use x="697.734375" xlink:href="#DejaVuSans-101"/>
     <use x="759.257812" xlink:href="#DejaVuSans-32"/>
     <use x="791.044922" xlink:href="#DejaVuSans-102"/>
     <use x="826.25" xlink:href="#DejaVuSans-117"/>
     <use x="889.628906" xlink:href="#DejaVuSans-110"/>
     <use x="953.007812" xlink:href="#DejaVuSans-99"/>
     <use x="1007.988281" xlink:href="#DejaVuSans-116"/>
     <use x="1047.197266" xlink:href="#DejaVuSans-105"/>
     <use x="1074.980469" xlink:href="#DejaVuSans-111"/>
     <use x="1136.162109" xlink:href="#DejaVuSans-110"/>
     <use x="1199.541016" xlink:href="#DejaVuSans-115"/>
     <use x="1251.640625" xlink:href="#DejaVuSans-44"/>
     <use x="1283.427734" xlink:href="#DejaVuSans-32"/>
     <use x="1315.214844" xlink:href="#DejaVuSans-49"/>
     <use x="1378.837891" xlink:href="#DejaVuSans-48"/>
     <use x="1442.460938" xlink:href="#DejaVuSans-45"/>
     <use x="1478.544922" xlink:href="#DejaVuSans-68"/>
    </g>
    <!-- 51 targets: 100..1e-08 -->
    <g transform="translate(60.41088 37.004824)scale(0.102 -0.102)">
     <defs>
      <path d="M 10.796875 72.90625 
L 49.515625 72.90625 
L 49.515625 64.59375 
L 19.828125 64.59375 
L 19.828125 46.734375 
Q 21.96875 47.46875 24.109375 47.828125 
Q 26.265625 48.1875 28.421875 48.1875 
Q 40.625 48.1875 47.75 41.5 
Q 54.890625 34.8125 54.890625 23.390625 
Q 54.890625 11.625 47.5625 5.09375 
Q 40.234375 -1.421875 26.90625 -1.421875 
Q 22.3125 -1.421875 17.546875 -0.640625 
Q 12.796875 0.140625 7.71875 1.703125 
L 7.71875 11.625 
Q 12.109375 9.234375 16.796875 8.0625 
Q 21.484375 6.890625 26.703125 6.890625 
Q 35.15625 6.890625 40.078125 11.328125 
Q 45.015625 15.765625 45.015625 23.390625 
Q 45.015625 31 40.078125 35.4375 
Q 35.15625 39.890625 26.703125 39.890625 
Q 22.75 39.890625 18.8125 39.015625 
Q 14.890625 38.140625 10.796875 36.28125 
z
" id="DejaVuSans-53"/>
      <path d="M 11.71875 12.40625 
L 22.015625 12.40625 
L 22.015625 0 
L 11.71875 0 
z
M 11.71875 51.703125 
L 22.015625 51.703125 
L 22.015625 39.3125 
L 11.71875 39.3125 
z
" id="DejaVuSans-58"/>
     </defs>
     <use xlink:href="#DejaVuSans-53"/>
     <use x="63.623047" xlink:href="#DejaVuSans-49"/>
     <use x="127.246094" xlink:href="#DejaVuSans-32"/>
     <use x="159.033203" xlink:href="#DejaVuSans-116"/>
     <use x="198.242188" xlink:href="#DejaVuSans-97"/>
     <use x="259.521484" xlink:href="#DejaVuSans-114"/>
     <use x="298.884766" xlink:href="#DejaVuSans-103"/>
     <use x="362.361328" xlink:href="#DejaVuSans-101"/>
     <use x="423.884766" xlink:href="#DejaVuSans-116"/>
     <use x="463.09375" xlink:href="#DejaVuSans-115"/>
     <use x="515.193359" xlink:href="#DejaVuSans-58"/>
     <use x="548.884766" xlink:href="#DejaVuSans-32"/>
     <use x="580.671875" xlink:href="#DejaVuSans-49"/>
     <use x="644.294922" xlink:href="#DejaVuSans-48"/>
     <use x="707.917969" xlink:href="#DejaVuSans-48"/>
     <use x="771.541016" xlink:href="#DejaVuSans-46"/>
     <use x="803.328125" xlink:href="#DejaVuSans-46"/>
     <use x="835.115234" xlink:href="#DejaVuSans-49"/>
     <use x="898.738281" xlink:href="#DejaVuSans-101"/>
     <use x="960.261719" xlink:href="#DejaVuSans-45"/>
     <use x="996.345703" xlink:href="#DejaVuSans-48"/>
     <use x="1059.96875" xlink:href="#DejaVuSans-56"/>
    </g>
    <!-- 15 instances -->
    <g transform="translate(60.41088 48.426593)scale(0.102 -0.102)">
     <use xlink:href="#DejaVuSans-49"/>
     <use x="63.623047" xlink:href="#DejaVuSans-53"/>
     <use x="127.246094" xlink:href="#DejaVuSans-32"/>
     <use x="159.033203" xlink:href="#DejaVuSans-105"/>
     <use x="186.816406" xlink:href="#DejaVuSans-110"/>
     <use x="250.195312" xlink:href="#DejaVuSans-115"/>
     <use x="302.294922" xlink:href="#DejaVuSans-116"/>
     <use x="341.503906" xlink:href="#DejaVuSans-97"/>
     <use x="402.783203" xlink:href="#DejaVuSans-110"/>
     <use x="466.162109" xlink:href="#DejaVuSans-99"/>
     <use x="521.142578" xlink:href="#DejaVuSans-101"/>
     <use x="582.666016" xlink:href="#DejaVuSans-115"/>
    </g>
   </g>
   <g id="text_19">
    <!-- v2.4 -->
    <g style="fill:#808080;" transform="translate(187.233062 293.909432)scale(0.1 -0.1)">
     <use xlink:href="#DejaVuSans-118"/>
     <use x="59.179688" xlink:href="#DejaVuSans-50"/>
     <use x="122.802734" xlink:href="#DejaVuSans-46"/>
     <use x="154.589844" xlink:href="#DejaVuSans-52"/>
    </g>
   </g>
  </g>
 </g>
 <defs>
  <clipPath id="p8ed6f040e9">
   <rect height="295.488" width="281.088" x="57.6" y="3.456"/>
  </clipPath>
 </defs>
</svg>
