<?xml version="1.0" encoding="utf-8" standalone="no"?>
<!DOCTYPE svg PUBLIC "-//W3C//DTD SVG 1.1//EN"
  "http://www.w3.org/Graphics/SVG/1.1/DTD/svg11.dtd">
<!-- Created with matplotlib (https://matplotlib.org/) -->
<svg height="345.6pt" version="1.1" viewBox="0 0 460.8 345.6" width="460.8pt" xmlns="http://www.w3.org/2000/svg" xmlns:xlink="http://www.w3.org/1999/xlink">
 <metadata>
  <rdf:RDF xmlns:cc="http://creativecommons.org/ns#" xmlns:dc="http://purl.org/dc/elements/1.1/" xmlns:rdf="http://www.w3.org/1999/02/22-rdf-syntax-ns#">
   <cc:Work>
    <dc:type rdf:resource="http://purl.org/dc/dcmitype/StillImage"/>
    <dc:date>2021-06-17T01:37:25.442900</dc:date>
    <dc:format>image/svg+xml</dc:format>
    <dc:creator>
     <cc:Agent>
      <dc:title>Matplotlib v3.3.4, https://matplotlib.org/</dc:title>
     </cc:Agent>
    </dc:creator>
   </cc:Work>
  </rdf:RDF>
 </metadata>
 <defs>
  <style type="text/css">*{stroke-linecap:butt;stroke-linejoin:round;}</style>
 </defs>
 <g id="figure_1">
  <g id="patch_1">
   <path d="M 0 345.6 
L 460.8 345.6 
L 460.8 0 
L 0 0 
z
" style="fill:#ffffff;"/>
  </g>
  <g id="axes_1">
   <g id="patch_2">
    <path d="M 57.6 298.944 
L 338.688 298.944 
L 338.688 3.456 
L 57.6 3.456 
z
" style="fill:#ffffff;"/>
   </g>
   <g id="matplotlib.axis_1">
    <g id="xtick_1">
     <g id="line2d_1">
      <path clip-path="url(#p2e5123514f)" d="M 57.6 298.944 
L 57.6 3.456 
" style="fill:none;stroke:#b0b0b0;stroke-linecap:square;stroke-width:0.8;"/>
     </g>
     <g id="line2d_2">
      <defs>
       <path d="M 0 0 
L 0 3.5 
" id="m96571b9849" style="stroke:#000000;stroke-width:0.8;"/>
      </defs>
      <g>
       <use style="stroke:#000000;stroke-width:0.8;" x="57.6" xlink:href="#m96571b9849" y="298.944"/>
      </g>
     </g>
     <g id="text_1">
      <!-- 0 -->
      <g transform="translate(51.2375 321.140875)scale(0.2 -0.2)">
       <defs>
        <path d="M 31.78125 66.40625 
Q 24.171875 66.40625 20.328125 58.90625 
Q 16.5 51.421875 16.5 36.375 
Q 16.5 21.390625 20.328125 13.890625 
Q 24.171875 6.390625 31.78125 6.390625 
Q 39.453125 6.390625 43.28125 13.890625 
Q 47.125 21.390625 47.125 36.375 
Q 47.125 51.421875 43.28125 58.90625 
Q 39.453125 66.40625 31.78125 66.40625 
z
M 31.78125 74.21875 
Q 44.046875 74.21875 50.515625 64.515625 
Q 56.984375 54.828125 56.984375 36.375 
Q 56.984375 17.96875 50.515625 8.265625 
Q 44.046875 -1.421875 31.78125 -1.421875 
Q 19.53125 -1.421875 13.0625 8.265625 
Q 6.59375 17.96875 6.59375 36.375 
Q 6.59375 54.828125 13.0625 64.515625 
Q 19.53125 74.21875 31.78125 74.21875 
z
" id="DejaVuSans-48"/>
       </defs>
       <use xlink:href="#DejaVuSans-48"/>
      </g>
     </g>
    </g>
    <g id="xtick_2">
     <g id="line2d_3">
      <path clip-path="url(#p2e5123514f)" d="M 137.910857 298.944 
L 137.910857 3.456 
" style="fill:none;stroke:#b0b0b0;stroke-linecap:square;stroke-width:0.8;"/>
     </g>
     <g id="line2d_4">
      <g>
       <use style="stroke:#000000;stroke-width:0.8;" x="137.910857" xlink:href="#m96571b9849" y="298.944"/>
      </g>
     </g>
     <g id="text_2">
      <!-- 2 -->
      <g transform="translate(131.548357 321.140875)scale(0.2 -0.2)">
       <defs>
        <path d="M 19.1875 8.296875 
L 53.609375 8.296875 
L 53.609375 0 
L 7.328125 0 
L 7.328125 8.296875 
Q 12.9375 14.109375 22.625 23.890625 
Q 32.328125 33.6875 34.8125 36.53125 
Q 39.546875 41.84375 41.421875 45.53125 
Q 43.3125 49.21875 43.3125 52.78125 
Q 43.3125 58.59375 39.234375 62.25 
Q 35.15625 65.921875 28.609375 65.921875 
Q 23.96875 65.921875 18.8125 64.3125 
Q 13.671875 62.703125 7.8125 59.421875 
L 7.8125 69.390625 
Q 13.765625 71.78125 18.9375 73 
Q 24.125 74.21875 28.421875 74.21875 
Q 39.75 74.21875 46.484375 68.546875 
Q 53.21875 62.890625 53.21875 53.421875 
Q 53.21875 48.921875 51.53125 44.890625 
Q 49.859375 40.875 45.40625 35.40625 
Q 44.1875 33.984375 37.640625 27.21875 
Q 31.109375 20.453125 19.1875 8.296875 
z
" id="DejaVuSans-50"/>
       </defs>
       <use xlink:href="#DejaVuSans-50"/>
      </g>
     </g>
    </g>
    <g id="xtick_3">
     <g id="line2d_5">
      <path clip-path="url(#p2e5123514f)" d="M 218.221714 298.944 
L 218.221714 3.456 
" style="fill:none;stroke:#b0b0b0;stroke-linecap:square;stroke-width:0.8;"/>
     </g>
     <g id="line2d_6">
      <g>
       <use style="stroke:#000000;stroke-width:0.8;" x="218.221714" xlink:href="#m96571b9849" y="298.944"/>
      </g>
     </g>
     <g id="text_3">
      <!-- 4 -->
      <g transform="translate(211.859214 321.140875)scale(0.2 -0.2)">
       <defs>
        <path d="M 37.796875 64.3125 
L 12.890625 25.390625 
L 37.796875 25.390625 
z
M 35.203125 72.90625 
L 47.609375 72.90625 
L 47.609375 25.390625 
L 58.015625 25.390625 
L 58.015625 17.1875 
L 47.609375 17.1875 
L 47.609375 0 
L 37.796875 0 
L 37.796875 17.1875 
L 4.890625 17.1875 
L 4.890625 26.703125 
z
" id="DejaVuSans-52"/>
       </defs>
       <use xlink:href="#DejaVuSans-52"/>
      </g>
     </g>
    </g>
    <g id="xtick_4">
     <g id="line2d_7">
      <path clip-path="url(#p2e5123514f)" d="M 298.532571 298.944 
L 298.532571 3.456 
" style="fill:none;stroke:#b0b0b0;stroke-linecap:square;stroke-width:0.8;"/>
     </g>
     <g id="line2d_8">
      <g>
       <use style="stroke:#000000;stroke-width:0.8;" x="298.532571" xlink:href="#m96571b9849" y="298.944"/>
      </g>
     </g>
     <g id="text_4">
      <!-- 6 -->
      <g transform="translate(292.170071 321.140875)scale(0.2 -0.2)">
       <defs>
        <path d="M 33.015625 40.375 
Q 26.375 40.375 22.484375 35.828125 
Q 18.609375 31.296875 18.609375 23.390625 
Q 18.609375 15.53125 22.484375 10.953125 
Q 26.375 6.390625 33.015625 6.390625 
Q 39.65625 6.390625 43.53125 10.953125 
Q 47.40625 15.53125 47.40625 23.390625 
Q 47.40625 31.296875 43.53125 35.828125 
Q 39.65625 40.375 33.015625 40.375 
z
M 52.59375 71.296875 
L 52.59375 62.3125 
Q 48.875 64.0625 45.09375 64.984375 
Q 41.3125 65.921875 37.59375 65.921875 
Q 27.828125 65.921875 22.671875 59.328125 
Q 17.53125 52.734375 16.796875 39.40625 
Q 19.671875 43.65625 24.015625 45.921875 
Q 28.375 48.1875 33.59375 48.1875 
Q 44.578125 48.1875 50.953125 41.515625 
Q 57.328125 34.859375 57.328125 23.390625 
Q 57.328125 12.15625 50.6875 5.359375 
Q 44.046875 -1.421875 33.015625 -1.421875 
Q 20.359375 -1.421875 13.671875 8.265625 
Q 6.984375 17.96875 6.984375 36.375 
Q 6.984375 53.65625 15.1875 63.9375 
Q 23.390625 74.21875 37.203125 74.21875 
Q 40.921875 74.21875 44.703125 73.484375 
Q 48.484375 72.75 52.59375 71.296875 
z
" id="DejaVuSans-54"/>
       </defs>
       <use xlink:href="#DejaVuSans-54"/>
      </g>
     </g>
    </g>
    <g id="xtick_5">
     <g id="line2d_9">
      <path clip-path="url(#p2e5123514f)" d="M 97.755429 298.944 
L 97.755429 3.456 
" style="fill:none;stroke:#b0b0b0;stroke-linecap:square;stroke-width:0.8;"/>
     </g>
     <g id="line2d_10">
      <defs>
       <path d="M 0 0 
L 0 2 
" id="m6321f18cd4" style="stroke:#000000;stroke-width:0.6;"/>
      </defs>
      <g>
       <use style="stroke:#000000;stroke-width:0.6;" x="97.755429" xlink:href="#m6321f18cd4" y="298.944"/>
      </g>
     </g>
    </g>
    <g id="xtick_6">
     <g id="line2d_11">
      <path clip-path="url(#p2e5123514f)" d="M 178.066286 298.944 
L 178.066286 3.456 
" style="fill:none;stroke:#b0b0b0;stroke-linecap:square;stroke-width:0.8;"/>
     </g>
     <g id="line2d_12">
      <g>
       <use style="stroke:#000000;stroke-width:0.6;" x="178.066286" xlink:href="#m6321f18cd4" y="298.944"/>
      </g>
     </g>
    </g>
    <g id="xtick_7">
     <g id="line2d_13">
      <path clip-path="url(#p2e5123514f)" d="M 258.377143 298.944 
L 258.377143 3.456 
" style="fill:none;stroke:#b0b0b0;stroke-linecap:square;stroke-width:0.8;"/>
     </g>
     <g id="line2d_14">
      <g>
       <use style="stroke:#000000;stroke-width:0.6;" x="258.377143" xlink:href="#m6321f18cd4" y="298.944"/>
      </g>
     </g>
    </g>
    <g id="xtick_8">
     <g id="line2d_15">
      <path clip-path="url(#p2e5123514f)" d="M 338.688 298.944 
L 338.688 3.456 
" style="fill:none;stroke:#b0b0b0;stroke-linecap:square;stroke-width:0.8;"/>
     </g>
     <g id="line2d_16">
      <g>
       <use style="stroke:#000000;stroke-width:0.6;" x="338.688" xlink:href="#m6321f18cd4" y="298.944"/>
      </g>
     </g>
    </g>
    <g id="text_5">
     <!-- log10(# f-evals / dimension) -->
     <g transform="translate(77.764078 342.217594)scale(0.17 -0.17)">
      <defs>
       <path d="M 9.421875 75.984375 
L 18.40625 75.984375 
L 18.40625 0 
L 9.421875 0 
z
" id="DejaVuSans-108"/>
       <path d="M 30.609375 48.390625 
Q 23.390625 48.390625 19.1875 42.75 
Q 14.984375 37.109375 14.984375 27.296875 
Q 14.984375 17.484375 19.15625 11.84375 
Q 23.34375 6.203125 30.609375 6.203125 
Q 37.796875 6.203125 41.984375 11.859375 
Q 46.1875 17.53125 46.1875 27.296875 
Q 46.1875 37.015625 41.984375 42.703125 
Q 37.796875 48.390625 30.609375 48.390625 
z
M 30.609375 56 
Q 42.328125 56 49.015625 48.375 
Q 55.71875 40.765625 55.71875 27.296875 
Q 55.71875 13.875 49.015625 6.21875 
Q 42.328125 -1.421875 30.609375 -1.421875 
Q 18.84375 -1.421875 12.171875 6.21875 
Q 5.515625 13.875 5.515625 27.296875 
Q 5.515625 40.765625 12.171875 48.375 
Q 18.84375 56 30.609375 56 
z
" id="DejaVuSans-111"/>
       <path d="M 45.40625 27.984375 
Q 45.40625 37.75 41.375 43.109375 
Q 37.359375 48.484375 30.078125 48.484375 
Q 22.859375 48.484375 18.828125 43.109375 
Q 14.796875 37.75 14.796875 27.984375 
Q 14.796875 18.265625 18.828125 12.890625 
Q 22.859375 7.515625 30.078125 7.515625 
Q 37.359375 7.515625 41.375 12.890625 
Q 45.40625 18.265625 45.40625 27.984375 
z
M 54.390625 6.78125 
Q 54.390625 -7.171875 48.1875 -13.984375 
Q 42 -20.796875 29.203125 -20.796875 
Q 24.46875 -20.796875 20.265625 -20.09375 
Q 16.0625 -19.390625 12.109375 -17.921875 
L 12.109375 -9.1875 
Q 16.0625 -11.328125 19.921875 -12.34375 
Q 23.78125 -13.375 27.78125 -13.375 
Q 36.625 -13.375 41.015625 -8.765625 
Q 45.40625 -4.15625 45.40625 5.171875 
L 45.40625 9.625 
Q 42.625 4.78125 38.28125 2.390625 
Q 33.9375 0 27.875 0 
Q 17.828125 0 11.671875 7.65625 
Q 5.515625 15.328125 5.515625 27.984375 
Q 5.515625 40.671875 11.671875 48.328125 
Q 17.828125 56 27.875 56 
Q 33.9375 56 38.28125 53.609375 
Q 42.625 51.21875 45.40625 46.390625 
L 45.40625 54.6875 
L 54.390625 54.6875 
z
" id="DejaVuSans-103"/>
       <path d="M 12.40625 8.296875 
L 28.515625 8.296875 
L 28.515625 63.921875 
L 10.984375 60.40625 
L 10.984375 69.390625 
L 28.421875 72.90625 
L 38.28125 72.90625 
L 38.28125 8.296875 
L 54.390625 8.296875 
L 54.390625 0 
L 12.40625 0 
z
" id="DejaVuSans-49"/>
       <path d="M 31 75.875 
Q 24.46875 64.65625 21.28125 53.65625 
Q 18.109375 42.671875 18.109375 31.390625 
Q 18.109375 20.125 21.3125 9.0625 
Q 24.515625 -2 31 -13.1875 
L 23.1875 -13.1875 
Q 15.875 -1.703125 12.234375 9.375 
Q 8.59375 20.453125 8.59375 31.390625 
Q 8.59375 42.28125 12.203125 53.3125 
Q 15.828125 64.359375 23.1875 75.875 
z
" id="DejaVuSans-40"/>
       <path d="M 51.125 44 
L 36.921875 44 
L 32.8125 27.6875 
L 47.125 27.6875 
z
M 43.796875 71.78125 
L 38.71875 51.515625 
L 52.984375 51.515625 
L 58.109375 71.78125 
L 65.921875 71.78125 
L 60.890625 51.515625 
L 76.125 51.515625 
L 76.125 44 
L 58.984375 44 
L 54.984375 27.6875 
L 70.515625 27.6875 
L 70.515625 20.21875 
L 53.078125 20.21875 
L 48 0 
L 40.1875 0 
L 45.21875 20.21875 
L 30.90625 20.21875 
L 25.875 0 
L 18.015625 0 
L 23.09375 20.21875 
L 7.71875 20.21875 
L 7.71875 27.6875 
L 24.90625 27.6875 
L 29 44 
L 13.28125 44 
L 13.28125 51.515625 
L 30.90625 51.515625 
L 35.890625 71.78125 
z
" id="DejaVuSans-35"/>
       <path id="DejaVuSans-32"/>
       <path d="M 37.109375 75.984375 
L 37.109375 68.5 
L 28.515625 68.5 
Q 23.6875 68.5 21.796875 66.546875 
Q 19.921875 64.59375 19.921875 59.515625 
L 19.921875 54.6875 
L 34.71875 54.6875 
L 34.71875 47.703125 
L 19.921875 47.703125 
L 19.921875 0 
L 10.890625 0 
L 10.890625 47.703125 
L 2.296875 47.703125 
L 2.296875 54.6875 
L 10.890625 54.6875 
L 10.890625 58.5 
Q 10.890625 67.625 15.140625 71.796875 
Q 19.390625 75.984375 28.609375 75.984375 
z
" id="DejaVuSans-102"/>
       <path d="M 4.890625 31.390625 
L 31.203125 31.390625 
L 31.203125 23.390625 
L 4.890625 23.390625 
z
" id="DejaVuSans-45"/>
       <path d="M 56.203125 29.59375 
L 56.203125 25.203125 
L 14.890625 25.203125 
Q 15.484375 15.921875 20.484375 11.0625 
Q 25.484375 6.203125 34.421875 6.203125 
Q 39.59375 6.203125 44.453125 7.46875 
Q 49.3125 8.734375 54.109375 11.28125 
L 54.109375 2.78125 
Q 49.265625 0.734375 44.1875 -0.34375 
Q 39.109375 -1.421875 33.890625 -1.421875 
Q 20.796875 -1.421875 13.15625 6.1875 
Q 5.515625 13.8125 5.515625 26.8125 
Q 5.515625 40.234375 12.765625 48.109375 
Q 20.015625 56 32.328125 56 
Q 43.359375 56 49.78125 48.890625 
Q 56.203125 41.796875 56.203125 29.59375 
z
M 47.21875 32.234375 
Q 47.125 39.59375 43.09375 43.984375 
Q 39.0625 48.390625 32.421875 48.390625 
Q 24.90625 48.390625 20.390625 44.140625 
Q 15.875 39.890625 15.1875 32.171875 
z
" id="DejaVuSans-101"/>
       <path d="M 2.984375 54.6875 
L 12.5 54.6875 
L 29.59375 8.796875 
L 46.6875 54.6875 
L 56.203125 54.6875 
L 35.6875 0 
L 23.484375 0 
z
" id="DejaVuSans-118"/>
       <path d="M 34.28125 27.484375 
Q 23.390625 27.484375 19.1875 25 
Q 14.984375 22.515625 14.984375 16.5 
Q 14.984375 11.71875 18.140625 8.90625 
Q 21.296875 6.109375 26.703125 6.109375 
Q 34.1875 6.109375 38.703125 11.40625 
Q 43.21875 16.703125 43.21875 25.484375 
L 43.21875 27.484375 
z
M 52.203125 31.203125 
L 52.203125 0 
L 43.21875 0 
L 43.21875 8.296875 
Q 40.140625 3.328125 35.546875 0.953125 
Q 30.953125 -1.421875 24.3125 -1.421875 
Q 15.921875 -1.421875 10.953125 3.296875 
Q 6 8.015625 6 15.921875 
Q 6 25.140625 12.171875 29.828125 
Q 18.359375 34.515625 30.609375 34.515625 
L 43.21875 34.515625 
L 43.21875 35.40625 
Q 43.21875 41.609375 39.140625 45 
Q 35.0625 48.390625 27.6875 48.390625 
Q 23 48.390625 18.546875 47.265625 
Q 14.109375 46.140625 10.015625 43.890625 
L 10.015625 52.203125 
Q 14.9375 54.109375 19.578125 55.046875 
Q 24.21875 56 28.609375 56 
Q 40.484375 56 46.34375 49.84375 
Q 52.203125 43.703125 52.203125 31.203125 
z
" id="DejaVuSans-97"/>
       <path d="M 44.28125 53.078125 
L 44.28125 44.578125 
Q 40.484375 46.53125 36.375 47.5 
Q 32.28125 48.484375 27.875 48.484375 
Q 21.1875 48.484375 17.84375 46.4375 
Q 14.5 44.390625 14.5 40.28125 
Q 14.5 37.15625 16.890625 35.375 
Q 19.28125 33.59375 26.515625 31.984375 
L 29.59375 31.296875 
Q 39.15625 29.25 43.1875 25.515625 
Q 47.21875 21.78125 47.21875 15.09375 
Q 47.21875 7.46875 41.1875 3.015625 
Q 35.15625 -1.421875 24.609375 -1.421875 
Q 20.21875 -1.421875 15.453125 -0.5625 
Q 10.6875 0.296875 5.421875 2 
L 5.421875 11.28125 
Q 10.40625 8.6875 15.234375 7.390625 
Q 20.0625 6.109375 24.8125 6.109375 
Q 31.15625 6.109375 34.5625 8.28125 
Q 37.984375 10.453125 37.984375 14.40625 
Q 37.984375 18.0625 35.515625 20.015625 
Q 33.0625 21.96875 24.703125 23.78125 
L 21.578125 24.515625 
Q 13.234375 26.265625 9.515625 29.90625 
Q 5.8125 33.546875 5.8125 39.890625 
Q 5.8125 47.609375 11.28125 51.796875 
Q 16.75 56 26.8125 56 
Q 31.78125 56 36.171875 55.265625 
Q 40.578125 54.546875 44.28125 53.078125 
z
" id="DejaVuSans-115"/>
       <path d="M 25.390625 72.90625 
L 33.6875 72.90625 
L 8.296875 -9.28125 
L 0 -9.28125 
z
" id="DejaVuSans-47"/>
       <path d="M 45.40625 46.390625 
L 45.40625 75.984375 
L 54.390625 75.984375 
L 54.390625 0 
L 45.40625 0 
L 45.40625 8.203125 
Q 42.578125 3.328125 38.25 0.953125 
Q 33.9375 -1.421875 27.875 -1.421875 
Q 17.96875 -1.421875 11.734375 6.484375 
Q 5.515625 14.40625 5.515625 27.296875 
Q 5.515625 40.1875 11.734375 48.09375 
Q 17.96875 56 27.875 56 
Q 33.9375 56 38.25 53.625 
Q 42.578125 51.265625 45.40625 46.390625 
z
M 14.796875 27.296875 
Q 14.796875 17.390625 18.875 11.75 
Q 22.953125 6.109375 30.078125 6.109375 
Q 37.203125 6.109375 41.296875 11.75 
Q 45.40625 17.390625 45.40625 27.296875 
Q 45.40625 37.203125 41.296875 42.84375 
Q 37.203125 48.484375 30.078125 48.484375 
Q 22.953125 48.484375 18.875 42.84375 
Q 14.796875 37.203125 14.796875 27.296875 
z
" id="DejaVuSans-100"/>
       <path d="M 9.421875 54.6875 
L 18.40625 54.6875 
L 18.40625 0 
L 9.421875 0 
z
M 9.421875 75.984375 
L 18.40625 75.984375 
L 18.40625 64.59375 
L 9.421875 64.59375 
z
" id="DejaVuSans-105"/>
       <path d="M 52 44.1875 
Q 55.375 50.25 60.0625 53.125 
Q 64.75 56 71.09375 56 
Q 79.640625 56 84.28125 50.015625 
Q 88.921875 44.046875 88.921875 33.015625 
L 88.921875 0 
L 79.890625 0 
L 79.890625 32.71875 
Q 79.890625 40.578125 77.09375 44.375 
Q 74.3125 48.1875 68.609375 48.1875 
Q 61.625 48.1875 57.5625 43.546875 
Q 53.515625 38.921875 53.515625 30.90625 
L 53.515625 0 
L 44.484375 0 
L 44.484375 32.71875 
Q 44.484375 40.625 41.703125 44.40625 
Q 38.921875 48.1875 33.109375 48.1875 
Q 26.21875 48.1875 22.15625 43.53125 
Q 18.109375 38.875 18.109375 30.90625 
L 18.109375 0 
L 9.078125 0 
L 9.078125 54.6875 
L 18.109375 54.6875 
L 18.109375 46.1875 
Q 21.1875 51.21875 25.484375 53.609375 
Q 29.78125 56 35.6875 56 
Q 41.65625 56 45.828125 52.96875 
Q 50 49.953125 52 44.1875 
z
" id="DejaVuSans-109"/>
       <path d="M 54.890625 33.015625 
L 54.890625 0 
L 45.90625 0 
L 45.90625 32.71875 
Q 45.90625 40.484375 42.875 44.328125 
Q 39.84375 48.1875 33.796875 48.1875 
Q 26.515625 48.1875 22.3125 43.546875 
Q 18.109375 38.921875 18.109375 30.90625 
L 18.109375 0 
L 9.078125 0 
L 9.078125 54.6875 
L 18.109375 54.6875 
L 18.109375 46.1875 
Q 21.34375 51.125 25.703125 53.5625 
Q 30.078125 56 35.796875 56 
Q 45.21875 56 50.046875 50.171875 
Q 54.890625 44.34375 54.890625 33.015625 
z
" id="DejaVuSans-110"/>
       <path d="M 8.015625 75.875 
L 15.828125 75.875 
Q 23.140625 64.359375 26.78125 53.3125 
Q 30.421875 42.28125 30.421875 31.390625 
Q 30.421875 20.453125 26.78125 9.375 
Q 23.140625 -1.703125 15.828125 -13.1875 
L 8.015625 -13.1875 
Q 14.5 -2 17.703125 9.0625 
Q 20.90625 20.125 20.90625 31.390625 
Q 20.90625 42.671875 17.703125 53.65625 
Q 14.5 64.65625 8.015625 75.875 
z
" id="DejaVuSans-41"/>
      </defs>
      <use xlink:href="#DejaVuSans-108"/>
      <use x="27.783203" xlink:href="#DejaVuSans-111"/>
      <use x="88.964844" xlink:href="#DejaVuSans-103"/>
      <use x="152.441406" xlink:href="#DejaVuSans-49"/>
      <use x="216.064453" xlink:href="#DejaVuSans-48"/>
      <use x="279.6875" xlink:href="#DejaVuSans-40"/>
      <use x="318.701172" xlink:href="#DejaVuSans-35"/>
      <use x="402.490234" xlink:href="#DejaVuSans-32"/>
      <use x="434.277344" xlink:href="#DejaVuSans-102"/>
      <use x="463.982422" xlink:href="#DejaVuSans-45"/>
      <use x="500.066406" xlink:href="#DejaVuSans-101"/>
      <use x="561.589844" xlink:href="#DejaVuSans-118"/>
      <use x="620.769531" xlink:href="#DejaVuSans-97"/>
      <use x="682.048828" xlink:href="#DejaVuSans-108"/>
      <use x="709.832031" xlink:href="#DejaVuSans-115"/>
      <use x="761.931641" xlink:href="#DejaVuSans-32"/>
      <use x="793.71875" xlink:href="#DejaVuSans-47"/>
      <use x="827.410156" xlink:href="#DejaVuSans-32"/>
      <use x="859.197266" xlink:href="#DejaVuSans-100"/>
      <use x="922.673828" xlink:href="#DejaVuSans-105"/>
      <use x="950.457031" xlink:href="#DejaVuSans-109"/>
      <use x="1047.869141" xlink:href="#DejaVuSans-101"/>
      <use x="1109.392578" xlink:href="#DejaVuSans-110"/>
      <use x="1172.771484" xlink:href="#DejaVuSans-115"/>
      <use x="1224.871094" xlink:href="#DejaVuSans-105"/>
      <use x="1252.654297" xlink:href="#DejaVuSans-111"/>
      <use x="1313.835938" xlink:href="#DejaVuSans-110"/>
      <use x="1377.214844" xlink:href="#DejaVuSans-41"/>
     </g>
    </g>
   </g>
   <g id="matplotlib.axis_2">
    <g id="ytick_1">
     <g id="line2d_17">
      <path clip-path="url(#p2e5123514f)" d="M 57.6 298.944 
L 338.688 298.944 
" style="fill:none;stroke:#b0b0b0;stroke-linecap:square;stroke-width:0.8;"/>
     </g>
     <g id="line2d_18">
      <defs>
       <path d="M 0 0 
L -3.5 0 
" id="m82e1af34e4" style="stroke:#000000;stroke-width:0.8;"/>
      </defs>
      <g>
       <use style="stroke:#000000;stroke-width:0.8;" x="57.6" xlink:href="#m82e1af34e4" y="298.944"/>
      </g>
     </g>
     <g id="text_6">
      <!-- 0.0 -->
      <g transform="translate(25.155 305.02275)scale(0.16 -0.16)">
       <defs>
        <path d="M 10.6875 12.40625 
L 21 12.40625 
L 21 0 
L 10.6875 0 
z
" id="DejaVuSans-46"/>
       </defs>
       <use xlink:href="#DejaVuSans-48"/>
       <use x="63.623047" xlink:href="#DejaVuSans-46"/>
       <use x="95.410156" xlink:href="#DejaVuSans-48"/>
      </g>
     </g>
    </g>
    <g id="ytick_2">
     <g id="line2d_19">
      <path clip-path="url(#p2e5123514f)" d="M 57.6 240.431525 
L 338.688 240.431525 
" style="fill:none;stroke:#b0b0b0;stroke-linecap:square;stroke-width:0.8;"/>
     </g>
     <g id="line2d_20">
      <g>
       <use style="stroke:#000000;stroke-width:0.8;" x="57.6" xlink:href="#m82e1af34e4" y="240.431525"/>
      </g>
     </g>
     <g id="text_7">
      <!-- 0.2 -->
      <g transform="translate(25.155 246.510275)scale(0.16 -0.16)">
       <use xlink:href="#DejaVuSans-48"/>
       <use x="63.623047" xlink:href="#DejaVuSans-46"/>
       <use x="95.410156" xlink:href="#DejaVuSans-50"/>
      </g>
     </g>
    </g>
    <g id="ytick_3">
     <g id="line2d_21">
      <path clip-path="url(#p2e5123514f)" d="M 57.6 181.91905 
L 338.688 181.91905 
" style="fill:none;stroke:#b0b0b0;stroke-linecap:square;stroke-width:0.8;"/>
     </g>
     <g id="line2d_22">
      <g>
       <use style="stroke:#000000;stroke-width:0.8;" x="57.6" xlink:href="#m82e1af34e4" y="181.91905"/>
      </g>
     </g>
     <g id="text_8">
      <!-- 0.4 -->
      <g transform="translate(25.155 187.9978)scale(0.16 -0.16)">
       <use xlink:href="#DejaVuSans-48"/>
       <use x="63.623047" xlink:href="#DejaVuSans-46"/>
       <use x="95.410156" xlink:href="#DejaVuSans-52"/>
      </g>
     </g>
    </g>
    <g id="ytick_4">
     <g id="line2d_23">
      <path clip-path="url(#p2e5123514f)" d="M 57.6 123.406574 
L 338.688 123.406574 
" style="fill:none;stroke:#b0b0b0;stroke-linecap:square;stroke-width:0.8;"/>
     </g>
     <g id="line2d_24">
      <g>
       <use style="stroke:#000000;stroke-width:0.8;" x="57.6" xlink:href="#m82e1af34e4" y="123.406574"/>
      </g>
     </g>
     <g id="text_9">
      <!-- 0.6 -->
      <g transform="translate(25.155 129.485324)scale(0.16 -0.16)">
       <use xlink:href="#DejaVuSans-48"/>
       <use x="63.623047" xlink:href="#DejaVuSans-46"/>
       <use x="95.410156" xlink:href="#DejaVuSans-54"/>
      </g>
     </g>
    </g>
    <g id="ytick_5">
     <g id="line2d_25">
      <path clip-path="url(#p2e5123514f)" d="M 57.6 64.894099 
L 338.688 64.894099 
" style="fill:none;stroke:#b0b0b0;stroke-linecap:square;stroke-width:0.8;"/>
     </g>
     <g id="line2d_26">
      <g>
       <use style="stroke:#000000;stroke-width:0.8;" x="57.6" xlink:href="#m82e1af34e4" y="64.894099"/>
      </g>
     </g>
     <g id="text_10">
      <!-- 0.8 -->
      <g transform="translate(25.155 70.972849)scale(0.16 -0.16)">
       <defs>
        <path d="M 31.78125 34.625 
Q 24.75 34.625 20.71875 30.859375 
Q 16.703125 27.09375 16.703125 20.515625 
Q 16.703125 13.921875 20.71875 10.15625 
Q 24.75 6.390625 31.78125 6.390625 
Q 38.8125 6.390625 42.859375 10.171875 
Q 46.921875 13.96875 46.921875 20.515625 
Q 46.921875 27.09375 42.890625 30.859375 
Q 38.875 34.625 31.78125 34.625 
z
M 21.921875 38.8125 
Q 15.578125 40.375 12.03125 44.71875 
Q 8.5 49.078125 8.5 55.328125 
Q 8.5 64.0625 14.71875 69.140625 
Q 20.953125 74.21875 31.78125 74.21875 
Q 42.671875 74.21875 48.875 69.140625 
Q 55.078125 64.0625 55.078125 55.328125 
Q 55.078125 49.078125 51.53125 44.71875 
Q 48 40.375 41.703125 38.8125 
Q 48.828125 37.15625 52.796875 32.3125 
Q 56.78125 27.484375 56.78125 20.515625 
Q 56.78125 9.90625 50.3125 4.234375 
Q 43.84375 -1.421875 31.78125 -1.421875 
Q 19.734375 -1.421875 13.25 4.234375 
Q 6.78125 9.90625 6.78125 20.515625 
Q 6.78125 27.484375 10.78125 32.3125 
Q 14.796875 37.15625 21.921875 38.8125 
z
M 18.3125 54.390625 
Q 18.3125 48.734375 21.84375 45.5625 
Q 25.390625 42.390625 31.78125 42.390625 
Q 38.140625 42.390625 41.71875 45.5625 
Q 45.3125 48.734375 45.3125 54.390625 
Q 45.3125 60.0625 41.71875 63.234375 
Q 38.140625 66.40625 31.78125 66.40625 
Q 25.390625 66.40625 21.84375 63.234375 
Q 18.3125 60.0625 18.3125 54.390625 
z
" id="DejaVuSans-56"/>
       </defs>
       <use xlink:href="#DejaVuSans-48"/>
       <use x="63.623047" xlink:href="#DejaVuSans-46"/>
       <use x="95.410156" xlink:href="#DejaVuSans-56"/>
      </g>
     </g>
    </g>
    <g id="ytick_6">
     <g id="line2d_27">
      <path clip-path="url(#p2e5123514f)" d="M 57.6 6.381624 
L 338.688 6.381624 
" style="fill:none;stroke:#b0b0b0;stroke-linecap:square;stroke-width:0.8;"/>
     </g>
     <g id="line2d_28">
      <g>
       <use style="stroke:#000000;stroke-width:0.8;" x="57.6" xlink:href="#m82e1af34e4" y="6.381624"/>
      </g>
     </g>
     <g id="text_11">
      <!-- 1.0 -->
      <g transform="translate(25.155 12.460374)scale(0.16 -0.16)">
       <use xlink:href="#DejaVuSans-49"/>
       <use x="63.623047" xlink:href="#DejaVuSans-46"/>
       <use x="95.410156" xlink:href="#DejaVuSans-48"/>
      </g>
     </g>
    </g>
    <g id="text_12">
     <!-- Fraction of function,target pairs -->
     <g transform="translate(17.619531 285.585)rotate(-90)scale(0.17 -0.17)">
      <defs>
       <path d="M 9.8125 72.90625 
L 51.703125 72.90625 
L 51.703125 64.59375 
L 19.671875 64.59375 
L 19.671875 43.109375 
L 48.578125 43.109375 
L 48.578125 34.8125 
L 19.671875 34.8125 
L 19.671875 0 
L 9.8125 0 
z
" id="DejaVuSans-70"/>
       <path d="M 41.109375 46.296875 
Q 39.59375 47.171875 37.8125 47.578125 
Q 36.03125 48 33.890625 48 
Q 26.265625 48 22.1875 43.046875 
Q 18.109375 38.09375 18.109375 28.8125 
L 18.109375 0 
L 9.078125 0 
L 9.078125 54.6875 
L 18.109375 54.6875 
L 18.109375 46.1875 
Q 20.953125 51.171875 25.484375 53.578125 
Q 30.03125 56 36.53125 56 
Q 37.453125 56 38.578125 55.875 
Q 39.703125 55.765625 41.0625 55.515625 
z
" id="DejaVuSans-114"/>
       <path d="M 48.78125 52.59375 
L 48.78125 44.1875 
Q 44.96875 46.296875 41.140625 47.34375 
Q 37.3125 48.390625 33.40625 48.390625 
Q 24.65625 48.390625 19.8125 42.84375 
Q 14.984375 37.3125 14.984375 27.296875 
Q 14.984375 17.28125 19.8125 11.734375 
Q 24.65625 6.203125 33.40625 6.203125 
Q 37.3125 6.203125 41.140625 7.25 
Q 44.96875 8.296875 48.78125 10.40625 
L 48.78125 2.09375 
Q 45.015625 0.34375 40.984375 -0.53125 
Q 36.96875 -1.421875 32.421875 -1.421875 
Q 20.0625 -1.421875 12.78125 6.34375 
Q 5.515625 14.109375 5.515625 27.296875 
Q 5.515625 40.671875 12.859375 48.328125 
Q 20.21875 56 33.015625 56 
Q 37.15625 56 41.109375 55.140625 
Q 45.0625 54.296875 48.78125 52.59375 
z
" id="DejaVuSans-99"/>
       <path d="M 18.3125 70.21875 
L 18.3125 54.6875 
L 36.8125 54.6875 
L 36.8125 47.703125 
L 18.3125 47.703125 
L 18.3125 18.015625 
Q 18.3125 11.328125 20.140625 9.421875 
Q 21.96875 7.515625 27.59375 7.515625 
L 36.8125 7.515625 
L 36.8125 0 
L 27.59375 0 
Q 17.1875 0 13.234375 3.875 
Q 9.28125 7.765625 9.28125 18.015625 
L 9.28125 47.703125 
L 2.6875 47.703125 
L 2.6875 54.6875 
L 9.28125 54.6875 
L 9.28125 70.21875 
z
" id="DejaVuSans-116"/>
       <path d="M 8.5 21.578125 
L 8.5 54.6875 
L 17.484375 54.6875 
L 17.484375 21.921875 
Q 17.484375 14.15625 20.5 10.265625 
Q 23.53125 6.390625 29.59375 6.390625 
Q 36.859375 6.390625 41.078125 11.03125 
Q 45.3125 15.671875 45.3125 23.6875 
L 45.3125 54.6875 
L 54.296875 54.6875 
L 54.296875 0 
L 45.3125 0 
L 45.3125 8.40625 
Q 42.046875 3.421875 37.71875 1 
Q 33.40625 -1.421875 27.6875 -1.421875 
Q 18.265625 -1.421875 13.375 4.4375 
Q 8.5 10.296875 8.5 21.578125 
z
M 31.109375 56 
z
" id="DejaVuSans-117"/>
       <path d="M 11.71875 12.40625 
L 22.015625 12.40625 
L 22.015625 4 
L 14.015625 -11.625 
L 7.71875 -11.625 
L 11.71875 4 
z
" id="DejaVuSans-44"/>
       <path d="M 18.109375 8.203125 
L 18.109375 -20.796875 
L 9.078125 -20.796875 
L 9.078125 54.6875 
L 18.109375 54.6875 
L 18.109375 46.390625 
Q 20.953125 51.265625 25.265625 53.625 
Q 29.59375 56 35.59375 56 
Q 45.5625 56 51.78125 48.09375 
Q 58.015625 40.1875 58.015625 27.296875 
Q 58.015625 14.40625 51.78125 6.484375 
Q 45.5625 -1.421875 35.59375 -1.421875 
Q 29.59375 -1.421875 25.265625 0.953125 
Q 20.953125 3.328125 18.109375 8.203125 
z
M 48.6875 27.296875 
Q 48.6875 37.203125 44.609375 42.84375 
Q 40.53125 48.484375 33.40625 48.484375 
Q 26.265625 48.484375 22.1875 42.84375 
Q 18.109375 37.203125 18.109375 27.296875 
Q 18.109375 17.390625 22.1875 11.75 
Q 26.265625 6.109375 33.40625 6.109375 
Q 40.53125 6.109375 44.609375 11.75 
Q 48.6875 17.390625 48.6875 27.296875 
z
" id="DejaVuSans-112"/>
      </defs>
      <use xlink:href="#DejaVuSans-70"/>
      <use x="50.269531" xlink:href="#DejaVuSans-114"/>
      <use x="91.382812" xlink:href="#DejaVuSans-97"/>
      <use x="152.662109" xlink:href="#DejaVuSans-99"/>
      <use x="207.642578" xlink:href="#DejaVuSans-116"/>
      <use x="246.851562" xlink:href="#DejaVuSans-105"/>
      <use x="274.634766" xlink:href="#DejaVuSans-111"/>
      <use x="335.816406" xlink:href="#DejaVuSans-110"/>
      <use x="399.195312" xlink:href="#DejaVuSans-32"/>
      <use x="430.982422" xlink:href="#DejaVuSans-111"/>
      <use x="492.164062" xlink:href="#DejaVuSans-102"/>
      <use x="527.369141" xlink:href="#DejaVuSans-32"/>
      <use x="559.15625" xlink:href="#DejaVuSans-102"/>
      <use x="594.361328" xlink:href="#DejaVuSans-117"/>
      <use x="657.740234" xlink:href="#DejaVuSans-110"/>
      <use x="721.119141" xlink:href="#DejaVuSans-99"/>
      <use x="776.099609" xlink:href="#DejaVuSans-116"/>
      <use x="815.308594" xlink:href="#DejaVuSans-105"/>
      <use x="843.091797" xlink:href="#DejaVuSans-111"/>
      <use x="904.273438" xlink:href="#DejaVuSans-110"/>
      <use x="967.652344" xlink:href="#DejaVuSans-44"/>
      <use x="999.439453" xlink:href="#DejaVuSans-116"/>
      <use x="1038.648438" xlink:href="#DejaVuSans-97"/>
      <use x="1099.927734" xlink:href="#DejaVuSans-114"/>
      <use x="1139.291016" xlink:href="#DejaVuSans-103"/>
      <use x="1202.767578" xlink:href="#DejaVuSans-101"/>
      <use x="1264.291016" xlink:href="#DejaVuSans-116"/>
      <use x="1303.5" xlink:href="#DejaVuSans-32"/>
      <use x="1335.287109" xlink:href="#DejaVuSans-112"/>
      <use x="1398.763672" xlink:href="#DejaVuSans-97"/>
      <use x="1460.042969" xlink:href="#DejaVuSans-105"/>
      <use x="1487.826172" xlink:href="#DejaVuSans-114"/>
      <use x="1528.939453" xlink:href="#DejaVuSans-115"/>
     </g>
    </g>
   </g>
   <g id="line2d_29">
    <defs>
     <path d="M 0 1.5 
C 0.397805 1.5 0.77937 1.341951 1.06066 1.06066 
C 1.341951 0.77937 1.5 0.397805 1.5 0 
C 1.5 -0.397805 1.341951 -0.77937 1.06066 -1.06066 
C 0.77937 -1.341951 0.397805 -1.5 0 -1.5 
C -0.397805 -1.5 -0.77937 -1.341951 -1.06066 -1.06066 
C -1.341951 -0.77937 -1.5 -0.397805 -1.5 0 
C -1.5 0.397805 -1.341951 0.77937 -1.06066 1.06066 
C -0.77937 1.341951 -0.397805 1.5 0 1.5 
z
" id="m0cd280afde" style="stroke:#000080;"/>
    </defs>
    <g>
     <use style="fill:#000080;stroke:#000080;" x="175.807212" xlink:href="#m0cd280afde" y="6.381624"/>
     <use style="fill:#000080;stroke:#000080;" x="175.807212" xlink:href="#m0cd280afde" y="6.381624"/>
    </g>
   </g>
   <g id="line2d_30">
    <path d="M 45.512012 298.944 
L 45.512012 294.354786 
L 57.6 294.354786 
L 57.6 293.781135 
L 64.67102 293.781135 
L 64.67102 290.912876 
L 93.863965 290.912876 
L 93.863965 289.765573 
L 98.606294 289.765573 
L 98.606294 289.191921 
L 100.934985 289.191921 
L 100.934985 288.618269 
L 105.398279 288.618269 
L 105.398279 288.044617 
L 105.951954 288.044617 
L 105.951954 280.013493 
L 106.48859 280.013493 
L 106.48859 279.439842 
L 107.009204 279.439842 
L 107.009204 278.86619 
L 108.483824 278.86619 
L 108.483824 278.292538 
L 111.505558 278.292538 
L 111.505558 277.718886 
L 112.655818 277.718886 
L 112.655818 277.145235 
L 113.022974 277.145235 
L 113.022974 276.571583 
L 115.397021 276.571583 
L 115.397021 275.997931 
L 116.323218 275.997931 
L 116.323218 274.276976 
L 116.621333 274.276976 
L 116.621333 272.556021 
L 117.486268 272.556021 
L 117.486268 271.982369 
L 118.039942 271.982369 
L 118.039942 271.408718 
L 119.097192 271.408718 
L 119.097192 270.835066 
L 119.602714 270.835066 
L 119.602714 267.393156 
L 120.571812 267.393156 
L 120.571812 266.819504 
L 121.036887 266.819504 
L 121.036887 265.6722 
L 121.264855 265.6722 
L 121.264855 263.377593 
L 125.822869 263.377593 
L 125.822869 262.803942 
L 126.338353 262.803942 
L 126.338353 262.23029 
L 126.50685 262.23029 
L 126.50685 259.935683 
L 126.673734 259.935683 
L 126.673734 257.641076 
L 127.325746 257.641076 
L 127.325746 257.067425 
L 127.48501 257.067425 
L 127.48501 254.199166 
L 127.954256 254.199166 
L 127.954256 253.625514 
L 128.411207 253.625514 
L 128.411207 253.051863 
L 128.709321 253.051863 
L 128.709321 252.478211 
L 129.002426 252.478211 
L 129.002426 251.904559 
L 129.433047 251.904559 
L 129.433047 250.183604 
L 129.574256 250.183604 
L 129.574256 249.609952 
L 129.714332 249.609952 
L 129.714332 247.315345 
L 129.853291 247.315345 
L 129.853291 246.741694 
L 129.991152 246.741694 
L 129.991152 245.59439 
L 130.664567 245.59439 
L 130.664567 245.020738 
L 130.796184 245.020738 
L 130.796184 244.447087 
L 132.060454 244.447087 
L 132.060454 243.873435 
L 132.422528 243.873435 
L 132.422528 242.15248 
L 132.541568 242.15248 
L 132.541568 241.005176 
L 133.910056 241.005176 
L 133.910056 240.431525 
L 134.661403 240.431525 
L 134.661403 238.71057 
L 136.073445 238.71057 
L 136.073445 238.136918 
L 136.266147 238.136918 
L 136.266147 237.563266 
L 138.170504 237.563266 
L 138.170504 236.989614 
L 138.594838 236.989614 
L 138.67848 235.842311 
L 139.8092 235.842311 
L 139.8092 235.268659 
L 141.307054 235.268659 
L 141.378673 231.253097 
L 141.941279 231.253097 
L 141.941279 230.105794 
L 142.215919 230.105794 
L 142.215919 229.532142 
L 143.144465 229.532142 
L 143.208936 226.663884 
L 143.337167 226.663884 
L 143.40093 225.51658 
L 143.464461 225.51658 
L 143.527762 223.795625 
L 143.653678 223.795625 
L 143.653678 222.648321 
L 144.209312 222.648321 
L 144.209312 222.07467 
L 146.431341 222.07467 
L 146.431341 221.501018 
L 146.696785 221.501018 
L 146.749392 220.353715 
L 147.52003 220.353715 
L 147.52003 219.780063 
L 149.241465 219.780063 
L 149.241465 218.632759 
L 149.955193 218.632759 
L 149.998846 216.911804 
L 150.258492 216.911804 
L 150.258492 216.338153 
L 150.891184 216.338153 
L 150.932558 215.190849 
L 151.015013 215.190849 
L 151.056095 213.469894 
L 151.178764 213.469894 
L 151.260066 211.175287 
L 151.340991 211.175287 
L 151.340991 210.601635 
L 151.621307 210.601635 
L 151.621307 210.027984 
L 151.779487 210.027984 
L 151.818809 207.733377 
L 151.936246 207.733377 
L 152.0141 206.012422 
L 152.130233 206.012422 
L 152.207228 204.291467 
L 152.360205 204.291467 
L 152.360205 203.144163 
L 152.549559 203.144163 
L 152.549559 202.570511 
L 152.699575 202.570511 
L 152.699575 201.99686 
L 152.922207 201.99686 
L 152.922207 201.423208 
L 153.142033 201.423208 
L 153.250915 197.407646 
L 153.323128 197.407646 
L 153.323128 195.686691 
L 153.679772 195.686691 
L 153.785358 194.539387 
L 153.820412 194.539387 
L 153.890309 192.818432 
L 154.132765 192.818432 
L 154.132765 191.097477 
L 154.303908 191.097477 
L 154.337936 187.081915 
L 154.674612 187.081915 
L 154.77436 184.213656 
L 154.807483 184.213656 
L 154.807483 183.640005 
L 154.93935 183.640005 
L 155.004911 181.345398 
L 155.102793 181.345398 
L 155.102793 180.771746 
L 155.488919 180.771746 
L 155.488919 180.198094 
L 155.61575 180.198094 
L 155.710272 177.903487 
L 155.773004 177.903487 
L 155.773004 175.608881 
L 156.052535 175.608881 
L 156.083319 173.887925 
L 156.175347 173.887925 
L 156.266892 172.16697 
L 156.327657 172.16697 
L 156.357959 171.019667 
L 156.508689 171.019667 
L 156.508689 169.298712 
L 156.865211 169.298712 
L 156.865211 168.72506 
L 157.069866 168.72506 
L 157.069866 167.577757 
L 157.214591 167.577757 
L 157.243392 165.856801 
L 157.58535 165.856801 
L 157.58535 165.28315 
L 157.920731 165.28315 
L 158.031107 161.267588 
L 158.249784 161.267588 
L 158.249784 160.693936 
L 158.67908 160.693936 
L 158.784773 158.399329 
L 158.811096 158.399329 
L 158.83738 156.678374 
L 159.020266 156.678374 
L 159.020266 156.104722 
L 159.149734 156.104722 
L 159.252621 153.236464 
L 159.405822 153.236464 
L 159.481921 151.515508 
L 159.582872 151.515508 
L 159.582872 150.368205 
L 159.733212 150.368205 
L 159.783038 148.073598 
L 159.980933 148.073598 
L 159.980933 147.499946 
L 160.127894 147.499946 
L 160.200913 146.352643 
L 160.418152 146.352643 
L 160.418152 145.20534 
L 160.632719 145.20534 
L 160.632719 144.631688 
L 160.797798 144.631688 
L 160.844678 143.484384 
L 161.100288 143.484384 
L 161.100288 141.763429 
L 161.26102 141.763429 
L 161.329454 137.174215 
L 161.420284 137.174215 
L 161.465522 134.879609 
L 161.622937 134.879609 
L 161.622937 134.305957 
L 162.086834 134.305957 
L 162.173813 127.995788 
L 162.324991 127.995788 
L 162.324991 126.274833 
L 163.808326 126.274833 
L 163.906798 123.980226 
L 163.965615 123.980226 
L 163.965615 123.406574 
L 164.160252 123.406574 
L 164.256762 121.111967 
L 164.295217 121.111967 
L 164.371873 116.522754 
L 164.448194 116.522754 
L 164.543127 114.801798 
L 164.731458 114.801798 
L 164.768882 112.507192 
L 164.954803 112.507192 
L 165.010195 110.786236 
L 165.175324 110.786236 
L 165.175324 110.212585 
L 165.356985 110.212585 
L 165.356985 109.638933 
L 165.483031 109.638933 
L 165.483031 109.065281 
L 165.714726 109.065281 
L 165.820633 106.770674 
L 165.995728 106.770674 
L 166.065276 103.902416 
L 166.220754 103.902416 
L 166.323641 102.755112 
L 166.391896 102.755112 
L 166.493781 99.886854 
L 166.578233 99.886854 
L 166.578233 99.313202 
L 166.7626 99.313202 
L 166.7626 98.73955 
L 166.878918 98.73955 
L 166.96153 97.592247 
L 166.994465 97.592247 
L 167.076532 94.723988 
L 167.125588 94.723988 
L 167.174506 93.003033 
L 167.481174 93.003033 
L 167.545055 90.708426 
L 167.592812 90.708426 
L 167.687935 88.413819 
L 167.76681 88.413819 
L 167.76681 87.840168 
L 167.892273 87.840168 
L 167.970232 86.692864 
L 168.01684 86.692864 
L 168.125111 84.971909 
L 168.140524 84.971909 
L 168.140524 84.398257 
L 168.309168 84.398257 
L 168.400474 82.103651 
L 168.46108 82.103651 
L 168.521475 79.809044 
L 168.581663 79.809044 
L 168.581663 78.088089 
L 168.701418 78.088089 
L 168.71633 76.940785 
L 168.894283 76.940785 
L 168.894283 76.367133 
L 169.011918 76.367133 
L 169.099626 74.646178 
L 169.128764 74.646178 
L 169.215888 71.77792 
L 169.331381 71.77792 
L 169.388841 69.483313 
L 169.446113 69.483313 
L 169.488944 67.188706 
L 169.574291 67.188706 
L 169.659223 64.894099 
L 169.701534 64.894099 
L 169.799863 60.878537 
L 169.897641 60.878537 
L 170.008719 56.862975 
L 170.119095 56.862975 
L 170.201421 55.715672 
L 170.26973 55.715672 
L 170.351349 53.994716 
L 170.58055 53.994716 
L 170.660731 51.126458 
L 170.899085 51.126458 
L 170.899085 50.552806 
L 171.134225 50.552806 
L 171.18605 49.405503 
L 171.314944 49.405503 
L 171.391826 44.242637 
L 171.481095 44.242637 
L 171.54458 42.521682 
L 171.645677 42.521682 
L 171.746192 37.932468 
L 171.871027 37.932468 
L 171.895887 32.769603 
L 172.031987 32.769603 
L 172.118046 30.474996 
L 172.276753 30.474996 
L 172.385786 27.606737 
L 172.434028 27.606737 
L 172.482136 24.738479 
L 172.554051 24.738479 
L 172.554051 23.591175 
L 172.909242 23.591175 
L 172.944366 20.722917 
L 173.349008 20.722917 
L 173.349008 19.575613 
L 173.508272 19.575613 
L 173.598631 17.854658 
L 174.229235 17.854658 
L 174.283479 15.560051 
L 174.690307 15.560051 
L 174.722024 12.691793 
L 174.827334 12.691793 
L 174.900675 11.544489 
L 174.984116 11.544489 
L 175.08786 10.397186 
L 175.118863 10.397186 
L 175.118863 9.823534 
L 175.436043 9.823534 
L 175.537141 8.102579 
L 175.607562 8.102579 
L 175.607562 7.528927 
L 175.737594 7.528927 
L 175.807212 6.381624 
L 338.688 6.381624 
L 338.688 6.381624 
" style="fill:none;stroke:#000080;stroke-linecap:square;stroke-width:1.5;"/>
   </g>
   <g id="line2d_31">
    <defs>
     <path d="M 0 6 
C 1.591219 6 3.117479 5.367802 4.242641 4.242641 
C 5.367802 3.117479 6 1.591219 6 0 
C 6 -1.591219 5.367802 -3.117479 4.242641 -4.242641 
C 3.117479 -5.367802 1.591219 -6 0 -6 
C -1.591219 -6 -3.117479 -5.367802 -4.242641 -4.242641 
C -5.367802 -3.117479 -6 -1.591219 -6 0 
C -6 1.591219 -5.367802 3.117479 -4.242641 4.242641 
C -3.117479 5.367802 -1.591219 6 0 6 
z
" id="m0290b32b8f" style="stroke:#000080;stroke-width:1.5;"/>
    </defs>
    <g>
     <use style="fill-opacity:0;stroke:#000080;stroke-width:1.5;" x="141.307054" xlink:href="#m0290b32b8f" y="235.268659"/>
     <use style="fill-opacity:0;stroke:#000080;stroke-width:1.5;" x="161.306672" xlink:href="#m0290b32b8f" y="139.468822"/>
     <use style="fill-opacity:0;stroke:#000080;stroke-width:1.5;" x="175.807212" xlink:href="#m0290b32b8f" y="6.955275"/>
     <use style="fill-opacity:0;stroke:#000080;stroke-width:1.5;" x="175.807212" xlink:href="#m0290b32b8f" y="6.381624"/>
     <use style="fill-opacity:0;stroke:#000080;stroke-width:1.5;" x="175.807212" xlink:href="#m0290b32b8f" y="6.381624"/>
     <use style="fill-opacity:0;stroke:#000080;stroke-width:1.5;" x="338.688" xlink:href="#m0290b32b8f" y="6.381624"/>
    </g>
   </g>
   <g id="line2d_32">
    <path style="fill:none;stroke:#000080;stroke-linecap:square;stroke-width:1.5;"/>
    <g/>
   </g>
   <g id="line2d_33">
    <defs>
     <path d="M 0 1.5 
C 0.397805 1.5 0.77937 1.341951 1.06066 1.06066 
C 1.341951 0.77937 1.5 0.397805 1.5 0 
C 1.5 -0.397805 1.341951 -0.77937 1.06066 -1.06066 
C 0.77937 -1.341951 0.397805 -1.5 0 -1.5 
C -0.397805 -1.5 -0.77937 -1.341951 -1.06066 -1.06066 
C -1.341951 -0.77937 -1.5 -0.397805 -1.5 0 
C -1.5 0.397805 -1.341951 0.77937 -1.06066 1.06066 
C -0.77937 1.341951 -0.397805 1.5 0 1.5 
z
" id="mc42be58ecc" style="stroke:#ff00ff;"/>
    </defs>
    <g>
     <use style="fill:#ff00ff;stroke:#ff00ff;" x="254.071523" xlink:href="#mc42be58ecc" y="6.381624"/>
     <use style="fill:#ff00ff;stroke:#ff00ff;" x="254.071523" xlink:href="#mc42be58ecc" y="6.381624"/>
    </g>
   </g>
   <g id="line2d_34">
    <path d="M 45.512012 298.944 
L 45.512012 278.292538 
L 57.6 278.292538 
L 57.6 276.571583 
L 73.579452 276.571583 
L 73.579452 274.850628 
L 88.846997 274.850628 
L 88.846997 274.276976 
L 98.606294 274.276976 
L 98.606294 273.703324 
L 102.330873 273.703324 
L 102.330873 273.129673 
L 104.826449 273.129673 
L 104.826449 272.556021 
L 105.951954 272.556021 
L 105.951954 270.261414 
L 106.48859 270.261414 
L 106.48859 266.819504 
L 108.483824 266.819504 
L 108.483824 255.920121 
L 109.843417 255.920121 
L 109.843417 253.625514 
L 110.274038 253.625514 
L 110.274038 250.183604 
L 111.104637 250.183604 
L 111.104637 249.036301 
L 112.655818 249.036301 
L 112.655818 247.888997 
L 114.418861 247.888997 
L 114.418861 246.741694 
L 115.397021 246.741694 
L 115.397021 243.873435 
L 115.711251 243.873435 
L 115.711251 236.415963 
L 116.019919 236.415963 
L 116.019919 234.695008 
L 116.621333 234.695008 
L 116.621333 234.121356 
L 118.039942 234.121356 
L 118.039942 231.826749 
L 118.576578 231.826749 
L 118.576578 230.679446 
L 119.097192 230.679446 
L 119.097192 230.105794 
L 121.264855 230.105794 
L 121.264855 229.532142 
L 122.148045 229.532142 
L 122.148045 225.51658 
L 122.988655 225.51658 
L 122.988655 224.369277 
L 123.192626 224.369277 
L 123.192626 222.648321 
L 123.593547 222.648321 
L 123.593547 220.353715 
L 125.291682 220.353715 
L 125.291682 218.059108 
L 125.470548 218.059108 
L 125.470548 216.911804 
L 126.50685 216.911804 
L 126.50685 215.764501 
L 127.002787 215.764501 
L 127.002787 215.190849 
L 127.954256 215.190849 
L 127.954256 212.896242 
L 128.560901 212.896242 
L 128.560901 212.322591 
L 129.147151 212.322591 
L 129.147151 211.748939 
L 130.127931 211.748939 
L 130.127931 200.849556 
L 130.263646 200.849556 
L 130.263646 199.702253 
L 131.056477 199.702253 
L 131.056477 199.128601 
L 133.57787 199.128601 
L 133.57787 198.554949 
L 133.689303 198.554949 
L 133.689303 196.833994 
L 134.973757 196.833994 
L 134.973757 187.655567 
L 139.964909 187.655567 
L 139.964909 187.081915 
L 140.423864 187.081915 
L 140.423864 184.787308 
L 140.64889 184.787308 
L 140.64889 183.066353 
L 190.171705 183.066353 
L 190.280253 181.345398 
L 190.297558 181.345398 
L 190.405328 172.16697 
L 190.409625 172.16697 
L 190.516707 168.72506 
L 190.533779 168.72506 
L 190.589149 164.709498 
L 190.652819 164.709498 
L 190.720479 156.104722 
L 190.838255 156.104722 
L 190.888488 149.220902 
L 191.145746 149.220902 
L 191.22383 146.352643 
L 202.257515 146.352643 
L 202.335748 140.616126 
L 202.376896 140.616126 
L 202.467512 137.174215 
L 202.531951 137.174215 
L 202.619634 118.817361 
L 202.751397 118.817361 
L 202.757747 117.670057 
L 209.369868 117.670057 
L 209.466653 109.638933 
L 209.511253 109.638933 
L 209.570066 99.313202 
L 209.658626 99.313202 
L 209.685676 96.444944 
L 214.383577 96.444944 
L 214.483262 86.119213 
L 214.513488 86.119213 
L 214.593119 82.677302 
L 218.266998 82.677302 
L 218.345961 73.498875 
L 218.381422 73.498875 
L 218.437493 67.762358 
L 221.44119 67.762358 
L 221.536626 58.010278 
L 221.581272 58.010278 
L 221.594931 56.289323 
L 224.125635 56.289323 
L 224.207486 47.684547 
L 224.247651 47.684547 
L 224.247651 47.110896 
L 226.451452 47.110896 
L 226.55828 43.095334 
L 228.503267 43.095334 
L 228.605963 36.785165 
L 230.338889 36.785165 
L 230.431352 31.622299 
L 231.999566 31.622299 
L 232.077349 27.606737 
L 233.515762 27.606737 
L 233.587081 24.164827 
L 234.941064 24.164827 
L 234.975463 19.575613 
L 236.202121 19.575613 
L 236.243122 16.133703 
L 237.430934 16.133703 
L 237.430934 14.9864 
L 238.565258 14.9864 
L 238.565258 14.412748 
L 239.609324 14.412748 
L 239.609324 13.839096 
L 240.604307 13.839096 
L 240.614209 12.691793 
L 241.524729 12.691793 
L 241.524729 12.118141 
L 242.438625 12.118141 
L 242.438625 11.544489 
L 244.080232 11.544489 
L 244.098236 10.397186 
L 244.880095 10.397186 
L 244.892381 9.249882 
L 245.631118 9.249882 
L 245.631118 8.676231 
L 250.077351 8.676231 
L 250.077351 8.102579 
L 252.191086 8.102579 
L 252.191086 7.528927 
L 252.689637 7.528927 
L 252.689637 6.955275 
L 254.071523 6.955275 
L 254.071523 6.381624 
L 338.688 6.381624 
L 338.688 6.381624 
" style="fill:none;stroke:#ff00ff;stroke-linecap:square;stroke-width:1.5;"/>
   </g>
   <g id="line2d_35">
    <defs>
     <path d="M -0 8.485281 
L 5.091169 0 
L 0 -8.485281 
L -5.091169 -0 
z
" id="m97e63b7231" style="stroke:#ff00ff;stroke-linejoin:miter;stroke-width:1.5;"/>
    </defs>
    <g>
     <use style="fill-opacity:0;stroke:#ff00ff;stroke-linejoin:miter;stroke-width:1.5;" x="104.826449" xlink:href="#m97e63b7231" y="272.556021"/>
     <use style="fill-opacity:0;stroke:#ff00ff;stroke-linejoin:miter;stroke-width:1.5;" x="140.64889" xlink:href="#m97e63b7231" y="184.787308"/>
     <use style="fill-opacity:0;stroke:#ff00ff;stroke-linejoin:miter;stroke-width:1.5;" x="209.511253" xlink:href="#m97e63b7231" y="109.638933"/>
     <use style="fill-opacity:0;stroke:#ff00ff;stroke-linejoin:miter;stroke-width:1.5;" x="244.098236" xlink:href="#m97e63b7231" y="10.970838"/>
     <use style="fill-opacity:0;stroke:#ff00ff;stroke-linejoin:miter;stroke-width:1.5;" x="254.071523" xlink:href="#m97e63b7231" y="6.381624"/>
     <use style="fill-opacity:0;stroke:#ff00ff;stroke-linejoin:miter;stroke-width:1.5;" x="338.688" xlink:href="#m97e63b7231" y="6.381624"/>
    </g>
   </g>
   <g id="line2d_36">
    <path style="fill:none;stroke:#ff00ff;stroke-linecap:square;stroke-width:1.5;"/>
    <g/>
   </g>
   <g id="line2d_37">
    <path clip-path="url(#p2e5123514f)" d="M 190.167349 183.066353 
" style="fill:none;stroke:#ff00ff;stroke-linecap:square;stroke-width:1.5;"/>
    <defs>
     <path d="M -12 12 
L 12 -12 
M -12 -12 
L 12 12 
" id="m5bea3d29cf" style="stroke:#ff00ff;"/>
    </defs>
    <g clip-path="url(#p2e5123514f)">
     <use style="fill:#ff00ff;stroke:#ff00ff;" x="190.167349" xlink:href="#m5bea3d29cf" y="183.066353"/>
    </g>
   </g>
   <g id="line2d_38">
    <defs>
     <path d="M 0 1.5 
C 0.397805 1.5 0.77937 1.341951 1.06066 1.06066 
C 1.341951 0.77937 1.5 0.397805 1.5 0 
C 1.5 -0.397805 1.341951 -0.77937 1.06066 -1.06066 
C 0.77937 -1.341951 0.397805 -1.5 0 -1.5 
C -0.397805 -1.5 -0.77937 -1.341951 -1.06066 -1.06066 
C -1.341951 -0.77937 -1.5 -0.397805 -1.5 0 
C -1.5 0.397805 -1.341951 0.77937 -1.06066 1.06066 
C -0.77937 1.341951 -0.397805 1.5 0 1.5 
z
" id="mf71e171cff" style="stroke:#ff7500;"/>
    </defs>
    <g>
     <use style="fill:#ff7500;stroke:#ff7500;" x="183.124623" xlink:href="#mf71e171cff" y="6.381624"/>
     <use style="fill:#ff7500;stroke:#ff7500;" x="183.124623" xlink:href="#mf71e171cff" y="6.381624"/>
    </g>
   </g>
   <g id="line2d_39">
    <path d="M 45.512012 298.944 
L 45.512012 290.912876 
L 64.67102 290.912876 
L 64.67102 289.765573 
L 69.687988 289.765573 
L 69.687988 288.044617 
L 73.579452 288.044617 
L 73.579452 285.176359 
L 81.775977 285.176359 
L 81.775977 284.029055 
L 87.329581 284.029055 
L 87.329581 280.013493 
L 91.535274 280.013493 
L 91.535274 278.86619 
L 93.863965 278.86619 
L 93.863965 277.718886 
L 97.755429 277.718886 
L 97.755429 274.276976 
L 98.606294 274.276976 
L 98.606294 271.982369 
L 100.192776 271.982369 
L 100.192776 270.835066 
L 100.934985 270.835066 
L 100.934985 270.261414 
L 102.330873 270.261414 
L 102.330873 269.687762 
L 104.826449 269.687762 
L 104.826449 266.245852 
L 105.398279 266.245852 
L 105.398279 265.6722 
L 106.48859 265.6722 
L 106.48859 265.098549 
L 107.009204 265.098549 
L 107.009204 262.23029 
L 107.514726 262.23029 
L 107.514726 261.656638 
L 108.006005 261.656638 
L 108.006005 261.082987 
L 108.483824 261.082987 
L 108.483824 260.509335 
L 108.948899 260.509335 
L 108.948899 257.067425 
L 109.843417 257.067425 
L 109.843417 253.625514 
L 113.382559 253.625514 
L 113.382559 252.478211 
L 114.751048 252.478211 
L 114.751048 251.330907 
L 115.397021 251.330907 
L 115.397021 250.757256 
L 115.711251 250.757256 
L 115.711251 250.183604 
L 116.019919 250.183604 
L 116.019919 248.462649 
L 116.621333 248.462649 
L 116.621333 247.888997 
L 118.039942 247.888997 
L 118.039942 242.726132 
L 119.097192 242.726132 
L 119.097192 241.005176 
L 120.571812 241.005176 
L 120.571812 238.136918 
L 121.036887 238.136918 
L 121.036887 237.563266 
L 121.264855 237.563266 
L 121.264855 236.989614 
L 121.489881 236.989614 
L 121.489881 232.974052 
L 121.931406 232.974052 
L 121.931406 230.679446 
L 124.743806 230.679446 
L 124.743806 229.532142 
L 127.002787 229.532142 
L 127.002787 228.95849 
L 128.260216 228.95849 
L 128.260216 228.384839 
L 129.991152 228.384839 
L 129.991152 226.090232 
L 130.531948 226.090232 
L 130.531948 225.51658 
L 131.938072 225.51658 
L 131.938072 224.369277 
L 132.541568 224.369277 
L 132.541568 223.795625 
L 133.57787 223.795625 
L 133.57787 222.648321 
L 137.647286 222.648321 
L 137.647286 220.927366 
L 138.426341 220.927366 
L 138.426341 220.353715 
L 138.594838 220.353715 
L 138.594838 219.780063 
L 141.017599 219.780063 
L 141.017599 219.206411 
L 141.45 219.206411 
L 141.45 218.059108 
L 144.087359 218.059108 
L 144.087359 217.485456 
L 144.747789 217.485456 
L 144.747789 216.911804 
L 145.155404 216.911804 
L 145.212864 215.190849 
L 146.052799 215.190849 
L 146.107383 214.043546 
L 146.696785 214.043546 
L 146.749392 211.175287 
L 147.061745 211.175287 
L 147.061745 210.601635 
L 147.917524 210.601635 
L 147.917524 210.027984 
L 148.780082 210.027984 
L 148.780082 209.454332 
L 148.966103 209.454332 
L 148.966103 208.88068 
L 149.557321 208.88068 
L 149.557321 207.733377 
L 150.042389 207.733377 
L 150.042389 206.586073 
L 150.598782 206.586073 
L 150.598782 206.012422 
L 150.891184 206.012422 
L 150.891184 205.43877 
L 151.13797 205.43877 
L 151.178764 203.717815 
L 152.091608 203.717815 
L 152.130233 202.570511 
L 152.283884 202.570511 
L 152.283884 201.99686 
L 152.699575 201.99686 
L 152.699575 201.423208 
L 152.885298 201.423208 
L 152.885298 200.275904 
L 153.178403 200.275904 
L 153.178403 199.702253 
L 153.573542 199.702253 
L 153.679772 198.554949 
L 153.785358 198.554949 
L 153.785358 197.981298 
L 154.063835 197.981298 
L 154.063835 197.407646 
L 154.641235 197.407646 
L 154.674612 196.260342 
L 154.840544 196.260342 
L 154.840544 195.686691 
L 155.457066 195.686691 
L 155.55245 193.965736 
L 156.083319 193.965736 
L 156.083319 193.392084 
L 156.205916 193.392084 
L 156.297301 192.24478 
L 156.478647 192.24478 
L 156.478647 191.097477 
L 156.628341 191.097477 
L 156.658127 189.950174 
L 156.776762 189.950174 
L 156.776762 188.80287 
L 157.011638 188.80287 
L 157.011638 188.229218 
L 157.214591 188.229218 
L 157.272146 187.081915 
L 157.358125 187.081915 
L 157.358125 186.508263 
L 157.781772 186.508263 
L 157.837488 185.36096 
L 157.920731 185.36096 
L 158.003578 184.213656 
L 158.249784 184.213656 
L 158.358103 180.198094 
L 158.412011 180.198094 
L 158.492562 177.329836 
L 158.67908 177.329836 
L 158.67908 176.756184 
L 159.020266 176.756184 
L 159.020266 176.182532 
L 159.252621 176.182532 
L 159.32939 173.887925 
L 159.557689 173.887925 
L 159.608019 172.740622 
L 159.857512 172.740622 
L 159.857512 172.16697 
L 160.005512 172.16697 
L 160.030058 171.019667 
L 160.176607 171.019667 
L 160.176607 170.446015 
L 160.346039 170.446015 
L 160.394148 165.28315 
L 160.513841 165.28315 
L 160.585265 164.135846 
L 160.680044 164.135846 
L 160.750792 158.399329 
L 160.914762 158.399329 
L 160.961329 155.53107 
L 161.054091 155.53107 
L 161.146363 151.515508 
L 161.215247 151.515508 
L 161.306672 148.073598 
L 161.329454 148.073598 
L 161.329454 147.499946 
L 161.510643 147.499946 
L 161.555647 145.20534 
L 161.756743 145.20534 
L 161.84538 141.189778 
L 161.88953 141.189778 
L 161.955547 138.321519 
L 162.021314 138.321519 
L 162.065021 134.305957 
L 162.173813 134.305957 
L 162.173813 130.864047 
L 162.303474 130.864047 
L 162.346481 128.56944 
L 162.62347 128.56944 
L 162.62347 127.995788 
L 163.061823 127.995788 
L 163.061823 126.274833 
L 163.205526 126.274833 
L 163.307451 122.832923 
L 163.348054 122.832923 
L 163.348054 122.259271 
L 163.489428 122.259271 
L 163.52961 118.817361 
L 163.629664 118.817361 
L 163.729146 116.522754 
L 163.906798 116.522754 
L 163.965615 114.801798 
L 164.063205 114.801798 
L 164.160252 113.080843 
L 164.19892 113.080843 
L 164.256762 110.786236 
L 164.371873 110.786236 
L 164.429145 109.065281 
L 164.524182 109.065281 
L 164.618704 107.344326 
L 164.880672 107.344326 
L 164.880672 106.770674 
L 165.010195 106.770674 
L 165.010195 106.197023 
L 165.320804 106.197023 
L 165.429123 105.049719 
L 165.483031 105.049719 
L 165.59035 102.181461 
L 165.643763 102.181461 
L 165.643763 101.607809 
L 165.855793 101.607809 
L 165.960849 99.886854 
L 166.065276 99.886854 
L 166.151824 97.018595 
L 166.203547 97.018595 
L 166.306535 94.723988 
L 166.357802 94.723988 
L 166.357802 94.150337 
L 166.476842 94.150337 
L 166.527611 91.85573 
L 166.662278 91.85573 
L 166.662278 91.282078 
L 166.878918 91.282078 
L 166.91201 87.840168 
L 167.06015 87.840168 
L 167.06015 86.119213 
L 167.207042 86.119213 
L 167.223287 84.971909 
L 167.336582 84.971909 
L 167.352708 78.66174 
L 167.449146 78.66174 
L 167.449146 76.940785 
L 167.735303 76.940785 
L 167.735303 74.072526 
L 167.860992 74.072526 
L 167.93909 71.204268 
L 168.047843 71.204268 
L 168.078792 69.483313 
L 168.171308 69.483313 
L 168.232714 66.041402 
L 168.385289 66.041402 
L 168.46108 63.746796 
L 168.551595 63.746796 
L 168.596677 62.02584 
L 168.760989 62.02584 
L 168.86475 54.568368 
L 168.9532 54.568368 
L 168.9532 52.847413 
L 169.215888 52.847413 
L 169.27373 49.979154 
L 169.331381 49.979154 
L 169.331381 48.831851 
L 169.687442 48.831851 
L 169.687442 48.258199 
L 169.967148 48.258199 
L 170.036379 46.537244 
L 170.174022 46.537244 
L 170.174022 43.095334 
L 170.296979 43.095334 
L 170.310587 41.94803 
L 170.459584 41.94803 
L 170.553741 39.079772 
L 170.58055 39.079772 
L 170.59394 36.785165 
L 170.740545 36.785165 
L 170.806779 33.916906 
L 171.18605 33.916906 
L 171.18605 31.048648 
L 173.280304 31.048648 
L 173.280304 28.754041 
L 173.900183 28.754041 
L 173.900183 28.180389 
L 174.185719 28.180389 
L 174.229235 27.033086 
L 174.337554 27.033086 
L 174.337554 24.164827 
L 175.211544 24.164827 
L 175.211544 23.017524 
L 175.767465 23.017524 
L 175.767465 22.443872 
L 177.588952 22.443872 
L 177.588952 21.87022 
L 177.987632 21.87022 
L 177.987632 21.296568 
L 179.440696 21.296568 
L 179.497017 19.575613 
L 180.533936 19.575613 
L 180.533936 19.001962 
L 180.796864 19.001962 
L 180.796864 17.854658 
L 181.347276 17.854658 
L 181.419369 16.133703 
L 181.498329 16.133703 
L 181.519801 14.9864 
L 181.676464 14.9864 
L 181.676464 12.691793 
L 181.978663 12.691793 
L 181.978663 9.249882 
L 182.587988 9.249882 
L 182.587988 7.528927 
L 183.124623 7.528927 
L 183.124623 6.381624 
L 338.688 6.381624 
L 338.688 6.381624 
" style="fill:none;stroke:#ff7500;stroke-linecap:square;stroke-width:1.5;"/>
   </g>
   <g id="line2d_40">
    <defs>
     <path d="M 0 -6 
L -1.347084 -1.854102 
L -5.706339 -1.854102 
L -2.179628 0.708204 
L -3.526712 4.854102 
L -0 2.291796 
L 3.526712 4.854102 
L 2.179628 0.708204 
L 5.706339 -1.854102 
L 1.347084 -1.854102 
z
" id="mba404038fb" style="stroke:#ff7500;stroke-linejoin:bevel;stroke-width:1.5;"/>
    </defs>
    <g>
     <use style="fill-opacity:0;stroke:#ff7500;stroke-linejoin:bevel;stroke-width:1.5;" x="119.097192" xlink:href="#mba404038fb" y="242.726132"/>
     <use style="fill-opacity:0;stroke:#ff7500;stroke-linejoin:bevel;stroke-width:1.5;" x="166.357802" xlink:href="#mba404038fb" y="94.723988"/>
     <use style="fill-opacity:0;stroke:#ff7500;stroke-linejoin:bevel;stroke-width:1.5;" x="183.124623" xlink:href="#mba404038fb" y="7.528927"/>
     <use style="fill-opacity:0;stroke:#ff7500;stroke-linejoin:bevel;stroke-width:1.5;" x="183.124623" xlink:href="#mba404038fb" y="6.381624"/>
     <use style="fill-opacity:0;stroke:#ff7500;stroke-linejoin:bevel;stroke-width:1.5;" x="183.124623" xlink:href="#mba404038fb" y="6.381624"/>
     <use style="fill-opacity:0;stroke:#ff7500;stroke-linejoin:bevel;stroke-width:1.5;" x="338.688" xlink:href="#mba404038fb" y="6.381624"/>
    </g>
   </g>
   <g id="line2d_41">
    <path style="fill:none;stroke:#ff7500;stroke-linecap:square;stroke-width:1.5;"/>
    <g/>
   </g>
   <g id="line2d_42">
    <defs>
     <path d="M 0 1.5 
C 0.397805 1.5 0.77937 1.341951 1.06066 1.06066 
C 1.341951 0.77937 1.5 0.397805 1.5 0 
C 1.5 -0.397805 1.341951 -0.77937 1.06066 -1.06066 
C 0.77937 -1.341951 0.397805 -1.5 0 -1.5 
C -0.397805 -1.5 -0.77937 -1.341951 -1.06066 -1.06066 
C -1.341951 -0.77937 -1.5 -0.397805 -1.5 0 
C -1.5 0.397805 -1.341951 0.77937 -1.06066 1.06066 
C -0.77937 1.341951 -0.397805 1.5 0 1.5 
z
" id="m5003ccc43c" style="stroke:#6495ed;"/>
    </defs>
    <g>
     <use style="fill:#6495ed;stroke:#6495ed;" x="166.203547" xlink:href="#m5003ccc43c" y="6.381624"/>
     <use style="fill:#6495ed;stroke:#6495ed;" x="166.203547" xlink:href="#m5003ccc43c" y="6.381624"/>
    </g>
   </g>
   <g id="line2d_43">
    <path d="M 45.512012 298.944 
L 45.512012 264.524897 
L 57.6 264.524897 
L 57.6 253.625514 
L 64.67102 253.625514 
L 64.67102 250.183604 
L 69.687988 250.183604 
L 69.687988 244.447087 
L 73.579452 244.447087 
L 73.579452 241.005176 
L 76.759008 241.005176 
L 76.759008 238.136918 
L 79.447285 238.136918 
L 79.447285 234.121356 
L 81.775977 234.121356 
L 81.775977 228.95849 
L 85.66744 228.95849 
L 85.66744 227.237535 
L 88.846997 227.237535 
L 88.846997 223.221973 
L 90.242884 223.221973 
L 90.242884 221.501018 
L 92.73846 221.501018 
L 92.73846 220.353715 
L 94.921215 220.353715 
L 94.921215 218.632759 
L 95.918017 218.632759 
L 95.918017 218.059108 
L 96.86091 218.059108 
L 96.86091 217.485456 
L 97.755429 217.485456 
L 97.755429 216.911804 
L 101.646892 216.911804 
L 101.646892 215.764501 
L 102.989037 215.764501 
L 102.989037 215.190849 
L 108.483824 215.190849 
L 108.483824 214.617197 
L 111.104637 214.617197 
L 111.104637 212.896242 
L 114.418861 212.896242 
L 114.418861 212.322591 
L 115.397021 212.322591 
L 115.397021 211.748939 
L 115.711251 211.748939 
L 115.711251 211.175287 
L 122.148045 211.175287 
L 122.148045 210.601635 
L 125.110962 210.601635 
L 125.110962 210.027984 
L 125.822869 210.027984 
L 125.822869 209.454332 
L 126.673734 209.454332 
L 126.673734 208.88068 
L 128.411207 208.88068 
L 128.411207 208.307029 
L 130.926816 208.307029 
L 130.926816 207.733377 
L 131.439773 207.733377 
L 131.439773 207.159725 
L 131.938072 207.159725 
L 131.938072 206.586073 
L 132.422528 206.586073 
L 132.422528 206.012422 
L 132.893889 206.012422 
L 132.893889 205.43877 
L 133.46572 205.43877 
L 133.46572 204.291467 
L 133.910056 204.291467 
L 133.910056 203.717815 
L 134.55603 203.717815 
L 134.661403 201.423208 
L 135.482227 201.423208 
L 135.482227 200.849556 
L 135.681535 200.849556 
L 135.681535 200.275904 
L 136.456742 200.275904 
L 136.551264 197.407646 
L 136.831795 197.407646 
L 136.831795 196.833994 
L 137.198951 196.833994 
L 137.198951 192.24478 
L 137.558536 192.24478 
L 137.647286 191.097477 
L 137.823442 191.097477 
L 137.910857 188.80287 
L 138.67848 188.80287 
L 138.67848 188.229218 
L 139.730821 188.229218 
L 139.730821 187.655567 
L 139.964909 187.655567 
L 139.964909 186.508263 
L 140.723258 186.508263 
L 140.723258 185.934612 
L 141.378673 185.934612 
L 141.378673 185.36096 
L 142.010346 185.36096 
L 142.010346 184.213656 
L 142.283909 184.213656 
L 142.283909 183.066353 
L 142.486301 183.066353 
L 142.553247 181.345398 
L 142.884173 181.345398 
L 142.949611 179.624443 
L 143.014805 179.624443 
L 143.014805 177.903487 
L 143.337167 177.903487 
L 143.40093 176.756184 
L 143.653678 176.756184 
L 143.653678 176.182532 
L 144.087359 176.182532 
L 144.148442 175.035229 
L 144.390658 175.035229 
L 144.390658 174.461577 
L 144.806606 174.461577 
L 144.806606 172.16697 
L 144.923649 172.16697 
L 144.923649 171.019667 
L 145.270136 171.019667 
L 145.270136 170.446015 
L 145.497361 170.446015 
L 145.497361 169.298712 
L 146.161795 169.298712 
L 146.161795 168.72506 
L 146.324022 168.72506 
L 146.324022 167.577757 
L 146.484754 167.577757 
L 146.591092 160.120284 
L 146.749392 160.120284 
L 146.749392 158.972981 
L 146.958248 158.972981 
L 147.061745 157.825677 
L 147.113265 157.825677 
L 147.113265 156.678374 
L 147.266916 156.678374 
L 147.317833 155.53107 
L 147.620256 155.53107 
L 147.670154 154.383767 
L 147.818997 154.383767 
L 147.917524 147.499946 
L 148.064279 147.499946 
L 148.064279 146.926295 
L 148.54473 146.926295 
L 148.54473 145.20534 
L 148.87334 145.20534 
L 148.87334 144.631688 
L 149.195872 144.631688 
L 149.195872 142.910733 
L 149.332295 142.910733 
L 149.422654 139.468822 
L 149.646525 139.468822 
L 149.735275 138.321519 
L 149.955193 138.321519 
L 149.955193 137.747867 
L 150.429467 137.747867 
L 150.429467 137.174215 
L 150.556607 137.174215 
L 150.640855 134.879609 
L 150.766468 134.879609 
L 150.766468 134.305957 
L 150.891184 134.305957 
L 150.932558 132.585002 
L 151.13797 132.585002 
L 151.178764 129.143091 
L 151.260066 129.143091 
L 151.300575 127.422136 
L 151.461678 127.422136 
L 151.541675 125.127529 
L 151.581536 125.127529 
L 151.581536 123.980226 
L 151.700576 123.980226 
L 151.700576 122.832923 
L 151.818809 122.832923 
L 151.858043 121.111967 
L 151.936246 121.111967 
L 152.0141 116.522754 
L 152.052897 116.522754 
L 152.052897 115.949102 
L 152.474064 115.949102 
L 152.549559 113.080843 
L 152.587184 113.080843 
L 152.587184 112.507192 
L 152.699575 112.507192 
L 152.699575 111.93354 
L 152.811246 111.93354 
L 152.848312 109.638933 
L 153.178403 109.638933 
L 153.287059 106.197023 
L 153.395042 106.197023 
L 153.466662 103.902416 
L 153.715038 103.902416 
L 153.820412 101.034157 
L 153.890309 101.034157 
L 153.890309 97.592247 
L 154.303908 97.592247 
L 154.405793 94.723988 
L 154.507086 94.723988 
L 154.54072 92.429381 
L 154.641235 92.429381 
L 154.707925 88.987471 
L 154.840544 88.987471 
L 154.93935 87.840168 
L 155.004911 87.840168 
L 155.0376 86.119213 
L 155.232454 86.119213 
L 155.232454 84.398257 
L 155.425155 84.398257 
L 155.457066 80.382695 
L 155.55245 80.382695 
L 155.55245 79.809044 
L 155.804285 79.809044 
L 155.83551 78.66174 
L 155.959855 78.66174 
L 155.990803 74.646178 
L 156.236431 74.646178 
L 156.297301 73.498875 
L 156.38821 73.498875 
L 156.478647 72.351571 
L 156.628341 72.351571 
L 156.687861 70.630616 
L 156.835778 70.630616 
L 156.835778 68.336009 
L 156.98245 68.336009 
L 157.011638 67.188706 
L 157.098907 67.188706 
L 157.098907 66.041402 
L 157.613546 66.041402 
L 157.613546 64.894099 
L 157.976006 64.894099 
L 158.058592 63.173144 
L 158.140788 63.173144 
L 158.140788 61.452189 
L 158.304027 61.452189 
L 158.331086 56.862975 
L 158.492562 56.862975 
L 158.492562 55.14202 
L 158.75841 55.14202 
L 158.75841 52.273761 
L 159.32939 52.273761 
L 159.431225 49.405503 
L 159.456591 49.405503 
L 159.481921 48.258199 
L 159.608019 48.258199 
L 159.683242 44.242637 
L 159.857512 44.242637 
L 159.857512 43.668985 
L 160.200913 43.668985 
L 160.200913 43.095334 
L 160.394148 43.095334 
L 160.394148 40.800727 
L 160.513841 40.800727 
L 160.585265 39.079772 
L 160.703658 39.079772 
L 160.797798 37.932468 
L 161.054091 37.932468 
L 161.146363 34.490558 
L 161.238149 34.490558 
L 161.329454 32.195951 
L 161.555647 32.195951 
L 161.555647 31.622299 
L 161.734513 31.622299 
L 161.734513 31.048648 
L 161.867469 31.048648 
L 161.955547 29.327692 
L 162.065021 29.327692 
L 162.173813 28.180389 
L 162.346481 28.180389 
L 162.346481 27.606737 
L 162.581141 27.606737 
L 162.581141 27.033086 
L 162.958448 27.033086 
L 162.958448 26.459434 
L 163.307451 26.459434 
L 163.327764 23.017524 
L 163.52961 23.017524 
L 163.569701 21.87022 
L 163.689421 21.87022 
L 163.689421 21.296568 
L 163.946031 21.296568 
L 163.946031 17.854658 
L 164.082658 17.854658 
L 164.082658 16.133703 
L 164.314412 16.133703 
L 164.35274 13.265444 
L 164.880672 13.265444 
L 164.880672 11.544489 
L 165.157053 11.544489 
L 165.248216 8.676231 
L 165.500963 8.676231 
L 165.500963 8.102579 
L 165.9084 8.102579 
L 165.9084 7.528927 
L 166.203547 7.528927 
L 166.203547 6.381624 
L 338.688 6.381624 
L 338.688 6.381624 
" style="fill:none;stroke:#6495ed;stroke-linecap:square;stroke-width:1.5;"/>
   </g>
   <g id="line2d_44">
    <defs>
     <path d="M -0 6 
L 6 -6 
L -6 -6 
z
" id="m3a284d4d2f" style="stroke:#6495ed;stroke-linejoin:miter;stroke-width:1.5;"/>
    </defs>
    <g>
     <use style="fill-opacity:0;stroke:#6495ed;stroke-linejoin:miter;stroke-width:1.5;" x="92.73846" xlink:href="#m3a284d4d2f" y="220.353715"/>
     <use style="fill-opacity:0;stroke:#6495ed;stroke-linejoin:miter;stroke-width:1.5;" x="151.936246" xlink:href="#m3a284d4d2f" y="120.538316"/>
     <use style="fill-opacity:0;stroke:#6495ed;stroke-linejoin:miter;stroke-width:1.5;" x="166.203547" xlink:href="#m3a284d4d2f" y="7.528927"/>
     <use style="fill-opacity:0;stroke:#6495ed;stroke-linejoin:miter;stroke-width:1.5;" x="166.203547" xlink:href="#m3a284d4d2f" y="6.381624"/>
     <use style="fill-opacity:0;stroke:#6495ed;stroke-linejoin:miter;stroke-width:1.5;" x="166.203547" xlink:href="#m3a284d4d2f" y="6.381624"/>
     <use style="fill-opacity:0;stroke:#6495ed;stroke-linejoin:miter;stroke-width:1.5;" x="338.688" xlink:href="#m3a284d4d2f" y="6.381624"/>
    </g>
   </g>
   <g id="line2d_45">
    <path style="fill:none;stroke:#6495ed;stroke-linecap:square;stroke-width:1.5;"/>
    <g/>
   </g>
   <g id="line2d_46">
    <path d="M 338.688 6.381624 
L 369.60768 293.092752 
" style="fill:none;stroke:#ff00ff;stroke-linecap:square;stroke-width:1.5;"/>
    <g>
     <use style="fill-opacity:0;stroke:#ff00ff;stroke-linejoin:miter;stroke-width:1.5;" x="338.688" xlink:href="#m97e63b7231" y="6.381624"/>
     <use style="fill-opacity:0;stroke:#ff00ff;stroke-linejoin:miter;stroke-width:1.5;" x="369.60768" xlink:href="#m97e63b7231" y="293.092752"/>
    </g>
   </g>
   <g id="line2d_47">
    <path d="M 338.688 6.381624 
L 369.60768 199.472792 
" style="fill:none;stroke:#ff7500;stroke-linecap:square;stroke-width:1.5;"/>
    <g>
     <use style="fill-opacity:0;stroke:#ff7500;stroke-linejoin:bevel;stroke-width:1.5;" x="338.688" xlink:href="#mba404038fb" y="6.381624"/>
     <use style="fill-opacity:0;stroke:#ff7500;stroke-linejoin:bevel;stroke-width:1.5;" x="369.60768" xlink:href="#mba404038fb" y="199.472792"/>
    </g>
   </g>
   <g id="line2d_48">
    <path d="M 338.688 6.381624 
L 369.60768 105.852832 
" style="fill:none;stroke:#000080;stroke-linecap:square;stroke-width:1.5;"/>
    <g>
     <use style="fill-opacity:0;stroke:#000080;stroke-width:1.5;" x="338.688" xlink:href="#m0290b32b8f" y="6.381624"/>
     <use style="fill-opacity:0;stroke:#000080;stroke-width:1.5;" x="369.60768" xlink:href="#m0290b32b8f" y="105.852832"/>
    </g>
   </g>
   <g id="line2d_49">
    <path d="M 338.688 6.381624 
L 369.60768 12.232871 
" style="fill:none;stroke:#6495ed;stroke-linecap:square;stroke-width:1.5;"/>
    <g>
     <use style="fill-opacity:0;stroke:#6495ed;stroke-linejoin:miter;stroke-width:1.5;" x="338.688" xlink:href="#m3a284d4d2f" y="6.381624"/>
     <use style="fill-opacity:0;stroke:#6495ed;stroke-linejoin:miter;stroke-width:1.5;" x="369.60768" xlink:href="#m3a284d4d2f" y="12.232871"/>
    </g>
   </g>
   <g id="line2d_50">
    <path d="M 338.688 298.944 
L 338.688 6.381624 
" style="fill:none;stroke:#000000;stroke-linecap:square;stroke-width:1.5;"/>
   </g>
   <g id="patch_3">
    <path d="M 57.6 298.944 
L 57.6 3.456 
" style="fill:none;stroke:#000000;stroke-linecap:square;stroke-linejoin:miter;stroke-width:0.8;"/>
   </g>
   <g id="patch_4">
    <path d="M 338.688 298.944 
L 338.688 3.456 
" style="fill:none;stroke:#000000;stroke-linecap:square;stroke-linejoin:miter;stroke-width:0.8;"/>
   </g>
   <g id="patch_5">
    <path d="M 57.6 298.944 
L 338.688 298.944 
" style="fill:none;stroke:#000000;stroke-linecap:square;stroke-linejoin:miter;stroke-width:0.8;"/>
   </g>
   <g id="patch_6">
    <path d="M 57.6 3.456 
L 338.688 3.456 
" style="fill:none;stroke:#000000;stroke-linecap:square;stroke-linejoin:miter;stroke-width:0.8;"/>
   </g>
   <g id="text_13">
    <!-- f7 -->
    <g transform="translate(375.22944 297.78369)scale(0.17 -0.17)">
     <defs>
      <path d="M 8.203125 72.90625 
L 55.078125 72.90625 
L 55.078125 68.703125 
L 28.609375 0 
L 18.3125 0 
L 43.21875 64.59375 
L 8.203125 64.59375 
z
" id="DejaVuSans-55"/>
     </defs>
     <use xlink:href="#DejaVuSans-102"/>
     <use x="35.205078" xlink:href="#DejaVuSans-55"/>
    </g>
   </g>
   <g id="text_14">
    <!-- f8 -->
    <g transform="translate(375.22944 204.16373)scale(0.17 -0.17)">
     <use xlink:href="#DejaVuSans-102"/>
     <use x="35.205078" xlink:href="#DejaVuSans-56"/>
    </g>
   </g>
   <g id="text_15">
    <!-- f6 -->
    <g transform="translate(375.22944 110.543769)scale(0.17 -0.17)">
     <use xlink:href="#DejaVuSans-102"/>
     <use x="35.205078" xlink:href="#DejaVuSans-54"/>
    </g>
   </g>
   <g id="text_16">
    <!-- f9 -->
    <g transform="translate(375.22944 16.923809)scale(0.17 -0.17)">
     <defs>
      <path d="M 10.984375 1.515625 
L 10.984375 10.5 
Q 14.703125 8.734375 18.5 7.8125 
Q 22.3125 6.890625 25.984375 6.890625 
Q 35.75 6.890625 40.890625 13.453125 
Q 46.046875 20.015625 46.78125 33.40625 
Q 43.953125 29.203125 39.59375 26.953125 
Q 35.25 24.703125 29.984375 24.703125 
Q 19.046875 24.703125 12.671875 31.3125 
Q 6.296875 37.9375 6.296875 49.421875 
Q 6.296875 60.640625 12.9375 67.421875 
Q 19.578125 74.21875 30.609375 74.21875 
Q 43.265625 74.21875 49.921875 64.515625 
Q 56.59375 54.828125 56.59375 36.375 
Q 56.59375 19.140625 48.40625 8.859375 
Q 40.234375 -1.421875 26.421875 -1.421875 
Q 22.703125 -1.421875 18.890625 -0.6875 
Q 15.09375 0.046875 10.984375 1.515625 
z
M 30.609375 32.421875 
Q 37.25 32.421875 41.125 36.953125 
Q 45.015625 41.5 45.015625 49.421875 
Q 45.015625 57.28125 41.125 61.84375 
Q 37.25 66.40625 30.609375 66.40625 
Q 23.96875 66.40625 20.09375 61.84375 
Q 16.21875 57.28125 16.21875 49.421875 
Q 16.21875 41.5 20.09375 36.953125 
Q 23.96875 32.421875 30.609375 32.421875 
z
" id="DejaVuSans-57"/>
     </defs>
     <use xlink:href="#DejaVuSans-102"/>
     <use x="35.205078" xlink:href="#DejaVuSans-57"/>
    </g>
   </g>
   <g id="text_17">
    <!-- bbob -->
    <g transform="translate(60.41088 14.161286)scale(0.102 -0.102)">
     <defs>
      <path d="M 48.6875 27.296875 
Q 48.6875 37.203125 44.609375 42.84375 
Q 40.53125 48.484375 33.40625 48.484375 
Q 26.265625 48.484375 22.1875 42.84375 
Q 18.109375 37.203125 18.109375 27.296875 
Q 18.109375 17.390625 22.1875 11.75 
Q 26.265625 6.109375 33.40625 6.109375 
Q 40.53125 6.109375 44.609375 11.75 
Q 48.6875 17.390625 48.6875 27.296875 
z
M 18.109375 46.390625 
Q 20.953125 51.265625 25.265625 53.625 
Q 29.59375 56 35.59375 56 
Q 45.5625 56 51.78125 48.09375 
Q 58.015625 40.1875 58.015625 27.296875 
Q 58.015625 14.40625 51.78125 6.484375 
Q 45.5625 -1.421875 35.59375 -1.421875 
Q 29.59375 -1.421875 25.265625 0.953125 
Q 20.953125 3.328125 18.109375 8.203125 
L 18.109375 0 
L 9.078125 0 
L 9.078125 75.984375 
L 18.109375 75.984375 
z
" id="DejaVuSans-98"/>
     </defs>
     <use xlink:href="#DejaVuSans-98"/>
     <use x="63.476562" xlink:href="#DejaVuSans-98"/>
     <use x="126.953125" xlink:href="#DejaVuSans-111"/>
     <use x="188.134766" xlink:href="#DejaVuSans-98"/>
    </g>
    <!-- Misc. moderate functions, 2-D -->
    <g transform="translate(60.41088 25.583055)scale(0.102 -0.102)">
     <defs>
      <path d="M 9.8125 72.90625 
L 24.515625 72.90625 
L 43.109375 23.296875 
L 61.8125 72.90625 
L 76.515625 72.90625 
L 76.515625 0 
L 66.890625 0 
L 66.890625 64.015625 
L 48.09375 14.015625 
L 38.1875 14.015625 
L 19.390625 64.015625 
L 19.390625 0 
L 9.8125 0 
z
" id="DejaVuSans-77"/>
      <path d="M 19.671875 64.796875 
L 19.671875 8.109375 
L 31.59375 8.109375 
Q 46.6875 8.109375 53.6875 14.9375 
Q 60.6875 21.78125 60.6875 36.53125 
Q 60.6875 51.171875 53.6875 57.984375 
Q 46.6875 64.796875 31.59375 64.796875 
z
M 9.8125 72.90625 
L 30.078125 72.90625 
Q 51.265625 72.90625 61.171875 64.09375 
Q 71.09375 55.28125 71.09375 36.53125 
Q 71.09375 17.671875 61.125 8.828125 
Q 51.171875 0 30.078125 0 
L 9.8125 0 
z
" id="DejaVuSans-68"/>
     </defs>
     <use xlink:href="#DejaVuSans-77"/>
     <use x="86.279297" xlink:href="#DejaVuSans-105"/>
     <use x="114.0625" xlink:href="#DejaVuSans-115"/>
     <use x="166.162109" xlink:href="#DejaVuSans-99"/>
     <use x="221.142578" xlink:href="#DejaVuSans-46"/>
     <use x="252.929688" xlink:href="#DejaVuSans-32"/>
     <use x="284.716797" xlink:href="#DejaVuSans-109"/>
     <use x="382.128906" xlink:href="#DejaVuSans-111"/>
     <use x="443.310547" xlink:href="#DejaVuSans-100"/>
     <use x="506.787109" xlink:href="#DejaVuSans-101"/>
     <use x="568.310547" xlink:href="#DejaVuSans-114"/>
     <use x="609.423828" xlink:href="#DejaVuSans-97"/>
     <use x="670.703125" xlink:href="#DejaVuSans-116"/>
     <use x="709.912109" xlink:href="#DejaVuSans-101"/>
     <use x="771.435547" xlink:href="#DejaVuSans-32"/>
     <use x="803.222656" xlink:href="#DejaVuSans-102"/>
     <use x="838.427734" xlink:href="#DejaVuSans-117"/>
     <use x="901.806641" xlink:href="#DejaVuSans-110"/>
     <use x="965.185547" xlink:href="#DejaVuSans-99"/>
     <use x="1020.166016" xlink:href="#DejaVuSans-116"/>
     <use x="1059.375" xlink:href="#DejaVuSans-105"/>
     <use x="1087.158203" xlink:href="#DejaVuSans-111"/>
     <use x="1148.339844" xlink:href="#DejaVuSans-110"/>
     <use x="1211.71875" xlink:href="#DejaVuSans-115"/>
     <use x="1263.818359" xlink:href="#DejaVuSans-44"/>
     <use x="1295.605469" xlink:href="#DejaVuSans-32"/>
     <use x="1327.392578" xlink:href="#DejaVuSans-50"/>
     <use x="1391.015625" xlink:href="#DejaVuSans-45"/>
     <use x="1427.099609" xlink:href="#DejaVuSans-68"/>
    </g>
    <!-- 51 targets: 100..1e-08 -->
    <g transform="translate(60.41088 37.004824)scale(0.102 -0.102)">
     <defs>
      <path d="M 10.796875 72.90625 
L 49.515625 72.90625 
L 49.515625 64.59375 
L 19.828125 64.59375 
L 19.828125 46.734375 
Q 21.96875 47.46875 24.109375 47.828125 
Q 26.265625 48.1875 28.421875 48.1875 
Q 40.625 48.1875 47.75 41.5 
Q 54.890625 34.8125 54.890625 23.390625 
Q 54.890625 11.625 47.5625 5.09375 
Q 40.234375 -1.421875 26.90625 -1.421875 
Q 22.3125 -1.421875 17.546875 -0.640625 
Q 12.796875 0.140625 7.71875 1.703125 
L 7.71875 11.625 
Q 12.109375 9.234375 16.796875 8.0625 
Q 21.484375 6.890625 26.703125 6.890625 
Q 35.15625 6.890625 40.078125 11.328125 
Q 45.015625 15.765625 45.015625 23.390625 
Q 45.015625 31 40.078125 35.4375 
Q 35.15625 39.890625 26.703125 39.890625 
Q 22.75 39.890625 18.8125 39.015625 
Q 14.890625 38.140625 10.796875 36.28125 
z
" id="DejaVuSans-53"/>
      <path d="M 11.71875 12.40625 
L 22.015625 12.40625 
L 22.015625 0 
L 11.71875 0 
z
M 11.71875 51.703125 
L 22.015625 51.703125 
L 22.015625 39.3125 
L 11.71875 39.3125 
z
" id="DejaVuSans-58"/>
     </defs>
     <use xlink:href="#DejaVuSans-53"/>
     <use x="63.623047" xlink:href="#DejaVuSans-49"/>
     <use x="127.246094" xlink:href="#DejaVuSans-32"/>
     <use x="159.033203" xlink:href="#DejaVuSans-116"/>
     <use x="198.242188" xlink:href="#DejaVuSans-97"/>
     <use x="259.521484" xlink:href="#DejaVuSans-114"/>
     <use x="298.884766" xlink:href="#DejaVuSans-103"/>
     <use x="362.361328" xlink:href="#DejaVuSans-101"/>
     <use x="423.884766" xlink:href="#DejaVuSans-116"/>
     <use x="463.09375" xlink:href="#DejaVuSans-115"/>
     <use x="515.193359" xlink:href="#DejaVuSans-58"/>
     <use x="548.884766" xlink:href="#DejaVuSans-32"/>
     <use x="580.671875" xlink:href="#DejaVuSans-49"/>
     <use x="644.294922" xlink:href="#DejaVuSans-48"/>
     <use x="707.917969" xlink:href="#DejaVuSans-48"/>
     <use x="771.541016" xlink:href="#DejaVuSans-46"/>
     <use x="803.328125" xlink:href="#DejaVuSans-46"/>
     <use x="835.115234" xlink:href="#DejaVuSans-49"/>
     <use x="898.738281" xlink:href="#DejaVuSans-101"/>
     <use x="960.261719" xlink:href="#DejaVuSans-45"/>
     <use x="996.345703" xlink:href="#DejaVuSans-48"/>
     <use x="1059.96875" xlink:href="#DejaVuSans-56"/>
    </g>
    <!-- 15 instances -->
    <g transform="translate(60.41088 48.426593)scale(0.102 -0.102)">
     <use xlink:href="#DejaVuSans-49"/>
     <use x="63.623047" xlink:href="#DejaVuSans-53"/>
     <use x="127.246094" xlink:href="#DejaVuSans-32"/>
     <use x="159.033203" xlink:href="#DejaVuSans-105"/>
     <use x="186.816406" xlink:href="#DejaVuSans-110"/>
     <use x="250.195312" xlink:href="#DejaVuSans-115"/>
     <use x="302.294922" xlink:href="#DejaVuSans-116"/>
     <use x="341.503906" xlink:href="#DejaVuSans-97"/>
     <use x="402.783203" xlink:href="#DejaVuSans-110"/>
     <use x="466.162109" xlink:href="#DejaVuSans-99"/>
     <use x="521.142578" xlink:href="#DejaVuSans-101"/>
     <use x="582.666016" xlink:href="#DejaVuSans-115"/>
    </g>
   </g>
   <g id="text_18">
    <!-- v2.4 -->
    <g style="fill:#808080;" transform="translate(187.233062 293.909432)scale(0.1 -0.1)">
     <use xlink:href="#DejaVuSans-118"/>
     <use x="59.179688" xlink:href="#DejaVuSans-50"/>
     <use x="122.802734" xlink:href="#DejaVuSans-46"/>
     <use x="154.589844" xlink:href="#DejaVuSans-52"/>
    </g>
   </g>
  </g>
 </g>
 <defs>
  <clipPath id="p2e5123514f">
   <rect height="295.488" width="281.088" x="57.6" y="3.456"/>
  </clipPath>
 </defs>
</svg>
