<?xml version="1.0" encoding="utf-8" standalone="no"?>
<!DOCTYPE svg PUBLIC "-//W3C//DTD SVG 1.1//EN"
  "http://www.w3.org/Graphics/SVG/1.1/DTD/svg11.dtd">
<!-- Created with matplotlib (https://matplotlib.org/) -->
<svg height="345.6pt" version="1.1" viewBox="0 0 460.8 345.6" width="460.8pt" xmlns="http://www.w3.org/2000/svg" xmlns:xlink="http://www.w3.org/1999/xlink">
 <metadata>
  <rdf:RDF xmlns:cc="http://creativecommons.org/ns#" xmlns:dc="http://purl.org/dc/elements/1.1/" xmlns:rdf="http://www.w3.org/1999/02/22-rdf-syntax-ns#">
   <cc:Work>
    <dc:type rdf:resource="http://purl.org/dc/dcmitype/StillImage"/>
    <dc:date>2021-06-17T01:37:26.354445</dc:date>
    <dc:format>image/svg+xml</dc:format>
    <dc:creator>
     <cc:Agent>
      <dc:title>Matplotlib v3.3.4, https://matplotlib.org/</dc:title>
     </cc:Agent>
    </dc:creator>
   </cc:Work>
  </rdf:RDF>
 </metadata>
 <defs>
  <style type="text/css">*{stroke-linecap:butt;stroke-linejoin:round;}</style>
 </defs>
 <g id="figure_1">
  <g id="patch_1">
   <path d="M 0 345.6 
L 460.8 345.6 
L 460.8 0 
L 0 0 
z
" style="fill:#ffffff;"/>
  </g>
  <g id="axes_1">
   <g id="patch_2">
    <path d="M 57.6 298.944 
L 338.688 298.944 
L 338.688 3.456 
L 57.6 3.456 
z
" style="fill:#ffffff;"/>
   </g>
   <g id="matplotlib.axis_1">
    <g id="xtick_1">
     <g id="line2d_1">
      <path clip-path="url(#p1a85273a8e)" d="M 57.6 298.944 
L 57.6 3.456 
" style="fill:none;stroke:#b0b0b0;stroke-linecap:square;stroke-width:0.8;"/>
     </g>
     <g id="line2d_2">
      <defs>
       <path d="M 0 0 
L 0 3.5 
" id="m5aabaa0378" style="stroke:#000000;stroke-width:0.8;"/>
      </defs>
      <g>
       <use style="stroke:#000000;stroke-width:0.8;" x="57.6" xlink:href="#m5aabaa0378" y="298.944"/>
      </g>
     </g>
     <g id="text_1">
      <!-- 0 -->
      <g transform="translate(51.2375 321.140875)scale(0.2 -0.2)">
       <defs>
        <path d="M 31.78125 66.40625 
Q 24.171875 66.40625 20.328125 58.90625 
Q 16.5 51.421875 16.5 36.375 
Q 16.5 21.390625 20.328125 13.890625 
Q 24.171875 6.390625 31.78125 6.390625 
Q 39.453125 6.390625 43.28125 13.890625 
Q 47.125 21.390625 47.125 36.375 
Q 47.125 51.421875 43.28125 58.90625 
Q 39.453125 66.40625 31.78125 66.40625 
z
M 31.78125 74.21875 
Q 44.046875 74.21875 50.515625 64.515625 
Q 56.984375 54.828125 56.984375 36.375 
Q 56.984375 17.96875 50.515625 8.265625 
Q 44.046875 -1.421875 31.78125 -1.421875 
Q 19.53125 -1.421875 13.0625 8.265625 
Q 6.59375 17.96875 6.59375 36.375 
Q 6.59375 54.828125 13.0625 64.515625 
Q 19.53125 74.21875 31.78125 74.21875 
z
" id="DejaVuSans-48"/>
       </defs>
       <use xlink:href="#DejaVuSans-48"/>
      </g>
     </g>
    </g>
    <g id="xtick_2">
     <g id="line2d_3">
      <path clip-path="url(#p1a85273a8e)" d="M 137.910857 298.944 
L 137.910857 3.456 
" style="fill:none;stroke:#b0b0b0;stroke-linecap:square;stroke-width:0.8;"/>
     </g>
     <g id="line2d_4">
      <g>
       <use style="stroke:#000000;stroke-width:0.8;" x="137.910857" xlink:href="#m5aabaa0378" y="298.944"/>
      </g>
     </g>
     <g id="text_2">
      <!-- 2 -->
      <g transform="translate(131.548357 321.140875)scale(0.2 -0.2)">
       <defs>
        <path d="M 19.1875 8.296875 
L 53.609375 8.296875 
L 53.609375 0 
L 7.328125 0 
L 7.328125 8.296875 
Q 12.9375 14.109375 22.625 23.890625 
Q 32.328125 33.6875 34.8125 36.53125 
Q 39.546875 41.84375 41.421875 45.53125 
Q 43.3125 49.21875 43.3125 52.78125 
Q 43.3125 58.59375 39.234375 62.25 
Q 35.15625 65.921875 28.609375 65.921875 
Q 23.96875 65.921875 18.8125 64.3125 
Q 13.671875 62.703125 7.8125 59.421875 
L 7.8125 69.390625 
Q 13.765625 71.78125 18.9375 73 
Q 24.125 74.21875 28.421875 74.21875 
Q 39.75 74.21875 46.484375 68.546875 
Q 53.21875 62.890625 53.21875 53.421875 
Q 53.21875 48.921875 51.53125 44.890625 
Q 49.859375 40.875 45.40625 35.40625 
Q 44.1875 33.984375 37.640625 27.21875 
Q 31.109375 20.453125 19.1875 8.296875 
z
" id="DejaVuSans-50"/>
       </defs>
       <use xlink:href="#DejaVuSans-50"/>
      </g>
     </g>
    </g>
    <g id="xtick_3">
     <g id="line2d_5">
      <path clip-path="url(#p1a85273a8e)" d="M 218.221714 298.944 
L 218.221714 3.456 
" style="fill:none;stroke:#b0b0b0;stroke-linecap:square;stroke-width:0.8;"/>
     </g>
     <g id="line2d_6">
      <g>
       <use style="stroke:#000000;stroke-width:0.8;" x="218.221714" xlink:href="#m5aabaa0378" y="298.944"/>
      </g>
     </g>
     <g id="text_3">
      <!-- 4 -->
      <g transform="translate(211.859214 321.140875)scale(0.2 -0.2)">
       <defs>
        <path d="M 37.796875 64.3125 
L 12.890625 25.390625 
L 37.796875 25.390625 
z
M 35.203125 72.90625 
L 47.609375 72.90625 
L 47.609375 25.390625 
L 58.015625 25.390625 
L 58.015625 17.1875 
L 47.609375 17.1875 
L 47.609375 0 
L 37.796875 0 
L 37.796875 17.1875 
L 4.890625 17.1875 
L 4.890625 26.703125 
z
" id="DejaVuSans-52"/>
       </defs>
       <use xlink:href="#DejaVuSans-52"/>
      </g>
     </g>
    </g>
    <g id="xtick_4">
     <g id="line2d_7">
      <path clip-path="url(#p1a85273a8e)" d="M 298.532571 298.944 
L 298.532571 3.456 
" style="fill:none;stroke:#b0b0b0;stroke-linecap:square;stroke-width:0.8;"/>
     </g>
     <g id="line2d_8">
      <g>
       <use style="stroke:#000000;stroke-width:0.8;" x="298.532571" xlink:href="#m5aabaa0378" y="298.944"/>
      </g>
     </g>
     <g id="text_4">
      <!-- 6 -->
      <g transform="translate(292.170071 321.140875)scale(0.2 -0.2)">
       <defs>
        <path d="M 33.015625 40.375 
Q 26.375 40.375 22.484375 35.828125 
Q 18.609375 31.296875 18.609375 23.390625 
Q 18.609375 15.53125 22.484375 10.953125 
Q 26.375 6.390625 33.015625 6.390625 
Q 39.65625 6.390625 43.53125 10.953125 
Q 47.40625 15.53125 47.40625 23.390625 
Q 47.40625 31.296875 43.53125 35.828125 
Q 39.65625 40.375 33.015625 40.375 
z
M 52.59375 71.296875 
L 52.59375 62.3125 
Q 48.875 64.0625 45.09375 64.984375 
Q 41.3125 65.921875 37.59375 65.921875 
Q 27.828125 65.921875 22.671875 59.328125 
Q 17.53125 52.734375 16.796875 39.40625 
Q 19.671875 43.65625 24.015625 45.921875 
Q 28.375 48.1875 33.59375 48.1875 
Q 44.578125 48.1875 50.953125 41.515625 
Q 57.328125 34.859375 57.328125 23.390625 
Q 57.328125 12.15625 50.6875 5.359375 
Q 44.046875 -1.421875 33.015625 -1.421875 
Q 20.359375 -1.421875 13.671875 8.265625 
Q 6.984375 17.96875 6.984375 36.375 
Q 6.984375 53.65625 15.1875 63.9375 
Q 23.390625 74.21875 37.203125 74.21875 
Q 40.921875 74.21875 44.703125 73.484375 
Q 48.484375 72.75 52.59375 71.296875 
z
" id="DejaVuSans-54"/>
       </defs>
       <use xlink:href="#DejaVuSans-54"/>
      </g>
     </g>
    </g>
    <g id="xtick_5">
     <g id="line2d_9">
      <path clip-path="url(#p1a85273a8e)" d="M 97.755429 298.944 
L 97.755429 3.456 
" style="fill:none;stroke:#b0b0b0;stroke-linecap:square;stroke-width:0.8;"/>
     </g>
     <g id="line2d_10">
      <defs>
       <path d="M 0 0 
L 0 2 
" id="m3915daae9b" style="stroke:#000000;stroke-width:0.6;"/>
      </defs>
      <g>
       <use style="stroke:#000000;stroke-width:0.6;" x="97.755429" xlink:href="#m3915daae9b" y="298.944"/>
      </g>
     </g>
    </g>
    <g id="xtick_6">
     <g id="line2d_11">
      <path clip-path="url(#p1a85273a8e)" d="M 178.066286 298.944 
L 178.066286 3.456 
" style="fill:none;stroke:#b0b0b0;stroke-linecap:square;stroke-width:0.8;"/>
     </g>
     <g id="line2d_12">
      <g>
       <use style="stroke:#000000;stroke-width:0.6;" x="178.066286" xlink:href="#m3915daae9b" y="298.944"/>
      </g>
     </g>
    </g>
    <g id="xtick_7">
     <g id="line2d_13">
      <path clip-path="url(#p1a85273a8e)" d="M 258.377143 298.944 
L 258.377143 3.456 
" style="fill:none;stroke:#b0b0b0;stroke-linecap:square;stroke-width:0.8;"/>
     </g>
     <g id="line2d_14">
      <g>
       <use style="stroke:#000000;stroke-width:0.6;" x="258.377143" xlink:href="#m3915daae9b" y="298.944"/>
      </g>
     </g>
    </g>
    <g id="xtick_8">
     <g id="line2d_15">
      <path clip-path="url(#p1a85273a8e)" d="M 338.688 298.944 
L 338.688 3.456 
" style="fill:none;stroke:#b0b0b0;stroke-linecap:square;stroke-width:0.8;"/>
     </g>
     <g id="line2d_16">
      <g>
       <use style="stroke:#000000;stroke-width:0.6;" x="338.688" xlink:href="#m3915daae9b" y="298.944"/>
      </g>
     </g>
    </g>
    <g id="text_5">
     <!-- log10(# f-evals / dimension) -->
     <g transform="translate(77.764078 342.217594)scale(0.17 -0.17)">
      <defs>
       <path d="M 9.421875 75.984375 
L 18.40625 75.984375 
L 18.40625 0 
L 9.421875 0 
z
" id="DejaVuSans-108"/>
       <path d="M 30.609375 48.390625 
Q 23.390625 48.390625 19.1875 42.75 
Q 14.984375 37.109375 14.984375 27.296875 
Q 14.984375 17.484375 19.15625 11.84375 
Q 23.34375 6.203125 30.609375 6.203125 
Q 37.796875 6.203125 41.984375 11.859375 
Q 46.1875 17.53125 46.1875 27.296875 
Q 46.1875 37.015625 41.984375 42.703125 
Q 37.796875 48.390625 30.609375 48.390625 
z
M 30.609375 56 
Q 42.328125 56 49.015625 48.375 
Q 55.71875 40.765625 55.71875 27.296875 
Q 55.71875 13.875 49.015625 6.21875 
Q 42.328125 -1.421875 30.609375 -1.421875 
Q 18.84375 -1.421875 12.171875 6.21875 
Q 5.515625 13.875 5.515625 27.296875 
Q 5.515625 40.765625 12.171875 48.375 
Q 18.84375 56 30.609375 56 
z
" id="DejaVuSans-111"/>
       <path d="M 45.40625 27.984375 
Q 45.40625 37.75 41.375 43.109375 
Q 37.359375 48.484375 30.078125 48.484375 
Q 22.859375 48.484375 18.828125 43.109375 
Q 14.796875 37.75 14.796875 27.984375 
Q 14.796875 18.265625 18.828125 12.890625 
Q 22.859375 7.515625 30.078125 7.515625 
Q 37.359375 7.515625 41.375 12.890625 
Q 45.40625 18.265625 45.40625 27.984375 
z
M 54.390625 6.78125 
Q 54.390625 -7.171875 48.1875 -13.984375 
Q 42 -20.796875 29.203125 -20.796875 
Q 24.46875 -20.796875 20.265625 -20.09375 
Q 16.0625 -19.390625 12.109375 -17.921875 
L 12.109375 -9.1875 
Q 16.0625 -11.328125 19.921875 -12.34375 
Q 23.78125 -13.375 27.78125 -13.375 
Q 36.625 -13.375 41.015625 -8.765625 
Q 45.40625 -4.15625 45.40625 5.171875 
L 45.40625 9.625 
Q 42.625 4.78125 38.28125 2.390625 
Q 33.9375 0 27.875 0 
Q 17.828125 0 11.671875 7.65625 
Q 5.515625 15.328125 5.515625 27.984375 
Q 5.515625 40.671875 11.671875 48.328125 
Q 17.828125 56 27.875 56 
Q 33.9375 56 38.28125 53.609375 
Q 42.625 51.21875 45.40625 46.390625 
L 45.40625 54.6875 
L 54.390625 54.6875 
z
" id="DejaVuSans-103"/>
       <path d="M 12.40625 8.296875 
L 28.515625 8.296875 
L 28.515625 63.921875 
L 10.984375 60.40625 
L 10.984375 69.390625 
L 28.421875 72.90625 
L 38.28125 72.90625 
L 38.28125 8.296875 
L 54.390625 8.296875 
L 54.390625 0 
L 12.40625 0 
z
" id="DejaVuSans-49"/>
       <path d="M 31 75.875 
Q 24.46875 64.65625 21.28125 53.65625 
Q 18.109375 42.671875 18.109375 31.390625 
Q 18.109375 20.125 21.3125 9.0625 
Q 24.515625 -2 31 -13.1875 
L 23.1875 -13.1875 
Q 15.875 -1.703125 12.234375 9.375 
Q 8.59375 20.453125 8.59375 31.390625 
Q 8.59375 42.28125 12.203125 53.3125 
Q 15.828125 64.359375 23.1875 75.875 
z
" id="DejaVuSans-40"/>
       <path d="M 51.125 44 
L 36.921875 44 
L 32.8125 27.6875 
L 47.125 27.6875 
z
M 43.796875 71.78125 
L 38.71875 51.515625 
L 52.984375 51.515625 
L 58.109375 71.78125 
L 65.921875 71.78125 
L 60.890625 51.515625 
L 76.125 51.515625 
L 76.125 44 
L 58.984375 44 
L 54.984375 27.6875 
L 70.515625 27.6875 
L 70.515625 20.21875 
L 53.078125 20.21875 
L 48 0 
L 40.1875 0 
L 45.21875 20.21875 
L 30.90625 20.21875 
L 25.875 0 
L 18.015625 0 
L 23.09375 20.21875 
L 7.71875 20.21875 
L 7.71875 27.6875 
L 24.90625 27.6875 
L 29 44 
L 13.28125 44 
L 13.28125 51.515625 
L 30.90625 51.515625 
L 35.890625 71.78125 
z
" id="DejaVuSans-35"/>
       <path id="DejaVuSans-32"/>
       <path d="M 37.109375 75.984375 
L 37.109375 68.5 
L 28.515625 68.5 
Q 23.6875 68.5 21.796875 66.546875 
Q 19.921875 64.59375 19.921875 59.515625 
L 19.921875 54.6875 
L 34.71875 54.6875 
L 34.71875 47.703125 
L 19.921875 47.703125 
L 19.921875 0 
L 10.890625 0 
L 10.890625 47.703125 
L 2.296875 47.703125 
L 2.296875 54.6875 
L 10.890625 54.6875 
L 10.890625 58.5 
Q 10.890625 67.625 15.140625 71.796875 
Q 19.390625 75.984375 28.609375 75.984375 
z
" id="DejaVuSans-102"/>
       <path d="M 4.890625 31.390625 
L 31.203125 31.390625 
L 31.203125 23.390625 
L 4.890625 23.390625 
z
" id="DejaVuSans-45"/>
       <path d="M 56.203125 29.59375 
L 56.203125 25.203125 
L 14.890625 25.203125 
Q 15.484375 15.921875 20.484375 11.0625 
Q 25.484375 6.203125 34.421875 6.203125 
Q 39.59375 6.203125 44.453125 7.46875 
Q 49.3125 8.734375 54.109375 11.28125 
L 54.109375 2.78125 
Q 49.265625 0.734375 44.1875 -0.34375 
Q 39.109375 -1.421875 33.890625 -1.421875 
Q 20.796875 -1.421875 13.15625 6.1875 
Q 5.515625 13.8125 5.515625 26.8125 
Q 5.515625 40.234375 12.765625 48.109375 
Q 20.015625 56 32.328125 56 
Q 43.359375 56 49.78125 48.890625 
Q 56.203125 41.796875 56.203125 29.59375 
z
M 47.21875 32.234375 
Q 47.125 39.59375 43.09375 43.984375 
Q 39.0625 48.390625 32.421875 48.390625 
Q 24.90625 48.390625 20.390625 44.140625 
Q 15.875 39.890625 15.1875 32.171875 
z
" id="DejaVuSans-101"/>
       <path d="M 2.984375 54.6875 
L 12.5 54.6875 
L 29.59375 8.796875 
L 46.6875 54.6875 
L 56.203125 54.6875 
L 35.6875 0 
L 23.484375 0 
z
" id="DejaVuSans-118"/>
       <path d="M 34.28125 27.484375 
Q 23.390625 27.484375 19.1875 25 
Q 14.984375 22.515625 14.984375 16.5 
Q 14.984375 11.71875 18.140625 8.90625 
Q 21.296875 6.109375 26.703125 6.109375 
Q 34.1875 6.109375 38.703125 11.40625 
Q 43.21875 16.703125 43.21875 25.484375 
L 43.21875 27.484375 
z
M 52.203125 31.203125 
L 52.203125 0 
L 43.21875 0 
L 43.21875 8.296875 
Q 40.140625 3.328125 35.546875 0.953125 
Q 30.953125 -1.421875 24.3125 -1.421875 
Q 15.921875 -1.421875 10.953125 3.296875 
Q 6 8.015625 6 15.921875 
Q 6 25.140625 12.171875 29.828125 
Q 18.359375 34.515625 30.609375 34.515625 
L 43.21875 34.515625 
L 43.21875 35.40625 
Q 43.21875 41.609375 39.140625 45 
Q 35.0625 48.390625 27.6875 48.390625 
Q 23 48.390625 18.546875 47.265625 
Q 14.109375 46.140625 10.015625 43.890625 
L 10.015625 52.203125 
Q 14.9375 54.109375 19.578125 55.046875 
Q 24.21875 56 28.609375 56 
Q 40.484375 56 46.34375 49.84375 
Q 52.203125 43.703125 52.203125 31.203125 
z
" id="DejaVuSans-97"/>
       <path d="M 44.28125 53.078125 
L 44.28125 44.578125 
Q 40.484375 46.53125 36.375 47.5 
Q 32.28125 48.484375 27.875 48.484375 
Q 21.1875 48.484375 17.84375 46.4375 
Q 14.5 44.390625 14.5 40.28125 
Q 14.5 37.15625 16.890625 35.375 
Q 19.28125 33.59375 26.515625 31.984375 
L 29.59375 31.296875 
Q 39.15625 29.25 43.1875 25.515625 
Q 47.21875 21.78125 47.21875 15.09375 
Q 47.21875 7.46875 41.1875 3.015625 
Q 35.15625 -1.421875 24.609375 -1.421875 
Q 20.21875 -1.421875 15.453125 -0.5625 
Q 10.6875 0.296875 5.421875 2 
L 5.421875 11.28125 
Q 10.40625 8.6875 15.234375 7.390625 
Q 20.0625 6.109375 24.8125 6.109375 
Q 31.15625 6.109375 34.5625 8.28125 
Q 37.984375 10.453125 37.984375 14.40625 
Q 37.984375 18.0625 35.515625 20.015625 
Q 33.0625 21.96875 24.703125 23.78125 
L 21.578125 24.515625 
Q 13.234375 26.265625 9.515625 29.90625 
Q 5.8125 33.546875 5.8125 39.890625 
Q 5.8125 47.609375 11.28125 51.796875 
Q 16.75 56 26.8125 56 
Q 31.78125 56 36.171875 55.265625 
Q 40.578125 54.546875 44.28125 53.078125 
z
" id="DejaVuSans-115"/>
       <path d="M 25.390625 72.90625 
L 33.6875 72.90625 
L 8.296875 -9.28125 
L 0 -9.28125 
z
" id="DejaVuSans-47"/>
       <path d="M 45.40625 46.390625 
L 45.40625 75.984375 
L 54.390625 75.984375 
L 54.390625 0 
L 45.40625 0 
L 45.40625 8.203125 
Q 42.578125 3.328125 38.25 0.953125 
Q 33.9375 -1.421875 27.875 -1.421875 
Q 17.96875 -1.421875 11.734375 6.484375 
Q 5.515625 14.40625 5.515625 27.296875 
Q 5.515625 40.1875 11.734375 48.09375 
Q 17.96875 56 27.875 56 
Q 33.9375 56 38.25 53.625 
Q 42.578125 51.265625 45.40625 46.390625 
z
M 14.796875 27.296875 
Q 14.796875 17.390625 18.875 11.75 
Q 22.953125 6.109375 30.078125 6.109375 
Q 37.203125 6.109375 41.296875 11.75 
Q 45.40625 17.390625 45.40625 27.296875 
Q 45.40625 37.203125 41.296875 42.84375 
Q 37.203125 48.484375 30.078125 48.484375 
Q 22.953125 48.484375 18.875 42.84375 
Q 14.796875 37.203125 14.796875 27.296875 
z
" id="DejaVuSans-100"/>
       <path d="M 9.421875 54.6875 
L 18.40625 54.6875 
L 18.40625 0 
L 9.421875 0 
z
M 9.421875 75.984375 
L 18.40625 75.984375 
L 18.40625 64.59375 
L 9.421875 64.59375 
z
" id="DejaVuSans-105"/>
       <path d="M 52 44.1875 
Q 55.375 50.25 60.0625 53.125 
Q 64.75 56 71.09375 56 
Q 79.640625 56 84.28125 50.015625 
Q 88.921875 44.046875 88.921875 33.015625 
L 88.921875 0 
L 79.890625 0 
L 79.890625 32.71875 
Q 79.890625 40.578125 77.09375 44.375 
Q 74.3125 48.1875 68.609375 48.1875 
Q 61.625 48.1875 57.5625 43.546875 
Q 53.515625 38.921875 53.515625 30.90625 
L 53.515625 0 
L 44.484375 0 
L 44.484375 32.71875 
Q 44.484375 40.625 41.703125 44.40625 
Q 38.921875 48.1875 33.109375 48.1875 
Q 26.21875 48.1875 22.15625 43.53125 
Q 18.109375 38.875 18.109375 30.90625 
L 18.109375 0 
L 9.078125 0 
L 9.078125 54.6875 
L 18.109375 54.6875 
L 18.109375 46.1875 
Q 21.1875 51.21875 25.484375 53.609375 
Q 29.78125 56 35.6875 56 
Q 41.65625 56 45.828125 52.96875 
Q 50 49.953125 52 44.1875 
z
" id="DejaVuSans-109"/>
       <path d="M 54.890625 33.015625 
L 54.890625 0 
L 45.90625 0 
L 45.90625 32.71875 
Q 45.90625 40.484375 42.875 44.328125 
Q 39.84375 48.1875 33.796875 48.1875 
Q 26.515625 48.1875 22.3125 43.546875 
Q 18.109375 38.921875 18.109375 30.90625 
L 18.109375 0 
L 9.078125 0 
L 9.078125 54.6875 
L 18.109375 54.6875 
L 18.109375 46.1875 
Q 21.34375 51.125 25.703125 53.5625 
Q 30.078125 56 35.796875 56 
Q 45.21875 56 50.046875 50.171875 
Q 54.890625 44.34375 54.890625 33.015625 
z
" id="DejaVuSans-110"/>
       <path d="M 8.015625 75.875 
L 15.828125 75.875 
Q 23.140625 64.359375 26.78125 53.3125 
Q 30.421875 42.28125 30.421875 31.390625 
Q 30.421875 20.453125 26.78125 9.375 
Q 23.140625 -1.703125 15.828125 -13.1875 
L 8.015625 -13.1875 
Q 14.5 -2 17.703125 9.0625 
Q 20.90625 20.125 20.90625 31.390625 
Q 20.90625 42.671875 17.703125 53.65625 
Q 14.5 64.65625 8.015625 75.875 
z
" id="DejaVuSans-41"/>
      </defs>
      <use xlink:href="#DejaVuSans-108"/>
      <use x="27.783203" xlink:href="#DejaVuSans-111"/>
      <use x="88.964844" xlink:href="#DejaVuSans-103"/>
      <use x="152.441406" xlink:href="#DejaVuSans-49"/>
      <use x="216.064453" xlink:href="#DejaVuSans-48"/>
      <use x="279.6875" xlink:href="#DejaVuSans-40"/>
      <use x="318.701172" xlink:href="#DejaVuSans-35"/>
      <use x="402.490234" xlink:href="#DejaVuSans-32"/>
      <use x="434.277344" xlink:href="#DejaVuSans-102"/>
      <use x="463.982422" xlink:href="#DejaVuSans-45"/>
      <use x="500.066406" xlink:href="#DejaVuSans-101"/>
      <use x="561.589844" xlink:href="#DejaVuSans-118"/>
      <use x="620.769531" xlink:href="#DejaVuSans-97"/>
      <use x="682.048828" xlink:href="#DejaVuSans-108"/>
      <use x="709.832031" xlink:href="#DejaVuSans-115"/>
      <use x="761.931641" xlink:href="#DejaVuSans-32"/>
      <use x="793.71875" xlink:href="#DejaVuSans-47"/>
      <use x="827.410156" xlink:href="#DejaVuSans-32"/>
      <use x="859.197266" xlink:href="#DejaVuSans-100"/>
      <use x="922.673828" xlink:href="#DejaVuSans-105"/>
      <use x="950.457031" xlink:href="#DejaVuSans-109"/>
      <use x="1047.869141" xlink:href="#DejaVuSans-101"/>
      <use x="1109.392578" xlink:href="#DejaVuSans-110"/>
      <use x="1172.771484" xlink:href="#DejaVuSans-115"/>
      <use x="1224.871094" xlink:href="#DejaVuSans-105"/>
      <use x="1252.654297" xlink:href="#DejaVuSans-111"/>
      <use x="1313.835938" xlink:href="#DejaVuSans-110"/>
      <use x="1377.214844" xlink:href="#DejaVuSans-41"/>
     </g>
    </g>
   </g>
   <g id="matplotlib.axis_2">
    <g id="ytick_1">
     <g id="line2d_17">
      <path clip-path="url(#p1a85273a8e)" d="M 57.6 298.944 
L 338.688 298.944 
" style="fill:none;stroke:#b0b0b0;stroke-linecap:square;stroke-width:0.8;"/>
     </g>
     <g id="line2d_18">
      <defs>
       <path d="M 0 0 
L -3.5 0 
" id="mfb9aca3808" style="stroke:#000000;stroke-width:0.8;"/>
      </defs>
      <g>
       <use style="stroke:#000000;stroke-width:0.8;" x="57.6" xlink:href="#mfb9aca3808" y="298.944"/>
      </g>
     </g>
     <g id="text_6">
      <!-- 0.0 -->
      <g transform="translate(25.155 305.02275)scale(0.16 -0.16)">
       <defs>
        <path d="M 10.6875 12.40625 
L 21 12.40625 
L 21 0 
L 10.6875 0 
z
" id="DejaVuSans-46"/>
       </defs>
       <use xlink:href="#DejaVuSans-48"/>
       <use x="63.623047" xlink:href="#DejaVuSans-46"/>
       <use x="95.410156" xlink:href="#DejaVuSans-48"/>
      </g>
     </g>
    </g>
    <g id="ytick_2">
     <g id="line2d_19">
      <path clip-path="url(#p1a85273a8e)" d="M 57.6 240.431525 
L 338.688 240.431525 
" style="fill:none;stroke:#b0b0b0;stroke-linecap:square;stroke-width:0.8;"/>
     </g>
     <g id="line2d_20">
      <g>
       <use style="stroke:#000000;stroke-width:0.8;" x="57.6" xlink:href="#mfb9aca3808" y="240.431525"/>
      </g>
     </g>
     <g id="text_7">
      <!-- 0.2 -->
      <g transform="translate(25.155 246.510275)scale(0.16 -0.16)">
       <use xlink:href="#DejaVuSans-48"/>
       <use x="63.623047" xlink:href="#DejaVuSans-46"/>
       <use x="95.410156" xlink:href="#DejaVuSans-50"/>
      </g>
     </g>
    </g>
    <g id="ytick_3">
     <g id="line2d_21">
      <path clip-path="url(#p1a85273a8e)" d="M 57.6 181.91905 
L 338.688 181.91905 
" style="fill:none;stroke:#b0b0b0;stroke-linecap:square;stroke-width:0.8;"/>
     </g>
     <g id="line2d_22">
      <g>
       <use style="stroke:#000000;stroke-width:0.8;" x="57.6" xlink:href="#mfb9aca3808" y="181.91905"/>
      </g>
     </g>
     <g id="text_8">
      <!-- 0.4 -->
      <g transform="translate(25.155 187.9978)scale(0.16 -0.16)">
       <use xlink:href="#DejaVuSans-48"/>
       <use x="63.623047" xlink:href="#DejaVuSans-46"/>
       <use x="95.410156" xlink:href="#DejaVuSans-52"/>
      </g>
     </g>
    </g>
    <g id="ytick_4">
     <g id="line2d_23">
      <path clip-path="url(#p1a85273a8e)" d="M 57.6 123.406574 
L 338.688 123.406574 
" style="fill:none;stroke:#b0b0b0;stroke-linecap:square;stroke-width:0.8;"/>
     </g>
     <g id="line2d_24">
      <g>
       <use style="stroke:#000000;stroke-width:0.8;" x="57.6" xlink:href="#mfb9aca3808" y="123.406574"/>
      </g>
     </g>
     <g id="text_9">
      <!-- 0.6 -->
      <g transform="translate(25.155 129.485324)scale(0.16 -0.16)">
       <use xlink:href="#DejaVuSans-48"/>
       <use x="63.623047" xlink:href="#DejaVuSans-46"/>
       <use x="95.410156" xlink:href="#DejaVuSans-54"/>
      </g>
     </g>
    </g>
    <g id="ytick_5">
     <g id="line2d_25">
      <path clip-path="url(#p1a85273a8e)" d="M 57.6 64.894099 
L 338.688 64.894099 
" style="fill:none;stroke:#b0b0b0;stroke-linecap:square;stroke-width:0.8;"/>
     </g>
     <g id="line2d_26">
      <g>
       <use style="stroke:#000000;stroke-width:0.8;" x="57.6" xlink:href="#mfb9aca3808" y="64.894099"/>
      </g>
     </g>
     <g id="text_10">
      <!-- 0.8 -->
      <g transform="translate(25.155 70.972849)scale(0.16 -0.16)">
       <defs>
        <path d="M 31.78125 34.625 
Q 24.75 34.625 20.71875 30.859375 
Q 16.703125 27.09375 16.703125 20.515625 
Q 16.703125 13.921875 20.71875 10.15625 
Q 24.75 6.390625 31.78125 6.390625 
Q 38.8125 6.390625 42.859375 10.171875 
Q 46.921875 13.96875 46.921875 20.515625 
Q 46.921875 27.09375 42.890625 30.859375 
Q 38.875 34.625 31.78125 34.625 
z
M 21.921875 38.8125 
Q 15.578125 40.375 12.03125 44.71875 
Q 8.5 49.078125 8.5 55.328125 
Q 8.5 64.0625 14.71875 69.140625 
Q 20.953125 74.21875 31.78125 74.21875 
Q 42.671875 74.21875 48.875 69.140625 
Q 55.078125 64.0625 55.078125 55.328125 
Q 55.078125 49.078125 51.53125 44.71875 
Q 48 40.375 41.703125 38.8125 
Q 48.828125 37.15625 52.796875 32.3125 
Q 56.78125 27.484375 56.78125 20.515625 
Q 56.78125 9.90625 50.3125 4.234375 
Q 43.84375 -1.421875 31.78125 -1.421875 
Q 19.734375 -1.421875 13.25 4.234375 
Q 6.78125 9.90625 6.78125 20.515625 
Q 6.78125 27.484375 10.78125 32.3125 
Q 14.796875 37.15625 21.921875 38.8125 
z
M 18.3125 54.390625 
Q 18.3125 48.734375 21.84375 45.5625 
Q 25.390625 42.390625 31.78125 42.390625 
Q 38.140625 42.390625 41.71875 45.5625 
Q 45.3125 48.734375 45.3125 54.390625 
Q 45.3125 60.0625 41.71875 63.234375 
Q 38.140625 66.40625 31.78125 66.40625 
Q 25.390625 66.40625 21.84375 63.234375 
Q 18.3125 60.0625 18.3125 54.390625 
z
" id="DejaVuSans-56"/>
       </defs>
       <use xlink:href="#DejaVuSans-48"/>
       <use x="63.623047" xlink:href="#DejaVuSans-46"/>
       <use x="95.410156" xlink:href="#DejaVuSans-56"/>
      </g>
     </g>
    </g>
    <g id="ytick_6">
     <g id="line2d_27">
      <path clip-path="url(#p1a85273a8e)" d="M 57.6 6.381624 
L 338.688 6.381624 
" style="fill:none;stroke:#b0b0b0;stroke-linecap:square;stroke-width:0.8;"/>
     </g>
     <g id="line2d_28">
      <g>
       <use style="stroke:#000000;stroke-width:0.8;" x="57.6" xlink:href="#mfb9aca3808" y="6.381624"/>
      </g>
     </g>
     <g id="text_11">
      <!-- 1.0 -->
      <g transform="translate(25.155 12.460374)scale(0.16 -0.16)">
       <use xlink:href="#DejaVuSans-49"/>
       <use x="63.623047" xlink:href="#DejaVuSans-46"/>
       <use x="95.410156" xlink:href="#DejaVuSans-48"/>
      </g>
     </g>
    </g>
    <g id="text_12">
     <!-- Fraction of function,target pairs -->
     <g transform="translate(17.619531 285.585)rotate(-90)scale(0.17 -0.17)">
      <defs>
       <path d="M 9.8125 72.90625 
L 51.703125 72.90625 
L 51.703125 64.59375 
L 19.671875 64.59375 
L 19.671875 43.109375 
L 48.578125 43.109375 
L 48.578125 34.8125 
L 19.671875 34.8125 
L 19.671875 0 
L 9.8125 0 
z
" id="DejaVuSans-70"/>
       <path d="M 41.109375 46.296875 
Q 39.59375 47.171875 37.8125 47.578125 
Q 36.03125 48 33.890625 48 
Q 26.265625 48 22.1875 43.046875 
Q 18.109375 38.09375 18.109375 28.8125 
L 18.109375 0 
L 9.078125 0 
L 9.078125 54.6875 
L 18.109375 54.6875 
L 18.109375 46.1875 
Q 20.953125 51.171875 25.484375 53.578125 
Q 30.03125 56 36.53125 56 
Q 37.453125 56 38.578125 55.875 
Q 39.703125 55.765625 41.0625 55.515625 
z
" id="DejaVuSans-114"/>
       <path d="M 48.78125 52.59375 
L 48.78125 44.1875 
Q 44.96875 46.296875 41.140625 47.34375 
Q 37.3125 48.390625 33.40625 48.390625 
Q 24.65625 48.390625 19.8125 42.84375 
Q 14.984375 37.3125 14.984375 27.296875 
Q 14.984375 17.28125 19.8125 11.734375 
Q 24.65625 6.203125 33.40625 6.203125 
Q 37.3125 6.203125 41.140625 7.25 
Q 44.96875 8.296875 48.78125 10.40625 
L 48.78125 2.09375 
Q 45.015625 0.34375 40.984375 -0.53125 
Q 36.96875 -1.421875 32.421875 -1.421875 
Q 20.0625 -1.421875 12.78125 6.34375 
Q 5.515625 14.109375 5.515625 27.296875 
Q 5.515625 40.671875 12.859375 48.328125 
Q 20.21875 56 33.015625 56 
Q 37.15625 56 41.109375 55.140625 
Q 45.0625 54.296875 48.78125 52.59375 
z
" id="DejaVuSans-99"/>
       <path d="M 18.3125 70.21875 
L 18.3125 54.6875 
L 36.8125 54.6875 
L 36.8125 47.703125 
L 18.3125 47.703125 
L 18.3125 18.015625 
Q 18.3125 11.328125 20.140625 9.421875 
Q 21.96875 7.515625 27.59375 7.515625 
L 36.8125 7.515625 
L 36.8125 0 
L 27.59375 0 
Q 17.1875 0 13.234375 3.875 
Q 9.28125 7.765625 9.28125 18.015625 
L 9.28125 47.703125 
L 2.6875 47.703125 
L 2.6875 54.6875 
L 9.28125 54.6875 
L 9.28125 70.21875 
z
" id="DejaVuSans-116"/>
       <path d="M 8.5 21.578125 
L 8.5 54.6875 
L 17.484375 54.6875 
L 17.484375 21.921875 
Q 17.484375 14.15625 20.5 10.265625 
Q 23.53125 6.390625 29.59375 6.390625 
Q 36.859375 6.390625 41.078125 11.03125 
Q 45.3125 15.671875 45.3125 23.6875 
L 45.3125 54.6875 
L 54.296875 54.6875 
L 54.296875 0 
L 45.3125 0 
L 45.3125 8.40625 
Q 42.046875 3.421875 37.71875 1 
Q 33.40625 -1.421875 27.6875 -1.421875 
Q 18.265625 -1.421875 13.375 4.4375 
Q 8.5 10.296875 8.5 21.578125 
z
M 31.109375 56 
z
" id="DejaVuSans-117"/>
       <path d="M 11.71875 12.40625 
L 22.015625 12.40625 
L 22.015625 4 
L 14.015625 -11.625 
L 7.71875 -11.625 
L 11.71875 4 
z
" id="DejaVuSans-44"/>
       <path d="M 18.109375 8.203125 
L 18.109375 -20.796875 
L 9.078125 -20.796875 
L 9.078125 54.6875 
L 18.109375 54.6875 
L 18.109375 46.390625 
Q 20.953125 51.265625 25.265625 53.625 
Q 29.59375 56 35.59375 56 
Q 45.5625 56 51.78125 48.09375 
Q 58.015625 40.1875 58.015625 27.296875 
Q 58.015625 14.40625 51.78125 6.484375 
Q 45.5625 -1.421875 35.59375 -1.421875 
Q 29.59375 -1.421875 25.265625 0.953125 
Q 20.953125 3.328125 18.109375 8.203125 
z
M 48.6875 27.296875 
Q 48.6875 37.203125 44.609375 42.84375 
Q 40.53125 48.484375 33.40625 48.484375 
Q 26.265625 48.484375 22.1875 42.84375 
Q 18.109375 37.203125 18.109375 27.296875 
Q 18.109375 17.390625 22.1875 11.75 
Q 26.265625 6.109375 33.40625 6.109375 
Q 40.53125 6.109375 44.609375 11.75 
Q 48.6875 17.390625 48.6875 27.296875 
z
" id="DejaVuSans-112"/>
      </defs>
      <use xlink:href="#DejaVuSans-70"/>
      <use x="50.269531" xlink:href="#DejaVuSans-114"/>
      <use x="91.382812" xlink:href="#DejaVuSans-97"/>
      <use x="152.662109" xlink:href="#DejaVuSans-99"/>
      <use x="207.642578" xlink:href="#DejaVuSans-116"/>
      <use x="246.851562" xlink:href="#DejaVuSans-105"/>
      <use x="274.634766" xlink:href="#DejaVuSans-111"/>
      <use x="335.816406" xlink:href="#DejaVuSans-110"/>
      <use x="399.195312" xlink:href="#DejaVuSans-32"/>
      <use x="430.982422" xlink:href="#DejaVuSans-111"/>
      <use x="492.164062" xlink:href="#DejaVuSans-102"/>
      <use x="527.369141" xlink:href="#DejaVuSans-32"/>
      <use x="559.15625" xlink:href="#DejaVuSans-102"/>
      <use x="594.361328" xlink:href="#DejaVuSans-117"/>
      <use x="657.740234" xlink:href="#DejaVuSans-110"/>
      <use x="721.119141" xlink:href="#DejaVuSans-99"/>
      <use x="776.099609" xlink:href="#DejaVuSans-116"/>
      <use x="815.308594" xlink:href="#DejaVuSans-105"/>
      <use x="843.091797" xlink:href="#DejaVuSans-111"/>
      <use x="904.273438" xlink:href="#DejaVuSans-110"/>
      <use x="967.652344" xlink:href="#DejaVuSans-44"/>
      <use x="999.439453" xlink:href="#DejaVuSans-116"/>
      <use x="1038.648438" xlink:href="#DejaVuSans-97"/>
      <use x="1099.927734" xlink:href="#DejaVuSans-114"/>
      <use x="1139.291016" xlink:href="#DejaVuSans-103"/>
      <use x="1202.767578" xlink:href="#DejaVuSans-101"/>
      <use x="1264.291016" xlink:href="#DejaVuSans-116"/>
      <use x="1303.5" xlink:href="#DejaVuSans-32"/>
      <use x="1335.287109" xlink:href="#DejaVuSans-112"/>
      <use x="1398.763672" xlink:href="#DejaVuSans-97"/>
      <use x="1460.042969" xlink:href="#DejaVuSans-105"/>
      <use x="1487.826172" xlink:href="#DejaVuSans-114"/>
      <use x="1528.939453" xlink:href="#DejaVuSans-115"/>
     </g>
    </g>
   </g>
   <g id="line2d_29">
    <defs>
     <path d="M 0 1.5 
C 0.397805 1.5 0.77937 1.341951 1.06066 1.06066 
C 1.341951 0.77937 1.5 0.397805 1.5 0 
C 1.5 -0.397805 1.341951 -0.77937 1.06066 -1.06066 
C 0.77937 -1.341951 0.397805 -1.5 0 -1.5 
C -0.397805 -1.5 -0.77937 -1.341951 -1.06066 -1.06066 
C -1.341951 -0.77937 -1.5 -0.397805 -1.5 0 
C -1.5 0.397805 -1.341951 0.77937 -1.06066 1.06066 
C -0.77937 1.341951 -0.397805 1.5 0 1.5 
z
" id="meb65139cc8" style="stroke:#000080;"/>
    </defs>
    <g>
     <use style="fill:#000080;stroke:#000080;" x="131.938072" xlink:href="#meb65139cc8" y="247.315345"/>
     <use style="fill:#000080;stroke:#000080;" x="131.938072" xlink:href="#meb65139cc8" y="247.315345"/>
    </g>
   </g>
   <g id="line2d_30">
    <path d="M 86.792945 298.944 
L 86.792945 293.781135 
L 93.863965 293.781135 
L 93.863965 275.997931 
L 96.552242 275.997931 
L 96.552242 273.703324 
L 97.755429 273.703324 
L 97.755429 270.835066 
L 98.880934 270.835066 
L 98.880934 270.261414 
L 99.938184 270.261414 
L 99.938184 269.114111 
L 102.330873 269.114111 
L 102.330873 265.098549 
L 104.033617 265.098549 
L 104.033617 262.803942 
L 108.640231 262.803942 
L 108.640231 262.23029 
L 111.505558 262.23029 
L 111.505558 261.656638 
L 112.280765 261.656638 
L 112.280765 259.362031 
L 113.965867 259.362031 
L 113.965867 258.78838 
L 115.291007 258.78838 
L 115.291007 258.214728 
L 115.711251 258.214728 
L 115.711251 257.641076 
L 116.323218 257.641076 
L 116.323218 257.067425 
L 118.399528 257.067425 
L 118.399528 256.493773 
L 118.576578 256.493773 
L 118.576578 253.051863 
L 120.093994 253.051863 
L 120.093994 251.904559 
L 122.076131 251.904559 
L 122.076131 250.757256 
L 122.362027 250.757256 
L 122.362027 249.609952 
L 123.593547 249.609952 
L 123.593547 248.462649 
L 131.938072 248.462649 
L 131.938072 247.315345 
L 338.688 247.315345 
" style="fill:none;stroke:#000080;stroke-linecap:square;stroke-width:1.5;"/>
   </g>
   <g id="line2d_31">
    <defs>
     <path d="M 0 6 
C 1.591219 6 3.117479 5.367802 4.242641 4.242641 
C 5.367802 3.117479 6 1.591219 6 0 
C 6 -1.591219 5.367802 -3.117479 4.242641 -4.242641 
C 3.117479 -5.367802 1.591219 -6 0 -6 
C -1.591219 -6 -3.117479 -5.367802 -4.242641 -4.242641 
C -5.367802 -3.117479 -6 -1.591219 -6 0 
C -6 1.591219 -5.367802 3.117479 -4.242641 4.242641 
C -3.117479 5.367802 -1.591219 6 0 6 
z
" id="ma5d49a1d46" style="stroke:#000080;stroke-width:1.5;"/>
    </defs>
    <g>
     <use style="fill-opacity:0;stroke:#000080;stroke-width:1.5;" x="93.863965" xlink:href="#ma5d49a1d46" y="293.781135"/>
     <use style="fill-opacity:0;stroke:#000080;stroke-width:1.5;" x="123.593547" xlink:href="#ma5d49a1d46" y="248.462649"/>
     <use style="fill-opacity:0;stroke:#000080;stroke-width:1.5;" x="131.938072" xlink:href="#ma5d49a1d46" y="247.315345"/>
     <use style="fill-opacity:0;stroke:#000080;stroke-width:1.5;" x="131.938072" xlink:href="#ma5d49a1d46" y="247.315345"/>
     <use style="fill-opacity:0;stroke:#000080;stroke-width:1.5;" x="338.688" xlink:href="#ma5d49a1d46" y="247.315345"/>
    </g>
   </g>
   <g id="line2d_32">
    <path style="fill:none;stroke:#000080;stroke-linecap:square;stroke-width:1.5;"/>
    <g/>
   </g>
   <g id="line2d_33">
    <path clip-path="url(#p1a85273a8e)" d="M 197.231106 247.315345 
" style="fill:none;stroke:#000080;stroke-linecap:square;stroke-width:1.5;"/>
    <defs>
     <path d="M -12 12 
L 12 -12 
M -12 -12 
L 12 12 
" id="m3fd181911c" style="stroke:#000080;"/>
    </defs>
    <g clip-path="url(#p1a85273a8e)">
     <use style="fill:#000080;stroke:#000080;" x="197.231106" xlink:href="#m3fd181911c" y="247.315345"/>
    </g>
   </g>
   <g id="line2d_34">
    <defs>
     <path d="M 0 1.5 
C 0.397805 1.5 0.77937 1.341951 1.06066 1.06066 
C 1.341951 0.77937 1.5 0.397805 1.5 0 
C 1.5 -0.397805 1.341951 -0.77937 1.06066 -1.06066 
C 0.77937 -1.341951 0.397805 -1.5 0 -1.5 
C -0.397805 -1.5 -0.77937 -1.341951 -1.06066 -1.06066 
C -1.341951 -0.77937 -1.5 -0.397805 -1.5 0 
C -1.5 0.397805 -1.341951 0.77937 -1.06066 1.06066 
C -0.77937 1.341951 -0.397805 1.5 0 1.5 
z
" id="md184f16219" style="stroke:#ff00ff;"/>
    </defs>
    <g>
     <use style="fill:#ff00ff;stroke:#ff00ff;" x="247.664854" xlink:href="#md184f16219" y="6.381624"/>
     <use style="fill:#ff00ff;stroke:#ff00ff;" x="247.664854" xlink:href="#md184f16219" y="6.381624"/>
    </g>
   </g>
   <g id="line2d_35">
    <path d="M 38.440992 298.944 
L 38.440992 278.292538 
L 50.52898 278.292538 
L 50.52898 276.571583 
L 57.6 276.571583 
L 57.6 275.997931 
L 62.616969 275.997931 
L 62.616969 273.129673 
L 66.508432 273.129673 
L 66.508432 272.556021 
L 83.171864 272.556021 
L 83.171864 271.408718 
L 86.792945 271.408718 
L 86.792945 269.687762 
L 92.34655 269.687762 
L 92.34655 269.114111 
L 93.121756 269.114111 
L 93.121756 268.540459 
L 93.863965 268.540459 
L 93.863965 266.819504 
L 98.880934 266.819504 
L 98.880934 266.245852 
L 101.412804 266.245852 
L 101.412804 265.6722 
L 101.877879 265.6722 
L 101.877879 264.524897 
L 102.772397 264.524897 
L 102.772397 263.951245 
L 104.033617 263.951245 
L 104.033617 263.377593 
L 105.584798 263.377593 
L 105.584798 262.803942 
L 105.951954 262.803942 
L 105.951954 261.656638 
L 106.66386 261.656638 
L 106.66386 261.082987 
L 107.347841 261.082987 
L 107.347841 260.509335 
L 107.680028 260.509335 
L 107.680028 259.935683 
L 108.006005 259.935683 
L 108.006005 259.362031 
L 109.550313 259.362031 
L 109.550313 257.641076 
L 111.239304 257.641076 
L 111.239304 257.067425 
L 111.505558 257.067425 
L 111.505558 255.920121 
L 113.500792 255.920121 
L 113.500792 252.478211 
L 114.860386 252.478211 
L 114.860386 251.904559 
L 115.077025 251.904559 
L 115.077025 251.330907 
L 115.502395 251.330907 
L 115.502395 250.183604 
L 115.711251 250.183604 
L 115.711251 249.609952 
L 117.107138 249.609952 
L 117.107138 249.036301 
L 117.297733 249.036301 
L 117.297733 248.462649 
L 118.751849 248.462649 
L 118.751849 247.888997 
L 119.43583 247.888997 
L 119.43583 246.741694 
L 120.571812 246.741694 
L 120.571812 246.168042 
L 120.728219 246.168042 
L 120.728219 245.59439 
L 121.340187 245.59439 
L 121.340187 233.547704 
L 123.192626 233.547704 
L 123.192626 232.974052 
L 123.855796 232.974052 
L 123.855796 232.400401 
L 124.114161 232.400401 
L 124.114161 231.826749 
L 124.494669 231.826749 
L 124.494669 231.253097 
L 124.989434 231.253097 
L 124.989434 230.105794 
L 125.23165 230.105794 
L 125.23165 228.95849 
L 127.799239 228.95849 
L 127.799239 228.384839 
L 128.107907 228.384839 
L 128.107907 225.51658 
L 128.905271 225.51658 
L 128.905271 224.942928 
L 129.480244 224.942928 
L 129.480244 223.795625 
L 130.664567 223.795625 
L 130.664567 221.501018 
L 131.60746 221.501018 
L 131.60746 220.927366 
L 131.77355 220.927366 
L 131.77355 218.632759 
L 131.938072 218.632759 
L 131.938072 218.059108 
L 133.946579 218.059108 
L 133.946579 217.485456 
L 134.091907 217.485456 
L 134.091907 215.190849 
L 135.212889 215.190849 
L 135.280614 214.043546 
L 135.348078 214.043546 
L 135.415281 211.175287 
L 135.615352 211.175287 
L 135.615352 209.454332 
L 135.813153 209.454332 
L 135.813153 207.733377 
L 136.582658 207.733377 
L 136.582658 207.159725 
L 136.707671 207.159725 
L 136.707671 206.012422 
L 137.077422 206.012422 
L 137.138292 204.291467 
L 137.794206 204.291467 
L 137.794206 202.570511 
L 138.594838 202.570511 
L 138.594838 201.423208 
L 138.927025 201.423208 
L 138.927025 200.849556 
L 139.253002 200.849556 
L 139.360321 199.702253 
L 139.835248 199.702253 
L 139.939053 196.833994 
L 139.990725 196.833994 
L 140.042245 192.818432 
L 140.246813 192.818432 
L 140.246813 192.24478 
L 140.599134 192.24478 
L 140.599134 188.80287 
L 140.89556 188.80287 
L 140.89556 188.229218 
L 141.378673 188.229218 
L 141.378673 185.934612 
L 143.695448 185.934612 
L 143.695448 185.36096 
L 143.861538 185.36096 
L 143.861538 184.787308 
L 144.026061 184.787308 
L 144.026061 183.640005 
L 144.189046 183.640005 
L 144.189046 180.771746 
L 144.470655 180.771746 
L 144.470655 178.477139 
L 145.888018 178.477139 
L 145.888018 176.182532 
L 146.107383 176.182532 
L 146.107383 175.608881 
L 147.769524 175.608881 
L 147.769524 174.461577 
L 147.901141 174.461577 
L 147.901141 171.593319 
L 149.043029 171.593319 
L 149.043029 169.872363 
L 197.233043 169.872363 
L 197.343095 165.28315 
L 197.34502 165.28315 
L 197.454369 148.64725 
L 197.484941 148.64725 
L 197.585829 138.895171 
L 197.610486 138.895171 
L 197.691797 132.01135 
L 197.727605 132.01135 
L 197.83646 125.127529 
L 197.871972 125.127529 
L 197.926036 118.817361 
L 198.029963 118.817361 
L 198.136953 111.359888 
L 198.225002 111.359888 
L 198.298039 107.344326 
L 209.331681 107.344326 
L 209.431083 99.313202 
L 209.448397 99.313202 
L 209.550961 90.708426 
L 209.566246 90.708426 
L 209.654826 76.940785 
L 209.723097 76.940785 
L 209.823122 68.909661 
L 209.860719 68.909661 
L 209.860719 68.336009 
L 216.392697 68.336009 
L 216.498254 62.599492 
L 216.509159 62.599492 
L 216.614652 52.847413 
L 216.660487 52.847413 
L 216.75306 48.831851 
L 221.451579 48.831851 
L 221.560403 39.079772 
L 221.563283 39.079772 
L 221.617433 35.06421 
L 221.679998 35.06421 
L 221.679998 33.916906 
L 225.325644 33.916906 
L 225.428617 27.033086 
L 225.464342 27.033086 
L 225.517219 24.164827 
L 228.515513 24.164827 
L 228.586563 18.42831 
L 228.638782 18.42831 
L 228.638782 17.281006 
L 231.198451 17.281006 
L 231.262965 12.691793 
L 233.529662 12.691793 
L 233.610909 10.397186 
L 235.565043 10.397186 
L 235.670946 8.676231 
L 237.44204 8.676231 
L 237.44204 8.102579 
L 239.069091 8.102579 
L 239.093874 6.955275 
L 247.664854 6.955275 
L 247.664854 6.381624 
L 338.688 6.381624 
L 338.688 6.381624 
" style="fill:none;stroke:#ff00ff;stroke-linecap:square;stroke-width:1.5;"/>
   </g>
   <g id="line2d_36">
    <defs>
     <path d="M -0 8.485281 
L 5.091169 0 
L 0 -8.485281 
L -5.091169 -0 
z
" id="me78e7b9e78" style="stroke:#ff00ff;stroke-linejoin:miter;stroke-width:1.5;"/>
    </defs>
    <g>
     <use style="fill-opacity:0;stroke:#ff00ff;stroke-linejoin:miter;stroke-width:1.5;" x="124.494669" xlink:href="#me78e7b9e78" y="231.826749"/>
     <use style="fill-opacity:0;stroke:#ff00ff;stroke-linejoin:miter;stroke-width:1.5;" x="197.238853" xlink:href="#me78e7b9e78" y="169.298712"/>
     <use style="fill-opacity:0;stroke:#ff00ff;stroke-linejoin:miter;stroke-width:1.5;" x="221.679998" xlink:href="#me78e7b9e78" y="35.06421"/>
     <use style="fill-opacity:0;stroke:#ff00ff;stroke-linejoin:miter;stroke-width:1.5;" x="247.664854" xlink:href="#me78e7b9e78" y="6.381624"/>
     <use style="fill-opacity:0;stroke:#ff00ff;stroke-linejoin:miter;stroke-width:1.5;" x="247.664854" xlink:href="#me78e7b9e78" y="6.381624"/>
     <use style="fill-opacity:0;stroke:#ff00ff;stroke-linejoin:miter;stroke-width:1.5;" x="338.688" xlink:href="#me78e7b9e78" y="6.381624"/>
    </g>
   </g>
   <g id="line2d_37">
    <path style="fill:none;stroke:#ff00ff;stroke-linecap:square;stroke-width:1.5;"/>
    <g/>
   </g>
   <g id="line2d_38">
    <path clip-path="url(#p1a85273a8e)" d="M 197.231106 169.872363 
" style="fill:none;stroke:#ff00ff;stroke-linecap:square;stroke-width:1.5;"/>
    <defs>
     <path d="M -12 12 
L 12 -12 
M -12 -12 
L 12 12 
" id="m1c5d08333d" style="stroke:#ff00ff;"/>
    </defs>
    <g clip-path="url(#p1a85273a8e)">
     <use style="fill:#ff00ff;stroke:#ff00ff;" x="197.231106" xlink:href="#m1c5d08333d" y="169.872363"/>
    </g>
   </g>
   <g id="line2d_39">
    <defs>
     <path d="M 0 1.5 
C 0.397805 1.5 0.77937 1.341951 1.06066 1.06066 
C 1.341951 0.77937 1.5 0.397805 1.5 0 
C 1.5 -0.397805 1.341951 -0.77937 1.06066 -1.06066 
C 0.77937 -1.341951 0.397805 -1.5 0 -1.5 
C -0.397805 -1.5 -0.77937 -1.341951 -1.06066 -1.06066 
C -1.341951 -0.77937 -1.5 -0.397805 -1.5 0 
C -1.5 0.397805 -1.341951 0.77937 -1.06066 1.06066 
C -0.77937 1.341951 -0.397805 1.5 0 1.5 
z
" id="m2a8181147d" style="stroke:#ff7500;"/>
    </defs>
    <g>
     <use style="fill:#ff7500;stroke:#ff7500;" x="237.484275" xlink:href="#m2a8181147d" y="6.381624"/>
     <use style="fill:#ff7500;stroke:#ff7500;" x="237.484275" xlink:href="#m2a8181147d" y="6.381624"/>
    </g>
   </g>
   <g id="line2d_40">
    <path d="M 38.440992 298.944 
L 38.440992 288.044617 
L 50.52898 288.044617 
L 50.52898 284.602707 
L 57.6 284.602707 
L 57.6 283.455404 
L 62.616969 283.455404 
L 62.616969 282.881752 
L 69.687988 282.881752 
L 69.687988 281.734448 
L 76.759008 281.734448 
L 76.759008 281.160797 
L 78.59642 281.160797 
L 78.59642 279.439842 
L 83.171864 279.439842 
L 83.171864 278.292538 
L 85.66744 278.292538 
L 85.66744 277.718886 
L 86.792945 277.718886 
L 86.792945 277.145235 
L 91.535274 277.145235 
L 91.535274 275.997931 
L 93.121756 275.997931 
L 93.121756 274.276976 
L 93.863965 274.276976 
L 93.863965 273.703324 
L 96.552242 273.703324 
L 96.552242 273.129673 
L 97.16421 273.129673 
L 97.16421 270.261414 
L 99.41757 270.261414 
L 99.41757 269.687762 
L 99.938184 269.687762 
L 99.938184 269.114111 
L 100.443706 269.114111 
L 100.443706 267.966807 
L 101.412804 267.966807 
L 101.412804 266.819504 
L 104.033617 266.819504 
L 104.033617 265.6722 
L 106.66386 265.6722 
L 106.66386 265.098549 
L 107.680028 265.098549 
L 107.680028 264.524897 
L 108.640231 264.524897 
L 108.640231 263.951245 
L 109.252198 263.951245 
L 109.252198 261.656638 
L 109.550313 261.656638 
L 109.550313 261.082987 
L 112.779064 261.082987 
L 112.779064 259.362031 
L 113.73488 259.362031 
L 113.73488 258.78838 
L 113.965867 258.78838 
L 113.965867 258.214728 
L 114.641021 258.214728 
L 114.641021 257.641076 
L 114.860386 257.641076 
L 114.860386 257.067425 
L 115.077025 257.067425 
L 115.077025 256.493773 
L 116.914437 256.493773 
L 116.914437 254.772818 
L 117.107138 254.772818 
L 117.107138 254.199166 
L 117.486268 254.199166 
L 117.486268 253.625514 
L 117.857331 253.625514 
L 117.857331 253.051863 
L 118.039942 253.051863 
L 118.039942 249.609952 
L 118.220662 249.609952 
L 118.220662 248.462649 
L 119.602714 248.462649 
L 119.602714 246.741694 
L 121.489881 246.741694 
L 121.489881 245.020738 
L 121.931406 245.020738 
L 121.931406 244.447087 
L 122.503236 244.447087 
L 122.503236 243.873435 
L 122.920132 243.873435 
L 122.920132 243.299783 
L 123.192626 243.299783 
L 123.192626 242.15248 
L 126.618283 242.15248 
L 126.618283 241.578828 
L 127.05703 241.578828 
L 127.05703 240.431525 
L 127.378995 240.431525 
L 127.378995 239.857873 
L 131.856005 239.857873 
L 131.938072 238.136918 
L 133.201197 238.136918 
L 133.201197 237.563266 
L 135.482227 237.563266 
L 135.482227 236.989614 
L 136.769843 236.989614 
L 136.769843 236.415963 
L 137.617753 236.415963 
L 137.617753 235.842311 
L 140.993259 235.842311 
L 140.993259 235.268659 
L 141.378673 235.268659 
L 141.378673 234.121356 
L 141.848763 234.121356 
L 141.848763 233.547704 
L 142.351634 233.547704 
L 142.396639 232.400401 
L 142.664255 232.400401 
L 142.708461 231.253097 
L 143.144465 231.253097 
L 143.144465 230.679446 
L 143.485587 230.679446 
L 143.485587 230.105794 
L 143.737119 230.105794 
L 143.737119 229.532142 
L 143.861538 229.532142 
L 143.943994 227.811187 
L 144.06695 227.811187 
L 144.148442 220.927366 
L 144.189046 220.927366 
L 144.189046 219.206411 
L 144.470655 219.206411 
L 144.470655 217.485456 
L 144.629556 217.485456 
L 144.669057 216.338153 
L 144.787023 216.338153 
L 144.787023 215.764501 
L 144.94308 215.764501 
L 144.981877 214.617197 
L 145.289185 214.617197 
L 145.289185 214.043546 
L 145.516164 214.043546 
L 145.591172 211.175287 
L 146.034567 211.175287 
L 146.107383 210.027984 
L 146.324022 210.027984 
L 146.324022 207.159725 
L 146.538004 207.159725 
L 146.608752 202.570511 
L 146.714338 202.570511 
L 146.714338 201.99686 
L 147.027314 201.99686 
L 147.027314 199.702253 
L 147.232888 199.702253 
L 147.300877 191.097477 
L 147.536775 191.097477 
L 147.536775 190.523825 
L 147.86833 190.523825 
L 147.86833 189.376522 
L 148.064279 189.376522 
L 148.064279 188.229218 
L 148.225905 188.229218 
L 148.258051 185.36096 
L 148.607802 185.36096 
L 148.607802 184.787308 
L 148.79566 184.787308 
L 148.888835 182.492701 
L 149.134896 182.492701 
L 149.134896 181.91905 
L 150.085825 181.91905 
L 150.085825 179.624443 
L 150.229833 179.624443 
L 150.229833 177.329836 
L 150.598782 177.329836 
L 150.654857 172.740622 
L 150.738632 172.740622 
L 150.738632 171.593319 
L 150.932558 171.593319 
L 150.932558 171.019667 
L 151.233007 171.019667 
L 151.287083 169.298712 
L 151.421542 169.298712 
L 151.421542 168.151408 
L 151.660987 168.151408 
L 151.68739 166.430453 
L 152.712018 166.430453 
L 152.712018 163.562195 
L 153.773658 163.562195 
L 153.773658 162.988543 
L 154.167129 162.988543 
L 154.167129 162.414891 
L 154.303908 162.414891 
L 154.303908 161.267588 
L 155.296925 161.267588 
L 155.296925 160.693936 
L 197.25627 160.693936 
L 197.343095 153.810115 
L 197.404575 153.810115 
L 197.479213 145.20534 
L 197.544022 145.20534 
L 197.637001 141.189778 
L 197.669144 141.189778 
L 197.767096 138.895171 
L 197.787747 138.895171 
L 197.787747 138.321519 
L 197.926036 138.321519 
L 198.033663 133.732305 
L 198.04291 133.732305 
L 198.147983 121.685619 
L 198.159007 121.685619 
L 198.252427 105.049719 
L 198.288926 105.049719 
L 198.394343 100.460506 
L 198.403401 100.460506 
L 198.493723 93.576685 
L 198.538709 93.576685 
L 198.538709 92.429381 
L 198.658703 92.429381 
L 198.738834 90.708426 
L 209.339422 90.708426 
L 209.443589 86.692864 
L 209.470494 86.692864 
L 209.570066 82.677302 
L 209.590102 82.677302 
L 209.690891 79.809044 
L 209.714578 79.809044 
L 209.816534 64.894099 
L 209.825945 64.894099 
L 209.933801 58.58393 
L 209.938475 58.58393 
L 210.047497 56.289323 
L 216.404959 56.289323 
L 216.503387 51.126458 
L 216.570615 51.126458 
L 216.67002 47.110896 
L 216.687168 47.110896 
L 216.796009 39.653423 
L 216.879081 39.653423 
L 216.879081 37.932468 
L 221.421121 37.932468 
L 221.492106 34.490558 
L 221.608818 34.490558 
L 221.677614 29.327692 
L 221.724279 29.327692 
L 221.729034 27.606737 
L 225.309778 27.606737 
L 225.380485 24.164827 
L 225.463959 24.164827 
L 225.558489 18.42831 
L 228.515835 18.42831 
L 228.625342 15.560051 
L 228.636862 15.560051 
L 228.673295 13.265444 
L 231.302273 13.265444 
L 231.377618 11.544489 
L 233.502092 11.544489 
L 233.502092 10.970838 
L 233.614036 10.970838 
L 233.645271 9.823534 
L 235.569773 9.823534 
L 235.653412 8.102579 
L 235.690812 8.102579 
L 235.690812 7.528927 
L 237.473292 7.528927 
L 237.484275 6.381624 
L 338.688 6.381624 
L 338.688 6.381624 
" style="fill:none;stroke:#ff7500;stroke-linecap:square;stroke-width:1.5;"/>
   </g>
   <g id="line2d_41">
    <defs>
     <path d="M 0 -6 
L -1.347084 -1.854102 
L -5.706339 -1.854102 
L -2.179628 0.708204 
L -3.526712 4.854102 
L -0 2.291796 
L 3.526712 4.854102 
L 2.179628 0.708204 
L 5.706339 -1.854102 
L 1.347084 -1.854102 
z
" id="maf00f2cde3" style="stroke:#ff7500;stroke-linejoin:bevel;stroke-width:1.5;"/>
    </defs>
    <g>
     <use style="fill-opacity:0;stroke:#ff7500;stroke-linejoin:bevel;stroke-width:1.5;" x="104.033617" xlink:href="#maf00f2cde3" y="265.6722"/>
     <use style="fill-opacity:0;stroke:#ff7500;stroke-linejoin:bevel;stroke-width:1.5;" x="155.296925" xlink:href="#maf00f2cde3" y="161.267588"/>
     <use style="fill-opacity:0;stroke:#ff7500;stroke-linejoin:bevel;stroke-width:1.5;" x="210.047497" xlink:href="#maf00f2cde3" y="56.862975"/>
     <use style="fill-opacity:0;stroke:#ff7500;stroke-linejoin:bevel;stroke-width:1.5;" x="237.484275" xlink:href="#maf00f2cde3" y="6.381624"/>
     <use style="fill-opacity:0;stroke:#ff7500;stroke-linejoin:bevel;stroke-width:1.5;" x="237.484275" xlink:href="#maf00f2cde3" y="6.381624"/>
     <use style="fill-opacity:0;stroke:#ff7500;stroke-linejoin:bevel;stroke-width:1.5;" x="338.688" xlink:href="#maf00f2cde3" y="6.381624"/>
    </g>
   </g>
   <g id="line2d_42">
    <path style="fill:none;stroke:#ff7500;stroke-linecap:square;stroke-width:1.5;"/>
    <g/>
   </g>
   <g id="line2d_43">
    <path clip-path="url(#p1a85273a8e)" d="M 197.231106 160.693936 
" style="fill:none;stroke:#ff7500;stroke-linecap:square;stroke-width:1.5;"/>
    <defs>
     <path d="M -12 12 
L 12 -12 
M -12 -12 
L 12 12 
" id="m29167a2945" style="stroke:#ff7500;"/>
    </defs>
    <g clip-path="url(#p1a85273a8e)">
     <use style="fill:#ff7500;stroke:#ff7500;" x="197.231106" xlink:href="#m29167a2945" y="160.693936"/>
    </g>
   </g>
   <g id="line2d_44">
    <defs>
     <path d="M 0 1.5 
C 0.397805 1.5 0.77937 1.341951 1.06066 1.06066 
C 1.341951 0.77937 1.5 0.397805 1.5 0 
C 1.5 -0.397805 1.341951 -0.77937 1.06066 -1.06066 
C 0.77937 -1.341951 0.397805 -1.5 0 -1.5 
C -0.397805 -1.5 -0.77937 -1.341951 -1.06066 -1.06066 
C -1.341951 -0.77937 -1.5 -0.397805 -1.5 0 
C -1.5 0.397805 -1.341951 0.77937 -1.06066 1.06066 
C -0.77937 1.341951 -0.397805 1.5 0 1.5 
z
" id="m2dbdd52b3b" style="stroke:#6495ed;"/>
    </defs>
    <g>
     <use style="fill:#6495ed;stroke:#6495ed;" x="262.877571" xlink:href="#m2dbdd52b3b" y="6.381624"/>
     <use style="fill:#6495ed;stroke:#6495ed;" x="262.877571" xlink:href="#m2dbdd52b3b" y="6.381624"/>
    </g>
   </g>
   <g id="line2d_45">
    <path d="M 38.440992 298.944 
L 38.440992 275.997931 
L 50.52898 275.997931 
L 50.52898 270.835066 
L 57.6 270.835066 
L 57.6 269.114111 
L 62.616969 269.114111 
L 62.616969 267.393156 
L 69.687988 267.393156 
L 69.687988 266.245852 
L 72.376266 266.245852 
L 72.376266 265.098549 
L 76.759008 265.098549 
L 76.759008 264.524897 
L 78.59642 264.524897 
L 78.59642 262.803942 
L 81.775977 262.803942 
L 81.775977 262.23029 
L 93.121756 262.23029 
L 93.121756 259.935683 
L 98.880934 259.935683 
L 98.880934 259.362031 
L 101.412804 259.362031 
L 101.412804 258.78838 
L 103.623262 258.78838 
L 103.623262 258.214728 
L 105.584798 258.214728 
L 105.584798 257.641076 
L 105.951954 257.641076 
L 105.951954 256.493773 
L 110.415248 256.493773 
L 110.415248 255.920121 
L 111.239304 255.920121 
L 111.239304 255.346469 
L 111.505558 255.346469 
L 111.505558 254.772818 
L 115.077025 254.772818 
L 115.077025 253.625514 
L 123.855796 253.625514 
L 123.855796 253.051863 
L 127.378995 253.051863 
L 127.378995 252.478211 
L 132.019755 252.478211 
L 132.019755 251.904559 
L 132.893889 251.904559 
L 132.893889 251.330907 
L 133.352844 251.330907 
L 133.352844 250.757256 
L 135.415281 250.757256 
L 135.415281 250.183604 
L 136.008736 250.183604 
L 136.008736 249.609952 
L 136.202149 249.609952 
L 136.202149 249.036301 
L 136.769843 249.036301 
L 136.769843 248.462649 
L 137.259399 248.462649 
L 137.259399 247.888997 
L 138.313099 247.888997 
L 138.313099 247.315345 
L 138.761723 247.315345 
L 138.761723 246.741694 
L 141.090414 246.741694 
L 141.090414 246.168042 
L 141.235139 246.168042 
L 141.33096 245.020738 
L 141.755753 245.020738 
L 141.848763 243.873435 
L 144.390658 243.873435 
L 144.390658 241.578828 
L 145.516164 241.578828 
L 145.516164 241.005176 
L 146.107383 241.005176 
L 146.107383 240.431525 
L 147.027314 240.431525 
L 147.027314 239.857873 
L 147.636905 239.857873 
L 147.736463 238.71057 
L 147.769524 238.71057 
L 147.86833 237.563266 
L 148.096724 237.563266 
L 148.096724 236.989614 
L 148.826773 236.989614 
L 148.888835 235.842311 
L 149.735275 235.842311 
L 149.735275 235.268659 
L 152.027042 235.268659 
L 152.027042 234.695008 
L 154.075343 234.695008 
L 154.075343 234.121356 
L 155.059358 234.121356 
L 155.102793 232.974052 
L 155.845906 232.974052 
L 155.908152 231.826749 
L 156.357959 231.826749 
L 156.418408 230.679446 
L 156.498681 230.679446 
L 156.498681 229.532142 
L 156.953214 229.532142 
L 156.992185 226.663884 
L 158.322071 226.663884 
L 158.322071 226.090232 
L 159.388866 226.090232 
L 159.388866 225.51658 
L 160.249422 225.51658 
L 160.313893 223.795625 
L 160.36209 223.795625 
L 160.36209 223.221973 
L 161.64531 223.221973 
L 161.64531 222.07467 
L 162.043181 222.07467 
L 162.115875 220.927366 
L 162.854457 220.927366 
L 162.854457 220.353715 
L 163.006766 220.353715 
L 163.103002 218.059108 
L 163.549667 218.059108 
L 163.549667 217.485456 
L 163.906798 217.485456 
L 163.906798 216.911804 
L 164.166702 216.911804 
L 164.166702 216.338153 
L 165.120455 216.338153 
L 165.120455 215.764501 
L 165.53081 215.764501 
L 165.53081 215.190849 
L 165.685193 215.190849 
L 165.685193 214.617197 
L 165.9084 214.617197 
L 165.9084 214.043546 
L 166.312239 214.043546 
L 166.312239 213.469894 
L 166.48249 213.469894 
L 166.48249 212.896242 
L 167.179933 212.896242 
L 167.179933 212.322591 
L 167.608702 212.322591 
L 167.608702 211.748939 
L 170.082381 211.748939 
L 170.137423 210.027984 
L 170.210544 210.027984 
L 170.210544 209.454332 
L 170.428085 209.454332 
L 170.428085 208.88068 
L 197.356562 208.88068 
L 197.356562 208.307029 
L 197.618066 208.307029 
L 197.618066 207.733377 
L 198.054 207.733377 
L 198.107504 205.43877 
L 198.184701 205.43877 
L 198.184701 204.865118 
L 198.455845 204.865118 
L 198.490119 201.423208 
L 198.640845 201.423208 
L 198.722837 197.407646 
L 198.769011 197.407646 
L 198.769011 196.833994 
L 198.88215 196.833994 
L 198.88215 195.686691 
L 199.090586 195.686691 
L 199.116684 193.392084 
L 199.212042 193.392084 
L 199.281068 190.523825 
L 199.351537 190.523825 
L 199.408049 186.508263 
L 199.518829 186.508263 
L 199.59173 184.213656 
L 199.637349 184.213656 
L 199.743333 183.066353 
L 199.798592 183.066353 
L 199.908588 181.345398 
L 199.913571 181.345398 
L 199.966639 179.624443 
L 200.095318 179.624443 
L 200.095318 179.050791 
L 200.576779 179.050791 
L 200.627869 176.756184 
L 209.667173 176.756184 
L 209.667173 175.608881 
L 209.819358 175.608881 
L 209.898235 172.740622 
L 209.942213 172.740622 
L 210.002852 170.446015 
L 210.05864 170.446015 
L 210.165993 164.709498 
L 210.20378 164.709498 
L 210.287355 162.414891 
L 210.338588 162.414891 
L 210.43152 158.972981 
L 210.493201 158.972981 
L 210.581712 155.53107 
L 210.620407 155.53107 
L 210.711853 152.662812 
L 210.740443 152.662812 
L 210.845467 149.794553 
L 210.858773 149.794553 
L 210.869409 148.64725 
L 211.07204 148.64725 
L 211.100047 146.926295 
L 216.66875 146.926295 
L 216.729646 145.778991 
L 216.807991 145.778991 
L 216.901668 143.484384 
L 216.939249 143.484384 
L 217.041558 141.189778 
L 217.078218 141.189778 
L 217.146362 138.895171 
L 217.213009 138.895171 
L 217.309442 136.600564 
L 217.329032 136.600564 
L 217.431519 134.305957 
L 221.637994 134.305957 
L 221.721425 132.585002 
L 221.770345 132.585002 
L 221.834728 127.995788 
L 221.925689 127.995788 
L 222.012437 122.832923 
L 222.040479 122.832923 
L 222.115967 119.964664 
L 222.193909 119.964664 
L 222.199462 118.817361 
L 222.320284 118.817361 
L 222.320284 118.243709 
L 225.438612 118.243709 
L 225.501909 114.801798 
L 225.575275 114.801798 
L 225.641497 111.359888 
L 225.692325 111.359888 
L 225.784499 107.344326 
L 225.80709 107.344326 
L 225.843175 105.049719 
L 226.032892 105.049719 
L 226.032892 104.476068 
L 228.616696 104.476068 
L 228.709014 99.886854 
L 228.735756 99.886854 
L 228.806866 93.576685 
L 228.8499 93.576685 
L 228.954822 87.840168 
L 229.006578 87.840168 
L 229.092186 84.971909 
L 231.346698 84.971909 
L 231.448555 80.382695 
L 231.462708 80.382695 
L 231.566326 75.21983 
L 231.605497 75.21983 
L 231.616287 73.498875 
L 233.630862 73.498875 
L 233.710205 70.056964 
L 233.755587 70.056964 
L 233.836503 65.467751 
L 233.889371 65.467751 
L 233.957649 64.320447 
L 235.642497 64.320447 
L 235.740483 59.731234 
L 235.765798 59.731234 
L 235.860981 54.568368 
L 235.905744 54.568368 
L 235.960905 53.421065 
L 237.536974 53.421065 
L 237.627765 47.684547 
L 237.68308 47.684547 
L 237.751504 46.537244 
L 239.155415 46.537244 
L 239.2535 44.242637 
L 239.292615 44.242637 
L 239.382162 40.227075 
L 240.656736 40.227075 
L 240.739561 35.637861 
L 242.081073 35.637861 
L 242.15049 32.769603 
L 242.207882 32.769603 
L 242.207882 31.622299 
L 243.352605 31.622299 
L 243.45029 26.459434 
L 244.601976 26.459434 
L 244.672401 24.738479 
L 245.680126 24.738479 
L 245.73638 23.017524 
L 246.72125 23.017524 
L 246.815359 20.722917 
L 247.697593 20.722917 
L 247.77154 19.001962 
L 248.670911 19.001962 
L 248.735194 16.707355 
L 249.555594 16.707355 
L 249.558679 15.560051 
L 250.385702 15.560051 
L 250.435911 13.265444 
L 251.212572 13.265444 
L 251.240778 12.118141 
L 253.435118 12.118141 
L 253.435118 11.544489 
L 254.085692 11.544489 
L 254.085692 10.970838 
L 254.785942 10.970838 
L 254.804859 9.249882 
L 256.013937 9.249882 
L 256.056156 7.528927 
L 262.45456 7.528927 
L 262.45456 6.955275 
L 262.877571 6.955275 
L 262.877571 6.381624 
L 338.688 6.381624 
L 338.688 6.381624 
" style="fill:none;stroke:#6495ed;stroke-linecap:square;stroke-width:1.5;"/>
   </g>
   <g id="line2d_46">
    <defs>
     <path d="M -0 6 
L 6 -6 
L -6 -6 
z
" id="md986eb78bd" style="stroke:#6495ed;stroke-linejoin:miter;stroke-width:1.5;"/>
    </defs>
    <g>
     <use style="fill-opacity:0;stroke:#6495ed;stroke-linejoin:miter;stroke-width:1.5;" x="127.378995" xlink:href="#md986eb78bd" y="252.478211"/>
     <use style="fill-opacity:0;stroke:#6495ed;stroke-linejoin:miter;stroke-width:1.5;" x="170.428085" xlink:href="#md986eb78bd" y="209.454332"/>
     <use style="fill-opacity:0;stroke:#6495ed;stroke-linejoin:miter;stroke-width:1.5;" x="231.616287" xlink:href="#md986eb78bd" y="73.498875"/>
     <use style="fill-opacity:0;stroke:#6495ed;stroke-linejoin:miter;stroke-width:1.5;" x="262.877571" xlink:href="#md986eb78bd" y="6.955275"/>
     <use style="fill-opacity:0;stroke:#6495ed;stroke-linejoin:miter;stroke-width:1.5;" x="262.877571" xlink:href="#md986eb78bd" y="6.381624"/>
     <use style="fill-opacity:0;stroke:#6495ed;stroke-linejoin:miter;stroke-width:1.5;" x="338.688" xlink:href="#md986eb78bd" y="6.381624"/>
    </g>
   </g>
   <g id="line2d_47">
    <path style="fill:none;stroke:#6495ed;stroke-linecap:square;stroke-width:1.5;"/>
    <g/>
   </g>
   <g id="line2d_48">
    <path clip-path="url(#p1a85273a8e)" d="M 197.231106 208.88068 
" style="fill:none;stroke:#6495ed;stroke-linecap:square;stroke-width:1.5;"/>
    <defs>
     <path d="M -12 12 
L 12 -12 
M -12 -12 
L 12 12 
" id="md3a6d74b70" style="stroke:#6495ed;"/>
    </defs>
    <g clip-path="url(#p1a85273a8e)">
     <use style="fill:#6495ed;stroke:#6495ed;" x="197.231106" xlink:href="#md3a6d74b70" y="208.88068"/>
    </g>
   </g>
   <g id="line2d_49">
    <defs>
     <path d="M 0 1.5 
C 0.397805 1.5 0.77937 1.341951 1.06066 1.06066 
C 1.341951 0.77937 1.5 0.397805 1.5 0 
C 1.5 -0.397805 1.341951 -0.77937 1.06066 -1.06066 
C 0.77937 -1.341951 0.397805 -1.5 0 -1.5 
C -0.397805 -1.5 -0.77937 -1.341951 -1.06066 -1.06066 
C -1.341951 -0.77937 -1.5 -0.397805 -1.5 0 
C -1.5 0.397805 -1.341951 0.77937 -1.06066 1.06066 
C -0.77937 1.341951 -0.397805 1.5 0 1.5 
z
" id="m99305a8c1c" style="stroke:#ff0000;"/>
    </defs>
    <g>
     <use style="fill:#ff0000;stroke:#ff0000;" x="266.157986" xlink:href="#m99305a8c1c" y="258.78838"/>
     <use style="fill:#ff0000;stroke:#ff0000;" x="266.157986" xlink:href="#m99305a8c1c" y="258.78838"/>
    </g>
   </g>
   <g id="line2d_50">
    <path d="M 38.440992 298.944 
L 38.440992 288.618269 
L 50.52898 288.618269 
L 50.52898 286.323662 
L 57.6 286.323662 
L 57.6 283.455404 
L 62.616969 283.455404 
L 62.616969 282.3081 
L 66.508432 282.3081 
L 66.508432 281.160797 
L 69.687988 281.160797 
L 69.687988 280.587145 
L 78.59642 280.587145 
L 78.59642 280.013493 
L 87.850195 280.013493 
L 87.850195 279.439842 
L 89.78989 279.439842 
L 89.78989 278.86619 
L 92.34655 278.86619 
L 92.34655 278.292538 
L 98.880934 278.292538 
L 98.880934 277.718886 
L 99.41757 277.718886 
L 99.41757 277.145235 
L 101.877879 277.145235 
L 101.877879 276.571583 
L 107.009204 276.571583 
L 107.009204 275.997931 
L 110.131676 275.997931 
L 110.131676 275.42428 
L 113.26352 275.42428 
L 113.26352 274.850628 
L 122.219665 274.850628 
L 122.219665 274.276976 
L 123.725164 274.276976 
L 123.725164 273.703324 
L 133.57787 273.703324 
L 133.57787 273.129673 
L 138.426341 273.129673 
L 138.426341 272.556021 
L 145.327221 272.556021 
L 145.327221 271.982369 
L 148.096724 271.982369 
L 148.096724 271.408718 
L 150.849711 271.408718 
L 150.849711 270.835066 
L 152.736878 270.835066 
L 152.736878 270.261414 
L 153.178403 270.261414 
L 153.178403 269.687762 
L 197.371941 269.687762 
L 197.371941 269.114111 
L 198.24329 269.114111 
L 198.24329 268.540459 
L 209.517479 268.540459 
L 209.517479 267.966807 
L 209.758077 267.966807 
L 209.758077 267.393156 
L 210.002852 267.393156 
L 210.002852 266.819504 
L 216.423014 266.819504 
L 216.423014 266.245852 
L 216.683994 266.245852 
L 216.683994 265.098549 
L 216.734078 265.098549 
L 216.734078 264.524897 
L 228.544482 264.524897 
L 228.544482 263.951245 
L 228.650933 263.951245 
L 228.650933 262.803942 
L 231.314625 262.803942 
L 231.314625 262.23029 
L 231.36449 262.23029 
L 231.36449 261.656638 
L 233.668541 261.656638 
L 233.668541 261.082987 
L 254.746687 261.082987 
L 254.746687 259.935683 
L 255.379537 259.935683 
L 255.379537 259.362031 
L 266.157986 259.362031 
L 266.157986 258.78838 
L 338.688 258.78838 
" style="fill:none;stroke:#ff0000;stroke-linecap:square;stroke-width:1.5;"/>
   </g>
   <g id="line2d_51">
    <defs>
     <path d="M 0 -6 
L -5.196152 -3 
L -5.196152 3 
L -0 6 
L 5.196152 3 
L 5.196152 -3 
z
" id="m02ada897f6" style="stroke:#ff0000;stroke-linejoin:miter;stroke-width:1.5;"/>
    </defs>
    <g>
     <use style="fill-opacity:0;stroke:#ff0000;stroke-linejoin:miter;stroke-width:1.5;" x="92.34655" xlink:href="#m02ada897f6" y="278.292538"/>
     <use style="fill-opacity:0;stroke:#ff0000;stroke-linejoin:miter;stroke-width:1.5;" x="150.849711" xlink:href="#m02ada897f6" y="271.408718"/>
     <use style="fill-opacity:0;stroke:#ff0000;stroke-linejoin:miter;stroke-width:1.5;" x="210.002852" xlink:href="#m02ada897f6" y="266.819504"/>
     <use style="fill-opacity:0;stroke:#ff0000;stroke-linejoin:miter;stroke-width:1.5;" x="266.157986" xlink:href="#m02ada897f6" y="258.78838"/>
     <use style="fill-opacity:0;stroke:#ff0000;stroke-linejoin:miter;stroke-width:1.5;" x="266.157986" xlink:href="#m02ada897f6" y="258.78838"/>
     <use style="fill-opacity:0;stroke:#ff0000;stroke-linejoin:miter;stroke-width:1.5;" x="338.688" xlink:href="#m02ada897f6" y="258.78838"/>
    </g>
   </g>
   <g id="line2d_52">
    <path style="fill:none;stroke:#ff0000;stroke-linecap:square;stroke-width:1.5;"/>
    <g/>
   </g>
   <g id="line2d_53">
    <path clip-path="url(#p1a85273a8e)" d="M 197.231106 269.687762 
" style="fill:none;stroke:#ff0000;stroke-linecap:square;stroke-width:1.5;"/>
    <defs>
     <path d="M -12 12 
L 12 -12 
M -12 -12 
L 12 12 
" id="mefbbc170b4" style="stroke:#ff0000;"/>
    </defs>
    <g clip-path="url(#p1a85273a8e)">
     <use style="fill:#ff0000;stroke:#ff0000;" x="197.231106" xlink:href="#mefbbc170b4" y="269.687762"/>
    </g>
   </g>
   <g id="line2d_54">
    <path d="M 338.688 258.78838 
L 369.60768 293.092752 
" style="fill:none;stroke:#ff0000;stroke-linecap:square;stroke-width:1.5;"/>
    <g>
     <use style="fill-opacity:0;stroke:#ff0000;stroke-linejoin:miter;stroke-width:1.5;" x="338.688" xlink:href="#m02ada897f6" y="258.78838"/>
     <use style="fill-opacity:0;stroke:#ff0000;stroke-linejoin:miter;stroke-width:1.5;" x="369.60768" xlink:href="#m02ada897f6" y="293.092752"/>
    </g>
   </g>
   <g id="line2d_55">
    <path d="M 338.688 247.315345 
L 369.60768 222.877782 
" style="fill:none;stroke:#000080;stroke-linecap:square;stroke-width:1.5;"/>
    <g>
     <use style="fill-opacity:0;stroke:#000080;stroke-width:1.5;" x="338.688" xlink:href="#ma5d49a1d46" y="247.315345"/>
     <use style="fill-opacity:0;stroke:#000080;stroke-width:1.5;" x="369.60768" xlink:href="#ma5d49a1d46" y="222.877782"/>
    </g>
   </g>
   <g id="line2d_56">
    <path d="M 338.688 6.381624 
L 369.60768 152.662812 
" style="fill:none;stroke:#6495ed;stroke-linecap:square;stroke-width:1.5;"/>
    <g>
     <use style="fill-opacity:0;stroke:#6495ed;stroke-linejoin:miter;stroke-width:1.5;" x="338.688" xlink:href="#md986eb78bd" y="6.381624"/>
     <use style="fill-opacity:0;stroke:#6495ed;stroke-linejoin:miter;stroke-width:1.5;" x="369.60768" xlink:href="#md986eb78bd" y="152.662812"/>
    </g>
   </g>
   <g id="line2d_57">
    <path d="M 338.688 6.381624 
L 369.60768 82.447842 
" style="fill:none;stroke:#ff00ff;stroke-linecap:square;stroke-width:1.5;"/>
    <g>
     <use style="fill-opacity:0;stroke:#ff00ff;stroke-linejoin:miter;stroke-width:1.5;" x="338.688" xlink:href="#me78e7b9e78" y="6.381624"/>
     <use style="fill-opacity:0;stroke:#ff00ff;stroke-linejoin:miter;stroke-width:1.5;" x="369.60768" xlink:href="#me78e7b9e78" y="82.447842"/>
    </g>
   </g>
   <g id="line2d_58">
    <path d="M 338.688 6.381624 
L 369.60768 12.232871 
" style="fill:none;stroke:#ff7500;stroke-linecap:square;stroke-width:1.5;"/>
    <g>
     <use style="fill-opacity:0;stroke:#ff7500;stroke-linejoin:bevel;stroke-width:1.5;" x="338.688" xlink:href="#maf00f2cde3" y="6.381624"/>
     <use style="fill-opacity:0;stroke:#ff7500;stroke-linejoin:bevel;stroke-width:1.5;" x="369.60768" xlink:href="#maf00f2cde3" y="12.232871"/>
    </g>
   </g>
   <g id="line2d_59">
    <path d="M 338.688 298.944 
L 338.688 6.381624 
" style="fill:none;stroke:#000000;stroke-linecap:square;stroke-width:1.5;"/>
   </g>
   <g id="patch_3">
    <path d="M 57.6 298.944 
L 57.6 3.456 
" style="fill:none;stroke:#000000;stroke-linecap:square;stroke-linejoin:miter;stroke-width:0.8;"/>
   </g>
   <g id="patch_4">
    <path d="M 338.688 298.944 
L 338.688 3.456 
" style="fill:none;stroke:#000000;stroke-linecap:square;stroke-linejoin:miter;stroke-width:0.8;"/>
   </g>
   <g id="patch_5">
    <path d="M 57.6 298.944 
L 338.688 298.944 
" style="fill:none;stroke:#000000;stroke-linecap:square;stroke-linejoin:miter;stroke-width:0.8;"/>
   </g>
   <g id="patch_6">
    <path d="M 57.6 3.456 
L 338.688 3.456 
" style="fill:none;stroke:#000000;stroke-linecap:square;stroke-linejoin:miter;stroke-width:0.8;"/>
   </g>
   <g id="text_13">
    <!-- f24 -->
    <g transform="translate(375.22944 297.78369)scale(0.17 -0.17)">
     <use xlink:href="#DejaVuSans-102"/>
     <use x="35.205078" xlink:href="#DejaVuSans-50"/>
     <use x="98.828125" xlink:href="#DejaVuSans-52"/>
    </g>
   </g>
   <g id="text_14">
    <!-- f20 -->
    <g transform="translate(375.22944 227.56872)scale(0.17 -0.17)">
     <use xlink:href="#DejaVuSans-102"/>
     <use x="35.205078" xlink:href="#DejaVuSans-50"/>
     <use x="98.828125" xlink:href="#DejaVuSans-48"/>
    </g>
   </g>
   <g id="text_15">
    <!-- f23 -->
    <g transform="translate(375.22944 157.353749)scale(0.17 -0.17)">
     <defs>
      <path d="M 40.578125 39.3125 
Q 47.65625 37.796875 51.625 33 
Q 55.609375 28.21875 55.609375 21.1875 
Q 55.609375 10.40625 48.1875 4.484375 
Q 40.765625 -1.421875 27.09375 -1.421875 
Q 22.515625 -1.421875 17.65625 -0.515625 
Q 12.796875 0.390625 7.625 2.203125 
L 7.625 11.71875 
Q 11.71875 9.328125 16.59375 8.109375 
Q 21.484375 6.890625 26.8125 6.890625 
Q 36.078125 6.890625 40.9375 10.546875 
Q 45.796875 14.203125 45.796875 21.1875 
Q 45.796875 27.640625 41.28125 31.265625 
Q 36.765625 34.90625 28.71875 34.90625 
L 20.21875 34.90625 
L 20.21875 43.015625 
L 29.109375 43.015625 
Q 36.375 43.015625 40.234375 45.921875 
Q 44.09375 48.828125 44.09375 54.296875 
Q 44.09375 59.90625 40.109375 62.90625 
Q 36.140625 65.921875 28.71875 65.921875 
Q 24.65625 65.921875 20.015625 65.03125 
Q 15.375 64.15625 9.8125 62.3125 
L 9.8125 71.09375 
Q 15.4375 72.65625 20.34375 73.4375 
Q 25.25 74.21875 29.59375 74.21875 
Q 40.828125 74.21875 47.359375 69.109375 
Q 53.90625 64.015625 53.90625 55.328125 
Q 53.90625 49.265625 50.4375 45.09375 
Q 46.96875 40.921875 40.578125 39.3125 
z
" id="DejaVuSans-51"/>
     </defs>
     <use xlink:href="#DejaVuSans-102"/>
     <use x="35.205078" xlink:href="#DejaVuSans-50"/>
     <use x="98.828125" xlink:href="#DejaVuSans-51"/>
    </g>
   </g>
   <g id="text_16">
    <!-- f21 -->
    <g transform="translate(375.22944 87.138779)scale(0.17 -0.17)">
     <use xlink:href="#DejaVuSans-102"/>
     <use x="35.205078" xlink:href="#DejaVuSans-50"/>
     <use x="98.828125" xlink:href="#DejaVuSans-49"/>
    </g>
   </g>
   <g id="text_17">
    <!-- f22 -->
    <g transform="translate(375.22944 16.923809)scale(0.17 -0.17)">
     <use xlink:href="#DejaVuSans-102"/>
     <use x="35.205078" xlink:href="#DejaVuSans-50"/>
     <use x="98.828125" xlink:href="#DejaVuSans-50"/>
    </g>
   </g>
   <g id="text_18">
    <!-- bbob -->
    <g transform="translate(60.41088 14.161286)scale(0.102 -0.102)">
     <defs>
      <path d="M 48.6875 27.296875 
Q 48.6875 37.203125 44.609375 42.84375 
Q 40.53125 48.484375 33.40625 48.484375 
Q 26.265625 48.484375 22.1875 42.84375 
Q 18.109375 37.203125 18.109375 27.296875 
Q 18.109375 17.390625 22.1875 11.75 
Q 26.265625 6.109375 33.40625 6.109375 
Q 40.53125 6.109375 44.609375 11.75 
Q 48.6875 17.390625 48.6875 27.296875 
z
M 18.109375 46.390625 
Q 20.953125 51.265625 25.265625 53.625 
Q 29.59375 56 35.59375 56 
Q 45.5625 56 51.78125 48.09375 
Q 58.015625 40.1875 58.015625 27.296875 
Q 58.015625 14.40625 51.78125 6.484375 
Q 45.5625 -1.421875 35.59375 -1.421875 
Q 29.59375 -1.421875 25.265625 0.953125 
Q 20.953125 3.328125 18.109375 8.203125 
L 18.109375 0 
L 9.078125 0 
L 9.078125 75.984375 
L 18.109375 75.984375 
z
" id="DejaVuSans-98"/>
     </defs>
     <use xlink:href="#DejaVuSans-98"/>
     <use x="63.476562" xlink:href="#DejaVuSans-98"/>
     <use x="126.953125" xlink:href="#DejaVuSans-111"/>
     <use x="188.134766" xlink:href="#DejaVuSans-98"/>
    </g>
    <!-- Weak structure functions, 3-D -->
    <g transform="translate(60.41088 25.583055)scale(0.102 -0.102)">
     <defs>
      <path d="M 3.328125 72.90625 
L 13.28125 72.90625 
L 28.609375 11.28125 
L 43.890625 72.90625 
L 54.984375 72.90625 
L 70.3125 11.28125 
L 85.59375 72.90625 
L 95.609375 72.90625 
L 77.296875 0 
L 64.890625 0 
L 49.515625 63.28125 
L 33.984375 0 
L 21.578125 0 
z
" id="DejaVuSans-87"/>
      <path d="M 9.078125 75.984375 
L 18.109375 75.984375 
L 18.109375 31.109375 
L 44.921875 54.6875 
L 56.390625 54.6875 
L 27.390625 29.109375 
L 57.625 0 
L 45.90625 0 
L 18.109375 26.703125 
L 18.109375 0 
L 9.078125 0 
z
" id="DejaVuSans-107"/>
      <path d="M 19.671875 64.796875 
L 19.671875 8.109375 
L 31.59375 8.109375 
Q 46.6875 8.109375 53.6875 14.9375 
Q 60.6875 21.78125 60.6875 36.53125 
Q 60.6875 51.171875 53.6875 57.984375 
Q 46.6875 64.796875 31.59375 64.796875 
z
M 9.8125 72.90625 
L 30.078125 72.90625 
Q 51.265625 72.90625 61.171875 64.09375 
Q 71.09375 55.28125 71.09375 36.53125 
Q 71.09375 17.671875 61.125 8.828125 
Q 51.171875 0 30.078125 0 
L 9.8125 0 
z
" id="DejaVuSans-68"/>
     </defs>
     <use xlink:href="#DejaVuSans-87"/>
     <use x="93.001953" xlink:href="#DejaVuSans-101"/>
     <use x="154.525391" xlink:href="#DejaVuSans-97"/>
     <use x="215.804688" xlink:href="#DejaVuSans-107"/>
     <use x="273.714844" xlink:href="#DejaVuSans-32"/>
     <use x="305.501953" xlink:href="#DejaVuSans-115"/>
     <use x="357.601562" xlink:href="#DejaVuSans-116"/>
     <use x="396.810547" xlink:href="#DejaVuSans-114"/>
     <use x="437.923828" xlink:href="#DejaVuSans-117"/>
     <use x="501.302734" xlink:href="#DejaVuSans-99"/>
     <use x="556.283203" xlink:href="#DejaVuSans-116"/>
     <use x="595.492188" xlink:href="#DejaVuSans-117"/>
     <use x="658.871094" xlink:href="#DejaVuSans-114"/>
     <use x="697.734375" xlink:href="#DejaVuSans-101"/>
     <use x="759.257812" xlink:href="#DejaVuSans-32"/>
     <use x="791.044922" xlink:href="#DejaVuSans-102"/>
     <use x="826.25" xlink:href="#DejaVuSans-117"/>
     <use x="889.628906" xlink:href="#DejaVuSans-110"/>
     <use x="953.007812" xlink:href="#DejaVuSans-99"/>
     <use x="1007.988281" xlink:href="#DejaVuSans-116"/>
     <use x="1047.197266" xlink:href="#DejaVuSans-105"/>
     <use x="1074.980469" xlink:href="#DejaVuSans-111"/>
     <use x="1136.162109" xlink:href="#DejaVuSans-110"/>
     <use x="1199.541016" xlink:href="#DejaVuSans-115"/>
     <use x="1251.640625" xlink:href="#DejaVuSans-44"/>
     <use x="1283.427734" xlink:href="#DejaVuSans-32"/>
     <use x="1315.214844" xlink:href="#DejaVuSans-51"/>
     <use x="1378.837891" xlink:href="#DejaVuSans-45"/>
     <use x="1414.921875" xlink:href="#DejaVuSans-68"/>
    </g>
    <!-- 51 targets: 100..1e-08 -->
    <g transform="translate(60.41088 37.004824)scale(0.102 -0.102)">
     <defs>
      <path d="M 10.796875 72.90625 
L 49.515625 72.90625 
L 49.515625 64.59375 
L 19.828125 64.59375 
L 19.828125 46.734375 
Q 21.96875 47.46875 24.109375 47.828125 
Q 26.265625 48.1875 28.421875 48.1875 
Q 40.625 48.1875 47.75 41.5 
Q 54.890625 34.8125 54.890625 23.390625 
Q 54.890625 11.625 47.5625 5.09375 
Q 40.234375 -1.421875 26.90625 -1.421875 
Q 22.3125 -1.421875 17.546875 -0.640625 
Q 12.796875 0.140625 7.71875 1.703125 
L 7.71875 11.625 
Q 12.109375 9.234375 16.796875 8.0625 
Q 21.484375 6.890625 26.703125 6.890625 
Q 35.15625 6.890625 40.078125 11.328125 
Q 45.015625 15.765625 45.015625 23.390625 
Q 45.015625 31 40.078125 35.4375 
Q 35.15625 39.890625 26.703125 39.890625 
Q 22.75 39.890625 18.8125 39.015625 
Q 14.890625 38.140625 10.796875 36.28125 
z
" id="DejaVuSans-53"/>
      <path d="M 11.71875 12.40625 
L 22.015625 12.40625 
L 22.015625 0 
L 11.71875 0 
z
M 11.71875 51.703125 
L 22.015625 51.703125 
L 22.015625 39.3125 
L 11.71875 39.3125 
z
" id="DejaVuSans-58"/>
     </defs>
     <use xlink:href="#DejaVuSans-53"/>
     <use x="63.623047" xlink:href="#DejaVuSans-49"/>
     <use x="127.246094" xlink:href="#DejaVuSans-32"/>
     <use x="159.033203" xlink:href="#DejaVuSans-116"/>
     <use x="198.242188" xlink:href="#DejaVuSans-97"/>
     <use x="259.521484" xlink:href="#DejaVuSans-114"/>
     <use x="298.884766" xlink:href="#DejaVuSans-103"/>
     <use x="362.361328" xlink:href="#DejaVuSans-101"/>
     <use x="423.884766" xlink:href="#DejaVuSans-116"/>
     <use x="463.09375" xlink:href="#DejaVuSans-115"/>
     <use x="515.193359" xlink:href="#DejaVuSans-58"/>
     <use x="548.884766" xlink:href="#DejaVuSans-32"/>
     <use x="580.671875" xlink:href="#DejaVuSans-49"/>
     <use x="644.294922" xlink:href="#DejaVuSans-48"/>
     <use x="707.917969" xlink:href="#DejaVuSans-48"/>
     <use x="771.541016" xlink:href="#DejaVuSans-46"/>
     <use x="803.328125" xlink:href="#DejaVuSans-46"/>
     <use x="835.115234" xlink:href="#DejaVuSans-49"/>
     <use x="898.738281" xlink:href="#DejaVuSans-101"/>
     <use x="960.261719" xlink:href="#DejaVuSans-45"/>
     <use x="996.345703" xlink:href="#DejaVuSans-48"/>
     <use x="1059.96875" xlink:href="#DejaVuSans-56"/>
    </g>
    <!-- 15 instances -->
    <g transform="translate(60.41088 48.426593)scale(0.102 -0.102)">
     <use xlink:href="#DejaVuSans-49"/>
     <use x="63.623047" xlink:href="#DejaVuSans-53"/>
     <use x="127.246094" xlink:href="#DejaVuSans-32"/>
     <use x="159.033203" xlink:href="#DejaVuSans-105"/>
     <use x="186.816406" xlink:href="#DejaVuSans-110"/>
     <use x="250.195312" xlink:href="#DejaVuSans-115"/>
     <use x="302.294922" xlink:href="#DejaVuSans-116"/>
     <use x="341.503906" xlink:href="#DejaVuSans-97"/>
     <use x="402.783203" xlink:href="#DejaVuSans-110"/>
     <use x="466.162109" xlink:href="#DejaVuSans-99"/>
     <use x="521.142578" xlink:href="#DejaVuSans-101"/>
     <use x="582.666016" xlink:href="#DejaVuSans-115"/>
    </g>
   </g>
   <g id="text_19">
    <!-- v2.4 -->
    <g style="fill:#808080;" transform="translate(187.233062 293.909432)scale(0.1 -0.1)">
     <use xlink:href="#DejaVuSans-118"/>
     <use x="59.179688" xlink:href="#DejaVuSans-50"/>
     <use x="122.802734" xlink:href="#DejaVuSans-46"/>
     <use x="154.589844" xlink:href="#DejaVuSans-52"/>
    </g>
   </g>
  </g>
 </g>
 <defs>
  <clipPath id="p1a85273a8e">
   <rect height="295.488" width="281.088" x="57.6" y="3.456"/>
  </clipPath>
 </defs>
</svg>
