<?xml version="1.0" encoding="utf-8" standalone="no"?>
<!DOCTYPE svg PUBLIC "-//W3C//DTD SVG 1.1//EN"
  "http://www.w3.org/Graphics/SVG/1.1/DTD/svg11.dtd">
<!-- Created with matplotlib (https://matplotlib.org/) -->
<svg height="345.6pt" version="1.1" viewBox="0 0 460.8 345.6" width="460.8pt" xmlns="http://www.w3.org/2000/svg" xmlns:xlink="http://www.w3.org/1999/xlink">
 <metadata>
  <rdf:RDF xmlns:cc="http://creativecommons.org/ns#" xmlns:dc="http://purl.org/dc/elements/1.1/" xmlns:rdf="http://www.w3.org/1999/02/22-rdf-syntax-ns#">
   <cc:Work>
    <dc:type rdf:resource="http://purl.org/dc/dcmitype/StillImage"/>
    <dc:date>2021-06-17T01:37:25.908453</dc:date>
    <dc:format>image/svg+xml</dc:format>
    <dc:creator>
     <cc:Agent>
      <dc:title>Matplotlib v3.3.4, https://matplotlib.org/</dc:title>
     </cc:Agent>
    </dc:creator>
   </cc:Work>
  </rdf:RDF>
 </metadata>
 <defs>
  <style type="text/css">*{stroke-linecap:butt;stroke-linejoin:round;}</style>
 </defs>
 <g id="figure_1">
  <g id="patch_1">
   <path d="M 0 345.6 
L 460.8 345.6 
L 460.8 0 
L 0 0 
z
" style="fill:#ffffff;"/>
  </g>
  <g id="axes_1">
   <g id="patch_2">
    <path d="M 57.6 298.944 
L 338.688 298.944 
L 338.688 3.456 
L 57.6 3.456 
z
" style="fill:#ffffff;"/>
   </g>
   <g id="matplotlib.axis_1">
    <g id="xtick_1">
     <g id="line2d_1">
      <path clip-path="url(#p9ed6667721)" d="M 57.6 298.944 
L 57.6 3.456 
" style="fill:none;stroke:#b0b0b0;stroke-linecap:square;stroke-width:0.8;"/>
     </g>
     <g id="line2d_2">
      <defs>
       <path d="M 0 0 
L 0 3.5 
" id="mc80b48911b" style="stroke:#000000;stroke-width:0.8;"/>
      </defs>
      <g>
       <use style="stroke:#000000;stroke-width:0.8;" x="57.6" xlink:href="#mc80b48911b" y="298.944"/>
      </g>
     </g>
     <g id="text_1">
      <!-- 0 -->
      <g transform="translate(51.2375 321.140875)scale(0.2 -0.2)">
       <defs>
        <path d="M 31.78125 66.40625 
Q 24.171875 66.40625 20.328125 58.90625 
Q 16.5 51.421875 16.5 36.375 
Q 16.5 21.390625 20.328125 13.890625 
Q 24.171875 6.390625 31.78125 6.390625 
Q 39.453125 6.390625 43.28125 13.890625 
Q 47.125 21.390625 47.125 36.375 
Q 47.125 51.421875 43.28125 58.90625 
Q 39.453125 66.40625 31.78125 66.40625 
z
M 31.78125 74.21875 
Q 44.046875 74.21875 50.515625 64.515625 
Q 56.984375 54.828125 56.984375 36.375 
Q 56.984375 17.96875 50.515625 8.265625 
Q 44.046875 -1.421875 31.78125 -1.421875 
Q 19.53125 -1.421875 13.0625 8.265625 
Q 6.59375 17.96875 6.59375 36.375 
Q 6.59375 54.828125 13.0625 64.515625 
Q 19.53125 74.21875 31.78125 74.21875 
z
" id="DejaVuSans-48"/>
       </defs>
       <use xlink:href="#DejaVuSans-48"/>
      </g>
     </g>
    </g>
    <g id="xtick_2">
     <g id="line2d_3">
      <path clip-path="url(#p9ed6667721)" d="M 137.910857 298.944 
L 137.910857 3.456 
" style="fill:none;stroke:#b0b0b0;stroke-linecap:square;stroke-width:0.8;"/>
     </g>
     <g id="line2d_4">
      <g>
       <use style="stroke:#000000;stroke-width:0.8;" x="137.910857" xlink:href="#mc80b48911b" y="298.944"/>
      </g>
     </g>
     <g id="text_2">
      <!-- 2 -->
      <g transform="translate(131.548357 321.140875)scale(0.2 -0.2)">
       <defs>
        <path d="M 19.1875 8.296875 
L 53.609375 8.296875 
L 53.609375 0 
L 7.328125 0 
L 7.328125 8.296875 
Q 12.9375 14.109375 22.625 23.890625 
Q 32.328125 33.6875 34.8125 36.53125 
Q 39.546875 41.84375 41.421875 45.53125 
Q 43.3125 49.21875 43.3125 52.78125 
Q 43.3125 58.59375 39.234375 62.25 
Q 35.15625 65.921875 28.609375 65.921875 
Q 23.96875 65.921875 18.8125 64.3125 
Q 13.671875 62.703125 7.8125 59.421875 
L 7.8125 69.390625 
Q 13.765625 71.78125 18.9375 73 
Q 24.125 74.21875 28.421875 74.21875 
Q 39.75 74.21875 46.484375 68.546875 
Q 53.21875 62.890625 53.21875 53.421875 
Q 53.21875 48.921875 51.53125 44.890625 
Q 49.859375 40.875 45.40625 35.40625 
Q 44.1875 33.984375 37.640625 27.21875 
Q 31.109375 20.453125 19.1875 8.296875 
z
" id="DejaVuSans-50"/>
       </defs>
       <use xlink:href="#DejaVuSans-50"/>
      </g>
     </g>
    </g>
    <g id="xtick_3">
     <g id="line2d_5">
      <path clip-path="url(#p9ed6667721)" d="M 218.221714 298.944 
L 218.221714 3.456 
" style="fill:none;stroke:#b0b0b0;stroke-linecap:square;stroke-width:0.8;"/>
     </g>
     <g id="line2d_6">
      <g>
       <use style="stroke:#000000;stroke-width:0.8;" x="218.221714" xlink:href="#mc80b48911b" y="298.944"/>
      </g>
     </g>
     <g id="text_3">
      <!-- 4 -->
      <g transform="translate(211.859214 321.140875)scale(0.2 -0.2)">
       <defs>
        <path d="M 37.796875 64.3125 
L 12.890625 25.390625 
L 37.796875 25.390625 
z
M 35.203125 72.90625 
L 47.609375 72.90625 
L 47.609375 25.390625 
L 58.015625 25.390625 
L 58.015625 17.1875 
L 47.609375 17.1875 
L 47.609375 0 
L 37.796875 0 
L 37.796875 17.1875 
L 4.890625 17.1875 
L 4.890625 26.703125 
z
" id="DejaVuSans-52"/>
       </defs>
       <use xlink:href="#DejaVuSans-52"/>
      </g>
     </g>
    </g>
    <g id="xtick_4">
     <g id="line2d_7">
      <path clip-path="url(#p9ed6667721)" d="M 298.532571 298.944 
L 298.532571 3.456 
" style="fill:none;stroke:#b0b0b0;stroke-linecap:square;stroke-width:0.8;"/>
     </g>
     <g id="line2d_8">
      <g>
       <use style="stroke:#000000;stroke-width:0.8;" x="298.532571" xlink:href="#mc80b48911b" y="298.944"/>
      </g>
     </g>
     <g id="text_4">
      <!-- 6 -->
      <g transform="translate(292.170071 321.140875)scale(0.2 -0.2)">
       <defs>
        <path d="M 33.015625 40.375 
Q 26.375 40.375 22.484375 35.828125 
Q 18.609375 31.296875 18.609375 23.390625 
Q 18.609375 15.53125 22.484375 10.953125 
Q 26.375 6.390625 33.015625 6.390625 
Q 39.65625 6.390625 43.53125 10.953125 
Q 47.40625 15.53125 47.40625 23.390625 
Q 47.40625 31.296875 43.53125 35.828125 
Q 39.65625 40.375 33.015625 40.375 
z
M 52.59375 71.296875 
L 52.59375 62.3125 
Q 48.875 64.0625 45.09375 64.984375 
Q 41.3125 65.921875 37.59375 65.921875 
Q 27.828125 65.921875 22.671875 59.328125 
Q 17.53125 52.734375 16.796875 39.40625 
Q 19.671875 43.65625 24.015625 45.921875 
Q 28.375 48.1875 33.59375 48.1875 
Q 44.578125 48.1875 50.953125 41.515625 
Q 57.328125 34.859375 57.328125 23.390625 
Q 57.328125 12.15625 50.6875 5.359375 
Q 44.046875 -1.421875 33.015625 -1.421875 
Q 20.359375 -1.421875 13.671875 8.265625 
Q 6.984375 17.96875 6.984375 36.375 
Q 6.984375 53.65625 15.1875 63.9375 
Q 23.390625 74.21875 37.203125 74.21875 
Q 40.921875 74.21875 44.703125 73.484375 
Q 48.484375 72.75 52.59375 71.296875 
z
" id="DejaVuSans-54"/>
       </defs>
       <use xlink:href="#DejaVuSans-54"/>
      </g>
     </g>
    </g>
    <g id="xtick_5">
     <g id="line2d_9">
      <path clip-path="url(#p9ed6667721)" d="M 97.755429 298.944 
L 97.755429 3.456 
" style="fill:none;stroke:#b0b0b0;stroke-linecap:square;stroke-width:0.8;"/>
     </g>
     <g id="line2d_10">
      <defs>
       <path d="M 0 0 
L 0 2 
" id="m9d2432e671" style="stroke:#000000;stroke-width:0.6;"/>
      </defs>
      <g>
       <use style="stroke:#000000;stroke-width:0.6;" x="97.755429" xlink:href="#m9d2432e671" y="298.944"/>
      </g>
     </g>
    </g>
    <g id="xtick_6">
     <g id="line2d_11">
      <path clip-path="url(#p9ed6667721)" d="M 178.066286 298.944 
L 178.066286 3.456 
" style="fill:none;stroke:#b0b0b0;stroke-linecap:square;stroke-width:0.8;"/>
     </g>
     <g id="line2d_12">
      <g>
       <use style="stroke:#000000;stroke-width:0.6;" x="178.066286" xlink:href="#m9d2432e671" y="298.944"/>
      </g>
     </g>
    </g>
    <g id="xtick_7">
     <g id="line2d_13">
      <path clip-path="url(#p9ed6667721)" d="M 258.377143 298.944 
L 258.377143 3.456 
" style="fill:none;stroke:#b0b0b0;stroke-linecap:square;stroke-width:0.8;"/>
     </g>
     <g id="line2d_14">
      <g>
       <use style="stroke:#000000;stroke-width:0.6;" x="258.377143" xlink:href="#m9d2432e671" y="298.944"/>
      </g>
     </g>
    </g>
    <g id="xtick_8">
     <g id="line2d_15">
      <path clip-path="url(#p9ed6667721)" d="M 338.688 298.944 
L 338.688 3.456 
" style="fill:none;stroke:#b0b0b0;stroke-linecap:square;stroke-width:0.8;"/>
     </g>
     <g id="line2d_16">
      <g>
       <use style="stroke:#000000;stroke-width:0.6;" x="338.688" xlink:href="#m9d2432e671" y="298.944"/>
      </g>
     </g>
    </g>
    <g id="text_5">
     <!-- log10(# f-evals / dimension) -->
     <g transform="translate(77.764078 342.217594)scale(0.17 -0.17)">
      <defs>
       <path d="M 9.421875 75.984375 
L 18.40625 75.984375 
L 18.40625 0 
L 9.421875 0 
z
" id="DejaVuSans-108"/>
       <path d="M 30.609375 48.390625 
Q 23.390625 48.390625 19.1875 42.75 
Q 14.984375 37.109375 14.984375 27.296875 
Q 14.984375 17.484375 19.15625 11.84375 
Q 23.34375 6.203125 30.609375 6.203125 
Q 37.796875 6.203125 41.984375 11.859375 
Q 46.1875 17.53125 46.1875 27.296875 
Q 46.1875 37.015625 41.984375 42.703125 
Q 37.796875 48.390625 30.609375 48.390625 
z
M 30.609375 56 
Q 42.328125 56 49.015625 48.375 
Q 55.71875 40.765625 55.71875 27.296875 
Q 55.71875 13.875 49.015625 6.21875 
Q 42.328125 -1.421875 30.609375 -1.421875 
Q 18.84375 -1.421875 12.171875 6.21875 
Q 5.515625 13.875 5.515625 27.296875 
Q 5.515625 40.765625 12.171875 48.375 
Q 18.84375 56 30.609375 56 
z
" id="DejaVuSans-111"/>
       <path d="M 45.40625 27.984375 
Q 45.40625 37.75 41.375 43.109375 
Q 37.359375 48.484375 30.078125 48.484375 
Q 22.859375 48.484375 18.828125 43.109375 
Q 14.796875 37.75 14.796875 27.984375 
Q 14.796875 18.265625 18.828125 12.890625 
Q 22.859375 7.515625 30.078125 7.515625 
Q 37.359375 7.515625 41.375 12.890625 
Q 45.40625 18.265625 45.40625 27.984375 
z
M 54.390625 6.78125 
Q 54.390625 -7.171875 48.1875 -13.984375 
Q 42 -20.796875 29.203125 -20.796875 
Q 24.46875 -20.796875 20.265625 -20.09375 
Q 16.0625 -19.390625 12.109375 -17.921875 
L 12.109375 -9.1875 
Q 16.0625 -11.328125 19.921875 -12.34375 
Q 23.78125 -13.375 27.78125 -13.375 
Q 36.625 -13.375 41.015625 -8.765625 
Q 45.40625 -4.15625 45.40625 5.171875 
L 45.40625 9.625 
Q 42.625 4.78125 38.28125 2.390625 
Q 33.9375 0 27.875 0 
Q 17.828125 0 11.671875 7.65625 
Q 5.515625 15.328125 5.515625 27.984375 
Q 5.515625 40.671875 11.671875 48.328125 
Q 17.828125 56 27.875 56 
Q 33.9375 56 38.28125 53.609375 
Q 42.625 51.21875 45.40625 46.390625 
L 45.40625 54.6875 
L 54.390625 54.6875 
z
" id="DejaVuSans-103"/>
       <path d="M 12.40625 8.296875 
L 28.515625 8.296875 
L 28.515625 63.921875 
L 10.984375 60.40625 
L 10.984375 69.390625 
L 28.421875 72.90625 
L 38.28125 72.90625 
L 38.28125 8.296875 
L 54.390625 8.296875 
L 54.390625 0 
L 12.40625 0 
z
" id="DejaVuSans-49"/>
       <path d="M 31 75.875 
Q 24.46875 64.65625 21.28125 53.65625 
Q 18.109375 42.671875 18.109375 31.390625 
Q 18.109375 20.125 21.3125 9.0625 
Q 24.515625 -2 31 -13.1875 
L 23.1875 -13.1875 
Q 15.875 -1.703125 12.234375 9.375 
Q 8.59375 20.453125 8.59375 31.390625 
Q 8.59375 42.28125 12.203125 53.3125 
Q 15.828125 64.359375 23.1875 75.875 
z
" id="DejaVuSans-40"/>
       <path d="M 51.125 44 
L 36.921875 44 
L 32.8125 27.6875 
L 47.125 27.6875 
z
M 43.796875 71.78125 
L 38.71875 51.515625 
L 52.984375 51.515625 
L 58.109375 71.78125 
L 65.921875 71.78125 
L 60.890625 51.515625 
L 76.125 51.515625 
L 76.125 44 
L 58.984375 44 
L 54.984375 27.6875 
L 70.515625 27.6875 
L 70.515625 20.21875 
L 53.078125 20.21875 
L 48 0 
L 40.1875 0 
L 45.21875 20.21875 
L 30.90625 20.21875 
L 25.875 0 
L 18.015625 0 
L 23.09375 20.21875 
L 7.71875 20.21875 
L 7.71875 27.6875 
L 24.90625 27.6875 
L 29 44 
L 13.28125 44 
L 13.28125 51.515625 
L 30.90625 51.515625 
L 35.890625 71.78125 
z
" id="DejaVuSans-35"/>
       <path id="DejaVuSans-32"/>
       <path d="M 37.109375 75.984375 
L 37.109375 68.5 
L 28.515625 68.5 
Q 23.6875 68.5 21.796875 66.546875 
Q 19.921875 64.59375 19.921875 59.515625 
L 19.921875 54.6875 
L 34.71875 54.6875 
L 34.71875 47.703125 
L 19.921875 47.703125 
L 19.921875 0 
L 10.890625 0 
L 10.890625 47.703125 
L 2.296875 47.703125 
L 2.296875 54.6875 
L 10.890625 54.6875 
L 10.890625 58.5 
Q 10.890625 67.625 15.140625 71.796875 
Q 19.390625 75.984375 28.609375 75.984375 
z
" id="DejaVuSans-102"/>
       <path d="M 4.890625 31.390625 
L 31.203125 31.390625 
L 31.203125 23.390625 
L 4.890625 23.390625 
z
" id="DejaVuSans-45"/>
       <path d="M 56.203125 29.59375 
L 56.203125 25.203125 
L 14.890625 25.203125 
Q 15.484375 15.921875 20.484375 11.0625 
Q 25.484375 6.203125 34.421875 6.203125 
Q 39.59375 6.203125 44.453125 7.46875 
Q 49.3125 8.734375 54.109375 11.28125 
L 54.109375 2.78125 
Q 49.265625 0.734375 44.1875 -0.34375 
Q 39.109375 -1.421875 33.890625 -1.421875 
Q 20.796875 -1.421875 13.15625 6.1875 
Q 5.515625 13.8125 5.515625 26.8125 
Q 5.515625 40.234375 12.765625 48.109375 
Q 20.015625 56 32.328125 56 
Q 43.359375 56 49.78125 48.890625 
Q 56.203125 41.796875 56.203125 29.59375 
z
M 47.21875 32.234375 
Q 47.125 39.59375 43.09375 43.984375 
Q 39.0625 48.390625 32.421875 48.390625 
Q 24.90625 48.390625 20.390625 44.140625 
Q 15.875 39.890625 15.1875 32.171875 
z
" id="DejaVuSans-101"/>
       <path d="M 2.984375 54.6875 
L 12.5 54.6875 
L 29.59375 8.796875 
L 46.6875 54.6875 
L 56.203125 54.6875 
L 35.6875 0 
L 23.484375 0 
z
" id="DejaVuSans-118"/>
       <path d="M 34.28125 27.484375 
Q 23.390625 27.484375 19.1875 25 
Q 14.984375 22.515625 14.984375 16.5 
Q 14.984375 11.71875 18.140625 8.90625 
Q 21.296875 6.109375 26.703125 6.109375 
Q 34.1875 6.109375 38.703125 11.40625 
Q 43.21875 16.703125 43.21875 25.484375 
L 43.21875 27.484375 
z
M 52.203125 31.203125 
L 52.203125 0 
L 43.21875 0 
L 43.21875 8.296875 
Q 40.140625 3.328125 35.546875 0.953125 
Q 30.953125 -1.421875 24.3125 -1.421875 
Q 15.921875 -1.421875 10.953125 3.296875 
Q 6 8.015625 6 15.921875 
Q 6 25.140625 12.171875 29.828125 
Q 18.359375 34.515625 30.609375 34.515625 
L 43.21875 34.515625 
L 43.21875 35.40625 
Q 43.21875 41.609375 39.140625 45 
Q 35.0625 48.390625 27.6875 48.390625 
Q 23 48.390625 18.546875 47.265625 
Q 14.109375 46.140625 10.015625 43.890625 
L 10.015625 52.203125 
Q 14.9375 54.109375 19.578125 55.046875 
Q 24.21875 56 28.609375 56 
Q 40.484375 56 46.34375 49.84375 
Q 52.203125 43.703125 52.203125 31.203125 
z
" id="DejaVuSans-97"/>
       <path d="M 44.28125 53.078125 
L 44.28125 44.578125 
Q 40.484375 46.53125 36.375 47.5 
Q 32.28125 48.484375 27.875 48.484375 
Q 21.1875 48.484375 17.84375 46.4375 
Q 14.5 44.390625 14.5 40.28125 
Q 14.5 37.15625 16.890625 35.375 
Q 19.28125 33.59375 26.515625 31.984375 
L 29.59375 31.296875 
Q 39.15625 29.25 43.1875 25.515625 
Q 47.21875 21.78125 47.21875 15.09375 
Q 47.21875 7.46875 41.1875 3.015625 
Q 35.15625 -1.421875 24.609375 -1.421875 
Q 20.21875 -1.421875 15.453125 -0.5625 
Q 10.6875 0.296875 5.421875 2 
L 5.421875 11.28125 
Q 10.40625 8.6875 15.234375 7.390625 
Q 20.0625 6.109375 24.8125 6.109375 
Q 31.15625 6.109375 34.5625 8.28125 
Q 37.984375 10.453125 37.984375 14.40625 
Q 37.984375 18.0625 35.515625 20.015625 
Q 33.0625 21.96875 24.703125 23.78125 
L 21.578125 24.515625 
Q 13.234375 26.265625 9.515625 29.90625 
Q 5.8125 33.546875 5.8125 39.890625 
Q 5.8125 47.609375 11.28125 51.796875 
Q 16.75 56 26.8125 56 
Q 31.78125 56 36.171875 55.265625 
Q 40.578125 54.546875 44.28125 53.078125 
z
" id="DejaVuSans-115"/>
       <path d="M 25.390625 72.90625 
L 33.6875 72.90625 
L 8.296875 -9.28125 
L 0 -9.28125 
z
" id="DejaVuSans-47"/>
       <path d="M 45.40625 46.390625 
L 45.40625 75.984375 
L 54.390625 75.984375 
L 54.390625 0 
L 45.40625 0 
L 45.40625 8.203125 
Q 42.578125 3.328125 38.25 0.953125 
Q 33.9375 -1.421875 27.875 -1.421875 
Q 17.96875 -1.421875 11.734375 6.484375 
Q 5.515625 14.40625 5.515625 27.296875 
Q 5.515625 40.1875 11.734375 48.09375 
Q 17.96875 56 27.875 56 
Q 33.9375 56 38.25 53.625 
Q 42.578125 51.265625 45.40625 46.390625 
z
M 14.796875 27.296875 
Q 14.796875 17.390625 18.875 11.75 
Q 22.953125 6.109375 30.078125 6.109375 
Q 37.203125 6.109375 41.296875 11.75 
Q 45.40625 17.390625 45.40625 27.296875 
Q 45.40625 37.203125 41.296875 42.84375 
Q 37.203125 48.484375 30.078125 48.484375 
Q 22.953125 48.484375 18.875 42.84375 
Q 14.796875 37.203125 14.796875 27.296875 
z
" id="DejaVuSans-100"/>
       <path d="M 9.421875 54.6875 
L 18.40625 54.6875 
L 18.40625 0 
L 9.421875 0 
z
M 9.421875 75.984375 
L 18.40625 75.984375 
L 18.40625 64.59375 
L 9.421875 64.59375 
z
" id="DejaVuSans-105"/>
       <path d="M 52 44.1875 
Q 55.375 50.25 60.0625 53.125 
Q 64.75 56 71.09375 56 
Q 79.640625 56 84.28125 50.015625 
Q 88.921875 44.046875 88.921875 33.015625 
L 88.921875 0 
L 79.890625 0 
L 79.890625 32.71875 
Q 79.890625 40.578125 77.09375 44.375 
Q 74.3125 48.1875 68.609375 48.1875 
Q 61.625 48.1875 57.5625 43.546875 
Q 53.515625 38.921875 53.515625 30.90625 
L 53.515625 0 
L 44.484375 0 
L 44.484375 32.71875 
Q 44.484375 40.625 41.703125 44.40625 
Q 38.921875 48.1875 33.109375 48.1875 
Q 26.21875 48.1875 22.15625 43.53125 
Q 18.109375 38.875 18.109375 30.90625 
L 18.109375 0 
L 9.078125 0 
L 9.078125 54.6875 
L 18.109375 54.6875 
L 18.109375 46.1875 
Q 21.1875 51.21875 25.484375 53.609375 
Q 29.78125 56 35.6875 56 
Q 41.65625 56 45.828125 52.96875 
Q 50 49.953125 52 44.1875 
z
" id="DejaVuSans-109"/>
       <path d="M 54.890625 33.015625 
L 54.890625 0 
L 45.90625 0 
L 45.90625 32.71875 
Q 45.90625 40.484375 42.875 44.328125 
Q 39.84375 48.1875 33.796875 48.1875 
Q 26.515625 48.1875 22.3125 43.546875 
Q 18.109375 38.921875 18.109375 30.90625 
L 18.109375 0 
L 9.078125 0 
L 9.078125 54.6875 
L 18.109375 54.6875 
L 18.109375 46.1875 
Q 21.34375 51.125 25.703125 53.5625 
Q 30.078125 56 35.796875 56 
Q 45.21875 56 50.046875 50.171875 
Q 54.890625 44.34375 54.890625 33.015625 
z
" id="DejaVuSans-110"/>
       <path d="M 8.015625 75.875 
L 15.828125 75.875 
Q 23.140625 64.359375 26.78125 53.3125 
Q 30.421875 42.28125 30.421875 31.390625 
Q 30.421875 20.453125 26.78125 9.375 
Q 23.140625 -1.703125 15.828125 -13.1875 
L 8.015625 -13.1875 
Q 14.5 -2 17.703125 9.0625 
Q 20.90625 20.125 20.90625 31.390625 
Q 20.90625 42.671875 17.703125 53.65625 
Q 14.5 64.65625 8.015625 75.875 
z
" id="DejaVuSans-41"/>
      </defs>
      <use xlink:href="#DejaVuSans-108"/>
      <use x="27.783203" xlink:href="#DejaVuSans-111"/>
      <use x="88.964844" xlink:href="#DejaVuSans-103"/>
      <use x="152.441406" xlink:href="#DejaVuSans-49"/>
      <use x="216.064453" xlink:href="#DejaVuSans-48"/>
      <use x="279.6875" xlink:href="#DejaVuSans-40"/>
      <use x="318.701172" xlink:href="#DejaVuSans-35"/>
      <use x="402.490234" xlink:href="#DejaVuSans-32"/>
      <use x="434.277344" xlink:href="#DejaVuSans-102"/>
      <use x="463.982422" xlink:href="#DejaVuSans-45"/>
      <use x="500.066406" xlink:href="#DejaVuSans-101"/>
      <use x="561.589844" xlink:href="#DejaVuSans-118"/>
      <use x="620.769531" xlink:href="#DejaVuSans-97"/>
      <use x="682.048828" xlink:href="#DejaVuSans-108"/>
      <use x="709.832031" xlink:href="#DejaVuSans-115"/>
      <use x="761.931641" xlink:href="#DejaVuSans-32"/>
      <use x="793.71875" xlink:href="#DejaVuSans-47"/>
      <use x="827.410156" xlink:href="#DejaVuSans-32"/>
      <use x="859.197266" xlink:href="#DejaVuSans-100"/>
      <use x="922.673828" xlink:href="#DejaVuSans-105"/>
      <use x="950.457031" xlink:href="#DejaVuSans-109"/>
      <use x="1047.869141" xlink:href="#DejaVuSans-101"/>
      <use x="1109.392578" xlink:href="#DejaVuSans-110"/>
      <use x="1172.771484" xlink:href="#DejaVuSans-115"/>
      <use x="1224.871094" xlink:href="#DejaVuSans-105"/>
      <use x="1252.654297" xlink:href="#DejaVuSans-111"/>
      <use x="1313.835938" xlink:href="#DejaVuSans-110"/>
      <use x="1377.214844" xlink:href="#DejaVuSans-41"/>
     </g>
    </g>
   </g>
   <g id="matplotlib.axis_2">
    <g id="ytick_1">
     <g id="line2d_17">
      <path clip-path="url(#p9ed6667721)" d="M 57.6 298.944 
L 338.688 298.944 
" style="fill:none;stroke:#b0b0b0;stroke-linecap:square;stroke-width:0.8;"/>
     </g>
     <g id="line2d_18">
      <defs>
       <path d="M 0 0 
L -3.5 0 
" id="ma80e31973a" style="stroke:#000000;stroke-width:0.8;"/>
      </defs>
      <g>
       <use style="stroke:#000000;stroke-width:0.8;" x="57.6" xlink:href="#ma80e31973a" y="298.944"/>
      </g>
     </g>
     <g id="text_6">
      <!-- 0.0 -->
      <g transform="translate(25.155 305.02275)scale(0.16 -0.16)">
       <defs>
        <path d="M 10.6875 12.40625 
L 21 12.40625 
L 21 0 
L 10.6875 0 
z
" id="DejaVuSans-46"/>
       </defs>
       <use xlink:href="#DejaVuSans-48"/>
       <use x="63.623047" xlink:href="#DejaVuSans-46"/>
       <use x="95.410156" xlink:href="#DejaVuSans-48"/>
      </g>
     </g>
    </g>
    <g id="ytick_2">
     <g id="line2d_19">
      <path clip-path="url(#p9ed6667721)" d="M 57.6 240.431525 
L 338.688 240.431525 
" style="fill:none;stroke:#b0b0b0;stroke-linecap:square;stroke-width:0.8;"/>
     </g>
     <g id="line2d_20">
      <g>
       <use style="stroke:#000000;stroke-width:0.8;" x="57.6" xlink:href="#ma80e31973a" y="240.431525"/>
      </g>
     </g>
     <g id="text_7">
      <!-- 0.2 -->
      <g transform="translate(25.155 246.510275)scale(0.16 -0.16)">
       <use xlink:href="#DejaVuSans-48"/>
       <use x="63.623047" xlink:href="#DejaVuSans-46"/>
       <use x="95.410156" xlink:href="#DejaVuSans-50"/>
      </g>
     </g>
    </g>
    <g id="ytick_3">
     <g id="line2d_21">
      <path clip-path="url(#p9ed6667721)" d="M 57.6 181.91905 
L 338.688 181.91905 
" style="fill:none;stroke:#b0b0b0;stroke-linecap:square;stroke-width:0.8;"/>
     </g>
     <g id="line2d_22">
      <g>
       <use style="stroke:#000000;stroke-width:0.8;" x="57.6" xlink:href="#ma80e31973a" y="181.91905"/>
      </g>
     </g>
     <g id="text_8">
      <!-- 0.4 -->
      <g transform="translate(25.155 187.9978)scale(0.16 -0.16)">
       <use xlink:href="#DejaVuSans-48"/>
       <use x="63.623047" xlink:href="#DejaVuSans-46"/>
       <use x="95.410156" xlink:href="#DejaVuSans-52"/>
      </g>
     </g>
    </g>
    <g id="ytick_4">
     <g id="line2d_23">
      <path clip-path="url(#p9ed6667721)" d="M 57.6 123.406574 
L 338.688 123.406574 
" style="fill:none;stroke:#b0b0b0;stroke-linecap:square;stroke-width:0.8;"/>
     </g>
     <g id="line2d_24">
      <g>
       <use style="stroke:#000000;stroke-width:0.8;" x="57.6" xlink:href="#ma80e31973a" y="123.406574"/>
      </g>
     </g>
     <g id="text_9">
      <!-- 0.6 -->
      <g transform="translate(25.155 129.485324)scale(0.16 -0.16)">
       <use xlink:href="#DejaVuSans-48"/>
       <use x="63.623047" xlink:href="#DejaVuSans-46"/>
       <use x="95.410156" xlink:href="#DejaVuSans-54"/>
      </g>
     </g>
    </g>
    <g id="ytick_5">
     <g id="line2d_25">
      <path clip-path="url(#p9ed6667721)" d="M 57.6 64.894099 
L 338.688 64.894099 
" style="fill:none;stroke:#b0b0b0;stroke-linecap:square;stroke-width:0.8;"/>
     </g>
     <g id="line2d_26">
      <g>
       <use style="stroke:#000000;stroke-width:0.8;" x="57.6" xlink:href="#ma80e31973a" y="64.894099"/>
      </g>
     </g>
     <g id="text_10">
      <!-- 0.8 -->
      <g transform="translate(25.155 70.972849)scale(0.16 -0.16)">
       <defs>
        <path d="M 31.78125 34.625 
Q 24.75 34.625 20.71875 30.859375 
Q 16.703125 27.09375 16.703125 20.515625 
Q 16.703125 13.921875 20.71875 10.15625 
Q 24.75 6.390625 31.78125 6.390625 
Q 38.8125 6.390625 42.859375 10.171875 
Q 46.921875 13.96875 46.921875 20.515625 
Q 46.921875 27.09375 42.890625 30.859375 
Q 38.875 34.625 31.78125 34.625 
z
M 21.921875 38.8125 
Q 15.578125 40.375 12.03125 44.71875 
Q 8.5 49.078125 8.5 55.328125 
Q 8.5 64.0625 14.71875 69.140625 
Q 20.953125 74.21875 31.78125 74.21875 
Q 42.671875 74.21875 48.875 69.140625 
Q 55.078125 64.0625 55.078125 55.328125 
Q 55.078125 49.078125 51.53125 44.71875 
Q 48 40.375 41.703125 38.8125 
Q 48.828125 37.15625 52.796875 32.3125 
Q 56.78125 27.484375 56.78125 20.515625 
Q 56.78125 9.90625 50.3125 4.234375 
Q 43.84375 -1.421875 31.78125 -1.421875 
Q 19.734375 -1.421875 13.25 4.234375 
Q 6.78125 9.90625 6.78125 20.515625 
Q 6.78125 27.484375 10.78125 32.3125 
Q 14.796875 37.15625 21.921875 38.8125 
z
M 18.3125 54.390625 
Q 18.3125 48.734375 21.84375 45.5625 
Q 25.390625 42.390625 31.78125 42.390625 
Q 38.140625 42.390625 41.71875 45.5625 
Q 45.3125 48.734375 45.3125 54.390625 
Q 45.3125 60.0625 41.71875 63.234375 
Q 38.140625 66.40625 31.78125 66.40625 
Q 25.390625 66.40625 21.84375 63.234375 
Q 18.3125 60.0625 18.3125 54.390625 
z
" id="DejaVuSans-56"/>
       </defs>
       <use xlink:href="#DejaVuSans-48"/>
       <use x="63.623047" xlink:href="#DejaVuSans-46"/>
       <use x="95.410156" xlink:href="#DejaVuSans-56"/>
      </g>
     </g>
    </g>
    <g id="ytick_6">
     <g id="line2d_27">
      <path clip-path="url(#p9ed6667721)" d="M 57.6 6.381624 
L 338.688 6.381624 
" style="fill:none;stroke:#b0b0b0;stroke-linecap:square;stroke-width:0.8;"/>
     </g>
     <g id="line2d_28">
      <g>
       <use style="stroke:#000000;stroke-width:0.8;" x="57.6" xlink:href="#ma80e31973a" y="6.381624"/>
      </g>
     </g>
     <g id="text_11">
      <!-- 1.0 -->
      <g transform="translate(25.155 12.460374)scale(0.16 -0.16)">
       <use xlink:href="#DejaVuSans-49"/>
       <use x="63.623047" xlink:href="#DejaVuSans-46"/>
       <use x="95.410156" xlink:href="#DejaVuSans-48"/>
      </g>
     </g>
    </g>
    <g id="text_12">
     <!-- Fraction of function,target pairs -->
     <g transform="translate(17.619531 285.585)rotate(-90)scale(0.17 -0.17)">
      <defs>
       <path d="M 9.8125 72.90625 
L 51.703125 72.90625 
L 51.703125 64.59375 
L 19.671875 64.59375 
L 19.671875 43.109375 
L 48.578125 43.109375 
L 48.578125 34.8125 
L 19.671875 34.8125 
L 19.671875 0 
L 9.8125 0 
z
" id="DejaVuSans-70"/>
       <path d="M 41.109375 46.296875 
Q 39.59375 47.171875 37.8125 47.578125 
Q 36.03125 48 33.890625 48 
Q 26.265625 48 22.1875 43.046875 
Q 18.109375 38.09375 18.109375 28.8125 
L 18.109375 0 
L 9.078125 0 
L 9.078125 54.6875 
L 18.109375 54.6875 
L 18.109375 46.1875 
Q 20.953125 51.171875 25.484375 53.578125 
Q 30.03125 56 36.53125 56 
Q 37.453125 56 38.578125 55.875 
Q 39.703125 55.765625 41.0625 55.515625 
z
" id="DejaVuSans-114"/>
       <path d="M 48.78125 52.59375 
L 48.78125 44.1875 
Q 44.96875 46.296875 41.140625 47.34375 
Q 37.3125 48.390625 33.40625 48.390625 
Q 24.65625 48.390625 19.8125 42.84375 
Q 14.984375 37.3125 14.984375 27.296875 
Q 14.984375 17.28125 19.8125 11.734375 
Q 24.65625 6.203125 33.40625 6.203125 
Q 37.3125 6.203125 41.140625 7.25 
Q 44.96875 8.296875 48.78125 10.40625 
L 48.78125 2.09375 
Q 45.015625 0.34375 40.984375 -0.53125 
Q 36.96875 -1.421875 32.421875 -1.421875 
Q 20.0625 -1.421875 12.78125 6.34375 
Q 5.515625 14.109375 5.515625 27.296875 
Q 5.515625 40.671875 12.859375 48.328125 
Q 20.21875 56 33.015625 56 
Q 37.15625 56 41.109375 55.140625 
Q 45.0625 54.296875 48.78125 52.59375 
z
" id="DejaVuSans-99"/>
       <path d="M 18.3125 70.21875 
L 18.3125 54.6875 
L 36.8125 54.6875 
L 36.8125 47.703125 
L 18.3125 47.703125 
L 18.3125 18.015625 
Q 18.3125 11.328125 20.140625 9.421875 
Q 21.96875 7.515625 27.59375 7.515625 
L 36.8125 7.515625 
L 36.8125 0 
L 27.59375 0 
Q 17.1875 0 13.234375 3.875 
Q 9.28125 7.765625 9.28125 18.015625 
L 9.28125 47.703125 
L 2.6875 47.703125 
L 2.6875 54.6875 
L 9.28125 54.6875 
L 9.28125 70.21875 
z
" id="DejaVuSans-116"/>
       <path d="M 8.5 21.578125 
L 8.5 54.6875 
L 17.484375 54.6875 
L 17.484375 21.921875 
Q 17.484375 14.15625 20.5 10.265625 
Q 23.53125 6.390625 29.59375 6.390625 
Q 36.859375 6.390625 41.078125 11.03125 
Q 45.3125 15.671875 45.3125 23.6875 
L 45.3125 54.6875 
L 54.296875 54.6875 
L 54.296875 0 
L 45.3125 0 
L 45.3125 8.40625 
Q 42.046875 3.421875 37.71875 1 
Q 33.40625 -1.421875 27.6875 -1.421875 
Q 18.265625 -1.421875 13.375 4.4375 
Q 8.5 10.296875 8.5 21.578125 
z
M 31.109375 56 
z
" id="DejaVuSans-117"/>
       <path d="M 11.71875 12.40625 
L 22.015625 12.40625 
L 22.015625 4 
L 14.015625 -11.625 
L 7.71875 -11.625 
L 11.71875 4 
z
" id="DejaVuSans-44"/>
       <path d="M 18.109375 8.203125 
L 18.109375 -20.796875 
L 9.078125 -20.796875 
L 9.078125 54.6875 
L 18.109375 54.6875 
L 18.109375 46.390625 
Q 20.953125 51.265625 25.265625 53.625 
Q 29.59375 56 35.59375 56 
Q 45.5625 56 51.78125 48.09375 
Q 58.015625 40.1875 58.015625 27.296875 
Q 58.015625 14.40625 51.78125 6.484375 
Q 45.5625 -1.421875 35.59375 -1.421875 
Q 29.59375 -1.421875 25.265625 0.953125 
Q 20.953125 3.328125 18.109375 8.203125 
z
M 48.6875 27.296875 
Q 48.6875 37.203125 44.609375 42.84375 
Q 40.53125 48.484375 33.40625 48.484375 
Q 26.265625 48.484375 22.1875 42.84375 
Q 18.109375 37.203125 18.109375 27.296875 
Q 18.109375 17.390625 22.1875 11.75 
Q 26.265625 6.109375 33.40625 6.109375 
Q 40.53125 6.109375 44.609375 11.75 
Q 48.6875 17.390625 48.6875 27.296875 
z
" id="DejaVuSans-112"/>
      </defs>
      <use xlink:href="#DejaVuSans-70"/>
      <use x="50.269531" xlink:href="#DejaVuSans-114"/>
      <use x="91.382812" xlink:href="#DejaVuSans-97"/>
      <use x="152.662109" xlink:href="#DejaVuSans-99"/>
      <use x="207.642578" xlink:href="#DejaVuSans-116"/>
      <use x="246.851562" xlink:href="#DejaVuSans-105"/>
      <use x="274.634766" xlink:href="#DejaVuSans-111"/>
      <use x="335.816406" xlink:href="#DejaVuSans-110"/>
      <use x="399.195312" xlink:href="#DejaVuSans-32"/>
      <use x="430.982422" xlink:href="#DejaVuSans-111"/>
      <use x="492.164062" xlink:href="#DejaVuSans-102"/>
      <use x="527.369141" xlink:href="#DejaVuSans-32"/>
      <use x="559.15625" xlink:href="#DejaVuSans-102"/>
      <use x="594.361328" xlink:href="#DejaVuSans-117"/>
      <use x="657.740234" xlink:href="#DejaVuSans-110"/>
      <use x="721.119141" xlink:href="#DejaVuSans-99"/>
      <use x="776.099609" xlink:href="#DejaVuSans-116"/>
      <use x="815.308594" xlink:href="#DejaVuSans-105"/>
      <use x="843.091797" xlink:href="#DejaVuSans-111"/>
      <use x="904.273438" xlink:href="#DejaVuSans-110"/>
      <use x="967.652344" xlink:href="#DejaVuSans-44"/>
      <use x="999.439453" xlink:href="#DejaVuSans-116"/>
      <use x="1038.648438" xlink:href="#DejaVuSans-97"/>
      <use x="1099.927734" xlink:href="#DejaVuSans-114"/>
      <use x="1139.291016" xlink:href="#DejaVuSans-103"/>
      <use x="1202.767578" xlink:href="#DejaVuSans-101"/>
      <use x="1264.291016" xlink:href="#DejaVuSans-116"/>
      <use x="1303.5" xlink:href="#DejaVuSans-32"/>
      <use x="1335.287109" xlink:href="#DejaVuSans-112"/>
      <use x="1398.763672" xlink:href="#DejaVuSans-97"/>
      <use x="1460.042969" xlink:href="#DejaVuSans-105"/>
      <use x="1487.826172" xlink:href="#DejaVuSans-114"/>
      <use x="1528.939453" xlink:href="#DejaVuSans-115"/>
     </g>
    </g>
   </g>
   <g id="line2d_29">
    <defs>
     <path d="M 0 1.5 
C 0.397805 1.5 0.77937 1.341951 1.06066 1.06066 
C 1.341951 0.77937 1.5 0.397805 1.5 0 
C 1.5 -0.397805 1.341951 -0.77937 1.06066 -1.06066 
C 0.77937 -1.341951 0.397805 -1.5 0 -1.5 
C -0.397805 -1.5 -0.77937 -1.341951 -1.06066 -1.06066 
C -1.341951 -0.77937 -1.5 -0.397805 -1.5 0 
C -1.5 0.397805 -1.341951 0.77937 -1.06066 1.06066 
C -0.77937 1.341951 -0.397805 1.5 0 1.5 
z
" id="m434a75f13f" style="stroke:#000080;"/>
    </defs>
    <g>
     <use style="fill:#000080;stroke:#000080;" x="160.005512" xlink:href="#m434a75f13f" y="6.381624"/>
     <use style="fill:#000080;stroke:#000080;" x="160.005512" xlink:href="#m434a75f13f" y="6.381624"/>
    </g>
   </g>
   <g id="line2d_30">
    <path d="M 45.512012 298.944 
L 45.512012 263.377593 
L 64.67102 263.377593 
L 64.67102 262.803942 
L 73.579452 262.803942 
L 73.579452 262.23029 
L 83.830028 262.23029 
L 83.830028 261.656638 
L 87.329581 261.656638 
L 87.329581 261.082987 
L 88.846997 261.082987 
L 88.846997 260.509335 
L 91.535274 260.509335 
L 91.535274 259.362031 
L 93.863965 259.362031 
L 93.863965 258.78838 
L 96.86091 258.78838 
L 96.86091 257.067425 
L 98.606294 257.067425 
L 98.606294 255.920121 
L 100.934985 255.920121 
L 100.934985 255.346469 
L 101.646892 255.346469 
L 101.646892 254.772818 
L 102.330873 254.772818 
L 102.330873 253.625514 
L 104.826449 253.625514 
L 104.826449 253.051863 
L 105.398279 253.051863 
L 105.398279 252.478211 
L 105.951954 252.478211 
L 105.951954 248.462649 
L 106.48859 248.462649 
L 106.48859 246.741694 
L 107.514726 246.741694 
L 107.514726 246.168042 
L 108.006005 246.168042 
L 108.006005 245.59439 
L 108.948899 245.59439 
L 108.948899 243.299783 
L 111.505558 243.299783 
L 111.505558 241.578828 
L 112.655818 241.578828 
L 112.655818 239.284221 
L 113.022974 239.284221 
L 113.022974 238.71057 
L 113.382559 238.71057 
L 113.382559 237.563266 
L 115.077025 237.563266 
L 115.077025 236.989614 
L 115.711251 236.989614 
L 115.711251 235.842311 
L 116.019919 235.842311 
L 116.019919 235.268659 
L 116.323218 235.268659 
L 116.323218 232.400401 
L 116.914437 232.400401 
L 116.914437 231.253097 
L 118.039942 231.253097 
L 118.039942 230.105794 
L 119.097192 230.105794 
L 119.097192 228.384839 
L 119.602714 228.384839 
L 119.602714 226.663884 
L 121.264855 226.663884 
L 121.264855 224.369277 
L 121.931406 224.369277 
L 121.931406 221.501018 
L 122.988655 221.501018 
L 122.988655 218.059108 
L 124.92835 218.059108 
L 124.92835 216.911804 
L 125.110962 216.911804 
L 125.110962 215.190849 
L 125.470548 215.190849 
L 125.470548 210.027984 
L 125.647598 210.027984 
L 125.647598 209.454332 
L 125.822869 209.454332 
L 125.822869 208.307029 
L 127.002787 208.307029 
L 127.002787 206.586073 
L 127.165014 206.586073 
L 127.165014 202.570511 
L 129.714332 202.570511 
L 129.714332 199.128601 
L 130.127931 199.128601 
L 130.127931 194.539387 
L 130.664567 194.539387 
L 130.664567 193.392084 
L 131.056477 193.392084 
L 131.056477 192.818432 
L 131.565689 192.818432 
L 131.565689 192.24478 
L 132.181982 192.24478 
L 132.181982 191.671129 
L 132.422528 191.671129 
L 132.422528 190.523825 
L 132.893889 190.523825 
L 132.893889 189.950174 
L 133.009765 189.950174 
L 133.009765 189.376522 
L 133.124876 189.376522 
L 133.124876 188.80287 
L 133.352844 188.80287 
L 133.352844 188.229218 
L 133.689303 188.229218 
L 133.800029 184.787308 
L 133.910056 184.787308 
L 134.019394 182.492701 
L 134.343353 182.492701 
L 134.450015 176.182532 
L 134.766144 176.182532 
L 134.766144 172.740622 
L 135.482227 172.740622 
L 135.482227 171.593319 
L 135.681535 171.593319 
L 135.681535 169.872363 
L 136.456742 169.872363 
L 136.456742 168.72506 
L 136.924311 168.72506 
L 137.016339 164.709498 
L 137.37967 164.709498 
L 137.37967 164.135846 
L 137.647286 164.135846 
L 137.735587 160.120284 
L 137.910857 160.120284 
L 137.910857 158.399329 
L 138.084384 158.399329 
L 138.084384 157.825677 
L 138.510793 157.825677 
L 138.510793 151.515508 
L 140.272217 151.515508 
L 140.272217 145.778991 
L 140.423864 145.778991 
L 140.423864 145.20534 
L 140.574203 145.20534 
L 140.64889 144.058036 
L 141.017599 144.058036 
L 141.090414 137.174215 
L 141.162927 137.174215 
L 141.235139 133.732305 
L 141.307054 133.732305 
L 141.378673 127.995788 
L 141.45 127.995788 
L 141.521035 125.127529 
L 141.591783 125.127529 
L 141.591783 124.553878 
L 141.80232 124.553878 
L 141.80232 123.406574 
L 141.941279 123.406574 
L 141.941279 122.832923 
L 142.07914 122.832923 
L 142.147664 121.111967 
L 142.553247 121.111967 
L 142.553247 115.949102 
L 142.949611 115.949102 
L 143.014805 110.212585 
L 143.902815 110.212585 
L 143.902815 103.902416 
L 144.629556 103.902416 
L 144.629556 98.73955 
L 144.981877 98.73955 
L 144.981877 94.723988 
L 146.801841 94.723988 
L 146.801841 92.429381 
L 148.54473 92.429381 
L 148.54473 91.85573 
L 148.87334 91.85573 
L 148.87334 76.940785 
L 149.286939 76.940785 
L 149.332295 75.21983 
L 149.735275 75.21983 
L 149.735275 70.630616 
L 149.867558 70.630616 
L 149.867558 67.762358 
L 150.042389 67.762358 
L 150.129152 65.467751 
L 150.172372 65.467751 
L 150.215485 61.452189 
L 150.51433 61.452189 
L 150.598782 57.436627 
L 150.682827 57.436627 
L 150.682827 55.715672 
L 150.973835 55.715672 
L 151.015013 53.421065 
L 151.13797 53.421065 
L 151.178764 51.126458 
L 151.461678 51.126458 
L 151.501723 49.405503 
L 151.581536 49.405503 
L 151.581536 48.831851 
L 151.779487 48.831851 
L 151.858043 45.963592 
L 151.936246 45.963592 
L 151.936246 45.389941 
L 152.052897 45.389941 
L 152.052897 43.095334 
L 152.360205 43.095334 
L 152.398241 37.932468 
L 152.662192 37.932468 
L 152.662192 36.785165 
L 152.922207 36.785165 
L 152.922207 33.916906 
L 153.214697 33.916906 
L 153.214697 32.769603 
L 153.395042 32.769603 
L 153.466662 31.048648 
L 153.925152 31.048648 
L 153.925152 30.474996 
L 154.098334 30.474996 
L 154.098334 29.327692 
L 154.235652 29.327692 
L 154.303908 27.606737 
L 154.371897 27.606737 
L 154.439623 26.459434 
L 154.54072 26.459434 
L 154.54072 25.31213 
L 154.674612 25.31213 
L 154.674612 24.738479 
L 154.840544 24.738479 
L 154.840544 23.591175 
L 154.972161 23.591175 
L 155.0376 21.87022 
L 155.232454 21.87022 
L 155.296925 20.149265 
L 155.584129 20.149265 
L 155.584129 19.575613 
L 155.710272 19.575613 
L 155.773004 17.281006 
L 155.897793 17.281006 
L 155.897793 13.265444 
L 156.144725 13.265444 
L 156.144725 12.691793 
L 156.357959 12.691793 
L 156.357959 11.544489 
L 157.329512 11.544489 
L 157.329512 10.970838 
L 157.500487 10.970838 
L 157.500487 9.249882 
L 158.438903 9.249882 
L 158.438903 8.102579 
L 159.733212 8.102579 
L 159.733212 7.528927 
L 160.005512 7.528927 
L 160.005512 6.381624 
L 338.688 6.381624 
L 338.688 6.381624 
" style="fill:none;stroke:#000080;stroke-linecap:square;stroke-width:1.5;"/>
   </g>
   <g id="line2d_31">
    <defs>
     <path d="M 0 6 
C 1.591219 6 3.117479 5.367802 4.242641 4.242641 
C 5.367802 3.117479 6 1.591219 6 0 
C 6 -1.591219 5.367802 -3.117479 4.242641 -4.242641 
C 3.117479 -5.367802 1.591219 -6 0 -6 
C -1.591219 -6 -3.117479 -5.367802 -4.242641 -4.242641 
C -5.367802 -3.117479 -6 -1.591219 -6 0 
C -6 1.591219 -5.367802 3.117479 -4.242641 4.242641 
C -3.117479 5.367802 -1.591219 6 0 6 
z
" id="mf4f6d6cc76" style="stroke:#000080;stroke-width:1.5;"/>
    </defs>
    <g>
     <use style="fill-opacity:0;stroke:#000080;stroke-width:1.5;" x="134.766144" xlink:href="#mf4f6d6cc76" y="176.182532"/>
     <use style="fill-opacity:0;stroke:#000080;stroke-width:1.5;" x="148.54473" xlink:href="#mf4f6d6cc76" y="91.85573"/>
     <use style="fill-opacity:0;stroke:#000080;stroke-width:1.5;" x="160.005512" xlink:href="#mf4f6d6cc76" y="7.528927"/>
     <use style="fill-opacity:0;stroke:#000080;stroke-width:1.5;" x="160.005512" xlink:href="#mf4f6d6cc76" y="6.381624"/>
     <use style="fill-opacity:0;stroke:#000080;stroke-width:1.5;" x="338.688" xlink:href="#mf4f6d6cc76" y="6.381624"/>
    </g>
   </g>
   <g id="line2d_32">
    <path style="fill:none;stroke:#000080;stroke-linecap:square;stroke-width:1.5;"/>
    <g/>
   </g>
   <g id="line2d_33">
    <defs>
     <path d="M 0 1.5 
C 0.397805 1.5 0.77937 1.341951 1.06066 1.06066 
C 1.341951 0.77937 1.5 0.397805 1.5 0 
C 1.5 -0.397805 1.341951 -0.77937 1.06066 -1.06066 
C 0.77937 -1.341951 0.397805 -1.5 0 -1.5 
C -0.397805 -1.5 -0.77937 -1.341951 -1.06066 -1.06066 
C -1.341951 -0.77937 -1.5 -0.397805 -1.5 0 
C -1.5 0.397805 -1.341951 0.77937 -1.06066 1.06066 
C -0.77937 1.341951 -0.397805 1.5 0 1.5 
z
" id="m4d3c150c65" style="stroke:#ff00ff;"/>
    </defs>
    <g>
     <use style="fill:#ff00ff;stroke:#ff00ff;" x="174.785287" xlink:href="#m4d3c150c65" y="6.381624"/>
     <use style="fill:#ff00ff;stroke:#ff00ff;" x="174.785287" xlink:href="#m4d3c150c65" y="6.381624"/>
    </g>
   </g>
   <g id="line2d_34">
    <path d="M 81.775977 298.944 
L 81.775977 297.796697 
L 93.863965 297.796697 
L 93.863965 296.649393 
L 100.192776 296.649393 
L 100.192776 294.354786 
L 100.934985 294.354786 
L 100.934985 293.207483 
L 102.989037 293.207483 
L 102.989037 289.765573 
L 111.505558 289.765573 
L 111.505558 288.044617 
L 113.73488 288.044617 
L 113.73488 287.470966 
L 116.323218 287.470966 
L 116.323218 285.176359 
L 120.8059 285.176359 
L 120.8059 283.455404 
L 123.394238 283.455404 
L 123.394238 282.881752 
L 125.291682 282.881752 
L 125.291682 281.734448 
L 130.664567 281.734448 
L 130.664567 279.439842 
L 130.796184 279.439842 
L 130.796184 277.718886 
L 132.777237 277.718886 
L 132.777237 277.145235 
L 133.009765 277.145235 
L 133.009765 275.997931 
L 133.57787 275.997931 
L 133.57787 275.42428 
L 133.689303 275.42428 
L 133.800029 271.982369 
L 134.236034 271.982369 
L 134.343353 262.23029 
L 134.870259 262.23029 
L 134.973757 258.214728 
L 135.178927 258.214728 
L 135.178927 255.920121 
L 135.582166 255.920121 
L 135.582166 255.346469 
L 136.645276 255.346469 
L 136.645276 252.478211 
L 136.924311 252.478211 
L 136.924311 250.757256 
L 138.341479 250.757256 
L 138.341479 246.741694 
L 138.927025 246.741694 
L 139.009092 245.59439 
L 139.493548 245.59439 
L 139.493548 243.873435 
L 139.730821 243.873435 
L 139.730821 243.299783 
L 140.348205 243.299783 
L 140.348205 242.726132 
L 140.574203 242.726132 
L 140.574203 240.431525 
L 140.944478 240.431525 
L 140.944478 239.284221 
L 141.235139 239.284221 
L 141.307054 237.563266 
L 141.732423 237.563266 
L 141.732423 236.989614 
L 142.486301 236.989614 
L 142.486301 236.415963 
L 147.52003 236.415963 
L 147.52003 235.842311 
L 147.96658 235.842311 
L 147.96658 232.974052 
L 150.042389 232.974052 
L 150.042389 232.400401 
L 150.429467 232.400401 
L 150.429467 231.826749 
L 150.640855 231.826749 
L 150.724698 228.384839 
L 150.932558 228.384839 
L 150.932558 226.663884 
L 151.097081 226.663884 
L 151.178764 225.51658 
L 151.461678 225.51658 
L 151.461678 224.942928 
L 151.700576 224.942928 
L 151.700576 223.221973 
L 151.975216 223.221973 
L 152.0141 220.927366 
L 152.130233 220.927366 
L 152.168773 219.780063 
L 152.549559 219.780063 
L 152.587184 218.632759 
L 152.662192 218.632759 
L 152.736878 217.485456 
L 153.032466 217.485456 
L 153.105587 213.469894 
L 153.430889 213.469894 
L 153.466662 211.748939 
L 153.573542 211.748939 
L 153.573542 210.601635 
L 154.167129 210.601635 
L 154.167129 207.159725 
L 154.507086 207.159725 
L 154.507086 205.43877 
L 154.674612 205.43877 
L 154.707925 204.291467 
L 154.807483 204.291467 
L 154.906477 201.99686 
L 155.0376 201.99686 
L 155.102793 200.275904 
L 155.329071 200.275904 
L 155.393186 196.833994 
L 155.488919 196.833994 
L 155.584129 191.097477 
L 155.678822 191.097477 
L 155.678822 190.523825 
L 155.804285 190.523825 
L 155.804285 187.081915 
L 155.959855 187.081915 
L 156.021696 182.492701 
L 156.175347 182.492701 
L 156.205916 179.624443 
L 156.418408 179.624443 
L 156.418408 178.477139 
L 156.658127 178.477139 
L 156.658127 177.903487 
L 156.776762 177.903487 
L 156.776762 177.329836 
L 156.98245 177.329836 
L 157.040776 174.461577 
L 157.156845 174.461577 
L 157.214591 173.314274 
L 157.300853 173.314274 
L 157.358125 172.16697 
L 157.443681 172.16697 
L 157.500487 170.446015 
L 157.557108 170.446015 
L 157.58535 166.430453 
L 157.697862 166.430453 
L 157.753847 160.693936 
L 157.809652 160.693936 
L 157.837488 159.546632 
L 157.94839 159.546632 
L 158.003578 153.236464 
L 158.086033 153.236464 
L 158.168101 145.20534 
L 158.222599 145.20534 
L 158.331086 141.763429 
L 158.358103 141.763429 
L 158.385078 140.042474 
L 158.652556 140.042474 
L 158.732007 137.174215 
L 158.889829 137.174215 
L 158.994256 132.01135 
L 159.098062 132.01135 
L 159.175513 127.422136 
L 159.278248 127.422136 
L 159.32939 123.406574 
L 159.405822 123.406574 
L 159.405822 122.832923 
L 159.532469 122.832923 
L 159.532469 120.538316 
L 159.683242 120.538316 
L 159.708245 118.243709 
L 159.832723 118.243709 
L 159.857512 114.801798 
L 160.103486 114.801798 
L 160.176607 111.93354 
L 160.225184 111.93354 
L 160.225184 111.359888 
L 160.346039 111.359888 
L 160.394148 105.623371 
L 160.537682 105.623371 
L 160.537682 104.476068 
L 160.750792 104.476068 
L 160.750792 103.902416 
L 161.146363 103.902416 
L 161.146363 96.444944 
L 161.329454 96.444944 
L 161.352206 94.150337 
L 161.510643 94.150337 
L 161.600536 90.708426 
L 161.734513 90.708426 
L 161.778945 87.266516 
L 162.021314 87.266516 
L 162.065021 83.824606 
L 162.173813 83.824606 
L 162.173813 80.956347 
L 162.453536 80.956347 
L 162.53871 79.809044 
L 162.581141 79.809044 
L 162.62347 78.66174 
L 162.958448 78.66174 
L 162.958448 76.940785 
L 163.266752 76.940785 
L 163.327764 70.056964 
L 163.489428 70.056964 
L 163.569701 68.336009 
L 163.629664 68.336009 
L 163.689421 66.041402 
L 163.788565 66.041402 
L 163.828065 64.320447 
L 163.906798 64.320447 
L 163.906798 62.02584 
L 164.024234 62.02584 
L 164.082658 59.731234 
L 164.19892 59.731234 
L 164.19892 58.010278 
L 164.410075 58.010278 
L 164.410075 57.436627 
L 164.618704 57.436627 
L 164.712717 53.994716 
L 164.824867 53.994716 
L 164.899235 50.552806 
L 165.157053 50.552806 
L 165.248216 44.816289 
L 165.661531 44.816289 
L 165.7501 43.668985 
L 165.838222 43.668985 
L 165.9084 36.211513 
L 166.203547 36.211513 
L 166.203547 33.916906 
L 166.357802 33.916906 
L 166.357802 33.343255 
L 166.96153 33.343255 
L 167.010909 29.327692 
L 167.271933 29.327692 
L 167.271933 27.033086 
L 167.449146 27.033086 
L 167.449146 26.459434 
L 167.84533 26.459434 
L 167.87664 24.738479 
L 168.032349 24.738479 
L 168.047843 23.017524 
L 168.171308 23.017524 
L 168.217383 21.87022 
L 168.400474 21.87022 
L 168.400474 21.296568 
L 169.374494 21.296568 
L 169.374494 18.42831 
L 171.302098 18.42831 
L 171.302098 17.854658 
L 171.43014 17.854658 
L 171.43014 16.707355 
L 171.607834 16.707355 
L 171.607834 16.133703 
L 171.920711 16.133703 
L 171.920711 13.265444 
L 172.093501 13.265444 
L 172.093501 12.691793 
L 172.956059 12.691793 
L 172.956059 12.118141 
L 173.406055 12.118141 
L 173.406055 11.544489 
L 173.878023 11.544489 
L 173.966492 8.676231 
L 174.261802 8.676231 
L 174.261802 6.955275 
L 174.785287 6.955275 
L 174.785287 6.381624 
L 338.688 6.381624 
L 338.688 6.381624 
" style="fill:none;stroke:#ff00ff;stroke-linecap:square;stroke-width:1.5;"/>
   </g>
   <g id="line2d_35">
    <defs>
     <path d="M -0 8.485281 
L 5.091169 0 
L 0 -8.485281 
L -5.091169 -0 
z
" id="m3204383020" style="stroke:#ff00ff;stroke-linejoin:miter;stroke-width:1.5;"/>
    </defs>
    <g>
     <use style="fill-opacity:0;stroke:#ff00ff;stroke-linejoin:miter;stroke-width:1.5;" x="157.040776" xlink:href="#m3204383020" y="174.461577"/>
     <use style="fill-opacity:0;stroke:#ff00ff;stroke-linejoin:miter;stroke-width:1.5;" x="174.785287" xlink:href="#m3204383020" y="6.955275"/>
     <use style="fill-opacity:0;stroke:#ff00ff;stroke-linejoin:miter;stroke-width:1.5;" x="174.785287" xlink:href="#m3204383020" y="6.381624"/>
     <use style="fill-opacity:0;stroke:#ff00ff;stroke-linejoin:miter;stroke-width:1.5;" x="174.785287" xlink:href="#m3204383020" y="6.381624"/>
     <use style="fill-opacity:0;stroke:#ff00ff;stroke-linejoin:miter;stroke-width:1.5;" x="338.688" xlink:href="#m3204383020" y="6.381624"/>
    </g>
   </g>
   <g id="line2d_36">
    <path style="fill:none;stroke:#ff00ff;stroke-linecap:square;stroke-width:1.5;"/>
    <g/>
   </g>
   <g id="line2d_37">
    <defs>
     <path d="M 0 1.5 
C 0.397805 1.5 0.77937 1.341951 1.06066 1.06066 
C 1.341951 0.77937 1.5 0.397805 1.5 0 
C 1.5 -0.397805 1.341951 -0.77937 1.06066 -1.06066 
C 0.77937 -1.341951 0.397805 -1.5 0 -1.5 
C -0.397805 -1.5 -0.77937 -1.341951 -1.06066 -1.06066 
C -1.341951 -0.77937 -1.5 -0.397805 -1.5 0 
C -1.5 0.397805 -1.341951 0.77937 -1.06066 1.06066 
C -0.77937 1.341951 -0.397805 1.5 0 1.5 
z
" id="m2ed2b7d325" style="stroke:#ff7500;"/>
    </defs>
    <g>
     <use style="fill:#ff7500;stroke:#ff7500;" x="261.595749" xlink:href="#m2ed2b7d325" y="6.381624"/>
     <use style="fill:#ff7500;stroke:#ff7500;" x="261.595749" xlink:href="#m2ed2b7d325" y="6.381624"/>
    </g>
   </g>
   <g id="line2d_38">
    <path d="M 45.512012 298.944 
L 45.512012 285.176359 
L 57.6 285.176359 
L 57.6 280.587145 
L 73.579452 280.587145 
L 73.579452 278.292538 
L 76.759008 278.292538 
L 76.759008 277.718886 
L 83.830028 277.718886 
L 83.830028 276.571583 
L 87.329581 276.571583 
L 87.329581 275.997931 
L 88.846997 275.997931 
L 88.846997 275.42428 
L 90.242884 275.42428 
L 90.242884 274.850628 
L 96.86091 274.850628 
L 96.86091 273.703324 
L 97.755429 273.703324 
L 97.755429 273.129673 
L 100.934985 273.129673 
L 100.934985 270.835066 
L 102.330873 270.835066 
L 102.330873 270.261414 
L 103.623262 270.261414 
L 103.623262 269.687762 
L 106.48859 269.687762 
L 106.48859 267.393156 
L 109.401893 267.393156 
L 109.401893 266.819504 
L 113.022974 266.819504 
L 113.022974 265.098549 
L 116.019919 265.098549 
L 116.019919 264.524897 
L 119.850084 264.524897 
L 119.850084 263.951245 
L 120.33454 263.951245 
L 120.33454 263.377593 
L 123.985457 263.377593 
L 123.985457 262.803942 
L 126.338353 262.803942 
L 126.338353 262.23029 
L 127.799239 262.23029 
L 127.799239 261.656638 
L 127.954256 261.656638 
L 127.954256 261.082987 
L 129.574256 261.082987 
L 129.574256 260.509335 
L 130.796184 260.509335 
L 130.796184 257.067425 
L 131.565689 257.067425 
L 131.565689 255.920121 
L 131.814826 255.920121 
L 131.814826 255.346469 
L 132.777237 255.346469 
L 132.777237 254.772818 
L 133.57787 254.772818 
L 133.57787 254.199166 
L 134.766144 254.199166 
L 134.766144 253.051863 
L 136.266147 253.051863 
L 136.266147 252.478211 
L 137.997836 252.478211 
L 137.997836 250.183604 
L 138.67848 250.183604 
L 138.67848 249.609952 
L 142.949611 249.609952 
L 142.949611 249.036301 
L 143.144465 249.036301 
L 143.144465 247.888997 
L 143.337167 247.888997 
L 143.337167 246.168042 
L 146.801841 246.168042 
L 146.801841 245.59439 
L 147.317833 245.59439 
L 147.317833 245.020738 
L 147.4697 245.020738 
L 147.4697 244.447087 
L 148.064279 244.447087 
L 148.064279 241.578828 
L 148.87334 241.578828 
L 148.87334 241.005176 
L 149.332295 241.005176 
L 149.332295 239.284221 
L 150.808139 239.284221 
L 150.808139 238.71057 
L 151.219462 238.71057 
L 151.219462 237.563266 
L 151.897188 237.563266 
L 151.897188 235.268659 
L 152.848312 235.268659 
L 152.848312 232.974052 
L 153.250915 232.974052 
L 153.250915 231.826749 
L 153.573542 231.826749 
L 153.573542 231.253097 
L 153.959927 231.253097 
L 153.959927 229.532142 
L 155.457066 229.532142 
L 155.457066 228.384839 
L 155.773004 228.384839 
L 155.773004 227.811187 
L 190.17606 227.811187 
L 190.271594 223.795625 
L 190.375219 223.795625 
L 190.375219 222.648321 
L 190.589149 222.648321 
L 190.648581 221.501018 
L 190.737353 221.501018 
L 190.771052 216.911804 
L 191.021741 216.911804 
L 191.021741 215.190849 
L 191.293399 215.190849 
L 191.317886 211.175287 
L 191.661151 211.175287 
L 191.768789 204.865118 
L 191.903394 204.865118 
L 192.009552 200.849556 
L 192.107273 200.849556 
L 192.185058 198.554949 
L 192.227692 198.554949 
L 192.227692 197.981298 
L 192.401027 197.981298 
L 192.439313 195.113039 
L 202.259693 195.113039 
L 202.307538 193.392084 
L 202.450288 193.392084 
L 202.542668 190.523825 
L 202.59188 190.523825 
L 202.687765 185.36096 
L 202.704756 185.36096 
L 202.704756 184.787308 
L 202.833772 184.787308 
L 202.911565 180.771746 
L 203.018228 180.771746 
L 203.074433 175.608881 
L 203.144954 175.608881 
L 203.200753 173.887925 
L 203.274875 173.887925 
L 203.356865 171.019667 
L 203.428292 171.019667 
L 203.428292 170.446015 
L 209.518436 170.446015 
L 209.61583 163.562195 
L 209.709843 163.562195 
L 209.817476 161.267588 
L 209.821711 161.267588 
L 209.924448 158.399329 
L 209.938475 158.399329 
L 210.040529 149.794553 
L 210.068385 149.794553 
L 210.117026 146.352643 
L 214.345504 146.352643 
L 214.369445 144.631688 
L 214.487583 144.631688 
L 214.56088 140.042474 
L 214.63387 140.042474 
L 214.728942 134.305957 
L 214.754491 134.305957 
L 214.860544 127.422136 
L 214.881677 127.422136 
L 214.939663 124.553878 
L 218.255688 124.553878 
L 218.35029 121.685619 
L 218.381422 121.685619 
L 218.471049 115.949102 
L 218.522548 115.949102 
L 218.619127 107.917978 
L 218.69397 107.917978 
L 218.704999 106.197023 
L 221.431763 106.197023 
L 221.51065 103.902416 
L 221.559683 103.902416 
L 221.611451 101.607809 
L 221.672368 101.607809 
L 221.753025 95.871292 
L 221.814161 95.871292 
L 221.814161 94.723988 
L 224.103867 94.723988 
L 224.207486 93.003033 
L 224.227272 93.003033 
L 224.324018 89.561123 
L 224.33876 89.561123 
L 224.445879 79.809044 
L 226.503592 79.809044 
L 226.611719 76.367133 
L 226.617108 76.367133 
L 226.726678 67.188706 
L 226.732032 67.188706 
L 226.732032 66.615054 
L 228.549627 66.615054 
L 228.657804 60.878537 
L 228.669304 60.878537 
L 228.721435 58.010278 
L 230.384097 58.010278 
L 230.489703 53.421065 
L 230.504368 53.421065 
L 230.531509 51.700109 
L 231.994421 51.700109 
L 232.092706 48.831851 
L 232.126131 48.831851 
L 232.200223 45.963592 
L 233.511045 45.963592 
L 233.601165 42.521682 
L 233.637948 42.521682 
L 233.703387 40.800727 
L 234.942736 40.800727 
L 235.038074 36.785165 
L 236.310007 36.785165 
L 236.328849 35.637861 
L 237.439047 35.637861 
L 237.517952 32.195951 
L 238.573946 32.195951 
L 238.66761 30.474996 
L 239.610603 30.474996 
L 239.686146 27.606737 
L 240.613727 27.606737 
L 240.705245 25.885782 
L 241.604302 25.885782 
L 241.604302 24.738479 
L 242.439713 24.738479 
L 242.488574 22.443872 
L 243.266609 22.443872 
L 243.318175 19.575613 
L 244.126884 19.575613 
L 244.165928 18.42831 
L 244.852659 18.42831 
L 244.932389 16.707355 
L 245.614449 16.707355 
L 245.684821 15.560051 
L 246.364503 15.560051 
L 246.364503 14.9864 
L 247.046093 14.9864 
L 247.046093 14.412748 
L 247.711851 14.412748 
L 247.720207 13.265444 
L 248.944265 13.265444 
L 248.947859 12.118141 
L 249.533697 12.118141 
L 249.551641 10.970838 
L 250.625389 10.970838 
L 250.625389 10.397186 
L 251.194679 10.397186 
L 251.217306 9.249882 
L 254.113217 9.249882 
L 254.11934 8.102579 
L 254.534985 8.102579 
L 254.534985 7.528927 
L 260.06574 7.528927 
L 260.06574 6.955275 
L 261.595749 6.955275 
L 261.595749 6.381624 
L 338.688 6.381624 
L 338.688 6.381624 
" style="fill:none;stroke:#ff7500;stroke-linecap:square;stroke-width:1.5;"/>
   </g>
   <g id="line2d_39">
    <defs>
     <path d="M 0 -6 
L -1.347084 -1.854102 
L -5.706339 -1.854102 
L -2.179628 0.708204 
L -3.526712 4.854102 
L -0 2.291796 
L 3.526712 4.854102 
L 2.179628 0.708204 
L 5.706339 -1.854102 
L 1.347084 -1.854102 
z
" id="m1c931a95ed" style="stroke:#ff7500;stroke-linejoin:bevel;stroke-width:1.5;"/>
    </defs>
    <g>
     <use style="fill-opacity:0;stroke:#ff7500;stroke-linejoin:bevel;stroke-width:1.5;" x="132.777237" xlink:href="#m1c931a95ed" y="255.346469"/>
     <use style="fill-opacity:0;stroke:#ff7500;stroke-linejoin:bevel;stroke-width:1.5;" x="203.074433" xlink:href="#m1c931a95ed" y="177.329836"/>
     <use style="fill-opacity:0;stroke:#ff7500;stroke-linejoin:bevel;stroke-width:1.5;" x="244.852659" xlink:href="#m1c931a95ed" y="18.42831"/>
     <use style="fill-opacity:0;stroke:#ff7500;stroke-linejoin:bevel;stroke-width:1.5;" x="261.595749" xlink:href="#m1c931a95ed" y="6.381624"/>
     <use style="fill-opacity:0;stroke:#ff7500;stroke-linejoin:bevel;stroke-width:1.5;" x="261.595749" xlink:href="#m1c931a95ed" y="6.381624"/>
     <use style="fill-opacity:0;stroke:#ff7500;stroke-linejoin:bevel;stroke-width:1.5;" x="338.688" xlink:href="#m1c931a95ed" y="6.381624"/>
    </g>
   </g>
   <g id="line2d_40">
    <path style="fill:none;stroke:#ff7500;stroke-linecap:square;stroke-width:1.5;"/>
    <g/>
   </g>
   <g id="line2d_41">
    <path clip-path="url(#p9ed6667721)" d="M 190.167349 227.811187 
" style="fill:none;stroke:#ff7500;stroke-linecap:square;stroke-width:1.5;"/>
    <defs>
     <path d="M -12 12 
L 12 -12 
M -12 -12 
L 12 12 
" id="m547f344b3b" style="stroke:#ff7500;"/>
    </defs>
    <g clip-path="url(#p9ed6667721)">
     <use style="fill:#ff7500;stroke:#ff7500;" x="190.167349" xlink:href="#m547f344b3b" y="227.811187"/>
    </g>
   </g>
   <g id="line2d_42">
    <defs>
     <path d="M 0 1.5 
C 0.397805 1.5 0.77937 1.341951 1.06066 1.06066 
C 1.341951 0.77937 1.5 0.397805 1.5 0 
C 1.5 -0.397805 1.341951 -0.77937 1.06066 -1.06066 
C 0.77937 -1.341951 0.397805 -1.5 0 -1.5 
C -0.397805 -1.5 -0.77937 -1.341951 -1.06066 -1.06066 
C -1.341951 -0.77937 -1.5 -0.397805 -1.5 0 
C -1.5 0.397805 -1.341951 0.77937 -1.06066 1.06066 
C -0.77937 1.341951 -0.397805 1.5 0 1.5 
z
" id="me1a1573958" style="stroke:#6495ed;"/>
    </defs>
    <g>
     <use style="fill:#6495ed;stroke:#6495ed;" x="254.130578" xlink:href="#me1a1573958" y="6.381624"/>
     <use style="fill:#6495ed;stroke:#6495ed;" x="254.130578" xlink:href="#me1a1573958" y="6.381624"/>
    </g>
   </g>
   <g id="line2d_43">
    <path d="M 45.512012 298.944 
L 45.512012 285.75001 
L 57.6 285.75001 
L 57.6 282.3081 
L 76.759008 282.3081 
L 76.759008 281.734448 
L 81.775977 281.734448 
L 81.775977 281.160797 
L 87.329581 281.160797 
L 87.329581 280.587145 
L 88.846997 280.587145 
L 88.846997 278.86619 
L 96.86091 278.86619 
L 96.86091 277.145235 
L 97.755429 277.145235 
L 97.755429 276.571583 
L 99.41757 276.571583 
L 99.41757 275.42428 
L 100.192776 275.42428 
L 100.192776 274.850628 
L 102.989037 274.850628 
L 102.989037 274.276976 
L 109.401893 274.276976 
L 109.401893 273.703324 
L 110.274038 273.703324 
L 110.274038 273.129673 
L 110.694282 273.129673 
L 110.694282 269.687762 
L 113.022974 269.687762 
L 113.022974 268.540459 
L 115.397021 268.540459 
L 115.397021 267.966807 
L 116.019919 267.966807 
L 116.019919 267.393156 
L 116.621333 267.393156 
L 116.621333 266.819504 
L 117.486268 266.819504 
L 117.486268 265.6722 
L 117.765302 265.6722 
L 117.765302 265.098549 
L 118.310324 265.098549 
L 118.310324 263.951245 
L 120.33454 263.951245 
L 120.33454 263.377593 
L 120.571812 263.377593 
L 120.571812 262.803942 
L 121.931406 262.803942 
L 121.931406 262.23029 
L 122.362027 262.23029 
L 122.362027 261.656638 
L 125.110962 261.656638 
L 125.110962 261.082987 
L 125.291682 261.082987 
L 125.291682 260.509335 
L 127.325746 260.509335 
L 127.325746 258.78838 
L 128.411207 258.78838 
L 128.411207 258.214728 
L 131.814826 258.214728 
L 131.814826 257.641076 
L 132.30267 257.641076 
L 132.30267 257.067425 
L 132.777237 257.067425 
L 132.777237 256.493773 
L 134.236034 256.493773 
L 134.236034 255.920121 
L 136.266147 255.920121 
L 136.266147 255.346469 
L 137.198951 255.346469 
L 137.198951 254.772818 
L 138.67848 254.772818 
L 138.67848 251.330907 
L 139.413734 251.330907 
L 139.413734 250.757256 
L 142.486301 250.757256 
L 142.486301 250.183604 
L 143.079756 250.183604 
L 143.144465 249.036301 
L 143.40093 249.036301 
L 143.40093 248.462649 
L 146.324022 248.462649 
L 146.324022 247.315345 
L 148.064279 247.315345 
L 148.064279 246.741694 
L 148.87334 246.741694 
L 148.87334 246.168042 
L 149.195872 246.168042 
L 149.286939 242.15248 
L 149.911431 242.15248 
L 149.911431 241.578828 
L 150.38688 241.578828 
L 150.38688 240.431525 
L 153.890309 240.431525 
L 153.890309 239.284221 
L 154.167129 239.284221 
L 154.167129 237.563266 
L 155.457066 237.563266 
L 155.457066 236.989614 
L 155.678822 236.989614 
L 155.678822 236.415963 
L 158.67908 236.415963 
L 158.67908 235.842311 
L 159.098062 235.842311 
L 159.098062 235.268659 
L 159.226956 235.268659 
L 159.32939 234.121356 
L 160.513841 234.121356 
L 160.585265 232.974052 
L 160.750792 232.974052 
L 160.750792 231.826749 
L 160.891432 231.826749 
L 160.891432 231.253097 
L 190.249927 231.253097 
L 190.349371 228.95849 
L 190.405328 228.95849 
L 190.512436 227.237535 
L 190.584896 227.237535 
L 190.661291 225.51658 
L 190.699363 225.51658 
L 190.804686 223.795625 
L 190.984366 223.795625 
L 191.054895 218.632759 
L 191.305647 218.632759 
L 191.321964 216.338153 
L 191.536741 216.338153 
L 191.536741 215.764501 
L 191.729 215.764501 
L 191.764814 210.601635 
L 191.863912 210.601635 
L 191.863912 207.733377 
L 192.219948 207.733377 
L 192.250903 206.012422 
L 192.427836 206.012422 
L 192.427836 204.291467 
L 192.795152 204.291467 
L 192.821362 202.570511 
L 193.018544 202.570511 
L 193.129177 200.275904 
L 193.151219 200.275904 
L 193.151219 199.128601 
L 202.259693 199.128601 
L 202.259693 198.554949 
L 202.523373 198.554949 
L 202.559801 196.260342 
L 202.647345 196.260342 
L 202.704756 192.24478 
L 202.812687 192.24478 
L 202.842199 189.376522 
L 202.947192 189.376522 
L 203.053637 185.36096 
L 203.068197 185.36096 
L 203.124242 179.624443 
L 203.311818 179.624443 
L 203.422181 174.461577 
L 203.675002 174.461577 
L 203.739139 173.314274 
L 203.799054 173.314274 
L 203.799054 172.740622 
L 209.329261 172.740622 
L 209.387243 171.593319 
L 209.492564 171.593319 
L 209.602971 168.151408 
L 209.608688 168.151408 
L 209.719784 161.841239 
L 209.79063 161.841239 
L 209.875266 157.252026 
L 209.91041 157.252026 
L 209.91041 155.53107 
L 210.04889 155.53107 
L 210.112862 152.08916 
L 210.256635 152.08916 
L 210.360955 148.64725 
L 210.370532 148.64725 
L 210.370532 146.352643 
L 214.345504 146.352643 
L 214.38901 144.631688 
L 214.551196 144.631688 
L 214.639225 137.747867 
L 214.695886 137.747867 
L 214.783189 130.864047 
L 214.936505 130.864047 
L 215.03832 129.143091 
L 215.121847 129.143091 
L 215.13226 126.274833 
L 218.329504 126.274833 
L 218.415949 122.832923 
L 218.459871 122.832923 
L 218.566203 119.964664 
L 218.587563 119.964664 
L 218.671891 117.670057 
L 218.710935 117.670057 
L 218.816595 113.654495 
L 218.843541 113.654495 
L 218.868765 110.786236 
L 221.565443 110.786236 
L 221.648027 105.623371 
L 221.684527 105.623371 
L 221.779354 99.886854 
L 221.812032 99.886854 
L 221.903346 96.444944 
L 224.128742 96.444944 
L 224.232214 93.003033 
L 224.272322 93.003033 
L 224.35533 88.413819 
L 224.415952 88.413819 
L 224.507404 86.119213 
L 224.553558 86.119213 
L 224.557803 84.971909 
L 226.500338 84.971909 
L 226.544759 82.103651 
L 226.634341 82.103651 
L 226.730426 75.793482 
L 226.830242 75.793482 
L 226.833435 74.072526 
L 228.540944 74.072526 
L 228.590573 71.77792 
L 228.670262 71.77792 
L 228.751495 67.188706 
L 228.810984 67.188706 
L 228.810984 66.615054 
L 230.439577 66.615054 
L 230.539256 61.452189 
L 230.562475 61.452189 
L 230.645213 59.157582 
L 232.048961 59.157582 
L 232.091525 57.436627 
L 232.18496 57.436627 
L 232.278286 53.994716 
L 233.568284 53.994716 
L 233.650191 50.552806 
L 233.682919 50.552806 
L 233.702311 48.258199 
L 234.948083 48.258199 
L 235.026435 45.389941 
L 235.082896 45.389941 
L 235.144794 41.94803 
L 236.255527 41.94803 
L 236.360003 36.211513 
L 237.45063 36.211513 
L 237.540719 33.343255 
L 238.576118 33.343255 
L 238.657078 30.474996 
L 239.674683 30.474996 
L 239.71795 26.459434 
L 240.623865 26.459434 
L 240.695874 24.164827 
L 240.749387 24.164827 
L 240.749387 23.591175 
L 241.590381 23.591175 
L 241.663518 21.87022 
L 242.452539 21.87022 
L 242.521073 20.149265 
L 242.571434 20.149265 
L 242.571434 19.575613 
L 243.317554 19.575613 
L 243.366701 18.42831 
L 244.148783 18.42831 
L 244.148783 17.281006 
L 244.887657 17.281006 
L 244.951417 14.9864 
L 245.619705 14.9864 
L 245.690598 13.265444 
L 246.349043 13.265444 
L 246.349043 12.691793 
L 247.048932 12.691793 
L 247.071123 11.544489 
L 247.733536 11.544489 
L 247.733536 10.970838 
L 248.380679 10.970838 
L 248.380679 10.397186 
L 249.537461 10.397186 
L 249.537461 9.249882 
L 251.241478 9.249882 
L 251.241478 8.676231 
L 251.706007 8.676231 
L 251.706007 8.102579 
L 252.217795 8.102579 
L 252.217795 7.528927 
L 253.184317 7.528927 
L 253.184317 6.955275 
L 254.130578 6.955275 
L 254.130578 6.381624 
L 338.688 6.381624 
L 338.688 6.381624 
" style="fill:none;stroke:#6495ed;stroke-linecap:square;stroke-width:1.5;"/>
   </g>
   <g id="line2d_44">
    <defs>
     <path d="M -0 6 
L 6 -6 
L -6 -6 
z
" id="m2f3bb93611" style="stroke:#6495ed;stroke-linejoin:miter;stroke-width:1.5;"/>
    </defs>
    <g>
     <use style="fill-opacity:0;stroke:#6495ed;stroke-linejoin:miter;stroke-width:1.5;" x="117.486268" xlink:href="#m2f3bb93611" y="265.6722"/>
     <use style="fill-opacity:0;stroke:#6495ed;stroke-linejoin:miter;stroke-width:1.5;" x="203.311818" xlink:href="#m2f3bb93611" y="179.050791"/>
     <use style="fill-opacity:0;stroke:#6495ed;stroke-linejoin:miter;stroke-width:1.5;" x="233.702311" xlink:href="#m2f3bb93611" y="48.258199"/>
     <use style="fill-opacity:0;stroke:#6495ed;stroke-linejoin:miter;stroke-width:1.5;" x="254.130578" xlink:href="#m2f3bb93611" y="6.381624"/>
     <use style="fill-opacity:0;stroke:#6495ed;stroke-linejoin:miter;stroke-width:1.5;" x="254.130578" xlink:href="#m2f3bb93611" y="6.381624"/>
     <use style="fill-opacity:0;stroke:#6495ed;stroke-linejoin:miter;stroke-width:1.5;" x="338.688" xlink:href="#m2f3bb93611" y="6.381624"/>
    </g>
   </g>
   <g id="line2d_45">
    <path style="fill:none;stroke:#6495ed;stroke-linecap:square;stroke-width:1.5;"/>
    <g/>
   </g>
   <g id="line2d_46">
    <path clip-path="url(#p9ed6667721)" d="M 190.167349 231.253097 
" style="fill:none;stroke:#6495ed;stroke-linecap:square;stroke-width:1.5;"/>
    <defs>
     <path d="M -12 12 
L 12 -12 
M -12 -12 
L 12 12 
" id="m53e3916b1a" style="stroke:#6495ed;"/>
    </defs>
    <g clip-path="url(#p9ed6667721)">
     <use style="fill:#6495ed;stroke:#6495ed;" x="190.167349" xlink:href="#m53e3916b1a" y="231.253097"/>
    </g>
   </g>
   <g id="line2d_47">
    <defs>
     <path d="M 0 1.5 
C 0.397805 1.5 0.77937 1.341951 1.06066 1.06066 
C 1.341951 0.77937 1.5 0.397805 1.5 0 
C 1.5 -0.397805 1.341951 -0.77937 1.06066 -1.06066 
C 0.77937 -1.341951 0.397805 -1.5 0 -1.5 
C -0.397805 -1.5 -0.77937 -1.341951 -1.06066 -1.06066 
C -1.341951 -0.77937 -1.5 -0.397805 -1.5 0 
C -1.5 0.397805 -1.341951 0.77937 -1.06066 1.06066 
C -0.77937 1.341951 -0.397805 1.5 0 1.5 
z
" id="md7ac7d4064" style="stroke:#ff0000;"/>
    </defs>
    <g>
     <use style="fill:#ff0000;stroke:#ff0000;" x="158.625992" xlink:href="#md7ac7d4064" y="6.381624"/>
     <use style="fill:#ff0000;stroke:#ff0000;" x="158.625992" xlink:href="#md7ac7d4064" y="6.381624"/>
    </g>
   </g>
   <g id="line2d_48">
    <path d="M 45.512012 298.944 
L 45.512012 287.470966 
L 106.48859 287.470966 
L 106.48859 286.323662 
L 109.843417 286.323662 
L 109.843417 284.029055 
L 110.274038 284.029055 
L 110.274038 280.587145 
L 110.694282 280.587145 
L 110.694282 278.86619 
L 114.080224 278.86619 
L 114.080224 270.835066 
L 115.397021 270.835066 
L 115.397021 269.114111 
L 115.711251 269.114111 
L 115.711251 265.6722 
L 117.486268 265.6722 
L 117.486268 222.648321 
L 118.310324 222.648321 
L 118.310324 212.322591 
L 119.602714 212.322591 
L 119.602714 210.027984 
L 119.850084 210.027984 
L 119.850084 201.423208 
L 120.093994 201.423208 
L 120.093994 165.28315 
L 120.571812 165.28315 
L 120.571812 162.414891 
L 123.394238 162.414891 
L 123.394238 161.267588 
L 124.178158 161.267588 
L 124.178158 159.546632 
L 124.368753 159.546632 
L 124.368753 94.723988 
L 157.725877 94.723988 
L 157.725877 93.003033 
L 158.358103 93.003033 
L 158.358103 90.708426 
L 158.546057 90.708426 
L 158.546057 87.266516 
L 158.625992 87.266516 
L 158.625992 6.381624 
L 338.688 6.381624 
" style="fill:none;stroke:#ff0000;stroke-linecap:square;stroke-width:1.5;"/>
   </g>
   <g id="line2d_49">
    <defs>
     <path d="M 0 -6 
L -5.196152 -3 
L -5.196152 3 
L -0 6 
L 5.196152 3 
L 5.196152 -3 
z
" id="m144d5b18e7" style="stroke:#ff0000;stroke-linejoin:miter;stroke-width:1.5;"/>
    </defs>
    <g>
     <use style="fill-opacity:0;stroke:#ff0000;stroke-linejoin:miter;stroke-width:1.5;" x="120.093994" xlink:href="#m144d5b18e7" y="201.423208"/>
     <use style="fill-opacity:0;stroke:#ff0000;stroke-linejoin:miter;stroke-width:1.5;" x="158.625992" xlink:href="#m144d5b18e7" y="87.266516"/>
     <use style="fill-opacity:0;stroke:#ff0000;stroke-linejoin:miter;stroke-width:1.5;" x="158.625992" xlink:href="#m144d5b18e7" y="6.381624"/>
     <use style="fill-opacity:0;stroke:#ff0000;stroke-linejoin:miter;stroke-width:1.5;" x="158.625992" xlink:href="#m144d5b18e7" y="6.381624"/>
     <use style="fill-opacity:0;stroke:#ff0000;stroke-linejoin:miter;stroke-width:1.5;" x="338.688" xlink:href="#m144d5b18e7" y="6.381624"/>
    </g>
   </g>
   <g id="line2d_50">
    <path style="fill:none;stroke:#ff0000;stroke-linecap:square;stroke-width:1.5;"/>
    <g/>
   </g>
   <g id="line2d_51">
    <path d="M 338.688 6.381624 
L 369.60768 293.092752 
" style="fill:none;stroke:#ff7500;stroke-linecap:square;stroke-width:1.5;"/>
    <g>
     <use style="fill-opacity:0;stroke:#ff7500;stroke-linejoin:bevel;stroke-width:1.5;" x="338.688" xlink:href="#m1c931a95ed" y="6.381624"/>
     <use style="fill-opacity:0;stroke:#ff7500;stroke-linejoin:bevel;stroke-width:1.5;" x="369.60768" xlink:href="#m1c931a95ed" y="293.092752"/>
    </g>
   </g>
   <g id="line2d_52">
    <path d="M 338.688 6.381624 
L 369.60768 222.877782 
" style="fill:none;stroke:#6495ed;stroke-linecap:square;stroke-width:1.5;"/>
    <g>
     <use style="fill-opacity:0;stroke:#6495ed;stroke-linejoin:miter;stroke-width:1.5;" x="338.688" xlink:href="#m2f3bb93611" y="6.381624"/>
     <use style="fill-opacity:0;stroke:#6495ed;stroke-linejoin:miter;stroke-width:1.5;" x="369.60768" xlink:href="#m2f3bb93611" y="222.877782"/>
    </g>
   </g>
   <g id="line2d_53">
    <path d="M 338.688 6.381624 
L 369.60768 152.662812 
" style="fill:none;stroke:#ff00ff;stroke-linecap:square;stroke-width:1.5;"/>
    <g>
     <use style="fill-opacity:0;stroke:#ff00ff;stroke-linejoin:miter;stroke-width:1.5;" x="338.688" xlink:href="#m3204383020" y="6.381624"/>
     <use style="fill-opacity:0;stroke:#ff00ff;stroke-linejoin:miter;stroke-width:1.5;" x="369.60768" xlink:href="#m3204383020" y="152.662812"/>
    </g>
   </g>
   <g id="line2d_54">
    <path d="M 338.688 6.381624 
L 369.60768 82.447842 
" style="fill:none;stroke:#000080;stroke-linecap:square;stroke-width:1.5;"/>
    <g>
     <use style="fill-opacity:0;stroke:#000080;stroke-width:1.5;" x="338.688" xlink:href="#mf4f6d6cc76" y="6.381624"/>
     <use style="fill-opacity:0;stroke:#000080;stroke-width:1.5;" x="369.60768" xlink:href="#mf4f6d6cc76" y="82.447842"/>
    </g>
   </g>
   <g id="line2d_55">
    <path d="M 338.688 6.381624 
L 369.60768 12.232871 
" style="fill:none;stroke:#ff0000;stroke-linecap:square;stroke-width:1.5;"/>
    <g>
     <use style="fill-opacity:0;stroke:#ff0000;stroke-linejoin:miter;stroke-width:1.5;" x="338.688" xlink:href="#m144d5b18e7" y="6.381624"/>
     <use style="fill-opacity:0;stroke:#ff0000;stroke-linejoin:miter;stroke-width:1.5;" x="369.60768" xlink:href="#m144d5b18e7" y="12.232871"/>
    </g>
   </g>
   <g id="line2d_56">
    <path d="M 338.688 298.944 
L 338.688 6.381624 
" style="fill:none;stroke:#000000;stroke-linecap:square;stroke-width:1.5;"/>
   </g>
   <g id="patch_3">
    <path d="M 57.6 298.944 
L 57.6 3.456 
" style="fill:none;stroke:#000000;stroke-linecap:square;stroke-linejoin:miter;stroke-width:0.8;"/>
   </g>
   <g id="patch_4">
    <path d="M 338.688 298.944 
L 338.688 3.456 
" style="fill:none;stroke:#000000;stroke-linecap:square;stroke-linejoin:miter;stroke-width:0.8;"/>
   </g>
   <g id="patch_5">
    <path d="M 57.6 298.944 
L 338.688 298.944 
" style="fill:none;stroke:#000000;stroke-linecap:square;stroke-linejoin:miter;stroke-width:0.8;"/>
   </g>
   <g id="patch_6">
    <path d="M 57.6 3.456 
L 338.688 3.456 
" style="fill:none;stroke:#000000;stroke-linecap:square;stroke-linejoin:miter;stroke-width:0.8;"/>
   </g>
   <g id="text_13">
    <!-- f3 -->
    <g transform="translate(375.22944 297.78369)scale(0.17 -0.17)">
     <defs>
      <path d="M 40.578125 39.3125 
Q 47.65625 37.796875 51.625 33 
Q 55.609375 28.21875 55.609375 21.1875 
Q 55.609375 10.40625 48.1875 4.484375 
Q 40.765625 -1.421875 27.09375 -1.421875 
Q 22.515625 -1.421875 17.65625 -0.515625 
Q 12.796875 0.390625 7.625 2.203125 
L 7.625 11.71875 
Q 11.71875 9.328125 16.59375 8.109375 
Q 21.484375 6.890625 26.8125 6.890625 
Q 36.078125 6.890625 40.9375 10.546875 
Q 45.796875 14.203125 45.796875 21.1875 
Q 45.796875 27.640625 41.28125 31.265625 
Q 36.765625 34.90625 28.71875 34.90625 
L 20.21875 34.90625 
L 20.21875 43.015625 
L 29.109375 43.015625 
Q 36.375 43.015625 40.234375 45.921875 
Q 44.09375 48.828125 44.09375 54.296875 
Q 44.09375 59.90625 40.109375 62.90625 
Q 36.140625 65.921875 28.71875 65.921875 
Q 24.65625 65.921875 20.015625 65.03125 
Q 15.375 64.15625 9.8125 62.3125 
L 9.8125 71.09375 
Q 15.4375 72.65625 20.34375 73.4375 
Q 25.25 74.21875 29.59375 74.21875 
Q 40.828125 74.21875 47.359375 69.109375 
Q 53.90625 64.015625 53.90625 55.328125 
Q 53.90625 49.265625 50.4375 45.09375 
Q 46.96875 40.921875 40.578125 39.3125 
z
" id="DejaVuSans-51"/>
     </defs>
     <use xlink:href="#DejaVuSans-102"/>
     <use x="35.205078" xlink:href="#DejaVuSans-51"/>
    </g>
   </g>
   <g id="text_14">
    <!-- f4 -->
    <g transform="translate(375.22944 227.56872)scale(0.17 -0.17)">
     <use xlink:href="#DejaVuSans-102"/>
     <use x="35.205078" xlink:href="#DejaVuSans-52"/>
    </g>
   </g>
   <g id="text_15">
    <!-- f2 -->
    <g transform="translate(375.22944 157.353749)scale(0.17 -0.17)">
     <use xlink:href="#DejaVuSans-102"/>
     <use x="35.205078" xlink:href="#DejaVuSans-50"/>
    </g>
   </g>
   <g id="text_16">
    <!-- f1 -->
    <g transform="translate(375.22944 87.138779)scale(0.17 -0.17)">
     <use xlink:href="#DejaVuSans-102"/>
     <use x="35.205078" xlink:href="#DejaVuSans-49"/>
    </g>
   </g>
   <g id="text_17">
    <!-- f5 -->
    <g transform="translate(375.22944 16.923809)scale(0.17 -0.17)">
     <defs>
      <path d="M 10.796875 72.90625 
L 49.515625 72.90625 
L 49.515625 64.59375 
L 19.828125 64.59375 
L 19.828125 46.734375 
Q 21.96875 47.46875 24.109375 47.828125 
Q 26.265625 48.1875 28.421875 48.1875 
Q 40.625 48.1875 47.75 41.5 
Q 54.890625 34.8125 54.890625 23.390625 
Q 54.890625 11.625 47.5625 5.09375 
Q 40.234375 -1.421875 26.90625 -1.421875 
Q 22.3125 -1.421875 17.546875 -0.640625 
Q 12.796875 0.140625 7.71875 1.703125 
L 7.71875 11.625 
Q 12.109375 9.234375 16.796875 8.0625 
Q 21.484375 6.890625 26.703125 6.890625 
Q 35.15625 6.890625 40.078125 11.328125 
Q 45.015625 15.765625 45.015625 23.390625 
Q 45.015625 31 40.078125 35.4375 
Q 35.15625 39.890625 26.703125 39.890625 
Q 22.75 39.890625 18.8125 39.015625 
Q 14.890625 38.140625 10.796875 36.28125 
z
" id="DejaVuSans-53"/>
     </defs>
     <use xlink:href="#DejaVuSans-102"/>
     <use x="35.205078" xlink:href="#DejaVuSans-53"/>
    </g>
   </g>
   <g id="text_18">
    <!-- bbob -->
    <g transform="translate(60.41088 14.161286)scale(0.102 -0.102)">
     <defs>
      <path d="M 48.6875 27.296875 
Q 48.6875 37.203125 44.609375 42.84375 
Q 40.53125 48.484375 33.40625 48.484375 
Q 26.265625 48.484375 22.1875 42.84375 
Q 18.109375 37.203125 18.109375 27.296875 
Q 18.109375 17.390625 22.1875 11.75 
Q 26.265625 6.109375 33.40625 6.109375 
Q 40.53125 6.109375 44.609375 11.75 
Q 48.6875 17.390625 48.6875 27.296875 
z
M 18.109375 46.390625 
Q 20.953125 51.265625 25.265625 53.625 
Q 29.59375 56 35.59375 56 
Q 45.5625 56 51.78125 48.09375 
Q 58.015625 40.1875 58.015625 27.296875 
Q 58.015625 14.40625 51.78125 6.484375 
Q 45.5625 -1.421875 35.59375 -1.421875 
Q 29.59375 -1.421875 25.265625 0.953125 
Q 20.953125 3.328125 18.109375 8.203125 
L 18.109375 0 
L 9.078125 0 
L 9.078125 75.984375 
L 18.109375 75.984375 
z
" id="DejaVuSans-98"/>
     </defs>
     <use xlink:href="#DejaVuSans-98"/>
     <use x="63.476562" xlink:href="#DejaVuSans-98"/>
     <use x="126.953125" xlink:href="#DejaVuSans-111"/>
     <use x="188.134766" xlink:href="#DejaVuSans-98"/>
    </g>
    <!-- Separable functions, 2-D -->
    <g transform="translate(60.41088 25.583055)scale(0.102 -0.102)">
     <defs>
      <path d="M 53.515625 70.515625 
L 53.515625 60.890625 
Q 47.90625 63.578125 42.921875 64.890625 
Q 37.9375 66.21875 33.296875 66.21875 
Q 25.25 66.21875 20.875 63.09375 
Q 16.5 59.96875 16.5 54.203125 
Q 16.5 49.359375 19.40625 46.890625 
Q 22.3125 44.4375 30.421875 42.921875 
L 36.375 41.703125 
Q 47.40625 39.59375 52.65625 34.296875 
Q 57.90625 29 57.90625 20.125 
Q 57.90625 9.515625 50.796875 4.046875 
Q 43.703125 -1.421875 29.984375 -1.421875 
Q 24.8125 -1.421875 18.96875 -0.25 
Q 13.140625 0.921875 6.890625 3.21875 
L 6.890625 13.375 
Q 12.890625 10.015625 18.65625 8.296875 
Q 24.421875 6.59375 29.984375 6.59375 
Q 38.421875 6.59375 43.015625 9.90625 
Q 47.609375 13.234375 47.609375 19.390625 
Q 47.609375 24.75 44.3125 27.78125 
Q 41.015625 30.8125 33.5 32.328125 
L 27.484375 33.5 
Q 16.453125 35.6875 11.515625 40.375 
Q 6.59375 45.0625 6.59375 53.421875 
Q 6.59375 63.09375 13.40625 68.65625 
Q 20.21875 74.21875 32.171875 74.21875 
Q 37.3125 74.21875 42.625 73.28125 
Q 47.953125 72.359375 53.515625 70.515625 
z
" id="DejaVuSans-83"/>
      <path d="M 19.671875 64.796875 
L 19.671875 8.109375 
L 31.59375 8.109375 
Q 46.6875 8.109375 53.6875 14.9375 
Q 60.6875 21.78125 60.6875 36.53125 
Q 60.6875 51.171875 53.6875 57.984375 
Q 46.6875 64.796875 31.59375 64.796875 
z
M 9.8125 72.90625 
L 30.078125 72.90625 
Q 51.265625 72.90625 61.171875 64.09375 
Q 71.09375 55.28125 71.09375 36.53125 
Q 71.09375 17.671875 61.125 8.828125 
Q 51.171875 0 30.078125 0 
L 9.8125 0 
z
" id="DejaVuSans-68"/>
     </defs>
     <use xlink:href="#DejaVuSans-83"/>
     <use x="63.476562" xlink:href="#DejaVuSans-101"/>
     <use x="125" xlink:href="#DejaVuSans-112"/>
     <use x="188.476562" xlink:href="#DejaVuSans-97"/>
     <use x="249.755859" xlink:href="#DejaVuSans-114"/>
     <use x="290.869141" xlink:href="#DejaVuSans-97"/>
     <use x="352.148438" xlink:href="#DejaVuSans-98"/>
     <use x="415.625" xlink:href="#DejaVuSans-108"/>
     <use x="443.408203" xlink:href="#DejaVuSans-101"/>
     <use x="504.931641" xlink:href="#DejaVuSans-32"/>
     <use x="536.71875" xlink:href="#DejaVuSans-102"/>
     <use x="571.923828" xlink:href="#DejaVuSans-117"/>
     <use x="635.302734" xlink:href="#DejaVuSans-110"/>
     <use x="698.681641" xlink:href="#DejaVuSans-99"/>
     <use x="753.662109" xlink:href="#DejaVuSans-116"/>
     <use x="792.871094" xlink:href="#DejaVuSans-105"/>
     <use x="820.654297" xlink:href="#DejaVuSans-111"/>
     <use x="881.835938" xlink:href="#DejaVuSans-110"/>
     <use x="945.214844" xlink:href="#DejaVuSans-115"/>
     <use x="997.314453" xlink:href="#DejaVuSans-44"/>
     <use x="1029.101562" xlink:href="#DejaVuSans-32"/>
     <use x="1060.888672" xlink:href="#DejaVuSans-50"/>
     <use x="1124.511719" xlink:href="#DejaVuSans-45"/>
     <use x="1160.595703" xlink:href="#DejaVuSans-68"/>
    </g>
    <!-- 51 targets: 100..1e-08 -->
    <g transform="translate(60.41088 37.004824)scale(0.102 -0.102)">
     <defs>
      <path d="M 11.71875 12.40625 
L 22.015625 12.40625 
L 22.015625 0 
L 11.71875 0 
z
M 11.71875 51.703125 
L 22.015625 51.703125 
L 22.015625 39.3125 
L 11.71875 39.3125 
z
" id="DejaVuSans-58"/>
     </defs>
     <use xlink:href="#DejaVuSans-53"/>
     <use x="63.623047" xlink:href="#DejaVuSans-49"/>
     <use x="127.246094" xlink:href="#DejaVuSans-32"/>
     <use x="159.033203" xlink:href="#DejaVuSans-116"/>
     <use x="198.242188" xlink:href="#DejaVuSans-97"/>
     <use x="259.521484" xlink:href="#DejaVuSans-114"/>
     <use x="298.884766" xlink:href="#DejaVuSans-103"/>
     <use x="362.361328" xlink:href="#DejaVuSans-101"/>
     <use x="423.884766" xlink:href="#DejaVuSans-116"/>
     <use x="463.09375" xlink:href="#DejaVuSans-115"/>
     <use x="515.193359" xlink:href="#DejaVuSans-58"/>
     <use x="548.884766" xlink:href="#DejaVuSans-32"/>
     <use x="580.671875" xlink:href="#DejaVuSans-49"/>
     <use x="644.294922" xlink:href="#DejaVuSans-48"/>
     <use x="707.917969" xlink:href="#DejaVuSans-48"/>
     <use x="771.541016" xlink:href="#DejaVuSans-46"/>
     <use x="803.328125" xlink:href="#DejaVuSans-46"/>
     <use x="835.115234" xlink:href="#DejaVuSans-49"/>
     <use x="898.738281" xlink:href="#DejaVuSans-101"/>
     <use x="960.261719" xlink:href="#DejaVuSans-45"/>
     <use x="996.345703" xlink:href="#DejaVuSans-48"/>
     <use x="1059.96875" xlink:href="#DejaVuSans-56"/>
    </g>
    <!-- 15 instances -->
    <g transform="translate(60.41088 48.426593)scale(0.102 -0.102)">
     <use xlink:href="#DejaVuSans-49"/>
     <use x="63.623047" xlink:href="#DejaVuSans-53"/>
     <use x="127.246094" xlink:href="#DejaVuSans-32"/>
     <use x="159.033203" xlink:href="#DejaVuSans-105"/>
     <use x="186.816406" xlink:href="#DejaVuSans-110"/>
     <use x="250.195312" xlink:href="#DejaVuSans-115"/>
     <use x="302.294922" xlink:href="#DejaVuSans-116"/>
     <use x="341.503906" xlink:href="#DejaVuSans-97"/>
     <use x="402.783203" xlink:href="#DejaVuSans-110"/>
     <use x="466.162109" xlink:href="#DejaVuSans-99"/>
     <use x="521.142578" xlink:href="#DejaVuSans-101"/>
     <use x="582.666016" xlink:href="#DejaVuSans-115"/>
    </g>
   </g>
   <g id="text_19">
    <!-- v2.4 -->
    <g style="fill:#808080;" transform="translate(187.233062 293.909432)scale(0.1 -0.1)">
     <use xlink:href="#DejaVuSans-118"/>
     <use x="59.179688" xlink:href="#DejaVuSans-50"/>
     <use x="122.802734" xlink:href="#DejaVuSans-46"/>
     <use x="154.589844" xlink:href="#DejaVuSans-52"/>
    </g>
   </g>
  </g>
 </g>
 <defs>
  <clipPath id="p9ed6667721">
   <rect height="295.488" width="281.088" x="57.6" y="3.456"/>
  </clipPath>
 </defs>
</svg>
