<?xml version="1.0" encoding="utf-8" standalone="no"?>
<!DOCTYPE svg PUBLIC "-//W3C//DTD SVG 1.1//EN"
  "http://www.w3.org/Graphics/SVG/1.1/DTD/svg11.dtd">
<!-- Created with matplotlib (https://matplotlib.org/) -->
<svg height="345.6pt" version="1.1" viewBox="0 0 460.8 345.6" width="460.8pt" xmlns="http://www.w3.org/2000/svg" xmlns:xlink="http://www.w3.org/1999/xlink">
 <metadata>
  <rdf:RDF xmlns:cc="http://creativecommons.org/ns#" xmlns:dc="http://purl.org/dc/elements/1.1/" xmlns:rdf="http://www.w3.org/1999/02/22-rdf-syntax-ns#">
   <cc:Work>
    <dc:type rdf:resource="http://purl.org/dc/dcmitype/StillImage"/>
    <dc:date>2021-06-17T01:37:26.984883</dc:date>
    <dc:format>image/svg+xml</dc:format>
    <dc:creator>
     <cc:Agent>
      <dc:title>Matplotlib v3.3.4, https://matplotlib.org/</dc:title>
     </cc:Agent>
    </dc:creator>
   </cc:Work>
  </rdf:RDF>
 </metadata>
 <defs>
  <style type="text/css">*{stroke-linecap:butt;stroke-linejoin:round;}</style>
 </defs>
 <g id="figure_1">
  <g id="patch_1">
   <path d="M 0 345.6 
L 460.8 345.6 
L 460.8 0 
L 0 0 
z
" style="fill:#ffffff;"/>
  </g>
  <g id="axes_1">
   <g id="patch_2">
    <path d="M 57.6 298.944 
L 338.688 298.944 
L 338.688 3.456 
L 57.6 3.456 
z
" style="fill:#ffffff;"/>
   </g>
   <g id="matplotlib.axis_1">
    <g id="xtick_1">
     <g id="line2d_1">
      <path clip-path="url(#p42a2dccf69)" d="M 57.6 298.944 
L 57.6 3.456 
" style="fill:none;stroke:#b0b0b0;stroke-linecap:square;stroke-width:0.8;"/>
     </g>
     <g id="line2d_2">
      <defs>
       <path d="M 0 0 
L 0 3.5 
" id="m99ca529679" style="stroke:#000000;stroke-width:0.8;"/>
      </defs>
      <g>
       <use style="stroke:#000000;stroke-width:0.8;" x="57.6" xlink:href="#m99ca529679" y="298.944"/>
      </g>
     </g>
     <g id="text_1">
      <!-- 0 -->
      <g transform="translate(51.2375 321.140875)scale(0.2 -0.2)">
       <defs>
        <path d="M 31.78125 66.40625 
Q 24.171875 66.40625 20.328125 58.90625 
Q 16.5 51.421875 16.5 36.375 
Q 16.5 21.390625 20.328125 13.890625 
Q 24.171875 6.390625 31.78125 6.390625 
Q 39.453125 6.390625 43.28125 13.890625 
Q 47.125 21.390625 47.125 36.375 
Q 47.125 51.421875 43.28125 58.90625 
Q 39.453125 66.40625 31.78125 66.40625 
z
M 31.78125 74.21875 
Q 44.046875 74.21875 50.515625 64.515625 
Q 56.984375 54.828125 56.984375 36.375 
Q 56.984375 17.96875 50.515625 8.265625 
Q 44.046875 -1.421875 31.78125 -1.421875 
Q 19.53125 -1.421875 13.0625 8.265625 
Q 6.59375 17.96875 6.59375 36.375 
Q 6.59375 54.828125 13.0625 64.515625 
Q 19.53125 74.21875 31.78125 74.21875 
z
" id="DejaVuSans-48"/>
       </defs>
       <use xlink:href="#DejaVuSans-48"/>
      </g>
     </g>
    </g>
    <g id="xtick_2">
     <g id="line2d_3">
      <path clip-path="url(#p42a2dccf69)" d="M 137.910857 298.944 
L 137.910857 3.456 
" style="fill:none;stroke:#b0b0b0;stroke-linecap:square;stroke-width:0.8;"/>
     </g>
     <g id="line2d_4">
      <g>
       <use style="stroke:#000000;stroke-width:0.8;" x="137.910857" xlink:href="#m99ca529679" y="298.944"/>
      </g>
     </g>
     <g id="text_2">
      <!-- 2 -->
      <g transform="translate(131.548357 321.140875)scale(0.2 -0.2)">
       <defs>
        <path d="M 19.1875 8.296875 
L 53.609375 8.296875 
L 53.609375 0 
L 7.328125 0 
L 7.328125 8.296875 
Q 12.9375 14.109375 22.625 23.890625 
Q 32.328125 33.6875 34.8125 36.53125 
Q 39.546875 41.84375 41.421875 45.53125 
Q 43.3125 49.21875 43.3125 52.78125 
Q 43.3125 58.59375 39.234375 62.25 
Q 35.15625 65.921875 28.609375 65.921875 
Q 23.96875 65.921875 18.8125 64.3125 
Q 13.671875 62.703125 7.8125 59.421875 
L 7.8125 69.390625 
Q 13.765625 71.78125 18.9375 73 
Q 24.125 74.21875 28.421875 74.21875 
Q 39.75 74.21875 46.484375 68.546875 
Q 53.21875 62.890625 53.21875 53.421875 
Q 53.21875 48.921875 51.53125 44.890625 
Q 49.859375 40.875 45.40625 35.40625 
Q 44.1875 33.984375 37.640625 27.21875 
Q 31.109375 20.453125 19.1875 8.296875 
z
" id="DejaVuSans-50"/>
       </defs>
       <use xlink:href="#DejaVuSans-50"/>
      </g>
     </g>
    </g>
    <g id="xtick_3">
     <g id="line2d_5">
      <path clip-path="url(#p42a2dccf69)" d="M 218.221714 298.944 
L 218.221714 3.456 
" style="fill:none;stroke:#b0b0b0;stroke-linecap:square;stroke-width:0.8;"/>
     </g>
     <g id="line2d_6">
      <g>
       <use style="stroke:#000000;stroke-width:0.8;" x="218.221714" xlink:href="#m99ca529679" y="298.944"/>
      </g>
     </g>
     <g id="text_3">
      <!-- 4 -->
      <g transform="translate(211.859214 321.140875)scale(0.2 -0.2)">
       <defs>
        <path d="M 37.796875 64.3125 
L 12.890625 25.390625 
L 37.796875 25.390625 
z
M 35.203125 72.90625 
L 47.609375 72.90625 
L 47.609375 25.390625 
L 58.015625 25.390625 
L 58.015625 17.1875 
L 47.609375 17.1875 
L 47.609375 0 
L 37.796875 0 
L 37.796875 17.1875 
L 4.890625 17.1875 
L 4.890625 26.703125 
z
" id="DejaVuSans-52"/>
       </defs>
       <use xlink:href="#DejaVuSans-52"/>
      </g>
     </g>
    </g>
    <g id="xtick_4">
     <g id="line2d_7">
      <path clip-path="url(#p42a2dccf69)" d="M 298.532571 298.944 
L 298.532571 3.456 
" style="fill:none;stroke:#b0b0b0;stroke-linecap:square;stroke-width:0.8;"/>
     </g>
     <g id="line2d_8">
      <g>
       <use style="stroke:#000000;stroke-width:0.8;" x="298.532571" xlink:href="#m99ca529679" y="298.944"/>
      </g>
     </g>
     <g id="text_4">
      <!-- 6 -->
      <g transform="translate(292.170071 321.140875)scale(0.2 -0.2)">
       <defs>
        <path d="M 33.015625 40.375 
Q 26.375 40.375 22.484375 35.828125 
Q 18.609375 31.296875 18.609375 23.390625 
Q 18.609375 15.53125 22.484375 10.953125 
Q 26.375 6.390625 33.015625 6.390625 
Q 39.65625 6.390625 43.53125 10.953125 
Q 47.40625 15.53125 47.40625 23.390625 
Q 47.40625 31.296875 43.53125 35.828125 
Q 39.65625 40.375 33.015625 40.375 
z
M 52.59375 71.296875 
L 52.59375 62.3125 
Q 48.875 64.0625 45.09375 64.984375 
Q 41.3125 65.921875 37.59375 65.921875 
Q 27.828125 65.921875 22.671875 59.328125 
Q 17.53125 52.734375 16.796875 39.40625 
Q 19.671875 43.65625 24.015625 45.921875 
Q 28.375 48.1875 33.59375 48.1875 
Q 44.578125 48.1875 50.953125 41.515625 
Q 57.328125 34.859375 57.328125 23.390625 
Q 57.328125 12.15625 50.6875 5.359375 
Q 44.046875 -1.421875 33.015625 -1.421875 
Q 20.359375 -1.421875 13.671875 8.265625 
Q 6.984375 17.96875 6.984375 36.375 
Q 6.984375 53.65625 15.1875 63.9375 
Q 23.390625 74.21875 37.203125 74.21875 
Q 40.921875 74.21875 44.703125 73.484375 
Q 48.484375 72.75 52.59375 71.296875 
z
" id="DejaVuSans-54"/>
       </defs>
       <use xlink:href="#DejaVuSans-54"/>
      </g>
     </g>
    </g>
    <g id="xtick_5">
     <g id="line2d_9">
      <path clip-path="url(#p42a2dccf69)" d="M 97.755429 298.944 
L 97.755429 3.456 
" style="fill:none;stroke:#b0b0b0;stroke-linecap:square;stroke-width:0.8;"/>
     </g>
     <g id="line2d_10">
      <defs>
       <path d="M 0 0 
L 0 2 
" id="m1f1f7d7113" style="stroke:#000000;stroke-width:0.6;"/>
      </defs>
      <g>
       <use style="stroke:#000000;stroke-width:0.6;" x="97.755429" xlink:href="#m1f1f7d7113" y="298.944"/>
      </g>
     </g>
    </g>
    <g id="xtick_6">
     <g id="line2d_11">
      <path clip-path="url(#p42a2dccf69)" d="M 178.066286 298.944 
L 178.066286 3.456 
" style="fill:none;stroke:#b0b0b0;stroke-linecap:square;stroke-width:0.8;"/>
     </g>
     <g id="line2d_12">
      <g>
       <use style="stroke:#000000;stroke-width:0.6;" x="178.066286" xlink:href="#m1f1f7d7113" y="298.944"/>
      </g>
     </g>
    </g>
    <g id="xtick_7">
     <g id="line2d_13">
      <path clip-path="url(#p42a2dccf69)" d="M 258.377143 298.944 
L 258.377143 3.456 
" style="fill:none;stroke:#b0b0b0;stroke-linecap:square;stroke-width:0.8;"/>
     </g>
     <g id="line2d_14">
      <g>
       <use style="stroke:#000000;stroke-width:0.6;" x="258.377143" xlink:href="#m1f1f7d7113" y="298.944"/>
      </g>
     </g>
    </g>
    <g id="xtick_8">
     <g id="line2d_15">
      <path clip-path="url(#p42a2dccf69)" d="M 338.688 298.944 
L 338.688 3.456 
" style="fill:none;stroke:#b0b0b0;stroke-linecap:square;stroke-width:0.8;"/>
     </g>
     <g id="line2d_16">
      <g>
       <use style="stroke:#000000;stroke-width:0.6;" x="338.688" xlink:href="#m1f1f7d7113" y="298.944"/>
      </g>
     </g>
    </g>
    <g id="text_5">
     <!-- log10(# f-evals / dimension) -->
     <g transform="translate(77.764078 342.217594)scale(0.17 -0.17)">
      <defs>
       <path d="M 9.421875 75.984375 
L 18.40625 75.984375 
L 18.40625 0 
L 9.421875 0 
z
" id="DejaVuSans-108"/>
       <path d="M 30.609375 48.390625 
Q 23.390625 48.390625 19.1875 42.75 
Q 14.984375 37.109375 14.984375 27.296875 
Q 14.984375 17.484375 19.15625 11.84375 
Q 23.34375 6.203125 30.609375 6.203125 
Q 37.796875 6.203125 41.984375 11.859375 
Q 46.1875 17.53125 46.1875 27.296875 
Q 46.1875 37.015625 41.984375 42.703125 
Q 37.796875 48.390625 30.609375 48.390625 
z
M 30.609375 56 
Q 42.328125 56 49.015625 48.375 
Q 55.71875 40.765625 55.71875 27.296875 
Q 55.71875 13.875 49.015625 6.21875 
Q 42.328125 -1.421875 30.609375 -1.421875 
Q 18.84375 -1.421875 12.171875 6.21875 
Q 5.515625 13.875 5.515625 27.296875 
Q 5.515625 40.765625 12.171875 48.375 
Q 18.84375 56 30.609375 56 
z
" id="DejaVuSans-111"/>
       <path d="M 45.40625 27.984375 
Q 45.40625 37.75 41.375 43.109375 
Q 37.359375 48.484375 30.078125 48.484375 
Q 22.859375 48.484375 18.828125 43.109375 
Q 14.796875 37.75 14.796875 27.984375 
Q 14.796875 18.265625 18.828125 12.890625 
Q 22.859375 7.515625 30.078125 7.515625 
Q 37.359375 7.515625 41.375 12.890625 
Q 45.40625 18.265625 45.40625 27.984375 
z
M 54.390625 6.78125 
Q 54.390625 -7.171875 48.1875 -13.984375 
Q 42 -20.796875 29.203125 -20.796875 
Q 24.46875 -20.796875 20.265625 -20.09375 
Q 16.0625 -19.390625 12.109375 -17.921875 
L 12.109375 -9.1875 
Q 16.0625 -11.328125 19.921875 -12.34375 
Q 23.78125 -13.375 27.78125 -13.375 
Q 36.625 -13.375 41.015625 -8.765625 
Q 45.40625 -4.15625 45.40625 5.171875 
L 45.40625 9.625 
Q 42.625 4.78125 38.28125 2.390625 
Q 33.9375 0 27.875 0 
Q 17.828125 0 11.671875 7.65625 
Q 5.515625 15.328125 5.515625 27.984375 
Q 5.515625 40.671875 11.671875 48.328125 
Q 17.828125 56 27.875 56 
Q 33.9375 56 38.28125 53.609375 
Q 42.625 51.21875 45.40625 46.390625 
L 45.40625 54.6875 
L 54.390625 54.6875 
z
" id="DejaVuSans-103"/>
       <path d="M 12.40625 8.296875 
L 28.515625 8.296875 
L 28.515625 63.921875 
L 10.984375 60.40625 
L 10.984375 69.390625 
L 28.421875 72.90625 
L 38.28125 72.90625 
L 38.28125 8.296875 
L 54.390625 8.296875 
L 54.390625 0 
L 12.40625 0 
z
" id="DejaVuSans-49"/>
       <path d="M 31 75.875 
Q 24.46875 64.65625 21.28125 53.65625 
Q 18.109375 42.671875 18.109375 31.390625 
Q 18.109375 20.125 21.3125 9.0625 
Q 24.515625 -2 31 -13.1875 
L 23.1875 -13.1875 
Q 15.875 -1.703125 12.234375 9.375 
Q 8.59375 20.453125 8.59375 31.390625 
Q 8.59375 42.28125 12.203125 53.3125 
Q 15.828125 64.359375 23.1875 75.875 
z
" id="DejaVuSans-40"/>
       <path d="M 51.125 44 
L 36.921875 44 
L 32.8125 27.6875 
L 47.125 27.6875 
z
M 43.796875 71.78125 
L 38.71875 51.515625 
L 52.984375 51.515625 
L 58.109375 71.78125 
L 65.921875 71.78125 
L 60.890625 51.515625 
L 76.125 51.515625 
L 76.125 44 
L 58.984375 44 
L 54.984375 27.6875 
L 70.515625 27.6875 
L 70.515625 20.21875 
L 53.078125 20.21875 
L 48 0 
L 40.1875 0 
L 45.21875 20.21875 
L 30.90625 20.21875 
L 25.875 0 
L 18.015625 0 
L 23.09375 20.21875 
L 7.71875 20.21875 
L 7.71875 27.6875 
L 24.90625 27.6875 
L 29 44 
L 13.28125 44 
L 13.28125 51.515625 
L 30.90625 51.515625 
L 35.890625 71.78125 
z
" id="DejaVuSans-35"/>
       <path id="DejaVuSans-32"/>
       <path d="M 37.109375 75.984375 
L 37.109375 68.5 
L 28.515625 68.5 
Q 23.6875 68.5 21.796875 66.546875 
Q 19.921875 64.59375 19.921875 59.515625 
L 19.921875 54.6875 
L 34.71875 54.6875 
L 34.71875 47.703125 
L 19.921875 47.703125 
L 19.921875 0 
L 10.890625 0 
L 10.890625 47.703125 
L 2.296875 47.703125 
L 2.296875 54.6875 
L 10.890625 54.6875 
L 10.890625 58.5 
Q 10.890625 67.625 15.140625 71.796875 
Q 19.390625 75.984375 28.609375 75.984375 
z
" id="DejaVuSans-102"/>
       <path d="M 4.890625 31.390625 
L 31.203125 31.390625 
L 31.203125 23.390625 
L 4.890625 23.390625 
z
" id="DejaVuSans-45"/>
       <path d="M 56.203125 29.59375 
L 56.203125 25.203125 
L 14.890625 25.203125 
Q 15.484375 15.921875 20.484375 11.0625 
Q 25.484375 6.203125 34.421875 6.203125 
Q 39.59375 6.203125 44.453125 7.46875 
Q 49.3125 8.734375 54.109375 11.28125 
L 54.109375 2.78125 
Q 49.265625 0.734375 44.1875 -0.34375 
Q 39.109375 -1.421875 33.890625 -1.421875 
Q 20.796875 -1.421875 13.15625 6.1875 
Q 5.515625 13.8125 5.515625 26.8125 
Q 5.515625 40.234375 12.765625 48.109375 
Q 20.015625 56 32.328125 56 
Q 43.359375 56 49.78125 48.890625 
Q 56.203125 41.796875 56.203125 29.59375 
z
M 47.21875 32.234375 
Q 47.125 39.59375 43.09375 43.984375 
Q 39.0625 48.390625 32.421875 48.390625 
Q 24.90625 48.390625 20.390625 44.140625 
Q 15.875 39.890625 15.1875 32.171875 
z
" id="DejaVuSans-101"/>
       <path d="M 2.984375 54.6875 
L 12.5 54.6875 
L 29.59375 8.796875 
L 46.6875 54.6875 
L 56.203125 54.6875 
L 35.6875 0 
L 23.484375 0 
z
" id="DejaVuSans-118"/>
       <path d="M 34.28125 27.484375 
Q 23.390625 27.484375 19.1875 25 
Q 14.984375 22.515625 14.984375 16.5 
Q 14.984375 11.71875 18.140625 8.90625 
Q 21.296875 6.109375 26.703125 6.109375 
Q 34.1875 6.109375 38.703125 11.40625 
Q 43.21875 16.703125 43.21875 25.484375 
L 43.21875 27.484375 
z
M 52.203125 31.203125 
L 52.203125 0 
L 43.21875 0 
L 43.21875 8.296875 
Q 40.140625 3.328125 35.546875 0.953125 
Q 30.953125 -1.421875 24.3125 -1.421875 
Q 15.921875 -1.421875 10.953125 3.296875 
Q 6 8.015625 6 15.921875 
Q 6 25.140625 12.171875 29.828125 
Q 18.359375 34.515625 30.609375 34.515625 
L 43.21875 34.515625 
L 43.21875 35.40625 
Q 43.21875 41.609375 39.140625 45 
Q 35.0625 48.390625 27.6875 48.390625 
Q 23 48.390625 18.546875 47.265625 
Q 14.109375 46.140625 10.015625 43.890625 
L 10.015625 52.203125 
Q 14.9375 54.109375 19.578125 55.046875 
Q 24.21875 56 28.609375 56 
Q 40.484375 56 46.34375 49.84375 
Q 52.203125 43.703125 52.203125 31.203125 
z
" id="DejaVuSans-97"/>
       <path d="M 44.28125 53.078125 
L 44.28125 44.578125 
Q 40.484375 46.53125 36.375 47.5 
Q 32.28125 48.484375 27.875 48.484375 
Q 21.1875 48.484375 17.84375 46.4375 
Q 14.5 44.390625 14.5 40.28125 
Q 14.5 37.15625 16.890625 35.375 
Q 19.28125 33.59375 26.515625 31.984375 
L 29.59375 31.296875 
Q 39.15625 29.25 43.1875 25.515625 
Q 47.21875 21.78125 47.21875 15.09375 
Q 47.21875 7.46875 41.1875 3.015625 
Q 35.15625 -1.421875 24.609375 -1.421875 
Q 20.21875 -1.421875 15.453125 -0.5625 
Q 10.6875 0.296875 5.421875 2 
L 5.421875 11.28125 
Q 10.40625 8.6875 15.234375 7.390625 
Q 20.0625 6.109375 24.8125 6.109375 
Q 31.15625 6.109375 34.5625 8.28125 
Q 37.984375 10.453125 37.984375 14.40625 
Q 37.984375 18.0625 35.515625 20.015625 
Q 33.0625 21.96875 24.703125 23.78125 
L 21.578125 24.515625 
Q 13.234375 26.265625 9.515625 29.90625 
Q 5.8125 33.546875 5.8125 39.890625 
Q 5.8125 47.609375 11.28125 51.796875 
Q 16.75 56 26.8125 56 
Q 31.78125 56 36.171875 55.265625 
Q 40.578125 54.546875 44.28125 53.078125 
z
" id="DejaVuSans-115"/>
       <path d="M 25.390625 72.90625 
L 33.6875 72.90625 
L 8.296875 -9.28125 
L 0 -9.28125 
z
" id="DejaVuSans-47"/>
       <path d="M 45.40625 46.390625 
L 45.40625 75.984375 
L 54.390625 75.984375 
L 54.390625 0 
L 45.40625 0 
L 45.40625 8.203125 
Q 42.578125 3.328125 38.25 0.953125 
Q 33.9375 -1.421875 27.875 -1.421875 
Q 17.96875 -1.421875 11.734375 6.484375 
Q 5.515625 14.40625 5.515625 27.296875 
Q 5.515625 40.1875 11.734375 48.09375 
Q 17.96875 56 27.875 56 
Q 33.9375 56 38.25 53.625 
Q 42.578125 51.265625 45.40625 46.390625 
z
M 14.796875 27.296875 
Q 14.796875 17.390625 18.875 11.75 
Q 22.953125 6.109375 30.078125 6.109375 
Q 37.203125 6.109375 41.296875 11.75 
Q 45.40625 17.390625 45.40625 27.296875 
Q 45.40625 37.203125 41.296875 42.84375 
Q 37.203125 48.484375 30.078125 48.484375 
Q 22.953125 48.484375 18.875 42.84375 
Q 14.796875 37.203125 14.796875 27.296875 
z
" id="DejaVuSans-100"/>
       <path d="M 9.421875 54.6875 
L 18.40625 54.6875 
L 18.40625 0 
L 9.421875 0 
z
M 9.421875 75.984375 
L 18.40625 75.984375 
L 18.40625 64.59375 
L 9.421875 64.59375 
z
" id="DejaVuSans-105"/>
       <path d="M 52 44.1875 
Q 55.375 50.25 60.0625 53.125 
Q 64.75 56 71.09375 56 
Q 79.640625 56 84.28125 50.015625 
Q 88.921875 44.046875 88.921875 33.015625 
L 88.921875 0 
L 79.890625 0 
L 79.890625 32.71875 
Q 79.890625 40.578125 77.09375 44.375 
Q 74.3125 48.1875 68.609375 48.1875 
Q 61.625 48.1875 57.5625 43.546875 
Q 53.515625 38.921875 53.515625 30.90625 
L 53.515625 0 
L 44.484375 0 
L 44.484375 32.71875 
Q 44.484375 40.625 41.703125 44.40625 
Q 38.921875 48.1875 33.109375 48.1875 
Q 26.21875 48.1875 22.15625 43.53125 
Q 18.109375 38.875 18.109375 30.90625 
L 18.109375 0 
L 9.078125 0 
L 9.078125 54.6875 
L 18.109375 54.6875 
L 18.109375 46.1875 
Q 21.1875 51.21875 25.484375 53.609375 
Q 29.78125 56 35.6875 56 
Q 41.65625 56 45.828125 52.96875 
Q 50 49.953125 52 44.1875 
z
" id="DejaVuSans-109"/>
       <path d="M 54.890625 33.015625 
L 54.890625 0 
L 45.90625 0 
L 45.90625 32.71875 
Q 45.90625 40.484375 42.875 44.328125 
Q 39.84375 48.1875 33.796875 48.1875 
Q 26.515625 48.1875 22.3125 43.546875 
Q 18.109375 38.921875 18.109375 30.90625 
L 18.109375 0 
L 9.078125 0 
L 9.078125 54.6875 
L 18.109375 54.6875 
L 18.109375 46.1875 
Q 21.34375 51.125 25.703125 53.5625 
Q 30.078125 56 35.796875 56 
Q 45.21875 56 50.046875 50.171875 
Q 54.890625 44.34375 54.890625 33.015625 
z
" id="DejaVuSans-110"/>
       <path d="M 8.015625 75.875 
L 15.828125 75.875 
Q 23.140625 64.359375 26.78125 53.3125 
Q 30.421875 42.28125 30.421875 31.390625 
Q 30.421875 20.453125 26.78125 9.375 
Q 23.140625 -1.703125 15.828125 -13.1875 
L 8.015625 -13.1875 
Q 14.5 -2 17.703125 9.0625 
Q 20.90625 20.125 20.90625 31.390625 
Q 20.90625 42.671875 17.703125 53.65625 
Q 14.5 64.65625 8.015625 75.875 
z
" id="DejaVuSans-41"/>
      </defs>
      <use xlink:href="#DejaVuSans-108"/>
      <use x="27.783203" xlink:href="#DejaVuSans-111"/>
      <use x="88.964844" xlink:href="#DejaVuSans-103"/>
      <use x="152.441406" xlink:href="#DejaVuSans-49"/>
      <use x="216.064453" xlink:href="#DejaVuSans-48"/>
      <use x="279.6875" xlink:href="#DejaVuSans-40"/>
      <use x="318.701172" xlink:href="#DejaVuSans-35"/>
      <use x="402.490234" xlink:href="#DejaVuSans-32"/>
      <use x="434.277344" xlink:href="#DejaVuSans-102"/>
      <use x="463.982422" xlink:href="#DejaVuSans-45"/>
      <use x="500.066406" xlink:href="#DejaVuSans-101"/>
      <use x="561.589844" xlink:href="#DejaVuSans-118"/>
      <use x="620.769531" xlink:href="#DejaVuSans-97"/>
      <use x="682.048828" xlink:href="#DejaVuSans-108"/>
      <use x="709.832031" xlink:href="#DejaVuSans-115"/>
      <use x="761.931641" xlink:href="#DejaVuSans-32"/>
      <use x="793.71875" xlink:href="#DejaVuSans-47"/>
      <use x="827.410156" xlink:href="#DejaVuSans-32"/>
      <use x="859.197266" xlink:href="#DejaVuSans-100"/>
      <use x="922.673828" xlink:href="#DejaVuSans-105"/>
      <use x="950.457031" xlink:href="#DejaVuSans-109"/>
      <use x="1047.869141" xlink:href="#DejaVuSans-101"/>
      <use x="1109.392578" xlink:href="#DejaVuSans-110"/>
      <use x="1172.771484" xlink:href="#DejaVuSans-115"/>
      <use x="1224.871094" xlink:href="#DejaVuSans-105"/>
      <use x="1252.654297" xlink:href="#DejaVuSans-111"/>
      <use x="1313.835938" xlink:href="#DejaVuSans-110"/>
      <use x="1377.214844" xlink:href="#DejaVuSans-41"/>
     </g>
    </g>
   </g>
   <g id="matplotlib.axis_2">
    <g id="ytick_1">
     <g id="line2d_17">
      <path clip-path="url(#p42a2dccf69)" d="M 57.6 298.944 
L 338.688 298.944 
" style="fill:none;stroke:#b0b0b0;stroke-linecap:square;stroke-width:0.8;"/>
     </g>
     <g id="line2d_18">
      <defs>
       <path d="M 0 0 
L -3.5 0 
" id="m2cb51c45c2" style="stroke:#000000;stroke-width:0.8;"/>
      </defs>
      <g>
       <use style="stroke:#000000;stroke-width:0.8;" x="57.6" xlink:href="#m2cb51c45c2" y="298.944"/>
      </g>
     </g>
     <g id="text_6">
      <!-- 0.0 -->
      <g transform="translate(25.155 305.02275)scale(0.16 -0.16)">
       <defs>
        <path d="M 10.6875 12.40625 
L 21 12.40625 
L 21 0 
L 10.6875 0 
z
" id="DejaVuSans-46"/>
       </defs>
       <use xlink:href="#DejaVuSans-48"/>
       <use x="63.623047" xlink:href="#DejaVuSans-46"/>
       <use x="95.410156" xlink:href="#DejaVuSans-48"/>
      </g>
     </g>
    </g>
    <g id="ytick_2">
     <g id="line2d_19">
      <path clip-path="url(#p42a2dccf69)" d="M 57.6 240.431525 
L 338.688 240.431525 
" style="fill:none;stroke:#b0b0b0;stroke-linecap:square;stroke-width:0.8;"/>
     </g>
     <g id="line2d_20">
      <g>
       <use style="stroke:#000000;stroke-width:0.8;" x="57.6" xlink:href="#m2cb51c45c2" y="240.431525"/>
      </g>
     </g>
     <g id="text_7">
      <!-- 0.2 -->
      <g transform="translate(25.155 246.510275)scale(0.16 -0.16)">
       <use xlink:href="#DejaVuSans-48"/>
       <use x="63.623047" xlink:href="#DejaVuSans-46"/>
       <use x="95.410156" xlink:href="#DejaVuSans-50"/>
      </g>
     </g>
    </g>
    <g id="ytick_3">
     <g id="line2d_21">
      <path clip-path="url(#p42a2dccf69)" d="M 57.6 181.91905 
L 338.688 181.91905 
" style="fill:none;stroke:#b0b0b0;stroke-linecap:square;stroke-width:0.8;"/>
     </g>
     <g id="line2d_22">
      <g>
       <use style="stroke:#000000;stroke-width:0.8;" x="57.6" xlink:href="#m2cb51c45c2" y="181.91905"/>
      </g>
     </g>
     <g id="text_8">
      <!-- 0.4 -->
      <g transform="translate(25.155 187.9978)scale(0.16 -0.16)">
       <use xlink:href="#DejaVuSans-48"/>
       <use x="63.623047" xlink:href="#DejaVuSans-46"/>
       <use x="95.410156" xlink:href="#DejaVuSans-52"/>
      </g>
     </g>
    </g>
    <g id="ytick_4">
     <g id="line2d_23">
      <path clip-path="url(#p42a2dccf69)" d="M 57.6 123.406574 
L 338.688 123.406574 
" style="fill:none;stroke:#b0b0b0;stroke-linecap:square;stroke-width:0.8;"/>
     </g>
     <g id="line2d_24">
      <g>
       <use style="stroke:#000000;stroke-width:0.8;" x="57.6" xlink:href="#m2cb51c45c2" y="123.406574"/>
      </g>
     </g>
     <g id="text_9">
      <!-- 0.6 -->
      <g transform="translate(25.155 129.485324)scale(0.16 -0.16)">
       <use xlink:href="#DejaVuSans-48"/>
       <use x="63.623047" xlink:href="#DejaVuSans-46"/>
       <use x="95.410156" xlink:href="#DejaVuSans-54"/>
      </g>
     </g>
    </g>
    <g id="ytick_5">
     <g id="line2d_25">
      <path clip-path="url(#p42a2dccf69)" d="M 57.6 64.894099 
L 338.688 64.894099 
" style="fill:none;stroke:#b0b0b0;stroke-linecap:square;stroke-width:0.8;"/>
     </g>
     <g id="line2d_26">
      <g>
       <use style="stroke:#000000;stroke-width:0.8;" x="57.6" xlink:href="#m2cb51c45c2" y="64.894099"/>
      </g>
     </g>
     <g id="text_10">
      <!-- 0.8 -->
      <g transform="translate(25.155 70.972849)scale(0.16 -0.16)">
       <defs>
        <path d="M 31.78125 34.625 
Q 24.75 34.625 20.71875 30.859375 
Q 16.703125 27.09375 16.703125 20.515625 
Q 16.703125 13.921875 20.71875 10.15625 
Q 24.75 6.390625 31.78125 6.390625 
Q 38.8125 6.390625 42.859375 10.171875 
Q 46.921875 13.96875 46.921875 20.515625 
Q 46.921875 27.09375 42.890625 30.859375 
Q 38.875 34.625 31.78125 34.625 
z
M 21.921875 38.8125 
Q 15.578125 40.375 12.03125 44.71875 
Q 8.5 49.078125 8.5 55.328125 
Q 8.5 64.0625 14.71875 69.140625 
Q 20.953125 74.21875 31.78125 74.21875 
Q 42.671875 74.21875 48.875 69.140625 
Q 55.078125 64.0625 55.078125 55.328125 
Q 55.078125 49.078125 51.53125 44.71875 
Q 48 40.375 41.703125 38.8125 
Q 48.828125 37.15625 52.796875 32.3125 
Q 56.78125 27.484375 56.78125 20.515625 
Q 56.78125 9.90625 50.3125 4.234375 
Q 43.84375 -1.421875 31.78125 -1.421875 
Q 19.734375 -1.421875 13.25 4.234375 
Q 6.78125 9.90625 6.78125 20.515625 
Q 6.78125 27.484375 10.78125 32.3125 
Q 14.796875 37.15625 21.921875 38.8125 
z
M 18.3125 54.390625 
Q 18.3125 48.734375 21.84375 45.5625 
Q 25.390625 42.390625 31.78125 42.390625 
Q 38.140625 42.390625 41.71875 45.5625 
Q 45.3125 48.734375 45.3125 54.390625 
Q 45.3125 60.0625 41.71875 63.234375 
Q 38.140625 66.40625 31.78125 66.40625 
Q 25.390625 66.40625 21.84375 63.234375 
Q 18.3125 60.0625 18.3125 54.390625 
z
" id="DejaVuSans-56"/>
       </defs>
       <use xlink:href="#DejaVuSans-48"/>
       <use x="63.623047" xlink:href="#DejaVuSans-46"/>
       <use x="95.410156" xlink:href="#DejaVuSans-56"/>
      </g>
     </g>
    </g>
    <g id="ytick_6">
     <g id="line2d_27">
      <path clip-path="url(#p42a2dccf69)" d="M 57.6 6.381624 
L 338.688 6.381624 
" style="fill:none;stroke:#b0b0b0;stroke-linecap:square;stroke-width:0.8;"/>
     </g>
     <g id="line2d_28">
      <g>
       <use style="stroke:#000000;stroke-width:0.8;" x="57.6" xlink:href="#m2cb51c45c2" y="6.381624"/>
      </g>
     </g>
     <g id="text_11">
      <!-- 1.0 -->
      <g transform="translate(25.155 12.460374)scale(0.16 -0.16)">
       <use xlink:href="#DejaVuSans-49"/>
       <use x="63.623047" xlink:href="#DejaVuSans-46"/>
       <use x="95.410156" xlink:href="#DejaVuSans-48"/>
      </g>
     </g>
    </g>
    <g id="text_12">
     <!-- Fraction of function,target pairs -->
     <g transform="translate(17.619531 285.585)rotate(-90)scale(0.17 -0.17)">
      <defs>
       <path d="M 9.8125 72.90625 
L 51.703125 72.90625 
L 51.703125 64.59375 
L 19.671875 64.59375 
L 19.671875 43.109375 
L 48.578125 43.109375 
L 48.578125 34.8125 
L 19.671875 34.8125 
L 19.671875 0 
L 9.8125 0 
z
" id="DejaVuSans-70"/>
       <path d="M 41.109375 46.296875 
Q 39.59375 47.171875 37.8125 47.578125 
Q 36.03125 48 33.890625 48 
Q 26.265625 48 22.1875 43.046875 
Q 18.109375 38.09375 18.109375 28.8125 
L 18.109375 0 
L 9.078125 0 
L 9.078125 54.6875 
L 18.109375 54.6875 
L 18.109375 46.1875 
Q 20.953125 51.171875 25.484375 53.578125 
Q 30.03125 56 36.53125 56 
Q 37.453125 56 38.578125 55.875 
Q 39.703125 55.765625 41.0625 55.515625 
z
" id="DejaVuSans-114"/>
       <path d="M 48.78125 52.59375 
L 48.78125 44.1875 
Q 44.96875 46.296875 41.140625 47.34375 
Q 37.3125 48.390625 33.40625 48.390625 
Q 24.65625 48.390625 19.8125 42.84375 
Q 14.984375 37.3125 14.984375 27.296875 
Q 14.984375 17.28125 19.8125 11.734375 
Q 24.65625 6.203125 33.40625 6.203125 
Q 37.3125 6.203125 41.140625 7.25 
Q 44.96875 8.296875 48.78125 10.40625 
L 48.78125 2.09375 
Q 45.015625 0.34375 40.984375 -0.53125 
Q 36.96875 -1.421875 32.421875 -1.421875 
Q 20.0625 -1.421875 12.78125 6.34375 
Q 5.515625 14.109375 5.515625 27.296875 
Q 5.515625 40.671875 12.859375 48.328125 
Q 20.21875 56 33.015625 56 
Q 37.15625 56 41.109375 55.140625 
Q 45.0625 54.296875 48.78125 52.59375 
z
" id="DejaVuSans-99"/>
       <path d="M 18.3125 70.21875 
L 18.3125 54.6875 
L 36.8125 54.6875 
L 36.8125 47.703125 
L 18.3125 47.703125 
L 18.3125 18.015625 
Q 18.3125 11.328125 20.140625 9.421875 
Q 21.96875 7.515625 27.59375 7.515625 
L 36.8125 7.515625 
L 36.8125 0 
L 27.59375 0 
Q 17.1875 0 13.234375 3.875 
Q 9.28125 7.765625 9.28125 18.015625 
L 9.28125 47.703125 
L 2.6875 47.703125 
L 2.6875 54.6875 
L 9.28125 54.6875 
L 9.28125 70.21875 
z
" id="DejaVuSans-116"/>
       <path d="M 8.5 21.578125 
L 8.5 54.6875 
L 17.484375 54.6875 
L 17.484375 21.921875 
Q 17.484375 14.15625 20.5 10.265625 
Q 23.53125 6.390625 29.59375 6.390625 
Q 36.859375 6.390625 41.078125 11.03125 
Q 45.3125 15.671875 45.3125 23.6875 
L 45.3125 54.6875 
L 54.296875 54.6875 
L 54.296875 0 
L 45.3125 0 
L 45.3125 8.40625 
Q 42.046875 3.421875 37.71875 1 
Q 33.40625 -1.421875 27.6875 -1.421875 
Q 18.265625 -1.421875 13.375 4.4375 
Q 8.5 10.296875 8.5 21.578125 
z
M 31.109375 56 
z
" id="DejaVuSans-117"/>
       <path d="M 11.71875 12.40625 
L 22.015625 12.40625 
L 22.015625 4 
L 14.015625 -11.625 
L 7.71875 -11.625 
L 11.71875 4 
z
" id="DejaVuSans-44"/>
       <path d="M 18.109375 8.203125 
L 18.109375 -20.796875 
L 9.078125 -20.796875 
L 9.078125 54.6875 
L 18.109375 54.6875 
L 18.109375 46.390625 
Q 20.953125 51.265625 25.265625 53.625 
Q 29.59375 56 35.59375 56 
Q 45.5625 56 51.78125 48.09375 
Q 58.015625 40.1875 58.015625 27.296875 
Q 58.015625 14.40625 51.78125 6.484375 
Q 45.5625 -1.421875 35.59375 -1.421875 
Q 29.59375 -1.421875 25.265625 0.953125 
Q 20.953125 3.328125 18.109375 8.203125 
z
M 48.6875 27.296875 
Q 48.6875 37.203125 44.609375 42.84375 
Q 40.53125 48.484375 33.40625 48.484375 
Q 26.265625 48.484375 22.1875 42.84375 
Q 18.109375 37.203125 18.109375 27.296875 
Q 18.109375 17.390625 22.1875 11.75 
Q 26.265625 6.109375 33.40625 6.109375 
Q 40.53125 6.109375 44.609375 11.75 
Q 48.6875 17.390625 48.6875 27.296875 
z
" id="DejaVuSans-112"/>
      </defs>
      <use xlink:href="#DejaVuSans-70"/>
      <use x="50.269531" xlink:href="#DejaVuSans-114"/>
      <use x="91.382812" xlink:href="#DejaVuSans-97"/>
      <use x="152.662109" xlink:href="#DejaVuSans-99"/>
      <use x="207.642578" xlink:href="#DejaVuSans-116"/>
      <use x="246.851562" xlink:href="#DejaVuSans-105"/>
      <use x="274.634766" xlink:href="#DejaVuSans-111"/>
      <use x="335.816406" xlink:href="#DejaVuSans-110"/>
      <use x="399.195312" xlink:href="#DejaVuSans-32"/>
      <use x="430.982422" xlink:href="#DejaVuSans-111"/>
      <use x="492.164062" xlink:href="#DejaVuSans-102"/>
      <use x="527.369141" xlink:href="#DejaVuSans-32"/>
      <use x="559.15625" xlink:href="#DejaVuSans-102"/>
      <use x="594.361328" xlink:href="#DejaVuSans-117"/>
      <use x="657.740234" xlink:href="#DejaVuSans-110"/>
      <use x="721.119141" xlink:href="#DejaVuSans-99"/>
      <use x="776.099609" xlink:href="#DejaVuSans-116"/>
      <use x="815.308594" xlink:href="#DejaVuSans-105"/>
      <use x="843.091797" xlink:href="#DejaVuSans-111"/>
      <use x="904.273438" xlink:href="#DejaVuSans-110"/>
      <use x="967.652344" xlink:href="#DejaVuSans-44"/>
      <use x="999.439453" xlink:href="#DejaVuSans-116"/>
      <use x="1038.648438" xlink:href="#DejaVuSans-97"/>
      <use x="1099.927734" xlink:href="#DejaVuSans-114"/>
      <use x="1139.291016" xlink:href="#DejaVuSans-103"/>
      <use x="1202.767578" xlink:href="#DejaVuSans-101"/>
      <use x="1264.291016" xlink:href="#DejaVuSans-116"/>
      <use x="1303.5" xlink:href="#DejaVuSans-32"/>
      <use x="1335.287109" xlink:href="#DejaVuSans-112"/>
      <use x="1398.763672" xlink:href="#DejaVuSans-97"/>
      <use x="1460.042969" xlink:href="#DejaVuSans-105"/>
      <use x="1487.826172" xlink:href="#DejaVuSans-114"/>
      <use x="1528.939453" xlink:href="#DejaVuSans-115"/>
     </g>
    </g>
   </g>
   <g id="line2d_29">
    <defs>
     <path d="M 0 1.5 
C 0.397805 1.5 0.77937 1.341951 1.06066 1.06066 
C 1.341951 0.77937 1.5 0.397805 1.5 0 
C 1.5 -0.397805 1.341951 -0.77937 1.06066 -1.06066 
C 0.77937 -1.341951 0.397805 -1.5 0 -1.5 
C -0.397805 -1.5 -0.77937 -1.341951 -1.06066 -1.06066 
C -1.341951 -0.77937 -1.5 -0.397805 -1.5 0 
C -1.5 0.397805 -1.341951 0.77937 -1.06066 1.06066 
C -0.77937 1.341951 -0.397805 1.5 0 1.5 
z
" id="m0e1983d169" style="stroke:#000080;"/>
    </defs>
    <g>
     <use style="fill:#000080;stroke:#000080;" x="247.273705" xlink:href="#m0e1983d169" y="6.381624"/>
     <use style="fill:#000080;stroke:#000080;" x="247.273705" xlink:href="#m0e1983d169" y="6.381624"/>
    </g>
   </g>
   <g id="line2d_30">
    <path d="M 94.294587 298.944 
L 94.294587 298.370348 
L 95.125186 298.370348 
L 95.125186 297.223045 
L 97.403108 297.223045 
L 97.403108 296.649393 
L 98.100772 296.649393 
L 98.100772 296.075741 
L 98.43941 296.075741 
L 98.43941 294.354786 
L 106.802819 294.354786 
L 106.802819 293.207483 
L 107.414787 293.207483 
L 107.414787 292.633831 
L 109.131511 292.633831 
L 109.131511 292.060179 
L 109.491096 292.060179 
L 109.491096 290.912876 
L 111.974805 290.912876 
L 111.974805 290.339224 
L 117.930605 290.339224 
L 117.930605 289.765573 
L 118.681952 289.765573 
L 118.681952 288.044617 
L 119.602714 288.044617 
L 119.602714 287.470966 
L 119.80089 287.470966 
L 119.80089 286.323662 
L 121.036887 286.323662 
L 121.036887 285.75001 
L 122.191052 285.75001 
L 122.191052 285.176359 
L 122.44689 285.176359 
L 122.531342 281.734448 
L 122.865118 281.734448 
L 122.865118 279.439842 
L 123.514096 279.439842 
L 123.593547 278.292538 
L 124.444412 278.292538 
L 124.444412 277.718886 
L 125.110962 277.718886 
L 125.110962 277.145235 
L 125.752972 277.145235 
L 125.822869 275.997931 
L 126.168212 275.997931 
L 126.236468 274.276976 
L 127.035353 274.276976 
L 127.035353 273.703324 
L 127.611382 273.703324 
L 127.611382 272.556021 
L 128.411207 272.556021 
L 128.411207 271.982369 
L 128.650105 271.982369 
L 128.650105 271.408718 
L 129.404667 271.408718 
L 129.404667 270.835066 
L 130.45189 270.835066 
L 130.45189 270.261414 
L 131.640805 270.261414 
L 131.640805 269.687762 
L 131.790072 269.687762 
L 131.790072 269.114111 
L 132.036046 269.114111 
L 132.036046 268.540459 
L 132.753813 268.540459 
L 132.847322 267.393156 
L 133.352844 267.393156 
L 133.443203 266.245852 
L 134.703375 266.245852 
L 134.703375 265.6722 
L 134.828688 265.6722 
L 134.828688 265.098549 
L 135.117629 265.098549 
L 135.117629 263.951245 
L 135.321124 263.951245 
L 135.321124 262.803942 
L 135.44209 262.803942 
L 135.44209 262.23029 
L 135.995765 262.23029 
L 135.995765 261.656638 
L 136.418789 261.656638 
L 136.418789 261.082987 
L 137.053015 261.082987 
L 137.126135 259.935683 
L 137.271464 259.935683 
L 137.271464 259.362031 
L 139.413734 259.362031 
L 139.413734 258.78838 
L 139.730821 258.78838 
L 139.730821 258.214728 
L 140.011351 258.214728 
L 140.011351 257.641076 
L 140.256979 257.641076 
L 140.256979 257.067425 
L 140.559227 257.067425 
L 140.559227 256.493773 
L 141.032186 256.493773 
L 141.032186 255.920121 
L 141.71841 255.920121 
L 141.71841 255.346469 
L 142.161336 255.346469 
L 142.161336 254.772818 
L 143.60342 254.772818 
L 143.60342 254.199166 
L 145.235796 254.199166 
L 145.235796 253.625514 
L 146.041862 253.625514 
L 146.041862 253.051863 
L 147.02042 253.051863 
L 147.02042 252.478211 
L 147.570215 252.478211 
L 147.570215 251.904559 
L 148.103206 251.904559 
L 148.103206 251.330907 
L 148.392421 251.330907 
L 148.392421 250.757256 
L 148.525764 250.757256 
L 148.601505 249.609952 
L 148.733265 249.609952 
L 148.733265 248.462649 
L 149.449671 248.462649 
L 149.449671 247.888997 
L 149.575199 247.888997 
L 149.575199 247.315345 
L 150.155097 247.315345 
L 150.155097 246.741694 
L 150.716332 246.741694 
L 150.716332 246.168042 
L 151.373256 246.168042 
L 151.421542 245.020738 
L 151.881541 245.020738 
L 151.881541 244.447087 
L 152.526944 244.447087 
L 152.617226 242.726132 
L 153.580644 242.726132 
L 153.580644 241.578828 
L 154.221969 241.578828 
L 154.221969 241.005176 
L 154.453136 241.005176 
L 154.453136 240.431525 
L 155.167744 240.431525 
L 155.167744 239.857873 
L 155.437927 239.857873 
L 155.437927 239.284221 
L 156.101764 239.284221 
L 156.101764 238.71057 
L 156.370066 238.71057 
L 156.370066 238.136918 
L 156.574599 238.136918 
L 156.574599 237.563266 
L 156.729404 237.563266 
L 156.729404 236.989614 
L 156.871092 236.989614 
L 156.871092 236.415963 
L 157.162628 236.415963 
L 157.162628 235.842311 
L 158.238915 235.842311 
L 158.238915 235.268659 
L 158.412011 235.268659 
L 158.508628 234.121356 
L 158.858379 234.121356 
L 158.858379 233.547704 
L 159.066985 233.547704 
L 159.066985 232.974052 
L 159.252621 232.974052 
L 159.314063 231.826749 
L 159.446449 231.826749 
L 159.446449 231.253097 
L 159.658204 231.253097 
L 159.658204 230.679446 
L 160.613753 230.679446 
L 160.613753 230.105794 
L 161.06334 230.105794 
L 161.06334 229.532142 
L 162.104265 229.532142 
L 162.104265 228.95849 
L 162.243086 228.95849 
L 162.243086 228.384839 
L 163.412824 228.384839 
L 163.412824 227.811187 
L 164.195057 227.811187 
L 164.195057 227.237535 
L 164.325919 227.237535 
L 164.325919 226.663884 
L 164.891812 226.663884 
L 164.951104 225.51658 
L 168.171308 225.51658 
L 168.171308 224.942928 
L 169.07628 224.942928 
L 169.07628 224.369277 
L 169.858596 224.369277 
L 169.858596 223.795625 
L 170.174022 223.795625 
L 170.174022 223.221973 
L 170.37576 223.221973 
L 170.37576 222.648321 
L 170.510761 222.648321 
L 170.510761 222.07467 
L 170.846398 222.07467 
L 170.935871 220.353715 
L 171.2274 220.353715 
L 171.335479 219.206411 
L 171.396939 219.206411 
L 171.437793 218.059108 
L 171.554716 218.059108 
L 171.655755 214.617197 
L 171.776234 214.617197 
L 171.856094 211.748939 
L 172.044307 211.748939 
L 172.137657 209.454332 
L 172.201242 209.454332 
L 172.254864 208.307029 
L 172.322872 208.307029 
L 172.32772 207.159725 
L 172.458099 207.159725 
L 172.563617 205.43877 
L 172.58751 205.43877 
L 172.597058 203.717815 
L 172.758578 203.717815 
L 172.758578 203.144163 
L 172.942027 203.144163 
L 173.016733 201.423208 
L 173.946625 201.423208 
L 174.030352 200.275904 
L 174.391462 200.275904 
L 174.494501 197.407646 
L 174.545793 197.407646 
L 174.545793 196.833994 
L 174.694539 196.833994 
L 174.787391 195.686691 
L 174.883938 195.686691 
L 174.883938 195.113039 
L 175.133313 195.113039 
L 175.133313 193.965736 
L 175.293514 193.965736 
L 175.293514 193.392084 
L 175.436043 193.392084 
L 175.464409 192.24478 
L 175.813167 192.24478 
L 175.813167 191.671129 
L 175.971204 191.671129 
L 175.998714 190.523825 
L 176.155086 190.523825 
L 176.232749 188.80287 
L 176.302352 188.80287 
L 176.379363 187.655567 
L 176.581815 187.655567 
L 176.672724 186.508263 
L 176.733067 186.508263 
L 176.733067 185.934612 
L 176.920306 185.934612 
L 177.024289 184.787308 
L 177.270615 184.787308 
L 177.368906 183.066353 
L 177.408792 183.066353 
L 177.408792 181.91905 
L 177.660498 181.91905 
L 177.660498 181.345398 
L 177.823948 181.345398 
L 177.827484 180.198094 
L 177.982376 180.198094 
L 178.090684 177.329836 
L 178.097648 177.329836 
L 178.181007 175.608881 
L 178.239812 175.608881 
L 178.239812 175.035229 
L 178.466255 175.035229 
L 178.466255 174.461577 
L 178.6156 174.461577 
L 178.6156 173.887925 
L 178.750267 173.887925 
L 178.750267 173.314274 
L 179.236422 173.314274 
L 179.236422 172.740622 
L 180.549068 172.740622 
L 180.549068 172.16697 
L 180.890556 172.16697 
L 180.890556 171.593319 
L 181.064699 171.593319 
L 181.064699 171.019667 
L 182.171288 171.019667 
L 182.18231 169.872363 
L 182.439337 169.872363 
L 182.539478 168.151408 
L 182.684605 168.151408 
L 182.727374 166.430453 
L 182.915909 166.430453 
L 182.915909 165.856801 
L 185.022995 165.856801 
L 185.022995 165.28315 
L 185.32694 165.28315 
L 185.32694 164.709498 
L 186.238816 164.709498 
L 186.238816 164.135846 
L 186.38879 164.135846 
L 186.38879 163.562195 
L 186.778295 163.562195 
L 186.795218 162.414891 
L 187.030434 162.414891 
L 187.136499 161.267588 
L 187.17378 161.267588 
L 187.250164 160.120284 
L 187.643264 160.120284 
L 187.643264 159.546632 
L 187.976401 159.546632 
L 187.976401 158.972981 
L 188.092591 158.972981 
L 188.092591 158.399329 
L 188.6451 158.399329 
L 188.753154 156.678374 
L 188.856786 156.678374 
L 188.856786 156.104722 
L 189.162191 156.104722 
L 189.226682 154.383767 
L 189.632075 154.383767 
L 189.705594 153.236464 
L 189.933143 153.236464 
L 189.933143 152.662812 
L 190.145552 152.662812 
L 190.145552 152.08916 
L 190.771052 152.08916 
L 190.771052 151.515508 
L 190.886816 151.515508 
L 190.886816 150.941857 
L 191.568932 150.941857 
L 191.568932 150.368205 
L 191.819586 150.368205 
L 191.819586 149.794553 
L 192.192817 149.794553 
L 192.192817 149.220902 
L 192.344209 149.220902 
L 192.417883 146.926295 
L 192.600718 146.926295 
L 192.665771 145.778991 
L 192.75764 145.778991 
L 192.857991 142.910733 
L 192.954797 142.910733 
L 192.954797 142.337081 
L 193.126236 142.337081 
L 193.126236 141.763429 
L 193.400554 141.763429 
L 193.488642 140.042474 
L 193.533238 140.042474 
L 193.586317 138.895171 
L 193.660643 138.895171 
L 193.730391 137.747867 
L 194.964235 137.747867 
L 194.964235 137.174215 
L 195.119721 137.174215 
L 195.119721 136.600564 
L 195.355558 136.600564 
L 195.433037 135.45326 
L 195.48193 135.45326 
L 195.562688 134.305957 
L 195.6736 134.305957 
L 195.6736 133.732305 
L 195.787599 133.732305 
L 195.883288 132.585002 
L 196.147468 132.585002 
L 196.230134 131.437698 
L 196.316084 131.437698 
L 196.316084 130.864047 
L 196.555724 130.864047 
L 196.643695 126.848485 
L 196.678519 126.848485 
L 196.777807 125.127529 
L 196.824265 125.127529 
L 196.887204 123.980226 
L 196.935737 123.980226 
L 197.012403 121.685619 
L 197.053546 121.685619 
L 197.15423 120.538316 
L 197.217154 120.538316 
L 197.275215 119.391012 
L 197.335395 119.391012 
L 197.335395 118.817361 
L 197.51927 118.817361 
L 197.601386 115.949102 
L 197.702358 115.949102 
L 197.8005 113.654495 
L 197.816242 113.654495 
L 197.896974 112.507192 
L 197.980675 112.507192 
L 198.081695 110.786236 
L 198.159007 110.786236 
L 198.2261 108.49163 
L 198.335534 108.49163 
L 198.442116 105.623371 
L 198.449705 105.623371 
L 198.546974 104.476068 
L 198.755881 104.476068 
L 198.755881 103.902416 
L 199.026394 103.902416 
L 199.026394 103.328764 
L 199.278312 103.328764 
L 199.278312 102.755112 
L 199.433677 102.755112 
L 199.433677 102.181461 
L 199.858676 102.181461 
L 199.960345 99.886854 
L 200.000055 99.886854 
L 200.069329 98.73955 
L 201.143709 98.73955 
L 201.143709 98.165899 
L 201.543976 98.165899 
L 201.596536 97.018595 
L 202.202106 97.018595 
L 202.202106 96.444944 
L 202.880069 96.444944 
L 202.880069 95.871292 
L 203.022397 95.871292 
L 203.103091 94.150337 
L 203.24691 94.150337 
L 203.24691 93.576685 
L 203.645661 93.576685 
L 203.645661 93.003033 
L 203.787487 93.003033 
L 203.86234 91.282078 
L 203.928168 91.282078 
L 203.978758 90.134775 
L 204.053583 90.134775 
L 204.14686 88.987471 
L 204.317229 88.987471 
L 204.317229 88.413819 
L 206.546644 88.413819 
L 206.546644 87.840168 
L 206.771364 87.840168 
L 206.771364 87.266516 
L 206.970634 87.266516 
L 207.048253 86.119213 
L 207.178168 86.119213 
L 207.218856 84.971909 
L 207.700483 84.971909 
L 207.700483 84.398257 
L 207.977554 84.398257 
L 207.977554 83.824606 
L 208.329812 83.824606 
L 208.389368 81.529999 
L 208.512135 81.529999 
L 208.513353 80.382695 
L 208.667858 80.382695 
L 208.70281 79.235392 
L 208.981711 79.235392 
L 209.089208 76.367133 
L 209.183752 76.367133 
L 209.205992 74.646178 
L 209.31212 74.646178 
L 209.333036 72.925223 
L 210.842272 72.925223 
L 210.842272 72.351571 
L 211.437467 72.351571 
L 211.437467 71.77792 
L 211.641102 71.77792 
L 211.735459 70.630616 
L 211.795561 70.630616 
L 211.795561 70.056964 
L 212.214508 70.056964 
L 212.214508 69.483313 
L 212.411752 69.483313 
L 212.418078 68.336009 
L 212.679311 68.336009 
L 212.679311 67.762358 
L 212.801575 67.762358 
L 212.801575 67.188706 
L 213.053416 67.188706 
L 213.053416 66.615054 
L 213.861876 66.615054 
L 213.964134 65.467751 
L 214.054725 65.467751 
L 214.141764 60.304885 
L 214.464885 60.304885 
L 214.548613 57.436627 
L 214.686704 57.436627 
L 214.79699 53.994716 
L 214.986962 53.994716 
L 215.028061 52.273761 
L 215.129137 52.273761 
L 215.129137 51.700109 
L 215.338603 51.700109 
L 215.396526 49.979154 
L 216.100655 49.979154 
L 216.100655 49.405503 
L 216.366855 49.405503 
L 216.366855 48.831851 
L 216.735724 48.831851 
L 216.735724 47.684547 
L 217.112943 47.684547 
L 217.2119 45.389941 
L 217.606907 45.389941 
L 217.606907 44.242637 
L 218.00694 44.242637 
L 218.00694 43.095334 
L 218.412154 43.095334 
L 218.412154 42.521682 
L 219.81364 42.521682 
L 219.915534 41.374379 
L 221.327872 41.374379 
L 221.327872 40.800727 
L 221.645734 40.800727 
L 221.645734 40.227075 
L 221.800104 40.227075 
L 221.800104 39.079772 
L 221.986598 39.079772 
L 221.986598 38.50612 
L 222.160826 38.50612 
L 222.160826 37.932468 
L 222.400156 37.932468 
L 222.510692 35.637861 
L 222.530046 35.637861 
L 222.55482 33.916906 
L 222.65005 33.916906 
L 222.695446 32.769603 
L 222.8804 32.769603 
L 222.959525 27.606737 
L 223.060241 27.606737 
L 223.119603 25.885782 
L 223.188473 25.885782 
L 223.188473 25.31213 
L 223.478301 25.31213 
L 223.478301 24.738479 
L 224.582039 24.738479 
L 224.588577 23.591175 
L 226.318113 23.591175 
L 226.318113 23.017524 
L 228.223665 23.017524 
L 228.223665 22.443872 
L 228.355835 22.443872 
L 228.458528 21.296568 
L 228.586627 21.296568 
L 228.662884 19.575613 
L 229.764487 19.575613 
L 229.83434 18.42831 
L 230.202471 18.42831 
L 230.202471 17.854658 
L 232.524076 17.854658 
L 232.524076 17.281006 
L 232.673194 17.281006 
L 232.673194 16.707355 
L 232.82588 16.707355 
L 232.83931 15.560051 
L 232.95103 15.560051 
L 232.978736 14.412748 
L 233.797091 14.412748 
L 233.797091 13.265444 
L 236.10764 13.265444 
L 236.109641 12.118141 
L 236.240702 12.118141 
L 236.240702 11.544489 
L 238.901616 11.544489 
L 238.985378 10.397186 
L 239.089307 10.397186 
L 239.089307 9.823534 
L 239.762682 9.823534 
L 239.762682 9.249882 
L 241.564653 9.249882 
L 241.564653 8.676231 
L 242.023291 8.676231 
L 242.023291 8.102579 
L 243.963412 8.102579 
L 243.963412 7.528927 
L 245.537383 7.528927 
L 245.537383 6.955275 
L 247.273705 6.955275 
L 247.273705 6.381624 
L 338.688 6.381624 
L 338.688 6.381624 
" style="fill:none;stroke:#000080;stroke-linecap:square;stroke-width:1.5;"/>
   </g>
   <g id="line2d_31">
    <defs>
     <path d="M 0 6 
C 1.591219 6 3.117479 5.367802 4.242641 4.242641 
C 5.367802 3.117479 6 1.591219 6 0 
C 6 -1.591219 5.367802 -3.117479 4.242641 -4.242641 
C 3.117479 -5.367802 1.591219 -6 0 -6 
C -1.591219 -6 -3.117479 -5.367802 -4.242641 -4.242641 
C -5.367802 -3.117479 -6 -1.591219 -6 0 
C -6 1.591219 -5.367802 3.117479 -4.242641 4.242641 
C -3.117479 5.367802 -1.591219 6 0 6 
z
" id="m098d897022" style="stroke:#000080;stroke-width:1.5;"/>
    </defs>
    <g>
     <use style="fill-opacity:0;stroke:#000080;stroke-width:1.5;" x="147.570215" xlink:href="#m098d897022" y="251.904559"/>
     <use style="fill-opacity:0;stroke:#000080;stroke-width:1.5;" x="195.433037" xlink:href="#m098d897022" y="135.45326"/>
     <use style="fill-opacity:0;stroke:#000080;stroke-width:1.5;" x="245.537383" xlink:href="#m098d897022" y="6.955275"/>
     <use style="fill-opacity:0;stroke:#000080;stroke-width:1.5;" x="247.273705" xlink:href="#m098d897022" y="6.381624"/>
     <use style="fill-opacity:0;stroke:#000080;stroke-width:1.5;" x="338.688" xlink:href="#m098d897022" y="6.381624"/>
    </g>
   </g>
   <g id="line2d_32">
    <path style="fill:none;stroke:#000080;stroke-linecap:square;stroke-width:1.5;"/>
    <g/>
   </g>
   <g id="line2d_33">
    <path clip-path="url(#p42a2dccf69)" d="M 206.134423 88.413819 
" style="fill:none;stroke:#000080;stroke-linecap:square;stroke-width:1.5;"/>
    <defs>
     <path d="M -12 12 
L 12 -12 
M -12 -12 
L 12 12 
" id="mea095e3073" style="stroke:#000080;"/>
    </defs>
    <g clip-path="url(#p42a2dccf69)">
     <use style="fill:#000080;stroke:#000080;" x="206.134423" xlink:href="#mea095e3073" y="88.413819"/>
    </g>
   </g>
   <g id="line2d_34">
    <defs>
     <path d="M 0 1.5 
C 0.397805 1.5 0.77937 1.341951 1.06066 1.06066 
C 1.341951 0.77937 1.5 0.397805 1.5 0 
C 1.5 -0.397805 1.341951 -0.77937 1.06066 -1.06066 
C 0.77937 -1.341951 0.397805 -1.5 0 -1.5 
C -0.397805 -1.5 -0.77937 -1.341951 -1.06066 -1.06066 
C -1.341951 -0.77937 -1.5 -0.397805 -1.5 0 
C -1.5 0.397805 -1.341951 0.77937 -1.06066 1.06066 
C -0.77937 1.341951 -0.397805 1.5 0 1.5 
z
" id="m3a4499e61a" style="stroke:#ff00ff;"/>
    </defs>
    <g>
     <use style="fill:#ff00ff;stroke:#ff00ff;" x="275.703247" xlink:href="#m3a4499e61a" y="201.423208"/>
     <use style="fill:#ff00ff;stroke:#ff00ff;" x="275.703247" xlink:href="#m3a4499e61a" y="201.423208"/>
    </g>
   </g>
   <g id="line2d_35">
    <path d="M 29.53256 298.944 
L 29.53256 291.486528 
L 41.620548 291.486528 
L 41.620548 290.912876 
L 48.691568 290.912876 
L 48.691568 290.339224 
L 53.708537 290.339224 
L 53.708537 289.765573 
L 57.6 289.765573 
L 57.6 288.618269 
L 69.687988 288.618269 
L 69.687988 287.470966 
L 71.35013 287.470966 
L 71.35013 286.897314 
L 79.938565 286.897314 
L 79.938565 286.323662 
L 82.626842 286.323662 
L 82.626842 285.176359 
L 85.66744 285.176359 
L 85.66744 284.029055 
L 88.846997 284.029055 
L 88.846997 283.455404 
L 90.509138 283.455404 
L 90.509138 282.881752 
L 92.504372 282.881752 
L 92.504372 282.3081 
L 94.294587 282.3081 
L 94.294587 281.160797 
L 94.714831 281.160797 
L 94.714831 280.587145 
L 95.125186 280.587145 
L 95.125186 280.013493 
L 97.403108 280.013493 
L 97.403108 279.439842 
L 98.100772 279.439842 
L 98.100772 277.718886 
L 99.731799 277.718886 
L 99.731799 277.145235 
L 100.040467 277.145235 
L 100.040467 275.42428 
L 100.641881 275.42428 
L 100.641881 274.850628 
L 102.597126 274.850628 
L 102.597126 273.703324 
L 103.117741 273.703324 
L 103.117741 272.556021 
L 103.870632 272.556021 
L 103.870632 271.982369 
L 108.948899 271.982369 
L 108.948899 270.835066 
L 109.131511 270.835066 
L 109.131511 270.261414 
L 109.491096 270.261414 
L 109.491096 269.687762 
L 109.843417 269.687762 
L 109.843417 269.114111 
L 115.460322 269.114111 
L 115.460322 268.540459 
L 115.958621 268.540459 
L 115.958621 267.966807 
L 117.030313 267.966807 
L 117.030313 267.393156 
L 117.930605 267.393156 
L 117.930605 265.6722 
L 118.576578 265.6722 
L 118.681952 263.377593 
L 118.994305 263.377593 
L 119.097192 261.656638 
L 119.40226 261.656638 
L 119.40226 261.082987 
L 120.286695 261.082987 
L 120.286695 260.509335 
L 123.434283 260.509335 
L 123.434283 259.935683 
L 124.519744 259.935683 
L 124.519744 259.362031 
L 124.891598 259.362031 
L 124.891598 258.78838 
L 125.038147 258.78838 
L 125.038147 258.214728 
L 125.822869 258.214728 
L 125.822869 257.641076 
L 126.099688 257.641076 
L 126.099688 257.067425 
L 127.035353 257.067425 
L 127.035353 256.493773 
L 128.168991 256.493773 
L 128.168991 255.920121 
L 131.030622 255.920121 
L 131.133813 254.199166 
L 134.61933 254.199166 
L 134.61933 253.625514 
L 135.956794 253.625514 
L 135.956794 253.051863 
L 206.135121 253.051863 
L 206.224869 250.183604 
L 206.249833 250.183604 
L 206.317609 247.315345 
L 206.36173 247.315345 
L 206.443471 245.59439 
L 218.246112 245.59439 
L 218.340246 240.431525 
L 218.366209 240.431525 
L 218.366209 238.136918 
L 225.331987 238.136918 
L 225.397057 234.695008 
L 230.322255 234.695008 
L 230.36907 229.532142 
L 234.225007 229.532142 
L 234.259525 226.090232 
L 237.415683 226.090232 
L 237.420555 223.795625 
L 240.075376 223.795625 
L 240.114184 220.353715 
L 242.412857 220.353715 
L 242.419215 219.206411 
L 246.301427 219.206411 
L 246.308257 216.911804 
L 247.966762 216.911804 
L 247.968726 214.617197 
L 249.483296 214.617197 
L 249.484167 213.469894 
L 250.878115 213.469894 
L 250.878115 212.896242 
L 252.170337 212.896242 
L 252.172378 210.601635 
L 253.373144 210.601635 
L 253.373144 210.027984 
L 255.553431 210.027984 
L 255.554456 208.88068 
L 256.557742 208.88068 
L 256.557742 208.307029 
L 257.493012 208.307029 
L 257.493012 207.733377 
L 258.386174 207.733377 
L 258.386174 207.159725 
L 260.049332 207.159725 
L 260.049332 206.586073 
L 263.617622 206.586073 
L 263.617622 206.012422 
L 265.454765 206.012422 
L 265.454765 205.43877 
L 266.580795 205.43877 
L 266.580795 204.865118 
L 267.11637 204.865118 
L 267.11637 204.291467 
L 268.1419 204.291467 
L 268.1419 203.717815 
L 270.028579 203.717815 
L 270.028579 203.144163 
L 270.900941 203.144163 
L 270.900941 202.570511 
L 272.523585 202.570511 
L 272.523585 201.99686 
L 275.703247 201.99686 
L 275.703247 201.423208 
L 338.688 201.423208 
L 338.688 201.423208 
" style="fill:none;stroke:#ff00ff;stroke-linecap:square;stroke-width:1.5;"/>
   </g>
   <g id="line2d_36">
    <defs>
     <path d="M -0 8.485281 
L 5.091169 0 
L 0 -8.485281 
L -5.091169 -0 
z
" id="m7697947a24" style="stroke:#ff00ff;stroke-linejoin:miter;stroke-width:1.5;"/>
    </defs>
    <g>
     <use style="fill-opacity:0;stroke:#ff00ff;stroke-linejoin:miter;stroke-width:1.5;" x="115.958621" xlink:href="#m7697947a24" y="268.540459"/>
     <use style="fill-opacity:0;stroke:#ff00ff;stroke-linejoin:miter;stroke-width:1.5;" x="135.956794" xlink:href="#m7697947a24" y="253.051863"/>
     <use style="fill-opacity:0;stroke:#ff00ff;stroke-linejoin:miter;stroke-width:1.5;" x="255.554456" xlink:href="#m7697947a24" y="208.88068"/>
     <use style="fill-opacity:0;stroke:#ff00ff;stroke-linejoin:miter;stroke-width:1.5;" x="275.703247" xlink:href="#m7697947a24" y="201.423208"/>
     <use style="fill-opacity:0;stroke:#ff00ff;stroke-linejoin:miter;stroke-width:1.5;" x="275.703247" xlink:href="#m7697947a24" y="201.423208"/>
     <use style="fill-opacity:0;stroke:#ff00ff;stroke-linejoin:miter;stroke-width:1.5;" x="338.688" xlink:href="#m7697947a24" y="201.423208"/>
    </g>
   </g>
   <g id="line2d_37">
    <path style="fill:none;stroke:#ff00ff;stroke-linecap:square;stroke-width:1.5;"/>
    <g/>
   </g>
   <g id="line2d_38">
    <path clip-path="url(#p42a2dccf69)" d="M 206.134423 253.051863 
" style="fill:none;stroke:#ff00ff;stroke-linecap:square;stroke-width:1.5;"/>
    <defs>
     <path d="M -12 12 
L 12 -12 
M -12 -12 
L 12 12 
" id="md5c5d747f7" style="stroke:#ff00ff;"/>
    </defs>
    <g clip-path="url(#p42a2dccf69)">
     <use style="fill:#ff00ff;stroke:#ff00ff;" x="206.134423" xlink:href="#md5c5d747f7" y="253.051863"/>
    </g>
   </g>
   <g id="line2d_39">
    <defs>
     <path d="M 0 1.5 
C 0.397805 1.5 0.77937 1.341951 1.06066 1.06066 
C 1.341951 0.77937 1.5 0.397805 1.5 0 
C 1.5 -0.397805 1.341951 -0.77937 1.06066 -1.06066 
C 0.77937 -1.341951 0.397805 -1.5 0 -1.5 
C -0.397805 -1.5 -0.77937 -1.341951 -1.06066 -1.06066 
C -1.341951 -0.77937 -1.5 -0.397805 -1.5 0 
C -1.5 0.397805 -1.341951 0.77937 -1.06066 1.06066 
C -0.77937 1.341951 -0.397805 1.5 0 1.5 
z
" id="m129f655e0b" style="stroke:#ff7500;"/>
    </defs>
    <g>
     <use style="fill:#ff7500;stroke:#ff7500;" x="219.634121" xlink:href="#m129f655e0b" y="6.381624"/>
     <use style="fill:#ff7500;stroke:#ff7500;" x="219.634121" xlink:href="#m129f655e0b" y="6.381624"/>
    </g>
   </g>
   <g id="line2d_40">
    <path d="M 106.382575 298.944 
L 106.382575 297.796697 
L 108.198707 297.796697 
L 108.198707 297.223045 
L 109.668146 297.223045 
L 109.668146 296.649393 
L 109.843417 296.649393 
L 109.843417 296.075741 
L 110.188761 296.075741 
L 110.188761 295.50209 
L 114.418861 295.50209 
L 114.418861 294.354786 
L 114.552496 294.354786 
L 114.552496 293.207483 
L 117.930605 293.207483 
L 117.930605 291.486528 
L 118.256582 291.486528 
L 118.256582 290.912876 
L 118.681952 290.912876 
L 118.681952 290.339224 
L 118.890808 290.339224 
L 118.994305 289.191921 
L 120.665825 289.191921 
L 120.665825 288.618269 
L 120.852343 288.618269 
L 120.944859 286.897314 
L 121.84399 286.897314 
L 121.84399 286.323662 
L 122.782271 286.323662 
L 122.865118 285.176359 
L 123.273551 285.176359 
L 123.273551 284.602707 
L 124.368753 284.602707 
L 124.368753 284.029055 
L 125.038147 284.029055 
L 125.038147 283.455404 
L 125.255688 283.455404 
L 125.255688 282.881752 
L 127.100304 282.881752 
L 127.100304 282.3081 
L 127.54831 282.3081 
L 127.54831 281.734448 
L 127.799239 281.734448 
L 127.799239 281.160797 
L 128.531065 281.160797 
L 128.590686 278.86619 
L 128.827155 278.86619 
L 128.827155 278.292538 
L 130.398313 278.292538 
L 130.398313 277.145235 
L 131.389151 277.145235 
L 131.389151 276.571583 
L 132.133473 276.571583 
L 132.133473 275.997931 
L 132.422528 275.997931 
L 132.422528 274.276976 
L 132.753813 274.276976 
L 132.753813 272.556021 
L 133.216421 272.556021 
L 133.262014 271.408718 
L 133.622529 271.408718 
L 133.622529 270.835066 
L 134.192921 270.835066 
L 134.192921 270.261414 
L 134.61933 270.261414 
L 134.61933 269.687762 
L 134.911732 269.687762 
L 134.911732 269.114111 
L 135.035562 269.114111 
L 135.035562 267.966807 
L 136.342635 267.966807 
L 136.342635 267.393156 
L 136.570107 267.393156 
L 136.570107 265.6722 
L 136.831795 265.6722 
L 136.831795 263.377593 
L 137.016339 263.377593 
L 137.016339 262.803942 
L 137.910857 262.803942 
L 137.910857 262.23029 
L 138.794909 262.23029 
L 138.794909 261.656638 
L 139.220677 261.656638 
L 139.220677 261.082987 
L 140.165274 261.082987 
L 140.165274 260.509335 
L 141.061324 260.509335 
L 141.061324 259.935683 
L 141.634094 259.935683 
L 141.634094 259.362031 
L 142.270332 259.362031 
L 142.297475 258.214728 
L 142.673105 258.214728 
L 142.673105 257.641076 
L 143.298796 257.641076 
L 143.298796 257.067425 
L 143.527762 257.067425 
L 143.527762 256.493773 
L 144.148442 256.493773 
L 144.148442 255.346469 
L 144.53439 255.346469 
L 144.53439 254.772818 
L 145.02832 254.772818 
L 145.097753 253.625514 
L 145.395476 253.625514 
L 145.395476 253.051863 
L 146.495417 253.051863 
L 146.495417 252.478211 
L 146.728368 252.478211 
L 146.728368 251.904559 
L 147.388869 251.904559 
L 147.388869 251.330907 
L 147.888024 251.330907 
L 147.927346 250.183604 
L 148.901221 250.183604 
L 148.901221 249.609952 
L 150.051085 249.609952 
L 150.137805 248.462649 
L 150.292822 248.462649 
L 150.292822 247.888997 
L 150.480434 247.888997 
L 150.480434 247.315345 
L 151.113448 247.315345 
L 151.113448 246.741694 
L 151.292481 246.741694 
L 151.292481 246.168042 
L 151.645126 246.168042 
L 151.645126 245.59439 
L 151.99078 245.59439 
L 152.068392 244.447087 
L 152.26858 244.447087 
L 152.26858 243.873435 
L 152.617226 243.873435 
L 152.617226 242.726132 
L 152.736878 242.726132 
L 152.826082 241.005176 
L 152.855715 241.005176 
L 152.929579 239.284221 
L 153.178403 239.284221 
L 153.178403 238.71057 
L 153.40939 238.71057 
L 153.40939 238.136918 
L 153.637357 238.136918 
L 153.637357 236.989614 
L 153.792374 236.989614 
L 153.890309 235.842311 
L 153.987696 235.842311 
L 153.987696 235.268659 
L 154.221969 235.268659 
L 154.221969 234.695008 
L 154.344733 234.695008 
L 154.344733 234.121356 
L 154.945917 234.121356 
L 154.945917 233.547704 
L 155.296925 233.547704 
L 155.361158 232.400401 
L 155.437927 232.400401 
L 155.437927 231.826749 
L 155.666226 231.826749 
L 155.666226 230.679446 
L 155.791779 230.679446 
L 155.791779 230.105794 
L 156.003167 230.105794 
L 156.08947 228.384839 
L 156.175347 228.384839 
L 156.175347 227.237535 
L 156.297301 227.237535 
L 156.357959 225.51658 
L 156.610446 225.51658 
L 156.681918 221.501018 
L 156.764934 221.501018 
L 156.812195 220.353715 
L 157.081488 220.353715 
L 157.081488 219.780063 
L 157.231877 219.780063 
L 157.323784 218.059108 
L 157.61918 218.059108 
L 157.686643 216.911804 
L 157.753847 216.911804 
L 157.820792 214.617197 
L 157.898572 214.617197 
L 157.898572 214.043546 
L 158.228039 214.043546 
L 158.336493 212.896242 
L 158.476481 212.896242 
L 158.476481 211.748939 
L 158.657864 211.748939 
L 158.657864 211.175287 
L 159.025463 211.175287 
L 159.098062 208.88068 
L 159.262876 208.88068 
L 159.262876 208.307029 
L 159.537516 208.307029 
L 159.537516 207.733377 
L 159.708245 207.733377 
L 159.768105 206.586073 
L 159.827761 206.586073 
L 159.906985 204.865118 
L 160.336402 204.865118 
L 160.355672 203.717815 
L 160.746084 203.717815 
L 160.746084 203.144163 
L 161.247301 203.144163 
L 161.247301 202.570511 
L 161.429341 202.570511 
L 161.456484 201.423208 
L 161.582595 201.423208 
L 161.582595 200.849556 
L 161.787817 200.849556 
L 161.787817 200.275904 
L 161.946759 200.275904 
L 161.946759 199.702253 
L 162.130378 199.702253 
L 162.130378 199.128601 
L 162.329291 199.128601 
L 162.329291 196.833994 
L 162.644595 196.833994 
L 162.644595 195.686691 
L 162.79595 195.686691 
L 162.79595 194.539387 
L 163.004009 194.539387 
L 163.004009 193.965736 
L 163.185069 193.965736 
L 163.291183 190.523825 
L 163.315579 190.523825 
L 163.315579 189.950174 
L 163.428979 189.950174 
L 163.428979 189.376522 
L 163.541647 189.376522 
L 163.597709 187.655567 
L 163.685444 187.655567 
L 163.717238 186.508263 
L 163.9617 186.508263 
L 164.008622 184.213656 
L 164.078769 184.213656 
L 164.094319 183.066353 
L 164.607388 183.066353 
L 164.675172 180.771746 
L 164.765143 180.771746 
L 164.787563 179.050791 
L 164.928893 179.050791 
L 164.928893 177.329836 
L 165.069087 177.329836 
L 165.113126 176.182532 
L 165.215452 176.182532 
L 165.324425 172.740622 
L 165.389484 172.740622 
L 165.418321 170.446015 
L 165.511714 170.446015 
L 165.518877 169.298712 
L 165.640207 169.298712 
L 165.746566 167.577757 
L 165.880363 167.577757 
L 165.936393 165.856801 
L 165.992243 165.856801 
L 166.068747 164.135846 
L 166.275702 164.135846 
L 166.330478 161.841239 
L 166.419124 161.841239 
L 166.514087 157.825677 
L 166.648858 157.825677 
L 166.689087 156.104722 
L 166.789256 156.104722 
L 166.888852 154.957419 
L 166.974711 154.957419 
L 167.020769 153.236464 
L 167.164734 153.236464 
L 167.223287 151.515508 
L 167.294587 151.515508 
L 167.294587 150.368205 
L 167.417059 150.368205 
L 167.493969 148.64725 
L 167.55143 148.64725 
L 167.55143 146.926295 
L 167.665786 146.926295 
L 167.665786 146.352643 
L 167.82338 146.352643 
L 167.923499 145.20534 
L 167.973343 145.20534 
L 168.066419 142.910733 
L 168.122027 142.910733 
L 168.22045 141.189778 
L 168.324419 141.189778 
L 168.385289 138.895171 
L 168.60868 138.895171 
L 168.60868 138.321519 
L 168.72825 138.321519 
L 168.835167 136.600564 
L 169.017779 136.600564 
L 169.099626 133.158653 
L 169.134586 133.158653 
L 169.134586 132.585002 
L 169.256398 132.585002 
L 169.319866 131.437698 
L 169.371623 131.437698 
L 169.440395 130.290395 
L 169.588476 130.290395 
L 169.611146 128.56944 
L 169.780242 128.56944 
L 169.86976 125.127529 
L 169.914348 125.127529 
L 169.914348 123.980226 
L 170.030851 123.980226 
L 170.030851 123.406574 
L 170.217839 123.406574 
L 170.267003 120.538316 
L 170.413666 120.538316 
L 170.435289 118.817361 
L 170.526891 118.817361 
L 170.537636 117.670057 
L 170.644724 117.670057 
L 170.655397 116.522754 
L 170.772368 116.522754 
L 170.867492 113.080843 
L 170.899085 113.080843 
L 170.951613 111.93354 
L 171.082245 111.93354 
L 171.191225 110.212585 
L 171.304668 110.212585 
L 171.371357 107.917978 
L 171.422484 107.917978 
L 171.432691 106.197023 
L 171.564846 106.197023 
L 171.564846 105.049719 
L 171.756212 105.049719 
L 171.861073 102.755112 
L 171.975201 102.755112 
L 172.004852 101.607809 
L 172.098413 101.607809 
L 172.196359 99.886854 
L 172.506141 99.886854 
L 172.592284 98.73955 
L 172.644719 98.73955 
L 172.69225 97.592247 
L 172.768032 97.592247 
L 172.834072 95.29764 
L 172.918615 95.29764 
L 172.918615 94.723988 
L 173.114303 94.723988 
L 173.192889 92.429381 
L 173.24815 92.429381 
L 173.24815 91.85573 
L 173.426547 91.85573 
L 173.535429 89.561123 
L 173.576085 89.561123 
L 173.576085 88.987471 
L 173.920102 88.987471 
L 173.986335 87.266516 
L 174.069872 87.266516 
L 174.118053 84.971909 
L 174.240098 84.971909 
L 174.300801 82.677302 
L 174.387156 82.677302 
L 174.49022 79.809044 
L 174.50306 79.809044 
L 174.596935 78.088089 
L 174.635193 78.088089 
L 174.741027 75.793482 
L 174.867186 75.793482 
L 174.959126 74.072526 
L 175.091997 74.072526 
L 175.141564 71.204268 
L 175.219758 71.204268 
L 175.318031 68.336009 
L 175.362888 68.336009 
L 175.456309 66.615054 
L 175.597519 66.615054 
L 175.661693 64.894099 
L 175.785362 64.894099 
L 175.84885 63.746796 
L 175.994786 63.746796 
L 175.994786 62.599492 
L 176.201725 62.599492 
L 176.286908 59.731234 
L 176.360142 59.731234 
L 176.367833 58.58393 
L 176.486612 58.58393 
L 176.593204 56.289323 
L 176.650041 56.289323 
L 176.684054 54.568368 
L 176.868082 54.568368 
L 176.94636 51.126458 
L 177.04649 51.126458 
L 177.127655 47.110896 
L 177.226752 47.110896 
L 177.32165 45.963592 
L 177.365276 45.963592 
L 177.365276 45.389941 
L 177.499105 45.389941 
L 177.499105 44.816289 
L 177.610446 44.816289 
L 177.706845 42.521682 
L 177.901581 42.521682 
L 177.992886 41.374379 
L 178.020885 41.374379 
L 178.10809 39.653423 
L 178.194861 39.653423 
L 178.194861 39.079772 
L 178.377401 39.079772 
L 178.377401 38.50612 
L 178.598693 38.50612 
L 178.696525 36.785165 
L 178.963594 36.785165 
L 178.963594 36.211513 
L 179.085744 36.211513 
L 179.085744 35.637861 
L 180.515761 35.637861 
L 180.515761 35.06421 
L 180.899453 35.06421 
L 181.005862 33.916906 
L 181.213841 33.916906 
L 181.219664 32.769603 
L 181.871035 32.769603 
L 181.871035 32.195951 
L 182.002336 32.195951 
L 182.052361 30.474996 
L 182.190572 30.474996 
L 182.204333 29.327692 
L 182.477296 29.327692 
L 182.477296 28.754041 
L 182.633679 28.754041 
L 182.719363 26.459434 
L 182.88154 26.459434 
L 182.947573 24.738479 
L 183.008104 24.738479 
L 183.021235 23.591175 
L 183.141578 23.591175 
L 183.141578 23.017524 
L 206.892669 23.017524 
L 206.892669 22.443872 
L 207.0509 22.443872 
L 207.111023 20.722917 
L 207.494592 20.722917 
L 207.494592 20.149265 
L 207.649398 20.149265 
L 207.755234 17.281006 
L 207.775562 17.281006 
L 207.775562 16.707355 
L 207.956831 16.707355 
L 208.002639 15.560051 
L 208.075183 15.560051 
L 208.180955 12.691793 
L 208.187777 12.691793 
L 208.297185 10.397186 
L 208.78689 10.397186 
L 208.88487 8.676231 
L 209.254471 8.676231 
L 209.254471 8.102579 
L 209.880613 8.102579 
L 209.880613 7.528927 
L 219.127965 7.528927 
L 219.127965 6.955275 
L 219.634121 6.955275 
L 219.634121 6.381624 
L 338.688 6.381624 
L 338.688 6.381624 
" style="fill:none;stroke:#ff7500;stroke-linecap:square;stroke-width:1.5;"/>
   </g>
   <g id="line2d_41">
    <defs>
     <path d="M 0 -6 
L -1.347084 -1.854102 
L -5.706339 -1.854102 
L -2.179628 0.708204 
L -3.526712 4.854102 
L -0 2.291796 
L 3.526712 4.854102 
L 2.179628 0.708204 
L 5.706339 -1.854102 
L 1.347084 -1.854102 
z
" id="mbb63b9c25e" style="stroke:#ff7500;stroke-linejoin:bevel;stroke-width:1.5;"/>
    </defs>
    <g>
     <use style="fill-opacity:0;stroke:#ff7500;stroke-linejoin:bevel;stroke-width:1.5;" x="172.834072" xlink:href="#mbb63b9c25e" y="95.871292"/>
     <use style="fill-opacity:0;stroke:#ff7500;stroke-linejoin:bevel;stroke-width:1.5;" x="219.634121" xlink:href="#mbb63b9c25e" y="6.955275"/>
     <use style="fill-opacity:0;stroke:#ff7500;stroke-linejoin:bevel;stroke-width:1.5;" x="219.634121" xlink:href="#mbb63b9c25e" y="6.381624"/>
     <use style="fill-opacity:0;stroke:#ff7500;stroke-linejoin:bevel;stroke-width:1.5;" x="219.634121" xlink:href="#mbb63b9c25e" y="6.381624"/>
     <use style="fill-opacity:0;stroke:#ff7500;stroke-linejoin:bevel;stroke-width:1.5;" x="338.688" xlink:href="#mbb63b9c25e" y="6.381624"/>
    </g>
   </g>
   <g id="line2d_42">
    <path style="fill:none;stroke:#ff7500;stroke-linecap:square;stroke-width:1.5;"/>
    <g/>
   </g>
   <g id="line2d_43">
    <path clip-path="url(#p42a2dccf69)" d="M 206.134423 23.017524 
" style="fill:none;stroke:#ff7500;stroke-linecap:square;stroke-width:1.5;"/>
    <defs>
     <path d="M -12 12 
L 12 -12 
M -12 -12 
L 12 12 
" id="m3a12107752" style="stroke:#ff7500;"/>
    </defs>
    <g clip-path="url(#p42a2dccf69)">
     <use style="fill:#ff7500;stroke:#ff7500;" x="206.134423" xlink:href="#m3a12107752" y="23.017524"/>
    </g>
   </g>
   <g id="line2d_44">
    <defs>
     <path d="M 0 1.5 
C 0.397805 1.5 0.77937 1.341951 1.06066 1.06066 
C 1.341951 0.77937 1.5 0.397805 1.5 0 
C 1.5 -0.397805 1.341951 -0.77937 1.06066 -1.06066 
C 0.77937 -1.341951 0.397805 -1.5 0 -1.5 
C -0.397805 -1.5 -0.77937 -1.341951 -1.06066 -1.06066 
C -1.341951 -0.77937 -1.5 -0.397805 -1.5 0 
C -1.5 0.397805 -1.341951 0.77937 -1.06066 1.06066 
C -0.77937 1.341951 -0.397805 1.5 0 1.5 
z
" id="m439702f2a9" style="stroke:#6495ed;"/>
    </defs>
    <g>
     <use style="fill:#6495ed;stroke:#6495ed;" x="176.804455" xlink:href="#m439702f2a9" y="6.381624"/>
     <use style="fill:#6495ed;stroke:#6495ed;" x="176.804455" xlink:href="#m439702f2a9" y="6.381624"/>
    </g>
   </g>
   <g id="line2d_45">
    <path d="M 29.53256 298.944 
L 29.53256 281.734448 
L 48.691568 281.734448 
L 48.691568 281.160797 
L 57.6 281.160797 
L 57.6 280.013493 
L 65.796525 280.013493 
L 65.796525 278.86619 
L 69.687988 278.86619 
L 69.687988 277.718886 
L 79.938565 277.718886 
L 79.938565 275.42428 
L 80.881459 275.42428 
L 80.881459 274.850628 
L 83.438118 274.850628 
L 83.438118 274.276976 
L 87.643811 274.276976 
L 87.643811 273.703324 
L 91.029752 273.703324 
L 91.029752 271.982369 
L 92.504372 271.982369 
L 92.504372 271.408718 
L 95.526106 271.408718 
L 95.526106 270.835066 
L 97.043522 270.835066 
L 97.043522 269.687762 
L 98.100772 269.687762 
L 98.100772 269.114111 
L 99.097574 269.114111 
L 99.097574 266.245852 
L 99.41757 266.245852 
L 99.41757 265.6722 
L 102.859376 265.6722 
L 102.859376 264.524897 
L 103.372333 264.524897 
L 103.372333 263.951245 
L 104.114542 263.951245 
L 104.114542 262.803942 
L 104.592361 262.803942 
L 104.592361 262.23029 
L 104.826449 262.23029 
L 104.826449 261.656638 
L 105.951954 261.656638 
L 105.951954 261.082987 
L 106.168594 261.082987 
L 106.168594 260.509335 
L 106.382575 260.509335 
L 106.382575 259.935683 
L 107.213174 259.935683 
L 107.213174 259.362031 
L 109.131511 259.362031 
L 109.131511 258.78838 
L 110.016944 258.78838 
L 110.016944 257.067425 
L 110.188761 257.067425 
L 110.188761 256.493773 
L 112.72987 256.493773 
L 112.72987 255.920121 
L 114.418861 255.920121 
L 114.418861 255.346469 
L 115.33349 255.346469 
L 115.33349 254.772818 
L 115.711251 254.772818 
L 115.711251 254.199166 
L 115.958621 254.199166 
L 115.958621 253.625514 
L 116.081002 253.625514 
L 116.081002 253.051863 
L 116.797786 253.051863 
L 116.797786 252.478211 
L 117.145424 252.478211 
L 117.145424 251.904559 
L 117.598418 251.904559 
L 117.598418 251.330907 
L 118.256582 251.330907 
L 118.256582 250.183604 
L 118.890808 250.183604 
L 118.994305 248.462649 
L 119.301163 248.462649 
L 119.301163 247.888997 
L 119.502775 247.888997 
L 119.502775 246.741694 
L 120.190611 246.741694 
L 120.190611 246.168042 
L 121.128432 246.168042 
L 121.219499 245.020738 
L 122.531342 245.020738 
L 122.531342 244.447087 
L 123.029641 244.447087 
L 123.029641 243.873435 
L 123.672636 243.873435 
L 123.672636 243.299783 
L 125.038147 243.299783 
L 125.038147 242.726132 
L 125.892487 242.726132 
L 125.892487 242.15248 
L 126.439646 242.15248 
L 126.439646 241.578828 
L 126.573795 241.578828 
L 126.573795 241.005176 
L 126.97016 241.005176 
L 126.97016 240.431525 
L 127.54831 240.431525 
L 127.54831 239.857873 
L 128.531065 239.857873 
L 128.531065 239.284221 
L 134.407429 239.284221 
L 134.407429 238.71057 
L 135.44209 238.71057 
L 135.44209 238.136918 
L 135.681535 238.136918 
L 135.681535 237.563266 
L 137.343676 237.563266 
L 137.343676 236.989614 
L 137.910857 236.989614 
L 138.01518 235.842311 
L 138.69516 235.842311 
L 138.69516 235.268659 
L 139.220677 235.268659 
L 139.220677 234.695008 
L 139.477614 234.695008 
L 139.477614 234.121356 
L 139.793552 234.121356 
L 139.793552 233.547704 
L 140.88576 233.547704 
L 140.88576 232.974052 
L 141.263941 232.974052 
L 141.263941 232.400401 
L 142.270332 232.400401 
L 142.297475 231.253097 
L 142.673105 231.253097 
L 142.673105 230.679446 
L 142.884173 230.679446 
L 142.884173 230.105794 
L 143.221802 230.105794 
L 143.221802 229.532142 
L 143.853271 229.532142 
L 143.853271 228.95849 
L 144.888619 228.95849 
L 144.888619 228.384839 
L 145.097753 228.384839 
L 145.097753 227.811187 
L 145.235796 227.811187 
L 145.235796 226.663884 
L 145.531191 226.663884 
L 145.531191 226.090232 
L 145.799493 226.090232 
L 145.799493 225.51658 
L 146.129168 225.51658 
L 146.194362 224.369277 
L 146.388493 224.369277 
L 146.40993 223.221973 
L 146.665144 223.221973 
L 146.665144 222.648321 
L 146.895853 222.648321 
L 146.895853 222.07467 
L 147.144103 222.07467 
L 147.246507 220.927366 
L 147.670154 220.927366 
L 147.670154 220.353715 
L 147.809113 220.353715 
L 147.86833 219.206411 
L 149.141003 219.206411 
L 149.214124 217.485456 
L 149.395596 217.485456 
L 149.395596 216.911804 
L 149.610898 216.911804 
L 149.610898 215.764501 
L 149.911431 215.764501 
L 149.911431 215.190849 
L 150.206871 215.190849 
L 150.258492 214.043546 
L 150.395406 214.043546 
L 150.395406 213.469894 
L 150.91602 213.469894 
L 150.91602 212.896242 
L 151.227591 212.896242 
L 151.227591 212.322591 
L 151.485716 212.322591 
L 151.485716 211.748939 
L 151.62925 211.748939 
L 151.62925 211.175287 
L 151.787359 211.175287 
L 151.818809 209.454332 
L 152.09934 209.454332 
L 152.130233 207.733377 
L 152.253262 207.733377 
L 152.253262 207.159725 
L 152.405838 207.159725 
L 152.451351 205.43877 
L 152.781537 205.43877 
L 152.870513 204.291467 
L 153.003132 204.291467 
L 153.003132 203.717815 
L 153.163864 203.717815 
L 153.163864 203.144163 
L 153.523746 203.144163 
L 153.523746 202.570511 
L 153.665645 202.570511 
L 153.707991 200.275904 
L 153.792374 200.275904 
L 153.792374 199.702253 
L 153.946025 199.702253 
L 154.001564 198.554949 
L 154.112115 198.554949 
L 154.139643 196.833994 
L 154.235652 196.833994 
L 154.235652 196.260342 
L 154.371897 196.260342 
L 154.371897 195.686691 
L 154.85375 195.686691 
L 154.945917 194.539387 
L 154.985269 194.539387 
L 154.985269 193.965736 
L 155.128803 193.965736 
L 155.128803 193.392084 
L 155.28405 193.392084 
L 155.386785 192.24478 
L 155.399584 192.24478 
L 155.501643 189.950174 
L 155.514359 189.950174 
L 155.603109 186.508263 
L 155.641006 186.508263 
L 155.641006 185.934612 
L 155.754208 185.934612 
L 155.804285 183.066353 
L 156.052535 183.066353 
L 156.126326 180.771746 
L 156.212023 180.771746 
L 156.212023 179.624443 
L 156.333721 179.624443 
L 156.442528 177.903487 
L 156.646219 177.903487 
L 156.681918 175.608881 
L 156.812195 175.608881 
L 156.812195 175.035229 
L 157.046598 175.035229 
L 157.046598 174.461577 
L 157.162628 174.461577 
L 157.220355 172.16697 
L 157.289376 172.16697 
L 157.392398 168.72506 
L 157.437991 168.72506 
L 157.540141 165.856801 
L 157.596634 165.856801 
L 157.664184 164.135846 
L 157.731474 164.135846 
L 157.787352 162.414891 
L 157.976006 162.414891 
L 158.0201 161.267588 
L 158.304027 161.267588 
L 158.304027 160.693936 
L 158.476481 160.693936 
L 158.572743 159.546632 
L 158.636623 159.546632 
L 158.67908 157.825677 
L 158.763686 157.825677 
L 158.763686 156.678374 
L 159.015067 156.678374 
L 159.108409 154.383767 
L 159.149734 154.383767 
L 159.211539 152.662812 
L 159.262876 152.662812 
L 159.3651 150.941857 
L 159.385473 150.941857 
L 159.476858 148.64725 
L 159.567767 148.64725 
L 159.648178 145.778991 
L 159.698248 145.778991 
L 159.807898 144.058036 
L 159.817832 144.058036 
L 159.877318 142.337081 
L 159.976013 142.337081 
L 160.074152 139.468822 
L 160.132771 139.468822 
L 160.132771 138.895171 
L 160.249422 138.895171 
L 160.355672 136.026912 
L 160.432539 136.026912 
L 160.489968 133.732305 
L 160.547209 133.732305 
L 160.632719 131.437698 
L 160.670589 131.437698 
L 160.764907 129.143091 
L 160.849359 129.143091 
L 160.86807 127.995788 
L 160.979921 127.995788 
L 161.026314 125.701181 
L 161.210663 125.701181 
L 161.210663 123.980226 
L 161.347658 123.980226 
L 161.384008 122.259271 
L 161.465522 122.259271 
L 161.564634 118.817361 
L 161.582595 118.817361 
L 161.681046 115.37545 
L 161.734513 115.37545 
L 161.840959 111.93354 
L 161.893939 111.93354 
L 161.999419 107.344326 
L 162.060656 107.344326 
L 162.156452 103.902416 
L 162.199823 103.902416 
L 162.251725 102.755112 
L 162.312084 102.755112 
L 162.38081 99.886854 
L 162.423627 99.886854 
L 162.52596 94.150337 
L 162.55145 94.150337 
L 162.610782 92.429381 
L 162.678343 92.429381 
L 162.762429 88.987471 
L 162.929393 88.987471 
L 162.987455 87.840168 
L 163.094774 87.840168 
L 163.193255 85.545561 
L 163.266752 85.545561 
L 163.2749 83.824606 
L 163.380469 83.824606 
L 163.461244 82.103651 
L 163.541647 82.103651 
L 163.613694 79.809044 
L 163.685444 79.809044 
L 163.780654 77.514437 
L 163.859601 77.514437 
L 163.930348 75.21983 
L 164.008622 75.21983 
L 164.01643 74.072526 
L 164.164122 74.072526 
L 164.264459 69.483313 
L 164.302897 69.483313 
L 164.348911 67.762358 
L 164.524182 67.762358 
L 164.584735 65.467751 
L 164.77262 65.467751 
L 164.77262 64.894099 
L 164.928893 64.894099 
L 165.00282 62.02584 
L 165.120455 62.02584 
L 165.200871 58.58393 
L 165.403908 58.58393 
L 165.475853 55.715672 
L 165.611735 55.715672 
L 165.718267 53.994716 
L 165.746566 53.994716 
L 165.845252 51.126458 
L 166.006178 51.126458 
L 166.089553 49.405503 
L 166.213873 49.405503 
L 166.309958 47.110896 
L 166.514087 47.110896 
L 166.601807 45.389941 
L 166.648858 45.389941 
L 166.648858 44.242637 
L 166.809221 44.242637 
L 166.888852 43.095334 
L 166.968122 43.095334 
L 167.066705 41.374379 
L 167.164734 41.374379 
L 167.268694 38.50612 
L 167.301055 38.50612 
L 167.404208 37.358817 
L 167.564173 37.358817 
L 167.564173 36.785165 
L 167.691097 36.785165 
L 167.728995 34.490558 
L 167.848464 34.490558 
L 167.929737 33.343255 
L 168.140524 33.343255 
L 168.22045 31.048648 
L 168.360967 31.048648 
L 168.360967 30.474996 
L 168.554604 30.474996 
L 168.662588 28.180389 
L 168.894283 28.180389 
L 168.900184 26.459434 
L 169.07628 26.459434 
L 169.087957 25.31213 
L 169.497498 25.31213 
L 169.497498 24.738479 
L 169.678981 24.738479 
L 169.678981 23.591175 
L 169.847424 23.591175 
L 169.847424 22.443872 
L 169.969922 22.443872 
L 169.969922 21.87022 
L 170.201421 21.87022 
L 170.201421 21.296568 
L 170.440691 21.296568 
L 170.440691 20.722917 
L 170.819995 20.722917 
L 170.819995 20.149265 
L 172.376122 20.149265 
L 172.376122 19.575613 
L 172.927984 19.575613 
L 172.927984 19.001962 
L 173.567059 19.001962 
L 173.625648 17.854658 
L 174.157375 17.854658 
L 174.157375 17.281006 
L 174.724137 17.281006 
L 174.800015 15.560051 
L 175.141564 15.560051 
L 175.203325 13.265444 
L 175.597519 13.265444 
L 175.597519 12.691793 
L 175.825069 12.691793 
L 175.825069 12.118141 
L 176.065343 12.118141 
L 176.065343 11.544489 
L 176.201725 11.544489 
L 176.275317 9.823534 
L 176.43307 9.823534 
L 176.536182 6.955275 
L 176.804455 6.955275 
L 176.804455 6.381624 
L 338.688 6.381624 
L 338.688 6.381624 
" style="fill:none;stroke:#6495ed;stroke-linecap:square;stroke-width:1.5;"/>
   </g>
   <g id="line2d_46">
    <defs>
     <path d="M -0 6 
L 6 -6 
L -6 -6 
z
" id="mf434ed6baa" style="stroke:#6495ed;stroke-linejoin:miter;stroke-width:1.5;"/>
    </defs>
    <g>
     <use style="fill-opacity:0;stroke:#6495ed;stroke-linejoin:miter;stroke-width:1.5;" x="102.859376" xlink:href="#mf434ed6baa" y="265.6722"/>
     <use style="fill-opacity:0;stroke:#6495ed;stroke-linejoin:miter;stroke-width:1.5;" x="154.235652" xlink:href="#mf434ed6baa" y="196.833994"/>
     <use style="fill-opacity:0;stroke:#6495ed;stroke-linejoin:miter;stroke-width:1.5;" x="166.648858" xlink:href="#mf434ed6baa" y="45.389941"/>
     <use style="fill-opacity:0;stroke:#6495ed;stroke-linejoin:miter;stroke-width:1.5;" x="176.804455" xlink:href="#mf434ed6baa" y="6.381624"/>
     <use style="fill-opacity:0;stroke:#6495ed;stroke-linejoin:miter;stroke-width:1.5;" x="176.804455" xlink:href="#mf434ed6baa" y="6.381624"/>
     <use style="fill-opacity:0;stroke:#6495ed;stroke-linejoin:miter;stroke-width:1.5;" x="338.688" xlink:href="#mf434ed6baa" y="6.381624"/>
    </g>
   </g>
   <g id="line2d_47">
    <path style="fill:none;stroke:#6495ed;stroke-linecap:square;stroke-width:1.5;"/>
    <g/>
   </g>
   <g id="line2d_48">
    <path d="M 338.688 201.423208 
L 369.60768 293.092752 
" style="fill:none;stroke:#ff00ff;stroke-linecap:square;stroke-width:1.5;"/>
    <g>
     <use style="fill-opacity:0;stroke:#ff00ff;stroke-linejoin:miter;stroke-width:1.5;" x="338.688" xlink:href="#m7697947a24" y="201.423208"/>
     <use style="fill-opacity:0;stroke:#ff00ff;stroke-linejoin:miter;stroke-width:1.5;" x="369.60768" xlink:href="#m7697947a24" y="293.092752"/>
    </g>
   </g>
   <g id="line2d_49">
    <path d="M 338.688 6.381624 
L 369.60768 199.472792 
" style="fill:none;stroke:#000080;stroke-linecap:square;stroke-width:1.5;"/>
    <g>
     <use style="fill-opacity:0;stroke:#000080;stroke-width:1.5;" x="338.688" xlink:href="#m098d897022" y="6.381624"/>
     <use style="fill-opacity:0;stroke:#000080;stroke-width:1.5;" x="369.60768" xlink:href="#m098d897022" y="199.472792"/>
    </g>
   </g>
   <g id="line2d_50">
    <path d="M 338.688 6.381624 
L 369.60768 105.852832 
" style="fill:none;stroke:#ff7500;stroke-linecap:square;stroke-width:1.5;"/>
    <g>
     <use style="fill-opacity:0;stroke:#ff7500;stroke-linejoin:bevel;stroke-width:1.5;" x="338.688" xlink:href="#mbb63b9c25e" y="6.381624"/>
     <use style="fill-opacity:0;stroke:#ff7500;stroke-linejoin:bevel;stroke-width:1.5;" x="369.60768" xlink:href="#mbb63b9c25e" y="105.852832"/>
    </g>
   </g>
   <g id="line2d_51">
    <path d="M 338.688 6.381624 
L 369.60768 12.232871 
" style="fill:none;stroke:#6495ed;stroke-linecap:square;stroke-width:1.5;"/>
    <g>
     <use style="fill-opacity:0;stroke:#6495ed;stroke-linejoin:miter;stroke-width:1.5;" x="338.688" xlink:href="#mf434ed6baa" y="6.381624"/>
     <use style="fill-opacity:0;stroke:#6495ed;stroke-linejoin:miter;stroke-width:1.5;" x="369.60768" xlink:href="#mf434ed6baa" y="12.232871"/>
    </g>
   </g>
   <g id="line2d_52">
    <path d="M 338.688 298.944 
L 338.688 6.381624 
" style="fill:none;stroke:#000000;stroke-linecap:square;stroke-width:1.5;"/>
   </g>
   <g id="patch_3">
    <path d="M 57.6 298.944 
L 57.6 3.456 
" style="fill:none;stroke:#000000;stroke-linecap:square;stroke-linejoin:miter;stroke-width:0.8;"/>
   </g>
   <g id="patch_4">
    <path d="M 338.688 298.944 
L 338.688 3.456 
" style="fill:none;stroke:#000000;stroke-linecap:square;stroke-linejoin:miter;stroke-width:0.8;"/>
   </g>
   <g id="patch_5">
    <path d="M 57.6 298.944 
L 338.688 298.944 
" style="fill:none;stroke:#000000;stroke-linecap:square;stroke-linejoin:miter;stroke-width:0.8;"/>
   </g>
   <g id="patch_6">
    <path d="M 57.6 3.456 
L 338.688 3.456 
" style="fill:none;stroke:#000000;stroke-linecap:square;stroke-linejoin:miter;stroke-width:0.8;"/>
   </g>
   <g id="text_13">
    <!-- f7 -->
    <g transform="translate(375.22944 297.78369)scale(0.17 -0.17)">
     <defs>
      <path d="M 8.203125 72.90625 
L 55.078125 72.90625 
L 55.078125 68.703125 
L 28.609375 0 
L 18.3125 0 
L 43.21875 64.59375 
L 8.203125 64.59375 
z
" id="DejaVuSans-55"/>
     </defs>
     <use xlink:href="#DejaVuSans-102"/>
     <use x="35.205078" xlink:href="#DejaVuSans-55"/>
    </g>
   </g>
   <g id="text_14">
    <!-- f6 -->
    <g transform="translate(375.22944 204.16373)scale(0.17 -0.17)">
     <use xlink:href="#DejaVuSans-102"/>
     <use x="35.205078" xlink:href="#DejaVuSans-54"/>
    </g>
   </g>
   <g id="text_15">
    <!-- f8 -->
    <g transform="translate(375.22944 110.543769)scale(0.17 -0.17)">
     <use xlink:href="#DejaVuSans-102"/>
     <use x="35.205078" xlink:href="#DejaVuSans-56"/>
    </g>
   </g>
   <g id="text_16">
    <!-- f9 -->
    <g transform="translate(375.22944 16.923809)scale(0.17 -0.17)">
     <defs>
      <path d="M 10.984375 1.515625 
L 10.984375 10.5 
Q 14.703125 8.734375 18.5 7.8125 
Q 22.3125 6.890625 25.984375 6.890625 
Q 35.75 6.890625 40.890625 13.453125 
Q 46.046875 20.015625 46.78125 33.40625 
Q 43.953125 29.203125 39.59375 26.953125 
Q 35.25 24.703125 29.984375 24.703125 
Q 19.046875 24.703125 12.671875 31.3125 
Q 6.296875 37.9375 6.296875 49.421875 
Q 6.296875 60.640625 12.9375 67.421875 
Q 19.578125 74.21875 30.609375 74.21875 
Q 43.265625 74.21875 49.921875 64.515625 
Q 56.59375 54.828125 56.59375 36.375 
Q 56.59375 19.140625 48.40625 8.859375 
Q 40.234375 -1.421875 26.421875 -1.421875 
Q 22.703125 -1.421875 18.890625 -0.6875 
Q 15.09375 0.046875 10.984375 1.515625 
z
M 30.609375 32.421875 
Q 37.25 32.421875 41.125 36.953125 
Q 45.015625 41.5 45.015625 49.421875 
Q 45.015625 57.28125 41.125 61.84375 
Q 37.25 66.40625 30.609375 66.40625 
Q 23.96875 66.40625 20.09375 61.84375 
Q 16.21875 57.28125 16.21875 49.421875 
Q 16.21875 41.5 20.09375 36.953125 
Q 23.96875 32.421875 30.609375 32.421875 
z
" id="DejaVuSans-57"/>
     </defs>
     <use xlink:href="#DejaVuSans-102"/>
     <use x="35.205078" xlink:href="#DejaVuSans-57"/>
    </g>
   </g>
   <g id="text_17">
    <!-- bbob -->
    <g transform="translate(60.41088 14.161286)scale(0.102 -0.102)">
     <defs>
      <path d="M 48.6875 27.296875 
Q 48.6875 37.203125 44.609375 42.84375 
Q 40.53125 48.484375 33.40625 48.484375 
Q 26.265625 48.484375 22.1875 42.84375 
Q 18.109375 37.203125 18.109375 27.296875 
Q 18.109375 17.390625 22.1875 11.75 
Q 26.265625 6.109375 33.40625 6.109375 
Q 40.53125 6.109375 44.609375 11.75 
Q 48.6875 17.390625 48.6875 27.296875 
z
M 18.109375 46.390625 
Q 20.953125 51.265625 25.265625 53.625 
Q 29.59375 56 35.59375 56 
Q 45.5625 56 51.78125 48.09375 
Q 58.015625 40.1875 58.015625 27.296875 
Q 58.015625 14.40625 51.78125 6.484375 
Q 45.5625 -1.421875 35.59375 -1.421875 
Q 29.59375 -1.421875 25.265625 0.953125 
Q 20.953125 3.328125 18.109375 8.203125 
L 18.109375 0 
L 9.078125 0 
L 9.078125 75.984375 
L 18.109375 75.984375 
z
" id="DejaVuSans-98"/>
     </defs>
     <use xlink:href="#DejaVuSans-98"/>
     <use x="63.476562" xlink:href="#DejaVuSans-98"/>
     <use x="126.953125" xlink:href="#DejaVuSans-111"/>
     <use x="188.134766" xlink:href="#DejaVuSans-98"/>
    </g>
    <!-- Misc. moderate functions, 5-D -->
    <g transform="translate(60.41088 25.583055)scale(0.102 -0.102)">
     <defs>
      <path d="M 9.8125 72.90625 
L 24.515625 72.90625 
L 43.109375 23.296875 
L 61.8125 72.90625 
L 76.515625 72.90625 
L 76.515625 0 
L 66.890625 0 
L 66.890625 64.015625 
L 48.09375 14.015625 
L 38.1875 14.015625 
L 19.390625 64.015625 
L 19.390625 0 
L 9.8125 0 
z
" id="DejaVuSans-77"/>
      <path d="M 10.796875 72.90625 
L 49.515625 72.90625 
L 49.515625 64.59375 
L 19.828125 64.59375 
L 19.828125 46.734375 
Q 21.96875 47.46875 24.109375 47.828125 
Q 26.265625 48.1875 28.421875 48.1875 
Q 40.625 48.1875 47.75 41.5 
Q 54.890625 34.8125 54.890625 23.390625 
Q 54.890625 11.625 47.5625 5.09375 
Q 40.234375 -1.421875 26.90625 -1.421875 
Q 22.3125 -1.421875 17.546875 -0.640625 
Q 12.796875 0.140625 7.71875 1.703125 
L 7.71875 11.625 
Q 12.109375 9.234375 16.796875 8.0625 
Q 21.484375 6.890625 26.703125 6.890625 
Q 35.15625 6.890625 40.078125 11.328125 
Q 45.015625 15.765625 45.015625 23.390625 
Q 45.015625 31 40.078125 35.4375 
Q 35.15625 39.890625 26.703125 39.890625 
Q 22.75 39.890625 18.8125 39.015625 
Q 14.890625 38.140625 10.796875 36.28125 
z
" id="DejaVuSans-53"/>
      <path d="M 19.671875 64.796875 
L 19.671875 8.109375 
L 31.59375 8.109375 
Q 46.6875 8.109375 53.6875 14.9375 
Q 60.6875 21.78125 60.6875 36.53125 
Q 60.6875 51.171875 53.6875 57.984375 
Q 46.6875 64.796875 31.59375 64.796875 
z
M 9.8125 72.90625 
L 30.078125 72.90625 
Q 51.265625 72.90625 61.171875 64.09375 
Q 71.09375 55.28125 71.09375 36.53125 
Q 71.09375 17.671875 61.125 8.828125 
Q 51.171875 0 30.078125 0 
L 9.8125 0 
z
" id="DejaVuSans-68"/>
     </defs>
     <use xlink:href="#DejaVuSans-77"/>
     <use x="86.279297" xlink:href="#DejaVuSans-105"/>
     <use x="114.0625" xlink:href="#DejaVuSans-115"/>
     <use x="166.162109" xlink:href="#DejaVuSans-99"/>
     <use x="221.142578" xlink:href="#DejaVuSans-46"/>
     <use x="252.929688" xlink:href="#DejaVuSans-32"/>
     <use x="284.716797" xlink:href="#DejaVuSans-109"/>
     <use x="382.128906" xlink:href="#DejaVuSans-111"/>
     <use x="443.310547" xlink:href="#DejaVuSans-100"/>
     <use x="506.787109" xlink:href="#DejaVuSans-101"/>
     <use x="568.310547" xlink:href="#DejaVuSans-114"/>
     <use x="609.423828" xlink:href="#DejaVuSans-97"/>
     <use x="670.703125" xlink:href="#DejaVuSans-116"/>
     <use x="709.912109" xlink:href="#DejaVuSans-101"/>
     <use x="771.435547" xlink:href="#DejaVuSans-32"/>
     <use x="803.222656" xlink:href="#DejaVuSans-102"/>
     <use x="838.427734" xlink:href="#DejaVuSans-117"/>
     <use x="901.806641" xlink:href="#DejaVuSans-110"/>
     <use x="965.185547" xlink:href="#DejaVuSans-99"/>
     <use x="1020.166016" xlink:href="#DejaVuSans-116"/>
     <use x="1059.375" xlink:href="#DejaVuSans-105"/>
     <use x="1087.158203" xlink:href="#DejaVuSans-111"/>
     <use x="1148.339844" xlink:href="#DejaVuSans-110"/>
     <use x="1211.71875" xlink:href="#DejaVuSans-115"/>
     <use x="1263.818359" xlink:href="#DejaVuSans-44"/>
     <use x="1295.605469" xlink:href="#DejaVuSans-32"/>
     <use x="1327.392578" xlink:href="#DejaVuSans-53"/>
     <use x="1391.015625" xlink:href="#DejaVuSans-45"/>
     <use x="1427.099609" xlink:href="#DejaVuSans-68"/>
    </g>
    <!-- 51 targets: 100..1e-08 -->
    <g transform="translate(60.41088 37.004824)scale(0.102 -0.102)">
     <defs>
      <path d="M 11.71875 12.40625 
L 22.015625 12.40625 
L 22.015625 0 
L 11.71875 0 
z
M 11.71875 51.703125 
L 22.015625 51.703125 
L 22.015625 39.3125 
L 11.71875 39.3125 
z
" id="DejaVuSans-58"/>
     </defs>
     <use xlink:href="#DejaVuSans-53"/>
     <use x="63.623047" xlink:href="#DejaVuSans-49"/>
     <use x="127.246094" xlink:href="#DejaVuSans-32"/>
     <use x="159.033203" xlink:href="#DejaVuSans-116"/>
     <use x="198.242188" xlink:href="#DejaVuSans-97"/>
     <use x="259.521484" xlink:href="#DejaVuSans-114"/>
     <use x="298.884766" xlink:href="#DejaVuSans-103"/>
     <use x="362.361328" xlink:href="#DejaVuSans-101"/>
     <use x="423.884766" xlink:href="#DejaVuSans-116"/>
     <use x="463.09375" xlink:href="#DejaVuSans-115"/>
     <use x="515.193359" xlink:href="#DejaVuSans-58"/>
     <use x="548.884766" xlink:href="#DejaVuSans-32"/>
     <use x="580.671875" xlink:href="#DejaVuSans-49"/>
     <use x="644.294922" xlink:href="#DejaVuSans-48"/>
     <use x="707.917969" xlink:href="#DejaVuSans-48"/>
     <use x="771.541016" xlink:href="#DejaVuSans-46"/>
     <use x="803.328125" xlink:href="#DejaVuSans-46"/>
     <use x="835.115234" xlink:href="#DejaVuSans-49"/>
     <use x="898.738281" xlink:href="#DejaVuSans-101"/>
     <use x="960.261719" xlink:href="#DejaVuSans-45"/>
     <use x="996.345703" xlink:href="#DejaVuSans-48"/>
     <use x="1059.96875" xlink:href="#DejaVuSans-56"/>
    </g>
    <!-- 15 instances -->
    <g transform="translate(60.41088 48.426593)scale(0.102 -0.102)">
     <use xlink:href="#DejaVuSans-49"/>
     <use x="63.623047" xlink:href="#DejaVuSans-53"/>
     <use x="127.246094" xlink:href="#DejaVuSans-32"/>
     <use x="159.033203" xlink:href="#DejaVuSans-105"/>
     <use x="186.816406" xlink:href="#DejaVuSans-110"/>
     <use x="250.195312" xlink:href="#DejaVuSans-115"/>
     <use x="302.294922" xlink:href="#DejaVuSans-116"/>
     <use x="341.503906" xlink:href="#DejaVuSans-97"/>
     <use x="402.783203" xlink:href="#DejaVuSans-110"/>
     <use x="466.162109" xlink:href="#DejaVuSans-99"/>
     <use x="521.142578" xlink:href="#DejaVuSans-101"/>
     <use x="582.666016" xlink:href="#DejaVuSans-115"/>
    </g>
   </g>
   <g id="text_18">
    <!-- v2.4 -->
    <g style="fill:#808080;" transform="translate(187.233062 293.909432)scale(0.1 -0.1)">
     <use xlink:href="#DejaVuSans-118"/>
     <use x="59.179688" xlink:href="#DejaVuSans-50"/>
     <use x="122.802734" xlink:href="#DejaVuSans-46"/>
     <use x="154.589844" xlink:href="#DejaVuSans-52"/>
    </g>
   </g>
  </g>
 </g>
 <defs>
  <clipPath id="p42a2dccf69">
   <rect height="295.488" width="281.088" x="57.6" y="3.456"/>
  </clipPath>
 </defs>
</svg>
