<?xml version="1.0" encoding="utf-8" standalone="no"?>
<!DOCTYPE svg PUBLIC "-//W3C//DTD SVG 1.1//EN"
  "http://www.w3.org/Graphics/SVG/1.1/DTD/svg11.dtd">
<!-- Created with matplotlib (https://matplotlib.org/) -->
<svg height="345.6pt" version="1.1" viewBox="0 0 460.8 345.6" width="460.8pt" xmlns="http://www.w3.org/2000/svg" xmlns:xlink="http://www.w3.org/1999/xlink">
 <metadata>
  <rdf:RDF xmlns:cc="http://creativecommons.org/ns#" xmlns:dc="http://purl.org/dc/elements/1.1/" xmlns:rdf="http://www.w3.org/1999/02/22-rdf-syntax-ns#">
   <cc:Work>
    <dc:type rdf:resource="http://purl.org/dc/dcmitype/StillImage"/>
    <dc:date>2021-06-17T01:37:26.663423</dc:date>
    <dc:format>image/svg+xml</dc:format>
    <dc:creator>
     <cc:Agent>
      <dc:title>Matplotlib v3.3.4, https://matplotlib.org/</dc:title>
     </cc:Agent>
    </dc:creator>
   </cc:Work>
  </rdf:RDF>
 </metadata>
 <defs>
  <style type="text/css">*{stroke-linecap:butt;stroke-linejoin:round;}</style>
 </defs>
 <g id="figure_1">
  <g id="patch_1">
   <path d="M 0 345.6 
L 460.8 345.6 
L 460.8 0 
L 0 0 
z
" style="fill:#ffffff;"/>
  </g>
  <g id="axes_1">
   <g id="patch_2">
    <path d="M 57.6 298.944 
L 338.688 298.944 
L 338.688 3.456 
L 57.6 3.456 
z
" style="fill:#ffffff;"/>
   </g>
   <g id="matplotlib.axis_1">
    <g id="xtick_1">
     <g id="line2d_1">
      <path clip-path="url(#p41b5a83012)" d="M 57.6 298.944 
L 57.6 3.456 
" style="fill:none;stroke:#b0b0b0;stroke-linecap:square;stroke-width:0.8;"/>
     </g>
     <g id="line2d_2">
      <defs>
       <path d="M 0 0 
L 0 3.5 
" id="m60fa154d9a" style="stroke:#000000;stroke-width:0.8;"/>
      </defs>
      <g>
       <use style="stroke:#000000;stroke-width:0.8;" x="57.6" xlink:href="#m60fa154d9a" y="298.944"/>
      </g>
     </g>
     <g id="text_1">
      <!-- 0 -->
      <g transform="translate(51.2375 321.140875)scale(0.2 -0.2)">
       <defs>
        <path d="M 31.78125 66.40625 
Q 24.171875 66.40625 20.328125 58.90625 
Q 16.5 51.421875 16.5 36.375 
Q 16.5 21.390625 20.328125 13.890625 
Q 24.171875 6.390625 31.78125 6.390625 
Q 39.453125 6.390625 43.28125 13.890625 
Q 47.125 21.390625 47.125 36.375 
Q 47.125 51.421875 43.28125 58.90625 
Q 39.453125 66.40625 31.78125 66.40625 
z
M 31.78125 74.21875 
Q 44.046875 74.21875 50.515625 64.515625 
Q 56.984375 54.828125 56.984375 36.375 
Q 56.984375 17.96875 50.515625 8.265625 
Q 44.046875 -1.421875 31.78125 -1.421875 
Q 19.53125 -1.421875 13.0625 8.265625 
Q 6.59375 17.96875 6.59375 36.375 
Q 6.59375 54.828125 13.0625 64.515625 
Q 19.53125 74.21875 31.78125 74.21875 
z
" id="DejaVuSans-48"/>
       </defs>
       <use xlink:href="#DejaVuSans-48"/>
      </g>
     </g>
    </g>
    <g id="xtick_2">
     <g id="line2d_3">
      <path clip-path="url(#p41b5a83012)" d="M 137.910857 298.944 
L 137.910857 3.456 
" style="fill:none;stroke:#b0b0b0;stroke-linecap:square;stroke-width:0.8;"/>
     </g>
     <g id="line2d_4">
      <g>
       <use style="stroke:#000000;stroke-width:0.8;" x="137.910857" xlink:href="#m60fa154d9a" y="298.944"/>
      </g>
     </g>
     <g id="text_2">
      <!-- 2 -->
      <g transform="translate(131.548357 321.140875)scale(0.2 -0.2)">
       <defs>
        <path d="M 19.1875 8.296875 
L 53.609375 8.296875 
L 53.609375 0 
L 7.328125 0 
L 7.328125 8.296875 
Q 12.9375 14.109375 22.625 23.890625 
Q 32.328125 33.6875 34.8125 36.53125 
Q 39.546875 41.84375 41.421875 45.53125 
Q 43.3125 49.21875 43.3125 52.78125 
Q 43.3125 58.59375 39.234375 62.25 
Q 35.15625 65.921875 28.609375 65.921875 
Q 23.96875 65.921875 18.8125 64.3125 
Q 13.671875 62.703125 7.8125 59.421875 
L 7.8125 69.390625 
Q 13.765625 71.78125 18.9375 73 
Q 24.125 74.21875 28.421875 74.21875 
Q 39.75 74.21875 46.484375 68.546875 
Q 53.21875 62.890625 53.21875 53.421875 
Q 53.21875 48.921875 51.53125 44.890625 
Q 49.859375 40.875 45.40625 35.40625 
Q 44.1875 33.984375 37.640625 27.21875 
Q 31.109375 20.453125 19.1875 8.296875 
z
" id="DejaVuSans-50"/>
       </defs>
       <use xlink:href="#DejaVuSans-50"/>
      </g>
     </g>
    </g>
    <g id="xtick_3">
     <g id="line2d_5">
      <path clip-path="url(#p41b5a83012)" d="M 218.221714 298.944 
L 218.221714 3.456 
" style="fill:none;stroke:#b0b0b0;stroke-linecap:square;stroke-width:0.8;"/>
     </g>
     <g id="line2d_6">
      <g>
       <use style="stroke:#000000;stroke-width:0.8;" x="218.221714" xlink:href="#m60fa154d9a" y="298.944"/>
      </g>
     </g>
     <g id="text_3">
      <!-- 4 -->
      <g transform="translate(211.859214 321.140875)scale(0.2 -0.2)">
       <defs>
        <path d="M 37.796875 64.3125 
L 12.890625 25.390625 
L 37.796875 25.390625 
z
M 35.203125 72.90625 
L 47.609375 72.90625 
L 47.609375 25.390625 
L 58.015625 25.390625 
L 58.015625 17.1875 
L 47.609375 17.1875 
L 47.609375 0 
L 37.796875 0 
L 37.796875 17.1875 
L 4.890625 17.1875 
L 4.890625 26.703125 
z
" id="DejaVuSans-52"/>
       </defs>
       <use xlink:href="#DejaVuSans-52"/>
      </g>
     </g>
    </g>
    <g id="xtick_4">
     <g id="line2d_7">
      <path clip-path="url(#p41b5a83012)" d="M 298.532571 298.944 
L 298.532571 3.456 
" style="fill:none;stroke:#b0b0b0;stroke-linecap:square;stroke-width:0.8;"/>
     </g>
     <g id="line2d_8">
      <g>
       <use style="stroke:#000000;stroke-width:0.8;" x="298.532571" xlink:href="#m60fa154d9a" y="298.944"/>
      </g>
     </g>
     <g id="text_4">
      <!-- 6 -->
      <g transform="translate(292.170071 321.140875)scale(0.2 -0.2)">
       <defs>
        <path d="M 33.015625 40.375 
Q 26.375 40.375 22.484375 35.828125 
Q 18.609375 31.296875 18.609375 23.390625 
Q 18.609375 15.53125 22.484375 10.953125 
Q 26.375 6.390625 33.015625 6.390625 
Q 39.65625 6.390625 43.53125 10.953125 
Q 47.40625 15.53125 47.40625 23.390625 
Q 47.40625 31.296875 43.53125 35.828125 
Q 39.65625 40.375 33.015625 40.375 
z
M 52.59375 71.296875 
L 52.59375 62.3125 
Q 48.875 64.0625 45.09375 64.984375 
Q 41.3125 65.921875 37.59375 65.921875 
Q 27.828125 65.921875 22.671875 59.328125 
Q 17.53125 52.734375 16.796875 39.40625 
Q 19.671875 43.65625 24.015625 45.921875 
Q 28.375 48.1875 33.59375 48.1875 
Q 44.578125 48.1875 50.953125 41.515625 
Q 57.328125 34.859375 57.328125 23.390625 
Q 57.328125 12.15625 50.6875 5.359375 
Q 44.046875 -1.421875 33.015625 -1.421875 
Q 20.359375 -1.421875 13.671875 8.265625 
Q 6.984375 17.96875 6.984375 36.375 
Q 6.984375 53.65625 15.1875 63.9375 
Q 23.390625 74.21875 37.203125 74.21875 
Q 40.921875 74.21875 44.703125 73.484375 
Q 48.484375 72.75 52.59375 71.296875 
z
" id="DejaVuSans-54"/>
       </defs>
       <use xlink:href="#DejaVuSans-54"/>
      </g>
     </g>
    </g>
    <g id="xtick_5">
     <g id="line2d_9">
      <path clip-path="url(#p41b5a83012)" d="M 97.755429 298.944 
L 97.755429 3.456 
" style="fill:none;stroke:#b0b0b0;stroke-linecap:square;stroke-width:0.8;"/>
     </g>
     <g id="line2d_10">
      <defs>
       <path d="M 0 0 
L 0 2 
" id="m000099821c" style="stroke:#000000;stroke-width:0.6;"/>
      </defs>
      <g>
       <use style="stroke:#000000;stroke-width:0.6;" x="97.755429" xlink:href="#m000099821c" y="298.944"/>
      </g>
     </g>
    </g>
    <g id="xtick_6">
     <g id="line2d_11">
      <path clip-path="url(#p41b5a83012)" d="M 178.066286 298.944 
L 178.066286 3.456 
" style="fill:none;stroke:#b0b0b0;stroke-linecap:square;stroke-width:0.8;"/>
     </g>
     <g id="line2d_12">
      <g>
       <use style="stroke:#000000;stroke-width:0.6;" x="178.066286" xlink:href="#m000099821c" y="298.944"/>
      </g>
     </g>
    </g>
    <g id="xtick_7">
     <g id="line2d_13">
      <path clip-path="url(#p41b5a83012)" d="M 258.377143 298.944 
L 258.377143 3.456 
" style="fill:none;stroke:#b0b0b0;stroke-linecap:square;stroke-width:0.8;"/>
     </g>
     <g id="line2d_14">
      <g>
       <use style="stroke:#000000;stroke-width:0.6;" x="258.377143" xlink:href="#m000099821c" y="298.944"/>
      </g>
     </g>
    </g>
    <g id="xtick_8">
     <g id="line2d_15">
      <path clip-path="url(#p41b5a83012)" d="M 338.688 298.944 
L 338.688 3.456 
" style="fill:none;stroke:#b0b0b0;stroke-linecap:square;stroke-width:0.8;"/>
     </g>
     <g id="line2d_16">
      <g>
       <use style="stroke:#000000;stroke-width:0.6;" x="338.688" xlink:href="#m000099821c" y="298.944"/>
      </g>
     </g>
    </g>
    <g id="text_5">
     <!-- log10(# f-evals / dimension) -->
     <g transform="translate(77.764078 342.217594)scale(0.17 -0.17)">
      <defs>
       <path d="M 9.421875 75.984375 
L 18.40625 75.984375 
L 18.40625 0 
L 9.421875 0 
z
" id="DejaVuSans-108"/>
       <path d="M 30.609375 48.390625 
Q 23.390625 48.390625 19.1875 42.75 
Q 14.984375 37.109375 14.984375 27.296875 
Q 14.984375 17.484375 19.15625 11.84375 
Q 23.34375 6.203125 30.609375 6.203125 
Q 37.796875 6.203125 41.984375 11.859375 
Q 46.1875 17.53125 46.1875 27.296875 
Q 46.1875 37.015625 41.984375 42.703125 
Q 37.796875 48.390625 30.609375 48.390625 
z
M 30.609375 56 
Q 42.328125 56 49.015625 48.375 
Q 55.71875 40.765625 55.71875 27.296875 
Q 55.71875 13.875 49.015625 6.21875 
Q 42.328125 -1.421875 30.609375 -1.421875 
Q 18.84375 -1.421875 12.171875 6.21875 
Q 5.515625 13.875 5.515625 27.296875 
Q 5.515625 40.765625 12.171875 48.375 
Q 18.84375 56 30.609375 56 
z
" id="DejaVuSans-111"/>
       <path d="M 45.40625 27.984375 
Q 45.40625 37.75 41.375 43.109375 
Q 37.359375 48.484375 30.078125 48.484375 
Q 22.859375 48.484375 18.828125 43.109375 
Q 14.796875 37.75 14.796875 27.984375 
Q 14.796875 18.265625 18.828125 12.890625 
Q 22.859375 7.515625 30.078125 7.515625 
Q 37.359375 7.515625 41.375 12.890625 
Q 45.40625 18.265625 45.40625 27.984375 
z
M 54.390625 6.78125 
Q 54.390625 -7.171875 48.1875 -13.984375 
Q 42 -20.796875 29.203125 -20.796875 
Q 24.46875 -20.796875 20.265625 -20.09375 
Q 16.0625 -19.390625 12.109375 -17.921875 
L 12.109375 -9.1875 
Q 16.0625 -11.328125 19.921875 -12.34375 
Q 23.78125 -13.375 27.78125 -13.375 
Q 36.625 -13.375 41.015625 -8.765625 
Q 45.40625 -4.15625 45.40625 5.171875 
L 45.40625 9.625 
Q 42.625 4.78125 38.28125 2.390625 
Q 33.9375 0 27.875 0 
Q 17.828125 0 11.671875 7.65625 
Q 5.515625 15.328125 5.515625 27.984375 
Q 5.515625 40.671875 11.671875 48.328125 
Q 17.828125 56 27.875 56 
Q 33.9375 56 38.28125 53.609375 
Q 42.625 51.21875 45.40625 46.390625 
L 45.40625 54.6875 
L 54.390625 54.6875 
z
" id="DejaVuSans-103"/>
       <path d="M 12.40625 8.296875 
L 28.515625 8.296875 
L 28.515625 63.921875 
L 10.984375 60.40625 
L 10.984375 69.390625 
L 28.421875 72.90625 
L 38.28125 72.90625 
L 38.28125 8.296875 
L 54.390625 8.296875 
L 54.390625 0 
L 12.40625 0 
z
" id="DejaVuSans-49"/>
       <path d="M 31 75.875 
Q 24.46875 64.65625 21.28125 53.65625 
Q 18.109375 42.671875 18.109375 31.390625 
Q 18.109375 20.125 21.3125 9.0625 
Q 24.515625 -2 31 -13.1875 
L 23.1875 -13.1875 
Q 15.875 -1.703125 12.234375 9.375 
Q 8.59375 20.453125 8.59375 31.390625 
Q 8.59375 42.28125 12.203125 53.3125 
Q 15.828125 64.359375 23.1875 75.875 
z
" id="DejaVuSans-40"/>
       <path d="M 51.125 44 
L 36.921875 44 
L 32.8125 27.6875 
L 47.125 27.6875 
z
M 43.796875 71.78125 
L 38.71875 51.515625 
L 52.984375 51.515625 
L 58.109375 71.78125 
L 65.921875 71.78125 
L 60.890625 51.515625 
L 76.125 51.515625 
L 76.125 44 
L 58.984375 44 
L 54.984375 27.6875 
L 70.515625 27.6875 
L 70.515625 20.21875 
L 53.078125 20.21875 
L 48 0 
L 40.1875 0 
L 45.21875 20.21875 
L 30.90625 20.21875 
L 25.875 0 
L 18.015625 0 
L 23.09375 20.21875 
L 7.71875 20.21875 
L 7.71875 27.6875 
L 24.90625 27.6875 
L 29 44 
L 13.28125 44 
L 13.28125 51.515625 
L 30.90625 51.515625 
L 35.890625 71.78125 
z
" id="DejaVuSans-35"/>
       <path id="DejaVuSans-32"/>
       <path d="M 37.109375 75.984375 
L 37.109375 68.5 
L 28.515625 68.5 
Q 23.6875 68.5 21.796875 66.546875 
Q 19.921875 64.59375 19.921875 59.515625 
L 19.921875 54.6875 
L 34.71875 54.6875 
L 34.71875 47.703125 
L 19.921875 47.703125 
L 19.921875 0 
L 10.890625 0 
L 10.890625 47.703125 
L 2.296875 47.703125 
L 2.296875 54.6875 
L 10.890625 54.6875 
L 10.890625 58.5 
Q 10.890625 67.625 15.140625 71.796875 
Q 19.390625 75.984375 28.609375 75.984375 
z
" id="DejaVuSans-102"/>
       <path d="M 4.890625 31.390625 
L 31.203125 31.390625 
L 31.203125 23.390625 
L 4.890625 23.390625 
z
" id="DejaVuSans-45"/>
       <path d="M 56.203125 29.59375 
L 56.203125 25.203125 
L 14.890625 25.203125 
Q 15.484375 15.921875 20.484375 11.0625 
Q 25.484375 6.203125 34.421875 6.203125 
Q 39.59375 6.203125 44.453125 7.46875 
Q 49.3125 8.734375 54.109375 11.28125 
L 54.109375 2.78125 
Q 49.265625 0.734375 44.1875 -0.34375 
Q 39.109375 -1.421875 33.890625 -1.421875 
Q 20.796875 -1.421875 13.15625 6.1875 
Q 5.515625 13.8125 5.515625 26.8125 
Q 5.515625 40.234375 12.765625 48.109375 
Q 20.015625 56 32.328125 56 
Q 43.359375 56 49.78125 48.890625 
Q 56.203125 41.796875 56.203125 29.59375 
z
M 47.21875 32.234375 
Q 47.125 39.59375 43.09375 43.984375 
Q 39.0625 48.390625 32.421875 48.390625 
Q 24.90625 48.390625 20.390625 44.140625 
Q 15.875 39.890625 15.1875 32.171875 
z
" id="DejaVuSans-101"/>
       <path d="M 2.984375 54.6875 
L 12.5 54.6875 
L 29.59375 8.796875 
L 46.6875 54.6875 
L 56.203125 54.6875 
L 35.6875 0 
L 23.484375 0 
z
" id="DejaVuSans-118"/>
       <path d="M 34.28125 27.484375 
Q 23.390625 27.484375 19.1875 25 
Q 14.984375 22.515625 14.984375 16.5 
Q 14.984375 11.71875 18.140625 8.90625 
Q 21.296875 6.109375 26.703125 6.109375 
Q 34.1875 6.109375 38.703125 11.40625 
Q 43.21875 16.703125 43.21875 25.484375 
L 43.21875 27.484375 
z
M 52.203125 31.203125 
L 52.203125 0 
L 43.21875 0 
L 43.21875 8.296875 
Q 40.140625 3.328125 35.546875 0.953125 
Q 30.953125 -1.421875 24.3125 -1.421875 
Q 15.921875 -1.421875 10.953125 3.296875 
Q 6 8.015625 6 15.921875 
Q 6 25.140625 12.171875 29.828125 
Q 18.359375 34.515625 30.609375 34.515625 
L 43.21875 34.515625 
L 43.21875 35.40625 
Q 43.21875 41.609375 39.140625 45 
Q 35.0625 48.390625 27.6875 48.390625 
Q 23 48.390625 18.546875 47.265625 
Q 14.109375 46.140625 10.015625 43.890625 
L 10.015625 52.203125 
Q 14.9375 54.109375 19.578125 55.046875 
Q 24.21875 56 28.609375 56 
Q 40.484375 56 46.34375 49.84375 
Q 52.203125 43.703125 52.203125 31.203125 
z
" id="DejaVuSans-97"/>
       <path d="M 44.28125 53.078125 
L 44.28125 44.578125 
Q 40.484375 46.53125 36.375 47.5 
Q 32.28125 48.484375 27.875 48.484375 
Q 21.1875 48.484375 17.84375 46.4375 
Q 14.5 44.390625 14.5 40.28125 
Q 14.5 37.15625 16.890625 35.375 
Q 19.28125 33.59375 26.515625 31.984375 
L 29.59375 31.296875 
Q 39.15625 29.25 43.1875 25.515625 
Q 47.21875 21.78125 47.21875 15.09375 
Q 47.21875 7.46875 41.1875 3.015625 
Q 35.15625 -1.421875 24.609375 -1.421875 
Q 20.21875 -1.421875 15.453125 -0.5625 
Q 10.6875 0.296875 5.421875 2 
L 5.421875 11.28125 
Q 10.40625 8.6875 15.234375 7.390625 
Q 20.0625 6.109375 24.8125 6.109375 
Q 31.15625 6.109375 34.5625 8.28125 
Q 37.984375 10.453125 37.984375 14.40625 
Q 37.984375 18.0625 35.515625 20.015625 
Q 33.0625 21.96875 24.703125 23.78125 
L 21.578125 24.515625 
Q 13.234375 26.265625 9.515625 29.90625 
Q 5.8125 33.546875 5.8125 39.890625 
Q 5.8125 47.609375 11.28125 51.796875 
Q 16.75 56 26.8125 56 
Q 31.78125 56 36.171875 55.265625 
Q 40.578125 54.546875 44.28125 53.078125 
z
" id="DejaVuSans-115"/>
       <path d="M 25.390625 72.90625 
L 33.6875 72.90625 
L 8.296875 -9.28125 
L 0 -9.28125 
z
" id="DejaVuSans-47"/>
       <path d="M 45.40625 46.390625 
L 45.40625 75.984375 
L 54.390625 75.984375 
L 54.390625 0 
L 45.40625 0 
L 45.40625 8.203125 
Q 42.578125 3.328125 38.25 0.953125 
Q 33.9375 -1.421875 27.875 -1.421875 
Q 17.96875 -1.421875 11.734375 6.484375 
Q 5.515625 14.40625 5.515625 27.296875 
Q 5.515625 40.1875 11.734375 48.09375 
Q 17.96875 56 27.875 56 
Q 33.9375 56 38.25 53.625 
Q 42.578125 51.265625 45.40625 46.390625 
z
M 14.796875 27.296875 
Q 14.796875 17.390625 18.875 11.75 
Q 22.953125 6.109375 30.078125 6.109375 
Q 37.203125 6.109375 41.296875 11.75 
Q 45.40625 17.390625 45.40625 27.296875 
Q 45.40625 37.203125 41.296875 42.84375 
Q 37.203125 48.484375 30.078125 48.484375 
Q 22.953125 48.484375 18.875 42.84375 
Q 14.796875 37.203125 14.796875 27.296875 
z
" id="DejaVuSans-100"/>
       <path d="M 9.421875 54.6875 
L 18.40625 54.6875 
L 18.40625 0 
L 9.421875 0 
z
M 9.421875 75.984375 
L 18.40625 75.984375 
L 18.40625 64.59375 
L 9.421875 64.59375 
z
" id="DejaVuSans-105"/>
       <path d="M 52 44.1875 
Q 55.375 50.25 60.0625 53.125 
Q 64.75 56 71.09375 56 
Q 79.640625 56 84.28125 50.015625 
Q 88.921875 44.046875 88.921875 33.015625 
L 88.921875 0 
L 79.890625 0 
L 79.890625 32.71875 
Q 79.890625 40.578125 77.09375 44.375 
Q 74.3125 48.1875 68.609375 48.1875 
Q 61.625 48.1875 57.5625 43.546875 
Q 53.515625 38.921875 53.515625 30.90625 
L 53.515625 0 
L 44.484375 0 
L 44.484375 32.71875 
Q 44.484375 40.625 41.703125 44.40625 
Q 38.921875 48.1875 33.109375 48.1875 
Q 26.21875 48.1875 22.15625 43.53125 
Q 18.109375 38.875 18.109375 30.90625 
L 18.109375 0 
L 9.078125 0 
L 9.078125 54.6875 
L 18.109375 54.6875 
L 18.109375 46.1875 
Q 21.1875 51.21875 25.484375 53.609375 
Q 29.78125 56 35.6875 56 
Q 41.65625 56 45.828125 52.96875 
Q 50 49.953125 52 44.1875 
z
" id="DejaVuSans-109"/>
       <path d="M 54.890625 33.015625 
L 54.890625 0 
L 45.90625 0 
L 45.90625 32.71875 
Q 45.90625 40.484375 42.875 44.328125 
Q 39.84375 48.1875 33.796875 48.1875 
Q 26.515625 48.1875 22.3125 43.546875 
Q 18.109375 38.921875 18.109375 30.90625 
L 18.109375 0 
L 9.078125 0 
L 9.078125 54.6875 
L 18.109375 54.6875 
L 18.109375 46.1875 
Q 21.34375 51.125 25.703125 53.5625 
Q 30.078125 56 35.796875 56 
Q 45.21875 56 50.046875 50.171875 
Q 54.890625 44.34375 54.890625 33.015625 
z
" id="DejaVuSans-110"/>
       <path d="M 8.015625 75.875 
L 15.828125 75.875 
Q 23.140625 64.359375 26.78125 53.3125 
Q 30.421875 42.28125 30.421875 31.390625 
Q 30.421875 20.453125 26.78125 9.375 
Q 23.140625 -1.703125 15.828125 -13.1875 
L 8.015625 -13.1875 
Q 14.5 -2 17.703125 9.0625 
Q 20.90625 20.125 20.90625 31.390625 
Q 20.90625 42.671875 17.703125 53.65625 
Q 14.5 64.65625 8.015625 75.875 
z
" id="DejaVuSans-41"/>
      </defs>
      <use xlink:href="#DejaVuSans-108"/>
      <use x="27.783203" xlink:href="#DejaVuSans-111"/>
      <use x="88.964844" xlink:href="#DejaVuSans-103"/>
      <use x="152.441406" xlink:href="#DejaVuSans-49"/>
      <use x="216.064453" xlink:href="#DejaVuSans-48"/>
      <use x="279.6875" xlink:href="#DejaVuSans-40"/>
      <use x="318.701172" xlink:href="#DejaVuSans-35"/>
      <use x="402.490234" xlink:href="#DejaVuSans-32"/>
      <use x="434.277344" xlink:href="#DejaVuSans-102"/>
      <use x="463.982422" xlink:href="#DejaVuSans-45"/>
      <use x="500.066406" xlink:href="#DejaVuSans-101"/>
      <use x="561.589844" xlink:href="#DejaVuSans-118"/>
      <use x="620.769531" xlink:href="#DejaVuSans-97"/>
      <use x="682.048828" xlink:href="#DejaVuSans-108"/>
      <use x="709.832031" xlink:href="#DejaVuSans-115"/>
      <use x="761.931641" xlink:href="#DejaVuSans-32"/>
      <use x="793.71875" xlink:href="#DejaVuSans-47"/>
      <use x="827.410156" xlink:href="#DejaVuSans-32"/>
      <use x="859.197266" xlink:href="#DejaVuSans-100"/>
      <use x="922.673828" xlink:href="#DejaVuSans-105"/>
      <use x="950.457031" xlink:href="#DejaVuSans-109"/>
      <use x="1047.869141" xlink:href="#DejaVuSans-101"/>
      <use x="1109.392578" xlink:href="#DejaVuSans-110"/>
      <use x="1172.771484" xlink:href="#DejaVuSans-115"/>
      <use x="1224.871094" xlink:href="#DejaVuSans-105"/>
      <use x="1252.654297" xlink:href="#DejaVuSans-111"/>
      <use x="1313.835938" xlink:href="#DejaVuSans-110"/>
      <use x="1377.214844" xlink:href="#DejaVuSans-41"/>
     </g>
    </g>
   </g>
   <g id="matplotlib.axis_2">
    <g id="ytick_1">
     <g id="line2d_17">
      <path clip-path="url(#p41b5a83012)" d="M 57.6 298.944 
L 338.688 298.944 
" style="fill:none;stroke:#b0b0b0;stroke-linecap:square;stroke-width:0.8;"/>
     </g>
     <g id="line2d_18">
      <defs>
       <path d="M 0 0 
L -3.5 0 
" id="m803ca64f94" style="stroke:#000000;stroke-width:0.8;"/>
      </defs>
      <g>
       <use style="stroke:#000000;stroke-width:0.8;" x="57.6" xlink:href="#m803ca64f94" y="298.944"/>
      </g>
     </g>
     <g id="text_6">
      <!-- 0.0 -->
      <g transform="translate(25.155 305.02275)scale(0.16 -0.16)">
       <defs>
        <path d="M 10.6875 12.40625 
L 21 12.40625 
L 21 0 
L 10.6875 0 
z
" id="DejaVuSans-46"/>
       </defs>
       <use xlink:href="#DejaVuSans-48"/>
       <use x="63.623047" xlink:href="#DejaVuSans-46"/>
       <use x="95.410156" xlink:href="#DejaVuSans-48"/>
      </g>
     </g>
    </g>
    <g id="ytick_2">
     <g id="line2d_19">
      <path clip-path="url(#p41b5a83012)" d="M 57.6 240.431525 
L 338.688 240.431525 
" style="fill:none;stroke:#b0b0b0;stroke-linecap:square;stroke-width:0.8;"/>
     </g>
     <g id="line2d_20">
      <g>
       <use style="stroke:#000000;stroke-width:0.8;" x="57.6" xlink:href="#m803ca64f94" y="240.431525"/>
      </g>
     </g>
     <g id="text_7">
      <!-- 0.2 -->
      <g transform="translate(25.155 246.510275)scale(0.16 -0.16)">
       <use xlink:href="#DejaVuSans-48"/>
       <use x="63.623047" xlink:href="#DejaVuSans-46"/>
       <use x="95.410156" xlink:href="#DejaVuSans-50"/>
      </g>
     </g>
    </g>
    <g id="ytick_3">
     <g id="line2d_21">
      <path clip-path="url(#p41b5a83012)" d="M 57.6 181.91905 
L 338.688 181.91905 
" style="fill:none;stroke:#b0b0b0;stroke-linecap:square;stroke-width:0.8;"/>
     </g>
     <g id="line2d_22">
      <g>
       <use style="stroke:#000000;stroke-width:0.8;" x="57.6" xlink:href="#m803ca64f94" y="181.91905"/>
      </g>
     </g>
     <g id="text_8">
      <!-- 0.4 -->
      <g transform="translate(25.155 187.9978)scale(0.16 -0.16)">
       <use xlink:href="#DejaVuSans-48"/>
       <use x="63.623047" xlink:href="#DejaVuSans-46"/>
       <use x="95.410156" xlink:href="#DejaVuSans-52"/>
      </g>
     </g>
    </g>
    <g id="ytick_4">
     <g id="line2d_23">
      <path clip-path="url(#p41b5a83012)" d="M 57.6 123.406574 
L 338.688 123.406574 
" style="fill:none;stroke:#b0b0b0;stroke-linecap:square;stroke-width:0.8;"/>
     </g>
     <g id="line2d_24">
      <g>
       <use style="stroke:#000000;stroke-width:0.8;" x="57.6" xlink:href="#m803ca64f94" y="123.406574"/>
      </g>
     </g>
     <g id="text_9">
      <!-- 0.6 -->
      <g transform="translate(25.155 129.485324)scale(0.16 -0.16)">
       <use xlink:href="#DejaVuSans-48"/>
       <use x="63.623047" xlink:href="#DejaVuSans-46"/>
       <use x="95.410156" xlink:href="#DejaVuSans-54"/>
      </g>
     </g>
    </g>
    <g id="ytick_5">
     <g id="line2d_25">
      <path clip-path="url(#p41b5a83012)" d="M 57.6 64.894099 
L 338.688 64.894099 
" style="fill:none;stroke:#b0b0b0;stroke-linecap:square;stroke-width:0.8;"/>
     </g>
     <g id="line2d_26">
      <g>
       <use style="stroke:#000000;stroke-width:0.8;" x="57.6" xlink:href="#m803ca64f94" y="64.894099"/>
      </g>
     </g>
     <g id="text_10">
      <!-- 0.8 -->
      <g transform="translate(25.155 70.972849)scale(0.16 -0.16)">
       <defs>
        <path d="M 31.78125 34.625 
Q 24.75 34.625 20.71875 30.859375 
Q 16.703125 27.09375 16.703125 20.515625 
Q 16.703125 13.921875 20.71875 10.15625 
Q 24.75 6.390625 31.78125 6.390625 
Q 38.8125 6.390625 42.859375 10.171875 
Q 46.921875 13.96875 46.921875 20.515625 
Q 46.921875 27.09375 42.890625 30.859375 
Q 38.875 34.625 31.78125 34.625 
z
M 21.921875 38.8125 
Q 15.578125 40.375 12.03125 44.71875 
Q 8.5 49.078125 8.5 55.328125 
Q 8.5 64.0625 14.71875 69.140625 
Q 20.953125 74.21875 31.78125 74.21875 
Q 42.671875 74.21875 48.875 69.140625 
Q 55.078125 64.0625 55.078125 55.328125 
Q 55.078125 49.078125 51.53125 44.71875 
Q 48 40.375 41.703125 38.8125 
Q 48.828125 37.15625 52.796875 32.3125 
Q 56.78125 27.484375 56.78125 20.515625 
Q 56.78125 9.90625 50.3125 4.234375 
Q 43.84375 -1.421875 31.78125 -1.421875 
Q 19.734375 -1.421875 13.25 4.234375 
Q 6.78125 9.90625 6.78125 20.515625 
Q 6.78125 27.484375 10.78125 32.3125 
Q 14.796875 37.15625 21.921875 38.8125 
z
M 18.3125 54.390625 
Q 18.3125 48.734375 21.84375 45.5625 
Q 25.390625 42.390625 31.78125 42.390625 
Q 38.140625 42.390625 41.71875 45.5625 
Q 45.3125 48.734375 45.3125 54.390625 
Q 45.3125 60.0625 41.71875 63.234375 
Q 38.140625 66.40625 31.78125 66.40625 
Q 25.390625 66.40625 21.84375 63.234375 
Q 18.3125 60.0625 18.3125 54.390625 
z
" id="DejaVuSans-56"/>
       </defs>
       <use xlink:href="#DejaVuSans-48"/>
       <use x="63.623047" xlink:href="#DejaVuSans-46"/>
       <use x="95.410156" xlink:href="#DejaVuSans-56"/>
      </g>
     </g>
    </g>
    <g id="ytick_6">
     <g id="line2d_27">
      <path clip-path="url(#p41b5a83012)" d="M 57.6 6.381624 
L 338.688 6.381624 
" style="fill:none;stroke:#b0b0b0;stroke-linecap:square;stroke-width:0.8;"/>
     </g>
     <g id="line2d_28">
      <g>
       <use style="stroke:#000000;stroke-width:0.8;" x="57.6" xlink:href="#m803ca64f94" y="6.381624"/>
      </g>
     </g>
     <g id="text_11">
      <!-- 1.0 -->
      <g transform="translate(25.155 12.460374)scale(0.16 -0.16)">
       <use xlink:href="#DejaVuSans-49"/>
       <use x="63.623047" xlink:href="#DejaVuSans-46"/>
       <use x="95.410156" xlink:href="#DejaVuSans-48"/>
      </g>
     </g>
    </g>
    <g id="text_12">
     <!-- Fraction of function,target pairs -->
     <g transform="translate(17.619531 285.585)rotate(-90)scale(0.17 -0.17)">
      <defs>
       <path d="M 9.8125 72.90625 
L 51.703125 72.90625 
L 51.703125 64.59375 
L 19.671875 64.59375 
L 19.671875 43.109375 
L 48.578125 43.109375 
L 48.578125 34.8125 
L 19.671875 34.8125 
L 19.671875 0 
L 9.8125 0 
z
" id="DejaVuSans-70"/>
       <path d="M 41.109375 46.296875 
Q 39.59375 47.171875 37.8125 47.578125 
Q 36.03125 48 33.890625 48 
Q 26.265625 48 22.1875 43.046875 
Q 18.109375 38.09375 18.109375 28.8125 
L 18.109375 0 
L 9.078125 0 
L 9.078125 54.6875 
L 18.109375 54.6875 
L 18.109375 46.1875 
Q 20.953125 51.171875 25.484375 53.578125 
Q 30.03125 56 36.53125 56 
Q 37.453125 56 38.578125 55.875 
Q 39.703125 55.765625 41.0625 55.515625 
z
" id="DejaVuSans-114"/>
       <path d="M 48.78125 52.59375 
L 48.78125 44.1875 
Q 44.96875 46.296875 41.140625 47.34375 
Q 37.3125 48.390625 33.40625 48.390625 
Q 24.65625 48.390625 19.8125 42.84375 
Q 14.984375 37.3125 14.984375 27.296875 
Q 14.984375 17.28125 19.8125 11.734375 
Q 24.65625 6.203125 33.40625 6.203125 
Q 37.3125 6.203125 41.140625 7.25 
Q 44.96875 8.296875 48.78125 10.40625 
L 48.78125 2.09375 
Q 45.015625 0.34375 40.984375 -0.53125 
Q 36.96875 -1.421875 32.421875 -1.421875 
Q 20.0625 -1.421875 12.78125 6.34375 
Q 5.515625 14.109375 5.515625 27.296875 
Q 5.515625 40.671875 12.859375 48.328125 
Q 20.21875 56 33.015625 56 
Q 37.15625 56 41.109375 55.140625 
Q 45.0625 54.296875 48.78125 52.59375 
z
" id="DejaVuSans-99"/>
       <path d="M 18.3125 70.21875 
L 18.3125 54.6875 
L 36.8125 54.6875 
L 36.8125 47.703125 
L 18.3125 47.703125 
L 18.3125 18.015625 
Q 18.3125 11.328125 20.140625 9.421875 
Q 21.96875 7.515625 27.59375 7.515625 
L 36.8125 7.515625 
L 36.8125 0 
L 27.59375 0 
Q 17.1875 0 13.234375 3.875 
Q 9.28125 7.765625 9.28125 18.015625 
L 9.28125 47.703125 
L 2.6875 47.703125 
L 2.6875 54.6875 
L 9.28125 54.6875 
L 9.28125 70.21875 
z
" id="DejaVuSans-116"/>
       <path d="M 8.5 21.578125 
L 8.5 54.6875 
L 17.484375 54.6875 
L 17.484375 21.921875 
Q 17.484375 14.15625 20.5 10.265625 
Q 23.53125 6.390625 29.59375 6.390625 
Q 36.859375 6.390625 41.078125 11.03125 
Q 45.3125 15.671875 45.3125 23.6875 
L 45.3125 54.6875 
L 54.296875 54.6875 
L 54.296875 0 
L 45.3125 0 
L 45.3125 8.40625 
Q 42.046875 3.421875 37.71875 1 
Q 33.40625 -1.421875 27.6875 -1.421875 
Q 18.265625 -1.421875 13.375 4.4375 
Q 8.5 10.296875 8.5 21.578125 
z
M 31.109375 56 
z
" id="DejaVuSans-117"/>
       <path d="M 11.71875 12.40625 
L 22.015625 12.40625 
L 22.015625 4 
L 14.015625 -11.625 
L 7.71875 -11.625 
L 11.71875 4 
z
" id="DejaVuSans-44"/>
       <path d="M 18.109375 8.203125 
L 18.109375 -20.796875 
L 9.078125 -20.796875 
L 9.078125 54.6875 
L 18.109375 54.6875 
L 18.109375 46.390625 
Q 20.953125 51.265625 25.265625 53.625 
Q 29.59375 56 35.59375 56 
Q 45.5625 56 51.78125 48.09375 
Q 58.015625 40.1875 58.015625 27.296875 
Q 58.015625 14.40625 51.78125 6.484375 
Q 45.5625 -1.421875 35.59375 -1.421875 
Q 29.59375 -1.421875 25.265625 0.953125 
Q 20.953125 3.328125 18.109375 8.203125 
z
M 48.6875 27.296875 
Q 48.6875 37.203125 44.609375 42.84375 
Q 40.53125 48.484375 33.40625 48.484375 
Q 26.265625 48.484375 22.1875 42.84375 
Q 18.109375 37.203125 18.109375 27.296875 
Q 18.109375 17.390625 22.1875 11.75 
Q 26.265625 6.109375 33.40625 6.109375 
Q 40.53125 6.109375 44.609375 11.75 
Q 48.6875 17.390625 48.6875 27.296875 
z
" id="DejaVuSans-112"/>
      </defs>
      <use xlink:href="#DejaVuSans-70"/>
      <use x="50.269531" xlink:href="#DejaVuSans-114"/>
      <use x="91.382812" xlink:href="#DejaVuSans-97"/>
      <use x="152.662109" xlink:href="#DejaVuSans-99"/>
      <use x="207.642578" xlink:href="#DejaVuSans-116"/>
      <use x="246.851562" xlink:href="#DejaVuSans-105"/>
      <use x="274.634766" xlink:href="#DejaVuSans-111"/>
      <use x="335.816406" xlink:href="#DejaVuSans-110"/>
      <use x="399.195312" xlink:href="#DejaVuSans-32"/>
      <use x="430.982422" xlink:href="#DejaVuSans-111"/>
      <use x="492.164062" xlink:href="#DejaVuSans-102"/>
      <use x="527.369141" xlink:href="#DejaVuSans-32"/>
      <use x="559.15625" xlink:href="#DejaVuSans-102"/>
      <use x="594.361328" xlink:href="#DejaVuSans-117"/>
      <use x="657.740234" xlink:href="#DejaVuSans-110"/>
      <use x="721.119141" xlink:href="#DejaVuSans-99"/>
      <use x="776.099609" xlink:href="#DejaVuSans-116"/>
      <use x="815.308594" xlink:href="#DejaVuSans-105"/>
      <use x="843.091797" xlink:href="#DejaVuSans-111"/>
      <use x="904.273438" xlink:href="#DejaVuSans-110"/>
      <use x="967.652344" xlink:href="#DejaVuSans-44"/>
      <use x="999.439453" xlink:href="#DejaVuSans-116"/>
      <use x="1038.648438" xlink:href="#DejaVuSans-97"/>
      <use x="1099.927734" xlink:href="#DejaVuSans-114"/>
      <use x="1139.291016" xlink:href="#DejaVuSans-103"/>
      <use x="1202.767578" xlink:href="#DejaVuSans-101"/>
      <use x="1264.291016" xlink:href="#DejaVuSans-116"/>
      <use x="1303.5" xlink:href="#DejaVuSans-32"/>
      <use x="1335.287109" xlink:href="#DejaVuSans-112"/>
      <use x="1398.763672" xlink:href="#DejaVuSans-97"/>
      <use x="1460.042969" xlink:href="#DejaVuSans-105"/>
      <use x="1487.826172" xlink:href="#DejaVuSans-114"/>
      <use x="1528.939453" xlink:href="#DejaVuSans-115"/>
     </g>
    </g>
   </g>
   <g id="line2d_29">
    <defs>
     <path d="M 0 1.5 
C 0.397805 1.5 0.77937 1.341951 1.06066 1.06066 
C 1.341951 0.77937 1.5 0.397805 1.5 0 
C 1.5 -0.397805 1.341951 -0.77937 1.06066 -1.06066 
C 0.77937 -1.341951 0.397805 -1.5 0 -1.5 
C -0.397805 -1.5 -0.77937 -1.341951 -1.06066 -1.06066 
C -1.341951 -0.77937 -1.5 -0.397805 -1.5 0 
C -1.5 0.397805 -1.341951 0.77937 -1.06066 1.06066 
C -0.77937 1.341951 -0.397805 1.5 0 1.5 
z
" id="mde0ba88b16" style="stroke:#000080;"/>
    </defs>
    <g>
     <use style="fill:#000080;stroke:#000080;" x="155.015814" xlink:href="#mde0ba88b16" y="6.381624"/>
     <use style="fill:#000080;stroke:#000080;" x="155.015814" xlink:href="#mde0ba88b16" y="6.381624"/>
    </g>
   </g>
   <g id="line2d_30">
    <path d="M 38.440992 298.944 
L 38.440992 272.556021 
L 50.52898 272.556021 
L 50.52898 271.982369 
L 62.616969 271.982369 
L 62.616969 271.408718 
L 66.508432 271.408718 
L 66.508432 270.835066 
L 78.59642 270.835066 
L 78.59642 270.261414 
L 85.66744 270.261414 
L 85.66744 269.687762 
L 86.792945 269.687762 
L 86.792945 269.114111 
L 90.684409 269.114111 
L 90.684409 268.540459 
L 91.535274 268.540459 
L 91.535274 267.966807 
L 92.34655 267.966807 
L 92.34655 267.393156 
L 93.121756 267.393156 
L 93.121756 265.6722 
L 97.755429 265.6722 
L 97.755429 263.377593 
L 98.32726 263.377593 
L 98.32726 262.23029 
L 99.41757 262.23029 
L 99.41757 261.656638 
L 99.938184 261.656638 
L 99.938184 261.082987 
L 101.412804 261.082987 
L 101.412804 259.362031 
L 102.772397 259.362031 
L 102.772397 258.78838 
L 103.203018 258.78838 
L 103.203018 258.214728 
L 104.033617 258.214728 
L 104.033617 257.067425 
L 104.434538 257.067425 
L 104.434538 254.772818 
L 105.951954 254.772818 
L 105.951954 253.625514 
L 106.66386 253.625514 
L 106.66386 253.051863 
L 107.347841 253.051863 
L 107.347841 252.478211 
L 109.252198 252.478211 
L 109.252198 251.904559 
L 109.550313 251.904559 
L 109.550313 250.183604 
L 111.239304 250.183604 
L 111.239304 249.609952 
L 111.505558 249.609952 
L 111.505558 247.315345 
L 111.767808 247.315345 
L 111.767808 246.741694 
L 113.022974 246.741694 
L 113.022974 246.168042 
L 113.965867 246.168042 
L 113.965867 245.59439 
L 114.641021 245.59439 
L 114.641021 242.726132 
L 114.860386 242.726132 
L 114.860386 242.15248 
L 115.711251 242.15248 
L 115.711251 241.005176 
L 116.323218 241.005176 
L 116.323218 240.431525 
L 116.719583 240.431525 
L 116.719583 239.857873 
L 116.914437 239.857873 
L 116.914437 238.71057 
L 117.486268 238.71057 
L 117.486268 236.415963 
L 117.857331 236.415963 
L 117.857331 235.842311 
L 118.039942 235.842311 
L 118.039942 234.121356 
L 118.576578 234.121356 
L 118.576578 233.547704 
L 118.925375 233.547704 
L 118.925375 232.974052 
L 120.254726 232.974052 
L 120.254726 231.253097 
L 120.883236 231.253097 
L 120.883236 230.105794 
L 121.489881 230.105794 
L 121.489881 227.811187 
L 122.362027 227.811187 
L 122.362027 226.663884 
L 122.920132 226.663884 
L 122.920132 226.090232 
L 123.725164 226.090232 
L 123.725164 225.51658 
L 124.114161 225.51658 
L 124.114161 224.942928 
L 124.494669 224.942928 
L 124.494669 223.795625 
L 124.619683 223.795625 
L 124.619683 222.648321 
L 124.867052 222.648321 
L 124.867052 222.07467 
L 124.989434 222.07467 
L 124.989434 220.927366 
L 126.281824 220.927366 
L 126.281824 220.353715 
L 126.50685 220.353715 
L 126.50685 219.780063 
L 127.165014 219.780063 
L 127.165014 219.206411 
L 127.799239 219.206411 
L 127.799239 216.911804 
L 128.107907 216.911804 
L 128.209594 215.764501 
L 128.511146 215.764501 
L 128.610515 214.617197 
L 128.905271 214.617197 
L 128.905271 214.043546 
L 129.385722 214.043546 
L 129.480244 209.454332 
L 130.487516 209.454332 
L 130.487516 208.88068 
L 130.664567 208.88068 
L 130.752422 199.702253 
L 130.839837 199.702253 
L 130.839837 198.554949 
L 131.355321 198.554949 
L 131.355321 197.407646 
L 131.690703 197.407646 
L 131.77355 193.965736 
L 131.938072 193.965736 
L 131.938072 188.80287 
L 132.659801 188.80287 
L 132.73818 187.081915 
L 133.124876 187.081915 
L 133.201197 184.787308 
L 133.352844 184.787308 
L 133.352844 184.213656 
L 133.57787 184.213656 
L 133.57787 183.066353 
L 133.800029 183.066353 
L 133.800029 182.492701 
L 134.019394 182.492701 
L 134.091907 177.903487 
L 134.37898 177.903487 
L 134.37898 177.329836 
L 135.415281 177.329836 
L 135.415281 173.314274 
L 135.615352 173.314274 
L 135.615352 172.740622 
L 135.747468 172.740622 
L 135.813153 169.872363 
L 136.582658 169.872363 
L 136.582658 168.151408 
L 136.707671 168.151408 
L 136.707671 167.004105 
L 136.831795 167.004105 
L 136.893527 165.856801 
L 136.955041 165.856801 
L 136.955041 165.28315 
L 137.259399 165.28315 
L 137.259399 163.562195 
L 137.37967 163.562195 
L 137.37967 162.414891 
L 137.852629 162.414891 
L 137.852629 161.267588 
L 137.968891 161.267588 
L 137.968891 160.693936 
L 138.199116 160.693936 
L 138.256201 157.825677 
L 138.538853 157.825677 
L 138.594838 154.383767 
L 138.927025 154.383767 
L 138.927025 150.941857 
L 139.253002 150.941857 
L 139.360321 147.499946 
L 139.625765 147.499946 
L 139.678372 145.778991 
L 139.835248 145.778991 
L 139.835248 145.20534 
L 140.042245 145.20534 
L 140.042245 144.631688 
L 140.195896 144.631688 
L 140.195896 143.484384 
L 140.39868 143.484384 
L 140.39868 141.763429 
L 140.599134 141.763429 
L 140.698504 138.895171 
L 140.846504 138.895171 
L 140.944478 136.026912 
L 140.993259 136.026912 
L 141.090414 129.143091 
L 141.235139 129.143091 
L 141.235139 128.56944 
L 141.378673 128.56944 
L 141.47371 121.685619 
L 141.755753 121.685619 
L 141.755753 120.538316 
L 142.124852 120.538316 
L 142.124852 114.801798 
L 142.396639 114.801798 
L 142.441528 113.080843 
L 142.796538 113.080843 
L 142.796538 110.786236 
L 143.101352 110.786236 
L 143.101352 109.638933 
L 143.273169 109.638933 
L 143.273169 109.065281 
L 143.695448 109.065281 
L 143.778691 106.770674 
L 143.820164 106.770674 
L 143.861538 103.328764 
L 143.943994 103.328764 
L 144.026061 94.723988 
L 144.189046 94.723988 
L 144.189046 91.282078 
L 144.310293 91.282078 
L 144.310293 90.708426 
L 144.589967 90.708426 
L 144.589967 90.134775 
L 144.747789 90.134775 
L 144.747789 87.266516 
L 144.904196 87.266516 
L 144.904196 86.692864 
L 145.440832 86.692864 
L 145.516164 79.809044 
L 145.591172 79.809044 
L 145.591172 78.088089 
L 145.814278 78.088089 
L 145.888018 72.925223 
L 145.961446 72.925223 
L 145.961446 71.77792 
L 146.107383 71.77792 
L 146.107383 68.909661 
L 146.324022 68.909661 
L 146.324022 68.336009 
L 146.573414 68.336009 
L 146.573414 67.188706 
L 146.819289 67.188706 
L 146.854132 66.041402 
L 146.958248 66.041402 
L 147.027314 62.599492 
L 147.232888 62.599492 
L 147.334773 57.436627 
L 147.436066 57.436627 
L 147.536775 54.568368 
L 147.603592 54.568368 
L 147.636905 50.552806 
L 147.769524 50.552806 
L 147.86833 48.831851 
L 147.901141 48.831851 
L 147.901141 47.684547 
L 148.064279 47.684547 
L 148.064279 47.110896 
L 148.258051 47.110896 
L 148.258051 43.095334 
L 148.417899 43.095334 
L 148.513109 41.374379 
L 148.701984 41.374379 
L 148.79566 38.50612 
L 148.888835 38.50612 
L 148.888835 34.490558 
L 149.073705 34.490558 
L 149.073705 30.474996 
L 149.226281 30.474996 
L 149.226281 29.901344 
L 150.085825 29.901344 
L 150.172372 26.459434 
L 150.201126 26.459434 
L 150.229833 24.164827 
L 150.31567 24.164827 
L 150.31567 23.591175 
L 150.486088 23.591175 
L 150.486088 23.017524 
L 150.598782 23.017524 
L 150.654857 20.722917 
L 150.738632 20.722917 
L 150.766468 19.001962 
L 151.178764 19.001962 
L 151.178764 18.42831 
L 151.340991 18.42831 
L 151.367883 16.707355 
L 151.660987 16.707355 
L 151.713753 13.839096 
L 151.792604 13.839096 
L 151.792604 12.118141 
L 152.410901 12.118141 
L 152.410901 10.970838 
L 152.587184 10.970838 
L 152.587184 9.823534 
L 152.811246 9.823534 
L 152.811246 8.676231 
L 153.129893 8.676231 
L 153.178403 7.528927 
L 154.326601 7.528927 
L 154.326601 6.955275 
L 155.015814 6.955275 
L 155.015814 6.381624 
L 338.688 6.381624 
L 338.688 6.381624 
" style="fill:none;stroke:#000080;stroke-linecap:square;stroke-width:1.5;"/>
   </g>
   <g id="line2d_31">
    <defs>
     <path d="M 0 6 
C 1.591219 6 3.117479 5.367802 4.242641 4.242641 
C 5.367802 3.117479 6 1.591219 6 0 
C 6 -1.591219 5.367802 -3.117479 4.242641 -4.242641 
C 3.117479 -5.367802 1.591219 -6 0 -6 
C -1.591219 -6 -3.117479 -5.367802 -4.242641 -4.242641 
C -5.367802 -3.117479 -6 -1.591219 -6 0 
C -6 1.591219 -5.367802 3.117479 -4.242641 4.242641 
C -3.117479 5.367802 -1.591219 6 0 6 
z
" id="mf6e8a75a2e" style="stroke:#000080;stroke-width:1.5;"/>
    </defs>
    <g>
     <use style="fill-opacity:0;stroke:#000080;stroke-width:1.5;" x="85.66744" xlink:href="#mf6e8a75a2e" y="269.687762"/>
     <use style="fill-opacity:0;stroke:#000080;stroke-width:1.5;" x="138.927025" xlink:href="#mf6e8a75a2e" y="154.383767"/>
     <use style="fill-opacity:0;stroke:#000080;stroke-width:1.5;" x="150.598782" xlink:href="#mf6e8a75a2e" y="22.443872"/>
     <use style="fill-opacity:0;stroke:#000080;stroke-width:1.5;" x="155.015814" xlink:href="#mf6e8a75a2e" y="6.381624"/>
     <use style="fill-opacity:0;stroke:#000080;stroke-width:1.5;" x="155.015814" xlink:href="#mf6e8a75a2e" y="6.381624"/>
     <use style="fill-opacity:0;stroke:#000080;stroke-width:1.5;" x="338.688" xlink:href="#mf6e8a75a2e" y="6.381624"/>
    </g>
   </g>
   <g id="line2d_32">
    <path style="fill:none;stroke:#000080;stroke-linecap:square;stroke-width:1.5;"/>
    <g/>
   </g>
   <g id="line2d_33">
    <defs>
     <path d="M 0 1.5 
C 0.397805 1.5 0.77937 1.341951 1.06066 1.06066 
C 1.341951 0.77937 1.5 0.397805 1.5 0 
C 1.5 -0.397805 1.341951 -0.77937 1.06066 -1.06066 
C 0.77937 -1.341951 0.397805 -1.5 0 -1.5 
C -0.397805 -1.5 -0.77937 -1.341951 -1.06066 -1.06066 
C -1.341951 -0.77937 -1.5 -0.397805 -1.5 0 
C -1.5 0.397805 -1.341951 0.77937 -1.06066 1.06066 
C -0.77937 1.341951 -0.397805 1.5 0 1.5 
z
" id="m2e29846ab4" style="stroke:#ff00ff;"/>
    </defs>
    <g>
     <use style="fill:#ff00ff;stroke:#ff00ff;" x="170.18316" xlink:href="#m2e29846ab4" y="6.381624"/>
     <use style="fill:#ff00ff;stroke:#ff00ff;" x="170.18316" xlink:href="#m2e29846ab4" y="6.381624"/>
    </g>
   </g>
   <g id="line2d_34">
    <path d="M 120.254726 298.944 
L 120.254726 298.370348 
L 133.04822 298.370348 
L 133.04822 297.223045 
L 134.37898 297.223045 
L 134.37898 296.649393 
L 137.735587 296.649393 
L 137.735587 296.075741 
L 138.538853 296.075741 
L 138.538853 293.781135 
L 139.678372 293.781135 
L 139.678372 292.633831 
L 139.939053 292.633831 
L 140.042245 289.191921 
L 140.246813 289.191921 
L 140.297583 287.470966 
L 141.47371 287.470966 
L 141.47371 284.602707 
L 142.033307 284.602707 
L 142.033307 283.455404 
L 142.351634 283.455404 
L 142.351634 282.881752 
L 142.708461 282.881752 
L 142.708461 282.3081 
L 143.014805 282.3081 
L 143.014805 281.160797 
L 143.737119 281.160797 
L 143.737119 280.013493 
L 144.148442 280.013493 
L 144.229555 277.718886 
L 144.310293 277.718886 
L 144.310293 276.571583 
L 144.589967 276.571583 
L 144.589967 275.997931 
L 144.747789 275.997931 
L 144.747789 272.556021 
L 144.904196 272.556021 
L 144.94308 269.114111 
L 145.289185 269.114111 
L 145.289185 267.393156 
L 145.440832 267.393156 
L 145.516164 265.098549 
L 145.777292 265.098549 
L 145.888018 262.803942 
L 146.034567 262.803942 
L 146.034567 261.656638 
L 146.324022 261.656638 
L 146.431341 260.509335 
L 146.573414 260.509335 
L 146.573414 259.362031 
L 146.749392 259.362031 
L 146.819289 257.067425 
L 147.198794 257.067425 
L 147.232888 255.346469 
L 147.536775 255.346469 
L 147.636905 253.625514 
L 147.901141 253.625514 
L 147.999207 252.478211 
L 148.096724 252.478211 
L 148.193699 249.036301 
L 148.258051 249.036301 
L 148.258051 248.462649 
L 148.888835 248.462649 
L 148.888835 247.888997 
L 149.104327 247.888997 
L 149.104327 247.315345 
L 149.377533 247.315345 
L 149.377533 246.741694 
L 150.085825 246.741694 
L 150.085825 245.59439 
L 150.766468 245.59439 
L 150.766468 245.020738 
L 153.129893 245.020738 
L 153.129893 244.447087 
L 154.596634 244.447087 
L 154.596634 243.873435 
L 154.707925 243.873435 
L 154.707925 242.726132 
L 154.972161 242.726132 
L 155.0376 241.578828 
L 155.210911 241.578828 
L 155.318362 239.284221 
L 155.403849 239.284221 
L 155.403849 238.136918 
L 155.783437 238.136918 
L 155.845906 236.989614 
L 156.073064 236.989614 
L 156.073064 236.415963 
L 156.297301 236.415963 
L 156.297301 235.842311 
L 156.578586 235.842311 
L 156.658127 233.547704 
L 156.697761 233.547704 
L 156.757045 231.826749 
L 156.835778 231.826749 
L 156.835778 229.532142 
L 157.031069 229.532142 
L 157.031069 228.95849 
L 157.262567 228.95849 
L 157.319964 227.237535 
L 157.396202 227.237535 
L 157.453162 226.090232 
L 157.883783 226.090232 
L 157.957601 219.780063 
L 158.122556 219.780063 
L 158.231665 218.059108 
L 158.340096 218.059108 
L 158.429943 214.617197 
L 158.572743 214.617197 
L 158.572743 212.896242 
L 158.749613 212.896242 
L 158.749613 212.322591 
L 158.924708 212.322591 
L 158.924708 211.748939 
L 159.080804 211.748939 
L 159.132527 207.733377 
L 159.557689 207.733377 
L 159.624763 206.586073 
L 159.69158 206.586073 
L 159.758143 203.717815 
L 160.005512 203.717815 
L 160.087195 199.128601 
L 160.184713 199.128601 
L 160.265562 195.686691 
L 160.297798 195.686691 
L 160.297798 195.113039 
L 160.426146 195.113039 
L 160.521792 193.392084 
L 160.601097 193.392084 
L 160.711523 188.80287 
L 160.80562 188.80287 
L 160.899212 182.492701 
L 160.992304 182.492701 
L 161.084903 179.050791 
L 161.131018 179.050791 
L 161.222884 176.756184 
L 161.268637 176.756184 
L 161.359783 172.740622 
L 161.420284 172.740622 
L 161.525657 161.267588 
L 161.734513 161.267588 
L 161.749336 155.53107 
L 161.88218 155.53107 
L 161.955547 153.236464 
L 161.999419 153.236464 
L 162.086834 149.794553 
L 162.115875 149.794553 
L 162.20271 142.910733 
L 162.346481 142.910733 
L 162.44642 136.600564 
L 162.474869 136.600564 
L 162.517456 131.437698 
L 162.630514 131.437698 
L 162.728843 127.995788 
L 162.756836 127.995788 
L 162.756836 127.422136 
L 162.896128 127.422136 
L 163.006766 119.964664 
L 163.061823 119.964664 
L 163.103002 116.522754 
L 163.21234 116.522754 
L 163.307451 105.623371 
L 163.348054 105.623371 
L 163.348054 103.902416 
L 163.549667 103.902416 
L 163.642961 96.444944 
L 163.669525 96.444944 
L 163.775378 88.413819 
L 163.788565 88.413819 
L 163.788565 87.840168 
L 163.906798 87.840168 
L 163.959089 80.382695 
L 164.102088 80.382695 
L 164.179597 76.367133 
L 164.218222 76.367133 
L 164.243924 74.646178 
L 164.562052 74.646178 
L 164.66264 70.630616 
L 164.675172 70.630616 
L 164.725213 68.909661 
L 164.911599 68.909661 
L 164.997901 62.02584 
L 165.059286 62.02584 
L 165.169236 58.58393 
L 165.266391 58.58393 
L 165.326839 54.568368 
L 165.399101 54.568368 
L 165.483031 51.700109 
L 165.542734 51.700109 
L 165.542734 49.979154 
L 165.685193 49.979154 
L 165.791279 47.110896 
L 165.9084 47.110896 
L 165.98992 42.521682 
L 166.220754 42.521682 
L 166.312239 40.227075 
L 166.391896 40.227075 
L 166.48249 37.358817 
L 166.550128 37.358817 
L 166.550128 36.785165 
L 166.862349 36.785165 
L 166.972515 31.622299 
L 167.04922 31.622299 
L 167.114699 28.180389 
L 167.169078 28.180389 
L 167.212459 25.885782 
L 167.331204 25.885782 
L 167.427761 24.164827 
L 167.545055 24.164827 
L 167.651004 23.017524 
L 167.693205 23.017524 
L 167.798261 17.281006 
L 167.829655 17.281006 
L 167.902688 14.9864 
L 168.191801 14.9864 
L 168.283721 13.839096 
L 168.375159 13.839096 
L 168.375159 12.691793 
L 168.854895 12.691793 
L 168.854895 12.118141 
L 169.021685 12.118141 
L 169.060699 9.823534 
L 169.186895 9.823534 
L 169.186895 9.249882 
L 169.645097 9.249882 
L 169.645097 8.102579 
L 170.18316 8.102579 
L 170.18316 6.381624 
L 338.688 6.381624 
L 338.688 6.381624 
" style="fill:none;stroke:#ff00ff;stroke-linecap:square;stroke-width:1.5;"/>
   </g>
   <g id="line2d_35">
    <defs>
     <path d="M -0 8.485281 
L 5.091169 0 
L 0 -8.485281 
L -5.091169 -0 
z
" id="mbb72cf05f7" style="stroke:#ff00ff;stroke-linejoin:miter;stroke-width:1.5;"/>
    </defs>
    <g>
     <use style="fill-opacity:0;stroke:#ff00ff;stroke-linejoin:miter;stroke-width:1.5;" x="163.906798" xlink:href="#mbb72cf05f7" y="87.840168"/>
     <use style="fill-opacity:0;stroke:#ff00ff;stroke-linejoin:miter;stroke-width:1.5;" x="170.18316" xlink:href="#mbb72cf05f7" y="8.102579"/>
     <use style="fill-opacity:0;stroke:#ff00ff;stroke-linejoin:miter;stroke-width:1.5;" x="170.18316" xlink:href="#mbb72cf05f7" y="6.381624"/>
     <use style="fill-opacity:0;stroke:#ff00ff;stroke-linejoin:miter;stroke-width:1.5;" x="170.18316" xlink:href="#mbb72cf05f7" y="6.381624"/>
     <use style="fill-opacity:0;stroke:#ff00ff;stroke-linejoin:miter;stroke-width:1.5;" x="338.688" xlink:href="#mbb72cf05f7" y="6.381624"/>
    </g>
   </g>
   <g id="line2d_36">
    <path style="fill:none;stroke:#ff00ff;stroke-linecap:square;stroke-width:1.5;"/>
    <g/>
   </g>
   <g id="line2d_37">
    <defs>
     <path d="M 0 1.5 
C 0.397805 1.5 0.77937 1.341951 1.06066 1.06066 
C 1.341951 0.77937 1.5 0.397805 1.5 0 
C 1.5 -0.397805 1.341951 -0.77937 1.06066 -1.06066 
C 0.77937 -1.341951 0.397805 -1.5 0 -1.5 
C -0.397805 -1.5 -0.77937 -1.341951 -1.06066 -1.06066 
C -1.341951 -0.77937 -1.5 -0.397805 -1.5 0 
C -1.5 0.397805 -1.341951 0.77937 -1.06066 1.06066 
C -0.77937 1.341951 -0.397805 1.5 0 1.5 
z
" id="m891b71dc69" style="stroke:#ff7500;"/>
    </defs>
    <g>
     <use style="fill:#ff7500;stroke:#ff7500;" x="275.524469" xlink:href="#m891b71dc69" y="6.381624"/>
     <use style="fill:#ff7500;stroke:#ff7500;" x="275.524469" xlink:href="#m891b71dc69" y="6.381624"/>
    </g>
   </g>
   <g id="line2d_38">
    <path d="M 38.440992 298.944 
L 38.440992 292.060179 
L 50.52898 292.060179 
L 50.52898 290.339224 
L 57.6 290.339224 
L 57.6 289.191921 
L 62.616969 289.191921 
L 62.616969 288.618269 
L 69.687988 288.618269 
L 69.687988 286.897314 
L 74.704957 286.897314 
L 74.704957 286.323662 
L 78.59642 286.323662 
L 78.59642 285.75001 
L 84.464254 285.75001 
L 84.464254 284.602707 
L 95.918017 284.602707 
L 95.918017 284.029055 
L 98.32726 284.029055 
L 98.32726 283.455404 
L 99.41757 283.455404 
L 99.41757 282.881752 
L 101.412804 282.881752 
L 101.412804 282.3081 
L 102.330873 282.3081 
L 102.330873 281.734448 
L 102.772397 281.734448 
L 102.772397 281.160797 
L 103.203018 281.160797 
L 103.203018 280.587145 
L 103.623262 280.587145 
L 103.623262 278.86619 
L 104.434538 278.86619 
L 104.434538 278.292538 
L 105.209745 278.292538 
L 105.209745 277.145235 
L 105.951954 277.145235 
L 105.951954 276.571583 
L 106.66386 276.571583 
L 106.66386 275.997931 
L 107.680028 275.997931 
L 107.680028 274.850628 
L 109.550313 274.850628 
L 109.550313 274.276976 
L 110.131676 274.276976 
L 110.131676 273.703324 
L 111.505558 273.703324 
L 111.505558 273.129673 
L 113.965867 273.129673 
L 113.965867 272.556021 
L 117.486268 272.556021 
L 117.486268 271.982369 
L 118.576578 271.982369 
L 118.576578 271.408718 
L 120.254726 271.408718 
L 120.254726 270.261414 
L 120.728219 270.261414 
L 120.728219 269.687762 
L 126.50685 269.687762 
L 126.50685 268.540459 
L 127.695124 268.540459 
L 127.695124 267.966807 
L 130.398313 267.966807 
L 130.398313 267.393156 
L 132.501978 267.393156 
L 132.501978 266.819504 
L 138.256201 266.819504 
L 138.256201 266.245852 
L 139.360321 266.245852 
L 139.360321 265.6722 
L 139.990725 265.6722 
L 139.990725 265.098549 
L 140.747977 265.098549 
L 140.747977 264.524897 
L 140.944478 264.524897 
L 140.944478 263.951245 
L 142.396639 263.951245 
L 142.396639 263.377593 
L 143.695448 263.377593 
L 143.695448 262.803942 
L 144.148442 262.803942 
L 144.148442 262.23029 
L 144.787023 262.23029 
L 144.787023 261.656638 
L 145.516164 261.656638 
L 145.516164 261.082987 
L 147.300877 261.082987 
L 147.300877 260.509335 
L 147.436066 260.509335 
L 147.436066 259.935683 
L 148.513109 259.935683 
L 148.513109 258.78838 
L 150.172372 258.78838 
L 150.229833 257.641076 
L 150.766468 257.641076 
L 150.766468 257.067425 
L 152.155936 257.067425 
L 152.181601 255.920121 
L 152.436193 255.920121 
L 152.461449 254.199166 
L 153.226778 254.199166 
L 153.226778 253.625514 
L 154.075343 253.625514 
L 154.075343 252.478211 
L 155.275461 252.478211 
L 155.275461 251.330907 
L 155.657823 251.330907 
L 155.657823 250.183604 
L 156.357959 250.183604 
L 156.357959 249.036301 
L 156.875011 249.036301 
L 156.875011 248.462649 
L 157.697862 248.462649 
L 157.697862 247.888997 
L 197.236916 247.888997 
L 197.34502 245.020738 
L 197.377704 245.020738 
L 197.479213 243.299783 
L 197.530698 243.299783 
L 197.55163 242.15248 
L 197.652134 242.15248 
L 197.755822 239.857873 
L 197.873839 239.857873 
L 197.966938 235.842311 
L 198.02256 235.842311 
L 198.120394 231.826749 
L 198.153496 231.826749 
L 198.206695 230.105794 
L 198.267036 230.105794 
L 198.267036 229.532142 
L 198.397967 229.532142 
L 198.405212 227.237535 
L 198.520729 227.237535 
L 198.520729 226.090232 
L 198.640845 226.090232 
L 198.737058 224.369277 
L 198.769011 224.369277 
L 198.8751 223.221973 
L 198.950736 223.221973 
L 198.950736 222.07467 
L 209.469534 222.07467 
L 209.469534 221.501018 
L 209.657676 221.501018 
L 209.762798 217.485456 
L 209.769406 217.485456 
L 209.84475 210.027984 
L 209.898235 210.027984 
L 210.004715 207.733377 
L 210.038205 207.733377 
L 210.136445 203.144163 
L 210.160457 203.144163 
L 210.160457 202.570511 
L 216.599348 202.570511 
L 216.687168 198.554949 
L 216.718878 198.554949 
L 216.823744 194.539387 
L 216.830041 194.539387 
L 216.941126 188.80287 
L 216.955509 188.80287 
L 216.982367 187.081915 
L 221.521478 187.081915 
L 221.62126 184.213656 
L 221.642295 184.213656 
L 221.738539 175.035229 
L 221.770345 175.035229 
L 221.832838 171.593319 
L 225.477385 171.593319 
L 225.564213 163.562195 
L 225.61032 163.562195 
L 225.639977 159.546632 
L 228.540944 159.546632 
L 228.64262 154.957419 
L 228.655088 154.957419 
L 228.763091 149.220902 
L 228.776743 149.220902 
L 228.776743 148.64725 
L 231.259662 148.64725 
L 231.356281 142.910733 
L 231.374884 142.910733 
L 231.403844 138.895171 
L 233.54826 138.895171 
L 233.646231 132.01135 
L 233.661587 132.01135 
L 233.703746 128.56944 
L 235.628576 128.56944 
L 235.734096 119.391012 
L 237.432383 119.391012 
L 237.532749 111.93354 
L 237.558086 111.93354 
L 237.558086 111.359888 
L 239.087374 111.359888 
L 239.155415 107.344326 
L 239.200163 107.344326 
L 239.212204 105.049719 
L 240.625715 105.049719 
L 240.709168 97.592247 
L 242.015092 97.592247 
L 242.090246 94.150337 
L 243.281328 94.150337 
L 243.373917 90.708426 
L 244.503596 90.708426 
L 244.5621 86.692864 
L 245.639144 86.692864 
L 245.690477 83.250954 
L 246.689124 83.250954 
L 246.734628 79.235392 
L 247.689656 79.235392 
L 247.732626 74.646178 
L 248.615956 74.646178 
L 248.664419 68.909661 
L 249.51757 68.909661 
L 249.558004 66.041402 
L 250.357919 66.041402 
L 250.405179 63.173144 
L 251.17343 63.173144 
L 251.212835 58.58393 
L 251.947039 58.58393 
L 251.984737 53.994716 
L 252.695516 53.994716 
L 252.720942 52.273761 
L 253.405767 52.273761 
L 253.438128 47.684547 
L 254.101298 47.684547 
L 254.106349 46.537244 
L 254.733438 46.537244 
L 254.762428 43.668985 
L 255.371251 43.668985 
L 255.403819 40.800727 
L 255.979021 40.800727 
L 256.008478 37.932468 
L 256.577089 37.932468 
L 256.605682 36.211513 
L 257.139667 36.211513 
L 257.168039 33.343255 
L 257.716872 33.343255 
L 257.727435 31.622299 
L 258.234899 31.622299 
L 258.258326 29.901344 
L 258.748626 29.901344 
L 258.769384 28.180389 
L 259.264288 28.180389 
L 259.281572 26.459434 
L 259.750425 26.459434 
L 259.761651 24.738479 
L 260.231741 24.738479 
L 260.242557 23.591175 
L 260.709336 23.591175 
L 260.709336 23.017524 
L 261.163848 23.017524 
L 261.165136 21.87022 
L 261.585306 21.87022 
L 261.589174 20.149265 
L 262.031454 20.149265 
L 262.037157 19.001962 
L 262.433889 19.001962 
L 262.448301 17.854658 
L 262.845747 17.854658 
L 262.857845 16.707355 
L 263.254563 16.707355 
L 263.257991 14.9864 
L 263.634547 14.9864 
L 263.634547 14.412748 
L 264.396248 14.412748 
L 264.397606 13.265444 
L 264.777022 13.265444 
L 264.777022 12.691793 
L 265.120975 12.691793 
L 265.135776 10.970838 
L 265.470587 10.970838 
L 265.470587 10.397186 
L 265.820234 10.397186 
L 265.820234 9.823534 
L 266.496511 9.823534 
L 266.496511 9.249882 
L 268.358508 9.249882 
L 268.358508 8.102579 
L 272.76732 8.102579 
L 272.76732 7.528927 
L 273.231064 7.528927 
L 273.231064 6.955275 
L 275.524469 6.955275 
L 275.524469 6.381624 
L 338.688 6.381624 
L 338.688 6.381624 
" style="fill:none;stroke:#ff7500;stroke-linecap:square;stroke-width:1.5;"/>
   </g>
   <g id="line2d_39">
    <defs>
     <path d="M 0 -6 
L -1.347084 -1.854102 
L -5.706339 -1.854102 
L -2.179628 0.708204 
L -3.526712 4.854102 
L -0 2.291796 
L 3.526712 4.854102 
L 2.179628 0.708204 
L 5.706339 -1.854102 
L 1.347084 -1.854102 
z
" id="mf924130288" style="stroke:#ff7500;stroke-linejoin:bevel;stroke-width:1.5;"/>
    </defs>
    <g>
     <use style="fill-opacity:0;stroke:#ff7500;stroke-linejoin:bevel;stroke-width:1.5;" x="111.505558" xlink:href="#mf924130288" y="273.129673"/>
     <use style="fill-opacity:0;stroke:#ff7500;stroke-linejoin:bevel;stroke-width:1.5;" x="157.697862" xlink:href="#mf924130288" y="247.888997"/>
     <use style="fill-opacity:0;stroke:#ff7500;stroke-linejoin:bevel;stroke-width:1.5;" x="237.532749" xlink:href="#mf924130288" y="111.93354"/>
     <use style="fill-opacity:0;stroke:#ff7500;stroke-linejoin:bevel;stroke-width:1.5;" x="275.524469" xlink:href="#mf924130288" y="6.955275"/>
     <use style="fill-opacity:0;stroke:#ff7500;stroke-linejoin:bevel;stroke-width:1.5;" x="275.524469" xlink:href="#mf924130288" y="6.381624"/>
     <use style="fill-opacity:0;stroke:#ff7500;stroke-linejoin:bevel;stroke-width:1.5;" x="338.688" xlink:href="#mf924130288" y="6.381624"/>
    </g>
   </g>
   <g id="line2d_40">
    <path style="fill:none;stroke:#ff7500;stroke-linecap:square;stroke-width:1.5;"/>
    <g/>
   </g>
   <g id="line2d_41">
    <path clip-path="url(#p41b5a83012)" d="M 197.231106 247.888997 
" style="fill:none;stroke:#ff7500;stroke-linecap:square;stroke-width:1.5;"/>
    <defs>
     <path d="M -12 12 
L 12 -12 
M -12 -12 
L 12 12 
" id="m211f66ae73" style="stroke:#ff7500;"/>
    </defs>
    <g clip-path="url(#p41b5a83012)">
     <use style="fill:#ff7500;stroke:#ff7500;" x="197.231106" xlink:href="#m211f66ae73" y="247.888997"/>
    </g>
   </g>
   <g id="line2d_42">
    <defs>
     <path d="M 0 1.5 
C 0.397805 1.5 0.77937 1.341951 1.06066 1.06066 
C 1.341951 0.77937 1.5 0.397805 1.5 0 
C 1.5 -0.397805 1.341951 -0.77937 1.06066 -1.06066 
C 0.77937 -1.341951 0.397805 -1.5 0 -1.5 
C -0.397805 -1.5 -0.77937 -1.341951 -1.06066 -1.06066 
C -1.341951 -0.77937 -1.5 -0.397805 -1.5 0 
C -1.5 0.397805 -1.341951 0.77937 -1.06066 1.06066 
C -0.77937 1.341951 -0.397805 1.5 0 1.5 
z
" id="md75b3b9a11" style="stroke:#6495ed;"/>
    </defs>
    <g>
     <use style="fill:#6495ed;stroke:#6495ed;" x="261.141885" xlink:href="#md75b3b9a11" y="235.842311"/>
     <use style="fill:#6495ed;stroke:#6495ed;" x="261.141885" xlink:href="#md75b3b9a11" y="235.842311"/>
    </g>
   </g>
   <g id="line2d_43">
    <path d="M 38.440992 298.944 
L 38.440992 291.486528 
L 50.52898 291.486528 
L 50.52898 289.765573 
L 57.6 289.765573 
L 57.6 288.618269 
L 69.687988 288.618269 
L 69.687988 288.044617 
L 72.376266 288.044617 
L 72.376266 287.470966 
L 74.704957 287.470966 
L 74.704957 286.897314 
L 76.759008 286.897314 
L 76.759008 286.323662 
L 84.464254 286.323662 
L 84.464254 285.75001 
L 86.792945 285.75001 
L 86.792945 284.602707 
L 87.850195 284.602707 
L 87.850195 284.029055 
L 93.121756 284.029055 
L 93.121756 283.455404 
L 95.918017 283.455404 
L 95.918017 282.881752 
L 96.552242 282.881752 
L 96.552242 282.3081 
L 99.41757 282.3081 
L 99.41757 281.160797 
L 103.203018 281.160797 
L 103.203018 280.013493 
L 105.951954 280.013493 
L 105.951954 279.439842 
L 106.66386 279.439842 
L 106.66386 278.86619 
L 107.680028 278.86619 
L 107.680028 278.292538 
L 110.415248 278.292538 
L 110.415248 277.718886 
L 112.280765 277.718886 
L 112.280765 277.145235 
L 113.022974 277.145235 
L 113.022974 276.571583 
L 113.73488 276.571583 
L 113.73488 275.42428 
L 116.121606 275.42428 
L 116.121606 274.850628 
L 116.522527 274.850628 
L 116.522527 274.276976 
L 116.719583 274.276976 
L 116.719583 273.703324 
L 118.576578 273.703324 
L 118.576578 273.129673 
L 119.267333 273.129673 
L 119.267333 272.556021 
L 119.43583 272.556021 
L 119.43583 271.982369 
L 120.254726 271.982369 
L 120.254726 271.408718 
L 120.571812 271.408718 
L 120.571812 270.835066 
L 121.340187 270.835066 
L 121.340187 270.261414 
L 127.48501 270.261414 
L 127.48501 269.687762 
L 128.310692 269.687762 
L 128.310692 268.540459 
L 131.60746 268.540459 
L 131.690703 267.393156 
L 132.101058 267.393156 
L 132.101058 266.819504 
L 133.277185 266.819504 
L 133.277185 266.245852 
L 136.456742 266.245852 
L 136.456742 265.6722 
L 138.650644 265.6722 
L 138.650644 265.098549 
L 143.820164 265.098549 
L 143.820164 264.524897 
L 197.24466 264.524897 
L 197.350792 262.803942 
L 197.714421 262.803942 
L 197.714421 262.23029 
L 198.028112 262.23029 
L 198.028112 261.656638 
L 209.391583 261.656638 
L 209.391583 261.082987 
L 216.438474 261.082987 
L 216.528387 259.362031 
L 216.591052 259.362031 
L 216.591052 258.78838 
L 221.443365 258.78838 
L 221.54023 253.625514 
L 225.327578 253.625514 
L 225.425541 251.330907 
L 228.500365 251.330907 
L 228.583996 249.609952 
L 231.187122 249.609952 
L 231.242589 248.462649 
L 235.565258 248.462649 
L 235.565258 247.888997 
L 237.401057 247.888997 
L 237.401057 247.315345 
L 239.092644 247.315345 
L 239.092644 246.741694 
L 240.600763 246.741694 
L 240.633918 244.447087 
L 242.003056 244.447087 
L 242.024597 243.299783 
L 243.29983 243.299783 
L 243.312522 242.15248 
L 244.511837 242.15248 
L 244.511837 241.578828 
L 246.688215 241.578828 
L 246.688215 241.005176 
L 247.672481 241.005176 
L 247.672481 240.431525 
L 248.58765 240.431525 
L 248.58765 239.857873 
L 250.364179 239.857873 
L 250.364179 239.284221 
L 251.9351 239.284221 
L 251.9351 238.71057 
L 253.385346 238.71057 
L 253.398576 237.563266 
L 257.687748 237.563266 
L 257.687748 236.989614 
L 259.247651 236.989614 
L 259.247651 236.415963 
L 261.141885 236.415963 
L 261.141885 235.842311 
L 338.688 235.842311 
L 338.688 235.842311 
" style="fill:none;stroke:#6495ed;stroke-linecap:square;stroke-width:1.5;"/>
   </g>
   <g id="line2d_44">
    <defs>
     <path d="M -0 6 
L 6 -6 
L -6 -6 
z
" id="m229b13ffaa" style="stroke:#6495ed;stroke-linejoin:miter;stroke-width:1.5;"/>
    </defs>
    <g>
     <use style="fill-opacity:0;stroke:#6495ed;stroke-linejoin:miter;stroke-width:1.5;" x="87.850195" xlink:href="#m229b13ffaa" y="284.029055"/>
     <use style="fill-opacity:0;stroke:#6495ed;stroke-linejoin:miter;stroke-width:1.5;" x="143.820164" xlink:href="#m229b13ffaa" y="265.098549"/>
     <use style="fill-opacity:0;stroke:#6495ed;stroke-linejoin:miter;stroke-width:1.5;" x="240.633918" xlink:href="#m229b13ffaa" y="244.447087"/>
     <use style="fill-opacity:0;stroke:#6495ed;stroke-linejoin:miter;stroke-width:1.5;" x="261.141885" xlink:href="#m229b13ffaa" y="235.842311"/>
     <use style="fill-opacity:0;stroke:#6495ed;stroke-linejoin:miter;stroke-width:1.5;" x="261.141885" xlink:href="#m229b13ffaa" y="235.842311"/>
     <use style="fill-opacity:0;stroke:#6495ed;stroke-linejoin:miter;stroke-width:1.5;" x="338.688" xlink:href="#m229b13ffaa" y="235.842311"/>
    </g>
   </g>
   <g id="line2d_45">
    <path style="fill:none;stroke:#6495ed;stroke-linecap:square;stroke-width:1.5;"/>
    <g/>
   </g>
   <g id="line2d_46">
    <path clip-path="url(#p41b5a83012)" d="M 197.231106 264.524897 
" style="fill:none;stroke:#6495ed;stroke-linecap:square;stroke-width:1.5;"/>
    <defs>
     <path d="M -12 12 
L 12 -12 
M -12 -12 
L 12 12 
" id="m3d3b372eff" style="stroke:#6495ed;"/>
    </defs>
    <g clip-path="url(#p41b5a83012)">
     <use style="fill:#6495ed;stroke:#6495ed;" x="197.231106" xlink:href="#m3d3b372eff" y="264.524897"/>
    </g>
   </g>
   <g id="line2d_47">
    <defs>
     <path d="M 0 1.5 
C 0.397805 1.5 0.77937 1.341951 1.06066 1.06066 
C 1.341951 0.77937 1.5 0.397805 1.5 0 
C 1.5 -0.397805 1.341951 -0.77937 1.06066 -1.06066 
C 0.77937 -1.341951 0.397805 -1.5 0 -1.5 
C -0.397805 -1.5 -0.77937 -1.341951 -1.06066 -1.06066 
C -1.341951 -0.77937 -1.5 -0.397805 -1.5 0 
C -1.5 0.397805 -1.341951 0.77937 -1.06066 1.06066 
C -0.77937 1.341951 -0.397805 1.5 0 1.5 
z
" id="m655ac1e72f" style="stroke:#ff0000;"/>
    </defs>
    <g>
     <use style="fill:#ff0000;stroke:#ff0000;" x="143.611807" xlink:href="#m655ac1e72f" y="6.381624"/>
     <use style="fill:#ff0000;stroke:#ff0000;" x="143.611807" xlink:href="#m655ac1e72f" y="6.381624"/>
    </g>
   </g>
   <g id="line2d_48">
    <path d="M 38.440992 298.944 
L 38.440992 293.207483 
L 83.171864 293.207483 
L 83.171864 290.912876 
L 93.121756 290.912876 
L 93.121756 290.339224 
L 99.41757 290.339224 
L 99.41757 288.618269 
L 101.412804 288.618269 
L 101.412804 284.602707 
L 104.434538 284.602707 
L 104.434538 284.029055 
L 105.209745 284.029055 
L 105.209745 277.718886 
L 105.584798 277.718886 
L 105.584798 242.15248 
L 105.951954 242.15248 
L 105.951954 241.578828 
L 107.009204 241.578828 
L 107.009204 240.431525 
L 107.680028 240.431525 
L 107.680028 236.989614 
L 109.843417 236.989614 
L 109.843417 187.081915 
L 110.131676 187.081915 
L 110.131676 185.934612 
L 111.505558 185.934612 
L 111.505558 184.787308 
L 113.500792 184.787308 
L 113.500792 183.640005 
L 114.641021 183.640005 
L 114.641021 181.91905 
L 119.602714 181.91905 
L 119.602714 180.771746 
L 121.785469 180.771746 
L 121.785469 179.624443 
L 121.931406 179.624443 
L 121.931406 179.050791 
L 123.725164 179.050791 
L 123.725164 178.477139 
L 126.948374 178.477139 
L 126.948374 177.903487 
L 128.310692 177.903487 
L 128.310692 176.756184 
L 128.411207 176.756184 
L 128.411207 156.678374 
L 129.385722 156.678374 
L 129.385722 154.957419 
L 130.576266 154.957419 
L 130.576266 126.274833 
L 131.439773 126.274833 
L 131.439773 124.553878 
L 132.101058 124.553878 
L 132.101058 122.259271 
L 132.893889 122.259271 
L 132.893889 119.391012 
L 133.503183 119.391012 
L 133.503183 73.498875 
L 136.393441 73.498875 
L 136.393441 72.351571 
L 137.259399 72.351571 
L 137.259399 70.630616 
L 137.910857 70.630616 
L 137.910857 68.336009 
L 139.730821 68.336009 
L 139.730821 67.188706 
L 141.848763 67.188706 
L 141.848763 66.615054 
L 142.396639 66.615054 
L 142.396639 65.467751 
L 143.358447 65.467751 
L 143.358447 62.599492 
L 143.611807 62.599492 
L 143.611807 6.381624 
L 338.688 6.381624 
" style="fill:none;stroke:#ff0000;stroke-linecap:square;stroke-width:1.5;"/>
   </g>
   <g id="line2d_49">
    <defs>
     <path d="M 0 -6 
L -5.196152 -3 
L -5.196152 3 
L -0 6 
L 5.196152 3 
L 5.196152 -3 
z
" id="m1e730e41fc" style="stroke:#ff0000;stroke-linejoin:miter;stroke-width:1.5;"/>
    </defs>
    <g>
     <use style="fill-opacity:0;stroke:#ff0000;stroke-linejoin:miter;stroke-width:1.5;" x="105.209745" xlink:href="#m1e730e41fc" y="277.718886"/>
     <use style="fill-opacity:0;stroke:#ff0000;stroke-linejoin:miter;stroke-width:1.5;" x="137.910857" xlink:href="#m1e730e41fc" y="68.336009"/>
     <use style="fill-opacity:0;stroke:#ff0000;stroke-linejoin:miter;stroke-width:1.5;" x="143.611807" xlink:href="#m1e730e41fc" y="62.599492"/>
     <use style="fill-opacity:0;stroke:#ff0000;stroke-linejoin:miter;stroke-width:1.5;" x="143.611807" xlink:href="#m1e730e41fc" y="6.381624"/>
     <use style="fill-opacity:0;stroke:#ff0000;stroke-linejoin:miter;stroke-width:1.5;" x="143.611807" xlink:href="#m1e730e41fc" y="6.381624"/>
     <use style="fill-opacity:0;stroke:#ff0000;stroke-linejoin:miter;stroke-width:1.5;" x="338.688" xlink:href="#m1e730e41fc" y="6.381624"/>
    </g>
   </g>
   <g id="line2d_50">
    <path style="fill:none;stroke:#ff0000;stroke-linecap:square;stroke-width:1.5;"/>
    <g/>
   </g>
   <g id="line2d_51">
    <path d="M 338.688 235.842311 
L 369.60768 293.092752 
" style="fill:none;stroke:#6495ed;stroke-linecap:square;stroke-width:1.5;"/>
    <g>
     <use style="fill-opacity:0;stroke:#6495ed;stroke-linejoin:miter;stroke-width:1.5;" x="338.688" xlink:href="#m229b13ffaa" y="235.842311"/>
     <use style="fill-opacity:0;stroke:#6495ed;stroke-linejoin:miter;stroke-width:1.5;" x="369.60768" xlink:href="#m229b13ffaa" y="293.092752"/>
    </g>
   </g>
   <g id="line2d_52">
    <path d="M 338.688 6.381624 
L 369.60768 222.877782 
" style="fill:none;stroke:#ff7500;stroke-linecap:square;stroke-width:1.5;"/>
    <g>
     <use style="fill-opacity:0;stroke:#ff7500;stroke-linejoin:bevel;stroke-width:1.5;" x="338.688" xlink:href="#mf924130288" y="6.381624"/>
     <use style="fill-opacity:0;stroke:#ff7500;stroke-linejoin:bevel;stroke-width:1.5;" x="369.60768" xlink:href="#mf924130288" y="222.877782"/>
    </g>
   </g>
   <g id="line2d_53">
    <path d="M 338.688 6.381624 
L 369.60768 152.662812 
" style="fill:none;stroke:#ff00ff;stroke-linecap:square;stroke-width:1.5;"/>
    <g>
     <use style="fill-opacity:0;stroke:#ff00ff;stroke-linejoin:miter;stroke-width:1.5;" x="338.688" xlink:href="#mbb72cf05f7" y="6.381624"/>
     <use style="fill-opacity:0;stroke:#ff00ff;stroke-linejoin:miter;stroke-width:1.5;" x="369.60768" xlink:href="#mbb72cf05f7" y="152.662812"/>
    </g>
   </g>
   <g id="line2d_54">
    <path d="M 338.688 6.381624 
L 369.60768 82.447842 
" style="fill:none;stroke:#000080;stroke-linecap:square;stroke-width:1.5;"/>
    <g>
     <use style="fill-opacity:0;stroke:#000080;stroke-width:1.5;" x="338.688" xlink:href="#mf6e8a75a2e" y="6.381624"/>
     <use style="fill-opacity:0;stroke:#000080;stroke-width:1.5;" x="369.60768" xlink:href="#mf6e8a75a2e" y="82.447842"/>
    </g>
   </g>
   <g id="line2d_55">
    <path d="M 338.688 6.381624 
L 369.60768 12.232871 
" style="fill:none;stroke:#ff0000;stroke-linecap:square;stroke-width:1.5;"/>
    <g>
     <use style="fill-opacity:0;stroke:#ff0000;stroke-linejoin:miter;stroke-width:1.5;" x="338.688" xlink:href="#m1e730e41fc" y="6.381624"/>
     <use style="fill-opacity:0;stroke:#ff0000;stroke-linejoin:miter;stroke-width:1.5;" x="369.60768" xlink:href="#m1e730e41fc" y="12.232871"/>
    </g>
   </g>
   <g id="line2d_56">
    <path d="M 338.688 298.944 
L 338.688 6.381624 
" style="fill:none;stroke:#000000;stroke-linecap:square;stroke-width:1.5;"/>
   </g>
   <g id="patch_3">
    <path d="M 57.6 298.944 
L 57.6 3.456 
" style="fill:none;stroke:#000000;stroke-linecap:square;stroke-linejoin:miter;stroke-width:0.8;"/>
   </g>
   <g id="patch_4">
    <path d="M 338.688 298.944 
L 338.688 3.456 
" style="fill:none;stroke:#000000;stroke-linecap:square;stroke-linejoin:miter;stroke-width:0.8;"/>
   </g>
   <g id="patch_5">
    <path d="M 57.6 298.944 
L 338.688 298.944 
" style="fill:none;stroke:#000000;stroke-linecap:square;stroke-linejoin:miter;stroke-width:0.8;"/>
   </g>
   <g id="patch_6">
    <path d="M 57.6 3.456 
L 338.688 3.456 
" style="fill:none;stroke:#000000;stroke-linecap:square;stroke-linejoin:miter;stroke-width:0.8;"/>
   </g>
   <g id="text_13">
    <!-- f4 -->
    <g transform="translate(375.22944 297.78369)scale(0.17 -0.17)">
     <use xlink:href="#DejaVuSans-102"/>
     <use x="35.205078" xlink:href="#DejaVuSans-52"/>
    </g>
   </g>
   <g id="text_14">
    <!-- f3 -->
    <g transform="translate(375.22944 227.56872)scale(0.17 -0.17)">
     <defs>
      <path d="M 40.578125 39.3125 
Q 47.65625 37.796875 51.625 33 
Q 55.609375 28.21875 55.609375 21.1875 
Q 55.609375 10.40625 48.1875 4.484375 
Q 40.765625 -1.421875 27.09375 -1.421875 
Q 22.515625 -1.421875 17.65625 -0.515625 
Q 12.796875 0.390625 7.625 2.203125 
L 7.625 11.71875 
Q 11.71875 9.328125 16.59375 8.109375 
Q 21.484375 6.890625 26.8125 6.890625 
Q 36.078125 6.890625 40.9375 10.546875 
Q 45.796875 14.203125 45.796875 21.1875 
Q 45.796875 27.640625 41.28125 31.265625 
Q 36.765625 34.90625 28.71875 34.90625 
L 20.21875 34.90625 
L 20.21875 43.015625 
L 29.109375 43.015625 
Q 36.375 43.015625 40.234375 45.921875 
Q 44.09375 48.828125 44.09375 54.296875 
Q 44.09375 59.90625 40.109375 62.90625 
Q 36.140625 65.921875 28.71875 65.921875 
Q 24.65625 65.921875 20.015625 65.03125 
Q 15.375 64.15625 9.8125 62.3125 
L 9.8125 71.09375 
Q 15.4375 72.65625 20.34375 73.4375 
Q 25.25 74.21875 29.59375 74.21875 
Q 40.828125 74.21875 47.359375 69.109375 
Q 53.90625 64.015625 53.90625 55.328125 
Q 53.90625 49.265625 50.4375 45.09375 
Q 46.96875 40.921875 40.578125 39.3125 
z
" id="DejaVuSans-51"/>
     </defs>
     <use xlink:href="#DejaVuSans-102"/>
     <use x="35.205078" xlink:href="#DejaVuSans-51"/>
    </g>
   </g>
   <g id="text_15">
    <!-- f2 -->
    <g transform="translate(375.22944 157.353749)scale(0.17 -0.17)">
     <use xlink:href="#DejaVuSans-102"/>
     <use x="35.205078" xlink:href="#DejaVuSans-50"/>
    </g>
   </g>
   <g id="text_16">
    <!-- f1 -->
    <g transform="translate(375.22944 87.138779)scale(0.17 -0.17)">
     <use xlink:href="#DejaVuSans-102"/>
     <use x="35.205078" xlink:href="#DejaVuSans-49"/>
    </g>
   </g>
   <g id="text_17">
    <!-- f5 -->
    <g transform="translate(375.22944 16.923809)scale(0.17 -0.17)">
     <defs>
      <path d="M 10.796875 72.90625 
L 49.515625 72.90625 
L 49.515625 64.59375 
L 19.828125 64.59375 
L 19.828125 46.734375 
Q 21.96875 47.46875 24.109375 47.828125 
Q 26.265625 48.1875 28.421875 48.1875 
Q 40.625 48.1875 47.75 41.5 
Q 54.890625 34.8125 54.890625 23.390625 
Q 54.890625 11.625 47.5625 5.09375 
Q 40.234375 -1.421875 26.90625 -1.421875 
Q 22.3125 -1.421875 17.546875 -0.640625 
Q 12.796875 0.140625 7.71875 1.703125 
L 7.71875 11.625 
Q 12.109375 9.234375 16.796875 8.0625 
Q 21.484375 6.890625 26.703125 6.890625 
Q 35.15625 6.890625 40.078125 11.328125 
Q 45.015625 15.765625 45.015625 23.390625 
Q 45.015625 31 40.078125 35.4375 
Q 35.15625 39.890625 26.703125 39.890625 
Q 22.75 39.890625 18.8125 39.015625 
Q 14.890625 38.140625 10.796875 36.28125 
z
" id="DejaVuSans-53"/>
     </defs>
     <use xlink:href="#DejaVuSans-102"/>
     <use x="35.205078" xlink:href="#DejaVuSans-53"/>
    </g>
   </g>
   <g id="text_18">
    <!-- bbob -->
    <g transform="translate(60.41088 14.161286)scale(0.102 -0.102)">
     <defs>
      <path d="M 48.6875 27.296875 
Q 48.6875 37.203125 44.609375 42.84375 
Q 40.53125 48.484375 33.40625 48.484375 
Q 26.265625 48.484375 22.1875 42.84375 
Q 18.109375 37.203125 18.109375 27.296875 
Q 18.109375 17.390625 22.1875 11.75 
Q 26.265625 6.109375 33.40625 6.109375 
Q 40.53125 6.109375 44.609375 11.75 
Q 48.6875 17.390625 48.6875 27.296875 
z
M 18.109375 46.390625 
Q 20.953125 51.265625 25.265625 53.625 
Q 29.59375 56 35.59375 56 
Q 45.5625 56 51.78125 48.09375 
Q 58.015625 40.1875 58.015625 27.296875 
Q 58.015625 14.40625 51.78125 6.484375 
Q 45.5625 -1.421875 35.59375 -1.421875 
Q 29.59375 -1.421875 25.265625 0.953125 
Q 20.953125 3.328125 18.109375 8.203125 
L 18.109375 0 
L 9.078125 0 
L 9.078125 75.984375 
L 18.109375 75.984375 
z
" id="DejaVuSans-98"/>
     </defs>
     <use xlink:href="#DejaVuSans-98"/>
     <use x="63.476562" xlink:href="#DejaVuSans-98"/>
     <use x="126.953125" xlink:href="#DejaVuSans-111"/>
     <use x="188.134766" xlink:href="#DejaVuSans-98"/>
    </g>
    <!-- Separable functions, 3-D -->
    <g transform="translate(60.41088 25.583055)scale(0.102 -0.102)">
     <defs>
      <path d="M 53.515625 70.515625 
L 53.515625 60.890625 
Q 47.90625 63.578125 42.921875 64.890625 
Q 37.9375 66.21875 33.296875 66.21875 
Q 25.25 66.21875 20.875 63.09375 
Q 16.5 59.96875 16.5 54.203125 
Q 16.5 49.359375 19.40625 46.890625 
Q 22.3125 44.4375 30.421875 42.921875 
L 36.375 41.703125 
Q 47.40625 39.59375 52.65625 34.296875 
Q 57.90625 29 57.90625 20.125 
Q 57.90625 9.515625 50.796875 4.046875 
Q 43.703125 -1.421875 29.984375 -1.421875 
Q 24.8125 -1.421875 18.96875 -0.25 
Q 13.140625 0.921875 6.890625 3.21875 
L 6.890625 13.375 
Q 12.890625 10.015625 18.65625 8.296875 
Q 24.421875 6.59375 29.984375 6.59375 
Q 38.421875 6.59375 43.015625 9.90625 
Q 47.609375 13.234375 47.609375 19.390625 
Q 47.609375 24.75 44.3125 27.78125 
Q 41.015625 30.8125 33.5 32.328125 
L 27.484375 33.5 
Q 16.453125 35.6875 11.515625 40.375 
Q 6.59375 45.0625 6.59375 53.421875 
Q 6.59375 63.09375 13.40625 68.65625 
Q 20.21875 74.21875 32.171875 74.21875 
Q 37.3125 74.21875 42.625 73.28125 
Q 47.953125 72.359375 53.515625 70.515625 
z
" id="DejaVuSans-83"/>
      <path d="M 19.671875 64.796875 
L 19.671875 8.109375 
L 31.59375 8.109375 
Q 46.6875 8.109375 53.6875 14.9375 
Q 60.6875 21.78125 60.6875 36.53125 
Q 60.6875 51.171875 53.6875 57.984375 
Q 46.6875 64.796875 31.59375 64.796875 
z
M 9.8125 72.90625 
L 30.078125 72.90625 
Q 51.265625 72.90625 61.171875 64.09375 
Q 71.09375 55.28125 71.09375 36.53125 
Q 71.09375 17.671875 61.125 8.828125 
Q 51.171875 0 30.078125 0 
L 9.8125 0 
z
" id="DejaVuSans-68"/>
     </defs>
     <use xlink:href="#DejaVuSans-83"/>
     <use x="63.476562" xlink:href="#DejaVuSans-101"/>
     <use x="125" xlink:href="#DejaVuSans-112"/>
     <use x="188.476562" xlink:href="#DejaVuSans-97"/>
     <use x="249.755859" xlink:href="#DejaVuSans-114"/>
     <use x="290.869141" xlink:href="#DejaVuSans-97"/>
     <use x="352.148438" xlink:href="#DejaVuSans-98"/>
     <use x="415.625" xlink:href="#DejaVuSans-108"/>
     <use x="443.408203" xlink:href="#DejaVuSans-101"/>
     <use x="504.931641" xlink:href="#DejaVuSans-32"/>
     <use x="536.71875" xlink:href="#DejaVuSans-102"/>
     <use x="571.923828" xlink:href="#DejaVuSans-117"/>
     <use x="635.302734" xlink:href="#DejaVuSans-110"/>
     <use x="698.681641" xlink:href="#DejaVuSans-99"/>
     <use x="753.662109" xlink:href="#DejaVuSans-116"/>
     <use x="792.871094" xlink:href="#DejaVuSans-105"/>
     <use x="820.654297" xlink:href="#DejaVuSans-111"/>
     <use x="881.835938" xlink:href="#DejaVuSans-110"/>
     <use x="945.214844" xlink:href="#DejaVuSans-115"/>
     <use x="997.314453" xlink:href="#DejaVuSans-44"/>
     <use x="1029.101562" xlink:href="#DejaVuSans-32"/>
     <use x="1060.888672" xlink:href="#DejaVuSans-51"/>
     <use x="1124.511719" xlink:href="#DejaVuSans-45"/>
     <use x="1160.595703" xlink:href="#DejaVuSans-68"/>
    </g>
    <!-- 51 targets: 100..1e-08 -->
    <g transform="translate(60.41088 37.004824)scale(0.102 -0.102)">
     <defs>
      <path d="M 11.71875 12.40625 
L 22.015625 12.40625 
L 22.015625 0 
L 11.71875 0 
z
M 11.71875 51.703125 
L 22.015625 51.703125 
L 22.015625 39.3125 
L 11.71875 39.3125 
z
" id="DejaVuSans-58"/>
     </defs>
     <use xlink:href="#DejaVuSans-53"/>
     <use x="63.623047" xlink:href="#DejaVuSans-49"/>
     <use x="127.246094" xlink:href="#DejaVuSans-32"/>
     <use x="159.033203" xlink:href="#DejaVuSans-116"/>
     <use x="198.242188" xlink:href="#DejaVuSans-97"/>
     <use x="259.521484" xlink:href="#DejaVuSans-114"/>
     <use x="298.884766" xlink:href="#DejaVuSans-103"/>
     <use x="362.361328" xlink:href="#DejaVuSans-101"/>
     <use x="423.884766" xlink:href="#DejaVuSans-116"/>
     <use x="463.09375" xlink:href="#DejaVuSans-115"/>
     <use x="515.193359" xlink:href="#DejaVuSans-58"/>
     <use x="548.884766" xlink:href="#DejaVuSans-32"/>
     <use x="580.671875" xlink:href="#DejaVuSans-49"/>
     <use x="644.294922" xlink:href="#DejaVuSans-48"/>
     <use x="707.917969" xlink:href="#DejaVuSans-48"/>
     <use x="771.541016" xlink:href="#DejaVuSans-46"/>
     <use x="803.328125" xlink:href="#DejaVuSans-46"/>
     <use x="835.115234" xlink:href="#DejaVuSans-49"/>
     <use x="898.738281" xlink:href="#DejaVuSans-101"/>
     <use x="960.261719" xlink:href="#DejaVuSans-45"/>
     <use x="996.345703" xlink:href="#DejaVuSans-48"/>
     <use x="1059.96875" xlink:href="#DejaVuSans-56"/>
    </g>
    <!-- 15 instances -->
    <g transform="translate(60.41088 48.426593)scale(0.102 -0.102)">
     <use xlink:href="#DejaVuSans-49"/>
     <use x="63.623047" xlink:href="#DejaVuSans-53"/>
     <use x="127.246094" xlink:href="#DejaVuSans-32"/>
     <use x="159.033203" xlink:href="#DejaVuSans-105"/>
     <use x="186.816406" xlink:href="#DejaVuSans-110"/>
     <use x="250.195312" xlink:href="#DejaVuSans-115"/>
     <use x="302.294922" xlink:href="#DejaVuSans-116"/>
     <use x="341.503906" xlink:href="#DejaVuSans-97"/>
     <use x="402.783203" xlink:href="#DejaVuSans-110"/>
     <use x="466.162109" xlink:href="#DejaVuSans-99"/>
     <use x="521.142578" xlink:href="#DejaVuSans-101"/>
     <use x="582.666016" xlink:href="#DejaVuSans-115"/>
    </g>
   </g>
   <g id="text_19">
    <!-- v2.4 -->
    <g style="fill:#808080;" transform="translate(187.233062 293.909432)scale(0.1 -0.1)">
     <use xlink:href="#DejaVuSans-118"/>
     <use x="59.179688" xlink:href="#DejaVuSans-50"/>
     <use x="122.802734" xlink:href="#DejaVuSans-46"/>
     <use x="154.589844" xlink:href="#DejaVuSans-52"/>
    </g>
   </g>
  </g>
 </g>
 <defs>
  <clipPath id="p41b5a83012">
   <rect height="295.488" width="281.088" x="57.6" y="3.456"/>
  </clipPath>
 </defs>
</svg>
