<?xml version="1.0" encoding="utf-8" standalone="no"?>
<!DOCTYPE svg PUBLIC "-//W3C//DTD SVG 1.1//EN"
  "http://www.w3.org/Graphics/SVG/1.1/DTD/svg11.dtd">
<!-- Created with matplotlib (https://matplotlib.org/) -->
<svg height="345.6pt" version="1.1" viewBox="0 0 460.8 345.6" width="460.8pt" xmlns="http://www.w3.org/2000/svg" xmlns:xlink="http://www.w3.org/1999/xlink">
 <metadata>
  <rdf:RDF xmlns:cc="http://creativecommons.org/ns#" xmlns:dc="http://purl.org/dc/elements/1.1/" xmlns:rdf="http://www.w3.org/1999/02/22-rdf-syntax-ns#">
   <cc:Work>
    <dc:type rdf:resource="http://purl.org/dc/dcmitype/StillImage"/>
    <dc:date>2021-06-17T01:37:24.946928</dc:date>
    <dc:format>image/svg+xml</dc:format>
    <dc:creator>
     <cc:Agent>
      <dc:title>Matplotlib v3.3.4, https://matplotlib.org/</dc:title>
     </cc:Agent>
    </dc:creator>
   </cc:Work>
  </rdf:RDF>
 </metadata>
 <defs>
  <style type="text/css">*{stroke-linecap:butt;stroke-linejoin:round;}</style>
 </defs>
 <g id="figure_1">
  <g id="patch_1">
   <path d="M 0 345.6 
L 460.8 345.6 
L 460.8 0 
L 0 0 
z
" style="fill:#ffffff;"/>
  </g>
  <g id="axes_1">
   <g id="patch_2">
    <path d="M 57.6 298.944 
L 338.688 298.944 
L 338.688 27.648 
L 57.6 27.648 
z
" style="fill:#ffffff;"/>
   </g>
   <g id="matplotlib.axis_1">
    <g id="xtick_1">
     <g id="line2d_1">
      <path clip-path="url(#pc65835fa80)" d="M 57.6 298.944 
L 57.6 27.648 
" style="fill:none;stroke:#b0b0b0;stroke-linecap:square;stroke-width:0.8;"/>
     </g>
     <g id="line2d_2">
      <defs>
       <path d="M 0 0 
L 0 3.5 
" id="m9bdee3e2ef" style="stroke:#000000;stroke-width:0.8;"/>
      </defs>
      <g>
       <use style="stroke:#000000;stroke-width:0.8;" x="57.6" xlink:href="#m9bdee3e2ef" y="298.944"/>
      </g>
     </g>
     <g id="text_1">
      <!-- 0 -->
      <g transform="translate(51.2375 321.140875)scale(0.2 -0.2)">
       <defs>
        <path d="M 31.78125 66.40625 
Q 24.171875 66.40625 20.328125 58.90625 
Q 16.5 51.421875 16.5 36.375 
Q 16.5 21.390625 20.328125 13.890625 
Q 24.171875 6.390625 31.78125 6.390625 
Q 39.453125 6.390625 43.28125 13.890625 
Q 47.125 21.390625 47.125 36.375 
Q 47.125 51.421875 43.28125 58.90625 
Q 39.453125 66.40625 31.78125 66.40625 
z
M 31.78125 74.21875 
Q 44.046875 74.21875 50.515625 64.515625 
Q 56.984375 54.828125 56.984375 36.375 
Q 56.984375 17.96875 50.515625 8.265625 
Q 44.046875 -1.421875 31.78125 -1.421875 
Q 19.53125 -1.421875 13.0625 8.265625 
Q 6.59375 17.96875 6.59375 36.375 
Q 6.59375 54.828125 13.0625 64.515625 
Q 19.53125 74.21875 31.78125 74.21875 
z
" id="DejaVuSans-48"/>
       </defs>
       <use xlink:href="#DejaVuSans-48"/>
      </g>
     </g>
    </g>
    <g id="xtick_2">
     <g id="line2d_3">
      <path clip-path="url(#pc65835fa80)" d="M 137.910857 298.944 
L 137.910857 27.648 
" style="fill:none;stroke:#b0b0b0;stroke-linecap:square;stroke-width:0.8;"/>
     </g>
     <g id="line2d_4">
      <g>
       <use style="stroke:#000000;stroke-width:0.8;" x="137.910857" xlink:href="#m9bdee3e2ef" y="298.944"/>
      </g>
     </g>
     <g id="text_2">
      <!-- 2 -->
      <g transform="translate(131.548357 321.140875)scale(0.2 -0.2)">
       <defs>
        <path d="M 19.1875 8.296875 
L 53.609375 8.296875 
L 53.609375 0 
L 7.328125 0 
L 7.328125 8.296875 
Q 12.9375 14.109375 22.625 23.890625 
Q 32.328125 33.6875 34.8125 36.53125 
Q 39.546875 41.84375 41.421875 45.53125 
Q 43.3125 49.21875 43.3125 52.78125 
Q 43.3125 58.59375 39.234375 62.25 
Q 35.15625 65.921875 28.609375 65.921875 
Q 23.96875 65.921875 18.8125 64.3125 
Q 13.671875 62.703125 7.8125 59.421875 
L 7.8125 69.390625 
Q 13.765625 71.78125 18.9375 73 
Q 24.125 74.21875 28.421875 74.21875 
Q 39.75 74.21875 46.484375 68.546875 
Q 53.21875 62.890625 53.21875 53.421875 
Q 53.21875 48.921875 51.53125 44.890625 
Q 49.859375 40.875 45.40625 35.40625 
Q 44.1875 33.984375 37.640625 27.21875 
Q 31.109375 20.453125 19.1875 8.296875 
z
" id="DejaVuSans-50"/>
       </defs>
       <use xlink:href="#DejaVuSans-50"/>
      </g>
     </g>
    </g>
    <g id="xtick_3">
     <g id="line2d_5">
      <path clip-path="url(#pc65835fa80)" d="M 218.221714 298.944 
L 218.221714 27.648 
" style="fill:none;stroke:#b0b0b0;stroke-linecap:square;stroke-width:0.8;"/>
     </g>
     <g id="line2d_6">
      <g>
       <use style="stroke:#000000;stroke-width:0.8;" x="218.221714" xlink:href="#m9bdee3e2ef" y="298.944"/>
      </g>
     </g>
     <g id="text_3">
      <!-- 4 -->
      <g transform="translate(211.859214 321.140875)scale(0.2 -0.2)">
       <defs>
        <path d="M 37.796875 64.3125 
L 12.890625 25.390625 
L 37.796875 25.390625 
z
M 35.203125 72.90625 
L 47.609375 72.90625 
L 47.609375 25.390625 
L 58.015625 25.390625 
L 58.015625 17.1875 
L 47.609375 17.1875 
L 47.609375 0 
L 37.796875 0 
L 37.796875 17.1875 
L 4.890625 17.1875 
L 4.890625 26.703125 
z
" id="DejaVuSans-52"/>
       </defs>
       <use xlink:href="#DejaVuSans-52"/>
      </g>
     </g>
    </g>
    <g id="xtick_4">
     <g id="line2d_7">
      <path clip-path="url(#pc65835fa80)" d="M 298.532571 298.944 
L 298.532571 27.648 
" style="fill:none;stroke:#b0b0b0;stroke-linecap:square;stroke-width:0.8;"/>
     </g>
     <g id="line2d_8">
      <g>
       <use style="stroke:#000000;stroke-width:0.8;" x="298.532571" xlink:href="#m9bdee3e2ef" y="298.944"/>
      </g>
     </g>
     <g id="text_4">
      <!-- 6 -->
      <g transform="translate(292.170071 321.140875)scale(0.2 -0.2)">
       <defs>
        <path d="M 33.015625 40.375 
Q 26.375 40.375 22.484375 35.828125 
Q 18.609375 31.296875 18.609375 23.390625 
Q 18.609375 15.53125 22.484375 10.953125 
Q 26.375 6.390625 33.015625 6.390625 
Q 39.65625 6.390625 43.53125 10.953125 
Q 47.40625 15.53125 47.40625 23.390625 
Q 47.40625 31.296875 43.53125 35.828125 
Q 39.65625 40.375 33.015625 40.375 
z
M 52.59375 71.296875 
L 52.59375 62.3125 
Q 48.875 64.0625 45.09375 64.984375 
Q 41.3125 65.921875 37.59375 65.921875 
Q 27.828125 65.921875 22.671875 59.328125 
Q 17.53125 52.734375 16.796875 39.40625 
Q 19.671875 43.65625 24.015625 45.921875 
Q 28.375 48.1875 33.59375 48.1875 
Q 44.578125 48.1875 50.953125 41.515625 
Q 57.328125 34.859375 57.328125 23.390625 
Q 57.328125 12.15625 50.6875 5.359375 
Q 44.046875 -1.421875 33.015625 -1.421875 
Q 20.359375 -1.421875 13.671875 8.265625 
Q 6.984375 17.96875 6.984375 36.375 
Q 6.984375 53.65625 15.1875 63.9375 
Q 23.390625 74.21875 37.203125 74.21875 
Q 40.921875 74.21875 44.703125 73.484375 
Q 48.484375 72.75 52.59375 71.296875 
z
" id="DejaVuSans-54"/>
       </defs>
       <use xlink:href="#DejaVuSans-54"/>
      </g>
     </g>
    </g>
    <g id="xtick_5">
     <g id="line2d_9">
      <path clip-path="url(#pc65835fa80)" d="M 97.755429 298.944 
L 97.755429 27.648 
" style="fill:none;stroke:#b0b0b0;stroke-linecap:square;stroke-width:0.8;"/>
     </g>
     <g id="line2d_10">
      <defs>
       <path d="M 0 0 
L 0 2 
" id="m77e0a8910c" style="stroke:#000000;stroke-width:0.6;"/>
      </defs>
      <g>
       <use style="stroke:#000000;stroke-width:0.6;" x="97.755429" xlink:href="#m77e0a8910c" y="298.944"/>
      </g>
     </g>
    </g>
    <g id="xtick_6">
     <g id="line2d_11">
      <path clip-path="url(#pc65835fa80)" d="M 178.066286 298.944 
L 178.066286 27.648 
" style="fill:none;stroke:#b0b0b0;stroke-linecap:square;stroke-width:0.8;"/>
     </g>
     <g id="line2d_12">
      <g>
       <use style="stroke:#000000;stroke-width:0.6;" x="178.066286" xlink:href="#m77e0a8910c" y="298.944"/>
      </g>
     </g>
    </g>
    <g id="xtick_7">
     <g id="line2d_13">
      <path clip-path="url(#pc65835fa80)" d="M 258.377143 298.944 
L 258.377143 27.648 
" style="fill:none;stroke:#b0b0b0;stroke-linecap:square;stroke-width:0.8;"/>
     </g>
     <g id="line2d_14">
      <g>
       <use style="stroke:#000000;stroke-width:0.6;" x="258.377143" xlink:href="#m77e0a8910c" y="298.944"/>
      </g>
     </g>
    </g>
    <g id="xtick_8">
     <g id="line2d_15">
      <path clip-path="url(#pc65835fa80)" d="M 338.688 298.944 
L 338.688 27.648 
" style="fill:none;stroke:#b0b0b0;stroke-linecap:square;stroke-width:0.8;"/>
     </g>
     <g id="line2d_16">
      <g>
       <use style="stroke:#000000;stroke-width:0.6;" x="338.688" xlink:href="#m77e0a8910c" y="298.944"/>
      </g>
     </g>
    </g>
    <g id="text_5">
     <!-- log10(# f-evals / dimension) -->
     <g transform="translate(77.764078 342.217594)scale(0.17 -0.17)">
      <defs>
       <path d="M 9.421875 75.984375 
L 18.40625 75.984375 
L 18.40625 0 
L 9.421875 0 
z
" id="DejaVuSans-108"/>
       <path d="M 30.609375 48.390625 
Q 23.390625 48.390625 19.1875 42.75 
Q 14.984375 37.109375 14.984375 27.296875 
Q 14.984375 17.484375 19.15625 11.84375 
Q 23.34375 6.203125 30.609375 6.203125 
Q 37.796875 6.203125 41.984375 11.859375 
Q 46.1875 17.53125 46.1875 27.296875 
Q 46.1875 37.015625 41.984375 42.703125 
Q 37.796875 48.390625 30.609375 48.390625 
z
M 30.609375 56 
Q 42.328125 56 49.015625 48.375 
Q 55.71875 40.765625 55.71875 27.296875 
Q 55.71875 13.875 49.015625 6.21875 
Q 42.328125 -1.421875 30.609375 -1.421875 
Q 18.84375 -1.421875 12.171875 6.21875 
Q 5.515625 13.875 5.515625 27.296875 
Q 5.515625 40.765625 12.171875 48.375 
Q 18.84375 56 30.609375 56 
z
" id="DejaVuSans-111"/>
       <path d="M 45.40625 27.984375 
Q 45.40625 37.75 41.375 43.109375 
Q 37.359375 48.484375 30.078125 48.484375 
Q 22.859375 48.484375 18.828125 43.109375 
Q 14.796875 37.75 14.796875 27.984375 
Q 14.796875 18.265625 18.828125 12.890625 
Q 22.859375 7.515625 30.078125 7.515625 
Q 37.359375 7.515625 41.375 12.890625 
Q 45.40625 18.265625 45.40625 27.984375 
z
M 54.390625 6.78125 
Q 54.390625 -7.171875 48.1875 -13.984375 
Q 42 -20.796875 29.203125 -20.796875 
Q 24.46875 -20.796875 20.265625 -20.09375 
Q 16.0625 -19.390625 12.109375 -17.921875 
L 12.109375 -9.1875 
Q 16.0625 -11.328125 19.921875 -12.34375 
Q 23.78125 -13.375 27.78125 -13.375 
Q 36.625 -13.375 41.015625 -8.765625 
Q 45.40625 -4.15625 45.40625 5.171875 
L 45.40625 9.625 
Q 42.625 4.78125 38.28125 2.390625 
Q 33.9375 0 27.875 0 
Q 17.828125 0 11.671875 7.65625 
Q 5.515625 15.328125 5.515625 27.984375 
Q 5.515625 40.671875 11.671875 48.328125 
Q 17.828125 56 27.875 56 
Q 33.9375 56 38.28125 53.609375 
Q 42.625 51.21875 45.40625 46.390625 
L 45.40625 54.6875 
L 54.390625 54.6875 
z
" id="DejaVuSans-103"/>
       <path d="M 12.40625 8.296875 
L 28.515625 8.296875 
L 28.515625 63.921875 
L 10.984375 60.40625 
L 10.984375 69.390625 
L 28.421875 72.90625 
L 38.28125 72.90625 
L 38.28125 8.296875 
L 54.390625 8.296875 
L 54.390625 0 
L 12.40625 0 
z
" id="DejaVuSans-49"/>
       <path d="M 31 75.875 
Q 24.46875 64.65625 21.28125 53.65625 
Q 18.109375 42.671875 18.109375 31.390625 
Q 18.109375 20.125 21.3125 9.0625 
Q 24.515625 -2 31 -13.1875 
L 23.1875 -13.1875 
Q 15.875 -1.703125 12.234375 9.375 
Q 8.59375 20.453125 8.59375 31.390625 
Q 8.59375 42.28125 12.203125 53.3125 
Q 15.828125 64.359375 23.1875 75.875 
z
" id="DejaVuSans-40"/>
       <path d="M 51.125 44 
L 36.921875 44 
L 32.8125 27.6875 
L 47.125 27.6875 
z
M 43.796875 71.78125 
L 38.71875 51.515625 
L 52.984375 51.515625 
L 58.109375 71.78125 
L 65.921875 71.78125 
L 60.890625 51.515625 
L 76.125 51.515625 
L 76.125 44 
L 58.984375 44 
L 54.984375 27.6875 
L 70.515625 27.6875 
L 70.515625 20.21875 
L 53.078125 20.21875 
L 48 0 
L 40.1875 0 
L 45.21875 20.21875 
L 30.90625 20.21875 
L 25.875 0 
L 18.015625 0 
L 23.09375 20.21875 
L 7.71875 20.21875 
L 7.71875 27.6875 
L 24.90625 27.6875 
L 29 44 
L 13.28125 44 
L 13.28125 51.515625 
L 30.90625 51.515625 
L 35.890625 71.78125 
z
" id="DejaVuSans-35"/>
       <path id="DejaVuSans-32"/>
       <path d="M 37.109375 75.984375 
L 37.109375 68.5 
L 28.515625 68.5 
Q 23.6875 68.5 21.796875 66.546875 
Q 19.921875 64.59375 19.921875 59.515625 
L 19.921875 54.6875 
L 34.71875 54.6875 
L 34.71875 47.703125 
L 19.921875 47.703125 
L 19.921875 0 
L 10.890625 0 
L 10.890625 47.703125 
L 2.296875 47.703125 
L 2.296875 54.6875 
L 10.890625 54.6875 
L 10.890625 58.5 
Q 10.890625 67.625 15.140625 71.796875 
Q 19.390625 75.984375 28.609375 75.984375 
z
" id="DejaVuSans-102"/>
       <path d="M 4.890625 31.390625 
L 31.203125 31.390625 
L 31.203125 23.390625 
L 4.890625 23.390625 
z
" id="DejaVuSans-45"/>
       <path d="M 56.203125 29.59375 
L 56.203125 25.203125 
L 14.890625 25.203125 
Q 15.484375 15.921875 20.484375 11.0625 
Q 25.484375 6.203125 34.421875 6.203125 
Q 39.59375 6.203125 44.453125 7.46875 
Q 49.3125 8.734375 54.109375 11.28125 
L 54.109375 2.78125 
Q 49.265625 0.734375 44.1875 -0.34375 
Q 39.109375 -1.421875 33.890625 -1.421875 
Q 20.796875 -1.421875 13.15625 6.1875 
Q 5.515625 13.8125 5.515625 26.8125 
Q 5.515625 40.234375 12.765625 48.109375 
Q 20.015625 56 32.328125 56 
Q 43.359375 56 49.78125 48.890625 
Q 56.203125 41.796875 56.203125 29.59375 
z
M 47.21875 32.234375 
Q 47.125 39.59375 43.09375 43.984375 
Q 39.0625 48.390625 32.421875 48.390625 
Q 24.90625 48.390625 20.390625 44.140625 
Q 15.875 39.890625 15.1875 32.171875 
z
" id="DejaVuSans-101"/>
       <path d="M 2.984375 54.6875 
L 12.5 54.6875 
L 29.59375 8.796875 
L 46.6875 54.6875 
L 56.203125 54.6875 
L 35.6875 0 
L 23.484375 0 
z
" id="DejaVuSans-118"/>
       <path d="M 34.28125 27.484375 
Q 23.390625 27.484375 19.1875 25 
Q 14.984375 22.515625 14.984375 16.5 
Q 14.984375 11.71875 18.140625 8.90625 
Q 21.296875 6.109375 26.703125 6.109375 
Q 34.1875 6.109375 38.703125 11.40625 
Q 43.21875 16.703125 43.21875 25.484375 
L 43.21875 27.484375 
z
M 52.203125 31.203125 
L 52.203125 0 
L 43.21875 0 
L 43.21875 8.296875 
Q 40.140625 3.328125 35.546875 0.953125 
Q 30.953125 -1.421875 24.3125 -1.421875 
Q 15.921875 -1.421875 10.953125 3.296875 
Q 6 8.015625 6 15.921875 
Q 6 25.140625 12.171875 29.828125 
Q 18.359375 34.515625 30.609375 34.515625 
L 43.21875 34.515625 
L 43.21875 35.40625 
Q 43.21875 41.609375 39.140625 45 
Q 35.0625 48.390625 27.6875 48.390625 
Q 23 48.390625 18.546875 47.265625 
Q 14.109375 46.140625 10.015625 43.890625 
L 10.015625 52.203125 
Q 14.9375 54.109375 19.578125 55.046875 
Q 24.21875 56 28.609375 56 
Q 40.484375 56 46.34375 49.84375 
Q 52.203125 43.703125 52.203125 31.203125 
z
" id="DejaVuSans-97"/>
       <path d="M 44.28125 53.078125 
L 44.28125 44.578125 
Q 40.484375 46.53125 36.375 47.5 
Q 32.28125 48.484375 27.875 48.484375 
Q 21.1875 48.484375 17.84375 46.4375 
Q 14.5 44.390625 14.5 40.28125 
Q 14.5 37.15625 16.890625 35.375 
Q 19.28125 33.59375 26.515625 31.984375 
L 29.59375 31.296875 
Q 39.15625 29.25 43.1875 25.515625 
Q 47.21875 21.78125 47.21875 15.09375 
Q 47.21875 7.46875 41.1875 3.015625 
Q 35.15625 -1.421875 24.609375 -1.421875 
Q 20.21875 -1.421875 15.453125 -0.5625 
Q 10.6875 0.296875 5.421875 2 
L 5.421875 11.28125 
Q 10.40625 8.6875 15.234375 7.390625 
Q 20.0625 6.109375 24.8125 6.109375 
Q 31.15625 6.109375 34.5625 8.28125 
Q 37.984375 10.453125 37.984375 14.40625 
Q 37.984375 18.0625 35.515625 20.015625 
Q 33.0625 21.96875 24.703125 23.78125 
L 21.578125 24.515625 
Q 13.234375 26.265625 9.515625 29.90625 
Q 5.8125 33.546875 5.8125 39.890625 
Q 5.8125 47.609375 11.28125 51.796875 
Q 16.75 56 26.8125 56 
Q 31.78125 56 36.171875 55.265625 
Q 40.578125 54.546875 44.28125 53.078125 
z
" id="DejaVuSans-115"/>
       <path d="M 25.390625 72.90625 
L 33.6875 72.90625 
L 8.296875 -9.28125 
L 0 -9.28125 
z
" id="DejaVuSans-47"/>
       <path d="M 45.40625 46.390625 
L 45.40625 75.984375 
L 54.390625 75.984375 
L 54.390625 0 
L 45.40625 0 
L 45.40625 8.203125 
Q 42.578125 3.328125 38.25 0.953125 
Q 33.9375 -1.421875 27.875 -1.421875 
Q 17.96875 -1.421875 11.734375 6.484375 
Q 5.515625 14.40625 5.515625 27.296875 
Q 5.515625 40.1875 11.734375 48.09375 
Q 17.96875 56 27.875 56 
Q 33.9375 56 38.25 53.625 
Q 42.578125 51.265625 45.40625 46.390625 
z
M 14.796875 27.296875 
Q 14.796875 17.390625 18.875 11.75 
Q 22.953125 6.109375 30.078125 6.109375 
Q 37.203125 6.109375 41.296875 11.75 
Q 45.40625 17.390625 45.40625 27.296875 
Q 45.40625 37.203125 41.296875 42.84375 
Q 37.203125 48.484375 30.078125 48.484375 
Q 22.953125 48.484375 18.875 42.84375 
Q 14.796875 37.203125 14.796875 27.296875 
z
" id="DejaVuSans-100"/>
       <path d="M 9.421875 54.6875 
L 18.40625 54.6875 
L 18.40625 0 
L 9.421875 0 
z
M 9.421875 75.984375 
L 18.40625 75.984375 
L 18.40625 64.59375 
L 9.421875 64.59375 
z
" id="DejaVuSans-105"/>
       <path d="M 52 44.1875 
Q 55.375 50.25 60.0625 53.125 
Q 64.75 56 71.09375 56 
Q 79.640625 56 84.28125 50.015625 
Q 88.921875 44.046875 88.921875 33.015625 
L 88.921875 0 
L 79.890625 0 
L 79.890625 32.71875 
Q 79.890625 40.578125 77.09375 44.375 
Q 74.3125 48.1875 68.609375 48.1875 
Q 61.625 48.1875 57.5625 43.546875 
Q 53.515625 38.921875 53.515625 30.90625 
L 53.515625 0 
L 44.484375 0 
L 44.484375 32.71875 
Q 44.484375 40.625 41.703125 44.40625 
Q 38.921875 48.1875 33.109375 48.1875 
Q 26.21875 48.1875 22.15625 43.53125 
Q 18.109375 38.875 18.109375 30.90625 
L 18.109375 0 
L 9.078125 0 
L 9.078125 54.6875 
L 18.109375 54.6875 
L 18.109375 46.1875 
Q 21.1875 51.21875 25.484375 53.609375 
Q 29.78125 56 35.6875 56 
Q 41.65625 56 45.828125 52.96875 
Q 50 49.953125 52 44.1875 
z
" id="DejaVuSans-109"/>
       <path d="M 54.890625 33.015625 
L 54.890625 0 
L 45.90625 0 
L 45.90625 32.71875 
Q 45.90625 40.484375 42.875 44.328125 
Q 39.84375 48.1875 33.796875 48.1875 
Q 26.515625 48.1875 22.3125 43.546875 
Q 18.109375 38.921875 18.109375 30.90625 
L 18.109375 0 
L 9.078125 0 
L 9.078125 54.6875 
L 18.109375 54.6875 
L 18.109375 46.1875 
Q 21.34375 51.125 25.703125 53.5625 
Q 30.078125 56 35.796875 56 
Q 45.21875 56 50.046875 50.171875 
Q 54.890625 44.34375 54.890625 33.015625 
z
" id="DejaVuSans-110"/>
       <path d="M 8.015625 75.875 
L 15.828125 75.875 
Q 23.140625 64.359375 26.78125 53.3125 
Q 30.421875 42.28125 30.421875 31.390625 
Q 30.421875 20.453125 26.78125 9.375 
Q 23.140625 -1.703125 15.828125 -13.1875 
L 8.015625 -13.1875 
Q 14.5 -2 17.703125 9.0625 
Q 20.90625 20.125 20.90625 31.390625 
Q 20.90625 42.671875 17.703125 53.65625 
Q 14.5 64.65625 8.015625 75.875 
z
" id="DejaVuSans-41"/>
      </defs>
      <use xlink:href="#DejaVuSans-108"/>
      <use x="27.783203" xlink:href="#DejaVuSans-111"/>
      <use x="88.964844" xlink:href="#DejaVuSans-103"/>
      <use x="152.441406" xlink:href="#DejaVuSans-49"/>
      <use x="216.064453" xlink:href="#DejaVuSans-48"/>
      <use x="279.6875" xlink:href="#DejaVuSans-40"/>
      <use x="318.701172" xlink:href="#DejaVuSans-35"/>
      <use x="402.490234" xlink:href="#DejaVuSans-32"/>
      <use x="434.277344" xlink:href="#DejaVuSans-102"/>
      <use x="463.982422" xlink:href="#DejaVuSans-45"/>
      <use x="500.066406" xlink:href="#DejaVuSans-101"/>
      <use x="561.589844" xlink:href="#DejaVuSans-118"/>
      <use x="620.769531" xlink:href="#DejaVuSans-97"/>
      <use x="682.048828" xlink:href="#DejaVuSans-108"/>
      <use x="709.832031" xlink:href="#DejaVuSans-115"/>
      <use x="761.931641" xlink:href="#DejaVuSans-32"/>
      <use x="793.71875" xlink:href="#DejaVuSans-47"/>
      <use x="827.410156" xlink:href="#DejaVuSans-32"/>
      <use x="859.197266" xlink:href="#DejaVuSans-100"/>
      <use x="922.673828" xlink:href="#DejaVuSans-105"/>
      <use x="950.457031" xlink:href="#DejaVuSans-109"/>
      <use x="1047.869141" xlink:href="#DejaVuSans-101"/>
      <use x="1109.392578" xlink:href="#DejaVuSans-110"/>
      <use x="1172.771484" xlink:href="#DejaVuSans-115"/>
      <use x="1224.871094" xlink:href="#DejaVuSans-105"/>
      <use x="1252.654297" xlink:href="#DejaVuSans-111"/>
      <use x="1313.835938" xlink:href="#DejaVuSans-110"/>
      <use x="1377.214844" xlink:href="#DejaVuSans-41"/>
     </g>
    </g>
   </g>
   <g id="matplotlib.axis_2">
    <g id="ytick_1">
     <g id="line2d_17">
      <path clip-path="url(#pc65835fa80)" d="M 57.6 298.944 
L 338.688 298.944 
" style="fill:none;stroke:#b0b0b0;stroke-linecap:square;stroke-width:0.8;"/>
     </g>
     <g id="line2d_18">
      <defs>
       <path d="M 0 0 
L -3.5 0 
" id="me11465e23f" style="stroke:#000000;stroke-width:0.8;"/>
      </defs>
      <g>
       <use style="stroke:#000000;stroke-width:0.8;" x="57.6" xlink:href="#me11465e23f" y="298.944"/>
      </g>
     </g>
     <g id="text_6">
      <!-- 0.0 -->
      <g transform="translate(25.155 305.02275)scale(0.16 -0.16)">
       <defs>
        <path d="M 10.6875 12.40625 
L 21 12.40625 
L 21 0 
L 10.6875 0 
z
" id="DejaVuSans-46"/>
       </defs>
       <use xlink:href="#DejaVuSans-48"/>
       <use x="63.623047" xlink:href="#DejaVuSans-46"/>
       <use x="95.410156" xlink:href="#DejaVuSans-48"/>
      </g>
     </g>
    </g>
    <g id="ytick_2">
     <g id="line2d_19">
      <path clip-path="url(#pc65835fa80)" d="M 57.6 245.22202 
L 338.688 245.22202 
" style="fill:none;stroke:#b0b0b0;stroke-linecap:square;stroke-width:0.8;"/>
     </g>
     <g id="line2d_20">
      <g>
       <use style="stroke:#000000;stroke-width:0.8;" x="57.6" xlink:href="#me11465e23f" y="245.22202"/>
      </g>
     </g>
     <g id="text_7">
      <!-- 0.2 -->
      <g transform="translate(25.155 251.30077)scale(0.16 -0.16)">
       <use xlink:href="#DejaVuSans-48"/>
       <use x="63.623047" xlink:href="#DejaVuSans-46"/>
       <use x="95.410156" xlink:href="#DejaVuSans-50"/>
      </g>
     </g>
    </g>
    <g id="ytick_3">
     <g id="line2d_21">
      <path clip-path="url(#pc65835fa80)" d="M 57.6 191.50004 
L 338.688 191.50004 
" style="fill:none;stroke:#b0b0b0;stroke-linecap:square;stroke-width:0.8;"/>
     </g>
     <g id="line2d_22">
      <g>
       <use style="stroke:#000000;stroke-width:0.8;" x="57.6" xlink:href="#me11465e23f" y="191.50004"/>
      </g>
     </g>
     <g id="text_8">
      <!-- 0.4 -->
      <g transform="translate(25.155 197.57879)scale(0.16 -0.16)">
       <use xlink:href="#DejaVuSans-48"/>
       <use x="63.623047" xlink:href="#DejaVuSans-46"/>
       <use x="95.410156" xlink:href="#DejaVuSans-52"/>
      </g>
     </g>
    </g>
    <g id="ytick_4">
     <g id="line2d_23">
      <path clip-path="url(#pc65835fa80)" d="M 57.6 137.778059 
L 338.688 137.778059 
" style="fill:none;stroke:#b0b0b0;stroke-linecap:square;stroke-width:0.8;"/>
     </g>
     <g id="line2d_24">
      <g>
       <use style="stroke:#000000;stroke-width:0.8;" x="57.6" xlink:href="#me11465e23f" y="137.778059"/>
      </g>
     </g>
     <g id="text_9">
      <!-- 0.6 -->
      <g transform="translate(25.155 143.856809)scale(0.16 -0.16)">
       <use xlink:href="#DejaVuSans-48"/>
       <use x="63.623047" xlink:href="#DejaVuSans-46"/>
       <use x="95.410156" xlink:href="#DejaVuSans-54"/>
      </g>
     </g>
    </g>
    <g id="ytick_5">
     <g id="line2d_25">
      <path clip-path="url(#pc65835fa80)" d="M 57.6 84.056079 
L 338.688 84.056079 
" style="fill:none;stroke:#b0b0b0;stroke-linecap:square;stroke-width:0.8;"/>
     </g>
     <g id="line2d_26">
      <g>
       <use style="stroke:#000000;stroke-width:0.8;" x="57.6" xlink:href="#me11465e23f" y="84.056079"/>
      </g>
     </g>
     <g id="text_10">
      <!-- 0.8 -->
      <g transform="translate(25.155 90.134829)scale(0.16 -0.16)">
       <defs>
        <path d="M 31.78125 34.625 
Q 24.75 34.625 20.71875 30.859375 
Q 16.703125 27.09375 16.703125 20.515625 
Q 16.703125 13.921875 20.71875 10.15625 
Q 24.75 6.390625 31.78125 6.390625 
Q 38.8125 6.390625 42.859375 10.171875 
Q 46.921875 13.96875 46.921875 20.515625 
Q 46.921875 27.09375 42.890625 30.859375 
Q 38.875 34.625 31.78125 34.625 
z
M 21.921875 38.8125 
Q 15.578125 40.375 12.03125 44.71875 
Q 8.5 49.078125 8.5 55.328125 
Q 8.5 64.0625 14.71875 69.140625 
Q 20.953125 74.21875 31.78125 74.21875 
Q 42.671875 74.21875 48.875 69.140625 
Q 55.078125 64.0625 55.078125 55.328125 
Q 55.078125 49.078125 51.53125 44.71875 
Q 48 40.375 41.703125 38.8125 
Q 48.828125 37.15625 52.796875 32.3125 
Q 56.78125 27.484375 56.78125 20.515625 
Q 56.78125 9.90625 50.3125 4.234375 
Q 43.84375 -1.421875 31.78125 -1.421875 
Q 19.734375 -1.421875 13.25 4.234375 
Q 6.78125 9.90625 6.78125 20.515625 
Q 6.78125 27.484375 10.78125 32.3125 
Q 14.796875 37.15625 21.921875 38.8125 
z
M 18.3125 54.390625 
Q 18.3125 48.734375 21.84375 45.5625 
Q 25.390625 42.390625 31.78125 42.390625 
Q 38.140625 42.390625 41.71875 45.5625 
Q 45.3125 48.734375 45.3125 54.390625 
Q 45.3125 60.0625 41.71875 63.234375 
Q 38.140625 66.40625 31.78125 66.40625 
Q 25.390625 66.40625 21.84375 63.234375 
Q 18.3125 60.0625 18.3125 54.390625 
z
" id="DejaVuSans-56"/>
       </defs>
       <use xlink:href="#DejaVuSans-48"/>
       <use x="63.623047" xlink:href="#DejaVuSans-46"/>
       <use x="95.410156" xlink:href="#DejaVuSans-56"/>
      </g>
     </g>
    </g>
    <g id="ytick_6">
     <g id="line2d_27">
      <path clip-path="url(#pc65835fa80)" d="M 57.6 30.334099 
L 338.688 30.334099 
" style="fill:none;stroke:#b0b0b0;stroke-linecap:square;stroke-width:0.8;"/>
     </g>
     <g id="line2d_28">
      <g>
       <use style="stroke:#000000;stroke-width:0.8;" x="57.6" xlink:href="#me11465e23f" y="30.334099"/>
      </g>
     </g>
     <g id="text_11">
      <!-- 1.0 -->
      <g transform="translate(25.155 36.412849)scale(0.16 -0.16)">
       <use xlink:href="#DejaVuSans-49"/>
       <use x="63.623047" xlink:href="#DejaVuSans-46"/>
       <use x="95.410156" xlink:href="#DejaVuSans-48"/>
      </g>
     </g>
    </g>
    <g id="text_12">
     <!-- Fraction of function,target pairs -->
     <g transform="translate(17.619531 297.681)rotate(-90)scale(0.17 -0.17)">
      <defs>
       <path d="M 9.8125 72.90625 
L 51.703125 72.90625 
L 51.703125 64.59375 
L 19.671875 64.59375 
L 19.671875 43.109375 
L 48.578125 43.109375 
L 48.578125 34.8125 
L 19.671875 34.8125 
L 19.671875 0 
L 9.8125 0 
z
" id="DejaVuSans-70"/>
       <path d="M 41.109375 46.296875 
Q 39.59375 47.171875 37.8125 47.578125 
Q 36.03125 48 33.890625 48 
Q 26.265625 48 22.1875 43.046875 
Q 18.109375 38.09375 18.109375 28.8125 
L 18.109375 0 
L 9.078125 0 
L 9.078125 54.6875 
L 18.109375 54.6875 
L 18.109375 46.1875 
Q 20.953125 51.171875 25.484375 53.578125 
Q 30.03125 56 36.53125 56 
Q 37.453125 56 38.578125 55.875 
Q 39.703125 55.765625 41.0625 55.515625 
z
" id="DejaVuSans-114"/>
       <path d="M 48.78125 52.59375 
L 48.78125 44.1875 
Q 44.96875 46.296875 41.140625 47.34375 
Q 37.3125 48.390625 33.40625 48.390625 
Q 24.65625 48.390625 19.8125 42.84375 
Q 14.984375 37.3125 14.984375 27.296875 
Q 14.984375 17.28125 19.8125 11.734375 
Q 24.65625 6.203125 33.40625 6.203125 
Q 37.3125 6.203125 41.140625 7.25 
Q 44.96875 8.296875 48.78125 10.40625 
L 48.78125 2.09375 
Q 45.015625 0.34375 40.984375 -0.53125 
Q 36.96875 -1.421875 32.421875 -1.421875 
Q 20.0625 -1.421875 12.78125 6.34375 
Q 5.515625 14.109375 5.515625 27.296875 
Q 5.515625 40.671875 12.859375 48.328125 
Q 20.21875 56 33.015625 56 
Q 37.15625 56 41.109375 55.140625 
Q 45.0625 54.296875 48.78125 52.59375 
z
" id="DejaVuSans-99"/>
       <path d="M 18.3125 70.21875 
L 18.3125 54.6875 
L 36.8125 54.6875 
L 36.8125 47.703125 
L 18.3125 47.703125 
L 18.3125 18.015625 
Q 18.3125 11.328125 20.140625 9.421875 
Q 21.96875 7.515625 27.59375 7.515625 
L 36.8125 7.515625 
L 36.8125 0 
L 27.59375 0 
Q 17.1875 0 13.234375 3.875 
Q 9.28125 7.765625 9.28125 18.015625 
L 9.28125 47.703125 
L 2.6875 47.703125 
L 2.6875 54.6875 
L 9.28125 54.6875 
L 9.28125 70.21875 
z
" id="DejaVuSans-116"/>
       <path d="M 8.5 21.578125 
L 8.5 54.6875 
L 17.484375 54.6875 
L 17.484375 21.921875 
Q 17.484375 14.15625 20.5 10.265625 
Q 23.53125 6.390625 29.59375 6.390625 
Q 36.859375 6.390625 41.078125 11.03125 
Q 45.3125 15.671875 45.3125 23.6875 
L 45.3125 54.6875 
L 54.296875 54.6875 
L 54.296875 0 
L 45.3125 0 
L 45.3125 8.40625 
Q 42.046875 3.421875 37.71875 1 
Q 33.40625 -1.421875 27.6875 -1.421875 
Q 18.265625 -1.421875 13.375 4.4375 
Q 8.5 10.296875 8.5 21.578125 
z
M 31.109375 56 
z
" id="DejaVuSans-117"/>
       <path d="M 11.71875 12.40625 
L 22.015625 12.40625 
L 22.015625 4 
L 14.015625 -11.625 
L 7.71875 -11.625 
L 11.71875 4 
z
" id="DejaVuSans-44"/>
       <path d="M 18.109375 8.203125 
L 18.109375 -20.796875 
L 9.078125 -20.796875 
L 9.078125 54.6875 
L 18.109375 54.6875 
L 18.109375 46.390625 
Q 20.953125 51.265625 25.265625 53.625 
Q 29.59375 56 35.59375 56 
Q 45.5625 56 51.78125 48.09375 
Q 58.015625 40.1875 58.015625 27.296875 
Q 58.015625 14.40625 51.78125 6.484375 
Q 45.5625 -1.421875 35.59375 -1.421875 
Q 29.59375 -1.421875 25.265625 0.953125 
Q 20.953125 3.328125 18.109375 8.203125 
z
M 48.6875 27.296875 
Q 48.6875 37.203125 44.609375 42.84375 
Q 40.53125 48.484375 33.40625 48.484375 
Q 26.265625 48.484375 22.1875 42.84375 
Q 18.109375 37.203125 18.109375 27.296875 
Q 18.109375 17.390625 22.1875 11.75 
Q 26.265625 6.109375 33.40625 6.109375 
Q 40.53125 6.109375 44.609375 11.75 
Q 48.6875 17.390625 48.6875 27.296875 
z
" id="DejaVuSans-112"/>
      </defs>
      <use xlink:href="#DejaVuSans-70"/>
      <use x="50.269531" xlink:href="#DejaVuSans-114"/>
      <use x="91.382812" xlink:href="#DejaVuSans-97"/>
      <use x="152.662109" xlink:href="#DejaVuSans-99"/>
      <use x="207.642578" xlink:href="#DejaVuSans-116"/>
      <use x="246.851562" xlink:href="#DejaVuSans-105"/>
      <use x="274.634766" xlink:href="#DejaVuSans-111"/>
      <use x="335.816406" xlink:href="#DejaVuSans-110"/>
      <use x="399.195312" xlink:href="#DejaVuSans-32"/>
      <use x="430.982422" xlink:href="#DejaVuSans-111"/>
      <use x="492.164062" xlink:href="#DejaVuSans-102"/>
      <use x="527.369141" xlink:href="#DejaVuSans-32"/>
      <use x="559.15625" xlink:href="#DejaVuSans-102"/>
      <use x="594.361328" xlink:href="#DejaVuSans-117"/>
      <use x="657.740234" xlink:href="#DejaVuSans-110"/>
      <use x="721.119141" xlink:href="#DejaVuSans-99"/>
      <use x="776.099609" xlink:href="#DejaVuSans-116"/>
      <use x="815.308594" xlink:href="#DejaVuSans-105"/>
      <use x="843.091797" xlink:href="#DejaVuSans-111"/>
      <use x="904.273438" xlink:href="#DejaVuSans-110"/>
      <use x="967.652344" xlink:href="#DejaVuSans-44"/>
      <use x="999.439453" xlink:href="#DejaVuSans-116"/>
      <use x="1038.648438" xlink:href="#DejaVuSans-97"/>
      <use x="1099.927734" xlink:href="#DejaVuSans-114"/>
      <use x="1139.291016" xlink:href="#DejaVuSans-103"/>
      <use x="1202.767578" xlink:href="#DejaVuSans-101"/>
      <use x="1264.291016" xlink:href="#DejaVuSans-116"/>
      <use x="1303.5" xlink:href="#DejaVuSans-32"/>
      <use x="1335.287109" xlink:href="#DejaVuSans-112"/>
      <use x="1398.763672" xlink:href="#DejaVuSans-97"/>
      <use x="1460.042969" xlink:href="#DejaVuSans-105"/>
      <use x="1487.826172" xlink:href="#DejaVuSans-114"/>
      <use x="1528.939453" xlink:href="#DejaVuSans-115"/>
     </g>
    </g>
   </g>
   <g id="line2d_29">
    <defs>
     <path d="M 0 1.5 
C 0.397805 1.5 0.77937 1.341951 1.06066 1.06066 
C 1.341951 0.77937 1.5 0.397805 1.5 0 
C 1.5 -0.397805 1.341951 -0.77937 1.06066 -1.06066 
C 0.77937 -1.341951 0.397805 -1.5 0 -1.5 
C -0.397805 -1.5 -0.77937 -1.341951 -1.06066 -1.06066 
C -1.341951 -0.77937 -1.5 -0.397805 -1.5 0 
C -1.5 0.397805 -1.341951 0.77937 -1.06066 1.06066 
C -0.77937 1.341951 -0.397805 1.5 0 1.5 
z
" id="mfe77040ba8" style="stroke:#00bfbf;"/>
    </defs>
    <g>
     <use style="fill:#00bfbf;stroke:#00bfbf;" x="230.787898" xlink:href="#mfe77040ba8" y="30.334099"/>
     <use style="fill:#00bfbf;stroke:#00bfbf;" x="230.787898" xlink:href="#mfe77040ba8" y="30.334099"/>
    </g>
   </g>
   <g id="line2d_30">
    <path d="M 45.512012 298.944 
L 45.512012 285.250162 
L 57.6 285.250162 
L 57.6 281.563359 
L 64.67102 281.563359 
L 64.67102 277.349871 
L 69.687988 277.349871 
L 69.687988 275.769812 
L 73.579452 275.769812 
L 73.579452 272.609696 
L 83.830028 272.609696 
L 83.830028 271.029638 
L 85.66744 271.029638 
L 85.66744 269.976266 
L 90.242884 269.976266 
L 90.242884 269.449579 
L 92.73846 269.449579 
L 92.73846 267.869521 
L 93.863965 267.869521 
L 93.863965 267.342835 
L 95.918017 267.342835 
L 95.918017 266.289463 
L 100.192776 266.289463 
L 100.192776 265.236091 
L 100.934985 265.236091 
L 100.934985 264.182719 
L 107.009204 264.182719 
L 107.009204 263.656033 
L 109.401893 263.656033 
L 109.401893 263.129347 
L 110.694282 263.129347 
L 110.694282 261.549288 
L 114.418861 261.549288 
L 114.418861 259.96923 
L 114.751048 259.96923 
L 114.751048 259.442544 
L 115.077025 259.442544 
L 115.077025 258.389172 
L 116.019919 258.389172 
L 116.019919 257.862486 
L 117.765302 257.862486 
L 117.765302 257.3358 
L 123.593547 257.3358 
L 123.593547 256.282427 
L 124.92835 256.282427 
L 124.92835 255.229055 
L 127.325746 255.229055 
L 127.325746 254.702369 
L 130.263646 254.702369 
L 130.263646 254.175683 
L 130.664567 254.175683 
L 130.664567 253.648997 
L 131.056477 253.648997 
L 131.056477 253.122311 
L 131.565689 253.122311 
L 131.565689 252.595625 
L 132.30267 252.595625 
L 132.30267 251.015567 
L 133.352844 251.015567 
L 133.352844 250.488881 
L 133.57787 250.488881 
L 133.57787 249.962195 
L 133.910056 249.962195 
L 133.910056 249.435508 
L 136.924311 249.435508 
L 137.016339 248.382136 
L 137.735587 248.382136 
L 137.735587 247.85545 
L 138.341479 247.85545 
L 138.341479 247.328764 
L 138.510793 247.328764 
L 138.594838 246.275392 
L 139.172077 246.275392 
L 139.172077 245.22202 
L 140.195896 245.22202 
L 140.195896 244.168648 
L 140.499195 244.168648 
L 140.499195 243.641962 
L 140.871049 243.641962 
L 140.871049 242.588589 
L 141.017599 242.588589 
L 141.017599 242.061903 
L 141.80232 242.061903 
L 141.80232 241.535217 
L 141.941279 241.535217 
L 141.941279 241.008531 
L 142.07914 241.008531 
L 142.07914 240.481845 
L 142.553247 240.481845 
L 142.553247 239.955159 
L 142.686372 239.955159 
L 142.686372 239.428473 
L 143.014805 239.428473 
L 143.079756 238.375101 
L 144.209312 238.375101 
L 144.209312 237.848415 
L 144.629556 237.848415 
L 144.629556 235.74167 
L 146.052799 235.74167 
L 146.052799 235.214984 
L 149.195872 235.214984 
L 149.195872 233.634926 
L 149.557321 233.634926 
L 149.557321 233.10824 
L 149.823575 233.10824 
L 149.911431 232.054868 
L 150.47195 232.054868 
L 150.51433 229.421437 
L 151.300575 229.421437 
L 151.300575 228.894751 
L 152.474064 228.894751 
L 152.549559 226.788007 
L 152.624728 226.788007 
L 152.662192 224.154577 
L 152.848312 224.154577 
L 152.848312 223.627891 
L 153.250915 223.627891 
L 153.250915 223.101204 
L 153.573542 223.101204 
L 153.679772 222.047832 
L 154.132765 222.047832 
L 154.167129 220.467774 
L 154.303908 220.467774 
L 154.303908 219.941088 
L 154.840544 219.941088 
L 154.840544 219.414402 
L 154.972161 219.414402 
L 154.972161 218.36103 
L 155.232454 218.36103 
L 155.329071 217.307658 
L 155.361158 217.307658 
L 155.457066 216.254285 
L 155.55245 216.254285 
L 155.584129 215.200913 
L 155.678822 215.200913 
L 155.678822 214.674227 
L 155.804285 214.674227 
L 155.83551 213.094169 
L 155.990803 213.094169 
L 155.990803 212.567483 
L 156.418408 212.567483 
L 156.418408 212.040797 
L 157.58535 212.040797 
L 157.58535 211.514111 
L 157.697862 211.514111 
L 157.697862 210.987425 
L 157.809652 210.987425 
L 157.809652 210.460738 
L 158.003578 210.460738 
L 158.113432 207.827308 
L 158.222599 207.827308 
L 158.331086 204.667192 
L 158.732007 204.667192 
L 158.732007 204.140506 
L 159.020266 204.140506 
L 159.098062 202.033761 
L 159.481921 202.033761 
L 159.481921 200.453703 
L 159.832723 200.453703 
L 159.857512 198.873645 
L 160.176607 198.873645 
L 160.176607 198.346959 
L 160.346039 198.346959 
L 160.442124 197.293586 
L 160.466062 197.293586 
L 160.489968 194.660156 
L 160.750792 194.660156 
L 160.750792 194.13347 
L 161.054091 194.13347 
L 161.054091 193.606784 
L 161.169354 193.606784 
L 161.169354 192.553412 
L 161.397621 192.553412 
L 161.397621 192.026726 
L 161.510643 192.026726 
L 161.510643 190.973354 
L 161.712255 190.973354 
L 161.823263 188.866609 
L 162.021314 188.866609 
L 162.065021 187.286551 
L 162.173813 187.286551 
L 162.173813 186.759865 
L 163.327764 186.759865 
L 163.327764 185.706493 
L 163.629664 185.706493 
L 163.689421 183.599748 
L 163.808326 183.599748 
L 163.808326 183.073062 
L 163.965615 183.073062 
L 163.965615 182.546376 
L 164.218222 182.546376 
L 164.218222 182.01969 
L 164.618704 182.01969 
L 164.618704 181.493004 
L 164.731458 181.493004 
L 164.731458 180.966318 
L 164.899235 180.966318 
L 164.899235 180.439632 
L 165.02862 180.439632 
L 165.102127 178.859574 
L 165.356985 178.859574 
L 165.447111 176.752829 
L 165.608172 176.752829 
L 165.608172 176.226143 
L 165.785402 176.226143 
L 165.838222 174.646085 
L 166.203547 174.646085 
L 166.203547 174.119399 
L 166.374858 174.119399 
L 166.374858 173.592713 
L 166.510705 173.592713 
L 166.510705 173.066027 
L 166.712511 173.066027 
L 166.712511 172.539341 
L 166.829163 172.539341 
L 166.829163 172.012655 
L 167.010909 172.012655 
L 167.0929 170.959282 
L 167.223287 170.959282 
L 167.271933 168.852538 
L 167.352708 168.852538 
L 167.352708 167.799166 
L 167.782543 167.799166 
L 167.782543 167.27248 
L 168.063324 167.27248 
L 168.063324 166.745794 
L 168.385289 166.745794 
L 168.385289 166.219108 
L 168.671556 166.219108 
L 168.671556 165.692422 
L 169.331381 165.692422 
L 169.331381 165.165736 
L 169.474679 165.165736 
L 169.545889 164.112363 
L 169.715615 164.112363 
L 169.715615 163.585677 
L 169.981016 163.585677 
L 170.091567 162.005619 
L 170.119095 162.005619 
L 170.187727 160.952247 
L 170.567151 160.952247 
L 170.59394 159.898875 
L 170.767069 159.898875 
L 170.846398 158.845503 
L 170.899085 158.845503 
L 170.899085 157.79213 
L 171.620458 157.79213 
L 171.620458 156.738758 
L 171.796233 156.738758 
L 171.796233 155.685386 
L 172.154799 155.685386 
L 172.154799 154.632014 
L 172.506141 154.632014 
L 172.506141 153.578642 
L 173.394661 153.578642 
L 173.394661 152.52527 
L 173.654869 152.52527 
L 173.688525 148.838467 
L 174.816832 148.838467 
L 174.816832 148.311781 
L 174.984116 148.311781 
L 174.984116 147.785095 
L 175.486665 147.785095 
L 175.55729 146.205037 
L 176.180364 146.205037 
L 176.180364 145.678351 
L 176.363988 145.678351 
L 176.363988 145.151665 
L 176.744358 145.151665 
L 176.744358 144.624978 
L 190.745784 144.624978 
L 190.825674 143.04492 
L 191.009291 143.04492 
L 191.07972 141.991548 
L 191.178666 141.991548 
L 191.277055 140.938176 
L 191.820378 140.938176 
L 191.875766 138.831432 
L 192.06825 138.831432 
L 192.161759 136.198001 
L 192.235432 136.198001 
L 192.328051 132.511199 
L 192.385689 132.511199 
L 192.466063 128.29771 
L 192.75764 128.29771 
L 192.772654 125.66428 
L 192.881124 125.66428 
L 192.881124 125.137593 
L 192.992629 125.137593 
L 193.085008 121.450791 
L 193.191558 121.450791 
L 193.231804 120.397419 
L 193.359245 120.397419 
L 193.42081 118.817361 
L 193.543293 118.817361 
L 193.643519 116.710616 
L 193.686297 116.710616 
L 193.792786 115.130558 
L 193.814006 115.130558 
L 193.912693 113.023814 
L 193.933767 113.023814 
L 194.028289 110.917069 
L 194.101454 110.917069 
L 194.101454 110.390383 
L 194.246869 110.390383 
L 194.339713 107.230267 
L 194.432066 107.230267 
L 194.432066 106.703581 
L 194.628816 106.703581 
L 194.628816 106.176895 
L 194.76657 106.176895 
L 194.76657 105.650209 
L 194.946358 105.650209 
L 194.959602 104.596836 
L 195.124312 104.596836 
L 195.157068 101.963406 
L 195.339373 101.963406 
L 195.384653 100.910034 
L 195.570999 100.910034 
L 195.628428 99.856662 
L 195.884544 99.856662 
L 195.884544 99.329976 
L 196.217205 99.329976 
L 196.217205 98.803289 
L 196.437532 98.803289 
L 196.437532 98.276603 
L 196.628061 98.276603 
L 196.67312 96.696545 
L 196.744973 96.696545 
L 196.804625 95.643173 
L 202.370405 95.643173 
L 202.370405 95.116487 
L 202.546953 95.116487 
L 202.546953 94.589801 
L 202.696263 94.589801 
L 202.696263 94.063115 
L 202.884272 94.063115 
L 202.980657 91.95637 
L 203.084822 91.95637 
L 203.169775 89.849626 
L 203.241971 89.849626 
L 203.241971 89.32294 
L 203.377303 89.32294 
L 203.422181 87.742882 
L 203.598531 87.742882 
L 203.69507 84.582765 
L 203.725129 84.582765 
L 203.799054 81.422649 
L 203.85479 81.422649 
L 203.892509 80.369277 
L 204.032743 80.369277 
L 204.107337 76.682474 
L 204.162098 76.682474 
L 204.17381 75.629102 
L 204.286623 75.629102 
L 204.391004 72.995672 
L 204.450645 72.995672 
L 204.450645 72.468985 
L 204.819322 72.468985 
L 204.928048 71.415613 
L 205.165624 71.415613 
L 205.207973 69.308869 
L 205.286871 69.308869 
L 205.352652 67.728811 
L 205.532281 67.728811 
L 205.541304 66.675439 
L 209.986081 66.675439 
L 210.093417 64.568694 
L 210.222182 64.568694 
L 210.318479 61.935264 
L 210.351373 61.935264 
L 210.449684 60.355206 
L 210.563685 60.355206 
L 210.655428 59.301833 
L 210.676945 59.301833 
L 210.762747 57.195089 
L 210.806824 57.195089 
L 210.83082 55.088345 
L 211.122769 55.088345 
L 211.225957 51.928228 
L 211.244179 51.928228 
L 211.244179 51.401542 
L 211.577913 51.401542 
L 211.658134 50.34817 
L 211.779672 50.34817 
L 211.779672 49.821484 
L 214.822439 49.821484 
L 214.91333 48.768112 
L 214.945977 48.768112 
L 214.945977 48.241426 
L 215.078045 48.241426 
L 215.119764 46.134681 
L 215.250528 46.134681 
L 215.293899 45.081309 
L 215.478563 45.081309 
L 215.478563 44.554623 
L 215.721778 44.554623 
L 215.830128 41.921193 
L 215.859108 41.921193 
L 215.957677 40.341135 
L 218.564493 40.341135 
L 218.564493 39.814448 
L 218.781165 39.814448 
L 218.883883 37.707704 
L 218.915754 37.707704 
L 218.921618 36.654332 
L 219.076731 36.654332 
L 219.148813 35.60096 
L 219.34613 35.60096 
L 219.34613 35.074274 
L 221.820546 35.074274 
L 221.873668 34.020902 
L 222.697605 34.020902 
L 222.697605 33.494215 
L 224.517131 33.494215 
L 224.517131 32.967529 
L 224.709331 32.967529 
L 224.709331 32.440843 
L 226.735778 32.440843 
L 226.735778 31.914157 
L 227.010803 31.914157 
L 227.010803 31.387471 
L 228.986364 31.387471 
L 228.986364 30.860785 
L 230.787898 30.860785 
L 230.787898 30.334099 
L 338.688 30.334099 
L 338.688 30.334099 
" style="fill:none;stroke:#00bfbf;stroke-linecap:square;stroke-width:1.5;"/>
   </g>
   <g id="line2d_31">
    <defs>
     <path d="M -6 0 
L 6 0 
M 0 6 
L 0 -6 
" id="m244f273a8f" style="stroke:#00bfbf;stroke-width:1.5;"/>
    </defs>
    <g>
     <use style="fill-opacity:0;stroke:#00bfbf;stroke-width:1.5;" x="153.679772" xlink:href="#m244f273a8f" y="222.047832"/>
     <use style="fill-opacity:0;stroke:#00bfbf;stroke-width:1.5;" x="176.744358" xlink:href="#m244f273a8f" y="144.624978"/>
     <use style="fill-opacity:0;stroke:#00bfbf;stroke-width:1.5;" x="224.709331" xlink:href="#m244f273a8f" y="32.967529"/>
     <use style="fill-opacity:0;stroke:#00bfbf;stroke-width:1.5;" x="230.787898" xlink:href="#m244f273a8f" y="30.334099"/>
     <use style="fill-opacity:0;stroke:#00bfbf;stroke-width:1.5;" x="230.787898" xlink:href="#m244f273a8f" y="30.334099"/>
     <use style="fill-opacity:0;stroke:#00bfbf;stroke-width:1.5;" x="338.688" xlink:href="#m244f273a8f" y="30.334099"/>
    </g>
   </g>
   <g id="line2d_32">
    <path style="fill:none;stroke:#00bfbf;stroke-linecap:square;stroke-width:1.5;"/>
    <g/>
   </g>
   <g id="line2d_33">
    <path clip-path="url(#pc65835fa80)" d="M 190.167349 144.624978 
" style="fill:none;stroke:#00bfbf;stroke-linecap:square;stroke-width:1.5;"/>
    <defs>
     <path d="M -12 12 
L 12 -12 
M -12 -12 
L 12 12 
" id="mf8a643de6d" style="stroke:#00bfbf;"/>
    </defs>
    <g clip-path="url(#pc65835fa80)">
     <use style="fill:#00bfbf;stroke:#00bfbf;" x="190.167349" xlink:href="#mf8a643de6d" y="144.624978"/>
    </g>
   </g>
   <g id="line2d_34">
    <defs>
     <path d="M 0 1.5 
C 0.397805 1.5 0.77937 1.341951 1.06066 1.06066 
C 1.341951 0.77937 1.5 0.397805 1.5 0 
C 1.5 -0.397805 1.341951 -0.77937 1.06066 -1.06066 
C 0.77937 -1.341951 0.397805 -1.5 0 -1.5 
C -0.397805 -1.5 -0.77937 -1.341951 -1.06066 -1.06066 
C -1.341951 -0.77937 -1.5 -0.397805 -1.5 0 
C -1.5 0.397805 -1.341951 0.77937 -1.06066 1.06066 
C -0.77937 1.341951 -0.397805 1.5 0 1.5 
z
" id="m6aee0f1445" style="stroke:#008000;"/>
    </defs>
    <g>
     <use style="fill:#008000;stroke:#008000;" x="259.807981" xlink:href="#m6aee0f1445" y="30.334099"/>
     <use style="fill:#008000;stroke:#008000;" x="259.807981" xlink:href="#m6aee0f1445" y="30.334099"/>
    </g>
   </g>
   <g id="line2d_35">
    <path d="M 38.440992 298.944 
L 38.440992 277.349871 
L 50.52898 277.349871 
L 50.52898 274.189754 
L 57.6 274.189754 
L 57.6 273.136382 
L 62.616969 273.136382 
L 62.616969 271.556324 
L 69.687988 271.556324 
L 69.687988 269.449579 
L 72.376266 269.449579 
L 72.376266 267.869521 
L 76.759008 267.869521 
L 76.759008 267.342835 
L 78.59642 267.342835 
L 78.59642 265.762777 
L 81.775977 265.762777 
L 81.775977 265.236091 
L 86.792945 265.236091 
L 86.792945 264.709405 
L 93.121756 264.709405 
L 93.121756 263.129347 
L 98.880934 263.129347 
L 98.880934 262.60266 
L 103.623262 262.60266 
L 103.623262 262.075974 
L 105.209745 262.075974 
L 105.209745 261.549288 
L 105.951954 261.549288 
L 105.951954 261.022602 
L 107.347841 261.022602 
L 107.347841 260.495916 
L 110.131676 260.495916 
L 110.131676 259.96923 
L 110.415248 259.96923 
L 110.415248 259.442544 
L 111.239304 259.442544 
L 111.239304 258.389172 
L 111.505558 258.389172 
L 111.505558 257.862486 
L 115.077025 257.862486 
L 115.077025 256.809114 
L 127.378995 256.809114 
L 127.378995 255.229055 
L 128.209594 255.229055 
L 128.209594 254.702369 
L 131.013364 254.702369 
L 131.013364 254.175683 
L 132.019755 254.175683 
L 132.019755 253.648997 
L 133.352844 253.648997 
L 133.352844 253.122311 
L 135.415281 253.122311 
L 135.415281 252.595625 
L 136.008736 252.595625 
L 136.008736 252.068939 
L 140.747977 252.068939 
L 140.747977 251.542253 
L 141.755753 251.542253 
L 141.848763 249.962195 
L 141.895083 249.962195 
L 141.895083 249.435508 
L 143.40093 249.435508 
L 143.40093 248.908822 
L 144.229555 248.908822 
L 144.229555 248.382136 
L 144.390658 248.382136 
L 144.390658 246.802078 
L 145.440832 246.802078 
L 145.516164 245.748706 
L 146.107383 245.748706 
L 146.107383 245.22202 
L 147.636905 245.22202 
L 147.736463 244.168648 
L 147.769524 244.168648 
L 147.769524 243.641962 
L 148.826773 243.641962 
L 148.888835 242.061903 
L 149.735275 242.061903 
L 149.735275 241.535217 
L 150.229833 241.535217 
L 150.229833 241.008531 
L 151.528368 241.008531 
L 151.528368 240.481845 
L 151.68739 240.481845 
L 151.68739 239.955159 
L 152.983548 239.955159 
L 152.983548 239.428473 
L 154.075343 239.428473 
L 154.075343 238.901787 
L 155.059358 238.901787 
L 155.102793 237.321729 
L 155.657823 237.321729 
L 155.657823 236.795043 
L 155.845906 236.795043 
L 155.845906 236.268356 
L 156.357959 236.268356 
L 156.418408 235.214984 
L 156.498681 235.214984 
L 156.498681 234.161612 
L 156.953214 234.161612 
L 156.992185 232.054868 
L 157.772468 232.054868 
L 157.772468 231.528182 
L 158.322071 231.528182 
L 158.322071 231.001496 
L 159.132527 231.001496 
L 159.132527 229.948123 
L 159.388866 229.948123 
L 159.388866 229.421437 
L 160.249422 229.421437 
L 160.313893 227.841379 
L 160.36209 227.841379 
L 160.36209 226.788007 
L 161.555647 226.788007 
L 161.64531 224.681263 
L 161.88218 224.681263 
L 161.88218 224.154577 
L 162.043181 224.154577 
L 162.043181 223.101204 
L 162.854457 223.101204 
L 162.854457 222.574518 
L 163.006766 222.574518 
L 163.103002 220.99446 
L 163.549667 220.99446 
L 163.549667 220.467774 
L 163.906798 220.467774 
L 163.906798 219.941088 
L 164.712717 219.941088 
L 164.712717 219.414402 
L 165.071537 219.414402 
L 165.120455 218.36103 
L 165.53081 218.36103 
L 165.53081 217.307658 
L 165.685193 217.307658 
L 165.685193 216.780971 
L 165.9084 216.780971 
L 165.943384 215.727599 
L 166.312239 215.727599 
L 166.312239 215.200913 
L 166.48249 215.200913 
L 166.48249 214.674227 
L 167.179933 214.674227 
L 167.179933 214.147541 
L 167.608702 214.147541 
L 167.608702 213.620855 
L 167.892273 213.620855 
L 167.892273 213.094169 
L 170.137423 213.094169 
L 170.210544 210.987425 
L 170.428085 210.987425 
L 170.428085 209.407366 
L 197.618066 209.407366 
L 197.618066 208.88068 
L 197.979932 208.88068 
L 198.054 206.24725 
L 198.184701 206.24725 
L 198.24329 204.140506 
L 198.370771 204.140506 
L 198.46848 202.560447 
L 198.71928 202.560447 
L 198.829207 198.346959 
L 198.841575 198.346959 
L 198.885674 194.660156 
L 199.090586 194.660156 
L 199.116684 193.080098 
L 199.212042 193.080098 
L 199.212042 192.553412 
L 199.361825 192.553412 
L 199.416596 189.393295 
L 199.505233 189.393295 
L 199.59173 186.233179 
L 199.637349 186.233179 
L 199.637349 185.706493 
L 199.791903 185.706493 
L 199.855343 184.653121 
L 199.908588 184.653121 
L 199.991459 182.546376 
L 200.095318 182.546376 
L 200.185486 181.493004 
L 200.567183 181.493004 
L 200.627869 178.859574 
L 209.477214 178.859574 
L 209.477214 178.332888 
L 209.667173 178.332888 
L 209.777899 175.172771 
L 209.823122 175.172771 
L 209.898235 173.066027 
L 209.942213 173.066027 
L 209.9954 170.959282 
L 210.079051 170.959282 
L 210.164148 167.799166 
L 210.231376 167.799166 
L 210.341329 164.63905 
L 210.37418 164.63905 
L 210.441513 163.058991 
L 210.493201 163.058991 
L 210.509492 160.952247 
L 210.620407 160.952247 
L 210.680528 159.372189 
L 210.740443 159.372189 
L 210.845467 158.318817 
L 210.869409 158.318817 
L 210.869409 157.79213 
L 211.079046 157.79213 
L 211.100047 155.685386 
L 216.66875 155.685386 
L 216.727746 154.632014 
L 216.901668 154.632014 
L 216.958009 151.471897 
L 217.032225 151.471897 
L 217.139559 143.571606 
L 217.186504 143.571606 
L 217.288603 139.358118 
L 217.330867 139.358118 
L 217.431519 136.724687 
L 221.616476 136.724687 
L 221.699057 134.617943 
L 221.748514 134.617943 
L 221.834728 128.29771 
L 221.890869 128.29771 
L 221.972164 126.190966 
L 222.007759 126.190966 
L 222.115967 122.504163 
L 222.16843 122.504163 
L 222.193909 121.450791 
L 225.483519 121.450791 
L 225.557726 118.817361 
L 225.598138 118.817361 
L 225.692325 114.077186 
L 225.758105 114.077186 
L 225.855937 109.337011 
L 225.886678 109.337011 
L 225.935304 108.283639 
L 226.018772 108.283639 
L 226.023976 107.230267 
L 228.658923 107.230267 
L 228.764997 102.490092 
L 228.802114 102.490092 
L 228.902913 96.696545 
L 228.943824 96.696545 
L 229.001879 94.589801 
L 229.092186 94.589801 
L 229.092186 94.063115 
L 231.298703 94.063115 
L 231.404663 88.796254 
L 231.412031 88.796254 
L 231.509982 86.68951 
L 231.557128 86.68951 
L 231.620332 83.529393 
L 233.654631 83.529393 
L 233.756302 80.895963 
L 233.782521 80.895963 
L 233.845523 78.262532 
L 235.689531 78.262532 
L 235.780034 74.57573 
L 235.804867 74.57573 
L 235.87514 69.835555 
L 237.456708 69.835555 
L 237.558853 66.148752 
L 237.572849 66.148752 
L 237.631204 64.568694 
L 237.695074 64.568694 
L 237.757573 62.46195 
L 239.12511 62.46195 
L 239.196322 59.82852 
L 239.238352 59.82852 
L 239.309798 58.248461 
L 240.709808 58.248461 
L 240.811174 55.615031 
L 240.832331 55.615031 
L 240.832331 55.088345 
L 242.052339 55.088345 
L 242.15049 51.401542 
L 242.190537 51.401542 
L 242.244573 50.34817 
L 243.34476 50.34817 
L 243.455488 46.661368 
L 244.513639 46.661368 
L 244.610042 45.081309 
L 244.649426 45.081309 
L 244.649426 44.554623 
L 245.691199 44.554623 
L 245.743579 42.974565 
L 246.74188 42.974565 
L 246.783518 40.867821 
L 247.727488 40.867821 
L 247.765986 38.761076 
L 248.668578 38.761076 
L 248.698881 37.707704 
L 249.558679 37.707704 
L 249.590553 36.654332 
L 250.399209 36.654332 
L 250.472993 34.547588 
L 252.021433 34.547588 
L 252.034568 33.494215 
L 252.707429 33.494215 
L 252.744483 32.440843 
L 253.418131 32.440843 
L 253.418131 31.914157 
L 254.138104 31.914157 
L 254.138104 31.387471 
L 257.173147 31.387471 
L 257.173147 30.860785 
L 259.807981 30.860785 
L 259.807981 30.334099 
L 338.688 30.334099 
L 338.688 30.334099 
" style="fill:none;stroke:#008000;stroke-linecap:square;stroke-width:1.5;"/>
   </g>
   <g id="line2d_36">
    <defs>
     <path d="M -0 6 
L 6 -6 
L -6 -6 
z
" id="m3c69cf83a8" style="stroke:#008000;stroke-linejoin:miter;stroke-width:1.5;"/>
    </defs>
    <g>
     <use style="fill-opacity:0;stroke:#008000;stroke-linejoin:miter;stroke-width:1.5;" x="86.792945" xlink:href="#m3c69cf83a8" y="265.236091"/>
     <use style="fill-opacity:0;stroke:#008000;stroke-linejoin:miter;stroke-width:1.5;" x="156.498681" xlink:href="#m3c69cf83a8" y="234.161612"/>
     <use style="fill-opacity:0;stroke:#008000;stroke-linejoin:miter;stroke-width:1.5;" x="210.493201" xlink:href="#m3c69cf83a8" y="163.058991"/>
     <use style="fill-opacity:0;stroke:#008000;stroke-linejoin:miter;stroke-width:1.5;" x="259.807981" xlink:href="#m3c69cf83a8" y="30.860785"/>
     <use style="fill-opacity:0;stroke:#008000;stroke-linejoin:miter;stroke-width:1.5;" x="259.807981" xlink:href="#m3c69cf83a8" y="30.334099"/>
     <use style="fill-opacity:0;stroke:#008000;stroke-linejoin:miter;stroke-width:1.5;" x="338.688" xlink:href="#m3c69cf83a8" y="30.334099"/>
    </g>
   </g>
   <g id="line2d_37">
    <path style="fill:none;stroke:#008000;stroke-linecap:square;stroke-width:1.5;"/>
    <g/>
   </g>
   <g id="line2d_38">
    <path clip-path="url(#pc65835fa80)" d="M 197.231106 209.407366 
" style="fill:none;stroke:#008000;stroke-linecap:square;stroke-width:1.5;"/>
    <defs>
     <path d="M -12 12 
L 12 -12 
M -12 -12 
L 12 12 
" id="m8bb5e06c60" style="stroke:#008000;"/>
    </defs>
    <g clip-path="url(#pc65835fa80)">
     <use style="fill:#008000;stroke:#008000;" x="197.231106" xlink:href="#m8bb5e06c60" y="209.407366"/>
    </g>
   </g>
   <g id="line2d_39">
    <defs>
     <path d="M 0 1.5 
C 0.397805 1.5 0.77937 1.341951 1.06066 1.06066 
C 1.341951 0.77937 1.5 0.397805 1.5 0 
C 1.5 -0.397805 1.341951 -0.77937 1.06066 -1.06066 
C 0.77937 -1.341951 0.397805 -1.5 0 -1.5 
C -0.397805 -1.5 -0.77937 -1.341951 -1.06066 -1.06066 
C -1.341951 -0.77937 -1.5 -0.397805 -1.5 0 
C -1.5 0.397805 -1.341951 0.77937 -1.06066 1.06066 
C -0.77937 1.341951 -0.397805 1.5 0 1.5 
z
" id="mef008612b9" style="stroke:#0000ff;"/>
    </defs>
    <g>
     <use style="fill:#0000ff;stroke:#0000ff;" x="280.979268" xlink:href="#mef008612b9" y="193.606784"/>
     <use style="fill:#0000ff;stroke:#0000ff;" x="280.979268" xlink:href="#mef008612b9" y="193.606784"/>
    </g>
   </g>
   <g id="line2d_40">
    <path d="M 29.53256 298.944 
L 29.53256 274.189754 
L 41.620548 274.189754 
L 41.620548 272.609696 
L 48.691568 272.609696 
L 48.691568 270.502952 
L 53.708537 270.502952 
L 53.708537 269.449579 
L 57.6 269.449579 
L 57.6 268.922893 
L 60.779557 268.922893 
L 60.779557 267.869521 
L 69.687988 267.869521 
L 69.687988 266.289463 
L 74.263433 266.289463 
L 74.263433 265.762777 
L 76.759008 265.762777 
L 76.759008 264.709405 
L 77.884514 264.709405 
L 77.884514 263.656033 
L 82.626842 263.656033 
L 82.626842 263.129347 
L 90.509138 263.129347 
L 90.509138 262.60266 
L 94.294587 262.60266 
L 94.294587 261.022602 
L 98.43941 261.022602 
L 98.43941 260.495916 
L 100.343767 260.495916 
L 100.343767 259.96923 
L 106.168594 259.96923 
L 106.168594 259.442544 
L 111.346294 259.442544 
L 111.346294 258.389172 
L 115.835374 258.389172 
L 115.835374 257.862486 
L 116.914437 257.862486 
L 116.914437 257.3358 
L 118.470564 257.3358 
L 118.470564 256.809114 
L 120.944859 256.809114 
L 120.944859 256.282427 
L 121.84399 256.282427 
L 121.84399 255.755741 
L 122.276749 255.755741 
L 122.276749 255.229055 
L 123.907776 255.229055 
L 123.907776 254.702369 
L 125.470548 254.702369 
L 125.470548 253.648997 
L 126.70692 253.648997 
L 126.70692 253.122311 
L 129.46138 253.122311 
L 129.46138 252.595625 
L 131.287464 252.595625 
L 131.287464 252.068939 
L 132.893889 252.068939 
L 132.893889 251.542253 
L 133.032848 251.542253 
L 133.032848 251.015567 
L 133.262014 251.015567 
L 133.262014 250.488881 
L 134.192921 250.488881 
L 134.192921 249.962195 
L 134.321942 249.962195 
L 134.321942 249.435508 
L 134.911732 249.435508 
L 134.911732 248.908822 
L 135.158519 248.908822 
L 135.158519 248.382136 
L 136.456742 248.382136 
L 136.456742 247.85545 
L 136.720123 247.85545 
L 136.720123 247.328764 
L 136.979586 247.328764 
L 136.979586 246.275392 
L 137.307607 246.275392 
L 137.307607 245.748706 
L 137.875944 245.748706 
L 137.910857 244.695334 
L 138.221972 244.695334 
L 138.221972 244.168648 
L 138.69516 244.168648 
L 138.69516 243.641962 
L 139.541262 243.641962 
L 139.541262 243.115275 
L 139.918342 243.115275 
L 139.918342 242.588589 
L 140.79731 242.588589 
L 140.79731 242.061903 
L 141.263941 242.061903 
L 141.263941 241.535217 
L 143.196061 241.535217 
L 143.196061 241.008531 
L 143.324386 241.008531 
L 143.324386 240.481845 
L 143.527762 240.481845 
L 143.527762 239.955159 
L 144.221461 239.955159 
L 144.221461 239.428473 
L 144.724207 239.428473 
L 144.724207 238.901787 
L 145.281568 238.901787 
L 145.281568 238.375101 
L 145.954117 238.375101 
L 145.954117 237.848415 
L 147.749695 237.848415 
L 147.749695 237.321729 
L 148.044783 237.321729 
L 148.044783 236.795043 
L 154.19457 236.795043 
L 154.19457 236.268356 
L 154.998366 236.268356 
L 154.998366 235.74167 
L 155.232454 235.74167 
L 155.232454 235.214984 
L 156.693802 235.214984 
L 156.693802 234.688298 
L 159.946463 234.688298 
L 159.946463 234.161612 
L 164.802494 234.161612 
L 164.802494 233.634926 
L 206.415351 233.634926 
L 206.521419 230.47481 
L 206.609206 230.47481 
L 206.642436 229.421437 
L 218.399039 229.421437 
L 218.452472 228.368065 
L 218.52152 228.368065 
L 218.531459 227.314693 
L 218.678517 227.314693 
L 218.68701 225.207949 
L 225.409996 225.207949 
L 225.500071 223.101204 
L 225.598824 223.101204 
L 225.604535 220.99446 
L 225.828524 220.99446 
L 225.828524 220.467774 
L 230.415759 220.467774 
L 230.460595 218.887716 
L 230.53082 218.887716 
L 230.53082 218.36103 
L 234.32614 218.36103 
L 234.38919 216.780971 
L 237.45173 216.780971 
L 237.535591 214.147541 
L 240.125511 214.147541 
L 240.13832 213.094169 
L 240.301036 213.094169 
L 240.301036 212.040797 
L 242.514145 212.040797 
L 242.515704 210.987425 
L 244.554833 210.987425 
L 244.556759 209.407366 
L 246.382032 209.407366 
L 246.382518 208.353994 
L 248.037391 208.353994 
L 248.099563 207.300622 
L 249.54626 207.300622 
L 249.547706 205.720564 
L 250.911648 205.720564 
L 250.937583 204.667192 
L 252.223579 204.667192 
L 252.223926 203.613819 
L 253.423538 203.613819 
L 253.423538 203.087133 
L 255.639256 203.087133 
L 255.639256 202.560447 
L 256.592666 202.560447 
L 256.592666 202.033761 
L 258.408993 202.033761 
L 258.459158 200.453703 
L 260.080266 200.453703 
L 260.080266 199.927017 
L 262.30693 199.927017 
L 262.30693 199.400331 
L 264.303797 199.400331 
L 264.303797 198.346959 
L 264.890083 198.346959 
L 264.890083 197.820273 
L 266.051042 197.820273 
L 266.051042 197.293586 
L 267.138986 197.293586 
L 267.139134 196.240214 
L 268.654072 196.240214 
L 268.654072 195.713528 
L 270.047987 195.713528 
L 270.047987 195.186842 
L 271.338802 195.186842 
L 271.338802 194.660156 
L 278.947218 194.660156 
L 278.947218 194.13347 
L 280.979268 194.13347 
L 280.979268 193.606784 
L 338.688 193.606784 
L 338.688 193.606784 
" style="fill:none;stroke:#0000ff;stroke-linecap:square;stroke-width:1.5;"/>
   </g>
   <g id="line2d_41">
    <defs>
     <path d="M 0 -6 
L -1.347084 -1.854102 
L -5.706339 -1.854102 
L -2.179628 0.708204 
L -3.526712 4.854102 
L -0 2.291796 
L 3.526712 4.854102 
L 2.179628 0.708204 
L 5.706339 -1.854102 
L 1.347084 -1.854102 
z
" id="m789be15369" style="stroke:#0000ff;stroke-linejoin:bevel;stroke-width:1.5;"/>
    </defs>
    <g>
     <use style="fill-opacity:0;stroke:#0000ff;stroke-linejoin:bevel;stroke-width:1.5;" x="60.779557" xlink:href="#m789be15369" y="267.869521"/>
     <use style="fill-opacity:0;stroke:#0000ff;stroke-linejoin:bevel;stroke-width:1.5;" x="156.693802" xlink:href="#m789be15369" y="234.688298"/>
     <use style="fill-opacity:0;stroke:#0000ff;stroke-linejoin:bevel;stroke-width:1.5;" x="218.68701" xlink:href="#m789be15369" y="226.788007"/>
     <use style="fill-opacity:0;stroke:#0000ff;stroke-linejoin:bevel;stroke-width:1.5;" x="280.979268" xlink:href="#m789be15369" y="194.13347"/>
     <use style="fill-opacity:0;stroke:#0000ff;stroke-linejoin:bevel;stroke-width:1.5;" x="280.979268" xlink:href="#m789be15369" y="193.606784"/>
     <use style="fill-opacity:0;stroke:#0000ff;stroke-linejoin:bevel;stroke-width:1.5;" x="338.688" xlink:href="#m789be15369" y="193.606784"/>
    </g>
   </g>
   <g id="line2d_42">
    <path style="fill:none;stroke:#0000ff;stroke-linecap:square;stroke-width:1.5;"/>
    <g/>
   </g>
   <g id="line2d_43">
    <path clip-path="url(#pc65835fa80)" d="M 206.134423 233.634926 
" style="fill:none;stroke:#0000ff;stroke-linecap:square;stroke-width:1.5;"/>
    <defs>
     <path d="M -12 12 
L 12 -12 
M -12 -12 
L 12 12 
" id="m2e693bca61" style="stroke:#0000ff;"/>
    </defs>
    <g clip-path="url(#pc65835fa80)">
     <use style="fill:#0000ff;stroke:#0000ff;" x="206.134423" xlink:href="#m2e693bca61" y="233.634926"/>
    </g>
   </g>
   <g id="line2d_44">
    <defs>
     <path d="M 0 1.5 
C 0.397805 1.5 0.77937 1.341951 1.06066 1.06066 
C 1.341951 0.77937 1.5 0.397805 1.5 0 
C 1.5 -0.397805 1.341951 -0.77937 1.06066 -1.06066 
C 0.77937 -1.341951 0.397805 -1.5 0 -1.5 
C -0.397805 -1.5 -0.77937 -1.341951 -1.06066 -1.06066 
C -1.341951 -0.77937 -1.5 -0.397805 -1.5 0 
C -1.5 0.397805 -1.341951 0.77937 -1.06066 1.06066 
C -0.77937 1.341951 -0.397805 1.5 0 1.5 
z
" id="md7a6d00c1b" style="stroke:#000000;"/>
    </defs>
    <g>
     <use style="stroke:#000000;" x="285.737261" xlink:href="#md7a6d00c1b" y="214.674227"/>
     <use style="stroke:#000000;" x="285.737261" xlink:href="#md7a6d00c1b" y="214.674227"/>
    </g>
   </g>
   <g id="line2d_45">
    <path d="M 17.444571 298.944 
L 17.444571 275.769812 
L 29.53256 275.769812 
L 29.53256 273.136382 
L 36.60358 273.136382 
L 36.60358 270.502952 
L 41.620548 270.502952 
L 41.620548 268.396207 
L 48.691568 268.396207 
L 48.691568 267.342835 
L 51.379845 267.342835 
L 51.379845 266.816149 
L 55.762588 266.816149 
L 55.762588 265.762777 
L 59.262141 265.762777 
L 59.262141 265.236091 
L 64.67102 265.236091 
L 64.67102 264.709405 
L 65.796525 264.709405 
L 65.796525 264.182719 
L 67.850577 264.182719 
L 67.850577 263.656033 
L 69.687988 263.656033 
L 69.687988 263.129347 
L 76.16779 263.129347 
L 76.16779 262.60266 
L 79.938565 262.60266 
L 79.938565 262.075974 
L 84.955534 262.075974 
L 84.955534 261.549288 
L 89.135256 261.549288 
L 89.135256 261.022602 
L 89.972502 261.022602 
L 89.972502 260.495916 
L 90.509138 260.495916 
L 90.509138 259.96923 
L 102.196206 259.96923 
L 102.196206 259.442544 
L 106.698704 259.442544 
L 106.698704 258.915858 
L 109.491096 258.915858 
L 109.491096 258.389172 
L 110.358901 258.389172 
L 110.358901 257.862486 
L 113.664983 257.862486 
L 113.664983 256.809114 
L 114.216469 256.809114 
L 114.216469 256.282427 
L 115.835374 256.282427 
L 115.835374 255.755741 
L 117.316679 255.755741 
L 117.316679 255.229055 
L 125.927192 255.229055 
L 125.927192 254.702369 
L 128.441249 254.702369 
L 128.441249 254.175683 
L 128.768338 254.175683 
L 128.768338 253.648997 
L 129.002426 253.648997 
L 129.002426 253.122311 
L 131.363785 253.122311 
L 131.465029 252.068939 
L 131.839545 252.068939 
L 131.839545 251.015567 
L 132.157744 251.015567 
L 132.157744 250.488881 
L 132.494049 250.488881 
L 132.494049 249.962195 
L 132.70687 249.962195 
L 132.70687 249.435508 
L 133.078923 249.435508 
L 133.078923 248.908822 
L 133.46572 248.908822 
L 133.555497 247.85545 
L 133.622529 247.85545 
L 133.689303 246.275392 
L 133.975741 246.275392 
L 133.975741 245.748706 
L 134.953107 245.748706 
L 134.953107 245.22202 
L 135.240011 245.22202 
L 135.240011 244.695334 
L 135.522271 244.695334 
L 135.562224 243.641962 
L 135.681535 243.641962 
L 135.701341 242.588589 
L 135.97629 242.588589 
L 135.97629 242.061903 
L 136.831795 242.061903 
L 136.86886 241.008531 
L 138.118883 241.008531 
L 138.118883 240.481845 
L 138.375473 240.481845 
L 138.375473 239.955159 
L 138.811478 239.955159 
L 138.811478 239.428473 
L 139.090775 239.428473 
L 139.188293 238.375101 
L 139.683624 238.375101 
L 139.683624 237.848415 
L 140.134598 237.848415 
L 140.134598 237.321729 
L 140.79731 237.321729 
L 140.841591 236.268356 
L 141.350061 236.268356 
L 141.350061 235.74167 
L 143.092717 235.74167 
L 143.092717 235.214984 
L 144.853518 235.214984 
L 144.853518 234.688298 
L 145.039911 234.688298 
L 145.039911 234.161612 
L 145.677034 234.161612 
L 145.677034 233.634926 
L 146.452726 233.634926 
L 146.452726 233.10824 
L 153.932113 233.10824 
L 153.932113 232.581554 
L 161.84538 232.581554 
L 161.84538 232.054868 
L 218.381941 232.054868 
L 218.44989 229.948123 
L 218.504197 229.948123 
L 218.504197 229.421437 
L 230.397897 229.421437 
L 230.415413 227.841379 
L 237.432035 227.841379 
L 237.468165 226.788007 
L 237.742472 226.788007 
L 237.742472 226.261321 
L 242.444453 226.261321 
L 242.506781 223.101204 
L 246.326609 223.101204 
L 246.326609 222.574518 
L 254.518631 222.574518 
L 254.518631 222.047832 
L 256.563413 222.047832 
L 256.563413 221.521146 
L 258.403543 221.521146 
L 258.403543 220.99446 
L 260.063302 220.99446 
L 260.063302 220.467774 
L 261.574508 220.467774 
L 261.574508 219.941088 
L 262.972939 219.941088 
L 262.972939 219.414402 
L 264.263888 219.414402 
L 264.263888 218.36103 
L 265.462446 218.36103 
L 265.462446 217.834344 
L 268.639652 217.834344 
L 268.642469 216.780971 
L 272.911856 216.780971 
L 272.911856 216.254285 
L 281.200793 216.254285 
L 281.200793 215.727599 
L 284.220246 215.727599 
L 284.220246 215.200913 
L 285.737261 215.200913 
L 285.737261 214.674227 
L 338.688 214.674227 
L 338.688 214.674227 
" style="fill:none;stroke:#000000;stroke-linecap:square;stroke-width:1.5;"/>
   </g>
   <g id="line2d_46">
    <defs>
     <path d="M 0 6 
C 1.591219 6 3.117479 5.367802 4.242641 4.242641 
C 5.367802 3.117479 6 1.591219 6 0 
C 6 -1.591219 5.367802 -3.117479 4.242641 -4.242641 
C 3.117479 -5.367802 1.591219 -6 0 -6 
C -1.591219 -6 -3.117479 -5.367802 -4.242641 -4.242641 
C -5.367802 -3.117479 -6 -1.591219 -6 0 
C -6 1.591219 -5.367802 3.117479 -4.242641 4.242641 
C -3.117479 5.367802 -1.591219 6 0 6 
z
" id="mf7eb8f5e5d" style="stroke:#000000;stroke-width:1.5;"/>
    </defs>
    <g>
     <use style="fill-opacity:0;stroke:#000000;stroke-width:1.5;" x="114.216469" xlink:href="#mf7eb8f5e5d" y="256.809114"/>
     <use style="fill-opacity:0;stroke:#000000;stroke-width:1.5;" x="161.84538" xlink:href="#mf7eb8f5e5d" y="232.054868"/>
     <use style="fill-opacity:0;stroke:#000000;stroke-width:1.5;" x="281.200793" xlink:href="#mf7eb8f5e5d" y="215.727599"/>
     <use style="fill-opacity:0;stroke:#000000;stroke-width:1.5;" x="285.737261" xlink:href="#mf7eb8f5e5d" y="214.674227"/>
     <use style="fill-opacity:0;stroke:#000000;stroke-width:1.5;" x="338.688" xlink:href="#mf7eb8f5e5d" y="214.674227"/>
    </g>
   </g>
   <g id="line2d_47">
    <path style="fill:none;stroke:#000000;stroke-linecap:square;stroke-width:1.5;"/>
    <g/>
   </g>
   <g id="line2d_48">
    <path clip-path="url(#pc65835fa80)" d="M 218.221889 232.054868 
" style="fill:none;stroke:#000000;stroke-linecap:square;stroke-width:1.5;"/>
    <defs>
     <path d="M -12 12 
L 12 -12 
M -12 -12 
L 12 12 
" id="mdc406b638d" style="stroke:#000000;"/>
    </defs>
    <g clip-path="url(#pc65835fa80)">
     <use style="stroke:#000000;" x="218.221889" xlink:href="#mdc406b638d" y="232.054868"/>
    </g>
   </g>
   <g id="line2d_49">
    <defs>
     <path d="M 0 1.5 
C 0.397805 1.5 0.77937 1.341951 1.06066 1.06066 
C 1.341951 0.77937 1.5 0.397805 1.5 0 
C 1.5 -0.397805 1.341951 -0.77937 1.06066 -1.06066 
C 0.77937 -1.341951 0.397805 -1.5 0 -1.5 
C -0.397805 -1.5 -0.77937 -1.341951 -1.06066 -1.06066 
C -1.341951 -0.77937 -1.5 -0.397805 -1.5 0 
C -1.5 0.397805 -1.341951 0.77937 -1.06066 1.06066 
C -0.77937 1.341951 -0.397805 1.5 0 1.5 
z
" id="m4fa7ca997a" style="stroke:#ff0000;"/>
    </defs>
    <g>
     <use style="fill:#ff0000;stroke:#ff0000;" x="279.726988" xlink:href="#m4fa7ca997a" y="219.941088"/>
     <use style="fill:#ff0000;stroke:#ff0000;" x="279.726988" xlink:href="#m4fa7ca997a" y="219.941088"/>
    </g>
   </g>
   <g id="line2d_50">
    <path d="M 5.356583 298.944 
L 5.356583 273.663068 
L 17.444571 273.663068 
L 17.444571 271.029638 
L 24.515591 271.029638 
L 24.515591 270.502952 
L 29.53256 270.502952 
L 29.53256 269.449579 
L 33.424023 269.449579 
L 33.424023 268.922893 
L 39.291857 268.922893 
L 39.291857 268.396207 
L 43.6746 268.396207 
L 43.6746 267.869521 
L 45.512012 267.869521 
L 45.512012 267.342835 
L 48.691568 267.342835 
L 48.691568 266.816149 
L 53.708537 266.816149 
L 53.708537 265.762777 
L 56.705482 265.762777 
L 56.705482 265.236091 
L 59.262141 265.236091 
L 59.262141 264.709405 
L 61.491463 264.709405 
L 61.491463 264.182719 
L 73.924795 264.182719 
L 73.924795 263.129347 
L 75.555822 263.129347 
L 75.555822 262.60266 
L 75.86449 262.60266 
L 75.86449 261.549288 
L 79.447285 261.549288 
L 79.447285 261.022602 
L 93.533875 261.022602 
L 93.533875 260.495916 
L 97.842408 260.495916 
L 97.842408 259.96923 
L 110.316522 259.96923 
L 110.316522 259.442544 
L 117.514373 259.442544 
L 117.514373 258.915858 
L 119.602714 258.915858 
L 119.602714 258.389172 
L 121.667835 258.389172 
L 121.667835 257.862486 
L 123.829748 257.862486 
L 123.829748 257.3358 
L 124.062793 257.3358 
L 124.062793 256.809114 
L 124.557288 256.809114 
L 124.557288 256.282427 
L 124.836322 256.282427 
L 124.891598 255.229055 
L 125.541584 255.229055 
L 125.541584 254.702369 
L 126.287485 254.702369 
L 126.287485 254.175683 
L 126.607172 254.175683 
L 126.690335 253.122311 
L 127.116504 253.122311 
L 127.197279 252.068939 
L 127.40556 252.068939 
L 127.40556 251.542253 
L 127.674226 251.542253 
L 127.736845 250.488881 
L 127.969682 250.488881 
L 127.969682 249.962195 
L 128.694536 249.962195 
L 128.694536 249.435508 
L 129.045969 249.435508 
L 129.103859 248.382136 
L 129.161557 248.382136 
L 129.161557 247.85545 
L 129.333516 247.85545 
L 129.333516 247.328764 
L 129.700375 247.328764 
L 129.700375 246.802078 
L 129.825588 246.802078 
L 129.825588 246.275392 
L 130.073348 246.275392 
L 130.073348 245.748706 
L 130.223042 245.748706 
L 130.223042 245.22202 
L 130.874681 245.22202 
L 130.926816 244.168648 
L 131.351088 244.168648 
L 131.351088 243.115275 
L 131.628308 243.115275 
L 131.628308 242.061903 
L 132.097001 242.061903 
L 132.097001 241.535217 
L 132.242431 241.535217 
L 132.242431 241.008531 
L 132.362702 241.008531 
L 132.362702 240.481845 
L 132.517825 240.481845 
L 132.517825 239.955159 
L 133.273393 239.955159 
L 133.273393 239.428473 
L 133.888106 239.428473 
L 133.910056 238.375101 
L 134.545457 238.375101 
L 134.545457 237.848415 
L 134.766144 237.848415 
L 134.766144 237.321729 
L 135.004687 237.321729 
L 135.004687 236.795043 
L 135.127861 236.795043 
L 135.189123 235.214984 
L 135.849174 235.214984 
L 135.849174 234.688298 
L 137.271464 234.688298 
L 137.271464 234.161612 
L 137.48721 234.161612 
L 137.585209 233.10824 
L 137.849713 233.10824 
L 137.849713 232.581554 
L 139.933878 232.581554 
L 139.933878 232.054868 
L 141.521035 232.054868 
L 141.521035 231.528182 
L 144.976063 231.528182 
L 144.976063 231.001496 
L 159.372742 231.001496 
L 159.372742 230.47481 
L 230.378626 230.47481 
L 230.440356 226.261321 
L 242.435341 226.261321 
L 242.435341 225.207949 
L 242.546704 225.207949 
L 242.546704 224.154577 
L 249.493356 224.154577 
L 249.568324 223.101204 
L 254.504646 223.101204 
L 254.504646 222.574518 
L 258.400313 222.574518 
L 258.400313 222.047832 
L 264.264037 222.047832 
L 264.264037 221.521146 
L 273.651147 221.521146 
L 273.651147 220.99446 
L 278.666599 220.99446 
L 278.666599 220.467774 
L 279.726988 220.467774 
L 279.726988 219.941088 
L 338.688 219.941088 
L 338.688 219.941088 
" style="fill:none;stroke:#ff0000;stroke-linecap:square;stroke-width:1.5;"/>
   </g>
   <g id="line2d_51">
    <defs>
     <path d="M -6 6 
L 6 6 
L 6 -6 
L -6 -6 
z
" id="mbdbb95a3a8" style="stroke:#ff0000;stroke-linejoin:miter;stroke-width:1.5;"/>
    </defs>
    <g>
     <use style="fill-opacity:0;stroke:#ff0000;stroke-linejoin:miter;stroke-width:1.5;" x="75.555822" xlink:href="#mbdbb95a3a8" y="263.129347"/>
     <use style="fill-opacity:0;stroke:#ff0000;stroke-linejoin:miter;stroke-width:1.5;" x="144.976063" xlink:href="#mbdbb95a3a8" y="231.001496"/>
     <use style="fill-opacity:0;stroke:#ff0000;stroke-linejoin:miter;stroke-width:1.5;" x="242.546704" xlink:href="#mbdbb95a3a8" y="225.207949"/>
     <use style="fill-opacity:0;stroke:#ff0000;stroke-linejoin:miter;stroke-width:1.5;" x="279.726988" xlink:href="#mbdbb95a3a8" y="220.467774"/>
     <use style="fill-opacity:0;stroke:#ff0000;stroke-linejoin:miter;stroke-width:1.5;" x="279.726988" xlink:href="#mbdbb95a3a8" y="219.941088"/>
     <use style="fill-opacity:0;stroke:#ff0000;stroke-linejoin:miter;stroke-width:1.5;" x="338.688" xlink:href="#mbdbb95a3a8" y="219.941088"/>
    </g>
   </g>
   <g id="line2d_52">
    <path style="fill:none;stroke:#ff0000;stroke-linecap:square;stroke-width:1.5;"/>
    <g/>
   </g>
   <g id="line2d_53">
    <path clip-path="url(#pc65835fa80)" d="M 230.310095 230.47481 
" style="fill:none;stroke:#ff0000;stroke-linecap:square;stroke-width:1.5;"/>
    <defs>
     <path d="M -12 12 
L 12 -12 
M -12 -12 
L 12 12 
" id="me790442dcd" style="stroke:#ff0000;"/>
    </defs>
    <g clip-path="url(#pc65835fa80)">
     <use style="fill:#ff0000;stroke:#ff0000;" x="230.310095" xlink:href="#me790442dcd" y="230.47481"/>
    </g>
   </g>
   <g id="line2d_54">
    <defs>
     <path d="M 0 1.5 
C 0.397805 1.5 0.77937 1.341951 1.06066 1.06066 
C 1.341951 0.77937 1.5 0.397805 1.5 0 
C 1.5 -0.397805 1.341951 -0.77937 1.06066 -1.06066 
C 0.77937 -1.341951 0.397805 -1.5 0 -1.5 
C -0.397805 -1.5 -0.77937 -1.341951 -1.06066 -1.06066 
C -1.341951 -0.77937 -1.5 -0.397805 -1.5 0 
C -1.5 0.397805 -1.341951 0.77937 -1.06066 1.06066 
C -0.77937 1.341951 -0.397805 1.5 0 1.5 
z
" id="m1b7b626490" style="stroke:#bf00bf;"/>
    </defs>
    <g>
     <use style="fill:#bf00bf;stroke:#bf00bf;" x="316.489135" xlink:href="#m1b7b626490" y="214.674227"/>
     <use style="fill:#bf00bf;stroke:#bf00bf;" x="316.489135" xlink:href="#m1b7b626490" y="214.674227"/>
    </g>
   </g>
   <g id="line2d_55">
    <path d="M -1 273.663068 
L 5.356583 273.663068 
L 5.356583 271.556324 
L 12.427603 271.556324 
L 12.427603 269.976266 
L 24.515591 269.976266 
L 24.515591 268.922893 
L 29.53256 268.922893 
L 29.53256 268.396207 
L 39.291857 268.396207 
L 39.291857 267.869521 
L 50.087456 267.869521 
L 50.087456 267.342835 
L 53.708537 267.342835 
L 53.708537 266.816149 
L 56.240407 266.816149 
L 56.240407 266.289463 
L 57.6 266.289463 
L 57.6 265.762777 
L 73.404181 265.762777 
L 73.404181 265.236091 
L 82.312613 265.236091 
L 82.312613 264.709405 
L 86.518305 264.709405 
L 86.518305 264.182719 
L 89.277618 264.182719 
L 89.277618 263.129347 
L 92.563189 263.129347 
L 92.563189 262.60266 
L 98.015075 262.60266 
L 98.015075 262.075974 
L 104.084239 262.075974 
L 104.084239 261.549288 
L 106.222336 261.549288 
L 106.222336 261.022602 
L 117.073569 261.022602 
L 117.073569 260.495916 
L 121.388979 260.495916 
L 121.388979 259.96923 
L 122.699028 259.96923 
L 122.80302 258.389172 
L 123.192626 258.389172 
L 123.28364 257.3358 
L 123.790603 257.3358 
L 123.790603 256.809114 
L 124.330801 256.809114 
L 124.330801 256.282427 
L 124.762349 256.282427 
L 124.762349 255.755741 
L 125.101877 255.755741 
L 125.101877 255.229055 
L 125.372399 255.229055 
L 125.372399 254.702369 
L 125.550443 254.702369 
L 125.550443 254.175683 
L 126.013653 254.175683 
L 126.013653 253.648997 
L 126.168212 253.648997 
L 126.25349 252.068939 
L 126.304457 252.068939 
L 126.304457 251.542253 
L 126.464878 251.542253 
L 126.464878 251.015567 
L 126.648803 251.015567 
L 126.648803 250.488881 
L 127.341738 250.488881 
L 127.341738 249.962195 
L 127.642832 249.962195 
L 127.642832 249.435508 
L 127.783662 249.435508 
L 127.783662 248.908822 
L 127.97739 248.908822 
L 128.023567 247.85545 
L 128.100257 247.85545 
L 128.100257 247.328764 
L 128.531065 247.328764 
L 128.531065 246.802078 
L 128.878458 246.802078 
L 128.92961 245.22202 
L 129.125518 245.22202 
L 129.125518 244.695334 
L 129.369128 244.695334 
L 129.369128 244.168648 
L 129.665433 244.168648 
L 129.665433 243.641962 
L 129.839445 243.641962 
L 129.839445 243.115275 
L 130.202705 243.115275 
L 130.202705 242.588589 
L 130.511968 242.588589 
L 130.511968 242.061903 
L 130.69097 242.061903 
L 130.69097 241.535217 
L 131.191591 241.535217 
L 131.217209 239.955159 
L 131.382813 239.955159 
L 131.382813 239.428473 
L 131.944212 239.428473 
L 132.029939 238.375101 
L 132.145613 238.375101 
L 132.145613 237.848415 
L 133.176429 237.848415 
L 133.176429 237.321729 
L 133.318838 237.321729 
L 133.318838 236.795043 
L 133.566687 236.795043 
L 133.59463 235.74167 
L 134.305866 235.74167 
L 134.343353 234.688298 
L 135.035562 234.688298 
L 135.112511 233.634926 
L 135.184026 233.634926 
L 135.184026 233.10824 
L 135.346394 233.10824 
L 135.366585 232.054868 
L 136.09765 232.054868 
L 136.09765 231.528182 
L 136.673382 231.528182 
L 136.729457 230.47481 
L 137.194409 230.47481 
L 137.194409 229.948123 
L 138.01518 229.948123 
L 138.01518 229.421437 
L 138.345732 229.421437 
L 138.345732 228.894751 
L 139.135538 228.894751 
L 139.135538 228.368065 
L 139.325515 228.368065 
L 139.325515 227.841379 
L 139.695435 227.841379 
L 139.695435 227.314693 
L 141.584721 227.314693 
L 141.612952 226.261321 
L 143.843966 226.261321 
L 143.843966 225.734635 
L 242.434689 225.734635 
L 242.468167 220.99446 
L 254.505533 220.99446 
L 254.520986 219.414402 
L 261.572519 219.414402 
L 261.572519 218.36103 
L 270.474651 218.36103 
L 270.474651 217.307658 
L 278.667631 217.307658 
L 278.667631 216.780971 
L 282.557913 216.780971 
L 282.557913 216.254285 
L 291.809742 216.254285 
L 291.809742 215.727599 
L 300.510696 215.727599 
L 300.510696 215.200913 
L 316.489135 215.200913 
L 316.489135 214.674227 
L 338.688 214.674227 
L 338.688 214.674227 
" style="fill:none;stroke:#bf00bf;stroke-linecap:square;stroke-width:1.5;"/>
   </g>
   <g id="line2d_56">
    <defs>
     <path d="M -0 8.485281 
L 8.485281 0 
L 0 -8.485281 
L -8.485281 -0 
z
" id="m31b3776156" style="stroke:#bf00bf;stroke-linejoin:miter;stroke-width:1.5;"/>
    </defs>
    <g>
     <use style="fill-opacity:0;stroke:#bf00bf;stroke-linejoin:miter;stroke-width:1.5;" x="143.843966" xlink:href="#m31b3776156" y="226.261321"/>
     <use style="fill-opacity:0;stroke:#bf00bf;stroke-linejoin:miter;stroke-width:1.5;" x="143.843966" xlink:href="#m31b3776156" y="225.734635"/>
     <use style="fill-opacity:0;stroke:#bf00bf;stroke-linejoin:miter;stroke-width:1.5;" x="300.510696" xlink:href="#m31b3776156" y="215.200913"/>
     <use style="fill-opacity:0;stroke:#bf00bf;stroke-linejoin:miter;stroke-width:1.5;" x="316.489135" xlink:href="#m31b3776156" y="214.674227"/>
     <use style="fill-opacity:0;stroke:#bf00bf;stroke-linejoin:miter;stroke-width:1.5;" x="338.688" xlink:href="#m31b3776156" y="214.674227"/>
    </g>
   </g>
   <g id="line2d_57">
    <path style="fill:none;stroke:#bf00bf;stroke-linecap:square;stroke-width:1.5;"/>
    <g/>
   </g>
   <g id="line2d_58">
    <path clip-path="url(#pc65835fa80)" d="M 242.397757 225.734635 
" style="fill:none;stroke:#bf00bf;stroke-linecap:square;stroke-width:1.5;"/>
    <defs>
     <path d="M -12 12 
L 12 -12 
M -12 -12 
L 12 12 
" id="mb001e14953" style="stroke:#bf00bf;"/>
    </defs>
    <g clip-path="url(#pc65835fa80)">
     <use style="fill:#bf00bf;stroke:#bf00bf;" x="242.397757" xlink:href="#mb001e14953" y="225.734635"/>
    </g>
   </g>
   <g id="line2d_59">
    <path d="M 338.688 219.941088 
L 369.60768 293.571802 
" style="fill:none;stroke:#ff0000;stroke-linecap:square;stroke-width:1.5;"/>
    <g>
     <use style="fill-opacity:0;stroke:#ff0000;stroke-linejoin:miter;stroke-width:1.5;" x="338.688" xlink:href="#mbdbb95a3a8" y="219.941088"/>
     <use style="fill-opacity:0;stroke:#ff0000;stroke-linejoin:miter;stroke-width:1.5;" x="369.60768" xlink:href="#mbdbb95a3a8" y="293.571802"/>
    </g>
   </g>
   <g id="line2d_60">
    <path d="M 338.688 214.674227 
L 369.60768 241.998701 
" style="fill:none;stroke:#bf00bf;stroke-linecap:square;stroke-width:1.5;"/>
    <g>
     <use style="fill-opacity:0;stroke:#bf00bf;stroke-linejoin:miter;stroke-width:1.5;" x="338.688" xlink:href="#m31b3776156" y="214.674227"/>
     <use style="fill-opacity:0;stroke:#bf00bf;stroke-linejoin:miter;stroke-width:1.5;" x="369.60768" xlink:href="#m31b3776156" y="241.998701"/>
    </g>
   </g>
   <g id="line2d_61">
    <path d="M 338.688 214.674227 
L 369.60768 190.4256 
" style="fill:none;stroke:#000000;stroke-linecap:square;stroke-width:1.5;"/>
    <g>
     <use style="fill-opacity:0;stroke:#000000;stroke-width:1.5;" x="338.688" xlink:href="#mf7eb8f5e5d" y="214.674227"/>
     <use style="fill-opacity:0;stroke:#000000;stroke-width:1.5;" x="369.60768" xlink:href="#mf7eb8f5e5d" y="190.4256"/>
    </g>
   </g>
   <g id="line2d_62">
    <path d="M 338.688 193.606784 
L 369.60768 138.852499 
" style="fill:none;stroke:#0000ff;stroke-linecap:square;stroke-width:1.5;"/>
    <g>
     <use style="fill-opacity:0;stroke:#0000ff;stroke-linejoin:bevel;stroke-width:1.5;" x="338.688" xlink:href="#m789be15369" y="193.606784"/>
     <use style="fill-opacity:0;stroke:#0000ff;stroke-linejoin:bevel;stroke-width:1.5;" x="369.60768" xlink:href="#m789be15369" y="138.852499"/>
    </g>
   </g>
   <g id="line2d_63">
    <path d="M 338.688 30.334099 
L 369.60768 87.279398 
" style="fill:none;stroke:#008000;stroke-linecap:square;stroke-width:1.5;"/>
    <g>
     <use style="fill-opacity:0;stroke:#008000;stroke-linejoin:miter;stroke-width:1.5;" x="338.688" xlink:href="#m3c69cf83a8" y="30.334099"/>
     <use style="fill-opacity:0;stroke:#008000;stroke-linejoin:miter;stroke-width:1.5;" x="369.60768" xlink:href="#m3c69cf83a8" y="87.279398"/>
    </g>
   </g>
   <g id="line2d_64">
    <path d="M 338.688 30.334099 
L 369.60768 35.706297 
" style="fill:none;stroke:#00bfbf;stroke-linecap:square;stroke-width:1.5;"/>
    <g>
     <use style="fill-opacity:0;stroke:#00bfbf;stroke-width:1.5;" x="338.688" xlink:href="#m244f273a8f" y="30.334099"/>
     <use style="fill-opacity:0;stroke:#00bfbf;stroke-width:1.5;" x="369.60768" xlink:href="#m244f273a8f" y="35.706297"/>
    </g>
   </g>
   <g id="line2d_65">
    <path d="M 338.688 298.944 
L 338.688 30.334099 
" style="fill:none;stroke:#000000;stroke-linecap:square;stroke-width:1.5;"/>
   </g>
   <g id="patch_3">
    <path d="M 57.6 298.944 
L 57.6 27.648 
" style="fill:none;stroke:#000000;stroke-linecap:square;stroke-linejoin:miter;stroke-width:0.8;"/>
   </g>
   <g id="patch_4">
    <path d="M 338.688 298.944 
L 338.688 27.648 
" style="fill:none;stroke:#000000;stroke-linecap:square;stroke-linejoin:miter;stroke-width:0.8;"/>
   </g>
   <g id="patch_5">
    <path d="M 57.6 298.944 
L 338.688 298.944 
" style="fill:none;stroke:#000000;stroke-linecap:square;stroke-linejoin:miter;stroke-width:0.8;"/>
   </g>
   <g id="patch_6">
    <path d="M 57.6 27.648 
L 338.688 27.648 
" style="fill:none;stroke:#000000;stroke-linecap:square;stroke-linejoin:miter;stroke-width:0.8;"/>
   </g>
   <g id="text_13">
    <!-- 20-D -->
    <g transform="translate(375.22944 298.262739)scale(0.17 -0.17)">
     <defs>
      <path d="M 19.671875 64.796875 
L 19.671875 8.109375 
L 31.59375 8.109375 
Q 46.6875 8.109375 53.6875 14.9375 
Q 60.6875 21.78125 60.6875 36.53125 
Q 60.6875 51.171875 53.6875 57.984375 
Q 46.6875 64.796875 31.59375 64.796875 
z
M 9.8125 72.90625 
L 30.078125 72.90625 
Q 51.265625 72.90625 61.171875 64.09375 
Q 71.09375 55.28125 71.09375 36.53125 
Q 71.09375 17.671875 61.125 8.828125 
Q 51.171875 0 30.078125 0 
L 9.8125 0 
z
" id="DejaVuSans-68"/>
     </defs>
     <use xlink:href="#DejaVuSans-50"/>
     <use x="63.623047" xlink:href="#DejaVuSans-48"/>
     <use x="127.246094" xlink:href="#DejaVuSans-45"/>
     <use x="163.330078" xlink:href="#DejaVuSans-68"/>
    </g>
   </g>
   <g id="text_14">
    <!-- 40-D -->
    <g transform="translate(375.22944 246.689638)scale(0.17 -0.17)">
     <use xlink:href="#DejaVuSans-52"/>
     <use x="63.623047" xlink:href="#DejaVuSans-48"/>
     <use x="127.246094" xlink:href="#DejaVuSans-45"/>
     <use x="163.330078" xlink:href="#DejaVuSans-68"/>
    </g>
   </g>
   <g id="text_15">
    <!-- 10-D -->
    <g transform="translate(375.22944 195.116537)scale(0.17 -0.17)">
     <use xlink:href="#DejaVuSans-49"/>
     <use x="63.623047" xlink:href="#DejaVuSans-48"/>
     <use x="127.246094" xlink:href="#DejaVuSans-45"/>
     <use x="163.330078" xlink:href="#DejaVuSans-68"/>
    </g>
   </g>
   <g id="text_16">
    <!-- 5-D -->
    <g transform="translate(375.22944 143.543437)scale(0.17 -0.17)">
     <defs>
      <path d="M 10.796875 72.90625 
L 49.515625 72.90625 
L 49.515625 64.59375 
L 19.828125 64.59375 
L 19.828125 46.734375 
Q 21.96875 47.46875 24.109375 47.828125 
Q 26.265625 48.1875 28.421875 48.1875 
Q 40.625 48.1875 47.75 41.5 
Q 54.890625 34.8125 54.890625 23.390625 
Q 54.890625 11.625 47.5625 5.09375 
Q 40.234375 -1.421875 26.90625 -1.421875 
Q 22.3125 -1.421875 17.546875 -0.640625 
Q 12.796875 0.140625 7.71875 1.703125 
L 7.71875 11.625 
Q 12.109375 9.234375 16.796875 8.0625 
Q 21.484375 6.890625 26.703125 6.890625 
Q 35.15625 6.890625 40.078125 11.328125 
Q 45.015625 15.765625 45.015625 23.390625 
Q 45.015625 31 40.078125 35.4375 
Q 35.15625 39.890625 26.703125 39.890625 
Q 22.75 39.890625 18.8125 39.015625 
Q 14.890625 38.140625 10.796875 36.28125 
z
" id="DejaVuSans-53"/>
     </defs>
     <use xlink:href="#DejaVuSans-53"/>
     <use x="63.623047" xlink:href="#DejaVuSans-45"/>
     <use x="99.707031" xlink:href="#DejaVuSans-68"/>
    </g>
   </g>
   <g id="text_17">
    <!-- 3-D -->
    <g transform="translate(375.22944 91.970336)scale(0.17 -0.17)">
     <defs>
      <path d="M 40.578125 39.3125 
Q 47.65625 37.796875 51.625 33 
Q 55.609375 28.21875 55.609375 21.1875 
Q 55.609375 10.40625 48.1875 4.484375 
Q 40.765625 -1.421875 27.09375 -1.421875 
Q 22.515625 -1.421875 17.65625 -0.515625 
Q 12.796875 0.390625 7.625 2.203125 
L 7.625 11.71875 
Q 11.71875 9.328125 16.59375 8.109375 
Q 21.484375 6.890625 26.8125 6.890625 
Q 36.078125 6.890625 40.9375 10.546875 
Q 45.796875 14.203125 45.796875 21.1875 
Q 45.796875 27.640625 41.28125 31.265625 
Q 36.765625 34.90625 28.71875 34.90625 
L 20.21875 34.90625 
L 20.21875 43.015625 
L 29.109375 43.015625 
Q 36.375 43.015625 40.234375 45.921875 
Q 44.09375 48.828125 44.09375 54.296875 
Q 44.09375 59.90625 40.109375 62.90625 
Q 36.140625 65.921875 28.71875 65.921875 
Q 24.65625 65.921875 20.015625 65.03125 
Q 15.375 64.15625 9.8125 62.3125 
L 9.8125 71.09375 
Q 15.4375 72.65625 20.34375 73.4375 
Q 25.25 74.21875 29.59375 74.21875 
Q 40.828125 74.21875 47.359375 69.109375 
Q 53.90625 64.015625 53.90625 55.328125 
Q 53.90625 49.265625 50.4375 45.09375 
Q 46.96875 40.921875 40.578125 39.3125 
z
" id="DejaVuSans-51"/>
     </defs>
     <use xlink:href="#DejaVuSans-51"/>
     <use x="63.623047" xlink:href="#DejaVuSans-45"/>
     <use x="99.707031" xlink:href="#DejaVuSans-68"/>
    </g>
   </g>
   <g id="text_18">
    <!-- 2-D -->
    <g transform="translate(375.22944 40.397235)scale(0.17 -0.17)">
     <use xlink:href="#DejaVuSans-50"/>
     <use x="63.623047" xlink:href="#DejaVuSans-45"/>
     <use x="99.707031" xlink:href="#DejaVuSans-68"/>
    </g>
   </g>
   <g id="text_19">
    <!-- bbob f23 -->
    <g transform="translate(60.41088 38.111366)scale(0.102 -0.102)">
     <defs>
      <path d="M 48.6875 27.296875 
Q 48.6875 37.203125 44.609375 42.84375 
Q 40.53125 48.484375 33.40625 48.484375 
Q 26.265625 48.484375 22.1875 42.84375 
Q 18.109375 37.203125 18.109375 27.296875 
Q 18.109375 17.390625 22.1875 11.75 
Q 26.265625 6.109375 33.40625 6.109375 
Q 40.53125 6.109375 44.609375 11.75 
Q 48.6875 17.390625 48.6875 27.296875 
z
M 18.109375 46.390625 
Q 20.953125 51.265625 25.265625 53.625 
Q 29.59375 56 35.59375 56 
Q 45.5625 56 51.78125 48.09375 
Q 58.015625 40.1875 58.015625 27.296875 
Q 58.015625 14.40625 51.78125 6.484375 
Q 45.5625 -1.421875 35.59375 -1.421875 
Q 29.59375 -1.421875 25.265625 0.953125 
Q 20.953125 3.328125 18.109375 8.203125 
L 18.109375 0 
L 9.078125 0 
L 9.078125 75.984375 
L 18.109375 75.984375 
z
" id="DejaVuSans-98"/>
     </defs>
     <use xlink:href="#DejaVuSans-98"/>
     <use x="63.476562" xlink:href="#DejaVuSans-98"/>
     <use x="126.953125" xlink:href="#DejaVuSans-111"/>
     <use x="188.134766" xlink:href="#DejaVuSans-98"/>
     <use x="251.611328" xlink:href="#DejaVuSans-32"/>
     <use x="283.398438" xlink:href="#DejaVuSans-102"/>
     <use x="318.603516" xlink:href="#DejaVuSans-50"/>
     <use x="382.226562" xlink:href="#DejaVuSans-51"/>
    </g>
    <!-- 51 targets: 100..1e-08 -->
    <g transform="translate(60.41088 49.533135)scale(0.102 -0.102)">
     <defs>
      <path d="M 11.71875 12.40625 
L 22.015625 12.40625 
L 22.015625 0 
L 11.71875 0 
z
M 11.71875 51.703125 
L 22.015625 51.703125 
L 22.015625 39.3125 
L 11.71875 39.3125 
z
" id="DejaVuSans-58"/>
     </defs>
     <use xlink:href="#DejaVuSans-53"/>
     <use x="63.623047" xlink:href="#DejaVuSans-49"/>
     <use x="127.246094" xlink:href="#DejaVuSans-32"/>
     <use x="159.033203" xlink:href="#DejaVuSans-116"/>
     <use x="198.242188" xlink:href="#DejaVuSans-97"/>
     <use x="259.521484" xlink:href="#DejaVuSans-114"/>
     <use x="298.884766" xlink:href="#DejaVuSans-103"/>
     <use x="362.361328" xlink:href="#DejaVuSans-101"/>
     <use x="423.884766" xlink:href="#DejaVuSans-116"/>
     <use x="463.09375" xlink:href="#DejaVuSans-115"/>
     <use x="515.193359" xlink:href="#DejaVuSans-58"/>
     <use x="548.884766" xlink:href="#DejaVuSans-32"/>
     <use x="580.671875" xlink:href="#DejaVuSans-49"/>
     <use x="644.294922" xlink:href="#DejaVuSans-48"/>
     <use x="707.917969" xlink:href="#DejaVuSans-48"/>
     <use x="771.541016" xlink:href="#DejaVuSans-46"/>
     <use x="803.328125" xlink:href="#DejaVuSans-46"/>
     <use x="835.115234" xlink:href="#DejaVuSans-49"/>
     <use x="898.738281" xlink:href="#DejaVuSans-101"/>
     <use x="960.261719" xlink:href="#DejaVuSans-45"/>
     <use x="996.345703" xlink:href="#DejaVuSans-48"/>
     <use x="1059.96875" xlink:href="#DejaVuSans-56"/>
    </g>
    <!-- 15 instances -->
    <g transform="translate(60.41088 60.954904)scale(0.102 -0.102)">
     <use xlink:href="#DejaVuSans-49"/>
     <use x="63.623047" xlink:href="#DejaVuSans-53"/>
     <use x="127.246094" xlink:href="#DejaVuSans-32"/>
     <use x="159.033203" xlink:href="#DejaVuSans-105"/>
     <use x="186.816406" xlink:href="#DejaVuSans-110"/>
     <use x="250.195312" xlink:href="#DejaVuSans-115"/>
     <use x="302.294922" xlink:href="#DejaVuSans-116"/>
     <use x="341.503906" xlink:href="#DejaVuSans-97"/>
     <use x="402.783203" xlink:href="#DejaVuSans-110"/>
     <use x="466.162109" xlink:href="#DejaVuSans-99"/>
     <use x="521.142578" xlink:href="#DejaVuSans-101"/>
     <use x="582.666016" xlink:href="#DejaVuSans-115"/>
    </g>
   </g>
   <g id="text_20">
    <!-- v2.4 -->
    <g style="fill:#808080;" transform="translate(187.233062 294.151352)scale(0.1 -0.1)">
     <use xlink:href="#DejaVuSans-118"/>
     <use x="59.179688" xlink:href="#DejaVuSans-50"/>
     <use x="122.802734" xlink:href="#DejaVuSans-46"/>
     <use x="154.589844" xlink:href="#DejaVuSans-52"/>
    </g>
   </g>
   <g id="text_21">
    <!-- 23 Katsuuras -->
    <g transform="translate(132.476812 21.648)scale(0.2 -0.2)">
     <defs>
      <path d="M 9.8125 72.90625 
L 19.671875 72.90625 
L 19.671875 42.09375 
L 52.390625 72.90625 
L 65.09375 72.90625 
L 28.90625 38.921875 
L 67.671875 0 
L 54.6875 0 
L 19.671875 35.109375 
L 19.671875 0 
L 9.8125 0 
z
" id="DejaVuSans-75"/>
     </defs>
     <use xlink:href="#DejaVuSans-50"/>
     <use x="63.623047" xlink:href="#DejaVuSans-51"/>
     <use x="127.246094" xlink:href="#DejaVuSans-32"/>
     <use x="159.033203" xlink:href="#DejaVuSans-75"/>
     <use x="222.859375" xlink:href="#DejaVuSans-97"/>
     <use x="284.138672" xlink:href="#DejaVuSans-116"/>
     <use x="323.347656" xlink:href="#DejaVuSans-115"/>
     <use x="375.447266" xlink:href="#DejaVuSans-117"/>
     <use x="438.826172" xlink:href="#DejaVuSans-117"/>
     <use x="502.205078" xlink:href="#DejaVuSans-114"/>
     <use x="543.318359" xlink:href="#DejaVuSans-97"/>
     <use x="604.597656" xlink:href="#DejaVuSans-115"/>
    </g>
   </g>
  </g>
 </g>
 <defs>
  <clipPath id="pc65835fa80">
   <rect height="271.296" width="281.088" x="57.6" y="27.648"/>
  </clipPath>
 </defs>
</svg>
