<?xml version="1.0" encoding="utf-8" standalone="no"?>
<!DOCTYPE svg PUBLIC "-//W3C//DTD SVG 1.1//EN"
  "http://www.w3.org/Graphics/SVG/1.1/DTD/svg11.dtd">
<!-- Created with matplotlib (https://matplotlib.org/) -->
<svg height="345.6pt" version="1.1" viewBox="0 0 460.8 345.6" width="460.8pt" xmlns="http://www.w3.org/2000/svg" xmlns:xlink="http://www.w3.org/1999/xlink">
 <metadata>
  <rdf:RDF xmlns:cc="http://creativecommons.org/ns#" xmlns:dc="http://purl.org/dc/elements/1.1/" xmlns:rdf="http://www.w3.org/1999/02/22-rdf-syntax-ns#">
   <cc:Work>
    <dc:type rdf:resource="http://purl.org/dc/dcmitype/StillImage"/>
    <dc:date>2021-06-17T01:37:29.201632</dc:date>
    <dc:format>image/svg+xml</dc:format>
    <dc:creator>
     <cc:Agent>
      <dc:title>Matplotlib v3.3.4, https://matplotlib.org/</dc:title>
     </cc:Agent>
    </dc:creator>
   </cc:Work>
  </rdf:RDF>
 </metadata>
 <defs>
  <style type="text/css">*{stroke-linecap:butt;stroke-linejoin:round;}</style>
 </defs>
 <g id="figure_1">
  <g id="patch_1">
   <path d="M 0 345.6 
L 460.8 345.6 
L 460.8 0 
L 0 0 
z
" style="fill:#ffffff;"/>
  </g>
  <g id="axes_1">
   <g id="patch_2">
    <path d="M 57.6 298.944 
L 338.688 298.944 
L 338.688 3.456 
L 57.6 3.456 
z
" style="fill:#ffffff;"/>
   </g>
   <g id="matplotlib.axis_1">
    <g id="xtick_1">
     <g id="line2d_1">
      <path clip-path="url(#p0e924d427d)" d="M 57.6 298.944 
L 57.6 3.456 
" style="fill:none;stroke:#b0b0b0;stroke-linecap:square;stroke-width:0.8;"/>
     </g>
     <g id="line2d_2">
      <defs>
       <path d="M 0 0 
L 0 3.5 
" id="m63193d7c49" style="stroke:#000000;stroke-width:0.8;"/>
      </defs>
      <g>
       <use style="stroke:#000000;stroke-width:0.8;" x="57.6" xlink:href="#m63193d7c49" y="298.944"/>
      </g>
     </g>
     <g id="text_1">
      <!-- 0 -->
      <g transform="translate(51.2375 321.140875)scale(0.2 -0.2)">
       <defs>
        <path d="M 31.78125 66.40625 
Q 24.171875 66.40625 20.328125 58.90625 
Q 16.5 51.421875 16.5 36.375 
Q 16.5 21.390625 20.328125 13.890625 
Q 24.171875 6.390625 31.78125 6.390625 
Q 39.453125 6.390625 43.28125 13.890625 
Q 47.125 21.390625 47.125 36.375 
Q 47.125 51.421875 43.28125 58.90625 
Q 39.453125 66.40625 31.78125 66.40625 
z
M 31.78125 74.21875 
Q 44.046875 74.21875 50.515625 64.515625 
Q 56.984375 54.828125 56.984375 36.375 
Q 56.984375 17.96875 50.515625 8.265625 
Q 44.046875 -1.421875 31.78125 -1.421875 
Q 19.53125 -1.421875 13.0625 8.265625 
Q 6.59375 17.96875 6.59375 36.375 
Q 6.59375 54.828125 13.0625 64.515625 
Q 19.53125 74.21875 31.78125 74.21875 
z
" id="DejaVuSans-48"/>
       </defs>
       <use xlink:href="#DejaVuSans-48"/>
      </g>
     </g>
    </g>
    <g id="xtick_2">
     <g id="line2d_3">
      <path clip-path="url(#p0e924d427d)" d="M 137.910857 298.944 
L 137.910857 3.456 
" style="fill:none;stroke:#b0b0b0;stroke-linecap:square;stroke-width:0.8;"/>
     </g>
     <g id="line2d_4">
      <g>
       <use style="stroke:#000000;stroke-width:0.8;" x="137.910857" xlink:href="#m63193d7c49" y="298.944"/>
      </g>
     </g>
     <g id="text_2">
      <!-- 2 -->
      <g transform="translate(131.548357 321.140875)scale(0.2 -0.2)">
       <defs>
        <path d="M 19.1875 8.296875 
L 53.609375 8.296875 
L 53.609375 0 
L 7.328125 0 
L 7.328125 8.296875 
Q 12.9375 14.109375 22.625 23.890625 
Q 32.328125 33.6875 34.8125 36.53125 
Q 39.546875 41.84375 41.421875 45.53125 
Q 43.3125 49.21875 43.3125 52.78125 
Q 43.3125 58.59375 39.234375 62.25 
Q 35.15625 65.921875 28.609375 65.921875 
Q 23.96875 65.921875 18.8125 64.3125 
Q 13.671875 62.703125 7.8125 59.421875 
L 7.8125 69.390625 
Q 13.765625 71.78125 18.9375 73 
Q 24.125 74.21875 28.421875 74.21875 
Q 39.75 74.21875 46.484375 68.546875 
Q 53.21875 62.890625 53.21875 53.421875 
Q 53.21875 48.921875 51.53125 44.890625 
Q 49.859375 40.875 45.40625 35.40625 
Q 44.1875 33.984375 37.640625 27.21875 
Q 31.109375 20.453125 19.1875 8.296875 
z
" id="DejaVuSans-50"/>
       </defs>
       <use xlink:href="#DejaVuSans-50"/>
      </g>
     </g>
    </g>
    <g id="xtick_3">
     <g id="line2d_5">
      <path clip-path="url(#p0e924d427d)" d="M 218.221714 298.944 
L 218.221714 3.456 
" style="fill:none;stroke:#b0b0b0;stroke-linecap:square;stroke-width:0.8;"/>
     </g>
     <g id="line2d_6">
      <g>
       <use style="stroke:#000000;stroke-width:0.8;" x="218.221714" xlink:href="#m63193d7c49" y="298.944"/>
      </g>
     </g>
     <g id="text_3">
      <!-- 4 -->
      <g transform="translate(211.859214 321.140875)scale(0.2 -0.2)">
       <defs>
        <path d="M 37.796875 64.3125 
L 12.890625 25.390625 
L 37.796875 25.390625 
z
M 35.203125 72.90625 
L 47.609375 72.90625 
L 47.609375 25.390625 
L 58.015625 25.390625 
L 58.015625 17.1875 
L 47.609375 17.1875 
L 47.609375 0 
L 37.796875 0 
L 37.796875 17.1875 
L 4.890625 17.1875 
L 4.890625 26.703125 
z
" id="DejaVuSans-52"/>
       </defs>
       <use xlink:href="#DejaVuSans-52"/>
      </g>
     </g>
    </g>
    <g id="xtick_4">
     <g id="line2d_7">
      <path clip-path="url(#p0e924d427d)" d="M 298.532571 298.944 
L 298.532571 3.456 
" style="fill:none;stroke:#b0b0b0;stroke-linecap:square;stroke-width:0.8;"/>
     </g>
     <g id="line2d_8">
      <g>
       <use style="stroke:#000000;stroke-width:0.8;" x="298.532571" xlink:href="#m63193d7c49" y="298.944"/>
      </g>
     </g>
     <g id="text_4">
      <!-- 6 -->
      <g transform="translate(292.170071 321.140875)scale(0.2 -0.2)">
       <defs>
        <path d="M 33.015625 40.375 
Q 26.375 40.375 22.484375 35.828125 
Q 18.609375 31.296875 18.609375 23.390625 
Q 18.609375 15.53125 22.484375 10.953125 
Q 26.375 6.390625 33.015625 6.390625 
Q 39.65625 6.390625 43.53125 10.953125 
Q 47.40625 15.53125 47.40625 23.390625 
Q 47.40625 31.296875 43.53125 35.828125 
Q 39.65625 40.375 33.015625 40.375 
z
M 52.59375 71.296875 
L 52.59375 62.3125 
Q 48.875 64.0625 45.09375 64.984375 
Q 41.3125 65.921875 37.59375 65.921875 
Q 27.828125 65.921875 22.671875 59.328125 
Q 17.53125 52.734375 16.796875 39.40625 
Q 19.671875 43.65625 24.015625 45.921875 
Q 28.375 48.1875 33.59375 48.1875 
Q 44.578125 48.1875 50.953125 41.515625 
Q 57.328125 34.859375 57.328125 23.390625 
Q 57.328125 12.15625 50.6875 5.359375 
Q 44.046875 -1.421875 33.015625 -1.421875 
Q 20.359375 -1.421875 13.671875 8.265625 
Q 6.984375 17.96875 6.984375 36.375 
Q 6.984375 53.65625 15.1875 63.9375 
Q 23.390625 74.21875 37.203125 74.21875 
Q 40.921875 74.21875 44.703125 73.484375 
Q 48.484375 72.75 52.59375 71.296875 
z
" id="DejaVuSans-54"/>
       </defs>
       <use xlink:href="#DejaVuSans-54"/>
      </g>
     </g>
    </g>
    <g id="xtick_5">
     <g id="line2d_9">
      <path clip-path="url(#p0e924d427d)" d="M 97.755429 298.944 
L 97.755429 3.456 
" style="fill:none;stroke:#b0b0b0;stroke-linecap:square;stroke-width:0.8;"/>
     </g>
     <g id="line2d_10">
      <defs>
       <path d="M 0 0 
L 0 2 
" id="mccaa943561" style="stroke:#000000;stroke-width:0.6;"/>
      </defs>
      <g>
       <use style="stroke:#000000;stroke-width:0.6;" x="97.755429" xlink:href="#mccaa943561" y="298.944"/>
      </g>
     </g>
    </g>
    <g id="xtick_6">
     <g id="line2d_11">
      <path clip-path="url(#p0e924d427d)" d="M 178.066286 298.944 
L 178.066286 3.456 
" style="fill:none;stroke:#b0b0b0;stroke-linecap:square;stroke-width:0.8;"/>
     </g>
     <g id="line2d_12">
      <g>
       <use style="stroke:#000000;stroke-width:0.6;" x="178.066286" xlink:href="#mccaa943561" y="298.944"/>
      </g>
     </g>
    </g>
    <g id="xtick_7">
     <g id="line2d_13">
      <path clip-path="url(#p0e924d427d)" d="M 258.377143 298.944 
L 258.377143 3.456 
" style="fill:none;stroke:#b0b0b0;stroke-linecap:square;stroke-width:0.8;"/>
     </g>
     <g id="line2d_14">
      <g>
       <use style="stroke:#000000;stroke-width:0.6;" x="258.377143" xlink:href="#mccaa943561" y="298.944"/>
      </g>
     </g>
    </g>
    <g id="xtick_8">
     <g id="line2d_15">
      <path clip-path="url(#p0e924d427d)" d="M 338.688 298.944 
L 338.688 3.456 
" style="fill:none;stroke:#b0b0b0;stroke-linecap:square;stroke-width:0.8;"/>
     </g>
     <g id="line2d_16">
      <g>
       <use style="stroke:#000000;stroke-width:0.6;" x="338.688" xlink:href="#mccaa943561" y="298.944"/>
      </g>
     </g>
    </g>
    <g id="text_5">
     <!-- log10(# f-evals / dimension) -->
     <g transform="translate(77.764078 342.217594)scale(0.17 -0.17)">
      <defs>
       <path d="M 9.421875 75.984375 
L 18.40625 75.984375 
L 18.40625 0 
L 9.421875 0 
z
" id="DejaVuSans-108"/>
       <path d="M 30.609375 48.390625 
Q 23.390625 48.390625 19.1875 42.75 
Q 14.984375 37.109375 14.984375 27.296875 
Q 14.984375 17.484375 19.15625 11.84375 
Q 23.34375 6.203125 30.609375 6.203125 
Q 37.796875 6.203125 41.984375 11.859375 
Q 46.1875 17.53125 46.1875 27.296875 
Q 46.1875 37.015625 41.984375 42.703125 
Q 37.796875 48.390625 30.609375 48.390625 
z
M 30.609375 56 
Q 42.328125 56 49.015625 48.375 
Q 55.71875 40.765625 55.71875 27.296875 
Q 55.71875 13.875 49.015625 6.21875 
Q 42.328125 -1.421875 30.609375 -1.421875 
Q 18.84375 -1.421875 12.171875 6.21875 
Q 5.515625 13.875 5.515625 27.296875 
Q 5.515625 40.765625 12.171875 48.375 
Q 18.84375 56 30.609375 56 
z
" id="DejaVuSans-111"/>
       <path d="M 45.40625 27.984375 
Q 45.40625 37.75 41.375 43.109375 
Q 37.359375 48.484375 30.078125 48.484375 
Q 22.859375 48.484375 18.828125 43.109375 
Q 14.796875 37.75 14.796875 27.984375 
Q 14.796875 18.265625 18.828125 12.890625 
Q 22.859375 7.515625 30.078125 7.515625 
Q 37.359375 7.515625 41.375 12.890625 
Q 45.40625 18.265625 45.40625 27.984375 
z
M 54.390625 6.78125 
Q 54.390625 -7.171875 48.1875 -13.984375 
Q 42 -20.796875 29.203125 -20.796875 
Q 24.46875 -20.796875 20.265625 -20.09375 
Q 16.0625 -19.390625 12.109375 -17.921875 
L 12.109375 -9.1875 
Q 16.0625 -11.328125 19.921875 -12.34375 
Q 23.78125 -13.375 27.78125 -13.375 
Q 36.625 -13.375 41.015625 -8.765625 
Q 45.40625 -4.15625 45.40625 5.171875 
L 45.40625 9.625 
Q 42.625 4.78125 38.28125 2.390625 
Q 33.9375 0 27.875 0 
Q 17.828125 0 11.671875 7.65625 
Q 5.515625 15.328125 5.515625 27.984375 
Q 5.515625 40.671875 11.671875 48.328125 
Q 17.828125 56 27.875 56 
Q 33.9375 56 38.28125 53.609375 
Q 42.625 51.21875 45.40625 46.390625 
L 45.40625 54.6875 
L 54.390625 54.6875 
z
" id="DejaVuSans-103"/>
       <path d="M 12.40625 8.296875 
L 28.515625 8.296875 
L 28.515625 63.921875 
L 10.984375 60.40625 
L 10.984375 69.390625 
L 28.421875 72.90625 
L 38.28125 72.90625 
L 38.28125 8.296875 
L 54.390625 8.296875 
L 54.390625 0 
L 12.40625 0 
z
" id="DejaVuSans-49"/>
       <path d="M 31 75.875 
Q 24.46875 64.65625 21.28125 53.65625 
Q 18.109375 42.671875 18.109375 31.390625 
Q 18.109375 20.125 21.3125 9.0625 
Q 24.515625 -2 31 -13.1875 
L 23.1875 -13.1875 
Q 15.875 -1.703125 12.234375 9.375 
Q 8.59375 20.453125 8.59375 31.390625 
Q 8.59375 42.28125 12.203125 53.3125 
Q 15.828125 64.359375 23.1875 75.875 
z
" id="DejaVuSans-40"/>
       <path d="M 51.125 44 
L 36.921875 44 
L 32.8125 27.6875 
L 47.125 27.6875 
z
M 43.796875 71.78125 
L 38.71875 51.515625 
L 52.984375 51.515625 
L 58.109375 71.78125 
L 65.921875 71.78125 
L 60.890625 51.515625 
L 76.125 51.515625 
L 76.125 44 
L 58.984375 44 
L 54.984375 27.6875 
L 70.515625 27.6875 
L 70.515625 20.21875 
L 53.078125 20.21875 
L 48 0 
L 40.1875 0 
L 45.21875 20.21875 
L 30.90625 20.21875 
L 25.875 0 
L 18.015625 0 
L 23.09375 20.21875 
L 7.71875 20.21875 
L 7.71875 27.6875 
L 24.90625 27.6875 
L 29 44 
L 13.28125 44 
L 13.28125 51.515625 
L 30.90625 51.515625 
L 35.890625 71.78125 
z
" id="DejaVuSans-35"/>
       <path id="DejaVuSans-32"/>
       <path d="M 37.109375 75.984375 
L 37.109375 68.5 
L 28.515625 68.5 
Q 23.6875 68.5 21.796875 66.546875 
Q 19.921875 64.59375 19.921875 59.515625 
L 19.921875 54.6875 
L 34.71875 54.6875 
L 34.71875 47.703125 
L 19.921875 47.703125 
L 19.921875 0 
L 10.890625 0 
L 10.890625 47.703125 
L 2.296875 47.703125 
L 2.296875 54.6875 
L 10.890625 54.6875 
L 10.890625 58.5 
Q 10.890625 67.625 15.140625 71.796875 
Q 19.390625 75.984375 28.609375 75.984375 
z
" id="DejaVuSans-102"/>
       <path d="M 4.890625 31.390625 
L 31.203125 31.390625 
L 31.203125 23.390625 
L 4.890625 23.390625 
z
" id="DejaVuSans-45"/>
       <path d="M 56.203125 29.59375 
L 56.203125 25.203125 
L 14.890625 25.203125 
Q 15.484375 15.921875 20.484375 11.0625 
Q 25.484375 6.203125 34.421875 6.203125 
Q 39.59375 6.203125 44.453125 7.46875 
Q 49.3125 8.734375 54.109375 11.28125 
L 54.109375 2.78125 
Q 49.265625 0.734375 44.1875 -0.34375 
Q 39.109375 -1.421875 33.890625 -1.421875 
Q 20.796875 -1.421875 13.15625 6.1875 
Q 5.515625 13.8125 5.515625 26.8125 
Q 5.515625 40.234375 12.765625 48.109375 
Q 20.015625 56 32.328125 56 
Q 43.359375 56 49.78125 48.890625 
Q 56.203125 41.796875 56.203125 29.59375 
z
M 47.21875 32.234375 
Q 47.125 39.59375 43.09375 43.984375 
Q 39.0625 48.390625 32.421875 48.390625 
Q 24.90625 48.390625 20.390625 44.140625 
Q 15.875 39.890625 15.1875 32.171875 
z
" id="DejaVuSans-101"/>
       <path d="M 2.984375 54.6875 
L 12.5 54.6875 
L 29.59375 8.796875 
L 46.6875 54.6875 
L 56.203125 54.6875 
L 35.6875 0 
L 23.484375 0 
z
" id="DejaVuSans-118"/>
       <path d="M 34.28125 27.484375 
Q 23.390625 27.484375 19.1875 25 
Q 14.984375 22.515625 14.984375 16.5 
Q 14.984375 11.71875 18.140625 8.90625 
Q 21.296875 6.109375 26.703125 6.109375 
Q 34.1875 6.109375 38.703125 11.40625 
Q 43.21875 16.703125 43.21875 25.484375 
L 43.21875 27.484375 
z
M 52.203125 31.203125 
L 52.203125 0 
L 43.21875 0 
L 43.21875 8.296875 
Q 40.140625 3.328125 35.546875 0.953125 
Q 30.953125 -1.421875 24.3125 -1.421875 
Q 15.921875 -1.421875 10.953125 3.296875 
Q 6 8.015625 6 15.921875 
Q 6 25.140625 12.171875 29.828125 
Q 18.359375 34.515625 30.609375 34.515625 
L 43.21875 34.515625 
L 43.21875 35.40625 
Q 43.21875 41.609375 39.140625 45 
Q 35.0625 48.390625 27.6875 48.390625 
Q 23 48.390625 18.546875 47.265625 
Q 14.109375 46.140625 10.015625 43.890625 
L 10.015625 52.203125 
Q 14.9375 54.109375 19.578125 55.046875 
Q 24.21875 56 28.609375 56 
Q 40.484375 56 46.34375 49.84375 
Q 52.203125 43.703125 52.203125 31.203125 
z
" id="DejaVuSans-97"/>
       <path d="M 44.28125 53.078125 
L 44.28125 44.578125 
Q 40.484375 46.53125 36.375 47.5 
Q 32.28125 48.484375 27.875 48.484375 
Q 21.1875 48.484375 17.84375 46.4375 
Q 14.5 44.390625 14.5 40.28125 
Q 14.5 37.15625 16.890625 35.375 
Q 19.28125 33.59375 26.515625 31.984375 
L 29.59375 31.296875 
Q 39.15625 29.25 43.1875 25.515625 
Q 47.21875 21.78125 47.21875 15.09375 
Q 47.21875 7.46875 41.1875 3.015625 
Q 35.15625 -1.421875 24.609375 -1.421875 
Q 20.21875 -1.421875 15.453125 -0.5625 
Q 10.6875 0.296875 5.421875 2 
L 5.421875 11.28125 
Q 10.40625 8.6875 15.234375 7.390625 
Q 20.0625 6.109375 24.8125 6.109375 
Q 31.15625 6.109375 34.5625 8.28125 
Q 37.984375 10.453125 37.984375 14.40625 
Q 37.984375 18.0625 35.515625 20.015625 
Q 33.0625 21.96875 24.703125 23.78125 
L 21.578125 24.515625 
Q 13.234375 26.265625 9.515625 29.90625 
Q 5.8125 33.546875 5.8125 39.890625 
Q 5.8125 47.609375 11.28125 51.796875 
Q 16.75 56 26.8125 56 
Q 31.78125 56 36.171875 55.265625 
Q 40.578125 54.546875 44.28125 53.078125 
z
" id="DejaVuSans-115"/>
       <path d="M 25.390625 72.90625 
L 33.6875 72.90625 
L 8.296875 -9.28125 
L 0 -9.28125 
z
" id="DejaVuSans-47"/>
       <path d="M 45.40625 46.390625 
L 45.40625 75.984375 
L 54.390625 75.984375 
L 54.390625 0 
L 45.40625 0 
L 45.40625 8.203125 
Q 42.578125 3.328125 38.25 0.953125 
Q 33.9375 -1.421875 27.875 -1.421875 
Q 17.96875 -1.421875 11.734375 6.484375 
Q 5.515625 14.40625 5.515625 27.296875 
Q 5.515625 40.1875 11.734375 48.09375 
Q 17.96875 56 27.875 56 
Q 33.9375 56 38.25 53.625 
Q 42.578125 51.265625 45.40625 46.390625 
z
M 14.796875 27.296875 
Q 14.796875 17.390625 18.875 11.75 
Q 22.953125 6.109375 30.078125 6.109375 
Q 37.203125 6.109375 41.296875 11.75 
Q 45.40625 17.390625 45.40625 27.296875 
Q 45.40625 37.203125 41.296875 42.84375 
Q 37.203125 48.484375 30.078125 48.484375 
Q 22.953125 48.484375 18.875 42.84375 
Q 14.796875 37.203125 14.796875 27.296875 
z
" id="DejaVuSans-100"/>
       <path d="M 9.421875 54.6875 
L 18.40625 54.6875 
L 18.40625 0 
L 9.421875 0 
z
M 9.421875 75.984375 
L 18.40625 75.984375 
L 18.40625 64.59375 
L 9.421875 64.59375 
z
" id="DejaVuSans-105"/>
       <path d="M 52 44.1875 
Q 55.375 50.25 60.0625 53.125 
Q 64.75 56 71.09375 56 
Q 79.640625 56 84.28125 50.015625 
Q 88.921875 44.046875 88.921875 33.015625 
L 88.921875 0 
L 79.890625 0 
L 79.890625 32.71875 
Q 79.890625 40.578125 77.09375 44.375 
Q 74.3125 48.1875 68.609375 48.1875 
Q 61.625 48.1875 57.5625 43.546875 
Q 53.515625 38.921875 53.515625 30.90625 
L 53.515625 0 
L 44.484375 0 
L 44.484375 32.71875 
Q 44.484375 40.625 41.703125 44.40625 
Q 38.921875 48.1875 33.109375 48.1875 
Q 26.21875 48.1875 22.15625 43.53125 
Q 18.109375 38.875 18.109375 30.90625 
L 18.109375 0 
L 9.078125 0 
L 9.078125 54.6875 
L 18.109375 54.6875 
L 18.109375 46.1875 
Q 21.1875 51.21875 25.484375 53.609375 
Q 29.78125 56 35.6875 56 
Q 41.65625 56 45.828125 52.96875 
Q 50 49.953125 52 44.1875 
z
" id="DejaVuSans-109"/>
       <path d="M 54.890625 33.015625 
L 54.890625 0 
L 45.90625 0 
L 45.90625 32.71875 
Q 45.90625 40.484375 42.875 44.328125 
Q 39.84375 48.1875 33.796875 48.1875 
Q 26.515625 48.1875 22.3125 43.546875 
Q 18.109375 38.921875 18.109375 30.90625 
L 18.109375 0 
L 9.078125 0 
L 9.078125 54.6875 
L 18.109375 54.6875 
L 18.109375 46.1875 
Q 21.34375 51.125 25.703125 53.5625 
Q 30.078125 56 35.796875 56 
Q 45.21875 56 50.046875 50.171875 
Q 54.890625 44.34375 54.890625 33.015625 
z
" id="DejaVuSans-110"/>
       <path d="M 8.015625 75.875 
L 15.828125 75.875 
Q 23.140625 64.359375 26.78125 53.3125 
Q 30.421875 42.28125 30.421875 31.390625 
Q 30.421875 20.453125 26.78125 9.375 
Q 23.140625 -1.703125 15.828125 -13.1875 
L 8.015625 -13.1875 
Q 14.5 -2 17.703125 9.0625 
Q 20.90625 20.125 20.90625 31.390625 
Q 20.90625 42.671875 17.703125 53.65625 
Q 14.5 64.65625 8.015625 75.875 
z
" id="DejaVuSans-41"/>
      </defs>
      <use xlink:href="#DejaVuSans-108"/>
      <use x="27.783203" xlink:href="#DejaVuSans-111"/>
      <use x="88.964844" xlink:href="#DejaVuSans-103"/>
      <use x="152.441406" xlink:href="#DejaVuSans-49"/>
      <use x="216.064453" xlink:href="#DejaVuSans-48"/>
      <use x="279.6875" xlink:href="#DejaVuSans-40"/>
      <use x="318.701172" xlink:href="#DejaVuSans-35"/>
      <use x="402.490234" xlink:href="#DejaVuSans-32"/>
      <use x="434.277344" xlink:href="#DejaVuSans-102"/>
      <use x="463.982422" xlink:href="#DejaVuSans-45"/>
      <use x="500.066406" xlink:href="#DejaVuSans-101"/>
      <use x="561.589844" xlink:href="#DejaVuSans-118"/>
      <use x="620.769531" xlink:href="#DejaVuSans-97"/>
      <use x="682.048828" xlink:href="#DejaVuSans-108"/>
      <use x="709.832031" xlink:href="#DejaVuSans-115"/>
      <use x="761.931641" xlink:href="#DejaVuSans-32"/>
      <use x="793.71875" xlink:href="#DejaVuSans-47"/>
      <use x="827.410156" xlink:href="#DejaVuSans-32"/>
      <use x="859.197266" xlink:href="#DejaVuSans-100"/>
      <use x="922.673828" xlink:href="#DejaVuSans-105"/>
      <use x="950.457031" xlink:href="#DejaVuSans-109"/>
      <use x="1047.869141" xlink:href="#DejaVuSans-101"/>
      <use x="1109.392578" xlink:href="#DejaVuSans-110"/>
      <use x="1172.771484" xlink:href="#DejaVuSans-115"/>
      <use x="1224.871094" xlink:href="#DejaVuSans-105"/>
      <use x="1252.654297" xlink:href="#DejaVuSans-111"/>
      <use x="1313.835938" xlink:href="#DejaVuSans-110"/>
      <use x="1377.214844" xlink:href="#DejaVuSans-41"/>
     </g>
    </g>
   </g>
   <g id="matplotlib.axis_2">
    <g id="ytick_1">
     <g id="line2d_17">
      <path clip-path="url(#p0e924d427d)" d="M 57.6 298.944 
L 338.688 298.944 
" style="fill:none;stroke:#b0b0b0;stroke-linecap:square;stroke-width:0.8;"/>
     </g>
     <g id="line2d_18">
      <defs>
       <path d="M 0 0 
L -3.5 0 
" id="m3f331608b9" style="stroke:#000000;stroke-width:0.8;"/>
      </defs>
      <g>
       <use style="stroke:#000000;stroke-width:0.8;" x="57.6" xlink:href="#m3f331608b9" y="298.944"/>
      </g>
     </g>
     <g id="text_6">
      <!-- 0.0 -->
      <g transform="translate(25.155 305.02275)scale(0.16 -0.16)">
       <defs>
        <path d="M 10.6875 12.40625 
L 21 12.40625 
L 21 0 
L 10.6875 0 
z
" id="DejaVuSans-46"/>
       </defs>
       <use xlink:href="#DejaVuSans-48"/>
       <use x="63.623047" xlink:href="#DejaVuSans-46"/>
       <use x="95.410156" xlink:href="#DejaVuSans-48"/>
      </g>
     </g>
    </g>
    <g id="ytick_2">
     <g id="line2d_19">
      <path clip-path="url(#p0e924d427d)" d="M 57.6 240.431525 
L 338.688 240.431525 
" style="fill:none;stroke:#b0b0b0;stroke-linecap:square;stroke-width:0.8;"/>
     </g>
     <g id="line2d_20">
      <g>
       <use style="stroke:#000000;stroke-width:0.8;" x="57.6" xlink:href="#m3f331608b9" y="240.431525"/>
      </g>
     </g>
     <g id="text_7">
      <!-- 0.2 -->
      <g transform="translate(25.155 246.510275)scale(0.16 -0.16)">
       <use xlink:href="#DejaVuSans-48"/>
       <use x="63.623047" xlink:href="#DejaVuSans-46"/>
       <use x="95.410156" xlink:href="#DejaVuSans-50"/>
      </g>
     </g>
    </g>
    <g id="ytick_3">
     <g id="line2d_21">
      <path clip-path="url(#p0e924d427d)" d="M 57.6 181.91905 
L 338.688 181.91905 
" style="fill:none;stroke:#b0b0b0;stroke-linecap:square;stroke-width:0.8;"/>
     </g>
     <g id="line2d_22">
      <g>
       <use style="stroke:#000000;stroke-width:0.8;" x="57.6" xlink:href="#m3f331608b9" y="181.91905"/>
      </g>
     </g>
     <g id="text_8">
      <!-- 0.4 -->
      <g transform="translate(25.155 187.9978)scale(0.16 -0.16)">
       <use xlink:href="#DejaVuSans-48"/>
       <use x="63.623047" xlink:href="#DejaVuSans-46"/>
       <use x="95.410156" xlink:href="#DejaVuSans-52"/>
      </g>
     </g>
    </g>
    <g id="ytick_4">
     <g id="line2d_23">
      <path clip-path="url(#p0e924d427d)" d="M 57.6 123.406574 
L 338.688 123.406574 
" style="fill:none;stroke:#b0b0b0;stroke-linecap:square;stroke-width:0.8;"/>
     </g>
     <g id="line2d_24">
      <g>
       <use style="stroke:#000000;stroke-width:0.8;" x="57.6" xlink:href="#m3f331608b9" y="123.406574"/>
      </g>
     </g>
     <g id="text_9">
      <!-- 0.6 -->
      <g transform="translate(25.155 129.485324)scale(0.16 -0.16)">
       <use xlink:href="#DejaVuSans-48"/>
       <use x="63.623047" xlink:href="#DejaVuSans-46"/>
       <use x="95.410156" xlink:href="#DejaVuSans-54"/>
      </g>
     </g>
    </g>
    <g id="ytick_5">
     <g id="line2d_25">
      <path clip-path="url(#p0e924d427d)" d="M 57.6 64.894099 
L 338.688 64.894099 
" style="fill:none;stroke:#b0b0b0;stroke-linecap:square;stroke-width:0.8;"/>
     </g>
     <g id="line2d_26">
      <g>
       <use style="stroke:#000000;stroke-width:0.8;" x="57.6" xlink:href="#m3f331608b9" y="64.894099"/>
      </g>
     </g>
     <g id="text_10">
      <!-- 0.8 -->
      <g transform="translate(25.155 70.972849)scale(0.16 -0.16)">
       <defs>
        <path d="M 31.78125 34.625 
Q 24.75 34.625 20.71875 30.859375 
Q 16.703125 27.09375 16.703125 20.515625 
Q 16.703125 13.921875 20.71875 10.15625 
Q 24.75 6.390625 31.78125 6.390625 
Q 38.8125 6.390625 42.859375 10.171875 
Q 46.921875 13.96875 46.921875 20.515625 
Q 46.921875 27.09375 42.890625 30.859375 
Q 38.875 34.625 31.78125 34.625 
z
M 21.921875 38.8125 
Q 15.578125 40.375 12.03125 44.71875 
Q 8.5 49.078125 8.5 55.328125 
Q 8.5 64.0625 14.71875 69.140625 
Q 20.953125 74.21875 31.78125 74.21875 
Q 42.671875 74.21875 48.875 69.140625 
Q 55.078125 64.0625 55.078125 55.328125 
Q 55.078125 49.078125 51.53125 44.71875 
Q 48 40.375 41.703125 38.8125 
Q 48.828125 37.15625 52.796875 32.3125 
Q 56.78125 27.484375 56.78125 20.515625 
Q 56.78125 9.90625 50.3125 4.234375 
Q 43.84375 -1.421875 31.78125 -1.421875 
Q 19.734375 -1.421875 13.25 4.234375 
Q 6.78125 9.90625 6.78125 20.515625 
Q 6.78125 27.484375 10.78125 32.3125 
Q 14.796875 37.15625 21.921875 38.8125 
z
M 18.3125 54.390625 
Q 18.3125 48.734375 21.84375 45.5625 
Q 25.390625 42.390625 31.78125 42.390625 
Q 38.140625 42.390625 41.71875 45.5625 
Q 45.3125 48.734375 45.3125 54.390625 
Q 45.3125 60.0625 41.71875 63.234375 
Q 38.140625 66.40625 31.78125 66.40625 
Q 25.390625 66.40625 21.84375 63.234375 
Q 18.3125 60.0625 18.3125 54.390625 
z
" id="DejaVuSans-56"/>
       </defs>
       <use xlink:href="#DejaVuSans-48"/>
       <use x="63.623047" xlink:href="#DejaVuSans-46"/>
       <use x="95.410156" xlink:href="#DejaVuSans-56"/>
      </g>
     </g>
    </g>
    <g id="ytick_6">
     <g id="line2d_27">
      <path clip-path="url(#p0e924d427d)" d="M 57.6 6.381624 
L 338.688 6.381624 
" style="fill:none;stroke:#b0b0b0;stroke-linecap:square;stroke-width:0.8;"/>
     </g>
     <g id="line2d_28">
      <g>
       <use style="stroke:#000000;stroke-width:0.8;" x="57.6" xlink:href="#m3f331608b9" y="6.381624"/>
      </g>
     </g>
     <g id="text_11">
      <!-- 1.0 -->
      <g transform="translate(25.155 12.460374)scale(0.16 -0.16)">
       <use xlink:href="#DejaVuSans-49"/>
       <use x="63.623047" xlink:href="#DejaVuSans-46"/>
       <use x="95.410156" xlink:href="#DejaVuSans-48"/>
      </g>
     </g>
    </g>
    <g id="text_12">
     <!-- Fraction of function,target pairs -->
     <g transform="translate(17.619531 285.585)rotate(-90)scale(0.17 -0.17)">
      <defs>
       <path d="M 9.8125 72.90625 
L 51.703125 72.90625 
L 51.703125 64.59375 
L 19.671875 64.59375 
L 19.671875 43.109375 
L 48.578125 43.109375 
L 48.578125 34.8125 
L 19.671875 34.8125 
L 19.671875 0 
L 9.8125 0 
z
" id="DejaVuSans-70"/>
       <path d="M 41.109375 46.296875 
Q 39.59375 47.171875 37.8125 47.578125 
Q 36.03125 48 33.890625 48 
Q 26.265625 48 22.1875 43.046875 
Q 18.109375 38.09375 18.109375 28.8125 
L 18.109375 0 
L 9.078125 0 
L 9.078125 54.6875 
L 18.109375 54.6875 
L 18.109375 46.1875 
Q 20.953125 51.171875 25.484375 53.578125 
Q 30.03125 56 36.53125 56 
Q 37.453125 56 38.578125 55.875 
Q 39.703125 55.765625 41.0625 55.515625 
z
" id="DejaVuSans-114"/>
       <path d="M 48.78125 52.59375 
L 48.78125 44.1875 
Q 44.96875 46.296875 41.140625 47.34375 
Q 37.3125 48.390625 33.40625 48.390625 
Q 24.65625 48.390625 19.8125 42.84375 
Q 14.984375 37.3125 14.984375 27.296875 
Q 14.984375 17.28125 19.8125 11.734375 
Q 24.65625 6.203125 33.40625 6.203125 
Q 37.3125 6.203125 41.140625 7.25 
Q 44.96875 8.296875 48.78125 10.40625 
L 48.78125 2.09375 
Q 45.015625 0.34375 40.984375 -0.53125 
Q 36.96875 -1.421875 32.421875 -1.421875 
Q 20.0625 -1.421875 12.78125 6.34375 
Q 5.515625 14.109375 5.515625 27.296875 
Q 5.515625 40.671875 12.859375 48.328125 
Q 20.21875 56 33.015625 56 
Q 37.15625 56 41.109375 55.140625 
Q 45.0625 54.296875 48.78125 52.59375 
z
" id="DejaVuSans-99"/>
       <path d="M 18.3125 70.21875 
L 18.3125 54.6875 
L 36.8125 54.6875 
L 36.8125 47.703125 
L 18.3125 47.703125 
L 18.3125 18.015625 
Q 18.3125 11.328125 20.140625 9.421875 
Q 21.96875 7.515625 27.59375 7.515625 
L 36.8125 7.515625 
L 36.8125 0 
L 27.59375 0 
Q 17.1875 0 13.234375 3.875 
Q 9.28125 7.765625 9.28125 18.015625 
L 9.28125 47.703125 
L 2.6875 47.703125 
L 2.6875 54.6875 
L 9.28125 54.6875 
L 9.28125 70.21875 
z
" id="DejaVuSans-116"/>
       <path d="M 8.5 21.578125 
L 8.5 54.6875 
L 17.484375 54.6875 
L 17.484375 21.921875 
Q 17.484375 14.15625 20.5 10.265625 
Q 23.53125 6.390625 29.59375 6.390625 
Q 36.859375 6.390625 41.078125 11.03125 
Q 45.3125 15.671875 45.3125 23.6875 
L 45.3125 54.6875 
L 54.296875 54.6875 
L 54.296875 0 
L 45.3125 0 
L 45.3125 8.40625 
Q 42.046875 3.421875 37.71875 1 
Q 33.40625 -1.421875 27.6875 -1.421875 
Q 18.265625 -1.421875 13.375 4.4375 
Q 8.5 10.296875 8.5 21.578125 
z
M 31.109375 56 
z
" id="DejaVuSans-117"/>
       <path d="M 11.71875 12.40625 
L 22.015625 12.40625 
L 22.015625 4 
L 14.015625 -11.625 
L 7.71875 -11.625 
L 11.71875 4 
z
" id="DejaVuSans-44"/>
       <path d="M 18.109375 8.203125 
L 18.109375 -20.796875 
L 9.078125 -20.796875 
L 9.078125 54.6875 
L 18.109375 54.6875 
L 18.109375 46.390625 
Q 20.953125 51.265625 25.265625 53.625 
Q 29.59375 56 35.59375 56 
Q 45.5625 56 51.78125 48.09375 
Q 58.015625 40.1875 58.015625 27.296875 
Q 58.015625 14.40625 51.78125 6.484375 
Q 45.5625 -1.421875 35.59375 -1.421875 
Q 29.59375 -1.421875 25.265625 0.953125 
Q 20.953125 3.328125 18.109375 8.203125 
z
M 48.6875 27.296875 
Q 48.6875 37.203125 44.609375 42.84375 
Q 40.53125 48.484375 33.40625 48.484375 
Q 26.265625 48.484375 22.1875 42.84375 
Q 18.109375 37.203125 18.109375 27.296875 
Q 18.109375 17.390625 22.1875 11.75 
Q 26.265625 6.109375 33.40625 6.109375 
Q 40.53125 6.109375 44.609375 11.75 
Q 48.6875 17.390625 48.6875 27.296875 
z
" id="DejaVuSans-112"/>
      </defs>
      <use xlink:href="#DejaVuSans-70"/>
      <use x="50.269531" xlink:href="#DejaVuSans-114"/>
      <use x="91.382812" xlink:href="#DejaVuSans-97"/>
      <use x="152.662109" xlink:href="#DejaVuSans-99"/>
      <use x="207.642578" xlink:href="#DejaVuSans-116"/>
      <use x="246.851562" xlink:href="#DejaVuSans-105"/>
      <use x="274.634766" xlink:href="#DejaVuSans-111"/>
      <use x="335.816406" xlink:href="#DejaVuSans-110"/>
      <use x="399.195312" xlink:href="#DejaVuSans-32"/>
      <use x="430.982422" xlink:href="#DejaVuSans-111"/>
      <use x="492.164062" xlink:href="#DejaVuSans-102"/>
      <use x="527.369141" xlink:href="#DejaVuSans-32"/>
      <use x="559.15625" xlink:href="#DejaVuSans-102"/>
      <use x="594.361328" xlink:href="#DejaVuSans-117"/>
      <use x="657.740234" xlink:href="#DejaVuSans-110"/>
      <use x="721.119141" xlink:href="#DejaVuSans-99"/>
      <use x="776.099609" xlink:href="#DejaVuSans-116"/>
      <use x="815.308594" xlink:href="#DejaVuSans-105"/>
      <use x="843.091797" xlink:href="#DejaVuSans-111"/>
      <use x="904.273438" xlink:href="#DejaVuSans-110"/>
      <use x="967.652344" xlink:href="#DejaVuSans-44"/>
      <use x="999.439453" xlink:href="#DejaVuSans-116"/>
      <use x="1038.648438" xlink:href="#DejaVuSans-97"/>
      <use x="1099.927734" xlink:href="#DejaVuSans-114"/>
      <use x="1139.291016" xlink:href="#DejaVuSans-103"/>
      <use x="1202.767578" xlink:href="#DejaVuSans-101"/>
      <use x="1264.291016" xlink:href="#DejaVuSans-116"/>
      <use x="1303.5" xlink:href="#DejaVuSans-32"/>
      <use x="1335.287109" xlink:href="#DejaVuSans-112"/>
      <use x="1398.763672" xlink:href="#DejaVuSans-97"/>
      <use x="1460.042969" xlink:href="#DejaVuSans-105"/>
      <use x="1487.826172" xlink:href="#DejaVuSans-114"/>
      <use x="1528.939453" xlink:href="#DejaVuSans-115"/>
     </g>
    </g>
   </g>
   <g id="line2d_29">
    <defs>
     <path d="M 0 1.5 
C 0.397805 1.5 0.77937 1.341951 1.06066 1.06066 
C 1.341951 0.77937 1.5 0.397805 1.5 0 
C 1.5 -0.397805 1.341951 -0.77937 1.06066 -1.06066 
C 0.77937 -1.341951 0.397805 -1.5 0 -1.5 
C -0.397805 -1.5 -0.77937 -1.341951 -1.06066 -1.06066 
C -1.341951 -0.77937 -1.5 -0.397805 -1.5 0 
C -1.5 0.397805 -1.341951 0.77937 -1.06066 1.06066 
C -0.77937 1.341951 -0.397805 1.5 0 1.5 
z
" id="m2e126dd5f2" style="stroke:#000080;"/>
    </defs>
    <g>
     <use style="fill:#000080;stroke:#000080;" x="306.295135" xlink:href="#m2e126dd5f2" y="212.896242"/>
     <use style="fill:#000080;stroke:#000080;" x="306.295135" xlink:href="#m2e126dd5f2" y="212.896242"/>
    </g>
   </g>
   <g id="line2d_30">
    <path d="M 124.594752 298.944 
L 124.594752 298.370348 
L 125.674001 298.370348 
L 125.674001 297.796697 
L 126.338353 297.796697 
L 126.439646 296.649393 
L 126.590491 296.649393 
L 126.590491 296.075741 
L 127.492935 296.075741 
L 127.492935 295.50209 
L 128.716709 295.50209 
L 128.716709 294.928438 
L 129.00969 294.928438 
L 129.089405 293.781135 
L 129.190335 293.781135 
L 129.190335 293.207483 
L 130.216266 293.207483 
L 130.216266 292.633831 
L 131.452406 292.633831 
L 131.452406 292.060179 
L 131.728032 292.060179 
L 131.728032 291.486528 
L 132.320701 291.486528 
L 132.320701 290.912876 
L 133.233532 290.912876 
L 133.233532 290.339224 
L 133.386783 290.339224 
L 133.392433 289.191921 
L 133.655948 289.191921 
L 133.655948 288.618269 
L 133.838618 288.618269 
L 133.838618 288.044617 
L 134.703375 288.044617 
L 134.703375 287.470966 
L 135.482227 287.470966 
L 135.482227 286.897314 
L 135.907958 286.897314 
L 135.907958 286.323662 
L 136.395027 286.323662 
L 136.395027 285.75001 
L 136.933536 285.75001 
L 136.933536 285.176359 
L 138.33297 285.176359 
L 138.439035 284.029055 
L 138.799052 284.029055 
L 138.799052 283.455404 
L 138.99271 283.455404 
L 138.99271 282.881752 
L 139.592804 282.881752 
L 139.592804 282.3081 
L 139.726893 282.3081 
L 139.726893 281.734448 
L 140.234098 281.734448 
L 140.234098 281.160797 
L 141.574123 281.160797 
L 141.574123 280.587145 
L 143.35632 280.587145 
L 143.35632 280.013493 
L 143.722546 280.013493 
L 143.722546 279.439842 
L 144.221461 279.439842 
L 144.221461 278.86619 
L 145.149647 278.86619 
L 145.149647 278.292538 
L 145.295847 278.292538 
L 145.327221 277.145235 
L 146.167227 277.145235 
L 146.229573 275.997931 
L 146.966032 275.997931 
L 146.98418 274.850628 
L 147.082371 274.850628 
L 147.082371 274.276976 
L 147.885564 274.276976 
L 147.885564 273.703324 
L 148.192893 273.703324 
L 148.192893 273.129673 
L 148.76371 273.129673 
L 148.76371 272.556021 
L 149.11121 272.556021 
L 149.145582 271.408718 
L 149.642076 271.408718 
L 149.706481 270.261414 
L 150.872533 270.261414 
L 150.872533 269.687762 
L 151.0643 269.687762 
L 151.068401 268.540459 
L 151.765704 268.540459 
L 151.765704 267.966807 
L 151.979109 267.966807 
L 151.979109 267.393156 
L 153.030634 267.393156 
L 153.030634 266.819504 
L 153.61434 266.819504 
L 153.690359 265.6722 
L 153.808151 265.6722 
L 153.808151 265.098549 
L 154.368504 265.098549 
L 154.368504 264.524897 
L 154.819061 264.524897 
L 154.819061 263.951245 
L 156.329173 263.951245 
L 156.329173 263.377593 
L 156.850501 263.377593 
L 156.850501 262.803942 
L 157.273583 262.803942 
L 157.273583 262.23029 
L 157.472107 262.23029 
L 157.472107 261.656638 
L 157.798506 261.656638 
L 157.798506 261.082987 
L 157.945626 261.082987 
L 157.945626 260.509335 
L 159.951391 260.509335 
L 159.951391 259.935683 
L 160.915928 259.935683 
L 160.915928 259.362031 
L 162.146679 259.362031 
L 162.146679 258.78838 
L 162.428972 258.78838 
L 162.428972 258.214728 
L 162.915887 258.214728 
L 162.915887 257.641076 
L 163.320657 257.641076 
L 163.320657 257.067425 
L 163.632656 257.067425 
L 163.632656 256.493773 
L 164.64602 256.493773 
L 164.64602 255.920121 
L 165.24003 255.920121 
L 165.24003 255.346469 
L 166.13282 255.346469 
L 166.144916 254.199166 
L 166.693273 254.199166 
L 166.780098 253.051863 
L 167.241951 253.051863 
L 167.241951 252.478211 
L 168.31527 252.478211 
L 168.31527 251.904559 
L 168.782533 251.904559 
L 168.807758 250.757256 
L 169.970616 250.757256 
L 169.970616 250.183604 
L 170.664731 250.183604 
L 170.664731 249.609952 
L 171.103055 249.609952 
L 171.103055 249.036301 
L 172.211004 249.036301 
L 172.211004 248.462649 
L 172.505541 248.462649 
L 172.505541 247.888997 
L 173.297506 247.888997 
L 173.297506 247.315345 
L 174.498781 247.315345 
L 174.498781 246.741694 
L 177.097262 246.741694 
L 177.097262 246.168042 
L 179.40399 246.168042 
L 179.40399 245.59439 
L 183.437251 245.59439 
L 183.437251 245.020738 
L 183.622109 245.020738 
L 183.622109 244.447087 
L 187.973437 244.447087 
L 187.973437 243.873435 
L 192.391059 243.873435 
L 192.391059 243.299783 
L 194.712774 243.299783 
L 194.712774 242.726132 
L 197.395223 242.726132 
L 197.395223 242.15248 
L 203.825949 242.15248 
L 203.825949 241.578828 
L 204.879205 241.578828 
L 204.879205 241.005176 
L 205.484561 241.005176 
L 205.484561 240.431525 
L 207.877955 240.431525 
L 207.877955 239.857873 
L 215.139909 239.857873 
L 215.139909 239.284221 
L 217.199237 239.284221 
L 217.199237 238.71057 
L 219.811809 238.71057 
L 219.811809 238.136918 
L 242.598553 238.136918 
L 242.613244 235.842311 
L 243.867629 235.842311 
L 243.867629 235.268659 
L 246.089452 235.268659 
L 246.089452 234.695008 
L 254.573575 234.695008 
L 254.593822 232.974052 
L 254.866294 232.974052 
L 254.866294 231.826749 
L 255.471642 231.826749 
L 255.471642 231.253097 
L 256.429097 231.253097 
L 256.429097 230.679446 
L 261.811385 230.679446 
L 261.884103 229.532142 
L 262.243161 229.532142 
L 262.243161 228.95849 
L 262.708093 228.95849 
L 262.708093 228.384839 
L 262.876089 228.384839 
L 262.876089 227.811187 
L 270.52359 227.811187 
L 270.52359 227.237535 
L 270.940501 227.237535 
L 270.940501 226.090232 
L 271.165073 226.090232 
L 271.165073 224.942928 
L 273.693428 224.942928 
L 273.772528 223.795625 
L 274.041735 223.795625 
L 274.041735 223.221973 
L 276.442609 223.221973 
L 276.500505 222.07467 
L 276.835792 222.07467 
L 276.835792 221.501018 
L 278.80835 221.501018 
L 278.80835 220.927366 
L 278.960302 220.927366 
L 278.960302 220.353715 
L 280.80106 220.353715 
L 280.80106 219.206411 
L 282.792457 219.206411 
L 282.792457 218.632759 
L 284.285137 218.632759 
L 284.285137 218.059108 
L 284.432981 218.059108 
L 284.432981 217.485456 
L 287.151111 217.485456 
L 287.151111 216.911804 
L 289.784084 216.911804 
L 289.860632 215.764501 
L 289.896176 215.764501 
L 289.896176 215.190849 
L 291.948106 215.190849 
L 291.948106 214.617197 
L 301.792316 214.617197 
L 301.792316 214.043546 
L 304.913111 214.043546 
L 304.913111 213.469894 
L 306.295135 213.469894 
L 306.295135 212.896242 
L 338.688 212.896242 
L 338.688 212.896242 
" style="fill:none;stroke:#000080;stroke-linecap:square;stroke-width:1.5;"/>
   </g>
   <g id="line2d_31">
    <defs>
     <path d="M 0 6 
C 1.591219 6 3.117479 5.367802 4.242641 4.242641 
C 5.367802 3.117479 6 1.591219 6 0 
C 6 -1.591219 5.367802 -3.117479 4.242641 -4.242641 
C 3.117479 -5.367802 1.591219 -6 0 -6 
C -1.591219 -6 -3.117479 -5.367802 -4.242641 -4.242641 
C -5.367802 -3.117479 -6 -1.591219 -6 0 
C -6 1.591219 -5.367802 3.117479 -4.242641 4.242641 
C -3.117479 5.367802 -1.591219 6 0 6 
z
" id="m0656e6a025" style="stroke:#000080;stroke-width:1.5;"/>
    </defs>
    <g>
     <use style="fill-opacity:0;stroke:#000080;stroke-width:1.5;" x="151.979109" xlink:href="#m0656e6a025" y="267.966807"/>
     <use style="fill-opacity:0;stroke:#000080;stroke-width:1.5;" x="217.199237" xlink:href="#m0656e6a025" y="239.284221"/>
     <use style="fill-opacity:0;stroke:#000080;stroke-width:1.5;" x="284.285137" xlink:href="#m0656e6a025" y="218.059108"/>
     <use style="fill-opacity:0;stroke:#000080;stroke-width:1.5;" x="306.295135" xlink:href="#m0656e6a025" y="212.896242"/>
     <use style="fill-opacity:0;stroke:#000080;stroke-width:1.5;" x="338.688" xlink:href="#m0656e6a025" y="212.896242"/>
    </g>
   </g>
   <g id="line2d_32">
    <path style="fill:none;stroke:#000080;stroke-linecap:square;stroke-width:1.5;"/>
    <g/>
   </g>
   <g id="line2d_33">
    <path clip-path="url(#p0e924d427d)" d="M 242.397757 238.136918 
" style="fill:none;stroke:#000080;stroke-linecap:square;stroke-width:1.5;"/>
    <defs>
     <path d="M -12 12 
L 12 -12 
M -12 -12 
L 12 12 
" id="m1fabe048c2" style="stroke:#000080;"/>
    </defs>
    <g clip-path="url(#p0e924d427d)">
     <use style="fill:#000080;stroke:#000080;" x="242.397757" xlink:href="#m1fabe048c2" y="238.136918"/>
    </g>
   </g>
   <g id="line2d_34">
    <defs>
     <path d="M 0 1.5 
C 0.397805 1.5 0.77937 1.341951 1.06066 1.06066 
C 1.341951 0.77937 1.5 0.397805 1.5 0 
C 1.5 -0.397805 1.341951 -0.77937 1.06066 -1.06066 
C 0.77937 -1.341951 0.397805 -1.5 0 -1.5 
C -0.397805 -1.5 -0.77937 -1.341951 -1.06066 -1.06066 
C -1.341951 -0.77937 -1.5 -0.397805 -1.5 0 
C -1.5 0.397805 -1.341951 0.77937 -1.06066 1.06066 
C -0.77937 1.341951 -0.397805 1.5 0 1.5 
z
" id="m92a01da4b0" style="stroke:#ff00ff;"/>
    </defs>
    <g>
     <use style="fill:#ff00ff;stroke:#ff00ff;" x="266.580332" xlink:href="#m92a01da4b0" y="281.734448"/>
     <use style="fill:#ff00ff;stroke:#ff00ff;" x="266.580332" xlink:href="#m92a01da4b0" y="281.734448"/>
    </g>
   </g>
   <g id="line2d_35">
    <path d="M 108.694644 298.944 
L 108.694644 298.370348 
L 109.646113 298.370348 
L 109.646113 297.796697 
L 110.231452 297.796697 
L 110.231452 297.223045 
L 110.839008 297.223045 
L 110.839008 296.649393 
L 111.74176 296.649393 
L 111.74176 296.075741 
L 112.356423 296.075741 
L 112.356423 295.50209 
L 112.858709 295.50209 
L 112.858709 294.928438 
L 113.04113 294.928438 
L 113.04113 294.354786 
L 113.400346 294.354786 
L 113.400346 293.781135 
L 114.351658 293.781135 
L 114.351658 293.207483 
L 114.865834 293.207483 
L 114.865834 292.633831 
L 115.205729 292.633831 
L 115.205729 292.060179 
L 117.40168 292.060179 
L 117.40168 291.486528 
L 117.709852 291.486528 
L 117.709852 290.912876 
L 118.012672 290.912876 
L 118.012672 290.339224 
L 119.78857 290.339224 
L 119.78857 289.765573 
L 120.417953 289.765573 
L 120.417953 289.191921 
L 120.47729 289.191921 
L 120.47729 288.618269 
L 120.689249 288.618269 
L 120.689249 288.044617 
L 122.340747 288.044617 
L 122.340747 287.470966 
L 122.520808 287.470966 
L 122.520808 286.897314 
L 122.678156 286.897314 
L 122.678156 286.323662 
L 123.374182 286.323662 
L 123.374182 285.75001 
L 124.130182 285.75001 
L 124.130182 285.176359 
L 125.083692 285.176359 
L 125.083692 284.602707 
L 129.161557 284.602707 
L 129.161557 284.029055 
L 254.493455 284.029055 
L 254.493455 283.455404 
L 254.495606 283.455404 
L 254.495606 282.881752 
L 266.578679 282.881752 
L 266.578679 282.3081 
L 266.580332 282.3081 
L 266.580332 281.734448 
L 338.688 281.734448 
" style="fill:none;stroke:#ff00ff;stroke-linecap:square;stroke-width:1.5;"/>
   </g>
   <g id="line2d_36">
    <defs>
     <path d="M -0 8.485281 
L 5.091169 0 
L 0 -8.485281 
L -5.091169 -0 
z
" id="m11edf8241c" style="stroke:#ff00ff;stroke-linejoin:miter;stroke-width:1.5;"/>
    </defs>
    <g>
     <use style="fill-opacity:0;stroke:#ff00ff;stroke-linejoin:miter;stroke-width:1.5;" x="129.161557" xlink:href="#m11edf8241c" y="284.602707"/>
     <use style="fill-opacity:0;stroke:#ff00ff;stroke-linejoin:miter;stroke-width:1.5;" x="129.161557" xlink:href="#m11edf8241c" y="284.029055"/>
     <use style="fill-opacity:0;stroke:#ff00ff;stroke-linejoin:miter;stroke-width:1.5;" x="266.580332" xlink:href="#m11edf8241c" y="282.3081"/>
     <use style="fill-opacity:0;stroke:#ff00ff;stroke-linejoin:miter;stroke-width:1.5;" x="266.580332" xlink:href="#m11edf8241c" y="281.734448"/>
     <use style="fill-opacity:0;stroke:#ff00ff;stroke-linejoin:miter;stroke-width:1.5;" x="338.688" xlink:href="#m11edf8241c" y="281.734448"/>
    </g>
   </g>
   <g id="line2d_37">
    <path style="fill:none;stroke:#ff00ff;stroke-linecap:square;stroke-width:1.5;"/>
    <g/>
   </g>
   <g id="line2d_38">
    <path clip-path="url(#p0e924d427d)" d="M 242.397757 284.029055 
" style="fill:none;stroke:#ff00ff;stroke-linecap:square;stroke-width:1.5;"/>
    <defs>
     <path d="M -12 12 
L 12 -12 
M -12 -12 
L 12 12 
" id="m61d0985983" style="stroke:#ff00ff;"/>
    </defs>
    <g clip-path="url(#p0e924d427d)">
     <use style="fill:#ff00ff;stroke:#ff00ff;" x="242.397757" xlink:href="#m61d0985983" y="284.029055"/>
    </g>
   </g>
   <g id="line2d_39">
    <defs>
     <path d="M 0 1.5 
C 0.397805 1.5 0.77937 1.341951 1.06066 1.06066 
C 1.341951 0.77937 1.5 0.397805 1.5 0 
C 1.5 -0.397805 1.341951 -0.77937 1.06066 -1.06066 
C 0.77937 -1.341951 0.397805 -1.5 0 -1.5 
C -0.397805 -1.5 -0.77937 -1.341951 -1.06066 -1.06066 
C -1.341951 -0.77937 -1.5 -0.397805 -1.5 0 
C -1.5 0.397805 -1.341951 0.77937 -1.06066 1.06066 
C -0.77937 1.341951 -0.397805 1.5 0 1.5 
z
" id="m0fb5d3757a" style="stroke:#ff7500;"/>
    </defs>
    <g>
     <use style="fill:#ff7500;stroke:#ff7500;" x="200.404851" xlink:href="#m0fb5d3757a" y="6.381624"/>
     <use style="fill:#ff7500;stroke:#ff7500;" x="200.404851" xlink:href="#m0fb5d3757a" y="6.381624"/>
    </g>
   </g>
   <g id="line2d_40">
    <path d="M 122.072527 298.944 
L 122.072527 298.370348 
L 123.484209 298.370348 
L 123.484209 297.796697 
L 124.033832 297.796697 
L 124.033832 297.223045 
L 125.300669 297.223045 
L 125.300669 296.649393 
L 127.140776 296.649393 
L 127.140776 296.075741 
L 127.61925 296.075741 
L 127.61925 295.50209 
L 129.440135 295.50209 
L 129.546106 294.354786 
L 130.511968 294.354786 
L 130.511968 293.781135 
L 130.978796 293.781135 
L 130.978796 293.207483 
L 131.515432 293.207483 
L 131.515432 292.633831 
L 131.882719 292.633831 
L 131.882719 292.060179 
L 133.59463 292.060179 
L 133.59463 291.486528 
L 133.899085 291.486528 
L 133.899085 290.912876 
L 137.144368 290.912876 
L 137.144368 290.339224 
L 138.728473 290.339224 
L 138.728473 289.765573 
L 142.260143 289.765573 
L 142.260143 289.191921 
L 144.891541 289.191921 
L 144.891541 288.618269 
L 146.633446 288.618269 
L 146.633446 288.044617 
L 148.088619 288.044617 
L 148.088619 287.470966 
L 150.009742 287.470966 
L 150.009742 286.897314 
L 152.426713 286.897314 
L 152.426713 286.323662 
L 152.861266 286.323662 
L 152.861266 285.75001 
L 156.323107 285.75001 
L 156.323107 285.176359 
L 162.225793 285.176359 
L 162.225793 284.602707 
L 171.284097 284.602707 
L 171.284097 284.029055 
L 171.71045 284.029055 
L 171.71045 283.455404 
L 172.839957 283.455404 
L 172.839957 282.881752 
L 173.270549 282.881752 
L 173.270549 282.3081 
L 173.567059 282.3081 
L 173.567059 281.734448 
L 173.938341 281.734448 
L 173.938341 281.160797 
L 174.092884 281.160797 
L 174.092884 280.587145 
L 174.267766 280.587145 
L 174.267766 280.013493 
L 174.513219 280.013493 
L 174.611823 278.86619 
L 175.036584 278.86619 
L 175.036584 278.292538 
L 175.328236 278.292538 
L 175.34608 277.145235 
L 175.694191 277.145235 
L 175.694191 276.571583 
L 175.846374 276.571583 
L 175.953004 274.850628 
L 176.246789 274.850628 
L 176.276766 273.703324 
L 179.361945 273.703324 
L 179.361945 273.129673 
L 179.755753 273.129673 
L 179.755753 272.556021 
L 180.05472 272.556021 
L 180.126924 271.408718 
L 180.240447 271.408718 
L 180.240447 270.835066 
L 180.523336 270.835066 
L 180.523336 270.261414 
L 180.642217 270.261414 
L 180.726638 269.114111 
L 180.969357 269.114111 
L 181.043026 267.393156 
L 181.179593 267.393156 
L 181.244026 266.245852 
L 181.458535 266.245852 
L 181.501909 265.098549 
L 181.62037 265.098549 
L 181.666891 263.377593 
L 181.765207 263.377593 
L 181.775078 262.23029 
L 181.878745 262.23029 
L 181.981102 260.509335 
L 182.022503 260.509335 
L 182.0974 258.214728 
L 182.150258 258.214728 
L 182.22358 257.067425 
L 182.30275 257.067425 
L 182.32872 255.920121 
L 182.58967 255.920121 
L 182.624953 254.772818 
L 182.786677 254.772818 
L 182.786677 254.199166 
L 183.004491 254.199166 
L 183.004491 253.625514 
L 183.171209 253.625514 
L 183.171209 253.051863 
L 183.34086 253.051863 
L 183.34086 252.478211 
L 183.536617 252.478211 
L 183.536617 251.904559 
L 183.727364 251.904559 
L 183.727364 251.330907 
L 183.90139 251.330907 
L 183.90139 250.757256 
L 184.118743 250.757256 
L 184.118743 250.183604 
L 185.225152 250.183604 
L 185.225152 249.609952 
L 185.505431 249.609952 
L 185.505431 249.036301 
L 185.69563 249.036301 
L 185.69563 248.462649 
L 185.817094 248.462649 
L 185.817094 247.888997 
L 186.002836 247.888997 
L 186.084788 246.741694 
L 186.115043 246.741694 
L 186.210961 245.020738 
L 186.264173 245.020738 
L 186.329443 243.873435 
L 186.385002 243.873435 
L 186.385002 243.299783 
L 186.499086 243.299783 
L 186.562145 242.15248 
L 186.619104 242.15248 
L 186.674547 241.005176 
L 186.776708 241.005176 
L 186.776708 240.431525 
L 186.901143 240.431525 
L 186.958579 237.563266 
L 187.015043 237.563266 
L 187.102774 236.415963 
L 187.160585 236.415963 
L 187.230841 234.695008 
L 187.458766 234.695008 
L 187.55847 232.974052 
L 187.775935 232.974052 
L 187.840524 231.826749 
L 188.366446 231.826749 
L 188.366446 231.253097 
L 188.483913 231.253097 
L 188.584621 230.105794 
L 188.643674 230.105794 
L 188.717447 228.384839 
L 188.758351 228.384839 
L 188.8488 226.663884 
L 188.885177 226.663884 
L 188.952567 224.942928 
L 189.011088 224.942928 
L 189.117599 223.795625 
L 189.158037 223.795625 
L 189.240241 222.07467 
L 189.306733 222.07467 
L 189.405543 220.927366 
L 189.56298 220.927366 
L 189.617243 219.780063 
L 189.676716 219.780063 
L 189.759639 218.632759 
L 189.800396 218.632759 
L 189.800396 218.059108 
L 189.936013 218.059108 
L 189.973057 216.911804 
L 191.158304 216.911804 
L 191.158304 216.338153 
L 192.068641 216.338153 
L 192.068641 215.764501 
L 192.210457 215.764501 
L 192.299353 214.617197 
L 192.443137 214.617197 
L 192.482666 212.896242 
L 192.689914 212.896242 
L 192.689914 212.322591 
L 192.934178 212.322591 
L 192.934178 211.748939 
L 193.303468 211.748939 
L 193.303468 211.175287 
L 193.441765 211.175287 
L 193.441765 210.601635 
L 193.60922 210.601635 
L 193.60922 210.027984 
L 193.722576 210.027984 
L 193.722576 209.454332 
L 193.945347 209.454332 
L 194.028289 208.307029 
L 194.106842 208.307029 
L 194.176909 207.159725 
L 194.22358 207.159725 
L 194.22358 206.586073 
L 194.355653 206.586073 
L 194.455419 204.865118 
L 194.524951 204.865118 
L 194.603836 201.99686 
L 194.659148 201.99686 
L 194.717473 200.275904 
L 194.830207 200.275904 
L 194.938573 196.833994 
L 194.974821 196.833994 
L 195.082787 194.539387 
L 195.127098 194.539387 
L 195.234129 192.24478 
L 195.26489 192.24478 
L 195.351998 191.097477 
L 195.614089 191.097477 
L 195.681223 189.376522 
L 195.923892 189.376522 
L 196.030359 187.655567 
L 196.196868 187.655567 
L 196.282368 185.36096 
L 196.528217 185.36096 
L 196.606994 182.492701 
L 196.64114 182.492701 
L 196.723747 180.771746 
L 196.83705 180.771746 
L 196.90912 179.050791 
L 196.977945 179.050791 
L 197.08683 177.903487 
L 197.103814 177.903487 
L 197.201444 176.182532 
L 197.324705 176.182532 
L 197.412629 173.314274 
L 197.443082 173.314274 
L 197.540834 169.298712 
L 197.630944 169.298712 
L 197.700237 166.430453 
L 197.767425 166.430453 
L 197.864642 164.135846 
L 197.880186 164.135846 
L 197.903126 161.267588 
L 198.041662 161.267588 
L 198.147156 156.678374 
L 198.182271 156.678374 
L 198.293073 152.08916 
L 198.299223 152.08916 
L 198.391081 146.352643 
L 198.414853 146.352643 
L 198.51758 140.042474 
L 198.526754 140.042474 
L 198.626144 134.879609 
L 198.640488 134.879609 
L 198.748958 125.701181 
L 198.766527 125.701181 
L 198.872764 117.670057 
L 198.887567 117.670057 
L 198.991627 109.638933 
L 199.005673 109.638933 
L 199.112163 101.607809 
L 199.117119 101.607809 
L 199.225653 91.282078 
L 199.246891 91.282078 
L 199.340212 82.677302 
L 199.361311 82.677302 
L 199.467063 71.77792 
L 199.48418 71.77792 
L 199.592872 59.157582 
L 199.596678 59.157582 
L 199.705682 47.110896 
L 199.716015 47.110896 
L 199.826907 38.50612 
L 199.834542 38.50612 
L 199.943068 28.754041 
L 199.954381 28.754041 
L 200.063896 20.722917 
L 200.07513 20.722917 
L 200.181316 12.691793 
L 200.208282 12.691793 
L 200.313419 8.102579 
L 200.334103 8.102579 
L 200.404851 6.381624 
L 338.688 6.381624 
L 338.688 6.381624 
" style="fill:none;stroke:#ff7500;stroke-linecap:square;stroke-width:1.5;"/>
   </g>
   <g id="line2d_41">
    <defs>
     <path d="M 0 -6 
L -1.347084 -1.854102 
L -5.706339 -1.854102 
L -2.179628 0.708204 
L -3.526712 4.854102 
L -0 2.291796 
L 3.526712 4.854102 
L 2.179628 0.708204 
L 5.706339 -1.854102 
L 1.347084 -1.854102 
z
" id="m777ca25f1f" style="stroke:#ff7500;stroke-linejoin:bevel;stroke-width:1.5;"/>
    </defs>
    <g>
     <use style="fill-opacity:0;stroke:#ff7500;stroke-linejoin:bevel;stroke-width:1.5;" x="198.108655" xlink:href="#m777ca25f1f" y="158.399329"/>
     <use style="fill-opacity:0;stroke:#ff7500;stroke-linejoin:bevel;stroke-width:1.5;" x="200.269536" xlink:href="#m777ca25f1f" y="10.970838"/>
     <use style="fill-opacity:0;stroke:#ff7500;stroke-linejoin:bevel;stroke-width:1.5;" x="200.404851" xlink:href="#m777ca25f1f" y="6.381624"/>
     <use style="fill-opacity:0;stroke:#ff7500;stroke-linejoin:bevel;stroke-width:1.5;" x="200.404851" xlink:href="#m777ca25f1f" y="6.381624"/>
     <use style="fill-opacity:0;stroke:#ff7500;stroke-linejoin:bevel;stroke-width:1.5;" x="338.688" xlink:href="#m777ca25f1f" y="6.381624"/>
    </g>
   </g>
   <g id="line2d_42">
    <path style="fill:none;stroke:#ff7500;stroke-linecap:square;stroke-width:1.5;"/>
    <g/>
   </g>
   <g id="line2d_43">
    <defs>
     <path d="M 0 1.5 
C 0.397805 1.5 0.77937 1.341951 1.06066 1.06066 
C 1.341951 0.77937 1.5 0.397805 1.5 0 
C 1.5 -0.397805 1.341951 -0.77937 1.06066 -1.06066 
C 0.77937 -1.341951 0.397805 -1.5 0 -1.5 
C -0.397805 -1.5 -0.77937 -1.341951 -1.06066 -1.06066 
C -1.341951 -0.77937 -1.5 -0.397805 -1.5 0 
C -1.5 0.397805 -1.341951 0.77937 -1.06066 1.06066 
C -0.77937 1.341951 -0.397805 1.5 0 1.5 
z
" id="m62ce92e124" style="stroke:#6495ed;"/>
    </defs>
    <g>
     <use style="fill:#6495ed;stroke:#6495ed;" x="200.690608" xlink:href="#m62ce92e124" y="6.381624"/>
     <use style="fill:#6495ed;stroke:#6495ed;" x="200.690608" xlink:href="#m62ce92e124" y="6.381624"/>
    </g>
   </g>
   <g id="line2d_44">
    <path d="M 106.435663 298.944 
L 106.435663 298.370348 
L 107.414787 298.370348 
L 107.414787 297.796697 
L 108.97183 297.796697 
L 108.97183 297.223045 
L 109.37952 297.223045 
L 109.37952 296.649393 
L 111.023335 296.649393 
L 111.023335 296.075741 
L 111.24601 296.075741 
L 111.24601 295.50209 
L 112.032583 295.50209 
L 112.032583 294.928438 
L 112.766778 294.928438 
L 112.766778 294.354786 
L 113.541985 294.354786 
L 113.541985 293.781135 
L 113.73488 293.781135 
L 113.73488 293.207483 
L 114.519183 293.207483 
L 114.519183 292.633831 
L 116.487812 292.633831 
L 116.487812 292.060179 
L 116.783149 292.060179 
L 116.783149 291.486528 
L 117.288253 291.486528 
L 117.288253 290.912876 
L 118.323734 290.912876 
L 118.323734 290.339224 
L 119.440021 290.339224 
L 119.440021 289.765573 
L 120.524615 289.765573 
L 120.524615 289.191921 
L 120.990934 289.191921 
L 121.059819 288.044617 
L 121.422678 288.044617 
L 121.422678 287.470966 
L 122.844443 287.470966 
L 122.844443 286.897314 
L 126.715207 286.897314 
L 126.715207 286.323662 
L 129.510854 286.323662 
L 129.510854 285.75001 
L 133.661511 285.75001 
L 133.661511 285.176359 
L 143.385011 285.176359 
L 143.385011 284.602707 
L 149.11809 284.602707 
L 149.11809 284.029055 
L 163.383505 284.029055 
L 163.403731 282.881752 
L 163.666539 282.881752 
L 163.666539 282.3081 
L 163.903852 282.3081 
L 163.903852 281.734448 
L 164.488129 281.734448 
L 164.488129 281.160797 
L 166.469214 281.160797 
L 166.469214 280.587145 
L 167.189155 280.587145 
L 167.189155 280.013493 
L 168.013737 280.013493 
L 168.013737 279.439842 
L 168.375412 279.439842 
L 168.375412 278.86619 
L 168.785502 278.86619 
L 168.785502 278.292538 
L 169.126581 278.292538 
L 169.126581 277.718886 
L 169.275895 277.718886 
L 169.275895 277.145235 
L 169.41034 277.145235 
L 169.41034 276.571583 
L 169.955351 276.571583 
L 169.955351 275.997931 
L 170.248583 275.997931 
L 170.248583 275.42428 
L 170.565811 275.42428 
L 170.565811 274.850628 
L 170.696027 274.850628 
L 170.696027 274.276976 
L 171.339968 274.276976 
L 171.339968 273.703324 
L 172.178036 273.703324 
L 172.239647 272.556021 
L 172.45449 272.556021 
L 172.45449 271.982369 
L 172.723669 271.982369 
L 172.723669 271.408718 
L 173.147283 271.408718 
L 173.147283 270.835066 
L 173.565366 270.835066 
L 173.565366 270.261414 
L 173.79913 270.261414 
L 173.79913 269.687762 
L 174.027604 269.687762 
L 174.027604 269.114111 
L 174.273186 269.114111 
L 174.273186 268.540459 
L 174.461295 268.540459 
L 174.461295 267.966807 
L 174.677604 267.966807 
L 174.677604 267.393156 
L 174.872946 267.393156 
L 174.872946 266.819504 
L 175.306798 266.819504 
L 175.306798 266.245852 
L 175.574399 266.245852 
L 175.574399 265.6722 
L 176.109297 265.6722 
L 176.109297 265.098549 
L 176.311997 265.098549 
L 176.311997 264.524897 
L 176.536182 264.524897 
L 176.536182 263.951245 
L 176.675557 263.951245 
L 176.675557 263.377593 
L 176.836765 263.377593 
L 176.875552 262.23029 
L 176.995106 262.23029 
L 176.995106 261.656638 
L 177.115688 261.656638 
L 177.226752 260.509335 
L 177.296151 260.509335 
L 177.296151 259.935683 
L 177.435935 259.935683 
L 177.435935 259.362031 
L 177.762833 259.362031 
L 177.865895 258.214728 
L 177.945977 258.214728 
L 177.945977 257.641076 
L 178.127651 257.641076 
L 178.213893 256.493773 
L 178.318199 256.493773 
L 178.400085 255.346469 
L 178.63038 255.346469 
L 178.690637 254.199166 
L 178.774146 254.199166 
L 178.85309 253.051863 
L 178.974358 253.051863 
L 178.974358 252.478211 
L 179.088211 252.478211 
L 179.088211 251.904559 
L 179.281617 251.904559 
L 179.281617 251.330907 
L 179.46566 251.330907 
L 179.46566 250.757256 
L 179.734371 250.757256 
L 179.734371 250.183604 
L 180.440206 250.183604 
L 180.520307 249.036301 
L 180.616999 249.036301 
L 180.665144 247.888997 
L 180.795 247.888997 
L 180.875718 246.741694 
L 181.063598 246.741694 
L 181.164269 245.59439 
L 181.389847 245.59439 
L 181.389847 245.020738 
L 181.667955 245.020738 
L 181.752153 243.873435 
L 181.913047 243.873435 
L 181.966466 242.15248 
L 182.07143 242.15248 
L 182.147844 241.005176 
L 182.214646 241.005176 
L 182.288725 239.857873 
L 182.344419 239.857873 
L 182.455277 238.71057 
L 182.522265 238.71057 
L 182.601775 236.989614 
L 182.65916 236.989614 
L 182.65916 236.415963 
L 182.828202 236.415963 
L 182.828202 235.842311 
L 183.180317 235.842311 
L 183.180317 235.268659 
L 184.419949 235.268659 
L 184.419949 234.695008 
L 184.803364 234.695008 
L 184.803364 234.121356 
L 185.128293 234.121356 
L 185.17534 232.400401 
L 185.573881 232.400401 
L 185.573881 231.826749 
L 185.990662 231.826749 
L 185.990662 231.253097 
L 186.344638 231.253097 
L 186.344638 230.679446 
L 186.579547 230.679446 
L 186.579547 230.105794 
L 187.009039 230.105794 
L 187.009039 229.532142 
L 187.18102 229.532142 
L 187.18102 228.95849 
L 187.340566 228.95849 
L 187.439418 227.237535 
L 187.566311 227.237535 
L 187.596123 226.090232 
L 187.720632 226.090232 
L 187.760188 224.942928 
L 187.941541 224.942928 
L 188.043207 223.221973 
L 188.125192 223.221973 
L 188.125192 222.648321 
L 188.272724 222.648321 
L 188.329211 221.501018 
L 188.384068 221.501018 
L 188.465431 219.780063 
L 188.530392 219.780063 
L 188.632022 218.059108 
L 188.698974 218.059108 
L 188.720051 216.338153 
L 188.841986 216.338153 
L 188.872512 215.190849 
L 189.074516 215.190849 
L 189.149495 213.469894 
L 189.200223 213.469894 
L 189.254707 212.322591 
L 189.424875 212.322591 
L 189.424875 211.748939 
L 190.15144 211.748939 
L 190.170834 210.601635 
L 190.608911 210.601635 
L 190.608911 210.027984 
L 190.759686 210.027984 
L 190.759686 209.454332 
L 191.031279 209.454332 
L 191.031279 208.88068 
L 191.280529 208.88068 
L 191.280529 208.307029 
L 191.693312 208.307029 
L 191.794007 207.159725 
L 191.92645 207.159725 
L 191.92645 206.586073 
L 192.089529 206.586073 
L 192.106299 205.43877 
L 192.257474 205.43877 
L 192.257474 204.865118 
L 192.435297 204.865118 
L 192.518109 203.717815 
L 192.585745 203.717815 
L 192.668602 202.570511 
L 192.815375 202.570511 
L 192.815375 201.99686 
L 192.975021 201.99686 
L 193.021504 200.275904 
L 193.105818 200.275904 
L 193.213156 197.981298 
L 193.383535 197.981298 
L 193.481439 196.260342 
L 193.528568 196.260342 
L 193.618159 195.113039 
L 193.669911 195.113039 
L 193.744592 193.392084 
L 193.781458 193.392084 
L 193.891065 191.671129 
L 194.033875 191.671129 
L 194.07118 190.523825 
L 194.28269 190.523825 
L 194.28269 189.950174 
L 194.504239 189.950174 
L 194.560375 188.80287 
L 194.682031 188.80287 
L 194.755355 187.081915 
L 194.912208 187.081915 
L 194.961754 185.934612 
L 195.170807 185.934612 
L 195.250574 184.213656 
L 195.324469 184.213656 
L 195.372374 183.066353 
L 195.542854 183.066353 
L 195.644665 180.771746 
L 195.701853 180.771746 
L 195.759802 178.477139 
L 195.826536 178.477139 
L 195.935945 176.756184 
L 195.947833 176.756184 
L 196.053844 174.461577 
L 196.063633 174.461577 
L 196.118226 172.740622 
L 196.18268 172.740622 
L 196.253044 171.019667 
L 196.294943 171.019667 
L 196.392774 168.151408 
L 196.452426 168.151408 
L 196.54666 165.28315 
L 196.569612 165.28315 
L 196.660065 162.988543 
L 196.716716 162.988543 
L 196.81043 158.972981 
L 196.842695 158.972981 
L 196.925686 156.104722 
L 196.97824 156.104722 
L 197.085805 152.662812 
L 197.108058 152.662812 
L 197.189216 149.220902 
L 197.222823 149.220902 
L 197.319068 143.484384 
L 197.349974 143.484384 
L 197.453269 138.895171 
L 197.46216 138.895171 
L 197.571493 133.158653 
L 197.598399 133.158653 
L 197.677595 129.143091 
L 197.715787 129.143091 
L 197.801203 124.553878 
L 197.832811 124.553878 
L 197.941246 118.243709 
L 197.97455 118.243709 
L 198.07782 108.49163 
L 198.095941 108.49163 
L 198.201382 103.328764 
L 198.213059 103.328764 
L 198.309605 95.871292 
L 198.337443 95.871292 
L 198.43805 91.282078 
L 198.457289 91.282078 
L 198.557748 85.545561 
L 198.575242 85.545561 
L 198.677834 78.088089 
L 198.692804 78.088089 
L 198.792051 72.351571 
L 198.81316 72.351571 
L 198.922147 64.320447 
L 198.939543 64.320447 
L 199.049447 56.289323 
L 199.06397 56.289323 
L 199.173875 50.552806 
L 199.200627 50.552806 
L 199.307742 45.389941 
L 199.32115 45.389941 
L 199.422405 41.94803 
L 199.453768 41.94803 
L 199.564047 33.916906 
L 199.579672 33.916906 
L 199.676537 28.754041 
L 199.739685 28.754041 
L 199.834667 24.738479 
L 199.853552 24.738479 
L 199.96196 21.296568 
L 199.98443 21.296568 
L 200.094866 16.707355 
L 200.098934 16.707355 
L 200.165853 14.9864 
L 200.212691 14.9864 
L 200.295148 13.265444 
L 200.331792 13.265444 
L 200.392736 10.970838 
L 200.463127 10.970838 
L 200.558942 8.676231 
L 200.576819 8.676231 
L 200.612637 6.955275 
L 200.690608 6.955275 
L 200.690608 6.381624 
L 338.688 6.381624 
L 338.688 6.381624 
" style="fill:none;stroke:#6495ed;stroke-linecap:square;stroke-width:1.5;"/>
   </g>
   <g id="line2d_45">
    <defs>
     <path d="M -0 6 
L 6 -6 
L -6 -6 
z
" id="m14dda62a87" style="stroke:#6495ed;stroke-linejoin:miter;stroke-width:1.5;"/>
    </defs>
    <g>
     <use style="fill-opacity:0;stroke:#6495ed;stroke-linejoin:miter;stroke-width:1.5;" x="184.419949" xlink:href="#m14dda62a87" y="234.695008"/>
     <use style="fill-opacity:0;stroke:#6495ed;stroke-linejoin:miter;stroke-width:1.5;" x="200.212691" xlink:href="#m14dda62a87" y="14.412748"/>
     <use style="fill-opacity:0;stroke:#6495ed;stroke-linejoin:miter;stroke-width:1.5;" x="200.690608" xlink:href="#m14dda62a87" y="6.381624"/>
     <use style="fill-opacity:0;stroke:#6495ed;stroke-linejoin:miter;stroke-width:1.5;" x="200.690608" xlink:href="#m14dda62a87" y="6.381624"/>
     <use style="fill-opacity:0;stroke:#6495ed;stroke-linejoin:miter;stroke-width:1.5;" x="338.688" xlink:href="#m14dda62a87" y="6.381624"/>
    </g>
   </g>
   <g id="line2d_46">
    <path style="fill:none;stroke:#6495ed;stroke-linecap:square;stroke-width:1.5;"/>
    <g/>
   </g>
   <g id="line2d_47">
    <path d="M 338.688 281.734448 
L 369.60768 293.092752 
" style="fill:none;stroke:#ff00ff;stroke-linecap:square;stroke-width:1.5;"/>
    <g>
     <use style="fill-opacity:0;stroke:#ff00ff;stroke-linejoin:miter;stroke-width:1.5;" x="338.688" xlink:href="#m11edf8241c" y="281.734448"/>
     <use style="fill-opacity:0;stroke:#ff00ff;stroke-linejoin:miter;stroke-width:1.5;" x="369.60768" xlink:href="#m11edf8241c" y="293.092752"/>
    </g>
   </g>
   <g id="line2d_48">
    <path d="M 338.688 212.896242 
L 369.60768 199.472792 
" style="fill:none;stroke:#000080;stroke-linecap:square;stroke-width:1.5;"/>
    <g>
     <use style="fill-opacity:0;stroke:#000080;stroke-width:1.5;" x="338.688" xlink:href="#m0656e6a025" y="212.896242"/>
     <use style="fill-opacity:0;stroke:#000080;stroke-width:1.5;" x="369.60768" xlink:href="#m0656e6a025" y="199.472792"/>
    </g>
   </g>
   <g id="line2d_49">
    <path d="M 338.688 6.381624 
L 369.60768 105.852832 
" style="fill:none;stroke:#6495ed;stroke-linecap:square;stroke-width:1.5;"/>
    <g>
     <use style="fill-opacity:0;stroke:#6495ed;stroke-linejoin:miter;stroke-width:1.5;" x="338.688" xlink:href="#m14dda62a87" y="6.381624"/>
     <use style="fill-opacity:0;stroke:#6495ed;stroke-linejoin:miter;stroke-width:1.5;" x="369.60768" xlink:href="#m14dda62a87" y="105.852832"/>
    </g>
   </g>
   <g id="line2d_50">
    <path d="M 338.688 6.381624 
L 369.60768 12.232871 
" style="fill:none;stroke:#ff7500;stroke-linecap:square;stroke-width:1.5;"/>
    <g>
     <use style="fill-opacity:0;stroke:#ff7500;stroke-linejoin:bevel;stroke-width:1.5;" x="338.688" xlink:href="#m777ca25f1f" y="6.381624"/>
     <use style="fill-opacity:0;stroke:#ff7500;stroke-linejoin:bevel;stroke-width:1.5;" x="369.60768" xlink:href="#m777ca25f1f" y="12.232871"/>
    </g>
   </g>
   <g id="line2d_51">
    <path d="M 338.688 298.944 
L 338.688 6.381624 
" style="fill:none;stroke:#000000;stroke-linecap:square;stroke-width:1.5;"/>
   </g>
   <g id="patch_3">
    <path d="M 57.6 298.944 
L 57.6 3.456 
" style="fill:none;stroke:#000000;stroke-linecap:square;stroke-linejoin:miter;stroke-width:0.8;"/>
   </g>
   <g id="patch_4">
    <path d="M 338.688 298.944 
L 338.688 3.456 
" style="fill:none;stroke:#000000;stroke-linecap:square;stroke-linejoin:miter;stroke-width:0.8;"/>
   </g>
   <g id="patch_5">
    <path d="M 57.6 298.944 
L 338.688 298.944 
" style="fill:none;stroke:#000000;stroke-linecap:square;stroke-linejoin:miter;stroke-width:0.8;"/>
   </g>
   <g id="patch_6">
    <path d="M 57.6 3.456 
L 338.688 3.456 
" style="fill:none;stroke:#000000;stroke-linecap:square;stroke-linejoin:miter;stroke-width:0.8;"/>
   </g>
   <g id="text_13">
    <!-- f7 -->
    <g transform="translate(375.22944 297.78369)scale(0.17 -0.17)">
     <defs>
      <path d="M 8.203125 72.90625 
L 55.078125 72.90625 
L 55.078125 68.703125 
L 28.609375 0 
L 18.3125 0 
L 43.21875 64.59375 
L 8.203125 64.59375 
z
" id="DejaVuSans-55"/>
     </defs>
     <use xlink:href="#DejaVuSans-102"/>
     <use x="35.205078" xlink:href="#DejaVuSans-55"/>
    </g>
   </g>
   <g id="text_14">
    <!-- f6 -->
    <g transform="translate(375.22944 204.16373)scale(0.17 -0.17)">
     <use xlink:href="#DejaVuSans-102"/>
     <use x="35.205078" xlink:href="#DejaVuSans-54"/>
    </g>
   </g>
   <g id="text_15">
    <!-- f9 -->
    <g transform="translate(375.22944 110.543769)scale(0.17 -0.17)">
     <defs>
      <path d="M 10.984375 1.515625 
L 10.984375 10.5 
Q 14.703125 8.734375 18.5 7.8125 
Q 22.3125 6.890625 25.984375 6.890625 
Q 35.75 6.890625 40.890625 13.453125 
Q 46.046875 20.015625 46.78125 33.40625 
Q 43.953125 29.203125 39.59375 26.953125 
Q 35.25 24.703125 29.984375 24.703125 
Q 19.046875 24.703125 12.671875 31.3125 
Q 6.296875 37.9375 6.296875 49.421875 
Q 6.296875 60.640625 12.9375 67.421875 
Q 19.578125 74.21875 30.609375 74.21875 
Q 43.265625 74.21875 49.921875 64.515625 
Q 56.59375 54.828125 56.59375 36.375 
Q 56.59375 19.140625 48.40625 8.859375 
Q 40.234375 -1.421875 26.421875 -1.421875 
Q 22.703125 -1.421875 18.890625 -0.6875 
Q 15.09375 0.046875 10.984375 1.515625 
z
M 30.609375 32.421875 
Q 37.25 32.421875 41.125 36.953125 
Q 45.015625 41.5 45.015625 49.421875 
Q 45.015625 57.28125 41.125 61.84375 
Q 37.25 66.40625 30.609375 66.40625 
Q 23.96875 66.40625 20.09375 61.84375 
Q 16.21875 57.28125 16.21875 49.421875 
Q 16.21875 41.5 20.09375 36.953125 
Q 23.96875 32.421875 30.609375 32.421875 
z
" id="DejaVuSans-57"/>
     </defs>
     <use xlink:href="#DejaVuSans-102"/>
     <use x="35.205078" xlink:href="#DejaVuSans-57"/>
    </g>
   </g>
   <g id="text_16">
    <!-- f8 -->
    <g transform="translate(375.22944 16.923809)scale(0.17 -0.17)">
     <use xlink:href="#DejaVuSans-102"/>
     <use x="35.205078" xlink:href="#DejaVuSans-56"/>
    </g>
   </g>
   <g id="text_17">
    <!-- bbob -->
    <g transform="translate(60.41088 14.161286)scale(0.102 -0.102)">
     <defs>
      <path d="M 48.6875 27.296875 
Q 48.6875 37.203125 44.609375 42.84375 
Q 40.53125 48.484375 33.40625 48.484375 
Q 26.265625 48.484375 22.1875 42.84375 
Q 18.109375 37.203125 18.109375 27.296875 
Q 18.109375 17.390625 22.1875 11.75 
Q 26.265625 6.109375 33.40625 6.109375 
Q 40.53125 6.109375 44.609375 11.75 
Q 48.6875 17.390625 48.6875 27.296875 
z
M 18.109375 46.390625 
Q 20.953125 51.265625 25.265625 53.625 
Q 29.59375 56 35.59375 56 
Q 45.5625 56 51.78125 48.09375 
Q 58.015625 40.1875 58.015625 27.296875 
Q 58.015625 14.40625 51.78125 6.484375 
Q 45.5625 -1.421875 35.59375 -1.421875 
Q 29.59375 -1.421875 25.265625 0.953125 
Q 20.953125 3.328125 18.109375 8.203125 
L 18.109375 0 
L 9.078125 0 
L 9.078125 75.984375 
L 18.109375 75.984375 
z
" id="DejaVuSans-98"/>
     </defs>
     <use xlink:href="#DejaVuSans-98"/>
     <use x="63.476562" xlink:href="#DejaVuSans-98"/>
     <use x="126.953125" xlink:href="#DejaVuSans-111"/>
     <use x="188.134766" xlink:href="#DejaVuSans-98"/>
    </g>
    <!-- Misc. moderate functions, 40-D -->
    <g transform="translate(60.41088 25.583055)scale(0.102 -0.102)">
     <defs>
      <path d="M 9.8125 72.90625 
L 24.515625 72.90625 
L 43.109375 23.296875 
L 61.8125 72.90625 
L 76.515625 72.90625 
L 76.515625 0 
L 66.890625 0 
L 66.890625 64.015625 
L 48.09375 14.015625 
L 38.1875 14.015625 
L 19.390625 64.015625 
L 19.390625 0 
L 9.8125 0 
z
" id="DejaVuSans-77"/>
      <path d="M 19.671875 64.796875 
L 19.671875 8.109375 
L 31.59375 8.109375 
Q 46.6875 8.109375 53.6875 14.9375 
Q 60.6875 21.78125 60.6875 36.53125 
Q 60.6875 51.171875 53.6875 57.984375 
Q 46.6875 64.796875 31.59375 64.796875 
z
M 9.8125 72.90625 
L 30.078125 72.90625 
Q 51.265625 72.90625 61.171875 64.09375 
Q 71.09375 55.28125 71.09375 36.53125 
Q 71.09375 17.671875 61.125 8.828125 
Q 51.171875 0 30.078125 0 
L 9.8125 0 
z
" id="DejaVuSans-68"/>
     </defs>
     <use xlink:href="#DejaVuSans-77"/>
     <use x="86.279297" xlink:href="#DejaVuSans-105"/>
     <use x="114.0625" xlink:href="#DejaVuSans-115"/>
     <use x="166.162109" xlink:href="#DejaVuSans-99"/>
     <use x="221.142578" xlink:href="#DejaVuSans-46"/>
     <use x="252.929688" xlink:href="#DejaVuSans-32"/>
     <use x="284.716797" xlink:href="#DejaVuSans-109"/>
     <use x="382.128906" xlink:href="#DejaVuSans-111"/>
     <use x="443.310547" xlink:href="#DejaVuSans-100"/>
     <use x="506.787109" xlink:href="#DejaVuSans-101"/>
     <use x="568.310547" xlink:href="#DejaVuSans-114"/>
     <use x="609.423828" xlink:href="#DejaVuSans-97"/>
     <use x="670.703125" xlink:href="#DejaVuSans-116"/>
     <use x="709.912109" xlink:href="#DejaVuSans-101"/>
     <use x="771.435547" xlink:href="#DejaVuSans-32"/>
     <use x="803.222656" xlink:href="#DejaVuSans-102"/>
     <use x="838.427734" xlink:href="#DejaVuSans-117"/>
     <use x="901.806641" xlink:href="#DejaVuSans-110"/>
     <use x="965.185547" xlink:href="#DejaVuSans-99"/>
     <use x="1020.166016" xlink:href="#DejaVuSans-116"/>
     <use x="1059.375" xlink:href="#DejaVuSans-105"/>
     <use x="1087.158203" xlink:href="#DejaVuSans-111"/>
     <use x="1148.339844" xlink:href="#DejaVuSans-110"/>
     <use x="1211.71875" xlink:href="#DejaVuSans-115"/>
     <use x="1263.818359" xlink:href="#DejaVuSans-44"/>
     <use x="1295.605469" xlink:href="#DejaVuSans-32"/>
     <use x="1327.392578" xlink:href="#DejaVuSans-52"/>
     <use x="1391.015625" xlink:href="#DejaVuSans-48"/>
     <use x="1454.638672" xlink:href="#DejaVuSans-45"/>
     <use x="1490.722656" xlink:href="#DejaVuSans-68"/>
    </g>
    <!-- 51 targets: 100..1e-08 -->
    <g transform="translate(60.41088 37.004824)scale(0.102 -0.102)">
     <defs>
      <path d="M 10.796875 72.90625 
L 49.515625 72.90625 
L 49.515625 64.59375 
L 19.828125 64.59375 
L 19.828125 46.734375 
Q 21.96875 47.46875 24.109375 47.828125 
Q 26.265625 48.1875 28.421875 48.1875 
Q 40.625 48.1875 47.75 41.5 
Q 54.890625 34.8125 54.890625 23.390625 
Q 54.890625 11.625 47.5625 5.09375 
Q 40.234375 -1.421875 26.90625 -1.421875 
Q 22.3125 -1.421875 17.546875 -0.640625 
Q 12.796875 0.140625 7.71875 1.703125 
L 7.71875 11.625 
Q 12.109375 9.234375 16.796875 8.0625 
Q 21.484375 6.890625 26.703125 6.890625 
Q 35.15625 6.890625 40.078125 11.328125 
Q 45.015625 15.765625 45.015625 23.390625 
Q 45.015625 31 40.078125 35.4375 
Q 35.15625 39.890625 26.703125 39.890625 
Q 22.75 39.890625 18.8125 39.015625 
Q 14.890625 38.140625 10.796875 36.28125 
z
" id="DejaVuSans-53"/>
      <path d="M 11.71875 12.40625 
L 22.015625 12.40625 
L 22.015625 0 
L 11.71875 0 
z
M 11.71875 51.703125 
L 22.015625 51.703125 
L 22.015625 39.3125 
L 11.71875 39.3125 
z
" id="DejaVuSans-58"/>
     </defs>
     <use xlink:href="#DejaVuSans-53"/>
     <use x="63.623047" xlink:href="#DejaVuSans-49"/>
     <use x="127.246094" xlink:href="#DejaVuSans-32"/>
     <use x="159.033203" xlink:href="#DejaVuSans-116"/>
     <use x="198.242188" xlink:href="#DejaVuSans-97"/>
     <use x="259.521484" xlink:href="#DejaVuSans-114"/>
     <use x="298.884766" xlink:href="#DejaVuSans-103"/>
     <use x="362.361328" xlink:href="#DejaVuSans-101"/>
     <use x="423.884766" xlink:href="#DejaVuSans-116"/>
     <use x="463.09375" xlink:href="#DejaVuSans-115"/>
     <use x="515.193359" xlink:href="#DejaVuSans-58"/>
     <use x="548.884766" xlink:href="#DejaVuSans-32"/>
     <use x="580.671875" xlink:href="#DejaVuSans-49"/>
     <use x="644.294922" xlink:href="#DejaVuSans-48"/>
     <use x="707.917969" xlink:href="#DejaVuSans-48"/>
     <use x="771.541016" xlink:href="#DejaVuSans-46"/>
     <use x="803.328125" xlink:href="#DejaVuSans-46"/>
     <use x="835.115234" xlink:href="#DejaVuSans-49"/>
     <use x="898.738281" xlink:href="#DejaVuSans-101"/>
     <use x="960.261719" xlink:href="#DejaVuSans-45"/>
     <use x="996.345703" xlink:href="#DejaVuSans-48"/>
     <use x="1059.96875" xlink:href="#DejaVuSans-56"/>
    </g>
    <!-- 15 instances -->
    <g transform="translate(60.41088 48.426593)scale(0.102 -0.102)">
     <use xlink:href="#DejaVuSans-49"/>
     <use x="63.623047" xlink:href="#DejaVuSans-53"/>
     <use x="127.246094" xlink:href="#DejaVuSans-32"/>
     <use x="159.033203" xlink:href="#DejaVuSans-105"/>
     <use x="186.816406" xlink:href="#DejaVuSans-110"/>
     <use x="250.195312" xlink:href="#DejaVuSans-115"/>
     <use x="302.294922" xlink:href="#DejaVuSans-116"/>
     <use x="341.503906" xlink:href="#DejaVuSans-97"/>
     <use x="402.783203" xlink:href="#DejaVuSans-110"/>
     <use x="466.162109" xlink:href="#DejaVuSans-99"/>
     <use x="521.142578" xlink:href="#DejaVuSans-101"/>
     <use x="582.666016" xlink:href="#DejaVuSans-115"/>
    </g>
   </g>
   <g id="text_18">
    <!-- v2.4 -->
    <g style="fill:#808080;" transform="translate(187.233062 293.909432)scale(0.1 -0.1)">
     <use xlink:href="#DejaVuSans-118"/>
     <use x="59.179688" xlink:href="#DejaVuSans-50"/>
     <use x="122.802734" xlink:href="#DejaVuSans-46"/>
     <use x="154.589844" xlink:href="#DejaVuSans-52"/>
    </g>
   </g>
  </g>
 </g>
 <defs>
  <clipPath id="p0e924d427d">
   <rect height="295.488" width="281.088" x="57.6" y="3.456"/>
  </clipPath>
 </defs>
</svg>
