<?xml version="1.0" encoding="utf-8" standalone="no"?>
<!DOCTYPE svg PUBLIC "-//W3C//DTD SVG 1.1//EN"
  "http://www.w3.org/Graphics/SVG/1.1/DTD/svg11.dtd">
<!-- Created with matplotlib (https://matplotlib.org/) -->
<svg height="345.6pt" version="1.1" viewBox="0 0 460.8 345.6" width="460.8pt" xmlns="http://www.w3.org/2000/svg" xmlns:xlink="http://www.w3.org/1999/xlink">
 <metadata>
  <rdf:RDF xmlns:cc="http://creativecommons.org/ns#" xmlns:dc="http://purl.org/dc/elements/1.1/" xmlns:rdf="http://www.w3.org/1999/02/22-rdf-syntax-ns#">
   <cc:Work>
    <dc:type rdf:resource="http://purl.org/dc/dcmitype/StillImage"/>
    <dc:date>2021-06-17T01:38:09.214346</dc:date>
    <dc:format>image/svg+xml</dc:format>
    <dc:creator>
     <cc:Agent>
      <dc:title>Matplotlib v3.3.4, https://matplotlib.org/</dc:title>
     </cc:Agent>
    </dc:creator>
   </cc:Work>
  </rdf:RDF>
 </metadata>
 <defs>
  <style type="text/css">*{stroke-linecap:butt;stroke-linejoin:round;}</style>
 </defs>
 <g id="figure_1">
  <g id="patch_1">
   <path d="M 0 345.6 
L 460.8 345.6 
L 460.8 0 
L 0 0 
z
" style="fill:#ffffff;"/>
  </g>
  <g id="axes_1">
   <g id="patch_2">
    <path d="M 57.6 298.944 
L 338.688 298.944 
L 338.688 3.456 
L 57.6 3.456 
z
" style="fill:#ffffff;"/>
   </g>
   <g id="matplotlib.axis_1">
    <g id="xtick_1">
     <g id="line2d_1">
      <path clip-path="url(#p339dddddac)" d="M 57.6 298.944 
L 57.6 3.456 
" style="fill:none;stroke:#b0b0b0;stroke-linecap:square;stroke-width:0.8;"/>
     </g>
     <g id="line2d_2">
      <defs>
       <path d="M 0 0 
L 0 3.5 
" id="m6c75e66fbe" style="stroke:#000000;stroke-width:0.8;"/>
      </defs>
      <g>
       <use style="stroke:#000000;stroke-width:0.8;" x="57.6" xlink:href="#m6c75e66fbe" y="298.944"/>
      </g>
     </g>
     <g id="text_1">
      <!-- 0 -->
      <g transform="translate(51.2375 321.140875)scale(0.2 -0.2)">
       <defs>
        <path d="M 31.78125 66.40625 
Q 24.171875 66.40625 20.328125 58.90625 
Q 16.5 51.421875 16.5 36.375 
Q 16.5 21.390625 20.328125 13.890625 
Q 24.171875 6.390625 31.78125 6.390625 
Q 39.453125 6.390625 43.28125 13.890625 
Q 47.125 21.390625 47.125 36.375 
Q 47.125 51.421875 43.28125 58.90625 
Q 39.453125 66.40625 31.78125 66.40625 
z
M 31.78125 74.21875 
Q 44.046875 74.21875 50.515625 64.515625 
Q 56.984375 54.828125 56.984375 36.375 
Q 56.984375 17.96875 50.515625 8.265625 
Q 44.046875 -1.421875 31.78125 -1.421875 
Q 19.53125 -1.421875 13.0625 8.265625 
Q 6.59375 17.96875 6.59375 36.375 
Q 6.59375 54.828125 13.0625 64.515625 
Q 19.53125 74.21875 31.78125 74.21875 
z
" id="DejaVuSans-48"/>
       </defs>
       <use xlink:href="#DejaVuSans-48"/>
      </g>
     </g>
    </g>
    <g id="xtick_2">
     <g id="line2d_3">
      <path clip-path="url(#p339dddddac)" d="M 137.910857 298.944 
L 137.910857 3.456 
" style="fill:none;stroke:#b0b0b0;stroke-linecap:square;stroke-width:0.8;"/>
     </g>
     <g id="line2d_4">
      <g>
       <use style="stroke:#000000;stroke-width:0.8;" x="137.910857" xlink:href="#m6c75e66fbe" y="298.944"/>
      </g>
     </g>
     <g id="text_2">
      <!-- 2 -->
      <g transform="translate(131.548357 321.140875)scale(0.2 -0.2)">
       <defs>
        <path d="M 19.1875 8.296875 
L 53.609375 8.296875 
L 53.609375 0 
L 7.328125 0 
L 7.328125 8.296875 
Q 12.9375 14.109375 22.625 23.890625 
Q 32.328125 33.6875 34.8125 36.53125 
Q 39.546875 41.84375 41.421875 45.53125 
Q 43.3125 49.21875 43.3125 52.78125 
Q 43.3125 58.59375 39.234375 62.25 
Q 35.15625 65.921875 28.609375 65.921875 
Q 23.96875 65.921875 18.8125 64.3125 
Q 13.671875 62.703125 7.8125 59.421875 
L 7.8125 69.390625 
Q 13.765625 71.78125 18.9375 73 
Q 24.125 74.21875 28.421875 74.21875 
Q 39.75 74.21875 46.484375 68.546875 
Q 53.21875 62.890625 53.21875 53.421875 
Q 53.21875 48.921875 51.53125 44.890625 
Q 49.859375 40.875 45.40625 35.40625 
Q 44.1875 33.984375 37.640625 27.21875 
Q 31.109375 20.453125 19.1875 8.296875 
z
" id="DejaVuSans-50"/>
       </defs>
       <use xlink:href="#DejaVuSans-50"/>
      </g>
     </g>
    </g>
    <g id="xtick_3">
     <g id="line2d_5">
      <path clip-path="url(#p339dddddac)" d="M 218.221714 298.944 
L 218.221714 3.456 
" style="fill:none;stroke:#b0b0b0;stroke-linecap:square;stroke-width:0.8;"/>
     </g>
     <g id="line2d_6">
      <g>
       <use style="stroke:#000000;stroke-width:0.8;" x="218.221714" xlink:href="#m6c75e66fbe" y="298.944"/>
      </g>
     </g>
     <g id="text_3">
      <!-- 4 -->
      <g transform="translate(211.859214 321.140875)scale(0.2 -0.2)">
       <defs>
        <path d="M 37.796875 64.3125 
L 12.890625 25.390625 
L 37.796875 25.390625 
z
M 35.203125 72.90625 
L 47.609375 72.90625 
L 47.609375 25.390625 
L 58.015625 25.390625 
L 58.015625 17.1875 
L 47.609375 17.1875 
L 47.609375 0 
L 37.796875 0 
L 37.796875 17.1875 
L 4.890625 17.1875 
L 4.890625 26.703125 
z
" id="DejaVuSans-52"/>
       </defs>
       <use xlink:href="#DejaVuSans-52"/>
      </g>
     </g>
    </g>
    <g id="xtick_4">
     <g id="line2d_7">
      <path clip-path="url(#p339dddddac)" d="M 298.532571 298.944 
L 298.532571 3.456 
" style="fill:none;stroke:#b0b0b0;stroke-linecap:square;stroke-width:0.8;"/>
     </g>
     <g id="line2d_8">
      <g>
       <use style="stroke:#000000;stroke-width:0.8;" x="298.532571" xlink:href="#m6c75e66fbe" y="298.944"/>
      </g>
     </g>
     <g id="text_4">
      <!-- 6 -->
      <g transform="translate(292.170071 321.140875)scale(0.2 -0.2)">
       <defs>
        <path d="M 33.015625 40.375 
Q 26.375 40.375 22.484375 35.828125 
Q 18.609375 31.296875 18.609375 23.390625 
Q 18.609375 15.53125 22.484375 10.953125 
Q 26.375 6.390625 33.015625 6.390625 
Q 39.65625 6.390625 43.53125 10.953125 
Q 47.40625 15.53125 47.40625 23.390625 
Q 47.40625 31.296875 43.53125 35.828125 
Q 39.65625 40.375 33.015625 40.375 
z
M 52.59375 71.296875 
L 52.59375 62.3125 
Q 48.875 64.0625 45.09375 64.984375 
Q 41.3125 65.921875 37.59375 65.921875 
Q 27.828125 65.921875 22.671875 59.328125 
Q 17.53125 52.734375 16.796875 39.40625 
Q 19.671875 43.65625 24.015625 45.921875 
Q 28.375 48.1875 33.59375 48.1875 
Q 44.578125 48.1875 50.953125 41.515625 
Q 57.328125 34.859375 57.328125 23.390625 
Q 57.328125 12.15625 50.6875 5.359375 
Q 44.046875 -1.421875 33.015625 -1.421875 
Q 20.359375 -1.421875 13.671875 8.265625 
Q 6.984375 17.96875 6.984375 36.375 
Q 6.984375 53.65625 15.1875 63.9375 
Q 23.390625 74.21875 37.203125 74.21875 
Q 40.921875 74.21875 44.703125 73.484375 
Q 48.484375 72.75 52.59375 71.296875 
z
" id="DejaVuSans-54"/>
       </defs>
       <use xlink:href="#DejaVuSans-54"/>
      </g>
     </g>
    </g>
    <g id="xtick_5">
     <g id="line2d_9">
      <path clip-path="url(#p339dddddac)" d="M 97.755429 298.944 
L 97.755429 3.456 
" style="fill:none;stroke:#b0b0b0;stroke-linecap:square;stroke-width:0.8;"/>
     </g>
     <g id="line2d_10">
      <defs>
       <path d="M 0 0 
L 0 2 
" id="m2e100c8ab7" style="stroke:#000000;stroke-width:0.6;"/>
      </defs>
      <g>
       <use style="stroke:#000000;stroke-width:0.6;" x="97.755429" xlink:href="#m2e100c8ab7" y="298.944"/>
      </g>
     </g>
    </g>
    <g id="xtick_6">
     <g id="line2d_11">
      <path clip-path="url(#p339dddddac)" d="M 178.066286 298.944 
L 178.066286 3.456 
" style="fill:none;stroke:#b0b0b0;stroke-linecap:square;stroke-width:0.8;"/>
     </g>
     <g id="line2d_12">
      <g>
       <use style="stroke:#000000;stroke-width:0.6;" x="178.066286" xlink:href="#m2e100c8ab7" y="298.944"/>
      </g>
     </g>
    </g>
    <g id="xtick_7">
     <g id="line2d_13">
      <path clip-path="url(#p339dddddac)" d="M 258.377143 298.944 
L 258.377143 3.456 
" style="fill:none;stroke:#b0b0b0;stroke-linecap:square;stroke-width:0.8;"/>
     </g>
     <g id="line2d_14">
      <g>
       <use style="stroke:#000000;stroke-width:0.6;" x="258.377143" xlink:href="#m2e100c8ab7" y="298.944"/>
      </g>
     </g>
    </g>
    <g id="xtick_8">
     <g id="line2d_15">
      <path clip-path="url(#p339dddddac)" d="M 338.688 298.944 
L 338.688 3.456 
" style="fill:none;stroke:#b0b0b0;stroke-linecap:square;stroke-width:0.8;"/>
     </g>
     <g id="line2d_16">
      <g>
       <use style="stroke:#000000;stroke-width:0.6;" x="338.688" xlink:href="#m2e100c8ab7" y="298.944"/>
      </g>
     </g>
    </g>
    <g id="text_5">
     <!-- log10(# f-evals / dimension) -->
     <g transform="translate(77.764078 342.217594)scale(0.17 -0.17)">
      <defs>
       <path d="M 9.421875 75.984375 
L 18.40625 75.984375 
L 18.40625 0 
L 9.421875 0 
z
" id="DejaVuSans-108"/>
       <path d="M 30.609375 48.390625 
Q 23.390625 48.390625 19.1875 42.75 
Q 14.984375 37.109375 14.984375 27.296875 
Q 14.984375 17.484375 19.15625 11.84375 
Q 23.34375 6.203125 30.609375 6.203125 
Q 37.796875 6.203125 41.984375 11.859375 
Q 46.1875 17.53125 46.1875 27.296875 
Q 46.1875 37.015625 41.984375 42.703125 
Q 37.796875 48.390625 30.609375 48.390625 
z
M 30.609375 56 
Q 42.328125 56 49.015625 48.375 
Q 55.71875 40.765625 55.71875 27.296875 
Q 55.71875 13.875 49.015625 6.21875 
Q 42.328125 -1.421875 30.609375 -1.421875 
Q 18.84375 -1.421875 12.171875 6.21875 
Q 5.515625 13.875 5.515625 27.296875 
Q 5.515625 40.765625 12.171875 48.375 
Q 18.84375 56 30.609375 56 
z
" id="DejaVuSans-111"/>
       <path d="M 45.40625 27.984375 
Q 45.40625 37.75 41.375 43.109375 
Q 37.359375 48.484375 30.078125 48.484375 
Q 22.859375 48.484375 18.828125 43.109375 
Q 14.796875 37.75 14.796875 27.984375 
Q 14.796875 18.265625 18.828125 12.890625 
Q 22.859375 7.515625 30.078125 7.515625 
Q 37.359375 7.515625 41.375 12.890625 
Q 45.40625 18.265625 45.40625 27.984375 
z
M 54.390625 6.78125 
Q 54.390625 -7.171875 48.1875 -13.984375 
Q 42 -20.796875 29.203125 -20.796875 
Q 24.46875 -20.796875 20.265625 -20.09375 
Q 16.0625 -19.390625 12.109375 -17.921875 
L 12.109375 -9.1875 
Q 16.0625 -11.328125 19.921875 -12.34375 
Q 23.78125 -13.375 27.78125 -13.375 
Q 36.625 -13.375 41.015625 -8.765625 
Q 45.40625 -4.15625 45.40625 5.171875 
L 45.40625 9.625 
Q 42.625 4.78125 38.28125 2.390625 
Q 33.9375 0 27.875 0 
Q 17.828125 0 11.671875 7.65625 
Q 5.515625 15.328125 5.515625 27.984375 
Q 5.515625 40.671875 11.671875 48.328125 
Q 17.828125 56 27.875 56 
Q 33.9375 56 38.28125 53.609375 
Q 42.625 51.21875 45.40625 46.390625 
L 45.40625 54.6875 
L 54.390625 54.6875 
z
" id="DejaVuSans-103"/>
       <path d="M 12.40625 8.296875 
L 28.515625 8.296875 
L 28.515625 63.921875 
L 10.984375 60.40625 
L 10.984375 69.390625 
L 28.421875 72.90625 
L 38.28125 72.90625 
L 38.28125 8.296875 
L 54.390625 8.296875 
L 54.390625 0 
L 12.40625 0 
z
" id="DejaVuSans-49"/>
       <path d="M 31 75.875 
Q 24.46875 64.65625 21.28125 53.65625 
Q 18.109375 42.671875 18.109375 31.390625 
Q 18.109375 20.125 21.3125 9.0625 
Q 24.515625 -2 31 -13.1875 
L 23.1875 -13.1875 
Q 15.875 -1.703125 12.234375 9.375 
Q 8.59375 20.453125 8.59375 31.390625 
Q 8.59375 42.28125 12.203125 53.3125 
Q 15.828125 64.359375 23.1875 75.875 
z
" id="DejaVuSans-40"/>
       <path d="M 51.125 44 
L 36.921875 44 
L 32.8125 27.6875 
L 47.125 27.6875 
z
M 43.796875 71.78125 
L 38.71875 51.515625 
L 52.984375 51.515625 
L 58.109375 71.78125 
L 65.921875 71.78125 
L 60.890625 51.515625 
L 76.125 51.515625 
L 76.125 44 
L 58.984375 44 
L 54.984375 27.6875 
L 70.515625 27.6875 
L 70.515625 20.21875 
L 53.078125 20.21875 
L 48 0 
L 40.1875 0 
L 45.21875 20.21875 
L 30.90625 20.21875 
L 25.875 0 
L 18.015625 0 
L 23.09375 20.21875 
L 7.71875 20.21875 
L 7.71875 27.6875 
L 24.90625 27.6875 
L 29 44 
L 13.28125 44 
L 13.28125 51.515625 
L 30.90625 51.515625 
L 35.890625 71.78125 
z
" id="DejaVuSans-35"/>
       <path id="DejaVuSans-32"/>
       <path d="M 37.109375 75.984375 
L 37.109375 68.5 
L 28.515625 68.5 
Q 23.6875 68.5 21.796875 66.546875 
Q 19.921875 64.59375 19.921875 59.515625 
L 19.921875 54.6875 
L 34.71875 54.6875 
L 34.71875 47.703125 
L 19.921875 47.703125 
L 19.921875 0 
L 10.890625 0 
L 10.890625 47.703125 
L 2.296875 47.703125 
L 2.296875 54.6875 
L 10.890625 54.6875 
L 10.890625 58.5 
Q 10.890625 67.625 15.140625 71.796875 
Q 19.390625 75.984375 28.609375 75.984375 
z
" id="DejaVuSans-102"/>
       <path d="M 4.890625 31.390625 
L 31.203125 31.390625 
L 31.203125 23.390625 
L 4.890625 23.390625 
z
" id="DejaVuSans-45"/>
       <path d="M 56.203125 29.59375 
L 56.203125 25.203125 
L 14.890625 25.203125 
Q 15.484375 15.921875 20.484375 11.0625 
Q 25.484375 6.203125 34.421875 6.203125 
Q 39.59375 6.203125 44.453125 7.46875 
Q 49.3125 8.734375 54.109375 11.28125 
L 54.109375 2.78125 
Q 49.265625 0.734375 44.1875 -0.34375 
Q 39.109375 -1.421875 33.890625 -1.421875 
Q 20.796875 -1.421875 13.15625 6.1875 
Q 5.515625 13.8125 5.515625 26.8125 
Q 5.515625 40.234375 12.765625 48.109375 
Q 20.015625 56 32.328125 56 
Q 43.359375 56 49.78125 48.890625 
Q 56.203125 41.796875 56.203125 29.59375 
z
M 47.21875 32.234375 
Q 47.125 39.59375 43.09375 43.984375 
Q 39.0625 48.390625 32.421875 48.390625 
Q 24.90625 48.390625 20.390625 44.140625 
Q 15.875 39.890625 15.1875 32.171875 
z
" id="DejaVuSans-101"/>
       <path d="M 2.984375 54.6875 
L 12.5 54.6875 
L 29.59375 8.796875 
L 46.6875 54.6875 
L 56.203125 54.6875 
L 35.6875 0 
L 23.484375 0 
z
" id="DejaVuSans-118"/>
       <path d="M 34.28125 27.484375 
Q 23.390625 27.484375 19.1875 25 
Q 14.984375 22.515625 14.984375 16.5 
Q 14.984375 11.71875 18.140625 8.90625 
Q 21.296875 6.109375 26.703125 6.109375 
Q 34.1875 6.109375 38.703125 11.40625 
Q 43.21875 16.703125 43.21875 25.484375 
L 43.21875 27.484375 
z
M 52.203125 31.203125 
L 52.203125 0 
L 43.21875 0 
L 43.21875 8.296875 
Q 40.140625 3.328125 35.546875 0.953125 
Q 30.953125 -1.421875 24.3125 -1.421875 
Q 15.921875 -1.421875 10.953125 3.296875 
Q 6 8.015625 6 15.921875 
Q 6 25.140625 12.171875 29.828125 
Q 18.359375 34.515625 30.609375 34.515625 
L 43.21875 34.515625 
L 43.21875 35.40625 
Q 43.21875 41.609375 39.140625 45 
Q 35.0625 48.390625 27.6875 48.390625 
Q 23 48.390625 18.546875 47.265625 
Q 14.109375 46.140625 10.015625 43.890625 
L 10.015625 52.203125 
Q 14.9375 54.109375 19.578125 55.046875 
Q 24.21875 56 28.609375 56 
Q 40.484375 56 46.34375 49.84375 
Q 52.203125 43.703125 52.203125 31.203125 
z
" id="DejaVuSans-97"/>
       <path d="M 44.28125 53.078125 
L 44.28125 44.578125 
Q 40.484375 46.53125 36.375 47.5 
Q 32.28125 48.484375 27.875 48.484375 
Q 21.1875 48.484375 17.84375 46.4375 
Q 14.5 44.390625 14.5 40.28125 
Q 14.5 37.15625 16.890625 35.375 
Q 19.28125 33.59375 26.515625 31.984375 
L 29.59375 31.296875 
Q 39.15625 29.25 43.1875 25.515625 
Q 47.21875 21.78125 47.21875 15.09375 
Q 47.21875 7.46875 41.1875 3.015625 
Q 35.15625 -1.421875 24.609375 -1.421875 
Q 20.21875 -1.421875 15.453125 -0.5625 
Q 10.6875 0.296875 5.421875 2 
L 5.421875 11.28125 
Q 10.40625 8.6875 15.234375 7.390625 
Q 20.0625 6.109375 24.8125 6.109375 
Q 31.15625 6.109375 34.5625 8.28125 
Q 37.984375 10.453125 37.984375 14.40625 
Q 37.984375 18.0625 35.515625 20.015625 
Q 33.0625 21.96875 24.703125 23.78125 
L 21.578125 24.515625 
Q 13.234375 26.265625 9.515625 29.90625 
Q 5.8125 33.546875 5.8125 39.890625 
Q 5.8125 47.609375 11.28125 51.796875 
Q 16.75 56 26.8125 56 
Q 31.78125 56 36.171875 55.265625 
Q 40.578125 54.546875 44.28125 53.078125 
z
" id="DejaVuSans-115"/>
       <path d="M 25.390625 72.90625 
L 33.6875 72.90625 
L 8.296875 -9.28125 
L 0 -9.28125 
z
" id="DejaVuSans-47"/>
       <path d="M 45.40625 46.390625 
L 45.40625 75.984375 
L 54.390625 75.984375 
L 54.390625 0 
L 45.40625 0 
L 45.40625 8.203125 
Q 42.578125 3.328125 38.25 0.953125 
Q 33.9375 -1.421875 27.875 -1.421875 
Q 17.96875 -1.421875 11.734375 6.484375 
Q 5.515625 14.40625 5.515625 27.296875 
Q 5.515625 40.1875 11.734375 48.09375 
Q 17.96875 56 27.875 56 
Q 33.9375 56 38.25 53.625 
Q 42.578125 51.265625 45.40625 46.390625 
z
M 14.796875 27.296875 
Q 14.796875 17.390625 18.875 11.75 
Q 22.953125 6.109375 30.078125 6.109375 
Q 37.203125 6.109375 41.296875 11.75 
Q 45.40625 17.390625 45.40625 27.296875 
Q 45.40625 37.203125 41.296875 42.84375 
Q 37.203125 48.484375 30.078125 48.484375 
Q 22.953125 48.484375 18.875 42.84375 
Q 14.796875 37.203125 14.796875 27.296875 
z
" id="DejaVuSans-100"/>
       <path d="M 9.421875 54.6875 
L 18.40625 54.6875 
L 18.40625 0 
L 9.421875 0 
z
M 9.421875 75.984375 
L 18.40625 75.984375 
L 18.40625 64.59375 
L 9.421875 64.59375 
z
" id="DejaVuSans-105"/>
       <path d="M 52 44.1875 
Q 55.375 50.25 60.0625 53.125 
Q 64.75 56 71.09375 56 
Q 79.640625 56 84.28125 50.015625 
Q 88.921875 44.046875 88.921875 33.015625 
L 88.921875 0 
L 79.890625 0 
L 79.890625 32.71875 
Q 79.890625 40.578125 77.09375 44.375 
Q 74.3125 48.1875 68.609375 48.1875 
Q 61.625 48.1875 57.5625 43.546875 
Q 53.515625 38.921875 53.515625 30.90625 
L 53.515625 0 
L 44.484375 0 
L 44.484375 32.71875 
Q 44.484375 40.625 41.703125 44.40625 
Q 38.921875 48.1875 33.109375 48.1875 
Q 26.21875 48.1875 22.15625 43.53125 
Q 18.109375 38.875 18.109375 30.90625 
L 18.109375 0 
L 9.078125 0 
L 9.078125 54.6875 
L 18.109375 54.6875 
L 18.109375 46.1875 
Q 21.1875 51.21875 25.484375 53.609375 
Q 29.78125 56 35.6875 56 
Q 41.65625 56 45.828125 52.96875 
Q 50 49.953125 52 44.1875 
z
" id="DejaVuSans-109"/>
       <path d="M 54.890625 33.015625 
L 54.890625 0 
L 45.90625 0 
L 45.90625 32.71875 
Q 45.90625 40.484375 42.875 44.328125 
Q 39.84375 48.1875 33.796875 48.1875 
Q 26.515625 48.1875 22.3125 43.546875 
Q 18.109375 38.921875 18.109375 30.90625 
L 18.109375 0 
L 9.078125 0 
L 9.078125 54.6875 
L 18.109375 54.6875 
L 18.109375 46.1875 
Q 21.34375 51.125 25.703125 53.5625 
Q 30.078125 56 35.796875 56 
Q 45.21875 56 50.046875 50.171875 
Q 54.890625 44.34375 54.890625 33.015625 
z
" id="DejaVuSans-110"/>
       <path d="M 8.015625 75.875 
L 15.828125 75.875 
Q 23.140625 64.359375 26.78125 53.3125 
Q 30.421875 42.28125 30.421875 31.390625 
Q 30.421875 20.453125 26.78125 9.375 
Q 23.140625 -1.703125 15.828125 -13.1875 
L 8.015625 -13.1875 
Q 14.5 -2 17.703125 9.0625 
Q 20.90625 20.125 20.90625 31.390625 
Q 20.90625 42.671875 17.703125 53.65625 
Q 14.5 64.65625 8.015625 75.875 
z
" id="DejaVuSans-41"/>
      </defs>
      <use xlink:href="#DejaVuSans-108"/>
      <use x="27.783203" xlink:href="#DejaVuSans-111"/>
      <use x="88.964844" xlink:href="#DejaVuSans-103"/>
      <use x="152.441406" xlink:href="#DejaVuSans-49"/>
      <use x="216.064453" xlink:href="#DejaVuSans-48"/>
      <use x="279.6875" xlink:href="#DejaVuSans-40"/>
      <use x="318.701172" xlink:href="#DejaVuSans-35"/>
      <use x="402.490234" xlink:href="#DejaVuSans-32"/>
      <use x="434.277344" xlink:href="#DejaVuSans-102"/>
      <use x="463.982422" xlink:href="#DejaVuSans-45"/>
      <use x="500.066406" xlink:href="#DejaVuSans-101"/>
      <use x="561.589844" xlink:href="#DejaVuSans-118"/>
      <use x="620.769531" xlink:href="#DejaVuSans-97"/>
      <use x="682.048828" xlink:href="#DejaVuSans-108"/>
      <use x="709.832031" xlink:href="#DejaVuSans-115"/>
      <use x="761.931641" xlink:href="#DejaVuSans-32"/>
      <use x="793.71875" xlink:href="#DejaVuSans-47"/>
      <use x="827.410156" xlink:href="#DejaVuSans-32"/>
      <use x="859.197266" xlink:href="#DejaVuSans-100"/>
      <use x="922.673828" xlink:href="#DejaVuSans-105"/>
      <use x="950.457031" xlink:href="#DejaVuSans-109"/>
      <use x="1047.869141" xlink:href="#DejaVuSans-101"/>
      <use x="1109.392578" xlink:href="#DejaVuSans-110"/>
      <use x="1172.771484" xlink:href="#DejaVuSans-115"/>
      <use x="1224.871094" xlink:href="#DejaVuSans-105"/>
      <use x="1252.654297" xlink:href="#DejaVuSans-111"/>
      <use x="1313.835938" xlink:href="#DejaVuSans-110"/>
      <use x="1377.214844" xlink:href="#DejaVuSans-41"/>
     </g>
    </g>
   </g>
   <g id="matplotlib.axis_2">
    <g id="ytick_1">
     <g id="line2d_17">
      <path clip-path="url(#p339dddddac)" d="M 57.6 298.944 
L 338.688 298.944 
" style="fill:none;stroke:#b0b0b0;stroke-linecap:square;stroke-width:0.8;"/>
     </g>
     <g id="line2d_18">
      <defs>
       <path d="M 0 0 
L -3.5 0 
" id="m503f10d9dd" style="stroke:#000000;stroke-width:0.8;"/>
      </defs>
      <g>
       <use style="stroke:#000000;stroke-width:0.8;" x="57.6" xlink:href="#m503f10d9dd" y="298.944"/>
      </g>
     </g>
     <g id="text_6">
      <!-- 0.0 -->
      <g transform="translate(25.155 305.02275)scale(0.16 -0.16)">
       <defs>
        <path d="M 10.6875 12.40625 
L 21 12.40625 
L 21 0 
L 10.6875 0 
z
" id="DejaVuSans-46"/>
       </defs>
       <use xlink:href="#DejaVuSans-48"/>
       <use x="63.623047" xlink:href="#DejaVuSans-46"/>
       <use x="95.410156" xlink:href="#DejaVuSans-48"/>
      </g>
     </g>
    </g>
    <g id="ytick_2">
     <g id="line2d_19">
      <path clip-path="url(#p339dddddac)" d="M 57.6 240.431525 
L 338.688 240.431525 
" style="fill:none;stroke:#b0b0b0;stroke-linecap:square;stroke-width:0.8;"/>
     </g>
     <g id="line2d_20">
      <g>
       <use style="stroke:#000000;stroke-width:0.8;" x="57.6" xlink:href="#m503f10d9dd" y="240.431525"/>
      </g>
     </g>
     <g id="text_7">
      <!-- 0.2 -->
      <g transform="translate(25.155 246.510275)scale(0.16 -0.16)">
       <use xlink:href="#DejaVuSans-48"/>
       <use x="63.623047" xlink:href="#DejaVuSans-46"/>
       <use x="95.410156" xlink:href="#DejaVuSans-50"/>
      </g>
     </g>
    </g>
    <g id="ytick_3">
     <g id="line2d_21">
      <path clip-path="url(#p339dddddac)" d="M 57.6 181.91905 
L 338.688 181.91905 
" style="fill:none;stroke:#b0b0b0;stroke-linecap:square;stroke-width:0.8;"/>
     </g>
     <g id="line2d_22">
      <g>
       <use style="stroke:#000000;stroke-width:0.8;" x="57.6" xlink:href="#m503f10d9dd" y="181.91905"/>
      </g>
     </g>
     <g id="text_8">
      <!-- 0.4 -->
      <g transform="translate(25.155 187.9978)scale(0.16 -0.16)">
       <use xlink:href="#DejaVuSans-48"/>
       <use x="63.623047" xlink:href="#DejaVuSans-46"/>
       <use x="95.410156" xlink:href="#DejaVuSans-52"/>
      </g>
     </g>
    </g>
    <g id="ytick_4">
     <g id="line2d_23">
      <path clip-path="url(#p339dddddac)" d="M 57.6 123.406574 
L 338.688 123.406574 
" style="fill:none;stroke:#b0b0b0;stroke-linecap:square;stroke-width:0.8;"/>
     </g>
     <g id="line2d_24">
      <g>
       <use style="stroke:#000000;stroke-width:0.8;" x="57.6" xlink:href="#m503f10d9dd" y="123.406574"/>
      </g>
     </g>
     <g id="text_9">
      <!-- 0.6 -->
      <g transform="translate(25.155 129.485324)scale(0.16 -0.16)">
       <use xlink:href="#DejaVuSans-48"/>
       <use x="63.623047" xlink:href="#DejaVuSans-46"/>
       <use x="95.410156" xlink:href="#DejaVuSans-54"/>
      </g>
     </g>
    </g>
    <g id="ytick_5">
     <g id="line2d_25">
      <path clip-path="url(#p339dddddac)" d="M 57.6 64.894099 
L 338.688 64.894099 
" style="fill:none;stroke:#b0b0b0;stroke-linecap:square;stroke-width:0.8;"/>
     </g>
     <g id="line2d_26">
      <g>
       <use style="stroke:#000000;stroke-width:0.8;" x="57.6" xlink:href="#m503f10d9dd" y="64.894099"/>
      </g>
     </g>
     <g id="text_10">
      <!-- 0.8 -->
      <g transform="translate(25.155 70.972849)scale(0.16 -0.16)">
       <defs>
        <path d="M 31.78125 34.625 
Q 24.75 34.625 20.71875 30.859375 
Q 16.703125 27.09375 16.703125 20.515625 
Q 16.703125 13.921875 20.71875 10.15625 
Q 24.75 6.390625 31.78125 6.390625 
Q 38.8125 6.390625 42.859375 10.171875 
Q 46.921875 13.96875 46.921875 20.515625 
Q 46.921875 27.09375 42.890625 30.859375 
Q 38.875 34.625 31.78125 34.625 
z
M 21.921875 38.8125 
Q 15.578125 40.375 12.03125 44.71875 
Q 8.5 49.078125 8.5 55.328125 
Q 8.5 64.0625 14.71875 69.140625 
Q 20.953125 74.21875 31.78125 74.21875 
Q 42.671875 74.21875 48.875 69.140625 
Q 55.078125 64.0625 55.078125 55.328125 
Q 55.078125 49.078125 51.53125 44.71875 
Q 48 40.375 41.703125 38.8125 
Q 48.828125 37.15625 52.796875 32.3125 
Q 56.78125 27.484375 56.78125 20.515625 
Q 56.78125 9.90625 50.3125 4.234375 
Q 43.84375 -1.421875 31.78125 -1.421875 
Q 19.734375 -1.421875 13.25 4.234375 
Q 6.78125 9.90625 6.78125 20.515625 
Q 6.78125 27.484375 10.78125 32.3125 
Q 14.796875 37.15625 21.921875 38.8125 
z
M 18.3125 54.390625 
Q 18.3125 48.734375 21.84375 45.5625 
Q 25.390625 42.390625 31.78125 42.390625 
Q 38.140625 42.390625 41.71875 45.5625 
Q 45.3125 48.734375 45.3125 54.390625 
Q 45.3125 60.0625 41.71875 63.234375 
Q 38.140625 66.40625 31.78125 66.40625 
Q 25.390625 66.40625 21.84375 63.234375 
Q 18.3125 60.0625 18.3125 54.390625 
z
" id="DejaVuSans-56"/>
       </defs>
       <use xlink:href="#DejaVuSans-48"/>
       <use x="63.623047" xlink:href="#DejaVuSans-46"/>
       <use x="95.410156" xlink:href="#DejaVuSans-56"/>
      </g>
     </g>
    </g>
    <g id="ytick_6">
     <g id="line2d_27">
      <path clip-path="url(#p339dddddac)" d="M 57.6 6.381624 
L 338.688 6.381624 
" style="fill:none;stroke:#b0b0b0;stroke-linecap:square;stroke-width:0.8;"/>
     </g>
     <g id="line2d_28">
      <g>
       <use style="stroke:#000000;stroke-width:0.8;" x="57.6" xlink:href="#m503f10d9dd" y="6.381624"/>
      </g>
     </g>
     <g id="text_11">
      <!-- 1.0 -->
      <g transform="translate(25.155 12.460374)scale(0.16 -0.16)">
       <use xlink:href="#DejaVuSans-49"/>
       <use x="63.623047" xlink:href="#DejaVuSans-46"/>
       <use x="95.410156" xlink:href="#DejaVuSans-48"/>
      </g>
     </g>
    </g>
    <g id="text_12">
     <!-- Fraction of function,target pairs -->
     <g transform="translate(17.619531 285.585)rotate(-90)scale(0.17 -0.17)">
      <defs>
       <path d="M 9.8125 72.90625 
L 51.703125 72.90625 
L 51.703125 64.59375 
L 19.671875 64.59375 
L 19.671875 43.109375 
L 48.578125 43.109375 
L 48.578125 34.8125 
L 19.671875 34.8125 
L 19.671875 0 
L 9.8125 0 
z
" id="DejaVuSans-70"/>
       <path d="M 41.109375 46.296875 
Q 39.59375 47.171875 37.8125 47.578125 
Q 36.03125 48 33.890625 48 
Q 26.265625 48 22.1875 43.046875 
Q 18.109375 38.09375 18.109375 28.8125 
L 18.109375 0 
L 9.078125 0 
L 9.078125 54.6875 
L 18.109375 54.6875 
L 18.109375 46.1875 
Q 20.953125 51.171875 25.484375 53.578125 
Q 30.03125 56 36.53125 56 
Q 37.453125 56 38.578125 55.875 
Q 39.703125 55.765625 41.0625 55.515625 
z
" id="DejaVuSans-114"/>
       <path d="M 48.78125 52.59375 
L 48.78125 44.1875 
Q 44.96875 46.296875 41.140625 47.34375 
Q 37.3125 48.390625 33.40625 48.390625 
Q 24.65625 48.390625 19.8125 42.84375 
Q 14.984375 37.3125 14.984375 27.296875 
Q 14.984375 17.28125 19.8125 11.734375 
Q 24.65625 6.203125 33.40625 6.203125 
Q 37.3125 6.203125 41.140625 7.25 
Q 44.96875 8.296875 48.78125 10.40625 
L 48.78125 2.09375 
Q 45.015625 0.34375 40.984375 -0.53125 
Q 36.96875 -1.421875 32.421875 -1.421875 
Q 20.0625 -1.421875 12.78125 6.34375 
Q 5.515625 14.109375 5.515625 27.296875 
Q 5.515625 40.671875 12.859375 48.328125 
Q 20.21875 56 33.015625 56 
Q 37.15625 56 41.109375 55.140625 
Q 45.0625 54.296875 48.78125 52.59375 
z
" id="DejaVuSans-99"/>
       <path d="M 18.3125 70.21875 
L 18.3125 54.6875 
L 36.8125 54.6875 
L 36.8125 47.703125 
L 18.3125 47.703125 
L 18.3125 18.015625 
Q 18.3125 11.328125 20.140625 9.421875 
Q 21.96875 7.515625 27.59375 7.515625 
L 36.8125 7.515625 
L 36.8125 0 
L 27.59375 0 
Q 17.1875 0 13.234375 3.875 
Q 9.28125 7.765625 9.28125 18.015625 
L 9.28125 47.703125 
L 2.6875 47.703125 
L 2.6875 54.6875 
L 9.28125 54.6875 
L 9.28125 70.21875 
z
" id="DejaVuSans-116"/>
       <path d="M 8.5 21.578125 
L 8.5 54.6875 
L 17.484375 54.6875 
L 17.484375 21.921875 
Q 17.484375 14.15625 20.5 10.265625 
Q 23.53125 6.390625 29.59375 6.390625 
Q 36.859375 6.390625 41.078125 11.03125 
Q 45.3125 15.671875 45.3125 23.6875 
L 45.3125 54.6875 
L 54.296875 54.6875 
L 54.296875 0 
L 45.3125 0 
L 45.3125 8.40625 
Q 42.046875 3.421875 37.71875 1 
Q 33.40625 -1.421875 27.6875 -1.421875 
Q 18.265625 -1.421875 13.375 4.4375 
Q 8.5 10.296875 8.5 21.578125 
z
M 31.109375 56 
z
" id="DejaVuSans-117"/>
       <path d="M 11.71875 12.40625 
L 22.015625 12.40625 
L 22.015625 4 
L 14.015625 -11.625 
L 7.71875 -11.625 
L 11.71875 4 
z
" id="DejaVuSans-44"/>
       <path d="M 18.109375 8.203125 
L 18.109375 -20.796875 
L 9.078125 -20.796875 
L 9.078125 54.6875 
L 18.109375 54.6875 
L 18.109375 46.390625 
Q 20.953125 51.265625 25.265625 53.625 
Q 29.59375 56 35.59375 56 
Q 45.5625 56 51.78125 48.09375 
Q 58.015625 40.1875 58.015625 27.296875 
Q 58.015625 14.40625 51.78125 6.484375 
Q 45.5625 -1.421875 35.59375 -1.421875 
Q 29.59375 -1.421875 25.265625 0.953125 
Q 20.953125 3.328125 18.109375 8.203125 
z
M 48.6875 27.296875 
Q 48.6875 37.203125 44.609375 42.84375 
Q 40.53125 48.484375 33.40625 48.484375 
Q 26.265625 48.484375 22.1875 42.84375 
Q 18.109375 37.203125 18.109375 27.296875 
Q 18.109375 17.390625 22.1875 11.75 
Q 26.265625 6.109375 33.40625 6.109375 
Q 40.53125 6.109375 44.609375 11.75 
Q 48.6875 17.390625 48.6875 27.296875 
z
" id="DejaVuSans-112"/>
      </defs>
      <use xlink:href="#DejaVuSans-70"/>
      <use x="50.269531" xlink:href="#DejaVuSans-114"/>
      <use x="91.382812" xlink:href="#DejaVuSans-97"/>
      <use x="152.662109" xlink:href="#DejaVuSans-99"/>
      <use x="207.642578" xlink:href="#DejaVuSans-116"/>
      <use x="246.851562" xlink:href="#DejaVuSans-105"/>
      <use x="274.634766" xlink:href="#DejaVuSans-111"/>
      <use x="335.816406" xlink:href="#DejaVuSans-110"/>
      <use x="399.195312" xlink:href="#DejaVuSans-32"/>
      <use x="430.982422" xlink:href="#DejaVuSans-111"/>
      <use x="492.164062" xlink:href="#DejaVuSans-102"/>
      <use x="527.369141" xlink:href="#DejaVuSans-32"/>
      <use x="559.15625" xlink:href="#DejaVuSans-102"/>
      <use x="594.361328" xlink:href="#DejaVuSans-117"/>
      <use x="657.740234" xlink:href="#DejaVuSans-110"/>
      <use x="721.119141" xlink:href="#DejaVuSans-99"/>
      <use x="776.099609" xlink:href="#DejaVuSans-116"/>
      <use x="815.308594" xlink:href="#DejaVuSans-105"/>
      <use x="843.091797" xlink:href="#DejaVuSans-111"/>
      <use x="904.273438" xlink:href="#DejaVuSans-110"/>
      <use x="967.652344" xlink:href="#DejaVuSans-44"/>
      <use x="999.439453" xlink:href="#DejaVuSans-116"/>
      <use x="1038.648438" xlink:href="#DejaVuSans-97"/>
      <use x="1099.927734" xlink:href="#DejaVuSans-114"/>
      <use x="1139.291016" xlink:href="#DejaVuSans-103"/>
      <use x="1202.767578" xlink:href="#DejaVuSans-101"/>
      <use x="1264.291016" xlink:href="#DejaVuSans-116"/>
      <use x="1303.5" xlink:href="#DejaVuSans-32"/>
      <use x="1335.287109" xlink:href="#DejaVuSans-112"/>
      <use x="1398.763672" xlink:href="#DejaVuSans-97"/>
      <use x="1460.042969" xlink:href="#DejaVuSans-105"/>
      <use x="1487.826172" xlink:href="#DejaVuSans-114"/>
      <use x="1528.939453" xlink:href="#DejaVuSans-115"/>
     </g>
    </g>
   </g>
   <g id="line2d_29">
    <defs>
     <path d="M 0 1.5 
C 0.397805 1.5 0.77937 1.341951 1.06066 1.06066 
C 1.341951 0.77937 1.5 0.397805 1.5 0 
C 1.5 -0.397805 1.341951 -0.77937 1.06066 -1.06066 
C 0.77937 -1.341951 0.397805 -1.5 0 -1.5 
C -0.397805 -1.5 -0.77937 -1.341951 -1.06066 -1.06066 
C -1.341951 -0.77937 -1.5 -0.397805 -1.5 0 
C -1.5 0.397805 -1.341951 0.77937 -1.06066 1.06066 
C -0.77937 1.341951 -0.397805 1.5 0 1.5 
z
" id="m4462eaa6e7" style="stroke:#000080;"/>
    </defs>
    <g>
     <use style="fill:#000080;stroke:#000080;" x="286.102563" xlink:href="#m4462eaa6e7" y="161.267588"/>
     <use style="fill:#000080;stroke:#000080;" x="286.102563" xlink:href="#m4462eaa6e7" y="161.267588"/>
    </g>
   </g>
   <g id="line2d_30">
    <path d="M 107.009204 298.944 
L 107.009204 298.370348 
L 107.614095 298.370348 
L 107.614095 297.796697 
L 108.948899 297.796697 
L 108.948899 297.223045 
L 111.104637 297.223045 
L 111.104637 296.649393 
L 114.618932 296.649393 
L 114.618932 296.075741 
L 114.882171 296.075741 
L 114.882171 295.50209 
L 115.773423 295.50209 
L 115.773423 294.928438 
L 116.621333 294.928438 
L 116.621333 294.354786 
L 119.996839 294.354786 
L 119.996839 293.781135 
L 120.238719 293.781135 
L 120.238719 293.207483 
L 123.94666 293.207483 
L 123.985457 292.060179 
L 125.892487 292.060179 
L 125.892487 291.486528 
L 127.674226 291.486528 
L 127.674226 289.765573 
L 128.199452 289.765573 
L 128.199452 289.191921 
L 128.411207 289.191921 
L 128.501178 288.044617 
L 128.944197 288.044617 
L 128.944197 287.470966 
L 131.004728 287.470966 
L 131.004728 286.897314 
L 131.615802 286.897314 
L 131.615802 286.323662 
L 131.913493 286.323662 
L 131.913493 285.75001 
L 133.147807 285.75001 
L 133.147807 285.176359 
L 133.33018 285.176359 
L 133.33018 284.029055 
L 133.510666 284.029055 
L 133.510666 283.455404 
L 134.214491 283.455404 
L 134.321942 282.3081 
L 134.386096 282.3081 
L 134.386096 281.734448 
L 134.513701 281.734448 
L 134.513701 281.160797 
L 134.766144 281.160797 
L 134.766144 280.587145 
L 135.321124 280.587145 
L 135.321124 280.013493 
L 135.602085 280.013493 
L 135.602085 279.439842 
L 136.034648 279.439842 
L 136.034648 278.86619 
L 136.361705 278.86619 
L 136.361705 278.292538 
L 136.905847 278.292538 
L 136.905847 277.718886 
L 137.053015 277.718886 
L 137.053015 277.145235 
L 137.647286 277.145235 
L 137.647286 276.571583 
L 139.155847 276.571583 
L 139.155847 275.997931 
L 139.349619 275.997931 
L 139.349619 275.42428 
L 139.509467 275.42428 
L 139.509467 274.850628 
L 140.633978 274.850628 
L 140.633978 274.276976 
L 141.046761 274.276976 
L 141.046761 273.703324 
L 141.69035 273.703324 
L 141.69035 273.129673 
L 141.913576 273.129673 
L 141.913576 272.556021 
L 143.840863 272.556021 
L 143.840863 271.982369 
L 144.981877 271.982369 
L 144.981877 271.408718 
L 145.097753 271.408718 
L 145.097753 270.835066 
L 145.598655 270.835066 
L 145.609873 269.687762 
L 145.954117 269.687762 
L 146.052799 268.540459 
L 146.324022 268.540459 
L 146.324022 267.966807 
L 146.822776 267.966807 
L 146.916676 266.819504 
L 147.540122 266.819504 
L 147.540122 266.245852 
L 147.78933 266.245852 
L 147.78933 265.6722 
L 148.854728 265.6722 
L 148.854728 265.098549 
L 149.277854 265.098549 
L 149.277854 264.524897 
L 149.503579 264.524897 
L 149.548376 263.377593 
L 149.744125 263.377593 
L 149.744125 262.803942 
L 150.241302 262.803942 
L 150.241302 262.23029 
L 151.072501 262.23029 
L 151.178764 260.509335 
L 151.645126 260.509335 
L 151.740076 259.362031 
L 152.076134 259.362031 
L 152.076134 258.78838 
L 152.885298 258.78838 
L 152.885298 258.214728 
L 153.862384 258.214728 
L 153.862384 257.641076 
L 154.112115 257.641076 
L 154.112115 257.067425 
L 155.703987 257.067425 
L 155.703987 256.493773 
L 155.847985 256.493773 
L 155.847985 255.920121 
L 156.120189 255.920121 
L 156.120189 255.346469 
L 156.675973 255.346469 
L 156.675973 254.772818 
L 157.185742 254.772818 
L 157.185742 254.199166 
L 158.0201 254.199166 
L 158.0201 253.625514 
L 158.363501 253.625514 
L 158.363501 253.051863 
L 158.524678 253.051863 
L 158.524678 252.478211 
L 159.431225 252.478211 
L 159.431225 251.904559 
L 159.9218 251.904559 
L 159.9218 251.330907 
L 160.118135 251.330907 
L 160.118135 250.757256 
L 161.187726 250.757256 
L 161.187726 250.183604 
L 162.034438 250.183604 
L 162.034438 249.609952 
L 162.491916 249.609952 
L 162.491916 249.036301 
L 163.39261 249.036301 
L 163.39261 248.462649 
L 163.77274 248.462649 
L 163.859601 247.315345 
L 165.711185 247.315345 
L 165.711185 246.741694 
L 166.013141 246.741694 
L 166.013141 246.168042 
L 166.158729 246.168042 
L 166.158729 245.59439 
L 166.323641 245.59439 
L 166.323641 245.020738 
L 169.157854 245.020738 
L 169.157854 244.447087 
L 170.302423 244.447087 
L 170.302423 243.873435 
L 171.379036 243.873435 
L 171.379036 243.299783 
L 172.760942 243.299783 
L 172.760942 242.726132 
L 173.351294 242.726132 
L 173.351294 242.15248 
L 176.34475 242.15248 
L 176.34475 241.578828 
L 177.410603 241.578828 
L 177.410603 241.005176 
L 177.681904 241.005176 
L 177.681904 240.431525 
L 178.092425 240.431525 
L 178.092425 239.857873 
L 179.644198 239.857873 
L 179.644198 239.284221 
L 180.448955 239.284221 
L 180.448955 238.71057 
L 182.002336 238.71057 
L 182.002336 238.136918 
L 183.131146 238.136918 
L 183.131146 237.563266 
L 186.622041 237.563266 
L 186.622041 236.989614 
L 187.762688 236.989614 
L 187.762688 236.415963 
L 190.307933 236.415963 
L 190.307933 235.842311 
L 192.998556 235.842311 
L 192.998556 235.268659 
L 194.412269 235.268659 
L 194.412269 234.695008 
L 196.352791 234.695008 
L 196.352791 234.121356 
L 198.615278 234.121356 
L 198.615278 233.547704 
L 200.288688 233.547704 
L 200.288688 232.974052 
L 201.765377 232.974052 
L 201.765377 232.400401 
L 203.514025 232.400401 
L 203.517267 231.253097 
L 204.751116 231.253097 
L 204.842999 230.105794 
L 205.695063 230.105794 
L 205.695063 229.532142 
L 205.897399 229.532142 
L 205.897399 228.95849 
L 206.766656 228.95849 
L 206.766656 228.384839 
L 218.465375 228.384839 
L 218.562441 223.795625 
L 218.710596 223.795625 
L 218.820639 220.927366 
L 218.973977 220.927366 
L 218.973977 219.780063 
L 219.154766 219.780063 
L 219.154766 219.206411 
L 219.305042 219.206411 
L 219.305042 218.632759 
L 219.706663 218.632759 
L 219.734508 217.485456 
L 219.997631 217.485456 
L 219.997631 216.911804 
L 221.908993 216.911804 
L 221.908993 215.764501 
L 222.126426 215.764501 
L 222.126426 215.190849 
L 223.128161 215.190849 
L 223.128161 214.617197 
L 224.942193 214.617197 
L 224.942193 214.043546 
L 230.472694 214.043546 
L 230.472694 213.469894 
L 230.584119 213.469894 
L 230.691938 211.748939 
L 230.963054 211.748939 
L 230.963054 211.175287 
L 231.220423 211.175287 
L 231.220423 210.601635 
L 231.679035 210.601635 
L 231.679035 209.454332 
L 232.635996 209.454332 
L 232.635996 208.307029 
L 232.93506 208.307029 
L 232.93506 207.733377 
L 237.495271 207.733377 
L 237.545441 206.586073 
L 237.819112 206.586073 
L 237.819112 206.012422 
L 237.940623 206.012422 
L 237.993235 204.865118 
L 238.781921 204.865118 
L 238.781921 204.291467 
L 238.965643 204.291467 
L 238.965643 203.717815 
L 242.635934 203.717815 
L 242.664252 201.99686 
L 243.256237 201.99686 
L 243.256237 201.423208 
L 243.748796 201.423208 
L 243.748796 200.849556 
L 246.343306 200.849556 
L 246.36808 199.702253 
L 246.480077 199.702253 
L 246.480077 199.128601 
L 246.627384 199.128601 
L 246.627384 198.554949 
L 247.091887 198.554949 
L 247.091887 197.407646 
L 247.378348 197.407646 
L 247.378348 196.260342 
L 247.93026 196.260342 
L 247.93026 195.686691 
L 249.550166 195.686691 
L 249.550166 195.113039 
L 249.689456 195.113039 
L 249.689456 194.539387 
L 249.937431 194.539387 
L 249.937431 193.965736 
L 250.140251 193.965736 
L 250.140251 193.392084 
L 252.226879 193.392084 
L 252.226879 192.818432 
L 252.346418 192.818432 
L 252.346418 192.24478 
L 252.652894 192.24478 
L 252.652894 191.671129 
L 252.771529 191.671129 
L 252.85414 190.523825 
L 253.403417 190.523825 
L 253.403417 189.376522 
L 254.991828 189.376522 
L 254.991828 188.80287 
L 256.608403 188.80287 
L 256.608403 188.229218 
L 257.084426 188.229218 
L 257.084426 187.081915 
L 258.416824 187.081915 
L 258.510063 184.213656 
L 258.868161 184.213656 
L 258.868161 183.640005 
L 260.075393 183.640005 
L 260.075393 183.066353 
L 260.296666 183.066353 
L 260.296666 182.492701 
L 261.603027 182.492701 
L 261.667594 181.345398 
L 262.990416 181.345398 
L 263.02648 180.198094 
L 263.221522 180.198094 
L 263.221522 179.624443 
L 264.2718 179.624443 
L 264.273429 178.477139 
L 264.555125 178.477139 
L 264.555125 177.903487 
L 265.480999 177.903487 
L 265.485304 176.756184 
L 265.737828 176.756184 
L 265.737828 176.182532 
L 266.604476 176.182532 
L 266.604476 175.608881 
L 266.82875 175.608881 
L 266.82875 175.035229 
L 267.663735 175.035229 
L 267.663735 174.461577 
L 270.682917 174.461577 
L 270.682917 173.887925 
L 271.510765 173.887925 
L 271.510765 173.314274 
L 272.149778 173.314274 
L 272.149778 172.740622 
L 272.926832 172.740622 
L 272.944435 171.593319 
L 275.175735 171.593319 
L 275.175735 171.019667 
L 275.748307 171.019667 
L 275.748307 170.446015 
L 277.552751 170.446015 
L 277.552751 169.872363 
L 277.681759 169.872363 
L 277.701595 168.72506 
L 278.248923 168.72506 
L 278.248923 168.151408 
L 278.679262 168.151408 
L 278.771618 166.430453 
L 280.752984 166.430453 
L 280.752984 165.856801 
L 281.304487 165.856801 
L 281.327856 164.135846 
L 283.417483 164.135846 
L 283.43599 162.988543 
L 285.386242 162.988543 
L 285.386242 162.414891 
L 285.823954 162.414891 
L 285.823954 161.841239 
L 286.102563 161.841239 
L 286.102563 161.267588 
L 338.688 161.267588 
L 338.688 161.267588 
" style="fill:none;stroke:#000080;stroke-linecap:square;stroke-width:1.5;"/>
   </g>
   <g id="line2d_31">
    <defs>
     <path d="M 0 6 
C 1.591219 6 3.117479 5.367802 4.242641 4.242641 
C 5.367802 3.117479 6 1.591219 6 0 
C 6 -1.591219 5.367802 -3.117479 4.242641 -4.242641 
C 3.117479 -5.367802 1.591219 -6 0 -6 
C -1.591219 -6 -3.117479 -5.367802 -4.242641 -4.242641 
C -5.367802 -3.117479 -6 -1.591219 -6 0 
C -6 1.591219 -5.367802 3.117479 -4.242641 4.242641 
C -3.117479 5.367802 -1.591219 6 0 6 
z
" id="mf691bc7532" style="stroke:#000080;stroke-width:1.5;"/>
    </defs>
    <g>
     <use style="fill-opacity:0;stroke:#000080;stroke-width:1.5;" x="177.681904" xlink:href="#mf691bc7532" y="240.431525"/>
     <use style="fill-opacity:0;stroke:#000080;stroke-width:1.5;" x="238.781921" xlink:href="#mf691bc7532" y="204.291467"/>
     <use style="fill-opacity:0;stroke:#000080;stroke-width:1.5;" x="286.102563" xlink:href="#mf691bc7532" y="161.267588"/>
     <use style="fill-opacity:0;stroke:#000080;stroke-width:1.5;" x="286.102563" xlink:href="#mf691bc7532" y="161.267588"/>
     <use style="fill-opacity:0;stroke:#000080;stroke-width:1.5;" x="338.688" xlink:href="#mf691bc7532" y="161.267588"/>
    </g>
   </g>
   <g id="line2d_32">
    <path style="fill:none;stroke:#000080;stroke-linecap:square;stroke-width:1.5;"/>
    <g/>
   </g>
   <g id="line2d_33">
    <path clip-path="url(#p339dddddac)" d="M 218.222063 228.384839 
" style="fill:none;stroke:#000080;stroke-linecap:square;stroke-width:1.5;"/>
    <defs>
     <path d="M -12 12 
L 12 -12 
M -12 -12 
L 12 12 
" id="me69ce5755d" style="stroke:#000080;"/>
    </defs>
    <g clip-path="url(#p339dddddac)">
     <use style="fill:#000080;stroke:#000080;" x="218.222063" xlink:href="#me69ce5755d" y="228.384839"/>
    </g>
   </g>
   <g id="line2d_34">
    <defs>
     <path d="M 0 1.5 
C 0.397805 1.5 0.77937 1.341951 1.06066 1.06066 
C 1.341951 0.77937 1.5 0.397805 1.5 0 
C 1.5 -0.397805 1.341951 -0.77937 1.06066 -1.06066 
C 0.77937 -1.341951 0.397805 -1.5 0 -1.5 
C -0.397805 -1.5 -0.77937 -1.341951 -1.06066 -1.06066 
C -1.341951 -0.77937 -1.5 -0.397805 -1.5 0 
C -1.5 0.397805 -1.341951 0.77937 -1.06066 1.06066 
C -0.77937 1.341951 -0.397805 1.5 0 1.5 
z
" id="m7038e59f56" style="stroke:#ff00ff;"/>
    </defs>
    <g>
     <use style="fill:#ff00ff;stroke:#ff00ff;" x="242.427052" xlink:href="#m7038e59f56" y="264.524897"/>
     <use style="fill:#ff00ff;stroke:#ff00ff;" x="242.427052" xlink:href="#m7038e59f56" y="264.524897"/>
    </g>
   </g>
   <g id="line2d_35">
    <path d="M 29.53256 298.944 
L 29.53256 298.370348 
L 45.512012 298.370348 
L 45.512012 297.796697 
L 64.67102 297.796697 
L 64.67102 297.223045 
L 90.509138 297.223045 
L 90.509138 296.649393 
L 91.782644 296.649393 
L 91.782644 296.075741 
L 94.080605 296.075741 
L 94.080605 295.50209 
L 95.125186 295.50209 
L 95.125186 294.928438 
L 95.918017 294.928438 
L 95.918017 294.354786 
L 97.224242 294.354786 
L 97.224242 293.781135 
L 98.100772 293.781135 
L 98.100772 293.207483 
L 99.731799 293.207483 
L 99.731799 292.633831 
L 100.493461 292.633831 
L 100.493461 292.060179 
L 103.498249 292.060179 
L 103.498249 291.486528 
L 104.114542 291.486528 
L 104.114542 290.912876 
L 104.592361 290.912876 
L 104.592361 290.339224 
L 105.51043 290.339224 
L 105.51043 289.765573 
L 105.842616 289.765573 
L 105.842616 289.191921 
L 107.009204 289.191921 
L 107.009204 288.618269 
L 107.111487 288.618269 
L 107.111487 288.044617 
L 107.213174 288.044617 
L 107.213174 287.470966 
L 108.102622 287.470966 
L 108.102622 286.897314 
L 108.856871 286.897314 
L 108.856871 285.75001 
L 109.040444 285.75001 
L 109.040444 285.176359 
L 111.584648 285.176359 
L 111.584648 284.602707 
L 112.128456 284.602707 
L 112.128456 284.029055 
L 112.506763 284.029055 
L 112.506763 283.455404 
L 113.239614 283.455404 
L 113.239614 282.3081 
L 113.311233 282.3081 
L 113.311233 281.734448 
L 114.816733 281.734448 
L 114.816733 281.160797 
L 115.397021 281.160797 
L 115.397021 280.587145 
L 117.316679 280.587145 
L 117.316679 280.013493 
L 117.373392 280.013493 
L 117.373392 279.439842 
L 117.598418 279.439842 
L 117.598418 278.86619 
L 118.942633 278.86619 
L 118.942633 278.292538 
L 118.994305 278.292538 
L 118.994305 277.718886 
L 119.602714 277.718886 
L 119.602714 277.145235 
L 120.286695 277.145235 
L 120.286695 276.571583 
L 121.128432 276.571583 
L 121.128432 275.997931 
L 121.310093 275.997931 
L 121.310093 275.42428 
L 121.712041 275.42428 
L 121.712041 274.850628 
L 122.148045 274.850628 
L 122.148045 274.276976 
L 123.672636 274.276976 
L 123.672636 273.703324 
L 126.338353 273.703324 
L 126.338353 273.129673 
L 128.441249 273.129673 
L 128.441249 272.556021 
L 128.560901 272.556021 
L 128.560901 271.982369 
L 129.175952 271.982369 
L 129.175952 271.408718 
L 129.31925 271.408718 
L 129.31925 270.835066 
L 130.822389 270.835066 
L 130.822389 270.261414 
L 133.931979 270.261414 
L 133.931979 269.687762 
L 136.170062 269.687762 
L 136.170062 269.114111 
L 218.288553 269.114111 
L 218.288553 268.540459 
L 218.323784 268.540459 
L 218.323784 267.966807 
L 218.335916 267.966807 
L 218.335916 267.393156 
L 218.337821 267.393156 
L 218.337821 266.819504 
L 218.360327 266.819504 
L 218.360327 266.245852 
L 218.379176 266.245852 
L 218.379176 265.6722 
L 242.419303 265.6722 
L 242.419303 265.098549 
L 242.427052 265.098549 
L 242.427052 264.524897 
L 338.688 264.524897 
" style="fill:none;stroke:#ff00ff;stroke-linecap:square;stroke-width:1.5;"/>
   </g>
   <g id="line2d_36">
    <defs>
     <path d="M -0 8.485281 
L 5.091169 0 
L 0 -8.485281 
L -5.091169 -0 
z
" id="mef6647b501" style="stroke:#ff00ff;stroke-linejoin:miter;stroke-width:1.5;"/>
    </defs>
    <g>
     <use style="fill-opacity:0;stroke:#ff00ff;stroke-linejoin:miter;stroke-width:1.5;" x="64.67102" xlink:href="#mef6647b501" y="297.796697"/>
     <use style="fill-opacity:0;stroke:#ff00ff;stroke-linejoin:miter;stroke-width:1.5;" x="136.170062" xlink:href="#mef6647b501" y="269.687762"/>
     <use style="fill-opacity:0;stroke:#ff00ff;stroke-linejoin:miter;stroke-width:1.5;" x="136.170062" xlink:href="#mef6647b501" y="269.114111"/>
     <use style="fill-opacity:0;stroke:#ff00ff;stroke-linejoin:miter;stroke-width:1.5;" x="242.427052" xlink:href="#mef6647b501" y="265.098549"/>
     <use style="fill-opacity:0;stroke:#ff00ff;stroke-linejoin:miter;stroke-width:1.5;" x="242.427052" xlink:href="#mef6647b501" y="264.524897"/>
     <use style="fill-opacity:0;stroke:#ff00ff;stroke-linejoin:miter;stroke-width:1.5;" x="338.688" xlink:href="#mef6647b501" y="264.524897"/>
    </g>
   </g>
   <g id="line2d_37">
    <path style="fill:none;stroke:#ff00ff;stroke-linecap:square;stroke-width:1.5;"/>
    <g/>
   </g>
   <g id="line2d_38">
    <path clip-path="url(#p339dddddac)" d="M 218.222063 269.114111 
" style="fill:none;stroke:#ff00ff;stroke-linecap:square;stroke-width:1.5;"/>
    <defs>
     <path d="M -12 12 
L 12 -12 
M -12 -12 
L 12 12 
" id="m61dd2cdfa0" style="stroke:#ff00ff;"/>
    </defs>
    <g clip-path="url(#p339dddddac)">
     <use style="fill:#ff00ff;stroke:#ff00ff;" x="218.222063" xlink:href="#m61dd2cdfa0" y="269.114111"/>
    </g>
   </g>
   <g id="line2d_39">
    <defs>
     <path d="M 0 1.5 
C 0.397805 1.5 0.77937 1.341951 1.06066 1.06066 
C 1.341951 0.77937 1.5 0.397805 1.5 0 
C 1.5 -0.397805 1.341951 -0.77937 1.06066 -1.06066 
C 0.77937 -1.341951 0.397805 -1.5 0 -1.5 
C -0.397805 -1.5 -0.77937 -1.341951 -1.06066 -1.06066 
C -1.341951 -0.77937 -1.5 -0.397805 -1.5 0 
C -1.5 0.397805 -1.341951 0.77937 -1.06066 1.06066 
C -0.77937 1.341951 -0.397805 1.5 0 1.5 
z
" id="m4dd3dbe88d" style="stroke:#ff7500;"/>
    </defs>
    <g>
     <use style="fill:#ff7500;stroke:#ff7500;" x="238.151294" xlink:href="#m4dd3dbe88d" y="6.381624"/>
     <use style="fill:#ff7500;stroke:#ff7500;" x="238.151294" xlink:href="#m4dd3dbe88d" y="6.381624"/>
    </g>
   </g>
   <g id="line2d_40">
    <path d="M 110.941652 298.944 
L 110.941652 298.370348 
L 114.751048 298.370348 
L 114.751048 297.796697 
L 115.460322 297.796697 
L 115.460322 297.223045 
L 118.786692 297.223045 
L 118.786692 296.649393 
L 119.996839 296.649393 
L 119.996839 296.075741 
L 120.712642 296.075741 
L 120.712642 295.50209 
L 120.990934 295.50209 
L 120.990934 294.928438 
L 121.310093 294.928438 
L 121.310093 294.354786 
L 122.276749 294.354786 
L 122.276749 293.781135 
L 122.40451 293.781135 
L 122.40451 293.207483 
L 122.823744 293.207483 
L 122.823744 292.060179 
L 123.152022 292.060179 
L 123.152022 291.486528 
L 123.712047 291.486528 
L 123.712047 290.912876 
L 125.038147 290.912876 
L 125.038147 290.339224 
L 125.219619 290.339224 
L 125.291682 288.618269 
L 126.640485 288.618269 
L 126.640485 288.044617 
L 127.165014 288.044617 
L 127.165014 287.470966 
L 127.516689 287.470966 
L 127.516689 286.897314 
L 128.531065 286.897314 
L 128.531065 286.323662 
L 128.91501 286.323662 
L 128.91501 285.75001 
L 129.175952 285.75001 
L 129.175952 285.176359 
L 129.908566 285.176359 
L 129.908566 284.602707 
L 130.182344 284.602707 
L 130.182344 284.029055 
L 130.505303 284.029055 
L 130.505303 283.455404 
L 131.938072 283.455404 
L 131.938072 282.881752 
L 132.494049 282.881752 
L 132.494049 282.3081 
L 133.170708 282.3081 
L 133.170708 281.734448 
L 133.77794 281.734448 
L 133.77794 281.160797 
L 134.577155 281.160797 
L 134.577155 280.587145 
L 135.421987 280.587145 
L 135.421987 280.013493 
L 136.551264 280.013493 
L 136.551264 279.439842 
L 136.757427 279.439842 
L 136.757427 278.86619 
L 137.198951 278.86619 
L 137.198951 278.292538 
L 140.333034 278.292538 
L 140.333034 277.718886 
L 142.936543 277.718886 
L 142.936543 277.145235 
L 145.24725 277.145235 
L 145.24725 276.571583 
L 145.899052 276.571583 
L 145.899052 275.997931 
L 147.358461 275.997931 
L 147.358461 275.42428 
L 147.927346 275.42428 
L 147.927346 274.850628 
L 150.137805 274.850628 
L 150.137805 273.703324 
L 150.799813 273.703324 
L 150.799813 273.129673 
L 151.268175 273.129673 
L 151.268175 272.556021 
L 151.397416 272.556021 
L 151.397416 271.982369 
L 152.076134 271.982369 
L 152.076134 271.408718 
L 153.054435 271.408718 
L 153.054435 270.835066 
L 153.495227 270.835066 
L 153.495227 270.261414 
L 153.792374 270.261414 
L 153.792374 269.687762 
L 154.056927 269.687762 
L 154.056927 269.114111 
L 156.003167 269.114111 
L 156.003167 268.540459 
L 156.120189 268.540459 
L 156.120189 267.966807 
L 156.38821 267.966807 
L 156.38821 267.393156 
L 157.139484 267.393156 
L 157.139484 266.819504 
L 158.151718 266.819504 
L 158.151718 266.245852 
L 158.73729 266.245852 
L 158.73729 265.6722 
L 159.004665 265.6722 
L 159.004665 265.098549 
L 159.134248 265.098549 
L 159.134248 264.524897 
L 159.807898 264.524897 
L 159.842643 263.377593 
L 160.456491 263.377593 
L 160.537682 262.23029 
L 161.114123 262.23029 
L 161.114123 261.656638 
L 161.311231 261.656638 
L 161.311231 261.082987 
L 161.551152 261.082987 
L 161.551152 260.509335 
L 164.113737 260.509335 
L 164.113737 259.935683 
L 164.283689 259.935683 
L 164.283689 259.362031 
L 164.596065 259.362031 
L 164.596065 258.78838 
L 164.753922 258.78838 
L 164.753922 258.214728 
L 165.168018 258.214728 
L 165.168018 257.641076 
L 165.778348 257.641076 
L 165.778348 257.067425 
L 166.023581 257.067425 
L 166.023581 256.493773 
L 166.517469 256.493773 
L 166.517469 255.920121 
L 166.978005 255.920121 
L 167.069981 254.772818 
L 167.181018 254.772818 
L 167.181018 254.199166 
L 167.706898 254.199166 
L 167.706898 253.625514 
L 167.976454 253.625514 
L 167.976454 253.051863 
L 168.171308 253.051863 
L 168.22045 251.904559 
L 168.60868 251.904559 
L 168.60868 251.330907 
L 168.979647 251.330907 
L 168.979647 250.757256 
L 169.805465 250.757256 
L 169.911564 249.609952 
L 170.313308 249.609952 
L 170.313308 249.036301 
L 170.448791 249.036301 
L 170.448791 248.462649 
L 170.623359 248.462649 
L 170.623359 247.888997 
L 170.996138 247.888997 
L 170.996138 247.315345 
L 171.183463 247.315345 
L 171.183463 246.741694 
L 171.542045 246.741694 
L 171.542045 246.168042 
L 172.279183 246.168042 
L 172.354358 245.020738 
L 172.436436 245.020738 
L 172.436436 244.447087 
L 172.798725 244.447087 
L 172.798725 243.873435 
L 173.007413 243.873435 
L 173.014404 242.726132 
L 173.686283 242.726132 
L 173.740004 241.578828 
L 173.87137 241.578828 
L 173.977519 239.857873 
L 174.028154 239.857873 
L 174.124612 238.71057 
L 174.246612 238.71057 
L 174.302965 237.563266 
L 174.588422 237.563266 
L 174.596935 236.415963 
L 174.715685 236.415963 
L 174.789496 235.268659 
L 174.915306 235.268659 
L 175.011149 233.547704 
L 175.114733 233.547704 
L 175.176589 232.400401 
L 175.309863 232.400401 
L 175.309863 231.826749 
L 175.553262 231.826749 
L 175.555276 230.679446 
L 175.801256 230.679446 
L 175.801256 230.105794 
L 175.921971 230.105794 
L 175.963336 228.384839 
L 176.12977 228.384839 
L 176.157031 227.237535 
L 176.300422 227.237535 
L 176.363988 226.090232 
L 176.415825 226.090232 
L 176.415825 225.51658 
L 176.591307 225.51658 
L 176.685942 224.369277 
L 176.744358 224.369277 
L 176.84004 223.221973 
L 176.901672 223.221973 
L 176.957514 221.501018 
L 177.02614 221.501018 
L 177.02614 220.927366 
L 177.171768 220.927366 
L 177.272441 218.632759 
L 177.305262 218.632759 
L 177.350746 216.911804 
L 177.44678 216.911804 
L 177.542289 213.469894 
L 177.606866 213.469894 
L 177.703285 210.601635 
L 177.756621 210.601635 
L 177.841622 208.307029 
L 177.933241 208.307029 
L 178.017387 206.012422 
L 178.059309 206.012422 
L 178.165407 203.144163 
L 178.206975 203.144163 
L 178.276035 201.423208 
L 178.329368 201.423208 
L 178.428718 197.981298 
L 178.52071 197.981298 
L 178.52071 197.407646 
L 178.651051 197.407646 
L 178.736847 193.965736 
L 178.837246 193.965736 
L 178.945363 190.523825 
L 178.96525 190.523825 
L 179.072579 187.655567 
L 179.154693 187.655567 
L 179.221739 184.213656 
L 179.269007 184.213656 
L 179.356682 181.345398 
L 179.387427 181.345398 
L 179.480944 176.756184 
L 179.505048 176.756184 
L 179.607519 172.740622 
L 179.617095 172.740622 
L 179.687158 169.872363 
L 179.733182 169.872363 
L 179.788568 167.004105 
L 179.889391 167.004105 
L 179.955241 162.414891 
L 180.033312 162.414891 
L 180.047327 161.267588 
L 180.155954 161.267588 
L 180.194586 158.399329 
L 180.288491 158.399329 
L 180.397157 152.662812 
L 180.423075 152.662812 
L 180.52788 149.220902 
L 180.571741 149.220902 
L 180.680163 146.926295 
L 180.729632 146.926295 
L 180.822195 143.484384 
L 180.862352 143.484384 
L 180.967511 138.321519 
L 181.007335 138.321519 
L 181.095509 134.305957 
L 181.120411 134.305957 
L 181.216753 131.437698 
L 181.232758 131.437698 
L 181.341496 129.143091 
L 181.344386 129.143091 
L 181.39345 127.995788 
L 181.498329 127.995788 
L 181.498329 127.422136 
L 181.643823 127.422136 
L 181.741562 125.127529 
L 181.76838 125.127529 
L 181.876642 122.832923 
L 181.938206 122.832923 
L 182.03848 121.111967 
L 182.057911 121.111967 
L 182.151983 118.243709 
L 182.318132 118.243709 
L 182.424403 115.949102 
L 182.447478 115.949102 
L 182.459683 114.801798 
L 182.675235 114.801798 
L 182.771371 113.654495 
L 182.956798 113.654495 
L 183.056639 110.786236 
L 183.077586 110.786236 
L 183.11157 109.638933 
L 183.193644 109.638933 
L 183.283093 107.344326 
L 183.31926 107.344326 
L 183.360503 105.623371 
L 183.452945 105.623371 
L 183.516853 103.902416 
L 183.621158 103.902416 
L 183.713493 101.607809 
L 183.753815 101.607809 
L 183.822902 100.460506 
L 183.924151 100.460506 
L 184.021099 98.73955 
L 184.039681 98.73955 
L 184.116277 94.723988 
L 184.286789 94.723988 
L 184.36231 93.003033 
L 184.452022 93.003033 
L 184.544884 91.282078 
L 184.57973 91.282078 
L 184.663556 88.987471 
L 184.723186 88.987471 
L 184.81225 86.692864 
L 184.859565 86.692864 
L 184.950287 84.971909 
L 184.996058 84.971909 
L 185.049891 83.824606 
L 185.122185 83.824606 
L 185.143118 82.677302 
L 185.340735 82.677302 
L 185.399243 80.956347 
L 185.45413 80.956347 
L 185.538411 79.235392 
L 185.584933 79.235392 
L 185.684367 76.367133 
L 185.709137 76.367133 
L 185.775392 74.646178 
L 185.848096 74.646178 
L 185.931609 73.498875 
L 185.968229 73.498875 
L 185.968229 72.925223 
L 186.176491 72.925223 
L 186.258451 70.630616 
L 186.312877 70.630616 
L 186.376882 68.909661 
L 186.425543 68.909661 
L 186.507417 67.762358 
L 186.56643 67.762358 
L 186.666828 66.615054 
L 186.735916 66.615054 
L 186.788874 65.467751 
L 186.849052 65.467751 
L 186.921621 63.746796 
L 187.012694 63.746796 
L 187.106409 61.452189 
L 187.243983 61.452189 
L 187.325189 59.731234 
L 187.403978 59.731234 
L 187.512875 56.289323 
L 187.595871 56.289323 
L 187.673448 55.14202 
L 187.783678 55.14202 
L 187.875338 53.994716 
L 187.950696 53.994716 
L 188.017846 52.273761 
L 188.068039 52.273761 
L 188.153332 49.979154 
L 188.2275 49.979154 
L 188.329453 48.258199 
L 188.397092 48.258199 
L 188.495185 46.537244 
L 188.531588 46.537244 
L 188.62893 43.668985 
L 188.646051 43.668985 
L 188.739921 41.374379 
L 188.776761 41.374379 
L 188.869931 37.932468 
L 218.801251 37.932468 
L 218.801251 37.358817 
L 219.186476 37.358817 
L 219.186476 36.785165 
L 219.441193 36.785165 
L 219.541885 34.490558 
L 219.560468 34.490558 
L 219.604826 33.343255 
L 219.683104 33.343255 
L 219.736107 31.622299 
L 219.810138 31.622299 
L 219.916009 29.327692 
L 219.924552 29.327692 
L 220.028633 25.31213 
L 220.060207 25.31213 
L 220.164108 21.296568 
L 220.174713 21.296568 
L 220.236658 18.42831 
L 220.294203 18.42831 
L 220.401648 16.707355 
L 220.448678 16.707355 
L 220.505835 15.560051 
L 220.615029 15.560051 
L 220.615029 14.9864 
L 220.787035 14.9864 
L 220.883863 12.691793 
L 220.972561 12.691793 
L 221.063181 11.544489 
L 221.162469 11.544489 
L 221.188969 9.823534 
L 231.049434 9.823534 
L 231.154754 8.676231 
L 231.238786 8.676231 
L 231.261094 7.528927 
L 231.840317 7.528927 
L 231.840317 6.955275 
L 238.151294 6.955275 
L 238.151294 6.381624 
L 338.688 6.381624 
L 338.688 6.381624 
" style="fill:none;stroke:#ff7500;stroke-linecap:square;stroke-width:1.5;"/>
   </g>
   <g id="line2d_41">
    <defs>
     <path d="M 0 -6 
L -1.347084 -1.854102 
L -5.706339 -1.854102 
L -2.179628 0.708204 
L -3.526712 4.854102 
L -0 2.291796 
L 3.526712 4.854102 
L 2.179628 0.708204 
L 5.706339 -1.854102 
L 1.347084 -1.854102 
z
" id="m60a76f1510" style="stroke:#ff7500;stroke-linejoin:bevel;stroke-width:1.5;"/>
    </defs>
    <g>
     <use style="fill-opacity:0;stroke:#ff7500;stroke-linejoin:bevel;stroke-width:1.5;" x="177.756621" xlink:href="#m60a76f1510" y="210.601635"/>
     <use style="fill-opacity:0;stroke:#ff7500;stroke-linejoin:bevel;stroke-width:1.5;" x="220.876376" xlink:href="#m60a76f1510" y="13.839096"/>
     <use style="fill-opacity:0;stroke:#ff7500;stroke-linejoin:bevel;stroke-width:1.5;" x="238.151294" xlink:href="#m60a76f1510" y="6.381624"/>
     <use style="fill-opacity:0;stroke:#ff7500;stroke-linejoin:bevel;stroke-width:1.5;" x="238.151294" xlink:href="#m60a76f1510" y="6.381624"/>
     <use style="fill-opacity:0;stroke:#ff7500;stroke-linejoin:bevel;stroke-width:1.5;" x="338.688" xlink:href="#m60a76f1510" y="6.381624"/>
    </g>
   </g>
   <g id="line2d_42">
    <path style="fill:none;stroke:#ff7500;stroke-linecap:square;stroke-width:1.5;"/>
    <g/>
   </g>
   <g id="line2d_43">
    <path clip-path="url(#p339dddddac)" d="M 218.222063 37.932468 
" style="fill:none;stroke:#ff7500;stroke-linecap:square;stroke-width:1.5;"/>
    <defs>
     <path d="M -12 12 
L 12 -12 
M -12 -12 
L 12 12 
" id="mc56908de7e" style="stroke:#ff7500;"/>
    </defs>
    <g clip-path="url(#p339dddddac)">
     <use style="fill:#ff7500;stroke:#ff7500;" x="218.222063" xlink:href="#mc56908de7e" y="37.932468"/>
    </g>
   </g>
   <g id="line2d_44">
    <defs>
     <path d="M 0 1.5 
C 0.397805 1.5 0.77937 1.341951 1.06066 1.06066 
C 1.341951 0.77937 1.5 0.397805 1.5 0 
C 1.5 -0.397805 1.341951 -0.77937 1.06066 -1.06066 
C 0.77937 -1.341951 0.397805 -1.5 0 -1.5 
C -0.397805 -1.5 -0.77937 -1.341951 -1.06066 -1.06066 
C -1.341951 -0.77937 -1.5 -0.397805 -1.5 0 
C -1.5 0.397805 -1.341951 0.77937 -1.06066 1.06066 
C -0.77937 1.341951 -0.397805 1.5 0 1.5 
z
" id="m95be720e5b" style="stroke:#6495ed;"/>
    </defs>
    <g>
     <use style="fill:#6495ed;stroke:#6495ed;" x="186.695559" xlink:href="#m95be720e5b" y="6.381624"/>
     <use style="fill:#6495ed;stroke:#6495ed;" x="186.695559" xlink:href="#m95be720e5b" y="6.381624"/>
    </g>
   </g>
   <g id="line2d_45">
    <path d="M 17.444571 298.944 
L 17.444571 287.470966 
L 84.213325 287.470966 
L 84.213325 286.897314 
L 89.418828 286.897314 
L 89.418828 286.323662 
L 98.771596 286.323662 
L 98.771596 285.75001 
L 98.935347 285.75001 
L 98.935347 285.176359 
L 102.728744 285.176359 
L 102.728744 284.029055 
L 104.114542 284.029055 
L 104.114542 283.455404 
L 105.398279 283.455404 
L 105.398279 282.881752 
L 106.382575 282.881752 
L 106.382575 282.3081 
L 106.593963 282.3081 
L 106.593963 281.734448 
L 108.198707 281.734448 
L 108.198707 281.160797 
L 108.764355 281.160797 
L 108.764355 280.587145 
L 109.579846 280.587145 
L 109.579846 280.013493 
L 109.756002 280.013493 
L 109.756002 279.439842 
L 110.443353 279.439842 
L 110.527398 278.292538 
L 110.694282 278.292538 
L 110.694282 277.145235 
L 111.974805 277.145235 
L 111.974805 276.571583 
L 114.080224 276.571583 
L 114.080224 275.997931 
L 115.141496 275.997931 
L 115.141496 275.42428 
L 115.269727 275.42428 
L 115.269727 274.850628 
L 115.460322 274.850628 
L 115.523393 273.129673 
L 115.648856 273.129673 
L 115.648856 272.556021 
L 116.797786 272.556021 
L 116.797786 271.982369 
L 117.030313 271.982369 
L 117.030313 271.408718 
L 118.786692 271.408718 
L 118.786692 270.261414 
L 120.286695 270.261414 
L 120.286695 269.114111 
L 122.018385 269.114111 
L 122.061712 267.966807 
L 122.947573 267.966807 
L 122.988655 265.6722 
L 123.633136 265.6722 
L 123.712047 264.524897 
L 124.482119 264.524897 
L 124.482119 263.951245 
L 125.291682 263.951245 
L 125.291682 263.377593 
L 126.573795 263.377593 
L 126.573795 262.803942 
L 127.892415 262.803942 
L 127.892415 262.23029 
L 129.175952 262.23029 
L 129.175952 261.656638 
L 129.770048 261.656638 
L 129.770048 261.082987 
L 130.317637 261.082987 
L 130.317637 260.509335 
L 131.287464 260.509335 
L 131.287464 259.935683 
L 132.612604 259.935683 
L 132.612604 259.362031 
L 133.800029 259.362031 
L 133.800029 258.78838 
L 133.931979 258.78838 
L 133.931979 258.214728 
L 135.917737 258.214728 
L 135.917737 257.641076 
L 136.757427 257.641076 
L 136.757427 257.067425 
L 143.778691 257.067425 
L 143.778691 256.493773 
L 143.976867 256.493773 
L 143.976867 255.920121 
L 144.59393 255.920121 
L 144.59393 255.346469 
L 144.853518 255.346469 
L 144.853518 254.772818 
L 146.538004 254.772818 
L 146.538004 254.199166 
L 147.509976 254.199166 
L 147.509976 253.625514 
L 149.548376 253.625514 
L 149.548376 253.051863 
L 150.120495 253.051863 
L 150.129152 251.904559 
L 151.413504 251.904559 
L 151.413504 251.330907 
L 152.122515 251.330907 
L 152.199544 249.609952 
L 152.26858 249.609952 
L 152.26858 249.036301 
L 153.01047 249.036301 
L 153.01047 248.462649 
L 153.587744 248.462649 
L 153.587744 247.315345 
L 154.015422 247.315345 
L 154.015422 246.741694 
L 154.533999 246.741694 
L 154.621179 245.59439 
L 155.425155 245.59439 
L 155.425155 245.020738 
L 155.785523 245.020738 
L 155.785523 244.447087 
L 156.49067 244.447087 
L 156.556648 243.299783 
L 157.104709 243.299783 
L 157.104709 242.726132 
L 157.854169 242.726132 
L 157.854169 242.15248 
L 158.184468 242.15248 
L 158.271501 241.005176 
L 158.879352 241.005176 
L 158.98905 239.857873 
L 159.303838 239.857873 
L 159.380382 238.71057 
L 159.426147 238.71057 
L 159.426147 238.136918 
L 159.577838 238.136918 
L 159.577838 237.563266 
L 159.753159 237.563266 
L 159.807898 236.415963 
L 160.030058 236.415963 
L 160.132771 234.121356 
L 160.346039 234.121356 
L 160.346039 233.547704 
L 160.48519 233.547704 
L 160.48519 232.974052 
L 160.661129 232.974052 
L 160.717812 231.253097 
L 160.970627 231.253097 
L 160.970627 230.679446 
L 161.155563 230.679446 
L 161.155563 230.105794 
L 161.279295 230.105794 
L 161.279295 229.532142 
L 161.573617 229.532142 
L 161.573617 228.95849 
L 161.738962 228.95849 
L 161.761186 227.811187 
L 161.867469 227.811187 
L 161.867469 227.237535 
L 162.273306 227.237535 
L 162.273306 226.663884 
L 162.393666 226.663884 
L 162.491916 224.942928 
L 162.534461 224.942928 
L 162.534461 224.369277 
L 162.653039 224.369277 
L 162.678343 223.221973 
L 162.979172 223.221973 
L 163.04945 222.07467 
L 163.127663 222.07467 
L 163.17688 220.927366 
L 163.254524 220.927366 
L 163.254524 220.353715 
L 163.621681 220.353715 
L 163.621681 219.780063 
L 163.733114 219.780063 
L 163.796472 218.059108 
L 163.89894 218.059108 
L 163.926426 216.338153 
L 164.055418 216.338153 
L 164.098204 214.617197 
L 164.210504 214.617197 
L 164.268307 212.896242 
L 164.444386 212.896242 
L 164.486229 211.748939 
L 164.645079 211.748939 
L 164.645079 211.175287 
L 164.980675 211.175287 
L 165.080107 209.454332 
L 165.335285 209.454332 
L 165.335285 208.88068 
L 165.522458 208.88068 
L 165.522458 208.307029 
L 165.668633 208.307029 
L 165.757166 206.012422 
L 166.299688 206.012422 
L 166.299688 205.43877 
L 166.675688 205.43877 
L 166.782596 204.291467 
L 166.964826 204.291467 
L 166.964826 203.717815 
L 167.265454 203.717815 
L 167.265454 203.144163 
L 167.417059 203.144163 
L 167.439526 201.423208 
L 167.615054 201.423208 
L 167.653117 200.275904 
L 167.920379 200.275904 
L 167.920379 199.702253 
L 168.118942 199.702253 
L 168.128195 198.554949 
L 168.626667 198.554949 
L 168.725271 197.407646 
L 168.82332 197.407646 
L 168.900184 194.539387 
L 169.210094 194.539387 
L 169.241941 193.392084 
L 169.53167 193.392084 
L 169.608314 192.24478 
L 169.933819 192.24478 
L 169.933819 191.671129 
L 170.25063 191.671129 
L 170.25063 191.097477 
L 170.424481 191.097477 
L 170.451489 189.950174 
L 170.690039 189.950174 
L 170.769719 188.80287 
L 170.875396 188.80287 
L 170.912232 187.655567 
L 171.284097 187.655567 
L 171.345738 185.36096 
L 171.511597 185.36096 
L 171.600256 183.640005 
L 171.696007 183.640005 
L 171.776234 182.492701 
L 171.826189 182.492701 
L 171.826189 181.91905 
L 172.068921 181.91905 
L 172.078757 180.771746 
L 172.198801 180.771746 
L 172.284043 179.624443 
L 172.342255 179.624443 
L 172.342255 179.050791 
L 172.465313 179.050791 
L 172.494143 177.903487 
L 172.725446 177.903487 
L 172.836426 176.756184 
L 172.850543 176.756184 
L 172.953721 175.035229 
L 173.014404 175.035229 
L 173.121251 173.314274 
L 173.135139 173.314274 
L 173.135139 172.740622 
L 173.250449 172.740622 
L 173.360433 168.72506 
L 173.362717 168.72506 
L 173.362717 168.151408 
L 173.485609 168.151408 
L 173.542212 166.430453 
L 173.681799 166.430453 
L 173.681799 165.856801 
L 173.795789 165.856801 
L 173.87137 164.135846 
L 173.933369 164.135846 
L 174.03255 162.988543 
L 174.045731 162.988543 
L 174.15301 161.267588 
L 174.161738 161.267588 
L 174.266139 157.825677 
L 174.313782 157.825677 
L 174.313782 157.252026 
L 174.432321 157.252026 
L 174.466655 154.383767 
L 174.550061 154.383767 
L 174.656411 152.08916 
L 174.679722 152.08916 
L 174.789496 149.220902 
L 174.816832 149.220902 
L 174.846223 147.499946 
L 174.954957 147.499946 
L 174.992439 145.778991 
L 175.118863 145.778991 
L 175.219758 141.763429 
L 175.431987 141.763429 
L 175.478575 140.042474 
L 175.543188 140.042474 
L 175.647675 136.600564 
L 175.697687 136.600564 
L 175.697687 136.026912 
L 175.840927 136.026912 
L 175.927886 134.305957 
L 176.03402 134.305957 
L 176.135616 130.864047 
L 176.15314 130.864047 
L 176.24824 127.995788 
L 176.327418 127.995788 
L 176.417742 125.701181 
L 176.440729 125.701181 
L 176.543796 123.980226 
L 176.553308 123.980226 
L 176.650041 121.685619 
L 176.668945 121.685619 
L 176.774433 116.522754 
L 176.830682 116.522754 
L 176.920306 111.93354 
L 176.94264 111.93354 
L 177.024289 108.49163 
L 177.094497 108.49163 
L 177.202947 105.623371 
L 177.230412 105.623371 
L 177.303441 100.460506 
L 177.352563 100.460506 
L 177.46123 95.29764 
L 177.52071 95.29764 
L 177.624761 93.003033 
L 177.644425 93.003033 
L 177.728195 86.692864 
L 177.756621 86.692864 
L 177.843388 83.824606 
L 177.869864 83.824606 
L 177.950805 80.382695 
L 177.989384 80.382695 
L 177.989384 79.809044 
L 178.123741 79.809044 
L 178.21908 76.367133 
L 178.267417 76.367133 
L 178.370547 74.646178 
L 178.387677 74.646178 
L 178.435549 71.77792 
L 178.580077 71.77792 
L 178.644304 68.336009 
L 178.696525 68.336009 
L 178.765352 66.041402 
L 178.815542 66.041402 
L 178.885566 61.452189 
L 178.927114 61.452189 
L 179.036327 55.715672 
L 179.090678 55.715672 
L 179.154693 53.421065 
L 179.223371 53.421065 
L 179.288528 51.700109 
L 179.371252 51.700109 
L 179.450364 48.258199 
L 179.497017 48.258199 
L 179.554757 44.242637 
L 179.623476 44.242637 
L 179.731597 42.521682 
L 179.755358 42.521682 
L 179.813828 41.374379 
L 179.870531 41.374379 
L 179.955241 38.50612 
L 179.981824 38.50612 
L 180.020844 36.785165 
L 180.10638 36.785165 
L 180.16678 33.916906 
L 180.228512 33.916906 
L 180.313038 31.622299 
L 180.351324 31.622299 
L 180.423075 29.327692 
L 180.480872 29.327692 
L 180.571741 28.180389 
L 180.630553 28.180389 
L 180.737115 26.459434 
L 180.778961 26.459434 
L 180.834104 24.738479 
L 182.017637 24.738479 
L 182.017637 24.164827 
L 182.998906 24.164827 
L 182.998906 23.591175 
L 183.31926 23.591175 
L 183.31926 23.017524 
L 183.542351 23.017524 
L 183.542351 22.443872 
L 183.679399 22.443872 
L 183.679399 21.87022 
L 184.039681 21.87022 
L 184.039681 21.296568 
L 184.499118 21.296568 
L 184.499118 20.722917 
L 184.659972 20.722917 
L 184.659972 20.149265 
L 184.782612 20.149265 
L 184.782612 19.575613 
L 184.912642 19.575613 
L 184.912642 19.001962 
L 185.184908 19.001962 
L 185.184908 18.42831 
L 185.318888 18.42831 
L 185.318888 17.854658 
L 185.479229 17.854658 
L 185.479229 17.281006 
L 185.59173 17.281006 
L 185.696756 15.560051 
L 185.712512 15.560051 
L 185.785477 14.412748 
L 185.83693 14.412748 
L 185.901591 13.265444 
L 186.023567 13.265444 
L 186.05448 12.118141 
L 186.184157 12.118141 
L 186.275886 10.397186 
L 186.305268 10.397186 
L 186.359548 9.249882 
L 186.484833 9.249882 
L 186.554643 7.528927 
L 186.612428 7.528927 
L 186.695559 6.381624 
L 338.688 6.381624 
L 338.688 6.381624 
" style="fill:none;stroke:#6495ed;stroke-linecap:square;stroke-width:1.5;"/>
   </g>
   <g id="line2d_46">
    <defs>
     <path d="M -0 6 
L 6 -6 
L -6 -6 
z
" id="m02045ebe72" style="stroke:#6495ed;stroke-linejoin:miter;stroke-width:1.5;"/>
    </defs>
    <g>
     <use style="fill-opacity:0;stroke:#6495ed;stroke-linejoin:miter;stroke-width:1.5;" x="130.317637" xlink:href="#m02045ebe72" y="261.082987"/>
     <use style="fill-opacity:0;stroke:#6495ed;stroke-linejoin:miter;stroke-width:1.5;" x="175.555276" xlink:href="#m02045ebe72" y="138.321519"/>
     <use style="fill-opacity:0;stroke:#6495ed;stroke-linejoin:miter;stroke-width:1.5;" x="186.695559" xlink:href="#m02045ebe72" y="6.955275"/>
     <use style="fill-opacity:0;stroke:#6495ed;stroke-linejoin:miter;stroke-width:1.5;" x="186.695559" xlink:href="#m02045ebe72" y="6.381624"/>
     <use style="fill-opacity:0;stroke:#6495ed;stroke-linejoin:miter;stroke-width:1.5;" x="186.695559" xlink:href="#m02045ebe72" y="6.381624"/>
     <use style="fill-opacity:0;stroke:#6495ed;stroke-linejoin:miter;stroke-width:1.5;" x="338.688" xlink:href="#m02045ebe72" y="6.381624"/>
    </g>
   </g>
   <g id="line2d_47">
    <path style="fill:none;stroke:#6495ed;stroke-linecap:square;stroke-width:1.5;"/>
    <g/>
   </g>
   <g id="line2d_48">
    <path d="M 338.688 264.524897 
L 369.60768 293.092752 
" style="fill:none;stroke:#ff00ff;stroke-linecap:square;stroke-width:1.5;"/>
    <g>
     <use style="fill-opacity:0;stroke:#ff00ff;stroke-linejoin:miter;stroke-width:1.5;" x="338.688" xlink:href="#mef6647b501" y="264.524897"/>
     <use style="fill-opacity:0;stroke:#ff00ff;stroke-linejoin:miter;stroke-width:1.5;" x="369.60768" xlink:href="#mef6647b501" y="293.092752"/>
    </g>
   </g>
   <g id="line2d_49">
    <path d="M 338.688 161.267588 
L 369.60768 199.472792 
" style="fill:none;stroke:#000080;stroke-linecap:square;stroke-width:1.5;"/>
    <g>
     <use style="fill-opacity:0;stroke:#000080;stroke-width:1.5;" x="338.688" xlink:href="#mf691bc7532" y="161.267588"/>
     <use style="fill-opacity:0;stroke:#000080;stroke-width:1.5;" x="369.60768" xlink:href="#mf691bc7532" y="199.472792"/>
    </g>
   </g>
   <g id="line2d_50">
    <path d="M 338.688 6.381624 
L 369.60768 105.852832 
" style="fill:none;stroke:#ff7500;stroke-linecap:square;stroke-width:1.5;"/>
    <g>
     <use style="fill-opacity:0;stroke:#ff7500;stroke-linejoin:bevel;stroke-width:1.5;" x="338.688" xlink:href="#m60a76f1510" y="6.381624"/>
     <use style="fill-opacity:0;stroke:#ff7500;stroke-linejoin:bevel;stroke-width:1.5;" x="369.60768" xlink:href="#m60a76f1510" y="105.852832"/>
    </g>
   </g>
   <g id="line2d_51">
    <path d="M 338.688 6.381624 
L 369.60768 12.232871 
" style="fill:none;stroke:#6495ed;stroke-linecap:square;stroke-width:1.5;"/>
    <g>
     <use style="fill-opacity:0;stroke:#6495ed;stroke-linejoin:miter;stroke-width:1.5;" x="338.688" xlink:href="#m02045ebe72" y="6.381624"/>
     <use style="fill-opacity:0;stroke:#6495ed;stroke-linejoin:miter;stroke-width:1.5;" x="369.60768" xlink:href="#m02045ebe72" y="12.232871"/>
    </g>
   </g>
   <g id="line2d_52">
    <path d="M 338.688 298.944 
L 338.688 6.381624 
" style="fill:none;stroke:#000000;stroke-linecap:square;stroke-width:1.5;"/>
   </g>
   <g id="patch_3">
    <path d="M 57.6 298.944 
L 57.6 3.456 
" style="fill:none;stroke:#000000;stroke-linecap:square;stroke-linejoin:miter;stroke-width:0.8;"/>
   </g>
   <g id="patch_4">
    <path d="M 338.688 298.944 
L 338.688 3.456 
" style="fill:none;stroke:#000000;stroke-linecap:square;stroke-linejoin:miter;stroke-width:0.8;"/>
   </g>
   <g id="patch_5">
    <path d="M 57.6 298.944 
L 338.688 298.944 
" style="fill:none;stroke:#000000;stroke-linecap:square;stroke-linejoin:miter;stroke-width:0.8;"/>
   </g>
   <g id="patch_6">
    <path d="M 57.6 3.456 
L 338.688 3.456 
" style="fill:none;stroke:#000000;stroke-linecap:square;stroke-linejoin:miter;stroke-width:0.8;"/>
   </g>
   <g id="text_13">
    <!-- f7 -->
    <g transform="translate(375.22944 297.78369)scale(0.17 -0.17)">
     <defs>
      <path d="M 8.203125 72.90625 
L 55.078125 72.90625 
L 55.078125 68.703125 
L 28.609375 0 
L 18.3125 0 
L 43.21875 64.59375 
L 8.203125 64.59375 
z
" id="DejaVuSans-55"/>
     </defs>
     <use xlink:href="#DejaVuSans-102"/>
     <use x="35.205078" xlink:href="#DejaVuSans-55"/>
    </g>
   </g>
   <g id="text_14">
    <!-- f6 -->
    <g transform="translate(375.22944 204.16373)scale(0.17 -0.17)">
     <use xlink:href="#DejaVuSans-102"/>
     <use x="35.205078" xlink:href="#DejaVuSans-54"/>
    </g>
   </g>
   <g id="text_15">
    <!-- f8 -->
    <g transform="translate(375.22944 110.543769)scale(0.17 -0.17)">
     <use xlink:href="#DejaVuSans-102"/>
     <use x="35.205078" xlink:href="#DejaVuSans-56"/>
    </g>
   </g>
   <g id="text_16">
    <!-- f9 -->
    <g transform="translate(375.22944 16.923809)scale(0.17 -0.17)">
     <defs>
      <path d="M 10.984375 1.515625 
L 10.984375 10.5 
Q 14.703125 8.734375 18.5 7.8125 
Q 22.3125 6.890625 25.984375 6.890625 
Q 35.75 6.890625 40.890625 13.453125 
Q 46.046875 20.015625 46.78125 33.40625 
Q 43.953125 29.203125 39.59375 26.953125 
Q 35.25 24.703125 29.984375 24.703125 
Q 19.046875 24.703125 12.671875 31.3125 
Q 6.296875 37.9375 6.296875 49.421875 
Q 6.296875 60.640625 12.9375 67.421875 
Q 19.578125 74.21875 30.609375 74.21875 
Q 43.265625 74.21875 49.921875 64.515625 
Q 56.59375 54.828125 56.59375 36.375 
Q 56.59375 19.140625 48.40625 8.859375 
Q 40.234375 -1.421875 26.421875 -1.421875 
Q 22.703125 -1.421875 18.890625 -0.6875 
Q 15.09375 0.046875 10.984375 1.515625 
z
M 30.609375 32.421875 
Q 37.25 32.421875 41.125 36.953125 
Q 45.015625 41.5 45.015625 49.421875 
Q 45.015625 57.28125 41.125 61.84375 
Q 37.25 66.40625 30.609375 66.40625 
Q 23.96875 66.40625 20.09375 61.84375 
Q 16.21875 57.28125 16.21875 49.421875 
Q 16.21875 41.5 20.09375 36.953125 
Q 23.96875 32.421875 30.609375 32.421875 
z
" id="DejaVuSans-57"/>
     </defs>
     <use xlink:href="#DejaVuSans-102"/>
     <use x="35.205078" xlink:href="#DejaVuSans-57"/>
    </g>
   </g>
   <g id="text_17">
    <!-- bbob -->
    <g transform="translate(60.41088 14.161286)scale(0.102 -0.102)">
     <defs>
      <path d="M 48.6875 27.296875 
Q 48.6875 37.203125 44.609375 42.84375 
Q 40.53125 48.484375 33.40625 48.484375 
Q 26.265625 48.484375 22.1875 42.84375 
Q 18.109375 37.203125 18.109375 27.296875 
Q 18.109375 17.390625 22.1875 11.75 
Q 26.265625 6.109375 33.40625 6.109375 
Q 40.53125 6.109375 44.609375 11.75 
Q 48.6875 17.390625 48.6875 27.296875 
z
M 18.109375 46.390625 
Q 20.953125 51.265625 25.265625 53.625 
Q 29.59375 56 35.59375 56 
Q 45.5625 56 51.78125 48.09375 
Q 58.015625 40.1875 58.015625 27.296875 
Q 58.015625 14.40625 51.78125 6.484375 
Q 45.5625 -1.421875 35.59375 -1.421875 
Q 29.59375 -1.421875 25.265625 0.953125 
Q 20.953125 3.328125 18.109375 8.203125 
L 18.109375 0 
L 9.078125 0 
L 9.078125 75.984375 
L 18.109375 75.984375 
z
" id="DejaVuSans-98"/>
     </defs>
     <use xlink:href="#DejaVuSans-98"/>
     <use x="63.476562" xlink:href="#DejaVuSans-98"/>
     <use x="126.953125" xlink:href="#DejaVuSans-111"/>
     <use x="188.134766" xlink:href="#DejaVuSans-98"/>
    </g>
    <!-- Misc. moderate functions, 10-D -->
    <g transform="translate(60.41088 25.583055)scale(0.102 -0.102)">
     <defs>
      <path d="M 9.8125 72.90625 
L 24.515625 72.90625 
L 43.109375 23.296875 
L 61.8125 72.90625 
L 76.515625 72.90625 
L 76.515625 0 
L 66.890625 0 
L 66.890625 64.015625 
L 48.09375 14.015625 
L 38.1875 14.015625 
L 19.390625 64.015625 
L 19.390625 0 
L 9.8125 0 
z
" id="DejaVuSans-77"/>
      <path d="M 19.671875 64.796875 
L 19.671875 8.109375 
L 31.59375 8.109375 
Q 46.6875 8.109375 53.6875 14.9375 
Q 60.6875 21.78125 60.6875 36.53125 
Q 60.6875 51.171875 53.6875 57.984375 
Q 46.6875 64.796875 31.59375 64.796875 
z
M 9.8125 72.90625 
L 30.078125 72.90625 
Q 51.265625 72.90625 61.171875 64.09375 
Q 71.09375 55.28125 71.09375 36.53125 
Q 71.09375 17.671875 61.125 8.828125 
Q 51.171875 0 30.078125 0 
L 9.8125 0 
z
" id="DejaVuSans-68"/>
     </defs>
     <use xlink:href="#DejaVuSans-77"/>
     <use x="86.279297" xlink:href="#DejaVuSans-105"/>
     <use x="114.0625" xlink:href="#DejaVuSans-115"/>
     <use x="166.162109" xlink:href="#DejaVuSans-99"/>
     <use x="221.142578" xlink:href="#DejaVuSans-46"/>
     <use x="252.929688" xlink:href="#DejaVuSans-32"/>
     <use x="284.716797" xlink:href="#DejaVuSans-109"/>
     <use x="382.128906" xlink:href="#DejaVuSans-111"/>
     <use x="443.310547" xlink:href="#DejaVuSans-100"/>
     <use x="506.787109" xlink:href="#DejaVuSans-101"/>
     <use x="568.310547" xlink:href="#DejaVuSans-114"/>
     <use x="609.423828" xlink:href="#DejaVuSans-97"/>
     <use x="670.703125" xlink:href="#DejaVuSans-116"/>
     <use x="709.912109" xlink:href="#DejaVuSans-101"/>
     <use x="771.435547" xlink:href="#DejaVuSans-32"/>
     <use x="803.222656" xlink:href="#DejaVuSans-102"/>
     <use x="838.427734" xlink:href="#DejaVuSans-117"/>
     <use x="901.806641" xlink:href="#DejaVuSans-110"/>
     <use x="965.185547" xlink:href="#DejaVuSans-99"/>
     <use x="1020.166016" xlink:href="#DejaVuSans-116"/>
     <use x="1059.375" xlink:href="#DejaVuSans-105"/>
     <use x="1087.158203" xlink:href="#DejaVuSans-111"/>
     <use x="1148.339844" xlink:href="#DejaVuSans-110"/>
     <use x="1211.71875" xlink:href="#DejaVuSans-115"/>
     <use x="1263.818359" xlink:href="#DejaVuSans-44"/>
     <use x="1295.605469" xlink:href="#DejaVuSans-32"/>
     <use x="1327.392578" xlink:href="#DejaVuSans-49"/>
     <use x="1391.015625" xlink:href="#DejaVuSans-48"/>
     <use x="1454.638672" xlink:href="#DejaVuSans-45"/>
     <use x="1490.722656" xlink:href="#DejaVuSans-68"/>
    </g>
    <!-- 51 targets: 100..1e-08 -->
    <g transform="translate(60.41088 37.004824)scale(0.102 -0.102)">
     <defs>
      <path d="M 10.796875 72.90625 
L 49.515625 72.90625 
L 49.515625 64.59375 
L 19.828125 64.59375 
L 19.828125 46.734375 
Q 21.96875 47.46875 24.109375 47.828125 
Q 26.265625 48.1875 28.421875 48.1875 
Q 40.625 48.1875 47.75 41.5 
Q 54.890625 34.8125 54.890625 23.390625 
Q 54.890625 11.625 47.5625 5.09375 
Q 40.234375 -1.421875 26.90625 -1.421875 
Q 22.3125 -1.421875 17.546875 -0.640625 
Q 12.796875 0.140625 7.71875 1.703125 
L 7.71875 11.625 
Q 12.109375 9.234375 16.796875 8.0625 
Q 21.484375 6.890625 26.703125 6.890625 
Q 35.15625 6.890625 40.078125 11.328125 
Q 45.015625 15.765625 45.015625 23.390625 
Q 45.015625 31 40.078125 35.4375 
Q 35.15625 39.890625 26.703125 39.890625 
Q 22.75 39.890625 18.8125 39.015625 
Q 14.890625 38.140625 10.796875 36.28125 
z
" id="DejaVuSans-53"/>
      <path d="M 11.71875 12.40625 
L 22.015625 12.40625 
L 22.015625 0 
L 11.71875 0 
z
M 11.71875 51.703125 
L 22.015625 51.703125 
L 22.015625 39.3125 
L 11.71875 39.3125 
z
" id="DejaVuSans-58"/>
     </defs>
     <use xlink:href="#DejaVuSans-53"/>
     <use x="63.623047" xlink:href="#DejaVuSans-49"/>
     <use x="127.246094" xlink:href="#DejaVuSans-32"/>
     <use x="159.033203" xlink:href="#DejaVuSans-116"/>
     <use x="198.242188" xlink:href="#DejaVuSans-97"/>
     <use x="259.521484" xlink:href="#DejaVuSans-114"/>
     <use x="298.884766" xlink:href="#DejaVuSans-103"/>
     <use x="362.361328" xlink:href="#DejaVuSans-101"/>
     <use x="423.884766" xlink:href="#DejaVuSans-116"/>
     <use x="463.09375" xlink:href="#DejaVuSans-115"/>
     <use x="515.193359" xlink:href="#DejaVuSans-58"/>
     <use x="548.884766" xlink:href="#DejaVuSans-32"/>
     <use x="580.671875" xlink:href="#DejaVuSans-49"/>
     <use x="644.294922" xlink:href="#DejaVuSans-48"/>
     <use x="707.917969" xlink:href="#DejaVuSans-48"/>
     <use x="771.541016" xlink:href="#DejaVuSans-46"/>
     <use x="803.328125" xlink:href="#DejaVuSans-46"/>
     <use x="835.115234" xlink:href="#DejaVuSans-49"/>
     <use x="898.738281" xlink:href="#DejaVuSans-101"/>
     <use x="960.261719" xlink:href="#DejaVuSans-45"/>
     <use x="996.345703" xlink:href="#DejaVuSans-48"/>
     <use x="1059.96875" xlink:href="#DejaVuSans-56"/>
    </g>
    <!-- 15 instances -->
    <g transform="translate(60.41088 48.426593)scale(0.102 -0.102)">
     <use xlink:href="#DejaVuSans-49"/>
     <use x="63.623047" xlink:href="#DejaVuSans-53"/>
     <use x="127.246094" xlink:href="#DejaVuSans-32"/>
     <use x="159.033203" xlink:href="#DejaVuSans-105"/>
     <use x="186.816406" xlink:href="#DejaVuSans-110"/>
     <use x="250.195312" xlink:href="#DejaVuSans-115"/>
     <use x="302.294922" xlink:href="#DejaVuSans-116"/>
     <use x="341.503906" xlink:href="#DejaVuSans-97"/>
     <use x="402.783203" xlink:href="#DejaVuSans-110"/>
     <use x="466.162109" xlink:href="#DejaVuSans-99"/>
     <use x="521.142578" xlink:href="#DejaVuSans-101"/>
     <use x="582.666016" xlink:href="#DejaVuSans-115"/>
    </g>
   </g>
   <g id="text_18">
    <!-- v2.4 -->
    <g style="fill:#808080;" transform="translate(187.233062 293.909432)scale(0.1 -0.1)">
     <use xlink:href="#DejaVuSans-118"/>
     <use x="59.179688" xlink:href="#DejaVuSans-50"/>
     <use x="122.802734" xlink:href="#DejaVuSans-46"/>
     <use x="154.589844" xlink:href="#DejaVuSans-52"/>
    </g>
   </g>
  </g>
 </g>
 <defs>
  <clipPath id="p339dddddac">
   <rect height="295.488" width="281.088" x="57.6" y="3.456"/>
  </clipPath>
 </defs>
</svg>
