<?xml version="1.0" encoding="utf-8" standalone="no"?>
<!DOCTYPE svg PUBLIC "-//W3C//DTD SVG 1.1//EN"
  "http://www.w3.org/Graphics/SVG/1.1/DTD/svg11.dtd">
<!-- Created with matplotlib (https://matplotlib.org/) -->
<svg height="345.6pt" version="1.1" viewBox="0 0 460.8 345.6" width="460.8pt" xmlns="http://www.w3.org/2000/svg" xmlns:xlink="http://www.w3.org/1999/xlink">
 <metadata>
  <rdf:RDF xmlns:cc="http://creativecommons.org/ns#" xmlns:dc="http://purl.org/dc/elements/1.1/" xmlns:rdf="http://www.w3.org/1999/02/22-rdf-syntax-ns#">
   <cc:Work>
    <dc:type rdf:resource="http://purl.org/dc/dcmitype/StillImage"/>
    <dc:date>2021-06-17T01:38:06.078993</dc:date>
    <dc:format>image/svg+xml</dc:format>
    <dc:creator>
     <cc:Agent>
      <dc:title>Matplotlib v3.3.4, https://matplotlib.org/</dc:title>
     </cc:Agent>
    </dc:creator>
   </cc:Work>
  </rdf:RDF>
 </metadata>
 <defs>
  <style type="text/css">*{stroke-linecap:butt;stroke-linejoin:round;}</style>
 </defs>
 <g id="figure_1">
  <g id="patch_1">
   <path d="M 0 345.6 
L 460.8 345.6 
L 460.8 0 
L 0 0 
z
" style="fill:#ffffff;"/>
  </g>
  <g id="axes_1">
   <g id="patch_2">
    <path d="M 57.6 298.944 
L 338.688 298.944 
L 338.688 27.648 
L 57.6 27.648 
z
" style="fill:#ffffff;"/>
   </g>
   <g id="matplotlib.axis_1">
    <g id="xtick_1">
     <g id="line2d_1">
      <path clip-path="url(#p5376205e18)" d="M 57.6 298.944 
L 57.6 27.648 
" style="fill:none;stroke:#b0b0b0;stroke-linecap:square;stroke-width:0.8;"/>
     </g>
     <g id="line2d_2">
      <defs>
       <path d="M 0 0 
L 0 3.5 
" id="m28b6211770" style="stroke:#000000;stroke-width:0.8;"/>
      </defs>
      <g>
       <use style="stroke:#000000;stroke-width:0.8;" x="57.6" xlink:href="#m28b6211770" y="298.944"/>
      </g>
     </g>
     <g id="text_1">
      <!-- 0 -->
      <g transform="translate(51.2375 321.140875)scale(0.2 -0.2)">
       <defs>
        <path d="M 31.78125 66.40625 
Q 24.171875 66.40625 20.328125 58.90625 
Q 16.5 51.421875 16.5 36.375 
Q 16.5 21.390625 20.328125 13.890625 
Q 24.171875 6.390625 31.78125 6.390625 
Q 39.453125 6.390625 43.28125 13.890625 
Q 47.125 21.390625 47.125 36.375 
Q 47.125 51.421875 43.28125 58.90625 
Q 39.453125 66.40625 31.78125 66.40625 
z
M 31.78125 74.21875 
Q 44.046875 74.21875 50.515625 64.515625 
Q 56.984375 54.828125 56.984375 36.375 
Q 56.984375 17.96875 50.515625 8.265625 
Q 44.046875 -1.421875 31.78125 -1.421875 
Q 19.53125 -1.421875 13.0625 8.265625 
Q 6.59375 17.96875 6.59375 36.375 
Q 6.59375 54.828125 13.0625 64.515625 
Q 19.53125 74.21875 31.78125 74.21875 
z
" id="DejaVuSans-48"/>
       </defs>
       <use xlink:href="#DejaVuSans-48"/>
      </g>
     </g>
    </g>
    <g id="xtick_2">
     <g id="line2d_3">
      <path clip-path="url(#p5376205e18)" d="M 137.910857 298.944 
L 137.910857 27.648 
" style="fill:none;stroke:#b0b0b0;stroke-linecap:square;stroke-width:0.8;"/>
     </g>
     <g id="line2d_4">
      <g>
       <use style="stroke:#000000;stroke-width:0.8;" x="137.910857" xlink:href="#m28b6211770" y="298.944"/>
      </g>
     </g>
     <g id="text_2">
      <!-- 2 -->
      <g transform="translate(131.548357 321.140875)scale(0.2 -0.2)">
       <defs>
        <path d="M 19.1875 8.296875 
L 53.609375 8.296875 
L 53.609375 0 
L 7.328125 0 
L 7.328125 8.296875 
Q 12.9375 14.109375 22.625 23.890625 
Q 32.328125 33.6875 34.8125 36.53125 
Q 39.546875 41.84375 41.421875 45.53125 
Q 43.3125 49.21875 43.3125 52.78125 
Q 43.3125 58.59375 39.234375 62.25 
Q 35.15625 65.921875 28.609375 65.921875 
Q 23.96875 65.921875 18.8125 64.3125 
Q 13.671875 62.703125 7.8125 59.421875 
L 7.8125 69.390625 
Q 13.765625 71.78125 18.9375 73 
Q 24.125 74.21875 28.421875 74.21875 
Q 39.75 74.21875 46.484375 68.546875 
Q 53.21875 62.890625 53.21875 53.421875 
Q 53.21875 48.921875 51.53125 44.890625 
Q 49.859375 40.875 45.40625 35.40625 
Q 44.1875 33.984375 37.640625 27.21875 
Q 31.109375 20.453125 19.1875 8.296875 
z
" id="DejaVuSans-50"/>
       </defs>
       <use xlink:href="#DejaVuSans-50"/>
      </g>
     </g>
    </g>
    <g id="xtick_3">
     <g id="line2d_5">
      <path clip-path="url(#p5376205e18)" d="M 218.221714 298.944 
L 218.221714 27.648 
" style="fill:none;stroke:#b0b0b0;stroke-linecap:square;stroke-width:0.8;"/>
     </g>
     <g id="line2d_6">
      <g>
       <use style="stroke:#000000;stroke-width:0.8;" x="218.221714" xlink:href="#m28b6211770" y="298.944"/>
      </g>
     </g>
     <g id="text_3">
      <!-- 4 -->
      <g transform="translate(211.859214 321.140875)scale(0.2 -0.2)">
       <defs>
        <path d="M 37.796875 64.3125 
L 12.890625 25.390625 
L 37.796875 25.390625 
z
M 35.203125 72.90625 
L 47.609375 72.90625 
L 47.609375 25.390625 
L 58.015625 25.390625 
L 58.015625 17.1875 
L 47.609375 17.1875 
L 47.609375 0 
L 37.796875 0 
L 37.796875 17.1875 
L 4.890625 17.1875 
L 4.890625 26.703125 
z
" id="DejaVuSans-52"/>
       </defs>
       <use xlink:href="#DejaVuSans-52"/>
      </g>
     </g>
    </g>
    <g id="xtick_4">
     <g id="line2d_7">
      <path clip-path="url(#p5376205e18)" d="M 298.532571 298.944 
L 298.532571 27.648 
" style="fill:none;stroke:#b0b0b0;stroke-linecap:square;stroke-width:0.8;"/>
     </g>
     <g id="line2d_8">
      <g>
       <use style="stroke:#000000;stroke-width:0.8;" x="298.532571" xlink:href="#m28b6211770" y="298.944"/>
      </g>
     </g>
     <g id="text_4">
      <!-- 6 -->
      <g transform="translate(292.170071 321.140875)scale(0.2 -0.2)">
       <defs>
        <path d="M 33.015625 40.375 
Q 26.375 40.375 22.484375 35.828125 
Q 18.609375 31.296875 18.609375 23.390625 
Q 18.609375 15.53125 22.484375 10.953125 
Q 26.375 6.390625 33.015625 6.390625 
Q 39.65625 6.390625 43.53125 10.953125 
Q 47.40625 15.53125 47.40625 23.390625 
Q 47.40625 31.296875 43.53125 35.828125 
Q 39.65625 40.375 33.015625 40.375 
z
M 52.59375 71.296875 
L 52.59375 62.3125 
Q 48.875 64.0625 45.09375 64.984375 
Q 41.3125 65.921875 37.59375 65.921875 
Q 27.828125 65.921875 22.671875 59.328125 
Q 17.53125 52.734375 16.796875 39.40625 
Q 19.671875 43.65625 24.015625 45.921875 
Q 28.375 48.1875 33.59375 48.1875 
Q 44.578125 48.1875 50.953125 41.515625 
Q 57.328125 34.859375 57.328125 23.390625 
Q 57.328125 12.15625 50.6875 5.359375 
Q 44.046875 -1.421875 33.015625 -1.421875 
Q 20.359375 -1.421875 13.671875 8.265625 
Q 6.984375 17.96875 6.984375 36.375 
Q 6.984375 53.65625 15.1875 63.9375 
Q 23.390625 74.21875 37.203125 74.21875 
Q 40.921875 74.21875 44.703125 73.484375 
Q 48.484375 72.75 52.59375 71.296875 
z
" id="DejaVuSans-54"/>
       </defs>
       <use xlink:href="#DejaVuSans-54"/>
      </g>
     </g>
    </g>
    <g id="xtick_5">
     <g id="line2d_9">
      <path clip-path="url(#p5376205e18)" d="M 97.755429 298.944 
L 97.755429 27.648 
" style="fill:none;stroke:#b0b0b0;stroke-linecap:square;stroke-width:0.8;"/>
     </g>
     <g id="line2d_10">
      <defs>
       <path d="M 0 0 
L 0 2 
" id="m395f7983fd" style="stroke:#000000;stroke-width:0.6;"/>
      </defs>
      <g>
       <use style="stroke:#000000;stroke-width:0.6;" x="97.755429" xlink:href="#m395f7983fd" y="298.944"/>
      </g>
     </g>
    </g>
    <g id="xtick_6">
     <g id="line2d_11">
      <path clip-path="url(#p5376205e18)" d="M 178.066286 298.944 
L 178.066286 27.648 
" style="fill:none;stroke:#b0b0b0;stroke-linecap:square;stroke-width:0.8;"/>
     </g>
     <g id="line2d_12">
      <g>
       <use style="stroke:#000000;stroke-width:0.6;" x="178.066286" xlink:href="#m395f7983fd" y="298.944"/>
      </g>
     </g>
    </g>
    <g id="xtick_7">
     <g id="line2d_13">
      <path clip-path="url(#p5376205e18)" d="M 258.377143 298.944 
L 258.377143 27.648 
" style="fill:none;stroke:#b0b0b0;stroke-linecap:square;stroke-width:0.8;"/>
     </g>
     <g id="line2d_14">
      <g>
       <use style="stroke:#000000;stroke-width:0.6;" x="258.377143" xlink:href="#m395f7983fd" y="298.944"/>
      </g>
     </g>
    </g>
    <g id="xtick_8">
     <g id="line2d_15">
      <path clip-path="url(#p5376205e18)" d="M 338.688 298.944 
L 338.688 27.648 
" style="fill:none;stroke:#b0b0b0;stroke-linecap:square;stroke-width:0.8;"/>
     </g>
     <g id="line2d_16">
      <g>
       <use style="stroke:#000000;stroke-width:0.6;" x="338.688" xlink:href="#m395f7983fd" y="298.944"/>
      </g>
     </g>
    </g>
    <g id="text_5">
     <!-- log10(# f-evals / dimension) -->
     <g transform="translate(77.764078 342.217594)scale(0.17 -0.17)">
      <defs>
       <path d="M 9.421875 75.984375 
L 18.40625 75.984375 
L 18.40625 0 
L 9.421875 0 
z
" id="DejaVuSans-108"/>
       <path d="M 30.609375 48.390625 
Q 23.390625 48.390625 19.1875 42.75 
Q 14.984375 37.109375 14.984375 27.296875 
Q 14.984375 17.484375 19.15625 11.84375 
Q 23.34375 6.203125 30.609375 6.203125 
Q 37.796875 6.203125 41.984375 11.859375 
Q 46.1875 17.53125 46.1875 27.296875 
Q 46.1875 37.015625 41.984375 42.703125 
Q 37.796875 48.390625 30.609375 48.390625 
z
M 30.609375 56 
Q 42.328125 56 49.015625 48.375 
Q 55.71875 40.765625 55.71875 27.296875 
Q 55.71875 13.875 49.015625 6.21875 
Q 42.328125 -1.421875 30.609375 -1.421875 
Q 18.84375 -1.421875 12.171875 6.21875 
Q 5.515625 13.875 5.515625 27.296875 
Q 5.515625 40.765625 12.171875 48.375 
Q 18.84375 56 30.609375 56 
z
" id="DejaVuSans-111"/>
       <path d="M 45.40625 27.984375 
Q 45.40625 37.75 41.375 43.109375 
Q 37.359375 48.484375 30.078125 48.484375 
Q 22.859375 48.484375 18.828125 43.109375 
Q 14.796875 37.75 14.796875 27.984375 
Q 14.796875 18.265625 18.828125 12.890625 
Q 22.859375 7.515625 30.078125 7.515625 
Q 37.359375 7.515625 41.375 12.890625 
Q 45.40625 18.265625 45.40625 27.984375 
z
M 54.390625 6.78125 
Q 54.390625 -7.171875 48.1875 -13.984375 
Q 42 -20.796875 29.203125 -20.796875 
Q 24.46875 -20.796875 20.265625 -20.09375 
Q 16.0625 -19.390625 12.109375 -17.921875 
L 12.109375 -9.1875 
Q 16.0625 -11.328125 19.921875 -12.34375 
Q 23.78125 -13.375 27.78125 -13.375 
Q 36.625 -13.375 41.015625 -8.765625 
Q 45.40625 -4.15625 45.40625 5.171875 
L 45.40625 9.625 
Q 42.625 4.78125 38.28125 2.390625 
Q 33.9375 0 27.875 0 
Q 17.828125 0 11.671875 7.65625 
Q 5.515625 15.328125 5.515625 27.984375 
Q 5.515625 40.671875 11.671875 48.328125 
Q 17.828125 56 27.875 56 
Q 33.9375 56 38.28125 53.609375 
Q 42.625 51.21875 45.40625 46.390625 
L 45.40625 54.6875 
L 54.390625 54.6875 
z
" id="DejaVuSans-103"/>
       <path d="M 12.40625 8.296875 
L 28.515625 8.296875 
L 28.515625 63.921875 
L 10.984375 60.40625 
L 10.984375 69.390625 
L 28.421875 72.90625 
L 38.28125 72.90625 
L 38.28125 8.296875 
L 54.390625 8.296875 
L 54.390625 0 
L 12.40625 0 
z
" id="DejaVuSans-49"/>
       <path d="M 31 75.875 
Q 24.46875 64.65625 21.28125 53.65625 
Q 18.109375 42.671875 18.109375 31.390625 
Q 18.109375 20.125 21.3125 9.0625 
Q 24.515625 -2 31 -13.1875 
L 23.1875 -13.1875 
Q 15.875 -1.703125 12.234375 9.375 
Q 8.59375 20.453125 8.59375 31.390625 
Q 8.59375 42.28125 12.203125 53.3125 
Q 15.828125 64.359375 23.1875 75.875 
z
" id="DejaVuSans-40"/>
       <path d="M 51.125 44 
L 36.921875 44 
L 32.8125 27.6875 
L 47.125 27.6875 
z
M 43.796875 71.78125 
L 38.71875 51.515625 
L 52.984375 51.515625 
L 58.109375 71.78125 
L 65.921875 71.78125 
L 60.890625 51.515625 
L 76.125 51.515625 
L 76.125 44 
L 58.984375 44 
L 54.984375 27.6875 
L 70.515625 27.6875 
L 70.515625 20.21875 
L 53.078125 20.21875 
L 48 0 
L 40.1875 0 
L 45.21875 20.21875 
L 30.90625 20.21875 
L 25.875 0 
L 18.015625 0 
L 23.09375 20.21875 
L 7.71875 20.21875 
L 7.71875 27.6875 
L 24.90625 27.6875 
L 29 44 
L 13.28125 44 
L 13.28125 51.515625 
L 30.90625 51.515625 
L 35.890625 71.78125 
z
" id="DejaVuSans-35"/>
       <path id="DejaVuSans-32"/>
       <path d="M 37.109375 75.984375 
L 37.109375 68.5 
L 28.515625 68.5 
Q 23.6875 68.5 21.796875 66.546875 
Q 19.921875 64.59375 19.921875 59.515625 
L 19.921875 54.6875 
L 34.71875 54.6875 
L 34.71875 47.703125 
L 19.921875 47.703125 
L 19.921875 0 
L 10.890625 0 
L 10.890625 47.703125 
L 2.296875 47.703125 
L 2.296875 54.6875 
L 10.890625 54.6875 
L 10.890625 58.5 
Q 10.890625 67.625 15.140625 71.796875 
Q 19.390625 75.984375 28.609375 75.984375 
z
" id="DejaVuSans-102"/>
       <path d="M 4.890625 31.390625 
L 31.203125 31.390625 
L 31.203125 23.390625 
L 4.890625 23.390625 
z
" id="DejaVuSans-45"/>
       <path d="M 56.203125 29.59375 
L 56.203125 25.203125 
L 14.890625 25.203125 
Q 15.484375 15.921875 20.484375 11.0625 
Q 25.484375 6.203125 34.421875 6.203125 
Q 39.59375 6.203125 44.453125 7.46875 
Q 49.3125 8.734375 54.109375 11.28125 
L 54.109375 2.78125 
Q 49.265625 0.734375 44.1875 -0.34375 
Q 39.109375 -1.421875 33.890625 -1.421875 
Q 20.796875 -1.421875 13.15625 6.1875 
Q 5.515625 13.8125 5.515625 26.8125 
Q 5.515625 40.234375 12.765625 48.109375 
Q 20.015625 56 32.328125 56 
Q 43.359375 56 49.78125 48.890625 
Q 56.203125 41.796875 56.203125 29.59375 
z
M 47.21875 32.234375 
Q 47.125 39.59375 43.09375 43.984375 
Q 39.0625 48.390625 32.421875 48.390625 
Q 24.90625 48.390625 20.390625 44.140625 
Q 15.875 39.890625 15.1875 32.171875 
z
" id="DejaVuSans-101"/>
       <path d="M 2.984375 54.6875 
L 12.5 54.6875 
L 29.59375 8.796875 
L 46.6875 54.6875 
L 56.203125 54.6875 
L 35.6875 0 
L 23.484375 0 
z
" id="DejaVuSans-118"/>
       <path d="M 34.28125 27.484375 
Q 23.390625 27.484375 19.1875 25 
Q 14.984375 22.515625 14.984375 16.5 
Q 14.984375 11.71875 18.140625 8.90625 
Q 21.296875 6.109375 26.703125 6.109375 
Q 34.1875 6.109375 38.703125 11.40625 
Q 43.21875 16.703125 43.21875 25.484375 
L 43.21875 27.484375 
z
M 52.203125 31.203125 
L 52.203125 0 
L 43.21875 0 
L 43.21875 8.296875 
Q 40.140625 3.328125 35.546875 0.953125 
Q 30.953125 -1.421875 24.3125 -1.421875 
Q 15.921875 -1.421875 10.953125 3.296875 
Q 6 8.015625 6 15.921875 
Q 6 25.140625 12.171875 29.828125 
Q 18.359375 34.515625 30.609375 34.515625 
L 43.21875 34.515625 
L 43.21875 35.40625 
Q 43.21875 41.609375 39.140625 45 
Q 35.0625 48.390625 27.6875 48.390625 
Q 23 48.390625 18.546875 47.265625 
Q 14.109375 46.140625 10.015625 43.890625 
L 10.015625 52.203125 
Q 14.9375 54.109375 19.578125 55.046875 
Q 24.21875 56 28.609375 56 
Q 40.484375 56 46.34375 49.84375 
Q 52.203125 43.703125 52.203125 31.203125 
z
" id="DejaVuSans-97"/>
       <path d="M 44.28125 53.078125 
L 44.28125 44.578125 
Q 40.484375 46.53125 36.375 47.5 
Q 32.28125 48.484375 27.875 48.484375 
Q 21.1875 48.484375 17.84375 46.4375 
Q 14.5 44.390625 14.5 40.28125 
Q 14.5 37.15625 16.890625 35.375 
Q 19.28125 33.59375 26.515625 31.984375 
L 29.59375 31.296875 
Q 39.15625 29.25 43.1875 25.515625 
Q 47.21875 21.78125 47.21875 15.09375 
Q 47.21875 7.46875 41.1875 3.015625 
Q 35.15625 -1.421875 24.609375 -1.421875 
Q 20.21875 -1.421875 15.453125 -0.5625 
Q 10.6875 0.296875 5.421875 2 
L 5.421875 11.28125 
Q 10.40625 8.6875 15.234375 7.390625 
Q 20.0625 6.109375 24.8125 6.109375 
Q 31.15625 6.109375 34.5625 8.28125 
Q 37.984375 10.453125 37.984375 14.40625 
Q 37.984375 18.0625 35.515625 20.015625 
Q 33.0625 21.96875 24.703125 23.78125 
L 21.578125 24.515625 
Q 13.234375 26.265625 9.515625 29.90625 
Q 5.8125 33.546875 5.8125 39.890625 
Q 5.8125 47.609375 11.28125 51.796875 
Q 16.75 56 26.8125 56 
Q 31.78125 56 36.171875 55.265625 
Q 40.578125 54.546875 44.28125 53.078125 
z
" id="DejaVuSans-115"/>
       <path d="M 25.390625 72.90625 
L 33.6875 72.90625 
L 8.296875 -9.28125 
L 0 -9.28125 
z
" id="DejaVuSans-47"/>
       <path d="M 45.40625 46.390625 
L 45.40625 75.984375 
L 54.390625 75.984375 
L 54.390625 0 
L 45.40625 0 
L 45.40625 8.203125 
Q 42.578125 3.328125 38.25 0.953125 
Q 33.9375 -1.421875 27.875 -1.421875 
Q 17.96875 -1.421875 11.734375 6.484375 
Q 5.515625 14.40625 5.515625 27.296875 
Q 5.515625 40.1875 11.734375 48.09375 
Q 17.96875 56 27.875 56 
Q 33.9375 56 38.25 53.625 
Q 42.578125 51.265625 45.40625 46.390625 
z
M 14.796875 27.296875 
Q 14.796875 17.390625 18.875 11.75 
Q 22.953125 6.109375 30.078125 6.109375 
Q 37.203125 6.109375 41.296875 11.75 
Q 45.40625 17.390625 45.40625 27.296875 
Q 45.40625 37.203125 41.296875 42.84375 
Q 37.203125 48.484375 30.078125 48.484375 
Q 22.953125 48.484375 18.875 42.84375 
Q 14.796875 37.203125 14.796875 27.296875 
z
" id="DejaVuSans-100"/>
       <path d="M 9.421875 54.6875 
L 18.40625 54.6875 
L 18.40625 0 
L 9.421875 0 
z
M 9.421875 75.984375 
L 18.40625 75.984375 
L 18.40625 64.59375 
L 9.421875 64.59375 
z
" id="DejaVuSans-105"/>
       <path d="M 52 44.1875 
Q 55.375 50.25 60.0625 53.125 
Q 64.75 56 71.09375 56 
Q 79.640625 56 84.28125 50.015625 
Q 88.921875 44.046875 88.921875 33.015625 
L 88.921875 0 
L 79.890625 0 
L 79.890625 32.71875 
Q 79.890625 40.578125 77.09375 44.375 
Q 74.3125 48.1875 68.609375 48.1875 
Q 61.625 48.1875 57.5625 43.546875 
Q 53.515625 38.921875 53.515625 30.90625 
L 53.515625 0 
L 44.484375 0 
L 44.484375 32.71875 
Q 44.484375 40.625 41.703125 44.40625 
Q 38.921875 48.1875 33.109375 48.1875 
Q 26.21875 48.1875 22.15625 43.53125 
Q 18.109375 38.875 18.109375 30.90625 
L 18.109375 0 
L 9.078125 0 
L 9.078125 54.6875 
L 18.109375 54.6875 
L 18.109375 46.1875 
Q 21.1875 51.21875 25.484375 53.609375 
Q 29.78125 56 35.6875 56 
Q 41.65625 56 45.828125 52.96875 
Q 50 49.953125 52 44.1875 
z
" id="DejaVuSans-109"/>
       <path d="M 54.890625 33.015625 
L 54.890625 0 
L 45.90625 0 
L 45.90625 32.71875 
Q 45.90625 40.484375 42.875 44.328125 
Q 39.84375 48.1875 33.796875 48.1875 
Q 26.515625 48.1875 22.3125 43.546875 
Q 18.109375 38.921875 18.109375 30.90625 
L 18.109375 0 
L 9.078125 0 
L 9.078125 54.6875 
L 18.109375 54.6875 
L 18.109375 46.1875 
Q 21.34375 51.125 25.703125 53.5625 
Q 30.078125 56 35.796875 56 
Q 45.21875 56 50.046875 50.171875 
Q 54.890625 44.34375 54.890625 33.015625 
z
" id="DejaVuSans-110"/>
       <path d="M 8.015625 75.875 
L 15.828125 75.875 
Q 23.140625 64.359375 26.78125 53.3125 
Q 30.421875 42.28125 30.421875 31.390625 
Q 30.421875 20.453125 26.78125 9.375 
Q 23.140625 -1.703125 15.828125 -13.1875 
L 8.015625 -13.1875 
Q 14.5 -2 17.703125 9.0625 
Q 20.90625 20.125 20.90625 31.390625 
Q 20.90625 42.671875 17.703125 53.65625 
Q 14.5 64.65625 8.015625 75.875 
z
" id="DejaVuSans-41"/>
      </defs>
      <use xlink:href="#DejaVuSans-108"/>
      <use x="27.783203" xlink:href="#DejaVuSans-111"/>
      <use x="88.964844" xlink:href="#DejaVuSans-103"/>
      <use x="152.441406" xlink:href="#DejaVuSans-49"/>
      <use x="216.064453" xlink:href="#DejaVuSans-48"/>
      <use x="279.6875" xlink:href="#DejaVuSans-40"/>
      <use x="318.701172" xlink:href="#DejaVuSans-35"/>
      <use x="402.490234" xlink:href="#DejaVuSans-32"/>
      <use x="434.277344" xlink:href="#DejaVuSans-102"/>
      <use x="463.982422" xlink:href="#DejaVuSans-45"/>
      <use x="500.066406" xlink:href="#DejaVuSans-101"/>
      <use x="561.589844" xlink:href="#DejaVuSans-118"/>
      <use x="620.769531" xlink:href="#DejaVuSans-97"/>
      <use x="682.048828" xlink:href="#DejaVuSans-108"/>
      <use x="709.832031" xlink:href="#DejaVuSans-115"/>
      <use x="761.931641" xlink:href="#DejaVuSans-32"/>
      <use x="793.71875" xlink:href="#DejaVuSans-47"/>
      <use x="827.410156" xlink:href="#DejaVuSans-32"/>
      <use x="859.197266" xlink:href="#DejaVuSans-100"/>
      <use x="922.673828" xlink:href="#DejaVuSans-105"/>
      <use x="950.457031" xlink:href="#DejaVuSans-109"/>
      <use x="1047.869141" xlink:href="#DejaVuSans-101"/>
      <use x="1109.392578" xlink:href="#DejaVuSans-110"/>
      <use x="1172.771484" xlink:href="#DejaVuSans-115"/>
      <use x="1224.871094" xlink:href="#DejaVuSans-105"/>
      <use x="1252.654297" xlink:href="#DejaVuSans-111"/>
      <use x="1313.835938" xlink:href="#DejaVuSans-110"/>
      <use x="1377.214844" xlink:href="#DejaVuSans-41"/>
     </g>
    </g>
   </g>
   <g id="matplotlib.axis_2">
    <g id="ytick_1">
     <g id="line2d_17">
      <path clip-path="url(#p5376205e18)" d="M 57.6 298.944 
L 338.688 298.944 
" style="fill:none;stroke:#b0b0b0;stroke-linecap:square;stroke-width:0.8;"/>
     </g>
     <g id="line2d_18">
      <defs>
       <path d="M 0 0 
L -3.5 0 
" id="m4c1d93c696" style="stroke:#000000;stroke-width:0.8;"/>
      </defs>
      <g>
       <use style="stroke:#000000;stroke-width:0.8;" x="57.6" xlink:href="#m4c1d93c696" y="298.944"/>
      </g>
     </g>
     <g id="text_6">
      <!-- 0.0 -->
      <g transform="translate(25.155 305.02275)scale(0.16 -0.16)">
       <defs>
        <path d="M 10.6875 12.40625 
L 21 12.40625 
L 21 0 
L 10.6875 0 
z
" id="DejaVuSans-46"/>
       </defs>
       <use xlink:href="#DejaVuSans-48"/>
       <use x="63.623047" xlink:href="#DejaVuSans-46"/>
       <use x="95.410156" xlink:href="#DejaVuSans-48"/>
      </g>
     </g>
    </g>
    <g id="ytick_2">
     <g id="line2d_19">
      <path clip-path="url(#p5376205e18)" d="M 57.6 245.22202 
L 338.688 245.22202 
" style="fill:none;stroke:#b0b0b0;stroke-linecap:square;stroke-width:0.8;"/>
     </g>
     <g id="line2d_20">
      <g>
       <use style="stroke:#000000;stroke-width:0.8;" x="57.6" xlink:href="#m4c1d93c696" y="245.22202"/>
      </g>
     </g>
     <g id="text_7">
      <!-- 0.2 -->
      <g transform="translate(25.155 251.30077)scale(0.16 -0.16)">
       <use xlink:href="#DejaVuSans-48"/>
       <use x="63.623047" xlink:href="#DejaVuSans-46"/>
       <use x="95.410156" xlink:href="#DejaVuSans-50"/>
      </g>
     </g>
    </g>
    <g id="ytick_3">
     <g id="line2d_21">
      <path clip-path="url(#p5376205e18)" d="M 57.6 191.50004 
L 338.688 191.50004 
" style="fill:none;stroke:#b0b0b0;stroke-linecap:square;stroke-width:0.8;"/>
     </g>
     <g id="line2d_22">
      <g>
       <use style="stroke:#000000;stroke-width:0.8;" x="57.6" xlink:href="#m4c1d93c696" y="191.50004"/>
      </g>
     </g>
     <g id="text_8">
      <!-- 0.4 -->
      <g transform="translate(25.155 197.57879)scale(0.16 -0.16)">
       <use xlink:href="#DejaVuSans-48"/>
       <use x="63.623047" xlink:href="#DejaVuSans-46"/>
       <use x="95.410156" xlink:href="#DejaVuSans-52"/>
      </g>
     </g>
    </g>
    <g id="ytick_4">
     <g id="line2d_23">
      <path clip-path="url(#p5376205e18)" d="M 57.6 137.778059 
L 338.688 137.778059 
" style="fill:none;stroke:#b0b0b0;stroke-linecap:square;stroke-width:0.8;"/>
     </g>
     <g id="line2d_24">
      <g>
       <use style="stroke:#000000;stroke-width:0.8;" x="57.6" xlink:href="#m4c1d93c696" y="137.778059"/>
      </g>
     </g>
     <g id="text_9">
      <!-- 0.6 -->
      <g transform="translate(25.155 143.856809)scale(0.16 -0.16)">
       <use xlink:href="#DejaVuSans-48"/>
       <use x="63.623047" xlink:href="#DejaVuSans-46"/>
       <use x="95.410156" xlink:href="#DejaVuSans-54"/>
      </g>
     </g>
    </g>
    <g id="ytick_5">
     <g id="line2d_25">
      <path clip-path="url(#p5376205e18)" d="M 57.6 84.056079 
L 338.688 84.056079 
" style="fill:none;stroke:#b0b0b0;stroke-linecap:square;stroke-width:0.8;"/>
     </g>
     <g id="line2d_26">
      <g>
       <use style="stroke:#000000;stroke-width:0.8;" x="57.6" xlink:href="#m4c1d93c696" y="84.056079"/>
      </g>
     </g>
     <g id="text_10">
      <!-- 0.8 -->
      <g transform="translate(25.155 90.134829)scale(0.16 -0.16)">
       <defs>
        <path d="M 31.78125 34.625 
Q 24.75 34.625 20.71875 30.859375 
Q 16.703125 27.09375 16.703125 20.515625 
Q 16.703125 13.921875 20.71875 10.15625 
Q 24.75 6.390625 31.78125 6.390625 
Q 38.8125 6.390625 42.859375 10.171875 
Q 46.921875 13.96875 46.921875 20.515625 
Q 46.921875 27.09375 42.890625 30.859375 
Q 38.875 34.625 31.78125 34.625 
z
M 21.921875 38.8125 
Q 15.578125 40.375 12.03125 44.71875 
Q 8.5 49.078125 8.5 55.328125 
Q 8.5 64.0625 14.71875 69.140625 
Q 20.953125 74.21875 31.78125 74.21875 
Q 42.671875 74.21875 48.875 69.140625 
Q 55.078125 64.0625 55.078125 55.328125 
Q 55.078125 49.078125 51.53125 44.71875 
Q 48 40.375 41.703125 38.8125 
Q 48.828125 37.15625 52.796875 32.3125 
Q 56.78125 27.484375 56.78125 20.515625 
Q 56.78125 9.90625 50.3125 4.234375 
Q 43.84375 -1.421875 31.78125 -1.421875 
Q 19.734375 -1.421875 13.25 4.234375 
Q 6.78125 9.90625 6.78125 20.515625 
Q 6.78125 27.484375 10.78125 32.3125 
Q 14.796875 37.15625 21.921875 38.8125 
z
M 18.3125 54.390625 
Q 18.3125 48.734375 21.84375 45.5625 
Q 25.390625 42.390625 31.78125 42.390625 
Q 38.140625 42.390625 41.71875 45.5625 
Q 45.3125 48.734375 45.3125 54.390625 
Q 45.3125 60.0625 41.71875 63.234375 
Q 38.140625 66.40625 31.78125 66.40625 
Q 25.390625 66.40625 21.84375 63.234375 
Q 18.3125 60.0625 18.3125 54.390625 
z
" id="DejaVuSans-56"/>
       </defs>
       <use xlink:href="#DejaVuSans-48"/>
       <use x="63.623047" xlink:href="#DejaVuSans-46"/>
       <use x="95.410156" xlink:href="#DejaVuSans-56"/>
      </g>
     </g>
    </g>
    <g id="ytick_6">
     <g id="line2d_27">
      <path clip-path="url(#p5376205e18)" d="M 57.6 30.334099 
L 338.688 30.334099 
" style="fill:none;stroke:#b0b0b0;stroke-linecap:square;stroke-width:0.8;"/>
     </g>
     <g id="line2d_28">
      <g>
       <use style="stroke:#000000;stroke-width:0.8;" x="57.6" xlink:href="#m4c1d93c696" y="30.334099"/>
      </g>
     </g>
     <g id="text_11">
      <!-- 1.0 -->
      <g transform="translate(25.155 36.412849)scale(0.16 -0.16)">
       <use xlink:href="#DejaVuSans-49"/>
       <use x="63.623047" xlink:href="#DejaVuSans-46"/>
       <use x="95.410156" xlink:href="#DejaVuSans-48"/>
      </g>
     </g>
    </g>
    <g id="text_12">
     <!-- Fraction of function,target pairs -->
     <g transform="translate(17.619531 297.681)rotate(-90)scale(0.17 -0.17)">
      <defs>
       <path d="M 9.8125 72.90625 
L 51.703125 72.90625 
L 51.703125 64.59375 
L 19.671875 64.59375 
L 19.671875 43.109375 
L 48.578125 43.109375 
L 48.578125 34.8125 
L 19.671875 34.8125 
L 19.671875 0 
L 9.8125 0 
z
" id="DejaVuSans-70"/>
       <path d="M 41.109375 46.296875 
Q 39.59375 47.171875 37.8125 47.578125 
Q 36.03125 48 33.890625 48 
Q 26.265625 48 22.1875 43.046875 
Q 18.109375 38.09375 18.109375 28.8125 
L 18.109375 0 
L 9.078125 0 
L 9.078125 54.6875 
L 18.109375 54.6875 
L 18.109375 46.1875 
Q 20.953125 51.171875 25.484375 53.578125 
Q 30.03125 56 36.53125 56 
Q 37.453125 56 38.578125 55.875 
Q 39.703125 55.765625 41.0625 55.515625 
z
" id="DejaVuSans-114"/>
       <path d="M 48.78125 52.59375 
L 48.78125 44.1875 
Q 44.96875 46.296875 41.140625 47.34375 
Q 37.3125 48.390625 33.40625 48.390625 
Q 24.65625 48.390625 19.8125 42.84375 
Q 14.984375 37.3125 14.984375 27.296875 
Q 14.984375 17.28125 19.8125 11.734375 
Q 24.65625 6.203125 33.40625 6.203125 
Q 37.3125 6.203125 41.140625 7.25 
Q 44.96875 8.296875 48.78125 10.40625 
L 48.78125 2.09375 
Q 45.015625 0.34375 40.984375 -0.53125 
Q 36.96875 -1.421875 32.421875 -1.421875 
Q 20.0625 -1.421875 12.78125 6.34375 
Q 5.515625 14.109375 5.515625 27.296875 
Q 5.515625 40.671875 12.859375 48.328125 
Q 20.21875 56 33.015625 56 
Q 37.15625 56 41.109375 55.140625 
Q 45.0625 54.296875 48.78125 52.59375 
z
" id="DejaVuSans-99"/>
       <path d="M 18.3125 70.21875 
L 18.3125 54.6875 
L 36.8125 54.6875 
L 36.8125 47.703125 
L 18.3125 47.703125 
L 18.3125 18.015625 
Q 18.3125 11.328125 20.140625 9.421875 
Q 21.96875 7.515625 27.59375 7.515625 
L 36.8125 7.515625 
L 36.8125 0 
L 27.59375 0 
Q 17.1875 0 13.234375 3.875 
Q 9.28125 7.765625 9.28125 18.015625 
L 9.28125 47.703125 
L 2.6875 47.703125 
L 2.6875 54.6875 
L 9.28125 54.6875 
L 9.28125 70.21875 
z
" id="DejaVuSans-116"/>
       <path d="M 8.5 21.578125 
L 8.5 54.6875 
L 17.484375 54.6875 
L 17.484375 21.921875 
Q 17.484375 14.15625 20.5 10.265625 
Q 23.53125 6.390625 29.59375 6.390625 
Q 36.859375 6.390625 41.078125 11.03125 
Q 45.3125 15.671875 45.3125 23.6875 
L 45.3125 54.6875 
L 54.296875 54.6875 
L 54.296875 0 
L 45.3125 0 
L 45.3125 8.40625 
Q 42.046875 3.421875 37.71875 1 
Q 33.40625 -1.421875 27.6875 -1.421875 
Q 18.265625 -1.421875 13.375 4.4375 
Q 8.5 10.296875 8.5 21.578125 
z
M 31.109375 56 
z
" id="DejaVuSans-117"/>
       <path d="M 11.71875 12.40625 
L 22.015625 12.40625 
L 22.015625 4 
L 14.015625 -11.625 
L 7.71875 -11.625 
L 11.71875 4 
z
" id="DejaVuSans-44"/>
       <path d="M 18.109375 8.203125 
L 18.109375 -20.796875 
L 9.078125 -20.796875 
L 9.078125 54.6875 
L 18.109375 54.6875 
L 18.109375 46.390625 
Q 20.953125 51.265625 25.265625 53.625 
Q 29.59375 56 35.59375 56 
Q 45.5625 56 51.78125 48.09375 
Q 58.015625 40.1875 58.015625 27.296875 
Q 58.015625 14.40625 51.78125 6.484375 
Q 45.5625 -1.421875 35.59375 -1.421875 
Q 29.59375 -1.421875 25.265625 0.953125 
Q 20.953125 3.328125 18.109375 8.203125 
z
M 48.6875 27.296875 
Q 48.6875 37.203125 44.609375 42.84375 
Q 40.53125 48.484375 33.40625 48.484375 
Q 26.265625 48.484375 22.1875 42.84375 
Q 18.109375 37.203125 18.109375 27.296875 
Q 18.109375 17.390625 22.1875 11.75 
Q 26.265625 6.109375 33.40625 6.109375 
Q 40.53125 6.109375 44.609375 11.75 
Q 48.6875 17.390625 48.6875 27.296875 
z
" id="DejaVuSans-112"/>
      </defs>
      <use xlink:href="#DejaVuSans-70"/>
      <use x="50.269531" xlink:href="#DejaVuSans-114"/>
      <use x="91.382812" xlink:href="#DejaVuSans-97"/>
      <use x="152.662109" xlink:href="#DejaVuSans-99"/>
      <use x="207.642578" xlink:href="#DejaVuSans-116"/>
      <use x="246.851562" xlink:href="#DejaVuSans-105"/>
      <use x="274.634766" xlink:href="#DejaVuSans-111"/>
      <use x="335.816406" xlink:href="#DejaVuSans-110"/>
      <use x="399.195312" xlink:href="#DejaVuSans-32"/>
      <use x="430.982422" xlink:href="#DejaVuSans-111"/>
      <use x="492.164062" xlink:href="#DejaVuSans-102"/>
      <use x="527.369141" xlink:href="#DejaVuSans-32"/>
      <use x="559.15625" xlink:href="#DejaVuSans-102"/>
      <use x="594.361328" xlink:href="#DejaVuSans-117"/>
      <use x="657.740234" xlink:href="#DejaVuSans-110"/>
      <use x="721.119141" xlink:href="#DejaVuSans-99"/>
      <use x="776.099609" xlink:href="#DejaVuSans-116"/>
      <use x="815.308594" xlink:href="#DejaVuSans-105"/>
      <use x="843.091797" xlink:href="#DejaVuSans-111"/>
      <use x="904.273438" xlink:href="#DejaVuSans-110"/>
      <use x="967.652344" xlink:href="#DejaVuSans-44"/>
      <use x="999.439453" xlink:href="#DejaVuSans-116"/>
      <use x="1038.648438" xlink:href="#DejaVuSans-97"/>
      <use x="1099.927734" xlink:href="#DejaVuSans-114"/>
      <use x="1139.291016" xlink:href="#DejaVuSans-103"/>
      <use x="1202.767578" xlink:href="#DejaVuSans-101"/>
      <use x="1264.291016" xlink:href="#DejaVuSans-116"/>
      <use x="1303.5" xlink:href="#DejaVuSans-32"/>
      <use x="1335.287109" xlink:href="#DejaVuSans-112"/>
      <use x="1398.763672" xlink:href="#DejaVuSans-97"/>
      <use x="1460.042969" xlink:href="#DejaVuSans-105"/>
      <use x="1487.826172" xlink:href="#DejaVuSans-114"/>
      <use x="1528.939453" xlink:href="#DejaVuSans-115"/>
     </g>
    </g>
   </g>
   <g id="line2d_29">
    <defs>
     <path d="M 0 1.5 
C 0.397805 1.5 0.77937 1.341951 1.06066 1.06066 
C 1.341951 0.77937 1.5 0.397805 1.5 0 
C 1.5 -0.397805 1.341951 -0.77937 1.06066 -1.06066 
C 0.77937 -1.341951 0.397805 -1.5 0 -1.5 
C -0.397805 -1.5 -0.77937 -1.341951 -1.06066 -1.06066 
C -1.341951 -0.77937 -1.5 -0.397805 -1.5 0 
C -1.5 0.397805 -1.341951 0.77937 -1.06066 1.06066 
C -0.77937 1.341951 -0.397805 1.5 0 1.5 
z
" id="m2f22e1ac2c" style="stroke:#00bfbf;"/>
    </defs>
    <g>
     <use style="fill:#00bfbf;stroke:#00bfbf;" x="252.205874" xlink:href="#m2f22e1ac2c" y="30.334099"/>
     <use style="fill:#00bfbf;stroke:#00bfbf;" x="252.205874" xlink:href="#m2f22e1ac2c" y="30.334099"/>
    </g>
   </g>
   <g id="line2d_30">
    <path d="M 45.512012 298.944 
L 45.512012 269.976266 
L 57.6 269.976266 
L 57.6 265.762777 
L 73.579452 265.762777 
L 73.579452 263.656033 
L 85.66744 263.656033 
L 85.66744 263.129347 
L 93.863965 263.129347 
L 93.863965 261.549288 
L 95.918017 261.549288 
L 95.918017 259.442544 
L 98.606294 259.442544 
L 98.606294 258.915858 
L 100.192776 258.915858 
L 100.192776 258.389172 
L 103.623262 258.389172 
L 103.623262 257.862486 
L 108.948899 257.862486 
L 108.948899 256.809114 
L 110.274038 256.809114 
L 110.274038 255.755741 
L 111.897469 255.755741 
L 111.897469 255.229055 
L 112.655818 255.229055 
L 112.655818 254.702369 
L 113.022974 254.702369 
L 113.022974 253.648997 
L 113.73488 253.648997 
L 113.73488 253.122311 
L 115.711251 253.122311 
L 115.711251 252.595625 
L 117.765302 252.595625 
L 117.765302 252.068939 
L 119.097192 252.068939 
L 119.097192 251.542253 
L 120.093994 251.542253 
L 120.093994 249.962195 
L 123.790603 249.962195 
L 123.790603 249.435508 
L 123.985457 249.435508 
L 123.985457 248.908822 
L 127.002787 248.908822 
L 127.002787 248.382136 
L 129.433047 248.382136 
L 129.433047 246.275392 
L 130.263646 246.275392 
L 130.263646 245.22202 
L 131.056477 245.22202 
L 131.056477 242.061903 
L 131.565689 242.061903 
L 131.565689 241.008531 
L 134.343353 241.008531 
L 134.343353 239.955159 
L 135.381712 239.955159 
L 135.381712 238.901787 
L 136.361705 238.901787 
L 136.361705 238.375101 
L 136.551264 238.375101 
L 136.551264 237.848415 
L 137.37967 237.848415 
L 137.37967 237.321729 
L 137.558536 237.321729 
L 137.647286 232.054868 
L 137.997836 232.054868 
L 137.997836 227.841379 
L 139.413734 227.841379 
L 139.413734 226.261321 
L 140.499195 226.261321 
L 140.499195 224.681263 
L 141.017599 224.681263 
L 141.017599 224.154577 
L 141.591783 224.154577 
L 141.591783 221.521146 
L 143.079756 221.521146 
L 143.079756 220.99446 
L 143.273169 220.99446 
L 143.273169 219.941088 
L 144.688773 219.941088 
L 144.688773 217.834344 
L 190.184766 217.834344 
L 190.275924 216.780971 
L 190.336432 216.780971 
L 190.392431 215.200913 
L 190.48679 215.200913 
L 190.538044 212.567483 
L 190.678222 212.567483 
L 190.771052 206.773936 
L 190.87176 206.773936 
L 190.963568 202.033761 
L 191.000987 202.033761 
L 191.030035 193.606784 
L 191.158099 193.606784 
L 191.219729 189.393295 
L 191.309728 189.393295 
L 191.415495 184.653121 
L 191.451957 184.653121 
L 191.451957 184.126434 
L 202.368241 184.126434 
L 202.428734 180.439632 
L 202.495465 180.439632 
L 202.564082 170.432596 
L 202.615367 170.432596 
L 202.696263 163.058991 
L 202.732331 163.058991 
L 202.840093 157.79213 
L 202.846411 157.79213 
L 202.894774 154.105328 
L 209.404599 154.105328 
L 209.489687 150.945211 
L 209.521308 150.945211 
L 209.624398 141.991548 
L 209.64865 141.991548 
L 209.758077 135.144629 
L 214.404211 135.144629 
L 214.498381 130.93114 
L 214.539354 130.93114 
L 214.602779 124.084221 
L 214.670251 124.084221 
L 214.679869 120.397419 
L 218.286989 120.397419 
L 218.393514 117.237302 
L 218.403872 117.237302 
L 218.506256 108.283639 
L 221.457857 108.283639 
L 221.568322 100.910034 
L 221.601397 100.910034 
L 221.635843 98.803289 
L 224.156064 98.803289 
L 224.264308 91.95637 
L 224.277868 91.95637 
L 224.277868 91.429684 
L 226.510099 91.429684 
L 226.599858 80.895963 
L 228.517285 80.895963 
L 228.613172 73.522358 
L 228.636223 73.522358 
L 228.636223 72.995672 
L 230.362812 72.995672 
L 230.459472 64.568694 
L 232.046988 64.568694 
L 232.110017 60.355206 
L 233.559963 60.355206 
L 233.617763 56.668403 
L 234.952092 56.668403 
L 235.005464 52.9816 
L 236.237537 52.9816 
L 236.275977 49.294798 
L 237.460759 49.294798 
L 237.487935 46.134681 
L 238.58263 46.134681 
L 238.608113 44.554623 
L 239.619808 44.554623 
L 239.636672 43.501251 
L 240.626279 43.501251 
L 240.641715 41.394507 
L 241.55587 41.394507 
L 241.581474 39.287762 
L 242.44754 39.287762 
L 242.44754 38.761076 
L 243.331404 38.761076 
L 243.331404 38.23439 
L 244.108317 38.23439 
L 244.120566 37.181018 
L 244.894081 37.181018 
L 244.912585 36.127646 
L 245.64379 36.127646 
L 245.648314 34.547588 
L 246.334438 34.547588 
L 246.334438 34.020902 
L 247.027715 34.020902 
L 247.044256 32.967529 
L 247.692874 32.967529 
L 247.692874 32.440843 
L 248.31792 32.440843 
L 248.31792 31.914157 
L 249.51008 31.914157 
L 249.526311 30.860785 
L 252.205874 30.860785 
L 252.205874 30.334099 
L 338.688 30.334099 
L 338.688 30.334099 
" style="fill:none;stroke:#00bfbf;stroke-linecap:square;stroke-width:1.5;"/>
   </g>
   <g id="line2d_31">
    <defs>
     <path d="M -6 0 
L 6 0 
M 0 6 
L 0 -6 
" id="md404d8bd2e" style="stroke:#00bfbf;stroke-width:1.5;"/>
    </defs>
    <g>
     <use style="fill-opacity:0;stroke:#00bfbf;stroke-width:1.5;" x="119.097192" xlink:href="#md404d8bd2e" y="251.542253"/>
     <use style="fill-opacity:0;stroke:#00bfbf;stroke-width:1.5;" x="191.000987" xlink:href="#md404d8bd2e" y="201.507075"/>
     <use style="fill-opacity:0;stroke:#00bfbf;stroke-width:1.5;" x="214.679869" xlink:href="#md404d8bd2e" y="121.977477"/>
     <use style="fill-opacity:0;stroke:#00bfbf;stroke-width:1.5;" x="252.205874" xlink:href="#md404d8bd2e" y="30.860785"/>
     <use style="fill-opacity:0;stroke:#00bfbf;stroke-width:1.5;" x="252.205874" xlink:href="#md404d8bd2e" y="30.334099"/>
     <use style="fill-opacity:0;stroke:#00bfbf;stroke-width:1.5;" x="338.688" xlink:href="#md404d8bd2e" y="30.334099"/>
    </g>
   </g>
   <g id="line2d_32">
    <path style="fill:none;stroke:#00bfbf;stroke-linecap:square;stroke-width:1.5;"/>
    <g/>
   </g>
   <g id="line2d_33">
    <path clip-path="url(#p5376205e18)" d="M 190.17606 217.834344 
" style="fill:none;stroke:#00bfbf;stroke-linecap:square;stroke-width:1.5;"/>
    <defs>
     <path d="M -12 12 
L 12 -12 
M -12 -12 
L 12 12 
" id="mbb77e1a498" style="stroke:#00bfbf;"/>
    </defs>
    <g clip-path="url(#p5376205e18)">
     <use style="fill:#00bfbf;stroke:#00bfbf;" x="190.17606" xlink:href="#mbb77e1a498" y="217.834344"/>
    </g>
   </g>
   <g id="line2d_34">
    <defs>
     <path d="M 0 1.5 
C 0.397805 1.5 0.77937 1.341951 1.06066 1.06066 
C 1.341951 0.77937 1.5 0.397805 1.5 0 
C 1.5 -0.397805 1.341951 -0.77937 1.06066 -1.06066 
C 0.77937 -1.341951 0.397805 -1.5 0 -1.5 
C -0.397805 -1.5 -0.77937 -1.341951 -1.06066 -1.06066 
C -1.341951 -0.77937 -1.5 -0.397805 -1.5 0 
C -1.5 0.397805 -1.341951 0.77937 -1.06066 1.06066 
C -0.77937 1.341951 -0.397805 1.5 0 1.5 
z
" id="m71613c82b2" style="stroke:#008000;"/>
    </defs>
    <g>
     <use style="fill:#008000;stroke:#008000;" x="245.615476" xlink:href="#m71613c82b2" y="30.334099"/>
     <use style="fill:#008000;stroke:#008000;" x="245.615476" xlink:href="#m71613c82b2" y="30.334099"/>
    </g>
   </g>
   <g id="line2d_35">
    <path d="M 38.440992 298.944 
L 38.440992 281.036673 
L 50.52898 281.036673 
L 50.52898 278.929929 
L 57.6 278.929929 
L 57.6 278.403243 
L 62.616969 278.403243 
L 62.616969 277.349871 
L 69.687988 277.349871 
L 69.687988 276.823185 
L 78.59642 276.823185 
L 78.59642 276.296499 
L 84.464254 276.296499 
L 84.464254 275.769812 
L 85.66744 275.769812 
L 85.66744 275.243126 
L 88.846997 275.243126 
L 88.846997 273.663068 
L 93.863965 273.663068 
L 93.863965 272.609696 
L 95.259853 272.609696 
L 95.259853 272.08301 
L 95.918017 272.08301 
L 95.918017 270.502952 
L 100.934985 270.502952 
L 100.934985 269.449579 
L 102.330873 269.449579 
L 102.330873 268.922893 
L 102.772397 268.922893 
L 102.772397 268.396207 
L 103.623262 268.396207 
L 103.623262 267.869521 
L 104.033617 267.869521 
L 104.033617 266.816149 
L 104.826449 266.816149 
L 104.826449 266.289463 
L 105.951954 266.289463 
L 105.951954 265.762777 
L 106.311539 265.762777 
L 106.311539 265.236091 
L 107.680028 265.236091 
L 107.680028 264.709405 
L 108.006005 264.709405 
L 108.006005 263.129347 
L 108.640231 263.129347 
L 108.640231 262.60266 
L 109.550313 262.60266 
L 109.550313 262.075974 
L 109.843417 262.075974 
L 109.843417 261.549288 
L 111.239304 261.549288 
L 111.239304 260.495916 
L 113.73488 260.495916 
L 113.73488 259.442544 
L 114.641021 259.442544 
L 114.641021 258.915858 
L 115.711251 258.915858 
L 115.711251 256.809114 
L 116.121606 256.809114 
L 116.121606 256.282427 
L 117.107138 256.282427 
L 117.107138 255.755741 
L 117.297733 255.755741 
L 117.297733 255.229055 
L 117.672786 255.229055 
L 117.672786 253.648997 
L 117.857331 253.648997 
L 117.857331 253.122311 
L 119.267333 253.122311 
L 119.267333 252.595625 
L 119.602714 252.595625 
L 119.602714 251.542253 
L 120.883236 251.542253 
L 120.883236 249.962195 
L 121.638301 249.962195 
L 121.638301 249.435508 
L 122.076131 249.435508 
L 122.076131 247.85545 
L 123.593547 247.85545 
L 123.593547 238.375101 
L 125.23165 238.375101 
L 125.23165 237.848415 
L 125.822869 237.848415 
L 125.822869 237.321729 
L 126.053856 237.321729 
L 126.053856 236.795043 
L 126.168212 236.795043 
L 126.168212 235.74167 
L 126.729009 235.74167 
L 126.729009 235.214984 
L 127.272333 235.214984 
L 127.272333 234.688298 
L 127.48501 234.688298 
L 127.48501 234.161612 
L 130.036864 234.161612 
L 130.036864 233.634926 
L 130.218525 233.634926 
L 130.218525 233.10824 
L 130.398313 233.10824 
L 130.398313 231.528182 
L 130.839837 231.528182 
L 130.926816 230.47481 
L 131.77355 230.47481 
L 131.77355 229.948123 
L 132.971225 229.948123 
L 132.971225 228.894751 
L 133.503183 228.894751 
L 133.503183 226.788007 
L 134.019394 226.788007 
L 134.091907 224.681263 
L 135.00812 224.681263 
L 135.00812 224.154577 
L 136.202149 224.154577 
L 136.266147 222.574518 
L 137.259399 222.574518 
L 137.259399 219.941088 
L 137.499118 219.941088 
L 137.499118 218.887716 
L 137.676769 218.887716 
L 137.735587 216.780971 
L 137.910857 216.780971 
L 137.910857 215.200913 
L 138.026733 215.200913 
L 138.026733 214.674227 
L 139.253002 214.674227 
L 139.253002 214.147541 
L 139.413734 214.147541 
L 139.413734 213.620855 
L 140.093612 213.620855 
L 140.093612 212.567483 
L 140.348205 212.567483 
L 140.348205 211.514111 
L 140.549236 211.514111 
L 140.549236 210.987425 
L 140.89556 210.987425 
L 140.89556 209.407366 
L 141.662245 209.407366 
L 141.662245 208.353994 
L 142.124852 208.353994 
L 142.215919 205.193878 
L 142.351634 205.193878 
L 142.351634 202.560447 
L 142.619936 202.560447 
L 142.619936 201.507075 
L 142.884173 201.507075 
L 142.884173 199.927017 
L 143.653678 199.927017 
L 143.653678 199.400331 
L 145.998045 199.400331 
L 145.998045 198.873645 
L 146.179895 198.873645 
L 146.179895 197.820273 
L 146.324022 197.820273 
L 146.324022 196.240214 
L 146.502522 196.240214 
L 146.502522 194.660156 
L 146.784375 194.660156 
L 146.784375 193.080098 
L 147.536775 193.080098 
L 147.536775 192.026726 
L 148.193699 192.026726 
L 148.193699 190.973354 
L 148.417899 190.973354 
L 148.417899 190.446667 
L 149.073705 190.446667 
L 149.073705 188.339923 
L 150.027887 188.339923 
L 150.027887 186.759865 
L 150.201126 186.759865 
L 150.201126 186.233179 
L 150.486088 186.233179 
L 150.486088 185.179807 
L 151.340991 185.179807 
L 151.340991 183.599748 
L 197.229169 183.599748 
L 197.331543 180.966318 
L 197.343095 180.966318 
L 197.42949 174.119399 
L 197.460105 174.119399 
L 197.544022 162.005619 
L 197.597213 162.005619 
L 197.688023 154.105328 
L 197.748302 154.105328 
L 197.843942 148.838467 
L 197.873839 148.838467 
L 197.961366 141.464862 
L 198.136953 141.464862 
L 198.245118 133.564571 
L 198.296217 133.564571 
L 198.383468 128.29771 
L 198.439586 128.29771 
L 198.439586 127.771024 
L 209.341357 127.771024 
L 209.442628 118.290674 
L 209.461851 118.290674 
L 209.547138 110.390383 
L 209.577701 110.390383 
L 209.68615 99.856662 
L 209.715524 99.856662 
L 209.812769 97.223231 
L 209.857902 97.223231 
L 209.902919 94.063115 
L 216.433966 94.063115 
L 216.541194 83.529393 
L 216.561026 83.529393 
L 216.643313 74.57573 
L 216.691611 74.57573 
L 216.770126 70.888927 
L 221.443848 70.888927 
L 221.546477 65.622066 
L 221.569521 65.622066 
L 221.676661 57.721775 
L 221.691913 57.721775 
L 221.71429 56.668403 
L 225.331059 56.668403 
L 225.40938 49.294798 
L 225.443992 49.294798 
L 225.532133 47.188054 
L 228.516801 47.188054 
L 228.551556 44.027937 
L 228.632063 44.027937 
L 228.682231 40.867821 
L 231.245895 40.867821 
L 231.340945 38.761076 
L 233.523136 38.761076 
L 233.616922 35.60096 
L 235.590613 35.60096 
L 235.619361 34.547588 
L 237.4204 34.547588 
L 237.45748 32.967529 
L 240.588515 32.967529 
L 240.666529 31.914157 
L 242.011081 31.914157 
L 242.017469 30.860785 
L 245.615476 30.860785 
L 245.615476 30.334099 
L 338.688 30.334099 
L 338.688 30.334099 
" style="fill:none;stroke:#008000;stroke-linecap:square;stroke-width:1.5;"/>
   </g>
   <g id="line2d_36">
    <defs>
     <path d="M -0 6 
L 6 -6 
L -6 -6 
z
" id="m2837008e68" style="stroke:#008000;stroke-linejoin:miter;stroke-width:1.5;"/>
    </defs>
    <g>
     <use style="fill-opacity:0;stroke:#008000;stroke-linejoin:miter;stroke-width:1.5;" x="108.640231" xlink:href="#m2837008e68" y="262.60266"/>
     <use style="fill-opacity:0;stroke:#008000;stroke-linejoin:miter;stroke-width:1.5;" x="151.340991" xlink:href="#m2837008e68" y="185.179807"/>
     <use style="fill-opacity:0;stroke:#008000;stroke-linejoin:miter;stroke-width:1.5;" x="209.902919" xlink:href="#m2837008e68" y="94.063115"/>
     <use style="fill-opacity:0;stroke:#008000;stroke-linejoin:miter;stroke-width:1.5;" x="245.615476" xlink:href="#m2837008e68" y="30.334099"/>
     <use style="fill-opacity:0;stroke:#008000;stroke-linejoin:miter;stroke-width:1.5;" x="245.615476" xlink:href="#m2837008e68" y="30.334099"/>
     <use style="fill-opacity:0;stroke:#008000;stroke-linejoin:miter;stroke-width:1.5;" x="338.688" xlink:href="#m2837008e68" y="30.334099"/>
    </g>
   </g>
   <g id="line2d_37">
    <path style="fill:none;stroke:#008000;stroke-linecap:square;stroke-width:1.5;"/>
    <g/>
   </g>
   <g id="line2d_38">
    <path clip-path="url(#p5376205e18)" d="M 197.227232 183.599748 
" style="fill:none;stroke:#008000;stroke-linecap:square;stroke-width:1.5;"/>
    <defs>
     <path d="M -12 12 
L 12 -12 
M -12 -12 
L 12 12 
" id="m8ae4055040" style="stroke:#008000;"/>
    </defs>
    <g clip-path="url(#p5376205e18)">
     <use style="fill:#008000;stroke:#008000;" x="197.227232" xlink:href="#m8ae4055040" y="183.599748"/>
    </g>
   </g>
   <g id="line2d_39">
    <defs>
     <path d="M 0 1.5 
C 0.397805 1.5 0.77937 1.341951 1.06066 1.06066 
C 1.341951 0.77937 1.5 0.397805 1.5 0 
C 1.5 -0.397805 1.341951 -0.77937 1.06066 -1.06066 
C 0.77937 -1.341951 0.397805 -1.5 0 -1.5 
C -0.397805 -1.5 -0.77937 -1.341951 -1.06066 -1.06066 
C -1.341951 -0.77937 -1.5 -0.397805 -1.5 0 
C -1.5 0.397805 -1.341951 0.77937 -1.06066 1.06066 
C -0.77937 1.341951 -0.397805 1.5 0 1.5 
z
" id="m05666418de" style="stroke:#0000ff;"/>
    </defs>
    <g>
     <use style="fill:#0000ff;stroke:#0000ff;" x="259.259404" xlink:href="#m05666418de" y="30.334099"/>
     <use style="fill:#0000ff;stroke:#0000ff;" x="259.259404" xlink:href="#m05666418de" y="30.334099"/>
    </g>
   </g>
   <g id="line2d_40">
    <path d="M 29.53256 298.944 
L 29.53256 286.83022 
L 41.620548 286.83022 
L 41.620548 286.303534 
L 48.691568 286.303534 
L 48.691568 285.776848 
L 67.850577 285.776848 
L 67.850577 284.723476 
L 71.35013 284.723476 
L 71.35013 284.19679 
L 75.555822 284.19679 
L 75.555822 283.670104 
L 79.938565 283.670104 
L 79.938565 283.143418 
L 83.438118 283.143418 
L 83.438118 282.090045 
L 86.351421 282.090045 
L 86.351421 280.509987 
L 90.509138 280.509987 
L 90.509138 279.983301 
L 91.029752 279.983301 
L 91.029752 279.456615 
L 92.026554 279.456615 
L 92.026554 278.929929 
L 92.969447 278.929929 
L 92.969447 278.403243 
L 93.422441 278.403243 
L 93.422441 277.876557 
L 94.294587 277.876557 
L 94.294587 276.823185 
L 95.125186 276.823185 
L 95.125186 276.296499 
L 96.676366 276.296499 
L 96.676366 275.769812 
L 97.043522 275.769812 
L 97.043522 274.71644 
L 100.040467 274.71644 
L 100.040467 274.189754 
L 101.785851 274.189754 
L 101.785851 273.663068 
L 102.859376 273.663068 
L 102.859376 272.609696 
L 103.372333 272.609696 
L 103.372333 272.08301 
L 103.870632 272.08301 
L 103.870632 271.556324 
L 104.114542 271.556324 
L 104.114542 271.029638 
L 105.951954 271.029638 
L 105.951954 270.502952 
L 108.577836 270.502952 
L 108.577836 269.976266 
L 108.948899 269.976266 
L 108.948899 269.449579 
L 110.188761 269.449579 
L 110.188761 268.922893 
L 110.527398 268.922893 
L 110.527398 267.869521 
L 111.505558 267.869521 
L 111.505558 267.342835 
L 112.280765 267.342835 
L 112.280765 266.816149 
L 115.460322 266.816149 
L 115.460322 266.289463 
L 116.443076 266.289463 
L 116.443076 265.762777 
L 117.145424 265.762777 
L 117.145424 264.709405 
L 117.598418 264.709405 
L 117.598418 264.182719 
L 118.256582 264.182719 
L 118.256582 263.656033 
L 119.301163 263.656033 
L 119.301163 263.129347 
L 120.286695 263.129347 
L 120.286695 262.60266 
L 121.036887 262.60266 
L 121.036887 262.075974 
L 122.104932 262.075974 
L 122.191052 261.022602 
L 122.44689 261.022602 
L 122.44689 260.495916 
L 122.615387 260.495916 
L 122.699028 259.442544 
L 122.865118 259.442544 
L 122.947573 258.389172 
L 124.292765 258.389172 
L 124.292765 257.862486 
L 124.817858 257.862486 
L 124.817858 257.3358 
L 124.965026 257.3358 
L 124.965026 256.282427 
L 125.892487 256.282427 
L 125.892487 255.755741 
L 126.168212 255.755741 
L 126.168212 255.229055 
L 126.640485 255.229055 
L 126.640485 254.175683 
L 127.357715 254.175683 
L 127.357715 253.648997 
L 127.674226 253.648997 
L 127.674226 253.122311 
L 128.885774 253.122311 
L 128.885774 252.595625 
L 129.574256 252.595625 
L 129.574256 252.068939 
L 130.018593 252.068939 
L 130.018593 251.542253 
L 130.236587 251.542253 
L 130.236587 251.015567 
L 130.874681 251.015567 
L 130.978796 249.962195 
L 131.640805 249.962195 
L 131.640805 249.435508 
L 132.612604 249.435508 
L 132.612604 248.908822 
L 132.940331 248.908822 
L 132.940331 248.382136 
L 133.488207 248.382136 
L 133.488207 247.328764 
L 133.975741 247.328764 
L 133.975741 244.695334 
L 134.321942 244.695334 
L 134.321942 244.168648 
L 136.5324 244.168648 
L 136.5324 243.641962 
L 136.86886 243.641962 
L 136.86886 239.955159 
L 137.594091 239.955159 
L 137.594091 239.428473 
L 137.735587 239.428473 
L 137.735587 238.901787 
L 138.460171 238.901787 
L 138.493936 237.321729 
L 139.349619 237.321729 
L 139.349619 236.795043 
L 139.477614 236.795043 
L 139.477614 236.268356 
L 139.887228 236.268356 
L 139.887228 235.214984 
L 140.134598 235.214984 
L 140.134598 234.688298 
L 140.256979 234.688298 
L 140.256979 234.161612 
L 140.499195 234.161612 
L 140.499195 233.10824 
L 140.678675 233.10824 
L 140.738093 231.001496 
L 141.148448 231.001496 
L 141.148448 230.47481 
L 142.051655 230.47481 
L 142.051655 229.948123 
L 142.188649 229.948123 
L 142.215919 228.894751 
L 142.831645 228.894751 
L 142.831645 227.841379 
L 143.092717 227.841379 
L 143.092717 226.788007 
L 143.578237 226.788007 
L 143.578237 226.261321 
L 144.099593 226.261321 
L 144.099593 225.734635 
L 144.724207 225.734635 
L 144.724207 225.207949 
L 145.350002 225.207949 
L 145.372754 224.154577 
L 147.144103 224.154577 
L 147.144103 223.627891 
L 147.809113 223.627891 
L 147.828875 222.047832 
L 147.986163 222.047832 
L 147.986163 221.521146 
L 148.48777 221.521146 
L 148.48777 219.941088 
L 149.359452 219.941088 
L 149.359452 219.414402 
L 206.167177 219.414402 
L 206.270609 215.200913 
L 206.282371 215.200913 
L 206.391311 208.88068 
L 206.411919 208.88068 
L 206.522102 199.400331 
L 206.527558 199.400331 
L 206.626168 189.393295 
L 206.643791 189.393295 
L 206.710057 185.706493 
L 206.763965 185.706493 
L 206.763965 184.126434 
L 218.226945 184.126434 
L 218.320489 175.172771 
L 218.354444 175.172771 
L 218.463483 155.685386 
L 218.489263 155.685386 
L 218.556796 151.471897 
L 225.302498 151.471897 
L 225.40399 135.671315 
L 225.429156 135.671315 
L 225.517525 125.66428 
L 230.314934 125.66428 
L 230.423038 108.810325 
L 230.426156 108.810325 
L 230.432045 106.703581 
L 234.231553 106.703581 
L 234.330711 88.269568 
L 237.386651 88.269568 
L 237.49452 75.629102 
L 240.094592 75.629102 
L 240.159647 65.09538 
L 242.417474 65.09538 
L 242.450974 60.881892 
L 244.46956 60.881892 
L 244.524757 53.508287 
L 246.324068 53.508287 
L 246.339446 48.768112 
L 247.967205 48.768112 
L 248.005495 44.027937 
L 249.48347 44.027937 
L 249.520603 41.394507 
L 250.878008 41.394507 
L 250.911594 37.181018 
L 252.186112 37.181018 
L 252.186112 36.654332 
L 253.387683 36.654332 
L 253.389216 35.60096 
L 254.489211 35.60096 
L 254.498144 34.547588 
L 255.561385 34.547588 
L 255.570851 32.967529 
L 257.501999 32.967529 
L 257.501999 32.440843 
L 258.393145 32.440843 
L 258.393145 31.914157 
L 259.251311 31.914157 
L 259.259404 30.334099 
L 338.688 30.334099 
L 338.688 30.334099 
" style="fill:none;stroke:#0000ff;stroke-linecap:square;stroke-width:1.5;"/>
   </g>
   <g id="line2d_41">
    <defs>
     <path d="M 0 -6 
L -1.347084 -1.854102 
L -5.706339 -1.854102 
L -2.179628 0.708204 
L -3.526712 4.854102 
L -0 2.291796 
L 3.526712 4.854102 
L 2.179628 0.708204 
L 5.706339 -1.854102 
L 1.347084 -1.854102 
z
" id="m0ea1c0af60" style="stroke:#0000ff;stroke-linejoin:bevel;stroke-width:1.5;"/>
    </defs>
    <g>
     <use style="fill-opacity:0;stroke:#0000ff;stroke-linejoin:bevel;stroke-width:1.5;" x="105.951954" xlink:href="#m0ea1c0af60" y="271.029638"/>
     <use style="fill-opacity:0;stroke:#0000ff;stroke-linejoin:bevel;stroke-width:1.5;" x="149.359452" xlink:href="#m0ea1c0af60" y="219.414402"/>
     <use style="fill-opacity:0;stroke:#0000ff;stroke-linejoin:bevel;stroke-width:1.5;" x="230.357421" xlink:href="#m0ea1c0af60" y="121.450791"/>
     <use style="fill-opacity:0;stroke:#0000ff;stroke-linejoin:bevel;stroke-width:1.5;" x="259.259404" xlink:href="#m0ea1c0af60" y="30.334099"/>
     <use style="fill-opacity:0;stroke:#0000ff;stroke-linejoin:bevel;stroke-width:1.5;" x="259.259404" xlink:href="#m0ea1c0af60" y="30.334099"/>
     <use style="fill-opacity:0;stroke:#0000ff;stroke-linejoin:bevel;stroke-width:1.5;" x="338.688" xlink:href="#m0ea1c0af60" y="30.334099"/>
    </g>
   </g>
   <g id="line2d_42">
    <path style="fill:none;stroke:#0000ff;stroke-linecap:square;stroke-width:1.5;"/>
    <g/>
   </g>
   <g id="line2d_43">
    <path clip-path="url(#p5376205e18)" d="M 206.135818 219.414402 
" style="fill:none;stroke:#0000ff;stroke-linecap:square;stroke-width:1.5;"/>
    <defs>
     <path d="M -12 12 
L 12 -12 
M -12 -12 
L 12 12 
" id="m9f6697740a" style="stroke:#0000ff;"/>
    </defs>
    <g clip-path="url(#p5376205e18)">
     <use style="fill:#0000ff;stroke:#0000ff;" x="206.135818" xlink:href="#m9f6697740a" y="219.414402"/>
    </g>
   </g>
   <g id="line2d_44">
    <defs>
     <path d="M 0 1.5 
C 0.397805 1.5 0.77937 1.341951 1.06066 1.06066 
C 1.341951 0.77937 1.5 0.397805 1.5 0 
C 1.5 -0.397805 1.341951 -0.77937 1.06066 -1.06066 
C 0.77937 -1.341951 0.397805 -1.5 0 -1.5 
C -0.397805 -1.5 -0.77937 -1.341951 -1.06066 -1.06066 
C -1.341951 -0.77937 -1.5 -0.397805 -1.5 0 
C -1.5 0.397805 -1.341951 0.77937 -1.06066 1.06066 
C -0.77937 1.341951 -0.397805 1.5 0 1.5 
z
" id="m8bdcc306af" style="stroke:#000000;"/>
    </defs>
    <g>
     <use style="stroke:#000000;" x="278.667531" xlink:href="#m8bdcc306af" y="30.334099"/>
     <use style="stroke:#000000;" x="278.667531" xlink:href="#m8bdcc306af" y="30.334099"/>
    </g>
   </g>
   <g id="line2d_45">
    <path d="M 17.444571 298.944 
L 17.444571 292.097081 
L 48.691568 292.097081 
L 48.691568 291.570395 
L 62.175444 291.570395 
L 62.175444 291.043709 
L 65.796525 291.043709 
L 65.796525 290.517023 
L 66.853775 290.517023 
L 66.853775 289.990337 
L 79.447285 289.990337 
L 79.447285 289.463651 
L 79.938565 289.463651 
L 79.938565 288.936964 
L 80.416384 288.936964 
L 80.416384 287.883592 
L 82.206598 287.883592 
L 82.206598 287.356906 
L 87.952479 287.356906 
L 87.952479 286.83022 
L 88.255778 286.83022 
L 88.255778 286.303534 
L 88.553893 286.303534 
L 88.553893 285.250162 
L 89.135256 285.250162 
L 89.135256 284.723476 
L 89.418828 284.723476 
L 89.418828 284.19679 
L 92.504372 284.19679 
L 92.504372 283.670104 
L 92.73846 283.670104 
L 92.73846 283.143418 
L 96.110718 283.143418 
L 96.110718 282.616732 
L 96.489848 282.616732 
L 96.489848 282.090045 
L 98.606294 282.090045 
L 98.606294 281.563359 
L 98.935347 281.563359 
L 98.935347 281.036673 
L 99.731799 281.036673 
L 99.731799 280.509987 
L 100.192776 280.509987 
L 100.192776 279.983301 
L 101.506816 279.983301 
L 101.506816 279.456615 
L 101.646892 279.456615 
L 101.646892 278.929929 
L 103.747386 278.929929 
L 103.747386 278.403243 
L 105.057436 278.403243 
L 105.057436 277.876557 
L 105.51043 277.876557 
L 105.51043 277.349871 
L 106.802819 277.349871 
L 106.802819 276.823185 
L 107.213174 276.823185 
L 107.213174 276.296499 
L 107.614095 276.296499 
L 107.614095 275.769812 
L 109.401893 275.769812 
L 109.401893 275.243126 
L 109.756002 275.243126 
L 109.756002 274.189754 
L 110.443353 274.189754 
L 110.527398 273.136382 
L 111.584648 273.136382 
L 111.584648 272.08301 
L 111.897469 272.08301 
L 111.974805 271.029638 
L 112.051799 271.029638 
L 112.128456 269.976266 
L 112.431755 269.976266 
L 112.431755 269.449579 
L 114.216469 269.449579 
L 114.216469 268.922893 
L 117.985359 268.922893 
L 117.985359 268.396207 
L 118.363901 268.396207 
L 118.363901 267.869521 
L 120.238719 267.869521 
L 120.238719 266.816149 
L 120.852343 266.816149 
L 120.852343 266.289463 
L 121.174025 266.289463 
L 121.174025 265.762777 
L 122.276749 265.762777 
L 122.276749 265.236091 
L 122.40451 265.236091 
L 122.40451 264.182719 
L 122.823744 264.182719 
L 122.823744 263.656033 
L 123.712047 263.656033 
L 123.712047 263.129347 
L 124.024168 263.129347 
L 124.024168 262.60266 
L 124.254646 262.60266 
L 124.254646 262.075974 
L 124.482119 262.075974 
L 124.482119 261.549288 
L 124.780872 261.549288 
L 124.780872 261.022602 
L 125.001625 261.022602 
L 125.001625 260.495916 
L 125.291682 260.495916 
L 125.291682 259.96923 
L 125.541584 259.96923 
L 125.541584 259.442544 
L 126.372183 259.442544 
L 126.439646 257.862486 
L 126.773103 257.862486 
L 126.773103 257.3358 
L 127.674226 257.3358 
L 127.736845 256.282427 
L 127.861412 256.282427 
L 127.861412 255.755741 
L 127.985095 255.755741 
L 127.985095 255.229055 
L 128.679738 255.229055 
L 128.679738 254.175683 
L 128.856489 254.175683 
L 128.856489 253.648997 
L 129.118302 253.648997 
L 129.118302 253.122311 
L 129.489668 253.122311 
L 129.489668 252.595625 
L 129.630422 252.595625 
L 129.630422 252.068939 
L 129.79784 252.068939 
L 129.88095 251.015567 
L 130.182344 251.015567 
L 130.182344 250.488881 
L 130.978796 250.488881 
L 130.978796 249.435508 
L 131.615802 249.435508 
L 131.640805 248.382136 
L 131.814826 248.382136 
L 131.814826 247.85545 
L 132.446401 247.85545 
L 132.446401 247.328764 
L 132.636218 247.328764 
L 132.636218 246.802078 
L 133.147807 246.802078 
L 133.147807 246.275392 
L 133.488207 246.275392 
L 133.488207 245.748706 
L 133.888106 245.748706 
L 133.888106 244.695334 
L 134.106373 244.695334 
L 134.106373 244.168648 
L 134.577155 244.168648 
L 134.577155 243.641962 
L 134.807865 243.641962 
L 134.807865 243.115275 
L 134.953107 243.115275 
L 135.035562 241.535217 
L 135.280614 241.535217 
L 135.280614 241.008531 
L 135.701341 241.008531 
L 135.721125 239.955159 
L 135.917737 239.955159 
L 135.917737 238.901787 
L 136.757427 238.901787 
L 136.757427 237.321729 
L 137.071324 237.321729 
L 137.071324 236.268356 
L 137.325651 236.268356 
L 137.325651 235.74167 
L 137.963097 235.74167 
L 137.963097 234.688298 
L 138.136107 234.688298 
L 138.153314 232.581554 
L 138.324456 232.581554 
L 138.324456 232.054868 
L 138.510793 232.054868 
L 138.510793 231.528182 
L 138.761723 231.528182 
L 138.761723 231.001496 
L 139.058148 231.001496 
L 139.058148 230.47481 
L 139.236847 230.47481 
L 139.285267 228.894751 
L 139.588845 228.894751 
L 139.588845 228.368065 
L 140.272217 228.368065 
L 140.272217 227.841379 
L 140.544239 227.841379 
L 140.604116 226.788007 
L 140.929817 226.788007 
L 140.929817 225.734635 
L 141.148448 225.734635 
L 141.148448 225.207949 
L 141.307054 225.207949 
L 141.378673 224.154577 
L 141.71841 224.154577 
L 141.746425 223.101204 
L 141.830201 223.101204 
L 141.830201 222.574518 
L 142.065403 222.574518 
L 142.174998 220.99446 
L 142.619936 220.99446 
L 142.619936 220.467774 
L 142.752555 220.467774 
L 142.752555 219.941088 
L 143.027814 219.941088 
L 143.027814 219.414402 
L 143.196061 219.414402 
L 143.196061 218.887716 
L 143.337167 218.887716 
L 143.337167 217.834344 
L 143.47714 217.834344 
L 143.47714 217.307658 
L 143.691276 217.307658 
L 143.691276 216.254285 
L 143.890442 216.254285 
L 143.890442 215.727599 
L 144.026061 215.727599 
L 144.026061 215.200913 
L 218.232349 215.200913 
L 218.343364 195.186842 
L 218.344576 195.186842 
L 218.454709 176.226143 
L 218.456602 176.226143 
L 218.505742 173.592713 
L 230.325043 173.592713 
L 230.433431 144.098292 
L 230.452468 144.098292 
L 230.452468 143.571606 
L 237.394204 143.571606 
L 237.462785 117.763988 
L 242.405711 117.763988 
L 242.459839 98.803289 
L 246.298464 98.803289 
L 246.33802 85.109451 
L 249.475627 85.109451 
L 249.508051 71.942299 
L 252.167573 71.942299 
L 252.19131 64.042008 
L 254.492131 64.042008 
L 254.514779 57.721775 
L 256.546396 57.721775 
L 256.56736 52.454914 
L 258.384169 52.454914 
L 258.401018 48.241426 
L 260.045387 48.241426 
L 260.056778 46.134681 
L 261.561785 46.134681 
L 261.572083 44.554623 
L 262.957308 44.554623 
L 262.971237 39.287762 
L 264.253184 39.287762 
L 264.262134 37.181018 
L 265.459588 37.181018 
L 265.462631 36.127646 
L 266.587658 36.127646 
L 266.587658 35.60096 
L 267.638836 35.60096 
L 267.644454 32.967529 
L 268.635227 32.967529 
L 268.635227 32.440843 
L 269.578248 32.440843 
L 269.578248 31.914157 
L 270.473788 31.914157 
L 270.473788 31.387471 
L 272.137044 31.387471 
L 272.137044 30.860785 
L 278.667531 30.860785 
L 278.667531 30.334099 
L 338.688 30.334099 
L 338.688 30.334099 
" style="fill:none;stroke:#000000;stroke-linecap:square;stroke-width:1.5;"/>
   </g>
   <g id="line2d_46">
    <defs>
     <path d="M 0 6 
C 1.591219 6 3.117479 5.367802 4.242641 4.242641 
C 5.367802 3.117479 6 1.591219 6 0 
C 6 -1.591219 5.367802 -3.117479 4.242641 -4.242641 
C 3.117479 -5.367802 1.591219 -6 0 -6 
C -1.591219 -6 -3.117479 -5.367802 -4.242641 -4.242641 
C -5.367802 -3.117479 -6 -1.591219 -6 0 
C -6 1.591219 -5.367802 3.117479 -4.242641 4.242641 
C -3.117479 5.367802 -1.591219 6 0 6 
z
" id="mbc6573618f" style="stroke:#000000;stroke-width:1.5;"/>
    </defs>
    <g>
     <use style="fill-opacity:0;stroke:#000000;stroke-width:1.5;" x="130.978796" xlink:href="#mbc6573618f" y="250.488881"/>
     <use style="fill-opacity:0;stroke:#000000;stroke-width:1.5;" x="218.505742" xlink:href="#mbc6573618f" y="173.592713"/>
     <use style="fill-opacity:0;stroke:#000000;stroke-width:1.5;" x="249.50602" xlink:href="#mbc6573618f" y="72.995672"/>
     <use style="fill-opacity:0;stroke:#000000;stroke-width:1.5;" x="278.667531" xlink:href="#mbc6573618f" y="30.334099"/>
     <use style="fill-opacity:0;stroke:#000000;stroke-width:1.5;" x="278.667531" xlink:href="#mbc6573618f" y="30.334099"/>
     <use style="fill-opacity:0;stroke:#000000;stroke-width:1.5;" x="338.688" xlink:href="#mbc6573618f" y="30.334099"/>
    </g>
   </g>
   <g id="line2d_47">
    <path style="fill:none;stroke:#000000;stroke-linecap:square;stroke-width:1.5;"/>
    <g/>
   </g>
   <g id="line2d_48">
    <path clip-path="url(#p5376205e18)" d="M 218.222063 215.200913 
" style="fill:none;stroke:#000000;stroke-linecap:square;stroke-width:1.5;"/>
    <defs>
     <path d="M -12 12 
L 12 -12 
M -12 -12 
L 12 12 
" id="ma7479badef" style="stroke:#000000;"/>
    </defs>
    <g clip-path="url(#p5376205e18)">
     <use style="stroke:#000000;" x="218.222063" xlink:href="#ma7479badef" y="215.200913"/>
    </g>
   </g>
   <g id="line2d_49">
    <defs>
     <path d="M 0 1.5 
C 0.397805 1.5 0.77937 1.341951 1.06066 1.06066 
C 1.341951 0.77937 1.5 0.397805 1.5 0 
C 1.5 -0.397805 1.341951 -0.77937 1.06066 -1.06066 
C 0.77937 -1.341951 0.397805 -1.5 0 -1.5 
C -0.397805 -1.5 -0.77937 -1.341951 -1.06066 -1.06066 
C -1.341951 -0.77937 -1.5 -0.397805 -1.5 0 
C -1.5 0.397805 -1.341951 0.77937 -1.06066 1.06066 
C -0.77937 1.341951 -0.397805 1.5 0 1.5 
z
" id="m414527d56b" style="stroke:#ff0000;"/>
    </defs>
    <g>
     <use style="fill:#ff0000;stroke:#ff0000;" x="295.074049" xlink:href="#m414527d56b" y="30.334099"/>
     <use style="fill:#ff0000;stroke:#ff0000;" x="295.074049" xlink:href="#m414527d56b" y="30.334099"/>
    </g>
   </g>
   <g id="line2d_50">
    <path d="M 5.356583 298.944 
L 5.356583 293.677139 
L 58.450865 293.677139 
L 58.450865 293.150453 
L 70.538854 293.150453 
L 70.538854 292.623767 
L 90.640756 292.623767 
L 90.640756 292.097081 
L 92.73846 292.097081 
L 92.73846 291.570395 
L 96.301313 291.570395 
L 96.301313 291.043709 
L 96.583356 291.043709 
L 96.583356 290.517023 
L 97.755429 290.517023 
L 97.755429 289.990337 
L 98.18605 289.990337 
L 98.18605 289.463651 
L 98.606294 289.463651 
L 98.606294 288.410278 
L 99.496659 288.410278 
L 99.496659 287.883592 
L 100.641881 287.883592 
L 100.641881 287.356906 
L 100.789049 287.356906 
L 100.86217 286.303534 
L 101.007498 286.303534 
L 101.007498 285.776848 
L 101.436355 285.776848 
L 101.436355 285.250162 
L 102.464508 285.250162 
L 102.464508 284.723476 
L 102.728744 284.723476 
L 102.728744 284.19679 
L 103.93193 284.19679 
L 103.93193 283.670104 
L 104.295262 283.670104 
L 104.295262 283.143418 
L 105.566235 283.143418 
L 105.566235 282.616732 
L 106.006367 282.616732 
L 106.006367 282.090045 
L 106.275913 282.090045 
L 106.275913 281.563359 
L 106.593963 281.563359 
L 106.593963 281.036673 
L 107.009204 281.036673 
L 107.009204 280.509987 
L 107.614095 280.509987 
L 107.614095 279.456615 
L 107.860069 279.456615 
L 107.860069 278.403243 
L 108.246551 278.403243 
L 108.246551 277.876557 
L 108.856871 277.876557 
L 108.856871 276.823185 
L 109.446552 276.823185 
L 109.446552 276.296499 
L 110.485426 276.296499 
L 110.485426 275.769812 
L 111.465878 275.769812 
L 111.465878 275.243126 
L 111.624059 275.243126 
L 111.624059 274.71644 
L 111.974805 274.71644 
L 111.974805 274.189754 
L 112.204777 274.189754 
L 112.204777 273.663068 
L 113.095487 273.663068 
L 113.095487 272.609696 
L 113.55961 272.609696 
L 113.55961 272.08301 
L 114.0117 272.08301 
L 114.114385 271.029638 
L 114.947365 271.029638 
L 114.947365 270.502952 
L 115.301637 270.502952 
L 115.301637 269.976266 
L 116.885347 269.976266 
L 116.885347 269.449579 
L 117.626343 269.449579 
L 117.626343 268.922893 
L 118.337133 268.922893 
L 118.337133 268.396207 
L 118.470564 268.396207 
L 118.470564 267.869521 
L 119.351785 267.869521 
L 119.351785 267.342835 
L 120.310634 267.342835 
L 120.310634 266.816149 
L 120.429836 266.816149 
L 120.429836 266.289463 
L 123.474235 266.289463 
L 123.573718 265.236091 
L 123.692353 265.236091 
L 123.692353 264.182719 
L 124.235556 264.182719 
L 124.235556 263.656033 
L 124.444412 263.656033 
L 124.444412 263.129347 
L 124.799375 263.129347 
L 124.799375 262.60266 
L 124.92835 262.60266 
L 124.92835 262.075974 
L 126.304457 262.075974 
L 126.304457 261.549288 
L 126.673734 261.549288 
L 126.673734 261.022602 
L 127.642832 261.022602 
L 127.642832 260.495916 
L 128.871138 260.495916 
L 128.871138 259.96923 
L 130.155159 259.96923 
L 130.155159 259.442544 
L 130.717333 259.442544 
L 130.717333 258.915858 
L 131.640805 258.915858 
L 131.640805 258.389172 
L 131.752875 258.389172 
L 131.752875 257.862486 
L 132.398622 257.862486 
L 132.398622 257.3358 
L 132.998212 257.3358 
L 132.998212 256.809114 
L 133.170708 256.809114 
L 133.170708 256.282427 
L 133.733678 256.282427 
L 133.733678 255.755741 
L 134.019394 255.755741 
L 134.019394 255.229055 
L 135.381712 255.229055 
L 135.381712 254.702369 
L 135.512269 254.702369 
L 135.512269 254.175683 
L 135.770486 254.175683 
L 135.770486 253.648997 
L 136.522961 253.648997 
L 136.522961 253.122311 
L 137.594091 253.122311 
L 137.673823 252.068939 
L 138.01518 252.068939 
L 138.01518 251.542253 
L 138.161911 251.542253 
L 138.161911 251.015567 
L 139.293324 251.015567 
L 139.293324 250.488881 
L 139.461666 250.488881 
L 139.461666 249.962195 
L 140.574203 249.962195 
L 140.574203 249.435508 
L 140.841591 249.435508 
L 140.841591 248.908822 
L 141.321401 248.908822 
L 141.414373 247.85545 
L 141.71841 247.85545 
L 141.767407 246.275392 
L 141.927433 246.275392 
L 141.927433 245.748706 
L 142.140824 245.748706 
L 142.229539 244.695334 
L 142.666468 244.695334 
L 142.666468 244.168648 
L 143.008296 244.168648 
L 143.008296 243.641962 
L 143.672487 243.641962 
L 143.672487 243.115275 
L 143.834656 243.115275 
L 143.834656 242.588589 
L 144.233601 242.588589 
L 144.233601 242.061903 
L 144.847661 242.061903 
L 144.847661 241.535217 
L 145.143889 241.535217 
L 145.143889 241.008531 
L 145.559333 241.008531 
L 145.559333 240.481845 
L 145.827205 240.481845 
L 145.888018 239.428473 
L 147.322917 239.428473 
L 147.322917 238.901787 
L 230.31598 238.901787 
L 230.425377 210.987425 
L 230.427152 210.987425 
L 230.452079 204.667192 
L 242.405951 204.667192 
L 242.46668 183.073062 
L 249.474305 183.073062 
L 249.51898 159.898875 
L 254.49212 159.898875 
L 254.519925 140.41149 
L 258.382731 140.41149 
L 258.405154 122.504163 
L 261.562512 122.504163 
L 261.5799 110.917069 
L 264.248863 110.917069 
L 264.265331 101.43672 
L 266.576774 101.43672 
L 266.592835 91.95637 
L 268.630534 91.95637 
L 268.644023 82.476021 
L 270.469308 82.476021 
L 270.479853 77.735846 
L 272.12992 77.735846 
L 272.139547 72.468985 
L 273.646919 72.468985 
L 273.656764 65.622066 
L 275.044576 65.622066 
L 275.051036 61.408578 
L 276.337259 61.408578 
L 276.342788 57.721775 
L 277.542809 57.721775 
L 277.545813 55.088345 
L 278.663839 55.088345 
L 278.670053 51.401542 
L 279.720989 51.401542 
L 279.725922 48.241426 
L 280.717965 48.241426 
L 280.723084 44.554623 
L 281.662693 44.554623 
L 281.666195 41.394507 
L 282.560199 41.394507 
L 282.560199 40.867821 
L 283.408299 40.867821 
L 283.410586 39.287762 
L 284.218281 39.287762 
L 284.222001 37.181018 
L 284.993123 37.181018 
L 284.996915 35.60096 
L 286.447675 35.60096 
L 286.449915 34.547588 
L 287.790001 34.547588 
L 287.790484 32.967529 
L 289.035653 32.967529 
L 289.036425 31.914157 
L 290.752305 31.914157 
L 290.752305 31.387471 
L 293.749263 31.387471 
L 293.749263 30.860785 
L 295.074049 30.860785 
L 295.074049 30.334099 
L 338.688 30.334099 
L 338.688 30.334099 
" style="fill:none;stroke:#ff0000;stroke-linecap:square;stroke-width:1.5;"/>
   </g>
   <g id="line2d_51">
    <defs>
     <path d="M -6 6 
L 6 6 
L 6 -6 
L -6 -6 
z
" id="m6d1c46a6d5" style="stroke:#ff0000;stroke-linejoin:miter;stroke-width:1.5;"/>
    </defs>
    <g>
     <use style="fill-opacity:0;stroke:#ff0000;stroke-linejoin:miter;stroke-width:1.5;" x="134.019394" xlink:href="#m6d1c46a6d5" y="255.755741"/>
     <use style="fill-opacity:0;stroke:#ff0000;stroke-linejoin:miter;stroke-width:1.5;" x="147.322917" xlink:href="#m6d1c46a6d5" y="238.901787"/>
     <use style="fill-opacity:0;stroke:#ff0000;stroke-linejoin:miter;stroke-width:1.5;" x="268.644023" xlink:href="#m6d1c46a6d5" y="82.476021"/>
     <use style="fill-opacity:0;stroke:#ff0000;stroke-linejoin:miter;stroke-width:1.5;" x="295.074049" xlink:href="#m6d1c46a6d5" y="30.334099"/>
     <use style="fill-opacity:0;stroke:#ff0000;stroke-linejoin:miter;stroke-width:1.5;" x="295.074049" xlink:href="#m6d1c46a6d5" y="30.334099"/>
     <use style="fill-opacity:0;stroke:#ff0000;stroke-linejoin:miter;stroke-width:1.5;" x="338.688" xlink:href="#m6d1c46a6d5" y="30.334099"/>
    </g>
   </g>
   <g id="line2d_52">
    <path style="fill:none;stroke:#ff0000;stroke-linecap:square;stroke-width:1.5;"/>
    <g/>
   </g>
   <g id="line2d_53">
    <path clip-path="url(#p5376205e18)" d="M 230.310182 238.901787 
" style="fill:none;stroke:#ff0000;stroke-linecap:square;stroke-width:1.5;"/>
    <defs>
     <path d="M -12 12 
L 12 -12 
M -12 -12 
L 12 12 
" id="md51c511606" style="stroke:#ff0000;"/>
    </defs>
    <g clip-path="url(#p5376205e18)">
     <use style="fill:#ff0000;stroke:#ff0000;" x="230.310182" xlink:href="#md51c511606" y="238.901787"/>
    </g>
   </g>
   <g id="line2d_54">
    <defs>
     <path d="M 0 1.5 
C 0.397805 1.5 0.77937 1.341951 1.06066 1.06066 
C 1.341951 0.77937 1.5 0.397805 1.5 0 
C 1.5 -0.397805 1.341951 -0.77937 1.06066 -1.06066 
C 0.77937 -1.341951 0.397805 -1.5 0 -1.5 
C -0.397805 -1.5 -0.77937 -1.341951 -1.06066 -1.06066 
C -1.341951 -0.77937 -1.5 -0.397805 -1.5 0 
C -1.5 0.397805 -1.341951 0.77937 -1.06066 1.06066 
C -0.77937 1.341951 -0.397805 1.5 0 1.5 
z
" id="mcc0426900b" style="stroke:#bf00bf;"/>
    </defs>
    <g>
     <use style="fill:#bf00bf;stroke:#bf00bf;" x="299.876022" xlink:href="#mcc0426900b" y="30.334099"/>
     <use style="fill:#bf00bf;stroke:#bf00bf;" x="299.876022" xlink:href="#mcc0426900b" y="30.334099"/>
    </g>
   </g>
   <g id="line2d_55">
    <path d="M -1 293.677139 
L 87.875822 293.677139 
L 87.875822 293.150453 
L 88.330786 293.150453 
L 88.330786 292.623767 
L 88.627632 292.623767 
L 88.627632 292.097081 
L 93.026719 292.097081 
L 93.026719 291.570395 
L 95.624913 291.570395 
L 95.624913 290.517023 
L 96.442905 290.517023 
L 96.442905 289.990337 
L 96.722686 289.990337 
L 96.722686 289.463651 
L 97.269131 289.463651 
L 97.269131 288.936964 
L 98.481281 288.936964 
L 98.481281 288.410278 
L 99.258306 288.410278 
L 99.258306 287.883592 
L 99.53607 287.883592 
L 99.53607 287.356906 
L 99.848191 287.356906 
L 99.848191 286.83022 
L 100.567829 286.83022 
L 100.567829 286.303534 
L 100.715621 286.303534 
L 100.715621 285.776848 
L 101.365607 285.776848 
L 101.365607 285.250162 
L 102.094519 285.250162 
L 102.094519 284.723476 
L 102.263669 284.723476 
L 102.263669 284.19679 
L 102.597126 284.19679 
L 102.597126 283.670104 
L 103.085654 283.670104 
L 103.149769 282.616732 
L 103.654376 282.616732 
L 103.654376 281.563359 
L 103.93193 281.563359 
L 103.93193 281.036673 
L 104.680512 281.036673 
L 104.739033 279.456615 
L 105.086095 279.456615 
L 105.086095 278.403243 
L 105.25707 278.403243 
L 105.341933 277.349871 
L 105.538355 277.349871 
L 105.538355 276.823185 
L 106.06061 276.823185 
L 106.06061 276.296499 
L 106.409139 276.296499 
L 106.409139 275.769812 
L 107.238504 275.769812 
L 107.238504 274.189754 
L 108.03021 274.189754 
L 108.03021 273.663068 
L 108.78753 273.663068 
L 108.78753 273.136382 
L 109.1995 273.136382 
L 109.1995 272.609696 
L 109.513326 272.609696 
L 109.513326 271.556324 
L 109.865203 271.556324 
L 109.865203 271.029638 
L 110.880138 271.029638 
L 110.880138 270.502952 
L 111.83924 270.502952 
L 111.83924 269.449579 
L 112.128456 269.449579 
L 112.147567 267.342835 
L 113.329092 267.342835 
L 113.329092 266.816149 
L 113.471309 266.816149 
L 113.471309 266.289463 
L 113.612376 266.289463 
L 113.612376 265.236091 
L 114.701622 265.236091 
L 114.701622 264.709405 
L 115.726815 264.709405 
L 115.726815 264.182719 
L 116.680349 264.182719 
L 116.680349 263.656033 
L 116.928964 263.656033 
L 116.928964 262.60266 
L 117.259781 262.60266 
L 117.259781 262.075974 
L 117.834369 262.075974 
L 117.834369 261.549288 
L 118.053562 261.549288 
L 118.053562 261.022602 
L 118.270033 261.022602 
L 118.296904 259.442544 
L 119.911382 259.442544 
L 119.911382 258.915858 
L 120.298669 258.915858 
L 120.34648 257.862486 
L 120.677541 257.862486 
L 120.712642 256.809114 
L 121.590203 256.809114 
L 121.590203 256.282427 
L 122.625864 256.282427 
L 122.625864 255.755741 
L 122.885768 255.755741 
L 122.885768 255.229055 
L 123.444279 255.229055 
L 123.553867 253.648997 
L 124.529137 253.648997 
L 124.632135 252.595625 
L 124.827093 252.595625 
L 124.827093 252.068939 
L 125.120043 252.068939 
L 125.120043 251.542253 
L 125.691581 251.542253 
L 125.691581 251.015567 
L 126.108269 251.015567 
L 126.108269 250.488881 
L 126.515232 250.488881 
L 126.515232 248.908822 
L 126.912914 248.908822 
L 126.912914 248.382136 
L 128.107907 248.382136 
L 128.107907 247.85545 
L 128.657518 247.85545 
L 128.657518 247.328764 
L 128.893088 247.328764 
L 128.893088 246.802078 
L 129.240582 246.802078 
L 129.240582 246.275392 
L 129.581287 246.275392 
L 129.581287 245.748706 
L 131.293837 245.748706 
L 131.395487 244.695334 
L 132.090915 244.695334 
L 132.188037 243.641962 
L 132.380671 243.641962 
L 132.380671 243.115275 
L 132.583041 243.115275 
L 132.583041 242.588589 
L 132.928732 242.588589 
L 132.946128 241.535217 
L 133.29613 241.535217 
L 133.29613 240.481845 
L 133.672633 240.481845 
L 133.672633 239.955159 
L 134.057501 239.955159 
L 134.057501 239.428473 
L 134.198316 239.428473 
L 134.198316 238.901787 
L 134.624595 238.901787 
L 134.624595 238.375101 
L 135.122746 238.375101 
L 135.204405 237.321729 
L 135.52727 237.321729 
L 135.52727 236.795043 
L 135.814792 236.795043 
L 135.814792 236.268356 
L 136.155604 236.268356 
L 136.155604 235.74167 
L 136.309213 235.74167 
L 136.309213 234.688298 
L 136.910465 234.688298 
L 136.95197 233.10824 
L 137.420076 233.10824 
L 137.420076 232.581554 
L 137.634002 232.581554 
L 137.634002 232.054868 
L 137.845337 232.054868 
L 137.845337 231.528182 
L 137.984817 231.528182 
L 137.984817 231.001496 
L 138.191968 231.001496 
L 138.191968 230.47481 
L 138.665959 230.47481 
L 138.665959 229.948123 
L 139.127408 229.948123 
L 139.127408 229.421437 
L 139.257039 229.421437 
L 139.257039 228.894751 
L 140.042245 228.894751 
L 140.061525 227.841379 
L 140.234098 227.841379 
L 140.234098 227.314693 
L 140.860008 227.314693 
L 140.860008 226.788007 
L 141.324986 226.788007 
L 141.35364 225.734635 
L 142.33811 225.734635 
L 142.435923 224.681263 
L 142.676423 224.681263 
L 142.782256 223.101204 
L 143.228231 223.101204 
L 143.228231 222.574518 
L 143.480308 222.574518 
L 143.480308 220.99446 
L 143.781805 220.99446 
L 143.781805 220.467774 
L 144.272998 220.467774 
L 144.369598 219.414402 
L 144.417698 219.414402 
L 144.513502 218.36103 
L 144.68286 218.36103 
L 144.68286 217.834344 
L 145.169787 217.834344 
L 145.267277 216.780971 
L 145.347156 216.780971 
L 145.347156 216.254285 
L 145.97884 216.254285 
L 145.97884 215.727599 
L 146.283607 215.727599 
L 146.283607 215.200913 
L 146.431341 215.200913 
L 146.431341 214.674227 
L 146.960843 214.674227 
L 146.960843 214.147541 
L 242.400176 214.147541 
L 242.470805 172.012655 
L 254.488922 172.012655 
L 254.519049 144.624978 
L 261.558923 144.624978 
L 261.580383 120.924105 
L 266.576951 120.924105 
L 266.591983 106.176895 
L 270.467723 106.176895 
L 270.479349 89.849626 
L 273.647288 89.849626 
L 273.654553 82.476021 
L 276.33507 82.476021 
L 276.342243 71.942299 
L 278.664154 71.942299 
L 278.669558 65.622066 
L 280.716805 65.622066 
L 280.722123 59.301833 
L 282.554945 59.301833 
L 282.560054 55.088345 
L 284.216921 55.088345 
L 284.220092 46.661368 
L 285.734432 46.661368 
L 285.736626 43.501251 
L 287.13087 43.501251 
L 287.133565 39.814448 
L 288.422859 39.814448 
L 288.423021 38.761076 
L 289.62607 38.761076 
L 289.62729 36.654332 
L 291.80824 36.654332 
L 291.810343 34.547588 
L 292.805452 34.547588 
L 292.805665 33.494215 
L 293.748456 33.494215 
L 293.748859 32.440843 
L 296.30588 32.440843 
L 296.30588 31.914157 
L 297.821977 31.914157 
L 297.822711 30.860785 
L 299.876022 30.860785 
L 299.876022 30.334099 
L 338.688 30.334099 
L 338.688 30.334099 
" style="fill:none;stroke:#bf00bf;stroke-linecap:square;stroke-width:1.5;"/>
   </g>
   <g id="line2d_56">
    <defs>
     <path d="M -0 8.485281 
L 8.485281 0 
L 0 -8.485281 
L -8.485281 -0 
z
" id="mb628344d58" style="stroke:#bf00bf;stroke-linejoin:miter;stroke-width:1.5;"/>
    </defs>
    <g>
     <use style="fill-opacity:0;stroke:#bf00bf;stroke-linejoin:miter;stroke-width:1.5;" x="96.722686" xlink:href="#mb628344d58" y="289.990337"/>
     <use style="fill-opacity:0;stroke:#bf00bf;stroke-linejoin:miter;stroke-width:1.5;" x="146.960843" xlink:href="#mb628344d58" y="214.674227"/>
     <use style="fill-opacity:0;stroke:#bf00bf;stroke-linejoin:miter;stroke-width:1.5;" x="242.470805" xlink:href="#mb628344d58" y="172.539341"/>
     <use style="fill-opacity:0;stroke:#bf00bf;stroke-linejoin:miter;stroke-width:1.5;" x="282.555922" xlink:href="#mb628344d58" y="57.195089"/>
     <use style="fill-opacity:0;stroke:#bf00bf;stroke-linejoin:miter;stroke-width:1.5;" x="299.876022" xlink:href="#mb628344d58" y="30.334099"/>
     <use style="fill-opacity:0;stroke:#bf00bf;stroke-linejoin:miter;stroke-width:1.5;" x="338.688" xlink:href="#mb628344d58" y="30.334099"/>
    </g>
   </g>
   <g id="line2d_57">
    <path style="fill:none;stroke:#bf00bf;stroke-linecap:square;stroke-width:1.5;"/>
    <g/>
   </g>
   <g id="line2d_58">
    <path clip-path="url(#p5376205e18)" d="M 242.397702 214.147541 
" style="fill:none;stroke:#bf00bf;stroke-linecap:square;stroke-width:1.5;"/>
    <defs>
     <path d="M -12 12 
L 12 -12 
M -12 -12 
L 12 12 
" id="m6372d97265" style="stroke:#bf00bf;"/>
    </defs>
    <g clip-path="url(#p5376205e18)">
     <use style="fill:#bf00bf;stroke:#bf00bf;" x="242.397702" xlink:href="#m6372d97265" y="214.147541"/>
    </g>
   </g>
   <g id="line2d_59">
    <path d="M 338.688 30.334099 
L 369.60768 293.571802 
" style="fill:none;stroke:#bf00bf;stroke-linecap:square;stroke-width:1.5;"/>
    <g>
     <use style="fill-opacity:0;stroke:#bf00bf;stroke-linejoin:miter;stroke-width:1.5;" x="338.688" xlink:href="#mb628344d58" y="30.334099"/>
     <use style="fill-opacity:0;stroke:#bf00bf;stroke-linejoin:miter;stroke-width:1.5;" x="369.60768" xlink:href="#mb628344d58" y="293.571802"/>
    </g>
   </g>
   <g id="line2d_60">
    <path d="M 338.688 30.334099 
L 369.60768 241.998701 
" style="fill:none;stroke:#ff0000;stroke-linecap:square;stroke-width:1.5;"/>
    <g>
     <use style="fill-opacity:0;stroke:#ff0000;stroke-linejoin:miter;stroke-width:1.5;" x="338.688" xlink:href="#m6d1c46a6d5" y="30.334099"/>
     <use style="fill-opacity:0;stroke:#ff0000;stroke-linejoin:miter;stroke-width:1.5;" x="369.60768" xlink:href="#m6d1c46a6d5" y="241.998701"/>
    </g>
   </g>
   <g id="line2d_61">
    <path d="M 338.688 30.334099 
L 369.60768 190.4256 
" style="fill:none;stroke:#000000;stroke-linecap:square;stroke-width:1.5;"/>
    <g>
     <use style="fill-opacity:0;stroke:#000000;stroke-width:1.5;" x="338.688" xlink:href="#mbc6573618f" y="30.334099"/>
     <use style="fill-opacity:0;stroke:#000000;stroke-width:1.5;" x="369.60768" xlink:href="#mbc6573618f" y="190.4256"/>
    </g>
   </g>
   <g id="line2d_62">
    <path d="M 338.688 30.334099 
L 369.60768 138.852499 
" style="fill:none;stroke:#0000ff;stroke-linecap:square;stroke-width:1.5;"/>
    <g>
     <use style="fill-opacity:0;stroke:#0000ff;stroke-linejoin:bevel;stroke-width:1.5;" x="338.688" xlink:href="#m0ea1c0af60" y="30.334099"/>
     <use style="fill-opacity:0;stroke:#0000ff;stroke-linejoin:bevel;stroke-width:1.5;" x="369.60768" xlink:href="#m0ea1c0af60" y="138.852499"/>
    </g>
   </g>
   <g id="line2d_63">
    <path d="M 338.688 30.334099 
L 369.60768 87.279398 
" style="fill:none;stroke:#00bfbf;stroke-linecap:square;stroke-width:1.5;"/>
    <g>
     <use style="fill-opacity:0;stroke:#00bfbf;stroke-width:1.5;" x="338.688" xlink:href="#md404d8bd2e" y="30.334099"/>
     <use style="fill-opacity:0;stroke:#00bfbf;stroke-width:1.5;" x="369.60768" xlink:href="#md404d8bd2e" y="87.279398"/>
    </g>
   </g>
   <g id="line2d_64">
    <path d="M 338.688 30.334099 
L 369.60768 35.706297 
" style="fill:none;stroke:#008000;stroke-linecap:square;stroke-width:1.5;"/>
    <g>
     <use style="fill-opacity:0;stroke:#008000;stroke-linejoin:miter;stroke-width:1.5;" x="338.688" xlink:href="#m2837008e68" y="30.334099"/>
     <use style="fill-opacity:0;stroke:#008000;stroke-linejoin:miter;stroke-width:1.5;" x="369.60768" xlink:href="#m2837008e68" y="35.706297"/>
    </g>
   </g>
   <g id="line2d_65">
    <path d="M 338.688 298.944 
L 338.688 30.334099 
" style="fill:none;stroke:#000000;stroke-linecap:square;stroke-width:1.5;"/>
   </g>
   <g id="patch_3">
    <path d="M 57.6 298.944 
L 57.6 27.648 
" style="fill:none;stroke:#000000;stroke-linecap:square;stroke-linejoin:miter;stroke-width:0.8;"/>
   </g>
   <g id="patch_4">
    <path d="M 338.688 298.944 
L 338.688 27.648 
" style="fill:none;stroke:#000000;stroke-linecap:square;stroke-linejoin:miter;stroke-width:0.8;"/>
   </g>
   <g id="patch_5">
    <path d="M 57.6 298.944 
L 338.688 298.944 
" style="fill:none;stroke:#000000;stroke-linecap:square;stroke-linejoin:miter;stroke-width:0.8;"/>
   </g>
   <g id="patch_6">
    <path d="M 57.6 27.648 
L 338.688 27.648 
" style="fill:none;stroke:#000000;stroke-linecap:square;stroke-linejoin:miter;stroke-width:0.8;"/>
   </g>
   <g id="text_13">
    <!-- 40-D -->
    <g transform="translate(375.22944 298.262739)scale(0.17 -0.17)">
     <defs>
      <path d="M 19.671875 64.796875 
L 19.671875 8.109375 
L 31.59375 8.109375 
Q 46.6875 8.109375 53.6875 14.9375 
Q 60.6875 21.78125 60.6875 36.53125 
Q 60.6875 51.171875 53.6875 57.984375 
Q 46.6875 64.796875 31.59375 64.796875 
z
M 9.8125 72.90625 
L 30.078125 72.90625 
Q 51.265625 72.90625 61.171875 64.09375 
Q 71.09375 55.28125 71.09375 36.53125 
Q 71.09375 17.671875 61.125 8.828125 
Q 51.171875 0 30.078125 0 
L 9.8125 0 
z
" id="DejaVuSans-68"/>
     </defs>
     <use xlink:href="#DejaVuSans-52"/>
     <use x="63.623047" xlink:href="#DejaVuSans-48"/>
     <use x="127.246094" xlink:href="#DejaVuSans-45"/>
     <use x="163.330078" xlink:href="#DejaVuSans-68"/>
    </g>
   </g>
   <g id="text_14">
    <!-- 20-D -->
    <g transform="translate(375.22944 246.689638)scale(0.17 -0.17)">
     <use xlink:href="#DejaVuSans-50"/>
     <use x="63.623047" xlink:href="#DejaVuSans-48"/>
     <use x="127.246094" xlink:href="#DejaVuSans-45"/>
     <use x="163.330078" xlink:href="#DejaVuSans-68"/>
    </g>
   </g>
   <g id="text_15">
    <!-- 10-D -->
    <g transform="translate(375.22944 195.116537)scale(0.17 -0.17)">
     <use xlink:href="#DejaVuSans-49"/>
     <use x="63.623047" xlink:href="#DejaVuSans-48"/>
     <use x="127.246094" xlink:href="#DejaVuSans-45"/>
     <use x="163.330078" xlink:href="#DejaVuSans-68"/>
    </g>
   </g>
   <g id="text_16">
    <!-- 5-D -->
    <g transform="translate(375.22944 143.543437)scale(0.17 -0.17)">
     <defs>
      <path d="M 10.796875 72.90625 
L 49.515625 72.90625 
L 49.515625 64.59375 
L 19.828125 64.59375 
L 19.828125 46.734375 
Q 21.96875 47.46875 24.109375 47.828125 
Q 26.265625 48.1875 28.421875 48.1875 
Q 40.625 48.1875 47.75 41.5 
Q 54.890625 34.8125 54.890625 23.390625 
Q 54.890625 11.625 47.5625 5.09375 
Q 40.234375 -1.421875 26.90625 -1.421875 
Q 22.3125 -1.421875 17.546875 -0.640625 
Q 12.796875 0.140625 7.71875 1.703125 
L 7.71875 11.625 
Q 12.109375 9.234375 16.796875 8.0625 
Q 21.484375 6.890625 26.703125 6.890625 
Q 35.15625 6.890625 40.078125 11.328125 
Q 45.015625 15.765625 45.015625 23.390625 
Q 45.015625 31 40.078125 35.4375 
Q 35.15625 39.890625 26.703125 39.890625 
Q 22.75 39.890625 18.8125 39.015625 
Q 14.890625 38.140625 10.796875 36.28125 
z
" id="DejaVuSans-53"/>
     </defs>
     <use xlink:href="#DejaVuSans-53"/>
     <use x="63.623047" xlink:href="#DejaVuSans-45"/>
     <use x="99.707031" xlink:href="#DejaVuSans-68"/>
    </g>
   </g>
   <g id="text_17">
    <!-- 2-D -->
    <g transform="translate(375.22944 91.970336)scale(0.17 -0.17)">
     <use xlink:href="#DejaVuSans-50"/>
     <use x="63.623047" xlink:href="#DejaVuSans-45"/>
     <use x="99.707031" xlink:href="#DejaVuSans-68"/>
    </g>
   </g>
   <g id="text_18">
    <!-- 3-D -->
    <g transform="translate(375.22944 40.397235)scale(0.17 -0.17)">
     <defs>
      <path d="M 40.578125 39.3125 
Q 47.65625 37.796875 51.625 33 
Q 55.609375 28.21875 55.609375 21.1875 
Q 55.609375 10.40625 48.1875 4.484375 
Q 40.765625 -1.421875 27.09375 -1.421875 
Q 22.515625 -1.421875 17.65625 -0.515625 
Q 12.796875 0.390625 7.625 2.203125 
L 7.625 11.71875 
Q 11.71875 9.328125 16.59375 8.109375 
Q 21.484375 6.890625 26.8125 6.890625 
Q 36.078125 6.890625 40.9375 10.546875 
Q 45.796875 14.203125 45.796875 21.1875 
Q 45.796875 27.640625 41.28125 31.265625 
Q 36.765625 34.90625 28.71875 34.90625 
L 20.21875 34.90625 
L 20.21875 43.015625 
L 29.109375 43.015625 
Q 36.375 43.015625 40.234375 45.921875 
Q 44.09375 48.828125 44.09375 54.296875 
Q 44.09375 59.90625 40.109375 62.90625 
Q 36.140625 65.921875 28.71875 65.921875 
Q 24.65625 65.921875 20.015625 65.03125 
Q 15.375 64.15625 9.8125 62.3125 
L 9.8125 71.09375 
Q 15.4375 72.65625 20.34375 73.4375 
Q 25.25 74.21875 29.59375 74.21875 
Q 40.828125 74.21875 47.359375 69.109375 
Q 53.90625 64.015625 53.90625 55.328125 
Q 53.90625 49.265625 50.4375 45.09375 
Q 46.96875 40.921875 40.578125 39.3125 
z
" id="DejaVuSans-51"/>
     </defs>
     <use xlink:href="#DejaVuSans-51"/>
     <use x="63.623047" xlink:href="#DejaVuSans-45"/>
     <use x="99.707031" xlink:href="#DejaVuSans-68"/>
    </g>
   </g>
   <g id="text_19">
    <!-- bbob f21 -->
    <g transform="translate(60.41088 38.111366)scale(0.102 -0.102)">
     <defs>
      <path d="M 48.6875 27.296875 
Q 48.6875 37.203125 44.609375 42.84375 
Q 40.53125 48.484375 33.40625 48.484375 
Q 26.265625 48.484375 22.1875 42.84375 
Q 18.109375 37.203125 18.109375 27.296875 
Q 18.109375 17.390625 22.1875 11.75 
Q 26.265625 6.109375 33.40625 6.109375 
Q 40.53125 6.109375 44.609375 11.75 
Q 48.6875 17.390625 48.6875 27.296875 
z
M 18.109375 46.390625 
Q 20.953125 51.265625 25.265625 53.625 
Q 29.59375 56 35.59375 56 
Q 45.5625 56 51.78125 48.09375 
Q 58.015625 40.1875 58.015625 27.296875 
Q 58.015625 14.40625 51.78125 6.484375 
Q 45.5625 -1.421875 35.59375 -1.421875 
Q 29.59375 -1.421875 25.265625 0.953125 
Q 20.953125 3.328125 18.109375 8.203125 
L 18.109375 0 
L 9.078125 0 
L 9.078125 75.984375 
L 18.109375 75.984375 
z
" id="DejaVuSans-98"/>
     </defs>
     <use xlink:href="#DejaVuSans-98"/>
     <use x="63.476562" xlink:href="#DejaVuSans-98"/>
     <use x="126.953125" xlink:href="#DejaVuSans-111"/>
     <use x="188.134766" xlink:href="#DejaVuSans-98"/>
     <use x="251.611328" xlink:href="#DejaVuSans-32"/>
     <use x="283.398438" xlink:href="#DejaVuSans-102"/>
     <use x="318.603516" xlink:href="#DejaVuSans-50"/>
     <use x="382.226562" xlink:href="#DejaVuSans-49"/>
    </g>
    <!-- 51 targets: 100..1e-08 -->
    <g transform="translate(60.41088 49.533135)scale(0.102 -0.102)">
     <defs>
      <path d="M 11.71875 12.40625 
L 22.015625 12.40625 
L 22.015625 0 
L 11.71875 0 
z
M 11.71875 51.703125 
L 22.015625 51.703125 
L 22.015625 39.3125 
L 11.71875 39.3125 
z
" id="DejaVuSans-58"/>
     </defs>
     <use xlink:href="#DejaVuSans-53"/>
     <use x="63.623047" xlink:href="#DejaVuSans-49"/>
     <use x="127.246094" xlink:href="#DejaVuSans-32"/>
     <use x="159.033203" xlink:href="#DejaVuSans-116"/>
     <use x="198.242188" xlink:href="#DejaVuSans-97"/>
     <use x="259.521484" xlink:href="#DejaVuSans-114"/>
     <use x="298.884766" xlink:href="#DejaVuSans-103"/>
     <use x="362.361328" xlink:href="#DejaVuSans-101"/>
     <use x="423.884766" xlink:href="#DejaVuSans-116"/>
     <use x="463.09375" xlink:href="#DejaVuSans-115"/>
     <use x="515.193359" xlink:href="#DejaVuSans-58"/>
     <use x="548.884766" xlink:href="#DejaVuSans-32"/>
     <use x="580.671875" xlink:href="#DejaVuSans-49"/>
     <use x="644.294922" xlink:href="#DejaVuSans-48"/>
     <use x="707.917969" xlink:href="#DejaVuSans-48"/>
     <use x="771.541016" xlink:href="#DejaVuSans-46"/>
     <use x="803.328125" xlink:href="#DejaVuSans-46"/>
     <use x="835.115234" xlink:href="#DejaVuSans-49"/>
     <use x="898.738281" xlink:href="#DejaVuSans-101"/>
     <use x="960.261719" xlink:href="#DejaVuSans-45"/>
     <use x="996.345703" xlink:href="#DejaVuSans-48"/>
     <use x="1059.96875" xlink:href="#DejaVuSans-56"/>
    </g>
    <!-- 15 instances -->
    <g transform="translate(60.41088 60.954904)scale(0.102 -0.102)">
     <use xlink:href="#DejaVuSans-49"/>
     <use x="63.623047" xlink:href="#DejaVuSans-53"/>
     <use x="127.246094" xlink:href="#DejaVuSans-32"/>
     <use x="159.033203" xlink:href="#DejaVuSans-105"/>
     <use x="186.816406" xlink:href="#DejaVuSans-110"/>
     <use x="250.195312" xlink:href="#DejaVuSans-115"/>
     <use x="302.294922" xlink:href="#DejaVuSans-116"/>
     <use x="341.503906" xlink:href="#DejaVuSans-97"/>
     <use x="402.783203" xlink:href="#DejaVuSans-110"/>
     <use x="466.162109" xlink:href="#DejaVuSans-99"/>
     <use x="521.142578" xlink:href="#DejaVuSans-101"/>
     <use x="582.666016" xlink:href="#DejaVuSans-115"/>
    </g>
   </g>
   <g id="text_20">
    <!-- v2.4 -->
    <g style="fill:#808080;" transform="translate(187.233062 294.151352)scale(0.1 -0.1)">
     <use xlink:href="#DejaVuSans-118"/>
     <use x="59.179688" xlink:href="#DejaVuSans-50"/>
     <use x="122.802734" xlink:href="#DejaVuSans-46"/>
     <use x="154.589844" xlink:href="#DejaVuSans-52"/>
    </g>
   </g>
   <g id="text_21">
    <!-- 21 Gallagher 101 peaks -->
    <g transform="translate(78.6565 21.648)scale(0.2 -0.2)">
     <defs>
      <path d="M 59.515625 10.40625 
L 59.515625 29.984375 
L 43.40625 29.984375 
L 43.40625 38.09375 
L 69.28125 38.09375 
L 69.28125 6.78125 
Q 63.578125 2.734375 56.6875 0.65625 
Q 49.8125 -1.421875 42 -1.421875 
Q 24.90625 -1.421875 15.25 8.5625 
Q 5.609375 18.5625 5.609375 36.375 
Q 5.609375 54.25 15.25 64.234375 
Q 24.90625 74.21875 42 74.21875 
Q 49.125 74.21875 55.546875 72.453125 
Q 61.96875 70.703125 67.390625 67.28125 
L 67.390625 56.78125 
Q 61.921875 61.421875 55.765625 63.765625 
Q 49.609375 66.109375 42.828125 66.109375 
Q 29.4375 66.109375 22.71875 58.640625 
Q 16.015625 51.171875 16.015625 36.375 
Q 16.015625 21.625 22.71875 14.15625 
Q 29.4375 6.6875 42.828125 6.6875 
Q 48.046875 6.6875 52.140625 7.59375 
Q 56.25 8.5 59.515625 10.40625 
z
" id="DejaVuSans-71"/>
      <path d="M 54.890625 33.015625 
L 54.890625 0 
L 45.90625 0 
L 45.90625 32.71875 
Q 45.90625 40.484375 42.875 44.328125 
Q 39.84375 48.1875 33.796875 48.1875 
Q 26.515625 48.1875 22.3125 43.546875 
Q 18.109375 38.921875 18.109375 30.90625 
L 18.109375 0 
L 9.078125 0 
L 9.078125 75.984375 
L 18.109375 75.984375 
L 18.109375 46.1875 
Q 21.34375 51.125 25.703125 53.5625 
Q 30.078125 56 35.796875 56 
Q 45.21875 56 50.046875 50.171875 
Q 54.890625 44.34375 54.890625 33.015625 
z
" id="DejaVuSans-104"/>
      <path d="M 9.078125 75.984375 
L 18.109375 75.984375 
L 18.109375 31.109375 
L 44.921875 54.6875 
L 56.390625 54.6875 
L 27.390625 29.109375 
L 57.625 0 
L 45.90625 0 
L 18.109375 26.703125 
L 18.109375 0 
L 9.078125 0 
z
" id="DejaVuSans-107"/>
     </defs>
     <use xlink:href="#DejaVuSans-50"/>
     <use x="63.623047" xlink:href="#DejaVuSans-49"/>
     <use x="127.246094" xlink:href="#DejaVuSans-32"/>
     <use x="159.033203" xlink:href="#DejaVuSans-71"/>
     <use x="236.523438" xlink:href="#DejaVuSans-97"/>
     <use x="297.802734" xlink:href="#DejaVuSans-108"/>
     <use x="325.585938" xlink:href="#DejaVuSans-108"/>
     <use x="353.369141" xlink:href="#DejaVuSans-97"/>
     <use x="414.648438" xlink:href="#DejaVuSans-103"/>
     <use x="478.125" xlink:href="#DejaVuSans-104"/>
     <use x="541.503906" xlink:href="#DejaVuSans-101"/>
     <use x="603.027344" xlink:href="#DejaVuSans-114"/>
     <use x="644.140625" xlink:href="#DejaVuSans-32"/>
     <use x="675.927734" xlink:href="#DejaVuSans-49"/>
     <use x="739.550781" xlink:href="#DejaVuSans-48"/>
     <use x="803.173828" xlink:href="#DejaVuSans-49"/>
     <use x="866.796875" xlink:href="#DejaVuSans-32"/>
     <use x="898.583984" xlink:href="#DejaVuSans-112"/>
     <use x="962.060547" xlink:href="#DejaVuSans-101"/>
     <use x="1023.583984" xlink:href="#DejaVuSans-97"/>
     <use x="1084.863281" xlink:href="#DejaVuSans-107"/>
     <use x="1142.773438" xlink:href="#DejaVuSans-115"/>
    </g>
   </g>
  </g>
 </g>
 <defs>
  <clipPath id="p5376205e18">
   <rect height="271.296" width="281.088" x="57.6" y="27.648"/>
  </clipPath>
 </defs>
</svg>
