<?xml version="1.0" encoding="utf-8" standalone="no"?>
<!DOCTYPE svg PUBLIC "-//W3C//DTD SVG 1.1//EN"
  "http://www.w3.org/Graphics/SVG/1.1/DTD/svg11.dtd">
<!-- Created with matplotlib (https://matplotlib.org/) -->
<svg height="345.6pt" version="1.1" viewBox="0 0 460.8 345.6" width="460.8pt" xmlns="http://www.w3.org/2000/svg" xmlns:xlink="http://www.w3.org/1999/xlink">
 <metadata>
  <rdf:RDF xmlns:cc="http://creativecommons.org/ns#" xmlns:dc="http://purl.org/dc/elements/1.1/" xmlns:rdf="http://www.w3.org/1999/02/22-rdf-syntax-ns#">
   <cc:Work>
    <dc:type rdf:resource="http://purl.org/dc/dcmitype/StillImage"/>
    <dc:date>2021-06-17T01:38:07.984111</dc:date>
    <dc:format>image/svg+xml</dc:format>
    <dc:creator>
     <cc:Agent>
      <dc:title>Matplotlib v3.3.4, https://matplotlib.org/</dc:title>
     </cc:Agent>
    </dc:creator>
   </cc:Work>
  </rdf:RDF>
 </metadata>
 <defs>
  <style type="text/css">*{stroke-linecap:butt;stroke-linejoin:round;}</style>
 </defs>
 <g id="figure_1">
  <g id="patch_1">
   <path d="M 0 345.6 
L 460.8 345.6 
L 460.8 0 
L 0 0 
z
" style="fill:#ffffff;"/>
  </g>
  <g id="axes_1">
   <g id="patch_2">
    <path d="M 57.6 298.944 
L 338.688 298.944 
L 338.688 3.456 
L 57.6 3.456 
z
" style="fill:#ffffff;"/>
   </g>
   <g id="matplotlib.axis_1">
    <g id="xtick_1">
     <g id="line2d_1">
      <path clip-path="url(#pd0f8fd8342)" d="M 57.6 298.944 
L 57.6 3.456 
" style="fill:none;stroke:#b0b0b0;stroke-linecap:square;stroke-width:0.8;"/>
     </g>
     <g id="line2d_2">
      <defs>
       <path d="M 0 0 
L 0 3.5 
" id="md24da30548" style="stroke:#000000;stroke-width:0.8;"/>
      </defs>
      <g>
       <use style="stroke:#000000;stroke-width:0.8;" x="57.6" xlink:href="#md24da30548" y="298.944"/>
      </g>
     </g>
     <g id="text_1">
      <!-- 0 -->
      <g transform="translate(51.2375 321.140875)scale(0.2 -0.2)">
       <defs>
        <path d="M 31.78125 66.40625 
Q 24.171875 66.40625 20.328125 58.90625 
Q 16.5 51.421875 16.5 36.375 
Q 16.5 21.390625 20.328125 13.890625 
Q 24.171875 6.390625 31.78125 6.390625 
Q 39.453125 6.390625 43.28125 13.890625 
Q 47.125 21.390625 47.125 36.375 
Q 47.125 51.421875 43.28125 58.90625 
Q 39.453125 66.40625 31.78125 66.40625 
z
M 31.78125 74.21875 
Q 44.046875 74.21875 50.515625 64.515625 
Q 56.984375 54.828125 56.984375 36.375 
Q 56.984375 17.96875 50.515625 8.265625 
Q 44.046875 -1.421875 31.78125 -1.421875 
Q 19.53125 -1.421875 13.0625 8.265625 
Q 6.59375 17.96875 6.59375 36.375 
Q 6.59375 54.828125 13.0625 64.515625 
Q 19.53125 74.21875 31.78125 74.21875 
z
" id="DejaVuSans-48"/>
       </defs>
       <use xlink:href="#DejaVuSans-48"/>
      </g>
     </g>
    </g>
    <g id="xtick_2">
     <g id="line2d_3">
      <path clip-path="url(#pd0f8fd8342)" d="M 137.910857 298.944 
L 137.910857 3.456 
" style="fill:none;stroke:#b0b0b0;stroke-linecap:square;stroke-width:0.8;"/>
     </g>
     <g id="line2d_4">
      <g>
       <use style="stroke:#000000;stroke-width:0.8;" x="137.910857" xlink:href="#md24da30548" y="298.944"/>
      </g>
     </g>
     <g id="text_2">
      <!-- 2 -->
      <g transform="translate(131.548357 321.140875)scale(0.2 -0.2)">
       <defs>
        <path d="M 19.1875 8.296875 
L 53.609375 8.296875 
L 53.609375 0 
L 7.328125 0 
L 7.328125 8.296875 
Q 12.9375 14.109375 22.625 23.890625 
Q 32.328125 33.6875 34.8125 36.53125 
Q 39.546875 41.84375 41.421875 45.53125 
Q 43.3125 49.21875 43.3125 52.78125 
Q 43.3125 58.59375 39.234375 62.25 
Q 35.15625 65.921875 28.609375 65.921875 
Q 23.96875 65.921875 18.8125 64.3125 
Q 13.671875 62.703125 7.8125 59.421875 
L 7.8125 69.390625 
Q 13.765625 71.78125 18.9375 73 
Q 24.125 74.21875 28.421875 74.21875 
Q 39.75 74.21875 46.484375 68.546875 
Q 53.21875 62.890625 53.21875 53.421875 
Q 53.21875 48.921875 51.53125 44.890625 
Q 49.859375 40.875 45.40625 35.40625 
Q 44.1875 33.984375 37.640625 27.21875 
Q 31.109375 20.453125 19.1875 8.296875 
z
" id="DejaVuSans-50"/>
       </defs>
       <use xlink:href="#DejaVuSans-50"/>
      </g>
     </g>
    </g>
    <g id="xtick_3">
     <g id="line2d_5">
      <path clip-path="url(#pd0f8fd8342)" d="M 218.221714 298.944 
L 218.221714 3.456 
" style="fill:none;stroke:#b0b0b0;stroke-linecap:square;stroke-width:0.8;"/>
     </g>
     <g id="line2d_6">
      <g>
       <use style="stroke:#000000;stroke-width:0.8;" x="218.221714" xlink:href="#md24da30548" y="298.944"/>
      </g>
     </g>
     <g id="text_3">
      <!-- 4 -->
      <g transform="translate(211.859214 321.140875)scale(0.2 -0.2)">
       <defs>
        <path d="M 37.796875 64.3125 
L 12.890625 25.390625 
L 37.796875 25.390625 
z
M 35.203125 72.90625 
L 47.609375 72.90625 
L 47.609375 25.390625 
L 58.015625 25.390625 
L 58.015625 17.1875 
L 47.609375 17.1875 
L 47.609375 0 
L 37.796875 0 
L 37.796875 17.1875 
L 4.890625 17.1875 
L 4.890625 26.703125 
z
" id="DejaVuSans-52"/>
       </defs>
       <use xlink:href="#DejaVuSans-52"/>
      </g>
     </g>
    </g>
    <g id="xtick_4">
     <g id="line2d_7">
      <path clip-path="url(#pd0f8fd8342)" d="M 298.532571 298.944 
L 298.532571 3.456 
" style="fill:none;stroke:#b0b0b0;stroke-linecap:square;stroke-width:0.8;"/>
     </g>
     <g id="line2d_8">
      <g>
       <use style="stroke:#000000;stroke-width:0.8;" x="298.532571" xlink:href="#md24da30548" y="298.944"/>
      </g>
     </g>
     <g id="text_4">
      <!-- 6 -->
      <g transform="translate(292.170071 321.140875)scale(0.2 -0.2)">
       <defs>
        <path d="M 33.015625 40.375 
Q 26.375 40.375 22.484375 35.828125 
Q 18.609375 31.296875 18.609375 23.390625 
Q 18.609375 15.53125 22.484375 10.953125 
Q 26.375 6.390625 33.015625 6.390625 
Q 39.65625 6.390625 43.53125 10.953125 
Q 47.40625 15.53125 47.40625 23.390625 
Q 47.40625 31.296875 43.53125 35.828125 
Q 39.65625 40.375 33.015625 40.375 
z
M 52.59375 71.296875 
L 52.59375 62.3125 
Q 48.875 64.0625 45.09375 64.984375 
Q 41.3125 65.921875 37.59375 65.921875 
Q 27.828125 65.921875 22.671875 59.328125 
Q 17.53125 52.734375 16.796875 39.40625 
Q 19.671875 43.65625 24.015625 45.921875 
Q 28.375 48.1875 33.59375 48.1875 
Q 44.578125 48.1875 50.953125 41.515625 
Q 57.328125 34.859375 57.328125 23.390625 
Q 57.328125 12.15625 50.6875 5.359375 
Q 44.046875 -1.421875 33.015625 -1.421875 
Q 20.359375 -1.421875 13.671875 8.265625 
Q 6.984375 17.96875 6.984375 36.375 
Q 6.984375 53.65625 15.1875 63.9375 
Q 23.390625 74.21875 37.203125 74.21875 
Q 40.921875 74.21875 44.703125 73.484375 
Q 48.484375 72.75 52.59375 71.296875 
z
" id="DejaVuSans-54"/>
       </defs>
       <use xlink:href="#DejaVuSans-54"/>
      </g>
     </g>
    </g>
    <g id="xtick_5">
     <g id="line2d_9">
      <path clip-path="url(#pd0f8fd8342)" d="M 97.755429 298.944 
L 97.755429 3.456 
" style="fill:none;stroke:#b0b0b0;stroke-linecap:square;stroke-width:0.8;"/>
     </g>
     <g id="line2d_10">
      <defs>
       <path d="M 0 0 
L 0 2 
" id="mf5b969c508" style="stroke:#000000;stroke-width:0.6;"/>
      </defs>
      <g>
       <use style="stroke:#000000;stroke-width:0.6;" x="97.755429" xlink:href="#mf5b969c508" y="298.944"/>
      </g>
     </g>
    </g>
    <g id="xtick_6">
     <g id="line2d_11">
      <path clip-path="url(#pd0f8fd8342)" d="M 178.066286 298.944 
L 178.066286 3.456 
" style="fill:none;stroke:#b0b0b0;stroke-linecap:square;stroke-width:0.8;"/>
     </g>
     <g id="line2d_12">
      <g>
       <use style="stroke:#000000;stroke-width:0.6;" x="178.066286" xlink:href="#mf5b969c508" y="298.944"/>
      </g>
     </g>
    </g>
    <g id="xtick_7">
     <g id="line2d_13">
      <path clip-path="url(#pd0f8fd8342)" d="M 258.377143 298.944 
L 258.377143 3.456 
" style="fill:none;stroke:#b0b0b0;stroke-linecap:square;stroke-width:0.8;"/>
     </g>
     <g id="line2d_14">
      <g>
       <use style="stroke:#000000;stroke-width:0.6;" x="258.377143" xlink:href="#mf5b969c508" y="298.944"/>
      </g>
     </g>
    </g>
    <g id="xtick_8">
     <g id="line2d_15">
      <path clip-path="url(#pd0f8fd8342)" d="M 338.688 298.944 
L 338.688 3.456 
" style="fill:none;stroke:#b0b0b0;stroke-linecap:square;stroke-width:0.8;"/>
     </g>
     <g id="line2d_16">
      <g>
       <use style="stroke:#000000;stroke-width:0.6;" x="338.688" xlink:href="#mf5b969c508" y="298.944"/>
      </g>
     </g>
    </g>
    <g id="text_5">
     <!-- log10(# f-evals / dimension) -->
     <g transform="translate(77.764078 342.217594)scale(0.17 -0.17)">
      <defs>
       <path d="M 9.421875 75.984375 
L 18.40625 75.984375 
L 18.40625 0 
L 9.421875 0 
z
" id="DejaVuSans-108"/>
       <path d="M 30.609375 48.390625 
Q 23.390625 48.390625 19.1875 42.75 
Q 14.984375 37.109375 14.984375 27.296875 
Q 14.984375 17.484375 19.15625 11.84375 
Q 23.34375 6.203125 30.609375 6.203125 
Q 37.796875 6.203125 41.984375 11.859375 
Q 46.1875 17.53125 46.1875 27.296875 
Q 46.1875 37.015625 41.984375 42.703125 
Q 37.796875 48.390625 30.609375 48.390625 
z
M 30.609375 56 
Q 42.328125 56 49.015625 48.375 
Q 55.71875 40.765625 55.71875 27.296875 
Q 55.71875 13.875 49.015625 6.21875 
Q 42.328125 -1.421875 30.609375 -1.421875 
Q 18.84375 -1.421875 12.171875 6.21875 
Q 5.515625 13.875 5.515625 27.296875 
Q 5.515625 40.765625 12.171875 48.375 
Q 18.84375 56 30.609375 56 
z
" id="DejaVuSans-111"/>
       <path d="M 45.40625 27.984375 
Q 45.40625 37.75 41.375 43.109375 
Q 37.359375 48.484375 30.078125 48.484375 
Q 22.859375 48.484375 18.828125 43.109375 
Q 14.796875 37.75 14.796875 27.984375 
Q 14.796875 18.265625 18.828125 12.890625 
Q 22.859375 7.515625 30.078125 7.515625 
Q 37.359375 7.515625 41.375 12.890625 
Q 45.40625 18.265625 45.40625 27.984375 
z
M 54.390625 6.78125 
Q 54.390625 -7.171875 48.1875 -13.984375 
Q 42 -20.796875 29.203125 -20.796875 
Q 24.46875 -20.796875 20.265625 -20.09375 
Q 16.0625 -19.390625 12.109375 -17.921875 
L 12.109375 -9.1875 
Q 16.0625 -11.328125 19.921875 -12.34375 
Q 23.78125 -13.375 27.78125 -13.375 
Q 36.625 -13.375 41.015625 -8.765625 
Q 45.40625 -4.15625 45.40625 5.171875 
L 45.40625 9.625 
Q 42.625 4.78125 38.28125 2.390625 
Q 33.9375 0 27.875 0 
Q 17.828125 0 11.671875 7.65625 
Q 5.515625 15.328125 5.515625 27.984375 
Q 5.515625 40.671875 11.671875 48.328125 
Q 17.828125 56 27.875 56 
Q 33.9375 56 38.28125 53.609375 
Q 42.625 51.21875 45.40625 46.390625 
L 45.40625 54.6875 
L 54.390625 54.6875 
z
" id="DejaVuSans-103"/>
       <path d="M 12.40625 8.296875 
L 28.515625 8.296875 
L 28.515625 63.921875 
L 10.984375 60.40625 
L 10.984375 69.390625 
L 28.421875 72.90625 
L 38.28125 72.90625 
L 38.28125 8.296875 
L 54.390625 8.296875 
L 54.390625 0 
L 12.40625 0 
z
" id="DejaVuSans-49"/>
       <path d="M 31 75.875 
Q 24.46875 64.65625 21.28125 53.65625 
Q 18.109375 42.671875 18.109375 31.390625 
Q 18.109375 20.125 21.3125 9.0625 
Q 24.515625 -2 31 -13.1875 
L 23.1875 -13.1875 
Q 15.875 -1.703125 12.234375 9.375 
Q 8.59375 20.453125 8.59375 31.390625 
Q 8.59375 42.28125 12.203125 53.3125 
Q 15.828125 64.359375 23.1875 75.875 
z
" id="DejaVuSans-40"/>
       <path d="M 51.125 44 
L 36.921875 44 
L 32.8125 27.6875 
L 47.125 27.6875 
z
M 43.796875 71.78125 
L 38.71875 51.515625 
L 52.984375 51.515625 
L 58.109375 71.78125 
L 65.921875 71.78125 
L 60.890625 51.515625 
L 76.125 51.515625 
L 76.125 44 
L 58.984375 44 
L 54.984375 27.6875 
L 70.515625 27.6875 
L 70.515625 20.21875 
L 53.078125 20.21875 
L 48 0 
L 40.1875 0 
L 45.21875 20.21875 
L 30.90625 20.21875 
L 25.875 0 
L 18.015625 0 
L 23.09375 20.21875 
L 7.71875 20.21875 
L 7.71875 27.6875 
L 24.90625 27.6875 
L 29 44 
L 13.28125 44 
L 13.28125 51.515625 
L 30.90625 51.515625 
L 35.890625 71.78125 
z
" id="DejaVuSans-35"/>
       <path id="DejaVuSans-32"/>
       <path d="M 37.109375 75.984375 
L 37.109375 68.5 
L 28.515625 68.5 
Q 23.6875 68.5 21.796875 66.546875 
Q 19.921875 64.59375 19.921875 59.515625 
L 19.921875 54.6875 
L 34.71875 54.6875 
L 34.71875 47.703125 
L 19.921875 47.703125 
L 19.921875 0 
L 10.890625 0 
L 10.890625 47.703125 
L 2.296875 47.703125 
L 2.296875 54.6875 
L 10.890625 54.6875 
L 10.890625 58.5 
Q 10.890625 67.625 15.140625 71.796875 
Q 19.390625 75.984375 28.609375 75.984375 
z
" id="DejaVuSans-102"/>
       <path d="M 4.890625 31.390625 
L 31.203125 31.390625 
L 31.203125 23.390625 
L 4.890625 23.390625 
z
" id="DejaVuSans-45"/>
       <path d="M 56.203125 29.59375 
L 56.203125 25.203125 
L 14.890625 25.203125 
Q 15.484375 15.921875 20.484375 11.0625 
Q 25.484375 6.203125 34.421875 6.203125 
Q 39.59375 6.203125 44.453125 7.46875 
Q 49.3125 8.734375 54.109375 11.28125 
L 54.109375 2.78125 
Q 49.265625 0.734375 44.1875 -0.34375 
Q 39.109375 -1.421875 33.890625 -1.421875 
Q 20.796875 -1.421875 13.15625 6.1875 
Q 5.515625 13.8125 5.515625 26.8125 
Q 5.515625 40.234375 12.765625 48.109375 
Q 20.015625 56 32.328125 56 
Q 43.359375 56 49.78125 48.890625 
Q 56.203125 41.796875 56.203125 29.59375 
z
M 47.21875 32.234375 
Q 47.125 39.59375 43.09375 43.984375 
Q 39.0625 48.390625 32.421875 48.390625 
Q 24.90625 48.390625 20.390625 44.140625 
Q 15.875 39.890625 15.1875 32.171875 
z
" id="DejaVuSans-101"/>
       <path d="M 2.984375 54.6875 
L 12.5 54.6875 
L 29.59375 8.796875 
L 46.6875 54.6875 
L 56.203125 54.6875 
L 35.6875 0 
L 23.484375 0 
z
" id="DejaVuSans-118"/>
       <path d="M 34.28125 27.484375 
Q 23.390625 27.484375 19.1875 25 
Q 14.984375 22.515625 14.984375 16.5 
Q 14.984375 11.71875 18.140625 8.90625 
Q 21.296875 6.109375 26.703125 6.109375 
Q 34.1875 6.109375 38.703125 11.40625 
Q 43.21875 16.703125 43.21875 25.484375 
L 43.21875 27.484375 
z
M 52.203125 31.203125 
L 52.203125 0 
L 43.21875 0 
L 43.21875 8.296875 
Q 40.140625 3.328125 35.546875 0.953125 
Q 30.953125 -1.421875 24.3125 -1.421875 
Q 15.921875 -1.421875 10.953125 3.296875 
Q 6 8.015625 6 15.921875 
Q 6 25.140625 12.171875 29.828125 
Q 18.359375 34.515625 30.609375 34.515625 
L 43.21875 34.515625 
L 43.21875 35.40625 
Q 43.21875 41.609375 39.140625 45 
Q 35.0625 48.390625 27.6875 48.390625 
Q 23 48.390625 18.546875 47.265625 
Q 14.109375 46.140625 10.015625 43.890625 
L 10.015625 52.203125 
Q 14.9375 54.109375 19.578125 55.046875 
Q 24.21875 56 28.609375 56 
Q 40.484375 56 46.34375 49.84375 
Q 52.203125 43.703125 52.203125 31.203125 
z
" id="DejaVuSans-97"/>
       <path d="M 44.28125 53.078125 
L 44.28125 44.578125 
Q 40.484375 46.53125 36.375 47.5 
Q 32.28125 48.484375 27.875 48.484375 
Q 21.1875 48.484375 17.84375 46.4375 
Q 14.5 44.390625 14.5 40.28125 
Q 14.5 37.15625 16.890625 35.375 
Q 19.28125 33.59375 26.515625 31.984375 
L 29.59375 31.296875 
Q 39.15625 29.25 43.1875 25.515625 
Q 47.21875 21.78125 47.21875 15.09375 
Q 47.21875 7.46875 41.1875 3.015625 
Q 35.15625 -1.421875 24.609375 -1.421875 
Q 20.21875 -1.421875 15.453125 -0.5625 
Q 10.6875 0.296875 5.421875 2 
L 5.421875 11.28125 
Q 10.40625 8.6875 15.234375 7.390625 
Q 20.0625 6.109375 24.8125 6.109375 
Q 31.15625 6.109375 34.5625 8.28125 
Q 37.984375 10.453125 37.984375 14.40625 
Q 37.984375 18.0625 35.515625 20.015625 
Q 33.0625 21.96875 24.703125 23.78125 
L 21.578125 24.515625 
Q 13.234375 26.265625 9.515625 29.90625 
Q 5.8125 33.546875 5.8125 39.890625 
Q 5.8125 47.609375 11.28125 51.796875 
Q 16.75 56 26.8125 56 
Q 31.78125 56 36.171875 55.265625 
Q 40.578125 54.546875 44.28125 53.078125 
z
" id="DejaVuSans-115"/>
       <path d="M 25.390625 72.90625 
L 33.6875 72.90625 
L 8.296875 -9.28125 
L 0 -9.28125 
z
" id="DejaVuSans-47"/>
       <path d="M 45.40625 46.390625 
L 45.40625 75.984375 
L 54.390625 75.984375 
L 54.390625 0 
L 45.40625 0 
L 45.40625 8.203125 
Q 42.578125 3.328125 38.25 0.953125 
Q 33.9375 -1.421875 27.875 -1.421875 
Q 17.96875 -1.421875 11.734375 6.484375 
Q 5.515625 14.40625 5.515625 27.296875 
Q 5.515625 40.1875 11.734375 48.09375 
Q 17.96875 56 27.875 56 
Q 33.9375 56 38.25 53.625 
Q 42.578125 51.265625 45.40625 46.390625 
z
M 14.796875 27.296875 
Q 14.796875 17.390625 18.875 11.75 
Q 22.953125 6.109375 30.078125 6.109375 
Q 37.203125 6.109375 41.296875 11.75 
Q 45.40625 17.390625 45.40625 27.296875 
Q 45.40625 37.203125 41.296875 42.84375 
Q 37.203125 48.484375 30.078125 48.484375 
Q 22.953125 48.484375 18.875 42.84375 
Q 14.796875 37.203125 14.796875 27.296875 
z
" id="DejaVuSans-100"/>
       <path d="M 9.421875 54.6875 
L 18.40625 54.6875 
L 18.40625 0 
L 9.421875 0 
z
M 9.421875 75.984375 
L 18.40625 75.984375 
L 18.40625 64.59375 
L 9.421875 64.59375 
z
" id="DejaVuSans-105"/>
       <path d="M 52 44.1875 
Q 55.375 50.25 60.0625 53.125 
Q 64.75 56 71.09375 56 
Q 79.640625 56 84.28125 50.015625 
Q 88.921875 44.046875 88.921875 33.015625 
L 88.921875 0 
L 79.890625 0 
L 79.890625 32.71875 
Q 79.890625 40.578125 77.09375 44.375 
Q 74.3125 48.1875 68.609375 48.1875 
Q 61.625 48.1875 57.5625 43.546875 
Q 53.515625 38.921875 53.515625 30.90625 
L 53.515625 0 
L 44.484375 0 
L 44.484375 32.71875 
Q 44.484375 40.625 41.703125 44.40625 
Q 38.921875 48.1875 33.109375 48.1875 
Q 26.21875 48.1875 22.15625 43.53125 
Q 18.109375 38.875 18.109375 30.90625 
L 18.109375 0 
L 9.078125 0 
L 9.078125 54.6875 
L 18.109375 54.6875 
L 18.109375 46.1875 
Q 21.1875 51.21875 25.484375 53.609375 
Q 29.78125 56 35.6875 56 
Q 41.65625 56 45.828125 52.96875 
Q 50 49.953125 52 44.1875 
z
" id="DejaVuSans-109"/>
       <path d="M 54.890625 33.015625 
L 54.890625 0 
L 45.90625 0 
L 45.90625 32.71875 
Q 45.90625 40.484375 42.875 44.328125 
Q 39.84375 48.1875 33.796875 48.1875 
Q 26.515625 48.1875 22.3125 43.546875 
Q 18.109375 38.921875 18.109375 30.90625 
L 18.109375 0 
L 9.078125 0 
L 9.078125 54.6875 
L 18.109375 54.6875 
L 18.109375 46.1875 
Q 21.34375 51.125 25.703125 53.5625 
Q 30.078125 56 35.796875 56 
Q 45.21875 56 50.046875 50.171875 
Q 54.890625 44.34375 54.890625 33.015625 
z
" id="DejaVuSans-110"/>
       <path d="M 8.015625 75.875 
L 15.828125 75.875 
Q 23.140625 64.359375 26.78125 53.3125 
Q 30.421875 42.28125 30.421875 31.390625 
Q 30.421875 20.453125 26.78125 9.375 
Q 23.140625 -1.703125 15.828125 -13.1875 
L 8.015625 -13.1875 
Q 14.5 -2 17.703125 9.0625 
Q 20.90625 20.125 20.90625 31.390625 
Q 20.90625 42.671875 17.703125 53.65625 
Q 14.5 64.65625 8.015625 75.875 
z
" id="DejaVuSans-41"/>
      </defs>
      <use xlink:href="#DejaVuSans-108"/>
      <use x="27.783203" xlink:href="#DejaVuSans-111"/>
      <use x="88.964844" xlink:href="#DejaVuSans-103"/>
      <use x="152.441406" xlink:href="#DejaVuSans-49"/>
      <use x="216.064453" xlink:href="#DejaVuSans-48"/>
      <use x="279.6875" xlink:href="#DejaVuSans-40"/>
      <use x="318.701172" xlink:href="#DejaVuSans-35"/>
      <use x="402.490234" xlink:href="#DejaVuSans-32"/>
      <use x="434.277344" xlink:href="#DejaVuSans-102"/>
      <use x="463.982422" xlink:href="#DejaVuSans-45"/>
      <use x="500.066406" xlink:href="#DejaVuSans-101"/>
      <use x="561.589844" xlink:href="#DejaVuSans-118"/>
      <use x="620.769531" xlink:href="#DejaVuSans-97"/>
      <use x="682.048828" xlink:href="#DejaVuSans-108"/>
      <use x="709.832031" xlink:href="#DejaVuSans-115"/>
      <use x="761.931641" xlink:href="#DejaVuSans-32"/>
      <use x="793.71875" xlink:href="#DejaVuSans-47"/>
      <use x="827.410156" xlink:href="#DejaVuSans-32"/>
      <use x="859.197266" xlink:href="#DejaVuSans-100"/>
      <use x="922.673828" xlink:href="#DejaVuSans-105"/>
      <use x="950.457031" xlink:href="#DejaVuSans-109"/>
      <use x="1047.869141" xlink:href="#DejaVuSans-101"/>
      <use x="1109.392578" xlink:href="#DejaVuSans-110"/>
      <use x="1172.771484" xlink:href="#DejaVuSans-115"/>
      <use x="1224.871094" xlink:href="#DejaVuSans-105"/>
      <use x="1252.654297" xlink:href="#DejaVuSans-111"/>
      <use x="1313.835938" xlink:href="#DejaVuSans-110"/>
      <use x="1377.214844" xlink:href="#DejaVuSans-41"/>
     </g>
    </g>
   </g>
   <g id="matplotlib.axis_2">
    <g id="ytick_1">
     <g id="line2d_17">
      <path clip-path="url(#pd0f8fd8342)" d="M 57.6 298.944 
L 338.688 298.944 
" style="fill:none;stroke:#b0b0b0;stroke-linecap:square;stroke-width:0.8;"/>
     </g>
     <g id="line2d_18">
      <defs>
       <path d="M 0 0 
L -3.5 0 
" id="m6152f0c690" style="stroke:#000000;stroke-width:0.8;"/>
      </defs>
      <g>
       <use style="stroke:#000000;stroke-width:0.8;" x="57.6" xlink:href="#m6152f0c690" y="298.944"/>
      </g>
     </g>
     <g id="text_6">
      <!-- 0.0 -->
      <g transform="translate(25.155 305.02275)scale(0.16 -0.16)">
       <defs>
        <path d="M 10.6875 12.40625 
L 21 12.40625 
L 21 0 
L 10.6875 0 
z
" id="DejaVuSans-46"/>
       </defs>
       <use xlink:href="#DejaVuSans-48"/>
       <use x="63.623047" xlink:href="#DejaVuSans-46"/>
       <use x="95.410156" xlink:href="#DejaVuSans-48"/>
      </g>
     </g>
    </g>
    <g id="ytick_2">
     <g id="line2d_19">
      <path clip-path="url(#pd0f8fd8342)" d="M 57.6 240.431525 
L 338.688 240.431525 
" style="fill:none;stroke:#b0b0b0;stroke-linecap:square;stroke-width:0.8;"/>
     </g>
     <g id="line2d_20">
      <g>
       <use style="stroke:#000000;stroke-width:0.8;" x="57.6" xlink:href="#m6152f0c690" y="240.431525"/>
      </g>
     </g>
     <g id="text_7">
      <!-- 0.2 -->
      <g transform="translate(25.155 246.510275)scale(0.16 -0.16)">
       <use xlink:href="#DejaVuSans-48"/>
       <use x="63.623047" xlink:href="#DejaVuSans-46"/>
       <use x="95.410156" xlink:href="#DejaVuSans-50"/>
      </g>
     </g>
    </g>
    <g id="ytick_3">
     <g id="line2d_21">
      <path clip-path="url(#pd0f8fd8342)" d="M 57.6 181.91905 
L 338.688 181.91905 
" style="fill:none;stroke:#b0b0b0;stroke-linecap:square;stroke-width:0.8;"/>
     </g>
     <g id="line2d_22">
      <g>
       <use style="stroke:#000000;stroke-width:0.8;" x="57.6" xlink:href="#m6152f0c690" y="181.91905"/>
      </g>
     </g>
     <g id="text_8">
      <!-- 0.4 -->
      <g transform="translate(25.155 187.9978)scale(0.16 -0.16)">
       <use xlink:href="#DejaVuSans-48"/>
       <use x="63.623047" xlink:href="#DejaVuSans-46"/>
       <use x="95.410156" xlink:href="#DejaVuSans-52"/>
      </g>
     </g>
    </g>
    <g id="ytick_4">
     <g id="line2d_23">
      <path clip-path="url(#pd0f8fd8342)" d="M 57.6 123.406574 
L 338.688 123.406574 
" style="fill:none;stroke:#b0b0b0;stroke-linecap:square;stroke-width:0.8;"/>
     </g>
     <g id="line2d_24">
      <g>
       <use style="stroke:#000000;stroke-width:0.8;" x="57.6" xlink:href="#m6152f0c690" y="123.406574"/>
      </g>
     </g>
     <g id="text_9">
      <!-- 0.6 -->
      <g transform="translate(25.155 129.485324)scale(0.16 -0.16)">
       <use xlink:href="#DejaVuSans-48"/>
       <use x="63.623047" xlink:href="#DejaVuSans-46"/>
       <use x="95.410156" xlink:href="#DejaVuSans-54"/>
      </g>
     </g>
    </g>
    <g id="ytick_5">
     <g id="line2d_25">
      <path clip-path="url(#pd0f8fd8342)" d="M 57.6 64.894099 
L 338.688 64.894099 
" style="fill:none;stroke:#b0b0b0;stroke-linecap:square;stroke-width:0.8;"/>
     </g>
     <g id="line2d_26">
      <g>
       <use style="stroke:#000000;stroke-width:0.8;" x="57.6" xlink:href="#m6152f0c690" y="64.894099"/>
      </g>
     </g>
     <g id="text_10">
      <!-- 0.8 -->
      <g transform="translate(25.155 70.972849)scale(0.16 -0.16)">
       <defs>
        <path d="M 31.78125 34.625 
Q 24.75 34.625 20.71875 30.859375 
Q 16.703125 27.09375 16.703125 20.515625 
Q 16.703125 13.921875 20.71875 10.15625 
Q 24.75 6.390625 31.78125 6.390625 
Q 38.8125 6.390625 42.859375 10.171875 
Q 46.921875 13.96875 46.921875 20.515625 
Q 46.921875 27.09375 42.890625 30.859375 
Q 38.875 34.625 31.78125 34.625 
z
M 21.921875 38.8125 
Q 15.578125 40.375 12.03125 44.71875 
Q 8.5 49.078125 8.5 55.328125 
Q 8.5 64.0625 14.71875 69.140625 
Q 20.953125 74.21875 31.78125 74.21875 
Q 42.671875 74.21875 48.875 69.140625 
Q 55.078125 64.0625 55.078125 55.328125 
Q 55.078125 49.078125 51.53125 44.71875 
Q 48 40.375 41.703125 38.8125 
Q 48.828125 37.15625 52.796875 32.3125 
Q 56.78125 27.484375 56.78125 20.515625 
Q 56.78125 9.90625 50.3125 4.234375 
Q 43.84375 -1.421875 31.78125 -1.421875 
Q 19.734375 -1.421875 13.25 4.234375 
Q 6.78125 9.90625 6.78125 20.515625 
Q 6.78125 27.484375 10.78125 32.3125 
Q 14.796875 37.15625 21.921875 38.8125 
z
M 18.3125 54.390625 
Q 18.3125 48.734375 21.84375 45.5625 
Q 25.390625 42.390625 31.78125 42.390625 
Q 38.140625 42.390625 41.71875 45.5625 
Q 45.3125 48.734375 45.3125 54.390625 
Q 45.3125 60.0625 41.71875 63.234375 
Q 38.140625 66.40625 31.78125 66.40625 
Q 25.390625 66.40625 21.84375 63.234375 
Q 18.3125 60.0625 18.3125 54.390625 
z
" id="DejaVuSans-56"/>
       </defs>
       <use xlink:href="#DejaVuSans-48"/>
       <use x="63.623047" xlink:href="#DejaVuSans-46"/>
       <use x="95.410156" xlink:href="#DejaVuSans-56"/>
      </g>
     </g>
    </g>
    <g id="ytick_6">
     <g id="line2d_27">
      <path clip-path="url(#pd0f8fd8342)" d="M 57.6 6.381624 
L 338.688 6.381624 
" style="fill:none;stroke:#b0b0b0;stroke-linecap:square;stroke-width:0.8;"/>
     </g>
     <g id="line2d_28">
      <g>
       <use style="stroke:#000000;stroke-width:0.8;" x="57.6" xlink:href="#m6152f0c690" y="6.381624"/>
      </g>
     </g>
     <g id="text_11">
      <!-- 1.0 -->
      <g transform="translate(25.155 12.460374)scale(0.16 -0.16)">
       <use xlink:href="#DejaVuSans-49"/>
       <use x="63.623047" xlink:href="#DejaVuSans-46"/>
       <use x="95.410156" xlink:href="#DejaVuSans-48"/>
      </g>
     </g>
    </g>
    <g id="text_12">
     <!-- Fraction of function,target pairs -->
     <g transform="translate(17.619531 285.585)rotate(-90)scale(0.17 -0.17)">
      <defs>
       <path d="M 9.8125 72.90625 
L 51.703125 72.90625 
L 51.703125 64.59375 
L 19.671875 64.59375 
L 19.671875 43.109375 
L 48.578125 43.109375 
L 48.578125 34.8125 
L 19.671875 34.8125 
L 19.671875 0 
L 9.8125 0 
z
" id="DejaVuSans-70"/>
       <path d="M 41.109375 46.296875 
Q 39.59375 47.171875 37.8125 47.578125 
Q 36.03125 48 33.890625 48 
Q 26.265625 48 22.1875 43.046875 
Q 18.109375 38.09375 18.109375 28.8125 
L 18.109375 0 
L 9.078125 0 
L 9.078125 54.6875 
L 18.109375 54.6875 
L 18.109375 46.1875 
Q 20.953125 51.171875 25.484375 53.578125 
Q 30.03125 56 36.53125 56 
Q 37.453125 56 38.578125 55.875 
Q 39.703125 55.765625 41.0625 55.515625 
z
" id="DejaVuSans-114"/>
       <path d="M 48.78125 52.59375 
L 48.78125 44.1875 
Q 44.96875 46.296875 41.140625 47.34375 
Q 37.3125 48.390625 33.40625 48.390625 
Q 24.65625 48.390625 19.8125 42.84375 
Q 14.984375 37.3125 14.984375 27.296875 
Q 14.984375 17.28125 19.8125 11.734375 
Q 24.65625 6.203125 33.40625 6.203125 
Q 37.3125 6.203125 41.140625 7.25 
Q 44.96875 8.296875 48.78125 10.40625 
L 48.78125 2.09375 
Q 45.015625 0.34375 40.984375 -0.53125 
Q 36.96875 -1.421875 32.421875 -1.421875 
Q 20.0625 -1.421875 12.78125 6.34375 
Q 5.515625 14.109375 5.515625 27.296875 
Q 5.515625 40.671875 12.859375 48.328125 
Q 20.21875 56 33.015625 56 
Q 37.15625 56 41.109375 55.140625 
Q 45.0625 54.296875 48.78125 52.59375 
z
" id="DejaVuSans-99"/>
       <path d="M 18.3125 70.21875 
L 18.3125 54.6875 
L 36.8125 54.6875 
L 36.8125 47.703125 
L 18.3125 47.703125 
L 18.3125 18.015625 
Q 18.3125 11.328125 20.140625 9.421875 
Q 21.96875 7.515625 27.59375 7.515625 
L 36.8125 7.515625 
L 36.8125 0 
L 27.59375 0 
Q 17.1875 0 13.234375 3.875 
Q 9.28125 7.765625 9.28125 18.015625 
L 9.28125 47.703125 
L 2.6875 47.703125 
L 2.6875 54.6875 
L 9.28125 54.6875 
L 9.28125 70.21875 
z
" id="DejaVuSans-116"/>
       <path d="M 8.5 21.578125 
L 8.5 54.6875 
L 17.484375 54.6875 
L 17.484375 21.921875 
Q 17.484375 14.15625 20.5 10.265625 
Q 23.53125 6.390625 29.59375 6.390625 
Q 36.859375 6.390625 41.078125 11.03125 
Q 45.3125 15.671875 45.3125 23.6875 
L 45.3125 54.6875 
L 54.296875 54.6875 
L 54.296875 0 
L 45.3125 0 
L 45.3125 8.40625 
Q 42.046875 3.421875 37.71875 1 
Q 33.40625 -1.421875 27.6875 -1.421875 
Q 18.265625 -1.421875 13.375 4.4375 
Q 8.5 10.296875 8.5 21.578125 
z
M 31.109375 56 
z
" id="DejaVuSans-117"/>
       <path d="M 11.71875 12.40625 
L 22.015625 12.40625 
L 22.015625 4 
L 14.015625 -11.625 
L 7.71875 -11.625 
L 11.71875 4 
z
" id="DejaVuSans-44"/>
       <path d="M 18.109375 8.203125 
L 18.109375 -20.796875 
L 9.078125 -20.796875 
L 9.078125 54.6875 
L 18.109375 54.6875 
L 18.109375 46.390625 
Q 20.953125 51.265625 25.265625 53.625 
Q 29.59375 56 35.59375 56 
Q 45.5625 56 51.78125 48.09375 
Q 58.015625 40.1875 58.015625 27.296875 
Q 58.015625 14.40625 51.78125 6.484375 
Q 45.5625 -1.421875 35.59375 -1.421875 
Q 29.59375 -1.421875 25.265625 0.953125 
Q 20.953125 3.328125 18.109375 8.203125 
z
M 48.6875 27.296875 
Q 48.6875 37.203125 44.609375 42.84375 
Q 40.53125 48.484375 33.40625 48.484375 
Q 26.265625 48.484375 22.1875 42.84375 
Q 18.109375 37.203125 18.109375 27.296875 
Q 18.109375 17.390625 22.1875 11.75 
Q 26.265625 6.109375 33.40625 6.109375 
Q 40.53125 6.109375 44.609375 11.75 
Q 48.6875 17.390625 48.6875 27.296875 
z
" id="DejaVuSans-112"/>
      </defs>
      <use xlink:href="#DejaVuSans-70"/>
      <use x="50.269531" xlink:href="#DejaVuSans-114"/>
      <use x="91.382812" xlink:href="#DejaVuSans-97"/>
      <use x="152.662109" xlink:href="#DejaVuSans-99"/>
      <use x="207.642578" xlink:href="#DejaVuSans-116"/>
      <use x="246.851562" xlink:href="#DejaVuSans-105"/>
      <use x="274.634766" xlink:href="#DejaVuSans-111"/>
      <use x="335.816406" xlink:href="#DejaVuSans-110"/>
      <use x="399.195312" xlink:href="#DejaVuSans-32"/>
      <use x="430.982422" xlink:href="#DejaVuSans-111"/>
      <use x="492.164062" xlink:href="#DejaVuSans-102"/>
      <use x="527.369141" xlink:href="#DejaVuSans-32"/>
      <use x="559.15625" xlink:href="#DejaVuSans-102"/>
      <use x="594.361328" xlink:href="#DejaVuSans-117"/>
      <use x="657.740234" xlink:href="#DejaVuSans-110"/>
      <use x="721.119141" xlink:href="#DejaVuSans-99"/>
      <use x="776.099609" xlink:href="#DejaVuSans-116"/>
      <use x="815.308594" xlink:href="#DejaVuSans-105"/>
      <use x="843.091797" xlink:href="#DejaVuSans-111"/>
      <use x="904.273438" xlink:href="#DejaVuSans-110"/>
      <use x="967.652344" xlink:href="#DejaVuSans-44"/>
      <use x="999.439453" xlink:href="#DejaVuSans-116"/>
      <use x="1038.648438" xlink:href="#DejaVuSans-97"/>
      <use x="1099.927734" xlink:href="#DejaVuSans-114"/>
      <use x="1139.291016" xlink:href="#DejaVuSans-103"/>
      <use x="1202.767578" xlink:href="#DejaVuSans-101"/>
      <use x="1264.291016" xlink:href="#DejaVuSans-116"/>
      <use x="1303.5" xlink:href="#DejaVuSans-32"/>
      <use x="1335.287109" xlink:href="#DejaVuSans-112"/>
      <use x="1398.763672" xlink:href="#DejaVuSans-97"/>
      <use x="1460.042969" xlink:href="#DejaVuSans-105"/>
      <use x="1487.826172" xlink:href="#DejaVuSans-114"/>
      <use x="1528.939453" xlink:href="#DejaVuSans-115"/>
     </g>
    </g>
   </g>
   <g id="line2d_29">
    <defs>
     <path d="M 0 1.5 
C 0.397805 1.5 0.77937 1.341951 1.06066 1.06066 
C 1.341951 0.77937 1.5 0.397805 1.5 0 
C 1.5 -0.397805 1.341951 -0.77937 1.06066 -1.06066 
C 0.77937 -1.341951 0.397805 -1.5 0 -1.5 
C -0.397805 -1.5 -0.77937 -1.341951 -1.06066 -1.06066 
C -1.341951 -0.77937 -1.5 -0.397805 -1.5 0 
C -1.5 0.397805 -1.341951 0.77937 -1.06066 1.06066 
C -0.77937 1.341951 -0.397805 1.5 0 1.5 
z
" id="m9a58ae562e" style="stroke:#000080;"/>
    </defs>
    <g>
     <use style="fill:#000080;stroke:#000080;" x="252.681661" xlink:href="#m9a58ae562e" y="241.578828"/>
     <use style="fill:#000080;stroke:#000080;" x="252.681661" xlink:href="#m9a58ae562e" y="241.578828"/>
    </g>
   </g>
   <g id="line2d_30">
    <path d="M 38.440992 298.944 
L 38.440992 296.075741 
L 50.52898 296.075741 
L 50.52898 294.354786 
L 69.687988 294.354786 
L 69.687988 293.781135 
L 81.775977 293.781135 
L 81.775977 293.207483 
L 86.792945 293.207483 
L 86.792945 292.633831 
L 88.846997 292.633831 
L 88.846997 292.060179 
L 89.78989 292.060179 
L 89.78989 291.486528 
L 91.535274 291.486528 
L 91.535274 290.912876 
L 93.863965 290.912876 
L 93.863965 290.339224 
L 95.918017 290.339224 
L 95.918017 289.191921 
L 101.412804 289.191921 
L 101.412804 288.044617 
L 104.033617 288.044617 
L 104.033617 286.323662 
L 104.434538 286.323662 
L 104.434538 285.176359 
L 106.311539 285.176359 
L 106.311539 284.602707 
L 107.009204 284.602707 
L 107.009204 283.455404 
L 107.680028 283.455404 
L 107.680028 282.881752 
L 110.415248 282.881752 
L 110.415248 282.3081 
L 110.694282 282.3081 
L 110.694282 281.734448 
L 111.767808 281.734448 
L 111.767808 281.160797 
L 113.022974 281.160797 
L 113.022974 280.587145 
L 113.73488 280.587145 
L 113.73488 280.013493 
L 116.914437 280.013493 
L 116.914437 279.439842 
L 117.672786 279.439842 
L 117.672786 278.86619 
L 118.576578 278.86619 
L 118.576578 278.292538 
L 119.267333 278.292538 
L 119.267333 277.718886 
L 120.883236 277.718886 
L 120.883236 276.571583 
L 121.189196 276.571583 
L 121.189196 275.42428 
L 121.785469 275.42428 
L 121.785469 274.276976 
L 122.503236 274.276976 
L 122.503236 273.703324 
L 122.782271 273.703324 
L 122.782271 273.129673 
L 123.056911 273.129673 
L 123.056911 272.556021 
L 123.327293 272.556021 
L 123.327293 271.982369 
L 123.460928 271.982369 
L 123.460928 271.408718 
L 128.807571 271.408718 
L 128.807571 270.835066 
L 129.290685 270.835066 
L 129.290685 270.261414 
L 130.218525 270.261414 
L 130.30865 268.540459 
L 132.101058 268.540459 
L 132.101058 267.966807 
L 135.280614 267.966807 
L 135.280614 267.393156 
L 142.486301 267.393156 
L 142.486301 266.819504 
L 144.026061 266.819504 
L 144.026061 266.245852 
L 144.189046 266.245852 
L 144.189046 265.6722 
L 197.43332 265.6722 
L 197.473483 263.951245 
L 197.568738 263.951245 
L 197.638893 261.082987 
L 197.699342 261.082987 
L 197.699342 260.509335 
L 197.965081 260.509335 
L 197.965081 259.935683 
L 209.341357 259.935683 
L 209.426271 258.78838 
L 209.552873 258.78838 
L 209.552873 258.214728 
L 209.688047 258.214728 
L 209.764686 257.067425 
L 216.403669 257.067425 
L 216.403669 256.493773 
L 216.524543 256.493773 
L 216.545034 255.346469 
L 216.636311 255.346469 
L 216.687168 253.051863 
L 221.507039 253.051863 
L 221.591098 250.757256 
L 225.372771 250.757256 
L 225.372771 250.183604 
L 228.54609 250.183604 
L 228.599713 249.036301 
L 233.545121 249.036301 
L 233.585395 247.888997 
L 235.629005 247.888997 
L 235.629005 246.741694 
L 239.078762 246.741694 
L 239.082629 245.59439 
L 242.016132 245.59439 
L 242.016132 245.020738 
L 246.680827 245.020738 
L 246.680827 244.447087 
L 248.615855 244.447087 
L 248.615855 243.873435 
L 249.508389 243.873435 
L 249.508389 243.299783 
L 250.357459 243.299783 
L 250.357459 242.726132 
L 251.167102 242.726132 
L 251.167102 242.15248 
L 252.681661 242.15248 
L 252.681661 241.578828 
L 338.688 241.578828 
L 338.688 241.578828 
" style="fill:none;stroke:#000080;stroke-linecap:square;stroke-width:1.5;"/>
   </g>
   <g id="line2d_31">
    <defs>
     <path d="M 0 6 
C 1.591219 6 3.117479 5.367802 4.242641 4.242641 
C 5.367802 3.117479 6 1.591219 6 0 
C 6 -1.591219 5.367802 -3.117479 4.242641 -4.242641 
C 3.117479 -5.367802 1.591219 -6 0 -6 
C -1.591219 -6 -3.117479 -5.367802 -4.242641 -4.242641 
C -5.367802 -3.117479 -6 -1.591219 -6 0 
C -6 1.591219 -5.367802 3.117479 -4.242641 4.242641 
C -3.117479 5.367802 -1.591219 6 0 6 
z
" id="m52b56efea3" style="stroke:#000080;stroke-width:1.5;"/>
    </defs>
    <g>
     <use style="fill-opacity:0;stroke:#000080;stroke-width:1.5;" x="69.687988" xlink:href="#m52b56efea3" y="294.354786"/>
     <use style="fill-opacity:0;stroke:#000080;stroke-width:1.5;" x="123.056911" xlink:href="#m52b56efea3" y="273.129673"/>
     <use style="fill-opacity:0;stroke:#000080;stroke-width:1.5;" x="144.189046" xlink:href="#m52b56efea3" y="265.6722"/>
     <use style="fill-opacity:0;stroke:#000080;stroke-width:1.5;" x="248.615855" xlink:href="#m52b56efea3" y="244.447087"/>
     <use style="fill-opacity:0;stroke:#000080;stroke-width:1.5;" x="252.681661" xlink:href="#m52b56efea3" y="241.578828"/>
     <use style="fill-opacity:0;stroke:#000080;stroke-width:1.5;" x="338.688" xlink:href="#m52b56efea3" y="241.578828"/>
    </g>
   </g>
   <g id="line2d_32">
    <path style="fill:none;stroke:#000080;stroke-linecap:square;stroke-width:1.5;"/>
    <g/>
   </g>
   <g id="line2d_33">
    <path clip-path="url(#pd0f8fd8342)" d="M 197.227232 265.6722 
" style="fill:none;stroke:#000080;stroke-linecap:square;stroke-width:1.5;"/>
    <defs>
     <path d="M -12 12 
L 12 -12 
M -12 -12 
L 12 12 
" id="mbebddc3226" style="stroke:#000080;"/>
    </defs>
    <g clip-path="url(#pd0f8fd8342)">
     <use style="fill:#000080;stroke:#000080;" x="197.227232" xlink:href="#mbebddc3226" y="265.6722"/>
    </g>
   </g>
   <g id="line2d_34">
    <defs>
     <path d="M 0 1.5 
C 0.397805 1.5 0.77937 1.341951 1.06066 1.06066 
C 1.341951 0.77937 1.5 0.397805 1.5 0 
C 1.5 -0.397805 1.341951 -0.77937 1.06066 -1.06066 
C 0.77937 -1.341951 0.397805 -1.5 0 -1.5 
C -0.397805 -1.5 -0.77937 -1.341951 -1.06066 -1.06066 
C -1.341951 -0.77937 -1.5 -0.397805 -1.5 0 
C -1.5 0.397805 -1.341951 0.77937 -1.06066 1.06066 
C -0.77937 1.341951 -0.397805 1.5 0 1.5 
z
" id="mf6e1a9e78e" style="stroke:#ff00ff;"/>
    </defs>
    <g>
     <use style="fill:#ff00ff;stroke:#ff00ff;" x="268.350438" xlink:href="#mf6e1a9e78e" y="144.058036"/>
     <use style="fill:#ff00ff;stroke:#ff00ff;" x="268.350438" xlink:href="#mf6e1a9e78e" y="144.058036"/>
    </g>
   </g>
   <g id="line2d_35">
    <path d="M 38.440992 298.944 
L 38.440992 288.044617 
L 50.52898 288.044617 
L 50.52898 287.470966 
L 57.6 287.470966 
L 57.6 286.897314 
L 62.616969 286.897314 
L 62.616969 282.3081 
L 69.687988 282.3081 
L 69.687988 281.734448 
L 80.258561 281.734448 
L 80.258561 281.160797 
L 81.775977 281.160797 
L 81.775977 280.013493 
L 84.464254 280.013493 
L 84.464254 278.292538 
L 87.850195 278.292538 
L 87.850195 277.718886 
L 92.34655 277.718886 
L 92.34655 277.145235 
L 93.121756 277.145235 
L 93.121756 276.571583 
L 95.918017 276.571583 
L 95.918017 275.997931 
L 96.552242 275.997931 
L 96.552242 275.42428 
L 99.41757 275.42428 
L 99.41757 274.850628 
L 101.412804 274.850628 
L 101.412804 274.276976 
L 103.623262 274.276976 
L 103.623262 273.703324 
L 106.311539 273.703324 
L 106.311539 272.556021 
L 107.347841 272.556021 
L 107.347841 271.982369 
L 107.680028 271.982369 
L 107.680028 271.408718 
L 110.131676 271.408718 
L 110.131676 270.835066 
L 110.968922 270.835066 
L 110.968922 270.261414 
L 113.022974 270.261414 
L 113.022974 269.114111 
L 113.26352 269.114111 
L 113.26352 268.540459 
L 118.220662 268.540459 
L 118.220662 267.966807 
L 118.751849 267.966807 
L 118.751849 267.393156 
L 119.097192 267.393156 
L 119.097192 266.819504 
L 119.602714 266.819504 
L 119.602714 266.245852 
L 120.41399 266.245852 
L 120.41399 265.098549 
L 120.728219 265.098549 
L 120.728219 264.524897 
L 121.340187 264.524897 
L 121.340187 263.377593 
L 121.785469 263.377593 
L 121.785469 262.803942 
L 122.076131 262.803942 
L 122.076131 262.23029 
L 122.782271 262.23029 
L 122.782271 261.656638 
L 123.460928 261.656638 
L 123.460928 261.082987 
L 123.593547 261.082987 
L 123.593547 260.509335 
L 124.241922 260.509335 
L 124.241922 259.935683 
L 124.619683 259.935683 
L 124.619683 258.214728 
L 125.588781 258.214728 
L 125.588781 257.641076 
L 126.053856 257.641076 
L 126.053856 257.067425 
L 126.281824 257.067425 
L 126.281824 255.920121 
L 126.729009 255.920121 
L 126.729009 255.346469 
L 127.378995 255.346469 
L 127.378995 254.772818 
L 127.902737 254.772818 
L 127.902737 253.625514 
L 128.709321 253.625514 
L 128.709321 252.478211 
L 129.099042 252.478211 
L 129.099042 251.904559 
L 130.127931 251.904559 
L 130.127931 251.330907 
L 131.938072 251.330907 
L 131.938072 250.757256 
L 132.501978 250.757256 
L 132.501978 250.183604 
L 133.124876 250.183604 
L 133.124876 249.609952 
L 133.503183 249.609952 
L 133.57787 248.462649 
L 133.800029 248.462649 
L 133.800029 247.888997 
L 134.520763 247.888997 
L 134.520763 247.315345 
L 135.747468 247.315345 
L 135.747468 246.741694 
L 136.393441 246.741694 
L 136.393441 246.168042 
L 136.769843 246.168042 
L 136.769843 245.59439 
L 137.198951 245.59439 
L 137.198951 245.020738 
L 138.026733 245.020738 
L 138.026733 244.447087 
L 138.538853 244.447087 
L 138.538853 243.873435 
L 139.520072 243.873435 
L 139.520072 243.299783 
L 140.042245 243.299783 
L 140.042245 242.726132 
L 140.297583 242.726132 
L 140.297583 242.15248 
L 140.549236 242.15248 
L 140.549236 241.578828 
L 141.47371 241.578828 
L 141.47371 241.005176 
L 142.306513 241.005176 
L 142.306513 240.431525 
L 142.53096 240.431525 
L 142.53096 239.857873 
L 143.902815 239.857873 
L 143.902815 238.71057 
L 144.189046 238.71057 
L 144.189046 238.136918 
L 144.787023 238.136918 
L 144.787023 237.563266 
L 145.998045 237.563266 
L 145.998045 236.989614 
L 151.340991 236.989614 
L 151.340991 236.415963 
L 197.229169 236.415963 
L 197.269804 234.695008 
L 197.350792 234.695008 
L 197.460105 230.679446 
L 197.52308 230.679446 
L 197.595316 227.811187 
L 197.663476 227.811187 
L 197.763339 224.942928 
L 197.819613 224.942928 
L 197.901821 221.501018 
L 197.959508 221.501018 
L 198.048456 216.911804 
L 198.363511 216.911804 
L 198.439586 214.617197 
L 209.316189 214.617197 
L 209.416643 211.748939 
L 209.432046 211.748939 
L 209.534706 208.88068 
L 209.57961 208.88068 
L 209.689943 205.43877 
L 209.701317 205.43877 
L 209.799583 201.99686 
L 209.93193 201.99686 
L 209.93193 201.423208 
L 216.458423 201.423208 
L 216.562945 199.128601 
L 216.607002 199.128601 
L 216.661758 194.539387 
L 221.438532 194.539387 
L 221.538789 190.523825 
L 221.568082 190.523825 
L 221.606903 186.508263 
L 225.322936 186.508263 
L 225.426695 181.91905 
L 225.466261 181.91905 
L 225.466261 181.345398 
L 228.494883 181.345398 
L 228.60388 176.182532 
L 231.182699 176.182532 
L 231.279194 173.314274 
L 233.534253 173.314274 
L 233.593342 169.872363 
L 235.560957 169.872363 
L 235.63179 167.004105 
L 237.417113 167.004105 
L 237.460567 165.28315 
L 239.120375 165.28315 
L 239.120375 164.709498 
L 240.574 164.709498 
L 240.63038 161.841239 
L 242.018063 161.841239 
L 242.021034 160.693936 
L 243.309901 160.693936 
L 243.309901 160.120284 
L 244.463107 160.120284 
L 244.508232 158.972981 
L 245.606773 158.972981 
L 245.630333 156.104722 
L 246.675597 156.104722 
L 246.684578 154.383767 
L 247.674736 154.383767 
L 247.678709 152.662812 
L 248.619924 152.662812 
L 248.619924 152.08916 
L 249.511579 152.08916 
L 249.511579 151.515508 
L 250.361141 151.515508 
L 250.361141 150.941857 
L 251.170618 150.941857 
L 251.170618 150.368205 
L 251.943593 150.368205 
L 251.943593 149.794553 
L 253.395405 149.794553 
L 253.395405 149.220902 
L 256.567676 149.220902 
L 256.567676 148.64725 
L 258.227455 148.64725 
L 258.227455 148.073598 
L 259.744352 148.073598 
L 259.744352 147.499946 
L 264.013792 147.499946 
L 264.013792 146.926295 
L 266.149835 146.926295 
L 266.149835 146.352643 
L 266.806699 146.352643 
L 266.806699 145.20534 
L 267.749511 145.20534 
L 267.749511 144.631688 
L 268.350438 144.631688 
L 268.350438 144.058036 
L 338.688 144.058036 
L 338.688 144.058036 
" style="fill:none;stroke:#ff00ff;stroke-linecap:square;stroke-width:1.5;"/>
   </g>
   <g id="line2d_36">
    <defs>
     <path d="M -0 8.485281 
L 5.091169 0 
L 0 -8.485281 
L -5.091169 -0 
z
" id="md692241e86" style="stroke:#ff00ff;stroke-linejoin:miter;stroke-width:1.5;"/>
    </defs>
    <g>
     <use style="fill-opacity:0;stroke:#ff00ff;stroke-linejoin:miter;stroke-width:1.5;" x="69.687988" xlink:href="#md692241e86" y="281.734448"/>
     <use style="fill-opacity:0;stroke:#ff00ff;stroke-linejoin:miter;stroke-width:1.5;" x="151.340991" xlink:href="#md692241e86" y="236.989614"/>
     <use style="fill-opacity:0;stroke:#ff00ff;stroke-linejoin:miter;stroke-width:1.5;" x="216.532871" xlink:href="#md692241e86" y="200.275904"/>
     <use style="fill-opacity:0;stroke:#ff00ff;stroke-linejoin:miter;stroke-width:1.5;" x="266.806699" xlink:href="#md692241e86" y="146.352643"/>
     <use style="fill-opacity:0;stroke:#ff00ff;stroke-linejoin:miter;stroke-width:1.5;" x="268.350438" xlink:href="#md692241e86" y="144.058036"/>
     <use style="fill-opacity:0;stroke:#ff00ff;stroke-linejoin:miter;stroke-width:1.5;" x="338.688" xlink:href="#md692241e86" y="144.058036"/>
    </g>
   </g>
   <g id="line2d_37">
    <path style="fill:none;stroke:#ff00ff;stroke-linecap:square;stroke-width:1.5;"/>
    <g/>
   </g>
   <g id="line2d_38">
    <path clip-path="url(#pd0f8fd8342)" d="M 197.227232 236.415963 
" style="fill:none;stroke:#ff00ff;stroke-linecap:square;stroke-width:1.5;"/>
    <defs>
     <path d="M -12 12 
L 12 -12 
M -12 -12 
L 12 12 
" id="m1b2b40623e" style="stroke:#ff00ff;"/>
    </defs>
    <g clip-path="url(#pd0f8fd8342)">
     <use style="fill:#ff00ff;stroke:#ff00ff;" x="197.227232" xlink:href="#m1b2b40623e" y="236.415963"/>
    </g>
   </g>
   <g id="line2d_39">
    <defs>
     <path d="M 0 1.5 
C 0.397805 1.5 0.77937 1.341951 1.06066 1.06066 
C 1.341951 0.77937 1.5 0.397805 1.5 0 
C 1.5 -0.397805 1.341951 -0.77937 1.06066 -1.06066 
C 0.77937 -1.341951 0.397805 -1.5 0 -1.5 
C -0.397805 -1.5 -0.77937 -1.341951 -1.06066 -1.06066 
C -1.341951 -0.77937 -1.5 -0.397805 -1.5 0 
C -1.5 0.397805 -1.341951 0.77937 -1.06066 1.06066 
C -0.77937 1.341951 -0.397805 1.5 0 1.5 
z
" id="m918e9e9be6" style="stroke:#ff7500;"/>
    </defs>
    <g>
     <use style="fill:#ff7500;stroke:#ff7500;" x="268.344663" xlink:href="#m918e9e9be6" y="212.896242"/>
     <use style="fill:#ff7500;stroke:#ff7500;" x="268.344663" xlink:href="#m918e9e9be6" y="212.896242"/>
    </g>
   </g>
   <g id="line2d_40">
    <path d="M 38.440992 298.944 
L 38.440992 268.540459 
L 50.52898 268.540459 
L 50.52898 266.819504 
L 57.6 266.819504 
L 57.6 265.6722 
L 62.616969 265.6722 
L 62.616969 265.098549 
L 72.376266 265.098549 
L 72.376266 263.377593 
L 74.704957 263.377593 
L 74.704957 262.803942 
L 90.684409 262.803942 
L 90.684409 262.23029 
L 93.863965 262.23029 
L 93.863965 261.656638 
L 95.259853 261.656638 
L 95.259853 259.935683 
L 98.32726 259.935683 
L 98.32726 259.362031 
L 104.033617 259.362031 
L 104.033617 258.78838 
L 107.347841 258.78838 
L 107.347841 257.641076 
L 113.26352 257.641076 
L 113.26352 257.067425 
L 115.711251 257.067425 
L 115.711251 256.493773 
L 116.121606 256.493773 
L 116.121606 255.920121 
L 116.719583 255.920121 
L 116.719583 255.346469 
L 117.297733 255.346469 
L 117.297733 254.772818 
L 118.039942 254.772818 
L 118.039942 254.199166 
L 118.925375 254.199166 
L 118.925375 253.625514 
L 119.43583 253.625514 
L 119.43583 253.051863 
L 121.189196 253.051863 
L 121.189196 252.478211 
L 124.241922 252.478211 
L 124.241922 251.330907 
L 125.706218 251.330907 
L 125.706218 250.757256 
L 126.168212 250.757256 
L 126.168212 249.036301 
L 126.618283 249.036301 
L 126.618283 248.462649 
L 127.590383 248.462649 
L 127.590383 247.888997 
L 129.574256 247.888997 
L 129.574256 247.315345 
L 134.520763 247.315345 
L 134.520763 246.741694 
L 197.229169 246.741694 
L 197.308417 243.873435 
L 197.358485 243.873435 
L 197.448631 240.431525 
L 197.490667 240.431525 
L 197.583931 237.563266 
L 197.699342 237.563266 
L 197.791499 236.415963 
L 209.340389 236.415963 
L 209.426271 233.547704 
L 209.462811 233.547704 
L 209.552873 231.253097 
L 209.599636 231.253097 
L 209.599636 230.105794 
L 216.474495 230.105794 
L 216.576365 227.811187 
L 221.453994 227.811187 
L 221.49307 225.51658 
L 225.347678 225.51658 
L 225.408995 223.221973 
L 228.534187 223.221973 
L 228.56955 221.501018 
L 231.194307 221.501018 
L 231.244242 220.353715 
L 233.528212 220.353715 
L 233.528212 219.206411 
L 235.574717 219.206411 
L 235.598341 216.911804 
L 237.412279 216.911804 
L 237.412279 216.338153 
L 244.477689 216.338153 
L 244.477689 215.764501 
L 247.649698 215.764501 
L 247.649698 215.190849 
L 254.064489 215.190849 
L 254.064489 214.617197 
L 258.738494 214.617197 
L 258.738494 214.043546 
L 267.743533 214.043546 
L 267.743533 213.469894 
L 268.344663 213.469894 
L 268.344663 212.896242 
L 338.688 212.896242 
L 338.688 212.896242 
" style="fill:none;stroke:#ff7500;stroke-linecap:square;stroke-width:1.5;"/>
   </g>
   <g id="line2d_41">
    <defs>
     <path d="M 0 -6 
L -1.347084 -1.854102 
L -5.706339 -1.854102 
L -2.179628 0.708204 
L -3.526712 4.854102 
L -0 2.291796 
L 3.526712 4.854102 
L 2.179628 0.708204 
L 5.706339 -1.854102 
L 1.347084 -1.854102 
z
" id="m9afb26569d" style="stroke:#ff7500;stroke-linejoin:bevel;stroke-width:1.5;"/>
    </defs>
    <g>
     <use style="fill-opacity:0;stroke:#ff7500;stroke-linejoin:bevel;stroke-width:1.5;" x="62.616969" xlink:href="#m9afb26569d" y="265.6722"/>
     <use style="fill-opacity:0;stroke:#ff7500;stroke-linejoin:bevel;stroke-width:1.5;" x="134.520763" xlink:href="#m9afb26569d" y="247.315345"/>
     <use style="fill-opacity:0;stroke:#ff7500;stroke-linejoin:bevel;stroke-width:1.5;" x="197.791499" xlink:href="#m9afb26569d" y="236.415963"/>
     <use style="fill-opacity:0;stroke:#ff7500;stroke-linejoin:bevel;stroke-width:1.5;" x="268.344663" xlink:href="#m9afb26569d" y="213.469894"/>
     <use style="fill-opacity:0;stroke:#ff7500;stroke-linejoin:bevel;stroke-width:1.5;" x="268.344663" xlink:href="#m9afb26569d" y="212.896242"/>
     <use style="fill-opacity:0;stroke:#ff7500;stroke-linejoin:bevel;stroke-width:1.5;" x="338.688" xlink:href="#m9afb26569d" y="212.896242"/>
    </g>
   </g>
   <g id="line2d_42">
    <path style="fill:none;stroke:#ff7500;stroke-linecap:square;stroke-width:1.5;"/>
    <g/>
   </g>
   <g id="line2d_43">
    <path clip-path="url(#pd0f8fd8342)" d="M 197.227232 246.741694 
" style="fill:none;stroke:#ff7500;stroke-linecap:square;stroke-width:1.5;"/>
    <defs>
     <path d="M -12 12 
L 12 -12 
M -12 -12 
L 12 12 
" id="m34ffa0700f" style="stroke:#ff7500;"/>
    </defs>
    <g clip-path="url(#pd0f8fd8342)">
     <use style="fill:#ff7500;stroke:#ff7500;" x="197.227232" xlink:href="#m34ffa0700f" y="246.741694"/>
    </g>
   </g>
   <g id="line2d_44">
    <defs>
     <path d="M 0 1.5 
C 0.397805 1.5 0.77937 1.341951 1.06066 1.06066 
C 1.341951 0.77937 1.5 0.397805 1.5 0 
C 1.5 -0.397805 1.341951 -0.77937 1.06066 -1.06066 
C 0.77937 -1.341951 0.397805 -1.5 0 -1.5 
C -0.397805 -1.5 -0.77937 -1.341951 -1.06066 -1.06066 
C -1.341951 -0.77937 -1.5 -0.397805 -1.5 0 
C -1.5 0.397805 -1.341951 0.77937 -1.06066 1.06066 
C -0.77937 1.341951 -0.397805 1.5 0 1.5 
z
" id="m9572de65eb" style="stroke:#6495ed;"/>
    </defs>
    <g>
     <use style="fill:#6495ed;stroke:#6495ed;" x="253.403293" xlink:href="#m9572de65eb" y="230.105794"/>
     <use style="fill:#6495ed;stroke:#6495ed;" x="253.403293" xlink:href="#m9572de65eb" y="230.105794"/>
    </g>
   </g>
   <g id="line2d_45">
    <path d="M 38.440992 298.944 
L 38.440992 288.044617 
L 50.52898 288.044617 
L 50.52898 286.323662 
L 57.6 286.323662 
L 57.6 284.602707 
L 62.616969 284.602707 
L 62.616969 282.881752 
L 66.508432 282.881752 
L 66.508432 282.3081 
L 85.66744 282.3081 
L 85.66744 281.734448 
L 89.78989 281.734448 
L 89.78989 281.160797 
L 93.121756 281.160797 
L 93.121756 280.587145 
L 93.863965 280.587145 
L 93.863965 278.86619 
L 95.259853 278.86619 
L 95.259853 278.292538 
L 97.755429 278.292538 
L 97.755429 277.718886 
L 99.938184 277.718886 
L 99.938184 277.145235 
L 100.934985 277.145235 
L 100.934985 276.571583 
L 106.311539 276.571583 
L 106.311539 275.997931 
L 108.006005 275.997931 
L 108.006005 275.42428 
L 109.252198 275.42428 
L 109.252198 274.850628 
L 113.022974 274.850628 
L 113.022974 274.276976 
L 113.500792 274.276976 
L 113.500792 273.129673 
L 115.077025 273.129673 
L 115.077025 272.556021 
L 115.502395 272.556021 
L 115.502395 271.982369 
L 116.914437 271.982369 
L 116.914437 271.408718 
L 117.107138 271.408718 
L 117.107138 270.835066 
L 117.486268 270.835066 
L 117.486268 270.261414 
L 117.672786 270.261414 
L 117.672786 269.687762 
L 118.039942 269.687762 
L 118.039942 269.114111 
L 118.576578 269.114111 
L 118.576578 268.540459 
L 120.093994 268.540459 
L 120.093994 267.966807 
L 120.883236 267.966807 
L 120.883236 267.393156 
L 123.725164 267.393156 
L 123.725164 266.819504 
L 125.938745 266.819504 
L 125.938745 266.245852 
L 126.168212 266.245852 
L 126.168212 265.6722 
L 126.281824 265.6722 
L 126.281824 265.098549 
L 127.05703 265.098549 
L 127.05703 263.951245 
L 128.107907 263.951245 
L 128.107907 263.377593 
L 130.218525 263.377593 
L 130.218525 262.23029 
L 130.664567 262.23029 
L 130.664567 261.656638 
L 134.091907 261.656638 
L 134.091907 261.082987 
L 136.645276 261.082987 
L 136.645276 260.509335 
L 144.350522 260.509335 
L 144.350522 259.935683 
L 147.901141 259.935683 
L 147.901141 259.362031 
L 197.229169 259.362031 
L 197.339245 255.346469 
L 197.383466 255.346469 
L 197.444804 252.478211 
L 197.521175 252.478211 
L 197.606695 249.036301 
L 197.718189 249.036301 
L 197.759581 247.888997 
L 198.048456 247.888997 
L 198.048456 246.741694 
L 198.228661 246.741694 
L 198.228661 246.168042 
L 209.316189 246.168042 
L 209.424346 242.726132 
L 209.501192 242.726132 
L 209.505984 241.005176 
L 209.759021 241.005176 
L 209.759021 240.431525 
L 216.485415 240.431525 
L 216.485415 239.857873 
L 216.603813 239.857873 
L 216.683359 238.71057 
L 216.72648 238.71057 
L 216.72648 238.136918 
L 221.403693 238.136918 
L 221.457857 236.415963 
L 225.425541 236.415963 
L 225.425541 235.842311 
L 228.522921 235.842311 
L 228.623421 234.695008 
L 231.193754 234.695008 
L 231.193754 234.121356 
L 233.619566 234.121356 
L 233.619566 233.547704 
L 235.659401 233.547704 
L 235.659401 232.400401 
L 239.064693 232.400401 
L 239.064693 231.826749 
L 245.592864 231.826749 
L 245.592864 231.253097 
L 252.659326 231.253097 
L 252.659326 230.679446 
L 253.403293 230.679446 
L 253.403293 230.105794 
L 338.688 230.105794 
L 338.688 230.105794 
" style="fill:none;stroke:#6495ed;stroke-linecap:square;stroke-width:1.5;"/>
   </g>
   <g id="line2d_46">
    <defs>
     <path d="M -0 6 
L 6 -6 
L -6 -6 
z
" id="md328823ada" style="stroke:#6495ed;stroke-linejoin:miter;stroke-width:1.5;"/>
    </defs>
    <g>
     <use style="fill-opacity:0;stroke:#6495ed;stroke-linejoin:miter;stroke-width:1.5;" x="113.500792" xlink:href="#md328823ada" y="273.129673"/>
     <use style="fill-opacity:0;stroke:#6495ed;stroke-linejoin:miter;stroke-width:1.5;" x="147.901141" xlink:href="#md328823ada" y="259.362031"/>
     <use style="fill-opacity:0;stroke:#6495ed;stroke-linejoin:miter;stroke-width:1.5;" x="245.592864" xlink:href="#md328823ada" y="231.253097"/>
     <use style="fill-opacity:0;stroke:#6495ed;stroke-linejoin:miter;stroke-width:1.5;" x="253.403293" xlink:href="#md328823ada" y="230.105794"/>
     <use style="fill-opacity:0;stroke:#6495ed;stroke-linejoin:miter;stroke-width:1.5;" x="253.403293" xlink:href="#md328823ada" y="230.105794"/>
     <use style="fill-opacity:0;stroke:#6495ed;stroke-linejoin:miter;stroke-width:1.5;" x="338.688" xlink:href="#md328823ada" y="230.105794"/>
    </g>
   </g>
   <g id="line2d_47">
    <path style="fill:none;stroke:#6495ed;stroke-linecap:square;stroke-width:1.5;"/>
    <g/>
   </g>
   <g id="line2d_48">
    <path clip-path="url(#pd0f8fd8342)" d="M 197.227232 259.362031 
" style="fill:none;stroke:#6495ed;stroke-linecap:square;stroke-width:1.5;"/>
    <defs>
     <path d="M -12 12 
L 12 -12 
M -12 -12 
L 12 12 
" id="m75366aea1d" style="stroke:#6495ed;"/>
    </defs>
    <g clip-path="url(#pd0f8fd8342)">
     <use style="fill:#6495ed;stroke:#6495ed;" x="197.227232" xlink:href="#m75366aea1d" y="259.362031"/>
    </g>
   </g>
   <g id="line2d_49">
    <defs>
     <path d="M 0 1.5 
C 0.397805 1.5 0.77937 1.341951 1.06066 1.06066 
C 1.341951 0.77937 1.5 0.397805 1.5 0 
C 1.5 -0.397805 1.341951 -0.77937 1.06066 -1.06066 
C 0.77937 -1.341951 0.397805 -1.5 0 -1.5 
C -0.397805 -1.5 -0.77937 -1.341951 -1.06066 -1.06066 
C -1.341951 -0.77937 -1.5 -0.397805 -1.5 0 
C -1.5 0.397805 -1.341951 0.77937 -1.06066 1.06066 
C -0.77937 1.341951 -0.397805 1.5 0 1.5 
z
" id="m78e418c030" style="stroke:#ff0000;"/>
    </defs>
    <g>
     <use style="fill:#ff0000;stroke:#ff0000;" x="239.188288" xlink:href="#m78e418c030" y="6.381624"/>
     <use style="fill:#ff0000;stroke:#ff0000;" x="239.188288" xlink:href="#m78e418c030" y="6.381624"/>
    </g>
   </g>
   <g id="line2d_50">
    <path d="M 38.440992 298.944 
L 38.440992 218.632759 
L 57.6 218.632759 
L 57.6 217.485456 
L 104.434538 217.485456 
L 104.434538 215.190849 
L 107.009204 215.190849 
L 107.009204 214.617197 
L 113.965867 214.617197 
L 113.965867 214.043546 
L 123.192626 214.043546 
L 123.192626 212.896242 
L 125.588781 212.896242 
L 125.588781 211.748939 
L 127.48501 211.748939 
L 127.48501 211.175287 
L 134.520763 211.175287 
L 134.520763 210.601635 
L 134.661403 210.601635 
L 134.661403 210.027984 
L 135.747468 210.027984 
L 135.747468 208.307029 
L 136.266147 208.307029 
L 136.266147 206.012422 
L 136.456742 206.012422 
L 136.456742 205.43877 
L 137.852629 205.43877 
L 137.852629 204.865118 
L 138.538853 204.865118 
L 138.538853 204.291467 
L 139.730821 204.291467 
L 139.730821 203.717815 
L 140.39868 203.717815 
L 140.39868 203.144163 
L 142.486301 203.144163 
L 142.486301 202.570511 
L 142.884173 202.570511 
L 142.884173 201.99686 
L 143.820164 201.99686 
L 143.820164 201.423208 
L 144.310293 201.423208 
L 144.310293 200.849556 
L 145.251067 200.849556 
L 145.251067 200.275904 
L 145.777292 200.275904 
L 145.777292 199.702253 
L 146.784375 199.702253 
L 146.784375 199.128601 
L 147.096109 199.128601 
L 147.096109 198.554949 
L 147.933891 198.554949 
L 147.933891 197.407646 
L 148.417899 197.407646 
L 148.417899 196.833994 
L 148.733265 196.833994 
L 148.733265 196.260342 
L 148.857832 196.260342 
L 148.888835 194.539387 
L 149.256637 194.539387 
L 149.256637 193.965736 
L 149.377533 193.965736 
L 149.377533 193.392084 
L 149.497598 193.392084 
L 149.497598 191.671129 
L 149.764758 191.671129 
L 149.852909 189.950174 
L 149.940618 189.950174 
L 149.940618 189.376522 
L 150.085825 189.376522 
L 150.085825 188.80287 
L 150.344189 188.80287 
L 150.344189 188.229218 
L 150.486088 188.229218 
L 150.486088 187.655567 
L 150.598782 187.655567 
L 150.598782 186.508263 
L 152.410901 186.508263 
L 152.410901 185.934612 
L 152.959038 185.934612 
L 153.008024 183.066353 
L 153.129893 183.066353 
L 153.129893 182.492701 
L 153.323128 182.492701 
L 153.323128 181.345398 
L 153.609024 181.345398 
L 153.609024 180.771746 
L 153.959927 180.771746 
L 154.006185 179.624443 
L 154.098334 179.624443 
L 154.144227 177.329836 
L 154.212841 177.329836 
L 154.212841 176.756184 
L 154.326601 176.756184 
L 154.371897 175.608881 
L 154.46214 175.608881 
L 154.529516 171.019667 
L 154.57429 171.019667 
L 154.618949 169.872363 
L 154.730098 169.872363 
L 154.840544 168.72506 
L 155.167744 168.72506 
L 155.232454 165.856801 
L 155.382516 165.856801 
L 155.446436 164.135846 
L 155.510121 164.135846 
L 155.510121 162.988543 
L 155.804285 162.988543 
L 155.804285 161.841239 
L 155.990803 161.841239 
L 155.990803 161.267588 
L 156.398281 161.267588 
L 156.398281 158.399329 
L 156.992185 158.399329 
L 156.992185 157.825677 
L 157.528821 157.825677 
L 157.58535 156.104722 
L 157.86528 156.104722 
L 157.86528 155.53107 
L 157.994392 155.53107 
L 157.994392 154.957419 
L 158.177196 154.957419 
L 158.177196 154.383767 
L 158.358103 154.383767 
L 158.39406 152.08916 
L 158.802326 152.08916 
L 158.802326 150.941857 
L 159.201253 150.941857 
L 159.201253 150.368205 
L 159.320876 150.368205 
L 159.320876 149.794553 
L 159.456591 149.794553 
L 159.490356 148.64725 
L 160.329974 148.64725 
L 160.329974 147.499946 
L 160.521792 147.499946 
L 160.553557 146.352643 
L 160.774311 146.352643 
L 160.883648 145.20534 
L 161.405178 145.20534 
L 161.450455 142.337081 
L 161.555647 142.337081 
L 161.555647 141.763429 
L 162.014019 141.763429 
L 162.014019 140.616126 
L 164.320806 140.616126 
L 164.320806 140.042474 
L 164.948638 140.042474 
L 164.948638 139.468822 
L 168.140524 139.468822 
L 168.140524 138.895171 
L 170.526891 138.895171 
L 170.526891 138.321519 
L 176.806955 138.321519 
L 176.806955 137.747867 
L 182.92119 137.747867 
L 182.92119 137.174215 
L 187.822261 137.174215 
L 187.822261 136.600564 
L 191.252509 136.600564 
L 191.252509 136.026912 
L 197.383466 136.026912 
L 197.383466 135.45326 
L 197.544022 135.45326 
L 197.544022 134.879609 
L 198.046608 134.879609 
L 198.116712 132.01135 
L 198.23049 132.01135 
L 198.338079 125.127529 
L 198.341714 125.127529 
L 198.414265 122.259271 
L 198.479303 122.259271 
L 198.579994 115.949102 
L 198.599705 115.949102 
L 198.697924 107.344326 
L 198.728171 107.344326 
L 198.793823 104.476068 
L 198.88215 104.476068 
L 198.992809 102.755112 
L 199.010309 102.755112 
L 199.120161 99.313202 
L 199.121899 99.313202 
L 199.212042 97.592247 
L 199.330941 97.592247 
L 199.401209 90.134775 
L 199.479711 90.134775 
L 199.479711 88.987471 
L 201.937331 88.987471 
L 201.937331 88.413819 
L 205.239208 88.413819 
L 205.239208 87.266516 
L 209.634864 87.266516 
L 209.685202 86.119213 
L 209.752409 86.119213 
L 209.854145 83.824606 
L 209.865413 83.824606 
L 209.942213 80.382695 
L 209.990741 80.382695 
L 210.081833 72.925223 
L 210.134596 72.925223 
L 210.134596 71.77792 
L 210.335847 71.77792 
L 210.419703 66.041402 
L 211.690712 66.041402 
L 211.690712 65.467751 
L 214.612792 65.467751 
L 214.612792 64.894099 
L 216.561666 64.894099 
L 216.561666 64.320447 
L 216.711273 64.320447 
L 216.818074 60.878537 
L 216.840741 60.878537 
L 216.936746 52.847413 
L 216.973002 52.847413 
L 217.081942 49.405503 
L 217.094969 49.405503 
L 217.169841 47.110896 
L 221.482947 47.110896 
L 221.534943 44.816289 
L 221.605946 44.816289 
L 221.683335 43.095334 
L 221.767025 43.095334 
L 221.867302 39.079772 
L 221.937437 39.079772 
L 221.964193 36.211513 
L 225.476234 36.211513 
L 225.557726 33.343255 
L 225.605372 33.343255 
L 225.69081 30.474996 
L 225.737339 30.474996 
L 225.739984 28.754041 
L 227.610038 28.754041 
L 227.610038 28.180389 
L 228.562162 28.180389 
L 228.65349 25.885782 
L 228.707102 25.885782 
L 228.801797 20.722917 
L 228.846107 20.722917 
L 228.846107 20.149265 
L 231.237904 20.149265 
L 231.343959 19.001962 
L 231.376251 19.001962 
L 231.435481 15.560051 
L 233.557913 15.560051 
L 233.571659 14.412748 
L 233.669979 14.412748 
L 233.674533 13.265444 
L 235.676502 13.265444 
L 235.784706 9.823534 
L 235.792561 9.823534 
L 235.800624 8.102579 
L 237.495251 8.102579 
L 237.549644 6.955275 
L 239.188288 6.955275 
L 239.188288 6.381624 
L 338.688 6.381624 
L 338.688 6.381624 
" style="fill:none;stroke:#ff0000;stroke-linecap:square;stroke-width:1.5;"/>
   </g>
   <g id="line2d_51">
    <defs>
     <path d="M 0 -6 
L -5.196152 -3 
L -5.196152 3 
L -0 6 
L 5.196152 3 
L 5.196152 -3 
z
" id="m92d8ce253e" style="stroke:#ff0000;stroke-linejoin:miter;stroke-width:1.5;"/>
    </defs>
    <g>
     <use style="fill-opacity:0;stroke:#ff0000;stroke-linejoin:miter;stroke-width:1.5;" x="113.965867" xlink:href="#m92d8ce253e" y="214.617197"/>
     <use style="fill-opacity:0;stroke:#ff0000;stroke-linejoin:miter;stroke-width:1.5;" x="161.405178" xlink:href="#m92d8ce253e" y="145.20534"/>
     <use style="fill-opacity:0;stroke:#ff0000;stroke-linejoin:miter;stroke-width:1.5;" x="225.548181" xlink:href="#m92d8ce253e" y="34.490558"/>
     <use style="fill-opacity:0;stroke:#ff0000;stroke-linejoin:miter;stroke-width:1.5;" x="239.188288" xlink:href="#m92d8ce253e" y="6.381624"/>
     <use style="fill-opacity:0;stroke:#ff0000;stroke-linejoin:miter;stroke-width:1.5;" x="239.188288" xlink:href="#m92d8ce253e" y="6.381624"/>
     <use style="fill-opacity:0;stroke:#ff0000;stroke-linejoin:miter;stroke-width:1.5;" x="338.688" xlink:href="#m92d8ce253e" y="6.381624"/>
    </g>
   </g>
   <g id="line2d_52">
    <path style="fill:none;stroke:#ff0000;stroke-linecap:square;stroke-width:1.5;"/>
    <g/>
   </g>
   <g id="line2d_53">
    <path clip-path="url(#pd0f8fd8342)" d="M 197.227232 136.026912 
" style="fill:none;stroke:#ff0000;stroke-linecap:square;stroke-width:1.5;"/>
    <defs>
     <path d="M -12 12 
L 12 -12 
M -12 -12 
L 12 12 
" id="m229119a188" style="stroke:#ff0000;"/>
    </defs>
    <g clip-path="url(#pd0f8fd8342)">
     <use style="fill:#ff0000;stroke:#ff0000;" x="197.227232" xlink:href="#m229119a188" y="136.026912"/>
    </g>
   </g>
   <g id="line2d_54">
    <path d="M 338.688 241.578828 
L 369.60768 293.092752 
" style="fill:none;stroke:#000080;stroke-linecap:square;stroke-width:1.5;"/>
    <g>
     <use style="fill-opacity:0;stroke:#000080;stroke-width:1.5;" x="338.688" xlink:href="#m52b56efea3" y="241.578828"/>
     <use style="fill-opacity:0;stroke:#000080;stroke-width:1.5;" x="369.60768" xlink:href="#m52b56efea3" y="293.092752"/>
    </g>
   </g>
   <g id="line2d_55">
    <path d="M 338.688 230.105794 
L 369.60768 222.877782 
" style="fill:none;stroke:#6495ed;stroke-linecap:square;stroke-width:1.5;"/>
    <g>
     <use style="fill-opacity:0;stroke:#6495ed;stroke-linejoin:miter;stroke-width:1.5;" x="338.688" xlink:href="#md328823ada" y="230.105794"/>
     <use style="fill-opacity:0;stroke:#6495ed;stroke-linejoin:miter;stroke-width:1.5;" x="369.60768" xlink:href="#md328823ada" y="222.877782"/>
    </g>
   </g>
   <g id="line2d_56">
    <path d="M 338.688 212.896242 
L 369.60768 152.662812 
" style="fill:none;stroke:#ff7500;stroke-linecap:square;stroke-width:1.5;"/>
    <g>
     <use style="fill-opacity:0;stroke:#ff7500;stroke-linejoin:bevel;stroke-width:1.5;" x="338.688" xlink:href="#m9afb26569d" y="212.896242"/>
     <use style="fill-opacity:0;stroke:#ff7500;stroke-linejoin:bevel;stroke-width:1.5;" x="369.60768" xlink:href="#m9afb26569d" y="152.662812"/>
    </g>
   </g>
   <g id="line2d_57">
    <path d="M 338.688 144.058036 
L 369.60768 82.447842 
" style="fill:none;stroke:#ff00ff;stroke-linecap:square;stroke-width:1.5;"/>
    <g>
     <use style="fill-opacity:0;stroke:#ff00ff;stroke-linejoin:miter;stroke-width:1.5;" x="338.688" xlink:href="#md692241e86" y="144.058036"/>
     <use style="fill-opacity:0;stroke:#ff00ff;stroke-linejoin:miter;stroke-width:1.5;" x="369.60768" xlink:href="#md692241e86" y="82.447842"/>
    </g>
   </g>
   <g id="line2d_58">
    <path d="M 338.688 6.381624 
L 369.60768 12.232871 
" style="fill:none;stroke:#ff0000;stroke-linecap:square;stroke-width:1.5;"/>
    <g>
     <use style="fill-opacity:0;stroke:#ff0000;stroke-linejoin:miter;stroke-width:1.5;" x="338.688" xlink:href="#m92d8ce253e" y="6.381624"/>
     <use style="fill-opacity:0;stroke:#ff0000;stroke-linejoin:miter;stroke-width:1.5;" x="369.60768" xlink:href="#m92d8ce253e" y="12.232871"/>
    </g>
   </g>
   <g id="line2d_59">
    <path d="M 338.688 298.944 
L 338.688 6.381624 
" style="fill:none;stroke:#000000;stroke-linecap:square;stroke-width:1.5;"/>
   </g>
   <g id="patch_3">
    <path d="M 57.6 298.944 
L 57.6 3.456 
" style="fill:none;stroke:#000000;stroke-linecap:square;stroke-linejoin:miter;stroke-width:0.8;"/>
   </g>
   <g id="patch_4">
    <path d="M 338.688 298.944 
L 338.688 3.456 
" style="fill:none;stroke:#000000;stroke-linecap:square;stroke-linejoin:miter;stroke-width:0.8;"/>
   </g>
   <g id="patch_5">
    <path d="M 57.6 298.944 
L 338.688 298.944 
" style="fill:none;stroke:#000000;stroke-linecap:square;stroke-linejoin:miter;stroke-width:0.8;"/>
   </g>
   <g id="patch_6">
    <path d="M 57.6 3.456 
L 338.688 3.456 
" style="fill:none;stroke:#000000;stroke-linecap:square;stroke-linejoin:miter;stroke-width:0.8;"/>
   </g>
   <g id="text_13">
    <!-- f15 -->
    <g transform="translate(375.22944 297.78369)scale(0.17 -0.17)">
     <defs>
      <path d="M 10.796875 72.90625 
L 49.515625 72.90625 
L 49.515625 64.59375 
L 19.828125 64.59375 
L 19.828125 46.734375 
Q 21.96875 47.46875 24.109375 47.828125 
Q 26.265625 48.1875 28.421875 48.1875 
Q 40.625 48.1875 47.75 41.5 
Q 54.890625 34.8125 54.890625 23.390625 
Q 54.890625 11.625 47.5625 5.09375 
Q 40.234375 -1.421875 26.90625 -1.421875 
Q 22.3125 -1.421875 17.546875 -0.640625 
Q 12.796875 0.140625 7.71875 1.703125 
L 7.71875 11.625 
Q 12.109375 9.234375 16.796875 8.0625 
Q 21.484375 6.890625 26.703125 6.890625 
Q 35.15625 6.890625 40.078125 11.328125 
Q 45.015625 15.765625 45.015625 23.390625 
Q 45.015625 31 40.078125 35.4375 
Q 35.15625 39.890625 26.703125 39.890625 
Q 22.75 39.890625 18.8125 39.015625 
Q 14.890625 38.140625 10.796875 36.28125 
z
" id="DejaVuSans-53"/>
     </defs>
     <use xlink:href="#DejaVuSans-102"/>
     <use x="35.205078" xlink:href="#DejaVuSans-49"/>
     <use x="98.828125" xlink:href="#DejaVuSans-53"/>
    </g>
   </g>
   <g id="text_14">
    <!-- f18 -->
    <g transform="translate(375.22944 227.56872)scale(0.17 -0.17)">
     <use xlink:href="#DejaVuSans-102"/>
     <use x="35.205078" xlink:href="#DejaVuSans-49"/>
     <use x="98.828125" xlink:href="#DejaVuSans-56"/>
    </g>
   </g>
   <g id="text_15">
    <!-- f17 -->
    <g transform="translate(375.22944 157.353749)scale(0.17 -0.17)">
     <defs>
      <path d="M 8.203125 72.90625 
L 55.078125 72.90625 
L 55.078125 68.703125 
L 28.609375 0 
L 18.3125 0 
L 43.21875 64.59375 
L 8.203125 64.59375 
z
" id="DejaVuSans-55"/>
     </defs>
     <use xlink:href="#DejaVuSans-102"/>
     <use x="35.205078" xlink:href="#DejaVuSans-49"/>
     <use x="98.828125" xlink:href="#DejaVuSans-55"/>
    </g>
   </g>
   <g id="text_16">
    <!-- f16 -->
    <g transform="translate(375.22944 87.138779)scale(0.17 -0.17)">
     <use xlink:href="#DejaVuSans-102"/>
     <use x="35.205078" xlink:href="#DejaVuSans-49"/>
     <use x="98.828125" xlink:href="#DejaVuSans-54"/>
    </g>
   </g>
   <g id="text_17">
    <!-- f19 -->
    <g transform="translate(375.22944 16.923809)scale(0.17 -0.17)">
     <defs>
      <path d="M 10.984375 1.515625 
L 10.984375 10.5 
Q 14.703125 8.734375 18.5 7.8125 
Q 22.3125 6.890625 25.984375 6.890625 
Q 35.75 6.890625 40.890625 13.453125 
Q 46.046875 20.015625 46.78125 33.40625 
Q 43.953125 29.203125 39.59375 26.953125 
Q 35.25 24.703125 29.984375 24.703125 
Q 19.046875 24.703125 12.671875 31.3125 
Q 6.296875 37.9375 6.296875 49.421875 
Q 6.296875 60.640625 12.9375 67.421875 
Q 19.578125 74.21875 30.609375 74.21875 
Q 43.265625 74.21875 49.921875 64.515625 
Q 56.59375 54.828125 56.59375 36.375 
Q 56.59375 19.140625 48.40625 8.859375 
Q 40.234375 -1.421875 26.421875 -1.421875 
Q 22.703125 -1.421875 18.890625 -0.6875 
Q 15.09375 0.046875 10.984375 1.515625 
z
M 30.609375 32.421875 
Q 37.25 32.421875 41.125 36.953125 
Q 45.015625 41.5 45.015625 49.421875 
Q 45.015625 57.28125 41.125 61.84375 
Q 37.25 66.40625 30.609375 66.40625 
Q 23.96875 66.40625 20.09375 61.84375 
Q 16.21875 57.28125 16.21875 49.421875 
Q 16.21875 41.5 20.09375 36.953125 
Q 23.96875 32.421875 30.609375 32.421875 
z
" id="DejaVuSans-57"/>
     </defs>
     <use xlink:href="#DejaVuSans-102"/>
     <use x="35.205078" xlink:href="#DejaVuSans-49"/>
     <use x="98.828125" xlink:href="#DejaVuSans-57"/>
    </g>
   </g>
   <g id="text_18">
    <!-- bbob -->
    <g transform="translate(60.41088 14.161286)scale(0.102 -0.102)">
     <defs>
      <path d="M 48.6875 27.296875 
Q 48.6875 37.203125 44.609375 42.84375 
Q 40.53125 48.484375 33.40625 48.484375 
Q 26.265625 48.484375 22.1875 42.84375 
Q 18.109375 37.203125 18.109375 27.296875 
Q 18.109375 17.390625 22.1875 11.75 
Q 26.265625 6.109375 33.40625 6.109375 
Q 40.53125 6.109375 44.609375 11.75 
Q 48.6875 17.390625 48.6875 27.296875 
z
M 18.109375 46.390625 
Q 20.953125 51.265625 25.265625 53.625 
Q 29.59375 56 35.59375 56 
Q 45.5625 56 51.78125 48.09375 
Q 58.015625 40.1875 58.015625 27.296875 
Q 58.015625 14.40625 51.78125 6.484375 
Q 45.5625 -1.421875 35.59375 -1.421875 
Q 29.59375 -1.421875 25.265625 0.953125 
Q 20.953125 3.328125 18.109375 8.203125 
L 18.109375 0 
L 9.078125 0 
L 9.078125 75.984375 
L 18.109375 75.984375 
z
" id="DejaVuSans-98"/>
     </defs>
     <use xlink:href="#DejaVuSans-98"/>
     <use x="63.476562" xlink:href="#DejaVuSans-98"/>
     <use x="126.953125" xlink:href="#DejaVuSans-111"/>
     <use x="188.134766" xlink:href="#DejaVuSans-98"/>
    </g>
    <!-- Multi-modal functions, 3-D -->
    <g transform="translate(60.41088 25.583055)scale(0.102 -0.102)">
     <defs>
      <path d="M 9.8125 72.90625 
L 24.515625 72.90625 
L 43.109375 23.296875 
L 61.8125 72.90625 
L 76.515625 72.90625 
L 76.515625 0 
L 66.890625 0 
L 66.890625 64.015625 
L 48.09375 14.015625 
L 38.1875 14.015625 
L 19.390625 64.015625 
L 19.390625 0 
L 9.8125 0 
z
" id="DejaVuSans-77"/>
      <path d="M 40.578125 39.3125 
Q 47.65625 37.796875 51.625 33 
Q 55.609375 28.21875 55.609375 21.1875 
Q 55.609375 10.40625 48.1875 4.484375 
Q 40.765625 -1.421875 27.09375 -1.421875 
Q 22.515625 -1.421875 17.65625 -0.515625 
Q 12.796875 0.390625 7.625 2.203125 
L 7.625 11.71875 
Q 11.71875 9.328125 16.59375 8.109375 
Q 21.484375 6.890625 26.8125 6.890625 
Q 36.078125 6.890625 40.9375 10.546875 
Q 45.796875 14.203125 45.796875 21.1875 
Q 45.796875 27.640625 41.28125 31.265625 
Q 36.765625 34.90625 28.71875 34.90625 
L 20.21875 34.90625 
L 20.21875 43.015625 
L 29.109375 43.015625 
Q 36.375 43.015625 40.234375 45.921875 
Q 44.09375 48.828125 44.09375 54.296875 
Q 44.09375 59.90625 40.109375 62.90625 
Q 36.140625 65.921875 28.71875 65.921875 
Q 24.65625 65.921875 20.015625 65.03125 
Q 15.375 64.15625 9.8125 62.3125 
L 9.8125 71.09375 
Q 15.4375 72.65625 20.34375 73.4375 
Q 25.25 74.21875 29.59375 74.21875 
Q 40.828125 74.21875 47.359375 69.109375 
Q 53.90625 64.015625 53.90625 55.328125 
Q 53.90625 49.265625 50.4375 45.09375 
Q 46.96875 40.921875 40.578125 39.3125 
z
" id="DejaVuSans-51"/>
      <path d="M 19.671875 64.796875 
L 19.671875 8.109375 
L 31.59375 8.109375 
Q 46.6875 8.109375 53.6875 14.9375 
Q 60.6875 21.78125 60.6875 36.53125 
Q 60.6875 51.171875 53.6875 57.984375 
Q 46.6875 64.796875 31.59375 64.796875 
z
M 9.8125 72.90625 
L 30.078125 72.90625 
Q 51.265625 72.90625 61.171875 64.09375 
Q 71.09375 55.28125 71.09375 36.53125 
Q 71.09375 17.671875 61.125 8.828125 
Q 51.171875 0 30.078125 0 
L 9.8125 0 
z
" id="DejaVuSans-68"/>
     </defs>
     <use xlink:href="#DejaVuSans-77"/>
     <use x="86.279297" xlink:href="#DejaVuSans-117"/>
     <use x="149.658203" xlink:href="#DejaVuSans-108"/>
     <use x="177.441406" xlink:href="#DejaVuSans-116"/>
     <use x="216.650391" xlink:href="#DejaVuSans-105"/>
     <use x="244.433594" xlink:href="#DejaVuSans-45"/>
     <use x="280.517578" xlink:href="#DejaVuSans-109"/>
     <use x="377.929688" xlink:href="#DejaVuSans-111"/>
     <use x="439.111328" xlink:href="#DejaVuSans-100"/>
     <use x="502.587891" xlink:href="#DejaVuSans-97"/>
     <use x="563.867188" xlink:href="#DejaVuSans-108"/>
     <use x="591.650391" xlink:href="#DejaVuSans-32"/>
     <use x="623.4375" xlink:href="#DejaVuSans-102"/>
     <use x="658.642578" xlink:href="#DejaVuSans-117"/>
     <use x="722.021484" xlink:href="#DejaVuSans-110"/>
     <use x="785.400391" xlink:href="#DejaVuSans-99"/>
     <use x="840.380859" xlink:href="#DejaVuSans-116"/>
     <use x="879.589844" xlink:href="#DejaVuSans-105"/>
     <use x="907.373047" xlink:href="#DejaVuSans-111"/>
     <use x="968.554688" xlink:href="#DejaVuSans-110"/>
     <use x="1031.933594" xlink:href="#DejaVuSans-115"/>
     <use x="1084.033203" xlink:href="#DejaVuSans-44"/>
     <use x="1115.820312" xlink:href="#DejaVuSans-32"/>
     <use x="1147.607422" xlink:href="#DejaVuSans-51"/>
     <use x="1211.230469" xlink:href="#DejaVuSans-45"/>
     <use x="1247.314453" xlink:href="#DejaVuSans-68"/>
    </g>
    <!-- 51 targets: 100..1e-08 -->
    <g transform="translate(60.41088 37.004824)scale(0.102 -0.102)">
     <defs>
      <path d="M 11.71875 12.40625 
L 22.015625 12.40625 
L 22.015625 0 
L 11.71875 0 
z
M 11.71875 51.703125 
L 22.015625 51.703125 
L 22.015625 39.3125 
L 11.71875 39.3125 
z
" id="DejaVuSans-58"/>
     </defs>
     <use xlink:href="#DejaVuSans-53"/>
     <use x="63.623047" xlink:href="#DejaVuSans-49"/>
     <use x="127.246094" xlink:href="#DejaVuSans-32"/>
     <use x="159.033203" xlink:href="#DejaVuSans-116"/>
     <use x="198.242188" xlink:href="#DejaVuSans-97"/>
     <use x="259.521484" xlink:href="#DejaVuSans-114"/>
     <use x="298.884766" xlink:href="#DejaVuSans-103"/>
     <use x="362.361328" xlink:href="#DejaVuSans-101"/>
     <use x="423.884766" xlink:href="#DejaVuSans-116"/>
     <use x="463.09375" xlink:href="#DejaVuSans-115"/>
     <use x="515.193359" xlink:href="#DejaVuSans-58"/>
     <use x="548.884766" xlink:href="#DejaVuSans-32"/>
     <use x="580.671875" xlink:href="#DejaVuSans-49"/>
     <use x="644.294922" xlink:href="#DejaVuSans-48"/>
     <use x="707.917969" xlink:href="#DejaVuSans-48"/>
     <use x="771.541016" xlink:href="#DejaVuSans-46"/>
     <use x="803.328125" xlink:href="#DejaVuSans-46"/>
     <use x="835.115234" xlink:href="#DejaVuSans-49"/>
     <use x="898.738281" xlink:href="#DejaVuSans-101"/>
     <use x="960.261719" xlink:href="#DejaVuSans-45"/>
     <use x="996.345703" xlink:href="#DejaVuSans-48"/>
     <use x="1059.96875" xlink:href="#DejaVuSans-56"/>
    </g>
    <!-- 15 instances -->
    <g transform="translate(60.41088 48.426593)scale(0.102 -0.102)">
     <use xlink:href="#DejaVuSans-49"/>
     <use x="63.623047" xlink:href="#DejaVuSans-53"/>
     <use x="127.246094" xlink:href="#DejaVuSans-32"/>
     <use x="159.033203" xlink:href="#DejaVuSans-105"/>
     <use x="186.816406" xlink:href="#DejaVuSans-110"/>
     <use x="250.195312" xlink:href="#DejaVuSans-115"/>
     <use x="302.294922" xlink:href="#DejaVuSans-116"/>
     <use x="341.503906" xlink:href="#DejaVuSans-97"/>
     <use x="402.783203" xlink:href="#DejaVuSans-110"/>
     <use x="466.162109" xlink:href="#DejaVuSans-99"/>
     <use x="521.142578" xlink:href="#DejaVuSans-101"/>
     <use x="582.666016" xlink:href="#DejaVuSans-115"/>
    </g>
   </g>
   <g id="text_19">
    <!-- v2.4 -->
    <g style="fill:#808080;" transform="translate(187.233062 293.909432)scale(0.1 -0.1)">
     <use xlink:href="#DejaVuSans-118"/>
     <use x="59.179688" xlink:href="#DejaVuSans-50"/>
     <use x="122.802734" xlink:href="#DejaVuSans-46"/>
     <use x="154.589844" xlink:href="#DejaVuSans-52"/>
    </g>
   </g>
  </g>
 </g>
 <defs>
  <clipPath id="pd0f8fd8342">
   <rect height="295.488" width="281.088" x="57.6" y="3.456"/>
  </clipPath>
 </defs>
</svg>
