<?xml version="1.0" encoding="utf-8" standalone="no"?>
<!DOCTYPE svg PUBLIC "-//W3C//DTD SVG 1.1//EN"
  "http://www.w3.org/Graphics/SVG/1.1/DTD/svg11.dtd">
<!-- Created with matplotlib (https://matplotlib.org/) -->
<svg height="345.6pt" version="1.1" viewBox="0 0 460.8 345.6" width="460.8pt" xmlns="http://www.w3.org/2000/svg" xmlns:xlink="http://www.w3.org/1999/xlink">
 <metadata>
  <rdf:RDF xmlns:cc="http://creativecommons.org/ns#" xmlns:dc="http://purl.org/dc/elements/1.1/" xmlns:rdf="http://www.w3.org/1999/02/22-rdf-syntax-ns#">
   <cc:Work>
    <dc:type rdf:resource="http://purl.org/dc/dcmitype/StillImage"/>
    <dc:date>2021-06-17T01:38:05.229853</dc:date>
    <dc:format>image/svg+xml</dc:format>
    <dc:creator>
     <cc:Agent>
      <dc:title>Matplotlib v3.3.4, https://matplotlib.org/</dc:title>
     </cc:Agent>
    </dc:creator>
   </cc:Work>
  </rdf:RDF>
 </metadata>
 <defs>
  <style type="text/css">*{stroke-linecap:butt;stroke-linejoin:round;}</style>
 </defs>
 <g id="figure_1">
  <g id="patch_1">
   <path d="M 0 345.6 
L 460.8 345.6 
L 460.8 0 
L 0 0 
z
" style="fill:#ffffff;"/>
  </g>
  <g id="axes_1">
   <g id="patch_2">
    <path d="M 57.6 298.944 
L 338.688 298.944 
L 338.688 27.648 
L 57.6 27.648 
z
" style="fill:#ffffff;"/>
   </g>
   <g id="matplotlib.axis_1">
    <g id="xtick_1">
     <g id="line2d_1">
      <path clip-path="url(#pda7117f3c3)" d="M 57.6 298.944 
L 57.6 27.648 
" style="fill:none;stroke:#b0b0b0;stroke-linecap:square;stroke-width:0.8;"/>
     </g>
     <g id="line2d_2">
      <defs>
       <path d="M 0 0 
L 0 3.5 
" id="m7416ecb1dc" style="stroke:#000000;stroke-width:0.8;"/>
      </defs>
      <g>
       <use style="stroke:#000000;stroke-width:0.8;" x="57.6" xlink:href="#m7416ecb1dc" y="298.944"/>
      </g>
     </g>
     <g id="text_1">
      <!-- 0 -->
      <g transform="translate(51.2375 321.140875)scale(0.2 -0.2)">
       <defs>
        <path d="M 31.78125 66.40625 
Q 24.171875 66.40625 20.328125 58.90625 
Q 16.5 51.421875 16.5 36.375 
Q 16.5 21.390625 20.328125 13.890625 
Q 24.171875 6.390625 31.78125 6.390625 
Q 39.453125 6.390625 43.28125 13.890625 
Q 47.125 21.390625 47.125 36.375 
Q 47.125 51.421875 43.28125 58.90625 
Q 39.453125 66.40625 31.78125 66.40625 
z
M 31.78125 74.21875 
Q 44.046875 74.21875 50.515625 64.515625 
Q 56.984375 54.828125 56.984375 36.375 
Q 56.984375 17.96875 50.515625 8.265625 
Q 44.046875 -1.421875 31.78125 -1.421875 
Q 19.53125 -1.421875 13.0625 8.265625 
Q 6.59375 17.96875 6.59375 36.375 
Q 6.59375 54.828125 13.0625 64.515625 
Q 19.53125 74.21875 31.78125 74.21875 
z
" id="DejaVuSans-48"/>
       </defs>
       <use xlink:href="#DejaVuSans-48"/>
      </g>
     </g>
    </g>
    <g id="xtick_2">
     <g id="line2d_3">
      <path clip-path="url(#pda7117f3c3)" d="M 137.910857 298.944 
L 137.910857 27.648 
" style="fill:none;stroke:#b0b0b0;stroke-linecap:square;stroke-width:0.8;"/>
     </g>
     <g id="line2d_4">
      <g>
       <use style="stroke:#000000;stroke-width:0.8;" x="137.910857" xlink:href="#m7416ecb1dc" y="298.944"/>
      </g>
     </g>
     <g id="text_2">
      <!-- 2 -->
      <g transform="translate(131.548357 321.140875)scale(0.2 -0.2)">
       <defs>
        <path d="M 19.1875 8.296875 
L 53.609375 8.296875 
L 53.609375 0 
L 7.328125 0 
L 7.328125 8.296875 
Q 12.9375 14.109375 22.625 23.890625 
Q 32.328125 33.6875 34.8125 36.53125 
Q 39.546875 41.84375 41.421875 45.53125 
Q 43.3125 49.21875 43.3125 52.78125 
Q 43.3125 58.59375 39.234375 62.25 
Q 35.15625 65.921875 28.609375 65.921875 
Q 23.96875 65.921875 18.8125 64.3125 
Q 13.671875 62.703125 7.8125 59.421875 
L 7.8125 69.390625 
Q 13.765625 71.78125 18.9375 73 
Q 24.125 74.21875 28.421875 74.21875 
Q 39.75 74.21875 46.484375 68.546875 
Q 53.21875 62.890625 53.21875 53.421875 
Q 53.21875 48.921875 51.53125 44.890625 
Q 49.859375 40.875 45.40625 35.40625 
Q 44.1875 33.984375 37.640625 27.21875 
Q 31.109375 20.453125 19.1875 8.296875 
z
" id="DejaVuSans-50"/>
       </defs>
       <use xlink:href="#DejaVuSans-50"/>
      </g>
     </g>
    </g>
    <g id="xtick_3">
     <g id="line2d_5">
      <path clip-path="url(#pda7117f3c3)" d="M 218.221714 298.944 
L 218.221714 27.648 
" style="fill:none;stroke:#b0b0b0;stroke-linecap:square;stroke-width:0.8;"/>
     </g>
     <g id="line2d_6">
      <g>
       <use style="stroke:#000000;stroke-width:0.8;" x="218.221714" xlink:href="#m7416ecb1dc" y="298.944"/>
      </g>
     </g>
     <g id="text_3">
      <!-- 4 -->
      <g transform="translate(211.859214 321.140875)scale(0.2 -0.2)">
       <defs>
        <path d="M 37.796875 64.3125 
L 12.890625 25.390625 
L 37.796875 25.390625 
z
M 35.203125 72.90625 
L 47.609375 72.90625 
L 47.609375 25.390625 
L 58.015625 25.390625 
L 58.015625 17.1875 
L 47.609375 17.1875 
L 47.609375 0 
L 37.796875 0 
L 37.796875 17.1875 
L 4.890625 17.1875 
L 4.890625 26.703125 
z
" id="DejaVuSans-52"/>
       </defs>
       <use xlink:href="#DejaVuSans-52"/>
      </g>
     </g>
    </g>
    <g id="xtick_4">
     <g id="line2d_7">
      <path clip-path="url(#pda7117f3c3)" d="M 298.532571 298.944 
L 298.532571 27.648 
" style="fill:none;stroke:#b0b0b0;stroke-linecap:square;stroke-width:0.8;"/>
     </g>
     <g id="line2d_8">
      <g>
       <use style="stroke:#000000;stroke-width:0.8;" x="298.532571" xlink:href="#m7416ecb1dc" y="298.944"/>
      </g>
     </g>
     <g id="text_4">
      <!-- 6 -->
      <g transform="translate(292.170071 321.140875)scale(0.2 -0.2)">
       <defs>
        <path d="M 33.015625 40.375 
Q 26.375 40.375 22.484375 35.828125 
Q 18.609375 31.296875 18.609375 23.390625 
Q 18.609375 15.53125 22.484375 10.953125 
Q 26.375 6.390625 33.015625 6.390625 
Q 39.65625 6.390625 43.53125 10.953125 
Q 47.40625 15.53125 47.40625 23.390625 
Q 47.40625 31.296875 43.53125 35.828125 
Q 39.65625 40.375 33.015625 40.375 
z
M 52.59375 71.296875 
L 52.59375 62.3125 
Q 48.875 64.0625 45.09375 64.984375 
Q 41.3125 65.921875 37.59375 65.921875 
Q 27.828125 65.921875 22.671875 59.328125 
Q 17.53125 52.734375 16.796875 39.40625 
Q 19.671875 43.65625 24.015625 45.921875 
Q 28.375 48.1875 33.59375 48.1875 
Q 44.578125 48.1875 50.953125 41.515625 
Q 57.328125 34.859375 57.328125 23.390625 
Q 57.328125 12.15625 50.6875 5.359375 
Q 44.046875 -1.421875 33.015625 -1.421875 
Q 20.359375 -1.421875 13.671875 8.265625 
Q 6.984375 17.96875 6.984375 36.375 
Q 6.984375 53.65625 15.1875 63.9375 
Q 23.390625 74.21875 37.203125 74.21875 
Q 40.921875 74.21875 44.703125 73.484375 
Q 48.484375 72.75 52.59375 71.296875 
z
" id="DejaVuSans-54"/>
       </defs>
       <use xlink:href="#DejaVuSans-54"/>
      </g>
     </g>
    </g>
    <g id="xtick_5">
     <g id="line2d_9">
      <path clip-path="url(#pda7117f3c3)" d="M 97.755429 298.944 
L 97.755429 27.648 
" style="fill:none;stroke:#b0b0b0;stroke-linecap:square;stroke-width:0.8;"/>
     </g>
     <g id="line2d_10">
      <defs>
       <path d="M 0 0 
L 0 2 
" id="m44374acc9c" style="stroke:#000000;stroke-width:0.6;"/>
      </defs>
      <g>
       <use style="stroke:#000000;stroke-width:0.6;" x="97.755429" xlink:href="#m44374acc9c" y="298.944"/>
      </g>
     </g>
    </g>
    <g id="xtick_6">
     <g id="line2d_11">
      <path clip-path="url(#pda7117f3c3)" d="M 178.066286 298.944 
L 178.066286 27.648 
" style="fill:none;stroke:#b0b0b0;stroke-linecap:square;stroke-width:0.8;"/>
     </g>
     <g id="line2d_12">
      <g>
       <use style="stroke:#000000;stroke-width:0.6;" x="178.066286" xlink:href="#m44374acc9c" y="298.944"/>
      </g>
     </g>
    </g>
    <g id="xtick_7">
     <g id="line2d_13">
      <path clip-path="url(#pda7117f3c3)" d="M 258.377143 298.944 
L 258.377143 27.648 
" style="fill:none;stroke:#b0b0b0;stroke-linecap:square;stroke-width:0.8;"/>
     </g>
     <g id="line2d_14">
      <g>
       <use style="stroke:#000000;stroke-width:0.6;" x="258.377143" xlink:href="#m44374acc9c" y="298.944"/>
      </g>
     </g>
    </g>
    <g id="xtick_8">
     <g id="line2d_15">
      <path clip-path="url(#pda7117f3c3)" d="M 338.688 298.944 
L 338.688 27.648 
" style="fill:none;stroke:#b0b0b0;stroke-linecap:square;stroke-width:0.8;"/>
     </g>
     <g id="line2d_16">
      <g>
       <use style="stroke:#000000;stroke-width:0.6;" x="338.688" xlink:href="#m44374acc9c" y="298.944"/>
      </g>
     </g>
    </g>
    <g id="text_5">
     <!-- log10(# f-evals / dimension) -->
     <g transform="translate(77.764078 342.217594)scale(0.17 -0.17)">
      <defs>
       <path d="M 9.421875 75.984375 
L 18.40625 75.984375 
L 18.40625 0 
L 9.421875 0 
z
" id="DejaVuSans-108"/>
       <path d="M 30.609375 48.390625 
Q 23.390625 48.390625 19.1875 42.75 
Q 14.984375 37.109375 14.984375 27.296875 
Q 14.984375 17.484375 19.15625 11.84375 
Q 23.34375 6.203125 30.609375 6.203125 
Q 37.796875 6.203125 41.984375 11.859375 
Q 46.1875 17.53125 46.1875 27.296875 
Q 46.1875 37.015625 41.984375 42.703125 
Q 37.796875 48.390625 30.609375 48.390625 
z
M 30.609375 56 
Q 42.328125 56 49.015625 48.375 
Q 55.71875 40.765625 55.71875 27.296875 
Q 55.71875 13.875 49.015625 6.21875 
Q 42.328125 -1.421875 30.609375 -1.421875 
Q 18.84375 -1.421875 12.171875 6.21875 
Q 5.515625 13.875 5.515625 27.296875 
Q 5.515625 40.765625 12.171875 48.375 
Q 18.84375 56 30.609375 56 
z
" id="DejaVuSans-111"/>
       <path d="M 45.40625 27.984375 
Q 45.40625 37.75 41.375 43.109375 
Q 37.359375 48.484375 30.078125 48.484375 
Q 22.859375 48.484375 18.828125 43.109375 
Q 14.796875 37.75 14.796875 27.984375 
Q 14.796875 18.265625 18.828125 12.890625 
Q 22.859375 7.515625 30.078125 7.515625 
Q 37.359375 7.515625 41.375 12.890625 
Q 45.40625 18.265625 45.40625 27.984375 
z
M 54.390625 6.78125 
Q 54.390625 -7.171875 48.1875 -13.984375 
Q 42 -20.796875 29.203125 -20.796875 
Q 24.46875 -20.796875 20.265625 -20.09375 
Q 16.0625 -19.390625 12.109375 -17.921875 
L 12.109375 -9.1875 
Q 16.0625 -11.328125 19.921875 -12.34375 
Q 23.78125 -13.375 27.78125 -13.375 
Q 36.625 -13.375 41.015625 -8.765625 
Q 45.40625 -4.15625 45.40625 5.171875 
L 45.40625 9.625 
Q 42.625 4.78125 38.28125 2.390625 
Q 33.9375 0 27.875 0 
Q 17.828125 0 11.671875 7.65625 
Q 5.515625 15.328125 5.515625 27.984375 
Q 5.515625 40.671875 11.671875 48.328125 
Q 17.828125 56 27.875 56 
Q 33.9375 56 38.28125 53.609375 
Q 42.625 51.21875 45.40625 46.390625 
L 45.40625 54.6875 
L 54.390625 54.6875 
z
" id="DejaVuSans-103"/>
       <path d="M 12.40625 8.296875 
L 28.515625 8.296875 
L 28.515625 63.921875 
L 10.984375 60.40625 
L 10.984375 69.390625 
L 28.421875 72.90625 
L 38.28125 72.90625 
L 38.28125 8.296875 
L 54.390625 8.296875 
L 54.390625 0 
L 12.40625 0 
z
" id="DejaVuSans-49"/>
       <path d="M 31 75.875 
Q 24.46875 64.65625 21.28125 53.65625 
Q 18.109375 42.671875 18.109375 31.390625 
Q 18.109375 20.125 21.3125 9.0625 
Q 24.515625 -2 31 -13.1875 
L 23.1875 -13.1875 
Q 15.875 -1.703125 12.234375 9.375 
Q 8.59375 20.453125 8.59375 31.390625 
Q 8.59375 42.28125 12.203125 53.3125 
Q 15.828125 64.359375 23.1875 75.875 
z
" id="DejaVuSans-40"/>
       <path d="M 51.125 44 
L 36.921875 44 
L 32.8125 27.6875 
L 47.125 27.6875 
z
M 43.796875 71.78125 
L 38.71875 51.515625 
L 52.984375 51.515625 
L 58.109375 71.78125 
L 65.921875 71.78125 
L 60.890625 51.515625 
L 76.125 51.515625 
L 76.125 44 
L 58.984375 44 
L 54.984375 27.6875 
L 70.515625 27.6875 
L 70.515625 20.21875 
L 53.078125 20.21875 
L 48 0 
L 40.1875 0 
L 45.21875 20.21875 
L 30.90625 20.21875 
L 25.875 0 
L 18.015625 0 
L 23.09375 20.21875 
L 7.71875 20.21875 
L 7.71875 27.6875 
L 24.90625 27.6875 
L 29 44 
L 13.28125 44 
L 13.28125 51.515625 
L 30.90625 51.515625 
L 35.890625 71.78125 
z
" id="DejaVuSans-35"/>
       <path id="DejaVuSans-32"/>
       <path d="M 37.109375 75.984375 
L 37.109375 68.5 
L 28.515625 68.5 
Q 23.6875 68.5 21.796875 66.546875 
Q 19.921875 64.59375 19.921875 59.515625 
L 19.921875 54.6875 
L 34.71875 54.6875 
L 34.71875 47.703125 
L 19.921875 47.703125 
L 19.921875 0 
L 10.890625 0 
L 10.890625 47.703125 
L 2.296875 47.703125 
L 2.296875 54.6875 
L 10.890625 54.6875 
L 10.890625 58.5 
Q 10.890625 67.625 15.140625 71.796875 
Q 19.390625 75.984375 28.609375 75.984375 
z
" id="DejaVuSans-102"/>
       <path d="M 4.890625 31.390625 
L 31.203125 31.390625 
L 31.203125 23.390625 
L 4.890625 23.390625 
z
" id="DejaVuSans-45"/>
       <path d="M 56.203125 29.59375 
L 56.203125 25.203125 
L 14.890625 25.203125 
Q 15.484375 15.921875 20.484375 11.0625 
Q 25.484375 6.203125 34.421875 6.203125 
Q 39.59375 6.203125 44.453125 7.46875 
Q 49.3125 8.734375 54.109375 11.28125 
L 54.109375 2.78125 
Q 49.265625 0.734375 44.1875 -0.34375 
Q 39.109375 -1.421875 33.890625 -1.421875 
Q 20.796875 -1.421875 13.15625 6.1875 
Q 5.515625 13.8125 5.515625 26.8125 
Q 5.515625 40.234375 12.765625 48.109375 
Q 20.015625 56 32.328125 56 
Q 43.359375 56 49.78125 48.890625 
Q 56.203125 41.796875 56.203125 29.59375 
z
M 47.21875 32.234375 
Q 47.125 39.59375 43.09375 43.984375 
Q 39.0625 48.390625 32.421875 48.390625 
Q 24.90625 48.390625 20.390625 44.140625 
Q 15.875 39.890625 15.1875 32.171875 
z
" id="DejaVuSans-101"/>
       <path d="M 2.984375 54.6875 
L 12.5 54.6875 
L 29.59375 8.796875 
L 46.6875 54.6875 
L 56.203125 54.6875 
L 35.6875 0 
L 23.484375 0 
z
" id="DejaVuSans-118"/>
       <path d="M 34.28125 27.484375 
Q 23.390625 27.484375 19.1875 25 
Q 14.984375 22.515625 14.984375 16.5 
Q 14.984375 11.71875 18.140625 8.90625 
Q 21.296875 6.109375 26.703125 6.109375 
Q 34.1875 6.109375 38.703125 11.40625 
Q 43.21875 16.703125 43.21875 25.484375 
L 43.21875 27.484375 
z
M 52.203125 31.203125 
L 52.203125 0 
L 43.21875 0 
L 43.21875 8.296875 
Q 40.140625 3.328125 35.546875 0.953125 
Q 30.953125 -1.421875 24.3125 -1.421875 
Q 15.921875 -1.421875 10.953125 3.296875 
Q 6 8.015625 6 15.921875 
Q 6 25.140625 12.171875 29.828125 
Q 18.359375 34.515625 30.609375 34.515625 
L 43.21875 34.515625 
L 43.21875 35.40625 
Q 43.21875 41.609375 39.140625 45 
Q 35.0625 48.390625 27.6875 48.390625 
Q 23 48.390625 18.546875 47.265625 
Q 14.109375 46.140625 10.015625 43.890625 
L 10.015625 52.203125 
Q 14.9375 54.109375 19.578125 55.046875 
Q 24.21875 56 28.609375 56 
Q 40.484375 56 46.34375 49.84375 
Q 52.203125 43.703125 52.203125 31.203125 
z
" id="DejaVuSans-97"/>
       <path d="M 44.28125 53.078125 
L 44.28125 44.578125 
Q 40.484375 46.53125 36.375 47.5 
Q 32.28125 48.484375 27.875 48.484375 
Q 21.1875 48.484375 17.84375 46.4375 
Q 14.5 44.390625 14.5 40.28125 
Q 14.5 37.15625 16.890625 35.375 
Q 19.28125 33.59375 26.515625 31.984375 
L 29.59375 31.296875 
Q 39.15625 29.25 43.1875 25.515625 
Q 47.21875 21.78125 47.21875 15.09375 
Q 47.21875 7.46875 41.1875 3.015625 
Q 35.15625 -1.421875 24.609375 -1.421875 
Q 20.21875 -1.421875 15.453125 -0.5625 
Q 10.6875 0.296875 5.421875 2 
L 5.421875 11.28125 
Q 10.40625 8.6875 15.234375 7.390625 
Q 20.0625 6.109375 24.8125 6.109375 
Q 31.15625 6.109375 34.5625 8.28125 
Q 37.984375 10.453125 37.984375 14.40625 
Q 37.984375 18.0625 35.515625 20.015625 
Q 33.0625 21.96875 24.703125 23.78125 
L 21.578125 24.515625 
Q 13.234375 26.265625 9.515625 29.90625 
Q 5.8125 33.546875 5.8125 39.890625 
Q 5.8125 47.609375 11.28125 51.796875 
Q 16.75 56 26.8125 56 
Q 31.78125 56 36.171875 55.265625 
Q 40.578125 54.546875 44.28125 53.078125 
z
" id="DejaVuSans-115"/>
       <path d="M 25.390625 72.90625 
L 33.6875 72.90625 
L 8.296875 -9.28125 
L 0 -9.28125 
z
" id="DejaVuSans-47"/>
       <path d="M 45.40625 46.390625 
L 45.40625 75.984375 
L 54.390625 75.984375 
L 54.390625 0 
L 45.40625 0 
L 45.40625 8.203125 
Q 42.578125 3.328125 38.25 0.953125 
Q 33.9375 -1.421875 27.875 -1.421875 
Q 17.96875 -1.421875 11.734375 6.484375 
Q 5.515625 14.40625 5.515625 27.296875 
Q 5.515625 40.1875 11.734375 48.09375 
Q 17.96875 56 27.875 56 
Q 33.9375 56 38.25 53.625 
Q 42.578125 51.265625 45.40625 46.390625 
z
M 14.796875 27.296875 
Q 14.796875 17.390625 18.875 11.75 
Q 22.953125 6.109375 30.078125 6.109375 
Q 37.203125 6.109375 41.296875 11.75 
Q 45.40625 17.390625 45.40625 27.296875 
Q 45.40625 37.203125 41.296875 42.84375 
Q 37.203125 48.484375 30.078125 48.484375 
Q 22.953125 48.484375 18.875 42.84375 
Q 14.796875 37.203125 14.796875 27.296875 
z
" id="DejaVuSans-100"/>
       <path d="M 9.421875 54.6875 
L 18.40625 54.6875 
L 18.40625 0 
L 9.421875 0 
z
M 9.421875 75.984375 
L 18.40625 75.984375 
L 18.40625 64.59375 
L 9.421875 64.59375 
z
" id="DejaVuSans-105"/>
       <path d="M 52 44.1875 
Q 55.375 50.25 60.0625 53.125 
Q 64.75 56 71.09375 56 
Q 79.640625 56 84.28125 50.015625 
Q 88.921875 44.046875 88.921875 33.015625 
L 88.921875 0 
L 79.890625 0 
L 79.890625 32.71875 
Q 79.890625 40.578125 77.09375 44.375 
Q 74.3125 48.1875 68.609375 48.1875 
Q 61.625 48.1875 57.5625 43.546875 
Q 53.515625 38.921875 53.515625 30.90625 
L 53.515625 0 
L 44.484375 0 
L 44.484375 32.71875 
Q 44.484375 40.625 41.703125 44.40625 
Q 38.921875 48.1875 33.109375 48.1875 
Q 26.21875 48.1875 22.15625 43.53125 
Q 18.109375 38.875 18.109375 30.90625 
L 18.109375 0 
L 9.078125 0 
L 9.078125 54.6875 
L 18.109375 54.6875 
L 18.109375 46.1875 
Q 21.1875 51.21875 25.484375 53.609375 
Q 29.78125 56 35.6875 56 
Q 41.65625 56 45.828125 52.96875 
Q 50 49.953125 52 44.1875 
z
" id="DejaVuSans-109"/>
       <path d="M 54.890625 33.015625 
L 54.890625 0 
L 45.90625 0 
L 45.90625 32.71875 
Q 45.90625 40.484375 42.875 44.328125 
Q 39.84375 48.1875 33.796875 48.1875 
Q 26.515625 48.1875 22.3125 43.546875 
Q 18.109375 38.921875 18.109375 30.90625 
L 18.109375 0 
L 9.078125 0 
L 9.078125 54.6875 
L 18.109375 54.6875 
L 18.109375 46.1875 
Q 21.34375 51.125 25.703125 53.5625 
Q 30.078125 56 35.796875 56 
Q 45.21875 56 50.046875 50.171875 
Q 54.890625 44.34375 54.890625 33.015625 
z
" id="DejaVuSans-110"/>
       <path d="M 8.015625 75.875 
L 15.828125 75.875 
Q 23.140625 64.359375 26.78125 53.3125 
Q 30.421875 42.28125 30.421875 31.390625 
Q 30.421875 20.453125 26.78125 9.375 
Q 23.140625 -1.703125 15.828125 -13.1875 
L 8.015625 -13.1875 
Q 14.5 -2 17.703125 9.0625 
Q 20.90625 20.125 20.90625 31.390625 
Q 20.90625 42.671875 17.703125 53.65625 
Q 14.5 64.65625 8.015625 75.875 
z
" id="DejaVuSans-41"/>
      </defs>
      <use xlink:href="#DejaVuSans-108"/>
      <use x="27.783203" xlink:href="#DejaVuSans-111"/>
      <use x="88.964844" xlink:href="#DejaVuSans-103"/>
      <use x="152.441406" xlink:href="#DejaVuSans-49"/>
      <use x="216.064453" xlink:href="#DejaVuSans-48"/>
      <use x="279.6875" xlink:href="#DejaVuSans-40"/>
      <use x="318.701172" xlink:href="#DejaVuSans-35"/>
      <use x="402.490234" xlink:href="#DejaVuSans-32"/>
      <use x="434.277344" xlink:href="#DejaVuSans-102"/>
      <use x="463.982422" xlink:href="#DejaVuSans-45"/>
      <use x="500.066406" xlink:href="#DejaVuSans-101"/>
      <use x="561.589844" xlink:href="#DejaVuSans-118"/>
      <use x="620.769531" xlink:href="#DejaVuSans-97"/>
      <use x="682.048828" xlink:href="#DejaVuSans-108"/>
      <use x="709.832031" xlink:href="#DejaVuSans-115"/>
      <use x="761.931641" xlink:href="#DejaVuSans-32"/>
      <use x="793.71875" xlink:href="#DejaVuSans-47"/>
      <use x="827.410156" xlink:href="#DejaVuSans-32"/>
      <use x="859.197266" xlink:href="#DejaVuSans-100"/>
      <use x="922.673828" xlink:href="#DejaVuSans-105"/>
      <use x="950.457031" xlink:href="#DejaVuSans-109"/>
      <use x="1047.869141" xlink:href="#DejaVuSans-101"/>
      <use x="1109.392578" xlink:href="#DejaVuSans-110"/>
      <use x="1172.771484" xlink:href="#DejaVuSans-115"/>
      <use x="1224.871094" xlink:href="#DejaVuSans-105"/>
      <use x="1252.654297" xlink:href="#DejaVuSans-111"/>
      <use x="1313.835938" xlink:href="#DejaVuSans-110"/>
      <use x="1377.214844" xlink:href="#DejaVuSans-41"/>
     </g>
    </g>
   </g>
   <g id="matplotlib.axis_2">
    <g id="ytick_1">
     <g id="line2d_17">
      <path clip-path="url(#pda7117f3c3)" d="M 57.6 298.944 
L 338.688 298.944 
" style="fill:none;stroke:#b0b0b0;stroke-linecap:square;stroke-width:0.8;"/>
     </g>
     <g id="line2d_18">
      <defs>
       <path d="M 0 0 
L -3.5 0 
" id="m45ddbd2cad" style="stroke:#000000;stroke-width:0.8;"/>
      </defs>
      <g>
       <use style="stroke:#000000;stroke-width:0.8;" x="57.6" xlink:href="#m45ddbd2cad" y="298.944"/>
      </g>
     </g>
     <g id="text_6">
      <!-- 0.0 -->
      <g transform="translate(25.155 305.02275)scale(0.16 -0.16)">
       <defs>
        <path d="M 10.6875 12.40625 
L 21 12.40625 
L 21 0 
L 10.6875 0 
z
" id="DejaVuSans-46"/>
       </defs>
       <use xlink:href="#DejaVuSans-48"/>
       <use x="63.623047" xlink:href="#DejaVuSans-46"/>
       <use x="95.410156" xlink:href="#DejaVuSans-48"/>
      </g>
     </g>
    </g>
    <g id="ytick_2">
     <g id="line2d_19">
      <path clip-path="url(#pda7117f3c3)" d="M 57.6 245.22202 
L 338.688 245.22202 
" style="fill:none;stroke:#b0b0b0;stroke-linecap:square;stroke-width:0.8;"/>
     </g>
     <g id="line2d_20">
      <g>
       <use style="stroke:#000000;stroke-width:0.8;" x="57.6" xlink:href="#m45ddbd2cad" y="245.22202"/>
      </g>
     </g>
     <g id="text_7">
      <!-- 0.2 -->
      <g transform="translate(25.155 251.30077)scale(0.16 -0.16)">
       <use xlink:href="#DejaVuSans-48"/>
       <use x="63.623047" xlink:href="#DejaVuSans-46"/>
       <use x="95.410156" xlink:href="#DejaVuSans-50"/>
      </g>
     </g>
    </g>
    <g id="ytick_3">
     <g id="line2d_21">
      <path clip-path="url(#pda7117f3c3)" d="M 57.6 191.50004 
L 338.688 191.50004 
" style="fill:none;stroke:#b0b0b0;stroke-linecap:square;stroke-width:0.8;"/>
     </g>
     <g id="line2d_22">
      <g>
       <use style="stroke:#000000;stroke-width:0.8;" x="57.6" xlink:href="#m45ddbd2cad" y="191.50004"/>
      </g>
     </g>
     <g id="text_8">
      <!-- 0.4 -->
      <g transform="translate(25.155 197.57879)scale(0.16 -0.16)">
       <use xlink:href="#DejaVuSans-48"/>
       <use x="63.623047" xlink:href="#DejaVuSans-46"/>
       <use x="95.410156" xlink:href="#DejaVuSans-52"/>
      </g>
     </g>
    </g>
    <g id="ytick_4">
     <g id="line2d_23">
      <path clip-path="url(#pda7117f3c3)" d="M 57.6 137.778059 
L 338.688 137.778059 
" style="fill:none;stroke:#b0b0b0;stroke-linecap:square;stroke-width:0.8;"/>
     </g>
     <g id="line2d_24">
      <g>
       <use style="stroke:#000000;stroke-width:0.8;" x="57.6" xlink:href="#m45ddbd2cad" y="137.778059"/>
      </g>
     </g>
     <g id="text_9">
      <!-- 0.6 -->
      <g transform="translate(25.155 143.856809)scale(0.16 -0.16)">
       <use xlink:href="#DejaVuSans-48"/>
       <use x="63.623047" xlink:href="#DejaVuSans-46"/>
       <use x="95.410156" xlink:href="#DejaVuSans-54"/>
      </g>
     </g>
    </g>
    <g id="ytick_5">
     <g id="line2d_25">
      <path clip-path="url(#pda7117f3c3)" d="M 57.6 84.056079 
L 338.688 84.056079 
" style="fill:none;stroke:#b0b0b0;stroke-linecap:square;stroke-width:0.8;"/>
     </g>
     <g id="line2d_26">
      <g>
       <use style="stroke:#000000;stroke-width:0.8;" x="57.6" xlink:href="#m45ddbd2cad" y="84.056079"/>
      </g>
     </g>
     <g id="text_10">
      <!-- 0.8 -->
      <g transform="translate(25.155 90.134829)scale(0.16 -0.16)">
       <defs>
        <path d="M 31.78125 34.625 
Q 24.75 34.625 20.71875 30.859375 
Q 16.703125 27.09375 16.703125 20.515625 
Q 16.703125 13.921875 20.71875 10.15625 
Q 24.75 6.390625 31.78125 6.390625 
Q 38.8125 6.390625 42.859375 10.171875 
Q 46.921875 13.96875 46.921875 20.515625 
Q 46.921875 27.09375 42.890625 30.859375 
Q 38.875 34.625 31.78125 34.625 
z
M 21.921875 38.8125 
Q 15.578125 40.375 12.03125 44.71875 
Q 8.5 49.078125 8.5 55.328125 
Q 8.5 64.0625 14.71875 69.140625 
Q 20.953125 74.21875 31.78125 74.21875 
Q 42.671875 74.21875 48.875 69.140625 
Q 55.078125 64.0625 55.078125 55.328125 
Q 55.078125 49.078125 51.53125 44.71875 
Q 48 40.375 41.703125 38.8125 
Q 48.828125 37.15625 52.796875 32.3125 
Q 56.78125 27.484375 56.78125 20.515625 
Q 56.78125 9.90625 50.3125 4.234375 
Q 43.84375 -1.421875 31.78125 -1.421875 
Q 19.734375 -1.421875 13.25 4.234375 
Q 6.78125 9.90625 6.78125 20.515625 
Q 6.78125 27.484375 10.78125 32.3125 
Q 14.796875 37.15625 21.921875 38.8125 
z
M 18.3125 54.390625 
Q 18.3125 48.734375 21.84375 45.5625 
Q 25.390625 42.390625 31.78125 42.390625 
Q 38.140625 42.390625 41.71875 45.5625 
Q 45.3125 48.734375 45.3125 54.390625 
Q 45.3125 60.0625 41.71875 63.234375 
Q 38.140625 66.40625 31.78125 66.40625 
Q 25.390625 66.40625 21.84375 63.234375 
Q 18.3125 60.0625 18.3125 54.390625 
z
" id="DejaVuSans-56"/>
       </defs>
       <use xlink:href="#DejaVuSans-48"/>
       <use x="63.623047" xlink:href="#DejaVuSans-46"/>
       <use x="95.410156" xlink:href="#DejaVuSans-56"/>
      </g>
     </g>
    </g>
    <g id="ytick_6">
     <g id="line2d_27">
      <path clip-path="url(#pda7117f3c3)" d="M 57.6 30.334099 
L 338.688 30.334099 
" style="fill:none;stroke:#b0b0b0;stroke-linecap:square;stroke-width:0.8;"/>
     </g>
     <g id="line2d_28">
      <g>
       <use style="stroke:#000000;stroke-width:0.8;" x="57.6" xlink:href="#m45ddbd2cad" y="30.334099"/>
      </g>
     </g>
     <g id="text_11">
      <!-- 1.0 -->
      <g transform="translate(25.155 36.412849)scale(0.16 -0.16)">
       <use xlink:href="#DejaVuSans-49"/>
       <use x="63.623047" xlink:href="#DejaVuSans-46"/>
       <use x="95.410156" xlink:href="#DejaVuSans-48"/>
      </g>
     </g>
    </g>
    <g id="text_12">
     <!-- Fraction of function,target pairs -->
     <g transform="translate(17.619531 297.681)rotate(-90)scale(0.17 -0.17)">
      <defs>
       <path d="M 9.8125 72.90625 
L 51.703125 72.90625 
L 51.703125 64.59375 
L 19.671875 64.59375 
L 19.671875 43.109375 
L 48.578125 43.109375 
L 48.578125 34.8125 
L 19.671875 34.8125 
L 19.671875 0 
L 9.8125 0 
z
" id="DejaVuSans-70"/>
       <path d="M 41.109375 46.296875 
Q 39.59375 47.171875 37.8125 47.578125 
Q 36.03125 48 33.890625 48 
Q 26.265625 48 22.1875 43.046875 
Q 18.109375 38.09375 18.109375 28.8125 
L 18.109375 0 
L 9.078125 0 
L 9.078125 54.6875 
L 18.109375 54.6875 
L 18.109375 46.1875 
Q 20.953125 51.171875 25.484375 53.578125 
Q 30.03125 56 36.53125 56 
Q 37.453125 56 38.578125 55.875 
Q 39.703125 55.765625 41.0625 55.515625 
z
" id="DejaVuSans-114"/>
       <path d="M 48.78125 52.59375 
L 48.78125 44.1875 
Q 44.96875 46.296875 41.140625 47.34375 
Q 37.3125 48.390625 33.40625 48.390625 
Q 24.65625 48.390625 19.8125 42.84375 
Q 14.984375 37.3125 14.984375 27.296875 
Q 14.984375 17.28125 19.8125 11.734375 
Q 24.65625 6.203125 33.40625 6.203125 
Q 37.3125 6.203125 41.140625 7.25 
Q 44.96875 8.296875 48.78125 10.40625 
L 48.78125 2.09375 
Q 45.015625 0.34375 40.984375 -0.53125 
Q 36.96875 -1.421875 32.421875 -1.421875 
Q 20.0625 -1.421875 12.78125 6.34375 
Q 5.515625 14.109375 5.515625 27.296875 
Q 5.515625 40.671875 12.859375 48.328125 
Q 20.21875 56 33.015625 56 
Q 37.15625 56 41.109375 55.140625 
Q 45.0625 54.296875 48.78125 52.59375 
z
" id="DejaVuSans-99"/>
       <path d="M 18.3125 70.21875 
L 18.3125 54.6875 
L 36.8125 54.6875 
L 36.8125 47.703125 
L 18.3125 47.703125 
L 18.3125 18.015625 
Q 18.3125 11.328125 20.140625 9.421875 
Q 21.96875 7.515625 27.59375 7.515625 
L 36.8125 7.515625 
L 36.8125 0 
L 27.59375 0 
Q 17.1875 0 13.234375 3.875 
Q 9.28125 7.765625 9.28125 18.015625 
L 9.28125 47.703125 
L 2.6875 47.703125 
L 2.6875 54.6875 
L 9.28125 54.6875 
L 9.28125 70.21875 
z
" id="DejaVuSans-116"/>
       <path d="M 8.5 21.578125 
L 8.5 54.6875 
L 17.484375 54.6875 
L 17.484375 21.921875 
Q 17.484375 14.15625 20.5 10.265625 
Q 23.53125 6.390625 29.59375 6.390625 
Q 36.859375 6.390625 41.078125 11.03125 
Q 45.3125 15.671875 45.3125 23.6875 
L 45.3125 54.6875 
L 54.296875 54.6875 
L 54.296875 0 
L 45.3125 0 
L 45.3125 8.40625 
Q 42.046875 3.421875 37.71875 1 
Q 33.40625 -1.421875 27.6875 -1.421875 
Q 18.265625 -1.421875 13.375 4.4375 
Q 8.5 10.296875 8.5 21.578125 
z
M 31.109375 56 
z
" id="DejaVuSans-117"/>
       <path d="M 11.71875 12.40625 
L 22.015625 12.40625 
L 22.015625 4 
L 14.015625 -11.625 
L 7.71875 -11.625 
L 11.71875 4 
z
" id="DejaVuSans-44"/>
       <path d="M 18.109375 8.203125 
L 18.109375 -20.796875 
L 9.078125 -20.796875 
L 9.078125 54.6875 
L 18.109375 54.6875 
L 18.109375 46.390625 
Q 20.953125 51.265625 25.265625 53.625 
Q 29.59375 56 35.59375 56 
Q 45.5625 56 51.78125 48.09375 
Q 58.015625 40.1875 58.015625 27.296875 
Q 58.015625 14.40625 51.78125 6.484375 
Q 45.5625 -1.421875 35.59375 -1.421875 
Q 29.59375 -1.421875 25.265625 0.953125 
Q 20.953125 3.328125 18.109375 8.203125 
z
M 48.6875 27.296875 
Q 48.6875 37.203125 44.609375 42.84375 
Q 40.53125 48.484375 33.40625 48.484375 
Q 26.265625 48.484375 22.1875 42.84375 
Q 18.109375 37.203125 18.109375 27.296875 
Q 18.109375 17.390625 22.1875 11.75 
Q 26.265625 6.109375 33.40625 6.109375 
Q 40.53125 6.109375 44.609375 11.75 
Q 48.6875 17.390625 48.6875 27.296875 
z
" id="DejaVuSans-112"/>
      </defs>
      <use xlink:href="#DejaVuSans-70"/>
      <use x="50.269531" xlink:href="#DejaVuSans-114"/>
      <use x="91.382812" xlink:href="#DejaVuSans-97"/>
      <use x="152.662109" xlink:href="#DejaVuSans-99"/>
      <use x="207.642578" xlink:href="#DejaVuSans-116"/>
      <use x="246.851562" xlink:href="#DejaVuSans-105"/>
      <use x="274.634766" xlink:href="#DejaVuSans-111"/>
      <use x="335.816406" xlink:href="#DejaVuSans-110"/>
      <use x="399.195312" xlink:href="#DejaVuSans-32"/>
      <use x="430.982422" xlink:href="#DejaVuSans-111"/>
      <use x="492.164062" xlink:href="#DejaVuSans-102"/>
      <use x="527.369141" xlink:href="#DejaVuSans-32"/>
      <use x="559.15625" xlink:href="#DejaVuSans-102"/>
      <use x="594.361328" xlink:href="#DejaVuSans-117"/>
      <use x="657.740234" xlink:href="#DejaVuSans-110"/>
      <use x="721.119141" xlink:href="#DejaVuSans-99"/>
      <use x="776.099609" xlink:href="#DejaVuSans-116"/>
      <use x="815.308594" xlink:href="#DejaVuSans-105"/>
      <use x="843.091797" xlink:href="#DejaVuSans-111"/>
      <use x="904.273438" xlink:href="#DejaVuSans-110"/>
      <use x="967.652344" xlink:href="#DejaVuSans-44"/>
      <use x="999.439453" xlink:href="#DejaVuSans-116"/>
      <use x="1038.648438" xlink:href="#DejaVuSans-97"/>
      <use x="1099.927734" xlink:href="#DejaVuSans-114"/>
      <use x="1139.291016" xlink:href="#DejaVuSans-103"/>
      <use x="1202.767578" xlink:href="#DejaVuSans-101"/>
      <use x="1264.291016" xlink:href="#DejaVuSans-116"/>
      <use x="1303.5" xlink:href="#DejaVuSans-32"/>
      <use x="1335.287109" xlink:href="#DejaVuSans-112"/>
      <use x="1398.763672" xlink:href="#DejaVuSans-97"/>
      <use x="1460.042969" xlink:href="#DejaVuSans-105"/>
      <use x="1487.826172" xlink:href="#DejaVuSans-114"/>
      <use x="1528.939453" xlink:href="#DejaVuSans-115"/>
     </g>
    </g>
   </g>
   <g id="line2d_29">
    <defs>
     <path d="M 0 1.5 
C 0.397805 1.5 0.77937 1.341951 1.06066 1.06066 
C 1.341951 0.77937 1.5 0.397805 1.5 0 
C 1.5 -0.397805 1.341951 -0.77937 1.06066 -1.06066 
C 0.77937 -1.341951 0.397805 -1.5 0 -1.5 
C -0.397805 -1.5 -0.77937 -1.341951 -1.06066 -1.06066 
C -1.341951 -0.77937 -1.5 -0.397805 -1.5 0 
C -1.5 0.397805 -1.341951 0.77937 -1.06066 1.06066 
C -0.77937 1.341951 -0.397805 1.5 0 1.5 
z
" id="m02d3a12e0b" style="stroke:#00bfbf;"/>
    </defs>
    <g>
     <use style="fill:#00bfbf;stroke:#00bfbf;" x="263.251113" xlink:href="#m02d3a12e0b" y="98.803289"/>
     <use style="fill:#00bfbf;stroke:#00bfbf;" x="263.251113" xlink:href="#m02d3a12e0b" y="98.803289"/>
    </g>
   </g>
   <g id="line2d_30">
    <path d="M 45.512012 298.944 
L 45.512012 289.463651 
L 57.6 289.463651 
L 57.6 286.83022 
L 64.67102 286.83022 
L 64.67102 284.19679 
L 69.687988 284.19679 
L 69.687988 283.670104 
L 73.579452 283.670104 
L 73.579452 280.509987 
L 76.759008 280.509987 
L 76.759008 279.456615 
L 90.242884 279.456615 
L 90.242884 276.823185 
L 93.863965 276.823185 
L 93.863965 276.296499 
L 94.921215 276.296499 
L 94.921215 275.769812 
L 99.41757 275.769812 
L 99.41757 275.243126 
L 105.951954 275.243126 
L 105.951954 274.71644 
L 107.514726 274.71644 
L 107.514726 274.189754 
L 108.948899 274.189754 
L 108.948899 272.08301 
L 109.401893 272.08301 
L 109.401893 271.556324 
L 112.655818 271.556324 
L 112.655818 271.029638 
L 113.73488 271.029638 
L 113.73488 270.502952 
L 115.397021 270.502952 
L 115.397021 268.922893 
L 118.310324 268.922893 
L 118.310324 267.342835 
L 118.576578 267.342835 
L 118.576578 266.289463 
L 120.8059 266.289463 
L 120.8059 265.762777 
L 121.036887 265.762777 
L 121.036887 265.236091 
L 121.489881 265.236091 
L 121.489881 264.709405 
L 122.988655 264.709405 
L 122.988655 263.656033 
L 124.92835 263.656033 
L 124.92835 263.129347 
L 126.338353 263.129347 
L 126.338353 262.60266 
L 132.30267 262.60266 
L 132.30267 262.075974 
L 133.009765 262.075974 
L 133.009765 261.549288 
L 134.766144 261.549288 
L 134.766144 260.495916 
L 134.973757 260.495916 
L 134.973757 259.442544 
L 139.253002 259.442544 
L 139.253002 258.915858 
L 140.042245 258.915858 
L 140.042245 258.389172 
L 140.499195 258.389172 
L 140.499195 255.755741 
L 141.662245 255.755741 
L 141.662245 255.229055 
L 142.619936 255.229055 
L 142.619936 254.702369 
L 148.592055 254.702369 
L 148.592055 254.175683 
L 149.467659 254.175683 
L 149.467659 253.122311 
L 151.975216 253.122311 
L 151.975216 252.595625 
L 153.250915 252.595625 
L 153.250915 252.068939 
L 154.607795 252.068939 
L 154.607795 251.542253 
L 158.625992 251.542253 
L 158.625992 251.015567 
L 190.189118 251.015567 
L 190.297558 248.382136 
L 190.323484 248.382136 
L 190.340746 245.748706 
L 190.499618 245.748706 
L 190.512436 244.695334 
L 190.614645 244.695334 
L 190.657055 243.641962 
L 190.821479 243.641962 
L 190.930239 240.481845 
L 191.092119 240.481845 
L 191.158099 236.268356 
L 191.22383 236.268356 
L 191.330117 235.214984 
L 191.370825 235.214984 
L 191.370825 234.688298 
L 192.025224 234.688298 
L 192.115067 233.10824 
L 202.372569 233.10824 
L 202.372569 232.581554 
L 202.589743 232.581554 
L 202.628165 229.421437 
L 202.728092 229.421437 
L 202.795801 225.734635 
L 202.850622 225.734635 
L 202.871661 224.154577 
L 203.213128 224.154577 
L 203.213128 223.627891 
L 203.362999 223.627891 
L 203.362999 222.574518 
L 203.636808 222.574518 
L 203.636808 222.047832 
L 209.375662 222.047832 
L 209.483931 219.941088 
L 209.564336 219.941088 
L 209.668597 214.147541 
L 209.889332 214.147541 
L 209.889332 213.620855 
L 210.075342 213.620855 
L 210.075342 213.094169 
L 210.262141 213.094169 
L 210.262141 212.567483 
L 214.602779 212.567483 
L 214.602779 210.987425 
L 214.769377 210.987425 
L 214.857372 208.353994 
L 218.254817 208.353994 
L 218.254817 207.827308 
L 218.374509 207.827308 
L 218.444381 203.613819 
L 218.561928 203.613819 
L 218.65829 202.033761 
L 221.425234 202.033761 
L 221.425234 201.507075 
L 221.538068 201.507075 
L 221.590618 198.346959 
L 221.74519 198.346959 
L 221.769396 197.293586 
L 221.892753 197.293586 
L 221.892753 196.7669 
L 224.216145 196.7669 
L 224.255056 191.50004 
L 224.351036 191.50004 
L 224.432449 189.393295 
L 226.467219 189.393295 
L 226.565847 186.233179 
L 226.588528 186.233179 
L 226.694523 184.653121 
L 228.574688 184.653121 
L 228.671698 179.38626 
L 228.72048 179.38626 
L 228.808609 177.279515 
L 230.364116 177.279515 
L 230.432218 172.012655 
L 230.491429 172.012655 
L 230.556888 169.90591 
L 232.0604 169.90591 
L 232.170076 163.585677 
L 233.572262 163.585677 
L 233.672856 160.952247 
L 233.69908 160.952247 
L 233.747474 159.898875 
L 234.96278 159.898875 
L 235.067637 155.685386 
L 236.271332 155.685386 
L 236.284336 152.52527 
L 236.402172 152.52527 
L 236.402172 151.998584 
L 237.432383 151.998584 
L 237.509298 148.311781 
L 238.56906 148.311781 
L 238.655727 145.151665 
L 239.611626 145.151665 
L 239.708288 141.464862 
L 240.6229 141.464862 
L 240.695634 138.831432 
L 241.548548 138.831432 
L 241.609321 135.144629 
L 242.456232 135.144629 
L 242.561719 131.457826 
L 243.291686 131.457826 
L 243.350609 128.824396 
L 244.11464 128.824396 
L 244.210976 125.137593 
L 244.941435 125.137593 
L 244.941435 124.610907 
L 245.627858 124.610907 
L 245.717649 122.504163 
L 246.340003 122.504163 
L 246.40145 119.344047 
L 247.033732 119.344047 
L 247.033732 118.817361 
L 247.669688 118.817361 
L 247.687885 116.710616 
L 248.313573 116.710616 
L 248.323353 115.657244 
L 248.934078 115.657244 
L 248.977332 114.077186 
L 249.50544 114.077186 
L 249.530221 112.497128 
L 250.094885 112.497128 
L 250.094885 111.970441 
L 251.172551 111.970441 
L 251.183223 109.863697 
L 252.199538 109.863697 
L 252.199538 109.337011 
L 252.716921 109.337011 
L 252.716921 108.283639 
L 253.16775 108.283639 
L 253.16775 107.756953 
L 253.631157 107.756953 
L 253.668092 105.123522 
L 254.0848 105.123522 
L 254.0848 104.596836 
L 254.530963 104.596836 
L 254.530963 104.07015 
L 254.988037 104.07015 
L 254.988037 103.543464 
L 255.375636 103.543464 
L 255.375636 103.016778 
L 257.33459 103.016778 
L 257.33459 102.490092 
L 258.758525 102.490092 
L 258.762704 101.43672 
L 259.102326 101.43672 
L 259.102326 100.910034 
L 259.45375 100.910034 
L 259.45375 100.383348 
L 260.387658 100.383348 
L 260.387658 99.856662 
L 262.16548 99.856662 
L 262.16548 99.329976 
L 263.251113 99.329976 
L 263.251113 98.803289 
L 338.688 98.803289 
L 338.688 98.803289 
" style="fill:none;stroke:#00bfbf;stroke-linecap:square;stroke-width:1.5;"/>
   </g>
   <g id="line2d_31">
    <defs>
     <path d="M -6 0 
L 6 0 
M 0 6 
L 0 -6 
" id="m1a64dd91e2" style="stroke:#00bfbf;stroke-width:1.5;"/>
    </defs>
    <g>
     <use style="fill-opacity:0;stroke:#00bfbf;stroke-width:1.5;" x="158.625992" xlink:href="#m1a64dd91e2" y="251.015567"/>
     <use style="fill-opacity:0;stroke:#00bfbf;stroke-width:1.5;" x="224.216145" xlink:href="#m1a64dd91e2" y="196.7669"/>
     <use style="fill-opacity:0;stroke:#00bfbf;stroke-width:1.5;" x="242.456232" xlink:href="#m1a64dd91e2" y="135.144629"/>
     <use style="fill-opacity:0;stroke:#00bfbf;stroke-width:1.5;" x="263.251113" xlink:href="#m1a64dd91e2" y="98.803289"/>
     <use style="fill-opacity:0;stroke:#00bfbf;stroke-width:1.5;" x="263.251113" xlink:href="#m1a64dd91e2" y="98.803289"/>
     <use style="fill-opacity:0;stroke:#00bfbf;stroke-width:1.5;" x="338.688" xlink:href="#m1a64dd91e2" y="98.803289"/>
    </g>
   </g>
   <g id="line2d_32">
    <path style="fill:none;stroke:#00bfbf;stroke-linecap:square;stroke-width:1.5;"/>
    <g/>
   </g>
   <g id="line2d_33">
    <path clip-path="url(#pda7117f3c3)" d="M 190.17606 251.015567 
" style="fill:none;stroke:#00bfbf;stroke-linecap:square;stroke-width:1.5;"/>
    <defs>
     <path d="M -12 12 
L 12 -12 
M -12 -12 
L 12 12 
" id="m55f84af2c8" style="stroke:#00bfbf;"/>
    </defs>
    <g clip-path="url(#pda7117f3c3)">
     <use style="fill:#00bfbf;stroke:#00bfbf;" x="190.17606" xlink:href="#m55f84af2c8" y="251.015567"/>
    </g>
   </g>
   <g id="line2d_34">
    <defs>
     <path d="M 0 1.5 
C 0.397805 1.5 0.77937 1.341951 1.06066 1.06066 
C 1.341951 0.77937 1.5 0.397805 1.5 0 
C 1.5 -0.397805 1.341951 -0.77937 1.06066 -1.06066 
C 0.77937 -1.341951 0.397805 -1.5 0 -1.5 
C -0.397805 -1.5 -0.77937 -1.341951 -1.06066 -1.06066 
C -1.341951 -0.77937 -1.5 -0.397805 -1.5 0 
C -1.5 0.397805 -1.341951 0.77937 -1.06066 1.06066 
C -0.77937 1.341951 -0.397805 1.5 0 1.5 
z
" id="m44b3d94da2" style="stroke:#008000;"/>
    </defs>
    <g>
     <use style="fill:#008000;stroke:#008000;" x="271.577034" xlink:href="#m44b3d94da2" y="156.738758"/>
     <use style="fill:#008000;stroke:#008000;" x="271.577034" xlink:href="#m44b3d94da2" y="156.738758"/>
    </g>
   </g>
   <g id="line2d_35">
    <path d="M 38.440992 298.944 
L 38.440992 290.517023 
L 50.52898 290.517023 
L 50.52898 288.936964 
L 62.616969 288.936964 
L 62.616969 283.670104 
L 66.508432 283.670104 
L 66.508432 282.616732 
L 80.258561 282.616732 
L 80.258561 282.090045 
L 81.775977 282.090045 
L 81.775977 281.036673 
L 84.464254 281.036673 
L 84.464254 279.456615 
L 87.850195 279.456615 
L 87.850195 278.929929 
L 93.121756 278.929929 
L 93.121756 278.403243 
L 94.575872 278.403243 
L 94.575872 277.876557 
L 95.918017 277.876557 
L 95.918017 276.823185 
L 99.41757 276.823185 
L 99.41757 276.296499 
L 106.311539 276.296499 
L 106.311539 275.769812 
L 107.347841 275.769812 
L 107.347841 275.243126 
L 107.680028 275.243126 
L 107.680028 274.71644 
L 110.131676 274.71644 
L 110.131676 274.189754 
L 110.968922 274.189754 
L 110.968922 273.663068 
L 113.022974 273.663068 
L 113.022974 272.609696 
L 113.26352 272.609696 
L 113.26352 272.08301 
L 115.077025 272.08301 
L 115.077025 271.029638 
L 118.220662 271.029638 
L 118.220662 270.502952 
L 118.751849 270.502952 
L 118.751849 269.976266 
L 119.097192 269.976266 
L 119.097192 269.449579 
L 119.602714 269.449579 
L 119.602714 268.922893 
L 119.931767 268.922893 
L 119.931767 268.396207 
L 120.41399 268.396207 
L 120.41399 267.869521 
L 120.571812 267.869521 
L 120.571812 267.342835 
L 120.728219 267.342835 
L 120.728219 266.289463 
L 121.340187 266.289463 
L 121.340187 265.762777 
L 123.460928 265.762777 
L 123.460928 265.236091 
L 123.593547 265.236091 
L 123.593547 264.709405 
L 124.241922 264.709405 
L 124.241922 264.182719 
L 124.619683 264.182719 
L 124.619683 263.129347 
L 125.588781 263.129347 
L 125.588781 262.60266 
L 126.053856 262.60266 
L 126.053856 262.075974 
L 126.281824 262.075974 
L 126.281824 261.549288 
L 126.729009 261.549288 
L 126.729009 261.022602 
L 127.378995 261.022602 
L 127.378995 260.495916 
L 127.902737 260.495916 
L 127.902737 259.442544 
L 128.709321 259.442544 
L 128.807571 257.862486 
L 130.127931 257.862486 
L 130.127931 257.3358 
L 132.342714 257.3358 
L 132.342714 256.809114 
L 133.124876 256.809114 
L 133.124876 255.755741 
L 133.57787 255.755741 
L 133.57787 255.229055 
L 133.800029 255.229055 
L 133.800029 254.702369 
L 134.520763 254.702369 
L 134.520763 254.175683 
L 136.393441 254.175683 
L 136.393441 252.595625 
L 136.769843 252.595625 
L 136.769843 252.068939 
L 137.138292 252.068939 
L 137.198951 251.015567 
L 138.761723 251.015567 
L 138.761723 250.488881 
L 140.042245 250.488881 
L 140.042245 249.962195 
L 140.195896 249.962195 
L 140.297583 248.382136 
L 140.549236 248.382136 
L 140.549236 247.85545 
L 140.747977 247.85545 
L 140.846504 246.802078 
L 142.306513 246.802078 
L 142.306513 246.275392 
L 143.058132 246.275392 
L 143.058132 245.22202 
L 143.902815 245.22202 
L 143.902815 243.641962 
L 144.189046 243.641962 
L 144.189046 243.115275 
L 144.350522 243.115275 
L 144.350522 242.588589 
L 144.787023 242.588589 
L 144.787023 242.061903 
L 145.998045 242.061903 
L 145.998045 241.535217 
L 147.061745 241.535217 
L 147.061745 241.008531 
L 150.172372 241.008531 
L 150.172372 240.481845 
L 151.340991 240.481845 
L 151.340991 239.955159 
L 197.229169 239.955159 
L 197.321911 238.901787 
L 197.350792 238.901787 
L 197.450544 235.74167 
L 197.496391 235.74167 
L 197.55163 233.10824 
L 197.635108 233.10824 
L 197.663476 231.001496 
L 197.752062 231.001496 
L 197.85329 228.368065 
L 197.877573 228.368065 
L 197.983643 225.734635 
L 197.991063 225.734635 
L 198.028112 224.154577 
L 198.363511 224.154577 
L 198.439586 221.521146 
L 209.316189 221.521146 
L 209.385795 219.941088 
L 209.432046 219.941088 
L 209.48585 217.834344 
L 209.57961 217.834344 
L 209.655776 214.147541 
L 209.720258 214.147541 
L 209.726882 212.567483 
L 209.892613 212.567483 
L 209.892613 212.040797 
L 216.386886 212.040797 
L 216.458423 209.934052 
L 216.527747 209.934052 
L 216.564862 207.827308 
L 216.644586 207.827308 
L 216.710639 206.24725 
L 221.403693 206.24725 
L 221.513297 202.033761 
L 221.535905 202.033761 
L 221.612169 199.927017 
L 225.322936 199.927017 
L 225.426695 195.186842 
L 225.448602 195.186842 
L 225.466261 193.606784 
L 228.495851 193.606784 
L 228.60388 189.919981 
L 231.168594 189.919981 
L 231.279194 186.233179 
L 233.508868 186.233179 
L 233.593342 183.599748 
L 235.605637 183.599748 
L 235.640784 180.439632 
L 237.406088 180.439632 
L 237.464424 178.859574 
L 239.074543 178.859574 
L 239.120375 174.119399 
L 240.63038 174.119399 
L 240.63038 173.592713 
L 241.976129 173.592713 
L 242.018063 171.485969 
L 243.260594 171.485969 
L 243.309901 169.90591 
L 244.483105 169.90591 
L 244.505656 168.325852 
L 245.630333 168.325852 
L 245.630333 167.799166 
L 246.684578 167.799166 
L 246.685374 166.745794 
L 250.358656 166.745794 
L 250.360497 165.165736 
L 251.168245 165.165736 
L 251.170003 164.112363 
L 252.68432 164.112363 
L 252.68432 163.585677 
L 254.076098 163.585677 
L 254.078107 162.532305 
L 254.734585 162.532305 
L 254.734585 162.005619 
L 256.568966 162.005619 
L 256.568966 160.952247 
L 257.692767 160.952247 
L 257.692767 160.425561 
L 259.742901 160.425561 
L 259.742901 159.898875 
L 262.009236 159.898875 
L 262.009236 159.372189 
L 263.239395 159.372189 
L 263.239395 158.845503 
L 268.349782 158.845503 
L 268.349782 158.318817 
L 268.642666 158.318817 
L 268.643537 157.265444 
L 271.577034 157.265444 
L 271.577034 156.738758 
L 338.688 156.738758 
L 338.688 156.738758 
" style="fill:none;stroke:#008000;stroke-linecap:square;stroke-width:1.5;"/>
   </g>
   <g id="line2d_36">
    <defs>
     <path d="M -0 6 
L 6 -6 
L -6 -6 
z
" id="m8313ccff0b" style="stroke:#008000;stroke-linejoin:miter;stroke-width:1.5;"/>
    </defs>
    <g>
     <use style="fill-opacity:0;stroke:#008000;stroke-linejoin:miter;stroke-width:1.5;" x="120.728219" xlink:href="#m8313ccff0b" y="266.289463"/>
     <use style="fill-opacity:0;stroke:#008000;stroke-linejoin:miter;stroke-width:1.5;" x="151.340991" xlink:href="#m8313ccff0b" y="239.955159"/>
     <use style="fill-opacity:0;stroke:#008000;stroke-linejoin:miter;stroke-width:1.5;" x="239.11564" xlink:href="#m8313ccff0b" y="176.752829"/>
     <use style="fill-opacity:0;stroke:#008000;stroke-linejoin:miter;stroke-width:1.5;" x="271.577034" xlink:href="#m8313ccff0b" y="156.738758"/>
     <use style="fill-opacity:0;stroke:#008000;stroke-linejoin:miter;stroke-width:1.5;" x="271.577034" xlink:href="#m8313ccff0b" y="156.738758"/>
     <use style="fill-opacity:0;stroke:#008000;stroke-linejoin:miter;stroke-width:1.5;" x="338.688" xlink:href="#m8313ccff0b" y="156.738758"/>
    </g>
   </g>
   <g id="line2d_37">
    <path style="fill:none;stroke:#008000;stroke-linecap:square;stroke-width:1.5;"/>
    <g/>
   </g>
   <g id="line2d_38">
    <path clip-path="url(#pda7117f3c3)" d="M 197.227232 239.955159 
" style="fill:none;stroke:#008000;stroke-linecap:square;stroke-width:1.5;"/>
    <defs>
     <path d="M -12 12 
L 12 -12 
M -12 -12 
L 12 12 
" id="m3ed6ce9a45" style="stroke:#008000;"/>
    </defs>
    <g clip-path="url(#pda7117f3c3)">
     <use style="fill:#008000;stroke:#008000;" x="197.227232" xlink:href="#m3ed6ce9a45" y="239.955159"/>
    </g>
   </g>
   <g id="line2d_39">
    <defs>
     <path d="M 0 1.5 
C 0.397805 1.5 0.77937 1.341951 1.06066 1.06066 
C 1.341951 0.77937 1.5 0.397805 1.5 0 
C 1.5 -0.397805 1.341951 -0.77937 1.06066 -1.06066 
C 0.77937 -1.341951 0.397805 -1.5 0 -1.5 
C -0.397805 -1.5 -0.77937 -1.341951 -1.06066 -1.06066 
C -1.341951 -0.77937 -1.5 -0.397805 -1.5 0 
C -1.5 0.397805 -1.341951 0.77937 -1.06066 1.06066 
C -0.77937 1.341951 -0.397805 1.5 0 1.5 
z
" id="mc096029a04" style="stroke:#0000ff;"/>
    </defs>
    <g>
     <use style="fill:#0000ff;stroke:#0000ff;" x="280.476995" xlink:href="#mc096029a04" y="209.407366"/>
     <use style="fill:#0000ff;stroke:#0000ff;" x="280.476995" xlink:href="#mc096029a04" y="209.407366"/>
    </g>
   </g>
   <g id="line2d_40">
    <path d="M 29.53256 298.944 
L 29.53256 295.257197 
L 41.620548 295.257197 
L 41.620548 292.623767 
L 53.708537 292.623767 
L 53.708537 292.097081 
L 57.6 292.097081 
L 57.6 291.570395 
L 60.779557 291.570395 
L 60.779557 289.990337 
L 67.850577 289.990337 
L 67.850577 289.463651 
L 71.35013 289.463651 
L 71.35013 288.410278 
L 78.941764 288.410278 
L 78.941764 287.883592 
L 79.938565 287.883592 
L 79.938565 286.83022 
L 80.881459 286.83022 
L 80.881459 286.303534 
L 81.775977 286.303534 
L 81.775977 285.250162 
L 83.438118 285.250162 
L 83.438118 284.723476 
L 84.213325 284.723476 
L 84.213325 283.670104 
L 85.66744 283.670104 
L 85.66744 282.616732 
L 88.255778 282.616732 
L 88.255778 281.563359 
L 89.972502 281.563359 
L 89.972502 279.983301 
L 90.509138 279.983301 
L 90.509138 279.456615 
L 92.969447 279.456615 
L 92.969447 278.929929 
L 93.422441 278.929929 
L 93.422441 277.876557 
L 93.863965 277.876557 
L 93.863965 277.349871 
L 96.676366 277.349871 
L 96.676366 276.823185 
L 97.043522 276.823185 
L 97.043522 276.296499 
L 97.755429 276.296499 
L 97.755429 275.769812 
L 98.100772 275.769812 
L 98.100772 275.243126 
L 98.43941 275.243126 
L 98.43941 274.71644 
L 99.097574 274.71644 
L 99.097574 274.189754 
L 99.41757 274.189754 
L 99.41757 273.663068 
L 102.597126 273.663068 
L 102.597126 273.136382 
L 103.870632 273.136382 
L 103.870632 271.556324 
L 106.802819 271.556324 
L 106.802819 269.976266 
L 108.006005 269.976266 
L 108.006005 268.922893 
L 108.198707 268.922893 
L 108.198707 268.396207 
L 114.0117 268.396207 
L 114.0117 267.869521 
L 115.711251 267.869521 
L 115.711251 267.342835 
L 121.667835 267.342835 
L 121.667835 266.289463 
L 122.44689 266.289463 
L 122.44689 265.762777 
L 122.615387 265.762777 
L 122.615387 264.709405 
L 124.444412 264.709405 
L 124.444412 264.182719 
L 124.743806 264.182719 
L 124.743806 263.129347 
L 125.399222 263.129347 
L 125.399222 262.60266 
L 127.229484 262.60266 
L 127.229484 262.075974 
L 127.357715 262.075974 
L 127.357715 261.549288 
L 127.799239 261.549288 
L 127.799239 261.022602 
L 129.574256 261.022602 
L 129.574256 260.495916 
L 129.908566 260.495916 
L 130.018593 259.442544 
L 131.389151 259.442544 
L 131.389151 258.915858 
L 131.839545 258.915858 
L 131.839545 257.862486 
L 133.488207 257.862486 
L 133.488207 257.3358 
L 134.450015 257.3358 
L 134.450015 256.809114 
L 135.760625 256.809114 
L 135.760625 256.282427 
L 136.5324 256.282427 
L 136.5324 255.755741 
L 137.37967 255.755741 
L 137.37967 255.229055 
L 140.134598 255.229055 
L 140.134598 254.702369 
L 140.738093 254.702369 
L 140.738093 254.175683 
L 140.856326 254.175683 
L 140.856326 253.648997 
L 142.459451 253.648997 
L 142.459451 253.122311 
L 206.19848 253.122311 
L 206.298962 248.908822 
L 206.330029 248.908822 
L 206.38031 243.641962 
L 206.487958 243.641962 
L 206.582713 242.061903 
L 206.722875 242.061903 
L 206.722875 241.008531 
L 218.296195 241.008531 
L 218.367938 237.321729 
L 218.519805 237.321729 
L 218.519805 236.795043 
L 225.368141 236.795043 
L 225.474777 233.634926 
L 230.348027 233.634926 
L 230.396161 230.47481 
L 234.252432 230.47481 
L 234.252432 229.421437 
L 237.419511 229.421437 
L 237.482041 227.314693 
L 240.127597 227.314693 
L 240.127597 226.788007 
L 242.430533 226.788007 
L 242.430533 226.261321 
L 244.478308 226.261321 
L 244.478308 225.734635 
L 246.315851 225.734635 
L 246.326783 224.154577 
L 247.973413 224.154577 
L 247.975757 222.574518 
L 249.49131 222.574518 
L 249.49131 220.99446 
L 252.176659 220.99446 
L 252.188351 219.941088 
L 253.371936 219.941088 
L 253.378673 218.887716 
L 254.501542 218.887716 
L 254.501542 218.36103 
L 257.497671 218.36103 
L 257.497671 217.834344 
L 260.052564 217.834344 
L 260.060008 216.780971 
L 261.575872 216.780971 
L 261.575872 216.254285 
L 262.963155 216.254285 
L 262.964147 214.674227 
L 264.25586 214.674227 
L 264.25586 213.620855 
L 264.873173 213.620855 
L 264.873173 213.094169 
L 266.583453 213.094169 
L 266.583453 212.567483 
L 267.119074 212.567483 
L 267.119074 212.040797 
L 268.150246 212.040797 
L 268.150246 211.514111 
L 270.036212 211.514111 
L 270.036212 210.987425 
L 271.734169 210.987425 
L 271.734169 210.460738 
L 277.833225 210.460738 
L 277.833225 209.934052 
L 280.476995 209.934052 
L 280.476995 209.407366 
L 338.688 209.407366 
L 338.688 209.407366 
" style="fill:none;stroke:#0000ff;stroke-linecap:square;stroke-width:1.5;"/>
   </g>
   <g id="line2d_41">
    <defs>
     <path d="M 0 -6 
L -1.347084 -1.854102 
L -5.706339 -1.854102 
L -2.179628 0.708204 
L -3.526712 4.854102 
L -0 2.291796 
L 3.526712 4.854102 
L 2.179628 0.708204 
L 5.706339 -1.854102 
L 1.347084 -1.854102 
z
" id="m3e04bfb593" style="stroke:#0000ff;stroke-linejoin:bevel;stroke-width:1.5;"/>
    </defs>
    <g>
     <use style="fill-opacity:0;stroke:#0000ff;stroke-linejoin:bevel;stroke-width:1.5;" x="127.229484" xlink:href="#m3e04bfb593" y="262.075974"/>
     <use style="fill-opacity:0;stroke:#0000ff;stroke-linejoin:bevel;stroke-width:1.5;" x="218.296195" xlink:href="#m3e04bfb593" y="240.481845"/>
     <use style="fill-opacity:0;stroke:#0000ff;stroke-linejoin:bevel;stroke-width:1.5;" x="277.833225" xlink:href="#m3e04bfb593" y="210.460738"/>
     <use style="fill-opacity:0;stroke:#0000ff;stroke-linejoin:bevel;stroke-width:1.5;" x="280.476995" xlink:href="#m3e04bfb593" y="209.407366"/>
     <use style="fill-opacity:0;stroke:#0000ff;stroke-linejoin:bevel;stroke-width:1.5;" x="338.688" xlink:href="#m3e04bfb593" y="209.407366"/>
    </g>
   </g>
   <g id="line2d_42">
    <path style="fill:none;stroke:#0000ff;stroke-linecap:square;stroke-width:1.5;"/>
    <g/>
   </g>
   <g id="line2d_43">
    <path clip-path="url(#pda7117f3c3)" d="M 206.135818 253.122311 
" style="fill:none;stroke:#0000ff;stroke-linecap:square;stroke-width:1.5;"/>
    <defs>
     <path d="M -12 12 
L 12 -12 
M -12 -12 
L 12 12 
" id="mc731701d32" style="stroke:#0000ff;"/>
    </defs>
    <g clip-path="url(#pda7117f3c3)">
     <use style="fill:#0000ff;stroke:#0000ff;" x="206.135818" xlink:href="#mc731701d32" y="253.122311"/>
    </g>
   </g>
   <g id="line2d_44">
    <defs>
     <path d="M 0 1.5 
C 0.397805 1.5 0.77937 1.341951 1.06066 1.06066 
C 1.341951 0.77937 1.5 0.397805 1.5 0 
C 1.5 -0.397805 1.341951 -0.77937 1.06066 -1.06066 
C 0.77937 -1.341951 0.397805 -1.5 0 -1.5 
C -0.397805 -1.5 -0.77937 -1.341951 -1.06066 -1.06066 
C -1.341951 -0.77937 -1.5 -0.397805 -1.5 0 
C -1.5 0.397805 -1.341951 0.77937 -1.06066 1.06066 
C -0.77937 1.341951 -0.397805 1.5 0 1.5 
z
" id="ma2c8d03827" style="stroke:#000000;"/>
    </defs>
    <g>
     <use style="stroke:#000000;" x="286.448681" xlink:href="#ma2c8d03827" y="241.008531"/>
     <use style="stroke:#000000;" x="286.448681" xlink:href="#ma2c8d03827" y="241.008531"/>
    </g>
   </g>
   <g id="line2d_45">
    <path d="M 17.444571 298.944 
L 17.444571 294.203825 
L 29.53256 294.203825 
L 29.53256 290.517023 
L 36.60358 290.517023 
L 36.60358 289.990337 
L 41.620548 289.990337 
L 41.620548 288.936964 
L 45.512012 288.936964 
L 45.512012 286.83022 
L 57.6 286.83022 
L 57.6 286.303534 
L 72.125336 286.303534 
L 72.125336 285.776848 
L 72.867545 285.776848 
L 72.867545 285.250162 
L 74.921597 285.250162 
L 74.921597 284.723476 
L 78.941764 284.723476 
L 78.941764 284.19679 
L 82.206598 284.19679 
L 82.206598 283.670104 
L 82.626842 283.670104 
L 82.626842 283.143418 
L 84.213325 283.143418 
L 84.213325 282.616732 
L 87.952479 282.616732 
L 87.952479 282.090045 
L 88.846997 282.090045 
L 88.846997 281.036673 
L 93.422441 281.036673 
L 93.422441 280.509987 
L 93.644601 280.509987 
L 93.644601 279.983301 
L 93.863965 279.983301 
L 93.863965 279.456615 
L 94.294587 279.456615 
L 94.294587 278.929929 
L 95.526106 278.929929 
L 95.526106 278.403243 
L 97.928955 278.403243 
L 97.928955 277.876557 
L 99.575392 277.876557 
L 99.575392 277.349871 
L 100.641881 277.349871 
L 100.641881 276.823185 
L 101.923711 276.823185 
L 101.923711 276.296499 
L 104.114542 276.296499 
L 104.114542 275.769812 
L 105.398279 275.769812 
L 105.398279 275.243126 
L 112.128456 275.243126 
L 112.128456 274.189754 
L 113.73488 274.189754 
L 113.73488 273.136382 
L 114.284194 273.136382 
L 114.284194 272.609696 
L 114.418861 272.609696 
L 114.418861 272.08301 
L 114.751048 272.08301 
L 114.751048 271.556324 
L 115.773423 271.556324 
L 115.773423 271.029638 
L 116.680349 271.029638 
L 116.680349 270.502952 
L 120.8059 270.502952 
L 120.8059 269.976266 
L 121.310093 269.976266 
L 121.310093 269.449579 
L 122.018385 269.449579 
L 122.104932 268.396207 
L 122.782271 268.396207 
L 122.782271 267.869521 
L 123.553867 267.869521 
L 123.553867 267.342835 
L 124.062793 267.342835 
L 124.062793 266.289463 
L 124.330801 266.289463 
L 124.330801 265.762777 
L 125.219619 265.762777 
L 125.219619 265.236091 
L 128.590686 265.236091 
L 128.590686 264.709405 
L 129.031467 264.709405 
L 129.031467 264.182719 
L 131.765283 264.182719 
L 131.765283 263.656033 
L 135.035562 263.656033 
L 135.035562 263.129347 
L 135.839358 263.129347 
L 135.839358 262.60266 
L 136.5324 262.60266 
L 136.5324 262.075974 
L 138.510793 262.075974 
L 138.510793 261.549288 
L 139.172077 261.549288 
L 139.172077 261.022602 
L 142.297475 261.022602 
L 142.297475 260.495916 
L 145.097753 260.495916 
L 145.097753 259.96923 
L 218.237403 259.96923 
L 218.326557 257.862486 
L 218.369322 257.862486 
L 218.40439 256.282427 
L 218.483423 256.282427 
L 218.483423 255.755741 
L 230.329921 255.755741 
L 230.390434 253.122311 
L 237.396818 253.122311 
L 237.442059 252.068939 
L 242.444844 252.068939 
L 242.463748 251.015567 
L 246.319055 251.015567 
L 246.326957 248.382136 
L 249.486984 248.382136 
L 249.500277 247.328764 
L 252.172701 247.328764 
L 252.172701 246.802078 
L 254.509446 246.802078 
L 254.509446 246.275392 
L 256.552031 246.275392 
L 256.552031 245.748706 
L 258.388248 245.748706 
L 258.388248 245.22202 
L 264.258711 245.22202 
L 264.258711 244.695334 
L 269.576624 244.695334 
L 269.576624 244.168648 
L 271.321468 244.168648 
L 271.321468 243.641962 
L 272.907505 243.641962 
L 272.907505 242.588589 
L 280.230133 242.588589 
L 280.230133 242.061903 
L 280.719046 242.061903 
L 280.719046 241.535217 
L 286.448681 241.535217 
L 286.448681 241.008531 
L 338.688 241.008531 
L 338.688 241.008531 
" style="fill:none;stroke:#000000;stroke-linecap:square;stroke-width:1.5;"/>
   </g>
   <g id="line2d_46">
    <defs>
     <path d="M 0 6 
C 1.591219 6 3.117479 5.367802 4.242641 4.242641 
C 5.367802 3.117479 6 1.591219 6 0 
C 6 -1.591219 5.367802 -3.117479 4.242641 -4.242641 
C 3.117479 -5.367802 1.591219 -6 0 -6 
C -1.591219 -6 -3.117479 -5.367802 -4.242641 -4.242641 
C -5.367802 -3.117479 -6 -1.591219 -6 0 
C -6 1.591219 -5.367802 3.117479 -4.242641 4.242641 
C -3.117479 5.367802 -1.591219 6 0 6 
z
" id="m703af33f20" style="stroke:#000000;stroke-width:1.5;"/>
    </defs>
    <g>
     <use style="fill-opacity:0;stroke:#000000;stroke-width:1.5;" x="74.921597" xlink:href="#m703af33f20" y="284.723476"/>
     <use style="fill-opacity:0;stroke:#000000;stroke-width:1.5;" x="145.097753" xlink:href="#m703af33f20" y="260.495916"/>
     <use style="fill-opacity:0;stroke:#000000;stroke-width:1.5;" x="218.483423" xlink:href="#m703af33f20" y="255.755741"/>
     <use style="fill-opacity:0;stroke:#000000;stroke-width:1.5;" x="286.448681" xlink:href="#m703af33f20" y="241.535217"/>
     <use style="fill-opacity:0;stroke:#000000;stroke-width:1.5;" x="286.448681" xlink:href="#m703af33f20" y="241.008531"/>
     <use style="fill-opacity:0;stroke:#000000;stroke-width:1.5;" x="338.688" xlink:href="#m703af33f20" y="241.008531"/>
    </g>
   </g>
   <g id="line2d_47">
    <path style="fill:none;stroke:#000000;stroke-linecap:square;stroke-width:1.5;"/>
    <g/>
   </g>
   <g id="line2d_48">
    <path clip-path="url(#pda7117f3c3)" d="M 218.222063 259.96923 
" style="fill:none;stroke:#000000;stroke-linecap:square;stroke-width:1.5;"/>
    <defs>
     <path d="M -12 12 
L 12 -12 
M -12 -12 
L 12 12 
" id="m3e173b3604" style="stroke:#000000;"/>
    </defs>
    <g clip-path="url(#pda7117f3c3)">
     <use style="stroke:#000000;" x="218.222063" xlink:href="#m3e173b3604" y="259.96923"/>
    </g>
   </g>
   <g id="line2d_49">
    <defs>
     <path d="M 0 1.5 
C 0.397805 1.5 0.77937 1.341951 1.06066 1.06066 
C 1.341951 0.77937 1.5 0.397805 1.5 0 
C 1.5 -0.397805 1.341951 -0.77937 1.06066 -1.06066 
C 0.77937 -1.341951 0.397805 -1.5 0 -1.5 
C -0.397805 -1.5 -0.77937 -1.341951 -1.06066 -1.06066 
C -1.341951 -0.77937 -1.5 -0.397805 -1.5 0 
C -1.5 0.397805 -1.341951 0.77937 -1.06066 1.06066 
C -0.77937 1.341951 -0.397805 1.5 0 1.5 
z
" id="m5d1c5e1f36" style="stroke:#ff0000;"/>
    </defs>
    <g>
     <use style="fill:#ff0000;stroke:#ff0000;" x="286.447978" xlink:href="#m5d1c5e1f36" y="256.809114"/>
     <use style="fill:#ff0000;stroke:#ff0000;" x="286.447978" xlink:href="#m5d1c5e1f36" y="256.809114"/>
    </g>
   </g>
   <g id="line2d_50">
    <path d="M 5.356583 298.944 
L 5.356583 291.043709 
L 24.515591 291.043709 
L 24.515591 290.517023 
L 29.53256 290.517023 
L 29.53256 289.463651 
L 36.60358 289.463651 
L 36.60358 288.936964 
L 45.512012 288.936964 
L 45.512012 288.410278 
L 48.691568 288.410278 
L 48.691568 287.883592 
L 56.705482 287.883592 
L 56.705482 287.356906 
L 59.262141 287.356906 
L 59.262141 286.83022 
L 63.467834 286.83022 
L 63.467834 286.303534 
L 64.079801 286.303534 
L 64.079801 285.776848 
L 70.538854 285.776848 
L 70.538854 285.250162 
L 81.556612 285.250162 
L 81.556612 284.723476 
L 83.037197 284.723476 
L 83.037197 283.670104 
L 84.955534 283.670104 
L 84.955534 283.143418 
L 89.558903 283.143418 
L 89.558903 282.616732 
L 92.147241 282.616732 
L 92.147241 282.090045 
L 94.921215 282.090045 
L 94.921215 281.563359 
L 97.403108 281.563359 
L 97.403108 281.036673 
L 98.523051 281.036673 
L 98.523051 280.509987 
L 99.575392 280.509987 
L 99.575392 279.983301 
L 103.117741 279.983301 
L 103.117741 279.456615 
L 103.809118 279.456615 
L 103.809118 278.929929 
L 104.826449 278.929929 
L 104.826449 278.403243 
L 104.942325 278.403243 
L 104.942325 277.876557 
L 106.06061 277.876557 
L 106.06061 277.349871 
L 108.246551 277.349871 
L 108.246551 276.823185 
L 108.294265 276.823185 
L 108.294265 276.296499 
L 109.446552 276.296499 
L 109.446552 275.769812 
L 109.886961 275.769812 
L 109.886961 275.243126 
L 110.735755 275.243126 
L 110.735755 274.71644 
L 111.858671 274.71644 
L 111.858671 274.189754 
L 112.39413 274.189754 
L 112.39413 273.663068 
L 115.4287 273.663068 
L 115.4287 273.136382 
L 116.502698 273.136382 
L 116.502698 272.609696 
L 116.562116 272.609696 
L 116.562116 272.08301 
L 117.930605 272.08301 
L 117.930605 271.556324 
L 119.377041 271.556324 
L 119.377041 271.029638 
L 119.40226 271.029638 
L 119.40226 270.502952 
L 120.406061 270.502952 
L 120.406061 269.976266 
L 125.129119 269.976266 
L 125.129119 269.449579 
L 125.165375 269.449579 
L 125.165375 268.922893 
L 125.399222 268.922893 
L 125.399222 268.396207 
L 126.690335 268.396207 
L 126.690335 267.869521 
L 126.97016 267.869521 
L 126.97016 267.342835 
L 128.077285 267.342835 
L 128.077285 266.816149 
L 128.107907 266.816149 
L 128.107907 266.289463 
L 131.628308 266.289463 
L 131.628308 265.762777 
L 134.787017 265.762777 
L 134.787017 265.236091 
L 135.512269 265.236091 
L 135.512269 264.709405 
L 136.294869 264.709405 
L 136.294869 264.182719 
L 140.641435 264.182719 
L 140.641435 263.656033 
L 230.340325 263.656033 
L 230.340325 263.129347 
L 230.34211 263.129347 
L 230.34211 262.60266 
L 230.382925 262.60266 
L 230.382925 261.549288 
L 249.479244 261.549288 
L 249.479244 261.022602 
L 254.501357 261.022602 
L 254.501357 260.495916 
L 254.504373 260.495916 
L 254.504373 259.96923 
L 258.392195 259.96923 
L 258.392195 259.442544 
L 266.583257 259.442544 
L 266.583257 258.915858 
L 275.046661 258.915858 
L 275.046661 258.389172 
L 279.723673 258.389172 
L 279.723673 257.862486 
L 284.219053 257.862486 
L 284.219053 257.3358 
L 286.447978 257.3358 
L 286.447978 256.809114 
L 338.688 256.809114 
" style="fill:none;stroke:#ff0000;stroke-linecap:square;stroke-width:1.5;"/>
   </g>
   <g id="line2d_51">
    <defs>
     <path d="M -6 6 
L 6 6 
L 6 -6 
L -6 -6 
z
" id="md7d7a20a18" style="stroke:#ff0000;stroke-linejoin:miter;stroke-width:1.5;"/>
    </defs>
    <g>
     <use style="fill-opacity:0;stroke:#ff0000;stroke-linejoin:miter;stroke-width:1.5;" x="128.107907" xlink:href="#md7d7a20a18" y="266.816149"/>
     <use style="fill-opacity:0;stroke:#ff0000;stroke-linejoin:miter;stroke-width:1.5;" x="140.641435" xlink:href="#md7d7a20a18" y="263.656033"/>
     <use style="fill-opacity:0;stroke:#ff0000;stroke-linejoin:miter;stroke-width:1.5;" x="286.447978" xlink:href="#md7d7a20a18" y="257.3358"/>
     <use style="fill-opacity:0;stroke:#ff0000;stroke-linejoin:miter;stroke-width:1.5;" x="286.447978" xlink:href="#md7d7a20a18" y="256.809114"/>
     <use style="fill-opacity:0;stroke:#ff0000;stroke-linejoin:miter;stroke-width:1.5;" x="338.688" xlink:href="#md7d7a20a18" y="256.809114"/>
    </g>
   </g>
   <g id="line2d_52">
    <path style="fill:none;stroke:#ff0000;stroke-linecap:square;stroke-width:1.5;"/>
    <g/>
   </g>
   <g id="line2d_53">
    <path clip-path="url(#pda7117f3c3)" d="M 230.310182 263.656033 
" style="fill:none;stroke:#ff0000;stroke-linecap:square;stroke-width:1.5;"/>
    <defs>
     <path d="M -12 12 
L 12 -12 
M -12 -12 
L 12 12 
" id="ma7a9a29515" style="stroke:#ff0000;"/>
    </defs>
    <g clip-path="url(#pda7117f3c3)">
     <use style="fill:#ff0000;stroke:#ff0000;" x="230.310182" xlink:href="#ma7a9a29515" y="263.656033"/>
    </g>
   </g>
   <g id="line2d_54">
    <defs>
     <path d="M 0 1.5 
C 0.397805 1.5 0.77937 1.341951 1.06066 1.06066 
C 1.341951 0.77937 1.5 0.397805 1.5 0 
C 1.5 -0.397805 1.341951 -0.77937 1.06066 -1.06066 
C 0.77937 -1.341951 0.397805 -1.5 0 -1.5 
C -0.397805 -1.5 -0.77937 -1.341951 -1.06066 -1.06066 
C -1.341951 -0.77937 -1.5 -0.397805 -1.5 0 
C -1.5 0.397805 -1.341951 0.77937 -1.06066 1.06066 
C -0.77937 1.341951 -0.397805 1.5 0 1.5 
z
" id="mf6651a8b12" style="stroke:#bf00bf;"/>
    </defs>
    <g>
     <use style="fill:#bf00bf;stroke:#bf00bf;" x="317.220603" xlink:href="#mf6651a8b12" y="251.542253"/>
     <use style="fill:#bf00bf;stroke:#bf00bf;" x="317.220603" xlink:href="#mf6651a8b12" y="251.542253"/>
    </g>
   </g>
   <g id="line2d_55">
    <path d="M -1 293.150453 
L 5.356583 293.150453 
L 5.356583 292.097081 
L 17.444571 292.097081 
L 17.444571 290.517023 
L 27.203868 290.517023 
L 27.203868 289.990337 
L 33.424023 289.990337 
L 33.424023 289.463651 
L 47.174153 289.463651 
L 47.174153 288.936964 
L 47.949359 288.936964 
L 47.949359 288.410278 
L 66.066907 288.410278 
L 66.066907 287.883592 
L 69.904628 287.883592 
L 69.904628 287.356906 
L 72.500389 287.356906 
L 72.500389 286.83022 
L 74.094936 286.83022 
L 74.094936 286.303534 
L 76.759008 286.303534 
L 76.759008 285.776848 
L 80.059253 285.776848 
L 80.059253 285.250162 
L 83.536924 285.250162 
L 83.536924 284.19679 
L 92.087002 284.19679 
L 92.087002 283.670104 
L 93.026719 283.670104 
L 93.026719 283.143418 
L 93.918378 283.143418 
L 93.918378 282.090045 
L 94.662851 282.090045 
L 94.662851 281.563359 
L 95.023499 281.563359 
L 95.023499 281.036673 
L 95.624913 281.036673 
L 95.624913 280.509987 
L 96.062742 280.509987 
L 96.062742 279.983301 
L 96.768882 279.983301 
L 96.768882 279.456615 
L 98.481281 279.456615 
L 98.481281 278.929929 
L 102.297303 278.929929 
L 102.297303 278.403243 
L 104.144793 278.403243 
L 104.23523 276.823185 
L 104.797359 276.823185 
L 104.797359 276.296499 
L 105.538355 276.296499 
L 105.538355 275.769812 
L 105.649611 275.769812 
L 105.649611 275.243126 
L 106.906317 275.243126 
L 106.906317 274.71644 
L 107.162405 274.71644 
L 107.162405 274.189754 
L 111.205735 274.189754 
L 111.205735 272.609696 
L 111.525364 272.609696 
L 111.525364 272.08301 
L 113.329092 272.08301 
L 113.329092 271.556324 
L 114.602346 271.556324 
L 114.602346 271.029638 
L 116.724481 271.029638 
L 116.739166 269.976266 
L 116.957981 269.976266 
L 116.957981 269.449579 
L 117.116718 269.449579 
L 117.116718 268.922893 
L 117.387541 268.922893 
L 117.387541 268.396207 
L 118.053562 268.396207 
L 118.053562 267.869521 
L 120.489134 267.869521 
L 120.489134 267.342835 
L 121.230849 267.342835 
L 121.230849 266.816149 
L 121.411452 266.816149 
L 121.411452 266.289463 
L 122.957853 266.289463 
L 122.957853 265.762777 
L 124.585393 265.762777 
L 124.585393 265.236091 
L 124.817858 265.236091 
L 124.817858 264.709405 
L 126.515232 264.709405 
L 126.515232 264.182719 
L 126.912914 264.182719 
L 126.912914 263.656033 
L 129.468457 263.656033 
L 129.468457 263.129347 
L 129.693392 263.129347 
L 129.693392 262.60266 
L 130.134742 262.60266 
L 130.134742 262.075974 
L 133.761355 262.075974 
L 133.761355 261.549288 
L 134.624595 261.549288 
L 134.624595 261.022602 
L 242.420718 261.022602 
L 242.432035 258.389172 
L 254.494065 258.389172 
L 254.499642 256.809114 
L 261.569847 256.809114 
L 261.569847 256.282427 
L 266.577867 256.282427 
L 266.577867 255.755741 
L 273.649235 255.755741 
L 273.649235 255.229055 
L 276.336864 255.229055 
L 276.336864 254.702369 
L 278.665069 254.702369 
L 278.665069 254.175683 
L 285.734955 254.175683 
L 285.734955 253.648997 
L 289.625965 253.648997 
L 289.625965 253.122311 
L 295.493281 253.122311 
L 295.493281 252.595625 
L 309.542087 252.595625 
L 309.542087 252.068939 
L 317.220603 252.068939 
L 317.220603 251.542253 
L 338.688 251.542253 
L 338.688 251.542253 
" style="fill:none;stroke:#bf00bf;stroke-linecap:square;stroke-width:1.5;"/>
   </g>
   <g id="line2d_56">
    <defs>
     <path d="M -0 8.485281 
L 8.485281 0 
L 0 -8.485281 
L -8.485281 -0 
z
" id="m2866741d13" style="stroke:#bf00bf;stroke-linejoin:miter;stroke-width:1.5;"/>
    </defs>
    <g>
     <use style="fill-opacity:0;stroke:#bf00bf;stroke-linejoin:miter;stroke-width:1.5;" x="134.624595" xlink:href="#m2866741d13" y="261.549288"/>
     <use style="fill-opacity:0;stroke:#bf00bf;stroke-linejoin:miter;stroke-width:1.5;" x="134.624595" xlink:href="#m2866741d13" y="261.022602"/>
     <use style="fill-opacity:0;stroke:#bf00bf;stroke-linejoin:miter;stroke-width:1.5;" x="289.625965" xlink:href="#m2866741d13" y="253.648997"/>
     <use style="fill-opacity:0;stroke:#bf00bf;stroke-linejoin:miter;stroke-width:1.5;" x="317.220603" xlink:href="#m2866741d13" y="251.542253"/>
     <use style="fill-opacity:0;stroke:#bf00bf;stroke-linejoin:miter;stroke-width:1.5;" x="338.688" xlink:href="#m2866741d13" y="251.542253"/>
    </g>
   </g>
   <g id="line2d_57">
    <path style="fill:none;stroke:#bf00bf;stroke-linecap:square;stroke-width:1.5;"/>
    <g/>
   </g>
   <g id="line2d_58">
    <path clip-path="url(#pda7117f3c3)" d="M 242.397702 261.022602 
" style="fill:none;stroke:#bf00bf;stroke-linecap:square;stroke-width:1.5;"/>
    <defs>
     <path d="M -12 12 
L 12 -12 
M -12 -12 
L 12 12 
" id="md34af20fbb" style="stroke:#bf00bf;"/>
    </defs>
    <g clip-path="url(#pda7117f3c3)">
     <use style="fill:#bf00bf;stroke:#bf00bf;" x="242.397702" xlink:href="#md34af20fbb" y="261.022602"/>
    </g>
   </g>
   <g id="line2d_59">
    <path d="M 338.688 256.809114 
L 369.60768 293.571802 
" style="fill:none;stroke:#ff0000;stroke-linecap:square;stroke-width:1.5;"/>
    <g>
     <use style="fill-opacity:0;stroke:#ff0000;stroke-linejoin:miter;stroke-width:1.5;" x="338.688" xlink:href="#md7d7a20a18" y="256.809114"/>
     <use style="fill-opacity:0;stroke:#ff0000;stroke-linejoin:miter;stroke-width:1.5;" x="369.60768" xlink:href="#md7d7a20a18" y="293.571802"/>
    </g>
   </g>
   <g id="line2d_60">
    <path d="M 338.688 251.542253 
L 369.60768 241.998701 
" style="fill:none;stroke:#bf00bf;stroke-linecap:square;stroke-width:1.5;"/>
    <g>
     <use style="fill-opacity:0;stroke:#bf00bf;stroke-linejoin:miter;stroke-width:1.5;" x="338.688" xlink:href="#m2866741d13" y="251.542253"/>
     <use style="fill-opacity:0;stroke:#bf00bf;stroke-linejoin:miter;stroke-width:1.5;" x="369.60768" xlink:href="#m2866741d13" y="241.998701"/>
    </g>
   </g>
   <g id="line2d_61">
    <path d="M 338.688 241.008531 
L 369.60768 190.4256 
" style="fill:none;stroke:#000000;stroke-linecap:square;stroke-width:1.5;"/>
    <g>
     <use style="fill-opacity:0;stroke:#000000;stroke-width:1.5;" x="338.688" xlink:href="#m703af33f20" y="241.008531"/>
     <use style="fill-opacity:0;stroke:#000000;stroke-width:1.5;" x="369.60768" xlink:href="#m703af33f20" y="190.4256"/>
    </g>
   </g>
   <g id="line2d_62">
    <path d="M 338.688 209.407366 
L 369.60768 138.852499 
" style="fill:none;stroke:#0000ff;stroke-linecap:square;stroke-width:1.5;"/>
    <g>
     <use style="fill-opacity:0;stroke:#0000ff;stroke-linejoin:bevel;stroke-width:1.5;" x="338.688" xlink:href="#m3e04bfb593" y="209.407366"/>
     <use style="fill-opacity:0;stroke:#0000ff;stroke-linejoin:bevel;stroke-width:1.5;" x="369.60768" xlink:href="#m3e04bfb593" y="138.852499"/>
    </g>
   </g>
   <g id="line2d_63">
    <path d="M 338.688 156.738758 
L 369.60768 87.279398 
" style="fill:none;stroke:#008000;stroke-linecap:square;stroke-width:1.5;"/>
    <g>
     <use style="fill-opacity:0;stroke:#008000;stroke-linejoin:miter;stroke-width:1.5;" x="338.688" xlink:href="#m8313ccff0b" y="156.738758"/>
     <use style="fill-opacity:0;stroke:#008000;stroke-linejoin:miter;stroke-width:1.5;" x="369.60768" xlink:href="#m8313ccff0b" y="87.279398"/>
    </g>
   </g>
   <g id="line2d_64">
    <path d="M 338.688 98.803289 
L 369.60768 35.706297 
" style="fill:none;stroke:#00bfbf;stroke-linecap:square;stroke-width:1.5;"/>
    <g>
     <use style="fill-opacity:0;stroke:#00bfbf;stroke-width:1.5;" x="338.688" xlink:href="#m1a64dd91e2" y="98.803289"/>
     <use style="fill-opacity:0;stroke:#00bfbf;stroke-width:1.5;" x="369.60768" xlink:href="#m1a64dd91e2" y="35.706297"/>
    </g>
   </g>
   <g id="line2d_65">
    <path d="M 338.688 298.944 
L 338.688 30.334099 
" style="fill:none;stroke:#000000;stroke-linecap:square;stroke-width:1.5;"/>
   </g>
   <g id="patch_3">
    <path d="M 57.6 298.944 
L 57.6 27.648 
" style="fill:none;stroke:#000000;stroke-linecap:square;stroke-linejoin:miter;stroke-width:0.8;"/>
   </g>
   <g id="patch_4">
    <path d="M 338.688 298.944 
L 338.688 27.648 
" style="fill:none;stroke:#000000;stroke-linecap:square;stroke-linejoin:miter;stroke-width:0.8;"/>
   </g>
   <g id="patch_5">
    <path d="M 57.6 298.944 
L 338.688 298.944 
" style="fill:none;stroke:#000000;stroke-linecap:square;stroke-linejoin:miter;stroke-width:0.8;"/>
   </g>
   <g id="patch_6">
    <path d="M 57.6 27.648 
L 338.688 27.648 
" style="fill:none;stroke:#000000;stroke-linecap:square;stroke-linejoin:miter;stroke-width:0.8;"/>
   </g>
   <g id="text_13">
    <!-- 20-D -->
    <g transform="translate(375.22944 298.262739)scale(0.17 -0.17)">
     <defs>
      <path d="M 19.671875 64.796875 
L 19.671875 8.109375 
L 31.59375 8.109375 
Q 46.6875 8.109375 53.6875 14.9375 
Q 60.6875 21.78125 60.6875 36.53125 
Q 60.6875 51.171875 53.6875 57.984375 
Q 46.6875 64.796875 31.59375 64.796875 
z
M 9.8125 72.90625 
L 30.078125 72.90625 
Q 51.265625 72.90625 61.171875 64.09375 
Q 71.09375 55.28125 71.09375 36.53125 
Q 71.09375 17.671875 61.125 8.828125 
Q 51.171875 0 30.078125 0 
L 9.8125 0 
z
" id="DejaVuSans-68"/>
     </defs>
     <use xlink:href="#DejaVuSans-50"/>
     <use x="63.623047" xlink:href="#DejaVuSans-48"/>
     <use x="127.246094" xlink:href="#DejaVuSans-45"/>
     <use x="163.330078" xlink:href="#DejaVuSans-68"/>
    </g>
   </g>
   <g id="text_14">
    <!-- 40-D -->
    <g transform="translate(375.22944 246.689638)scale(0.17 -0.17)">
     <use xlink:href="#DejaVuSans-52"/>
     <use x="63.623047" xlink:href="#DejaVuSans-48"/>
     <use x="127.246094" xlink:href="#DejaVuSans-45"/>
     <use x="163.330078" xlink:href="#DejaVuSans-68"/>
    </g>
   </g>
   <g id="text_15">
    <!-- 10-D -->
    <g transform="translate(375.22944 195.116537)scale(0.17 -0.17)">
     <use xlink:href="#DejaVuSans-49"/>
     <use x="63.623047" xlink:href="#DejaVuSans-48"/>
     <use x="127.246094" xlink:href="#DejaVuSans-45"/>
     <use x="163.330078" xlink:href="#DejaVuSans-68"/>
    </g>
   </g>
   <g id="text_16">
    <!-- 5-D -->
    <g transform="translate(375.22944 143.543437)scale(0.17 -0.17)">
     <defs>
      <path d="M 10.796875 72.90625 
L 49.515625 72.90625 
L 49.515625 64.59375 
L 19.828125 64.59375 
L 19.828125 46.734375 
Q 21.96875 47.46875 24.109375 47.828125 
Q 26.265625 48.1875 28.421875 48.1875 
Q 40.625 48.1875 47.75 41.5 
Q 54.890625 34.8125 54.890625 23.390625 
Q 54.890625 11.625 47.5625 5.09375 
Q 40.234375 -1.421875 26.90625 -1.421875 
Q 22.3125 -1.421875 17.546875 -0.640625 
Q 12.796875 0.140625 7.71875 1.703125 
L 7.71875 11.625 
Q 12.109375 9.234375 16.796875 8.0625 
Q 21.484375 6.890625 26.703125 6.890625 
Q 35.15625 6.890625 40.078125 11.328125 
Q 45.015625 15.765625 45.015625 23.390625 
Q 45.015625 31 40.078125 35.4375 
Q 35.15625 39.890625 26.703125 39.890625 
Q 22.75 39.890625 18.8125 39.015625 
Q 14.890625 38.140625 10.796875 36.28125 
z
" id="DejaVuSans-53"/>
     </defs>
     <use xlink:href="#DejaVuSans-53"/>
     <use x="63.623047" xlink:href="#DejaVuSans-45"/>
     <use x="99.707031" xlink:href="#DejaVuSans-68"/>
    </g>
   </g>
   <g id="text_17">
    <!-- 3-D -->
    <g transform="translate(375.22944 91.970336)scale(0.17 -0.17)">
     <defs>
      <path d="M 40.578125 39.3125 
Q 47.65625 37.796875 51.625 33 
Q 55.609375 28.21875 55.609375 21.1875 
Q 55.609375 10.40625 48.1875 4.484375 
Q 40.765625 -1.421875 27.09375 -1.421875 
Q 22.515625 -1.421875 17.65625 -0.515625 
Q 12.796875 0.390625 7.625 2.203125 
L 7.625 11.71875 
Q 11.71875 9.328125 16.59375 8.109375 
Q 21.484375 6.890625 26.8125 6.890625 
Q 36.078125 6.890625 40.9375 10.546875 
Q 45.796875 14.203125 45.796875 21.1875 
Q 45.796875 27.640625 41.28125 31.265625 
Q 36.765625 34.90625 28.71875 34.90625 
L 20.21875 34.90625 
L 20.21875 43.015625 
L 29.109375 43.015625 
Q 36.375 43.015625 40.234375 45.921875 
Q 44.09375 48.828125 44.09375 54.296875 
Q 44.09375 59.90625 40.109375 62.90625 
Q 36.140625 65.921875 28.71875 65.921875 
Q 24.65625 65.921875 20.015625 65.03125 
Q 15.375 64.15625 9.8125 62.3125 
L 9.8125 71.09375 
Q 15.4375 72.65625 20.34375 73.4375 
Q 25.25 74.21875 29.59375 74.21875 
Q 40.828125 74.21875 47.359375 69.109375 
Q 53.90625 64.015625 53.90625 55.328125 
Q 53.90625 49.265625 50.4375 45.09375 
Q 46.96875 40.921875 40.578125 39.3125 
z
" id="DejaVuSans-51"/>
     </defs>
     <use xlink:href="#DejaVuSans-51"/>
     <use x="63.623047" xlink:href="#DejaVuSans-45"/>
     <use x="99.707031" xlink:href="#DejaVuSans-68"/>
    </g>
   </g>
   <g id="text_18">
    <!-- 2-D -->
    <g transform="translate(375.22944 40.397235)scale(0.17 -0.17)">
     <use xlink:href="#DejaVuSans-50"/>
     <use x="63.623047" xlink:href="#DejaVuSans-45"/>
     <use x="99.707031" xlink:href="#DejaVuSans-68"/>
    </g>
   </g>
   <g id="text_19">
    <!-- bbob f16 -->
    <g transform="translate(60.41088 38.111366)scale(0.102 -0.102)">
     <defs>
      <path d="M 48.6875 27.296875 
Q 48.6875 37.203125 44.609375 42.84375 
Q 40.53125 48.484375 33.40625 48.484375 
Q 26.265625 48.484375 22.1875 42.84375 
Q 18.109375 37.203125 18.109375 27.296875 
Q 18.109375 17.390625 22.1875 11.75 
Q 26.265625 6.109375 33.40625 6.109375 
Q 40.53125 6.109375 44.609375 11.75 
Q 48.6875 17.390625 48.6875 27.296875 
z
M 18.109375 46.390625 
Q 20.953125 51.265625 25.265625 53.625 
Q 29.59375 56 35.59375 56 
Q 45.5625 56 51.78125 48.09375 
Q 58.015625 40.1875 58.015625 27.296875 
Q 58.015625 14.40625 51.78125 6.484375 
Q 45.5625 -1.421875 35.59375 -1.421875 
Q 29.59375 -1.421875 25.265625 0.953125 
Q 20.953125 3.328125 18.109375 8.203125 
L 18.109375 0 
L 9.078125 0 
L 9.078125 75.984375 
L 18.109375 75.984375 
z
" id="DejaVuSans-98"/>
     </defs>
     <use xlink:href="#DejaVuSans-98"/>
     <use x="63.476562" xlink:href="#DejaVuSans-98"/>
     <use x="126.953125" xlink:href="#DejaVuSans-111"/>
     <use x="188.134766" xlink:href="#DejaVuSans-98"/>
     <use x="251.611328" xlink:href="#DejaVuSans-32"/>
     <use x="283.398438" xlink:href="#DejaVuSans-102"/>
     <use x="318.603516" xlink:href="#DejaVuSans-49"/>
     <use x="382.226562" xlink:href="#DejaVuSans-54"/>
    </g>
    <!-- 51 targets: 100..1e-08 -->
    <g transform="translate(60.41088 49.533135)scale(0.102 -0.102)">
     <defs>
      <path d="M 11.71875 12.40625 
L 22.015625 12.40625 
L 22.015625 0 
L 11.71875 0 
z
M 11.71875 51.703125 
L 22.015625 51.703125 
L 22.015625 39.3125 
L 11.71875 39.3125 
z
" id="DejaVuSans-58"/>
     </defs>
     <use xlink:href="#DejaVuSans-53"/>
     <use x="63.623047" xlink:href="#DejaVuSans-49"/>
     <use x="127.246094" xlink:href="#DejaVuSans-32"/>
     <use x="159.033203" xlink:href="#DejaVuSans-116"/>
     <use x="198.242188" xlink:href="#DejaVuSans-97"/>
     <use x="259.521484" xlink:href="#DejaVuSans-114"/>
     <use x="298.884766" xlink:href="#DejaVuSans-103"/>
     <use x="362.361328" xlink:href="#DejaVuSans-101"/>
     <use x="423.884766" xlink:href="#DejaVuSans-116"/>
     <use x="463.09375" xlink:href="#DejaVuSans-115"/>
     <use x="515.193359" xlink:href="#DejaVuSans-58"/>
     <use x="548.884766" xlink:href="#DejaVuSans-32"/>
     <use x="580.671875" xlink:href="#DejaVuSans-49"/>
     <use x="644.294922" xlink:href="#DejaVuSans-48"/>
     <use x="707.917969" xlink:href="#DejaVuSans-48"/>
     <use x="771.541016" xlink:href="#DejaVuSans-46"/>
     <use x="803.328125" xlink:href="#DejaVuSans-46"/>
     <use x="835.115234" xlink:href="#DejaVuSans-49"/>
     <use x="898.738281" xlink:href="#DejaVuSans-101"/>
     <use x="960.261719" xlink:href="#DejaVuSans-45"/>
     <use x="996.345703" xlink:href="#DejaVuSans-48"/>
     <use x="1059.96875" xlink:href="#DejaVuSans-56"/>
    </g>
    <!-- 15 instances -->
    <g transform="translate(60.41088 60.954904)scale(0.102 -0.102)">
     <use xlink:href="#DejaVuSans-49"/>
     <use x="63.623047" xlink:href="#DejaVuSans-53"/>
     <use x="127.246094" xlink:href="#DejaVuSans-32"/>
     <use x="159.033203" xlink:href="#DejaVuSans-105"/>
     <use x="186.816406" xlink:href="#DejaVuSans-110"/>
     <use x="250.195312" xlink:href="#DejaVuSans-115"/>
     <use x="302.294922" xlink:href="#DejaVuSans-116"/>
     <use x="341.503906" xlink:href="#DejaVuSans-97"/>
     <use x="402.783203" xlink:href="#DejaVuSans-110"/>
     <use x="466.162109" xlink:href="#DejaVuSans-99"/>
     <use x="521.142578" xlink:href="#DejaVuSans-101"/>
     <use x="582.666016" xlink:href="#DejaVuSans-115"/>
    </g>
   </g>
   <g id="text_20">
    <!-- v2.4 -->
    <g style="fill:#808080;" transform="translate(187.233062 294.151352)scale(0.1 -0.1)">
     <use xlink:href="#DejaVuSans-118"/>
     <use x="59.179688" xlink:href="#DejaVuSans-50"/>
     <use x="122.802734" xlink:href="#DejaVuSans-46"/>
     <use x="154.589844" xlink:href="#DejaVuSans-52"/>
    </g>
   </g>
   <g id="text_21">
    <!-- 16 Weierstrass -->
    <g transform="translate(123.958062 21.648)scale(0.2 -0.2)">
     <defs>
      <path d="M 3.328125 72.90625 
L 13.28125 72.90625 
L 28.609375 11.28125 
L 43.890625 72.90625 
L 54.984375 72.90625 
L 70.3125 11.28125 
L 85.59375 72.90625 
L 95.609375 72.90625 
L 77.296875 0 
L 64.890625 0 
L 49.515625 63.28125 
L 33.984375 0 
L 21.578125 0 
z
" id="DejaVuSans-87"/>
     </defs>
     <use xlink:href="#DejaVuSans-49"/>
     <use x="63.623047" xlink:href="#DejaVuSans-54"/>
     <use x="127.246094" xlink:href="#DejaVuSans-32"/>
     <use x="159.033203" xlink:href="#DejaVuSans-87"/>
     <use x="252.035156" xlink:href="#DejaVuSans-101"/>
     <use x="313.558594" xlink:href="#DejaVuSans-105"/>
     <use x="341.341797" xlink:href="#DejaVuSans-101"/>
     <use x="402.865234" xlink:href="#DejaVuSans-114"/>
     <use x="443.978516" xlink:href="#DejaVuSans-115"/>
     <use x="496.078125" xlink:href="#DejaVuSans-116"/>
     <use x="535.287109" xlink:href="#DejaVuSans-114"/>
     <use x="576.400391" xlink:href="#DejaVuSans-97"/>
     <use x="637.679688" xlink:href="#DejaVuSans-115"/>
     <use x="689.779297" xlink:href="#DejaVuSans-115"/>
    </g>
   </g>
  </g>
 </g>
 <defs>
  <clipPath id="pda7117f3c3">
   <rect height="271.296" width="281.088" x="57.6" y="27.648"/>
  </clipPath>
 </defs>
</svg>
