<?xml version="1.0" encoding="utf-8" standalone="no"?>
<!DOCTYPE svg PUBLIC "-//W3C//DTD SVG 1.1//EN"
  "http://www.w3.org/Graphics/SVG/1.1/DTD/svg11.dtd">
<!-- Created with matplotlib (https://matplotlib.org/) -->
<svg height="345.6pt" version="1.1" viewBox="0 0 460.8 345.6" width="460.8pt" xmlns="http://www.w3.org/2000/svg" xmlns:xlink="http://www.w3.org/1999/xlink">
 <metadata>
  <rdf:RDF xmlns:cc="http://creativecommons.org/ns#" xmlns:dc="http://purl.org/dc/elements/1.1/" xmlns:rdf="http://www.w3.org/1999/02/22-rdf-syntax-ns#">
   <cc:Work>
    <dc:type rdf:resource="http://purl.org/dc/dcmitype/StillImage"/>
    <dc:date>2021-06-17T01:38:06.769753</dc:date>
    <dc:format>image/svg+xml</dc:format>
    <dc:creator>
     <cc:Agent>
      <dc:title>Matplotlib v3.3.4, https://matplotlib.org/</dc:title>
     </cc:Agent>
    </dc:creator>
   </cc:Work>
  </rdf:RDF>
 </metadata>
 <defs>
  <style type="text/css">*{stroke-linecap:butt;stroke-linejoin:round;}</style>
 </defs>
 <g id="figure_1">
  <g id="patch_1">
   <path d="M 0 345.6 
L 460.8 345.6 
L 460.8 0 
L 0 0 
z
" style="fill:#ffffff;"/>
  </g>
  <g id="axes_1">
   <g id="patch_2">
    <path d="M 57.6 298.944 
L 338.688 298.944 
L 338.688 3.456 
L 57.6 3.456 
z
" style="fill:#ffffff;"/>
   </g>
   <g id="matplotlib.axis_1">
    <g id="xtick_1">
     <g id="line2d_1">
      <path clip-path="url(#p6fd02b1dfb)" d="M 57.6 298.944 
L 57.6 3.456 
" style="fill:none;stroke:#b0b0b0;stroke-linecap:square;stroke-width:0.8;"/>
     </g>
     <g id="line2d_2">
      <defs>
       <path d="M 0 0 
L 0 3.5 
" id="md23e6db6ce" style="stroke:#000000;stroke-width:0.8;"/>
      </defs>
      <g>
       <use style="stroke:#000000;stroke-width:0.8;" x="57.6" xlink:href="#md23e6db6ce" y="298.944"/>
      </g>
     </g>
     <g id="text_1">
      <!-- 0 -->
      <g transform="translate(51.2375 321.140875)scale(0.2 -0.2)">
       <defs>
        <path d="M 31.78125 66.40625 
Q 24.171875 66.40625 20.328125 58.90625 
Q 16.5 51.421875 16.5 36.375 
Q 16.5 21.390625 20.328125 13.890625 
Q 24.171875 6.390625 31.78125 6.390625 
Q 39.453125 6.390625 43.28125 13.890625 
Q 47.125 21.390625 47.125 36.375 
Q 47.125 51.421875 43.28125 58.90625 
Q 39.453125 66.40625 31.78125 66.40625 
z
M 31.78125 74.21875 
Q 44.046875 74.21875 50.515625 64.515625 
Q 56.984375 54.828125 56.984375 36.375 
Q 56.984375 17.96875 50.515625 8.265625 
Q 44.046875 -1.421875 31.78125 -1.421875 
Q 19.53125 -1.421875 13.0625 8.265625 
Q 6.59375 17.96875 6.59375 36.375 
Q 6.59375 54.828125 13.0625 64.515625 
Q 19.53125 74.21875 31.78125 74.21875 
z
" id="DejaVuSans-48"/>
       </defs>
       <use xlink:href="#DejaVuSans-48"/>
      </g>
     </g>
    </g>
    <g id="xtick_2">
     <g id="line2d_3">
      <path clip-path="url(#p6fd02b1dfb)" d="M 137.910857 298.944 
L 137.910857 3.456 
" style="fill:none;stroke:#b0b0b0;stroke-linecap:square;stroke-width:0.8;"/>
     </g>
     <g id="line2d_4">
      <g>
       <use style="stroke:#000000;stroke-width:0.8;" x="137.910857" xlink:href="#md23e6db6ce" y="298.944"/>
      </g>
     </g>
     <g id="text_2">
      <!-- 2 -->
      <g transform="translate(131.548357 321.140875)scale(0.2 -0.2)">
       <defs>
        <path d="M 19.1875 8.296875 
L 53.609375 8.296875 
L 53.609375 0 
L 7.328125 0 
L 7.328125 8.296875 
Q 12.9375 14.109375 22.625 23.890625 
Q 32.328125 33.6875 34.8125 36.53125 
Q 39.546875 41.84375 41.421875 45.53125 
Q 43.3125 49.21875 43.3125 52.78125 
Q 43.3125 58.59375 39.234375 62.25 
Q 35.15625 65.921875 28.609375 65.921875 
Q 23.96875 65.921875 18.8125 64.3125 
Q 13.671875 62.703125 7.8125 59.421875 
L 7.8125 69.390625 
Q 13.765625 71.78125 18.9375 73 
Q 24.125 74.21875 28.421875 74.21875 
Q 39.75 74.21875 46.484375 68.546875 
Q 53.21875 62.890625 53.21875 53.421875 
Q 53.21875 48.921875 51.53125 44.890625 
Q 49.859375 40.875 45.40625 35.40625 
Q 44.1875 33.984375 37.640625 27.21875 
Q 31.109375 20.453125 19.1875 8.296875 
z
" id="DejaVuSans-50"/>
       </defs>
       <use xlink:href="#DejaVuSans-50"/>
      </g>
     </g>
    </g>
    <g id="xtick_3">
     <g id="line2d_5">
      <path clip-path="url(#p6fd02b1dfb)" d="M 218.221714 298.944 
L 218.221714 3.456 
" style="fill:none;stroke:#b0b0b0;stroke-linecap:square;stroke-width:0.8;"/>
     </g>
     <g id="line2d_6">
      <g>
       <use style="stroke:#000000;stroke-width:0.8;" x="218.221714" xlink:href="#md23e6db6ce" y="298.944"/>
      </g>
     </g>
     <g id="text_3">
      <!-- 4 -->
      <g transform="translate(211.859214 321.140875)scale(0.2 -0.2)">
       <defs>
        <path d="M 37.796875 64.3125 
L 12.890625 25.390625 
L 37.796875 25.390625 
z
M 35.203125 72.90625 
L 47.609375 72.90625 
L 47.609375 25.390625 
L 58.015625 25.390625 
L 58.015625 17.1875 
L 47.609375 17.1875 
L 47.609375 0 
L 37.796875 0 
L 37.796875 17.1875 
L 4.890625 17.1875 
L 4.890625 26.703125 
z
" id="DejaVuSans-52"/>
       </defs>
       <use xlink:href="#DejaVuSans-52"/>
      </g>
     </g>
    </g>
    <g id="xtick_4">
     <g id="line2d_7">
      <path clip-path="url(#p6fd02b1dfb)" d="M 298.532571 298.944 
L 298.532571 3.456 
" style="fill:none;stroke:#b0b0b0;stroke-linecap:square;stroke-width:0.8;"/>
     </g>
     <g id="line2d_8">
      <g>
       <use style="stroke:#000000;stroke-width:0.8;" x="298.532571" xlink:href="#md23e6db6ce" y="298.944"/>
      </g>
     </g>
     <g id="text_4">
      <!-- 6 -->
      <g transform="translate(292.170071 321.140875)scale(0.2 -0.2)">
       <defs>
        <path d="M 33.015625 40.375 
Q 26.375 40.375 22.484375 35.828125 
Q 18.609375 31.296875 18.609375 23.390625 
Q 18.609375 15.53125 22.484375 10.953125 
Q 26.375 6.390625 33.015625 6.390625 
Q 39.65625 6.390625 43.53125 10.953125 
Q 47.40625 15.53125 47.40625 23.390625 
Q 47.40625 31.296875 43.53125 35.828125 
Q 39.65625 40.375 33.015625 40.375 
z
M 52.59375 71.296875 
L 52.59375 62.3125 
Q 48.875 64.0625 45.09375 64.984375 
Q 41.3125 65.921875 37.59375 65.921875 
Q 27.828125 65.921875 22.671875 59.328125 
Q 17.53125 52.734375 16.796875 39.40625 
Q 19.671875 43.65625 24.015625 45.921875 
Q 28.375 48.1875 33.59375 48.1875 
Q 44.578125 48.1875 50.953125 41.515625 
Q 57.328125 34.859375 57.328125 23.390625 
Q 57.328125 12.15625 50.6875 5.359375 
Q 44.046875 -1.421875 33.015625 -1.421875 
Q 20.359375 -1.421875 13.671875 8.265625 
Q 6.984375 17.96875 6.984375 36.375 
Q 6.984375 53.65625 15.1875 63.9375 
Q 23.390625 74.21875 37.203125 74.21875 
Q 40.921875 74.21875 44.703125 73.484375 
Q 48.484375 72.75 52.59375 71.296875 
z
" id="DejaVuSans-54"/>
       </defs>
       <use xlink:href="#DejaVuSans-54"/>
      </g>
     </g>
    </g>
    <g id="xtick_5">
     <g id="line2d_9">
      <path clip-path="url(#p6fd02b1dfb)" d="M 97.755429 298.944 
L 97.755429 3.456 
" style="fill:none;stroke:#b0b0b0;stroke-linecap:square;stroke-width:0.8;"/>
     </g>
     <g id="line2d_10">
      <defs>
       <path d="M 0 0 
L 0 2 
" id="mb05c51c5be" style="stroke:#000000;stroke-width:0.6;"/>
      </defs>
      <g>
       <use style="stroke:#000000;stroke-width:0.6;" x="97.755429" xlink:href="#mb05c51c5be" y="298.944"/>
      </g>
     </g>
    </g>
    <g id="xtick_6">
     <g id="line2d_11">
      <path clip-path="url(#p6fd02b1dfb)" d="M 178.066286 298.944 
L 178.066286 3.456 
" style="fill:none;stroke:#b0b0b0;stroke-linecap:square;stroke-width:0.8;"/>
     </g>
     <g id="line2d_12">
      <g>
       <use style="stroke:#000000;stroke-width:0.6;" x="178.066286" xlink:href="#mb05c51c5be" y="298.944"/>
      </g>
     </g>
    </g>
    <g id="xtick_7">
     <g id="line2d_13">
      <path clip-path="url(#p6fd02b1dfb)" d="M 258.377143 298.944 
L 258.377143 3.456 
" style="fill:none;stroke:#b0b0b0;stroke-linecap:square;stroke-width:0.8;"/>
     </g>
     <g id="line2d_14">
      <g>
       <use style="stroke:#000000;stroke-width:0.6;" x="258.377143" xlink:href="#mb05c51c5be" y="298.944"/>
      </g>
     </g>
    </g>
    <g id="xtick_8">
     <g id="line2d_15">
      <path clip-path="url(#p6fd02b1dfb)" d="M 338.688 298.944 
L 338.688 3.456 
" style="fill:none;stroke:#b0b0b0;stroke-linecap:square;stroke-width:0.8;"/>
     </g>
     <g id="line2d_16">
      <g>
       <use style="stroke:#000000;stroke-width:0.6;" x="338.688" xlink:href="#mb05c51c5be" y="298.944"/>
      </g>
     </g>
    </g>
    <g id="text_5">
     <!-- log10(# f-evals / dimension) -->
     <g transform="translate(77.764078 342.217594)scale(0.17 -0.17)">
      <defs>
       <path d="M 9.421875 75.984375 
L 18.40625 75.984375 
L 18.40625 0 
L 9.421875 0 
z
" id="DejaVuSans-108"/>
       <path d="M 30.609375 48.390625 
Q 23.390625 48.390625 19.1875 42.75 
Q 14.984375 37.109375 14.984375 27.296875 
Q 14.984375 17.484375 19.15625 11.84375 
Q 23.34375 6.203125 30.609375 6.203125 
Q 37.796875 6.203125 41.984375 11.859375 
Q 46.1875 17.53125 46.1875 27.296875 
Q 46.1875 37.015625 41.984375 42.703125 
Q 37.796875 48.390625 30.609375 48.390625 
z
M 30.609375 56 
Q 42.328125 56 49.015625 48.375 
Q 55.71875 40.765625 55.71875 27.296875 
Q 55.71875 13.875 49.015625 6.21875 
Q 42.328125 -1.421875 30.609375 -1.421875 
Q 18.84375 -1.421875 12.171875 6.21875 
Q 5.515625 13.875 5.515625 27.296875 
Q 5.515625 40.765625 12.171875 48.375 
Q 18.84375 56 30.609375 56 
z
" id="DejaVuSans-111"/>
       <path d="M 45.40625 27.984375 
Q 45.40625 37.75 41.375 43.109375 
Q 37.359375 48.484375 30.078125 48.484375 
Q 22.859375 48.484375 18.828125 43.109375 
Q 14.796875 37.75 14.796875 27.984375 
Q 14.796875 18.265625 18.828125 12.890625 
Q 22.859375 7.515625 30.078125 7.515625 
Q 37.359375 7.515625 41.375 12.890625 
Q 45.40625 18.265625 45.40625 27.984375 
z
M 54.390625 6.78125 
Q 54.390625 -7.171875 48.1875 -13.984375 
Q 42 -20.796875 29.203125 -20.796875 
Q 24.46875 -20.796875 20.265625 -20.09375 
Q 16.0625 -19.390625 12.109375 -17.921875 
L 12.109375 -9.1875 
Q 16.0625 -11.328125 19.921875 -12.34375 
Q 23.78125 -13.375 27.78125 -13.375 
Q 36.625 -13.375 41.015625 -8.765625 
Q 45.40625 -4.15625 45.40625 5.171875 
L 45.40625 9.625 
Q 42.625 4.78125 38.28125 2.390625 
Q 33.9375 0 27.875 0 
Q 17.828125 0 11.671875 7.65625 
Q 5.515625 15.328125 5.515625 27.984375 
Q 5.515625 40.671875 11.671875 48.328125 
Q 17.828125 56 27.875 56 
Q 33.9375 56 38.28125 53.609375 
Q 42.625 51.21875 45.40625 46.390625 
L 45.40625 54.6875 
L 54.390625 54.6875 
z
" id="DejaVuSans-103"/>
       <path d="M 12.40625 8.296875 
L 28.515625 8.296875 
L 28.515625 63.921875 
L 10.984375 60.40625 
L 10.984375 69.390625 
L 28.421875 72.90625 
L 38.28125 72.90625 
L 38.28125 8.296875 
L 54.390625 8.296875 
L 54.390625 0 
L 12.40625 0 
z
" id="DejaVuSans-49"/>
       <path d="M 31 75.875 
Q 24.46875 64.65625 21.28125 53.65625 
Q 18.109375 42.671875 18.109375 31.390625 
Q 18.109375 20.125 21.3125 9.0625 
Q 24.515625 -2 31 -13.1875 
L 23.1875 -13.1875 
Q 15.875 -1.703125 12.234375 9.375 
Q 8.59375 20.453125 8.59375 31.390625 
Q 8.59375 42.28125 12.203125 53.3125 
Q 15.828125 64.359375 23.1875 75.875 
z
" id="DejaVuSans-40"/>
       <path d="M 51.125 44 
L 36.921875 44 
L 32.8125 27.6875 
L 47.125 27.6875 
z
M 43.796875 71.78125 
L 38.71875 51.515625 
L 52.984375 51.515625 
L 58.109375 71.78125 
L 65.921875 71.78125 
L 60.890625 51.515625 
L 76.125 51.515625 
L 76.125 44 
L 58.984375 44 
L 54.984375 27.6875 
L 70.515625 27.6875 
L 70.515625 20.21875 
L 53.078125 20.21875 
L 48 0 
L 40.1875 0 
L 45.21875 20.21875 
L 30.90625 20.21875 
L 25.875 0 
L 18.015625 0 
L 23.09375 20.21875 
L 7.71875 20.21875 
L 7.71875 27.6875 
L 24.90625 27.6875 
L 29 44 
L 13.28125 44 
L 13.28125 51.515625 
L 30.90625 51.515625 
L 35.890625 71.78125 
z
" id="DejaVuSans-35"/>
       <path id="DejaVuSans-32"/>
       <path d="M 37.109375 75.984375 
L 37.109375 68.5 
L 28.515625 68.5 
Q 23.6875 68.5 21.796875 66.546875 
Q 19.921875 64.59375 19.921875 59.515625 
L 19.921875 54.6875 
L 34.71875 54.6875 
L 34.71875 47.703125 
L 19.921875 47.703125 
L 19.921875 0 
L 10.890625 0 
L 10.890625 47.703125 
L 2.296875 47.703125 
L 2.296875 54.6875 
L 10.890625 54.6875 
L 10.890625 58.5 
Q 10.890625 67.625 15.140625 71.796875 
Q 19.390625 75.984375 28.609375 75.984375 
z
" id="DejaVuSans-102"/>
       <path d="M 4.890625 31.390625 
L 31.203125 31.390625 
L 31.203125 23.390625 
L 4.890625 23.390625 
z
" id="DejaVuSans-45"/>
       <path d="M 56.203125 29.59375 
L 56.203125 25.203125 
L 14.890625 25.203125 
Q 15.484375 15.921875 20.484375 11.0625 
Q 25.484375 6.203125 34.421875 6.203125 
Q 39.59375 6.203125 44.453125 7.46875 
Q 49.3125 8.734375 54.109375 11.28125 
L 54.109375 2.78125 
Q 49.265625 0.734375 44.1875 -0.34375 
Q 39.109375 -1.421875 33.890625 -1.421875 
Q 20.796875 -1.421875 13.15625 6.1875 
Q 5.515625 13.8125 5.515625 26.8125 
Q 5.515625 40.234375 12.765625 48.109375 
Q 20.015625 56 32.328125 56 
Q 43.359375 56 49.78125 48.890625 
Q 56.203125 41.796875 56.203125 29.59375 
z
M 47.21875 32.234375 
Q 47.125 39.59375 43.09375 43.984375 
Q 39.0625 48.390625 32.421875 48.390625 
Q 24.90625 48.390625 20.390625 44.140625 
Q 15.875 39.890625 15.1875 32.171875 
z
" id="DejaVuSans-101"/>
       <path d="M 2.984375 54.6875 
L 12.5 54.6875 
L 29.59375 8.796875 
L 46.6875 54.6875 
L 56.203125 54.6875 
L 35.6875 0 
L 23.484375 0 
z
" id="DejaVuSans-118"/>
       <path d="M 34.28125 27.484375 
Q 23.390625 27.484375 19.1875 25 
Q 14.984375 22.515625 14.984375 16.5 
Q 14.984375 11.71875 18.140625 8.90625 
Q 21.296875 6.109375 26.703125 6.109375 
Q 34.1875 6.109375 38.703125 11.40625 
Q 43.21875 16.703125 43.21875 25.484375 
L 43.21875 27.484375 
z
M 52.203125 31.203125 
L 52.203125 0 
L 43.21875 0 
L 43.21875 8.296875 
Q 40.140625 3.328125 35.546875 0.953125 
Q 30.953125 -1.421875 24.3125 -1.421875 
Q 15.921875 -1.421875 10.953125 3.296875 
Q 6 8.015625 6 15.921875 
Q 6 25.140625 12.171875 29.828125 
Q 18.359375 34.515625 30.609375 34.515625 
L 43.21875 34.515625 
L 43.21875 35.40625 
Q 43.21875 41.609375 39.140625 45 
Q 35.0625 48.390625 27.6875 48.390625 
Q 23 48.390625 18.546875 47.265625 
Q 14.109375 46.140625 10.015625 43.890625 
L 10.015625 52.203125 
Q 14.9375 54.109375 19.578125 55.046875 
Q 24.21875 56 28.609375 56 
Q 40.484375 56 46.34375 49.84375 
Q 52.203125 43.703125 52.203125 31.203125 
z
" id="DejaVuSans-97"/>
       <path d="M 44.28125 53.078125 
L 44.28125 44.578125 
Q 40.484375 46.53125 36.375 47.5 
Q 32.28125 48.484375 27.875 48.484375 
Q 21.1875 48.484375 17.84375 46.4375 
Q 14.5 44.390625 14.5 40.28125 
Q 14.5 37.15625 16.890625 35.375 
Q 19.28125 33.59375 26.515625 31.984375 
L 29.59375 31.296875 
Q 39.15625 29.25 43.1875 25.515625 
Q 47.21875 21.78125 47.21875 15.09375 
Q 47.21875 7.46875 41.1875 3.015625 
Q 35.15625 -1.421875 24.609375 -1.421875 
Q 20.21875 -1.421875 15.453125 -0.5625 
Q 10.6875 0.296875 5.421875 2 
L 5.421875 11.28125 
Q 10.40625 8.6875 15.234375 7.390625 
Q 20.0625 6.109375 24.8125 6.109375 
Q 31.15625 6.109375 34.5625 8.28125 
Q 37.984375 10.453125 37.984375 14.40625 
Q 37.984375 18.0625 35.515625 20.015625 
Q 33.0625 21.96875 24.703125 23.78125 
L 21.578125 24.515625 
Q 13.234375 26.265625 9.515625 29.90625 
Q 5.8125 33.546875 5.8125 39.890625 
Q 5.8125 47.609375 11.28125 51.796875 
Q 16.75 56 26.8125 56 
Q 31.78125 56 36.171875 55.265625 
Q 40.578125 54.546875 44.28125 53.078125 
z
" id="DejaVuSans-115"/>
       <path d="M 25.390625 72.90625 
L 33.6875 72.90625 
L 8.296875 -9.28125 
L 0 -9.28125 
z
" id="DejaVuSans-47"/>
       <path d="M 45.40625 46.390625 
L 45.40625 75.984375 
L 54.390625 75.984375 
L 54.390625 0 
L 45.40625 0 
L 45.40625 8.203125 
Q 42.578125 3.328125 38.25 0.953125 
Q 33.9375 -1.421875 27.875 -1.421875 
Q 17.96875 -1.421875 11.734375 6.484375 
Q 5.515625 14.40625 5.515625 27.296875 
Q 5.515625 40.1875 11.734375 48.09375 
Q 17.96875 56 27.875 56 
Q 33.9375 56 38.25 53.625 
Q 42.578125 51.265625 45.40625 46.390625 
z
M 14.796875 27.296875 
Q 14.796875 17.390625 18.875 11.75 
Q 22.953125 6.109375 30.078125 6.109375 
Q 37.203125 6.109375 41.296875 11.75 
Q 45.40625 17.390625 45.40625 27.296875 
Q 45.40625 37.203125 41.296875 42.84375 
Q 37.203125 48.484375 30.078125 48.484375 
Q 22.953125 48.484375 18.875 42.84375 
Q 14.796875 37.203125 14.796875 27.296875 
z
" id="DejaVuSans-100"/>
       <path d="M 9.421875 54.6875 
L 18.40625 54.6875 
L 18.40625 0 
L 9.421875 0 
z
M 9.421875 75.984375 
L 18.40625 75.984375 
L 18.40625 64.59375 
L 9.421875 64.59375 
z
" id="DejaVuSans-105"/>
       <path d="M 52 44.1875 
Q 55.375 50.25 60.0625 53.125 
Q 64.75 56 71.09375 56 
Q 79.640625 56 84.28125 50.015625 
Q 88.921875 44.046875 88.921875 33.015625 
L 88.921875 0 
L 79.890625 0 
L 79.890625 32.71875 
Q 79.890625 40.578125 77.09375 44.375 
Q 74.3125 48.1875 68.609375 48.1875 
Q 61.625 48.1875 57.5625 43.546875 
Q 53.515625 38.921875 53.515625 30.90625 
L 53.515625 0 
L 44.484375 0 
L 44.484375 32.71875 
Q 44.484375 40.625 41.703125 44.40625 
Q 38.921875 48.1875 33.109375 48.1875 
Q 26.21875 48.1875 22.15625 43.53125 
Q 18.109375 38.875 18.109375 30.90625 
L 18.109375 0 
L 9.078125 0 
L 9.078125 54.6875 
L 18.109375 54.6875 
L 18.109375 46.1875 
Q 21.1875 51.21875 25.484375 53.609375 
Q 29.78125 56 35.6875 56 
Q 41.65625 56 45.828125 52.96875 
Q 50 49.953125 52 44.1875 
z
" id="DejaVuSans-109"/>
       <path d="M 54.890625 33.015625 
L 54.890625 0 
L 45.90625 0 
L 45.90625 32.71875 
Q 45.90625 40.484375 42.875 44.328125 
Q 39.84375 48.1875 33.796875 48.1875 
Q 26.515625 48.1875 22.3125 43.546875 
Q 18.109375 38.921875 18.109375 30.90625 
L 18.109375 0 
L 9.078125 0 
L 9.078125 54.6875 
L 18.109375 54.6875 
L 18.109375 46.1875 
Q 21.34375 51.125 25.703125 53.5625 
Q 30.078125 56 35.796875 56 
Q 45.21875 56 50.046875 50.171875 
Q 54.890625 44.34375 54.890625 33.015625 
z
" id="DejaVuSans-110"/>
       <path d="M 8.015625 75.875 
L 15.828125 75.875 
Q 23.140625 64.359375 26.78125 53.3125 
Q 30.421875 42.28125 30.421875 31.390625 
Q 30.421875 20.453125 26.78125 9.375 
Q 23.140625 -1.703125 15.828125 -13.1875 
L 8.015625 -13.1875 
Q 14.5 -2 17.703125 9.0625 
Q 20.90625 20.125 20.90625 31.390625 
Q 20.90625 42.671875 17.703125 53.65625 
Q 14.5 64.65625 8.015625 75.875 
z
" id="DejaVuSans-41"/>
      </defs>
      <use xlink:href="#DejaVuSans-108"/>
      <use x="27.783203" xlink:href="#DejaVuSans-111"/>
      <use x="88.964844" xlink:href="#DejaVuSans-103"/>
      <use x="152.441406" xlink:href="#DejaVuSans-49"/>
      <use x="216.064453" xlink:href="#DejaVuSans-48"/>
      <use x="279.6875" xlink:href="#DejaVuSans-40"/>
      <use x="318.701172" xlink:href="#DejaVuSans-35"/>
      <use x="402.490234" xlink:href="#DejaVuSans-32"/>
      <use x="434.277344" xlink:href="#DejaVuSans-102"/>
      <use x="463.982422" xlink:href="#DejaVuSans-45"/>
      <use x="500.066406" xlink:href="#DejaVuSans-101"/>
      <use x="561.589844" xlink:href="#DejaVuSans-118"/>
      <use x="620.769531" xlink:href="#DejaVuSans-97"/>
      <use x="682.048828" xlink:href="#DejaVuSans-108"/>
      <use x="709.832031" xlink:href="#DejaVuSans-115"/>
      <use x="761.931641" xlink:href="#DejaVuSans-32"/>
      <use x="793.71875" xlink:href="#DejaVuSans-47"/>
      <use x="827.410156" xlink:href="#DejaVuSans-32"/>
      <use x="859.197266" xlink:href="#DejaVuSans-100"/>
      <use x="922.673828" xlink:href="#DejaVuSans-105"/>
      <use x="950.457031" xlink:href="#DejaVuSans-109"/>
      <use x="1047.869141" xlink:href="#DejaVuSans-101"/>
      <use x="1109.392578" xlink:href="#DejaVuSans-110"/>
      <use x="1172.771484" xlink:href="#DejaVuSans-115"/>
      <use x="1224.871094" xlink:href="#DejaVuSans-105"/>
      <use x="1252.654297" xlink:href="#DejaVuSans-111"/>
      <use x="1313.835938" xlink:href="#DejaVuSans-110"/>
      <use x="1377.214844" xlink:href="#DejaVuSans-41"/>
     </g>
    </g>
   </g>
   <g id="matplotlib.axis_2">
    <g id="ytick_1">
     <g id="line2d_17">
      <path clip-path="url(#p6fd02b1dfb)" d="M 57.6 298.944 
L 338.688 298.944 
" style="fill:none;stroke:#b0b0b0;stroke-linecap:square;stroke-width:0.8;"/>
     </g>
     <g id="line2d_18">
      <defs>
       <path d="M 0 0 
L -3.5 0 
" id="mb3a83f13e7" style="stroke:#000000;stroke-width:0.8;"/>
      </defs>
      <g>
       <use style="stroke:#000000;stroke-width:0.8;" x="57.6" xlink:href="#mb3a83f13e7" y="298.944"/>
      </g>
     </g>
     <g id="text_6">
      <!-- 0.0 -->
      <g transform="translate(25.155 305.02275)scale(0.16 -0.16)">
       <defs>
        <path d="M 10.6875 12.40625 
L 21 12.40625 
L 21 0 
L 10.6875 0 
z
" id="DejaVuSans-46"/>
       </defs>
       <use xlink:href="#DejaVuSans-48"/>
       <use x="63.623047" xlink:href="#DejaVuSans-46"/>
       <use x="95.410156" xlink:href="#DejaVuSans-48"/>
      </g>
     </g>
    </g>
    <g id="ytick_2">
     <g id="line2d_19">
      <path clip-path="url(#p6fd02b1dfb)" d="M 57.6 240.431525 
L 338.688 240.431525 
" style="fill:none;stroke:#b0b0b0;stroke-linecap:square;stroke-width:0.8;"/>
     </g>
     <g id="line2d_20">
      <g>
       <use style="stroke:#000000;stroke-width:0.8;" x="57.6" xlink:href="#mb3a83f13e7" y="240.431525"/>
      </g>
     </g>
     <g id="text_7">
      <!-- 0.2 -->
      <g transform="translate(25.155 246.510275)scale(0.16 -0.16)">
       <use xlink:href="#DejaVuSans-48"/>
       <use x="63.623047" xlink:href="#DejaVuSans-46"/>
       <use x="95.410156" xlink:href="#DejaVuSans-50"/>
      </g>
     </g>
    </g>
    <g id="ytick_3">
     <g id="line2d_21">
      <path clip-path="url(#p6fd02b1dfb)" d="M 57.6 181.91905 
L 338.688 181.91905 
" style="fill:none;stroke:#b0b0b0;stroke-linecap:square;stroke-width:0.8;"/>
     </g>
     <g id="line2d_22">
      <g>
       <use style="stroke:#000000;stroke-width:0.8;" x="57.6" xlink:href="#mb3a83f13e7" y="181.91905"/>
      </g>
     </g>
     <g id="text_8">
      <!-- 0.4 -->
      <g transform="translate(25.155 187.9978)scale(0.16 -0.16)">
       <use xlink:href="#DejaVuSans-48"/>
       <use x="63.623047" xlink:href="#DejaVuSans-46"/>
       <use x="95.410156" xlink:href="#DejaVuSans-52"/>
      </g>
     </g>
    </g>
    <g id="ytick_4">
     <g id="line2d_23">
      <path clip-path="url(#p6fd02b1dfb)" d="M 57.6 123.406574 
L 338.688 123.406574 
" style="fill:none;stroke:#b0b0b0;stroke-linecap:square;stroke-width:0.8;"/>
     </g>
     <g id="line2d_24">
      <g>
       <use style="stroke:#000000;stroke-width:0.8;" x="57.6" xlink:href="#mb3a83f13e7" y="123.406574"/>
      </g>
     </g>
     <g id="text_9">
      <!-- 0.6 -->
      <g transform="translate(25.155 129.485324)scale(0.16 -0.16)">
       <use xlink:href="#DejaVuSans-48"/>
       <use x="63.623047" xlink:href="#DejaVuSans-46"/>
       <use x="95.410156" xlink:href="#DejaVuSans-54"/>
      </g>
     </g>
    </g>
    <g id="ytick_5">
     <g id="line2d_25">
      <path clip-path="url(#p6fd02b1dfb)" d="M 57.6 64.894099 
L 338.688 64.894099 
" style="fill:none;stroke:#b0b0b0;stroke-linecap:square;stroke-width:0.8;"/>
     </g>
     <g id="line2d_26">
      <g>
       <use style="stroke:#000000;stroke-width:0.8;" x="57.6" xlink:href="#mb3a83f13e7" y="64.894099"/>
      </g>
     </g>
     <g id="text_10">
      <!-- 0.8 -->
      <g transform="translate(25.155 70.972849)scale(0.16 -0.16)">
       <defs>
        <path d="M 31.78125 34.625 
Q 24.75 34.625 20.71875 30.859375 
Q 16.703125 27.09375 16.703125 20.515625 
Q 16.703125 13.921875 20.71875 10.15625 
Q 24.75 6.390625 31.78125 6.390625 
Q 38.8125 6.390625 42.859375 10.171875 
Q 46.921875 13.96875 46.921875 20.515625 
Q 46.921875 27.09375 42.890625 30.859375 
Q 38.875 34.625 31.78125 34.625 
z
M 21.921875 38.8125 
Q 15.578125 40.375 12.03125 44.71875 
Q 8.5 49.078125 8.5 55.328125 
Q 8.5 64.0625 14.71875 69.140625 
Q 20.953125 74.21875 31.78125 74.21875 
Q 42.671875 74.21875 48.875 69.140625 
Q 55.078125 64.0625 55.078125 55.328125 
Q 55.078125 49.078125 51.53125 44.71875 
Q 48 40.375 41.703125 38.8125 
Q 48.828125 37.15625 52.796875 32.3125 
Q 56.78125 27.484375 56.78125 20.515625 
Q 56.78125 9.90625 50.3125 4.234375 
Q 43.84375 -1.421875 31.78125 -1.421875 
Q 19.734375 -1.421875 13.25 4.234375 
Q 6.78125 9.90625 6.78125 20.515625 
Q 6.78125 27.484375 10.78125 32.3125 
Q 14.796875 37.15625 21.921875 38.8125 
z
M 18.3125 54.390625 
Q 18.3125 48.734375 21.84375 45.5625 
Q 25.390625 42.390625 31.78125 42.390625 
Q 38.140625 42.390625 41.71875 45.5625 
Q 45.3125 48.734375 45.3125 54.390625 
Q 45.3125 60.0625 41.71875 63.234375 
Q 38.140625 66.40625 31.78125 66.40625 
Q 25.390625 66.40625 21.84375 63.234375 
Q 18.3125 60.0625 18.3125 54.390625 
z
" id="DejaVuSans-56"/>
       </defs>
       <use xlink:href="#DejaVuSans-48"/>
       <use x="63.623047" xlink:href="#DejaVuSans-46"/>
       <use x="95.410156" xlink:href="#DejaVuSans-56"/>
      </g>
     </g>
    </g>
    <g id="ytick_6">
     <g id="line2d_27">
      <path clip-path="url(#p6fd02b1dfb)" d="M 57.6 6.381624 
L 338.688 6.381624 
" style="fill:none;stroke:#b0b0b0;stroke-linecap:square;stroke-width:0.8;"/>
     </g>
     <g id="line2d_28">
      <g>
       <use style="stroke:#000000;stroke-width:0.8;" x="57.6" xlink:href="#mb3a83f13e7" y="6.381624"/>
      </g>
     </g>
     <g id="text_11">
      <!-- 1.0 -->
      <g transform="translate(25.155 12.460374)scale(0.16 -0.16)">
       <use xlink:href="#DejaVuSans-49"/>
       <use x="63.623047" xlink:href="#DejaVuSans-46"/>
       <use x="95.410156" xlink:href="#DejaVuSans-48"/>
      </g>
     </g>
    </g>
    <g id="text_12">
     <!-- Fraction of function,target pairs -->
     <g transform="translate(17.619531 285.585)rotate(-90)scale(0.17 -0.17)">
      <defs>
       <path d="M 9.8125 72.90625 
L 51.703125 72.90625 
L 51.703125 64.59375 
L 19.671875 64.59375 
L 19.671875 43.109375 
L 48.578125 43.109375 
L 48.578125 34.8125 
L 19.671875 34.8125 
L 19.671875 0 
L 9.8125 0 
z
" id="DejaVuSans-70"/>
       <path d="M 41.109375 46.296875 
Q 39.59375 47.171875 37.8125 47.578125 
Q 36.03125 48 33.890625 48 
Q 26.265625 48 22.1875 43.046875 
Q 18.109375 38.09375 18.109375 28.8125 
L 18.109375 0 
L 9.078125 0 
L 9.078125 54.6875 
L 18.109375 54.6875 
L 18.109375 46.1875 
Q 20.953125 51.171875 25.484375 53.578125 
Q 30.03125 56 36.53125 56 
Q 37.453125 56 38.578125 55.875 
Q 39.703125 55.765625 41.0625 55.515625 
z
" id="DejaVuSans-114"/>
       <path d="M 48.78125 52.59375 
L 48.78125 44.1875 
Q 44.96875 46.296875 41.140625 47.34375 
Q 37.3125 48.390625 33.40625 48.390625 
Q 24.65625 48.390625 19.8125 42.84375 
Q 14.984375 37.3125 14.984375 27.296875 
Q 14.984375 17.28125 19.8125 11.734375 
Q 24.65625 6.203125 33.40625 6.203125 
Q 37.3125 6.203125 41.140625 7.25 
Q 44.96875 8.296875 48.78125 10.40625 
L 48.78125 2.09375 
Q 45.015625 0.34375 40.984375 -0.53125 
Q 36.96875 -1.421875 32.421875 -1.421875 
Q 20.0625 -1.421875 12.78125 6.34375 
Q 5.515625 14.109375 5.515625 27.296875 
Q 5.515625 40.671875 12.859375 48.328125 
Q 20.21875 56 33.015625 56 
Q 37.15625 56 41.109375 55.140625 
Q 45.0625 54.296875 48.78125 52.59375 
z
" id="DejaVuSans-99"/>
       <path d="M 18.3125 70.21875 
L 18.3125 54.6875 
L 36.8125 54.6875 
L 36.8125 47.703125 
L 18.3125 47.703125 
L 18.3125 18.015625 
Q 18.3125 11.328125 20.140625 9.421875 
Q 21.96875 7.515625 27.59375 7.515625 
L 36.8125 7.515625 
L 36.8125 0 
L 27.59375 0 
Q 17.1875 0 13.234375 3.875 
Q 9.28125 7.765625 9.28125 18.015625 
L 9.28125 47.703125 
L 2.6875 47.703125 
L 2.6875 54.6875 
L 9.28125 54.6875 
L 9.28125 70.21875 
z
" id="DejaVuSans-116"/>
       <path d="M 8.5 21.578125 
L 8.5 54.6875 
L 17.484375 54.6875 
L 17.484375 21.921875 
Q 17.484375 14.15625 20.5 10.265625 
Q 23.53125 6.390625 29.59375 6.390625 
Q 36.859375 6.390625 41.078125 11.03125 
Q 45.3125 15.671875 45.3125 23.6875 
L 45.3125 54.6875 
L 54.296875 54.6875 
L 54.296875 0 
L 45.3125 0 
L 45.3125 8.40625 
Q 42.046875 3.421875 37.71875 1 
Q 33.40625 -1.421875 27.6875 -1.421875 
Q 18.265625 -1.421875 13.375 4.4375 
Q 8.5 10.296875 8.5 21.578125 
z
M 31.109375 56 
z
" id="DejaVuSans-117"/>
       <path d="M 11.71875 12.40625 
L 22.015625 12.40625 
L 22.015625 4 
L 14.015625 -11.625 
L 7.71875 -11.625 
L 11.71875 4 
z
" id="DejaVuSans-44"/>
       <path d="M 18.109375 8.203125 
L 18.109375 -20.796875 
L 9.078125 -20.796875 
L 9.078125 54.6875 
L 18.109375 54.6875 
L 18.109375 46.390625 
Q 20.953125 51.265625 25.265625 53.625 
Q 29.59375 56 35.59375 56 
Q 45.5625 56 51.78125 48.09375 
Q 58.015625 40.1875 58.015625 27.296875 
Q 58.015625 14.40625 51.78125 6.484375 
Q 45.5625 -1.421875 35.59375 -1.421875 
Q 29.59375 -1.421875 25.265625 0.953125 
Q 20.953125 3.328125 18.109375 8.203125 
z
M 48.6875 27.296875 
Q 48.6875 37.203125 44.609375 42.84375 
Q 40.53125 48.484375 33.40625 48.484375 
Q 26.265625 48.484375 22.1875 42.84375 
Q 18.109375 37.203125 18.109375 27.296875 
Q 18.109375 17.390625 22.1875 11.75 
Q 26.265625 6.109375 33.40625 6.109375 
Q 40.53125 6.109375 44.609375 11.75 
Q 48.6875 17.390625 48.6875 27.296875 
z
" id="DejaVuSans-112"/>
      </defs>
      <use xlink:href="#DejaVuSans-70"/>
      <use x="50.269531" xlink:href="#DejaVuSans-114"/>
      <use x="91.382812" xlink:href="#DejaVuSans-97"/>
      <use x="152.662109" xlink:href="#DejaVuSans-99"/>
      <use x="207.642578" xlink:href="#DejaVuSans-116"/>
      <use x="246.851562" xlink:href="#DejaVuSans-105"/>
      <use x="274.634766" xlink:href="#DejaVuSans-111"/>
      <use x="335.816406" xlink:href="#DejaVuSans-110"/>
      <use x="399.195312" xlink:href="#DejaVuSans-32"/>
      <use x="430.982422" xlink:href="#DejaVuSans-111"/>
      <use x="492.164062" xlink:href="#DejaVuSans-102"/>
      <use x="527.369141" xlink:href="#DejaVuSans-32"/>
      <use x="559.15625" xlink:href="#DejaVuSans-102"/>
      <use x="594.361328" xlink:href="#DejaVuSans-117"/>
      <use x="657.740234" xlink:href="#DejaVuSans-110"/>
      <use x="721.119141" xlink:href="#DejaVuSans-99"/>
      <use x="776.099609" xlink:href="#DejaVuSans-116"/>
      <use x="815.308594" xlink:href="#DejaVuSans-105"/>
      <use x="843.091797" xlink:href="#DejaVuSans-111"/>
      <use x="904.273438" xlink:href="#DejaVuSans-110"/>
      <use x="967.652344" xlink:href="#DejaVuSans-44"/>
      <use x="999.439453" xlink:href="#DejaVuSans-116"/>
      <use x="1038.648438" xlink:href="#DejaVuSans-97"/>
      <use x="1099.927734" xlink:href="#DejaVuSans-114"/>
      <use x="1139.291016" xlink:href="#DejaVuSans-103"/>
      <use x="1202.767578" xlink:href="#DejaVuSans-101"/>
      <use x="1264.291016" xlink:href="#DejaVuSans-116"/>
      <use x="1303.5" xlink:href="#DejaVuSans-32"/>
      <use x="1335.287109" xlink:href="#DejaVuSans-112"/>
      <use x="1398.763672" xlink:href="#DejaVuSans-97"/>
      <use x="1460.042969" xlink:href="#DejaVuSans-105"/>
      <use x="1487.826172" xlink:href="#DejaVuSans-114"/>
      <use x="1528.939453" xlink:href="#DejaVuSans-115"/>
     </g>
    </g>
   </g>
   <g id="line2d_29">
    <defs>
     <path d="M 0 1.5 
C 0.397805 1.5 0.77937 1.341951 1.06066 1.06066 
C 1.341951 0.77937 1.5 0.397805 1.5 0 
C 1.5 -0.397805 1.341951 -0.77937 1.06066 -1.06066 
C 0.77937 -1.341951 0.397805 -1.5 0 -1.5 
C -0.397805 -1.5 -0.77937 -1.341951 -1.06066 -1.06066 
C -1.341951 -0.77937 -1.5 -0.397805 -1.5 0 
C -1.5 0.397805 -1.341951 0.77937 -1.06066 1.06066 
C -0.77937 1.341951 -0.397805 1.5 0 1.5 
z
" id="mb3d62b224d" style="stroke:#000080;"/>
    </defs>
    <g>
     <use style="fill:#000080;stroke:#000080;" x="175.108535" xlink:href="#mb3d62b224d" y="6.381624"/>
     <use style="fill:#000080;stroke:#000080;" x="175.108535" xlink:href="#mb3d62b224d" y="6.381624"/>
    </g>
   </g>
   <g id="line2d_30">
    <path d="M 99.41757 298.944 
L 99.41757 297.223045 
L 105.398279 297.223045 
L 105.398279 296.075741 
L 111.505558 296.075741 
L 111.505558 294.354786 
L 118.576578 294.354786 
L 118.576578 290.339224 
L 119.602714 290.339224 
L 119.602714 289.191921 
L 121.489881 289.191921 
L 121.489881 288.618269 
L 125.822869 288.618269 
L 125.822869 284.602707 
L 127.954256 284.602707 
L 127.954256 284.029055 
L 128.107907 284.029055 
L 128.107907 283.455404 
L 129.433047 283.455404 
L 129.433047 282.881752 
L 129.714332 282.881752 
L 129.714332 281.734448 
L 132.777237 281.734448 
L 132.777237 278.86619 
L 133.352844 278.86619 
L 133.352844 278.292538 
L 134.236034 278.292538 
L 134.236034 277.718886 
L 134.973757 277.718886 
L 134.973757 275.42428 
L 135.381712 275.42428 
L 135.381712 272.556021 
L 135.681535 272.556021 
L 135.681535 270.835066 
L 136.073445 270.835066 
L 136.073445 269.687762 
L 136.266147 269.687762 
L 136.361705 266.245852 
L 137.016339 266.245852 
L 137.107884 264.524897 
L 137.37967 264.524897 
L 137.37967 263.951245 
L 137.735587 263.951245 
L 137.735587 261.082987 
L 138.084384 261.082987 
L 138.084384 258.78838 
L 138.256201 258.78838 
L 138.256201 257.641076 
L 139.413734 257.641076 
L 139.413734 257.067425 
L 139.572998 257.067425 
L 139.572998 256.493773 
L 139.887228 256.493773 
L 139.887228 255.920121 
L 140.042245 255.920121 
L 140.042245 253.625514 
L 140.499195 253.625514 
L 140.499195 253.051863 
L 141.162927 253.051863 
L 141.162927 251.330907 
L 142.010346 251.330907 
L 142.010346 250.183604 
L 147.010073 250.183604 
L 147.010073 249.609952 
L 147.86833 249.609952 
L 147.86833 249.036301 
L 148.064279 249.036301 
L 148.064279 248.462649 
L 148.592055 248.462649 
L 148.592055 247.888997 
L 149.15016 247.888997 
L 149.15016 247.315345 
L 149.286939 247.315345 
L 149.377533 246.168042 
L 149.422654 246.168042 
L 149.422654 245.59439 
L 149.867558 245.59439 
L 149.911431 244.447087 
L 149.998846 244.447087 
L 149.998846 243.299783 
L 150.47195 243.299783 
L 150.47195 242.726132 
L 150.973835 242.726132 
L 150.973835 242.15248 
L 152.245598 242.15248 
L 152.322086 239.857873 
L 152.922207 239.857873 
L 152.922207 238.71057 
L 153.214697 238.71057 
L 153.323128 236.415963 
L 153.430889 236.415963 
L 153.430889 235.842311 
L 154.439623 235.842311 
L 154.439623 235.268659 
L 154.57429 235.268659 
L 154.57429 234.695008 
L 155.990803 234.695008 
L 155.990803 234.121356 
L 156.175347 234.121356 
L 156.175347 233.547704 
L 156.297301 233.547704 
L 156.297301 232.400401 
L 156.478647 232.400401 
L 156.568618 229.532142 
L 157.011638 229.532142 
L 157.011638 228.95849 
L 157.185742 228.95849 
L 157.243392 227.811187 
L 157.300853 227.811187 
L 157.38669 226.663884 
L 157.500487 226.663884 
L 157.500487 226.090232 
L 157.697862 226.090232 
L 157.697862 224.942928 
L 157.809652 224.942928 
L 157.920731 223.795625 
L 157.976006 223.795625 
L 158.003578 222.648321 
L 158.113432 222.648321 
L 158.168101 221.501018 
L 158.331086 221.501018 
L 158.385078 219.780063 
L 158.465753 219.780063 
L 158.51933 217.485456 
L 158.75841 217.485456 
L 158.83738 216.338153 
L 159.020266 216.338153 
L 159.020266 215.764501 
L 159.149734 215.764501 
L 159.149734 214.617197 
L 159.303838 214.617197 
L 159.354904 212.322591 
L 159.557689 212.322591 
L 159.658204 207.159725 
L 159.683242 207.159725 
L 159.683242 206.012422 
L 159.832723 206.012422 
L 159.882266 203.144163 
L 160.127894 203.144163 
L 160.200913 197.981298 
L 160.249422 197.981298 
L 160.297798 196.260342 
L 160.418152 196.260342 
L 160.489968 193.965736 
L 160.585265 193.965736 
L 160.680044 192.24478 
L 160.727241 192.24478 
L 160.821253 189.950174 
L 160.891432 189.950174 
L 160.961329 188.229218 
L 161.007772 188.229218 
L 161.007772 187.655567 
L 161.192316 187.655567 
L 161.192316 187.081915 
L 161.397621 187.081915 
L 161.397621 185.934612 
L 161.555647 185.934612 
L 161.622937 183.640005 
L 161.712255 183.640005 
L 161.823263 177.903487 
L 161.999419 177.903487 
L 162.065021 175.035229 
L 162.303474 175.035229 
L 162.303474 174.461577 
L 162.496175 174.461577 
L 162.581141 163.562195 
L 162.665696 163.562195 
L 162.770815 161.267588 
L 162.854457 161.267588 
L 162.9377 153.810115 
L 163.020547 153.810115 
L 163.103002 147.499946 
L 163.246367 147.499946 
L 163.287113 144.631688 
L 163.609699 144.631688 
L 163.669525 141.763429 
L 163.748975 141.763429 
L 163.847782 136.600564 
L 163.887148 136.600564 
L 163.985177 134.879609 
L 164.004716 134.879609 
L 164.082658 130.290395 
L 164.160252 130.290395 
L 164.237502 128.56944 
L 164.295217 128.56944 
L 164.35274 127.422136 
L 164.429145 127.422136 
L 164.486229 126.274833 
L 164.562052 126.274833 
L 164.618704 123.406574 
L 164.768882 123.406574 
L 164.843488 115.37545 
L 165.010195 115.37545 
L 165.102127 113.080843 
L 165.138764 113.080843 
L 165.211808 107.344326 
L 165.266391 107.344326 
L 165.320804 106.197023 
L 165.46508 106.197023 
L 165.46508 105.049719 
L 165.732422 105.049719 
L 165.732422 103.902416 
L 165.960849 103.902416 
L 166.013141 99.313202 
L 166.099947 99.313202 
L 166.203547 94.150337 
L 166.306535 94.150337 
L 166.374858 88.413819 
L 166.425924 88.413819 
L 166.493781 79.235392 
L 166.578233 79.235392 
L 166.628709 76.940785 
L 166.729224 76.940785 
L 166.779265 74.072526 
L 166.845764 74.072526 
L 166.895472 69.483313 
L 167.174506 69.483313 
L 167.271933 67.188706 
L 167.288118 67.188706 
L 167.304287 58.58393 
L 167.417059 58.58393 
L 167.465168 55.715672 
L 167.608702 55.715672 
L 167.640438 53.994716 
L 167.751064 53.994716 
L 167.860992 49.979154 
L 167.970232 49.979154 
L 168.078792 45.389941 
L 168.171308 45.389941 
L 168.278627 40.227075 
L 168.293904 40.227075 
L 168.400474 36.785165 
L 168.879523 36.785165 
L 168.879523 35.637861 
L 169.186895 35.637861 
L 169.186895 33.916906 
L 169.316986 33.916906 
L 169.316986 33.343255 
L 169.51744 33.343255 
L 169.588476 32.195951 
L 169.645097 32.195951 
L 169.729685 31.048648 
L 169.75779 31.048648 
L 169.75779 29.901344 
L 169.925477 29.901344 
L 170.022555 27.033086 
L 170.132843 27.033086 
L 170.132843 24.738479 
L 170.26973 24.738479 
L 170.26973 24.164827 
L 170.526891 24.164827 
L 170.59394 21.87022 
L 170.700684 21.87022 
L 170.700684 19.001962 
L 171.069226 19.001962 
L 171.069226 18.42831 
L 171.18605 18.42831 
L 171.18605 17.281006 
L 172.093501 17.281006 
L 172.093501 16.707355 
L 172.313173 16.707355 
L 172.313173 16.133703 
L 172.446067 16.133703 
L 172.446067 14.9864 
L 172.696997 14.9864 
L 172.696997 12.118141 
L 173.485609 12.118141 
L 173.485609 10.970838 
L 173.621148 10.970838 
L 173.710926 8.676231 
L 174.434469 8.676231 
L 174.434469 8.102579 
L 174.594807 8.102579 
L 174.594807 7.528927 
L 175.108535 7.528927 
L 175.108535 6.381624 
L 338.688 6.381624 
L 338.688 6.381624 
" style="fill:none;stroke:#000080;stroke-linecap:square;stroke-width:1.5;"/>
   </g>
   <g id="line2d_31">
    <defs>
     <path d="M 0 6 
C 1.591219 6 3.117479 5.367802 4.242641 4.242641 
C 5.367802 3.117479 6 1.591219 6 0 
C 6 -1.591219 5.367802 -3.117479 4.242641 -4.242641 
C 3.117479 -5.367802 1.591219 -6 0 -6 
C -1.591219 -6 -3.117479 -5.367802 -4.242641 -4.242641 
C -5.367802 -3.117479 -6 -1.591219 -6 0 
C -6 1.591219 -5.367802 3.117479 -4.242641 4.242641 
C -3.117479 5.367802 -1.591219 6 0 6 
z
" id="m63754d222b" style="stroke:#000080;stroke-width:1.5;"/>
    </defs>
    <g>
     <use style="fill-opacity:0;stroke:#000080;stroke-width:1.5;" x="159.32939" xlink:href="#m63754d222b" y="214.043546"/>
     <use style="fill-opacity:0;stroke:#000080;stroke-width:1.5;" x="167.608702" xlink:href="#m63754d222b" y="54.568368"/>
     <use style="fill-opacity:0;stroke:#000080;stroke-width:1.5;" x="175.108535" xlink:href="#m63754d222b" y="7.528927"/>
     <use style="fill-opacity:0;stroke:#000080;stroke-width:1.5;" x="175.108535" xlink:href="#m63754d222b" y="6.381624"/>
     <use style="fill-opacity:0;stroke:#000080;stroke-width:1.5;" x="338.688" xlink:href="#m63754d222b" y="6.381624"/>
    </g>
   </g>
   <g id="line2d_32">
    <path style="fill:none;stroke:#000080;stroke-linecap:square;stroke-width:1.5;"/>
    <g/>
   </g>
   <g id="line2d_33">
    <defs>
     <path d="M 0 1.5 
C 0.397805 1.5 0.77937 1.341951 1.06066 1.06066 
C 1.341951 0.77937 1.5 0.397805 1.5 0 
C 1.5 -0.397805 1.341951 -0.77937 1.06066 -1.06066 
C 0.77937 -1.341951 0.397805 -1.5 0 -1.5 
C -0.397805 -1.5 -0.77937 -1.341951 -1.06066 -1.06066 
C -1.341951 -0.77937 -1.5 -0.397805 -1.5 0 
C -1.5 0.397805 -1.341951 0.77937 -1.06066 1.06066 
C -0.77937 1.341951 -0.397805 1.5 0 1.5 
z
" id="m5ae5b75ef5" style="stroke:#ff00ff;"/>
    </defs>
    <g>
     <use style="fill:#ff00ff;stroke:#ff00ff;" x="173.83362" xlink:href="#m5ae5b75ef5" y="6.381624"/>
     <use style="fill:#ff00ff;stroke:#ff00ff;" x="173.83362" xlink:href="#m5ae5b75ef5" y="6.381624"/>
    </g>
   </g>
   <g id="line2d_34">
    <path d="M 104.23523 298.944 
L 104.23523 296.075741 
L 115.711251 296.075741 
L 115.711251 294.928438 
L 118.039942 294.928438 
L 118.039942 291.486528 
L 124.92835 291.486528 
L 124.92835 290.912876 
L 125.110962 290.912876 
L 125.110962 289.191921 
L 127.48501 289.191921 
L 127.48501 288.618269 
L 127.954256 288.618269 
L 127.954256 287.470966 
L 129.853291 287.470966 
L 129.853291 286.897314 
L 129.991152 286.897314 
L 129.991152 283.455404 
L 130.796184 283.455404 
L 130.796184 282.881752 
L 133.009765 282.881752 
L 133.009765 281.734448 
L 133.910056 281.734448 
L 133.910056 277.718886 
L 134.236034 277.718886 
L 134.236034 275.997931 
L 134.55603 275.997931 
L 134.55603 271.982369 
L 134.973757 271.982369 
L 134.973757 266.245852 
L 135.381712 266.245852 
L 135.381712 265.098549 
L 135.582166 265.098549 
L 135.582166 264.524897 
L 136.170062 264.524897 
L 136.170062 262.23029 
L 136.924311 262.23029 
L 137.016339 260.509335 
L 137.558536 260.509335 
L 137.558536 259.935683 
L 138.256201 259.935683 
L 138.256201 258.78838 
L 139.172077 258.78838 
L 139.253002 255.920121 
L 139.493548 255.920121 
L 139.493548 255.346469 
L 140.272217 255.346469 
L 140.272217 253.625514 
L 140.499195 253.625514 
L 140.499195 251.904559 
L 141.017599 251.904559 
L 141.017599 251.330907 
L 142.486301 251.330907 
L 142.486301 250.183604 
L 142.686372 250.183604 
L 142.686372 248.462649 
L 142.949611 248.462649 
L 142.949611 247.315345 
L 143.144465 247.315345 
L 143.144465 246.741694 
L 144.148442 246.741694 
L 144.148442 245.020738 
L 145.721664 245.020738 
L 145.721664 243.873435 
L 151.381313 243.873435 
L 151.381313 243.299783 
L 151.818809 243.299783 
L 151.818809 242.726132 
L 152.322086 242.726132 
L 152.322086 242.15248 
L 152.662192 242.15248 
L 152.662192 239.857873 
L 153.069065 239.857873 
L 153.069065 238.136918 
L 153.395042 238.136918 
L 153.395042 236.989614 
L 153.715038 236.989614 
L 153.715038 235.842311 
L 154.405793 235.842311 
L 154.405793 235.268659 
L 154.57429 235.268659 
L 154.57429 234.695008 
L 155.55245 234.695008 
L 155.55245 234.121356 
L 155.741666 234.121356 
L 155.741666 233.547704 
L 155.86668 233.547704 
L 155.86668 232.974052 
L 156.266892 232.974052 
L 156.297301 231.253097 
L 156.38821 231.253097 
L 156.38821 230.679446 
L 156.806295 230.679446 
L 156.806295 228.384839 
L 157.185742 228.384839 
L 157.214591 220.353715 
L 157.472107 220.353715 
L 157.472107 218.632759 
L 157.697862 218.632759 
L 157.753847 216.338153 
L 157.976006 216.338153 
L 158.031107 215.190849 
L 158.168101 215.190849 
L 158.249784 213.469894 
L 158.385078 213.469894 
L 158.465753 211.175287 
L 158.51933 211.175287 
L 158.572743 208.88068 
L 158.705563 208.88068 
L 158.705563 205.43877 
L 158.915995 205.43877 
L 158.968208 203.717815 
L 159.149734 203.717815 
L 159.175513 200.275904 
L 159.278248 200.275904 
L 159.32939 199.128601 
L 159.456591 199.128601 
L 159.507213 192.24478 
L 159.658204 192.24478 
L 159.683242 190.523825 
L 159.882266 190.523825 
L 159.931669 188.229218 
L 160.273627 188.229218 
L 160.346039 180.771746 
L 160.489968 180.771746 
L 160.56149 178.477139 
L 160.609008 178.477139 
L 160.656397 175.608881 
L 160.727241 175.608881 
L 160.821253 172.740622 
L 160.891432 172.740622 
L 160.984566 169.872363 
L 161.007772 169.872363 
L 161.077205 168.151408 
L 161.329454 168.151408 
L 161.420284 162.988543 
L 161.442917 162.988543 
L 161.53316 161.841239 
L 161.555647 161.841239 
L 161.555647 161.267588 
L 161.712255 161.267588 
L 161.756743 157.825677 
L 161.955547 157.825677 
L 162.065021 153.810115 
L 162.496175 153.810115 
L 162.53871 148.073598 
L 162.665696 148.073598 
L 162.770815 140.042474 
L 162.854457 140.042474 
L 162.958448 137.747867 
L 163.020547 137.747867 
L 163.020547 136.600564 
L 163.327764 136.600564 
L 163.428979 133.158653 
L 163.52961 133.158653 
L 163.609699 132.01135 
L 163.669525 132.01135 
L 163.768781 121.111967 
L 163.847782 121.111967 
L 163.847782 118.243709 
L 164.004716 118.243709 
L 164.082658 113.080843 
L 164.218222 113.080843 
L 164.256762 109.065281 
L 164.390984 109.065281 
L 164.486229 107.344326 
L 164.505216 107.344326 
L 164.505216 106.770674 
L 164.675172 106.770674 
L 164.693955 105.623371 
L 164.824867 105.623371 
L 164.843488 102.755112 
L 165.065412 102.755112 
L 165.120455 101.034157 
L 165.211808 101.034157 
L 165.266391 94.150337 
L 165.356985 94.150337 
L 165.356985 91.282078 
L 165.697012 91.282078 
L 165.697012 90.708426 
L 165.925901 90.708426 
L 166.013141 85.545561 
L 166.169082 85.545561 
L 166.237944 81.529999 
L 166.306535 81.529999 
L 166.408919 75.793482 
L 166.459886 75.793482 
L 166.561376 72.351571 
L 166.662278 72.351571 
L 166.74592 71.204268 
L 166.779265 71.204268 
L 166.829163 68.336009 
L 166.96153 68.336009 
L 166.994465 64.320447 
L 167.109252 64.320447 
L 167.125588 62.599492 
L 167.304287 62.599492 
L 167.400994 58.010278 
L 168.001318 58.010278 
L 168.001318 57.436627 
L 168.278627 57.436627 
L 168.370092 51.700109 
L 168.430803 51.700109 
L 168.491304 48.258199 
L 168.671556 48.258199 
L 168.671556 47.110896 
L 169.186895 47.110896 
L 169.186895 46.537244 
L 169.331381 46.537244 
L 169.345764 42.521682 
L 169.588476 42.521682 
L 169.602648 38.50612 
L 169.75779 38.50612 
L 169.827856 35.06421 
L 170.008719 35.06421 
L 170.008719 34.490558 
L 170.132843 34.490558 
L 170.132843 33.343255 
L 170.459584 33.343255 
L 170.526891 29.901344 
L 170.59394 29.901344 
L 170.687376 28.180389 
L 170.753812 28.180389 
L 170.846398 23.591175 
L 170.912232 23.591175 
L 170.912232 22.443872 
L 171.276376 22.443872 
L 171.276376 21.296568 
L 171.404607 21.296568 
L 171.455636 20.149265 
L 171.595202 20.149265 
L 171.595202 18.42831 
L 172.458099 18.42831 
L 172.458099 17.854658 
L 172.649478 17.854658 
L 172.708856 12.118141 
L 173.118935 12.118141 
L 173.118935 9.823534 
L 173.394661 9.823534 
L 173.394661 9.249882 
L 173.766803 9.249882 
L 173.83362 6.381624 
L 338.688 6.381624 
L 338.688 6.381624 
" style="fill:none;stroke:#ff00ff;stroke-linecap:square;stroke-width:1.5;"/>
   </g>
   <g id="line2d_35">
    <defs>
     <path d="M -0 8.485281 
L 5.091169 0 
L 0 -8.485281 
L -5.091169 -0 
z
" id="m7df95e4b5e" style="stroke:#ff00ff;stroke-linejoin:miter;stroke-width:1.5;"/>
    </defs>
    <g>
     <use style="fill-opacity:0;stroke:#ff00ff;stroke-linejoin:miter;stroke-width:1.5;" x="163.748975" xlink:href="#m7df95e4b5e" y="125.127529"/>
     <use style="fill-opacity:0;stroke:#ff00ff;stroke-linejoin:miter;stroke-width:1.5;" x="173.83362" xlink:href="#m7df95e4b5e" y="8.676231"/>
     <use style="fill-opacity:0;stroke:#ff00ff;stroke-linejoin:miter;stroke-width:1.5;" x="173.83362" xlink:href="#m7df95e4b5e" y="6.381624"/>
     <use style="fill-opacity:0;stroke:#ff00ff;stroke-linejoin:miter;stroke-width:1.5;" x="173.83362" xlink:href="#m7df95e4b5e" y="6.381624"/>
     <use style="fill-opacity:0;stroke:#ff00ff;stroke-linejoin:miter;stroke-width:1.5;" x="338.688" xlink:href="#m7df95e4b5e" y="6.381624"/>
    </g>
   </g>
   <g id="line2d_36">
    <path style="fill:none;stroke:#ff00ff;stroke-linecap:square;stroke-width:1.5;"/>
    <g/>
   </g>
   <g id="line2d_37">
    <defs>
     <path d="M 0 1.5 
C 0.397805 1.5 0.77937 1.341951 1.06066 1.06066 
C 1.341951 0.77937 1.5 0.397805 1.5 0 
C 1.5 -0.397805 1.341951 -0.77937 1.06066 -1.06066 
C 0.77937 -1.341951 0.397805 -1.5 0 -1.5 
C -0.397805 -1.5 -0.77937 -1.341951 -1.06066 -1.06066 
C -1.341951 -0.77937 -1.5 -0.397805 -1.5 0 
C -1.5 0.397805 -1.341951 0.77937 -1.06066 1.06066 
C -0.77937 1.341951 -0.397805 1.5 0 1.5 
z
" id="m7bef438e3b" style="stroke:#ff7500;"/>
    </defs>
    <g>
     <use style="fill:#ff7500;stroke:#ff7500;" x="210.929122" xlink:href="#m7bef438e3b" y="6.381624"/>
     <use style="fill:#ff7500;stroke:#ff7500;" x="210.929122" xlink:href="#m7bef438e3b" y="6.381624"/>
    </g>
   </g>
   <g id="line2d_38">
    <path d="M 102.989037 298.944 
L 102.989037 295.50209 
L 109.401893 295.50209 
L 109.401893 294.928438 
L 116.019919 294.928438 
L 116.019919 291.486528 
L 116.914437 291.486528 
L 116.914437 289.765573 
L 121.489881 289.765573 
L 121.489881 289.191921 
L 122.988655 289.191921 
L 122.988655 288.618269 
L 123.394238 288.618269 
L 123.394238 286.323662 
L 124.743806 286.323662 
L 124.743806 285.75001 
L 125.647598 285.75001 
L 125.647598 284.029055 
L 125.996395 284.029055 
L 125.996395 282.3081 
L 126.839037 282.3081 
L 126.839037 281.160797 
L 127.165014 281.160797 
L 127.165014 279.439842 
L 128.709321 279.439842 
L 128.709321 278.292538 
L 129.002426 278.292538 
L 129.002426 277.718886 
L 129.147151 277.718886 
L 129.147151 276.571583 
L 129.574256 276.571583 
L 129.574256 275.42428 
L 132.659801 275.42428 
L 132.659801 272.556021 
L 132.777237 272.556021 
L 132.777237 270.261414 
L 133.46572 270.261414 
L 133.46572 267.393156 
L 134.55603 267.393156 
L 134.55603 266.245852 
L 134.973757 266.245852 
L 134.973757 263.951245 
L 135.178927 263.951245 
L 135.178927 263.377593 
L 136.266147 263.377593 
L 136.266147 261.656638 
L 137.37967 261.656638 
L 137.469333 257.641076 
L 137.647286 257.641076 
L 137.647286 256.493773 
L 137.997836 256.493773 
L 137.997836 255.920121 
L 138.170504 255.920121 
L 138.170504 253.051863 
L 139.090775 253.051863 
L 139.090775 252.478211 
L 140.499195 252.478211 
L 140.499195 251.904559 
L 143.273169 251.904559 
L 143.273169 250.183604 
L 148.826773 250.183604 
L 148.826773 249.609952 
L 150.640855 249.609952 
L 150.640855 249.036301 
L 150.766468 249.036301 
L 150.808139 247.888997 
L 150.932558 247.888997 
L 150.932558 246.741694 
L 151.818809 246.741694 
L 151.818809 245.59439 
L 152.168773 245.59439 
L 152.168773 245.020738 
L 152.436193 245.020738 
L 152.436193 243.873435 
L 152.624728 243.873435 
L 152.699575 241.005176 
L 152.959038 241.005176 
L 152.959038 240.431525 
L 153.105587 240.431525 
L 153.178403 237.563266 
L 153.250915 237.563266 
L 153.359122 234.695008 
L 153.609024 234.695008 
L 153.644434 230.679446 
L 153.925152 230.679446 
L 153.925152 228.384839 
L 154.098334 228.384839 
L 154.167129 226.090232 
L 154.337936 226.090232 
L 154.337936 224.942928 
L 154.473387 224.942928 
L 154.473387 223.795625 
L 154.93935 223.795625 
L 154.972161 220.353715 
L 155.102793 220.353715 
L 155.102793 218.632759 
L 155.488919 218.632759 
L 155.55245 215.764501 
L 155.741666 215.764501 
L 155.804285 214.617197 
L 156.38821 214.617197 
L 156.38821 213.469894 
L 156.568618 213.469894 
L 156.568618 210.601635 
L 157.069866 210.601635 
L 157.1279 208.88068 
L 157.185742 208.88068 
L 157.185742 205.43877 
L 157.415209 205.43877 
L 157.415209 204.865118 
L 157.697862 204.865118 
L 157.781772 203.717815 
L 157.920731 203.717815 
L 157.976006 201.99686 
L 158.113432 201.99686 
L 158.168101 200.275904 
L 158.304027 200.275904 
L 158.304027 197.407646 
L 158.438903 197.407646 
L 158.51933 193.392084 
L 158.572743 193.392084 
L 158.625992 189.376522 
L 158.83738 189.376522 
L 158.942121 185.934612 
L 158.968208 185.934612 
L 159.020266 184.787308 
L 159.175513 184.787308 
L 159.175513 184.213656 
L 160.225184 184.213656 
L 160.249422 181.345398 
L 160.680044 181.345398 
L 160.680044 177.903487 
L 161.054091 177.903487 
L 161.146363 176.182532 
L 161.238149 176.182532 
L 161.238149 175.608881 
L 161.352206 175.608881 
L 161.397621 173.887925 
L 161.465522 173.887925 
L 161.465522 173.314274 
L 161.578106 173.314274 
L 161.578106 172.16697 
L 161.689969 172.16697 
L 161.734513 168.72506 
L 161.801118 168.72506 
L 161.88953 163.562195 
L 162.324991 163.562195 
L 162.367945 161.841239 
L 162.453536 161.841239 
L 162.496175 156.678374 
L 162.854457 156.678374 
L 162.9377 154.383767 
L 163.368321 154.383767 
L 163.428979 152.662812 
L 163.50953 152.662812 
L 163.609699 150.941857 
L 163.649606 150.941857 
L 163.649606 149.794553 
L 163.768781 149.794553 
L 163.847782 146.352643 
L 164.024234 146.352643 
L 164.121498 143.484384 
L 164.140886 143.484384 
L 164.237502 142.337081 
L 164.505216 142.337081 
L 164.505216 141.763429 
L 164.618704 141.763429 
L 164.618704 141.189778 
L 164.731458 141.189778 
L 164.824867 139.468822 
L 164.843488 139.468822 
L 164.843488 137.174215 
L 165.047026 137.174215 
L 165.047026 136.600564 
L 165.230021 136.600564 
L 165.284547 134.305957 
L 165.411116 134.305957 
L 165.411116 133.158653 
L 165.608172 133.158653 
L 165.608172 132.585002 
L 165.995728 132.585002 
L 165.995728 129.716743 
L 166.203547 129.716743 
L 166.306535 127.995788 
L 166.357802 127.995788 
L 166.459886 125.127529 
L 166.476842 125.127529 
L 166.578233 114.801798 
L 166.6119 114.801798 
L 166.645502 112.507192 
L 166.74592 112.507192 
L 166.829163 110.212585 
L 166.928532 110.212585 
L 167.010909 106.197023 
L 167.190782 106.197023 
L 167.255733 102.181461 
L 167.368818 102.181461 
L 167.449146 99.886854 
L 167.513144 99.886854 
L 167.513144 99.313202 
L 167.624577 99.313202 
L 167.687935 93.003033 
L 167.93909 93.003033 
L 167.93909 92.429381 
L 168.125111 92.429381 
L 168.125111 87.840168 
L 168.339657 87.840168 
L 168.415645 85.545561 
L 168.46108 85.545561 
L 168.566635 83.250954 
L 168.626667 83.250954 
L 168.626667 78.66174 
L 168.879523 78.66174 
L 168.879523 78.088089 
L 168.997257 78.088089 
L 169.041203 76.940785 
L 169.51744 76.940785 
L 169.588476 73.498875 
L 169.78585 73.498875 
L 169.883706 71.204268 
L 170.132843 71.204268 
L 170.132843 70.630616 
L 170.337772 70.630616 
L 170.432588 68.909661 
L 170.499999 68.909661 
L 170.499999 67.188706 
L 170.674059 67.188706 
L 170.713981 66.041402 
L 170.819995 66.041402 
L 170.819995 63.746796 
L 171.263501 63.746796 
L 171.263501 59.731234 
L 171.481095 59.731234 
L 171.481095 59.157582 
L 171.595202 59.157582 
L 171.67086 56.862975 
L 172.105778 56.862975 
L 172.105778 55.14202 
L 172.397859 55.14202 
L 172.470121 53.421065 
L 172.779844 53.421065 
L 172.779844 52.847413 
L 173.222844 52.847413 
L 173.291774 51.126458 
L 173.451559 51.126458 
L 173.451559 48.831851 
L 174.054514 48.831851 
L 174.13117 47.684547 
L 174.509477 47.684547 
L 174.552194 45.963592 
L 174.66913 45.963592 
L 174.66913 45.389941 
L 175.139502 45.389941 
L 175.170413 44.242637 
L 175.415753 44.242637 
L 175.425901 43.095334 
L 175.55729 43.095334 
L 175.55729 42.521682 
L 175.797284 42.521682 
L 175.797284 41.94803 
L 175.994786 41.94803 
L 176.063387 40.227075 
L 176.112223 40.227075 
L 176.112223 38.50612 
L 176.687829 38.50612 
L 176.687829 37.932468 
L 176.800705 37.932468 
L 176.800705 37.358817 
L 179.20541 37.358817 
L 179.20541 36.785165 
L 182.131275 36.785165 
L 182.131275 36.211513 
L 184.985507 36.211513 
L 185.003089 34.490558 
L 185.425565 34.490558 
L 185.425565 33.916906 
L 186.543922 33.916906 
L 186.543922 33.343255 
L 186.82585 33.343255 
L 186.82585 32.769603 
L 187.640243 32.769603 
L 187.640243 32.195951 
L 189.024118 32.195951 
L 189.024118 31.622299 
L 189.68142 31.622299 
L 189.68142 31.048648 
L 192.157873 31.048648 
L 192.157873 30.474996 
L 192.347285 30.474996 
L 192.366497 28.754041 
L 192.776406 28.754041 
L 192.851269 26.459434 
L 193.0555 26.459434 
L 193.0555 25.885782 
L 193.286536 25.885782 
L 193.315656 23.591175 
L 193.413578 23.591175 
L 193.496563 21.296568 
L 193.571988 21.296568 
L 193.62209 20.149265 
L 193.707647 20.149265 
L 193.718312 18.42831 
L 193.95131 18.42831 
L 193.95131 17.854658 
L 194.066652 17.854658 
L 194.066652 17.281006 
L 194.513749 17.281006 
L 194.598431 16.133703 
L 194.709584 16.133703 
L 194.709584 15.560051 
L 194.846705 15.560051 
L 194.846705 14.9864 
L 195.055323 14.9864 
L 195.10791 13.265444 
L 195.358793 13.265444 
L 195.358793 12.691793 
L 195.471648 12.691793 
L 195.471648 12.118141 
L 195.771179 12.118141 
L 195.83425 10.970838 
L 196.133859 10.970838 
L 196.180211 9.823534 
L 203.906385 9.823534 
L 203.906385 9.249882 
L 204.677715 9.249882 
L 204.677715 8.676231 
L 204.794859 8.676231 
L 204.794859 8.102579 
L 204.987746 8.102579 
L 204.987746 7.528927 
L 205.420003 7.528927 
L 205.420003 6.955275 
L 210.929122 6.955275 
L 210.929122 6.381624 
L 338.688 6.381624 
L 338.688 6.381624 
" style="fill:none;stroke:#ff7500;stroke-linecap:square;stroke-width:1.5;"/>
   </g>
   <g id="line2d_39">
    <defs>
     <path d="M 0 -6 
L -1.347084 -1.854102 
L -5.706339 -1.854102 
L -2.179628 0.708204 
L -3.526712 4.854102 
L -0 2.291796 
L 3.526712 4.854102 
L 2.179628 0.708204 
L 5.706339 -1.854102 
L 1.347084 -1.854102 
z
" id="m22abd8dff9" style="stroke:#ff7500;stroke-linejoin:bevel;stroke-width:1.5;"/>
    </defs>
    <g>
     <use style="fill-opacity:0;stroke:#ff7500;stroke-linejoin:bevel;stroke-width:1.5;" x="158.599388" xlink:href="#m22abd8dff9" y="189.950174"/>
     <use style="fill-opacity:0;stroke:#ff7500;stroke-linejoin:bevel;stroke-width:1.5;" x="189.68142" xlink:href="#m22abd8dff9" y="31.622299"/>
     <use style="fill-opacity:0;stroke:#ff7500;stroke-linejoin:bevel;stroke-width:1.5;" x="210.929122" xlink:href="#m22abd8dff9" y="6.381624"/>
     <use style="fill-opacity:0;stroke:#ff7500;stroke-linejoin:bevel;stroke-width:1.5;" x="210.929122" xlink:href="#m22abd8dff9" y="6.381624"/>
     <use style="fill-opacity:0;stroke:#ff7500;stroke-linejoin:bevel;stroke-width:1.5;" x="338.688" xlink:href="#m22abd8dff9" y="6.381624"/>
    </g>
   </g>
   <g id="line2d_40">
    <path style="fill:none;stroke:#ff7500;stroke-linecap:square;stroke-width:1.5;"/>
    <g/>
   </g>
   <g id="line2d_41">
    <path clip-path="url(#p6fd02b1dfb)" d="M 190.17606 31.048648 
" style="fill:none;stroke:#ff7500;stroke-linecap:square;stroke-width:1.5;"/>
    <defs>
     <path d="M -12 12 
L 12 -12 
M -12 -12 
L 12 12 
" id="m45ada6459b" style="stroke:#ff7500;"/>
    </defs>
    <g clip-path="url(#p6fd02b1dfb)">
     <use style="fill:#ff7500;stroke:#ff7500;" x="190.17606" xlink:href="#m45ada6459b" y="31.048648"/>
    </g>
   </g>
   <g id="line2d_42">
    <defs>
     <path d="M 0 1.5 
C 0.397805 1.5 0.77937 1.341951 1.06066 1.06066 
C 1.341951 0.77937 1.5 0.397805 1.5 0 
C 1.5 -0.397805 1.341951 -0.77937 1.06066 -1.06066 
C 0.77937 -1.341951 0.397805 -1.5 0 -1.5 
C -0.397805 -1.5 -0.77937 -1.341951 -1.06066 -1.06066 
C -1.341951 -0.77937 -1.5 -0.397805 -1.5 0 
C -1.5 0.397805 -1.341951 0.77937 -1.06066 1.06066 
C -0.77937 1.341951 -0.397805 1.5 0 1.5 
z
" id="m81e5cdccef" style="stroke:#6495ed;"/>
    </defs>
    <g>
     <use style="fill:#6495ed;stroke:#6495ed;" x="183.013357" xlink:href="#m81e5cdccef" y="6.381624"/>
     <use style="fill:#6495ed;stroke:#6495ed;" x="183.013357" xlink:href="#m81e5cdccef" y="6.381624"/>
    </g>
   </g>
   <g id="line2d_43">
    <path d="M 45.512012 298.944 
L 45.512012 298.370348 
L 64.67102 298.370348 
L 64.67102 297.796697 
L 90.242884 297.796697 
L 90.242884 297.223045 
L 95.918017 297.223045 
L 95.918017 296.649393 
L 98.606294 296.649393 
L 98.606294 294.928438 
L 100.192776 294.928438 
L 100.192776 293.781135 
L 100.934985 293.781135 
L 100.934985 293.207483 
L 101.646892 293.207483 
L 101.646892 292.060179 
L 102.989037 292.060179 
L 102.989037 290.912876 
L 103.623262 290.912876 
L 103.623262 290.339224 
L 104.826449 290.339224 
L 104.826449 289.765573 
L 107.009204 289.765573 
L 107.009204 288.044617 
L 108.948899 288.044617 
L 108.948899 286.897314 
L 111.505558 286.897314 
L 111.505558 285.176359 
L 112.280765 285.176359 
L 112.280765 284.602707 
L 114.751048 284.602707 
L 114.751048 282.3081 
L 115.077025 282.3081 
L 115.077025 281.734448 
L 115.711251 281.734448 
L 115.711251 281.160797 
L 116.621333 281.160797 
L 116.621333 280.013493 
L 117.486268 280.013493 
L 117.486268 279.439842 
L 118.576578 279.439842 
L 118.576578 278.86619 
L 119.602714 278.86619 
L 119.602714 277.718886 
L 120.093994 277.718886 
L 120.093994 277.145235 
L 121.489881 277.145235 
L 121.489881 275.42428 
L 121.712041 275.42428 
L 121.712041 273.703324 
L 123.593547 273.703324 
L 123.593547 273.129673 
L 123.985457 273.129673 
L 123.985457 270.261414 
L 125.822869 270.261414 
L 125.822869 269.114111 
L 127.954256 269.114111 
L 127.954256 268.540459 
L 128.107907 268.540459 
L 128.107907 267.966807 
L 128.260216 267.966807 
L 128.260216 266.819504 
L 128.560901 266.819504 
L 128.560901 266.245852 
L 128.709321 266.245852 
L 128.709321 265.098549 
L 128.856489 265.098549 
L 128.856489 264.524897 
L 129.002426 264.524897 
L 129.002426 263.377593 
L 129.853291 263.377593 
L 129.853291 262.803942 
L 130.926816 262.803942 
L 130.926816 261.656638 
L 131.565689 261.656638 
L 131.565689 261.082987 
L 131.938072 261.082987 
L 131.938072 260.509335 
L 132.659801 260.509335 
L 132.659801 257.641076 
L 133.352844 257.641076 
L 133.352844 255.346469 
L 134.019394 255.346469 
L 134.019394 254.772818 
L 134.450015 254.772818 
L 134.450015 254.199166 
L 134.973757 254.199166 
L 134.973757 253.625514 
L 136.170062 253.625514 
L 136.170062 250.757256 
L 136.456742 250.757256 
L 136.456742 250.183604 
L 138.170504 250.183604 
L 138.256201 249.036301 
L 139.413734 249.036301 
L 139.413734 247.888997 
L 140.272217 247.888997 
L 140.272217 245.020738 
L 140.871049 245.020738 
L 140.871049 243.299783 
L 141.378673 243.299783 
L 141.378673 242.726132 
L 142.884173 242.726132 
L 142.884173 241.578828 
L 145.212864 241.578828 
L 145.212864 240.431525 
L 147.368603 240.431525 
L 147.368603 239.284221 
L 147.769524 239.284221 
L 147.769524 238.71057 
L 148.686322 238.71057 
L 148.686322 238.136918 
L 150.640855 238.136918 
L 150.640855 237.563266 
L 152.091608 237.563266 
L 152.091608 236.989614 
L 153.785358 236.989614 
L 153.785358 236.415963 
L 153.994632 236.415963 
L 153.994632 235.842311 
L 154.54072 235.842311 
L 154.54072 235.268659 
L 154.77436 235.268659 
L 154.807483 232.974052 
L 154.93935 232.974052 
L 154.93935 232.400401 
L 156.448553 232.400401 
L 156.538679 230.105794 
L 156.717545 230.105794 
L 156.776762 228.95849 
L 157.011638 228.95849 
L 157.011638 228.384839 
L 157.185742 228.384839 
L 157.185742 227.811187 
L 158.058592 227.811187 
L 158.058592 227.237535 
L 158.222599 227.237535 
L 158.276927 224.942928 
L 158.546057 224.942928 
L 158.572743 223.795625 
L 158.732007 223.795625 
L 158.732007 223.221973 
L 158.942121 223.221973 
L 158.942121 222.648321 
L 159.149734 222.648321 
L 159.149734 221.501018 
L 159.278248 221.501018 
L 159.380382 218.059108 
L 159.431225 218.059108 
L 159.507213 216.338153 
L 159.980933 216.338153 
L 159.980933 215.764501 
L 160.127894 215.764501 
L 160.176607 214.617197 
L 160.513841 214.617197 
L 160.537682 213.469894 
L 160.680044 213.469894 
L 160.680044 212.896242 
L 160.961329 212.896242 
L 160.961329 212.322591 
L 161.420284 212.322591 
L 161.442917 210.601635 
L 161.867469 210.601635 
L 161.977497 209.454332 
L 162.346481 209.454332 
L 162.389382 207.733377 
L 162.644595 207.733377 
L 162.728843 206.586073 
L 162.833584 206.586073 
L 162.854457 204.865118 
L 162.958448 204.865118 
L 162.958448 204.291467 
L 163.103002 204.291467 
L 163.205526 200.849556 
L 163.266752 200.849556 
L 163.266752 200.275904 
L 163.408783 200.275904 
L 163.408783 199.702253 
L 163.709295 199.702253 
L 163.729146 198.554949 
L 163.985177 198.554949 
L 164.082658 195.113039 
L 164.19892 195.113039 
L 164.295217 188.80287 
L 164.35274 188.80287 
L 164.371873 186.508263 
L 164.486229 186.508263 
L 164.543127 184.787308 
L 164.731458 184.787308 
L 164.731458 184.213656 
L 165.138764 184.213656 
L 165.230021 181.91905 
L 165.266391 181.91905 
L 165.266391 181.345398 
L 165.995728 181.345398 
L 165.995728 180.771746 
L 166.272273 180.771746 
L 166.357802 179.624443 
L 166.408919 179.624443 
L 166.459886 177.903487 
L 166.578233 177.903487 
L 166.645502 176.756184 
L 166.7626 176.756184 
L 166.829163 175.035229 
L 166.878918 175.035229 
L 166.978005 172.16697 
L 166.994465 172.16697 
L 166.994465 171.019667 
L 167.158215 171.019667 
L 167.158215 170.446015 
L 167.304287 170.446015 
L 167.336582 168.72506 
L 167.465168 168.72506 
L 167.560988 165.856801 
L 167.719528 165.856801 
L 167.719528 165.28315 
L 167.923499 165.28315 
L 168.001318 164.135846 
L 168.078792 164.135846 
L 168.109685 162.414891 
L 168.232714 162.414891 
L 168.324419 160.693936 
L 168.415645 160.693936 
L 168.506396 156.104722 
L 168.581663 156.104722 
L 168.611679 154.957419 
L 168.835167 154.957419 
L 168.835167 154.383767 
L 169.157854 154.383767 
L 169.259288 152.08916 
L 169.27373 152.08916 
L 169.27373 151.515508 
L 169.474679 151.515508 
L 169.474679 150.368205 
L 169.630959 150.368205 
L 169.729685 146.926295 
L 169.75779 146.926295 
L 169.841835 143.484384 
L 169.897641 143.484384 
L 170.008719 141.189778 
L 170.022555 141.189778 
L 170.063995 140.042474 
L 170.174022 140.042474 
L 170.174022 139.468822 
L 170.419074 139.468822 
L 170.446091 137.174215 
L 170.567151 137.174215 
L 170.567151 136.600564 
L 170.713981 136.600564 
L 170.753812 133.158653 
L 170.846398 133.158653 
L 170.925369 132.01135 
L 170.977818 132.01135 
L 171.056197 127.422136 
L 171.147196 127.422136 
L 171.147196 126.274833 
L 171.289242 126.274833 
L 171.289242 125.701181 
L 171.417378 125.701181 
L 171.49381 123.406574 
L 171.54458 123.406574 
L 171.607834 121.685619 
L 171.708567 121.685619 
L 171.796233 118.817361 
L 171.858583 118.817361 
L 171.920711 115.949102 
L 172.00732 115.949102 
L 172.118046 112.507192 
L 172.130306 112.507192 
L 172.203683 109.065281 
L 172.264595 109.065281 
L 172.349517 106.197023 
L 172.446067 106.197023 
L 172.530112 102.755112 
L 172.744386 102.755112 
L 172.744386 102.181461 
L 172.862299 102.181461 
L 172.909242 99.313202 
L 172.97942 99.313202 
L 173.049317 97.018595 
L 173.118935 97.018595 
L 173.199806 95.29764 
L 173.234351 95.29764 
L 173.326137 93.003033 
L 173.394661 93.003033 
L 173.394661 92.429381 
L 173.508272 92.429381 
L 173.519593 91.282078 
L 173.811376 91.282078 
L 173.844732 88.413819 
L 174.098358 88.413819 
L 174.142093 87.266516 
L 174.218366 87.266516 
L 174.305129 82.677302 
L 174.445204 82.677302 
L 174.445204 82.103651 
L 174.594807 82.103651 
L 174.66913 80.382695 
L 174.764225 80.382695 
L 174.83783 75.793482 
L 175.046437 75.793482 
L 175.046437 75.21983 
L 175.20127 75.21983 
L 175.262821 72.351571 
L 175.364924 72.351571 
L 175.466434 68.909661 
L 175.567356 68.909661 
L 175.6777 66.615054 
L 175.747557 66.615054 
L 175.827052 65.467751 
L 175.916053 65.467751 
L 176.02422 64.320447 
L 176.082938 64.320447 
L 176.131719 60.304885 
L 176.199784 60.304885 
L 176.228874 58.58393 
L 176.363988 58.58393 
L 176.363988 57.436627 
L 176.574218 57.436627 
L 176.574218 56.862975 
L 176.697263 56.862975 
L 176.800705 53.994716 
L 176.810078 53.994716 
L 176.875552 52.847413 
L 177.024289 52.847413 
L 177.024289 51.700109 
L 177.50811 51.700109 
L 177.50811 51.126458 
L 177.758396 51.126458 
L 177.758396 50.552806 
L 178.222537 50.552806 
L 178.222537 49.979154 
L 178.351686 49.979154 
L 178.420176 46.537244 
L 178.479885 46.537244 
L 178.530902 44.816289 
L 178.6156 44.816289 
L 178.716697 41.94803 
L 178.73349 41.94803 
L 178.750267 40.800727 
L 178.850589 40.800727 
L 178.958624 39.079772 
L 179.041275 39.079772 
L 179.107114 36.211513 
L 179.213577 36.211513 
L 179.213577 35.637861 
L 179.351823 35.637861 
L 179.440696 33.343255 
L 179.744273 33.343255 
L 179.744273 32.195951 
L 179.917643 32.195951 
L 180.027079 29.327692 
L 180.16678 29.327692 
L 180.16678 28.180389 
L 180.374256 28.180389 
L 180.480872 24.738479 
L 180.714656 24.738479 
L 180.714656 24.164827 
L 180.826662 24.164827 
L 180.886106 21.87022 
L 181.011755 21.87022 
L 181.107232 18.42831 
L 181.129191 18.42831 
L 181.22403 16.707355 
L 181.412173 16.707355 
L 181.498329 15.560051 
L 181.711874 15.560051 
L 181.711874 14.9864 
L 181.887852 14.9864 
L 181.887852 14.412748 
L 182.034313 14.412748 
L 182.082862 12.691793 
L 182.151983 12.691793 
L 182.220831 8.676231 
L 182.581258 8.676231 
L 182.581258 7.528927 
L 182.815256 7.528927 
L 182.815256 6.955275 
L 183.013357 6.955275 
L 183.013357 6.381624 
L 338.688 6.381624 
L 338.688 6.381624 
" style="fill:none;stroke:#6495ed;stroke-linecap:square;stroke-width:1.5;"/>
   </g>
   <g id="line2d_44">
    <defs>
     <path d="M -0 6 
L 6 -6 
L -6 -6 
z
" id="mb3c927d5f8" style="stroke:#6495ed;stroke-linejoin:miter;stroke-width:1.5;"/>
    </defs>
    <g>
     <use style="fill-opacity:0;stroke:#6495ed;stroke-linejoin:miter;stroke-width:1.5;" x="138.256201" xlink:href="#mb3c927d5f8" y="249.036301"/>
     <use style="fill-opacity:0;stroke:#6495ed;stroke-linejoin:miter;stroke-width:1.5;" x="172.068921" xlink:href="#mb3c927d5f8" y="114.801798"/>
     <use style="fill-opacity:0;stroke:#6495ed;stroke-linejoin:miter;stroke-width:1.5;" x="183.013357" xlink:href="#mb3c927d5f8" y="6.955275"/>
     <use style="fill-opacity:0;stroke:#6495ed;stroke-linejoin:miter;stroke-width:1.5;" x="183.013357" xlink:href="#mb3c927d5f8" y="6.381624"/>
     <use style="fill-opacity:0;stroke:#6495ed;stroke-linejoin:miter;stroke-width:1.5;" x="183.013357" xlink:href="#mb3c927d5f8" y="6.381624"/>
     <use style="fill-opacity:0;stroke:#6495ed;stroke-linejoin:miter;stroke-width:1.5;" x="338.688" xlink:href="#mb3c927d5f8" y="6.381624"/>
    </g>
   </g>
   <g id="line2d_45">
    <path style="fill:none;stroke:#6495ed;stroke-linecap:square;stroke-width:1.5;"/>
    <g/>
   </g>
   <g id="line2d_46">
    <defs>
     <path d="M 0 1.5 
C 0.397805 1.5 0.77937 1.341951 1.06066 1.06066 
C 1.341951 0.77937 1.5 0.397805 1.5 0 
C 1.5 -0.397805 1.341951 -0.77937 1.06066 -1.06066 
C 0.77937 -1.341951 0.397805 -1.5 0 -1.5 
C -0.397805 -1.5 -0.77937 -1.341951 -1.06066 -1.06066 
C -1.341951 -0.77937 -1.5 -0.397805 -1.5 0 
C -1.5 0.397805 -1.341951 0.77937 -1.06066 1.06066 
C -0.77937 1.341951 -0.397805 1.5 0 1.5 
z
" id="me7a9a70ca7" style="stroke:#ff0000;"/>
    </defs>
    <g>
     <use style="fill:#ff0000;stroke:#ff0000;" x="171.237722" xlink:href="#me7a9a70ca7" y="6.381624"/>
     <use style="fill:#ff0000;stroke:#ff0000;" x="171.237722" xlink:href="#me7a9a70ca7" y="6.381624"/>
    </g>
   </g>
   <g id="line2d_47">
    <path d="M 45.512012 298.944 
L 45.512012 263.377593 
L 57.6 263.377593 
L 57.6 259.362031 
L 83.830028 259.362031 
L 83.830028 258.78838 
L 85.66744 258.78838 
L 85.66744 256.493773 
L 90.242884 256.493773 
L 90.242884 255.920121 
L 93.863965 255.920121 
L 93.863965 254.772818 
L 95.918017 254.772818 
L 95.918017 251.330907 
L 98.606294 251.330907 
L 98.606294 250.757256 
L 100.192776 250.757256 
L 100.192776 249.036301 
L 101.646892 249.036301 
L 101.646892 248.462649 
L 102.989037 248.462649 
L 102.989037 246.741694 
L 103.623262 246.741694 
L 103.623262 245.59439 
L 104.826449 245.59439 
L 104.826449 245.020738 
L 107.009204 245.020738 
L 107.009204 243.873435 
L 107.514726 243.873435 
L 107.514726 243.299783 
L 108.483824 243.299783 
L 108.483824 241.005176 
L 108.948899 241.005176 
L 108.948899 239.284221 
L 110.274038 239.284221 
L 110.274038 238.136918 
L 112.280765 238.136918 
L 112.280765 237.563266 
L 112.655818 237.563266 
L 112.655818 236.989614 
L 113.382559 236.989614 
L 113.382559 236.415963 
L 113.73488 236.415963 
L 113.73488 234.121356 
L 116.019919 234.121356 
L 116.019919 232.400401 
L 116.621333 232.400401 
L 116.621333 230.679446 
L 116.914437 230.679446 
L 116.914437 230.105794 
L 118.039942 230.105794 
L 118.039942 229.532142 
L 118.310324 229.532142 
L 118.310324 228.95849 
L 118.838828 228.95849 
L 118.838828 228.384839 
L 119.351785 228.384839 
L 119.351785 227.811187 
L 120.571812 227.811187 
L 120.571812 227.237535 
L 120.8059 227.237535 
L 120.8059 226.663884 
L 121.036887 226.663884 
L 121.036887 226.090232 
L 121.489881 226.090232 
L 121.489881 224.942928 
L 121.712041 224.942928 
L 121.712041 224.369277 
L 122.148045 224.369277 
L 122.148045 223.795625 
L 122.362027 223.795625 
L 122.362027 223.221973 
L 122.782271 223.221973 
L 122.782271 222.648321 
L 122.988655 222.648321 
L 122.988655 221.501018 
L 123.985457 221.501018 
L 123.985457 220.927366 
L 124.178158 220.927366 
L 124.178158 215.764501 
L 124.368753 215.764501 
L 124.368753 215.190849 
L 124.557288 215.190849 
L 124.557288 214.617197 
L 125.647598 214.617197 
L 125.647598 212.896242 
L 125.822869 212.896242 
L 125.822869 210.027984 
L 126.168212 210.027984 
L 126.168212 209.454332 
L 126.839037 209.454332 
L 126.839037 208.88068 
L 129.002426 208.88068 
L 129.002426 207.159725 
L 129.147151 207.159725 
L 129.147151 206.586073 
L 129.433047 206.586073 
L 129.433047 205.43877 
L 129.574256 205.43877 
L 129.574256 204.865118 
L 129.714332 204.865118 
L 129.714332 203.144163 
L 129.991152 203.144163 
L 129.991152 202.570511 
L 130.531948 202.570511 
L 130.531948 201.99686 
L 131.185181 201.99686 
L 131.185181 200.849556 
L 131.312942 200.849556 
L 131.312942 200.275904 
L 133.009765 200.275904 
L 133.009765 199.702253 
L 133.239232 199.702253 
L 133.239232 199.128601 
L 133.46572 199.128601 
L 133.46572 197.981298 
L 133.910056 197.981298 
L 133.910056 197.407646 
L 134.12805 197.407646 
L 134.12805 196.833994 
L 134.661403 196.833994 
L 134.661403 196.260342 
L 134.973757 196.260342 
L 134.973757 194.539387 
L 137.107884 194.539387 
L 137.198951 192.24478 
L 137.469333 192.24478 
L 137.469333 191.097477 
L 137.647286 191.097477 
L 137.735587 187.655567 
L 138.170504 187.655567 
L 138.256201 183.640005 
L 138.341479 183.640005 
L 138.341479 183.066353 
L 138.84457 183.066353 
L 138.84457 179.050791 
L 139.572998 179.050791 
L 139.652088 177.329836 
L 139.964909 177.329836 
L 139.964909 176.756184 
L 140.272217 176.756184 
L 140.348205 172.16697 
L 140.499195 172.16697 
L 140.574203 171.019667 
L 140.64889 171.019667 
L 140.64889 170.446015 
L 141.090414 170.446015 
L 141.162927 168.151408 
L 141.378673 168.151408 
L 141.378673 166.430453 
L 142.07914 166.430453 
L 142.147664 162.988543 
L 144.269971 162.988543 
L 144.269971 162.414891 
L 145.155404 162.414891 
L 145.155404 161.267588 
L 145.384119 161.267588 
L 145.384119 160.693936 
L 145.943118 160.693936 
L 145.998045 158.972981 
L 146.538004 158.972981 
L 146.538004 157.825677 
L 146.696785 157.825677 
L 146.696785 157.252026 
L 147.164632 157.252026 
L 147.164632 156.104722 
L 147.317833 156.104722 
L 147.368603 152.08916 
L 147.4697 152.08916 
L 147.4697 151.515508 
L 147.620256 151.515508 
L 147.620256 150.368205 
L 148.161434 150.368205 
L 148.161434 149.794553 
L 148.306159 149.794553 
L 148.354135 147.499946 
L 148.54473 147.499946 
L 148.54473 146.926295 
L 148.919783 146.926295 
L 148.966103 145.20534 
L 149.15016 145.20534 
L 149.15016 142.337081 
L 149.377533 142.337081 
L 149.377533 141.763429 
L 149.690956 141.763429 
L 149.779481 139.468822 
L 150.766468 139.468822 
L 150.766468 138.321519 
L 151.660987 138.321519 
L 151.660987 137.174215 
L 151.858043 137.174215 
L 151.858043 135.45326 
L 151.975216 135.45326 
L 151.975216 134.879609 
L 152.207228 134.879609 
L 152.245598 133.158653 
L 152.811246 133.158653 
L 152.885298 131.437698 
L 153.105587 131.437698 
L 153.105587 130.290395 
L 153.430889 130.290395 
L 153.430889 129.716743 
L 153.573542 129.716743 
L 153.644434 126.848485 
L 153.890309 126.848485 
L 153.890309 126.274833 
L 154.098334 126.274833 
L 154.098334 125.701181 
L 154.303908 125.701181 
L 154.303908 125.127529 
L 154.439623 125.127529 
L 154.439623 124.553878 
L 154.77436 124.553878 
L 154.77436 123.980226 
L 154.93935 123.980226 
L 155.0376 117.096405 
L 155.361158 117.096405 
L 155.457066 115.37545 
L 155.488919 115.37545 
L 155.584129 114.228147 
L 155.647315 114.228147 
L 155.647315 113.080843 
L 155.804285 113.080843 
L 155.804285 112.507192 
L 155.959855 112.507192 
L 155.959855 111.93354 
L 156.598505 111.93354 
L 156.687861 110.786236 
L 156.894595 110.786236 
L 156.98245 108.49163 
L 157.300853 108.49163 
L 157.300853 107.344326 
L 157.415209 107.344326 
L 157.500487 106.197023 
L 157.641697 106.197023 
L 157.641697 105.049719 
L 157.753847 105.049719 
L 157.781772 103.902416 
L 157.893028 103.902416 
L 157.94839 101.607809 
L 158.031107 101.607809 
L 158.113432 99.886854 
L 158.249784 99.886854 
L 158.249784 99.313202 
L 158.385078 99.313202 
L 158.438903 97.592247 
L 158.51933 97.592247 
L 158.51933 96.444944 
L 158.652556 96.444944 
L 158.652556 95.29764 
L 158.968208 95.29764 
L 159.020266 93.003033 
L 159.149734 93.003033 
L 159.226956 90.708426 
L 159.278248 90.708426 
L 159.380382 86.692864 
L 159.431225 86.692864 
L 159.431225 85.545561 
L 159.633129 85.545561 
L 159.733212 83.824606 
L 159.783038 83.824606 
L 159.882266 79.809044 
L 159.956318 79.809044 
L 160.054568 76.940785 
L 160.079044 76.940785 
L 160.079044 71.77792 
L 160.297798 71.77792 
L 160.346039 70.630616 
L 160.489968 70.630616 
L 160.489968 69.483313 
L 160.656397 69.483313 
L 160.656397 67.762358 
L 160.797798 67.762358 
L 160.797798 67.188706 
L 160.914762 67.188706 
L 160.938061 65.467751 
L 161.12334 65.467751 
L 161.12334 63.746796 
L 161.238149 63.746796 
L 161.283861 59.157582 
L 161.397621 59.157582 
L 161.465522 58.010278 
L 161.53316 58.010278 
L 161.622937 55.14202 
L 161.756743 55.14202 
L 161.801118 51.126458 
L 161.933569 51.126458 
L 161.933569 50.552806 
L 162.152109 50.552806 
L 162.152109 49.979154 
L 162.303474 49.979154 
L 162.303474 49.405503 
L 162.496175 49.405503 
L 162.517456 48.258199 
L 162.665696 48.258199 
L 162.665696 47.684547 
L 163.061823 47.684547 
L 163.061823 47.110896 
L 163.225959 47.110896 
L 163.246367 45.389941 
L 163.348054 45.389941 
L 163.368321 44.242637 
L 163.469301 44.242637 
L 163.469301 43.668985 
L 163.689421 43.668985 
L 163.689421 43.095334 
L 163.808326 43.095334 
L 163.808326 42.521682 
L 163.926426 42.521682 
L 163.926426 40.800727 
L 164.256762 40.800727 
L 164.256762 39.079772 
L 164.467222 39.079772 
L 164.467222 38.50612 
L 164.973287 38.50612 
L 165.083779 34.490558 
L 165.193576 34.490558 
L 165.193576 33.916906 
L 165.320804 33.916906 
L 165.320804 32.195951 
L 165.46508 32.195951 
L 165.572509 29.901344 
L 165.625977 29.901344 
L 165.625977 29.327692 
L 165.9084 29.327692 
L 165.925901 28.180389 
L 166.065276 28.180389 
L 166.065276 27.033086 
L 166.391896 27.033086 
L 166.442913 25.885782 
L 166.578233 25.885782 
L 166.578233 25.31213 
L 166.829163 25.31213 
L 166.862349 23.591175 
L 167.255733 23.591175 
L 167.255733 23.017524 
L 167.545055 23.017524 
L 167.592812 21.87022 
L 167.687935 21.87022 
L 167.687935 21.296568 
L 168.001318 21.296568 
L 168.032349 20.149265 
L 168.232714 20.149265 
L 168.232714 18.42831 
L 168.400474 18.42831 
L 168.400474 17.854658 
L 168.536542 17.854658 
L 168.536542 16.707355 
L 168.760989 16.707355 
L 168.790698 14.9864 
L 168.982583 14.9864 
L 169.070439 11.544489 
L 169.431813 11.544489 
L 169.431813 10.970838 
L 169.771826 10.970838 
L 169.771826 9.249882 
L 169.883706 9.249882 
L 169.883706 8.676231 
L 170.938496 8.676231 
L 170.938496 8.102579 
L 171.147196 8.102579 
L 171.237722 6.381624 
L 338.688 6.381624 
L 338.688 6.381624 
" style="fill:none;stroke:#ff0000;stroke-linecap:square;stroke-width:1.5;"/>
   </g>
   <g id="line2d_48">
    <defs>
     <path d="M 0 -6 
L -5.196152 -3 
L -5.196152 3 
L -0 6 
L 5.196152 3 
L 5.196152 -3 
z
" id="m5b6d83698a" style="stroke:#ff0000;stroke-linejoin:miter;stroke-width:1.5;"/>
    </defs>
    <g>
     <use style="fill-opacity:0;stroke:#ff0000;stroke-linejoin:miter;stroke-width:1.5;" x="133.009765" xlink:href="#m5b6d83698a" y="200.275904"/>
     <use style="fill-opacity:0;stroke:#ff0000;stroke-linejoin:miter;stroke-width:1.5;" x="159.303838" xlink:href="#m5b6d83698a" y="89.561123"/>
     <use style="fill-opacity:0;stroke:#ff0000;stroke-linejoin:miter;stroke-width:1.5;" x="171.237722" xlink:href="#m5b6d83698a" y="6.955275"/>
     <use style="fill-opacity:0;stroke:#ff0000;stroke-linejoin:miter;stroke-width:1.5;" x="171.237722" xlink:href="#m5b6d83698a" y="6.381624"/>
     <use style="fill-opacity:0;stroke:#ff0000;stroke-linejoin:miter;stroke-width:1.5;" x="171.237722" xlink:href="#m5b6d83698a" y="6.381624"/>
     <use style="fill-opacity:0;stroke:#ff0000;stroke-linejoin:miter;stroke-width:1.5;" x="338.688" xlink:href="#m5b6d83698a" y="6.381624"/>
    </g>
   </g>
   <g id="line2d_49">
    <path style="fill:none;stroke:#ff0000;stroke-linecap:square;stroke-width:1.5;"/>
    <g/>
   </g>
   <g id="line2d_50">
    <path d="M 338.688 6.381624 
L 369.60768 293.092752 
" style="fill:none;stroke:#ff7500;stroke-linecap:square;stroke-width:1.5;"/>
    <g>
     <use style="fill-opacity:0;stroke:#ff7500;stroke-linejoin:bevel;stroke-width:1.5;" x="338.688" xlink:href="#m22abd8dff9" y="6.381624"/>
     <use style="fill-opacity:0;stroke:#ff7500;stroke-linejoin:bevel;stroke-width:1.5;" x="369.60768" xlink:href="#m22abd8dff9" y="293.092752"/>
    </g>
   </g>
   <g id="line2d_51">
    <path d="M 338.688 6.381624 
L 369.60768 222.877782 
" style="fill:none;stroke:#6495ed;stroke-linecap:square;stroke-width:1.5;"/>
    <g>
     <use style="fill-opacity:0;stroke:#6495ed;stroke-linejoin:miter;stroke-width:1.5;" x="338.688" xlink:href="#mb3c927d5f8" y="6.381624"/>
     <use style="fill-opacity:0;stroke:#6495ed;stroke-linejoin:miter;stroke-width:1.5;" x="369.60768" xlink:href="#mb3c927d5f8" y="222.877782"/>
    </g>
   </g>
   <g id="line2d_52">
    <path d="M 338.688 6.381624 
L 369.60768 152.662812 
" style="fill:none;stroke:#000080;stroke-linecap:square;stroke-width:1.5;"/>
    <g>
     <use style="fill-opacity:0;stroke:#000080;stroke-width:1.5;" x="338.688" xlink:href="#m63754d222b" y="6.381624"/>
     <use style="fill-opacity:0;stroke:#000080;stroke-width:1.5;" x="369.60768" xlink:href="#m63754d222b" y="152.662812"/>
    </g>
   </g>
   <g id="line2d_53">
    <path d="M 338.688 6.381624 
L 369.60768 82.447842 
" style="fill:none;stroke:#ff00ff;stroke-linecap:square;stroke-width:1.5;"/>
    <g>
     <use style="fill-opacity:0;stroke:#ff00ff;stroke-linejoin:miter;stroke-width:1.5;" x="338.688" xlink:href="#m7df95e4b5e" y="6.381624"/>
     <use style="fill-opacity:0;stroke:#ff00ff;stroke-linejoin:miter;stroke-width:1.5;" x="369.60768" xlink:href="#m7df95e4b5e" y="82.447842"/>
    </g>
   </g>
   <g id="line2d_54">
    <path d="M 338.688 6.381624 
L 369.60768 12.232871 
" style="fill:none;stroke:#ff0000;stroke-linecap:square;stroke-width:1.5;"/>
    <g>
     <use style="fill-opacity:0;stroke:#ff0000;stroke-linejoin:miter;stroke-width:1.5;" x="338.688" xlink:href="#m5b6d83698a" y="6.381624"/>
     <use style="fill-opacity:0;stroke:#ff0000;stroke-linejoin:miter;stroke-width:1.5;" x="369.60768" xlink:href="#m5b6d83698a" y="12.232871"/>
    </g>
   </g>
   <g id="line2d_55">
    <path d="M 338.688 298.944 
L 338.688 6.381624 
" style="fill:none;stroke:#000000;stroke-linecap:square;stroke-width:1.5;"/>
   </g>
   <g id="patch_3">
    <path d="M 57.6 298.944 
L 57.6 3.456 
" style="fill:none;stroke:#000000;stroke-linecap:square;stroke-linejoin:miter;stroke-width:0.8;"/>
   </g>
   <g id="patch_4">
    <path d="M 338.688 298.944 
L 338.688 3.456 
" style="fill:none;stroke:#000000;stroke-linecap:square;stroke-linejoin:miter;stroke-width:0.8;"/>
   </g>
   <g id="patch_5">
    <path d="M 57.6 298.944 
L 338.688 298.944 
" style="fill:none;stroke:#000000;stroke-linecap:square;stroke-linejoin:miter;stroke-width:0.8;"/>
   </g>
   <g id="patch_6">
    <path d="M 57.6 3.456 
L 338.688 3.456 
" style="fill:none;stroke:#000000;stroke-linecap:square;stroke-linejoin:miter;stroke-width:0.8;"/>
   </g>
   <g id="text_13">
    <!-- f12 -->
    <g transform="translate(375.22944 297.78369)scale(0.17 -0.17)">
     <use xlink:href="#DejaVuSans-102"/>
     <use x="35.205078" xlink:href="#DejaVuSans-49"/>
     <use x="98.828125" xlink:href="#DejaVuSans-50"/>
    </g>
   </g>
   <g id="text_14">
    <!-- f13 -->
    <g transform="translate(375.22944 227.56872)scale(0.17 -0.17)">
     <defs>
      <path d="M 40.578125 39.3125 
Q 47.65625 37.796875 51.625 33 
Q 55.609375 28.21875 55.609375 21.1875 
Q 55.609375 10.40625 48.1875 4.484375 
Q 40.765625 -1.421875 27.09375 -1.421875 
Q 22.515625 -1.421875 17.65625 -0.515625 
Q 12.796875 0.390625 7.625 2.203125 
L 7.625 11.71875 
Q 11.71875 9.328125 16.59375 8.109375 
Q 21.484375 6.890625 26.8125 6.890625 
Q 36.078125 6.890625 40.9375 10.546875 
Q 45.796875 14.203125 45.796875 21.1875 
Q 45.796875 27.640625 41.28125 31.265625 
Q 36.765625 34.90625 28.71875 34.90625 
L 20.21875 34.90625 
L 20.21875 43.015625 
L 29.109375 43.015625 
Q 36.375 43.015625 40.234375 45.921875 
Q 44.09375 48.828125 44.09375 54.296875 
Q 44.09375 59.90625 40.109375 62.90625 
Q 36.140625 65.921875 28.71875 65.921875 
Q 24.65625 65.921875 20.015625 65.03125 
Q 15.375 64.15625 9.8125 62.3125 
L 9.8125 71.09375 
Q 15.4375 72.65625 20.34375 73.4375 
Q 25.25 74.21875 29.59375 74.21875 
Q 40.828125 74.21875 47.359375 69.109375 
Q 53.90625 64.015625 53.90625 55.328125 
Q 53.90625 49.265625 50.4375 45.09375 
Q 46.96875 40.921875 40.578125 39.3125 
z
" id="DejaVuSans-51"/>
     </defs>
     <use xlink:href="#DejaVuSans-102"/>
     <use x="35.205078" xlink:href="#DejaVuSans-49"/>
     <use x="98.828125" xlink:href="#DejaVuSans-51"/>
    </g>
   </g>
   <g id="text_15">
    <!-- f10 -->
    <g transform="translate(375.22944 157.353749)scale(0.17 -0.17)">
     <use xlink:href="#DejaVuSans-102"/>
     <use x="35.205078" xlink:href="#DejaVuSans-49"/>
     <use x="98.828125" xlink:href="#DejaVuSans-48"/>
    </g>
   </g>
   <g id="text_16">
    <!-- f11 -->
    <g transform="translate(375.22944 87.138779)scale(0.17 -0.17)">
     <use xlink:href="#DejaVuSans-102"/>
     <use x="35.205078" xlink:href="#DejaVuSans-49"/>
     <use x="98.828125" xlink:href="#DejaVuSans-49"/>
    </g>
   </g>
   <g id="text_17">
    <!-- f14 -->
    <g transform="translate(375.22944 16.923809)scale(0.17 -0.17)">
     <use xlink:href="#DejaVuSans-102"/>
     <use x="35.205078" xlink:href="#DejaVuSans-49"/>
     <use x="98.828125" xlink:href="#DejaVuSans-52"/>
    </g>
   </g>
   <g id="text_18">
    <!-- bbob -->
    <g transform="translate(60.41088 14.161286)scale(0.102 -0.102)">
     <defs>
      <path d="M 48.6875 27.296875 
Q 48.6875 37.203125 44.609375 42.84375 
Q 40.53125 48.484375 33.40625 48.484375 
Q 26.265625 48.484375 22.1875 42.84375 
Q 18.109375 37.203125 18.109375 27.296875 
Q 18.109375 17.390625 22.1875 11.75 
Q 26.265625 6.109375 33.40625 6.109375 
Q 40.53125 6.109375 44.609375 11.75 
Q 48.6875 17.390625 48.6875 27.296875 
z
M 18.109375 46.390625 
Q 20.953125 51.265625 25.265625 53.625 
Q 29.59375 56 35.59375 56 
Q 45.5625 56 51.78125 48.09375 
Q 58.015625 40.1875 58.015625 27.296875 
Q 58.015625 14.40625 51.78125 6.484375 
Q 45.5625 -1.421875 35.59375 -1.421875 
Q 29.59375 -1.421875 25.265625 0.953125 
Q 20.953125 3.328125 18.109375 8.203125 
L 18.109375 0 
L 9.078125 0 
L 9.078125 75.984375 
L 18.109375 75.984375 
z
" id="DejaVuSans-98"/>
     </defs>
     <use xlink:href="#DejaVuSans-98"/>
     <use x="63.476562" xlink:href="#DejaVuSans-98"/>
     <use x="126.953125" xlink:href="#DejaVuSans-111"/>
     <use x="188.134766" xlink:href="#DejaVuSans-98"/>
    </g>
    <!-- Ill-conditioned functions, 2-D -->
    <g transform="translate(60.41088 25.583055)scale(0.102 -0.102)">
     <defs>
      <path d="M 9.8125 72.90625 
L 19.671875 72.90625 
L 19.671875 0 
L 9.8125 0 
z
" id="DejaVuSans-73"/>
      <path d="M 19.671875 64.796875 
L 19.671875 8.109375 
L 31.59375 8.109375 
Q 46.6875 8.109375 53.6875 14.9375 
Q 60.6875 21.78125 60.6875 36.53125 
Q 60.6875 51.171875 53.6875 57.984375 
Q 46.6875 64.796875 31.59375 64.796875 
z
M 9.8125 72.90625 
L 30.078125 72.90625 
Q 51.265625 72.90625 61.171875 64.09375 
Q 71.09375 55.28125 71.09375 36.53125 
Q 71.09375 17.671875 61.125 8.828125 
Q 51.171875 0 30.078125 0 
L 9.8125 0 
z
" id="DejaVuSans-68"/>
     </defs>
     <use xlink:href="#DejaVuSans-73"/>
     <use x="29.492188" xlink:href="#DejaVuSans-108"/>
     <use x="57.275391" xlink:href="#DejaVuSans-108"/>
     <use x="85.058594" xlink:href="#DejaVuSans-45"/>
     <use x="121.142578" xlink:href="#DejaVuSans-99"/>
     <use x="176.123047" xlink:href="#DejaVuSans-111"/>
     <use x="237.304688" xlink:href="#DejaVuSans-110"/>
     <use x="300.683594" xlink:href="#DejaVuSans-100"/>
     <use x="364.160156" xlink:href="#DejaVuSans-105"/>
     <use x="391.943359" xlink:href="#DejaVuSans-116"/>
     <use x="431.152344" xlink:href="#DejaVuSans-105"/>
     <use x="458.935547" xlink:href="#DejaVuSans-111"/>
     <use x="520.117188" xlink:href="#DejaVuSans-110"/>
     <use x="583.496094" xlink:href="#DejaVuSans-101"/>
     <use x="645.019531" xlink:href="#DejaVuSans-100"/>
     <use x="708.496094" xlink:href="#DejaVuSans-32"/>
     <use x="740.283203" xlink:href="#DejaVuSans-102"/>
     <use x="775.488281" xlink:href="#DejaVuSans-117"/>
     <use x="838.867188" xlink:href="#DejaVuSans-110"/>
     <use x="902.246094" xlink:href="#DejaVuSans-99"/>
     <use x="957.226562" xlink:href="#DejaVuSans-116"/>
     <use x="996.435547" xlink:href="#DejaVuSans-105"/>
     <use x="1024.21875" xlink:href="#DejaVuSans-111"/>
     <use x="1085.400391" xlink:href="#DejaVuSans-110"/>
     <use x="1148.779297" xlink:href="#DejaVuSans-115"/>
     <use x="1200.878906" xlink:href="#DejaVuSans-44"/>
     <use x="1232.666016" xlink:href="#DejaVuSans-32"/>
     <use x="1264.453125" xlink:href="#DejaVuSans-50"/>
     <use x="1328.076172" xlink:href="#DejaVuSans-45"/>
     <use x="1364.160156" xlink:href="#DejaVuSans-68"/>
    </g>
    <!-- 51 targets: 100..1e-08 -->
    <g transform="translate(60.41088 37.004824)scale(0.102 -0.102)">
     <defs>
      <path d="M 10.796875 72.90625 
L 49.515625 72.90625 
L 49.515625 64.59375 
L 19.828125 64.59375 
L 19.828125 46.734375 
Q 21.96875 47.46875 24.109375 47.828125 
Q 26.265625 48.1875 28.421875 48.1875 
Q 40.625 48.1875 47.75 41.5 
Q 54.890625 34.8125 54.890625 23.390625 
Q 54.890625 11.625 47.5625 5.09375 
Q 40.234375 -1.421875 26.90625 -1.421875 
Q 22.3125 -1.421875 17.546875 -0.640625 
Q 12.796875 0.140625 7.71875 1.703125 
L 7.71875 11.625 
Q 12.109375 9.234375 16.796875 8.0625 
Q 21.484375 6.890625 26.703125 6.890625 
Q 35.15625 6.890625 40.078125 11.328125 
Q 45.015625 15.765625 45.015625 23.390625 
Q 45.015625 31 40.078125 35.4375 
Q 35.15625 39.890625 26.703125 39.890625 
Q 22.75 39.890625 18.8125 39.015625 
Q 14.890625 38.140625 10.796875 36.28125 
z
" id="DejaVuSans-53"/>
      <path d="M 11.71875 12.40625 
L 22.015625 12.40625 
L 22.015625 0 
L 11.71875 0 
z
M 11.71875 51.703125 
L 22.015625 51.703125 
L 22.015625 39.3125 
L 11.71875 39.3125 
z
" id="DejaVuSans-58"/>
     </defs>
     <use xlink:href="#DejaVuSans-53"/>
     <use x="63.623047" xlink:href="#DejaVuSans-49"/>
     <use x="127.246094" xlink:href="#DejaVuSans-32"/>
     <use x="159.033203" xlink:href="#DejaVuSans-116"/>
     <use x="198.242188" xlink:href="#DejaVuSans-97"/>
     <use x="259.521484" xlink:href="#DejaVuSans-114"/>
     <use x="298.884766" xlink:href="#DejaVuSans-103"/>
     <use x="362.361328" xlink:href="#DejaVuSans-101"/>
     <use x="423.884766" xlink:href="#DejaVuSans-116"/>
     <use x="463.09375" xlink:href="#DejaVuSans-115"/>
     <use x="515.193359" xlink:href="#DejaVuSans-58"/>
     <use x="548.884766" xlink:href="#DejaVuSans-32"/>
     <use x="580.671875" xlink:href="#DejaVuSans-49"/>
     <use x="644.294922" xlink:href="#DejaVuSans-48"/>
     <use x="707.917969" xlink:href="#DejaVuSans-48"/>
     <use x="771.541016" xlink:href="#DejaVuSans-46"/>
     <use x="803.328125" xlink:href="#DejaVuSans-46"/>
     <use x="835.115234" xlink:href="#DejaVuSans-49"/>
     <use x="898.738281" xlink:href="#DejaVuSans-101"/>
     <use x="960.261719" xlink:href="#DejaVuSans-45"/>
     <use x="996.345703" xlink:href="#DejaVuSans-48"/>
     <use x="1059.96875" xlink:href="#DejaVuSans-56"/>
    </g>
    <!-- 15 instances -->
    <g transform="translate(60.41088 48.426593)scale(0.102 -0.102)">
     <use xlink:href="#DejaVuSans-49"/>
     <use x="63.623047" xlink:href="#DejaVuSans-53"/>
     <use x="127.246094" xlink:href="#DejaVuSans-32"/>
     <use x="159.033203" xlink:href="#DejaVuSans-105"/>
     <use x="186.816406" xlink:href="#DejaVuSans-110"/>
     <use x="250.195312" xlink:href="#DejaVuSans-115"/>
     <use x="302.294922" xlink:href="#DejaVuSans-116"/>
     <use x="341.503906" xlink:href="#DejaVuSans-97"/>
     <use x="402.783203" xlink:href="#DejaVuSans-110"/>
     <use x="466.162109" xlink:href="#DejaVuSans-99"/>
     <use x="521.142578" xlink:href="#DejaVuSans-101"/>
     <use x="582.666016" xlink:href="#DejaVuSans-115"/>
    </g>
   </g>
   <g id="text_19">
    <!-- v2.4 -->
    <g style="fill:#808080;" transform="translate(187.233062 293.909432)scale(0.1 -0.1)">
     <use xlink:href="#DejaVuSans-118"/>
     <use x="59.179688" xlink:href="#DejaVuSans-50"/>
     <use x="122.802734" xlink:href="#DejaVuSans-46"/>
     <use x="154.589844" xlink:href="#DejaVuSans-52"/>
    </g>
   </g>
  </g>
 </g>
 <defs>
  <clipPath id="p6fd02b1dfb">
   <rect height="295.488" width="281.088" x="57.6" y="3.456"/>
  </clipPath>
 </defs>
</svg>
