<?xml version="1.0" encoding="utf-8" standalone="no"?>
<!DOCTYPE svg PUBLIC "-//W3C//DTD SVG 1.1//EN"
  "http://www.w3.org/Graphics/SVG/1.1/DTD/svg11.dtd">
<!-- Created with matplotlib (https://matplotlib.org/) -->
<svg height="345.6pt" version="1.1" viewBox="0 0 460.8 345.6" width="460.8pt" xmlns="http://www.w3.org/2000/svg" xmlns:xlink="http://www.w3.org/1999/xlink">
 <metadata>
  <rdf:RDF xmlns:cc="http://creativecommons.org/ns#" xmlns:dc="http://purl.org/dc/elements/1.1/" xmlns:rdf="http://www.w3.org/1999/02/22-rdf-syntax-ns#">
   <cc:Work>
    <dc:type rdf:resource="http://purl.org/dc/dcmitype/StillImage"/>
    <dc:date>2021-06-17T01:40:13.108257</dc:date>
    <dc:format>image/svg+xml</dc:format>
    <dc:creator>
     <cc:Agent>
      <dc:title>Matplotlib v3.3.4, https://matplotlib.org/</dc:title>
     </cc:Agent>
    </dc:creator>
   </cc:Work>
  </rdf:RDF>
 </metadata>
 <defs>
  <style type="text/css">*{stroke-linecap:butt;stroke-linejoin:round;}</style>
 </defs>
 <g id="figure_1">
  <g id="patch_1">
   <path d="M 0 345.6 
L 460.8 345.6 
L 460.8 0 
L 0 0 
z
" style="fill:#ffffff;"/>
  </g>
  <g id="axes_1">
   <g id="patch_2">
    <path d="M 57.6 298.944 
L 338.688 298.944 
L 338.688 3.456 
L 57.6 3.456 
z
" style="fill:#ffffff;"/>
   </g>
   <g id="line2d_1">
    <path d="M -1 278.292538 
L 5.356583 278.292538 
L 5.356583 277.145235 
L 12.427603 277.145235 
L 12.427603 275.997931 
L 24.515591 275.997931 
L 24.515591 274.850628 
L 62.833608 274.850628 
L 62.833608 273.703324 
L 63.153604 273.703324 
L 63.153604 272.556021 
L 76.317484 272.556021 
L 76.317484 271.408718 
L 92.563189 271.408718 
L 92.563189 270.261414 
L 94.347675 270.261414 
L 94.347675 269.114111 
L 97.711776 269.114111 
L 97.711776 267.966807 
L 104.205136 267.966807 
L 104.205136 266.819504 
L 107.213174 266.819504 
L 107.213174 265.6722 
L 113.839203 265.6722 
L 113.839203 264.524897 
L 115.633223 264.524897 
L 115.633223 263.377593 
L 120.118198 263.377593 
L 120.118198 262.23029 
L 121.208142 262.23029 
L 121.208142 261.082987 
L 125.752972 261.082987 
L 125.752972 259.935683 
L 125.875108 259.935683 
L 125.875108 258.78838 
L 131.50914 258.78838 
L 131.50914 257.641076 
L 137.954401 257.641076 
L 137.954401 256.493773 
L 138.84457 256.493773 
L 138.84457 255.346469 
L 140.708409 255.346469 
L 140.708409 254.199166 
L 142.456092 254.199166 
L 142.456092 253.051863 
L 142.633244 253.051863 
L 142.633244 251.904559 
L 147.895404 251.904559 
L 147.895404 250.757256 
L 149.11121 250.757256 
L 149.11121 249.609952 
L 150.344189 249.609952 
L 150.344189 248.462649 
L 152.344968 248.462649 
L 152.344968 247.315345 
L 153.774828 247.315345 
L 153.774828 246.168042 
L 156.279062 246.168042 
L 156.279062 245.020738 
L 159.953855 245.020738 
L 159.953855 243.873435 
L 163.142032 243.873435 
L 163.142032 242.726132 
L 164.277922 242.726132 
L 164.277922 241.578828 
L 164.781961 241.578828 
L 164.781961 240.431525 
L 165.421922 240.431525 
L 165.421922 239.284221 
L 166.039228 239.284221 
L 166.039228 238.136918 
L 167.487573 238.136918 
L 167.487573 236.989614 
L 167.792761 236.989614 
L 167.792761 235.842311 
L 169.513168 235.842311 
L 169.513168 234.695008 
L 171.171166 234.695008 
L 171.171166 233.547704 
L 171.540143 233.547704 
L 171.540143 232.400401 
L 173.874697 232.400401 
L 173.874697 231.253097 
L 175.060428 231.253097 
L 175.060428 230.105794 
L 175.711665 230.105794 
L 175.711665 228.95849 
L 177.824832 228.95849 
L 177.824832 227.811187 
L 179.002064 227.811187 
L 179.002064 226.663884 
L 179.894888 226.663884 
L 179.894888 225.51658 
L 180.903899 225.51658 
L 180.903899 224.369277 
L 181.080478 224.369277 
L 181.080478 223.221973 
L 182.071084 223.221973 
L 182.071084 222.07467 
L 182.239031 222.07467 
L 182.239031 220.927366 
L 182.627639 220.927366 
L 182.627639 219.780063 
L 183.222538 219.780063 
L 183.222538 218.632759 
L 183.873913 218.632759 
L 183.873913 217.485456 
L 184.40298 217.485456 
L 184.40298 216.338153 
L 187.430246 216.338153 
L 187.430246 215.190849 
L 188.346387 215.190849 
L 188.346387 214.043546 
L 188.703239 214.043546 
L 188.72715 211.748939 
L 189.794611 211.748939 
L 189.794611 210.601635 
L 191.944951 210.601635 
L 191.944951 209.454332 
L 193.363779 209.454332 
L 193.363779 208.307029 
L 193.753638 208.307029 
L 193.753638 207.159725 
L 194.372948 207.159725 
L 194.372948 206.012422 
L 195.706134 206.012422 
L 195.706134 204.865118 
L 196.42506 204.865118 
L 196.42506 203.717815 
L 197.177562 203.717815 
L 197.177562 202.570511 
L 197.749947 202.570511 
L 197.749947 201.423208 
L 198.237486 201.423208 
L 198.237486 200.275904 
L 198.812099 200.275904 
L 198.812099 199.128601 
L 199.048923 199.128601 
L 199.048923 197.981298 
L 199.466297 197.981298 
L 199.466297 196.833994 
L 199.779397 196.833994 
L 199.779397 195.686691 
L 200.796794 195.686691 
L 200.796794 194.539387 
L 203.190123 194.539387 
L 203.190123 193.392084 
L 203.68243 193.392084 
L 203.68243 192.24478 
L 203.961088 192.24478 
L 203.961088 191.097477 
L 204.163074 191.097477 
L 204.163074 189.950174 
L 204.999382 189.950174 
L 205.049375 187.655567 
L 205.274967 187.655567 
L 205.345264 185.36096 
L 206.825921 185.36096 
L 206.825921 184.213656 
L 207.206971 184.213656 
L 207.206971 183.066353 
L 207.930028 183.066353 
L 207.930028 181.91905 
L 208.59744 181.91905 
L 208.59744 180.771746 
L 209.010717 180.771746 
L 209.010717 179.624443 
L 209.178554 179.624443 
L 209.178554 178.477139 
L 209.397948 178.477139 
L 209.397948 177.329836 
L 210.179781 177.329836 
L 210.201823 175.035229 
L 210.497411 175.035229 
L 210.497411 173.887925 
L 210.956719 173.887925 
L 210.956719 172.740622 
L 211.072259 172.740622 
L 211.072259 171.593319 
L 211.256989 171.593319 
L 211.256989 170.446015 
L 211.730652 170.446015 
L 211.821759 168.151408 
L 211.89498 168.151408 
L 211.990906 164.709498 
L 212.071488 164.709498 
L 212.071488 163.562195 
L 214.410071 163.562195 
L 214.410071 162.414891 
L 214.771609 162.414891 
L 214.771609 161.267588 
L 215.781805 161.267588 
L 215.781805 160.120284 
L 218.50587 160.120284 
L 218.50587 158.972981 
L 219.384919 158.972981 
L 219.384919 157.825677 
L 223.11957 157.825677 
L 223.203649 155.53107 
L 224.916552 155.53107 
L 224.916552 154.383767 
L 227.244278 154.383767 
L 227.299157 152.08916 
L 227.393667 152.08916 
L 227.393667 150.941857 
L 227.508541 150.941857 
L 227.589523 148.64725 
L 227.904234 148.64725 
L 227.904234 147.499946 
L 228.166275 147.499946 
L 228.249296 145.20534 
L 229.802524 145.20534 
L 229.802524 144.058036 
L 230.020773 144.058036 
L 230.020773 142.910733 
L 231.495895 142.910733 
L 231.495895 141.763429 
L 231.701149 141.763429 
L 231.701149 140.616126 
L 232.376809 140.616126 
L 232.376809 139.468822 
L 232.883038 139.468822 
L 232.992143 136.026912 
L 233.090796 136.026912 
L 233.164981 133.732305 
L 233.223549 133.732305 
L 233.296659 131.437698 
L 234.827317 131.437698 
L 234.922768 127.995788 
L 234.977831 127.995788 
L 235.076844 124.553878 
L 235.127587 124.553878 
L 235.223732 121.111967 
L 235.248105 121.111967 
L 235.31603 116.522754 
L 235.370601 116.522754 
L 235.464511 110.786236 
L 235.482231 110.786236 
L 235.559871 107.344326 
L 235.610629 107.344326 
L 235.711113 103.902416 
L 235.755357 103.902416 
L 235.850397 100.460506 
L 235.901758 100.460506 
L 235.986185 97.018595 
L 236.029768 97.018595 
L 236.125093 93.576685 
L 236.174983 93.576685 
L 236.268203 90.134775 
L 236.312525 90.134775 
L 236.405353 86.692864 
L 236.449145 86.692864 
L 236.53489 82.103651 
L 236.580915 82.103651 
L 236.668135 78.66174 
L 238.55571 78.66174 
L 238.55571 77.514437 
L 239.97228 77.514437 
L 239.97228 76.367133 
L 240.154529 76.367133 
L 240.154529 75.21983 
L 240.327971 75.21983 
L 240.327971 74.072526 
L 244.477292 74.072526 
L 244.560274 71.77792 
L 244.679689 71.77792 
L 244.679689 70.630616 
L 246.026885 70.630616 
L 246.127759 66.041402 
L 246.158183 66.041402 
L 246.247731 61.452189 
L 246.280014 61.452189 
L 246.390617 55.715672 
L 246.424099 55.715672 
L 246.52572 49.979154 
L 246.547169 49.979154 
L 246.592893 46.537244 
L 253.963008 46.537244 
L 253.963008 45.389941 
L 262.988134 45.389941 
L 262.988134 44.242637 
L 272.003333 44.242637 
L 272.003333 43.095334 
L 280.636941 43.095334 
L 280.636941 41.94803 
L 283.437352 41.94803 
L 283.437352 40.800727 
L 287.476939 40.800727 
L 287.476939 39.653423 
L 290.442738 39.653423 
L 290.515767 37.358817 
L 290.591506 37.358817 
L 290.697914 35.06421 
L 292.419798 35.06421 
L 292.419798 33.916906 
L 300.672127 33.916906 
L 300.778682 6.381624 
L 338.688 6.381624 
L 338.688 6.381624 
" style="fill:none;stroke:#f5deb3;stroke-linecap:square;stroke-width:4;"/>
   </g>
   <g id="line2d_2">
    <defs>
     <path d="M -0 7.778175 
L 7.778175 0 
L 0 -7.778175 
L -7.778175 -0 
z
" id="meb1efc4c66" style="stroke:#f5deb3;stroke-linejoin:miter;stroke-width:1.5;"/>
    </defs>
    <g>
     <use style="fill:#f5deb3;stroke:#f5deb3;stroke-linejoin:miter;stroke-width:1.5;" x="107.213174" xlink:href="#meb1efc4c66" y="265.6722"/>
     <use style="fill:#f5deb3;stroke:#f5deb3;stroke-linejoin:miter;stroke-width:1.5;" x="194.372948" xlink:href="#meb1efc4c66" y="207.159725"/>
     <use style="fill:#f5deb3;stroke:#f5deb3;stroke-linejoin:miter;stroke-width:1.5;" x="235.464511" xlink:href="#meb1efc4c66" y="110.786236"/>
     <use style="fill:#f5deb3;stroke:#f5deb3;stroke-linejoin:miter;stroke-width:1.5;" x="292.419798" xlink:href="#meb1efc4c66" y="35.06421"/>
     <use style="fill:#f5deb3;stroke:#f5deb3;stroke-linejoin:miter;stroke-width:1.5;" x="300.778682" xlink:href="#meb1efc4c66" y="6.381624"/>
     <use style="fill:#f5deb3;stroke:#f5deb3;stroke-linejoin:miter;stroke-width:1.5;" x="338.688" xlink:href="#meb1efc4c66" y="6.381624"/>
    </g>
   </g>
   <g id="line2d_3">
    <path style="fill:none;stroke:#f5deb3;stroke-linecap:square;stroke-width:4;"/>
    <g/>
   </g>
   <g id="line2d_4">
    <path d="M 338.688 6.381624 
L 369.60768 12.232871 
" style="fill:none;stroke:#f5deb3;stroke-linecap:square;stroke-width:4;"/>
    <g>
     <use style="fill:#f5deb3;stroke:#f5deb3;stroke-linejoin:miter;stroke-width:1.5;" x="338.688" xlink:href="#meb1efc4c66" y="6.381624"/>
     <use style="fill:#f5deb3;stroke:#f5deb3;stroke-linejoin:miter;stroke-width:1.5;" x="369.60768" xlink:href="#meb1efc4c66" y="12.232871"/>
    </g>
   </g>
   <g id="matplotlib.axis_1">
    <g id="xtick_1">
     <g id="line2d_5">
      <path clip-path="url(#p61828e4c49)" d="M 57.6 298.944 
L 57.6 3.456 
" style="fill:none;stroke:#b0b0b0;stroke-linecap:square;stroke-width:0.8;"/>
     </g>
     <g id="line2d_6">
      <defs>
       <path d="M 0 0 
L 0 3.5 
" id="me8c762e839" style="stroke:#000000;stroke-width:0.8;"/>
      </defs>
      <g>
       <use style="stroke:#000000;stroke-width:0.8;" x="57.6" xlink:href="#me8c762e839" y="298.944"/>
      </g>
     </g>
     <g id="text_1">
      <!-- 0 -->
      <g transform="translate(51.2375 321.140875)scale(0.2 -0.2)">
       <defs>
        <path d="M 31.78125 66.40625 
Q 24.171875 66.40625 20.328125 58.90625 
Q 16.5 51.421875 16.5 36.375 
Q 16.5 21.390625 20.328125 13.890625 
Q 24.171875 6.390625 31.78125 6.390625 
Q 39.453125 6.390625 43.28125 13.890625 
Q 47.125 21.390625 47.125 36.375 
Q 47.125 51.421875 43.28125 58.90625 
Q 39.453125 66.40625 31.78125 66.40625 
z
M 31.78125 74.21875 
Q 44.046875 74.21875 50.515625 64.515625 
Q 56.984375 54.828125 56.984375 36.375 
Q 56.984375 17.96875 50.515625 8.265625 
Q 44.046875 -1.421875 31.78125 -1.421875 
Q 19.53125 -1.421875 13.0625 8.265625 
Q 6.59375 17.96875 6.59375 36.375 
Q 6.59375 54.828125 13.0625 64.515625 
Q 19.53125 74.21875 31.78125 74.21875 
z
" id="DejaVuSans-48"/>
       </defs>
       <use xlink:href="#DejaVuSans-48"/>
      </g>
     </g>
    </g>
    <g id="xtick_2">
     <g id="line2d_7">
      <path clip-path="url(#p61828e4c49)" d="M 137.910857 298.944 
L 137.910857 3.456 
" style="fill:none;stroke:#b0b0b0;stroke-linecap:square;stroke-width:0.8;"/>
     </g>
     <g id="line2d_8">
      <g>
       <use style="stroke:#000000;stroke-width:0.8;" x="137.910857" xlink:href="#me8c762e839" y="298.944"/>
      </g>
     </g>
     <g id="text_2">
      <!-- 2 -->
      <g transform="translate(131.548357 321.140875)scale(0.2 -0.2)">
       <defs>
        <path d="M 19.1875 8.296875 
L 53.609375 8.296875 
L 53.609375 0 
L 7.328125 0 
L 7.328125 8.296875 
Q 12.9375 14.109375 22.625 23.890625 
Q 32.328125 33.6875 34.8125 36.53125 
Q 39.546875 41.84375 41.421875 45.53125 
Q 43.3125 49.21875 43.3125 52.78125 
Q 43.3125 58.59375 39.234375 62.25 
Q 35.15625 65.921875 28.609375 65.921875 
Q 23.96875 65.921875 18.8125 64.3125 
Q 13.671875 62.703125 7.8125 59.421875 
L 7.8125 69.390625 
Q 13.765625 71.78125 18.9375 73 
Q 24.125 74.21875 28.421875 74.21875 
Q 39.75 74.21875 46.484375 68.546875 
Q 53.21875 62.890625 53.21875 53.421875 
Q 53.21875 48.921875 51.53125 44.890625 
Q 49.859375 40.875 45.40625 35.40625 
Q 44.1875 33.984375 37.640625 27.21875 
Q 31.109375 20.453125 19.1875 8.296875 
z
" id="DejaVuSans-50"/>
       </defs>
       <use xlink:href="#DejaVuSans-50"/>
      </g>
     </g>
    </g>
    <g id="xtick_3">
     <g id="line2d_9">
      <path clip-path="url(#p61828e4c49)" d="M 218.221714 298.944 
L 218.221714 3.456 
" style="fill:none;stroke:#b0b0b0;stroke-linecap:square;stroke-width:0.8;"/>
     </g>
     <g id="line2d_10">
      <g>
       <use style="stroke:#000000;stroke-width:0.8;" x="218.221714" xlink:href="#me8c762e839" y="298.944"/>
      </g>
     </g>
     <g id="text_3">
      <!-- 4 -->
      <g transform="translate(211.859214 321.140875)scale(0.2 -0.2)">
       <defs>
        <path d="M 37.796875 64.3125 
L 12.890625 25.390625 
L 37.796875 25.390625 
z
M 35.203125 72.90625 
L 47.609375 72.90625 
L 47.609375 25.390625 
L 58.015625 25.390625 
L 58.015625 17.1875 
L 47.609375 17.1875 
L 47.609375 0 
L 37.796875 0 
L 37.796875 17.1875 
L 4.890625 17.1875 
L 4.890625 26.703125 
z
" id="DejaVuSans-52"/>
       </defs>
       <use xlink:href="#DejaVuSans-52"/>
      </g>
     </g>
    </g>
    <g id="xtick_4">
     <g id="line2d_11">
      <path clip-path="url(#p61828e4c49)" d="M 298.532571 298.944 
L 298.532571 3.456 
" style="fill:none;stroke:#b0b0b0;stroke-linecap:square;stroke-width:0.8;"/>
     </g>
     <g id="line2d_12">
      <g>
       <use style="stroke:#000000;stroke-width:0.8;" x="298.532571" xlink:href="#me8c762e839" y="298.944"/>
      </g>
     </g>
     <g id="text_4">
      <!-- 6 -->
      <g transform="translate(292.170071 321.140875)scale(0.2 -0.2)">
       <defs>
        <path d="M 33.015625 40.375 
Q 26.375 40.375 22.484375 35.828125 
Q 18.609375 31.296875 18.609375 23.390625 
Q 18.609375 15.53125 22.484375 10.953125 
Q 26.375 6.390625 33.015625 6.390625 
Q 39.65625 6.390625 43.53125 10.953125 
Q 47.40625 15.53125 47.40625 23.390625 
Q 47.40625 31.296875 43.53125 35.828125 
Q 39.65625 40.375 33.015625 40.375 
z
M 52.59375 71.296875 
L 52.59375 62.3125 
Q 48.875 64.0625 45.09375 64.984375 
Q 41.3125 65.921875 37.59375 65.921875 
Q 27.828125 65.921875 22.671875 59.328125 
Q 17.53125 52.734375 16.796875 39.40625 
Q 19.671875 43.65625 24.015625 45.921875 
Q 28.375 48.1875 33.59375 48.1875 
Q 44.578125 48.1875 50.953125 41.515625 
Q 57.328125 34.859375 57.328125 23.390625 
Q 57.328125 12.15625 50.6875 5.359375 
Q 44.046875 -1.421875 33.015625 -1.421875 
Q 20.359375 -1.421875 13.671875 8.265625 
Q 6.984375 17.96875 6.984375 36.375 
Q 6.984375 53.65625 15.1875 63.9375 
Q 23.390625 74.21875 37.203125 74.21875 
Q 40.921875 74.21875 44.703125 73.484375 
Q 48.484375 72.75 52.59375 71.296875 
z
" id="DejaVuSans-54"/>
       </defs>
       <use xlink:href="#DejaVuSans-54"/>
      </g>
     </g>
    </g>
    <g id="xtick_5">
     <g id="line2d_13">
      <path clip-path="url(#p61828e4c49)" d="M 97.755429 298.944 
L 97.755429 3.456 
" style="fill:none;stroke:#b0b0b0;stroke-linecap:square;stroke-width:0.8;"/>
     </g>
     <g id="line2d_14">
      <defs>
       <path d="M 0 0 
L 0 2 
" id="m252593cd16" style="stroke:#000000;stroke-width:0.6;"/>
      </defs>
      <g>
       <use style="stroke:#000000;stroke-width:0.6;" x="97.755429" xlink:href="#m252593cd16" y="298.944"/>
      </g>
     </g>
    </g>
    <g id="xtick_6">
     <g id="line2d_15">
      <path clip-path="url(#p61828e4c49)" d="M 178.066286 298.944 
L 178.066286 3.456 
" style="fill:none;stroke:#b0b0b0;stroke-linecap:square;stroke-width:0.8;"/>
     </g>
     <g id="line2d_16">
      <g>
       <use style="stroke:#000000;stroke-width:0.6;" x="178.066286" xlink:href="#m252593cd16" y="298.944"/>
      </g>
     </g>
    </g>
    <g id="xtick_7">
     <g id="line2d_17">
      <path clip-path="url(#p61828e4c49)" d="M 258.377143 298.944 
L 258.377143 3.456 
" style="fill:none;stroke:#b0b0b0;stroke-linecap:square;stroke-width:0.8;"/>
     </g>
     <g id="line2d_18">
      <g>
       <use style="stroke:#000000;stroke-width:0.6;" x="258.377143" xlink:href="#m252593cd16" y="298.944"/>
      </g>
     </g>
    </g>
    <g id="xtick_8">
     <g id="line2d_19">
      <path clip-path="url(#p61828e4c49)" d="M 338.688 298.944 
L 338.688 3.456 
" style="fill:none;stroke:#b0b0b0;stroke-linecap:square;stroke-width:0.8;"/>
     </g>
     <g id="line2d_20">
      <g>
       <use style="stroke:#000000;stroke-width:0.6;" x="338.688" xlink:href="#m252593cd16" y="298.944"/>
      </g>
     </g>
    </g>
    <g id="text_5">
     <!-- log10(# f-evals / dimension) -->
     <g transform="translate(77.764078 342.217594)scale(0.17 -0.17)">
      <defs>
       <path d="M 9.421875 75.984375 
L 18.40625 75.984375 
L 18.40625 0 
L 9.421875 0 
z
" id="DejaVuSans-108"/>
       <path d="M 30.609375 48.390625 
Q 23.390625 48.390625 19.1875 42.75 
Q 14.984375 37.109375 14.984375 27.296875 
Q 14.984375 17.484375 19.15625 11.84375 
Q 23.34375 6.203125 30.609375 6.203125 
Q 37.796875 6.203125 41.984375 11.859375 
Q 46.1875 17.53125 46.1875 27.296875 
Q 46.1875 37.015625 41.984375 42.703125 
Q 37.796875 48.390625 30.609375 48.390625 
z
M 30.609375 56 
Q 42.328125 56 49.015625 48.375 
Q 55.71875 40.765625 55.71875 27.296875 
Q 55.71875 13.875 49.015625 6.21875 
Q 42.328125 -1.421875 30.609375 -1.421875 
Q 18.84375 -1.421875 12.171875 6.21875 
Q 5.515625 13.875 5.515625 27.296875 
Q 5.515625 40.765625 12.171875 48.375 
Q 18.84375 56 30.609375 56 
z
" id="DejaVuSans-111"/>
       <path d="M 45.40625 27.984375 
Q 45.40625 37.75 41.375 43.109375 
Q 37.359375 48.484375 30.078125 48.484375 
Q 22.859375 48.484375 18.828125 43.109375 
Q 14.796875 37.75 14.796875 27.984375 
Q 14.796875 18.265625 18.828125 12.890625 
Q 22.859375 7.515625 30.078125 7.515625 
Q 37.359375 7.515625 41.375 12.890625 
Q 45.40625 18.265625 45.40625 27.984375 
z
M 54.390625 6.78125 
Q 54.390625 -7.171875 48.1875 -13.984375 
Q 42 -20.796875 29.203125 -20.796875 
Q 24.46875 -20.796875 20.265625 -20.09375 
Q 16.0625 -19.390625 12.109375 -17.921875 
L 12.109375 -9.1875 
Q 16.0625 -11.328125 19.921875 -12.34375 
Q 23.78125 -13.375 27.78125 -13.375 
Q 36.625 -13.375 41.015625 -8.765625 
Q 45.40625 -4.15625 45.40625 5.171875 
L 45.40625 9.625 
Q 42.625 4.78125 38.28125 2.390625 
Q 33.9375 0 27.875 0 
Q 17.828125 0 11.671875 7.65625 
Q 5.515625 15.328125 5.515625 27.984375 
Q 5.515625 40.671875 11.671875 48.328125 
Q 17.828125 56 27.875 56 
Q 33.9375 56 38.28125 53.609375 
Q 42.625 51.21875 45.40625 46.390625 
L 45.40625 54.6875 
L 54.390625 54.6875 
z
" id="DejaVuSans-103"/>
       <path d="M 12.40625 8.296875 
L 28.515625 8.296875 
L 28.515625 63.921875 
L 10.984375 60.40625 
L 10.984375 69.390625 
L 28.421875 72.90625 
L 38.28125 72.90625 
L 38.28125 8.296875 
L 54.390625 8.296875 
L 54.390625 0 
L 12.40625 0 
z
" id="DejaVuSans-49"/>
       <path d="M 31 75.875 
Q 24.46875 64.65625 21.28125 53.65625 
Q 18.109375 42.671875 18.109375 31.390625 
Q 18.109375 20.125 21.3125 9.0625 
Q 24.515625 -2 31 -13.1875 
L 23.1875 -13.1875 
Q 15.875 -1.703125 12.234375 9.375 
Q 8.59375 20.453125 8.59375 31.390625 
Q 8.59375 42.28125 12.203125 53.3125 
Q 15.828125 64.359375 23.1875 75.875 
z
" id="DejaVuSans-40"/>
       <path d="M 51.125 44 
L 36.921875 44 
L 32.8125 27.6875 
L 47.125 27.6875 
z
M 43.796875 71.78125 
L 38.71875 51.515625 
L 52.984375 51.515625 
L 58.109375 71.78125 
L 65.921875 71.78125 
L 60.890625 51.515625 
L 76.125 51.515625 
L 76.125 44 
L 58.984375 44 
L 54.984375 27.6875 
L 70.515625 27.6875 
L 70.515625 20.21875 
L 53.078125 20.21875 
L 48 0 
L 40.1875 0 
L 45.21875 20.21875 
L 30.90625 20.21875 
L 25.875 0 
L 18.015625 0 
L 23.09375 20.21875 
L 7.71875 20.21875 
L 7.71875 27.6875 
L 24.90625 27.6875 
L 29 44 
L 13.28125 44 
L 13.28125 51.515625 
L 30.90625 51.515625 
L 35.890625 71.78125 
z
" id="DejaVuSans-35"/>
       <path id="DejaVuSans-32"/>
       <path d="M 37.109375 75.984375 
L 37.109375 68.5 
L 28.515625 68.5 
Q 23.6875 68.5 21.796875 66.546875 
Q 19.921875 64.59375 19.921875 59.515625 
L 19.921875 54.6875 
L 34.71875 54.6875 
L 34.71875 47.703125 
L 19.921875 47.703125 
L 19.921875 0 
L 10.890625 0 
L 10.890625 47.703125 
L 2.296875 47.703125 
L 2.296875 54.6875 
L 10.890625 54.6875 
L 10.890625 58.5 
Q 10.890625 67.625 15.140625 71.796875 
Q 19.390625 75.984375 28.609375 75.984375 
z
" id="DejaVuSans-102"/>
       <path d="M 4.890625 31.390625 
L 31.203125 31.390625 
L 31.203125 23.390625 
L 4.890625 23.390625 
z
" id="DejaVuSans-45"/>
       <path d="M 56.203125 29.59375 
L 56.203125 25.203125 
L 14.890625 25.203125 
Q 15.484375 15.921875 20.484375 11.0625 
Q 25.484375 6.203125 34.421875 6.203125 
Q 39.59375 6.203125 44.453125 7.46875 
Q 49.3125 8.734375 54.109375 11.28125 
L 54.109375 2.78125 
Q 49.265625 0.734375 44.1875 -0.34375 
Q 39.109375 -1.421875 33.890625 -1.421875 
Q 20.796875 -1.421875 13.15625 6.1875 
Q 5.515625 13.8125 5.515625 26.8125 
Q 5.515625 40.234375 12.765625 48.109375 
Q 20.015625 56 32.328125 56 
Q 43.359375 56 49.78125 48.890625 
Q 56.203125 41.796875 56.203125 29.59375 
z
M 47.21875 32.234375 
Q 47.125 39.59375 43.09375 43.984375 
Q 39.0625 48.390625 32.421875 48.390625 
Q 24.90625 48.390625 20.390625 44.140625 
Q 15.875 39.890625 15.1875 32.171875 
z
" id="DejaVuSans-101"/>
       <path d="M 2.984375 54.6875 
L 12.5 54.6875 
L 29.59375 8.796875 
L 46.6875 54.6875 
L 56.203125 54.6875 
L 35.6875 0 
L 23.484375 0 
z
" id="DejaVuSans-118"/>
       <path d="M 34.28125 27.484375 
Q 23.390625 27.484375 19.1875 25 
Q 14.984375 22.515625 14.984375 16.5 
Q 14.984375 11.71875 18.140625 8.90625 
Q 21.296875 6.109375 26.703125 6.109375 
Q 34.1875 6.109375 38.703125 11.40625 
Q 43.21875 16.703125 43.21875 25.484375 
L 43.21875 27.484375 
z
M 52.203125 31.203125 
L 52.203125 0 
L 43.21875 0 
L 43.21875 8.296875 
Q 40.140625 3.328125 35.546875 0.953125 
Q 30.953125 -1.421875 24.3125 -1.421875 
Q 15.921875 -1.421875 10.953125 3.296875 
Q 6 8.015625 6 15.921875 
Q 6 25.140625 12.171875 29.828125 
Q 18.359375 34.515625 30.609375 34.515625 
L 43.21875 34.515625 
L 43.21875 35.40625 
Q 43.21875 41.609375 39.140625 45 
Q 35.0625 48.390625 27.6875 48.390625 
Q 23 48.390625 18.546875 47.265625 
Q 14.109375 46.140625 10.015625 43.890625 
L 10.015625 52.203125 
Q 14.9375 54.109375 19.578125 55.046875 
Q 24.21875 56 28.609375 56 
Q 40.484375 56 46.34375 49.84375 
Q 52.203125 43.703125 52.203125 31.203125 
z
" id="DejaVuSans-97"/>
       <path d="M 44.28125 53.078125 
L 44.28125 44.578125 
Q 40.484375 46.53125 36.375 47.5 
Q 32.28125 48.484375 27.875 48.484375 
Q 21.1875 48.484375 17.84375 46.4375 
Q 14.5 44.390625 14.5 40.28125 
Q 14.5 37.15625 16.890625 35.375 
Q 19.28125 33.59375 26.515625 31.984375 
L 29.59375 31.296875 
Q 39.15625 29.25 43.1875 25.515625 
Q 47.21875 21.78125 47.21875 15.09375 
Q 47.21875 7.46875 41.1875 3.015625 
Q 35.15625 -1.421875 24.609375 -1.421875 
Q 20.21875 -1.421875 15.453125 -0.5625 
Q 10.6875 0.296875 5.421875 2 
L 5.421875 11.28125 
Q 10.40625 8.6875 15.234375 7.390625 
Q 20.0625 6.109375 24.8125 6.109375 
Q 31.15625 6.109375 34.5625 8.28125 
Q 37.984375 10.453125 37.984375 14.40625 
Q 37.984375 18.0625 35.515625 20.015625 
Q 33.0625 21.96875 24.703125 23.78125 
L 21.578125 24.515625 
Q 13.234375 26.265625 9.515625 29.90625 
Q 5.8125 33.546875 5.8125 39.890625 
Q 5.8125 47.609375 11.28125 51.796875 
Q 16.75 56 26.8125 56 
Q 31.78125 56 36.171875 55.265625 
Q 40.578125 54.546875 44.28125 53.078125 
z
" id="DejaVuSans-115"/>
       <path d="M 25.390625 72.90625 
L 33.6875 72.90625 
L 8.296875 -9.28125 
L 0 -9.28125 
z
" id="DejaVuSans-47"/>
       <path d="M 45.40625 46.390625 
L 45.40625 75.984375 
L 54.390625 75.984375 
L 54.390625 0 
L 45.40625 0 
L 45.40625 8.203125 
Q 42.578125 3.328125 38.25 0.953125 
Q 33.9375 -1.421875 27.875 -1.421875 
Q 17.96875 -1.421875 11.734375 6.484375 
Q 5.515625 14.40625 5.515625 27.296875 
Q 5.515625 40.1875 11.734375 48.09375 
Q 17.96875 56 27.875 56 
Q 33.9375 56 38.25 53.625 
Q 42.578125 51.265625 45.40625 46.390625 
z
M 14.796875 27.296875 
Q 14.796875 17.390625 18.875 11.75 
Q 22.953125 6.109375 30.078125 6.109375 
Q 37.203125 6.109375 41.296875 11.75 
Q 45.40625 17.390625 45.40625 27.296875 
Q 45.40625 37.203125 41.296875 42.84375 
Q 37.203125 48.484375 30.078125 48.484375 
Q 22.953125 48.484375 18.875 42.84375 
Q 14.796875 37.203125 14.796875 27.296875 
z
" id="DejaVuSans-100"/>
       <path d="M 9.421875 54.6875 
L 18.40625 54.6875 
L 18.40625 0 
L 9.421875 0 
z
M 9.421875 75.984375 
L 18.40625 75.984375 
L 18.40625 64.59375 
L 9.421875 64.59375 
z
" id="DejaVuSans-105"/>
       <path d="M 52 44.1875 
Q 55.375 50.25 60.0625 53.125 
Q 64.75 56 71.09375 56 
Q 79.640625 56 84.28125 50.015625 
Q 88.921875 44.046875 88.921875 33.015625 
L 88.921875 0 
L 79.890625 0 
L 79.890625 32.71875 
Q 79.890625 40.578125 77.09375 44.375 
Q 74.3125 48.1875 68.609375 48.1875 
Q 61.625 48.1875 57.5625 43.546875 
Q 53.515625 38.921875 53.515625 30.90625 
L 53.515625 0 
L 44.484375 0 
L 44.484375 32.71875 
Q 44.484375 40.625 41.703125 44.40625 
Q 38.921875 48.1875 33.109375 48.1875 
Q 26.21875 48.1875 22.15625 43.53125 
Q 18.109375 38.875 18.109375 30.90625 
L 18.109375 0 
L 9.078125 0 
L 9.078125 54.6875 
L 18.109375 54.6875 
L 18.109375 46.1875 
Q 21.1875 51.21875 25.484375 53.609375 
Q 29.78125 56 35.6875 56 
Q 41.65625 56 45.828125 52.96875 
Q 50 49.953125 52 44.1875 
z
" id="DejaVuSans-109"/>
       <path d="M 54.890625 33.015625 
L 54.890625 0 
L 45.90625 0 
L 45.90625 32.71875 
Q 45.90625 40.484375 42.875 44.328125 
Q 39.84375 48.1875 33.796875 48.1875 
Q 26.515625 48.1875 22.3125 43.546875 
Q 18.109375 38.921875 18.109375 30.90625 
L 18.109375 0 
L 9.078125 0 
L 9.078125 54.6875 
L 18.109375 54.6875 
L 18.109375 46.1875 
Q 21.34375 51.125 25.703125 53.5625 
Q 30.078125 56 35.796875 56 
Q 45.21875 56 50.046875 50.171875 
Q 54.890625 44.34375 54.890625 33.015625 
z
" id="DejaVuSans-110"/>
       <path d="M 8.015625 75.875 
L 15.828125 75.875 
Q 23.140625 64.359375 26.78125 53.3125 
Q 30.421875 42.28125 30.421875 31.390625 
Q 30.421875 20.453125 26.78125 9.375 
Q 23.140625 -1.703125 15.828125 -13.1875 
L 8.015625 -13.1875 
Q 14.5 -2 17.703125 9.0625 
Q 20.90625 20.125 20.90625 31.390625 
Q 20.90625 42.671875 17.703125 53.65625 
Q 14.5 64.65625 8.015625 75.875 
z
" id="DejaVuSans-41"/>
      </defs>
      <use xlink:href="#DejaVuSans-108"/>
      <use x="27.783203" xlink:href="#DejaVuSans-111"/>
      <use x="88.964844" xlink:href="#DejaVuSans-103"/>
      <use x="152.441406" xlink:href="#DejaVuSans-49"/>
      <use x="216.064453" xlink:href="#DejaVuSans-48"/>
      <use x="279.6875" xlink:href="#DejaVuSans-40"/>
      <use x="318.701172" xlink:href="#DejaVuSans-35"/>
      <use x="402.490234" xlink:href="#DejaVuSans-32"/>
      <use x="434.277344" xlink:href="#DejaVuSans-102"/>
      <use x="463.982422" xlink:href="#DejaVuSans-45"/>
      <use x="500.066406" xlink:href="#DejaVuSans-101"/>
      <use x="561.589844" xlink:href="#DejaVuSans-118"/>
      <use x="620.769531" xlink:href="#DejaVuSans-97"/>
      <use x="682.048828" xlink:href="#DejaVuSans-108"/>
      <use x="709.832031" xlink:href="#DejaVuSans-115"/>
      <use x="761.931641" xlink:href="#DejaVuSans-32"/>
      <use x="793.71875" xlink:href="#DejaVuSans-47"/>
      <use x="827.410156" xlink:href="#DejaVuSans-32"/>
      <use x="859.197266" xlink:href="#DejaVuSans-100"/>
      <use x="922.673828" xlink:href="#DejaVuSans-105"/>
      <use x="950.457031" xlink:href="#DejaVuSans-109"/>
      <use x="1047.869141" xlink:href="#DejaVuSans-101"/>
      <use x="1109.392578" xlink:href="#DejaVuSans-110"/>
      <use x="1172.771484" xlink:href="#DejaVuSans-115"/>
      <use x="1224.871094" xlink:href="#DejaVuSans-105"/>
      <use x="1252.654297" xlink:href="#DejaVuSans-111"/>
      <use x="1313.835938" xlink:href="#DejaVuSans-110"/>
      <use x="1377.214844" xlink:href="#DejaVuSans-41"/>
     </g>
    </g>
   </g>
   <g id="matplotlib.axis_2">
    <g id="ytick_1">
     <g id="line2d_21">
      <path clip-path="url(#p61828e4c49)" d="M 57.6 298.944 
L 338.688 298.944 
" style="fill:none;stroke:#b0b0b0;stroke-linecap:square;stroke-width:0.8;"/>
     </g>
     <g id="line2d_22">
      <defs>
       <path d="M 0 0 
L -3.5 0 
" id="m5d10fce013" style="stroke:#000000;stroke-width:0.8;"/>
      </defs>
      <g>
       <use style="stroke:#000000;stroke-width:0.8;" x="57.6" xlink:href="#m5d10fce013" y="298.944"/>
      </g>
     </g>
     <g id="text_6">
      <!-- 0.0 -->
      <g transform="translate(25.155 305.02275)scale(0.16 -0.16)">
       <defs>
        <path d="M 10.6875 12.40625 
L 21 12.40625 
L 21 0 
L 10.6875 0 
z
" id="DejaVuSans-46"/>
       </defs>
       <use xlink:href="#DejaVuSans-48"/>
       <use x="63.623047" xlink:href="#DejaVuSans-46"/>
       <use x="95.410156" xlink:href="#DejaVuSans-48"/>
      </g>
     </g>
    </g>
    <g id="ytick_2">
     <g id="line2d_23">
      <path clip-path="url(#p61828e4c49)" d="M 57.6 240.431525 
L 338.688 240.431525 
" style="fill:none;stroke:#b0b0b0;stroke-linecap:square;stroke-width:0.8;"/>
     </g>
     <g id="line2d_24">
      <g>
       <use style="stroke:#000000;stroke-width:0.8;" x="57.6" xlink:href="#m5d10fce013" y="240.431525"/>
      </g>
     </g>
     <g id="text_7">
      <!-- 0.2 -->
      <g transform="translate(25.155 246.510275)scale(0.16 -0.16)">
       <use xlink:href="#DejaVuSans-48"/>
       <use x="63.623047" xlink:href="#DejaVuSans-46"/>
       <use x="95.410156" xlink:href="#DejaVuSans-50"/>
      </g>
     </g>
    </g>
    <g id="ytick_3">
     <g id="line2d_25">
      <path clip-path="url(#p61828e4c49)" d="M 57.6 181.91905 
L 338.688 181.91905 
" style="fill:none;stroke:#b0b0b0;stroke-linecap:square;stroke-width:0.8;"/>
     </g>
     <g id="line2d_26">
      <g>
       <use style="stroke:#000000;stroke-width:0.8;" x="57.6" xlink:href="#m5d10fce013" y="181.91905"/>
      </g>
     </g>
     <g id="text_8">
      <!-- 0.4 -->
      <g transform="translate(25.155 187.9978)scale(0.16 -0.16)">
       <use xlink:href="#DejaVuSans-48"/>
       <use x="63.623047" xlink:href="#DejaVuSans-46"/>
       <use x="95.410156" xlink:href="#DejaVuSans-52"/>
      </g>
     </g>
    </g>
    <g id="ytick_4">
     <g id="line2d_27">
      <path clip-path="url(#p61828e4c49)" d="M 57.6 123.406574 
L 338.688 123.406574 
" style="fill:none;stroke:#b0b0b0;stroke-linecap:square;stroke-width:0.8;"/>
     </g>
     <g id="line2d_28">
      <g>
       <use style="stroke:#000000;stroke-width:0.8;" x="57.6" xlink:href="#m5d10fce013" y="123.406574"/>
      </g>
     </g>
     <g id="text_9">
      <!-- 0.6 -->
      <g transform="translate(25.155 129.485324)scale(0.16 -0.16)">
       <use xlink:href="#DejaVuSans-48"/>
       <use x="63.623047" xlink:href="#DejaVuSans-46"/>
       <use x="95.410156" xlink:href="#DejaVuSans-54"/>
      </g>
     </g>
    </g>
    <g id="ytick_5">
     <g id="line2d_29">
      <path clip-path="url(#p61828e4c49)" d="M 57.6 64.894099 
L 338.688 64.894099 
" style="fill:none;stroke:#b0b0b0;stroke-linecap:square;stroke-width:0.8;"/>
     </g>
     <g id="line2d_30">
      <g>
       <use style="stroke:#000000;stroke-width:0.8;" x="57.6" xlink:href="#m5d10fce013" y="64.894099"/>
      </g>
     </g>
     <g id="text_10">
      <!-- 0.8 -->
      <g transform="translate(25.155 70.972849)scale(0.16 -0.16)">
       <defs>
        <path d="M 31.78125 34.625 
Q 24.75 34.625 20.71875 30.859375 
Q 16.703125 27.09375 16.703125 20.515625 
Q 16.703125 13.921875 20.71875 10.15625 
Q 24.75 6.390625 31.78125 6.390625 
Q 38.8125 6.390625 42.859375 10.171875 
Q 46.921875 13.96875 46.921875 20.515625 
Q 46.921875 27.09375 42.890625 30.859375 
Q 38.875 34.625 31.78125 34.625 
z
M 21.921875 38.8125 
Q 15.578125 40.375 12.03125 44.71875 
Q 8.5 49.078125 8.5 55.328125 
Q 8.5 64.0625 14.71875 69.140625 
Q 20.953125 74.21875 31.78125 74.21875 
Q 42.671875 74.21875 48.875 69.140625 
Q 55.078125 64.0625 55.078125 55.328125 
Q 55.078125 49.078125 51.53125 44.71875 
Q 48 40.375 41.703125 38.8125 
Q 48.828125 37.15625 52.796875 32.3125 
Q 56.78125 27.484375 56.78125 20.515625 
Q 56.78125 9.90625 50.3125 4.234375 
Q 43.84375 -1.421875 31.78125 -1.421875 
Q 19.734375 -1.421875 13.25 4.234375 
Q 6.78125 9.90625 6.78125 20.515625 
Q 6.78125 27.484375 10.78125 32.3125 
Q 14.796875 37.15625 21.921875 38.8125 
z
M 18.3125 54.390625 
Q 18.3125 48.734375 21.84375 45.5625 
Q 25.390625 42.390625 31.78125 42.390625 
Q 38.140625 42.390625 41.71875 45.5625 
Q 45.3125 48.734375 45.3125 54.390625 
Q 45.3125 60.0625 41.71875 63.234375 
Q 38.140625 66.40625 31.78125 66.40625 
Q 25.390625 66.40625 21.84375 63.234375 
Q 18.3125 60.0625 18.3125 54.390625 
z
" id="DejaVuSans-56"/>
       </defs>
       <use xlink:href="#DejaVuSans-48"/>
       <use x="63.623047" xlink:href="#DejaVuSans-46"/>
       <use x="95.410156" xlink:href="#DejaVuSans-56"/>
      </g>
     </g>
    </g>
    <g id="ytick_6">
     <g id="line2d_31">
      <path clip-path="url(#p61828e4c49)" d="M 57.6 6.381624 
L 338.688 6.381624 
" style="fill:none;stroke:#b0b0b0;stroke-linecap:square;stroke-width:0.8;"/>
     </g>
     <g id="line2d_32">
      <g>
       <use style="stroke:#000000;stroke-width:0.8;" x="57.6" xlink:href="#m5d10fce013" y="6.381624"/>
      </g>
     </g>
     <g id="text_11">
      <!-- 1.0 -->
      <g transform="translate(25.155 12.460374)scale(0.16 -0.16)">
       <use xlink:href="#DejaVuSans-49"/>
       <use x="63.623047" xlink:href="#DejaVuSans-46"/>
       <use x="95.410156" xlink:href="#DejaVuSans-48"/>
      </g>
     </g>
    </g>
    <g id="text_12">
     <!-- Fraction of function,target pairs -->
     <g transform="translate(17.619531 285.585)rotate(-90)scale(0.17 -0.17)">
      <defs>
       <path d="M 9.8125 72.90625 
L 51.703125 72.90625 
L 51.703125 64.59375 
L 19.671875 64.59375 
L 19.671875 43.109375 
L 48.578125 43.109375 
L 48.578125 34.8125 
L 19.671875 34.8125 
L 19.671875 0 
L 9.8125 0 
z
" id="DejaVuSans-70"/>
       <path d="M 41.109375 46.296875 
Q 39.59375 47.171875 37.8125 47.578125 
Q 36.03125 48 33.890625 48 
Q 26.265625 48 22.1875 43.046875 
Q 18.109375 38.09375 18.109375 28.8125 
L 18.109375 0 
L 9.078125 0 
L 9.078125 54.6875 
L 18.109375 54.6875 
L 18.109375 46.1875 
Q 20.953125 51.171875 25.484375 53.578125 
Q 30.03125 56 36.53125 56 
Q 37.453125 56 38.578125 55.875 
Q 39.703125 55.765625 41.0625 55.515625 
z
" id="DejaVuSans-114"/>
       <path d="M 48.78125 52.59375 
L 48.78125 44.1875 
Q 44.96875 46.296875 41.140625 47.34375 
Q 37.3125 48.390625 33.40625 48.390625 
Q 24.65625 48.390625 19.8125 42.84375 
Q 14.984375 37.3125 14.984375 27.296875 
Q 14.984375 17.28125 19.8125 11.734375 
Q 24.65625 6.203125 33.40625 6.203125 
Q 37.3125 6.203125 41.140625 7.25 
Q 44.96875 8.296875 48.78125 10.40625 
L 48.78125 2.09375 
Q 45.015625 0.34375 40.984375 -0.53125 
Q 36.96875 -1.421875 32.421875 -1.421875 
Q 20.0625 -1.421875 12.78125 6.34375 
Q 5.515625 14.109375 5.515625 27.296875 
Q 5.515625 40.671875 12.859375 48.328125 
Q 20.21875 56 33.015625 56 
Q 37.15625 56 41.109375 55.140625 
Q 45.0625 54.296875 48.78125 52.59375 
z
" id="DejaVuSans-99"/>
       <path d="M 18.3125 70.21875 
L 18.3125 54.6875 
L 36.8125 54.6875 
L 36.8125 47.703125 
L 18.3125 47.703125 
L 18.3125 18.015625 
Q 18.3125 11.328125 20.140625 9.421875 
Q 21.96875 7.515625 27.59375 7.515625 
L 36.8125 7.515625 
L 36.8125 0 
L 27.59375 0 
Q 17.1875 0 13.234375 3.875 
Q 9.28125 7.765625 9.28125 18.015625 
L 9.28125 47.703125 
L 2.6875 47.703125 
L 2.6875 54.6875 
L 9.28125 54.6875 
L 9.28125 70.21875 
z
" id="DejaVuSans-116"/>
       <path d="M 8.5 21.578125 
L 8.5 54.6875 
L 17.484375 54.6875 
L 17.484375 21.921875 
Q 17.484375 14.15625 20.5 10.265625 
Q 23.53125 6.390625 29.59375 6.390625 
Q 36.859375 6.390625 41.078125 11.03125 
Q 45.3125 15.671875 45.3125 23.6875 
L 45.3125 54.6875 
L 54.296875 54.6875 
L 54.296875 0 
L 45.3125 0 
L 45.3125 8.40625 
Q 42.046875 3.421875 37.71875 1 
Q 33.40625 -1.421875 27.6875 -1.421875 
Q 18.265625 -1.421875 13.375 4.4375 
Q 8.5 10.296875 8.5 21.578125 
z
M 31.109375 56 
z
" id="DejaVuSans-117"/>
       <path d="M 11.71875 12.40625 
L 22.015625 12.40625 
L 22.015625 4 
L 14.015625 -11.625 
L 7.71875 -11.625 
L 11.71875 4 
z
" id="DejaVuSans-44"/>
       <path d="M 18.109375 8.203125 
L 18.109375 -20.796875 
L 9.078125 -20.796875 
L 9.078125 54.6875 
L 18.109375 54.6875 
L 18.109375 46.390625 
Q 20.953125 51.265625 25.265625 53.625 
Q 29.59375 56 35.59375 56 
Q 45.5625 56 51.78125 48.09375 
Q 58.015625 40.1875 58.015625 27.296875 
Q 58.015625 14.40625 51.78125 6.484375 
Q 45.5625 -1.421875 35.59375 -1.421875 
Q 29.59375 -1.421875 25.265625 0.953125 
Q 20.953125 3.328125 18.109375 8.203125 
z
M 48.6875 27.296875 
Q 48.6875 37.203125 44.609375 42.84375 
Q 40.53125 48.484375 33.40625 48.484375 
Q 26.265625 48.484375 22.1875 42.84375 
Q 18.109375 37.203125 18.109375 27.296875 
Q 18.109375 17.390625 22.1875 11.75 
Q 26.265625 6.109375 33.40625 6.109375 
Q 40.53125 6.109375 44.609375 11.75 
Q 48.6875 17.390625 48.6875 27.296875 
z
" id="DejaVuSans-112"/>
      </defs>
      <use xlink:href="#DejaVuSans-70"/>
      <use x="50.269531" xlink:href="#DejaVuSans-114"/>
      <use x="91.382812" xlink:href="#DejaVuSans-97"/>
      <use x="152.662109" xlink:href="#DejaVuSans-99"/>
      <use x="207.642578" xlink:href="#DejaVuSans-116"/>
      <use x="246.851562" xlink:href="#DejaVuSans-105"/>
      <use x="274.634766" xlink:href="#DejaVuSans-111"/>
      <use x="335.816406" xlink:href="#DejaVuSans-110"/>
      <use x="399.195312" xlink:href="#DejaVuSans-32"/>
      <use x="430.982422" xlink:href="#DejaVuSans-111"/>
      <use x="492.164062" xlink:href="#DejaVuSans-102"/>
      <use x="527.369141" xlink:href="#DejaVuSans-32"/>
      <use x="559.15625" xlink:href="#DejaVuSans-102"/>
      <use x="594.361328" xlink:href="#DejaVuSans-117"/>
      <use x="657.740234" xlink:href="#DejaVuSans-110"/>
      <use x="721.119141" xlink:href="#DejaVuSans-99"/>
      <use x="776.099609" xlink:href="#DejaVuSans-116"/>
      <use x="815.308594" xlink:href="#DejaVuSans-105"/>
      <use x="843.091797" xlink:href="#DejaVuSans-111"/>
      <use x="904.273438" xlink:href="#DejaVuSans-110"/>
      <use x="967.652344" xlink:href="#DejaVuSans-44"/>
      <use x="999.439453" xlink:href="#DejaVuSans-116"/>
      <use x="1038.648438" xlink:href="#DejaVuSans-97"/>
      <use x="1099.927734" xlink:href="#DejaVuSans-114"/>
      <use x="1139.291016" xlink:href="#DejaVuSans-103"/>
      <use x="1202.767578" xlink:href="#DejaVuSans-101"/>
      <use x="1264.291016" xlink:href="#DejaVuSans-116"/>
      <use x="1303.5" xlink:href="#DejaVuSans-32"/>
      <use x="1335.287109" xlink:href="#DejaVuSans-112"/>
      <use x="1398.763672" xlink:href="#DejaVuSans-97"/>
      <use x="1460.042969" xlink:href="#DejaVuSans-105"/>
      <use x="1487.826172" xlink:href="#DejaVuSans-114"/>
      <use x="1528.939453" xlink:href="#DejaVuSans-115"/>
     </g>
    </g>
   </g>
   <g id="line2d_33">
    <defs>
     <path d="M 0 1.5 
C 0.397805 1.5 0.77937 1.341951 1.06066 1.06066 
C 1.341951 0.77937 1.5 0.397805 1.5 0 
C 1.5 -0.397805 1.341951 -0.77937 1.06066 -1.06066 
C 0.77937 -1.341951 0.397805 -1.5 0 -1.5 
C -0.397805 -1.5 -0.77937 -1.341951 -1.06066 -1.06066 
C -1.341951 -0.77937 -1.5 -0.397805 -1.5 0 
C -1.5 0.397805 -1.341951 0.77937 -1.06066 1.06066 
C -0.77937 1.341951 -0.397805 1.5 0 1.5 
z
" id="me8057fac8d" style="stroke:#f5deb3;"/>
    </defs>
    <g>
     <use style="fill:#f5deb3;stroke:#f5deb3;" x="300.778682" xlink:href="#me8057fac8d" y="6.381624"/>
     <use style="fill:#f5deb3;stroke:#f5deb3;" x="300.778682" xlink:href="#me8057fac8d" y="6.381624"/>
    </g>
   </g>
   <g id="line2d_34">
    <defs>
     <path d="M 0 1.5 
C 0.397805 1.5 0.77937 1.341951 1.06066 1.06066 
C 1.341951 0.77937 1.5 0.397805 1.5 0 
C 1.5 -0.397805 1.341951 -0.77937 1.06066 -1.06066 
C 0.77937 -1.341951 0.397805 -1.5 0 -1.5 
C -0.397805 -1.5 -0.77937 -1.341951 -1.06066 -1.06066 
C -1.341951 -0.77937 -1.5 -0.397805 -1.5 0 
C -1.5 0.397805 -1.341951 0.77937 -1.06066 1.06066 
C -0.77937 1.341951 -0.397805 1.5 0 1.5 
z
" id="m6f4ecaf2da" style="stroke:#000080;"/>
    </defs>
    <g>
     <use style="fill:#000080;stroke:#000080;" x="297.079634" xlink:href="#m6f4ecaf2da" y="255.346469"/>
     <use style="fill:#000080;stroke:#000080;" x="297.079634" xlink:href="#m6f4ecaf2da" y="255.346469"/>
    </g>
   </g>
   <g id="line2d_35">
    <path d="M -1 275.42428 
L 5.356583 275.42428 
L 5.356583 274.506437 
L 12.427603 274.506437 
L 12.427603 274.276976 
L 17.444571 274.276976 
L 17.444571 273.703324 
L 21.336035 273.703324 
L 21.336035 273.588594 
L 27.203868 273.588594 
L 27.203868 273.473864 
L 29.53256 273.473864 
L 29.53256 273.359133 
L 45.512012 273.359133 
L 45.512012 273.244403 
L 50.74562 273.244403 
L 50.74562 273.129673 
L 51.991813 273.129673 
L 51.991813 272.900212 
L 59.262141 272.900212 
L 59.262141 272.785482 
L 59.654051 272.785482 
L 59.654051 272.670751 
L 71.150821 272.670751 
L 71.150821 272.556021 
L 72.125336 272.556021 
L 72.125336 272.441291 
L 72.684933 272.441291 
L 72.684933 272.32656 
L 73.048265 272.32656 
L 73.048265 272.21183 
L 74.75937 272.21183 
L 74.75937 272.0971 
L 75.710839 272.0971 
L 75.710839 271.982369 
L 77.470915 271.982369 
L 77.470915 271.867639 
L 78.683399 271.867639 
L 78.683399 271.752909 
L 79.447285 271.752909 
L 79.447285 271.638178 
L 83.037197 271.638178 
L 83.037197 271.523448 
L 84.118288 271.523448 
L 84.118288 271.408718 
L 85.403869 271.408718 
L 85.403869 271.293987 
L 85.66744 271.293987 
L 85.66744 271.179257 
L 86.351421 271.179257 
L 86.351421 271.064526 
L 86.518305 271.064526 
L 86.518305 270.949796 
L 86.92866 270.949796 
L 86.92866 270.835066 
L 87.250131 270.835066 
L 87.250131 270.720335 
L 87.721492 270.720335 
L 87.721492 270.605605 
L 88.0288 270.605605 
L 88.0288 270.490875 
L 89.277618 270.490875 
L 89.277618 270.376144 
L 90.175681 270.376144 
L 90.175681 270.261414 
L 92.854336 270.261414 
L 92.854336 270.146684 
L 93.422441 270.146684 
L 93.478247 269.917223 
L 93.589325 269.917223 
L 93.589325 269.802493 
L 93.918378 269.802493 
L 93.918378 269.687762 
L 94.505975 269.687762 
L 94.505975 269.573032 
L 95.674107 269.573032 
L 95.674107 269.458302 
L 97.043522 269.458302 
L 97.043522 269.343571 
L 98.228533 269.343571 
L 98.228533 269.228841 
L 98.355365 269.228841 
L 98.355365 269.114111 
L 99.848191 269.114111 
L 99.848191 268.99938 
L 100.493461 268.99938 
L 100.530685 268.76992 
L 101.187472 268.76992 
L 101.187472 268.655189 
L 101.365607 268.655189 
L 101.471621 268.425729 
L 103.117741 268.425729 
L 103.117741 268.310998 
L 103.685435 268.310998 
L 103.685435 268.196268 
L 104.053884 268.196268 
L 104.053884 268.081538 
L 105.25707 268.081538 
L 105.25707 267.966807 
L 106.006367 267.966807 
L 106.06061 267.737347 
L 106.222336 267.737347 
L 106.222336 267.622616 
L 107.034831 267.622616 
L 107.034831 267.507886 
L 107.414787 267.507886 
L 107.414787 267.393156 
L 108.78753 267.393156 
L 108.78753 267.278425 
L 109.24468 267.278425 
L 109.24468 267.163695 
L 109.799764 267.163695 
L 109.799764 267.048964 
L 110.210119 267.048964 
L 110.210119 266.934234 
L 110.422279 266.934234 
L 110.422279 266.819504 
L 110.818406 266.819504 
L 110.900667 266.475313 
L 111.023335 266.475313 
L 111.043696 266.245852 
L 112.242812 266.245852 
L 112.242812 266.131122 
L 112.356423 266.131122 
L 112.356423 266.016391 
L 112.803609 266.016391 
L 112.803609 265.901661 
L 114.402085 265.901661 
L 114.402085 265.786931 
L 114.751048 265.786931 
L 114.751048 265.6722 
L 115.601913 265.6722 
L 115.601913 265.55747 
L 115.835374 265.55747 
L 115.835374 265.44274 
L 116.004615 265.44274 
L 116.004615 265.328009 
L 116.576939 265.328009 
L 116.576939 265.213279 
L 119.071527 265.213279 
L 119.071527 265.098549 
L 119.689693 265.098549 
L 119.776241 264.869088 
L 120.20265 264.869088 
L 120.20265 264.754358 
L 120.910223 264.754358 
L 120.910223 264.639627 
L 121.712041 264.639627 
L 121.712041 264.524897 
L 122.05089 264.524897 
L 122.05089 264.410167 
L 122.308777 264.410167 
L 122.308777 264.295436 
L 123.202762 264.295436 
L 123.202762 264.180706 
L 123.42428 264.180706 
L 123.464256 263.951245 
L 123.702203 263.951245 
L 123.702203 263.836515 
L 126.073922 263.836515 
L 126.073922 263.721785 
L 128.14611 263.721785 
L 128.14611 263.607054 
L 128.620421 263.607054 
L 128.620421 263.492324 
L 130.018593 263.492324 
L 130.018593 263.377593 
L 131.217209 263.377593 
L 131.217209 263.262863 
L 132.765529 263.262863 
L 132.765529 263.148133 
L 134.513701 263.148133 
L 134.598256 262.803942 
L 135.138086 262.803942 
L 135.138086 262.689211 
L 140.40498 262.689211 
L 140.40498 262.574481 
L 141.104941 262.574481 
L 141.104941 262.459751 
L 149.990124 262.459751 
L 149.990124 262.34502 
L 151.73021 262.34502 
L 151.73021 262.23029 
L 157.187185 262.23029 
L 157.187185 262.11556 
L 159.338324 262.11556 
L 159.338324 262.000829 
L 162.275462 262.000829 
L 162.275462 261.886099 
L 168.622172 261.886099 
L 168.622172 261.771369 
L 169.750066 261.771369 
L 169.750066 261.656638 
L 170.216472 261.656638 
L 170.216472 261.541908 
L 171.694123 261.541908 
L 171.694123 261.427178 
L 183.152981 261.427178 
L 183.152981 261.312447 
L 189.254937 261.312447 
L 189.254937 261.197717 
L 189.445774 261.197717 
L 189.445774 261.082987 
L 189.744693 261.082987 
L 189.744693 260.968256 
L 190.97189 260.968256 
L 190.97189 260.853526 
L 192.537134 260.853526 
L 192.537134 260.738796 
L 194.128204 260.738796 
L 194.128204 260.624065 
L 200.855547 260.624065 
L 200.855547 260.509335 
L 202.105154 260.509335 
L 202.105154 260.394605 
L 205.930159 260.394605 
L 205.930159 260.279874 
L 242.406452 260.279874 
L 242.427433 258.78838 
L 242.57316 258.78838 
L 242.57316 258.673649 
L 243.215526 258.673649 
L 243.215526 258.558919 
L 243.938286 258.558919 
L 243.938286 258.444189 
L 254.498536 258.444189 
L 254.500589 258.099998 
L 254.93677 258.099998 
L 254.97853 257.870537 
L 255.531082 257.870537 
L 255.531082 257.641076 
L 261.565294 257.641076 
L 261.569157 257.411616 
L 261.918036 257.411616 
L 262.026699 257.182155 
L 266.800704 257.182155 
L 266.800704 257.067425 
L 267.001022 257.067425 
L 267.001022 256.952694 
L 270.467762 256.952694 
L 270.470314 256.608503 
L 273.648904 256.608503 
L 273.649018 256.379043 
L 273.801402 256.379043 
L 273.801402 256.264312 
L 280.906973 256.264312 
L 280.953546 256.034851 
L 288.422847 256.034851 
L 288.422847 255.805391 
L 290.850085 255.805391 
L 290.850085 255.69066 
L 292.805146 255.69066 
L 292.805146 255.57593 
L 293.748002 255.57593 
L 293.748002 255.4612 
L 297.079634 255.4612 
L 297.079634 255.346469 
L 338.688 255.346469 
L 338.688 255.346469 
" style="fill:none;stroke:#000080;stroke-linecap:square;stroke-width:1.5;"/>
   </g>
   <g id="line2d_36">
    <defs>
     <path d="M 0 6 
C 1.591219 6 3.117479 5.367802 4.242641 4.242641 
C 5.367802 3.117479 6 1.591219 6 0 
C 6 -1.591219 5.367802 -3.117479 4.242641 -4.242641 
C 3.117479 -5.367802 1.591219 -6 0 -6 
C -1.591219 -6 -3.117479 -5.367802 -4.242641 -4.242641 
C -5.367802 -3.117479 -6 -1.591219 -6 0 
C -6 1.591219 -5.367802 3.117479 -4.242641 4.242641 
C -3.117479 5.367802 -1.591219 6 0 6 
z
" id="m79fc5b63e4" style="stroke:#000080;stroke-width:1.5;"/>
    </defs>
    <g>
     <use style="fill-opacity:0;stroke:#000080;stroke-width:1.5;" x="59.654051" xlink:href="#m79fc5b63e4" y="272.785482"/>
     <use style="fill-opacity:0;stroke:#000080;stroke-width:1.5;" x="116.576939" xlink:href="#m79fc5b63e4" y="265.328009"/>
     <use style="fill-opacity:0;stroke:#000080;stroke-width:1.5;" x="194.128204" xlink:href="#m79fc5b63e4" y="260.624065"/>
     <use style="fill-opacity:0;stroke:#000080;stroke-width:1.5;" x="297.079634" xlink:href="#m79fc5b63e4" y="255.4612"/>
     <use style="fill-opacity:0;stroke:#000080;stroke-width:1.5;" x="297.079634" xlink:href="#m79fc5b63e4" y="255.346469"/>
     <use style="fill-opacity:0;stroke:#000080;stroke-width:1.5;" x="338.688" xlink:href="#m79fc5b63e4" y="255.346469"/>
    </g>
   </g>
   <g id="line2d_37">
    <path style="fill:none;stroke:#000080;stroke-linecap:square;stroke-width:1.5;"/>
    <g/>
   </g>
   <g id="line2d_38">
    <path clip-path="url(#p61828e4c49)" d="M 242.397757 260.279874 
" style="fill:none;stroke:#000080;stroke-linecap:square;stroke-width:1.5;"/>
    <defs>
     <path d="M -12 12 
L 12 -12 
M -12 -12 
L 12 12 
" id="m13ea92b0ee" style="stroke:#000080;"/>
    </defs>
    <g clip-path="url(#p61828e4c49)">
     <use style="fill:#000080;stroke:#000080;" x="242.397757" xlink:href="#m13ea92b0ee" y="260.279874"/>
    </g>
   </g>
   <g id="line2d_39">
    <defs>
     <path d="M 0 1.5 
C 0.397805 1.5 0.77937 1.341951 1.06066 1.06066 
C 1.341951 0.77937 1.5 0.397805 1.5 0 
C 1.5 -0.397805 1.341951 -0.77937 1.06066 -1.06066 
C 0.77937 -1.341951 0.397805 -1.5 0 -1.5 
C -0.397805 -1.5 -0.77937 -1.341951 -1.06066 -1.06066 
C -1.341951 -0.77937 -1.5 -0.397805 -1.5 0 
C -1.5 0.397805 -1.341951 0.77937 -1.06066 1.06066 
C -0.77937 1.341951 -0.397805 1.5 0 1.5 
z
" id="m458f641bf8" style="stroke:#ff00ff;"/>
    </defs>
    <g>
     <use style="fill:#ff00ff;stroke:#ff00ff;" x="311.96322" xlink:href="#m458f641bf8" y="255.346469"/>
     <use style="fill:#ff00ff;stroke:#ff00ff;" x="311.96322" xlink:href="#m458f641bf8" y="255.346469"/>
    </g>
   </g>
   <g id="line2d_40">
    <path d="M -1 275.194819 
L 5.356583 275.194819 
L 5.356583 274.391706 
L 12.427603 274.391706 
L 12.427603 274.276976 
L 17.444571 274.276976 
L 17.444571 273.818055 
L 21.336035 273.818055 
L 21.336035 273.703324 
L 24.515591 273.703324 
L 24.515591 273.588594 
L 27.203868 273.588594 
L 27.203868 273.473864 
L 29.53256 273.473864 
L 29.53256 273.244403 
L 33.424023 273.244403 
L 33.424023 273.014942 
L 46.362877 273.014942 
L 46.362877 272.900212 
L 47.174153 272.900212 
L 47.174153 272.670751 
L 47.949359 272.670751 
L 47.949359 272.556021 
L 52.583031 272.556021 
L 52.583031 272.441291 
L 60.037348 272.441291 
L 60.037348 272.32656 
L 66.066907 272.32656 
L 66.066907 272.21183 
L 68.328395 272.21183 
L 68.328395 272.0971 
L 72.125336 272.0971 
L 72.125336 271.982369 
L 72.500389 271.982369 
L 72.500389 271.867639 
L 73.227131 271.867639 
L 73.227131 271.752909 
L 74.094936 271.752909 
L 74.094936 271.638178 
L 78.552767 271.638178 
L 78.552767 271.523448 
L 79.694655 271.523448 
L 79.694655 271.408718 
L 80.179111 271.408718 
L 80.179111 271.293987 
L 80.53382 271.293987 
L 80.53382 271.179257 
L 83.138295 271.179257 
L 83.138295 271.064526 
L 83.536924 271.064526 
L 83.536924 270.949796 
L 86.765675 270.949796 
L 86.765675 270.835066 
L 87.565783 270.835066 
L 87.565783 270.720335 
L 87.721492 270.720335 
L 87.721492 270.605605 
L 88.330786 270.605605 
L 88.330786 270.490875 
L 88.774181 270.490875 
L 88.774181 270.376144 
L 89.135256 270.376144 
L 89.135256 270.261414 
L 90.376519 270.261414 
L 90.376519 270.146684 
L 91.284345 270.146684 
L 91.284345 270.031953 
L 91.782644 270.031953 
L 91.782644 269.917223 
L 92.087002 269.917223 
L 92.087002 269.802493 
L 93.026719 269.802493 
L 93.026719 269.687762 
L 93.918378 269.687762 
L 93.918378 269.458302 
L 95.023499 269.458302 
L 95.023499 269.343571 
L 95.624913 269.343571 
L 95.624913 269.228841 
L 98.935347 269.228841 
L 98.935347 269.114111 
L 100.002181 269.114111 
L 100.002181 268.99938 
L 100.192776 268.99938 
L 100.192776 268.88465 
L 102.094519 268.88465 
L 102.094519 268.76992 
L 102.297303 268.76992 
L 102.297303 268.655189 
L 104.144793 268.655189 
L 104.23523 268.310998 
L 105.171792 268.310998 
L 105.171792 268.196268 
L 105.538355 268.196268 
L 105.538355 268.081538 
L 105.649611 268.081538 
L 105.649611 267.966807 
L 106.355971 267.966807 
L 106.382575 267.737347 
L 107.162405 267.737347 
L 107.162405 267.622616 
L 107.339455 267.622616 
L 107.339455 267.507886 
L 108.150731 267.507886 
L 108.150731 267.393156 
L 109.865203 267.393156 
L 109.865203 267.278425 
L 110.548346 267.278425 
L 110.548346 267.163695 
L 111.205735 267.163695 
L 111.205735 266.934234 
L 111.525364 266.934234 
L 111.525364 266.704773 
L 112.356423 266.704773 
L 112.356423 266.590043 
L 113.329092 266.590043 
L 113.364755 266.360582 
L 113.612376 266.360582 
L 113.612376 266.245852 
L 114.602346 266.245852 
L 114.701622 266.016391 
L 115.476111 266.016391 
L 115.476111 265.901661 
L 116.724481 265.901661 
L 116.739166 265.6722 
L 116.957981 265.6722 
L 116.957981 265.55747 
L 117.116718 265.55747 
L 117.116718 265.44274 
L 117.528409 265.44274 
L 117.528409 265.328009 
L 119.515299 265.328009 
L 119.515299 265.213279 
L 120.1061 265.213279 
L 120.1061 265.098549 
L 120.677541 265.098549 
L 120.677541 264.983818 
L 120.863934 264.983818 
L 120.863934 264.869088 
L 121.230849 264.869088 
L 121.230849 264.754358 
L 121.411452 264.754358 
L 121.411452 264.639627 
L 123.121507 264.639627 
L 123.121507 264.524897 
L 123.444279 264.524897 
L 123.444279 264.410167 
L 124.529137 264.410167 
L 124.529137 264.295436 
L 125.831586 264.295436 
L 125.831586 264.180706 
L 126.781359 264.180706 
L 126.781359 264.065976 
L 126.912914 264.065976 
L 126.929289 263.836515 
L 127.907896 263.836515 
L 127.907896 263.721785 
L 129.26923 263.721785 
L 129.26923 263.607054 
L 129.468457 263.607054 
L 129.468457 263.492324 
L 131.088742 263.492324 
L 131.088742 263.377593 
L 133.761355 263.377593 
L 133.761355 263.262863 
L 134.624595 263.262863 
L 134.624595 263.148133 
L 135.295816 263.148133 
L 135.295816 263.033402 
L 135.52727 263.033402 
L 135.52727 262.918672 
L 136.155604 262.918672 
L 136.155604 262.803942 
L 141.528123 262.803942 
L 141.528123 262.689211 
L 152.768523 262.689211 
L 152.768523 262.574481 
L 155.040865 262.574481 
L 155.040865 262.459751 
L 158.305381 262.459751 
L 158.305381 262.34502 
L 158.817671 262.34502 
L 158.817671 262.23029 
L 163.400698 262.23029 
L 163.400698 262.11556 
L 170.875396 262.11556 
L 170.875396 262.000829 
L 171.341892 262.000829 
L 171.341892 261.886099 
L 172.796956 261.886099 
L 172.796956 261.771369 
L 174.758428 261.771369 
L 174.758428 261.656638 
L 175.931336 261.656638 
L 175.931336 261.541908 
L 184.278242 261.541908 
L 184.278242 261.427178 
L 189.916577 261.427178 
L 189.916577 261.312447 
L 190.380385 261.312447 
L 190.380385 261.197717 
L 190.571066 261.197717 
L 190.571066 261.082987 
L 192.097331 261.082987 
L 192.097331 260.968256 
L 192.666337 260.968256 
L 192.666337 260.853526 
L 193.662247 260.853526 
L 193.662247 260.738796 
L 242.406681 260.738796 
L 242.451267 259.591492 
L 242.584735 259.591492 
L 242.584735 259.476762 
L 243.283328 259.476762 
L 243.376761 259.01784 
L 244.036214 259.01784 
L 244.036214 258.78838 
L 244.152036 258.78838 
L 244.152036 258.673649 
L 254.498967 258.673649 
L 254.579458 258.329458 
L 255.384908 258.329458 
L 255.384908 258.099998 
L 255.598539 258.099998 
L 255.598539 257.985267 
L 261.566013 257.985267 
L 261.566013 257.870537 
L 261.8487 257.870537 
L 261.908553 257.641076 
L 262.057529 257.641076 
L 262.057529 257.526346 
L 266.580482 257.526346 
L 266.580656 257.296885 
L 267.138978 257.296885 
L 267.138978 257.182155 
L 270.468492 257.182155 
L 270.470585 256.837964 
L 273.651268 256.837964 
L 273.651268 256.723234 
L 273.9287 256.723234 
L 273.9287 256.608503 
L 276.334622 256.608503 
L 276.359818 256.379043 
L 278.890856 256.379043 
L 278.890856 256.264312 
L 280.7366 256.264312 
L 280.7366 256.149582 
L 282.555852 256.149582 
L 282.555852 256.034851 
L 282.736722 256.034851 
L 282.736722 255.920121 
L 290.751357 255.920121 
L 290.751357 255.805391 
L 293.748033 255.805391 
L 293.748033 255.57593 
L 302.284848 255.57593 
L 302.284848 255.4612 
L 311.96322 255.4612 
L 311.96322 255.346469 
L 338.688 255.346469 
L 338.688 255.346469 
" style="fill:none;stroke:#ff00ff;stroke-linecap:square;stroke-width:1.5;"/>
   </g>
   <g id="line2d_41">
    <defs>
     <path d="M -0 8.485281 
L 5.091169 0 
L 0 -8.485281 
L -5.091169 -0 
z
" id="mc4361fa5e7" style="stroke:#ff00ff;stroke-linejoin:miter;stroke-width:1.5;"/>
    </defs>
    <g>
     <use style="fill-opacity:0;stroke:#ff00ff;stroke-linejoin:miter;stroke-width:1.5;" x="73.227131" xlink:href="#mc4361fa5e7" y="271.867639"/>
     <use style="fill-opacity:0;stroke:#ff00ff;stroke-linejoin:miter;stroke-width:1.5;" x="155.040865" xlink:href="#mc4361fa5e7" y="262.574481"/>
     <use style="fill-opacity:0;stroke:#ff00ff;stroke-linejoin:miter;stroke-width:1.5;" x="255.598539" xlink:href="#mc4361fa5e7" y="257.985267"/>
     <use style="fill-opacity:0;stroke:#ff00ff;stroke-linejoin:miter;stroke-width:1.5;" x="311.96322" xlink:href="#mc4361fa5e7" y="255.4612"/>
     <use style="fill-opacity:0;stroke:#ff00ff;stroke-linejoin:miter;stroke-width:1.5;" x="311.96322" xlink:href="#mc4361fa5e7" y="255.346469"/>
     <use style="fill-opacity:0;stroke:#ff00ff;stroke-linejoin:miter;stroke-width:1.5;" x="338.688" xlink:href="#mc4361fa5e7" y="255.346469"/>
    </g>
   </g>
   <g id="line2d_42">
    <path style="fill:none;stroke:#ff00ff;stroke-linecap:square;stroke-width:1.5;"/>
    <g/>
   </g>
   <g id="line2d_43">
    <path clip-path="url(#p61828e4c49)" d="M 242.397702 260.738796 
" style="fill:none;stroke:#ff00ff;stroke-linecap:square;stroke-width:1.5;"/>
    <defs>
     <path d="M -12 12 
L 12 -12 
M -12 -12 
L 12 12 
" id="mdda2ab3485" style="stroke:#ff00ff;"/>
    </defs>
    <g clip-path="url(#p61828e4c49)">
     <use style="fill:#ff00ff;stroke:#ff00ff;" x="242.397702" xlink:href="#mdda2ab3485" y="260.738796"/>
    </g>
   </g>
   <g id="line2d_44">
    <path d="M 338.688 255.346469 
L 369.60768 293.092752 
" style="fill:none;stroke:#ff00ff;stroke-linecap:square;stroke-width:1.5;"/>
    <g>
     <use style="fill-opacity:0;stroke:#ff00ff;stroke-linejoin:miter;stroke-width:1.5;" x="338.688" xlink:href="#mc4361fa5e7" y="255.346469"/>
     <use style="fill-opacity:0;stroke:#ff00ff;stroke-linejoin:miter;stroke-width:1.5;" x="369.60768" xlink:href="#mc4361fa5e7" y="293.092752"/>
    </g>
   </g>
   <g id="line2d_45">
    <path d="M 338.688 255.346469 
L 369.60768 152.662812 
" style="fill:none;stroke:#000080;stroke-linecap:square;stroke-width:1.5;"/>
    <g>
     <use style="fill-opacity:0;stroke:#000080;stroke-width:1.5;" x="338.688" xlink:href="#m79fc5b63e4" y="255.346469"/>
     <use style="fill-opacity:0;stroke:#000080;stroke-width:1.5;" x="369.60768" xlink:href="#m79fc5b63e4" y="152.662812"/>
    </g>
   </g>
   <g id="line2d_46">
    <path d="M 338.688 298.944 
L 338.688 6.381624 
" style="fill:none;stroke:#000000;stroke-linecap:square;stroke-width:1.5;"/>
   </g>
   <g id="patch_3">
    <path d="M 57.6 298.944 
L 57.6 3.456 
" style="fill:none;stroke:#000000;stroke-linecap:square;stroke-linejoin:miter;stroke-width:0.8;"/>
   </g>
   <g id="patch_4">
    <path d="M 338.688 298.944 
L 338.688 3.456 
" style="fill:none;stroke:#000000;stroke-linecap:square;stroke-linejoin:miter;stroke-width:0.8;"/>
   </g>
   <g id="patch_5">
    <path d="M 57.6 298.944 
L 338.688 298.944 
" style="fill:none;stroke:#000000;stroke-linecap:square;stroke-linejoin:miter;stroke-width:0.8;"/>
   </g>
   <g id="patch_6">
    <path d="M 57.6 3.456 
L 338.688 3.456 
" style="fill:none;stroke:#000000;stroke-linecap:square;stroke-linejoin:miter;stroke-width:0.8;"/>
   </g>
   <g id="text_13">
    <!-- maes mid -->
    <g transform="translate(375.22944 297.78369)scale(0.17 -0.17)">
     <use xlink:href="#DejaVuSans-109"/>
     <use x="97.412109" xlink:href="#DejaVuSans-97"/>
     <use x="158.691406" xlink:href="#DejaVuSans-101"/>
     <use x="220.214844" xlink:href="#DejaVuSans-115"/>
     <use x="272.314453" xlink:href="#DejaVuSans-32"/>
     <use x="304.101562" xlink:href="#DejaVuSans-109"/>
     <use x="401.513672" xlink:href="#DejaVuSans-105"/>
     <use x="429.296875" xlink:href="#DejaVuSans-100"/>
    </g>
   </g>
   <g id="text_14">
    <!-- maes -->
    <g transform="translate(375.22944 157.353749)scale(0.17 -0.17)">
     <use xlink:href="#DejaVuSans-109"/>
     <use x="97.412109" xlink:href="#DejaVuSans-97"/>
     <use x="158.691406" xlink:href="#DejaVuSans-101"/>
     <use x="220.214844" xlink:href="#DejaVuSans-115"/>
    </g>
   </g>
   <g id="text_15">
    <!-- best 2009 -->
    <g transform="translate(375.22944 16.923809)scale(0.17 -0.17)">
     <defs>
      <path d="M 48.6875 27.296875 
Q 48.6875 37.203125 44.609375 42.84375 
Q 40.53125 48.484375 33.40625 48.484375 
Q 26.265625 48.484375 22.1875 42.84375 
Q 18.109375 37.203125 18.109375 27.296875 
Q 18.109375 17.390625 22.1875 11.75 
Q 26.265625 6.109375 33.40625 6.109375 
Q 40.53125 6.109375 44.609375 11.75 
Q 48.6875 17.390625 48.6875 27.296875 
z
M 18.109375 46.390625 
Q 20.953125 51.265625 25.265625 53.625 
Q 29.59375 56 35.59375 56 
Q 45.5625 56 51.78125 48.09375 
Q 58.015625 40.1875 58.015625 27.296875 
Q 58.015625 14.40625 51.78125 6.484375 
Q 45.5625 -1.421875 35.59375 -1.421875 
Q 29.59375 -1.421875 25.265625 0.953125 
Q 20.953125 3.328125 18.109375 8.203125 
L 18.109375 0 
L 9.078125 0 
L 9.078125 75.984375 
L 18.109375 75.984375 
z
" id="DejaVuSans-98"/>
      <path d="M 10.984375 1.515625 
L 10.984375 10.5 
Q 14.703125 8.734375 18.5 7.8125 
Q 22.3125 6.890625 25.984375 6.890625 
Q 35.75 6.890625 40.890625 13.453125 
Q 46.046875 20.015625 46.78125 33.40625 
Q 43.953125 29.203125 39.59375 26.953125 
Q 35.25 24.703125 29.984375 24.703125 
Q 19.046875 24.703125 12.671875 31.3125 
Q 6.296875 37.9375 6.296875 49.421875 
Q 6.296875 60.640625 12.9375 67.421875 
Q 19.578125 74.21875 30.609375 74.21875 
Q 43.265625 74.21875 49.921875 64.515625 
Q 56.59375 54.828125 56.59375 36.375 
Q 56.59375 19.140625 48.40625 8.859375 
Q 40.234375 -1.421875 26.421875 -1.421875 
Q 22.703125 -1.421875 18.890625 -0.6875 
Q 15.09375 0.046875 10.984375 1.515625 
z
M 30.609375 32.421875 
Q 37.25 32.421875 41.125 36.953125 
Q 45.015625 41.5 45.015625 49.421875 
Q 45.015625 57.28125 41.125 61.84375 
Q 37.25 66.40625 30.609375 66.40625 
Q 23.96875 66.40625 20.09375 61.84375 
Q 16.21875 57.28125 16.21875 49.421875 
Q 16.21875 41.5 20.09375 36.953125 
Q 23.96875 32.421875 30.609375 32.421875 
z
" id="DejaVuSans-57"/>
     </defs>
     <use xlink:href="#DejaVuSans-98"/>
     <use x="63.476562" xlink:href="#DejaVuSans-101"/>
     <use x="125" xlink:href="#DejaVuSans-115"/>
     <use x="177.099609" xlink:href="#DejaVuSans-116"/>
     <use x="216.308594" xlink:href="#DejaVuSans-32"/>
     <use x="248.095703" xlink:href="#DejaVuSans-50"/>
     <use x="311.71875" xlink:href="#DejaVuSans-48"/>
     <use x="375.341797" xlink:href="#DejaVuSans-48"/>
     <use x="438.964844" xlink:href="#DejaVuSans-57"/>
    </g>
   </g>
   <g id="text_16">
    <!-- bbob f15-f19, 40-D -->
    <g transform="translate(60.41088 14.161286)scale(0.102 -0.102)">
     <defs>
      <path d="M 10.796875 72.90625 
L 49.515625 72.90625 
L 49.515625 64.59375 
L 19.828125 64.59375 
L 19.828125 46.734375 
Q 21.96875 47.46875 24.109375 47.828125 
Q 26.265625 48.1875 28.421875 48.1875 
Q 40.625 48.1875 47.75 41.5 
Q 54.890625 34.8125 54.890625 23.390625 
Q 54.890625 11.625 47.5625 5.09375 
Q 40.234375 -1.421875 26.90625 -1.421875 
Q 22.3125 -1.421875 17.546875 -0.640625 
Q 12.796875 0.140625 7.71875 1.703125 
L 7.71875 11.625 
Q 12.109375 9.234375 16.796875 8.0625 
Q 21.484375 6.890625 26.703125 6.890625 
Q 35.15625 6.890625 40.078125 11.328125 
Q 45.015625 15.765625 45.015625 23.390625 
Q 45.015625 31 40.078125 35.4375 
Q 35.15625 39.890625 26.703125 39.890625 
Q 22.75 39.890625 18.8125 39.015625 
Q 14.890625 38.140625 10.796875 36.28125 
z
" id="DejaVuSans-53"/>
      <path d="M 19.671875 64.796875 
L 19.671875 8.109375 
L 31.59375 8.109375 
Q 46.6875 8.109375 53.6875 14.9375 
Q 60.6875 21.78125 60.6875 36.53125 
Q 60.6875 51.171875 53.6875 57.984375 
Q 46.6875 64.796875 31.59375 64.796875 
z
M 9.8125 72.90625 
L 30.078125 72.90625 
Q 51.265625 72.90625 61.171875 64.09375 
Q 71.09375 55.28125 71.09375 36.53125 
Q 71.09375 17.671875 61.125 8.828125 
Q 51.171875 0 30.078125 0 
L 9.8125 0 
z
" id="DejaVuSans-68"/>
     </defs>
     <use xlink:href="#DejaVuSans-98"/>
     <use x="63.476562" xlink:href="#DejaVuSans-98"/>
     <use x="126.953125" xlink:href="#DejaVuSans-111"/>
     <use x="188.134766" xlink:href="#DejaVuSans-98"/>
     <use x="251.611328" xlink:href="#DejaVuSans-32"/>
     <use x="283.398438" xlink:href="#DejaVuSans-102"/>
     <use x="318.603516" xlink:href="#DejaVuSans-49"/>
     <use x="382.226562" xlink:href="#DejaVuSans-53"/>
     <use x="445.849609" xlink:href="#DejaVuSans-45"/>
     <use x="481.933594" xlink:href="#DejaVuSans-102"/>
     <use x="517.138672" xlink:href="#DejaVuSans-49"/>
     <use x="580.761719" xlink:href="#DejaVuSans-57"/>
     <use x="644.384766" xlink:href="#DejaVuSans-44"/>
     <use x="676.171875" xlink:href="#DejaVuSans-32"/>
     <use x="707.958984" xlink:href="#DejaVuSans-52"/>
     <use x="771.582031" xlink:href="#DejaVuSans-48"/>
     <use x="835.205078" xlink:href="#DejaVuSans-45"/>
     <use x="871.289062" xlink:href="#DejaVuSans-68"/>
    </g>
    <!-- 51 targets: 100..1e-08 -->
    <g transform="translate(60.41088 25.583055)scale(0.102 -0.102)">
     <defs>
      <path d="M 11.71875 12.40625 
L 22.015625 12.40625 
L 22.015625 0 
L 11.71875 0 
z
M 11.71875 51.703125 
L 22.015625 51.703125 
L 22.015625 39.3125 
L 11.71875 39.3125 
z
" id="DejaVuSans-58"/>
     </defs>
     <use xlink:href="#DejaVuSans-53"/>
     <use x="63.623047" xlink:href="#DejaVuSans-49"/>
     <use x="127.246094" xlink:href="#DejaVuSans-32"/>
     <use x="159.033203" xlink:href="#DejaVuSans-116"/>
     <use x="198.242188" xlink:href="#DejaVuSans-97"/>
     <use x="259.521484" xlink:href="#DejaVuSans-114"/>
     <use x="298.884766" xlink:href="#DejaVuSans-103"/>
     <use x="362.361328" xlink:href="#DejaVuSans-101"/>
     <use x="423.884766" xlink:href="#DejaVuSans-116"/>
     <use x="463.09375" xlink:href="#DejaVuSans-115"/>
     <use x="515.193359" xlink:href="#DejaVuSans-58"/>
     <use x="548.884766" xlink:href="#DejaVuSans-32"/>
     <use x="580.671875" xlink:href="#DejaVuSans-49"/>
     <use x="644.294922" xlink:href="#DejaVuSans-48"/>
     <use x="707.917969" xlink:href="#DejaVuSans-48"/>
     <use x="771.541016" xlink:href="#DejaVuSans-46"/>
     <use x="803.328125" xlink:href="#DejaVuSans-46"/>
     <use x="835.115234" xlink:href="#DejaVuSans-49"/>
     <use x="898.738281" xlink:href="#DejaVuSans-101"/>
     <use x="960.261719" xlink:href="#DejaVuSans-45"/>
     <use x="996.345703" xlink:href="#DejaVuSans-48"/>
     <use x="1059.96875" xlink:href="#DejaVuSans-56"/>
    </g>
    <!-- 15 instances -->
    <g transform="translate(60.41088 37.004824)scale(0.102 -0.102)">
     <use xlink:href="#DejaVuSans-49"/>
     <use x="63.623047" xlink:href="#DejaVuSans-53"/>
     <use x="127.246094" xlink:href="#DejaVuSans-32"/>
     <use x="159.033203" xlink:href="#DejaVuSans-105"/>
     <use x="186.816406" xlink:href="#DejaVuSans-110"/>
     <use x="250.195312" xlink:href="#DejaVuSans-115"/>
     <use x="302.294922" xlink:href="#DejaVuSans-116"/>
     <use x="341.503906" xlink:href="#DejaVuSans-97"/>
     <use x="402.783203" xlink:href="#DejaVuSans-110"/>
     <use x="466.162109" xlink:href="#DejaVuSans-99"/>
     <use x="521.142578" xlink:href="#DejaVuSans-101"/>
     <use x="582.666016" xlink:href="#DejaVuSans-115"/>
    </g>
   </g>
   <g id="text_17">
    <!-- v2.4 -->
    <g style="fill:#808080;" transform="translate(187.233062 293.909432)scale(0.1 -0.1)">
     <use xlink:href="#DejaVuSans-118"/>
     <use x="59.179688" xlink:href="#DejaVuSans-50"/>
     <use x="122.802734" xlink:href="#DejaVuSans-46"/>
     <use x="154.589844" xlink:href="#DejaVuSans-52"/>
    </g>
   </g>
  </g>
 </g>
 <defs>
  <clipPath id="p61828e4c49">
   <rect height="295.488" width="281.088" x="57.6" y="3.456"/>
  </clipPath>
 </defs>
</svg>
