<?xml version="1.0" encoding="utf-8" standalone="no"?>
<!DOCTYPE svg PUBLIC "-//W3C//DTD SVG 1.1//EN"
  "http://www.w3.org/Graphics/SVG/1.1/DTD/svg11.dtd">
<!-- Created with matplotlib (https://matplotlib.org/) -->
<svg height="345.6pt" version="1.1" viewBox="0 0 460.8 345.6" width="460.8pt" xmlns="http://www.w3.org/2000/svg" xmlns:xlink="http://www.w3.org/1999/xlink">
 <metadata>
  <rdf:RDF xmlns:cc="http://creativecommons.org/ns#" xmlns:dc="http://purl.org/dc/elements/1.1/" xmlns:rdf="http://www.w3.org/1999/02/22-rdf-syntax-ns#">
   <cc:Work>
    <dc:type rdf:resource="http://purl.org/dc/dcmitype/StillImage"/>
    <dc:date>2021-06-17T01:40:16.874702</dc:date>
    <dc:format>image/svg+xml</dc:format>
    <dc:creator>
     <cc:Agent>
      <dc:title>Matplotlib v3.3.4, https://matplotlib.org/</dc:title>
     </cc:Agent>
    </dc:creator>
   </cc:Work>
  </rdf:RDF>
 </metadata>
 <defs>
  <style type="text/css">*{stroke-linecap:butt;stroke-linejoin:round;}</style>
 </defs>
 <g id="figure_1">
  <g id="patch_1">
   <path d="M 0 345.6 
L 460.8 345.6 
L 460.8 0 
L 0 0 
z
" style="fill:#ffffff;"/>
  </g>
  <g id="axes_1">
   <g id="patch_2">
    <path d="M 57.6 298.944 
L 338.688 298.944 
L 338.688 3.456 
L 57.6 3.456 
z
" style="fill:#ffffff;"/>
   </g>
   <g id="line2d_1">
    <path d="M 70.329998 298.944 
L 70.329998 240.431525 
L 70.745238 240.431525 
L 70.745238 239.284221 
L 70.949209 239.284221 
L 70.949209 238.136918 
L 71.35013 238.136918 
L 71.35013 236.989614 
L 71.547186 236.989614 
L 71.547186 235.842311 
L 72.125336 235.842311 
L 72.125336 234.695008 
L 73.227131 234.695008 
L 73.227131 233.547704 
L 73.579452 233.547704 
L 73.579452 232.400401 
L 74.263433 232.400401 
L 74.263433 231.253097 
L 75.241593 231.253097 
L 75.241593 230.105794 
L 75.399415 230.105794 
L 75.399415 228.95849 
L 76.16779 228.95849 
L 76.16779 227.811187 
L 76.317484 227.811187 
L 76.317484 225.51658 
L 76.465904 225.51658 
L 76.465904 224.369277 
L 76.613072 224.369277 
L 76.613072 223.221973 
L 76.759008 223.221973 
L 76.759008 218.632759 
L 76.903734 218.632759 
L 76.903734 181.91905 
L 108.294265 181.91905 
L 108.294265 180.771746 
L 109.690152 180.771746 
L 109.799764 164.709498 
L 109.821604 164.709498 
L 109.930396 127.995788 
L 110.081574 127.995788 
L 110.081574 126.848485 
L 110.464402 126.848485 
L 110.464402 125.701181 
L 112.242812 125.701181 
L 112.242812 124.553878 
L 114.368483 124.553878 
L 114.368483 123.406574 
L 116.739166 123.406574 
L 116.739166 122.259271 
L 143.044063 122.259271 
L 143.044063 121.111967 
L 145.921099 121.111967 
L 145.921099 119.964664 
L 148.015498 119.964664 
L 148.015498 118.817361 
L 150.546047 118.817361 
L 150.546047 117.670057 
L 152.212989 117.670057 
L 152.212989 116.522754 
L 155.117428 116.522754 
L 155.117428 115.37545 
L 156.222706 115.37545 
L 156.222706 114.228147 
L 159.326836 114.228147 
L 159.326836 113.080843 
L 161.137157 113.080843 
L 161.137157 111.93354 
L 161.562388 111.93354 
L 161.673235 87.840168 
L 161.689969 87.840168 
L 161.793361 22.443872 
L 161.805549 22.443872 
L 161.812194 16.707355 
L 196.594642 16.707355 
L 196.595094 14.412748 
L 212.15102 14.412748 
L 212.151082 10.970838 
L 225.744553 10.970838 
L 225.746224 6.381624 
L 338.688 6.381624 
L 338.688 6.381624 
" style="fill:none;stroke:#f5deb3;stroke-linecap:square;stroke-width:4;"/>
   </g>
   <g id="line2d_2">
    <defs>
     <path d="M -0 7.778175 
L 7.778175 0 
L 0 -7.778175 
L -7.778175 -0 
z
" id="mcf21bff92b" style="stroke:#f5deb3;stroke-linejoin:miter;stroke-width:1.5;"/>
    </defs>
    <g>
     <use style="fill:#f5deb3;stroke:#f5deb3;stroke-linejoin:miter;stroke-width:1.5;" x="114.368483" xlink:href="#mcf21bff92b" y="124.553878"/>
     <use style="fill:#f5deb3;stroke:#f5deb3;stroke-linejoin:miter;stroke-width:1.5;" x="161.793361" xlink:href="#mcf21bff92b" y="24.738479"/>
     <use style="fill:#f5deb3;stroke:#f5deb3;stroke-linejoin:miter;stroke-width:1.5;" x="225.746224" xlink:href="#mcf21bff92b" y="6.381624"/>
     <use style="fill:#f5deb3;stroke:#f5deb3;stroke-linejoin:miter;stroke-width:1.5;" x="225.746224" xlink:href="#mcf21bff92b" y="6.381624"/>
     <use style="fill:#f5deb3;stroke:#f5deb3;stroke-linejoin:miter;stroke-width:1.5;" x="338.688" xlink:href="#mcf21bff92b" y="6.381624"/>
    </g>
   </g>
   <g id="line2d_3">
    <path style="fill:none;stroke:#f5deb3;stroke-linecap:square;stroke-width:4;"/>
    <g/>
   </g>
   <g id="line2d_4">
    <path d="M 338.688 6.381624 
L 369.60768 12.232871 
" style="fill:none;stroke:#f5deb3;stroke-linecap:square;stroke-width:4;"/>
    <g>
     <use style="fill:#f5deb3;stroke:#f5deb3;stroke-linejoin:miter;stroke-width:1.5;" x="338.688" xlink:href="#mcf21bff92b" y="6.381624"/>
     <use style="fill:#f5deb3;stroke:#f5deb3;stroke-linejoin:miter;stroke-width:1.5;" x="369.60768" xlink:href="#mcf21bff92b" y="12.232871"/>
    </g>
   </g>
   <g id="matplotlib.axis_1">
    <g id="xtick_1">
     <g id="line2d_5">
      <path clip-path="url(#p50b8c38df8)" d="M 57.6 298.944 
L 57.6 3.456 
" style="fill:none;stroke:#b0b0b0;stroke-linecap:square;stroke-width:0.8;"/>
     </g>
     <g id="line2d_6">
      <defs>
       <path d="M 0 0 
L 0 3.5 
" id="mcda5c81e2c" style="stroke:#000000;stroke-width:0.8;"/>
      </defs>
      <g>
       <use style="stroke:#000000;stroke-width:0.8;" x="57.6" xlink:href="#mcda5c81e2c" y="298.944"/>
      </g>
     </g>
     <g id="text_1">
      <!-- 0 -->
      <g transform="translate(51.2375 321.140875)scale(0.2 -0.2)">
       <defs>
        <path d="M 31.78125 66.40625 
Q 24.171875 66.40625 20.328125 58.90625 
Q 16.5 51.421875 16.5 36.375 
Q 16.5 21.390625 20.328125 13.890625 
Q 24.171875 6.390625 31.78125 6.390625 
Q 39.453125 6.390625 43.28125 13.890625 
Q 47.125 21.390625 47.125 36.375 
Q 47.125 51.421875 43.28125 58.90625 
Q 39.453125 66.40625 31.78125 66.40625 
z
M 31.78125 74.21875 
Q 44.046875 74.21875 50.515625 64.515625 
Q 56.984375 54.828125 56.984375 36.375 
Q 56.984375 17.96875 50.515625 8.265625 
Q 44.046875 -1.421875 31.78125 -1.421875 
Q 19.53125 -1.421875 13.0625 8.265625 
Q 6.59375 17.96875 6.59375 36.375 
Q 6.59375 54.828125 13.0625 64.515625 
Q 19.53125 74.21875 31.78125 74.21875 
z
" id="DejaVuSans-48"/>
       </defs>
       <use xlink:href="#DejaVuSans-48"/>
      </g>
     </g>
    </g>
    <g id="xtick_2">
     <g id="line2d_7">
      <path clip-path="url(#p50b8c38df8)" d="M 137.910857 298.944 
L 137.910857 3.456 
" style="fill:none;stroke:#b0b0b0;stroke-linecap:square;stroke-width:0.8;"/>
     </g>
     <g id="line2d_8">
      <g>
       <use style="stroke:#000000;stroke-width:0.8;" x="137.910857" xlink:href="#mcda5c81e2c" y="298.944"/>
      </g>
     </g>
     <g id="text_2">
      <!-- 2 -->
      <g transform="translate(131.548357 321.140875)scale(0.2 -0.2)">
       <defs>
        <path d="M 19.1875 8.296875 
L 53.609375 8.296875 
L 53.609375 0 
L 7.328125 0 
L 7.328125 8.296875 
Q 12.9375 14.109375 22.625 23.890625 
Q 32.328125 33.6875 34.8125 36.53125 
Q 39.546875 41.84375 41.421875 45.53125 
Q 43.3125 49.21875 43.3125 52.78125 
Q 43.3125 58.59375 39.234375 62.25 
Q 35.15625 65.921875 28.609375 65.921875 
Q 23.96875 65.921875 18.8125 64.3125 
Q 13.671875 62.703125 7.8125 59.421875 
L 7.8125 69.390625 
Q 13.765625 71.78125 18.9375 73 
Q 24.125 74.21875 28.421875 74.21875 
Q 39.75 74.21875 46.484375 68.546875 
Q 53.21875 62.890625 53.21875 53.421875 
Q 53.21875 48.921875 51.53125 44.890625 
Q 49.859375 40.875 45.40625 35.40625 
Q 44.1875 33.984375 37.640625 27.21875 
Q 31.109375 20.453125 19.1875 8.296875 
z
" id="DejaVuSans-50"/>
       </defs>
       <use xlink:href="#DejaVuSans-50"/>
      </g>
     </g>
    </g>
    <g id="xtick_3">
     <g id="line2d_9">
      <path clip-path="url(#p50b8c38df8)" d="M 218.221714 298.944 
L 218.221714 3.456 
" style="fill:none;stroke:#b0b0b0;stroke-linecap:square;stroke-width:0.8;"/>
     </g>
     <g id="line2d_10">
      <g>
       <use style="stroke:#000000;stroke-width:0.8;" x="218.221714" xlink:href="#mcda5c81e2c" y="298.944"/>
      </g>
     </g>
     <g id="text_3">
      <!-- 4 -->
      <g transform="translate(211.859214 321.140875)scale(0.2 -0.2)">
       <defs>
        <path d="M 37.796875 64.3125 
L 12.890625 25.390625 
L 37.796875 25.390625 
z
M 35.203125 72.90625 
L 47.609375 72.90625 
L 47.609375 25.390625 
L 58.015625 25.390625 
L 58.015625 17.1875 
L 47.609375 17.1875 
L 47.609375 0 
L 37.796875 0 
L 37.796875 17.1875 
L 4.890625 17.1875 
L 4.890625 26.703125 
z
" id="DejaVuSans-52"/>
       </defs>
       <use xlink:href="#DejaVuSans-52"/>
      </g>
     </g>
    </g>
    <g id="xtick_4">
     <g id="line2d_11">
      <path clip-path="url(#p50b8c38df8)" d="M 298.532571 298.944 
L 298.532571 3.456 
" style="fill:none;stroke:#b0b0b0;stroke-linecap:square;stroke-width:0.8;"/>
     </g>
     <g id="line2d_12">
      <g>
       <use style="stroke:#000000;stroke-width:0.8;" x="298.532571" xlink:href="#mcda5c81e2c" y="298.944"/>
      </g>
     </g>
     <g id="text_4">
      <!-- 6 -->
      <g transform="translate(292.170071 321.140875)scale(0.2 -0.2)">
       <defs>
        <path d="M 33.015625 40.375 
Q 26.375 40.375 22.484375 35.828125 
Q 18.609375 31.296875 18.609375 23.390625 
Q 18.609375 15.53125 22.484375 10.953125 
Q 26.375 6.390625 33.015625 6.390625 
Q 39.65625 6.390625 43.53125 10.953125 
Q 47.40625 15.53125 47.40625 23.390625 
Q 47.40625 31.296875 43.53125 35.828125 
Q 39.65625 40.375 33.015625 40.375 
z
M 52.59375 71.296875 
L 52.59375 62.3125 
Q 48.875 64.0625 45.09375 64.984375 
Q 41.3125 65.921875 37.59375 65.921875 
Q 27.828125 65.921875 22.671875 59.328125 
Q 17.53125 52.734375 16.796875 39.40625 
Q 19.671875 43.65625 24.015625 45.921875 
Q 28.375 48.1875 33.59375 48.1875 
Q 44.578125 48.1875 50.953125 41.515625 
Q 57.328125 34.859375 57.328125 23.390625 
Q 57.328125 12.15625 50.6875 5.359375 
Q 44.046875 -1.421875 33.015625 -1.421875 
Q 20.359375 -1.421875 13.671875 8.265625 
Q 6.984375 17.96875 6.984375 36.375 
Q 6.984375 53.65625 15.1875 63.9375 
Q 23.390625 74.21875 37.203125 74.21875 
Q 40.921875 74.21875 44.703125 73.484375 
Q 48.484375 72.75 52.59375 71.296875 
z
" id="DejaVuSans-54"/>
       </defs>
       <use xlink:href="#DejaVuSans-54"/>
      </g>
     </g>
    </g>
    <g id="xtick_5">
     <g id="line2d_13">
      <path clip-path="url(#p50b8c38df8)" d="M 97.755429 298.944 
L 97.755429 3.456 
" style="fill:none;stroke:#b0b0b0;stroke-linecap:square;stroke-width:0.8;"/>
     </g>
     <g id="line2d_14">
      <defs>
       <path d="M 0 0 
L 0 2 
" id="m1993127c49" style="stroke:#000000;stroke-width:0.6;"/>
      </defs>
      <g>
       <use style="stroke:#000000;stroke-width:0.6;" x="97.755429" xlink:href="#m1993127c49" y="298.944"/>
      </g>
     </g>
    </g>
    <g id="xtick_6">
     <g id="line2d_15">
      <path clip-path="url(#p50b8c38df8)" d="M 178.066286 298.944 
L 178.066286 3.456 
" style="fill:none;stroke:#b0b0b0;stroke-linecap:square;stroke-width:0.8;"/>
     </g>
     <g id="line2d_16">
      <g>
       <use style="stroke:#000000;stroke-width:0.6;" x="178.066286" xlink:href="#m1993127c49" y="298.944"/>
      </g>
     </g>
    </g>
    <g id="xtick_7">
     <g id="line2d_17">
      <path clip-path="url(#p50b8c38df8)" d="M 258.377143 298.944 
L 258.377143 3.456 
" style="fill:none;stroke:#b0b0b0;stroke-linecap:square;stroke-width:0.8;"/>
     </g>
     <g id="line2d_18">
      <g>
       <use style="stroke:#000000;stroke-width:0.6;" x="258.377143" xlink:href="#m1993127c49" y="298.944"/>
      </g>
     </g>
    </g>
    <g id="xtick_8">
     <g id="line2d_19">
      <path clip-path="url(#p50b8c38df8)" d="M 338.688 298.944 
L 338.688 3.456 
" style="fill:none;stroke:#b0b0b0;stroke-linecap:square;stroke-width:0.8;"/>
     </g>
     <g id="line2d_20">
      <g>
       <use style="stroke:#000000;stroke-width:0.6;" x="338.688" xlink:href="#m1993127c49" y="298.944"/>
      </g>
     </g>
    </g>
    <g id="text_5">
     <!-- log10(# f-evals / dimension) -->
     <g transform="translate(77.764078 342.217594)scale(0.17 -0.17)">
      <defs>
       <path d="M 9.421875 75.984375 
L 18.40625 75.984375 
L 18.40625 0 
L 9.421875 0 
z
" id="DejaVuSans-108"/>
       <path d="M 30.609375 48.390625 
Q 23.390625 48.390625 19.1875 42.75 
Q 14.984375 37.109375 14.984375 27.296875 
Q 14.984375 17.484375 19.15625 11.84375 
Q 23.34375 6.203125 30.609375 6.203125 
Q 37.796875 6.203125 41.984375 11.859375 
Q 46.1875 17.53125 46.1875 27.296875 
Q 46.1875 37.015625 41.984375 42.703125 
Q 37.796875 48.390625 30.609375 48.390625 
z
M 30.609375 56 
Q 42.328125 56 49.015625 48.375 
Q 55.71875 40.765625 55.71875 27.296875 
Q 55.71875 13.875 49.015625 6.21875 
Q 42.328125 -1.421875 30.609375 -1.421875 
Q 18.84375 -1.421875 12.171875 6.21875 
Q 5.515625 13.875 5.515625 27.296875 
Q 5.515625 40.765625 12.171875 48.375 
Q 18.84375 56 30.609375 56 
z
" id="DejaVuSans-111"/>
       <path d="M 45.40625 27.984375 
Q 45.40625 37.75 41.375 43.109375 
Q 37.359375 48.484375 30.078125 48.484375 
Q 22.859375 48.484375 18.828125 43.109375 
Q 14.796875 37.75 14.796875 27.984375 
Q 14.796875 18.265625 18.828125 12.890625 
Q 22.859375 7.515625 30.078125 7.515625 
Q 37.359375 7.515625 41.375 12.890625 
Q 45.40625 18.265625 45.40625 27.984375 
z
M 54.390625 6.78125 
Q 54.390625 -7.171875 48.1875 -13.984375 
Q 42 -20.796875 29.203125 -20.796875 
Q 24.46875 -20.796875 20.265625 -20.09375 
Q 16.0625 -19.390625 12.109375 -17.921875 
L 12.109375 -9.1875 
Q 16.0625 -11.328125 19.921875 -12.34375 
Q 23.78125 -13.375 27.78125 -13.375 
Q 36.625 -13.375 41.015625 -8.765625 
Q 45.40625 -4.15625 45.40625 5.171875 
L 45.40625 9.625 
Q 42.625 4.78125 38.28125 2.390625 
Q 33.9375 0 27.875 0 
Q 17.828125 0 11.671875 7.65625 
Q 5.515625 15.328125 5.515625 27.984375 
Q 5.515625 40.671875 11.671875 48.328125 
Q 17.828125 56 27.875 56 
Q 33.9375 56 38.28125 53.609375 
Q 42.625 51.21875 45.40625 46.390625 
L 45.40625 54.6875 
L 54.390625 54.6875 
z
" id="DejaVuSans-103"/>
       <path d="M 12.40625 8.296875 
L 28.515625 8.296875 
L 28.515625 63.921875 
L 10.984375 60.40625 
L 10.984375 69.390625 
L 28.421875 72.90625 
L 38.28125 72.90625 
L 38.28125 8.296875 
L 54.390625 8.296875 
L 54.390625 0 
L 12.40625 0 
z
" id="DejaVuSans-49"/>
       <path d="M 31 75.875 
Q 24.46875 64.65625 21.28125 53.65625 
Q 18.109375 42.671875 18.109375 31.390625 
Q 18.109375 20.125 21.3125 9.0625 
Q 24.515625 -2 31 -13.1875 
L 23.1875 -13.1875 
Q 15.875 -1.703125 12.234375 9.375 
Q 8.59375 20.453125 8.59375 31.390625 
Q 8.59375 42.28125 12.203125 53.3125 
Q 15.828125 64.359375 23.1875 75.875 
z
" id="DejaVuSans-40"/>
       <path d="M 51.125 44 
L 36.921875 44 
L 32.8125 27.6875 
L 47.125 27.6875 
z
M 43.796875 71.78125 
L 38.71875 51.515625 
L 52.984375 51.515625 
L 58.109375 71.78125 
L 65.921875 71.78125 
L 60.890625 51.515625 
L 76.125 51.515625 
L 76.125 44 
L 58.984375 44 
L 54.984375 27.6875 
L 70.515625 27.6875 
L 70.515625 20.21875 
L 53.078125 20.21875 
L 48 0 
L 40.1875 0 
L 45.21875 20.21875 
L 30.90625 20.21875 
L 25.875 0 
L 18.015625 0 
L 23.09375 20.21875 
L 7.71875 20.21875 
L 7.71875 27.6875 
L 24.90625 27.6875 
L 29 44 
L 13.28125 44 
L 13.28125 51.515625 
L 30.90625 51.515625 
L 35.890625 71.78125 
z
" id="DejaVuSans-35"/>
       <path id="DejaVuSans-32"/>
       <path d="M 37.109375 75.984375 
L 37.109375 68.5 
L 28.515625 68.5 
Q 23.6875 68.5 21.796875 66.546875 
Q 19.921875 64.59375 19.921875 59.515625 
L 19.921875 54.6875 
L 34.71875 54.6875 
L 34.71875 47.703125 
L 19.921875 47.703125 
L 19.921875 0 
L 10.890625 0 
L 10.890625 47.703125 
L 2.296875 47.703125 
L 2.296875 54.6875 
L 10.890625 54.6875 
L 10.890625 58.5 
Q 10.890625 67.625 15.140625 71.796875 
Q 19.390625 75.984375 28.609375 75.984375 
z
" id="DejaVuSans-102"/>
       <path d="M 4.890625 31.390625 
L 31.203125 31.390625 
L 31.203125 23.390625 
L 4.890625 23.390625 
z
" id="DejaVuSans-45"/>
       <path d="M 56.203125 29.59375 
L 56.203125 25.203125 
L 14.890625 25.203125 
Q 15.484375 15.921875 20.484375 11.0625 
Q 25.484375 6.203125 34.421875 6.203125 
Q 39.59375 6.203125 44.453125 7.46875 
Q 49.3125 8.734375 54.109375 11.28125 
L 54.109375 2.78125 
Q 49.265625 0.734375 44.1875 -0.34375 
Q 39.109375 -1.421875 33.890625 -1.421875 
Q 20.796875 -1.421875 13.15625 6.1875 
Q 5.515625 13.8125 5.515625 26.8125 
Q 5.515625 40.234375 12.765625 48.109375 
Q 20.015625 56 32.328125 56 
Q 43.359375 56 49.78125 48.890625 
Q 56.203125 41.796875 56.203125 29.59375 
z
M 47.21875 32.234375 
Q 47.125 39.59375 43.09375 43.984375 
Q 39.0625 48.390625 32.421875 48.390625 
Q 24.90625 48.390625 20.390625 44.140625 
Q 15.875 39.890625 15.1875 32.171875 
z
" id="DejaVuSans-101"/>
       <path d="M 2.984375 54.6875 
L 12.5 54.6875 
L 29.59375 8.796875 
L 46.6875 54.6875 
L 56.203125 54.6875 
L 35.6875 0 
L 23.484375 0 
z
" id="DejaVuSans-118"/>
       <path d="M 34.28125 27.484375 
Q 23.390625 27.484375 19.1875 25 
Q 14.984375 22.515625 14.984375 16.5 
Q 14.984375 11.71875 18.140625 8.90625 
Q 21.296875 6.109375 26.703125 6.109375 
Q 34.1875 6.109375 38.703125 11.40625 
Q 43.21875 16.703125 43.21875 25.484375 
L 43.21875 27.484375 
z
M 52.203125 31.203125 
L 52.203125 0 
L 43.21875 0 
L 43.21875 8.296875 
Q 40.140625 3.328125 35.546875 0.953125 
Q 30.953125 -1.421875 24.3125 -1.421875 
Q 15.921875 -1.421875 10.953125 3.296875 
Q 6 8.015625 6 15.921875 
Q 6 25.140625 12.171875 29.828125 
Q 18.359375 34.515625 30.609375 34.515625 
L 43.21875 34.515625 
L 43.21875 35.40625 
Q 43.21875 41.609375 39.140625 45 
Q 35.0625 48.390625 27.6875 48.390625 
Q 23 48.390625 18.546875 47.265625 
Q 14.109375 46.140625 10.015625 43.890625 
L 10.015625 52.203125 
Q 14.9375 54.109375 19.578125 55.046875 
Q 24.21875 56 28.609375 56 
Q 40.484375 56 46.34375 49.84375 
Q 52.203125 43.703125 52.203125 31.203125 
z
" id="DejaVuSans-97"/>
       <path d="M 44.28125 53.078125 
L 44.28125 44.578125 
Q 40.484375 46.53125 36.375 47.5 
Q 32.28125 48.484375 27.875 48.484375 
Q 21.1875 48.484375 17.84375 46.4375 
Q 14.5 44.390625 14.5 40.28125 
Q 14.5 37.15625 16.890625 35.375 
Q 19.28125 33.59375 26.515625 31.984375 
L 29.59375 31.296875 
Q 39.15625 29.25 43.1875 25.515625 
Q 47.21875 21.78125 47.21875 15.09375 
Q 47.21875 7.46875 41.1875 3.015625 
Q 35.15625 -1.421875 24.609375 -1.421875 
Q 20.21875 -1.421875 15.453125 -0.5625 
Q 10.6875 0.296875 5.421875 2 
L 5.421875 11.28125 
Q 10.40625 8.6875 15.234375 7.390625 
Q 20.0625 6.109375 24.8125 6.109375 
Q 31.15625 6.109375 34.5625 8.28125 
Q 37.984375 10.453125 37.984375 14.40625 
Q 37.984375 18.0625 35.515625 20.015625 
Q 33.0625 21.96875 24.703125 23.78125 
L 21.578125 24.515625 
Q 13.234375 26.265625 9.515625 29.90625 
Q 5.8125 33.546875 5.8125 39.890625 
Q 5.8125 47.609375 11.28125 51.796875 
Q 16.75 56 26.8125 56 
Q 31.78125 56 36.171875 55.265625 
Q 40.578125 54.546875 44.28125 53.078125 
z
" id="DejaVuSans-115"/>
       <path d="M 25.390625 72.90625 
L 33.6875 72.90625 
L 8.296875 -9.28125 
L 0 -9.28125 
z
" id="DejaVuSans-47"/>
       <path d="M 45.40625 46.390625 
L 45.40625 75.984375 
L 54.390625 75.984375 
L 54.390625 0 
L 45.40625 0 
L 45.40625 8.203125 
Q 42.578125 3.328125 38.25 0.953125 
Q 33.9375 -1.421875 27.875 -1.421875 
Q 17.96875 -1.421875 11.734375 6.484375 
Q 5.515625 14.40625 5.515625 27.296875 
Q 5.515625 40.1875 11.734375 48.09375 
Q 17.96875 56 27.875 56 
Q 33.9375 56 38.25 53.625 
Q 42.578125 51.265625 45.40625 46.390625 
z
M 14.796875 27.296875 
Q 14.796875 17.390625 18.875 11.75 
Q 22.953125 6.109375 30.078125 6.109375 
Q 37.203125 6.109375 41.296875 11.75 
Q 45.40625 17.390625 45.40625 27.296875 
Q 45.40625 37.203125 41.296875 42.84375 
Q 37.203125 48.484375 30.078125 48.484375 
Q 22.953125 48.484375 18.875 42.84375 
Q 14.796875 37.203125 14.796875 27.296875 
z
" id="DejaVuSans-100"/>
       <path d="M 9.421875 54.6875 
L 18.40625 54.6875 
L 18.40625 0 
L 9.421875 0 
z
M 9.421875 75.984375 
L 18.40625 75.984375 
L 18.40625 64.59375 
L 9.421875 64.59375 
z
" id="DejaVuSans-105"/>
       <path d="M 52 44.1875 
Q 55.375 50.25 60.0625 53.125 
Q 64.75 56 71.09375 56 
Q 79.640625 56 84.28125 50.015625 
Q 88.921875 44.046875 88.921875 33.015625 
L 88.921875 0 
L 79.890625 0 
L 79.890625 32.71875 
Q 79.890625 40.578125 77.09375 44.375 
Q 74.3125 48.1875 68.609375 48.1875 
Q 61.625 48.1875 57.5625 43.546875 
Q 53.515625 38.921875 53.515625 30.90625 
L 53.515625 0 
L 44.484375 0 
L 44.484375 32.71875 
Q 44.484375 40.625 41.703125 44.40625 
Q 38.921875 48.1875 33.109375 48.1875 
Q 26.21875 48.1875 22.15625 43.53125 
Q 18.109375 38.875 18.109375 30.90625 
L 18.109375 0 
L 9.078125 0 
L 9.078125 54.6875 
L 18.109375 54.6875 
L 18.109375 46.1875 
Q 21.1875 51.21875 25.484375 53.609375 
Q 29.78125 56 35.6875 56 
Q 41.65625 56 45.828125 52.96875 
Q 50 49.953125 52 44.1875 
z
" id="DejaVuSans-109"/>
       <path d="M 54.890625 33.015625 
L 54.890625 0 
L 45.90625 0 
L 45.90625 32.71875 
Q 45.90625 40.484375 42.875 44.328125 
Q 39.84375 48.1875 33.796875 48.1875 
Q 26.515625 48.1875 22.3125 43.546875 
Q 18.109375 38.921875 18.109375 30.90625 
L 18.109375 0 
L 9.078125 0 
L 9.078125 54.6875 
L 18.109375 54.6875 
L 18.109375 46.1875 
Q 21.34375 51.125 25.703125 53.5625 
Q 30.078125 56 35.796875 56 
Q 45.21875 56 50.046875 50.171875 
Q 54.890625 44.34375 54.890625 33.015625 
z
" id="DejaVuSans-110"/>
       <path d="M 8.015625 75.875 
L 15.828125 75.875 
Q 23.140625 64.359375 26.78125 53.3125 
Q 30.421875 42.28125 30.421875 31.390625 
Q 30.421875 20.453125 26.78125 9.375 
Q 23.140625 -1.703125 15.828125 -13.1875 
L 8.015625 -13.1875 
Q 14.5 -2 17.703125 9.0625 
Q 20.90625 20.125 20.90625 31.390625 
Q 20.90625 42.671875 17.703125 53.65625 
Q 14.5 64.65625 8.015625 75.875 
z
" id="DejaVuSans-41"/>
      </defs>
      <use xlink:href="#DejaVuSans-108"/>
      <use x="27.783203" xlink:href="#DejaVuSans-111"/>
      <use x="88.964844" xlink:href="#DejaVuSans-103"/>
      <use x="152.441406" xlink:href="#DejaVuSans-49"/>
      <use x="216.064453" xlink:href="#DejaVuSans-48"/>
      <use x="279.6875" xlink:href="#DejaVuSans-40"/>
      <use x="318.701172" xlink:href="#DejaVuSans-35"/>
      <use x="402.490234" xlink:href="#DejaVuSans-32"/>
      <use x="434.277344" xlink:href="#DejaVuSans-102"/>
      <use x="463.982422" xlink:href="#DejaVuSans-45"/>
      <use x="500.066406" xlink:href="#DejaVuSans-101"/>
      <use x="561.589844" xlink:href="#DejaVuSans-118"/>
      <use x="620.769531" xlink:href="#DejaVuSans-97"/>
      <use x="682.048828" xlink:href="#DejaVuSans-108"/>
      <use x="709.832031" xlink:href="#DejaVuSans-115"/>
      <use x="761.931641" xlink:href="#DejaVuSans-32"/>
      <use x="793.71875" xlink:href="#DejaVuSans-47"/>
      <use x="827.410156" xlink:href="#DejaVuSans-32"/>
      <use x="859.197266" xlink:href="#DejaVuSans-100"/>
      <use x="922.673828" xlink:href="#DejaVuSans-105"/>
      <use x="950.457031" xlink:href="#DejaVuSans-109"/>
      <use x="1047.869141" xlink:href="#DejaVuSans-101"/>
      <use x="1109.392578" xlink:href="#DejaVuSans-110"/>
      <use x="1172.771484" xlink:href="#DejaVuSans-115"/>
      <use x="1224.871094" xlink:href="#DejaVuSans-105"/>
      <use x="1252.654297" xlink:href="#DejaVuSans-111"/>
      <use x="1313.835938" xlink:href="#DejaVuSans-110"/>
      <use x="1377.214844" xlink:href="#DejaVuSans-41"/>
     </g>
    </g>
   </g>
   <g id="matplotlib.axis_2">
    <g id="ytick_1">
     <g id="line2d_21">
      <path clip-path="url(#p50b8c38df8)" d="M 57.6 298.944 
L 338.688 298.944 
" style="fill:none;stroke:#b0b0b0;stroke-linecap:square;stroke-width:0.8;"/>
     </g>
     <g id="line2d_22">
      <defs>
       <path d="M 0 0 
L -3.5 0 
" id="m9e64519f59" style="stroke:#000000;stroke-width:0.8;"/>
      </defs>
      <g>
       <use style="stroke:#000000;stroke-width:0.8;" x="57.6" xlink:href="#m9e64519f59" y="298.944"/>
      </g>
     </g>
     <g id="text_6">
      <!-- 0.0 -->
      <g transform="translate(25.155 305.02275)scale(0.16 -0.16)">
       <defs>
        <path d="M 10.6875 12.40625 
L 21 12.40625 
L 21 0 
L 10.6875 0 
z
" id="DejaVuSans-46"/>
       </defs>
       <use xlink:href="#DejaVuSans-48"/>
       <use x="63.623047" xlink:href="#DejaVuSans-46"/>
       <use x="95.410156" xlink:href="#DejaVuSans-48"/>
      </g>
     </g>
    </g>
    <g id="ytick_2">
     <g id="line2d_23">
      <path clip-path="url(#p50b8c38df8)" d="M 57.6 240.431525 
L 338.688 240.431525 
" style="fill:none;stroke:#b0b0b0;stroke-linecap:square;stroke-width:0.8;"/>
     </g>
     <g id="line2d_24">
      <g>
       <use style="stroke:#000000;stroke-width:0.8;" x="57.6" xlink:href="#m9e64519f59" y="240.431525"/>
      </g>
     </g>
     <g id="text_7">
      <!-- 0.2 -->
      <g transform="translate(25.155 246.510275)scale(0.16 -0.16)">
       <use xlink:href="#DejaVuSans-48"/>
       <use x="63.623047" xlink:href="#DejaVuSans-46"/>
       <use x="95.410156" xlink:href="#DejaVuSans-50"/>
      </g>
     </g>
    </g>
    <g id="ytick_3">
     <g id="line2d_25">
      <path clip-path="url(#p50b8c38df8)" d="M 57.6 181.91905 
L 338.688 181.91905 
" style="fill:none;stroke:#b0b0b0;stroke-linecap:square;stroke-width:0.8;"/>
     </g>
     <g id="line2d_26">
      <g>
       <use style="stroke:#000000;stroke-width:0.8;" x="57.6" xlink:href="#m9e64519f59" y="181.91905"/>
      </g>
     </g>
     <g id="text_8">
      <!-- 0.4 -->
      <g transform="translate(25.155 187.9978)scale(0.16 -0.16)">
       <use xlink:href="#DejaVuSans-48"/>
       <use x="63.623047" xlink:href="#DejaVuSans-46"/>
       <use x="95.410156" xlink:href="#DejaVuSans-52"/>
      </g>
     </g>
    </g>
    <g id="ytick_4">
     <g id="line2d_27">
      <path clip-path="url(#p50b8c38df8)" d="M 57.6 123.406574 
L 338.688 123.406574 
" style="fill:none;stroke:#b0b0b0;stroke-linecap:square;stroke-width:0.8;"/>
     </g>
     <g id="line2d_28">
      <g>
       <use style="stroke:#000000;stroke-width:0.8;" x="57.6" xlink:href="#m9e64519f59" y="123.406574"/>
      </g>
     </g>
     <g id="text_9">
      <!-- 0.6 -->
      <g transform="translate(25.155 129.485324)scale(0.16 -0.16)">
       <use xlink:href="#DejaVuSans-48"/>
       <use x="63.623047" xlink:href="#DejaVuSans-46"/>
       <use x="95.410156" xlink:href="#DejaVuSans-54"/>
      </g>
     </g>
    </g>
    <g id="ytick_5">
     <g id="line2d_29">
      <path clip-path="url(#p50b8c38df8)" d="M 57.6 64.894099 
L 338.688 64.894099 
" style="fill:none;stroke:#b0b0b0;stroke-linecap:square;stroke-width:0.8;"/>
     </g>
     <g id="line2d_30">
      <g>
       <use style="stroke:#000000;stroke-width:0.8;" x="57.6" xlink:href="#m9e64519f59" y="64.894099"/>
      </g>
     </g>
     <g id="text_10">
      <!-- 0.8 -->
      <g transform="translate(25.155 70.972849)scale(0.16 -0.16)">
       <defs>
        <path d="M 31.78125 34.625 
Q 24.75 34.625 20.71875 30.859375 
Q 16.703125 27.09375 16.703125 20.515625 
Q 16.703125 13.921875 20.71875 10.15625 
Q 24.75 6.390625 31.78125 6.390625 
Q 38.8125 6.390625 42.859375 10.171875 
Q 46.921875 13.96875 46.921875 20.515625 
Q 46.921875 27.09375 42.890625 30.859375 
Q 38.875 34.625 31.78125 34.625 
z
M 21.921875 38.8125 
Q 15.578125 40.375 12.03125 44.71875 
Q 8.5 49.078125 8.5 55.328125 
Q 8.5 64.0625 14.71875 69.140625 
Q 20.953125 74.21875 31.78125 74.21875 
Q 42.671875 74.21875 48.875 69.140625 
Q 55.078125 64.0625 55.078125 55.328125 
Q 55.078125 49.078125 51.53125 44.71875 
Q 48 40.375 41.703125 38.8125 
Q 48.828125 37.15625 52.796875 32.3125 
Q 56.78125 27.484375 56.78125 20.515625 
Q 56.78125 9.90625 50.3125 4.234375 
Q 43.84375 -1.421875 31.78125 -1.421875 
Q 19.734375 -1.421875 13.25 4.234375 
Q 6.78125 9.90625 6.78125 20.515625 
Q 6.78125 27.484375 10.78125 32.3125 
Q 14.796875 37.15625 21.921875 38.8125 
z
M 18.3125 54.390625 
Q 18.3125 48.734375 21.84375 45.5625 
Q 25.390625 42.390625 31.78125 42.390625 
Q 38.140625 42.390625 41.71875 45.5625 
Q 45.3125 48.734375 45.3125 54.390625 
Q 45.3125 60.0625 41.71875 63.234375 
Q 38.140625 66.40625 31.78125 66.40625 
Q 25.390625 66.40625 21.84375 63.234375 
Q 18.3125 60.0625 18.3125 54.390625 
z
" id="DejaVuSans-56"/>
       </defs>
       <use xlink:href="#DejaVuSans-48"/>
       <use x="63.623047" xlink:href="#DejaVuSans-46"/>
       <use x="95.410156" xlink:href="#DejaVuSans-56"/>
      </g>
     </g>
    </g>
    <g id="ytick_6">
     <g id="line2d_31">
      <path clip-path="url(#p50b8c38df8)" d="M 57.6 6.381624 
L 338.688 6.381624 
" style="fill:none;stroke:#b0b0b0;stroke-linecap:square;stroke-width:0.8;"/>
     </g>
     <g id="line2d_32">
      <g>
       <use style="stroke:#000000;stroke-width:0.8;" x="57.6" xlink:href="#m9e64519f59" y="6.381624"/>
      </g>
     </g>
     <g id="text_11">
      <!-- 1.0 -->
      <g transform="translate(25.155 12.460374)scale(0.16 -0.16)">
       <use xlink:href="#DejaVuSans-49"/>
       <use x="63.623047" xlink:href="#DejaVuSans-46"/>
       <use x="95.410156" xlink:href="#DejaVuSans-48"/>
      </g>
     </g>
    </g>
    <g id="text_12">
     <!-- Fraction of function,target pairs -->
     <g transform="translate(17.619531 285.585)rotate(-90)scale(0.17 -0.17)">
      <defs>
       <path d="M 9.8125 72.90625 
L 51.703125 72.90625 
L 51.703125 64.59375 
L 19.671875 64.59375 
L 19.671875 43.109375 
L 48.578125 43.109375 
L 48.578125 34.8125 
L 19.671875 34.8125 
L 19.671875 0 
L 9.8125 0 
z
" id="DejaVuSans-70"/>
       <path d="M 41.109375 46.296875 
Q 39.59375 47.171875 37.8125 47.578125 
Q 36.03125 48 33.890625 48 
Q 26.265625 48 22.1875 43.046875 
Q 18.109375 38.09375 18.109375 28.8125 
L 18.109375 0 
L 9.078125 0 
L 9.078125 54.6875 
L 18.109375 54.6875 
L 18.109375 46.1875 
Q 20.953125 51.171875 25.484375 53.578125 
Q 30.03125 56 36.53125 56 
Q 37.453125 56 38.578125 55.875 
Q 39.703125 55.765625 41.0625 55.515625 
z
" id="DejaVuSans-114"/>
       <path d="M 48.78125 52.59375 
L 48.78125 44.1875 
Q 44.96875 46.296875 41.140625 47.34375 
Q 37.3125 48.390625 33.40625 48.390625 
Q 24.65625 48.390625 19.8125 42.84375 
Q 14.984375 37.3125 14.984375 27.296875 
Q 14.984375 17.28125 19.8125 11.734375 
Q 24.65625 6.203125 33.40625 6.203125 
Q 37.3125 6.203125 41.140625 7.25 
Q 44.96875 8.296875 48.78125 10.40625 
L 48.78125 2.09375 
Q 45.015625 0.34375 40.984375 -0.53125 
Q 36.96875 -1.421875 32.421875 -1.421875 
Q 20.0625 -1.421875 12.78125 6.34375 
Q 5.515625 14.109375 5.515625 27.296875 
Q 5.515625 40.671875 12.859375 48.328125 
Q 20.21875 56 33.015625 56 
Q 37.15625 56 41.109375 55.140625 
Q 45.0625 54.296875 48.78125 52.59375 
z
" id="DejaVuSans-99"/>
       <path d="M 18.3125 70.21875 
L 18.3125 54.6875 
L 36.8125 54.6875 
L 36.8125 47.703125 
L 18.3125 47.703125 
L 18.3125 18.015625 
Q 18.3125 11.328125 20.140625 9.421875 
Q 21.96875 7.515625 27.59375 7.515625 
L 36.8125 7.515625 
L 36.8125 0 
L 27.59375 0 
Q 17.1875 0 13.234375 3.875 
Q 9.28125 7.765625 9.28125 18.015625 
L 9.28125 47.703125 
L 2.6875 47.703125 
L 2.6875 54.6875 
L 9.28125 54.6875 
L 9.28125 70.21875 
z
" id="DejaVuSans-116"/>
       <path d="M 8.5 21.578125 
L 8.5 54.6875 
L 17.484375 54.6875 
L 17.484375 21.921875 
Q 17.484375 14.15625 20.5 10.265625 
Q 23.53125 6.390625 29.59375 6.390625 
Q 36.859375 6.390625 41.078125 11.03125 
Q 45.3125 15.671875 45.3125 23.6875 
L 45.3125 54.6875 
L 54.296875 54.6875 
L 54.296875 0 
L 45.3125 0 
L 45.3125 8.40625 
Q 42.046875 3.421875 37.71875 1 
Q 33.40625 -1.421875 27.6875 -1.421875 
Q 18.265625 -1.421875 13.375 4.4375 
Q 8.5 10.296875 8.5 21.578125 
z
M 31.109375 56 
z
" id="DejaVuSans-117"/>
       <path d="M 11.71875 12.40625 
L 22.015625 12.40625 
L 22.015625 4 
L 14.015625 -11.625 
L 7.71875 -11.625 
L 11.71875 4 
z
" id="DejaVuSans-44"/>
       <path d="M 18.109375 8.203125 
L 18.109375 -20.796875 
L 9.078125 -20.796875 
L 9.078125 54.6875 
L 18.109375 54.6875 
L 18.109375 46.390625 
Q 20.953125 51.265625 25.265625 53.625 
Q 29.59375 56 35.59375 56 
Q 45.5625 56 51.78125 48.09375 
Q 58.015625 40.1875 58.015625 27.296875 
Q 58.015625 14.40625 51.78125 6.484375 
Q 45.5625 -1.421875 35.59375 -1.421875 
Q 29.59375 -1.421875 25.265625 0.953125 
Q 20.953125 3.328125 18.109375 8.203125 
z
M 48.6875 27.296875 
Q 48.6875 37.203125 44.609375 42.84375 
Q 40.53125 48.484375 33.40625 48.484375 
Q 26.265625 48.484375 22.1875 42.84375 
Q 18.109375 37.203125 18.109375 27.296875 
Q 18.109375 17.390625 22.1875 11.75 
Q 26.265625 6.109375 33.40625 6.109375 
Q 40.53125 6.109375 44.609375 11.75 
Q 48.6875 17.390625 48.6875 27.296875 
z
" id="DejaVuSans-112"/>
      </defs>
      <use xlink:href="#DejaVuSans-70"/>
      <use x="50.269531" xlink:href="#DejaVuSans-114"/>
      <use x="91.382812" xlink:href="#DejaVuSans-97"/>
      <use x="152.662109" xlink:href="#DejaVuSans-99"/>
      <use x="207.642578" xlink:href="#DejaVuSans-116"/>
      <use x="246.851562" xlink:href="#DejaVuSans-105"/>
      <use x="274.634766" xlink:href="#DejaVuSans-111"/>
      <use x="335.816406" xlink:href="#DejaVuSans-110"/>
      <use x="399.195312" xlink:href="#DejaVuSans-32"/>
      <use x="430.982422" xlink:href="#DejaVuSans-111"/>
      <use x="492.164062" xlink:href="#DejaVuSans-102"/>
      <use x="527.369141" xlink:href="#DejaVuSans-32"/>
      <use x="559.15625" xlink:href="#DejaVuSans-102"/>
      <use x="594.361328" xlink:href="#DejaVuSans-117"/>
      <use x="657.740234" xlink:href="#DejaVuSans-110"/>
      <use x="721.119141" xlink:href="#DejaVuSans-99"/>
      <use x="776.099609" xlink:href="#DejaVuSans-116"/>
      <use x="815.308594" xlink:href="#DejaVuSans-105"/>
      <use x="843.091797" xlink:href="#DejaVuSans-111"/>
      <use x="904.273438" xlink:href="#DejaVuSans-110"/>
      <use x="967.652344" xlink:href="#DejaVuSans-44"/>
      <use x="999.439453" xlink:href="#DejaVuSans-116"/>
      <use x="1038.648438" xlink:href="#DejaVuSans-97"/>
      <use x="1099.927734" xlink:href="#DejaVuSans-114"/>
      <use x="1139.291016" xlink:href="#DejaVuSans-103"/>
      <use x="1202.767578" xlink:href="#DejaVuSans-101"/>
      <use x="1264.291016" xlink:href="#DejaVuSans-116"/>
      <use x="1303.5" xlink:href="#DejaVuSans-32"/>
      <use x="1335.287109" xlink:href="#DejaVuSans-112"/>
      <use x="1398.763672" xlink:href="#DejaVuSans-97"/>
      <use x="1460.042969" xlink:href="#DejaVuSans-105"/>
      <use x="1487.826172" xlink:href="#DejaVuSans-114"/>
      <use x="1528.939453" xlink:href="#DejaVuSans-115"/>
     </g>
    </g>
   </g>
   <g id="line2d_33">
    <defs>
     <path d="M 0 1.5 
C 0.397805 1.5 0.77937 1.341951 1.06066 1.06066 
C 1.341951 0.77937 1.5 0.397805 1.5 0 
C 1.5 -0.397805 1.341951 -0.77937 1.06066 -1.06066 
C 0.77937 -1.341951 0.397805 -1.5 0 -1.5 
C -0.397805 -1.5 -0.77937 -1.341951 -1.06066 -1.06066 
C -1.341951 -0.77937 -1.5 -0.397805 -1.5 0 
C -1.5 0.397805 -1.341951 0.77937 -1.06066 1.06066 
C -0.77937 1.341951 -0.397805 1.5 0 1.5 
z
" id="m369d665540" style="stroke:#f5deb3;"/>
    </defs>
    <g>
     <use style="fill:#f5deb3;stroke:#f5deb3;" x="225.746224" xlink:href="#m369d665540" y="6.381624"/>
     <use style="fill:#f5deb3;stroke:#f5deb3;" x="225.746224" xlink:href="#m369d665540" y="6.381624"/>
    </g>
   </g>
   <g id="line2d_34">
    <defs>
     <path d="M 0 1.5 
C 0.397805 1.5 0.77937 1.341951 1.06066 1.06066 
C 1.341951 0.77937 1.5 0.397805 1.5 0 
C 1.5 -0.397805 1.341951 -0.77937 1.06066 -1.06066 
C 0.77937 -1.341951 0.397805 -1.5 0 -1.5 
C -0.397805 -1.5 -0.77937 -1.341951 -1.06066 -1.06066 
C -1.341951 -0.77937 -1.5 -0.397805 -1.5 0 
C -1.5 0.397805 -1.341951 0.77937 -1.06066 1.06066 
C -0.77937 1.341951 -0.397805 1.5 0 1.5 
z
" id="m0927d30e0f" style="stroke:#000080;"/>
    </defs>
    <g>
     <use style="fill:#000080;stroke:#000080;" x="197.305476" xlink:href="#m0927d30e0f" y="123.406574"/>
     <use style="fill:#000080;stroke:#000080;" x="197.305476" xlink:href="#m0927d30e0f" y="123.406574"/>
    </g>
   </g>
   <g id="line2d_35">
    <path d="M 86.435063 298.944 
L 86.435063 298.82927 
L 87.170317 298.82927 
L 87.170317 298.714539 
L 89.206582 298.714539 
L 89.206582 298.599809 
L 89.348366 298.599809 
L 89.348366 298.485079 
L 90.442955 298.485079 
L 90.442955 298.370348 
L 91.535274 298.370348 
L 91.535274 298.255618 
L 94.505975 298.255618 
L 94.505975 298.140888 
L 94.766656 298.140888 
L 94.766656 298.026157 
L 94.921215 298.026157 
L 94.921215 297.911427 
L 95.426737 297.911427 
L 95.426737 297.796697 
L 96.014634 297.796697 
L 96.062742 297.567236 
L 97.134116 297.567236 
L 97.134116 297.452506 
L 97.403108 297.452506 
L 97.403108 297.337775 
L 97.580158 297.337775 
L 97.580158 297.223045 
L 98.228533 297.223045 
L 98.228533 297.108315 
L 98.689141 297.108315 
L 98.689141 296.993584 
L 98.853664 296.993584 
L 98.853664 296.878854 
L 99.137896 296.878854 
L 99.178125 296.649393 
L 99.848191 296.649393 
L 99.848191 296.534663 
L 100.040467 296.534663 
L 100.040467 296.419932 
L 100.230647 296.419932 
L 100.230647 296.305202 
L 100.567829 296.305202 
L 100.567829 296.075741 
L 101.611978 296.075741 
L 101.611978 295.961011 
L 101.854917 295.961011 
L 101.854917 295.846281 
L 101.992235 295.846281 
L 102.026396 295.61682 
L 102.431195 295.61682 
L 102.431195 295.50209 
L 102.564066 295.50209 
L 102.564066 295.387359 
L 103.213649 295.387359 
L 103.213649 295.272629 
L 103.340712 295.272629 
L 103.340712 294.928438 
L 103.716438 294.928438 
L 103.716438 294.813708 
L 105.25707 294.813708 
L 105.25707 294.698977 
L 105.979182 294.698977 
L 106.06061 294.469517 
L 106.906317 294.469517 
L 107.009204 294.010595 
L 107.085973 294.010595 
L 107.085973 293.895865 
L 108.41298 293.895865 
L 108.41298 293.781135 
L 108.601261 293.781135 
L 108.601261 293.666404 
L 108.833788 293.666404 
L 108.833788 293.436944 
L 109.131511 293.436944 
L 109.131511 293.322213 
L 109.446552 293.322213 
L 109.535528 292.978022 
L 109.557701 292.978022 
L 109.668146 292.519101 
L 109.73408 292.519101 
L 109.821604 292.17491 
L 109.865203 292.17491 
L 109.865203 292.060179 
L 110.337724 292.060179 
L 110.337724 291.945449 
L 110.485426 291.945449 
L 110.548346 291.715988 
L 110.694282 291.715988 
L 110.735755 291.486528 
L 110.982542 291.486528 
L 111.043696 290.453955 
L 111.406189 290.453955 
L 111.406189 290.339224 
L 111.722198 290.339224 
L 111.761299 289.995033 
L 111.858671 289.995033 
L 111.858671 289.880303 
L 112.185728 289.880303 
L 112.185728 289.765573 
L 112.766778 289.765573 
L 112.877038 289.191921 
L 112.913636 289.191921 
L 112.913636 289.07719 
L 113.149674 289.07719 
L 113.239614 288.503539 
L 113.346933 288.503539 
L 113.435863 288.274078 
L 113.471309 288.274078 
L 113.471309 288.159348 
L 113.612376 288.159348 
L 113.717432 287.700426 
L 113.73488 287.700426 
L 113.839203 287.356235 
L 113.891132 287.356235 
L 113.908407 287.126775 
L 114.028856 287.126775 
L 114.028856 287.012044 
L 114.233425 287.012044 
L 114.233425 286.897314 
L 114.469094 286.897314 
L 114.569129 286.323662 
L 114.602346 286.323662 
L 114.602346 286.208932 
L 114.767492 286.208932 
L 114.865834 285.52055 
L 114.882171 285.52055 
L 114.963625 285.176359 
L 115.012316 285.176359 
L 115.012316 284.946898 
L 115.141496 284.946898 
L 115.205729 284.602707 
L 115.365285 284.602707 
L 115.444518 283.914325 
L 115.491886 283.914325 
L 115.601913 283.455404 
L 115.664476 283.455404 
L 115.726815 283.111213 
L 115.788932 283.111213 
L 115.866268 282.422831 
L 116.004615 282.422831 
L 116.03521 282.19337 
L 116.247887 282.19337 
L 116.323218 281.849179 
L 116.368262 281.849179 
L 116.368262 281.619718 
L 116.562116 281.619718 
L 116.621333 280.816606 
L 116.739166 280.816606 
L 116.841622 280.128224 
L 116.870784 280.128224 
L 116.972471 276.342122 
L 117.087964 276.342122 
L 117.174084 273.244403 
L 117.216985 273.244403 
L 117.316679 270.031953 
L 117.373392 270.031953 
L 117.40168 266.245852 
L 117.500326 266.245852 
L 117.598418 262.34502 
L 117.709852 262.34502 
L 117.806775 259.591492 
L 117.834369 259.591492 
L 117.834369 259.476762 
L 118.026313 259.476762 
L 118.135054 258.78838 
L 118.162133 258.78838 
L 118.229649 248.347918 
L 118.283474 248.347918 
L 118.323734 244.561817 
L 118.403976 244.561817 
L 118.430642 238.136918 
L 118.563361 238.136918 
L 118.589785 237.677997 
L 118.695079 237.677997 
L 118.747488 235.153929 
L 119.110011 235.153929 
L 119.110011 232.05621 
L 119.224953 232.05621 
L 119.224953 231.826749 
L 119.377041 231.826749 
L 119.440021 231.597288 
L 119.590253 231.597288 
L 119.590253 231.367828 
L 119.825504 231.367828 
L 119.837798 231.023637 
L 120.130288 231.023637 
L 120.142369 230.794176 
L 120.489134 230.794176 
L 120.489134 230.449985 
L 120.654101 230.449985 
L 120.736003 227.122805 
L 120.910223 227.122805 
L 121.013926 226.663884 
L 121.162638 226.663884 
L 121.208142 226.319692 
L 121.422678 226.319692 
L 121.422678 226.090232 
L 121.745122 226.090232 
L 121.767141 225.860771 
L 121.909593 225.860771 
L 121.909593 225.63131 
L 122.072527 225.63131 
L 122.072527 225.51658 
L 122.298108 225.51658 
L 122.308777 224.713468 
L 122.425713 224.713468 
L 122.425713 224.598737 
L 122.615387 224.598737 
L 122.615387 224.484007 
L 122.885768 224.484007 
L 122.885768 224.254546 
L 123.202762 224.254546 
L 123.202762 223.795625 
L 123.42428 223.795625 
L 123.42428 223.566164 
L 123.563795 223.566164 
L 123.563795 223.336704 
L 123.702203 223.336704 
L 123.741547 222.763052 
L 123.898042 222.763052 
L 123.985457 222.418861 
L 124.168574 222.418861 
L 124.168574 222.1894 
L 124.734527 222.1894 
L 124.762349 221.845209 
L 124.863982 221.845209 
L 124.955864 221.501018 
L 125.101877 221.501018 
L 125.101877 221.386288 
L 125.237662 221.386288 
L 125.300669 220.583175 
L 125.674001 220.583175 
L 125.674001 220.353715 
L 126.168212 220.353715 
L 126.168212 220.124254 
L 126.490073 220.124254 
L 126.490073 220.009524 
L 126.657117 220.009524 
L 126.657117 219.894793 
L 126.830809 219.894793 
L 126.830809 219.550602 
L 126.945649 219.550602 
L 126.986481 219.321142 
L 127.116504 219.321142 
L 127.140776 218.518029 
L 127.30173 218.518029 
L 127.30173 218.403299 
L 127.48501 218.403299 
L 127.48501 218.173838 
L 127.76807 218.173838 
L 127.76807 218.059108 
L 128.077285 218.059108 
L 128.077285 217.829647 
L 128.381113 217.829647 
L 128.441249 217.370726 
L 128.70193 217.370726 
L 128.70193 217.255995 
L 128.922312 217.255995 
L 128.92961 216.911804 
L 129.111082 216.911804 
L 129.183145 216.338153 
L 129.333516 216.338153 
L 129.354892 216.108692 
L 129.46138 216.108692 
L 129.46138 215.993962 
L 129.644435 215.993962 
L 129.700375 215.53504 
L 129.770048 215.53504 
L 129.88095 215.305579 
L 130.025447 215.305579 
L 130.066513 214.961388 
L 130.29741 214.961388 
L 130.29741 214.846658 
L 130.485292 214.846658 
L 130.511968 214.273006 
L 130.69097 214.273006 
L 130.756803 213.584624 
L 130.861623 213.584624 
L 130.861623 213.469894 
L 130.978796 213.469894 
L 130.985283 213.240433 
L 131.165936 213.240433 
L 131.217209 212.666782 
L 131.293837 212.666782 
L 131.293837 212.552051 
L 131.427132 212.552051 
L 131.427132 212.437321 
L 131.622056 212.437321 
L 131.684473 212.20786 
L 131.808641 212.20786 
L 131.876558 211.863669 
L 131.974877 211.863669 
L 131.974877 211.290017 
L 132.434469 211.290017 
L 132.434469 211.175287 
L 132.712745 211.175287 
L 132.794785 210.945826 
L 132.876441 210.945826 
L 132.934533 210.486905 
L 133.015538 210.486905 
L 133.067415 210.257444 
L 133.153535 210.257444 
L 133.216421 209.798523 
L 133.284766 209.798523 
L 133.284766 209.683793 
L 133.493825 209.683793 
L 133.59463 208.88068 
L 133.633675 208.88068 
L 133.733678 208.65122 
L 133.772413 208.65122 
L 133.844123 208.307029 
L 133.970277 208.307029 
L 134.03029 208.077568 
L 134.160516 208.077568 
L 134.209101 207.848107 
L 134.311226 207.848107 
L 134.343353 206.815534 
L 134.587709 206.815534 
L 134.598256 206.471343 
L 134.713852 206.471343 
L 134.713852 206.356613 
L 134.916909 206.356613 
L 134.999536 205.897691 
L 135.040702 205.897691 
L 135.112511 205.668231 
L 135.22476 205.668231 
L 135.22476 205.209309 
L 135.472201 205.209309 
L 135.50226 204.865118 
L 135.809875 204.865118 
L 135.898175 204.062006 
L 135.947038 204.062006 
L 135.947038 203.947275 
L 136.09765 203.947275 
L 136.165244 203.717815 
L 136.304433 203.717815 
L 136.304433 203.488354 
L 136.447261 203.488354 
L 136.48042 203.144163 
L 136.574815 203.144163 
L 136.61243 202.914702 
L 136.729457 202.914702 
L 136.836432 202.570511 
L 136.86886 202.570511 
L 136.86886 202.341051 
L 137.002566 202.341051 
L 137.103318 201.423208 
L 137.144368 201.423208 
L 137.253364 201.193747 
L 137.25789 201.193747 
L 137.25789 200.964287 
L 137.37967 200.964287 
L 137.469333 200.620096 
L 137.766386 200.620096 
L 137.766386 200.390635 
L 137.897773 200.390635 
L 137.989158 199.931713 
L 138.032507 199.931713 
L 138.032507 199.816983 
L 138.157613 199.816983 
L 138.166208 199.472792 
L 138.337225 199.472792 
L 138.337225 199.243331 
L 138.460171 199.243331 
L 138.561269 198.325489 
L 138.624158 198.325489 
L 138.728473 198.096028 
L 138.765874 198.096028 
L 138.873473 197.407646 
L 138.93936 197.407646 
L 139.037725 197.063455 
L 139.111136 197.063455 
L 139.216633 196.375073 
L 139.305403 196.375073 
L 139.397728 195.801421 
L 139.429726 195.801421 
L 139.509467 195.57196 
L 139.596763 195.57196 
L 139.679685 194.998309 
L 139.738675 194.998309 
L 139.770054 194.654118 
L 139.887228 194.654118 
L 139.887228 194.424657 
L 140.09233 194.424657 
L 140.195896 193.162623 
L 140.276024 193.162623 
L 140.378508 192.818432 
L 140.435184 192.818432 
L 140.506711 192.359511 
L 140.551735 192.359511 
L 140.61532 191.900589 
L 140.674955 191.900589 
L 140.674955 191.785859 
L 140.896784 191.785859 
L 140.944478 190.753286 
L 141.046761 190.753286 
L 141.155689 190.523825 
L 141.191848 190.523825 
L 141.278324 190.064904 
L 141.324986 190.064904 
L 141.371524 189.835443 
L 141.482002 189.835443 
L 141.552907 189.032331 
L 141.665761 189.032331 
L 141.721914 188.229218 
L 141.858037 188.229218 
L 141.906643 187.999758 
L 142.013792 187.999758 
L 142.116861 187.311376 
L 142.226135 187.311376 
L 142.314418 186.049342 
L 142.459451 186.049342 
L 142.516459 185.819881 
L 142.636569 185.819881 
L 142.739338 185.246229 
L 142.749252 185.246229 
L 142.857929 184.328387 
L 142.916923 184.328387 
L 142.916923 184.213656 
L 143.082997 184.213656 
L 143.170282 183.525274 
L 143.208936 183.525274 
L 143.295595 182.836892 
L 143.423192 182.836892 
L 143.435901 182.607432 
L 143.543551 182.607432 
L 143.641127 182.377971 
L 143.691276 182.377971 
L 143.703791 182.14851 
L 144.029131 182.14851 
L 144.029131 182.03378 
L 144.224497 182.03378 
L 144.224497 181.91905 
L 174.888124 181.91905 
L 174.888124 181.804319 
L 176.496632 181.804319 
L 176.496632 181.689589 
L 176.691603 181.689589 
L 176.691603 181.574858 
L 176.813826 181.574858 
L 176.813826 181.460128 
L 177.010398 181.460128 
L 177.095419 181.230667 
L 177.25555 181.230667 
L 177.351654 181.001207 
L 177.678784 181.001207 
L 177.678784 180.886476 
L 177.934998 180.886476 
L 177.934998 180.771746 
L 178.555083 180.771746 
L 178.641773 180.542285 
L 179.809095 180.542285 
L 179.916075 180.312825 
L 180.013437 180.312825 
L 180.037206 180.083364 
L 180.141639 180.083364 
L 180.1428 179.853903 
L 180.261987 179.853903 
L 180.324533 179.624443 
L 180.973417 179.624443 
L 181.043026 179.394982 
L 181.597596 179.394982 
L 181.597953 179.165521 
L 181.804308 179.165521 
L 181.891353 178.936061 
L 181.974831 178.936061 
L 181.974831 178.82133 
L 182.375775 178.82133 
L 182.412513 178.59187 
L 182.507739 178.59187 
L 182.60312 178.362409 
L 183.127885 178.362409 
L 183.135059 178.132948 
L 183.320873 178.132948 
L 183.419619 177.788757 
L 183.457746 177.788757 
L 183.549674 177.559296 
L 183.799066 177.559296 
L 183.799066 177.444566 
L 183.929136 177.444566 
L 184.01893 177.215105 
L 184.411467 177.215105 
L 184.411467 177.100375 
L 184.719316 177.100375 
L 184.780239 176.870914 
L 184.83888 176.870914 
L 184.83888 176.756184 
L 185.022703 176.756184 
L 185.063906 176.526723 
L 185.135852 176.526723 
L 185.135852 176.411993 
L 185.44071 176.411993 
L 185.53074 176.182532 
L 185.744542 176.182532 
L 185.755766 175.953072 
L 185.863994 175.953072 
L 185.863994 175.838341 
L 186.07212 175.838341 
L 186.172109 175.37942 
L 186.278336 175.37942 
L 186.278336 175.26469 
L 186.479989 175.26469 
L 186.524068 174.920499 
L 186.709376 174.920499 
L 186.734324 174.691038 
L 187.059093 174.691038 
L 187.059093 174.576308 
L 187.172745 174.576308 
L 187.220785 174.346847 
L 187.434833 174.346847 
L 187.455203 174.117386 
L 187.559988 174.117386 
L 187.633695 173.773195 
L 187.699315 173.773195 
L 187.798656 173.429004 
L 187.837039 173.429004 
L 187.880306 173.199543 
L 187.977142 173.199543 
L 187.977142 173.084813 
L 188.139879 173.084813 
L 188.183134 172.740622 
L 188.251829 172.740622 
L 188.251829 172.625892 
L 188.502376 172.625892 
L 188.602024 172.281701 
L 188.829525 172.281701 
L 188.853498 171.93751 
L 189.010623 171.93751 
L 189.079849 171.708049 
L 189.124075 171.708049 
L 189.169112 171.134397 
L 189.272372 171.134397 
L 189.364991 170.904937 
L 189.45871 170.904937 
L 189.550347 170.446015 
L 189.630502 170.446015 
L 189.650708 170.216554 
L 189.797282 170.216554 
L 189.907294 169.872363 
L 189.984728 169.872363 
L 189.984728 169.757633 
L 190.236915 169.757633 
L 190.321325 169.528172 
L 190.349155 169.528172 
L 190.42809 169.069251 
L 190.651548 169.069251 
L 190.66616 168.72506 
L 190.797544 168.72506 
L 190.839094 168.380869 
L 190.952743 168.380869 
L 190.997041 168.151408 
L 191.124934 168.151408 
L 191.233463 167.692487 
L 191.546405 167.692487 
L 191.605477 167.348296 
L 191.701493 167.348296 
L 191.778324 166.889374 
L 191.814235 166.889374 
L 191.884849 166.659914 
L 191.964023 166.659914 
L 192.069618 165.856801 
L 192.124221 165.856801 
L 192.234658 165.39788 
L 192.24375 165.39788 
L 192.329206 164.824228 
L 192.362465 164.824228 
L 192.451165 164.480037 
L 192.498872 164.480037 
L 192.533521 164.250577 
L 192.679356 164.250577 
L 192.679356 164.135846 
L 192.867509 164.135846 
L 192.899199 163.906386 
L 193.040542 163.906386 
L 193.151586 163.332734 
L 193.207851 163.332734 
L 193.318747 162.529621 
L 193.348176 162.529621 
L 193.44682 161.95597 
L 193.482879 161.95597 
L 193.58005 161.267588 
L 193.62745 161.267588 
L 193.719023 160.349745 
L 193.739623 160.349745 
L 193.83061 159.661363 
L 193.853195 159.661363 
L 193.867472 159.431902 
L 194.018511 159.431902 
L 194.089107 159.087711 
L 194.149194 159.087711 
L 194.173793 158.85825 
L 194.325646 158.85825 
L 194.389713 158.62879 
L 194.449115 158.62879 
L 194.557835 158.284599 
L 194.60485 158.284599 
L 194.694973 157.825677 
L 194.826205 157.825677 
L 194.918513 157.022565 
L 194.94553 157.022565 
L 195.05269 156.448913 
L 195.070787 156.448913 
L 195.173586 155.53107 
L 195.200701 155.53107 
L 195.30566 154.727958 
L 195.33419 154.727958 
L 195.442376 153.465924 
L 195.456857 153.465924 
L 195.567643 152.662812 
L 195.579146 152.662812 
L 195.689796 151.515508 
L 195.703439 151.515508 
L 195.800536 150.482935 
L 195.820237 150.482935 
L 195.916531 149.220902 
L 195.940169 149.220902 
L 196.049025 147.270486 
L 196.070777 147.270486 
L 196.168172 145.20534 
L 196.19286 145.20534 
L 196.302759 143.369654 
L 196.306895 143.369654 
L 196.416842 140.271935 
L 196.418668 140.271935 
L 196.523376 137.518407 
L 196.540162 137.518407 
L 196.64129 132.814462 
L 196.656161 132.814462 
L 196.763934 129.602013 
L 196.772736 129.602013 
L 196.880683 127.307406 
L 196.888685 127.307406 
L 196.990028 125.586451 
L 197.009019 125.586451 
L 197.094446 124.553878 
L 197.126921 124.553878 
L 197.236045 123.750765 
L 197.262603 123.750765 
L 197.305476 123.406574 
L 338.688 123.406574 
L 338.688 123.406574 
" style="fill:none;stroke:#000080;stroke-linecap:square;stroke-width:1.5;"/>
   </g>
   <g id="line2d_36">
    <defs>
     <path d="M 0 6 
C 1.591219 6 3.117479 5.367802 4.242641 4.242641 
C 5.367802 3.117479 6 1.591219 6 0 
C 6 -1.591219 5.367802 -3.117479 4.242641 -4.242641 
C 3.117479 -5.367802 1.591219 -6 0 -6 
C -1.591219 -6 -3.117479 -5.367802 -4.242641 -4.242641 
C -5.367802 -3.117479 -6 -1.591219 -6 0 
C -6 1.591219 -5.367802 3.117479 -4.242641 4.242641 
C -3.117479 5.367802 -1.591219 6 0 6 
z
" id="m610ff021d7" style="stroke:#000080;stroke-width:1.5;"/>
    </defs>
    <g>
     <use style="fill-opacity:0;stroke:#000080;stroke-width:1.5;" x="144.224497" xlink:href="#m610ff021d7" y="181.91905"/>
     <use style="fill-opacity:0;stroke:#000080;stroke-width:1.5;" x="197.305476" xlink:href="#m610ff021d7" y="123.521305"/>
     <use style="fill-opacity:0;stroke:#000080;stroke-width:1.5;" x="197.305476" xlink:href="#m610ff021d7" y="123.406574"/>
     <use style="fill-opacity:0;stroke:#000080;stroke-width:1.5;" x="197.305476" xlink:href="#m610ff021d7" y="123.406574"/>
     <use style="fill-opacity:0;stroke:#000080;stroke-width:1.5;" x="338.688" xlink:href="#m610ff021d7" y="123.406574"/>
    </g>
   </g>
   <g id="line2d_37">
    <path style="fill:none;stroke:#000080;stroke-linecap:square;stroke-width:1.5;"/>
    <g/>
   </g>
   <g id="line2d_38">
    <path clip-path="url(#p50b8c38df8)" d="M 242.397757 123.406574 
" style="fill:none;stroke:#000080;stroke-linecap:square;stroke-width:1.5;"/>
    <defs>
     <path d="M -12 12 
L 12 -12 
M -12 -12 
L 12 12 
" id="mbf020e7ebe" style="stroke:#000080;"/>
    </defs>
    <g clip-path="url(#p50b8c38df8)">
     <use style="fill:#000080;stroke:#000080;" x="242.397757" xlink:href="#mbf020e7ebe" y="123.406574"/>
    </g>
   </g>
   <g id="line2d_39">
    <defs>
     <path d="M 0 1.5 
C 0.397805 1.5 0.77937 1.341951 1.06066 1.06066 
C 1.341951 0.77937 1.5 0.397805 1.5 0 
C 1.5 -0.397805 1.341951 -0.77937 1.06066 -1.06066 
C 0.77937 -1.341951 0.397805 -1.5 0 -1.5 
C -0.397805 -1.5 -0.77937 -1.341951 -1.06066 -1.06066 
C -1.341951 -0.77937 -1.5 -0.397805 -1.5 0 
C -1.5 0.397805 -1.341951 0.77937 -1.06066 1.06066 
C -0.77937 1.341951 -0.397805 1.5 0 1.5 
z
" id="m1a18ebb487" style="stroke:#ff00ff;"/>
    </defs>
    <g>
     <use style="fill:#ff00ff;stroke:#ff00ff;" x="198.44442" xlink:href="#m1a18ebb487" y="123.406574"/>
     <use style="fill:#ff00ff;stroke:#ff00ff;" x="198.44442" xlink:href="#m1a18ebb487" y="123.406574"/>
    </g>
   </g>
   <g id="line2d_40">
    <path d="M 74.430317 298.944 
L 74.430317 298.82927 
L 88.255778 298.82927 
L 88.255778 298.714539 
L 90.442955 298.714539 
L 90.442955 298.599809 
L 92.386139 298.599809 
L 92.386139 298.485079 
L 92.621809 298.485079 
L 92.621809 298.370348 
L 95.624913 298.370348 
L 95.624913 298.255618 
L 95.869507 298.255618 
L 95.869507 298.140888 
L 96.442905 298.140888 
L 96.536665 297.796697 
L 96.629923 297.796697 
L 96.629923 297.681966 
L 97.134116 297.681966 
L 97.134116 297.567236 
L 98.228533 297.567236 
L 98.228533 297.452506 
L 98.481281 297.452506 
L 98.481281 297.337775 
L 99.80948 297.337775 
L 99.80948 297.223045 
L 100.230647 297.223045 
L 100.268435 296.993584 
L 100.530685 296.993584 
L 100.530685 296.764123 
L 100.934985 296.764123 
L 100.934985 296.649393 
L 101.151625 296.649393 
L 101.151625 296.534663 
L 101.330125 296.534663 
L 101.365607 296.305202 
L 101.681735 296.305202 
L 101.681735 296.190472 
L 102.162376 296.190472 
L 102.162376 296.075741 
L 102.630124 296.075741 
L 102.630124 295.961011 
L 102.956712 295.961011 
L 102.956712 295.846281 
L 103.117741 295.846281 
L 103.149769 295.61682 
L 103.529587 295.61682 
L 103.529587 295.50209 
L 103.654376 295.50209 
L 103.654376 295.272629 
L 104.325201 295.272629 
L 104.325201 295.157899 
L 104.444444 295.157899 
L 104.444444 295.043168 
L 104.621794 295.043168 
L 104.621794 294.813708 
L 104.826449 294.813708 
L 104.826449 294.698977 
L 104.971174 294.698977 
L 104.971174 294.584247 
L 105.086095 294.584247 
L 105.086095 294.354786 
L 105.538355 294.354786 
L 105.538355 294.240056 
L 106.828751 294.240056 
L 106.828751 293.895865 
L 107.238504 293.895865 
L 107.238504 293.666404 
L 107.638849 293.666404 
L 107.638849 293.551674 
L 108.03021 293.551674 
L 108.03021 293.436944 
L 108.41298 293.436944 
L 108.41298 292.978022 
L 108.78753 292.978022 
L 108.78753 292.748561 
L 109.513326 292.748561 
L 109.513326 292.40437 
L 109.865203 292.40437 
L 109.865203 292.28964 
L 110.210119 292.28964 
L 110.252758 291.830719 
L 110.548346 291.830719 
L 110.569269 291.486528 
L 110.880138 291.486528 
L 110.880138 291.142337 
L 111.205735 291.142337 
L 111.205735 290.912876 
L 111.663381 290.912876 
L 111.663381 290.798146 
L 111.780817 290.798146 
L 111.83924 290.453955 
L 112.147567 290.453955 
L 112.204777 289.765573 
L 112.450537 289.765573 
L 112.525465 289.421381 
L 112.877038 289.421381 
L 112.877038 289.306651 
L 113.04113 289.306651 
L 113.113568 289.07719 
L 113.329092 289.07719 
L 113.329092 288.96246 
L 113.612376 288.96246 
L 113.699967 288.503539 
L 113.942906 288.503539 
L 114.028856 288.044617 
L 114.182507 288.044617 
L 114.182507 287.929887 
L 114.301085 287.929887 
L 114.351658 287.585696 
L 114.435622 287.585696 
L 114.435622 287.356235 
L 114.734588 287.356235 
L 114.767492 287.126775 
L 114.947365 287.126775 
L 114.947365 287.012044 
L 115.237757 287.012044 
L 115.237757 286.897314 
L 115.349395 286.897314 
L 115.349395 286.782584 
L 115.476111 286.782584 
L 115.586238 286.323662 
L 115.617575 286.323662 
L 115.726815 285.864741 
L 115.788932 285.864741 
L 115.881694 285.63528 
L 115.973966 285.63528 
L 116.019919 284.832168 
L 116.217662 284.832168 
L 116.308178 284.602707 
L 116.38325 284.602707 
L 116.487812 283.684864 
L 116.532432 283.684864 
L 116.606548 283.225943 
L 116.724481 283.225943 
L 116.783149 282.996482 
L 116.841622 282.996482 
L 116.943478 281.963909 
L 116.98695 281.963909 
L 116.98695 281.619718 
L 117.116718 281.619718 
L 117.188396 281.275527 
L 117.359231 281.275527 
L 117.359231 281.046066 
L 117.472198 281.046066 
L 117.486268 280.701875 
L 117.612386 280.701875 
L 117.695961 280.128224 
L 117.723731 280.128224 
L 117.834369 279.554572 
L 117.861919 279.554572 
L 117.971687 279.095651 
L 118.026313 279.095651 
L 118.06717 275.080089 
L 118.202674 275.080089 
L 118.296904 271.752909 
L 118.337133 271.752909 
L 118.403976 268.540459 
L 118.483851 268.540459 
L 118.523652 265.213279 
L 118.616168 265.213279 
L 118.721303 260.968256 
L 118.773634 260.968256 
L 118.877827 258.329458 
L 118.929691 258.329458 
L 118.955566 258.099998 
L 119.110011 258.099998 
L 119.212219 257.296885 
L 119.250393 257.296885 
L 119.339143 248.347918 
L 119.40226 248.347918 
L 119.414856 244.676547 
L 119.515299 244.676547 
L 119.552816 237.677997 
L 119.677294 237.677997 
L 119.702083 237.448536 
L 119.813201 237.448536 
L 119.911382 234.350817 
L 120.226704 234.350817 
L 120.226704 231.138367 
L 120.34648 231.138367 
L 120.34648 231.023637 
L 120.677541 231.023637 
L 120.677541 230.564715 
L 120.944859 230.564715 
L 120.944859 230.449985 
L 121.230849 230.449985 
L 121.264855 230.105794 
L 121.411452 230.105794 
L 121.411452 229.876333 
L 121.590203 229.876333 
L 121.612419 229.302681 
L 121.77814 229.302681 
L 121.77814 226.090232 
L 121.942302 226.090232 
L 121.942302 225.975501 
L 122.625864 225.975501 
L 122.625864 225.746041 
L 122.792648 225.746041 
L 122.792648 225.51658 
L 122.957853 225.51658 
L 122.957853 225.287119 
L 123.121507 225.287119 
L 123.121507 225.057659 
L 123.28364 225.057659 
L 123.28364 224.942928 
L 123.414272 224.942928 
L 123.444279 224.369277 
L 123.761186 224.369277 
L 123.761186 224.254546 
L 123.917505 224.254546 
L 123.917505 224.025086 
L 124.072436 224.025086 
L 124.072436 223.680895 
L 124.378229 223.680895 
L 124.378229 223.451434 
L 124.529137 223.451434 
L 124.529137 222.992513 
L 124.827093 222.992513 
L 124.827093 222.877782 
L 124.974183 222.877782 
L 124.974183 222.1894 
L 125.120043 222.1894 
L 125.120043 221.845209 
L 125.408153 221.845209 
L 125.408153 221.615748 
L 125.550443 221.615748 
L 125.550443 221.501018 
L 125.691581 221.501018 
L 125.691581 221.271557 
L 125.831586 221.271557 
L 125.831586 221.156827 
L 125.970476 221.156827 
L 125.970476 221.042097 
L 126.108269 221.042097 
L 126.108269 220.468445 
L 126.38063 220.468445 
L 126.38063 220.238984 
L 126.515232 220.238984 
L 126.515232 220.124254 
L 127.30173 220.124254 
L 127.30173 219.780063 
L 127.429433 219.780063 
L 127.429433 219.665333 
L 127.807023 219.665333 
L 127.807023 219.550602 
L 128.054283 219.550602 
L 128.054283 219.435872 
L 128.176611 219.435872 
L 128.260216 218.403299 
L 128.298087 218.403299 
L 128.298087 218.059108 
L 128.418722 218.059108 
L 128.418722 217.600186 
L 128.538529 217.600186 
L 128.538529 217.370726 
L 128.657518 217.370726 
L 128.657518 217.255995 
L 128.775701 217.255995 
L 128.775701 216.911804 
L 129.240582 216.911804 
L 129.240582 216.682344 
L 129.468457 216.682344 
L 129.468457 216.567613 
L 129.581287 216.567613 
L 129.581287 216.338153 
L 129.693392 216.338153 
L 129.693392 216.223422 
L 130.025447 216.223422 
L 130.134742 215.53504 
L 130.458575 215.53504 
L 130.565197 215.190849 
L 130.671171 215.190849 
L 130.776505 214.961388 
L 131.191591 214.961388 
L 131.293837 214.502467 
L 131.496548 214.502467 
L 131.597027 213.928815 
L 131.796264 213.928815 
L 131.895035 213.355164 
L 131.99325 213.355164 
L 132.090915 212.896242 
L 132.314693 212.896242 
L 132.380671 212.437321 
L 132.476197 212.437321 
L 132.571201 211.863669 
L 132.853149 211.863669 
L 132.853149 211.519478 
L 133.038614 211.519478 
L 133.130612 211.175287 
L 133.403728 211.175287 
L 133.493825 210.257444 
L 133.672633 210.257444 
L 133.672633 210.142714 
L 134.111795 210.142714 
L 134.198316 209.224871 
L 134.284409 209.224871 
L 134.37008 208.88068 
L 134.540169 208.88068 
L 134.540169 208.76595 
L 134.666655 208.76595 
L 134.708614 208.421759 
L 134.792231 208.421759 
L 134.875449 207.848107 
L 135.122746 207.848107 
L 135.122746 207.733377 
L 135.285683 207.733377 
L 135.366585 207.389186 
L 135.447112 207.389186 
L 135.52727 206.471343 
L 135.607061 206.471343 
L 135.607061 206.127152 
L 135.922624 206.127152 
L 136.00063 205.782961 
L 136.155604 205.782961 
L 136.232577 204.865118 
L 136.61243 204.865118 
L 136.687417 204.406197 
L 136.762084 204.406197 
L 136.762084 204.291467 
L 136.910465 204.291467 
L 136.984184 203.832545 
L 137.057594 203.832545 
L 137.057594 203.717815 
L 137.275986 203.717815 
L 137.275986 203.603084 
L 137.420076 203.603084 
L 137.491677 203.144163 
L 137.562985 203.144163 
L 137.634002 202.455781 
L 137.845337 202.455781 
L 137.845337 202.11159 
L 137.984817 202.11159 
L 138.054141 201.537938 
L 138.12319 201.537938 
L 138.191968 200.849556 
L 138.260475 200.849556 
L 138.260475 200.620096 
L 138.396686 200.620096 
L 138.396686 199.816983 
L 138.531843 199.816983 
L 138.531843 199.587522 
L 138.665959 199.587522 
L 138.665959 199.358062 
L 138.931138 199.358062 
L 138.931138 199.243331 
L 139.06223 199.243331 
L 139.127408 198.89914 
L 139.192344 198.89914 
L 139.257039 198.440219 
L 139.321494 198.440219 
L 139.321494 198.210758 
L 139.576961 198.210758 
L 139.576961 197.981298 
L 139.703305 197.981298 
L 139.766135 197.751837 
L 139.82874 197.751837 
L 139.89112 197.063455 
L 139.953279 197.063455 
L 139.953279 196.948725 
L 140.076934 196.948725 
L 140.138435 196.145612 
L 140.19972 196.145612 
L 140.26079 195.57196 
L 140.382292 195.57196 
L 140.442727 194.539387 
L 140.502953 194.539387 
L 140.562972 194.195196 
L 140.622786 194.195196 
L 140.682395 193.851005 
L 140.801004 193.851005 
L 140.801004 193.736275 
L 140.918813 193.736275 
L 140.97742 193.392084 
L 141.152069 193.392084 
L 141.152069 193.277354 
L 141.267537 193.277354 
L 141.324986 192.588971 
L 141.382246 192.588971 
L 141.439319 192.01532 
L 141.552907 192.01532 
L 141.609425 191.441668 
L 141.665761 191.441668 
L 141.721914 191.097477 
L 141.777888 191.097477 
L 141.833683 190.868016 
L 141.889299 190.868016 
L 142.000003 190.523825 
L 142.055093 190.523825 
L 142.164753 190.179634 
L 142.280516 190.179634 
L 142.382025 189.376522 
L 142.435923 189.376522 
L 142.489655 188.9176 
L 142.649864 188.9176 
L 142.702941 187.655567 
L 142.808614 187.655567 
L 142.91365 186.967185 
L 142.965932 186.967185 
L 143.018058 186.737724 
L 143.276375 186.737724 
L 143.378639 185.47569 
L 143.429548 185.47569 
L 143.480308 185.131499 
L 143.631708 185.131499 
L 143.731916 184.557847 
L 143.781805 184.557847 
L 143.881157 184.213656 
L 143.979946 184.213656 
L 144.078178 183.640005 
L 144.17586 183.640005 
L 144.272998 183.066353 
L 144.321365 183.066353 
L 144.369598 182.607432 
L 144.656229 182.607432 
L 144.703546 182.377971 
L 144.891541 182.377971 
L 144.984783 182.03378 
L 145.307262 182.03378 
L 145.307262 181.91905 
L 175.934292 181.91905 
L 176.010981 181.689589 
L 177.816873 181.689589 
L 177.919617 181.460128 
L 178.322925 181.460128 
L 178.322925 181.345398 
L 178.446217 181.345398 
L 178.446217 181.230667 
L 178.803844 181.230667 
L 178.803844 181.115937 
L 179.060229 181.115937 
L 179.060229 181.001207 
L 179.680403 181.001207 
L 179.680403 180.886476 
L 180.497187 180.886476 
L 180.497187 180.771746 
L 181.029789 180.771746 
L 181.138699 180.542285 
L 181.162444 180.542285 
L 181.252018 180.198094 
L 181.363884 180.198094 
L 181.413973 179.853903 
L 182.053402 179.853903 
L 182.163362 179.624443 
L 182.722368 179.624443 
L 182.722368 179.394982 
L 183.013686 179.394982 
L 183.10014 179.050791 
L 183.469903 179.050791 
L 183.566857 178.477139 
L 183.632885 178.477139 
L 183.632885 178.362409 
L 183.905446 178.362409 
L 183.905446 178.247679 
L 184.17934 178.247679 
L 184.250435 178.018218 
L 184.446278 178.018218 
L 184.544884 177.559296 
L 184.583031 177.559296 
L 184.583031 177.444566 
L 184.924415 177.444566 
L 184.924415 177.329836 
L 185.054564 177.329836 
L 185.142246 177.100375 
L 185.267612 177.100375 
L 185.309106 176.870914 
L 185.536707 176.870914 
L 185.536707 176.756184 
L 185.844747 176.756184 
L 185.844747 176.641454 
L 185.958527 176.641454 
L 186.043722 176.182532 
L 186.147989 176.182532 
L 186.18881 175.838341 
L 186.29983 175.838341 
L 186.29983 175.723611 
L 186.423653 175.723611 
L 186.423653 175.608881 
L 186.566162 175.608881 
L 186.656175 175.37942 
L 186.869854 175.37942 
L 186.881167 175.149959 
L 187.279493 175.149959 
L 187.362837 174.920499 
L 187.544551 174.920499 
L 187.64553 174.576308 
L 187.674956 174.576308 
L 187.674956 174.461577 
L 187.833802 174.461577 
L 187.833802 174.346847 
L 188.180938 174.346847 
L 188.180938 174.232116 
L 188.298202 174.232116 
L 188.298202 174.117386 
L 188.432017 174.117386 
L 188.432017 174.002656 
L 188.697315 174.002656 
L 188.783601 173.773195 
L 188.824585 173.773195 
L 188.91516 173.543734 
L 188.937614 173.543734 
L 189.005734 173.199543 
L 189.101397 173.199543 
L 189.101397 173.084813 
L 189.265262 173.084813 
L 189.285666 172.855352 
L 189.377304 172.855352 
L 189.447363 172.625892 
L 189.492932 172.625892 
L 189.492932 172.511161 
L 189.610048 172.511161 
L 189.627806 172.281701 
L 189.954986 172.281701 
L 190.005407 171.93751 
L 190.135953 171.93751 
L 190.135953 171.822779 
L 190.249494 171.822779 
L 190.294531 171.363858 
L 190.397806 171.363858 
L 190.439674 171.134397 
L 190.578301 171.134397 
L 190.67251 170.904937 
L 190.755895 170.904937 
L 190.849361 170.560745 
L 190.92878 170.560745 
L 191.028584 170.331285 
L 191.110082 170.331285 
L 191.110082 170.216554 
L 191.243706 170.216554 
L 191.292173 169.987094 
L 191.362284 169.987094 
L 191.431912 169.757633 
L 191.538554 169.757633 
L 191.641345 169.298712 
L 191.765808 169.298712 
L 191.861145 168.83979 
L 191.922905 168.83979 
L 191.999554 168.380869 
L 192.078209 168.380869 
L 192.122468 168.036678 
L 192.245683 168.036678 
L 192.253609 167.807217 
L 192.401027 167.807217 
L 192.401027 167.692487 
L 192.519251 167.692487 
L 192.564874 167.463026 
L 192.699902 167.463026 
L 192.739793 167.233566 
L 192.826973 167.233566 
L 192.919302 166.659914 
L 192.949041 166.659914 
L 192.952012 166.430453 
L 193.09293 166.430453 
L 193.15801 165.856801 
L 193.246599 165.856801 
L 193.302012 165.51261 
L 193.35997 165.51261 
L 193.470087 164.938959 
L 193.487382 164.938959 
L 193.570733 164.594768 
L 193.61941 164.594768 
L 193.667951 164.365307 
L 193.804283 164.365307 
L 193.90408 164.135846 
L 194.098846 164.135846 
L 194.166001 163.906386 
L 194.297994 163.906386 
L 194.35017 163.447464 
L 194.52529 163.447464 
L 194.634718 162.873812 
L 194.670761 162.873812 
L 194.753346 161.726509 
L 194.791485 161.726509 
L 194.869343 160.923397 
L 194.904075 160.923397 
L 194.998779 160.005554 
L 195.067334 160.005554 
L 195.164429 159.546632 
L 195.271394 159.546632 
L 195.271394 159.431902 
L 195.539813 159.431902 
L 195.644506 158.85825 
L 195.676142 158.85825 
L 195.776391 158.284599 
L 195.819292 158.284599 
L 195.91935 157.940408 
L 195.951586 157.940408 
L 196.062079 157.022565 
L 196.069534 157.022565 
L 196.178051 156.219453 
L 196.198564 156.219453 
L 196.297242 155.53107 
L 196.311337 155.53107 
L 196.408772 154.957419 
L 196.428559 154.957419 
L 196.520804 154.039576 
L 196.547416 154.039576 
L 196.648652 152.777542 
L 196.701447 152.777542 
L 196.808942 151.744969 
L 196.825604 151.744969 
L 196.934702 150.482935 
L 196.970131 150.482935 
L 197.073642 148.876711 
L 197.087709 148.876711 
L 197.198097 146.696834 
L 197.2045 146.696834 
L 197.308947 145.090609 
L 197.318201 145.090609 
L 197.411622 143.254924 
L 197.435761 143.254924 
L 197.541548 140.386665 
L 197.559378 140.386665 
L 197.669238 136.944755 
L 197.670796 136.944755 
L 197.781507 132.585002 
L 197.786011 132.585002 
L 197.895995 129.257822 
L 197.898232 129.257822 
L 198.00529 127.307406 
L 198.011959 127.307406 
L 198.113904 125.47172 
L 198.124397 125.47172 
L 198.232823 124.783338 
L 198.241599 124.783338 
L 198.311654 124.094956 
L 198.357474 124.094956 
L 198.44442 123.406574 
L 338.688 123.406574 
L 338.688 123.406574 
" style="fill:none;stroke:#ff00ff;stroke-linecap:square;stroke-width:1.5;"/>
   </g>
   <g id="line2d_41">
    <defs>
     <path d="M -0 8.485281 
L 5.091169 0 
L 0 -8.485281 
L -5.091169 -0 
z
" id="m0eeae14ef9" style="stroke:#ff00ff;stroke-linejoin:miter;stroke-width:1.5;"/>
    </defs>
    <g>
     <use style="fill-opacity:0;stroke:#ff00ff;stroke-linejoin:miter;stroke-width:1.5;" x="125.120043" xlink:href="#m0eeae14ef9" y="221.845209"/>
     <use style="fill-opacity:0;stroke:#ff00ff;stroke-linejoin:miter;stroke-width:1.5;" x="191.110082" xlink:href="#m0eeae14ef9" y="170.216554"/>
     <use style="fill-opacity:0;stroke:#ff00ff;stroke-linejoin:miter;stroke-width:1.5;" x="198.44442" xlink:href="#m0eeae14ef9" y="123.406574"/>
     <use style="fill-opacity:0;stroke:#ff00ff;stroke-linejoin:miter;stroke-width:1.5;" x="198.44442" xlink:href="#m0eeae14ef9" y="123.406574"/>
     <use style="fill-opacity:0;stroke:#ff00ff;stroke-linejoin:miter;stroke-width:1.5;" x="338.688" xlink:href="#m0eeae14ef9" y="123.406574"/>
    </g>
   </g>
   <g id="line2d_42">
    <path style="fill:none;stroke:#ff00ff;stroke-linecap:square;stroke-width:1.5;"/>
    <g/>
   </g>
   <g id="line2d_43">
    <path clip-path="url(#p50b8c38df8)" d="M 242.397702 123.406574 
" style="fill:none;stroke:#ff00ff;stroke-linecap:square;stroke-width:1.5;"/>
    <defs>
     <path d="M -12 12 
L 12 -12 
M -12 -12 
L 12 12 
" id="m2a7931def9" style="stroke:#ff00ff;"/>
    </defs>
    <g clip-path="url(#p50b8c38df8)">
     <use style="fill:#ff00ff;stroke:#ff00ff;" x="242.397702" xlink:href="#m2a7931def9" y="123.406574"/>
    </g>
   </g>
   <g id="line2d_44">
    <path d="M 338.688 123.406574 
L 369.60768 293.092752 
" style="fill:none;stroke:#ff00ff;stroke-linecap:square;stroke-width:1.5;"/>
    <g>
     <use style="fill-opacity:0;stroke:#ff00ff;stroke-linejoin:miter;stroke-width:1.5;" x="338.688" xlink:href="#m0eeae14ef9" y="123.406574"/>
     <use style="fill-opacity:0;stroke:#ff00ff;stroke-linejoin:miter;stroke-width:1.5;" x="369.60768" xlink:href="#m0eeae14ef9" y="293.092752"/>
    </g>
   </g>
   <g id="line2d_45">
    <path d="M 338.688 123.406574 
L 369.60768 152.662812 
" style="fill:none;stroke:#000080;stroke-linecap:square;stroke-width:1.5;"/>
    <g>
     <use style="fill-opacity:0;stroke:#000080;stroke-width:1.5;" x="338.688" xlink:href="#m610ff021d7" y="123.406574"/>
     <use style="fill-opacity:0;stroke:#000080;stroke-width:1.5;" x="369.60768" xlink:href="#m610ff021d7" y="152.662812"/>
    </g>
   </g>
   <g id="line2d_46">
    <path d="M 338.688 298.944 
L 338.688 6.381624 
" style="fill:none;stroke:#000000;stroke-linecap:square;stroke-width:1.5;"/>
   </g>
   <g id="patch_3">
    <path d="M 57.6 298.944 
L 57.6 3.456 
" style="fill:none;stroke:#000000;stroke-linecap:square;stroke-linejoin:miter;stroke-width:0.8;"/>
   </g>
   <g id="patch_4">
    <path d="M 338.688 298.944 
L 338.688 3.456 
" style="fill:none;stroke:#000000;stroke-linecap:square;stroke-linejoin:miter;stroke-width:0.8;"/>
   </g>
   <g id="patch_5">
    <path d="M 57.6 298.944 
L 338.688 298.944 
" style="fill:none;stroke:#000000;stroke-linecap:square;stroke-linejoin:miter;stroke-width:0.8;"/>
   </g>
   <g id="patch_6">
    <path d="M 57.6 3.456 
L 338.688 3.456 
" style="fill:none;stroke:#000000;stroke-linecap:square;stroke-linejoin:miter;stroke-width:0.8;"/>
   </g>
   <g id="text_13">
    <!-- maes mid -->
    <g transform="translate(375.22944 297.78369)scale(0.17 -0.17)">
     <use xlink:href="#DejaVuSans-109"/>
     <use x="97.412109" xlink:href="#DejaVuSans-97"/>
     <use x="158.691406" xlink:href="#DejaVuSans-101"/>
     <use x="220.214844" xlink:href="#DejaVuSans-115"/>
     <use x="272.314453" xlink:href="#DejaVuSans-32"/>
     <use x="304.101562" xlink:href="#DejaVuSans-109"/>
     <use x="401.513672" xlink:href="#DejaVuSans-105"/>
     <use x="429.296875" xlink:href="#DejaVuSans-100"/>
    </g>
   </g>
   <g id="text_14">
    <!-- maes -->
    <g transform="translate(375.22944 157.353749)scale(0.17 -0.17)">
     <use xlink:href="#DejaVuSans-109"/>
     <use x="97.412109" xlink:href="#DejaVuSans-97"/>
     <use x="158.691406" xlink:href="#DejaVuSans-101"/>
     <use x="220.214844" xlink:href="#DejaVuSans-115"/>
    </g>
   </g>
   <g id="text_15">
    <!-- best 2009 -->
    <g transform="translate(375.22944 16.923809)scale(0.17 -0.17)">
     <defs>
      <path d="M 48.6875 27.296875 
Q 48.6875 37.203125 44.609375 42.84375 
Q 40.53125 48.484375 33.40625 48.484375 
Q 26.265625 48.484375 22.1875 42.84375 
Q 18.109375 37.203125 18.109375 27.296875 
Q 18.109375 17.390625 22.1875 11.75 
Q 26.265625 6.109375 33.40625 6.109375 
Q 40.53125 6.109375 44.609375 11.75 
Q 48.6875 17.390625 48.6875 27.296875 
z
M 18.109375 46.390625 
Q 20.953125 51.265625 25.265625 53.625 
Q 29.59375 56 35.59375 56 
Q 45.5625 56 51.78125 48.09375 
Q 58.015625 40.1875 58.015625 27.296875 
Q 58.015625 14.40625 51.78125 6.484375 
Q 45.5625 -1.421875 35.59375 -1.421875 
Q 29.59375 -1.421875 25.265625 0.953125 
Q 20.953125 3.328125 18.109375 8.203125 
L 18.109375 0 
L 9.078125 0 
L 9.078125 75.984375 
L 18.109375 75.984375 
z
" id="DejaVuSans-98"/>
      <path d="M 10.984375 1.515625 
L 10.984375 10.5 
Q 14.703125 8.734375 18.5 7.8125 
Q 22.3125 6.890625 25.984375 6.890625 
Q 35.75 6.890625 40.890625 13.453125 
Q 46.046875 20.015625 46.78125 33.40625 
Q 43.953125 29.203125 39.59375 26.953125 
Q 35.25 24.703125 29.984375 24.703125 
Q 19.046875 24.703125 12.671875 31.3125 
Q 6.296875 37.9375 6.296875 49.421875 
Q 6.296875 60.640625 12.9375 67.421875 
Q 19.578125 74.21875 30.609375 74.21875 
Q 43.265625 74.21875 49.921875 64.515625 
Q 56.59375 54.828125 56.59375 36.375 
Q 56.59375 19.140625 48.40625 8.859375 
Q 40.234375 -1.421875 26.421875 -1.421875 
Q 22.703125 -1.421875 18.890625 -0.6875 
Q 15.09375 0.046875 10.984375 1.515625 
z
M 30.609375 32.421875 
Q 37.25 32.421875 41.125 36.953125 
Q 45.015625 41.5 45.015625 49.421875 
Q 45.015625 57.28125 41.125 61.84375 
Q 37.25 66.40625 30.609375 66.40625 
Q 23.96875 66.40625 20.09375 61.84375 
Q 16.21875 57.28125 16.21875 49.421875 
Q 16.21875 41.5 20.09375 36.953125 
Q 23.96875 32.421875 30.609375 32.421875 
z
" id="DejaVuSans-57"/>
     </defs>
     <use xlink:href="#DejaVuSans-98"/>
     <use x="63.476562" xlink:href="#DejaVuSans-101"/>
     <use x="125" xlink:href="#DejaVuSans-115"/>
     <use x="177.099609" xlink:href="#DejaVuSans-116"/>
     <use x="216.308594" xlink:href="#DejaVuSans-32"/>
     <use x="248.095703" xlink:href="#DejaVuSans-50"/>
     <use x="311.71875" xlink:href="#DejaVuSans-48"/>
     <use x="375.341797" xlink:href="#DejaVuSans-48"/>
     <use x="438.964844" xlink:href="#DejaVuSans-57"/>
    </g>
   </g>
   <g id="text_16">
    <!-- bbob f1-f5, 40-D -->
    <g transform="translate(60.41088 14.161286)scale(0.102 -0.102)">
     <defs>
      <path d="M 10.796875 72.90625 
L 49.515625 72.90625 
L 49.515625 64.59375 
L 19.828125 64.59375 
L 19.828125 46.734375 
Q 21.96875 47.46875 24.109375 47.828125 
Q 26.265625 48.1875 28.421875 48.1875 
Q 40.625 48.1875 47.75 41.5 
Q 54.890625 34.8125 54.890625 23.390625 
Q 54.890625 11.625 47.5625 5.09375 
Q 40.234375 -1.421875 26.90625 -1.421875 
Q 22.3125 -1.421875 17.546875 -0.640625 
Q 12.796875 0.140625 7.71875 1.703125 
L 7.71875 11.625 
Q 12.109375 9.234375 16.796875 8.0625 
Q 21.484375 6.890625 26.703125 6.890625 
Q 35.15625 6.890625 40.078125 11.328125 
Q 45.015625 15.765625 45.015625 23.390625 
Q 45.015625 31 40.078125 35.4375 
Q 35.15625 39.890625 26.703125 39.890625 
Q 22.75 39.890625 18.8125 39.015625 
Q 14.890625 38.140625 10.796875 36.28125 
z
" id="DejaVuSans-53"/>
      <path d="M 19.671875 64.796875 
L 19.671875 8.109375 
L 31.59375 8.109375 
Q 46.6875 8.109375 53.6875 14.9375 
Q 60.6875 21.78125 60.6875 36.53125 
Q 60.6875 51.171875 53.6875 57.984375 
Q 46.6875 64.796875 31.59375 64.796875 
z
M 9.8125 72.90625 
L 30.078125 72.90625 
Q 51.265625 72.90625 61.171875 64.09375 
Q 71.09375 55.28125 71.09375 36.53125 
Q 71.09375 17.671875 61.125 8.828125 
Q 51.171875 0 30.078125 0 
L 9.8125 0 
z
" id="DejaVuSans-68"/>
     </defs>
     <use xlink:href="#DejaVuSans-98"/>
     <use x="63.476562" xlink:href="#DejaVuSans-98"/>
     <use x="126.953125" xlink:href="#DejaVuSans-111"/>
     <use x="188.134766" xlink:href="#DejaVuSans-98"/>
     <use x="251.611328" xlink:href="#DejaVuSans-32"/>
     <use x="283.398438" xlink:href="#DejaVuSans-102"/>
     <use x="318.603516" xlink:href="#DejaVuSans-49"/>
     <use x="382.226562" xlink:href="#DejaVuSans-45"/>
     <use x="418.310547" xlink:href="#DejaVuSans-102"/>
     <use x="453.515625" xlink:href="#DejaVuSans-53"/>
     <use x="517.138672" xlink:href="#DejaVuSans-44"/>
     <use x="548.925781" xlink:href="#DejaVuSans-32"/>
     <use x="580.712891" xlink:href="#DejaVuSans-52"/>
     <use x="644.335938" xlink:href="#DejaVuSans-48"/>
     <use x="707.958984" xlink:href="#DejaVuSans-45"/>
     <use x="744.042969" xlink:href="#DejaVuSans-68"/>
    </g>
    <!-- 51 targets: 100..1e-08 -->
    <g transform="translate(60.41088 25.583055)scale(0.102 -0.102)">
     <defs>
      <path d="M 11.71875 12.40625 
L 22.015625 12.40625 
L 22.015625 0 
L 11.71875 0 
z
M 11.71875 51.703125 
L 22.015625 51.703125 
L 22.015625 39.3125 
L 11.71875 39.3125 
z
" id="DejaVuSans-58"/>
     </defs>
     <use xlink:href="#DejaVuSans-53"/>
     <use x="63.623047" xlink:href="#DejaVuSans-49"/>
     <use x="127.246094" xlink:href="#DejaVuSans-32"/>
     <use x="159.033203" xlink:href="#DejaVuSans-116"/>
     <use x="198.242188" xlink:href="#DejaVuSans-97"/>
     <use x="259.521484" xlink:href="#DejaVuSans-114"/>
     <use x="298.884766" xlink:href="#DejaVuSans-103"/>
     <use x="362.361328" xlink:href="#DejaVuSans-101"/>
     <use x="423.884766" xlink:href="#DejaVuSans-116"/>
     <use x="463.09375" xlink:href="#DejaVuSans-115"/>
     <use x="515.193359" xlink:href="#DejaVuSans-58"/>
     <use x="548.884766" xlink:href="#DejaVuSans-32"/>
     <use x="580.671875" xlink:href="#DejaVuSans-49"/>
     <use x="644.294922" xlink:href="#DejaVuSans-48"/>
     <use x="707.917969" xlink:href="#DejaVuSans-48"/>
     <use x="771.541016" xlink:href="#DejaVuSans-46"/>
     <use x="803.328125" xlink:href="#DejaVuSans-46"/>
     <use x="835.115234" xlink:href="#DejaVuSans-49"/>
     <use x="898.738281" xlink:href="#DejaVuSans-101"/>
     <use x="960.261719" xlink:href="#DejaVuSans-45"/>
     <use x="996.345703" xlink:href="#DejaVuSans-48"/>
     <use x="1059.96875" xlink:href="#DejaVuSans-56"/>
    </g>
    <!-- 15 instances -->
    <g transform="translate(60.41088 37.004824)scale(0.102 -0.102)">
     <use xlink:href="#DejaVuSans-49"/>
     <use x="63.623047" xlink:href="#DejaVuSans-53"/>
     <use x="127.246094" xlink:href="#DejaVuSans-32"/>
     <use x="159.033203" xlink:href="#DejaVuSans-105"/>
     <use x="186.816406" xlink:href="#DejaVuSans-110"/>
     <use x="250.195312" xlink:href="#DejaVuSans-115"/>
     <use x="302.294922" xlink:href="#DejaVuSans-116"/>
     <use x="341.503906" xlink:href="#DejaVuSans-97"/>
     <use x="402.783203" xlink:href="#DejaVuSans-110"/>
     <use x="466.162109" xlink:href="#DejaVuSans-99"/>
     <use x="521.142578" xlink:href="#DejaVuSans-101"/>
     <use x="582.666016" xlink:href="#DejaVuSans-115"/>
    </g>
   </g>
   <g id="text_17">
    <!-- v2.4 -->
    <g style="fill:#808080;" transform="translate(187.233062 293.909432)scale(0.1 -0.1)">
     <use xlink:href="#DejaVuSans-118"/>
     <use x="59.179688" xlink:href="#DejaVuSans-50"/>
     <use x="122.802734" xlink:href="#DejaVuSans-46"/>
     <use x="154.589844" xlink:href="#DejaVuSans-52"/>
    </g>
   </g>
  </g>
 </g>
 <defs>
  <clipPath id="p50b8c38df8">
   <rect height="295.488" width="281.088" x="57.6" y="3.456"/>
  </clipPath>
 </defs>
</svg>
