<?xml version="1.0" encoding="utf-8" standalone="no"?>
<!DOCTYPE svg PUBLIC "-//W3C//DTD SVG 1.1//EN"
  "http://www.w3.org/Graphics/SVG/1.1/DTD/svg11.dtd">
<!-- Created with matplotlib (https://matplotlib.org/) -->
<svg height="345.6pt" version="1.1" viewBox="0 0 460.8 345.6" width="460.8pt" xmlns="http://www.w3.org/2000/svg" xmlns:xlink="http://www.w3.org/1999/xlink">
 <metadata>
  <rdf:RDF xmlns:cc="http://creativecommons.org/ns#" xmlns:dc="http://purl.org/dc/elements/1.1/" xmlns:rdf="http://www.w3.org/1999/02/22-rdf-syntax-ns#">
   <cc:Work>
    <dc:type rdf:resource="http://purl.org/dc/dcmitype/StillImage"/>
    <dc:date>2021-06-17T01:40:14.199302</dc:date>
    <dc:format>image/svg+xml</dc:format>
    <dc:creator>
     <cc:Agent>
      <dc:title>Matplotlib v3.3.4, https://matplotlib.org/</dc:title>
     </cc:Agent>
    </dc:creator>
   </cc:Work>
  </rdf:RDF>
 </metadata>
 <defs>
  <style type="text/css">*{stroke-linecap:butt;stroke-linejoin:round;}</style>
 </defs>
 <g id="figure_1">
  <g id="patch_1">
   <path d="M 0 345.6 
L 460.8 345.6 
L 460.8 0 
L 0 0 
z
" style="fill:#ffffff;"/>
  </g>
  <g id="axes_1">
   <g id="patch_2">
    <path d="M 57.6 298.944 
L 338.688 298.944 
L 338.688 3.456 
L 57.6 3.456 
z
" style="fill:#ffffff;"/>
   </g>
   <g id="line2d_1">
    <path d="M 5.356583 298.944 
L 5.356583 290.912876 
L 24.515591 290.912876 
L 24.515591 289.765573 
L 64.079801 289.765573 
L 64.079801 288.618269 
L 67.850577 288.618269 
L 67.850577 287.470966 
L 71.74204 287.470966 
L 71.74204 286.323662 
L 78.941764 286.323662 
L 78.941764 285.176359 
L 79.694655 285.176359 
L 79.694655 284.029055 
L 80.416384 284.029055 
L 80.416384 282.881752 
L 80.650472 282.881752 
L 80.650472 281.734448 
L 81.109427 281.734448 
L 81.109427 280.587145 
L 81.334453 280.587145 
L 81.334453 279.439842 
L 81.775977 279.439842 
L 81.775977 278.292538 
L 82.206598 278.292538 
L 82.206598 277.145235 
L 83.037197 277.145235 
L 83.037197 275.997931 
L 84.401859 275.997931 
L 84.401859 274.850628 
L 85.840967 274.850628 
L 85.840967 273.703324 
L 88.553893 273.703324 
L 88.553893 272.556021 
L 93.310291 272.556021 
L 93.310291 271.408718 
L 100.268435 271.408718 
L 100.268435 270.261414 
L 101.646892 270.261414 
L 101.646892 269.114111 
L 105.171792 269.114111 
L 105.171792 267.966807 
L 112.128456 267.966807 
L 112.128456 266.819504 
L 112.544146 266.819504 
L 112.544146 265.6722 
L 114.882171 265.6722 
L 114.882171 264.524897 
L 115.742365 264.524897 
L 115.742365 263.377593 
L 124.330801 263.377593 
L 124.330801 262.23029 
L 127.389626 262.23029 
L 127.389626 261.082987 
L 129.276384 261.082987 
L 129.276384 259.935683 
L 134.171324 259.935683 
L 134.171324 258.78838 
L 138.110264 258.78838 
L 138.110264 257.641076 
L 142.051655 257.641076 
L 142.051655 256.493773 
L 143.691276 256.493773 
L 143.772462 254.199166 
L 150.129152 254.199166 
L 150.129152 253.051863 
L 155.678822 253.051863 
L 155.678822 251.904559 
L 155.804285 251.904559 
L 155.804285 250.757256 
L 158.053098 250.757256 
L 158.053098 249.609952 
L 158.575409 249.609952 
L 158.575409 248.462649 
L 158.805835 248.462649 
L 158.805835 247.315345 
L 165.776583 247.315345 
L 165.776583 246.168042 
L 171.738674 246.168042 
L 171.836163 243.873435 
L 171.867295 243.873435 
L 171.973965 240.431525 
L 172.008554 240.431525 
L 172.083673 236.989614 
L 172.12908 236.989614 
L 172.23782 234.695008 
L 172.275537 234.695008 
L 172.316811 232.400401 
L 172.485739 232.400401 
L 172.556443 230.105794 
L 172.629243 230.105794 
L 172.629243 228.95849 
L 172.791647 228.95849 
L 172.897518 225.51658 
L 173.017898 225.51658 
L 173.017898 224.369277 
L 173.149017 224.369277 
L 173.149017 223.221973 
L 173.260789 223.221973 
L 173.311255 220.927366 
L 173.524119 220.927366 
L 173.524119 219.780063 
L 173.661605 219.780063 
L 173.696368 217.485456 
L 174.144277 217.485456 
L 174.144277 216.338153 
L 174.326753 216.338153 
L 174.326753 215.190849 
L 174.447351 215.190849 
L 174.447351 214.043546 
L 174.706173 214.043546 
L 174.706173 212.896242 
L 174.890216 212.896242 
L 174.890216 211.748939 
L 175.719647 211.748939 
L 175.826061 206.012422 
L 175.842908 206.012422 
L 175.924929 200.275904 
L 175.966287 200.275904 
L 175.966287 199.128601 
L 180.43602 199.128601 
L 180.43602 197.981298 
L 180.623777 197.981298 
L 180.718401 194.539387 
L 180.872006 194.539387 
L 180.937214 192.24478 
L 181.033099 192.24478 
L 181.094776 189.950174 
L 181.196361 189.950174 
L 181.196361 188.80287 
L 181.363884 188.80287 
L 181.442376 185.36096 
L 181.821892 185.36096 
L 181.921437 181.91905 
L 182.216021 181.91905 
L 182.27914 179.624443 
L 182.353627 179.624443 
L 182.353627 178.477139 
L 182.516524 178.477139 
L 182.516524 177.329836 
L 182.736049 177.329836 
L 182.772702 175.035229 
L 182.856382 175.035229 
L 182.92317 172.740622 
L 183.036323 172.740622 
L 183.036323 171.593319 
L 183.20079 171.593319 
L 183.20079 170.446015 
L 186.059443 170.446015 
L 186.059443 169.298712 
L 188.853028 169.298712 
L 188.941587 165.856801 
L 189.095607 165.856801 
L 189.095607 164.709498 
L 192.648397 164.709498 
L 192.648397 163.562195 
L 192.833705 163.562195 
L 192.833705 162.414891 
L 196.305363 162.414891 
L 196.305363 161.267588 
L 199.268233 161.267588 
L 199.268233 160.120284 
L 202.101748 160.120284 
L 202.101748 158.972981 
L 203.361568 158.972981 
L 203.393635 156.678374 
L 205.433079 156.678374 
L 205.433079 155.53107 
L 211.314419 155.53107 
L 211.384894 145.20534 
L 214.985702 145.20534 
L 214.985702 144.058036 
L 215.365534 144.058036 
L 215.365534 142.910733 
L 222.216668 142.910733 
L 222.216668 141.763429 
L 224.454421 141.763429 
L 224.454421 140.616126 
L 228.737521 140.616126 
L 228.737521 139.468822 
L 231.904653 139.468822 
L 231.904653 138.321519 
L 232.727212 138.321519 
L 232.727212 137.174215 
L 232.844212 137.174215 
L 232.844212 136.026912 
L 233.67814 136.026912 
L 233.67814 134.879609 
L 233.807583 134.879609 
L 233.807583 133.732305 
L 233.96901 133.732305 
L 233.96901 132.585002 
L 234.130744 132.585002 
L 234.130744 131.437698 
L 234.263904 131.437698 
L 234.263904 130.290395 
L 234.445549 130.290395 
L 234.546954 127.995788 
L 234.669823 127.995788 
L 234.669823 126.848485 
L 234.787685 126.848485 
L 234.787685 125.701181 
L 236.858463 125.701181 
L 236.858463 124.553878 
L 242.506694 124.553878 
L 242.581251 122.259271 
L 242.636192 122.259271 
L 242.694325 119.964664 
L 242.749232 119.964664 
L 242.806266 117.670057 
L 242.864897 117.670057 
L 242.927434 115.37545 
L 242.983573 115.37545 
L 243.092485 111.93354 
L 243.150518 111.93354 
L 243.256548 108.49163 
L 243.307791 108.49163 
L 243.403224 105.049719 
L 243.469194 105.049719 
L 243.469194 103.902416 
L 247.73941 103.902416 
L 247.73941 102.755112 
L 251.356454 102.755112 
L 251.356454 101.607809 
L 251.695599 101.607809 
L 251.695599 100.460506 
L 259.451274 100.460506 
L 259.451274 99.313202 
L 262.755012 99.313202 
L 262.755012 98.165899 
L 266.01376 98.165899 
L 266.119954 95.871292 
L 267.938773 95.871292 
L 268.001025 93.576685 
L 275.980498 93.576685 
L 276.077603 87.840168 
L 276.094391 87.840168 
L 276.199851 78.66174 
L 276.218488 78.66174 
L 276.317702 69.483313 
L 276.332567 69.483313 
L 276.431242 60.304885 
L 276.444246 60.304885 
L 276.516938 53.421065 
L 281.381166 53.421065 
L 281.381166 52.273761 
L 288.057808 52.273761 
L 288.057808 51.126458 
L 296.024733 51.126458 
L 296.024733 49.979154 
L 306.043877 49.979154 
L 306.043877 48.831851 
L 315.173834 48.831851 
L 315.21585 6.381624 
L 338.688 6.381624 
L 338.688 6.381624 
" style="fill:none;stroke:#f5deb3;stroke-linecap:square;stroke-width:4;"/>
   </g>
   <g id="line2d_2">
    <defs>
     <path d="M -0 7.778175 
L 7.778175 0 
L 0 -7.778175 
L -7.778175 -0 
z
" id="m4468781779" style="stroke:#f5deb3;stroke-linejoin:miter;stroke-width:1.5;"/>
    </defs>
    <g>
     <use style="fill:#f5deb3;stroke:#f5deb3;stroke-linejoin:miter;stroke-width:1.5;" x="93.310291" xlink:href="#m4468781779" y="272.556021"/>
     <use style="fill:#f5deb3;stroke:#f5deb3;stroke-linejoin:miter;stroke-width:1.5;" x="171.909545" xlink:href="#m4468781779" y="242.726132"/>
     <use style="fill:#f5deb3;stroke:#f5deb3;stroke-linejoin:miter;stroke-width:1.5;" x="222.216668" xlink:href="#m4468781779" y="141.763429"/>
     <use style="fill:#f5deb3;stroke:#f5deb3;stroke-linejoin:miter;stroke-width:1.5;" x="296.024733" xlink:href="#m4468781779" y="49.979154"/>
     <use style="fill:#f5deb3;stroke:#f5deb3;stroke-linejoin:miter;stroke-width:1.5;" x="315.21585" xlink:href="#m4468781779" y="6.381624"/>
     <use style="fill:#f5deb3;stroke:#f5deb3;stroke-linejoin:miter;stroke-width:1.5;" x="338.688" xlink:href="#m4468781779" y="6.381624"/>
    </g>
   </g>
   <g id="line2d_3">
    <path style="fill:none;stroke:#f5deb3;stroke-linecap:square;stroke-width:4;"/>
    <g/>
   </g>
   <g id="line2d_4">
    <path d="M 338.688 6.381624 
L 369.60768 12.232871 
" style="fill:none;stroke:#f5deb3;stroke-linecap:square;stroke-width:4;"/>
    <g>
     <use style="fill:#f5deb3;stroke:#f5deb3;stroke-linejoin:miter;stroke-width:1.5;" x="338.688" xlink:href="#m4468781779" y="6.381624"/>
     <use style="fill:#f5deb3;stroke:#f5deb3;stroke-linejoin:miter;stroke-width:1.5;" x="369.60768" xlink:href="#m4468781779" y="12.232871"/>
    </g>
   </g>
   <g id="matplotlib.axis_1">
    <g id="xtick_1">
     <g id="line2d_5">
      <path clip-path="url(#pdb0ffa9b3e)" d="M 57.6 298.944 
L 57.6 3.456 
" style="fill:none;stroke:#b0b0b0;stroke-linecap:square;stroke-width:0.8;"/>
     </g>
     <g id="line2d_6">
      <defs>
       <path d="M 0 0 
L 0 3.5 
" id="md27babf71f" style="stroke:#000000;stroke-width:0.8;"/>
      </defs>
      <g>
       <use style="stroke:#000000;stroke-width:0.8;" x="57.6" xlink:href="#md27babf71f" y="298.944"/>
      </g>
     </g>
     <g id="text_1">
      <!-- 0 -->
      <g transform="translate(51.2375 321.140875)scale(0.2 -0.2)">
       <defs>
        <path d="M 31.78125 66.40625 
Q 24.171875 66.40625 20.328125 58.90625 
Q 16.5 51.421875 16.5 36.375 
Q 16.5 21.390625 20.328125 13.890625 
Q 24.171875 6.390625 31.78125 6.390625 
Q 39.453125 6.390625 43.28125 13.890625 
Q 47.125 21.390625 47.125 36.375 
Q 47.125 51.421875 43.28125 58.90625 
Q 39.453125 66.40625 31.78125 66.40625 
z
M 31.78125 74.21875 
Q 44.046875 74.21875 50.515625 64.515625 
Q 56.984375 54.828125 56.984375 36.375 
Q 56.984375 17.96875 50.515625 8.265625 
Q 44.046875 -1.421875 31.78125 -1.421875 
Q 19.53125 -1.421875 13.0625 8.265625 
Q 6.59375 17.96875 6.59375 36.375 
Q 6.59375 54.828125 13.0625 64.515625 
Q 19.53125 74.21875 31.78125 74.21875 
z
" id="DejaVuSans-48"/>
       </defs>
       <use xlink:href="#DejaVuSans-48"/>
      </g>
     </g>
    </g>
    <g id="xtick_2">
     <g id="line2d_7">
      <path clip-path="url(#pdb0ffa9b3e)" d="M 137.910857 298.944 
L 137.910857 3.456 
" style="fill:none;stroke:#b0b0b0;stroke-linecap:square;stroke-width:0.8;"/>
     </g>
     <g id="line2d_8">
      <g>
       <use style="stroke:#000000;stroke-width:0.8;" x="137.910857" xlink:href="#md27babf71f" y="298.944"/>
      </g>
     </g>
     <g id="text_2">
      <!-- 2 -->
      <g transform="translate(131.548357 321.140875)scale(0.2 -0.2)">
       <defs>
        <path d="M 19.1875 8.296875 
L 53.609375 8.296875 
L 53.609375 0 
L 7.328125 0 
L 7.328125 8.296875 
Q 12.9375 14.109375 22.625 23.890625 
Q 32.328125 33.6875 34.8125 36.53125 
Q 39.546875 41.84375 41.421875 45.53125 
Q 43.3125 49.21875 43.3125 52.78125 
Q 43.3125 58.59375 39.234375 62.25 
Q 35.15625 65.921875 28.609375 65.921875 
Q 23.96875 65.921875 18.8125 64.3125 
Q 13.671875 62.703125 7.8125 59.421875 
L 7.8125 69.390625 
Q 13.765625 71.78125 18.9375 73 
Q 24.125 74.21875 28.421875 74.21875 
Q 39.75 74.21875 46.484375 68.546875 
Q 53.21875 62.890625 53.21875 53.421875 
Q 53.21875 48.921875 51.53125 44.890625 
Q 49.859375 40.875 45.40625 35.40625 
Q 44.1875 33.984375 37.640625 27.21875 
Q 31.109375 20.453125 19.1875 8.296875 
z
" id="DejaVuSans-50"/>
       </defs>
       <use xlink:href="#DejaVuSans-50"/>
      </g>
     </g>
    </g>
    <g id="xtick_3">
     <g id="line2d_9">
      <path clip-path="url(#pdb0ffa9b3e)" d="M 218.221714 298.944 
L 218.221714 3.456 
" style="fill:none;stroke:#b0b0b0;stroke-linecap:square;stroke-width:0.8;"/>
     </g>
     <g id="line2d_10">
      <g>
       <use style="stroke:#000000;stroke-width:0.8;" x="218.221714" xlink:href="#md27babf71f" y="298.944"/>
      </g>
     </g>
     <g id="text_3">
      <!-- 4 -->
      <g transform="translate(211.859214 321.140875)scale(0.2 -0.2)">
       <defs>
        <path d="M 37.796875 64.3125 
L 12.890625 25.390625 
L 37.796875 25.390625 
z
M 35.203125 72.90625 
L 47.609375 72.90625 
L 47.609375 25.390625 
L 58.015625 25.390625 
L 58.015625 17.1875 
L 47.609375 17.1875 
L 47.609375 0 
L 37.796875 0 
L 37.796875 17.1875 
L 4.890625 17.1875 
L 4.890625 26.703125 
z
" id="DejaVuSans-52"/>
       </defs>
       <use xlink:href="#DejaVuSans-52"/>
      </g>
     </g>
    </g>
    <g id="xtick_4">
     <g id="line2d_11">
      <path clip-path="url(#pdb0ffa9b3e)" d="M 298.532571 298.944 
L 298.532571 3.456 
" style="fill:none;stroke:#b0b0b0;stroke-linecap:square;stroke-width:0.8;"/>
     </g>
     <g id="line2d_12">
      <g>
       <use style="stroke:#000000;stroke-width:0.8;" x="298.532571" xlink:href="#md27babf71f" y="298.944"/>
      </g>
     </g>
     <g id="text_4">
      <!-- 6 -->
      <g transform="translate(292.170071 321.140875)scale(0.2 -0.2)">
       <defs>
        <path d="M 33.015625 40.375 
Q 26.375 40.375 22.484375 35.828125 
Q 18.609375 31.296875 18.609375 23.390625 
Q 18.609375 15.53125 22.484375 10.953125 
Q 26.375 6.390625 33.015625 6.390625 
Q 39.65625 6.390625 43.53125 10.953125 
Q 47.40625 15.53125 47.40625 23.390625 
Q 47.40625 31.296875 43.53125 35.828125 
Q 39.65625 40.375 33.015625 40.375 
z
M 52.59375 71.296875 
L 52.59375 62.3125 
Q 48.875 64.0625 45.09375 64.984375 
Q 41.3125 65.921875 37.59375 65.921875 
Q 27.828125 65.921875 22.671875 59.328125 
Q 17.53125 52.734375 16.796875 39.40625 
Q 19.671875 43.65625 24.015625 45.921875 
Q 28.375 48.1875 33.59375 48.1875 
Q 44.578125 48.1875 50.953125 41.515625 
Q 57.328125 34.859375 57.328125 23.390625 
Q 57.328125 12.15625 50.6875 5.359375 
Q 44.046875 -1.421875 33.015625 -1.421875 
Q 20.359375 -1.421875 13.671875 8.265625 
Q 6.984375 17.96875 6.984375 36.375 
Q 6.984375 53.65625 15.1875 63.9375 
Q 23.390625 74.21875 37.203125 74.21875 
Q 40.921875 74.21875 44.703125 73.484375 
Q 48.484375 72.75 52.59375 71.296875 
z
" id="DejaVuSans-54"/>
       </defs>
       <use xlink:href="#DejaVuSans-54"/>
      </g>
     </g>
    </g>
    <g id="xtick_5">
     <g id="line2d_13">
      <path clip-path="url(#pdb0ffa9b3e)" d="M 97.755429 298.944 
L 97.755429 3.456 
" style="fill:none;stroke:#b0b0b0;stroke-linecap:square;stroke-width:0.8;"/>
     </g>
     <g id="line2d_14">
      <defs>
       <path d="M 0 0 
L 0 2 
" id="m25d21d6963" style="stroke:#000000;stroke-width:0.6;"/>
      </defs>
      <g>
       <use style="stroke:#000000;stroke-width:0.6;" x="97.755429" xlink:href="#m25d21d6963" y="298.944"/>
      </g>
     </g>
    </g>
    <g id="xtick_6">
     <g id="line2d_15">
      <path clip-path="url(#pdb0ffa9b3e)" d="M 178.066286 298.944 
L 178.066286 3.456 
" style="fill:none;stroke:#b0b0b0;stroke-linecap:square;stroke-width:0.8;"/>
     </g>
     <g id="line2d_16">
      <g>
       <use style="stroke:#000000;stroke-width:0.6;" x="178.066286" xlink:href="#m25d21d6963" y="298.944"/>
      </g>
     </g>
    </g>
    <g id="xtick_7">
     <g id="line2d_17">
      <path clip-path="url(#pdb0ffa9b3e)" d="M 258.377143 298.944 
L 258.377143 3.456 
" style="fill:none;stroke:#b0b0b0;stroke-linecap:square;stroke-width:0.8;"/>
     </g>
     <g id="line2d_18">
      <g>
       <use style="stroke:#000000;stroke-width:0.6;" x="258.377143" xlink:href="#m25d21d6963" y="298.944"/>
      </g>
     </g>
    </g>
    <g id="xtick_8">
     <g id="line2d_19">
      <path clip-path="url(#pdb0ffa9b3e)" d="M 338.688 298.944 
L 338.688 3.456 
" style="fill:none;stroke:#b0b0b0;stroke-linecap:square;stroke-width:0.8;"/>
     </g>
     <g id="line2d_20">
      <g>
       <use style="stroke:#000000;stroke-width:0.6;" x="338.688" xlink:href="#m25d21d6963" y="298.944"/>
      </g>
     </g>
    </g>
    <g id="text_5">
     <!-- log10(# f-evals / dimension) -->
     <g transform="translate(77.764078 342.217594)scale(0.17 -0.17)">
      <defs>
       <path d="M 9.421875 75.984375 
L 18.40625 75.984375 
L 18.40625 0 
L 9.421875 0 
z
" id="DejaVuSans-108"/>
       <path d="M 30.609375 48.390625 
Q 23.390625 48.390625 19.1875 42.75 
Q 14.984375 37.109375 14.984375 27.296875 
Q 14.984375 17.484375 19.15625 11.84375 
Q 23.34375 6.203125 30.609375 6.203125 
Q 37.796875 6.203125 41.984375 11.859375 
Q 46.1875 17.53125 46.1875 27.296875 
Q 46.1875 37.015625 41.984375 42.703125 
Q 37.796875 48.390625 30.609375 48.390625 
z
M 30.609375 56 
Q 42.328125 56 49.015625 48.375 
Q 55.71875 40.765625 55.71875 27.296875 
Q 55.71875 13.875 49.015625 6.21875 
Q 42.328125 -1.421875 30.609375 -1.421875 
Q 18.84375 -1.421875 12.171875 6.21875 
Q 5.515625 13.875 5.515625 27.296875 
Q 5.515625 40.765625 12.171875 48.375 
Q 18.84375 56 30.609375 56 
z
" id="DejaVuSans-111"/>
       <path d="M 45.40625 27.984375 
Q 45.40625 37.75 41.375 43.109375 
Q 37.359375 48.484375 30.078125 48.484375 
Q 22.859375 48.484375 18.828125 43.109375 
Q 14.796875 37.75 14.796875 27.984375 
Q 14.796875 18.265625 18.828125 12.890625 
Q 22.859375 7.515625 30.078125 7.515625 
Q 37.359375 7.515625 41.375 12.890625 
Q 45.40625 18.265625 45.40625 27.984375 
z
M 54.390625 6.78125 
Q 54.390625 -7.171875 48.1875 -13.984375 
Q 42 -20.796875 29.203125 -20.796875 
Q 24.46875 -20.796875 20.265625 -20.09375 
Q 16.0625 -19.390625 12.109375 -17.921875 
L 12.109375 -9.1875 
Q 16.0625 -11.328125 19.921875 -12.34375 
Q 23.78125 -13.375 27.78125 -13.375 
Q 36.625 -13.375 41.015625 -8.765625 
Q 45.40625 -4.15625 45.40625 5.171875 
L 45.40625 9.625 
Q 42.625 4.78125 38.28125 2.390625 
Q 33.9375 0 27.875 0 
Q 17.828125 0 11.671875 7.65625 
Q 5.515625 15.328125 5.515625 27.984375 
Q 5.515625 40.671875 11.671875 48.328125 
Q 17.828125 56 27.875 56 
Q 33.9375 56 38.28125 53.609375 
Q 42.625 51.21875 45.40625 46.390625 
L 45.40625 54.6875 
L 54.390625 54.6875 
z
" id="DejaVuSans-103"/>
       <path d="M 12.40625 8.296875 
L 28.515625 8.296875 
L 28.515625 63.921875 
L 10.984375 60.40625 
L 10.984375 69.390625 
L 28.421875 72.90625 
L 38.28125 72.90625 
L 38.28125 8.296875 
L 54.390625 8.296875 
L 54.390625 0 
L 12.40625 0 
z
" id="DejaVuSans-49"/>
       <path d="M 31 75.875 
Q 24.46875 64.65625 21.28125 53.65625 
Q 18.109375 42.671875 18.109375 31.390625 
Q 18.109375 20.125 21.3125 9.0625 
Q 24.515625 -2 31 -13.1875 
L 23.1875 -13.1875 
Q 15.875 -1.703125 12.234375 9.375 
Q 8.59375 20.453125 8.59375 31.390625 
Q 8.59375 42.28125 12.203125 53.3125 
Q 15.828125 64.359375 23.1875 75.875 
z
" id="DejaVuSans-40"/>
       <path d="M 51.125 44 
L 36.921875 44 
L 32.8125 27.6875 
L 47.125 27.6875 
z
M 43.796875 71.78125 
L 38.71875 51.515625 
L 52.984375 51.515625 
L 58.109375 71.78125 
L 65.921875 71.78125 
L 60.890625 51.515625 
L 76.125 51.515625 
L 76.125 44 
L 58.984375 44 
L 54.984375 27.6875 
L 70.515625 27.6875 
L 70.515625 20.21875 
L 53.078125 20.21875 
L 48 0 
L 40.1875 0 
L 45.21875 20.21875 
L 30.90625 20.21875 
L 25.875 0 
L 18.015625 0 
L 23.09375 20.21875 
L 7.71875 20.21875 
L 7.71875 27.6875 
L 24.90625 27.6875 
L 29 44 
L 13.28125 44 
L 13.28125 51.515625 
L 30.90625 51.515625 
L 35.890625 71.78125 
z
" id="DejaVuSans-35"/>
       <path id="DejaVuSans-32"/>
       <path d="M 37.109375 75.984375 
L 37.109375 68.5 
L 28.515625 68.5 
Q 23.6875 68.5 21.796875 66.546875 
Q 19.921875 64.59375 19.921875 59.515625 
L 19.921875 54.6875 
L 34.71875 54.6875 
L 34.71875 47.703125 
L 19.921875 47.703125 
L 19.921875 0 
L 10.890625 0 
L 10.890625 47.703125 
L 2.296875 47.703125 
L 2.296875 54.6875 
L 10.890625 54.6875 
L 10.890625 58.5 
Q 10.890625 67.625 15.140625 71.796875 
Q 19.390625 75.984375 28.609375 75.984375 
z
" id="DejaVuSans-102"/>
       <path d="M 4.890625 31.390625 
L 31.203125 31.390625 
L 31.203125 23.390625 
L 4.890625 23.390625 
z
" id="DejaVuSans-45"/>
       <path d="M 56.203125 29.59375 
L 56.203125 25.203125 
L 14.890625 25.203125 
Q 15.484375 15.921875 20.484375 11.0625 
Q 25.484375 6.203125 34.421875 6.203125 
Q 39.59375 6.203125 44.453125 7.46875 
Q 49.3125 8.734375 54.109375 11.28125 
L 54.109375 2.78125 
Q 49.265625 0.734375 44.1875 -0.34375 
Q 39.109375 -1.421875 33.890625 -1.421875 
Q 20.796875 -1.421875 13.15625 6.1875 
Q 5.515625 13.8125 5.515625 26.8125 
Q 5.515625 40.234375 12.765625 48.109375 
Q 20.015625 56 32.328125 56 
Q 43.359375 56 49.78125 48.890625 
Q 56.203125 41.796875 56.203125 29.59375 
z
M 47.21875 32.234375 
Q 47.125 39.59375 43.09375 43.984375 
Q 39.0625 48.390625 32.421875 48.390625 
Q 24.90625 48.390625 20.390625 44.140625 
Q 15.875 39.890625 15.1875 32.171875 
z
" id="DejaVuSans-101"/>
       <path d="M 2.984375 54.6875 
L 12.5 54.6875 
L 29.59375 8.796875 
L 46.6875 54.6875 
L 56.203125 54.6875 
L 35.6875 0 
L 23.484375 0 
z
" id="DejaVuSans-118"/>
       <path d="M 34.28125 27.484375 
Q 23.390625 27.484375 19.1875 25 
Q 14.984375 22.515625 14.984375 16.5 
Q 14.984375 11.71875 18.140625 8.90625 
Q 21.296875 6.109375 26.703125 6.109375 
Q 34.1875 6.109375 38.703125 11.40625 
Q 43.21875 16.703125 43.21875 25.484375 
L 43.21875 27.484375 
z
M 52.203125 31.203125 
L 52.203125 0 
L 43.21875 0 
L 43.21875 8.296875 
Q 40.140625 3.328125 35.546875 0.953125 
Q 30.953125 -1.421875 24.3125 -1.421875 
Q 15.921875 -1.421875 10.953125 3.296875 
Q 6 8.015625 6 15.921875 
Q 6 25.140625 12.171875 29.828125 
Q 18.359375 34.515625 30.609375 34.515625 
L 43.21875 34.515625 
L 43.21875 35.40625 
Q 43.21875 41.609375 39.140625 45 
Q 35.0625 48.390625 27.6875 48.390625 
Q 23 48.390625 18.546875 47.265625 
Q 14.109375 46.140625 10.015625 43.890625 
L 10.015625 52.203125 
Q 14.9375 54.109375 19.578125 55.046875 
Q 24.21875 56 28.609375 56 
Q 40.484375 56 46.34375 49.84375 
Q 52.203125 43.703125 52.203125 31.203125 
z
" id="DejaVuSans-97"/>
       <path d="M 44.28125 53.078125 
L 44.28125 44.578125 
Q 40.484375 46.53125 36.375 47.5 
Q 32.28125 48.484375 27.875 48.484375 
Q 21.1875 48.484375 17.84375 46.4375 
Q 14.5 44.390625 14.5 40.28125 
Q 14.5 37.15625 16.890625 35.375 
Q 19.28125 33.59375 26.515625 31.984375 
L 29.59375 31.296875 
Q 39.15625 29.25 43.1875 25.515625 
Q 47.21875 21.78125 47.21875 15.09375 
Q 47.21875 7.46875 41.1875 3.015625 
Q 35.15625 -1.421875 24.609375 -1.421875 
Q 20.21875 -1.421875 15.453125 -0.5625 
Q 10.6875 0.296875 5.421875 2 
L 5.421875 11.28125 
Q 10.40625 8.6875 15.234375 7.390625 
Q 20.0625 6.109375 24.8125 6.109375 
Q 31.15625 6.109375 34.5625 8.28125 
Q 37.984375 10.453125 37.984375 14.40625 
Q 37.984375 18.0625 35.515625 20.015625 
Q 33.0625 21.96875 24.703125 23.78125 
L 21.578125 24.515625 
Q 13.234375 26.265625 9.515625 29.90625 
Q 5.8125 33.546875 5.8125 39.890625 
Q 5.8125 47.609375 11.28125 51.796875 
Q 16.75 56 26.8125 56 
Q 31.78125 56 36.171875 55.265625 
Q 40.578125 54.546875 44.28125 53.078125 
z
" id="DejaVuSans-115"/>
       <path d="M 25.390625 72.90625 
L 33.6875 72.90625 
L 8.296875 -9.28125 
L 0 -9.28125 
z
" id="DejaVuSans-47"/>
       <path d="M 45.40625 46.390625 
L 45.40625 75.984375 
L 54.390625 75.984375 
L 54.390625 0 
L 45.40625 0 
L 45.40625 8.203125 
Q 42.578125 3.328125 38.25 0.953125 
Q 33.9375 -1.421875 27.875 -1.421875 
Q 17.96875 -1.421875 11.734375 6.484375 
Q 5.515625 14.40625 5.515625 27.296875 
Q 5.515625 40.1875 11.734375 48.09375 
Q 17.96875 56 27.875 56 
Q 33.9375 56 38.25 53.625 
Q 42.578125 51.265625 45.40625 46.390625 
z
M 14.796875 27.296875 
Q 14.796875 17.390625 18.875 11.75 
Q 22.953125 6.109375 30.078125 6.109375 
Q 37.203125 6.109375 41.296875 11.75 
Q 45.40625 17.390625 45.40625 27.296875 
Q 45.40625 37.203125 41.296875 42.84375 
Q 37.203125 48.484375 30.078125 48.484375 
Q 22.953125 48.484375 18.875 42.84375 
Q 14.796875 37.203125 14.796875 27.296875 
z
" id="DejaVuSans-100"/>
       <path d="M 9.421875 54.6875 
L 18.40625 54.6875 
L 18.40625 0 
L 9.421875 0 
z
M 9.421875 75.984375 
L 18.40625 75.984375 
L 18.40625 64.59375 
L 9.421875 64.59375 
z
" id="DejaVuSans-105"/>
       <path d="M 52 44.1875 
Q 55.375 50.25 60.0625 53.125 
Q 64.75 56 71.09375 56 
Q 79.640625 56 84.28125 50.015625 
Q 88.921875 44.046875 88.921875 33.015625 
L 88.921875 0 
L 79.890625 0 
L 79.890625 32.71875 
Q 79.890625 40.578125 77.09375 44.375 
Q 74.3125 48.1875 68.609375 48.1875 
Q 61.625 48.1875 57.5625 43.546875 
Q 53.515625 38.921875 53.515625 30.90625 
L 53.515625 0 
L 44.484375 0 
L 44.484375 32.71875 
Q 44.484375 40.625 41.703125 44.40625 
Q 38.921875 48.1875 33.109375 48.1875 
Q 26.21875 48.1875 22.15625 43.53125 
Q 18.109375 38.875 18.109375 30.90625 
L 18.109375 0 
L 9.078125 0 
L 9.078125 54.6875 
L 18.109375 54.6875 
L 18.109375 46.1875 
Q 21.1875 51.21875 25.484375 53.609375 
Q 29.78125 56 35.6875 56 
Q 41.65625 56 45.828125 52.96875 
Q 50 49.953125 52 44.1875 
z
" id="DejaVuSans-109"/>
       <path d="M 54.890625 33.015625 
L 54.890625 0 
L 45.90625 0 
L 45.90625 32.71875 
Q 45.90625 40.484375 42.875 44.328125 
Q 39.84375 48.1875 33.796875 48.1875 
Q 26.515625 48.1875 22.3125 43.546875 
Q 18.109375 38.921875 18.109375 30.90625 
L 18.109375 0 
L 9.078125 0 
L 9.078125 54.6875 
L 18.109375 54.6875 
L 18.109375 46.1875 
Q 21.34375 51.125 25.703125 53.5625 
Q 30.078125 56 35.796875 56 
Q 45.21875 56 50.046875 50.171875 
Q 54.890625 44.34375 54.890625 33.015625 
z
" id="DejaVuSans-110"/>
       <path d="M 8.015625 75.875 
L 15.828125 75.875 
Q 23.140625 64.359375 26.78125 53.3125 
Q 30.421875 42.28125 30.421875 31.390625 
Q 30.421875 20.453125 26.78125 9.375 
Q 23.140625 -1.703125 15.828125 -13.1875 
L 8.015625 -13.1875 
Q 14.5 -2 17.703125 9.0625 
Q 20.90625 20.125 20.90625 31.390625 
Q 20.90625 42.671875 17.703125 53.65625 
Q 14.5 64.65625 8.015625 75.875 
z
" id="DejaVuSans-41"/>
      </defs>
      <use xlink:href="#DejaVuSans-108"/>
      <use x="27.783203" xlink:href="#DejaVuSans-111"/>
      <use x="88.964844" xlink:href="#DejaVuSans-103"/>
      <use x="152.441406" xlink:href="#DejaVuSans-49"/>
      <use x="216.064453" xlink:href="#DejaVuSans-48"/>
      <use x="279.6875" xlink:href="#DejaVuSans-40"/>
      <use x="318.701172" xlink:href="#DejaVuSans-35"/>
      <use x="402.490234" xlink:href="#DejaVuSans-32"/>
      <use x="434.277344" xlink:href="#DejaVuSans-102"/>
      <use x="463.982422" xlink:href="#DejaVuSans-45"/>
      <use x="500.066406" xlink:href="#DejaVuSans-101"/>
      <use x="561.589844" xlink:href="#DejaVuSans-118"/>
      <use x="620.769531" xlink:href="#DejaVuSans-97"/>
      <use x="682.048828" xlink:href="#DejaVuSans-108"/>
      <use x="709.832031" xlink:href="#DejaVuSans-115"/>
      <use x="761.931641" xlink:href="#DejaVuSans-32"/>
      <use x="793.71875" xlink:href="#DejaVuSans-47"/>
      <use x="827.410156" xlink:href="#DejaVuSans-32"/>
      <use x="859.197266" xlink:href="#DejaVuSans-100"/>
      <use x="922.673828" xlink:href="#DejaVuSans-105"/>
      <use x="950.457031" xlink:href="#DejaVuSans-109"/>
      <use x="1047.869141" xlink:href="#DejaVuSans-101"/>
      <use x="1109.392578" xlink:href="#DejaVuSans-110"/>
      <use x="1172.771484" xlink:href="#DejaVuSans-115"/>
      <use x="1224.871094" xlink:href="#DejaVuSans-105"/>
      <use x="1252.654297" xlink:href="#DejaVuSans-111"/>
      <use x="1313.835938" xlink:href="#DejaVuSans-110"/>
      <use x="1377.214844" xlink:href="#DejaVuSans-41"/>
     </g>
    </g>
   </g>
   <g id="matplotlib.axis_2">
    <g id="ytick_1">
     <g id="line2d_21">
      <path clip-path="url(#pdb0ffa9b3e)" d="M 57.6 298.944 
L 338.688 298.944 
" style="fill:none;stroke:#b0b0b0;stroke-linecap:square;stroke-width:0.8;"/>
     </g>
     <g id="line2d_22">
      <defs>
       <path d="M 0 0 
L -3.5 0 
" id="m3eebfc0735" style="stroke:#000000;stroke-width:0.8;"/>
      </defs>
      <g>
       <use style="stroke:#000000;stroke-width:0.8;" x="57.6" xlink:href="#m3eebfc0735" y="298.944"/>
      </g>
     </g>
     <g id="text_6">
      <!-- 0.0 -->
      <g transform="translate(25.155 305.02275)scale(0.16 -0.16)">
       <defs>
        <path d="M 10.6875 12.40625 
L 21 12.40625 
L 21 0 
L 10.6875 0 
z
" id="DejaVuSans-46"/>
       </defs>
       <use xlink:href="#DejaVuSans-48"/>
       <use x="63.623047" xlink:href="#DejaVuSans-46"/>
       <use x="95.410156" xlink:href="#DejaVuSans-48"/>
      </g>
     </g>
    </g>
    <g id="ytick_2">
     <g id="line2d_23">
      <path clip-path="url(#pdb0ffa9b3e)" d="M 57.6 240.431525 
L 338.688 240.431525 
" style="fill:none;stroke:#b0b0b0;stroke-linecap:square;stroke-width:0.8;"/>
     </g>
     <g id="line2d_24">
      <g>
       <use style="stroke:#000000;stroke-width:0.8;" x="57.6" xlink:href="#m3eebfc0735" y="240.431525"/>
      </g>
     </g>
     <g id="text_7">
      <!-- 0.2 -->
      <g transform="translate(25.155 246.510275)scale(0.16 -0.16)">
       <use xlink:href="#DejaVuSans-48"/>
       <use x="63.623047" xlink:href="#DejaVuSans-46"/>
       <use x="95.410156" xlink:href="#DejaVuSans-50"/>
      </g>
     </g>
    </g>
    <g id="ytick_3">
     <g id="line2d_25">
      <path clip-path="url(#pdb0ffa9b3e)" d="M 57.6 181.91905 
L 338.688 181.91905 
" style="fill:none;stroke:#b0b0b0;stroke-linecap:square;stroke-width:0.8;"/>
     </g>
     <g id="line2d_26">
      <g>
       <use style="stroke:#000000;stroke-width:0.8;" x="57.6" xlink:href="#m3eebfc0735" y="181.91905"/>
      </g>
     </g>
     <g id="text_8">
      <!-- 0.4 -->
      <g transform="translate(25.155 187.9978)scale(0.16 -0.16)">
       <use xlink:href="#DejaVuSans-48"/>
       <use x="63.623047" xlink:href="#DejaVuSans-46"/>
       <use x="95.410156" xlink:href="#DejaVuSans-52"/>
      </g>
     </g>
    </g>
    <g id="ytick_4">
     <g id="line2d_27">
      <path clip-path="url(#pdb0ffa9b3e)" d="M 57.6 123.406574 
L 338.688 123.406574 
" style="fill:none;stroke:#b0b0b0;stroke-linecap:square;stroke-width:0.8;"/>
     </g>
     <g id="line2d_28">
      <g>
       <use style="stroke:#000000;stroke-width:0.8;" x="57.6" xlink:href="#m3eebfc0735" y="123.406574"/>
      </g>
     </g>
     <g id="text_9">
      <!-- 0.6 -->
      <g transform="translate(25.155 129.485324)scale(0.16 -0.16)">
       <use xlink:href="#DejaVuSans-48"/>
       <use x="63.623047" xlink:href="#DejaVuSans-46"/>
       <use x="95.410156" xlink:href="#DejaVuSans-54"/>
      </g>
     </g>
    </g>
    <g id="ytick_5">
     <g id="line2d_29">
      <path clip-path="url(#pdb0ffa9b3e)" d="M 57.6 64.894099 
L 338.688 64.894099 
" style="fill:none;stroke:#b0b0b0;stroke-linecap:square;stroke-width:0.8;"/>
     </g>
     <g id="line2d_30">
      <g>
       <use style="stroke:#000000;stroke-width:0.8;" x="57.6" xlink:href="#m3eebfc0735" y="64.894099"/>
      </g>
     </g>
     <g id="text_10">
      <!-- 0.8 -->
      <g transform="translate(25.155 70.972849)scale(0.16 -0.16)">
       <defs>
        <path d="M 31.78125 34.625 
Q 24.75 34.625 20.71875 30.859375 
Q 16.703125 27.09375 16.703125 20.515625 
Q 16.703125 13.921875 20.71875 10.15625 
Q 24.75 6.390625 31.78125 6.390625 
Q 38.8125 6.390625 42.859375 10.171875 
Q 46.921875 13.96875 46.921875 20.515625 
Q 46.921875 27.09375 42.890625 30.859375 
Q 38.875 34.625 31.78125 34.625 
z
M 21.921875 38.8125 
Q 15.578125 40.375 12.03125 44.71875 
Q 8.5 49.078125 8.5 55.328125 
Q 8.5 64.0625 14.71875 69.140625 
Q 20.953125 74.21875 31.78125 74.21875 
Q 42.671875 74.21875 48.875 69.140625 
Q 55.078125 64.0625 55.078125 55.328125 
Q 55.078125 49.078125 51.53125 44.71875 
Q 48 40.375 41.703125 38.8125 
Q 48.828125 37.15625 52.796875 32.3125 
Q 56.78125 27.484375 56.78125 20.515625 
Q 56.78125 9.90625 50.3125 4.234375 
Q 43.84375 -1.421875 31.78125 -1.421875 
Q 19.734375 -1.421875 13.25 4.234375 
Q 6.78125 9.90625 6.78125 20.515625 
Q 6.78125 27.484375 10.78125 32.3125 
Q 14.796875 37.15625 21.921875 38.8125 
z
M 18.3125 54.390625 
Q 18.3125 48.734375 21.84375 45.5625 
Q 25.390625 42.390625 31.78125 42.390625 
Q 38.140625 42.390625 41.71875 45.5625 
Q 45.3125 48.734375 45.3125 54.390625 
Q 45.3125 60.0625 41.71875 63.234375 
Q 38.140625 66.40625 31.78125 66.40625 
Q 25.390625 66.40625 21.84375 63.234375 
Q 18.3125 60.0625 18.3125 54.390625 
z
" id="DejaVuSans-56"/>
       </defs>
       <use xlink:href="#DejaVuSans-48"/>
       <use x="63.623047" xlink:href="#DejaVuSans-46"/>
       <use x="95.410156" xlink:href="#DejaVuSans-56"/>
      </g>
     </g>
    </g>
    <g id="ytick_6">
     <g id="line2d_31">
      <path clip-path="url(#pdb0ffa9b3e)" d="M 57.6 6.381624 
L 338.688 6.381624 
" style="fill:none;stroke:#b0b0b0;stroke-linecap:square;stroke-width:0.8;"/>
     </g>
     <g id="line2d_32">
      <g>
       <use style="stroke:#000000;stroke-width:0.8;" x="57.6" xlink:href="#m3eebfc0735" y="6.381624"/>
      </g>
     </g>
     <g id="text_11">
      <!-- 1.0 -->
      <g transform="translate(25.155 12.460374)scale(0.16 -0.16)">
       <use xlink:href="#DejaVuSans-49"/>
       <use x="63.623047" xlink:href="#DejaVuSans-46"/>
       <use x="95.410156" xlink:href="#DejaVuSans-48"/>
      </g>
     </g>
    </g>
    <g id="text_12">
     <!-- Fraction of function,target pairs -->
     <g transform="translate(17.619531 285.585)rotate(-90)scale(0.17 -0.17)">
      <defs>
       <path d="M 9.8125 72.90625 
L 51.703125 72.90625 
L 51.703125 64.59375 
L 19.671875 64.59375 
L 19.671875 43.109375 
L 48.578125 43.109375 
L 48.578125 34.8125 
L 19.671875 34.8125 
L 19.671875 0 
L 9.8125 0 
z
" id="DejaVuSans-70"/>
       <path d="M 41.109375 46.296875 
Q 39.59375 47.171875 37.8125 47.578125 
Q 36.03125 48 33.890625 48 
Q 26.265625 48 22.1875 43.046875 
Q 18.109375 38.09375 18.109375 28.8125 
L 18.109375 0 
L 9.078125 0 
L 9.078125 54.6875 
L 18.109375 54.6875 
L 18.109375 46.1875 
Q 20.953125 51.171875 25.484375 53.578125 
Q 30.03125 56 36.53125 56 
Q 37.453125 56 38.578125 55.875 
Q 39.703125 55.765625 41.0625 55.515625 
z
" id="DejaVuSans-114"/>
       <path d="M 48.78125 52.59375 
L 48.78125 44.1875 
Q 44.96875 46.296875 41.140625 47.34375 
Q 37.3125 48.390625 33.40625 48.390625 
Q 24.65625 48.390625 19.8125 42.84375 
Q 14.984375 37.3125 14.984375 27.296875 
Q 14.984375 17.28125 19.8125 11.734375 
Q 24.65625 6.203125 33.40625 6.203125 
Q 37.3125 6.203125 41.140625 7.25 
Q 44.96875 8.296875 48.78125 10.40625 
L 48.78125 2.09375 
Q 45.015625 0.34375 40.984375 -0.53125 
Q 36.96875 -1.421875 32.421875 -1.421875 
Q 20.0625 -1.421875 12.78125 6.34375 
Q 5.515625 14.109375 5.515625 27.296875 
Q 5.515625 40.671875 12.859375 48.328125 
Q 20.21875 56 33.015625 56 
Q 37.15625 56 41.109375 55.140625 
Q 45.0625 54.296875 48.78125 52.59375 
z
" id="DejaVuSans-99"/>
       <path d="M 18.3125 70.21875 
L 18.3125 54.6875 
L 36.8125 54.6875 
L 36.8125 47.703125 
L 18.3125 47.703125 
L 18.3125 18.015625 
Q 18.3125 11.328125 20.140625 9.421875 
Q 21.96875 7.515625 27.59375 7.515625 
L 36.8125 7.515625 
L 36.8125 0 
L 27.59375 0 
Q 17.1875 0 13.234375 3.875 
Q 9.28125 7.765625 9.28125 18.015625 
L 9.28125 47.703125 
L 2.6875 47.703125 
L 2.6875 54.6875 
L 9.28125 54.6875 
L 9.28125 70.21875 
z
" id="DejaVuSans-116"/>
       <path d="M 8.5 21.578125 
L 8.5 54.6875 
L 17.484375 54.6875 
L 17.484375 21.921875 
Q 17.484375 14.15625 20.5 10.265625 
Q 23.53125 6.390625 29.59375 6.390625 
Q 36.859375 6.390625 41.078125 11.03125 
Q 45.3125 15.671875 45.3125 23.6875 
L 45.3125 54.6875 
L 54.296875 54.6875 
L 54.296875 0 
L 45.3125 0 
L 45.3125 8.40625 
Q 42.046875 3.421875 37.71875 1 
Q 33.40625 -1.421875 27.6875 -1.421875 
Q 18.265625 -1.421875 13.375 4.4375 
Q 8.5 10.296875 8.5 21.578125 
z
M 31.109375 56 
z
" id="DejaVuSans-117"/>
       <path d="M 11.71875 12.40625 
L 22.015625 12.40625 
L 22.015625 4 
L 14.015625 -11.625 
L 7.71875 -11.625 
L 11.71875 4 
z
" id="DejaVuSans-44"/>
       <path d="M 18.109375 8.203125 
L 18.109375 -20.796875 
L 9.078125 -20.796875 
L 9.078125 54.6875 
L 18.109375 54.6875 
L 18.109375 46.390625 
Q 20.953125 51.265625 25.265625 53.625 
Q 29.59375 56 35.59375 56 
Q 45.5625 56 51.78125 48.09375 
Q 58.015625 40.1875 58.015625 27.296875 
Q 58.015625 14.40625 51.78125 6.484375 
Q 45.5625 -1.421875 35.59375 -1.421875 
Q 29.59375 -1.421875 25.265625 0.953125 
Q 20.953125 3.328125 18.109375 8.203125 
z
M 48.6875 27.296875 
Q 48.6875 37.203125 44.609375 42.84375 
Q 40.53125 48.484375 33.40625 48.484375 
Q 26.265625 48.484375 22.1875 42.84375 
Q 18.109375 37.203125 18.109375 27.296875 
Q 18.109375 17.390625 22.1875 11.75 
Q 26.265625 6.109375 33.40625 6.109375 
Q 40.53125 6.109375 44.609375 11.75 
Q 48.6875 17.390625 48.6875 27.296875 
z
" id="DejaVuSans-112"/>
      </defs>
      <use xlink:href="#DejaVuSans-70"/>
      <use x="50.269531" xlink:href="#DejaVuSans-114"/>
      <use x="91.382812" xlink:href="#DejaVuSans-97"/>
      <use x="152.662109" xlink:href="#DejaVuSans-99"/>
      <use x="207.642578" xlink:href="#DejaVuSans-116"/>
      <use x="246.851562" xlink:href="#DejaVuSans-105"/>
      <use x="274.634766" xlink:href="#DejaVuSans-111"/>
      <use x="335.816406" xlink:href="#DejaVuSans-110"/>
      <use x="399.195312" xlink:href="#DejaVuSans-32"/>
      <use x="430.982422" xlink:href="#DejaVuSans-111"/>
      <use x="492.164062" xlink:href="#DejaVuSans-102"/>
      <use x="527.369141" xlink:href="#DejaVuSans-32"/>
      <use x="559.15625" xlink:href="#DejaVuSans-102"/>
      <use x="594.361328" xlink:href="#DejaVuSans-117"/>
      <use x="657.740234" xlink:href="#DejaVuSans-110"/>
      <use x="721.119141" xlink:href="#DejaVuSans-99"/>
      <use x="776.099609" xlink:href="#DejaVuSans-116"/>
      <use x="815.308594" xlink:href="#DejaVuSans-105"/>
      <use x="843.091797" xlink:href="#DejaVuSans-111"/>
      <use x="904.273438" xlink:href="#DejaVuSans-110"/>
      <use x="967.652344" xlink:href="#DejaVuSans-44"/>
      <use x="999.439453" xlink:href="#DejaVuSans-116"/>
      <use x="1038.648438" xlink:href="#DejaVuSans-97"/>
      <use x="1099.927734" xlink:href="#DejaVuSans-114"/>
      <use x="1139.291016" xlink:href="#DejaVuSans-103"/>
      <use x="1202.767578" xlink:href="#DejaVuSans-101"/>
      <use x="1264.291016" xlink:href="#DejaVuSans-116"/>
      <use x="1303.5" xlink:href="#DejaVuSans-32"/>
      <use x="1335.287109" xlink:href="#DejaVuSans-112"/>
      <use x="1398.763672" xlink:href="#DejaVuSans-97"/>
      <use x="1460.042969" xlink:href="#DejaVuSans-105"/>
      <use x="1487.826172" xlink:href="#DejaVuSans-114"/>
      <use x="1528.939453" xlink:href="#DejaVuSans-115"/>
     </g>
    </g>
   </g>
   <g id="line2d_33">
    <defs>
     <path d="M 0 1.5 
C 0.397805 1.5 0.77937 1.341951 1.06066 1.06066 
C 1.341951 0.77937 1.5 0.397805 1.5 0 
C 1.5 -0.397805 1.341951 -0.77937 1.06066 -1.06066 
C 0.77937 -1.341951 0.397805 -1.5 0 -1.5 
C -0.397805 -1.5 -0.77937 -1.341951 -1.06066 -1.06066 
C -1.341951 -0.77937 -1.5 -0.397805 -1.5 0 
C -1.5 0.397805 -1.341951 0.77937 -1.06066 1.06066 
C -0.77937 1.341951 -0.397805 1.5 0 1.5 
z
" id="m10fa2a6bc1" style="stroke:#f5deb3;"/>
    </defs>
    <g>
     <use style="fill:#f5deb3;stroke:#f5deb3;" x="315.21585" xlink:href="#m10fa2a6bc1" y="6.381624"/>
     <use style="fill:#f5deb3;stroke:#f5deb3;" x="315.21585" xlink:href="#m10fa2a6bc1" y="6.381624"/>
    </g>
   </g>
   <g id="line2d_34">
    <defs>
     <path d="M 0 1.5 
C 0.397805 1.5 0.77937 1.341951 1.06066 1.06066 
C 1.341951 0.77937 1.5 0.397805 1.5 0 
C 1.5 -0.397805 1.341951 -0.77937 1.06066 -1.06066 
C 0.77937 -1.341951 0.397805 -1.5 0 -1.5 
C -0.397805 -1.5 -0.77937 -1.341951 -1.06066 -1.06066 
C -1.341951 -0.77937 -1.5 -0.397805 -1.5 0 
C -1.5 0.397805 -1.341951 0.77937 -1.06066 1.06066 
C -0.77937 1.341951 -0.397805 1.5 0 1.5 
z
" id="m8bfecfe0bb" style="stroke:#000080;"/>
    </defs>
    <g>
     <use style="fill:#000080;stroke:#000080;" x="296.306631" xlink:href="#m8bfecfe0bb" y="197.981298"/>
     <use style="fill:#000080;stroke:#000080;" x="296.306631" xlink:href="#m8bfecfe0bb" y="197.981298"/>
    </g>
   </g>
   <g id="line2d_35">
    <path d="M 5.356583 298.944 
L 5.356583 291.486528 
L 17.444571 291.486528 
L 17.444571 290.568685 
L 24.515591 290.568685 
L 24.515591 290.453955 
L 29.53256 290.453955 
L 29.53256 290.224494 
L 33.424023 290.224494 
L 33.424023 290.109764 
L 36.60358 290.109764 
L 36.60358 289.995033 
L 39.291857 289.995033 
L 39.291857 289.880303 
L 43.6746 289.880303 
L 43.6746 289.765573 
L 45.512012 289.765573 
L 45.512012 289.650842 
L 53.708537 289.650842 
L 53.708537 289.421381 
L 56.705482 289.421381 
L 56.705482 289.306651 
L 57.6 289.306651 
L 57.6 289.191921 
L 59.262141 289.191921 
L 59.262141 289.07719 
L 61.491463 289.07719 
L 61.491463 288.96246 
L 69.246464 288.96246 
L 69.246464 288.84773 
L 71.74204 288.84773 
L 71.74204 288.732999 
L 73.924795 288.732999 
L 73.924795 288.618269 
L 75.86449 288.618269 
L 75.86449 288.388808 
L 79.447285 288.388808 
L 79.447285 288.274078 
L 80.650472 288.274078 
L 80.650472 288.159348 
L 86.182924 288.159348 
L 86.182924 288.044617 
L 86.518305 288.044617 
L 86.518305 287.929887 
L 87.643811 287.929887 
L 87.643811 287.815157 
L 88.104788 287.815157 
L 88.104788 287.356235 
L 88.991722 287.356235 
L 88.991722 286.667853 
L 89.277618 286.667853 
L 89.277618 286.438393 
L 90.376519 286.438393 
L 90.376519 286.094202 
L 91.157513 286.094202 
L 91.157513 285.979471 
L 91.284345 285.979471 
L 91.284345 285.63528 
L 91.410261 285.63528 
L 91.410261 285.291089 
L 92.621809 285.291089 
L 92.621809 285.061628 
L 93.533875 285.061628 
L 93.644601 284.832168 
L 93.754628 284.832168 
L 93.754628 284.717437 
L 94.400601 284.717437 
L 94.400601 284.258516 
L 94.610715 284.258516 
L 94.610715 284.143786 
L 94.921215 284.143786 
L 95.023499 283.684864 
L 95.125186 283.684864 
L 95.226283 283.455404 
L 95.326798 283.455404 
L 95.426737 283.111213 
L 95.723163 283.111213 
L 95.723163 282.996482 
L 96.206276 282.996482 
L 96.301313 282.422831 
L 96.583356 282.422831 
L 96.583356 282.3081 
L 96.86091 282.3081 
L 96.86091 282.078639 
L 97.043522 282.078639 
L 97.134116 281.619718 
L 97.224242 281.619718 
L 97.224242 281.160797 
L 97.403108 281.160797 
L 97.491858 280.816606 
L 97.580158 280.816606 
L 97.580158 280.701875 
L 97.755429 280.701875 
L 97.842408 279.784033 
L 97.928955 279.784033 
L 97.928955 279.554572 
L 98.18605 279.554572 
L 98.18605 279.439842 
L 98.355365 279.439842 
L 98.355365 279.095651 
L 98.935347 279.095651 
L 98.935347 278.98092 
L 99.178125 278.98092 
L 99.178125 278.86619 
L 99.338119 278.86619 
L 99.41757 278.636729 
L 99.496659 278.636729 
L 99.496659 278.063077 
L 99.653771 278.063077 
L 99.731799 277.604156 
L 100.116788 277.604156 
L 100.116788 277.489426 
L 100.715621 277.489426 
L 100.715621 277.374695 
L 100.86217 277.374695 
L 100.86217 277.259965 
L 101.079711 277.259965 
L 101.079711 276.801044 
L 101.294571 276.801044 
L 101.294571 276.686313 
L 101.506816 276.686313 
L 101.576995 276.342122 
L 101.646892 276.342122 
L 101.646892 276.112662 
L 101.854917 276.112662 
L 101.854917 275.997931 
L 102.060491 275.997931 
L 102.060491 275.883201 
L 102.196206 275.883201 
L 102.263669 275.65374 
L 102.330873 275.65374 
L 102.330873 275.53901 
L 102.597126 275.53901 
L 102.597126 275.42428 
L 102.794183 275.42428 
L 102.794183 275.309549 
L 102.989037 275.309549 
L 102.989037 275.194819 
L 103.498249 275.194819 
L 103.560868 274.850628 
L 103.870632 274.850628 
L 103.870632 274.735897 
L 104.295262 274.735897 
L 104.295262 274.621167 
L 104.533344 274.621167 
L 104.533344 274.506437 
L 104.651178 274.506437 
L 104.651178 274.391706 
L 104.942325 274.391706 
L 104.942325 274.276976 
L 105.22869 274.276976 
L 105.22869 274.162246 
L 105.842616 274.162246 
L 105.951954 273.932785 
L 106.48859 273.932785 
L 106.541356 273.473864 
L 106.698704 273.473864 
L 106.698704 273.244403 
L 106.906317 273.244403 
L 106.906317 273.129673 
L 107.06042 273.129673 
L 107.111487 272.900212 
L 107.712901 272.900212 
L 107.762095 272.670751 
L 108.054381 272.670751 
L 108.054381 272.556021 
L 108.483824 272.556021 
L 108.483824 272.441291 
L 108.671345 272.441291 
L 108.671345 272.21183 
L 108.948899 272.21183 
L 108.948899 272.0971 
L 109.131511 272.0971 
L 109.131511 271.867639 
L 109.624052 271.867639 
L 109.624052 271.752909 
L 110.103064 271.752909 
L 110.103064 271.638178 
L 110.316522 271.638178 
L 110.316522 271.523448 
L 110.818406 271.523448 
L 110.818406 271.408718 
L 111.505558 271.408718 
L 111.505558 271.293987 
L 111.780817 271.293987 
L 111.858671 270.949796 
L 111.974805 270.949796 
L 111.974805 270.835066 
L 112.356423 270.835066 
L 112.356423 270.720335 
L 112.469299 270.720335 
L 112.469299 270.605605 
L 112.72987 270.605605 
L 112.72987 270.490875 
L 113.095487 270.490875 
L 113.095487 270.376144 
L 113.524343 270.376144 
L 113.55961 270.146684 
L 114.216469 270.146684 
L 114.216469 270.031953 
L 114.816733 270.031953 
L 114.816733 269.802493 
L 114.97987 269.802493 
L 114.97987 269.687762 
L 115.205729 269.687762 
L 115.205729 269.573032 
L 115.33349 269.573032 
L 115.33349 269.458302 
L 115.491886 269.458302 
L 115.491886 269.343571 
L 116.323218 269.343571 
L 116.323218 269.228841 
L 116.443076 269.228841 
L 116.443076 269.114111 
L 116.943478 269.114111 
L 116.943478 268.88465 
L 117.231262 268.88465 
L 117.231262 268.76992 
L 117.514373 268.76992 
L 117.514373 268.540459 
L 117.709852 268.540459 
L 117.709852 268.310998 
L 118.550135 268.310998 
L 118.550135 268.196268 
L 118.864837 268.196268 
L 118.864837 268.081538 
L 119.020084 268.081538 
L 119.045825 267.852077 
L 119.40226 267.852077 
L 119.40226 267.737347 
L 119.602714 267.737347 
L 119.602714 267.507886 
L 119.726838 267.507886 
L 119.751557 267.163695 
L 120.54823 267.163695 
L 120.54823 267.048964 
L 121.105591 267.048964 
L 121.196777 266.819504 
L 121.556827 266.819504 
L 121.667835 266.360582 
L 121.931406 266.360582 
L 121.931406 266.245852 
L 122.083336 266.245852 
L 122.191052 266.016391 
L 122.298108 266.016391 
L 122.340747 265.786931 
L 122.740699 265.786931 
L 122.844443 265.55747 
L 123.090939 265.55747 
L 123.090939 265.44274 
L 123.313873 265.44274 
L 123.414272 265.213279 
L 123.810186 265.213279 
L 123.810186 265.098549 
L 124.062793 265.098549 
L 124.158984 264.639627 
L 124.482119 264.639627 
L 124.557288 264.410167 
L 124.836322 264.410167 
L 124.946698 264.180706 
L 125.092787 264.180706 
L 125.092787 264.065976 
L 125.291682 264.065976 
L 125.381344 263.721785 
L 125.541584 263.721785 
L 125.541584 263.607054 
L 125.665205 263.607054 
L 125.682793 263.377593 
L 125.892487 263.377593 
L 125.892487 263.262863 
L 126.030894 263.262863 
L 126.030894 263.148133 
L 126.25349 263.148133 
L 126.25349 263.033402 
L 126.557083 263.033402 
L 126.557083 262.918672 
L 126.806101 262.918672 
L 126.806101 262.803942 
L 126.986481 262.803942 
L 126.986481 262.689211 
L 127.40556 262.689211 
L 127.48501 262.459751 
L 127.579875 262.459751 
L 127.674226 262.11556 
L 127.736845 262.11556 
L 127.736845 262.000829 
L 127.969682 262.000829 
L 127.969682 261.771369 
L 128.381113 261.771369 
L 128.381113 261.656638 
L 128.694536 261.656638 
L 128.768338 261.427178 
L 129.333516 261.427178 
L 129.333516 261.312447 
L 129.700375 261.312447 
L 129.700375 261.197717 
L 129.825588 261.197717 
L 129.922357 260.968256 
L 130.073348 260.968256 
L 130.073348 260.853526 
L 130.223042 260.853526 
L 130.263646 260.624065 
L 130.398313 260.624065 
L 130.398313 260.509335 
L 130.926816 260.509335 
L 131.004728 260.165144 
L 131.351088 260.165144 
L 131.351088 260.050414 
L 131.565689 260.050414 
L 131.628308 259.706222 
L 131.777682 259.706222 
L 131.777682 259.591492 
L 132.097001 259.591492 
L 132.097001 259.476762 
L 132.242431 259.476762 
L 132.254495 259.247301 
L 132.362702 259.247301 
L 132.362702 259.01784 
L 132.505941 259.01784 
L 132.517825 258.78838 
L 132.753813 258.78838 
L 132.753813 258.673649 
L 133.182148 258.673649 
L 133.273393 258.444189 
L 133.744754 258.444189 
L 133.755823 258.214728 
L 133.910056 258.214728 
L 133.910056 258.099998 
L 134.513701 258.099998 
L 134.545457 257.870537 
L 134.766144 257.870537 
L 134.766144 257.755807 
L 135.004687 257.755807 
L 135.004687 257.641076 
L 135.127861 257.641076 
L 135.219673 257.296885 
L 135.760625 257.296885 
L 135.849174 256.952694 
L 136.342635 256.952694 
L 136.342635 256.837964 
L 136.822516 256.837964 
L 136.831795 256.608503 
L 137.189866 256.608503 
L 137.271464 256.379043 
L 137.48721 256.379043 
L 137.585209 256.034851 
L 137.673823 256.034851 
L 137.673823 255.920121 
L 137.902135 255.920121 
L 137.902135 255.805391 
L 138.01518 255.805391 
L 138.067109 255.57593 
L 138.552866 255.57593 
L 138.552866 255.4612 
L 138.852833 255.4612 
L 138.852833 255.346469 
L 139.180187 255.346469 
L 139.180187 255.231739 
L 139.453687 255.231739 
L 139.501509 255.002278 
L 139.652088 255.002278 
L 139.652088 254.887548 
L 139.933878 254.887548 
L 139.957156 254.658087 
L 140.256979 254.658087 
L 140.325443 254.313896 
L 140.378508 254.313896 
L 140.378508 254.199166 
L 140.53674 254.199166 
L 140.53674 254.084436 
L 140.915143 254.084436 
L 140.944478 253.854975 
L 141.235139 253.854975 
L 141.235139 253.740245 
L 141.435758 253.740245 
L 141.492656 253.510784 
L 142.44601 253.510784 
L 142.44601 253.396054 
L 142.559927 253.396054 
L 142.579953 253.166593 
L 142.699628 253.166593 
L 142.699628 253.051863 
L 143.034315 253.051863 
L 143.034315 252.937132 
L 143.292393 252.937132 
L 143.292393 252.822402 
L 143.458119 252.822402 
L 143.458119 252.707672 
L 143.597128 252.707672 
L 143.597128 252.592941 
L 143.75376 252.592941 
L 143.75376 252.478211 
L 144.324384 252.478211 
L 144.432703 252.24875 
L 144.582038 252.24875 
L 144.582038 252.13402 
L 145.080421 252.13402 
L 145.080421 252.019289 
L 145.932112 252.019289 
L 145.932112 251.904559 
L 230.313365 251.904559 
L 230.423688 242.840862 
L 230.426676 242.840862 
L 230.441134 241.464098 
L 230.606079 241.464098 
L 230.606079 241.349368 
L 242.406932 241.349368 
L 242.467005 234.924468 
L 249.474073 234.924468 
L 249.512893 228.384839 
L 254.490943 228.384839 
L 254.518 223.910355 
L 258.382592 223.910355 
L 258.402708 220.468445 
L 261.5601 220.468445 
L 261.578202 217.485456 
L 264.249591 217.485456 
L 264.265089 214.961388 
L 266.57824 214.961388 
L 266.589798 212.09313 
L 268.630621 212.09313 
L 268.641975 209.798523 
L 270.468052 209.798523 
L 270.478193 208.536489 
L 272.132408 208.536489 
L 272.139182 207.733377 
L 273.647013 207.733377 
L 273.65386 206.586073 
L 275.042467 206.586073 
L 275.049176 205.094579 
L 276.337371 205.094579 
L 276.34275 204.062006 
L 277.538819 204.062006 
L 277.544302 202.914702 
L 278.66531 202.914702 
L 278.668326 202.455781 
L 279.720535 202.455781 
L 279.72664 201.767399 
L 280.720748 201.767399 
L 280.723201 201.308478 
L 281.66461 201.308478 
L 281.66461 201.193747 
L 282.559166 201.193747 
L 282.559447 200.849556 
L 283.406725 200.849556 
L 283.410464 200.390635 
L 284.218441 200.390635 
L 284.219543 200.046444 
L 284.995363 200.046444 
L 284.996021 199.816983 
L 285.736206 199.816983 
L 285.737515 199.243331 
L 286.448656 199.243331 
L 286.448656 199.128601 
L 287.130942 199.128601 
L 287.130942 199.013871 
L 287.788214 199.013871 
L 287.788527 198.78441 
L 290.200451 198.78441 
L 290.200451 198.66968 
L 291.809748 198.66968 
L 291.810089 198.440219 
L 292.804927 198.440219 
L 292.804927 198.325489 
L 293.284872 198.325489 
L 293.284872 198.210758 
L 294.20095 198.210758 
L 294.20095 198.096028 
L 296.306631 198.096028 
L 296.306631 197.981298 
L 338.688 197.981298 
L 338.688 197.981298 
" style="fill:none;stroke:#000080;stroke-linecap:square;stroke-width:1.5;"/>
   </g>
   <g id="line2d_36">
    <defs>
     <path d="M 0 6 
C 1.591219 6 3.117479 5.367802 4.242641 4.242641 
C 5.367802 3.117479 6 1.591219 6 0 
C 6 -1.591219 5.367802 -3.117479 4.242641 -4.242641 
C 3.117479 -5.367802 1.591219 -6 0 -6 
C -1.591219 -6 -3.117479 -5.367802 -4.242641 -4.242641 
C -5.367802 -3.117479 -6 -1.591219 -6 0 
C -6 1.591219 -5.367802 3.117479 -4.242641 4.242641 
C -3.117479 5.367802 -1.591219 6 0 6 
z
" id="m93fe74869f" style="stroke:#000080;stroke-width:1.5;"/>
    </defs>
    <g>
     <use style="fill-opacity:0;stroke:#000080;stroke-width:1.5;" x="71.74204" xlink:href="#m93fe74869f" y="288.84773"/>
     <use style="fill-opacity:0;stroke:#000080;stroke-width:1.5;" x="145.932112" xlink:href="#m93fe74869f" y="252.019289"/>
     <use style="fill-opacity:0;stroke:#000080;stroke-width:1.5;" x="230.606079" xlink:href="#m93fe74869f" y="241.464098"/>
     <use style="fill-opacity:0;stroke:#000080;stroke-width:1.5;" x="294.20095" xlink:href="#m93fe74869f" y="198.210758"/>
     <use style="fill-opacity:0;stroke:#000080;stroke-width:1.5;" x="296.306631" xlink:href="#m93fe74869f" y="197.981298"/>
     <use style="fill-opacity:0;stroke:#000080;stroke-width:1.5;" x="338.688" xlink:href="#m93fe74869f" y="197.981298"/>
    </g>
   </g>
   <g id="line2d_37">
    <path style="fill:none;stroke:#000080;stroke-linecap:square;stroke-width:1.5;"/>
    <g/>
   </g>
   <g id="line2d_38">
    <path clip-path="url(#pdb0ffa9b3e)" d="M 230.310095 251.904559 
" style="fill:none;stroke:#000080;stroke-linecap:square;stroke-width:1.5;"/>
    <defs>
     <path d="M -12 12 
L 12 -12 
M -12 -12 
L 12 12 
" id="m4115434ae2" style="stroke:#000080;"/>
    </defs>
    <g clip-path="url(#pdb0ffa9b3e)">
     <use style="fill:#000080;stroke:#000080;" x="230.310095" xlink:href="#m4115434ae2" y="251.904559"/>
    </g>
   </g>
   <g id="line2d_39">
    <defs>
     <path d="M 0 1.5 
C 0.397805 1.5 0.77937 1.341951 1.06066 1.06066 
C 1.341951 0.77937 1.5 0.397805 1.5 0 
C 1.5 -0.397805 1.341951 -0.77937 1.06066 -1.06066 
C 0.77937 -1.341951 0.397805 -1.5 0 -1.5 
C -0.397805 -1.5 -0.77937 -1.341951 -1.06066 -1.06066 
C -1.341951 -0.77937 -1.5 -0.397805 -1.5 0 
C -1.5 0.397805 -1.341951 0.77937 -1.06066 1.06066 
C -0.77937 1.341951 -0.397805 1.5 0 1.5 
z
" id="mb0a914bf27" style="stroke:#ff00ff;"/>
    </defs>
    <g>
     <use style="fill:#ff00ff;stroke:#ff00ff;" x="297.08019" xlink:href="#mb0a914bf27" y="197.981298"/>
     <use style="fill:#ff00ff;stroke:#ff00ff;" x="297.08019" xlink:href="#mb0a914bf27" y="197.981298"/>
    </g>
   </g>
   <g id="line2d_40">
    <path d="M 5.356583 298.944 
L 5.356583 291.486528 
L 17.444571 291.486528 
L 17.444571 290.568685 
L 24.515591 290.568685 
L 24.515591 290.453955 
L 29.53256 290.453955 
L 29.53256 290.224494 
L 33.424023 290.224494 
L 33.424023 289.995033 
L 39.291857 289.995033 
L 39.291857 289.880303 
L 43.6746 289.880303 
L 43.6746 289.765573 
L 45.512012 289.765573 
L 45.512012 289.650842 
L 48.691568 289.650842 
L 48.691568 289.536112 
L 54.765787 289.536112 
L 54.765787 289.306651 
L 57.6 289.306651 
L 57.6 289.191921 
L 60.037348 289.191921 
L 60.037348 289.07719 
L 62.175444 289.07719 
L 62.175444 288.96246 
L 70.538854 288.96246 
L 70.538854 288.84773 
L 72.867545 288.84773 
L 72.867545 288.732999 
L 75.241593 288.732999 
L 75.241593 288.618269 
L 76.759008 288.618269 
L 76.759008 288.503539 
L 77.047268 288.503539 
L 77.047268 288.274078 
L 81.992617 288.274078 
L 81.992617 288.159348 
L 86.518305 288.159348 
L 86.518305 287.700426 
L 88.104788 287.700426 
L 88.104788 287.585696 
L 88.553893 287.585696 
L 88.553893 287.356235 
L 88.991722 287.356235 
L 88.991722 287.241505 
L 90.242884 287.241505 
L 90.242884 286.667853 
L 91.659398 286.667853 
L 91.659398 286.323662 
L 92.026554 286.323662 
L 92.026554 285.979471 
L 92.621809 285.979471 
L 92.621809 285.75001 
L 92.73846 285.75001 
L 92.73846 285.63528 
L 93.533875 285.63528 
L 93.533875 285.52055 
L 93.972622 285.52055 
L 93.972622 285.291089 
L 94.294587 285.291089 
L 94.294587 285.176359 
L 94.505975 285.176359 
L 94.505975 285.061628 
L 94.921215 285.061628 
L 94.921215 284.832168 
L 95.125186 284.832168 
L 95.226283 284.602707 
L 95.723163 284.602707 
L 95.723163 284.373246 
L 96.206276 284.373246 
L 96.206276 284.143786 
L 96.395835 284.143786 
L 96.489848 283.684864 
L 96.768882 283.684864 
L 96.768882 283.570134 
L 97.043522 283.570134 
L 97.043522 283.455404 
L 97.403108 283.455404 
L 97.403108 283.111213 
L 97.580158 283.111213 
L 97.668013 282.537561 
L 97.755429 282.537561 
L 97.755429 282.3081 
L 98.18605 282.3081 
L 98.18605 282.078639 
L 98.523051 282.078639 
L 98.606294 281.849179 
L 98.771596 281.849179 
L 98.853664 281.504988 
L 98.935347 281.504988 
L 98.935347 281.390257 
L 99.097574 281.390257 
L 99.178125 280.128224 
L 99.258306 280.128224 
L 99.258306 279.898763 
L 99.496659 279.898763 
L 99.575392 279.554572 
L 99.731799 279.554572 
L 99.731799 279.439842 
L 100.192776 279.439842 
L 100.192776 279.325111 
L 100.343767 279.325111 
L 100.343767 279.210381 
L 100.567829 279.210381 
L 100.641881 278.86619 
L 100.86217 278.86619 
L 100.86217 278.75146 
L 101.007498 278.75146 
L 101.079711 278.292538 
L 101.71651 278.292538 
L 101.785851 278.063077 
L 102.060491 278.063077 
L 102.060491 277.948347 
L 102.196206 277.948347 
L 102.196206 277.833617 
L 102.397818 277.833617 
L 102.464508 276.571583 
L 102.530943 276.571583 
L 102.530943 276.456853 
L 102.728744 276.456853 
L 102.728744 276.342122 
L 102.859376 276.342122 
L 102.924327 276.112662 
L 103.181738 276.112662 
L 103.245502 275.883201 
L 103.309033 275.883201 
L 103.309033 275.768471 
L 103.623262 275.768471 
L 103.623262 275.65374 
L 103.870632 275.65374 
L 103.93193 275.309549 
L 104.053884 275.309549 
L 104.053884 275.194819 
L 104.295262 275.194819 
L 104.295262 275.080089 
L 104.474128 275.080089 
L 104.474128 274.965358 
L 104.826449 274.965358 
L 104.884483 274.735897 
L 105.22869 274.735897 
L 105.22869 274.621167 
L 105.454445 274.621167 
L 105.454445 274.506437 
L 105.566235 274.506437 
L 105.677314 274.276976 
L 106.006367 274.276976 
L 106.006367 274.162246 
L 106.275913 274.162246 
L 106.329326 273.932785 
L 106.593963 273.932785 
L 106.593963 273.818055 
L 107.009204 273.818055 
L 107.009204 273.703324 
L 107.314272 273.703324 
L 107.314272 273.588594 
L 107.614095 273.588594 
L 107.614095 273.473864 
L 107.762095 273.473864 
L 107.860069 273.014942 
L 108.054381 273.014942 
L 108.054381 272.900212 
L 108.246551 272.900212 
L 108.246551 272.785482 
L 108.436627 272.785482 
L 108.436627 272.670751 
L 108.671345 272.670751 
L 108.671345 272.556021 
L 108.856871 272.556021 
L 108.856871 272.21183 
L 109.446552 272.21183 
L 109.446552 272.0971 
L 110.016944 272.0971 
L 110.016944 271.982369 
L 110.485426 271.982369 
L 110.485426 271.867639 
L 110.982542 271.867639 
L 110.982542 271.752909 
L 111.104637 271.752909 
L 111.104637 271.638178 
L 111.465878 271.638178 
L 111.465878 271.523448 
L 111.624059 271.523448 
L 111.702614 271.293987 
L 111.974805 271.293987 
L 111.974805 271.179257 
L 112.128456 271.179257 
L 112.204777 270.949796 
L 112.431755 270.949796 
L 112.431755 270.835066 
L 113.095487 270.835066 
L 113.095487 269.802493 
L 113.55961 269.802493 
L 113.55961 269.573032 
L 114.0117 269.573032 
L 114.114385 269.228841 
L 114.317959 269.228841 
L 114.317959 269.114111 
L 114.882171 269.114111 
L 114.947365 268.88465 
L 115.301637 268.88465 
L 115.301637 268.76992 
L 116.111464 268.76992 
L 116.202531 268.540459 
L 116.59175 268.540459 
L 116.59175 268.425729 
L 116.885347 268.425729 
L 116.885347 268.196268 
L 117.259781 268.196268 
L 117.259781 268.081538 
L 117.626343 268.081538 
L 117.626343 267.852077 
L 117.820578 267.852077 
L 117.820578 267.737347 
L 117.958004 267.737347 
L 117.958004 267.622616 
L 118.337133 267.622616 
L 118.337133 267.393156 
L 119.020084 267.393156 
L 119.097192 267.163695 
L 119.351785 267.163695 
L 119.351785 267.048964 
L 119.677294 267.048964 
L 119.677294 266.934234 
L 120.310634 266.934234 
L 120.310634 266.819504 
L 120.618882 266.819504 
L 120.618882 266.704773 
L 120.921776 266.704773 
L 120.921776 266.590043 
L 121.105591 266.590043 
L 121.105591 266.245852 
L 121.219499 266.245852 
L 121.219499 266.131122 
L 122.362027 266.131122 
L 122.362027 266.016391 
L 122.906394 266.016391 
L 122.947573 265.786931 
L 123.029641 265.786931 
L 123.050097 265.55747 
L 123.172336 265.55747 
L 123.172336 265.328009 
L 123.474235 265.328009 
L 123.474235 265.213279 
L 123.692353 265.213279 
L 123.692353 264.983818 
L 124.120571 264.983818 
L 124.120571 264.869088 
L 124.444412 264.869088 
L 124.482119 264.639627 
L 124.92835 264.639627 
L 124.92835 264.410167 
L 125.165375 264.410167 
L 125.219619 264.180706 
L 125.452744 264.180706 
L 125.452744 263.951245 
L 125.857712 263.951245 
L 125.857712 263.836515 
L 126.338353 263.836515 
L 126.338353 263.721785 
L 126.52361 263.721785 
L 126.52361 263.607054 
L 126.690335 263.607054 
L 126.773103 263.262863 
L 126.921104 263.262863 
L 126.921104 263.148133 
L 127.421479 263.148133 
L 127.421479 263.033402 
L 127.579875 263.033402 
L 127.642832 262.803942 
L 127.783662 262.803942 
L 127.783662 262.689211 
L 127.938816 262.689211 
L 127.985095 262.459751 
L 128.184228 262.459751 
L 128.229861 262.000829 
L 128.381113 262.000829 
L 128.381113 261.886099 
L 128.871138 261.886099 
L 128.973336 261.541908 
L 129.06046 261.541908 
L 129.118302 261.312447 
L 129.362011 261.312447 
L 129.362011 261.197717 
L 129.88095 261.197717 
L 129.88095 261.082987 
L 130.155159 261.082987 
L 130.155159 260.968256 
L 130.344571 260.968256 
L 130.411722 260.738796 
L 130.491965 260.738796 
L 130.491965 260.624065 
L 130.717333 260.624065 
L 130.756803 260.394605 
L 131.095188 260.394605 
L 131.095188 260.279874 
L 131.26195 260.279874 
L 131.26195 260.165144 
L 131.590764 260.165144 
L 131.653293 259.820953 
L 131.913493 259.820953 
L 131.913493 259.476762 
L 132.314693 259.476762 
L 132.398622 259.247301 
L 132.975083 259.247301 
L 133.02131 258.558919 
L 133.170708 258.558919 
L 133.170708 258.444189 
L 133.29613 258.444189 
L 133.29613 258.214728 
L 133.733678 258.214728 
L 133.755823 257.870537 
L 133.899085 257.870537 
L 133.899085 257.755807 
L 134.019394 257.755807 
L 134.019394 257.641076 
L 134.61933 257.641076 
L 134.661403 257.411616 
L 134.932432 257.411616 
L 134.932432 257.296885 
L 135.148305 257.296885 
L 135.25017 257.067425 
L 135.280614 257.067425 
L 135.381712 256.723234 
L 135.512269 256.723234 
L 135.512269 256.608503 
L 135.937276 256.608503 
L 135.937276 256.493773 
L 136.160425 256.493773 
L 136.160425 256.379043 
L 136.399782 256.379043 
L 136.399782 256.264312 
L 136.513517 256.264312 
L 136.522961 255.920121 
L 137.126135 255.920121 
L 137.126135 255.805391 
L 137.478274 255.805391 
L 137.478274 255.69066 
L 137.594091 255.69066 
L 137.673823 255.4612 
L 137.936996 255.4612 
L 137.936996 255.346469 
L 138.049816 255.346469 
L 138.049816 255.231739 
L 138.161911 255.231739 
L 138.161911 255.117009 
L 138.578062 255.117009 
L 138.661784 254.887548 
L 138.976312 254.887548 
L 138.976312 254.772818 
L 139.139602 254.772818 
L 139.139602 254.658087 
L 139.461666 254.658087 
L 139.461666 254.543357 
L 139.863856 254.543357 
L 139.863856 254.428627 
L 140.241728 254.428627 
L 140.241728 254.313896 
L 140.574203 254.313896 
L 140.574203 254.199166 
L 140.841591 254.199166 
L 140.944478 253.854975 
L 141.046761 253.854975 
L 141.046761 253.740245 
L 141.321401 253.740245 
L 141.414373 253.510784 
L 141.71841 253.510784 
L 141.767407 253.166593 
L 141.927433 253.166593 
L 141.927433 253.051863 
L 142.140824 253.051863 
L 142.229539 252.822402 
L 142.405626 252.822402 
L 142.405626 252.707672 
L 142.579953 252.707672 
L 142.666468 252.478211 
L 142.825068 252.478211 
L 142.825068 252.36348 
L 143.008296 252.36348 
L 143.092717 252.13402 
L 143.672487 252.13402 
L 143.672487 252.019289 
L 143.970708 252.019289 
L 144.075117 251.789829 
L 144.233601 251.789829 
L 144.233601 251.675098 
L 144.426702 251.675098 
L 144.426702 251.560368 
L 144.68286 251.560368 
L 144.68286 251.445638 
L 144.847661 251.445638 
L 144.847661 251.330907 
L 144.987689 251.330907 
L 144.987689 251.216177 
L 145.378437 251.216177 
L 145.378437 251.101447 
L 145.559333 251.101447 
L 145.559333 250.986716 
L 145.671447 250.986716 
L 145.671447 250.871986 
L 145.827205 250.871986 
L 145.888018 250.642525 
L 147.322917 250.642525 
L 147.322917 250.527795 
L 160.767258 250.527795 
L 160.767258 250.413065 
L 230.316721 250.413065 
L 230.427152 241.578828 
L 230.432218 241.578828 
L 230.459126 240.087334 
L 242.40375 240.087334 
L 242.467635 232.859322 
L 249.474305 232.859322 
L 249.576645 228.384839 
L 254.49212 228.384839 
L 254.520926 223.566164 
L 258.381598 223.566164 
L 258.404005 219.550602 
L 261.561153 219.550602 
L 261.580365 216.797074 
L 264.249797 216.797074 
L 264.264933 214.731928 
L 266.577553 214.731928 
L 266.591948 212.20786 
L 268.630534 212.20786 
L 268.644023 210.257444 
L 270.467996 210.257444 
L 270.480563 208.76595 
L 272.130229 208.76595 
L 272.140402 207.389186 
L 273.647958 207.389186 
L 273.656067 206.241882 
L 275.043151 206.241882 
L 275.051207 204.750388 
L 276.336443 204.750388 
L 276.343283 203.947275 
L 277.539095 203.947275 
L 277.5457 203.029433 
L 278.666109 203.029433 
L 278.668933 202.455781 
L 279.720622 202.455781 
L 279.727337 201.882129 
L 280.717701 201.882129 
L 280.723397 201.193747 
L 281.662518 201.193747 
L 281.666305 200.734826 
L 282.557985 200.734826 
L 282.558129 200.505365 
L 283.408959 200.505365 
L 283.409918 200.275904 
L 284.217195 200.275904 
L 284.218524 200.046444 
L 284.992268 200.046444 
L 284.994226 199.816983 
L 285.73551 199.816983 
L 285.73674 199.587522 
L 286.447139 199.587522 
L 286.449756 199.243331 
L 287.132336 199.243331 
L 287.134323 198.89914 
L 287.789791 198.89914 
L 287.789791 198.78441 
L 288.425462 198.78441 
L 288.426261 198.554949 
L 289.03479 198.554949 
L 289.03479 198.440219 
L 292.314177 198.440219 
L 292.315485 198.210758 
L 292.806693 198.210758 
L 292.806693 198.096028 
L 297.08019 198.096028 
L 297.08019 197.981298 
L 338.688 197.981298 
L 338.688 197.981298 
" style="fill:none;stroke:#ff00ff;stroke-linecap:square;stroke-width:1.5;"/>
   </g>
   <g id="line2d_41">
    <defs>
     <path d="M -0 8.485281 
L 5.091169 0 
L 0 -8.485281 
L -5.091169 -0 
z
" id="meacdbb43c2" style="stroke:#ff00ff;stroke-linejoin:miter;stroke-width:1.5;"/>
    </defs>
    <g>
     <use style="fill-opacity:0;stroke:#ff00ff;stroke-linejoin:miter;stroke-width:1.5;" x="122.362027" xlink:href="#meacdbb43c2" y="266.016391"/>
     <use style="fill-opacity:0;stroke:#ff00ff;stroke-linejoin:miter;stroke-width:1.5;" x="160.767258" xlink:href="#meacdbb43c2" y="250.527795"/>
     <use style="fill-opacity:0;stroke:#ff00ff;stroke-linejoin:miter;stroke-width:1.5;" x="258.404005" xlink:href="#meacdbb43c2" y="219.665333"/>
     <use style="fill-opacity:0;stroke:#ff00ff;stroke-linejoin:miter;stroke-width:1.5;" x="297.08019" xlink:href="#meacdbb43c2" y="197.981298"/>
     <use style="fill-opacity:0;stroke:#ff00ff;stroke-linejoin:miter;stroke-width:1.5;" x="297.08019" xlink:href="#meacdbb43c2" y="197.981298"/>
     <use style="fill-opacity:0;stroke:#ff00ff;stroke-linejoin:miter;stroke-width:1.5;" x="338.688" xlink:href="#meacdbb43c2" y="197.981298"/>
    </g>
   </g>
   <g id="line2d_42">
    <path style="fill:none;stroke:#ff00ff;stroke-linecap:square;stroke-width:1.5;"/>
    <g/>
   </g>
   <g id="line2d_43">
    <path clip-path="url(#pdb0ffa9b3e)" d="M 230.310182 250.413065 
" style="fill:none;stroke:#ff00ff;stroke-linecap:square;stroke-width:1.5;"/>
    <defs>
     <path d="M -12 12 
L 12 -12 
M -12 -12 
L 12 12 
" id="m36a961a567" style="stroke:#ff00ff;"/>
    </defs>
    <g clip-path="url(#pdb0ffa9b3e)">
     <use style="fill:#ff00ff;stroke:#ff00ff;" x="230.310182" xlink:href="#m36a961a567" y="250.413065"/>
    </g>
   </g>
   <g id="line2d_44">
    <path d="M 338.688 197.981298 
L 369.60768 293.092752 
" style="fill:none;stroke:#ff00ff;stroke-linecap:square;stroke-width:1.5;"/>
    <g>
     <use style="fill-opacity:0;stroke:#ff00ff;stroke-linejoin:miter;stroke-width:1.5;" x="338.688" xlink:href="#meacdbb43c2" y="197.981298"/>
     <use style="fill-opacity:0;stroke:#ff00ff;stroke-linejoin:miter;stroke-width:1.5;" x="369.60768" xlink:href="#meacdbb43c2" y="293.092752"/>
    </g>
   </g>
   <g id="line2d_45">
    <path d="M 338.688 197.981298 
L 369.60768 152.662812 
" style="fill:none;stroke:#000080;stroke-linecap:square;stroke-width:1.5;"/>
    <g>
     <use style="fill-opacity:0;stroke:#000080;stroke-width:1.5;" x="338.688" xlink:href="#m93fe74869f" y="197.981298"/>
     <use style="fill-opacity:0;stroke:#000080;stroke-width:1.5;" x="369.60768" xlink:href="#m93fe74869f" y="152.662812"/>
    </g>
   </g>
   <g id="line2d_46">
    <path d="M 338.688 298.944 
L 338.688 6.381624 
" style="fill:none;stroke:#000000;stroke-linecap:square;stroke-width:1.5;"/>
   </g>
   <g id="patch_3">
    <path d="M 57.6 298.944 
L 57.6 3.456 
" style="fill:none;stroke:#000000;stroke-linecap:square;stroke-linejoin:miter;stroke-width:0.8;"/>
   </g>
   <g id="patch_4">
    <path d="M 338.688 298.944 
L 338.688 3.456 
" style="fill:none;stroke:#000000;stroke-linecap:square;stroke-linejoin:miter;stroke-width:0.8;"/>
   </g>
   <g id="patch_5">
    <path d="M 57.6 298.944 
L 338.688 298.944 
" style="fill:none;stroke:#000000;stroke-linecap:square;stroke-linejoin:miter;stroke-width:0.8;"/>
   </g>
   <g id="patch_6">
    <path d="M 57.6 3.456 
L 338.688 3.456 
" style="fill:none;stroke:#000000;stroke-linecap:square;stroke-linejoin:miter;stroke-width:0.8;"/>
   </g>
   <g id="text_13">
    <!-- maes mid -->
    <g transform="translate(375.22944 297.78369)scale(0.17 -0.17)">
     <use xlink:href="#DejaVuSans-109"/>
     <use x="97.412109" xlink:href="#DejaVuSans-97"/>
     <use x="158.691406" xlink:href="#DejaVuSans-101"/>
     <use x="220.214844" xlink:href="#DejaVuSans-115"/>
     <use x="272.314453" xlink:href="#DejaVuSans-32"/>
     <use x="304.101562" xlink:href="#DejaVuSans-109"/>
     <use x="401.513672" xlink:href="#DejaVuSans-105"/>
     <use x="429.296875" xlink:href="#DejaVuSans-100"/>
    </g>
   </g>
   <g id="text_14">
    <!-- maes -->
    <g transform="translate(375.22944 157.353749)scale(0.17 -0.17)">
     <use xlink:href="#DejaVuSans-109"/>
     <use x="97.412109" xlink:href="#DejaVuSans-97"/>
     <use x="158.691406" xlink:href="#DejaVuSans-101"/>
     <use x="220.214844" xlink:href="#DejaVuSans-115"/>
    </g>
   </g>
   <g id="text_15">
    <!-- best 2009 -->
    <g transform="translate(375.22944 16.923809)scale(0.17 -0.17)">
     <defs>
      <path d="M 48.6875 27.296875 
Q 48.6875 37.203125 44.609375 42.84375 
Q 40.53125 48.484375 33.40625 48.484375 
Q 26.265625 48.484375 22.1875 42.84375 
Q 18.109375 37.203125 18.109375 27.296875 
Q 18.109375 17.390625 22.1875 11.75 
Q 26.265625 6.109375 33.40625 6.109375 
Q 40.53125 6.109375 44.609375 11.75 
Q 48.6875 17.390625 48.6875 27.296875 
z
M 18.109375 46.390625 
Q 20.953125 51.265625 25.265625 53.625 
Q 29.59375 56 35.59375 56 
Q 45.5625 56 51.78125 48.09375 
Q 58.015625 40.1875 58.015625 27.296875 
Q 58.015625 14.40625 51.78125 6.484375 
Q 45.5625 -1.421875 35.59375 -1.421875 
Q 29.59375 -1.421875 25.265625 0.953125 
Q 20.953125 3.328125 18.109375 8.203125 
L 18.109375 0 
L 9.078125 0 
L 9.078125 75.984375 
L 18.109375 75.984375 
z
" id="DejaVuSans-98"/>
      <path d="M 10.984375 1.515625 
L 10.984375 10.5 
Q 14.703125 8.734375 18.5 7.8125 
Q 22.3125 6.890625 25.984375 6.890625 
Q 35.75 6.890625 40.890625 13.453125 
Q 46.046875 20.015625 46.78125 33.40625 
Q 43.953125 29.203125 39.59375 26.953125 
Q 35.25 24.703125 29.984375 24.703125 
Q 19.046875 24.703125 12.671875 31.3125 
Q 6.296875 37.9375 6.296875 49.421875 
Q 6.296875 60.640625 12.9375 67.421875 
Q 19.578125 74.21875 30.609375 74.21875 
Q 43.265625 74.21875 49.921875 64.515625 
Q 56.59375 54.828125 56.59375 36.375 
Q 56.59375 19.140625 48.40625 8.859375 
Q 40.234375 -1.421875 26.421875 -1.421875 
Q 22.703125 -1.421875 18.890625 -0.6875 
Q 15.09375 0.046875 10.984375 1.515625 
z
M 30.609375 32.421875 
Q 37.25 32.421875 41.125 36.953125 
Q 45.015625 41.5 45.015625 49.421875 
Q 45.015625 57.28125 41.125 61.84375 
Q 37.25 66.40625 30.609375 66.40625 
Q 23.96875 66.40625 20.09375 61.84375 
Q 16.21875 57.28125 16.21875 49.421875 
Q 16.21875 41.5 20.09375 36.953125 
Q 23.96875 32.421875 30.609375 32.421875 
z
" id="DejaVuSans-57"/>
     </defs>
     <use xlink:href="#DejaVuSans-98"/>
     <use x="63.476562" xlink:href="#DejaVuSans-101"/>
     <use x="125" xlink:href="#DejaVuSans-115"/>
     <use x="177.099609" xlink:href="#DejaVuSans-116"/>
     <use x="216.308594" xlink:href="#DejaVuSans-32"/>
     <use x="248.095703" xlink:href="#DejaVuSans-50"/>
     <use x="311.71875" xlink:href="#DejaVuSans-48"/>
     <use x="375.341797" xlink:href="#DejaVuSans-48"/>
     <use x="438.964844" xlink:href="#DejaVuSans-57"/>
    </g>
   </g>
   <g id="text_16">
    <!-- bbob f20-f24, 20-D -->
    <g transform="translate(60.41088 14.161286)scale(0.102 -0.102)">
     <defs>
      <path d="M 19.671875 64.796875 
L 19.671875 8.109375 
L 31.59375 8.109375 
Q 46.6875 8.109375 53.6875 14.9375 
Q 60.6875 21.78125 60.6875 36.53125 
Q 60.6875 51.171875 53.6875 57.984375 
Q 46.6875 64.796875 31.59375 64.796875 
z
M 9.8125 72.90625 
L 30.078125 72.90625 
Q 51.265625 72.90625 61.171875 64.09375 
Q 71.09375 55.28125 71.09375 36.53125 
Q 71.09375 17.671875 61.125 8.828125 
Q 51.171875 0 30.078125 0 
L 9.8125 0 
z
" id="DejaVuSans-68"/>
     </defs>
     <use xlink:href="#DejaVuSans-98"/>
     <use x="63.476562" xlink:href="#DejaVuSans-98"/>
     <use x="126.953125" xlink:href="#DejaVuSans-111"/>
     <use x="188.134766" xlink:href="#DejaVuSans-98"/>
     <use x="251.611328" xlink:href="#DejaVuSans-32"/>
     <use x="283.398438" xlink:href="#DejaVuSans-102"/>
     <use x="318.603516" xlink:href="#DejaVuSans-50"/>
     <use x="382.226562" xlink:href="#DejaVuSans-48"/>
     <use x="445.849609" xlink:href="#DejaVuSans-45"/>
     <use x="481.933594" xlink:href="#DejaVuSans-102"/>
     <use x="517.138672" xlink:href="#DejaVuSans-50"/>
     <use x="580.761719" xlink:href="#DejaVuSans-52"/>
     <use x="644.384766" xlink:href="#DejaVuSans-44"/>
     <use x="676.171875" xlink:href="#DejaVuSans-32"/>
     <use x="707.958984" xlink:href="#DejaVuSans-50"/>
     <use x="771.582031" xlink:href="#DejaVuSans-48"/>
     <use x="835.205078" xlink:href="#DejaVuSans-45"/>
     <use x="871.289062" xlink:href="#DejaVuSans-68"/>
    </g>
    <!-- 51 targets: 100..1e-08 -->
    <g transform="translate(60.41088 25.583055)scale(0.102 -0.102)">
     <defs>
      <path d="M 10.796875 72.90625 
L 49.515625 72.90625 
L 49.515625 64.59375 
L 19.828125 64.59375 
L 19.828125 46.734375 
Q 21.96875 47.46875 24.109375 47.828125 
Q 26.265625 48.1875 28.421875 48.1875 
Q 40.625 48.1875 47.75 41.5 
Q 54.890625 34.8125 54.890625 23.390625 
Q 54.890625 11.625 47.5625 5.09375 
Q 40.234375 -1.421875 26.90625 -1.421875 
Q 22.3125 -1.421875 17.546875 -0.640625 
Q 12.796875 0.140625 7.71875 1.703125 
L 7.71875 11.625 
Q 12.109375 9.234375 16.796875 8.0625 
Q 21.484375 6.890625 26.703125 6.890625 
Q 35.15625 6.890625 40.078125 11.328125 
Q 45.015625 15.765625 45.015625 23.390625 
Q 45.015625 31 40.078125 35.4375 
Q 35.15625 39.890625 26.703125 39.890625 
Q 22.75 39.890625 18.8125 39.015625 
Q 14.890625 38.140625 10.796875 36.28125 
z
" id="DejaVuSans-53"/>
      <path d="M 11.71875 12.40625 
L 22.015625 12.40625 
L 22.015625 0 
L 11.71875 0 
z
M 11.71875 51.703125 
L 22.015625 51.703125 
L 22.015625 39.3125 
L 11.71875 39.3125 
z
" id="DejaVuSans-58"/>
     </defs>
     <use xlink:href="#DejaVuSans-53"/>
     <use x="63.623047" xlink:href="#DejaVuSans-49"/>
     <use x="127.246094" xlink:href="#DejaVuSans-32"/>
     <use x="159.033203" xlink:href="#DejaVuSans-116"/>
     <use x="198.242188" xlink:href="#DejaVuSans-97"/>
     <use x="259.521484" xlink:href="#DejaVuSans-114"/>
     <use x="298.884766" xlink:href="#DejaVuSans-103"/>
     <use x="362.361328" xlink:href="#DejaVuSans-101"/>
     <use x="423.884766" xlink:href="#DejaVuSans-116"/>
     <use x="463.09375" xlink:href="#DejaVuSans-115"/>
     <use x="515.193359" xlink:href="#DejaVuSans-58"/>
     <use x="548.884766" xlink:href="#DejaVuSans-32"/>
     <use x="580.671875" xlink:href="#DejaVuSans-49"/>
     <use x="644.294922" xlink:href="#DejaVuSans-48"/>
     <use x="707.917969" xlink:href="#DejaVuSans-48"/>
     <use x="771.541016" xlink:href="#DejaVuSans-46"/>
     <use x="803.328125" xlink:href="#DejaVuSans-46"/>
     <use x="835.115234" xlink:href="#DejaVuSans-49"/>
     <use x="898.738281" xlink:href="#DejaVuSans-101"/>
     <use x="960.261719" xlink:href="#DejaVuSans-45"/>
     <use x="996.345703" xlink:href="#DejaVuSans-48"/>
     <use x="1059.96875" xlink:href="#DejaVuSans-56"/>
    </g>
    <!-- 15 instances -->
    <g transform="translate(60.41088 37.004824)scale(0.102 -0.102)">
     <use xlink:href="#DejaVuSans-49"/>
     <use x="63.623047" xlink:href="#DejaVuSans-53"/>
     <use x="127.246094" xlink:href="#DejaVuSans-32"/>
     <use x="159.033203" xlink:href="#DejaVuSans-105"/>
     <use x="186.816406" xlink:href="#DejaVuSans-110"/>
     <use x="250.195312" xlink:href="#DejaVuSans-115"/>
     <use x="302.294922" xlink:href="#DejaVuSans-116"/>
     <use x="341.503906" xlink:href="#DejaVuSans-97"/>
     <use x="402.783203" xlink:href="#DejaVuSans-110"/>
     <use x="466.162109" xlink:href="#DejaVuSans-99"/>
     <use x="521.142578" xlink:href="#DejaVuSans-101"/>
     <use x="582.666016" xlink:href="#DejaVuSans-115"/>
    </g>
   </g>
   <g id="text_17">
    <!-- v2.4 -->
    <g style="fill:#808080;" transform="translate(187.233062 293.909432)scale(0.1 -0.1)">
     <use xlink:href="#DejaVuSans-118"/>
     <use x="59.179688" xlink:href="#DejaVuSans-50"/>
     <use x="122.802734" xlink:href="#DejaVuSans-46"/>
     <use x="154.589844" xlink:href="#DejaVuSans-52"/>
    </g>
   </g>
  </g>
 </g>
 <defs>
  <clipPath id="pdb0ffa9b3e">
   <rect height="295.488" width="281.088" x="57.6" y="3.456"/>
  </clipPath>
 </defs>
</svg>
