<?xml version="1.0" encoding="utf-8" standalone="no"?>
<!DOCTYPE svg PUBLIC "-//W3C//DTD SVG 1.1//EN"
  "http://www.w3.org/Graphics/SVG/1.1/DTD/svg11.dtd">
<!-- Created with matplotlib (https://matplotlib.org/) -->
<svg height="345.6pt" version="1.1" viewBox="0 0 460.8 345.6" width="460.8pt" xmlns="http://www.w3.org/2000/svg" xmlns:xlink="http://www.w3.org/1999/xlink">
 <metadata>
  <rdf:RDF xmlns:cc="http://creativecommons.org/ns#" xmlns:dc="http://purl.org/dc/elements/1.1/" xmlns:rdf="http://www.w3.org/1999/02/22-rdf-syntax-ns#">
   <cc:Work>
    <dc:type rdf:resource="http://purl.org/dc/dcmitype/StillImage"/>
    <dc:date>2021-06-17T01:37:15.949965</dc:date>
    <dc:format>image/svg+xml</dc:format>
    <dc:creator>
     <cc:Agent>
      <dc:title>Matplotlib v3.3.4, https://matplotlib.org/</dc:title>
     </cc:Agent>
    </dc:creator>
   </cc:Work>
  </rdf:RDF>
 </metadata>
 <defs>
  <style type="text/css">*{stroke-linecap:butt;stroke-linejoin:round;}</style>
 </defs>
 <g id="figure_1">
  <g id="patch_1">
   <path d="M 0 345.6 
L 460.8 345.6 
L 460.8 0 
L 0 0 
z
" style="fill:#ffffff;"/>
  </g>
  <g id="axes_1">
   <g id="patch_2">
    <path d="M 0 293.76 
L 460.8 293.76 
L 460.8 3.456 
L 0 3.456 
z
" style="fill:#ffffff;"/>
   </g>
   <g id="matplotlib.axis_1">
    <g id="xtick_1">
     <g id="line2d_1">
      <path clip-path="url(#pd745b641e7)" d="M 105.789456 293.76 
L 105.789456 3.456 
" style="fill:none;stroke:#b0b0b0;stroke-linecap:square;stroke-width:0.8;"/>
     </g>
     <g id="line2d_2">
      <defs>
       <path d="M 0 0 
L 0 3.5 
" id="m51b8760b7f" style="stroke:#000000;stroke-width:0.8;"/>
      </defs>
      <g>
       <use style="stroke:#000000;stroke-width:0.8;" x="105.789456" xlink:href="#m51b8760b7f" y="293.76"/>
      </g>
     </g>
     <g id="text_1">
      <!-- -4 -->
      <g transform="translate(95.819144 315.956875)scale(0.2 -0.2)">
       <defs>
        <path d="M 4.890625 31.390625 
L 31.203125 31.390625 
L 31.203125 23.390625 
L 4.890625 23.390625 
z
" id="DejaVuSans-45"/>
        <path d="M 37.796875 64.3125 
L 12.890625 25.390625 
L 37.796875 25.390625 
z
M 35.203125 72.90625 
L 47.609375 72.90625 
L 47.609375 25.390625 
L 58.015625 25.390625 
L 58.015625 17.1875 
L 47.609375 17.1875 
L 47.609375 0 
L 37.796875 0 
L 37.796875 17.1875 
L 4.890625 17.1875 
L 4.890625 26.703125 
z
" id="DejaVuSans-52"/>
       </defs>
       <use xlink:href="#DejaVuSans-45"/>
       <use x="36.083984" xlink:href="#DejaVuSans-52"/>
      </g>
     </g>
    </g>
    <g id="xtick_2">
     <g id="line2d_3">
      <path clip-path="url(#pd745b641e7)" d="M 211.693325 293.76 
L 211.693325 3.456 
" style="fill:none;stroke:#b0b0b0;stroke-linecap:square;stroke-width:0.8;"/>
     </g>
     <g id="line2d_4">
      <g>
       <use style="stroke:#000000;stroke-width:0.8;" x="211.693325" xlink:href="#m51b8760b7f" y="293.76"/>
      </g>
     </g>
     <g id="text_2">
      <!-- 0 -->
      <g transform="translate(205.330825 315.956875)scale(0.2 -0.2)">
       <defs>
        <path d="M 31.78125 66.40625 
Q 24.171875 66.40625 20.328125 58.90625 
Q 16.5 51.421875 16.5 36.375 
Q 16.5 21.390625 20.328125 13.890625 
Q 24.171875 6.390625 31.78125 6.390625 
Q 39.453125 6.390625 43.28125 13.890625 
Q 47.125 21.390625 47.125 36.375 
Q 47.125 51.421875 43.28125 58.90625 
Q 39.453125 66.40625 31.78125 66.40625 
z
M 31.78125 74.21875 
Q 44.046875 74.21875 50.515625 64.515625 
Q 56.984375 54.828125 56.984375 36.375 
Q 56.984375 17.96875 50.515625 8.265625 
Q 44.046875 -1.421875 31.78125 -1.421875 
Q 19.53125 -1.421875 13.0625 8.265625 
Q 6.59375 17.96875 6.59375 36.375 
Q 6.59375 54.828125 13.0625 64.515625 
Q 19.53125 74.21875 31.78125 74.21875 
z
" id="DejaVuSans-48"/>
       </defs>
       <use xlink:href="#DejaVuSans-48"/>
      </g>
     </g>
    </g>
    <g id="xtick_3">
     <g id="line2d_5">
      <path clip-path="url(#pd745b641e7)" d="M 317.597194 293.76 
L 317.597194 3.456 
" style="fill:none;stroke:#b0b0b0;stroke-linecap:square;stroke-width:0.8;"/>
     </g>
     <g id="line2d_6">
      <g>
       <use style="stroke:#000000;stroke-width:0.8;" x="317.597194" xlink:href="#m51b8760b7f" y="293.76"/>
      </g>
     </g>
     <g id="text_3">
      <!-- 4 -->
      <g transform="translate(311.234694 315.956875)scale(0.2 -0.2)">
       <use xlink:href="#DejaVuSans-52"/>
      </g>
     </g>
    </g>
    <g id="xtick_4">
     <g id="line2d_7">
      <path clip-path="url(#pd745b641e7)" d="M 423.501063 293.76 
L 423.501063 3.456 
" style="fill:none;stroke:#b0b0b0;stroke-linecap:square;stroke-width:0.8;"/>
     </g>
     <g id="line2d_8">
      <g>
       <use style="stroke:#000000;stroke-width:0.8;" x="423.501063" xlink:href="#m51b8760b7f" y="293.76"/>
      </g>
     </g>
     <g id="text_4">
      <!-- 8 -->
      <g transform="translate(417.138563 315.956875)scale(0.2 -0.2)">
       <defs>
        <path d="M 31.78125 34.625 
Q 24.75 34.625 20.71875 30.859375 
Q 16.703125 27.09375 16.703125 20.515625 
Q 16.703125 13.921875 20.71875 10.15625 
Q 24.75 6.390625 31.78125 6.390625 
Q 38.8125 6.390625 42.859375 10.171875 
Q 46.921875 13.96875 46.921875 20.515625 
Q 46.921875 27.09375 42.890625 30.859375 
Q 38.875 34.625 31.78125 34.625 
z
M 21.921875 38.8125 
Q 15.578125 40.375 12.03125 44.71875 
Q 8.5 49.078125 8.5 55.328125 
Q 8.5 64.0625 14.71875 69.140625 
Q 20.953125 74.21875 31.78125 74.21875 
Q 42.671875 74.21875 48.875 69.140625 
Q 55.078125 64.0625 55.078125 55.328125 
Q 55.078125 49.078125 51.53125 44.71875 
Q 48 40.375 41.703125 38.8125 
Q 48.828125 37.15625 52.796875 32.3125 
Q 56.78125 27.484375 56.78125 20.515625 
Q 56.78125 9.90625 50.3125 4.234375 
Q 43.84375 -1.421875 31.78125 -1.421875 
Q 19.734375 -1.421875 13.25 4.234375 
Q 6.78125 9.90625 6.78125 20.515625 
Q 6.78125 27.484375 10.78125 32.3125 
Q 14.796875 37.15625 21.921875 38.8125 
z
M 18.3125 54.390625 
Q 18.3125 48.734375 21.84375 45.5625 
Q 25.390625 42.390625 31.78125 42.390625 
Q 38.140625 42.390625 41.71875 45.5625 
Q 45.3125 48.734375 45.3125 54.390625 
Q 45.3125 60.0625 41.71875 63.234375 
Q 38.140625 66.40625 31.78125 66.40625 
Q 25.390625 66.40625 21.84375 63.234375 
Q 18.3125 60.0625 18.3125 54.390625 
z
" id="DejaVuSans-56"/>
       </defs>
       <use xlink:href="#DejaVuSans-56"/>
      </g>
     </g>
    </g>
    <g id="text_5">
     <!-- log10 of Df -->
     <g transform="translate(175.214063 339.313125)scale(0.2 -0.2)">
      <defs>
       <path d="M 9.421875 75.984375 
L 18.40625 75.984375 
L 18.40625 0 
L 9.421875 0 
z
" id="DejaVuSans-108"/>
       <path d="M 30.609375 48.390625 
Q 23.390625 48.390625 19.1875 42.75 
Q 14.984375 37.109375 14.984375 27.296875 
Q 14.984375 17.484375 19.15625 11.84375 
Q 23.34375 6.203125 30.609375 6.203125 
Q 37.796875 6.203125 41.984375 11.859375 
Q 46.1875 17.53125 46.1875 27.296875 
Q 46.1875 37.015625 41.984375 42.703125 
Q 37.796875 48.390625 30.609375 48.390625 
z
M 30.609375 56 
Q 42.328125 56 49.015625 48.375 
Q 55.71875 40.765625 55.71875 27.296875 
Q 55.71875 13.875 49.015625 6.21875 
Q 42.328125 -1.421875 30.609375 -1.421875 
Q 18.84375 -1.421875 12.171875 6.21875 
Q 5.515625 13.875 5.515625 27.296875 
Q 5.515625 40.765625 12.171875 48.375 
Q 18.84375 56 30.609375 56 
z
" id="DejaVuSans-111"/>
       <path d="M 45.40625 27.984375 
Q 45.40625 37.75 41.375 43.109375 
Q 37.359375 48.484375 30.078125 48.484375 
Q 22.859375 48.484375 18.828125 43.109375 
Q 14.796875 37.75 14.796875 27.984375 
Q 14.796875 18.265625 18.828125 12.890625 
Q 22.859375 7.515625 30.078125 7.515625 
Q 37.359375 7.515625 41.375 12.890625 
Q 45.40625 18.265625 45.40625 27.984375 
z
M 54.390625 6.78125 
Q 54.390625 -7.171875 48.1875 -13.984375 
Q 42 -20.796875 29.203125 -20.796875 
Q 24.46875 -20.796875 20.265625 -20.09375 
Q 16.0625 -19.390625 12.109375 -17.921875 
L 12.109375 -9.1875 
Q 16.0625 -11.328125 19.921875 -12.34375 
Q 23.78125 -13.375 27.78125 -13.375 
Q 36.625 -13.375 41.015625 -8.765625 
Q 45.40625 -4.15625 45.40625 5.171875 
L 45.40625 9.625 
Q 42.625 4.78125 38.28125 2.390625 
Q 33.9375 0 27.875 0 
Q 17.828125 0 11.671875 7.65625 
Q 5.515625 15.328125 5.515625 27.984375 
Q 5.515625 40.671875 11.671875 48.328125 
Q 17.828125 56 27.875 56 
Q 33.9375 56 38.28125 53.609375 
Q 42.625 51.21875 45.40625 46.390625 
L 45.40625 54.6875 
L 54.390625 54.6875 
z
" id="DejaVuSans-103"/>
       <path d="M 12.40625 8.296875 
L 28.515625 8.296875 
L 28.515625 63.921875 
L 10.984375 60.40625 
L 10.984375 69.390625 
L 28.421875 72.90625 
L 38.28125 72.90625 
L 38.28125 8.296875 
L 54.390625 8.296875 
L 54.390625 0 
L 12.40625 0 
z
" id="DejaVuSans-49"/>
       <path id="DejaVuSans-32"/>
       <path d="M 37.109375 75.984375 
L 37.109375 68.5 
L 28.515625 68.5 
Q 23.6875 68.5 21.796875 66.546875 
Q 19.921875 64.59375 19.921875 59.515625 
L 19.921875 54.6875 
L 34.71875 54.6875 
L 34.71875 47.703125 
L 19.921875 47.703125 
L 19.921875 0 
L 10.890625 0 
L 10.890625 47.703125 
L 2.296875 47.703125 
L 2.296875 54.6875 
L 10.890625 54.6875 
L 10.890625 58.5 
Q 10.890625 67.625 15.140625 71.796875 
Q 19.390625 75.984375 28.609375 75.984375 
z
" id="DejaVuSans-102"/>
       <path d="M 19.671875 64.796875 
L 19.671875 8.109375 
L 31.59375 8.109375 
Q 46.6875 8.109375 53.6875 14.9375 
Q 60.6875 21.78125 60.6875 36.53125 
Q 60.6875 51.171875 53.6875 57.984375 
Q 46.6875 64.796875 31.59375 64.796875 
z
M 9.8125 72.90625 
L 30.078125 72.90625 
Q 51.265625 72.90625 61.171875 64.09375 
Q 71.09375 55.28125 71.09375 36.53125 
Q 71.09375 17.671875 61.125 8.828125 
Q 51.171875 0 30.078125 0 
L 9.8125 0 
z
" id="DejaVuSans-68"/>
      </defs>
      <use xlink:href="#DejaVuSans-108"/>
      <use x="27.783203" xlink:href="#DejaVuSans-111"/>
      <use x="88.964844" xlink:href="#DejaVuSans-103"/>
      <use x="152.441406" xlink:href="#DejaVuSans-49"/>
      <use x="216.064453" xlink:href="#DejaVuSans-48"/>
      <use x="279.6875" xlink:href="#DejaVuSans-32"/>
      <use x="311.474609" xlink:href="#DejaVuSans-111"/>
      <use x="372.65625" xlink:href="#DejaVuSans-102"/>
      <use x="407.861328" xlink:href="#DejaVuSans-32"/>
      <use x="439.648438" xlink:href="#DejaVuSans-68"/>
      <use x="516.650391" xlink:href="#DejaVuSans-102"/>
     </g>
    </g>
   </g>
   <g id="matplotlib.axis_2">
    <g id="ytick_1">
     <g id="line2d_9">
      <path clip-path="url(#pd745b641e7)" d="M 0 293.76 
L 460.8 293.76 
" style="fill:none;stroke:#b0b0b0;stroke-linecap:square;stroke-width:0.8;"/>
     </g>
     <g id="line2d_10">
      <defs>
       <path d="M 0 0 
L -3.5 0 
" id="m00fe83f41c" style="stroke:#000000;stroke-width:0.8;"/>
      </defs>
      <g>
       <use style="stroke:#000000;stroke-width:0.8;" x="0" xlink:href="#m00fe83f41c" y="293.76"/>
      </g>
     </g>
    </g>
    <g id="ytick_2">
     <g id="line2d_11">
      <path clip-path="url(#pd745b641e7)" d="M 0 236.274059 
L 460.8 236.274059 
" style="fill:none;stroke:#b0b0b0;stroke-linecap:square;stroke-width:0.8;"/>
     </g>
     <g id="line2d_12">
      <g>
       <use style="stroke:#000000;stroke-width:0.8;" x="0" xlink:href="#m00fe83f41c" y="236.274059"/>
      </g>
     </g>
    </g>
    <g id="ytick_3">
     <g id="line2d_13">
      <path clip-path="url(#pd745b641e7)" d="M 0 178.788119 
L 460.8 178.788119 
" style="fill:none;stroke:#b0b0b0;stroke-linecap:square;stroke-width:0.8;"/>
     </g>
     <g id="line2d_14">
      <g>
       <use style="stroke:#000000;stroke-width:0.8;" x="0" xlink:href="#m00fe83f41c" y="178.788119"/>
      </g>
     </g>
    </g>
    <g id="ytick_4">
     <g id="line2d_15">
      <path clip-path="url(#pd745b641e7)" d="M 0 121.302178 
L 460.8 121.302178 
" style="fill:none;stroke:#b0b0b0;stroke-linecap:square;stroke-width:0.8;"/>
     </g>
     <g id="line2d_16">
      <g>
       <use style="stroke:#000000;stroke-width:0.8;" x="0" xlink:href="#m00fe83f41c" y="121.302178"/>
      </g>
     </g>
    </g>
    <g id="ytick_5">
     <g id="line2d_17">
      <path clip-path="url(#pd745b641e7)" d="M 0 63.816238 
L 460.8 63.816238 
" style="fill:none;stroke:#b0b0b0;stroke-linecap:square;stroke-width:0.8;"/>
     </g>
     <g id="line2d_18">
      <g>
       <use style="stroke:#000000;stroke-width:0.8;" x="0" xlink:href="#m00fe83f41c" y="63.816238"/>
      </g>
     </g>
    </g>
    <g id="ytick_6">
     <g id="line2d_19">
      <path clip-path="url(#pd745b641e7)" d="M 0 6.330297 
L 460.8 6.330297 
" style="fill:none;stroke:#b0b0b0;stroke-linecap:square;stroke-width:0.8;"/>
     </g>
     <g id="line2d_20">
      <g>
       <use style="stroke:#000000;stroke-width:0.8;" x="0" xlink:href="#m00fe83f41c" y="6.330297"/>
      </g>
     </g>
    </g>
   </g>
   <g id="line2d_21">
    <path clip-path="url(#pd745b641e7)" d="M -1 86.810614 
L -0.114413 86.810614 
L -0.114413 29.324673 
L 1.768731 29.324673 
L 1.768731 25.492277 
L 52.139391 25.492277 
L 52.139391 21.659881 
L 53.833683 21.659881 
L 53.833683 17.827485 
L 142.901182 17.827485 
L 142.901182 13.995089 
L 189.635875 13.995089 
L 189.635875 10.162693 
L 203.489577 10.162693 
L 203.489577 6.330297 
L 203.489577 6.330297 
L 460.8 6.330297 
L 460.8 6.330297 
" style="fill:none;stroke:#ff0000;stroke-linecap:square;stroke-width:3;"/>
   </g>
   <g id="line2d_22">
    <path clip-path="url(#pd745b641e7)" d="M 228.768324 293.76 
L 228.768324 289.927604 
L 228.933195 289.927604 
L 228.933195 286.095208 
L 231.566523 286.095208 
L 231.566523 282.262812 
L 231.88656 282.262812 
L 231.88656 278.430416 
L 234.903941 278.430416 
L 234.903941 274.59802 
L 236.752239 274.59802 
L 236.752239 270.765624 
L 245.966115 270.765624 
L 245.966115 266.933228 
L 246.988908 266.933228 
L 246.988908 263.100832 
L 248.953133 263.100832 
L 248.953133 259.268436 
L 249.899116 259.268436 
L 249.899116 255.43604 
L 251.895937 255.43604 
L 251.895937 251.603644 
L 256.60661 251.603644 
L 256.60661 247.771248 
L 258.698147 247.771248 
L 258.698147 243.938851 
L 259.451859 243.938851 
L 259.451859 240.106455 
L 260.552563 240.106455 
L 260.552563 236.274059 
L 279.737241 236.274059 
L 279.737241 232.441663 
L 280.03147 232.441663 
L 280.03147 228.609267 
L 282.15997 228.609267 
L 282.15997 224.776871 
L 283.797667 224.776871 
L 283.797667 220.944475 
L 288.206339 220.944475 
L 288.206339 217.112079 
L 288.910328 217.112079 
L 288.910328 213.279683 
L 289.766085 213.279683 
L 289.766085 209.447287 
L 290.953436 209.447287 
L 290.953436 205.614891 
L 291.429926 205.614891 
L 291.429926 201.782495 
L 291.661589 201.782495 
L 291.670374 194.117703 
L 292.895628 194.117703 
L 292.895628 190.285307 
L 293.51075 190.285307 
L 293.51075 186.452911 
L 295.445691 186.452911 
L 295.445691 182.620515 
L 297.905955 182.620515 
L 297.905955 178.788119 
L 298.588633 178.788119 
L 298.588633 174.955723 
L 303.870687 174.955723 
L 303.870687 171.123327 
L 324.154114 171.123327 
L 324.154114 167.290931 
L 329.909996 167.290931 
L 329.909996 163.458535 
L 335.6052 163.458535 
L 335.6052 159.626139 
L 347.315094 159.626139 
L 347.315094 155.793743 
L 352.695717 155.793743 
L 352.695717 151.961347 
L 354.104554 151.961347 
L 354.104671 144.296554 
L 356.46684 144.296554 
L 356.46684 140.464158 
L 364.939044 140.464158 
L 364.939044 136.631762 
L 373.14629 136.631762 
L 373.14629 132.799366 
L 374.803133 132.799366 
L 374.803133 128.96697 
L 376.92099 128.96697 
L 376.92099 125.134574 
L 378.146241 125.134574 
L 378.146241 121.302178 
L 381.083889 121.302178 
L 381.083889 117.469782 
L 382.715564 117.469782 
L 382.715564 113.637386 
L 385.347197 113.637386 
L 385.347197 109.80499 
L 388.68624 109.80499 
L 388.68624 105.972594 
L 388.805185 105.972594 
L 388.805185 102.140198 
L 390.036841 102.140198 
L 390.036841 98.307802 
L 390.990434 98.307802 
L 390.990434 94.475406 
L 391.221974 94.475406 
L 391.221974 90.64301 
L 392.488504 90.64301 
L 392.488504 86.810614 
L 392.830727 86.810614 
L 392.830727 82.978218 
L 394.402186 82.978218 
L 394.402186 79.145822 
L 394.58922 79.145822 
L 394.58922 75.313426 
L 395.870105 75.313426 
L 395.870105 71.48103 
L 396.594211 71.48103 
L 396.594211 67.648634 
L 397.204809 67.648634 
L 397.204809 63.816238 
L 400.917379 63.816238 
L 400.917379 59.983842 
L 402.574814 59.983842 
L 402.574814 56.151446 
L 404.434286 56.151446 
L 404.434286 52.31905 
L 404.586726 52.31905 
L 404.586726 48.486653 
L 405.11326 48.486653 
L 405.11326 44.654257 
L 407.504632 44.654257 
L 407.504632 40.821861 
L 410.66871 40.821861 
L 410.66871 36.989465 
L 411.211794 36.989465 
L 411.211794 33.157069 
L 412.952322 33.157069 
L 412.952322 29.324673 
L 413.542382 29.324673 
L 413.542382 25.492277 
L 416.269576 25.492277 
L 416.327253 17.827485 
L 428.336421 17.827485 
L 428.336421 13.995089 
L 429.201273 13.995089 
L 429.201273 10.162693 
L 431.100023 10.162693 
L 431.100023 6.330297 
L 431.100023 6.330297 
L 460.8 6.330297 
L 460.8 6.330297 
" style="fill:none;stroke:#00bfbf;stroke-linecap:square;stroke-width:1.5;"/>
   </g>
   <g id="line2d_23">
    <path clip-path="url(#pd745b641e7)" d="M 227.798058 293.76 
L 227.798058 289.927604 
L 228.530733 289.927604 
L 228.530733 286.095208 
L 228.933195 286.095208 
L 228.933195 282.262812 
L 231.497401 282.262812 
L 231.497401 278.430416 
L 234.903941 278.430416 
L 234.903941 274.59802 
L 235.677962 274.59802 
L 235.677962 270.765624 
L 245.966115 270.765624 
L 245.966115 266.933228 
L 246.445927 266.933228 
L 246.445927 263.100832 
L 248.310845 263.100832 
L 248.310845 259.268436 
L 249.899116 259.268436 
L 249.899116 255.43604 
L 251.895937 255.43604 
L 251.895937 251.603644 
L 256.26928 251.603644 
L 256.26928 247.771248 
L 257.304012 247.771248 
L 257.304012 243.938851 
L 259.214398 243.938851 
L 259.214398 240.106455 
L 260.552563 240.106455 
L 260.552563 236.274059 
L 278.247608 236.274059 
L 278.247608 232.441663 
L 278.820601 232.441663 
L 278.820601 228.609267 
L 279.988504 228.609267 
L 279.988504 224.776871 
L 281.316235 224.776871 
L 281.316235 220.944475 
L 283.082097 220.944475 
L 283.082097 217.112079 
L 287.722735 217.112079 
L 287.722735 213.279683 
L 289.450557 213.279683 
L 289.450557 209.447287 
L 289.766085 209.447287 
L 289.766085 205.614891 
L 291.084031 205.614891 
L 291.084031 201.782495 
L 291.429926 201.782495 
L 291.429926 197.950099 
L 291.670374 197.950099 
L 291.670374 194.117703 
L 292.627516 194.117703 
L 292.627516 190.285307 
L 293.218921 190.285307 
L 293.218921 186.452911 
L 295.194651 186.452911 
L 295.194651 182.620515 
L 297.120651 182.620515 
L 297.120651 178.788119 
L 298.282961 178.788119 
L 298.282961 174.955723 
L 303.870687 174.955723 
L 303.870687 171.123327 
L 305.861277 171.123327 
L 305.861277 167.290931 
L 316.745009 167.290931 
L 316.745009 163.458535 
L 328.772004 163.458535 
L 328.772004 159.626139 
L 330.482426 159.626139 
L 330.482426 155.793743 
L 351.877211 155.793743 
L 351.877211 151.961347 
L 353.877365 151.961347 
L 353.877365 148.12895 
L 354.104671 148.12895 
L 354.104671 144.296554 
L 356.46684 144.296554 
L 356.46684 140.464158 
L 360.170941 140.464158 
L 360.170941 136.631762 
L 364.695157 136.631762 
L 364.695157 132.799366 
L 370.933221 132.799366 
L 370.933221 128.96697 
L 373.14629 128.96697 
L 373.14629 125.134574 
L 374.379937 125.134574 
L 374.379937 121.302178 
L 377.15782 121.302178 
L 377.15782 117.469782 
L 379.812457 117.469782 
L 379.812457 113.637386 
L 382.715564 113.637386 
L 382.715564 109.80499 
L 386.976224 109.80499 
L 386.976224 105.972594 
L 387.670151 105.972594 
L 387.670151 102.140198 
L 388.805185 102.140198 
L 388.805185 98.307802 
L 390.990434 98.307802 
L 391.086428 90.64301 
L 391.64202 90.64301 
L 391.64202 86.810614 
L 392.134892 86.810614 
L 392.134892 82.978218 
L 394.283197 82.978218 
L 394.283197 79.145822 
L 394.58922 79.145822 
L 394.58922 75.313426 
L 395.360556 75.313426 
L 395.360556 71.48103 
L 395.870105 71.48103 
L 395.870105 67.648634 
L 396.594211 67.648634 
L 396.594211 63.816238 
L 400.917379 63.816238 
L 400.917379 59.983842 
L 401.75855 59.983842 
L 401.75855 56.151446 
L 404.434286 56.151446 
L 404.434286 52.31905 
L 404.586726 52.31905 
L 404.586726 48.486653 
L 405.11326 48.486653 
L 405.11326 44.654257 
L 406.91434 44.654257 
L 406.91434 40.821861 
L 410.66871 40.821861 
L 410.66871 36.989465 
L 411.211794 36.989465 
L 411.211794 33.157069 
L 412.012524 33.157069 
L 412.012524 29.324673 
L 413.542382 29.324673 
L 413.542382 25.492277 
L 416.269576 25.492277 
L 416.327253 17.827485 
L 424.778927 17.827485 
L 424.778927 13.995089 
L 425.422228 13.995089 
L 425.422228 10.162693 
L 431.100023 10.162693 
L 431.100023 6.330297 
L 431.100023 6.330297 
L 460.8 6.330297 
L 460.8 6.330297 
" style="fill:none;stroke:#bf00bf;stroke-linecap:square;stroke-width:1.5;"/>
   </g>
   <g id="line2d_24">
    <path clip-path="url(#pd745b641e7)" d="M 223.544365 293.76 
L 223.544365 289.927604 
L 225.726995 289.927604 
L 225.726995 286.095208 
L 227.188751 286.095208 
L 227.188751 282.262812 
L 230.28789 282.262812 
L 230.28789 278.430416 
L 232.955637 278.430416 
L 233.009181 270.765624 
L 243.279345 270.765624 
L 243.279345 266.933228 
L 244.779729 266.933228 
L 244.779729 263.100832 
L 247.9669 263.100832 
L 247.9669 259.268436 
L 248.523141 259.268436 
L 248.523141 255.43604 
L 249.001465 255.43604 
L 249.001465 251.603644 
L 250.229031 251.603644 
L 250.229031 247.771248 
L 251.638355 247.771248 
L 251.638355 243.938851 
L 255.530341 243.938851 
L 255.530341 240.106455 
L 258.172104 240.106455 
L 258.172104 236.274059 
L 258.458625 236.274059 
L 258.458625 232.441663 
L 271.662269 232.441663 
L 271.662269 228.609267 
L 276.346487 228.609267 
L 276.346487 224.776871 
L 277.029791 224.776871 
L 277.029791 220.944475 
L 278.274503 220.944475 
L 278.274503 217.112079 
L 279.988504 217.112079 
L 279.988504 213.279683 
L 280.838021 213.279683 
L 280.838021 209.447287 
L 286.369156 209.447287 
L 286.369156 205.614891 
L 288.935225 205.614891 
L 288.935225 201.782495 
L 289.19538 201.782495 
L 289.19538 197.950099 
L 289.968132 197.950099 
L 289.968132 194.117703 
L 290.305873 194.117703 
L 290.305873 190.285307 
L 291.017569 190.285307 
L 291.017569 186.452911 
L 291.921956 186.452911 
L 291.998098 178.788119 
L 292.999998 178.788119 
L 292.999998 174.955723 
L 293.246557 174.955723 
L 293.246557 171.123327 
L 296.522209 171.123327 
L 296.522209 167.290931 
L 297.747481 167.290931 
L 297.747481 163.458535 
L 316.745009 163.458535 
L 316.745009 159.626139 
L 322.921506 159.626139 
L 322.921506 155.793743 
L 323.165359 155.793743 
L 323.165359 151.961347 
L 328.772004 151.961347 
L 328.772004 148.12895 
L 345.439814 148.12895 
L 345.439814 144.296554 
L 350.34657 144.296554 
L 350.34657 140.464158 
L 353.162227 140.464158 
L 353.162227 136.631762 
L 354.170381 136.631762 
L 354.170381 132.799366 
L 361.106309 132.799366 
L 361.106309 128.96697 
L 361.269222 128.96697 
L 361.269222 125.134574 
L 366.00104 125.134574 
L 366.00104 121.302178 
L 371.708068 121.302178 
L 371.708068 117.469782 
L 378.287459 117.469782 
L 378.287459 113.637386 
L 380.335948 113.637386 
L 380.335948 109.80499 
L 385.76771 109.80499 
L 385.76771 105.972594 
L 385.968958 105.972594 
L 385.968958 102.140198 
L 386.775332 102.140198 
L 386.775332 98.307802 
L 387.559509 98.307802 
L 387.559509 94.475406 
L 387.913621 94.475406 
L 387.913621 90.64301 
L 388.703858 90.64301 
L 388.703858 86.810614 
L 389.047116 86.810614 
L 389.047116 82.978218 
L 389.891221 82.978218 
L 389.891221 79.145822 
L 391.693255 79.145822 
L 391.693255 75.313426 
L 392.708571 75.313426 
L 392.708571 71.48103 
L 393.447155 71.48103 
L 393.447155 67.648634 
L 395.360556 67.648634 
L 395.360556 63.816238 
L 398.038754 63.816238 
L 398.038754 59.983842 
L 398.317161 59.983842 
L 398.317161 56.151446 
L 403.059265 56.151446 
L 403.059265 52.31905 
L 403.306857 52.31905 
L 403.389936 44.654257 
L 404.535183 44.654257 
L 404.618404 36.989465 
L 406.964617 36.989465 
L 406.964617 33.157069 
L 409.307904 33.157069 
L 409.307904 29.324673 
L 411.800501 29.324673 
L 411.800501 25.492277 
L 413.291132 25.492277 
L 413.291132 21.659881 
L 415.391634 21.659881 
L 415.391634 17.827485 
L 420.811509 17.827485 
L 420.811509 13.995089 
L 424.478085 13.995089 
L 424.478085 10.162693 
L 428.89813 10.162693 
L 428.89813 6.330297 
L 428.89813 6.330297 
L 460.8 6.330297 
L 460.8 6.330297 
" style="fill:none;stroke:#000000;stroke-linecap:square;stroke-width:1.5;"/>
   </g>
   <g id="line2d_25">
    <path clip-path="url(#pd745b641e7)" d="M 208.635713 293.76 
L 208.635713 289.927604 
L 213.044246 289.927604 
L 213.044246 286.095208 
L 214.803947 286.095208 
L 214.803947 282.262812 
L 226.180055 282.262812 
L 226.180055 278.430416 
L 226.395301 278.430416 
L 226.395301 274.59802 
L 226.834524 274.59802 
L 226.834524 270.765624 
L 234.044435 270.765624 
L 234.044435 266.933228 
L 234.162421 266.933228 
L 234.162421 263.100832 
L 235.674879 263.100832 
L 235.674879 259.268436 
L 238.124727 259.268436 
L 238.124727 255.43604 
L 241.577847 255.43604 
L 241.684766 247.771248 
L 243.633663 247.771248 
L 243.633663 243.938851 
L 249.743582 243.938851 
L 249.743582 240.106455 
L 250.229031 240.106455 
L 250.229031 236.274059 
L 250.631063 236.274059 
L 250.631063 232.441663 
L 259.227268 232.441663 
L 259.227268 228.609267 
L 264.639569 228.609267 
L 264.639569 224.776871 
L 266.85609 224.776871 
L 266.85609 220.944475 
L 269.086292 220.944475 
L 269.086292 217.112079 
L 270.067149 217.112079 
L 270.067149 213.279683 
L 271.662269 213.279683 
L 271.751687 205.614891 
L 272.382667 205.614891 
L 272.382667 201.782495 
L 279.988504 201.782495 
L 279.988504 197.950099 
L 280.821243 197.950099 
L 280.821243 194.117703 
L 281.252734 194.117703 
L 281.252734 190.285307 
L 281.9766 190.285307 
L 281.9766 186.452911 
L 282.956357 186.452911 
L 282.956357 182.620515 
L 284.557751 182.620515 
L 284.557751 178.788119 
L 286.366523 178.788119 
L 286.366523 174.955723 
L 286.517119 174.955723 
L 286.58689 167.290931 
L 287.172557 167.290931 
L 287.231281 159.626139 
L 287.97149 159.626139 
L 287.97149 155.793743 
L 289.119442 155.793743 
L 289.119442 151.961347 
L 289.692539 151.961347 
L 289.692539 148.12895 
L 297.358208 148.12895 
L 297.358208 144.296554 
L 309.711836 144.296554 
L 309.711836 140.464158 
L 310.98156 140.464158 
L 310.98156 136.631762 
L 321.10478 136.631762 
L 321.10478 132.799366 
L 321.366061 132.799366 
L 321.366061 128.96697 
L 326.441243 128.96697 
L 326.441243 125.134574 
L 339.091707 125.134574 
L 339.091707 121.302178 
L 341.180102 121.302178 
L 341.180102 117.469782 
L 345.479851 117.469782 
L 345.479851 113.637386 
L 347.812444 113.637386 
L 347.812444 109.80499 
L 349.68182 109.80499 
L 349.68182 105.972594 
L 352.174669 105.972594 
L 352.174669 102.140198 
L 353.757562 102.140198 
L 353.757562 98.307802 
L 354.962244 98.307802 
L 354.962244 94.475406 
L 356.243927 94.475406 
L 356.243927 90.64301 
L 356.932466 90.64301 
L 356.932466 86.810614 
L 357.074761 86.810614 
L 357.074761 82.978218 
L 367.076259 82.978218 
L 367.076259 79.145822 
L 369.330863 79.145822 
L 369.330863 75.313426 
L 370.650188 75.313426 
L 370.650188 71.48103 
L 372.381119 71.48103 
L 372.381119 67.648634 
L 375.506513 67.648634 
L 375.506513 63.816238 
L 380.800812 63.816238 
L 380.800812 59.983842 
L 386.337098 59.983842 
L 386.337098 56.151446 
L 387.787515 56.151446 
L 387.787515 52.31905 
L 391.310676 52.31905 
L 391.310676 48.486653 
L 391.719817 48.486653 
L 391.799787 40.821861 
L 391.912809 40.821861 
L 391.912809 36.989465 
L 393.006464 36.989465 
L 393.006464 33.157069 
L 399.566337 33.157069 
L 399.566337 29.324673 
L 403.56507 29.324673 
L 403.56507 25.492277 
L 405.865828 25.492277 
L 405.865828 21.659881 
L 408.655535 21.659881 
L 408.732658 13.995089 
L 409.554984 13.995089 
L 409.554984 10.162693 
L 417.829663 10.162693 
L 417.829663 6.330297 
L 417.829663 6.330297 
L 460.8 6.330297 
L 460.8 6.330297 
" style="fill:none;stroke:#00bfbf;stroke-linecap:square;stroke-width:1.5;"/>
   </g>
   <g id="line2d_26">
    <path clip-path="url(#pd745b641e7)" d="M 138.444416 293.76 
L 138.444416 289.927604 
L 143.343268 289.927604 
L 143.343268 286.095208 
L 152.233666 286.095208 
L 152.233666 282.262812 
L 154.683385 282.262812 
L 154.683385 278.430416 
L 157.667579 278.430416 
L 157.667579 274.59802 
L 158.920797 274.59802 
L 158.920797 270.765624 
L 168.259009 270.765624 
L 168.259009 266.933228 
L 172.695592 266.933228 
L 172.695592 263.100832 
L 173.990652 263.100832 
L 173.990652 259.268436 
L 177.428633 259.268436 
L 177.428633 255.43604 
L 185.031075 255.43604 
L 185.031075 251.603644 
L 188.376809 251.603644 
L 188.376809 247.771248 
L 190.517588 247.771248 
L 190.517588 243.938851 
L 192.299684 243.938851 
L 192.299684 240.106455 
L 206.065832 240.106455 
L 206.065832 236.274059 
L 215.220473 236.274059 
L 215.220473 232.441663 
L 222.699559 232.441663 
L 222.699559 228.609267 
L 233.337183 228.609267 
L 233.337183 224.776871 
L 237.390818 224.776871 
L 237.390818 220.944475 
L 237.90543 220.944475 
L 237.90543 217.112079 
L 238.045728 217.112079 
L 238.045728 213.279683 
L 238.795013 213.279683 
L 238.795013 209.447287 
L 239.769965 209.447287 
L 239.769965 205.614891 
L 240.85032 205.614891 
L 240.85032 201.782495 
L 241.364927 201.782495 
L 241.364927 197.950099 
L 242.062347 197.950099 
L 242.062347 194.117703 
L 242.329657 194.117703 
L 242.329657 190.285307 
L 243.212412 190.285307 
L 243.212412 186.452911 
L 244.146651 186.452911 
L 244.146651 182.620515 
L 244.932289 182.620515 
L 244.932289 178.788119 
L 246.009276 178.788119 
L 246.009276 174.955723 
L 246.507798 174.955723 
L 246.507798 171.123327 
L 246.798668 171.123327 
L 246.798668 167.290931 
L 249.129494 167.290931 
L 249.132404 159.626139 
L 249.768654 159.626139 
L 249.768654 155.793743 
L 250.085914 155.793743 
L 250.085914 151.961347 
L 250.540633 151.961347 
L 250.540633 148.12895 
L 251.158528 148.12895 
L 251.185022 140.464158 
L 252.405313 140.464158 
L 252.405313 136.631762 
L 252.819666 136.631762 
L 252.819666 132.799366 
L 252.940912 132.799366 
L 252.96798 125.134574 
L 254.399771 125.134574 
L 254.399771 121.302178 
L 255.017829 121.302178 
L 255.017829 117.469782 
L 255.654335 117.469782 
L 255.654335 113.637386 
L 258.272986 113.637386 
L 258.272986 109.80499 
L 259.840611 109.80499 
L 259.840611 105.972594 
L 262.880419 105.972594 
L 262.880419 102.140198 
L 266.32894 102.140198 
L 266.32894 98.307802 
L 269.150536 98.307802 
L 269.150536 94.475406 
L 271.054982 94.475406 
L 271.054982 90.64301 
L 274.051528 90.64301 
L 274.051528 86.810614 
L 279.237916 86.810614 
L 279.237916 82.978218 
L 279.6615 82.978218 
L 279.6615 79.145822 
L 286.18519 79.145822 
L 286.18519 75.313426 
L 287.120931 75.313426 
L 287.120931 71.48103 
L 290.064514 71.48103 
L 290.064514 67.648634 
L 291.463697 67.648634 
L 291.463697 63.816238 
L 301.185191 63.816238 
L 301.185191 59.983842 
L 309.223586 59.983842 
L 309.223586 56.151446 
L 311.771871 56.151446 
L 311.771871 52.31905 
L 311.940442 52.31905 
L 311.940442 48.486653 
L 314.122947 48.486653 
L 314.122947 44.654257 
L 314.497483 44.654257 
L 314.497483 40.821861 
L 316.362636 40.821861 
L 316.362636 36.989465 
L 316.825018 36.989465 
L 316.825018 33.157069 
L 319.519284 33.157069 
L 319.519284 29.324673 
L 320.027783 29.324673 
L 320.027783 25.492277 
L 325.956133 25.492277 
L 325.956133 21.659881 
L 329.166077 21.659881 
L 329.166077 17.827485 
L 332.061186 17.827485 
L 332.061186 13.995089 
L 340.734752 13.995089 
L 340.734752 10.162693 
L 343.74719 10.162693 
L 343.74719 6.330297 
L 343.74719 6.330297 
L 460.8 6.330297 
L 460.8 6.330297 
" style="fill:none;stroke:#bf00bf;stroke-linecap:square;stroke-width:1.5;"/>
   </g>
   <g id="line2d_27">
    <path clip-path="url(#pd745b641e7)" d="M -1 171.123327 
L -0.114413 171.123327 
L -0.114413 159.626139 
L 33.856883 159.626139 
L 33.856883 155.793743 
L 98.015225 155.793743 
L 98.015225 151.961347 
L 110.55087 151.961347 
L 110.55087 148.12895 
L 113.582025 148.12895 
L 113.582025 144.296554 
L 114.281482 144.296554 
L 114.281482 140.464158 
L 114.80893 140.464158 
L 114.80893 136.631762 
L 120.413912 136.631762 
L 120.413912 132.799366 
L 129.526946 132.799366 
L 129.526946 128.96697 
L 131.189115 128.96697 
L 131.189115 125.134574 
L 142.901182 125.134574 
L 142.901182 121.302178 
L 143.944343 121.302178 
L 143.944343 117.469782 
L 152.778183 117.469782 
L 152.778183 113.637386 
L 159.984161 113.637386 
L 159.984161 109.80499 
L 161.237784 109.80499 
L 161.237784 105.972594 
L 165.160807 105.972594 
L 165.160807 102.140198 
L 173.576928 102.140198 
L 173.576928 98.307802 
L 173.787677 98.307802 
L 173.787677 94.475406 
L 175.202199 94.475406 
L 175.202199 90.64301 
L 186.33784 90.64301 
L 186.33784 86.810614 
L 189.635875 86.810614 
L 189.635875 82.978218 
L 190.784056 82.978218 
L 190.784056 79.145822 
L 196.468175 79.145822 
L 196.468175 75.313426 
L 197.162818 75.313426 
L 197.162818 71.48103 
L 199.824122 71.48103 
L 199.824122 67.648634 
L 203.489577 67.648634 
L 203.489577 63.816238 
L 207.051869 63.816238 
L 207.051869 59.983842 
L 209.675199 59.983842 
L 209.675199 56.151446 
L 211.1152 56.151446 
L 211.1152 52.31905 
L 211.806438 52.31905 
L 211.806438 48.486653 
L 214.000996 48.486653 
L 214.000996 44.654257 
L 214.734004 44.654257 
L 214.734004 40.821861 
L 215.358513 40.821861 
L 215.419911 33.157069 
L 219.412554 33.157069 
L 219.412554 29.324673 
L 220.918662 29.324673 
L 220.918662 25.492277 
L 222.056995 25.492277 
L 222.056995 21.659881 
L 225.098218 21.659881 
L 225.098218 17.827485 
L 228.545903 17.827485 
L 228.545903 13.995089 
L 228.998125 13.995089 
L 228.998125 10.162693 
L 236.671484 10.162693 
L 236.671484 6.330297 
L 236.671484 6.330297 
L 460.8 6.330297 
L 460.8 6.330297 
" style="fill:none;stroke:#000000;stroke-linecap:square;stroke-width:1.5;"/>
   </g>
   <g id="patch_3">
    <path d="M 0 293.76 
L 0 3.456 
" style="fill:none;stroke:#000000;stroke-linecap:square;stroke-linejoin:miter;stroke-width:0.8;"/>
   </g>
   <g id="patch_4">
    <path d="M 460.8 293.76 
L 460.8 3.456 
" style="fill:none;stroke:#000000;stroke-linecap:square;stroke-linejoin:miter;stroke-width:0.8;"/>
   </g>
   <g id="patch_5">
    <path d="M 0 293.76 
L 460.8 293.76 
" style="fill:none;stroke:#000000;stroke-linecap:square;stroke-linejoin:miter;stroke-width:0.8;"/>
   </g>
   <g id="patch_6">
    <path d="M 0 3.456 
L 460.8 3.456 
" style="fill:none;stroke:#000000;stroke-linecap:square;stroke-linejoin:miter;stroke-width:0.8;"/>
   </g>
   <g id="text_6">
    <!-- {f10-f14}, 5-D -->
    <g transform="translate(305.884 287.95392)scale(0.2 -0.2)">
     <defs>
      <path d="M 51.125 -9.28125 
L 51.125 -16.3125 
L 48.09375 -16.3125 
Q 35.9375 -16.3125 31.8125 -12.6875 
Q 27.6875 -9.078125 27.6875 1.703125 
L 27.6875 13.375 
Q 27.6875 20.75 25.046875 23.578125 
Q 22.40625 26.421875 15.484375 26.421875 
L 12.5 26.421875 
L 12.5 33.40625 
L 15.484375 33.40625 
Q 22.46875 33.40625 25.078125 36.203125 
Q 27.6875 39.015625 27.6875 46.296875 
L 27.6875 58.015625 
Q 27.6875 68.796875 31.8125 72.390625 
Q 35.9375 75.984375 48.09375 75.984375 
L 51.125 75.984375 
L 51.125 69 
L 47.796875 69 
Q 40.921875 69 38.8125 66.84375 
Q 36.71875 64.703125 36.71875 57.8125 
L 36.71875 45.703125 
Q 36.71875 38.03125 34.5 34.5625 
Q 32.28125 31.109375 26.90625 29.890625 
Q 32.328125 28.5625 34.515625 25.09375 
Q 36.71875 21.625 36.71875 14.015625 
L 36.71875 1.90625 
Q 36.71875 -4.984375 38.8125 -7.125 
Q 40.921875 -9.28125 47.796875 -9.28125 
z
" id="DejaVuSans-123"/>
      <path d="M 12.5 -9.28125 
L 15.921875 -9.28125 
Q 22.75 -9.28125 24.828125 -7.171875 
Q 26.90625 -5.078125 26.90625 1.90625 
L 26.90625 14.015625 
Q 26.90625 21.625 29.09375 25.09375 
Q 31.296875 28.5625 36.71875 29.890625 
Q 31.296875 31.109375 29.09375 34.5625 
Q 26.90625 38.03125 26.90625 45.703125 
L 26.90625 57.8125 
Q 26.90625 64.75 24.828125 66.875 
Q 22.75 69 15.921875 69 
L 12.5 69 
L 12.5 75.984375 
L 15.578125 75.984375 
Q 27.734375 75.984375 31.8125 72.390625 
Q 35.890625 68.796875 35.890625 58.015625 
L 35.890625 46.296875 
Q 35.890625 39.015625 38.515625 36.203125 
Q 41.15625 33.40625 48.09375 33.40625 
L 51.125 33.40625 
L 51.125 26.421875 
L 48.09375 26.421875 
Q 41.15625 26.421875 38.515625 23.578125 
Q 35.890625 20.75 35.890625 13.375 
L 35.890625 1.703125 
Q 35.890625 -9.078125 31.8125 -12.6875 
Q 27.734375 -16.3125 15.578125 -16.3125 
L 12.5 -16.3125 
z
" id="DejaVuSans-125"/>
      <path d="M 11.71875 12.40625 
L 22.015625 12.40625 
L 22.015625 4 
L 14.015625 -11.625 
L 7.71875 -11.625 
L 11.71875 4 
z
" id="DejaVuSans-44"/>
      <path d="M 10.796875 72.90625 
L 49.515625 72.90625 
L 49.515625 64.59375 
L 19.828125 64.59375 
L 19.828125 46.734375 
Q 21.96875 47.46875 24.109375 47.828125 
Q 26.265625 48.1875 28.421875 48.1875 
Q 40.625 48.1875 47.75 41.5 
Q 54.890625 34.8125 54.890625 23.390625 
Q 54.890625 11.625 47.5625 5.09375 
Q 40.234375 -1.421875 26.90625 -1.421875 
Q 22.3125 -1.421875 17.546875 -0.640625 
Q 12.796875 0.140625 7.71875 1.703125 
L 7.71875 11.625 
Q 12.109375 9.234375 16.796875 8.0625 
Q 21.484375 6.890625 26.703125 6.890625 
Q 35.15625 6.890625 40.078125 11.328125 
Q 45.015625 15.765625 45.015625 23.390625 
Q 45.015625 31 40.078125 35.4375 
Q 35.15625 39.890625 26.703125 39.890625 
Q 22.75 39.890625 18.8125 39.015625 
Q 14.890625 38.140625 10.796875 36.28125 
z
" id="DejaVuSans-53"/>
     </defs>
     <use xlink:href="#DejaVuSans-123"/>
     <use x="63.623047" xlink:href="#DejaVuSans-102"/>
     <use x="98.828125" xlink:href="#DejaVuSans-49"/>
     <use x="162.451172" xlink:href="#DejaVuSans-48"/>
     <use x="226.074219" xlink:href="#DejaVuSans-45"/>
     <use x="262.158203" xlink:href="#DejaVuSans-102"/>
     <use x="297.363281" xlink:href="#DejaVuSans-49"/>
     <use x="360.986328" xlink:href="#DejaVuSans-52"/>
     <use x="424.609375" xlink:href="#DejaVuSans-125"/>
     <use x="488.232422" xlink:href="#DejaVuSans-44"/>
     <use x="520.019531" xlink:href="#DejaVuSans-32"/>
     <use x="551.806641" xlink:href="#DejaVuSans-53"/>
     <use x="615.429688" xlink:href="#DejaVuSans-45"/>
     <use x="651.513672" xlink:href="#DejaVuSans-68"/>
    </g>
   </g>
   <g id="text_7">
    <!-- v2.4 -->
    <g style="fill:#808080;" transform="translate(219.489063 288.777272)scale(0.1 -0.1)">
     <defs>
      <path d="M 2.984375 54.6875 
L 12.5 54.6875 
L 29.59375 8.796875 
L 46.6875 54.6875 
L 56.203125 54.6875 
L 35.6875 0 
L 23.484375 0 
z
" id="DejaVuSans-118"/>
      <path d="M 19.1875 8.296875 
L 53.609375 8.296875 
L 53.609375 0 
L 7.328125 0 
L 7.328125 8.296875 
Q 12.9375 14.109375 22.625 23.890625 
Q 32.328125 33.6875 34.8125 36.53125 
Q 39.546875 41.84375 41.421875 45.53125 
Q 43.3125 49.21875 43.3125 52.78125 
Q 43.3125 58.59375 39.234375 62.25 
Q 35.15625 65.921875 28.609375 65.921875 
Q 23.96875 65.921875 18.8125 64.3125 
Q 13.671875 62.703125 7.8125 59.421875 
L 7.8125 69.390625 
Q 13.765625 71.78125 18.9375 73 
Q 24.125 74.21875 28.421875 74.21875 
Q 39.75 74.21875 46.484375 68.546875 
Q 53.21875 62.890625 53.21875 53.421875 
Q 53.21875 48.921875 51.53125 44.890625 
Q 49.859375 40.875 45.40625 35.40625 
Q 44.1875 33.984375 37.640625 27.21875 
Q 31.109375 20.453125 19.1875 8.296875 
z
" id="DejaVuSans-50"/>
      <path d="M 10.6875 12.40625 
L 21 12.40625 
L 21 0 
L 10.6875 0 
z
" id="DejaVuSans-46"/>
     </defs>
     <use xlink:href="#DejaVuSans-118"/>
     <use x="59.179688" xlink:href="#DejaVuSans-50"/>
     <use x="122.802734" xlink:href="#DejaVuSans-46"/>
     <use x="154.589844" xlink:href="#DejaVuSans-52"/>
    </g>
   </g>
  </g>
 </g>
 <defs>
  <clipPath id="pd745b641e7">
   <rect height="290.304" width="460.8" x="0" y="3.456"/>
  </clipPath>
 </defs>
</svg>
