<?xml version="1.0" encoding="utf-8" standalone="no"?>
<!DOCTYPE svg PUBLIC "-//W3C//DTD SVG 1.1//EN"
  "http://www.w3.org/Graphics/SVG/1.1/DTD/svg11.dtd">
<!-- Created with matplotlib (https://matplotlib.org/) -->
<svg height="345.6pt" version="1.1" viewBox="0 0 460.8 345.6" width="460.8pt" xmlns="http://www.w3.org/2000/svg" xmlns:xlink="http://www.w3.org/1999/xlink">
 <metadata>
  <rdf:RDF xmlns:cc="http://creativecommons.org/ns#" xmlns:dc="http://purl.org/dc/elements/1.1/" xmlns:rdf="http://www.w3.org/1999/02/22-rdf-syntax-ns#">
   <cc:Work>
    <dc:type rdf:resource="http://purl.org/dc/dcmitype/StillImage"/>
    <dc:date>2021-06-17T01:37:16.912001</dc:date>
    <dc:format>image/svg+xml</dc:format>
    <dc:creator>
     <cc:Agent>
      <dc:title>Matplotlib v3.3.4, https://matplotlib.org/</dc:title>
     </cc:Agent>
    </dc:creator>
   </cc:Work>
  </rdf:RDF>
 </metadata>
 <defs>
  <style type="text/css">*{stroke-linecap:butt;stroke-linejoin:round;}</style>
 </defs>
 <g id="figure_1">
  <g id="patch_1">
   <path d="M 0 345.6 
L 460.8 345.6 
L 460.8 0 
L 0 0 
z
" style="fill:#ffffff;"/>
  </g>
  <g id="axes_1">
   <g id="patch_2">
    <path d="M 0 293.76 
L 460.8 293.76 
L 460.8 3.456 
L 0 3.456 
z
" style="fill:#ffffff;"/>
   </g>
   <g id="matplotlib.axis_1">
    <g id="xtick_1">
     <g id="line2d_1">
      <path clip-path="url(#p13c93b196a)" d="M 105.789456 293.76 
L 105.789456 3.456 
" style="fill:none;stroke:#b0b0b0;stroke-linecap:square;stroke-width:0.8;"/>
     </g>
     <g id="line2d_2">
      <defs>
       <path d="M 0 0 
L 0 3.5 
" id="m624f8a0db5" style="stroke:#000000;stroke-width:0.8;"/>
      </defs>
      <g>
       <use style="stroke:#000000;stroke-width:0.8;" x="105.789456" xlink:href="#m624f8a0db5" y="293.76"/>
      </g>
     </g>
     <g id="text_1">
      <!-- -4 -->
      <g transform="translate(95.819144 315.956875)scale(0.2 -0.2)">
       <defs>
        <path d="M 4.890625 31.390625 
L 31.203125 31.390625 
L 31.203125 23.390625 
L 4.890625 23.390625 
z
" id="DejaVuSans-45"/>
        <path d="M 37.796875 64.3125 
L 12.890625 25.390625 
L 37.796875 25.390625 
z
M 35.203125 72.90625 
L 47.609375 72.90625 
L 47.609375 25.390625 
L 58.015625 25.390625 
L 58.015625 17.1875 
L 47.609375 17.1875 
L 47.609375 0 
L 37.796875 0 
L 37.796875 17.1875 
L 4.890625 17.1875 
L 4.890625 26.703125 
z
" id="DejaVuSans-52"/>
       </defs>
       <use xlink:href="#DejaVuSans-45"/>
       <use x="36.083984" xlink:href="#DejaVuSans-52"/>
      </g>
     </g>
    </g>
    <g id="xtick_2">
     <g id="line2d_3">
      <path clip-path="url(#p13c93b196a)" d="M 211.693325 293.76 
L 211.693325 3.456 
" style="fill:none;stroke:#b0b0b0;stroke-linecap:square;stroke-width:0.8;"/>
     </g>
     <g id="line2d_4">
      <g>
       <use style="stroke:#000000;stroke-width:0.8;" x="211.693325" xlink:href="#m624f8a0db5" y="293.76"/>
      </g>
     </g>
     <g id="text_2">
      <!-- 0 -->
      <g transform="translate(205.330825 315.956875)scale(0.2 -0.2)">
       <defs>
        <path d="M 31.78125 66.40625 
Q 24.171875 66.40625 20.328125 58.90625 
Q 16.5 51.421875 16.5 36.375 
Q 16.5 21.390625 20.328125 13.890625 
Q 24.171875 6.390625 31.78125 6.390625 
Q 39.453125 6.390625 43.28125 13.890625 
Q 47.125 21.390625 47.125 36.375 
Q 47.125 51.421875 43.28125 58.90625 
Q 39.453125 66.40625 31.78125 66.40625 
z
M 31.78125 74.21875 
Q 44.046875 74.21875 50.515625 64.515625 
Q 56.984375 54.828125 56.984375 36.375 
Q 56.984375 17.96875 50.515625 8.265625 
Q 44.046875 -1.421875 31.78125 -1.421875 
Q 19.53125 -1.421875 13.0625 8.265625 
Q 6.59375 17.96875 6.59375 36.375 
Q 6.59375 54.828125 13.0625 64.515625 
Q 19.53125 74.21875 31.78125 74.21875 
z
" id="DejaVuSans-48"/>
       </defs>
       <use xlink:href="#DejaVuSans-48"/>
      </g>
     </g>
    </g>
    <g id="xtick_3">
     <g id="line2d_5">
      <path clip-path="url(#p13c93b196a)" d="M 317.597194 293.76 
L 317.597194 3.456 
" style="fill:none;stroke:#b0b0b0;stroke-linecap:square;stroke-width:0.8;"/>
     </g>
     <g id="line2d_6">
      <g>
       <use style="stroke:#000000;stroke-width:0.8;" x="317.597194" xlink:href="#m624f8a0db5" y="293.76"/>
      </g>
     </g>
     <g id="text_3">
      <!-- 4 -->
      <g transform="translate(311.234694 315.956875)scale(0.2 -0.2)">
       <use xlink:href="#DejaVuSans-52"/>
      </g>
     </g>
    </g>
    <g id="xtick_4">
     <g id="line2d_7">
      <path clip-path="url(#p13c93b196a)" d="M 423.501063 293.76 
L 423.501063 3.456 
" style="fill:none;stroke:#b0b0b0;stroke-linecap:square;stroke-width:0.8;"/>
     </g>
     <g id="line2d_8">
      <g>
       <use style="stroke:#000000;stroke-width:0.8;" x="423.501063" xlink:href="#m624f8a0db5" y="293.76"/>
      </g>
     </g>
     <g id="text_4">
      <!-- 8 -->
      <g transform="translate(417.138563 315.956875)scale(0.2 -0.2)">
       <defs>
        <path d="M 31.78125 34.625 
Q 24.75 34.625 20.71875 30.859375 
Q 16.703125 27.09375 16.703125 20.515625 
Q 16.703125 13.921875 20.71875 10.15625 
Q 24.75 6.390625 31.78125 6.390625 
Q 38.8125 6.390625 42.859375 10.171875 
Q 46.921875 13.96875 46.921875 20.515625 
Q 46.921875 27.09375 42.890625 30.859375 
Q 38.875 34.625 31.78125 34.625 
z
M 21.921875 38.8125 
Q 15.578125 40.375 12.03125 44.71875 
Q 8.5 49.078125 8.5 55.328125 
Q 8.5 64.0625 14.71875 69.140625 
Q 20.953125 74.21875 31.78125 74.21875 
Q 42.671875 74.21875 48.875 69.140625 
Q 55.078125 64.0625 55.078125 55.328125 
Q 55.078125 49.078125 51.53125 44.71875 
Q 48 40.375 41.703125 38.8125 
Q 48.828125 37.15625 52.796875 32.3125 
Q 56.78125 27.484375 56.78125 20.515625 
Q 56.78125 9.90625 50.3125 4.234375 
Q 43.84375 -1.421875 31.78125 -1.421875 
Q 19.734375 -1.421875 13.25 4.234375 
Q 6.78125 9.90625 6.78125 20.515625 
Q 6.78125 27.484375 10.78125 32.3125 
Q 14.796875 37.15625 21.921875 38.8125 
z
M 18.3125 54.390625 
Q 18.3125 48.734375 21.84375 45.5625 
Q 25.390625 42.390625 31.78125 42.390625 
Q 38.140625 42.390625 41.71875 45.5625 
Q 45.3125 48.734375 45.3125 54.390625 
Q 45.3125 60.0625 41.71875 63.234375 
Q 38.140625 66.40625 31.78125 66.40625 
Q 25.390625 66.40625 21.84375 63.234375 
Q 18.3125 60.0625 18.3125 54.390625 
z
" id="DejaVuSans-56"/>
       </defs>
       <use xlink:href="#DejaVuSans-56"/>
      </g>
     </g>
    </g>
    <g id="text_5">
     <!-- log10 of Df -->
     <g transform="translate(175.214063 339.313125)scale(0.2 -0.2)">
      <defs>
       <path d="M 9.421875 75.984375 
L 18.40625 75.984375 
L 18.40625 0 
L 9.421875 0 
z
" id="DejaVuSans-108"/>
       <path d="M 30.609375 48.390625 
Q 23.390625 48.390625 19.1875 42.75 
Q 14.984375 37.109375 14.984375 27.296875 
Q 14.984375 17.484375 19.15625 11.84375 
Q 23.34375 6.203125 30.609375 6.203125 
Q 37.796875 6.203125 41.984375 11.859375 
Q 46.1875 17.53125 46.1875 27.296875 
Q 46.1875 37.015625 41.984375 42.703125 
Q 37.796875 48.390625 30.609375 48.390625 
z
M 30.609375 56 
Q 42.328125 56 49.015625 48.375 
Q 55.71875 40.765625 55.71875 27.296875 
Q 55.71875 13.875 49.015625 6.21875 
Q 42.328125 -1.421875 30.609375 -1.421875 
Q 18.84375 -1.421875 12.171875 6.21875 
Q 5.515625 13.875 5.515625 27.296875 
Q 5.515625 40.765625 12.171875 48.375 
Q 18.84375 56 30.609375 56 
z
" id="DejaVuSans-111"/>
       <path d="M 45.40625 27.984375 
Q 45.40625 37.75 41.375 43.109375 
Q 37.359375 48.484375 30.078125 48.484375 
Q 22.859375 48.484375 18.828125 43.109375 
Q 14.796875 37.75 14.796875 27.984375 
Q 14.796875 18.265625 18.828125 12.890625 
Q 22.859375 7.515625 30.078125 7.515625 
Q 37.359375 7.515625 41.375 12.890625 
Q 45.40625 18.265625 45.40625 27.984375 
z
M 54.390625 6.78125 
Q 54.390625 -7.171875 48.1875 -13.984375 
Q 42 -20.796875 29.203125 -20.796875 
Q 24.46875 -20.796875 20.265625 -20.09375 
Q 16.0625 -19.390625 12.109375 -17.921875 
L 12.109375 -9.1875 
Q 16.0625 -11.328125 19.921875 -12.34375 
Q 23.78125 -13.375 27.78125 -13.375 
Q 36.625 -13.375 41.015625 -8.765625 
Q 45.40625 -4.15625 45.40625 5.171875 
L 45.40625 9.625 
Q 42.625 4.78125 38.28125 2.390625 
Q 33.9375 0 27.875 0 
Q 17.828125 0 11.671875 7.65625 
Q 5.515625 15.328125 5.515625 27.984375 
Q 5.515625 40.671875 11.671875 48.328125 
Q 17.828125 56 27.875 56 
Q 33.9375 56 38.28125 53.609375 
Q 42.625 51.21875 45.40625 46.390625 
L 45.40625 54.6875 
L 54.390625 54.6875 
z
" id="DejaVuSans-103"/>
       <path d="M 12.40625 8.296875 
L 28.515625 8.296875 
L 28.515625 63.921875 
L 10.984375 60.40625 
L 10.984375 69.390625 
L 28.421875 72.90625 
L 38.28125 72.90625 
L 38.28125 8.296875 
L 54.390625 8.296875 
L 54.390625 0 
L 12.40625 0 
z
" id="DejaVuSans-49"/>
       <path id="DejaVuSans-32"/>
       <path d="M 37.109375 75.984375 
L 37.109375 68.5 
L 28.515625 68.5 
Q 23.6875 68.5 21.796875 66.546875 
Q 19.921875 64.59375 19.921875 59.515625 
L 19.921875 54.6875 
L 34.71875 54.6875 
L 34.71875 47.703125 
L 19.921875 47.703125 
L 19.921875 0 
L 10.890625 0 
L 10.890625 47.703125 
L 2.296875 47.703125 
L 2.296875 54.6875 
L 10.890625 54.6875 
L 10.890625 58.5 
Q 10.890625 67.625 15.140625 71.796875 
Q 19.390625 75.984375 28.609375 75.984375 
z
" id="DejaVuSans-102"/>
       <path d="M 19.671875 64.796875 
L 19.671875 8.109375 
L 31.59375 8.109375 
Q 46.6875 8.109375 53.6875 14.9375 
Q 60.6875 21.78125 60.6875 36.53125 
Q 60.6875 51.171875 53.6875 57.984375 
Q 46.6875 64.796875 31.59375 64.796875 
z
M 9.8125 72.90625 
L 30.078125 72.90625 
Q 51.265625 72.90625 61.171875 64.09375 
Q 71.09375 55.28125 71.09375 36.53125 
Q 71.09375 17.671875 61.125 8.828125 
Q 51.171875 0 30.078125 0 
L 9.8125 0 
z
" id="DejaVuSans-68"/>
      </defs>
      <use xlink:href="#DejaVuSans-108"/>
      <use x="27.783203" xlink:href="#DejaVuSans-111"/>
      <use x="88.964844" xlink:href="#DejaVuSans-103"/>
      <use x="152.441406" xlink:href="#DejaVuSans-49"/>
      <use x="216.064453" xlink:href="#DejaVuSans-48"/>
      <use x="279.6875" xlink:href="#DejaVuSans-32"/>
      <use x="311.474609" xlink:href="#DejaVuSans-111"/>
      <use x="372.65625" xlink:href="#DejaVuSans-102"/>
      <use x="407.861328" xlink:href="#DejaVuSans-32"/>
      <use x="439.648438" xlink:href="#DejaVuSans-68"/>
      <use x="516.650391" xlink:href="#DejaVuSans-102"/>
     </g>
    </g>
   </g>
   <g id="matplotlib.axis_2">
    <g id="ytick_1">
     <g id="line2d_9">
      <path clip-path="url(#p13c93b196a)" d="M 0 293.76 
L 460.8 293.76 
" style="fill:none;stroke:#b0b0b0;stroke-linecap:square;stroke-width:0.8;"/>
     </g>
     <g id="line2d_10">
      <defs>
       <path d="M 0 0 
L -3.5 0 
" id="m077269d956" style="stroke:#000000;stroke-width:0.8;"/>
      </defs>
      <g>
       <use style="stroke:#000000;stroke-width:0.8;" x="0" xlink:href="#m077269d956" y="293.76"/>
      </g>
     </g>
    </g>
    <g id="ytick_2">
     <g id="line2d_11">
      <path clip-path="url(#p13c93b196a)" d="M 0 236.274059 
L 460.8 236.274059 
" style="fill:none;stroke:#b0b0b0;stroke-linecap:square;stroke-width:0.8;"/>
     </g>
     <g id="line2d_12">
      <g>
       <use style="stroke:#000000;stroke-width:0.8;" x="0" xlink:href="#m077269d956" y="236.274059"/>
      </g>
     </g>
    </g>
    <g id="ytick_3">
     <g id="line2d_13">
      <path clip-path="url(#p13c93b196a)" d="M 0 178.788119 
L 460.8 178.788119 
" style="fill:none;stroke:#b0b0b0;stroke-linecap:square;stroke-width:0.8;"/>
     </g>
     <g id="line2d_14">
      <g>
       <use style="stroke:#000000;stroke-width:0.8;" x="0" xlink:href="#m077269d956" y="178.788119"/>
      </g>
     </g>
    </g>
    <g id="ytick_4">
     <g id="line2d_15">
      <path clip-path="url(#p13c93b196a)" d="M 0 121.302178 
L 460.8 121.302178 
" style="fill:none;stroke:#b0b0b0;stroke-linecap:square;stroke-width:0.8;"/>
     </g>
     <g id="line2d_16">
      <g>
       <use style="stroke:#000000;stroke-width:0.8;" x="0" xlink:href="#m077269d956" y="121.302178"/>
      </g>
     </g>
    </g>
    <g id="ytick_5">
     <g id="line2d_17">
      <path clip-path="url(#p13c93b196a)" d="M 0 63.816238 
L 460.8 63.816238 
" style="fill:none;stroke:#b0b0b0;stroke-linecap:square;stroke-width:0.8;"/>
     </g>
     <g id="line2d_18">
      <g>
       <use style="stroke:#000000;stroke-width:0.8;" x="0" xlink:href="#m077269d956" y="63.816238"/>
      </g>
     </g>
    </g>
    <g id="ytick_6">
     <g id="line2d_19">
      <path clip-path="url(#p13c93b196a)" d="M 0 6.330297 
L 460.8 6.330297 
" style="fill:none;stroke:#b0b0b0;stroke-linecap:square;stroke-width:0.8;"/>
     </g>
     <g id="line2d_20">
      <g>
       <use style="stroke:#000000;stroke-width:0.8;" x="0" xlink:href="#m077269d956" y="6.330297"/>
      </g>
     </g>
    </g>
   </g>
   <g id="line2d_21">
    <path clip-path="url(#p13c93b196a)" d="M 147.993505 293.76 
L 147.993505 289.927604 
L 158.133914 289.927604 
L 158.133914 286.095208 
L 166.520892 286.095208 
L 166.520892 282.262812 
L 171.905559 282.262812 
L 171.905559 278.430416 
L 175.581599 278.430416 
L 175.581599 274.59802 
L 177.630396 274.59802 
L 177.630396 270.765624 
L 179.270121 270.765624 
L 179.270121 266.933228 
L 179.878952 266.933228 
L 179.878952 263.100832 
L 184.049049 263.100832 
L 184.049049 259.268436 
L 186.354839 259.268436 
L 186.354839 255.43604 
L 187.111855 255.43604 
L 187.111855 251.603644 
L 187.478947 251.603644 
L 187.478947 247.771248 
L 188.206737 247.771248 
L 188.206737 243.938851 
L 189.867137 243.938851 
L 189.867137 240.106455 
L 192.053892 240.106455 
L 192.053892 236.274059 
L 193.42674 236.274059 
L 193.42674 232.441663 
L 194.081222 232.441663 
L 194.081222 228.609267 
L 199.909867 228.609267 
L 199.909867 224.776871 
L 202.638331 224.776871 
L 202.638331 220.944475 
L 206.095917 220.944475 
L 206.095917 217.112079 
L 209.658043 217.112079 
L 209.658043 213.279683 
L 212.840676 213.279683 
L 212.840676 209.447287 
L 215.216545 209.447287 
L 215.216545 205.614891 
L 217.630501 205.614891 
L 217.630501 201.782495 
L 219.35298 201.782495 
L 219.35298 197.950099 
L 219.868019 197.950099 
L 219.868019 194.117703 
L 220.639108 194.117703 
L 220.639108 190.285307 
L 221.727366 190.285307 
L 221.727366 186.452911 
L 222.772998 186.452911 
L 222.880987 174.955723 
L 224.711101 174.955723 
L 224.711101 171.123327 
L 226.079387 171.123327 
L 226.079387 167.290931 
L 226.662236 167.290931 
L 226.662236 163.458535 
L 229.136424 163.458535 
L 229.136424 159.626139 
L 229.823648 159.626139 
L 229.823648 155.793743 
L 230.141111 155.793743 
L 230.141111 151.961347 
L 231.612368 151.961347 
L 231.612368 148.12895 
L 231.84629 148.12895 
L 231.859947 140.464158 
L 232.237513 140.464158 
L 232.237513 132.799366 
L 233.531311 132.799366 
L 233.531311 128.96697 
L 233.740793 128.96697 
L 233.740793 125.134574 
L 233.918813 125.134574 
L 233.918813 121.302178 
L 234.421642 121.302178 
L 234.421642 117.469782 
L 234.950144 117.469782 
L 234.950144 113.637386 
L 235.531868 113.637386 
L 235.531868 109.80499 
L 235.83479 109.80499 
L 235.83479 105.972594 
L 237.549581 105.972594 
L 237.549581 102.140198 
L 238.111172 102.140198 
L 238.111172 98.307802 
L 240.117817 98.307802 
L 240.117817 94.475406 
L 240.55907 94.475406 
L 240.55907 90.64301 
L 241.552961 90.64301 
L 241.552961 86.810614 
L 241.73218 86.810614 
L 241.73218 82.978218 
L 243.9746 82.978218 
L 243.9746 79.145822 
L 245.49143 79.145822 
L 245.49143 75.313426 
L 246.081209 75.313426 
L 246.187475 67.648634 
L 246.778531 67.648634 
L 246.778531 63.816238 
L 247.714405 63.816238 
L 247.76351 56.151446 
L 248.417034 56.151446 
L 248.417034 52.31905 
L 248.79066 52.31905 
L 248.79066 48.486653 
L 249.531926 48.486653 
L 249.531926 44.654257 
L 253.461427 44.654257 
L 253.461427 40.821861 
L 253.760141 40.821861 
L 253.760141 36.989465 
L 253.94022 36.989465 
L 253.94022 33.157069 
L 254.882794 33.157069 
L 254.882794 29.324673 
L 257.71279 29.324673 
L 257.71279 25.492277 
L 257.910855 25.492277 
L 257.910855 21.659881 
L 259.090396 21.659881 
L 259.090396 17.827485 
L 259.633731 17.827485 
L 259.633731 13.995089 
L 261.27915 13.995089 
L 261.27915 10.162693 
L 264.586822 10.162693 
L 264.586822 6.330297 
L 264.586822 6.330297 
L 460.8 6.330297 
L 460.8 6.330297 
" style="fill:none;stroke:#ff0000;stroke-linecap:square;stroke-width:3;"/>
   </g>
   <g id="line2d_22">
    <path clip-path="url(#p13c93b196a)" d="M 195.770382 293.76 
L 195.770382 236.274059 
L 232.769648 236.274059 
L 232.769648 232.441663 
L 234.711384 232.441663 
L 234.711384 228.609267 
L 235.600859 228.609267 
L 235.600859 224.776871 
L 237.079533 224.776871 
L 237.079533 220.944475 
L 237.794908 220.944475 
L 237.794908 217.112079 
L 240.008415 217.112079 
L 240.008415 213.279683 
L 240.783474 213.279683 
L 240.783474 209.447287 
L 242.227154 209.447287 
L 242.227154 205.614891 
L 242.964443 205.614891 
L 242.964443 201.782495 
L 243.795727 201.782495 
L 243.795727 197.950099 
L 245.457113 197.950099 
L 245.457113 194.117703 
L 246.731557 194.117703 
L 246.731557 190.285307 
L 247.229829 190.285307 
L 247.229829 186.452911 
L 247.949658 186.452911 
L 247.949658 182.620515 
L 248.823381 182.620515 
L 248.823381 178.788119 
L 249.047306 178.788119 
L 249.047306 174.955723 
L 250.879284 174.955723 
L 250.879284 171.123327 
L 251.68121 171.123327 
L 251.68121 167.290931 
L 251.870848 167.290931 
L 251.870848 163.458535 
L 254.130378 163.458535 
L 254.14013 155.793743 
L 254.851813 155.793743 
L 254.851813 151.961347 
L 255.254828 151.961347 
L 255.254828 148.12895 
L 257.670556 148.12895 
L 257.670556 144.296554 
L 257.979967 144.296554 
L 258.088484 136.631762 
L 258.670046 136.631762 
L 258.725938 128.96697 
L 259.618559 128.96697 
L 259.618559 125.134574 
L 260.755025 125.134574 
L 260.755025 121.302178 
L 261.802218 121.302178 
L 261.802218 117.469782 
L 263.044448 117.469782 
L 263.062638 105.972594 
L 263.238458 105.972594 
L 263.238458 102.140198 
L 263.532293 102.140198 
L 263.532293 98.307802 
L 264.043437 98.307802 
L 264.043437 94.475406 
L 264.233369 94.475406 
L 264.276335 86.810614 
L 264.653923 86.810614 
L 264.7066 79.145822 
L 265.097663 79.145822 
L 265.146477 71.48103 
L 265.239622 71.48103 
L 265.239622 67.648634 
L 266.435973 67.648634 
L 266.529344 59.983842 
L 266.795908 59.983842 
L 266.795908 56.151446 
L 267.605885 56.151446 
L 267.605885 52.31905 
L 267.844501 52.31905 
L 267.844501 48.486653 
L 268.688739 48.486653 
L 268.793801 40.821861 
L 268.956688 40.821861 
L 268.956688 36.989465 
L 269.320131 36.989465 
L 269.320131 33.157069 
L 269.463677 33.157069 
L 269.463677 29.324673 
L 269.884893 29.324673 
L 269.884893 25.492277 
L 270.036338 25.492277 
L 270.036338 21.659881 
L 270.825285 21.659881 
L 270.825285 17.827485 
L 272.064483 17.827485 
L 272.064483 13.995089 
L 277.442619 13.995089 
L 277.442619 10.162693 
L 281.209227 10.162693 
L 281.209227 6.330297 
L 281.209227 6.330297 
L 460.8 6.330297 
L 460.8 6.330297 
" style="fill:none;stroke:#00bfbf;stroke-linecap:square;stroke-width:1.5;"/>
   </g>
   <g id="line2d_23">
    <path clip-path="url(#p13c93b196a)" d="M 195.770382 293.76 
L 195.770382 236.274059 
L 230.388225 236.274059 
L 230.388225 232.441663 
L 234.711384 232.441663 
L 234.711384 228.609267 
L 235.600859 228.609267 
L 235.600859 224.776871 
L 236.131735 224.776871 
L 236.131735 220.944475 
L 237.079533 220.944475 
L 237.079533 217.112079 
L 237.794908 217.112079 
L 237.794908 213.279683 
L 238.456954 213.279683 
L 238.456954 209.447287 
L 238.929119 209.447287 
L 238.929119 205.614891 
L 240.783474 205.614891 
L 240.783474 201.782495 
L 241.099883 201.782495 
L 241.099883 197.950099 
L 241.552961 197.950099 
L 241.552961 194.117703 
L 243.654102 194.117703 
L 243.750821 186.452911 
L 245.87456 186.452911 
L 245.87456 182.620515 
L 246.108356 182.620515 
L 246.108356 178.788119 
L 246.401986 178.788119 
L 246.401986 174.955723 
L 246.731557 174.955723 
L 246.731557 171.123327 
L 247.036198 171.123327 
L 247.036198 167.290931 
L 249.047306 167.290931 
L 249.047306 163.458535 
L 250.152058 163.458535 
L 250.152058 159.626139 
L 251.599053 159.626139 
L 251.599053 155.793743 
L 253.736561 155.793743 
L 253.769891 148.12895 
L 254.130378 148.12895 
L 254.130378 144.296554 
L 254.851813 144.296554 
L 254.851813 140.464158 
L 255.059184 140.464158 
L 255.059184 136.631762 
L 255.415442 136.631762 
L 255.415442 132.799366 
L 256.099539 132.799366 
L 256.099539 128.96697 
L 256.479515 128.96697 
L 256.479515 125.134574 
L 257.742507 125.134574 
L 257.742507 121.302178 
L 258.088484 121.302178 
L 258.088484 117.469782 
L 258.322739 117.469782 
L 258.322739 113.637386 
L 258.581786 113.637386 
L 258.640619 105.972594 
L 258.725938 105.972594 
L 258.725938 102.140198 
L 258.968843 102.140198 
L 258.968843 98.307802 
L 259.700421 98.307802 
L 259.700421 94.475406 
L 260.229073 94.475406 
L 260.229073 90.64301 
L 260.515106 90.64301 
L 260.515106 86.810614 
L 260.755025 86.810614 
L 260.755025 82.978218 
L 261.713149 82.978218 
L 261.802218 75.313426 
L 261.969784 75.313426 
L 261.969784 71.48103 
L 263.095973 71.48103 
L 263.095973 67.648634 
L 263.532293 67.648634 
L 263.532293 63.816238 
L 265.078825 63.816238 
L 265.097663 56.151446 
L 266.529344 56.151446 
L 266.563367 48.486653 
L 266.936468 48.486653 
L 266.99221 40.821861 
L 267.844501 40.821861 
L 267.863423 33.157069 
L 268.688739 33.157069 
L 268.688739 29.324673 
L 269.884893 29.324673 
L 269.884893 25.492277 
L 270.036338 25.492277 
L 270.036338 21.659881 
L 270.825285 21.659881 
L 270.825285 17.827485 
L 272.064483 17.827485 
L 272.064483 13.995089 
L 277.442619 13.995089 
L 277.442619 10.162693 
L 280.899456 10.162693 
L 280.899456 6.330297 
L 280.899456 6.330297 
L 460.8 6.330297 
L 460.8 6.330297 
" style="fill:none;stroke:#bf00bf;stroke-linecap:square;stroke-width:1.5;"/>
   </g>
   <g id="line2d_24">
    <path clip-path="url(#p13c93b196a)" d="M 195.770382 293.76 
L 195.770382 236.274059 
L 230.298456 236.274059 
L 230.388225 228.609267 
L 235.494611 228.609267 
L 235.600859 217.112079 
L 235.737863 217.112079 
L 235.737863 213.279683 
L 238.217766 213.279683 
L 238.217766 209.447287 
L 238.456954 209.447287 
L 238.456954 205.614891 
L 239.083434 205.614891 
L 239.110274 197.950099 
L 239.990357 197.950099 
L 239.990357 194.117703 
L 241.552961 194.117703 
L 241.552961 190.285307 
L 243.654102 190.285307 
L 243.654102 186.452911 
L 245.064997 186.452911 
L 245.064997 182.620515 
L 245.269223 182.620515 
L 245.269223 178.788119 
L 245.87456 178.788119 
L 245.87456 174.955723 
L 245.996789 174.955723 
L 245.996789 171.123327 
L 246.108356 171.123327 
L 246.108356 167.290931 
L 246.401986 167.290931 
L 246.401986 163.458535 
L 247.036198 163.458535 
L 247.12065 155.793743 
L 247.799441 155.793743 
L 247.799441 151.961347 
L 248.417034 151.961347 
L 248.417034 148.12895 
L 248.794129 148.12895 
L 248.794129 144.296554 
L 251.851035 144.296554 
L 251.851035 140.464158 
L 253.77385 140.464158 
L 253.77385 136.631762 
L 254.130378 136.631762 
L 254.130378 132.799366 
L 254.347701 132.799366 
L 254.347701 128.96697 
L 254.500145 128.96697 
L 254.500145 125.134574 
L 254.851813 125.134574 
L 254.851813 121.302178 
L 255.415442 121.302178 
L 255.415442 117.469782 
L 255.863259 117.469782 
L 255.863259 113.637386 
L 256.178076 113.637386 
L 256.178076 109.80499 
L 256.755609 109.80499 
L 256.837353 102.140198 
L 257.274664 102.140198 
L 257.274664 98.307802 
L 257.533996 98.307802 
L 257.533996 94.475406 
L 258.088484 94.475406 
L 258.104255 86.810614 
L 259.027103 86.810614 
L 259.027103 82.978218 
L 259.888701 82.978218 
L 259.888701 79.145822 
L 260.229073 79.145822 
L 260.229073 75.313426 
L 260.515106 75.313426 
L 260.515106 71.48103 
L 260.755025 71.48103 
L 260.755025 67.648634 
L 262.457051 67.648634 
L 262.457051 63.816238 
L 262.620639 63.816238 
L 262.620639 59.983842 
L 263.38844 59.983842 
L 263.45178 52.31905 
L 264.1528 52.31905 
L 264.1528 48.486653 
L 264.797211 48.486653 
L 264.797211 44.654257 
L 265.038482 44.654257 
L 265.038482 40.821861 
L 266.999207 40.821861 
L 267.08589 33.157069 
L 267.844501 33.157069 
L 267.844501 29.324673 
L 268.067361 29.324673 
L 268.067361 25.492277 
L 268.688739 25.492277 
L 268.688739 21.659881 
L 270.54961 21.659881 
L 270.577482 13.995089 
L 277.442619 13.995089 
L 277.442619 10.162693 
L 279.587141 10.162693 
L 279.587141 6.330297 
L 279.587141 6.330297 
L 460.8 6.330297 
L 460.8 6.330297 
" style="fill:none;stroke:#000000;stroke-linecap:square;stroke-width:1.5;"/>
   </g>
   <g id="line2d_25">
    <path clip-path="url(#p13c93b196a)" d="M 195.770382 293.76 
L 195.770382 236.274059 
L 222.586552 236.274059 
L 222.662058 228.609267 
L 225.445003 228.609267 
L 225.445003 224.776871 
L 229.179948 224.776871 
L 229.179948 220.944475 
L 230.269751 220.944475 
L 230.269751 217.112079 
L 230.97295 217.112079 
L 230.97295 213.279683 
L 231.300126 213.279683 
L 231.300126 209.447287 
L 232.668849 209.447287 
L 232.668849 205.614891 
L 233.71324 205.614891 
L 233.71324 201.782495 
L 235.279748 201.782495 
L 235.279748 197.950099 
L 235.412846 197.950099 
L 235.412846 194.117703 
L 236.654757 194.117703 
L 236.654757 190.285307 
L 236.784646 190.285307 
L 236.784646 186.452911 
L 237.138498 186.452911 
L 237.138498 182.620515 
L 237.376959 182.620515 
L 237.376959 178.788119 
L 237.803406 178.788119 
L 237.803406 174.955723 
L 238.527035 174.955723 
L 238.527035 171.123327 
L 238.763735 171.123327 
L 238.763735 167.290931 
L 241.203155 167.290931 
L 241.309339 159.626139 
L 241.343561 159.626139 
L 241.445821 151.961347 
L 241.552961 151.961347 
L 241.552961 148.12895 
L 243.654102 148.12895 
L 243.654102 144.296554 
L 244.4523 144.296554 
L 244.4523 140.464158 
L 245.064997 140.464158 
L 245.064997 136.631762 
L 245.192068 136.631762 
L 245.192068 132.799366 
L 245.377933 132.799366 
L 245.377933 128.96697 
L 247.799441 128.96697 
L 247.799441 125.134574 
L 248.108861 125.134574 
L 248.108861 121.302178 
L 248.417034 121.302178 
L 248.417034 117.469782 
L 249.930096 117.469782 
L 249.937041 109.80499 
L 250.657766 109.80499 
L 250.657766 105.972594 
L 251.481528 105.972594 
L 251.481528 102.140198 
L 252.134326 102.140198 
L 252.134326 98.307802 
L 252.250747 98.307802 
L 252.250747 94.475406 
L 252.610289 94.475406 
L 252.643783 86.810614 
L 253.232991 86.810614 
L 253.232991 82.978218 
L 253.77385 82.978218 
L 253.807579 71.48103 
L 254.127727 71.48103 
L 254.127727 67.648634 
L 254.679789 67.648634 
L 254.679789 63.816238 
L 255.34403 63.816238 
L 255.34403 59.983842 
L 255.957503 59.983842 
L 255.957503 56.151446 
L 257.665231 56.151446 
L 257.665231 52.31905 
L 259.027103 52.31905 
L 259.027103 48.486653 
L 261.080336 48.486653 
L 261.080336 44.654257 
L 261.431725 44.654257 
L 261.431725 40.821861 
L 263.27555 40.821861 
L 263.340968 33.157069 
L 263.38844 33.157069 
L 263.38844 29.324673 
L 265.016004 29.324673 
L 265.016004 25.492277 
L 266.926765 25.492277 
L 266.926765 21.659881 
L 267.130861 21.659881 
L 267.130861 17.827485 
L 267.96618 17.827485 
L 267.96618 13.995089 
L 271.158916 13.995089 
L 271.158916 10.162693 
L 272.525186 10.162693 
L 272.525186 6.330297 
L 272.525186 6.330297 
L 460.8 6.330297 
L 460.8 6.330297 
" style="fill:none;stroke:#00bfbf;stroke-linecap:square;stroke-width:1.5;"/>
   </g>
   <g id="line2d_26">
    <path clip-path="url(#p13c93b196a)" d="M 167.45791 293.76 
L 167.45791 289.927604 
L 174.219152 289.927604 
L 174.219152 286.095208 
L 176.598489 286.095208 
L 176.598489 282.262812 
L 182.40747 282.262812 
L 182.40747 278.430416 
L 191.130554 278.430416 
L 191.130554 274.59802 
L 191.70961 274.59802 
L 191.70961 270.765624 
L 193.932917 270.765624 
L 193.932917 266.933228 
L 195.770382 266.933228 
L 195.770382 228.609267 
L 202.075992 228.609267 
L 202.075992 224.776871 
L 206.913174 224.776871 
L 206.913174 220.944475 
L 208.776134 220.944475 
L 208.776134 217.112079 
L 210.080357 217.112079 
L 210.080357 213.279683 
L 214.433241 213.279683 
L 214.433241 209.447287 
L 217.596327 209.447287 
L 217.596327 205.614891 
L 219.250929 205.614891 
L 219.250929 201.782495 
L 219.370647 201.782495 
L 219.370647 197.950099 
L 221.090707 197.950099 
L 221.090707 194.117703 
L 222.816081 194.117703 
L 222.908143 182.620515 
L 224.140172 182.620515 
L 224.140172 178.788119 
L 224.870669 178.788119 
L 224.870669 174.955723 
L 226.824647 174.955723 
L 226.824647 171.123327 
L 227.256303 171.123327 
L 227.351709 163.458535 
L 229.191412 163.458535 
L 229.191412 159.626139 
L 229.833427 159.626139 
L 229.833427 155.793743 
L 230.439977 155.793743 
L 230.439977 151.961347 
L 231.645861 151.961347 
L 231.645861 148.12895 
L 231.84629 148.12895 
L 231.862451 140.464158 
L 233.740793 140.464158 
L 233.740793 136.631762 
L 233.918813 136.631762 
L 233.918813 132.799366 
L 235.049612 132.799366 
L 235.157421 125.134574 
L 235.24577 125.134574 
L 235.24577 121.302178 
L 236.064898 121.302178 
L 236.064898 117.469782 
L 237.585726 117.469782 
L 237.585726 113.637386 
L 238.412653 113.637386 
L 238.412653 109.80499 
L 238.778672 109.80499 
L 238.778672 105.972594 
L 239.056565 105.972594 
L 239.056565 102.140198 
L 240.603412 102.140198 
L 240.667609 94.475406 
L 241.552961 94.475406 
L 241.552961 90.64301 
L 241.745539 90.64301 
L 241.745539 86.810614 
L 242.769968 86.810614 
L 242.769968 82.978218 
L 244.342131 82.978218 
L 244.342131 79.145822 
L 246.887685 79.145822 
L 246.887685 75.313426 
L 247.075493 75.313426 
L 247.075493 71.48103 
L 247.547707 71.48103 
L 247.547707 67.648634 
L 247.730627 67.648634 
L 247.730627 63.816238 
L 248.040353 63.816238 
L 248.040353 59.983842 
L 248.417034 59.983842 
L 248.417034 56.151446 
L 248.851302 56.151446 
L 248.851302 52.31905 
L 250.425384 52.31905 
L 250.425384 48.486653 
L 251.060109 48.486653 
L 251.060109 44.654257 
L 254.030869 44.654257 
L 254.030869 40.821861 
L 254.281436 40.821861 
L 254.281436 36.989465 
L 254.426151 36.989465 
L 254.426151 33.157069 
L 256.507647 33.157069 
L 256.507647 29.324673 
L 257.943992 29.324673 
L 257.943992 25.492277 
L 258.444047 25.492277 
L 258.444047 21.659881 
L 259.098669 21.659881 
L 259.098669 17.827485 
L 259.665441 17.827485 
L 259.665441 13.995089 
L 261.312075 13.995089 
L 261.312075 10.162693 
L 264.587373 10.162693 
L 264.587373 6.330297 
L 264.587373 6.330297 
L 460.8 6.330297 
L 460.8 6.330297 
" style="fill:none;stroke:#bf00bf;stroke-linecap:square;stroke-width:1.5;"/>
   </g>
   <g id="line2d_27">
    <path clip-path="url(#p13c93b196a)" d="M 147.993505 293.76 
L 147.993505 289.927604 
L 158.133914 289.927604 
L 158.133914 286.095208 
L 168.800516 286.095208 
L 168.800516 282.262812 
L 172.508254 282.262812 
L 172.508254 278.430416 
L 177.546314 278.430416 
L 177.546314 274.59802 
L 179.270121 274.59802 
L 179.270121 270.765624 
L 179.581664 270.765624 
L 179.581664 266.933228 
L 179.956753 266.933228 
L 179.956753 263.100832 
L 185.322696 263.100832 
L 185.322696 259.268436 
L 187.327243 259.268436 
L 187.327243 255.43604 
L 187.478947 255.43604 
L 187.478947 251.603644 
L 189.624603 251.603644 
L 189.624603 247.771248 
L 191.318361 247.771248 
L 191.394935 240.106455 
L 192.053953 240.106455 
L 192.053953 236.274059 
L 194.095662 236.274059 
L 194.095662 232.441663 
L 194.81011 232.441663 
L 194.81011 228.609267 
L 199.909867 228.609267 
L 199.909867 224.776871 
L 202.638331 224.776871 
L 202.638331 220.944475 
L 206.095917 220.944475 
L 206.095917 217.112079 
L 209.658043 217.112079 
L 209.658043 213.279683 
L 212.840676 213.279683 
L 212.840676 209.447287 
L 215.216545 209.447287 
L 215.216545 205.614891 
L 217.630501 205.614891 
L 217.630501 201.782495 
L 219.35298 201.782495 
L 219.35298 197.950099 
L 219.868019 197.950099 
L 219.868019 194.117703 
L 220.639108 194.117703 
L 220.639108 190.285307 
L 221.727366 190.285307 
L 221.727366 186.452911 
L 222.772998 186.452911 
L 222.880987 174.955723 
L 225.812679 174.955723 
L 225.812679 171.123327 
L 226.079387 171.123327 
L 226.079387 167.290931 
L 226.662236 167.290931 
L 226.662236 163.458535 
L 229.136424 163.458535 
L 229.136424 159.626139 
L 229.823648 159.626139 
L 229.823648 155.793743 
L 230.141111 155.793743 
L 230.141111 151.961347 
L 231.612368 151.961347 
L 231.612368 148.12895 
L 231.84629 148.12895 
L 231.859947 140.464158 
L 232.237513 140.464158 
L 232.237513 132.799366 
L 233.531311 132.799366 
L 233.531311 128.96697 
L 233.740793 128.96697 
L 233.740793 125.134574 
L 233.918813 125.134574 
L 233.918813 121.302178 
L 234.421642 121.302178 
L 234.421642 117.469782 
L 234.950144 117.469782 
L 234.950144 113.637386 
L 235.531868 113.637386 
L 235.531868 109.80499 
L 235.83479 109.80499 
L 235.83479 105.972594 
L 237.549581 105.972594 
L 237.549581 102.140198 
L 238.111172 102.140198 
L 238.111172 98.307802 
L 240.117817 98.307802 
L 240.117817 94.475406 
L 240.55907 94.475406 
L 240.55907 90.64301 
L 241.552961 90.64301 
L 241.552961 86.810614 
L 241.73218 86.810614 
L 241.73218 82.978218 
L 243.9746 82.978218 
L 243.9746 79.145822 
L 245.49143 79.145822 
L 245.49143 75.313426 
L 246.081209 75.313426 
L 246.187475 67.648634 
L 246.778531 67.648634 
L 246.778531 63.816238 
L 247.714405 63.816238 
L 247.76351 56.151446 
L 248.417034 56.151446 
L 248.417034 52.31905 
L 248.79066 52.31905 
L 248.79066 48.486653 
L 249.531926 48.486653 
L 249.531926 44.654257 
L 253.461427 44.654257 
L 253.461427 40.821861 
L 253.760141 40.821861 
L 253.760141 36.989465 
L 253.94022 36.989465 
L 253.94022 33.157069 
L 254.882794 33.157069 
L 254.882794 29.324673 
L 257.71279 29.324673 
L 257.71279 25.492277 
L 257.910855 25.492277 
L 257.910855 21.659881 
L 259.090396 21.659881 
L 259.090396 17.827485 
L 259.633731 17.827485 
L 259.633731 13.995089 
L 261.27915 13.995089 
L 261.27915 10.162693 
L 264.586822 10.162693 
L 264.586822 6.330297 
L 264.586822 6.330297 
L 460.8 6.330297 
L 460.8 6.330297 
" style="fill:none;stroke:#000000;stroke-linecap:square;stroke-width:1.5;"/>
   </g>
   <g id="patch_3">
    <path d="M 0 293.76 
L 0 3.456 
" style="fill:none;stroke:#000000;stroke-linecap:square;stroke-linejoin:miter;stroke-width:0.8;"/>
   </g>
   <g id="patch_4">
    <path d="M 460.8 293.76 
L 460.8 3.456 
" style="fill:none;stroke:#000000;stroke-linecap:square;stroke-linejoin:miter;stroke-width:0.8;"/>
   </g>
   <g id="patch_5">
    <path d="M 0 293.76 
L 460.8 293.76 
" style="fill:none;stroke:#000000;stroke-linecap:square;stroke-linejoin:miter;stroke-width:0.8;"/>
   </g>
   <g id="patch_6">
    <path d="M 0 3.456 
L 460.8 3.456 
" style="fill:none;stroke:#000000;stroke-linecap:square;stroke-linejoin:miter;stroke-width:0.8;"/>
   </g>
   <g id="text_6">
    <!-- {f15-f19}, 5-D -->
    <g transform="translate(305.884 287.95392)scale(0.2 -0.2)">
     <defs>
      <path d="M 51.125 -9.28125 
L 51.125 -16.3125 
L 48.09375 -16.3125 
Q 35.9375 -16.3125 31.8125 -12.6875 
Q 27.6875 -9.078125 27.6875 1.703125 
L 27.6875 13.375 
Q 27.6875 20.75 25.046875 23.578125 
Q 22.40625 26.421875 15.484375 26.421875 
L 12.5 26.421875 
L 12.5 33.40625 
L 15.484375 33.40625 
Q 22.46875 33.40625 25.078125 36.203125 
Q 27.6875 39.015625 27.6875 46.296875 
L 27.6875 58.015625 
Q 27.6875 68.796875 31.8125 72.390625 
Q 35.9375 75.984375 48.09375 75.984375 
L 51.125 75.984375 
L 51.125 69 
L 47.796875 69 
Q 40.921875 69 38.8125 66.84375 
Q 36.71875 64.703125 36.71875 57.8125 
L 36.71875 45.703125 
Q 36.71875 38.03125 34.5 34.5625 
Q 32.28125 31.109375 26.90625 29.890625 
Q 32.328125 28.5625 34.515625 25.09375 
Q 36.71875 21.625 36.71875 14.015625 
L 36.71875 1.90625 
Q 36.71875 -4.984375 38.8125 -7.125 
Q 40.921875 -9.28125 47.796875 -9.28125 
z
" id="DejaVuSans-123"/>
      <path d="M 10.796875 72.90625 
L 49.515625 72.90625 
L 49.515625 64.59375 
L 19.828125 64.59375 
L 19.828125 46.734375 
Q 21.96875 47.46875 24.109375 47.828125 
Q 26.265625 48.1875 28.421875 48.1875 
Q 40.625 48.1875 47.75 41.5 
Q 54.890625 34.8125 54.890625 23.390625 
Q 54.890625 11.625 47.5625 5.09375 
Q 40.234375 -1.421875 26.90625 -1.421875 
Q 22.3125 -1.421875 17.546875 -0.640625 
Q 12.796875 0.140625 7.71875 1.703125 
L 7.71875 11.625 
Q 12.109375 9.234375 16.796875 8.0625 
Q 21.484375 6.890625 26.703125 6.890625 
Q 35.15625 6.890625 40.078125 11.328125 
Q 45.015625 15.765625 45.015625 23.390625 
Q 45.015625 31 40.078125 35.4375 
Q 35.15625 39.890625 26.703125 39.890625 
Q 22.75 39.890625 18.8125 39.015625 
Q 14.890625 38.140625 10.796875 36.28125 
z
" id="DejaVuSans-53"/>
      <path d="M 10.984375 1.515625 
L 10.984375 10.5 
Q 14.703125 8.734375 18.5 7.8125 
Q 22.3125 6.890625 25.984375 6.890625 
Q 35.75 6.890625 40.890625 13.453125 
Q 46.046875 20.015625 46.78125 33.40625 
Q 43.953125 29.203125 39.59375 26.953125 
Q 35.25 24.703125 29.984375 24.703125 
Q 19.046875 24.703125 12.671875 31.3125 
Q 6.296875 37.9375 6.296875 49.421875 
Q 6.296875 60.640625 12.9375 67.421875 
Q 19.578125 74.21875 30.609375 74.21875 
Q 43.265625 74.21875 49.921875 64.515625 
Q 56.59375 54.828125 56.59375 36.375 
Q 56.59375 19.140625 48.40625 8.859375 
Q 40.234375 -1.421875 26.421875 -1.421875 
Q 22.703125 -1.421875 18.890625 -0.6875 
Q 15.09375 0.046875 10.984375 1.515625 
z
M 30.609375 32.421875 
Q 37.25 32.421875 41.125 36.953125 
Q 45.015625 41.5 45.015625 49.421875 
Q 45.015625 57.28125 41.125 61.84375 
Q 37.25 66.40625 30.609375 66.40625 
Q 23.96875 66.40625 20.09375 61.84375 
Q 16.21875 57.28125 16.21875 49.421875 
Q 16.21875 41.5 20.09375 36.953125 
Q 23.96875 32.421875 30.609375 32.421875 
z
" id="DejaVuSans-57"/>
      <path d="M 12.5 -9.28125 
L 15.921875 -9.28125 
Q 22.75 -9.28125 24.828125 -7.171875 
Q 26.90625 -5.078125 26.90625 1.90625 
L 26.90625 14.015625 
Q 26.90625 21.625 29.09375 25.09375 
Q 31.296875 28.5625 36.71875 29.890625 
Q 31.296875 31.109375 29.09375 34.5625 
Q 26.90625 38.03125 26.90625 45.703125 
L 26.90625 57.8125 
Q 26.90625 64.75 24.828125 66.875 
Q 22.75 69 15.921875 69 
L 12.5 69 
L 12.5 75.984375 
L 15.578125 75.984375 
Q 27.734375 75.984375 31.8125 72.390625 
Q 35.890625 68.796875 35.890625 58.015625 
L 35.890625 46.296875 
Q 35.890625 39.015625 38.515625 36.203125 
Q 41.15625 33.40625 48.09375 33.40625 
L 51.125 33.40625 
L 51.125 26.421875 
L 48.09375 26.421875 
Q 41.15625 26.421875 38.515625 23.578125 
Q 35.890625 20.75 35.890625 13.375 
L 35.890625 1.703125 
Q 35.890625 -9.078125 31.8125 -12.6875 
Q 27.734375 -16.3125 15.578125 -16.3125 
L 12.5 -16.3125 
z
" id="DejaVuSans-125"/>
      <path d="M 11.71875 12.40625 
L 22.015625 12.40625 
L 22.015625 4 
L 14.015625 -11.625 
L 7.71875 -11.625 
L 11.71875 4 
z
" id="DejaVuSans-44"/>
     </defs>
     <use xlink:href="#DejaVuSans-123"/>
     <use x="63.623047" xlink:href="#DejaVuSans-102"/>
     <use x="98.828125" xlink:href="#DejaVuSans-49"/>
     <use x="162.451172" xlink:href="#DejaVuSans-53"/>
     <use x="226.074219" xlink:href="#DejaVuSans-45"/>
     <use x="262.158203" xlink:href="#DejaVuSans-102"/>
     <use x="297.363281" xlink:href="#DejaVuSans-49"/>
     <use x="360.986328" xlink:href="#DejaVuSans-57"/>
     <use x="424.609375" xlink:href="#DejaVuSans-125"/>
     <use x="488.232422" xlink:href="#DejaVuSans-44"/>
     <use x="520.019531" xlink:href="#DejaVuSans-32"/>
     <use x="551.806641" xlink:href="#DejaVuSans-53"/>
     <use x="615.429688" xlink:href="#DejaVuSans-45"/>
     <use x="651.513672" xlink:href="#DejaVuSans-68"/>
    </g>
   </g>
   <g id="text_7">
    <!-- v2.4 -->
    <g style="fill:#808080;" transform="translate(219.489063 288.777272)scale(0.1 -0.1)">
     <defs>
      <path d="M 2.984375 54.6875 
L 12.5 54.6875 
L 29.59375 8.796875 
L 46.6875 54.6875 
L 56.203125 54.6875 
L 35.6875 0 
L 23.484375 0 
z
" id="DejaVuSans-118"/>
      <path d="M 19.1875 8.296875 
L 53.609375 8.296875 
L 53.609375 0 
L 7.328125 0 
L 7.328125 8.296875 
Q 12.9375 14.109375 22.625 23.890625 
Q 32.328125 33.6875 34.8125 36.53125 
Q 39.546875 41.84375 41.421875 45.53125 
Q 43.3125 49.21875 43.3125 52.78125 
Q 43.3125 58.59375 39.234375 62.25 
Q 35.15625 65.921875 28.609375 65.921875 
Q 23.96875 65.921875 18.8125 64.3125 
Q 13.671875 62.703125 7.8125 59.421875 
L 7.8125 69.390625 
Q 13.765625 71.78125 18.9375 73 
Q 24.125 74.21875 28.421875 74.21875 
Q 39.75 74.21875 46.484375 68.546875 
Q 53.21875 62.890625 53.21875 53.421875 
Q 53.21875 48.921875 51.53125 44.890625 
Q 49.859375 40.875 45.40625 35.40625 
Q 44.1875 33.984375 37.640625 27.21875 
Q 31.109375 20.453125 19.1875 8.296875 
z
" id="DejaVuSans-50"/>
      <path d="M 10.6875 12.40625 
L 21 12.40625 
L 21 0 
L 10.6875 0 
z
" id="DejaVuSans-46"/>
     </defs>
     <use xlink:href="#DejaVuSans-118"/>
     <use x="59.179688" xlink:href="#DejaVuSans-50"/>
     <use x="122.802734" xlink:href="#DejaVuSans-46"/>
     <use x="154.589844" xlink:href="#DejaVuSans-52"/>
    </g>
   </g>
  </g>
 </g>
 <defs>
  <clipPath id="p13c93b196a">
   <rect height="290.304" width="460.8" x="0" y="3.456"/>
  </clipPath>
 </defs>
</svg>
