<?xml version="1.0" encoding="utf-8" standalone="no"?>
<!DOCTYPE svg PUBLIC "-//W3C//DTD SVG 1.1//EN"
  "http://www.w3.org/Graphics/SVG/1.1/DTD/svg11.dtd">
<!-- Created with matplotlib (https://matplotlib.org/) -->
<svg height="345.6pt" version="1.1" viewBox="0 0 460.8 345.6" width="460.8pt" xmlns="http://www.w3.org/2000/svg" xmlns:xlink="http://www.w3.org/1999/xlink">
 <metadata>
  <rdf:RDF xmlns:cc="http://creativecommons.org/ns#" xmlns:dc="http://purl.org/dc/elements/1.1/" xmlns:rdf="http://www.w3.org/1999/02/22-rdf-syntax-ns#">
   <cc:Work>
    <dc:type rdf:resource="http://purl.org/dc/dcmitype/StillImage"/>
    <dc:date>2021-06-17T01:37:18.639629</dc:date>
    <dc:format>image/svg+xml</dc:format>
    <dc:creator>
     <cc:Agent>
      <dc:title>Matplotlib v3.3.4, https://matplotlib.org/</dc:title>
     </cc:Agent>
    </dc:creator>
   </cc:Work>
  </rdf:RDF>
 </metadata>
 <defs>
  <style type="text/css">*{stroke-linecap:butt;stroke-linejoin:round;}</style>
 </defs>
 <g id="figure_1">
  <g id="patch_1">
   <path d="M 0 345.6 
L 460.8 345.6 
L 460.8 0 
L 0 0 
z
" style="fill:#ffffff;"/>
  </g>
  <g id="axes_1">
   <g id="patch_2">
    <path d="M 0 293.76 
L 460.8 293.76 
L 460.8 3.456 
L 0 3.456 
z
" style="fill:#ffffff;"/>
   </g>
   <g id="matplotlib.axis_1">
    <g id="xtick_1">
     <g id="line2d_1">
      <path clip-path="url(#p9db46a5834)" d="M 102.824509 293.76 
L 102.824509 3.456 
" style="fill:none;stroke:#b0b0b0;stroke-linecap:square;stroke-width:0.8;"/>
     </g>
     <g id="line2d_2">
      <defs>
       <path d="M 0 0 
L 0 3.5 
" id="me5b74d6e89" style="stroke:#000000;stroke-width:0.8;"/>
      </defs>
      <g>
       <use style="stroke:#000000;stroke-width:0.8;" x="102.824509" xlink:href="#me5b74d6e89" y="293.76"/>
      </g>
     </g>
     <g id="text_1">
      <!-- -4 -->
      <g transform="translate(92.854196 315.956875)scale(0.2 -0.2)">
       <defs>
        <path d="M 4.890625 31.390625 
L 31.203125 31.390625 
L 31.203125 23.390625 
L 4.890625 23.390625 
z
" id="DejaVuSans-45"/>
        <path d="M 37.796875 64.3125 
L 12.890625 25.390625 
L 37.796875 25.390625 
z
M 35.203125 72.90625 
L 47.609375 72.90625 
L 47.609375 25.390625 
L 58.015625 25.390625 
L 58.015625 17.1875 
L 47.609375 17.1875 
L 47.609375 0 
L 37.796875 0 
L 37.796875 17.1875 
L 4.890625 17.1875 
L 4.890625 26.703125 
z
" id="DejaVuSans-52"/>
       </defs>
       <use xlink:href="#DejaVuSans-45"/>
       <use x="36.083984" xlink:href="#DejaVuSans-52"/>
      </g>
     </g>
    </g>
    <g id="xtick_2">
     <g id="line2d_3">
      <path clip-path="url(#p9db46a5834)" d="M 205.760223 293.76 
L 205.760223 3.456 
" style="fill:none;stroke:#b0b0b0;stroke-linecap:square;stroke-width:0.8;"/>
     </g>
     <g id="line2d_4">
      <g>
       <use style="stroke:#000000;stroke-width:0.8;" x="205.760223" xlink:href="#me5b74d6e89" y="293.76"/>
      </g>
     </g>
     <g id="text_2">
      <!-- 0 -->
      <g transform="translate(199.397723 315.956875)scale(0.2 -0.2)">
       <defs>
        <path d="M 31.78125 66.40625 
Q 24.171875 66.40625 20.328125 58.90625 
Q 16.5 51.421875 16.5 36.375 
Q 16.5 21.390625 20.328125 13.890625 
Q 24.171875 6.390625 31.78125 6.390625 
Q 39.453125 6.390625 43.28125 13.890625 
Q 47.125 21.390625 47.125 36.375 
Q 47.125 51.421875 43.28125 58.90625 
Q 39.453125 66.40625 31.78125 66.40625 
z
M 31.78125 74.21875 
Q 44.046875 74.21875 50.515625 64.515625 
Q 56.984375 54.828125 56.984375 36.375 
Q 56.984375 17.96875 50.515625 8.265625 
Q 44.046875 -1.421875 31.78125 -1.421875 
Q 19.53125 -1.421875 13.0625 8.265625 
Q 6.59375 17.96875 6.59375 36.375 
Q 6.59375 54.828125 13.0625 64.515625 
Q 19.53125 74.21875 31.78125 74.21875 
z
" id="DejaVuSans-48"/>
       </defs>
       <use xlink:href="#DejaVuSans-48"/>
      </g>
     </g>
    </g>
    <g id="xtick_3">
     <g id="line2d_5">
      <path clip-path="url(#p9db46a5834)" d="M 308.695938 293.76 
L 308.695938 3.456 
" style="fill:none;stroke:#b0b0b0;stroke-linecap:square;stroke-width:0.8;"/>
     </g>
     <g id="line2d_6">
      <g>
       <use style="stroke:#000000;stroke-width:0.8;" x="308.695938" xlink:href="#me5b74d6e89" y="293.76"/>
      </g>
     </g>
     <g id="text_3">
      <!-- 4 -->
      <g transform="translate(302.333438 315.956875)scale(0.2 -0.2)">
       <use xlink:href="#DejaVuSans-52"/>
      </g>
     </g>
    </g>
    <g id="xtick_4">
     <g id="line2d_7">
      <path clip-path="url(#p9db46a5834)" d="M 411.631653 293.76 
L 411.631653 3.456 
" style="fill:none;stroke:#b0b0b0;stroke-linecap:square;stroke-width:0.8;"/>
     </g>
     <g id="line2d_8">
      <g>
       <use style="stroke:#000000;stroke-width:0.8;" x="411.631653" xlink:href="#me5b74d6e89" y="293.76"/>
      </g>
     </g>
     <g id="text_4">
      <!-- 8 -->
      <g transform="translate(405.269153 315.956875)scale(0.2 -0.2)">
       <defs>
        <path d="M 31.78125 34.625 
Q 24.75 34.625 20.71875 30.859375 
Q 16.703125 27.09375 16.703125 20.515625 
Q 16.703125 13.921875 20.71875 10.15625 
Q 24.75 6.390625 31.78125 6.390625 
Q 38.8125 6.390625 42.859375 10.171875 
Q 46.921875 13.96875 46.921875 20.515625 
Q 46.921875 27.09375 42.890625 30.859375 
Q 38.875 34.625 31.78125 34.625 
z
M 21.921875 38.8125 
Q 15.578125 40.375 12.03125 44.71875 
Q 8.5 49.078125 8.5 55.328125 
Q 8.5 64.0625 14.71875 69.140625 
Q 20.953125 74.21875 31.78125 74.21875 
Q 42.671875 74.21875 48.875 69.140625 
Q 55.078125 64.0625 55.078125 55.328125 
Q 55.078125 49.078125 51.53125 44.71875 
Q 48 40.375 41.703125 38.8125 
Q 48.828125 37.15625 52.796875 32.3125 
Q 56.78125 27.484375 56.78125 20.515625 
Q 56.78125 9.90625 50.3125 4.234375 
Q 43.84375 -1.421875 31.78125 -1.421875 
Q 19.734375 -1.421875 13.25 4.234375 
Q 6.78125 9.90625 6.78125 20.515625 
Q 6.78125 27.484375 10.78125 32.3125 
Q 14.796875 37.15625 21.921875 38.8125 
z
M 18.3125 54.390625 
Q 18.3125 48.734375 21.84375 45.5625 
Q 25.390625 42.390625 31.78125 42.390625 
Q 38.140625 42.390625 41.71875 45.5625 
Q 45.3125 48.734375 45.3125 54.390625 
Q 45.3125 60.0625 41.71875 63.234375 
Q 38.140625 66.40625 31.78125 66.40625 
Q 25.390625 66.40625 21.84375 63.234375 
Q 18.3125 60.0625 18.3125 54.390625 
z
" id="DejaVuSans-56"/>
       </defs>
       <use xlink:href="#DejaVuSans-56"/>
      </g>
     </g>
    </g>
    <g id="text_5">
     <!-- log10 of Df -->
     <g transform="translate(175.214063 339.313125)scale(0.2 -0.2)">
      <defs>
       <path d="M 9.421875 75.984375 
L 18.40625 75.984375 
L 18.40625 0 
L 9.421875 0 
z
" id="DejaVuSans-108"/>
       <path d="M 30.609375 48.390625 
Q 23.390625 48.390625 19.1875 42.75 
Q 14.984375 37.109375 14.984375 27.296875 
Q 14.984375 17.484375 19.15625 11.84375 
Q 23.34375 6.203125 30.609375 6.203125 
Q 37.796875 6.203125 41.984375 11.859375 
Q 46.1875 17.53125 46.1875 27.296875 
Q 46.1875 37.015625 41.984375 42.703125 
Q 37.796875 48.390625 30.609375 48.390625 
z
M 30.609375 56 
Q 42.328125 56 49.015625 48.375 
Q 55.71875 40.765625 55.71875 27.296875 
Q 55.71875 13.875 49.015625 6.21875 
Q 42.328125 -1.421875 30.609375 -1.421875 
Q 18.84375 -1.421875 12.171875 6.21875 
Q 5.515625 13.875 5.515625 27.296875 
Q 5.515625 40.765625 12.171875 48.375 
Q 18.84375 56 30.609375 56 
z
" id="DejaVuSans-111"/>
       <path d="M 45.40625 27.984375 
Q 45.40625 37.75 41.375 43.109375 
Q 37.359375 48.484375 30.078125 48.484375 
Q 22.859375 48.484375 18.828125 43.109375 
Q 14.796875 37.75 14.796875 27.984375 
Q 14.796875 18.265625 18.828125 12.890625 
Q 22.859375 7.515625 30.078125 7.515625 
Q 37.359375 7.515625 41.375 12.890625 
Q 45.40625 18.265625 45.40625 27.984375 
z
M 54.390625 6.78125 
Q 54.390625 -7.171875 48.1875 -13.984375 
Q 42 -20.796875 29.203125 -20.796875 
Q 24.46875 -20.796875 20.265625 -20.09375 
Q 16.0625 -19.390625 12.109375 -17.921875 
L 12.109375 -9.1875 
Q 16.0625 -11.328125 19.921875 -12.34375 
Q 23.78125 -13.375 27.78125 -13.375 
Q 36.625 -13.375 41.015625 -8.765625 
Q 45.40625 -4.15625 45.40625 5.171875 
L 45.40625 9.625 
Q 42.625 4.78125 38.28125 2.390625 
Q 33.9375 0 27.875 0 
Q 17.828125 0 11.671875 7.65625 
Q 5.515625 15.328125 5.515625 27.984375 
Q 5.515625 40.671875 11.671875 48.328125 
Q 17.828125 56 27.875 56 
Q 33.9375 56 38.28125 53.609375 
Q 42.625 51.21875 45.40625 46.390625 
L 45.40625 54.6875 
L 54.390625 54.6875 
z
" id="DejaVuSans-103"/>
       <path d="M 12.40625 8.296875 
L 28.515625 8.296875 
L 28.515625 63.921875 
L 10.984375 60.40625 
L 10.984375 69.390625 
L 28.421875 72.90625 
L 38.28125 72.90625 
L 38.28125 8.296875 
L 54.390625 8.296875 
L 54.390625 0 
L 12.40625 0 
z
" id="DejaVuSans-49"/>
       <path id="DejaVuSans-32"/>
       <path d="M 37.109375 75.984375 
L 37.109375 68.5 
L 28.515625 68.5 
Q 23.6875 68.5 21.796875 66.546875 
Q 19.921875 64.59375 19.921875 59.515625 
L 19.921875 54.6875 
L 34.71875 54.6875 
L 34.71875 47.703125 
L 19.921875 47.703125 
L 19.921875 0 
L 10.890625 0 
L 10.890625 47.703125 
L 2.296875 47.703125 
L 2.296875 54.6875 
L 10.890625 54.6875 
L 10.890625 58.5 
Q 10.890625 67.625 15.140625 71.796875 
Q 19.390625 75.984375 28.609375 75.984375 
z
" id="DejaVuSans-102"/>
       <path d="M 19.671875 64.796875 
L 19.671875 8.109375 
L 31.59375 8.109375 
Q 46.6875 8.109375 53.6875 14.9375 
Q 60.6875 21.78125 60.6875 36.53125 
Q 60.6875 51.171875 53.6875 57.984375 
Q 46.6875 64.796875 31.59375 64.796875 
z
M 9.8125 72.90625 
L 30.078125 72.90625 
Q 51.265625 72.90625 61.171875 64.09375 
Q 71.09375 55.28125 71.09375 36.53125 
Q 71.09375 17.671875 61.125 8.828125 
Q 51.171875 0 30.078125 0 
L 9.8125 0 
z
" id="DejaVuSans-68"/>
      </defs>
      <use xlink:href="#DejaVuSans-108"/>
      <use x="27.783203" xlink:href="#DejaVuSans-111"/>
      <use x="88.964844" xlink:href="#DejaVuSans-103"/>
      <use x="152.441406" xlink:href="#DejaVuSans-49"/>
      <use x="216.064453" xlink:href="#DejaVuSans-48"/>
      <use x="279.6875" xlink:href="#DejaVuSans-32"/>
      <use x="311.474609" xlink:href="#DejaVuSans-111"/>
      <use x="372.65625" xlink:href="#DejaVuSans-102"/>
      <use x="407.861328" xlink:href="#DejaVuSans-32"/>
      <use x="439.648438" xlink:href="#DejaVuSans-68"/>
      <use x="516.650391" xlink:href="#DejaVuSans-102"/>
     </g>
    </g>
   </g>
   <g id="matplotlib.axis_2">
    <g id="ytick_1">
     <g id="line2d_9">
      <path clip-path="url(#p9db46a5834)" d="M 0 293.76 
L 460.8 293.76 
" style="fill:none;stroke:#b0b0b0;stroke-linecap:square;stroke-width:0.8;"/>
     </g>
     <g id="line2d_10">
      <defs>
       <path d="M 0 0 
L -3.5 0 
" id="m566e042d08" style="stroke:#000000;stroke-width:0.8;"/>
      </defs>
      <g>
       <use style="stroke:#000000;stroke-width:0.8;" x="0" xlink:href="#m566e042d08" y="293.76"/>
      </g>
     </g>
    </g>
    <g id="ytick_2">
     <g id="line2d_11">
      <path clip-path="url(#p9db46a5834)" d="M 0 236.274059 
L 460.8 236.274059 
" style="fill:none;stroke:#b0b0b0;stroke-linecap:square;stroke-width:0.8;"/>
     </g>
     <g id="line2d_12">
      <g>
       <use style="stroke:#000000;stroke-width:0.8;" x="0" xlink:href="#m566e042d08" y="236.274059"/>
      </g>
     </g>
    </g>
    <g id="ytick_3">
     <g id="line2d_13">
      <path clip-path="url(#p9db46a5834)" d="M 0 178.788119 
L 460.8 178.788119 
" style="fill:none;stroke:#b0b0b0;stroke-linecap:square;stroke-width:0.8;"/>
     </g>
     <g id="line2d_14">
      <g>
       <use style="stroke:#000000;stroke-width:0.8;" x="0" xlink:href="#m566e042d08" y="178.788119"/>
      </g>
     </g>
    </g>
    <g id="ytick_4">
     <g id="line2d_15">
      <path clip-path="url(#p9db46a5834)" d="M 0 121.302178 
L 460.8 121.302178 
" style="fill:none;stroke:#b0b0b0;stroke-linecap:square;stroke-width:0.8;"/>
     </g>
     <g id="line2d_16">
      <g>
       <use style="stroke:#000000;stroke-width:0.8;" x="0" xlink:href="#m566e042d08" y="121.302178"/>
      </g>
     </g>
    </g>
    <g id="ytick_5">
     <g id="line2d_17">
      <path clip-path="url(#p9db46a5834)" d="M 0 63.816238 
L 460.8 63.816238 
" style="fill:none;stroke:#b0b0b0;stroke-linecap:square;stroke-width:0.8;"/>
     </g>
     <g id="line2d_18">
      <g>
       <use style="stroke:#000000;stroke-width:0.8;" x="0" xlink:href="#m566e042d08" y="63.816238"/>
      </g>
     </g>
    </g>
    <g id="ytick_6">
     <g id="line2d_19">
      <path clip-path="url(#p9db46a5834)" d="M 0 6.330297 
L 460.8 6.330297 
" style="fill:none;stroke:#b0b0b0;stroke-linecap:square;stroke-width:0.8;"/>
     </g>
     <g id="line2d_20">
      <g>
       <use style="stroke:#000000;stroke-width:0.8;" x="0" xlink:href="#m566e042d08" y="6.330297"/>
      </g>
     </g>
    </g>
   </g>
   <g id="line2d_21">
    <path clip-path="url(#p9db46a5834)" d="M -0.111206 293.76 
L -0.111206 286.095208 
L 181.334632 286.095208 
L 181.334632 282.262812 
L 184.438036 282.262812 
L 184.438036 278.430416 
L 184.901325 278.430416 
L 184.901325 274.59802 
L 188.50491 274.59802 
L 188.50491 270.765624 
L 190.298984 270.765624 
L 190.298984 266.933228 
L 190.827147 266.933228 
L 190.827147 263.100832 
L 191.004626 263.100832 
L 191.004626 259.268436 
L 191.394708 259.268436 
L 191.394708 255.43604 
L 193.870002 255.43604 
L 193.870002 251.603644 
L 196.083426 251.603644 
L 196.083426 247.771248 
L 196.696255 247.771248 
L 196.696255 243.938851 
L 198.306943 243.938851 
L 198.306943 240.106455 
L 199.591464 240.106455 
L 199.591464 236.274059 
L 200.940392 236.274059 
L 200.940392 232.441663 
L 201.643214 232.441663 
L 201.643214 217.112079 
L 205.557173 217.112079 
L 205.557173 213.279683 
L 212.245519 213.279683 
L 212.245519 209.447287 
L 212.609936 209.447287 
L 212.609936 205.614891 
L 212.963139 205.614891 
L 212.963139 201.782495 
L 213.135286 201.782495 
L 213.135286 197.950099 
L 213.252567 197.950099 
L 213.252567 194.117703 
L 213.692774 194.117703 
L 213.799585 178.788119 
L 214.150929 178.788119 
L 214.150929 174.955723 
L 214.427761 174.955723 
L 214.427761 171.123327 
L 214.578082 171.123327 
L 214.578082 167.290931 
L 214.825461 167.290931 
L 214.925482 155.793743 
L 215.447467 155.793743 
L 215.447467 151.961347 
L 215.720574 151.961347 
L 215.720574 148.12895 
L 215.98905 148.12895 
L 216.07712 140.464158 
L 216.398413 140.464158 
L 216.398413 136.631762 
L 223.088524 136.631762 
L 223.088524 132.799366 
L 223.886827 132.799366 
L 223.886827 128.96697 
L 227.525621 128.96697 
L 227.525621 125.134574 
L 229.557558 125.134574 
L 229.557558 121.302178 
L 229.992528 121.302178 
L 229.992528 109.80499 
L 231.416147 109.80499 
L 231.416147 105.972594 
L 232.533397 105.972594 
L 232.533397 102.140198 
L 232.686255 102.140198 
L 232.686255 98.307802 
L 235.711987 98.307802 
L 235.711987 94.475406 
L 240.193433 94.475406 
L 240.193433 82.978218 
L 240.568029 82.978218 
L 240.568029 79.145822 
L 241.236766 79.145822 
L 241.236766 71.48103 
L 248.568151 71.48103 
L 248.568151 67.648634 
L 250.744357 67.648634 
L 250.744357 63.816238 
L 253.159916 63.816238 
L 253.159916 59.983842 
L 256.645971 59.983842 
L 256.722642 52.31905 
L 257.38622 52.31905 
L 257.38622 48.486653 
L 257.694568 48.486653 
L 257.694568 44.654257 
L 257.871298 44.654257 
L 257.871298 40.821861 
L 258.045354 40.821861 
L 258.045354 36.989465 
L 258.159433 36.989465 
L 258.159433 33.157069 
L 258.349908 33.157069 
L 258.349908 29.324673 
L 258.624002 29.324673 
L 258.624002 25.492277 
L 258.876299 25.492277 
L 258.897878 17.827485 
L 259.274607 17.827485 
L 259.274607 13.995089 
L 259.846283 13.995089 
L 259.846283 10.162693 
L 260.1482 10.162693 
L 260.1482 6.330297 
L 260.1482 6.330297 
L 460.8 6.330297 
L 460.8 6.330297 
" style="fill:none;stroke:#ff0000;stroke-linecap:square;stroke-width:3;"/>
   </g>
   <g id="line2d_22">
    <path clip-path="url(#p9db46a5834)" d="M 220.850484 293.76 
L 220.850484 289.927604 
L 221.287153 289.927604 
L 221.287153 286.095208 
L 224.604895 286.095208 
L 224.604895 282.262812 
L 225.111183 282.262812 
L 225.111183 278.430416 
L 226.421846 278.430416 
L 226.500355 266.933228 
L 227.688219 266.933228 
L 227.688219 263.100832 
L 228.808145 263.100832 
L 228.809804 255.43604 
L 229.966875 255.43604 
L 229.966875 251.603644 
L 231.501836 251.603644 
L 231.501836 247.771248 
L 231.636263 247.771248 
L 231.636263 243.938851 
L 232.727822 243.938851 
L 232.727822 240.106455 
L 234.375415 240.106455 
L 234.375415 236.274059 
L 252.490951 236.274059 
L 252.584078 228.609267 
L 253.459618 228.609267 
L 253.497646 217.112079 
L 253.625787 217.112079 
L 253.665057 209.447287 
L 253.944468 209.447287 
L 253.944468 205.614891 
L 254.180539 205.614891 
L 254.264764 194.117703 
L 254.40211 194.117703 
L 254.503845 178.788119 
L 254.521452 178.788119 
L 254.632309 155.793743 
L 254.71785 155.793743 
L 254.71785 151.961347 
L 254.879295 151.961347 
L 254.967624 140.464158 
L 255.052545 140.464158 
L 255.076928 128.96697 
L 255.234877 128.96697 
L 255.245778 121.302178 
L 266.976233 121.302178 
L 266.976233 117.469782 
L 267.332186 117.469782 
L 267.385357 105.972594 
L 267.671763 105.972594 
L 267.671763 102.140198 
L 267.822199 102.140198 
L 267.822199 98.307802 
L 268.162694 98.307802 
L 268.162783 90.64301 
L 268.507168 90.64301 
L 268.535108 79.145822 
L 268.628845 79.145822 
L 268.628845 75.313426 
L 268.907054 75.313426 
L 268.907054 71.48103 
L 269.045995 71.48103 
L 269.045995 67.648634 
L 269.817644 67.648634 
L 269.817644 63.816238 
L 307.74318 63.816238 
L 307.74318 59.983842 
L 309.037989 59.983842 
L 309.037989 56.151446 
L 309.196582 56.151446 
L 309.207005 48.486653 
L 309.666736 48.486653 
L 309.666736 44.654257 
L 310.37146 44.654257 
L 310.430878 36.989465 
L 310.716963 36.989465 
L 310.716963 33.157069 
L 310.831175 33.157069 
L 310.831175 29.324673 
L 310.948698 29.324673 
L 310.948698 25.492277 
L 312.426185 25.492277 
L 312.426185 21.659881 
L 313.431198 21.659881 
L 313.431198 17.827485 
L 313.72979 17.827485 
L 313.747986 10.162693 
L 315.237641 10.162693 
L 315.237641 6.330297 
L 315.237641 6.330297 
L 460.8 6.330297 
L 460.8 6.330297 
" style="fill:none;stroke:#00bfbf;stroke-linecap:square;stroke-width:1.5;"/>
   </g>
   <g id="line2d_23">
    <path clip-path="url(#p9db46a5834)" d="M 220.850484 293.76 
L 220.850484 289.927604 
L 221.287153 289.927604 
L 221.287153 286.095208 
L 224.136535 286.095208 
L 224.136535 282.262812 
L 224.604895 282.262812 
L 224.604895 278.430416 
L 224.915845 278.430416 
L 225.008531 270.765624 
L 225.111183 270.765624 
L 225.111183 266.933228 
L 226.421846 266.933228 
L 226.421846 263.100832 
L 227.163438 263.100832 
L 227.163438 259.268436 
L 227.632962 259.268436 
L 227.632962 255.43604 
L 228.808145 255.43604 
L 228.815437 243.938851 
L 230.785029 243.938851 
L 230.785029 240.106455 
L 230.968593 240.106455 
L 230.968593 236.274059 
L 251.745071 236.274059 
L 251.745071 232.441663 
L 252.420368 232.441663 
L 252.420368 228.609267 
L 253.067578 228.609267 
L 253.159617 220.944475 
L 253.227119 220.944475 
L 253.227119 217.112079 
L 253.613221 217.112079 
L 253.665057 205.614891 
L 253.968012 205.614891 
L 253.968012 201.782495 
L 254.124948 201.782495 
L 254.202384 186.452911 
L 254.288215 186.452911 
L 254.331416 178.788119 
L 254.460766 178.788119 
L 254.509574 155.793743 
L 254.67016 155.793743 
L 254.767602 144.296554 
L 254.833107 144.296554 
L 254.927163 136.631762 
L 254.967624 136.631762 
L 255.045031 128.96697 
L 255.207535 128.96697 
L 255.234877 121.302178 
L 266.976233 121.302178 
L 266.976233 117.469782 
L 267.332186 117.469782 
L 267.386268 102.140198 
L 267.487404 102.140198 
L 267.487404 98.307802 
L 267.671763 98.307802 
L 267.762743 90.64301 
L 267.822199 90.64301 
L 267.822199 86.810614 
L 268.162694 86.810614 
L 268.162783 79.145822 
L 268.421373 79.145822 
L 268.421373 75.313426 
L 268.535108 75.313426 
L 268.535108 71.48103 
L 269.023385 71.48103 
L 269.045995 63.816238 
L 301.180953 63.816238 
L 301.180953 59.983842 
L 301.49254 59.983842 
L 301.49254 56.151446 
L 301.956094 56.151446 
L 301.956094 52.31905 
L 302.834464 52.31905 
L 302.834464 48.486653 
L 304.538828 48.486653 
L 304.60501 40.821861 
L 306.633562 40.821861 
L 306.633562 36.989465 
L 308.303215 36.989465 
L 308.303215 33.157069 
L 308.629012 33.157069 
L 308.689192 25.492277 
L 309.037989 25.492277 
L 309.037989 21.659881 
L 310.430878 21.659881 
L 310.430878 17.827485 
L 310.948698 17.827485 
L 310.948698 13.995089 
L 311.530725 13.995089 
L 311.530725 10.162693 
L 312.621239 10.162693 
L 312.621239 6.330297 
L 312.621239 6.330297 
L 460.8 6.330297 
L 460.8 6.330297 
" style="fill:none;stroke:#bf00bf;stroke-linecap:square;stroke-width:1.5;"/>
   </g>
   <g id="line2d_24">
    <path clip-path="url(#p9db46a5834)" d="M 218.85143 293.76 
L 218.85143 289.927604 
L 219.932569 289.927604 
L 219.932569 286.095208 
L 220.850484 286.095208 
L 220.850484 282.262812 
L 221.287153 282.262812 
L 221.287153 278.430416 
L 222.748633 278.430416 
L 222.748633 274.59802 
L 223.48288 274.59802 
L 223.48288 270.765624 
L 223.701674 270.765624 
L 223.701674 266.933228 
L 224.371165 266.933228 
L 224.371165 263.100832 
L 224.604895 263.100832 
L 224.604895 259.268436 
L 225.743256 259.268436 
L 225.743256 255.43604 
L 225.94656 255.43604 
L 225.94656 251.603644 
L 226.711824 251.603644 
L 226.711824 247.771248 
L 227.198411 247.771248 
L 227.198411 243.938851 
L 228.746838 243.938851 
L 228.746838 240.106455 
L 230.072082 240.106455 
L 230.072082 236.274059 
L 248.936524 236.274059 
L 248.936524 232.441663 
L 251.804198 232.441663 
L 251.804198 228.609267 
L 252.845727 228.609267 
L 252.918882 213.279683 
L 253.213299 213.279683 
L 253.281046 205.614891 
L 253.639871 205.614891 
L 253.685064 197.950099 
L 254.006564 197.950099 
L 254.078207 182.620515 
L 254.127896 182.620515 
L 254.238179 171.123327 
L 254.274954 171.123327 
L 254.381407 151.961347 
L 254.534655 151.961347 
L 254.645436 144.296554 
L 254.729396 144.296554 
L 254.787901 132.799366 
L 254.871533 132.799366 
L 254.871533 128.96697 
L 255.016771 128.96697 
L 255.092712 121.302178 
L 266.243007 121.302178 
L 266.264687 113.637386 
L 266.902573 113.637386 
L 266.976233 105.972594 
L 267.056878 105.972594 
L 267.056878 102.140198 
L 267.290491 102.140198 
L 267.385357 86.810614 
L 267.487404 86.810614 
L 267.487404 82.978218 
L 267.671763 82.978218 
L 267.767868 71.48103 
L 268.115465 71.48103 
L 268.115465 67.648634 
L 268.421373 67.648634 
L 268.421373 63.816238 
L 279.288969 63.816238 
L 279.288969 59.983842 
L 285.296571 59.983842 
L 285.296571 56.151446 
L 291.553246 56.151446 
L 291.553246 52.31905 
L 291.994758 52.31905 
L 291.994758 48.486653 
L 294.167137 48.486653 
L 294.167137 44.654257 
L 296.933491 44.654257 
L 296.933491 40.821861 
L 298.488727 40.821861 
L 298.488727 36.989465 
L 300.375032 36.989465 
L 300.375032 33.157069 
L 301.57755 33.157069 
L 301.57755 29.324673 
L 302.7269 29.324673 
L 302.7269 25.492277 
L 303.935884 25.492277 
L 303.935884 21.659881 
L 306.081803 21.659881 
L 306.081803 17.827485 
L 306.398314 17.827485 
L 306.398314 13.995089 
L 308.812228 13.995089 
L 308.812228 10.162693 
L 309.499885 10.162693 
L 309.499885 6.330297 
L 309.499885 6.330297 
L 460.8 6.330297 
L 460.8 6.330297 
" style="fill:none;stroke:#000000;stroke-linecap:square;stroke-width:1.5;"/>
   </g>
   <g id="line2d_25">
    <path clip-path="url(#p9db46a5834)" d="M 218.728824 293.76 
L 218.728824 289.927604 
L 218.85143 289.927604 
L 218.85143 286.095208 
L 219.874744 286.095208 
L 219.874744 282.262812 
L 220.608438 282.262812 
L 220.608438 278.430416 
L 220.850484 278.430416 
L 220.850484 274.59802 
L 221.125356 274.59802 
L 221.19659 266.933228 
L 221.287153 266.933228 
L 221.287153 263.100832 
L 222.042403 263.100832 
L 222.094346 251.603644 
L 222.709337 251.603644 
L 222.748633 243.938851 
L 223.068318 243.938851 
L 223.068318 240.106455 
L 223.226387 240.106455 
L 223.226387 236.274059 
L 223.351969 236.274059 
L 223.351969 232.441663 
L 223.48288 232.441663 
L 223.590881 224.776871 
L 223.701674 224.776871 
L 223.701674 220.944475 
L 224.371165 220.944475 
L 224.371165 217.112079 
L 224.604895 217.112079 
L 224.604895 213.279683 
L 224.82176 213.279683 
L 224.82176 209.447287 
L 228.963722 209.447287 
L 228.963722 205.614891 
L 235.009734 205.614891 
L 235.009734 201.782495 
L 236.489042 201.782495 
L 236.489042 197.950099 
L 237.957785 197.950099 
L 237.957785 194.117703 
L 240.906109 194.117703 
L 240.906109 190.285307 
L 241.763298 190.285307 
L 241.763298 186.452911 
L 244.750584 186.452911 
L 244.750584 182.620515 
L 245.023136 182.620515 
L 245.023136 178.788119 
L 246.331664 178.788119 
L 246.331664 174.955723 
L 246.714092 174.955723 
L 246.714092 171.123327 
L 247.78616 171.123327 
L 247.78616 167.290931 
L 247.959796 167.290931 
L 247.959796 163.458535 
L 248.365795 163.458535 
L 248.365795 159.626139 
L 249.107065 159.626139 
L 249.107065 155.793743 
L 249.956793 155.793743 
L 249.956793 151.961347 
L 250.623746 151.961347 
L 250.673012 144.296554 
L 250.788042 144.296554 
L 250.819287 136.631762 
L 251.11915 136.631762 
L 251.11915 132.799366 
L 251.448503 132.799366 
L 251.448503 128.96697 
L 251.599922 128.96697 
L 251.667762 121.302178 
L 252.013677 121.302178 
L 252.013677 117.469782 
L 252.478023 117.469782 
L 252.478023 113.637386 
L 252.76152 113.637386 
L 252.76152 109.80499 
L 252.957028 109.80499 
L 253.03815 94.475406 
L 253.119882 94.475406 
L 253.210841 86.810614 
L 253.630313 86.810614 
L 253.630313 82.978218 
L 253.986938 82.978218 
L 253.986938 79.145822 
L 254.185048 79.145822 
L 254.274954 71.48103 
L 257.887263 71.48103 
L 257.887263 67.648634 
L 259.914182 67.648634 
L 259.914182 63.816238 
L 264.53816 63.816238 
L 264.53816 59.983842 
L 264.681026 59.983842 
L 264.681026 56.151446 
L 265.713789 56.151446 
L 265.713789 52.31905 
L 266.173638 52.31905 
L 266.264687 44.654257 
L 266.789019 44.654257 
L 266.789019 40.821861 
L 266.976233 40.821861 
L 267.056878 33.157069 
L 267.109446 33.157069 
L 267.194041 21.659881 
L 267.332186 21.659881 
L 267.385357 13.995089 
L 267.671763 13.995089 
L 267.672389 6.330297 
L 267.672389 6.330297 
L 460.8 6.330297 
L 460.8 6.330297 
" style="fill:none;stroke:#00bfbf;stroke-linecap:square;stroke-width:1.5;"/>
   </g>
   <g id="line2d_26">
    <path clip-path="url(#p9db46a5834)" d="M 95.317043 293.76 
L 95.317043 289.927604 
L 96.580311 289.927604 
L 96.580311 286.095208 
L 182.568206 286.095208 
L 182.568206 282.262812 
L 186.938448 282.262812 
L 186.938448 278.430416 
L 189.922684 278.430416 
L 189.922684 274.59802 
L 191.002658 274.59802 
L 191.002658 270.765624 
L 192.339849 270.765624 
L 192.339849 266.933228 
L 192.979642 266.933228 
L 192.979642 263.100832 
L 195.075372 263.100832 
L 195.075372 259.268436 
L 195.194718 259.268436 
L 195.258991 251.603644 
L 196.611578 251.603644 
L 196.611578 247.771248 
L 198.622147 247.771248 
L 198.622147 243.938851 
L 200.421309 243.938851 
L 200.421309 240.106455 
L 200.98317 240.106455 
L 200.98317 236.274059 
L 201.585874 236.274059 
L 201.658699 217.112079 
L 206.738612 217.112079 
L 206.738612 213.279683 
L 212.24706 213.279683 
L 212.24706 209.447287 
L 212.843012 209.447287 
L 212.843012 205.614891 
L 212.967832 205.614891 
L 212.967832 201.782495 
L 213.252733 201.782495 
L 213.279591 194.117703 
L 213.696792 194.117703 
L 213.769278 182.620515 
L 213.854191 182.620515 
L 213.854191 178.788119 
L 214.261028 178.788119 
L 214.261028 174.955723 
L 214.431438 174.955723 
L 214.431438 171.123327 
L 214.693078 171.123327 
L 214.693078 167.290931 
L 214.828166 167.290931 
L 214.836625 159.626139 
L 214.944279 159.626139 
L 214.944279 155.793743 
L 215.618778 155.793743 
L 215.724561 148.12895 
L 215.990748 148.12895 
L 216.078176 140.464158 
L 216.398648 140.464158 
L 216.398648 136.631762 
L 223.103605 136.631762 
L 223.103605 132.799366 
L 223.922378 132.799366 
L 223.922378 128.96697 
L 227.586021 128.96697 
L 227.586021 125.134574 
L 229.566262 125.134574 
L 229.566262 121.302178 
L 229.992625 121.302178 
L 230.082539 113.637386 
L 230.166384 113.637386 
L 230.166384 109.80499 
L 231.416158 109.80499 
L 231.416158 105.972594 
L 232.56273 105.972594 
L 232.56273 102.140198 
L 232.6875 102.140198 
L 232.6875 98.307802 
L 235.712014 98.307802 
L 235.712014 94.475406 
L 240.193474 94.475406 
L 240.21163 82.978218 
L 240.571457 82.978218 
L 240.571457 79.145822 
L 241.236814 79.145822 
L 241.237754 71.48103 
L 248.568568 71.48103 
L 248.568568 67.648634 
L 251.938207 67.648634 
L 251.938207 63.816238 
L 253.159917 63.816238 
L 253.159917 59.983842 
L 257.018423 59.983842 
L 257.018423 56.151446 
L 257.268726 56.151446 
L 257.268726 52.31905 
L 258.169197 52.31905 
L 258.169197 48.486653 
L 258.481118 48.486653 
L 258.497429 40.821861 
L 258.592783 40.821861 
L 258.592783 36.989465 
L 258.750347 36.989465 
L 258.846776 25.492277 
L 259.144273 25.492277 
L 259.144273 21.659881 
L 259.688782 21.659881 
L 259.688782 17.827485 
L 260.369068 17.827485 
L 260.406772 10.162693 
L 260.868347 10.162693 
L 260.868347 6.330297 
L 260.868347 6.330297 
L 460.8 6.330297 
L 460.8 6.330297 
" style="fill:none;stroke:#bf00bf;stroke-linecap:square;stroke-width:1.5;"/>
   </g>
   <g id="line2d_27">
    <path clip-path="url(#p9db46a5834)" d="M -0.111206 293.76 
L -0.111206 286.095208 
L 181.334632 286.095208 
L 181.334632 282.262812 
L 184.438036 282.262812 
L 184.438036 278.430416 
L 184.901325 278.430416 
L 184.901325 274.59802 
L 188.50491 274.59802 
L 188.50491 270.765624 
L 190.298984 270.765624 
L 190.298984 266.933228 
L 190.827147 266.933228 
L 190.827147 263.100832 
L 191.004626 263.100832 
L 191.004626 259.268436 
L 191.394708 259.268436 
L 191.394708 255.43604 
L 193.870002 255.43604 
L 193.870002 251.603644 
L 196.083426 251.603644 
L 196.083426 247.771248 
L 196.696255 247.771248 
L 196.696255 243.938851 
L 198.306943 243.938851 
L 198.306943 240.106455 
L 199.591464 240.106455 
L 199.591464 236.274059 
L 200.940392 236.274059 
L 200.940392 232.441663 
L 201.643214 232.441663 
L 201.643214 217.112079 
L 205.557173 217.112079 
L 205.557173 213.279683 
L 212.245519 213.279683 
L 212.245519 209.447287 
L 212.609936 209.447287 
L 212.609936 205.614891 
L 212.963139 205.614891 
L 212.963139 201.782495 
L 213.135286 201.782495 
L 213.135286 197.950099 
L 213.252567 197.950099 
L 213.252567 194.117703 
L 213.692774 194.117703 
L 213.799585 178.788119 
L 214.150929 178.788119 
L 214.150929 174.955723 
L 214.427761 174.955723 
L 214.427761 171.123327 
L 214.578082 171.123327 
L 214.578082 167.290931 
L 214.825461 167.290931 
L 214.925482 155.793743 
L 215.447467 155.793743 
L 215.447467 151.961347 
L 215.720574 151.961347 
L 215.720574 148.12895 
L 215.98905 148.12895 
L 216.07712 140.464158 
L 216.398413 140.464158 
L 216.398413 136.631762 
L 223.088524 136.631762 
L 223.088524 132.799366 
L 223.886827 132.799366 
L 223.886827 128.96697 
L 227.525621 128.96697 
L 227.525621 125.134574 
L 229.557558 125.134574 
L 229.557558 121.302178 
L 229.992528 121.302178 
L 229.992528 109.80499 
L 231.416147 109.80499 
L 231.416147 105.972594 
L 232.533397 105.972594 
L 232.533397 102.140198 
L 232.686255 102.140198 
L 232.686255 98.307802 
L 235.711987 98.307802 
L 235.711987 94.475406 
L 240.193433 94.475406 
L 240.193433 82.978218 
L 240.568029 82.978218 
L 240.568029 79.145822 
L 241.236766 79.145822 
L 241.236766 71.48103 
L 248.568151 71.48103 
L 248.568151 67.648634 
L 250.744357 67.648634 
L 250.744357 63.816238 
L 253.159916 63.816238 
L 253.159916 59.983842 
L 256.645971 59.983842 
L 256.722642 52.31905 
L 257.38622 52.31905 
L 257.38622 48.486653 
L 257.694568 48.486653 
L 257.694568 44.654257 
L 257.871298 44.654257 
L 257.871298 40.821861 
L 258.045354 40.821861 
L 258.045354 36.989465 
L 258.159433 36.989465 
L 258.159433 33.157069 
L 258.349908 33.157069 
L 258.349908 29.324673 
L 258.624002 29.324673 
L 258.624002 25.492277 
L 258.876299 25.492277 
L 258.897878 17.827485 
L 259.274607 17.827485 
L 259.274607 13.995089 
L 259.846283 13.995089 
L 259.846283 10.162693 
L 260.1482 10.162693 
L 260.1482 6.330297 
L 260.1482 6.330297 
L 460.8 6.330297 
L 460.8 6.330297 
" style="fill:none;stroke:#000000;stroke-linecap:square;stroke-width:1.5;"/>
   </g>
   <g id="line2d_28">
    <path clip-path="url(#p9db46a5834)" d="M -0.111206 293.76 
L -0.111206 286.095208 
L 181.334632 286.095208 
L 181.334632 282.262812 
L 184.438036 282.262812 
L 184.438036 278.430416 
L 184.901325 278.430416 
L 184.901325 274.59802 
L 188.50491 274.59802 
L 188.50491 270.765624 
L 190.298984 270.765624 
L 190.298984 266.933228 
L 190.827147 266.933228 
L 190.827147 263.100832 
L 191.004626 263.100832 
L 191.004626 259.268436 
L 191.394708 259.268436 
L 191.394708 255.43604 
L 193.870002 255.43604 
L 193.870002 251.603644 
L 196.083426 251.603644 
L 196.083426 247.771248 
L 196.696255 247.771248 
L 196.696255 243.938851 
L 198.306943 243.938851 
L 198.306943 240.106455 
L 199.591464 240.106455 
L 199.591464 236.274059 
L 200.940392 236.274059 
L 200.940392 232.441663 
L 201.643214 232.441663 
L 201.643214 217.112079 
L 205.557173 217.112079 
L 205.557173 213.279683 
L 212.245519 213.279683 
L 212.245519 209.447287 
L 212.609936 209.447287 
L 212.609936 205.614891 
L 212.963139 205.614891 
L 212.963139 201.782495 
L 213.135286 201.782495 
L 213.135286 197.950099 
L 213.252567 197.950099 
L 213.252567 194.117703 
L 213.692774 194.117703 
L 213.799585 178.788119 
L 214.150929 178.788119 
L 214.150929 174.955723 
L 214.427761 174.955723 
L 214.427761 171.123327 
L 214.578082 171.123327 
L 214.578082 167.290931 
L 214.825461 167.290931 
L 214.925482 155.793743 
L 215.447467 155.793743 
L 215.447467 151.961347 
L 215.720574 151.961347 
L 215.720574 148.12895 
L 215.98905 148.12895 
L 216.07712 140.464158 
L 216.398413 140.464158 
L 216.398413 136.631762 
L 223.088524 136.631762 
L 223.088524 132.799366 
L 223.886827 132.799366 
L 223.886827 128.96697 
L 227.525621 128.96697 
L 227.525621 125.134574 
L 229.557558 125.134574 
L 229.557558 121.302178 
L 229.992528 121.302178 
L 229.992528 109.80499 
L 231.416147 109.80499 
L 231.416147 105.972594 
L 232.533397 105.972594 
L 232.533397 102.140198 
L 232.686255 102.140198 
L 232.686255 98.307802 
L 235.711987 98.307802 
L 235.711987 94.475406 
L 240.193433 94.475406 
L 240.193433 82.978218 
L 240.568029 82.978218 
L 240.568029 79.145822 
L 241.236766 79.145822 
L 241.236766 71.48103 
L 248.568151 71.48103 
L 248.568151 67.648634 
L 250.744357 67.648634 
L 250.744357 63.816238 
L 253.159916 63.816238 
L 253.159916 59.983842 
L 256.645971 59.983842 
L 256.722642 52.31905 
L 257.38622 52.31905 
L 257.38622 48.486653 
L 257.694568 48.486653 
L 257.694568 44.654257 
L 257.871298 44.654257 
L 257.871298 40.821861 
L 258.045354 40.821861 
L 258.045354 36.989465 
L 258.159433 36.989465 
L 258.159433 33.157069 
L 258.349908 33.157069 
L 258.349908 29.324673 
L 258.624002 29.324673 
L 258.624002 25.492277 
L 258.876299 25.492277 
L 258.897878 17.827485 
L 259.274607 17.827485 
L 259.274607 13.995089 
L 259.846283 13.995089 
L 259.846283 10.162693 
L 260.1482 10.162693 
L 260.1482 6.330297 
L 260.1482 6.330297 
L 460.8 6.330297 
L 460.8 6.330297 
" style="fill:none;stroke:#00bfbf;stroke-linecap:square;stroke-width:1.5;"/>
   </g>
   <g id="patch_3">
    <path d="M 0 293.76 
L 0 3.456 
" style="fill:none;stroke:#000000;stroke-linecap:square;stroke-linejoin:miter;stroke-width:0.8;"/>
   </g>
   <g id="patch_4">
    <path d="M 460.8 293.76 
L 460.8 3.456 
" style="fill:none;stroke:#000000;stroke-linecap:square;stroke-linejoin:miter;stroke-width:0.8;"/>
   </g>
   <g id="patch_5">
    <path d="M 0 293.76 
L 460.8 293.76 
" style="fill:none;stroke:#000000;stroke-linecap:square;stroke-linejoin:miter;stroke-width:0.8;"/>
   </g>
   <g id="patch_6">
    <path d="M 0 3.456 
L 460.8 3.456 
" style="fill:none;stroke:#000000;stroke-linecap:square;stroke-linejoin:miter;stroke-width:0.8;"/>
   </g>
   <g id="text_6">
    <!-- {f20-f24}, 20-D -->
    <g transform="translate(293.159 287.95392)scale(0.2 -0.2)">
     <defs>
      <path d="M 51.125 -9.28125 
L 51.125 -16.3125 
L 48.09375 -16.3125 
Q 35.9375 -16.3125 31.8125 -12.6875 
Q 27.6875 -9.078125 27.6875 1.703125 
L 27.6875 13.375 
Q 27.6875 20.75 25.046875 23.578125 
Q 22.40625 26.421875 15.484375 26.421875 
L 12.5 26.421875 
L 12.5 33.40625 
L 15.484375 33.40625 
Q 22.46875 33.40625 25.078125 36.203125 
Q 27.6875 39.015625 27.6875 46.296875 
L 27.6875 58.015625 
Q 27.6875 68.796875 31.8125 72.390625 
Q 35.9375 75.984375 48.09375 75.984375 
L 51.125 75.984375 
L 51.125 69 
L 47.796875 69 
Q 40.921875 69 38.8125 66.84375 
Q 36.71875 64.703125 36.71875 57.8125 
L 36.71875 45.703125 
Q 36.71875 38.03125 34.5 34.5625 
Q 32.28125 31.109375 26.90625 29.890625 
Q 32.328125 28.5625 34.515625 25.09375 
Q 36.71875 21.625 36.71875 14.015625 
L 36.71875 1.90625 
Q 36.71875 -4.984375 38.8125 -7.125 
Q 40.921875 -9.28125 47.796875 -9.28125 
z
" id="DejaVuSans-123"/>
      <path d="M 19.1875 8.296875 
L 53.609375 8.296875 
L 53.609375 0 
L 7.328125 0 
L 7.328125 8.296875 
Q 12.9375 14.109375 22.625 23.890625 
Q 32.328125 33.6875 34.8125 36.53125 
Q 39.546875 41.84375 41.421875 45.53125 
Q 43.3125 49.21875 43.3125 52.78125 
Q 43.3125 58.59375 39.234375 62.25 
Q 35.15625 65.921875 28.609375 65.921875 
Q 23.96875 65.921875 18.8125 64.3125 
Q 13.671875 62.703125 7.8125 59.421875 
L 7.8125 69.390625 
Q 13.765625 71.78125 18.9375 73 
Q 24.125 74.21875 28.421875 74.21875 
Q 39.75 74.21875 46.484375 68.546875 
Q 53.21875 62.890625 53.21875 53.421875 
Q 53.21875 48.921875 51.53125 44.890625 
Q 49.859375 40.875 45.40625 35.40625 
Q 44.1875 33.984375 37.640625 27.21875 
Q 31.109375 20.453125 19.1875 8.296875 
z
" id="DejaVuSans-50"/>
      <path d="M 12.5 -9.28125 
L 15.921875 -9.28125 
Q 22.75 -9.28125 24.828125 -7.171875 
Q 26.90625 -5.078125 26.90625 1.90625 
L 26.90625 14.015625 
Q 26.90625 21.625 29.09375 25.09375 
Q 31.296875 28.5625 36.71875 29.890625 
Q 31.296875 31.109375 29.09375 34.5625 
Q 26.90625 38.03125 26.90625 45.703125 
L 26.90625 57.8125 
Q 26.90625 64.75 24.828125 66.875 
Q 22.75 69 15.921875 69 
L 12.5 69 
L 12.5 75.984375 
L 15.578125 75.984375 
Q 27.734375 75.984375 31.8125 72.390625 
Q 35.890625 68.796875 35.890625 58.015625 
L 35.890625 46.296875 
Q 35.890625 39.015625 38.515625 36.203125 
Q 41.15625 33.40625 48.09375 33.40625 
L 51.125 33.40625 
L 51.125 26.421875 
L 48.09375 26.421875 
Q 41.15625 26.421875 38.515625 23.578125 
Q 35.890625 20.75 35.890625 13.375 
L 35.890625 1.703125 
Q 35.890625 -9.078125 31.8125 -12.6875 
Q 27.734375 -16.3125 15.578125 -16.3125 
L 12.5 -16.3125 
z
" id="DejaVuSans-125"/>
      <path d="M 11.71875 12.40625 
L 22.015625 12.40625 
L 22.015625 4 
L 14.015625 -11.625 
L 7.71875 -11.625 
L 11.71875 4 
z
" id="DejaVuSans-44"/>
     </defs>
     <use xlink:href="#DejaVuSans-123"/>
     <use x="63.623047" xlink:href="#DejaVuSans-102"/>
     <use x="98.828125" xlink:href="#DejaVuSans-50"/>
     <use x="162.451172" xlink:href="#DejaVuSans-48"/>
     <use x="226.074219" xlink:href="#DejaVuSans-45"/>
     <use x="262.158203" xlink:href="#DejaVuSans-102"/>
     <use x="297.363281" xlink:href="#DejaVuSans-50"/>
     <use x="360.986328" xlink:href="#DejaVuSans-52"/>
     <use x="424.609375" xlink:href="#DejaVuSans-125"/>
     <use x="488.232422" xlink:href="#DejaVuSans-44"/>
     <use x="520.019531" xlink:href="#DejaVuSans-32"/>
     <use x="551.806641" xlink:href="#DejaVuSans-50"/>
     <use x="615.429688" xlink:href="#DejaVuSans-48"/>
     <use x="679.052734" xlink:href="#DejaVuSans-45"/>
     <use x="715.136719" xlink:href="#DejaVuSans-68"/>
    </g>
   </g>
   <g id="text_7">
    <!-- v2.4 -->
    <g style="fill:#808080;" transform="translate(219.489063 288.777272)scale(0.1 -0.1)">
     <defs>
      <path d="M 2.984375 54.6875 
L 12.5 54.6875 
L 29.59375 8.796875 
L 46.6875 54.6875 
L 56.203125 54.6875 
L 35.6875 0 
L 23.484375 0 
z
" id="DejaVuSans-118"/>
      <path d="M 10.6875 12.40625 
L 21 12.40625 
L 21 0 
L 10.6875 0 
z
" id="DejaVuSans-46"/>
     </defs>
     <use xlink:href="#DejaVuSans-118"/>
     <use x="59.179688" xlink:href="#DejaVuSans-50"/>
     <use x="122.802734" xlink:href="#DejaVuSans-46"/>
     <use x="154.589844" xlink:href="#DejaVuSans-52"/>
    </g>
   </g>
  </g>
 </g>
 <defs>
  <clipPath id="p9db46a5834">
   <rect height="290.304" width="460.8" x="0" y="3.456"/>
  </clipPath>
 </defs>
</svg>
