<?xml version="1.0" encoding="utf-8" standalone="no"?>
<!DOCTYPE svg PUBLIC "-//W3C//DTD SVG 1.1//EN"
  "http://www.w3.org/Graphics/SVG/1.1/DTD/svg11.dtd">
<!-- Created with matplotlib (https://matplotlib.org/) -->
<svg height="345.6pt" version="1.1" viewBox="0 0 460.8 345.6" width="460.8pt" xmlns="http://www.w3.org/2000/svg" xmlns:xlink="http://www.w3.org/1999/xlink">
 <metadata>
  <rdf:RDF xmlns:cc="http://creativecommons.org/ns#" xmlns:dc="http://purl.org/dc/elements/1.1/" xmlns:rdf="http://www.w3.org/1999/02/22-rdf-syntax-ns#">
   <cc:Work>
    <dc:type rdf:resource="http://purl.org/dc/dcmitype/StillImage"/>
    <dc:date>2021-06-17T01:37:18.271405</dc:date>
    <dc:format>image/svg+xml</dc:format>
    <dc:creator>
     <cc:Agent>
      <dc:title>Matplotlib v3.3.4, https://matplotlib.org/</dc:title>
     </cc:Agent>
    </dc:creator>
   </cc:Work>
  </rdf:RDF>
 </metadata>
 <defs>
  <style type="text/css">*{stroke-linecap:butt;stroke-linejoin:round;}</style>
 </defs>
 <g id="figure_1">
  <g id="patch_1">
   <path d="M 0 345.6 
L 460.8 345.6 
L 460.8 0 
L 0 0 
z
" style="fill:#ffffff;"/>
  </g>
  <g id="axes_1">
   <g id="patch_2">
    <path d="M 0 293.76 
L 460.8 293.76 
L 460.8 3.456 
L 0 3.456 
z
" style="fill:#ffffff;"/>
   </g>
   <g id="matplotlib.axis_1">
    <g id="xtick_1">
     <g id="line2d_1">
      <path clip-path="url(#p27f5a2e46e)" d="M 102.824509 293.76 
L 102.824509 3.456 
" style="fill:none;stroke:#b0b0b0;stroke-linecap:square;stroke-width:0.8;"/>
     </g>
     <g id="line2d_2">
      <defs>
       <path d="M 0 0 
L 0 3.5 
" id="m332af615e0" style="stroke:#000000;stroke-width:0.8;"/>
      </defs>
      <g>
       <use style="stroke:#000000;stroke-width:0.8;" x="102.824509" xlink:href="#m332af615e0" y="293.76"/>
      </g>
     </g>
     <g id="text_1">
      <!-- -4 -->
      <g transform="translate(92.854196 315.956875)scale(0.2 -0.2)">
       <defs>
        <path d="M 4.890625 31.390625 
L 31.203125 31.390625 
L 31.203125 23.390625 
L 4.890625 23.390625 
z
" id="DejaVuSans-45"/>
        <path d="M 37.796875 64.3125 
L 12.890625 25.390625 
L 37.796875 25.390625 
z
M 35.203125 72.90625 
L 47.609375 72.90625 
L 47.609375 25.390625 
L 58.015625 25.390625 
L 58.015625 17.1875 
L 47.609375 17.1875 
L 47.609375 0 
L 37.796875 0 
L 37.796875 17.1875 
L 4.890625 17.1875 
L 4.890625 26.703125 
z
" id="DejaVuSans-52"/>
       </defs>
       <use xlink:href="#DejaVuSans-45"/>
       <use x="36.083984" xlink:href="#DejaVuSans-52"/>
      </g>
     </g>
    </g>
    <g id="xtick_2">
     <g id="line2d_3">
      <path clip-path="url(#p27f5a2e46e)" d="M 205.760223 293.76 
L 205.760223 3.456 
" style="fill:none;stroke:#b0b0b0;stroke-linecap:square;stroke-width:0.8;"/>
     </g>
     <g id="line2d_4">
      <g>
       <use style="stroke:#000000;stroke-width:0.8;" x="205.760223" xlink:href="#m332af615e0" y="293.76"/>
      </g>
     </g>
     <g id="text_2">
      <!-- 0 -->
      <g transform="translate(199.397723 315.956875)scale(0.2 -0.2)">
       <defs>
        <path d="M 31.78125 66.40625 
Q 24.171875 66.40625 20.328125 58.90625 
Q 16.5 51.421875 16.5 36.375 
Q 16.5 21.390625 20.328125 13.890625 
Q 24.171875 6.390625 31.78125 6.390625 
Q 39.453125 6.390625 43.28125 13.890625 
Q 47.125 21.390625 47.125 36.375 
Q 47.125 51.421875 43.28125 58.90625 
Q 39.453125 66.40625 31.78125 66.40625 
z
M 31.78125 74.21875 
Q 44.046875 74.21875 50.515625 64.515625 
Q 56.984375 54.828125 56.984375 36.375 
Q 56.984375 17.96875 50.515625 8.265625 
Q 44.046875 -1.421875 31.78125 -1.421875 
Q 19.53125 -1.421875 13.0625 8.265625 
Q 6.59375 17.96875 6.59375 36.375 
Q 6.59375 54.828125 13.0625 64.515625 
Q 19.53125 74.21875 31.78125 74.21875 
z
" id="DejaVuSans-48"/>
       </defs>
       <use xlink:href="#DejaVuSans-48"/>
      </g>
     </g>
    </g>
    <g id="xtick_3">
     <g id="line2d_5">
      <path clip-path="url(#p27f5a2e46e)" d="M 308.695938 293.76 
L 308.695938 3.456 
" style="fill:none;stroke:#b0b0b0;stroke-linecap:square;stroke-width:0.8;"/>
     </g>
     <g id="line2d_6">
      <g>
       <use style="stroke:#000000;stroke-width:0.8;" x="308.695938" xlink:href="#m332af615e0" y="293.76"/>
      </g>
     </g>
     <g id="text_3">
      <!-- 4 -->
      <g transform="translate(302.333438 315.956875)scale(0.2 -0.2)">
       <use xlink:href="#DejaVuSans-52"/>
      </g>
     </g>
    </g>
    <g id="xtick_4">
     <g id="line2d_7">
      <path clip-path="url(#p27f5a2e46e)" d="M 411.631653 293.76 
L 411.631653 3.456 
" style="fill:none;stroke:#b0b0b0;stroke-linecap:square;stroke-width:0.8;"/>
     </g>
     <g id="line2d_8">
      <g>
       <use style="stroke:#000000;stroke-width:0.8;" x="411.631653" xlink:href="#m332af615e0" y="293.76"/>
      </g>
     </g>
     <g id="text_4">
      <!-- 8 -->
      <g transform="translate(405.269153 315.956875)scale(0.2 -0.2)">
       <defs>
        <path d="M 31.78125 34.625 
Q 24.75 34.625 20.71875 30.859375 
Q 16.703125 27.09375 16.703125 20.515625 
Q 16.703125 13.921875 20.71875 10.15625 
Q 24.75 6.390625 31.78125 6.390625 
Q 38.8125 6.390625 42.859375 10.171875 
Q 46.921875 13.96875 46.921875 20.515625 
Q 46.921875 27.09375 42.890625 30.859375 
Q 38.875 34.625 31.78125 34.625 
z
M 21.921875 38.8125 
Q 15.578125 40.375 12.03125 44.71875 
Q 8.5 49.078125 8.5 55.328125 
Q 8.5 64.0625 14.71875 69.140625 
Q 20.953125 74.21875 31.78125 74.21875 
Q 42.671875 74.21875 48.875 69.140625 
Q 55.078125 64.0625 55.078125 55.328125 
Q 55.078125 49.078125 51.53125 44.71875 
Q 48 40.375 41.703125 38.8125 
Q 48.828125 37.15625 52.796875 32.3125 
Q 56.78125 27.484375 56.78125 20.515625 
Q 56.78125 9.90625 50.3125 4.234375 
Q 43.84375 -1.421875 31.78125 -1.421875 
Q 19.734375 -1.421875 13.25 4.234375 
Q 6.78125 9.90625 6.78125 20.515625 
Q 6.78125 27.484375 10.78125 32.3125 
Q 14.796875 37.15625 21.921875 38.8125 
z
M 18.3125 54.390625 
Q 18.3125 48.734375 21.84375 45.5625 
Q 25.390625 42.390625 31.78125 42.390625 
Q 38.140625 42.390625 41.71875 45.5625 
Q 45.3125 48.734375 45.3125 54.390625 
Q 45.3125 60.0625 41.71875 63.234375 
Q 38.140625 66.40625 31.78125 66.40625 
Q 25.390625 66.40625 21.84375 63.234375 
Q 18.3125 60.0625 18.3125 54.390625 
z
" id="DejaVuSans-56"/>
       </defs>
       <use xlink:href="#DejaVuSans-56"/>
      </g>
     </g>
    </g>
    <g id="text_5">
     <!-- log10 of Df -->
     <g transform="translate(175.214063 339.313125)scale(0.2 -0.2)">
      <defs>
       <path d="M 9.421875 75.984375 
L 18.40625 75.984375 
L 18.40625 0 
L 9.421875 0 
z
" id="DejaVuSans-108"/>
       <path d="M 30.609375 48.390625 
Q 23.390625 48.390625 19.1875 42.75 
Q 14.984375 37.109375 14.984375 27.296875 
Q 14.984375 17.484375 19.15625 11.84375 
Q 23.34375 6.203125 30.609375 6.203125 
Q 37.796875 6.203125 41.984375 11.859375 
Q 46.1875 17.53125 46.1875 27.296875 
Q 46.1875 37.015625 41.984375 42.703125 
Q 37.796875 48.390625 30.609375 48.390625 
z
M 30.609375 56 
Q 42.328125 56 49.015625 48.375 
Q 55.71875 40.765625 55.71875 27.296875 
Q 55.71875 13.875 49.015625 6.21875 
Q 42.328125 -1.421875 30.609375 -1.421875 
Q 18.84375 -1.421875 12.171875 6.21875 
Q 5.515625 13.875 5.515625 27.296875 
Q 5.515625 40.765625 12.171875 48.375 
Q 18.84375 56 30.609375 56 
z
" id="DejaVuSans-111"/>
       <path d="M 45.40625 27.984375 
Q 45.40625 37.75 41.375 43.109375 
Q 37.359375 48.484375 30.078125 48.484375 
Q 22.859375 48.484375 18.828125 43.109375 
Q 14.796875 37.75 14.796875 27.984375 
Q 14.796875 18.265625 18.828125 12.890625 
Q 22.859375 7.515625 30.078125 7.515625 
Q 37.359375 7.515625 41.375 12.890625 
Q 45.40625 18.265625 45.40625 27.984375 
z
M 54.390625 6.78125 
Q 54.390625 -7.171875 48.1875 -13.984375 
Q 42 -20.796875 29.203125 -20.796875 
Q 24.46875 -20.796875 20.265625 -20.09375 
Q 16.0625 -19.390625 12.109375 -17.921875 
L 12.109375 -9.1875 
Q 16.0625 -11.328125 19.921875 -12.34375 
Q 23.78125 -13.375 27.78125 -13.375 
Q 36.625 -13.375 41.015625 -8.765625 
Q 45.40625 -4.15625 45.40625 5.171875 
L 45.40625 9.625 
Q 42.625 4.78125 38.28125 2.390625 
Q 33.9375 0 27.875 0 
Q 17.828125 0 11.671875 7.65625 
Q 5.515625 15.328125 5.515625 27.984375 
Q 5.515625 40.671875 11.671875 48.328125 
Q 17.828125 56 27.875 56 
Q 33.9375 56 38.28125 53.609375 
Q 42.625 51.21875 45.40625 46.390625 
L 45.40625 54.6875 
L 54.390625 54.6875 
z
" id="DejaVuSans-103"/>
       <path d="M 12.40625 8.296875 
L 28.515625 8.296875 
L 28.515625 63.921875 
L 10.984375 60.40625 
L 10.984375 69.390625 
L 28.421875 72.90625 
L 38.28125 72.90625 
L 38.28125 8.296875 
L 54.390625 8.296875 
L 54.390625 0 
L 12.40625 0 
z
" id="DejaVuSans-49"/>
       <path id="DejaVuSans-32"/>
       <path d="M 37.109375 75.984375 
L 37.109375 68.5 
L 28.515625 68.5 
Q 23.6875 68.5 21.796875 66.546875 
Q 19.921875 64.59375 19.921875 59.515625 
L 19.921875 54.6875 
L 34.71875 54.6875 
L 34.71875 47.703125 
L 19.921875 47.703125 
L 19.921875 0 
L 10.890625 0 
L 10.890625 47.703125 
L 2.296875 47.703125 
L 2.296875 54.6875 
L 10.890625 54.6875 
L 10.890625 58.5 
Q 10.890625 67.625 15.140625 71.796875 
Q 19.390625 75.984375 28.609375 75.984375 
z
" id="DejaVuSans-102"/>
       <path d="M 19.671875 64.796875 
L 19.671875 8.109375 
L 31.59375 8.109375 
Q 46.6875 8.109375 53.6875 14.9375 
Q 60.6875 21.78125 60.6875 36.53125 
Q 60.6875 51.171875 53.6875 57.984375 
Q 46.6875 64.796875 31.59375 64.796875 
z
M 9.8125 72.90625 
L 30.078125 72.90625 
Q 51.265625 72.90625 61.171875 64.09375 
Q 71.09375 55.28125 71.09375 36.53125 
Q 71.09375 17.671875 61.125 8.828125 
Q 51.171875 0 30.078125 0 
L 9.8125 0 
z
" id="DejaVuSans-68"/>
      </defs>
      <use xlink:href="#DejaVuSans-108"/>
      <use x="27.783203" xlink:href="#DejaVuSans-111"/>
      <use x="88.964844" xlink:href="#DejaVuSans-103"/>
      <use x="152.441406" xlink:href="#DejaVuSans-49"/>
      <use x="216.064453" xlink:href="#DejaVuSans-48"/>
      <use x="279.6875" xlink:href="#DejaVuSans-32"/>
      <use x="311.474609" xlink:href="#DejaVuSans-111"/>
      <use x="372.65625" xlink:href="#DejaVuSans-102"/>
      <use x="407.861328" xlink:href="#DejaVuSans-32"/>
      <use x="439.648438" xlink:href="#DejaVuSans-68"/>
      <use x="516.650391" xlink:href="#DejaVuSans-102"/>
     </g>
    </g>
   </g>
   <g id="matplotlib.axis_2">
    <g id="ytick_1">
     <g id="line2d_9">
      <path clip-path="url(#p27f5a2e46e)" d="M 0 293.76 
L 460.8 293.76 
" style="fill:none;stroke:#b0b0b0;stroke-linecap:square;stroke-width:0.8;"/>
     </g>
     <g id="line2d_10">
      <defs>
       <path d="M 0 0 
L -3.5 0 
" id="me28684880f" style="stroke:#000000;stroke-width:0.8;"/>
      </defs>
      <g>
       <use style="stroke:#000000;stroke-width:0.8;" x="0" xlink:href="#me28684880f" y="293.76"/>
      </g>
     </g>
    </g>
    <g id="ytick_2">
     <g id="line2d_11">
      <path clip-path="url(#p27f5a2e46e)" d="M 0 236.274059 
L 460.8 236.274059 
" style="fill:none;stroke:#b0b0b0;stroke-linecap:square;stroke-width:0.8;"/>
     </g>
     <g id="line2d_12">
      <g>
       <use style="stroke:#000000;stroke-width:0.8;" x="0" xlink:href="#me28684880f" y="236.274059"/>
      </g>
     </g>
    </g>
    <g id="ytick_3">
     <g id="line2d_13">
      <path clip-path="url(#p27f5a2e46e)" d="M 0 178.788119 
L 460.8 178.788119 
" style="fill:none;stroke:#b0b0b0;stroke-linecap:square;stroke-width:0.8;"/>
     </g>
     <g id="line2d_14">
      <g>
       <use style="stroke:#000000;stroke-width:0.8;" x="0" xlink:href="#me28684880f" y="178.788119"/>
      </g>
     </g>
    </g>
    <g id="ytick_4">
     <g id="line2d_15">
      <path clip-path="url(#p27f5a2e46e)" d="M 0 121.302178 
L 460.8 121.302178 
" style="fill:none;stroke:#b0b0b0;stroke-linecap:square;stroke-width:0.8;"/>
     </g>
     <g id="line2d_16">
      <g>
       <use style="stroke:#000000;stroke-width:0.8;" x="0" xlink:href="#me28684880f" y="121.302178"/>
      </g>
     </g>
    </g>
    <g id="ytick_5">
     <g id="line2d_17">
      <path clip-path="url(#p27f5a2e46e)" d="M 0 63.816238 
L 460.8 63.816238 
" style="fill:none;stroke:#b0b0b0;stroke-linecap:square;stroke-width:0.8;"/>
     </g>
     <g id="line2d_18">
      <g>
       <use style="stroke:#000000;stroke-width:0.8;" x="0" xlink:href="#me28684880f" y="63.816238"/>
      </g>
     </g>
    </g>
    <g id="ytick_6">
     <g id="line2d_19">
      <path clip-path="url(#p27f5a2e46e)" d="M 0 6.330297 
L 460.8 6.330297 
" style="fill:none;stroke:#b0b0b0;stroke-linecap:square;stroke-width:0.8;"/>
     </g>
     <g id="line2d_20">
      <g>
       <use style="stroke:#000000;stroke-width:0.8;" x="0" xlink:href="#me28684880f" y="6.330297"/>
      </g>
     </g>
    </g>
   </g>
   <g id="line2d_21">
    <path clip-path="url(#p27f5a2e46e)" d="M -1 154.835644 
L 194.19518 154.835644 
L 194.19518 150.045149 
L 194.270887 150.045149 
L 194.270887 145.254653 
L 194.622294 145.254653 
L 194.622294 140.464158 
L 201.953647 140.464158 
L 201.953647 135.673663 
L 202.255145 135.673663 
L 202.255145 130.883168 
L 208.181773 130.883168 
L 208.181773 126.092673 
L 212.068071 126.092673 
L 212.068071 121.302178 
L 218.148266 121.302178 
L 218.148266 116.511683 
L 218.522145 116.511683 
L 218.522145 111.721188 
L 219.376503 111.721188 
L 219.376503 106.930693 
L 221.216156 106.930693 
L 221.216156 102.140198 
L 221.388111 102.140198 
L 221.388111 97.349703 
L 222.007482 97.349703 
L 222.007482 92.559208 
L 225.3382 92.559208 
L 225.3382 87.768713 
L 228.049234 87.768713 
L 228.049234 82.978218 
L 229.476014 82.978218 
L 229.476014 78.187723 
L 230.014065 78.187723 
L 230.014065 73.397228 
L 233.393509 73.397228 
L 233.393509 68.606733 
L 234.001529 68.606733 
L 234.001529 63.816238 
L 235.968293 63.816238 
L 235.968293 59.025743 
L 236.071086 59.025743 
L 236.071086 54.235248 
L 236.810479 54.235248 
L 236.810479 49.444752 
L 239.795001 49.444752 
L 239.795001 44.654257 
L 240.996143 44.654257 
L 240.996143 39.863762 
L 241.72048 39.863762 
L 241.72048 35.073267 
L 242.163923 35.073267 
L 242.163923 30.282772 
L 242.796923 30.282772 
L 242.796923 25.492277 
L 243.212854 25.492277 
L 243.212854 20.701782 
L 243.974452 20.701782 
L 243.974452 15.911287 
L 244.983106 15.911287 
L 244.983106 11.120792 
L 248.41263 11.120792 
L 248.41263 6.330297 
L 248.41263 6.330297 
L 248.41263 6.330297 
L 460.8 6.330297 
" style="fill:none;stroke:#ff0000;stroke-linecap:square;stroke-width:3;"/>
   </g>
   <g id="line2d_22">
    <path clip-path="url(#p27f5a2e46e)" d="M 259.587032 293.76 
L 259.587032 288.969505 
L 259.587032 288.969505 
L 259.587032 284.17901 
L 259.587032 284.17901 
L 259.587032 279.388515 
L 259.587032 279.388515 
L 259.587032 274.59802 
L 259.587032 274.59802 
L 259.587032 269.807525 
L 259.587032 269.807525 
L 259.587032 265.01703 
L 259.587032 265.01703 
L 259.587032 260.226535 
L 259.587032 260.226535 
L 259.587032 255.43604 
L 259.587032 255.43604 
L 259.587032 250.645545 
L 259.587032 250.645545 
L 259.587032 245.85505 
L 259.587032 245.85505 
L 259.587032 241.064554 
L 259.587032 241.064554 
L 259.587032 236.274059 
L 259.587032 236.274059 
L 259.587032 231.483564 
L 259.587032 231.483564 
L 259.587032 226.693069 
L 259.587032 226.693069 
L 259.587032 221.902574 
L 271.23851 221.902574 
L 271.23851 217.112079 
L 275.791782 217.112079 
L 275.791782 212.321584 
L 275.989523 212.321584 
L 275.989523 207.531089 
L 276.724384 207.531089 
L 276.724384 202.740594 
L 278.091855 202.740594 
L 278.091855 197.950099 
L 278.622588 197.950099 
L 278.622588 193.159604 
L 279.489922 193.159604 
L 279.489922 188.369109 
L 280.826693 188.369109 
L 280.826693 183.578614 
L 283.968669 183.578614 
L 283.968669 178.788119 
L 285.037137 178.788119 
L 285.037137 173.997624 
L 285.377941 173.997624 
L 285.377941 169.207129 
L 286.846651 169.207129 
L 286.846651 164.416634 
L 287.94854 164.416634 
L 287.94854 159.626139 
L 290.962736 159.626139 
L 290.962736 154.835644 
L 293.867458 154.835644 
L 293.867458 150.045149 
L 314.887505 150.045149 
L 314.887505 145.254653 
L 317.615615 145.254653 
L 317.615615 140.464158 
L 317.945911 140.464158 
L 317.945911 135.673663 
L 319.862161 135.673663 
L 319.862161 130.883168 
L 321.851706 130.883168 
L 321.851706 126.092673 
L 322.048974 126.092673 
L 322.048974 121.302178 
L 322.934931 121.302178 
L 322.934931 116.511683 
L 325.492411 116.511683 
L 325.492411 111.721188 
L 326.526041 111.721188 
L 326.526041 106.930693 
L 326.663582 106.930693 
L 326.663582 102.140198 
L 327.117181 102.140198 
L 327.117181 97.349703 
L 328.996324 97.349703 
L 328.996324 92.559208 
L 329.877115 92.559208 
L 329.877115 87.768713 
L 330.543524 87.768713 
L 330.543524 82.978218 
L 330.97557 82.978218 
L 330.97557 78.187723 
L 336.190395 78.187723 
L 336.190395 73.397228 
L 339.091585 73.397228 
L 339.091585 68.606733 
L 344.442939 68.606733 
L 344.442939 63.816238 
L 347.248054 63.816238 
L 347.248054 59.025743 
L 347.800777 59.025743 
L 347.800777 54.235248 
L 347.913089 54.235248 
L 347.913089 49.444752 
L 348.90209 49.444752 
L 348.90209 44.654257 
L 352.038786 44.654257 
L 352.038786 39.863762 
L 353.356189 39.863762 
L 353.356189 35.073267 
L 353.528473 35.073267 
L 353.528473 30.282772 
L 354.486787 30.282772 
L 354.486787 25.492277 
L 354.757862 25.492277 
L 354.757862 20.701782 
L 355.288017 20.701782 
L 355.288017 15.911287 
L 359.601372 15.911287 
L 359.601372 11.120792 
L 361.031114 11.120792 
L 361.031114 6.330297 
L 361.031114 6.330297 
L 361.031114 6.330297 
L 460.8 6.330297 
" style="fill:none;stroke:#00bfbf;stroke-linecap:square;stroke-width:1.5;"/>
   </g>
   <g id="line2d_23">
    <path clip-path="url(#p27f5a2e46e)" d="M 259.587032 293.76 
L 259.587032 288.969505 
L 259.587032 288.969505 
L 259.587032 284.17901 
L 259.587032 284.17901 
L 259.587032 279.388515 
L 259.587032 279.388515 
L 259.587032 274.59802 
L 259.587032 274.59802 
L 259.587032 269.807525 
L 259.587032 269.807525 
L 259.587032 265.01703 
L 259.587032 265.01703 
L 259.587032 260.226535 
L 259.587032 260.226535 
L 259.587032 255.43604 
L 259.587032 255.43604 
L 259.587032 250.645545 
L 259.587032 250.645545 
L 259.587032 245.85505 
L 259.587032 245.85505 
L 259.587032 241.064554 
L 259.587032 241.064554 
L 259.587032 236.274059 
L 259.587032 236.274059 
L 259.587032 231.483564 
L 259.587032 231.483564 
L 259.587032 226.693069 
L 259.587032 226.693069 
L 259.587032 221.902574 
L 270.38752 221.902574 
L 270.38752 217.112079 
L 272.158927 217.112079 
L 272.158927 212.321584 
L 275.791782 212.321584 
L 275.791782 207.531089 
L 275.962226 207.531089 
L 275.962226 202.740594 
L 276.858725 202.740594 
L 276.858725 197.950099 
L 278.514622 197.950099 
L 278.514622 193.159604 
L 279.439687 193.159604 
L 279.439687 188.369109 
L 279.489922 188.369109 
L 279.489922 183.578614 
L 283.210381 183.578614 
L 283.210381 178.788119 
L 283.694399 178.788119 
L 283.694399 173.997624 
L 285.159725 173.997624 
L 285.159725 169.207129 
L 286.842021 169.207129 
L 286.842021 164.416634 
L 287.92307 164.416634 
L 287.92307 159.626139 
L 290.589482 159.626139 
L 290.589482 154.835644 
L 292.561165 154.835644 
L 292.561165 150.045149 
L 314.887505 150.045149 
L 314.887505 145.254653 
L 316.62781 145.254653 
L 316.62781 140.464158 
L 316.659006 140.464158 
L 316.659006 135.673663 
L 318.759188 135.673663 
L 318.759188 130.883168 
L 319.862161 130.883168 
L 319.862161 126.092673 
L 320.588233 126.092673 
L 320.588233 121.302178 
L 320.631902 121.302178 
L 320.631902 116.511683 
L 321.516036 116.511683 
L 321.516036 111.721188 
L 324.3393 111.721188 
L 324.3393 106.930693 
L 324.828988 106.930693 
L 324.828988 102.140198 
L 325.339028 102.140198 
L 325.339028 97.349703 
L 326.962495 97.349703 
L 326.962495 92.559208 
L 329.688804 92.559208 
L 329.688804 87.768713 
L 329.877115 87.768713 
L 329.877115 82.978218 
L 330.3448 82.978218 
L 330.3448 78.187723 
L 333.336297 78.187723 
L 333.336297 73.397228 
L 336.364984 73.397228 
L 336.364984 68.606733 
L 344.275534 68.606733 
L 344.275534 63.816238 
L 346.205284 63.816238 
L 346.205284 59.025743 
L 347.143252 59.025743 
L 347.143252 54.235248 
L 347.238878 54.235248 
L 347.238878 49.444752 
L 348.271445 49.444752 
L 348.271445 44.654257 
L 349.341793 44.654257 
L 349.341793 39.863762 
L 351.090374 39.863762 
L 351.090374 35.073267 
L 352.78244 35.073267 
L 352.78244 30.282772 
L 354.170674 30.282772 
L 354.170674 25.492277 
L 354.23492 25.492277 
L 354.23492 20.701782 
L 355.288017 20.701782 
L 355.288017 15.911287 
L 358.954037 15.911287 
L 358.954037 11.120792 
L 360.896768 11.120792 
L 360.896768 6.330297 
L 360.896768 6.330297 
L 360.896768 6.330297 
L 460.8 6.330297 
" style="fill:none;stroke:#bf00bf;stroke-linecap:square;stroke-width:1.5;"/>
   </g>
   <g id="line2d_24">
    <path clip-path="url(#p27f5a2e46e)" d="M 259.587032 293.76 
L 259.587032 288.969505 
L 259.587032 288.969505 
L 259.587032 284.17901 
L 259.587032 284.17901 
L 259.587032 279.388515 
L 259.587032 279.388515 
L 259.587032 274.59802 
L 259.587032 274.59802 
L 259.587032 269.807525 
L 259.587032 269.807525 
L 259.587032 265.01703 
L 259.587032 265.01703 
L 259.587032 260.226535 
L 259.587032 260.226535 
L 259.587032 255.43604 
L 259.587032 255.43604 
L 259.587032 250.645545 
L 259.587032 250.645545 
L 259.587032 245.85505 
L 259.587032 245.85505 
L 259.587032 241.064554 
L 259.587032 241.064554 
L 259.587032 236.274059 
L 259.587032 236.274059 
L 259.587032 231.483564 
L 259.587032 231.483564 
L 259.587032 226.693069 
L 259.587032 226.693069 
L 259.587032 221.902574 
L 266.919404 221.902574 
L 266.919404 217.112079 
L 272.158927 217.112079 
L 272.158927 212.321584 
L 273.461426 212.321584 
L 273.461426 207.531089 
L 274.488782 207.531089 
L 274.488782 202.740594 
L 275.206818 202.740594 
L 275.206818 197.950099 
L 275.657632 197.950099 
L 275.657632 193.159604 
L 276.760822 193.159604 
L 276.760822 188.369109 
L 278.136114 188.369109 
L 278.136114 183.578614 
L 281.76223 183.578614 
L 281.76223 178.788119 
L 281.922998 178.788119 
L 281.922998 173.997624 
L 282.113118 173.997624 
L 282.113118 169.207129 
L 285.866788 169.207129 
L 285.866788 164.416634 
L 285.956866 164.416634 
L 285.956866 159.626139 
L 287.496269 159.626139 
L 287.496269 154.835644 
L 290.767065 154.835644 
L 290.767065 150.045149 
L 310.015731 150.045149 
L 310.015731 145.254653 
L 312.999377 145.254653 
L 312.999377 140.464158 
L 313.248708 140.464158 
L 313.248708 135.673663 
L 314.545205 135.673663 
L 314.545205 130.883168 
L 315.384179 130.883168 
L 315.384179 126.092673 
L 317.34508 126.092673 
L 317.34508 121.302178 
L 317.667279 121.302178 
L 317.667279 116.511683 
L 318.583448 116.511683 
L 318.583448 111.721188 
L 319.773634 111.721188 
L 319.773634 106.930693 
L 321.797917 106.930693 
L 321.797917 102.140198 
L 324.279179 102.140198 
L 324.279179 97.349703 
L 325.307455 97.349703 
L 325.307455 92.559208 
L 327.443451 92.559208 
L 327.443451 87.768713 
L 327.732291 87.768713 
L 327.732291 82.978218 
L 328.653358 82.978218 
L 328.653358 78.187723 
L 329.941063 78.187723 
L 329.941063 73.397228 
L 333.657643 73.397228 
L 333.657643 68.606733 
L 342.121147 68.606733 
L 342.121147 63.816238 
L 342.913029 63.816238 
L 342.913029 59.025743 
L 345.089897 59.025743 
L 345.089897 54.235248 
L 346.054054 54.235248 
L 346.054054 49.444752 
L 346.272892 49.444752 
L 346.272892 44.654257 
L 347.319136 44.654257 
L 347.319136 39.863762 
L 347.911488 39.863762 
L 347.911488 35.073267 
L 349.139892 35.073267 
L 349.139892 30.282772 
L 353.392008 30.282772 
L 353.392008 25.492277 
L 354.053598 25.492277 
L 354.053598 20.701782 
L 354.646163 20.701782 
L 354.646163 15.911287 
L 355.053749 15.911287 
L 355.053749 11.120792 
L 359.160418 11.120792 
L 359.160418 6.330297 
L 359.160418 6.330297 
L 359.160418 6.330297 
L 460.8 6.330297 
" style="fill:none;stroke:#000000;stroke-linecap:square;stroke-width:1.5;"/>
   </g>
   <g id="line2d_25">
    <path clip-path="url(#p27f5a2e46e)" d="M 256.411417 293.76 
L 256.411417 288.969505 
L 257.383271 288.969505 
L 257.383271 284.17901 
L 258.182838 284.17901 
L 258.182838 279.388515 
L 258.715363 279.388515 
L 258.715363 274.59802 
L 258.900523 274.59802 
L 258.900523 269.807525 
L 259.068669 269.807525 
L 259.068669 265.01703 
L 259.406616 265.01703 
L 259.406616 260.226535 
L 259.530139 260.226535 
L 259.530139 255.43604 
L 259.587032 255.43604 
L 259.587032 250.645545 
L 259.587032 250.645545 
L 259.587032 245.85505 
L 259.587032 245.85505 
L 259.587032 241.064554 
L 259.587032 241.064554 
L 259.587032 236.274059 
L 259.587032 236.274059 
L 259.587032 231.483564 
L 259.587032 231.483564 
L 259.587032 226.693069 
L 259.587032 226.693069 
L 259.587032 221.902574 
L 259.587032 221.902574 
L 259.587032 217.112079 
L 260.632649 217.112079 
L 260.632649 212.321584 
L 260.640268 212.321584 
L 260.640268 207.531089 
L 262.766755 207.531089 
L 262.766755 202.740594 
L 264.782943 202.740594 
L 264.782943 197.950099 
L 265.717491 197.950099 
L 265.717491 193.159604 
L 266.843866 193.159604 
L 266.843866 188.369109 
L 266.992125 188.369109 
L 266.992125 183.578614 
L 267.063701 183.578614 
L 267.063701 178.788119 
L 268.733419 178.788119 
L 268.733419 173.997624 
L 272.441586 173.997624 
L 272.441586 169.207129 
L 275.037585 169.207129 
L 275.037585 164.416634 
L 275.837204 164.416634 
L 275.837204 159.626139 
L 278.509419 159.626139 
L 278.509419 154.835644 
L 280.781399 154.835644 
L 280.781399 150.045149 
L 287.462011 150.045149 
L 287.462011 145.254653 
L 288.250186 145.254653 
L 288.250186 140.464158 
L 291.10802 140.464158 
L 291.10802 135.673663 
L 294.350763 135.673663 
L 294.350763 130.883168 
L 296.264417 130.883168 
L 296.264417 126.092673 
L 297.388008 126.092673 
L 297.388008 121.302178 
L 298.046958 121.302178 
L 298.046958 116.511683 
L 298.243728 116.511683 
L 298.243728 111.721188 
L 301.898212 111.721188 
L 301.898212 106.930693 
L 304.899341 106.930693 
L 304.899341 102.140198 
L 306.819479 102.140198 
L 306.819479 97.349703 
L 307.450335 97.349703 
L 307.450335 92.559208 
L 309.615122 92.559208 
L 309.615122 87.768713 
L 311.548498 87.768713 
L 311.548498 82.978218 
L 312.087668 82.978218 
L 312.087668 78.187723 
L 314.125555 78.187723 
L 314.125555 73.397228 
L 314.455579 73.397228 
L 314.455579 68.606733 
L 322.468738 68.606733 
L 322.468738 63.816238 
L 329.204056 63.816238 
L 329.204056 59.025743 
L 330.334347 59.025743 
L 330.334347 54.235248 
L 332.555727 54.235248 
L 332.555727 49.444752 
L 335.991868 49.444752 
L 335.991868 44.654257 
L 337.48865 44.654257 
L 337.48865 39.863762 
L 339.632471 39.863762 
L 339.632471 35.073267 
L 341.038808 35.073267 
L 341.038808 30.282772 
L 341.307825 30.282772 
L 341.307825 25.492277 
L 342.223317 25.492277 
L 342.223317 20.701782 
L 347.4772 20.701782 
L 347.4772 15.911287 
L 348.66652 15.911287 
L 348.66652 11.120792 
L 350.213703 11.120792 
L 350.213703 6.330297 
L 350.213703 6.330297 
L 350.213703 6.330297 
L 460.8 6.330297 
" style="fill:none;stroke:#00bfbf;stroke-linecap:square;stroke-width:1.5;"/>
   </g>
   <g id="line2d_26">
    <path clip-path="url(#p27f5a2e46e)" d="M 226.889522 293.76 
L 226.889522 288.969505 
L 228.348554 288.969505 
L 228.348554 284.17901 
L 229.476014 284.17901 
L 229.476014 279.388515 
L 230.014065 279.388515 
L 230.014065 274.59802 
L 231.755658 274.59802 
L 231.755658 269.807525 
L 231.807245 269.807525 
L 231.807245 265.01703 
L 231.85981 265.01703 
L 231.85981 260.226535 
L 232.341102 260.226535 
L 232.341102 255.43604 
L 232.435497 255.43604 
L 232.435497 250.645545 
L 233.393509 250.645545 
L 233.393509 245.85505 
L 233.839714 245.85505 
L 233.839714 241.064554 
L 235.565333 241.064554 
L 235.565333 236.274059 
L 235.75951 236.274059 
L 235.75951 231.483564 
L 235.889618 231.483564 
L 235.889618 226.693069 
L 235.968293 226.693069 
L 235.968293 221.902574 
L 236.071086 221.902574 
L 236.071086 217.112079 
L 236.227853 217.112079 
L 236.227853 212.321584 
L 236.404176 212.321584 
L 236.404176 207.531089 
L 236.810479 207.531089 
L 236.810479 202.740594 
L 237.053075 202.740594 
L 237.053075 197.950099 
L 237.068122 197.950099 
L 237.068122 193.159604 
L 237.10704 193.159604 
L 237.10704 188.369109 
L 237.15121 188.369109 
L 237.15121 183.578614 
L 237.341078 183.578614 
L 237.341078 178.788119 
L 237.376527 178.788119 
L 237.376527 173.997624 
L 237.383285 173.997624 
L 237.383285 169.207129 
L 237.532863 169.207129 
L 237.532863 164.416634 
L 237.627065 164.416634 
L 237.627065 159.626139 
L 237.838113 159.626139 
L 237.838113 154.835644 
L 238.091989 154.835644 
L 238.091989 150.045149 
L 238.161627 150.045149 
L 238.161627 145.254653 
L 238.290901 145.254653 
L 238.290901 140.464158 
L 238.557422 140.464158 
L 238.557422 135.673663 
L 239.42199 135.673663 
L 239.42199 130.883168 
L 239.795001 130.883168 
L 239.795001 126.092673 
L 240.996143 126.092673 
L 240.996143 121.302178 
L 241.150782 121.302178 
L 241.150782 116.511683 
L 241.312674 116.511683 
L 241.312674 111.721188 
L 241.327682 111.721188 
L 241.327682 106.930693 
L 241.72048 106.930693 
L 241.72048 102.140198 
L 242.163923 102.140198 
L 242.163923 97.349703 
L 242.750458 97.349703 
L 242.750458 92.559208 
L 242.796923 92.559208 
L 242.796923 87.768713 
L 243.212854 87.768713 
L 243.212854 82.978218 
L 243.521044 82.978218 
L 243.521044 78.187723 
L 243.967444 78.187723 
L 243.967444 73.397228 
L 243.974452 73.397228 
L 243.974452 68.606733 
L 244.102841 68.606733 
L 244.102841 63.816238 
L 244.613706 63.816238 
L 244.613706 59.025743 
L 244.678473 59.025743 
L 244.678473 54.235248 
L 244.983106 54.235248 
L 244.983106 49.444752 
L 247.497166 49.444752 
L 247.497166 44.654257 
L 248.41263 44.654257 
L 248.41263 39.863762 
L 252.405092 39.863762 
L 252.405092 35.073267 
L 252.846149 35.073267 
L 252.846149 30.282772 
L 253.470384 30.282772 
L 253.470384 25.492277 
L 254.147805 25.492277 
L 254.147805 20.701782 
L 260.675691 20.701782 
L 260.675691 15.911287 
L 262.530632 15.911287 
L 262.530632 11.120792 
L 262.758069 11.120792 
L 262.758069 6.330297 
L 262.758069 6.330297 
L 262.758069 6.330297 
L 460.8 6.330297 
" style="fill:none;stroke:#bf00bf;stroke-linecap:square;stroke-width:1.5;"/>
   </g>
   <g id="line2d_27">
    <path clip-path="url(#p27f5a2e46e)" d="M -1 288.969505 
L 196.028738 288.969505 
L 196.028738 284.17901 
L 196.760449 284.17901 
L 196.760449 279.388515 
L 197.961619 279.388515 
L 197.961619 274.59802 
L 200.961168 274.59802 
L 200.961168 269.807525 
L 201.062039 269.807525 
L 201.062039 265.01703 
L 201.576164 265.01703 
L 201.576164 260.226535 
L 202.237694 260.226535 
L 202.237694 255.43604 
L 204.105935 255.43604 
L 204.105935 250.645545 
L 204.391865 250.645545 
L 204.391865 245.85505 
L 205.830856 245.85505 
L 205.830856 241.064554 
L 211.502062 241.064554 
L 211.502062 236.274059 
L 218.334192 236.274059 
L 218.334192 231.483564 
L 218.613072 231.483564 
L 218.613072 226.693069 
L 218.847144 226.693069 
L 218.847144 221.902574 
L 219.648246 221.902574 
L 219.648246 217.112079 
L 220.785334 217.112079 
L 220.785334 212.321584 
L 220.837277 212.321584 
L 220.837277 207.531089 
L 222.781708 207.531089 
L 222.781708 202.740594 
L 223.585106 202.740594 
L 223.585106 197.950099 
L 224.407329 197.950099 
L 224.407329 193.159604 
L 224.62615 193.159604 
L 224.62615 188.369109 
L 224.647799 188.369109 
L 224.647799 183.578614 
L 224.874921 183.578614 
L 224.874921 178.788119 
L 225.396676 178.788119 
L 225.396676 173.997624 
L 225.562201 173.997624 
L 225.562201 169.207129 
L 225.712482 169.207129 
L 225.712482 164.416634 
L 226.039153 164.416634 
L 226.039153 159.626139 
L 226.64173 159.626139 
L 226.64173 154.835644 
L 227.192896 154.835644 
L 227.192896 150.045149 
L 227.564401 150.045149 
L 227.564401 145.254653 
L 227.898823 145.254653 
L 227.898823 140.464158 
L 228.105543 140.464158 
L 228.105543 135.673663 
L 228.409634 135.673663 
L 228.409634 130.883168 
L 228.79288 130.883168 
L 228.79288 126.092673 
L 229.009266 126.092673 
L 229.009266 121.302178 
L 229.054625 121.302178 
L 229.054625 116.511683 
L 229.239209 116.511683 
L 229.239209 111.721188 
L 229.303948 111.721188 
L 229.303948 106.930693 
L 229.476014 106.930693 
L 229.476014 102.140198 
L 230.014065 102.140198 
L 230.014065 97.349703 
L 230.250588 97.349703 
L 230.250588 92.559208 
L 230.250745 92.559208 
L 230.250745 87.768713 
L 233.393509 87.768713 
L 233.393509 82.978218 
L 233.971895 82.978218 
L 233.971895 78.187723 
L 234.300549 78.187723 
L 234.300549 73.397228 
L 235.968293 73.397228 
L 235.968293 68.606733 
L 236.071086 68.606733 
L 236.071086 63.816238 
L 236.810479 63.816238 
L 236.810479 59.025743 
L 239.471903 59.025743 
L 239.471903 54.235248 
L 239.795001 54.235248 
L 239.795001 49.444752 
L 240.996143 49.444752 
L 240.996143 44.654257 
L 241.72048 44.654257 
L 241.72048 39.863762 
L 242.163923 39.863762 
L 242.163923 35.073267 
L 242.796923 35.073267 
L 242.796923 30.282772 
L 243.212854 30.282772 
L 243.212854 25.492277 
L 243.974452 25.492277 
L 243.974452 20.701782 
L 244.983106 20.701782 
L 244.983106 15.911287 
L 248.41263 15.911287 
L 248.41263 11.120792 
L 253.954857 11.120792 
L 253.954857 6.330297 
L 253.954857 6.330297 
L 253.954857 6.330297 
L 460.8 6.330297 
" style="fill:none;stroke:#000000;stroke-linecap:square;stroke-width:1.5;"/>
   </g>
   <g id="line2d_28">
    <path clip-path="url(#p27f5a2e46e)" d="M -1 154.835644 
L 194.19518 154.835644 
L 194.19518 150.045149 
L 194.270887 150.045149 
L 194.270887 145.254653 
L 194.622294 145.254653 
L 194.622294 140.464158 
L 201.953647 140.464158 
L 201.953647 135.673663 
L 202.255145 135.673663 
L 202.255145 130.883168 
L 208.181773 130.883168 
L 208.181773 126.092673 
L 212.068071 126.092673 
L 212.068071 121.302178 
L 218.148266 121.302178 
L 218.148266 116.511683 
L 218.522145 116.511683 
L 218.522145 111.721188 
L 219.425605 111.721188 
L 219.425605 106.930693 
L 221.216156 106.930693 
L 221.216156 102.140198 
L 221.388111 102.140198 
L 221.388111 97.349703 
L 222.007482 97.349703 
L 222.007482 92.559208 
L 225.3382 92.559208 
L 225.3382 87.768713 
L 228.049234 87.768713 
L 228.049234 82.978218 
L 229.476014 82.978218 
L 229.476014 78.187723 
L 230.014065 78.187723 
L 230.014065 73.397228 
L 233.393509 73.397228 
L 233.393509 68.606733 
L 234.001529 68.606733 
L 234.001529 63.816238 
L 235.968293 63.816238 
L 235.968293 59.025743 
L 236.071086 59.025743 
L 236.071086 54.235248 
L 236.810479 54.235248 
L 236.810479 49.444752 
L 239.795001 49.444752 
L 239.795001 44.654257 
L 240.996143 44.654257 
L 240.996143 39.863762 
L 241.72048 39.863762 
L 241.72048 35.073267 
L 242.163923 35.073267 
L 242.163923 30.282772 
L 242.796923 30.282772 
L 242.796923 25.492277 
L 243.212854 25.492277 
L 243.212854 20.701782 
L 243.974452 20.701782 
L 243.974452 15.911287 
L 244.983106 15.911287 
L 244.983106 11.120792 
L 248.41263 11.120792 
L 248.41263 6.330297 
L 248.41263 6.330297 
L 248.41263 6.330297 
L 460.8 6.330297 
" style="fill:none;stroke:#00bfbf;stroke-linecap:square;stroke-width:1.5;"/>
   </g>
   <g id="patch_3">
    <path d="M 0 293.76 
L 0 3.456 
" style="fill:none;stroke:#000000;stroke-linecap:square;stroke-linejoin:miter;stroke-width:0.8;"/>
   </g>
   <g id="patch_4">
    <path d="M 460.8 293.76 
L 460.8 3.456 
" style="fill:none;stroke:#000000;stroke-linecap:square;stroke-linejoin:miter;stroke-width:0.8;"/>
   </g>
   <g id="patch_5">
    <path d="M 0 293.76 
L 460.8 293.76 
" style="fill:none;stroke:#000000;stroke-linecap:square;stroke-linejoin:miter;stroke-width:0.8;"/>
   </g>
   <g id="patch_6">
    <path d="M 0 3.456 
L 460.8 3.456 
" style="fill:none;stroke:#000000;stroke-linecap:square;stroke-linejoin:miter;stroke-width:0.8;"/>
   </g>
   <g id="text_6">
    <!-- {f6-f9}, 20-D -->
    <g transform="translate(318.609 287.95392)scale(0.2 -0.2)">
     <defs>
      <path d="M 51.125 -9.28125 
L 51.125 -16.3125 
L 48.09375 -16.3125 
Q 35.9375 -16.3125 31.8125 -12.6875 
Q 27.6875 -9.078125 27.6875 1.703125 
L 27.6875 13.375 
Q 27.6875 20.75 25.046875 23.578125 
Q 22.40625 26.421875 15.484375 26.421875 
L 12.5 26.421875 
L 12.5 33.40625 
L 15.484375 33.40625 
Q 22.46875 33.40625 25.078125 36.203125 
Q 27.6875 39.015625 27.6875 46.296875 
L 27.6875 58.015625 
Q 27.6875 68.796875 31.8125 72.390625 
Q 35.9375 75.984375 48.09375 75.984375 
L 51.125 75.984375 
L 51.125 69 
L 47.796875 69 
Q 40.921875 69 38.8125 66.84375 
Q 36.71875 64.703125 36.71875 57.8125 
L 36.71875 45.703125 
Q 36.71875 38.03125 34.5 34.5625 
Q 32.28125 31.109375 26.90625 29.890625 
Q 32.328125 28.5625 34.515625 25.09375 
Q 36.71875 21.625 36.71875 14.015625 
L 36.71875 1.90625 
Q 36.71875 -4.984375 38.8125 -7.125 
Q 40.921875 -9.28125 47.796875 -9.28125 
z
" id="DejaVuSans-123"/>
      <path d="M 33.015625 40.375 
Q 26.375 40.375 22.484375 35.828125 
Q 18.609375 31.296875 18.609375 23.390625 
Q 18.609375 15.53125 22.484375 10.953125 
Q 26.375 6.390625 33.015625 6.390625 
Q 39.65625 6.390625 43.53125 10.953125 
Q 47.40625 15.53125 47.40625 23.390625 
Q 47.40625 31.296875 43.53125 35.828125 
Q 39.65625 40.375 33.015625 40.375 
z
M 52.59375 71.296875 
L 52.59375 62.3125 
Q 48.875 64.0625 45.09375 64.984375 
Q 41.3125 65.921875 37.59375 65.921875 
Q 27.828125 65.921875 22.671875 59.328125 
Q 17.53125 52.734375 16.796875 39.40625 
Q 19.671875 43.65625 24.015625 45.921875 
Q 28.375 48.1875 33.59375 48.1875 
Q 44.578125 48.1875 50.953125 41.515625 
Q 57.328125 34.859375 57.328125 23.390625 
Q 57.328125 12.15625 50.6875 5.359375 
Q 44.046875 -1.421875 33.015625 -1.421875 
Q 20.359375 -1.421875 13.671875 8.265625 
Q 6.984375 17.96875 6.984375 36.375 
Q 6.984375 53.65625 15.1875 63.9375 
Q 23.390625 74.21875 37.203125 74.21875 
Q 40.921875 74.21875 44.703125 73.484375 
Q 48.484375 72.75 52.59375 71.296875 
z
" id="DejaVuSans-54"/>
      <path d="M 10.984375 1.515625 
L 10.984375 10.5 
Q 14.703125 8.734375 18.5 7.8125 
Q 22.3125 6.890625 25.984375 6.890625 
Q 35.75 6.890625 40.890625 13.453125 
Q 46.046875 20.015625 46.78125 33.40625 
Q 43.953125 29.203125 39.59375 26.953125 
Q 35.25 24.703125 29.984375 24.703125 
Q 19.046875 24.703125 12.671875 31.3125 
Q 6.296875 37.9375 6.296875 49.421875 
Q 6.296875 60.640625 12.9375 67.421875 
Q 19.578125 74.21875 30.609375 74.21875 
Q 43.265625 74.21875 49.921875 64.515625 
Q 56.59375 54.828125 56.59375 36.375 
Q 56.59375 19.140625 48.40625 8.859375 
Q 40.234375 -1.421875 26.421875 -1.421875 
Q 22.703125 -1.421875 18.890625 -0.6875 
Q 15.09375 0.046875 10.984375 1.515625 
z
M 30.609375 32.421875 
Q 37.25 32.421875 41.125 36.953125 
Q 45.015625 41.5 45.015625 49.421875 
Q 45.015625 57.28125 41.125 61.84375 
Q 37.25 66.40625 30.609375 66.40625 
Q 23.96875 66.40625 20.09375 61.84375 
Q 16.21875 57.28125 16.21875 49.421875 
Q 16.21875 41.5 20.09375 36.953125 
Q 23.96875 32.421875 30.609375 32.421875 
z
" id="DejaVuSans-57"/>
      <path d="M 12.5 -9.28125 
L 15.921875 -9.28125 
Q 22.75 -9.28125 24.828125 -7.171875 
Q 26.90625 -5.078125 26.90625 1.90625 
L 26.90625 14.015625 
Q 26.90625 21.625 29.09375 25.09375 
Q 31.296875 28.5625 36.71875 29.890625 
Q 31.296875 31.109375 29.09375 34.5625 
Q 26.90625 38.03125 26.90625 45.703125 
L 26.90625 57.8125 
Q 26.90625 64.75 24.828125 66.875 
Q 22.75 69 15.921875 69 
L 12.5 69 
L 12.5 75.984375 
L 15.578125 75.984375 
Q 27.734375 75.984375 31.8125 72.390625 
Q 35.890625 68.796875 35.890625 58.015625 
L 35.890625 46.296875 
Q 35.890625 39.015625 38.515625 36.203125 
Q 41.15625 33.40625 48.09375 33.40625 
L 51.125 33.40625 
L 51.125 26.421875 
L 48.09375 26.421875 
Q 41.15625 26.421875 38.515625 23.578125 
Q 35.890625 20.75 35.890625 13.375 
L 35.890625 1.703125 
Q 35.890625 -9.078125 31.8125 -12.6875 
Q 27.734375 -16.3125 15.578125 -16.3125 
L 12.5 -16.3125 
z
" id="DejaVuSans-125"/>
      <path d="M 11.71875 12.40625 
L 22.015625 12.40625 
L 22.015625 4 
L 14.015625 -11.625 
L 7.71875 -11.625 
L 11.71875 4 
z
" id="DejaVuSans-44"/>
      <path d="M 19.1875 8.296875 
L 53.609375 8.296875 
L 53.609375 0 
L 7.328125 0 
L 7.328125 8.296875 
Q 12.9375 14.109375 22.625 23.890625 
Q 32.328125 33.6875 34.8125 36.53125 
Q 39.546875 41.84375 41.421875 45.53125 
Q 43.3125 49.21875 43.3125 52.78125 
Q 43.3125 58.59375 39.234375 62.25 
Q 35.15625 65.921875 28.609375 65.921875 
Q 23.96875 65.921875 18.8125 64.3125 
Q 13.671875 62.703125 7.8125 59.421875 
L 7.8125 69.390625 
Q 13.765625 71.78125 18.9375 73 
Q 24.125 74.21875 28.421875 74.21875 
Q 39.75 74.21875 46.484375 68.546875 
Q 53.21875 62.890625 53.21875 53.421875 
Q 53.21875 48.921875 51.53125 44.890625 
Q 49.859375 40.875 45.40625 35.40625 
Q 44.1875 33.984375 37.640625 27.21875 
Q 31.109375 20.453125 19.1875 8.296875 
z
" id="DejaVuSans-50"/>
     </defs>
     <use xlink:href="#DejaVuSans-123"/>
     <use x="63.623047" xlink:href="#DejaVuSans-102"/>
     <use x="98.828125" xlink:href="#DejaVuSans-54"/>
     <use x="162.451172" xlink:href="#DejaVuSans-45"/>
     <use x="198.535156" xlink:href="#DejaVuSans-102"/>
     <use x="233.740234" xlink:href="#DejaVuSans-57"/>
     <use x="297.363281" xlink:href="#DejaVuSans-125"/>
     <use x="360.986328" xlink:href="#DejaVuSans-44"/>
     <use x="392.773438" xlink:href="#DejaVuSans-32"/>
     <use x="424.560547" xlink:href="#DejaVuSans-50"/>
     <use x="488.183594" xlink:href="#DejaVuSans-48"/>
     <use x="551.806641" xlink:href="#DejaVuSans-45"/>
     <use x="587.890625" xlink:href="#DejaVuSans-68"/>
    </g>
   </g>
   <g id="text_7">
    <!-- v2.4 -->
    <g style="fill:#808080;" transform="translate(219.489063 288.777272)scale(0.1 -0.1)">
     <defs>
      <path d="M 2.984375 54.6875 
L 12.5 54.6875 
L 29.59375 8.796875 
L 46.6875 54.6875 
L 56.203125 54.6875 
L 35.6875 0 
L 23.484375 0 
z
" id="DejaVuSans-118"/>
      <path d="M 10.6875 12.40625 
L 21 12.40625 
L 21 0 
L 10.6875 0 
z
" id="DejaVuSans-46"/>
     </defs>
     <use xlink:href="#DejaVuSans-118"/>
     <use x="59.179688" xlink:href="#DejaVuSans-50"/>
     <use x="122.802734" xlink:href="#DejaVuSans-46"/>
     <use x="154.589844" xlink:href="#DejaVuSans-52"/>
    </g>
   </g>
  </g>
 </g>
 <defs>
  <clipPath id="p27f5a2e46e">
   <rect height="290.304" width="460.8" x="0" y="3.456"/>
  </clipPath>
 </defs>
</svg>
