<?xml version="1.0" encoding="utf-8" standalone="no"?>
<!DOCTYPE svg PUBLIC "-//W3C//DTD SVG 1.1//EN"
  "http://www.w3.org/Graphics/SVG/1.1/DTD/svg11.dtd">
<!-- Created with matplotlib (https://matplotlib.org/) -->
<svg height="345.6pt" version="1.1" viewBox="0 0 460.8 345.6" width="460.8pt" xmlns="http://www.w3.org/2000/svg" xmlns:xlink="http://www.w3.org/1999/xlink">
 <metadata>
  <rdf:RDF xmlns:cc="http://creativecommons.org/ns#" xmlns:dc="http://purl.org/dc/elements/1.1/" xmlns:rdf="http://www.w3.org/1999/02/22-rdf-syntax-ns#">
   <cc:Work>
    <dc:type rdf:resource="http://purl.org/dc/dcmitype/StillImage"/>
    <dc:date>2021-06-17T01:37:17.926457</dc:date>
    <dc:format>image/svg+xml</dc:format>
    <dc:creator>
     <cc:Agent>
      <dc:title>Matplotlib v3.3.4, https://matplotlib.org/</dc:title>
     </cc:Agent>
    </dc:creator>
   </cc:Work>
  </rdf:RDF>
 </metadata>
 <defs>
  <style type="text/css">*{stroke-linecap:butt;stroke-linejoin:round;}</style>
 </defs>
 <g id="figure_1">
  <g id="patch_1">
   <path d="M 0 345.6 
L 460.8 345.6 
L 460.8 0 
L 0 0 
z
" style="fill:#ffffff;"/>
  </g>
  <g id="axes_1">
   <g id="patch_2">
    <path d="M 0 293.76 
L 460.8 293.76 
L 460.8 3.456 
L 0 3.456 
z
" style="fill:#ffffff;"/>
   </g>
   <g id="matplotlib.axis_1">
    <g id="xtick_1">
     <g id="line2d_1">
      <path clip-path="url(#pad42889e19)" d="M 102.824509 293.76 
L 102.824509 3.456 
" style="fill:none;stroke:#b0b0b0;stroke-linecap:square;stroke-width:0.8;"/>
     </g>
     <g id="line2d_2">
      <defs>
       <path d="M 0 0 
L 0 3.5 
" id="m13e89930fd" style="stroke:#000000;stroke-width:0.8;"/>
      </defs>
      <g>
       <use style="stroke:#000000;stroke-width:0.8;" x="102.824509" xlink:href="#m13e89930fd" y="293.76"/>
      </g>
     </g>
     <g id="text_1">
      <!-- -4 -->
      <g transform="translate(92.854196 315.956875)scale(0.2 -0.2)">
       <defs>
        <path d="M 4.890625 31.390625 
L 31.203125 31.390625 
L 31.203125 23.390625 
L 4.890625 23.390625 
z
" id="DejaVuSans-45"/>
        <path d="M 37.796875 64.3125 
L 12.890625 25.390625 
L 37.796875 25.390625 
z
M 35.203125 72.90625 
L 47.609375 72.90625 
L 47.609375 25.390625 
L 58.015625 25.390625 
L 58.015625 17.1875 
L 47.609375 17.1875 
L 47.609375 0 
L 37.796875 0 
L 37.796875 17.1875 
L 4.890625 17.1875 
L 4.890625 26.703125 
z
" id="DejaVuSans-52"/>
       </defs>
       <use xlink:href="#DejaVuSans-45"/>
       <use x="36.083984" xlink:href="#DejaVuSans-52"/>
      </g>
     </g>
    </g>
    <g id="xtick_2">
     <g id="line2d_3">
      <path clip-path="url(#pad42889e19)" d="M 205.760223 293.76 
L 205.760223 3.456 
" style="fill:none;stroke:#b0b0b0;stroke-linecap:square;stroke-width:0.8;"/>
     </g>
     <g id="line2d_4">
      <g>
       <use style="stroke:#000000;stroke-width:0.8;" x="205.760223" xlink:href="#m13e89930fd" y="293.76"/>
      </g>
     </g>
     <g id="text_2">
      <!-- 0 -->
      <g transform="translate(199.397723 315.956875)scale(0.2 -0.2)">
       <defs>
        <path d="M 31.78125 66.40625 
Q 24.171875 66.40625 20.328125 58.90625 
Q 16.5 51.421875 16.5 36.375 
Q 16.5 21.390625 20.328125 13.890625 
Q 24.171875 6.390625 31.78125 6.390625 
Q 39.453125 6.390625 43.28125 13.890625 
Q 47.125 21.390625 47.125 36.375 
Q 47.125 51.421875 43.28125 58.90625 
Q 39.453125 66.40625 31.78125 66.40625 
z
M 31.78125 74.21875 
Q 44.046875 74.21875 50.515625 64.515625 
Q 56.984375 54.828125 56.984375 36.375 
Q 56.984375 17.96875 50.515625 8.265625 
Q 44.046875 -1.421875 31.78125 -1.421875 
Q 19.53125 -1.421875 13.0625 8.265625 
Q 6.59375 17.96875 6.59375 36.375 
Q 6.59375 54.828125 13.0625 64.515625 
Q 19.53125 74.21875 31.78125 74.21875 
z
" id="DejaVuSans-48"/>
       </defs>
       <use xlink:href="#DejaVuSans-48"/>
      </g>
     </g>
    </g>
    <g id="xtick_3">
     <g id="line2d_5">
      <path clip-path="url(#pad42889e19)" d="M 308.695938 293.76 
L 308.695938 3.456 
" style="fill:none;stroke:#b0b0b0;stroke-linecap:square;stroke-width:0.8;"/>
     </g>
     <g id="line2d_6">
      <g>
       <use style="stroke:#000000;stroke-width:0.8;" x="308.695938" xlink:href="#m13e89930fd" y="293.76"/>
      </g>
     </g>
     <g id="text_3">
      <!-- 4 -->
      <g transform="translate(302.333438 315.956875)scale(0.2 -0.2)">
       <use xlink:href="#DejaVuSans-52"/>
      </g>
     </g>
    </g>
    <g id="xtick_4">
     <g id="line2d_7">
      <path clip-path="url(#pad42889e19)" d="M 411.631653 293.76 
L 411.631653 3.456 
" style="fill:none;stroke:#b0b0b0;stroke-linecap:square;stroke-width:0.8;"/>
     </g>
     <g id="line2d_8">
      <g>
       <use style="stroke:#000000;stroke-width:0.8;" x="411.631653" xlink:href="#m13e89930fd" y="293.76"/>
      </g>
     </g>
     <g id="text_4">
      <!-- 8 -->
      <g transform="translate(405.269153 315.956875)scale(0.2 -0.2)">
       <defs>
        <path d="M 31.78125 34.625 
Q 24.75 34.625 20.71875 30.859375 
Q 16.703125 27.09375 16.703125 20.515625 
Q 16.703125 13.921875 20.71875 10.15625 
Q 24.75 6.390625 31.78125 6.390625 
Q 38.8125 6.390625 42.859375 10.171875 
Q 46.921875 13.96875 46.921875 20.515625 
Q 46.921875 27.09375 42.890625 30.859375 
Q 38.875 34.625 31.78125 34.625 
z
M 21.921875 38.8125 
Q 15.578125 40.375 12.03125 44.71875 
Q 8.5 49.078125 8.5 55.328125 
Q 8.5 64.0625 14.71875 69.140625 
Q 20.953125 74.21875 31.78125 74.21875 
Q 42.671875 74.21875 48.875 69.140625 
Q 55.078125 64.0625 55.078125 55.328125 
Q 55.078125 49.078125 51.53125 44.71875 
Q 48 40.375 41.703125 38.8125 
Q 48.828125 37.15625 52.796875 32.3125 
Q 56.78125 27.484375 56.78125 20.515625 
Q 56.78125 9.90625 50.3125 4.234375 
Q 43.84375 -1.421875 31.78125 -1.421875 
Q 19.734375 -1.421875 13.25 4.234375 
Q 6.78125 9.90625 6.78125 20.515625 
Q 6.78125 27.484375 10.78125 32.3125 
Q 14.796875 37.15625 21.921875 38.8125 
z
M 18.3125 54.390625 
Q 18.3125 48.734375 21.84375 45.5625 
Q 25.390625 42.390625 31.78125 42.390625 
Q 38.140625 42.390625 41.71875 45.5625 
Q 45.3125 48.734375 45.3125 54.390625 
Q 45.3125 60.0625 41.71875 63.234375 
Q 38.140625 66.40625 31.78125 66.40625 
Q 25.390625 66.40625 21.84375 63.234375 
Q 18.3125 60.0625 18.3125 54.390625 
z
" id="DejaVuSans-56"/>
       </defs>
       <use xlink:href="#DejaVuSans-56"/>
      </g>
     </g>
    </g>
    <g id="text_5">
     <!-- log10 of Df -->
     <g transform="translate(175.214063 339.313125)scale(0.2 -0.2)">
      <defs>
       <path d="M 9.421875 75.984375 
L 18.40625 75.984375 
L 18.40625 0 
L 9.421875 0 
z
" id="DejaVuSans-108"/>
       <path d="M 30.609375 48.390625 
Q 23.390625 48.390625 19.1875 42.75 
Q 14.984375 37.109375 14.984375 27.296875 
Q 14.984375 17.484375 19.15625 11.84375 
Q 23.34375 6.203125 30.609375 6.203125 
Q 37.796875 6.203125 41.984375 11.859375 
Q 46.1875 17.53125 46.1875 27.296875 
Q 46.1875 37.015625 41.984375 42.703125 
Q 37.796875 48.390625 30.609375 48.390625 
z
M 30.609375 56 
Q 42.328125 56 49.015625 48.375 
Q 55.71875 40.765625 55.71875 27.296875 
Q 55.71875 13.875 49.015625 6.21875 
Q 42.328125 -1.421875 30.609375 -1.421875 
Q 18.84375 -1.421875 12.171875 6.21875 
Q 5.515625 13.875 5.515625 27.296875 
Q 5.515625 40.765625 12.171875 48.375 
Q 18.84375 56 30.609375 56 
z
" id="DejaVuSans-111"/>
       <path d="M 45.40625 27.984375 
Q 45.40625 37.75 41.375 43.109375 
Q 37.359375 48.484375 30.078125 48.484375 
Q 22.859375 48.484375 18.828125 43.109375 
Q 14.796875 37.75 14.796875 27.984375 
Q 14.796875 18.265625 18.828125 12.890625 
Q 22.859375 7.515625 30.078125 7.515625 
Q 37.359375 7.515625 41.375 12.890625 
Q 45.40625 18.265625 45.40625 27.984375 
z
M 54.390625 6.78125 
Q 54.390625 -7.171875 48.1875 -13.984375 
Q 42 -20.796875 29.203125 -20.796875 
Q 24.46875 -20.796875 20.265625 -20.09375 
Q 16.0625 -19.390625 12.109375 -17.921875 
L 12.109375 -9.1875 
Q 16.0625 -11.328125 19.921875 -12.34375 
Q 23.78125 -13.375 27.78125 -13.375 
Q 36.625 -13.375 41.015625 -8.765625 
Q 45.40625 -4.15625 45.40625 5.171875 
L 45.40625 9.625 
Q 42.625 4.78125 38.28125 2.390625 
Q 33.9375 0 27.875 0 
Q 17.828125 0 11.671875 7.65625 
Q 5.515625 15.328125 5.515625 27.984375 
Q 5.515625 40.671875 11.671875 48.328125 
Q 17.828125 56 27.875 56 
Q 33.9375 56 38.28125 53.609375 
Q 42.625 51.21875 45.40625 46.390625 
L 45.40625 54.6875 
L 54.390625 54.6875 
z
" id="DejaVuSans-103"/>
       <path d="M 12.40625 8.296875 
L 28.515625 8.296875 
L 28.515625 63.921875 
L 10.984375 60.40625 
L 10.984375 69.390625 
L 28.421875 72.90625 
L 38.28125 72.90625 
L 38.28125 8.296875 
L 54.390625 8.296875 
L 54.390625 0 
L 12.40625 0 
z
" id="DejaVuSans-49"/>
       <path id="DejaVuSans-32"/>
       <path d="M 37.109375 75.984375 
L 37.109375 68.5 
L 28.515625 68.5 
Q 23.6875 68.5 21.796875 66.546875 
Q 19.921875 64.59375 19.921875 59.515625 
L 19.921875 54.6875 
L 34.71875 54.6875 
L 34.71875 47.703125 
L 19.921875 47.703125 
L 19.921875 0 
L 10.890625 0 
L 10.890625 47.703125 
L 2.296875 47.703125 
L 2.296875 54.6875 
L 10.890625 54.6875 
L 10.890625 58.5 
Q 10.890625 67.625 15.140625 71.796875 
Q 19.390625 75.984375 28.609375 75.984375 
z
" id="DejaVuSans-102"/>
       <path d="M 19.671875 64.796875 
L 19.671875 8.109375 
L 31.59375 8.109375 
Q 46.6875 8.109375 53.6875 14.9375 
Q 60.6875 21.78125 60.6875 36.53125 
Q 60.6875 51.171875 53.6875 57.984375 
Q 46.6875 64.796875 31.59375 64.796875 
z
M 9.8125 72.90625 
L 30.078125 72.90625 
Q 51.265625 72.90625 61.171875 64.09375 
Q 71.09375 55.28125 71.09375 36.53125 
Q 71.09375 17.671875 61.125 8.828125 
Q 51.171875 0 30.078125 0 
L 9.8125 0 
z
" id="DejaVuSans-68"/>
      </defs>
      <use xlink:href="#DejaVuSans-108"/>
      <use x="27.783203" xlink:href="#DejaVuSans-111"/>
      <use x="88.964844" xlink:href="#DejaVuSans-103"/>
      <use x="152.441406" xlink:href="#DejaVuSans-49"/>
      <use x="216.064453" xlink:href="#DejaVuSans-48"/>
      <use x="279.6875" xlink:href="#DejaVuSans-32"/>
      <use x="311.474609" xlink:href="#DejaVuSans-111"/>
      <use x="372.65625" xlink:href="#DejaVuSans-102"/>
      <use x="407.861328" xlink:href="#DejaVuSans-32"/>
      <use x="439.648438" xlink:href="#DejaVuSans-68"/>
      <use x="516.650391" xlink:href="#DejaVuSans-102"/>
     </g>
    </g>
   </g>
   <g id="matplotlib.axis_2">
    <g id="ytick_1">
     <g id="line2d_9">
      <path clip-path="url(#pad42889e19)" d="M 0 293.76 
L 460.8 293.76 
" style="fill:none;stroke:#b0b0b0;stroke-linecap:square;stroke-width:0.8;"/>
     </g>
     <g id="line2d_10">
      <defs>
       <path d="M 0 0 
L -3.5 0 
" id="m980facae24" style="stroke:#000000;stroke-width:0.8;"/>
      </defs>
      <g>
       <use style="stroke:#000000;stroke-width:0.8;" x="0" xlink:href="#m980facae24" y="293.76"/>
      </g>
     </g>
    </g>
    <g id="ytick_2">
     <g id="line2d_11">
      <path clip-path="url(#pad42889e19)" d="M 0 236.274059 
L 460.8 236.274059 
" style="fill:none;stroke:#b0b0b0;stroke-linecap:square;stroke-width:0.8;"/>
     </g>
     <g id="line2d_12">
      <g>
       <use style="stroke:#000000;stroke-width:0.8;" x="0" xlink:href="#m980facae24" y="236.274059"/>
      </g>
     </g>
    </g>
    <g id="ytick_3">
     <g id="line2d_13">
      <path clip-path="url(#pad42889e19)" d="M 0 178.788119 
L 460.8 178.788119 
" style="fill:none;stroke:#b0b0b0;stroke-linecap:square;stroke-width:0.8;"/>
     </g>
     <g id="line2d_14">
      <g>
       <use style="stroke:#000000;stroke-width:0.8;" x="0" xlink:href="#m980facae24" y="178.788119"/>
      </g>
     </g>
    </g>
    <g id="ytick_4">
     <g id="line2d_15">
      <path clip-path="url(#pad42889e19)" d="M 0 121.302178 
L 460.8 121.302178 
" style="fill:none;stroke:#b0b0b0;stroke-linecap:square;stroke-width:0.8;"/>
     </g>
     <g id="line2d_16">
      <g>
       <use style="stroke:#000000;stroke-width:0.8;" x="0" xlink:href="#m980facae24" y="121.302178"/>
      </g>
     </g>
    </g>
    <g id="ytick_5">
     <g id="line2d_17">
      <path clip-path="url(#pad42889e19)" d="M 0 63.816238 
L 460.8 63.816238 
" style="fill:none;stroke:#b0b0b0;stroke-linecap:square;stroke-width:0.8;"/>
     </g>
     <g id="line2d_18">
      <g>
       <use style="stroke:#000000;stroke-width:0.8;" x="0" xlink:href="#m980facae24" y="63.816238"/>
      </g>
     </g>
    </g>
    <g id="ytick_6">
     <g id="line2d_19">
      <path clip-path="url(#pad42889e19)" d="M 0 6.330297 
L 460.8 6.330297 
" style="fill:none;stroke:#b0b0b0;stroke-linecap:square;stroke-width:0.8;"/>
     </g>
     <g id="line2d_20">
      <g>
       <use style="stroke:#000000;stroke-width:0.8;" x="0" xlink:href="#m980facae24" y="6.330297"/>
      </g>
     </g>
    </g>
   </g>
   <g id="line2d_21">
    <path clip-path="url(#pad42889e19)" d="M -1 63.816238 
L 46.480482 63.816238 
L 46.480482 59.983842 
L 76.744601 59.983842 
L 76.744601 56.151446 
L 157.49183 56.151446 
L 157.49183 52.31905 
L 205.369321 52.31905 
L 205.369321 48.486653 
L 206.578114 48.486653 
L 206.621235 36.989465 
L 209.863798 36.989465 
L 209.863798 33.157069 
L 214.939021 33.157069 
L 214.939021 29.324673 
L 216.641649 29.324673 
L 216.641649 25.492277 
L 220.449159 25.492277 
L 220.449159 21.659881 
L 221.109771 21.659881 
L 221.109771 17.827485 
L 231.638873 17.827485 
L 231.638873 13.995089 
L 234.805848 13.995089 
L 234.805848 10.162693 
L 241.286036 10.162693 
L 241.286036 6.330297 
L 241.286036 6.330297 
L 460.8 6.330297 
L 460.8 6.330297 
" style="fill:none;stroke:#ff0000;stroke-linecap:square;stroke-width:3;"/>
   </g>
   <g id="line2d_22">
    <path clip-path="url(#pad42889e19)" d="M 236.229163 293.76 
L 236.229163 289.927604 
L 238.81326 289.927604 
L 238.81326 286.095208 
L 243.484624 286.095208 
L 243.484624 282.262812 
L 243.835348 282.262812 
L 243.922881 274.59802 
L 245.73523 274.59802 
L 245.73523 270.765624 
L 246.076661 270.765624 
L 246.076661 266.933228 
L 248.145748 266.933228 
L 248.150986 259.268436 
L 248.485412 259.268436 
L 248.485412 255.43604 
L 248.909938 255.43604 
L 248.909938 251.603644 
L 249.051608 251.603644 
L 249.051608 247.771248 
L 250.798514 247.771248 
L 250.798514 243.938851 
L 252.396411 243.938851 
L 252.396411 240.106455 
L 259.20623 240.106455 
L 259.20623 236.274059 
L 286.476248 236.274059 
L 286.476248 232.441663 
L 288.172615 232.441663 
L 288.172615 228.609267 
L 289.063691 228.609267 
L 289.063691 224.776871 
L 289.747049 224.776871 
L 289.747049 220.944475 
L 290.280746 220.944475 
L 290.385129 213.279683 
L 290.833929 213.279683 
L 290.833929 209.447287 
L 291.252167 209.447287 
L 291.305454 197.950099 
L 291.519295 197.950099 
L 291.519295 194.117703 
L 292.224402 194.117703 
L 292.263475 186.452911 
L 292.482311 186.452911 
L 292.482311 182.620515 
L 293.213036 182.620515 
L 293.213036 178.788119 
L 293.497816 178.788119 
L 293.497816 174.955723 
L 301.47261 174.955723 
L 301.47261 171.123327 
L 333.909889 171.123327 
L 333.909889 167.290931 
L 343.416997 167.290931 
L 343.416997 163.458535 
L 346.111487 163.458535 
L 346.111487 159.626139 
L 355.607054 159.626139 
L 355.607054 155.793743 
L 362.263092 155.793743 
L 362.263092 151.961347 
L 364.553769 151.961347 
L 364.553769 148.12895 
L 364.939365 148.12895 
L 364.939365 144.296554 
L 367.310163 144.296554 
L 367.310163 140.464158 
L 367.977743 140.464158 
L 367.977743 136.631762 
L 368.761399 136.631762 
L 368.761399 132.799366 
L 369.288259 132.799366 
L 369.288259 128.96697 
L 371.394877 128.96697 
L 371.394877 125.134574 
L 372.090948 125.134574 
L 372.090948 121.302178 
L 373.156741 121.302178 
L 373.156741 117.469782 
L 373.649216 117.469782 
L 373.649216 113.637386 
L 375.672287 113.637386 
L 375.750815 105.972594 
L 379.960446 105.972594 
L 379.960446 102.140198 
L 380.662601 102.140198 
L 380.662601 98.307802 
L 380.950926 98.307802 
L 380.950926 94.475406 
L 382.124347 94.475406 
L 382.124347 90.64301 
L 382.36783 90.64301 
L 382.36783 86.810614 
L 383.060561 86.810614 
L 383.06875 79.145822 
L 384.075212 79.145822 
L 384.075212 75.313426 
L 384.716368 75.313426 
L 384.716368 71.48103 
L 384.982986 71.48103 
L 384.982986 67.648634 
L 396.29536 67.648634 
L 396.29536 63.816238 
L 408.851695 63.816238 
L 408.851695 59.983842 
L 409.41876 59.983842 
L 409.41876 56.151446 
L 412.225447 56.151446 
L 412.225447 52.31905 
L 414.01704 52.31905 
L 414.01704 48.486653 
L 415.610209 48.486653 
L 415.610209 44.654257 
L 415.809547 44.654257 
L 415.809547 40.821861 
L 418.793201 40.821861 
L 418.793201 36.989465 
L 421.966462 36.989465 
L 421.966462 33.157069 
L 423.105717 33.157069 
L 423.19427 25.492277 
L 426.262567 25.492277 
L 426.262567 21.659881 
L 426.60565 21.659881 
L 426.60565 17.827485 
L 428.420096 17.827485 
L 428.420096 13.995089 
L 428.53509 13.995089 
L 428.53509 10.162693 
L 429.841872 10.162693 
L 429.841872 6.330297 
L 429.841872 6.330297 
L 460.8 6.330297 
L 460.8 6.330297 
" style="fill:none;stroke:#00bfbf;stroke-linecap:square;stroke-width:1.5;"/>
   </g>
   <g id="line2d_23">
    <path clip-path="url(#pad42889e19)" d="M 234.440269 293.76 
L 234.440269 289.927604 
L 237.187967 289.927604 
L 237.187967 286.095208 
L 242.07782 286.095208 
L 242.07782 282.262812 
L 243.175172 282.262812 
L 243.175172 278.430416 
L 243.484624 278.430416 
L 243.484624 274.59802 
L 244.206717 274.59802 
L 244.206717 270.765624 
L 244.711276 270.765624 
L 244.711276 266.933228 
L 246.50955 266.933228 
L 246.50955 263.100832 
L 246.873921 263.100832 
L 246.873921 259.268436 
L 247.789746 259.268436 
L 247.789746 255.43604 
L 248.145748 255.43604 
L 248.145748 251.603644 
L 248.631257 251.603644 
L 248.631257 247.771248 
L 249.657004 247.771248 
L 249.657004 243.938851 
L 251.854698 243.938851 
L 251.854698 240.106455 
L 256.317405 240.106455 
L 256.317405 236.274059 
L 258.832165 236.274059 
L 258.832165 232.441663 
L 286.324133 232.441663 
L 286.324133 228.609267 
L 287.962182 228.609267 
L 287.962182 224.776871 
L 288.737803 224.776871 
L 288.737803 220.944475 
L 289.12695 220.944475 
L 289.12695 217.112079 
L 289.914113 217.112079 
L 289.914113 213.279683 
L 290.142124 213.279683 
L 290.142124 209.447287 
L 290.379646 209.447287 
L 290.379646 205.614891 
L 291.136414 205.614891 
L 291.147244 197.950099 
L 291.252167 197.950099 
L 291.272594 190.285307 
L 291.766794 190.285307 
L 291.808013 182.620515 
L 292.282019 182.620515 
L 292.282019 178.788119 
L 293.213036 178.788119 
L 293.319226 171.123327 
L 321.768505 171.123327 
L 321.768505 167.290931 
L 332.773255 167.290931 
L 332.773255 163.458535 
L 337.988087 163.458535 
L 337.988087 159.626139 
L 352.8719 159.626139 
L 352.8719 155.793743 
L 359.019757 155.793743 
L 359.019757 151.961347 
L 359.930288 151.961347 
L 359.930288 148.12895 
L 360.877427 148.12895 
L 360.877427 144.296554 
L 361.287075 144.296554 
L 361.287075 140.464158 
L 364.52452 140.464158 
L 364.52452 136.631762 
L 367.310163 136.631762 
L 367.310163 132.799366 
L 367.821649 132.799366 
L 367.821649 128.96697 
L 369.145949 128.96697 
L 369.145949 125.134574 
L 369.343142 125.134574 
L 369.343142 121.302178 
L 369.856429 121.302178 
L 369.856429 117.469782 
L 372.009366 117.469782 
L 372.009366 113.637386 
L 373.116185 113.637386 
L 373.116185 109.80499 
L 375.248272 109.80499 
L 375.248272 105.972594 
L 375.750815 105.972594 
L 375.750815 102.140198 
L 377.630111 102.140198 
L 377.630111 98.307802 
L 378.875205 98.307802 
L 378.875205 94.475406 
L 380.355277 94.475406 
L 380.355277 90.64301 
L 380.649275 90.64301 
L 380.649275 86.810614 
L 382.875538 86.810614 
L 382.875538 82.978218 
L 383.060561 82.978218 
L 383.06875 75.313426 
L 383.538429 75.313426 
L 383.538429 71.48103 
L 383.672582 71.48103 
L 383.672582 67.648634 
L 395.748137 67.648634 
L 395.748137 63.816238 
L 407.64901 63.816238 
L 407.64901 59.983842 
L 408.851695 59.983842 
L 408.851695 56.151446 
L 412.225447 56.151446 
L 412.225447 52.31905 
L 414.01704 52.31905 
L 414.01704 48.486653 
L 415.42464 48.486653 
L 415.42464 44.654257 
L 415.809547 44.654257 
L 415.809547 40.821861 
L 417.210231 40.821861 
L 417.210231 36.989465 
L 420.562898 36.989465 
L 420.562898 33.157069 
L 421.752452 33.157069 
L 421.752452 29.324673 
L 421.95601 29.324673 
L 421.95601 25.492277 
L 424.123458 25.492277 
L 424.123458 21.659881 
L 425.158877 21.659881 
L 425.158877 17.827485 
L 426.830777 17.827485 
L 426.830777 13.995089 
L 427.925139 13.995089 
L 427.925139 10.162693 
L 428.420096 10.162693 
L 428.420096 6.330297 
L 428.420096 6.330297 
L 460.8 6.330297 
L 460.8 6.330297 
" style="fill:none;stroke:#bf00bf;stroke-linecap:square;stroke-width:1.5;"/>
   </g>
   <g id="line2d_24">
    <path clip-path="url(#pad42889e19)" d="M 233.855647 293.76 
L 233.855647 289.927604 
L 234.88488 289.927604 
L 234.88488 286.095208 
L 239.390948 286.095208 
L 239.390948 282.262812 
L 240.991687 282.262812 
L 240.991687 278.430416 
L 241.518913 278.430416 
L 241.518913 274.59802 
L 242.189855 274.59802 
L 242.275955 266.933228 
L 244.889809 266.933228 
L 244.889809 263.100832 
L 245.819633 263.100832 
L 245.835336 255.43604 
L 245.961333 255.43604 
L 245.961333 251.603644 
L 246.659534 251.603644 
L 246.755999 243.938851 
L 249.177708 243.938851 
L 249.177708 240.106455 
L 252.963361 240.106455 
L 252.963361 236.274059 
L 258.832165 236.274059 
L 258.832165 232.441663 
L 259.064174 232.441663 
L 259.064174 228.609267 
L 272.192692 228.609267 
L 272.192692 224.776871 
L 274.656629 224.776871 
L 274.656629 220.944475 
L 285.435463 220.944475 
L 285.435463 217.112079 
L 287.253509 217.112079 
L 287.253509 213.279683 
L 288.173532 213.279683 
L 288.173532 209.447287 
L 288.431096 209.447287 
L 288.431096 205.614891 
L 289.328284 205.614891 
L 289.4259 197.950099 
L 289.631207 197.950099 
L 289.631207 194.117703 
L 290.034545 194.117703 
L 290.034545 190.285307 
L 290.52964 190.285307 
L 290.52964 186.452911 
L 290.697472 186.452911 
L 290.697472 182.620515 
L 291.2449 182.620515 
L 291.33641 171.123327 
L 291.608346 171.123327 
L 291.608346 167.290931 
L 292.631207 167.290931 
L 292.631207 163.458535 
L 321.511545 163.458535 
L 321.511545 159.626139 
L 336.60933 159.626139 
L 336.60933 155.793743 
L 341.040526 155.793743 
L 341.040526 151.961347 
L 348.131591 151.961347 
L 348.131591 148.12895 
L 349.857159 148.12895 
L 349.857159 144.296554 
L 351.858239 144.296554 
L 351.858239 140.464158 
L 353.236856 140.464158 
L 353.236856 136.631762 
L 354.684474 136.631762 
L 354.684474 132.799366 
L 355.152703 132.799366 
L 355.152703 128.96697 
L 364.92221 128.96697 
L 364.92221 125.134574 
L 366.769805 125.134574 
L 366.769805 121.302178 
L 367.327351 121.302178 
L 367.327351 117.469782 
L 368.051658 117.469782 
L 368.051658 113.637386 
L 369.05235 113.637386 
L 369.05235 109.80499 
L 370.019216 109.80499 
L 370.019216 105.972594 
L 373.222273 105.972594 
L 373.222273 102.140198 
L 374.114638 102.140198 
L 374.114638 98.307802 
L 374.590811 98.307802 
L 374.590811 94.475406 
L 376.099624 94.475406 
L 376.099624 90.64301 
L 378.742147 90.64301 
L 378.742147 86.810614 
L 378.975282 86.810614 
L 378.975282 82.978218 
L 379.779511 82.978218 
L 379.779511 79.145822 
L 380.975452 79.145822 
L 380.975452 75.313426 
L 381.273893 75.313426 
L 381.273893 71.48103 
L 381.65794 71.48103 
L 381.65794 67.648634 
L 392.702812 67.648634 
L 392.702812 63.816238 
L 405.012464 63.816238 
L 405.012464 59.983842 
L 407.335314 59.983842 
L 407.335314 56.151446 
L 410.853507 56.151446 
L 410.853507 52.31905 
L 411.566071 52.31905 
L 411.566071 48.486653 
L 413.179241 48.486653 
L 413.179241 44.654257 
L 413.955292 44.654257 
L 413.955292 40.821861 
L 414.355236 40.821861 
L 414.355236 36.989465 
L 418.704304 36.989465 
L 418.807398 25.492277 
L 420.642667 25.492277 
L 420.642667 21.659881 
L 421.134023 21.659881 
L 421.134023 17.827485 
L 422.463903 17.827485 
L 422.463903 13.995089 
L 423.582331 13.995089 
L 423.582331 10.162693 
L 425.627329 10.162693 
L 425.627329 6.330297 
L 425.627329 6.330297 
L 460.8 6.330297 
L 460.8 6.330297 
" style="fill:none;stroke:#000000;stroke-linecap:square;stroke-width:1.5;"/>
   </g>
   <g id="line2d_25">
    <path clip-path="url(#pad42889e19)" d="M 217.726069 293.76 
L 217.726069 289.927604 
L 229.651977 289.927604 
L 229.651977 286.095208 
L 230.134001 286.095208 
L 230.134001 282.262812 
L 236.078873 282.262812 
L 236.078873 278.430416 
L 236.344878 278.430416 
L 236.344878 274.59802 
L 236.712131 274.59802 
L 236.790099 266.933228 
L 237.177441 266.933228 
L 237.177441 263.100832 
L 237.381339 263.100832 
L 237.455385 255.43604 
L 238.126614 255.43604 
L 238.126614 251.603644 
L 239.301474 251.603644 
L 239.301474 247.771248 
L 240.283709 247.771248 
L 240.283709 243.938851 
L 242.47195 243.938851 
L 242.47195 240.106455 
L 242.715528 240.106455 
L 242.715528 236.274059 
L 256.197186 236.274059 
L 256.197186 232.441663 
L 257.133524 232.441663 
L 257.133524 228.609267 
L 257.834852 228.609267 
L 257.834852 224.776871 
L 258.15661 224.776871 
L 258.15661 220.944475 
L 258.651528 220.944475 
L 258.651528 217.112079 
L 259.064174 217.112079 
L 259.064174 213.279683 
L 259.200779 213.279683 
L 259.200779 209.447287 
L 260.761803 209.447287 
L 260.761803 205.614891 
L 261.030302 205.614891 
L 261.030302 201.782495 
L 261.345157 201.782495 
L 261.345157 197.950099 
L 261.641401 197.950099 
L 261.641401 194.117703 
L 261.991335 194.117703 
L 261.991335 190.285307 
L 262.722428 190.285307 
L 262.722428 186.452911 
L 270.426045 186.452911 
L 270.426045 182.620515 
L 272.124279 182.620515 
L 272.124279 178.788119 
L 281.582681 178.788119 
L 281.582681 174.955723 
L 282.339729 174.955723 
L 282.339729 171.123327 
L 282.654731 171.123327 
L 282.654731 167.290931 
L 283.863701 167.290931 
L 283.863701 163.458535 
L 284.971012 163.458535 
L 285.066356 155.793743 
L 285.239838 155.793743 
L 285.239838 151.961347 
L 285.481672 151.961347 
L 285.554307 144.296554 
L 286.57507 144.296554 
L 286.57507 140.464158 
L 287.100426 140.464158 
L 287.101752 132.799366 
L 288.125391 132.799366 
L 288.125391 128.96697 
L 288.758909 128.96697 
L 288.810099 121.302178 
L 334.919257 121.302178 
L 334.919257 117.469782 
L 341.713544 117.469782 
L 341.713544 113.637386 
L 342.178163 113.637386 
L 342.178163 109.80499 
L 350.760725 109.80499 
L 350.760725 105.972594 
L 353.073836 105.972594 
L 353.073836 102.140198 
L 353.759581 102.140198 
L 353.842662 94.475406 
L 354.256505 94.475406 
L 354.256505 90.64301 
L 355.999629 90.64301 
L 355.999629 86.810614 
L 356.425142 86.810614 
L 356.425142 82.978218 
L 359.730417 82.978218 
L 359.730417 79.145822 
L 361.932594 79.145822 
L 361.932594 75.313426 
L 363.246391 75.313426 
L 363.246391 71.48103 
L 374.168756 71.48103 
L 374.168756 67.648634 
L 384.173452 67.648634 
L 384.173452 63.816238 
L 390.167785 63.816238 
L 390.167785 59.983842 
L 395.63033 59.983842 
L 395.63033 56.151446 
L 403.061206 56.151446 
L 403.061206 52.31905 
L 404.417796 52.31905 
L 404.507417 44.654257 
L 404.94542 44.654257 
L 405.007067 36.989465 
L 405.61359 36.989465 
L 405.61359 33.157069 
L 406.505698 33.157069 
L 406.505698 29.324673 
L 408.126346 29.324673 
L 408.126346 25.492277 
L 408.404913 25.492277 
L 408.503665 17.827485 
L 409.305995 17.827485 
L 409.305995 13.995089 
L 413.083088 13.995089 
L 413.083088 10.162693 
L 414.397798 10.162693 
L 414.397798 6.330297 
L 414.397798 6.330297 
L 460.8 6.330297 
L 460.8 6.330297 
" style="fill:none;stroke:#00bfbf;stroke-linecap:square;stroke-width:1.5;"/>
   </g>
   <g id="line2d_26">
    <path clip-path="url(#pad42889e19)" d="M 148.718998 293.76 
L 148.718998 289.927604 
L 148.978357 289.927604 
L 148.978357 286.095208 
L 152.54489 286.095208 
L 152.54489 282.262812 
L 152.870425 282.262812 
L 152.870425 278.430416 
L 153.25017 278.430416 
L 153.25017 274.59802 
L 153.907803 274.59802 
L 153.907803 270.765624 
L 154.218316 270.765624 
L 154.218316 266.933228 
L 155.665573 266.933228 
L 155.762496 259.268436 
L 156.217326 259.268436 
L 156.217326 255.43604 
L 156.831522 255.43604 
L 156.831522 251.603644 
L 157.008959 251.603644 
L 157.008959 247.771248 
L 157.12291 247.771248 
L 157.12291 243.938851 
L 158.268928 243.938851 
L 158.268928 240.106455 
L 160.492946 240.106455 
L 160.492946 236.274059 
L 216.392201 236.274059 
L 216.392201 232.441663 
L 223.321578 232.441663 
L 223.321578 228.609267 
L 225.540225 228.609267 
L 225.540225 224.776871 
L 228.139071 224.776871 
L 228.139071 220.944475 
L 230.21141 220.944475 
L 230.21141 217.112079 
L 230.560675 217.112079 
L 230.560675 213.279683 
L 230.901437 213.279683 
L 230.901437 209.447287 
L 233.119947 209.447287 
L 233.119947 205.614891 
L 233.358822 205.614891 
L 233.358822 201.782495 
L 233.487044 201.782495 
L 233.487044 197.950099 
L 234.009802 197.950099 
L 234.009802 194.117703 
L 234.692506 194.117703 
L 234.692506 190.285307 
L 235.414057 190.285307 
L 235.414057 186.452911 
L 236.573262 186.452911 
L 236.573262 182.620515 
L 238.719465 182.620515 
L 238.719465 178.788119 
L 239.887619 178.788119 
L 239.962628 171.123327 
L 242.957991 171.123327 
L 242.957991 167.290931 
L 243.198454 167.290931 
L 243.198454 163.458535 
L 246.022236 163.458535 
L 246.022236 159.626139 
L 246.659907 159.626139 
L 246.659907 155.793743 
L 248.47069 155.793743 
L 248.47069 151.961347 
L 248.915152 151.961347 
L 248.971277 144.296554 
L 249.837726 144.296554 
L 249.837726 140.464158 
L 251.904408 140.464158 
L 252.001122 132.799366 
L 253.876392 132.799366 
L 253.876392 128.96697 
L 254.435471 128.96697 
L 254.435471 125.134574 
L 255.599625 125.134574 
L 255.599625 121.302178 
L 256.210448 121.302178 
L 256.210448 117.469782 
L 256.819431 117.469782 
L 256.819431 113.637386 
L 257.834852 113.637386 
L 257.834852 109.80499 
L 258.437466 109.80499 
L 258.47472 102.140198 
L 258.745081 102.140198 
L 258.745081 98.307802 
L 258.911104 98.307802 
L 258.911104 94.475406 
L 259.064174 94.475406 
L 259.064174 90.64301 
L 259.294708 90.64301 
L 259.294708 86.810614 
L 259.445857 86.810614 
L 259.445857 82.978218 
L 259.703743 82.978218 
L 259.703743 79.145822 
L 259.882933 79.145822 
L 259.882933 75.313426 
L 260.990412 75.313426 
L 260.990412 71.48103 
L 262.26015 71.48103 
L 262.26015 67.648634 
L 273.002057 67.648634 
L 273.002057 63.816238 
L 303.373312 63.816238 
L 303.373312 59.983842 
L 305.92126 59.983842 
L 305.92126 56.151446 
L 310.163461 56.151446 
L 310.163461 52.31905 
L 310.644377 52.31905 
L 310.720487 44.654257 
L 312.214268 44.654257 
L 312.271734 36.989465 
L 313.838697 36.989465 
L 313.838697 33.157069 
L 316.352769 33.157069 
L 316.352769 29.324673 
L 317.923632 29.324673 
L 317.923632 25.492277 
L 318.084835 25.492277 
L 318.084835 21.659881 
L 320.479291 21.659881 
L 320.479291 17.827485 
L 320.626221 17.827485 
L 320.626221 13.995089 
L 326.282236 13.995089 
L 326.282236 10.162693 
L 327.224179 10.162693 
L 327.224179 6.330297 
L 327.224179 6.330297 
L 460.8 6.330297 
L 460.8 6.330297 
" style="fill:none;stroke:#bf00bf;stroke-linecap:square;stroke-width:1.5;"/>
   </g>
   <g id="line2d_27">
    <path clip-path="url(#pad42889e19)" d="M 38.023769 293.76 
L 38.023769 289.927604 
L 39.975004 289.927604 
L 39.975004 286.095208 
L 43.7315 286.095208 
L 43.7315 282.262812 
L 44.953234 282.262812 
L 44.953234 278.430416 
L 45.860501 278.430416 
L 45.860501 274.59802 
L 46.718805 274.59802 
L 46.718805 270.765624 
L 50.130387 270.765624 
L 50.130387 266.933228 
L 50.259826 266.933228 
L 50.259826 263.100832 
L 50.636371 263.100832 
L 50.636371 259.268436 
L 54.713094 259.268436 
L 54.713094 255.43604 
L 55.189951 255.43604 
L 55.299614 243.938851 
L 56.656266 243.938851 
L 56.656266 240.106455 
L 63.798381 240.106455 
L 63.798381 236.274059 
L 89.943601 236.274059 
L 89.943601 232.441663 
L 153.873071 232.441663 
L 153.873071 228.609267 
L 157.49183 228.609267 
L 157.49183 224.776871 
L 160.808035 224.776871 
L 160.808035 220.944475 
L 174.766316 220.944475 
L 174.766316 217.112079 
L 175.702758 217.112079 
L 175.702758 213.279683 
L 178.273231 213.279683 
L 178.273231 209.447287 
L 180.029977 209.447287 
L 180.029977 205.614891 
L 182.747679 205.614891 
L 182.747679 201.782495 
L 185.992957 201.782495 
L 185.992957 197.950099 
L 187.637957 197.950099 
L 187.637957 194.117703 
L 188.473898 194.117703 
L 188.473898 190.285307 
L 189.005484 190.285307 
L 189.005484 186.452911 
L 191.631951 186.452911 
L 191.631951 182.620515 
L 192.904132 182.620515 
L 192.904132 178.788119 
L 195.569033 178.788119 
L 195.569033 174.955723 
L 195.934658 174.955723 
L 195.934658 171.123327 
L 196.353055 171.123327 
L 196.447533 163.458535 
L 196.63412 163.458535 
L 196.63412 159.626139 
L 199.501583 159.626139 
L 199.501583 155.793743 
L 200.530228 155.793743 
L 200.530228 151.961347 
L 201.66437 151.961347 
L 201.66437 148.12895 
L 202.445397 148.12895 
L 202.445397 144.296554 
L 203.259699 144.296554 
L 203.259699 140.464158 
L 205.369321 140.464158 
L 205.369321 136.631762 
L 206.578114 136.631762 
L 206.628932 121.302178 
L 209.863798 121.302178 
L 209.863798 117.469782 
L 211.692044 117.469782 
L 211.692044 113.637386 
L 214.939021 113.637386 
L 214.939021 109.80499 
L 215.458681 109.80499 
L 215.458681 105.972594 
L 216.641649 105.972594 
L 216.641649 102.140198 
L 217.214883 102.140198 
L 217.214883 98.307802 
L 217.376486 98.307802 
L 217.376486 94.475406 
L 217.929051 94.475406 
L 217.929051 90.64301 
L 220.449159 90.64301 
L 220.449159 86.810614 
L 221.109771 86.810614 
L 221.109771 82.978218 
L 225.868605 82.978218 
L 225.868605 79.145822 
L 226.181962 79.145822 
L 226.181962 75.313426 
L 231.638873 75.313426 
L 231.638873 71.48103 
L 234.162648 71.48103 
L 234.162648 67.648634 
L 234.805848 67.648634 
L 234.805848 63.816238 
L 235.822178 63.816238 
L 235.822178 59.983842 
L 237.631914 59.983842 
L 237.631914 56.151446 
L 238.294498 56.151446 
L 238.294498 52.31905 
L 238.640756 52.31905 
L 238.640756 48.486653 
L 241.286036 48.486653 
L 241.286036 44.654257 
L 241.726094 44.654257 
L 241.726094 40.821861 
L 243.31015 40.821861 
L 243.31015 36.989465 
L 243.428572 36.989465 
L 243.428572 33.157069 
L 247.627581 33.157069 
L 247.627581 29.324673 
L 248.148531 29.324673 
L 248.148531 25.492277 
L 250.214501 25.492277 
L 250.214501 21.659881 
L 254.094124 21.659881 
L 254.199213 13.995089 
L 256.299313 13.995089 
L 256.299313 10.162693 
L 257.344416 10.162693 
L 257.344416 6.330297 
L 257.344416 6.330297 
L 460.8 6.330297 
L 460.8 6.330297 
" style="fill:none;stroke:#000000;stroke-linecap:square;stroke-width:1.5;"/>
   </g>
   <g id="line2d_28">
    <path clip-path="url(#pad42889e19)" d="M -1 63.816238 
L 46.480482 63.816238 
L 46.480482 59.983842 
L 76.744601 59.983842 
L 76.744601 56.151446 
L 157.49183 56.151446 
L 157.49183 52.31905 
L 205.369321 52.31905 
L 205.369321 48.486653 
L 206.578114 48.486653 
L 206.621235 36.989465 
L 209.863798 36.989465 
L 209.863798 33.157069 
L 214.939021 33.157069 
L 214.939021 29.324673 
L 216.641649 29.324673 
L 216.641649 25.492277 
L 220.449159 25.492277 
L 220.449159 21.659881 
L 221.109771 21.659881 
L 221.109771 17.827485 
L 231.638873 17.827485 
L 231.638873 13.995089 
L 234.805848 13.995089 
L 234.805848 10.162693 
L 241.286036 10.162693 
L 241.286036 6.330297 
L 241.286036 6.330297 
L 460.8 6.330297 
L 460.8 6.330297 
" style="fill:none;stroke:#00bfbf;stroke-linecap:square;stroke-width:1.5;"/>
   </g>
   <g id="patch_3">
    <path d="M 0 293.76 
L 0 3.456 
" style="fill:none;stroke:#000000;stroke-linecap:square;stroke-linejoin:miter;stroke-width:0.8;"/>
   </g>
   <g id="patch_4">
    <path d="M 460.8 293.76 
L 460.8 3.456 
" style="fill:none;stroke:#000000;stroke-linecap:square;stroke-linejoin:miter;stroke-width:0.8;"/>
   </g>
   <g id="patch_5">
    <path d="M 0 293.76 
L 460.8 293.76 
" style="fill:none;stroke:#000000;stroke-linecap:square;stroke-linejoin:miter;stroke-width:0.8;"/>
   </g>
   <g id="patch_6">
    <path d="M 0 3.456 
L 460.8 3.456 
" style="fill:none;stroke:#000000;stroke-linecap:square;stroke-linejoin:miter;stroke-width:0.8;"/>
   </g>
   <g id="text_6">
    <!-- {f10-f14}, 20-D -->
    <g transform="translate(293.159 287.95392)scale(0.2 -0.2)">
     <defs>
      <path d="M 51.125 -9.28125 
L 51.125 -16.3125 
L 48.09375 -16.3125 
Q 35.9375 -16.3125 31.8125 -12.6875 
Q 27.6875 -9.078125 27.6875 1.703125 
L 27.6875 13.375 
Q 27.6875 20.75 25.046875 23.578125 
Q 22.40625 26.421875 15.484375 26.421875 
L 12.5 26.421875 
L 12.5 33.40625 
L 15.484375 33.40625 
Q 22.46875 33.40625 25.078125 36.203125 
Q 27.6875 39.015625 27.6875 46.296875 
L 27.6875 58.015625 
Q 27.6875 68.796875 31.8125 72.390625 
Q 35.9375 75.984375 48.09375 75.984375 
L 51.125 75.984375 
L 51.125 69 
L 47.796875 69 
Q 40.921875 69 38.8125 66.84375 
Q 36.71875 64.703125 36.71875 57.8125 
L 36.71875 45.703125 
Q 36.71875 38.03125 34.5 34.5625 
Q 32.28125 31.109375 26.90625 29.890625 
Q 32.328125 28.5625 34.515625 25.09375 
Q 36.71875 21.625 36.71875 14.015625 
L 36.71875 1.90625 
Q 36.71875 -4.984375 38.8125 -7.125 
Q 40.921875 -9.28125 47.796875 -9.28125 
z
" id="DejaVuSans-123"/>
      <path d="M 12.5 -9.28125 
L 15.921875 -9.28125 
Q 22.75 -9.28125 24.828125 -7.171875 
Q 26.90625 -5.078125 26.90625 1.90625 
L 26.90625 14.015625 
Q 26.90625 21.625 29.09375 25.09375 
Q 31.296875 28.5625 36.71875 29.890625 
Q 31.296875 31.109375 29.09375 34.5625 
Q 26.90625 38.03125 26.90625 45.703125 
L 26.90625 57.8125 
Q 26.90625 64.75 24.828125 66.875 
Q 22.75 69 15.921875 69 
L 12.5 69 
L 12.5 75.984375 
L 15.578125 75.984375 
Q 27.734375 75.984375 31.8125 72.390625 
Q 35.890625 68.796875 35.890625 58.015625 
L 35.890625 46.296875 
Q 35.890625 39.015625 38.515625 36.203125 
Q 41.15625 33.40625 48.09375 33.40625 
L 51.125 33.40625 
L 51.125 26.421875 
L 48.09375 26.421875 
Q 41.15625 26.421875 38.515625 23.578125 
Q 35.890625 20.75 35.890625 13.375 
L 35.890625 1.703125 
Q 35.890625 -9.078125 31.8125 -12.6875 
Q 27.734375 -16.3125 15.578125 -16.3125 
L 12.5 -16.3125 
z
" id="DejaVuSans-125"/>
      <path d="M 11.71875 12.40625 
L 22.015625 12.40625 
L 22.015625 4 
L 14.015625 -11.625 
L 7.71875 -11.625 
L 11.71875 4 
z
" id="DejaVuSans-44"/>
      <path d="M 19.1875 8.296875 
L 53.609375 8.296875 
L 53.609375 0 
L 7.328125 0 
L 7.328125 8.296875 
Q 12.9375 14.109375 22.625 23.890625 
Q 32.328125 33.6875 34.8125 36.53125 
Q 39.546875 41.84375 41.421875 45.53125 
Q 43.3125 49.21875 43.3125 52.78125 
Q 43.3125 58.59375 39.234375 62.25 
Q 35.15625 65.921875 28.609375 65.921875 
Q 23.96875 65.921875 18.8125 64.3125 
Q 13.671875 62.703125 7.8125 59.421875 
L 7.8125 69.390625 
Q 13.765625 71.78125 18.9375 73 
Q 24.125 74.21875 28.421875 74.21875 
Q 39.75 74.21875 46.484375 68.546875 
Q 53.21875 62.890625 53.21875 53.421875 
Q 53.21875 48.921875 51.53125 44.890625 
Q 49.859375 40.875 45.40625 35.40625 
Q 44.1875 33.984375 37.640625 27.21875 
Q 31.109375 20.453125 19.1875 8.296875 
z
" id="DejaVuSans-50"/>
     </defs>
     <use xlink:href="#DejaVuSans-123"/>
     <use x="63.623047" xlink:href="#DejaVuSans-102"/>
     <use x="98.828125" xlink:href="#DejaVuSans-49"/>
     <use x="162.451172" xlink:href="#DejaVuSans-48"/>
     <use x="226.074219" xlink:href="#DejaVuSans-45"/>
     <use x="262.158203" xlink:href="#DejaVuSans-102"/>
     <use x="297.363281" xlink:href="#DejaVuSans-49"/>
     <use x="360.986328" xlink:href="#DejaVuSans-52"/>
     <use x="424.609375" xlink:href="#DejaVuSans-125"/>
     <use x="488.232422" xlink:href="#DejaVuSans-44"/>
     <use x="520.019531" xlink:href="#DejaVuSans-32"/>
     <use x="551.806641" xlink:href="#DejaVuSans-50"/>
     <use x="615.429688" xlink:href="#DejaVuSans-48"/>
     <use x="679.052734" xlink:href="#DejaVuSans-45"/>
     <use x="715.136719" xlink:href="#DejaVuSans-68"/>
    </g>
   </g>
   <g id="text_7">
    <!-- v2.4 -->
    <g style="fill:#808080;" transform="translate(219.489063 288.777272)scale(0.1 -0.1)">
     <defs>
      <path d="M 2.984375 54.6875 
L 12.5 54.6875 
L 29.59375 8.796875 
L 46.6875 54.6875 
L 56.203125 54.6875 
L 35.6875 0 
L 23.484375 0 
z
" id="DejaVuSans-118"/>
      <path d="M 10.6875 12.40625 
L 21 12.40625 
L 21 0 
L 10.6875 0 
z
" id="DejaVuSans-46"/>
     </defs>
     <use xlink:href="#DejaVuSans-118"/>
     <use x="59.179688" xlink:href="#DejaVuSans-50"/>
     <use x="122.802734" xlink:href="#DejaVuSans-46"/>
     <use x="154.589844" xlink:href="#DejaVuSans-52"/>
    </g>
   </g>
  </g>
 </g>
 <defs>
  <clipPath id="pad42889e19">
   <rect height="290.304" width="460.8" x="0" y="3.456"/>
  </clipPath>
 </defs>
</svg>
