<?xml version="1.0" encoding="utf-8" standalone="no"?>
<!DOCTYPE svg PUBLIC "-//W3C//DTD SVG 1.1//EN"
  "http://www.w3.org/Graphics/SVG/1.1/DTD/svg11.dtd">
<!-- Created with matplotlib (https://matplotlib.org/) -->
<svg height="345.6pt" version="1.1" viewBox="0 0 460.8 345.6" width="460.8pt" xmlns="http://www.w3.org/2000/svg" xmlns:xlink="http://www.w3.org/1999/xlink">
 <metadata>
  <rdf:RDF xmlns:cc="http://creativecommons.org/ns#" xmlns:dc="http://purl.org/dc/elements/1.1/" xmlns:rdf="http://www.w3.org/1999/02/22-rdf-syntax-ns#">
   <cc:Work>
    <dc:type rdf:resource="http://purl.org/dc/dcmitype/StillImage"/>
    <dc:date>2021-06-17T01:37:17.692418</dc:date>
    <dc:format>image/svg+xml</dc:format>
    <dc:creator>
     <cc:Agent>
      <dc:title>Matplotlib v3.3.4, https://matplotlib.org/</dc:title>
     </cc:Agent>
    </dc:creator>
   </cc:Work>
  </rdf:RDF>
 </metadata>
 <defs>
  <style type="text/css">*{stroke-linecap:butt;stroke-linejoin:round;}</style>
 </defs>
 <g id="figure_1">
  <g id="patch_1">
   <path d="M 0 345.6 
L 460.8 345.6 
L 460.8 0 
L 0 0 
z
" style="fill:#ffffff;"/>
  </g>
  <g id="axes_1">
   <g id="patch_2">
    <path d="M 62.208 293.76 
L 460.8 293.76 
L 460.8 3.456 
L 62.208 3.456 
z
" style="fill:#ffffff;"/>
   </g>
   <g id="line2d_1"/>
   <g id="line2d_2"/>
   <g id="line2d_3"/>
   <g id="line2d_4">
    <path clip-path="url(#p90bb62960f)" d="M 331.612827 293.76 
L 331.632764 286.095208 
L 332.527164 286.095208 
L 332.527164 282.262812 
L 333.167773 282.262812 
L 333.167773 278.430416 
L 333.590041 278.430416 
L 333.590041 274.59802 
L 333.984432 274.59802 
L 334.019667 266.933228 
L 334.129874 266.933228 
L 334.129874 263.100832 
L 334.817089 263.100832 
L 334.865401 251.603644 
L 336.43023 251.603644 
L 336.43023 247.771248 
L 336.957526 247.771248 
L 336.957526 243.938851 
L 337.808467 243.938851 
L 337.808467 240.106455 
L 337.955656 240.106455 
L 337.955656 236.274059 
L 338.844326 236.274059 
L 338.844326 232.441663 
L 339.435635 232.441663 
L 339.435635 228.609267 
L 340.294569 228.609267 
L 340.294569 224.776871 
L 340.490977 224.776871 
L 340.490977 220.944475 
L 341.005488 220.944475 
L 341.005488 217.112079 
L 341.46865 217.112079 
L 341.46865 213.279683 
L 343.381569 213.279683 
L 343.418766 205.614891 
L 344.877362 205.614891 
L 344.877362 201.782495 
L 346.067954 201.782495 
L 346.067954 197.950099 
L 347.425097 197.950099 
L 347.490676 190.285307 
L 348.180308 190.285307 
L 348.180308 186.452911 
L 348.517467 186.452911 
L 348.517467 182.620515 
L 351.586258 182.620515 
L 351.586258 178.788119 
L 353.911018 178.788119 
L 353.911018 174.955723 
L 354.65187 174.955723 
L 354.65187 171.123327 
L 354.84127 171.123327 
L 354.84127 167.290931 
L 355.906203 167.290931 
L 355.906203 163.458535 
L 356.341404 163.458535 
L 356.341404 159.626139 
L 357.512203 159.626139 
L 357.512203 155.793743 
L 357.745977 155.793743 
L 357.75379 148.12895 
L 358.002993 148.12895 
L 358.002993 144.296554 
L 358.40853 144.296554 
L 358.496819 136.631762 
L 358.861985 136.631762 
L 358.861985 132.799366 
L 359.276555 132.799366 
L 359.32166 125.134574 
L 359.764999 125.134574 
L 359.764999 121.302178 
L 360.507402 121.302178 
L 360.507402 117.469782 
L 362.19326 117.469782 
L 362.19326 113.637386 
L 364.712872 113.637386 
L 364.712872 109.80499 
L 372.526661 109.80499 
L 372.526661 105.972594 
L 373.090925 105.972594 
L 373.090925 102.140198 
L 373.203722 102.140198 
L 373.203722 98.307802 
L 373.599992 98.307802 
L 373.599992 94.475406 
L 376.552283 94.475406 
L 376.552283 90.64301 
L 383.427062 90.64301 
L 383.427062 86.810614 
L 388.263589 86.810614 
L 388.263589 82.978218 
L 392.583505 82.978218 
L 392.583505 79.145822 
L 393.068818 79.145822 
L 393.068818 75.313426 
L 393.339156 75.313426 
L 393.339156 71.48103 
L 393.499634 71.48103 
L 393.499634 67.648634 
L 394.332462 67.648634 
L 394.332462 63.816238 
L 395.542364 63.816238 
L 395.542364 59.983842 
L 413.914228 59.983842 
L 413.914228 56.151446 
L 426.366313 56.151446 
L 426.366313 52.31905 
L 428.864523 52.31905 
L 428.864523 48.486653 
L 428.864523 48.486653 
L 460.8 48.486653 
L 460.8 48.486653 
" style="fill:none;stroke:#f5deb3;stroke-linecap:square;stroke-width:1.5;"/>
   </g>
   <g id="line2d_5"/>
   <g id="line2d_6"/>
   <g id="line2d_7">
    <path clip-path="url(#p90bb62960f)" d="M 330.641501 293.76 
L 330.68744 286.095208 
L 330.768979 286.095208 
L 330.768979 282.262812 
L 330.992366 282.262812 
L 330.992366 278.430416 
L 331.347727 278.430416 
L 331.347727 274.59802 
L 331.572924 274.59802 
L 331.572924 270.765624 
L 331.863808 270.765624 
L 331.863808 266.933228 
L 332.059035 266.933228 
L 332.103385 259.268436 
L 332.573435 259.268436 
L 332.665818 247.771248 
L 332.743451 247.771248 
L 332.743451 243.938851 
L 334.384303 243.938851 
L 334.384303 240.106455 
L 341.995935 240.106455 
L 341.995935 236.274059 
L 342.174647 236.274059 
L 342.174647 232.441663 
L 342.367837 232.441663 
L 342.367837 228.609267 
L 342.843965 228.609267 
L 342.843965 224.776871 
L 342.977631 224.776871 
L 343.013326 217.112079 
L 343.450357 217.112079 
L 343.450357 213.279683 
L 344.332248 213.279683 
L 344.332248 209.447287 
L 344.86481 209.447287 
L 344.86481 205.614891 
L 345.966873 205.614891 
L 346.04532 197.950099 
L 346.712011 197.950099 
L 346.712011 194.117703 
L 347.271664 194.117703 
L 347.271664 190.285307 
L 347.51587 190.285307 
L 347.51587 186.452911 
L 348.997744 186.452911 
L 348.997744 182.620515 
L 349.513921 182.620515 
L 349.553845 174.955723 
L 350.888227 174.955723 
L 350.888227 171.123327 
L 351.1376 171.123327 
L 351.1376 167.290931 
L 351.752846 167.290931 
L 351.752846 163.458535 
L 352.273881 163.458535 
L 352.273881 159.626139 
L 353.63938 159.626139 
L 353.63938 155.793743 
L 353.793389 155.793743 
L 353.793389 151.961347 
L 354.220654 151.961347 
L 354.220654 148.12895 
L 355.937542 148.12895 
L 355.937542 144.296554 
L 356.73057 144.296554 
L 356.73057 140.464158 
L 357.082927 140.464158 
L 357.082927 136.631762 
L 358.822701 136.631762 
L 358.822701 132.799366 
L 359.295355 132.799366 
L 359.352953 125.134574 
L 360.910262 125.134574 
L 360.910262 121.302178 
L 361.750086 121.302178 
L 361.750086 117.469782 
L 371.350618 117.469782 
L 371.350618 113.637386 
L 379.466277 113.637386 
L 379.466277 109.80499 
L 385.221939 109.80499 
L 385.221939 105.972594 
L 389.169639 105.972594 
L 389.169639 102.140198 
L 398.772111 102.140198 
L 398.772111 98.307802 
L 399.460669 98.307802 
L 399.460669 94.475406 
L 400.116747 94.475406 
L 400.116747 90.64301 
L 401.36111 90.64301 
L 401.36111 86.810614 
L 401.991935 86.810614 
L 401.991935 82.978218 
L 402.207798 82.978218 
L 402.207798 79.145822 
L 414.859712 79.145822 
L 414.859712 75.313426 
L 418.492245 75.313426 
L 418.492245 71.48103 
L 418.849626 71.48103 
L 418.849626 67.648634 
L 419.272529 67.648634 
L 419.272529 63.816238 
L 461.8 63.816238 
L 461.8 63.816238 
" style="fill:none;stroke:#f5deb3;stroke-linecap:square;stroke-width:1.5;"/>
   </g>
   <g id="line2d_8"/>
   <g id="line2d_9">
    <path clip-path="url(#p90bb62960f)" d="M 328.87981 293.76 
L 328.87981 289.927604 
L 329.225148 289.927604 
L 329.225148 286.095208 
L 329.407246 286.095208 
L 329.407246 282.262812 
L 329.591145 282.262812 
L 329.591145 278.430416 
L 329.953844 278.430416 
L 329.953844 274.59802 
L 330.166287 274.59802 
L 330.166287 270.765624 
L 330.544346 270.765624 
L 330.544346 266.933228 
L 330.684889 266.933228 
L 330.684889 263.100832 
L 330.847814 263.100832 
L 330.880828 255.43604 
L 330.979707 255.43604 
L 331.068238 240.106455 
L 331.505497 240.106455 
L 331.505497 236.274059 
L 334.284124 236.274059 
L 334.284124 232.441663 
L 338.180728 232.441663 
L 338.180728 228.609267 
L 338.664807 228.609267 
L 338.740052 217.112079 
L 338.973251 217.112079 
L 339.068639 209.447287 
L 339.252555 209.447287 
L 339.302007 197.950099 
L 339.406891 197.950099 
L 339.406891 194.117703 
L 339.546312 194.117703 
L 339.546312 190.285307 
L 340.147639 190.285307 
L 340.147639 186.452911 
L 340.36683 186.452911 
L 340.36683 182.620515 
L 340.777848 182.620515 
L 340.777848 178.788119 
L 340.916565 178.788119 
L 340.916565 174.955723 
L 341.253432 174.955723 
L 341.253432 171.123327 
L 342.266575 171.123327 
L 342.266575 167.290931 
L 342.46123 167.290931 
L 342.46123 163.458535 
L 343.42806 163.458535 
L 343.42806 159.626139 
L 344.372209 159.626139 
L 344.372209 155.793743 
L 345.015175 155.793743 
L 345.015175 151.961347 
L 345.177438 151.961347 
L 345.177438 148.12895 
L 345.489423 148.12895 
L 345.547651 140.464158 
L 345.633957 140.464158 
L 345.633957 136.631762 
L 346.003501 136.631762 
L 346.003501 132.799366 
L 346.310901 132.799366 
L 346.407671 121.302178 
L 346.677738 121.302178 
L 346.724 113.637386 
L 346.911929 113.637386 
L 346.911929 109.80499 
L 347.117643 109.80499 
L 347.117643 105.972594 
L 347.339179 105.972594 
L 347.339179 102.140198 
L 351.385438 102.140198 
L 351.425073 94.475406 
L 355.107723 94.475406 
L 355.107723 90.64301 
L 355.551597 90.64301 
L 355.551597 86.810614 
L 359.799662 86.810614 
L 359.799662 82.978218 
L 362.274797 82.978218 
L 362.352684 75.313426 
L 366.291494 75.313426 
L 366.291494 71.48103 
L 367.817626 71.48103 
L 367.817626 67.648634 
L 371.671597 67.648634 
L 371.671597 63.816238 
L 374.81963 63.816238 
L 374.81963 59.983842 
L 379.382687 59.983842 
L 379.382687 56.151446 
L 381.104798 56.151446 
L 381.104798 52.31905 
L 381.309081 52.31905 
L 381.309081 48.486653 
L 381.937202 48.486653 
L 381.937202 44.654257 
L 382.238769 44.654257 
L 382.238769 40.821861 
L 394.774429 40.821861 
L 394.774429 36.989465 
L 404.934457 36.989465 
L 404.934457 33.157069 
L 417.840734 33.157069 
L 417.840734 29.324673 
L 420.428613 29.324673 
L 420.428613 25.492277 
L 421.124076 25.492277 
L 421.124076 21.659881 
L 421.513978 21.659881 
L 421.513978 17.827485 
L 422.324529 17.827485 
L 422.324529 13.995089 
L 424.53647 13.995089 
L 424.53647 10.162693 
L 425.2483 10.162693 
L 425.2483 6.330297 
L 425.2483 6.330297 
L 460.8 6.330297 
L 460.8 6.330297 
" style="fill:none;stroke:#f5deb3;stroke-linecap:square;stroke-width:1.5;"/>
   </g>
   <g id="line2d_10"/>
   <g id="line2d_11">
    <path clip-path="url(#p90bb62960f)" style="fill:none;stroke:#f5deb3;stroke-linecap:square;stroke-width:1.5;"/>
   </g>
   <g id="line2d_12">
    <path clip-path="url(#p90bb62960f)" d="M 413.116124 293.76 
L 413.116124 289.927604 
L 413.116124 289.927604 
L 413.116124 289.927604 
L 460.8 289.927604 
" style="fill:none;stroke:#f5deb3;stroke-linecap:square;stroke-width:1.5;"/>
   </g>
   <g id="line2d_13"/>
   <g id="line2d_14"/>
   <g id="line2d_15"/>
   <g id="line2d_16">
    <path clip-path="url(#p90bb62960f)" style="fill:none;stroke:#f5deb3;stroke-linecap:square;stroke-width:1.5;"/>
   </g>
   <g id="line2d_17">
    <path clip-path="url(#p90bb62960f)" d="M 448.317034 293.76 
L 448.317034 289.927604 
L 451.235356 289.927604 
L 451.235356 286.095208 
L 455.837326 286.095208 
L 455.837326 282.262812 
L 456.050742 282.262812 
L 456.050742 278.430416 
L 456.668229 278.430416 
L 456.668229 274.59802 
L 456.722379 274.59802 
L 456.722379 270.765624 
L 456.903574 270.765624 
L 456.903574 266.933228 
L 457.594162 266.933228 
L 457.594162 263.100832 
L 458.015149 263.100832 
L 458.015149 259.268436 
L 458.440421 259.268436 
L 458.440421 255.43604 
L 458.959739 255.43604 
L 458.959739 251.603644 
L 459.162502 251.603644 
L 459.162502 247.771248 
L 459.853113 247.771248 
L 459.853113 243.938851 
L 459.888019 243.938851 
L 459.888019 240.106455 
L 459.950547 240.106455 
L 459.950547 236.274059 
L 460.245421 236.274059 
L 460.245421 232.441663 
L 460.629699 232.441663 
L 460.629699 228.609267 
L 461.224668 228.609267 
L 461.224668 224.776871 
L 461.8 224.776871 
" style="fill:none;stroke:#f5deb3;stroke-linecap:square;stroke-width:1.5;"/>
   </g>
   <g id="line2d_18">
    <path clip-path="url(#p90bb62960f)" d="M 306.442594 293.76 
L 306.442594 289.927604 
L 312.515454 289.927604 
L 312.515454 286.095208 
L 314.02135 286.095208 
L 314.02135 282.262812 
L 314.948376 282.262812 
L 314.948376 278.430416 
L 315.267669 278.430416 
L 315.267669 274.59802 
L 317.096254 274.59802 
L 317.096254 270.765624 
L 322.250528 270.765624 
L 322.250528 266.933228 
L 326.793751 266.933228 
L 326.793751 263.100832 
L 327.029085 263.100832 
L 327.029085 259.268436 
L 327.082125 259.268436 
L 327.082125 255.43604 
L 332.007232 255.43604 
L 332.007232 251.603644 
L 336.624375 251.603644 
L 336.624375 247.771248 
L 339.458205 247.771248 
L 339.458205 243.938851 
L 342.565801 243.938851 
L 342.565801 240.106455 
L 350.201442 240.106455 
L 350.201442 236.274059 
L 401.288345 236.274059 
L 401.288345 232.441663 
L 402.063007 232.441663 
L 402.063007 228.609267 
L 403.559393 228.609267 
L 403.559393 224.776871 
L 403.840427 224.776871 
L 403.840427 220.944475 
L 405.409005 220.944475 
L 405.409005 217.112079 
L 405.63667 217.112079 
L 405.63667 213.279683 
L 405.863448 213.279683 
L 405.863448 209.447287 
L 406.328399 209.447287 
L 406.328399 205.614891 
L 406.385996 205.614891 
L 406.385996 201.782495 
L 406.895319 201.782495 
L 406.895319 197.950099 
L 407.377034 197.950099 
L 407.377034 194.117703 
L 407.500917 194.117703 
L 407.500917 190.285307 
L 407.644026 190.285307 
L 407.644026 186.452911 
L 407.695631 186.452911 
L 407.695631 182.620515 
L 408.041968 182.620515 
L 408.041968 178.788119 
L 408.108346 178.788119 
L 408.108346 174.955723 
L 408.468155 174.955723 
L 408.468155 171.123327 
L 408.716286 171.123327 
L 408.716286 167.290931 
L 408.742702 167.290931 
L 408.742702 163.458535 
L 409.650782 163.458535 
L 409.650782 159.626139 
L 409.680892 159.626139 
L 409.680892 155.793743 
L 413.937767 155.793743 
L 413.937767 151.961347 
L 418.972413 151.961347 
L 418.972413 148.12895 
L 430.050443 148.12895 
L 430.050443 144.296554 
L 436.828806 144.296554 
L 436.828806 140.464158 
L 437.386746 140.464158 
L 437.386746 136.631762 
L 439.655327 136.631762 
L 439.655327 132.799366 
L 456.089105 132.799366 
L 456.089105 128.96697 
L 461.8 128.96697 
" style="fill:none;stroke:#f5deb3;stroke-linecap:square;stroke-width:1.5;"/>
   </g>
   <g id="line2d_19"/>
   <g id="line2d_20"/>
   <g id="line2d_21"/>
   <g id="line2d_22"/>
   <g id="line2d_23"/>
   <g id="line2d_24">
    <path clip-path="url(#p90bb62960f)" d="M 349.339387 293.76 
L 349.339387 289.927604 
L 350.668362 289.927604 
L 350.668362 286.095208 
L 351.572598 286.095208 
L 351.572598 282.262812 
L 352.25299 282.262812 
L 352.25299 278.430416 
L 352.851543 278.430416 
L 352.851543 274.59802 
L 354.904206 274.59802 
L 354.904206 270.765624 
L 355.546095 270.765624 
L 355.546095 266.933228 
L 355.941628 266.933228 
L 356.004228 259.268436 
L 356.746593 259.268436 
L 356.746593 255.43604 
L 357.559328 255.43604 
L 357.559328 251.603644 
L 358.719875 251.603644 
L 358.771956 243.938851 
L 359.320408 243.938851 
L 359.335432 236.274059 
L 360.062376 236.274059 
L 360.062376 232.441663 
L 361.066447 232.441663 
L 361.127554 224.776871 
L 361.348442 224.776871 
L 361.365109 217.112079 
L 362.390991 217.112079 
L 362.390991 213.279683 
L 362.689234 213.279683 
L 362.689234 209.447287 
L 363.301863 209.447287 
L 363.333611 201.782495 
L 363.42192 201.782495 
L 363.42192 197.950099 
L 363.764263 197.950099 
L 363.764263 194.117703 
L 364.638328 194.117703 
L 364.732582 186.452911 
L 364.799303 186.452911 
L 364.799303 182.620515 
L 365.214633 182.620515 
L 365.214633 178.788119 
L 365.40671 178.788119 
L 365.40671 174.955723 
L 366.811513 174.955723 
L 366.811513 171.123327 
L 367.367985 171.123327 
L 367.367985 167.290931 
L 367.756745 167.290931 
L 367.756745 163.458535 
L 367.942145 163.458535 
L 367.942145 159.626139 
L 368.067288 159.626139 
L 368.067288 155.793743 
L 368.444392 155.793743 
L 368.444392 151.961347 
L 370.328233 151.961347 
L 370.343471 144.296554 
L 370.907984 144.296554 
L 370.907984 140.464158 
L 371.811397 140.464158 
L 371.811397 136.631762 
L 372.770354 136.631762 
L 372.830376 128.96697 
L 373.294087 128.96697 
L 373.294087 125.134574 
L 373.790992 125.134574 
L 373.790992 121.302178 
L 379.85759 121.302178 
L 379.85759 117.469782 
L 380.110143 117.469782 
L 380.110143 113.637386 
L 380.732838 113.637386 
L 380.732838 109.80499 
L 381.020895 109.80499 
L 381.033309 102.140198 
L 381.695892 102.140198 
L 381.695892 98.307802 
L 381.900062 98.307802 
L 381.900062 94.475406 
L 382.464879 94.475406 
L 382.464879 90.64301 
L 383.209767 90.64301 
L 383.240881 82.978218 
L 384.263817 82.978218 
L 384.263817 79.145822 
L 384.417825 79.145822 
L 384.446008 71.48103 
L 386.182202 71.48103 
L 386.182202 67.648634 
L 390.651153 67.648634 
L 390.651153 63.816238 
L 399.687749 63.816238 
L 399.687749 59.983842 
L 408.665606 59.983842 
L 408.665606 56.151446 
L 409.327472 56.151446 
L 409.327472 52.31905 
L 412.205066 52.31905 
L 412.265598 44.654257 
L 412.812293 44.654257 
L 412.812293 40.821861 
L 413.076953 40.821861 
L 413.076953 36.989465 
L 413.438899 36.989465 
L 413.438899 33.157069 
L 413.776911 33.157069 
L 413.788884 25.492277 
L 414.170161 25.492277 
L 414.170161 21.659881 
L 417.915561 21.659881 
L 417.915561 17.827485 
L 418.143569 17.827485 
L 418.143569 13.995089 
L 419.003691 13.995089 
L 419.003691 10.162693 
L 419.812122 10.162693 
L 419.812122 6.330297 
L 419.812122 6.330297 
L 460.8 6.330297 
L 460.8 6.330297 
" style="fill:none;stroke:#f5deb3;stroke-linecap:square;stroke-width:1.5;"/>
   </g>
   <g id="line2d_25"/>
   <g id="line2d_26">
    <path clip-path="url(#p90bb62960f)" d="M 354.443201 293.76 
L 354.443201 289.927604 
L 371.435042 289.927604 
L 371.435042 286.095208 
L 371.521139 286.095208 
L 371.521139 282.262812 
L 376.457502 282.262812 
L 376.457502 278.430416 
L 379.119389 278.430416 
L 379.119389 274.59802 
L 379.766523 274.59802 
L 379.766523 270.765624 
L 381.141951 270.765624 
L 381.141951 266.933228 
L 381.332278 266.933228 
L 381.332278 263.100832 
L 381.385149 263.100832 
L 381.385149 259.268436 
L 381.840709 259.268436 
L 381.840709 255.43604 
L 381.952192 255.43604 
L 381.952192 251.603644 
L 382.554266 251.603644 
L 382.554266 247.771248 
L 382.66239 247.771248 
L 382.66239 243.938851 
L 382.726846 243.938851 
L 382.726846 240.106455 
L 382.797488 240.106455 
L 382.797488 236.274059 
L 383.224981 236.274059 
L 383.224981 232.441663 
L 383.344421 232.441663 
L 383.344421 228.609267 
L 383.451134 228.609267 
L 383.451134 224.776871 
L 384.126124 224.776871 
L 384.126124 220.944475 
L 384.827206 220.944475 
L 384.827206 217.112079 
L 385.395267 217.112079 
L 385.395267 213.279683 
L 385.404438 213.279683 
L 385.404438 209.447287 
L 385.47773 209.447287 
L 385.47773 205.614891 
L 386.476012 205.614891 
L 386.476012 201.782495 
L 386.57411 201.782495 
L 386.57411 197.950099 
L 386.629423 197.950099 
L 386.629423 194.117703 
L 386.756926 194.117703 
L 386.756926 190.285307 
L 387.924798 190.285307 
L 387.924798 186.452911 
L 388.334904 186.452911 
L 388.334904 182.620515 
L 390.282664 182.620515 
L 390.282664 178.788119 
L 390.77572 178.788119 
L 390.77572 174.955723 
L 391.82959 174.955723 
L 391.82959 171.123327 
L 394.08352 171.123327 
L 394.08352 167.290931 
L 394.178963 167.290931 
L 394.178963 163.458535 
L 400.020745 163.458535 
L 400.020745 159.626139 
L 403.761636 159.626139 
L 403.761636 155.793743 
L 412.241396 155.793743 
L 412.241396 151.961347 
L 417.558885 151.961347 
L 417.558885 148.12895 
L 419.906172 148.12895 
L 419.906172 144.296554 
L 421.473099 144.296554 
L 421.473099 140.464158 
L 421.559351 140.464158 
L 421.559351 136.631762 
L 423.034052 136.631762 
L 423.034052 132.799366 
L 423.117026 132.799366 
L 423.117026 128.96697 
L 423.385579 128.96697 
L 423.385579 125.134574 
L 425.03722 125.134574 
L 425.03722 121.302178 
L 432.772621 121.302178 
L 432.772621 117.469782 
L 433.179973 117.469782 
L 433.179973 113.637386 
L 433.772544 113.637386 
L 433.772544 109.80499 
L 441.572793 109.80499 
L 441.572793 105.972594 
L 442.377965 105.972594 
L 442.377965 102.140198 
L 443.153621 102.140198 
L 443.153621 98.307802 
L 443.792893 98.307802 
L 443.792893 94.475406 
L 456.164366 94.475406 
L 456.164366 90.64301 
L 461.8 90.64301 
" style="fill:none;stroke:#f5deb3;stroke-linecap:square;stroke-width:1.5;"/>
   </g>
   <g id="line2d_27">
    <path clip-path="url(#p90bb62960f)" d="M 323.929357 293.76 
L 323.929357 289.927604 
L 324.173 289.927604 
L 324.173 286.095208 
L 324.584728 286.095208 
L 324.584728 282.262812 
L 325.389941 282.262812 
L 325.389941 278.430416 
L 326.256317 278.430416 
L 326.256317 274.59802 
L 330.372474 274.59802 
L 330.372474 270.765624 
L 332.534473 270.765624 
L 332.534473 266.933228 
L 333.92799 266.933228 
L 333.92799 263.100832 
L 337.428416 263.100832 
L 337.428416 259.268436 
L 337.716468 259.268436 
L 337.716468 255.43604 
L 343.674495 255.43604 
L 343.674495 251.603644 
L 344.518995 251.603644 
L 344.518995 247.771248 
L 346.706872 247.771248 
L 346.706872 243.938851 
L 348.494531 243.938851 
L 348.494531 240.106455 
L 349.979362 240.106455 
L 349.979362 236.274059 
L 409.000451 236.274059 
L 409.000451 232.441663 
L 412.838141 232.441663 
L 412.838141 228.609267 
L 413.585178 228.609267 
L 413.585178 224.776871 
L 413.602409 224.776871 
L 413.602409 220.944475 
L 413.871952 220.944475 
L 413.871952 217.112079 
L 414.060078 217.112079 
L 414.060078 213.279683 
L 414.917956 213.279683 
L 414.917956 209.447287 
L 415.567688 209.447287 
L 415.567688 205.614891 
L 415.839803 205.614891 
L 415.839803 201.782495 
L 416.030602 201.782495 
L 416.030602 197.950099 
L 416.993081 197.950099 
L 416.993081 194.117703 
L 417.729405 194.117703 
L 417.729405 190.285307 
L 418.699838 190.285307 
L 418.699838 186.452911 
L 418.838782 186.452911 
L 418.838782 182.620515 
L 421.089006 182.620515 
L 421.089006 178.788119 
L 431.383167 178.788119 
L 431.383167 174.955723 
L 453.655347 174.955723 
L 453.655347 171.123327 
L 457.08506 171.123327 
L 457.08506 167.290931 
L 458.223251 167.290931 
L 458.223251 163.458535 
L 460.506338 163.458535 
L 460.506338 159.626139 
L 461.792323 159.626139 
L 461.792323 155.793743 
L 461.8 155.793743 
" style="fill:none;stroke:#f5deb3;stroke-linecap:square;stroke-width:1.5;"/>
   </g>
   <g id="line2d_28">
    <path clip-path="url(#p90bb62960f)" d="M 329.127161 293.76 
L 329.198689 286.095208 
L 329.338726 286.095208 
L 329.338726 282.262812 
L 329.672319 282.262812 
L 329.729826 274.59802 
L 330.013545 274.59802 
L 330.013545 270.765624 
L 330.171455 270.765624 
L 330.171455 266.933228 
L 330.832568 266.933228 
L 330.832568 263.100832 
L 330.954376 263.100832 
L 331.007552 255.43604 
L 331.732301 255.43604 
L 331.732301 251.603644 
L 332.118158 251.603644 
L 332.118158 247.771248 
L 332.670675 247.771248 
L 332.748298 236.274059 
L 332.910338 236.274059 
L 332.910338 232.441663 
L 333.218105 232.441663 
L 333.218105 228.609267 
L 333.779453 228.609267 
L 333.779453 224.776871 
L 334.274792 224.776871 
L 334.274792 220.944475 
L 334.440109 220.944475 
L 334.440109 217.112079 
L 335.258934 217.112079 
L 335.258934 213.279683 
L 335.576435 213.279683 
L 335.576435 209.447287 
L 336.094896 209.447287 
L 336.094896 205.614891 
L 336.452339 205.614891 
L 336.452339 201.782495 
L 337.040385 201.782495 
L 337.040385 197.950099 
L 338.328674 197.950099 
L 338.370845 190.285307 
L 338.760929 190.285307 
L 338.760929 186.452911 
L 338.904681 186.452911 
L 338.904681 182.620515 
L 339.630142 182.620515 
L 339.630142 178.788119 
L 340.620721 178.788119 
L 340.664539 171.123327 
L 341.296568 171.123327 
L 341.37879 155.793743 
L 342.379284 155.793743 
L 342.379284 151.961347 
L 342.634101 151.961347 
L 342.634101 148.12895 
L 343.035853 148.12895 
L 343.035853 144.296554 
L 343.368541 144.296554 
L 343.368541 140.464158 
L 343.816481 140.464158 
L 343.829364 132.799366 
L 344.968693 132.799366 
L 344.968693 128.96697 
L 345.524723 128.96697 
L 345.524723 125.134574 
L 346.981752 125.134574 
L 346.981752 121.302178 
L 355.152193 121.302178 
L 355.152193 117.469782 
L 355.623043 117.469782 
L 355.623043 113.637386 
L 356.690486 113.637386 
L 356.690486 109.80499 
L 357.17549 109.80499 
L 357.17549 105.972594 
L 357.378381 105.972594 
L 357.378381 102.140198 
L 358.186313 102.140198 
L 358.186313 98.307802 
L 358.471248 98.307802 
L 358.471248 94.475406 
L 358.963186 94.475406 
L 358.963186 90.64301 
L 359.670763 90.64301 
L 359.670763 86.810614 
L 359.940483 86.810614 
L 359.940483 82.978218 
L 361.181395 82.978218 
L 361.181395 79.145822 
L 363.255329 79.145822 
L 363.255329 75.313426 
L 363.409478 75.313426 
L 363.409478 71.48103 
L 367.145906 71.48103 
L 367.145906 67.648634 
L 368.121665 67.648634 
L 368.121665 63.816238 
L 372.233357 63.816238 
L 372.233357 59.983842 
L 373.611408 59.983842 
L 373.611408 56.151446 
L 379.274524 56.151446 
L 379.274524 52.31905 
L 380.194473 52.31905 
L 380.194473 48.486653 
L 381.266275 48.486653 
L 381.350393 40.821861 
L 381.427829 40.821861 
L 381.427829 36.989465 
L 381.872184 36.989465 
L 381.872184 33.157069 
L 382.022069 33.157069 
L 382.022069 29.324673 
L 383.567849 29.324673 
L 383.628819 21.659881 
L 385.755287 21.659881 
L 385.755287 17.827485 
L 386.980507 17.827485 
L 386.980507 13.995089 
L 388.378727 13.995089 
L 388.378727 10.162693 
L 389.396855 10.162693 
L 389.396855 6.330297 
L 389.396855 6.330297 
L 460.8 6.330297 
L 460.8 6.330297 
" style="fill:none;stroke:#f5deb3;stroke-linecap:square;stroke-width:1.5;"/>
   </g>
   <g id="line2d_29"/>
   <g id="line2d_30"/>
   <g id="matplotlib.axis_1">
    <g id="xtick_1">
     <g id="line2d_31">
      <path clip-path="url(#p90bb62960f)" d="M 62.208 293.76 
L 62.208 3.456 
" style="fill:none;stroke:#b0b0b0;stroke-linecap:square;stroke-width:0.8;"/>
     </g>
     <g id="line2d_32">
      <defs>
       <path d="M 0 0 
L 0 3.5 
" id="m66e02c95c9" style="stroke:#000000;stroke-width:0.8;"/>
      </defs>
      <g>
       <use style="stroke:#000000;stroke-width:0.8;" x="62.208" xlink:href="#m66e02c95c9" y="293.76"/>
      </g>
     </g>
     <g id="text_1">
      <!-- 0 -->
      <g transform="translate(55.8455 315.956875)scale(0.2 -0.2)">
       <defs>
        <path d="M 31.78125 66.40625 
Q 24.171875 66.40625 20.328125 58.90625 
Q 16.5 51.421875 16.5 36.375 
Q 16.5 21.390625 20.328125 13.890625 
Q 24.171875 6.390625 31.78125 6.390625 
Q 39.453125 6.390625 43.28125 13.890625 
Q 47.125 21.390625 47.125 36.375 
Q 47.125 51.421875 43.28125 58.90625 
Q 39.453125 66.40625 31.78125 66.40625 
z
M 31.78125 74.21875 
Q 44.046875 74.21875 50.515625 64.515625 
Q 56.984375 54.828125 56.984375 36.375 
Q 56.984375 17.96875 50.515625 8.265625 
Q 44.046875 -1.421875 31.78125 -1.421875 
Q 19.53125 -1.421875 13.0625 8.265625 
Q 6.59375 17.96875 6.59375 36.375 
Q 6.59375 54.828125 13.0625 64.515625 
Q 19.53125 74.21875 31.78125 74.21875 
z
" id="DejaVuSans-48"/>
       </defs>
       <use xlink:href="#DejaVuSans-48"/>
      </g>
     </g>
    </g>
    <g id="xtick_2">
     <g id="line2d_33">
      <path clip-path="url(#p90bb62960f)" d="M 247.55481 293.76 
L 247.55481 3.456 
" style="fill:none;stroke:#b0b0b0;stroke-linecap:square;stroke-width:0.8;"/>
     </g>
     <g id="line2d_34">
      <g>
       <use style="stroke:#000000;stroke-width:0.8;" x="247.55481" xlink:href="#m66e02c95c9" y="293.76"/>
      </g>
     </g>
     <g id="text_2">
      <!-- 2 -->
      <g transform="translate(241.19231 315.956875)scale(0.2 -0.2)">
       <defs>
        <path d="M 19.1875 8.296875 
L 53.609375 8.296875 
L 53.609375 0 
L 7.328125 0 
L 7.328125 8.296875 
Q 12.9375 14.109375 22.625 23.890625 
Q 32.328125 33.6875 34.8125 36.53125 
Q 39.546875 41.84375 41.421875 45.53125 
Q 43.3125 49.21875 43.3125 52.78125 
Q 43.3125 58.59375 39.234375 62.25 
Q 35.15625 65.921875 28.609375 65.921875 
Q 23.96875 65.921875 18.8125 64.3125 
Q 13.671875 62.703125 7.8125 59.421875 
L 7.8125 69.390625 
Q 13.765625 71.78125 18.9375 73 
Q 24.125 74.21875 28.421875 74.21875 
Q 39.75 74.21875 46.484375 68.546875 
Q 53.21875 62.890625 53.21875 53.421875 
Q 53.21875 48.921875 51.53125 44.890625 
Q 49.859375 40.875 45.40625 35.40625 
Q 44.1875 33.984375 37.640625 27.21875 
Q 31.109375 20.453125 19.1875 8.296875 
z
" id="DejaVuSans-50"/>
       </defs>
       <use xlink:href="#DejaVuSans-50"/>
      </g>
     </g>
    </g>
    <g id="xtick_3">
     <g id="line2d_35">
      <path clip-path="url(#p90bb62960f)" d="M 432.90162 293.76 
L 432.90162 3.456 
" style="fill:none;stroke:#b0b0b0;stroke-linecap:square;stroke-width:0.8;"/>
     </g>
     <g id="line2d_36">
      <g>
       <use style="stroke:#000000;stroke-width:0.8;" x="432.90162" xlink:href="#m66e02c95c9" y="293.76"/>
      </g>
     </g>
     <g id="text_3">
      <!-- 4 -->
      <g transform="translate(426.53912 315.956875)scale(0.2 -0.2)">
       <defs>
        <path d="M 37.796875 64.3125 
L 12.890625 25.390625 
L 37.796875 25.390625 
z
M 35.203125 72.90625 
L 47.609375 72.90625 
L 47.609375 25.390625 
L 58.015625 25.390625 
L 58.015625 17.1875 
L 47.609375 17.1875 
L 47.609375 0 
L 37.796875 0 
L 37.796875 17.1875 
L 4.890625 17.1875 
L 4.890625 26.703125 
z
" id="DejaVuSans-52"/>
       </defs>
       <use xlink:href="#DejaVuSans-52"/>
      </g>
     </g>
    </g>
    <g id="xtick_4">
     <g id="line2d_37">
      <path clip-path="url(#p90bb62960f)" d="M 90.105475 293.76 
L 90.105475 3.456 
" style="fill:none;stroke:#b0b0b0;stroke-linecap:square;stroke-width:0.8;"/>
     </g>
     <g id="line2d_38">
      <defs>
       <path d="M 0 0 
L 0 2 
" id="m1b2b0d6511" style="stroke:#000000;stroke-width:0.6;"/>
      </defs>
      <g>
       <use style="stroke:#000000;stroke-width:0.6;" x="90.105475" xlink:href="#m1b2b0d6511" y="293.76"/>
      </g>
     </g>
    </g>
    <g id="xtick_5">
     <g id="line2d_39">
      <path clip-path="url(#p90bb62960f)" d="M 106.424451 293.76 
L 106.424451 3.456 
" style="fill:none;stroke:#b0b0b0;stroke-linecap:square;stroke-width:0.8;"/>
     </g>
     <g id="line2d_40">
      <g>
       <use style="stroke:#000000;stroke-width:0.6;" x="106.424451" xlink:href="#m1b2b0d6511" y="293.76"/>
      </g>
     </g>
    </g>
    <g id="xtick_6">
     <g id="line2d_41">
      <path clip-path="url(#p90bb62960f)" d="M 118.002949 293.76 
L 118.002949 3.456 
" style="fill:none;stroke:#b0b0b0;stroke-linecap:square;stroke-width:0.8;"/>
     </g>
     <g id="line2d_42">
      <g>
       <use style="stroke:#000000;stroke-width:0.6;" x="118.002949" xlink:href="#m1b2b0d6511" y="293.76"/>
      </g>
     </g>
    </g>
    <g id="xtick_7">
     <g id="line2d_43">
      <path clip-path="url(#p90bb62960f)" d="M 126.98393 293.76 
L 126.98393 3.456 
" style="fill:none;stroke:#b0b0b0;stroke-linecap:square;stroke-width:0.8;"/>
     </g>
     <g id="line2d_44">
      <g>
       <use style="stroke:#000000;stroke-width:0.6;" x="126.98393" xlink:href="#m1b2b0d6511" y="293.76"/>
      </g>
     </g>
    </g>
    <g id="xtick_8">
     <g id="line2d_45">
      <path clip-path="url(#p90bb62960f)" d="M 134.321926 293.76 
L 134.321926 3.456 
" style="fill:none;stroke:#b0b0b0;stroke-linecap:square;stroke-width:0.8;"/>
     </g>
     <g id="line2d_46">
      <g>
       <use style="stroke:#000000;stroke-width:0.6;" x="134.321926" xlink:href="#m1b2b0d6511" y="293.76"/>
      </g>
     </g>
    </g>
    <g id="xtick_9">
     <g id="line2d_47">
      <path clip-path="url(#p90bb62960f)" d="M 140.526113 293.76 
L 140.526113 3.456 
" style="fill:none;stroke:#b0b0b0;stroke-linecap:square;stroke-width:0.8;"/>
     </g>
     <g id="line2d_48">
      <g>
       <use style="stroke:#000000;stroke-width:0.6;" x="140.526113" xlink:href="#m1b2b0d6511" y="293.76"/>
      </g>
     </g>
    </g>
    <g id="xtick_10">
     <g id="line2d_49">
      <path clip-path="url(#p90bb62960f)" d="M 145.900424 293.76 
L 145.900424 3.456 
" style="fill:none;stroke:#b0b0b0;stroke-linecap:square;stroke-width:0.8;"/>
     </g>
     <g id="line2d_50">
      <g>
       <use style="stroke:#000000;stroke-width:0.6;" x="145.900424" xlink:href="#m1b2b0d6511" y="293.76"/>
      </g>
     </g>
    </g>
    <g id="xtick_11">
     <g id="line2d_51">
      <path clip-path="url(#p90bb62960f)" d="M 150.640902 293.76 
L 150.640902 3.456 
" style="fill:none;stroke:#b0b0b0;stroke-linecap:square;stroke-width:0.8;"/>
     </g>
     <g id="line2d_52">
      <g>
       <use style="stroke:#000000;stroke-width:0.6;" x="150.640902" xlink:href="#m1b2b0d6511" y="293.76"/>
      </g>
     </g>
    </g>
    <g id="xtick_12">
     <g id="line2d_53">
      <path clip-path="url(#p90bb62960f)" d="M 182.77888 293.76 
L 182.77888 3.456 
" style="fill:none;stroke:#b0b0b0;stroke-linecap:square;stroke-width:0.8;"/>
     </g>
     <g id="line2d_54">
      <g>
       <use style="stroke:#000000;stroke-width:0.6;" x="182.77888" xlink:href="#m1b2b0d6511" y="293.76"/>
      </g>
     </g>
    </g>
    <g id="xtick_13">
     <g id="line2d_55">
      <path clip-path="url(#p90bb62960f)" d="M 199.097856 293.76 
L 199.097856 3.456 
" style="fill:none;stroke:#b0b0b0;stroke-linecap:square;stroke-width:0.8;"/>
     </g>
     <g id="line2d_56">
      <g>
       <use style="stroke:#000000;stroke-width:0.6;" x="199.097856" xlink:href="#m1b2b0d6511" y="293.76"/>
      </g>
     </g>
    </g>
    <g id="xtick_14">
     <g id="line2d_57">
      <path clip-path="url(#p90bb62960f)" d="M 210.676354 293.76 
L 210.676354 3.456 
" style="fill:none;stroke:#b0b0b0;stroke-linecap:square;stroke-width:0.8;"/>
     </g>
     <g id="line2d_58">
      <g>
       <use style="stroke:#000000;stroke-width:0.6;" x="210.676354" xlink:href="#m1b2b0d6511" y="293.76"/>
      </g>
     </g>
    </g>
    <g id="xtick_15">
     <g id="line2d_59">
      <path clip-path="url(#p90bb62960f)" d="M 219.657335 293.76 
L 219.657335 3.456 
" style="fill:none;stroke:#b0b0b0;stroke-linecap:square;stroke-width:0.8;"/>
     </g>
     <g id="line2d_60">
      <g>
       <use style="stroke:#000000;stroke-width:0.6;" x="219.657335" xlink:href="#m1b2b0d6511" y="293.76"/>
      </g>
     </g>
    </g>
    <g id="xtick_16">
     <g id="line2d_61">
      <path clip-path="url(#p90bb62960f)" d="M 226.995331 293.76 
L 226.995331 3.456 
" style="fill:none;stroke:#b0b0b0;stroke-linecap:square;stroke-width:0.8;"/>
     </g>
     <g id="line2d_62">
      <g>
       <use style="stroke:#000000;stroke-width:0.6;" x="226.995331" xlink:href="#m1b2b0d6511" y="293.76"/>
      </g>
     </g>
    </g>
    <g id="xtick_17">
     <g id="line2d_63">
      <path clip-path="url(#p90bb62960f)" d="M 233.199518 293.76 
L 233.199518 3.456 
" style="fill:none;stroke:#b0b0b0;stroke-linecap:square;stroke-width:0.8;"/>
     </g>
     <g id="line2d_64">
      <g>
       <use style="stroke:#000000;stroke-width:0.6;" x="233.199518" xlink:href="#m1b2b0d6511" y="293.76"/>
      </g>
     </g>
    </g>
    <g id="xtick_18">
     <g id="line2d_65">
      <path clip-path="url(#p90bb62960f)" d="M 238.573829 293.76 
L 238.573829 3.456 
" style="fill:none;stroke:#b0b0b0;stroke-linecap:square;stroke-width:0.8;"/>
     </g>
     <g id="line2d_66">
      <g>
       <use style="stroke:#000000;stroke-width:0.6;" x="238.573829" xlink:href="#m1b2b0d6511" y="293.76"/>
      </g>
     </g>
    </g>
    <g id="xtick_19">
     <g id="line2d_67">
      <path clip-path="url(#p90bb62960f)" d="M 243.314307 293.76 
L 243.314307 3.456 
" style="fill:none;stroke:#b0b0b0;stroke-linecap:square;stroke-width:0.8;"/>
     </g>
     <g id="line2d_68">
      <g>
       <use style="stroke:#000000;stroke-width:0.6;" x="243.314307" xlink:href="#m1b2b0d6511" y="293.76"/>
      </g>
     </g>
    </g>
    <g id="xtick_20">
     <g id="line2d_69">
      <path clip-path="url(#p90bb62960f)" d="M 275.452285 293.76 
L 275.452285 3.456 
" style="fill:none;stroke:#b0b0b0;stroke-linecap:square;stroke-width:0.8;"/>
     </g>
     <g id="line2d_70">
      <g>
       <use style="stroke:#000000;stroke-width:0.6;" x="275.452285" xlink:href="#m1b2b0d6511" y="293.76"/>
      </g>
     </g>
    </g>
    <g id="xtick_21">
     <g id="line2d_71">
      <path clip-path="url(#p90bb62960f)" d="M 291.771261 293.76 
L 291.771261 3.456 
" style="fill:none;stroke:#b0b0b0;stroke-linecap:square;stroke-width:0.8;"/>
     </g>
     <g id="line2d_72">
      <g>
       <use style="stroke:#000000;stroke-width:0.6;" x="291.771261" xlink:href="#m1b2b0d6511" y="293.76"/>
      </g>
     </g>
    </g>
    <g id="xtick_22">
     <g id="line2d_73">
      <path clip-path="url(#p90bb62960f)" d="M 303.349759 293.76 
L 303.349759 3.456 
" style="fill:none;stroke:#b0b0b0;stroke-linecap:square;stroke-width:0.8;"/>
     </g>
     <g id="line2d_74">
      <g>
       <use style="stroke:#000000;stroke-width:0.6;" x="303.349759" xlink:href="#m1b2b0d6511" y="293.76"/>
      </g>
     </g>
    </g>
    <g id="xtick_23">
     <g id="line2d_75">
      <path clip-path="url(#p90bb62960f)" d="M 312.33074 293.76 
L 312.33074 3.456 
" style="fill:none;stroke:#b0b0b0;stroke-linecap:square;stroke-width:0.8;"/>
     </g>
     <g id="line2d_76">
      <g>
       <use style="stroke:#000000;stroke-width:0.6;" x="312.33074" xlink:href="#m1b2b0d6511" y="293.76"/>
      </g>
     </g>
    </g>
    <g id="xtick_24">
     <g id="line2d_77">
      <path clip-path="url(#p90bb62960f)" d="M 319.668736 293.76 
L 319.668736 3.456 
" style="fill:none;stroke:#b0b0b0;stroke-linecap:square;stroke-width:0.8;"/>
     </g>
     <g id="line2d_78">
      <g>
       <use style="stroke:#000000;stroke-width:0.6;" x="319.668736" xlink:href="#m1b2b0d6511" y="293.76"/>
      </g>
     </g>
    </g>
    <g id="xtick_25">
     <g id="line2d_79">
      <path clip-path="url(#p90bb62960f)" d="M 325.872923 293.76 
L 325.872923 3.456 
" style="fill:none;stroke:#b0b0b0;stroke-linecap:square;stroke-width:0.8;"/>
     </g>
     <g id="line2d_80">
      <g>
       <use style="stroke:#000000;stroke-width:0.6;" x="325.872923" xlink:href="#m1b2b0d6511" y="293.76"/>
      </g>
     </g>
    </g>
    <g id="xtick_26">
     <g id="line2d_81">
      <path clip-path="url(#p90bb62960f)" d="M 331.247234 293.76 
L 331.247234 3.456 
" style="fill:none;stroke:#b0b0b0;stroke-linecap:square;stroke-width:0.8;"/>
     </g>
     <g id="line2d_82">
      <g>
       <use style="stroke:#000000;stroke-width:0.6;" x="331.247234" xlink:href="#m1b2b0d6511" y="293.76"/>
      </g>
     </g>
    </g>
    <g id="xtick_27">
     <g id="line2d_83">
      <path clip-path="url(#p90bb62960f)" d="M 335.987712 293.76 
L 335.987712 3.456 
" style="fill:none;stroke:#b0b0b0;stroke-linecap:square;stroke-width:0.8;"/>
     </g>
     <g id="line2d_84">
      <g>
       <use style="stroke:#000000;stroke-width:0.6;" x="335.987712" xlink:href="#m1b2b0d6511" y="293.76"/>
      </g>
     </g>
    </g>
    <g id="xtick_28">
     <g id="line2d_85">
      <path clip-path="url(#p90bb62960f)" d="M 368.12569 293.76 
L 368.12569 3.456 
" style="fill:none;stroke:#b0b0b0;stroke-linecap:square;stroke-width:0.8;"/>
     </g>
     <g id="line2d_86">
      <g>
       <use style="stroke:#000000;stroke-width:0.6;" x="368.12569" xlink:href="#m1b2b0d6511" y="293.76"/>
      </g>
     </g>
    </g>
    <g id="xtick_29">
     <g id="line2d_87">
      <path clip-path="url(#p90bb62960f)" d="M 384.444666 293.76 
L 384.444666 3.456 
" style="fill:none;stroke:#b0b0b0;stroke-linecap:square;stroke-width:0.8;"/>
     </g>
     <g id="line2d_88">
      <g>
       <use style="stroke:#000000;stroke-width:0.6;" x="384.444666" xlink:href="#m1b2b0d6511" y="293.76"/>
      </g>
     </g>
    </g>
    <g id="xtick_30">
     <g id="line2d_89">
      <path clip-path="url(#p90bb62960f)" d="M 396.023164 293.76 
L 396.023164 3.456 
" style="fill:none;stroke:#b0b0b0;stroke-linecap:square;stroke-width:0.8;"/>
     </g>
     <g id="line2d_90">
      <g>
       <use style="stroke:#000000;stroke-width:0.6;" x="396.023164" xlink:href="#m1b2b0d6511" y="293.76"/>
      </g>
     </g>
    </g>
    <g id="xtick_31">
     <g id="line2d_91">
      <path clip-path="url(#p90bb62960f)" d="M 405.004145 293.76 
L 405.004145 3.456 
" style="fill:none;stroke:#b0b0b0;stroke-linecap:square;stroke-width:0.8;"/>
     </g>
     <g id="line2d_92">
      <g>
       <use style="stroke:#000000;stroke-width:0.6;" x="405.004145" xlink:href="#m1b2b0d6511" y="293.76"/>
      </g>
     </g>
    </g>
    <g id="xtick_32">
     <g id="line2d_93">
      <path clip-path="url(#p90bb62960f)" d="M 412.342141 293.76 
L 412.342141 3.456 
" style="fill:none;stroke:#b0b0b0;stroke-linecap:square;stroke-width:0.8;"/>
     </g>
     <g id="line2d_94">
      <g>
       <use style="stroke:#000000;stroke-width:0.6;" x="412.342141" xlink:href="#m1b2b0d6511" y="293.76"/>
      </g>
     </g>
    </g>
    <g id="xtick_33">
     <g id="line2d_95">
      <path clip-path="url(#p90bb62960f)" d="M 418.546328 293.76 
L 418.546328 3.456 
" style="fill:none;stroke:#b0b0b0;stroke-linecap:square;stroke-width:0.8;"/>
     </g>
     <g id="line2d_96">
      <g>
       <use style="stroke:#000000;stroke-width:0.6;" x="418.546328" xlink:href="#m1b2b0d6511" y="293.76"/>
      </g>
     </g>
    </g>
    <g id="xtick_34">
     <g id="line2d_97">
      <path clip-path="url(#p90bb62960f)" d="M 423.920639 293.76 
L 423.920639 3.456 
" style="fill:none;stroke:#b0b0b0;stroke-linecap:square;stroke-width:0.8;"/>
     </g>
     <g id="line2d_98">
      <g>
       <use style="stroke:#000000;stroke-width:0.6;" x="423.920639" xlink:href="#m1b2b0d6511" y="293.76"/>
      </g>
     </g>
    </g>
    <g id="xtick_35">
     <g id="line2d_99">
      <path clip-path="url(#p90bb62960f)" d="M 428.661117 293.76 
L 428.661117 3.456 
" style="fill:none;stroke:#b0b0b0;stroke-linecap:square;stroke-width:0.8;"/>
     </g>
     <g id="line2d_100">
      <g>
       <use style="stroke:#000000;stroke-width:0.6;" x="428.661117" xlink:href="#m1b2b0d6511" y="293.76"/>
      </g>
     </g>
    </g>
    <g id="xtick_36">
     <g id="line2d_101">
      <path clip-path="url(#p90bb62960f)" d="M 460.799094 293.76 
L 460.799094 3.456 
" style="fill:none;stroke:#b0b0b0;stroke-linecap:square;stroke-width:0.8;"/>
     </g>
     <g id="line2d_102">
      <g>
       <use style="stroke:#000000;stroke-width:0.6;" x="460.799094" xlink:href="#m1b2b0d6511" y="293.76"/>
      </g>
     </g>
    </g>
    <g id="text_4">
     <!-- log10 of FEvals / DIM -->
     <g transform="translate(156.430563 339.313125)scale(0.2 -0.2)">
      <defs>
       <path d="M 9.421875 75.984375 
L 18.40625 75.984375 
L 18.40625 0 
L 9.421875 0 
z
" id="DejaVuSans-108"/>
       <path d="M 30.609375 48.390625 
Q 23.390625 48.390625 19.1875 42.75 
Q 14.984375 37.109375 14.984375 27.296875 
Q 14.984375 17.484375 19.15625 11.84375 
Q 23.34375 6.203125 30.609375 6.203125 
Q 37.796875 6.203125 41.984375 11.859375 
Q 46.1875 17.53125 46.1875 27.296875 
Q 46.1875 37.015625 41.984375 42.703125 
Q 37.796875 48.390625 30.609375 48.390625 
z
M 30.609375 56 
Q 42.328125 56 49.015625 48.375 
Q 55.71875 40.765625 55.71875 27.296875 
Q 55.71875 13.875 49.015625 6.21875 
Q 42.328125 -1.421875 30.609375 -1.421875 
Q 18.84375 -1.421875 12.171875 6.21875 
Q 5.515625 13.875 5.515625 27.296875 
Q 5.515625 40.765625 12.171875 48.375 
Q 18.84375 56 30.609375 56 
z
" id="DejaVuSans-111"/>
       <path d="M 45.40625 27.984375 
Q 45.40625 37.75 41.375 43.109375 
Q 37.359375 48.484375 30.078125 48.484375 
Q 22.859375 48.484375 18.828125 43.109375 
Q 14.796875 37.75 14.796875 27.984375 
Q 14.796875 18.265625 18.828125 12.890625 
Q 22.859375 7.515625 30.078125 7.515625 
Q 37.359375 7.515625 41.375 12.890625 
Q 45.40625 18.265625 45.40625 27.984375 
z
M 54.390625 6.78125 
Q 54.390625 -7.171875 48.1875 -13.984375 
Q 42 -20.796875 29.203125 -20.796875 
Q 24.46875 -20.796875 20.265625 -20.09375 
Q 16.0625 -19.390625 12.109375 -17.921875 
L 12.109375 -9.1875 
Q 16.0625 -11.328125 19.921875 -12.34375 
Q 23.78125 -13.375 27.78125 -13.375 
Q 36.625 -13.375 41.015625 -8.765625 
Q 45.40625 -4.15625 45.40625 5.171875 
L 45.40625 9.625 
Q 42.625 4.78125 38.28125 2.390625 
Q 33.9375 0 27.875 0 
Q 17.828125 0 11.671875 7.65625 
Q 5.515625 15.328125 5.515625 27.984375 
Q 5.515625 40.671875 11.671875 48.328125 
Q 17.828125 56 27.875 56 
Q 33.9375 56 38.28125 53.609375 
Q 42.625 51.21875 45.40625 46.390625 
L 45.40625 54.6875 
L 54.390625 54.6875 
z
" id="DejaVuSans-103"/>
       <path d="M 12.40625 8.296875 
L 28.515625 8.296875 
L 28.515625 63.921875 
L 10.984375 60.40625 
L 10.984375 69.390625 
L 28.421875 72.90625 
L 38.28125 72.90625 
L 38.28125 8.296875 
L 54.390625 8.296875 
L 54.390625 0 
L 12.40625 0 
z
" id="DejaVuSans-49"/>
       <path id="DejaVuSans-32"/>
       <path d="M 37.109375 75.984375 
L 37.109375 68.5 
L 28.515625 68.5 
Q 23.6875 68.5 21.796875 66.546875 
Q 19.921875 64.59375 19.921875 59.515625 
L 19.921875 54.6875 
L 34.71875 54.6875 
L 34.71875 47.703125 
L 19.921875 47.703125 
L 19.921875 0 
L 10.890625 0 
L 10.890625 47.703125 
L 2.296875 47.703125 
L 2.296875 54.6875 
L 10.890625 54.6875 
L 10.890625 58.5 
Q 10.890625 67.625 15.140625 71.796875 
Q 19.390625 75.984375 28.609375 75.984375 
z
" id="DejaVuSans-102"/>
       <path d="M 9.8125 72.90625 
L 51.703125 72.90625 
L 51.703125 64.59375 
L 19.671875 64.59375 
L 19.671875 43.109375 
L 48.578125 43.109375 
L 48.578125 34.8125 
L 19.671875 34.8125 
L 19.671875 0 
L 9.8125 0 
z
" id="DejaVuSans-70"/>
       <path d="M 9.8125 72.90625 
L 55.90625 72.90625 
L 55.90625 64.59375 
L 19.671875 64.59375 
L 19.671875 43.015625 
L 54.390625 43.015625 
L 54.390625 34.71875 
L 19.671875 34.71875 
L 19.671875 8.296875 
L 56.78125 8.296875 
L 56.78125 0 
L 9.8125 0 
z
" id="DejaVuSans-69"/>
       <path d="M 2.984375 54.6875 
L 12.5 54.6875 
L 29.59375 8.796875 
L 46.6875 54.6875 
L 56.203125 54.6875 
L 35.6875 0 
L 23.484375 0 
z
" id="DejaVuSans-118"/>
       <path d="M 34.28125 27.484375 
Q 23.390625 27.484375 19.1875 25 
Q 14.984375 22.515625 14.984375 16.5 
Q 14.984375 11.71875 18.140625 8.90625 
Q 21.296875 6.109375 26.703125 6.109375 
Q 34.1875 6.109375 38.703125 11.40625 
Q 43.21875 16.703125 43.21875 25.484375 
L 43.21875 27.484375 
z
M 52.203125 31.203125 
L 52.203125 0 
L 43.21875 0 
L 43.21875 8.296875 
Q 40.140625 3.328125 35.546875 0.953125 
Q 30.953125 -1.421875 24.3125 -1.421875 
Q 15.921875 -1.421875 10.953125 3.296875 
Q 6 8.015625 6 15.921875 
Q 6 25.140625 12.171875 29.828125 
Q 18.359375 34.515625 30.609375 34.515625 
L 43.21875 34.515625 
L 43.21875 35.40625 
Q 43.21875 41.609375 39.140625 45 
Q 35.0625 48.390625 27.6875 48.390625 
Q 23 48.390625 18.546875 47.265625 
Q 14.109375 46.140625 10.015625 43.890625 
L 10.015625 52.203125 
Q 14.9375 54.109375 19.578125 55.046875 
Q 24.21875 56 28.609375 56 
Q 40.484375 56 46.34375 49.84375 
Q 52.203125 43.703125 52.203125 31.203125 
z
" id="DejaVuSans-97"/>
       <path d="M 44.28125 53.078125 
L 44.28125 44.578125 
Q 40.484375 46.53125 36.375 47.5 
Q 32.28125 48.484375 27.875 48.484375 
Q 21.1875 48.484375 17.84375 46.4375 
Q 14.5 44.390625 14.5 40.28125 
Q 14.5 37.15625 16.890625 35.375 
Q 19.28125 33.59375 26.515625 31.984375 
L 29.59375 31.296875 
Q 39.15625 29.25 43.1875 25.515625 
Q 47.21875 21.78125 47.21875 15.09375 
Q 47.21875 7.46875 41.1875 3.015625 
Q 35.15625 -1.421875 24.609375 -1.421875 
Q 20.21875 -1.421875 15.453125 -0.5625 
Q 10.6875 0.296875 5.421875 2 
L 5.421875 11.28125 
Q 10.40625 8.6875 15.234375 7.390625 
Q 20.0625 6.109375 24.8125 6.109375 
Q 31.15625 6.109375 34.5625 8.28125 
Q 37.984375 10.453125 37.984375 14.40625 
Q 37.984375 18.0625 35.515625 20.015625 
Q 33.0625 21.96875 24.703125 23.78125 
L 21.578125 24.515625 
Q 13.234375 26.265625 9.515625 29.90625 
Q 5.8125 33.546875 5.8125 39.890625 
Q 5.8125 47.609375 11.28125 51.796875 
Q 16.75 56 26.8125 56 
Q 31.78125 56 36.171875 55.265625 
Q 40.578125 54.546875 44.28125 53.078125 
z
" id="DejaVuSans-115"/>
       <path d="M 25.390625 72.90625 
L 33.6875 72.90625 
L 8.296875 -9.28125 
L 0 -9.28125 
z
" id="DejaVuSans-47"/>
       <path d="M 19.671875 64.796875 
L 19.671875 8.109375 
L 31.59375 8.109375 
Q 46.6875 8.109375 53.6875 14.9375 
Q 60.6875 21.78125 60.6875 36.53125 
Q 60.6875 51.171875 53.6875 57.984375 
Q 46.6875 64.796875 31.59375 64.796875 
z
M 9.8125 72.90625 
L 30.078125 72.90625 
Q 51.265625 72.90625 61.171875 64.09375 
Q 71.09375 55.28125 71.09375 36.53125 
Q 71.09375 17.671875 61.125 8.828125 
Q 51.171875 0 30.078125 0 
L 9.8125 0 
z
" id="DejaVuSans-68"/>
       <path d="M 9.8125 72.90625 
L 19.671875 72.90625 
L 19.671875 0 
L 9.8125 0 
z
" id="DejaVuSans-73"/>
       <path d="M 9.8125 72.90625 
L 24.515625 72.90625 
L 43.109375 23.296875 
L 61.8125 72.90625 
L 76.515625 72.90625 
L 76.515625 0 
L 66.890625 0 
L 66.890625 64.015625 
L 48.09375 14.015625 
L 38.1875 14.015625 
L 19.390625 64.015625 
L 19.390625 0 
L 9.8125 0 
z
" id="DejaVuSans-77"/>
      </defs>
      <use xlink:href="#DejaVuSans-108"/>
      <use x="27.783203" xlink:href="#DejaVuSans-111"/>
      <use x="88.964844" xlink:href="#DejaVuSans-103"/>
      <use x="152.441406" xlink:href="#DejaVuSans-49"/>
      <use x="216.064453" xlink:href="#DejaVuSans-48"/>
      <use x="279.6875" xlink:href="#DejaVuSans-32"/>
      <use x="311.474609" xlink:href="#DejaVuSans-111"/>
      <use x="372.65625" xlink:href="#DejaVuSans-102"/>
      <use x="407.861328" xlink:href="#DejaVuSans-32"/>
      <use x="439.648438" xlink:href="#DejaVuSans-70"/>
      <use x="497.167969" xlink:href="#DejaVuSans-69"/>
      <use x="560.351562" xlink:href="#DejaVuSans-118"/>
      <use x="619.53125" xlink:href="#DejaVuSans-97"/>
      <use x="680.810547" xlink:href="#DejaVuSans-108"/>
      <use x="708.59375" xlink:href="#DejaVuSans-115"/>
      <use x="760.693359" xlink:href="#DejaVuSans-32"/>
      <use x="792.480469" xlink:href="#DejaVuSans-47"/>
      <use x="826.171875" xlink:href="#DejaVuSans-32"/>
      <use x="857.958984" xlink:href="#DejaVuSans-68"/>
      <use x="934.960938" xlink:href="#DejaVuSans-73"/>
      <use x="964.453125" xlink:href="#DejaVuSans-77"/>
     </g>
    </g>
   </g>
   <g id="matplotlib.axis_2">
    <g id="ytick_1">
     <g id="line2d_103">
      <path clip-path="url(#p90bb62960f)" d="M 62.208 293.76 
L 460.8 293.76 
" style="fill:none;stroke:#b0b0b0;stroke-linecap:square;stroke-width:0.8;"/>
     </g>
     <g id="line2d_104">
      <defs>
       <path d="M 0 0 
L -3.5 0 
" id="m9aa9f3328f" style="stroke:#000000;stroke-width:0.8;"/>
      </defs>
      <g>
       <use style="stroke:#000000;stroke-width:0.8;" x="62.208" xlink:href="#m9aa9f3328f" y="293.76"/>
      </g>
     </g>
     <g id="text_5">
      <!-- 0.0 -->
      <g transform="translate(29.763 299.83875)scale(0.16 -0.16)">
       <defs>
        <path d="M 10.6875 12.40625 
L 21 12.40625 
L 21 0 
L 10.6875 0 
z
" id="DejaVuSans-46"/>
       </defs>
       <use xlink:href="#DejaVuSans-48"/>
       <use x="63.623047" xlink:href="#DejaVuSans-46"/>
       <use x="95.410156" xlink:href="#DejaVuSans-48"/>
      </g>
     </g>
    </g>
    <g id="ytick_2">
     <g id="line2d_105">
      <path clip-path="url(#p90bb62960f)" d="M 62.208 236.274059 
L 460.8 236.274059 
" style="fill:none;stroke:#b0b0b0;stroke-linecap:square;stroke-width:0.8;"/>
     </g>
     <g id="line2d_106">
      <g>
       <use style="stroke:#000000;stroke-width:0.8;" x="62.208" xlink:href="#m9aa9f3328f" y="236.274059"/>
      </g>
     </g>
     <g id="text_6">
      <!-- 0.2 -->
      <g transform="translate(29.763 242.352809)scale(0.16 -0.16)">
       <use xlink:href="#DejaVuSans-48"/>
       <use x="63.623047" xlink:href="#DejaVuSans-46"/>
       <use x="95.410156" xlink:href="#DejaVuSans-50"/>
      </g>
     </g>
    </g>
    <g id="ytick_3">
     <g id="line2d_107">
      <path clip-path="url(#p90bb62960f)" d="M 62.208 178.788119 
L 460.8 178.788119 
" style="fill:none;stroke:#b0b0b0;stroke-linecap:square;stroke-width:0.8;"/>
     </g>
     <g id="line2d_108">
      <g>
       <use style="stroke:#000000;stroke-width:0.8;" x="62.208" xlink:href="#m9aa9f3328f" y="178.788119"/>
      </g>
     </g>
     <g id="text_7">
      <!-- 0.4 -->
      <g transform="translate(29.763 184.866869)scale(0.16 -0.16)">
       <use xlink:href="#DejaVuSans-48"/>
       <use x="63.623047" xlink:href="#DejaVuSans-46"/>
       <use x="95.410156" xlink:href="#DejaVuSans-52"/>
      </g>
     </g>
    </g>
    <g id="ytick_4">
     <g id="line2d_109">
      <path clip-path="url(#p90bb62960f)" d="M 62.208 121.302178 
L 460.8 121.302178 
" style="fill:none;stroke:#b0b0b0;stroke-linecap:square;stroke-width:0.8;"/>
     </g>
     <g id="line2d_110">
      <g>
       <use style="stroke:#000000;stroke-width:0.8;" x="62.208" xlink:href="#m9aa9f3328f" y="121.302178"/>
      </g>
     </g>
     <g id="text_8">
      <!-- 0.6 -->
      <g transform="translate(29.763 127.380928)scale(0.16 -0.16)">
       <defs>
        <path d="M 33.015625 40.375 
Q 26.375 40.375 22.484375 35.828125 
Q 18.609375 31.296875 18.609375 23.390625 
Q 18.609375 15.53125 22.484375 10.953125 
Q 26.375 6.390625 33.015625 6.390625 
Q 39.65625 6.390625 43.53125 10.953125 
Q 47.40625 15.53125 47.40625 23.390625 
Q 47.40625 31.296875 43.53125 35.828125 
Q 39.65625 40.375 33.015625 40.375 
z
M 52.59375 71.296875 
L 52.59375 62.3125 
Q 48.875 64.0625 45.09375 64.984375 
Q 41.3125 65.921875 37.59375 65.921875 
Q 27.828125 65.921875 22.671875 59.328125 
Q 17.53125 52.734375 16.796875 39.40625 
Q 19.671875 43.65625 24.015625 45.921875 
Q 28.375 48.1875 33.59375 48.1875 
Q 44.578125 48.1875 50.953125 41.515625 
Q 57.328125 34.859375 57.328125 23.390625 
Q 57.328125 12.15625 50.6875 5.359375 
Q 44.046875 -1.421875 33.015625 -1.421875 
Q 20.359375 -1.421875 13.671875 8.265625 
Q 6.984375 17.96875 6.984375 36.375 
Q 6.984375 53.65625 15.1875 63.9375 
Q 23.390625 74.21875 37.203125 74.21875 
Q 40.921875 74.21875 44.703125 73.484375 
Q 48.484375 72.75 52.59375 71.296875 
z
" id="DejaVuSans-54"/>
       </defs>
       <use xlink:href="#DejaVuSans-48"/>
       <use x="63.623047" xlink:href="#DejaVuSans-46"/>
       <use x="95.410156" xlink:href="#DejaVuSans-54"/>
      </g>
     </g>
    </g>
    <g id="ytick_5">
     <g id="line2d_111">
      <path clip-path="url(#p90bb62960f)" d="M 62.208 63.816238 
L 460.8 63.816238 
" style="fill:none;stroke:#b0b0b0;stroke-linecap:square;stroke-width:0.8;"/>
     </g>
     <g id="line2d_112">
      <g>
       <use style="stroke:#000000;stroke-width:0.8;" x="62.208" xlink:href="#m9aa9f3328f" y="63.816238"/>
      </g>
     </g>
     <g id="text_9">
      <!-- 0.8 -->
      <g transform="translate(29.763 69.894988)scale(0.16 -0.16)">
       <defs>
        <path d="M 31.78125 34.625 
Q 24.75 34.625 20.71875 30.859375 
Q 16.703125 27.09375 16.703125 20.515625 
Q 16.703125 13.921875 20.71875 10.15625 
Q 24.75 6.390625 31.78125 6.390625 
Q 38.8125 6.390625 42.859375 10.171875 
Q 46.921875 13.96875 46.921875 20.515625 
Q 46.921875 27.09375 42.890625 30.859375 
Q 38.875 34.625 31.78125 34.625 
z
M 21.921875 38.8125 
Q 15.578125 40.375 12.03125 44.71875 
Q 8.5 49.078125 8.5 55.328125 
Q 8.5 64.0625 14.71875 69.140625 
Q 20.953125 74.21875 31.78125 74.21875 
Q 42.671875 74.21875 48.875 69.140625 
Q 55.078125 64.0625 55.078125 55.328125 
Q 55.078125 49.078125 51.53125 44.71875 
Q 48 40.375 41.703125 38.8125 
Q 48.828125 37.15625 52.796875 32.3125 
Q 56.78125 27.484375 56.78125 20.515625 
Q 56.78125 9.90625 50.3125 4.234375 
Q 43.84375 -1.421875 31.78125 -1.421875 
Q 19.734375 -1.421875 13.25 4.234375 
Q 6.78125 9.90625 6.78125 20.515625 
Q 6.78125 27.484375 10.78125 32.3125 
Q 14.796875 37.15625 21.921875 38.8125 
z
M 18.3125 54.390625 
Q 18.3125 48.734375 21.84375 45.5625 
Q 25.390625 42.390625 31.78125 42.390625 
Q 38.140625 42.390625 41.71875 45.5625 
Q 45.3125 48.734375 45.3125 54.390625 
Q 45.3125 60.0625 41.71875 63.234375 
Q 38.140625 66.40625 31.78125 66.40625 
Q 25.390625 66.40625 21.84375 63.234375 
Q 18.3125 60.0625 18.3125 54.390625 
z
" id="DejaVuSans-56"/>
       </defs>
       <use xlink:href="#DejaVuSans-48"/>
       <use x="63.623047" xlink:href="#DejaVuSans-46"/>
       <use x="95.410156" xlink:href="#DejaVuSans-56"/>
      </g>
     </g>
    </g>
    <g id="ytick_6">
     <g id="line2d_113">
      <path clip-path="url(#p90bb62960f)" d="M 62.208 6.330297 
L 460.8 6.330297 
" style="fill:none;stroke:#b0b0b0;stroke-linecap:square;stroke-width:0.8;"/>
     </g>
     <g id="line2d_114">
      <g>
       <use style="stroke:#000000;stroke-width:0.8;" x="62.208" xlink:href="#m9aa9f3328f" y="6.330297"/>
      </g>
     </g>
     <g id="text_10">
      <!-- 1.0 -->
      <g transform="translate(29.763 12.409047)scale(0.16 -0.16)">
       <use xlink:href="#DejaVuSans-49"/>
       <use x="63.623047" xlink:href="#DejaVuSans-46"/>
       <use x="95.410156" xlink:href="#DejaVuSans-48"/>
      </g>
     </g>
    </g>
    <g id="text_11">
     <!-- proportion of trials -->
     <g transform="translate(21.603625 241.61425)rotate(-90)scale(0.2 -0.2)">
      <defs>
       <path d="M 18.109375 8.203125 
L 18.109375 -20.796875 
L 9.078125 -20.796875 
L 9.078125 54.6875 
L 18.109375 54.6875 
L 18.109375 46.390625 
Q 20.953125 51.265625 25.265625 53.625 
Q 29.59375 56 35.59375 56 
Q 45.5625 56 51.78125 48.09375 
Q 58.015625 40.1875 58.015625 27.296875 
Q 58.015625 14.40625 51.78125 6.484375 
Q 45.5625 -1.421875 35.59375 -1.421875 
Q 29.59375 -1.421875 25.265625 0.953125 
Q 20.953125 3.328125 18.109375 8.203125 
z
M 48.6875 27.296875 
Q 48.6875 37.203125 44.609375 42.84375 
Q 40.53125 48.484375 33.40625 48.484375 
Q 26.265625 48.484375 22.1875 42.84375 
Q 18.109375 37.203125 18.109375 27.296875 
Q 18.109375 17.390625 22.1875 11.75 
Q 26.265625 6.109375 33.40625 6.109375 
Q 40.53125 6.109375 44.609375 11.75 
Q 48.6875 17.390625 48.6875 27.296875 
z
" id="DejaVuSans-112"/>
       <path d="M 41.109375 46.296875 
Q 39.59375 47.171875 37.8125 47.578125 
Q 36.03125 48 33.890625 48 
Q 26.265625 48 22.1875 43.046875 
Q 18.109375 38.09375 18.109375 28.8125 
L 18.109375 0 
L 9.078125 0 
L 9.078125 54.6875 
L 18.109375 54.6875 
L 18.109375 46.1875 
Q 20.953125 51.171875 25.484375 53.578125 
Q 30.03125 56 36.53125 56 
Q 37.453125 56 38.578125 55.875 
Q 39.703125 55.765625 41.0625 55.515625 
z
" id="DejaVuSans-114"/>
       <path d="M 18.3125 70.21875 
L 18.3125 54.6875 
L 36.8125 54.6875 
L 36.8125 47.703125 
L 18.3125 47.703125 
L 18.3125 18.015625 
Q 18.3125 11.328125 20.140625 9.421875 
Q 21.96875 7.515625 27.59375 7.515625 
L 36.8125 7.515625 
L 36.8125 0 
L 27.59375 0 
Q 17.1875 0 13.234375 3.875 
Q 9.28125 7.765625 9.28125 18.015625 
L 9.28125 47.703125 
L 2.6875 47.703125 
L 2.6875 54.6875 
L 9.28125 54.6875 
L 9.28125 70.21875 
z
" id="DejaVuSans-116"/>
       <path d="M 9.421875 54.6875 
L 18.40625 54.6875 
L 18.40625 0 
L 9.421875 0 
z
M 9.421875 75.984375 
L 18.40625 75.984375 
L 18.40625 64.59375 
L 9.421875 64.59375 
z
" id="DejaVuSans-105"/>
       <path d="M 54.890625 33.015625 
L 54.890625 0 
L 45.90625 0 
L 45.90625 32.71875 
Q 45.90625 40.484375 42.875 44.328125 
Q 39.84375 48.1875 33.796875 48.1875 
Q 26.515625 48.1875 22.3125 43.546875 
Q 18.109375 38.921875 18.109375 30.90625 
L 18.109375 0 
L 9.078125 0 
L 9.078125 54.6875 
L 18.109375 54.6875 
L 18.109375 46.1875 
Q 21.34375 51.125 25.703125 53.5625 
Q 30.078125 56 35.796875 56 
Q 45.21875 56 50.046875 50.171875 
Q 54.890625 44.34375 54.890625 33.015625 
z
" id="DejaVuSans-110"/>
      </defs>
      <use xlink:href="#DejaVuSans-112"/>
      <use x="63.476562" xlink:href="#DejaVuSans-114"/>
      <use x="102.339844" xlink:href="#DejaVuSans-111"/>
      <use x="163.521484" xlink:href="#DejaVuSans-112"/>
      <use x="226.998047" xlink:href="#DejaVuSans-111"/>
      <use x="288.179688" xlink:href="#DejaVuSans-114"/>
      <use x="329.292969" xlink:href="#DejaVuSans-116"/>
      <use x="368.501953" xlink:href="#DejaVuSans-105"/>
      <use x="396.285156" xlink:href="#DejaVuSans-111"/>
      <use x="457.466797" xlink:href="#DejaVuSans-110"/>
      <use x="520.845703" xlink:href="#DejaVuSans-32"/>
      <use x="552.632812" xlink:href="#DejaVuSans-111"/>
      <use x="613.814453" xlink:href="#DejaVuSans-102"/>
      <use x="649.019531" xlink:href="#DejaVuSans-32"/>
      <use x="680.806641" xlink:href="#DejaVuSans-116"/>
      <use x="720.015625" xlink:href="#DejaVuSans-114"/>
      <use x="761.128906" xlink:href="#DejaVuSans-105"/>
      <use x="788.912109" xlink:href="#DejaVuSans-97"/>
      <use x="850.191406" xlink:href="#DejaVuSans-108"/>
      <use x="877.974609" xlink:href="#DejaVuSans-115"/>
     </g>
    </g>
   </g>
   <g id="line2d_115">
    <path clip-path="url(#p90bb62960f)" d="M 130.081423 293.76 
L 130.081423 289.927604 
L 140.812574 289.927604 
L 140.812574 286.095208 
L 153.655497 286.095208 
L 153.655497 282.262812 
L 168.994484 282.262812 
L 168.994484 278.430416 
L 170.250142 278.430416 
L 170.250142 274.59802 
L 171.334317 274.59802 
L 171.334317 270.765624 
L 171.865645 270.765624 
L 171.865645 266.933228 
L 173.418798 266.933228 
L 173.418798 263.100832 
L 173.797899 263.100832 
L 173.797899 259.268436 
L 176.237891 259.268436 
L 176.237891 255.43604 
L 177.748077 255.43604 
L 177.748077 247.771248 
L 179.641119 247.771248 
L 179.641119 243.938851 
L 181.24057 243.938851 
L 181.24057 240.106455 
L 184.163453 240.106455 
L 184.163453 236.274059 
L 241.202777 236.274059 
L 241.202777 232.441663 
L 241.694607 232.441663 
L 241.694607 228.609267 
L 243.269563 228.609267 
L 243.269563 224.776871 
L 244.329933 224.776871 
L 244.329933 220.944475 
L 246.966948 220.944475 
L 246.966948 217.112079 
L 247.231535 217.112079 
L 247.231535 213.279683 
L 247.413696 213.279683 
L 247.413696 209.447287 
L 247.85554 209.447287 
L 247.85554 205.614891 
L 248.900478 205.614891 
L 248.900478 201.782495 
L 249.766878 201.782495 
L 249.842996 190.285307 
L 250.089391 190.285307 
L 250.089391 182.620515 
L 250.484255 182.620515 
L 250.502961 174.955723 
L 251.225824 174.955723 
L 251.225824 171.123327 
L 251.57334 171.123327 
L 251.57334 167.290931 
L 252.008061 167.290931 
L 252.044077 159.626139 
L 253.302192 159.626139 
L 253.302192 155.793743 
L 253.891022 155.793743 
L 253.891022 151.961347 
L 256.228741 151.961347 
L 256.228741 148.12895 
L 299.669917 148.12895 
L 299.669917 144.296554 
L 301.512405 144.296554 
L 301.512405 140.464158 
L 302.294644 140.464158 
L 302.294644 136.631762 
L 303.765176 136.631762 
L 303.765176 132.799366 
L 304.047999 132.799366 
L 304.047999 128.96697 
L 305.590388 128.96697 
L 305.590388 125.134574 
L 305.704431 125.134574 
L 305.704431 121.302178 
L 308.913542 121.302178 
L 308.913542 117.469782 
L 309.509362 117.469782 
L 309.509362 113.637386 
L 310.393208 113.637386 
L 310.393208 109.80499 
L 312.447289 109.80499 
L 312.447289 105.972594 
L 313.656941 105.972594 
L 313.656941 102.140198 
L 313.855062 102.140198 
L 313.855062 98.307802 
L 317.780445 98.307802 
L 317.780445 94.475406 
L 320.396632 94.475406 
L 320.396632 90.64301 
L 320.600334 90.64301 
L 320.600334 86.810614 
L 332.612359 86.810614 
L 332.612359 82.978218 
L 335.461064 82.978218 
L 335.461064 79.145822 
L 335.958634 79.145822 
L 335.958634 75.313426 
L 341.398342 75.313426 
L 341.398342 71.48103 
L 342.683356 71.48103 
L 342.683356 67.648634 
L 343.383429 67.648634 
L 343.383429 63.816238 
L 346.189611 63.816238 
L 346.189611 59.983842 
L 346.438726 59.983842 
L 346.438726 56.151446 
L 346.727425 56.151446 
L 346.727425 52.31905 
L 348.348418 52.31905 
L 348.348418 48.486653 
L 348.833955 48.486653 
L 348.833955 44.654257 
L 352.826535 44.654257 
L 352.826535 40.821861 
L 353.183994 40.821861 
L 353.183994 36.989465 
L 356.012386 36.989465 
L 356.012386 33.157069 
L 357.779821 33.157069 
L 357.779821 29.324673 
L 360.564507 29.324673 
L 360.564507 25.492277 
L 367.591904 25.492277 
L 367.591904 21.659881 
L 370.981158 21.659881 
L 370.981158 17.827485 
L 370.981158 17.827485 
L 460.8 17.827485 
L 460.8 17.827485 
" style="fill:none;stroke:#000000;stroke-linecap:square;stroke-width:1.5;"/>
   </g>
   <g id="line2d_116">
    <path clip-path="url(#p90bb62960f)" style="fill:none;stroke:#000000;stroke-linecap:square;stroke-width:1.5;"/>
   </g>
   <g id="line2d_117">
    <path clip-path="url(#p90bb62960f)" d="M 209.398547 293.76 
L 209.398547 289.927604 
L 220.017943 289.927604 
L 220.017943 286.095208 
L 220.651152 286.095208 
L 220.651152 282.262812 
L 221.235873 282.262812 
L 221.235873 278.430416 
L 222.38043 278.430416 
L 222.38043 274.59802 
L 224.362022 274.59802 
L 224.362022 270.765624 
L 225.561424 270.765624 
L 225.561424 266.933228 
L 226.759866 266.933228 
L 226.759866 263.100832 
L 227.627591 263.100832 
L 227.627591 259.268436 
L 228.087193 259.268436 
L 228.087193 251.603644 
L 228.509317 251.603644 
L 228.606105 243.938851 
L 228.702661 243.938851 
L 228.702661 240.106455 
L 229.812352 240.106455 
L 229.812352 236.274059 
L 263.57755 236.274059 
L 263.57755 232.441663 
L 264.90685 232.441663 
L 264.90685 228.609267 
L 318.780263 228.609267 
L 318.780263 224.776871 
L 329.039565 224.776871 
L 329.039565 220.944475 
L 336.03464 220.944475 
L 336.03464 217.112079 
L 336.250696 217.112079 
L 336.250696 213.279683 
L 339.675052 213.279683 
L 339.675052 209.447287 
L 340.236264 209.447287 
L 340.236264 205.614891 
L 341.538836 205.614891 
L 341.620564 197.950099 
L 342.377377 197.950099 
L 342.377377 194.117703 
L 345.321322 194.117703 
L 345.337278 186.452911 
L 347.037863 186.452911 
L 347.037863 182.620515 
L 348.822578 182.620515 
L 348.822578 178.788119 
L 349.012307 178.788119 
L 349.012307 174.955723 
L 350.348818 174.955723 
L 350.348818 171.123327 
L 352.043476 171.123327 
L 352.043476 167.290931 
L 353.675416 167.290931 
L 353.675416 163.458535 
L 354.004016 163.458535 
L 354.004016 159.626139 
L 354.197905 159.626139 
L 354.197905 155.793743 
L 354.860861 155.793743 
L 354.860861 151.961347 
L 356.126425 151.961347 
L 356.126425 148.12895 
L 357.178131 148.12895 
L 357.26784 140.464158 
L 357.331044 140.464158 
L 357.331044 136.631762 
L 357.480756 136.631762 
L 357.480756 132.799366 
L 358.309775 132.799366 
L 358.309775 128.96697 
L 359.469151 128.96697 
L 359.469151 125.134574 
L 360.461173 125.134574 
L 360.461173 121.302178 
L 361.772479 121.302178 
L 361.772479 117.469782 
L 362.785861 117.469782 
L 362.785861 113.637386 
L 363.037839 113.637386 
L 363.037839 109.80499 
L 364.114836 109.80499 
L 364.114836 105.972594 
L 364.827708 105.972594 
L 364.827708 102.140198 
L 366.848921 102.140198 
L 366.848921 98.307802 
L 367.676444 98.307802 
L 367.676444 94.475406 
L 369.32122 94.475406 
L 369.350511 86.810614 
L 369.972294 86.810614 
L 369.972294 82.978218 
L 370.955843 82.978218 
L 370.955843 79.145822 
L 371.818741 79.145822 
L 371.835261 71.48103 
L 372.656335 71.48103 
L 372.656335 67.648634 
L 375.522337 67.648634 
L 375.522337 63.816238 
L 375.941295 63.816238 
L 375.941295 59.983842 
L 396.090522 59.983842 
L 396.090522 56.151446 
L 404.544723 56.151446 
L 404.544723 52.31905 
L 404.544723 52.31905 
L 460.8 52.31905 
L 460.8 52.31905 
" style="fill:none;stroke:#00bfbf;stroke-linecap:square;stroke-width:1.5;"/>
   </g>
   <g id="line2d_118">
    <path clip-path="url(#p90bb62960f)" style="fill:none;stroke:#00bfbf;stroke-linecap:square;stroke-width:1.5;"/>
   </g>
   <g id="line2d_119">
    <path clip-path="url(#p90bb62960f)" d="M 296.200484 293.76 
L 296.200484 289.927604 
L 298.307554 289.927604 
L 298.307554 286.095208 
L 298.512318 286.095208 
L 298.512318 282.262812 
L 300.412735 282.262812 
L 300.412735 278.430416 
L 301.470255 278.430416 
L 301.470255 274.59802 
L 301.543988 274.59802 
L 301.543988 270.765624 
L 301.701533 270.765624 
L 301.701533 266.933228 
L 301.967953 266.933228 
L 301.967953 263.100832 
L 302.557179 263.100832 
L 302.557179 259.268436 
L 302.65455 259.268436 
L 302.65455 255.43604 
L 302.797616 255.43604 
L 302.797616 251.603644 
L 304.220683 251.603644 
L 304.220683 247.771248 
L 306.951829 247.771248 
L 306.951829 243.938851 
L 310.658397 243.938851 
L 310.658397 240.106455 
L 311.266327 240.106455 
L 311.266327 236.274059 
L 332.612359 236.274059 
L 332.612359 232.441663 
L 361.884256 232.441663 
L 361.884256 228.609267 
L 363.768748 228.609267 
L 363.768748 224.776871 
L 365.737985 224.776871 
L 365.737985 220.944475 
L 366.048548 220.944475 
L 366.048548 217.112079 
L 366.114183 217.112079 
L 366.114183 213.279683 
L 366.175486 213.279683 
L 366.175486 209.447287 
L 366.384061 209.447287 
L 366.384061 205.614891 
L 367.616367 205.614891 
L 367.616367 201.782495 
L 368.113613 201.782495 
L 368.113613 197.950099 
L 368.170943 197.950099 
L 368.170943 194.117703 
L 368.744741 194.117703 
L 368.744741 190.285307 
L 368.917764 190.285307 
L 368.917764 186.452911 
L 369.444101 186.452911 
L 369.444101 182.620515 
L 370.185088 182.620515 
L 370.185088 178.788119 
L 370.756523 178.788119 
L 370.756523 174.955723 
L 371.582128 174.955723 
L 371.582128 171.123327 
L 371.781087 171.123327 
L 371.781087 167.290931 
L 371.85636 167.290931 
L 371.85636 163.458535 
L 372.304163 163.458535 
L 372.304163 159.626139 
L 373.032182 159.626139 
L 373.032182 155.793743 
L 373.417787 155.793743 
L 373.417787 151.961347 
L 373.872199 151.961347 
L 373.872199 148.12895 
L 373.975871 148.12895 
L 373.975871 144.296554 
L 374.552061 144.296554 
L 374.552061 140.464158 
L 375.445234 140.464158 
L 375.445234 136.631762 
L 376.54004 136.631762 
L 376.54004 132.799366 
L 376.767975 132.799366 
L 376.767975 128.96697 
L 377.410596 128.96697 
L 377.410596 125.134574 
L 379.629913 125.134574 
L 379.629913 121.302178 
L 379.808695 121.302178 
L 379.808695 117.469782 
L 380.876758 117.469782 
L 380.876758 113.637386 
L 381.633359 113.637386 
L 381.633359 109.80499 
L 382.473334 109.80499 
L 382.473334 105.972594 
L 383.137073 105.972594 
L 383.137073 102.140198 
L 384.15316 102.140198 
L 384.15316 98.307802 
L 386.076058 98.307802 
L 386.076058 94.475406 
L 387.242294 94.475406 
L 387.242294 90.64301 
L 387.415877 90.64301 
L 387.415877 86.810614 
L 388.574133 86.810614 
L 388.574133 82.978218 
L 389.616898 82.978218 
L 389.616898 79.145822 
L 390.247836 79.145822 
L 390.247836 75.313426 
L 391.155075 75.313426 
L 391.155075 71.48103 
L 391.798311 71.48103 
L 391.798311 67.648634 
L 397.242617 67.648634 
L 397.242617 63.816238 
L 400.191206 63.816238 
L 400.191206 59.983842 
L 405.412989 59.983842 
L 405.412989 56.151446 
L 405.412989 56.151446 
L 405.412989 56.151446 
L 460.8 56.151446 
" style="fill:none;stroke:#bf00bf;stroke-linecap:square;stroke-width:1.5;"/>
   </g>
   <g id="line2d_120">
    <path clip-path="url(#p90bb62960f)" style="fill:none;stroke:#bf00bf;stroke-linecap:square;stroke-width:1.5;"/>
   </g>
   <g id="line2d_121">
    <path clip-path="url(#p90bb62960f)" d="M 356.230678 293.76 
L 356.230678 289.927604 
L 357.38101 289.927604 
L 357.38101 286.095208 
L 358.850584 286.095208 
L 358.850584 282.262812 
L 360.149568 282.262812 
L 360.149568 278.430416 
L 360.281836 278.430416 
L 360.281836 274.59802 
L 360.300173 274.59802 
L 360.300173 270.765624 
L 362.203753 270.765624 
L 362.203753 266.933228 
L 363.837085 266.933228 
L 363.837085 263.100832 
L 364.00129 263.100832 
L 364.00129 259.268436 
L 365.431462 259.268436 
L 365.431462 255.43604 
L 365.948834 255.43604 
L 365.948834 251.603644 
L 367.500033 251.603644 
L 367.500033 247.771248 
L 367.506164 247.771248 
L 367.506164 243.938851 
L 367.627575 243.938851 
L 367.627575 240.106455 
L 367.737446 240.106455 
L 367.737446 236.274059 
L 368.138768 236.274059 
L 368.138768 232.441663 
L 368.43341 232.441663 
L 368.43341 228.609267 
L 368.567986 228.609267 
L 368.567986 224.776871 
L 369.603482 224.776871 
L 369.603482 220.944475 
L 369.773826 220.944475 
L 369.773826 217.112079 
L 369.929985 217.112079 
L 369.929985 213.279683 
L 371.592284 213.279683 
L 371.592284 209.447287 
L 372.114159 209.447287 
L 372.114159 205.614891 
L 373.162015 205.614891 
L 373.162015 201.782495 
L 373.210817 201.782495 
L 373.210817 197.950099 
L 373.900975 197.950099 
L 373.900975 194.117703 
L 374.60606 194.117703 
L 374.60606 190.285307 
L 375.204598 190.285307 
L 375.204598 186.452911 
L 375.290584 186.452911 
L 375.290584 182.620515 
L 375.30153 182.620515 
L 375.30153 178.788119 
L 375.923062 178.788119 
L 375.923062 174.955723 
L 378.274452 174.955723 
L 378.274452 171.123327 
L 380.705612 171.123327 
L 380.705612 167.290931 
L 381.675059 167.290931 
L 381.675059 163.458535 
L 383.763445 163.458535 
L 383.763445 159.626139 
L 384.64607 159.626139 
L 384.64607 155.793743 
L 385.745546 155.793743 
L 385.745546 151.961347 
L 385.755287 151.961347 
L 385.755287 148.12895 
L 386.287426 148.12895 
L 386.287426 144.296554 
L 386.727148 144.296554 
L 386.727148 140.464158 
L 387.056016 140.464158 
L 387.056016 136.631762 
L 387.388453 136.631762 
L 387.388453 132.799366 
L 388.281887 132.799366 
L 388.281887 128.96697 
L 388.344646 128.96697 
L 388.344646 125.134574 
L 388.475335 125.134574 
L 388.475335 121.302178 
L 388.647922 121.302178 
L 388.647922 117.469782 
L 389.244726 117.469782 
L 389.244726 113.637386 
L 390.738448 113.637386 
L 390.738448 109.80499 
L 391.122699 109.80499 
L 391.122699 105.972594 
L 393.168315 105.972594 
L 393.168315 102.140198 
L 394.13997 102.140198 
L 394.13997 98.307802 
L 395.479691 98.307802 
L 395.479691 94.475406 
L 396.518668 94.475406 
L 396.518668 90.64301 
L 397.027778 90.64301 
L 397.027778 86.810614 
L 398.29804 86.810614 
L 398.29804 82.978218 
L 398.524665 82.978218 
L 398.524665 79.145822 
L 399.874255 79.145822 
L 399.874255 75.313426 
L 400.038962 75.313426 
L 400.038962 71.48103 
L 401.111395 71.48103 
L 401.111395 67.648634 
L 402.633093 67.648634 
L 402.633093 63.816238 
L 402.633093 63.816238 
L 402.633093 63.816238 
L 460.8 63.816238 
" style="fill:none;stroke:#ff0000;stroke-linecap:square;stroke-width:3;"/>
   </g>
   <g id="line2d_122">
    <path clip-path="url(#p90bb62960f)" style="fill:none;stroke:#ff0000;stroke-linecap:square;stroke-width:3;"/>
   </g>
   <g id="line2d_123">
    <path clip-path="url(#p90bb62960f)" d="M 460.8 293.76 
L 460.8 3.456 
" style="fill:none;stroke:#000000;stroke-linecap:square;stroke-width:1.5;"/>
   </g>
   <g id="patch_3">
    <path d="M 62.208 293.76 
L 62.208 3.456 
" style="fill:none;stroke:#000000;stroke-linecap:square;stroke-linejoin:miter;stroke-width:0.8;"/>
   </g>
   <g id="patch_4">
    <path d="M 460.8 293.76 
L 460.8 3.456 
" style="fill:none;stroke:#000000;stroke-linecap:square;stroke-linejoin:miter;stroke-width:0.8;"/>
   </g>
   <g id="patch_5">
    <path d="M 62.208 293.76 
L 460.8 293.76 
" style="fill:none;stroke:#000000;stroke-linecap:square;stroke-linejoin:miter;stroke-width:0.8;"/>
   </g>
   <g id="patch_6">
    <path d="M 62.208 3.456 
L 460.8 3.456 
" style="fill:none;stroke:#000000;stroke-linecap:square;stroke-linejoin:miter;stroke-width:0.8;"/>
   </g>
   <g id="text_12">
    <!-- {f10-f14}, 20-D -->
    <g transform="translate(182.2915 24.458955)scale(0.2 -0.2)">
     <defs>
      <path d="M 51.125 -9.28125 
L 51.125 -16.3125 
L 48.09375 -16.3125 
Q 35.9375 -16.3125 31.8125 -12.6875 
Q 27.6875 -9.078125 27.6875 1.703125 
L 27.6875 13.375 
Q 27.6875 20.75 25.046875 23.578125 
Q 22.40625 26.421875 15.484375 26.421875 
L 12.5 26.421875 
L 12.5 33.40625 
L 15.484375 33.40625 
Q 22.46875 33.40625 25.078125 36.203125 
Q 27.6875 39.015625 27.6875 46.296875 
L 27.6875 58.015625 
Q 27.6875 68.796875 31.8125 72.390625 
Q 35.9375 75.984375 48.09375 75.984375 
L 51.125 75.984375 
L 51.125 69 
L 47.796875 69 
Q 40.921875 69 38.8125 66.84375 
Q 36.71875 64.703125 36.71875 57.8125 
L 36.71875 45.703125 
Q 36.71875 38.03125 34.5 34.5625 
Q 32.28125 31.109375 26.90625 29.890625 
Q 32.328125 28.5625 34.515625 25.09375 
Q 36.71875 21.625 36.71875 14.015625 
L 36.71875 1.90625 
Q 36.71875 -4.984375 38.8125 -7.125 
Q 40.921875 -9.28125 47.796875 -9.28125 
z
" id="DejaVuSans-123"/>
      <path d="M 4.890625 31.390625 
L 31.203125 31.390625 
L 31.203125 23.390625 
L 4.890625 23.390625 
z
" id="DejaVuSans-45"/>
      <path d="M 12.5 -9.28125 
L 15.921875 -9.28125 
Q 22.75 -9.28125 24.828125 -7.171875 
Q 26.90625 -5.078125 26.90625 1.90625 
L 26.90625 14.015625 
Q 26.90625 21.625 29.09375 25.09375 
Q 31.296875 28.5625 36.71875 29.890625 
Q 31.296875 31.109375 29.09375 34.5625 
Q 26.90625 38.03125 26.90625 45.703125 
L 26.90625 57.8125 
Q 26.90625 64.75 24.828125 66.875 
Q 22.75 69 15.921875 69 
L 12.5 69 
L 12.5 75.984375 
L 15.578125 75.984375 
Q 27.734375 75.984375 31.8125 72.390625 
Q 35.890625 68.796875 35.890625 58.015625 
L 35.890625 46.296875 
Q 35.890625 39.015625 38.515625 36.203125 
Q 41.15625 33.40625 48.09375 33.40625 
L 51.125 33.40625 
L 51.125 26.421875 
L 48.09375 26.421875 
Q 41.15625 26.421875 38.515625 23.578125 
Q 35.890625 20.75 35.890625 13.375 
L 35.890625 1.703125 
Q 35.890625 -9.078125 31.8125 -12.6875 
Q 27.734375 -16.3125 15.578125 -16.3125 
L 12.5 -16.3125 
z
" id="DejaVuSans-125"/>
      <path d="M 11.71875 12.40625 
L 22.015625 12.40625 
L 22.015625 4 
L 14.015625 -11.625 
L 7.71875 -11.625 
L 11.71875 4 
z
" id="DejaVuSans-44"/>
     </defs>
     <use xlink:href="#DejaVuSans-123"/>
     <use x="63.623047" xlink:href="#DejaVuSans-102"/>
     <use x="98.828125" xlink:href="#DejaVuSans-49"/>
     <use x="162.451172" xlink:href="#DejaVuSans-48"/>
     <use x="226.074219" xlink:href="#DejaVuSans-45"/>
     <use x="262.158203" xlink:href="#DejaVuSans-102"/>
     <use x="297.363281" xlink:href="#DejaVuSans-49"/>
     <use x="360.986328" xlink:href="#DejaVuSans-52"/>
     <use x="424.609375" xlink:href="#DejaVuSans-125"/>
     <use x="488.232422" xlink:href="#DejaVuSans-44"/>
     <use x="520.019531" xlink:href="#DejaVuSans-32"/>
     <use x="551.806641" xlink:href="#DejaVuSans-50"/>
     <use x="615.429688" xlink:href="#DejaVuSans-48"/>
     <use x="679.052734" xlink:href="#DejaVuSans-45"/>
     <use x="715.136719" xlink:href="#DejaVuSans-68"/>
    </g>
   </g>
   <g id="text_13">
    <!-- absolute targets -->
    <g transform="translate(62.208 609.932673)scale(0.14 -0.14)">
     <defs>
      <path d="M 48.6875 27.296875 
Q 48.6875 37.203125 44.609375 42.84375 
Q 40.53125 48.484375 33.40625 48.484375 
Q 26.265625 48.484375 22.1875 42.84375 
Q 18.109375 37.203125 18.109375 27.296875 
Q 18.109375 17.390625 22.1875 11.75 
Q 26.265625 6.109375 33.40625 6.109375 
Q 40.53125 6.109375 44.609375 11.75 
Q 48.6875 17.390625 48.6875 27.296875 
z
M 18.109375 46.390625 
Q 20.953125 51.265625 25.265625 53.625 
Q 29.59375 56 35.59375 56 
Q 45.5625 56 51.78125 48.09375 
Q 58.015625 40.1875 58.015625 27.296875 
Q 58.015625 14.40625 51.78125 6.484375 
Q 45.5625 -1.421875 35.59375 -1.421875 
Q 29.59375 -1.421875 25.265625 0.953125 
Q 20.953125 3.328125 18.109375 8.203125 
L 18.109375 0 
L 9.078125 0 
L 9.078125 75.984375 
L 18.109375 75.984375 
z
" id="DejaVuSans-98"/>
      <path d="M 8.5 21.578125 
L 8.5 54.6875 
L 17.484375 54.6875 
L 17.484375 21.921875 
Q 17.484375 14.15625 20.5 10.265625 
Q 23.53125 6.390625 29.59375 6.390625 
Q 36.859375 6.390625 41.078125 11.03125 
Q 45.3125 15.671875 45.3125 23.6875 
L 45.3125 54.6875 
L 54.296875 54.6875 
L 54.296875 0 
L 45.3125 0 
L 45.3125 8.40625 
Q 42.046875 3.421875 37.71875 1 
Q 33.40625 -1.421875 27.6875 -1.421875 
Q 18.265625 -1.421875 13.375 4.4375 
Q 8.5 10.296875 8.5 21.578125 
z
M 31.109375 56 
z
" id="DejaVuSans-117"/>
      <path d="M 56.203125 29.59375 
L 56.203125 25.203125 
L 14.890625 25.203125 
Q 15.484375 15.921875 20.484375 11.0625 
Q 25.484375 6.203125 34.421875 6.203125 
Q 39.59375 6.203125 44.453125 7.46875 
Q 49.3125 8.734375 54.109375 11.28125 
L 54.109375 2.78125 
Q 49.265625 0.734375 44.1875 -0.34375 
Q 39.109375 -1.421875 33.890625 -1.421875 
Q 20.796875 -1.421875 13.15625 6.1875 
Q 5.515625 13.8125 5.515625 26.8125 
Q 5.515625 40.234375 12.765625 48.109375 
Q 20.015625 56 32.328125 56 
Q 43.359375 56 49.78125 48.890625 
Q 56.203125 41.796875 56.203125 29.59375 
z
M 47.21875 32.234375 
Q 47.125 39.59375 43.09375 43.984375 
Q 39.0625 48.390625 32.421875 48.390625 
Q 24.90625 48.390625 20.390625 44.140625 
Q 15.875 39.890625 15.1875 32.171875 
z
" id="DejaVuSans-101"/>
     </defs>
     <use xlink:href="#DejaVuSans-97"/>
     <use x="61.279297" xlink:href="#DejaVuSans-98"/>
     <use x="124.755859" xlink:href="#DejaVuSans-115"/>
     <use x="176.855469" xlink:href="#DejaVuSans-111"/>
     <use x="238.037109" xlink:href="#DejaVuSans-108"/>
     <use x="265.820312" xlink:href="#DejaVuSans-117"/>
     <use x="329.199219" xlink:href="#DejaVuSans-116"/>
     <use x="368.408203" xlink:href="#DejaVuSans-101"/>
     <use x="429.931641" xlink:href="#DejaVuSans-32"/>
     <use x="461.71875" xlink:href="#DejaVuSans-116"/>
     <use x="500.927734" xlink:href="#DejaVuSans-97"/>
     <use x="562.207031" xlink:href="#DejaVuSans-114"/>
     <use x="601.570312" xlink:href="#DejaVuSans-103"/>
     <use x="665.046875" xlink:href="#DejaVuSans-101"/>
     <use x="726.570312" xlink:href="#DejaVuSans-116"/>
     <use x="765.779297" xlink:href="#DejaVuSans-115"/>
    </g>
   </g>
   <g id="text_14">
    <!-- v2.4 -->
    <g style="fill:#808080;" transform="translate(250.593063 288.777272)scale(0.1 -0.1)">
     <use xlink:href="#DejaVuSans-118"/>
     <use x="59.179688" xlink:href="#DejaVuSans-50"/>
     <use x="122.802734" xlink:href="#DejaVuSans-46"/>
     <use x="154.589844" xlink:href="#DejaVuSans-52"/>
    </g>
   </g>
   <g id="legend_1">
    <g id="patch_7">
     <path d="M 76.208 136.881 
L 205.429875 136.881 
Q 209.429875 136.881 209.429875 132.881 
L 209.429875 17.456 
Q 209.429875 13.456 205.429875 13.456 
L 76.208 13.456 
Q 72.208 13.456 72.208 17.456 
L 72.208 132.881 
Q 72.208 136.881 76.208 136.881 
z
" style="fill:#ffffff;opacity:0.2;stroke:#cccccc;stroke-linejoin:miter;"/>
    </g>
    <g id="line2d_124">
     <path d="M 80.208 29.652875 
L 120.208 29.652875 
" style="fill:none;stroke:#000000;stroke-linecap:square;stroke-width:1.5;"/>
    </g>
    <g id="line2d_125"/>
    <g id="text_15">
     <!-- 1: 5/5 -->
     <g transform="translate(136.208 36.652875)scale(0.2 -0.2)">
      <defs>
       <path d="M 11.71875 12.40625 
L 22.015625 12.40625 
L 22.015625 0 
L 11.71875 0 
z
M 11.71875 51.703125 
L 22.015625 51.703125 
L 22.015625 39.3125 
L 11.71875 39.3125 
z
" id="DejaVuSans-58"/>
       <path d="M 10.796875 72.90625 
L 49.515625 72.90625 
L 49.515625 64.59375 
L 19.828125 64.59375 
L 19.828125 46.734375 
Q 21.96875 47.46875 24.109375 47.828125 
Q 26.265625 48.1875 28.421875 48.1875 
Q 40.625 48.1875 47.75 41.5 
Q 54.890625 34.8125 54.890625 23.390625 
Q 54.890625 11.625 47.5625 5.09375 
Q 40.234375 -1.421875 26.90625 -1.421875 
Q 22.3125 -1.421875 17.546875 -0.640625 
Q 12.796875 0.140625 7.71875 1.703125 
L 7.71875 11.625 
Q 12.109375 9.234375 16.796875 8.0625 
Q 21.484375 6.890625 26.703125 6.890625 
Q 35.15625 6.890625 40.078125 11.328125 
Q 45.015625 15.765625 45.015625 23.390625 
Q 45.015625 31 40.078125 35.4375 
Q 35.15625 39.890625 26.703125 39.890625 
Q 22.75 39.890625 18.8125 39.015625 
Q 14.890625 38.140625 10.796875 36.28125 
z
" id="DejaVuSans-53"/>
      </defs>
      <use xlink:href="#DejaVuSans-49"/>
      <use x="63.623047" xlink:href="#DejaVuSans-58"/>
      <use x="97.314453" xlink:href="#DejaVuSans-32"/>
      <use x="129.101562" xlink:href="#DejaVuSans-53"/>
      <use x="192.724609" xlink:href="#DejaVuSans-47"/>
      <use x="226.416016" xlink:href="#DejaVuSans-53"/>
     </g>
    </g>
    <g id="line2d_126">
     <path d="M 80.208 59.009125 
L 120.208 59.009125 
" style="fill:none;stroke:#00bfbf;stroke-linecap:square;stroke-width:1.5;"/>
    </g>
    <g id="line2d_127"/>
    <g id="text_16">
     <!-- -1: 5/5 -->
     <g transform="translate(136.208 66.009125)scale(0.2 -0.2)">
      <use xlink:href="#DejaVuSans-45"/>
      <use x="36.083984" xlink:href="#DejaVuSans-49"/>
      <use x="99.707031" xlink:href="#DejaVuSans-58"/>
      <use x="133.398438" xlink:href="#DejaVuSans-32"/>
      <use x="165.185547" xlink:href="#DejaVuSans-53"/>
      <use x="228.808594" xlink:href="#DejaVuSans-47"/>
      <use x="262.5" xlink:href="#DejaVuSans-53"/>
     </g>
    </g>
    <g id="line2d_128">
     <path d="M 80.208 88.365375 
L 120.208 88.365375 
" style="fill:none;stroke:#bf00bf;stroke-linecap:square;stroke-width:1.5;"/>
    </g>
    <g id="line2d_129"/>
    <g id="text_17">
     <!-- -4: 5/5 -->
     <g transform="translate(136.208 95.365375)scale(0.2 -0.2)">
      <use xlink:href="#DejaVuSans-45"/>
      <use x="36.083984" xlink:href="#DejaVuSans-52"/>
      <use x="99.707031" xlink:href="#DejaVuSans-58"/>
      <use x="133.398438" xlink:href="#DejaVuSans-32"/>
      <use x="165.185547" xlink:href="#DejaVuSans-53"/>
      <use x="228.808594" xlink:href="#DejaVuSans-47"/>
      <use x="262.5" xlink:href="#DejaVuSans-53"/>
     </g>
    </g>
    <g id="line2d_130">
     <path d="M 80.208 117.721625 
L 120.208 117.721625 
" style="fill:none;stroke:#ff0000;stroke-linecap:square;stroke-width:3;"/>
    </g>
    <g id="line2d_131"/>
    <g id="text_18">
     <!-- -8: 4/5 -->
     <g transform="translate(136.208 124.721625)scale(0.2 -0.2)">
      <use xlink:href="#DejaVuSans-45"/>
      <use x="36.083984" xlink:href="#DejaVuSans-56"/>
      <use x="99.707031" xlink:href="#DejaVuSans-58"/>
      <use x="133.398438" xlink:href="#DejaVuSans-32"/>
      <use x="165.185547" xlink:href="#DejaVuSans-52"/>
      <use x="228.808594" xlink:href="#DejaVuSans-47"/>
      <use x="262.5" xlink:href="#DejaVuSans-53"/>
     </g>
    </g>
   </g>
  </g>
 </g>
 <defs>
  <clipPath id="p90bb62960f">
   <rect height="290.304" width="398.592" x="62.208" y="3.456"/>
  </clipPath>
 </defs>
</svg>
