<?xml version="1.0" encoding="utf-8" standalone="no"?>
<!DOCTYPE svg PUBLIC "-//W3C//DTD SVG 1.1//EN"
  "http://www.w3.org/Graphics/SVG/1.1/DTD/svg11.dtd">
<!-- Created with matplotlib (https://matplotlib.org/) -->
<svg height="345.6pt" version="1.1" viewBox="0 0 460.8 345.6" width="460.8pt" xmlns="http://www.w3.org/2000/svg" xmlns:xlink="http://www.w3.org/1999/xlink">
 <metadata>
  <rdf:RDF xmlns:cc="http://creativecommons.org/ns#" xmlns:dc="http://purl.org/dc/elements/1.1/" xmlns:rdf="http://www.w3.org/1999/02/22-rdf-syntax-ns#">
   <cc:Work>
    <dc:type rdf:resource="http://purl.org/dc/dcmitype/StillImage"/>
    <dc:date>2021-06-17T01:39:25.356995</dc:date>
    <dc:format>image/svg+xml</dc:format>
    <dc:creator>
     <cc:Agent>
      <dc:title>Matplotlib v3.3.4, https://matplotlib.org/</dc:title>
     </cc:Agent>
    </dc:creator>
   </cc:Work>
  </rdf:RDF>
 </metadata>
 <defs>
  <style type="text/css">*{stroke-linecap:butt;stroke-linejoin:round;}</style>
 </defs>
 <g id="figure_1">
  <g id="patch_1">
   <path d="M 0 345.6 
L 460.8 345.6 
L 460.8 0 
L 0 0 
z
" style="fill:#ffffff;"/>
  </g>
  <g id="axes_1">
   <g id="patch_2">
    <path d="M 57.6 298.944 
L 338.688 298.944 
L 338.688 3.456 
L 57.6 3.456 
z
" style="fill:#ffffff;"/>
   </g>
   <g id="matplotlib.axis_1">
    <g id="xtick_1">
     <g id="line2d_1">
      <path clip-path="url(#p37605d0707)" d="M 57.6 298.944 
L 57.6 3.456 
" style="fill:none;stroke:#b0b0b0;stroke-linecap:square;stroke-width:0.8;"/>
     </g>
     <g id="line2d_2">
      <defs>
       <path d="M 0 0 
L 0 3.5 
" id="m30b980d766" style="stroke:#000000;stroke-width:0.8;"/>
      </defs>
      <g>
       <use style="stroke:#000000;stroke-width:0.8;" x="57.6" xlink:href="#m30b980d766" y="298.944"/>
      </g>
     </g>
     <g id="text_1">
      <!-- 0 -->
      <g transform="translate(51.2375 321.140875)scale(0.2 -0.2)">
       <defs>
        <path d="M 31.78125 66.40625 
Q 24.171875 66.40625 20.328125 58.90625 
Q 16.5 51.421875 16.5 36.375 
Q 16.5 21.390625 20.328125 13.890625 
Q 24.171875 6.390625 31.78125 6.390625 
Q 39.453125 6.390625 43.28125 13.890625 
Q 47.125 21.390625 47.125 36.375 
Q 47.125 51.421875 43.28125 58.90625 
Q 39.453125 66.40625 31.78125 66.40625 
z
M 31.78125 74.21875 
Q 44.046875 74.21875 50.515625 64.515625 
Q 56.984375 54.828125 56.984375 36.375 
Q 56.984375 17.96875 50.515625 8.265625 
Q 44.046875 -1.421875 31.78125 -1.421875 
Q 19.53125 -1.421875 13.0625 8.265625 
Q 6.59375 17.96875 6.59375 36.375 
Q 6.59375 54.828125 13.0625 64.515625 
Q 19.53125 74.21875 31.78125 74.21875 
z
" id="DejaVuSans-48"/>
       </defs>
       <use xlink:href="#DejaVuSans-48"/>
      </g>
     </g>
    </g>
    <g id="xtick_2">
     <g id="line2d_3">
      <path clip-path="url(#p37605d0707)" d="M 137.910857 298.944 
L 137.910857 3.456 
" style="fill:none;stroke:#b0b0b0;stroke-linecap:square;stroke-width:0.8;"/>
     </g>
     <g id="line2d_4">
      <g>
       <use style="stroke:#000000;stroke-width:0.8;" x="137.910857" xlink:href="#m30b980d766" y="298.944"/>
      </g>
     </g>
     <g id="text_2">
      <!-- 2 -->
      <g transform="translate(131.548357 321.140875)scale(0.2 -0.2)">
       <defs>
        <path d="M 19.1875 8.296875 
L 53.609375 8.296875 
L 53.609375 0 
L 7.328125 0 
L 7.328125 8.296875 
Q 12.9375 14.109375 22.625 23.890625 
Q 32.328125 33.6875 34.8125 36.53125 
Q 39.546875 41.84375 41.421875 45.53125 
Q 43.3125 49.21875 43.3125 52.78125 
Q 43.3125 58.59375 39.234375 62.25 
Q 35.15625 65.921875 28.609375 65.921875 
Q 23.96875 65.921875 18.8125 64.3125 
Q 13.671875 62.703125 7.8125 59.421875 
L 7.8125 69.390625 
Q 13.765625 71.78125 18.9375 73 
Q 24.125 74.21875 28.421875 74.21875 
Q 39.75 74.21875 46.484375 68.546875 
Q 53.21875 62.890625 53.21875 53.421875 
Q 53.21875 48.921875 51.53125 44.890625 
Q 49.859375 40.875 45.40625 35.40625 
Q 44.1875 33.984375 37.640625 27.21875 
Q 31.109375 20.453125 19.1875 8.296875 
z
" id="DejaVuSans-50"/>
       </defs>
       <use xlink:href="#DejaVuSans-50"/>
      </g>
     </g>
    </g>
    <g id="xtick_3">
     <g id="line2d_5">
      <path clip-path="url(#p37605d0707)" d="M 218.221714 298.944 
L 218.221714 3.456 
" style="fill:none;stroke:#b0b0b0;stroke-linecap:square;stroke-width:0.8;"/>
     </g>
     <g id="line2d_6">
      <g>
       <use style="stroke:#000000;stroke-width:0.8;" x="218.221714" xlink:href="#m30b980d766" y="298.944"/>
      </g>
     </g>
     <g id="text_3">
      <!-- 4 -->
      <g transform="translate(211.859214 321.140875)scale(0.2 -0.2)">
       <defs>
        <path d="M 37.796875 64.3125 
L 12.890625 25.390625 
L 37.796875 25.390625 
z
M 35.203125 72.90625 
L 47.609375 72.90625 
L 47.609375 25.390625 
L 58.015625 25.390625 
L 58.015625 17.1875 
L 47.609375 17.1875 
L 47.609375 0 
L 37.796875 0 
L 37.796875 17.1875 
L 4.890625 17.1875 
L 4.890625 26.703125 
z
" id="DejaVuSans-52"/>
       </defs>
       <use xlink:href="#DejaVuSans-52"/>
      </g>
     </g>
    </g>
    <g id="xtick_4">
     <g id="line2d_7">
      <path clip-path="url(#p37605d0707)" d="M 298.532571 298.944 
L 298.532571 3.456 
" style="fill:none;stroke:#b0b0b0;stroke-linecap:square;stroke-width:0.8;"/>
     </g>
     <g id="line2d_8">
      <g>
       <use style="stroke:#000000;stroke-width:0.8;" x="298.532571" xlink:href="#m30b980d766" y="298.944"/>
      </g>
     </g>
     <g id="text_4">
      <!-- 6 -->
      <g transform="translate(292.170071 321.140875)scale(0.2 -0.2)">
       <defs>
        <path d="M 33.015625 40.375 
Q 26.375 40.375 22.484375 35.828125 
Q 18.609375 31.296875 18.609375 23.390625 
Q 18.609375 15.53125 22.484375 10.953125 
Q 26.375 6.390625 33.015625 6.390625 
Q 39.65625 6.390625 43.53125 10.953125 
Q 47.40625 15.53125 47.40625 23.390625 
Q 47.40625 31.296875 43.53125 35.828125 
Q 39.65625 40.375 33.015625 40.375 
z
M 52.59375 71.296875 
L 52.59375 62.3125 
Q 48.875 64.0625 45.09375 64.984375 
Q 41.3125 65.921875 37.59375 65.921875 
Q 27.828125 65.921875 22.671875 59.328125 
Q 17.53125 52.734375 16.796875 39.40625 
Q 19.671875 43.65625 24.015625 45.921875 
Q 28.375 48.1875 33.59375 48.1875 
Q 44.578125 48.1875 50.953125 41.515625 
Q 57.328125 34.859375 57.328125 23.390625 
Q 57.328125 12.15625 50.6875 5.359375 
Q 44.046875 -1.421875 33.015625 -1.421875 
Q 20.359375 -1.421875 13.671875 8.265625 
Q 6.984375 17.96875 6.984375 36.375 
Q 6.984375 53.65625 15.1875 63.9375 
Q 23.390625 74.21875 37.203125 74.21875 
Q 40.921875 74.21875 44.703125 73.484375 
Q 48.484375 72.75 52.59375 71.296875 
z
" id="DejaVuSans-54"/>
       </defs>
       <use xlink:href="#DejaVuSans-54"/>
      </g>
     </g>
    </g>
    <g id="xtick_5">
     <g id="line2d_9">
      <path clip-path="url(#p37605d0707)" d="M 97.755429 298.944 
L 97.755429 3.456 
" style="fill:none;stroke:#b0b0b0;stroke-linecap:square;stroke-width:0.8;"/>
     </g>
     <g id="line2d_10">
      <defs>
       <path d="M 0 0 
L 0 2 
" id="m5f4069f0d4" style="stroke:#000000;stroke-width:0.6;"/>
      </defs>
      <g>
       <use style="stroke:#000000;stroke-width:0.6;" x="97.755429" xlink:href="#m5f4069f0d4" y="298.944"/>
      </g>
     </g>
    </g>
    <g id="xtick_6">
     <g id="line2d_11">
      <path clip-path="url(#p37605d0707)" d="M 178.066286 298.944 
L 178.066286 3.456 
" style="fill:none;stroke:#b0b0b0;stroke-linecap:square;stroke-width:0.8;"/>
     </g>
     <g id="line2d_12">
      <g>
       <use style="stroke:#000000;stroke-width:0.6;" x="178.066286" xlink:href="#m5f4069f0d4" y="298.944"/>
      </g>
     </g>
    </g>
    <g id="xtick_7">
     <g id="line2d_13">
      <path clip-path="url(#p37605d0707)" d="M 258.377143 298.944 
L 258.377143 3.456 
" style="fill:none;stroke:#b0b0b0;stroke-linecap:square;stroke-width:0.8;"/>
     </g>
     <g id="line2d_14">
      <g>
       <use style="stroke:#000000;stroke-width:0.6;" x="258.377143" xlink:href="#m5f4069f0d4" y="298.944"/>
      </g>
     </g>
    </g>
    <g id="xtick_8">
     <g id="line2d_15">
      <path clip-path="url(#p37605d0707)" d="M 338.688 298.944 
L 338.688 3.456 
" style="fill:none;stroke:#b0b0b0;stroke-linecap:square;stroke-width:0.8;"/>
     </g>
     <g id="line2d_16">
      <g>
       <use style="stroke:#000000;stroke-width:0.6;" x="338.688" xlink:href="#m5f4069f0d4" y="298.944"/>
      </g>
     </g>
    </g>
    <g id="text_5">
     <!-- log10(# f-evals / dimension) -->
     <g transform="translate(77.764078 342.217594)scale(0.17 -0.17)">
      <defs>
       <path d="M 9.421875 75.984375 
L 18.40625 75.984375 
L 18.40625 0 
L 9.421875 0 
z
" id="DejaVuSans-108"/>
       <path d="M 30.609375 48.390625 
Q 23.390625 48.390625 19.1875 42.75 
Q 14.984375 37.109375 14.984375 27.296875 
Q 14.984375 17.484375 19.15625 11.84375 
Q 23.34375 6.203125 30.609375 6.203125 
Q 37.796875 6.203125 41.984375 11.859375 
Q 46.1875 17.53125 46.1875 27.296875 
Q 46.1875 37.015625 41.984375 42.703125 
Q 37.796875 48.390625 30.609375 48.390625 
z
M 30.609375 56 
Q 42.328125 56 49.015625 48.375 
Q 55.71875 40.765625 55.71875 27.296875 
Q 55.71875 13.875 49.015625 6.21875 
Q 42.328125 -1.421875 30.609375 -1.421875 
Q 18.84375 -1.421875 12.171875 6.21875 
Q 5.515625 13.875 5.515625 27.296875 
Q 5.515625 40.765625 12.171875 48.375 
Q 18.84375 56 30.609375 56 
z
" id="DejaVuSans-111"/>
       <path d="M 45.40625 27.984375 
Q 45.40625 37.75 41.375 43.109375 
Q 37.359375 48.484375 30.078125 48.484375 
Q 22.859375 48.484375 18.828125 43.109375 
Q 14.796875 37.75 14.796875 27.984375 
Q 14.796875 18.265625 18.828125 12.890625 
Q 22.859375 7.515625 30.078125 7.515625 
Q 37.359375 7.515625 41.375 12.890625 
Q 45.40625 18.265625 45.40625 27.984375 
z
M 54.390625 6.78125 
Q 54.390625 -7.171875 48.1875 -13.984375 
Q 42 -20.796875 29.203125 -20.796875 
Q 24.46875 -20.796875 20.265625 -20.09375 
Q 16.0625 -19.390625 12.109375 -17.921875 
L 12.109375 -9.1875 
Q 16.0625 -11.328125 19.921875 -12.34375 
Q 23.78125 -13.375 27.78125 -13.375 
Q 36.625 -13.375 41.015625 -8.765625 
Q 45.40625 -4.15625 45.40625 5.171875 
L 45.40625 9.625 
Q 42.625 4.78125 38.28125 2.390625 
Q 33.9375 0 27.875 0 
Q 17.828125 0 11.671875 7.65625 
Q 5.515625 15.328125 5.515625 27.984375 
Q 5.515625 40.671875 11.671875 48.328125 
Q 17.828125 56 27.875 56 
Q 33.9375 56 38.28125 53.609375 
Q 42.625 51.21875 45.40625 46.390625 
L 45.40625 54.6875 
L 54.390625 54.6875 
z
" id="DejaVuSans-103"/>
       <path d="M 12.40625 8.296875 
L 28.515625 8.296875 
L 28.515625 63.921875 
L 10.984375 60.40625 
L 10.984375 69.390625 
L 28.421875 72.90625 
L 38.28125 72.90625 
L 38.28125 8.296875 
L 54.390625 8.296875 
L 54.390625 0 
L 12.40625 0 
z
" id="DejaVuSans-49"/>
       <path d="M 31 75.875 
Q 24.46875 64.65625 21.28125 53.65625 
Q 18.109375 42.671875 18.109375 31.390625 
Q 18.109375 20.125 21.3125 9.0625 
Q 24.515625 -2 31 -13.1875 
L 23.1875 -13.1875 
Q 15.875 -1.703125 12.234375 9.375 
Q 8.59375 20.453125 8.59375 31.390625 
Q 8.59375 42.28125 12.203125 53.3125 
Q 15.828125 64.359375 23.1875 75.875 
z
" id="DejaVuSans-40"/>
       <path d="M 51.125 44 
L 36.921875 44 
L 32.8125 27.6875 
L 47.125 27.6875 
z
M 43.796875 71.78125 
L 38.71875 51.515625 
L 52.984375 51.515625 
L 58.109375 71.78125 
L 65.921875 71.78125 
L 60.890625 51.515625 
L 76.125 51.515625 
L 76.125 44 
L 58.984375 44 
L 54.984375 27.6875 
L 70.515625 27.6875 
L 70.515625 20.21875 
L 53.078125 20.21875 
L 48 0 
L 40.1875 0 
L 45.21875 20.21875 
L 30.90625 20.21875 
L 25.875 0 
L 18.015625 0 
L 23.09375 20.21875 
L 7.71875 20.21875 
L 7.71875 27.6875 
L 24.90625 27.6875 
L 29 44 
L 13.28125 44 
L 13.28125 51.515625 
L 30.90625 51.515625 
L 35.890625 71.78125 
z
" id="DejaVuSans-35"/>
       <path id="DejaVuSans-32"/>
       <path d="M 37.109375 75.984375 
L 37.109375 68.5 
L 28.515625 68.5 
Q 23.6875 68.5 21.796875 66.546875 
Q 19.921875 64.59375 19.921875 59.515625 
L 19.921875 54.6875 
L 34.71875 54.6875 
L 34.71875 47.703125 
L 19.921875 47.703125 
L 19.921875 0 
L 10.890625 0 
L 10.890625 47.703125 
L 2.296875 47.703125 
L 2.296875 54.6875 
L 10.890625 54.6875 
L 10.890625 58.5 
Q 10.890625 67.625 15.140625 71.796875 
Q 19.390625 75.984375 28.609375 75.984375 
z
" id="DejaVuSans-102"/>
       <path d="M 4.890625 31.390625 
L 31.203125 31.390625 
L 31.203125 23.390625 
L 4.890625 23.390625 
z
" id="DejaVuSans-45"/>
       <path d="M 56.203125 29.59375 
L 56.203125 25.203125 
L 14.890625 25.203125 
Q 15.484375 15.921875 20.484375 11.0625 
Q 25.484375 6.203125 34.421875 6.203125 
Q 39.59375 6.203125 44.453125 7.46875 
Q 49.3125 8.734375 54.109375 11.28125 
L 54.109375 2.78125 
Q 49.265625 0.734375 44.1875 -0.34375 
Q 39.109375 -1.421875 33.890625 -1.421875 
Q 20.796875 -1.421875 13.15625 6.1875 
Q 5.515625 13.8125 5.515625 26.8125 
Q 5.515625 40.234375 12.765625 48.109375 
Q 20.015625 56 32.328125 56 
Q 43.359375 56 49.78125 48.890625 
Q 56.203125 41.796875 56.203125 29.59375 
z
M 47.21875 32.234375 
Q 47.125 39.59375 43.09375 43.984375 
Q 39.0625 48.390625 32.421875 48.390625 
Q 24.90625 48.390625 20.390625 44.140625 
Q 15.875 39.890625 15.1875 32.171875 
z
" id="DejaVuSans-101"/>
       <path d="M 2.984375 54.6875 
L 12.5 54.6875 
L 29.59375 8.796875 
L 46.6875 54.6875 
L 56.203125 54.6875 
L 35.6875 0 
L 23.484375 0 
z
" id="DejaVuSans-118"/>
       <path d="M 34.28125 27.484375 
Q 23.390625 27.484375 19.1875 25 
Q 14.984375 22.515625 14.984375 16.5 
Q 14.984375 11.71875 18.140625 8.90625 
Q 21.296875 6.109375 26.703125 6.109375 
Q 34.1875 6.109375 38.703125 11.40625 
Q 43.21875 16.703125 43.21875 25.484375 
L 43.21875 27.484375 
z
M 52.203125 31.203125 
L 52.203125 0 
L 43.21875 0 
L 43.21875 8.296875 
Q 40.140625 3.328125 35.546875 0.953125 
Q 30.953125 -1.421875 24.3125 -1.421875 
Q 15.921875 -1.421875 10.953125 3.296875 
Q 6 8.015625 6 15.921875 
Q 6 25.140625 12.171875 29.828125 
Q 18.359375 34.515625 30.609375 34.515625 
L 43.21875 34.515625 
L 43.21875 35.40625 
Q 43.21875 41.609375 39.140625 45 
Q 35.0625 48.390625 27.6875 48.390625 
Q 23 48.390625 18.546875 47.265625 
Q 14.109375 46.140625 10.015625 43.890625 
L 10.015625 52.203125 
Q 14.9375 54.109375 19.578125 55.046875 
Q 24.21875 56 28.609375 56 
Q 40.484375 56 46.34375 49.84375 
Q 52.203125 43.703125 52.203125 31.203125 
z
" id="DejaVuSans-97"/>
       <path d="M 44.28125 53.078125 
L 44.28125 44.578125 
Q 40.484375 46.53125 36.375 47.5 
Q 32.28125 48.484375 27.875 48.484375 
Q 21.1875 48.484375 17.84375 46.4375 
Q 14.5 44.390625 14.5 40.28125 
Q 14.5 37.15625 16.890625 35.375 
Q 19.28125 33.59375 26.515625 31.984375 
L 29.59375 31.296875 
Q 39.15625 29.25 43.1875 25.515625 
Q 47.21875 21.78125 47.21875 15.09375 
Q 47.21875 7.46875 41.1875 3.015625 
Q 35.15625 -1.421875 24.609375 -1.421875 
Q 20.21875 -1.421875 15.453125 -0.5625 
Q 10.6875 0.296875 5.421875 2 
L 5.421875 11.28125 
Q 10.40625 8.6875 15.234375 7.390625 
Q 20.0625 6.109375 24.8125 6.109375 
Q 31.15625 6.109375 34.5625 8.28125 
Q 37.984375 10.453125 37.984375 14.40625 
Q 37.984375 18.0625 35.515625 20.015625 
Q 33.0625 21.96875 24.703125 23.78125 
L 21.578125 24.515625 
Q 13.234375 26.265625 9.515625 29.90625 
Q 5.8125 33.546875 5.8125 39.890625 
Q 5.8125 47.609375 11.28125 51.796875 
Q 16.75 56 26.8125 56 
Q 31.78125 56 36.171875 55.265625 
Q 40.578125 54.546875 44.28125 53.078125 
z
" id="DejaVuSans-115"/>
       <path d="M 25.390625 72.90625 
L 33.6875 72.90625 
L 8.296875 -9.28125 
L 0 -9.28125 
z
" id="DejaVuSans-47"/>
       <path d="M 45.40625 46.390625 
L 45.40625 75.984375 
L 54.390625 75.984375 
L 54.390625 0 
L 45.40625 0 
L 45.40625 8.203125 
Q 42.578125 3.328125 38.25 0.953125 
Q 33.9375 -1.421875 27.875 -1.421875 
Q 17.96875 -1.421875 11.734375 6.484375 
Q 5.515625 14.40625 5.515625 27.296875 
Q 5.515625 40.1875 11.734375 48.09375 
Q 17.96875 56 27.875 56 
Q 33.9375 56 38.25 53.625 
Q 42.578125 51.265625 45.40625 46.390625 
z
M 14.796875 27.296875 
Q 14.796875 17.390625 18.875 11.75 
Q 22.953125 6.109375 30.078125 6.109375 
Q 37.203125 6.109375 41.296875 11.75 
Q 45.40625 17.390625 45.40625 27.296875 
Q 45.40625 37.203125 41.296875 42.84375 
Q 37.203125 48.484375 30.078125 48.484375 
Q 22.953125 48.484375 18.875 42.84375 
Q 14.796875 37.203125 14.796875 27.296875 
z
" id="DejaVuSans-100"/>
       <path d="M 9.421875 54.6875 
L 18.40625 54.6875 
L 18.40625 0 
L 9.421875 0 
z
M 9.421875 75.984375 
L 18.40625 75.984375 
L 18.40625 64.59375 
L 9.421875 64.59375 
z
" id="DejaVuSans-105"/>
       <path d="M 52 44.1875 
Q 55.375 50.25 60.0625 53.125 
Q 64.75 56 71.09375 56 
Q 79.640625 56 84.28125 50.015625 
Q 88.921875 44.046875 88.921875 33.015625 
L 88.921875 0 
L 79.890625 0 
L 79.890625 32.71875 
Q 79.890625 40.578125 77.09375 44.375 
Q 74.3125 48.1875 68.609375 48.1875 
Q 61.625 48.1875 57.5625 43.546875 
Q 53.515625 38.921875 53.515625 30.90625 
L 53.515625 0 
L 44.484375 0 
L 44.484375 32.71875 
Q 44.484375 40.625 41.703125 44.40625 
Q 38.921875 48.1875 33.109375 48.1875 
Q 26.21875 48.1875 22.15625 43.53125 
Q 18.109375 38.875 18.109375 30.90625 
L 18.109375 0 
L 9.078125 0 
L 9.078125 54.6875 
L 18.109375 54.6875 
L 18.109375 46.1875 
Q 21.1875 51.21875 25.484375 53.609375 
Q 29.78125 56 35.6875 56 
Q 41.65625 56 45.828125 52.96875 
Q 50 49.953125 52 44.1875 
z
" id="DejaVuSans-109"/>
       <path d="M 54.890625 33.015625 
L 54.890625 0 
L 45.90625 0 
L 45.90625 32.71875 
Q 45.90625 40.484375 42.875 44.328125 
Q 39.84375 48.1875 33.796875 48.1875 
Q 26.515625 48.1875 22.3125 43.546875 
Q 18.109375 38.921875 18.109375 30.90625 
L 18.109375 0 
L 9.078125 0 
L 9.078125 54.6875 
L 18.109375 54.6875 
L 18.109375 46.1875 
Q 21.34375 51.125 25.703125 53.5625 
Q 30.078125 56 35.796875 56 
Q 45.21875 56 50.046875 50.171875 
Q 54.890625 44.34375 54.890625 33.015625 
z
" id="DejaVuSans-110"/>
       <path d="M 8.015625 75.875 
L 15.828125 75.875 
Q 23.140625 64.359375 26.78125 53.3125 
Q 30.421875 42.28125 30.421875 31.390625 
Q 30.421875 20.453125 26.78125 9.375 
Q 23.140625 -1.703125 15.828125 -13.1875 
L 8.015625 -13.1875 
Q 14.5 -2 17.703125 9.0625 
Q 20.90625 20.125 20.90625 31.390625 
Q 20.90625 42.671875 17.703125 53.65625 
Q 14.5 64.65625 8.015625 75.875 
z
" id="DejaVuSans-41"/>
      </defs>
      <use xlink:href="#DejaVuSans-108"/>
      <use x="27.783203" xlink:href="#DejaVuSans-111"/>
      <use x="88.964844" xlink:href="#DejaVuSans-103"/>
      <use x="152.441406" xlink:href="#DejaVuSans-49"/>
      <use x="216.064453" xlink:href="#DejaVuSans-48"/>
      <use x="279.6875" xlink:href="#DejaVuSans-40"/>
      <use x="318.701172" xlink:href="#DejaVuSans-35"/>
      <use x="402.490234" xlink:href="#DejaVuSans-32"/>
      <use x="434.277344" xlink:href="#DejaVuSans-102"/>
      <use x="463.982422" xlink:href="#DejaVuSans-45"/>
      <use x="500.066406" xlink:href="#DejaVuSans-101"/>
      <use x="561.589844" xlink:href="#DejaVuSans-118"/>
      <use x="620.769531" xlink:href="#DejaVuSans-97"/>
      <use x="682.048828" xlink:href="#DejaVuSans-108"/>
      <use x="709.832031" xlink:href="#DejaVuSans-115"/>
      <use x="761.931641" xlink:href="#DejaVuSans-32"/>
      <use x="793.71875" xlink:href="#DejaVuSans-47"/>
      <use x="827.410156" xlink:href="#DejaVuSans-32"/>
      <use x="859.197266" xlink:href="#DejaVuSans-100"/>
      <use x="922.673828" xlink:href="#DejaVuSans-105"/>
      <use x="950.457031" xlink:href="#DejaVuSans-109"/>
      <use x="1047.869141" xlink:href="#DejaVuSans-101"/>
      <use x="1109.392578" xlink:href="#DejaVuSans-110"/>
      <use x="1172.771484" xlink:href="#DejaVuSans-115"/>
      <use x="1224.871094" xlink:href="#DejaVuSans-105"/>
      <use x="1252.654297" xlink:href="#DejaVuSans-111"/>
      <use x="1313.835938" xlink:href="#DejaVuSans-110"/>
      <use x="1377.214844" xlink:href="#DejaVuSans-41"/>
     </g>
    </g>
   </g>
   <g id="matplotlib.axis_2">
    <g id="ytick_1">
     <g id="line2d_17">
      <path clip-path="url(#p37605d0707)" d="M 57.6 298.944 
L 338.688 298.944 
" style="fill:none;stroke:#b0b0b0;stroke-linecap:square;stroke-width:0.8;"/>
     </g>
     <g id="line2d_18">
      <defs>
       <path d="M 0 0 
L -3.5 0 
" id="m67b49cf46d" style="stroke:#000000;stroke-width:0.8;"/>
      </defs>
      <g>
       <use style="stroke:#000000;stroke-width:0.8;" x="57.6" xlink:href="#m67b49cf46d" y="298.944"/>
      </g>
     </g>
     <g id="text_6">
      <!-- 0.0 -->
      <g transform="translate(25.155 305.02275)scale(0.16 -0.16)">
       <defs>
        <path d="M 10.6875 12.40625 
L 21 12.40625 
L 21 0 
L 10.6875 0 
z
" id="DejaVuSans-46"/>
       </defs>
       <use xlink:href="#DejaVuSans-48"/>
       <use x="63.623047" xlink:href="#DejaVuSans-46"/>
       <use x="95.410156" xlink:href="#DejaVuSans-48"/>
      </g>
     </g>
    </g>
    <g id="ytick_2">
     <g id="line2d_19">
      <path clip-path="url(#p37605d0707)" d="M 57.6 240.431525 
L 338.688 240.431525 
" style="fill:none;stroke:#b0b0b0;stroke-linecap:square;stroke-width:0.8;"/>
     </g>
     <g id="line2d_20">
      <g>
       <use style="stroke:#000000;stroke-width:0.8;" x="57.6" xlink:href="#m67b49cf46d" y="240.431525"/>
      </g>
     </g>
     <g id="text_7">
      <!-- 0.2 -->
      <g transform="translate(25.155 246.510275)scale(0.16 -0.16)">
       <use xlink:href="#DejaVuSans-48"/>
       <use x="63.623047" xlink:href="#DejaVuSans-46"/>
       <use x="95.410156" xlink:href="#DejaVuSans-50"/>
      </g>
     </g>
    </g>
    <g id="ytick_3">
     <g id="line2d_21">
      <path clip-path="url(#p37605d0707)" d="M 57.6 181.91905 
L 338.688 181.91905 
" style="fill:none;stroke:#b0b0b0;stroke-linecap:square;stroke-width:0.8;"/>
     </g>
     <g id="line2d_22">
      <g>
       <use style="stroke:#000000;stroke-width:0.8;" x="57.6" xlink:href="#m67b49cf46d" y="181.91905"/>
      </g>
     </g>
     <g id="text_8">
      <!-- 0.4 -->
      <g transform="translate(25.155 187.9978)scale(0.16 -0.16)">
       <use xlink:href="#DejaVuSans-48"/>
       <use x="63.623047" xlink:href="#DejaVuSans-46"/>
       <use x="95.410156" xlink:href="#DejaVuSans-52"/>
      </g>
     </g>
    </g>
    <g id="ytick_4">
     <g id="line2d_23">
      <path clip-path="url(#p37605d0707)" d="M 57.6 123.406574 
L 338.688 123.406574 
" style="fill:none;stroke:#b0b0b0;stroke-linecap:square;stroke-width:0.8;"/>
     </g>
     <g id="line2d_24">
      <g>
       <use style="stroke:#000000;stroke-width:0.8;" x="57.6" xlink:href="#m67b49cf46d" y="123.406574"/>
      </g>
     </g>
     <g id="text_9">
      <!-- 0.6 -->
      <g transform="translate(25.155 129.485324)scale(0.16 -0.16)">
       <use xlink:href="#DejaVuSans-48"/>
       <use x="63.623047" xlink:href="#DejaVuSans-46"/>
       <use x="95.410156" xlink:href="#DejaVuSans-54"/>
      </g>
     </g>
    </g>
    <g id="ytick_5">
     <g id="line2d_25">
      <path clip-path="url(#p37605d0707)" d="M 57.6 64.894099 
L 338.688 64.894099 
" style="fill:none;stroke:#b0b0b0;stroke-linecap:square;stroke-width:0.8;"/>
     </g>
     <g id="line2d_26">
      <g>
       <use style="stroke:#000000;stroke-width:0.8;" x="57.6" xlink:href="#m67b49cf46d" y="64.894099"/>
      </g>
     </g>
     <g id="text_10">
      <!-- 0.8 -->
      <g transform="translate(25.155 70.972849)scale(0.16 -0.16)">
       <defs>
        <path d="M 31.78125 34.625 
Q 24.75 34.625 20.71875 30.859375 
Q 16.703125 27.09375 16.703125 20.515625 
Q 16.703125 13.921875 20.71875 10.15625 
Q 24.75 6.390625 31.78125 6.390625 
Q 38.8125 6.390625 42.859375 10.171875 
Q 46.921875 13.96875 46.921875 20.515625 
Q 46.921875 27.09375 42.890625 30.859375 
Q 38.875 34.625 31.78125 34.625 
z
M 21.921875 38.8125 
Q 15.578125 40.375 12.03125 44.71875 
Q 8.5 49.078125 8.5 55.328125 
Q 8.5 64.0625 14.71875 69.140625 
Q 20.953125 74.21875 31.78125 74.21875 
Q 42.671875 74.21875 48.875 69.140625 
Q 55.078125 64.0625 55.078125 55.328125 
Q 55.078125 49.078125 51.53125 44.71875 
Q 48 40.375 41.703125 38.8125 
Q 48.828125 37.15625 52.796875 32.3125 
Q 56.78125 27.484375 56.78125 20.515625 
Q 56.78125 9.90625 50.3125 4.234375 
Q 43.84375 -1.421875 31.78125 -1.421875 
Q 19.734375 -1.421875 13.25 4.234375 
Q 6.78125 9.90625 6.78125 20.515625 
Q 6.78125 27.484375 10.78125 32.3125 
Q 14.796875 37.15625 21.921875 38.8125 
z
M 18.3125 54.390625 
Q 18.3125 48.734375 21.84375 45.5625 
Q 25.390625 42.390625 31.78125 42.390625 
Q 38.140625 42.390625 41.71875 45.5625 
Q 45.3125 48.734375 45.3125 54.390625 
Q 45.3125 60.0625 41.71875 63.234375 
Q 38.140625 66.40625 31.78125 66.40625 
Q 25.390625 66.40625 21.84375 63.234375 
Q 18.3125 60.0625 18.3125 54.390625 
z
" id="DejaVuSans-56"/>
       </defs>
       <use xlink:href="#DejaVuSans-48"/>
       <use x="63.623047" xlink:href="#DejaVuSans-46"/>
       <use x="95.410156" xlink:href="#DejaVuSans-56"/>
      </g>
     </g>
    </g>
    <g id="ytick_6">
     <g id="line2d_27">
      <path clip-path="url(#p37605d0707)" d="M 57.6 6.381624 
L 338.688 6.381624 
" style="fill:none;stroke:#b0b0b0;stroke-linecap:square;stroke-width:0.8;"/>
     </g>
     <g id="line2d_28">
      <g>
       <use style="stroke:#000000;stroke-width:0.8;" x="57.6" xlink:href="#m67b49cf46d" y="6.381624"/>
      </g>
     </g>
     <g id="text_11">
      <!-- 1.0 -->
      <g transform="translate(25.155 12.460374)scale(0.16 -0.16)">
       <use xlink:href="#DejaVuSans-49"/>
       <use x="63.623047" xlink:href="#DejaVuSans-46"/>
       <use x="95.410156" xlink:href="#DejaVuSans-48"/>
      </g>
     </g>
    </g>
    <g id="text_12">
     <!-- Fraction of function,target pairs -->
     <g transform="translate(17.619531 285.585)rotate(-90)scale(0.17 -0.17)">
      <defs>
       <path d="M 9.8125 72.90625 
L 51.703125 72.90625 
L 51.703125 64.59375 
L 19.671875 64.59375 
L 19.671875 43.109375 
L 48.578125 43.109375 
L 48.578125 34.8125 
L 19.671875 34.8125 
L 19.671875 0 
L 9.8125 0 
z
" id="DejaVuSans-70"/>
       <path d="M 41.109375 46.296875 
Q 39.59375 47.171875 37.8125 47.578125 
Q 36.03125 48 33.890625 48 
Q 26.265625 48 22.1875 43.046875 
Q 18.109375 38.09375 18.109375 28.8125 
L 18.109375 0 
L 9.078125 0 
L 9.078125 54.6875 
L 18.109375 54.6875 
L 18.109375 46.1875 
Q 20.953125 51.171875 25.484375 53.578125 
Q 30.03125 56 36.53125 56 
Q 37.453125 56 38.578125 55.875 
Q 39.703125 55.765625 41.0625 55.515625 
z
" id="DejaVuSans-114"/>
       <path d="M 48.78125 52.59375 
L 48.78125 44.1875 
Q 44.96875 46.296875 41.140625 47.34375 
Q 37.3125 48.390625 33.40625 48.390625 
Q 24.65625 48.390625 19.8125 42.84375 
Q 14.984375 37.3125 14.984375 27.296875 
Q 14.984375 17.28125 19.8125 11.734375 
Q 24.65625 6.203125 33.40625 6.203125 
Q 37.3125 6.203125 41.140625 7.25 
Q 44.96875 8.296875 48.78125 10.40625 
L 48.78125 2.09375 
Q 45.015625 0.34375 40.984375 -0.53125 
Q 36.96875 -1.421875 32.421875 -1.421875 
Q 20.0625 -1.421875 12.78125 6.34375 
Q 5.515625 14.109375 5.515625 27.296875 
Q 5.515625 40.671875 12.859375 48.328125 
Q 20.21875 56 33.015625 56 
Q 37.15625 56 41.109375 55.140625 
Q 45.0625 54.296875 48.78125 52.59375 
z
" id="DejaVuSans-99"/>
       <path d="M 18.3125 70.21875 
L 18.3125 54.6875 
L 36.8125 54.6875 
L 36.8125 47.703125 
L 18.3125 47.703125 
L 18.3125 18.015625 
Q 18.3125 11.328125 20.140625 9.421875 
Q 21.96875 7.515625 27.59375 7.515625 
L 36.8125 7.515625 
L 36.8125 0 
L 27.59375 0 
Q 17.1875 0 13.234375 3.875 
Q 9.28125 7.765625 9.28125 18.015625 
L 9.28125 47.703125 
L 2.6875 47.703125 
L 2.6875 54.6875 
L 9.28125 54.6875 
L 9.28125 70.21875 
z
" id="DejaVuSans-116"/>
       <path d="M 8.5 21.578125 
L 8.5 54.6875 
L 17.484375 54.6875 
L 17.484375 21.921875 
Q 17.484375 14.15625 20.5 10.265625 
Q 23.53125 6.390625 29.59375 6.390625 
Q 36.859375 6.390625 41.078125 11.03125 
Q 45.3125 15.671875 45.3125 23.6875 
L 45.3125 54.6875 
L 54.296875 54.6875 
L 54.296875 0 
L 45.3125 0 
L 45.3125 8.40625 
Q 42.046875 3.421875 37.71875 1 
Q 33.40625 -1.421875 27.6875 -1.421875 
Q 18.265625 -1.421875 13.375 4.4375 
Q 8.5 10.296875 8.5 21.578125 
z
M 31.109375 56 
z
" id="DejaVuSans-117"/>
       <path d="M 11.71875 12.40625 
L 22.015625 12.40625 
L 22.015625 4 
L 14.015625 -11.625 
L 7.71875 -11.625 
L 11.71875 4 
z
" id="DejaVuSans-44"/>
       <path d="M 18.109375 8.203125 
L 18.109375 -20.796875 
L 9.078125 -20.796875 
L 9.078125 54.6875 
L 18.109375 54.6875 
L 18.109375 46.390625 
Q 20.953125 51.265625 25.265625 53.625 
Q 29.59375 56 35.59375 56 
Q 45.5625 56 51.78125 48.09375 
Q 58.015625 40.1875 58.015625 27.296875 
Q 58.015625 14.40625 51.78125 6.484375 
Q 45.5625 -1.421875 35.59375 -1.421875 
Q 29.59375 -1.421875 25.265625 0.953125 
Q 20.953125 3.328125 18.109375 8.203125 
z
M 48.6875 27.296875 
Q 48.6875 37.203125 44.609375 42.84375 
Q 40.53125 48.484375 33.40625 48.484375 
Q 26.265625 48.484375 22.1875 42.84375 
Q 18.109375 37.203125 18.109375 27.296875 
Q 18.109375 17.390625 22.1875 11.75 
Q 26.265625 6.109375 33.40625 6.109375 
Q 40.53125 6.109375 44.609375 11.75 
Q 48.6875 17.390625 48.6875 27.296875 
z
" id="DejaVuSans-112"/>
      </defs>
      <use xlink:href="#DejaVuSans-70"/>
      <use x="50.269531" xlink:href="#DejaVuSans-114"/>
      <use x="91.382812" xlink:href="#DejaVuSans-97"/>
      <use x="152.662109" xlink:href="#DejaVuSans-99"/>
      <use x="207.642578" xlink:href="#DejaVuSans-116"/>
      <use x="246.851562" xlink:href="#DejaVuSans-105"/>
      <use x="274.634766" xlink:href="#DejaVuSans-111"/>
      <use x="335.816406" xlink:href="#DejaVuSans-110"/>
      <use x="399.195312" xlink:href="#DejaVuSans-32"/>
      <use x="430.982422" xlink:href="#DejaVuSans-111"/>
      <use x="492.164062" xlink:href="#DejaVuSans-102"/>
      <use x="527.369141" xlink:href="#DejaVuSans-32"/>
      <use x="559.15625" xlink:href="#DejaVuSans-102"/>
      <use x="594.361328" xlink:href="#DejaVuSans-117"/>
      <use x="657.740234" xlink:href="#DejaVuSans-110"/>
      <use x="721.119141" xlink:href="#DejaVuSans-99"/>
      <use x="776.099609" xlink:href="#DejaVuSans-116"/>
      <use x="815.308594" xlink:href="#DejaVuSans-105"/>
      <use x="843.091797" xlink:href="#DejaVuSans-111"/>
      <use x="904.273438" xlink:href="#DejaVuSans-110"/>
      <use x="967.652344" xlink:href="#DejaVuSans-44"/>
      <use x="999.439453" xlink:href="#DejaVuSans-116"/>
      <use x="1038.648438" xlink:href="#DejaVuSans-97"/>
      <use x="1099.927734" xlink:href="#DejaVuSans-114"/>
      <use x="1139.291016" xlink:href="#DejaVuSans-103"/>
      <use x="1202.767578" xlink:href="#DejaVuSans-101"/>
      <use x="1264.291016" xlink:href="#DejaVuSans-116"/>
      <use x="1303.5" xlink:href="#DejaVuSans-32"/>
      <use x="1335.287109" xlink:href="#DejaVuSans-112"/>
      <use x="1398.763672" xlink:href="#DejaVuSans-97"/>
      <use x="1460.042969" xlink:href="#DejaVuSans-105"/>
      <use x="1487.826172" xlink:href="#DejaVuSans-114"/>
      <use x="1528.939453" xlink:href="#DejaVuSans-115"/>
     </g>
    </g>
   </g>
   <g id="line2d_29">
    <defs>
     <path d="M 0 1.5 
C 0.397805 1.5 0.77937 1.341951 1.06066 1.06066 
C 1.341951 0.77937 1.5 0.397805 1.5 0 
C 1.5 -0.397805 1.341951 -0.77937 1.06066 -1.06066 
C 0.77937 -1.341951 0.397805 -1.5 0 -1.5 
C -0.397805 -1.5 -0.77937 -1.341951 -1.06066 -1.06066 
C -1.341951 -0.77937 -1.5 -0.397805 -1.5 0 
C -1.5 0.397805 -1.341951 0.77937 -1.06066 1.06066 
C -0.77937 1.341951 -0.397805 1.5 0 1.5 
z
" id="m32ffe1a75b" style="stroke:#000080;"/>
    </defs>
    <g>
     <use style="fill:#000080;stroke:#000080;" x="168.835167" xlink:href="#m32ffe1a75b" y="6.381624"/>
     <use style="fill:#000080;stroke:#000080;" x="168.835167" xlink:href="#m32ffe1a75b" y="6.381624"/>
    </g>
   </g>
   <g id="line2d_30">
    <path d="M 91.535274 298.944 
L 91.535274 296.075741 
L 105.951954 296.075741 
L 105.951954 294.354786 
L 107.514726 294.354786 
L 107.514726 293.781135 
L 110.694282 293.781135 
L 110.694282 292.060179 
L 113.022974 292.060179 
L 113.022974 291.486528 
L 113.382559 291.486528 
L 113.382559 289.191921 
L 116.621333 289.191921 
L 116.621333 288.618269 
L 120.093994 288.618269 
L 120.093994 286.323662 
L 120.33454 286.323662 
L 120.33454 285.75001 
L 121.931406 285.75001 
L 121.931406 284.029055 
L 124.178158 284.029055 
L 124.178158 279.439842 
L 126.168212 279.439842 
L 126.168212 278.86619 
L 126.839037 278.86619 
L 126.839037 277.145235 
L 127.325746 277.145235 
L 127.325746 275.997931 
L 127.642832 275.997931 
L 127.642832 273.129673 
L 128.709321 273.129673 
L 128.709321 272.556021 
L 130.127931 272.556021 
L 130.127931 271.982369 
L 132.060454 271.982369 
L 132.060454 271.408718 
L 132.181982 271.408718 
L 132.181982 270.261414 
L 133.689303 270.261414 
L 133.689303 269.114111 
L 134.236034 269.114111 
L 134.343353 267.393156 
L 134.661403 267.393156 
L 134.661403 266.245852 
L 135.582166 266.245852 
L 135.582166 265.6722 
L 136.831795 265.6722 
L 136.924311 263.951245 
L 137.289545 263.951245 
L 137.289545 261.082987 
L 138.84457 261.082987 
L 138.84457 260.509335 
L 139.8092 260.509335 
L 139.8092 259.935683 
L 139.964909 259.935683 
L 140.042245 258.78838 
L 140.195896 258.78838 
L 140.272217 256.493773 
L 140.574203 256.493773 
L 140.574203 255.920121 
L 140.79731 255.920121 
L 140.79731 253.625514 
L 147.86833 253.625514 
L 147.86833 253.051863 
L 148.161434 253.051863 
L 148.161434 252.478211 
L 148.919783 252.478211 
L 148.966103 251.330907 
L 149.15016 251.330907 
L 149.15016 250.757256 
L 149.286939 250.757256 
L 149.286939 250.183604 
L 149.422654 250.183604 
L 149.422654 247.888997 
L 149.557321 247.888997 
L 149.557321 246.168042 
L 149.867558 246.168042 
L 149.867558 245.59439 
L 150.129152 245.59439 
L 150.129152 245.020738 
L 150.344189 245.020738 
L 150.344189 244.447087 
L 150.47195 244.447087 
L 150.47195 243.873435 
L 150.724698 243.873435 
L 150.724698 243.299783 
L 151.178764 243.299783 
L 151.178764 242.15248 
L 151.340991 242.15248 
L 151.381313 240.431525 
L 151.581536 240.431525 
L 151.581536 237.563266 
L 152.091608 237.563266 
L 152.091608 236.989614 
L 152.322086 236.989614 
L 152.322086 235.268659 
L 152.736878 235.268659 
L 152.774102 233.547704 
L 152.995791 233.547704 
L 152.995791 231.826749 
L 153.178403 231.826749 
L 153.214697 224.942928 
L 153.359122 224.942928 
L 153.430889 223.795625 
L 153.679772 223.795625 
L 153.679772 223.221973 
L 154.029268 223.221973 
L 154.132765 216.338153 
L 154.269814 216.338153 
L 154.371897 215.190849 
L 154.473387 215.190849 
L 154.473387 211.175287 
L 154.607795 211.175287 
L 154.607795 210.027984 
L 154.741174 210.027984 
L 154.741174 209.454332 
L 155.004911 209.454332 
L 155.0376 207.159725 
L 155.167744 207.159725 
L 155.264719 204.291467 
L 155.61575 204.291467 
L 155.710272 200.849556 
L 155.773004 200.849556 
L 155.83551 196.833994 
L 156.021696 196.833994 
L 156.083319 193.965736 
L 156.236431 193.965736 
L 156.327657 192.24478 
L 156.418408 192.24478 
L 156.478647 184.213656 
L 156.806295 184.213656 
L 156.806295 183.066353 
L 156.98245 183.066353 
L 156.98245 180.771746 
L 157.1279 180.771746 
L 157.185742 177.329836 
L 157.272146 177.329836 
L 157.300853 176.182532 
L 157.415209 176.182532 
L 157.415209 175.035229 
L 157.641697 175.035229 
L 157.669802 171.593319 
L 157.781772 171.593319 
L 157.86528 169.298712 
L 157.94839 169.298712 
L 157.976006 167.004105 
L 158.140788 167.004105 
L 158.249784 162.414891 
L 158.276927 162.414891 
L 158.331086 161.267588 
L 158.412011 161.267588 
L 158.51933 158.972981 
L 158.75841 158.972981 
L 158.83738 155.53107 
L 158.889829 155.53107 
L 158.994256 149.220902 
L 159.123917 149.220902 
L 159.226956 137.174215 
L 159.32939 137.174215 
L 159.32939 136.600564 
L 159.557689 136.600564 
L 159.557689 136.026912 
L 159.683242 136.026912 
L 159.708245 134.305957 
L 159.832723 134.305957 
L 159.832723 133.732305 
L 159.956318 133.732305 
L 160.005512 130.290395 
L 160.127894 130.290395 
L 160.200913 126.274833 
L 160.273627 126.274833 
L 160.37011 122.259271 
L 160.394148 122.259271 
L 160.418152 121.111967 
L 160.56149 121.111967 
L 160.656397 118.817361 
L 160.680044 118.817361 
L 160.680044 115.949102 
L 160.821253 115.949102 
L 160.891432 114.801798 
L 160.938061 114.801798 
L 161.007772 109.065281 
L 161.100288 109.065281 
L 161.12334 106.770674 
L 161.374928 106.770674 
L 161.442917 105.049719 
L 161.488097 105.049719 
L 161.578106 99.313202 
L 161.600536 99.313202 
L 161.689969 88.413819 
L 161.84538 88.413819 
L 161.955547 84.971909 
L 162.065021 84.971909 
L 162.173813 78.66174 
L 162.19549 78.66174 
L 162.260361 77.514437 
L 162.324991 77.514437 
L 162.432178 76.367133 
L 162.453536 76.367133 
L 162.496175 74.072526 
L 162.581141 74.072526 
L 162.644595 66.615054 
L 162.749842 66.615054 
L 162.833584 65.467751 
L 162.875305 65.467751 
L 162.958448 60.878537 
L 162.999872 60.878537 
L 163.082425 59.157582 
L 163.205526 59.157582 
L 163.205526 55.14202 
L 163.569701 55.14202 
L 163.569701 52.273761 
L 163.847782 52.273761 
L 163.847782 51.700109 
L 163.985177 51.700109 
L 164.043731 50.552806 
L 164.102088 50.552806 
L 164.102088 48.831851 
L 164.237502 48.831851 
L 164.314412 41.374379 
L 164.486229 41.374379 
L 164.524182 36.785165 
L 164.599841 36.785165 
L 164.618704 32.195951 
L 164.768882 32.195951 
L 164.843488 30.474996 
L 165.211808 30.474996 
L 165.211808 29.327692 
L 165.338904 29.327692 
L 165.338904 26.459434 
L 165.518877 26.459434 
L 165.518877 25.31213 
L 165.697012 25.31213 
L 165.785402 19.001962 
L 166.442913 19.001962 
L 166.544502 12.118141 
L 166.895472 12.118141 
L 166.96153 8.102579 
L 168.491304 8.102579 
L 168.491304 6.955275 
L 168.835167 6.955275 
L 168.835167 6.381624 
L 338.688 6.381624 
L 338.688 6.381624 
" style="fill:none;stroke:#000080;stroke-linecap:square;stroke-width:1.5;"/>
   </g>
   <g id="line2d_31">
    <defs>
     <path d="M 0 6 
C 1.591219 6 3.117479 5.367802 4.242641 4.242641 
C 5.367802 3.117479 6 1.591219 6 0 
C 6 -1.591219 5.367802 -3.117479 4.242641 -4.242641 
C 3.117479 -5.367802 1.591219 -6 0 -6 
C -1.591219 -6 -3.117479 -5.367802 -4.242641 -4.242641 
C -5.367802 -3.117479 -6 -1.591219 -6 0 
C -6 1.591219 -5.367802 3.117479 -4.242641 4.242641 
C -3.117479 5.367802 -1.591219 6 0 6 
z
" id="m2f7cad4b59" style="stroke:#000080;stroke-width:1.5;"/>
    </defs>
    <g>
     <use style="fill-opacity:0;stroke:#000080;stroke-width:1.5;" x="157.185742" xlink:href="#m2f7cad4b59" y="177.329836"/>
     <use style="fill-opacity:0;stroke:#000080;stroke-width:1.5;" x="168.835167" xlink:href="#m2f7cad4b59" y="6.955275"/>
     <use style="fill-opacity:0;stroke:#000080;stroke-width:1.5;" x="168.835167" xlink:href="#m2f7cad4b59" y="6.381624"/>
     <use style="fill-opacity:0;stroke:#000080;stroke-width:1.5;" x="168.835167" xlink:href="#m2f7cad4b59" y="6.381624"/>
     <use style="fill-opacity:0;stroke:#000080;stroke-width:1.5;" x="338.688" xlink:href="#m2f7cad4b59" y="6.381624"/>
    </g>
   </g>
   <g id="line2d_32">
    <path style="fill:none;stroke:#000080;stroke-linecap:square;stroke-width:1.5;"/>
    <g/>
   </g>
   <g id="line2d_33">
    <defs>
     <path d="M 0 1.5 
C 0.397805 1.5 0.77937 1.341951 1.06066 1.06066 
C 1.341951 0.77937 1.5 0.397805 1.5 0 
C 1.5 -0.397805 1.341951 -0.77937 1.06066 -1.06066 
C 0.77937 -1.341951 0.397805 -1.5 0 -1.5 
C -0.397805 -1.5 -0.77937 -1.341951 -1.06066 -1.06066 
C -1.341951 -0.77937 -1.5 -0.397805 -1.5 0 
C -1.5 0.397805 -1.341951 0.77937 -1.06066 1.06066 
C -0.77937 1.341951 -0.397805 1.5 0 1.5 
z
" id="mf112111b37" style="stroke:#ff00ff;"/>
    </defs>
    <g>
     <use style="fill:#ff00ff;stroke:#ff00ff;" x="168.731229" xlink:href="#mf112111b37" y="6.381624"/>
     <use style="fill:#ff00ff;stroke:#ff00ff;" x="168.731229" xlink:href="#mf112111b37" y="6.381624"/>
    </g>
   </g>
   <g id="line2d_34">
    <path d="M 83.830028 298.944 
L 83.830028 298.370348 
L 102.989037 298.370348 
L 102.989037 296.649393 
L 106.48859 296.649393 
L 106.48859 294.354786 
L 108.483824 294.354786 
L 108.483824 291.486528 
L 109.843417 291.486528 
L 109.843417 289.765573 
L 114.080224 289.765573 
L 114.080224 288.618269 
L 116.621333 288.618269 
L 116.621333 287.470966 
L 117.765302 287.470966 
L 117.765302 286.897314 
L 120.8059 286.897314 
L 120.8059 286.323662 
L 122.988655 286.323662 
L 122.988655 283.455404 
L 126.338353 283.455404 
L 126.338353 282.3081 
L 127.954256 282.3081 
L 127.954256 281.734448 
L 128.107907 281.734448 
L 128.107907 280.587145 
L 129.433047 280.587145 
L 129.433047 279.439842 
L 129.853291 279.439842 
L 129.853291 278.292538 
L 130.796184 278.292538 
L 130.796184 277.145235 
L 131.439773 277.145235 
L 131.439773 276.571583 
L 132.659801 276.571583 
L 132.659801 275.42428 
L 133.009765 275.42428 
L 133.009765 272.556021 
L 133.352844 272.556021 
L 133.352844 271.408718 
L 133.689303 271.408718 
L 133.800029 267.393156 
L 134.236034 267.393156 
L 134.236034 266.819504 
L 134.973757 266.819504 
L 134.973757 264.524897 
L 135.280614 264.524897 
L 135.280614 263.951245 
L 135.582166 263.951245 
L 135.582166 262.803942 
L 135.780341 262.803942 
L 135.780341 260.509335 
L 136.170062 260.509335 
L 136.170062 259.935683 
L 137.997836 259.935683 
L 137.997836 257.067425 
L 138.84457 257.067425 
L 138.84457 256.493773 
L 139.333553 256.493773 
L 139.333553 255.920121 
L 140.042245 255.920121 
L 140.042245 254.772818 
L 141.090414 254.772818 
L 141.090414 254.199166 
L 141.591783 254.199166 
L 141.591783 253.625514 
L 142.818488 253.625514 
L 142.818488 252.478211 
L 143.590833 252.478211 
L 143.590833 251.904559 
L 143.964547 251.904559 
L 143.964547 251.330907 
L 145.665858 251.330907 
L 145.665858 250.757256 
L 148.161434 250.757256 
L 148.161434 250.183604 
L 149.377533 250.183604 
L 149.377533 249.609952 
L 149.867558 249.609952 
L 149.867558 249.036301 
L 150.129152 249.036301 
L 150.215485 245.020738 
L 151.818809 245.020738 
L 151.818809 243.873435 
L 151.936246 243.873435 
L 151.975216 242.726132 
L 152.511852 242.726132 
L 152.511852 242.15248 
L 152.736878 242.15248 
L 152.774102 240.431525 
L 152.922207 240.431525 
L 152.922207 238.136918 
L 153.069065 238.136918 
L 153.142033 236.989614 
L 153.609024 236.989614 
L 153.715038 234.121356 
L 153.785358 234.121356 
L 153.855395 230.105794 
L 154.098334 230.105794 
L 154.132765 226.663884 
L 154.269814 226.663884 
L 154.269814 225.51658 
L 154.405793 225.51658 
L 154.473387 220.927366 
L 154.57429 220.927366 
L 154.674612 218.059108 
L 154.707925 218.059108 
L 154.807483 212.322591 
L 154.93935 212.322591 
L 154.93935 210.601635 
L 155.102793 210.601635 
L 155.135299 209.454332 
L 155.264719 209.454332 
L 155.264719 208.307029 
L 155.710272 208.307029 
L 155.804285 200.275904 
L 156.021696 200.275904 
L 156.083319 199.128601 
L 156.175347 199.128601 
L 156.175347 197.981298 
L 156.297301 197.981298 
L 156.357959 196.260342 
L 156.508689 196.260342 
L 156.598505 193.965736 
L 156.687861 193.965736 
L 156.747178 189.950174 
L 156.98245 189.950174 
L 157.040776 185.934612 
L 157.185742 185.934612 
L 157.185742 185.36096 
L 157.300853 185.36096 
L 157.300853 184.787308 
L 157.415209 184.787308 
L 157.472107 182.492701 
L 157.528821 182.492701 
L 157.557108 178.477139 
L 157.669802 178.477139 
L 157.753847 165.28315 
L 157.781772 165.28315 
L 157.86528 162.988543 
L 158.003578 162.988543 
L 158.031107 161.841239 
L 158.222599 161.841239 
L 158.276927 160.120284 
L 158.438903 160.120284 
L 158.492562 155.53107 
L 158.599388 155.53107 
L 158.705563 147.499946 
L 158.75841 147.499946 
L 158.863624 143.484384 
L 158.915995 143.484384 
L 158.968208 141.189778 
L 159.046236 141.189778 
L 159.072168 137.747867 
L 159.201253 137.747867 
L 159.278248 130.864047 
L 159.380382 130.864047 
L 159.405822 129.716743 
L 159.608019 129.716743 
L 159.708245 127.995788 
L 159.956318 127.995788 
L 159.956318 126.848485 
L 160.079044 126.848485 
L 160.152267 122.259271 
L 160.225184 122.259271 
L 160.321935 117.096405 
L 160.537682 117.096405 
L 160.537682 114.801798 
L 160.656397 114.801798 
L 160.750792 110.212585 
L 160.774311 110.212585 
L 160.86807 106.197023 
L 160.984566 106.197023 
L 161.030947 102.181461 
L 161.12334 102.181461 
L 161.12334 100.460506 
L 161.238149 100.460506 
L 161.238149 99.313202 
L 161.374928 99.313202 
L 161.465522 91.282078 
L 161.488097 91.282078 
L 161.578106 84.398257 
L 161.600536 84.398257 
L 161.667653 81.529999 
L 161.801118 81.529999 
L 161.84538 79.809044 
L 161.933569 79.809044 
L 162.043181 73.498875 
L 162.065021 73.498875 
L 162.152109 70.056964 
L 162.238764 70.056964 
L 162.324991 67.188706 
L 162.474869 67.188706 
L 162.559939 62.02584 
L 162.770815 62.02584 
L 162.854457 60.304885 
L 162.958448 60.304885 
L 163.061823 56.289323 
L 163.082425 56.289323 
L 163.082425 54.568368 
L 163.205526 54.568368 
L 163.205526 51.126458 
L 163.449152 51.126458 
L 163.52961 42.521682 
L 163.569701 42.521682 
L 163.669525 38.50612 
L 163.689421 38.50612 
L 163.729146 35.06421 
L 163.808326 35.06421 
L 163.906798 33.343255 
L 163.985177 33.343255 
L 163.985177 32.769603 
L 164.276 32.769603 
L 164.333587 31.048648 
L 164.390984 31.048648 
L 164.390984 29.901344 
L 164.524182 29.901344 
L 164.618704 26.459434 
L 164.9363 26.459434 
L 164.991751 24.164827 
L 165.266391 24.164827 
L 165.266391 19.001962 
L 165.625977 19.001962 
L 165.732422 14.412748 
L 166.186323 14.412748 
L 166.186323 13.839096 
L 166.476842 13.839096 
L 166.476842 12.691793 
L 167.892273 12.691793 
L 167.892273 12.118141 
L 168.047843 12.118141 
L 168.094245 9.823534 
L 168.415645 9.823534 
L 168.415645 8.676231 
L 168.551595 8.676231 
L 168.551595 8.102579 
L 168.731229 8.102579 
L 168.731229 6.381624 
L 338.688 6.381624 
L 338.688 6.381624 
" style="fill:none;stroke:#ff00ff;stroke-linecap:square;stroke-width:1.5;"/>
   </g>
   <g id="line2d_35">
    <defs>
     <path d="M -0 8.485281 
L 5.091169 0 
L 0 -8.485281 
L -5.091169 -0 
z
" id="m057872d807" style="stroke:#ff00ff;stroke-linejoin:miter;stroke-width:1.5;"/>
    </defs>
    <g>
     <use style="fill-opacity:0;stroke:#ff00ff;stroke-linejoin:miter;stroke-width:1.5;" x="158.705563" xlink:href="#m057872d807" y="147.499946"/>
     <use style="fill-opacity:0;stroke:#ff00ff;stroke-linejoin:miter;stroke-width:1.5;" x="168.731229" xlink:href="#m057872d807" y="8.102579"/>
     <use style="fill-opacity:0;stroke:#ff00ff;stroke-linejoin:miter;stroke-width:1.5;" x="168.731229" xlink:href="#m057872d807" y="6.381624"/>
     <use style="fill-opacity:0;stroke:#ff00ff;stroke-linejoin:miter;stroke-width:1.5;" x="168.731229" xlink:href="#m057872d807" y="6.381624"/>
     <use style="fill-opacity:0;stroke:#ff00ff;stroke-linejoin:miter;stroke-width:1.5;" x="338.688" xlink:href="#m057872d807" y="6.381624"/>
    </g>
   </g>
   <g id="line2d_36">
    <path style="fill:none;stroke:#ff00ff;stroke-linecap:square;stroke-width:1.5;"/>
    <g/>
   </g>
   <g id="line2d_37">
    <defs>
     <path d="M 0 1.5 
C 0.397805 1.5 0.77937 1.341951 1.06066 1.06066 
C 1.341951 0.77937 1.5 0.397805 1.5 0 
C 1.5 -0.397805 1.341951 -0.77937 1.06066 -1.06066 
C 0.77937 -1.341951 0.397805 -1.5 0 -1.5 
C -0.397805 -1.5 -0.77937 -1.341951 -1.06066 -1.06066 
C -1.341951 -0.77937 -1.5 -0.397805 -1.5 0 
C -1.5 0.397805 -1.341951 0.77937 -1.06066 1.06066 
C -0.77937 1.341951 -0.397805 1.5 0 1.5 
z
" id="m096adb93b5" style="stroke:#ff7500;"/>
    </defs>
    <g>
     <use style="fill:#ff7500;stroke:#ff7500;" x="210.672912" xlink:href="#m096adb93b5" y="6.381624"/>
     <use style="fill:#ff7500;stroke:#ff7500;" x="210.672912" xlink:href="#m096adb93b5" y="6.381624"/>
    </g>
   </g>
   <g id="line2d_38">
    <path d="M 108.006005 298.944 
L 108.006005 297.796697 
L 112.280765 297.796697 
L 112.280765 296.649393 
L 112.655818 296.649393 
L 112.655818 294.928438 
L 115.397021 294.928438 
L 115.397021 293.781135 
L 117.202696 293.781135 
L 117.202696 293.207483 
L 117.765302 293.207483 
L 117.765302 290.339224 
L 118.310324 290.339224 
L 118.310324 287.470966 
L 118.838828 287.470966 
L 118.838828 286.897314 
L 120.33454 286.897314 
L 120.33454 286.323662 
L 121.036887 286.323662 
L 121.036887 285.75001 
L 121.931406 285.75001 
L 121.931406 284.029055 
L 122.988655 284.029055 
L 122.988655 282.881752 
L 125.110962 282.881752 
L 125.110962 281.734448 
L 126.338353 281.734448 
L 126.338353 281.160797 
L 126.50685 281.160797 
L 126.50685 280.587145 
L 127.954256 280.587145 
L 127.954256 279.439842 
L 128.260216 279.439842 
L 128.260216 277.145235 
L 130.127931 277.145235 
L 130.127931 275.997931 
L 130.263646 275.997931 
L 130.263646 274.850628 
L 132.777237 274.850628 
L 132.777237 274.276976 
L 133.239232 274.276976 
L 133.239232 273.703324 
L 133.46572 273.703324 
L 133.46572 271.982369 
L 133.689303 271.982369 
L 133.689303 267.966807 
L 134.661403 267.966807 
L 134.661403 266.245852 
L 135.076644 266.245852 
L 135.076644 265.6722 
L 136.073445 265.6722 
L 136.073445 265.098549 
L 136.456742 265.098549 
L 136.456742 264.524897 
L 136.645276 264.524897 
L 136.645276 263.951245 
L 137.823442 263.951245 
L 137.823442 261.656638 
L 138.341479 261.656638 
L 138.341479 260.509335 
L 138.67848 260.509335 
L 138.67848 258.214728 
L 140.042245 258.214728 
L 140.042245 257.641076 
L 140.348205 257.641076 
L 140.348205 255.346469 
L 141.017599 255.346469 
L 141.017599 254.199166 
L 141.662245 254.199166 
L 141.662245 253.625514 
L 142.486301 253.625514 
L 142.486301 253.051863 
L 143.208936 253.051863 
L 143.208936 252.478211 
L 143.590833 252.478211 
L 143.590833 251.904559 
L 143.716296 251.904559 
L 143.716296 251.330907 
L 144.688773 251.330907 
L 144.688773 250.757256 
L 145.097753 250.757256 
L 145.097753 250.183604 
L 147.71991 250.183604 
L 147.71991 249.609952 
L 147.96658 249.609952 
L 147.96658 249.036301 
L 149.286939 249.036301 
L 149.377533 247.888997 
L 149.557321 247.888997 
L 149.557321 245.020738 
L 149.867558 245.020738 
L 149.867558 244.447087 
L 150.042389 244.447087 
L 150.042389 241.578828 
L 150.973835 241.578828 
L 150.973835 241.005176 
L 151.660987 241.005176 
L 151.660987 240.431525 
L 151.897188 240.431525 
L 151.975216 238.71057 
L 152.511852 238.71057 
L 152.511852 236.415963 
L 152.624728 236.415963 
L 152.624728 235.268659 
L 152.736878 235.268659 
L 152.736878 234.695008 
L 152.848312 234.695008 
L 152.848312 231.826749 
L 153.105587 231.826749 
L 153.142033 230.105794 
L 153.466662 230.105794 
L 153.537988 224.942928 
L 153.644434 224.942928 
L 153.750233 223.795625 
L 154.098334 223.795625 
L 154.201424 218.059108 
L 154.57429 218.059108 
L 154.57429 216.911804 
L 154.707925 216.911804 
L 154.77436 215.190849 
L 154.873541 215.190849 
L 154.873541 214.617197 
L 155.0376 214.617197 
L 155.0376 212.896242 
L 155.167744 212.896242 
L 155.264719 209.454332 
L 155.361158 209.454332 
L 155.361158 207.159725 
L 155.584129 207.159725 
L 155.584129 206.586073 
L 155.741666 206.586073 
L 155.83551 204.291467 
L 155.86668 204.291467 
L 155.959855 201.423208 
L 156.052535 201.423208 
L 156.052535 195.113039 
L 156.205916 195.113039 
L 156.236431 192.24478 
L 156.327657 192.24478 
L 156.418408 189.376522 
L 156.568618 189.376522 
L 156.658127 188.229218 
L 156.776762 188.229218 
L 156.835778 186.508263 
L 156.953214 186.508263 
L 156.953214 185.36096 
L 157.098907 185.36096 
L 157.185742 181.91905 
L 157.214591 181.91905 
L 157.300853 180.198094 
L 157.38669 180.198094 
L 157.38669 179.624443 
L 157.500487 179.624443 
L 157.58535 176.182532 
L 157.809652 176.182532 
L 157.837488 173.314274 
L 157.976006 173.314274 
L 158.058592 171.593319 
L 158.113432 171.593319 
L 158.168101 165.856801 
L 158.249784 165.856801 
L 158.331086 162.414891 
L 158.438903 162.414891 
L 158.438903 161.841239 
L 158.625992 161.841239 
L 158.625992 161.267588 
L 158.75841 161.267588 
L 158.83738 159.546632 
L 158.915995 159.546632 
L 158.994256 157.825677 
L 159.098062 157.825677 
L 159.175513 156.104722 
L 159.32939 156.104722 
L 159.380382 153.810115 
L 159.608019 153.810115 
L 159.708245 151.515508 
L 159.956318 151.515508 
L 159.956318 149.220902 
L 160.656397 149.220902 
L 160.750792 144.058036 
L 160.774311 144.058036 
L 160.774311 143.484384 
L 160.938061 143.484384 
L 161.007772 141.189778 
L 161.054091 141.189778 
L 161.146363 137.174215 
L 161.238149 137.174215 
L 161.329454 134.305957 
L 161.374928 134.305957 
L 161.374928 133.732305 
L 161.488097 133.732305 
L 161.578106 128.56944 
L 161.64531 128.56944 
L 161.64531 127.995788 
L 161.84538 127.995788 
L 161.933569 124.553878 
L 162.152109 124.553878 
L 162.260361 122.832923 
L 162.281931 122.832923 
L 162.281931 119.964664 
L 162.644595 119.964664 
L 162.728843 118.243709 
L 162.770815 118.243709 
L 162.854457 115.949102 
L 162.896128 115.949102 
L 162.999872 113.080843 
L 163.020547 113.080843 
L 163.082425 111.359888 
L 163.287113 111.359888 
L 163.368321 108.49163 
L 163.50953 108.49163 
L 163.549667 103.328764 
L 163.669525 103.328764 
L 163.669525 95.29764 
L 164.140886 95.29764 
L 164.237502 88.987471 
L 164.410075 88.987471 
L 164.410075 88.413819 
L 164.86209 88.413819 
L 164.86209 87.840168 
L 165.284547 87.840168 
L 165.338904 84.971909 
L 165.625977 84.971909 
L 165.625977 83.250954 
L 166.030537 83.250954 
L 166.030537 82.677302 
L 166.186323 82.677302 
L 166.186323 80.956347 
L 166.493781 80.956347 
L 166.493781 78.66174 
L 166.712511 78.66174 
L 166.712511 78.088089 
L 166.862349 78.088089 
L 166.895472 76.367133 
L 166.978005 76.367133 
L 166.978005 75.793482 
L 167.125588 75.793482 
L 167.207042 74.072526 
L 167.320442 74.072526 
L 167.320442 69.483313 
L 167.43311 69.483313 
L 167.43311 68.336009 
L 167.576907 68.336009 
L 167.656285 67.188706 
L 168.001318 67.188706 
L 168.094245 65.467751 
L 168.324419 65.467751 
L 168.415645 63.173144 
L 168.521475 63.173144 
L 168.521475 62.02584 
L 168.731229 62.02584 
L 168.820356 60.304885 
L 168.879523 60.304885 
L 168.879523 57.436627 
L 168.997257 57.436627 
L 168.997257 56.862975 
L 169.431813 56.862975 
L 169.431813 54.568368 
L 170.378471 54.568368 
L 170.459584 52.847413 
L 170.780315 52.847413 
L 170.780315 52.273761 
L 170.951613 52.273761 
L 170.951613 51.126458 
L 172.142557 51.126458 
L 172.142557 50.552806 
L 179.768016 50.552806 
L 179.768016 49.979154 
L 180.511214 49.979154 
L 180.511214 49.405503 
L 181.22403 49.405503 
L 181.22403 48.831851 
L 181.697718 48.831851 
L 181.697718 48.258199 
L 182.788672 48.258199 
L 182.788672 47.684547 
L 183.473421 47.684547 
L 183.569083 46.537244 
L 183.93412 46.537244 
L 183.93412 45.963592 
L 184.473775 45.963592 
L 184.582131 44.816289 
L 184.600125 44.816289 
L 184.600125 43.668985 
L 184.814618 43.668985 
L 184.814618 43.095334 
L 185.131492 43.095334 
L 185.131492 42.521682 
L 185.494044 42.521682 
L 185.494044 41.94803 
L 185.641499 41.94803 
L 185.641499 41.374379 
L 185.93272 41.374379 
L 185.93272 40.800727 
L 186.624176 40.800727 
L 186.624176 40.227075 
L 186.794161 40.227075 
L 186.799447 39.079772 
L 187.170676 39.079772 
L 187.170676 38.50612 
L 187.340566 38.50612 
L 187.345688 37.358817 
L 188.008973 37.358817 
L 188.008973 36.785165 
L 188.633687 36.785165 
L 188.742757 35.637861 
L 189.319315 35.637861 
L 189.319315 35.06421 
L 189.442368 35.06421 
L 189.442368 34.490558 
L 189.859692 34.490558 
L 189.859692 33.916906 
L 191.407381 33.916906 
L 191.407381 33.343255 
L 192.107273 33.343255 
L 192.107273 32.769603 
L 192.243169 32.769603 
L 192.247037 31.622299 
L 192.473699 31.622299 
L 192.473699 29.901344 
L 192.625709 29.901344 
L 192.704987 28.180389 
L 192.836322 28.180389 
L 192.881124 26.459434 
L 193.114466 26.459434 
L 193.191558 25.31213 
L 193.246416 25.31213 
L 193.271957 24.164827 
L 193.460531 24.164827 
L 193.460531 23.591175 
L 193.589898 23.591175 
L 193.618516 21.87022 
L 193.70409 21.87022 
L 193.721866 20.149265 
L 193.91972 20.149265 
L 193.986343 17.854658 
L 194.097977 17.854658 
L 194.160458 16.707355 
L 194.332853 16.707355 
L 194.332853 16.133703 
L 194.479761 16.133703 
L 194.571377 13.839096 
L 194.662515 13.839096 
L 194.675976 12.691793 
L 194.803344 12.691793 
L 194.803344 12.118141 
L 203.548038 12.118141 
L 203.548038 11.544489 
L 203.705095 11.544489 
L 203.705095 10.970838 
L 203.90044 10.970838 
L 203.90044 10.397186 
L 204.054369 10.397186 
L 204.054369 9.823534 
L 204.313745 9.823534 
L 204.391004 8.102579 
L 204.635958 8.102579 
L 204.635958 7.528927 
L 210.227699 7.528927 
L 210.227699 6.955275 
L 210.672912 6.955275 
L 210.672912 6.381624 
L 338.688 6.381624 
L 338.688 6.381624 
" style="fill:none;stroke:#ff7500;stroke-linecap:square;stroke-width:1.5;"/>
   </g>
   <g id="line2d_39">
    <defs>
     <path d="M 0 -6 
L -1.347084 -1.854102 
L -5.706339 -1.854102 
L -2.179628 0.708204 
L -3.526712 4.854102 
L -0 2.291796 
L 3.526712 4.854102 
L 2.179628 0.708204 
L 5.706339 -1.854102 
L 1.347084 -1.854102 
z
" id="m3288c1ad8c" style="stroke:#ff7500;stroke-linejoin:bevel;stroke-width:1.5;"/>
    </defs>
    <g>
     <use style="fill-opacity:0;stroke:#ff7500;stroke-linejoin:bevel;stroke-width:1.5;" x="156.327657" xlink:href="#m3288c1ad8c" y="192.24478"/>
     <use style="fill-opacity:0;stroke:#ff7500;stroke-linejoin:bevel;stroke-width:1.5;" x="192.107273" xlink:href="#m3288c1ad8c" y="32.769603"/>
     <use style="fill-opacity:0;stroke:#ff7500;stroke-linejoin:bevel;stroke-width:1.5;" x="210.672912" xlink:href="#m3288c1ad8c" y="6.381624"/>
     <use style="fill-opacity:0;stroke:#ff7500;stroke-linejoin:bevel;stroke-width:1.5;" x="210.672912" xlink:href="#m3288c1ad8c" y="6.381624"/>
     <use style="fill-opacity:0;stroke:#ff7500;stroke-linejoin:bevel;stroke-width:1.5;" x="338.688" xlink:href="#m3288c1ad8c" y="6.381624"/>
    </g>
   </g>
   <g id="line2d_40">
    <path style="fill:none;stroke:#ff7500;stroke-linecap:square;stroke-width:1.5;"/>
    <g/>
   </g>
   <g id="line2d_41">
    <path clip-path="url(#p37605d0707)" d="M 190.167349 33.916906 
" style="fill:none;stroke:#ff7500;stroke-linecap:square;stroke-width:1.5;"/>
    <defs>
     <path d="M -12 12 
L 12 -12 
M -12 -12 
L 12 12 
" id="mec22cec917" style="stroke:#ff7500;"/>
    </defs>
    <g clip-path="url(#p37605d0707)">
     <use style="fill:#ff7500;stroke:#ff7500;" x="190.167349" xlink:href="#mec22cec917" y="33.916906"/>
    </g>
   </g>
   <g id="line2d_42">
    <defs>
     <path d="M 0 1.5 
C 0.397805 1.5 0.77937 1.341951 1.06066 1.06066 
C 1.341951 0.77937 1.5 0.397805 1.5 0 
C 1.5 -0.397805 1.341951 -0.77937 1.06066 -1.06066 
C 0.77937 -1.341951 0.397805 -1.5 0 -1.5 
C -0.397805 -1.5 -0.77937 -1.341951 -1.06066 -1.06066 
C -1.341951 -0.77937 -1.5 -0.397805 -1.5 0 
C -1.5 0.397805 -1.341951 0.77937 -1.06066 1.06066 
C -0.77937 1.341951 -0.397805 1.5 0 1.5 
z
" id="me2dbb74023" style="stroke:#6495ed;"/>
    </defs>
    <g>
     <use style="fill:#6495ed;stroke:#6495ed;" x="179.656938" xlink:href="#me2dbb74023" y="6.381624"/>
     <use style="fill:#6495ed;stroke:#6495ed;" x="179.656938" xlink:href="#me2dbb74023" y="6.381624"/>
    </g>
   </g>
   <g id="line2d_43">
    <path d="M 45.512012 298.944 
L 45.512012 298.370348 
L 81.775977 298.370348 
L 81.775977 297.796697 
L 91.535274 297.796697 
L 91.535274 295.50209 
L 95.918017 295.50209 
L 95.918017 294.354786 
L 99.41757 294.354786 
L 99.41757 291.486528 
L 100.192776 291.486528 
L 100.192776 289.191921 
L 101.646892 289.191921 
L 101.646892 286.897314 
L 102.330873 286.897314 
L 102.330873 286.323662 
L 109.401893 286.323662 
L 109.401893 282.3081 
L 110.274038 282.3081 
L 110.274038 281.734448 
L 111.505558 281.734448 
L 111.505558 281.160797 
L 111.897469 281.160797 
L 111.897469 280.587145 
L 112.280765 280.587145 
L 112.280765 279.439842 
L 112.655818 279.439842 
L 112.655818 277.718886 
L 113.382559 277.718886 
L 113.382559 277.145235 
L 114.751048 277.145235 
L 114.751048 274.850628 
L 115.397021 274.850628 
L 115.397021 273.129673 
L 118.039942 273.129673 
L 118.039942 271.982369 
L 118.838828 271.982369 
L 118.838828 269.114111 
L 119.097192 269.114111 
L 119.097192 267.966807 
L 119.351785 267.966807 
L 119.351785 266.819504 
L 120.33454 266.819504 
L 120.33454 265.098549 
L 120.571812 265.098549 
L 120.571812 263.951245 
L 121.712041 263.951245 
L 121.712041 263.377593 
L 122.148045 263.377593 
L 122.148045 262.803942 
L 123.394238 262.803942 
L 123.394238 261.656638 
L 124.178158 261.656638 
L 124.178158 260.509335 
L 124.92835 260.509335 
L 124.92835 259.935683 
L 125.822869 259.935683 
L 125.822869 258.214728 
L 126.338353 258.214728 
L 126.338353 257.067425 
L 127.325746 257.067425 
L 127.325746 255.920121 
L 127.48501 255.920121 
L 127.48501 254.772818 
L 128.260216 254.772818 
L 128.260216 253.051863 
L 129.147151 253.051863 
L 129.147151 249.609952 
L 133.689303 249.609952 
L 133.689303 249.036301 
L 136.073445 249.036301 
L 136.170062 247.888997 
L 137.107884 247.888997 
L 137.107884 247.315345 
L 137.37967 247.315345 
L 137.469333 246.168042 
L 137.558536 246.168042 
L 137.558536 245.59439 
L 137.910857 245.59439 
L 137.910857 243.873435 
L 138.927025 243.873435 
L 138.927025 243.299783 
L 139.253002 243.299783 
L 139.253002 242.726132 
L 139.652088 242.726132 
L 139.652088 242.15248 
L 140.042245 242.15248 
L 140.042245 241.578828 
L 140.574203 241.578828 
L 140.574203 241.005176 
L 140.871049 241.005176 
L 140.871049 240.431525 
L 141.162927 240.431525 
L 141.162927 239.857873 
L 141.45 239.857873 
L 141.45 238.71057 
L 142.818488 238.71057 
L 142.818488 237.563266 
L 143.653678 237.563266 
L 143.653678 236.989614 
L 144.209312 236.989614 
L 144.209312 234.695008 
L 145.721664 234.695008 
L 145.721664 233.547704 
L 146.052799 233.547704 
L 146.052799 232.974052 
L 146.696785 232.974052 
L 146.801841 231.826749 
L 147.061745 231.826749 
L 147.113265 230.679446 
L 147.419225 230.679446 
L 147.52003 228.95849 
L 147.71991 228.95849 
L 147.769524 226.663884 
L 147.917524 226.663884 
L 147.96658 225.51658 
L 149.058374 225.51658 
L 149.15016 223.221973 
L 149.377533 223.221973 
L 149.377533 222.648321 
L 149.512548 222.648321 
L 149.512548 222.07467 
L 149.779481 222.07467 
L 149.867558 220.927366 
L 149.911431 220.927366 
L 149.911431 220.353715 
L 150.38688 220.353715 
L 150.38688 219.206411 
L 151.300575 219.206411 
L 151.300575 218.632759 
L 152.0141 218.632759 
L 152.0141 218.059108 
L 152.168773 218.059108 
L 152.168773 216.338153 
L 152.283884 216.338153 
L 152.360205 215.190849 
L 152.436193 215.190849 
L 152.436193 214.617197 
L 153.287059 214.617197 
L 153.287059 212.896242 
L 153.573542 212.896242 
L 153.609024 211.748939 
L 153.855395 211.748939 
L 153.855395 210.601635 
L 154.063835 210.601635 
L 154.098334 208.88068 
L 154.269814 208.88068 
L 154.269814 207.733377 
L 154.473387 207.733377 
L 154.473387 207.159725 
L 154.741174 207.159725 
L 154.741174 206.586073 
L 154.906477 206.586073 
L 154.93935 204.865118 
L 155.264719 204.865118 
L 155.264719 204.291467 
L 155.61575 204.291467 
L 155.61575 203.144163 
L 155.773004 203.144163 
L 155.773004 202.570511 
L 155.897793 202.570511 
L 155.897793 200.849556 
L 156.266892 200.849556 
L 156.266892 200.275904 
L 156.98245 200.275904 
L 157.069866 198.554949 
L 157.1279 198.554949 
L 157.214591 194.539387 
L 157.329512 194.539387 
L 157.358125 192.24478 
L 157.613546 192.24478 
L 157.669802 190.523825 
L 157.976006 190.523825 
L 158.058592 188.229218 
L 158.195371 188.229218 
L 158.195371 187.655567 
L 158.572743 187.655567 
L 158.572743 187.081915 
L 158.811096 187.081915 
L 158.889829 185.36096 
L 159.020266 185.36096 
L 159.123917 183.066353 
L 159.201253 183.066353 
L 159.278248 181.345398 
L 159.532469 181.345398 
L 159.532469 179.624443 
L 159.683242 179.624443 
L 159.683242 177.903487 
L 159.832723 177.903487 
L 159.832723 177.329836 
L 160.152267 177.329836 
L 160.152267 176.756184 
L 160.273627 176.756184 
L 160.273627 173.887925 
L 160.86807 173.887925 
L 160.86807 171.019667 
L 161.26102 171.019667 
L 161.352206 169.872363 
L 161.756743 169.872363 
L 161.756743 168.72506 
L 161.955547 168.72506 
L 162.043181 165.28315 
L 162.086834 165.28315 
L 162.19549 162.988543 
L 162.238764 162.988543 
L 162.346481 160.693936 
L 162.432178 160.693936 
L 162.474869 158.972981 
L 162.916926 158.972981 
L 162.958448 157.825677 
L 163.082425 157.825677 
L 163.082425 157.252026 
L 163.368321 157.252026 
L 163.368321 156.104722 
L 163.549667 156.104722 
L 163.629664 153.810115 
L 163.709295 153.810115 
L 163.709295 153.236464 
L 164.102088 153.236464 
L 164.121498 149.794553 
L 164.333587 149.794553 
L 164.333587 149.220902 
L 164.618704 149.220902 
L 164.618704 148.64725 
L 164.731458 148.64725 
L 164.787563 146.352643 
L 164.843488 146.352643 
L 164.899235 144.631688 
L 165.010195 144.631688 
L 165.010195 143.484384 
L 165.284547 143.484384 
L 165.356985 141.189778 
L 165.59035 141.189778 
L 165.59035 140.042474 
L 166.117256 140.042474 
L 166.117256 139.468822 
L 166.391896 139.468822 
L 166.476842 136.600564 
L 166.510705 136.600564 
L 166.561376 134.879609 
L 166.679039 134.879609 
L 166.695783 133.158653 
L 166.895472 133.158653 
L 166.96153 130.864047 
L 167.043752 130.864047 
L 167.076532 129.143091 
L 167.190782 129.143091 
L 167.207042 125.701181 
L 167.336582 125.701181 
L 167.43311 121.685619 
L 167.449146 121.685619 
L 167.497166 119.391012 
L 167.624577 119.391012 
L 167.719528 115.37545 
L 167.751064 115.37545 
L 167.782543 114.228147 
L 167.954668 114.228147 
L 168.047843 112.507192 
L 168.18668 112.507192 
L 168.278627 106.770674 
L 168.370092 106.770674 
L 168.46108 105.623371 
L 168.551595 105.623371 
L 168.641643 103.328764 
L 168.731229 103.328764 
L 168.805533 101.034157 
L 168.879523 101.034157 
L 168.909031 98.165899 
L 168.997257 98.165899 
L 169.070439 95.29764 
L 169.172381 95.29764 
L 169.259288 92.429381 
L 169.51744 92.429381 
L 169.53167 90.708426 
L 169.659223 90.708426 
L 169.743743 86.119213 
L 169.813865 86.119213 
L 169.813865 84.971909 
L 169.939378 84.971909 
L 170.050192 79.809044 
L 170.077786 79.809044 
L 170.077786 79.235392 
L 170.351349 79.235392 
L 170.351349 78.66174 
L 170.51345 78.66174 
L 170.620687 76.367133 
L 170.912232 76.367133 
L 170.912232 75.21983 
L 171.069226 75.21983 
L 171.147196 72.925223 
L 171.18605 72.925223 
L 171.250617 69.483313 
L 171.327782 69.483313 
L 171.404607 65.467751 
L 171.455636 65.467751 
L 171.455636 64.320447 
L 171.83367 64.320447 
L 171.920711 60.304885 
L 171.994974 60.304885 
L 171.994974 59.731234 
L 172.203683 59.731234 
L 172.203683 59.157582 
L 172.349517 59.157582 
L 172.349517 58.010278 
L 172.470121 58.010278 
L 172.518131 56.862975 
L 172.696997 56.862975 
L 172.779844 53.421065 
L 172.850543 53.421065 
L 172.850543 52.847413 
L 172.991089 52.847413 
L 173.09576 51.126458 
L 173.222844 51.126458 
L 173.234351 48.831851 
L 173.406055 48.831851 
L 173.474266 46.537244 
L 173.530906 46.537244 
L 173.598631 44.242637 
L 173.811376 44.242637 
L 173.889107 41.374379 
L 173.944417 41.374379 
L 173.955458 37.932468 
L 174.065485 37.932468 
L 174.065485 37.358817 
L 174.207491 37.358817 
L 174.207491 34.490558 
L 174.509477 34.490558 
L 174.509477 33.916906 
L 174.658532 33.916906 
L 174.732584 31.048648 
L 174.84832 31.048648 
L 174.942445 29.901344 
L 174.984116 29.901344 
L 175.077514 28.180389 
L 175.098201 28.180389 
L 175.170413 25.31213 
L 175.334356 25.31213 
L 175.334356 24.164827 
L 175.617599 24.164827 
L 175.617599 23.591175 
L 175.866664 23.591175 
L 175.866664 22.443872 
L 176.131719 22.443872 
L 176.131719 21.87022 
L 176.315853 21.87022 
L 176.315853 21.296568 
L 176.478973 21.296568 
L 176.52666 19.001962 
L 176.977944 19.001962 
L 176.977944 17.854658 
L 177.107399 17.854658 
L 177.171768 15.560051 
L 177.417845 15.560051 
L 177.499105 14.412748 
L 177.65157 14.412748 
L 177.65157 13.839096 
L 177.79386 13.839096 
L 177.855749 12.691793 
L 178.161939 12.691793 
L 178.161939 12.118141 
L 178.360262 12.118141 
L 178.44579 9.823534 
L 178.590234 9.823534 
L 178.590234 9.249882 
L 178.875579 9.249882 
L 178.875579 8.676231 
L 179.303155 8.676231 
L 179.327506 7.528927 
L 179.464856 7.528927 
L 179.464856 6.955275 
L 179.656938 6.955275 
L 179.656938 6.381624 
L 338.688 6.381624 
L 338.688 6.381624 
" style="fill:none;stroke:#6495ed;stroke-linecap:square;stroke-width:1.5;"/>
   </g>
   <g id="line2d_44">
    <defs>
     <path d="M -0 6 
L 6 -6 
L -6 -6 
z
" id="mef827e0bbc" style="stroke:#6495ed;stroke-linejoin:miter;stroke-width:1.5;"/>
    </defs>
    <g>
     <use style="fill-opacity:0;stroke:#6495ed;stroke-linejoin:miter;stroke-width:1.5;" x="112.280765" xlink:href="#mef827e0bbc" y="279.439842"/>
     <use style="fill-opacity:0;stroke:#6495ed;stroke-linejoin:miter;stroke-width:1.5;" x="167.719528" xlink:href="#mef827e0bbc" y="117.096405"/>
     <use style="fill-opacity:0;stroke:#6495ed;stroke-linejoin:miter;stroke-width:1.5;" x="179.327506" xlink:href="#mef827e0bbc" y="8.102579"/>
     <use style="fill-opacity:0;stroke:#6495ed;stroke-linejoin:miter;stroke-width:1.5;" x="179.656938" xlink:href="#mef827e0bbc" y="6.381624"/>
     <use style="fill-opacity:0;stroke:#6495ed;stroke-linejoin:miter;stroke-width:1.5;" x="179.656938" xlink:href="#mef827e0bbc" y="6.381624"/>
     <use style="fill-opacity:0;stroke:#6495ed;stroke-linejoin:miter;stroke-width:1.5;" x="338.688" xlink:href="#mef827e0bbc" y="6.381624"/>
    </g>
   </g>
   <g id="line2d_45">
    <path style="fill:none;stroke:#6495ed;stroke-linecap:square;stroke-width:1.5;"/>
    <g/>
   </g>
   <g id="line2d_46">
    <defs>
     <path d="M 0 1.5 
C 0.397805 1.5 0.77937 1.341951 1.06066 1.06066 
C 1.341951 0.77937 1.5 0.397805 1.5 0 
C 1.5 -0.397805 1.341951 -0.77937 1.06066 -1.06066 
C 0.77937 -1.341951 0.397805 -1.5 0 -1.5 
C -0.397805 -1.5 -0.77937 -1.341951 -1.06066 -1.06066 
C -1.341951 -0.77937 -1.5 -0.397805 -1.5 0 
C -1.5 0.397805 -1.341951 0.77937 -1.06066 1.06066 
C -0.77937 1.341951 -0.397805 1.5 0 1.5 
z
" id="m801c4158a5" style="stroke:#ff0000;"/>
    </defs>
    <g>
     <use style="fill:#ff0000;stroke:#ff0000;" x="165.7501" xlink:href="#m801c4158a5" y="6.381624"/>
     <use style="fill:#ff0000;stroke:#ff0000;" x="165.7501" xlink:href="#m801c4158a5" y="6.381624"/>
    </g>
   </g>
   <g id="line2d_47">
    <path d="M 45.512012 298.944 
L 45.512012 266.245852 
L 57.6 266.245852 
L 57.6 261.082987 
L 64.67102 261.082987 
L 64.67102 260.509335 
L 81.775977 260.509335 
L 81.775977 256.493773 
L 83.830028 256.493773 
L 83.830028 255.920121 
L 88.846997 255.920121 
L 88.846997 255.346469 
L 91.535274 255.346469 
L 91.535274 253.625514 
L 93.863965 253.625514 
L 93.863965 253.051863 
L 95.918017 253.051863 
L 95.918017 250.183604 
L 98.606294 250.183604 
L 98.606294 249.036301 
L 99.41757 249.036301 
L 99.41757 247.888997 
L 100.192776 247.888997 
L 100.192776 245.020738 
L 100.934985 245.020738 
L 100.934985 244.447087 
L 102.330873 244.447087 
L 102.330873 243.873435 
L 102.989037 243.873435 
L 102.989037 243.299783 
L 103.623262 243.299783 
L 103.623262 241.005176 
L 105.398279 241.005176 
L 105.398279 240.431525 
L 105.951954 240.431525 
L 105.951954 239.857873 
L 107.514726 239.857873 
L 107.514726 238.136918 
L 108.948899 238.136918 
L 108.948899 236.415963 
L 111.104637 236.415963 
L 111.104637 235.268659 
L 111.897469 235.268659 
L 111.897469 233.547704 
L 112.280765 233.547704 
L 112.280765 232.974052 
L 112.655818 232.974052 
L 112.655818 232.400401 
L 115.397021 232.400401 
L 115.397021 231.826749 
L 117.202696 231.826749 
L 117.202696 224.369277 
L 117.486268 224.369277 
L 117.486268 223.795625 
L 118.039942 223.795625 
L 118.039942 223.221973 
L 118.838828 223.221973 
L 118.838828 222.648321 
L 119.351785 222.648321 
L 119.351785 222.07467 
L 119.850084 222.07467 
L 119.850084 220.927366 
L 121.931406 220.927366 
L 121.931406 219.780063 
L 122.148045 219.780063 
L 122.148045 218.059108 
L 122.573415 218.059108 
L 122.573415 215.764501 
L 122.782271 215.764501 
L 122.782271 214.043546 
L 123.394238 214.043546 
L 123.394238 211.748939 
L 124.178158 211.748939 
L 124.178158 211.175287 
L 124.743806 211.175287 
L 124.743806 210.027984 
L 125.110962 210.027984 
L 125.110962 209.454332 
L 125.647598 209.454332 
L 125.647598 207.733377 
L 126.168212 207.733377 
L 126.168212 206.012422 
L 126.338353 206.012422 
L 126.338353 204.865118 
L 126.50685 204.865118 
L 126.50685 203.717815 
L 127.325746 203.717815 
L 127.325746 202.570511 
L 127.954256 202.570511 
L 127.954256 201.423208 
L 128.107907 201.423208 
L 128.107907 199.702253 
L 128.260216 199.702253 
L 128.260216 198.554949 
L 128.411207 198.554949 
L 128.411207 197.981298 
L 129.290685 197.981298 
L 129.290685 197.407646 
L 130.263646 197.407646 
L 130.263646 196.833994 
L 130.796184 196.833994 
L 130.796184 196.260342 
L 131.565689 196.260342 
L 131.565689 195.113039 
L 132.777237 195.113039 
L 132.777237 194.539387 
L 133.009765 194.539387 
L 133.009765 192.818432 
L 133.239232 192.818432 
L 133.239232 192.24478 
L 133.46572 192.24478 
L 133.46572 191.671129 
L 133.689303 191.671129 
L 133.800029 188.229218 
L 134.12805 188.229218 
L 134.12805 186.508263 
L 134.343353 186.508263 
L 134.450015 185.36096 
L 134.766144 185.36096 
L 134.766144 184.787308 
L 134.973757 184.787308 
L 134.973757 183.640005 
L 135.280614 183.640005 
L 135.280614 182.492701 
L 135.878591 182.492701 
L 135.878591 180.771746 
L 136.170062 180.771746 
L 136.170062 177.903487 
L 136.738785 177.903487 
L 136.738785 175.035229 
L 137.910857 175.035229 
L 137.910857 174.461577 
L 138.594838 174.461577 
L 138.594838 173.887925 
L 138.84457 173.887925 
L 138.84457 172.16697 
L 139.572998 172.16697 
L 139.572998 171.019667 
L 140.11924 171.019667 
L 140.11924 170.446015 
L 140.272217 170.446015 
L 140.272217 168.72506 
L 140.574203 168.72506 
L 140.574203 168.151408 
L 140.723258 168.151408 
L 140.723258 166.430453 
L 140.871049 166.430453 
L 140.871049 164.135846 
L 141.235139 164.135846 
L 141.235139 163.562195 
L 141.591783 163.562195 
L 141.662245 158.972981 
L 142.419098 158.972981 
L 142.486301 157.252026 
L 142.686372 157.252026 
L 142.686372 156.678374 
L 142.949611 156.678374 
L 142.949611 156.104722 
L 143.144465 156.104722 
L 143.144465 155.53107 
L 143.337167 155.53107 
L 143.337167 154.957419 
L 143.590833 154.957419 
L 143.653678 150.368205 
L 143.716296 150.368205 
L 143.778691 149.220902 
L 144.330419 149.220902 
L 144.330419 148.073598 
L 144.510517 148.073598 
L 144.510517 146.352643 
L 144.688773 146.352643 
L 144.688773 145.778991 
L 145.212864 145.778991 
L 145.212864 145.20534 
L 145.384119 145.20534 
L 145.384119 142.910733 
L 146.161795 142.910733 
L 146.161795 142.337081 
L 146.431341 142.337081 
L 146.431341 141.763429 
L 147.061745 141.763429 
L 147.061745 140.616126 
L 147.86833 140.616126 
L 147.917524 138.895171 
L 148.112924 138.895171 
L 148.112924 138.321519 
L 148.497276 138.321519 
L 148.497276 137.174215 
L 148.733265 137.174215 
L 148.733265 136.600564 
L 149.15016 136.600564 
L 149.15016 134.879609 
L 149.332295 134.879609 
L 149.332295 133.732305 
L 149.646525 133.732305 
L 149.646525 133.158653 
L 150.215485 133.158653 
L 150.258492 131.437698 
L 150.38688 131.437698 
L 150.38688 130.864047 
L 150.891184 130.864047 
L 150.891184 130.290395 
L 151.015013 130.290395 
L 151.056095 129.143091 
L 151.13797 129.143091 
L 151.13797 127.995788 
L 151.581536 127.995788 
L 151.581536 127.422136 
L 152.0141 127.422136 
L 152.0141 126.848485 
L 152.130233 126.848485 
L 152.130233 126.274833 
L 152.245598 126.274833 
L 152.245598 125.701181 
L 152.360205 125.701181 
L 152.436193 122.832923 
L 152.549559 122.832923 
L 152.549559 122.259271 
L 152.736878 122.259271 
L 152.774102 120.538316 
L 152.885298 120.538316 
L 152.885298 118.243709 
L 153.032466 118.243709 
L 153.142033 114.801798 
L 153.287059 114.801798 
L 153.395042 111.93354 
L 153.573542 111.93354 
L 153.644434 106.197023 
L 153.820412 106.197023 
L 153.925152 104.476068 
L 154.132765 104.476068 
L 154.201424 103.328764 
L 154.303908 103.328764 
L 154.303908 102.755112 
L 154.473387 102.755112 
L 154.507086 100.460506 
L 154.607795 100.460506 
L 154.607795 96.444944 
L 154.873541 96.444944 
L 154.972161 95.29764 
L 155.070227 95.29764 
L 155.070227 93.576685 
L 155.200129 93.576685 
L 155.296925 90.708426 
L 155.425155 90.708426 
L 155.520713 88.413819 
L 155.584129 88.413819 
L 155.647315 86.692864 
L 155.83551 86.692864 
L 155.83551 86.119213 
L 156.021696 86.119213 
L 156.052535 80.956347 
L 156.236431 80.956347 
L 156.297301 79.809044 
L 156.448553 79.809044 
L 156.448553 76.367133 
L 156.687861 76.367133 
L 156.687861 75.793482 
L 156.953214 75.793482 
L 157.011638 74.072526 
L 157.185742 74.072526 
L 157.185742 72.925223 
L 157.329512 72.925223 
L 157.329512 70.630616 
L 157.557108 70.630616 
L 157.641697 67.762358 
L 157.669802 67.762358 
L 157.669802 67.188706 
L 157.781772 67.188706 
L 157.781772 66.615054 
L 157.893028 66.615054 
L 157.94839 64.894099 
L 158.195371 64.894099 
L 158.276927 61.452189 
L 158.412011 61.452189 
L 158.438903 59.157582 
L 158.625992 59.157582 
L 158.625992 58.58393 
L 158.811096 58.58393 
L 158.915995 55.715672 
L 158.968208 55.715672 
L 159.072168 54.568368 
L 159.123917 54.568368 
L 159.226956 52.847413 
L 159.354904 52.847413 
L 159.380382 48.258199 
L 159.481921 48.258199 
L 159.507213 47.110896 
L 159.633129 47.110896 
L 159.633129 46.537244 
L 159.956318 46.537244 
L 160.054568 43.095334 
L 160.103486 43.095334 
L 160.152267 41.94803 
L 160.537682 41.94803 
L 160.537682 40.227075 
L 160.844678 40.227075 
L 160.844678 39.653423 
L 160.984566 39.653423 
L 160.984566 39.079772 
L 161.397621 39.079772 
L 161.488097 36.785165 
L 161.578106 36.785165 
L 161.578106 36.211513 
L 161.756743 36.211513 
L 161.756743 35.06421 
L 161.933569 35.06421 
L 161.955547 32.769603 
L 162.065021 32.769603 
L 162.130378 31.622299 
L 162.19549 31.622299 
L 162.303474 27.033086 
L 162.432178 27.033086 
L 162.496175 25.31213 
L 162.644595 25.31213 
L 162.644595 24.738479 
L 162.854457 24.738479 
L 162.958448 21.87022 
L 163.020547 21.87022 
L 163.020547 20.722917 
L 163.266752 20.722917 
L 163.266752 20.149265 
L 163.469301 20.149265 
L 163.569701 17.854658 
L 163.669525 17.854658 
L 163.669525 16.133703 
L 163.867476 16.133703 
L 163.867476 15.560051 
L 164.102088 15.560051 
L 164.140886 14.412748 
L 164.276 14.412748 
L 164.314412 12.118141 
L 164.486229 12.118141 
L 164.543127 9.249882 
L 165.065412 9.249882 
L 165.083779 6.955275 
L 165.7501 6.955275 
L 165.7501 6.381624 
L 338.688 6.381624 
L 338.688 6.381624 
" style="fill:none;stroke:#ff0000;stroke-linecap:square;stroke-width:1.5;"/>
   </g>
   <g id="line2d_48">
    <defs>
     <path d="M 0 -6 
L -5.196152 -3 
L -5.196152 3 
L -0 6 
L 5.196152 3 
L 5.196152 -3 
z
" id="me39bb7bd8f" style="stroke:#ff0000;stroke-linejoin:miter;stroke-width:1.5;"/>
    </defs>
    <g>
     <use style="fill-opacity:0;stroke:#ff0000;stroke-linejoin:miter;stroke-width:1.5;" x="122.573415" xlink:href="#me39bb7bd8f" y="218.059108"/>
     <use style="fill-opacity:0;stroke:#ff0000;stroke-linejoin:miter;stroke-width:1.5;" x="161.955547" xlink:href="#me39bb7bd8f" y="33.916906"/>
     <use style="fill-opacity:0;stroke:#ff0000;stroke-linejoin:miter;stroke-width:1.5;" x="165.7501" xlink:href="#me39bb7bd8f" y="6.955275"/>
     <use style="fill-opacity:0;stroke:#ff0000;stroke-linejoin:miter;stroke-width:1.5;" x="165.7501" xlink:href="#me39bb7bd8f" y="6.381624"/>
     <use style="fill-opacity:0;stroke:#ff0000;stroke-linejoin:miter;stroke-width:1.5;" x="165.7501" xlink:href="#me39bb7bd8f" y="6.381624"/>
     <use style="fill-opacity:0;stroke:#ff0000;stroke-linejoin:miter;stroke-width:1.5;" x="338.688" xlink:href="#me39bb7bd8f" y="6.381624"/>
    </g>
   </g>
   <g id="line2d_49">
    <path style="fill:none;stroke:#ff0000;stroke-linecap:square;stroke-width:1.5;"/>
    <g/>
   </g>
   <g id="line2d_50">
    <path d="M 338.688 6.381624 
L 369.60768 293.092752 
" style="fill:none;stroke:#ff7500;stroke-linecap:square;stroke-width:1.5;"/>
    <g>
     <use style="fill-opacity:0;stroke:#ff7500;stroke-linejoin:bevel;stroke-width:1.5;" x="338.688" xlink:href="#m3288c1ad8c" y="6.381624"/>
     <use style="fill-opacity:0;stroke:#ff7500;stroke-linejoin:bevel;stroke-width:1.5;" x="369.60768" xlink:href="#m3288c1ad8c" y="293.092752"/>
    </g>
   </g>
   <g id="line2d_51">
    <path d="M 338.688 6.381624 
L 369.60768 222.877782 
" style="fill:none;stroke:#6495ed;stroke-linecap:square;stroke-width:1.5;"/>
    <g>
     <use style="fill-opacity:0;stroke:#6495ed;stroke-linejoin:miter;stroke-width:1.5;" x="338.688" xlink:href="#mef827e0bbc" y="6.381624"/>
     <use style="fill-opacity:0;stroke:#6495ed;stroke-linejoin:miter;stroke-width:1.5;" x="369.60768" xlink:href="#mef827e0bbc" y="222.877782"/>
    </g>
   </g>
   <g id="line2d_52">
    <path d="M 338.688 6.381624 
L 369.60768 152.662812 
" style="fill:none;stroke:#000080;stroke-linecap:square;stroke-width:1.5;"/>
    <g>
     <use style="fill-opacity:0;stroke:#000080;stroke-width:1.5;" x="338.688" xlink:href="#m2f7cad4b59" y="6.381624"/>
     <use style="fill-opacity:0;stroke:#000080;stroke-width:1.5;" x="369.60768" xlink:href="#m2f7cad4b59" y="152.662812"/>
    </g>
   </g>
   <g id="line2d_53">
    <path d="M 338.688 6.381624 
L 369.60768 82.447842 
" style="fill:none;stroke:#ff00ff;stroke-linecap:square;stroke-width:1.5;"/>
    <g>
     <use style="fill-opacity:0;stroke:#ff00ff;stroke-linejoin:miter;stroke-width:1.5;" x="338.688" xlink:href="#m057872d807" y="6.381624"/>
     <use style="fill-opacity:0;stroke:#ff00ff;stroke-linejoin:miter;stroke-width:1.5;" x="369.60768" xlink:href="#m057872d807" y="82.447842"/>
    </g>
   </g>
   <g id="line2d_54">
    <path d="M 338.688 6.381624 
L 369.60768 12.232871 
" style="fill:none;stroke:#ff0000;stroke-linecap:square;stroke-width:1.5;"/>
    <g>
     <use style="fill-opacity:0;stroke:#ff0000;stroke-linejoin:miter;stroke-width:1.5;" x="338.688" xlink:href="#me39bb7bd8f" y="6.381624"/>
     <use style="fill-opacity:0;stroke:#ff0000;stroke-linejoin:miter;stroke-width:1.5;" x="369.60768" xlink:href="#me39bb7bd8f" y="12.232871"/>
    </g>
   </g>
   <g id="line2d_55">
    <path d="M 338.688 298.944 
L 338.688 6.381624 
" style="fill:none;stroke:#000000;stroke-linecap:square;stroke-width:1.5;"/>
   </g>
   <g id="patch_3">
    <path d="M 57.6 298.944 
L 57.6 3.456 
" style="fill:none;stroke:#000000;stroke-linecap:square;stroke-linejoin:miter;stroke-width:0.8;"/>
   </g>
   <g id="patch_4">
    <path d="M 338.688 298.944 
L 338.688 3.456 
" style="fill:none;stroke:#000000;stroke-linecap:square;stroke-linejoin:miter;stroke-width:0.8;"/>
   </g>
   <g id="patch_5">
    <path d="M 57.6 298.944 
L 338.688 298.944 
" style="fill:none;stroke:#000000;stroke-linecap:square;stroke-linejoin:miter;stroke-width:0.8;"/>
   </g>
   <g id="patch_6">
    <path d="M 57.6 3.456 
L 338.688 3.456 
" style="fill:none;stroke:#000000;stroke-linecap:square;stroke-linejoin:miter;stroke-width:0.8;"/>
   </g>
   <g id="text_13">
    <!-- f12 -->
    <g transform="translate(375.22944 297.78369)scale(0.17 -0.17)">
     <use xlink:href="#DejaVuSans-102"/>
     <use x="35.205078" xlink:href="#DejaVuSans-49"/>
     <use x="98.828125" xlink:href="#DejaVuSans-50"/>
    </g>
   </g>
   <g id="text_14">
    <!-- f13 -->
    <g transform="translate(375.22944 227.56872)scale(0.17 -0.17)">
     <defs>
      <path d="M 40.578125 39.3125 
Q 47.65625 37.796875 51.625 33 
Q 55.609375 28.21875 55.609375 21.1875 
Q 55.609375 10.40625 48.1875 4.484375 
Q 40.765625 -1.421875 27.09375 -1.421875 
Q 22.515625 -1.421875 17.65625 -0.515625 
Q 12.796875 0.390625 7.625 2.203125 
L 7.625 11.71875 
Q 11.71875 9.328125 16.59375 8.109375 
Q 21.484375 6.890625 26.8125 6.890625 
Q 36.078125 6.890625 40.9375 10.546875 
Q 45.796875 14.203125 45.796875 21.1875 
Q 45.796875 27.640625 41.28125 31.265625 
Q 36.765625 34.90625 28.71875 34.90625 
L 20.21875 34.90625 
L 20.21875 43.015625 
L 29.109375 43.015625 
Q 36.375 43.015625 40.234375 45.921875 
Q 44.09375 48.828125 44.09375 54.296875 
Q 44.09375 59.90625 40.109375 62.90625 
Q 36.140625 65.921875 28.71875 65.921875 
Q 24.65625 65.921875 20.015625 65.03125 
Q 15.375 64.15625 9.8125 62.3125 
L 9.8125 71.09375 
Q 15.4375 72.65625 20.34375 73.4375 
Q 25.25 74.21875 29.59375 74.21875 
Q 40.828125 74.21875 47.359375 69.109375 
Q 53.90625 64.015625 53.90625 55.328125 
Q 53.90625 49.265625 50.4375 45.09375 
Q 46.96875 40.921875 40.578125 39.3125 
z
" id="DejaVuSans-51"/>
     </defs>
     <use xlink:href="#DejaVuSans-102"/>
     <use x="35.205078" xlink:href="#DejaVuSans-49"/>
     <use x="98.828125" xlink:href="#DejaVuSans-51"/>
    </g>
   </g>
   <g id="text_15">
    <!-- f10 -->
    <g transform="translate(375.22944 157.353749)scale(0.17 -0.17)">
     <use xlink:href="#DejaVuSans-102"/>
     <use x="35.205078" xlink:href="#DejaVuSans-49"/>
     <use x="98.828125" xlink:href="#DejaVuSans-48"/>
    </g>
   </g>
   <g id="text_16">
    <!-- f11 -->
    <g transform="translate(375.22944 87.138779)scale(0.17 -0.17)">
     <use xlink:href="#DejaVuSans-102"/>
     <use x="35.205078" xlink:href="#DejaVuSans-49"/>
     <use x="98.828125" xlink:href="#DejaVuSans-49"/>
    </g>
   </g>
   <g id="text_17">
    <!-- f14 -->
    <g transform="translate(375.22944 16.923809)scale(0.17 -0.17)">
     <use xlink:href="#DejaVuSans-102"/>
     <use x="35.205078" xlink:href="#DejaVuSans-49"/>
     <use x="98.828125" xlink:href="#DejaVuSans-52"/>
    </g>
   </g>
   <g id="text_18">
    <!-- bbob -->
    <g transform="translate(60.41088 14.161286)scale(0.102 -0.102)">
     <defs>
      <path d="M 48.6875 27.296875 
Q 48.6875 37.203125 44.609375 42.84375 
Q 40.53125 48.484375 33.40625 48.484375 
Q 26.265625 48.484375 22.1875 42.84375 
Q 18.109375 37.203125 18.109375 27.296875 
Q 18.109375 17.390625 22.1875 11.75 
Q 26.265625 6.109375 33.40625 6.109375 
Q 40.53125 6.109375 44.609375 11.75 
Q 48.6875 17.390625 48.6875 27.296875 
z
M 18.109375 46.390625 
Q 20.953125 51.265625 25.265625 53.625 
Q 29.59375 56 35.59375 56 
Q 45.5625 56 51.78125 48.09375 
Q 58.015625 40.1875 58.015625 27.296875 
Q 58.015625 14.40625 51.78125 6.484375 
Q 45.5625 -1.421875 35.59375 -1.421875 
Q 29.59375 -1.421875 25.265625 0.953125 
Q 20.953125 3.328125 18.109375 8.203125 
L 18.109375 0 
L 9.078125 0 
L 9.078125 75.984375 
L 18.109375 75.984375 
z
" id="DejaVuSans-98"/>
     </defs>
     <use xlink:href="#DejaVuSans-98"/>
     <use x="63.476562" xlink:href="#DejaVuSans-98"/>
     <use x="126.953125" xlink:href="#DejaVuSans-111"/>
     <use x="188.134766" xlink:href="#DejaVuSans-98"/>
    </g>
    <!-- Ill-conditioned functions, 2-D -->
    <g transform="translate(60.41088 25.583055)scale(0.102 -0.102)">
     <defs>
      <path d="M 9.8125 72.90625 
L 19.671875 72.90625 
L 19.671875 0 
L 9.8125 0 
z
" id="DejaVuSans-73"/>
      <path d="M 19.671875 64.796875 
L 19.671875 8.109375 
L 31.59375 8.109375 
Q 46.6875 8.109375 53.6875 14.9375 
Q 60.6875 21.78125 60.6875 36.53125 
Q 60.6875 51.171875 53.6875 57.984375 
Q 46.6875 64.796875 31.59375 64.796875 
z
M 9.8125 72.90625 
L 30.078125 72.90625 
Q 51.265625 72.90625 61.171875 64.09375 
Q 71.09375 55.28125 71.09375 36.53125 
Q 71.09375 17.671875 61.125 8.828125 
Q 51.171875 0 30.078125 0 
L 9.8125 0 
z
" id="DejaVuSans-68"/>
     </defs>
     <use xlink:href="#DejaVuSans-73"/>
     <use x="29.492188" xlink:href="#DejaVuSans-108"/>
     <use x="57.275391" xlink:href="#DejaVuSans-108"/>
     <use x="85.058594" xlink:href="#DejaVuSans-45"/>
     <use x="121.142578" xlink:href="#DejaVuSans-99"/>
     <use x="176.123047" xlink:href="#DejaVuSans-111"/>
     <use x="237.304688" xlink:href="#DejaVuSans-110"/>
     <use x="300.683594" xlink:href="#DejaVuSans-100"/>
     <use x="364.160156" xlink:href="#DejaVuSans-105"/>
     <use x="391.943359" xlink:href="#DejaVuSans-116"/>
     <use x="431.152344" xlink:href="#DejaVuSans-105"/>
     <use x="458.935547" xlink:href="#DejaVuSans-111"/>
     <use x="520.117188" xlink:href="#DejaVuSans-110"/>
     <use x="583.496094" xlink:href="#DejaVuSans-101"/>
     <use x="645.019531" xlink:href="#DejaVuSans-100"/>
     <use x="708.496094" xlink:href="#DejaVuSans-32"/>
     <use x="740.283203" xlink:href="#DejaVuSans-102"/>
     <use x="775.488281" xlink:href="#DejaVuSans-117"/>
     <use x="838.867188" xlink:href="#DejaVuSans-110"/>
     <use x="902.246094" xlink:href="#DejaVuSans-99"/>
     <use x="957.226562" xlink:href="#DejaVuSans-116"/>
     <use x="996.435547" xlink:href="#DejaVuSans-105"/>
     <use x="1024.21875" xlink:href="#DejaVuSans-111"/>
     <use x="1085.400391" xlink:href="#DejaVuSans-110"/>
     <use x="1148.779297" xlink:href="#DejaVuSans-115"/>
     <use x="1200.878906" xlink:href="#DejaVuSans-44"/>
     <use x="1232.666016" xlink:href="#DejaVuSans-32"/>
     <use x="1264.453125" xlink:href="#DejaVuSans-50"/>
     <use x="1328.076172" xlink:href="#DejaVuSans-45"/>
     <use x="1364.160156" xlink:href="#DejaVuSans-68"/>
    </g>
    <!-- 51 targets: 100..1e-08 -->
    <g transform="translate(60.41088 37.004824)scale(0.102 -0.102)">
     <defs>
      <path d="M 10.796875 72.90625 
L 49.515625 72.90625 
L 49.515625 64.59375 
L 19.828125 64.59375 
L 19.828125 46.734375 
Q 21.96875 47.46875 24.109375 47.828125 
Q 26.265625 48.1875 28.421875 48.1875 
Q 40.625 48.1875 47.75 41.5 
Q 54.890625 34.8125 54.890625 23.390625 
Q 54.890625 11.625 47.5625 5.09375 
Q 40.234375 -1.421875 26.90625 -1.421875 
Q 22.3125 -1.421875 17.546875 -0.640625 
Q 12.796875 0.140625 7.71875 1.703125 
L 7.71875 11.625 
Q 12.109375 9.234375 16.796875 8.0625 
Q 21.484375 6.890625 26.703125 6.890625 
Q 35.15625 6.890625 40.078125 11.328125 
Q 45.015625 15.765625 45.015625 23.390625 
Q 45.015625 31 40.078125 35.4375 
Q 35.15625 39.890625 26.703125 39.890625 
Q 22.75 39.890625 18.8125 39.015625 
Q 14.890625 38.140625 10.796875 36.28125 
z
" id="DejaVuSans-53"/>
      <path d="M 11.71875 12.40625 
L 22.015625 12.40625 
L 22.015625 0 
L 11.71875 0 
z
M 11.71875 51.703125 
L 22.015625 51.703125 
L 22.015625 39.3125 
L 11.71875 39.3125 
z
" id="DejaVuSans-58"/>
     </defs>
     <use xlink:href="#DejaVuSans-53"/>
     <use x="63.623047" xlink:href="#DejaVuSans-49"/>
     <use x="127.246094" xlink:href="#DejaVuSans-32"/>
     <use x="159.033203" xlink:href="#DejaVuSans-116"/>
     <use x="198.242188" xlink:href="#DejaVuSans-97"/>
     <use x="259.521484" xlink:href="#DejaVuSans-114"/>
     <use x="298.884766" xlink:href="#DejaVuSans-103"/>
     <use x="362.361328" xlink:href="#DejaVuSans-101"/>
     <use x="423.884766" xlink:href="#DejaVuSans-116"/>
     <use x="463.09375" xlink:href="#DejaVuSans-115"/>
     <use x="515.193359" xlink:href="#DejaVuSans-58"/>
     <use x="548.884766" xlink:href="#DejaVuSans-32"/>
     <use x="580.671875" xlink:href="#DejaVuSans-49"/>
     <use x="644.294922" xlink:href="#DejaVuSans-48"/>
     <use x="707.917969" xlink:href="#DejaVuSans-48"/>
     <use x="771.541016" xlink:href="#DejaVuSans-46"/>
     <use x="803.328125" xlink:href="#DejaVuSans-46"/>
     <use x="835.115234" xlink:href="#DejaVuSans-49"/>
     <use x="898.738281" xlink:href="#DejaVuSans-101"/>
     <use x="960.261719" xlink:href="#DejaVuSans-45"/>
     <use x="996.345703" xlink:href="#DejaVuSans-48"/>
     <use x="1059.96875" xlink:href="#DejaVuSans-56"/>
    </g>
    <!-- 15 instances -->
    <g transform="translate(60.41088 48.426593)scale(0.102 -0.102)">
     <use xlink:href="#DejaVuSans-49"/>
     <use x="63.623047" xlink:href="#DejaVuSans-53"/>
     <use x="127.246094" xlink:href="#DejaVuSans-32"/>
     <use x="159.033203" xlink:href="#DejaVuSans-105"/>
     <use x="186.816406" xlink:href="#DejaVuSans-110"/>
     <use x="250.195312" xlink:href="#DejaVuSans-115"/>
     <use x="302.294922" xlink:href="#DejaVuSans-116"/>
     <use x="341.503906" xlink:href="#DejaVuSans-97"/>
     <use x="402.783203" xlink:href="#DejaVuSans-110"/>
     <use x="466.162109" xlink:href="#DejaVuSans-99"/>
     <use x="521.142578" xlink:href="#DejaVuSans-101"/>
     <use x="582.666016" xlink:href="#DejaVuSans-115"/>
    </g>
   </g>
   <g id="text_19">
    <!-- v2.4 -->
    <g style="fill:#808080;" transform="translate(187.233062 293.909432)scale(0.1 -0.1)">
     <use xlink:href="#DejaVuSans-118"/>
     <use x="59.179688" xlink:href="#DejaVuSans-50"/>
     <use x="122.802734" xlink:href="#DejaVuSans-46"/>
     <use x="154.589844" xlink:href="#DejaVuSans-52"/>
    </g>
   </g>
  </g>
 </g>
 <defs>
  <clipPath id="p37605d0707">
   <rect height="295.488" width="281.088" x="57.6" y="3.456"/>
  </clipPath>
 </defs>
</svg>
