<?xml version="1.0" encoding="utf-8" standalone="no"?>
<!DOCTYPE svg PUBLIC "-//W3C//DTD SVG 1.1//EN"
  "http://www.w3.org/Graphics/SVG/1.1/DTD/svg11.dtd">
<!-- Created with matplotlib (https://matplotlib.org/) -->
<svg height="345.6pt" version="1.1" viewBox="0 0 460.8 345.6" width="460.8pt" xmlns="http://www.w3.org/2000/svg" xmlns:xlink="http://www.w3.org/1999/xlink">
 <metadata>
  <rdf:RDF xmlns:cc="http://creativecommons.org/ns#" xmlns:dc="http://purl.org/dc/elements/1.1/" xmlns:rdf="http://www.w3.org/1999/02/22-rdf-syntax-ns#">
   <cc:Work>
    <dc:type rdf:resource="http://purl.org/dc/dcmitype/StillImage"/>
    <dc:date>2021-06-17T01:39:22.982853</dc:date>
    <dc:format>image/svg+xml</dc:format>
    <dc:creator>
     <cc:Agent>
      <dc:title>Matplotlib v3.3.4, https://matplotlib.org/</dc:title>
     </cc:Agent>
    </dc:creator>
   </cc:Work>
  </rdf:RDF>
 </metadata>
 <defs>
  <style type="text/css">*{stroke-linecap:butt;stroke-linejoin:round;}</style>
 </defs>
 <g id="figure_1">
  <g id="patch_1">
   <path d="M 0 345.6 
L 460.8 345.6 
L 460.8 0 
L 0 0 
z
" style="fill:#ffffff;"/>
  </g>
  <g id="axes_1">
   <g id="patch_2">
    <path d="M 57.6 298.944 
L 338.688 298.944 
L 338.688 27.648 
L 57.6 27.648 
z
" style="fill:#ffffff;"/>
   </g>
   <g id="matplotlib.axis_1">
    <g id="xtick_1">
     <g id="line2d_1">
      <path clip-path="url(#p56cc3b3c43)" d="M 57.6 298.944 
L 57.6 27.648 
" style="fill:none;stroke:#b0b0b0;stroke-linecap:square;stroke-width:0.8;"/>
     </g>
     <g id="line2d_2">
      <defs>
       <path d="M 0 0 
L 0 3.5 
" id="m4a76211471" style="stroke:#000000;stroke-width:0.8;"/>
      </defs>
      <g>
       <use style="stroke:#000000;stroke-width:0.8;" x="57.6" xlink:href="#m4a76211471" y="298.944"/>
      </g>
     </g>
     <g id="text_1">
      <!-- 0 -->
      <g transform="translate(51.2375 321.140875)scale(0.2 -0.2)">
       <defs>
        <path d="M 31.78125 66.40625 
Q 24.171875 66.40625 20.328125 58.90625 
Q 16.5 51.421875 16.5 36.375 
Q 16.5 21.390625 20.328125 13.890625 
Q 24.171875 6.390625 31.78125 6.390625 
Q 39.453125 6.390625 43.28125 13.890625 
Q 47.125 21.390625 47.125 36.375 
Q 47.125 51.421875 43.28125 58.90625 
Q 39.453125 66.40625 31.78125 66.40625 
z
M 31.78125 74.21875 
Q 44.046875 74.21875 50.515625 64.515625 
Q 56.984375 54.828125 56.984375 36.375 
Q 56.984375 17.96875 50.515625 8.265625 
Q 44.046875 -1.421875 31.78125 -1.421875 
Q 19.53125 -1.421875 13.0625 8.265625 
Q 6.59375 17.96875 6.59375 36.375 
Q 6.59375 54.828125 13.0625 64.515625 
Q 19.53125 74.21875 31.78125 74.21875 
z
" id="DejaVuSans-48"/>
       </defs>
       <use xlink:href="#DejaVuSans-48"/>
      </g>
     </g>
    </g>
    <g id="xtick_2">
     <g id="line2d_3">
      <path clip-path="url(#p56cc3b3c43)" d="M 137.910857 298.944 
L 137.910857 27.648 
" style="fill:none;stroke:#b0b0b0;stroke-linecap:square;stroke-width:0.8;"/>
     </g>
     <g id="line2d_4">
      <g>
       <use style="stroke:#000000;stroke-width:0.8;" x="137.910857" xlink:href="#m4a76211471" y="298.944"/>
      </g>
     </g>
     <g id="text_2">
      <!-- 2 -->
      <g transform="translate(131.548357 321.140875)scale(0.2 -0.2)">
       <defs>
        <path d="M 19.1875 8.296875 
L 53.609375 8.296875 
L 53.609375 0 
L 7.328125 0 
L 7.328125 8.296875 
Q 12.9375 14.109375 22.625 23.890625 
Q 32.328125 33.6875 34.8125 36.53125 
Q 39.546875 41.84375 41.421875 45.53125 
Q 43.3125 49.21875 43.3125 52.78125 
Q 43.3125 58.59375 39.234375 62.25 
Q 35.15625 65.921875 28.609375 65.921875 
Q 23.96875 65.921875 18.8125 64.3125 
Q 13.671875 62.703125 7.8125 59.421875 
L 7.8125 69.390625 
Q 13.765625 71.78125 18.9375 73 
Q 24.125 74.21875 28.421875 74.21875 
Q 39.75 74.21875 46.484375 68.546875 
Q 53.21875 62.890625 53.21875 53.421875 
Q 53.21875 48.921875 51.53125 44.890625 
Q 49.859375 40.875 45.40625 35.40625 
Q 44.1875 33.984375 37.640625 27.21875 
Q 31.109375 20.453125 19.1875 8.296875 
z
" id="DejaVuSans-50"/>
       </defs>
       <use xlink:href="#DejaVuSans-50"/>
      </g>
     </g>
    </g>
    <g id="xtick_3">
     <g id="line2d_5">
      <path clip-path="url(#p56cc3b3c43)" d="M 218.221714 298.944 
L 218.221714 27.648 
" style="fill:none;stroke:#b0b0b0;stroke-linecap:square;stroke-width:0.8;"/>
     </g>
     <g id="line2d_6">
      <g>
       <use style="stroke:#000000;stroke-width:0.8;" x="218.221714" xlink:href="#m4a76211471" y="298.944"/>
      </g>
     </g>
     <g id="text_3">
      <!-- 4 -->
      <g transform="translate(211.859214 321.140875)scale(0.2 -0.2)">
       <defs>
        <path d="M 37.796875 64.3125 
L 12.890625 25.390625 
L 37.796875 25.390625 
z
M 35.203125 72.90625 
L 47.609375 72.90625 
L 47.609375 25.390625 
L 58.015625 25.390625 
L 58.015625 17.1875 
L 47.609375 17.1875 
L 47.609375 0 
L 37.796875 0 
L 37.796875 17.1875 
L 4.890625 17.1875 
L 4.890625 26.703125 
z
" id="DejaVuSans-52"/>
       </defs>
       <use xlink:href="#DejaVuSans-52"/>
      </g>
     </g>
    </g>
    <g id="xtick_4">
     <g id="line2d_7">
      <path clip-path="url(#p56cc3b3c43)" d="M 298.532571 298.944 
L 298.532571 27.648 
" style="fill:none;stroke:#b0b0b0;stroke-linecap:square;stroke-width:0.8;"/>
     </g>
     <g id="line2d_8">
      <g>
       <use style="stroke:#000000;stroke-width:0.8;" x="298.532571" xlink:href="#m4a76211471" y="298.944"/>
      </g>
     </g>
     <g id="text_4">
      <!-- 6 -->
      <g transform="translate(292.170071 321.140875)scale(0.2 -0.2)">
       <defs>
        <path d="M 33.015625 40.375 
Q 26.375 40.375 22.484375 35.828125 
Q 18.609375 31.296875 18.609375 23.390625 
Q 18.609375 15.53125 22.484375 10.953125 
Q 26.375 6.390625 33.015625 6.390625 
Q 39.65625 6.390625 43.53125 10.953125 
Q 47.40625 15.53125 47.40625 23.390625 
Q 47.40625 31.296875 43.53125 35.828125 
Q 39.65625 40.375 33.015625 40.375 
z
M 52.59375 71.296875 
L 52.59375 62.3125 
Q 48.875 64.0625 45.09375 64.984375 
Q 41.3125 65.921875 37.59375 65.921875 
Q 27.828125 65.921875 22.671875 59.328125 
Q 17.53125 52.734375 16.796875 39.40625 
Q 19.671875 43.65625 24.015625 45.921875 
Q 28.375 48.1875 33.59375 48.1875 
Q 44.578125 48.1875 50.953125 41.515625 
Q 57.328125 34.859375 57.328125 23.390625 
Q 57.328125 12.15625 50.6875 5.359375 
Q 44.046875 -1.421875 33.015625 -1.421875 
Q 20.359375 -1.421875 13.671875 8.265625 
Q 6.984375 17.96875 6.984375 36.375 
Q 6.984375 53.65625 15.1875 63.9375 
Q 23.390625 74.21875 37.203125 74.21875 
Q 40.921875 74.21875 44.703125 73.484375 
Q 48.484375 72.75 52.59375 71.296875 
z
" id="DejaVuSans-54"/>
       </defs>
       <use xlink:href="#DejaVuSans-54"/>
      </g>
     </g>
    </g>
    <g id="xtick_5">
     <g id="line2d_9">
      <path clip-path="url(#p56cc3b3c43)" d="M 97.755429 298.944 
L 97.755429 27.648 
" style="fill:none;stroke:#b0b0b0;stroke-linecap:square;stroke-width:0.8;"/>
     </g>
     <g id="line2d_10">
      <defs>
       <path d="M 0 0 
L 0 2 
" id="m547dde25d8" style="stroke:#000000;stroke-width:0.6;"/>
      </defs>
      <g>
       <use style="stroke:#000000;stroke-width:0.6;" x="97.755429" xlink:href="#m547dde25d8" y="298.944"/>
      </g>
     </g>
    </g>
    <g id="xtick_6">
     <g id="line2d_11">
      <path clip-path="url(#p56cc3b3c43)" d="M 178.066286 298.944 
L 178.066286 27.648 
" style="fill:none;stroke:#b0b0b0;stroke-linecap:square;stroke-width:0.8;"/>
     </g>
     <g id="line2d_12">
      <g>
       <use style="stroke:#000000;stroke-width:0.6;" x="178.066286" xlink:href="#m547dde25d8" y="298.944"/>
      </g>
     </g>
    </g>
    <g id="xtick_7">
     <g id="line2d_13">
      <path clip-path="url(#p56cc3b3c43)" d="M 258.377143 298.944 
L 258.377143 27.648 
" style="fill:none;stroke:#b0b0b0;stroke-linecap:square;stroke-width:0.8;"/>
     </g>
     <g id="line2d_14">
      <g>
       <use style="stroke:#000000;stroke-width:0.6;" x="258.377143" xlink:href="#m547dde25d8" y="298.944"/>
      </g>
     </g>
    </g>
    <g id="xtick_8">
     <g id="line2d_15">
      <path clip-path="url(#p56cc3b3c43)" d="M 338.688 298.944 
L 338.688 27.648 
" style="fill:none;stroke:#b0b0b0;stroke-linecap:square;stroke-width:0.8;"/>
     </g>
     <g id="line2d_16">
      <g>
       <use style="stroke:#000000;stroke-width:0.6;" x="338.688" xlink:href="#m547dde25d8" y="298.944"/>
      </g>
     </g>
    </g>
    <g id="text_5">
     <!-- log10(# f-evals / dimension) -->
     <g transform="translate(77.764078 342.217594)scale(0.17 -0.17)">
      <defs>
       <path d="M 9.421875 75.984375 
L 18.40625 75.984375 
L 18.40625 0 
L 9.421875 0 
z
" id="DejaVuSans-108"/>
       <path d="M 30.609375 48.390625 
Q 23.390625 48.390625 19.1875 42.75 
Q 14.984375 37.109375 14.984375 27.296875 
Q 14.984375 17.484375 19.15625 11.84375 
Q 23.34375 6.203125 30.609375 6.203125 
Q 37.796875 6.203125 41.984375 11.859375 
Q 46.1875 17.53125 46.1875 27.296875 
Q 46.1875 37.015625 41.984375 42.703125 
Q 37.796875 48.390625 30.609375 48.390625 
z
M 30.609375 56 
Q 42.328125 56 49.015625 48.375 
Q 55.71875 40.765625 55.71875 27.296875 
Q 55.71875 13.875 49.015625 6.21875 
Q 42.328125 -1.421875 30.609375 -1.421875 
Q 18.84375 -1.421875 12.171875 6.21875 
Q 5.515625 13.875 5.515625 27.296875 
Q 5.515625 40.765625 12.171875 48.375 
Q 18.84375 56 30.609375 56 
z
" id="DejaVuSans-111"/>
       <path d="M 45.40625 27.984375 
Q 45.40625 37.75 41.375 43.109375 
Q 37.359375 48.484375 30.078125 48.484375 
Q 22.859375 48.484375 18.828125 43.109375 
Q 14.796875 37.75 14.796875 27.984375 
Q 14.796875 18.265625 18.828125 12.890625 
Q 22.859375 7.515625 30.078125 7.515625 
Q 37.359375 7.515625 41.375 12.890625 
Q 45.40625 18.265625 45.40625 27.984375 
z
M 54.390625 6.78125 
Q 54.390625 -7.171875 48.1875 -13.984375 
Q 42 -20.796875 29.203125 -20.796875 
Q 24.46875 -20.796875 20.265625 -20.09375 
Q 16.0625 -19.390625 12.109375 -17.921875 
L 12.109375 -9.1875 
Q 16.0625 -11.328125 19.921875 -12.34375 
Q 23.78125 -13.375 27.78125 -13.375 
Q 36.625 -13.375 41.015625 -8.765625 
Q 45.40625 -4.15625 45.40625 5.171875 
L 45.40625 9.625 
Q 42.625 4.78125 38.28125 2.390625 
Q 33.9375 0 27.875 0 
Q 17.828125 0 11.671875 7.65625 
Q 5.515625 15.328125 5.515625 27.984375 
Q 5.515625 40.671875 11.671875 48.328125 
Q 17.828125 56 27.875 56 
Q 33.9375 56 38.28125 53.609375 
Q 42.625 51.21875 45.40625 46.390625 
L 45.40625 54.6875 
L 54.390625 54.6875 
z
" id="DejaVuSans-103"/>
       <path d="M 12.40625 8.296875 
L 28.515625 8.296875 
L 28.515625 63.921875 
L 10.984375 60.40625 
L 10.984375 69.390625 
L 28.421875 72.90625 
L 38.28125 72.90625 
L 38.28125 8.296875 
L 54.390625 8.296875 
L 54.390625 0 
L 12.40625 0 
z
" id="DejaVuSans-49"/>
       <path d="M 31 75.875 
Q 24.46875 64.65625 21.28125 53.65625 
Q 18.109375 42.671875 18.109375 31.390625 
Q 18.109375 20.125 21.3125 9.0625 
Q 24.515625 -2 31 -13.1875 
L 23.1875 -13.1875 
Q 15.875 -1.703125 12.234375 9.375 
Q 8.59375 20.453125 8.59375 31.390625 
Q 8.59375 42.28125 12.203125 53.3125 
Q 15.828125 64.359375 23.1875 75.875 
z
" id="DejaVuSans-40"/>
       <path d="M 51.125 44 
L 36.921875 44 
L 32.8125 27.6875 
L 47.125 27.6875 
z
M 43.796875 71.78125 
L 38.71875 51.515625 
L 52.984375 51.515625 
L 58.109375 71.78125 
L 65.921875 71.78125 
L 60.890625 51.515625 
L 76.125 51.515625 
L 76.125 44 
L 58.984375 44 
L 54.984375 27.6875 
L 70.515625 27.6875 
L 70.515625 20.21875 
L 53.078125 20.21875 
L 48 0 
L 40.1875 0 
L 45.21875 20.21875 
L 30.90625 20.21875 
L 25.875 0 
L 18.015625 0 
L 23.09375 20.21875 
L 7.71875 20.21875 
L 7.71875 27.6875 
L 24.90625 27.6875 
L 29 44 
L 13.28125 44 
L 13.28125 51.515625 
L 30.90625 51.515625 
L 35.890625 71.78125 
z
" id="DejaVuSans-35"/>
       <path id="DejaVuSans-32"/>
       <path d="M 37.109375 75.984375 
L 37.109375 68.5 
L 28.515625 68.5 
Q 23.6875 68.5 21.796875 66.546875 
Q 19.921875 64.59375 19.921875 59.515625 
L 19.921875 54.6875 
L 34.71875 54.6875 
L 34.71875 47.703125 
L 19.921875 47.703125 
L 19.921875 0 
L 10.890625 0 
L 10.890625 47.703125 
L 2.296875 47.703125 
L 2.296875 54.6875 
L 10.890625 54.6875 
L 10.890625 58.5 
Q 10.890625 67.625 15.140625 71.796875 
Q 19.390625 75.984375 28.609375 75.984375 
z
" id="DejaVuSans-102"/>
       <path d="M 4.890625 31.390625 
L 31.203125 31.390625 
L 31.203125 23.390625 
L 4.890625 23.390625 
z
" id="DejaVuSans-45"/>
       <path d="M 56.203125 29.59375 
L 56.203125 25.203125 
L 14.890625 25.203125 
Q 15.484375 15.921875 20.484375 11.0625 
Q 25.484375 6.203125 34.421875 6.203125 
Q 39.59375 6.203125 44.453125 7.46875 
Q 49.3125 8.734375 54.109375 11.28125 
L 54.109375 2.78125 
Q 49.265625 0.734375 44.1875 -0.34375 
Q 39.109375 -1.421875 33.890625 -1.421875 
Q 20.796875 -1.421875 13.15625 6.1875 
Q 5.515625 13.8125 5.515625 26.8125 
Q 5.515625 40.234375 12.765625 48.109375 
Q 20.015625 56 32.328125 56 
Q 43.359375 56 49.78125 48.890625 
Q 56.203125 41.796875 56.203125 29.59375 
z
M 47.21875 32.234375 
Q 47.125 39.59375 43.09375 43.984375 
Q 39.0625 48.390625 32.421875 48.390625 
Q 24.90625 48.390625 20.390625 44.140625 
Q 15.875 39.890625 15.1875 32.171875 
z
" id="DejaVuSans-101"/>
       <path d="M 2.984375 54.6875 
L 12.5 54.6875 
L 29.59375 8.796875 
L 46.6875 54.6875 
L 56.203125 54.6875 
L 35.6875 0 
L 23.484375 0 
z
" id="DejaVuSans-118"/>
       <path d="M 34.28125 27.484375 
Q 23.390625 27.484375 19.1875 25 
Q 14.984375 22.515625 14.984375 16.5 
Q 14.984375 11.71875 18.140625 8.90625 
Q 21.296875 6.109375 26.703125 6.109375 
Q 34.1875 6.109375 38.703125 11.40625 
Q 43.21875 16.703125 43.21875 25.484375 
L 43.21875 27.484375 
z
M 52.203125 31.203125 
L 52.203125 0 
L 43.21875 0 
L 43.21875 8.296875 
Q 40.140625 3.328125 35.546875 0.953125 
Q 30.953125 -1.421875 24.3125 -1.421875 
Q 15.921875 -1.421875 10.953125 3.296875 
Q 6 8.015625 6 15.921875 
Q 6 25.140625 12.171875 29.828125 
Q 18.359375 34.515625 30.609375 34.515625 
L 43.21875 34.515625 
L 43.21875 35.40625 
Q 43.21875 41.609375 39.140625 45 
Q 35.0625 48.390625 27.6875 48.390625 
Q 23 48.390625 18.546875 47.265625 
Q 14.109375 46.140625 10.015625 43.890625 
L 10.015625 52.203125 
Q 14.9375 54.109375 19.578125 55.046875 
Q 24.21875 56 28.609375 56 
Q 40.484375 56 46.34375 49.84375 
Q 52.203125 43.703125 52.203125 31.203125 
z
" id="DejaVuSans-97"/>
       <path d="M 44.28125 53.078125 
L 44.28125 44.578125 
Q 40.484375 46.53125 36.375 47.5 
Q 32.28125 48.484375 27.875 48.484375 
Q 21.1875 48.484375 17.84375 46.4375 
Q 14.5 44.390625 14.5 40.28125 
Q 14.5 37.15625 16.890625 35.375 
Q 19.28125 33.59375 26.515625 31.984375 
L 29.59375 31.296875 
Q 39.15625 29.25 43.1875 25.515625 
Q 47.21875 21.78125 47.21875 15.09375 
Q 47.21875 7.46875 41.1875 3.015625 
Q 35.15625 -1.421875 24.609375 -1.421875 
Q 20.21875 -1.421875 15.453125 -0.5625 
Q 10.6875 0.296875 5.421875 2 
L 5.421875 11.28125 
Q 10.40625 8.6875 15.234375 7.390625 
Q 20.0625 6.109375 24.8125 6.109375 
Q 31.15625 6.109375 34.5625 8.28125 
Q 37.984375 10.453125 37.984375 14.40625 
Q 37.984375 18.0625 35.515625 20.015625 
Q 33.0625 21.96875 24.703125 23.78125 
L 21.578125 24.515625 
Q 13.234375 26.265625 9.515625 29.90625 
Q 5.8125 33.546875 5.8125 39.890625 
Q 5.8125 47.609375 11.28125 51.796875 
Q 16.75 56 26.8125 56 
Q 31.78125 56 36.171875 55.265625 
Q 40.578125 54.546875 44.28125 53.078125 
z
" id="DejaVuSans-115"/>
       <path d="M 25.390625 72.90625 
L 33.6875 72.90625 
L 8.296875 -9.28125 
L 0 -9.28125 
z
" id="DejaVuSans-47"/>
       <path d="M 45.40625 46.390625 
L 45.40625 75.984375 
L 54.390625 75.984375 
L 54.390625 0 
L 45.40625 0 
L 45.40625 8.203125 
Q 42.578125 3.328125 38.25 0.953125 
Q 33.9375 -1.421875 27.875 -1.421875 
Q 17.96875 -1.421875 11.734375 6.484375 
Q 5.515625 14.40625 5.515625 27.296875 
Q 5.515625 40.1875 11.734375 48.09375 
Q 17.96875 56 27.875 56 
Q 33.9375 56 38.25 53.625 
Q 42.578125 51.265625 45.40625 46.390625 
z
M 14.796875 27.296875 
Q 14.796875 17.390625 18.875 11.75 
Q 22.953125 6.109375 30.078125 6.109375 
Q 37.203125 6.109375 41.296875 11.75 
Q 45.40625 17.390625 45.40625 27.296875 
Q 45.40625 37.203125 41.296875 42.84375 
Q 37.203125 48.484375 30.078125 48.484375 
Q 22.953125 48.484375 18.875 42.84375 
Q 14.796875 37.203125 14.796875 27.296875 
z
" id="DejaVuSans-100"/>
       <path d="M 9.421875 54.6875 
L 18.40625 54.6875 
L 18.40625 0 
L 9.421875 0 
z
M 9.421875 75.984375 
L 18.40625 75.984375 
L 18.40625 64.59375 
L 9.421875 64.59375 
z
" id="DejaVuSans-105"/>
       <path d="M 52 44.1875 
Q 55.375 50.25 60.0625 53.125 
Q 64.75 56 71.09375 56 
Q 79.640625 56 84.28125 50.015625 
Q 88.921875 44.046875 88.921875 33.015625 
L 88.921875 0 
L 79.890625 0 
L 79.890625 32.71875 
Q 79.890625 40.578125 77.09375 44.375 
Q 74.3125 48.1875 68.609375 48.1875 
Q 61.625 48.1875 57.5625 43.546875 
Q 53.515625 38.921875 53.515625 30.90625 
L 53.515625 0 
L 44.484375 0 
L 44.484375 32.71875 
Q 44.484375 40.625 41.703125 44.40625 
Q 38.921875 48.1875 33.109375 48.1875 
Q 26.21875 48.1875 22.15625 43.53125 
Q 18.109375 38.875 18.109375 30.90625 
L 18.109375 0 
L 9.078125 0 
L 9.078125 54.6875 
L 18.109375 54.6875 
L 18.109375 46.1875 
Q 21.1875 51.21875 25.484375 53.609375 
Q 29.78125 56 35.6875 56 
Q 41.65625 56 45.828125 52.96875 
Q 50 49.953125 52 44.1875 
z
" id="DejaVuSans-109"/>
       <path d="M 54.890625 33.015625 
L 54.890625 0 
L 45.90625 0 
L 45.90625 32.71875 
Q 45.90625 40.484375 42.875 44.328125 
Q 39.84375 48.1875 33.796875 48.1875 
Q 26.515625 48.1875 22.3125 43.546875 
Q 18.109375 38.921875 18.109375 30.90625 
L 18.109375 0 
L 9.078125 0 
L 9.078125 54.6875 
L 18.109375 54.6875 
L 18.109375 46.1875 
Q 21.34375 51.125 25.703125 53.5625 
Q 30.078125 56 35.796875 56 
Q 45.21875 56 50.046875 50.171875 
Q 54.890625 44.34375 54.890625 33.015625 
z
" id="DejaVuSans-110"/>
       <path d="M 8.015625 75.875 
L 15.828125 75.875 
Q 23.140625 64.359375 26.78125 53.3125 
Q 30.421875 42.28125 30.421875 31.390625 
Q 30.421875 20.453125 26.78125 9.375 
Q 23.140625 -1.703125 15.828125 -13.1875 
L 8.015625 -13.1875 
Q 14.5 -2 17.703125 9.0625 
Q 20.90625 20.125 20.90625 31.390625 
Q 20.90625 42.671875 17.703125 53.65625 
Q 14.5 64.65625 8.015625 75.875 
z
" id="DejaVuSans-41"/>
      </defs>
      <use xlink:href="#DejaVuSans-108"/>
      <use x="27.783203" xlink:href="#DejaVuSans-111"/>
      <use x="88.964844" xlink:href="#DejaVuSans-103"/>
      <use x="152.441406" xlink:href="#DejaVuSans-49"/>
      <use x="216.064453" xlink:href="#DejaVuSans-48"/>
      <use x="279.6875" xlink:href="#DejaVuSans-40"/>
      <use x="318.701172" xlink:href="#DejaVuSans-35"/>
      <use x="402.490234" xlink:href="#DejaVuSans-32"/>
      <use x="434.277344" xlink:href="#DejaVuSans-102"/>
      <use x="463.982422" xlink:href="#DejaVuSans-45"/>
      <use x="500.066406" xlink:href="#DejaVuSans-101"/>
      <use x="561.589844" xlink:href="#DejaVuSans-118"/>
      <use x="620.769531" xlink:href="#DejaVuSans-97"/>
      <use x="682.048828" xlink:href="#DejaVuSans-108"/>
      <use x="709.832031" xlink:href="#DejaVuSans-115"/>
      <use x="761.931641" xlink:href="#DejaVuSans-32"/>
      <use x="793.71875" xlink:href="#DejaVuSans-47"/>
      <use x="827.410156" xlink:href="#DejaVuSans-32"/>
      <use x="859.197266" xlink:href="#DejaVuSans-100"/>
      <use x="922.673828" xlink:href="#DejaVuSans-105"/>
      <use x="950.457031" xlink:href="#DejaVuSans-109"/>
      <use x="1047.869141" xlink:href="#DejaVuSans-101"/>
      <use x="1109.392578" xlink:href="#DejaVuSans-110"/>
      <use x="1172.771484" xlink:href="#DejaVuSans-115"/>
      <use x="1224.871094" xlink:href="#DejaVuSans-105"/>
      <use x="1252.654297" xlink:href="#DejaVuSans-111"/>
      <use x="1313.835938" xlink:href="#DejaVuSans-110"/>
      <use x="1377.214844" xlink:href="#DejaVuSans-41"/>
     </g>
    </g>
   </g>
   <g id="matplotlib.axis_2">
    <g id="ytick_1">
     <g id="line2d_17">
      <path clip-path="url(#p56cc3b3c43)" d="M 57.6 298.944 
L 338.688 298.944 
" style="fill:none;stroke:#b0b0b0;stroke-linecap:square;stroke-width:0.8;"/>
     </g>
     <g id="line2d_18">
      <defs>
       <path d="M 0 0 
L -3.5 0 
" id="m62245e43f7" style="stroke:#000000;stroke-width:0.8;"/>
      </defs>
      <g>
       <use style="stroke:#000000;stroke-width:0.8;" x="57.6" xlink:href="#m62245e43f7" y="298.944"/>
      </g>
     </g>
     <g id="text_6">
      <!-- 0.0 -->
      <g transform="translate(25.155 305.02275)scale(0.16 -0.16)">
       <defs>
        <path d="M 10.6875 12.40625 
L 21 12.40625 
L 21 0 
L 10.6875 0 
z
" id="DejaVuSans-46"/>
       </defs>
       <use xlink:href="#DejaVuSans-48"/>
       <use x="63.623047" xlink:href="#DejaVuSans-46"/>
       <use x="95.410156" xlink:href="#DejaVuSans-48"/>
      </g>
     </g>
    </g>
    <g id="ytick_2">
     <g id="line2d_19">
      <path clip-path="url(#p56cc3b3c43)" d="M 57.6 245.22202 
L 338.688 245.22202 
" style="fill:none;stroke:#b0b0b0;stroke-linecap:square;stroke-width:0.8;"/>
     </g>
     <g id="line2d_20">
      <g>
       <use style="stroke:#000000;stroke-width:0.8;" x="57.6" xlink:href="#m62245e43f7" y="245.22202"/>
      </g>
     </g>
     <g id="text_7">
      <!-- 0.2 -->
      <g transform="translate(25.155 251.30077)scale(0.16 -0.16)">
       <use xlink:href="#DejaVuSans-48"/>
       <use x="63.623047" xlink:href="#DejaVuSans-46"/>
       <use x="95.410156" xlink:href="#DejaVuSans-50"/>
      </g>
     </g>
    </g>
    <g id="ytick_3">
     <g id="line2d_21">
      <path clip-path="url(#p56cc3b3c43)" d="M 57.6 191.50004 
L 338.688 191.50004 
" style="fill:none;stroke:#b0b0b0;stroke-linecap:square;stroke-width:0.8;"/>
     </g>
     <g id="line2d_22">
      <g>
       <use style="stroke:#000000;stroke-width:0.8;" x="57.6" xlink:href="#m62245e43f7" y="191.50004"/>
      </g>
     </g>
     <g id="text_8">
      <!-- 0.4 -->
      <g transform="translate(25.155 197.57879)scale(0.16 -0.16)">
       <use xlink:href="#DejaVuSans-48"/>
       <use x="63.623047" xlink:href="#DejaVuSans-46"/>
       <use x="95.410156" xlink:href="#DejaVuSans-52"/>
      </g>
     </g>
    </g>
    <g id="ytick_4">
     <g id="line2d_23">
      <path clip-path="url(#p56cc3b3c43)" d="M 57.6 137.778059 
L 338.688 137.778059 
" style="fill:none;stroke:#b0b0b0;stroke-linecap:square;stroke-width:0.8;"/>
     </g>
     <g id="line2d_24">
      <g>
       <use style="stroke:#000000;stroke-width:0.8;" x="57.6" xlink:href="#m62245e43f7" y="137.778059"/>
      </g>
     </g>
     <g id="text_9">
      <!-- 0.6 -->
      <g transform="translate(25.155 143.856809)scale(0.16 -0.16)">
       <use xlink:href="#DejaVuSans-48"/>
       <use x="63.623047" xlink:href="#DejaVuSans-46"/>
       <use x="95.410156" xlink:href="#DejaVuSans-54"/>
      </g>
     </g>
    </g>
    <g id="ytick_5">
     <g id="line2d_25">
      <path clip-path="url(#p56cc3b3c43)" d="M 57.6 84.056079 
L 338.688 84.056079 
" style="fill:none;stroke:#b0b0b0;stroke-linecap:square;stroke-width:0.8;"/>
     </g>
     <g id="line2d_26">
      <g>
       <use style="stroke:#000000;stroke-width:0.8;" x="57.6" xlink:href="#m62245e43f7" y="84.056079"/>
      </g>
     </g>
     <g id="text_10">
      <!-- 0.8 -->
      <g transform="translate(25.155 90.134829)scale(0.16 -0.16)">
       <defs>
        <path d="M 31.78125 34.625 
Q 24.75 34.625 20.71875 30.859375 
Q 16.703125 27.09375 16.703125 20.515625 
Q 16.703125 13.921875 20.71875 10.15625 
Q 24.75 6.390625 31.78125 6.390625 
Q 38.8125 6.390625 42.859375 10.171875 
Q 46.921875 13.96875 46.921875 20.515625 
Q 46.921875 27.09375 42.890625 30.859375 
Q 38.875 34.625 31.78125 34.625 
z
M 21.921875 38.8125 
Q 15.578125 40.375 12.03125 44.71875 
Q 8.5 49.078125 8.5 55.328125 
Q 8.5 64.0625 14.71875 69.140625 
Q 20.953125 74.21875 31.78125 74.21875 
Q 42.671875 74.21875 48.875 69.140625 
Q 55.078125 64.0625 55.078125 55.328125 
Q 55.078125 49.078125 51.53125 44.71875 
Q 48 40.375 41.703125 38.8125 
Q 48.828125 37.15625 52.796875 32.3125 
Q 56.78125 27.484375 56.78125 20.515625 
Q 56.78125 9.90625 50.3125 4.234375 
Q 43.84375 -1.421875 31.78125 -1.421875 
Q 19.734375 -1.421875 13.25 4.234375 
Q 6.78125 9.90625 6.78125 20.515625 
Q 6.78125 27.484375 10.78125 32.3125 
Q 14.796875 37.15625 21.921875 38.8125 
z
M 18.3125 54.390625 
Q 18.3125 48.734375 21.84375 45.5625 
Q 25.390625 42.390625 31.78125 42.390625 
Q 38.140625 42.390625 41.71875 45.5625 
Q 45.3125 48.734375 45.3125 54.390625 
Q 45.3125 60.0625 41.71875 63.234375 
Q 38.140625 66.40625 31.78125 66.40625 
Q 25.390625 66.40625 21.84375 63.234375 
Q 18.3125 60.0625 18.3125 54.390625 
z
" id="DejaVuSans-56"/>
       </defs>
       <use xlink:href="#DejaVuSans-48"/>
       <use x="63.623047" xlink:href="#DejaVuSans-46"/>
       <use x="95.410156" xlink:href="#DejaVuSans-56"/>
      </g>
     </g>
    </g>
    <g id="ytick_6">
     <g id="line2d_27">
      <path clip-path="url(#p56cc3b3c43)" d="M 57.6 30.334099 
L 338.688 30.334099 
" style="fill:none;stroke:#b0b0b0;stroke-linecap:square;stroke-width:0.8;"/>
     </g>
     <g id="line2d_28">
      <g>
       <use style="stroke:#000000;stroke-width:0.8;" x="57.6" xlink:href="#m62245e43f7" y="30.334099"/>
      </g>
     </g>
     <g id="text_11">
      <!-- 1.0 -->
      <g transform="translate(25.155 36.412849)scale(0.16 -0.16)">
       <use xlink:href="#DejaVuSans-49"/>
       <use x="63.623047" xlink:href="#DejaVuSans-46"/>
       <use x="95.410156" xlink:href="#DejaVuSans-48"/>
      </g>
     </g>
    </g>
    <g id="text_12">
     <!-- Fraction of function,target pairs -->
     <g transform="translate(17.619531 297.681)rotate(-90)scale(0.17 -0.17)">
      <defs>
       <path d="M 9.8125 72.90625 
L 51.703125 72.90625 
L 51.703125 64.59375 
L 19.671875 64.59375 
L 19.671875 43.109375 
L 48.578125 43.109375 
L 48.578125 34.8125 
L 19.671875 34.8125 
L 19.671875 0 
L 9.8125 0 
z
" id="DejaVuSans-70"/>
       <path d="M 41.109375 46.296875 
Q 39.59375 47.171875 37.8125 47.578125 
Q 36.03125 48 33.890625 48 
Q 26.265625 48 22.1875 43.046875 
Q 18.109375 38.09375 18.109375 28.8125 
L 18.109375 0 
L 9.078125 0 
L 9.078125 54.6875 
L 18.109375 54.6875 
L 18.109375 46.1875 
Q 20.953125 51.171875 25.484375 53.578125 
Q 30.03125 56 36.53125 56 
Q 37.453125 56 38.578125 55.875 
Q 39.703125 55.765625 41.0625 55.515625 
z
" id="DejaVuSans-114"/>
       <path d="M 48.78125 52.59375 
L 48.78125 44.1875 
Q 44.96875 46.296875 41.140625 47.34375 
Q 37.3125 48.390625 33.40625 48.390625 
Q 24.65625 48.390625 19.8125 42.84375 
Q 14.984375 37.3125 14.984375 27.296875 
Q 14.984375 17.28125 19.8125 11.734375 
Q 24.65625 6.203125 33.40625 6.203125 
Q 37.3125 6.203125 41.140625 7.25 
Q 44.96875 8.296875 48.78125 10.40625 
L 48.78125 2.09375 
Q 45.015625 0.34375 40.984375 -0.53125 
Q 36.96875 -1.421875 32.421875 -1.421875 
Q 20.0625 -1.421875 12.78125 6.34375 
Q 5.515625 14.109375 5.515625 27.296875 
Q 5.515625 40.671875 12.859375 48.328125 
Q 20.21875 56 33.015625 56 
Q 37.15625 56 41.109375 55.140625 
Q 45.0625 54.296875 48.78125 52.59375 
z
" id="DejaVuSans-99"/>
       <path d="M 18.3125 70.21875 
L 18.3125 54.6875 
L 36.8125 54.6875 
L 36.8125 47.703125 
L 18.3125 47.703125 
L 18.3125 18.015625 
Q 18.3125 11.328125 20.140625 9.421875 
Q 21.96875 7.515625 27.59375 7.515625 
L 36.8125 7.515625 
L 36.8125 0 
L 27.59375 0 
Q 17.1875 0 13.234375 3.875 
Q 9.28125 7.765625 9.28125 18.015625 
L 9.28125 47.703125 
L 2.6875 47.703125 
L 2.6875 54.6875 
L 9.28125 54.6875 
L 9.28125 70.21875 
z
" id="DejaVuSans-116"/>
       <path d="M 8.5 21.578125 
L 8.5 54.6875 
L 17.484375 54.6875 
L 17.484375 21.921875 
Q 17.484375 14.15625 20.5 10.265625 
Q 23.53125 6.390625 29.59375 6.390625 
Q 36.859375 6.390625 41.078125 11.03125 
Q 45.3125 15.671875 45.3125 23.6875 
L 45.3125 54.6875 
L 54.296875 54.6875 
L 54.296875 0 
L 45.3125 0 
L 45.3125 8.40625 
Q 42.046875 3.421875 37.71875 1 
Q 33.40625 -1.421875 27.6875 -1.421875 
Q 18.265625 -1.421875 13.375 4.4375 
Q 8.5 10.296875 8.5 21.578125 
z
M 31.109375 56 
z
" id="DejaVuSans-117"/>
       <path d="M 11.71875 12.40625 
L 22.015625 12.40625 
L 22.015625 4 
L 14.015625 -11.625 
L 7.71875 -11.625 
L 11.71875 4 
z
" id="DejaVuSans-44"/>
       <path d="M 18.109375 8.203125 
L 18.109375 -20.796875 
L 9.078125 -20.796875 
L 9.078125 54.6875 
L 18.109375 54.6875 
L 18.109375 46.390625 
Q 20.953125 51.265625 25.265625 53.625 
Q 29.59375 56 35.59375 56 
Q 45.5625 56 51.78125 48.09375 
Q 58.015625 40.1875 58.015625 27.296875 
Q 58.015625 14.40625 51.78125 6.484375 
Q 45.5625 -1.421875 35.59375 -1.421875 
Q 29.59375 -1.421875 25.265625 0.953125 
Q 20.953125 3.328125 18.109375 8.203125 
z
M 48.6875 27.296875 
Q 48.6875 37.203125 44.609375 42.84375 
Q 40.53125 48.484375 33.40625 48.484375 
Q 26.265625 48.484375 22.1875 42.84375 
Q 18.109375 37.203125 18.109375 27.296875 
Q 18.109375 17.390625 22.1875 11.75 
Q 26.265625 6.109375 33.40625 6.109375 
Q 40.53125 6.109375 44.609375 11.75 
Q 48.6875 17.390625 48.6875 27.296875 
z
" id="DejaVuSans-112"/>
      </defs>
      <use xlink:href="#DejaVuSans-70"/>
      <use x="50.269531" xlink:href="#DejaVuSans-114"/>
      <use x="91.382812" xlink:href="#DejaVuSans-97"/>
      <use x="152.662109" xlink:href="#DejaVuSans-99"/>
      <use x="207.642578" xlink:href="#DejaVuSans-116"/>
      <use x="246.851562" xlink:href="#DejaVuSans-105"/>
      <use x="274.634766" xlink:href="#DejaVuSans-111"/>
      <use x="335.816406" xlink:href="#DejaVuSans-110"/>
      <use x="399.195312" xlink:href="#DejaVuSans-32"/>
      <use x="430.982422" xlink:href="#DejaVuSans-111"/>
      <use x="492.164062" xlink:href="#DejaVuSans-102"/>
      <use x="527.369141" xlink:href="#DejaVuSans-32"/>
      <use x="559.15625" xlink:href="#DejaVuSans-102"/>
      <use x="594.361328" xlink:href="#DejaVuSans-117"/>
      <use x="657.740234" xlink:href="#DejaVuSans-110"/>
      <use x="721.119141" xlink:href="#DejaVuSans-99"/>
      <use x="776.099609" xlink:href="#DejaVuSans-116"/>
      <use x="815.308594" xlink:href="#DejaVuSans-105"/>
      <use x="843.091797" xlink:href="#DejaVuSans-111"/>
      <use x="904.273438" xlink:href="#DejaVuSans-110"/>
      <use x="967.652344" xlink:href="#DejaVuSans-44"/>
      <use x="999.439453" xlink:href="#DejaVuSans-116"/>
      <use x="1038.648438" xlink:href="#DejaVuSans-97"/>
      <use x="1099.927734" xlink:href="#DejaVuSans-114"/>
      <use x="1139.291016" xlink:href="#DejaVuSans-103"/>
      <use x="1202.767578" xlink:href="#DejaVuSans-101"/>
      <use x="1264.291016" xlink:href="#DejaVuSans-116"/>
      <use x="1303.5" xlink:href="#DejaVuSans-32"/>
      <use x="1335.287109" xlink:href="#DejaVuSans-112"/>
      <use x="1398.763672" xlink:href="#DejaVuSans-97"/>
      <use x="1460.042969" xlink:href="#DejaVuSans-105"/>
      <use x="1487.826172" xlink:href="#DejaVuSans-114"/>
      <use x="1528.939453" xlink:href="#DejaVuSans-115"/>
     </g>
    </g>
   </g>
   <g id="line2d_29">
    <defs>
     <path d="M 0 1.5 
C 0.397805 1.5 0.77937 1.341951 1.06066 1.06066 
C 1.341951 0.77937 1.5 0.397805 1.5 0 
C 1.5 -0.397805 1.341951 -0.77937 1.06066 -1.06066 
C 0.77937 -1.341951 0.397805 -1.5 0 -1.5 
C -0.397805 -1.5 -0.77937 -1.341951 -1.06066 -1.06066 
C -1.341951 -0.77937 -1.5 -0.397805 -1.5 0 
C -1.5 0.397805 -1.341951 0.77937 -1.06066 1.06066 
C -0.77937 1.341951 -0.397805 1.5 0 1.5 
z
" id="m77129d8b01" style="stroke:#00bfbf;"/>
    </defs>
    <g>
     <use style="fill:#00bfbf;stroke:#00bfbf;" x="161.12334" xlink:href="#m77129d8b01" y="30.334099"/>
     <use style="fill:#00bfbf;stroke:#00bfbf;" x="161.12334" xlink:href="#m77129d8b01" y="30.334099"/>
    </g>
   </g>
   <g id="line2d_30">
    <path d="M 45.512012 298.944 
L 45.512012 267.342835 
L 57.6 267.342835 
L 57.6 258.915858 
L 64.67102 258.915858 
L 64.67102 255.229055 
L 69.687988 255.229055 
L 69.687988 250.488881 
L 73.579452 250.488881 
L 73.579452 246.275392 
L 76.759008 246.275392 
L 76.759008 242.061903 
L 79.447285 242.061903 
L 79.447285 235.74167 
L 83.830028 235.74167 
L 83.830028 227.314693 
L 91.535274 227.314693 
L 91.535274 225.734635 
L 97.755429 225.734635 
L 97.755429 225.207949 
L 101.646892 225.207949 
L 101.646892 224.681263 
L 102.330873 224.681263 
L 102.330873 224.154577 
L 104.23523 224.154577 
L 104.23523 223.627891 
L 104.826449 223.627891 
L 104.826449 223.101204 
L 107.009204 223.101204 
L 107.009204 222.574518 
L 113.382559 222.574518 
L 113.382559 222.047832 
L 114.080224 222.047832 
L 114.080224 221.521146 
L 118.838828 221.521146 
L 118.838828 220.99446 
L 120.571812 220.99446 
L 120.571812 220.467774 
L 121.712041 220.467774 
L 121.712041 219.414402 
L 122.148045 219.414402 
L 122.148045 218.887716 
L 123.790603 218.887716 
L 123.790603 218.36103 
L 123.985457 218.36103 
L 123.985457 217.834344 
L 124.743806 217.834344 
L 124.743806 217.307658 
L 126.839037 217.307658 
L 126.839037 216.780971 
L 127.48501 216.780971 
L 127.48501 215.727599 
L 128.260216 215.727599 
L 128.260216 214.674227 
L 128.560901 214.674227 
L 128.560901 214.147541 
L 130.531948 214.147541 
L 130.531948 213.094169 
L 130.926816 213.094169 
L 130.926816 212.567483 
L 131.056477 212.567483 
L 131.056477 212.040797 
L 133.239232 212.040797 
L 133.239232 211.514111 
L 133.352844 211.514111 
L 133.352844 210.987425 
L 133.800029 210.987425 
L 133.910056 209.407366 
L 134.12805 209.407366 
L 134.12805 208.88068 
L 134.661403 208.88068 
L 134.661403 208.353994 
L 135.780341 208.353994 
L 135.780341 207.300622 
L 136.170062 207.300622 
L 136.266147 205.720564 
L 136.551264 205.720564 
L 136.551264 205.193878 
L 137.107884 205.193878 
L 137.107884 204.667192 
L 137.469333 204.667192 
L 137.558536 203.613819 
L 137.647286 203.613819 
L 137.735587 202.560447 
L 137.910857 202.560447 
L 137.910857 201.507075 
L 138.927025 201.507075 
L 138.927025 200.453703 
L 139.413734 200.453703 
L 139.413734 199.400331 
L 139.8092 199.400331 
L 139.8092 197.820273 
L 139.964909 197.820273 
L 140.042245 196.240214 
L 140.195896 196.240214 
L 140.272217 194.13347 
L 140.423864 194.13347 
L 140.499195 190.973354 
L 140.64889 190.973354 
L 140.64889 188.866609 
L 140.79731 188.866609 
L 140.79731 187.286551 
L 140.944478 187.286551 
L 140.944478 186.233179 
L 141.090414 186.233179 
L 141.090414 184.653121 
L 141.235139 184.653121 
L 141.235139 184.126434 
L 141.378673 184.126434 
L 141.378673 183.599748 
L 141.591783 183.599748 
L 141.591783 180.439632 
L 141.732423 180.439632 
L 141.732423 179.912946 
L 143.144465 179.912946 
L 143.144465 179.38626 
L 143.40093 179.38626 
L 143.40093 178.859574 
L 143.590833 178.859574 
L 143.590833 178.332888 
L 143.964547 178.332888 
L 143.964547 176.226143 
L 144.087359 176.226143 
L 144.087359 175.172771 
L 144.629556 175.172771 
L 144.688773 173.066027 
L 144.865226 173.066027 
L 144.865226 171.485969 
L 145.155404 171.485969 
L 145.155404 170.432596 
L 145.553708 170.432596 
L 145.553708 169.90591 
L 146.052799 169.90591 
L 146.161795 164.112363 
L 146.216039 164.112363 
L 146.216039 162.532305 
L 146.377764 162.532305 
L 146.431341 160.952247 
L 146.696785 160.952247 
L 146.696785 160.425561 
L 146.906268 160.425561 
L 146.958248 159.372189 
L 147.061745 159.372189 
L 147.164632 156.212072 
L 147.266916 156.212072 
L 147.266916 155.1587 
L 147.52003 155.1587 
L 147.52003 154.632014 
L 147.670154 154.632014 
L 147.670154 154.105328 
L 148.112924 154.105328 
L 148.209809 150.945211 
L 148.258051 150.945211 
L 148.258051 148.311781 
L 148.639252 148.311781 
L 148.639252 147.785095 
L 148.826773 147.785095 
L 148.826773 147.258409 
L 149.012299 147.258409 
L 149.104327 145.678351 
L 149.332295 145.678351 
L 149.332295 145.151665 
L 149.467659 145.151665 
L 149.467659 144.624978 
L 149.646525 144.624978 
L 149.646525 143.04492 
L 149.867558 143.04492 
L 149.955193 140.41149 
L 150.129152 140.41149 
L 150.215485 138.831432 
L 150.258492 138.831432 
L 150.258492 138.304745 
L 150.640855 138.304745 
L 150.640855 136.198001 
L 151.015013 136.198001 
L 151.015013 135.671315 
L 151.219462 135.671315 
L 151.260066 129.351082 
L 151.461678 129.351082 
L 151.461678 128.824396 
L 151.740076 128.824396 
L 151.779487 124.610907 
L 151.858043 124.610907 
L 151.858043 121.977477 
L 152.091608 121.977477 
L 152.091608 121.450791 
L 152.245598 121.450791 
L 152.322086 117.237302 
L 152.436193 117.237302 
L 152.436193 116.710616 
L 152.549559 116.710616 
L 152.549559 115.130558 
L 152.699575 115.130558 
L 152.736878 111.970441 
L 152.811246 111.970441 
L 152.885298 110.917069 
L 152.959038 110.917069 
L 153.032466 108.283639 
L 153.142033 108.283639 
L 153.250915 100.910034 
L 153.323128 100.910034 
L 153.430889 99.329976 
L 153.537988 99.329976 
L 153.644434 97.223231 
L 153.750233 97.223231 
L 153.855395 95.116487 
L 154.098334 95.116487 
L 154.132765 92.483056 
L 154.405793 92.483056 
L 154.507086 90.902998 
L 154.57429 90.902998 
L 154.674612 88.269568 
L 154.707925 88.269568 
L 154.707925 87.742882 
L 154.840544 87.742882 
L 154.93935 84.056079 
L 154.972161 84.056079 
L 155.070227 82.476021 
L 155.102793 82.476021 
L 155.135299 79.315904 
L 155.264719 79.315904 
L 155.264719 78.789218 
L 155.457066 78.789218 
L 155.457066 78.262532 
L 155.61575 78.262532 
L 155.710272 75.102416 
L 155.741666 75.102416 
L 155.83551 68.782183 
L 155.897793 68.782183 
L 155.897793 68.255497 
L 156.021696 68.255497 
L 156.083319 66.148752 
L 156.205916 66.148752 
L 156.266892 59.82852 
L 156.38821 59.82852 
L 156.38821 56.668403 
L 156.538679 56.668403 
L 156.538679 55.615031 
L 156.776762 55.615031 
L 156.776762 55.088345 
L 156.953214 55.088345 
L 157.040776 52.9816 
L 157.156845 52.9816 
L 157.156845 51.928228 
L 157.358125 51.928228 
L 157.443681 48.768112 
L 157.613546 48.768112 
L 157.669802 47.188054 
L 157.809652 47.188054 
L 157.809652 46.134681 
L 158.113432 46.134681 
L 158.140788 43.501251 
L 158.276927 43.501251 
L 158.276927 40.341135 
L 158.784773 40.341135 
L 158.784773 39.814448 
L 159.072168 39.814448 
L 159.098062 38.23439 
L 159.226956 38.23439 
L 159.226956 37.707704 
L 159.380382 37.707704 
L 159.380382 35.60096 
L 159.956318 35.60096 
L 159.980933 34.547588 
L 160.127894 34.547588 
L 160.127894 32.967529 
L 160.750792 32.967529 
L 160.750792 31.387471 
L 160.86807 31.387471 
L 160.86807 30.860785 
L 161.12334 30.860785 
L 161.12334 30.334099 
L 338.688 30.334099 
L 338.688 30.334099 
" style="fill:none;stroke:#00bfbf;stroke-linecap:square;stroke-width:1.5;"/>
   </g>
   <g id="line2d_31">
    <defs>
     <path d="M -6 0 
L 6 0 
M 0 6 
L 0 -6 
" id="m39d5ed18fe" style="stroke:#00bfbf;stroke-width:1.5;"/>
    </defs>
    <g>
     <use style="fill-opacity:0;stroke:#00bfbf;stroke-width:1.5;" x="69.687988" xlink:href="#m39d5ed18fe" y="250.488881"/>
     <use style="fill-opacity:0;stroke:#00bfbf;stroke-width:1.5;" x="144.865226" xlink:href="#m39d5ed18fe" y="173.066027"/>
     <use style="fill-opacity:0;stroke:#00bfbf;stroke-width:1.5;" x="156.776762" xlink:href="#m39d5ed18fe" y="55.615031"/>
     <use style="fill-opacity:0;stroke:#00bfbf;stroke-width:1.5;" x="161.12334" xlink:href="#m39d5ed18fe" y="30.860785"/>
     <use style="fill-opacity:0;stroke:#00bfbf;stroke-width:1.5;" x="161.12334" xlink:href="#m39d5ed18fe" y="30.334099"/>
     <use style="fill-opacity:0;stroke:#00bfbf;stroke-width:1.5;" x="338.688" xlink:href="#m39d5ed18fe" y="30.334099"/>
    </g>
   </g>
   <g id="line2d_32">
    <path style="fill:none;stroke:#00bfbf;stroke-linecap:square;stroke-width:1.5;"/>
    <g/>
   </g>
   <g id="line2d_33">
    <defs>
     <path d="M 0 1.5 
C 0.397805 1.5 0.77937 1.341951 1.06066 1.06066 
C 1.341951 0.77937 1.5 0.397805 1.5 0 
C 1.5 -0.397805 1.341951 -0.77937 1.06066 -1.06066 
C 0.77937 -1.341951 0.397805 -1.5 0 -1.5 
C -0.397805 -1.5 -0.77937 -1.341951 -1.06066 -1.06066 
C -1.341951 -0.77937 -1.5 -0.397805 -1.5 0 
C -1.5 0.397805 -1.341951 0.77937 -1.06066 1.06066 
C -0.77937 1.341951 -0.397805 1.5 0 1.5 
z
" id="m57ec87de15" style="stroke:#008000;"/>
    </defs>
    <g>
     <use style="fill:#008000;stroke:#008000;" x="173.621148" xlink:href="#m57ec87de15" y="30.334099"/>
     <use style="fill:#008000;stroke:#008000;" x="173.621148" xlink:href="#m57ec87de15" y="30.334099"/>
    </g>
   </g>
   <g id="line2d_34">
    <path d="M 38.440992 298.944 
L 38.440992 272.609696 
L 50.52898 272.609696 
L 50.52898 270.502952 
L 57.6 270.502952 
L 57.6 269.449579 
L 62.616969 269.449579 
L 62.616969 264.182719 
L 66.508432 264.182719 
L 66.508432 262.60266 
L 69.687988 262.60266 
L 69.687988 261.022602 
L 72.376266 261.022602 
L 72.376266 260.495916 
L 74.704957 260.495916 
L 74.704957 257.862486 
L 76.759008 257.862486 
L 76.759008 257.3358 
L 78.59642 257.3358 
L 78.59642 256.809114 
L 80.258561 256.809114 
L 80.258561 255.755741 
L 81.775977 255.755741 
L 81.775977 255.229055 
L 83.171864 255.229055 
L 83.171864 252.595625 
L 85.66744 252.595625 
L 85.66744 249.962195 
L 87.850195 249.962195 
L 87.850195 248.908822 
L 90.684409 248.908822 
L 90.684409 248.382136 
L 92.34655 248.382136 
L 92.34655 247.328764 
L 93.121756 247.328764 
L 93.121756 244.695334 
L 98.880934 244.695334 
L 98.880934 243.641962 
L 100.934985 243.641962 
L 100.934985 242.588589 
L 104.033617 242.588589 
L 104.033617 242.061903 
L 105.584798 242.061903 
L 105.584798 241.535217 
L 107.009204 241.535217 
L 107.009204 241.008531 
L 109.252198 241.008531 
L 109.252198 240.481845 
L 110.968922 240.481845 
L 110.968922 238.901787 
L 111.239304 238.901787 
L 111.239304 236.795043 
L 111.767808 236.795043 
L 111.767808 234.688298 
L 112.026172 234.688298 
L 112.026172 234.161612 
L 112.779064 234.161612 
L 112.779064 233.634926 
L 113.965867 233.634926 
L 113.965867 233.10824 
L 117.857331 233.10824 
L 117.857331 232.581554 
L 118.576578 232.581554 
L 118.576578 232.054868 
L 118.751849 232.054868 
L 118.751849 231.001496 
L 119.43583 231.001496 
L 119.43583 230.47481 
L 119.931767 230.47481 
L 119.931767 229.948123 
L 120.41399 229.948123 
L 120.41399 229.421437 
L 121.036887 229.421437 
L 121.036887 228.894751 
L 128.709321 228.894751 
L 128.709321 228.368065 
L 130.487516 228.368065 
L 130.487516 227.841379 
L 131.013364 227.841379 
L 131.013364 227.314693 
L 131.523818 227.314693 
L 131.523818 226.788007 
L 133.428175 226.788007 
L 133.428175 226.261321 
L 133.72629 226.261321 
L 133.72629 225.734635 
L 134.7313 225.734635 
L 134.7313 225.207949 
L 135.615352 225.207949 
L 135.615352 224.681263 
L 137.735587 224.681263 
L 137.735587 224.154577 
L 138.199116 224.154577 
L 138.199116 223.627891 
L 138.872098 223.627891 
L 138.872098 223.101204 
L 139.413734 223.101204 
L 139.413734 222.574518 
L 139.990725 222.574518 
L 139.990725 222.047832 
L 140.144829 222.047832 
L 140.144829 221.521146 
L 140.698504 221.521146 
L 140.698504 220.99446 
L 141.235139 220.99446 
L 141.235139 220.467774 
L 141.47371 220.467774 
L 141.47371 219.414402 
L 142.752555 219.414402 
L 142.840411 218.36103 
L 143.014805 218.36103 
L 143.014805 217.834344 
L 143.569835 217.834344 
L 143.569835 217.307658 
L 143.985075 217.307658 
L 144.026061 216.254285 
L 144.708467 216.254285 
L 144.708467 215.727599 
L 144.865226 215.727599 
L 144.865226 215.200913 
L 145.365173 215.200913 
L 145.365173 214.674227 
L 145.998045 214.674227 
L 145.998045 214.147541 
L 146.538004 214.147541 
L 146.644018 213.094169 
L 146.679213 213.094169 
L 146.679213 212.567483 
L 147.802521 212.567483 
L 147.802521 212.040797 
L 148.096724 212.040797 
L 148.096724 211.514111 
L 148.354135 211.514111 
L 148.449693 209.407366 
L 148.670646 209.407366 
L 148.733265 207.827308 
L 148.888835 207.827308 
L 148.888835 207.300622 
L 149.195872 207.300622 
L 149.195872 206.24725 
L 149.646525 206.24725 
L 149.705742 204.140506 
L 149.764758 204.140506 
L 149.764758 203.613819 
L 149.882194 203.613819 
L 149.882194 203.087133 
L 150.085825 203.087133 
L 150.085825 202.560447 
L 150.344189 202.560447 
L 150.429467 201.507075 
L 150.542526 201.507075 
L 150.542526 200.980389 
L 150.822008 200.980389 
L 150.904986 198.873645 
L 151.501723 198.873645 
L 151.554972 197.820273 
L 151.792604 197.820273 
L 151.897188 195.713528 
L 151.949246 195.713528 
L 151.949246 194.660156 
L 152.360205 194.660156 
L 152.410901 193.080098 
L 152.587184 193.080098 
L 152.587184 192.553412 
L 153.275019 192.553412 
L 153.323128 189.919981 
L 153.418948 189.919981 
L 153.514245 188.339923 
L 153.537988 188.339923 
L 153.537988 187.813237 
L 153.843742 187.813237 
L 153.913546 184.653121 
L 154.098334 184.653121 
L 154.121296 182.01969 
L 154.212841 182.01969 
L 154.212841 180.966318 
L 154.349264 180.966318 
L 154.371897 179.38626 
L 154.529516 179.38626 
L 154.618949 175.172771 
L 154.752243 175.172771 
L 154.81851 173.066027 
L 155.0376 173.066027 
L 155.081089 172.012655 
L 155.296925 172.012655 
L 155.339773 170.959282 
L 155.46769 170.959282 
L 155.573575 167.799166 
L 155.657823 167.799166 
L 155.762564 163.058991 
L 155.804285 163.058991 
L 155.887428 161.478933 
L 156.093569 161.478933 
L 156.093569 158.845503 
L 156.216093 158.845503 
L 156.216093 157.79213 
L 156.498681 157.79213 
L 156.578586 156.212072 
L 156.638275 156.212072 
L 156.697761 154.105328 
L 156.757045 154.105328 
L 156.816128 151.471897 
L 156.875011 151.471897 
L 156.972711 148.838467 
L 157.050478 148.838467 
L 157.147202 146.731723 
L 157.28172 146.731723 
L 157.319964 145.678351 
L 157.415209 145.678351 
L 157.491032 140.938176 
L 157.547684 140.938176 
L 157.641697 139.884804 
L 157.67916 139.884804 
L 157.67916 138.831432 
L 157.883783 138.831432 
L 157.976006 137.778059 
L 158.067744 137.778059 
L 158.122556 135.671315 
L 158.195371 135.671315 
L 158.267884 133.037885 
L 158.322071 133.037885 
L 158.322071 132.511199 
L 158.447857 132.511199 
L 158.501489 131.457826 
L 158.572743 131.457826 
L 158.590511 126.190966 
L 158.749613 126.190966 
L 158.749613 125.66428 
L 159.028927 125.66428 
L 159.098062 123.030849 
L 159.354904 123.030849 
L 159.354904 122.504163 
L 159.54088 122.504163 
L 159.608019 117.237302 
L 159.658204 117.237302 
L 159.758143 115.130558 
L 159.84099 115.130558 
L 159.923445 113.023814 
L 160.233268 113.023814 
L 160.233268 111.970441 
L 160.378126 111.970441 
L 160.378126 110.917069 
L 160.489968 110.917069 
L 160.553557 109.863697 
L 160.616915 109.863697 
L 160.616915 106.703581 
L 160.80562 106.703581 
L 160.914762 103.016778 
L 160.992304 103.016778 
L 161.007772 101.963406 
L 161.222884 101.963406 
L 161.283861 100.383348 
L 161.510643 100.383348 
L 161.510643 97.749917 
L 161.64531 97.749917 
L 161.64531 97.223231 
L 161.764147 97.223231 
L 161.867469 94.589801 
L 161.911563 94.589801 
L 161.911563 94.063115 
L 162.289115 94.063115 
L 162.375093 91.95637 
L 162.574077 91.95637 
L 162.574077 90.902998 
L 162.756836 90.902998 
L 162.756836 89.849626 
L 162.979172 89.849626 
L 162.979172 89.32294 
L 163.103002 89.32294 
L 163.185069 86.68951 
L 163.225959 86.68951 
L 163.33453 83.529393 
L 163.44243 83.529393 
L 163.455871 82.476021 
L 163.709295 82.476021 
L 163.814908 80.369277 
L 163.854349 80.369277 
L 163.946031 78.789218 
L 164.024234 78.789218 
L 164.024234 77.20916 
L 164.140886 77.20916 
L 164.231078 71.942299 
L 164.256762 71.942299 
L 164.333587 70.362241 
L 164.410075 70.362241 
L 164.410075 69.835555 
L 164.536814 69.835555 
L 164.536814 68.782183 
L 164.837283 68.782183 
L 164.9363 64.568694 
L 164.960967 64.568694 
L 164.960967 64.042008 
L 165.157053 64.042008 
L 165.242153 61.408578 
L 165.302685 61.408578 
L 165.302685 60.355206 
L 165.471066 60.355206 
L 165.471066 59.82852 
L 165.59035 59.82852 
L 165.685193 56.668403 
L 165.744209 56.668403 
L 165.744209 56.141717 
L 165.885039 56.141717 
L 165.966667 54.034973 
L 166.117256 54.034973 
L 166.220754 51.401542 
L 166.289413 51.401542 
L 166.289413 50.34817 
L 166.639906 50.34817 
L 166.695783 46.661368 
L 166.7626 46.661368 
L 166.7626 45.607995 
L 166.917519 45.607995 
L 166.928532 44.027937 
L 167.395635 44.027937 
L 167.395635 43.501251 
L 167.587512 43.501251 
L 167.587512 42.974565 
L 167.724788 42.974565 
L 167.724788 42.447879 
L 168.13025 42.447879 
L 168.13025 41.921193 
L 168.273531 41.921193 
L 168.273531 41.394507 
L 168.395414 41.394507 
L 168.405532 39.814448 
L 168.815417 39.814448 
L 168.815417 39.287762 
L 169.66393 39.287762 
L 169.66393 38.761076 
L 170.491026 38.761076 
L 170.491026 38.23439 
L 170.969087 38.23439 
L 170.969087 37.707704 
L 171.837825 37.707704 
L 171.928978 36.654332 
L 171.978498 36.654332 
L 172.06072 34.547588 
L 172.720707 34.547588 
L 172.720707 34.020902 
L 173.01052 34.020902 
L 173.103489 32.967529 
L 173.371849 32.967529 
L 173.470484 31.387471 
L 173.621148 31.387471 
L 173.621148 30.334099 
L 338.688 30.334099 
L 338.688 30.334099 
" style="fill:none;stroke:#008000;stroke-linecap:square;stroke-width:1.5;"/>
   </g>
   <g id="line2d_35">
    <defs>
     <path d="M -0 6 
L 6 -6 
L -6 -6 
z
" id="m7f41e06910" style="stroke:#008000;stroke-linejoin:miter;stroke-width:1.5;"/>
    </defs>
    <g>
     <use style="fill-opacity:0;stroke:#008000;stroke-linejoin:miter;stroke-width:1.5;" x="74.704957" xlink:href="#m7f41e06910" y="260.495916"/>
     <use style="fill-opacity:0;stroke:#008000;stroke-linejoin:miter;stroke-width:1.5;" x="146.679213" xlink:href="#m7f41e06910" y="213.094169"/>
     <use style="fill-opacity:0;stroke:#008000;stroke-linejoin:miter;stroke-width:1.5;" x="163.709295" xlink:href="#m7f41e06910" y="82.476021"/>
     <use style="fill-opacity:0;stroke:#008000;stroke-linejoin:miter;stroke-width:1.5;" x="173.621148" xlink:href="#m7f41e06910" y="31.387471"/>
     <use style="fill-opacity:0;stroke:#008000;stroke-linejoin:miter;stroke-width:1.5;" x="173.621148" xlink:href="#m7f41e06910" y="30.334099"/>
     <use style="fill-opacity:0;stroke:#008000;stroke-linejoin:miter;stroke-width:1.5;" x="338.688" xlink:href="#m7f41e06910" y="30.334099"/>
    </g>
   </g>
   <g id="line2d_36">
    <path style="fill:none;stroke:#008000;stroke-linecap:square;stroke-width:1.5;"/>
    <g/>
   </g>
   <g id="line2d_37">
    <defs>
     <path d="M 0 1.5 
C 0.397805 1.5 0.77937 1.341951 1.06066 1.06066 
C 1.341951 0.77937 1.5 0.397805 1.5 0 
C 1.5 -0.397805 1.341951 -0.77937 1.06066 -1.06066 
C 0.77937 -1.341951 0.397805 -1.5 0 -1.5 
C -0.397805 -1.5 -0.77937 -1.341951 -1.06066 -1.06066 
C -1.341951 -0.77937 -1.5 -0.397805 -1.5 0 
C -1.5 0.397805 -1.341951 0.77937 -1.06066 1.06066 
C -0.77937 1.341951 -0.397805 1.5 0 1.5 
z
" id="mdb5c6cf892" style="stroke:#0000ff;"/>
    </defs>
    <g>
     <use style="fill:#0000ff;stroke:#0000ff;" x="170.124596" xlink:href="#mdb5c6cf892" y="30.334099"/>
     <use style="fill:#0000ff;stroke:#0000ff;" x="170.124596" xlink:href="#mdb5c6cf892" y="30.334099"/>
    </g>
   </g>
   <g id="line2d_38">
    <path d="M 29.53256 298.944 
L 29.53256 283.143418 
L 48.691568 283.143418 
L 48.691568 282.616732 
L 65.796525 282.616732 
L 65.796525 281.036673 
L 67.850577 281.036673 
L 67.850577 279.456615 
L 72.867545 279.456615 
L 72.867545 278.929929 
L 76.759008 278.929929 
L 76.759008 277.876557 
L 81.775977 277.876557 
L 81.775977 277.349871 
L 82.626842 277.349871 
L 82.626842 275.769812 
L 88.846997 275.769812 
L 88.846997 274.71644 
L 91.029752 274.71644 
L 91.029752 273.663068 
L 95.918017 273.663068 
L 95.918017 273.136382 
L 96.301313 273.136382 
L 96.301313 272.609696 
L 100.343767 272.609696 
L 100.343767 271.556324 
L 101.223245 271.556324 
L 101.223245 271.029638 
L 102.330873 271.029638 
L 102.330873 269.976266 
L 104.114542 269.976266 
L 104.114542 269.449579 
L 104.355088 269.449579 
L 104.355088 268.922893 
L 106.168594 268.922893 
L 106.168594 267.342835 
L 106.382575 267.342835 
L 106.382575 266.816149 
L 107.811151 266.816149 
L 107.811151 266.289463 
L 108.389302 266.289463 
L 108.389302 265.762777 
L 109.31223 265.762777 
L 109.31223 265.236091 
L 110.694282 265.236091 
L 110.694282 264.709405 
L 112.128456 264.709405 
L 112.128456 263.656033 
L 112.280765 263.656033 
L 112.280765 262.075974 
L 112.431755 262.075974 
L 112.431755 261.549288 
L 115.205729 261.549288 
L 115.205729 261.022602 
L 115.33349 261.022602 
L 115.33349 259.96923 
L 115.460322 259.96923 
L 115.460322 259.442544 
L 115.835374 259.442544 
L 115.835374 258.915858 
L 116.323218 258.915858 
L 116.323218 258.389172 
L 116.680349 258.389172 
L 116.680349 257.3358 
L 117.030313 257.3358 
L 117.030313 256.809114 
L 118.256582 256.809114 
L 118.256582 256.282427 
L 118.994305 256.282427 
L 118.994305 255.755741 
L 119.80089 255.755741 
L 119.80089 253.648997 
L 120.571812 253.648997 
L 120.571812 253.122311 
L 120.944859 253.122311 
L 120.944859 252.595625 
L 121.128432 252.595625 
L 121.128432 252.068939 
L 122.018385 252.068939 
L 122.018385 250.488881 
L 122.531342 250.488881 
L 122.531342 249.962195 
L 122.782271 249.962195 
L 122.782271 249.435508 
L 122.947573 249.435508 
L 122.947573 248.908822 
L 125.038147 248.908822 
L 125.038147 248.382136 
L 126.304457 248.382136 
L 126.304457 247.328764 
L 127.611382 247.328764 
L 127.611382 246.802078 
L 127.736845 246.802078 
L 127.736845 246.275392 
L 128.944197 246.275392 
L 128.944197 245.748706 
L 130.558552 245.748706 
L 130.61164 244.695334 
L 130.822389 244.695334 
L 130.822389 244.168648 
L 132.326708 244.168648 
L 132.326708 243.641962 
L 136.073445 243.641962 
L 136.073445 243.115275 
L 136.68274 243.115275 
L 136.68274 242.588589 
L 136.831795 242.588589 
L 136.831795 242.061903 
L 137.594091 242.061903 
L 137.594091 241.535217 
L 137.875944 241.535217 
L 137.980475 240.481845 
L 138.561269 240.481845 
L 138.561269 239.955159 
L 139.285267 239.955159 
L 139.285267 239.428473 
L 139.762215 239.428473 
L 139.762215 238.901787 
L 140.134598 238.901787 
L 140.134598 238.375101 
L 140.408758 238.375101 
L 140.408758 237.848415 
L 142.270332 237.848415 
L 142.324576 236.268356 
L 142.432559 236.268356 
L 142.432559 235.214984 
L 143.375453 235.214984 
L 143.375453 234.688298 
L 143.728793 234.688298 
L 143.778691 233.634926 
L 144.172816 233.634926 
L 144.172816 233.10824 
L 144.582038 233.10824 
L 144.582038 232.581554 
L 144.865226 232.581554 
L 144.958609 231.528182 
L 145.576196 231.528182 
L 145.621085 230.47481 
L 146.08557 230.47481 
L 146.08557 229.948123 
L 146.77039 229.948123 
L 146.854132 228.894751 
L 147.550159 228.894751 
L 147.550159 228.368065 
L 147.70997 228.368065 
L 147.70997 227.841379 
L 147.86833 227.841379 
L 147.86833 227.314693 
L 148.449693 227.314693 
L 148.506778 226.261321 
L 148.639252 226.261321 
L 148.639252 225.734635 
L 148.752007 225.734635 
L 148.845415 224.681263 
L 148.956849 224.681263 
L 149.067574 223.627891 
L 149.085961 223.627891 
L 149.122675 222.574518 
L 149.682079 222.574518 
L 149.788308 220.99446 
L 149.946449 220.99446 
L 149.946449 220.467774 
L 150.206871 220.467774 
L 150.206871 219.941088 
L 150.49739 219.941088 
L 150.51433 218.887716 
L 150.649257 218.887716 
L 150.66605 217.307658 
L 150.849711 217.307658 
L 150.849711 216.780971 
L 151.437608 216.780971 
L 151.517715 215.200913 
L 151.676833 215.200913 
L 151.787359 213.094169 
L 151.803091 213.094169 
L 151.803091 212.567483 
L 152.481628 212.567483 
L 152.481628 212.040797 
L 152.692105 212.040797 
L 152.781537 210.987425 
L 152.840905 210.987425 
L 152.870513 209.934052 
L 153.017805 209.934052 
L 153.047115 208.353994 
L 153.192929 208.353994 
L 153.207444 207.300622 
L 153.552218 207.300622 
L 153.552218 206.773936 
L 153.820412 206.773936 
L 153.890309 205.720564 
L 153.946025 205.720564 
L 154.029268 204.140506 
L 154.139643 204.140506 
L 154.153391 202.560447 
L 154.303908 202.560447 
L 154.303908 202.033761 
L 154.507086 202.033761 
L 154.601099 200.453703 
L 154.654594 200.453703 
L 154.654594 199.400331 
L 154.840544 199.400331 
L 154.906477 197.293586 
L 154.959044 197.293586 
L 155.063706 194.660156 
L 155.102793 194.660156 
L 155.167744 193.606784 
L 155.28405 193.606784 
L 155.386785 192.026726 
L 155.399584 192.026726 
L 155.399584 190.973354 
L 155.527065 190.973354 
L 155.628383 188.339923 
L 155.666226 188.339923 
L 155.666226 187.813237 
L 155.791779 187.813237 
L 155.879132 186.233179 
L 155.928852 186.233179 
L 156.027868 184.653121 
L 156.077167 184.653121 
L 156.114049 183.599748 
L 156.212023 183.599748 
L 156.272978 182.01969 
L 156.345845 182.01969 
L 156.370066 180.439632 
L 156.574599 180.439632 
L 156.670026 177.279515 
L 156.741256 177.279515 
L 156.800392 173.066027 
L 156.92979 173.066027 
L 156.941506 172.012655 
L 157.174189 172.012655 
L 157.174189 171.485969 
L 157.300853 171.485969 
L 157.403807 169.90591 
L 157.437991 169.90591 
L 157.494815 168.325852 
L 157.630442 168.325852 
L 157.731474 165.692422 
L 157.742664 165.692422 
L 157.809652 162.532305 
L 157.854169 162.532305 
L 157.964965 159.372189 
L 157.976006 159.372189 
L 158.075062 157.79213 
L 158.162642 157.79213 
L 158.206267 155.685386 
L 158.465753 155.685386 
L 158.465753 155.1587 
L 158.625992 155.1587 
L 158.70027 152.52527 
L 158.742573 152.52527 
L 158.816356 151.471897 
L 158.868869 151.471897 
L 158.868869 150.945211 
L 158.983842 150.945211 
L 159.015067 149.365153 
L 159.190962 149.365153 
L 159.252621 146.731723 
L 159.303838 146.731723 
L 159.385473 143.04492 
L 159.486982 143.04492 
L 159.547605 140.41149 
L 159.608019 140.41149 
L 159.708245 135.671315 
L 159.738201 135.671315 
L 159.817832 134.091257 
L 159.897102 134.091257 
L 159.956318 131.984513 
L 160.034962 131.984513 
L 160.103486 128.824396 
L 160.604262 128.824396 
L 160.661129 126.717652 
L 160.717812 126.717652 
L 160.802491 123.030849 
L 160.858717 123.030849 
L 160.942717 119.870733 
L 160.998493 119.870733 
L 161.081824 117.237302 
L 161.183135 117.237302 
L 161.247301 115.130558 
L 161.338558 115.130558 
L 161.420284 111.443755 
L 161.465522 111.443755 
L 161.546656 104.596836 
L 161.600536 104.596836 
L 161.698887 98.803289 
L 161.7523 98.803289 
L 161.832113 94.589801 
L 161.973109 94.589801 
L 162.078112 91.429684 
L 162.095552 91.429684 
L 162.173813 88.796254 
L 162.260361 88.796254 
L 162.329291 85.636137 
L 162.372234 85.636137 
L 162.440724 84.056079 
L 162.653039 84.056079 
L 162.737246 82.476021 
L 162.779197 82.476021 
L 162.846111 79.842591 
L 162.912768 79.842591 
L 163.004009 78.262532 
L 163.037069 78.262532 
L 163.144084 76.682474 
L 163.168687 76.682474 
L 163.258601 72.995672 
L 163.315579 72.995672 
L 163.380469 67.728811 
L 163.517565 67.728811 
L 163.613694 65.622066 
L 163.629664 65.622066 
L 163.709295 64.042008 
L 163.7569 64.042008 
L 163.820172 62.988636 
L 163.883215 62.988636 
L 163.906798 61.408578 
L 164.00081 61.408578 
L 164.086545 58.775147 
L 164.195057 58.775147 
L 164.195057 58.248461 
L 164.318249 58.248461 
L 164.387164 56.141717 
L 164.440577 56.141717 
L 164.440577 55.615031 
L 164.675172 55.615031 
L 164.75018 54.034973 
L 164.921483 54.034973 
L 164.965896 52.9816 
L 165.083779 52.9816 
L 165.098459 51.928228 
L 165.360599 51.928228 
L 165.411116 49.294798 
L 165.504548 49.294798 
L 165.504548 48.241426 
L 165.675732 48.241426 
L 165.682828 47.188054 
L 165.817113 47.188054 
L 165.866327 45.607995 
L 165.957358 45.607995 
L 165.957358 44.554623 
L 166.234507 44.554623 
L 166.330478 42.974565 
L 166.391896 42.974565 
L 166.493781 40.341135 
L 166.561376 40.341135 
L 166.668984 39.287762 
L 166.729224 39.287762 
L 166.809221 38.23439 
L 166.868978 38.23439 
L 166.868978 37.707704 
L 167.255733 37.707704 
L 167.255733 37.181018 
L 167.417059 37.181018 
L 167.46837 36.127646 
L 167.608702 36.127646 
L 167.710056 35.074274 
L 168.041647 35.074274 
L 168.041647 34.547588 
L 168.263336 34.547588 
L 168.263336 33.494215 
L 168.427772 33.494215 
L 168.427772 32.967529 
L 169.181091 32.967529 
L 169.256398 31.914157 
L 169.348639 31.914157 
L 169.348639 31.387471 
L 170.124596 31.387471 
L 170.124596 30.334099 
L 338.688 30.334099 
L 338.688 30.334099 
" style="fill:none;stroke:#0000ff;stroke-linecap:square;stroke-width:1.5;"/>
   </g>
   <g id="line2d_39">
    <defs>
     <path d="M 0 -6 
L -1.347084 -1.854102 
L -5.706339 -1.854102 
L -2.179628 0.708204 
L -3.526712 4.854102 
L -0 2.291796 
L 3.526712 4.854102 
L 2.179628 0.708204 
L 5.706339 -1.854102 
L 1.347084 -1.854102 
z
" id="m7252dd8d81" style="stroke:#0000ff;stroke-linejoin:bevel;stroke-width:1.5;"/>
    </defs>
    <g>
     <use style="fill-opacity:0;stroke:#0000ff;stroke-linejoin:bevel;stroke-width:1.5;" x="128.944197" xlink:href="#m7252dd8d81" y="245.748706"/>
     <use style="fill-opacity:0;stroke:#0000ff;stroke-linejoin:bevel;stroke-width:1.5;" x="160.717812" xlink:href="#m7252dd8d81" y="126.190966"/>
     <use style="fill-opacity:0;stroke:#0000ff;stroke-linejoin:bevel;stroke-width:1.5;" x="170.124596" xlink:href="#m7252dd8d81" y="31.387471"/>
     <use style="fill-opacity:0;stroke:#0000ff;stroke-linejoin:bevel;stroke-width:1.5;" x="170.124596" xlink:href="#m7252dd8d81" y="30.334099"/>
     <use style="fill-opacity:0;stroke:#0000ff;stroke-linejoin:bevel;stroke-width:1.5;" x="170.124596" xlink:href="#m7252dd8d81" y="30.334099"/>
     <use style="fill-opacity:0;stroke:#0000ff;stroke-linejoin:bevel;stroke-width:1.5;" x="338.688" xlink:href="#m7252dd8d81" y="30.334099"/>
    </g>
   </g>
   <g id="line2d_40">
    <path style="fill:none;stroke:#0000ff;stroke-linecap:square;stroke-width:1.5;"/>
    <g/>
   </g>
   <g id="line2d_41">
    <defs>
     <path d="M 0 1.5 
C 0.397805 1.5 0.77937 1.341951 1.06066 1.06066 
C 1.341951 0.77937 1.5 0.397805 1.5 0 
C 1.5 -0.397805 1.341951 -0.77937 1.06066 -1.06066 
C 0.77937 -1.341951 0.397805 -1.5 0 -1.5 
C -0.397805 -1.5 -0.77937 -1.341951 -1.06066 -1.06066 
C -1.341951 -0.77937 -1.5 -0.397805 -1.5 0 
C -1.5 0.397805 -1.341951 0.77937 -1.06066 1.06066 
C -0.77937 1.341951 -0.397805 1.5 0 1.5 
z
" id="m2b4e4c5315" style="stroke:#000000;"/>
    </defs>
    <g>
     <use style="stroke:#000000;" x="180.610971" xlink:href="#m2b4e4c5315" y="30.334099"/>
     <use style="stroke:#000000;" x="180.610971" xlink:href="#m2b4e4c5315" y="30.334099"/>
    </g>
   </g>
   <g id="line2d_42">
    <path d="M 17.444571 298.944 
L 17.444571 288.410278 
L 89.135256 288.410278 
L 89.135256 287.883592 
L 95.723163 287.883592 
L 95.723163 287.356906 
L 99.575392 287.356906 
L 99.575392 286.83022 
L 101.079711 286.83022 
L 101.079711 286.303534 
L 101.506816 286.303534 
L 101.506816 285.776848 
L 104.23523 285.776848 
L 104.23523 284.723476 
L 104.942325 284.723476 
L 104.942325 283.670104 
L 105.057436 283.670104 
L 105.057436 283.143418 
L 105.951954 283.143418 
L 106.06061 281.563359 
L 106.275913 281.563359 
L 106.275913 281.036673 
L 106.698704 281.036673 
L 106.698704 280.509987 
L 107.614095 280.509987 
L 107.614095 279.983301 
L 110.77713 279.983301 
L 110.77713 279.456615 
L 111.584648 279.456615 
L 111.584648 278.929929 
L 112.128456 278.929929 
L 112.204777 277.876557 
L 113.453595 277.876557 
L 113.453595 277.349871 
L 113.804498 277.349871 
L 113.804498 276.823185 
L 114.216469 276.823185 
L 114.216469 276.296499 
L 114.485807 276.296499 
L 114.485807 275.769812 
L 115.205729 275.769812 
L 115.205729 275.243126 
L 115.33349 275.243126 
L 115.33349 274.71644 
L 115.773423 274.71644 
L 115.773423 274.189754 
L 115.897107 274.189754 
L 115.958621 273.136382 
L 116.38325 273.136382 
L 116.38325 272.609696 
L 118.202674 272.609696 
L 118.202674 272.08301 
L 118.523652 272.08301 
L 118.523652 271.556324 
L 118.734401 271.556324 
L 118.734401 271.029638 
L 118.942633 271.029638 
L 118.942633 270.502952 
L 119.199476 270.502952 
L 119.199476 269.976266 
L 119.65247 269.976266 
L 119.65247 269.449579 
L 121.219499 269.449579 
L 121.219499 268.922893 
L 121.974949 268.922893 
L 121.974949 268.396207 
L 122.947573 268.396207 
L 122.947573 267.869521 
L 123.152022 267.869521 
L 123.233135 266.816149 
L 123.633136 266.816149 
L 123.633136 266.289463 
L 129.06046 266.289463 
L 129.06046 265.762777 
L 129.79784 265.762777 
L 129.79784 265.236091 
L 131.133813 265.236091 
L 131.185181 264.182719 
L 131.287464 264.182719 
L 131.287464 263.656033 
L 134.257551 263.656033 
L 134.257551 263.129347 
L 134.682402 263.129347 
L 134.682402 262.60266 
L 135.300881 262.60266 
L 135.300881 262.075974 
L 136.015217 262.075974 
L 136.015217 261.549288 
L 137.415591 261.549288 
L 137.415591 261.022602 
L 141.104941 261.022602 
L 141.104941 260.495916 
L 142.037896 260.495916 
L 142.037896 259.96923 
L 142.699628 259.96923 
L 142.699628 259.442544 
L 144.099593 259.442544 
L 144.099593 258.915858 
L 145.189903 258.915858 
L 145.189903 258.389172 
L 145.350002 258.389172 
L 145.350002 257.862486 
L 145.553708 257.862486 
L 145.553708 257.3358 
L 145.688202 257.3358 
L 145.688202 256.809114 
L 149.214124 256.809114 
L 149.214124 256.282427 
L 150.849711 256.282427 
L 150.849711 255.755741 
L 151.998557 255.755741 
L 151.998557 255.229055 
L 152.122515 255.229055 
L 152.122515 254.702369 
L 152.276234 254.702369 
L 152.291531 253.648997 
L 152.413432 253.648997 
L 152.413432 253.122311 
L 152.721966 253.122311 
L 152.721966 252.595625 
L 152.966394 252.595625 
L 152.966394 252.068939 
L 153.330332 252.068939 
L 153.330332 251.542253 
L 153.630278 251.542253 
L 153.630278 251.015567 
L 153.883332 251.015567 
L 153.883332 250.488881 
L 154.112115 250.488881 
L 154.201424 249.435508 
L 154.378682 249.435508 
L 154.378682 248.908822 
L 154.580996 248.908822 
L 154.580996 248.382136 
L 154.833936 248.382136 
L 154.833936 247.85545 
L 155.488919 247.85545 
L 155.590458 246.802078 
L 155.747938 246.802078 
L 155.760475 245.748706 
L 155.86668 245.748706 
L 155.86668 245.22202 
L 156.058696 245.22202 
L 156.058696 244.695334 
L 156.520691 244.695334 
L 156.598505 243.641962 
L 156.687861 243.641962 
L 156.687861 243.115275 
L 156.900466 243.115275 
L 156.900466 242.588589 
L 157.093102 242.588589 
L 157.133693 241.008531 
L 157.226117 241.008531 
L 157.226117 240.481845 
L 157.477787 240.481845 
L 157.477787 239.955159 
L 157.798506 239.955159 
L 157.815223 238.901787 
L 158.24435 238.901787 
L 158.24435 238.375101 
L 158.363501 238.375101 
L 158.363501 237.321729 
L 158.487203 237.321729 
L 158.487203 236.795043 
L 158.663171 236.795043 
L 158.663171 236.268356 
L 158.790041 236.268356 
L 158.790041 235.74167 
L 158.92645 235.74167 
L 159.004665 234.688298 
L 159.129083 234.688298 
L 159.129083 234.161612 
L 159.257749 234.161612 
L 159.319173 233.10824 
L 159.597964 233.10824 
L 159.597964 232.581554 
L 159.931669 232.581554 
L 159.931669 232.054868 
L 160.064363 232.054868 
L 160.064363 231.528182 
L 160.504296 231.528182 
L 160.542446 230.47481 
L 161.030947 230.47481 
L 161.104901 229.421437 
L 161.663187 229.421437 
L 161.685508 228.368065 
L 161.959939 228.368065 
L 162.065021 227.314693 
L 162.091193 227.314693 
L 162.091193 226.788007 
L 162.234442 226.788007 
L 162.234442 226.261321 
L 162.50469 226.261321 
L 162.50469 225.734635 
L 162.758234 225.734635 
L 162.766623 224.681263 
L 163.0577 224.681263 
L 163.0577 224.154577 
L 163.549667 224.154577 
L 163.601707 222.574518 
L 163.701348 222.574518 
L 163.701348 222.047832 
L 163.871412 222.047832 
L 163.957784 219.414402 
L 164.233648 219.414402 
L 164.337419 218.36103 
L 164.65637 218.36103 
L 164.65637 217.834344 
L 164.780093 217.834344 
L 164.791297 216.780971 
L 164.906654 216.780971 
L 164.976981 215.200913 
L 165.054383 215.200913 
L 165.142423 213.620855 
L 165.189927 213.620855 
L 165.270024 212.567483 
L 165.309935 212.567483 
L 165.309935 212.040797 
L 165.700557 212.040797 
L 165.778348 210.460738 
L 165.981785 210.460738 
L 166.058334 209.407366 
L 166.096483 209.407366 
L 166.158729 207.827308 
L 166.299688 207.827308 
L 166.391896 206.24725 
L 166.446309 206.24725 
L 166.463278 205.193878 
L 166.621987 205.193878 
L 166.722541 203.613819 
L 166.742582 203.613819 
L 166.832484 202.033761 
L 166.898781 202.033761 
L 166.945039 200.980389 
L 167.047033 200.980389 
L 167.096171 199.400331 
L 167.291353 199.400331 
L 167.320442 198.346959 
L 167.407422 198.346959 
L 167.471572 196.240214 
L 167.583271 196.240214 
L 167.624577 194.13347 
L 167.804544 194.13347 
L 167.911015 192.026726 
L 167.951554 192.026726 
L 167.985782 190.973354 
L 168.081883 190.973354 
L 168.149765 189.393295 
L 168.266395 189.393295 
L 168.266395 188.866609 
L 168.409578 188.866609 
L 168.509413 186.759865 
L 168.746115 186.759865 
L 168.826282 185.706493 
L 168.879523 185.706493 
L 168.95614 183.599748 
L 169.006055 183.599748 
L 169.070439 182.01969 
L 169.16076 182.01969 
L 169.16076 181.493004 
L 169.276617 181.493004 
L 169.363007 179.38626 
L 169.468969 179.38626 
L 169.514592 177.806202 
L 169.681802 177.806202 
L 169.78585 175.172771 
L 169.836245 175.172771 
L 169.939378 171.485969 
L 169.947714 171.485969 
L 170.039142 169.90591 
L 170.176764 169.90591 
L 170.286084 167.27248 
L 170.343204 167.27248 
L 170.429886 165.692422 
L 170.459584 165.692422 
L 170.559106 161.478933 
L 170.601968 161.478933 
L 170.604643 160.425561 
L 170.796198 160.425561 
L 170.796198 159.372189 
L 170.94112 159.372189 
L 170.996138 157.265444 
L 171.074434 157.265444 
L 171.170519 154.105328 
L 171.193811 154.105328 
L 171.273802 150.945211 
L 171.335479 150.945211 
L 171.435242 147.785095 
L 171.453088 147.785095 
L 171.496352 145.678351 
L 171.574971 145.678351 
L 171.680924 141.991548 
L 171.711078 141.991548 
L 171.798732 137.778059 
L 171.873514 137.778059 
L 171.972728 135.671315 
L 172.029522 135.671315 
L 172.118046 131.984513 
L 172.142557 131.984513 
L 172.247561 128.29771 
L 172.32772 128.29771 
L 172.4268 125.66428 
L 172.460504 125.66428 
L 172.566008 121.977477 
L 172.592284 121.977477 
L 172.668501 118.290674 
L 172.758578 118.290674 
L 172.848191 115.130558 
L 172.935007 115.130558 
L 173.037687 110.917069 
L 173.077198 110.917069 
L 173.181355 107.230267 
L 173.190583 107.230267 
L 173.25964 104.596836 
L 173.305527 104.596836 
L 173.412888 101.43672 
L 173.442468 101.43672 
L 173.539951 97.749917 
L 173.576085 97.749917 
L 173.650377 96.169859 
L 173.690766 96.169859 
L 173.757875 92.483056 
L 173.802471 92.483056 
L 173.906825 87.742882 
L 173.915677 87.742882 
L 174.003955 84.582765 
L 174.089598 84.582765 
L 174.198785 79.842591 
L 174.218366 79.842591 
L 174.307293 75.102416 
L 174.382848 75.102416 
L 174.479513 71.942299 
L 174.500921 71.942299 
L 174.522303 70.362241 
L 174.635193 70.362241 
L 174.728361 68.255497 
L 174.774759 68.255497 
L 174.854611 64.568694 
L 174.923661 64.568694 
L 175.027764 60.881892 
L 175.069232 60.881892 
L 175.172472 58.775147 
L 175.227969 58.775147 
L 175.336395 57.721775 
L 175.391374 57.721775 
L 175.458335 55.615031 
L 175.573393 55.615031 
L 175.679699 52.9816 
L 175.701682 52.9816 
L 175.797284 51.401542 
L 175.860728 51.401542 
L 175.957432 49.821484 
L 176.114174 49.821484 
L 176.1473 48.768112 
L 176.327418 48.768112 
L 176.43307 47.188054 
L 176.610275 47.188054 
L 176.708578 46.134681 
L 176.738714 46.134681 
L 176.80258 44.027937 
L 177.464841 44.027937 
L 177.464841 43.501251 
L 177.644425 43.501251 
L 177.644425 42.974565 
L 177.838089 42.974565 
L 177.838089 42.447879 
L 178.356832 42.447879 
L 178.356832 41.921193 
L 178.522409 41.921193 
L 178.522409 41.394507 
L 178.74188 41.394507 
L 178.810529 40.341135 
L 178.912168 40.341135 
L 179.018172 39.287762 
L 179.084099 39.287762 
L 179.084099 38.761076 
L 179.215209 38.761076 
L 179.215209 38.23439 
L 179.39874 38.23439 
L 179.424571 37.181018 
L 179.639418 37.181018 
L 179.68239 36.127646 
L 179.777505 36.127646 
L 179.809095 35.074274 
L 180.027079 35.074274 
L 180.027079 34.547588 
L 180.214641 34.547588 
L 180.214641 34.020902 
L 180.342143 34.020902 
L 180.342143 33.494215 
L 180.464161 33.494215 
L 180.55058 31.387471 
L 180.577782 31.387471 
L 180.610971 30.334099 
L 338.688 30.334099 
L 338.688 30.334099 
" style="fill:none;stroke:#000000;stroke-linecap:square;stroke-width:1.5;"/>
   </g>
   <g id="line2d_43">
    <defs>
     <path d="M 0 6 
C 1.591219 6 3.117479 5.367802 4.242641 4.242641 
C 5.367802 3.117479 6 1.591219 6 0 
C 6 -1.591219 5.367802 -3.117479 4.242641 -4.242641 
C 3.117479 -5.367802 1.591219 -6 0 -6 
C -1.591219 -6 -3.117479 -5.367802 -4.242641 -4.242641 
C -5.367802 -3.117479 -6 -1.591219 -6 0 
C -6 1.591219 -5.367802 3.117479 -4.242641 4.242641 
C -3.117479 5.367802 -1.591219 6 0 6 
z
" id="m5fad8c0a5b" style="stroke:#000000;stroke-width:1.5;"/>
    </defs>
    <g>
     <use style="fill-opacity:0;stroke:#000000;stroke-width:1.5;" x="145.688202" xlink:href="#m5fad8c0a5b" y="257.3358"/>
     <use style="fill-opacity:0;stroke:#000000;stroke-width:1.5;" x="171.723627" xlink:href="#m5fad8c0a5b" y="140.938176"/>
     <use style="fill-opacity:0;stroke:#000000;stroke-width:1.5;" x="180.610971" xlink:href="#m5fad8c0a5b" y="30.860785"/>
     <use style="fill-opacity:0;stroke:#000000;stroke-width:1.5;" x="180.610971" xlink:href="#m5fad8c0a5b" y="30.334099"/>
     <use style="fill-opacity:0;stroke:#000000;stroke-width:1.5;" x="180.610971" xlink:href="#m5fad8c0a5b" y="30.334099"/>
     <use style="fill-opacity:0;stroke:#000000;stroke-width:1.5;" x="338.688" xlink:href="#m5fad8c0a5b" y="30.334099"/>
    </g>
   </g>
   <g id="line2d_44">
    <path style="fill:none;stroke:#000000;stroke-linecap:square;stroke-width:1.5;"/>
    <g/>
   </g>
   <g id="line2d_45">
    <path d="M 338.688 30.334099 
L 369.60768 293.571802 
" style="fill:none;stroke:#000000;stroke-linecap:square;stroke-width:1.5;"/>
    <g>
     <use style="fill-opacity:0;stroke:#000000;stroke-width:1.5;" x="338.688" xlink:href="#m5fad8c0a5b" y="30.334099"/>
     <use style="fill-opacity:0;stroke:#000000;stroke-width:1.5;" x="369.60768" xlink:href="#m5fad8c0a5b" y="293.571802"/>
    </g>
   </g>
   <g id="line2d_46">
    <path d="M 338.688 30.334099 
L 369.60768 207.616634 
" style="fill:none;stroke:#008000;stroke-linecap:square;stroke-width:1.5;"/>
    <g>
     <use style="fill-opacity:0;stroke:#008000;stroke-linejoin:miter;stroke-width:1.5;" x="338.688" xlink:href="#m7f41e06910" y="30.334099"/>
     <use style="fill-opacity:0;stroke:#008000;stroke-linejoin:miter;stroke-width:1.5;" x="369.60768" xlink:href="#m7f41e06910" y="207.616634"/>
    </g>
   </g>
   <g id="line2d_47">
    <path d="M 338.688 30.334099 
L 369.60768 121.661465 
" style="fill:none;stroke:#0000ff;stroke-linecap:square;stroke-width:1.5;"/>
    <g>
     <use style="fill-opacity:0;stroke:#0000ff;stroke-linejoin:bevel;stroke-width:1.5;" x="338.688" xlink:href="#m7252dd8d81" y="30.334099"/>
     <use style="fill-opacity:0;stroke:#0000ff;stroke-linejoin:bevel;stroke-width:1.5;" x="369.60768" xlink:href="#m7252dd8d81" y="121.661465"/>
    </g>
   </g>
   <g id="line2d_48">
    <path d="M 338.688 30.334099 
L 369.60768 35.706297 
" style="fill:none;stroke:#00bfbf;stroke-linecap:square;stroke-width:1.5;"/>
    <g>
     <use style="fill-opacity:0;stroke:#00bfbf;stroke-width:1.5;" x="338.688" xlink:href="#m39d5ed18fe" y="30.334099"/>
     <use style="fill-opacity:0;stroke:#00bfbf;stroke-width:1.5;" x="369.60768" xlink:href="#m39d5ed18fe" y="35.706297"/>
    </g>
   </g>
   <g id="line2d_49">
    <path d="M 338.688 298.944 
L 338.688 30.334099 
" style="fill:none;stroke:#000000;stroke-linecap:square;stroke-width:1.5;"/>
   </g>
   <g id="patch_3">
    <path d="M 57.6 298.944 
L 57.6 27.648 
" style="fill:none;stroke:#000000;stroke-linecap:square;stroke-linejoin:miter;stroke-width:0.8;"/>
   </g>
   <g id="patch_4">
    <path d="M 338.688 298.944 
L 338.688 27.648 
" style="fill:none;stroke:#000000;stroke-linecap:square;stroke-linejoin:miter;stroke-width:0.8;"/>
   </g>
   <g id="patch_5">
    <path d="M 57.6 298.944 
L 338.688 298.944 
" style="fill:none;stroke:#000000;stroke-linecap:square;stroke-linejoin:miter;stroke-width:0.8;"/>
   </g>
   <g id="patch_6">
    <path d="M 57.6 27.648 
L 338.688 27.648 
" style="fill:none;stroke:#000000;stroke-linecap:square;stroke-linejoin:miter;stroke-width:0.8;"/>
   </g>
   <g id="text_13">
    <!-- 10-D -->
    <g transform="translate(375.22944 298.262739)scale(0.17 -0.17)">
     <defs>
      <path d="M 19.671875 64.796875 
L 19.671875 8.109375 
L 31.59375 8.109375 
Q 46.6875 8.109375 53.6875 14.9375 
Q 60.6875 21.78125 60.6875 36.53125 
Q 60.6875 51.171875 53.6875 57.984375 
Q 46.6875 64.796875 31.59375 64.796875 
z
M 9.8125 72.90625 
L 30.078125 72.90625 
Q 51.265625 72.90625 61.171875 64.09375 
Q 71.09375 55.28125 71.09375 36.53125 
Q 71.09375 17.671875 61.125 8.828125 
Q 51.171875 0 30.078125 0 
L 9.8125 0 
z
" id="DejaVuSans-68"/>
     </defs>
     <use xlink:href="#DejaVuSans-49"/>
     <use x="63.623047" xlink:href="#DejaVuSans-48"/>
     <use x="127.246094" xlink:href="#DejaVuSans-45"/>
     <use x="163.330078" xlink:href="#DejaVuSans-68"/>
    </g>
   </g>
   <g id="text_14">
    <!-- 3-D -->
    <g transform="translate(375.22944 212.307571)scale(0.17 -0.17)">
     <defs>
      <path d="M 40.578125 39.3125 
Q 47.65625 37.796875 51.625 33 
Q 55.609375 28.21875 55.609375 21.1875 
Q 55.609375 10.40625 48.1875 4.484375 
Q 40.765625 -1.421875 27.09375 -1.421875 
Q 22.515625 -1.421875 17.65625 -0.515625 
Q 12.796875 0.390625 7.625 2.203125 
L 7.625 11.71875 
Q 11.71875 9.328125 16.59375 8.109375 
Q 21.484375 6.890625 26.8125 6.890625 
Q 36.078125 6.890625 40.9375 10.546875 
Q 45.796875 14.203125 45.796875 21.1875 
Q 45.796875 27.640625 41.28125 31.265625 
Q 36.765625 34.90625 28.71875 34.90625 
L 20.21875 34.90625 
L 20.21875 43.015625 
L 29.109375 43.015625 
Q 36.375 43.015625 40.234375 45.921875 
Q 44.09375 48.828125 44.09375 54.296875 
Q 44.09375 59.90625 40.109375 62.90625 
Q 36.140625 65.921875 28.71875 65.921875 
Q 24.65625 65.921875 20.015625 65.03125 
Q 15.375 64.15625 9.8125 62.3125 
L 9.8125 71.09375 
Q 15.4375 72.65625 20.34375 73.4375 
Q 25.25 74.21875 29.59375 74.21875 
Q 40.828125 74.21875 47.359375 69.109375 
Q 53.90625 64.015625 53.90625 55.328125 
Q 53.90625 49.265625 50.4375 45.09375 
Q 46.96875 40.921875 40.578125 39.3125 
z
" id="DejaVuSans-51"/>
     </defs>
     <use xlink:href="#DejaVuSans-51"/>
     <use x="63.623047" xlink:href="#DejaVuSans-45"/>
     <use x="99.707031" xlink:href="#DejaVuSans-68"/>
    </g>
   </g>
   <g id="text_15">
    <!-- 5-D -->
    <g transform="translate(375.22944 126.352403)scale(0.17 -0.17)">
     <defs>
      <path d="M 10.796875 72.90625 
L 49.515625 72.90625 
L 49.515625 64.59375 
L 19.828125 64.59375 
L 19.828125 46.734375 
Q 21.96875 47.46875 24.109375 47.828125 
Q 26.265625 48.1875 28.421875 48.1875 
Q 40.625 48.1875 47.75 41.5 
Q 54.890625 34.8125 54.890625 23.390625 
Q 54.890625 11.625 47.5625 5.09375 
Q 40.234375 -1.421875 26.90625 -1.421875 
Q 22.3125 -1.421875 17.546875 -0.640625 
Q 12.796875 0.140625 7.71875 1.703125 
L 7.71875 11.625 
Q 12.109375 9.234375 16.796875 8.0625 
Q 21.484375 6.890625 26.703125 6.890625 
Q 35.15625 6.890625 40.078125 11.328125 
Q 45.015625 15.765625 45.015625 23.390625 
Q 45.015625 31 40.078125 35.4375 
Q 35.15625 39.890625 26.703125 39.890625 
Q 22.75 39.890625 18.8125 39.015625 
Q 14.890625 38.140625 10.796875 36.28125 
z
" id="DejaVuSans-53"/>
     </defs>
     <use xlink:href="#DejaVuSans-53"/>
     <use x="63.623047" xlink:href="#DejaVuSans-45"/>
     <use x="99.707031" xlink:href="#DejaVuSans-68"/>
    </g>
   </g>
   <g id="text_16">
    <!-- 2-D -->
    <g transform="translate(375.22944 40.397235)scale(0.17 -0.17)">
     <use xlink:href="#DejaVuSans-50"/>
     <use x="63.623047" xlink:href="#DejaVuSans-45"/>
     <use x="99.707031" xlink:href="#DejaVuSans-68"/>
    </g>
   </g>
   <g id="text_17">
    <!-- bbob f9 -->
    <g transform="translate(60.41088 38.111366)scale(0.102 -0.102)">
     <defs>
      <path d="M 48.6875 27.296875 
Q 48.6875 37.203125 44.609375 42.84375 
Q 40.53125 48.484375 33.40625 48.484375 
Q 26.265625 48.484375 22.1875 42.84375 
Q 18.109375 37.203125 18.109375 27.296875 
Q 18.109375 17.390625 22.1875 11.75 
Q 26.265625 6.109375 33.40625 6.109375 
Q 40.53125 6.109375 44.609375 11.75 
Q 48.6875 17.390625 48.6875 27.296875 
z
M 18.109375 46.390625 
Q 20.953125 51.265625 25.265625 53.625 
Q 29.59375 56 35.59375 56 
Q 45.5625 56 51.78125 48.09375 
Q 58.015625 40.1875 58.015625 27.296875 
Q 58.015625 14.40625 51.78125 6.484375 
Q 45.5625 -1.421875 35.59375 -1.421875 
Q 29.59375 -1.421875 25.265625 0.953125 
Q 20.953125 3.328125 18.109375 8.203125 
L 18.109375 0 
L 9.078125 0 
L 9.078125 75.984375 
L 18.109375 75.984375 
z
" id="DejaVuSans-98"/>
      <path d="M 10.984375 1.515625 
L 10.984375 10.5 
Q 14.703125 8.734375 18.5 7.8125 
Q 22.3125 6.890625 25.984375 6.890625 
Q 35.75 6.890625 40.890625 13.453125 
Q 46.046875 20.015625 46.78125 33.40625 
Q 43.953125 29.203125 39.59375 26.953125 
Q 35.25 24.703125 29.984375 24.703125 
Q 19.046875 24.703125 12.671875 31.3125 
Q 6.296875 37.9375 6.296875 49.421875 
Q 6.296875 60.640625 12.9375 67.421875 
Q 19.578125 74.21875 30.609375 74.21875 
Q 43.265625 74.21875 49.921875 64.515625 
Q 56.59375 54.828125 56.59375 36.375 
Q 56.59375 19.140625 48.40625 8.859375 
Q 40.234375 -1.421875 26.421875 -1.421875 
Q 22.703125 -1.421875 18.890625 -0.6875 
Q 15.09375 0.046875 10.984375 1.515625 
z
M 30.609375 32.421875 
Q 37.25 32.421875 41.125 36.953125 
Q 45.015625 41.5 45.015625 49.421875 
Q 45.015625 57.28125 41.125 61.84375 
Q 37.25 66.40625 30.609375 66.40625 
Q 23.96875 66.40625 20.09375 61.84375 
Q 16.21875 57.28125 16.21875 49.421875 
Q 16.21875 41.5 20.09375 36.953125 
Q 23.96875 32.421875 30.609375 32.421875 
z
" id="DejaVuSans-57"/>
     </defs>
     <use xlink:href="#DejaVuSans-98"/>
     <use x="63.476562" xlink:href="#DejaVuSans-98"/>
     <use x="126.953125" xlink:href="#DejaVuSans-111"/>
     <use x="188.134766" xlink:href="#DejaVuSans-98"/>
     <use x="251.611328" xlink:href="#DejaVuSans-32"/>
     <use x="283.398438" xlink:href="#DejaVuSans-102"/>
     <use x="318.603516" xlink:href="#DejaVuSans-57"/>
    </g>
    <!-- 51 targets: 100..1e-08 -->
    <g transform="translate(60.41088 49.533135)scale(0.102 -0.102)">
     <defs>
      <path d="M 11.71875 12.40625 
L 22.015625 12.40625 
L 22.015625 0 
L 11.71875 0 
z
M 11.71875 51.703125 
L 22.015625 51.703125 
L 22.015625 39.3125 
L 11.71875 39.3125 
z
" id="DejaVuSans-58"/>
     </defs>
     <use xlink:href="#DejaVuSans-53"/>
     <use x="63.623047" xlink:href="#DejaVuSans-49"/>
     <use x="127.246094" xlink:href="#DejaVuSans-32"/>
     <use x="159.033203" xlink:href="#DejaVuSans-116"/>
     <use x="198.242188" xlink:href="#DejaVuSans-97"/>
     <use x="259.521484" xlink:href="#DejaVuSans-114"/>
     <use x="298.884766" xlink:href="#DejaVuSans-103"/>
     <use x="362.361328" xlink:href="#DejaVuSans-101"/>
     <use x="423.884766" xlink:href="#DejaVuSans-116"/>
     <use x="463.09375" xlink:href="#DejaVuSans-115"/>
     <use x="515.193359" xlink:href="#DejaVuSans-58"/>
     <use x="548.884766" xlink:href="#DejaVuSans-32"/>
     <use x="580.671875" xlink:href="#DejaVuSans-49"/>
     <use x="644.294922" xlink:href="#DejaVuSans-48"/>
     <use x="707.917969" xlink:href="#DejaVuSans-48"/>
     <use x="771.541016" xlink:href="#DejaVuSans-46"/>
     <use x="803.328125" xlink:href="#DejaVuSans-46"/>
     <use x="835.115234" xlink:href="#DejaVuSans-49"/>
     <use x="898.738281" xlink:href="#DejaVuSans-101"/>
     <use x="960.261719" xlink:href="#DejaVuSans-45"/>
     <use x="996.345703" xlink:href="#DejaVuSans-48"/>
     <use x="1059.96875" xlink:href="#DejaVuSans-56"/>
    </g>
    <!-- 15 instances -->
    <g transform="translate(60.41088 60.954904)scale(0.102 -0.102)">
     <use xlink:href="#DejaVuSans-49"/>
     <use x="63.623047" xlink:href="#DejaVuSans-53"/>
     <use x="127.246094" xlink:href="#DejaVuSans-32"/>
     <use x="159.033203" xlink:href="#DejaVuSans-105"/>
     <use x="186.816406" xlink:href="#DejaVuSans-110"/>
     <use x="250.195312" xlink:href="#DejaVuSans-115"/>
     <use x="302.294922" xlink:href="#DejaVuSans-116"/>
     <use x="341.503906" xlink:href="#DejaVuSans-97"/>
     <use x="402.783203" xlink:href="#DejaVuSans-110"/>
     <use x="466.162109" xlink:href="#DejaVuSans-99"/>
     <use x="521.142578" xlink:href="#DejaVuSans-101"/>
     <use x="582.666016" xlink:href="#DejaVuSans-115"/>
    </g>
   </g>
   <g id="text_18">
    <!-- v2.4 -->
    <g style="fill:#808080;" transform="translate(187.233062 294.151352)scale(0.1 -0.1)">
     <use xlink:href="#DejaVuSans-118"/>
     <use x="59.179688" xlink:href="#DejaVuSans-50"/>
     <use x="122.802734" xlink:href="#DejaVuSans-46"/>
     <use x="154.589844" xlink:href="#DejaVuSans-52"/>
    </g>
   </g>
   <g id="text_19">
    <!-- 9 Rosenbrock rotated -->
    <g transform="translate(90.990875 21.648)scale(0.2 -0.2)">
     <defs>
      <path d="M 44.390625 34.1875 
Q 47.5625 33.109375 50.5625 29.59375 
Q 53.5625 26.078125 56.59375 19.921875 
L 66.609375 0 
L 56 0 
L 46.6875 18.703125 
Q 43.0625 26.03125 39.671875 28.421875 
Q 36.28125 30.8125 30.421875 30.8125 
L 19.671875 30.8125 
L 19.671875 0 
L 9.8125 0 
L 9.8125 72.90625 
L 32.078125 72.90625 
Q 44.578125 72.90625 50.734375 67.671875 
Q 56.890625 62.453125 56.890625 51.90625 
Q 56.890625 45.015625 53.6875 40.46875 
Q 50.484375 35.9375 44.390625 34.1875 
z
M 19.671875 64.796875 
L 19.671875 38.921875 
L 32.078125 38.921875 
Q 39.203125 38.921875 42.84375 42.21875 
Q 46.484375 45.515625 46.484375 51.90625 
Q 46.484375 58.296875 42.84375 61.546875 
Q 39.203125 64.796875 32.078125 64.796875 
z
" id="DejaVuSans-82"/>
      <path d="M 9.078125 75.984375 
L 18.109375 75.984375 
L 18.109375 31.109375 
L 44.921875 54.6875 
L 56.390625 54.6875 
L 27.390625 29.109375 
L 57.625 0 
L 45.90625 0 
L 18.109375 26.703125 
L 18.109375 0 
L 9.078125 0 
z
" id="DejaVuSans-107"/>
     </defs>
     <use xlink:href="#DejaVuSans-57"/>
     <use x="63.623047" xlink:href="#DejaVuSans-32"/>
     <use x="95.410156" xlink:href="#DejaVuSans-82"/>
     <use x="160.392578" xlink:href="#DejaVuSans-111"/>
     <use x="221.574219" xlink:href="#DejaVuSans-115"/>
     <use x="273.673828" xlink:href="#DejaVuSans-101"/>
     <use x="335.197266" xlink:href="#DejaVuSans-110"/>
     <use x="398.576172" xlink:href="#DejaVuSans-98"/>
     <use x="462.052734" xlink:href="#DejaVuSans-114"/>
     <use x="500.916016" xlink:href="#DejaVuSans-111"/>
     <use x="562.097656" xlink:href="#DejaVuSans-99"/>
     <use x="617.078125" xlink:href="#DejaVuSans-107"/>
     <use x="674.988281" xlink:href="#DejaVuSans-32"/>
     <use x="706.775391" xlink:href="#DejaVuSans-114"/>
     <use x="745.638672" xlink:href="#DejaVuSans-111"/>
     <use x="806.820312" xlink:href="#DejaVuSans-116"/>
     <use x="846.029297" xlink:href="#DejaVuSans-97"/>
     <use x="907.308594" xlink:href="#DejaVuSans-116"/>
     <use x="946.517578" xlink:href="#DejaVuSans-101"/>
     <use x="1008.041016" xlink:href="#DejaVuSans-100"/>
    </g>
   </g>
  </g>
 </g>
 <defs>
  <clipPath id="p56cc3b3c43">
   <rect height="271.296" width="281.088" x="57.6" y="27.648"/>
  </clipPath>
 </defs>
</svg>
