<?xml version="1.0" encoding="utf-8" standalone="no"?>
<!DOCTYPE svg PUBLIC "-//W3C//DTD SVG 1.1//EN"
  "http://www.w3.org/Graphics/SVG/1.1/DTD/svg11.dtd">
<!-- Created with matplotlib (https://matplotlib.org/) -->
<svg height="345.6pt" version="1.1" viewBox="0 0 460.8 345.6" width="460.8pt" xmlns="http://www.w3.org/2000/svg" xmlns:xlink="http://www.w3.org/1999/xlink">
 <metadata>
  <rdf:RDF xmlns:cc="http://creativecommons.org/ns#" xmlns:dc="http://purl.org/dc/elements/1.1/" xmlns:rdf="http://www.w3.org/1999/02/22-rdf-syntax-ns#">
   <cc:Work>
    <dc:type rdf:resource="http://purl.org/dc/dcmitype/StillImage"/>
    <dc:date>2021-06-17T01:39:21.935648</dc:date>
    <dc:format>image/svg+xml</dc:format>
    <dc:creator>
     <cc:Agent>
      <dc:title>Matplotlib v3.3.4, https://matplotlib.org/</dc:title>
     </cc:Agent>
    </dc:creator>
   </cc:Work>
  </rdf:RDF>
 </metadata>
 <defs>
  <style type="text/css">*{stroke-linecap:butt;stroke-linejoin:round;}</style>
 </defs>
 <g id="figure_1">
  <g id="patch_1">
   <path d="M 0 345.6 
L 460.8 345.6 
L 460.8 0 
L 0 0 
z
" style="fill:#ffffff;"/>
  </g>
  <g id="axes_1">
   <g id="patch_2">
    <path d="M 57.6 298.944 
L 338.688 298.944 
L 338.688 27.648 
L 57.6 27.648 
z
" style="fill:#ffffff;"/>
   </g>
   <g id="matplotlib.axis_1">
    <g id="xtick_1">
     <g id="line2d_1">
      <path clip-path="url(#p44b9fe26a2)" d="M 57.6 298.944 
L 57.6 27.648 
" style="fill:none;stroke:#b0b0b0;stroke-linecap:square;stroke-width:0.8;"/>
     </g>
     <g id="line2d_2">
      <defs>
       <path d="M 0 0 
L 0 3.5 
" id="mfec04f0ee1" style="stroke:#000000;stroke-width:0.8;"/>
      </defs>
      <g>
       <use style="stroke:#000000;stroke-width:0.8;" x="57.6" xlink:href="#mfec04f0ee1" y="298.944"/>
      </g>
     </g>
     <g id="text_1">
      <!-- 0 -->
      <g transform="translate(51.2375 321.140875)scale(0.2 -0.2)">
       <defs>
        <path d="M 31.78125 66.40625 
Q 24.171875 66.40625 20.328125 58.90625 
Q 16.5 51.421875 16.5 36.375 
Q 16.5 21.390625 20.328125 13.890625 
Q 24.171875 6.390625 31.78125 6.390625 
Q 39.453125 6.390625 43.28125 13.890625 
Q 47.125 21.390625 47.125 36.375 
Q 47.125 51.421875 43.28125 58.90625 
Q 39.453125 66.40625 31.78125 66.40625 
z
M 31.78125 74.21875 
Q 44.046875 74.21875 50.515625 64.515625 
Q 56.984375 54.828125 56.984375 36.375 
Q 56.984375 17.96875 50.515625 8.265625 
Q 44.046875 -1.421875 31.78125 -1.421875 
Q 19.53125 -1.421875 13.0625 8.265625 
Q 6.59375 17.96875 6.59375 36.375 
Q 6.59375 54.828125 13.0625 64.515625 
Q 19.53125 74.21875 31.78125 74.21875 
z
" id="DejaVuSans-48"/>
       </defs>
       <use xlink:href="#DejaVuSans-48"/>
      </g>
     </g>
    </g>
    <g id="xtick_2">
     <g id="line2d_3">
      <path clip-path="url(#p44b9fe26a2)" d="M 137.910857 298.944 
L 137.910857 27.648 
" style="fill:none;stroke:#b0b0b0;stroke-linecap:square;stroke-width:0.8;"/>
     </g>
     <g id="line2d_4">
      <g>
       <use style="stroke:#000000;stroke-width:0.8;" x="137.910857" xlink:href="#mfec04f0ee1" y="298.944"/>
      </g>
     </g>
     <g id="text_2">
      <!-- 2 -->
      <g transform="translate(131.548357 321.140875)scale(0.2 -0.2)">
       <defs>
        <path d="M 19.1875 8.296875 
L 53.609375 8.296875 
L 53.609375 0 
L 7.328125 0 
L 7.328125 8.296875 
Q 12.9375 14.109375 22.625 23.890625 
Q 32.328125 33.6875 34.8125 36.53125 
Q 39.546875 41.84375 41.421875 45.53125 
Q 43.3125 49.21875 43.3125 52.78125 
Q 43.3125 58.59375 39.234375 62.25 
Q 35.15625 65.921875 28.609375 65.921875 
Q 23.96875 65.921875 18.8125 64.3125 
Q 13.671875 62.703125 7.8125 59.421875 
L 7.8125 69.390625 
Q 13.765625 71.78125 18.9375 73 
Q 24.125 74.21875 28.421875 74.21875 
Q 39.75 74.21875 46.484375 68.546875 
Q 53.21875 62.890625 53.21875 53.421875 
Q 53.21875 48.921875 51.53125 44.890625 
Q 49.859375 40.875 45.40625 35.40625 
Q 44.1875 33.984375 37.640625 27.21875 
Q 31.109375 20.453125 19.1875 8.296875 
z
" id="DejaVuSans-50"/>
       </defs>
       <use xlink:href="#DejaVuSans-50"/>
      </g>
     </g>
    </g>
    <g id="xtick_3">
     <g id="line2d_5">
      <path clip-path="url(#p44b9fe26a2)" d="M 218.221714 298.944 
L 218.221714 27.648 
" style="fill:none;stroke:#b0b0b0;stroke-linecap:square;stroke-width:0.8;"/>
     </g>
     <g id="line2d_6">
      <g>
       <use style="stroke:#000000;stroke-width:0.8;" x="218.221714" xlink:href="#mfec04f0ee1" y="298.944"/>
      </g>
     </g>
     <g id="text_3">
      <!-- 4 -->
      <g transform="translate(211.859214 321.140875)scale(0.2 -0.2)">
       <defs>
        <path d="M 37.796875 64.3125 
L 12.890625 25.390625 
L 37.796875 25.390625 
z
M 35.203125 72.90625 
L 47.609375 72.90625 
L 47.609375 25.390625 
L 58.015625 25.390625 
L 58.015625 17.1875 
L 47.609375 17.1875 
L 47.609375 0 
L 37.796875 0 
L 37.796875 17.1875 
L 4.890625 17.1875 
L 4.890625 26.703125 
z
" id="DejaVuSans-52"/>
       </defs>
       <use xlink:href="#DejaVuSans-52"/>
      </g>
     </g>
    </g>
    <g id="xtick_4">
     <g id="line2d_7">
      <path clip-path="url(#p44b9fe26a2)" d="M 298.532571 298.944 
L 298.532571 27.648 
" style="fill:none;stroke:#b0b0b0;stroke-linecap:square;stroke-width:0.8;"/>
     </g>
     <g id="line2d_8">
      <g>
       <use style="stroke:#000000;stroke-width:0.8;" x="298.532571" xlink:href="#mfec04f0ee1" y="298.944"/>
      </g>
     </g>
     <g id="text_4">
      <!-- 6 -->
      <g transform="translate(292.170071 321.140875)scale(0.2 -0.2)">
       <defs>
        <path d="M 33.015625 40.375 
Q 26.375 40.375 22.484375 35.828125 
Q 18.609375 31.296875 18.609375 23.390625 
Q 18.609375 15.53125 22.484375 10.953125 
Q 26.375 6.390625 33.015625 6.390625 
Q 39.65625 6.390625 43.53125 10.953125 
Q 47.40625 15.53125 47.40625 23.390625 
Q 47.40625 31.296875 43.53125 35.828125 
Q 39.65625 40.375 33.015625 40.375 
z
M 52.59375 71.296875 
L 52.59375 62.3125 
Q 48.875 64.0625 45.09375 64.984375 
Q 41.3125 65.921875 37.59375 65.921875 
Q 27.828125 65.921875 22.671875 59.328125 
Q 17.53125 52.734375 16.796875 39.40625 
Q 19.671875 43.65625 24.015625 45.921875 
Q 28.375 48.1875 33.59375 48.1875 
Q 44.578125 48.1875 50.953125 41.515625 
Q 57.328125 34.859375 57.328125 23.390625 
Q 57.328125 12.15625 50.6875 5.359375 
Q 44.046875 -1.421875 33.015625 -1.421875 
Q 20.359375 -1.421875 13.671875 8.265625 
Q 6.984375 17.96875 6.984375 36.375 
Q 6.984375 53.65625 15.1875 63.9375 
Q 23.390625 74.21875 37.203125 74.21875 
Q 40.921875 74.21875 44.703125 73.484375 
Q 48.484375 72.75 52.59375 71.296875 
z
" id="DejaVuSans-54"/>
       </defs>
       <use xlink:href="#DejaVuSans-54"/>
      </g>
     </g>
    </g>
    <g id="xtick_5">
     <g id="line2d_9">
      <path clip-path="url(#p44b9fe26a2)" d="M 97.755429 298.944 
L 97.755429 27.648 
" style="fill:none;stroke:#b0b0b0;stroke-linecap:square;stroke-width:0.8;"/>
     </g>
     <g id="line2d_10">
      <defs>
       <path d="M 0 0 
L 0 2 
" id="m99aba3e4b2" style="stroke:#000000;stroke-width:0.6;"/>
      </defs>
      <g>
       <use style="stroke:#000000;stroke-width:0.6;" x="97.755429" xlink:href="#m99aba3e4b2" y="298.944"/>
      </g>
     </g>
    </g>
    <g id="xtick_6">
     <g id="line2d_11">
      <path clip-path="url(#p44b9fe26a2)" d="M 178.066286 298.944 
L 178.066286 27.648 
" style="fill:none;stroke:#b0b0b0;stroke-linecap:square;stroke-width:0.8;"/>
     </g>
     <g id="line2d_12">
      <g>
       <use style="stroke:#000000;stroke-width:0.6;" x="178.066286" xlink:href="#m99aba3e4b2" y="298.944"/>
      </g>
     </g>
    </g>
    <g id="xtick_7">
     <g id="line2d_13">
      <path clip-path="url(#p44b9fe26a2)" d="M 258.377143 298.944 
L 258.377143 27.648 
" style="fill:none;stroke:#b0b0b0;stroke-linecap:square;stroke-width:0.8;"/>
     </g>
     <g id="line2d_14">
      <g>
       <use style="stroke:#000000;stroke-width:0.6;" x="258.377143" xlink:href="#m99aba3e4b2" y="298.944"/>
      </g>
     </g>
    </g>
    <g id="xtick_8">
     <g id="line2d_15">
      <path clip-path="url(#p44b9fe26a2)" d="M 338.688 298.944 
L 338.688 27.648 
" style="fill:none;stroke:#b0b0b0;stroke-linecap:square;stroke-width:0.8;"/>
     </g>
     <g id="line2d_16">
      <g>
       <use style="stroke:#000000;stroke-width:0.6;" x="338.688" xlink:href="#m99aba3e4b2" y="298.944"/>
      </g>
     </g>
    </g>
    <g id="text_5">
     <!-- log10(# f-evals / dimension) -->
     <g transform="translate(77.764078 342.217594)scale(0.17 -0.17)">
      <defs>
       <path d="M 9.421875 75.984375 
L 18.40625 75.984375 
L 18.40625 0 
L 9.421875 0 
z
" id="DejaVuSans-108"/>
       <path d="M 30.609375 48.390625 
Q 23.390625 48.390625 19.1875 42.75 
Q 14.984375 37.109375 14.984375 27.296875 
Q 14.984375 17.484375 19.15625 11.84375 
Q 23.34375 6.203125 30.609375 6.203125 
Q 37.796875 6.203125 41.984375 11.859375 
Q 46.1875 17.53125 46.1875 27.296875 
Q 46.1875 37.015625 41.984375 42.703125 
Q 37.796875 48.390625 30.609375 48.390625 
z
M 30.609375 56 
Q 42.328125 56 49.015625 48.375 
Q 55.71875 40.765625 55.71875 27.296875 
Q 55.71875 13.875 49.015625 6.21875 
Q 42.328125 -1.421875 30.609375 -1.421875 
Q 18.84375 -1.421875 12.171875 6.21875 
Q 5.515625 13.875 5.515625 27.296875 
Q 5.515625 40.765625 12.171875 48.375 
Q 18.84375 56 30.609375 56 
z
" id="DejaVuSans-111"/>
       <path d="M 45.40625 27.984375 
Q 45.40625 37.75 41.375 43.109375 
Q 37.359375 48.484375 30.078125 48.484375 
Q 22.859375 48.484375 18.828125 43.109375 
Q 14.796875 37.75 14.796875 27.984375 
Q 14.796875 18.265625 18.828125 12.890625 
Q 22.859375 7.515625 30.078125 7.515625 
Q 37.359375 7.515625 41.375 12.890625 
Q 45.40625 18.265625 45.40625 27.984375 
z
M 54.390625 6.78125 
Q 54.390625 -7.171875 48.1875 -13.984375 
Q 42 -20.796875 29.203125 -20.796875 
Q 24.46875 -20.796875 20.265625 -20.09375 
Q 16.0625 -19.390625 12.109375 -17.921875 
L 12.109375 -9.1875 
Q 16.0625 -11.328125 19.921875 -12.34375 
Q 23.78125 -13.375 27.78125 -13.375 
Q 36.625 -13.375 41.015625 -8.765625 
Q 45.40625 -4.15625 45.40625 5.171875 
L 45.40625 9.625 
Q 42.625 4.78125 38.28125 2.390625 
Q 33.9375 0 27.875 0 
Q 17.828125 0 11.671875 7.65625 
Q 5.515625 15.328125 5.515625 27.984375 
Q 5.515625 40.671875 11.671875 48.328125 
Q 17.828125 56 27.875 56 
Q 33.9375 56 38.28125 53.609375 
Q 42.625 51.21875 45.40625 46.390625 
L 45.40625 54.6875 
L 54.390625 54.6875 
z
" id="DejaVuSans-103"/>
       <path d="M 12.40625 8.296875 
L 28.515625 8.296875 
L 28.515625 63.921875 
L 10.984375 60.40625 
L 10.984375 69.390625 
L 28.421875 72.90625 
L 38.28125 72.90625 
L 38.28125 8.296875 
L 54.390625 8.296875 
L 54.390625 0 
L 12.40625 0 
z
" id="DejaVuSans-49"/>
       <path d="M 31 75.875 
Q 24.46875 64.65625 21.28125 53.65625 
Q 18.109375 42.671875 18.109375 31.390625 
Q 18.109375 20.125 21.3125 9.0625 
Q 24.515625 -2 31 -13.1875 
L 23.1875 -13.1875 
Q 15.875 -1.703125 12.234375 9.375 
Q 8.59375 20.453125 8.59375 31.390625 
Q 8.59375 42.28125 12.203125 53.3125 
Q 15.828125 64.359375 23.1875 75.875 
z
" id="DejaVuSans-40"/>
       <path d="M 51.125 44 
L 36.921875 44 
L 32.8125 27.6875 
L 47.125 27.6875 
z
M 43.796875 71.78125 
L 38.71875 51.515625 
L 52.984375 51.515625 
L 58.109375 71.78125 
L 65.921875 71.78125 
L 60.890625 51.515625 
L 76.125 51.515625 
L 76.125 44 
L 58.984375 44 
L 54.984375 27.6875 
L 70.515625 27.6875 
L 70.515625 20.21875 
L 53.078125 20.21875 
L 48 0 
L 40.1875 0 
L 45.21875 20.21875 
L 30.90625 20.21875 
L 25.875 0 
L 18.015625 0 
L 23.09375 20.21875 
L 7.71875 20.21875 
L 7.71875 27.6875 
L 24.90625 27.6875 
L 29 44 
L 13.28125 44 
L 13.28125 51.515625 
L 30.90625 51.515625 
L 35.890625 71.78125 
z
" id="DejaVuSans-35"/>
       <path id="DejaVuSans-32"/>
       <path d="M 37.109375 75.984375 
L 37.109375 68.5 
L 28.515625 68.5 
Q 23.6875 68.5 21.796875 66.546875 
Q 19.921875 64.59375 19.921875 59.515625 
L 19.921875 54.6875 
L 34.71875 54.6875 
L 34.71875 47.703125 
L 19.921875 47.703125 
L 19.921875 0 
L 10.890625 0 
L 10.890625 47.703125 
L 2.296875 47.703125 
L 2.296875 54.6875 
L 10.890625 54.6875 
L 10.890625 58.5 
Q 10.890625 67.625 15.140625 71.796875 
Q 19.390625 75.984375 28.609375 75.984375 
z
" id="DejaVuSans-102"/>
       <path d="M 4.890625 31.390625 
L 31.203125 31.390625 
L 31.203125 23.390625 
L 4.890625 23.390625 
z
" id="DejaVuSans-45"/>
       <path d="M 56.203125 29.59375 
L 56.203125 25.203125 
L 14.890625 25.203125 
Q 15.484375 15.921875 20.484375 11.0625 
Q 25.484375 6.203125 34.421875 6.203125 
Q 39.59375 6.203125 44.453125 7.46875 
Q 49.3125 8.734375 54.109375 11.28125 
L 54.109375 2.78125 
Q 49.265625 0.734375 44.1875 -0.34375 
Q 39.109375 -1.421875 33.890625 -1.421875 
Q 20.796875 -1.421875 13.15625 6.1875 
Q 5.515625 13.8125 5.515625 26.8125 
Q 5.515625 40.234375 12.765625 48.109375 
Q 20.015625 56 32.328125 56 
Q 43.359375 56 49.78125 48.890625 
Q 56.203125 41.796875 56.203125 29.59375 
z
M 47.21875 32.234375 
Q 47.125 39.59375 43.09375 43.984375 
Q 39.0625 48.390625 32.421875 48.390625 
Q 24.90625 48.390625 20.390625 44.140625 
Q 15.875 39.890625 15.1875 32.171875 
z
" id="DejaVuSans-101"/>
       <path d="M 2.984375 54.6875 
L 12.5 54.6875 
L 29.59375 8.796875 
L 46.6875 54.6875 
L 56.203125 54.6875 
L 35.6875 0 
L 23.484375 0 
z
" id="DejaVuSans-118"/>
       <path d="M 34.28125 27.484375 
Q 23.390625 27.484375 19.1875 25 
Q 14.984375 22.515625 14.984375 16.5 
Q 14.984375 11.71875 18.140625 8.90625 
Q 21.296875 6.109375 26.703125 6.109375 
Q 34.1875 6.109375 38.703125 11.40625 
Q 43.21875 16.703125 43.21875 25.484375 
L 43.21875 27.484375 
z
M 52.203125 31.203125 
L 52.203125 0 
L 43.21875 0 
L 43.21875 8.296875 
Q 40.140625 3.328125 35.546875 0.953125 
Q 30.953125 -1.421875 24.3125 -1.421875 
Q 15.921875 -1.421875 10.953125 3.296875 
Q 6 8.015625 6 15.921875 
Q 6 25.140625 12.171875 29.828125 
Q 18.359375 34.515625 30.609375 34.515625 
L 43.21875 34.515625 
L 43.21875 35.40625 
Q 43.21875 41.609375 39.140625 45 
Q 35.0625 48.390625 27.6875 48.390625 
Q 23 48.390625 18.546875 47.265625 
Q 14.109375 46.140625 10.015625 43.890625 
L 10.015625 52.203125 
Q 14.9375 54.109375 19.578125 55.046875 
Q 24.21875 56 28.609375 56 
Q 40.484375 56 46.34375 49.84375 
Q 52.203125 43.703125 52.203125 31.203125 
z
" id="DejaVuSans-97"/>
       <path d="M 44.28125 53.078125 
L 44.28125 44.578125 
Q 40.484375 46.53125 36.375 47.5 
Q 32.28125 48.484375 27.875 48.484375 
Q 21.1875 48.484375 17.84375 46.4375 
Q 14.5 44.390625 14.5 40.28125 
Q 14.5 37.15625 16.890625 35.375 
Q 19.28125 33.59375 26.515625 31.984375 
L 29.59375 31.296875 
Q 39.15625 29.25 43.1875 25.515625 
Q 47.21875 21.78125 47.21875 15.09375 
Q 47.21875 7.46875 41.1875 3.015625 
Q 35.15625 -1.421875 24.609375 -1.421875 
Q 20.21875 -1.421875 15.453125 -0.5625 
Q 10.6875 0.296875 5.421875 2 
L 5.421875 11.28125 
Q 10.40625 8.6875 15.234375 7.390625 
Q 20.0625 6.109375 24.8125 6.109375 
Q 31.15625 6.109375 34.5625 8.28125 
Q 37.984375 10.453125 37.984375 14.40625 
Q 37.984375 18.0625 35.515625 20.015625 
Q 33.0625 21.96875 24.703125 23.78125 
L 21.578125 24.515625 
Q 13.234375 26.265625 9.515625 29.90625 
Q 5.8125 33.546875 5.8125 39.890625 
Q 5.8125 47.609375 11.28125 51.796875 
Q 16.75 56 26.8125 56 
Q 31.78125 56 36.171875 55.265625 
Q 40.578125 54.546875 44.28125 53.078125 
z
" id="DejaVuSans-115"/>
       <path d="M 25.390625 72.90625 
L 33.6875 72.90625 
L 8.296875 -9.28125 
L 0 -9.28125 
z
" id="DejaVuSans-47"/>
       <path d="M 45.40625 46.390625 
L 45.40625 75.984375 
L 54.390625 75.984375 
L 54.390625 0 
L 45.40625 0 
L 45.40625 8.203125 
Q 42.578125 3.328125 38.25 0.953125 
Q 33.9375 -1.421875 27.875 -1.421875 
Q 17.96875 -1.421875 11.734375 6.484375 
Q 5.515625 14.40625 5.515625 27.296875 
Q 5.515625 40.1875 11.734375 48.09375 
Q 17.96875 56 27.875 56 
Q 33.9375 56 38.25 53.625 
Q 42.578125 51.265625 45.40625 46.390625 
z
M 14.796875 27.296875 
Q 14.796875 17.390625 18.875 11.75 
Q 22.953125 6.109375 30.078125 6.109375 
Q 37.203125 6.109375 41.296875 11.75 
Q 45.40625 17.390625 45.40625 27.296875 
Q 45.40625 37.203125 41.296875 42.84375 
Q 37.203125 48.484375 30.078125 48.484375 
Q 22.953125 48.484375 18.875 42.84375 
Q 14.796875 37.203125 14.796875 27.296875 
z
" id="DejaVuSans-100"/>
       <path d="M 9.421875 54.6875 
L 18.40625 54.6875 
L 18.40625 0 
L 9.421875 0 
z
M 9.421875 75.984375 
L 18.40625 75.984375 
L 18.40625 64.59375 
L 9.421875 64.59375 
z
" id="DejaVuSans-105"/>
       <path d="M 52 44.1875 
Q 55.375 50.25 60.0625 53.125 
Q 64.75 56 71.09375 56 
Q 79.640625 56 84.28125 50.015625 
Q 88.921875 44.046875 88.921875 33.015625 
L 88.921875 0 
L 79.890625 0 
L 79.890625 32.71875 
Q 79.890625 40.578125 77.09375 44.375 
Q 74.3125 48.1875 68.609375 48.1875 
Q 61.625 48.1875 57.5625 43.546875 
Q 53.515625 38.921875 53.515625 30.90625 
L 53.515625 0 
L 44.484375 0 
L 44.484375 32.71875 
Q 44.484375 40.625 41.703125 44.40625 
Q 38.921875 48.1875 33.109375 48.1875 
Q 26.21875 48.1875 22.15625 43.53125 
Q 18.109375 38.875 18.109375 30.90625 
L 18.109375 0 
L 9.078125 0 
L 9.078125 54.6875 
L 18.109375 54.6875 
L 18.109375 46.1875 
Q 21.1875 51.21875 25.484375 53.609375 
Q 29.78125 56 35.6875 56 
Q 41.65625 56 45.828125 52.96875 
Q 50 49.953125 52 44.1875 
z
" id="DejaVuSans-109"/>
       <path d="M 54.890625 33.015625 
L 54.890625 0 
L 45.90625 0 
L 45.90625 32.71875 
Q 45.90625 40.484375 42.875 44.328125 
Q 39.84375 48.1875 33.796875 48.1875 
Q 26.515625 48.1875 22.3125 43.546875 
Q 18.109375 38.921875 18.109375 30.90625 
L 18.109375 0 
L 9.078125 0 
L 9.078125 54.6875 
L 18.109375 54.6875 
L 18.109375 46.1875 
Q 21.34375 51.125 25.703125 53.5625 
Q 30.078125 56 35.796875 56 
Q 45.21875 56 50.046875 50.171875 
Q 54.890625 44.34375 54.890625 33.015625 
z
" id="DejaVuSans-110"/>
       <path d="M 8.015625 75.875 
L 15.828125 75.875 
Q 23.140625 64.359375 26.78125 53.3125 
Q 30.421875 42.28125 30.421875 31.390625 
Q 30.421875 20.453125 26.78125 9.375 
Q 23.140625 -1.703125 15.828125 -13.1875 
L 8.015625 -13.1875 
Q 14.5 -2 17.703125 9.0625 
Q 20.90625 20.125 20.90625 31.390625 
Q 20.90625 42.671875 17.703125 53.65625 
Q 14.5 64.65625 8.015625 75.875 
z
" id="DejaVuSans-41"/>
      </defs>
      <use xlink:href="#DejaVuSans-108"/>
      <use x="27.783203" xlink:href="#DejaVuSans-111"/>
      <use x="88.964844" xlink:href="#DejaVuSans-103"/>
      <use x="152.441406" xlink:href="#DejaVuSans-49"/>
      <use x="216.064453" xlink:href="#DejaVuSans-48"/>
      <use x="279.6875" xlink:href="#DejaVuSans-40"/>
      <use x="318.701172" xlink:href="#DejaVuSans-35"/>
      <use x="402.490234" xlink:href="#DejaVuSans-32"/>
      <use x="434.277344" xlink:href="#DejaVuSans-102"/>
      <use x="463.982422" xlink:href="#DejaVuSans-45"/>
      <use x="500.066406" xlink:href="#DejaVuSans-101"/>
      <use x="561.589844" xlink:href="#DejaVuSans-118"/>
      <use x="620.769531" xlink:href="#DejaVuSans-97"/>
      <use x="682.048828" xlink:href="#DejaVuSans-108"/>
      <use x="709.832031" xlink:href="#DejaVuSans-115"/>
      <use x="761.931641" xlink:href="#DejaVuSans-32"/>
      <use x="793.71875" xlink:href="#DejaVuSans-47"/>
      <use x="827.410156" xlink:href="#DejaVuSans-32"/>
      <use x="859.197266" xlink:href="#DejaVuSans-100"/>
      <use x="922.673828" xlink:href="#DejaVuSans-105"/>
      <use x="950.457031" xlink:href="#DejaVuSans-109"/>
      <use x="1047.869141" xlink:href="#DejaVuSans-101"/>
      <use x="1109.392578" xlink:href="#DejaVuSans-110"/>
      <use x="1172.771484" xlink:href="#DejaVuSans-115"/>
      <use x="1224.871094" xlink:href="#DejaVuSans-105"/>
      <use x="1252.654297" xlink:href="#DejaVuSans-111"/>
      <use x="1313.835938" xlink:href="#DejaVuSans-110"/>
      <use x="1377.214844" xlink:href="#DejaVuSans-41"/>
     </g>
    </g>
   </g>
   <g id="matplotlib.axis_2">
    <g id="ytick_1">
     <g id="line2d_17">
      <path clip-path="url(#p44b9fe26a2)" d="M 57.6 298.944 
L 338.688 298.944 
" style="fill:none;stroke:#b0b0b0;stroke-linecap:square;stroke-width:0.8;"/>
     </g>
     <g id="line2d_18">
      <defs>
       <path d="M 0 0 
L -3.5 0 
" id="mb087d85338" style="stroke:#000000;stroke-width:0.8;"/>
      </defs>
      <g>
       <use style="stroke:#000000;stroke-width:0.8;" x="57.6" xlink:href="#mb087d85338" y="298.944"/>
      </g>
     </g>
     <g id="text_6">
      <!-- 0.0 -->
      <g transform="translate(25.155 305.02275)scale(0.16 -0.16)">
       <defs>
        <path d="M 10.6875 12.40625 
L 21 12.40625 
L 21 0 
L 10.6875 0 
z
" id="DejaVuSans-46"/>
       </defs>
       <use xlink:href="#DejaVuSans-48"/>
       <use x="63.623047" xlink:href="#DejaVuSans-46"/>
       <use x="95.410156" xlink:href="#DejaVuSans-48"/>
      </g>
     </g>
    </g>
    <g id="ytick_2">
     <g id="line2d_19">
      <path clip-path="url(#p44b9fe26a2)" d="M 57.6 245.22202 
L 338.688 245.22202 
" style="fill:none;stroke:#b0b0b0;stroke-linecap:square;stroke-width:0.8;"/>
     </g>
     <g id="line2d_20">
      <g>
       <use style="stroke:#000000;stroke-width:0.8;" x="57.6" xlink:href="#mb087d85338" y="245.22202"/>
      </g>
     </g>
     <g id="text_7">
      <!-- 0.2 -->
      <g transform="translate(25.155 251.30077)scale(0.16 -0.16)">
       <use xlink:href="#DejaVuSans-48"/>
       <use x="63.623047" xlink:href="#DejaVuSans-46"/>
       <use x="95.410156" xlink:href="#DejaVuSans-50"/>
      </g>
     </g>
    </g>
    <g id="ytick_3">
     <g id="line2d_21">
      <path clip-path="url(#p44b9fe26a2)" d="M 57.6 191.50004 
L 338.688 191.50004 
" style="fill:none;stroke:#b0b0b0;stroke-linecap:square;stroke-width:0.8;"/>
     </g>
     <g id="line2d_22">
      <g>
       <use style="stroke:#000000;stroke-width:0.8;" x="57.6" xlink:href="#mb087d85338" y="191.50004"/>
      </g>
     </g>
     <g id="text_8">
      <!-- 0.4 -->
      <g transform="translate(25.155 197.57879)scale(0.16 -0.16)">
       <use xlink:href="#DejaVuSans-48"/>
       <use x="63.623047" xlink:href="#DejaVuSans-46"/>
       <use x="95.410156" xlink:href="#DejaVuSans-52"/>
      </g>
     </g>
    </g>
    <g id="ytick_4">
     <g id="line2d_23">
      <path clip-path="url(#p44b9fe26a2)" d="M 57.6 137.778059 
L 338.688 137.778059 
" style="fill:none;stroke:#b0b0b0;stroke-linecap:square;stroke-width:0.8;"/>
     </g>
     <g id="line2d_24">
      <g>
       <use style="stroke:#000000;stroke-width:0.8;" x="57.6" xlink:href="#mb087d85338" y="137.778059"/>
      </g>
     </g>
     <g id="text_9">
      <!-- 0.6 -->
      <g transform="translate(25.155 143.856809)scale(0.16 -0.16)">
       <use xlink:href="#DejaVuSans-48"/>
       <use x="63.623047" xlink:href="#DejaVuSans-46"/>
       <use x="95.410156" xlink:href="#DejaVuSans-54"/>
      </g>
     </g>
    </g>
    <g id="ytick_5">
     <g id="line2d_25">
      <path clip-path="url(#p44b9fe26a2)" d="M 57.6 84.056079 
L 338.688 84.056079 
" style="fill:none;stroke:#b0b0b0;stroke-linecap:square;stroke-width:0.8;"/>
     </g>
     <g id="line2d_26">
      <g>
       <use style="stroke:#000000;stroke-width:0.8;" x="57.6" xlink:href="#mb087d85338" y="84.056079"/>
      </g>
     </g>
     <g id="text_10">
      <!-- 0.8 -->
      <g transform="translate(25.155 90.134829)scale(0.16 -0.16)">
       <defs>
        <path d="M 31.78125 34.625 
Q 24.75 34.625 20.71875 30.859375 
Q 16.703125 27.09375 16.703125 20.515625 
Q 16.703125 13.921875 20.71875 10.15625 
Q 24.75 6.390625 31.78125 6.390625 
Q 38.8125 6.390625 42.859375 10.171875 
Q 46.921875 13.96875 46.921875 20.515625 
Q 46.921875 27.09375 42.890625 30.859375 
Q 38.875 34.625 31.78125 34.625 
z
M 21.921875 38.8125 
Q 15.578125 40.375 12.03125 44.71875 
Q 8.5 49.078125 8.5 55.328125 
Q 8.5 64.0625 14.71875 69.140625 
Q 20.953125 74.21875 31.78125 74.21875 
Q 42.671875 74.21875 48.875 69.140625 
Q 55.078125 64.0625 55.078125 55.328125 
Q 55.078125 49.078125 51.53125 44.71875 
Q 48 40.375 41.703125 38.8125 
Q 48.828125 37.15625 52.796875 32.3125 
Q 56.78125 27.484375 56.78125 20.515625 
Q 56.78125 9.90625 50.3125 4.234375 
Q 43.84375 -1.421875 31.78125 -1.421875 
Q 19.734375 -1.421875 13.25 4.234375 
Q 6.78125 9.90625 6.78125 20.515625 
Q 6.78125 27.484375 10.78125 32.3125 
Q 14.796875 37.15625 21.921875 38.8125 
z
M 18.3125 54.390625 
Q 18.3125 48.734375 21.84375 45.5625 
Q 25.390625 42.390625 31.78125 42.390625 
Q 38.140625 42.390625 41.71875 45.5625 
Q 45.3125 48.734375 45.3125 54.390625 
Q 45.3125 60.0625 41.71875 63.234375 
Q 38.140625 66.40625 31.78125 66.40625 
Q 25.390625 66.40625 21.84375 63.234375 
Q 18.3125 60.0625 18.3125 54.390625 
z
" id="DejaVuSans-56"/>
       </defs>
       <use xlink:href="#DejaVuSans-48"/>
       <use x="63.623047" xlink:href="#DejaVuSans-46"/>
       <use x="95.410156" xlink:href="#DejaVuSans-56"/>
      </g>
     </g>
    </g>
    <g id="ytick_6">
     <g id="line2d_27">
      <path clip-path="url(#p44b9fe26a2)" d="M 57.6 30.334099 
L 338.688 30.334099 
" style="fill:none;stroke:#b0b0b0;stroke-linecap:square;stroke-width:0.8;"/>
     </g>
     <g id="line2d_28">
      <g>
       <use style="stroke:#000000;stroke-width:0.8;" x="57.6" xlink:href="#mb087d85338" y="30.334099"/>
      </g>
     </g>
     <g id="text_11">
      <!-- 1.0 -->
      <g transform="translate(25.155 36.412849)scale(0.16 -0.16)">
       <use xlink:href="#DejaVuSans-49"/>
       <use x="63.623047" xlink:href="#DejaVuSans-46"/>
       <use x="95.410156" xlink:href="#DejaVuSans-48"/>
      </g>
     </g>
    </g>
    <g id="text_12">
     <!-- Fraction of function,target pairs -->
     <g transform="translate(17.619531 297.681)rotate(-90)scale(0.17 -0.17)">
      <defs>
       <path d="M 9.8125 72.90625 
L 51.703125 72.90625 
L 51.703125 64.59375 
L 19.671875 64.59375 
L 19.671875 43.109375 
L 48.578125 43.109375 
L 48.578125 34.8125 
L 19.671875 34.8125 
L 19.671875 0 
L 9.8125 0 
z
" id="DejaVuSans-70"/>
       <path d="M 41.109375 46.296875 
Q 39.59375 47.171875 37.8125 47.578125 
Q 36.03125 48 33.890625 48 
Q 26.265625 48 22.1875 43.046875 
Q 18.109375 38.09375 18.109375 28.8125 
L 18.109375 0 
L 9.078125 0 
L 9.078125 54.6875 
L 18.109375 54.6875 
L 18.109375 46.1875 
Q 20.953125 51.171875 25.484375 53.578125 
Q 30.03125 56 36.53125 56 
Q 37.453125 56 38.578125 55.875 
Q 39.703125 55.765625 41.0625 55.515625 
z
" id="DejaVuSans-114"/>
       <path d="M 48.78125 52.59375 
L 48.78125 44.1875 
Q 44.96875 46.296875 41.140625 47.34375 
Q 37.3125 48.390625 33.40625 48.390625 
Q 24.65625 48.390625 19.8125 42.84375 
Q 14.984375 37.3125 14.984375 27.296875 
Q 14.984375 17.28125 19.8125 11.734375 
Q 24.65625 6.203125 33.40625 6.203125 
Q 37.3125 6.203125 41.140625 7.25 
Q 44.96875 8.296875 48.78125 10.40625 
L 48.78125 2.09375 
Q 45.015625 0.34375 40.984375 -0.53125 
Q 36.96875 -1.421875 32.421875 -1.421875 
Q 20.0625 -1.421875 12.78125 6.34375 
Q 5.515625 14.109375 5.515625 27.296875 
Q 5.515625 40.671875 12.859375 48.328125 
Q 20.21875 56 33.015625 56 
Q 37.15625 56 41.109375 55.140625 
Q 45.0625 54.296875 48.78125 52.59375 
z
" id="DejaVuSans-99"/>
       <path d="M 18.3125 70.21875 
L 18.3125 54.6875 
L 36.8125 54.6875 
L 36.8125 47.703125 
L 18.3125 47.703125 
L 18.3125 18.015625 
Q 18.3125 11.328125 20.140625 9.421875 
Q 21.96875 7.515625 27.59375 7.515625 
L 36.8125 7.515625 
L 36.8125 0 
L 27.59375 0 
Q 17.1875 0 13.234375 3.875 
Q 9.28125 7.765625 9.28125 18.015625 
L 9.28125 47.703125 
L 2.6875 47.703125 
L 2.6875 54.6875 
L 9.28125 54.6875 
L 9.28125 70.21875 
z
" id="DejaVuSans-116"/>
       <path d="M 8.5 21.578125 
L 8.5 54.6875 
L 17.484375 54.6875 
L 17.484375 21.921875 
Q 17.484375 14.15625 20.5 10.265625 
Q 23.53125 6.390625 29.59375 6.390625 
Q 36.859375 6.390625 41.078125 11.03125 
Q 45.3125 15.671875 45.3125 23.6875 
L 45.3125 54.6875 
L 54.296875 54.6875 
L 54.296875 0 
L 45.3125 0 
L 45.3125 8.40625 
Q 42.046875 3.421875 37.71875 1 
Q 33.40625 -1.421875 27.6875 -1.421875 
Q 18.265625 -1.421875 13.375 4.4375 
Q 8.5 10.296875 8.5 21.578125 
z
M 31.109375 56 
z
" id="DejaVuSans-117"/>
       <path d="M 11.71875 12.40625 
L 22.015625 12.40625 
L 22.015625 4 
L 14.015625 -11.625 
L 7.71875 -11.625 
L 11.71875 4 
z
" id="DejaVuSans-44"/>
       <path d="M 18.109375 8.203125 
L 18.109375 -20.796875 
L 9.078125 -20.796875 
L 9.078125 54.6875 
L 18.109375 54.6875 
L 18.109375 46.390625 
Q 20.953125 51.265625 25.265625 53.625 
Q 29.59375 56 35.59375 56 
Q 45.5625 56 51.78125 48.09375 
Q 58.015625 40.1875 58.015625 27.296875 
Q 58.015625 14.40625 51.78125 6.484375 
Q 45.5625 -1.421875 35.59375 -1.421875 
Q 29.59375 -1.421875 25.265625 0.953125 
Q 20.953125 3.328125 18.109375 8.203125 
z
M 48.6875 27.296875 
Q 48.6875 37.203125 44.609375 42.84375 
Q 40.53125 48.484375 33.40625 48.484375 
Q 26.265625 48.484375 22.1875 42.84375 
Q 18.109375 37.203125 18.109375 27.296875 
Q 18.109375 17.390625 22.1875 11.75 
Q 26.265625 6.109375 33.40625 6.109375 
Q 40.53125 6.109375 44.609375 11.75 
Q 48.6875 17.390625 48.6875 27.296875 
z
" id="DejaVuSans-112"/>
      </defs>
      <use xlink:href="#DejaVuSans-70"/>
      <use x="50.269531" xlink:href="#DejaVuSans-114"/>
      <use x="91.382812" xlink:href="#DejaVuSans-97"/>
      <use x="152.662109" xlink:href="#DejaVuSans-99"/>
      <use x="207.642578" xlink:href="#DejaVuSans-116"/>
      <use x="246.851562" xlink:href="#DejaVuSans-105"/>
      <use x="274.634766" xlink:href="#DejaVuSans-111"/>
      <use x="335.816406" xlink:href="#DejaVuSans-110"/>
      <use x="399.195312" xlink:href="#DejaVuSans-32"/>
      <use x="430.982422" xlink:href="#DejaVuSans-111"/>
      <use x="492.164062" xlink:href="#DejaVuSans-102"/>
      <use x="527.369141" xlink:href="#DejaVuSans-32"/>
      <use x="559.15625" xlink:href="#DejaVuSans-102"/>
      <use x="594.361328" xlink:href="#DejaVuSans-117"/>
      <use x="657.740234" xlink:href="#DejaVuSans-110"/>
      <use x="721.119141" xlink:href="#DejaVuSans-99"/>
      <use x="776.099609" xlink:href="#DejaVuSans-116"/>
      <use x="815.308594" xlink:href="#DejaVuSans-105"/>
      <use x="843.091797" xlink:href="#DejaVuSans-111"/>
      <use x="904.273438" xlink:href="#DejaVuSans-110"/>
      <use x="967.652344" xlink:href="#DejaVuSans-44"/>
      <use x="999.439453" xlink:href="#DejaVuSans-116"/>
      <use x="1038.648438" xlink:href="#DejaVuSans-97"/>
      <use x="1099.927734" xlink:href="#DejaVuSans-114"/>
      <use x="1139.291016" xlink:href="#DejaVuSans-103"/>
      <use x="1202.767578" xlink:href="#DejaVuSans-101"/>
      <use x="1264.291016" xlink:href="#DejaVuSans-116"/>
      <use x="1303.5" xlink:href="#DejaVuSans-32"/>
      <use x="1335.287109" xlink:href="#DejaVuSans-112"/>
      <use x="1398.763672" xlink:href="#DejaVuSans-97"/>
      <use x="1460.042969" xlink:href="#DejaVuSans-105"/>
      <use x="1487.826172" xlink:href="#DejaVuSans-114"/>
      <use x="1528.939453" xlink:href="#DejaVuSans-115"/>
     </g>
    </g>
   </g>
   <g id="line2d_29">
    <defs>
     <path d="M 0 1.5 
C 0.397805 1.5 0.77937 1.341951 1.06066 1.06066 
C 1.341951 0.77937 1.5 0.397805 1.5 0 
C 1.5 -0.397805 1.341951 -0.77937 1.06066 -1.06066 
C 0.77937 -1.341951 0.397805 -1.5 0 -1.5 
C -0.397805 -1.5 -0.77937 -1.341951 -1.06066 -1.06066 
C -1.341951 -0.77937 -1.5 -0.397805 -1.5 0 
C -1.5 0.397805 -1.341951 0.77937 -1.06066 1.06066 
C -0.77937 1.341951 -0.397805 1.5 0 1.5 
z
" id="m6ea8356531" style="stroke:#00bfbf;"/>
    </defs>
    <g>
     <use style="fill:#00bfbf;stroke:#00bfbf;" x="170.28336" xlink:href="#m6ea8356531" y="30.334099"/>
     <use style="fill:#00bfbf;stroke:#00bfbf;" x="170.28336" xlink:href="#m6ea8356531" y="30.334099"/>
    </g>
   </g>
   <g id="line2d_30">
    <path d="M 85.66744 298.944 
L 85.66744 298.417314 
L 94.921215 298.417314 
L 94.921215 297.363942 
L 95.918017 297.363942 
L 95.918017 296.31057 
L 97.755429 296.31057 
L 97.755429 295.783884 
L 101.646892 295.783884 
L 101.646892 291.043709 
L 102.989037 291.043709 
L 102.989037 289.990337 
L 105.398279 289.990337 
L 105.398279 288.936964 
L 111.104637 288.936964 
L 111.104637 286.83022 
L 111.505558 286.83022 
L 111.505558 284.19679 
L 111.897469 284.19679 
L 111.897469 283.143418 
L 116.621333 283.143418 
L 116.621333 282.616732 
L 117.202696 282.616732 
L 117.202696 282.090045 
L 120.33454 282.090045 
L 120.33454 280.509987 
L 122.362027 280.509987 
L 122.362027 279.456615 
L 125.291682 279.456615 
L 125.291682 278.929929 
L 126.338353 278.929929 
L 126.338353 278.403243 
L 127.954256 278.403243 
L 127.954256 276.823185 
L 129.147151 276.823185 
L 129.147151 274.189754 
L 129.433047 274.189754 
L 129.433047 273.663068 
L 131.565689 273.663068 
L 131.565689 273.136382 
L 133.352844 273.136382 
L 133.352844 272.609696 
L 133.910056 272.609696 
L 133.910056 272.08301 
L 134.236034 272.08301 
L 134.236034 271.556324 
L 135.280614 271.556324 
L 135.280614 265.762777 
L 136.170062 265.762777 
L 136.170062 263.656033 
L 136.551264 263.656033 
L 136.551264 262.075974 
L 137.289545 262.075974 
L 137.289545 260.495916 
L 138.341479 260.495916 
L 138.341479 256.809114 
L 138.594838 256.809114 
L 138.594838 255.229055 
L 139.009092 255.229055 
L 139.009092 253.122311 
L 139.8092 253.122311 
L 139.8092 252.595625 
L 140.272217 252.595625 
L 140.272217 251.015567 
L 140.723258 251.015567 
L 140.79731 245.748706 
L 141.662245 245.748706 
L 141.662245 245.22202 
L 141.871938 245.22202 
L 141.871938 244.168648 
L 142.147664 244.168648 
L 142.147664 243.641962 
L 142.553247 243.641962 
L 142.619936 242.588589 
L 146.431341 242.588589 
L 146.431341 242.061903 
L 146.854132 242.061903 
L 146.854132 241.535217 
L 147.570215 241.535217 
L 147.670154 239.955159 
L 147.917524 239.955159 
L 147.96658 238.901787 
L 148.639252 238.901787 
L 148.639252 238.375101 
L 148.87334 238.375101 
L 148.87334 237.848415 
L 149.15016 237.848415 
L 149.15016 237.321729 
L 149.286939 237.321729 
L 149.286939 236.268356 
L 149.60198 236.268356 
L 149.60198 234.688298 
L 149.735275 234.688298 
L 149.779481 233.10824 
L 150.129152 233.10824 
L 150.129152 232.581554 
L 151.015013 232.581554 
L 151.015013 231.528182 
L 151.219462 231.528182 
L 151.219462 229.948123 
L 151.779487 229.948123 
L 151.818809 228.368065 
L 152.474064 228.368065 
L 152.474064 227.314693 
L 152.774102 227.314693 
L 152.774102 226.788007 
L 152.959038 226.788007 
L 153.032466 225.207949 
L 153.178403 225.207949 
L 153.214697 223.101204 
L 153.395042 223.101204 
L 153.430889 220.467774 
L 153.609024 220.467774 
L 153.609024 219.414402 
L 153.820412 219.414402 
L 153.820412 218.887716 
L 153.959927 218.887716 
L 153.959927 218.36103 
L 154.201424 218.36103 
L 154.303908 215.727599 
L 154.371897 215.727599 
L 154.371897 215.200913 
L 154.507086 215.200913 
L 154.507086 214.674227 
L 154.641235 214.674227 
L 154.741174 212.040797 
L 154.906477 212.040797 
L 154.93935 208.88068 
L 155.070227 208.88068 
L 155.135299 207.300622 
L 155.264719 207.300622 
L 155.361158 204.140506 
L 155.488919 204.140506 
L 155.488919 203.613819 
L 155.61575 203.613819 
L 155.678822 198.346959 
L 155.741666 198.346959 
L 155.83551 191.50004 
L 155.86668 191.50004 
L 155.897793 189.393295 
L 156.021696 189.393295 
L 156.021696 187.813237 
L 156.144725 187.813237 
L 156.175347 186.233179 
L 156.266892 186.233179 
L 156.327657 185.179807 
L 156.508689 185.179807 
L 156.568618 180.439632 
L 156.687861 180.439632 
L 156.747178 178.332888 
L 156.806295 178.332888 
L 156.806295 177.279515 
L 156.923929 177.279515 
L 156.923929 174.646085 
L 157.300853 174.646085 
L 157.38669 172.012655 
L 157.415209 172.012655 
L 157.500487 165.692422 
L 157.528821 165.692422 
L 157.528821 164.63905 
L 157.697862 164.63905 
L 157.781772 160.952247 
L 157.809652 160.952247 
L 157.893028 159.898875 
L 157.94839 159.898875 
L 158.058592 156.738758 
L 158.331086 156.738758 
L 158.331086 154.105328 
L 158.465753 154.105328 
L 158.465753 153.051956 
L 158.915995 153.051956 
L 158.968208 146.205037 
L 159.201253 146.205037 
L 159.278248 140.938176 
L 159.380382 140.938176 
L 159.456591 136.724687 
L 159.582872 136.724687 
L 159.683242 133.564571 
L 159.783038 133.564571 
L 159.783038 131.984513 
L 159.956318 131.984513 
L 159.956318 129.877768 
L 160.127894 129.877768 
L 160.152267 127.771024 
L 160.418152 127.771024 
L 160.442124 125.137593 
L 160.680044 125.137593 
L 160.750792 123.030849 
L 160.844678 123.030849 
L 160.844678 120.397419 
L 160.961329 120.397419 
L 161.007772 117.763988 
L 161.077205 117.763988 
L 161.12334 114.603872 
L 161.215247 114.603872 
L 161.26102 111.443755 
L 161.374928 111.443755 
L 161.465522 109.337011 
L 161.488097 109.337011 
L 161.555647 105.650209 
L 161.689969 105.650209 
L 161.689969 105.123522 
L 161.801118 105.123522 
L 161.88953 103.543464 
L 161.933569 103.543464 
L 162.021314 101.43672 
L 162.065021 101.43672 
L 162.065021 95.643173 
L 162.238764 95.643173 
L 162.238764 94.063115 
L 162.474869 94.063115 
L 162.581141 93.009743 
L 162.602318 93.009743 
L 162.602318 91.95637 
L 162.728843 91.95637 
L 162.728843 91.429684 
L 162.9377 91.429684 
L 162.979172 88.796254 
L 163.082425 88.796254 
L 163.082425 85.636137 
L 163.205526 85.636137 
L 163.205526 83.529393 
L 163.368321 83.529393 
L 163.449152 80.895963 
L 163.50953 80.895963 
L 163.609699 77.20916 
L 163.669525 77.20916 
L 163.748975 73.522358 
L 163.808326 73.522358 
L 163.808326 69.308869 
L 164.043731 69.308869 
L 164.102088 68.255497 
L 164.276 68.255497 
L 164.314412 66.148752 
L 164.390984 66.148752 
L 164.390984 65.09538 
L 164.618704 65.09538 
L 164.618704 63.515322 
L 164.899235 63.515322 
L 165.010195 57.195089 
L 165.02862 57.195089 
L 165.02862 56.668403 
L 165.338904 56.668403 
L 165.447111 54.034973 
L 165.500963 54.034973 
L 165.608172 51.928228 
L 165.732422 51.928228 
L 165.7501 50.34817 
L 165.873346 50.34817 
L 165.890882 48.768112 
L 166.476842 48.768112 
L 166.544502 41.394507 
L 166.74592 41.394507 
L 166.74592 39.814448 
L 166.895472 39.814448 
L 166.96153 38.23439 
L 167.141909 38.23439 
L 167.141909 37.707704 
L 168.078792 37.707704 
L 168.155922 36.654332 
L 168.217383 36.654332 
L 168.217383 35.60096 
L 168.430803 35.60096 
L 168.430803 33.494215 
L 169.070439 33.494215 
L 169.070439 32.967529 
L 169.460402 32.967529 
L 169.460402 30.860785 
L 170.28336 30.860785 
L 170.28336 30.334099 
L 338.688 30.334099 
L 338.688 30.334099 
" style="fill:none;stroke:#00bfbf;stroke-linecap:square;stroke-width:1.5;"/>
   </g>
   <g id="line2d_31">
    <defs>
     <path d="M -6 0 
L 6 0 
M 0 6 
L 0 -6 
" id="me0de0f8313" style="stroke:#00bfbf;stroke-width:1.5;"/>
    </defs>
    <g>
     <use style="fill-opacity:0;stroke:#00bfbf;stroke-width:1.5;" x="126.338353" xlink:href="#me0de0f8313" y="278.403243"/>
     <use style="fill-opacity:0;stroke:#00bfbf;stroke-width:1.5;" x="161.26102" xlink:href="#me0de0f8313" y="113.023814"/>
     <use style="fill-opacity:0;stroke:#00bfbf;stroke-width:1.5;" x="170.28336" xlink:href="#me0de0f8313" y="30.860785"/>
     <use style="fill-opacity:0;stroke:#00bfbf;stroke-width:1.5;" x="170.28336" xlink:href="#me0de0f8313" y="30.334099"/>
     <use style="fill-opacity:0;stroke:#00bfbf;stroke-width:1.5;" x="338.688" xlink:href="#me0de0f8313" y="30.334099"/>
    </g>
   </g>
   <g id="line2d_32">
    <path style="fill:none;stroke:#00bfbf;stroke-linecap:square;stroke-width:1.5;"/>
    <g/>
   </g>
   <g id="line2d_33">
    <defs>
     <path d="M 0 1.5 
C 0.397805 1.5 0.77937 1.341951 1.06066 1.06066 
C 1.341951 0.77937 1.5 0.397805 1.5 0 
C 1.5 -0.397805 1.341951 -0.77937 1.06066 -1.06066 
C 0.77937 -1.341951 0.397805 -1.5 0 -1.5 
C -0.397805 -1.5 -0.77937 -1.341951 -1.06066 -1.06066 
C -1.341951 -0.77937 -1.5 -0.397805 -1.5 0 
C -1.5 0.397805 -1.341951 0.77937 -1.06066 1.06066 
C -0.77937 1.341951 -0.397805 1.5 0 1.5 
z
" id="m4b2166b552" style="stroke:#008000;"/>
    </defs>
    <g>
     <use style="fill:#008000;stroke:#008000;" x="179.744273" xlink:href="#m4b2166b552" y="30.334099"/>
     <use style="fill:#008000;stroke:#008000;" x="179.744273" xlink:href="#m4b2166b552" y="30.334099"/>
    </g>
   </g>
   <g id="line2d_34">
    <path d="M 111.239304 298.944 
L 111.239304 298.417314 
L 123.327293 298.417314 
L 123.327293 297.890628 
L 138.084384 297.890628 
L 138.084384 295.257197 
L 138.482688 295.257197 
L 138.482688 294.730511 
L 138.761723 294.730511 
L 138.761723 294.203825 
L 139.990725 294.203825 
L 140.042245 292.623767 
L 141.568232 292.623767 
L 141.568232 291.570395 
L 141.709062 291.570395 
L 141.709062 291.043709 
L 142.170445 291.043709 
L 142.261275 288.410278 
L 142.486301 288.410278 
L 142.486301 287.883592 
L 142.619936 287.883592 
L 142.619936 287.356906 
L 142.927826 287.356906 
L 142.927826 286.83022 
L 143.230373 286.83022 
L 143.230373 285.250162 
L 143.40093 285.250162 
L 143.40093 284.723476 
L 143.902815 284.723476 
L 143.902815 283.143418 
L 144.229555 283.143418 
L 144.229555 281.036673 
L 144.390658 281.036673 
L 144.390658 278.929929 
L 144.669057 278.929929 
L 144.669057 277.876557 
L 145.212864 277.876557 
L 145.212864 277.349871 
L 145.516164 277.349871 
L 145.516164 276.823185 
L 145.777292 276.823185 
L 145.777292 275.769812 
L 145.998045 275.769812 
L 146.071013 272.08301 
L 146.143677 272.08301 
L 146.216039 270.502952 
L 146.359869 270.502952 
L 146.395642 268.922893 
L 146.502522 268.922893 
L 146.538004 267.869521 
L 146.888907 267.869521 
L 146.888907 267.342835 
L 147.096109 267.342835 
L 147.096109 266.816149 
L 147.266916 266.816149 
L 147.266916 266.289463 
L 147.402367 266.289463 
L 147.436066 265.236091 
L 147.670154 265.236091 
L 147.70334 263.656033 
L 148.354135 263.656033 
L 148.417899 262.075974 
L 148.54473 262.075974 
L 148.607802 261.022602 
L 148.888835 261.022602 
L 148.888835 260.495916 
L 149.286939 260.495916 
L 149.286939 259.96923 
L 149.407627 259.96923 
L 149.407627 258.915858 
L 149.527485 258.915858 
L 149.527485 258.389172 
L 149.676158 258.389172 
L 149.676158 257.862486 
L 149.882194 257.862486 
L 149.882194 256.809114 
L 150.31567 256.809114 
L 150.372662 255.755741 
L 150.51433 255.755741 
L 150.51433 255.229055 
L 150.710752 255.229055 
L 150.710752 252.595625 
L 151.069768 252.595625 
L 151.124351 249.962195 
L 151.634543 249.962195 
L 151.660987 248.382136 
L 152.001148 248.382136 
L 152.001148 247.85545 
L 154.46214 247.85545 
L 154.46214 247.328764 
L 154.57429 247.328764 
L 154.57429 246.275392 
L 155.61575 246.275392 
L 155.61575 245.748706 
L 155.741666 245.748706 
L 155.741666 245.22202 
L 156.598505 245.22202 
L 156.598505 244.168648 
L 159.84099 244.168648 
L 159.84099 243.641962 
L 160.313893 243.641962 
L 160.313893 243.115275 
L 160.601097 243.115275 
L 160.601097 242.061903 
L 161.838011 242.061903 
L 161.838011 241.535217 
L 162.130378 241.535217 
L 162.130378 241.008531 
L 162.375093 241.008531 
L 162.375093 240.481845 
L 162.616422 240.481845 
L 162.616422 239.428473 
L 163.048075 239.428473 
L 163.048075 238.901787 
L 163.266752 238.901787 
L 163.266752 238.375101 
L 163.428979 238.375101 
L 163.44243 236.795043 
L 163.563025 236.795043 
L 163.616356 233.634926 
L 163.682792 233.634926 
L 163.709295 232.581554 
L 163.801742 232.581554 
L 163.8937 228.368065 
L 163.946031 228.368065 
L 164.011225 226.788007 
L 164.076176 226.788007 
L 164.140886 223.627891 
L 164.205356 223.627891 
L 164.256762 222.574518 
L 164.448194 222.574518 
L 164.524182 220.99446 
L 164.612418 220.99446 
L 164.612418 220.467774 
L 164.800007 220.467774 
L 164.874481 219.414402 
L 164.9363 219.414402 
L 165.047026 217.307658 
L 165.059286 217.307658 
L 165.157053 215.200913 
L 165.18141 215.200913 
L 165.18141 214.674227 
L 165.302685 214.674227 
L 165.399101 212.040797 
L 165.471066 212.040797 
L 165.566558 210.460738 
L 165.602233 210.460738 
L 165.637836 206.24725 
L 165.732422 206.24725 
L 165.803027 204.667192 
L 165.966667 204.667192 
L 166.059491 198.346959 
L 166.128786 198.346959 
L 166.151824 196.240214 
L 166.538873 196.240214 
L 166.639906 190.973354 
L 166.684622 190.973354 
L 166.7626 189.919981 
L 166.851294 189.919981 
L 166.950537 188.866609 
L 166.994465 188.866609 
L 167.071073 184.126434 
L 167.125588 184.126434 
L 167.234109 183.073062 
L 167.341959 183.073062 
L 167.449146 181.493004 
L 167.534424 181.493004 
L 167.608702 179.38626 
L 167.661564 179.38626 
L 167.756314 175.172771 
L 167.808732 175.172771 
L 167.902688 172.012655 
L 167.996141 172.012655 
L 168.089095 167.27248 
L 168.13025 167.27248 
L 168.181557 163.585677 
L 168.253135 163.585677 
L 168.324419 160.952247 
L 168.395414 160.952247 
L 168.405532 159.372189 
L 168.526499 159.372189 
L 168.636653 151.471897 
L 168.676537 151.471897 
L 168.746115 149.365153 
L 168.815417 149.365153 
L 168.913944 146.731723 
L 168.992367 146.731723 
L 168.992367 145.678351 
L 169.16754 145.678351 
L 169.264103 140.938176 
L 169.292968 140.938176 
L 169.302579 137.778059 
L 169.427043 137.778059 
L 169.493697 133.564571 
L 169.635673 133.564571 
L 169.729685 129.351082 
L 169.748427 129.351082 
L 169.776502 127.244338 
L 169.888352 127.244338 
L 169.981016 122.504163 
L 170.017944 122.504163 
L 170.07319 120.397419 
L 170.18316 120.397419 
L 170.28336 116.18393 
L 170.328715 116.18393 
L 170.40104 112.497128 
L 170.455087 112.497128 
L 170.491026 109.863697 
L 170.589478 109.863697 
L 170.589478 109.337011 
L 170.960352 109.337011 
L 171.030109 107.230267 
L 171.099589 107.230267 
L 171.099589 106.703581 
L 171.306381 106.703581 
L 171.374771 103.543464 
L 171.51075 103.543464 
L 171.603625 101.43672 
L 171.66247 101.43672 
L 171.712752 99.329976 
L 171.787903 99.329976 
L 171.862732 97.223231 
L 171.91244 97.223231 
L 171.978498 88.269568 
L 172.027878 88.269568 
L 172.12622 86.162824 
L 172.142557 86.162824 
L 172.224011 83.529393 
L 172.264595 83.529393 
L 172.369676 81.422649 
L 172.425997 81.422649 
L 172.482136 77.20916 
L 172.649478 77.20916 
L 172.720707 75.629102 
L 172.854463 75.629102 
L 172.909242 73.522358 
L 172.97942 73.522358 
L 173.072554 69.835555 
L 173.295595 69.835555 
L 173.371849 67.728811 
L 173.417442 67.728811 
L 173.417442 66.675439 
L 173.568564 66.675439 
L 173.636143 65.622066 
L 173.777957 65.622066 
L 173.777957 65.09538 
L 173.911252 65.09538 
L 173.984866 62.988636 
L 174.087407 62.988636 
L 174.189349 61.408578 
L 174.26903 61.408578 
L 174.377103 59.301833 
L 174.48451 59.301833 
L 174.48451 58.775147 
L 174.598353 58.775147 
L 174.647927 57.721775 
L 174.830834 57.721775 
L 174.893703 56.141717 
L 174.977178 56.141717 
L 175.046437 54.034973 
L 175.184134 54.034973 
L 175.259407 51.401542 
L 175.415753 51.401542 
L 175.476552 50.34817 
L 175.671032 50.34817 
L 175.77078 48.241426 
L 175.88973 48.241426 
L 175.88973 47.71474 
L 176.007874 47.71474 
L 176.007874 47.188054 
L 176.177125 47.188054 
L 176.177125 46.661368 
L 176.338333 46.661368 
L 176.351165 45.081309 
L 176.510779 45.081309 
L 176.510779 44.554623 
L 176.643735 44.554623 
L 176.643735 44.027937 
L 176.869327 44.027937 
L 176.912855 42.447879 
L 176.999587 42.447879 
L 177.092038 39.287762 
L 177.220651 39.287762 
L 177.220651 38.761076 
L 177.420861 38.761076 
L 177.463036 37.181018 
L 177.861631 37.181018 
L 177.861631 35.074274 
L 178.491235 35.074274 
L 178.491235 34.547588 
L 178.609966 34.547588 
L 178.688673 32.967529 
L 179.251636 32.967529 
L 179.300447 30.860785 
L 179.744273 30.860785 
L 179.744273 30.334099 
L 338.688 30.334099 
L 338.688 30.334099 
" style="fill:none;stroke:#008000;stroke-linecap:square;stroke-width:1.5;"/>
   </g>
   <g id="line2d_35">
    <defs>
     <path d="M -0 6 
L 6 -6 
L -6 -6 
z
" id="m1306d223fb" style="stroke:#008000;stroke-linejoin:miter;stroke-width:1.5;"/>
    </defs>
    <g>
     <use style="fill-opacity:0;stroke:#008000;stroke-linejoin:miter;stroke-width:1.5;" x="164.140886" xlink:href="#m1306d223fb" y="224.154577"/>
     <use style="fill-opacity:0;stroke:#008000;stroke-linejoin:miter;stroke-width:1.5;" x="179.744273" xlink:href="#m1306d223fb" y="30.860785"/>
     <use style="fill-opacity:0;stroke:#008000;stroke-linejoin:miter;stroke-width:1.5;" x="179.744273" xlink:href="#m1306d223fb" y="30.334099"/>
     <use style="fill-opacity:0;stroke:#008000;stroke-linejoin:miter;stroke-width:1.5;" x="179.744273" xlink:href="#m1306d223fb" y="30.334099"/>
     <use style="fill-opacity:0;stroke:#008000;stroke-linejoin:miter;stroke-width:1.5;" x="338.688" xlink:href="#m1306d223fb" y="30.334099"/>
    </g>
   </g>
   <g id="line2d_36">
    <path style="fill:none;stroke:#008000;stroke-linecap:square;stroke-width:1.5;"/>
    <g/>
   </g>
   <g id="line2d_37">
    <defs>
     <path d="M 0 1.5 
C 0.397805 1.5 0.77937 1.341951 1.06066 1.06066 
C 1.341951 0.77937 1.5 0.397805 1.5 0 
C 1.5 -0.397805 1.341951 -0.77937 1.06066 -1.06066 
C 0.77937 -1.341951 0.397805 -1.5 0 -1.5 
C -0.397805 -1.5 -0.77937 -1.341951 -1.06066 -1.06066 
C -1.341951 -0.77937 -1.5 -0.397805 -1.5 0 
C -1.5 0.397805 -1.341951 0.77937 -1.06066 1.06066 
C -0.77937 1.341951 -0.397805 1.5 0 1.5 
z
" id="m331b58e9a6" style="stroke:#0000ff;"/>
    </defs>
    <g>
     <use style="fill:#0000ff;stroke:#0000ff;" x="177.358012" xlink:href="#m331b58e9a6" y="30.334099"/>
     <use style="fill:#0000ff;stroke:#0000ff;" x="177.358012" xlink:href="#m331b58e9a6" y="30.334099"/>
    </g>
   </g>
   <g id="line2d_38">
    <path d="M 142.486301 298.944 
L 142.486301 298.417314 
L 142.673105 298.417314 
L 142.673105 297.363942 
L 142.884173 297.363942 
L 142.884173 296.837256 
L 144.001481 296.837256 
L 144.001481 296.31057 
L 144.221461 296.31057 
L 144.294175 293.150453 
L 144.486611 293.150453 
L 144.486611 292.623767 
L 145.074639 292.623767 
L 145.074639 292.097081 
L 145.531191 292.097081 
L 145.531191 291.570395 
L 146.978997 291.570395 
L 146.978997 291.043709 
L 148.258051 291.043709 
L 148.258051 290.517023 
L 148.770728 290.517023 
L 148.770728 289.990337 
L 148.919783 289.990337 
L 148.919783 289.463651 
L 149.305096 289.463651 
L 149.305096 288.936964 
L 149.539426 288.936964 
L 149.539426 288.410278 
L 149.735275 288.410278 
L 149.735275 287.883592 
L 150.068464 287.883592 
L 150.068464 286.83022 
L 150.258492 286.83022 
L 150.258492 286.303534 
L 150.446473 286.303534 
L 150.463462 285.250162 
L 150.816462 285.250162 
L 150.833094 283.670104 
L 151.517715 283.670104 
L 151.517715 283.143418 
L 151.724287 283.143418 
L 151.724287 282.616732 
L 152.052897 282.616732 
L 152.130233 281.563359 
L 152.207228 281.563359 
L 152.207228 281.036673 
L 152.329717 281.036673 
L 152.344968 279.456615 
L 153.178403 279.456615 
L 153.178403 278.929929 
L 153.566437 278.929929 
L 153.566437 278.403243 
L 153.946025 278.403243 
L 153.973817 277.349871 
L 154.084543 277.349871 
L 154.084543 276.296499 
L 154.317527 276.296499 
L 154.385464 275.243126 
L 154.85375 275.243126 
L 154.959044 273.663068 
L 155.011454 273.663068 
L 155.063706 272.609696 
L 155.167744 272.609696 
L 155.206599 271.556324 
L 156.370066 271.556324 
L 156.370066 271.029638 
L 157.460743 271.029638 
L 157.460743 270.502952 
L 157.697862 270.502952 
L 157.697862 269.976266 
L 157.9318 269.976266 
L 157.9318 268.396207 
L 158.064083 268.396207 
L 158.096998 267.342835 
L 158.228039 267.342835 
L 158.238915 266.289463 
L 158.412011 266.289463 
L 158.412011 265.762777 
L 158.562073 265.762777 
L 158.583406 264.709405 
L 158.753132 264.709405 
L 158.784773 263.656033 
L 158.879352 263.656033 
L 158.962994 262.60266 
L 159.056614 262.60266 
L 159.16005 261.549288 
L 159.252621 261.549288 
L 159.344703 259.442544 
L 159.507213 259.442544 
L 159.577838 257.862486 
L 159.648178 257.862486 
L 159.748174 256.282427 
L 159.956318 256.282427 
L 159.956318 255.755741 
L 160.074152 255.755741 
L 160.074152 255.229055 
L 160.422949 255.229055 
L 160.422949 254.702369 
L 160.651664 254.702369 
L 160.651664 254.175683 
L 160.86807 254.175683 
L 160.914762 252.595625 
L 161.21983 252.595625 
L 161.256448 251.542253 
L 161.384008 251.542253 
L 161.384008 251.015567 
L 161.546656 251.015567 
L 161.636364 249.435508 
L 161.672119 249.435508 
L 161.672119 248.908822 
L 161.796686 248.908822 
L 161.814408 247.328764 
L 162.016937 247.328764 
L 162.016937 246.802078 
L 162.165135 246.802078 
L 162.234442 245.22202 
L 162.303474 245.22202 
L 162.372234 244.168648 
L 162.491916 244.168648 
L 162.593851 242.588589 
L 162.712026 242.588589 
L 162.79595 241.008531 
L 162.912768 241.008531 
L 162.979172 239.955159 
L 163.037069 239.955159 
L 163.037069 238.901787 
L 163.17688 238.901787 
L 163.201437 237.321729 
L 163.299319 237.321729 
L 163.307451 236.268356 
L 163.412824 236.268356 
L 163.420904 234.688298 
L 163.565696 234.688298 
L 163.565696 234.161612 
L 163.677486 234.161612 
L 163.677486 233.10824 
L 163.804376 233.10824 
L 163.906798 231.001496 
L 164.039833 231.001496 
L 164.055418 229.948123 
L 164.171861 229.948123 
L 164.256762 228.368065 
L 164.295217 228.368065 
L 164.402441 223.627891 
L 164.562052 223.627891 
L 164.607388 222.574518 
L 164.75018 222.574518 
L 164.802494 219.941088 
L 164.965896 219.941088 
L 165.032303 215.200913 
L 165.113126 215.200913 
L 165.186277 213.620855 
L 165.251852 213.620855 
L 165.360599 211.514111 
L 165.432722 211.514111 
L 165.526038 208.353994 
L 165.59035 208.353994 
L 165.59035 207.827308 
L 165.732422 207.827308 
L 165.732422 206.773936 
L 165.845252 206.773936 
L 165.929399 205.193878 
L 166.006178 205.193878 
L 166.089553 204.140506 
L 166.124175 204.140506 
L 166.220754 200.980389 
L 166.268843 200.980389 
L 166.316801 198.873645 
L 166.432722 198.873645 
L 166.520851 196.7669 
L 166.568121 196.7669 
L 166.668984 195.713528 
L 166.729224 195.713528 
L 166.835805 193.080098 
L 166.849082 193.080098 
L 166.928532 189.919981 
L 167.11252 189.919981 
L 167.223287 188.339923 
L 167.301055 188.339923 
L 167.404208 185.706493 
L 167.417059 185.706493 
L 167.506754 178.859574 
L 167.583271 178.859574 
L 167.583271 178.332888 
L 167.76681 178.332888 
L 167.860992 177.279515 
L 167.911015 177.279515 
L 167.960895 176.226143 
L 168.041647 176.226143 
L 168.128195 174.119399 
L 168.208177 174.119399 
L 168.306117 167.27248 
L 168.391365 167.27248 
L 168.458054 163.585677 
L 168.548585 163.585677 
L 168.632659 162.005619 
L 168.740162 162.005619 
L 168.835167 159.372189 
L 168.882476 159.372189 
L 168.923766 157.265444 
L 168.994323 157.265444 
L 169.047054 153.578642 
L 169.122941 153.578642 
L 169.221681 151.471897 
L 169.291045 151.471897 
L 169.394577 148.311781 
L 169.525979 148.311781 
L 169.560096 146.731723 
L 169.707168 146.731723 
L 169.802665 145.151665 
L 169.847424 145.151665 
L 169.903212 140.938176 
L 170.113593 140.938176 
L 170.201421 137.251373 
L 170.261547 137.251373 
L 170.332339 133.564571 
L 170.37576 133.564571 
L 170.462281 131.457826 
L 170.526891 131.457826 
L 170.575192 128.29771 
L 170.676723 128.29771 
L 170.682051 127.244338 
L 170.88856 127.244338 
L 170.977818 125.66428 
L 171.014438 125.66428 
L 171.097855 123.030849 
L 171.222237 123.030849 
L 171.294385 119.870733 
L 171.335479 119.870733 
L 171.345738 118.290674 
L 171.498894 118.290674 
L 171.590146 116.18393 
L 171.67086 116.18393 
L 171.751203 114.603872 
L 171.80123 114.603872 
L 171.910786 113.023814 
L 171.955406 113.023814 
L 171.990033 111.443755 
L 172.068921 111.443755 
L 172.171924 106.703581 
L 172.211004 106.703581 
L 172.245127 104.596836 
L 172.322872 104.596836 
L 172.380955 101.963406 
L 172.472525 101.963406 
L 172.544479 99.856662 
L 172.620905 99.856662 
L 172.649478 97.749917 
L 172.763306 97.749917 
L 172.791647 96.696545 
L 172.913929 96.696545 
L 172.913929 95.116487 
L 173.151329 95.116487 
L 173.238952 93.009743 
L 173.3124 93.009743 
L 173.408333 88.796254 
L 173.503742 88.796254 
L 173.539951 87.216196 
L 173.616647 87.216196 
L 173.684041 85.636137 
L 173.746708 85.636137 
L 173.82695 84.056079 
L 173.889107 84.056079 
L 173.973109 81.422649 
L 174.039142 81.422649 
L 174.083025 77.735846 
L 174.305129 77.735846 
L 174.400072 73.522358 
L 174.455933 73.522358 
L 174.52444 71.942299 
L 174.588422 71.942299 
L 174.60119 69.308869 
L 174.774759 69.308869 
L 174.833633 68.255497 
L 174.917395 68.255497 
L 175.021535 61.935264 
L 175.02984 61.935264 
L 175.129186 59.301833 
L 175.158055 59.301833 
L 175.260772 56.141717 
L 175.480598 56.141717 
L 175.577416 52.9816 
L 175.601537 52.9816 
L 175.681699 48.768112 
L 175.713661 48.768112 
L 175.785362 47.188054 
L 175.840927 47.188054 
L 175.939711 44.554623 
L 176.03402 44.554623 
L 176.139511 42.974565 
L 176.217244 42.974565 
L 176.313925 40.341135 
L 176.383205 40.341135 
L 176.43307 36.654332 
L 176.505694 36.654332 
L 176.604586 35.60096 
L 176.627328 35.60096 
L 176.736832 34.020902 
L 176.96123 34.020902 
L 176.96123 33.494215 
L 177.094497 33.494215 
L 177.190115 32.440843 
L 177.212107 32.440843 
L 177.215769 31.387471 
L 177.328929 31.387471 
L 177.358012 30.334099 
L 338.688 30.334099 
L 338.688 30.334099 
" style="fill:none;stroke:#0000ff;stroke-linecap:square;stroke-width:1.5;"/>
   </g>
   <g id="line2d_39">
    <defs>
     <path d="M 0 -6 
L -1.347084 -1.854102 
L -5.706339 -1.854102 
L -2.179628 0.708204 
L -3.526712 4.854102 
L -0 2.291796 
L 3.526712 4.854102 
L 2.179628 0.708204 
L 5.706339 -1.854102 
L 1.347084 -1.854102 
z
" id="m95b477e5df" style="stroke:#0000ff;stroke-linejoin:bevel;stroke-width:1.5;"/>
    </defs>
    <g>
     <use style="fill-opacity:0;stroke:#0000ff;stroke-linejoin:bevel;stroke-width:1.5;" x="167.911015" xlink:href="#m95b477e5df" y="176.752829"/>
     <use style="fill-opacity:0;stroke:#0000ff;stroke-linejoin:bevel;stroke-width:1.5;" x="177.358012" xlink:href="#m95b477e5df" y="30.860785"/>
     <use style="fill-opacity:0;stroke:#0000ff;stroke-linejoin:bevel;stroke-width:1.5;" x="177.358012" xlink:href="#m95b477e5df" y="30.334099"/>
     <use style="fill-opacity:0;stroke:#0000ff;stroke-linejoin:bevel;stroke-width:1.5;" x="177.358012" xlink:href="#m95b477e5df" y="30.334099"/>
     <use style="fill-opacity:0;stroke:#0000ff;stroke-linejoin:bevel;stroke-width:1.5;" x="338.688" xlink:href="#m95b477e5df" y="30.334099"/>
    </g>
   </g>
   <g id="line2d_40">
    <path style="fill:none;stroke:#0000ff;stroke-linecap:square;stroke-width:1.5;"/>
    <g/>
   </g>
   <g id="line2d_41">
    <defs>
     <path d="M 0 1.5 
C 0.397805 1.5 0.77937 1.341951 1.06066 1.06066 
C 1.341951 0.77937 1.5 0.397805 1.5 0 
C 1.5 -0.397805 1.341951 -0.77937 1.06066 -1.06066 
C 0.77937 -1.341951 0.397805 -1.5 0 -1.5 
C -0.397805 -1.5 -0.77937 -1.341951 -1.06066 -1.06066 
C -1.341951 -0.77937 -1.5 -0.397805 -1.5 0 
C -1.5 0.397805 -1.341951 0.77937 -1.06066 1.06066 
C -0.77937 1.341951 -0.397805 1.5 0 1.5 
z
" id="m6572e5ba79" style="stroke:#000000;"/>
    </defs>
    <g>
     <use style="stroke:#000000;" x="182.041257" xlink:href="#m6572e5ba79" y="30.334099"/>
     <use style="stroke:#000000;" x="182.041257" xlink:href="#m6572e5ba79" y="30.334099"/>
    </g>
   </g>
   <g id="line2d_42">
    <path d="M 154.667942 298.944 
L 154.667942 298.417314 
L 155.174226 298.417314 
L 155.174226 297.890628 
L 155.30979 297.890628 
L 155.367568 296.837256 
L 155.55879 296.837256 
L 155.55879 296.31057 
L 155.678822 296.31057 
L 155.685117 295.257197 
L 155.953659 295.257197 
L 155.953659 294.730511 
L 156.364014 294.730511 
L 156.400295 293.677139 
L 156.664077 293.677139 
L 156.664077 293.150453 
L 157.093102 293.150453 
L 157.133693 292.097081 
L 158.449648 292.097081 
L 158.530025 291.043709 
L 158.811096 291.043709 
L 158.895065 289.990337 
L 158.962994 289.990337 
L 158.962994 289.463651 
L 159.862466 289.463651 
L 159.862466 288.936964 
L 160.698938 288.936964 
L 160.698938 288.410278 
L 160.961329 288.410278 
L 160.961329 287.883592 
L 161.173949 287.883592 
L 161.173949 287.356906 
L 161.356752 287.356906 
L 161.451963 286.303534 
L 161.618459 286.303534 
L 161.627414 285.250162 
L 161.801118 285.250162 
L 161.823263 284.19679 
L 162.095552 284.19679 
L 162.095552 283.670104 
L 162.247406 283.670104 
L 162.247406 283.143418 
L 162.385097 283.143418 
L 162.423627 282.090045 
L 162.682557 282.090045 
L 162.682557 281.563359 
L 162.891965 281.563359 
L 162.891965 281.036673 
L 163.408783 281.036673 
L 163.473328 279.983301 
L 163.597709 279.983301 
L 163.681466 278.929929 
L 163.752938 278.929929 
L 163.839898 277.349871 
L 164.195057 277.349871 
L 164.195057 276.823185 
L 164.387164 276.823185 
L 164.387164 276.296499 
L 164.98806 276.296499 
L 164.98806 275.769812 
L 165.124118 275.769812 
L 165.124118 275.243126 
L 165.490206 275.243126 
L 165.490206 274.71644 
L 165.841738 274.71644 
L 165.841738 274.189754 
L 166.261982 274.189754 
L 166.261982 273.663068 
L 166.391896 273.663068 
L 166.391896 273.136382 
L 166.547878 273.136382 
L 166.6119 272.08301 
L 167.099442 272.08301 
L 167.099442 271.556324 
L 167.291353 271.556324 
L 167.346259 270.502952 
L 167.497166 270.502952 
L 167.548242 269.449579 
L 167.687935 269.449579 
L 167.776251 268.396207 
L 167.926618 268.396207 
L 167.926618 267.869521 
L 168.054037 267.869521 
L 168.054037 267.342835 
L 168.272512 267.342835 
L 168.318321 266.289463 
L 168.448975 266.289463 
L 168.494323 265.236091 
L 168.677533 265.236091 
L 168.722291 263.656033 
L 168.832206 263.656033 
L 168.914927 262.60266 
L 168.95908 262.60266 
L 169.011918 261.022602 
L 169.192698 261.022602 
L 169.230367 259.96923 
L 169.319866 259.96923 
L 169.363007 258.389172 
L 169.437534 258.389172 
L 169.537359 256.809114 
L 169.551573 256.809114 
L 169.562936 255.755741 
L 169.763406 255.755741 
L 169.827856 253.648997 
L 170.000413 253.648997 
L 170.066754 251.542253 
L 170.132843 251.542253 
L 170.176764 249.435508 
L 170.272457 249.435508 
L 170.340488 248.382136 
L 170.440691 248.382136 
L 170.521516 247.328764 
L 170.559106 247.328764 
L 170.559106 246.802078 
L 170.682051 246.802078 
L 170.785611 244.168648 
L 170.951613 244.168648 
L 170.951613 243.641962 
L 171.873514 243.641962 
L 171.873514 243.115275 
L 172.095957 243.115275 
L 172.095957 242.588589 
L 172.337411 242.588589 
L 172.337411 242.061903 
L 172.620905 242.061903 
L 172.620905 241.535217 
L 173.199806 241.535217 
L 173.199806 241.008531 
L 173.31698 241.008531 
L 173.426547 238.901787 
L 173.478804 238.901787 
L 173.478804 238.375101 
L 173.594124 238.375101 
L 173.594124 237.848415 
L 173.713164 237.848415 
L 173.737769 236.795043 
L 173.957665 236.795043 
L 173.957665 236.268356 
L 174.072065 236.268356 
L 174.177002 235.214984 
L 174.218366 235.214984 
L 174.307293 233.10824 
L 174.415129 233.10824 
L 174.522303 231.528182 
L 174.543659 231.528182 
L 174.616074 229.421437 
L 174.66913 229.421437 
L 174.774759 226.788007 
L 174.818933 226.788007 
L 174.923661 223.101204 
L 174.934099 223.101204 
L 175.031915 218.887716 
L 175.110601 218.887716 
L 175.213598 214.674227 
L 175.225916 214.674227 
L 175.318031 212.567483 
L 175.340474 212.567483 
L 175.411692 208.353994 
L 175.458335 208.353994 
L 175.555276 204.140506 
L 175.571381 204.140506 
L 175.681699 196.7669 
L 175.699685 196.7669 
L 175.807212 191.50004 
L 175.827052 191.50004 
L 175.925915 188.339923 
L 175.957432 188.339923 
L 176.049688 181.493004 
L 176.077075 181.493004 
L 176.15314 176.752829 
L 176.207546 176.752829 
L 176.317781 170.959282 
L 176.329344 170.959282 
L 176.423492 166.219108 
L 176.465597 166.219108 
L 176.576117 156.212072 
L 176.589409 156.212072 
L 176.69915 151.998584 
L 176.708578 151.998584 
L 176.753762 149.365153 
L 176.82132 149.365153 
L 176.931477 144.624978 
L 176.951938 144.624978 
L 177.044641 137.778059 
L 177.063123 137.778059 
L 177.16626 129.877768 
L 177.179109 129.877768 
L 177.285212 124.610907 
L 177.294329 124.610907 
L 177.392486 118.290674 
L 177.410603 118.290674 
L 177.518911 110.917069 
L 177.536897 110.917069 
L 177.644425 101.963406 
L 177.653356 101.963406 
L 177.76372 98.276603 
L 177.804485 98.276603 
L 177.894538 90.376312 
L 177.927968 90.376312 
L 178.03312 86.162824 
L 178.050583 86.162824 
L 178.155 81.422649 
L 178.205245 81.422649 
L 178.310462 77.735846 
L 178.358547 77.735846 
L 178.464551 72.995672 
L 178.503711 72.995672 
L 178.61053 68.782183 
L 178.635866 68.782183 
L 178.704933 67.202125 
L 178.768702 67.202125 
L 178.877244 64.568694 
L 178.895546 64.568694 
L 178.956967 61.935264 
L 179.011565 61.935264 
L 179.087389 56.141717 
L 179.133381 56.141717 
L 179.234791 53.508287 
L 179.296656 53.508287 
L 179.366397 50.34817 
L 179.424571 50.34817 
L 179.532325 48.241426 
L 179.562762 48.241426 
L 179.67285 45.607995 
L 179.67921 45.607995 
L 179.68239 44.554623 
L 179.793307 44.554623 
L 179.840628 43.501251 
L 179.997443 43.501251 
L 180.062887 42.447879 
L 180.217725 42.447879 
L 180.316104 41.394507 
L 180.403259 41.394507 
L 180.403259 40.867821 
L 180.549068 40.867821 
L 180.549068 40.341135 
L 180.729632 40.341135 
L 180.729632 39.814448 
L 180.853437 39.814448 
L 180.853437 39.287762 
L 180.992596 39.287762 
L 181.027949 38.23439 
L 181.124802 38.23439 
L 181.218209 37.181018 
L 181.290836 37.181018 
L 181.303877 36.127646 
L 181.420808 36.127646 
L 181.420808 35.60096 
L 181.578358 35.60096 
L 181.673628 34.547588 
L 181.720361 34.547588 
L 181.762738 32.967529 
L 181.833137 32.967529 
L 181.910249 31.914157 
L 182.014856 31.914157 
L 182.041257 30.334099 
L 338.688 30.334099 
L 338.688 30.334099 
" style="fill:none;stroke:#000000;stroke-linecap:square;stroke-width:1.5;"/>
   </g>
   <g id="line2d_43">
    <defs>
     <path d="M 0 6 
C 1.591219 6 3.117479 5.367802 4.242641 4.242641 
C 5.367802 3.117479 6 1.591219 6 0 
C 6 -1.591219 5.367802 -3.117479 4.242641 -4.242641 
C 3.117479 -5.367802 1.591219 -6 0 -6 
C -1.591219 -6 -3.117479 -5.367802 -4.242641 -4.242641 
C -5.367802 -3.117479 -6 -1.591219 -6 0 
C -6 1.591219 -5.367802 3.117479 -4.242641 4.242641 
C -3.117479 5.367802 -1.591219 6 0 6 
z
" id="m61bdf3faf3" style="stroke:#000000;stroke-width:1.5;"/>
    </defs>
    <g>
     <use style="fill-opacity:0;stroke:#000000;stroke-width:1.5;" x="182.041257" xlink:href="#m61bdf3faf3" y="31.387471"/>
     <use style="fill-opacity:0;stroke:#000000;stroke-width:1.5;" x="182.041257" xlink:href="#m61bdf3faf3" y="30.334099"/>
     <use style="fill-opacity:0;stroke:#000000;stroke-width:1.5;" x="182.041257" xlink:href="#m61bdf3faf3" y="30.334099"/>
     <use style="fill-opacity:0;stroke:#000000;stroke-width:1.5;" x="338.688" xlink:href="#m61bdf3faf3" y="30.334099"/>
    </g>
   </g>
   <g id="line2d_44">
    <path style="fill:none;stroke:#000000;stroke-linecap:square;stroke-width:1.5;"/>
    <g/>
   </g>
   <g id="line2d_45">
    <path d="M 338.688 30.334099 
L 369.60768 293.571802 
" style="fill:none;stroke:#000000;stroke-linecap:square;stroke-width:1.5;"/>
    <g>
     <use style="fill-opacity:0;stroke:#000000;stroke-width:1.5;" x="338.688" xlink:href="#m61bdf3faf3" y="30.334099"/>
     <use style="fill-opacity:0;stroke:#000000;stroke-width:1.5;" x="369.60768" xlink:href="#m61bdf3faf3" y="293.571802"/>
    </g>
   </g>
   <g id="line2d_46">
    <path d="M 338.688 30.334099 
L 369.60768 207.616634 
" style="fill:none;stroke:#008000;stroke-linecap:square;stroke-width:1.5;"/>
    <g>
     <use style="fill-opacity:0;stroke:#008000;stroke-linejoin:miter;stroke-width:1.5;" x="338.688" xlink:href="#m1306d223fb" y="30.334099"/>
     <use style="fill-opacity:0;stroke:#008000;stroke-linejoin:miter;stroke-width:1.5;" x="369.60768" xlink:href="#m1306d223fb" y="207.616634"/>
    </g>
   </g>
   <g id="line2d_47">
    <path d="M 338.688 30.334099 
L 369.60768 121.661465 
" style="fill:none;stroke:#0000ff;stroke-linecap:square;stroke-width:1.5;"/>
    <g>
     <use style="fill-opacity:0;stroke:#0000ff;stroke-linejoin:bevel;stroke-width:1.5;" x="338.688" xlink:href="#m95b477e5df" y="30.334099"/>
     <use style="fill-opacity:0;stroke:#0000ff;stroke-linejoin:bevel;stroke-width:1.5;" x="369.60768" xlink:href="#m95b477e5df" y="121.661465"/>
    </g>
   </g>
   <g id="line2d_48">
    <path d="M 338.688 30.334099 
L 369.60768 35.706297 
" style="fill:none;stroke:#00bfbf;stroke-linecap:square;stroke-width:1.5;"/>
    <g>
     <use style="fill-opacity:0;stroke:#00bfbf;stroke-width:1.5;" x="338.688" xlink:href="#me0de0f8313" y="30.334099"/>
     <use style="fill-opacity:0;stroke:#00bfbf;stroke-width:1.5;" x="369.60768" xlink:href="#me0de0f8313" y="35.706297"/>
    </g>
   </g>
   <g id="line2d_49">
    <path d="M 338.688 298.944 
L 338.688 30.334099 
" style="fill:none;stroke:#000000;stroke-linecap:square;stroke-width:1.5;"/>
   </g>
   <g id="patch_3">
    <path d="M 57.6 298.944 
L 57.6 27.648 
" style="fill:none;stroke:#000000;stroke-linecap:square;stroke-linejoin:miter;stroke-width:0.8;"/>
   </g>
   <g id="patch_4">
    <path d="M 338.688 298.944 
L 338.688 27.648 
" style="fill:none;stroke:#000000;stroke-linecap:square;stroke-linejoin:miter;stroke-width:0.8;"/>
   </g>
   <g id="patch_5">
    <path d="M 57.6 298.944 
L 338.688 298.944 
" style="fill:none;stroke:#000000;stroke-linecap:square;stroke-linejoin:miter;stroke-width:0.8;"/>
   </g>
   <g id="patch_6">
    <path d="M 57.6 27.648 
L 338.688 27.648 
" style="fill:none;stroke:#000000;stroke-linecap:square;stroke-linejoin:miter;stroke-width:0.8;"/>
   </g>
   <g id="text_13">
    <!-- 10-D -->
    <g transform="translate(375.22944 298.262739)scale(0.17 -0.17)">
     <defs>
      <path d="M 19.671875 64.796875 
L 19.671875 8.109375 
L 31.59375 8.109375 
Q 46.6875 8.109375 53.6875 14.9375 
Q 60.6875 21.78125 60.6875 36.53125 
Q 60.6875 51.171875 53.6875 57.984375 
Q 46.6875 64.796875 31.59375 64.796875 
z
M 9.8125 72.90625 
L 30.078125 72.90625 
Q 51.265625 72.90625 61.171875 64.09375 
Q 71.09375 55.28125 71.09375 36.53125 
Q 71.09375 17.671875 61.125 8.828125 
Q 51.171875 0 30.078125 0 
L 9.8125 0 
z
" id="DejaVuSans-68"/>
     </defs>
     <use xlink:href="#DejaVuSans-49"/>
     <use x="63.623047" xlink:href="#DejaVuSans-48"/>
     <use x="127.246094" xlink:href="#DejaVuSans-45"/>
     <use x="163.330078" xlink:href="#DejaVuSans-68"/>
    </g>
   </g>
   <g id="text_14">
    <!-- 3-D -->
    <g transform="translate(375.22944 212.307571)scale(0.17 -0.17)">
     <defs>
      <path d="M 40.578125 39.3125 
Q 47.65625 37.796875 51.625 33 
Q 55.609375 28.21875 55.609375 21.1875 
Q 55.609375 10.40625 48.1875 4.484375 
Q 40.765625 -1.421875 27.09375 -1.421875 
Q 22.515625 -1.421875 17.65625 -0.515625 
Q 12.796875 0.390625 7.625 2.203125 
L 7.625 11.71875 
Q 11.71875 9.328125 16.59375 8.109375 
Q 21.484375 6.890625 26.8125 6.890625 
Q 36.078125 6.890625 40.9375 10.546875 
Q 45.796875 14.203125 45.796875 21.1875 
Q 45.796875 27.640625 41.28125 31.265625 
Q 36.765625 34.90625 28.71875 34.90625 
L 20.21875 34.90625 
L 20.21875 43.015625 
L 29.109375 43.015625 
Q 36.375 43.015625 40.234375 45.921875 
Q 44.09375 48.828125 44.09375 54.296875 
Q 44.09375 59.90625 40.109375 62.90625 
Q 36.140625 65.921875 28.71875 65.921875 
Q 24.65625 65.921875 20.015625 65.03125 
Q 15.375 64.15625 9.8125 62.3125 
L 9.8125 71.09375 
Q 15.4375 72.65625 20.34375 73.4375 
Q 25.25 74.21875 29.59375 74.21875 
Q 40.828125 74.21875 47.359375 69.109375 
Q 53.90625 64.015625 53.90625 55.328125 
Q 53.90625 49.265625 50.4375 45.09375 
Q 46.96875 40.921875 40.578125 39.3125 
z
" id="DejaVuSans-51"/>
     </defs>
     <use xlink:href="#DejaVuSans-51"/>
     <use x="63.623047" xlink:href="#DejaVuSans-45"/>
     <use x="99.707031" xlink:href="#DejaVuSans-68"/>
    </g>
   </g>
   <g id="text_15">
    <!-- 5-D -->
    <g transform="translate(375.22944 126.352403)scale(0.17 -0.17)">
     <defs>
      <path d="M 10.796875 72.90625 
L 49.515625 72.90625 
L 49.515625 64.59375 
L 19.828125 64.59375 
L 19.828125 46.734375 
Q 21.96875 47.46875 24.109375 47.828125 
Q 26.265625 48.1875 28.421875 48.1875 
Q 40.625 48.1875 47.75 41.5 
Q 54.890625 34.8125 54.890625 23.390625 
Q 54.890625 11.625 47.5625 5.09375 
Q 40.234375 -1.421875 26.90625 -1.421875 
Q 22.3125 -1.421875 17.546875 -0.640625 
Q 12.796875 0.140625 7.71875 1.703125 
L 7.71875 11.625 
Q 12.109375 9.234375 16.796875 8.0625 
Q 21.484375 6.890625 26.703125 6.890625 
Q 35.15625 6.890625 40.078125 11.328125 
Q 45.015625 15.765625 45.015625 23.390625 
Q 45.015625 31 40.078125 35.4375 
Q 35.15625 39.890625 26.703125 39.890625 
Q 22.75 39.890625 18.8125 39.015625 
Q 14.890625 38.140625 10.796875 36.28125 
z
" id="DejaVuSans-53"/>
     </defs>
     <use xlink:href="#DejaVuSans-53"/>
     <use x="63.623047" xlink:href="#DejaVuSans-45"/>
     <use x="99.707031" xlink:href="#DejaVuSans-68"/>
    </g>
   </g>
   <g id="text_16">
    <!-- 2-D -->
    <g transform="translate(375.22944 40.397235)scale(0.17 -0.17)">
     <use xlink:href="#DejaVuSans-50"/>
     <use x="63.623047" xlink:href="#DejaVuSans-45"/>
     <use x="99.707031" xlink:href="#DejaVuSans-68"/>
    </g>
   </g>
   <g id="text_17">
    <!-- bbob f2 -->
    <g transform="translate(60.41088 38.111366)scale(0.102 -0.102)">
     <defs>
      <path d="M 48.6875 27.296875 
Q 48.6875 37.203125 44.609375 42.84375 
Q 40.53125 48.484375 33.40625 48.484375 
Q 26.265625 48.484375 22.1875 42.84375 
Q 18.109375 37.203125 18.109375 27.296875 
Q 18.109375 17.390625 22.1875 11.75 
Q 26.265625 6.109375 33.40625 6.109375 
Q 40.53125 6.109375 44.609375 11.75 
Q 48.6875 17.390625 48.6875 27.296875 
z
M 18.109375 46.390625 
Q 20.953125 51.265625 25.265625 53.625 
Q 29.59375 56 35.59375 56 
Q 45.5625 56 51.78125 48.09375 
Q 58.015625 40.1875 58.015625 27.296875 
Q 58.015625 14.40625 51.78125 6.484375 
Q 45.5625 -1.421875 35.59375 -1.421875 
Q 29.59375 -1.421875 25.265625 0.953125 
Q 20.953125 3.328125 18.109375 8.203125 
L 18.109375 0 
L 9.078125 0 
L 9.078125 75.984375 
L 18.109375 75.984375 
z
" id="DejaVuSans-98"/>
     </defs>
     <use xlink:href="#DejaVuSans-98"/>
     <use x="63.476562" xlink:href="#DejaVuSans-98"/>
     <use x="126.953125" xlink:href="#DejaVuSans-111"/>
     <use x="188.134766" xlink:href="#DejaVuSans-98"/>
     <use x="251.611328" xlink:href="#DejaVuSans-32"/>
     <use x="283.398438" xlink:href="#DejaVuSans-102"/>
     <use x="318.603516" xlink:href="#DejaVuSans-50"/>
    </g>
    <!-- 51 targets: 100..1e-08 -->
    <g transform="translate(60.41088 49.533135)scale(0.102 -0.102)">
     <defs>
      <path d="M 11.71875 12.40625 
L 22.015625 12.40625 
L 22.015625 0 
L 11.71875 0 
z
M 11.71875 51.703125 
L 22.015625 51.703125 
L 22.015625 39.3125 
L 11.71875 39.3125 
z
" id="DejaVuSans-58"/>
     </defs>
     <use xlink:href="#DejaVuSans-53"/>
     <use x="63.623047" xlink:href="#DejaVuSans-49"/>
     <use x="127.246094" xlink:href="#DejaVuSans-32"/>
     <use x="159.033203" xlink:href="#DejaVuSans-116"/>
     <use x="198.242188" xlink:href="#DejaVuSans-97"/>
     <use x="259.521484" xlink:href="#DejaVuSans-114"/>
     <use x="298.884766" xlink:href="#DejaVuSans-103"/>
     <use x="362.361328" xlink:href="#DejaVuSans-101"/>
     <use x="423.884766" xlink:href="#DejaVuSans-116"/>
     <use x="463.09375" xlink:href="#DejaVuSans-115"/>
     <use x="515.193359" xlink:href="#DejaVuSans-58"/>
     <use x="548.884766" xlink:href="#DejaVuSans-32"/>
     <use x="580.671875" xlink:href="#DejaVuSans-49"/>
     <use x="644.294922" xlink:href="#DejaVuSans-48"/>
     <use x="707.917969" xlink:href="#DejaVuSans-48"/>
     <use x="771.541016" xlink:href="#DejaVuSans-46"/>
     <use x="803.328125" xlink:href="#DejaVuSans-46"/>
     <use x="835.115234" xlink:href="#DejaVuSans-49"/>
     <use x="898.738281" xlink:href="#DejaVuSans-101"/>
     <use x="960.261719" xlink:href="#DejaVuSans-45"/>
     <use x="996.345703" xlink:href="#DejaVuSans-48"/>
     <use x="1059.96875" xlink:href="#DejaVuSans-56"/>
    </g>
    <!-- 15 instances -->
    <g transform="translate(60.41088 60.954904)scale(0.102 -0.102)">
     <use xlink:href="#DejaVuSans-49"/>
     <use x="63.623047" xlink:href="#DejaVuSans-53"/>
     <use x="127.246094" xlink:href="#DejaVuSans-32"/>
     <use x="159.033203" xlink:href="#DejaVuSans-105"/>
     <use x="186.816406" xlink:href="#DejaVuSans-110"/>
     <use x="250.195312" xlink:href="#DejaVuSans-115"/>
     <use x="302.294922" xlink:href="#DejaVuSans-116"/>
     <use x="341.503906" xlink:href="#DejaVuSans-97"/>
     <use x="402.783203" xlink:href="#DejaVuSans-110"/>
     <use x="466.162109" xlink:href="#DejaVuSans-99"/>
     <use x="521.142578" xlink:href="#DejaVuSans-101"/>
     <use x="582.666016" xlink:href="#DejaVuSans-115"/>
    </g>
   </g>
   <g id="text_18">
    <!-- v2.4 -->
    <g style="fill:#808080;" transform="translate(187.233062 294.151352)scale(0.1 -0.1)">
     <use xlink:href="#DejaVuSans-118"/>
     <use x="59.179688" xlink:href="#DejaVuSans-50"/>
     <use x="122.802734" xlink:href="#DejaVuSans-46"/>
     <use x="154.589844" xlink:href="#DejaVuSans-52"/>
    </g>
   </g>
   <g id="text_19">
    <!-- 2 Ellipsoid separable -->
    <g transform="translate(94.611187 21.648)scale(0.2 -0.2)">
     <defs>
      <path d="M 9.8125 72.90625 
L 55.90625 72.90625 
L 55.90625 64.59375 
L 19.671875 64.59375 
L 19.671875 43.015625 
L 54.390625 43.015625 
L 54.390625 34.71875 
L 19.671875 34.71875 
L 19.671875 8.296875 
L 56.78125 8.296875 
L 56.78125 0 
L 9.8125 0 
z
" id="DejaVuSans-69"/>
     </defs>
     <use xlink:href="#DejaVuSans-50"/>
     <use x="63.623047" xlink:href="#DejaVuSans-32"/>
     <use x="95.410156" xlink:href="#DejaVuSans-69"/>
     <use x="158.59375" xlink:href="#DejaVuSans-108"/>
     <use x="186.376953" xlink:href="#DejaVuSans-108"/>
     <use x="214.160156" xlink:href="#DejaVuSans-105"/>
     <use x="241.943359" xlink:href="#DejaVuSans-112"/>
     <use x="305.419922" xlink:href="#DejaVuSans-115"/>
     <use x="357.519531" xlink:href="#DejaVuSans-111"/>
     <use x="418.701172" xlink:href="#DejaVuSans-105"/>
     <use x="446.484375" xlink:href="#DejaVuSans-100"/>
     <use x="509.960938" xlink:href="#DejaVuSans-32"/>
     <use x="541.748047" xlink:href="#DejaVuSans-115"/>
     <use x="593.847656" xlink:href="#DejaVuSans-101"/>
     <use x="655.371094" xlink:href="#DejaVuSans-112"/>
     <use x="718.847656" xlink:href="#DejaVuSans-97"/>
     <use x="780.126953" xlink:href="#DejaVuSans-114"/>
     <use x="821.240234" xlink:href="#DejaVuSans-97"/>
     <use x="882.519531" xlink:href="#DejaVuSans-98"/>
     <use x="945.996094" xlink:href="#DejaVuSans-108"/>
     <use x="973.779297" xlink:href="#DejaVuSans-101"/>
    </g>
   </g>
  </g>
 </g>
 <defs>
  <clipPath id="p44b9fe26a2">
   <rect height="271.296" width="281.088" x="57.6" y="27.648"/>
  </clipPath>
 </defs>
</svg>
