<?xml version="1.0" encoding="utf-8" standalone="no"?>
<!DOCTYPE svg PUBLIC "-//W3C//DTD SVG 1.1//EN"
  "http://www.w3.org/Graphics/SVG/1.1/DTD/svg11.dtd">
<!-- Created with matplotlib (https://matplotlib.org/) -->
<svg height="345.6pt" version="1.1" viewBox="0 0 460.8 345.6" width="460.8pt" xmlns="http://www.w3.org/2000/svg" xmlns:xlink="http://www.w3.org/1999/xlink">
 <metadata>
  <rdf:RDF xmlns:cc="http://creativecommons.org/ns#" xmlns:dc="http://purl.org/dc/elements/1.1/" xmlns:rdf="http://www.w3.org/1999/02/22-rdf-syntax-ns#">
   <cc:Work>
    <dc:type rdf:resource="http://purl.org/dc/dcmitype/StillImage"/>
    <dc:date>2021-06-17T01:39:23.265850</dc:date>
    <dc:format>image/svg+xml</dc:format>
    <dc:creator>
     <cc:Agent>
      <dc:title>Matplotlib v3.3.4, https://matplotlib.org/</dc:title>
     </cc:Agent>
    </dc:creator>
   </cc:Work>
  </rdf:RDF>
 </metadata>
 <defs>
  <style type="text/css">*{stroke-linecap:butt;stroke-linejoin:round;}</style>
 </defs>
 <g id="figure_1">
  <g id="patch_1">
   <path d="M 0 345.6 
L 460.8 345.6 
L 460.8 0 
L 0 0 
z
" style="fill:#ffffff;"/>
  </g>
  <g id="axes_1">
   <g id="patch_2">
    <path d="M 57.6 298.944 
L 338.688 298.944 
L 338.688 27.648 
L 57.6 27.648 
z
" style="fill:#ffffff;"/>
   </g>
   <g id="matplotlib.axis_1">
    <g id="xtick_1">
     <g id="line2d_1">
      <path clip-path="url(#p38fb6ae603)" d="M 57.6 298.944 
L 57.6 27.648 
" style="fill:none;stroke:#b0b0b0;stroke-linecap:square;stroke-width:0.8;"/>
     </g>
     <g id="line2d_2">
      <defs>
       <path d="M 0 0 
L 0 3.5 
" id="m8e86104ca8" style="stroke:#000000;stroke-width:0.8;"/>
      </defs>
      <g>
       <use style="stroke:#000000;stroke-width:0.8;" x="57.6" xlink:href="#m8e86104ca8" y="298.944"/>
      </g>
     </g>
     <g id="text_1">
      <!-- 0 -->
      <g transform="translate(51.2375 321.140875)scale(0.2 -0.2)">
       <defs>
        <path d="M 31.78125 66.40625 
Q 24.171875 66.40625 20.328125 58.90625 
Q 16.5 51.421875 16.5 36.375 
Q 16.5 21.390625 20.328125 13.890625 
Q 24.171875 6.390625 31.78125 6.390625 
Q 39.453125 6.390625 43.28125 13.890625 
Q 47.125 21.390625 47.125 36.375 
Q 47.125 51.421875 43.28125 58.90625 
Q 39.453125 66.40625 31.78125 66.40625 
z
M 31.78125 74.21875 
Q 44.046875 74.21875 50.515625 64.515625 
Q 56.984375 54.828125 56.984375 36.375 
Q 56.984375 17.96875 50.515625 8.265625 
Q 44.046875 -1.421875 31.78125 -1.421875 
Q 19.53125 -1.421875 13.0625 8.265625 
Q 6.59375 17.96875 6.59375 36.375 
Q 6.59375 54.828125 13.0625 64.515625 
Q 19.53125 74.21875 31.78125 74.21875 
z
" id="DejaVuSans-48"/>
       </defs>
       <use xlink:href="#DejaVuSans-48"/>
      </g>
     </g>
    </g>
    <g id="xtick_2">
     <g id="line2d_3">
      <path clip-path="url(#p38fb6ae603)" d="M 137.910857 298.944 
L 137.910857 27.648 
" style="fill:none;stroke:#b0b0b0;stroke-linecap:square;stroke-width:0.8;"/>
     </g>
     <g id="line2d_4">
      <g>
       <use style="stroke:#000000;stroke-width:0.8;" x="137.910857" xlink:href="#m8e86104ca8" y="298.944"/>
      </g>
     </g>
     <g id="text_2">
      <!-- 2 -->
      <g transform="translate(131.548357 321.140875)scale(0.2 -0.2)">
       <defs>
        <path d="M 19.1875 8.296875 
L 53.609375 8.296875 
L 53.609375 0 
L 7.328125 0 
L 7.328125 8.296875 
Q 12.9375 14.109375 22.625 23.890625 
Q 32.328125 33.6875 34.8125 36.53125 
Q 39.546875 41.84375 41.421875 45.53125 
Q 43.3125 49.21875 43.3125 52.78125 
Q 43.3125 58.59375 39.234375 62.25 
Q 35.15625 65.921875 28.609375 65.921875 
Q 23.96875 65.921875 18.8125 64.3125 
Q 13.671875 62.703125 7.8125 59.421875 
L 7.8125 69.390625 
Q 13.765625 71.78125 18.9375 73 
Q 24.125 74.21875 28.421875 74.21875 
Q 39.75 74.21875 46.484375 68.546875 
Q 53.21875 62.890625 53.21875 53.421875 
Q 53.21875 48.921875 51.53125 44.890625 
Q 49.859375 40.875 45.40625 35.40625 
Q 44.1875 33.984375 37.640625 27.21875 
Q 31.109375 20.453125 19.1875 8.296875 
z
" id="DejaVuSans-50"/>
       </defs>
       <use xlink:href="#DejaVuSans-50"/>
      </g>
     </g>
    </g>
    <g id="xtick_3">
     <g id="line2d_5">
      <path clip-path="url(#p38fb6ae603)" d="M 218.221714 298.944 
L 218.221714 27.648 
" style="fill:none;stroke:#b0b0b0;stroke-linecap:square;stroke-width:0.8;"/>
     </g>
     <g id="line2d_6">
      <g>
       <use style="stroke:#000000;stroke-width:0.8;" x="218.221714" xlink:href="#m8e86104ca8" y="298.944"/>
      </g>
     </g>
     <g id="text_3">
      <!-- 4 -->
      <g transform="translate(211.859214 321.140875)scale(0.2 -0.2)">
       <defs>
        <path d="M 37.796875 64.3125 
L 12.890625 25.390625 
L 37.796875 25.390625 
z
M 35.203125 72.90625 
L 47.609375 72.90625 
L 47.609375 25.390625 
L 58.015625 25.390625 
L 58.015625 17.1875 
L 47.609375 17.1875 
L 47.609375 0 
L 37.796875 0 
L 37.796875 17.1875 
L 4.890625 17.1875 
L 4.890625 26.703125 
z
" id="DejaVuSans-52"/>
       </defs>
       <use xlink:href="#DejaVuSans-52"/>
      </g>
     </g>
    </g>
    <g id="xtick_4">
     <g id="line2d_7">
      <path clip-path="url(#p38fb6ae603)" d="M 298.532571 298.944 
L 298.532571 27.648 
" style="fill:none;stroke:#b0b0b0;stroke-linecap:square;stroke-width:0.8;"/>
     </g>
     <g id="line2d_8">
      <g>
       <use style="stroke:#000000;stroke-width:0.8;" x="298.532571" xlink:href="#m8e86104ca8" y="298.944"/>
      </g>
     </g>
     <g id="text_4">
      <!-- 6 -->
      <g transform="translate(292.170071 321.140875)scale(0.2 -0.2)">
       <defs>
        <path d="M 33.015625 40.375 
Q 26.375 40.375 22.484375 35.828125 
Q 18.609375 31.296875 18.609375 23.390625 
Q 18.609375 15.53125 22.484375 10.953125 
Q 26.375 6.390625 33.015625 6.390625 
Q 39.65625 6.390625 43.53125 10.953125 
Q 47.40625 15.53125 47.40625 23.390625 
Q 47.40625 31.296875 43.53125 35.828125 
Q 39.65625 40.375 33.015625 40.375 
z
M 52.59375 71.296875 
L 52.59375 62.3125 
Q 48.875 64.0625 45.09375 64.984375 
Q 41.3125 65.921875 37.59375 65.921875 
Q 27.828125 65.921875 22.671875 59.328125 
Q 17.53125 52.734375 16.796875 39.40625 
Q 19.671875 43.65625 24.015625 45.921875 
Q 28.375 48.1875 33.59375 48.1875 
Q 44.578125 48.1875 50.953125 41.515625 
Q 57.328125 34.859375 57.328125 23.390625 
Q 57.328125 12.15625 50.6875 5.359375 
Q 44.046875 -1.421875 33.015625 -1.421875 
Q 20.359375 -1.421875 13.671875 8.265625 
Q 6.984375 17.96875 6.984375 36.375 
Q 6.984375 53.65625 15.1875 63.9375 
Q 23.390625 74.21875 37.203125 74.21875 
Q 40.921875 74.21875 44.703125 73.484375 
Q 48.484375 72.75 52.59375 71.296875 
z
" id="DejaVuSans-54"/>
       </defs>
       <use xlink:href="#DejaVuSans-54"/>
      </g>
     </g>
    </g>
    <g id="xtick_5">
     <g id="line2d_9">
      <path clip-path="url(#p38fb6ae603)" d="M 97.755429 298.944 
L 97.755429 27.648 
" style="fill:none;stroke:#b0b0b0;stroke-linecap:square;stroke-width:0.8;"/>
     </g>
     <g id="line2d_10">
      <defs>
       <path d="M 0 0 
L 0 2 
" id="m838fa66bd6" style="stroke:#000000;stroke-width:0.6;"/>
      </defs>
      <g>
       <use style="stroke:#000000;stroke-width:0.6;" x="97.755429" xlink:href="#m838fa66bd6" y="298.944"/>
      </g>
     </g>
    </g>
    <g id="xtick_6">
     <g id="line2d_11">
      <path clip-path="url(#p38fb6ae603)" d="M 178.066286 298.944 
L 178.066286 27.648 
" style="fill:none;stroke:#b0b0b0;stroke-linecap:square;stroke-width:0.8;"/>
     </g>
     <g id="line2d_12">
      <g>
       <use style="stroke:#000000;stroke-width:0.6;" x="178.066286" xlink:href="#m838fa66bd6" y="298.944"/>
      </g>
     </g>
    </g>
    <g id="xtick_7">
     <g id="line2d_13">
      <path clip-path="url(#p38fb6ae603)" d="M 258.377143 298.944 
L 258.377143 27.648 
" style="fill:none;stroke:#b0b0b0;stroke-linecap:square;stroke-width:0.8;"/>
     </g>
     <g id="line2d_14">
      <g>
       <use style="stroke:#000000;stroke-width:0.6;" x="258.377143" xlink:href="#m838fa66bd6" y="298.944"/>
      </g>
     </g>
    </g>
    <g id="xtick_8">
     <g id="line2d_15">
      <path clip-path="url(#p38fb6ae603)" d="M 338.688 298.944 
L 338.688 27.648 
" style="fill:none;stroke:#b0b0b0;stroke-linecap:square;stroke-width:0.8;"/>
     </g>
     <g id="line2d_16">
      <g>
       <use style="stroke:#000000;stroke-width:0.6;" x="338.688" xlink:href="#m838fa66bd6" y="298.944"/>
      </g>
     </g>
    </g>
    <g id="text_5">
     <!-- log10(# f-evals / dimension) -->
     <g transform="translate(77.764078 342.217594)scale(0.17 -0.17)">
      <defs>
       <path d="M 9.421875 75.984375 
L 18.40625 75.984375 
L 18.40625 0 
L 9.421875 0 
z
" id="DejaVuSans-108"/>
       <path d="M 30.609375 48.390625 
Q 23.390625 48.390625 19.1875 42.75 
Q 14.984375 37.109375 14.984375 27.296875 
Q 14.984375 17.484375 19.15625 11.84375 
Q 23.34375 6.203125 30.609375 6.203125 
Q 37.796875 6.203125 41.984375 11.859375 
Q 46.1875 17.53125 46.1875 27.296875 
Q 46.1875 37.015625 41.984375 42.703125 
Q 37.796875 48.390625 30.609375 48.390625 
z
M 30.609375 56 
Q 42.328125 56 49.015625 48.375 
Q 55.71875 40.765625 55.71875 27.296875 
Q 55.71875 13.875 49.015625 6.21875 
Q 42.328125 -1.421875 30.609375 -1.421875 
Q 18.84375 -1.421875 12.171875 6.21875 
Q 5.515625 13.875 5.515625 27.296875 
Q 5.515625 40.765625 12.171875 48.375 
Q 18.84375 56 30.609375 56 
z
" id="DejaVuSans-111"/>
       <path d="M 45.40625 27.984375 
Q 45.40625 37.75 41.375 43.109375 
Q 37.359375 48.484375 30.078125 48.484375 
Q 22.859375 48.484375 18.828125 43.109375 
Q 14.796875 37.75 14.796875 27.984375 
Q 14.796875 18.265625 18.828125 12.890625 
Q 22.859375 7.515625 30.078125 7.515625 
Q 37.359375 7.515625 41.375 12.890625 
Q 45.40625 18.265625 45.40625 27.984375 
z
M 54.390625 6.78125 
Q 54.390625 -7.171875 48.1875 -13.984375 
Q 42 -20.796875 29.203125 -20.796875 
Q 24.46875 -20.796875 20.265625 -20.09375 
Q 16.0625 -19.390625 12.109375 -17.921875 
L 12.109375 -9.1875 
Q 16.0625 -11.328125 19.921875 -12.34375 
Q 23.78125 -13.375 27.78125 -13.375 
Q 36.625 -13.375 41.015625 -8.765625 
Q 45.40625 -4.15625 45.40625 5.171875 
L 45.40625 9.625 
Q 42.625 4.78125 38.28125 2.390625 
Q 33.9375 0 27.875 0 
Q 17.828125 0 11.671875 7.65625 
Q 5.515625 15.328125 5.515625 27.984375 
Q 5.515625 40.671875 11.671875 48.328125 
Q 17.828125 56 27.875 56 
Q 33.9375 56 38.28125 53.609375 
Q 42.625 51.21875 45.40625 46.390625 
L 45.40625 54.6875 
L 54.390625 54.6875 
z
" id="DejaVuSans-103"/>
       <path d="M 12.40625 8.296875 
L 28.515625 8.296875 
L 28.515625 63.921875 
L 10.984375 60.40625 
L 10.984375 69.390625 
L 28.421875 72.90625 
L 38.28125 72.90625 
L 38.28125 8.296875 
L 54.390625 8.296875 
L 54.390625 0 
L 12.40625 0 
z
" id="DejaVuSans-49"/>
       <path d="M 31 75.875 
Q 24.46875 64.65625 21.28125 53.65625 
Q 18.109375 42.671875 18.109375 31.390625 
Q 18.109375 20.125 21.3125 9.0625 
Q 24.515625 -2 31 -13.1875 
L 23.1875 -13.1875 
Q 15.875 -1.703125 12.234375 9.375 
Q 8.59375 20.453125 8.59375 31.390625 
Q 8.59375 42.28125 12.203125 53.3125 
Q 15.828125 64.359375 23.1875 75.875 
z
" id="DejaVuSans-40"/>
       <path d="M 51.125 44 
L 36.921875 44 
L 32.8125 27.6875 
L 47.125 27.6875 
z
M 43.796875 71.78125 
L 38.71875 51.515625 
L 52.984375 51.515625 
L 58.109375 71.78125 
L 65.921875 71.78125 
L 60.890625 51.515625 
L 76.125 51.515625 
L 76.125 44 
L 58.984375 44 
L 54.984375 27.6875 
L 70.515625 27.6875 
L 70.515625 20.21875 
L 53.078125 20.21875 
L 48 0 
L 40.1875 0 
L 45.21875 20.21875 
L 30.90625 20.21875 
L 25.875 0 
L 18.015625 0 
L 23.09375 20.21875 
L 7.71875 20.21875 
L 7.71875 27.6875 
L 24.90625 27.6875 
L 29 44 
L 13.28125 44 
L 13.28125 51.515625 
L 30.90625 51.515625 
L 35.890625 71.78125 
z
" id="DejaVuSans-35"/>
       <path id="DejaVuSans-32"/>
       <path d="M 37.109375 75.984375 
L 37.109375 68.5 
L 28.515625 68.5 
Q 23.6875 68.5 21.796875 66.546875 
Q 19.921875 64.59375 19.921875 59.515625 
L 19.921875 54.6875 
L 34.71875 54.6875 
L 34.71875 47.703125 
L 19.921875 47.703125 
L 19.921875 0 
L 10.890625 0 
L 10.890625 47.703125 
L 2.296875 47.703125 
L 2.296875 54.6875 
L 10.890625 54.6875 
L 10.890625 58.5 
Q 10.890625 67.625 15.140625 71.796875 
Q 19.390625 75.984375 28.609375 75.984375 
z
" id="DejaVuSans-102"/>
       <path d="M 4.890625 31.390625 
L 31.203125 31.390625 
L 31.203125 23.390625 
L 4.890625 23.390625 
z
" id="DejaVuSans-45"/>
       <path d="M 56.203125 29.59375 
L 56.203125 25.203125 
L 14.890625 25.203125 
Q 15.484375 15.921875 20.484375 11.0625 
Q 25.484375 6.203125 34.421875 6.203125 
Q 39.59375 6.203125 44.453125 7.46875 
Q 49.3125 8.734375 54.109375 11.28125 
L 54.109375 2.78125 
Q 49.265625 0.734375 44.1875 -0.34375 
Q 39.109375 -1.421875 33.890625 -1.421875 
Q 20.796875 -1.421875 13.15625 6.1875 
Q 5.515625 13.8125 5.515625 26.8125 
Q 5.515625 40.234375 12.765625 48.109375 
Q 20.015625 56 32.328125 56 
Q 43.359375 56 49.78125 48.890625 
Q 56.203125 41.796875 56.203125 29.59375 
z
M 47.21875 32.234375 
Q 47.125 39.59375 43.09375 43.984375 
Q 39.0625 48.390625 32.421875 48.390625 
Q 24.90625 48.390625 20.390625 44.140625 
Q 15.875 39.890625 15.1875 32.171875 
z
" id="DejaVuSans-101"/>
       <path d="M 2.984375 54.6875 
L 12.5 54.6875 
L 29.59375 8.796875 
L 46.6875 54.6875 
L 56.203125 54.6875 
L 35.6875 0 
L 23.484375 0 
z
" id="DejaVuSans-118"/>
       <path d="M 34.28125 27.484375 
Q 23.390625 27.484375 19.1875 25 
Q 14.984375 22.515625 14.984375 16.5 
Q 14.984375 11.71875 18.140625 8.90625 
Q 21.296875 6.109375 26.703125 6.109375 
Q 34.1875 6.109375 38.703125 11.40625 
Q 43.21875 16.703125 43.21875 25.484375 
L 43.21875 27.484375 
z
M 52.203125 31.203125 
L 52.203125 0 
L 43.21875 0 
L 43.21875 8.296875 
Q 40.140625 3.328125 35.546875 0.953125 
Q 30.953125 -1.421875 24.3125 -1.421875 
Q 15.921875 -1.421875 10.953125 3.296875 
Q 6 8.015625 6 15.921875 
Q 6 25.140625 12.171875 29.828125 
Q 18.359375 34.515625 30.609375 34.515625 
L 43.21875 34.515625 
L 43.21875 35.40625 
Q 43.21875 41.609375 39.140625 45 
Q 35.0625 48.390625 27.6875 48.390625 
Q 23 48.390625 18.546875 47.265625 
Q 14.109375 46.140625 10.015625 43.890625 
L 10.015625 52.203125 
Q 14.9375 54.109375 19.578125 55.046875 
Q 24.21875 56 28.609375 56 
Q 40.484375 56 46.34375 49.84375 
Q 52.203125 43.703125 52.203125 31.203125 
z
" id="DejaVuSans-97"/>
       <path d="M 44.28125 53.078125 
L 44.28125 44.578125 
Q 40.484375 46.53125 36.375 47.5 
Q 32.28125 48.484375 27.875 48.484375 
Q 21.1875 48.484375 17.84375 46.4375 
Q 14.5 44.390625 14.5 40.28125 
Q 14.5 37.15625 16.890625 35.375 
Q 19.28125 33.59375 26.515625 31.984375 
L 29.59375 31.296875 
Q 39.15625 29.25 43.1875 25.515625 
Q 47.21875 21.78125 47.21875 15.09375 
Q 47.21875 7.46875 41.1875 3.015625 
Q 35.15625 -1.421875 24.609375 -1.421875 
Q 20.21875 -1.421875 15.453125 -0.5625 
Q 10.6875 0.296875 5.421875 2 
L 5.421875 11.28125 
Q 10.40625 8.6875 15.234375 7.390625 
Q 20.0625 6.109375 24.8125 6.109375 
Q 31.15625 6.109375 34.5625 8.28125 
Q 37.984375 10.453125 37.984375 14.40625 
Q 37.984375 18.0625 35.515625 20.015625 
Q 33.0625 21.96875 24.703125 23.78125 
L 21.578125 24.515625 
Q 13.234375 26.265625 9.515625 29.90625 
Q 5.8125 33.546875 5.8125 39.890625 
Q 5.8125 47.609375 11.28125 51.796875 
Q 16.75 56 26.8125 56 
Q 31.78125 56 36.171875 55.265625 
Q 40.578125 54.546875 44.28125 53.078125 
z
" id="DejaVuSans-115"/>
       <path d="M 25.390625 72.90625 
L 33.6875 72.90625 
L 8.296875 -9.28125 
L 0 -9.28125 
z
" id="DejaVuSans-47"/>
       <path d="M 45.40625 46.390625 
L 45.40625 75.984375 
L 54.390625 75.984375 
L 54.390625 0 
L 45.40625 0 
L 45.40625 8.203125 
Q 42.578125 3.328125 38.25 0.953125 
Q 33.9375 -1.421875 27.875 -1.421875 
Q 17.96875 -1.421875 11.734375 6.484375 
Q 5.515625 14.40625 5.515625 27.296875 
Q 5.515625 40.1875 11.734375 48.09375 
Q 17.96875 56 27.875 56 
Q 33.9375 56 38.25 53.625 
Q 42.578125 51.265625 45.40625 46.390625 
z
M 14.796875 27.296875 
Q 14.796875 17.390625 18.875 11.75 
Q 22.953125 6.109375 30.078125 6.109375 
Q 37.203125 6.109375 41.296875 11.75 
Q 45.40625 17.390625 45.40625 27.296875 
Q 45.40625 37.203125 41.296875 42.84375 
Q 37.203125 48.484375 30.078125 48.484375 
Q 22.953125 48.484375 18.875 42.84375 
Q 14.796875 37.203125 14.796875 27.296875 
z
" id="DejaVuSans-100"/>
       <path d="M 9.421875 54.6875 
L 18.40625 54.6875 
L 18.40625 0 
L 9.421875 0 
z
M 9.421875 75.984375 
L 18.40625 75.984375 
L 18.40625 64.59375 
L 9.421875 64.59375 
z
" id="DejaVuSans-105"/>
       <path d="M 52 44.1875 
Q 55.375 50.25 60.0625 53.125 
Q 64.75 56 71.09375 56 
Q 79.640625 56 84.28125 50.015625 
Q 88.921875 44.046875 88.921875 33.015625 
L 88.921875 0 
L 79.890625 0 
L 79.890625 32.71875 
Q 79.890625 40.578125 77.09375 44.375 
Q 74.3125 48.1875 68.609375 48.1875 
Q 61.625 48.1875 57.5625 43.546875 
Q 53.515625 38.921875 53.515625 30.90625 
L 53.515625 0 
L 44.484375 0 
L 44.484375 32.71875 
Q 44.484375 40.625 41.703125 44.40625 
Q 38.921875 48.1875 33.109375 48.1875 
Q 26.21875 48.1875 22.15625 43.53125 
Q 18.109375 38.875 18.109375 30.90625 
L 18.109375 0 
L 9.078125 0 
L 9.078125 54.6875 
L 18.109375 54.6875 
L 18.109375 46.1875 
Q 21.1875 51.21875 25.484375 53.609375 
Q 29.78125 56 35.6875 56 
Q 41.65625 56 45.828125 52.96875 
Q 50 49.953125 52 44.1875 
z
" id="DejaVuSans-109"/>
       <path d="M 54.890625 33.015625 
L 54.890625 0 
L 45.90625 0 
L 45.90625 32.71875 
Q 45.90625 40.484375 42.875 44.328125 
Q 39.84375 48.1875 33.796875 48.1875 
Q 26.515625 48.1875 22.3125 43.546875 
Q 18.109375 38.921875 18.109375 30.90625 
L 18.109375 0 
L 9.078125 0 
L 9.078125 54.6875 
L 18.109375 54.6875 
L 18.109375 46.1875 
Q 21.34375 51.125 25.703125 53.5625 
Q 30.078125 56 35.796875 56 
Q 45.21875 56 50.046875 50.171875 
Q 54.890625 44.34375 54.890625 33.015625 
z
" id="DejaVuSans-110"/>
       <path d="M 8.015625 75.875 
L 15.828125 75.875 
Q 23.140625 64.359375 26.78125 53.3125 
Q 30.421875 42.28125 30.421875 31.390625 
Q 30.421875 20.453125 26.78125 9.375 
Q 23.140625 -1.703125 15.828125 -13.1875 
L 8.015625 -13.1875 
Q 14.5 -2 17.703125 9.0625 
Q 20.90625 20.125 20.90625 31.390625 
Q 20.90625 42.671875 17.703125 53.65625 
Q 14.5 64.65625 8.015625 75.875 
z
" id="DejaVuSans-41"/>
      </defs>
      <use xlink:href="#DejaVuSans-108"/>
      <use x="27.783203" xlink:href="#DejaVuSans-111"/>
      <use x="88.964844" xlink:href="#DejaVuSans-103"/>
      <use x="152.441406" xlink:href="#DejaVuSans-49"/>
      <use x="216.064453" xlink:href="#DejaVuSans-48"/>
      <use x="279.6875" xlink:href="#DejaVuSans-40"/>
      <use x="318.701172" xlink:href="#DejaVuSans-35"/>
      <use x="402.490234" xlink:href="#DejaVuSans-32"/>
      <use x="434.277344" xlink:href="#DejaVuSans-102"/>
      <use x="463.982422" xlink:href="#DejaVuSans-45"/>
      <use x="500.066406" xlink:href="#DejaVuSans-101"/>
      <use x="561.589844" xlink:href="#DejaVuSans-118"/>
      <use x="620.769531" xlink:href="#DejaVuSans-97"/>
      <use x="682.048828" xlink:href="#DejaVuSans-108"/>
      <use x="709.832031" xlink:href="#DejaVuSans-115"/>
      <use x="761.931641" xlink:href="#DejaVuSans-32"/>
      <use x="793.71875" xlink:href="#DejaVuSans-47"/>
      <use x="827.410156" xlink:href="#DejaVuSans-32"/>
      <use x="859.197266" xlink:href="#DejaVuSans-100"/>
      <use x="922.673828" xlink:href="#DejaVuSans-105"/>
      <use x="950.457031" xlink:href="#DejaVuSans-109"/>
      <use x="1047.869141" xlink:href="#DejaVuSans-101"/>
      <use x="1109.392578" xlink:href="#DejaVuSans-110"/>
      <use x="1172.771484" xlink:href="#DejaVuSans-115"/>
      <use x="1224.871094" xlink:href="#DejaVuSans-105"/>
      <use x="1252.654297" xlink:href="#DejaVuSans-111"/>
      <use x="1313.835938" xlink:href="#DejaVuSans-110"/>
      <use x="1377.214844" xlink:href="#DejaVuSans-41"/>
     </g>
    </g>
   </g>
   <g id="matplotlib.axis_2">
    <g id="ytick_1">
     <g id="line2d_17">
      <path clip-path="url(#p38fb6ae603)" d="M 57.6 298.944 
L 338.688 298.944 
" style="fill:none;stroke:#b0b0b0;stroke-linecap:square;stroke-width:0.8;"/>
     </g>
     <g id="line2d_18">
      <defs>
       <path d="M 0 0 
L -3.5 0 
" id="m7dfe64a8af" style="stroke:#000000;stroke-width:0.8;"/>
      </defs>
      <g>
       <use style="stroke:#000000;stroke-width:0.8;" x="57.6" xlink:href="#m7dfe64a8af" y="298.944"/>
      </g>
     </g>
     <g id="text_6">
      <!-- 0.0 -->
      <g transform="translate(25.155 305.02275)scale(0.16 -0.16)">
       <defs>
        <path d="M 10.6875 12.40625 
L 21 12.40625 
L 21 0 
L 10.6875 0 
z
" id="DejaVuSans-46"/>
       </defs>
       <use xlink:href="#DejaVuSans-48"/>
       <use x="63.623047" xlink:href="#DejaVuSans-46"/>
       <use x="95.410156" xlink:href="#DejaVuSans-48"/>
      </g>
     </g>
    </g>
    <g id="ytick_2">
     <g id="line2d_19">
      <path clip-path="url(#p38fb6ae603)" d="M 57.6 245.22202 
L 338.688 245.22202 
" style="fill:none;stroke:#b0b0b0;stroke-linecap:square;stroke-width:0.8;"/>
     </g>
     <g id="line2d_20">
      <g>
       <use style="stroke:#000000;stroke-width:0.8;" x="57.6" xlink:href="#m7dfe64a8af" y="245.22202"/>
      </g>
     </g>
     <g id="text_7">
      <!-- 0.2 -->
      <g transform="translate(25.155 251.30077)scale(0.16 -0.16)">
       <use xlink:href="#DejaVuSans-48"/>
       <use x="63.623047" xlink:href="#DejaVuSans-46"/>
       <use x="95.410156" xlink:href="#DejaVuSans-50"/>
      </g>
     </g>
    </g>
    <g id="ytick_3">
     <g id="line2d_21">
      <path clip-path="url(#p38fb6ae603)" d="M 57.6 191.50004 
L 338.688 191.50004 
" style="fill:none;stroke:#b0b0b0;stroke-linecap:square;stroke-width:0.8;"/>
     </g>
     <g id="line2d_22">
      <g>
       <use style="stroke:#000000;stroke-width:0.8;" x="57.6" xlink:href="#m7dfe64a8af" y="191.50004"/>
      </g>
     </g>
     <g id="text_8">
      <!-- 0.4 -->
      <g transform="translate(25.155 197.57879)scale(0.16 -0.16)">
       <use xlink:href="#DejaVuSans-48"/>
       <use x="63.623047" xlink:href="#DejaVuSans-46"/>
       <use x="95.410156" xlink:href="#DejaVuSans-52"/>
      </g>
     </g>
    </g>
    <g id="ytick_4">
     <g id="line2d_23">
      <path clip-path="url(#p38fb6ae603)" d="M 57.6 137.778059 
L 338.688 137.778059 
" style="fill:none;stroke:#b0b0b0;stroke-linecap:square;stroke-width:0.8;"/>
     </g>
     <g id="line2d_24">
      <g>
       <use style="stroke:#000000;stroke-width:0.8;" x="57.6" xlink:href="#m7dfe64a8af" y="137.778059"/>
      </g>
     </g>
     <g id="text_9">
      <!-- 0.6 -->
      <g transform="translate(25.155 143.856809)scale(0.16 -0.16)">
       <use xlink:href="#DejaVuSans-48"/>
       <use x="63.623047" xlink:href="#DejaVuSans-46"/>
       <use x="95.410156" xlink:href="#DejaVuSans-54"/>
      </g>
     </g>
    </g>
    <g id="ytick_5">
     <g id="line2d_25">
      <path clip-path="url(#p38fb6ae603)" d="M 57.6 84.056079 
L 338.688 84.056079 
" style="fill:none;stroke:#b0b0b0;stroke-linecap:square;stroke-width:0.8;"/>
     </g>
     <g id="line2d_26">
      <g>
       <use style="stroke:#000000;stroke-width:0.8;" x="57.6" xlink:href="#m7dfe64a8af" y="84.056079"/>
      </g>
     </g>
     <g id="text_10">
      <!-- 0.8 -->
      <g transform="translate(25.155 90.134829)scale(0.16 -0.16)">
       <defs>
        <path d="M 31.78125 34.625 
Q 24.75 34.625 20.71875 30.859375 
Q 16.703125 27.09375 16.703125 20.515625 
Q 16.703125 13.921875 20.71875 10.15625 
Q 24.75 6.390625 31.78125 6.390625 
Q 38.8125 6.390625 42.859375 10.171875 
Q 46.921875 13.96875 46.921875 20.515625 
Q 46.921875 27.09375 42.890625 30.859375 
Q 38.875 34.625 31.78125 34.625 
z
M 21.921875 38.8125 
Q 15.578125 40.375 12.03125 44.71875 
Q 8.5 49.078125 8.5 55.328125 
Q 8.5 64.0625 14.71875 69.140625 
Q 20.953125 74.21875 31.78125 74.21875 
Q 42.671875 74.21875 48.875 69.140625 
Q 55.078125 64.0625 55.078125 55.328125 
Q 55.078125 49.078125 51.53125 44.71875 
Q 48 40.375 41.703125 38.8125 
Q 48.828125 37.15625 52.796875 32.3125 
Q 56.78125 27.484375 56.78125 20.515625 
Q 56.78125 9.90625 50.3125 4.234375 
Q 43.84375 -1.421875 31.78125 -1.421875 
Q 19.734375 -1.421875 13.25 4.234375 
Q 6.78125 9.90625 6.78125 20.515625 
Q 6.78125 27.484375 10.78125 32.3125 
Q 14.796875 37.15625 21.921875 38.8125 
z
M 18.3125 54.390625 
Q 18.3125 48.734375 21.84375 45.5625 
Q 25.390625 42.390625 31.78125 42.390625 
Q 38.140625 42.390625 41.71875 45.5625 
Q 45.3125 48.734375 45.3125 54.390625 
Q 45.3125 60.0625 41.71875 63.234375 
Q 38.140625 66.40625 31.78125 66.40625 
Q 25.390625 66.40625 21.84375 63.234375 
Q 18.3125 60.0625 18.3125 54.390625 
z
" id="DejaVuSans-56"/>
       </defs>
       <use xlink:href="#DejaVuSans-48"/>
       <use x="63.623047" xlink:href="#DejaVuSans-46"/>
       <use x="95.410156" xlink:href="#DejaVuSans-56"/>
      </g>
     </g>
    </g>
    <g id="ytick_6">
     <g id="line2d_27">
      <path clip-path="url(#p38fb6ae603)" d="M 57.6 30.334099 
L 338.688 30.334099 
" style="fill:none;stroke:#b0b0b0;stroke-linecap:square;stroke-width:0.8;"/>
     </g>
     <g id="line2d_28">
      <g>
       <use style="stroke:#000000;stroke-width:0.8;" x="57.6" xlink:href="#m7dfe64a8af" y="30.334099"/>
      </g>
     </g>
     <g id="text_11">
      <!-- 1.0 -->
      <g transform="translate(25.155 36.412849)scale(0.16 -0.16)">
       <use xlink:href="#DejaVuSans-49"/>
       <use x="63.623047" xlink:href="#DejaVuSans-46"/>
       <use x="95.410156" xlink:href="#DejaVuSans-48"/>
      </g>
     </g>
    </g>
    <g id="text_12">
     <!-- Fraction of function,target pairs -->
     <g transform="translate(17.619531 297.681)rotate(-90)scale(0.17 -0.17)">
      <defs>
       <path d="M 9.8125 72.90625 
L 51.703125 72.90625 
L 51.703125 64.59375 
L 19.671875 64.59375 
L 19.671875 43.109375 
L 48.578125 43.109375 
L 48.578125 34.8125 
L 19.671875 34.8125 
L 19.671875 0 
L 9.8125 0 
z
" id="DejaVuSans-70"/>
       <path d="M 41.109375 46.296875 
Q 39.59375 47.171875 37.8125 47.578125 
Q 36.03125 48 33.890625 48 
Q 26.265625 48 22.1875 43.046875 
Q 18.109375 38.09375 18.109375 28.8125 
L 18.109375 0 
L 9.078125 0 
L 9.078125 54.6875 
L 18.109375 54.6875 
L 18.109375 46.1875 
Q 20.953125 51.171875 25.484375 53.578125 
Q 30.03125 56 36.53125 56 
Q 37.453125 56 38.578125 55.875 
Q 39.703125 55.765625 41.0625 55.515625 
z
" id="DejaVuSans-114"/>
       <path d="M 48.78125 52.59375 
L 48.78125 44.1875 
Q 44.96875 46.296875 41.140625 47.34375 
Q 37.3125 48.390625 33.40625 48.390625 
Q 24.65625 48.390625 19.8125 42.84375 
Q 14.984375 37.3125 14.984375 27.296875 
Q 14.984375 17.28125 19.8125 11.734375 
Q 24.65625 6.203125 33.40625 6.203125 
Q 37.3125 6.203125 41.140625 7.25 
Q 44.96875 8.296875 48.78125 10.40625 
L 48.78125 2.09375 
Q 45.015625 0.34375 40.984375 -0.53125 
Q 36.96875 -1.421875 32.421875 -1.421875 
Q 20.0625 -1.421875 12.78125 6.34375 
Q 5.515625 14.109375 5.515625 27.296875 
Q 5.515625 40.671875 12.859375 48.328125 
Q 20.21875 56 33.015625 56 
Q 37.15625 56 41.109375 55.140625 
Q 45.0625 54.296875 48.78125 52.59375 
z
" id="DejaVuSans-99"/>
       <path d="M 18.3125 70.21875 
L 18.3125 54.6875 
L 36.8125 54.6875 
L 36.8125 47.703125 
L 18.3125 47.703125 
L 18.3125 18.015625 
Q 18.3125 11.328125 20.140625 9.421875 
Q 21.96875 7.515625 27.59375 7.515625 
L 36.8125 7.515625 
L 36.8125 0 
L 27.59375 0 
Q 17.1875 0 13.234375 3.875 
Q 9.28125 7.765625 9.28125 18.015625 
L 9.28125 47.703125 
L 2.6875 47.703125 
L 2.6875 54.6875 
L 9.28125 54.6875 
L 9.28125 70.21875 
z
" id="DejaVuSans-116"/>
       <path d="M 8.5 21.578125 
L 8.5 54.6875 
L 17.484375 54.6875 
L 17.484375 21.921875 
Q 17.484375 14.15625 20.5 10.265625 
Q 23.53125 6.390625 29.59375 6.390625 
Q 36.859375 6.390625 41.078125 11.03125 
Q 45.3125 15.671875 45.3125 23.6875 
L 45.3125 54.6875 
L 54.296875 54.6875 
L 54.296875 0 
L 45.3125 0 
L 45.3125 8.40625 
Q 42.046875 3.421875 37.71875 1 
Q 33.40625 -1.421875 27.6875 -1.421875 
Q 18.265625 -1.421875 13.375 4.4375 
Q 8.5 10.296875 8.5 21.578125 
z
M 31.109375 56 
z
" id="DejaVuSans-117"/>
       <path d="M 11.71875 12.40625 
L 22.015625 12.40625 
L 22.015625 4 
L 14.015625 -11.625 
L 7.71875 -11.625 
L 11.71875 4 
z
" id="DejaVuSans-44"/>
       <path d="M 18.109375 8.203125 
L 18.109375 -20.796875 
L 9.078125 -20.796875 
L 9.078125 54.6875 
L 18.109375 54.6875 
L 18.109375 46.390625 
Q 20.953125 51.265625 25.265625 53.625 
Q 29.59375 56 35.59375 56 
Q 45.5625 56 51.78125 48.09375 
Q 58.015625 40.1875 58.015625 27.296875 
Q 58.015625 14.40625 51.78125 6.484375 
Q 45.5625 -1.421875 35.59375 -1.421875 
Q 29.59375 -1.421875 25.265625 0.953125 
Q 20.953125 3.328125 18.109375 8.203125 
z
M 48.6875 27.296875 
Q 48.6875 37.203125 44.609375 42.84375 
Q 40.53125 48.484375 33.40625 48.484375 
Q 26.265625 48.484375 22.1875 42.84375 
Q 18.109375 37.203125 18.109375 27.296875 
Q 18.109375 17.390625 22.1875 11.75 
Q 26.265625 6.109375 33.40625 6.109375 
Q 40.53125 6.109375 44.609375 11.75 
Q 48.6875 17.390625 48.6875 27.296875 
z
" id="DejaVuSans-112"/>
      </defs>
      <use xlink:href="#DejaVuSans-70"/>
      <use x="50.269531" xlink:href="#DejaVuSans-114"/>
      <use x="91.382812" xlink:href="#DejaVuSans-97"/>
      <use x="152.662109" xlink:href="#DejaVuSans-99"/>
      <use x="207.642578" xlink:href="#DejaVuSans-116"/>
      <use x="246.851562" xlink:href="#DejaVuSans-105"/>
      <use x="274.634766" xlink:href="#DejaVuSans-111"/>
      <use x="335.816406" xlink:href="#DejaVuSans-110"/>
      <use x="399.195312" xlink:href="#DejaVuSans-32"/>
      <use x="430.982422" xlink:href="#DejaVuSans-111"/>
      <use x="492.164062" xlink:href="#DejaVuSans-102"/>
      <use x="527.369141" xlink:href="#DejaVuSans-32"/>
      <use x="559.15625" xlink:href="#DejaVuSans-102"/>
      <use x="594.361328" xlink:href="#DejaVuSans-117"/>
      <use x="657.740234" xlink:href="#DejaVuSans-110"/>
      <use x="721.119141" xlink:href="#DejaVuSans-99"/>
      <use x="776.099609" xlink:href="#DejaVuSans-116"/>
      <use x="815.308594" xlink:href="#DejaVuSans-105"/>
      <use x="843.091797" xlink:href="#DejaVuSans-111"/>
      <use x="904.273438" xlink:href="#DejaVuSans-110"/>
      <use x="967.652344" xlink:href="#DejaVuSans-44"/>
      <use x="999.439453" xlink:href="#DejaVuSans-116"/>
      <use x="1038.648438" xlink:href="#DejaVuSans-97"/>
      <use x="1099.927734" xlink:href="#DejaVuSans-114"/>
      <use x="1139.291016" xlink:href="#DejaVuSans-103"/>
      <use x="1202.767578" xlink:href="#DejaVuSans-101"/>
      <use x="1264.291016" xlink:href="#DejaVuSans-116"/>
      <use x="1303.5" xlink:href="#DejaVuSans-32"/>
      <use x="1335.287109" xlink:href="#DejaVuSans-112"/>
      <use x="1398.763672" xlink:href="#DejaVuSans-97"/>
      <use x="1460.042969" xlink:href="#DejaVuSans-105"/>
      <use x="1487.826172" xlink:href="#DejaVuSans-114"/>
      <use x="1528.939453" xlink:href="#DejaVuSans-115"/>
     </g>
    </g>
   </g>
   <g id="line2d_29">
    <defs>
     <path d="M 0 1.5 
C 0.397805 1.5 0.77937 1.341951 1.06066 1.06066 
C 1.341951 0.77937 1.5 0.397805 1.5 0 
C 1.5 -0.397805 1.341951 -0.77937 1.06066 -1.06066 
C 0.77937 -1.341951 0.397805 -1.5 0 -1.5 
C -0.397805 -1.5 -0.77937 -1.341951 -1.06066 -1.06066 
C -1.341951 -0.77937 -1.5 -0.397805 -1.5 0 
C -1.5 0.397805 -1.341951 0.77937 -1.06066 1.06066 
C -0.77937 1.341951 -0.397805 1.5 0 1.5 
z
" id="m4c85247ad0" style="stroke:#00bfbf;"/>
    </defs>
    <g>
     <use style="fill:#00bfbf;stroke:#00bfbf;" x="168.731229" xlink:href="#m4c85247ad0" y="30.334099"/>
     <use style="fill:#00bfbf;stroke:#00bfbf;" x="168.731229" xlink:href="#m4c85247ad0" y="30.334099"/>
    </g>
   </g>
   <g id="line2d_30">
    <path d="M 83.830028 298.944 
L 83.830028 298.417314 
L 87.329581 298.417314 
L 87.329581 297.363942 
L 102.989037 297.363942 
L 102.989037 295.783884 
L 106.48859 295.783884 
L 106.48859 293.677139 
L 108.483824 293.677139 
L 108.483824 291.570395 
L 109.843417 291.570395 
L 109.843417 291.043709 
L 114.080224 291.043709 
L 114.080224 289.990337 
L 116.621333 289.990337 
L 116.621333 288.936964 
L 122.988655 288.936964 
L 122.988655 286.83022 
L 126.338353 286.83022 
L 126.338353 285.250162 
L 127.954256 285.250162 
L 127.954256 284.723476 
L 128.107907 284.723476 
L 128.107907 283.143418 
L 128.560901 283.143418 
L 128.560901 282.616732 
L 129.433047 282.616732 
L 129.433047 282.090045 
L 129.853291 282.090045 
L 129.853291 281.036673 
L 130.796184 281.036673 
L 130.796184 279.983301 
L 131.439773 279.983301 
L 131.439773 279.456615 
L 131.565689 279.456615 
L 131.565689 278.929929 
L 133.009765 278.929929 
L 133.009765 276.296499 
L 133.352844 276.296499 
L 133.352844 275.243126 
L 133.689303 275.243126 
L 133.800029 271.556324 
L 134.236034 271.556324 
L 134.236034 271.029638 
L 134.973757 271.029638 
L 134.973757 269.449579 
L 135.280614 269.449579 
L 135.280614 268.922893 
L 135.582166 268.922893 
L 135.582166 268.396207 
L 135.780341 268.396207 
L 135.780341 265.236091 
L 136.170062 265.236091 
L 136.170062 263.129347 
L 137.997836 263.129347 
L 137.997836 261.022602 
L 138.341479 261.022602 
L 138.341479 260.495916 
L 138.84457 260.495916 
L 138.84457 259.96923 
L 139.333553 259.96923 
L 139.333553 258.915858 
L 140.042245 258.915858 
L 140.042245 257.862486 
L 141.090414 257.862486 
L 141.090414 257.3358 
L 141.591783 257.3358 
L 141.591783 256.809114 
L 142.619936 256.809114 
L 142.619936 256.282427 
L 142.818488 256.282427 
L 142.818488 255.229055 
L 145.665858 255.229055 
L 145.665858 254.702369 
L 148.161434 254.702369 
L 148.161434 254.175683 
L 149.867558 254.175683 
L 149.911431 253.122311 
L 150.129152 253.122311 
L 150.215485 249.962195 
L 150.682827 249.962195 
L 150.682827 249.435508 
L 151.300575 249.435508 
L 151.300575 248.908822 
L 151.421542 248.908822 
L 151.421542 248.382136 
L 151.818809 248.382136 
L 151.818809 246.802078 
L 152.245598 246.802078 
L 152.245598 246.275392 
L 152.511852 246.275392 
L 152.511852 245.22202 
L 152.736878 245.22202 
L 152.774102 243.641962 
L 152.922207 243.641962 
L 152.922207 241.008531 
L 153.069065 241.008531 
L 153.142033 239.955159 
L 153.609024 239.955159 
L 153.715038 237.321729 
L 153.785358 237.321729 
L 153.820412 234.161612 
L 154.098334 234.161612 
L 154.132765 233.10824 
L 154.269814 233.10824 
L 154.269814 232.054868 
L 154.405793 232.054868 
L 154.473387 227.841379 
L 154.57429 227.841379 
L 154.674612 226.261321 
L 154.707925 226.261321 
L 154.807483 221.521146 
L 154.93935 221.521146 
L 154.93935 219.414402 
L 155.135299 219.414402 
L 155.135299 218.36103 
L 155.264719 218.36103 
L 155.264719 216.780971 
L 155.710272 216.780971 
L 155.804285 210.460738 
L 155.959855 210.460738 
L 156.021696 209.407366 
L 156.083319 209.407366 
L 156.175347 207.827308 
L 156.297301 207.827308 
L 156.297301 206.773936 
L 156.448553 206.773936 
L 156.538679 204.140506 
L 156.598505 204.140506 
L 156.687861 202.560447 
L 156.717545 202.560447 
L 156.806295 197.820273 
L 156.98245 197.820273 
L 157.040776 195.713528 
L 157.185742 195.713528 
L 157.185742 195.186842 
L 157.300853 195.186842 
L 157.358125 194.13347 
L 157.415209 194.13347 
L 157.472107 190.973354 
L 157.528821 190.973354 
L 157.557108 188.339923 
L 157.641697 188.339923 
L 157.725877 175.699457 
L 157.753847 175.699457 
L 157.781772 172.012655 
L 158.003578 172.012655 
L 158.003578 170.959282 
L 158.222599 170.959282 
L 158.276927 169.379224 
L 158.438903 169.379224 
L 158.492562 165.692422 
L 158.599388 165.692422 
L 158.705563 159.372189 
L 158.75841 159.372189 
L 158.863624 155.685386 
L 158.915995 155.685386 
L 159.020266 151.471897 
L 159.046236 151.471897 
L 159.072168 146.731723 
L 159.201253 146.731723 
L 159.278248 140.938176 
L 159.380382 140.938176 
L 159.405822 139.884804 
L 159.608019 139.884804 
L 159.708245 137.778059 
L 159.956318 137.778059 
L 159.980933 135.671315 
L 160.079044 135.671315 
L 160.152267 130.93114 
L 160.225184 130.93114 
L 160.321935 127.244338 
L 160.537682 127.244338 
L 160.537682 124.084221 
L 160.656397 124.084221 
L 160.750792 119.870733 
L 160.844678 119.870733 
L 160.86807 116.710616 
L 161.007772 116.710616 
L 161.100288 114.077186 
L 161.12334 114.077186 
L 161.12334 113.5505 
L 161.238149 113.5505 
L 161.238149 111.443755 
L 161.374928 111.443755 
L 161.465522 103.543464 
L 161.488097 103.543464 
L 161.578106 97.749917 
L 161.600536 97.749917 
L 161.667653 92.483056 
L 161.801118 92.483056 
L 161.84538 90.376312 
L 161.933569 90.376312 
L 162.043181 85.636137 
L 162.065021 85.636137 
L 162.173813 82.476021 
L 162.238764 82.476021 
L 162.238764 80.369277 
L 162.474869 80.369277 
L 162.559939 77.20916 
L 162.770815 77.20916 
L 162.770815 76.682474 
L 162.958448 76.682474 
L 163.061823 72.995672 
L 163.082425 72.995672 
L 163.082425 71.415613 
L 163.205526 71.415613 
L 163.205526 68.255497 
L 163.449152 68.255497 
L 163.52961 65.09538 
L 163.569701 65.09538 
L 163.669525 62.46195 
L 163.689421 62.46195 
L 163.729146 60.355206 
L 163.906798 60.355206 
L 163.985177 58.775147 
L 164.160252 58.775147 
L 164.160252 58.248461 
L 164.276 58.248461 
L 164.333587 55.615031 
L 164.390984 55.615031 
L 164.390984 55.088345 
L 164.524182 55.088345 
L 164.618704 51.401542 
L 164.991751 51.401542 
L 164.991751 48.768112 
L 165.266391 48.768112 
L 165.266391 44.554623 
L 165.625977 44.554623 
L 165.732422 39.287762 
L 166.186323 39.287762 
L 166.186323 38.761076 
L 166.476842 38.761076 
L 166.476842 37.181018 
L 166.895472 37.181018 
L 166.895472 36.127646 
L 167.892273 36.127646 
L 167.892273 35.60096 
L 168.047843 35.60096 
L 168.094245 33.494215 
L 168.415645 33.494215 
L 168.415645 32.440843 
L 168.551595 32.440843 
L 168.551595 31.914157 
L 168.731229 31.914157 
L 168.731229 30.334099 
L 338.688 30.334099 
L 338.688 30.334099 
" style="fill:none;stroke:#00bfbf;stroke-linecap:square;stroke-width:1.5;"/>
   </g>
   <g id="line2d_31">
    <defs>
     <path d="M -6 0 
L 6 0 
M 0 6 
L 0 -6 
" id="m4f1adb4c36" style="stroke:#00bfbf;stroke-width:1.5;"/>
    </defs>
    <g>
     <use style="fill-opacity:0;stroke:#00bfbf;stroke-width:1.5;" x="157.725877" xlink:href="#m4f1adb4c36" y="181.493004"/>
     <use style="fill-opacity:0;stroke:#00bfbf;stroke-width:1.5;" x="164.618704" xlink:href="#m4f1adb4c36" y="54.034973"/>
     <use style="fill-opacity:0;stroke:#00bfbf;stroke-width:1.5;" x="168.731229" xlink:href="#m4f1adb4c36" y="30.334099"/>
     <use style="fill-opacity:0;stroke:#00bfbf;stroke-width:1.5;" x="168.731229" xlink:href="#m4f1adb4c36" y="30.334099"/>
     <use style="fill-opacity:0;stroke:#00bfbf;stroke-width:1.5;" x="338.688" xlink:href="#m4f1adb4c36" y="30.334099"/>
    </g>
   </g>
   <g id="line2d_32">
    <path style="fill:none;stroke:#00bfbf;stroke-linecap:square;stroke-width:1.5;"/>
    <g/>
   </g>
   <g id="line2d_33">
    <defs>
     <path d="M 0 1.5 
C 0.397805 1.5 0.77937 1.341951 1.06066 1.06066 
C 1.341951 0.77937 1.5 0.397805 1.5 0 
C 1.5 -0.397805 1.341951 -0.77937 1.06066 -1.06066 
C 0.77937 -1.341951 0.397805 -1.5 0 -1.5 
C -0.397805 -1.5 -0.77937 -1.341951 -1.06066 -1.06066 
C -1.341951 -0.77937 -1.5 -0.397805 -1.5 0 
C -1.5 0.397805 -1.341951 0.77937 -1.06066 1.06066 
C -0.77937 1.341951 -0.397805 1.5 0 1.5 
z
" id="m98717912af" style="stroke:#008000;"/>
    </defs>
    <g>
     <use style="fill:#008000;stroke:#008000;" x="181.543629" xlink:href="#m98717912af" y="30.334099"/>
     <use style="fill:#008000;stroke:#008000;" x="181.543629" xlink:href="#m98717912af" y="30.334099"/>
    </g>
   </g>
   <g id="line2d_34">
    <path d="M 92.34655 298.944 
L 92.34655 296.31057 
L 104.033617 296.31057 
L 104.033617 295.783884 
L 107.347841 295.783884 
L 107.347841 294.730511 
L 108.948899 294.730511 
L 108.948899 294.203825 
L 109.843417 294.203825 
L 109.843417 293.677139 
L 110.415248 293.677139 
L 110.415248 292.623767 
L 111.767808 292.623767 
L 111.767808 292.097081 
L 112.531694 292.097081 
L 112.531694 291.570395 
L 112.779064 291.570395 
L 112.779064 291.043709 
L 114.418861 291.043709 
L 114.418861 290.517023 
L 120.883236 290.517023 
L 120.883236 289.463651 
L 121.931406 289.463651 
L 121.931406 288.936964 
L 122.782271 288.936964 
L 122.782271 288.410278 
L 123.327293 288.410278 
L 123.327293 287.883592 
L 123.855796 287.883592 
L 123.855796 287.356906 
L 123.985457 287.356906 
L 123.985457 286.303534 
L 125.23165 286.303534 
L 125.23165 285.250162 
L 125.588781 285.250162 
L 125.588781 284.723476 
L 125.938745 284.723476 
L 125.938745 284.19679 
L 128.807571 284.19679 
L 128.905271 281.563359 
L 129.853291 281.563359 
L 129.945319 280.509987 
L 130.30865 280.509987 
L 130.30865 279.983301 
L 131.185181 279.983301 
L 131.185181 276.823185 
L 135.878591 276.823185 
L 135.878591 275.769812 
L 149.735275 275.769812 
L 149.735275 275.243126 
L 150.51433 275.243126 
L 150.51433 274.71644 
L 150.932558 274.71644 
L 150.932558 274.189754 
L 151.367883 274.189754 
L 151.367883 273.663068 
L 151.501723 273.663068 
L 151.501723 273.136382 
L 152.207228 273.136382 
L 152.207228 271.556324 
L 152.334802 271.556324 
L 152.360205 269.976266 
L 152.587184 269.976266 
L 152.587184 269.449579 
L 153.154164 269.449579 
L 153.178403 268.396207 
L 153.609024 268.396207 
L 153.609024 267.869521 
L 154.57429 267.869521 
L 154.57429 267.342835 
L 155.0376 267.342835 
L 155.0376 266.816149 
L 155.403849 266.816149 
L 155.403849 266.289463 
L 156.216093 266.289463 
L 156.216093 265.762777 
L 156.337763 265.762777 
L 156.337763 265.236091 
L 156.45859 265.236091 
L 156.45859 264.709405 
L 156.757045 264.709405 
L 156.757045 264.182719 
L 158.572743 264.182719 
L 158.572743 263.656033 
L 164.333587 263.656033 
L 164.333587 263.129347 
L 165.193576 263.129347 
L 165.193576 262.60266 
L 165.838222 262.60266 
L 165.838222 261.549288 
L 166.08262 261.549288 
L 166.163331 259.442544 
L 166.255117 259.442544 
L 166.323641 257.3358 
L 166.784816 257.3358 
L 166.784816 256.809114 
L 166.917519 256.809114 
L 166.950537 255.229055 
L 167.255733 255.229055 
L 167.363449 253.648997 
L 167.661564 253.648997 
L 167.724788 252.068939 
L 167.871425 252.068939 
L 167.944284 249.435508 
L 168.078792 249.435508 
L 168.161052 247.328764 
L 168.202038 247.328764 
L 168.263336 246.275392 
L 168.48627 246.275392 
L 168.496336 245.22202 
L 168.646632 245.22202 
L 168.756032 238.375101 
L 168.815417 238.375101 
L 168.815417 237.848415 
L 168.992367 237.848415 
L 168.992367 236.795043 
L 169.138466 236.795043 
L 169.16754 235.214984 
L 169.292968 235.214984 
L 169.379278 231.528182 
L 169.465162 231.528182 
L 169.493697 230.47481 
L 169.673338 230.47481 
L 169.748427 228.894751 
L 169.804532 228.894751 
L 169.906925 226.788007 
L 169.934746 226.788007 
L 170.008719 224.681263 
L 170.054794 224.681263 
L 170.155732 222.574518 
L 170.24699 222.574518 
L 170.28336 220.467774 
L 170.364915 220.467774 
L 170.464079 216.254285 
L 170.58055 216.254285 
L 170.625141 212.567483 
L 170.916612 212.567483 
L 170.969087 209.934052 
L 171.030109 209.934052 
L 171.116915 206.24725 
L 171.18605 206.24725 
L 171.237722 204.140506 
L 171.306381 204.140506 
L 171.408865 202.560447 
L 171.46837 202.560447 
L 171.536129 198.873645 
L 171.637275 198.873645 
L 171.746192 194.13347 
L 171.796233 194.13347 
L 171.879317 190.973354 
L 171.91244 190.973354 
L 172.019658 186.759865 
L 172.027878 186.759865 
L 172.12622 179.38626 
L 172.142557 179.38626 
L 172.224011 177.279515 
L 172.272701 177.279515 
L 172.369676 175.172771 
L 172.401882 175.172771 
L 172.490141 169.90591 
L 172.546075 169.90591 
L 172.649478 164.112363 
L 172.712807 164.112363 
L 172.799511 162.005619 
L 172.854463 162.005619 
L 172.948265 158.318817 
L 172.9872 158.318817 
L 173.09576 150.945211 
L 173.149788 150.945211 
L 173.203648 145.678351 
L 173.318507 145.678351 
L 173.409852 139.884804 
L 173.493167 139.884804 
L 173.591119 138.304745 
L 173.703462 138.304745 
L 173.792818 137.251373 
L 173.859536 137.251373 
L 173.962814 132.511199 
L 173.984866 132.511199 
L 174.087407 129.351082 
L 174.116595 129.351082 
L 174.189349 124.084221 
L 174.232857 124.084221 
L 174.290699 119.344047 
L 174.377103 119.344047 
L 174.448781 117.763988 
L 174.555749 117.763988 
L 174.569962 116.710616 
L 174.690307 116.710616 
L 174.781778 112.497128 
L 174.893703 112.497128 
L 174.997985 110.390383 
L 175.039523 110.390383 
L 175.142939 107.756953 
L 175.19099 107.756953 
L 175.300328 105.650209 
L 175.381884 105.650209 
L 175.483295 96.169859 
L 175.510238 96.169859 
L 175.617599 93.536429 
L 175.624287 93.536429 
L 175.711 89.849626 
L 175.77078 89.849626 
L 175.85017 87.216196 
L 175.883143 87.216196 
L 175.968581 82.476021 
L 176.125223 82.476021 
L 176.215951 79.842591 
L 176.319066 79.842591 
L 176.427962 72.468985 
L 176.472605 72.468985 
L 176.517133 67.202125 
L 176.643735 67.202125 
L 176.643735 66.675439 
L 176.781943 66.675439 
L 176.887995 61.935264 
L 176.93768 61.935264 
L 177.042792 60.881892 
L 177.067432 60.881892 
L 177.092038 58.775147 
L 177.214548 58.775147 
L 177.214548 57.721775 
L 177.820411 57.721775 
L 177.820411 57.195089 
L 177.967182 57.195089 
L 178.008058 56.141717 
L 178.112729 56.141717 
L 178.205245 54.561659 
L 178.348826 54.561659 
L 178.348826 53.508287 
L 178.491235 53.508287 
L 178.576125 51.401542 
L 178.63249 51.401542 
L 178.688673 49.294798 
L 178.744676 49.294798 
L 178.811643 47.188054 
L 179.060504 47.188054 
L 179.060504 46.661368 
L 179.208133 46.661368 
L 179.208133 46.134681 
L 179.558493 46.134681 
L 179.558493 45.607995 
L 179.686098 45.607995 
L 179.791727 42.974565 
L 179.917643 42.974565 
L 179.948981 41.921193 
L 180.356423 41.921193 
L 180.356423 41.394507 
L 180.51374 41.394507 
L 180.61951 38.23439 
L 180.689668 38.23439 
L 180.689668 35.60096 
L 181.182753 35.60096 
L 181.240998 32.967529 
L 181.500716 32.967529 
L 181.543629 30.334099 
L 338.688 30.334099 
L 338.688 30.334099 
" style="fill:none;stroke:#008000;stroke-linecap:square;stroke-width:1.5;"/>
   </g>
   <g id="line2d_35">
    <defs>
     <path d="M -0 6 
L 6 -6 
L -6 -6 
z
" id="mec586c29aa" style="stroke:#008000;stroke-linejoin:miter;stroke-width:1.5;"/>
    </defs>
    <g>
     <use style="fill-opacity:0;stroke:#008000;stroke-linejoin:miter;stroke-width:1.5;" x="165.838222" xlink:href="#mec586c29aa" y="262.60266"/>
     <use style="fill-opacity:0;stroke:#008000;stroke-linejoin:miter;stroke-width:1.5;" x="175.590821" xlink:href="#mec586c29aa" y="95.116487"/>
     <use style="fill-opacity:0;stroke:#008000;stroke-linejoin:miter;stroke-width:1.5;" x="181.543629" xlink:href="#mec586c29aa" y="31.914157"/>
     <use style="fill-opacity:0;stroke:#008000;stroke-linejoin:miter;stroke-width:1.5;" x="181.543629" xlink:href="#mec586c29aa" y="30.334099"/>
     <use style="fill-opacity:0;stroke:#008000;stroke-linejoin:miter;stroke-width:1.5;" x="338.688" xlink:href="#mec586c29aa" y="30.334099"/>
    </g>
   </g>
   <g id="line2d_36">
    <path style="fill:none;stroke:#008000;stroke-linecap:square;stroke-width:1.5;"/>
    <g/>
   </g>
   <g id="line2d_37">
    <defs>
     <path d="M 0 1.5 
C 0.397805 1.5 0.77937 1.341951 1.06066 1.06066 
C 1.341951 0.77937 1.5 0.397805 1.5 0 
C 1.5 -0.397805 1.341951 -0.77937 1.06066 -1.06066 
C 0.77937 -1.341951 0.397805 -1.5 0 -1.5 
C -0.397805 -1.5 -0.77937 -1.341951 -1.06066 -1.06066 
C -1.341951 -0.77937 -1.5 -0.397805 -1.5 0 
C -1.5 0.397805 -1.341951 0.77937 -1.06066 1.06066 
C -0.77937 1.341951 -0.397805 1.5 0 1.5 
z
" id="mec8fdbaa71" style="stroke:#0000ff;"/>
    </defs>
    <g>
     <use style="fill:#0000ff;stroke:#0000ff;" x="180.095517" xlink:href="#mec8fdbaa71" y="30.334099"/>
     <use style="fill:#0000ff;stroke:#0000ff;" x="180.095517" xlink:href="#mec8fdbaa71" y="30.334099"/>
    </g>
   </g>
   <g id="line2d_38">
    <path d="M 72.867545 298.944 
L 72.867545 298.417314 
L 79.938565 298.417314 
L 79.938565 297.363942 
L 83.438118 297.363942 
L 83.438118 296.31057 
L 87.643811 296.31057 
L 87.643811 295.783884 
L 100.040467 295.783884 
L 100.040467 295.257197 
L 103.372333 295.257197 
L 103.372333 293.677139 
L 105.732589 293.677139 
L 105.732589 292.623767 
L 107.811151 292.623767 
L 107.811151 291.570395 
L 109.843417 291.570395 
L 109.843417 291.043709 
L 111.974805 291.043709 
L 111.974805 290.517023 
L 115.835374 290.517023 
L 115.835374 289.990337 
L 117.820578 289.990337 
L 117.820578 289.463651 
L 118.470564 289.463651 
L 118.470564 288.410278 
L 118.994305 288.410278 
L 118.994305 287.356906 
L 119.80089 287.356906 
L 119.80089 286.83022 
L 120.852343 286.83022 
L 120.852343 286.303534 
L 121.931406 286.303534 
L 121.931406 285.776848 
L 123.985457 285.776848 
L 123.985457 285.250162 
L 124.891598 285.250162 
L 124.891598 284.723476 
L 125.183475 284.723476 
L 125.183475 284.19679 
L 125.752972 284.19679 
L 125.752972 283.670104 
L 126.70692 283.670104 
L 126.70692 282.090045 
L 129.908566 282.090045 
L 129.908566 281.563359 
L 144.53439 281.563359 
L 144.53439 281.036673 
L 146.474085 281.036673 
L 146.474085 280.509987 
L 147.082371 280.509987 
L 147.082371 279.456615 
L 147.509976 279.456615 
L 147.509976 278.929929 
L 147.729844 278.929929 
L 147.729844 278.403243 
L 147.907696 278.403243 
L 147.907696 277.876557 
L 148.064279 277.876557 
L 148.064279 277.349871 
L 148.334961 277.349871 
L 148.334961 276.823185 
L 149.610898 276.823185 
L 149.610898 276.296499 
L 149.85877 276.296499 
L 149.85877 275.769812 
L 150.598782 275.769812 
L 150.598782 275.243126 
L 151.113448 275.243126 
L 151.113448 274.71644 
L 151.276281 274.71644 
L 151.276281 274.189754 
L 152.55709 274.189754 
L 152.55709 273.663068 
L 153.221946 273.663068 
L 153.323128 272.609696 
L 153.380683 272.609696 
L 153.452361 271.556324 
L 153.722083 271.556324 
L 153.722083 271.029638 
L 153.946025 271.029638 
L 153.946025 270.502952 
L 154.344733 270.502952 
L 154.344733 269.976266 
L 154.787617 269.976266 
L 154.787617 269.449579 
L 155.386785 269.449579 
L 155.463441 268.396207 
L 156.003167 268.396207 
L 156.027868 267.342835 
L 156.514691 267.342835 
L 156.514691 266.816149 
L 156.658127 266.816149 
L 156.658127 266.289463 
L 157.15106 266.289463 
L 157.15106 265.762777 
L 159.16005 265.762777 
L 159.232092 264.709405 
L 159.668223 264.709405 
L 159.668223 264.182719 
L 160.083935 264.182719 
L 160.083935 263.656033 
L 160.336402 263.656033 
L 160.336402 263.129347 
L 160.746084 263.129347 
L 160.746084 262.60266 
L 161.109513 262.60266 
L 161.109513 262.075974 
L 161.320345 262.075974 
L 161.402155 261.022602 
L 161.636364 261.022602 
L 161.716709 259.96923 
L 162.191157 259.96923 
L 162.268992 258.915858 
L 162.355069 258.915858 
L 162.432178 256.809114 
L 162.483394 256.809114 
L 162.483394 256.282427 
L 162.703612 256.282427 
L 162.703612 255.755741 
L 163.16049 255.755741 
L 163.16049 255.229055 
L 163.533623 255.229055 
L 163.629664 253.648997 
L 163.7569 253.648997 
L 163.7569 253.122311 
L 163.969529 253.122311 
L 163.969529 252.595625 
L 164.310575 252.595625 
L 164.394804 250.488881 
L 164.440577 250.488881 
L 164.440577 249.962195 
L 164.622474 249.962195 
L 164.622474 249.435508 
L 164.965896 249.435508 
L 165.017568 247.85545 
L 165.360599 247.85545 
L 165.360599 247.328764 
L 165.483031 247.328764 
L 165.483031 246.802078 
L 165.732422 246.802078 
L 165.732422 246.275392 
L 166.398707 246.275392 
L 166.432722 245.22202 
L 166.541125 245.22202 
L 166.541125 244.695334 
L 166.775933 244.695334 
L 166.775933 244.168648 
L 166.935137 244.168648 
L 166.935137 243.641962 
L 167.203791 243.641962 
L 167.203791 243.115275 
L 167.333356 243.115275 
L 167.365597 242.061903 
L 167.481174 242.061903 
L 167.570541 239.955159 
L 167.835927 239.955159 
L 167.942207 238.901787 
L 167.954668 238.901787 
L 167.954668 238.375101 
L 168.128195 238.375101 
L 168.238843 237.321729 
L 168.470152 237.321729 
L 168.548585 235.74167 
L 168.638649 235.74167 
L 168.722291 234.688298 
L 168.799601 234.688298 
L 168.86475 233.634926 
L 168.970836 233.634926 
L 169.064596 232.581554 
L 169.111287 232.581554 
L 169.198498 231.528182 
L 169.291045 231.528182 
L 169.348639 229.948123 
L 169.411773 229.948123 
L 169.468969 227.841379 
L 169.543046 227.841379 
L 169.548731 226.788007 
L 169.707168 226.788007 
L 169.740933 225.207949 
L 169.936599 225.207949 
L 169.936599 224.681263 
L 170.124596 224.681263 
L 170.223309 223.101204 
L 170.288808 223.101204 
L 170.332339 219.941088 
L 170.419074 219.941088 
L 170.516139 216.780971 
L 170.607318 216.780971 
L 170.607318 216.254285 
L 170.724611 216.254285 
L 170.809423 215.200913 
L 170.835842 215.200913 
L 170.835842 214.674227 
L 170.977818 214.674227 
L 171.08745 211.514111 
L 171.108254 211.514111 
L 171.217072 207.300622 
L 171.237722 207.300622 
L 171.340609 203.613819 
L 171.35599 203.613819 
L 171.412271 202.560447 
L 171.46837 202.560447 
L 171.509057 200.980389 
L 171.61036 200.980389 
L 171.721118 196.7669 
L 171.751203 196.7669 
L 171.841148 195.186842 
L 171.871027 195.186842 
L 171.960357 193.080098 
L 172.029522 193.080098 
L 172.108232 188.866609 
L 172.147455 188.866609 
L 172.245127 180.439632 
L 172.264595 180.439632 
L 172.356777 177.279515 
L 172.380955 177.279515 
L 172.419569 172.012655 
L 172.530112 172.012655 
L 172.639959 166.219108 
L 172.658992 166.219108 
L 172.763306 163.058991 
L 172.786927 163.058991 
L 172.876395 159.898875 
L 172.899863 159.898875 
L 172.984089 153.051956 
L 173.09576 153.051956 
L 173.192889 148.838467 
L 173.234351 148.838467 
L 173.330714 144.624978 
L 173.380978 144.624978 
L 173.471997 138.304745 
L 173.508272 138.304745 
L 173.55351 137.251373 
L 173.630147 137.251373 
L 173.719878 134.091257 
L 173.746708 134.091257 
L 173.755642 131.984513 
L 173.858056 131.984513 
L 173.946625 124.084221 
L 174.003955 124.084221 
L 174.109302 116.18393 
L 174.144277 116.18393 
L 174.231408 110.390383 
L 174.261802 110.390383 
L 174.283479 109.337011 
L 174.37423 109.337011 
L 174.468799 102.490092 
L 174.498781 102.490092 
L 174.60119 98.276603 
L 174.639439 98.276603 
L 174.728361 94.589801 
L 174.753684 94.589801 
L 174.858804 91.95637 
L 174.917395 91.95637 
L 175.017382 87.216196 
L 175.079583 87.216196 
L 175.162175 82.476021 
L 175.207435 82.476021 
L 175.264868 78.262532 
L 175.358815 78.262532 
L 175.431987 76.155788 
L 175.521004 76.155788 
L 175.617599 69.308869 
L 175.649678 69.308869 
L 175.753531 64.568694 
L 175.817135 64.568694 
L 175.904213 61.935264 
L 175.975136 61.935264 
L 175.998714 60.881892 
L 176.135616 60.881892 
L 176.205606 59.82852 
L 176.25985 59.82852 
L 176.313925 56.668403 
L 176.413908 56.668403 
L 176.463685 54.034973 
L 176.604586 54.034973 
L 176.615961 52.9816 
L 176.860608 52.9816 
L 176.860608 52.454914 
L 176.994643 52.454914 
L 177.04649 51.401542 
L 177.157076 51.401542 
L 177.241386 49.821484 
L 177.270615 49.821484 
L 177.32529 47.71474 
L 177.459425 47.71474 
L 177.459425 47.188054 
L 177.599702 47.188054 
L 177.617605 46.134681 
L 177.785001 46.134681 
L 177.788545 45.081309 
L 177.908622 45.081309 
L 177.908622 44.554623 
L 178.135904 44.554623 
L 178.135904 44.027937 
L 178.401368 44.027937 
L 178.510513 41.921193 
L 178.537693 41.921193 
L 178.537693 41.394507 
L 178.75362 41.394507 
L 178.773727 38.761076 
L 179.141581 38.761076 
L 179.141581 38.23439 
L 179.272262 38.23439 
L 179.379341 36.127646 
L 179.476119 36.127646 
L 179.569163 33.494215 
L 179.718912 33.494215 
L 179.769598 31.387471 
L 179.970883 31.387471 
L 179.970883 30.860785 
L 180.095517 30.860785 
L 180.095517 30.334099 
L 338.688 30.334099 
L 338.688 30.334099 
" style="fill:none;stroke:#0000ff;stroke-linecap:square;stroke-width:1.5;"/>
   </g>
   <g id="line2d_39">
    <defs>
     <path d="M 0 -6 
L -1.347084 -1.854102 
L -5.706339 -1.854102 
L -2.179628 0.708204 
L -3.526712 4.854102 
L -0 2.291796 
L 3.526712 4.854102 
L 2.179628 0.708204 
L 5.706339 -1.854102 
L 1.347084 -1.854102 
z
" id="m3420437978" style="stroke:#0000ff;stroke-linejoin:bevel;stroke-width:1.5;"/>
    </defs>
    <g>
     <use style="fill-opacity:0;stroke:#0000ff;stroke-linejoin:bevel;stroke-width:1.5;" x="147.729844" xlink:href="#m3420437978" y="278.929929"/>
     <use style="fill-opacity:0;stroke:#0000ff;stroke-linejoin:bevel;stroke-width:1.5;" x="174.917395" xlink:href="#m3420437978" y="91.429684"/>
     <use style="fill-opacity:0;stroke:#0000ff;stroke-linejoin:bevel;stroke-width:1.5;" x="180.095517" xlink:href="#m3420437978" y="30.334099"/>
     <use style="fill-opacity:0;stroke:#0000ff;stroke-linejoin:bevel;stroke-width:1.5;" x="180.095517" xlink:href="#m3420437978" y="30.334099"/>
     <use style="fill-opacity:0;stroke:#0000ff;stroke-linejoin:bevel;stroke-width:1.5;" x="338.688" xlink:href="#m3420437978" y="30.334099"/>
    </g>
   </g>
   <g id="line2d_40">
    <path style="fill:none;stroke:#0000ff;stroke-linecap:square;stroke-width:1.5;"/>
    <g/>
   </g>
   <g id="line2d_41">
    <defs>
     <path d="M 0 1.5 
C 0.397805 1.5 0.77937 1.341951 1.06066 1.06066 
C 1.341951 0.77937 1.5 0.397805 1.5 0 
C 1.5 -0.397805 1.341951 -0.77937 1.06066 -1.06066 
C 0.77937 -1.341951 0.397805 -1.5 0 -1.5 
C -0.397805 -1.5 -0.77937 -1.341951 -1.06066 -1.06066 
C -1.341951 -0.77937 -1.5 -0.397805 -1.5 0 
C -1.5 0.397805 -1.341951 0.77937 -1.06066 1.06066 
C -0.77937 1.341951 -0.397805 1.5 0 1.5 
z
" id="m8db9bbe9ce" style="stroke:#000000;"/>
    </defs>
    <g>
     <use style="stroke:#000000;" x="188.577464" xlink:href="#m8db9bbe9ce" y="30.334099"/>
     <use style="stroke:#000000;" x="188.577464" xlink:href="#m8db9bbe9ce" y="30.334099"/>
    </g>
   </g>
   <g id="line2d_42">
    <path d="M 60.779557 298.944 
L 60.779557 298.417314 
L 74.921597 298.417314 
L 74.921597 297.363942 
L 89.135256 297.363942 
L 89.135256 296.31057 
L 93.197415 296.31057 
L 93.197415 295.257197 
L 99.575392 295.257197 
L 99.575392 294.203825 
L 100.641881 294.203825 
L 100.641881 293.677139 
L 101.079711 293.677139 
L 101.079711 293.150453 
L 101.646892 293.150453 
L 101.646892 292.623767 
L 104.474128 292.623767 
L 104.474128 292.097081 
L 106.168594 292.097081 
L 106.168594 291.570395 
L 107.111487 291.570395 
L 107.111487 291.043709 
L 110.358901 291.043709 
L 110.358901 290.517023 
L 112.356423 290.517023 
L 112.356423 289.990337 
L 119.40226 289.990337 
L 119.40226 289.463651 
L 122.362027 289.463651 
L 122.362027 288.936964 
L 125.147256 288.936964 
L 125.147256 288.410278 
L 146.791364 288.410278 
L 146.791364 287.883592 
L 146.999721 287.883592 
L 146.999721 287.356906 
L 147.429332 287.356906 
L 147.439433 286.303534 
L 147.640233 286.303534 
L 147.640233 285.776848 
L 148.209809 285.776848 
L 148.209809 285.250162 
L 149.628721 285.250162 
L 149.628721 284.723476 
L 150.111834 284.723476 
L 150.111834 284.19679 
L 150.258492 284.19679 
L 150.258492 283.670104 
L 151.525705 283.670104 
L 151.525705 283.143418 
L 152.329717 283.143418 
L 152.39064 282.090045 
L 152.751777 282.090045 
L 152.751777 281.563359 
L 153.736164 281.563359 
L 153.736164 281.036673 
L 153.973817 281.036673 
L 153.973817 280.509987 
L 154.873541 280.509987 
L 154.873541 279.983301 
L 155.070227 279.983301 
L 155.070227 279.456615 
L 155.316219 279.456615 
L 155.322646 278.403243 
L 156.132461 278.403243 
L 156.132461 277.876557 
L 156.484659 277.876557 
L 156.586556 276.823185 
L 157.145273 276.823185 
L 157.145273 276.296499 
L 157.26065 276.296499 
L 157.26065 275.769812 
L 157.876384 275.769812 
L 157.959442 274.71644 
L 157.998067 274.71644 
L 157.998067 274.189754 
L 158.668475 274.189754 
L 158.668475 273.663068 
L 159.527421 273.663068 
L 159.608019 272.609696 
L 159.668223 272.609696 
L 159.683242 271.556324 
L 160.000599 271.556324 
L 160.000599 271.029638 
L 160.504296 271.029638 
L 160.504296 270.502952 
L 160.877419 270.502952 
L 160.877419 269.976266 
L 161.040208 269.976266 
L 161.040208 269.449579 
L 161.415753 269.449579 
L 161.415753 268.922893 
L 161.596053 268.922893 
L 161.636364 267.869521 
L 161.915967 267.869521 
L 161.959939 266.816149 
L 162.051921 266.816149 
L 162.065021 265.762777 
L 162.669913 265.762777 
L 162.745644 264.709405 
L 162.854457 264.709405 
L 162.854457 264.182719 
L 162.979172 264.182719 
L 162.979172 263.656033 
L 163.356164 263.656033 
L 163.356164 263.129347 
L 163.549667 263.129347 
L 163.633654 261.549288 
L 164.187328 261.549288 
L 164.187328 261.022602 
L 164.565835 261.022602 
L 164.565835 260.495916 
L 164.77262 260.495916 
L 164.77262 259.96923 
L 164.995441 259.96923 
L 164.995441 259.442544 
L 165.295432 259.442544 
L 165.295432 258.915858 
L 165.76423 258.915858 
L 165.806549 257.862486 
L 166.217314 257.862486 
L 166.217314 257.3358 
L 166.48362 257.3358 
L 166.507321 256.282427 
L 166.695783 256.282427 
L 166.695783 255.755741 
L 166.878918 255.755741 
L 166.878918 255.229055 
L 167.128854 255.229055 
L 167.128854 254.702369 
L 167.839062 254.702369 
L 167.839062 254.175683 
L 167.995105 254.175683 
L 167.995105 253.648997 
L 168.155922 253.648997 
L 168.183606 252.595625 
L 168.364009 252.595625 
L 168.364009 252.068939 
L 168.599679 252.068939 
L 168.659597 251.015567 
L 169.233261 251.015567 
L 169.233261 250.488881 
L 169.59698 250.488881 
L 169.678981 249.435508 
L 169.947714 249.435508 
L 169.947714 248.908822 
L 170.239707 248.908822 
L 170.239707 248.382136 
L 170.612667 248.382136 
L 170.612667 247.85545 
L 170.885928 247.85545 
L 170.896454 246.802078 
L 171.009212 246.802078 
L 171.024887 245.748706 
L 171.209322 245.748706 
L 171.229981 244.695334 
L 171.330348 244.695334 
L 171.437793 243.641962 
L 171.49381 243.641962 
L 171.597729 242.588589 
L 171.61036 242.588589 
L 171.61036 242.061903 
L 171.728644 242.061903 
L 171.728644 241.535217 
L 172.130306 241.535217 
L 172.130306 241.008531 
L 172.566008 241.008531 
L 172.566008 240.481845 
L 173.135139 240.481845 
L 173.135139 239.955159 
L 173.383259 239.955159 
L 173.383259 239.428473 
L 173.72659 239.428473 
L 173.72659 238.901787 
L 174.109302 238.901787 
L 174.109302 238.375101 
L 174.231408 238.375101 
L 174.274811 236.795043 
L 174.380694 236.795043 
L 174.438764 234.688298 
L 174.50306 234.688298 
L 174.611823 232.581554 
L 174.694539 232.581554 
L 174.776865 230.47481 
L 174.8609 230.47481 
L 174.965377 227.841379 
L 174.994519 227.841379 
L 175.104402 226.261321 
L 175.277151 226.261321 
L 175.377137 224.681263 
L 175.393407 224.681263 
L 175.466434 222.047832 
L 175.583449 222.047832 
L 175.665696 220.467774 
L 175.753531 220.467774 
L 175.753531 219.941088 
L 175.908161 219.941088 
L 176.016376 218.36103 
L 176.207546 218.36103 
L 176.308139 217.307658 
L 176.365911 217.307658 
L 176.365911 216.780971 
L 176.667056 216.780971 
L 176.742477 214.674227 
L 176.899808 214.674227 
L 176.899808 214.147541 
L 177.020586 214.147541 
L 177.125814 212.040797 
L 177.142371 212.040797 
L 177.186447 210.460738 
L 177.327109 210.460738 
L 177.410603 209.407366 
L 177.439551 209.407366 
L 177.47206 208.353994 
L 177.558456 208.353994 
L 177.558456 207.827308 
L 177.681904 207.827308 
L 177.681904 207.300622 
L 177.910381 207.300622 
L 177.99814 205.193878 
L 178.358547 205.193878 
L 178.358547 204.667192 
L 178.691478 204.667192 
L 178.691478 204.140506 
L 178.902197 204.140506 
L 178.918812 203.087133 
L 179.100542 203.087133 
L 179.100542 202.560447 
L 179.30478 202.560447 
L 179.358302 200.980389 
L 179.42941 200.980389 
L 179.43586 199.927017 
L 179.562762 199.927017 
L 179.660121 198.873645 
L 179.706217 198.873645 
L 179.796466 196.240214 
L 179.890962 196.240214 
L 179.984949 195.186842 
L 180.013047 195.186842 
L 180.090859 193.080098 
L 180.129636 193.080098 
L 180.183778 190.973354 
L 180.322235 190.973354 
L 180.429168 187.813237 
L 180.461121 187.813237 
L 180.562675 183.599748 
L 180.576272 183.599748 
L 180.660636 180.439632 
L 180.761039 180.439632 
L 180.820706 179.38626 
L 180.877202 179.38626 
L 180.945347 177.279515 
L 180.989647 177.279515 
L 181.086712 174.646085 
L 181.101372 174.646085 
L 181.20219 170.432596 
L 181.225485 170.432596 
L 181.302428 166.745794 
L 181.341496 166.745794 
L 181.442376 162.532305 
L 181.463918 162.532305 
L 181.531243 159.372189 
L 181.592611 159.372189 
L 181.686386 157.265444 
L 181.720361 157.265444 
L 181.81908 154.105328 
L 181.833137 154.105328 
L 181.917243 149.891839 
L 181.959144 149.891839 
L 182.016247 147.258409 
L 182.081477 147.258409 
L 182.191948 143.571606 
L 182.197454 143.571606 
L 182.305828 139.358118 
L 182.344078 139.358118 
L 182.45426 136.724687 
L 182.466459 136.724687 
L 182.562402 135.144629 
L 182.61891 135.144629 
L 182.710012 133.037885 
L 182.780689 133.037885 
L 182.8126 131.457826 
L 182.898733 131.457826 
L 182.963384 129.351082 
L 183.03829 129.351082 
L 183.132451 125.66428 
L 183.155912 125.66428 
L 183.236481 122.504163 
L 183.301186 122.504163 
L 183.391371 120.924105 
L 183.442697 120.924105 
L 183.532156 117.237302 
L 183.557632 117.237302 
L 183.661694 113.5505 
L 183.670549 113.5505 
L 183.772684 108.283639 
L 183.797811 108.283639 
L 183.887969 104.07015 
L 183.911683 104.07015 
L 184.01862 99.856662 
L 184.038443 99.856662 
L 184.138452 98.276603 
L 184.206035 98.276603 
L 184.280684 95.643173 
L 184.325809 95.643173 
L 184.414496 92.483056 
L 184.45565 92.483056 
L 184.528037 88.796254 
L 184.633664 88.796254 
L 184.738656 85.636137 
L 184.76243 85.636137 
L 184.871374 82.476021 
L 184.953813 82.476021 
L 185.035863 80.895963 
L 185.091905 80.895963 
L 185.148928 79.842591 
L 185.279725 79.842591 
L 185.384348 76.682474 
L 185.391224 76.682474 
L 185.502015 74.049044 
L 185.517948 74.049044 
L 185.601922 70.888927 
L 185.642628 70.888927 
L 185.736118 65.622066 
L 185.773151 65.622066 
L 185.833579 62.988636 
L 185.900478 62.988636 
L 185.966012 60.881892 
L 186.058892 60.881892 
L 186.132622 58.775147 
L 186.263901 58.775147 
L 186.374717 56.668403 
L 186.409338 56.668403 
L 186.486985 55.615031 
L 186.543922 55.615031 
L 186.641249 51.928228 
L 186.677475 51.928228 
L 186.786759 50.34817 
L 186.79839 50.34817 
L 186.895363 47.188054 
L 186.946792 47.188054 
L 186.946792 46.661368 
L 187.062738 46.661368 
L 187.145826 45.081309 
L 187.176883 45.081309 
L 187.249134 41.921193 
L 187.426423 41.921193 
L 187.516933 40.867821 
L 187.577686 40.867821 
L 187.687516 39.287762 
L 187.788672 39.287762 
L 187.856448 38.23439 
L 187.906115 38.23439 
L 187.96553 36.654332 
L 188.093573 36.654332 
L 188.177764 34.547588 
L 188.297475 34.547588 
L 188.396128 32.967529 
L 188.453899 32.967529 
L 188.462549 31.914157 
L 188.567916 31.914157 
L 188.577464 30.334099 
L 338.688 30.334099 
L 338.688 30.334099 
" style="fill:none;stroke:#000000;stroke-linecap:square;stroke-width:1.5;"/>
   </g>
   <g id="line2d_43">
    <defs>
     <path d="M 0 6 
C 1.591219 6 3.117479 5.367802 4.242641 4.242641 
C 5.367802 3.117479 6 1.591219 6 0 
C 6 -1.591219 5.367802 -3.117479 4.242641 -4.242641 
C 3.117479 -5.367802 1.591219 -6 0 -6 
C -1.591219 -6 -3.117479 -5.367802 -4.242641 -4.242641 
C -5.367802 -3.117479 -6 -1.591219 -6 0 
C -6 1.591219 -5.367802 3.117479 -4.242641 4.242641 
C -3.117479 5.367802 -1.591219 6 0 6 
z
" id="mbf024a867a" style="stroke:#000000;stroke-width:1.5;"/>
    </defs>
    <g>
     <use style="fill-opacity:0;stroke:#000000;stroke-width:1.5;" x="153.973817" xlink:href="#mbf024a867a" y="280.509987"/>
     <use style="fill-opacity:0;stroke:#000000;stroke-width:1.5;" x="183.220916" xlink:href="#mbf024a867a" y="124.084221"/>
     <use style="fill-opacity:0;stroke:#000000;stroke-width:1.5;" x="188.577464" xlink:href="#mbf024a867a" y="30.334099"/>
     <use style="fill-opacity:0;stroke:#000000;stroke-width:1.5;" x="188.577464" xlink:href="#mbf024a867a" y="30.334099"/>
     <use style="fill-opacity:0;stroke:#000000;stroke-width:1.5;" x="338.688" xlink:href="#mbf024a867a" y="30.334099"/>
    </g>
   </g>
   <g id="line2d_44">
    <path style="fill:none;stroke:#000000;stroke-linecap:square;stroke-width:1.5;"/>
    <g/>
   </g>
   <g id="line2d_45">
    <path d="M 338.688 30.334099 
L 369.60768 293.571802 
" style="fill:none;stroke:#000000;stroke-linecap:square;stroke-width:1.5;"/>
    <g>
     <use style="fill-opacity:0;stroke:#000000;stroke-width:1.5;" x="338.688" xlink:href="#mbf024a867a" y="30.334099"/>
     <use style="fill-opacity:0;stroke:#000000;stroke-width:1.5;" x="369.60768" xlink:href="#mbf024a867a" y="293.571802"/>
    </g>
   </g>
   <g id="line2d_46">
    <path d="M 338.688 30.334099 
L 369.60768 207.616634 
" style="fill:none;stroke:#008000;stroke-linecap:square;stroke-width:1.5;"/>
    <g>
     <use style="fill-opacity:0;stroke:#008000;stroke-linejoin:miter;stroke-width:1.5;" x="338.688" xlink:href="#mec586c29aa" y="30.334099"/>
     <use style="fill-opacity:0;stroke:#008000;stroke-linejoin:miter;stroke-width:1.5;" x="369.60768" xlink:href="#mec586c29aa" y="207.616634"/>
    </g>
   </g>
   <g id="line2d_47">
    <path d="M 338.688 30.334099 
L 369.60768 121.661465 
" style="fill:none;stroke:#0000ff;stroke-linecap:square;stroke-width:1.5;"/>
    <g>
     <use style="fill-opacity:0;stroke:#0000ff;stroke-linejoin:bevel;stroke-width:1.5;" x="338.688" xlink:href="#m3420437978" y="30.334099"/>
     <use style="fill-opacity:0;stroke:#0000ff;stroke-linejoin:bevel;stroke-width:1.5;" x="369.60768" xlink:href="#m3420437978" y="121.661465"/>
    </g>
   </g>
   <g id="line2d_48">
    <path d="M 338.688 30.334099 
L 369.60768 35.706297 
" style="fill:none;stroke:#00bfbf;stroke-linecap:square;stroke-width:1.5;"/>
    <g>
     <use style="fill-opacity:0;stroke:#00bfbf;stroke-width:1.5;" x="338.688" xlink:href="#m4f1adb4c36" y="30.334099"/>
     <use style="fill-opacity:0;stroke:#00bfbf;stroke-width:1.5;" x="369.60768" xlink:href="#m4f1adb4c36" y="35.706297"/>
    </g>
   </g>
   <g id="line2d_49">
    <path d="M 338.688 298.944 
L 338.688 30.334099 
" style="fill:none;stroke:#000000;stroke-linecap:square;stroke-width:1.5;"/>
   </g>
   <g id="patch_3">
    <path d="M 57.6 298.944 
L 57.6 27.648 
" style="fill:none;stroke:#000000;stroke-linecap:square;stroke-linejoin:miter;stroke-width:0.8;"/>
   </g>
   <g id="patch_4">
    <path d="M 338.688 298.944 
L 338.688 27.648 
" style="fill:none;stroke:#000000;stroke-linecap:square;stroke-linejoin:miter;stroke-width:0.8;"/>
   </g>
   <g id="patch_5">
    <path d="M 57.6 298.944 
L 338.688 298.944 
" style="fill:none;stroke:#000000;stroke-linecap:square;stroke-linejoin:miter;stroke-width:0.8;"/>
   </g>
   <g id="patch_6">
    <path d="M 57.6 27.648 
L 338.688 27.648 
" style="fill:none;stroke:#000000;stroke-linecap:square;stroke-linejoin:miter;stroke-width:0.8;"/>
   </g>
   <g id="text_13">
    <!-- 10-D -->
    <g transform="translate(375.22944 298.262739)scale(0.17 -0.17)">
     <defs>
      <path d="M 19.671875 64.796875 
L 19.671875 8.109375 
L 31.59375 8.109375 
Q 46.6875 8.109375 53.6875 14.9375 
Q 60.6875 21.78125 60.6875 36.53125 
Q 60.6875 51.171875 53.6875 57.984375 
Q 46.6875 64.796875 31.59375 64.796875 
z
M 9.8125 72.90625 
L 30.078125 72.90625 
Q 51.265625 72.90625 61.171875 64.09375 
Q 71.09375 55.28125 71.09375 36.53125 
Q 71.09375 17.671875 61.125 8.828125 
Q 51.171875 0 30.078125 0 
L 9.8125 0 
z
" id="DejaVuSans-68"/>
     </defs>
     <use xlink:href="#DejaVuSans-49"/>
     <use x="63.623047" xlink:href="#DejaVuSans-48"/>
     <use x="127.246094" xlink:href="#DejaVuSans-45"/>
     <use x="163.330078" xlink:href="#DejaVuSans-68"/>
    </g>
   </g>
   <g id="text_14">
    <!-- 3-D -->
    <g transform="translate(375.22944 212.307571)scale(0.17 -0.17)">
     <defs>
      <path d="M 40.578125 39.3125 
Q 47.65625 37.796875 51.625 33 
Q 55.609375 28.21875 55.609375 21.1875 
Q 55.609375 10.40625 48.1875 4.484375 
Q 40.765625 -1.421875 27.09375 -1.421875 
Q 22.515625 -1.421875 17.65625 -0.515625 
Q 12.796875 0.390625 7.625 2.203125 
L 7.625 11.71875 
Q 11.71875 9.328125 16.59375 8.109375 
Q 21.484375 6.890625 26.8125 6.890625 
Q 36.078125 6.890625 40.9375 10.546875 
Q 45.796875 14.203125 45.796875 21.1875 
Q 45.796875 27.640625 41.28125 31.265625 
Q 36.765625 34.90625 28.71875 34.90625 
L 20.21875 34.90625 
L 20.21875 43.015625 
L 29.109375 43.015625 
Q 36.375 43.015625 40.234375 45.921875 
Q 44.09375 48.828125 44.09375 54.296875 
Q 44.09375 59.90625 40.109375 62.90625 
Q 36.140625 65.921875 28.71875 65.921875 
Q 24.65625 65.921875 20.015625 65.03125 
Q 15.375 64.15625 9.8125 62.3125 
L 9.8125 71.09375 
Q 15.4375 72.65625 20.34375 73.4375 
Q 25.25 74.21875 29.59375 74.21875 
Q 40.828125 74.21875 47.359375 69.109375 
Q 53.90625 64.015625 53.90625 55.328125 
Q 53.90625 49.265625 50.4375 45.09375 
Q 46.96875 40.921875 40.578125 39.3125 
z
" id="DejaVuSans-51"/>
     </defs>
     <use xlink:href="#DejaVuSans-51"/>
     <use x="63.623047" xlink:href="#DejaVuSans-45"/>
     <use x="99.707031" xlink:href="#DejaVuSans-68"/>
    </g>
   </g>
   <g id="text_15">
    <!-- 5-D -->
    <g transform="translate(375.22944 126.352403)scale(0.17 -0.17)">
     <defs>
      <path d="M 10.796875 72.90625 
L 49.515625 72.90625 
L 49.515625 64.59375 
L 19.828125 64.59375 
L 19.828125 46.734375 
Q 21.96875 47.46875 24.109375 47.828125 
Q 26.265625 48.1875 28.421875 48.1875 
Q 40.625 48.1875 47.75 41.5 
Q 54.890625 34.8125 54.890625 23.390625 
Q 54.890625 11.625 47.5625 5.09375 
Q 40.234375 -1.421875 26.90625 -1.421875 
Q 22.3125 -1.421875 17.546875 -0.640625 
Q 12.796875 0.140625 7.71875 1.703125 
L 7.71875 11.625 
Q 12.109375 9.234375 16.796875 8.0625 
Q 21.484375 6.890625 26.703125 6.890625 
Q 35.15625 6.890625 40.078125 11.328125 
Q 45.015625 15.765625 45.015625 23.390625 
Q 45.015625 31 40.078125 35.4375 
Q 35.15625 39.890625 26.703125 39.890625 
Q 22.75 39.890625 18.8125 39.015625 
Q 14.890625 38.140625 10.796875 36.28125 
z
" id="DejaVuSans-53"/>
     </defs>
     <use xlink:href="#DejaVuSans-53"/>
     <use x="63.623047" xlink:href="#DejaVuSans-45"/>
     <use x="99.707031" xlink:href="#DejaVuSans-68"/>
    </g>
   </g>
   <g id="text_16">
    <!-- 2-D -->
    <g transform="translate(375.22944 40.397235)scale(0.17 -0.17)">
     <use xlink:href="#DejaVuSans-50"/>
     <use x="63.623047" xlink:href="#DejaVuSans-45"/>
     <use x="99.707031" xlink:href="#DejaVuSans-68"/>
    </g>
   </g>
   <g id="text_17">
    <!-- bbob f11 -->
    <g transform="translate(60.41088 38.111366)scale(0.102 -0.102)">
     <defs>
      <path d="M 48.6875 27.296875 
Q 48.6875 37.203125 44.609375 42.84375 
Q 40.53125 48.484375 33.40625 48.484375 
Q 26.265625 48.484375 22.1875 42.84375 
Q 18.109375 37.203125 18.109375 27.296875 
Q 18.109375 17.390625 22.1875 11.75 
Q 26.265625 6.109375 33.40625 6.109375 
Q 40.53125 6.109375 44.609375 11.75 
Q 48.6875 17.390625 48.6875 27.296875 
z
M 18.109375 46.390625 
Q 20.953125 51.265625 25.265625 53.625 
Q 29.59375 56 35.59375 56 
Q 45.5625 56 51.78125 48.09375 
Q 58.015625 40.1875 58.015625 27.296875 
Q 58.015625 14.40625 51.78125 6.484375 
Q 45.5625 -1.421875 35.59375 -1.421875 
Q 29.59375 -1.421875 25.265625 0.953125 
Q 20.953125 3.328125 18.109375 8.203125 
L 18.109375 0 
L 9.078125 0 
L 9.078125 75.984375 
L 18.109375 75.984375 
z
" id="DejaVuSans-98"/>
     </defs>
     <use xlink:href="#DejaVuSans-98"/>
     <use x="63.476562" xlink:href="#DejaVuSans-98"/>
     <use x="126.953125" xlink:href="#DejaVuSans-111"/>
     <use x="188.134766" xlink:href="#DejaVuSans-98"/>
     <use x="251.611328" xlink:href="#DejaVuSans-32"/>
     <use x="283.398438" xlink:href="#DejaVuSans-102"/>
     <use x="318.603516" xlink:href="#DejaVuSans-49"/>
     <use x="382.226562" xlink:href="#DejaVuSans-49"/>
    </g>
    <!-- 51 targets: 100..1e-08 -->
    <g transform="translate(60.41088 49.533135)scale(0.102 -0.102)">
     <defs>
      <path d="M 11.71875 12.40625 
L 22.015625 12.40625 
L 22.015625 0 
L 11.71875 0 
z
M 11.71875 51.703125 
L 22.015625 51.703125 
L 22.015625 39.3125 
L 11.71875 39.3125 
z
" id="DejaVuSans-58"/>
     </defs>
     <use xlink:href="#DejaVuSans-53"/>
     <use x="63.623047" xlink:href="#DejaVuSans-49"/>
     <use x="127.246094" xlink:href="#DejaVuSans-32"/>
     <use x="159.033203" xlink:href="#DejaVuSans-116"/>
     <use x="198.242188" xlink:href="#DejaVuSans-97"/>
     <use x="259.521484" xlink:href="#DejaVuSans-114"/>
     <use x="298.884766" xlink:href="#DejaVuSans-103"/>
     <use x="362.361328" xlink:href="#DejaVuSans-101"/>
     <use x="423.884766" xlink:href="#DejaVuSans-116"/>
     <use x="463.09375" xlink:href="#DejaVuSans-115"/>
     <use x="515.193359" xlink:href="#DejaVuSans-58"/>
     <use x="548.884766" xlink:href="#DejaVuSans-32"/>
     <use x="580.671875" xlink:href="#DejaVuSans-49"/>
     <use x="644.294922" xlink:href="#DejaVuSans-48"/>
     <use x="707.917969" xlink:href="#DejaVuSans-48"/>
     <use x="771.541016" xlink:href="#DejaVuSans-46"/>
     <use x="803.328125" xlink:href="#DejaVuSans-46"/>
     <use x="835.115234" xlink:href="#DejaVuSans-49"/>
     <use x="898.738281" xlink:href="#DejaVuSans-101"/>
     <use x="960.261719" xlink:href="#DejaVuSans-45"/>
     <use x="996.345703" xlink:href="#DejaVuSans-48"/>
     <use x="1059.96875" xlink:href="#DejaVuSans-56"/>
    </g>
    <!-- 15 instances -->
    <g transform="translate(60.41088 60.954904)scale(0.102 -0.102)">
     <use xlink:href="#DejaVuSans-49"/>
     <use x="63.623047" xlink:href="#DejaVuSans-53"/>
     <use x="127.246094" xlink:href="#DejaVuSans-32"/>
     <use x="159.033203" xlink:href="#DejaVuSans-105"/>
     <use x="186.816406" xlink:href="#DejaVuSans-110"/>
     <use x="250.195312" xlink:href="#DejaVuSans-115"/>
     <use x="302.294922" xlink:href="#DejaVuSans-116"/>
     <use x="341.503906" xlink:href="#DejaVuSans-97"/>
     <use x="402.783203" xlink:href="#DejaVuSans-110"/>
     <use x="466.162109" xlink:href="#DejaVuSans-99"/>
     <use x="521.142578" xlink:href="#DejaVuSans-101"/>
     <use x="582.666016" xlink:href="#DejaVuSans-115"/>
    </g>
   </g>
   <g id="text_18">
    <!-- v2.4 -->
    <g style="fill:#808080;" transform="translate(187.233062 294.151352)scale(0.1 -0.1)">
     <use xlink:href="#DejaVuSans-118"/>
     <use x="59.179688" xlink:href="#DejaVuSans-50"/>
     <use x="122.802734" xlink:href="#DejaVuSans-46"/>
     <use x="154.589844" xlink:href="#DejaVuSans-52"/>
    </g>
   </g>
   <g id="text_19">
    <!-- 11 Discus -->
    <g transform="translate(149.508062 21.648)scale(0.2 -0.2)">
     <use xlink:href="#DejaVuSans-49"/>
     <use x="63.623047" xlink:href="#DejaVuSans-49"/>
     <use x="127.246094" xlink:href="#DejaVuSans-32"/>
     <use x="159.033203" xlink:href="#DejaVuSans-68"/>
     <use x="236.035156" xlink:href="#DejaVuSans-105"/>
     <use x="263.818359" xlink:href="#DejaVuSans-115"/>
     <use x="315.917969" xlink:href="#DejaVuSans-99"/>
     <use x="370.898438" xlink:href="#DejaVuSans-117"/>
     <use x="434.277344" xlink:href="#DejaVuSans-115"/>
    </g>
   </g>
  </g>
 </g>
 <defs>
  <clipPath id="p38fb6ae603">
   <rect height="271.296" width="281.088" x="57.6" y="27.648"/>
  </clipPath>
 </defs>
</svg>
