<?xml version="1.0" encoding="utf-8" standalone="no"?>
<!DOCTYPE svg PUBLIC "-//W3C//DTD SVG 1.1//EN"
  "http://www.w3.org/Graphics/SVG/1.1/DTD/svg11.dtd">
<!-- Created with matplotlib (https://matplotlib.org/) -->
<svg height="345.6pt" version="1.1" viewBox="0 0 460.8 345.6" width="460.8pt" xmlns="http://www.w3.org/2000/svg" xmlns:xlink="http://www.w3.org/1999/xlink">
 <metadata>
  <rdf:RDF xmlns:cc="http://creativecommons.org/ns#" xmlns:dc="http://purl.org/dc/elements/1.1/" xmlns:rdf="http://www.w3.org/1999/02/22-rdf-syntax-ns#">
   <cc:Work>
    <dc:type rdf:resource="http://purl.org/dc/dcmitype/StillImage"/>
    <dc:date>2021-06-17T01:39:24.907439</dc:date>
    <dc:format>image/svg+xml</dc:format>
    <dc:creator>
     <cc:Agent>
      <dc:title>Matplotlib v3.3.4, https://matplotlib.org/</dc:title>
     </cc:Agent>
    </dc:creator>
   </cc:Work>
  </rdf:RDF>
 </metadata>
 <defs>
  <style type="text/css">*{stroke-linecap:butt;stroke-linejoin:round;}</style>
 </defs>
 <g id="figure_1">
  <g id="patch_1">
   <path d="M 0 345.6 
L 460.8 345.6 
L 460.8 0 
L 0 0 
z
" style="fill:#ffffff;"/>
  </g>
  <g id="axes_1">
   <g id="patch_2">
    <path d="M 57.6 298.944 
L 338.688 298.944 
L 338.688 27.648 
L 57.6 27.648 
z
" style="fill:#ffffff;"/>
   </g>
   <g id="matplotlib.axis_1">
    <g id="xtick_1">
     <g id="line2d_1">
      <path clip-path="url(#pe3d6f7bca3)" d="M 57.6 298.944 
L 57.6 27.648 
" style="fill:none;stroke:#b0b0b0;stroke-linecap:square;stroke-width:0.8;"/>
     </g>
     <g id="line2d_2">
      <defs>
       <path d="M 0 0 
L 0 3.5 
" id="mf4589cb9a9" style="stroke:#000000;stroke-width:0.8;"/>
      </defs>
      <g>
       <use style="stroke:#000000;stroke-width:0.8;" x="57.6" xlink:href="#mf4589cb9a9" y="298.944"/>
      </g>
     </g>
     <g id="text_1">
      <!-- 0 -->
      <g transform="translate(51.2375 321.140875)scale(0.2 -0.2)">
       <defs>
        <path d="M 31.78125 66.40625 
Q 24.171875 66.40625 20.328125 58.90625 
Q 16.5 51.421875 16.5 36.375 
Q 16.5 21.390625 20.328125 13.890625 
Q 24.171875 6.390625 31.78125 6.390625 
Q 39.453125 6.390625 43.28125 13.890625 
Q 47.125 21.390625 47.125 36.375 
Q 47.125 51.421875 43.28125 58.90625 
Q 39.453125 66.40625 31.78125 66.40625 
z
M 31.78125 74.21875 
Q 44.046875 74.21875 50.515625 64.515625 
Q 56.984375 54.828125 56.984375 36.375 
Q 56.984375 17.96875 50.515625 8.265625 
Q 44.046875 -1.421875 31.78125 -1.421875 
Q 19.53125 -1.421875 13.0625 8.265625 
Q 6.59375 17.96875 6.59375 36.375 
Q 6.59375 54.828125 13.0625 64.515625 
Q 19.53125 74.21875 31.78125 74.21875 
z
" id="DejaVuSans-48"/>
       </defs>
       <use xlink:href="#DejaVuSans-48"/>
      </g>
     </g>
    </g>
    <g id="xtick_2">
     <g id="line2d_3">
      <path clip-path="url(#pe3d6f7bca3)" d="M 137.910857 298.944 
L 137.910857 27.648 
" style="fill:none;stroke:#b0b0b0;stroke-linecap:square;stroke-width:0.8;"/>
     </g>
     <g id="line2d_4">
      <g>
       <use style="stroke:#000000;stroke-width:0.8;" x="137.910857" xlink:href="#mf4589cb9a9" y="298.944"/>
      </g>
     </g>
     <g id="text_2">
      <!-- 2 -->
      <g transform="translate(131.548357 321.140875)scale(0.2 -0.2)">
       <defs>
        <path d="M 19.1875 8.296875 
L 53.609375 8.296875 
L 53.609375 0 
L 7.328125 0 
L 7.328125 8.296875 
Q 12.9375 14.109375 22.625 23.890625 
Q 32.328125 33.6875 34.8125 36.53125 
Q 39.546875 41.84375 41.421875 45.53125 
Q 43.3125 49.21875 43.3125 52.78125 
Q 43.3125 58.59375 39.234375 62.25 
Q 35.15625 65.921875 28.609375 65.921875 
Q 23.96875 65.921875 18.8125 64.3125 
Q 13.671875 62.703125 7.8125 59.421875 
L 7.8125 69.390625 
Q 13.765625 71.78125 18.9375 73 
Q 24.125 74.21875 28.421875 74.21875 
Q 39.75 74.21875 46.484375 68.546875 
Q 53.21875 62.890625 53.21875 53.421875 
Q 53.21875 48.921875 51.53125 44.890625 
Q 49.859375 40.875 45.40625 35.40625 
Q 44.1875 33.984375 37.640625 27.21875 
Q 31.109375 20.453125 19.1875 8.296875 
z
" id="DejaVuSans-50"/>
       </defs>
       <use xlink:href="#DejaVuSans-50"/>
      </g>
     </g>
    </g>
    <g id="xtick_3">
     <g id="line2d_5">
      <path clip-path="url(#pe3d6f7bca3)" d="M 218.221714 298.944 
L 218.221714 27.648 
" style="fill:none;stroke:#b0b0b0;stroke-linecap:square;stroke-width:0.8;"/>
     </g>
     <g id="line2d_6">
      <g>
       <use style="stroke:#000000;stroke-width:0.8;" x="218.221714" xlink:href="#mf4589cb9a9" y="298.944"/>
      </g>
     </g>
     <g id="text_3">
      <!-- 4 -->
      <g transform="translate(211.859214 321.140875)scale(0.2 -0.2)">
       <defs>
        <path d="M 37.796875 64.3125 
L 12.890625 25.390625 
L 37.796875 25.390625 
z
M 35.203125 72.90625 
L 47.609375 72.90625 
L 47.609375 25.390625 
L 58.015625 25.390625 
L 58.015625 17.1875 
L 47.609375 17.1875 
L 47.609375 0 
L 37.796875 0 
L 37.796875 17.1875 
L 4.890625 17.1875 
L 4.890625 26.703125 
z
" id="DejaVuSans-52"/>
       </defs>
       <use xlink:href="#DejaVuSans-52"/>
      </g>
     </g>
    </g>
    <g id="xtick_4">
     <g id="line2d_7">
      <path clip-path="url(#pe3d6f7bca3)" d="M 298.532571 298.944 
L 298.532571 27.648 
" style="fill:none;stroke:#b0b0b0;stroke-linecap:square;stroke-width:0.8;"/>
     </g>
     <g id="line2d_8">
      <g>
       <use style="stroke:#000000;stroke-width:0.8;" x="298.532571" xlink:href="#mf4589cb9a9" y="298.944"/>
      </g>
     </g>
     <g id="text_4">
      <!-- 6 -->
      <g transform="translate(292.170071 321.140875)scale(0.2 -0.2)">
       <defs>
        <path d="M 33.015625 40.375 
Q 26.375 40.375 22.484375 35.828125 
Q 18.609375 31.296875 18.609375 23.390625 
Q 18.609375 15.53125 22.484375 10.953125 
Q 26.375 6.390625 33.015625 6.390625 
Q 39.65625 6.390625 43.53125 10.953125 
Q 47.40625 15.53125 47.40625 23.390625 
Q 47.40625 31.296875 43.53125 35.828125 
Q 39.65625 40.375 33.015625 40.375 
z
M 52.59375 71.296875 
L 52.59375 62.3125 
Q 48.875 64.0625 45.09375 64.984375 
Q 41.3125 65.921875 37.59375 65.921875 
Q 27.828125 65.921875 22.671875 59.328125 
Q 17.53125 52.734375 16.796875 39.40625 
Q 19.671875 43.65625 24.015625 45.921875 
Q 28.375 48.1875 33.59375 48.1875 
Q 44.578125 48.1875 50.953125 41.515625 
Q 57.328125 34.859375 57.328125 23.390625 
Q 57.328125 12.15625 50.6875 5.359375 
Q 44.046875 -1.421875 33.015625 -1.421875 
Q 20.359375 -1.421875 13.671875 8.265625 
Q 6.984375 17.96875 6.984375 36.375 
Q 6.984375 53.65625 15.1875 63.9375 
Q 23.390625 74.21875 37.203125 74.21875 
Q 40.921875 74.21875 44.703125 73.484375 
Q 48.484375 72.75 52.59375 71.296875 
z
" id="DejaVuSans-54"/>
       </defs>
       <use xlink:href="#DejaVuSans-54"/>
      </g>
     </g>
    </g>
    <g id="xtick_5">
     <g id="line2d_9">
      <path clip-path="url(#pe3d6f7bca3)" d="M 97.755429 298.944 
L 97.755429 27.648 
" style="fill:none;stroke:#b0b0b0;stroke-linecap:square;stroke-width:0.8;"/>
     </g>
     <g id="line2d_10">
      <defs>
       <path d="M 0 0 
L 0 2 
" id="mffc1b409ee" style="stroke:#000000;stroke-width:0.6;"/>
      </defs>
      <g>
       <use style="stroke:#000000;stroke-width:0.6;" x="97.755429" xlink:href="#mffc1b409ee" y="298.944"/>
      </g>
     </g>
    </g>
    <g id="xtick_6">
     <g id="line2d_11">
      <path clip-path="url(#pe3d6f7bca3)" d="M 178.066286 298.944 
L 178.066286 27.648 
" style="fill:none;stroke:#b0b0b0;stroke-linecap:square;stroke-width:0.8;"/>
     </g>
     <g id="line2d_12">
      <g>
       <use style="stroke:#000000;stroke-width:0.6;" x="178.066286" xlink:href="#mffc1b409ee" y="298.944"/>
      </g>
     </g>
    </g>
    <g id="xtick_7">
     <g id="line2d_13">
      <path clip-path="url(#pe3d6f7bca3)" d="M 258.377143 298.944 
L 258.377143 27.648 
" style="fill:none;stroke:#b0b0b0;stroke-linecap:square;stroke-width:0.8;"/>
     </g>
     <g id="line2d_14">
      <g>
       <use style="stroke:#000000;stroke-width:0.6;" x="258.377143" xlink:href="#mffc1b409ee" y="298.944"/>
      </g>
     </g>
    </g>
    <g id="xtick_8">
     <g id="line2d_15">
      <path clip-path="url(#pe3d6f7bca3)" d="M 338.688 298.944 
L 338.688 27.648 
" style="fill:none;stroke:#b0b0b0;stroke-linecap:square;stroke-width:0.8;"/>
     </g>
     <g id="line2d_16">
      <g>
       <use style="stroke:#000000;stroke-width:0.6;" x="338.688" xlink:href="#mffc1b409ee" y="298.944"/>
      </g>
     </g>
    </g>
    <g id="text_5">
     <!-- log10(# f-evals / dimension) -->
     <g transform="translate(77.764078 342.217594)scale(0.17 -0.17)">
      <defs>
       <path d="M 9.421875 75.984375 
L 18.40625 75.984375 
L 18.40625 0 
L 9.421875 0 
z
" id="DejaVuSans-108"/>
       <path d="M 30.609375 48.390625 
Q 23.390625 48.390625 19.1875 42.75 
Q 14.984375 37.109375 14.984375 27.296875 
Q 14.984375 17.484375 19.15625 11.84375 
Q 23.34375 6.203125 30.609375 6.203125 
Q 37.796875 6.203125 41.984375 11.859375 
Q 46.1875 17.53125 46.1875 27.296875 
Q 46.1875 37.015625 41.984375 42.703125 
Q 37.796875 48.390625 30.609375 48.390625 
z
M 30.609375 56 
Q 42.328125 56 49.015625 48.375 
Q 55.71875 40.765625 55.71875 27.296875 
Q 55.71875 13.875 49.015625 6.21875 
Q 42.328125 -1.421875 30.609375 -1.421875 
Q 18.84375 -1.421875 12.171875 6.21875 
Q 5.515625 13.875 5.515625 27.296875 
Q 5.515625 40.765625 12.171875 48.375 
Q 18.84375 56 30.609375 56 
z
" id="DejaVuSans-111"/>
       <path d="M 45.40625 27.984375 
Q 45.40625 37.75 41.375 43.109375 
Q 37.359375 48.484375 30.078125 48.484375 
Q 22.859375 48.484375 18.828125 43.109375 
Q 14.796875 37.75 14.796875 27.984375 
Q 14.796875 18.265625 18.828125 12.890625 
Q 22.859375 7.515625 30.078125 7.515625 
Q 37.359375 7.515625 41.375 12.890625 
Q 45.40625 18.265625 45.40625 27.984375 
z
M 54.390625 6.78125 
Q 54.390625 -7.171875 48.1875 -13.984375 
Q 42 -20.796875 29.203125 -20.796875 
Q 24.46875 -20.796875 20.265625 -20.09375 
Q 16.0625 -19.390625 12.109375 -17.921875 
L 12.109375 -9.1875 
Q 16.0625 -11.328125 19.921875 -12.34375 
Q 23.78125 -13.375 27.78125 -13.375 
Q 36.625 -13.375 41.015625 -8.765625 
Q 45.40625 -4.15625 45.40625 5.171875 
L 45.40625 9.625 
Q 42.625 4.78125 38.28125 2.390625 
Q 33.9375 0 27.875 0 
Q 17.828125 0 11.671875 7.65625 
Q 5.515625 15.328125 5.515625 27.984375 
Q 5.515625 40.671875 11.671875 48.328125 
Q 17.828125 56 27.875 56 
Q 33.9375 56 38.28125 53.609375 
Q 42.625 51.21875 45.40625 46.390625 
L 45.40625 54.6875 
L 54.390625 54.6875 
z
" id="DejaVuSans-103"/>
       <path d="M 12.40625 8.296875 
L 28.515625 8.296875 
L 28.515625 63.921875 
L 10.984375 60.40625 
L 10.984375 69.390625 
L 28.421875 72.90625 
L 38.28125 72.90625 
L 38.28125 8.296875 
L 54.390625 8.296875 
L 54.390625 0 
L 12.40625 0 
z
" id="DejaVuSans-49"/>
       <path d="M 31 75.875 
Q 24.46875 64.65625 21.28125 53.65625 
Q 18.109375 42.671875 18.109375 31.390625 
Q 18.109375 20.125 21.3125 9.0625 
Q 24.515625 -2 31 -13.1875 
L 23.1875 -13.1875 
Q 15.875 -1.703125 12.234375 9.375 
Q 8.59375 20.453125 8.59375 31.390625 
Q 8.59375 42.28125 12.203125 53.3125 
Q 15.828125 64.359375 23.1875 75.875 
z
" id="DejaVuSans-40"/>
       <path d="M 51.125 44 
L 36.921875 44 
L 32.8125 27.6875 
L 47.125 27.6875 
z
M 43.796875 71.78125 
L 38.71875 51.515625 
L 52.984375 51.515625 
L 58.109375 71.78125 
L 65.921875 71.78125 
L 60.890625 51.515625 
L 76.125 51.515625 
L 76.125 44 
L 58.984375 44 
L 54.984375 27.6875 
L 70.515625 27.6875 
L 70.515625 20.21875 
L 53.078125 20.21875 
L 48 0 
L 40.1875 0 
L 45.21875 20.21875 
L 30.90625 20.21875 
L 25.875 0 
L 18.015625 0 
L 23.09375 20.21875 
L 7.71875 20.21875 
L 7.71875 27.6875 
L 24.90625 27.6875 
L 29 44 
L 13.28125 44 
L 13.28125 51.515625 
L 30.90625 51.515625 
L 35.890625 71.78125 
z
" id="DejaVuSans-35"/>
       <path id="DejaVuSans-32"/>
       <path d="M 37.109375 75.984375 
L 37.109375 68.5 
L 28.515625 68.5 
Q 23.6875 68.5 21.796875 66.546875 
Q 19.921875 64.59375 19.921875 59.515625 
L 19.921875 54.6875 
L 34.71875 54.6875 
L 34.71875 47.703125 
L 19.921875 47.703125 
L 19.921875 0 
L 10.890625 0 
L 10.890625 47.703125 
L 2.296875 47.703125 
L 2.296875 54.6875 
L 10.890625 54.6875 
L 10.890625 58.5 
Q 10.890625 67.625 15.140625 71.796875 
Q 19.390625 75.984375 28.609375 75.984375 
z
" id="DejaVuSans-102"/>
       <path d="M 4.890625 31.390625 
L 31.203125 31.390625 
L 31.203125 23.390625 
L 4.890625 23.390625 
z
" id="DejaVuSans-45"/>
       <path d="M 56.203125 29.59375 
L 56.203125 25.203125 
L 14.890625 25.203125 
Q 15.484375 15.921875 20.484375 11.0625 
Q 25.484375 6.203125 34.421875 6.203125 
Q 39.59375 6.203125 44.453125 7.46875 
Q 49.3125 8.734375 54.109375 11.28125 
L 54.109375 2.78125 
Q 49.265625 0.734375 44.1875 -0.34375 
Q 39.109375 -1.421875 33.890625 -1.421875 
Q 20.796875 -1.421875 13.15625 6.1875 
Q 5.515625 13.8125 5.515625 26.8125 
Q 5.515625 40.234375 12.765625 48.109375 
Q 20.015625 56 32.328125 56 
Q 43.359375 56 49.78125 48.890625 
Q 56.203125 41.796875 56.203125 29.59375 
z
M 47.21875 32.234375 
Q 47.125 39.59375 43.09375 43.984375 
Q 39.0625 48.390625 32.421875 48.390625 
Q 24.90625 48.390625 20.390625 44.140625 
Q 15.875 39.890625 15.1875 32.171875 
z
" id="DejaVuSans-101"/>
       <path d="M 2.984375 54.6875 
L 12.5 54.6875 
L 29.59375 8.796875 
L 46.6875 54.6875 
L 56.203125 54.6875 
L 35.6875 0 
L 23.484375 0 
z
" id="DejaVuSans-118"/>
       <path d="M 34.28125 27.484375 
Q 23.390625 27.484375 19.1875 25 
Q 14.984375 22.515625 14.984375 16.5 
Q 14.984375 11.71875 18.140625 8.90625 
Q 21.296875 6.109375 26.703125 6.109375 
Q 34.1875 6.109375 38.703125 11.40625 
Q 43.21875 16.703125 43.21875 25.484375 
L 43.21875 27.484375 
z
M 52.203125 31.203125 
L 52.203125 0 
L 43.21875 0 
L 43.21875 8.296875 
Q 40.140625 3.328125 35.546875 0.953125 
Q 30.953125 -1.421875 24.3125 -1.421875 
Q 15.921875 -1.421875 10.953125 3.296875 
Q 6 8.015625 6 15.921875 
Q 6 25.140625 12.171875 29.828125 
Q 18.359375 34.515625 30.609375 34.515625 
L 43.21875 34.515625 
L 43.21875 35.40625 
Q 43.21875 41.609375 39.140625 45 
Q 35.0625 48.390625 27.6875 48.390625 
Q 23 48.390625 18.546875 47.265625 
Q 14.109375 46.140625 10.015625 43.890625 
L 10.015625 52.203125 
Q 14.9375 54.109375 19.578125 55.046875 
Q 24.21875 56 28.609375 56 
Q 40.484375 56 46.34375 49.84375 
Q 52.203125 43.703125 52.203125 31.203125 
z
" id="DejaVuSans-97"/>
       <path d="M 44.28125 53.078125 
L 44.28125 44.578125 
Q 40.484375 46.53125 36.375 47.5 
Q 32.28125 48.484375 27.875 48.484375 
Q 21.1875 48.484375 17.84375 46.4375 
Q 14.5 44.390625 14.5 40.28125 
Q 14.5 37.15625 16.890625 35.375 
Q 19.28125 33.59375 26.515625 31.984375 
L 29.59375 31.296875 
Q 39.15625 29.25 43.1875 25.515625 
Q 47.21875 21.78125 47.21875 15.09375 
Q 47.21875 7.46875 41.1875 3.015625 
Q 35.15625 -1.421875 24.609375 -1.421875 
Q 20.21875 -1.421875 15.453125 -0.5625 
Q 10.6875 0.296875 5.421875 2 
L 5.421875 11.28125 
Q 10.40625 8.6875 15.234375 7.390625 
Q 20.0625 6.109375 24.8125 6.109375 
Q 31.15625 6.109375 34.5625 8.28125 
Q 37.984375 10.453125 37.984375 14.40625 
Q 37.984375 18.0625 35.515625 20.015625 
Q 33.0625 21.96875 24.703125 23.78125 
L 21.578125 24.515625 
Q 13.234375 26.265625 9.515625 29.90625 
Q 5.8125 33.546875 5.8125 39.890625 
Q 5.8125 47.609375 11.28125 51.796875 
Q 16.75 56 26.8125 56 
Q 31.78125 56 36.171875 55.265625 
Q 40.578125 54.546875 44.28125 53.078125 
z
" id="DejaVuSans-115"/>
       <path d="M 25.390625 72.90625 
L 33.6875 72.90625 
L 8.296875 -9.28125 
L 0 -9.28125 
z
" id="DejaVuSans-47"/>
       <path d="M 45.40625 46.390625 
L 45.40625 75.984375 
L 54.390625 75.984375 
L 54.390625 0 
L 45.40625 0 
L 45.40625 8.203125 
Q 42.578125 3.328125 38.25 0.953125 
Q 33.9375 -1.421875 27.875 -1.421875 
Q 17.96875 -1.421875 11.734375 6.484375 
Q 5.515625 14.40625 5.515625 27.296875 
Q 5.515625 40.1875 11.734375 48.09375 
Q 17.96875 56 27.875 56 
Q 33.9375 56 38.25 53.625 
Q 42.578125 51.265625 45.40625 46.390625 
z
M 14.796875 27.296875 
Q 14.796875 17.390625 18.875 11.75 
Q 22.953125 6.109375 30.078125 6.109375 
Q 37.203125 6.109375 41.296875 11.75 
Q 45.40625 17.390625 45.40625 27.296875 
Q 45.40625 37.203125 41.296875 42.84375 
Q 37.203125 48.484375 30.078125 48.484375 
Q 22.953125 48.484375 18.875 42.84375 
Q 14.796875 37.203125 14.796875 27.296875 
z
" id="DejaVuSans-100"/>
       <path d="M 9.421875 54.6875 
L 18.40625 54.6875 
L 18.40625 0 
L 9.421875 0 
z
M 9.421875 75.984375 
L 18.40625 75.984375 
L 18.40625 64.59375 
L 9.421875 64.59375 
z
" id="DejaVuSans-105"/>
       <path d="M 52 44.1875 
Q 55.375 50.25 60.0625 53.125 
Q 64.75 56 71.09375 56 
Q 79.640625 56 84.28125 50.015625 
Q 88.921875 44.046875 88.921875 33.015625 
L 88.921875 0 
L 79.890625 0 
L 79.890625 32.71875 
Q 79.890625 40.578125 77.09375 44.375 
Q 74.3125 48.1875 68.609375 48.1875 
Q 61.625 48.1875 57.5625 43.546875 
Q 53.515625 38.921875 53.515625 30.90625 
L 53.515625 0 
L 44.484375 0 
L 44.484375 32.71875 
Q 44.484375 40.625 41.703125 44.40625 
Q 38.921875 48.1875 33.109375 48.1875 
Q 26.21875 48.1875 22.15625 43.53125 
Q 18.109375 38.875 18.109375 30.90625 
L 18.109375 0 
L 9.078125 0 
L 9.078125 54.6875 
L 18.109375 54.6875 
L 18.109375 46.1875 
Q 21.1875 51.21875 25.484375 53.609375 
Q 29.78125 56 35.6875 56 
Q 41.65625 56 45.828125 52.96875 
Q 50 49.953125 52 44.1875 
z
" id="DejaVuSans-109"/>
       <path d="M 54.890625 33.015625 
L 54.890625 0 
L 45.90625 0 
L 45.90625 32.71875 
Q 45.90625 40.484375 42.875 44.328125 
Q 39.84375 48.1875 33.796875 48.1875 
Q 26.515625 48.1875 22.3125 43.546875 
Q 18.109375 38.921875 18.109375 30.90625 
L 18.109375 0 
L 9.078125 0 
L 9.078125 54.6875 
L 18.109375 54.6875 
L 18.109375 46.1875 
Q 21.34375 51.125 25.703125 53.5625 
Q 30.078125 56 35.796875 56 
Q 45.21875 56 50.046875 50.171875 
Q 54.890625 44.34375 54.890625 33.015625 
z
" id="DejaVuSans-110"/>
       <path d="M 8.015625 75.875 
L 15.828125 75.875 
Q 23.140625 64.359375 26.78125 53.3125 
Q 30.421875 42.28125 30.421875 31.390625 
Q 30.421875 20.453125 26.78125 9.375 
Q 23.140625 -1.703125 15.828125 -13.1875 
L 8.015625 -13.1875 
Q 14.5 -2 17.703125 9.0625 
Q 20.90625 20.125 20.90625 31.390625 
Q 20.90625 42.671875 17.703125 53.65625 
Q 14.5 64.65625 8.015625 75.875 
z
" id="DejaVuSans-41"/>
      </defs>
      <use xlink:href="#DejaVuSans-108"/>
      <use x="27.783203" xlink:href="#DejaVuSans-111"/>
      <use x="88.964844" xlink:href="#DejaVuSans-103"/>
      <use x="152.441406" xlink:href="#DejaVuSans-49"/>
      <use x="216.064453" xlink:href="#DejaVuSans-48"/>
      <use x="279.6875" xlink:href="#DejaVuSans-40"/>
      <use x="318.701172" xlink:href="#DejaVuSans-35"/>
      <use x="402.490234" xlink:href="#DejaVuSans-32"/>
      <use x="434.277344" xlink:href="#DejaVuSans-102"/>
      <use x="463.982422" xlink:href="#DejaVuSans-45"/>
      <use x="500.066406" xlink:href="#DejaVuSans-101"/>
      <use x="561.589844" xlink:href="#DejaVuSans-118"/>
      <use x="620.769531" xlink:href="#DejaVuSans-97"/>
      <use x="682.048828" xlink:href="#DejaVuSans-108"/>
      <use x="709.832031" xlink:href="#DejaVuSans-115"/>
      <use x="761.931641" xlink:href="#DejaVuSans-32"/>
      <use x="793.71875" xlink:href="#DejaVuSans-47"/>
      <use x="827.410156" xlink:href="#DejaVuSans-32"/>
      <use x="859.197266" xlink:href="#DejaVuSans-100"/>
      <use x="922.673828" xlink:href="#DejaVuSans-105"/>
      <use x="950.457031" xlink:href="#DejaVuSans-109"/>
      <use x="1047.869141" xlink:href="#DejaVuSans-101"/>
      <use x="1109.392578" xlink:href="#DejaVuSans-110"/>
      <use x="1172.771484" xlink:href="#DejaVuSans-115"/>
      <use x="1224.871094" xlink:href="#DejaVuSans-105"/>
      <use x="1252.654297" xlink:href="#DejaVuSans-111"/>
      <use x="1313.835938" xlink:href="#DejaVuSans-110"/>
      <use x="1377.214844" xlink:href="#DejaVuSans-41"/>
     </g>
    </g>
   </g>
   <g id="matplotlib.axis_2">
    <g id="ytick_1">
     <g id="line2d_17">
      <path clip-path="url(#pe3d6f7bca3)" d="M 57.6 298.944 
L 338.688 298.944 
" style="fill:none;stroke:#b0b0b0;stroke-linecap:square;stroke-width:0.8;"/>
     </g>
     <g id="line2d_18">
      <defs>
       <path d="M 0 0 
L -3.5 0 
" id="mfdf556b8be" style="stroke:#000000;stroke-width:0.8;"/>
      </defs>
      <g>
       <use style="stroke:#000000;stroke-width:0.8;" x="57.6" xlink:href="#mfdf556b8be" y="298.944"/>
      </g>
     </g>
     <g id="text_6">
      <!-- 0.0 -->
      <g transform="translate(25.155 305.02275)scale(0.16 -0.16)">
       <defs>
        <path d="M 10.6875 12.40625 
L 21 12.40625 
L 21 0 
L 10.6875 0 
z
" id="DejaVuSans-46"/>
       </defs>
       <use xlink:href="#DejaVuSans-48"/>
       <use x="63.623047" xlink:href="#DejaVuSans-46"/>
       <use x="95.410156" xlink:href="#DejaVuSans-48"/>
      </g>
     </g>
    </g>
    <g id="ytick_2">
     <g id="line2d_19">
      <path clip-path="url(#pe3d6f7bca3)" d="M 57.6 245.22202 
L 338.688 245.22202 
" style="fill:none;stroke:#b0b0b0;stroke-linecap:square;stroke-width:0.8;"/>
     </g>
     <g id="line2d_20">
      <g>
       <use style="stroke:#000000;stroke-width:0.8;" x="57.6" xlink:href="#mfdf556b8be" y="245.22202"/>
      </g>
     </g>
     <g id="text_7">
      <!-- 0.2 -->
      <g transform="translate(25.155 251.30077)scale(0.16 -0.16)">
       <use xlink:href="#DejaVuSans-48"/>
       <use x="63.623047" xlink:href="#DejaVuSans-46"/>
       <use x="95.410156" xlink:href="#DejaVuSans-50"/>
      </g>
     </g>
    </g>
    <g id="ytick_3">
     <g id="line2d_21">
      <path clip-path="url(#pe3d6f7bca3)" d="M 57.6 191.50004 
L 338.688 191.50004 
" style="fill:none;stroke:#b0b0b0;stroke-linecap:square;stroke-width:0.8;"/>
     </g>
     <g id="line2d_22">
      <g>
       <use style="stroke:#000000;stroke-width:0.8;" x="57.6" xlink:href="#mfdf556b8be" y="191.50004"/>
      </g>
     </g>
     <g id="text_8">
      <!-- 0.4 -->
      <g transform="translate(25.155 197.57879)scale(0.16 -0.16)">
       <use xlink:href="#DejaVuSans-48"/>
       <use x="63.623047" xlink:href="#DejaVuSans-46"/>
       <use x="95.410156" xlink:href="#DejaVuSans-52"/>
      </g>
     </g>
    </g>
    <g id="ytick_4">
     <g id="line2d_23">
      <path clip-path="url(#pe3d6f7bca3)" d="M 57.6 137.778059 
L 338.688 137.778059 
" style="fill:none;stroke:#b0b0b0;stroke-linecap:square;stroke-width:0.8;"/>
     </g>
     <g id="line2d_24">
      <g>
       <use style="stroke:#000000;stroke-width:0.8;" x="57.6" xlink:href="#mfdf556b8be" y="137.778059"/>
      </g>
     </g>
     <g id="text_9">
      <!-- 0.6 -->
      <g transform="translate(25.155 143.856809)scale(0.16 -0.16)">
       <use xlink:href="#DejaVuSans-48"/>
       <use x="63.623047" xlink:href="#DejaVuSans-46"/>
       <use x="95.410156" xlink:href="#DejaVuSans-54"/>
      </g>
     </g>
    </g>
    <g id="ytick_5">
     <g id="line2d_25">
      <path clip-path="url(#pe3d6f7bca3)" d="M 57.6 84.056079 
L 338.688 84.056079 
" style="fill:none;stroke:#b0b0b0;stroke-linecap:square;stroke-width:0.8;"/>
     </g>
     <g id="line2d_26">
      <g>
       <use style="stroke:#000000;stroke-width:0.8;" x="57.6" xlink:href="#mfdf556b8be" y="84.056079"/>
      </g>
     </g>
     <g id="text_10">
      <!-- 0.8 -->
      <g transform="translate(25.155 90.134829)scale(0.16 -0.16)">
       <defs>
        <path d="M 31.78125 34.625 
Q 24.75 34.625 20.71875 30.859375 
Q 16.703125 27.09375 16.703125 20.515625 
Q 16.703125 13.921875 20.71875 10.15625 
Q 24.75 6.390625 31.78125 6.390625 
Q 38.8125 6.390625 42.859375 10.171875 
Q 46.921875 13.96875 46.921875 20.515625 
Q 46.921875 27.09375 42.890625 30.859375 
Q 38.875 34.625 31.78125 34.625 
z
M 21.921875 38.8125 
Q 15.578125 40.375 12.03125 44.71875 
Q 8.5 49.078125 8.5 55.328125 
Q 8.5 64.0625 14.71875 69.140625 
Q 20.953125 74.21875 31.78125 74.21875 
Q 42.671875 74.21875 48.875 69.140625 
Q 55.078125 64.0625 55.078125 55.328125 
Q 55.078125 49.078125 51.53125 44.71875 
Q 48 40.375 41.703125 38.8125 
Q 48.828125 37.15625 52.796875 32.3125 
Q 56.78125 27.484375 56.78125 20.515625 
Q 56.78125 9.90625 50.3125 4.234375 
Q 43.84375 -1.421875 31.78125 -1.421875 
Q 19.734375 -1.421875 13.25 4.234375 
Q 6.78125 9.90625 6.78125 20.515625 
Q 6.78125 27.484375 10.78125 32.3125 
Q 14.796875 37.15625 21.921875 38.8125 
z
M 18.3125 54.390625 
Q 18.3125 48.734375 21.84375 45.5625 
Q 25.390625 42.390625 31.78125 42.390625 
Q 38.140625 42.390625 41.71875 45.5625 
Q 45.3125 48.734375 45.3125 54.390625 
Q 45.3125 60.0625 41.71875 63.234375 
Q 38.140625 66.40625 31.78125 66.40625 
Q 25.390625 66.40625 21.84375 63.234375 
Q 18.3125 60.0625 18.3125 54.390625 
z
" id="DejaVuSans-56"/>
       </defs>
       <use xlink:href="#DejaVuSans-48"/>
       <use x="63.623047" xlink:href="#DejaVuSans-46"/>
       <use x="95.410156" xlink:href="#DejaVuSans-56"/>
      </g>
     </g>
    </g>
    <g id="ytick_6">
     <g id="line2d_27">
      <path clip-path="url(#pe3d6f7bca3)" d="M 57.6 30.334099 
L 338.688 30.334099 
" style="fill:none;stroke:#b0b0b0;stroke-linecap:square;stroke-width:0.8;"/>
     </g>
     <g id="line2d_28">
      <g>
       <use style="stroke:#000000;stroke-width:0.8;" x="57.6" xlink:href="#mfdf556b8be" y="30.334099"/>
      </g>
     </g>
     <g id="text_11">
      <!-- 1.0 -->
      <g transform="translate(25.155 36.412849)scale(0.16 -0.16)">
       <use xlink:href="#DejaVuSans-49"/>
       <use x="63.623047" xlink:href="#DejaVuSans-46"/>
       <use x="95.410156" xlink:href="#DejaVuSans-48"/>
      </g>
     </g>
    </g>
    <g id="text_12">
     <!-- Fraction of function,target pairs -->
     <g transform="translate(17.619531 297.681)rotate(-90)scale(0.17 -0.17)">
      <defs>
       <path d="M 9.8125 72.90625 
L 51.703125 72.90625 
L 51.703125 64.59375 
L 19.671875 64.59375 
L 19.671875 43.109375 
L 48.578125 43.109375 
L 48.578125 34.8125 
L 19.671875 34.8125 
L 19.671875 0 
L 9.8125 0 
z
" id="DejaVuSans-70"/>
       <path d="M 41.109375 46.296875 
Q 39.59375 47.171875 37.8125 47.578125 
Q 36.03125 48 33.890625 48 
Q 26.265625 48 22.1875 43.046875 
Q 18.109375 38.09375 18.109375 28.8125 
L 18.109375 0 
L 9.078125 0 
L 9.078125 54.6875 
L 18.109375 54.6875 
L 18.109375 46.1875 
Q 20.953125 51.171875 25.484375 53.578125 
Q 30.03125 56 36.53125 56 
Q 37.453125 56 38.578125 55.875 
Q 39.703125 55.765625 41.0625 55.515625 
z
" id="DejaVuSans-114"/>
       <path d="M 48.78125 52.59375 
L 48.78125 44.1875 
Q 44.96875 46.296875 41.140625 47.34375 
Q 37.3125 48.390625 33.40625 48.390625 
Q 24.65625 48.390625 19.8125 42.84375 
Q 14.984375 37.3125 14.984375 27.296875 
Q 14.984375 17.28125 19.8125 11.734375 
Q 24.65625 6.203125 33.40625 6.203125 
Q 37.3125 6.203125 41.140625 7.25 
Q 44.96875 8.296875 48.78125 10.40625 
L 48.78125 2.09375 
Q 45.015625 0.34375 40.984375 -0.53125 
Q 36.96875 -1.421875 32.421875 -1.421875 
Q 20.0625 -1.421875 12.78125 6.34375 
Q 5.515625 14.109375 5.515625 27.296875 
Q 5.515625 40.671875 12.859375 48.328125 
Q 20.21875 56 33.015625 56 
Q 37.15625 56 41.109375 55.140625 
Q 45.0625 54.296875 48.78125 52.59375 
z
" id="DejaVuSans-99"/>
       <path d="M 18.3125 70.21875 
L 18.3125 54.6875 
L 36.8125 54.6875 
L 36.8125 47.703125 
L 18.3125 47.703125 
L 18.3125 18.015625 
Q 18.3125 11.328125 20.140625 9.421875 
Q 21.96875 7.515625 27.59375 7.515625 
L 36.8125 7.515625 
L 36.8125 0 
L 27.59375 0 
Q 17.1875 0 13.234375 3.875 
Q 9.28125 7.765625 9.28125 18.015625 
L 9.28125 47.703125 
L 2.6875 47.703125 
L 2.6875 54.6875 
L 9.28125 54.6875 
L 9.28125 70.21875 
z
" id="DejaVuSans-116"/>
       <path d="M 8.5 21.578125 
L 8.5 54.6875 
L 17.484375 54.6875 
L 17.484375 21.921875 
Q 17.484375 14.15625 20.5 10.265625 
Q 23.53125 6.390625 29.59375 6.390625 
Q 36.859375 6.390625 41.078125 11.03125 
Q 45.3125 15.671875 45.3125 23.6875 
L 45.3125 54.6875 
L 54.296875 54.6875 
L 54.296875 0 
L 45.3125 0 
L 45.3125 8.40625 
Q 42.046875 3.421875 37.71875 1 
Q 33.40625 -1.421875 27.6875 -1.421875 
Q 18.265625 -1.421875 13.375 4.4375 
Q 8.5 10.296875 8.5 21.578125 
z
M 31.109375 56 
z
" id="DejaVuSans-117"/>
       <path d="M 11.71875 12.40625 
L 22.015625 12.40625 
L 22.015625 4 
L 14.015625 -11.625 
L 7.71875 -11.625 
L 11.71875 4 
z
" id="DejaVuSans-44"/>
       <path d="M 18.109375 8.203125 
L 18.109375 -20.796875 
L 9.078125 -20.796875 
L 9.078125 54.6875 
L 18.109375 54.6875 
L 18.109375 46.390625 
Q 20.953125 51.265625 25.265625 53.625 
Q 29.59375 56 35.59375 56 
Q 45.5625 56 51.78125 48.09375 
Q 58.015625 40.1875 58.015625 27.296875 
Q 58.015625 14.40625 51.78125 6.484375 
Q 45.5625 -1.421875 35.59375 -1.421875 
Q 29.59375 -1.421875 25.265625 0.953125 
Q 20.953125 3.328125 18.109375 8.203125 
z
M 48.6875 27.296875 
Q 48.6875 37.203125 44.609375 42.84375 
Q 40.53125 48.484375 33.40625 48.484375 
Q 26.265625 48.484375 22.1875 42.84375 
Q 18.109375 37.203125 18.109375 27.296875 
Q 18.109375 17.390625 22.1875 11.75 
Q 26.265625 6.109375 33.40625 6.109375 
Q 40.53125 6.109375 44.609375 11.75 
Q 48.6875 17.390625 48.6875 27.296875 
z
" id="DejaVuSans-112"/>
      </defs>
      <use xlink:href="#DejaVuSans-70"/>
      <use x="50.269531" xlink:href="#DejaVuSans-114"/>
      <use x="91.382812" xlink:href="#DejaVuSans-97"/>
      <use x="152.662109" xlink:href="#DejaVuSans-99"/>
      <use x="207.642578" xlink:href="#DejaVuSans-116"/>
      <use x="246.851562" xlink:href="#DejaVuSans-105"/>
      <use x="274.634766" xlink:href="#DejaVuSans-111"/>
      <use x="335.816406" xlink:href="#DejaVuSans-110"/>
      <use x="399.195312" xlink:href="#DejaVuSans-32"/>
      <use x="430.982422" xlink:href="#DejaVuSans-111"/>
      <use x="492.164062" xlink:href="#DejaVuSans-102"/>
      <use x="527.369141" xlink:href="#DejaVuSans-32"/>
      <use x="559.15625" xlink:href="#DejaVuSans-102"/>
      <use x="594.361328" xlink:href="#DejaVuSans-117"/>
      <use x="657.740234" xlink:href="#DejaVuSans-110"/>
      <use x="721.119141" xlink:href="#DejaVuSans-99"/>
      <use x="776.099609" xlink:href="#DejaVuSans-116"/>
      <use x="815.308594" xlink:href="#DejaVuSans-105"/>
      <use x="843.091797" xlink:href="#DejaVuSans-111"/>
      <use x="904.273438" xlink:href="#DejaVuSans-110"/>
      <use x="967.652344" xlink:href="#DejaVuSans-44"/>
      <use x="999.439453" xlink:href="#DejaVuSans-116"/>
      <use x="1038.648438" xlink:href="#DejaVuSans-97"/>
      <use x="1099.927734" xlink:href="#DejaVuSans-114"/>
      <use x="1139.291016" xlink:href="#DejaVuSans-103"/>
      <use x="1202.767578" xlink:href="#DejaVuSans-101"/>
      <use x="1264.291016" xlink:href="#DejaVuSans-116"/>
      <use x="1303.5" xlink:href="#DejaVuSans-32"/>
      <use x="1335.287109" xlink:href="#DejaVuSans-112"/>
      <use x="1398.763672" xlink:href="#DejaVuSans-97"/>
      <use x="1460.042969" xlink:href="#DejaVuSans-105"/>
      <use x="1487.826172" xlink:href="#DejaVuSans-114"/>
      <use x="1528.939453" xlink:href="#DejaVuSans-115"/>
     </g>
    </g>
   </g>
   <g id="line2d_29">
    <defs>
     <path d="M 0 1.5 
C 0.397805 1.5 0.77937 1.341951 1.06066 1.06066 
C 1.341951 0.77937 1.5 0.397805 1.5 0 
C 1.5 -0.397805 1.341951 -0.77937 1.06066 -1.06066 
C 0.77937 -1.341951 0.397805 -1.5 0 -1.5 
C -0.397805 -1.5 -0.77937 -1.341951 -1.06066 -1.06066 
C -1.341951 -0.77937 -1.5 -0.397805 -1.5 0 
C -1.5 0.397805 -1.341951 0.77937 -1.06066 1.06066 
C -0.77937 1.341951 -0.397805 1.5 0 1.5 
z
" id="m44c574c351" style="stroke:#00bfbf;"/>
    </defs>
    <g>
     <use style="fill:#00bfbf;stroke:#00bfbf;" x="246.336525" xlink:href="#m44c574c351" y="30.334099"/>
     <use style="fill:#00bfbf;stroke:#00bfbf;" x="246.336525" xlink:href="#m44c574c351" y="30.334099"/>
    </g>
   </g>
   <g id="line2d_30">
    <path d="M 45.512012 298.944 
L 45.512012 278.403243 
L 57.6 278.403243 
L 57.6 269.449579 
L 64.67102 269.449579 
L 64.67102 267.869521 
L 73.579452 267.869521 
L 73.579452 266.289463 
L 79.447285 266.289463 
L 79.447285 265.762777 
L 91.535274 265.762777 
L 91.535274 265.236091 
L 92.73846 265.236091 
L 92.73846 263.656033 
L 93.863965 263.656033 
L 93.863965 261.549288 
L 94.921215 261.549288 
L 94.921215 261.022602 
L 96.86091 261.022602 
L 96.86091 259.96923 
L 98.606294 259.96923 
L 98.606294 258.915858 
L 102.330873 258.915858 
L 102.330873 258.389172 
L 107.514726 258.389172 
L 107.514726 257.3358 
L 108.948899 257.3358 
L 108.948899 255.229055 
L 114.751048 255.229055 
L 114.751048 254.175683 
L 115.397021 254.175683 
L 115.397021 253.648997 
L 115.711251 253.648997 
L 115.711251 251.542253 
L 117.202696 251.542253 
L 117.202696 249.435508 
L 117.486268 249.435508 
L 117.486268 247.328764 
L 118.576578 247.328764 
L 118.576578 246.802078 
L 119.097192 246.802078 
L 119.097192 244.695334 
L 119.602714 244.695334 
L 119.602714 243.641962 
L 121.931406 243.641962 
L 121.931406 243.115275 
L 122.573415 243.115275 
L 122.573415 242.588589 
L 128.411207 242.588589 
L 128.411207 242.061903 
L 129.002426 242.061903 
L 129.002426 241.535217 
L 129.853291 241.535217 
L 129.853291 240.481845 
L 129.991152 240.481845 
L 129.991152 238.901787 
L 130.398313 238.901787 
L 130.398313 237.848415 
L 130.926816 237.848415 
L 130.926816 237.321729 
L 131.185181 237.321729 
L 131.185181 236.795043 
L 133.124876 236.795043 
L 133.124876 236.268356 
L 133.57787 236.268356 
L 133.57787 235.74167 
L 133.689303 235.74167 
L 133.689303 234.688298 
L 134.55603 234.688298 
L 134.55603 226.788007 
L 135.178927 226.788007 
L 135.178927 226.261321 
L 137.647286 226.261321 
L 137.647286 223.627891 
L 138.927025 223.627891 
L 138.927025 222.574518 
L 144.865226 222.574518 
L 144.865226 222.047832 
L 148.639252 222.047832 
L 148.639252 221.521146 
L 148.966103 221.521146 
L 148.966103 220.99446 
L 149.286939 220.99446 
L 149.286939 220.467774 
L 149.557321 220.467774 
L 149.557321 219.414402 
L 149.823575 219.414402 
L 149.867558 216.780971 
L 151.858043 216.780971 
L 151.858043 216.254285 
L 152.091608 216.254285 
L 152.091608 214.674227 
L 152.322086 214.674227 
L 152.322086 213.620855 
L 152.549559 213.620855 
L 152.549559 213.094169 
L 152.699575 213.094169 
L 152.774102 209.407366 
L 190.171705 209.407366 
L 190.249927 200.453703 
L 190.396731 200.453703 
L 190.469672 196.240214 
L 190.601901 196.240214 
L 190.712036 192.553412 
L 190.741569 192.553412 
L 190.838255 188.866609 
L 190.87176 188.866609 
L 190.942745 180.966318 
L 191.00514 180.966318 
L 191.067312 177.279515 
L 191.41955 177.279515 
L 191.41955 176.752829 
L 191.709072 176.752829 
L 191.816415 171.485969 
L 192.02914 171.485969 
L 192.091675 169.379224 
L 202.257515 169.379224 
L 202.296675 164.112363 
L 202.370405 164.112363 
L 202.439515 158.318817 
L 202.506204 158.318817 
L 202.611099 148.838467 
L 202.647345 148.838467 
L 202.711123 146.731723 
L 203.057799 146.731723 
L 203.099355 144.098292 
L 203.211066 144.098292 
L 203.248145 139.358118 
L 209.329261 139.358118 
L 209.427715 132.511199 
L 209.449358 132.511199 
L 209.552873 127.771024 
L 209.564336 127.771024 
L 209.631534 123.557535 
L 209.753826 123.557535 
L 209.753826 123.030849 
L 209.875266 123.030849 
L 209.969294 119.870733 
L 209.991673 119.870733 
L 209.994469 118.290674 
L 214.345504 118.290674 
L 214.435658 112.497128 
L 214.481101 112.497128 
L 214.572708 106.703581 
L 214.664906 106.703581 
L 214.77044 103.543464 
L 214.827737 103.543464 
L 214.846794 99.856662 
L 218.236531 99.856662 
L 218.345096 96.169859 
L 218.347693 96.169859 
L 218.418535 91.429684 
L 218.560218 91.429684 
L 218.638719 87.742882 
L 221.415798 87.742882 
L 221.507039 81.949335 
L 221.533741 81.949335 
L 221.556802 79.842591 
L 221.699534 79.842591 
L 221.740202 77.20916 
L 224.103867 77.20916 
L 224.205012 70.888927 
L 224.343671 70.888927 
L 224.392096 67.728811 
L 226.432403 67.728811 
L 226.520937 61.935264 
L 226.635418 61.935264 
L 226.683792 58.248461 
L 228.511002 58.248461 
L 228.565053 54.034973 
L 228.673135 54.034973 
L 228.710925 51.928228 
L 230.323649 51.928228 
L 230.394513 48.241426 
L 230.486251 48.241426 
L 230.525912 46.134681 
L 232.009061 46.134681 
L 232.050145 44.554623 
L 232.160276 44.554623 
L 232.1689 43.501251 
L 233.50306 43.501251 
L 233.573708 41.394507 
L 233.645871 41.394507 
L 233.671058 39.814448 
L 234.953429 39.814448 
L 235.050703 38.761076 
L 236.191234 38.761076 
L 236.256457 37.707704 
L 236.313715 37.707704 
L 236.330393 36.654332 
L 237.411505 36.654332 
L 237.455261 34.547588 
L 237.524295 34.547588 
L 237.524295 34.020902 
L 240.577952 34.020902 
L 240.613244 32.440843 
L 242.495512 32.440843 
L 242.495512 31.914157 
L 243.294171 31.914157 
L 243.299347 30.860785 
L 246.336525 30.860785 
L 246.336525 30.334099 
L 338.688 30.334099 
L 338.688 30.334099 
" style="fill:none;stroke:#00bfbf;stroke-linecap:square;stroke-width:1.5;"/>
   </g>
   <g id="line2d_31">
    <defs>
     <path d="M -6 0 
L 6 0 
M 0 6 
L 0 -6 
" id="m03c9085dc7" style="stroke:#00bfbf;stroke-width:1.5;"/>
    </defs>
    <g>
     <use style="fill-opacity:0;stroke:#00bfbf;stroke-width:1.5;" x="117.202696" xlink:href="#m03c9085dc7" y="251.542253"/>
     <use style="fill-opacity:0;stroke:#00bfbf;stroke-width:1.5;" x="191.00514" xlink:href="#m03c9085dc7" y="180.966318"/>
     <use style="fill-opacity:0;stroke:#00bfbf;stroke-width:1.5;" x="214.572708" xlink:href="#m03c9085dc7" y="107.230267"/>
     <use style="fill-opacity:0;stroke:#00bfbf;stroke-width:1.5;" x="246.336525" xlink:href="#m03c9085dc7" y="30.860785"/>
     <use style="fill-opacity:0;stroke:#00bfbf;stroke-width:1.5;" x="246.336525" xlink:href="#m03c9085dc7" y="30.334099"/>
     <use style="fill-opacity:0;stroke:#00bfbf;stroke-width:1.5;" x="338.688" xlink:href="#m03c9085dc7" y="30.334099"/>
    </g>
   </g>
   <g id="line2d_32">
    <path style="fill:none;stroke:#00bfbf;stroke-linecap:square;stroke-width:1.5;"/>
    <g/>
   </g>
   <g id="line2d_33">
    <path clip-path="url(#pe3d6f7bca3)" d="M 190.167349 209.407366 
" style="fill:none;stroke:#00bfbf;stroke-linecap:square;stroke-width:1.5;"/>
    <defs>
     <path d="M -12 12 
L 12 -12 
M -12 -12 
L 12 12 
" id="me82c5b0cb3" style="stroke:#00bfbf;"/>
    </defs>
    <g clip-path="url(#pe3d6f7bca3)">
     <use style="fill:#00bfbf;stroke:#00bfbf;" x="190.167349" xlink:href="#me82c5b0cb3" y="209.407366"/>
    </g>
   </g>
   <g id="line2d_34">
    <defs>
     <path d="M 0 1.5 
C 0.397805 1.5 0.77937 1.341951 1.06066 1.06066 
C 1.341951 0.77937 1.5 0.397805 1.5 0 
C 1.5 -0.397805 1.341951 -0.77937 1.06066 -1.06066 
C 0.77937 -1.341951 0.397805 -1.5 0 -1.5 
C -0.397805 -1.5 -0.77937 -1.341951 -1.06066 -1.06066 
C -1.341951 -0.77937 -1.5 -0.397805 -1.5 0 
C -1.5 0.397805 -1.341951 0.77937 -1.06066 1.06066 
C -0.77937 1.341951 -0.397805 1.5 0 1.5 
z
" id="md1dcb20bf3" style="stroke:#008000;"/>
    </defs>
    <g>
     <use style="fill:#008000;stroke:#008000;" x="242.206413" xlink:href="#md1dcb20bf3" y="30.334099"/>
     <use style="fill:#008000;stroke:#008000;" x="242.206413" xlink:href="#md1dcb20bf3" y="30.334099"/>
    </g>
   </g>
   <g id="line2d_35">
    <path d="M 38.440992 298.944 
L 38.440992 289.463651 
L 50.52898 289.463651 
L 50.52898 286.303534 
L 57.6 286.303534 
L 57.6 285.776848 
L 76.759008 285.776848 
L 76.759008 284.723476 
L 80.258561 284.723476 
L 80.258561 283.670104 
L 86.792945 283.670104 
L 86.792945 283.143418 
L 90.684409 283.143418 
L 90.684409 282.616732 
L 93.863965 282.616732 
L 93.863965 279.456615 
L 94.575872 279.456615 
L 94.575872 278.403243 
L 97.755429 278.403243 
L 97.755429 274.71644 
L 98.32726 274.71644 
L 98.32726 274.189754 
L 98.880934 274.189754 
L 98.880934 273.663068 
L 100.934985 273.663068 
L 100.934985 273.136382 
L 101.412804 273.136382 
L 101.412804 272.609696 
L 101.877879 272.609696 
L 101.877879 272.08301 
L 102.330873 272.08301 
L 102.330873 271.556324 
L 104.033617 271.556324 
L 104.033617 271.029638 
L 105.951954 271.029638 
L 105.951954 270.502952 
L 106.66386 270.502952 
L 106.66386 269.976266 
L 107.680028 269.976266 
L 107.680028 268.922893 
L 108.006005 268.922893 
L 108.006005 266.816149 
L 108.326001 266.816149 
L 108.326001 266.289463 
L 108.640231 266.289463 
L 108.640231 265.762777 
L 111.505558 265.762777 
L 111.505558 265.236091 
L 113.022974 265.236091 
L 113.022974 264.709405 
L 114.860386 264.709405 
L 114.860386 264.182719 
L 115.291007 264.182719 
L 115.291007 260.495916 
L 116.522527 260.495916 
L 116.522527 259.442544 
L 116.914437 259.442544 
L 116.914437 258.915858 
L 117.107138 258.915858 
L 117.107138 258.389172 
L 117.486268 258.389172 
L 117.486268 257.862486 
L 117.672786 257.862486 
L 117.672786 256.809114 
L 118.576578 256.809114 
L 118.576578 256.282427 
L 118.751849 256.282427 
L 118.751849 255.755741 
L 119.43583 255.755741 
L 119.43583 254.702369 
L 120.093994 254.702369 
L 120.093994 254.175683 
L 121.340187 254.175683 
L 121.340187 253.648997 
L 121.785469 253.648997 
L 121.785469 253.122311 
L 122.219665 253.122311 
L 122.219665 251.015567 
L 123.056911 251.015567 
L 123.056911 250.488881 
L 123.985457 250.488881 
L 123.985457 249.962195 
L 130.839837 249.962195 
L 130.839837 249.435508 
L 131.856005 249.435508 
L 131.856005 248.908822 
L 134.307653 248.908822 
L 134.307653 248.382136 
L 134.7313 248.382136 
L 134.7313 247.85545 
L 135.615352 247.85545 
L 135.615352 247.328764 
L 140.549236 247.328764 
L 140.549236 246.802078 
L 143.861538 246.802078 
L 143.902815 245.748706 
L 144.470655 245.748706 
L 144.470655 245.22202 
L 144.94308 245.22202 
L 144.94308 244.695334 
L 145.851187 244.695334 
L 145.851187 244.168648 
L 146.034567 244.168648 
L 146.034567 243.641962 
L 146.395642 243.641962 
L 146.395642 243.115275 
L 146.538004 243.115275 
L 146.538004 242.588589 
L 146.714338 242.588589 
L 146.784375 241.535217 
L 147.334773 241.535217 
L 147.368603 239.955159 
L 147.50327 239.955159 
L 147.603592 237.848415 
L 147.901141 237.848415 
L 147.933891 236.795043 
L 148.225905 236.795043 
L 148.258051 235.74167 
L 148.607802 235.74167 
L 148.607802 235.214984 
L 149.043029 235.214984 
L 149.043029 234.688298 
L 149.195872 234.688298 
L 149.195872 234.161612 
L 149.437669 234.161612 
L 149.497598 233.10824 
L 149.557321 233.10824 
L 149.616841 232.054868 
L 149.676158 232.054868 
L 149.764758 231.001496 
L 149.823575 231.001496 
L 149.882194 228.894751 
L 150.027887 228.894751 
L 150.027887 228.368065 
L 150.201126 228.368065 
L 150.201126 227.841379 
L 150.429467 227.841379 
L 150.429467 227.314693 
L 150.626842 227.314693 
L 150.710752 224.154577 
L 150.87737 224.154577 
L 150.960087 222.574518 
L 151.069768 222.574518 
L 151.124351 221.521146 
L 151.314058 221.521146 
L 151.314058 220.99446 
L 151.844975 220.99446 
L 151.844975 219.941088 
L 152.283884 219.941088 
L 152.385571 218.36103 
L 152.536999 218.36103 
L 152.587184 216.780971 
L 152.959038 216.780971 
L 152.959038 216.254285 
L 153.226778 216.254285 
L 153.226778 215.727599 
L 153.442821 215.727599 
L 153.442821 214.674227 
L 159.371893 214.674227 
L 159.371893 214.147541 
L 159.791329 214.147541 
L 159.791329 213.094169 
L 160.727241 213.094169 
L 160.727241 212.567483 
L 163.455871 212.567483 
L 163.455871 212.040797 
L 163.906798 212.040797 
L 163.906798 211.514111 
L 164.886862 211.514111 
L 164.973287 210.460738 
L 165.193576 210.460738 
L 165.193576 209.407366 
L 166.047915 209.407366 
L 166.140309 208.353994 
L 166.255117 208.353994 
L 166.255117 207.827308 
L 166.471192 207.827308 
L 166.538873 206.773936 
L 166.773712 206.773936 
L 166.784816 205.720564 
L 166.917519 205.720564 
L 166.917519 205.193878 
L 167.661564 205.193878 
L 167.682664 204.140506 
L 197.248531 204.140506 
L 197.335395 193.606784 
L 197.389226 193.606784 
L 197.490667 185.706493 
L 197.614276 185.706493 
L 197.625642 184.126434 
L 197.733252 184.126434 
L 197.733252 183.599748 
L 197.894363 183.599748 
L 197.894363 183.073062 
L 198.031813 183.073062 
L 198.085384 178.332888 
L 198.159007 178.332888 
L 198.252427 173.066027 
L 198.272511 173.066027 
L 198.345349 166.219108 
L 198.397967 166.219108 
L 198.508131 158.318817 
L 198.515331 158.318817 
L 198.576408 152.52527 
L 199.114945 152.52527 
L 199.114945 151.471897 
L 199.748364 151.471897 
L 199.748364 150.418525 
L 199.958358 150.418525 
L 200.036046 146.731723 
L 200.169127 146.731723 
L 200.169127 145.678351 
L 209.322 145.678351 
L 209.404117 138.831432 
L 209.436856 138.831432 
L 209.517479 135.144629 
L 209.633913 135.144629 
L 209.725936 133.037885 
L 209.74863 133.037885 
L 209.827826 130.93114 
L 209.860719 130.93114 
L 209.953424 120.397419 
L 209.973026 120.397419 
L 209.994469 117.763988 
L 210.309331 117.763988 
L 210.309331 116.18393 
L 210.532996 116.18393 
L 210.576305 114.077186 
L 210.735979 114.077186 
L 210.777897 111.443755 
L 216.405604 111.443755 
L 216.472567 106.176895 
L 216.518776 106.176895 
L 216.614015 103.543464 
L 216.661122 103.543464 
L 216.770758 95.116487 
L 216.787807 95.116487 
L 216.843258 90.902998 
L 217.040936 90.902998 
L 217.05648 89.849626 
L 217.281243 89.849626 
L 217.362651 88.269568 
L 217.425436 88.269568 
L 217.426652 87.216196 
L 221.421605 87.216196 
L 221.524845 83.529393 
L 221.595889 83.529393 
L 221.706675 76.155788 
L 221.707151 76.155788 
L 221.757535 72.995672 
L 222.129911 72.995672 
L 222.151734 71.415613 
L 225.310165 71.415613 
L 225.345747 68.782183 
L 225.462423 68.782183 
L 225.566121 62.46195 
L 225.701413 62.46195 
L 225.701413 61.935264 
L 225.845428 61.935264 
L 225.881808 60.355206 
L 228.487786 60.355206 
L 228.583675 58.248461 
L 228.646137 58.248461 
L 228.701366 53.508287 
L 228.9655 53.508287 
L 228.9655 52.9816 
L 231.17468 52.9816 
L 231.200108 49.294798 
L 231.28689 49.294798 
L 231.3675 46.134681 
L 233.502334 46.134681 
L 233.524587 45.081309 
L 233.632063 45.081309 
L 233.671178 42.974565 
L 233.814645 42.974565 
L 233.871371 41.921193 
L 235.557515 41.921193 
L 235.557515 41.394507 
L 235.684406 41.394507 
L 235.684406 40.867821 
L 235.871972 40.867821 
L 235.871972 40.341135 
L 237.402411 40.341135 
L 237.50699 37.181018 
L 237.519297 37.181018 
L 237.519297 36.654332 
L 237.675842 36.654332 
L 237.675842 36.127646 
L 239.150689 36.127646 
L 239.17081 34.547588 
L 239.296262 34.547588 
L 239.296262 34.020902 
L 240.579323 34.020902 
L 240.683693 32.440843 
L 241.974193 32.440843 
L 242.033058 31.387471 
L 242.187595 31.387471 
L 242.206413 30.334099 
L 338.688 30.334099 
L 338.688 30.334099 
" style="fill:none;stroke:#008000;stroke-linecap:square;stroke-width:1.5;"/>
   </g>
   <g id="line2d_36">
    <defs>
     <path d="M -0 6 
L 6 -6 
L -6 -6 
z
" id="mfa7c2d1851" style="stroke:#008000;stroke-linejoin:miter;stroke-width:1.5;"/>
    </defs>
    <g>
     <use style="fill-opacity:0;stroke:#008000;stroke-linejoin:miter;stroke-width:1.5;" x="98.880934" xlink:href="#mfa7c2d1851" y="273.663068"/>
     <use style="fill-opacity:0;stroke:#008000;stroke-linejoin:miter;stroke-width:1.5;" x="167.682664" xlink:href="#mfa7c2d1851" y="204.667192"/>
     <use style="fill-opacity:0;stroke:#008000;stroke-linejoin:miter;stroke-width:1.5;" x="210.309331" xlink:href="#mfa7c2d1851" y="117.763988"/>
     <use style="fill-opacity:0;stroke:#008000;stroke-linejoin:miter;stroke-width:1.5;" x="242.206413" xlink:href="#mfa7c2d1851" y="30.334099"/>
     <use style="fill-opacity:0;stroke:#008000;stroke-linejoin:miter;stroke-width:1.5;" x="242.206413" xlink:href="#mfa7c2d1851" y="30.334099"/>
     <use style="fill-opacity:0;stroke:#008000;stroke-linejoin:miter;stroke-width:1.5;" x="338.688" xlink:href="#mfa7c2d1851" y="30.334099"/>
    </g>
   </g>
   <g id="line2d_37">
    <path style="fill:none;stroke:#008000;stroke-linecap:square;stroke-width:1.5;"/>
    <g/>
   </g>
   <g id="line2d_38">
    <path clip-path="url(#pe3d6f7bca3)" d="M 197.231106 204.140506 
" style="fill:none;stroke:#008000;stroke-linecap:square;stroke-width:1.5;"/>
    <defs>
     <path d="M -12 12 
L 12 -12 
M -12 -12 
L 12 12 
" id="m2df7f664a5" style="stroke:#008000;"/>
    </defs>
    <g clip-path="url(#pe3d6f7bca3)">
     <use style="fill:#008000;stroke:#008000;" x="197.231106" xlink:href="#m2df7f664a5" y="204.140506"/>
    </g>
   </g>
   <g id="line2d_39">
    <defs>
     <path d="M 0 1.5 
C 0.397805 1.5 0.77937 1.341951 1.06066 1.06066 
C 1.341951 0.77937 1.5 0.397805 1.5 0 
C 1.5 -0.397805 1.341951 -0.77937 1.06066 -1.06066 
C 0.77937 -1.341951 0.397805 -1.5 0 -1.5 
C -0.397805 -1.5 -0.77937 -1.341951 -1.06066 -1.06066 
C -1.341951 -0.77937 -1.5 -0.397805 -1.5 0 
C -1.5 0.397805 -1.341951 0.77937 -1.06066 1.06066 
C -0.77937 1.341951 -0.397805 1.5 0 1.5 
z
" id="mfc6b75bde1" style="stroke:#0000ff;"/>
    </defs>
    <g>
     <use style="fill:#0000ff;stroke:#0000ff;" x="256.551199" xlink:href="#mfc6b75bde1" y="30.334099"/>
     <use style="fill:#0000ff;stroke:#0000ff;" x="256.551199" xlink:href="#mfc6b75bde1" y="30.334099"/>
    </g>
   </g>
   <g id="line2d_40">
    <path d="M 29.53256 298.944 
L 29.53256 292.097081 
L 41.620548 292.097081 
L 41.620548 291.570395 
L 48.691568 291.570395 
L 48.691568 291.043709 
L 53.708537 291.043709 
L 53.708537 289.990337 
L 57.6 289.990337 
L 57.6 289.463651 
L 60.779557 289.463651 
L 60.779557 288.936964 
L 69.687988 288.936964 
L 69.687988 287.883592 
L 72.867545 287.883592 
L 72.867545 286.303534 
L 74.263433 286.303534 
L 74.263433 285.250162 
L 77.884514 285.250162 
L 77.884514 284.19679 
L 79.938565 284.19679 
L 79.938565 283.143418 
L 80.881459 283.143418 
L 80.881459 282.616732 
L 82.626842 282.616732 
L 82.626842 281.563359 
L 84.213325 281.563359 
L 84.213325 281.036673 
L 88.846997 281.036673 
L 88.846997 280.509987 
L 91.029752 280.509987 
L 91.029752 278.403243 
L 93.863965 278.403243 
L 93.863965 277.876557 
L 94.714831 277.876557 
L 94.714831 277.349871 
L 95.125186 277.349871 
L 95.125186 276.823185 
L 98.43941 276.823185 
L 98.43941 276.296499 
L 99.41757 276.296499 
L 99.41757 275.769812 
L 100.343767 275.769812 
L 100.343767 275.243126 
L 102.330873 275.243126 
L 102.330873 273.136382 
L 103.117741 273.136382 
L 103.117741 271.556324 
L 104.826449 271.556324 
L 104.826449 270.502952 
L 105.951954 270.502952 
L 105.951954 269.976266 
L 109.668146 269.976266 
L 109.668146 269.449579 
L 110.358901 269.449579 
L 110.358901 268.922893 
L 113.594805 268.922893 
L 113.594805 268.396207 
L 114.947365 268.396207 
L 114.947365 267.869521 
L 116.680349 267.869521 
L 116.680349 267.342835 
L 118.470564 267.342835 
L 118.470564 266.816149 
L 118.681952 266.816149 
L 118.681952 266.289463 
L 118.994305 266.289463 
L 118.994305 265.762777 
L 120.47729 265.762777 
L 120.571812 264.709405 
L 122.276749 264.709405 
L 122.276749 263.656033 
L 122.782271 263.656033 
L 122.782271 263.129347 
L 123.434283 263.129347 
L 123.434283 262.60266 
L 124.139788 262.60266 
L 124.139788 262.075974 
L 125.038147 262.075974 
L 125.038147 261.549288 
L 126.573795 261.549288 
L 126.573795 260.495916 
L 127.674226 260.495916 
L 127.674226 259.442544 
L 128.168991 259.442544 
L 128.168991 258.915858 
L 128.531065 258.915858 
L 128.531065 258.389172 
L 129.290685 258.389172 
L 129.290685 257.3358 
L 129.574256 257.3358 
L 129.574256 256.809114 
L 129.79784 256.809114 
L 129.79784 256.282427 
L 129.963666 256.282427 
L 129.963666 255.755741 
L 130.236587 255.755741 
L 130.236587 255.229055 
L 130.822389 255.229055 
L 130.822389 254.702369 
L 131.839545 254.702369 
L 131.839545 254.175683 
L 133.216421 254.175683 
L 133.216421 253.648997 
L 133.57787 253.648997 
L 133.667073 252.068939 
L 134.192921 252.068939 
L 134.192921 251.542253 
L 134.407429 251.542253 
L 134.407429 251.015567 
L 134.661403 251.015567 
L 134.661403 250.488881 
L 135.158519 250.488881 
L 135.158519 249.962195 
L 135.602085 249.962195 
L 135.602085 249.435508 
L 137.053015 249.435508 
L 137.053015 248.908822 
L 138.01518 248.908822 
L 138.01518 248.382136 
L 144.653267 248.382136 
L 144.653267 247.85545 
L 144.981877 247.85545 
L 144.981877 247.328764 
L 145.553708 247.328764 
L 145.553708 246.802078 
L 146.216039 246.802078 
L 146.216039 246.275392 
L 146.895853 246.275392 
L 146.895853 245.748706 
L 147.509976 245.748706 
L 147.509976 245.22202 
L 147.769524 245.22202 
L 147.769524 244.695334 
L 147.96658 244.695334 
L 148.005725 243.115275 
L 148.296548 243.115275 
L 148.354135 241.008531 
L 148.449693 241.008531 
L 148.449693 240.481845 
L 148.676918 240.481845 
L 148.752007 239.428473 
L 148.845415 239.428473 
L 148.901221 237.848415 
L 149.159312 237.848415 
L 149.159312 237.321729 
L 149.305096 237.321729 
L 149.305096 235.74167 
L 149.593058 235.74167 
L 149.699829 233.10824 
L 149.928949 233.10824 
L 149.963932 231.528182 
L 150.068464 231.528182 
L 150.103169 230.47481 
L 150.241302 230.47481 
L 150.241302 228.894751 
L 150.49739 228.894751 
L 150.49739 228.368065 
L 150.649257 228.368065 
L 150.649257 227.841379 
L 150.799813 227.841379 
L 150.866312 225.734635 
L 151.0643 225.734635 
L 151.0643 225.207949 
L 151.260066 225.207949 
L 151.260066 224.681263 
L 151.405461 224.681263 
L 151.405461 224.154577 
L 151.597455 224.154577 
L 151.597455 221.521146 
L 152.176471 221.521146 
L 152.26858 218.887716 
L 152.360205 218.887716 
L 152.405838 217.307658 
L 152.481628 217.307658 
L 152.481628 216.780971 
L 153.047115 216.780971 
L 153.13475 215.727599 
L 153.552218 215.727599 
L 153.552218 214.147541 
L 154.056927 214.147541 
L 154.056927 213.620855 
L 154.358321 213.620855 
L 154.453136 212.040797 
L 154.587699 212.040797 
L 154.641235 209.407366 
L 206.135121 209.407366 
L 206.237355 198.346959 
L 206.292051 198.346959 
L 206.365172 192.026726 
L 206.415351 192.026726 
L 206.444841 189.393295 
L 206.640404 189.393295 
L 206.750503 186.233179 
L 206.757908 186.233179 
L 206.868609 173.592713 
L 206.873958 173.592713 
L 206.969304 164.63905 
L 207.001856 164.63905 
L 207.021755 160.952247 
L 218.223807 160.952247 
L 218.330197 150.945211 
L 218.337821 150.945211 
L 218.387642 146.205037 
L 218.482048 146.205037 
L 218.592002 133.037885 
L 218.596441 133.037885 
L 218.670361 123.030849 
L 225.296222 123.030849 
L 225.403759 115.130558 
L 225.409996 115.130558 
L 225.520509 109.863697 
L 225.525787 109.863697 
L 225.594254 93.009743 
L 230.312667 93.009743 
L 230.419572 83.529393 
L 230.438278 83.529393 
L 230.536502 74.57573 
L 234.203537 74.57573 
L 234.306182 69.835555 
L 234.326833 69.835555 
L 234.382979 60.881892 
L 237.383862 60.881892 
L 237.489899 54.561659 
L 237.50699 54.561659 
L 237.532249 51.928228 
L 240.070893 51.928228 
L 240.16272 45.607995 
L 240.182236 45.607995 
L 240.199257 44.027937 
L 242.421131 44.027937 
L 242.504961 40.341135 
L 244.453448 40.341135 
L 244.553292 37.181018 
L 246.36301 37.181018 
L 246.379187 35.074274 
L 247.955988 35.074274 
L 247.955988 34.547588 
L 249.470164 34.547588 
L 249.544292 31.914157 
L 252.208135 31.914157 
L 252.208135 31.387471 
L 253.375607 31.387471 
L 253.375607 30.860785 
L 256.551199 30.860785 
L 256.551199 30.334099 
L 338.688 30.334099 
L 338.688 30.334099 
" style="fill:none;stroke:#0000ff;stroke-linecap:square;stroke-width:1.5;"/>
   </g>
   <g id="line2d_41">
    <defs>
     <path d="M 0 -6 
L -1.347084 -1.854102 
L -5.706339 -1.854102 
L -2.179628 0.708204 
L -3.526712 4.854102 
L -0 2.291796 
L 3.526712 4.854102 
L 2.179628 0.708204 
L 5.706339 -1.854102 
L 1.347084 -1.854102 
z
" id="m2d662dc8fb" style="stroke:#0000ff;stroke-linejoin:bevel;stroke-width:1.5;"/>
    </defs>
    <g>
     <use style="fill-opacity:0;stroke:#0000ff;stroke-linejoin:bevel;stroke-width:1.5;" x="114.947365" xlink:href="#m2d662dc8fb" y="268.396207"/>
     <use style="fill-opacity:0;stroke:#0000ff;stroke-linejoin:bevel;stroke-width:1.5;" x="154.641235" xlink:href="#m2d662dc8fb" y="210.460738"/>
     <use style="fill-opacity:0;stroke:#0000ff;stroke-linejoin:bevel;stroke-width:1.5;" x="230.468028" xlink:href="#m2d662dc8fb" y="81.949335"/>
     <use style="fill-opacity:0;stroke:#0000ff;stroke-linejoin:bevel;stroke-width:1.5;" x="256.551199" xlink:href="#m2d662dc8fb" y="30.334099"/>
     <use style="fill-opacity:0;stroke:#0000ff;stroke-linejoin:bevel;stroke-width:1.5;" x="256.551199" xlink:href="#m2d662dc8fb" y="30.334099"/>
     <use style="fill-opacity:0;stroke:#0000ff;stroke-linejoin:bevel;stroke-width:1.5;" x="338.688" xlink:href="#m2d662dc8fb" y="30.334099"/>
    </g>
   </g>
   <g id="line2d_42">
    <path style="fill:none;stroke:#0000ff;stroke-linecap:square;stroke-width:1.5;"/>
    <g/>
   </g>
   <g id="line2d_43">
    <path clip-path="url(#pe3d6f7bca3)" d="M 206.134423 209.407366 
" style="fill:none;stroke:#0000ff;stroke-linecap:square;stroke-width:1.5;"/>
    <defs>
     <path d="M -12 12 
L 12 -12 
M -12 -12 
L 12 12 
" id="mfbb57e93e5" style="stroke:#0000ff;"/>
    </defs>
    <g clip-path="url(#pe3d6f7bca3)">
     <use style="fill:#0000ff;stroke:#0000ff;" x="206.134423" xlink:href="#mfbb57e93e5" y="209.407366"/>
    </g>
   </g>
   <g id="line2d_44">
    <defs>
     <path d="M 0 1.5 
C 0.397805 1.5 0.77937 1.341951 1.06066 1.06066 
C 1.341951 0.77937 1.5 0.397805 1.5 0 
C 1.5 -0.397805 1.341951 -0.77937 1.06066 -1.06066 
C 0.77937 -1.341951 0.397805 -1.5 0 -1.5 
C -0.397805 -1.5 -0.77937 -1.341951 -1.06066 -1.06066 
C -1.341951 -0.77937 -1.5 -0.397805 -1.5 0 
C -1.5 0.397805 -1.341951 0.77937 -1.06066 1.06066 
C -0.77937 1.341951 -0.397805 1.5 0 1.5 
z
" id="m351223bf38" style="stroke:#000000;"/>
    </defs>
    <g>
     <use style="stroke:#000000;" x="282.122816" xlink:href="#m351223bf38" y="30.334099"/>
     <use style="stroke:#000000;" x="282.122816" xlink:href="#m351223bf38" y="30.334099"/>
    </g>
   </g>
   <g id="line2d_45">
    <path d="M 17.444571 298.944 
L 17.444571 293.677139 
L 82.626842 293.677139 
L 82.626842 293.150453 
L 89.697862 293.150453 
L 89.697862 292.623767 
L 89.972502 292.623767 
L 89.972502 292.097081 
L 91.029752 292.097081 
L 91.029752 291.570395 
L 92.026554 291.570395 
L 92.026554 291.043709 
L 93.197415 291.043709 
L 93.197415 290.517023 
L 93.422441 290.517023 
L 93.422441 289.990337 
L 94.294587 289.990337 
L 94.294587 289.463651 
L 94.505975 289.463651 
L 94.505975 288.936964 
L 95.125186 288.936964 
L 95.125186 288.410278 
L 95.526106 288.410278 
L 95.526106 287.883592 
L 95.918017 287.883592 
L 95.918017 287.356906 
L 96.86091 287.356906 
L 96.86091 286.83022 
L 98.935347 286.83022 
L 98.935347 286.303534 
L 100.040467 286.303534 
L 100.040467 285.776848 
L 100.934985 285.776848 
L 100.934985 285.250162 
L 101.506816 285.250162 
L 101.506816 284.723476 
L 101.646892 284.723476 
L 101.646892 284.19679 
L 101.785851 284.19679 
L 101.785851 283.670104 
L 102.597126 283.670104 
L 102.597126 283.143418 
L 103.747386 283.143418 
L 103.747386 282.616732 
L 104.23523 282.616732 
L 104.23523 282.090045 
L 104.474128 282.090045 
L 104.474128 280.509987 
L 104.709797 280.509987 
L 104.709797 279.983301 
L 105.171792 279.983301 
L 105.171792 279.456615 
L 105.51043 279.456615 
L 105.51043 278.929929 
L 105.842616 278.929929 
L 105.842616 278.403243 
L 106.275913 278.403243 
L 106.275913 277.876557 
L 106.48859 277.876557 
L 106.48859 277.349871 
L 106.906317 277.349871 
L 106.906317 276.823185 
L 109.040444 276.823185 
L 109.040444 276.296499 
L 109.401893 276.296499 
L 109.401893 275.243126 
L 109.756002 275.243126 
L 109.756002 274.71644 
L 109.930396 274.71644 
L 109.930396 274.189754 
L 110.61104 274.189754 
L 110.61104 273.663068 
L 110.77713 273.663068 
L 110.77713 273.136382 
L 111.505558 273.136382 
L 111.505558 272.609696 
L 111.74176 272.609696 
L 111.74176 272.08301 
L 112.280765 272.08301 
L 112.356423 270.502952 
L 113.095487 270.502952 
L 113.095487 269.976266 
L 113.942906 269.976266 
L 113.942906 268.922893 
L 115.141496 268.922893 
L 115.141496 268.396207 
L 115.773423 268.396207 
L 115.835374 267.342835 
L 116.202531 267.342835 
L 116.202531 266.816149 
L 118.629344 266.816149 
L 118.629344 266.289463 
L 118.786692 266.289463 
L 118.786692 265.762777 
L 119.40226 265.762777 
L 119.40226 265.236091 
L 121.712041 265.236091 
L 121.712041 264.709405 
L 122.531342 264.709405 
L 122.531342 264.182719 
L 123.07053 264.182719 
L 123.07053 263.656033 
L 123.790603 263.656033 
L 123.790603 263.129347 
L 125.470548 263.129347 
L 125.470548 262.60266 
L 126.202373 262.60266 
L 126.202373 262.075974 
L 127.132689 262.075974 
L 127.132689 261.549288 
L 127.54831 261.549288 
L 127.54831 261.022602 
L 131.133813 261.022602 
L 131.133813 259.96923 
L 131.962617 259.96923 
L 131.962617 259.442544 
L 132.847322 259.442544 
L 132.847322 258.915858 
L 135.076644 258.915858 
L 135.076644 258.389172 
L 135.956794 258.389172 
L 135.956794 257.862486 
L 137.540732 257.862486 
L 137.540732 257.3358 
L 138.728473 257.3358 
L 138.728473 256.809114 
L 139.058148 256.809114 
L 139.058148 256.282427 
L 139.620495 256.282427 
L 139.620495 255.755741 
L 139.933878 255.755741 
L 139.933878 255.229055 
L 141.788363 255.229055 
L 141.788363 254.702369 
L 142.805321 254.702369 
L 142.805321 254.175683 
L 145.932112 254.175683 
L 145.932112 253.648997 
L 147.499916 253.648997 
L 147.499916 253.122311 
L 147.96658 253.122311 
L 147.96658 252.595625 
L 148.190475 252.595625 
L 148.190475 252.068939 
L 148.826773 252.068939 
L 148.826773 251.542253 
L 148.956849 251.542253 
L 148.956849 251.015567 
L 149.83238 251.015567 
L 149.83238 250.488881 
L 150.224095 250.488881 
L 150.224095 249.962195 
L 150.352736 249.962195 
L 150.352736 249.435508 
L 151.340991 249.435508 
L 151.340991 248.908822 
L 151.920633 248.908822 
L 151.944047 247.85545 
L 152.23026 247.85545 
L 152.23026 247.328764 
L 152.443774 247.328764 
L 152.443774 246.802078 
L 152.647216 246.802078 
L 152.647216 246.275392 
L 152.959038 246.275392 
L 152.959038 245.748706 
L 153.112882 245.748706 
L 153.112882 245.22202 
L 153.25815 245.22202 
L 153.25815 244.695334 
L 153.402218 244.695334 
L 153.402218 244.168648 
L 153.686831 244.168648 
L 153.686831 243.641962 
L 153.883332 243.641962 
L 153.883332 242.061903 
L 154.105226 242.061903 
L 154.173993 241.008531 
L 154.310719 241.008531 
L 154.378682 239.955159 
L 154.513818 239.955159 
L 154.580996 238.901787 
L 154.866947 238.901787 
L 154.866947 238.375101 
L 155.128803 238.375101 
L 155.128803 237.848415 
L 155.488919 237.848415 
L 155.488919 237.321729 
L 155.672525 237.321729 
L 155.672525 236.795043 
L 155.996986 236.795043 
L 155.996986 236.268356 
L 156.723476 236.268356 
L 156.723476 235.74167 
L 156.92979 235.74167 
L 156.953214 234.688298 
L 157.540141 234.688298 
L 157.540141 234.161612 
L 158.217157 234.161612 
L 158.217157 233.634926 
L 218.247505 233.634926 
L 218.329851 226.788007 
L 218.403699 226.788007 
L 218.438354 224.681263 
L 218.52152 224.681263 
L 218.60702 218.887716 
L 218.640762 218.887716 
L 218.751246 207.827308 
L 218.755813 207.827308 
L 218.755813 206.773936 
L 230.321383 206.773936 
L 230.424944 196.7669 
L 230.435162 196.7669 
L 230.545537 179.912946 
L 230.549665 179.912946 
L 230.587038 175.699457 
L 237.400128 175.699457 
L 237.510395 163.585677 
L 237.514145 163.585677 
L 237.553962 153.578642 
L 242.407455 153.578642 
L 242.517826 139.884804 
L 242.5238 139.884804 
L 242.536996 137.251373 
L 246.303762 137.251373 
L 246.400722 123.030849 
L 249.473158 123.030849 
L 249.548951 107.756953 
L 252.170685 107.756953 
L 252.233776 100.910034 
L 254.501346 100.910034 
L 254.550607 91.95637 
L 256.551024 91.95637 
L 256.596684 84.056079 
L 258.395932 84.056079 
L 258.428113 79.315904 
L 260.052929 79.315904 
L 260.086828 72.995672 
L 261.569222 72.995672 
L 261.601606 66.148752 
L 262.967082 66.148752 
L 262.992169 61.935264 
L 264.257342 61.935264 
L 264.282182 56.668403 
L 265.458217 56.668403 
L 265.477367 54.034973 
L 266.605803 54.034973 
L 266.606249 52.9816 
L 267.6439 52.9816 
L 267.66268 49.821484 
L 268.638045 49.821484 
L 268.654623 47.188054 
L 269.578358 47.188054 
L 269.594644 45.607995 
L 270.471217 45.607995 
L 270.493221 41.921193 
L 271.322075 41.921193 
L 271.331809 40.341135 
L 272.136014 40.341135 
L 272.151053 38.761076 
L 273.662075 38.761076 
L 273.664971 37.181018 
L 274.375481 37.181018 
L 274.375481 36.654332 
L 276.338707 36.654332 
L 276.352325 34.547588 
L 276.960561 34.547588 
L 276.961702 33.494215 
L 277.548186 33.494215 
L 277.548186 32.967529 
L 278.120062 32.967529 
L 278.120062 32.440843 
L 279.211995 32.440843 
L 279.211995 31.914157 
L 280.725767 31.914157 
L 280.725767 31.387471 
L 281.206992 31.387471 
L 281.206992 30.860785 
L 282.122816 30.860785 
L 282.122816 30.334099 
L 338.688 30.334099 
L 338.688 30.334099 
" style="fill:none;stroke:#000000;stroke-linecap:square;stroke-width:1.5;"/>
   </g>
   <g id="line2d_46">
    <defs>
     <path d="M 0 6 
C 1.591219 6 3.117479 5.367802 4.242641 4.242641 
C 5.367802 3.117479 6 1.591219 6 0 
C 6 -1.591219 5.367802 -3.117479 4.242641 -4.242641 
C 3.117479 -5.367802 1.591219 -6 0 -6 
C -1.591219 -6 -3.117479 -5.367802 -4.242641 -4.242641 
C -5.367802 -3.117479 -6 -1.591219 -6 0 
C -6 1.591219 -5.367802 3.117479 -4.242641 4.242641 
C -3.117479 5.367802 -1.591219 6 0 6 
z
" id="mbf625180d3" style="stroke:#000000;stroke-width:1.5;"/>
    </defs>
    <g>
     <use style="fill-opacity:0;stroke:#000000;stroke-width:1.5;" x="91.029752" xlink:href="#mbf625180d3" y="291.570395"/>
     <use style="fill-opacity:0;stroke:#000000;stroke-width:1.5;" x="155.672525" xlink:href="#mbf625180d3" y="236.795043"/>
     <use style="fill-opacity:0;stroke:#000000;stroke-width:1.5;" x="237.549644" xlink:href="#mbf625180d3" y="155.685386"/>
     <use style="fill-opacity:0;stroke:#000000;stroke-width:1.5;" x="267.654957" xlink:href="#mbf625180d3" y="52.454914"/>
     <use style="fill-opacity:0;stroke:#000000;stroke-width:1.5;" x="282.122816" xlink:href="#mbf625180d3" y="30.334099"/>
     <use style="fill-opacity:0;stroke:#000000;stroke-width:1.5;" x="338.688" xlink:href="#mbf625180d3" y="30.334099"/>
    </g>
   </g>
   <g id="line2d_47">
    <path style="fill:none;stroke:#000000;stroke-linecap:square;stroke-width:1.5;"/>
    <g/>
   </g>
   <g id="line2d_48">
    <path clip-path="url(#pe3d6f7bca3)" d="M 218.221889 233.634926 
" style="fill:none;stroke:#000000;stroke-linecap:square;stroke-width:1.5;"/>
    <defs>
     <path d="M -12 12 
L 12 -12 
M -12 -12 
L 12 12 
" id="m005e229c47" style="stroke:#000000;"/>
    </defs>
    <g clip-path="url(#pe3d6f7bca3)">
     <use style="stroke:#000000;" x="218.221889" xlink:href="#m005e229c47" y="233.634926"/>
    </g>
   </g>
   <g id="line2d_49">
    <path d="M 338.688 30.334099 
L 369.60768 293.571802 
" style="fill:none;stroke:#000000;stroke-linecap:square;stroke-width:1.5;"/>
    <g>
     <use style="fill-opacity:0;stroke:#000000;stroke-width:1.5;" x="338.688" xlink:href="#mbf625180d3" y="30.334099"/>
     <use style="fill-opacity:0;stroke:#000000;stroke-width:1.5;" x="369.60768" xlink:href="#mbf625180d3" y="293.571802"/>
    </g>
   </g>
   <g id="line2d_50">
    <path d="M 338.688 30.334099 
L 369.60768 207.616634 
" style="fill:none;stroke:#0000ff;stroke-linecap:square;stroke-width:1.5;"/>
    <g>
     <use style="fill-opacity:0;stroke:#0000ff;stroke-linejoin:bevel;stroke-width:1.5;" x="338.688" xlink:href="#m2d662dc8fb" y="30.334099"/>
     <use style="fill-opacity:0;stroke:#0000ff;stroke-linejoin:bevel;stroke-width:1.5;" x="369.60768" xlink:href="#m2d662dc8fb" y="207.616634"/>
    </g>
   </g>
   <g id="line2d_51">
    <path d="M 338.688 30.334099 
L 369.60768 121.661465 
" style="fill:none;stroke:#00bfbf;stroke-linecap:square;stroke-width:1.5;"/>
    <g>
     <use style="fill-opacity:0;stroke:#00bfbf;stroke-width:1.5;" x="338.688" xlink:href="#m03c9085dc7" y="30.334099"/>
     <use style="fill-opacity:0;stroke:#00bfbf;stroke-width:1.5;" x="369.60768" xlink:href="#m03c9085dc7" y="121.661465"/>
    </g>
   </g>
   <g id="line2d_52">
    <path d="M 338.688 30.334099 
L 369.60768 35.706297 
" style="fill:none;stroke:#008000;stroke-linecap:square;stroke-width:1.5;"/>
    <g>
     <use style="fill-opacity:0;stroke:#008000;stroke-linejoin:miter;stroke-width:1.5;" x="338.688" xlink:href="#mfa7c2d1851" y="30.334099"/>
     <use style="fill-opacity:0;stroke:#008000;stroke-linejoin:miter;stroke-width:1.5;" x="369.60768" xlink:href="#mfa7c2d1851" y="35.706297"/>
    </g>
   </g>
   <g id="line2d_53">
    <path d="M 338.688 298.944 
L 338.688 30.334099 
" style="fill:none;stroke:#000000;stroke-linecap:square;stroke-width:1.5;"/>
   </g>
   <g id="patch_3">
    <path d="M 57.6 298.944 
L 57.6 27.648 
" style="fill:none;stroke:#000000;stroke-linecap:square;stroke-linejoin:miter;stroke-width:0.8;"/>
   </g>
   <g id="patch_4">
    <path d="M 338.688 298.944 
L 338.688 27.648 
" style="fill:none;stroke:#000000;stroke-linecap:square;stroke-linejoin:miter;stroke-width:0.8;"/>
   </g>
   <g id="patch_5">
    <path d="M 57.6 298.944 
L 338.688 298.944 
" style="fill:none;stroke:#000000;stroke-linecap:square;stroke-linejoin:miter;stroke-width:0.8;"/>
   </g>
   <g id="patch_6">
    <path d="M 57.6 27.648 
L 338.688 27.648 
" style="fill:none;stroke:#000000;stroke-linecap:square;stroke-linejoin:miter;stroke-width:0.8;"/>
   </g>
   <g id="text_13">
    <!-- 10-D -->
    <g transform="translate(375.22944 298.262739)scale(0.17 -0.17)">
     <defs>
      <path d="M 19.671875 64.796875 
L 19.671875 8.109375 
L 31.59375 8.109375 
Q 46.6875 8.109375 53.6875 14.9375 
Q 60.6875 21.78125 60.6875 36.53125 
Q 60.6875 51.171875 53.6875 57.984375 
Q 46.6875 64.796875 31.59375 64.796875 
z
M 9.8125 72.90625 
L 30.078125 72.90625 
Q 51.265625 72.90625 61.171875 64.09375 
Q 71.09375 55.28125 71.09375 36.53125 
Q 71.09375 17.671875 61.125 8.828125 
Q 51.171875 0 30.078125 0 
L 9.8125 0 
z
" id="DejaVuSans-68"/>
     </defs>
     <use xlink:href="#DejaVuSans-49"/>
     <use x="63.623047" xlink:href="#DejaVuSans-48"/>
     <use x="127.246094" xlink:href="#DejaVuSans-45"/>
     <use x="163.330078" xlink:href="#DejaVuSans-68"/>
    </g>
   </g>
   <g id="text_14">
    <!-- 5-D -->
    <g transform="translate(375.22944 212.307571)scale(0.17 -0.17)">
     <defs>
      <path d="M 10.796875 72.90625 
L 49.515625 72.90625 
L 49.515625 64.59375 
L 19.828125 64.59375 
L 19.828125 46.734375 
Q 21.96875 47.46875 24.109375 47.828125 
Q 26.265625 48.1875 28.421875 48.1875 
Q 40.625 48.1875 47.75 41.5 
Q 54.890625 34.8125 54.890625 23.390625 
Q 54.890625 11.625 47.5625 5.09375 
Q 40.234375 -1.421875 26.90625 -1.421875 
Q 22.3125 -1.421875 17.546875 -0.640625 
Q 12.796875 0.140625 7.71875 1.703125 
L 7.71875 11.625 
Q 12.109375 9.234375 16.796875 8.0625 
Q 21.484375 6.890625 26.703125 6.890625 
Q 35.15625 6.890625 40.078125 11.328125 
Q 45.015625 15.765625 45.015625 23.390625 
Q 45.015625 31 40.078125 35.4375 
Q 35.15625 39.890625 26.703125 39.890625 
Q 22.75 39.890625 18.8125 39.015625 
Q 14.890625 38.140625 10.796875 36.28125 
z
" id="DejaVuSans-53"/>
     </defs>
     <use xlink:href="#DejaVuSans-53"/>
     <use x="63.623047" xlink:href="#DejaVuSans-45"/>
     <use x="99.707031" xlink:href="#DejaVuSans-68"/>
    </g>
   </g>
   <g id="text_15">
    <!-- 2-D -->
    <g transform="translate(375.22944 126.352403)scale(0.17 -0.17)">
     <use xlink:href="#DejaVuSans-50"/>
     <use x="63.623047" xlink:href="#DejaVuSans-45"/>
     <use x="99.707031" xlink:href="#DejaVuSans-68"/>
    </g>
   </g>
   <g id="text_16">
    <!-- 3-D -->
    <g transform="translate(375.22944 40.397235)scale(0.17 -0.17)">
     <defs>
      <path d="M 40.578125 39.3125 
Q 47.65625 37.796875 51.625 33 
Q 55.609375 28.21875 55.609375 21.1875 
Q 55.609375 10.40625 48.1875 4.484375 
Q 40.765625 -1.421875 27.09375 -1.421875 
Q 22.515625 -1.421875 17.65625 -0.515625 
Q 12.796875 0.390625 7.625 2.203125 
L 7.625 11.71875 
Q 11.71875 9.328125 16.59375 8.109375 
Q 21.484375 6.890625 26.8125 6.890625 
Q 36.078125 6.890625 40.9375 10.546875 
Q 45.796875 14.203125 45.796875 21.1875 
Q 45.796875 27.640625 41.28125 31.265625 
Q 36.765625 34.90625 28.71875 34.90625 
L 20.21875 34.90625 
L 20.21875 43.015625 
L 29.109375 43.015625 
Q 36.375 43.015625 40.234375 45.921875 
Q 44.09375 48.828125 44.09375 54.296875 
Q 44.09375 59.90625 40.109375 62.90625 
Q 36.140625 65.921875 28.71875 65.921875 
Q 24.65625 65.921875 20.015625 65.03125 
Q 15.375 64.15625 9.8125 62.3125 
L 9.8125 71.09375 
Q 15.4375 72.65625 20.34375 73.4375 
Q 25.25 74.21875 29.59375 74.21875 
Q 40.828125 74.21875 47.359375 69.109375 
Q 53.90625 64.015625 53.90625 55.328125 
Q 53.90625 49.265625 50.4375 45.09375 
Q 46.96875 40.921875 40.578125 39.3125 
z
" id="DejaVuSans-51"/>
     </defs>
     <use xlink:href="#DejaVuSans-51"/>
     <use x="63.623047" xlink:href="#DejaVuSans-45"/>
     <use x="99.707031" xlink:href="#DejaVuSans-68"/>
    </g>
   </g>
   <g id="text_17">
    <!-- bbob f22 -->
    <g transform="translate(60.41088 38.111366)scale(0.102 -0.102)">
     <defs>
      <path d="M 48.6875 27.296875 
Q 48.6875 37.203125 44.609375 42.84375 
Q 40.53125 48.484375 33.40625 48.484375 
Q 26.265625 48.484375 22.1875 42.84375 
Q 18.109375 37.203125 18.109375 27.296875 
Q 18.109375 17.390625 22.1875 11.75 
Q 26.265625 6.109375 33.40625 6.109375 
Q 40.53125 6.109375 44.609375 11.75 
Q 48.6875 17.390625 48.6875 27.296875 
z
M 18.109375 46.390625 
Q 20.953125 51.265625 25.265625 53.625 
Q 29.59375 56 35.59375 56 
Q 45.5625 56 51.78125 48.09375 
Q 58.015625 40.1875 58.015625 27.296875 
Q 58.015625 14.40625 51.78125 6.484375 
Q 45.5625 -1.421875 35.59375 -1.421875 
Q 29.59375 -1.421875 25.265625 0.953125 
Q 20.953125 3.328125 18.109375 8.203125 
L 18.109375 0 
L 9.078125 0 
L 9.078125 75.984375 
L 18.109375 75.984375 
z
" id="DejaVuSans-98"/>
     </defs>
     <use xlink:href="#DejaVuSans-98"/>
     <use x="63.476562" xlink:href="#DejaVuSans-98"/>
     <use x="126.953125" xlink:href="#DejaVuSans-111"/>
     <use x="188.134766" xlink:href="#DejaVuSans-98"/>
     <use x="251.611328" xlink:href="#DejaVuSans-32"/>
     <use x="283.398438" xlink:href="#DejaVuSans-102"/>
     <use x="318.603516" xlink:href="#DejaVuSans-50"/>
     <use x="382.226562" xlink:href="#DejaVuSans-50"/>
    </g>
    <!-- 51 targets: 100..1e-08 -->
    <g transform="translate(60.41088 49.533135)scale(0.102 -0.102)">
     <defs>
      <path d="M 11.71875 12.40625 
L 22.015625 12.40625 
L 22.015625 0 
L 11.71875 0 
z
M 11.71875 51.703125 
L 22.015625 51.703125 
L 22.015625 39.3125 
L 11.71875 39.3125 
z
" id="DejaVuSans-58"/>
     </defs>
     <use xlink:href="#DejaVuSans-53"/>
     <use x="63.623047" xlink:href="#DejaVuSans-49"/>
     <use x="127.246094" xlink:href="#DejaVuSans-32"/>
     <use x="159.033203" xlink:href="#DejaVuSans-116"/>
     <use x="198.242188" xlink:href="#DejaVuSans-97"/>
     <use x="259.521484" xlink:href="#DejaVuSans-114"/>
     <use x="298.884766" xlink:href="#DejaVuSans-103"/>
     <use x="362.361328" xlink:href="#DejaVuSans-101"/>
     <use x="423.884766" xlink:href="#DejaVuSans-116"/>
     <use x="463.09375" xlink:href="#DejaVuSans-115"/>
     <use x="515.193359" xlink:href="#DejaVuSans-58"/>
     <use x="548.884766" xlink:href="#DejaVuSans-32"/>
     <use x="580.671875" xlink:href="#DejaVuSans-49"/>
     <use x="644.294922" xlink:href="#DejaVuSans-48"/>
     <use x="707.917969" xlink:href="#DejaVuSans-48"/>
     <use x="771.541016" xlink:href="#DejaVuSans-46"/>
     <use x="803.328125" xlink:href="#DejaVuSans-46"/>
     <use x="835.115234" xlink:href="#DejaVuSans-49"/>
     <use x="898.738281" xlink:href="#DejaVuSans-101"/>
     <use x="960.261719" xlink:href="#DejaVuSans-45"/>
     <use x="996.345703" xlink:href="#DejaVuSans-48"/>
     <use x="1059.96875" xlink:href="#DejaVuSans-56"/>
    </g>
    <!-- 15 instances -->
    <g transform="translate(60.41088 60.954904)scale(0.102 -0.102)">
     <use xlink:href="#DejaVuSans-49"/>
     <use x="63.623047" xlink:href="#DejaVuSans-53"/>
     <use x="127.246094" xlink:href="#DejaVuSans-32"/>
     <use x="159.033203" xlink:href="#DejaVuSans-105"/>
     <use x="186.816406" xlink:href="#DejaVuSans-110"/>
     <use x="250.195312" xlink:href="#DejaVuSans-115"/>
     <use x="302.294922" xlink:href="#DejaVuSans-116"/>
     <use x="341.503906" xlink:href="#DejaVuSans-97"/>
     <use x="402.783203" xlink:href="#DejaVuSans-110"/>
     <use x="466.162109" xlink:href="#DejaVuSans-99"/>
     <use x="521.142578" xlink:href="#DejaVuSans-101"/>
     <use x="582.666016" xlink:href="#DejaVuSans-115"/>
    </g>
   </g>
   <g id="text_18">
    <!-- v2.4 -->
    <g style="fill:#808080;" transform="translate(187.233062 294.151352)scale(0.1 -0.1)">
     <use xlink:href="#DejaVuSans-118"/>
     <use x="59.179688" xlink:href="#DejaVuSans-50"/>
     <use x="122.802734" xlink:href="#DejaVuSans-46"/>
     <use x="154.589844" xlink:href="#DejaVuSans-52"/>
    </g>
   </g>
   <g id="text_19">
    <!-- 22 Gallagher 21 peaks -->
    <g transform="translate(85.019 21.648)scale(0.2 -0.2)">
     <defs>
      <path d="M 59.515625 10.40625 
L 59.515625 29.984375 
L 43.40625 29.984375 
L 43.40625 38.09375 
L 69.28125 38.09375 
L 69.28125 6.78125 
Q 63.578125 2.734375 56.6875 0.65625 
Q 49.8125 -1.421875 42 -1.421875 
Q 24.90625 -1.421875 15.25 8.5625 
Q 5.609375 18.5625 5.609375 36.375 
Q 5.609375 54.25 15.25 64.234375 
Q 24.90625 74.21875 42 74.21875 
Q 49.125 74.21875 55.546875 72.453125 
Q 61.96875 70.703125 67.390625 67.28125 
L 67.390625 56.78125 
Q 61.921875 61.421875 55.765625 63.765625 
Q 49.609375 66.109375 42.828125 66.109375 
Q 29.4375 66.109375 22.71875 58.640625 
Q 16.015625 51.171875 16.015625 36.375 
Q 16.015625 21.625 22.71875 14.15625 
Q 29.4375 6.6875 42.828125 6.6875 
Q 48.046875 6.6875 52.140625 7.59375 
Q 56.25 8.5 59.515625 10.40625 
z
" id="DejaVuSans-71"/>
      <path d="M 54.890625 33.015625 
L 54.890625 0 
L 45.90625 0 
L 45.90625 32.71875 
Q 45.90625 40.484375 42.875 44.328125 
Q 39.84375 48.1875 33.796875 48.1875 
Q 26.515625 48.1875 22.3125 43.546875 
Q 18.109375 38.921875 18.109375 30.90625 
L 18.109375 0 
L 9.078125 0 
L 9.078125 75.984375 
L 18.109375 75.984375 
L 18.109375 46.1875 
Q 21.34375 51.125 25.703125 53.5625 
Q 30.078125 56 35.796875 56 
Q 45.21875 56 50.046875 50.171875 
Q 54.890625 44.34375 54.890625 33.015625 
z
" id="DejaVuSans-104"/>
      <path d="M 9.078125 75.984375 
L 18.109375 75.984375 
L 18.109375 31.109375 
L 44.921875 54.6875 
L 56.390625 54.6875 
L 27.390625 29.109375 
L 57.625 0 
L 45.90625 0 
L 18.109375 26.703125 
L 18.109375 0 
L 9.078125 0 
z
" id="DejaVuSans-107"/>
     </defs>
     <use xlink:href="#DejaVuSans-50"/>
     <use x="63.623047" xlink:href="#DejaVuSans-50"/>
     <use x="127.246094" xlink:href="#DejaVuSans-32"/>
     <use x="159.033203" xlink:href="#DejaVuSans-71"/>
     <use x="236.523438" xlink:href="#DejaVuSans-97"/>
     <use x="297.802734" xlink:href="#DejaVuSans-108"/>
     <use x="325.585938" xlink:href="#DejaVuSans-108"/>
     <use x="353.369141" xlink:href="#DejaVuSans-97"/>
     <use x="414.648438" xlink:href="#DejaVuSans-103"/>
     <use x="478.125" xlink:href="#DejaVuSans-104"/>
     <use x="541.503906" xlink:href="#DejaVuSans-101"/>
     <use x="603.027344" xlink:href="#DejaVuSans-114"/>
     <use x="644.140625" xlink:href="#DejaVuSans-32"/>
     <use x="675.927734" xlink:href="#DejaVuSans-50"/>
     <use x="739.550781" xlink:href="#DejaVuSans-49"/>
     <use x="803.173828" xlink:href="#DejaVuSans-32"/>
     <use x="834.960938" xlink:href="#DejaVuSans-112"/>
     <use x="898.4375" xlink:href="#DejaVuSans-101"/>
     <use x="959.960938" xlink:href="#DejaVuSans-97"/>
     <use x="1021.240234" xlink:href="#DejaVuSans-107"/>
     <use x="1079.150391" xlink:href="#DejaVuSans-115"/>
    </g>
   </g>
  </g>
 </g>
 <defs>
  <clipPath id="pe3d6f7bca3">
   <rect height="271.296" width="281.088" x="57.6" y="27.648"/>
  </clipPath>
 </defs>
</svg>
