<?xml version="1.0" encoding="utf-8" standalone="no"?>
<!DOCTYPE svg PUBLIC "-//W3C//DTD SVG 1.1//EN"
  "http://www.w3.org/Graphics/SVG/1.1/DTD/svg11.dtd">
<!-- Created with matplotlib (https://matplotlib.org/) -->
<svg height="345.6pt" version="1.1" viewBox="0 0 460.8 345.6" width="460.8pt" xmlns="http://www.w3.org/2000/svg" xmlns:xlink="http://www.w3.org/1999/xlink">
 <metadata>
  <rdf:RDF xmlns:cc="http://creativecommons.org/ns#" xmlns:dc="http://purl.org/dc/elements/1.1/" xmlns:rdf="http://www.w3.org/1999/02/22-rdf-syntax-ns#">
   <cc:Work>
    <dc:type rdf:resource="http://purl.org/dc/dcmitype/StillImage"/>
    <dc:date>2021-06-17T01:39:21.781931</dc:date>
    <dc:format>image/svg+xml</dc:format>
    <dc:creator>
     <cc:Agent>
      <dc:title>Matplotlib v3.3.4, https://matplotlib.org/</dc:title>
     </cc:Agent>
    </dc:creator>
   </cc:Work>
  </rdf:RDF>
 </metadata>
 <defs>
  <style type="text/css">*{stroke-linecap:butt;stroke-linejoin:round;}</style>
 </defs>
 <g id="figure_1">
  <g id="patch_1">
   <path d="M 0 345.6 
L 460.8 345.6 
L 460.8 0 
L 0 0 
z
" style="fill:#ffffff;"/>
  </g>
  <g id="axes_1">
   <g id="patch_2">
    <path d="M 57.6 298.944 
L 338.688 298.944 
L 338.688 27.648 
L 57.6 27.648 
z
" style="fill:#ffffff;"/>
   </g>
   <g id="matplotlib.axis_1">
    <g id="xtick_1">
     <g id="line2d_1">
      <path clip-path="url(#pc5a449da69)" d="M 57.6 298.944 
L 57.6 27.648 
" style="fill:none;stroke:#b0b0b0;stroke-linecap:square;stroke-width:0.8;"/>
     </g>
     <g id="line2d_2">
      <defs>
       <path d="M 0 0 
L 0 3.5 
" id="meeffcbbdfd" style="stroke:#000000;stroke-width:0.8;"/>
      </defs>
      <g>
       <use style="stroke:#000000;stroke-width:0.8;" x="57.6" xlink:href="#meeffcbbdfd" y="298.944"/>
      </g>
     </g>
     <g id="text_1">
      <!-- 0 -->
      <g transform="translate(51.2375 321.140875)scale(0.2 -0.2)">
       <defs>
        <path d="M 31.78125 66.40625 
Q 24.171875 66.40625 20.328125 58.90625 
Q 16.5 51.421875 16.5 36.375 
Q 16.5 21.390625 20.328125 13.890625 
Q 24.171875 6.390625 31.78125 6.390625 
Q 39.453125 6.390625 43.28125 13.890625 
Q 47.125 21.390625 47.125 36.375 
Q 47.125 51.421875 43.28125 58.90625 
Q 39.453125 66.40625 31.78125 66.40625 
z
M 31.78125 74.21875 
Q 44.046875 74.21875 50.515625 64.515625 
Q 56.984375 54.828125 56.984375 36.375 
Q 56.984375 17.96875 50.515625 8.265625 
Q 44.046875 -1.421875 31.78125 -1.421875 
Q 19.53125 -1.421875 13.0625 8.265625 
Q 6.59375 17.96875 6.59375 36.375 
Q 6.59375 54.828125 13.0625 64.515625 
Q 19.53125 74.21875 31.78125 74.21875 
z
" id="DejaVuSans-48"/>
       </defs>
       <use xlink:href="#DejaVuSans-48"/>
      </g>
     </g>
    </g>
    <g id="xtick_2">
     <g id="line2d_3">
      <path clip-path="url(#pc5a449da69)" d="M 137.910857 298.944 
L 137.910857 27.648 
" style="fill:none;stroke:#b0b0b0;stroke-linecap:square;stroke-width:0.8;"/>
     </g>
     <g id="line2d_4">
      <g>
       <use style="stroke:#000000;stroke-width:0.8;" x="137.910857" xlink:href="#meeffcbbdfd" y="298.944"/>
      </g>
     </g>
     <g id="text_2">
      <!-- 2 -->
      <g transform="translate(131.548357 321.140875)scale(0.2 -0.2)">
       <defs>
        <path d="M 19.1875 8.296875 
L 53.609375 8.296875 
L 53.609375 0 
L 7.328125 0 
L 7.328125 8.296875 
Q 12.9375 14.109375 22.625 23.890625 
Q 32.328125 33.6875 34.8125 36.53125 
Q 39.546875 41.84375 41.421875 45.53125 
Q 43.3125 49.21875 43.3125 52.78125 
Q 43.3125 58.59375 39.234375 62.25 
Q 35.15625 65.921875 28.609375 65.921875 
Q 23.96875 65.921875 18.8125 64.3125 
Q 13.671875 62.703125 7.8125 59.421875 
L 7.8125 69.390625 
Q 13.765625 71.78125 18.9375 73 
Q 24.125 74.21875 28.421875 74.21875 
Q 39.75 74.21875 46.484375 68.546875 
Q 53.21875 62.890625 53.21875 53.421875 
Q 53.21875 48.921875 51.53125 44.890625 
Q 49.859375 40.875 45.40625 35.40625 
Q 44.1875 33.984375 37.640625 27.21875 
Q 31.109375 20.453125 19.1875 8.296875 
z
" id="DejaVuSans-50"/>
       </defs>
       <use xlink:href="#DejaVuSans-50"/>
      </g>
     </g>
    </g>
    <g id="xtick_3">
     <g id="line2d_5">
      <path clip-path="url(#pc5a449da69)" d="M 218.221714 298.944 
L 218.221714 27.648 
" style="fill:none;stroke:#b0b0b0;stroke-linecap:square;stroke-width:0.8;"/>
     </g>
     <g id="line2d_6">
      <g>
       <use style="stroke:#000000;stroke-width:0.8;" x="218.221714" xlink:href="#meeffcbbdfd" y="298.944"/>
      </g>
     </g>
     <g id="text_3">
      <!-- 4 -->
      <g transform="translate(211.859214 321.140875)scale(0.2 -0.2)">
       <defs>
        <path d="M 37.796875 64.3125 
L 12.890625 25.390625 
L 37.796875 25.390625 
z
M 35.203125 72.90625 
L 47.609375 72.90625 
L 47.609375 25.390625 
L 58.015625 25.390625 
L 58.015625 17.1875 
L 47.609375 17.1875 
L 47.609375 0 
L 37.796875 0 
L 37.796875 17.1875 
L 4.890625 17.1875 
L 4.890625 26.703125 
z
" id="DejaVuSans-52"/>
       </defs>
       <use xlink:href="#DejaVuSans-52"/>
      </g>
     </g>
    </g>
    <g id="xtick_4">
     <g id="line2d_7">
      <path clip-path="url(#pc5a449da69)" d="M 298.532571 298.944 
L 298.532571 27.648 
" style="fill:none;stroke:#b0b0b0;stroke-linecap:square;stroke-width:0.8;"/>
     </g>
     <g id="line2d_8">
      <g>
       <use style="stroke:#000000;stroke-width:0.8;" x="298.532571" xlink:href="#meeffcbbdfd" y="298.944"/>
      </g>
     </g>
     <g id="text_4">
      <!-- 6 -->
      <g transform="translate(292.170071 321.140875)scale(0.2 -0.2)">
       <defs>
        <path d="M 33.015625 40.375 
Q 26.375 40.375 22.484375 35.828125 
Q 18.609375 31.296875 18.609375 23.390625 
Q 18.609375 15.53125 22.484375 10.953125 
Q 26.375 6.390625 33.015625 6.390625 
Q 39.65625 6.390625 43.53125 10.953125 
Q 47.40625 15.53125 47.40625 23.390625 
Q 47.40625 31.296875 43.53125 35.828125 
Q 39.65625 40.375 33.015625 40.375 
z
M 52.59375 71.296875 
L 52.59375 62.3125 
Q 48.875 64.0625 45.09375 64.984375 
Q 41.3125 65.921875 37.59375 65.921875 
Q 27.828125 65.921875 22.671875 59.328125 
Q 17.53125 52.734375 16.796875 39.40625 
Q 19.671875 43.65625 24.015625 45.921875 
Q 28.375 48.1875 33.59375 48.1875 
Q 44.578125 48.1875 50.953125 41.515625 
Q 57.328125 34.859375 57.328125 23.390625 
Q 57.328125 12.15625 50.6875 5.359375 
Q 44.046875 -1.421875 33.015625 -1.421875 
Q 20.359375 -1.421875 13.671875 8.265625 
Q 6.984375 17.96875 6.984375 36.375 
Q 6.984375 53.65625 15.1875 63.9375 
Q 23.390625 74.21875 37.203125 74.21875 
Q 40.921875 74.21875 44.703125 73.484375 
Q 48.484375 72.75 52.59375 71.296875 
z
" id="DejaVuSans-54"/>
       </defs>
       <use xlink:href="#DejaVuSans-54"/>
      </g>
     </g>
    </g>
    <g id="xtick_5">
     <g id="line2d_9">
      <path clip-path="url(#pc5a449da69)" d="M 97.755429 298.944 
L 97.755429 27.648 
" style="fill:none;stroke:#b0b0b0;stroke-linecap:square;stroke-width:0.8;"/>
     </g>
     <g id="line2d_10">
      <defs>
       <path d="M 0 0 
L 0 2 
" id="m4100a2b369" style="stroke:#000000;stroke-width:0.6;"/>
      </defs>
      <g>
       <use style="stroke:#000000;stroke-width:0.6;" x="97.755429" xlink:href="#m4100a2b369" y="298.944"/>
      </g>
     </g>
    </g>
    <g id="xtick_6">
     <g id="line2d_11">
      <path clip-path="url(#pc5a449da69)" d="M 178.066286 298.944 
L 178.066286 27.648 
" style="fill:none;stroke:#b0b0b0;stroke-linecap:square;stroke-width:0.8;"/>
     </g>
     <g id="line2d_12">
      <g>
       <use style="stroke:#000000;stroke-width:0.6;" x="178.066286" xlink:href="#m4100a2b369" y="298.944"/>
      </g>
     </g>
    </g>
    <g id="xtick_7">
     <g id="line2d_13">
      <path clip-path="url(#pc5a449da69)" d="M 258.377143 298.944 
L 258.377143 27.648 
" style="fill:none;stroke:#b0b0b0;stroke-linecap:square;stroke-width:0.8;"/>
     </g>
     <g id="line2d_14">
      <g>
       <use style="stroke:#000000;stroke-width:0.6;" x="258.377143" xlink:href="#m4100a2b369" y="298.944"/>
      </g>
     </g>
    </g>
    <g id="xtick_8">
     <g id="line2d_15">
      <path clip-path="url(#pc5a449da69)" d="M 338.688 298.944 
L 338.688 27.648 
" style="fill:none;stroke:#b0b0b0;stroke-linecap:square;stroke-width:0.8;"/>
     </g>
     <g id="line2d_16">
      <g>
       <use style="stroke:#000000;stroke-width:0.6;" x="338.688" xlink:href="#m4100a2b369" y="298.944"/>
      </g>
     </g>
    </g>
    <g id="text_5">
     <!-- log10(# f-evals / dimension) -->
     <g transform="translate(77.764078 342.217594)scale(0.17 -0.17)">
      <defs>
       <path d="M 9.421875 75.984375 
L 18.40625 75.984375 
L 18.40625 0 
L 9.421875 0 
z
" id="DejaVuSans-108"/>
       <path d="M 30.609375 48.390625 
Q 23.390625 48.390625 19.1875 42.75 
Q 14.984375 37.109375 14.984375 27.296875 
Q 14.984375 17.484375 19.15625 11.84375 
Q 23.34375 6.203125 30.609375 6.203125 
Q 37.796875 6.203125 41.984375 11.859375 
Q 46.1875 17.53125 46.1875 27.296875 
Q 46.1875 37.015625 41.984375 42.703125 
Q 37.796875 48.390625 30.609375 48.390625 
z
M 30.609375 56 
Q 42.328125 56 49.015625 48.375 
Q 55.71875 40.765625 55.71875 27.296875 
Q 55.71875 13.875 49.015625 6.21875 
Q 42.328125 -1.421875 30.609375 -1.421875 
Q 18.84375 -1.421875 12.171875 6.21875 
Q 5.515625 13.875 5.515625 27.296875 
Q 5.515625 40.765625 12.171875 48.375 
Q 18.84375 56 30.609375 56 
z
" id="DejaVuSans-111"/>
       <path d="M 45.40625 27.984375 
Q 45.40625 37.75 41.375 43.109375 
Q 37.359375 48.484375 30.078125 48.484375 
Q 22.859375 48.484375 18.828125 43.109375 
Q 14.796875 37.75 14.796875 27.984375 
Q 14.796875 18.265625 18.828125 12.890625 
Q 22.859375 7.515625 30.078125 7.515625 
Q 37.359375 7.515625 41.375 12.890625 
Q 45.40625 18.265625 45.40625 27.984375 
z
M 54.390625 6.78125 
Q 54.390625 -7.171875 48.1875 -13.984375 
Q 42 -20.796875 29.203125 -20.796875 
Q 24.46875 -20.796875 20.265625 -20.09375 
Q 16.0625 -19.390625 12.109375 -17.921875 
L 12.109375 -9.1875 
Q 16.0625 -11.328125 19.921875 -12.34375 
Q 23.78125 -13.375 27.78125 -13.375 
Q 36.625 -13.375 41.015625 -8.765625 
Q 45.40625 -4.15625 45.40625 5.171875 
L 45.40625 9.625 
Q 42.625 4.78125 38.28125 2.390625 
Q 33.9375 0 27.875 0 
Q 17.828125 0 11.671875 7.65625 
Q 5.515625 15.328125 5.515625 27.984375 
Q 5.515625 40.671875 11.671875 48.328125 
Q 17.828125 56 27.875 56 
Q 33.9375 56 38.28125 53.609375 
Q 42.625 51.21875 45.40625 46.390625 
L 45.40625 54.6875 
L 54.390625 54.6875 
z
" id="DejaVuSans-103"/>
       <path d="M 12.40625 8.296875 
L 28.515625 8.296875 
L 28.515625 63.921875 
L 10.984375 60.40625 
L 10.984375 69.390625 
L 28.421875 72.90625 
L 38.28125 72.90625 
L 38.28125 8.296875 
L 54.390625 8.296875 
L 54.390625 0 
L 12.40625 0 
z
" id="DejaVuSans-49"/>
       <path d="M 31 75.875 
Q 24.46875 64.65625 21.28125 53.65625 
Q 18.109375 42.671875 18.109375 31.390625 
Q 18.109375 20.125 21.3125 9.0625 
Q 24.515625 -2 31 -13.1875 
L 23.1875 -13.1875 
Q 15.875 -1.703125 12.234375 9.375 
Q 8.59375 20.453125 8.59375 31.390625 
Q 8.59375 42.28125 12.203125 53.3125 
Q 15.828125 64.359375 23.1875 75.875 
z
" id="DejaVuSans-40"/>
       <path d="M 51.125 44 
L 36.921875 44 
L 32.8125 27.6875 
L 47.125 27.6875 
z
M 43.796875 71.78125 
L 38.71875 51.515625 
L 52.984375 51.515625 
L 58.109375 71.78125 
L 65.921875 71.78125 
L 60.890625 51.515625 
L 76.125 51.515625 
L 76.125 44 
L 58.984375 44 
L 54.984375 27.6875 
L 70.515625 27.6875 
L 70.515625 20.21875 
L 53.078125 20.21875 
L 48 0 
L 40.1875 0 
L 45.21875 20.21875 
L 30.90625 20.21875 
L 25.875 0 
L 18.015625 0 
L 23.09375 20.21875 
L 7.71875 20.21875 
L 7.71875 27.6875 
L 24.90625 27.6875 
L 29 44 
L 13.28125 44 
L 13.28125 51.515625 
L 30.90625 51.515625 
L 35.890625 71.78125 
z
" id="DejaVuSans-35"/>
       <path id="DejaVuSans-32"/>
       <path d="M 37.109375 75.984375 
L 37.109375 68.5 
L 28.515625 68.5 
Q 23.6875 68.5 21.796875 66.546875 
Q 19.921875 64.59375 19.921875 59.515625 
L 19.921875 54.6875 
L 34.71875 54.6875 
L 34.71875 47.703125 
L 19.921875 47.703125 
L 19.921875 0 
L 10.890625 0 
L 10.890625 47.703125 
L 2.296875 47.703125 
L 2.296875 54.6875 
L 10.890625 54.6875 
L 10.890625 58.5 
Q 10.890625 67.625 15.140625 71.796875 
Q 19.390625 75.984375 28.609375 75.984375 
z
" id="DejaVuSans-102"/>
       <path d="M 4.890625 31.390625 
L 31.203125 31.390625 
L 31.203125 23.390625 
L 4.890625 23.390625 
z
" id="DejaVuSans-45"/>
       <path d="M 56.203125 29.59375 
L 56.203125 25.203125 
L 14.890625 25.203125 
Q 15.484375 15.921875 20.484375 11.0625 
Q 25.484375 6.203125 34.421875 6.203125 
Q 39.59375 6.203125 44.453125 7.46875 
Q 49.3125 8.734375 54.109375 11.28125 
L 54.109375 2.78125 
Q 49.265625 0.734375 44.1875 -0.34375 
Q 39.109375 -1.421875 33.890625 -1.421875 
Q 20.796875 -1.421875 13.15625 6.1875 
Q 5.515625 13.8125 5.515625 26.8125 
Q 5.515625 40.234375 12.765625 48.109375 
Q 20.015625 56 32.328125 56 
Q 43.359375 56 49.78125 48.890625 
Q 56.203125 41.796875 56.203125 29.59375 
z
M 47.21875 32.234375 
Q 47.125 39.59375 43.09375 43.984375 
Q 39.0625 48.390625 32.421875 48.390625 
Q 24.90625 48.390625 20.390625 44.140625 
Q 15.875 39.890625 15.1875 32.171875 
z
" id="DejaVuSans-101"/>
       <path d="M 2.984375 54.6875 
L 12.5 54.6875 
L 29.59375 8.796875 
L 46.6875 54.6875 
L 56.203125 54.6875 
L 35.6875 0 
L 23.484375 0 
z
" id="DejaVuSans-118"/>
       <path d="M 34.28125 27.484375 
Q 23.390625 27.484375 19.1875 25 
Q 14.984375 22.515625 14.984375 16.5 
Q 14.984375 11.71875 18.140625 8.90625 
Q 21.296875 6.109375 26.703125 6.109375 
Q 34.1875 6.109375 38.703125 11.40625 
Q 43.21875 16.703125 43.21875 25.484375 
L 43.21875 27.484375 
z
M 52.203125 31.203125 
L 52.203125 0 
L 43.21875 0 
L 43.21875 8.296875 
Q 40.140625 3.328125 35.546875 0.953125 
Q 30.953125 -1.421875 24.3125 -1.421875 
Q 15.921875 -1.421875 10.953125 3.296875 
Q 6 8.015625 6 15.921875 
Q 6 25.140625 12.171875 29.828125 
Q 18.359375 34.515625 30.609375 34.515625 
L 43.21875 34.515625 
L 43.21875 35.40625 
Q 43.21875 41.609375 39.140625 45 
Q 35.0625 48.390625 27.6875 48.390625 
Q 23 48.390625 18.546875 47.265625 
Q 14.109375 46.140625 10.015625 43.890625 
L 10.015625 52.203125 
Q 14.9375 54.109375 19.578125 55.046875 
Q 24.21875 56 28.609375 56 
Q 40.484375 56 46.34375 49.84375 
Q 52.203125 43.703125 52.203125 31.203125 
z
" id="DejaVuSans-97"/>
       <path d="M 44.28125 53.078125 
L 44.28125 44.578125 
Q 40.484375 46.53125 36.375 47.5 
Q 32.28125 48.484375 27.875 48.484375 
Q 21.1875 48.484375 17.84375 46.4375 
Q 14.5 44.390625 14.5 40.28125 
Q 14.5 37.15625 16.890625 35.375 
Q 19.28125 33.59375 26.515625 31.984375 
L 29.59375 31.296875 
Q 39.15625 29.25 43.1875 25.515625 
Q 47.21875 21.78125 47.21875 15.09375 
Q 47.21875 7.46875 41.1875 3.015625 
Q 35.15625 -1.421875 24.609375 -1.421875 
Q 20.21875 -1.421875 15.453125 -0.5625 
Q 10.6875 0.296875 5.421875 2 
L 5.421875 11.28125 
Q 10.40625 8.6875 15.234375 7.390625 
Q 20.0625 6.109375 24.8125 6.109375 
Q 31.15625 6.109375 34.5625 8.28125 
Q 37.984375 10.453125 37.984375 14.40625 
Q 37.984375 18.0625 35.515625 20.015625 
Q 33.0625 21.96875 24.703125 23.78125 
L 21.578125 24.515625 
Q 13.234375 26.265625 9.515625 29.90625 
Q 5.8125 33.546875 5.8125 39.890625 
Q 5.8125 47.609375 11.28125 51.796875 
Q 16.75 56 26.8125 56 
Q 31.78125 56 36.171875 55.265625 
Q 40.578125 54.546875 44.28125 53.078125 
z
" id="DejaVuSans-115"/>
       <path d="M 25.390625 72.90625 
L 33.6875 72.90625 
L 8.296875 -9.28125 
L 0 -9.28125 
z
" id="DejaVuSans-47"/>
       <path d="M 45.40625 46.390625 
L 45.40625 75.984375 
L 54.390625 75.984375 
L 54.390625 0 
L 45.40625 0 
L 45.40625 8.203125 
Q 42.578125 3.328125 38.25 0.953125 
Q 33.9375 -1.421875 27.875 -1.421875 
Q 17.96875 -1.421875 11.734375 6.484375 
Q 5.515625 14.40625 5.515625 27.296875 
Q 5.515625 40.1875 11.734375 48.09375 
Q 17.96875 56 27.875 56 
Q 33.9375 56 38.25 53.625 
Q 42.578125 51.265625 45.40625 46.390625 
z
M 14.796875 27.296875 
Q 14.796875 17.390625 18.875 11.75 
Q 22.953125 6.109375 30.078125 6.109375 
Q 37.203125 6.109375 41.296875 11.75 
Q 45.40625 17.390625 45.40625 27.296875 
Q 45.40625 37.203125 41.296875 42.84375 
Q 37.203125 48.484375 30.078125 48.484375 
Q 22.953125 48.484375 18.875 42.84375 
Q 14.796875 37.203125 14.796875 27.296875 
z
" id="DejaVuSans-100"/>
       <path d="M 9.421875 54.6875 
L 18.40625 54.6875 
L 18.40625 0 
L 9.421875 0 
z
M 9.421875 75.984375 
L 18.40625 75.984375 
L 18.40625 64.59375 
L 9.421875 64.59375 
z
" id="DejaVuSans-105"/>
       <path d="M 52 44.1875 
Q 55.375 50.25 60.0625 53.125 
Q 64.75 56 71.09375 56 
Q 79.640625 56 84.28125 50.015625 
Q 88.921875 44.046875 88.921875 33.015625 
L 88.921875 0 
L 79.890625 0 
L 79.890625 32.71875 
Q 79.890625 40.578125 77.09375 44.375 
Q 74.3125 48.1875 68.609375 48.1875 
Q 61.625 48.1875 57.5625 43.546875 
Q 53.515625 38.921875 53.515625 30.90625 
L 53.515625 0 
L 44.484375 0 
L 44.484375 32.71875 
Q 44.484375 40.625 41.703125 44.40625 
Q 38.921875 48.1875 33.109375 48.1875 
Q 26.21875 48.1875 22.15625 43.53125 
Q 18.109375 38.875 18.109375 30.90625 
L 18.109375 0 
L 9.078125 0 
L 9.078125 54.6875 
L 18.109375 54.6875 
L 18.109375 46.1875 
Q 21.1875 51.21875 25.484375 53.609375 
Q 29.78125 56 35.6875 56 
Q 41.65625 56 45.828125 52.96875 
Q 50 49.953125 52 44.1875 
z
" id="DejaVuSans-109"/>
       <path d="M 54.890625 33.015625 
L 54.890625 0 
L 45.90625 0 
L 45.90625 32.71875 
Q 45.90625 40.484375 42.875 44.328125 
Q 39.84375 48.1875 33.796875 48.1875 
Q 26.515625 48.1875 22.3125 43.546875 
Q 18.109375 38.921875 18.109375 30.90625 
L 18.109375 0 
L 9.078125 0 
L 9.078125 54.6875 
L 18.109375 54.6875 
L 18.109375 46.1875 
Q 21.34375 51.125 25.703125 53.5625 
Q 30.078125 56 35.796875 56 
Q 45.21875 56 50.046875 50.171875 
Q 54.890625 44.34375 54.890625 33.015625 
z
" id="DejaVuSans-110"/>
       <path d="M 8.015625 75.875 
L 15.828125 75.875 
Q 23.140625 64.359375 26.78125 53.3125 
Q 30.421875 42.28125 30.421875 31.390625 
Q 30.421875 20.453125 26.78125 9.375 
Q 23.140625 -1.703125 15.828125 -13.1875 
L 8.015625 -13.1875 
Q 14.5 -2 17.703125 9.0625 
Q 20.90625 20.125 20.90625 31.390625 
Q 20.90625 42.671875 17.703125 53.65625 
Q 14.5 64.65625 8.015625 75.875 
z
" id="DejaVuSans-41"/>
      </defs>
      <use xlink:href="#DejaVuSans-108"/>
      <use x="27.783203" xlink:href="#DejaVuSans-111"/>
      <use x="88.964844" xlink:href="#DejaVuSans-103"/>
      <use x="152.441406" xlink:href="#DejaVuSans-49"/>
      <use x="216.064453" xlink:href="#DejaVuSans-48"/>
      <use x="279.6875" xlink:href="#DejaVuSans-40"/>
      <use x="318.701172" xlink:href="#DejaVuSans-35"/>
      <use x="402.490234" xlink:href="#DejaVuSans-32"/>
      <use x="434.277344" xlink:href="#DejaVuSans-102"/>
      <use x="463.982422" xlink:href="#DejaVuSans-45"/>
      <use x="500.066406" xlink:href="#DejaVuSans-101"/>
      <use x="561.589844" xlink:href="#DejaVuSans-118"/>
      <use x="620.769531" xlink:href="#DejaVuSans-97"/>
      <use x="682.048828" xlink:href="#DejaVuSans-108"/>
      <use x="709.832031" xlink:href="#DejaVuSans-115"/>
      <use x="761.931641" xlink:href="#DejaVuSans-32"/>
      <use x="793.71875" xlink:href="#DejaVuSans-47"/>
      <use x="827.410156" xlink:href="#DejaVuSans-32"/>
      <use x="859.197266" xlink:href="#DejaVuSans-100"/>
      <use x="922.673828" xlink:href="#DejaVuSans-105"/>
      <use x="950.457031" xlink:href="#DejaVuSans-109"/>
      <use x="1047.869141" xlink:href="#DejaVuSans-101"/>
      <use x="1109.392578" xlink:href="#DejaVuSans-110"/>
      <use x="1172.771484" xlink:href="#DejaVuSans-115"/>
      <use x="1224.871094" xlink:href="#DejaVuSans-105"/>
      <use x="1252.654297" xlink:href="#DejaVuSans-111"/>
      <use x="1313.835938" xlink:href="#DejaVuSans-110"/>
      <use x="1377.214844" xlink:href="#DejaVuSans-41"/>
     </g>
    </g>
   </g>
   <g id="matplotlib.axis_2">
    <g id="ytick_1">
     <g id="line2d_17">
      <path clip-path="url(#pc5a449da69)" d="M 57.6 298.944 
L 338.688 298.944 
" style="fill:none;stroke:#b0b0b0;stroke-linecap:square;stroke-width:0.8;"/>
     </g>
     <g id="line2d_18">
      <defs>
       <path d="M 0 0 
L -3.5 0 
" id="m0dd2eef95b" style="stroke:#000000;stroke-width:0.8;"/>
      </defs>
      <g>
       <use style="stroke:#000000;stroke-width:0.8;" x="57.6" xlink:href="#m0dd2eef95b" y="298.944"/>
      </g>
     </g>
     <g id="text_6">
      <!-- 0.0 -->
      <g transform="translate(25.155 305.02275)scale(0.16 -0.16)">
       <defs>
        <path d="M 10.6875 12.40625 
L 21 12.40625 
L 21 0 
L 10.6875 0 
z
" id="DejaVuSans-46"/>
       </defs>
       <use xlink:href="#DejaVuSans-48"/>
       <use x="63.623047" xlink:href="#DejaVuSans-46"/>
       <use x="95.410156" xlink:href="#DejaVuSans-48"/>
      </g>
     </g>
    </g>
    <g id="ytick_2">
     <g id="line2d_19">
      <path clip-path="url(#pc5a449da69)" d="M 57.6 245.22202 
L 338.688 245.22202 
" style="fill:none;stroke:#b0b0b0;stroke-linecap:square;stroke-width:0.8;"/>
     </g>
     <g id="line2d_20">
      <g>
       <use style="stroke:#000000;stroke-width:0.8;" x="57.6" xlink:href="#m0dd2eef95b" y="245.22202"/>
      </g>
     </g>
     <g id="text_7">
      <!-- 0.2 -->
      <g transform="translate(25.155 251.30077)scale(0.16 -0.16)">
       <use xlink:href="#DejaVuSans-48"/>
       <use x="63.623047" xlink:href="#DejaVuSans-46"/>
       <use x="95.410156" xlink:href="#DejaVuSans-50"/>
      </g>
     </g>
    </g>
    <g id="ytick_3">
     <g id="line2d_21">
      <path clip-path="url(#pc5a449da69)" d="M 57.6 191.50004 
L 338.688 191.50004 
" style="fill:none;stroke:#b0b0b0;stroke-linecap:square;stroke-width:0.8;"/>
     </g>
     <g id="line2d_22">
      <g>
       <use style="stroke:#000000;stroke-width:0.8;" x="57.6" xlink:href="#m0dd2eef95b" y="191.50004"/>
      </g>
     </g>
     <g id="text_8">
      <!-- 0.4 -->
      <g transform="translate(25.155 197.57879)scale(0.16 -0.16)">
       <use xlink:href="#DejaVuSans-48"/>
       <use x="63.623047" xlink:href="#DejaVuSans-46"/>
       <use x="95.410156" xlink:href="#DejaVuSans-52"/>
      </g>
     </g>
    </g>
    <g id="ytick_4">
     <g id="line2d_23">
      <path clip-path="url(#pc5a449da69)" d="M 57.6 137.778059 
L 338.688 137.778059 
" style="fill:none;stroke:#b0b0b0;stroke-linecap:square;stroke-width:0.8;"/>
     </g>
     <g id="line2d_24">
      <g>
       <use style="stroke:#000000;stroke-width:0.8;" x="57.6" xlink:href="#m0dd2eef95b" y="137.778059"/>
      </g>
     </g>
     <g id="text_9">
      <!-- 0.6 -->
      <g transform="translate(25.155 143.856809)scale(0.16 -0.16)">
       <use xlink:href="#DejaVuSans-48"/>
       <use x="63.623047" xlink:href="#DejaVuSans-46"/>
       <use x="95.410156" xlink:href="#DejaVuSans-54"/>
      </g>
     </g>
    </g>
    <g id="ytick_5">
     <g id="line2d_25">
      <path clip-path="url(#pc5a449da69)" d="M 57.6 84.056079 
L 338.688 84.056079 
" style="fill:none;stroke:#b0b0b0;stroke-linecap:square;stroke-width:0.8;"/>
     </g>
     <g id="line2d_26">
      <g>
       <use style="stroke:#000000;stroke-width:0.8;" x="57.6" xlink:href="#m0dd2eef95b" y="84.056079"/>
      </g>
     </g>
     <g id="text_10">
      <!-- 0.8 -->
      <g transform="translate(25.155 90.134829)scale(0.16 -0.16)">
       <defs>
        <path d="M 31.78125 34.625 
Q 24.75 34.625 20.71875 30.859375 
Q 16.703125 27.09375 16.703125 20.515625 
Q 16.703125 13.921875 20.71875 10.15625 
Q 24.75 6.390625 31.78125 6.390625 
Q 38.8125 6.390625 42.859375 10.171875 
Q 46.921875 13.96875 46.921875 20.515625 
Q 46.921875 27.09375 42.890625 30.859375 
Q 38.875 34.625 31.78125 34.625 
z
M 21.921875 38.8125 
Q 15.578125 40.375 12.03125 44.71875 
Q 8.5 49.078125 8.5 55.328125 
Q 8.5 64.0625 14.71875 69.140625 
Q 20.953125 74.21875 31.78125 74.21875 
Q 42.671875 74.21875 48.875 69.140625 
Q 55.078125 64.0625 55.078125 55.328125 
Q 55.078125 49.078125 51.53125 44.71875 
Q 48 40.375 41.703125 38.8125 
Q 48.828125 37.15625 52.796875 32.3125 
Q 56.78125 27.484375 56.78125 20.515625 
Q 56.78125 9.90625 50.3125 4.234375 
Q 43.84375 -1.421875 31.78125 -1.421875 
Q 19.734375 -1.421875 13.25 4.234375 
Q 6.78125 9.90625 6.78125 20.515625 
Q 6.78125 27.484375 10.78125 32.3125 
Q 14.796875 37.15625 21.921875 38.8125 
z
M 18.3125 54.390625 
Q 18.3125 48.734375 21.84375 45.5625 
Q 25.390625 42.390625 31.78125 42.390625 
Q 38.140625 42.390625 41.71875 45.5625 
Q 45.3125 48.734375 45.3125 54.390625 
Q 45.3125 60.0625 41.71875 63.234375 
Q 38.140625 66.40625 31.78125 66.40625 
Q 25.390625 66.40625 21.84375 63.234375 
Q 18.3125 60.0625 18.3125 54.390625 
z
" id="DejaVuSans-56"/>
       </defs>
       <use xlink:href="#DejaVuSans-48"/>
       <use x="63.623047" xlink:href="#DejaVuSans-46"/>
       <use x="95.410156" xlink:href="#DejaVuSans-56"/>
      </g>
     </g>
    </g>
    <g id="ytick_6">
     <g id="line2d_27">
      <path clip-path="url(#pc5a449da69)" d="M 57.6 30.334099 
L 338.688 30.334099 
" style="fill:none;stroke:#b0b0b0;stroke-linecap:square;stroke-width:0.8;"/>
     </g>
     <g id="line2d_28">
      <g>
       <use style="stroke:#000000;stroke-width:0.8;" x="57.6" xlink:href="#m0dd2eef95b" y="30.334099"/>
      </g>
     </g>
     <g id="text_11">
      <!-- 1.0 -->
      <g transform="translate(25.155 36.412849)scale(0.16 -0.16)">
       <use xlink:href="#DejaVuSans-49"/>
       <use x="63.623047" xlink:href="#DejaVuSans-46"/>
       <use x="95.410156" xlink:href="#DejaVuSans-48"/>
      </g>
     </g>
    </g>
    <g id="text_12">
     <!-- Fraction of function,target pairs -->
     <g transform="translate(17.619531 297.681)rotate(-90)scale(0.17 -0.17)">
      <defs>
       <path d="M 9.8125 72.90625 
L 51.703125 72.90625 
L 51.703125 64.59375 
L 19.671875 64.59375 
L 19.671875 43.109375 
L 48.578125 43.109375 
L 48.578125 34.8125 
L 19.671875 34.8125 
L 19.671875 0 
L 9.8125 0 
z
" id="DejaVuSans-70"/>
       <path d="M 41.109375 46.296875 
Q 39.59375 47.171875 37.8125 47.578125 
Q 36.03125 48 33.890625 48 
Q 26.265625 48 22.1875 43.046875 
Q 18.109375 38.09375 18.109375 28.8125 
L 18.109375 0 
L 9.078125 0 
L 9.078125 54.6875 
L 18.109375 54.6875 
L 18.109375 46.1875 
Q 20.953125 51.171875 25.484375 53.578125 
Q 30.03125 56 36.53125 56 
Q 37.453125 56 38.578125 55.875 
Q 39.703125 55.765625 41.0625 55.515625 
z
" id="DejaVuSans-114"/>
       <path d="M 48.78125 52.59375 
L 48.78125 44.1875 
Q 44.96875 46.296875 41.140625 47.34375 
Q 37.3125 48.390625 33.40625 48.390625 
Q 24.65625 48.390625 19.8125 42.84375 
Q 14.984375 37.3125 14.984375 27.296875 
Q 14.984375 17.28125 19.8125 11.734375 
Q 24.65625 6.203125 33.40625 6.203125 
Q 37.3125 6.203125 41.140625 7.25 
Q 44.96875 8.296875 48.78125 10.40625 
L 48.78125 2.09375 
Q 45.015625 0.34375 40.984375 -0.53125 
Q 36.96875 -1.421875 32.421875 -1.421875 
Q 20.0625 -1.421875 12.78125 6.34375 
Q 5.515625 14.109375 5.515625 27.296875 
Q 5.515625 40.671875 12.859375 48.328125 
Q 20.21875 56 33.015625 56 
Q 37.15625 56 41.109375 55.140625 
Q 45.0625 54.296875 48.78125 52.59375 
z
" id="DejaVuSans-99"/>
       <path d="M 18.3125 70.21875 
L 18.3125 54.6875 
L 36.8125 54.6875 
L 36.8125 47.703125 
L 18.3125 47.703125 
L 18.3125 18.015625 
Q 18.3125 11.328125 20.140625 9.421875 
Q 21.96875 7.515625 27.59375 7.515625 
L 36.8125 7.515625 
L 36.8125 0 
L 27.59375 0 
Q 17.1875 0 13.234375 3.875 
Q 9.28125 7.765625 9.28125 18.015625 
L 9.28125 47.703125 
L 2.6875 47.703125 
L 2.6875 54.6875 
L 9.28125 54.6875 
L 9.28125 70.21875 
z
" id="DejaVuSans-116"/>
       <path d="M 8.5 21.578125 
L 8.5 54.6875 
L 17.484375 54.6875 
L 17.484375 21.921875 
Q 17.484375 14.15625 20.5 10.265625 
Q 23.53125 6.390625 29.59375 6.390625 
Q 36.859375 6.390625 41.078125 11.03125 
Q 45.3125 15.671875 45.3125 23.6875 
L 45.3125 54.6875 
L 54.296875 54.6875 
L 54.296875 0 
L 45.3125 0 
L 45.3125 8.40625 
Q 42.046875 3.421875 37.71875 1 
Q 33.40625 -1.421875 27.6875 -1.421875 
Q 18.265625 -1.421875 13.375 4.4375 
Q 8.5 10.296875 8.5 21.578125 
z
M 31.109375 56 
z
" id="DejaVuSans-117"/>
       <path d="M 11.71875 12.40625 
L 22.015625 12.40625 
L 22.015625 4 
L 14.015625 -11.625 
L 7.71875 -11.625 
L 11.71875 4 
z
" id="DejaVuSans-44"/>
       <path d="M 18.109375 8.203125 
L 18.109375 -20.796875 
L 9.078125 -20.796875 
L 9.078125 54.6875 
L 18.109375 54.6875 
L 18.109375 46.390625 
Q 20.953125 51.265625 25.265625 53.625 
Q 29.59375 56 35.59375 56 
Q 45.5625 56 51.78125 48.09375 
Q 58.015625 40.1875 58.015625 27.296875 
Q 58.015625 14.40625 51.78125 6.484375 
Q 45.5625 -1.421875 35.59375 -1.421875 
Q 29.59375 -1.421875 25.265625 0.953125 
Q 20.953125 3.328125 18.109375 8.203125 
z
M 48.6875 27.296875 
Q 48.6875 37.203125 44.609375 42.84375 
Q 40.53125 48.484375 33.40625 48.484375 
Q 26.265625 48.484375 22.1875 42.84375 
Q 18.109375 37.203125 18.109375 27.296875 
Q 18.109375 17.390625 22.1875 11.75 
Q 26.265625 6.109375 33.40625 6.109375 
Q 40.53125 6.109375 44.609375 11.75 
Q 48.6875 17.390625 48.6875 27.296875 
z
" id="DejaVuSans-112"/>
      </defs>
      <use xlink:href="#DejaVuSans-70"/>
      <use x="50.269531" xlink:href="#DejaVuSans-114"/>
      <use x="91.382812" xlink:href="#DejaVuSans-97"/>
      <use x="152.662109" xlink:href="#DejaVuSans-99"/>
      <use x="207.642578" xlink:href="#DejaVuSans-116"/>
      <use x="246.851562" xlink:href="#DejaVuSans-105"/>
      <use x="274.634766" xlink:href="#DejaVuSans-111"/>
      <use x="335.816406" xlink:href="#DejaVuSans-110"/>
      <use x="399.195312" xlink:href="#DejaVuSans-32"/>
      <use x="430.982422" xlink:href="#DejaVuSans-111"/>
      <use x="492.164062" xlink:href="#DejaVuSans-102"/>
      <use x="527.369141" xlink:href="#DejaVuSans-32"/>
      <use x="559.15625" xlink:href="#DejaVuSans-102"/>
      <use x="594.361328" xlink:href="#DejaVuSans-117"/>
      <use x="657.740234" xlink:href="#DejaVuSans-110"/>
      <use x="721.119141" xlink:href="#DejaVuSans-99"/>
      <use x="776.099609" xlink:href="#DejaVuSans-116"/>
      <use x="815.308594" xlink:href="#DejaVuSans-105"/>
      <use x="843.091797" xlink:href="#DejaVuSans-111"/>
      <use x="904.273438" xlink:href="#DejaVuSans-110"/>
      <use x="967.652344" xlink:href="#DejaVuSans-44"/>
      <use x="999.439453" xlink:href="#DejaVuSans-116"/>
      <use x="1038.648438" xlink:href="#DejaVuSans-97"/>
      <use x="1099.927734" xlink:href="#DejaVuSans-114"/>
      <use x="1139.291016" xlink:href="#DejaVuSans-103"/>
      <use x="1202.767578" xlink:href="#DejaVuSans-101"/>
      <use x="1264.291016" xlink:href="#DejaVuSans-116"/>
      <use x="1303.5" xlink:href="#DejaVuSans-32"/>
      <use x="1335.287109" xlink:href="#DejaVuSans-112"/>
      <use x="1398.763672" xlink:href="#DejaVuSans-97"/>
      <use x="1460.042969" xlink:href="#DejaVuSans-105"/>
      <use x="1487.826172" xlink:href="#DejaVuSans-114"/>
      <use x="1528.939453" xlink:href="#DejaVuSans-115"/>
     </g>
    </g>
   </g>
   <g id="line2d_29">
    <defs>
     <path d="M 0 1.5 
C 0.397805 1.5 0.77937 1.341951 1.06066 1.06066 
C 1.341951 0.77937 1.5 0.397805 1.5 0 
C 1.5 -0.397805 1.341951 -0.77937 1.06066 -1.06066 
C 0.77937 -1.341951 0.397805 -1.5 0 -1.5 
C -0.397805 -1.5 -0.77937 -1.341951 -1.06066 -1.06066 
C -1.341951 -0.77937 -1.5 -0.397805 -1.5 0 
C -1.5 0.397805 -1.341951 0.77937 -1.06066 1.06066 
C -0.77937 1.341951 -0.397805 1.5 0 1.5 
z
" id="m45f3ded4b8" style="stroke:#00bfbf;"/>
    </defs>
    <g>
     <use style="fill:#00bfbf;stroke:#00bfbf;" x="155.0376" xlink:href="#m45f3ded4b8" y="30.334099"/>
     <use style="fill:#00bfbf;stroke:#00bfbf;" x="155.0376" xlink:href="#m45f3ded4b8" y="30.334099"/>
    </g>
   </g>
   <g id="line2d_30">
    <path d="M 45.512012 298.944 
L 45.512012 269.449579 
L 73.579452 269.449579 
L 73.579452 268.922893 
L 81.775977 268.922893 
L 81.775977 267.869521 
L 91.535274 267.869521 
L 91.535274 267.342835 
L 93.863965 267.342835 
L 93.863965 266.816149 
L 95.918017 266.816149 
L 95.918017 266.289463 
L 98.606294 266.289463 
L 98.606294 265.762777 
L 99.41757 265.762777 
L 99.41757 261.549288 
L 100.192776 261.549288 
L 100.192776 261.022602 
L 102.330873 261.022602 
L 102.330873 258.389172 
L 102.989037 258.389172 
L 102.989037 257.862486 
L 103.623262 257.862486 
L 103.623262 257.3358 
L 104.23523 257.3358 
L 104.23523 256.809114 
L 105.951954 256.809114 
L 105.951954 256.282427 
L 106.48859 256.282427 
L 106.48859 255.229055 
L 107.514726 255.229055 
L 107.514726 253.122311 
L 108.006005 253.122311 
L 108.006005 252.068939 
L 108.948899 252.068939 
L 108.948899 249.435508 
L 109.401893 249.435508 
L 109.401893 248.908822 
L 110.274038 248.908822 
L 110.274038 246.275392 
L 111.897469 246.275392 
L 111.897469 245.748706 
L 112.280765 245.748706 
L 112.280765 244.168648 
L 112.655818 244.168648 
L 112.655818 242.588589 
L 113.382559 242.588589 
L 113.382559 240.481845 
L 114.418861 240.481845 
L 114.418861 238.375101 
L 115.077025 238.375101 
L 115.077025 237.321729 
L 115.711251 237.321729 
L 115.711251 236.268356 
L 116.019919 236.268356 
L 116.019919 233.634926 
L 117.202696 233.634926 
L 117.202696 231.528182 
L 118.039942 231.528182 
L 118.039942 230.47481 
L 118.576578 230.47481 
L 118.576578 229.948123 
L 118.838828 229.948123 
L 118.838828 227.314693 
L 119.097192 227.314693 
L 119.097192 224.154577 
L 119.351785 224.154577 
L 119.351785 223.627891 
L 119.602714 223.627891 
L 119.602714 222.574518 
L 120.33454 222.574518 
L 120.33454 222.047832 
L 121.489881 222.047832 
L 121.489881 220.99446 
L 121.931406 220.99446 
L 121.931406 216.254285 
L 122.573415 216.254285 
L 122.573415 215.200913 
L 123.593547 215.200913 
L 123.593547 213.620855 
L 124.178158 213.620855 
L 124.178158 213.094169 
L 124.368753 213.094169 
L 124.368753 212.040797 
L 124.92835 212.040797 
L 124.92835 211.514111 
L 125.291682 211.514111 
L 125.291682 207.300622 
L 125.470548 207.300622 
L 125.470548 206.773936 
L 125.822869 206.773936 
L 125.822869 203.613819 
L 126.673734 203.613819 
L 126.673734 203.087133 
L 127.325746 203.087133 
L 127.325746 199.927017 
L 128.260216 199.927017 
L 128.260216 199.400331 
L 128.560901 199.400331 
L 128.560901 198.873645 
L 128.709321 198.873645 
L 128.709321 196.7669 
L 128.856489 196.7669 
L 128.856489 195.186842 
L 129.147151 195.186842 
L 129.147151 189.393295 
L 129.991152 189.393295 
L 129.991152 186.759865 
L 131.056477 186.759865 
L 131.056477 186.233179 
L 132.181982 186.233179 
L 132.181982 185.706493 
L 132.541568 185.706493 
L 132.541568 185.179807 
L 133.239232 185.179807 
L 133.239232 178.859574 
L 133.46572 178.859574 
L 133.46572 177.806202 
L 133.800029 177.806202 
L 133.800029 177.279515 
L 134.343353 177.279515 
L 134.343353 175.699457 
L 134.973757 175.699457 
L 134.973757 173.592713 
L 135.178927 173.592713 
L 135.178927 173.066027 
L 135.482227 173.066027 
L 135.582166 169.90591 
L 136.170062 169.90591 
L 136.170062 168.852538 
L 136.456742 168.852538 
L 136.456742 168.325852 
L 136.645276 168.325852 
L 136.738785 166.745794 
L 136.924311 166.745794 
L 136.924311 166.219108 
L 137.37967 166.219108 
L 137.469333 163.585677 
L 137.823442 163.585677 
L 137.823442 162.532305 
L 138.341479 162.532305 
L 138.341479 157.79213 
L 139.009092 157.79213 
L 139.009092 156.738758 
L 139.8092 156.738758 
L 139.8092 155.685386 
L 139.964909 155.685386 
L 139.964909 153.051956 
L 140.272217 153.051956 
L 140.272217 150.945211 
L 140.574203 150.945211 
L 140.574203 148.311781 
L 140.79731 148.311781 
L 140.871049 140.41149 
L 141.162927 140.41149 
L 141.235139 137.251373 
L 141.591783 137.251373 
L 141.662245 133.564571 
L 143.40093 133.564571 
L 143.40093 131.457826 
L 143.653678 131.457826 
L 143.653678 130.404454 
L 143.778691 130.404454 
L 143.778691 125.137593 
L 144.148442 125.137593 
L 144.209312 121.977477 
L 144.330419 121.977477 
L 144.390658 120.397419 
L 144.45069 120.397419 
L 144.45069 119.344047 
L 144.629556 119.344047 
L 144.688773 115.657244 
L 144.806606 115.657244 
L 144.865226 103.016778 
L 144.923649 103.016778 
L 144.923649 100.383348 
L 145.384119 100.383348 
L 145.384119 99.329976 
L 145.721664 99.329976 
L 145.721664 98.803289 
L 145.943118 98.803289 
L 146.052799 93.536429 
L 146.107383 93.536429 
L 146.107383 93.009743 
L 146.324022 93.009743 
L 146.377764 90.902998 
L 147.061745 90.902998 
L 147.061745 89.849626 
L 147.71991 89.849626 
L 147.769524 81.949335 
L 148.112924 81.949335 
L 148.209809 78.262532 
L 148.497276 78.262532 
L 148.497276 76.682474 
L 148.780082 76.682474 
L 148.780082 76.155788 
L 149.104327 76.155788 
L 149.104327 73.522358 
L 149.422654 73.522358 
L 149.512548 71.415613 
L 149.60198 71.415613 
L 149.646525 67.202125 
L 149.735275 67.202125 
L 149.735275 64.042008 
L 149.867558 64.042008 
L 149.867558 63.515322 
L 150.129152 63.515322 
L 150.129152 61.408578 
L 150.301393 61.408578 
L 150.301393 60.881892 
L 150.47195 60.881892 
L 150.556607 58.775147 
L 150.598782 58.775147 
L 150.598782 57.195089 
L 150.808139 57.195089 
L 150.891184 55.615031 
L 151.015013 55.615031 
L 151.015013 54.561659 
L 151.13797 54.561659 
L 151.219462 52.9816 
L 151.260066 52.9816 
L 151.260066 51.928228 
L 151.381313 51.928228 
L 151.381313 47.188054 
L 151.581536 47.188054 
L 151.581536 46.134681 
L 151.858043 46.134681 
L 151.858043 44.554623 
L 152.091608 44.554623 
L 152.168773 42.447879 
L 152.360205 42.447879 
L 152.436193 40.341135 
L 152.474064 40.341135 
L 152.549559 38.23439 
L 152.774102 38.23439 
L 152.774102 37.707704 
L 152.959038 37.707704 
L 152.959038 36.654332 
L 153.214697 36.654332 
L 153.323128 31.914157 
L 154.303908 31.914157 
L 154.303908 30.860785 
L 155.0376 30.860785 
L 155.0376 30.334099 
L 338.688 30.334099 
L 338.688 30.334099 
" style="fill:none;stroke:#00bfbf;stroke-linecap:square;stroke-width:1.5;"/>
   </g>
   <g id="line2d_31">
    <defs>
     <path d="M -6 0 
L 6 0 
M 0 6 
L 0 -6 
" id="m04e8a878bb" style="stroke:#00bfbf;stroke-width:1.5;"/>
    </defs>
    <g>
     <use style="fill-opacity:0;stroke:#00bfbf;stroke-width:1.5;" x="121.931406" xlink:href="#m04e8a878bb" y="220.99446"/>
     <use style="fill-opacity:0;stroke:#00bfbf;stroke-width:1.5;" x="144.923649" xlink:href="#m04e8a878bb" y="100.383348"/>
     <use style="fill-opacity:0;stroke:#00bfbf;stroke-width:1.5;" x="155.0376" xlink:href="#m04e8a878bb" y="30.860785"/>
     <use style="fill-opacity:0;stroke:#00bfbf;stroke-width:1.5;" x="155.0376" xlink:href="#m04e8a878bb" y="30.334099"/>
     <use style="fill-opacity:0;stroke:#00bfbf;stroke-width:1.5;" x="155.0376" xlink:href="#m04e8a878bb" y="30.334099"/>
     <use style="fill-opacity:0;stroke:#00bfbf;stroke-width:1.5;" x="338.688" xlink:href="#m04e8a878bb" y="30.334099"/>
    </g>
   </g>
   <g id="line2d_32">
    <path style="fill:none;stroke:#00bfbf;stroke-linecap:square;stroke-width:1.5;"/>
    <g/>
   </g>
   <g id="line2d_33">
    <defs>
     <path d="M 0 1.5 
C 0.397805 1.5 0.77937 1.341951 1.06066 1.06066 
C 1.341951 0.77937 1.5 0.397805 1.5 0 
C 1.5 -0.397805 1.341951 -0.77937 1.06066 -1.06066 
C 0.77937 -1.341951 0.397805 -1.5 0 -1.5 
C -0.397805 -1.5 -0.77937 -1.341951 -1.06066 -1.06066 
C -1.341951 -0.77937 -1.5 -0.397805 -1.5 0 
C -1.5 0.397805 -1.341951 0.77937 -1.06066 1.06066 
C -0.77937 1.341951 -0.397805 1.5 0 1.5 
z
" id="m1d75be7b92" style="stroke:#008000;"/>
    </defs>
    <g>
     <use style="fill:#008000;stroke:#008000;" x="158.447857" xlink:href="#m1d75be7b92" y="30.334099"/>
     <use style="fill:#008000;stroke:#008000;" x="158.447857" xlink:href="#m1d75be7b92" y="30.334099"/>
    </g>
   </g>
   <g id="line2d_34">
    <path d="M 38.440992 298.944 
L 38.440992 275.243126 
L 50.52898 275.243126 
L 50.52898 274.71644 
L 62.616969 274.71644 
L 62.616969 274.189754 
L 88.846997 274.189754 
L 88.846997 273.663068 
L 93.863965 273.663068 
L 93.863965 272.609696 
L 94.575872 272.609696 
L 94.575872 272.08301 
L 95.259853 272.08301 
L 95.259853 271.556324 
L 99.41757 271.556324 
L 99.41757 269.449579 
L 101.412804 269.449579 
L 101.412804 267.869521 
L 101.877879 267.869521 
L 101.877879 267.342835 
L 102.772397 267.342835 
L 102.772397 265.762777 
L 103.623262 265.762777 
L 103.623262 265.236091 
L 105.209745 265.236091 
L 105.209745 263.656033 
L 105.584798 263.656033 
L 105.584798 263.129347 
L 106.311539 263.129347 
L 106.311539 261.022602 
L 107.009204 261.022602 
L 107.009204 259.442544 
L 107.680028 259.442544 
L 107.680028 256.809114 
L 109.843417 256.809114 
L 109.843417 255.229055 
L 111.505558 255.229055 
L 111.505558 254.702369 
L 112.026172 254.702369 
L 112.026172 254.175683 
L 112.280765 254.175683 
L 112.280765 253.122311 
L 112.779064 253.122311 
L 112.779064 252.595625 
L 113.022974 252.595625 
L 113.022974 252.068939 
L 114.418861 252.068939 
L 114.418861 251.542253 
L 114.860386 251.542253 
L 114.860386 251.015567 
L 117.107138 251.015567 
L 117.107138 249.962195 
L 117.672786 249.962195 
L 117.672786 248.382136 
L 118.039942 248.382136 
L 118.039942 247.85545 
L 118.220662 247.85545 
L 118.220662 246.802078 
L 118.576578 246.802078 
L 118.576578 246.275392 
L 119.097192 246.275392 
L 119.097192 245.748706 
L 119.768017 245.748706 
L 119.768017 244.695334 
L 120.093994 244.695334 
L 120.093994 244.168648 
L 120.41399 244.168648 
L 120.41399 242.061903 
L 120.883236 242.061903 
L 120.883236 241.535217 
L 121.189196 241.535217 
L 121.189196 240.481845 
L 121.638301 240.481845 
L 121.638301 239.955159 
L 121.931406 239.955159 
L 121.931406 237.848415 
L 122.076131 237.848415 
L 122.076131 237.321729 
L 122.219665 237.321729 
L 122.219665 236.268356 
L 122.782271 236.268356 
L 122.782271 235.74167 
L 122.920132 235.74167 
L 122.920132 235.214984 
L 123.056911 235.214984 
L 123.056911 234.688298 
L 123.192626 234.688298 
L 123.192626 234.161612 
L 123.460928 234.161612 
L 123.460928 233.634926 
L 123.855796 233.634926 
L 123.855796 233.10824 
L 124.114161 233.10824 
L 124.114161 232.054868 
L 124.989434 232.054868 
L 124.989434 231.528182 
L 125.822869 231.528182 
L 125.822869 231.001496 
L 127.165014 231.001496 
L 127.165014 230.47481 
L 127.48501 230.47481 
L 127.48501 229.948123 
L 128.807571 229.948123 
L 128.807571 228.894751 
L 129.002426 228.894751 
L 129.099042 227.314693 
L 129.290685 227.314693 
L 129.290685 226.788007 
L 129.853291 226.788007 
L 129.853291 226.261321 
L 130.036864 226.261321 
L 130.036864 225.734635 
L 130.30865 225.734635 
L 130.30865 225.207949 
L 130.487516 225.207949 
L 130.487516 220.99446 
L 130.664567 220.99446 
L 130.752422 218.887716 
L 130.926816 218.887716 
L 130.926816 218.36103 
L 131.099484 218.36103 
L 131.185181 216.780971 
L 131.355321 216.780971 
L 131.355321 216.254285 
L 131.523818 216.254285 
L 131.60746 214.674227 
L 131.690703 214.674227 
L 131.690703 214.147541 
L 131.856005 214.147541 
L 131.856005 213.094169 
L 132.101058 213.094169 
L 132.101058 212.567483 
L 132.73818 212.567483 
L 132.73818 208.353994 
L 133.277185 208.353994 
L 133.277185 207.827308 
L 133.428175 207.827308 
L 133.428175 207.300622 
L 133.652238 207.300622 
L 133.72629 205.720564 
L 133.946579 205.720564 
L 134.019394 204.667192 
L 134.091907 204.667192 
L 134.091907 204.140506 
L 134.236034 204.140506 
L 134.236034 203.613819 
L 134.37898 203.613819 
L 134.450015 201.507075 
L 134.520763 201.507075 
L 134.591225 200.453703 
L 134.800918 200.453703 
L 134.870259 199.400331 
L 135.144899 199.400331 
L 135.144899 198.346959 
L 135.348078 198.346959 
L 135.348078 196.7669 
L 135.813153 196.7669 
L 135.813153 196.240214 
L 136.008736 196.240214 
L 136.008736 195.713528 
L 136.456742 195.713528 
L 136.456742 194.660156 
L 136.582658 194.660156 
L 136.582658 194.13347 
L 136.769843 194.13347 
L 136.769843 192.553412 
L 137.016339 192.553412 
L 137.016339 192.026726 
L 137.138292 192.026726 
L 137.198951 189.919981 
L 137.259399 189.919981 
L 137.259399 189.393295 
L 137.735587 189.393295 
L 137.735587 188.866609 
L 137.852629 188.866609 
L 137.852629 188.339923 
L 138.084384 188.339923 
L 138.084384 187.813237 
L 138.199116 187.813237 
L 138.256201 185.179807 
L 138.369812 185.179807 
L 138.426341 183.073062 
L 138.594838 183.073062 
L 138.650644 182.01969 
L 138.706272 182.01969 
L 138.816998 176.752829 
L 139.199094 176.752829 
L 139.199094 173.592713 
L 139.466984 173.592713 
L 139.572998 172.539341 
L 139.730821 172.539341 
L 139.730821 172.012655 
L 139.939053 172.012655 
L 139.939053 170.959282 
L 140.297583 170.959282 
L 140.297583 168.325852 
L 140.89556 168.325852 
L 140.89556 165.692422 
L 141.33096 165.692422 
L 141.426256 164.112363 
L 141.521035 164.112363 
L 141.521035 163.585677 
L 141.895083 163.585677 
L 141.895083 162.005619 
L 142.033307 162.005619 
L 142.033307 159.898875 
L 142.351634 159.898875 
L 142.396639 157.79213 
L 142.486301 157.79213 
L 142.575505 155.685386 
L 142.619936 155.685386 
L 142.708461 154.632014 
L 142.840411 154.632014 
L 142.927826 152.52527 
L 142.971369 152.52527 
L 142.971369 149.365153 
L 143.187472 149.365153 
L 143.230373 147.258409 
L 143.31586 147.258409 
L 143.31586 146.731723 
L 143.527762 146.731723 
L 143.611807 144.098292 
L 143.653678 144.098292 
L 143.695448 141.991548 
L 143.943994 141.991548 
L 143.985075 137.778059 
L 144.06695 137.778059 
L 144.148442 136.198001 
L 144.189046 136.198001 
L 144.229555 134.617943 
L 144.390658 134.617943 
L 144.470655 133.564571 
L 144.747789 133.564571 
L 144.747789 131.984513 
L 144.865226 131.984513 
L 144.94308 129.351082 
L 145.440832 129.351082 
L 145.516164 123.030849 
L 145.553708 123.030849 
L 145.628555 121.450791 
L 145.777292 121.450791 
L 145.777292 119.344047 
L 146.359869 119.344047 
L 146.431341 117.237302 
L 146.502522 117.237302 
L 146.538004 116.18393 
L 146.644018 116.18393 
L 146.749392 112.497128 
L 146.819289 112.497128 
L 146.819289 111.970441 
L 147.436066 111.970441 
L 147.4697 109.337011 
L 147.603592 109.337011 
L 147.603592 108.810325 
L 147.933891 108.810325 
L 147.933891 107.756953 
L 148.096724 107.756953 
L 148.193699 104.07015 
L 148.225905 104.07015 
L 148.225905 103.543464 
L 148.386046 103.543464 
L 148.48143 100.383348 
L 148.513109 100.383348 
L 148.607802 98.276603 
L 148.639252 98.276603 
L 148.639252 97.223231 
L 148.76449 97.223231 
L 148.826773 95.643173 
L 149.226281 95.643173 
L 149.226281 94.063115 
L 149.467659 94.063115 
L 149.467659 90.376312 
L 149.616841 90.376312 
L 149.676158 88.269568 
L 149.882194 88.269568 
L 149.969756 86.162824 
L 150.114722 86.162824 
L 150.201126 83.002707 
L 150.287105 83.002707 
L 150.31567 80.369277 
L 150.542526 80.369277 
L 150.542526 79.842591 
L 150.682827 79.842591 
L 150.738632 77.735846 
L 150.79426 77.735846 
L 150.904986 74.57573 
L 151.178764 74.57573 
L 151.260066 71.942299 
L 151.554972 71.942299 
L 151.554972 70.888927 
L 151.713753 70.888927 
L 151.792604 69.308869 
L 151.844975 69.308869 
L 151.897188 68.255497 
L 152.909913 68.255497 
L 152.983548 67.202125 
L 153.202607 67.202125 
L 153.275019 65.622066 
L 153.323128 65.622066 
L 153.418948 61.935264 
L 153.514245 61.935264 
L 153.609024 60.355206 
L 153.656221 60.355206 
L 153.679772 59.301833 
L 153.843742 59.301833 
L 153.936752 56.141717 
L 154.029268 56.141717 
L 154.075343 54.034973 
L 154.19 54.034973 
L 154.281186 50.874856 
L 154.417077 50.874856 
L 154.417077 49.821484 
L 154.730098 49.821484 
L 154.840544 46.134681 
L 154.928399 46.134681 
L 155.0376 45.081309 
L 155.081089 45.081309 
L 155.146121 42.974565 
L 155.253971 42.974565 
L 155.253971 41.394507 
L 155.446436 41.394507 
L 155.446436 40.867821 
L 155.573575 40.867821 
L 155.6368 39.287762 
L 155.741666 39.287762 
L 155.741666 38.761076 
L 155.887428 38.761076 
L 155.887428 37.707704 
L 156.216093 37.707704 
L 156.216093 37.181018 
L 156.538679 37.181018 
L 156.638275 36.127646 
L 156.717545 36.127646 
L 156.717545 35.60096 
L 157.415209 35.60096 
L 157.415209 34.547588 
L 157.697862 34.547588 
L 157.697862 34.020902 
L 157.809652 34.020902 
L 157.809652 33.494215 
L 157.976006 33.494215 
L 158.067744 31.387471 
L 158.195371 31.387471 
L 158.195371 30.860785 
L 158.447857 30.860785 
L 158.447857 30.334099 
L 338.688 30.334099 
L 338.688 30.334099 
" style="fill:none;stroke:#008000;stroke-linecap:square;stroke-width:1.5;"/>
   </g>
   <g id="line2d_35">
    <defs>
     <path d="M -0 6 
L 6 -6 
L -6 -6 
z
" id="md9a361036a" style="stroke:#008000;stroke-linejoin:miter;stroke-width:1.5;"/>
    </defs>
    <g>
     <use style="fill-opacity:0;stroke:#008000;stroke-linejoin:miter;stroke-width:1.5;" x="114.860386" xlink:href="#md9a361036a" y="251.015567"/>
     <use style="fill-opacity:0;stroke:#008000;stroke-linejoin:miter;stroke-width:1.5;" x="146.749392" xlink:href="#md9a361036a" y="112.497128"/>
     <use style="fill-opacity:0;stroke:#008000;stroke-linejoin:miter;stroke-width:1.5;" x="158.447857" xlink:href="#md9a361036a" y="30.860785"/>
     <use style="fill-opacity:0;stroke:#008000;stroke-linejoin:miter;stroke-width:1.5;" x="158.447857" xlink:href="#md9a361036a" y="30.334099"/>
     <use style="fill-opacity:0;stroke:#008000;stroke-linejoin:miter;stroke-width:1.5;" x="158.447857" xlink:href="#md9a361036a" y="30.334099"/>
     <use style="fill-opacity:0;stroke:#008000;stroke-linejoin:miter;stroke-width:1.5;" x="338.688" xlink:href="#md9a361036a" y="30.334099"/>
    </g>
   </g>
   <g id="line2d_36">
    <path style="fill:none;stroke:#008000;stroke-linecap:square;stroke-width:1.5;"/>
    <g/>
   </g>
   <g id="line2d_37">
    <defs>
     <path d="M 0 1.5 
C 0.397805 1.5 0.77937 1.341951 1.06066 1.06066 
C 1.341951 0.77937 1.5 0.397805 1.5 0 
C 1.5 -0.397805 1.341951 -0.77937 1.06066 -1.06066 
C 0.77937 -1.341951 0.397805 -1.5 0 -1.5 
C -0.397805 -1.5 -0.77937 -1.341951 -1.06066 -1.06066 
C -1.341951 -0.77937 -1.5 -0.397805 -1.5 0 
C -1.5 0.397805 -1.341951 0.77937 -1.06066 1.06066 
C -0.77937 1.341951 -0.397805 1.5 0 1.5 
z
" id="ma7d4be4adb" style="stroke:#0000ff;"/>
    </defs>
    <g>
     <use style="fill:#0000ff;stroke:#0000ff;" x="154.959044" xlink:href="#ma7d4be4adb" y="30.334099"/>
     <use style="fill:#0000ff;stroke:#0000ff;" x="154.959044" xlink:href="#ma7d4be4adb" y="30.334099"/>
    </g>
   </g>
   <g id="line2d_38">
    <path d="M 29.53256 298.944 
L 29.53256 282.616732 
L 41.620548 282.616732 
L 41.620548 282.090045 
L 60.779557 282.090045 
L 60.779557 281.563359 
L 72.867545 281.563359 
L 72.867545 281.036673 
L 83.438118 281.036673 
L 83.438118 280.509987 
L 87.009585 280.509987 
L 87.009585 279.456615 
L 87.643811 279.456615 
L 87.643811 278.403243 
L 88.255778 278.403243 
L 88.255778 277.876557 
L 89.418828 277.876557 
L 89.418828 277.349871 
L 91.029752 277.349871 
L 91.029752 276.823185 
L 91.535274 276.823185 
L 91.535274 276.296499 
L 92.026554 276.296499 
L 92.026554 275.769812 
L 92.504372 275.769812 
L 92.504372 275.243126 
L 94.294587 275.243126 
L 94.294587 274.71644 
L 94.714831 274.71644 
L 94.714831 273.136382 
L 95.526106 273.136382 
L 95.526106 272.08301 
L 96.301313 272.08301 
L 96.301313 268.922893 
L 96.676366 268.922893 
L 96.676366 268.396207 
L 97.043522 268.396207 
L 97.043522 267.869521 
L 98.43941 267.869521 
L 98.43941 267.342835 
L 99.097574 267.342835 
L 99.097574 265.762777 
L 100.343767 265.762777 
L 100.343767 265.236091 
L 101.506816 265.236091 
L 101.506816 264.709405 
L 102.330873 264.709405 
L 102.330873 264.182719 
L 102.597126 264.182719 
L 102.597126 263.656033 
L 102.859376 263.656033 
L 102.859376 263.129347 
L 105.51043 263.129347 
L 105.51043 262.60266 
L 105.951954 262.60266 
L 105.951954 262.075974 
L 106.168594 262.075974 
L 106.168594 261.549288 
L 106.382575 261.549288 
L 106.382575 259.442544 
L 107.009204 259.442544 
L 107.009204 257.862486 
L 108.389302 257.862486 
L 108.389302 257.3358 
L 109.668146 257.3358 
L 109.668146 256.809114 
L 110.358901 256.809114 
L 110.358901 256.282427 
L 110.859585 256.282427 
L 110.859585 255.755741 
L 111.505558 255.755741 
L 111.505558 255.229055 
L 112.128456 255.229055 
L 112.128456 253.122311 
L 112.431755 253.122311 
L 112.431755 251.542253 
L 113.311233 251.542253 
L 113.311233 251.015567 
L 113.594805 251.015567 
L 113.594805 250.488881 
L 115.33349 250.488881 
L 115.33349 249.962195 
L 115.711251 249.962195 
L 115.711251 249.435508 
L 118.890808 249.435508 
L 118.994305 248.382136 
L 119.40226 248.382136 
L 119.40226 247.85545 
L 119.80089 247.85545 
L 119.80089 247.328764 
L 120.190611 247.328764 
L 120.190611 246.275392 
L 120.47729 246.275392 
L 120.571812 245.22202 
L 120.944859 245.22202 
L 120.944859 243.641962 
L 121.128432 243.641962 
L 121.128432 243.115275 
L 121.667835 243.115275 
L 121.756135 242.061903 
L 122.018385 242.061903 
L 122.104932 239.955159 
L 122.699028 239.955159 
L 122.782271 237.321729 
L 122.865118 237.321729 
L 122.865118 236.795043 
L 123.111324 236.795043 
L 123.111324 235.74167 
L 123.751369 235.74167 
L 123.751369 235.214984 
L 123.985457 235.214984 
L 123.985457 234.688298 
L 124.139788 234.688298 
L 124.216444 232.581554 
L 124.292765 232.581554 
L 124.292765 231.528182 
L 124.444412 231.528182 
L 124.444412 231.001496 
L 124.594752 231.001496 
L 124.594752 229.948123 
L 125.183475 229.948123 
L 125.183475 229.421437 
L 125.399222 229.421437 
L 125.399222 228.368065 
L 125.612332 228.368065 
L 125.612332 227.314693 
L 126.236468 227.314693 
L 126.236468 226.788007 
L 126.573795 226.788007 
L 126.640485 225.734635 
L 126.904721 225.734635 
L 126.904721 224.681263 
L 127.229484 224.681263 
L 127.293718 223.627891 
L 127.48501 223.627891 
L 127.48501 223.101204 
L 127.611382 223.101204 
L 127.611382 222.574518 
L 128.290519 222.574518 
L 128.350967 221.521146 
L 128.411207 221.521146 
L 128.411207 220.99446 
L 128.885774 220.99446 
L 128.885774 219.941088 
L 129.06046 219.941088 
L 129.06046 219.414402 
L 129.290685 219.414402 
L 129.290685 217.834344 
L 129.742212 217.834344 
L 129.853291 216.254285 
L 130.127931 216.254285 
L 130.127931 215.727599 
L 130.558552 215.727599 
L 130.61164 214.674227 
L 130.926816 214.674227 
L 131.030622 213.094169 
L 131.133813 213.094169 
L 131.133813 212.567483 
L 131.287464 212.567483 
L 131.287464 211.514111 
L 131.740458 211.514111 
L 131.740458 210.987425 
L 131.888878 210.987425 
L 131.888878 210.460738 
L 132.230358 210.460738 
L 132.278599 206.773936 
L 132.422528 206.773936 
L 132.422528 206.24725 
L 132.612604 206.24725 
L 132.659801 205.193878 
L 132.986651 205.193878 
L 133.032848 202.560447 
L 133.216421 202.560447 
L 133.216421 201.507075 
L 133.443203 201.507075 
L 133.443203 200.453703 
L 133.844123 200.453703 
L 133.888106 198.873645 
L 134.062938 198.873645 
L 134.106373 197.293586 
L 134.236034 197.293586 
L 134.279041 195.713528 
L 134.407429 195.713528 
L 134.450015 192.026726 
L 134.534878 192.026726 
L 134.534878 191.50004 
L 134.745246 191.50004 
L 134.828688 189.919981 
L 134.870259 189.919981 
L 134.870259 189.393295 
L 135.035562 189.393295 
L 135.035562 188.866609 
L 135.158519 188.866609 
L 135.158519 187.286551 
L 135.321124 187.286551 
L 135.401861 185.706493 
L 135.800036 185.706493 
L 135.800036 185.179807 
L 136.034648 185.179807 
L 136.034648 183.599748 
L 136.227776 183.599748 
L 136.227776 182.546376 
L 136.494612 182.546376 
L 136.494612 179.912946 
L 136.645276 179.912946 
L 136.720123 178.332888 
L 136.831795 178.332888 
L 136.942755 176.752829 
L 136.979586 176.752829 
L 137.016339 175.699457 
L 137.235245 175.699457 
L 137.343676 173.066027 
L 137.52291 173.066027 
L 137.52291 170.432596 
L 137.805906 170.432596 
L 137.805906 166.219108 
L 138.01518 166.219108 
L 138.084384 164.63905 
L 138.761723 164.63905 
L 138.861092 163.585677 
L 139.02546 163.585677 
L 139.123342 159.898875 
L 139.155847 159.898875 
L 139.155847 158.845503 
L 139.413734 158.845503 
L 139.413734 158.318817 
L 139.572998 158.318817 
L 139.667863 154.105328 
L 139.793552 154.105328 
L 139.793552 153.578642 
L 139.918342 153.578642 
L 139.918342 152.52527 
L 140.103868 152.52527 
L 140.195896 150.945211 
L 140.256979 150.945211 
L 140.348205 149.891839 
L 140.529237 149.891839 
L 140.559227 148.838467 
L 140.767727 148.838467 
L 140.767727 148.311781 
L 140.944478 148.311781 
L 141.002999 147.258409 
L 141.090414 147.258409 
L 141.119455 146.205037 
L 141.435758 146.205037 
L 141.435758 145.151665 
L 141.605898 145.151665 
L 141.605898 143.571606 
L 141.885829 143.571606 
L 141.996555 140.41149 
L 142.024126 140.41149 
L 142.024126 139.884804 
L 142.243147 139.884804 
L 142.243147 136.198001 
L 142.459451 136.198001 
L 142.459451 132.511199 
L 142.673105 132.511199 
L 142.673105 131.984513 
L 142.831645 131.984513 
L 142.910378 128.29771 
L 143.11861 128.29771 
L 143.11861 127.771024 
L 143.349938 127.771024 
L 143.375453 126.717652 
L 143.502469 126.717652 
L 143.578237 124.084221 
L 143.703791 124.084221 
L 143.703791 123.030849 
L 143.902815 123.030849 
L 143.902815 121.977477 
L 144.366588 121.977477 
L 144.366588 120.397419 
L 144.582038 120.397419 
L 144.676946 115.130558 
L 144.865226 115.130558 
L 144.865226 114.077186 
L 144.981877 114.077186 
L 145.051495 108.810325 
L 145.166911 108.810325 
L 145.166911 106.703581 
L 145.621085 106.703581 
L 145.643486 104.596836 
L 145.777292 104.596836 
L 145.843812 102.490092 
L 145.954117 102.490092 
L 145.976095 101.43672 
L 146.150926 101.43672 
L 146.150926 100.910034 
L 146.474085 100.910034 
L 146.559258 98.803289 
L 146.644018 98.803289 
L 146.644018 96.696545 
L 146.854132 96.696545 
L 146.895853 95.643173 
L 146.978997 95.643173 
L 147.061745 93.009743 
L 147.144103 93.009743 
L 147.226074 85.109451 
L 147.307662 85.109451 
L 147.327999 83.002707 
L 147.4697 83.002707 
L 147.509976 79.842591 
L 147.590249 79.842591 
L 147.630247 78.789218 
L 147.70997 78.789218 
L 147.78933 74.049044 
L 148.103206 74.049044 
L 148.103206 73.522358 
L 148.219468 73.522358 
L 148.296548 69.835555 
L 148.411533 69.835555 
L 148.411533 69.308869 
L 148.563676 69.308869 
L 148.563676 68.782183 
L 148.676918 68.782183 
L 148.770728 65.622066 
L 148.938326 65.622066 
L 148.938326 65.09538 
L 149.122675 65.09538 
L 149.232356 59.82852 
L 149.305096 59.82852 
L 149.305096 59.301833 
L 149.593058 59.301833 
L 149.593058 58.775147 
L 149.735275 58.775147 
L 149.735275 56.668403 
L 149.876341 56.668403 
L 149.981398 51.928228 
L 150.068464 51.928228 
L 150.155097 49.294798 
L 150.292822 49.294798 
L 150.292822 48.241426 
L 150.49739 48.241426 
L 150.49739 47.188054 
L 150.649257 47.188054 
L 150.66605 44.027937 
L 150.833094 44.027937 
L 150.866312 42.974565 
L 151.080698 42.974565 
L 151.097081 40.341135 
L 151.227591 40.341135 
L 151.260066 39.287762 
L 151.357131 39.287762 
L 151.357131 38.761076 
L 151.485716 38.761076 
L 151.517715 37.181018 
L 151.597455 37.181018 
L 151.597455 36.654332 
L 152.176471 36.654332 
L 152.176471 36.127646 
L 152.466496 36.127646 
L 152.481628 35.074274 
L 152.602211 35.074274 
L 152.602211 34.547588 
L 152.781537 34.547588 
L 152.870513 33.494215 
L 153.221946 33.494215 
L 153.221946 32.967529 
L 154.385464 32.967529 
L 154.46664 31.387471 
L 154.840544 31.387471 
L 154.840544 30.860785 
L 154.959044 30.860785 
L 154.959044 30.334099 
L 338.688 30.334099 
L 338.688 30.334099 
" style="fill:none;stroke:#0000ff;stroke-linecap:square;stroke-width:1.5;"/>
   </g>
   <g id="line2d_39">
    <defs>
     <path d="M 0 -6 
L -1.347084 -1.854102 
L -5.706339 -1.854102 
L -2.179628 0.708204 
L -3.526712 4.854102 
L -0 2.291796 
L 3.526712 4.854102 
L 2.179628 0.708204 
L 5.706339 -1.854102 
L 1.347084 -1.854102 
z
" id="mc73eab229e" style="stroke:#0000ff;stroke-linejoin:bevel;stroke-width:1.5;"/>
    </defs>
    <g>
     <use style="fill-opacity:0;stroke:#0000ff;stroke-linejoin:bevel;stroke-width:1.5;" x="127.48501" xlink:href="#mc73eab229e" y="223.627891"/>
     <use style="fill-opacity:0;stroke:#0000ff;stroke-linejoin:bevel;stroke-width:1.5;" x="151.227591" xlink:href="#mc73eab229e" y="40.341135"/>
     <use style="fill-opacity:0;stroke:#0000ff;stroke-linejoin:bevel;stroke-width:1.5;" x="154.959044" xlink:href="#mc73eab229e" y="30.334099"/>
     <use style="fill-opacity:0;stroke:#0000ff;stroke-linejoin:bevel;stroke-width:1.5;" x="154.959044" xlink:href="#mc73eab229e" y="30.334099"/>
     <use style="fill-opacity:0;stroke:#0000ff;stroke-linejoin:bevel;stroke-width:1.5;" x="154.959044" xlink:href="#mc73eab229e" y="30.334099"/>
     <use style="fill-opacity:0;stroke:#0000ff;stroke-linejoin:bevel;stroke-width:1.5;" x="338.688" xlink:href="#mc73eab229e" y="30.334099"/>
    </g>
   </g>
   <g id="line2d_40">
    <path style="fill:none;stroke:#0000ff;stroke-linecap:square;stroke-width:1.5;"/>
    <g/>
   </g>
   <g id="line2d_41">
    <defs>
     <path d="M 0 1.5 
C 0.397805 1.5 0.77937 1.341951 1.06066 1.06066 
C 1.341951 0.77937 1.5 0.397805 1.5 0 
C 1.5 -0.397805 1.341951 -0.77937 1.06066 -1.06066 
C 0.77937 -1.341951 0.397805 -1.5 0 -1.5 
C -0.397805 -1.5 -0.77937 -1.341951 -1.06066 -1.06066 
C -1.341951 -0.77937 -1.5 -0.397805 -1.5 0 
C -1.5 0.397805 -1.341951 0.77937 -1.06066 1.06066 
C -0.77937 1.341951 -0.397805 1.5 0 1.5 
z
" id="mafa383b974" style="stroke:#000000;"/>
    </defs>
    <g>
     <use style="stroke:#000000;" x="151.113448" xlink:href="#mafa383b974" y="30.334099"/>
     <use style="stroke:#000000;" x="151.113448" xlink:href="#mafa383b974" y="30.334099"/>
    </g>
   </g>
   <g id="line2d_42">
    <path d="M 17.444571 298.944 
L 17.444571 287.883592 
L 60.779557 287.883592 
L 60.779557 287.356906 
L 65.796525 287.356906 
L 65.796525 286.83022 
L 72.867545 286.83022 
L 72.867545 286.303534 
L 74.921597 286.303534 
L 74.921597 285.776848 
L 77.884514 285.776848 
L 77.884514 285.250162 
L 83.037197 285.250162 
L 83.037197 284.723476 
L 83.438118 284.723476 
L 83.438118 284.19679 
L 86.351421 284.19679 
L 86.351421 283.670104 
L 87.009585 283.670104 
L 87.009585 283.143418 
L 89.418828 283.143418 
L 89.418828 282.090045 
L 89.972502 282.090045 
L 89.972502 281.563359 
L 92.73846 281.563359 
L 92.73846 280.509987 
L 93.422441 280.509987 
L 93.422441 279.983301 
L 94.714831 279.983301 
L 94.714831 279.456615 
L 94.921215 279.456615 
L 94.921215 278.929929 
L 95.723163 278.929929 
L 95.723163 278.403243 
L 96.301313 278.403243 
L 96.301313 277.876557 
L 97.043522 277.876557 
L 97.043522 277.349871 
L 97.403108 277.349871 
L 97.403108 276.823185 
L 98.100772 276.823185 
L 98.100772 276.296499 
L 98.606294 276.296499 
L 98.606294 275.769812 
L 98.771596 275.769812 
L 98.771596 275.243126 
L 99.097574 275.243126 
L 99.097574 274.71644 
L 99.731799 274.71644 
L 99.731799 274.189754 
L 100.040467 274.189754 
L 100.040467 273.663068 
L 100.192776 273.663068 
L 100.192776 273.136382 
L 101.923711 273.136382 
L 101.923711 272.609696 
L 102.728744 272.609696 
L 102.728744 272.08301 
L 104.114542 272.08301 
L 104.114542 271.556324 
L 105.171792 271.556324 
L 105.171792 271.029638 
L 105.732589 271.029638 
L 105.842616 269.449579 
L 106.06061 269.449579 
L 106.168594 268.396207 
L 106.275913 268.396207 
L 106.275913 267.869521 
L 106.593963 267.869521 
L 106.593963 267.342835 
L 106.906317 267.342835 
L 106.906317 266.289463 
L 107.414787 266.289463 
L 107.414787 265.762777 
L 107.811151 265.762777 
L 107.811151 264.709405 
L 108.389302 264.709405 
L 108.389302 264.182719 
L 108.764355 264.182719 
L 108.764355 263.656033 
L 109.040444 263.656033 
L 109.040444 262.60266 
L 109.491096 262.60266 
L 109.491096 262.075974 
L 109.930396 262.075974 
L 109.930396 260.495916 
L 110.694282 260.495916 
L 110.694282 259.96923 
L 111.266113 259.96923 
L 111.266113 259.442544 
L 111.584648 259.442544 
L 111.584648 257.3358 
L 111.897469 257.3358 
L 111.897469 256.809114 
L 112.280765 256.809114 
L 112.356423 255.755741 
L 113.804498 255.755741 
L 113.804498 255.229055 
L 113.942906 255.229055 
L 114.0117 254.175683 
L 114.216469 254.175683 
L 114.216469 253.648997 
L 114.485807 253.648997 
L 114.485807 252.595625 
L 114.816733 252.595625 
L 114.816733 252.068939 
L 115.141496 252.068939 
L 115.141496 251.542253 
L 115.460322 251.542253 
L 115.460322 251.015567 
L 115.773423 251.015567 
L 115.773423 249.962195 
L 116.262979 249.962195 
L 116.262979 249.435508 
L 116.38325 249.435508 
L 116.38325 248.908822 
L 117.542433 248.908822 
L 117.542433 248.382136 
L 118.202674 248.382136 
L 118.202674 247.328764 
L 118.629344 247.328764 
L 118.734401 245.22202 
L 118.942633 245.22202 
L 118.942633 242.588589 
L 119.148409 242.588589 
L 119.148409 241.535217 
L 119.948058 241.535217 
L 119.948058 240.481845 
L 120.618882 240.481845 
L 120.618882 239.428473 
L 121.08272 239.428473 
L 121.08272 238.901787 
L 121.219499 238.901787 
L 121.219499 238.375101 
L 121.53454 238.375101 
L 121.53454 237.848415 
L 122.362027 237.848415 
L 122.40451 236.795043 
L 122.531342 236.795043 
L 122.531342 234.688298 
L 122.823744 234.688298 
L 122.823744 233.10824 
L 122.947573 233.10824 
L 122.988655 232.054868 
L 123.152022 232.054868 
L 123.233135 229.948123 
L 123.633136 229.948123 
L 123.633136 228.894751 
L 123.790603 228.894751 
L 123.868806 227.314693 
L 124.024168 227.314693 
L 124.101333 225.734635 
L 124.519744 225.734635 
L 124.519744 225.207949 
L 124.780872 225.207949 
L 124.780872 224.681263 
L 125.147256 224.681263 
L 125.147256 223.627891 
L 125.506102 223.627891 
L 125.506102 223.101204 
L 126.540355 223.101204 
L 126.573795 220.99446 
L 126.87191 220.99446 
L 126.87191 219.414402 
L 127.516689 219.414402 
L 127.516689 218.36103 
L 127.76807 218.36103 
L 127.830353 216.780971 
L 128.168991 216.780971 
L 128.168991 216.254285 
L 128.441249 216.254285 
L 128.441249 215.727599 
L 128.738855 215.727599 
L 128.768338 214.674227 
L 129.031467 214.674227 
L 129.089405 212.567483 
L 129.31925 212.567483 
L 129.31925 212.040797 
L 129.602362 212.040797 
L 129.602362 211.514111 
L 129.742212 211.514111 
L 129.79784 209.407366 
L 129.88095 209.407366 
L 129.963666 206.773936 
L 130.155159 206.773936 
L 130.155159 205.720564 
L 130.344571 205.720564 
L 130.425122 204.140506 
L 130.952826 204.140506 
L 130.978796 202.560447 
L 131.133813 202.560447 
L 131.236397 199.927017 
L 131.287464 199.927017 
L 131.287464 199.400331 
L 131.465029 199.400331 
L 131.465029 196.7669 
L 131.715598 196.7669 
L 131.715598 196.240214 
L 131.962617 196.240214 
L 131.962617 194.660156 
L 132.109167 194.660156 
L 132.109167 194.13347 
L 132.636218 194.13347 
L 132.683351 191.50004 
L 133.307488 191.50004 
L 133.375477 189.393295 
L 133.420657 189.393295 
L 133.420657 188.339923 
L 133.975741 188.339923 
L 134.04118 186.233179 
L 134.257551 186.233179 
L 134.257551 185.706493 
L 134.47127 185.706493 
L 134.513701 183.599748 
L 134.682402 183.599748 
L 134.787017 180.439632 
L 135.097149 180.439632 
L 135.158519 179.38626 
L 135.300881 179.38626 
L 135.300881 176.752829 
L 135.701341 176.752829 
L 135.701341 175.699457 
L 135.858985 175.699457 
L 135.898175 174.646085 
L 136.015217 174.646085 
L 136.015217 172.539341 
L 136.266147 172.539341 
L 136.266147 172.012655 
L 136.475687 172.012655 
L 136.513517 170.959282 
L 136.607732 170.959282 
L 136.607732 170.432596 
L 136.720123 170.432596 
L 136.720123 169.90591 
L 136.831795 169.90591 
L 136.86886 166.745794 
L 137.034686 166.745794 
L 137.144368 164.112363 
L 137.217107 164.112363 
L 137.253364 162.005619 
L 137.343676 162.005619 
L 137.39764 159.898875 
L 137.48721 159.898875 
L 137.576323 158.318817 
L 137.753193 158.318817 
L 137.753193 157.79213 
L 137.928288 157.79213 
L 137.928288 155.685386 
L 138.084384 155.685386 
L 138.101642 153.051956 
L 138.27329 153.051956 
L 138.27329 151.998584 
L 138.611599 151.998584 
L 138.611599 149.365153 
L 139.349619 149.365153 
L 139.349619 148.838467 
L 140.057671 148.838467 
L 140.057671 148.311781 
L 140.333034 148.311781 
L 140.393639 147.258409 
L 140.469102 147.258409 
L 140.469102 145.151665 
L 140.812083 145.151665 
L 140.915143 143.571606 
L 140.944478 143.571606 
L 140.973763 142.518234 
L 141.104941 142.518234 
L 141.104941 140.938176 
L 141.249546 140.938176 
L 141.335737 137.778059 
L 141.392962 137.778059 
L 141.46423 136.724687 
L 141.521035 136.724687 
L 141.563518 135.144629 
L 141.648175 135.144629 
L 141.746425 133.037885 
L 141.760416 133.037885 
L 141.858037 130.93114 
L 141.913576 130.93114 
L 142.010346 127.244338 
L 142.133981 127.244338 
L 142.243147 126.190966 
L 142.297475 126.190966 
L 142.365148 125.137593 
L 142.499711 125.137593 
L 142.499711 124.610907 
L 142.633244 124.610907 
L 142.633244 124.084221 
L 142.792145 124.084221 
L 142.792145 123.557535 
L 142.962669 123.557535 
L 142.962669 123.030849 
L 143.105668 123.030849 
L 143.208936 120.397419 
L 143.47714 120.397419 
L 143.578237 119.344047 
L 143.615998 119.344047 
L 143.666219 117.763988 
L 143.791143 117.763988 
L 143.86567 115.657244 
L 143.915178 115.657244 
L 143.976867 113.023814 
L 144.038338 113.023814 
L 144.087359 111.970441 
L 144.160633 111.970441 
L 144.160633 109.863697 
L 144.282077 109.863697 
L 144.294175 108.283639 
L 144.402681 108.283639 
L 144.402681 107.756953 
L 144.629556 107.756953 
L 144.629556 107.230267 
L 144.759569 107.230267 
L 144.77134 105.650209 
L 144.876926 105.650209 
L 144.900303 98.803289 
L 144.993499 98.803289 
L 144.993499 96.696545 
L 145.224334 96.696545 
L 145.224334 94.589801 
L 145.338615 94.589801 
L 145.418169 91.95637 
L 145.508645 91.95637 
L 145.508645 91.429684 
L 145.721664 91.429684 
L 145.821666 88.796254 
L 146.118279 88.796254 
L 146.226867 87.216196 
L 146.334784 87.216196 
L 146.442037 86.162824 
L 146.463409 86.162824 
L 146.548634 81.422649 
L 146.654584 81.422649 
L 146.759894 77.735846 
L 146.916676 77.735846 
L 146.968625 76.155788 
L 147.072061 76.155788 
L 147.072061 74.049044 
L 147.317833 74.049044 
L 147.378739 69.835555 
L 147.509976 69.835555 
L 147.580235 67.728811 
L 147.680117 67.728811 
L 147.779429 61.408578 
L 147.828875 61.408578 
L 147.917524 60.355206 
L 148.074019 60.355206 
L 148.17112 57.195089 
L 148.23877 57.195089 
L 148.267683 56.141717 
L 148.554206 56.141717 
L 148.648676 49.821484 
L 148.667509 49.821484 
L 148.742638 46.661368 
L 148.956849 46.661368 
L 148.956849 45.607995 
L 149.085961 45.607995 
L 149.195872 43.501251 
L 149.259669 43.501251 
L 149.29602 41.921193 
L 149.386567 41.921193 
L 149.386567 41.394507 
L 149.717561 41.394507 
L 149.744125 39.814448 
L 149.83238 39.814448 
L 149.920192 37.707704 
L 149.998846 37.707704 
L 150.007563 36.654332 
L 150.181003 36.654332 
L 150.267081 34.547588 
L 150.352736 34.547588 
L 150.437972 31.387471 
L 150.56505 31.387471 
L 150.56505 30.860785 
L 151.113448 30.860785 
L 151.113448 30.334099 
L 338.688 30.334099 
L 338.688 30.334099 
" style="fill:none;stroke:#000000;stroke-linecap:square;stroke-width:1.5;"/>
   </g>
   <g id="line2d_43">
    <defs>
     <path d="M 0 6 
C 1.591219 6 3.117479 5.367802 4.242641 4.242641 
C 5.367802 3.117479 6 1.591219 6 0 
C 6 -1.591219 5.367802 -3.117479 4.242641 -4.242641 
C 3.117479 -5.367802 1.591219 -6 0 -6 
C -1.591219 -6 -3.117479 -5.367802 -4.242641 -4.242641 
C -5.367802 -3.117479 -6 -1.591219 -6 0 
C -6 1.591219 -5.367802 3.117479 -4.242641 4.242641 
C -3.117479 5.367802 -1.591219 6 0 6 
z
" id="m726609c19d" style="stroke:#000000;stroke-width:1.5;"/>
    </defs>
    <g>
     <use style="fill-opacity:0;stroke:#000000;stroke-width:1.5;" x="118.734401" xlink:href="#m726609c19d" y="245.22202"/>
     <use style="fill-opacity:0;stroke:#000000;stroke-width:1.5;" x="147.729844" xlink:href="#m726609c19d" y="64.042008"/>
     <use style="fill-opacity:0;stroke:#000000;stroke-width:1.5;" x="151.113448" xlink:href="#m726609c19d" y="30.860785"/>
     <use style="fill-opacity:0;stroke:#000000;stroke-width:1.5;" x="151.113448" xlink:href="#m726609c19d" y="30.334099"/>
     <use style="fill-opacity:0;stroke:#000000;stroke-width:1.5;" x="151.113448" xlink:href="#m726609c19d" y="30.334099"/>
     <use style="fill-opacity:0;stroke:#000000;stroke-width:1.5;" x="338.688" xlink:href="#m726609c19d" y="30.334099"/>
    </g>
   </g>
   <g id="line2d_44">
    <path style="fill:none;stroke:#000000;stroke-linecap:square;stroke-width:1.5;"/>
    <g/>
   </g>
   <g id="line2d_45">
    <defs>
     <path d="M 0 1.5 
C 0.397805 1.5 0.77937 1.341951 1.06066 1.06066 
C 1.341951 0.77937 1.5 0.397805 1.5 0 
C 1.5 -0.397805 1.341951 -0.77937 1.06066 -1.06066 
C 0.77937 -1.341951 0.397805 -1.5 0 -1.5 
C -0.397805 -1.5 -0.77937 -1.341951 -1.06066 -1.06066 
C -1.341951 -0.77937 -1.5 -0.397805 -1.5 0 
C -1.5 0.397805 -1.341951 0.77937 -1.06066 1.06066 
C -0.77937 1.341951 -0.397805 1.5 0 1.5 
z
" id="m19d451da82" style="stroke:#ff0000;"/>
    </defs>
    <g>
     <use style="fill:#ff0000;stroke:#ff0000;" x="5.356583" xlink:href="#m19d451da82" y="293.677139"/>
     <use style="fill:#ff0000;stroke:#ff0000;" x="5.356583" xlink:href="#m19d451da82" y="293.677139"/>
    </g>
   </g>
   <g id="line2d_46">
    <path d="M 5.356583 298.944 
L 5.356583 293.677139 
L 338.688 293.677139 
" style="fill:none;stroke:#ff0000;stroke-linecap:square;stroke-width:1.5;"/>
   </g>
   <g id="line2d_47">
    <defs>
     <path d="M -6 6 
L 6 6 
L 6 -6 
L -6 -6 
z
" id="mba546fbda8" style="stroke:#ff0000;stroke-linejoin:miter;stroke-width:1.5;"/>
    </defs>
    <g>
     <use style="fill-opacity:0;stroke:#ff0000;stroke-linejoin:miter;stroke-width:1.5;" x="338.688" xlink:href="#mba546fbda8" y="293.677139"/>
    </g>
   </g>
   <g id="line2d_48">
    <path style="fill:none;stroke:#ff0000;stroke-linecap:square;stroke-width:1.5;"/>
    <g/>
   </g>
   <g id="line2d_49">
    <path clip-path="url(#pc5a449da69)" d="M 5.356583 293.677139 
" style="fill:none;stroke:#ff0000;stroke-linecap:square;stroke-width:1.5;"/>
    <defs>
     <path d="M -12 12 
L 12 -12 
M -12 -12 
L 12 12 
" id="m329c9ba4b7" style="stroke:#ff0000;"/>
    </defs>
    <g clip-path="url(#pc5a449da69)">
     <use style="fill:#ff0000;stroke:#ff0000;" x="5.356583" xlink:href="#m329c9ba4b7" y="293.677139"/>
    </g>
   </g>
   <g id="line2d_50">
    <path d="M 338.688 293.677139 
L 369.60768 293.571802 
" style="fill:none;stroke:#ff0000;stroke-linecap:square;stroke-width:1.5;"/>
    <g>
     <use style="fill-opacity:0;stroke:#ff0000;stroke-linejoin:miter;stroke-width:1.5;" x="338.688" xlink:href="#mba546fbda8" y="293.677139"/>
     <use style="fill-opacity:0;stroke:#ff0000;stroke-linejoin:miter;stroke-width:1.5;" x="369.60768" xlink:href="#mba546fbda8" y="293.571802"/>
    </g>
   </g>
   <g id="line2d_51">
    <path d="M 338.688 30.334099 
L 369.60768 229.105426 
" style="fill:none;stroke:#008000;stroke-linecap:square;stroke-width:1.5;"/>
    <g>
     <use style="fill-opacity:0;stroke:#008000;stroke-linejoin:miter;stroke-width:1.5;" x="338.688" xlink:href="#md9a361036a" y="30.334099"/>
     <use style="fill-opacity:0;stroke:#008000;stroke-linejoin:miter;stroke-width:1.5;" x="369.60768" xlink:href="#md9a361036a" y="229.105426"/>
    </g>
   </g>
   <g id="line2d_52">
    <path d="M 338.688 30.334099 
L 369.60768 164.63905 
" style="fill:none;stroke:#00bfbf;stroke-linecap:square;stroke-width:1.5;"/>
    <g>
     <use style="fill-opacity:0;stroke:#00bfbf;stroke-width:1.5;" x="338.688" xlink:href="#m04e8a878bb" y="30.334099"/>
     <use style="fill-opacity:0;stroke:#00bfbf;stroke-width:1.5;" x="369.60768" xlink:href="#m04e8a878bb" y="164.63905"/>
    </g>
   </g>
   <g id="line2d_53">
    <path d="M 338.688 30.334099 
L 369.60768 100.172673 
" style="fill:none;stroke:#0000ff;stroke-linecap:square;stroke-width:1.5;"/>
    <g>
     <use style="fill-opacity:0;stroke:#0000ff;stroke-linejoin:bevel;stroke-width:1.5;" x="338.688" xlink:href="#mc73eab229e" y="30.334099"/>
     <use style="fill-opacity:0;stroke:#0000ff;stroke-linejoin:bevel;stroke-width:1.5;" x="369.60768" xlink:href="#mc73eab229e" y="100.172673"/>
    </g>
   </g>
   <g id="line2d_54">
    <path d="M 338.688 30.334099 
L 369.60768 35.706297 
" style="fill:none;stroke:#000000;stroke-linecap:square;stroke-width:1.5;"/>
    <g>
     <use style="fill-opacity:0;stroke:#000000;stroke-width:1.5;" x="338.688" xlink:href="#m726609c19d" y="30.334099"/>
     <use style="fill-opacity:0;stroke:#000000;stroke-width:1.5;" x="369.60768" xlink:href="#m726609c19d" y="35.706297"/>
    </g>
   </g>
   <g id="line2d_55">
    <path d="M 338.688 298.944 
L 338.688 30.334099 
" style="fill:none;stroke:#000000;stroke-linecap:square;stroke-width:1.5;"/>
   </g>
   <g id="patch_3">
    <path d="M 57.6 298.944 
L 57.6 27.648 
" style="fill:none;stroke:#000000;stroke-linecap:square;stroke-linejoin:miter;stroke-width:0.8;"/>
   </g>
   <g id="patch_4">
    <path d="M 338.688 298.944 
L 338.688 27.648 
" style="fill:none;stroke:#000000;stroke-linecap:square;stroke-linejoin:miter;stroke-width:0.8;"/>
   </g>
   <g id="patch_5">
    <path d="M 57.6 298.944 
L 338.688 298.944 
" style="fill:none;stroke:#000000;stroke-linecap:square;stroke-linejoin:miter;stroke-width:0.8;"/>
   </g>
   <g id="patch_6">
    <path d="M 57.6 27.648 
L 338.688 27.648 
" style="fill:none;stroke:#000000;stroke-linecap:square;stroke-linejoin:miter;stroke-width:0.8;"/>
   </g>
   <g id="text_13">
    <!-- 20-D -->
    <g transform="translate(375.22944 298.262739)scale(0.17 -0.17)">
     <defs>
      <path d="M 19.671875 64.796875 
L 19.671875 8.109375 
L 31.59375 8.109375 
Q 46.6875 8.109375 53.6875 14.9375 
Q 60.6875 21.78125 60.6875 36.53125 
Q 60.6875 51.171875 53.6875 57.984375 
Q 46.6875 64.796875 31.59375 64.796875 
z
M 9.8125 72.90625 
L 30.078125 72.90625 
Q 51.265625 72.90625 61.171875 64.09375 
Q 71.09375 55.28125 71.09375 36.53125 
Q 71.09375 17.671875 61.125 8.828125 
Q 51.171875 0 30.078125 0 
L 9.8125 0 
z
" id="DejaVuSans-68"/>
     </defs>
     <use xlink:href="#DejaVuSans-50"/>
     <use x="63.623047" xlink:href="#DejaVuSans-48"/>
     <use x="127.246094" xlink:href="#DejaVuSans-45"/>
     <use x="163.330078" xlink:href="#DejaVuSans-68"/>
    </g>
   </g>
   <g id="text_14">
    <!-- 3-D -->
    <g transform="translate(375.22944 233.796363)scale(0.17 -0.17)">
     <defs>
      <path d="M 40.578125 39.3125 
Q 47.65625 37.796875 51.625 33 
Q 55.609375 28.21875 55.609375 21.1875 
Q 55.609375 10.40625 48.1875 4.484375 
Q 40.765625 -1.421875 27.09375 -1.421875 
Q 22.515625 -1.421875 17.65625 -0.515625 
Q 12.796875 0.390625 7.625 2.203125 
L 7.625 11.71875 
Q 11.71875 9.328125 16.59375 8.109375 
Q 21.484375 6.890625 26.8125 6.890625 
Q 36.078125 6.890625 40.9375 10.546875 
Q 45.796875 14.203125 45.796875 21.1875 
Q 45.796875 27.640625 41.28125 31.265625 
Q 36.765625 34.90625 28.71875 34.90625 
L 20.21875 34.90625 
L 20.21875 43.015625 
L 29.109375 43.015625 
Q 36.375 43.015625 40.234375 45.921875 
Q 44.09375 48.828125 44.09375 54.296875 
Q 44.09375 59.90625 40.109375 62.90625 
Q 36.140625 65.921875 28.71875 65.921875 
Q 24.65625 65.921875 20.015625 65.03125 
Q 15.375 64.15625 9.8125 62.3125 
L 9.8125 71.09375 
Q 15.4375 72.65625 20.34375 73.4375 
Q 25.25 74.21875 29.59375 74.21875 
Q 40.828125 74.21875 47.359375 69.109375 
Q 53.90625 64.015625 53.90625 55.328125 
Q 53.90625 49.265625 50.4375 45.09375 
Q 46.96875 40.921875 40.578125 39.3125 
z
" id="DejaVuSans-51"/>
     </defs>
     <use xlink:href="#DejaVuSans-51"/>
     <use x="63.623047" xlink:href="#DejaVuSans-45"/>
     <use x="99.707031" xlink:href="#DejaVuSans-68"/>
    </g>
   </g>
   <g id="text_15">
    <!-- 2-D -->
    <g transform="translate(375.22944 169.329987)scale(0.17 -0.17)">
     <use xlink:href="#DejaVuSans-50"/>
     <use x="63.623047" xlink:href="#DejaVuSans-45"/>
     <use x="99.707031" xlink:href="#DejaVuSans-68"/>
    </g>
   </g>
   <g id="text_16">
    <!-- 5-D -->
    <g transform="translate(375.22944 104.863611)scale(0.17 -0.17)">
     <defs>
      <path d="M 10.796875 72.90625 
L 49.515625 72.90625 
L 49.515625 64.59375 
L 19.828125 64.59375 
L 19.828125 46.734375 
Q 21.96875 47.46875 24.109375 47.828125 
Q 26.265625 48.1875 28.421875 48.1875 
Q 40.625 48.1875 47.75 41.5 
Q 54.890625 34.8125 54.890625 23.390625 
Q 54.890625 11.625 47.5625 5.09375 
Q 40.234375 -1.421875 26.90625 -1.421875 
Q 22.3125 -1.421875 17.546875 -0.640625 
Q 12.796875 0.140625 7.71875 1.703125 
L 7.71875 11.625 
Q 12.109375 9.234375 16.796875 8.0625 
Q 21.484375 6.890625 26.703125 6.890625 
Q 35.15625 6.890625 40.078125 11.328125 
Q 45.015625 15.765625 45.015625 23.390625 
Q 45.015625 31 40.078125 35.4375 
Q 35.15625 39.890625 26.703125 39.890625 
Q 22.75 39.890625 18.8125 39.015625 
Q 14.890625 38.140625 10.796875 36.28125 
z
" id="DejaVuSans-53"/>
     </defs>
     <use xlink:href="#DejaVuSans-53"/>
     <use x="63.623047" xlink:href="#DejaVuSans-45"/>
     <use x="99.707031" xlink:href="#DejaVuSans-68"/>
    </g>
   </g>
   <g id="text_17">
    <!-- 10-D -->
    <g transform="translate(375.22944 40.397235)scale(0.17 -0.17)">
     <use xlink:href="#DejaVuSans-49"/>
     <use x="63.623047" xlink:href="#DejaVuSans-48"/>
     <use x="127.246094" xlink:href="#DejaVuSans-45"/>
     <use x="163.330078" xlink:href="#DejaVuSans-68"/>
    </g>
   </g>
   <g id="text_18">
    <!-- bbob f1 -->
    <g transform="translate(60.41088 38.111366)scale(0.102 -0.102)">
     <defs>
      <path d="M 48.6875 27.296875 
Q 48.6875 37.203125 44.609375 42.84375 
Q 40.53125 48.484375 33.40625 48.484375 
Q 26.265625 48.484375 22.1875 42.84375 
Q 18.109375 37.203125 18.109375 27.296875 
Q 18.109375 17.390625 22.1875 11.75 
Q 26.265625 6.109375 33.40625 6.109375 
Q 40.53125 6.109375 44.609375 11.75 
Q 48.6875 17.390625 48.6875 27.296875 
z
M 18.109375 46.390625 
Q 20.953125 51.265625 25.265625 53.625 
Q 29.59375 56 35.59375 56 
Q 45.5625 56 51.78125 48.09375 
Q 58.015625 40.1875 58.015625 27.296875 
Q 58.015625 14.40625 51.78125 6.484375 
Q 45.5625 -1.421875 35.59375 -1.421875 
Q 29.59375 -1.421875 25.265625 0.953125 
Q 20.953125 3.328125 18.109375 8.203125 
L 18.109375 0 
L 9.078125 0 
L 9.078125 75.984375 
L 18.109375 75.984375 
z
" id="DejaVuSans-98"/>
     </defs>
     <use xlink:href="#DejaVuSans-98"/>
     <use x="63.476562" xlink:href="#DejaVuSans-98"/>
     <use x="126.953125" xlink:href="#DejaVuSans-111"/>
     <use x="188.134766" xlink:href="#DejaVuSans-98"/>
     <use x="251.611328" xlink:href="#DejaVuSans-32"/>
     <use x="283.398438" xlink:href="#DejaVuSans-102"/>
     <use x="318.603516" xlink:href="#DejaVuSans-49"/>
    </g>
    <!-- 51 targets: 100..1e-08 -->
    <g transform="translate(60.41088 49.533135)scale(0.102 -0.102)">
     <defs>
      <path d="M 11.71875 12.40625 
L 22.015625 12.40625 
L 22.015625 0 
L 11.71875 0 
z
M 11.71875 51.703125 
L 22.015625 51.703125 
L 22.015625 39.3125 
L 11.71875 39.3125 
z
" id="DejaVuSans-58"/>
     </defs>
     <use xlink:href="#DejaVuSans-53"/>
     <use x="63.623047" xlink:href="#DejaVuSans-49"/>
     <use x="127.246094" xlink:href="#DejaVuSans-32"/>
     <use x="159.033203" xlink:href="#DejaVuSans-116"/>
     <use x="198.242188" xlink:href="#DejaVuSans-97"/>
     <use x="259.521484" xlink:href="#DejaVuSans-114"/>
     <use x="298.884766" xlink:href="#DejaVuSans-103"/>
     <use x="362.361328" xlink:href="#DejaVuSans-101"/>
     <use x="423.884766" xlink:href="#DejaVuSans-116"/>
     <use x="463.09375" xlink:href="#DejaVuSans-115"/>
     <use x="515.193359" xlink:href="#DejaVuSans-58"/>
     <use x="548.884766" xlink:href="#DejaVuSans-32"/>
     <use x="580.671875" xlink:href="#DejaVuSans-49"/>
     <use x="644.294922" xlink:href="#DejaVuSans-48"/>
     <use x="707.917969" xlink:href="#DejaVuSans-48"/>
     <use x="771.541016" xlink:href="#DejaVuSans-46"/>
     <use x="803.328125" xlink:href="#DejaVuSans-46"/>
     <use x="835.115234" xlink:href="#DejaVuSans-49"/>
     <use x="898.738281" xlink:href="#DejaVuSans-101"/>
     <use x="960.261719" xlink:href="#DejaVuSans-45"/>
     <use x="996.345703" xlink:href="#DejaVuSans-48"/>
     <use x="1059.96875" xlink:href="#DejaVuSans-56"/>
    </g>
    <!-- 1 instances -->
    <g transform="translate(60.41088 60.954904)scale(0.102 -0.102)">
     <use xlink:href="#DejaVuSans-49"/>
     <use x="63.623047" xlink:href="#DejaVuSans-32"/>
     <use x="95.410156" xlink:href="#DejaVuSans-105"/>
     <use x="123.193359" xlink:href="#DejaVuSans-110"/>
     <use x="186.572266" xlink:href="#DejaVuSans-115"/>
     <use x="238.671875" xlink:href="#DejaVuSans-116"/>
     <use x="277.880859" xlink:href="#DejaVuSans-97"/>
     <use x="339.160156" xlink:href="#DejaVuSans-110"/>
     <use x="402.539062" xlink:href="#DejaVuSans-99"/>
     <use x="457.519531" xlink:href="#DejaVuSans-101"/>
     <use x="519.042969" xlink:href="#DejaVuSans-115"/>
    </g>
   </g>
   <g id="text_19">
    <!-- v2.4 -->
    <g style="fill:#808080;" transform="translate(187.233062 294.151352)scale(0.1 -0.1)">
     <use xlink:href="#DejaVuSans-118"/>
     <use x="59.179688" xlink:href="#DejaVuSans-50"/>
     <use x="122.802734" xlink:href="#DejaVuSans-46"/>
     <use x="154.589844" xlink:href="#DejaVuSans-52"/>
    </g>
   </g>
   <g id="text_20">
    <!-- 1 Sphere -->
    <g transform="translate(153.376812 21.648)scale(0.2 -0.2)">
     <defs>
      <path d="M 53.515625 70.515625 
L 53.515625 60.890625 
Q 47.90625 63.578125 42.921875 64.890625 
Q 37.9375 66.21875 33.296875 66.21875 
Q 25.25 66.21875 20.875 63.09375 
Q 16.5 59.96875 16.5 54.203125 
Q 16.5 49.359375 19.40625 46.890625 
Q 22.3125 44.4375 30.421875 42.921875 
L 36.375 41.703125 
Q 47.40625 39.59375 52.65625 34.296875 
Q 57.90625 29 57.90625 20.125 
Q 57.90625 9.515625 50.796875 4.046875 
Q 43.703125 -1.421875 29.984375 -1.421875 
Q 24.8125 -1.421875 18.96875 -0.25 
Q 13.140625 0.921875 6.890625 3.21875 
L 6.890625 13.375 
Q 12.890625 10.015625 18.65625 8.296875 
Q 24.421875 6.59375 29.984375 6.59375 
Q 38.421875 6.59375 43.015625 9.90625 
Q 47.609375 13.234375 47.609375 19.390625 
Q 47.609375 24.75 44.3125 27.78125 
Q 41.015625 30.8125 33.5 32.328125 
L 27.484375 33.5 
Q 16.453125 35.6875 11.515625 40.375 
Q 6.59375 45.0625 6.59375 53.421875 
Q 6.59375 63.09375 13.40625 68.65625 
Q 20.21875 74.21875 32.171875 74.21875 
Q 37.3125 74.21875 42.625 73.28125 
Q 47.953125 72.359375 53.515625 70.515625 
z
" id="DejaVuSans-83"/>
      <path d="M 54.890625 33.015625 
L 54.890625 0 
L 45.90625 0 
L 45.90625 32.71875 
Q 45.90625 40.484375 42.875 44.328125 
Q 39.84375 48.1875 33.796875 48.1875 
Q 26.515625 48.1875 22.3125 43.546875 
Q 18.109375 38.921875 18.109375 30.90625 
L 18.109375 0 
L 9.078125 0 
L 9.078125 75.984375 
L 18.109375 75.984375 
L 18.109375 46.1875 
Q 21.34375 51.125 25.703125 53.5625 
Q 30.078125 56 35.796875 56 
Q 45.21875 56 50.046875 50.171875 
Q 54.890625 44.34375 54.890625 33.015625 
z
" id="DejaVuSans-104"/>
     </defs>
     <use xlink:href="#DejaVuSans-49"/>
     <use x="63.623047" xlink:href="#DejaVuSans-32"/>
     <use x="95.410156" xlink:href="#DejaVuSans-83"/>
     <use x="158.886719" xlink:href="#DejaVuSans-112"/>
     <use x="222.363281" xlink:href="#DejaVuSans-104"/>
     <use x="285.742188" xlink:href="#DejaVuSans-101"/>
     <use x="347.265625" xlink:href="#DejaVuSans-114"/>
     <use x="386.128906" xlink:href="#DejaVuSans-101"/>
    </g>
   </g>
  </g>
 </g>
 <defs>
  <clipPath id="pc5a449da69">
   <rect height="271.296" width="281.088" x="57.6" y="27.648"/>
  </clipPath>
 </defs>
</svg>
