<?xml version="1.0" encoding="utf-8" standalone="no"?>
<!DOCTYPE svg PUBLIC "-//W3C//DTD SVG 1.1//EN"
  "http://www.w3.org/Graphics/SVG/1.1/DTD/svg11.dtd">
<!-- Created with matplotlib (https://matplotlib.org/) -->
<svg height="345.6pt" version="1.1" viewBox="0 0 460.8 345.6" width="460.8pt" xmlns="http://www.w3.org/2000/svg" xmlns:xlink="http://www.w3.org/1999/xlink">
 <metadata>
  <rdf:RDF xmlns:cc="http://creativecommons.org/ns#" xmlns:dc="http://purl.org/dc/elements/1.1/" xmlns:rdf="http://www.w3.org/1999/02/22-rdf-syntax-ns#">
   <cc:Work>
    <dc:type rdf:resource="http://purl.org/dc/dcmitype/StillImage"/>
    <dc:date>2021-06-17T01:39:27.955130</dc:date>
    <dc:format>image/svg+xml</dc:format>
    <dc:creator>
     <cc:Agent>
      <dc:title>Matplotlib v3.3.4, https://matplotlib.org/</dc:title>
     </cc:Agent>
    </dc:creator>
   </cc:Work>
  </rdf:RDF>
 </metadata>
 <defs>
  <style type="text/css">*{stroke-linecap:butt;stroke-linejoin:round;}</style>
 </defs>
 <g id="figure_1">
  <g id="patch_1">
   <path d="M 0 345.6 
L 460.8 345.6 
L 460.8 0 
L 0 0 
z
" style="fill:#ffffff;"/>
  </g>
  <g id="axes_1">
   <g id="patch_2">
    <path d="M 57.6 298.944 
L 338.688 298.944 
L 338.688 3.456 
L 57.6 3.456 
z
" style="fill:#ffffff;"/>
   </g>
   <g id="matplotlib.axis_1">
    <g id="xtick_1">
     <g id="line2d_1">
      <path clip-path="url(#pdb221c3e6a)" d="M 57.6 298.944 
L 57.6 3.456 
" style="fill:none;stroke:#b0b0b0;stroke-linecap:square;stroke-width:0.8;"/>
     </g>
     <g id="line2d_2">
      <defs>
       <path d="M 0 0 
L 0 3.5 
" id="mf60f37bdee" style="stroke:#000000;stroke-width:0.8;"/>
      </defs>
      <g>
       <use style="stroke:#000000;stroke-width:0.8;" x="57.6" xlink:href="#mf60f37bdee" y="298.944"/>
      </g>
     </g>
     <g id="text_1">
      <!-- 0 -->
      <g transform="translate(51.2375 321.140875)scale(0.2 -0.2)">
       <defs>
        <path d="M 31.78125 66.40625 
Q 24.171875 66.40625 20.328125 58.90625 
Q 16.5 51.421875 16.5 36.375 
Q 16.5 21.390625 20.328125 13.890625 
Q 24.171875 6.390625 31.78125 6.390625 
Q 39.453125 6.390625 43.28125 13.890625 
Q 47.125 21.390625 47.125 36.375 
Q 47.125 51.421875 43.28125 58.90625 
Q 39.453125 66.40625 31.78125 66.40625 
z
M 31.78125 74.21875 
Q 44.046875 74.21875 50.515625 64.515625 
Q 56.984375 54.828125 56.984375 36.375 
Q 56.984375 17.96875 50.515625 8.265625 
Q 44.046875 -1.421875 31.78125 -1.421875 
Q 19.53125 -1.421875 13.0625 8.265625 
Q 6.59375 17.96875 6.59375 36.375 
Q 6.59375 54.828125 13.0625 64.515625 
Q 19.53125 74.21875 31.78125 74.21875 
z
" id="DejaVuSans-48"/>
       </defs>
       <use xlink:href="#DejaVuSans-48"/>
      </g>
     </g>
    </g>
    <g id="xtick_2">
     <g id="line2d_3">
      <path clip-path="url(#pdb221c3e6a)" d="M 137.910857 298.944 
L 137.910857 3.456 
" style="fill:none;stroke:#b0b0b0;stroke-linecap:square;stroke-width:0.8;"/>
     </g>
     <g id="line2d_4">
      <g>
       <use style="stroke:#000000;stroke-width:0.8;" x="137.910857" xlink:href="#mf60f37bdee" y="298.944"/>
      </g>
     </g>
     <g id="text_2">
      <!-- 2 -->
      <g transform="translate(131.548357 321.140875)scale(0.2 -0.2)">
       <defs>
        <path d="M 19.1875 8.296875 
L 53.609375 8.296875 
L 53.609375 0 
L 7.328125 0 
L 7.328125 8.296875 
Q 12.9375 14.109375 22.625 23.890625 
Q 32.328125 33.6875 34.8125 36.53125 
Q 39.546875 41.84375 41.421875 45.53125 
Q 43.3125 49.21875 43.3125 52.78125 
Q 43.3125 58.59375 39.234375 62.25 
Q 35.15625 65.921875 28.609375 65.921875 
Q 23.96875 65.921875 18.8125 64.3125 
Q 13.671875 62.703125 7.8125 59.421875 
L 7.8125 69.390625 
Q 13.765625 71.78125 18.9375 73 
Q 24.125 74.21875 28.421875 74.21875 
Q 39.75 74.21875 46.484375 68.546875 
Q 53.21875 62.890625 53.21875 53.421875 
Q 53.21875 48.921875 51.53125 44.890625 
Q 49.859375 40.875 45.40625 35.40625 
Q 44.1875 33.984375 37.640625 27.21875 
Q 31.109375 20.453125 19.1875 8.296875 
z
" id="DejaVuSans-50"/>
       </defs>
       <use xlink:href="#DejaVuSans-50"/>
      </g>
     </g>
    </g>
    <g id="xtick_3">
     <g id="line2d_5">
      <path clip-path="url(#pdb221c3e6a)" d="M 218.221714 298.944 
L 218.221714 3.456 
" style="fill:none;stroke:#b0b0b0;stroke-linecap:square;stroke-width:0.8;"/>
     </g>
     <g id="line2d_6">
      <g>
       <use style="stroke:#000000;stroke-width:0.8;" x="218.221714" xlink:href="#mf60f37bdee" y="298.944"/>
      </g>
     </g>
     <g id="text_3">
      <!-- 4 -->
      <g transform="translate(211.859214 321.140875)scale(0.2 -0.2)">
       <defs>
        <path d="M 37.796875 64.3125 
L 12.890625 25.390625 
L 37.796875 25.390625 
z
M 35.203125 72.90625 
L 47.609375 72.90625 
L 47.609375 25.390625 
L 58.015625 25.390625 
L 58.015625 17.1875 
L 47.609375 17.1875 
L 47.609375 0 
L 37.796875 0 
L 37.796875 17.1875 
L 4.890625 17.1875 
L 4.890625 26.703125 
z
" id="DejaVuSans-52"/>
       </defs>
       <use xlink:href="#DejaVuSans-52"/>
      </g>
     </g>
    </g>
    <g id="xtick_4">
     <g id="line2d_7">
      <path clip-path="url(#pdb221c3e6a)" d="M 298.532571 298.944 
L 298.532571 3.456 
" style="fill:none;stroke:#b0b0b0;stroke-linecap:square;stroke-width:0.8;"/>
     </g>
     <g id="line2d_8">
      <g>
       <use style="stroke:#000000;stroke-width:0.8;" x="298.532571" xlink:href="#mf60f37bdee" y="298.944"/>
      </g>
     </g>
     <g id="text_4">
      <!-- 6 -->
      <g transform="translate(292.170071 321.140875)scale(0.2 -0.2)">
       <defs>
        <path d="M 33.015625 40.375 
Q 26.375 40.375 22.484375 35.828125 
Q 18.609375 31.296875 18.609375 23.390625 
Q 18.609375 15.53125 22.484375 10.953125 
Q 26.375 6.390625 33.015625 6.390625 
Q 39.65625 6.390625 43.53125 10.953125 
Q 47.40625 15.53125 47.40625 23.390625 
Q 47.40625 31.296875 43.53125 35.828125 
Q 39.65625 40.375 33.015625 40.375 
z
M 52.59375 71.296875 
L 52.59375 62.3125 
Q 48.875 64.0625 45.09375 64.984375 
Q 41.3125 65.921875 37.59375 65.921875 
Q 27.828125 65.921875 22.671875 59.328125 
Q 17.53125 52.734375 16.796875 39.40625 
Q 19.671875 43.65625 24.015625 45.921875 
Q 28.375 48.1875 33.59375 48.1875 
Q 44.578125 48.1875 50.953125 41.515625 
Q 57.328125 34.859375 57.328125 23.390625 
Q 57.328125 12.15625 50.6875 5.359375 
Q 44.046875 -1.421875 33.015625 -1.421875 
Q 20.359375 -1.421875 13.671875 8.265625 
Q 6.984375 17.96875 6.984375 36.375 
Q 6.984375 53.65625 15.1875 63.9375 
Q 23.390625 74.21875 37.203125 74.21875 
Q 40.921875 74.21875 44.703125 73.484375 
Q 48.484375 72.75 52.59375 71.296875 
z
" id="DejaVuSans-54"/>
       </defs>
       <use xlink:href="#DejaVuSans-54"/>
      </g>
     </g>
    </g>
    <g id="xtick_5">
     <g id="line2d_9">
      <path clip-path="url(#pdb221c3e6a)" d="M 97.755429 298.944 
L 97.755429 3.456 
" style="fill:none;stroke:#b0b0b0;stroke-linecap:square;stroke-width:0.8;"/>
     </g>
     <g id="line2d_10">
      <defs>
       <path d="M 0 0 
L 0 2 
" id="m16d543bc4e" style="stroke:#000000;stroke-width:0.6;"/>
      </defs>
      <g>
       <use style="stroke:#000000;stroke-width:0.6;" x="97.755429" xlink:href="#m16d543bc4e" y="298.944"/>
      </g>
     </g>
    </g>
    <g id="xtick_6">
     <g id="line2d_11">
      <path clip-path="url(#pdb221c3e6a)" d="M 178.066286 298.944 
L 178.066286 3.456 
" style="fill:none;stroke:#b0b0b0;stroke-linecap:square;stroke-width:0.8;"/>
     </g>
     <g id="line2d_12">
      <g>
       <use style="stroke:#000000;stroke-width:0.6;" x="178.066286" xlink:href="#m16d543bc4e" y="298.944"/>
      </g>
     </g>
    </g>
    <g id="xtick_7">
     <g id="line2d_13">
      <path clip-path="url(#pdb221c3e6a)" d="M 258.377143 298.944 
L 258.377143 3.456 
" style="fill:none;stroke:#b0b0b0;stroke-linecap:square;stroke-width:0.8;"/>
     </g>
     <g id="line2d_14">
      <g>
       <use style="stroke:#000000;stroke-width:0.6;" x="258.377143" xlink:href="#m16d543bc4e" y="298.944"/>
      </g>
     </g>
    </g>
    <g id="xtick_8">
     <g id="line2d_15">
      <path clip-path="url(#pdb221c3e6a)" d="M 338.688 298.944 
L 338.688 3.456 
" style="fill:none;stroke:#b0b0b0;stroke-linecap:square;stroke-width:0.8;"/>
     </g>
     <g id="line2d_16">
      <g>
       <use style="stroke:#000000;stroke-width:0.6;" x="338.688" xlink:href="#m16d543bc4e" y="298.944"/>
      </g>
     </g>
    </g>
    <g id="text_5">
     <!-- log10(# f-evals / dimension) -->
     <g transform="translate(77.764078 342.217594)scale(0.17 -0.17)">
      <defs>
       <path d="M 9.421875 75.984375 
L 18.40625 75.984375 
L 18.40625 0 
L 9.421875 0 
z
" id="DejaVuSans-108"/>
       <path d="M 30.609375 48.390625 
Q 23.390625 48.390625 19.1875 42.75 
Q 14.984375 37.109375 14.984375 27.296875 
Q 14.984375 17.484375 19.15625 11.84375 
Q 23.34375 6.203125 30.609375 6.203125 
Q 37.796875 6.203125 41.984375 11.859375 
Q 46.1875 17.53125 46.1875 27.296875 
Q 46.1875 37.015625 41.984375 42.703125 
Q 37.796875 48.390625 30.609375 48.390625 
z
M 30.609375 56 
Q 42.328125 56 49.015625 48.375 
Q 55.71875 40.765625 55.71875 27.296875 
Q 55.71875 13.875 49.015625 6.21875 
Q 42.328125 -1.421875 30.609375 -1.421875 
Q 18.84375 -1.421875 12.171875 6.21875 
Q 5.515625 13.875 5.515625 27.296875 
Q 5.515625 40.765625 12.171875 48.375 
Q 18.84375 56 30.609375 56 
z
" id="DejaVuSans-111"/>
       <path d="M 45.40625 27.984375 
Q 45.40625 37.75 41.375 43.109375 
Q 37.359375 48.484375 30.078125 48.484375 
Q 22.859375 48.484375 18.828125 43.109375 
Q 14.796875 37.75 14.796875 27.984375 
Q 14.796875 18.265625 18.828125 12.890625 
Q 22.859375 7.515625 30.078125 7.515625 
Q 37.359375 7.515625 41.375 12.890625 
Q 45.40625 18.265625 45.40625 27.984375 
z
M 54.390625 6.78125 
Q 54.390625 -7.171875 48.1875 -13.984375 
Q 42 -20.796875 29.203125 -20.796875 
Q 24.46875 -20.796875 20.265625 -20.09375 
Q 16.0625 -19.390625 12.109375 -17.921875 
L 12.109375 -9.1875 
Q 16.0625 -11.328125 19.921875 -12.34375 
Q 23.78125 -13.375 27.78125 -13.375 
Q 36.625 -13.375 41.015625 -8.765625 
Q 45.40625 -4.15625 45.40625 5.171875 
L 45.40625 9.625 
Q 42.625 4.78125 38.28125 2.390625 
Q 33.9375 0 27.875 0 
Q 17.828125 0 11.671875 7.65625 
Q 5.515625 15.328125 5.515625 27.984375 
Q 5.515625 40.671875 11.671875 48.328125 
Q 17.828125 56 27.875 56 
Q 33.9375 56 38.28125 53.609375 
Q 42.625 51.21875 45.40625 46.390625 
L 45.40625 54.6875 
L 54.390625 54.6875 
z
" id="DejaVuSans-103"/>
       <path d="M 12.40625 8.296875 
L 28.515625 8.296875 
L 28.515625 63.921875 
L 10.984375 60.40625 
L 10.984375 69.390625 
L 28.421875 72.90625 
L 38.28125 72.90625 
L 38.28125 8.296875 
L 54.390625 8.296875 
L 54.390625 0 
L 12.40625 0 
z
" id="DejaVuSans-49"/>
       <path d="M 31 75.875 
Q 24.46875 64.65625 21.28125 53.65625 
Q 18.109375 42.671875 18.109375 31.390625 
Q 18.109375 20.125 21.3125 9.0625 
Q 24.515625 -2 31 -13.1875 
L 23.1875 -13.1875 
Q 15.875 -1.703125 12.234375 9.375 
Q 8.59375 20.453125 8.59375 31.390625 
Q 8.59375 42.28125 12.203125 53.3125 
Q 15.828125 64.359375 23.1875 75.875 
z
" id="DejaVuSans-40"/>
       <path d="M 51.125 44 
L 36.921875 44 
L 32.8125 27.6875 
L 47.125 27.6875 
z
M 43.796875 71.78125 
L 38.71875 51.515625 
L 52.984375 51.515625 
L 58.109375 71.78125 
L 65.921875 71.78125 
L 60.890625 51.515625 
L 76.125 51.515625 
L 76.125 44 
L 58.984375 44 
L 54.984375 27.6875 
L 70.515625 27.6875 
L 70.515625 20.21875 
L 53.078125 20.21875 
L 48 0 
L 40.1875 0 
L 45.21875 20.21875 
L 30.90625 20.21875 
L 25.875 0 
L 18.015625 0 
L 23.09375 20.21875 
L 7.71875 20.21875 
L 7.71875 27.6875 
L 24.90625 27.6875 
L 29 44 
L 13.28125 44 
L 13.28125 51.515625 
L 30.90625 51.515625 
L 35.890625 71.78125 
z
" id="DejaVuSans-35"/>
       <path id="DejaVuSans-32"/>
       <path d="M 37.109375 75.984375 
L 37.109375 68.5 
L 28.515625 68.5 
Q 23.6875 68.5 21.796875 66.546875 
Q 19.921875 64.59375 19.921875 59.515625 
L 19.921875 54.6875 
L 34.71875 54.6875 
L 34.71875 47.703125 
L 19.921875 47.703125 
L 19.921875 0 
L 10.890625 0 
L 10.890625 47.703125 
L 2.296875 47.703125 
L 2.296875 54.6875 
L 10.890625 54.6875 
L 10.890625 58.5 
Q 10.890625 67.625 15.140625 71.796875 
Q 19.390625 75.984375 28.609375 75.984375 
z
" id="DejaVuSans-102"/>
       <path d="M 4.890625 31.390625 
L 31.203125 31.390625 
L 31.203125 23.390625 
L 4.890625 23.390625 
z
" id="DejaVuSans-45"/>
       <path d="M 56.203125 29.59375 
L 56.203125 25.203125 
L 14.890625 25.203125 
Q 15.484375 15.921875 20.484375 11.0625 
Q 25.484375 6.203125 34.421875 6.203125 
Q 39.59375 6.203125 44.453125 7.46875 
Q 49.3125 8.734375 54.109375 11.28125 
L 54.109375 2.78125 
Q 49.265625 0.734375 44.1875 -0.34375 
Q 39.109375 -1.421875 33.890625 -1.421875 
Q 20.796875 -1.421875 13.15625 6.1875 
Q 5.515625 13.8125 5.515625 26.8125 
Q 5.515625 40.234375 12.765625 48.109375 
Q 20.015625 56 32.328125 56 
Q 43.359375 56 49.78125 48.890625 
Q 56.203125 41.796875 56.203125 29.59375 
z
M 47.21875 32.234375 
Q 47.125 39.59375 43.09375 43.984375 
Q 39.0625 48.390625 32.421875 48.390625 
Q 24.90625 48.390625 20.390625 44.140625 
Q 15.875 39.890625 15.1875 32.171875 
z
" id="DejaVuSans-101"/>
       <path d="M 2.984375 54.6875 
L 12.5 54.6875 
L 29.59375 8.796875 
L 46.6875 54.6875 
L 56.203125 54.6875 
L 35.6875 0 
L 23.484375 0 
z
" id="DejaVuSans-118"/>
       <path d="M 34.28125 27.484375 
Q 23.390625 27.484375 19.1875 25 
Q 14.984375 22.515625 14.984375 16.5 
Q 14.984375 11.71875 18.140625 8.90625 
Q 21.296875 6.109375 26.703125 6.109375 
Q 34.1875 6.109375 38.703125 11.40625 
Q 43.21875 16.703125 43.21875 25.484375 
L 43.21875 27.484375 
z
M 52.203125 31.203125 
L 52.203125 0 
L 43.21875 0 
L 43.21875 8.296875 
Q 40.140625 3.328125 35.546875 0.953125 
Q 30.953125 -1.421875 24.3125 -1.421875 
Q 15.921875 -1.421875 10.953125 3.296875 
Q 6 8.015625 6 15.921875 
Q 6 25.140625 12.171875 29.828125 
Q 18.359375 34.515625 30.609375 34.515625 
L 43.21875 34.515625 
L 43.21875 35.40625 
Q 43.21875 41.609375 39.140625 45 
Q 35.0625 48.390625 27.6875 48.390625 
Q 23 48.390625 18.546875 47.265625 
Q 14.109375 46.140625 10.015625 43.890625 
L 10.015625 52.203125 
Q 14.9375 54.109375 19.578125 55.046875 
Q 24.21875 56 28.609375 56 
Q 40.484375 56 46.34375 49.84375 
Q 52.203125 43.703125 52.203125 31.203125 
z
" id="DejaVuSans-97"/>
       <path d="M 44.28125 53.078125 
L 44.28125 44.578125 
Q 40.484375 46.53125 36.375 47.5 
Q 32.28125 48.484375 27.875 48.484375 
Q 21.1875 48.484375 17.84375 46.4375 
Q 14.5 44.390625 14.5 40.28125 
Q 14.5 37.15625 16.890625 35.375 
Q 19.28125 33.59375 26.515625 31.984375 
L 29.59375 31.296875 
Q 39.15625 29.25 43.1875 25.515625 
Q 47.21875 21.78125 47.21875 15.09375 
Q 47.21875 7.46875 41.1875 3.015625 
Q 35.15625 -1.421875 24.609375 -1.421875 
Q 20.21875 -1.421875 15.453125 -0.5625 
Q 10.6875 0.296875 5.421875 2 
L 5.421875 11.28125 
Q 10.40625 8.6875 15.234375 7.390625 
Q 20.0625 6.109375 24.8125 6.109375 
Q 31.15625 6.109375 34.5625 8.28125 
Q 37.984375 10.453125 37.984375 14.40625 
Q 37.984375 18.0625 35.515625 20.015625 
Q 33.0625 21.96875 24.703125 23.78125 
L 21.578125 24.515625 
Q 13.234375 26.265625 9.515625 29.90625 
Q 5.8125 33.546875 5.8125 39.890625 
Q 5.8125 47.609375 11.28125 51.796875 
Q 16.75 56 26.8125 56 
Q 31.78125 56 36.171875 55.265625 
Q 40.578125 54.546875 44.28125 53.078125 
z
" id="DejaVuSans-115"/>
       <path d="M 25.390625 72.90625 
L 33.6875 72.90625 
L 8.296875 -9.28125 
L 0 -9.28125 
z
" id="DejaVuSans-47"/>
       <path d="M 45.40625 46.390625 
L 45.40625 75.984375 
L 54.390625 75.984375 
L 54.390625 0 
L 45.40625 0 
L 45.40625 8.203125 
Q 42.578125 3.328125 38.25 0.953125 
Q 33.9375 -1.421875 27.875 -1.421875 
Q 17.96875 -1.421875 11.734375 6.484375 
Q 5.515625 14.40625 5.515625 27.296875 
Q 5.515625 40.1875 11.734375 48.09375 
Q 17.96875 56 27.875 56 
Q 33.9375 56 38.25 53.625 
Q 42.578125 51.265625 45.40625 46.390625 
z
M 14.796875 27.296875 
Q 14.796875 17.390625 18.875 11.75 
Q 22.953125 6.109375 30.078125 6.109375 
Q 37.203125 6.109375 41.296875 11.75 
Q 45.40625 17.390625 45.40625 27.296875 
Q 45.40625 37.203125 41.296875 42.84375 
Q 37.203125 48.484375 30.078125 48.484375 
Q 22.953125 48.484375 18.875 42.84375 
Q 14.796875 37.203125 14.796875 27.296875 
z
" id="DejaVuSans-100"/>
       <path d="M 9.421875 54.6875 
L 18.40625 54.6875 
L 18.40625 0 
L 9.421875 0 
z
M 9.421875 75.984375 
L 18.40625 75.984375 
L 18.40625 64.59375 
L 9.421875 64.59375 
z
" id="DejaVuSans-105"/>
       <path d="M 52 44.1875 
Q 55.375 50.25 60.0625 53.125 
Q 64.75 56 71.09375 56 
Q 79.640625 56 84.28125 50.015625 
Q 88.921875 44.046875 88.921875 33.015625 
L 88.921875 0 
L 79.890625 0 
L 79.890625 32.71875 
Q 79.890625 40.578125 77.09375 44.375 
Q 74.3125 48.1875 68.609375 48.1875 
Q 61.625 48.1875 57.5625 43.546875 
Q 53.515625 38.921875 53.515625 30.90625 
L 53.515625 0 
L 44.484375 0 
L 44.484375 32.71875 
Q 44.484375 40.625 41.703125 44.40625 
Q 38.921875 48.1875 33.109375 48.1875 
Q 26.21875 48.1875 22.15625 43.53125 
Q 18.109375 38.875 18.109375 30.90625 
L 18.109375 0 
L 9.078125 0 
L 9.078125 54.6875 
L 18.109375 54.6875 
L 18.109375 46.1875 
Q 21.1875 51.21875 25.484375 53.609375 
Q 29.78125 56 35.6875 56 
Q 41.65625 56 45.828125 52.96875 
Q 50 49.953125 52 44.1875 
z
" id="DejaVuSans-109"/>
       <path d="M 54.890625 33.015625 
L 54.890625 0 
L 45.90625 0 
L 45.90625 32.71875 
Q 45.90625 40.484375 42.875 44.328125 
Q 39.84375 48.1875 33.796875 48.1875 
Q 26.515625 48.1875 22.3125 43.546875 
Q 18.109375 38.921875 18.109375 30.90625 
L 18.109375 0 
L 9.078125 0 
L 9.078125 54.6875 
L 18.109375 54.6875 
L 18.109375 46.1875 
Q 21.34375 51.125 25.703125 53.5625 
Q 30.078125 56 35.796875 56 
Q 45.21875 56 50.046875 50.171875 
Q 54.890625 44.34375 54.890625 33.015625 
z
" id="DejaVuSans-110"/>
       <path d="M 8.015625 75.875 
L 15.828125 75.875 
Q 23.140625 64.359375 26.78125 53.3125 
Q 30.421875 42.28125 30.421875 31.390625 
Q 30.421875 20.453125 26.78125 9.375 
Q 23.140625 -1.703125 15.828125 -13.1875 
L 8.015625 -13.1875 
Q 14.5 -2 17.703125 9.0625 
Q 20.90625 20.125 20.90625 31.390625 
Q 20.90625 42.671875 17.703125 53.65625 
Q 14.5 64.65625 8.015625 75.875 
z
" id="DejaVuSans-41"/>
      </defs>
      <use xlink:href="#DejaVuSans-108"/>
      <use x="27.783203" xlink:href="#DejaVuSans-111"/>
      <use x="88.964844" xlink:href="#DejaVuSans-103"/>
      <use x="152.441406" xlink:href="#DejaVuSans-49"/>
      <use x="216.064453" xlink:href="#DejaVuSans-48"/>
      <use x="279.6875" xlink:href="#DejaVuSans-40"/>
      <use x="318.701172" xlink:href="#DejaVuSans-35"/>
      <use x="402.490234" xlink:href="#DejaVuSans-32"/>
      <use x="434.277344" xlink:href="#DejaVuSans-102"/>
      <use x="463.982422" xlink:href="#DejaVuSans-45"/>
      <use x="500.066406" xlink:href="#DejaVuSans-101"/>
      <use x="561.589844" xlink:href="#DejaVuSans-118"/>
      <use x="620.769531" xlink:href="#DejaVuSans-97"/>
      <use x="682.048828" xlink:href="#DejaVuSans-108"/>
      <use x="709.832031" xlink:href="#DejaVuSans-115"/>
      <use x="761.931641" xlink:href="#DejaVuSans-32"/>
      <use x="793.71875" xlink:href="#DejaVuSans-47"/>
      <use x="827.410156" xlink:href="#DejaVuSans-32"/>
      <use x="859.197266" xlink:href="#DejaVuSans-100"/>
      <use x="922.673828" xlink:href="#DejaVuSans-105"/>
      <use x="950.457031" xlink:href="#DejaVuSans-109"/>
      <use x="1047.869141" xlink:href="#DejaVuSans-101"/>
      <use x="1109.392578" xlink:href="#DejaVuSans-110"/>
      <use x="1172.771484" xlink:href="#DejaVuSans-115"/>
      <use x="1224.871094" xlink:href="#DejaVuSans-105"/>
      <use x="1252.654297" xlink:href="#DejaVuSans-111"/>
      <use x="1313.835938" xlink:href="#DejaVuSans-110"/>
      <use x="1377.214844" xlink:href="#DejaVuSans-41"/>
     </g>
    </g>
   </g>
   <g id="matplotlib.axis_2">
    <g id="ytick_1">
     <g id="line2d_17">
      <path clip-path="url(#pdb221c3e6a)" d="M 57.6 298.944 
L 338.688 298.944 
" style="fill:none;stroke:#b0b0b0;stroke-linecap:square;stroke-width:0.8;"/>
     </g>
     <g id="line2d_18">
      <defs>
       <path d="M 0 0 
L -3.5 0 
" id="mad7611485c" style="stroke:#000000;stroke-width:0.8;"/>
      </defs>
      <g>
       <use style="stroke:#000000;stroke-width:0.8;" x="57.6" xlink:href="#mad7611485c" y="298.944"/>
      </g>
     </g>
     <g id="text_6">
      <!-- 0.0 -->
      <g transform="translate(25.155 305.02275)scale(0.16 -0.16)">
       <defs>
        <path d="M 10.6875 12.40625 
L 21 12.40625 
L 21 0 
L 10.6875 0 
z
" id="DejaVuSans-46"/>
       </defs>
       <use xlink:href="#DejaVuSans-48"/>
       <use x="63.623047" xlink:href="#DejaVuSans-46"/>
       <use x="95.410156" xlink:href="#DejaVuSans-48"/>
      </g>
     </g>
    </g>
    <g id="ytick_2">
     <g id="line2d_19">
      <path clip-path="url(#pdb221c3e6a)" d="M 57.6 240.431525 
L 338.688 240.431525 
" style="fill:none;stroke:#b0b0b0;stroke-linecap:square;stroke-width:0.8;"/>
     </g>
     <g id="line2d_20">
      <g>
       <use style="stroke:#000000;stroke-width:0.8;" x="57.6" xlink:href="#mad7611485c" y="240.431525"/>
      </g>
     </g>
     <g id="text_7">
      <!-- 0.2 -->
      <g transform="translate(25.155 246.510275)scale(0.16 -0.16)">
       <use xlink:href="#DejaVuSans-48"/>
       <use x="63.623047" xlink:href="#DejaVuSans-46"/>
       <use x="95.410156" xlink:href="#DejaVuSans-50"/>
      </g>
     </g>
    </g>
    <g id="ytick_3">
     <g id="line2d_21">
      <path clip-path="url(#pdb221c3e6a)" d="M 57.6 181.91905 
L 338.688 181.91905 
" style="fill:none;stroke:#b0b0b0;stroke-linecap:square;stroke-width:0.8;"/>
     </g>
     <g id="line2d_22">
      <g>
       <use style="stroke:#000000;stroke-width:0.8;" x="57.6" xlink:href="#mad7611485c" y="181.91905"/>
      </g>
     </g>
     <g id="text_8">
      <!-- 0.4 -->
      <g transform="translate(25.155 187.9978)scale(0.16 -0.16)">
       <use xlink:href="#DejaVuSans-48"/>
       <use x="63.623047" xlink:href="#DejaVuSans-46"/>
       <use x="95.410156" xlink:href="#DejaVuSans-52"/>
      </g>
     </g>
    </g>
    <g id="ytick_4">
     <g id="line2d_23">
      <path clip-path="url(#pdb221c3e6a)" d="M 57.6 123.406574 
L 338.688 123.406574 
" style="fill:none;stroke:#b0b0b0;stroke-linecap:square;stroke-width:0.8;"/>
     </g>
     <g id="line2d_24">
      <g>
       <use style="stroke:#000000;stroke-width:0.8;" x="57.6" xlink:href="#mad7611485c" y="123.406574"/>
      </g>
     </g>
     <g id="text_9">
      <!-- 0.6 -->
      <g transform="translate(25.155 129.485324)scale(0.16 -0.16)">
       <use xlink:href="#DejaVuSans-48"/>
       <use x="63.623047" xlink:href="#DejaVuSans-46"/>
       <use x="95.410156" xlink:href="#DejaVuSans-54"/>
      </g>
     </g>
    </g>
    <g id="ytick_5">
     <g id="line2d_25">
      <path clip-path="url(#pdb221c3e6a)" d="M 57.6 64.894099 
L 338.688 64.894099 
" style="fill:none;stroke:#b0b0b0;stroke-linecap:square;stroke-width:0.8;"/>
     </g>
     <g id="line2d_26">
      <g>
       <use style="stroke:#000000;stroke-width:0.8;" x="57.6" xlink:href="#mad7611485c" y="64.894099"/>
      </g>
     </g>
     <g id="text_10">
      <!-- 0.8 -->
      <g transform="translate(25.155 70.972849)scale(0.16 -0.16)">
       <defs>
        <path d="M 31.78125 34.625 
Q 24.75 34.625 20.71875 30.859375 
Q 16.703125 27.09375 16.703125 20.515625 
Q 16.703125 13.921875 20.71875 10.15625 
Q 24.75 6.390625 31.78125 6.390625 
Q 38.8125 6.390625 42.859375 10.171875 
Q 46.921875 13.96875 46.921875 20.515625 
Q 46.921875 27.09375 42.890625 30.859375 
Q 38.875 34.625 31.78125 34.625 
z
M 21.921875 38.8125 
Q 15.578125 40.375 12.03125 44.71875 
Q 8.5 49.078125 8.5 55.328125 
Q 8.5 64.0625 14.71875 69.140625 
Q 20.953125 74.21875 31.78125 74.21875 
Q 42.671875 74.21875 48.875 69.140625 
Q 55.078125 64.0625 55.078125 55.328125 
Q 55.078125 49.078125 51.53125 44.71875 
Q 48 40.375 41.703125 38.8125 
Q 48.828125 37.15625 52.796875 32.3125 
Q 56.78125 27.484375 56.78125 20.515625 
Q 56.78125 9.90625 50.3125 4.234375 
Q 43.84375 -1.421875 31.78125 -1.421875 
Q 19.734375 -1.421875 13.25 4.234375 
Q 6.78125 9.90625 6.78125 20.515625 
Q 6.78125 27.484375 10.78125 32.3125 
Q 14.796875 37.15625 21.921875 38.8125 
z
M 18.3125 54.390625 
Q 18.3125 48.734375 21.84375 45.5625 
Q 25.390625 42.390625 31.78125 42.390625 
Q 38.140625 42.390625 41.71875 45.5625 
Q 45.3125 48.734375 45.3125 54.390625 
Q 45.3125 60.0625 41.71875 63.234375 
Q 38.140625 66.40625 31.78125 66.40625 
Q 25.390625 66.40625 21.84375 63.234375 
Q 18.3125 60.0625 18.3125 54.390625 
z
" id="DejaVuSans-56"/>
       </defs>
       <use xlink:href="#DejaVuSans-48"/>
       <use x="63.623047" xlink:href="#DejaVuSans-46"/>
       <use x="95.410156" xlink:href="#DejaVuSans-56"/>
      </g>
     </g>
    </g>
    <g id="ytick_6">
     <g id="line2d_27">
      <path clip-path="url(#pdb221c3e6a)" d="M 57.6 6.381624 
L 338.688 6.381624 
" style="fill:none;stroke:#b0b0b0;stroke-linecap:square;stroke-width:0.8;"/>
     </g>
     <g id="line2d_28">
      <g>
       <use style="stroke:#000000;stroke-width:0.8;" x="57.6" xlink:href="#mad7611485c" y="6.381624"/>
      </g>
     </g>
     <g id="text_11">
      <!-- 1.0 -->
      <g transform="translate(25.155 12.460374)scale(0.16 -0.16)">
       <use xlink:href="#DejaVuSans-49"/>
       <use x="63.623047" xlink:href="#DejaVuSans-46"/>
       <use x="95.410156" xlink:href="#DejaVuSans-48"/>
      </g>
     </g>
    </g>
    <g id="text_12">
     <!-- Fraction of function,target pairs -->
     <g transform="translate(17.619531 285.585)rotate(-90)scale(0.17 -0.17)">
      <defs>
       <path d="M 9.8125 72.90625 
L 51.703125 72.90625 
L 51.703125 64.59375 
L 19.671875 64.59375 
L 19.671875 43.109375 
L 48.578125 43.109375 
L 48.578125 34.8125 
L 19.671875 34.8125 
L 19.671875 0 
L 9.8125 0 
z
" id="DejaVuSans-70"/>
       <path d="M 41.109375 46.296875 
Q 39.59375 47.171875 37.8125 47.578125 
Q 36.03125 48 33.890625 48 
Q 26.265625 48 22.1875 43.046875 
Q 18.109375 38.09375 18.109375 28.8125 
L 18.109375 0 
L 9.078125 0 
L 9.078125 54.6875 
L 18.109375 54.6875 
L 18.109375 46.1875 
Q 20.953125 51.171875 25.484375 53.578125 
Q 30.03125 56 36.53125 56 
Q 37.453125 56 38.578125 55.875 
Q 39.703125 55.765625 41.0625 55.515625 
z
" id="DejaVuSans-114"/>
       <path d="M 48.78125 52.59375 
L 48.78125 44.1875 
Q 44.96875 46.296875 41.140625 47.34375 
Q 37.3125 48.390625 33.40625 48.390625 
Q 24.65625 48.390625 19.8125 42.84375 
Q 14.984375 37.3125 14.984375 27.296875 
Q 14.984375 17.28125 19.8125 11.734375 
Q 24.65625 6.203125 33.40625 6.203125 
Q 37.3125 6.203125 41.140625 7.25 
Q 44.96875 8.296875 48.78125 10.40625 
L 48.78125 2.09375 
Q 45.015625 0.34375 40.984375 -0.53125 
Q 36.96875 -1.421875 32.421875 -1.421875 
Q 20.0625 -1.421875 12.78125 6.34375 
Q 5.515625 14.109375 5.515625 27.296875 
Q 5.515625 40.671875 12.859375 48.328125 
Q 20.21875 56 33.015625 56 
Q 37.15625 56 41.109375 55.140625 
Q 45.0625 54.296875 48.78125 52.59375 
z
" id="DejaVuSans-99"/>
       <path d="M 18.3125 70.21875 
L 18.3125 54.6875 
L 36.8125 54.6875 
L 36.8125 47.703125 
L 18.3125 47.703125 
L 18.3125 18.015625 
Q 18.3125 11.328125 20.140625 9.421875 
Q 21.96875 7.515625 27.59375 7.515625 
L 36.8125 7.515625 
L 36.8125 0 
L 27.59375 0 
Q 17.1875 0 13.234375 3.875 
Q 9.28125 7.765625 9.28125 18.015625 
L 9.28125 47.703125 
L 2.6875 47.703125 
L 2.6875 54.6875 
L 9.28125 54.6875 
L 9.28125 70.21875 
z
" id="DejaVuSans-116"/>
       <path d="M 8.5 21.578125 
L 8.5 54.6875 
L 17.484375 54.6875 
L 17.484375 21.921875 
Q 17.484375 14.15625 20.5 10.265625 
Q 23.53125 6.390625 29.59375 6.390625 
Q 36.859375 6.390625 41.078125 11.03125 
Q 45.3125 15.671875 45.3125 23.6875 
L 45.3125 54.6875 
L 54.296875 54.6875 
L 54.296875 0 
L 45.3125 0 
L 45.3125 8.40625 
Q 42.046875 3.421875 37.71875 1 
Q 33.40625 -1.421875 27.6875 -1.421875 
Q 18.265625 -1.421875 13.375 4.4375 
Q 8.5 10.296875 8.5 21.578125 
z
M 31.109375 56 
z
" id="DejaVuSans-117"/>
       <path d="M 11.71875 12.40625 
L 22.015625 12.40625 
L 22.015625 4 
L 14.015625 -11.625 
L 7.71875 -11.625 
L 11.71875 4 
z
" id="DejaVuSans-44"/>
       <path d="M 18.109375 8.203125 
L 18.109375 -20.796875 
L 9.078125 -20.796875 
L 9.078125 54.6875 
L 18.109375 54.6875 
L 18.109375 46.390625 
Q 20.953125 51.265625 25.265625 53.625 
Q 29.59375 56 35.59375 56 
Q 45.5625 56 51.78125 48.09375 
Q 58.015625 40.1875 58.015625 27.296875 
Q 58.015625 14.40625 51.78125 6.484375 
Q 45.5625 -1.421875 35.59375 -1.421875 
Q 29.59375 -1.421875 25.265625 0.953125 
Q 20.953125 3.328125 18.109375 8.203125 
z
M 48.6875 27.296875 
Q 48.6875 37.203125 44.609375 42.84375 
Q 40.53125 48.484375 33.40625 48.484375 
Q 26.265625 48.484375 22.1875 42.84375 
Q 18.109375 37.203125 18.109375 27.296875 
Q 18.109375 17.390625 22.1875 11.75 
Q 26.265625 6.109375 33.40625 6.109375 
Q 40.53125 6.109375 44.609375 11.75 
Q 48.6875 17.390625 48.6875 27.296875 
z
" id="DejaVuSans-112"/>
      </defs>
      <use xlink:href="#DejaVuSans-70"/>
      <use x="50.269531" xlink:href="#DejaVuSans-114"/>
      <use x="91.382812" xlink:href="#DejaVuSans-97"/>
      <use x="152.662109" xlink:href="#DejaVuSans-99"/>
      <use x="207.642578" xlink:href="#DejaVuSans-116"/>
      <use x="246.851562" xlink:href="#DejaVuSans-105"/>
      <use x="274.634766" xlink:href="#DejaVuSans-111"/>
      <use x="335.816406" xlink:href="#DejaVuSans-110"/>
      <use x="399.195312" xlink:href="#DejaVuSans-32"/>
      <use x="430.982422" xlink:href="#DejaVuSans-111"/>
      <use x="492.164062" xlink:href="#DejaVuSans-102"/>
      <use x="527.369141" xlink:href="#DejaVuSans-32"/>
      <use x="559.15625" xlink:href="#DejaVuSans-102"/>
      <use x="594.361328" xlink:href="#DejaVuSans-117"/>
      <use x="657.740234" xlink:href="#DejaVuSans-110"/>
      <use x="721.119141" xlink:href="#DejaVuSans-99"/>
      <use x="776.099609" xlink:href="#DejaVuSans-116"/>
      <use x="815.308594" xlink:href="#DejaVuSans-105"/>
      <use x="843.091797" xlink:href="#DejaVuSans-111"/>
      <use x="904.273438" xlink:href="#DejaVuSans-110"/>
      <use x="967.652344" xlink:href="#DejaVuSans-44"/>
      <use x="999.439453" xlink:href="#DejaVuSans-116"/>
      <use x="1038.648438" xlink:href="#DejaVuSans-97"/>
      <use x="1099.927734" xlink:href="#DejaVuSans-114"/>
      <use x="1139.291016" xlink:href="#DejaVuSans-103"/>
      <use x="1202.767578" xlink:href="#DejaVuSans-101"/>
      <use x="1264.291016" xlink:href="#DejaVuSans-116"/>
      <use x="1303.5" xlink:href="#DejaVuSans-32"/>
      <use x="1335.287109" xlink:href="#DejaVuSans-112"/>
      <use x="1398.763672" xlink:href="#DejaVuSans-97"/>
      <use x="1460.042969" xlink:href="#DejaVuSans-105"/>
      <use x="1487.826172" xlink:href="#DejaVuSans-114"/>
      <use x="1528.939453" xlink:href="#DejaVuSans-115"/>
     </g>
    </g>
   </g>
   <g id="line2d_29">
    <defs>
     <path d="M 0 1.5 
C 0.397805 1.5 0.77937 1.341951 1.06066 1.06066 
C 1.341951 0.77937 1.5 0.397805 1.5 0 
C 1.5 -0.397805 1.341951 -0.77937 1.06066 -1.06066 
C 0.77937 -1.341951 0.397805 -1.5 0 -1.5 
C -0.397805 -1.5 -0.77937 -1.341951 -1.06066 -1.06066 
C -1.341951 -0.77937 -1.5 -0.397805 -1.5 0 
C -1.5 0.397805 -1.341951 0.77937 -1.06066 1.06066 
C -0.77937 1.341951 -0.397805 1.5 0 1.5 
z
" id="me3ed3102da" style="stroke:#000080;"/>
    </defs>
    <g>
     <use style="fill:#000080;stroke:#000080;" x="218.295848" xlink:href="#me3ed3102da" y="247.315345"/>
     <use style="fill:#000080;stroke:#000080;" x="218.295848" xlink:href="#me3ed3102da" y="247.315345"/>
    </g>
   </g>
   <g id="line2d_30">
    <path d="M 83.037197 298.944 
L 83.037197 298.370348 
L 83.438118 298.370348 
L 83.438118 297.796697 
L 84.588378 297.796697 
L 84.588378 295.50209 
L 85.66744 295.50209 
L 85.66744 285.75001 
L 86.012784 285.75001 
L 86.012784 282.881752 
L 88.255778 282.881752 
L 88.255778 282.3081 
L 88.553893 282.3081 
L 88.553893 281.160797 
L 89.697862 281.160797 
L 89.697862 280.587145 
L 91.782644 280.587145 
L 91.782644 280.013493 
L 92.267099 280.013493 
L 92.267099 279.439842 
L 92.969447 279.439842 
L 92.969447 277.145235 
L 93.863965 277.145235 
L 93.863965 274.276976 
L 95.526106 274.276976 
L 95.526106 273.703324 
L 96.301313 273.703324 
L 96.301313 271.408718 
L 96.489848 271.408718 
L 96.489848 270.835066 
L 96.676366 270.835066 
L 96.676366 266.819504 
L 97.928955 266.819504 
L 97.928955 263.377593 
L 98.771596 263.377593 
L 98.771596 262.803942 
L 99.097574 262.803942 
L 99.097574 261.082987 
L 99.731799 261.082987 
L 99.731799 259.935683 
L 100.192776 259.935683 
L 100.192776 259.362031 
L 101.079711 259.362031 
L 101.079711 258.78838 
L 102.196206 258.78838 
L 102.196206 258.214728 
L 102.464508 258.214728 
L 102.464508 257.067425 
L 102.728744 257.067425 
L 102.728744 255.346469 
L 102.859376 255.346469 
L 102.859376 254.199166 
L 107.414787 254.199166 
L 107.414787 253.625514 
L 107.514726 253.625514 
L 107.514726 253.051863 
L 114.485807 253.051863 
L 114.485807 252.478211 
L 115.835374 252.478211 
L 115.835374 251.904559 
L 122.988655 251.904559 
L 122.988655 251.330907 
L 126.87191 251.330907 
L 126.87191 250.757256 
L 127.830353 250.757256 
L 127.830353 250.183604 
L 128.590686 250.183604 
L 128.590686 249.609952 
L 128.679738 249.609952 
L 128.679738 248.462649 
L 138.27329 248.462649 
L 138.27329 247.888997 
L 218.295848 247.888997 
L 218.295848 247.315345 
L 338.688 247.315345 
" style="fill:none;stroke:#000080;stroke-linecap:square;stroke-width:1.5;"/>
   </g>
   <g id="line2d_31">
    <defs>
     <path d="M 0 6 
C 1.591219 6 3.117479 5.367802 4.242641 4.242641 
C 5.367802 3.117479 6 1.591219 6 0 
C 6 -1.591219 5.367802 -3.117479 4.242641 -4.242641 
C 3.117479 -5.367802 1.591219 -6 0 -6 
C -1.591219 -6 -3.117479 -5.367802 -4.242641 -4.242641 
C -5.367802 -3.117479 -6 -1.591219 -6 0 
C -6 1.591219 -5.367802 3.117479 -4.242641 4.242641 
C -3.117479 5.367802 -1.591219 6 0 6 
z
" id="m1d261c2a1d" style="stroke:#000080;stroke-width:1.5;"/>
    </defs>
    <g>
     <use style="fill-opacity:0;stroke:#000080;stroke-width:1.5;" x="85.66744" xlink:href="#m1d261c2a1d" y="285.75001"/>
     <use style="fill-opacity:0;stroke:#000080;stroke-width:1.5;" x="100.192776" xlink:href="#m1d261c2a1d" y="259.935683"/>
     <use style="fill-opacity:0;stroke:#000080;stroke-width:1.5;" x="138.27329" xlink:href="#m1d261c2a1d" y="247.888997"/>
     <use style="fill-opacity:0;stroke:#000080;stroke-width:1.5;" x="218.295848" xlink:href="#m1d261c2a1d" y="247.315345"/>
     <use style="fill-opacity:0;stroke:#000080;stroke-width:1.5;" x="338.688" xlink:href="#m1d261c2a1d" y="247.315345"/>
    </g>
   </g>
   <g id="line2d_32">
    <path style="fill:none;stroke:#000080;stroke-linecap:square;stroke-width:1.5;"/>
    <g/>
   </g>
   <g id="line2d_33">
    <path clip-path="url(#pdb221c3e6a)" d="M 218.221889 247.888997 
" style="fill:none;stroke:#000080;stroke-linecap:square;stroke-width:1.5;"/>
    <defs>
     <path d="M -12 12 
L 12 -12 
M -12 -12 
L 12 12 
" id="md6bd6f73aa" style="stroke:#000080;"/>
    </defs>
    <g clip-path="url(#pdb221c3e6a)">
     <use style="fill:#000080;stroke:#000080;" x="218.221889" xlink:href="#md6bd6f73aa" y="247.888997"/>
    </g>
   </g>
   <g id="line2d_34">
    <defs>
     <path d="M 0 1.5 
C 0.397805 1.5 0.77937 1.341951 1.06066 1.06066 
C 1.341951 0.77937 1.5 0.397805 1.5 0 
C 1.5 -0.397805 1.341951 -0.77937 1.06066 -1.06066 
C 0.77937 -1.341951 0.397805 -1.5 0 -1.5 
C -0.397805 -1.5 -0.77937 -1.341951 -1.06066 -1.06066 
C -1.341951 -0.77937 -1.5 -0.397805 -1.5 0 
C -1.5 0.397805 -1.341951 0.77937 -1.06066 1.06066 
C -0.77937 1.341951 -0.397805 1.5 0 1.5 
z
" id="m562387fddc" style="stroke:#ff00ff;"/>
    </defs>
    <g>
     <use style="fill:#ff00ff;stroke:#ff00ff;" x="276.340344" xlink:href="#m562387fddc" y="6.381624"/>
     <use style="fill:#ff00ff;stroke:#ff00ff;" x="276.340344" xlink:href="#m562387fddc" y="6.381624"/>
    </g>
   </g>
   <g id="line2d_35">
    <path d="M 17.444571 298.944 
L 17.444571 291.486528 
L 29.53256 291.486528 
L 29.53256 290.912876 
L 48.691568 290.912876 
L 48.691568 290.339224 
L 62.175444 290.339224 
L 62.175444 289.765573 
L 65.796525 289.765573 
L 65.796525 288.618269 
L 72.125336 288.618269 
L 72.125336 288.044617 
L 78.941764 288.044617 
L 78.941764 286.897314 
L 81.775977 286.897314 
L 81.775977 286.323662 
L 84.588378 286.323662 
L 84.588378 285.75001 
L 85.315119 285.75001 
L 85.315119 285.176359 
L 88.553893 285.176359 
L 88.553893 284.602707 
L 89.418828 284.602707 
L 89.418828 283.455404 
L 90.242884 283.455404 
L 90.242884 282.3081 
L 91.029752 282.3081 
L 91.029752 281.734448 
L 92.969447 281.734448 
L 92.969447 281.160797 
L 95.326798 281.160797 
L 95.326798 280.587145 
L 96.110718 280.587145 
L 96.110718 280.013493 
L 96.301313 280.013493 
L 96.301313 279.439842 
L 96.489848 279.439842 
L 96.489848 278.86619 
L 96.676366 278.86619 
L 96.676366 277.718886 
L 97.224242 277.718886 
L 97.224242 277.145235 
L 97.928955 277.145235 
L 97.928955 276.571583 
L 98.270913 276.571583 
L 98.270913 275.997931 
L 102.859376 275.997931 
L 102.859376 275.42428 
L 104.23523 275.42428 
L 104.23523 274.850628 
L 104.942325 274.850628 
L 104.942325 274.276976 
L 105.621863 274.276976 
L 105.621863 273.703324 
L 106.382575 273.703324 
L 106.382575 273.129673 
L 107.514726 273.129673 
L 107.514726 272.556021 
L 108.102622 272.556021 
L 108.198707 271.408718 
L 108.764355 271.408718 
L 108.764355 270.835066 
L 109.040444 270.835066 
L 109.040444 270.261414 
L 109.222105 270.261414 
L 109.222105 269.687762 
L 110.274038 269.687762 
L 110.274038 269.114111 
L 111.266113 269.114111 
L 111.266113 268.540459 
L 111.584648 268.540459 
L 111.584648 267.966807 
L 111.897469 267.966807 
L 111.897469 267.393156 
L 112.204777 267.393156 
L 112.204777 266.819504 
L 112.356423 266.819504 
L 112.356423 266.245852 
L 112.803609 266.245852 
L 112.803609 265.6722 
L 114.216469 265.6722 
L 114.216469 265.098549 
L 115.141496 265.098549 
L 115.141496 264.524897 
L 115.958621 264.524897 
L 115.958621 263.951245 
L 118.094355 263.951245 
L 118.202674 262.803942 
L 118.734401 262.803942 
L 118.734401 262.23029 
L 119.602714 262.23029 
L 119.602714 261.656638 
L 119.751557 261.656638 
L 119.751557 261.082987 
L 119.948058 261.082987 
L 119.948058 260.509335 
L 122.40451 260.509335 
L 122.40451 259.935683 
L 122.531342 259.935683 
L 122.531342 259.362031 
L 122.823744 259.362031 
L 122.823744 258.214728 
L 123.354102 258.214728 
L 123.354102 256.493773 
L 125.183475 256.493773 
L 125.183475 255.920121 
L 125.506102 255.920121 
L 125.506102 255.346469 
L 125.717918 255.346469 
L 125.717918 254.772818 
L 126.202373 254.772818 
L 126.202373 253.625514 
L 126.439646 253.625514 
L 126.540355 250.757256 
L 126.97016 250.757256 
L 126.97016 250.183604 
L 127.923363 250.183604 
L 127.923363 249.036301 
L 128.168991 249.036301 
L 128.260216 247.888997 
L 129.204706 247.888997 
L 129.204706 247.315345 
L 129.630422 247.315345 
L 129.630422 246.168042 
L 130.344571 246.168042 
L 130.344571 245.59439 
L 131.210808 245.59439 
L 131.236397 244.447087 
L 131.465029 244.447087 
L 131.465029 243.873435 
L 131.640805 243.873435 
L 131.715598 242.726132 
L 131.962617 242.726132 
L 131.962617 242.15248 
L 132.470242 242.15248 
L 132.470242 241.578828 
L 133.307488 241.578828 
L 133.375477 239.857873 
L 133.600213 239.857873 
L 133.667073 238.71057 
L 134.257551 238.71057 
L 134.257551 238.136918 
L 134.513701 238.136918 
L 134.513701 237.563266 
L 134.682402 237.563266 
L 134.682402 236.989614 
L 135.178927 236.989614 
L 135.178927 236.415963 
L 135.341343 236.415963 
L 135.341343 235.842311 
L 135.50226 235.842311 
L 135.50226 234.695008 
L 135.701341 234.695008 
L 135.701341 234.121356 
L 135.898175 234.121356 
L 135.898175 233.547704 
L 136.092812 233.547704 
L 136.092812 232.400401 
L 137.034686 232.400401 
L 137.034686 231.826749 
L 137.180776 231.826749 
L 137.217107 230.679446 
L 137.61184 230.679446 
L 137.61184 230.105794 
L 137.805906 230.105794 
L 137.805906 229.532142 
L 138.101642 229.532142 
L 138.101642 227.811187 
L 138.290362 227.811187 
L 138.358484 226.663884 
L 139.204493 226.663884 
L 139.204493 226.090232 
L 139.588845 226.090232 
L 139.588845 225.51658 
L 139.715103 225.51658 
L 139.746525 224.369277 
L 140.011351 224.369277 
L 140.057671 223.221973 
L 140.180592 223.221973 
L 140.180592 222.648321 
L 140.363363 222.648321 
L 140.454035 220.927366 
L 140.812083 220.927366 
L 140.812083 220.353715 
L 140.944478 220.353715 
L 140.959126 218.632759 
L 141.335737 218.632759 
L 141.407239 217.485456 
L 141.676303 217.485456 
L 141.676303 216.911804 
L 142.432559 216.911804 
L 142.432559 215.190849 
L 142.818488 215.190849 
L 142.818488 214.617197 
L 143.208936 214.617197 
L 143.298796 212.322591 
L 143.666219 212.322591 
L 143.666219 211.748939 
L 143.791143 211.748939 
L 143.791143 210.601635 
L 218.232698 210.601635 
L 218.34371 185.934612 
L 218.345442 185.934612 
L 218.450751 167.577757 
L 218.456602 167.577757 
L 218.479986 164.709498 
L 230.326262 164.709498 
L 230.430746 136.026912 
L 230.439403 136.026912 
L 230.439403 135.45326 
L 237.391822 135.45326 
L 237.456072 110.212585 
L 242.406365 110.212585 
L 242.456841 90.708426 
L 246.296338 90.708426 
L 246.334472 75.793482 
L 249.474146 75.793482 
L 249.509558 61.452189 
L 252.16202 61.452189 
L 252.192031 52.273761 
L 254.495312 52.273761 
L 254.515388 41.374379 
L 256.543606 41.374379 
L 256.564265 32.769603 
L 258.384832 32.769603 
L 258.398946 28.180389 
L 260.04629 28.180389 
L 260.059993 24.738479 
L 261.563137 24.738479 
L 261.575408 18.42831 
L 262.958582 18.42831 
L 262.971023 15.560051 
L 264.247904 15.560051 
L 264.259483 12.691793 
L 265.453382 12.691793 
L 265.456845 11.544489 
L 266.58159 11.544489 
L 266.58159 10.970838 
L 267.635411 10.970838 
L 267.635411 10.397186 
L 269.575963 10.397186 
L 269.580964 9.249882 
L 270.475165 9.249882 
L 270.475165 8.676231 
L 271.322249 8.676231 
L 271.322249 8.102579 
L 275.701175 8.102579 
L 275.702124 6.955275 
L 276.340344 6.955275 
L 276.340344 6.381624 
L 338.688 6.381624 
L 338.688 6.381624 
" style="fill:none;stroke:#ff00ff;stroke-linecap:square;stroke-width:1.5;"/>
   </g>
   <g id="line2d_36">
    <defs>
     <path d="M -0 8.485281 
L 5.091169 0 
L 0 -8.485281 
L -5.091169 -0 
z
" id="me709257ed7" style="stroke:#ff00ff;stroke-linejoin:miter;stroke-width:1.5;"/>
    </defs>
    <g>
     <use style="fill-opacity:0;stroke:#ff00ff;stroke-linejoin:miter;stroke-width:1.5;" x="141.676303" xlink:href="#me709257ed7" y="217.485456"/>
     <use style="fill-opacity:0;stroke:#ff00ff;stroke-linejoin:miter;stroke-width:1.5;" x="143.791143" xlink:href="#me709257ed7" y="210.601635"/>
     <use style="fill-opacity:0;stroke:#ff00ff;stroke-linejoin:miter;stroke-width:1.5;" x="249.509558" xlink:href="#me709257ed7" y="62.02584"/>
     <use style="fill-opacity:0;stroke:#ff00ff;stroke-linejoin:miter;stroke-width:1.5;" x="276.340344" xlink:href="#me709257ed7" y="6.381624"/>
     <use style="fill-opacity:0;stroke:#ff00ff;stroke-linejoin:miter;stroke-width:1.5;" x="276.340344" xlink:href="#me709257ed7" y="6.381624"/>
     <use style="fill-opacity:0;stroke:#ff00ff;stroke-linejoin:miter;stroke-width:1.5;" x="338.688" xlink:href="#me709257ed7" y="6.381624"/>
    </g>
   </g>
   <g id="line2d_37">
    <path style="fill:none;stroke:#ff00ff;stroke-linecap:square;stroke-width:1.5;"/>
    <g/>
   </g>
   <g id="line2d_38">
    <path clip-path="url(#pdb221c3e6a)" d="M 218.221889 210.601635 
" style="fill:none;stroke:#ff00ff;stroke-linecap:square;stroke-width:1.5;"/>
    <defs>
     <path d="M -12 12 
L 12 -12 
M -12 -12 
L 12 12 
" id="m34d76cfb58" style="stroke:#ff00ff;"/>
    </defs>
    <g clip-path="url(#pdb221c3e6a)">
     <use style="fill:#ff00ff;stroke:#ff00ff;" x="218.221889" xlink:href="#m34d76cfb58" y="210.601635"/>
    </g>
   </g>
   <g id="line2d_39">
    <defs>
     <path d="M 0 1.5 
C 0.397805 1.5 0.77937 1.341951 1.06066 1.06066 
C 1.341951 0.77937 1.5 0.397805 1.5 0 
C 1.5 -0.397805 1.341951 -0.77937 1.06066 -1.06066 
C 0.77937 -1.341951 0.397805 -1.5 0 -1.5 
C -0.397805 -1.5 -0.77937 -1.341951 -1.06066 -1.06066 
C -1.341951 -0.77937 -1.5 -0.397805 -1.5 0 
C -1.5 0.397805 -1.341951 0.77937 -1.06066 1.06066 
C -0.77937 1.341951 -0.397805 1.5 0 1.5 
z
" id="m2385704d8b" style="stroke:#ff7500;"/>
    </defs>
    <g>
     <use style="fill:#ff7500;stroke:#ff7500;" x="281.671259" xlink:href="#m2385704d8b" y="6.381624"/>
     <use style="fill:#ff7500;stroke:#ff7500;" x="281.671259" xlink:href="#m2385704d8b" y="6.381624"/>
    </g>
   </g>
   <g id="line2d_40">
    <path d="M 17.444571 298.944 
L 17.444571 293.207483 
L 51.379845 293.207483 
L 51.379845 292.633831 
L 82.626842 292.633831 
L 82.626842 292.060179 
L 89.697862 292.060179 
L 89.697862 291.486528 
L 89.972502 291.486528 
L 89.972502 290.912876 
L 91.029752 290.912876 
L 91.029752 290.339224 
L 92.026554 290.339224 
L 92.026554 289.765573 
L 93.197415 289.765573 
L 93.197415 289.191921 
L 94.294587 289.191921 
L 94.294587 288.618269 
L 94.505975 288.618269 
L 94.505975 288.044617 
L 95.125186 288.044617 
L 95.125186 287.470966 
L 95.526106 287.470966 
L 95.526106 286.897314 
L 96.86091 286.897314 
L 96.86091 286.323662 
L 99.731799 286.323662 
L 99.731799 285.75001 
L 100.040467 285.75001 
L 100.040467 285.176359 
L 100.192776 285.176359 
L 100.192776 284.602707 
L 101.506816 284.602707 
L 101.506816 284.029055 
L 101.646892 284.029055 
L 101.646892 283.455404 
L 101.785851 283.455404 
L 101.785851 282.3081 
L 102.597126 282.3081 
L 102.597126 281.734448 
L 102.989037 281.734448 
L 102.989037 281.160797 
L 103.747386 281.160797 
L 103.747386 280.587145 
L 104.23523 280.587145 
L 104.23523 280.013493 
L 104.474128 280.013493 
L 104.474128 278.86619 
L 105.171792 278.86619 
L 105.171792 278.292538 
L 106.275913 278.292538 
L 106.275913 277.718886 
L 106.48859 277.718886 
L 106.48859 277.145235 
L 106.906317 277.145235 
L 106.906317 276.571583 
L 107.213174 276.571583 
L 107.213174 275.997931 
L 108.294265 275.997931 
L 108.294265 275.42428 
L 109.756002 275.42428 
L 109.756002 274.850628 
L 110.61104 274.850628 
L 110.61104 274.276976 
L 111.505558 274.276976 
L 111.505558 273.703324 
L 111.74176 273.703324 
L 111.74176 273.129673 
L 112.280765 273.129673 
L 112.356423 271.982369 
L 113.095487 271.982369 
L 113.095487 271.408718 
L 113.942906 271.408718 
L 113.942906 270.261414 
L 115.141496 270.261414 
L 115.141496 269.687762 
L 115.835374 269.687762 
L 115.835374 269.114111 
L 116.202531 269.114111 
L 116.202531 268.540459 
L 117.875678 268.540459 
L 117.875678 267.966807 
L 118.629344 267.966807 
L 118.629344 267.393156 
L 118.786692 267.393156 
L 118.786692 266.819504 
L 119.40226 266.819504 
L 119.40226 266.245852 
L 119.948058 266.245852 
L 119.948058 265.6722 
L 122.531342 265.6722 
L 122.531342 265.098549 
L 123.07053 265.098549 
L 123.07053 264.524897 
L 123.790603 264.524897 
L 123.790603 263.951245 
L 127.132689 263.951245 
L 127.132689 262.803942 
L 127.54831 262.803942 
L 127.54831 262.23029 
L 128.229861 262.23029 
L 128.229861 261.656638 
L 128.885774 261.656638 
L 128.885774 261.082987 
L 129.602362 261.082987 
L 129.602362 260.509335 
L 130.236587 260.509335 
L 130.236587 259.935683 
L 131.133813 259.935683 
L 131.133813 259.362031 
L 131.962617 259.362031 
L 131.962617 258.78838 
L 132.847322 258.78838 
L 132.847322 258.214728 
L 135.956794 258.214728 
L 135.956794 257.641076 
L 138.728473 257.641076 
L 138.728473 257.067425 
L 139.058148 257.067425 
L 139.058148 256.493773 
L 139.933878 256.493773 
L 139.933878 255.920121 
L 141.788363 255.920121 
L 141.788363 255.346469 
L 142.805321 255.346469 
L 142.805321 254.772818 
L 144.294175 254.772818 
L 144.294175 254.199166 
L 147.499916 254.199166 
L 147.499916 253.625514 
L 147.96658 253.625514 
L 147.96658 253.051863 
L 148.190475 253.051863 
L 148.190475 252.478211 
L 148.411533 252.478211 
L 148.411533 251.904559 
L 149.619812 251.904559 
L 149.619812 251.330907 
L 150.352736 251.330907 
L 150.352736 250.757256 
L 150.54816 250.757256 
L 150.54816 250.183604 
L 150.990318 250.183604 
L 150.990318 249.609952 
L 151.340991 249.609952 
L 151.340991 249.036301 
L 151.589498 249.036301 
L 151.589498 248.462649 
L 151.818809 248.462649 
L 151.920633 247.315345 
L 151.944047 247.315345 
L 151.944047 246.741694 
L 152.443774 246.741694 
L 152.443774 246.168042 
L 152.959038 246.168042 
L 152.959038 245.59439 
L 153.112882 245.59439 
L 153.112882 245.020738 
L 153.25815 245.020738 
L 153.25815 244.447087 
L 153.473807 244.447087 
L 153.473807 243.873435 
L 153.686831 243.873435 
L 153.686831 243.299783 
L 153.883332 243.299783 
L 153.883332 242.15248 
L 154.105226 242.15248 
L 154.173993 241.005176 
L 154.310719 241.005176 
L 154.378682 239.284221 
L 154.513818 239.284221 
L 154.580996 238.136918 
L 154.866947 238.136918 
L 154.866947 237.563266 
L 155.16126 237.563266 
L 155.271165 236.415963 
L 155.488919 236.415963 
L 155.488919 235.842311 
L 155.672525 235.842311 
L 155.672525 234.695008 
L 156.580579 234.695008 
L 156.580579 233.547704 
L 156.723476 233.547704 
L 156.723476 232.974052 
L 156.953214 232.974052 
L 156.953214 232.400401 
L 157.540141 232.400401 
L 157.540141 231.826749 
L 157.692253 231.826749 
L 157.692253 231.253097 
L 158.217157 231.253097 
L 158.217157 230.679446 
L 218.239319 230.679446 
L 218.339727 220.927366 
L 218.351848 220.927366 
L 218.429223 215.190849 
L 218.495959 215.190849 
L 218.60702 207.159725 
L 218.607532 207.159725 
L 218.707035 192.24478 
L 218.723309 192.24478 
L 218.771873 188.229218 
L 230.343937 188.229218 
L 230.447451 178.477139 
L 230.473385 178.477139 
L 230.576564 158.972981 
L 237.393042 158.972981 
L 237.498273 145.20534 
L 237.506009 145.20534 
L 237.566159 129.143091 
L 242.404273 129.143091 
L 242.509164 118.817361 
L 242.516916 118.817361 
L 242.525618 115.37545 
L 246.294455 115.37545 
L 246.397429 98.165899 
L 249.497317 98.165899 
L 249.55517 86.692864 
L 252.162643 86.692864 
L 252.234446 74.072526 
L 254.496532 74.072526 
L 254.550694 63.746796 
L 256.554393 63.746796 
L 256.5968 56.289323 
L 258.394382 56.289323 
L 258.429209 48.258199 
L 260.046226 48.258199 
L 260.079538 44.242637 
L 261.582041 44.242637 
L 261.600302 38.50612 
L 262.97945 38.50612 
L 262.995689 35.637861 
L 264.255736 35.637861 
L 264.285016 29.901344 
L 265.456601 29.901344 
L 265.4805 26.459434 
L 266.579183 26.459434 
L 266.598904 24.738479 
L 267.652796 24.738479 
L 267.657037 23.591175 
L 268.635885 23.591175 
L 268.651431 20.149265 
L 269.598228 20.149265 
L 269.598228 19.575613 
L 270.47031 19.575613 
L 270.489433 16.707355 
L 271.323228 16.707355 
L 271.342758 14.412748 
L 272.133985 14.412748 
L 272.145036 12.691793 
L 273.657792 12.691793 
L 273.659251 11.544489 
L 274.377105 11.544489 
L 274.377105 10.970838 
L 275.05678 10.970838 
L 275.05678 10.397186 
L 275.710556 10.397186 
L 275.710556 9.823534 
L 276.951408 9.823534 
L 276.951408 9.249882 
L 277.55371 9.249882 
L 277.55371 8.676231 
L 278.120478 8.676231 
L 278.120478 8.102579 
L 279.728326 8.102579 
L 279.728326 7.528927 
L 280.235148 7.528927 
L 280.235148 6.955275 
L 281.671259 6.955275 
L 281.671259 6.381624 
L 338.688 6.381624 
L 338.688 6.381624 
" style="fill:none;stroke:#ff7500;stroke-linecap:square;stroke-width:1.5;"/>
   </g>
   <g id="line2d_41">
    <defs>
     <path d="M 0 -6 
L -1.347084 -1.854102 
L -5.706339 -1.854102 
L -2.179628 0.708204 
L -3.526712 4.854102 
L -0 2.291796 
L 3.526712 4.854102 
L 2.179628 0.708204 
L 5.706339 -1.854102 
L 1.347084 -1.854102 
z
" id="m63ed637b01" style="stroke:#ff7500;stroke-linejoin:bevel;stroke-width:1.5;"/>
    </defs>
    <g>
     <use style="fill-opacity:0;stroke:#ff7500;stroke-linejoin:bevel;stroke-width:1.5;" x="131.962617" xlink:href="#m63ed637b01" y="258.78838"/>
     <use style="fill-opacity:0;stroke:#ff7500;stroke-linejoin:bevel;stroke-width:1.5;" x="218.52152" xlink:href="#m63ed637b01" y="214.617197"/>
     <use style="fill-opacity:0;stroke:#ff7500;stroke-linejoin:bevel;stroke-width:1.5;" x="252.234446" xlink:href="#m63ed637b01" y="74.072526"/>
     <use style="fill-opacity:0;stroke:#ff7500;stroke-linejoin:bevel;stroke-width:1.5;" x="281.671259" xlink:href="#m63ed637b01" y="6.955275"/>
     <use style="fill-opacity:0;stroke:#ff7500;stroke-linejoin:bevel;stroke-width:1.5;" x="281.671259" xlink:href="#m63ed637b01" y="6.381624"/>
     <use style="fill-opacity:0;stroke:#ff7500;stroke-linejoin:bevel;stroke-width:1.5;" x="338.688" xlink:href="#m63ed637b01" y="6.381624"/>
    </g>
   </g>
   <g id="line2d_42">
    <path style="fill:none;stroke:#ff7500;stroke-linecap:square;stroke-width:1.5;"/>
    <g/>
   </g>
   <g id="line2d_43">
    <path clip-path="url(#pdb221c3e6a)" d="M 218.221889 230.679446 
" style="fill:none;stroke:#ff7500;stroke-linecap:square;stroke-width:1.5;"/>
    <defs>
     <path d="M -12 12 
L 12 -12 
M -12 -12 
L 12 12 
" id="m513f9131d4" style="stroke:#ff7500;"/>
    </defs>
    <g clip-path="url(#pdb221c3e6a)">
     <use style="fill:#ff7500;stroke:#ff7500;" x="218.221889" xlink:href="#m513f9131d4" y="230.679446"/>
    </g>
   </g>
   <g id="line2d_44">
    <defs>
     <path d="M 0 1.5 
C 0.397805 1.5 0.77937 1.341951 1.06066 1.06066 
C 1.341951 0.77937 1.5 0.397805 1.5 0 
C 1.5 -0.397805 1.341951 -0.77937 1.06066 -1.06066 
C 0.77937 -1.341951 0.397805 -1.5 0 -1.5 
C -0.397805 -1.5 -0.77937 -1.341951 -1.06066 -1.06066 
C -1.341951 -0.77937 -1.5 -0.397805 -1.5 0 
C -1.5 0.397805 -1.341951 0.77937 -1.06066 1.06066 
C -0.77937 1.341951 -0.397805 1.5 0 1.5 
z
" id="m329a1874f1" style="stroke:#6495ed;"/>
    </defs>
    <g>
     <use style="fill:#6495ed;stroke:#6495ed;" x="295.701881" xlink:href="#m329a1874f1" y="195.686691"/>
     <use style="fill:#6495ed;stroke:#6495ed;" x="295.701881" xlink:href="#m329a1874f1" y="195.686691"/>
    </g>
   </g>
   <g id="line2d_45">
    <path d="M 17.444571 298.944 
L 17.444571 273.129673 
L 29.53256 273.129673 
L 29.53256 269.114111 
L 36.60358 269.114111 
L 36.60358 266.819504 
L 41.620548 266.819504 
L 41.620548 265.6722 
L 45.512012 265.6722 
L 45.512012 265.098549 
L 48.691568 265.098549 
L 48.691568 262.803942 
L 55.762588 262.803942 
L 55.762588 261.656638 
L 59.262141 261.656638 
L 59.262141 261.082987 
L 67.850577 261.082987 
L 67.850577 260.509335 
L 79.447285 260.509335 
L 79.447285 259.935683 
L 80.416384 259.935683 
L 80.416384 259.362031 
L 86.012784 259.362031 
L 86.012784 258.78838 
L 87.643811 258.78838 
L 87.643811 258.214728 
L 100.040467 258.214728 
L 100.040467 257.641076 
L 100.641881 257.641076 
L 100.641881 255.920121 
L 112.280765 255.920121 
L 112.280765 255.346469 
L 116.262979 255.346469 
L 116.262979 254.772818 
L 118.942633 254.772818 
L 118.942633 253.625514 
L 120.852343 253.625514 
L 120.852343 253.051863 
L 123.829748 253.051863 
L 123.829748 252.478211 
L 125.255688 252.478211 
L 125.255688 251.904559 
L 125.470548 251.904559 
L 125.470548 251.330907 
L 128.856489 251.330907 
L 128.856489 250.757256 
L 131.765283 250.757256 
L 131.765283 249.609952 
L 134.300504 249.609952 
L 134.300504 249.036301 
L 134.47127 249.036301 
L 134.47127 248.462649 
L 134.870259 248.462649 
L 134.870259 247.888997 
L 135.097149 247.888997 
L 135.097149 246.741694 
L 135.300881 246.741694 
L 135.300881 246.168042 
L 135.44209 246.168042 
L 135.44209 245.59439 
L 136.323544 245.59439 
L 136.323544 245.020738 
L 136.79465 245.020738 
L 136.79465 244.447087 
L 137.126135 244.447087 
L 137.162581 243.299783 
L 137.451437 243.299783 
L 137.451437 242.726132 
L 137.576323 242.726132 
L 137.576323 242.15248 
L 137.805906 242.15248 
L 137.910857 241.005176 
L 138.927025 241.005176 
L 138.927025 240.431525 
L 139.429726 240.431525 
L 139.429726 239.857873 
L 139.69937 239.857873 
L 139.69937 239.284221 
L 139.902792 239.284221 
L 139.902792 238.71057 
L 140.026805 238.71057 
L 140.026805 238.136918 
L 140.363363 238.136918 
L 140.363363 237.563266 
L 140.812083 237.563266 
L 140.812083 236.415963 
L 141.830201 236.415963 
L 141.830201 235.842311 
L 142.024126 235.842311 
L 142.092866 234.121356 
L 143.666219 234.121356 
L 143.666219 233.547704 
L 143.976867 233.547704 
L 144.038338 232.400401 
L 144.209312 232.400401 
L 144.282077 231.253097 
L 145.016721 231.253097 
L 145.016721 230.679446 
L 146.334784 230.679446 
L 146.334784 230.105794 
L 146.452726 230.105794 
L 146.452726 229.532142 
L 147.680117 229.532142 
L 147.680117 228.95849 
L 147.818997 228.95849 
L 147.818997 228.384839 
L 149.619812 228.384839 
L 149.619812 227.811187 
L 218.371397 227.811187 
L 218.462795 225.51658 
L 218.498877 225.51658 
L 218.524605 224.369277 
L 230.407871 224.369277 
L 230.451776 220.353715 
L 237.455725 220.353715 
L 237.475509 217.485456 
L 237.742814 217.485456 
L 237.742814 216.911804 
L 246.334264 216.911804 
L 246.35078 215.190849 
L 252.188798 215.190849 
L 252.192528 211.175287 
L 256.566935 211.175287 
L 256.574072 209.454332 
L 260.067418 209.454332 
L 260.067418 208.88068 
L 266.591621 208.88068 
L 266.591621 208.307029 
L 267.647826 208.307029 
L 267.647826 207.159725 
L 268.641414 207.159725 
L 268.643698 206.012422 
L 269.583596 206.012422 
L 269.583596 204.865118 
L 270.477692 204.865118 
L 270.477692 204.291467 
L 271.330706 204.291467 
L 271.330822 203.144163 
L 272.916031 203.144163 
L 272.916031 201.99686 
L 275.051693 201.99686 
L 275.051693 201.423208 
L 275.707928 201.423208 
L 275.707928 200.849556 
L 277.546583 200.849556 
L 277.546583 200.275904 
L 280.233395 200.275904 
L 280.233395 199.128601 
L 280.722765 199.128601 
L 280.722765 198.554949 
L 281.666264 198.554949 
L 281.666264 197.981298 
L 282.989959 197.981298 
L 282.989959 197.407646 
L 288.42621 197.407646 
L 288.42621 196.833994 
L 288.734143 196.833994 
L 288.734143 196.260342 
L 295.701881 196.260342 
L 295.701881 195.686691 
L 338.688 195.686691 
L 338.688 195.686691 
" style="fill:none;stroke:#6495ed;stroke-linecap:square;stroke-width:1.5;"/>
   </g>
   <g id="line2d_46">
    <defs>
     <path d="M -0 6 
L 6 -6 
L -6 -6 
z
" id="m6164e84c96" style="stroke:#6495ed;stroke-linejoin:miter;stroke-width:1.5;"/>
    </defs>
    <g>
     <use style="fill-opacity:0;stroke:#6495ed;stroke-linejoin:miter;stroke-width:1.5;" x="87.643811" xlink:href="#m6164e84c96" y="258.78838"/>
     <use style="fill-opacity:0;stroke:#6495ed;stroke-linejoin:miter;stroke-width:1.5;" x="149.619812" xlink:href="#m6164e84c96" y="228.384839"/>
     <use style="fill-opacity:0;stroke:#6495ed;stroke-linejoin:miter;stroke-width:1.5;" x="230.420352" xlink:href="#m6164e84c96" y="223.795625"/>
     <use style="fill-opacity:0;stroke:#6495ed;stroke-linejoin:miter;stroke-width:1.5;" x="295.701881" xlink:href="#m6164e84c96" y="196.260342"/>
     <use style="fill-opacity:0;stroke:#6495ed;stroke-linejoin:miter;stroke-width:1.5;" x="295.701881" xlink:href="#m6164e84c96" y="195.686691"/>
     <use style="fill-opacity:0;stroke:#6495ed;stroke-linejoin:miter;stroke-width:1.5;" x="338.688" xlink:href="#m6164e84c96" y="195.686691"/>
    </g>
   </g>
   <g id="line2d_47">
    <path style="fill:none;stroke:#6495ed;stroke-linecap:square;stroke-width:1.5;"/>
    <g/>
   </g>
   <g id="line2d_48">
    <path clip-path="url(#pdb221c3e6a)" d="M 218.221889 227.811187 
" style="fill:none;stroke:#6495ed;stroke-linecap:square;stroke-width:1.5;"/>
    <defs>
     <path d="M -12 12 
L 12 -12 
M -12 -12 
L 12 12 
" id="m7c8867b4c4" style="stroke:#6495ed;"/>
    </defs>
    <g clip-path="url(#pdb221c3e6a)">
     <use style="fill:#6495ed;stroke:#6495ed;" x="218.221889" xlink:href="#m7c8867b4c4" y="227.811187"/>
    </g>
   </g>
   <g id="line2d_49">
    <defs>
     <path d="M 0 1.5 
C 0.397805 1.5 0.77937 1.341951 1.06066 1.06066 
C 1.341951 0.77937 1.5 0.397805 1.5 0 
C 1.5 -0.397805 1.341951 -0.77937 1.06066 -1.06066 
C 0.77937 -1.341951 0.397805 -1.5 0 -1.5 
C -0.397805 -1.5 -0.77937 -1.341951 -1.06066 -1.06066 
C -1.341951 -0.77937 -1.5 -0.397805 -1.5 0 
C -1.5 0.397805 -1.341951 0.77937 -1.06066 1.06066 
C -0.77937 1.341951 -0.397805 1.5 0 1.5 
z
" id="mf70744d512" style="stroke:#ff0000;"/>
    </defs>
    <g>
     <use style="fill:#ff0000;stroke:#ff0000;" x="272.915167" xlink:href="#mf70744d512" y="270.261414"/>
     <use style="fill:#ff0000;stroke:#ff0000;" x="272.915167" xlink:href="#mf70744d512" y="270.261414"/>
    </g>
   </g>
   <g id="line2d_50">
    <path d="M 73.579452 298.944 
L 73.579452 298.370348 
L 83.830028 298.370348 
L 83.830028 297.796697 
L 85.66744 297.796697 
L 85.66744 297.223045 
L 88.846997 297.223045 
L 88.846997 296.649393 
L 96.489848 296.649393 
L 96.489848 296.075741 
L 99.731799 296.075741 
L 99.731799 295.50209 
L 105.285403 295.50209 
L 105.285403 294.928438 
L 107.009204 294.928438 
L 107.009204 294.354786 
L 108.294265 294.354786 
L 108.294265 293.781135 
L 111.185562 293.781135 
L 111.185562 293.207483 
L 112.128456 293.207483 
L 112.128456 292.633831 
L 114.882171 292.633831 
L 114.882171 292.060179 
L 135.721125 292.060179 
L 135.721125 291.486528 
L 137.753193 291.486528 
L 137.753193 290.912876 
L 137.928288 290.912876 
L 137.928288 290.339224 
L 138.443265 290.339224 
L 138.443265 289.765573 
L 138.778323 289.765573 
L 138.778323 289.191921 
L 139.269142 289.191921 
L 139.269142 288.618269 
L 140.693549 288.618269 
L 140.693549 288.044617 
L 141.634094 288.044617 
L 141.634094 287.470966 
L 142.765762 287.470966 
L 142.765762 286.897314 
L 143.976867 286.897314 
L 143.976867 286.323662 
L 144.676946 286.323662 
L 144.676946 285.75001 
L 147.838747 285.75001 
L 147.838747 285.176359 
L 218.357732 285.176359 
L 218.357732 284.602707 
L 218.436459 284.602707 
L 218.436459 284.029055 
L 218.467094 284.029055 
L 218.467094 283.455404 
L 230.399545 283.455404 
L 230.399545 282.3081 
L 230.447797 282.3081 
L 230.447797 281.734448 
L 230.453246 281.734448 
L 230.453246 281.160797 
L 237.436323 281.160797 
L 237.436323 280.587145 
L 237.443623 280.587145 
L 237.443623 280.013493 
L 237.476607 280.013493 
L 237.476607 279.439842 
L 242.431926 279.439842 
L 242.431926 278.86619 
L 242.439452 278.86619 
L 242.439452 278.292538 
L 242.466962 278.292538 
L 242.466962 277.718886 
L 242.469697 277.718886 
L 242.469697 277.145235 
L 246.316582 277.145235 
L 246.316582 276.571583 
L 246.332455 276.571583 
L 246.332455 275.997931 
L 249.504831 275.997931 
L 249.504831 275.42428 
L 249.516806 275.42428 
L 249.516806 274.850628 
L 252.198246 274.850628 
L 252.198246 274.276976 
L 254.50666 274.276976 
L 254.50666 273.129673 
L 256.558401 273.129673 
L 256.558401 272.556021 
L 258.398894 272.556021 
L 258.398894 271.982369 
L 260.064616 271.982369 
L 260.064616 271.408718 
L 272.91469 271.408718 
L 272.91469 270.835066 
L 272.915167 270.835066 
L 272.915167 270.261414 
L 338.688 270.261414 
" style="fill:none;stroke:#ff0000;stroke-linecap:square;stroke-width:1.5;"/>
   </g>
   <g id="line2d_51">
    <defs>
     <path d="M 0 -6 
L -5.196152 -3 
L -5.196152 3 
L -0 6 
L 5.196152 3 
L 5.196152 -3 
z
" id="m2985442bc1" style="stroke:#ff0000;stroke-linejoin:miter;stroke-width:1.5;"/>
    </defs>
    <g>
     <use style="fill-opacity:0;stroke:#ff0000;stroke-linejoin:miter;stroke-width:1.5;" x="147.838747" xlink:href="#m2985442bc1" y="285.176359"/>
     <use style="fill-opacity:0;stroke:#ff0000;stroke-linejoin:miter;stroke-width:1.5;" x="242.469697" xlink:href="#m2985442bc1" y="277.145235"/>
     <use style="fill-opacity:0;stroke:#ff0000;stroke-linejoin:miter;stroke-width:1.5;" x="272.915167" xlink:href="#m2985442bc1" y="270.261414"/>
     <use style="fill-opacity:0;stroke:#ff0000;stroke-linejoin:miter;stroke-width:1.5;" x="272.915167" xlink:href="#m2985442bc1" y="270.261414"/>
     <use style="fill-opacity:0;stroke:#ff0000;stroke-linejoin:miter;stroke-width:1.5;" x="338.688" xlink:href="#m2985442bc1" y="270.261414"/>
    </g>
   </g>
   <g id="line2d_52">
    <path style="fill:none;stroke:#ff0000;stroke-linecap:square;stroke-width:1.5;"/>
    <g/>
   </g>
   <g id="line2d_53">
    <path clip-path="url(#pdb221c3e6a)" d="M 218.221889 285.176359 
" style="fill:none;stroke:#ff0000;stroke-linecap:square;stroke-width:1.5;"/>
    <defs>
     <path d="M -12 12 
L 12 -12 
M -12 -12 
L 12 12 
" id="m8b93763f78" style="stroke:#ff0000;"/>
    </defs>
    <g clip-path="url(#pdb221c3e6a)">
     <use style="fill:#ff0000;stroke:#ff0000;" x="218.221889" xlink:href="#m8b93763f78" y="285.176359"/>
    </g>
   </g>
   <g id="line2d_54">
    <path d="M 338.688 270.261414 
L 369.60768 293.092752 
" style="fill:none;stroke:#ff0000;stroke-linecap:square;stroke-width:1.5;"/>
    <g>
     <use style="fill-opacity:0;stroke:#ff0000;stroke-linejoin:miter;stroke-width:1.5;" x="338.688" xlink:href="#m2985442bc1" y="270.261414"/>
     <use style="fill-opacity:0;stroke:#ff0000;stroke-linejoin:miter;stroke-width:1.5;" x="369.60768" xlink:href="#m2985442bc1" y="293.092752"/>
    </g>
   </g>
   <g id="line2d_55">
    <path d="M 338.688 247.315345 
L 369.60768 222.877782 
" style="fill:none;stroke:#000080;stroke-linecap:square;stroke-width:1.5;"/>
    <g>
     <use style="fill-opacity:0;stroke:#000080;stroke-width:1.5;" x="338.688" xlink:href="#m1d261c2a1d" y="247.315345"/>
     <use style="fill-opacity:0;stroke:#000080;stroke-width:1.5;" x="369.60768" xlink:href="#m1d261c2a1d" y="222.877782"/>
    </g>
   </g>
   <g id="line2d_56">
    <path d="M 338.688 195.686691 
L 369.60768 152.662812 
" style="fill:none;stroke:#6495ed;stroke-linecap:square;stroke-width:1.5;"/>
    <g>
     <use style="fill-opacity:0;stroke:#6495ed;stroke-linejoin:miter;stroke-width:1.5;" x="338.688" xlink:href="#m6164e84c96" y="195.686691"/>
     <use style="fill-opacity:0;stroke:#6495ed;stroke-linejoin:miter;stroke-width:1.5;" x="369.60768" xlink:href="#m6164e84c96" y="152.662812"/>
    </g>
   </g>
   <g id="line2d_57">
    <path d="M 338.688 6.381624 
L 369.60768 82.447842 
" style="fill:none;stroke:#ff7500;stroke-linecap:square;stroke-width:1.5;"/>
    <g>
     <use style="fill-opacity:0;stroke:#ff7500;stroke-linejoin:bevel;stroke-width:1.5;" x="338.688" xlink:href="#m63ed637b01" y="6.381624"/>
     <use style="fill-opacity:0;stroke:#ff7500;stroke-linejoin:bevel;stroke-width:1.5;" x="369.60768" xlink:href="#m63ed637b01" y="82.447842"/>
    </g>
   </g>
   <g id="line2d_58">
    <path d="M 338.688 6.381624 
L 369.60768 12.232871 
" style="fill:none;stroke:#ff00ff;stroke-linecap:square;stroke-width:1.5;"/>
    <g>
     <use style="fill-opacity:0;stroke:#ff00ff;stroke-linejoin:miter;stroke-width:1.5;" x="338.688" xlink:href="#me709257ed7" y="6.381624"/>
     <use style="fill-opacity:0;stroke:#ff00ff;stroke-linejoin:miter;stroke-width:1.5;" x="369.60768" xlink:href="#me709257ed7" y="12.232871"/>
    </g>
   </g>
   <g id="line2d_59">
    <path d="M 338.688 298.944 
L 338.688 6.381624 
" style="fill:none;stroke:#000000;stroke-linecap:square;stroke-width:1.5;"/>
   </g>
   <g id="patch_3">
    <path d="M 57.6 298.944 
L 57.6 3.456 
" style="fill:none;stroke:#000000;stroke-linecap:square;stroke-linejoin:miter;stroke-width:0.8;"/>
   </g>
   <g id="patch_4">
    <path d="M 338.688 298.944 
L 338.688 3.456 
" style="fill:none;stroke:#000000;stroke-linecap:square;stroke-linejoin:miter;stroke-width:0.8;"/>
   </g>
   <g id="patch_5">
    <path d="M 57.6 298.944 
L 338.688 298.944 
" style="fill:none;stroke:#000000;stroke-linecap:square;stroke-linejoin:miter;stroke-width:0.8;"/>
   </g>
   <g id="patch_6">
    <path d="M 57.6 3.456 
L 338.688 3.456 
" style="fill:none;stroke:#000000;stroke-linecap:square;stroke-linejoin:miter;stroke-width:0.8;"/>
   </g>
   <g id="text_13">
    <!-- f24 -->
    <g transform="translate(375.22944 297.78369)scale(0.17 -0.17)">
     <use xlink:href="#DejaVuSans-102"/>
     <use x="35.205078" xlink:href="#DejaVuSans-50"/>
     <use x="98.828125" xlink:href="#DejaVuSans-52"/>
    </g>
   </g>
   <g id="text_14">
    <!-- f20 -->
    <g transform="translate(375.22944 227.56872)scale(0.17 -0.17)">
     <use xlink:href="#DejaVuSans-102"/>
     <use x="35.205078" xlink:href="#DejaVuSans-50"/>
     <use x="98.828125" xlink:href="#DejaVuSans-48"/>
    </g>
   </g>
   <g id="text_15">
    <!-- f23 -->
    <g transform="translate(375.22944 157.353749)scale(0.17 -0.17)">
     <defs>
      <path d="M 40.578125 39.3125 
Q 47.65625 37.796875 51.625 33 
Q 55.609375 28.21875 55.609375 21.1875 
Q 55.609375 10.40625 48.1875 4.484375 
Q 40.765625 -1.421875 27.09375 -1.421875 
Q 22.515625 -1.421875 17.65625 -0.515625 
Q 12.796875 0.390625 7.625 2.203125 
L 7.625 11.71875 
Q 11.71875 9.328125 16.59375 8.109375 
Q 21.484375 6.890625 26.8125 6.890625 
Q 36.078125 6.890625 40.9375 10.546875 
Q 45.796875 14.203125 45.796875 21.1875 
Q 45.796875 27.640625 41.28125 31.265625 
Q 36.765625 34.90625 28.71875 34.90625 
L 20.21875 34.90625 
L 20.21875 43.015625 
L 29.109375 43.015625 
Q 36.375 43.015625 40.234375 45.921875 
Q 44.09375 48.828125 44.09375 54.296875 
Q 44.09375 59.90625 40.109375 62.90625 
Q 36.140625 65.921875 28.71875 65.921875 
Q 24.65625 65.921875 20.015625 65.03125 
Q 15.375 64.15625 9.8125 62.3125 
L 9.8125 71.09375 
Q 15.4375 72.65625 20.34375 73.4375 
Q 25.25 74.21875 29.59375 74.21875 
Q 40.828125 74.21875 47.359375 69.109375 
Q 53.90625 64.015625 53.90625 55.328125 
Q 53.90625 49.265625 50.4375 45.09375 
Q 46.96875 40.921875 40.578125 39.3125 
z
" id="DejaVuSans-51"/>
     </defs>
     <use xlink:href="#DejaVuSans-102"/>
     <use x="35.205078" xlink:href="#DejaVuSans-50"/>
     <use x="98.828125" xlink:href="#DejaVuSans-51"/>
    </g>
   </g>
   <g id="text_16">
    <!-- f22 -->
    <g transform="translate(375.22944 87.138779)scale(0.17 -0.17)">
     <use xlink:href="#DejaVuSans-102"/>
     <use x="35.205078" xlink:href="#DejaVuSans-50"/>
     <use x="98.828125" xlink:href="#DejaVuSans-50"/>
    </g>
   </g>
   <g id="text_17">
    <!-- f21 -->
    <g transform="translate(375.22944 16.923809)scale(0.17 -0.17)">
     <use xlink:href="#DejaVuSans-102"/>
     <use x="35.205078" xlink:href="#DejaVuSans-50"/>
     <use x="98.828125" xlink:href="#DejaVuSans-49"/>
    </g>
   </g>
   <g id="text_18">
    <!-- bbob -->
    <g transform="translate(60.41088 14.161286)scale(0.102 -0.102)">
     <defs>
      <path d="M 48.6875 27.296875 
Q 48.6875 37.203125 44.609375 42.84375 
Q 40.53125 48.484375 33.40625 48.484375 
Q 26.265625 48.484375 22.1875 42.84375 
Q 18.109375 37.203125 18.109375 27.296875 
Q 18.109375 17.390625 22.1875 11.75 
Q 26.265625 6.109375 33.40625 6.109375 
Q 40.53125 6.109375 44.609375 11.75 
Q 48.6875 17.390625 48.6875 27.296875 
z
M 18.109375 46.390625 
Q 20.953125 51.265625 25.265625 53.625 
Q 29.59375 56 35.59375 56 
Q 45.5625 56 51.78125 48.09375 
Q 58.015625 40.1875 58.015625 27.296875 
Q 58.015625 14.40625 51.78125 6.484375 
Q 45.5625 -1.421875 35.59375 -1.421875 
Q 29.59375 -1.421875 25.265625 0.953125 
Q 20.953125 3.328125 18.109375 8.203125 
L 18.109375 0 
L 9.078125 0 
L 9.078125 75.984375 
L 18.109375 75.984375 
z
" id="DejaVuSans-98"/>
     </defs>
     <use xlink:href="#DejaVuSans-98"/>
     <use x="63.476562" xlink:href="#DejaVuSans-98"/>
     <use x="126.953125" xlink:href="#DejaVuSans-111"/>
     <use x="188.134766" xlink:href="#DejaVuSans-98"/>
    </g>
    <!-- Weak structure functions, 10-D -->
    <g transform="translate(60.41088 25.583055)scale(0.102 -0.102)">
     <defs>
      <path d="M 3.328125 72.90625 
L 13.28125 72.90625 
L 28.609375 11.28125 
L 43.890625 72.90625 
L 54.984375 72.90625 
L 70.3125 11.28125 
L 85.59375 72.90625 
L 95.609375 72.90625 
L 77.296875 0 
L 64.890625 0 
L 49.515625 63.28125 
L 33.984375 0 
L 21.578125 0 
z
" id="DejaVuSans-87"/>
      <path d="M 9.078125 75.984375 
L 18.109375 75.984375 
L 18.109375 31.109375 
L 44.921875 54.6875 
L 56.390625 54.6875 
L 27.390625 29.109375 
L 57.625 0 
L 45.90625 0 
L 18.109375 26.703125 
L 18.109375 0 
L 9.078125 0 
z
" id="DejaVuSans-107"/>
      <path d="M 19.671875 64.796875 
L 19.671875 8.109375 
L 31.59375 8.109375 
Q 46.6875 8.109375 53.6875 14.9375 
Q 60.6875 21.78125 60.6875 36.53125 
Q 60.6875 51.171875 53.6875 57.984375 
Q 46.6875 64.796875 31.59375 64.796875 
z
M 9.8125 72.90625 
L 30.078125 72.90625 
Q 51.265625 72.90625 61.171875 64.09375 
Q 71.09375 55.28125 71.09375 36.53125 
Q 71.09375 17.671875 61.125 8.828125 
Q 51.171875 0 30.078125 0 
L 9.8125 0 
z
" id="DejaVuSans-68"/>
     </defs>
     <use xlink:href="#DejaVuSans-87"/>
     <use x="93.001953" xlink:href="#DejaVuSans-101"/>
     <use x="154.525391" xlink:href="#DejaVuSans-97"/>
     <use x="215.804688" xlink:href="#DejaVuSans-107"/>
     <use x="273.714844" xlink:href="#DejaVuSans-32"/>
     <use x="305.501953" xlink:href="#DejaVuSans-115"/>
     <use x="357.601562" xlink:href="#DejaVuSans-116"/>
     <use x="396.810547" xlink:href="#DejaVuSans-114"/>
     <use x="437.923828" xlink:href="#DejaVuSans-117"/>
     <use x="501.302734" xlink:href="#DejaVuSans-99"/>
     <use x="556.283203" xlink:href="#DejaVuSans-116"/>
     <use x="595.492188" xlink:href="#DejaVuSans-117"/>
     <use x="658.871094" xlink:href="#DejaVuSans-114"/>
     <use x="697.734375" xlink:href="#DejaVuSans-101"/>
     <use x="759.257812" xlink:href="#DejaVuSans-32"/>
     <use x="791.044922" xlink:href="#DejaVuSans-102"/>
     <use x="826.25" xlink:href="#DejaVuSans-117"/>
     <use x="889.628906" xlink:href="#DejaVuSans-110"/>
     <use x="953.007812" xlink:href="#DejaVuSans-99"/>
     <use x="1007.988281" xlink:href="#DejaVuSans-116"/>
     <use x="1047.197266" xlink:href="#DejaVuSans-105"/>
     <use x="1074.980469" xlink:href="#DejaVuSans-111"/>
     <use x="1136.162109" xlink:href="#DejaVuSans-110"/>
     <use x="1199.541016" xlink:href="#DejaVuSans-115"/>
     <use x="1251.640625" xlink:href="#DejaVuSans-44"/>
     <use x="1283.427734" xlink:href="#DejaVuSans-32"/>
     <use x="1315.214844" xlink:href="#DejaVuSans-49"/>
     <use x="1378.837891" xlink:href="#DejaVuSans-48"/>
     <use x="1442.460938" xlink:href="#DejaVuSans-45"/>
     <use x="1478.544922" xlink:href="#DejaVuSans-68"/>
    </g>
    <!-- 51 targets: 100..1e-08 -->
    <g transform="translate(60.41088 37.004824)scale(0.102 -0.102)">
     <defs>
      <path d="M 10.796875 72.90625 
L 49.515625 72.90625 
L 49.515625 64.59375 
L 19.828125 64.59375 
L 19.828125 46.734375 
Q 21.96875 47.46875 24.109375 47.828125 
Q 26.265625 48.1875 28.421875 48.1875 
Q 40.625 48.1875 47.75 41.5 
Q 54.890625 34.8125 54.890625 23.390625 
Q 54.890625 11.625 47.5625 5.09375 
Q 40.234375 -1.421875 26.90625 -1.421875 
Q 22.3125 -1.421875 17.546875 -0.640625 
Q 12.796875 0.140625 7.71875 1.703125 
L 7.71875 11.625 
Q 12.109375 9.234375 16.796875 8.0625 
Q 21.484375 6.890625 26.703125 6.890625 
Q 35.15625 6.890625 40.078125 11.328125 
Q 45.015625 15.765625 45.015625 23.390625 
Q 45.015625 31 40.078125 35.4375 
Q 35.15625 39.890625 26.703125 39.890625 
Q 22.75 39.890625 18.8125 39.015625 
Q 14.890625 38.140625 10.796875 36.28125 
z
" id="DejaVuSans-53"/>
      <path d="M 11.71875 12.40625 
L 22.015625 12.40625 
L 22.015625 0 
L 11.71875 0 
z
M 11.71875 51.703125 
L 22.015625 51.703125 
L 22.015625 39.3125 
L 11.71875 39.3125 
z
" id="DejaVuSans-58"/>
     </defs>
     <use xlink:href="#DejaVuSans-53"/>
     <use x="63.623047" xlink:href="#DejaVuSans-49"/>
     <use x="127.246094" xlink:href="#DejaVuSans-32"/>
     <use x="159.033203" xlink:href="#DejaVuSans-116"/>
     <use x="198.242188" xlink:href="#DejaVuSans-97"/>
     <use x="259.521484" xlink:href="#DejaVuSans-114"/>
     <use x="298.884766" xlink:href="#DejaVuSans-103"/>
     <use x="362.361328" xlink:href="#DejaVuSans-101"/>
     <use x="423.884766" xlink:href="#DejaVuSans-116"/>
     <use x="463.09375" xlink:href="#DejaVuSans-115"/>
     <use x="515.193359" xlink:href="#DejaVuSans-58"/>
     <use x="548.884766" xlink:href="#DejaVuSans-32"/>
     <use x="580.671875" xlink:href="#DejaVuSans-49"/>
     <use x="644.294922" xlink:href="#DejaVuSans-48"/>
     <use x="707.917969" xlink:href="#DejaVuSans-48"/>
     <use x="771.541016" xlink:href="#DejaVuSans-46"/>
     <use x="803.328125" xlink:href="#DejaVuSans-46"/>
     <use x="835.115234" xlink:href="#DejaVuSans-49"/>
     <use x="898.738281" xlink:href="#DejaVuSans-101"/>
     <use x="960.261719" xlink:href="#DejaVuSans-45"/>
     <use x="996.345703" xlink:href="#DejaVuSans-48"/>
     <use x="1059.96875" xlink:href="#DejaVuSans-56"/>
    </g>
    <!-- 15 instances -->
    <g transform="translate(60.41088 48.426593)scale(0.102 -0.102)">
     <use xlink:href="#DejaVuSans-49"/>
     <use x="63.623047" xlink:href="#DejaVuSans-53"/>
     <use x="127.246094" xlink:href="#DejaVuSans-32"/>
     <use x="159.033203" xlink:href="#DejaVuSans-105"/>
     <use x="186.816406" xlink:href="#DejaVuSans-110"/>
     <use x="250.195312" xlink:href="#DejaVuSans-115"/>
     <use x="302.294922" xlink:href="#DejaVuSans-116"/>
     <use x="341.503906" xlink:href="#DejaVuSans-97"/>
     <use x="402.783203" xlink:href="#DejaVuSans-110"/>
     <use x="466.162109" xlink:href="#DejaVuSans-99"/>
     <use x="521.142578" xlink:href="#DejaVuSans-101"/>
     <use x="582.666016" xlink:href="#DejaVuSans-115"/>
    </g>
   </g>
   <g id="text_19">
    <!-- v2.4 -->
    <g style="fill:#808080;" transform="translate(187.233062 293.909432)scale(0.1 -0.1)">
     <use xlink:href="#DejaVuSans-118"/>
     <use x="59.179688" xlink:href="#DejaVuSans-50"/>
     <use x="122.802734" xlink:href="#DejaVuSans-46"/>
     <use x="154.589844" xlink:href="#DejaVuSans-52"/>
    </g>
   </g>
  </g>
 </g>
 <defs>
  <clipPath id="pdb221c3e6a">
   <rect height="295.488" width="281.088" x="57.6" y="3.456"/>
  </clipPath>
 </defs>
</svg>
