<?xml version="1.0" encoding="utf-8" standalone="no"?>
<!DOCTYPE svg PUBLIC "-//W3C//DTD SVG 1.1//EN"
  "http://www.w3.org/Graphics/SVG/1.1/DTD/svg11.dtd">
<!-- Created with matplotlib (https://matplotlib.org/) -->
<svg height="345.6pt" version="1.1" viewBox="0 0 460.8 345.6" width="460.8pt" xmlns="http://www.w3.org/2000/svg" xmlns:xlink="http://www.w3.org/1999/xlink">
 <metadata>
  <rdf:RDF xmlns:cc="http://creativecommons.org/ns#" xmlns:dc="http://purl.org/dc/elements/1.1/" xmlns:rdf="http://www.w3.org/1999/02/22-rdf-syntax-ns#">
   <cc:Work>
    <dc:type rdf:resource="http://purl.org/dc/dcmitype/StillImage"/>
    <dc:date>2021-06-17T01:38:42.963367</dc:date>
    <dc:format>image/svg+xml</dc:format>
    <dc:creator>
     <cc:Agent>
      <dc:title>Matplotlib v3.3.4, https://matplotlib.org/</dc:title>
     </cc:Agent>
    </dc:creator>
   </cc:Work>
  </rdf:RDF>
 </metadata>
 <defs>
  <style type="text/css">*{stroke-linecap:butt;stroke-linejoin:round;}</style>
 </defs>
 <g id="figure_1">
  <g id="patch_1">
   <path d="M 0 345.6 
L 460.8 345.6 
L 460.8 0 
L 0 0 
z
" style="fill:#ffffff;"/>
  </g>
  <g id="axes_1">
   <g id="patch_2">
    <path d="M 0 293.76 
L 460.8 293.76 
L 460.8 3.456 
L 0 3.456 
z
" style="fill:#ffffff;"/>
   </g>
   <g id="matplotlib.axis_1">
    <g id="xtick_1">
     <g id="line2d_1">
      <path clip-path="url(#pcadb64b63b)" d="M 105.789456 293.76 
L 105.789456 3.456 
" style="fill:none;stroke:#b0b0b0;stroke-linecap:square;stroke-width:0.8;"/>
     </g>
     <g id="line2d_2">
      <defs>
       <path d="M 0 0 
L 0 3.5 
" id="m2d539e67d2" style="stroke:#000000;stroke-width:0.8;"/>
      </defs>
      <g>
       <use style="stroke:#000000;stroke-width:0.8;" x="105.789456" xlink:href="#m2d539e67d2" y="293.76"/>
      </g>
     </g>
     <g id="text_1">
      <!-- -4 -->
      <g transform="translate(95.819144 315.956875)scale(0.2 -0.2)">
       <defs>
        <path d="M 4.890625 31.390625 
L 31.203125 31.390625 
L 31.203125 23.390625 
L 4.890625 23.390625 
z
" id="DejaVuSans-45"/>
        <path d="M 37.796875 64.3125 
L 12.890625 25.390625 
L 37.796875 25.390625 
z
M 35.203125 72.90625 
L 47.609375 72.90625 
L 47.609375 25.390625 
L 58.015625 25.390625 
L 58.015625 17.1875 
L 47.609375 17.1875 
L 47.609375 0 
L 37.796875 0 
L 37.796875 17.1875 
L 4.890625 17.1875 
L 4.890625 26.703125 
z
" id="DejaVuSans-52"/>
       </defs>
       <use xlink:href="#DejaVuSans-45"/>
       <use x="36.083984" xlink:href="#DejaVuSans-52"/>
      </g>
     </g>
    </g>
    <g id="xtick_2">
     <g id="line2d_3">
      <path clip-path="url(#pcadb64b63b)" d="M 211.693325 293.76 
L 211.693325 3.456 
" style="fill:none;stroke:#b0b0b0;stroke-linecap:square;stroke-width:0.8;"/>
     </g>
     <g id="line2d_4">
      <g>
       <use style="stroke:#000000;stroke-width:0.8;" x="211.693325" xlink:href="#m2d539e67d2" y="293.76"/>
      </g>
     </g>
     <g id="text_2">
      <!-- 0 -->
      <g transform="translate(205.330825 315.956875)scale(0.2 -0.2)">
       <defs>
        <path d="M 31.78125 66.40625 
Q 24.171875 66.40625 20.328125 58.90625 
Q 16.5 51.421875 16.5 36.375 
Q 16.5 21.390625 20.328125 13.890625 
Q 24.171875 6.390625 31.78125 6.390625 
Q 39.453125 6.390625 43.28125 13.890625 
Q 47.125 21.390625 47.125 36.375 
Q 47.125 51.421875 43.28125 58.90625 
Q 39.453125 66.40625 31.78125 66.40625 
z
M 31.78125 74.21875 
Q 44.046875 74.21875 50.515625 64.515625 
Q 56.984375 54.828125 56.984375 36.375 
Q 56.984375 17.96875 50.515625 8.265625 
Q 44.046875 -1.421875 31.78125 -1.421875 
Q 19.53125 -1.421875 13.0625 8.265625 
Q 6.59375 17.96875 6.59375 36.375 
Q 6.59375 54.828125 13.0625 64.515625 
Q 19.53125 74.21875 31.78125 74.21875 
z
" id="DejaVuSans-48"/>
       </defs>
       <use xlink:href="#DejaVuSans-48"/>
      </g>
     </g>
    </g>
    <g id="xtick_3">
     <g id="line2d_5">
      <path clip-path="url(#pcadb64b63b)" d="M 317.597194 293.76 
L 317.597194 3.456 
" style="fill:none;stroke:#b0b0b0;stroke-linecap:square;stroke-width:0.8;"/>
     </g>
     <g id="line2d_6">
      <g>
       <use style="stroke:#000000;stroke-width:0.8;" x="317.597194" xlink:href="#m2d539e67d2" y="293.76"/>
      </g>
     </g>
     <g id="text_3">
      <!-- 4 -->
      <g transform="translate(311.234694 315.956875)scale(0.2 -0.2)">
       <use xlink:href="#DejaVuSans-52"/>
      </g>
     </g>
    </g>
    <g id="xtick_4">
     <g id="line2d_7">
      <path clip-path="url(#pcadb64b63b)" d="M 423.501063 293.76 
L 423.501063 3.456 
" style="fill:none;stroke:#b0b0b0;stroke-linecap:square;stroke-width:0.8;"/>
     </g>
     <g id="line2d_8">
      <g>
       <use style="stroke:#000000;stroke-width:0.8;" x="423.501063" xlink:href="#m2d539e67d2" y="293.76"/>
      </g>
     </g>
     <g id="text_4">
      <!-- 8 -->
      <g transform="translate(417.138563 315.956875)scale(0.2 -0.2)">
       <defs>
        <path d="M 31.78125 34.625 
Q 24.75 34.625 20.71875 30.859375 
Q 16.703125 27.09375 16.703125 20.515625 
Q 16.703125 13.921875 20.71875 10.15625 
Q 24.75 6.390625 31.78125 6.390625 
Q 38.8125 6.390625 42.859375 10.171875 
Q 46.921875 13.96875 46.921875 20.515625 
Q 46.921875 27.09375 42.890625 30.859375 
Q 38.875 34.625 31.78125 34.625 
z
M 21.921875 38.8125 
Q 15.578125 40.375 12.03125 44.71875 
Q 8.5 49.078125 8.5 55.328125 
Q 8.5 64.0625 14.71875 69.140625 
Q 20.953125 74.21875 31.78125 74.21875 
Q 42.671875 74.21875 48.875 69.140625 
Q 55.078125 64.0625 55.078125 55.328125 
Q 55.078125 49.078125 51.53125 44.71875 
Q 48 40.375 41.703125 38.8125 
Q 48.828125 37.15625 52.796875 32.3125 
Q 56.78125 27.484375 56.78125 20.515625 
Q 56.78125 9.90625 50.3125 4.234375 
Q 43.84375 -1.421875 31.78125 -1.421875 
Q 19.734375 -1.421875 13.25 4.234375 
Q 6.78125 9.90625 6.78125 20.515625 
Q 6.78125 27.484375 10.78125 32.3125 
Q 14.796875 37.15625 21.921875 38.8125 
z
M 18.3125 54.390625 
Q 18.3125 48.734375 21.84375 45.5625 
Q 25.390625 42.390625 31.78125 42.390625 
Q 38.140625 42.390625 41.71875 45.5625 
Q 45.3125 48.734375 45.3125 54.390625 
Q 45.3125 60.0625 41.71875 63.234375 
Q 38.140625 66.40625 31.78125 66.40625 
Q 25.390625 66.40625 21.84375 63.234375 
Q 18.3125 60.0625 18.3125 54.390625 
z
" id="DejaVuSans-56"/>
       </defs>
       <use xlink:href="#DejaVuSans-56"/>
      </g>
     </g>
    </g>
    <g id="text_5">
     <!-- log10 of Df -->
     <g transform="translate(175.214063 339.313125)scale(0.2 -0.2)">
      <defs>
       <path d="M 9.421875 75.984375 
L 18.40625 75.984375 
L 18.40625 0 
L 9.421875 0 
z
" id="DejaVuSans-108"/>
       <path d="M 30.609375 48.390625 
Q 23.390625 48.390625 19.1875 42.75 
Q 14.984375 37.109375 14.984375 27.296875 
Q 14.984375 17.484375 19.15625 11.84375 
Q 23.34375 6.203125 30.609375 6.203125 
Q 37.796875 6.203125 41.984375 11.859375 
Q 46.1875 17.53125 46.1875 27.296875 
Q 46.1875 37.015625 41.984375 42.703125 
Q 37.796875 48.390625 30.609375 48.390625 
z
M 30.609375 56 
Q 42.328125 56 49.015625 48.375 
Q 55.71875 40.765625 55.71875 27.296875 
Q 55.71875 13.875 49.015625 6.21875 
Q 42.328125 -1.421875 30.609375 -1.421875 
Q 18.84375 -1.421875 12.171875 6.21875 
Q 5.515625 13.875 5.515625 27.296875 
Q 5.515625 40.765625 12.171875 48.375 
Q 18.84375 56 30.609375 56 
z
" id="DejaVuSans-111"/>
       <path d="M 45.40625 27.984375 
Q 45.40625 37.75 41.375 43.109375 
Q 37.359375 48.484375 30.078125 48.484375 
Q 22.859375 48.484375 18.828125 43.109375 
Q 14.796875 37.75 14.796875 27.984375 
Q 14.796875 18.265625 18.828125 12.890625 
Q 22.859375 7.515625 30.078125 7.515625 
Q 37.359375 7.515625 41.375 12.890625 
Q 45.40625 18.265625 45.40625 27.984375 
z
M 54.390625 6.78125 
Q 54.390625 -7.171875 48.1875 -13.984375 
Q 42 -20.796875 29.203125 -20.796875 
Q 24.46875 -20.796875 20.265625 -20.09375 
Q 16.0625 -19.390625 12.109375 -17.921875 
L 12.109375 -9.1875 
Q 16.0625 -11.328125 19.921875 -12.34375 
Q 23.78125 -13.375 27.78125 -13.375 
Q 36.625 -13.375 41.015625 -8.765625 
Q 45.40625 -4.15625 45.40625 5.171875 
L 45.40625 9.625 
Q 42.625 4.78125 38.28125 2.390625 
Q 33.9375 0 27.875 0 
Q 17.828125 0 11.671875 7.65625 
Q 5.515625 15.328125 5.515625 27.984375 
Q 5.515625 40.671875 11.671875 48.328125 
Q 17.828125 56 27.875 56 
Q 33.9375 56 38.28125 53.609375 
Q 42.625 51.21875 45.40625 46.390625 
L 45.40625 54.6875 
L 54.390625 54.6875 
z
" id="DejaVuSans-103"/>
       <path d="M 12.40625 8.296875 
L 28.515625 8.296875 
L 28.515625 63.921875 
L 10.984375 60.40625 
L 10.984375 69.390625 
L 28.421875 72.90625 
L 38.28125 72.90625 
L 38.28125 8.296875 
L 54.390625 8.296875 
L 54.390625 0 
L 12.40625 0 
z
" id="DejaVuSans-49"/>
       <path id="DejaVuSans-32"/>
       <path d="M 37.109375 75.984375 
L 37.109375 68.5 
L 28.515625 68.5 
Q 23.6875 68.5 21.796875 66.546875 
Q 19.921875 64.59375 19.921875 59.515625 
L 19.921875 54.6875 
L 34.71875 54.6875 
L 34.71875 47.703125 
L 19.921875 47.703125 
L 19.921875 0 
L 10.890625 0 
L 10.890625 47.703125 
L 2.296875 47.703125 
L 2.296875 54.6875 
L 10.890625 54.6875 
L 10.890625 58.5 
Q 10.890625 67.625 15.140625 71.796875 
Q 19.390625 75.984375 28.609375 75.984375 
z
" id="DejaVuSans-102"/>
       <path d="M 19.671875 64.796875 
L 19.671875 8.109375 
L 31.59375 8.109375 
Q 46.6875 8.109375 53.6875 14.9375 
Q 60.6875 21.78125 60.6875 36.53125 
Q 60.6875 51.171875 53.6875 57.984375 
Q 46.6875 64.796875 31.59375 64.796875 
z
M 9.8125 72.90625 
L 30.078125 72.90625 
Q 51.265625 72.90625 61.171875 64.09375 
Q 71.09375 55.28125 71.09375 36.53125 
Q 71.09375 17.671875 61.125 8.828125 
Q 51.171875 0 30.078125 0 
L 9.8125 0 
z
" id="DejaVuSans-68"/>
      </defs>
      <use xlink:href="#DejaVuSans-108"/>
      <use x="27.783203" xlink:href="#DejaVuSans-111"/>
      <use x="88.964844" xlink:href="#DejaVuSans-103"/>
      <use x="152.441406" xlink:href="#DejaVuSans-49"/>
      <use x="216.064453" xlink:href="#DejaVuSans-48"/>
      <use x="279.6875" xlink:href="#DejaVuSans-32"/>
      <use x="311.474609" xlink:href="#DejaVuSans-111"/>
      <use x="372.65625" xlink:href="#DejaVuSans-102"/>
      <use x="407.861328" xlink:href="#DejaVuSans-32"/>
      <use x="439.648438" xlink:href="#DejaVuSans-68"/>
      <use x="516.650391" xlink:href="#DejaVuSans-102"/>
     </g>
    </g>
   </g>
   <g id="matplotlib.axis_2">
    <g id="ytick_1">
     <g id="line2d_9">
      <path clip-path="url(#pcadb64b63b)" d="M 0 293.76 
L 460.8 293.76 
" style="fill:none;stroke:#b0b0b0;stroke-linecap:square;stroke-width:0.8;"/>
     </g>
     <g id="line2d_10">
      <defs>
       <path d="M 0 0 
L -3.5 0 
" id="mb01c4267b3" style="stroke:#000000;stroke-width:0.8;"/>
      </defs>
      <g>
       <use style="stroke:#000000;stroke-width:0.8;" x="0" xlink:href="#mb01c4267b3" y="293.76"/>
      </g>
     </g>
    </g>
    <g id="ytick_2">
     <g id="line2d_11">
      <path clip-path="url(#pcadb64b63b)" d="M 0 236.274059 
L 460.8 236.274059 
" style="fill:none;stroke:#b0b0b0;stroke-linecap:square;stroke-width:0.8;"/>
     </g>
     <g id="line2d_12">
      <g>
       <use style="stroke:#000000;stroke-width:0.8;" x="0" xlink:href="#mb01c4267b3" y="236.274059"/>
      </g>
     </g>
    </g>
    <g id="ytick_3">
     <g id="line2d_13">
      <path clip-path="url(#pcadb64b63b)" d="M 0 178.788119 
L 460.8 178.788119 
" style="fill:none;stroke:#b0b0b0;stroke-linecap:square;stroke-width:0.8;"/>
     </g>
     <g id="line2d_14">
      <g>
       <use style="stroke:#000000;stroke-width:0.8;" x="0" xlink:href="#mb01c4267b3" y="178.788119"/>
      </g>
     </g>
    </g>
    <g id="ytick_4">
     <g id="line2d_15">
      <path clip-path="url(#pcadb64b63b)" d="M 0 121.302178 
L 460.8 121.302178 
" style="fill:none;stroke:#b0b0b0;stroke-linecap:square;stroke-width:0.8;"/>
     </g>
     <g id="line2d_16">
      <g>
       <use style="stroke:#000000;stroke-width:0.8;" x="0" xlink:href="#mb01c4267b3" y="121.302178"/>
      </g>
     </g>
    </g>
    <g id="ytick_5">
     <g id="line2d_17">
      <path clip-path="url(#pcadb64b63b)" d="M 0 63.816238 
L 460.8 63.816238 
" style="fill:none;stroke:#b0b0b0;stroke-linecap:square;stroke-width:0.8;"/>
     </g>
     <g id="line2d_18">
      <g>
       <use style="stroke:#000000;stroke-width:0.8;" x="0" xlink:href="#mb01c4267b3" y="63.816238"/>
      </g>
     </g>
    </g>
    <g id="ytick_6">
     <g id="line2d_19">
      <path clip-path="url(#pcadb64b63b)" d="M 0 6.330297 
L 460.8 6.330297 
" style="fill:none;stroke:#b0b0b0;stroke-linecap:square;stroke-width:0.8;"/>
     </g>
     <g id="line2d_20">
      <g>
       <use style="stroke:#000000;stroke-width:0.8;" x="0" xlink:href="#mb01c4267b3" y="6.330297"/>
      </g>
     </g>
    </g>
   </g>
   <g id="line2d_21">
    <path clip-path="url(#pcadb64b63b)" d="M -1 247.451881 
L -0.114413 247.451881 
L -0.114413 171.602376 
L 1.768731 171.602376 
L 1.768731 170.80396 
L 30.438835 170.80396 
L 30.438835 170.005545 
L 40.029341 170.005545 
L 40.029341 169.207129 
L 53.833683 169.207129 
L 53.833683 168.408713 
L 56.388513 168.408713 
L 56.388513 167.610297 
L 62.023553 167.610297 
L 62.023553 166.811881 
L 67.509997 166.811881 
L 67.509997 166.013465 
L 78.349407 166.013465 
L 78.349407 165.21505 
L 85.018113 165.21505 
L 85.018113 164.416634 
L 91.734712 164.416634 
L 91.734712 163.618218 
L 111.416947 163.618218 
L 111.416947 162.819802 
L 131.641862 162.819802 
L 131.641862 162.021386 
L 142.901182 162.021386 
L 142.901182 161.22297 
L 147.993505 161.22297 
L 147.993505 160.424554 
L 158.133914 160.424554 
L 158.133914 159.626139 
L 163.298717 159.626139 
L 163.298717 158.827723 
L 166.522233 158.827723 
L 166.522233 158.029307 
L 171.905559 158.029307 
L 171.905559 157.230891 
L 175.581599 157.230891 
L 175.581599 156.432475 
L 177.237091 156.432475 
L 177.237091 155.634059 
L 177.63251 155.634059 
L 177.63251 154.835644 
L 179.270121 154.835644 
L 179.270121 154.037228 
L 179.879403 154.037228 
L 179.879403 153.238812 
L 184.049231 153.238812 
L 184.049231 152.440396 
L 186.356803 152.440396 
L 186.356803 151.64198 
L 186.649746 151.64198 
L 186.649746 150.843564 
L 187.111855 150.843564 
L 187.111855 150.045149 
L 187.478947 150.045149 
L 187.478947 149.246733 
L 188.20728 149.246733 
L 188.20728 148.448317 
L 189.635875 148.448317 
L 189.635875 147.649901 
L 189.871565 147.649901 
L 189.871565 146.851485 
L 192.053892 146.851485 
L 192.053892 146.053069 
L 192.789964 146.053069 
L 192.789964 145.254653 
L 193.42675 145.254653 
L 193.42675 144.456238 
L 194.08177 144.456238 
L 194.08177 143.657822 
L 199.566651 143.657822 
L 199.591234 142.06099 
L 199.909867 142.06099 
L 199.909867 141.262574 
L 200.631014 141.262574 
L 200.631014 140.464158 
L 201.248937 140.464158 
L 201.248937 139.665743 
L 201.838744 139.665743 
L 201.838744 138.867327 
L 202.374346 138.867327 
L 202.374346 138.068911 
L 202.638331 138.068911 
L 202.638331 137.270495 
L 203.489577 137.270495 
L 203.489577 136.472079 
L 203.793007 136.472079 
L 203.793007 135.673663 
L 206.095917 135.673663 
L 206.095917 134.875248 
L 206.291146 134.875248 
L 206.291146 134.076832 
L 207.883165 134.076832 
L 207.883165 133.278416 
L 208.192932 133.278416 
L 208.26861 131.681584 
L 209.658043 131.681584 
L 209.658043 130.883168 
L 210.04126 130.883168 
L 210.04126 130.084752 
L 211.799409 130.084752 
L 211.799409 129.286337 
L 212.840676 129.286337 
L 212.840676 128.487921 
L 213.993997 128.487921 
L 213.993997 127.689505 
L 214.142131 127.689505 
L 214.215386 125.294257 
L 215.216545 125.294257 
L 215.216545 124.495842 
L 215.361049 124.495842 
L 215.411631 122.89901 
L 217.508442 122.89901 
L 217.508442 122.100594 
L 217.630501 122.100594 
L 217.630501 121.302178 
L 218.04307 121.302178 
L 218.130342 119.705347 
L 218.471183 119.705347 
L 218.554498 117.310099 
L 219.044177 117.310099 
L 219.044177 115.713267 
L 219.35298 115.713267 
L 219.35298 114.914851 
L 219.868019 114.914851 
L 219.911701 113.31802 
L 220.619855 113.31802 
L 220.639108 111.721188 
L 220.816343 111.721188 
L 220.816343 110.124356 
L 221.727366 110.124356 
L 221.830926 107.729109 
L 222.104193 107.729109 
L 222.104193 106.930693 
L 222.53004 106.930693 
L 222.638268 102.938614 
L 222.709905 102.938614 
L 222.816081 99.74495 
L 222.880987 99.74495 
L 222.880987 98.946535 
L 224.267463 98.946535 
L 224.267463 98.148119 
L 224.715311 98.148119 
L 224.715311 97.349703 
L 224.85797 97.349703 
L 224.85797 96.551287 
L 225.053917 96.551287 
L 225.053917 95.752871 
L 225.477496 95.752871 
L 225.544339 94.15604 
L 226.079387 94.15604 
L 226.079387 93.357624 
L 226.662236 93.357624 
L 226.662236 92.559208 
L 226.786438 92.559208 
L 226.786438 91.760792 
L 227.432899 91.760792 
L 227.432899 90.962376 
L 227.575337 90.962376 
L 227.575337 89.365545 
L 228.089337 89.365545 
L 228.089337 88.567129 
L 229.136424 88.567129 
L 229.136424 87.768713 
L 229.823648 87.768713 
L 229.823648 86.970297 
L 230.141111 86.970297 
L 230.141111 86.171881 
L 230.482902 86.171881 
L 230.482902 85.373465 
L 231.612368 85.373465 
L 231.612368 84.57505 
L 231.84629 84.57505 
L 231.859947 82.978218 
L 232.237513 82.978218 
L 232.237513 80.58297 
L 233.531311 80.58297 
L 233.531311 79.784554 
L 233.740793 79.784554 
L 233.740793 78.986139 
L 233.918813 78.986139 
L 234.009996 76.590891 
L 234.086329 76.590891 
L 234.086329 74.994059 
L 234.421642 74.994059 
L 234.432954 73.397228 
L 234.950144 73.397228 
L 234.950144 72.598812 
L 235.395506 72.598812 
L 235.395506 71.800396 
L 235.531868 71.800396 
L 235.531868 71.00198 
L 235.77964 71.00198 
L 235.83479 69.405149 
L 236.330513 69.405149 
L 236.330513 68.606733 
L 236.624369 68.606733 
L 236.624369 67.009901 
L 236.899697 67.009901 
L 236.899697 66.211485 
L 237.549581 66.211485 
L 237.549581 65.413069 
L 237.937882 65.413069 
L 237.937882 64.614653 
L 238.111172 64.614653 
L 238.111172 61.42099 
L 239.238504 61.42099 
L 239.238504 60.622574 
L 239.395769 60.622574 
L 239.415889 59.025743 
L 240.117817 59.025743 
L 240.117817 58.227327 
L 240.55907 58.227327 
L 240.55907 57.428911 
L 240.80676 57.428911 
L 240.80676 56.630495 
L 241.127917 56.630495 
L 241.12793 55.033663 
L 241.552961 55.033663 
L 241.552961 54.235248 
L 241.73218 54.235248 
L 241.73218 53.436832 
L 241.980035 53.436832 
L 241.980035 52.638416 
L 242.607142 52.638416 
L 242.607142 51.84 
L 242.773342 51.84 
L 242.773342 50.243168 
L 243.9746 50.243168 
L 243.9746 49.444752 
L 245.11058 49.444752 
L 245.116395 47.847921 
L 245.49143 47.847921 
L 245.49143 46.251089 
L 245.866933 46.251089 
L 245.866933 45.452673 
L 246.081209 45.452673 
L 246.187475 43.855842 
L 246.431815 43.855842 
L 246.4637 42.25901 
L 246.64034 42.25901 
L 246.642192 40.662178 
L 246.778531 40.662178 
L 246.778531 39.863762 
L 247.00672 39.863762 
L 247.06394 38.266931 
L 247.504815 38.266931 
L 247.607255 36.670099 
L 247.714405 36.670099 
L 247.76351 35.073267 
L 248.357801 35.073267 
L 248.417034 33.476436 
L 248.79066 33.476436 
L 248.79066 32.67802 
L 248.918872 32.67802 
L 248.922439 31.081188 
L 249.097955 31.081188 
L 249.097955 29.484356 
L 249.357292 29.484356 
L 249.357292 28.685941 
L 249.531926 28.685941 
L 249.531926 27.887525 
L 250.743377 27.887525 
L 250.833006 25.492277 
L 251.120409 25.492277 
L 251.120409 23.895446 
L 251.768853 23.895446 
L 251.839292 22.298614 
L 252.182554 22.298614 
L 252.182554 21.500198 
L 252.515844 21.500198 
L 252.515858 19.903366 
L 252.839739 19.903366 
L 252.839739 19.10495 
L 253.461427 19.10495 
L 253.461427 18.306535 
L 253.760141 18.306535 
L 253.760141 17.508119 
L 253.94022 17.508119 
L 253.94022 16.709703 
L 254.335169 16.709703 
L 254.335169 15.911287 
L 254.882794 15.911287 
L 254.882794 15.112871 
L 255.905536 15.112871 
L 255.905536 14.314455 
L 256.712747 14.314455 
L 256.712747 12.717624 
L 257.71279 12.717624 
L 257.71279 11.919208 
L 257.910855 11.919208 
L 257.910855 11.120792 
L 259.090396 11.120792 
L 259.090396 10.322376 
L 259.320491 10.322376 
L 259.320491 9.52396 
L 259.633731 9.52396 
L 259.633731 8.725545 
L 261.27915 8.725545 
L 261.27915 7.927129 
L 263.117106 7.927129 
L 263.117106 7.128713 
L 264.586822 7.128713 
L 264.586822 6.330297 
L 264.586822 6.330297 
L 460.8 6.330297 
L 460.8 6.330297 
" style="fill:none;stroke:#ff0000;stroke-linecap:square;stroke-width:3;"/>
   </g>
   <g id="line2d_22">
    <path clip-path="url(#pcadb64b63b)" d="M 195.770382 293.76 
L 195.770382 281.783762 
L 228.768324 281.783762 
L 228.768324 280.985347 
L 228.933195 280.985347 
L 228.933195 280.186931 
L 231.566523 280.186931 
L 231.566523 279.388515 
L 231.88656 279.388515 
L 231.88656 278.590099 
L 232.769648 278.590099 
L 232.769648 277.791683 
L 233.132805 277.791683 
L 233.132805 276.993267 
L 233.260097 276.993267 
L 233.260097 276.194851 
L 233.593489 276.194851 
L 233.593489 275.396436 
L 234.711384 275.396436 
L 234.772543 273.799604 
L 234.903941 273.799604 
L 234.903941 273.001188 
L 235.600859 273.001188 
L 235.600859 272.202772 
L 236.752239 272.202772 
L 236.752239 271.404356 
L 237.034949 271.404356 
L 237.079533 269.807525 
L 237.794908 269.807525 
L 237.794908 269.009109 
L 238.864032 269.009109 
L 238.864032 268.210693 
L 239.782184 268.210693 
L 239.782184 267.412277 
L 240.008415 267.412277 
L 240.008415 266.613861 
L 240.783474 266.613861 
L 240.796992 265.01703 
L 241.029298 265.01703 
L 241.063085 263.420198 
L 241.287445 263.420198 
L 241.287445 262.621782 
L 241.498623 262.621782 
L 241.498623 261.823366 
L 241.820481 261.823366 
L 241.820481 261.02495 
L 242.227154 261.02495 
L 242.227154 260.226535 
L 242.749749 260.226535 
L 242.749749 259.428119 
L 242.964443 259.428119 
L 242.964443 258.629703 
L 243.278475 258.629703 
L 243.278475 257.831287 
L 243.795727 257.831287 
L 243.795727 257.032871 
L 243.990543 257.032871 
L 244.066732 255.43604 
L 244.823534 255.43604 
L 244.823534 254.637624 
L 245.457113 254.637624 
L 245.457113 253.839208 
L 245.854244 253.839208 
L 245.926125 251.44396 
L 245.966115 251.44396 
L 245.966115 250.645545 
L 246.248285 250.645545 
L 246.248285 249.847129 
L 246.41588 249.847129 
L 246.41588 249.048713 
L 246.657535 249.048713 
L 246.731557 247.451881 
L 246.988908 247.451881 
L 246.988908 246.653465 
L 247.229829 246.653465 
L 247.229829 245.85505 
L 247.936603 245.85505 
L 247.949658 244.258218 
L 248.823381 244.258218 
L 248.823381 243.459802 
L 248.953133 243.459802 
L 249.047306 241.064554 
L 249.156113 241.064554 
L 249.156113 229.088317 
L 249.271796 229.088317 
L 249.271796 228.289901 
L 249.547421 228.289901 
L 249.547421 227.491485 
L 249.899116 227.491485 
L 249.899116 226.693069 
L 250.134564 226.693069 
L 250.134564 225.894653 
L 250.879284 225.894653 
L 250.882935 224.297822 
L 251.568825 224.297822 
L 251.641177 222.70099 
L 251.68121 222.70099 
L 251.68121 221.902574 
L 251.870848 221.902574 
L 251.895937 220.305743 
L 252.279395 220.305743 
L 252.279395 219.507327 
L 252.423486 219.507327 
L 252.482219 217.910495 
L 252.757445 217.910495 
L 252.757445 217.112079 
L 252.9098 217.112079 
L 252.9098 216.313663 
L 253.573024 216.313663 
L 253.573024 215.515248 
L 254.130378 215.515248 
L 254.14013 213.918416 
L 254.786754 213.918416 
L 254.869596 211.523168 
L 255.254828 211.523168 
L 255.254828 210.724752 
L 255.414004 210.724752 
L 255.414004 209.926337 
L 255.612431 209.926337 
L 255.618675 208.329505 
L 256.452436 208.329505 
L 256.452436 207.531089 
L 256.60661 207.531089 
L 256.649818 205.934257 
L 257.560576 205.934257 
L 257.670556 203.53901 
L 257.873827 203.53901 
L 257.979967 201.143762 
L 258.088484 201.143762 
L 258.151393 199.546931 
L 258.511034 199.546931 
L 258.511034 198.748515 
L 258.670046 198.748515 
L 258.725938 195.554851 
L 258.789254 195.554851 
L 258.789254 194.756436 
L 259.232514 194.756436 
L 259.279849 191.562772 
L 259.451859 191.562772 
L 259.451859 190.764356 
L 259.618559 190.764356 
L 259.722466 189.167525 
L 259.793887 189.167525 
L 259.899658 186.772277 
L 260.303265 186.772277 
L 260.354419 184.37703 
L 260.457325 184.37703 
L 260.552563 181.981782 
L 260.612498 181.981782 
L 260.694163 180.38495 
L 260.747986 180.38495 
L 260.755025 178.788119 
L 261.035325 178.788119 
L 261.13987 177.191287 
L 261.176659 177.191287 
L 261.176659 176.392871 
L 261.56271 176.392871 
L 261.56271 175.594455 
L 261.779155 175.594455 
L 261.820333 173.199208 
L 261.943282 173.199208 
L 261.943282 172.400792 
L 262.605511 172.400792 
L 262.605511 171.602376 
L 263.044448 171.602376 
L 263.134577 168.408713 
L 263.238458 168.408713 
L 263.238458 167.610297 
L 263.532293 167.610297 
L 263.605789 165.21505 
L 263.752662 165.21505 
L 263.752662 164.416634 
L 263.883307 164.416634 
L 263.975991 160.424554 
L 264.043437 160.424554 
L 264.128176 157.230891 
L 264.233369 157.230891 
L 264.276335 155.634059 
L 264.653923 155.634059 
L 264.7066 154.037228 
L 264.808162 154.037228 
L 264.808162 153.238812 
L 265.044902 153.238812 
L 265.146477 148.448317 
L 265.239622 148.448317 
L 265.239622 147.649901 
L 265.444174 147.649901 
L 265.51099 137.270495 
L 265.877354 137.270495 
L 265.877354 136.472079 
L 266.435973 136.472079 
L 266.529344 134.875248 
L 266.616353 134.875248 
L 266.616353 134.076832 
L 266.795908 134.076832 
L 266.795908 133.278416 
L 267.605885 133.278416 
L 267.605885 132.48 
L 267.844501 132.48 
L 267.844501 131.681584 
L 268.688739 131.681584 
L 268.793801 130.084752 
L 268.956688 130.084752 
L 269.036325 128.487921 
L 269.320131 128.487921 
L 269.320131 127.689505 
L 269.463677 127.689505 
L 269.463677 126.891089 
L 269.657496 126.891089 
L 269.7681 125.294257 
L 269.884893 125.294257 
L 269.884893 124.495842 
L 270.036338 124.495842 
L 270.036338 123.697426 
L 270.295538 123.697426 
L 270.359128 122.100594 
L 270.645206 122.100594 
L 270.645206 121.302178 
L 270.825285 121.302178 
L 270.835747 119.705347 
L 270.942678 119.705347 
L 270.942678 118.906931 
L 271.664182 118.906931 
L 271.664182 118.108515 
L 272.064483 118.108515 
L 272.132738 116.511683 
L 272.236214 116.511683 
L 272.236214 115.713267 
L 272.710327 115.713267 
L 272.710327 114.914851 
L 273.027083 114.914851 
L 273.027083 114.116436 
L 273.458413 114.116436 
L 273.458413 113.31802 
L 273.842908 113.31802 
L 273.842908 112.519604 
L 274.506689 112.519604 
L 274.506689 111.721188 
L 274.932911 111.721188 
L 274.932911 110.922772 
L 275.054929 110.922772 
L 275.054929 110.124356 
L 275.586666 110.124356 
L 275.586666 109.325941 
L 276.231612 109.325941 
L 276.231612 108.527525 
L 277.442619 108.527525 
L 277.442619 107.729109 
L 277.804069 107.729109 
L 277.804069 106.930693 
L 279.737241 106.930693 
L 279.737241 106.132277 
L 280.03147 106.132277 
L 280.03147 105.333861 
L 281.209227 105.333861 
L 281.302161 102.938614 
L 281.421973 102.938614 
L 281.421973 102.140198 
L 281.980108 102.140198 
L 282.05224 100.543366 
L 282.15997 100.543366 
L 282.15997 99.74495 
L 283.797667 99.74495 
L 283.797667 98.946535 
L 285.701452 98.946535 
L 285.701452 98.148119 
L 288.206339 98.148119 
L 288.206339 97.349703 
L 288.910328 97.349703 
L 288.910328 96.551287 
L 289.766085 96.551287 
L 289.766085 95.752871 
L 290.953436 95.752871 
L 290.953436 94.954455 
L 291.429926 94.954455 
L 291.429926 94.15604 
L 291.661589 94.15604 
L 291.670374 92.559208 
L 292.895628 92.559208 
L 292.895628 91.760792 
L 293.51075 91.760792 
L 293.51075 90.962376 
L 294.37485 90.962376 
L 294.37485 90.16396 
L 295.445691 90.16396 
L 295.445691 89.365545 
L 297.905955 89.365545 
L 297.905955 88.567129 
L 298.588633 88.567129 
L 298.588633 87.768713 
L 302.002422 87.768713 
L 302.002422 86.970297 
L 303.870687 86.970297 
L 303.870687 86.171881 
L 304.055009 86.171881 
L 304.055231 83.776634 
L 306.811449 83.776634 
L 306.811449 82.978218 
L 307.619616 82.978218 
L 307.619616 82.179802 
L 309.782291 82.179802 
L 309.782291 81.381386 
L 309.959475 81.381386 
L 309.959475 80.58297 
L 311.994864 80.58297 
L 311.994864 79.784554 
L 312.435423 79.784554 
L 312.435423 78.986139 
L 312.806641 78.986139 
L 312.806641 70.203564 
L 314.399384 70.203564 
L 314.399384 69.405149 
L 319.173989 69.405149 
L 319.173989 68.606733 
L 320.375611 68.606733 
L 320.375611 67.808317 
L 321.299188 67.808317 
L 321.299188 67.009901 
L 321.85839 67.009901 
L 321.85839 66.211485 
L 322.76362 66.211485 
L 322.76362 65.413069 
L 324.154114 65.413069 
L 324.154114 64.614653 
L 324.414124 64.614653 
L 324.51877 63.017822 
L 327.769211 63.017822 
L 327.769211 62.219406 
L 329.909996 62.219406 
L 329.909996 61.42099 
L 332.261643 61.42099 
L 332.261643 60.622574 
L 334.619407 60.622574 
L 334.619407 59.824158 
L 335.6052 59.824158 
L 335.6052 59.025743 
L 337.212802 59.025743 
L 337.212802 58.227327 
L 339.432653 58.227327 
L 339.432653 57.428911 
L 340.551193 57.428911 
L 340.551193 56.630495 
L 341.405589 56.630495 
L 341.405589 55.832079 
L 344.959354 55.832079 
L 344.959354 55.033663 
L 345.593994 55.033663 
L 345.593994 54.235248 
L 347.315094 54.235248 
L 347.315094 53.436832 
L 347.561357 53.436832 
L 347.561357 52.638416 
L 348.095402 52.638416 
L 348.095402 51.84 
L 348.75411 51.84 
L 348.75411 51.041584 
L 351.076613 51.041584 
L 351.076613 50.243168 
L 352.695717 50.243168 
L 352.695717 49.444752 
L 354.104554 49.444752 
L 354.104671 47.847921 
L 356.239632 47.847921 
L 356.239632 47.049505 
L 356.46684 47.049505 
L 356.46684 46.251089 
L 356.632011 46.251089 
L 356.632011 45.452673 
L 360.984066 45.452673 
L 360.984066 44.654257 
L 364.259156 44.654257 
L 364.259156 43.855842 
L 364.939044 43.855842 
L 364.939044 43.057426 
L 373.14629 43.057426 
L 373.14629 42.25901 
L 374.803133 42.25901 
L 374.803133 41.460594 
L 376.92099 41.460594 
L 376.92099 40.662178 
L 378.146241 40.662178 
L 378.146241 39.863762 
L 378.466554 39.863762 
L 378.466554 39.065347 
L 379.951849 39.065347 
L 379.951849 38.266931 
L 380.656792 38.266931 
L 380.656792 37.468515 
L 381.083889 37.468515 
L 381.083889 36.670099 
L 382.715564 36.670099 
L 382.715564 35.871683 
L 382.919974 35.871683 
L 382.919974 35.073267 
L 385.347197 35.073267 
L 385.347197 34.274851 
L 387.216923 34.274851 
L 387.216923 33.476436 
L 388.68624 33.476436 
L 388.68624 32.67802 
L 388.805185 32.67802 
L 388.805185 31.879604 
L 389.056934 31.879604 
L 389.056934 31.081188 
L 390.036841 31.081188 
L 390.036841 30.282772 
L 390.990434 30.282772 
L 390.990434 29.484356 
L 391.221974 29.484356 
L 391.221974 28.685941 
L 392.488504 28.685941 
L 392.488504 27.887525 
L 392.830727 27.887525 
L 392.830727 27.089109 
L 394.402186 27.089109 
L 394.402186 26.290693 
L 394.58922 26.290693 
L 394.58922 25.492277 
L 394.906059 25.492277 
L 394.906059 24.693861 
L 395.369657 24.693861 
L 395.369657 23.895446 
L 395.870105 23.895446 
L 395.870105 23.09703 
L 396.108779 23.09703 
L 396.108779 22.298614 
L 396.594211 22.298614 
L 396.594211 21.500198 
L 397.204809 21.500198 
L 397.204809 20.701782 
L 398.248645 20.701782 
L 398.248645 19.903366 
L 398.596203 19.903366 
L 398.596203 19.10495 
L 399.403165 19.10495 
L 399.403165 18.306535 
L 400.917379 18.306535 
L 400.917379 17.508119 
L 402.574814 17.508119 
L 402.574814 16.709703 
L 404.434286 16.709703 
L 404.434286 15.911287 
L 404.586726 15.911287 
L 404.586726 15.112871 
L 405.11326 15.112871 
L 405.11326 14.314455 
L 407.504632 14.314455 
L 407.504632 13.51604 
L 410.66871 13.51604 
L 410.66871 12.717624 
L 411.211794 12.717624 
L 411.211794 11.919208 
L 412.952322 11.919208 
L 412.952322 11.120792 
L 413.542382 11.120792 
L 413.542382 10.322376 
L 416.269576 10.322376 
L 416.327253 8.725545 
L 428.336421 8.725545 
L 428.336421 7.927129 
L 429.201273 7.927129 
L 429.201273 7.128713 
L 431.100023 7.128713 
L 431.100023 6.330297 
L 431.100023 6.330297 
L 460.8 6.330297 
L 460.8 6.330297 
" style="fill:none;stroke:#00bfbf;stroke-linecap:square;stroke-width:1.5;"/>
   </g>
   <g id="line2d_23">
    <path clip-path="url(#pcadb64b63b)" d="M 195.770382 293.76 
L 195.770382 281.783762 
L 222.262523 281.783762 
L 222.262523 280.985347 
L 227.798058 280.985347 
L 227.798058 280.186931 
L 228.061704 280.186931 
L 228.061704 279.388515 
L 228.530733 279.388515 
L 228.530733 278.590099 
L 228.933195 278.590099 
L 229.022009 276.993267 
L 229.422183 276.993267 
L 229.422183 276.194851 
L 230.388225 276.194851 
L 230.388225 275.396436 
L 231.497401 275.396436 
L 231.497401 274.59802 
L 233.260097 274.59802 
L 233.260097 273.799604 
L 233.593489 273.799604 
L 233.593489 273.001188 
L 233.927774 273.001188 
L 233.977941 271.404356 
L 234.580047 271.404356 
L 234.580047 270.605941 
L 234.711384 270.605941 
L 234.809277 269.009109 
L 234.903941 269.009109 
L 234.903941 268.210693 
L 235.361583 268.210693 
L 235.361583 267.412277 
L 235.600859 267.412277 
L 235.704251 265.01703 
L 236.131735 265.01703 
L 236.131735 264.218614 
L 236.794287 264.218614 
L 236.794287 263.420198 
L 237.034949 263.420198 
L 237.079533 261.823366 
L 237.181685 261.823366 
L 237.26888 260.226535 
L 237.794908 260.226535 
L 237.794908 259.428119 
L 238.214967 259.428119 
L 238.214967 258.629703 
L 238.456954 258.629703 
L 238.456954 257.831287 
L 238.929119 257.831287 
L 238.929119 257.032871 
L 240.093296 257.032871 
L 240.093296 256.234455 
L 240.783474 256.234455 
L 240.817743 254.637624 
L 241.099883 254.637624 
L 241.099883 253.839208 
L 241.552961 253.839208 
L 241.552961 253.040792 
L 242.474985 253.040792 
L 242.474985 252.242376 
L 243.016964 252.242376 
L 243.016964 251.44396 
L 243.654102 251.44396 
L 243.750821 249.847129 
L 243.921228 249.847129 
L 243.921228 249.048713 
L 244.066732 249.048713 
L 244.066732 248.250297 
L 244.419003 248.250297 
L 244.419003 247.451881 
L 244.930857 247.451881 
L 244.930857 246.653465 
L 245.268005 246.653465 
L 245.268005 245.85505 
L 245.463684 245.85505 
L 245.463684 245.056634 
L 245.87456 245.056634 
L 245.966115 243.459802 
L 246.108356 243.459802 
L 246.128373 241.86297 
L 246.248285 241.86297 
L 246.248285 241.064554 
L 246.401986 241.064554 
L 246.445927 238.669307 
L 246.731557 238.669307 
L 246.731557 237.870891 
L 247.036198 237.870891 
L 247.036198 237.072475 
L 247.878587 237.072475 
L 247.878587 236.274059 
L 248.310845 236.274059 
L 248.310845 235.475644 
L 248.958737 235.475644 
L 249.047306 233.878812 
L 249.145999 233.878812 
L 249.156113 224.297822 
L 249.547421 224.297822 
L 249.550394 222.70099 
L 249.839399 222.70099 
L 249.899116 221.104158 
L 250.152058 221.104158 
L 250.152058 220.305743 
L 251.189703 220.305743 
L 251.189703 219.507327 
L 251.599053 219.507327 
L 251.641177 217.910495 
L 251.895937 217.910495 
L 251.895937 217.112079 
L 252.193242 217.112079 
L 252.193242 216.313663 
L 252.32177 216.313663 
L 252.423486 213.918416 
L 252.482219 213.918416 
L 252.491178 212.321584 
L 252.757445 212.321584 
L 252.757445 211.523168 
L 253.138853 211.523168 
L 253.138853 210.724752 
L 253.573024 210.724752 
L 253.573024 209.926337 
L 253.736561 209.926337 
L 253.769891 207.531089 
L 254.130378 207.531089 
L 254.130378 206.732673 
L 254.517599 206.732673 
L 254.517599 205.934257 
L 254.851813 205.934257 
L 254.851813 205.135842 
L 255.059184 205.135842 
L 255.059184 204.337426 
L 255.414004 204.337426 
L 255.415442 202.740594 
L 256.027727 202.740594 
L 256.099539 201.143762 
L 256.26928 201.143762 
L 256.26928 200.345347 
L 256.397607 200.345347 
L 256.479515 198.748515 
L 256.614976 198.748515 
L 256.614976 197.950099 
L 257.110581 197.950099 
L 257.110581 197.151683 
L 257.304012 197.151683 
L 257.38012 195.554851 
L 257.479885 195.554851 
L 257.479885 194.756436 
L 257.643067 194.756436 
L 257.742507 192.361188 
L 258.028695 192.361188 
L 258.088484 190.764356 
L 258.151393 190.764356 
L 258.240195 189.167525 
L 258.299874 189.167525 
L 258.322739 187.570693 
L 258.418038 187.570693 
L 258.418038 186.772277 
L 258.581786 186.772277 
L 258.640619 185.175446 
L 258.725938 185.175446 
L 258.725938 184.37703 
L 258.968843 184.37703 
L 258.968843 183.578614 
L 259.121138 183.578614 
L 259.214398 180.38495 
L 259.32572 180.38495 
L 259.32572 179.586535 
L 259.700421 179.586535 
L 259.793887 177.191287 
L 259.888024 177.191287 
L 259.899658 175.594455 
L 260.093934 175.594455 
L 260.16988 173.997624 
L 260.229073 173.997624 
L 260.303265 172.400792 
L 260.354419 172.400792 
L 260.354419 171.602376 
L 260.515106 171.602376 
L 260.552563 170.005545 
L 260.694163 170.005545 
L 260.755025 166.811881 
L 260.92723 166.811881 
L 260.947275 165.21505 
L 261.041997 165.21505 
L 261.041997 164.416634 
L 261.176659 164.416634 
L 261.233358 162.819802 
L 261.713149 162.819802 
L 261.802218 161.22297 
L 261.850723 161.22297 
L 261.850723 160.424554 
L 261.969784 160.424554 
L 261.969784 159.626139 
L 262.605511 159.626139 
L 262.605511 158.827723 
L 262.994411 158.827723 
L 263.095973 157.230891 
L 263.330696 157.230891 
L 263.330696 156.432475 
L 263.532293 156.432475 
L 263.569808 154.835644 
L 263.739632 154.835644 
L 263.752662 153.238812 
L 263.934371 153.238812 
L 263.975991 151.64198 
L 264.079517 151.64198 
L 264.079517 150.843564 
L 264.24182 150.843564 
L 264.24182 149.246733 
L 264.706221 149.246733 
L 264.808162 146.851485 
L 264.862724 146.851485 
L 264.971548 141.262574 
L 265.078825 141.262574 
L 265.150152 137.270495 
L 265.239231 137.270495 
L 265.293301 134.875248 
L 265.877354 134.875248 
L 265.877354 134.076832 
L 266.529344 134.076832 
L 266.616353 131.681584 
L 266.936468 131.681584 
L 266.99221 130.084752 
L 267.844501 130.084752 
L 267.863423 128.487921 
L 268.688739 128.487921 
L 268.688739 127.689505 
L 269.036325 127.689505 
L 269.036325 126.891089 
L 269.657496 126.891089 
L 269.7681 124.495842 
L 269.848049 124.495842 
L 269.884893 122.89901 
L 270.036338 122.89901 
L 270.036338 122.100594 
L 270.295538 122.100594 
L 270.359128 120.503762 
L 270.645206 120.503762 
L 270.645206 119.705347 
L 270.825285 119.705347 
L 270.825285 118.906931 
L 270.942678 118.906931 
L 270.942678 118.108515 
L 271.664182 118.108515 
L 271.729844 116.511683 
L 272.064483 116.511683 
L 272.132738 114.914851 
L 272.236214 114.914851 
L 272.236214 114.116436 
L 272.561797 114.116436 
L 272.561797 113.31802 
L 272.682063 113.31802 
L 272.682063 112.519604 
L 272.914899 112.519604 
L 272.914899 111.721188 
L 273.027083 111.721188 
L 273.027083 110.922772 
L 273.319777 110.922772 
L 273.319777 110.124356 
L 274.265137 110.124356 
L 274.265137 109.325941 
L 275.633515 109.325941 
L 275.633515 108.527525 
L 276.275831 108.527525 
L 276.293848 106.930693 
L 277.120184 106.930693 
L 277.120184 106.132277 
L 277.442619 106.132277 
L 277.442619 105.333861 
L 277.580526 105.333861 
L 277.580526 104.535446 
L 277.804069 104.535446 
L 277.804069 103.73703 
L 278.247608 103.73703 
L 278.247608 102.938614 
L 278.820601 102.938614 
L 278.820601 102.140198 
L 279.988504 102.140198 
L 279.988504 101.341782 
L 280.899456 101.341782 
L 280.899456 100.543366 
L 281.316235 100.543366 
L 281.316235 99.74495 
L 281.438432 99.74495 
L 281.438432 98.946535 
L 283.082097 98.946535 
L 283.082097 98.148119 
L 285.701452 98.148119 
L 285.701452 97.349703 
L 287.722735 97.349703 
L 287.722735 96.551287 
L 289.450557 96.551287 
L 289.450557 95.752871 
L 289.766085 95.752871 
L 289.766085 94.954455 
L 291.084031 94.954455 
L 291.138023 93.357624 
L 291.429926 93.357624 
L 291.429926 92.559208 
L 291.670374 92.559208 
L 291.670374 91.760792 
L 292.627516 91.760792 
L 292.627516 90.962376 
L 293.218921 90.962376 
L 293.218921 90.16396 
L 295.194651 90.16396 
L 295.194651 89.365545 
L 297.120651 89.365545 
L 297.120651 88.567129 
L 297.344457 88.567129 
L 297.344457 87.768713 
L 298.282961 87.768713 
L 298.282961 86.970297 
L 299.321722 86.970297 
L 299.321722 85.373465 
L 300.33154 85.373465 
L 300.33154 84.57505 
L 300.66679 84.57505 
L 300.66679 83.776634 
L 303.870687 83.776634 
L 303.870687 82.978218 
L 304.055009 82.978218 
L 304.055231 80.58297 
L 305.807156 80.58297 
L 305.861277 77.389307 
L 306.292626 77.389307 
L 306.292626 76.590891 
L 306.763341 76.590891 
L 306.763341 75.792475 
L 306.95448 75.792475 
L 306.956155 73.397228 
L 307.619616 73.397228 
L 307.619616 72.598812 
L 309.637714 72.598812 
L 309.637714 71.800396 
L 309.782291 71.800396 
L 309.782291 71.00198 
L 309.959475 71.00198 
L 309.959475 70.203564 
L 310.119816 70.203564 
L 310.119816 69.405149 
L 310.976029 69.405149 
L 310.976029 68.606733 
L 316.409992 68.606733 
L 316.409992 67.808317 
L 316.745009 67.808317 
L 316.745009 67.009901 
L 319.173989 67.009901 
L 319.173989 66.211485 
L 320.025259 66.211485 
L 320.025259 65.413069 
L 321.299188 65.413069 
L 321.299188 64.614653 
L 321.85839 64.614653 
L 321.85839 63.816238 
L 322.870674 63.816238 
L 322.870674 63.017822 
L 324.414124 63.017822 
L 324.414124 62.219406 
L 327.769211 62.219406 
L 327.769211 61.42099 
L 328.772004 61.42099 
L 328.772004 60.622574 
L 330.482426 60.622574 
L 330.482426 59.824158 
L 331.797458 59.824158 
L 331.797458 59.025743 
L 332.261643 59.025743 
L 332.261643 58.227327 
L 332.410658 58.227327 
L 332.410658 57.428911 
L 339.061317 57.428911 
L 339.061317 56.630495 
L 339.963971 56.630495 
L 339.963971 55.832079 
L 340.551193 55.832079 
L 340.551193 55.033663 
L 344.959354 55.033663 
L 344.959354 54.235248 
L 345.333651 54.235248 
L 345.333651 53.436832 
L 347.561357 53.436832 
L 347.561357 52.638416 
L 348.080187 52.638416 
L 348.095402 51.041584 
L 350.657221 51.041584 
L 350.657221 50.243168 
L 351.877211 50.243168 
L 351.877211 49.444752 
L 353.877365 49.444752 
L 353.877365 48.646337 
L 354.104671 48.646337 
L 354.104671 47.847921 
L 355.295012 47.847921 
L 355.295012 47.049505 
L 356.46684 47.049505 
L 356.46684 46.251089 
L 356.632011 46.251089 
L 356.632011 45.452673 
L 358.358265 45.452673 
L 358.358265 44.654257 
L 360.170941 44.654257 
L 360.170941 43.855842 
L 364.239467 43.855842 
L 364.239467 43.057426 
L 364.695157 43.057426 
L 364.78742 41.460594 
L 368.607153 41.460594 
L 368.607153 40.662178 
L 370.933221 40.662178 
L 370.933221 39.863762 
L 373.14629 39.863762 
L 373.14629 39.065347 
L 374.379937 39.065347 
L 374.379937 38.266931 
L 377.15782 38.266931 
L 377.15782 37.468515 
L 379.812457 37.468515 
L 379.812457 36.670099 
L 380.352275 36.670099 
L 380.352275 35.871683 
L 382.715564 35.871683 
L 382.715564 35.073267 
L 382.919974 35.073267 
L 382.919974 34.274851 
L 386.976224 34.274851 
L 386.976224 33.476436 
L 387.216923 33.476436 
L 387.216923 32.67802 
L 387.670151 32.67802 
L 387.670151 31.879604 
L 388.805185 31.879604 
L 388.805185 31.081188 
L 389.056934 31.081188 
L 389.056934 30.282772 
L 390.990434 30.282772 
L 391.086428 28.685941 
L 391.64202 28.685941 
L 391.64202 27.887525 
L 391.883589 27.887525 
L 391.883589 27.089109 
L 392.134892 27.089109 
L 392.134892 26.290693 
L 392.65226 26.290693 
L 392.65226 25.492277 
L 393.593862 25.492277 
L 393.593862 24.693861 
L 394.283197 24.693861 
L 394.283197 23.895446 
L 394.58922 23.895446 
L 394.58922 23.09703 
L 395.292051 23.09703 
L 395.360556 21.500198 
L 395.870105 21.500198 
L 395.945917 19.903366 
L 396.594211 19.903366 
L 396.594211 19.10495 
L 398.248645 19.10495 
L 398.248645 18.306535 
L 400.917379 18.306535 
L 400.917379 17.508119 
L 401.75855 17.508119 
L 401.75855 16.709703 
L 404.434286 16.709703 
L 404.434286 15.911287 
L 404.586726 15.911287 
L 404.586726 15.112871 
L 405.11326 15.112871 
L 405.11326 14.314455 
L 406.91434 14.314455 
L 406.91434 13.51604 
L 410.66871 13.51604 
L 410.66871 12.717624 
L 411.211794 12.717624 
L 411.211794 11.919208 
L 412.012524 11.919208 
L 412.012524 11.120792 
L 413.542382 11.120792 
L 413.542382 10.322376 
L 416.269576 10.322376 
L 416.327253 8.725545 
L 424.778927 8.725545 
L 424.778927 7.927129 
L 425.422228 7.927129 
L 425.422228 7.128713 
L 431.100023 7.128713 
L 431.100023 6.330297 
L 431.100023 6.330297 
L 460.8 6.330297 
L 460.8 6.330297 
" style="fill:none;stroke:#bf00bf;stroke-linecap:square;stroke-width:1.5;"/>
   </g>
   <g id="line2d_24">
    <path clip-path="url(#pcadb64b63b)" d="M 195.770382 293.76 
L 195.770382 281.783762 
L 220.174421 281.783762 
L 220.174421 280.985347 
L 222.262523 280.985347 
L 222.262523 280.186931 
L 223.544365 280.186931 
L 223.544365 279.388515 
L 225.722626 279.388515 
L 225.726995 277.791683 
L 226.888577 277.791683 
L 226.888577 276.993267 
L 227.188751 276.993267 
L 227.188751 276.194851 
L 227.897431 276.194851 
L 227.952959 274.59802 
L 228.061704 274.59802 
L 228.061704 273.799604 
L 229.022009 273.799604 
L 229.022009 273.001188 
L 230.28789 273.001188 
L 230.388225 270.605941 
L 231.030743 270.605941 
L 231.030743 269.807525 
L 231.736177 269.807525 
L 231.736177 269.009109 
L 232.20618 269.009109 
L 232.20618 268.210693 
L 232.780909 268.210693 
L 232.887533 266.613861 
L 232.955637 266.613861 
L 233.009181 265.01703 
L 233.593489 265.01703 
L 233.593489 264.218614 
L 233.977941 264.218614 
L 233.988131 262.621782 
L 235.360015 262.621782 
L 235.360015 261.823366 
L 235.494611 261.823366 
L 235.600859 259.428119 
L 235.737863 259.428119 
L 235.737863 258.629703 
L 236.390597 258.629703 
L 236.390597 257.831287 
L 236.929559 257.831287 
L 236.929559 257.032871 
L 237.26888 257.032871 
L 237.275144 255.43604 
L 238.217766 255.43604 
L 238.217766 254.637624 
L 238.456954 254.637624 
L 238.565267 253.040792 
L 239.083434 253.040792 
L 239.110274 251.44396 
L 239.990357 251.44396 
L 239.990357 250.645545 
L 240.281148 250.645545 
L 240.281148 249.847129 
L 240.817743 249.847129 
L 240.834005 248.250297 
L 241.552961 248.250297 
L 241.552961 247.451881 
L 242.550643 247.451881 
L 242.628115 245.85505 
L 243.279345 245.85505 
L 243.279345 245.056634 
L 243.618788 245.056634 
L 243.654102 243.459802 
L 244.779729 243.459802 
L 244.779729 242.661386 
L 245.064997 242.661386 
L 245.064997 241.86297 
L 245.269223 241.86297 
L 245.269223 241.064554 
L 245.51535 241.064554 
L 245.51535 240.266139 
L 245.748319 240.266139 
L 245.748319 239.467723 
L 245.87456 239.467723 
L 245.966199 237.870891 
L 245.996789 237.870891 
L 246.013395 236.274059 
L 246.108356 236.274059 
L 246.128373 234.677228 
L 246.34622 234.677228 
L 246.434534 232.28198 
L 247.036198 232.28198 
L 247.12065 230.685149 
L 247.392783 230.685149 
L 247.392783 229.886733 
L 247.799441 229.886733 
L 247.819959 228.289901 
L 247.9669 228.289901 
L 247.9669 227.491485 
L 248.195932 227.491485 
L 248.195932 226.693069 
L 248.417034 226.693069 
L 248.525447 224.297822 
L 248.542801 224.297822 
L 248.542801 223.499406 
L 248.794129 223.499406 
L 248.794129 222.70099 
L 249.001465 222.70099 
L 249.001465 221.902574 
L 249.156113 221.902574 
L 249.156113 215.515248 
L 249.39298 215.515248 
L 249.479539 213.918416 
L 249.550394 213.918416 
L 249.594243 212.321584 
L 249.745099 212.321584 
L 249.745099 211.523168 
L 250.071721 211.523168 
L 250.071922 209.926337 
L 250.229031 209.926337 
L 250.229031 209.127921 
L 250.950642 209.127921 
L 250.950642 208.329505 
L 251.638355 208.329505 
L 251.638355 207.531089 
L 251.769836 207.531089 
L 251.851035 205.934257 
L 251.961223 205.934257 
L 251.961223 205.135842 
L 252.729162 205.135842 
L 252.729162 204.337426 
L 253.138853 204.337426 
L 253.138853 203.53901 
L 253.534956 203.53901 
L 253.534956 202.740594 
L 253.77385 202.740594 
L 253.77385 201.942178 
L 254.064175 201.942178 
L 254.130378 200.345347 
L 254.278482 200.345347 
L 254.347701 197.950099 
L 254.500145 197.950099 
L 254.500145 197.151683 
L 254.708962 197.151683 
L 254.708962 196.353267 
L 254.851813 196.353267 
L 254.927616 194.756436 
L 255.091077 194.756436 
L 255.091077 193.95802 
L 255.415442 193.95802 
L 255.415442 193.159604 
L 255.530341 193.159604 
L 255.530341 192.361188 
L 255.781072 192.361188 
L 255.863259 190.764356 
L 256.027727 190.764356 
L 256.027727 189.965941 
L 256.178076 189.965941 
L 256.206435 188.369109 
L 256.397607 188.369109 
L 256.409672 186.772277 
L 256.577528 186.772277 
L 256.660258 184.37703 
L 256.755609 184.37703 
L 256.837353 182.780198 
L 256.971021 182.780198 
L 257.000228 181.183366 
L 257.274664 181.183366 
L 257.274664 180.38495 
L 257.479885 180.38495 
L 257.562889 177.191287 
L 258.04195 177.191287 
L 258.104255 174.79604 
L 258.157221 174.79604 
L 258.172104 173.199208 
L 258.418038 173.199208 
L 258.458625 171.602376 
L 258.669492 171.602376 
L 258.669492 170.80396 
L 258.890662 170.80396 
L 258.890662 170.005545 
L 259.027103 170.005545 
L 259.027103 169.207129 
L 259.346848 169.207129 
L 259.346848 168.408713 
L 259.499414 168.408713 
L 259.502346 166.811881 
L 259.706127 166.811881 
L 259.706127 166.013465 
L 259.888701 166.013465 
L 259.888701 165.21505 
L 260.101185 165.21505 
L 260.177068 163.618218 
L 260.229073 163.618218 
L 260.229073 162.819802 
L 260.502334 162.819802 
L 260.549034 160.424554 
L 260.659564 160.424554 
L 260.755025 158.029307 
L 260.820333 158.029307 
L 260.917679 155.634059 
L 261.152571 155.634059 
L 261.152571 154.835644 
L 262.457051 154.835644 
L 262.56516 151.64198 
L 262.620639 151.64198 
L 262.620639 150.843564 
L 262.923522 150.843564 
L 262.923522 150.045149 
L 263.38844 150.045149 
L 263.45178 148.448317 
L 263.752662 148.448317 
L 263.816856 146.851485 
L 263.975991 146.851485 
L 263.975991 146.053069 
L 264.1528 146.053069 
L 264.1528 145.254653 
L 264.305488 145.254653 
L 264.397304 142.859406 
L 264.420752 142.859406 
L 264.52323 140.464158 
L 264.56759 140.464158 
L 264.64177 134.076832 
L 264.797211 134.076832 
L 264.864156 132.48 
L 264.937627 132.48 
L 265.038482 130.883168 
L 265.150152 130.883168 
L 265.16982 129.286337 
L 266.439297 129.286337 
L 266.439297 128.487921 
L 266.616353 128.487921 
L 266.616353 127.689505 
L 266.729702 127.689505 
L 266.729702 126.891089 
L 266.960565 126.891089 
L 266.999207 125.294257 
L 267.08589 125.294257 
L 267.08589 124.495842 
L 267.844501 124.495842 
L 267.844501 123.697426 
L 268.067361 123.697426 
L 268.067361 122.89901 
L 268.333125 122.89901 
L 268.362677 121.302178 
L 268.576724 121.302178 
L 268.576724 120.503762 
L 268.688739 120.503762 
L 268.688739 119.705347 
L 269.585468 119.705347 
L 269.657496 118.108515 
L 269.713852 118.108515 
L 269.713852 117.310099 
L 269.89697 117.310099 
L 269.89697 116.511683 
L 270.377702 116.511683 
L 270.377702 115.713267 
L 270.54961 115.713267 
L 270.590628 113.31802 
L 270.83382 113.31802 
L 270.83382 112.519604 
L 271.662269 112.519604 
L 271.729844 110.922772 
L 272.561797 110.922772 
L 272.632907 108.527525 
L 272.914899 108.527525 
L 272.99198 106.930693 
L 274.081099 106.930693 
L 274.081099 106.132277 
L 275.773021 106.132277 
L 275.773021 105.333861 
L 276.212816 105.333861 
L 276.276167 103.73703 
L 276.346487 103.73703 
L 276.346487 102.938614 
L 277.029791 102.938614 
L 277.120184 101.341782 
L 277.442619 101.341782 
L 277.442619 100.543366 
L 278.274503 100.543366 
L 278.274503 99.74495 
L 279.587141 99.74495 
L 279.587141 98.946535 
L 279.973703 98.946535 
L 279.988504 97.349703 
L 280.838021 97.349703 
L 280.838021 96.551287 
L 283.171781 96.551287 
L 283.171781 95.752871 
L 284.204651 95.752871 
L 284.204651 94.954455 
L 286.369156 94.954455 
L 286.369156 94.15604 
L 287.210915 94.15604 
L 287.210915 93.357624 
L 288.884171 93.357624 
L 288.935225 90.16396 
L 289.19538 90.16396 
L 289.19538 89.365545 
L 289.804511 89.365545 
L 289.804511 88.567129 
L 289.968132 88.567129 
L 289.968132 87.768713 
L 290.305873 87.768713 
L 290.305873 86.970297 
L 291.017569 86.970297 
L 291.017569 86.171881 
L 291.138023 86.171881 
L 291.138023 85.373465 
L 291.921956 85.373465 
L 291.998098 83.776634 
L 292.112327 83.776634 
L 292.112824 81.381386 
L 292.678553 81.381386 
L 292.678553 80.58297 
L 292.999998 80.58297 
L 292.999998 79.784554 
L 293.246557 79.784554 
L 293.246557 78.986139 
L 296.522209 78.986139 
L 296.522209 78.187723 
L 297.747481 78.187723 
L 297.747481 77.389307 
L 303.995298 77.389307 
L 303.995298 76.590891 
L 305.30181 76.590891 
L 305.30181 75.792475 
L 305.807156 75.792475 
L 305.810036 73.397228 
L 306.763341 73.397228 
L 306.763341 72.598812 
L 306.95448 72.598812 
L 306.956155 70.203564 
L 307.343161 70.203564 
L 307.343161 69.405149 
L 307.510615 69.405149 
L 307.510615 68.606733 
L 308.124815 68.606733 
L 308.124815 67.808317 
L 311.836913 67.808317 
L 311.836913 67.009901 
L 313.615961 67.009901 
L 313.615961 66.211485 
L 316.745009 66.211485 
L 316.745009 65.413069 
L 317.625806 65.413069 
L 317.625806 64.614653 
L 317.895394 64.614653 
L 317.895394 63.816238 
L 321.299188 63.816238 
L 321.299188 63.017822 
L 321.852576 63.017822 
L 321.852576 62.219406 
L 322.206575 62.219406 
L 322.206575 61.42099 
L 322.921506 61.42099 
L 322.921506 60.622574 
L 323.165359 60.622574 
L 323.165359 59.824158 
L 326.218176 59.824158 
L 326.218176 59.025743 
L 328.179818 59.025743 
L 328.179818 58.227327 
L 328.772004 58.227327 
L 328.772004 57.428911 
L 330.783856 57.428911 
L 330.820884 55.832079 
L 332.369325 55.832079 
L 332.369325 55.033663 
L 338.427333 55.033663 
L 338.427333 54.235248 
L 339.003671 54.235248 
L 339.003671 53.436832 
L 344.190086 53.436832 
L 344.190086 52.638416 
L 344.763065 52.638416 
L 344.763065 51.84 
L 345.439814 51.84 
L 345.439814 51.041584 
L 346.262188 51.041584 
L 346.262188 50.243168 
L 347.357354 50.243168 
L 347.357354 49.444752 
L 347.724204 49.444752 
L 347.724204 48.646337 
L 348.429565 48.646337 
L 348.429565 47.847921 
L 350.34657 47.847921 
L 350.34657 47.049505 
L 353.162227 47.049505 
L 353.215227 45.452673 
L 353.906198 45.452673 
L 353.906198 44.654257 
L 354.170381 44.654257 
L 354.170381 43.855842 
L 358.041245 43.855842 
L 358.041245 43.057426 
L 361.106309 43.057426 
L 361.106309 42.25901 
L 361.269222 42.25901 
L 361.269222 41.460594 
L 363.807959 41.460594 
L 363.807959 40.662178 
L 364.308483 40.662178 
L 364.308483 39.863762 
L 366.00104 39.863762 
L 366.00104 39.065347 
L 366.776989 39.065347 
L 366.776989 38.266931 
L 367.821779 38.266931 
L 367.821779 37.468515 
L 371.708068 37.468515 
L 371.708068 36.670099 
L 373.566556 36.670099 
L 373.566556 35.871683 
L 378.287459 35.871683 
L 378.287459 35.073267 
L 380.335948 35.073267 
L 380.335948 34.274851 
L 382.708427 34.274851 
L 382.708427 33.476436 
L 384.951463 33.476436 
L 384.951463 32.67802 
L 385.76771 32.67802 
L 385.76771 31.879604 
L 385.968958 31.879604 
L 385.968958 31.081188 
L 386.775332 31.081188 
L 386.775332 30.282772 
L 387.559509 30.282772 
L 387.559509 29.484356 
L 387.913621 29.484356 
L 387.913621 28.685941 
L 388.703858 28.685941 
L 388.703858 27.887525 
L 389.047116 27.887525 
L 389.047116 27.089109 
L 389.891221 27.089109 
L 389.891221 26.290693 
L 391.30243 26.290693 
L 391.30243 25.492277 
L 391.693255 25.492277 
L 391.693255 24.693861 
L 392.119513 24.693861 
L 392.119513 23.895446 
L 392.708571 23.895446 
L 392.708571 23.09703 
L 393.258331 23.09703 
L 393.258331 22.298614 
L 393.447155 22.298614 
L 393.447155 21.500198 
L 394.216244 21.500198 
L 394.216244 20.701782 
L 394.990009 20.701782 
L 394.990009 19.903366 
L 395.360556 19.903366 
L 395.360556 19.10495 
L 395.663916 19.10495 
L 395.663916 18.306535 
L 398.038754 18.306535 
L 398.038754 17.508119 
L 398.317161 17.508119 
L 398.317161 16.709703 
L 403.059265 16.709703 
L 403.059265 15.911287 
L 403.306857 15.911287 
L 403.389936 14.314455 
L 404.535183 14.314455 
L 404.618404 12.717624 
L 406.964617 12.717624 
L 406.964617 11.919208 
L 409.307904 11.919208 
L 409.307904 11.120792 
L 411.800501 11.120792 
L 411.800501 10.322376 
L 413.291132 10.322376 
L 413.291132 9.52396 
L 415.391634 9.52396 
L 415.391634 8.725545 
L 420.811509 8.725545 
L 420.811509 7.927129 
L 424.478085 7.927129 
L 424.478085 7.128713 
L 428.89813 7.128713 
L 428.89813 6.330297 
L 428.89813 6.330297 
L 460.8 6.330297 
L 460.8 6.330297 
" style="fill:none;stroke:#000000;stroke-linecap:square;stroke-width:1.5;"/>
   </g>
   <g id="line2d_25">
    <path clip-path="url(#pcadb64b63b)" d="M 177.090549 293.76 
L 177.090549 292.961584 
L 195.770382 292.961584 
L 195.770382 280.985347 
L 197.005857 280.985347 
L 197.005857 280.186931 
L 208.635713 280.186931 
L 208.635713 279.388515 
L 213.044246 279.388515 
L 213.044246 278.590099 
L 214.803947 278.590099 
L 214.803947 277.791683 
L 218.322497 277.791683 
L 218.322497 276.993267 
L 218.738552 276.993267 
L 218.738552 276.194851 
L 219.54927 276.194851 
L 219.54927 275.396436 
L 219.738103 275.396436 
L 219.738103 273.799604 
L 222.586552 273.799604 
L 222.662058 272.202772 
L 223.413943 272.202772 
L 223.413943 271.404356 
L 223.699864 271.404356 
L 223.699864 270.605941 
L 224.07135 270.605941 
L 224.07135 269.807525 
L 224.493408 269.807525 
L 224.493408 269.009109 
L 225.130613 269.009109 
L 225.130613 268.210693 
L 225.445003 268.210693 
L 225.445003 267.412277 
L 225.565164 267.412277 
L 225.565164 266.613861 
L 225.722626 266.613861 
L 225.722626 265.815446 
L 226.180055 265.815446 
L 226.247083 263.420198 
L 226.355121 263.420198 
L 226.395301 261.823366 
L 226.834524 261.823366 
L 226.834524 261.02495 
L 227.091581 261.02495 
L 227.091581 260.226535 
L 227.545665 260.226535 
L 227.545665 258.629703 
L 227.658117 258.629703 
L 227.725886 257.032871 
L 227.952959 257.032871 
L 228.061704 255.43604 
L 228.65644 255.43604 
L 228.65644 254.637624 
L 228.978992 254.637624 
L 229.022009 252.242376 
L 229.179948 252.242376 
L 229.179948 251.44396 
L 229.469789 251.44396 
L 229.469789 250.645545 
L 230.269751 250.645545 
L 230.287435 249.048713 
L 230.482902 249.048713 
L 230.482902 248.250297 
L 230.922777 248.250297 
L 231.030743 245.85505 
L 231.214151 245.85505 
L 231.322327 243.459802 
L 232.20618 243.459802 
L 232.20618 242.661386 
L 232.668849 242.661386 
L 232.73811 241.064554 
L 232.887533 241.064554 
L 232.887533 240.266139 
L 233.593489 240.266139 
L 233.629996 238.669307 
L 233.71324 238.669307 
L 233.71324 237.870891 
L 233.977941 237.870891 
L 234.044435 236.274059 
L 234.162421 236.274059 
L 234.162421 235.475644 
L 234.988954 235.475644 
L 234.988954 234.677228 
L 235.279748 234.677228 
L 235.279748 233.878812 
L 235.412846 233.878812 
L 235.412846 233.080396 
L 235.674879 233.080396 
L 235.675085 231.483564 
L 236.654757 231.483564 
L 236.725848 229.886733 
L 236.784646 229.886733 
L 236.784646 229.088317 
L 237.138498 229.088317 
L 237.15625 227.491485 
L 237.376959 227.491485 
L 237.376959 226.693069 
L 237.494702 226.693069 
L 237.494702 225.894653 
L 237.803406 225.894653 
L 237.803406 225.096238 
L 238.124727 225.096238 
L 238.124727 224.297822 
L 238.527035 224.297822 
L 238.608725 222.70099 
L 238.763735 222.70099 
L 238.763735 221.902574 
L 239.128412 221.902574 
L 239.128412 221.104158 
L 239.585392 221.104158 
L 239.589575 219.507327 
L 241.203155 219.507327 
L 241.309339 217.112079 
L 241.343561 217.112079 
L 241.445821 215.515248 
L 241.552961 215.515248 
L 241.577847 213.918416 
L 241.684766 213.918416 
L 241.684766 213.12 
L 242.128071 213.12 
L 242.128071 212.321584 
L 242.546818 212.321584 
L 242.546818 211.523168 
L 243.03116 211.523168 
L 243.03116 210.724752 
L 243.633663 210.724752 
L 243.654102 209.127921 
L 244.204155 209.127921 
L 244.204155 208.329505 
L 244.4523 208.329505 
L 244.4523 207.531089 
L 244.698867 207.531089 
L 244.698867 206.732673 
L 245.01325 206.732673 
L 245.064997 205.135842 
L 245.192068 205.135842 
L 245.192068 204.337426 
L 245.377933 204.337426 
L 245.445041 201.942178 
L 245.51535 201.942178 
L 245.51535 201.143762 
L 245.686015 201.143762 
L 245.686015 200.345347 
L 246.53687 200.345347 
L 246.53687 199.546931 
L 247.06394 199.546931 
L 247.06394 198.748515 
L 247.799441 198.748515 
L 247.799441 197.950099 
L 247.917265 197.950099 
L 247.917265 197.151683 
L 248.108861 197.151683 
L 248.195932 195.554851 
L 248.417034 195.554851 
L 248.510427 193.95802 
L 248.865683 193.95802 
L 248.865683 193.159604 
L 249.047884 193.159604 
L 249.156113 190.764356 
L 249.588663 190.764356 
L 249.588663 189.965941 
L 249.743582 189.965941 
L 249.776663 188.369109 
L 249.930096 188.369109 
L 249.954403 185.973861 
L 250.229031 185.973861 
L 250.229031 185.175446 
L 250.630151 185.175446 
L 250.657766 182.780198 
L 251.129182 182.780198 
L 251.129182 181.981782 
L 251.303444 181.981782 
L 251.303444 181.183366 
L 251.481528 181.183366 
L 251.509258 178.788119 
L 252.134326 178.788119 
L 252.237426 177.191287 
L 252.250747 177.191287 
L 252.296088 174.79604 
L 252.610289 174.79604 
L 252.643783 173.199208 
L 253.020604 173.199208 
L 253.020604 172.400792 
L 253.138853 172.400792 
L 253.232991 170.80396 
L 253.592511 170.80396 
L 253.610432 169.207129 
L 253.77385 169.207129 
L 253.807579 166.811881 
L 254.059461 166.811881 
L 254.158818 163.618218 
L 254.255746 163.618218 
L 254.255746 162.819802 
L 254.378078 162.819802 
L 254.378078 162.021386 
L 254.679789 162.021386 
L 254.739369 160.424554 
L 254.927616 160.424554 
L 255.009213 158.827723 
L 255.225163 158.827723 
L 255.308308 156.432475 
L 255.34403 156.432475 
L 255.4461 154.835644 
L 255.957503 154.835644 
L 256.027727 152.440396 
L 256.397607 152.440396 
L 256.397607 151.64198 
L 256.690616 151.64198 
L 256.719568 150.045149 
L 256.816255 150.045149 
L 256.816255 148.448317 
L 256.977422 148.448317 
L 257.042702 146.851485 
L 257.11686 146.851485 
L 257.11686 146.053069 
L 257.319164 146.053069 
L 257.410095 143.657822 
L 257.563244 143.657822 
L 257.665231 141.262574 
L 258.139254 141.262574 
L 258.233766 138.068911 
L 258.421403 138.068911 
L 258.421403 137.270495 
L 258.571628 137.270495 
L 258.571628 136.472079 
L 258.798861 136.472079 
L 258.895734 134.875248 
L 258.913479 134.875248 
L 258.913479 134.076832 
L 259.027103 134.076832 
L 259.027103 133.278416 
L 259.227268 133.278416 
L 259.227268 132.48 
L 259.356774 132.48 
L 259.431369 130.883168 
L 259.495836 130.883168 
L 259.530924 128.487921 
L 259.924064 128.487921 
L 260.019393 126.891089 
L 260.177068 126.891089 
L 260.241213 125.294257 
L 260.301281 125.294257 
L 260.301281 124.495842 
L 260.491024 124.495842 
L 260.491024 123.697426 
L 260.64259 123.697426 
L 260.744659 121.302178 
L 261.080336 121.302178 
L 261.099022 119.705347 
L 261.431725 119.705347 
L 261.431725 118.906931 
L 261.594801 118.906931 
L 261.594801 118.108515 
L 261.716131 118.108515 
L 261.716131 117.310099 
L 261.909345 117.310099 
L 261.909345 115.713267 
L 262.39975 115.713267 
L 262.487413 111.721188 
L 262.735485 111.721188 
L 262.735485 110.922772 
L 263.075768 110.922772 
L 263.075768 110.124356 
L 263.27555 110.124356 
L 263.374772 107.729109 
L 263.38844 107.729109 
L 263.38844 106.930693 
L 263.654869 106.930693 
L 263.654869 106.132277 
L 263.787517 106.132277 
L 263.865485 104.535446 
L 264.565928 104.535446 
L 264.639569 102.938614 
L 264.694223 102.938614 
L 264.694223 102.140198 
L 264.844656 102.140198 
L 264.892671 100.543366 
L 265.016004 100.543366 
L 265.016004 99.74495 
L 265.215752 99.74495 
L 265.215752 98.946535 
L 265.703268 98.946535 
L 265.703268 98.148119 
L 265.893505 98.148119 
L 265.951689 96.551287 
L 266.602443 96.551287 
L 266.602443 95.752871 
L 266.85609 95.752871 
L 266.926765 94.15604 
L 267.130861 94.15604 
L 267.130861 93.357624 
L 267.633339 93.357624 
L 267.633339 92.559208 
L 267.96618 92.559208 
L 267.96618 91.760792 
L 268.095915 91.760792 
L 268.095915 90.962376 
L 268.222484 90.962376 
L 268.222484 90.16396 
L 268.915044 90.16396 
L 268.915044 89.365545 
L 269.071687 89.365545 
L 269.086292 87.768713 
L 270.067149 87.768713 
L 270.067149 86.970297 
L 271.158916 86.970297 
L 271.158916 86.171881 
L 271.662269 86.171881 
L 271.751687 84.57505 
L 272.382667 84.57505 
L 272.382667 83.776634 
L 272.525186 83.776634 
L 272.525186 82.978218 
L 273.698879 82.978218 
L 273.698879 82.179802 
L 274.172491 82.179802 
L 274.172491 81.381386 
L 275.519375 81.381386 
L 275.519375 80.58297 
L 276.07382 80.58297 
L 276.108538 78.187723 
L 279.62478 78.187723 
L 279.62478 77.389307 
L 279.988504 77.389307 
L 279.988504 76.590891 
L 280.558718 76.590891 
L 280.558718 75.792475 
L 280.821243 75.792475 
L 280.821243 74.994059 
L 281.252734 74.994059 
L 281.252734 74.195644 
L 281.837988 74.195644 
L 281.837988 73.397228 
L 281.9766 73.397228 
L 281.9766 72.598812 
L 282.956357 72.598812 
L 282.956357 71.800396 
L 284.557751 71.800396 
L 284.557751 71.00198 
L 286.366523 71.00198 
L 286.366523 70.203564 
L 286.517119 70.203564 
L 286.58689 68.606733 
L 287.172557 68.606733 
L 287.231281 67.009901 
L 287.61912 67.009901 
L 287.61912 66.211485 
L 287.97149 66.211485 
L 287.97149 65.413069 
L 288.419696 65.413069 
L 288.419696 64.614653 
L 289.119442 64.614653 
L 289.119442 63.816238 
L 289.692539 63.816238 
L 289.692539 63.017822 
L 289.867498 63.017822 
L 289.867498 62.219406 
L 294.220841 62.219406 
L 294.220841 61.42099 
L 295.945833 61.42099 
L 295.945833 60.622574 
L 296.457657 60.622574 
L 296.457657 59.824158 
L 297.103475 59.824158 
L 297.103475 59.025743 
L 297.358208 59.025743 
L 297.358208 58.227327 
L 303.479483 58.227327 
L 303.479483 57.428911 
L 306.540845 57.428911 
L 306.540845 56.630495 
L 309.711836 56.630495 
L 309.711836 55.832079 
L 310.003855 55.832079 
L 310.003855 55.033663 
L 310.98156 55.033663 
L 310.98156 54.235248 
L 314.72373 54.235248 
L 314.72373 53.436832 
L 317.702586 53.436832 
L 317.702586 52.638416 
L 321.10478 52.638416 
L 321.10478 51.84 
L 321.366061 51.84 
L 321.366061 51.041584 
L 322.408333 51.041584 
L 322.408333 50.243168 
L 324.086677 50.243168 
L 324.086677 49.444752 
L 326.441243 49.444752 
L 326.441243 48.646337 
L 329.646836 48.646337 
L 329.646836 47.847921 
L 331.00524 47.847921 
L 331.00524 47.049505 
L 331.423549 47.049505 
L 331.463891 45.452673 
L 331.585022 45.452673 
L 331.585022 44.654257 
L 333.519398 44.654257 
L 333.519398 43.855842 
L 335.697772 43.855842 
L 335.697772 43.057426 
L 336.640806 43.057426 
L 336.640806 42.25901 
L 337.747356 42.25901 
L 337.747356 41.460594 
L 339.091707 41.460594 
L 339.091707 40.662178 
L 341.180102 40.662178 
L 341.180102 39.863762 
L 345.479851 39.863762 
L 345.479851 39.065347 
L 345.911799 39.065347 
L 345.911799 38.266931 
L 346.388065 38.266931 
L 346.388065 37.468515 
L 347.250144 37.468515 
L 347.250144 36.670099 
L 347.812444 36.670099 
L 347.812444 35.871683 
L 349.155698 35.871683 
L 349.155698 35.073267 
L 349.68182 35.073267 
L 349.68182 34.274851 
L 351.863926 34.274851 
L 351.863926 33.476436 
L 352.174669 33.476436 
L 352.174669 32.67802 
L 353.757562 32.67802 
L 353.757562 31.879604 
L 354.962244 31.879604 
L 354.962244 31.081188 
L 356.243927 31.081188 
L 356.243927 30.282772 
L 356.426201 30.282772 
L 356.426201 29.484356 
L 356.932466 29.484356 
L 357.025898 27.887525 
L 357.074761 27.887525 
L 357.074761 27.089109 
L 359.682692 27.089109 
L 359.682692 26.290693 
L 366.882623 26.290693 
L 366.882623 25.492277 
L 367.076259 25.492277 
L 367.076259 24.693861 
L 368.421433 24.693861 
L 368.421433 23.895446 
L 369.330863 23.895446 
L 369.330863 23.09703 
L 370.650188 23.09703 
L 370.650188 22.298614 
L 372.381119 22.298614 
L 372.381119 21.500198 
L 374.483435 21.500198 
L 374.483435 20.701782 
L 375.506513 20.701782 
L 375.506513 19.903366 
L 378.977908 19.903366 
L 378.977908 19.10495 
L 379.911322 19.10495 
L 379.911322 18.306535 
L 380.800812 18.306535 
L 380.800812 17.508119 
L 386.337098 17.508119 
L 386.337098 16.709703 
L 387.787515 16.709703 
L 387.787515 15.911287 
L 391.310676 15.911287 
L 391.310676 15.112871 
L 391.719817 15.112871 
L 391.799787 13.51604 
L 391.912809 13.51604 
L 391.912809 12.717624 
L 393.006464 12.717624 
L 393.006464 11.919208 
L 399.566337 11.919208 
L 399.566337 11.120792 
L 403.56507 11.120792 
L 403.56507 10.322376 
L 405.865828 10.322376 
L 405.865828 9.52396 
L 408.655535 9.52396 
L 408.732658 7.927129 
L 409.554984 7.927129 
L 409.554984 7.128713 
L 417.829663 7.128713 
L 417.829663 6.330297 
L 417.829663 6.330297 
L 460.8 6.330297 
L 460.8 6.330297 
" style="fill:none;stroke:#00bfbf;stroke-linecap:square;stroke-width:1.5;"/>
   </g>
   <g id="line2d_26">
    <path clip-path="url(#pcadb64b63b)" d="M -0.114413 293.76 
L -0.114413 283.380594 
L 34.389118 283.380594 
L 34.389118 282.582178 
L 73.078697 282.582178 
L 73.078697 281.783762 
L 79.316158 281.783762 
L 79.316158 280.985347 
L 101.530083 280.985347 
L 101.530083 280.186931 
L 110.292536 280.186931 
L 110.292536 279.388515 
L 115.878626 279.388515 
L 115.878626 278.590099 
L 116.157953 278.590099 
L 116.157953 277.791683 
L 120.355263 277.791683 
L 120.355263 276.993267 
L 121.096547 276.993267 
L 121.096547 276.194851 
L 131.44038 276.194851 
L 131.44038 275.396436 
L 136.078508 275.396436 
L 136.078508 274.59802 
L 138.444416 274.59802 
L 138.444416 273.799604 
L 144.906387 273.799604 
L 144.906387 273.001188 
L 145.481781 273.001188 
L 145.481781 272.202772 
L 147.24557 272.202772 
L 147.24557 271.404356 
L 152.264342 271.404356 
L 152.264342 270.605941 
L 152.580456 270.605941 
L 152.580456 269.807525 
L 154.683385 269.807525 
L 154.683385 269.009109 
L 158.262663 269.009109 
L 158.295162 267.412277 
L 158.920797 267.412277 
L 158.920797 266.613861 
L 161.686176 266.613861 
L 161.686176 265.815446 
L 166.418408 265.815446 
L 166.418408 265.01703 
L 167.45791 265.01703 
L 167.45791 264.218614 
L 170.251689 264.218614 
L 170.251689 263.420198 
L 170.5923 263.420198 
L 170.5923 262.621782 
L 172.073618 262.621782 
L 172.073618 261.823366 
L 172.801831 261.823366 
L 172.801831 261.02495 
L 173.008955 261.02495 
L 173.008955 260.226535 
L 173.990652 260.226535 
L 173.990652 259.428119 
L 174.219152 259.428119 
L 174.219152 258.629703 
L 176.598489 258.629703 
L 176.598489 257.831287 
L 177.237091 257.831287 
L 177.237091 257.032871 
L 177.428633 257.032871 
L 177.428633 256.234455 
L 181.492633 256.234455 
L 181.492633 255.43604 
L 182.40747 255.43604 
L 182.40747 254.637624 
L 188.713638 254.637624 
L 188.713638 253.839208 
L 190.517588 253.839208 
L 190.517588 253.040792 
L 191.029968 253.040792 
L 191.130554 251.44396 
L 191.330081 251.44396 
L 191.330081 250.645545 
L 191.70961 250.645545 
L 191.70961 249.847129 
L 192.299684 249.847129 
L 192.299684 249.048713 
L 193.932917 249.048713 
L 193.932917 248.250297 
L 194.848383 248.250297 
L 194.848383 247.451881 
L 195.770382 247.451881 
L 195.834107 237.870891 
L 197.464344 237.870891 
L 197.464344 237.072475 
L 198.140749 237.072475 
L 198.140749 236.274059 
L 198.684492 236.274059 
L 198.684492 235.475644 
L 201.451633 235.475644 
L 201.451633 234.677228 
L 202.075992 234.677228 
L 202.075992 233.878812 
L 202.598152 233.878812 
L 202.598152 233.080396 
L 202.810501 233.080396 
L 202.810501 232.28198 
L 203.612658 232.28198 
L 203.612658 231.483564 
L 203.928851 231.483564 
L 203.928851 230.685149 
L 204.817915 230.685149 
L 204.817915 229.886733 
L 205.077061 229.886733 
L 205.077061 229.088317 
L 206.248629 229.088317 
L 206.357157 227.491485 
L 206.913174 227.491485 
L 206.995908 225.894653 
L 207.816623 225.894653 
L 207.883165 224.297822 
L 208.061707 224.297822 
L 208.061707 223.499406 
L 208.274701 223.499406 
L 208.306939 221.902574 
L 208.386422 221.902574 
L 208.386422 221.104158 
L 208.776134 221.104158 
L 208.776134 220.305743 
L 209.435636 220.305743 
L 209.435636 219.507327 
L 210.080357 219.507327 
L 210.080357 218.708911 
L 210.482162 218.708911 
L 210.482162 217.910495 
L 211.427961 217.910495 
L 211.427961 217.112079 
L 212.361758 217.112079 
L 212.361758 216.313663 
L 212.696973 216.313663 
L 212.696973 215.515248 
L 214.142131 215.515248 
L 214.235325 213.918416 
L 214.736248 213.918416 
L 214.736248 213.12 
L 215.158431 213.12 
L 215.220473 211.523168 
L 215.485442 211.523168 
L 215.54394 209.127921 
L 215.657643 209.127921 
L 215.756863 206.732673 
L 217.095688 206.732673 
L 217.095688 205.934257 
L 217.596327 205.934257 
L 217.596327 205.135842 
L 217.900301 205.135842 
L 217.984788 203.53901 
L 218.130342 203.53901 
L 218.134557 201.942178 
L 218.471395 201.942178 
L 218.471395 201.143762 
L 218.908018 201.143762 
L 218.908018 199.546931 
L 219.05765 199.546931 
L 219.133825 197.151683 
L 219.250929 197.151683 
L 219.250929 196.353267 
L 219.37648 196.353267 
L 219.37648 195.554851 
L 219.539717 195.554851 
L 219.539717 194.756436 
L 219.993001 194.756436 
L 219.993001 193.95802 
L 220.619855 193.95802 
L 220.619855 193.159604 
L 220.852046 193.159604 
L 220.852046 191.562772 
L 221.090707 191.562772 
L 221.090707 190.764356 
L 221.516615 190.764356 
L 221.516615 189.965941 
L 221.844205 189.965941 
L 221.844205 189.167525 
L 222.109438 189.167525 
L 222.146743 186.772277 
L 222.545889 186.772277 
L 222.616491 185.175446 
L 222.713258 185.175446 
L 222.816081 182.780198 
L 222.880987 182.780198 
L 222.908301 180.38495 
L 223.399686 180.38495 
L 223.399686 179.586535 
L 223.988439 179.586535 
L 223.988439 178.788119 
L 224.140172 178.788119 
L 224.140172 177.989703 
L 224.442993 177.989703 
L 224.541595 176.392871 
L 224.794306 176.392871 
L 224.870669 173.997624 
L 225.053917 173.997624 
L 225.053917 173.199208 
L 225.477496 173.199208 
L 225.544339 171.602376 
L 226.6835 171.602376 
L 226.786438 170.005545 
L 226.824647 170.005545 
L 226.824647 169.207129 
L 227.256303 169.207129 
L 227.256303 168.408713 
L 227.677657 168.408713 
L 227.677657 167.610297 
L 227.91224 167.610297 
L 227.91224 166.811881 
L 228.09128 166.811881 
L 228.09128 166.013465 
L 228.551383 166.013465 
L 228.551383 165.21505 
L 229.191412 165.21505 
L 229.244189 163.618218 
L 229.833427 163.618218 
L 229.833427 162.819802 
L 229.985802 162.819802 
L 229.985802 162.021386 
L 230.220602 162.021386 
L 230.220602 161.22297 
L 230.482902 161.22297 
L 230.482902 160.424554 
L 230.999364 160.424554 
L 230.999364 159.626139 
L 231.645861 159.626139 
L 231.645861 158.827723 
L 231.84629 158.827723 
L 231.862451 157.230891 
L 232.125871 157.230891 
L 232.125871 156.432475 
L 232.606453 156.432475 
L 232.606453 155.634059 
L 232.921355 155.634059 
L 232.921355 154.835644 
L 233.337183 154.835644 
L 233.337183 154.037228 
L 233.740793 154.037228 
L 233.817389 150.843564 
L 233.918813 150.843564 
L 233.918813 150.045149 
L 234.086501 150.045149 
L 234.086926 148.448317 
L 234.292784 148.448317 
L 234.292784 147.649901 
L 234.432954 147.649901 
L 234.445066 146.053069 
L 235.157421 146.053069 
L 235.24577 142.859406 
L 235.407668 142.859406 
L 235.407668 142.06099 
L 236.064898 142.06099 
L 236.064898 141.262574 
L 236.330513 141.262574 
L 236.408655 139.665743 
L 236.629828 139.665743 
L 236.629828 138.867327 
L 237.199253 138.867327 
L 237.199253 138.068911 
L 237.488601 138.068911 
L 237.585726 136.472079 
L 237.90543 136.472079 
L 237.90543 135.673663 
L 238.045728 135.673663 
L 238.045728 134.875248 
L 238.162424 134.875248 
L 238.162424 134.076832 
L 238.304132 134.076832 
L 238.304132 133.278416 
L 238.444521 133.278416 
L 238.444521 132.48 
L 238.774327 132.48 
L 238.795013 130.084752 
L 239.056565 130.084752 
L 239.056565 129.286337 
L 239.281618 129.286337 
L 239.281618 128.487921 
L 239.396404 128.487921 
L 239.396404 127.689505 
L 239.769965 127.689505 
L 239.769965 126.891089 
L 240.501609 126.891089 
L 240.603412 125.294257 
L 240.65902 125.294257 
L 240.65902 124.495842 
L 240.788764 124.495842 
L 240.806485 122.89901 
L 241.19738 122.89901 
L 241.19738 122.100594 
L 241.364927 122.100594 
L 241.364927 121.302178 
L 241.552961 121.302178 
L 241.552961 120.503762 
L 241.739172 120.503762 
L 241.761477 118.108515 
L 242.062347 118.108515 
L 242.062347 117.310099 
L 242.329657 117.310099 
L 242.329657 116.511683 
L 242.769968 116.511683 
L 242.769968 115.713267 
L 243.044723 115.713267 
L 243.044723 114.914851 
L 243.212412 114.914851 
L 243.212412 114.116436 
L 243.954098 114.116436 
L 243.954098 113.31802 
L 244.107419 113.31802 
L 244.147677 111.721188 
L 244.342131 111.721188 
L 244.342131 110.922772 
L 244.92969 110.922772 
L 244.932289 109.325941 
L 245.110637 109.325941 
L 245.110637 108.527525 
L 246.009276 108.527525 
L 246.01326 106.132277 
L 246.507798 106.132277 
L 246.507798 105.333861 
L 246.798668 105.333861 
L 246.887685 102.938614 
L 247.06394 102.938614 
L 247.075493 101.341782 
L 247.450851 101.341782 
L 247.547707 98.946535 
L 247.599489 98.946535 
L 247.665092 96.551287 
L 247.735529 96.551287 
L 247.735529 95.752871 
L 247.869584 95.752871 
L 247.961999 94.15604 
L 248.040353 94.15604 
L 248.040353 93.357624 
L 248.412641 93.357624 
L 248.487103 90.962376 
L 248.751467 90.962376 
L 248.751467 90.16396 
L 248.880998 90.16396 
L 248.880998 89.365545 
L 249.129494 89.365545 
L 249.21931 86.171881 
L 249.256683 86.171881 
L 249.256683 85.373465 
L 249.443511 85.373465 
L 249.541001 83.776634 
L 249.768654 83.776634 
L 249.768654 82.978218 
L 250.095511 82.978218 
L 250.095511 82.179802 
L 250.425384 82.179802 
L 250.527006 80.58297 
L 250.540633 80.58297 
L 250.540633 79.784554 
L 250.755701 79.784554 
L 250.821693 78.187723 
L 251.060109 78.187723 
L 251.158528 76.590891 
L 251.185022 76.590891 
L 251.185022 75.792475 
L 251.319558 75.792475 
L 251.319558 74.994059 
L 251.760191 74.994059 
L 251.760191 74.195644 
L 251.876946 74.195644 
L 251.876946 73.397228 
L 252.354092 73.397228 
L 252.408245 71.00198 
L 252.525409 71.00198 
L 252.525409 70.203564 
L 252.722267 70.203564 
L 252.819666 67.808317 
L 252.867046 67.808317 
L 252.96798 64.614653 
L 253.010548 64.614653 
L 253.010548 63.816238 
L 253.197977 63.816238 
L 253.197977 63.017822 
L 254.002622 63.017822 
L 254.002622 62.219406 
L 254.281436 62.219406 
L 254.353653 59.824158 
L 254.426151 59.824158 
L 254.426151 59.025743 
L 254.556743 59.025743 
L 254.556743 58.227327 
L 255.019732 58.227327 
L 255.019732 57.428911 
L 255.654335 57.428911 
L 255.654335 56.630495 
L 255.942496 56.630495 
L 255.942496 55.832079 
L 256.555113 55.832079 
L 256.555113 55.033663 
L 256.71286 55.033663 
L 256.71286 54.235248 
L 256.877168 54.235248 
L 256.877168 53.436832 
L 257.945583 53.436832 
L 257.945583 52.638416 
L 258.415332 52.638416 
L 258.415332 51.84 
L 258.935462 51.84 
L 258.935462 51.041584 
L 259.098669 51.041584 
L 259.098669 50.243168 
L 259.320491 50.243168 
L 259.320491 49.444752 
L 259.666554 49.444752 
L 259.666554 48.646337 
L 259.787745 48.646337 
L 259.840611 47.049505 
L 260.152604 47.049505 
L 260.152604 46.251089 
L 260.712496 46.251089 
L 260.712496 45.452673 
L 261.312075 45.452673 
L 261.312075 44.654257 
L 262.185191 44.654257 
L 262.185191 43.855842 
L 262.791872 43.855842 
L 262.880419 42.25901 
L 263.150311 42.25901 
L 263.150311 41.460594 
L 263.425722 41.460594 
L 263.425722 40.662178 
L 264.587373 40.662178 
L 264.587373 39.863762 
L 265.817026 39.863762 
L 265.817026 39.065347 
L 266.804673 39.065347 
L 266.804673 38.266931 
L 267.086588 38.266931 
L 267.086588 37.468515 
L 269.150536 37.468515 
L 269.150536 36.670099 
L 271.086313 36.670099 
L 271.148503 35.073267 
L 274.736162 35.073267 
L 274.736162 34.274851 
L 279.237916 34.274851 
L 279.237916 33.476436 
L 279.885866 33.476436 
L 279.885866 32.67802 
L 280.365658 32.67802 
L 280.365658 31.879604 
L 282.954221 31.879604 
L 282.954221 31.081188 
L 285.866108 31.081188 
L 285.866108 30.282772 
L 286.18519 30.282772 
L 286.18519 29.484356 
L 287.120931 29.484356 
L 287.120931 28.685941 
L 288.457969 28.685941 
L 288.567317 27.089109 
L 289.986008 27.089109 
L 289.986008 26.290693 
L 290.521428 26.290693 
L 290.521428 25.492277 
L 291.463697 25.492277 
L 291.463697 24.693861 
L 297.703037 24.693861 
L 297.703037 23.895446 
L 301.185191 23.895446 
L 301.185191 23.09703 
L 309.223586 23.09703 
L 309.223586 22.298614 
L 310.003855 22.298614 
L 310.003855 21.500198 
L 310.800053 21.500198 
L 310.800053 20.701782 
L 311.940442 20.701782 
L 312.006845 19.10495 
L 314.122947 19.10495 
L 314.122947 18.306535 
L 314.497483 18.306535 
L 314.497483 17.508119 
L 316.656549 17.508119 
L 316.656549 16.709703 
L 318.198528 16.709703 
L 318.198528 15.911287 
L 319.148309 15.911287 
L 319.148309 15.112871 
L 319.519284 15.112871 
L 319.519284 14.314455 
L 319.854586 14.314455 
L 319.854586 13.51604 
L 320.11197 13.51604 
L 320.11197 12.717624 
L 321.896423 12.717624 
L 321.896423 11.919208 
L 325.771524 11.919208 
L 325.771524 11.120792 
L 326.614375 11.120792 
L 326.614375 10.322376 
L 329.166077 10.322376 
L 329.166077 9.52396 
L 332.061186 9.52396 
L 332.071423 7.927129 
L 343.780367 7.927129 
L 343.780367 7.128713 
L 345.801308 7.128713 
L 345.801308 6.330297 
L 345.801308 6.330297 
L 460.8 6.330297 
L 460.8 6.330297 
" style="fill:none;stroke:#bf00bf;stroke-linecap:square;stroke-width:1.5;"/>
   </g>
   <g id="line2d_27">
    <path clip-path="url(#pcadb64b63b)" d="M -1 239.467723 
L -0.114413 239.467723 
L -0.114413 208.329505 
L 0.112049 208.329505 
L 0.112049 207.531089 
L 3.066264 207.531089 
L 3.066264 206.732673 
L 3.211023 206.732673 
L 3.211023 205.934257 
L 5.713515 205.934257 
L 5.713515 205.135842 
L 40.036892 205.135842 
L 40.036892 204.337426 
L 42.747446 204.337426 
L 42.747446 203.53901 
L 60.932088 203.53901 
L 60.932088 202.740594 
L 74.230977 202.740594 
L 74.230977 201.942178 
L 98.032807 201.942178 
L 98.032807 201.143762 
L 98.449527 201.143762 
L 98.449527 200.345347 
L 108.023583 200.345347 
L 108.023583 199.546931 
L 110.730742 199.546931 
L 110.730742 198.748515 
L 111.042672 198.748515 
L 111.042672 197.950099 
L 114.287814 197.950099 
L 114.287814 197.151683 
L 115.121622 197.151683 
L 115.121622 196.353267 
L 120.770438 196.353267 
L 120.770438 195.554851 
L 124.413851 195.554851 
L 124.413851 194.756436 
L 133.699168 194.756436 
L 133.699168 193.95802 
L 138.791716 193.95802 
L 138.791716 193.159604 
L 142.901182 193.159604 
L 142.901182 192.361188 
L 143.95144 192.361188 
L 143.95144 191.562772 
L 145.565014 191.562772 
L 145.565014 190.764356 
L 147.993505 190.764356 
L 147.993505 189.965941 
L 148.120388 189.965941 
L 148.120388 189.167525 
L 149.892231 189.167525 
L 149.99505 187.570693 
L 152.926876 187.570693 
L 152.926876 186.772277 
L 156.459574 186.772277 
L 156.459574 185.973861 
L 158.133914 185.973861 
L 158.133914 185.175446 
L 160.883156 185.175446 
L 160.883156 184.37703 
L 161.294273 184.37703 
L 161.294273 183.578614 
L 163.318876 183.578614 
L 163.318876 182.780198 
L 165.530718 182.780198 
L 165.530718 181.981782 
L 168.800516 181.981782 
L 168.800516 181.183366 
L 172.54201 181.183366 
L 172.54201 180.38495 
L 173.577178 180.38495 
L 173.577178 179.586535 
L 177.237091 179.586535 
L 177.237091 178.788119 
L 177.89783 178.788119 
L 177.89783 177.989703 
L 179.270121 177.989703 
L 179.270121 177.191287 
L 179.630567 177.191287 
L 179.630567 176.392871 
L 179.956754 176.392871 
L 179.956754 175.594455 
L 181.066443 175.594455 
L 181.066443 174.79604 
L 185.351809 174.79604 
L 185.370562 173.199208 
L 186.649746 173.199208 
L 186.649746 172.400792 
L 187.382821 172.400792 
L 187.478947 170.80396 
L 189.635875 170.80396 
L 189.635875 170.005545 
L 189.834147 170.005545 
L 189.864153 168.408713 
L 191.387562 168.408713 
L 191.444334 166.811881 
L 191.611469 166.811881 
L 191.611469 166.013465 
L 192.053953 166.013465 
L 192.053953 165.21505 
L 192.794762 165.21505 
L 192.794762 164.416634 
L 192.967609 164.416634 
L 192.967609 163.618218 
L 194.095665 163.618218 
L 194.095665 162.819802 
L 194.824392 162.819802 
L 194.824392 162.021386 
L 196.467489 162.021386 
L 196.467489 161.22297 
L 197.190912 161.22297 
L 197.229224 159.626139 
L 199.566651 159.626139 
L 199.591234 158.029307 
L 199.898273 158.029307 
L 199.909867 156.432475 
L 200.631014 156.432475 
L 200.631014 155.634059 
L 201.248937 155.634059 
L 201.248937 154.835644 
L 201.838744 154.835644 
L 201.838744 154.037228 
L 202.374346 154.037228 
L 202.374346 153.238812 
L 202.638331 153.238812 
L 202.638331 152.440396 
L 203.489577 152.440396 
L 203.489577 151.64198 
L 203.793008 151.64198 
L 203.793008 150.843564 
L 206.095917 150.843564 
L 206.095917 150.045149 
L 206.291146 150.045149 
L 206.291146 149.246733 
L 207.05196 149.246733 
L 207.05196 148.448317 
L 207.883165 148.448317 
L 207.883165 147.649901 
L 208.192932 147.649901 
L 208.192932 146.851485 
L 209.658043 146.851485 
L 209.706089 144.456238 
L 210.04126 144.456238 
L 210.04126 143.657822 
L 211.557165 143.657822 
L 211.557165 142.859406 
L 211.799409 142.859406 
L 211.799409 142.06099 
L 212.371168 142.06099 
L 212.371168 141.262574 
L 212.840676 141.262574 
L 212.840676 140.464158 
L 213.993998 140.464158 
L 214.016435 138.867327 
L 214.142131 138.867327 
L 214.215386 136.472079 
L 215.119214 136.472079 
L 215.216545 134.875248 
L 215.359895 134.875248 
L 215.428294 132.48 
L 217.464042 132.48 
L 217.508442 130.883168 
L 217.630501 130.883168 
L 217.630501 130.084752 
L 218.04307 130.084752 
L 218.130342 128.487921 
L 218.471183 128.487921 
L 218.554498 126.092673 
L 219.044177 126.092673 
L 219.044177 124.495842 
L 219.35298 124.495842 
L 219.35298 123.697426 
L 219.868019 123.697426 
L 219.911701 122.100594 
L 220.619855 122.100594 
L 220.639108 120.503762 
L 220.816343 120.503762 
L 220.816343 118.906931 
L 220.950288 118.906931 
L 220.950288 118.108515 
L 221.727366 118.108515 
L 221.830926 115.713267 
L 222.062584 115.713267 
L 222.136977 113.31802 
L 222.53004 113.31802 
L 222.638268 109.325941 
L 222.709905 109.325941 
L 222.816081 106.132277 
L 222.880987 106.132277 
L 222.880987 105.333861 
L 224.267463 105.333861 
L 224.267463 104.535446 
L 224.85797 104.535446 
L 224.85797 103.73703 
L 225.053917 103.73703 
L 225.108639 102.140198 
L 225.477496 102.140198 
L 225.544339 100.543366 
L 225.812794 100.543366 
L 225.812794 99.74495 
L 226.079387 99.74495 
L 226.079387 98.946535 
L 226.662236 98.946535 
L 226.662236 98.148119 
L 226.786438 98.148119 
L 226.832031 96.551287 
L 227.485308 96.551287 
L 227.575337 94.15604 
L 228.089337 94.15604 
L 228.089337 93.357624 
L 228.596217 93.357624 
L 228.596217 92.559208 
L 229.136424 92.559208 
L 229.136424 91.760792 
L 229.525662 91.760792 
L 229.525662 90.962376 
L 229.823648 90.962376 
L 229.823648 90.16396 
L 230.141111 90.16396 
L 230.141111 89.365545 
L 230.482902 89.365545 
L 230.482902 88.567129 
L 230.732411 88.567129 
L 230.732411 87.768713 
L 231.612368 87.768713 
L 231.612368 86.970297 
L 231.84629 86.970297 
L 231.859947 85.373465 
L 232.237513 85.373465 
L 232.237513 82.978218 
L 233.531311 82.978218 
L 233.531311 82.179802 
L 233.740793 82.179802 
L 233.794263 80.58297 
L 233.918813 80.58297 
L 234.009996 78.187723 
L 234.086329 78.187723 
L 234.086329 76.590891 
L 234.421642 76.590891 
L 234.432954 74.994059 
L 234.950144 74.994059 
L 234.950144 74.195644 
L 235.395506 74.195644 
L 235.395506 73.397228 
L 235.531868 73.397228 
L 235.531868 72.598812 
L 235.77964 72.598812 
L 235.83479 71.00198 
L 236.330513 71.00198 
L 236.330513 70.203564 
L 236.624369 70.203564 
L 236.671484 67.808317 
L 236.899697 67.808317 
L 236.899697 67.009901 
L 237.549581 67.009901 
L 237.549581 66.211485 
L 237.937882 66.211485 
L 237.937882 65.413069 
L 238.111172 65.413069 
L 238.111172 62.219406 
L 239.238504 62.219406 
L 239.238504 61.42099 
L 239.395769 61.42099 
L 239.415889 59.824158 
L 240.117817 59.824158 
L 240.117817 59.025743 
L 240.55907 59.025743 
L 240.55907 58.227327 
L 240.80676 58.227327 
L 240.80676 57.428911 
L 241.127917 57.428911 
L 241.12793 55.832079 
L 241.552961 55.832079 
L 241.552961 55.033663 
L 241.73218 55.033663 
L 241.73218 54.235248 
L 241.980035 54.235248 
L 241.980035 53.436832 
L 242.607142 53.436832 
L 242.607142 52.638416 
L 242.773342 52.638416 
L 242.773342 51.041584 
L 243.9746 51.041584 
L 243.9746 50.243168 
L 245.11058 50.243168 
L 245.116395 48.646337 
L 245.49143 48.646337 
L 245.49143 47.049505 
L 245.866933 47.049505 
L 245.866933 46.251089 
L 246.081209 46.251089 
L 246.187475 44.654257 
L 246.431815 44.654257 
L 246.4637 43.057426 
L 246.64034 43.057426 
L 246.642192 41.460594 
L 246.778531 41.460594 
L 246.778531 40.662178 
L 247.00672 40.662178 
L 247.06394 39.065347 
L 247.504815 39.065347 
L 247.607255 37.468515 
L 247.714405 37.468515 
L 247.76351 35.871683 
L 247.964489 35.871683 
L 247.964489 35.073267 
L 248.357801 35.073267 
L 248.417034 33.476436 
L 248.79066 33.476436 
L 248.79066 32.67802 
L 248.918872 32.67802 
L 248.922439 31.081188 
L 249.097955 31.081188 
L 249.097955 29.484356 
L 249.357292 29.484356 
L 249.357292 28.685941 
L 249.531926 28.685941 
L 249.531926 27.887525 
L 250.743377 27.887525 
L 250.833006 25.492277 
L 251.120409 25.492277 
L 251.120409 23.895446 
L 251.768853 23.895446 
L 251.839292 22.298614 
L 252.182554 22.298614 
L 252.182554 21.500198 
L 252.515844 21.500198 
L 252.515858 19.903366 
L 252.839739 19.903366 
L 252.839739 19.10495 
L 253.461427 19.10495 
L 253.461427 18.306535 
L 253.760141 18.306535 
L 253.760141 17.508119 
L 253.94022 17.508119 
L 253.94022 16.709703 
L 254.335169 16.709703 
L 254.335169 15.911287 
L 254.882794 15.911287 
L 254.882794 15.112871 
L 255.905536 15.112871 
L 255.905536 14.314455 
L 256.712747 14.314455 
L 256.712747 12.717624 
L 257.71279 12.717624 
L 257.71279 11.919208 
L 257.910855 11.919208 
L 257.910855 11.120792 
L 259.090396 11.120792 
L 259.090396 10.322376 
L 259.320491 10.322376 
L 259.320491 9.52396 
L 259.633731 9.52396 
L 259.633731 8.725545 
L 261.27915 8.725545 
L 261.27915 7.927129 
L 263.117106 7.927129 
L 263.117106 7.128713 
L 264.586822 7.128713 
L 264.586822 6.330297 
L 264.586822 6.330297 
L 460.8 6.330297 
L 460.8 6.330297 
" style="fill:none;stroke:#000000;stroke-linecap:square;stroke-width:1.5;"/>
   </g>
   <g id="patch_3">
    <path d="M 0 293.76 
L 0 3.456 
" style="fill:none;stroke:#000000;stroke-linecap:square;stroke-linejoin:miter;stroke-width:0.8;"/>
   </g>
   <g id="patch_4">
    <path d="M 460.8 293.76 
L 460.8 3.456 
" style="fill:none;stroke:#000000;stroke-linecap:square;stroke-linejoin:miter;stroke-width:0.8;"/>
   </g>
   <g id="patch_5">
    <path d="M 0 293.76 
L 460.8 293.76 
" style="fill:none;stroke:#000000;stroke-linecap:square;stroke-linejoin:miter;stroke-width:0.8;"/>
   </g>
   <g id="patch_6">
    <path d="M 0 3.456 
L 460.8 3.456 
" style="fill:none;stroke:#000000;stroke-linecap:square;stroke-linejoin:miter;stroke-width:0.8;"/>
   </g>
   <g id="text_6">
    <!-- {f1-f24}, 5-D -->
    <g transform="translate(318.609 287.95392)scale(0.2 -0.2)">
     <defs>
      <path d="M 51.125 -9.28125 
L 51.125 -16.3125 
L 48.09375 -16.3125 
Q 35.9375 -16.3125 31.8125 -12.6875 
Q 27.6875 -9.078125 27.6875 1.703125 
L 27.6875 13.375 
Q 27.6875 20.75 25.046875 23.578125 
Q 22.40625 26.421875 15.484375 26.421875 
L 12.5 26.421875 
L 12.5 33.40625 
L 15.484375 33.40625 
Q 22.46875 33.40625 25.078125 36.203125 
Q 27.6875 39.015625 27.6875 46.296875 
L 27.6875 58.015625 
Q 27.6875 68.796875 31.8125 72.390625 
Q 35.9375 75.984375 48.09375 75.984375 
L 51.125 75.984375 
L 51.125 69 
L 47.796875 69 
Q 40.921875 69 38.8125 66.84375 
Q 36.71875 64.703125 36.71875 57.8125 
L 36.71875 45.703125 
Q 36.71875 38.03125 34.5 34.5625 
Q 32.28125 31.109375 26.90625 29.890625 
Q 32.328125 28.5625 34.515625 25.09375 
Q 36.71875 21.625 36.71875 14.015625 
L 36.71875 1.90625 
Q 36.71875 -4.984375 38.8125 -7.125 
Q 40.921875 -9.28125 47.796875 -9.28125 
z
" id="DejaVuSans-123"/>
      <path d="M 19.1875 8.296875 
L 53.609375 8.296875 
L 53.609375 0 
L 7.328125 0 
L 7.328125 8.296875 
Q 12.9375 14.109375 22.625 23.890625 
Q 32.328125 33.6875 34.8125 36.53125 
Q 39.546875 41.84375 41.421875 45.53125 
Q 43.3125 49.21875 43.3125 52.78125 
Q 43.3125 58.59375 39.234375 62.25 
Q 35.15625 65.921875 28.609375 65.921875 
Q 23.96875 65.921875 18.8125 64.3125 
Q 13.671875 62.703125 7.8125 59.421875 
L 7.8125 69.390625 
Q 13.765625 71.78125 18.9375 73 
Q 24.125 74.21875 28.421875 74.21875 
Q 39.75 74.21875 46.484375 68.546875 
Q 53.21875 62.890625 53.21875 53.421875 
Q 53.21875 48.921875 51.53125 44.890625 
Q 49.859375 40.875 45.40625 35.40625 
Q 44.1875 33.984375 37.640625 27.21875 
Q 31.109375 20.453125 19.1875 8.296875 
z
" id="DejaVuSans-50"/>
      <path d="M 12.5 -9.28125 
L 15.921875 -9.28125 
Q 22.75 -9.28125 24.828125 -7.171875 
Q 26.90625 -5.078125 26.90625 1.90625 
L 26.90625 14.015625 
Q 26.90625 21.625 29.09375 25.09375 
Q 31.296875 28.5625 36.71875 29.890625 
Q 31.296875 31.109375 29.09375 34.5625 
Q 26.90625 38.03125 26.90625 45.703125 
L 26.90625 57.8125 
Q 26.90625 64.75 24.828125 66.875 
Q 22.75 69 15.921875 69 
L 12.5 69 
L 12.5 75.984375 
L 15.578125 75.984375 
Q 27.734375 75.984375 31.8125 72.390625 
Q 35.890625 68.796875 35.890625 58.015625 
L 35.890625 46.296875 
Q 35.890625 39.015625 38.515625 36.203125 
Q 41.15625 33.40625 48.09375 33.40625 
L 51.125 33.40625 
L 51.125 26.421875 
L 48.09375 26.421875 
Q 41.15625 26.421875 38.515625 23.578125 
Q 35.890625 20.75 35.890625 13.375 
L 35.890625 1.703125 
Q 35.890625 -9.078125 31.8125 -12.6875 
Q 27.734375 -16.3125 15.578125 -16.3125 
L 12.5 -16.3125 
z
" id="DejaVuSans-125"/>
      <path d="M 11.71875 12.40625 
L 22.015625 12.40625 
L 22.015625 4 
L 14.015625 -11.625 
L 7.71875 -11.625 
L 11.71875 4 
z
" id="DejaVuSans-44"/>
      <path d="M 10.796875 72.90625 
L 49.515625 72.90625 
L 49.515625 64.59375 
L 19.828125 64.59375 
L 19.828125 46.734375 
Q 21.96875 47.46875 24.109375 47.828125 
Q 26.265625 48.1875 28.421875 48.1875 
Q 40.625 48.1875 47.75 41.5 
Q 54.890625 34.8125 54.890625 23.390625 
Q 54.890625 11.625 47.5625 5.09375 
Q 40.234375 -1.421875 26.90625 -1.421875 
Q 22.3125 -1.421875 17.546875 -0.640625 
Q 12.796875 0.140625 7.71875 1.703125 
L 7.71875 11.625 
Q 12.109375 9.234375 16.796875 8.0625 
Q 21.484375 6.890625 26.703125 6.890625 
Q 35.15625 6.890625 40.078125 11.328125 
Q 45.015625 15.765625 45.015625 23.390625 
Q 45.015625 31 40.078125 35.4375 
Q 35.15625 39.890625 26.703125 39.890625 
Q 22.75 39.890625 18.8125 39.015625 
Q 14.890625 38.140625 10.796875 36.28125 
z
" id="DejaVuSans-53"/>
     </defs>
     <use xlink:href="#DejaVuSans-123"/>
     <use x="63.623047" xlink:href="#DejaVuSans-102"/>
     <use x="98.828125" xlink:href="#DejaVuSans-49"/>
     <use x="162.451172" xlink:href="#DejaVuSans-45"/>
     <use x="198.535156" xlink:href="#DejaVuSans-102"/>
     <use x="233.740234" xlink:href="#DejaVuSans-50"/>
     <use x="297.363281" xlink:href="#DejaVuSans-52"/>
     <use x="360.986328" xlink:href="#DejaVuSans-125"/>
     <use x="424.609375" xlink:href="#DejaVuSans-44"/>
     <use x="456.396484" xlink:href="#DejaVuSans-32"/>
     <use x="488.183594" xlink:href="#DejaVuSans-53"/>
     <use x="551.806641" xlink:href="#DejaVuSans-45"/>
     <use x="587.890625" xlink:href="#DejaVuSans-68"/>
    </g>
   </g>
   <g id="text_7">
    <!-- v2.4 -->
    <g style="fill:#808080;" transform="translate(219.489063 288.777272)scale(0.1 -0.1)">
     <defs>
      <path d="M 2.984375 54.6875 
L 12.5 54.6875 
L 29.59375 8.796875 
L 46.6875 54.6875 
L 56.203125 54.6875 
L 35.6875 0 
L 23.484375 0 
z
" id="DejaVuSans-118"/>
      <path d="M 10.6875 12.40625 
L 21 12.40625 
L 21 0 
L 10.6875 0 
z
" id="DejaVuSans-46"/>
     </defs>
     <use xlink:href="#DejaVuSans-118"/>
     <use x="59.179688" xlink:href="#DejaVuSans-50"/>
     <use x="122.802734" xlink:href="#DejaVuSans-46"/>
     <use x="154.589844" xlink:href="#DejaVuSans-52"/>
    </g>
   </g>
  </g>
 </g>
 <defs>
  <clipPath id="pcadb64b63b">
   <rect height="290.304" width="460.8" x="0" y="3.456"/>
  </clipPath>
 </defs>
</svg>
