<?xml version="1.0" encoding="utf-8" standalone="no"?>
<!DOCTYPE svg PUBLIC "-//W3C//DTD SVG 1.1//EN"
  "http://www.w3.org/Graphics/SVG/1.1/DTD/svg11.dtd">
<!-- Created with matplotlib (https://matplotlib.org/) -->
<svg height="345.6pt" version="1.1" viewBox="0 0 460.8 345.6" width="460.8pt" xmlns="http://www.w3.org/2000/svg" xmlns:xlink="http://www.w3.org/1999/xlink">
 <metadata>
  <rdf:RDF xmlns:cc="http://creativecommons.org/ns#" xmlns:dc="http://purl.org/dc/elements/1.1/" xmlns:rdf="http://www.w3.org/1999/02/22-rdf-syntax-ns#">
   <cc:Work>
    <dc:type rdf:resource="http://purl.org/dc/dcmitype/StillImage"/>
    <dc:date>2021-06-17T01:38:43.722517</dc:date>
    <dc:format>image/svg+xml</dc:format>
    <dc:creator>
     <cc:Agent>
      <dc:title>Matplotlib v3.3.4, https://matplotlib.org/</dc:title>
     </cc:Agent>
    </dc:creator>
   </cc:Work>
  </rdf:RDF>
 </metadata>
 <defs>
  <style type="text/css">*{stroke-linecap:butt;stroke-linejoin:round;}</style>
 </defs>
 <g id="figure_1">
  <g id="patch_1">
   <path d="M 0 345.6 
L 460.8 345.6 
L 460.8 0 
L 0 0 
z
" style="fill:#ffffff;"/>
  </g>
  <g id="axes_1">
   <g id="patch_2">
    <path d="M 62.208 293.76 
L 460.8 293.76 
L 460.8 3.456 
L 62.208 3.456 
z
" style="fill:#ffffff;"/>
   </g>
   <g id="line2d_1">
    <path clip-path="url(#pca5456cf9e)" d="M 267.273602 293.76 
L 267.273602 289.927604 
L 271.627353 289.927604 
L 271.627353 286.095208 
L 272.993018 286.095208 
L 272.993018 282.262812 
L 274.620903 282.262812 
L 274.620903 278.430416 
L 274.820464 278.430416 
L 274.820464 274.59802 
L 275.217051 274.59802 
L 275.217051 270.765624 
L 280.619115 270.765624 
L 280.619115 266.933228 
L 283.019486 266.933228 
L 283.019486 263.100832 
L 286.248144 263.100832 
L 286.248144 259.268436 
L 290.991134 259.268436 
L 290.991134 255.43604 
L 292.311404 255.43604 
L 292.311404 251.603644 
L 300.292132 251.603644 
L 300.292132 247.771248 
L 309.445966 247.771248 
L 309.445966 243.938851 
L 315.872655 243.938851 
L 315.872655 240.106455 
L 316.815596 240.106455 
L 316.815596 236.274059 
L 317.700101 236.274059 
L 317.700101 232.441663 
L 318.607277 232.441663 
L 318.607277 228.609267 
L 318.957526 228.609267 
L 318.957526 224.776871 
L 322.359043 224.776871 
L 322.359043 220.944475 
L 323.463553 220.944475 
L 323.463553 217.112079 
L 339.495289 217.112079 
L 339.495289 213.279683 
L 340.704453 213.279683 
L 340.704453 209.447287 
L 342.190957 209.447287 
L 342.190957 205.614891 
L 345.33931 205.614891 
L 345.33931 201.782495 
L 356.617084 201.782495 
L 356.617084 197.950099 
L 361.627328 197.950099 
L 361.627328 194.117703 
L 365.4545 194.117703 
L 365.4545 190.285307 
L 379.498488 190.285307 
L 379.498488 186.452911 
L 379.498488 186.452911 
L 379.498488 186.452911 
L 460.8 186.452911 
" style="fill:none;stroke:#f5deb3;stroke-linecap:square;stroke-width:1.5;"/>
   </g>
   <g id="line2d_2">
    <path clip-path="url(#pca5456cf9e)" d="M 358.685983 293.76 
L 358.685983 282.262812 
L 380.643393 282.262812 
L 380.643393 270.765624 
L 397.036996 270.765624 
L 397.036996 259.268436 
L 449.565864 259.268436 
L 449.565864 247.771248 
L 461.8 247.771248 
" style="fill:none;stroke:#f5deb3;stroke-linecap:square;stroke-width:1.5;"/>
   </g>
   <g id="line2d_3">
    <path clip-path="url(#pca5456cf9e)" d="M 221.060733 293.76 
L 221.060733 289.927604 
L 226.677198 289.927604 
L 226.677198 286.095208 
L 270.875146 286.095208 
L 270.875146 282.262812 
L 272.681383 282.262812 
L 272.681383 278.430416 
L 275.414091 278.430416 
L 275.414091 274.59802 
L 283.352562 274.59802 
L 283.352562 270.765624 
L 288.15849 270.765624 
L 288.15849 266.933228 
L 292.311404 266.933228 
L 292.311404 263.100832 
L 295.808788 263.100832 
L 295.808788 259.268436 
L 296.377563 259.268436 
L 296.377563 255.43604 
L 301.658564 255.43604 
L 301.658564 251.603644 
L 304.27726 251.603644 
L 304.27726 247.771248 
L 311.98865 247.771248 
L 311.98865 243.938851 
L 314.229008 243.938851 
L 314.229008 240.106455 
L 322.431094 240.106455 
L 322.431094 236.274059 
L 332.23565 236.274059 
L 332.23565 232.441663 
L 342.800546 232.441663 
L 342.800546 228.609267 
L 355.86552 228.609267 
L 355.86552 224.776871 
L 356.651749 224.776871 
L 356.651749 220.944475 
L 359.131751 220.944475 
L 359.131751 217.112079 
L 363.788743 217.112079 
L 363.788743 213.279683 
L 368.89894 213.279683 
L 368.89894 209.447287 
L 369.979932 209.447287 
L 369.979932 205.614891 
L 385.870802 205.614891 
L 385.870802 201.782495 
L 389.964319 201.782495 
L 389.964319 197.950099 
L 425.917797 197.950099 
L 425.917797 194.117703 
L 428.77456 194.117703 
L 428.77456 190.285307 
L 429.463223 190.285307 
L 429.463223 186.452911 
L 442.154592 186.452911 
L 442.154592 182.620515 
L 461.8 182.620515 
" style="fill:none;stroke:#f5deb3;stroke-linecap:square;stroke-width:1.5;"/>
   </g>
   <g id="line2d_4">
    <path clip-path="url(#pca5456cf9e)" d="M 257.267836 293.76 
L 257.267836 289.927604 
L 281.576854 289.927604 
L 281.576854 286.095208 
L 281.662957 286.095208 
L 281.662957 282.262812 
L 284.983283 282.262812 
L 284.983283 278.430416 
L 321.997115 278.430416 
L 321.997115 274.59802 
L 323.357797 274.59802 
L 323.357797 270.765624 
L 328.404669 270.765624 
L 328.404669 266.933228 
L 328.720439 266.933228 
L 328.720439 263.100832 
L 333.417528 263.100832 
L 333.417528 259.268436 
L 346.687643 259.268436 
L 346.687643 255.43604 
L 348.433923 255.43604 
L 348.433923 251.603644 
L 352.125636 251.603644 
L 352.125636 247.771248 
L 352.259042 247.771248 
L 352.259042 243.938851 
L 356.962579 243.938851 
L 356.962579 240.106455 
L 357.849105 240.106455 
L 357.849105 236.274059 
L 359.589587 236.274059 
L 359.589587 232.441663 
L 365.33952 232.441663 
L 365.33952 228.609267 
L 383.276134 228.609267 
L 383.276134 224.776871 
L 395.822576 224.776871 
L 395.822576 220.944475 
L 396.367037 220.944475 
L 396.367037 217.112079 
L 402.728847 217.112079 
L 402.728847 213.279683 
L 404.854622 213.279683 
L 404.854622 209.447287 
L 416.81836 209.447287 
L 416.81836 205.614891 
L 420.766328 205.614891 
L 420.766328 201.782495 
L 425.334489 201.782495 
L 425.334489 197.950099 
L 429.849135 197.950099 
L 429.849135 194.117703 
L 444.767296 194.117703 
L 444.767296 190.285307 
L 450.542921 190.285307 
L 450.542921 186.452911 
L 461.8 186.452911 
" style="fill:none;stroke:#f5deb3;stroke-linecap:square;stroke-width:1.5;"/>
   </g>
   <g id="line2d_5">
    <path clip-path="url(#pca5456cf9e)" d="M 388.487352 293.76 
L 388.487352 289.927604 
L 388.487352 289.927604 
L 388.487352 289.927604 
L 460.8 289.927604 
" style="fill:none;stroke:#f5deb3;stroke-linecap:square;stroke-width:1.5;"/>
   </g>
   <g id="line2d_6"/>
   <g id="line2d_7">
    <path clip-path="url(#pca5456cf9e)" d="M 285.619987 293.76 
L 285.619987 289.927604 
L 293.795006 289.927604 
L 293.795006 286.095208 
L 296.188738 286.095208 
L 296.188738 282.262812 
L 301.150816 282.262812 
L 301.150816 278.430416 
L 311.491046 278.430416 
L 311.491046 274.59802 
L 378.963782 274.59802 
L 378.963782 270.765624 
L 396.27797 270.765624 
L 396.27797 266.933228 
L 400.549385 266.933228 
L 400.549385 263.100832 
L 401.575572 263.100832 
L 401.575572 259.268436 
L 406.727843 259.268436 
L 406.727843 255.43604 
L 419.679634 255.43604 
L 419.679634 251.603644 
L 422.600892 251.603644 
L 422.600892 247.771248 
L 424.11282 247.771248 
L 424.11282 243.938851 
L 424.382544 243.938851 
L 424.382544 240.106455 
L 426.173423 240.106455 
L 426.173423 236.274059 
L 428.368421 236.274059 
L 428.368421 232.441663 
L 434.138644 232.441663 
L 434.138644 228.609267 
L 435.616943 228.609267 
L 435.616943 224.776871 
L 437.152442 224.776871 
L 437.152442 220.944475 
L 444.751477 220.944475 
L 444.751477 217.112079 
L 446.665726 217.112079 
L 446.665726 213.279683 
L 448.555818 213.279683 
L 448.555818 209.447287 
L 453.802789 209.447287 
L 453.802789 205.614891 
L 458.139577 205.614891 
L 458.139577 201.782495 
L 461.8 201.782495 
" style="fill:none;stroke:#f5deb3;stroke-linecap:square;stroke-width:1.5;"/>
   </g>
   <g id="line2d_8">
    <path clip-path="url(#pca5456cf9e)" d="M 442.059726 293.76 
L 442.059726 289.927604 
L 450.229662 289.927604 
L 450.229662 286.095208 
L 453.604612 286.095208 
L 453.604612 282.262812 
L 456.533616 282.262812 
L 456.533616 278.430416 
L 457.281993 278.430416 
L 457.281993 274.59802 
L 458.416074 274.59802 
L 458.416074 270.765624 
L 461.8 270.765624 
" style="fill:none;stroke:#f5deb3;stroke-linecap:square;stroke-width:1.5;"/>
   </g>
   <g id="line2d_9">
    <path clip-path="url(#pca5456cf9e)" d="M 274.520802 293.76 
L 274.520802 289.927604 
L 280.177214 289.927604 
L 280.177214 286.095208 
L 295.29734 286.095208 
L 295.29734 282.262812 
L 296.503024 282.262812 
L 296.503024 278.430416 
L 342.120107 278.430416 
L 342.120107 274.59802 
L 347.6425 274.59802 
L 347.6425 270.765624 
L 353.21969 270.765624 
L 353.21969 266.933228 
L 357.493104 266.933228 
L 357.493104 263.100832 
L 364.658244 263.100832 
L 364.658244 259.268436 
L 382.404914 259.268436 
L 382.404914 255.43604 
L 383.986741 255.43604 
L 383.986741 251.603644 
L 384.025368 251.603644 
L 384.025368 247.771248 
L 397.733522 247.771248 
L 397.733522 243.938851 
L 401.329465 243.938851 
L 401.329465 240.106455 
L 414.233595 240.106455 
L 414.233595 236.274059 
L 419.390373 236.274059 
L 419.390373 232.441663 
L 422.482215 232.441663 
L 422.482215 228.609267 
L 424.366241 228.609267 
L 424.366241 224.776871 
L 429.265396 224.776871 
L 429.265396 220.944475 
L 432.303498 220.944475 
L 432.303498 217.112079 
L 436.41778 217.112079 
L 436.41778 213.279683 
L 436.420931 213.279683 
L 436.420931 209.447287 
L 439.910785 209.447287 
L 439.910785 205.614891 
L 446.389008 205.614891 
L 446.389008 201.782495 
L 449.542067 201.782495 
L 449.542067 197.950099 
L 452.754535 197.950099 
L 452.754535 194.117703 
L 456.988544 194.117703 
L 456.988544 190.285307 
L 461.8 190.285307 
" style="fill:none;stroke:#f5deb3;stroke-linecap:square;stroke-width:1.5;"/>
   </g>
   <g id="line2d_10">
    <path clip-path="url(#pca5456cf9e)" d="M 421.871374 293.76 
L 421.871374 289.927604 
L 442.1741 289.927604 
L 442.1741 286.095208 
L 447.734259 286.095208 
L 447.734259 282.262812 
L 452.060471 282.262812 
L 452.060471 278.430416 
L 461.8 278.430416 
" style="fill:none;stroke:#f5deb3;stroke-linecap:square;stroke-width:1.5;"/>
   </g>
   <g id="line2d_11">
    <path clip-path="url(#pca5456cf9e)" d="M 354.868287 293.76 
L 354.868287 289.927604 
L 394.266601 289.927604 
L 394.266601 286.095208 
L 412.041893 286.095208 
L 412.041893 282.262812 
L 420.470437 282.262812 
L 420.470437 278.430416 
L 424.516825 278.430416 
L 424.516825 274.59802 
L 428.759718 274.59802 
L 428.759718 270.765624 
L 430.357587 270.765624 
L 430.357587 266.933228 
L 431.885341 266.933228 
L 431.885341 263.100832 
L 443.754739 263.100832 
L 443.754739 259.268436 
L 445.822882 259.268436 
L 445.822882 255.43604 
L 445.894989 255.43604 
L 445.894989 251.603644 
L 448.769259 251.603644 
L 448.769259 247.771248 
L 456.547964 247.771248 
L 456.547964 243.938851 
L 457.087915 243.938851 
L 457.087915 240.106455 
L 460.777538 240.106455 
L 460.777538 236.274059 
L 461.632784 236.274059 
L 461.632784 232.441663 
L 461.8 232.441663 
" style="fill:none;stroke:#f5deb3;stroke-linecap:square;stroke-width:1.5;"/>
   </g>
   <g id="line2d_12">
    <path clip-path="url(#pca5456cf9e)" d="M 278.734418 293.76 
L 278.734418 289.927604 
L 282.935845 289.927604 
L 282.935845 286.095208 
L 284.903083 286.095208 
L 284.903083 282.262812 
L 302.049705 282.262812 
L 302.049705 278.430416 
L 302.382386 278.430416 
L 302.382386 274.59802 
L 320.332883 274.59802 
L 320.332883 270.765624 
L 322.753956 270.765624 
L 322.753956 266.933228 
L 324.439251 266.933228 
L 324.439251 263.100832 
L 325.462549 263.100832 
L 325.462549 259.268436 
L 331.35155 259.268436 
L 331.35155 255.43604 
L 339.520281 255.43604 
L 339.520281 251.603644 
L 342.001783 251.603644 
L 342.001783 247.771248 
L 343.814405 247.771248 
L 343.814405 243.938851 
L 346.083524 243.938851 
L 346.083524 240.106455 
L 346.213636 240.106455 
L 346.213636 236.274059 
L 346.47278 236.274059 
L 346.47278 232.441663 
L 348.742679 232.441663 
L 348.742679 228.609267 
L 353.977927 228.609267 
L 353.977927 224.776871 
L 363.952084 224.776871 
L 363.952084 220.944475 
L 374.213334 220.944475 
L 374.213334 217.112079 
L 384.83875 217.112079 
L 384.83875 213.279683 
L 390.260959 213.279683 
L 390.260959 209.447287 
L 394.844682 209.447287 
L 394.844682 205.614891 
L 397.956246 205.614891 
L 397.956246 201.782495 
L 412.763035 201.782495 
L 412.763035 197.950099 
L 419.195016 197.950099 
L 419.195016 194.117703 
L 426.46665 194.117703 
L 426.46665 190.285307 
L 427.301022 190.285307 
L 427.301022 186.452911 
L 442.037377 186.452911 
L 442.037377 182.620515 
L 442.637097 182.620515 
L 442.637097 178.788119 
L 442.637097 178.788119 
L 442.637097 178.788119 
L 460.8 178.788119 
" style="fill:none;stroke:#f5deb3;stroke-linecap:square;stroke-width:1.5;"/>
   </g>
   <g id="line2d_13">
    <path clip-path="url(#pca5456cf9e)" d="M 355.065856 293.76 
L 355.065856 289.927604 
L 371.252611 289.927604 
L 371.252611 286.095208 
L 377.388787 286.095208 
L 377.388787 282.262812 
L 378.780581 282.262812 
L 378.780581 278.430416 
L 385.113053 278.430416 
L 385.113053 274.59802 
L 390.21024 274.59802 
L 390.21024 270.765624 
L 394.405993 270.765624 
L 394.405993 266.933228 
L 394.737314 266.933228 
L 394.737314 263.100832 
L 394.737314 263.100832 
L 394.737314 259.268436 
L 397.711912 259.268436 
L 397.711912 255.43604 
L 414.707008 255.43604 
L 414.707008 251.603644 
L 414.707008 251.603644 
L 414.707008 251.603644 
L 460.8 251.603644 
" style="fill:none;stroke:#f5deb3;stroke-linecap:square;stroke-width:1.5;"/>
   </g>
   <g id="line2d_14">
    <path clip-path="url(#pca5456cf9e)" d="M 236.219672 293.76 
L 236.219672 289.927604 
L 249.397496 289.927604 
L 249.397496 286.095208 
L 319.420484 286.095208 
L 319.420484 282.262812 
L 364.100082 282.262812 
L 364.100082 278.430416 
L 375.027625 278.430416 
L 375.027625 274.59802 
L 380.539515 274.59802 
L 380.539515 270.765624 
L 382.013558 270.765624 
L 382.013558 266.933228 
L 390.923686 266.933228 
L 390.923686 263.100832 
L 391.994225 263.100832 
L 391.994225 259.268436 
L 397.791101 259.268436 
L 397.791101 255.43604 
L 401.028389 255.43604 
L 401.028389 251.603644 
L 401.674978 251.603644 
L 401.674978 247.771248 
L 402.037671 247.771248 
L 402.037671 243.938851 
L 404.43837 243.938851 
L 404.43837 240.106455 
L 408.017259 240.106455 
L 408.017259 236.274059 
L 412.647977 236.274059 
L 412.647977 232.441663 
L 417.119153 232.441663 
L 417.119153 228.609267 
L 439.614498 228.609267 
L 439.614498 224.776871 
L 440.277799 224.776871 
L 440.277799 220.944475 
L 441.936672 220.944475 
L 441.936672 217.112079 
L 443.002582 217.112079 
L 443.002582 213.279683 
L 455.806402 213.279683 
L 455.806402 209.447287 
L 460.142297 209.447287 
L 460.142297 205.614891 
L 461.8 205.614891 
" style="fill:none;stroke:#f5deb3;stroke-linecap:square;stroke-width:1.5;"/>
   </g>
   <g id="line2d_15">
    <path clip-path="url(#pca5456cf9e)" style="fill:none;stroke:#f5deb3;stroke-linecap:square;stroke-width:1.5;"/>
   </g>
   <g id="line2d_16">
    <path clip-path="url(#pca5456cf9e)" d="M 362.046061 293.76 
L 362.046061 289.927604 
L 457.429037 289.927604 
L 457.429037 286.095208 
L 461.8 286.095208 
" style="fill:none;stroke:#f5deb3;stroke-linecap:square;stroke-width:1.5;"/>
   </g>
   <g id="line2d_17">
    <path clip-path="url(#pca5456cf9e)" d="M 373.214671 293.76 
L 373.214671 289.927604 
L 376.011642 289.927604 
L 376.011642 286.095208 
L 398.227823 286.095208 
L 398.227823 282.262812 
L 461.8 282.262812 
" style="fill:none;stroke:#f5deb3;stroke-linecap:square;stroke-width:1.5;"/>
   </g>
   <g id="line2d_18">
    <path clip-path="url(#pca5456cf9e)" d="M 248.181922 293.76 
L 248.181922 289.927604 
L 270.330356 289.927604 
L 270.330356 286.095208 
L 279.551457 286.095208 
L 279.551457 282.262812 
L 281.490592 282.262812 
L 281.490592 278.430416 
L 281.920319 278.430416 
L 281.920319 274.59802 
L 296.188738 274.59802 
L 296.188738 270.765624 
L 304.961977 270.765624 
L 304.961977 266.933228 
L 306.656403 266.933228 
L 306.656403 263.100832 
L 310.059551 263.100832 
L 310.059551 259.268436 
L 314.825699 259.268436 
L 314.825699 255.43604 
L 324.953697 255.43604 
L 324.953697 251.603644 
L 325.999295 251.603644 
L 325.999295 247.771248 
L 327.990956 247.771248 
L 327.990956 243.938851 
L 328.688958 243.938851 
L 328.688958 240.106455 
L 342.37937 240.106455 
L 342.37937 236.274059 
L 344.448336 236.274059 
L 344.448336 232.441663 
L 344.940469 232.441663 
L 344.940469 228.609267 
L 345.515487 228.609267 
L 345.515487 224.776871 
L 346.687643 224.776871 
L 346.687643 220.944475 
L 360.364175 220.944475 
L 360.364175 217.112079 
L 361.220531 217.112079 
L 361.220531 213.279683 
L 367.983171 213.279683 
L 367.983171 209.447287 
L 371.505568 209.447287 
L 371.505568 205.614891 
L 379.317372 205.614891 
L 379.317372 201.782495 
L 391.363098 201.782495 
L 391.363098 197.950099 
L 395.830077 197.950099 
L 395.830077 194.117703 
L 399.673242 194.117703 
L 399.673242 190.285307 
L 405.064447 190.285307 
L 405.064447 186.452911 
L 424.157882 186.452911 
L 424.157882 182.620515 
L 431.638225 182.620515 
L 431.638225 178.788119 
L 431.638225 178.788119 
L 431.638225 178.788119 
L 460.8 178.788119 
" style="fill:none;stroke:#f5deb3;stroke-linecap:square;stroke-width:1.5;"/>
   </g>
   <g id="line2d_19">
    <path clip-path="url(#pca5456cf9e)" d="M 419.634555 293.76 
L 419.634555 289.553712 
L 423.903327 289.553712 
L 423.903327 285.347423 
L 427.988918 285.347423 
L 427.988918 281.141135 
L 433.054341 281.141135 
L 433.054341 276.934847 
L 434.293869 276.934847 
L 434.293869 272.728558 
L 434.681329 272.728558 
L 434.681329 268.52227 
L 438.4947 268.52227 
L 438.4947 264.315982 
L 438.672196 264.315982 
L 438.672196 260.109693 
L 439.537922 260.109693 
L 439.537922 255.903405 
L 441.461 255.903405 
L 441.461 251.697117 
L 443.88117 251.697117 
L 443.88117 247.490828 
L 444.706629 247.490828 
L 444.706629 243.28454 
L 444.909424 243.28454 
L 444.909424 239.078252 
L 445.411301 239.078252 
L 445.411301 234.871963 
L 447.894798 234.871963 
L 447.894798 230.665675 
L 456.04316 230.665675 
L 456.04316 226.459387 
L 457.829544 226.459387 
L 457.829544 222.253098 
L 461.8 222.253098 
L 461.8 222.253098 
" style="fill:none;stroke:#f5deb3;stroke-linecap:square;stroke-width:1.5;"/>
   </g>
   <g id="line2d_20">
    <path clip-path="url(#pca5456cf9e)" d="M 242.581985 293.76 
L 242.581985 289.927604 
L 242.581985 289.927604 
L 242.581985 286.095208 
L 247.472863 286.095208 
L 247.472863 282.262812 
L 250.078191 282.262812 
L 250.078191 278.430416 
L 265.484965 278.430416 
L 265.484965 274.59802 
L 286.86798 274.59802 
L 286.86798 270.765624 
L 292.242837 270.765624 
L 292.242837 266.933228 
L 300.465134 266.933228 
L 300.465134 263.100832 
L 310.572528 263.100832 
L 310.572528 259.268436 
L 322.105988 259.268436 
L 322.105988 255.43604 
L 323.67435 255.43604 
L 323.67435 251.603644 
L 326.099253 251.603644 
L 326.099253 247.771248 
L 327.990956 247.771248 
L 327.990956 243.938851 
L 332.001519 243.938851 
L 332.001519 240.106455 
L 332.118731 240.106455 
L 332.118731 236.274059 
L 340.017333 236.274059 
L 340.017333 232.441663 
L 343.745972 232.441663 
L 343.745972 228.609267 
L 344.583068 228.609267 
L 344.583068 224.776871 
L 345.427481 224.776871 
L 345.427481 220.944475 
L 346.623288 220.944475 
L 346.623288 217.112079 
L 350.375649 217.112079 
L 350.375649 213.279683 
L 354.760169 213.279683 
L 354.760169 209.447287 
L 362.138606 209.447287 
L 362.138606 205.614891 
L 362.154013 205.614891 
L 362.154013 201.782495 
L 364.055732 201.782495 
L 364.055732 197.950099 
L 376.997833 197.950099 
L 376.997833 194.117703 
L 378.34667 194.117703 
L 378.34667 190.285307 
L 380.142663 190.285307 
L 380.142663 186.452911 
L 403.218198 186.452911 
L 403.218198 182.620515 
L 405.230405 182.620515 
L 405.230405 178.788119 
L 461.8 178.788119 
" style="fill:none;stroke:#f5deb3;stroke-linecap:square;stroke-width:1.5;"/>
   </g>
   <g id="line2d_21">
    <path clip-path="url(#pca5456cf9e)" d="M 446.658132 293.76 
L 446.658132 289.927604 
L 461.8 289.927604 
" style="fill:none;stroke:#f5deb3;stroke-linecap:square;stroke-width:1.5;"/>
   </g>
   <g id="line2d_22">
    <path clip-path="url(#pca5456cf9e)" d="M 225.263284 293.76 
L 225.263284 289.927604 
L 232.436038 289.927604 
L 232.436038 286.095208 
L 241.782017 286.095208 
L 241.782017 282.262812 
L 242.976898 282.262812 
L 242.976898 278.430416 
L 250.078191 278.430416 
L 250.078191 274.59802 
L 253.966681 274.59802 
L 253.966681 270.765624 
L 312.791668 270.765624 
L 312.791668 266.933228 
L 342.190957 266.933228 
L 342.190957 263.100832 
L 344.583068 263.100832 
L 344.583068 259.268436 
L 349.00863 259.268436 
L 349.00863 255.43604 
L 351.800057 255.43604 
L 351.800057 251.603644 
L 360.603628 251.603644 
L 360.603628 247.771248 
L 364.61442 247.771248 
L 364.61442 243.938851 
L 373.662493 243.938851 
L 373.662493 240.106455 
L 378.802171 240.106455 
L 378.802171 236.274059 
L 384.304467 236.274059 
L 384.304467 232.441663 
L 407.464818 232.441663 
L 407.464818 228.609267 
L 408.144267 228.609267 
L 408.144267 224.776871 
L 412.036588 224.776871 
L 412.036588 220.944475 
L 413.565747 220.944475 
L 413.565747 217.112079 
L 417.290171 217.112079 
L 417.290171 213.279683 
L 428.188446 213.279683 
L 428.188446 209.447287 
L 440.018858 209.447287 
L 440.018858 205.614891 
L 447.617833 205.614891 
L 447.617833 201.782495 
L 448.606841 201.782495 
L 448.606841 197.950099 
L 449.477754 197.950099 
L 449.477754 194.117703 
L 461.8 194.117703 
" style="fill:none;stroke:#f5deb3;stroke-linecap:square;stroke-width:1.5;"/>
   </g>
   <g id="line2d_23">
    <path clip-path="url(#pca5456cf9e)" d="M 364.80403 293.76 
L 364.80403 289.927604 
L 372.144488 289.927604 
L 372.144488 286.095208 
L 375.504852 286.095208 
L 375.504852 282.262812 
L 376.410888 282.262812 
L 376.410888 278.430416 
L 378.128196 278.430416 
L 378.128196 274.59802 
L 381.557887 274.59802 
L 381.557887 270.765624 
L 399.180089 270.765624 
L 399.180089 266.933228 
L 403.702484 266.933228 
L 403.702484 263.100832 
L 403.961678 263.100832 
L 403.961678 259.268436 
L 405.876311 259.268436 
L 405.876311 255.43604 
L 414.536326 255.43604 
L 414.536326 251.603644 
L 417.827639 251.603644 
L 417.827639 247.771248 
L 425.202537 247.771248 
L 425.202537 243.938851 
L 432.601864 243.938851 
L 432.601864 240.106455 
L 435.648985 240.106455 
L 435.648985 236.274059 
L 441.424209 236.274059 
L 441.424209 232.441663 
L 456.974331 232.441663 
L 456.974331 228.609267 
L 457.016957 228.609267 
L 457.016957 224.776871 
L 460.225727 224.776871 
L 460.225727 220.944475 
L 461.8 220.944475 
" style="fill:none;stroke:#f5deb3;stroke-linecap:square;stroke-width:1.5;"/>
   </g>
   <g id="line2d_24">
    <path clip-path="url(#pca5456cf9e)" d="M 314.994794 293.76 
L 314.994794 289.927604 
L 316.571437 289.927604 
L 316.571437 286.095208 
L 324.023583 286.095208 
L 324.023583 282.262812 
L 325.293546 282.262812 
L 325.293546 278.430416 
L 332.410484 278.430416 
L 332.410484 274.59802 
L 333.474424 274.59802 
L 333.474424 270.765624 
L 344.155078 270.765624 
L 344.155078 266.933228 
L 372.132043 266.933228 
L 372.132043 263.100832 
L 402.99991 263.100832 
L 402.99991 259.268436 
L 404.075019 259.268436 
L 404.075019 255.43604 
L 405.670103 255.43604 
L 405.670103 251.603644 
L 407.253756 251.603644 
L 407.253756 247.771248 
L 409.367676 247.771248 
L 409.367676 243.938851 
L 410.362389 243.938851 
L 410.362389 240.106455 
L 410.631038 240.106455 
L 410.631038 236.274059 
L 413.719533 236.274059 
L 413.719533 232.441663 
L 424.026672 232.441663 
L 424.026672 228.609267 
L 424.873036 228.609267 
L 424.873036 224.776871 
L 426.165578 224.776871 
L 426.165578 220.944475 
L 437.365979 220.944475 
L 437.365979 217.112079 
L 443.792435 217.112079 
L 443.792435 213.279683 
L 445.098259 213.279683 
L 445.098259 209.447287 
L 446.599868 209.447287 
L 446.599868 205.614891 
L 446.807259 205.614891 
L 446.807259 201.782495 
L 449.803171 201.782495 
L 449.803171 197.950099 
L 457.402885 197.950099 
L 457.402885 194.117703 
L 459.405864 194.117703 
L 459.405864 190.285307 
L 460.15558 190.285307 
L 460.15558 186.452911 
L 461.8 186.452911 
" style="fill:none;stroke:#f5deb3;stroke-linecap:square;stroke-width:1.5;"/>
   </g>
   <g id="line2d_25">
    <path clip-path="url(#pca5456cf9e)" style="fill:none;stroke:#f5deb3;stroke-linecap:square;stroke-width:1.5;"/>
   </g>
   <g id="line2d_26">
    <path clip-path="url(#pca5456cf9e)" d="M 333.417528 293.76 
L 333.417528 289.927604 
L 335.122473 289.927604 
L 335.122473 286.095208 
L 335.532377 286.095208 
L 335.532377 282.262812 
L 336.073388 282.262812 
L 336.073388 278.430416 
L 336.288054 278.430416 
L 336.288054 274.59802 
L 337.503628 274.59802 
L 337.503628 270.765624 
L 338.382227 270.765624 
L 338.382227 266.933228 
L 338.688425 266.933228 
L 338.688425 263.100832 
L 342.44983 263.100832 
L 342.44983 259.268436 
L 353.554089 259.268436 
L 353.554089 255.43604 
L 354.633715 255.43604 
L 354.633715 251.603644 
L 355.953534 251.603644 
L 355.953534 247.771248 
L 356.443376 247.771248 
L 356.443376 243.938851 
L 359.930048 243.938851 
L 359.930048 240.106455 
L 369.178167 240.106455 
L 369.178167 236.274059 
L 370.045046 236.274059 
L 370.045046 232.441663 
L 370.071066 232.441663 
L 370.071066 228.609267 
L 370.729734 228.609267 
L 370.729734 224.776871 
L 372.762523 224.776871 
L 372.762523 220.944475 
L 373.068507 220.944475 
L 373.068507 217.112079 
L 374.153773 217.112079 
L 374.153773 213.279683 
L 387.278474 213.279683 
L 387.278474 209.447287 
L 390.454876 209.447287 
L 390.454876 205.614891 
L 390.572519 205.614891 
L 390.572519 201.782495 
L 391.683823 201.782495 
L 391.683823 197.950099 
L 393.539719 197.950099 
L 393.539719 194.117703 
L 399.866305 194.117703 
L 399.866305 190.285307 
L 400.106519 190.285307 
L 400.106519 186.452911 
L 403.993189 186.452911 
L 403.993189 182.620515 
L 405.193576 182.620515 
L 405.193576 178.788119 
L 416.91406 178.788119 
L 416.91406 174.955723 
L 418.326551 174.955723 
L 418.326551 171.123327 
L 422.992924 171.123327 
L 422.992924 167.290931 
L 426.22438 167.290931 
L 426.22438 163.458535 
L 448.531501 163.458535 
L 448.531501 159.626139 
L 451.144819 159.626139 
L 451.144819 155.793743 
L 461.8 155.793743 
" style="fill:none;stroke:#f5deb3;stroke-linecap:square;stroke-width:1.5;"/>
   </g>
   <g id="line2d_27">
    <path clip-path="url(#pca5456cf9e)" d="M 268.883485 293.76 
L 268.883485 289.927604 
L 279.910056 289.927604 
L 279.910056 286.095208 
L 322.033434 286.095208 
L 322.033434 282.262812 
L 337.555769 282.262812 
L 337.555769 278.430416 
L 366.714958 278.430416 
L 366.714958 274.59802 
L 385.244902 274.59802 
L 385.244902 270.765624 
L 391.478483 270.765624 
L 391.478483 266.933228 
L 392.649078 266.933228 
L 392.649078 263.100832 
L 393.13626 263.100832 
L 393.13626 259.268436 
L 403.288603 259.268436 
L 403.288603 255.43604 
L 406.477591 255.43604 
L 406.477591 251.603644 
L 406.489538 251.603644 
L 406.489538 247.771248 
L 410.031316 247.771248 
L 410.031316 243.938851 
L 413.791127 243.938851 
L 413.791127 240.106455 
L 416.799197 240.106455 
L 416.799197 236.274059 
L 420.09234 236.274059 
L 420.09234 232.441663 
L 420.230589 232.441663 
L 420.230589 228.609267 
L 422.090142 228.609267 
L 422.090142 224.776871 
L 426.283109 224.776871 
L 426.283109 220.944475 
L 431.540411 220.944475 
L 431.540411 217.112079 
L 437.707463 217.112079 
L 437.707463 213.279683 
L 441.83575 213.279683 
L 441.83575 209.447287 
L 442.313203 209.447287 
L 442.313203 205.614891 
L 456.852326 205.614891 
L 456.852326 201.782495 
L 457.382758 201.782495 
L 457.382758 197.950099 
L 458.771141 197.950099 
L 458.771141 194.117703 
L 461.8 194.117703 
" style="fill:none;stroke:#f5deb3;stroke-linecap:square;stroke-width:1.5;"/>
   </g>
   <g id="line2d_28">
    <path clip-path="url(#pca5456cf9e)" d="M 288.008499 293.76 
L 288.008499 289.927604 
L 288.75369 289.927604 
L 288.75369 286.095208 
L 298.525998 286.095208 
L 298.525998 282.262812 
L 309.682914 282.262812 
L 309.682914 278.430416 
L 332.294001 278.430416 
L 332.294001 274.59802 
L 360.507994 274.59802 
L 360.507994 270.765624 
L 377.310857 270.765624 
L 377.310857 266.933228 
L 404.581681 266.933228 
L 404.581681 263.100832 
L 407.324216 263.100832 
L 407.324216 259.268436 
L 409.725761 259.268436 
L 409.725761 255.43604 
L 409.764761 255.43604 
L 409.764761 251.603644 
L 411.919728 251.603644 
L 411.919728 247.771248 
L 412.364359 247.771248 
L 412.364359 243.938851 
L 415.339106 243.938851 
L 415.339106 240.106455 
L 421.335162 240.106455 
L 421.335162 236.274059 
L 422.967731 236.274059 
L 422.967731 232.441663 
L 443.343501 232.441663 
L 443.343501 228.609267 
L 444.751477 228.609267 
L 444.751477 224.776871 
L 445.45548 224.776871 
L 445.45548 220.944475 
L 445.853799 220.944475 
L 445.853799 217.112079 
L 446.650536 217.112079 
L 446.650536 213.279683 
L 447.902194 213.279683 
L 447.902194 209.447287 
L 449.164457 209.447287 
L 449.164457 205.614891 
L 449.758175 205.614891 
L 449.758175 201.782495 
L 450.526608 201.782495 
L 450.526608 197.950099 
L 456.045231 197.950099 
L 456.045231 194.117703 
L 456.148691 194.117703 
L 456.148691 190.285307 
L 461.30626 190.285307 
L 461.30626 186.452911 
L 461.8 186.452911 
" style="fill:none;stroke:#f5deb3;stroke-linecap:square;stroke-width:1.5;"/>
   </g>
   <g id="line2d_29">
    <path clip-path="url(#pca5456cf9e)" d="M 283.269515 293.76 
L 283.269515 289.927604 
L 283.269515 289.927604 
L 283.269515 286.095208 
L 283.269515 286.095208 
L 283.269515 282.262812 
L 316.079264 282.262812 
L 316.079264 278.430416 
L 316.079264 278.430416 
L 316.079264 274.59802 
L 316.079264 274.59802 
L 316.079264 270.765624 
L 322.967967 270.765624 
L 322.967967 266.933228 
L 322.967967 266.933228 
L 322.967967 263.100832 
L 322.967967 263.100832 
L 322.967967 259.268436 
L 364.011339 259.268436 
L 364.011339 255.43604 
L 364.011339 255.43604 
L 364.011339 251.603644 
L 364.011339 251.603644 
L 364.011339 247.771248 
L 408.540392 247.771248 
L 408.540392 243.938851 
L 408.540392 243.938851 
L 408.540392 240.106455 
L 408.540392 240.106455 
L 408.540392 236.274059 
L 426.341764 236.274059 
L 426.341764 232.441663 
L 426.341764 232.441663 
L 426.341764 228.609267 
L 426.341764 228.609267 
L 426.341764 224.776871 
L 435.655391 224.776871 
L 435.655391 220.944475 
L 435.655391 220.944475 
L 435.655391 217.112079 
L 435.655391 217.112079 
L 435.655391 213.279683 
L 438.630139 213.279683 
L 438.630139 209.447287 
L 439.614498 209.447287 
L 439.614498 205.614891 
L 452.368473 205.614891 
L 452.368473 201.782495 
L 453.646059 201.782495 
L 453.646059 197.950099 
L 453.950332 197.950099 
L 453.950332 194.117703 
L 461.8 194.117703 
" style="fill:none;stroke:#f5deb3;stroke-linecap:square;stroke-width:1.5;"/>
   </g>
   <g id="line2d_30">
    <path clip-path="url(#pca5456cf9e)" d="M 398.213569 293.76 
L 398.213569 289.927604 
L 401.13566 289.927604 
L 401.13566 286.095208 
L 450.44963 286.095208 
L 450.44963 282.262812 
L 461.8 282.262812 
" style="fill:none;stroke:#f5deb3;stroke-linecap:square;stroke-width:1.5;"/>
   </g>
   <g id="matplotlib.axis_1">
    <g id="xtick_1">
     <g id="line2d_31">
      <path clip-path="url(#pca5456cf9e)" d="M 62.208 293.76 
L 62.208 3.456 
" style="fill:none;stroke:#b0b0b0;stroke-linecap:square;stroke-width:0.8;"/>
     </g>
     <g id="line2d_32">
      <defs>
       <path d="M 0 0 
L 0 3.5 
" id="m21f34eab4f" style="stroke:#000000;stroke-width:0.8;"/>
      </defs>
      <g>
       <use style="stroke:#000000;stroke-width:0.8;" x="62.208" xlink:href="#m21f34eab4f" y="293.76"/>
      </g>
     </g>
     <g id="text_1">
      <!-- 0 -->
      <g transform="translate(55.8455 315.956875)scale(0.2 -0.2)">
       <defs>
        <path d="M 31.78125 66.40625 
Q 24.171875 66.40625 20.328125 58.90625 
Q 16.5 51.421875 16.5 36.375 
Q 16.5 21.390625 20.328125 13.890625 
Q 24.171875 6.390625 31.78125 6.390625 
Q 39.453125 6.390625 43.28125 13.890625 
Q 47.125 21.390625 47.125 36.375 
Q 47.125 51.421875 43.28125 58.90625 
Q 39.453125 66.40625 31.78125 66.40625 
z
M 31.78125 74.21875 
Q 44.046875 74.21875 50.515625 64.515625 
Q 56.984375 54.828125 56.984375 36.375 
Q 56.984375 17.96875 50.515625 8.265625 
Q 44.046875 -1.421875 31.78125 -1.421875 
Q 19.53125 -1.421875 13.0625 8.265625 
Q 6.59375 17.96875 6.59375 36.375 
Q 6.59375 54.828125 13.0625 64.515625 
Q 19.53125 74.21875 31.78125 74.21875 
z
" id="DejaVuSans-48"/>
       </defs>
       <use xlink:href="#DejaVuSans-48"/>
      </g>
     </g>
    </g>
    <g id="xtick_2">
     <g id="line2d_33">
      <path clip-path="url(#pca5456cf9e)" d="M 277.716046 293.76 
L 277.716046 3.456 
" style="fill:none;stroke:#b0b0b0;stroke-linecap:square;stroke-width:0.8;"/>
     </g>
     <g id="line2d_34">
      <g>
       <use style="stroke:#000000;stroke-width:0.8;" x="277.716046" xlink:href="#m21f34eab4f" y="293.76"/>
      </g>
     </g>
     <g id="text_2">
      <!-- 2 -->
      <g transform="translate(271.353546 315.956875)scale(0.2 -0.2)">
       <defs>
        <path d="M 19.1875 8.296875 
L 53.609375 8.296875 
L 53.609375 0 
L 7.328125 0 
L 7.328125 8.296875 
Q 12.9375 14.109375 22.625 23.890625 
Q 32.328125 33.6875 34.8125 36.53125 
Q 39.546875 41.84375 41.421875 45.53125 
Q 43.3125 49.21875 43.3125 52.78125 
Q 43.3125 58.59375 39.234375 62.25 
Q 35.15625 65.921875 28.609375 65.921875 
Q 23.96875 65.921875 18.8125 64.3125 
Q 13.671875 62.703125 7.8125 59.421875 
L 7.8125 69.390625 
Q 13.765625 71.78125 18.9375 73 
Q 24.125 74.21875 28.421875 74.21875 
Q 39.75 74.21875 46.484375 68.546875 
Q 53.21875 62.890625 53.21875 53.421875 
Q 53.21875 48.921875 51.53125 44.890625 
Q 49.859375 40.875 45.40625 35.40625 
Q 44.1875 33.984375 37.640625 27.21875 
Q 31.109375 20.453125 19.1875 8.296875 
z
" id="DejaVuSans-50"/>
       </defs>
       <use xlink:href="#DejaVuSans-50"/>
      </g>
     </g>
    </g>
    <g id="xtick_3">
     <g id="line2d_35">
      <path clip-path="url(#pca5456cf9e)" d="M 94.645193 293.76 
L 94.645193 3.456 
" style="fill:none;stroke:#b0b0b0;stroke-linecap:square;stroke-width:0.8;"/>
     </g>
     <g id="line2d_36">
      <defs>
       <path d="M 0 0 
L 0 2 
" id="m19f6c6a2e8" style="stroke:#000000;stroke-width:0.6;"/>
      </defs>
      <g>
       <use style="stroke:#000000;stroke-width:0.6;" x="94.645193" xlink:href="#m19f6c6a2e8" y="293.76"/>
      </g>
     </g>
    </g>
    <g id="xtick_4">
     <g id="line2d_37">
      <path clip-path="url(#pca5456cf9e)" d="M 113.619735 293.76 
L 113.619735 3.456 
" style="fill:none;stroke:#b0b0b0;stroke-linecap:square;stroke-width:0.8;"/>
     </g>
     <g id="line2d_38">
      <g>
       <use style="stroke:#000000;stroke-width:0.6;" x="113.619735" xlink:href="#m19f6c6a2e8" y="293.76"/>
      </g>
     </g>
    </g>
    <g id="xtick_5">
     <g id="line2d_39">
      <path clip-path="url(#pca5456cf9e)" d="M 127.082386 293.76 
L 127.082386 3.456 
" style="fill:none;stroke:#b0b0b0;stroke-linecap:square;stroke-width:0.8;"/>
     </g>
     <g id="line2d_40">
      <g>
       <use style="stroke:#000000;stroke-width:0.6;" x="127.082386" xlink:href="#m19f6c6a2e8" y="293.76"/>
      </g>
     </g>
    </g>
    <g id="xtick_6">
     <g id="line2d_41">
      <path clip-path="url(#pca5456cf9e)" d="M 137.52483 293.76 
L 137.52483 3.456 
" style="fill:none;stroke:#b0b0b0;stroke-linecap:square;stroke-width:0.8;"/>
     </g>
     <g id="line2d_42">
      <g>
       <use style="stroke:#000000;stroke-width:0.6;" x="137.52483" xlink:href="#m19f6c6a2e8" y="293.76"/>
      </g>
     </g>
    </g>
    <g id="xtick_7">
     <g id="line2d_43">
      <path clip-path="url(#pca5456cf9e)" d="M 146.056928 293.76 
L 146.056928 3.456 
" style="fill:none;stroke:#b0b0b0;stroke-linecap:square;stroke-width:0.8;"/>
     </g>
     <g id="line2d_44">
      <g>
       <use style="stroke:#000000;stroke-width:0.6;" x="146.056928" xlink:href="#m19f6c6a2e8" y="293.76"/>
      </g>
     </g>
    </g>
    <g id="xtick_8">
     <g id="line2d_45">
      <path clip-path="url(#pca5456cf9e)" d="M 153.270714 293.76 
L 153.270714 3.456 
" style="fill:none;stroke:#b0b0b0;stroke-linecap:square;stroke-width:0.8;"/>
     </g>
     <g id="line2d_46">
      <g>
       <use style="stroke:#000000;stroke-width:0.6;" x="153.270714" xlink:href="#m19f6c6a2e8" y="293.76"/>
      </g>
     </g>
    </g>
    <g id="xtick_9">
     <g id="line2d_47">
      <path clip-path="url(#pca5456cf9e)" d="M 159.519579 293.76 
L 159.519579 3.456 
" style="fill:none;stroke:#b0b0b0;stroke-linecap:square;stroke-width:0.8;"/>
     </g>
     <g id="line2d_48">
      <g>
       <use style="stroke:#000000;stroke-width:0.6;" x="159.519579" xlink:href="#m19f6c6a2e8" y="293.76"/>
      </g>
     </g>
    </g>
    <g id="xtick_10">
     <g id="line2d_49">
      <path clip-path="url(#pca5456cf9e)" d="M 165.031469 293.76 
L 165.031469 3.456 
" style="fill:none;stroke:#b0b0b0;stroke-linecap:square;stroke-width:0.8;"/>
     </g>
     <g id="line2d_50">
      <g>
       <use style="stroke:#000000;stroke-width:0.6;" x="165.031469" xlink:href="#m19f6c6a2e8" y="293.76"/>
      </g>
     </g>
    </g>
    <g id="xtick_11">
     <g id="line2d_51">
      <path clip-path="url(#pca5456cf9e)" d="M 202.399216 293.76 
L 202.399216 3.456 
" style="fill:none;stroke:#b0b0b0;stroke-linecap:square;stroke-width:0.8;"/>
     </g>
     <g id="line2d_52">
      <g>
       <use style="stroke:#000000;stroke-width:0.6;" x="202.399216" xlink:href="#m19f6c6a2e8" y="293.76"/>
      </g>
     </g>
    </g>
    <g id="xtick_12">
     <g id="line2d_53">
      <path clip-path="url(#pca5456cf9e)" d="M 221.373758 293.76 
L 221.373758 3.456 
" style="fill:none;stroke:#b0b0b0;stroke-linecap:square;stroke-width:0.8;"/>
     </g>
     <g id="line2d_54">
      <g>
       <use style="stroke:#000000;stroke-width:0.6;" x="221.373758" xlink:href="#m19f6c6a2e8" y="293.76"/>
      </g>
     </g>
    </g>
    <g id="xtick_13">
     <g id="line2d_55">
      <path clip-path="url(#pca5456cf9e)" d="M 234.836409 293.76 
L 234.836409 3.456 
" style="fill:none;stroke:#b0b0b0;stroke-linecap:square;stroke-width:0.8;"/>
     </g>
     <g id="line2d_56">
      <g>
       <use style="stroke:#000000;stroke-width:0.6;" x="234.836409" xlink:href="#m19f6c6a2e8" y="293.76"/>
      </g>
     </g>
    </g>
    <g id="xtick_14">
     <g id="line2d_57">
      <path clip-path="url(#pca5456cf9e)" d="M 245.278853 293.76 
L 245.278853 3.456 
" style="fill:none;stroke:#b0b0b0;stroke-linecap:square;stroke-width:0.8;"/>
     </g>
     <g id="line2d_58">
      <g>
       <use style="stroke:#000000;stroke-width:0.6;" x="245.278853" xlink:href="#m19f6c6a2e8" y="293.76"/>
      </g>
     </g>
    </g>
    <g id="xtick_15">
     <g id="line2d_59">
      <path clip-path="url(#pca5456cf9e)" d="M 253.810951 293.76 
L 253.810951 3.456 
" style="fill:none;stroke:#b0b0b0;stroke-linecap:square;stroke-width:0.8;"/>
     </g>
     <g id="line2d_60">
      <g>
       <use style="stroke:#000000;stroke-width:0.6;" x="253.810951" xlink:href="#m19f6c6a2e8" y="293.76"/>
      </g>
     </g>
    </g>
    <g id="xtick_16">
     <g id="line2d_61">
      <path clip-path="url(#pca5456cf9e)" d="M 261.024737 293.76 
L 261.024737 3.456 
" style="fill:none;stroke:#b0b0b0;stroke-linecap:square;stroke-width:0.8;"/>
     </g>
     <g id="line2d_62">
      <g>
       <use style="stroke:#000000;stroke-width:0.6;" x="261.024737" xlink:href="#m19f6c6a2e8" y="293.76"/>
      </g>
     </g>
    </g>
    <g id="xtick_17">
     <g id="line2d_63">
      <path clip-path="url(#pca5456cf9e)" d="M 267.273602 293.76 
L 267.273602 3.456 
" style="fill:none;stroke:#b0b0b0;stroke-linecap:square;stroke-width:0.8;"/>
     </g>
     <g id="line2d_64">
      <g>
       <use style="stroke:#000000;stroke-width:0.6;" x="267.273602" xlink:href="#m19f6c6a2e8" y="293.76"/>
      </g>
     </g>
    </g>
    <g id="xtick_18">
     <g id="line2d_65">
      <path clip-path="url(#pca5456cf9e)" d="M 272.785492 293.76 
L 272.785492 3.456 
" style="fill:none;stroke:#b0b0b0;stroke-linecap:square;stroke-width:0.8;"/>
     </g>
     <g id="line2d_66">
      <g>
       <use style="stroke:#000000;stroke-width:0.6;" x="272.785492" xlink:href="#m19f6c6a2e8" y="293.76"/>
      </g>
     </g>
    </g>
    <g id="xtick_19">
     <g id="line2d_67">
      <path clip-path="url(#pca5456cf9e)" d="M 310.153239 293.76 
L 310.153239 3.456 
" style="fill:none;stroke:#b0b0b0;stroke-linecap:square;stroke-width:0.8;"/>
     </g>
     <g id="line2d_68">
      <g>
       <use style="stroke:#000000;stroke-width:0.6;" x="310.153239" xlink:href="#m19f6c6a2e8" y="293.76"/>
      </g>
     </g>
    </g>
    <g id="xtick_20">
     <g id="line2d_69">
      <path clip-path="url(#pca5456cf9e)" d="M 329.12778 293.76 
L 329.12778 3.456 
" style="fill:none;stroke:#b0b0b0;stroke-linecap:square;stroke-width:0.8;"/>
     </g>
     <g id="line2d_70">
      <g>
       <use style="stroke:#000000;stroke-width:0.6;" x="329.12778" xlink:href="#m19f6c6a2e8" y="293.76"/>
      </g>
     </g>
    </g>
    <g id="xtick_21">
     <g id="line2d_71">
      <path clip-path="url(#pca5456cf9e)" d="M 342.590432 293.76 
L 342.590432 3.456 
" style="fill:none;stroke:#b0b0b0;stroke-linecap:square;stroke-width:0.8;"/>
     </g>
     <g id="line2d_72">
      <g>
       <use style="stroke:#000000;stroke-width:0.6;" x="342.590432" xlink:href="#m19f6c6a2e8" y="293.76"/>
      </g>
     </g>
    </g>
    <g id="xtick_22">
     <g id="line2d_73">
      <path clip-path="url(#pca5456cf9e)" d="M 353.032876 293.76 
L 353.032876 3.456 
" style="fill:none;stroke:#b0b0b0;stroke-linecap:square;stroke-width:0.8;"/>
     </g>
     <g id="line2d_74">
      <g>
       <use style="stroke:#000000;stroke-width:0.6;" x="353.032876" xlink:href="#m19f6c6a2e8" y="293.76"/>
      </g>
     </g>
    </g>
    <g id="xtick_23">
     <g id="line2d_75">
      <path clip-path="url(#pca5456cf9e)" d="M 361.564974 293.76 
L 361.564974 3.456 
" style="fill:none;stroke:#b0b0b0;stroke-linecap:square;stroke-width:0.8;"/>
     </g>
     <g id="line2d_76">
      <g>
       <use style="stroke:#000000;stroke-width:0.6;" x="361.564974" xlink:href="#m19f6c6a2e8" y="293.76"/>
      </g>
     </g>
    </g>
    <g id="xtick_24">
     <g id="line2d_77">
      <path clip-path="url(#pca5456cf9e)" d="M 368.778759 293.76 
L 368.778759 3.456 
" style="fill:none;stroke:#b0b0b0;stroke-linecap:square;stroke-width:0.8;"/>
     </g>
     <g id="line2d_78">
      <g>
       <use style="stroke:#000000;stroke-width:0.6;" x="368.778759" xlink:href="#m19f6c6a2e8" y="293.76"/>
      </g>
     </g>
    </g>
    <g id="xtick_25">
     <g id="line2d_79">
      <path clip-path="url(#pca5456cf9e)" d="M 375.027625 293.76 
L 375.027625 3.456 
" style="fill:none;stroke:#b0b0b0;stroke-linecap:square;stroke-width:0.8;"/>
     </g>
     <g id="line2d_80">
      <g>
       <use style="stroke:#000000;stroke-width:0.6;" x="375.027625" xlink:href="#m19f6c6a2e8" y="293.76"/>
      </g>
     </g>
    </g>
    <g id="xtick_26">
     <g id="line2d_81">
      <path clip-path="url(#pca5456cf9e)" d="M 380.539515 293.76 
L 380.539515 3.456 
" style="fill:none;stroke:#b0b0b0;stroke-linecap:square;stroke-width:0.8;"/>
     </g>
     <g id="line2d_82">
      <g>
       <use style="stroke:#000000;stroke-width:0.6;" x="380.539515" xlink:href="#m19f6c6a2e8" y="293.76"/>
      </g>
     </g>
    </g>
    <g id="xtick_27">
     <g id="line2d_83">
      <path clip-path="url(#pca5456cf9e)" d="M 417.907262 293.76 
L 417.907262 3.456 
" style="fill:none;stroke:#b0b0b0;stroke-linecap:square;stroke-width:0.8;"/>
     </g>
     <g id="line2d_84">
      <g>
       <use style="stroke:#000000;stroke-width:0.6;" x="417.907262" xlink:href="#m19f6c6a2e8" y="293.76"/>
      </g>
     </g>
    </g>
    <g id="xtick_28">
     <g id="line2d_85">
      <path clip-path="url(#pca5456cf9e)" d="M 436.881803 293.76 
L 436.881803 3.456 
" style="fill:none;stroke:#b0b0b0;stroke-linecap:square;stroke-width:0.8;"/>
     </g>
     <g id="line2d_86">
      <g>
       <use style="stroke:#000000;stroke-width:0.6;" x="436.881803" xlink:href="#m19f6c6a2e8" y="293.76"/>
      </g>
     </g>
    </g>
    <g id="xtick_29">
     <g id="line2d_87">
      <path clip-path="url(#pca5456cf9e)" d="M 450.344455 293.76 
L 450.344455 3.456 
" style="fill:none;stroke:#b0b0b0;stroke-linecap:square;stroke-width:0.8;"/>
     </g>
     <g id="line2d_88">
      <g>
       <use style="stroke:#000000;stroke-width:0.6;" x="450.344455" xlink:href="#m19f6c6a2e8" y="293.76"/>
      </g>
     </g>
    </g>
    <g id="xtick_30">
     <g id="line2d_89">
      <path clip-path="url(#pca5456cf9e)" d="M 460.786899 293.76 
L 460.786899 3.456 
" style="fill:none;stroke:#b0b0b0;stroke-linecap:square;stroke-width:0.8;"/>
     </g>
     <g id="line2d_90">
      <g>
       <use style="stroke:#000000;stroke-width:0.6;" x="460.786899" xlink:href="#m19f6c6a2e8" y="293.76"/>
      </g>
     </g>
    </g>
    <g id="text_3">
     <!-- log10 of FEvals / DIM -->
     <g transform="translate(156.430563 339.313125)scale(0.2 -0.2)">
      <defs>
       <path d="M 9.421875 75.984375 
L 18.40625 75.984375 
L 18.40625 0 
L 9.421875 0 
z
" id="DejaVuSans-108"/>
       <path d="M 30.609375 48.390625 
Q 23.390625 48.390625 19.1875 42.75 
Q 14.984375 37.109375 14.984375 27.296875 
Q 14.984375 17.484375 19.15625 11.84375 
Q 23.34375 6.203125 30.609375 6.203125 
Q 37.796875 6.203125 41.984375 11.859375 
Q 46.1875 17.53125 46.1875 27.296875 
Q 46.1875 37.015625 41.984375 42.703125 
Q 37.796875 48.390625 30.609375 48.390625 
z
M 30.609375 56 
Q 42.328125 56 49.015625 48.375 
Q 55.71875 40.765625 55.71875 27.296875 
Q 55.71875 13.875 49.015625 6.21875 
Q 42.328125 -1.421875 30.609375 -1.421875 
Q 18.84375 -1.421875 12.171875 6.21875 
Q 5.515625 13.875 5.515625 27.296875 
Q 5.515625 40.765625 12.171875 48.375 
Q 18.84375 56 30.609375 56 
z
" id="DejaVuSans-111"/>
       <path d="M 45.40625 27.984375 
Q 45.40625 37.75 41.375 43.109375 
Q 37.359375 48.484375 30.078125 48.484375 
Q 22.859375 48.484375 18.828125 43.109375 
Q 14.796875 37.75 14.796875 27.984375 
Q 14.796875 18.265625 18.828125 12.890625 
Q 22.859375 7.515625 30.078125 7.515625 
Q 37.359375 7.515625 41.375 12.890625 
Q 45.40625 18.265625 45.40625 27.984375 
z
M 54.390625 6.78125 
Q 54.390625 -7.171875 48.1875 -13.984375 
Q 42 -20.796875 29.203125 -20.796875 
Q 24.46875 -20.796875 20.265625 -20.09375 
Q 16.0625 -19.390625 12.109375 -17.921875 
L 12.109375 -9.1875 
Q 16.0625 -11.328125 19.921875 -12.34375 
Q 23.78125 -13.375 27.78125 -13.375 
Q 36.625 -13.375 41.015625 -8.765625 
Q 45.40625 -4.15625 45.40625 5.171875 
L 45.40625 9.625 
Q 42.625 4.78125 38.28125 2.390625 
Q 33.9375 0 27.875 0 
Q 17.828125 0 11.671875 7.65625 
Q 5.515625 15.328125 5.515625 27.984375 
Q 5.515625 40.671875 11.671875 48.328125 
Q 17.828125 56 27.875 56 
Q 33.9375 56 38.28125 53.609375 
Q 42.625 51.21875 45.40625 46.390625 
L 45.40625 54.6875 
L 54.390625 54.6875 
z
" id="DejaVuSans-103"/>
       <path d="M 12.40625 8.296875 
L 28.515625 8.296875 
L 28.515625 63.921875 
L 10.984375 60.40625 
L 10.984375 69.390625 
L 28.421875 72.90625 
L 38.28125 72.90625 
L 38.28125 8.296875 
L 54.390625 8.296875 
L 54.390625 0 
L 12.40625 0 
z
" id="DejaVuSans-49"/>
       <path id="DejaVuSans-32"/>
       <path d="M 37.109375 75.984375 
L 37.109375 68.5 
L 28.515625 68.5 
Q 23.6875 68.5 21.796875 66.546875 
Q 19.921875 64.59375 19.921875 59.515625 
L 19.921875 54.6875 
L 34.71875 54.6875 
L 34.71875 47.703125 
L 19.921875 47.703125 
L 19.921875 0 
L 10.890625 0 
L 10.890625 47.703125 
L 2.296875 47.703125 
L 2.296875 54.6875 
L 10.890625 54.6875 
L 10.890625 58.5 
Q 10.890625 67.625 15.140625 71.796875 
Q 19.390625 75.984375 28.609375 75.984375 
z
" id="DejaVuSans-102"/>
       <path d="M 9.8125 72.90625 
L 51.703125 72.90625 
L 51.703125 64.59375 
L 19.671875 64.59375 
L 19.671875 43.109375 
L 48.578125 43.109375 
L 48.578125 34.8125 
L 19.671875 34.8125 
L 19.671875 0 
L 9.8125 0 
z
" id="DejaVuSans-70"/>
       <path d="M 9.8125 72.90625 
L 55.90625 72.90625 
L 55.90625 64.59375 
L 19.671875 64.59375 
L 19.671875 43.015625 
L 54.390625 43.015625 
L 54.390625 34.71875 
L 19.671875 34.71875 
L 19.671875 8.296875 
L 56.78125 8.296875 
L 56.78125 0 
L 9.8125 0 
z
" id="DejaVuSans-69"/>
       <path d="M 2.984375 54.6875 
L 12.5 54.6875 
L 29.59375 8.796875 
L 46.6875 54.6875 
L 56.203125 54.6875 
L 35.6875 0 
L 23.484375 0 
z
" id="DejaVuSans-118"/>
       <path d="M 34.28125 27.484375 
Q 23.390625 27.484375 19.1875 25 
Q 14.984375 22.515625 14.984375 16.5 
Q 14.984375 11.71875 18.140625 8.90625 
Q 21.296875 6.109375 26.703125 6.109375 
Q 34.1875 6.109375 38.703125 11.40625 
Q 43.21875 16.703125 43.21875 25.484375 
L 43.21875 27.484375 
z
M 52.203125 31.203125 
L 52.203125 0 
L 43.21875 0 
L 43.21875 8.296875 
Q 40.140625 3.328125 35.546875 0.953125 
Q 30.953125 -1.421875 24.3125 -1.421875 
Q 15.921875 -1.421875 10.953125 3.296875 
Q 6 8.015625 6 15.921875 
Q 6 25.140625 12.171875 29.828125 
Q 18.359375 34.515625 30.609375 34.515625 
L 43.21875 34.515625 
L 43.21875 35.40625 
Q 43.21875 41.609375 39.140625 45 
Q 35.0625 48.390625 27.6875 48.390625 
Q 23 48.390625 18.546875 47.265625 
Q 14.109375 46.140625 10.015625 43.890625 
L 10.015625 52.203125 
Q 14.9375 54.109375 19.578125 55.046875 
Q 24.21875 56 28.609375 56 
Q 40.484375 56 46.34375 49.84375 
Q 52.203125 43.703125 52.203125 31.203125 
z
" id="DejaVuSans-97"/>
       <path d="M 44.28125 53.078125 
L 44.28125 44.578125 
Q 40.484375 46.53125 36.375 47.5 
Q 32.28125 48.484375 27.875 48.484375 
Q 21.1875 48.484375 17.84375 46.4375 
Q 14.5 44.390625 14.5 40.28125 
Q 14.5 37.15625 16.890625 35.375 
Q 19.28125 33.59375 26.515625 31.984375 
L 29.59375 31.296875 
Q 39.15625 29.25 43.1875 25.515625 
Q 47.21875 21.78125 47.21875 15.09375 
Q 47.21875 7.46875 41.1875 3.015625 
Q 35.15625 -1.421875 24.609375 -1.421875 
Q 20.21875 -1.421875 15.453125 -0.5625 
Q 10.6875 0.296875 5.421875 2 
L 5.421875 11.28125 
Q 10.40625 8.6875 15.234375 7.390625 
Q 20.0625 6.109375 24.8125 6.109375 
Q 31.15625 6.109375 34.5625 8.28125 
Q 37.984375 10.453125 37.984375 14.40625 
Q 37.984375 18.0625 35.515625 20.015625 
Q 33.0625 21.96875 24.703125 23.78125 
L 21.578125 24.515625 
Q 13.234375 26.265625 9.515625 29.90625 
Q 5.8125 33.546875 5.8125 39.890625 
Q 5.8125 47.609375 11.28125 51.796875 
Q 16.75 56 26.8125 56 
Q 31.78125 56 36.171875 55.265625 
Q 40.578125 54.546875 44.28125 53.078125 
z
" id="DejaVuSans-115"/>
       <path d="M 25.390625 72.90625 
L 33.6875 72.90625 
L 8.296875 -9.28125 
L 0 -9.28125 
z
" id="DejaVuSans-47"/>
       <path d="M 19.671875 64.796875 
L 19.671875 8.109375 
L 31.59375 8.109375 
Q 46.6875 8.109375 53.6875 14.9375 
Q 60.6875 21.78125 60.6875 36.53125 
Q 60.6875 51.171875 53.6875 57.984375 
Q 46.6875 64.796875 31.59375 64.796875 
z
M 9.8125 72.90625 
L 30.078125 72.90625 
Q 51.265625 72.90625 61.171875 64.09375 
Q 71.09375 55.28125 71.09375 36.53125 
Q 71.09375 17.671875 61.125 8.828125 
Q 51.171875 0 30.078125 0 
L 9.8125 0 
z
" id="DejaVuSans-68"/>
       <path d="M 9.8125 72.90625 
L 19.671875 72.90625 
L 19.671875 0 
L 9.8125 0 
z
" id="DejaVuSans-73"/>
       <path d="M 9.8125 72.90625 
L 24.515625 72.90625 
L 43.109375 23.296875 
L 61.8125 72.90625 
L 76.515625 72.90625 
L 76.515625 0 
L 66.890625 0 
L 66.890625 64.015625 
L 48.09375 14.015625 
L 38.1875 14.015625 
L 19.390625 64.015625 
L 19.390625 0 
L 9.8125 0 
z
" id="DejaVuSans-77"/>
      </defs>
      <use xlink:href="#DejaVuSans-108"/>
      <use x="27.783203" xlink:href="#DejaVuSans-111"/>
      <use x="88.964844" xlink:href="#DejaVuSans-103"/>
      <use x="152.441406" xlink:href="#DejaVuSans-49"/>
      <use x="216.064453" xlink:href="#DejaVuSans-48"/>
      <use x="279.6875" xlink:href="#DejaVuSans-32"/>
      <use x="311.474609" xlink:href="#DejaVuSans-111"/>
      <use x="372.65625" xlink:href="#DejaVuSans-102"/>
      <use x="407.861328" xlink:href="#DejaVuSans-32"/>
      <use x="439.648438" xlink:href="#DejaVuSans-70"/>
      <use x="497.167969" xlink:href="#DejaVuSans-69"/>
      <use x="560.351562" xlink:href="#DejaVuSans-118"/>
      <use x="619.53125" xlink:href="#DejaVuSans-97"/>
      <use x="680.810547" xlink:href="#DejaVuSans-108"/>
      <use x="708.59375" xlink:href="#DejaVuSans-115"/>
      <use x="760.693359" xlink:href="#DejaVuSans-32"/>
      <use x="792.480469" xlink:href="#DejaVuSans-47"/>
      <use x="826.171875" xlink:href="#DejaVuSans-32"/>
      <use x="857.958984" xlink:href="#DejaVuSans-68"/>
      <use x="934.960938" xlink:href="#DejaVuSans-73"/>
      <use x="964.453125" xlink:href="#DejaVuSans-77"/>
     </g>
    </g>
   </g>
   <g id="matplotlib.axis_2">
    <g id="ytick_1">
     <g id="line2d_91">
      <path clip-path="url(#pca5456cf9e)" d="M 62.208 293.76 
L 460.8 293.76 
" style="fill:none;stroke:#b0b0b0;stroke-linecap:square;stroke-width:0.8;"/>
     </g>
     <g id="line2d_92">
      <defs>
       <path d="M 0 0 
L -3.5 0 
" id="m29df1c88c4" style="stroke:#000000;stroke-width:0.8;"/>
      </defs>
      <g>
       <use style="stroke:#000000;stroke-width:0.8;" x="62.208" xlink:href="#m29df1c88c4" y="293.76"/>
      </g>
     </g>
     <g id="text_4">
      <!-- 0.0 -->
      <g transform="translate(29.763 299.83875)scale(0.16 -0.16)">
       <defs>
        <path d="M 10.6875 12.40625 
L 21 12.40625 
L 21 0 
L 10.6875 0 
z
" id="DejaVuSans-46"/>
       </defs>
       <use xlink:href="#DejaVuSans-48"/>
       <use x="63.623047" xlink:href="#DejaVuSans-46"/>
       <use x="95.410156" xlink:href="#DejaVuSans-48"/>
      </g>
     </g>
    </g>
    <g id="ytick_2">
     <g id="line2d_93">
      <path clip-path="url(#pca5456cf9e)" d="M 62.208 236.274059 
L 460.8 236.274059 
" style="fill:none;stroke:#b0b0b0;stroke-linecap:square;stroke-width:0.8;"/>
     </g>
     <g id="line2d_94">
      <g>
       <use style="stroke:#000000;stroke-width:0.8;" x="62.208" xlink:href="#m29df1c88c4" y="236.274059"/>
      </g>
     </g>
     <g id="text_5">
      <!-- 0.2 -->
      <g transform="translate(29.763 242.352809)scale(0.16 -0.16)">
       <use xlink:href="#DejaVuSans-48"/>
       <use x="63.623047" xlink:href="#DejaVuSans-46"/>
       <use x="95.410156" xlink:href="#DejaVuSans-50"/>
      </g>
     </g>
    </g>
    <g id="ytick_3">
     <g id="line2d_95">
      <path clip-path="url(#pca5456cf9e)" d="M 62.208 178.788119 
L 460.8 178.788119 
" style="fill:none;stroke:#b0b0b0;stroke-linecap:square;stroke-width:0.8;"/>
     </g>
     <g id="line2d_96">
      <g>
       <use style="stroke:#000000;stroke-width:0.8;" x="62.208" xlink:href="#m29df1c88c4" y="178.788119"/>
      </g>
     </g>
     <g id="text_6">
      <!-- 0.4 -->
      <g transform="translate(29.763 184.866869)scale(0.16 -0.16)">
       <defs>
        <path d="M 37.796875 64.3125 
L 12.890625 25.390625 
L 37.796875 25.390625 
z
M 35.203125 72.90625 
L 47.609375 72.90625 
L 47.609375 25.390625 
L 58.015625 25.390625 
L 58.015625 17.1875 
L 47.609375 17.1875 
L 47.609375 0 
L 37.796875 0 
L 37.796875 17.1875 
L 4.890625 17.1875 
L 4.890625 26.703125 
z
" id="DejaVuSans-52"/>
       </defs>
       <use xlink:href="#DejaVuSans-48"/>
       <use x="63.623047" xlink:href="#DejaVuSans-46"/>
       <use x="95.410156" xlink:href="#DejaVuSans-52"/>
      </g>
     </g>
    </g>
    <g id="ytick_4">
     <g id="line2d_97">
      <path clip-path="url(#pca5456cf9e)" d="M 62.208 121.302178 
L 460.8 121.302178 
" style="fill:none;stroke:#b0b0b0;stroke-linecap:square;stroke-width:0.8;"/>
     </g>
     <g id="line2d_98">
      <g>
       <use style="stroke:#000000;stroke-width:0.8;" x="62.208" xlink:href="#m29df1c88c4" y="121.302178"/>
      </g>
     </g>
     <g id="text_7">
      <!-- 0.6 -->
      <g transform="translate(29.763 127.380928)scale(0.16 -0.16)">
       <defs>
        <path d="M 33.015625 40.375 
Q 26.375 40.375 22.484375 35.828125 
Q 18.609375 31.296875 18.609375 23.390625 
Q 18.609375 15.53125 22.484375 10.953125 
Q 26.375 6.390625 33.015625 6.390625 
Q 39.65625 6.390625 43.53125 10.953125 
Q 47.40625 15.53125 47.40625 23.390625 
Q 47.40625 31.296875 43.53125 35.828125 
Q 39.65625 40.375 33.015625 40.375 
z
M 52.59375 71.296875 
L 52.59375 62.3125 
Q 48.875 64.0625 45.09375 64.984375 
Q 41.3125 65.921875 37.59375 65.921875 
Q 27.828125 65.921875 22.671875 59.328125 
Q 17.53125 52.734375 16.796875 39.40625 
Q 19.671875 43.65625 24.015625 45.921875 
Q 28.375 48.1875 33.59375 48.1875 
Q 44.578125 48.1875 50.953125 41.515625 
Q 57.328125 34.859375 57.328125 23.390625 
Q 57.328125 12.15625 50.6875 5.359375 
Q 44.046875 -1.421875 33.015625 -1.421875 
Q 20.359375 -1.421875 13.671875 8.265625 
Q 6.984375 17.96875 6.984375 36.375 
Q 6.984375 53.65625 15.1875 63.9375 
Q 23.390625 74.21875 37.203125 74.21875 
Q 40.921875 74.21875 44.703125 73.484375 
Q 48.484375 72.75 52.59375 71.296875 
z
" id="DejaVuSans-54"/>
       </defs>
       <use xlink:href="#DejaVuSans-48"/>
       <use x="63.623047" xlink:href="#DejaVuSans-46"/>
       <use x="95.410156" xlink:href="#DejaVuSans-54"/>
      </g>
     </g>
    </g>
    <g id="ytick_5">
     <g id="line2d_99">
      <path clip-path="url(#pca5456cf9e)" d="M 62.208 63.816238 
L 460.8 63.816238 
" style="fill:none;stroke:#b0b0b0;stroke-linecap:square;stroke-width:0.8;"/>
     </g>
     <g id="line2d_100">
      <g>
       <use style="stroke:#000000;stroke-width:0.8;" x="62.208" xlink:href="#m29df1c88c4" y="63.816238"/>
      </g>
     </g>
     <g id="text_8">
      <!-- 0.8 -->
      <g transform="translate(29.763 69.894988)scale(0.16 -0.16)">
       <defs>
        <path d="M 31.78125 34.625 
Q 24.75 34.625 20.71875 30.859375 
Q 16.703125 27.09375 16.703125 20.515625 
Q 16.703125 13.921875 20.71875 10.15625 
Q 24.75 6.390625 31.78125 6.390625 
Q 38.8125 6.390625 42.859375 10.171875 
Q 46.921875 13.96875 46.921875 20.515625 
Q 46.921875 27.09375 42.890625 30.859375 
Q 38.875 34.625 31.78125 34.625 
z
M 21.921875 38.8125 
Q 15.578125 40.375 12.03125 44.71875 
Q 8.5 49.078125 8.5 55.328125 
Q 8.5 64.0625 14.71875 69.140625 
Q 20.953125 74.21875 31.78125 74.21875 
Q 42.671875 74.21875 48.875 69.140625 
Q 55.078125 64.0625 55.078125 55.328125 
Q 55.078125 49.078125 51.53125 44.71875 
Q 48 40.375 41.703125 38.8125 
Q 48.828125 37.15625 52.796875 32.3125 
Q 56.78125 27.484375 56.78125 20.515625 
Q 56.78125 9.90625 50.3125 4.234375 
Q 43.84375 -1.421875 31.78125 -1.421875 
Q 19.734375 -1.421875 13.25 4.234375 
Q 6.78125 9.90625 6.78125 20.515625 
Q 6.78125 27.484375 10.78125 32.3125 
Q 14.796875 37.15625 21.921875 38.8125 
z
M 18.3125 54.390625 
Q 18.3125 48.734375 21.84375 45.5625 
Q 25.390625 42.390625 31.78125 42.390625 
Q 38.140625 42.390625 41.71875 45.5625 
Q 45.3125 48.734375 45.3125 54.390625 
Q 45.3125 60.0625 41.71875 63.234375 
Q 38.140625 66.40625 31.78125 66.40625 
Q 25.390625 66.40625 21.84375 63.234375 
Q 18.3125 60.0625 18.3125 54.390625 
z
" id="DejaVuSans-56"/>
       </defs>
       <use xlink:href="#DejaVuSans-48"/>
       <use x="63.623047" xlink:href="#DejaVuSans-46"/>
       <use x="95.410156" xlink:href="#DejaVuSans-56"/>
      </g>
     </g>
    </g>
    <g id="ytick_6">
     <g id="line2d_101">
      <path clip-path="url(#pca5456cf9e)" d="M 62.208 6.330297 
L 460.8 6.330297 
" style="fill:none;stroke:#b0b0b0;stroke-linecap:square;stroke-width:0.8;"/>
     </g>
     <g id="line2d_102">
      <g>
       <use style="stroke:#000000;stroke-width:0.8;" x="62.208" xlink:href="#m29df1c88c4" y="6.330297"/>
      </g>
     </g>
     <g id="text_9">
      <!-- 1.0 -->
      <g transform="translate(29.763 12.409047)scale(0.16 -0.16)">
       <use xlink:href="#DejaVuSans-49"/>
       <use x="63.623047" xlink:href="#DejaVuSans-46"/>
       <use x="95.410156" xlink:href="#DejaVuSans-48"/>
      </g>
     </g>
    </g>
    <g id="text_10">
     <!-- proportion of trials -->
     <g transform="translate(21.603625 241.61425)rotate(-90)scale(0.2 -0.2)">
      <defs>
       <path d="M 18.109375 8.203125 
L 18.109375 -20.796875 
L 9.078125 -20.796875 
L 9.078125 54.6875 
L 18.109375 54.6875 
L 18.109375 46.390625 
Q 20.953125 51.265625 25.265625 53.625 
Q 29.59375 56 35.59375 56 
Q 45.5625 56 51.78125 48.09375 
Q 58.015625 40.1875 58.015625 27.296875 
Q 58.015625 14.40625 51.78125 6.484375 
Q 45.5625 -1.421875 35.59375 -1.421875 
Q 29.59375 -1.421875 25.265625 0.953125 
Q 20.953125 3.328125 18.109375 8.203125 
z
M 48.6875 27.296875 
Q 48.6875 37.203125 44.609375 42.84375 
Q 40.53125 48.484375 33.40625 48.484375 
Q 26.265625 48.484375 22.1875 42.84375 
Q 18.109375 37.203125 18.109375 27.296875 
Q 18.109375 17.390625 22.1875 11.75 
Q 26.265625 6.109375 33.40625 6.109375 
Q 40.53125 6.109375 44.609375 11.75 
Q 48.6875 17.390625 48.6875 27.296875 
z
" id="DejaVuSans-112"/>
       <path d="M 41.109375 46.296875 
Q 39.59375 47.171875 37.8125 47.578125 
Q 36.03125 48 33.890625 48 
Q 26.265625 48 22.1875 43.046875 
Q 18.109375 38.09375 18.109375 28.8125 
L 18.109375 0 
L 9.078125 0 
L 9.078125 54.6875 
L 18.109375 54.6875 
L 18.109375 46.1875 
Q 20.953125 51.171875 25.484375 53.578125 
Q 30.03125 56 36.53125 56 
Q 37.453125 56 38.578125 55.875 
Q 39.703125 55.765625 41.0625 55.515625 
z
" id="DejaVuSans-114"/>
       <path d="M 18.3125 70.21875 
L 18.3125 54.6875 
L 36.8125 54.6875 
L 36.8125 47.703125 
L 18.3125 47.703125 
L 18.3125 18.015625 
Q 18.3125 11.328125 20.140625 9.421875 
Q 21.96875 7.515625 27.59375 7.515625 
L 36.8125 7.515625 
L 36.8125 0 
L 27.59375 0 
Q 17.1875 0 13.234375 3.875 
Q 9.28125 7.765625 9.28125 18.015625 
L 9.28125 47.703125 
L 2.6875 47.703125 
L 2.6875 54.6875 
L 9.28125 54.6875 
L 9.28125 70.21875 
z
" id="DejaVuSans-116"/>
       <path d="M 9.421875 54.6875 
L 18.40625 54.6875 
L 18.40625 0 
L 9.421875 0 
z
M 9.421875 75.984375 
L 18.40625 75.984375 
L 18.40625 64.59375 
L 9.421875 64.59375 
z
" id="DejaVuSans-105"/>
       <path d="M 54.890625 33.015625 
L 54.890625 0 
L 45.90625 0 
L 45.90625 32.71875 
Q 45.90625 40.484375 42.875 44.328125 
Q 39.84375 48.1875 33.796875 48.1875 
Q 26.515625 48.1875 22.3125 43.546875 
Q 18.109375 38.921875 18.109375 30.90625 
L 18.109375 0 
L 9.078125 0 
L 9.078125 54.6875 
L 18.109375 54.6875 
L 18.109375 46.1875 
Q 21.34375 51.125 25.703125 53.5625 
Q 30.078125 56 35.796875 56 
Q 45.21875 56 50.046875 50.171875 
Q 54.890625 44.34375 54.890625 33.015625 
z
" id="DejaVuSans-110"/>
      </defs>
      <use xlink:href="#DejaVuSans-112"/>
      <use x="63.476562" xlink:href="#DejaVuSans-114"/>
      <use x="102.339844" xlink:href="#DejaVuSans-111"/>
      <use x="163.521484" xlink:href="#DejaVuSans-112"/>
      <use x="226.998047" xlink:href="#DejaVuSans-111"/>
      <use x="288.179688" xlink:href="#DejaVuSans-114"/>
      <use x="329.292969" xlink:href="#DejaVuSans-116"/>
      <use x="368.501953" xlink:href="#DejaVuSans-105"/>
      <use x="396.285156" xlink:href="#DejaVuSans-111"/>
      <use x="457.466797" xlink:href="#DejaVuSans-110"/>
      <use x="520.845703" xlink:href="#DejaVuSans-32"/>
      <use x="552.632812" xlink:href="#DejaVuSans-111"/>
      <use x="613.814453" xlink:href="#DejaVuSans-102"/>
      <use x="649.019531" xlink:href="#DejaVuSans-32"/>
      <use x="680.806641" xlink:href="#DejaVuSans-116"/>
      <use x="720.015625" xlink:href="#DejaVuSans-114"/>
      <use x="761.128906" xlink:href="#DejaVuSans-105"/>
      <use x="788.912109" xlink:href="#DejaVuSans-97"/>
      <use x="850.191406" xlink:href="#DejaVuSans-108"/>
      <use x="877.974609" xlink:href="#DejaVuSans-115"/>
     </g>
    </g>
   </g>
   <g id="line2d_103">
    <path clip-path="url(#pca5456cf9e)" d="M -1 282.262812 
L 19.328363 282.262812 
L 19.328363 278.430416 
L 19.328363 278.430416 
L 19.328363 274.59802 
L 38.302905 274.59802 
L 38.302905 270.765624 
L 38.302905 270.765624 
L 38.302905 266.933228 
L 38.302905 266.933228 
L 38.302905 263.100832 
L 51.765556 263.100832 
L 51.765556 259.268436 
L 51.765556 259.268436 
L 51.765556 255.43604 
L 51.765556 255.43604 
L 51.765556 251.603644 
L 62.208 251.603644 
L 62.208 247.771248 
L 70.740098 247.771248 
L 70.740098 243.938851 
L 94.645193 243.938851 
L 94.645193 240.106455 
L 99.105421 240.106455 
L 99.105421 236.274059 
L 110.391077 236.274059 
L 110.391077 232.441663 
L 113.619735 232.441663 
L 113.619735 228.609267 
L 129.365618 228.609267 
L 129.365618 224.776871 
L 139.360241 224.776871 
L 139.360241 220.944475 
L 146.056928 220.944475 
L 146.056928 217.112079 
L 146.056928 217.112079 
L 146.056928 213.279683 
L 150.517156 213.279683 
L 150.517156 209.447287 
L 151.914184 209.447287 
L 151.914184 205.614891 
L 157.119208 205.614891 
L 157.119208 201.782495 
L 157.119208 201.782495 
L 157.119208 197.950099 
L 158.334782 197.950099 
L 158.334782 194.117703 
L 158.334782 194.117703 
L 158.334782 190.285307 
L 160.675119 190.285307 
L 160.675119 186.452911 
L 163.979808 186.452911 
L 163.979808 182.620515 
L 166.060016 182.620515 
L 166.060016 178.788119 
L 168.051677 178.788119 
L 168.051677 174.955723 
L 177.707598 174.955723 
L 177.707598 171.123327 
L 177.707598 171.123327 
L 177.707598 167.290931 
L 178.494121 167.290931 
L 178.494121 163.458535 
L 181.514328 163.458535 
L 181.514328 159.626139 
L 183.658076 159.626139 
L 183.658076 155.793743 
L 185.034557 155.793743 
L 185.034557 151.961347 
L 187.026219 151.961347 
L 187.026219 148.12895 
L 188.936565 148.12895 
L 188.936565 144.296554 
L 193.112312 144.296554 
L 193.112312 140.464158 
L 193.112312 140.464158 
L 193.112312 136.631762 
L 197.985761 136.631762 
L 197.985761 132.799366 
L 197.985761 132.799366 
L 197.985761 128.96697 
L 201.45379 128.96697 
L 201.45379 125.134574 
L 206.432072 125.134574 
L 206.432072 121.302178 
L 206.859444 121.302178 
L 206.859444 117.469782 
L 206.859444 117.469782 
L 206.859444 113.637386 
L 222.908222 113.637386 
L 222.908222 109.80499 
L 240.555825 109.80499 
L 240.555825 105.972594 
L 243.173112 105.972594 
L 243.173112 102.140198 
L 258.974906 102.140198 
L 258.974906 98.307802 
L 310.29342 98.307802 
L 310.29342 94.475406 
L 310.29342 94.475406 
L 310.29342 94.475406 
L 460.8 94.475406 
" style="fill:none;stroke:#000000;stroke-linecap:square;stroke-width:1.5;"/>
   </g>
   <g id="line2d_104">
    <path clip-path="url(#pca5456cf9e)" style="fill:none;stroke:#000000;stroke-linecap:square;stroke-width:1.5;"/>
   </g>
   <g id="line2d_105">
    <path clip-path="url(#pca5456cf9e)" d="M 139.360241 293.76 
L 139.360241 289.927604 
L 228.319365 289.927604 
L 228.319365 286.095208 
L 238.869265 286.095208 
L 238.869265 282.262812 
L 245.278853 282.262812 
L 245.278853 278.430416 
L 250.582293 278.430416 
L 250.582293 274.59802 
L 309.398433 274.59802 
L 309.398433 270.765624 
L 323.744405 270.765624 
L 323.744405 266.933228 
L 323.744405 266.933228 
L 323.744405 266.933228 
L 460.8 266.933228 
" style="fill:none;stroke:#00bfbf;stroke-linecap:square;stroke-width:1.5;"/>
   </g>
   <g id="line2d_106">
    <path clip-path="url(#pca5456cf9e)" style="fill:none;stroke:#00bfbf;stroke-linecap:square;stroke-width:1.5;"/>
   </g>
   <g id="line2d_107">
    <path clip-path="url(#pca5456cf9e)" d="M 262.08234 293.76 
L 262.08234 289.927604 
L 277.90286 289.927604 
L 277.90286 286.095208 
L 284.175025 286.095208 
L 284.175025 282.262812 
L 299.476223 282.262812 
L 299.476223 278.430416 
L 326.891322 278.430416 
L 326.891322 274.59802 
L 330.268099 274.59802 
L 330.268099 270.765624 
L 330.268099 270.765624 
L 330.268099 270.765624 
L 460.8 270.765624 
" style="fill:none;stroke:#bf00bf;stroke-linecap:square;stroke-width:1.5;"/>
   </g>
   <g id="line2d_108">
    <path clip-path="url(#pca5456cf9e)" style="fill:none;stroke:#bf00bf;stroke-linecap:square;stroke-width:1.5;"/>
   </g>
   <g id="line2d_109">
    <path clip-path="url(#pca5456cf9e)" d="M 285.856535 293.76 
L 285.856535 289.927604 
L 292.65274 289.927604 
L 292.65274 286.095208 
L 304.27726 286.095208 
L 304.27726 282.262812 
L 318.254386 282.262812 
L 318.254386 278.430416 
L 342.567028 278.430416 
L 342.567028 274.59802 
L 343.950972 274.59802 
L 343.950972 270.765624 
L 343.950972 270.765624 
L 343.950972 270.765624 
L 460.8 270.765624 
" style="fill:none;stroke:#ff0000;stroke-linecap:square;stroke-width:3;"/>
   </g>
   <g id="line2d_110">
    <path clip-path="url(#pca5456cf9e)" style="fill:none;stroke:#ff0000;stroke-linecap:square;stroke-width:3;"/>
   </g>
   <g id="line2d_111">
    <path clip-path="url(#pca5456cf9e)" d="M 460.8 293.76 
L 460.8 3.456 
" style="fill:none;stroke:#000000;stroke-linecap:square;stroke-width:1.5;"/>
   </g>
   <g id="patch_3">
    <path d="M 62.208 293.76 
L 62.208 3.456 
" style="fill:none;stroke:#000000;stroke-linecap:square;stroke-linejoin:miter;stroke-width:0.8;"/>
   </g>
   <g id="patch_4">
    <path d="M 460.8 293.76 
L 460.8 3.456 
" style="fill:none;stroke:#000000;stroke-linecap:square;stroke-linejoin:miter;stroke-width:0.8;"/>
   </g>
   <g id="patch_5">
    <path d="M 62.208 293.76 
L 460.8 293.76 
" style="fill:none;stroke:#000000;stroke-linecap:square;stroke-linejoin:miter;stroke-width:0.8;"/>
   </g>
   <g id="patch_6">
    <path d="M 62.208 3.456 
L 460.8 3.456 
" style="fill:none;stroke:#000000;stroke-linecap:square;stroke-linejoin:miter;stroke-width:0.8;"/>
   </g>
   <g id="text_11">
    <!-- {f20-f24}, 5-D -->
    <g transform="translate(188.654 24.458955)scale(0.2 -0.2)">
     <defs>
      <path d="M 51.125 -9.28125 
L 51.125 -16.3125 
L 48.09375 -16.3125 
Q 35.9375 -16.3125 31.8125 -12.6875 
Q 27.6875 -9.078125 27.6875 1.703125 
L 27.6875 13.375 
Q 27.6875 20.75 25.046875 23.578125 
Q 22.40625 26.421875 15.484375 26.421875 
L 12.5 26.421875 
L 12.5 33.40625 
L 15.484375 33.40625 
Q 22.46875 33.40625 25.078125 36.203125 
Q 27.6875 39.015625 27.6875 46.296875 
L 27.6875 58.015625 
Q 27.6875 68.796875 31.8125 72.390625 
Q 35.9375 75.984375 48.09375 75.984375 
L 51.125 75.984375 
L 51.125 69 
L 47.796875 69 
Q 40.921875 69 38.8125 66.84375 
Q 36.71875 64.703125 36.71875 57.8125 
L 36.71875 45.703125 
Q 36.71875 38.03125 34.5 34.5625 
Q 32.28125 31.109375 26.90625 29.890625 
Q 32.328125 28.5625 34.515625 25.09375 
Q 36.71875 21.625 36.71875 14.015625 
L 36.71875 1.90625 
Q 36.71875 -4.984375 38.8125 -7.125 
Q 40.921875 -9.28125 47.796875 -9.28125 
z
" id="DejaVuSans-123"/>
      <path d="M 4.890625 31.390625 
L 31.203125 31.390625 
L 31.203125 23.390625 
L 4.890625 23.390625 
z
" id="DejaVuSans-45"/>
      <path d="M 12.5 -9.28125 
L 15.921875 -9.28125 
Q 22.75 -9.28125 24.828125 -7.171875 
Q 26.90625 -5.078125 26.90625 1.90625 
L 26.90625 14.015625 
Q 26.90625 21.625 29.09375 25.09375 
Q 31.296875 28.5625 36.71875 29.890625 
Q 31.296875 31.109375 29.09375 34.5625 
Q 26.90625 38.03125 26.90625 45.703125 
L 26.90625 57.8125 
Q 26.90625 64.75 24.828125 66.875 
Q 22.75 69 15.921875 69 
L 12.5 69 
L 12.5 75.984375 
L 15.578125 75.984375 
Q 27.734375 75.984375 31.8125 72.390625 
Q 35.890625 68.796875 35.890625 58.015625 
L 35.890625 46.296875 
Q 35.890625 39.015625 38.515625 36.203125 
Q 41.15625 33.40625 48.09375 33.40625 
L 51.125 33.40625 
L 51.125 26.421875 
L 48.09375 26.421875 
Q 41.15625 26.421875 38.515625 23.578125 
Q 35.890625 20.75 35.890625 13.375 
L 35.890625 1.703125 
Q 35.890625 -9.078125 31.8125 -12.6875 
Q 27.734375 -16.3125 15.578125 -16.3125 
L 12.5 -16.3125 
z
" id="DejaVuSans-125"/>
      <path d="M 11.71875 12.40625 
L 22.015625 12.40625 
L 22.015625 4 
L 14.015625 -11.625 
L 7.71875 -11.625 
L 11.71875 4 
z
" id="DejaVuSans-44"/>
      <path d="M 10.796875 72.90625 
L 49.515625 72.90625 
L 49.515625 64.59375 
L 19.828125 64.59375 
L 19.828125 46.734375 
Q 21.96875 47.46875 24.109375 47.828125 
Q 26.265625 48.1875 28.421875 48.1875 
Q 40.625 48.1875 47.75 41.5 
Q 54.890625 34.8125 54.890625 23.390625 
Q 54.890625 11.625 47.5625 5.09375 
Q 40.234375 -1.421875 26.90625 -1.421875 
Q 22.3125 -1.421875 17.546875 -0.640625 
Q 12.796875 0.140625 7.71875 1.703125 
L 7.71875 11.625 
Q 12.109375 9.234375 16.796875 8.0625 
Q 21.484375 6.890625 26.703125 6.890625 
Q 35.15625 6.890625 40.078125 11.328125 
Q 45.015625 15.765625 45.015625 23.390625 
Q 45.015625 31 40.078125 35.4375 
Q 35.15625 39.890625 26.703125 39.890625 
Q 22.75 39.890625 18.8125 39.015625 
Q 14.890625 38.140625 10.796875 36.28125 
z
" id="DejaVuSans-53"/>
     </defs>
     <use xlink:href="#DejaVuSans-123"/>
     <use x="63.623047" xlink:href="#DejaVuSans-102"/>
     <use x="98.828125" xlink:href="#DejaVuSans-50"/>
     <use x="162.451172" xlink:href="#DejaVuSans-48"/>
     <use x="226.074219" xlink:href="#DejaVuSans-45"/>
     <use x="262.158203" xlink:href="#DejaVuSans-102"/>
     <use x="297.363281" xlink:href="#DejaVuSans-50"/>
     <use x="360.986328" xlink:href="#DejaVuSans-52"/>
     <use x="424.609375" xlink:href="#DejaVuSans-125"/>
     <use x="488.232422" xlink:href="#DejaVuSans-44"/>
     <use x="520.019531" xlink:href="#DejaVuSans-32"/>
     <use x="551.806641" xlink:href="#DejaVuSans-53"/>
     <use x="615.429688" xlink:href="#DejaVuSans-45"/>
     <use x="651.513672" xlink:href="#DejaVuSans-68"/>
    </g>
   </g>
   <g id="text_12">
    <!-- absolute targets -->
    <g transform="translate(62.208 607.633236)scale(0.14 -0.14)">
     <defs>
      <path d="M 48.6875 27.296875 
Q 48.6875 37.203125 44.609375 42.84375 
Q 40.53125 48.484375 33.40625 48.484375 
Q 26.265625 48.484375 22.1875 42.84375 
Q 18.109375 37.203125 18.109375 27.296875 
Q 18.109375 17.390625 22.1875 11.75 
Q 26.265625 6.109375 33.40625 6.109375 
Q 40.53125 6.109375 44.609375 11.75 
Q 48.6875 17.390625 48.6875 27.296875 
z
M 18.109375 46.390625 
Q 20.953125 51.265625 25.265625 53.625 
Q 29.59375 56 35.59375 56 
Q 45.5625 56 51.78125 48.09375 
Q 58.015625 40.1875 58.015625 27.296875 
Q 58.015625 14.40625 51.78125 6.484375 
Q 45.5625 -1.421875 35.59375 -1.421875 
Q 29.59375 -1.421875 25.265625 0.953125 
Q 20.953125 3.328125 18.109375 8.203125 
L 18.109375 0 
L 9.078125 0 
L 9.078125 75.984375 
L 18.109375 75.984375 
z
" id="DejaVuSans-98"/>
      <path d="M 8.5 21.578125 
L 8.5 54.6875 
L 17.484375 54.6875 
L 17.484375 21.921875 
Q 17.484375 14.15625 20.5 10.265625 
Q 23.53125 6.390625 29.59375 6.390625 
Q 36.859375 6.390625 41.078125 11.03125 
Q 45.3125 15.671875 45.3125 23.6875 
L 45.3125 54.6875 
L 54.296875 54.6875 
L 54.296875 0 
L 45.3125 0 
L 45.3125 8.40625 
Q 42.046875 3.421875 37.71875 1 
Q 33.40625 -1.421875 27.6875 -1.421875 
Q 18.265625 -1.421875 13.375 4.4375 
Q 8.5 10.296875 8.5 21.578125 
z
M 31.109375 56 
z
" id="DejaVuSans-117"/>
      <path d="M 56.203125 29.59375 
L 56.203125 25.203125 
L 14.890625 25.203125 
Q 15.484375 15.921875 20.484375 11.0625 
Q 25.484375 6.203125 34.421875 6.203125 
Q 39.59375 6.203125 44.453125 7.46875 
Q 49.3125 8.734375 54.109375 11.28125 
L 54.109375 2.78125 
Q 49.265625 0.734375 44.1875 -0.34375 
Q 39.109375 -1.421875 33.890625 -1.421875 
Q 20.796875 -1.421875 13.15625 6.1875 
Q 5.515625 13.8125 5.515625 26.8125 
Q 5.515625 40.234375 12.765625 48.109375 
Q 20.015625 56 32.328125 56 
Q 43.359375 56 49.78125 48.890625 
Q 56.203125 41.796875 56.203125 29.59375 
z
M 47.21875 32.234375 
Q 47.125 39.59375 43.09375 43.984375 
Q 39.0625 48.390625 32.421875 48.390625 
Q 24.90625 48.390625 20.390625 44.140625 
Q 15.875 39.890625 15.1875 32.171875 
z
" id="DejaVuSans-101"/>
     </defs>
     <use xlink:href="#DejaVuSans-97"/>
     <use x="61.279297" xlink:href="#DejaVuSans-98"/>
     <use x="124.755859" xlink:href="#DejaVuSans-115"/>
     <use x="176.855469" xlink:href="#DejaVuSans-111"/>
     <use x="238.037109" xlink:href="#DejaVuSans-108"/>
     <use x="265.820312" xlink:href="#DejaVuSans-117"/>
     <use x="329.199219" xlink:href="#DejaVuSans-116"/>
     <use x="368.408203" xlink:href="#DejaVuSans-101"/>
     <use x="429.931641" xlink:href="#DejaVuSans-32"/>
     <use x="461.71875" xlink:href="#DejaVuSans-116"/>
     <use x="500.927734" xlink:href="#DejaVuSans-97"/>
     <use x="562.207031" xlink:href="#DejaVuSans-114"/>
     <use x="601.570312" xlink:href="#DejaVuSans-103"/>
     <use x="665.046875" xlink:href="#DejaVuSans-101"/>
     <use x="726.570312" xlink:href="#DejaVuSans-116"/>
     <use x="765.779297" xlink:href="#DejaVuSans-115"/>
    </g>
   </g>
   <g id="text_13">
    <!-- v2.4 -->
    <g style="fill:#808080;" transform="translate(250.593063 288.777272)scale(0.1 -0.1)">
     <use xlink:href="#DejaVuSans-118"/>
     <use x="59.179688" xlink:href="#DejaVuSans-50"/>
     <use x="122.802734" xlink:href="#DejaVuSans-46"/>
     <use x="154.589844" xlink:href="#DejaVuSans-52"/>
    </g>
   </g>
   <g id="legend_1">
    <g id="patch_7">
     <path d="M 317.578125 136.881 
L 446.8 136.881 
Q 450.8 136.881 450.8 132.881 
L 450.8 17.456 
Q 450.8 13.456 446.8 13.456 
L 317.578125 13.456 
Q 313.578125 13.456 313.578125 17.456 
L 313.578125 132.881 
Q 313.578125 136.881 317.578125 136.881 
z
" style="fill:#ffffff;opacity:0.2;stroke:#cccccc;stroke-linejoin:miter;"/>
    </g>
    <g id="line2d_112">
     <path d="M 321.578125 29.652875 
L 361.578125 29.652875 
" style="fill:none;stroke:#000000;stroke-linecap:square;stroke-width:1.5;"/>
    </g>
    <g id="line2d_113"/>
    <g id="text_14">
     <!-- 1: 5/5 -->
     <g transform="translate(377.578125 36.652875)scale(0.2 -0.2)">
      <defs>
       <path d="M 11.71875 12.40625 
L 22.015625 12.40625 
L 22.015625 0 
L 11.71875 0 
z
M 11.71875 51.703125 
L 22.015625 51.703125 
L 22.015625 39.3125 
L 11.71875 39.3125 
z
" id="DejaVuSans-58"/>
      </defs>
      <use xlink:href="#DejaVuSans-49"/>
      <use x="63.623047" xlink:href="#DejaVuSans-58"/>
      <use x="97.314453" xlink:href="#DejaVuSans-32"/>
      <use x="129.101562" xlink:href="#DejaVuSans-53"/>
      <use x="192.724609" xlink:href="#DejaVuSans-47"/>
      <use x="226.416016" xlink:href="#DejaVuSans-53"/>
     </g>
    </g>
    <g id="line2d_114">
     <path d="M 321.578125 59.009125 
L 361.578125 59.009125 
" style="fill:none;stroke:#00bfbf;stroke-linecap:square;stroke-width:1.5;"/>
    </g>
    <g id="line2d_115"/>
    <g id="text_15">
     <!-- -1: 3/5 -->
     <g transform="translate(377.578125 66.009125)scale(0.2 -0.2)">
      <defs>
       <path d="M 40.578125 39.3125 
Q 47.65625 37.796875 51.625 33 
Q 55.609375 28.21875 55.609375 21.1875 
Q 55.609375 10.40625 48.1875 4.484375 
Q 40.765625 -1.421875 27.09375 -1.421875 
Q 22.515625 -1.421875 17.65625 -0.515625 
Q 12.796875 0.390625 7.625 2.203125 
L 7.625 11.71875 
Q 11.71875 9.328125 16.59375 8.109375 
Q 21.484375 6.890625 26.8125 6.890625 
Q 36.078125 6.890625 40.9375 10.546875 
Q 45.796875 14.203125 45.796875 21.1875 
Q 45.796875 27.640625 41.28125 31.265625 
Q 36.765625 34.90625 28.71875 34.90625 
L 20.21875 34.90625 
L 20.21875 43.015625 
L 29.109375 43.015625 
Q 36.375 43.015625 40.234375 45.921875 
Q 44.09375 48.828125 44.09375 54.296875 
Q 44.09375 59.90625 40.109375 62.90625 
Q 36.140625 65.921875 28.71875 65.921875 
Q 24.65625 65.921875 20.015625 65.03125 
Q 15.375 64.15625 9.8125 62.3125 
L 9.8125 71.09375 
Q 15.4375 72.65625 20.34375 73.4375 
Q 25.25 74.21875 29.59375 74.21875 
Q 40.828125 74.21875 47.359375 69.109375 
Q 53.90625 64.015625 53.90625 55.328125 
Q 53.90625 49.265625 50.4375 45.09375 
Q 46.96875 40.921875 40.578125 39.3125 
z
" id="DejaVuSans-51"/>
      </defs>
      <use xlink:href="#DejaVuSans-45"/>
      <use x="36.083984" xlink:href="#DejaVuSans-49"/>
      <use x="99.707031" xlink:href="#DejaVuSans-58"/>
      <use x="133.398438" xlink:href="#DejaVuSans-32"/>
      <use x="165.185547" xlink:href="#DejaVuSans-51"/>
      <use x="228.808594" xlink:href="#DejaVuSans-47"/>
      <use x="262.5" xlink:href="#DejaVuSans-53"/>
     </g>
    </g>
    <g id="line2d_116">
     <path d="M 321.578125 88.365375 
L 361.578125 88.365375 
" style="fill:none;stroke:#bf00bf;stroke-linecap:square;stroke-width:1.5;"/>
    </g>
    <g id="line2d_117"/>
    <g id="text_16">
     <!-- -4: 2/5 -->
     <g transform="translate(377.578125 95.365375)scale(0.2 -0.2)">
      <use xlink:href="#DejaVuSans-45"/>
      <use x="36.083984" xlink:href="#DejaVuSans-52"/>
      <use x="99.707031" xlink:href="#DejaVuSans-58"/>
      <use x="133.398438" xlink:href="#DejaVuSans-32"/>
      <use x="165.185547" xlink:href="#DejaVuSans-50"/>
      <use x="228.808594" xlink:href="#DejaVuSans-47"/>
      <use x="262.5" xlink:href="#DejaVuSans-53"/>
     </g>
    </g>
    <g id="line2d_118">
     <path d="M 321.578125 117.721625 
L 361.578125 117.721625 
" style="fill:none;stroke:#ff0000;stroke-linecap:square;stroke-width:3;"/>
    </g>
    <g id="line2d_119"/>
    <g id="text_17">
     <!-- -8: 2/5 -->
     <g transform="translate(377.578125 124.721625)scale(0.2 -0.2)">
      <use xlink:href="#DejaVuSans-45"/>
      <use x="36.083984" xlink:href="#DejaVuSans-56"/>
      <use x="99.707031" xlink:href="#DejaVuSans-58"/>
      <use x="133.398438" xlink:href="#DejaVuSans-32"/>
      <use x="165.185547" xlink:href="#DejaVuSans-50"/>
      <use x="228.808594" xlink:href="#DejaVuSans-47"/>
      <use x="262.5" xlink:href="#DejaVuSans-53"/>
     </g>
    </g>
   </g>
  </g>
 </g>
 <defs>
  <clipPath id="pca5456cf9e">
   <rect height="290.304" width="398.592" x="62.208" y="3.456"/>
  </clipPath>
 </defs>
</svg>
