<?xml version="1.0" encoding="utf-8" standalone="no"?>
<!DOCTYPE svg PUBLIC "-//W3C//DTD SVG 1.1//EN"
  "http://www.w3.org/Graphics/SVG/1.1/DTD/svg11.dtd">
<!-- Created with matplotlib (https://matplotlib.org/) -->
<svg height="345.6pt" version="1.1" viewBox="0 0 460.8 345.6" width="460.8pt" xmlns="http://www.w3.org/2000/svg" xmlns:xlink="http://www.w3.org/1999/xlink">
 <metadata>
  <rdf:RDF xmlns:cc="http://creativecommons.org/ns#" xmlns:dc="http://purl.org/dc/elements/1.1/" xmlns:rdf="http://www.w3.org/1999/02/22-rdf-syntax-ns#">
   <cc:Work>
    <dc:type rdf:resource="http://purl.org/dc/dcmitype/StillImage"/>
    <dc:date>2021-06-17T01:38:43.056186</dc:date>
    <dc:format>image/svg+xml</dc:format>
    <dc:creator>
     <cc:Agent>
      <dc:title>Matplotlib v3.3.4, https://matplotlib.org/</dc:title>
     </cc:Agent>
    </dc:creator>
   </cc:Work>
  </rdf:RDF>
 </metadata>
 <defs>
  <style type="text/css">*{stroke-linecap:butt;stroke-linejoin:round;}</style>
 </defs>
 <g id="figure_1">
  <g id="patch_1">
   <path d="M 0 345.6 
L 460.8 345.6 
L 460.8 0 
L 0 0 
z
" style="fill:#ffffff;"/>
  </g>
  <g id="axes_1">
   <g id="patch_2">
    <path d="M 62.208 293.76 
L 460.8 293.76 
L 460.8 3.456 
L 62.208 3.456 
z
" style="fill:#ffffff;"/>
   </g>
   <g id="line2d_1">
    <path clip-path="url(#p4bca857bd4)" d="M 300.522659 293.76 
L 300.522659 289.927604 
L 304.064546 289.927604 
L 304.064546 286.095208 
L 305.326563 286.095208 
L 305.326563 282.262812 
L 305.791181 282.262812 
L 305.791181 278.430416 
L 306.200338 278.430416 
L 306.200338 274.59802 
L 307.008073 274.59802 
L 307.008073 270.765624 
L 307.058096 270.765624 
L 307.058096 266.933228 
L 307.357119 266.933228 
L 307.357119 263.100832 
L 309.350851 263.100832 
L 309.350851 259.268436 
L 310.572528 259.268436 
L 310.572528 255.43604 
L 311.079942 255.43604 
L 311.079942 251.603644 
L 311.400001 251.603644 
L 311.400001 247.771248 
L 327.119839 247.771248 
L 327.119839 243.938851 
L 333.389054 243.938851 
L 333.389054 240.106455 
L 333.729603 240.106455 
L 333.729603 236.274059 
L 338.840775 236.274059 
L 338.840775 232.441663 
L 339.219496 232.441663 
L 339.219496 228.609267 
L 345.537462 228.609267 
L 345.537462 224.776871 
L 357.014183 224.776871 
L 357.014183 220.944475 
L 357.561123 220.944475 
L 357.561123 217.112079 
L 361.236243 217.112079 
L 361.236243 213.279683 
L 372.639567 213.279683 
L 372.639567 209.447287 
L 382.043778 209.447287 
L 382.043778 205.614891 
L 405.724776 205.614891 
L 405.724776 201.782495 
L 409.614153 201.782495 
L 409.614153 197.950099 
L 415.536437 197.950099 
L 415.536437 194.117703 
L 439.508436 194.117703 
L 439.508436 190.285307 
L 450.821682 190.285307 
L 450.821682 186.452911 
L 456.57255 186.452911 
L 456.57255 182.620515 
L 456.57255 182.620515 
L 456.57255 182.620515 
L 460.8 182.620515 
" style="fill:none;stroke:#f5deb3;stroke-linecap:square;stroke-width:1.5;"/>
   </g>
   <g id="line2d_2"/>
   <g id="line2d_3">
    <path clip-path="url(#p4bca857bd4)" d="M 185.707907 293.76 
L 185.707907 289.927604 
L 187.026219 289.927604 
L 187.026219 286.095208 
L 199.003127 286.095208 
L 199.003127 282.262812 
L 276.579221 282.262812 
L 276.579221 278.430416 
L 296.188738 278.430416 
L 296.188738 274.59802 
L 338.330999 274.59802 
L 338.330999 270.765624 
L 349.797532 270.765624 
L 349.797532 266.933228 
L 355.618197 266.933228 
L 355.618197 263.100832 
L 367.928741 263.100832 
L 367.928741 259.268436 
L 370.097071 259.268436 
L 370.097071 255.43604 
L 375.988725 255.43604 
L 375.988725 251.603644 
L 383.207423 251.603644 
L 383.207423 247.771248 
L 388.915362 247.771248 
L 388.915362 243.938851 
L 391.519623 243.938851 
L 391.519623 240.106455 
L 396.743689 240.106455 
L 396.743689 236.274059 
L 420.651727 236.274059 
L 420.651727 232.441663 
L 423.260815 232.441663 
L 423.260815 228.609267 
L 424.788277 228.609267 
L 424.788277 224.776871 
L 425.202537 224.776871 
L 425.202537 220.944475 
L 425.949334 220.944475 
L 425.949334 217.112079 
L 426.232215 217.112079 
L 426.232215 213.279683 
L 427.905844 213.279683 
L 427.905844 209.447287 
L 428.030399 209.447287 
L 428.030399 205.614891 
L 429.83463 205.614891 
L 429.83463 201.782495 
L 430.001167 201.782495 
L 430.001167 197.950099 
L 432.871155 197.950099 
L 432.871155 194.117703 
L 433.462226 194.117703 
L 433.462226 190.285307 
L 433.992859 190.285307 
L 433.992859 186.452911 
L 434.039294 186.452911 
L 434.039294 182.620515 
L 435.159567 182.620515 
L 435.159567 178.788119 
L 435.417793 178.788119 
L 435.417793 174.955723 
L 436.931694 174.955723 
L 436.931694 171.123327 
L 445.83319 171.123327 
L 445.83319 167.290931 
L 447.791128 167.290931 
L 447.791128 163.458535 
L 452.93199 163.458535 
L 452.93199 159.626139 
L 457.457184 159.626139 
L 457.457184 155.793743 
L 461.8 155.793743 
" style="fill:none;stroke:#f5deb3;stroke-linecap:square;stroke-width:1.5;"/>
   </g>
   <g id="line2d_4">
    <path clip-path="url(#p4bca857bd4)" d="M 313.841364 293.76 
L 313.841364 289.927604 
L 320.408119 289.927604 
L 320.408119 286.095208 
L 321.66897 286.095208 
L 321.778608 278.430416 
L 321.924393 278.430416 
L 321.924393 274.59802 
L 323.814356 274.59802 
L 323.814356 270.765624 
L 324.611362 270.765624 
L 324.611362 266.933228 
L 326.265376 266.933228 
L 326.265376 263.100832 
L 326.529953 263.100832 
L 326.529953 259.268436 
L 328.214179 259.268436 
L 328.214179 255.43604 
L 329.345658 255.43604 
L 329.345658 251.603644 
L 330.023887 251.603644 
L 330.023887 247.771248 
L 330.752732 247.771248 
L 330.752732 243.938851 
L 330.963191 243.938851 
L 330.963191 240.106455 
L 331.381291 240.106455 
L 331.381291 236.274059 
L 331.677663 236.274059 
L 331.76621 228.609267 
L 331.795688 228.609267 
L 331.795688 224.776871 
L 332.118731 224.776871 
L 332.118731 220.944475 
L 332.23565 220.944475 
L 332.23565 217.112079 
L 332.468617 217.112079 
L 332.468617 213.279683 
L 333.588009 213.279683 
L 333.588009 209.447287 
L 334.486898 209.447287 
L 334.486898 205.614891 
L 334.847196 205.614891 
L 334.847196 201.782495 
L 335.012557 201.782495 
L 335.012557 197.950099 
L 335.776606 197.950099 
L 335.884745 190.285307 
L 337.711846 190.285307 
L 337.711846 186.452911 
L 338.176977 186.452911 
L 338.176977 182.620515 
L 338.535577 182.620515 
L 338.535577 178.788119 
L 338.992631 178.788119 
L 338.992631 174.955723 
L 339.69485 174.955723 
L 339.794312 167.290931 
L 340.066749 167.290931 
L 340.066749 163.458535 
L 340.898934 163.458535 
L 340.898934 159.626139 
L 341.621124 159.626139 
L 341.621124 155.793743 
L 342.001783 155.793743 
L 342.001783 151.961347 
L 342.120107 151.961347 
L 342.167352 144.296554 
L 342.543612 144.296554 
L 342.567028 136.631762 
L 343.241046 136.631762 
L 343.310221 128.96697 
L 343.700294 128.96697 
L 343.745972 121.302178 
L 344.403339 121.302178 
L 344.425843 113.637386 
L 344.69505 113.637386 
L 344.739767 105.972594 
L 345.515487 105.972594 
L 345.515487 102.140198 
L 345.82221 102.140198 
L 345.82221 98.307802 
L 348.289137 98.307802 
L 348.289137 94.475406 
L 351.180989 94.475406 
L 351.180989 90.64301 
L 352.845312 90.64301 
L 352.845312 86.810614 
L 354.416138 86.810614 
L 354.416138 82.978218 
L 358.967147 82.978218 
L 358.967147 79.145822 
L 368.200264 79.145822 
L 368.200264 75.313426 
L 368.591196 75.313426 
L 368.591196 71.48103 
L 370.08407 71.48103 
L 370.08407 67.648634 
L 370.61417 67.648634 
L 370.61417 63.816238 
L 370.908935 63.816238 
L 370.908935 59.983842 
L 374.415275 59.983842 
L 374.415275 56.151446 
L 378.204778 56.151446 
L 378.204778 52.31905 
L 387.681937 52.31905 
L 387.681937 48.486653 
L 392.849357 48.486653 
L 392.849357 44.654257 
L 399.31257 44.654257 
L 399.31257 40.821861 
L 399.52792 40.821861 
L 399.52792 36.989465 
L 404.419645 36.989465 
L 404.419645 33.157069 
L 411.314852 33.157069 
L 411.314852 29.324673 
L 414.807119 29.324673 
L 414.807119 25.492277 
L 429.703881 25.492277 
L 429.703881 21.659881 
L 436.537361 21.659881 
L 436.537361 17.827485 
L 440.208113 17.827485 
L 440.208113 13.995089 
L 442.374277 13.995089 
L 442.374277 10.162693 
L 452.089785 10.162693 
L 452.089785 6.330297 
L 452.089785 6.330297 
L 460.8 6.330297 
L 460.8 6.330297 
" style="fill:none;stroke:#f5deb3;stroke-linecap:square;stroke-width:1.5;"/>
   </g>
   <g id="line2d_5"/>
   <g id="line2d_6"/>
   <g id="line2d_7">
    <path clip-path="url(#p4bca857bd4)" d="M 346.083524 293.76 
L 346.083524 289.927604 
L 346.837462 289.927604 
L 346.837462 286.095208 
L 347.49524 286.095208 
L 347.49524 282.262812 
L 348.185443 282.262812 
L 348.185443 278.430416 
L 348.33055 278.430416 
L 348.33055 274.59802 
L 350.573355 274.59802 
L 350.573355 270.765624 
L 350.750579 270.765624 
L 350.750579 266.933228 
L 351.45284 266.933228 
L 351.45284 263.100832 
L 351.876868 263.100832 
L 351.915226 255.43604 
L 352.163791 255.43604 
L 352.240008 243.938851 
L 352.335104 243.938851 
L 352.335104 240.106455 
L 352.448965 240.106455 
L 352.448965 236.274059 
L 352.845312 236.274059 
L 352.920428 228.609267 
L 352.995423 228.609267 
L 353.051591 220.944475 
L 353.238331 220.944475 
L 353.294208 205.614891 
L 353.904491 205.614891 
L 353.904491 201.782495 
L 354.087865 201.782495 
L 354.087865 197.950099 
L 354.434308 197.950099 
L 354.434308 194.117703 
L 355.244744 194.117703 
L 355.244744 190.285307 
L 355.52955 190.285307 
L 355.52955 186.452911 
L 355.830268 186.452911 
L 355.86552 178.788119 
L 356.006263 178.788119 
L 356.006263 174.955723 
L 356.164095 174.955723 
L 356.164095 171.123327 
L 356.56504 171.123327 
L 356.651749 163.458535 
L 357.237149 163.458535 
L 357.254256 155.793743 
L 357.527126 155.793743 
L 357.527126 151.961347 
L 358.586345 151.961347 
L 358.586345 148.12895 
L 359.295778 148.12895 
L 359.295778 144.296554 
L 359.865389 144.296554 
L 359.865389 140.464158 
L 359.978483 140.464158 
L 360.010746 132.799366 
L 360.235964 132.799366 
L 360.235964 128.96697 
L 360.460103 128.96697 
L 360.460103 125.134574 
L 361.564974 125.134574 
L 361.642904 117.469782 
L 362.629113 117.469782 
L 362.629113 113.637386 
L 366.251548 113.637386 
L 366.251548 109.80499 
L 366.560997 109.80499 
L 366.560997 105.972594 
L 371.214549 105.972594 
L 371.214549 102.140198 
L 371.391907 102.140198 
L 371.391907 98.307802 
L 373.457269 98.307802 
L 373.457269 94.475406 
L 374.828314 94.475406 
L 374.828314 90.64301 
L 375.004221 90.64301 
L 375.004221 86.810614 
L 376.3768 86.810614 
L 376.467646 79.145822 
L 377.221635 79.145822 
L 377.221635 75.313426 
L 377.411029 75.313426 
L 377.455481 67.648634 
L 378.34667 67.648634 
L 378.34667 63.816238 
L 379.731837 63.816238 
L 379.731837 59.983842 
L 380.174116 59.983842 
L 380.174116 56.151446 
L 381.730551 56.151446 
L 381.730551 52.31905 
L 384.515092 52.31905 
L 384.515092 48.486653 
L 385.188441 48.486653 
L 385.188441 44.654257 
L 387.699788 44.654257 
L 387.699788 40.821861 
L 390.345369 40.821861 
L 390.345369 36.989465 
L 397.379299 36.989465 
L 397.379299 33.157069 
L 406.238005 33.157069 
L 406.238005 29.324673 
L 417.247475 29.324673 
L 417.247475 25.492277 
L 420.061066 25.492277 
L 420.061066 21.659881 
L 423.944478 21.659881 
L 423.944478 17.827485 
L 424.699317 17.827485 
L 424.699317 13.995089 
L 435.350147 13.995089 
L 435.350147 10.162693 
L 461.8 10.162693 
L 461.8 10.162693 
" style="fill:none;stroke:#f5deb3;stroke-linecap:square;stroke-width:1.5;"/>
   </g>
   <g id="line2d_8">
    <path clip-path="url(#p4bca857bd4)" style="fill:none;stroke:#f5deb3;stroke-linecap:square;stroke-width:1.5;"/>
   </g>
   <g id="line2d_9">
    <path clip-path="url(#p4bca857bd4)" d="M 340.066749 293.76 
L 340.066749 289.927604 
L 341.237344 289.927604 
L 341.237344 286.095208 
L 342.143736 286.095208 
L 342.143736 282.262812 
L 343.631693 282.262812 
L 343.631693 278.430416 
L 344.019107 278.430416 
L 344.019107 274.59802 
L 344.155078 274.59802 
L 344.155078 270.765624 
L 344.895943 270.765624 
L 344.895943 266.933228 
L 345.691003 266.933228 
L 345.691003 263.100832 
L 346.213636 263.100832 
L 346.213636 259.268436 
L 346.47278 259.268436 
L 346.558844 251.603644 
L 346.601816 251.603644 
L 346.623288 243.938851 
L 347.305223 243.938851 
L 347.305223 240.106455 
L 347.579445 240.106455 
L 347.579445 236.274059 
L 347.789298 236.274059 
L 347.810231 228.609267 
L 347.977363 228.609267 
L 347.977363 224.776871 
L 348.123116 224.776871 
L 348.123116 220.944475 
L 348.413267 220.944475 
L 348.516457 213.279683 
L 349.130868 213.279683 
L 349.130868 209.447287 
L 349.636787 209.447287 
L 349.636787 205.614891 
L 349.877698 205.614891 
L 349.877698 201.782495 
L 350.077515 201.782495 
L 350.077515 197.950099 
L 350.395457 197.950099 
L 350.494373 186.452911 
L 350.77023 186.452911 
L 350.868357 167.290931 
L 350.927135 167.290931 
L 350.927135 163.458535 
L 351.239376 163.458535 
L 351.239376 159.626139 
L 351.530222 159.626139 
L 351.549548 151.961347 
L 352.259042 151.961347 
L 352.3161 144.296554 
L 352.864103 144.296554 
L 352.864103 140.464158 
L 353.27559 140.464158 
L 353.368607 132.799366 
L 353.886114 132.799366 
L 353.996268 125.134574 
L 354.30697 125.134574 
L 354.30697 121.302178 
L 355.47628 121.302178 
L 355.582758 109.80499 
L 356.755588 109.80499 
L 356.755588 105.972594 
L 357.561123 105.972594 
L 357.561123 102.140198 
L 363.639756 102.140198 
L 363.639756 98.307802 
L 364.409363 98.307802 
L 364.409363 94.475406 
L 365.253099 94.475406 
L 365.253099 90.64301 
L 366.659031 90.64301 
L 366.659031 86.810614 
L 366.938 86.810614 
L 366.938 82.978218 
L 368.591196 82.978218 
L 368.591196 79.145822 
L 370.356335 79.145822 
L 370.356335 75.313426 
L 370.601312 75.313426 
L 370.601312 71.48103 
L 371.023774 71.48103 
L 371.023774 67.648634 
L 373.214671 67.648634 
L 373.214671 63.816238 
L 374.367838 63.816238 
L 374.367838 59.983842 
L 375.1328 59.983842 
L 375.1328 56.151446 
L 377.897696 56.151446 
L 377.897696 52.31905 
L 386.707716 52.31905 
L 386.707716 48.486653 
L 386.90782 48.486653 
L 386.90782 44.654257 
L 388.037674 44.654257 
L 388.037674 40.821861 
L 394.212281 40.821861 
L 394.212281 36.989465 
L 400.698334 36.989465 
L 400.698334 33.157069 
L 402.227783 33.157069 
L 402.227783 29.324673 
L 403.250213 29.324673 
L 403.250213 25.492277 
L 403.664433 25.492277 
L 403.664433 21.659881 
L 405.254941 21.659881 
L 405.254941 17.827485 
L 407.283128 17.827485 
L 407.283128 13.995089 
L 411.331012 13.995089 
L 411.331012 10.162693 
L 414.375113 10.162693 
L 414.375113 6.330297 
L 414.375113 6.330297 
L 460.8 6.330297 
L 460.8 6.330297 
" style="fill:none;stroke:#f5deb3;stroke-linecap:square;stroke-width:1.5;"/>
   </g>
   <g id="line2d_10">
    <path clip-path="url(#p4bca857bd4)" style="fill:none;stroke:#f5deb3;stroke-linecap:square;stroke-width:1.5;"/>
   </g>
   <g id="line2d_11">
    <path clip-path="url(#p4bca857bd4)" style="fill:none;stroke:#f5deb3;stroke-linecap:square;stroke-width:1.5;"/>
   </g>
   <g id="line2d_12">
    <path clip-path="url(#p4bca857bd4)" d="M 301.714642 293.76 
L 301.714642 289.927604 
L 357.984016 289.927604 
L 357.984016 286.095208 
L 360.826017 286.095208 
L 360.826017 282.262812 
L 426.908866 282.262812 
L 426.908866 278.430416 
L 437.053079 278.430416 
L 437.053079 274.59802 
L 461.8 274.59802 
" style="fill:none;stroke:#f5deb3;stroke-linecap:square;stroke-width:1.5;"/>
   </g>
   <g id="line2d_13"/>
   <g id="line2d_14">
    <path clip-path="url(#p4bca857bd4)" d="M 332.959852 293.76 
L 332.959852 289.927604 
L 339.269761 289.927604 
L 339.269761 286.095208 
L 352.411042 286.095208 
L 352.411042 282.262812 
L 353.996268 282.262812 
L 353.996268 278.430416 
L 359.540746 278.430416 
L 359.540746 274.59802 
L 359.930048 274.59802 
L 359.930048 270.765624 
L 363.008776 270.765624 
L 363.008776 266.933228 
L 366.742896 266.933228 
L 366.742896 263.100832 
L 367.737732 263.100832 
L 367.737732 259.268436 
L 373.044102 259.268436 
L 373.044102 255.43604 
L 374.213334 255.43604 
L 374.213334 251.603644 
L 375.862479 251.603644 
L 375.862479 247.771248 
L 376.997833 247.771248 
L 376.997833 243.938851 
L 382.063915 243.938851 
L 382.063915 240.106455 
L 386.092984 240.106455 
L 386.092984 236.274059 
L 386.643867 236.274059 
L 386.643867 232.441663 
L 388.108498 232.441663 
L 388.108498 228.609267 
L 388.732408 228.609267 
L 388.732408 224.776871 
L 398.27056 224.776871 
L 398.27056 220.944475 
L 399.458561 220.944475 
L 399.458561 217.112079 
L 404.200631 217.112079 
L 404.200631 213.279683 
L 407.727314 213.279683 
L 407.727314 209.447287 
L 408.408723 209.447287 
L 408.408723 205.614891 
L 410.821991 205.614891 
L 410.821991 201.782495 
L 413.457796 201.782495 
L 413.457796 197.950099 
L 415.40333 197.950099 
L 415.40333 194.117703 
L 416.53972 194.117703 
L 416.53972 190.285307 
L 419.846052 190.285307 
L 419.846052 186.452911 
L 420.731096 186.452911 
L 420.731096 182.620515 
L 429.794718 182.620515 
L 429.794718 178.788119 
L 431.526421 178.788119 
L 431.526421 174.955723 
L 433.959663 174.955723 
L 433.959663 171.123327 
L 449.627679 171.123327 
L 449.627679 167.290931 
L 461.8 167.290931 
" style="fill:none;stroke:#f5deb3;stroke-linecap:square;stroke-width:1.5;"/>
   </g>
   <g id="line2d_15"/>
   <g id="line2d_16"/>
   <g id="line2d_17">
    <path clip-path="url(#p4bca857bd4)" d="M 409.781465 293.76 
L 409.781465 289.927604 
L 411.298686 289.927604 
L 411.298686 286.095208 
L 412.668918 286.095208 
L 412.668918 282.262812 
L 413.199761 282.262812 
L 413.199761 278.430416 
L 415.467466 278.430416 
L 415.467466 274.59802 
L 415.996916 274.59802 
L 415.996916 270.765624 
L 416.176933 270.765624 
L 416.176933 266.933228 
L 416.481863 266.933228 
L 416.481863 263.100832 
L 417.299653 263.100832 
L 417.356509 255.43604 
L 418.326551 255.43604 
L 418.396068 240.106455 
L 419.886442 240.106455 
L 419.935761 232.441663 
L 420.190494 232.441663 
L 420.212773 224.776871 
L 420.607574 224.776871 
L 420.607574 220.944475 
L 420.880649 220.944475 
L 420.880649 217.112079 
L 421.365596 217.112079 
L 421.365596 213.279683 
L 421.686125 213.279683 
L 421.686125 209.447287 
L 422.231155 209.447287 
L 422.231155 205.614891 
L 422.583957 205.614891 
L 422.583957 201.782495 
L 423.651519 201.782495 
L 423.651519 197.950099 
L 423.89921 197.950099 
L 423.89921 194.117703 
L 424.129211 194.117703 
L 424.129211 190.285307 
L 424.292809 190.285307 
L 424.354011 182.620515 
L 424.58585 182.620515 
L 424.650722 174.955723 
L 424.83673 174.955723 
L 424.83673 171.123327 
L 425.366422 171.123327 
L 425.366422 167.290931 
L 425.6211 167.290931 
L 425.6211 163.458535 
L 426.32613 163.458535 
L 426.32613 159.626139 
L 426.901144 159.626139 
L 426.901144 155.793743 
L 427.07074 155.793743 
L 427.151468 148.12895 
L 428.286018 148.12895 
L 428.286018 144.296554 
L 429.173526 144.296554 
L 429.173526 140.464158 
L 429.382728 140.464158 
L 429.382728 136.631762 
L 429.801977 136.631762 
L 429.801977 132.799366 
L 431.06945 132.799366 
L 431.06945 128.96697 
L 433.886547 128.96697 
L 433.886547 125.134574 
L 434.435434 125.134574 
L 434.435434 121.302178 
L 438.630139 121.302178 
L 438.648168 113.637386 
L 441.029007 113.637386 
L 441.029007 109.80499 
L 442.849041 109.80499 
L 442.849041 105.972594 
L 443.259184 105.972594 
L 443.300001 98.307802 
L 444.521503 98.307802 
L 444.521503 94.475406 
L 445.187167 94.475406 
L 445.187167 90.64301 
L 445.918142 90.64301 
L 445.933571 82.978218 
L 446.378822 82.978218 
L 446.378822 79.145822 
L 446.531379 79.145822 
L 446.531379 75.313426 
L 447.199289 75.313426 
L 447.199289 71.48103 
L 450.05341 71.48103 
L 450.05341 67.648634 
L 450.234353 67.648634 
L 450.234353 63.816238 
L 450.563885 63.816238 
L 450.563885 59.983842 
L 450.775337 59.983842 
L 450.775337 56.151446 
L 452.359509 56.151446 
L 452.359509 52.31905 
L 453.854916 52.31905 
L 453.854916 48.486653 
L 456.278726 48.486653 
L 456.278726 44.654257 
L 456.412511 44.654257 
L 456.412511 40.821861 
L 458.979782 40.821861 
L 458.979782 36.989465 
L 461.8 36.989465 
L 461.8 36.989465 
" style="fill:none;stroke:#f5deb3;stroke-linecap:square;stroke-width:1.5;"/>
   </g>
   <g id="line2d_18">
    <path clip-path="url(#p4bca857bd4)" d="M 255.194213 293.76 
L 255.194213 289.927604 
L 287.858026 289.927604 
L 287.858026 286.095208 
L 289.341415 286.095208 
L 289.341415 282.262812 
L 297.187112 282.262812 
L 297.187112 278.430416 
L 298.10413 278.430416 
L 298.10413 274.59802 
L 312.481018 274.59802 
L 312.481018 270.765624 
L 316.448878 270.765624 
L 316.448878 266.933228 
L 332.264835 266.933228 
L 332.264835 263.100832 
L 336.127147 263.100832 
L 336.127147 259.268436 
L 351.588175 259.268436 
L 351.588175 255.43604 
L 352.182857 255.43604 
L 352.182857 251.603644 
L 359.115316 251.603644 
L 359.115316 247.771248 
L 363.400384 247.771248 
L 363.400384 243.938851 
L 365.23868 243.938851 
L 365.23868 240.106455 
L 365.425781 240.106455 
L 365.425781 236.274059 
L 365.54055 236.274059 
L 365.54055 232.441663 
L 370.691245 232.441663 
L 370.691245 228.609267 
L 371.543394 228.609267 
L 371.543394 224.776871 
L 372.181801 224.776871 
L 372.181801 220.944475 
L 372.305964 220.944475 
L 372.305964 217.112079 
L 372.93412 217.112079 
L 372.93412 213.279683 
L 373.638395 213.279683 
L 373.638395 209.447287 
L 378.650829 209.447287 
L 378.650829 205.614891 
L 383.530466 205.614891 
L 383.530466 201.782495 
L 383.725169 201.782495 
L 383.725169 197.950099 
L 387.655147 197.950099 
L 387.655147 194.117703 
L 389.27051 194.117703 
L 389.27051 190.285307 
L 390.59769 190.285307 
L 390.59769 186.452911 
L 404.84225 186.452911 
L 404.84225 182.620515 
L 409.479872 182.620515 
L 409.479872 178.788119 
L 424.989832 178.788119 
L 424.989832 174.955723 
L 429.503419 174.955723 
L 429.503419 171.123327 
L 432.584768 171.123327 
L 432.584768 167.290931 
L 438.878924 167.290931 
L 438.878924 163.458535 
L 443.889228 163.458535 
L 443.889228 159.626139 
L 445.434695 159.626139 
L 445.434695 155.793743 
L 447.726836 155.793743 
L 447.726836 151.961347 
L 453.104363 151.961347 
L 453.104363 148.12895 
L 461.8 148.12895 
" style="fill:none;stroke:#f5deb3;stroke-linecap:square;stroke-width:1.5;"/>
   </g>
   <g id="line2d_19">
    <path clip-path="url(#p4bca857bd4)" style="fill:none;stroke:#f5deb3;stroke-linecap:square;stroke-width:1.5;"/>
   </g>
   <g id="line2d_20">
    <path clip-path="url(#p4bca857bd4)" d="M 272.367659 293.76 
L 272.367659 289.927604 
L 277.528483 289.927604 
L 277.528483 286.095208 
L 281.576854 286.095208 
L 281.576854 282.262812 
L 282.515384 282.262812 
L 282.515384 278.430416 
L 284.418972 278.430416 
L 284.418972 270.765624 
L 284.742268 270.765624 
L 284.742268 266.933228 
L 285.540871 266.933228 
L 285.540871 263.100832 
L 285.935119 263.100832 
L 285.935119 259.268436 
L 287.555622 259.268436 
L 287.631406 251.603644 
L 288.82756 251.603644 
L 288.82756 247.771248 
L 289.777414 247.771248 
L 289.777414 243.938851 
L 292.78858 243.938851 
L 292.78858 240.106455 
L 293.795006 240.106455 
L 293.795006 232.441663 
L 296.125627 232.441663 
L 296.125627 228.609267 
L 298.285396 228.609267 
L 298.285396 224.776871 
L 301.658564 224.776871 
L 301.658564 217.112079 
L 302.049705 217.112079 
L 302.049705 213.279683 
L 302.712719 213.279683 
L 302.712719 209.447287 
L 303.203887 209.447287 
L 303.203887 205.614891 
L 304.011216 205.614891 
L 304.011216 201.782495 
L 306.403582 201.782495 
L 306.403582 197.950099 
L 307.157983 197.950099 
L 307.157983 194.117703 
L 308.047498 194.117703 
L 308.047498 190.285307 
L 308.968442 190.285307 
L 308.968442 186.452911 
L 311.943631 186.452911 
L 311.943631 182.620515 
L 312.078558 182.620515 
L 312.123447 174.955723 
L 312.569986 174.955723 
L 312.569986 171.123327 
L 313.581139 171.123327 
L 313.624611 163.458535 
L 315.623513 163.458535 
L 315.623513 159.626139 
L 318.918739 159.626139 
L 318.918739 155.793743 
L 319.420484 155.793743 
L 319.420484 151.961347 
L 321.485668 151.961347 
L 321.595735 144.296554 
L 326.956726 144.296554 
L 326.956726 140.464158 
L 327.670208 140.464158 
L 327.670208 136.631762 
L 327.830857 136.631762 
L 327.830857 132.799366 
L 328.625931 132.799366 
L 328.625931 128.96697 
L 329.034093 128.96697 
L 329.12778 121.302178 
L 336.154003 121.302178 
L 336.154003 117.469782 
L 341.930645 117.469782 
L 341.930645 113.637386 
L 342.660575 113.637386 
L 342.660575 109.80499 
L 345.20674 109.80499 
L 345.20674 105.972594 
L 349.85767 105.972594 
L 349.85767 102.140198 
L 350.494373 102.140198 
L 350.494373 98.307802 
L 352.90166 98.307802 
L 352.90166 94.475406 
L 357.713805 94.475406 
L 357.713805 90.64301 
L 360.316137 90.64301 
L 360.316137 86.810614 
L 362.842103 86.810614 
L 362.842103 82.978218 
L 363.265198 82.978218 
L 363.265198 79.145822 
L 367.477253 79.145822 
L 367.477253 75.313426 
L 367.683015 75.313426 
L 367.683015 71.48103 
L 369.402994 71.48103 
L 369.402994 67.648634 
L 371.049256 67.648634 
L 371.049256 63.816238 
L 372.8484 63.816238 
L 372.8484 59.983842 
L 374.875287 59.983842 
L 374.875287 56.151446 
L 386.506753 56.151446 
L 386.506753 52.31905 
L 390.564126 52.31905 
L 390.564126 48.486653 
L 391.098287 48.486653 
L 391.098287 44.654257 
L 397.596488 44.654257 
L 397.596488 40.821861 
L 403.416341 40.821861 
L 403.416341 36.989465 
L 410.384377 36.989465 
L 410.384377 33.157069 
L 422.736156 33.157069 
L 422.736156 29.324673 
L 428.689154 29.324673 
L 428.689154 25.492277 
L 430.040904 25.492277 
L 430.040904 21.659881 
L 432.286292 21.659881 
L 432.286292 17.827485 
L 434.890142 17.827485 
L 434.890142 13.995089 
L 458.141558 13.995089 
L 458.141558 10.162693 
L 461.8 10.162693 
L 461.8 10.162693 
" style="fill:none;stroke:#f5deb3;stroke-linecap:square;stroke-width:1.5;"/>
   </g>
   <g id="line2d_21"/>
   <g id="line2d_22">
    <path clip-path="url(#p4bca857bd4)" d="M 270.766694 293.76 
L 270.766694 289.927604 
L 273.096437 289.927604 
L 273.096437 286.095208 
L 277.995989 286.095208 
L 277.995989 282.262812 
L 278.5509 282.262812 
L 278.5509 278.430416 
L 279.280692 278.430416 
L 279.280692 274.59802 
L 279.461376 274.59802 
L 279.461376 270.765624 
L 279.910056 270.765624 
L 279.910056 266.933228 
L 280.442855 266.933228 
L 280.531068 259.268436 
L 281.576854 259.268436 
L 281.576854 255.43604 
L 282.599779 255.43604 
L 282.599779 251.603644 
L 284.418972 251.603644 
L 284.418972 247.771248 
L 285.698969 247.771248 
L 285.698969 243.938851 
L 287.174847 243.938851 
L 287.174847 240.106455 
L 287.858026 240.106455 
L 287.858026 236.274059 
L 288.008499 236.274059 
L 288.008499 232.441663 
L 288.308001 232.441663 
L 288.308001 228.609267 
L 290.849967 228.609267 
L 290.849967 224.776871 
L 292.036531 224.776871 
L 292.036531 220.944475 
L 292.924027 220.944475 
L 292.924027 217.112079 
L 293.993719 217.112079 
L 293.993719 213.279683 
L 301.433578 213.279683 
L 301.433578 209.447287 
L 302.049705 209.447287 
L 302.049705 205.614891 
L 302.657825 205.614891 
L 302.657825 201.782495 
L 305.014235 201.782495 
L 305.014235 197.950099 
L 306.957996 197.950099 
L 306.957996 194.117703 
L 309.398433 194.117703 
L 309.398433 190.285307 
L 310.526125 190.285307 
L 310.526125 186.452911 
L 312.481018 186.452911 
L 312.481018 182.620515 
L 316.489767 182.620515 
L 316.489767 178.788119 
L 318.175603 178.788119 
L 318.175603 174.955723 
L 318.724318 174.955723 
L 318.724318 171.123327 
L 319.61204 171.123327 
L 319.61204 167.290931 
L 319.916907 167.290931 
L 319.916907 163.458535 
L 321.559075 163.458535 
L 321.559075 159.626139 
L 322.574863 159.626139 
L 322.574863 155.793743 
L 325.999295 155.793743 
L 325.999295 151.961347 
L 330.298536 151.961347 
L 330.298536 148.12895 
L 331.08303 148.12895 
L 331.08303 144.296554 
L 331.76621 144.296554 
L 331.76621 140.464158 
L 334.067693 140.464158 
L 334.067693 136.631762 
L 336.3683 136.631762 
L 336.3683 132.799366 
L 338.866119 132.799366 
L 338.866119 128.96697 
L 339.992605 128.96697 
L 339.992605 125.134574 
L 341.213253 125.134574 
L 341.213253 121.302178 
L 342.567028 121.302178 
L 342.660575 113.637386 
L 342.730613 113.637386 
L 342.730613 109.80499 
L 343.791605 109.80499 
L 343.791605 105.972594 
L 344.538201 105.972594 
L 344.538201 102.140198 
L 345.427481 102.140198 
L 345.427481 98.307802 
L 349.374392 98.307802 
L 349.394628 90.64301 
L 352.240008 90.64301 
L 352.240008 86.810614 
L 353.628076 86.810614 
L 353.628076 82.978218 
L 354.161014 82.978218 
L 354.161014 79.145822 
L 356.945364 79.145822 
L 356.945364 75.313426 
L 357.629043 75.313426 
L 357.629043 71.48103 
L 358.135326 71.48103 
L 358.135326 67.648634 
L 358.50315 67.648634 
L 358.50315 63.816238 
L 358.78541 63.816238 
L 358.78541 59.983842 
L 359.24663 59.983842 
L 359.312149 52.31905 
L 362.415148 52.31905 
L 362.415148 48.486653 
L 369.757867 48.486653 
L 369.757867 44.654257 
L 371.049256 44.654257 
L 371.049256 40.821861 
L 376.331311 40.821861 
L 376.331311 36.989465 
L 376.784225 36.989465 
L 376.784225 33.157069 
L 379.911358 33.157069 
L 379.911358 29.324673 
L 380.715971 29.324673 
L 380.715971 25.492277 
L 382.104162 25.492277 
L 382.104162 21.659881 
L 390.438045 21.659881 
L 390.438045 17.827485 
L 391.156342 17.827485 
L 391.156342 13.995089 
L 405.615366 13.995089 
L 405.615366 10.162693 
L 416.026155 10.162693 
L 416.026155 6.330297 
L 416.026155 6.330297 
L 460.8 6.330297 
L 460.8 6.330297 
" style="fill:none;stroke:#f5deb3;stroke-linecap:square;stroke-width:1.5;"/>
   </g>
   <g id="line2d_23">
    <path clip-path="url(#p4bca857bd4)" style="fill:none;stroke:#f5deb3;stroke-linecap:square;stroke-width:1.5;"/>
   </g>
   <g id="line2d_24">
    <path clip-path="url(#p4bca857bd4)" d="M 324.817063 293.76 
L 324.817063 289.927604 
L 326.989395 289.927604 
L 326.989395 286.095208 
L 332.497656 286.095208 
L 332.497656 282.262812 
L 333.160636 282.262812 
L 333.160636 278.430416 
L 333.274984 278.430416 
L 333.274984 274.59802 
L 333.417528 274.59802 
L 333.417528 270.765624 
L 333.983399 270.765624 
L 333.983399 266.933228 
L 334.43122 266.933228 
L 334.43122 263.100832 
L 337.607853 263.100832 
L 337.633873 255.43604 
L 338.022447 255.43604 
L 338.022447 251.603644 
L 338.407821 251.603644 
L 338.407821 247.771248 
L 338.942067 247.771248 
L 338.942067 243.938851 
L 339.769467 243.938851 
L 339.769467 240.106455 
L 340.239295 240.106455 
L 340.239295 236.274059 
L 341.309543 236.274059 
L 341.309543 232.441663 
L 341.740413 232.441663 
L 341.740413 228.609267 
L 343.079238 228.609267 
L 343.079238 224.776871 
L 343.950972 224.776871 
L 344.019107 217.112079 
L 345.449498 217.112079 
L 345.449498 213.279683 
L 346.816089 213.279683 
L 346.816089 209.447287 
L 347.621491 209.447287 
L 347.621491 205.614891 
L 349.212184 205.614891 
L 349.212184 201.782495 
L 349.414856 201.782495 
L 349.515864 194.117703 
L 349.817587 194.117703 
L 349.817587 190.285307 
L 350.415257 190.285307 
L 350.415257 186.452911 
L 350.533881 186.452911 
L 350.533881 182.620515 
L 350.848748 182.620515 
L 350.927135 174.955723 
L 351.530222 174.955723 
L 351.530222 171.123327 
L 352.278069 171.123327 
L 352.278069 167.290931 
L 352.543639 167.290931 
L 352.543639 163.458535 
L 353.665026 163.458535 
L 353.665026 159.626139 
L 354.579415 159.626139 
L 354.579415 155.793743 
L 354.922252 155.793743 
L 354.994109 148.12895 
L 356.408557 148.12895 
L 356.408557 144.296554 
L 357.730739 144.296554 
L 357.730739 140.464158 
L 358.319599 140.464158 
L 358.319599 136.631762 
L 359.361229 136.631762 
L 359.361229 132.799366 
L 359.930048 132.799366 
L 359.930048 128.96697 
L 360.075205 128.96697 
L 360.075205 125.134574 
L 362.522253 125.134574 
L 362.522253 121.302178 
L 363.34035 121.302178 
L 363.34035 117.469782 
L 365.267513 117.469782 
L 365.267513 113.637386 
L 365.897399 113.637386 
L 365.897399 109.80499 
L 366.546976 109.80499 
L 366.546976 105.972594 
L 367.298192 105.972594 
L 367.298192 102.140198 
L 367.683015 102.140198 
L 367.683015 98.307802 
L 368.078273 98.307802 
L 368.078273 94.475406 
L 369.757867 94.475406 
L 369.757867 90.64301 
L 371.138333 90.64301 
L 371.176456 82.978218 
L 371.290642 82.978218 
L 371.290642 79.145822 
L 371.907477 79.145822 
L 371.907477 75.313426 
L 372.52863 75.313426 
L 372.52863 71.48103 
L 373.517722 71.48103 
L 373.517722 67.648634 
L 373.830827 67.648634 
L 373.830827 63.816238 
L 374.781294 63.816238 
L 374.781294 59.983842 
L 374.898756 59.983842 
L 374.898756 56.151446 
L 379.678905 56.151446 
L 379.678905 52.31905 
L 381.220886 52.31905 
L 381.220886 48.486653 
L 382.494765 48.486653 
L 382.494765 44.654257 
L 382.9612 44.654257 
L 382.9612 40.821861 
L 392.391465 40.821861 
L 392.391465 36.989465 
L 396.618475 36.989465 
L 396.618475 33.157069 
L 402.527764 33.157069 
L 402.527764 29.324673 
L 416.727264 29.324673 
L 416.727264 25.492277 
L 416.885371 25.492277 
L 416.885371 21.659881 
L 420.836712 21.659881 
L 420.836712 17.827485 
L 424.484308 17.827485 
L 424.484308 13.995089 
L 446.041434 13.995089 
L 446.041434 10.162693 
L 448.341398 10.162693 
L 448.341398 6.330297 
L 448.341398 6.330297 
L 460.8 6.330297 
L 460.8 6.330297 
" style="fill:none;stroke:#f5deb3;stroke-linecap:square;stroke-width:1.5;"/>
   </g>
   <g id="line2d_25"/>
   <g id="line2d_26">
    <path clip-path="url(#p4bca857bd4)" d="M 382.134324 293.76 
L 382.134324 289.927604 
L 383.802825 289.927604 
L 383.802825 286.095208 
L 384.83875 286.095208 
L 384.924051 278.430416 
L 384.971373 278.430416 
L 384.971373 274.59802 
L 385.122484 274.59802 
L 385.122484 270.765624 
L 385.254306 270.765624 
L 385.254306 266.933228 
L 390.040778 266.933228 
L 390.074719 259.268436 
L 390.303183 259.268436 
L 390.303183 255.43604 
L 390.773509 255.43604 
L 390.773509 251.603644 
L 390.890355 251.603644 
L 390.890355 247.771248 
L 391.148053 247.771248 
L 391.239154 240.106455 
L 391.346591 240.106455 
L 391.346591 236.274059 
L 391.511398 236.274059 
L 391.577159 228.609267 
L 391.822942 228.609267 
L 391.929048 220.944475 
L 392.270219 220.944475 
L 392.270219 217.112079 
L 392.439876 217.112079 
L 392.439876 213.279683 
L 392.600884 213.279683 
L 392.600884 209.447287 
L 392.961139 209.447287 
L 393.008965 197.950099 
L 393.302812 197.950099 
L 393.302812 194.117703 
L 393.634147 194.117703 
L 393.73623 178.788119 
L 397.632589 178.788119 
L 397.683083 167.290931 
L 398.006392 167.290931 
L 398.077936 159.626139 
L 398.533246 159.626139 
L 398.533246 155.793743 
L 398.773339 155.793743 
L 398.843721 148.12895 
L 399.465501 148.12895 
L 399.465501 144.296554 
L 399.873185 144.296554 
L 399.873185 140.464158 
L 400.488314 140.464158 
L 400.488314 136.631762 
L 404.550563 136.631762 
L 404.550563 132.799366 
L 405.162863 132.799366 
L 405.175151 125.134574 
L 405.584929 125.134574 
L 405.584929 121.302178 
L 405.924699 121.302178 
L 405.924699 117.469782 
L 410.636505 117.469782 
L 410.636505 113.637386 
L 411.988817 113.637386 
L 411.994127 105.972594 
L 412.16903 105.972594 
L 412.206047 94.475406 
L 412.564121 94.475406 
L 412.564121 90.64301 
L 415.620052 90.64301 
L 415.620052 86.810614 
L 416.235168 86.810614 
L 416.235168 82.978218 
L 416.58788 82.978218 
L 416.688855 71.48103 
L 417.47946 71.48103 
L 417.47946 67.648634 
L 420.417243 67.648634 
L 420.527995 59.983842 
L 421.012212 59.983842 
L 421.012212 56.151446 
L 421.746519 56.151446 
L 421.76376 48.486653 
L 425.902021 48.486653 
L 425.902021 44.654257 
L 428.878322 44.654257 
L 428.878322 40.821861 
L 437.881856 40.821861 
L 437.881856 36.989465 
L 438.714214 36.989465 
L 438.723213 29.324673 
L 438.843037 29.324673 
L 438.843037 25.492277 
L 440.141233 25.492277 
L 440.141233 21.659881 
L 441.316499 21.659881 
L 441.316499 17.827485 
L 446.749181 17.827485 
L 446.749181 13.995089 
L 450.114586 13.995089 
L 450.114586 10.162693 
L 461.8 10.162693 
L 461.8 10.162693 
" style="fill:none;stroke:#f5deb3;stroke-linecap:square;stroke-width:1.5;"/>
   </g>
   <g id="line2d_27">
    <path clip-path="url(#p4bca857bd4)" d="M 367.874246 293.76 
L 367.874246 289.927604 
L 369.231165 289.927604 
L 369.231165 286.095208 
L 381.811585 286.095208 
L 381.811585 282.262812 
L 382.594396 282.262812 
L 382.594396 278.430416 
L 382.921684 278.430416 
L 382.921684 274.59802 
L 391.929048 274.59802 
L 391.929048 270.765624 
L 399.914446 270.765624 
L 399.914446 266.933228 
L 409.992538 266.933228 
L 409.992538 263.100832 
L 410.422832 263.100832 
L 410.422832 259.268436 
L 412.311647 259.268436 
L 412.311647 255.43604 
L 418.888988 255.43604 
L 418.888988 251.603644 
L 419.881956 251.603644 
L 419.881956 247.771248 
L 424.349933 247.771248 
L 424.349933 243.938851 
L 426.212626 243.938851 
L 426.212626 240.106455 
L 435.984105 240.106455 
L 435.984105 236.274059 
L 461.8 236.274059 
" style="fill:none;stroke:#f5deb3;stroke-linecap:square;stroke-width:1.5;"/>
   </g>
   <g id="line2d_28">
    <path clip-path="url(#p4bca857bd4)" d="M 317.340276 293.76 
L 317.340276 289.927604 
L 317.81943 289.927604 
L 317.81943 286.095208 
L 319.035004 286.095208 
L 319.035004 282.262812 
L 321.042791 282.262812 
L 321.042791 278.430416 
L 321.375341 278.430416 
L 321.375341 274.59802 
L 321.851557 274.59802 
L 321.851557 270.765624 
L 323.463553 270.765624 
L 323.463553 266.933228 
L 325.327395 266.933228 
L 325.327395 263.100832 
L 325.496277 263.100832 
L 325.496277 259.268436 
L 326.956726 259.268436 
L 326.956726 255.43604 
L 327.54129 255.43604 
L 327.54129 251.603644 
L 327.798771 251.603644 
L 327.798771 247.771248 
L 328.97153 247.771248 
L 328.97153 243.938851 
L 330.023887 243.938851 
L 330.023887 240.106455 
L 330.207166 240.106455 
L 330.207166 236.274059 
L 330.571583 236.274059 
L 330.571583 232.441663 
L 330.752732 232.441663 
L 330.752732 228.609267 
L 331.202563 228.609267 
L 331.202563 224.776871 
L 331.559339 224.776871 
L 331.559339 220.944475 
L 331.884012 220.944475 
L 331.884012 217.112079 
L 332.089455 217.112079 
L 332.089455 213.279683 
L 332.84473 213.279683 
L 332.84473 209.447287 
L 333.074691 209.447287 
L 333.074691 205.614891 
L 333.246424 205.614891 
L 333.246424 201.782495 
L 334.403357 201.782495 
L 334.403357 197.950099 
L 335.04006 197.950099 
L 335.04006 194.117703 
L 335.259507 194.117703 
L 335.259507 190.285307 
L 336.421721 190.285307 
L 336.421721 186.452911 
L 337.242045 186.452911 
L 337.242045 182.620515 
L 338.254052 182.620515 
L 338.254052 178.788119 
L 338.739263 178.788119 
L 338.739263 174.955723 
L 339.744608 174.955723 
L 339.744608 171.123327 
L 341.092611 171.123327 
L 341.092611 167.290931 
L 341.692734 167.290931 
L 341.692734 163.458535 
L 341.978082 163.458535 
L 341.978082 159.626139 
L 342.190957 159.626139 
L 342.190957 155.793743 
L 343.631693 155.793743 
L 343.631693 151.961347 
L 343.814405 151.961347 
L 343.814405 148.12895 
L 344.358298 148.12895 
L 344.358298 144.296554 
L 344.538201 144.296554 
L 344.538201 140.464158 
L 344.984953 140.464158 
L 344.984953 136.631762 
L 345.20674 136.631762 
L 345.20674 132.799366 
L 345.383416 132.799366 
L 345.383416 128.96697 
L 345.931268 128.96697 
L 345.931268 125.134574 
L 346.75191 125.134574 
L 346.75191 121.302178 
L 347.262892 121.302178 
L 347.262892 117.469782 
L 347.684489 117.469782 
L 347.684489 113.637386 
L 347.810231 113.637386 
L 347.893872 102.140198 
L 348.722159 102.140198 
L 348.722159 98.307802 
L 349.85767 98.307802 
L 349.85767 94.475406 
L 351.04447 94.475406 
L 351.04447 90.64301 
L 351.394719 90.64301 
L 351.394719 86.810614 
L 352.220965 86.810614 
L 352.220965 82.978218 
L 352.486858 82.978218 
L 352.486858 79.145822 
L 353.941223 79.145822 
L 353.941223 75.313426 
L 354.706016 75.313426 
L 354.706016 71.48103 
L 355.155386 71.48103 
L 355.155386 67.648634 
L 355.5118 67.648634 
L 355.5118 63.816238 
L 356.841946 63.816238 
L 356.841946 59.983842 
L 357.237149 59.983842 
L 357.237149 56.151446 
L 357.679919 56.151446 
L 357.679919 52.31905 
L 358.235929 52.31905 
L 358.235929 48.486653 
L 358.602966 48.486653 
L 358.602966 44.654257 
L 359.638376 44.654257 
L 359.638376 40.821861 
L 361.642904 40.821861 
L 361.642904 36.989465 
L 362.030619 36.989465 
L 362.030619 33.157069 
L 362.537534 33.157069 
L 362.537534 29.324673 
L 378.899204 29.324673 
L 378.899204 25.492277 
L 379.721255 25.492277 
L 379.721255 21.659881 
L 382.85245 21.659881 
L 382.85245 17.827485 
L 385.61958 17.827485 
L 385.61958 13.995089 
L 388.337939 13.995089 
L 388.337939 10.162693 
L 403.550093 10.162693 
L 403.550093 6.330297 
L 403.550093 6.330297 
L 460.8 6.330297 
L 460.8 6.330297 
" style="fill:none;stroke:#f5deb3;stroke-linecap:square;stroke-width:1.5;"/>
   </g>
   <g id="line2d_29">
    <path clip-path="url(#p4bca857bd4)" d="M 394.320858 293.76 
L 394.320858 289.927604 
L 394.320858 289.927604 
L 394.320858 286.095208 
L 394.320858 286.095208 
L 394.320858 282.262812 
L 425.290547 282.262812 
L 425.290547 278.430416 
L 425.290547 278.430416 
L 425.290547 274.59802 
L 425.290547 274.59802 
L 425.290547 270.765624 
L 425.290547 270.765624 
L 425.290547 270.765624 
L 460.8 270.765624 
" style="fill:none;stroke:#f5deb3;stroke-linecap:square;stroke-width:1.5;"/>
   </g>
   <g id="line2d_30"/>
   <g id="matplotlib.axis_1">
    <g id="xtick_1">
     <g id="line2d_31">
      <path clip-path="url(#p4bca857bd4)" d="M 62.208 293.76 
L 62.208 3.456 
" style="fill:none;stroke:#b0b0b0;stroke-linecap:square;stroke-width:0.8;"/>
     </g>
     <g id="line2d_32">
      <defs>
       <path d="M 0 0 
L 0 3.5 
" id="m6e3c931b68" style="stroke:#000000;stroke-width:0.8;"/>
      </defs>
      <g>
       <use style="stroke:#000000;stroke-width:0.8;" x="62.208" xlink:href="#m6e3c931b68" y="293.76"/>
      </g>
     </g>
     <g id="text_1">
      <!-- 0 -->
      <g transform="translate(55.8455 315.956875)scale(0.2 -0.2)">
       <defs>
        <path d="M 31.78125 66.40625 
Q 24.171875 66.40625 20.328125 58.90625 
Q 16.5 51.421875 16.5 36.375 
Q 16.5 21.390625 20.328125 13.890625 
Q 24.171875 6.390625 31.78125 6.390625 
Q 39.453125 6.390625 43.28125 13.890625 
Q 47.125 21.390625 47.125 36.375 
Q 47.125 51.421875 43.28125 58.90625 
Q 39.453125 66.40625 31.78125 66.40625 
z
M 31.78125 74.21875 
Q 44.046875 74.21875 50.515625 64.515625 
Q 56.984375 54.828125 56.984375 36.375 
Q 56.984375 17.96875 50.515625 8.265625 
Q 44.046875 -1.421875 31.78125 -1.421875 
Q 19.53125 -1.421875 13.0625 8.265625 
Q 6.59375 17.96875 6.59375 36.375 
Q 6.59375 54.828125 13.0625 64.515625 
Q 19.53125 74.21875 31.78125 74.21875 
z
" id="DejaVuSans-48"/>
       </defs>
       <use xlink:href="#DejaVuSans-48"/>
      </g>
     </g>
    </g>
    <g id="xtick_2">
     <g id="line2d_33">
      <path clip-path="url(#p4bca857bd4)" d="M 277.716046 293.76 
L 277.716046 3.456 
" style="fill:none;stroke:#b0b0b0;stroke-linecap:square;stroke-width:0.8;"/>
     </g>
     <g id="line2d_34">
      <g>
       <use style="stroke:#000000;stroke-width:0.8;" x="277.716046" xlink:href="#m6e3c931b68" y="293.76"/>
      </g>
     </g>
     <g id="text_2">
      <!-- 2 -->
      <g transform="translate(271.353546 315.956875)scale(0.2 -0.2)">
       <defs>
        <path d="M 19.1875 8.296875 
L 53.609375 8.296875 
L 53.609375 0 
L 7.328125 0 
L 7.328125 8.296875 
Q 12.9375 14.109375 22.625 23.890625 
Q 32.328125 33.6875 34.8125 36.53125 
Q 39.546875 41.84375 41.421875 45.53125 
Q 43.3125 49.21875 43.3125 52.78125 
Q 43.3125 58.59375 39.234375 62.25 
Q 35.15625 65.921875 28.609375 65.921875 
Q 23.96875 65.921875 18.8125 64.3125 
Q 13.671875 62.703125 7.8125 59.421875 
L 7.8125 69.390625 
Q 13.765625 71.78125 18.9375 73 
Q 24.125 74.21875 28.421875 74.21875 
Q 39.75 74.21875 46.484375 68.546875 
Q 53.21875 62.890625 53.21875 53.421875 
Q 53.21875 48.921875 51.53125 44.890625 
Q 49.859375 40.875 45.40625 35.40625 
Q 44.1875 33.984375 37.640625 27.21875 
Q 31.109375 20.453125 19.1875 8.296875 
z
" id="DejaVuSans-50"/>
       </defs>
       <use xlink:href="#DejaVuSans-50"/>
      </g>
     </g>
    </g>
    <g id="xtick_3">
     <g id="line2d_35">
      <path clip-path="url(#p4bca857bd4)" d="M 94.645193 293.76 
L 94.645193 3.456 
" style="fill:none;stroke:#b0b0b0;stroke-linecap:square;stroke-width:0.8;"/>
     </g>
     <g id="line2d_36">
      <defs>
       <path d="M 0 0 
L 0 2 
" id="me397177ec6" style="stroke:#000000;stroke-width:0.6;"/>
      </defs>
      <g>
       <use style="stroke:#000000;stroke-width:0.6;" x="94.645193" xlink:href="#me397177ec6" y="293.76"/>
      </g>
     </g>
    </g>
    <g id="xtick_4">
     <g id="line2d_37">
      <path clip-path="url(#p4bca857bd4)" d="M 113.619735 293.76 
L 113.619735 3.456 
" style="fill:none;stroke:#b0b0b0;stroke-linecap:square;stroke-width:0.8;"/>
     </g>
     <g id="line2d_38">
      <g>
       <use style="stroke:#000000;stroke-width:0.6;" x="113.619735" xlink:href="#me397177ec6" y="293.76"/>
      </g>
     </g>
    </g>
    <g id="xtick_5">
     <g id="line2d_39">
      <path clip-path="url(#p4bca857bd4)" d="M 127.082386 293.76 
L 127.082386 3.456 
" style="fill:none;stroke:#b0b0b0;stroke-linecap:square;stroke-width:0.8;"/>
     </g>
     <g id="line2d_40">
      <g>
       <use style="stroke:#000000;stroke-width:0.6;" x="127.082386" xlink:href="#me397177ec6" y="293.76"/>
      </g>
     </g>
    </g>
    <g id="xtick_6">
     <g id="line2d_41">
      <path clip-path="url(#p4bca857bd4)" d="M 137.52483 293.76 
L 137.52483 3.456 
" style="fill:none;stroke:#b0b0b0;stroke-linecap:square;stroke-width:0.8;"/>
     </g>
     <g id="line2d_42">
      <g>
       <use style="stroke:#000000;stroke-width:0.6;" x="137.52483" xlink:href="#me397177ec6" y="293.76"/>
      </g>
     </g>
    </g>
    <g id="xtick_7">
     <g id="line2d_43">
      <path clip-path="url(#p4bca857bd4)" d="M 146.056928 293.76 
L 146.056928 3.456 
" style="fill:none;stroke:#b0b0b0;stroke-linecap:square;stroke-width:0.8;"/>
     </g>
     <g id="line2d_44">
      <g>
       <use style="stroke:#000000;stroke-width:0.6;" x="146.056928" xlink:href="#me397177ec6" y="293.76"/>
      </g>
     </g>
    </g>
    <g id="xtick_8">
     <g id="line2d_45">
      <path clip-path="url(#p4bca857bd4)" d="M 153.270714 293.76 
L 153.270714 3.456 
" style="fill:none;stroke:#b0b0b0;stroke-linecap:square;stroke-width:0.8;"/>
     </g>
     <g id="line2d_46">
      <g>
       <use style="stroke:#000000;stroke-width:0.6;" x="153.270714" xlink:href="#me397177ec6" y="293.76"/>
      </g>
     </g>
    </g>
    <g id="xtick_9">
     <g id="line2d_47">
      <path clip-path="url(#p4bca857bd4)" d="M 159.519579 293.76 
L 159.519579 3.456 
" style="fill:none;stroke:#b0b0b0;stroke-linecap:square;stroke-width:0.8;"/>
     </g>
     <g id="line2d_48">
      <g>
       <use style="stroke:#000000;stroke-width:0.6;" x="159.519579" xlink:href="#me397177ec6" y="293.76"/>
      </g>
     </g>
    </g>
    <g id="xtick_10">
     <g id="line2d_49">
      <path clip-path="url(#p4bca857bd4)" d="M 165.031469 293.76 
L 165.031469 3.456 
" style="fill:none;stroke:#b0b0b0;stroke-linecap:square;stroke-width:0.8;"/>
     </g>
     <g id="line2d_50">
      <g>
       <use style="stroke:#000000;stroke-width:0.6;" x="165.031469" xlink:href="#me397177ec6" y="293.76"/>
      </g>
     </g>
    </g>
    <g id="xtick_11">
     <g id="line2d_51">
      <path clip-path="url(#p4bca857bd4)" d="M 202.399216 293.76 
L 202.399216 3.456 
" style="fill:none;stroke:#b0b0b0;stroke-linecap:square;stroke-width:0.8;"/>
     </g>
     <g id="line2d_52">
      <g>
       <use style="stroke:#000000;stroke-width:0.6;" x="202.399216" xlink:href="#me397177ec6" y="293.76"/>
      </g>
     </g>
    </g>
    <g id="xtick_12">
     <g id="line2d_53">
      <path clip-path="url(#p4bca857bd4)" d="M 221.373758 293.76 
L 221.373758 3.456 
" style="fill:none;stroke:#b0b0b0;stroke-linecap:square;stroke-width:0.8;"/>
     </g>
     <g id="line2d_54">
      <g>
       <use style="stroke:#000000;stroke-width:0.6;" x="221.373758" xlink:href="#me397177ec6" y="293.76"/>
      </g>
     </g>
    </g>
    <g id="xtick_13">
     <g id="line2d_55">
      <path clip-path="url(#p4bca857bd4)" d="M 234.836409 293.76 
L 234.836409 3.456 
" style="fill:none;stroke:#b0b0b0;stroke-linecap:square;stroke-width:0.8;"/>
     </g>
     <g id="line2d_56">
      <g>
       <use style="stroke:#000000;stroke-width:0.6;" x="234.836409" xlink:href="#me397177ec6" y="293.76"/>
      </g>
     </g>
    </g>
    <g id="xtick_14">
     <g id="line2d_57">
      <path clip-path="url(#p4bca857bd4)" d="M 245.278853 293.76 
L 245.278853 3.456 
" style="fill:none;stroke:#b0b0b0;stroke-linecap:square;stroke-width:0.8;"/>
     </g>
     <g id="line2d_58">
      <g>
       <use style="stroke:#000000;stroke-width:0.6;" x="245.278853" xlink:href="#me397177ec6" y="293.76"/>
      </g>
     </g>
    </g>
    <g id="xtick_15">
     <g id="line2d_59">
      <path clip-path="url(#p4bca857bd4)" d="M 253.810951 293.76 
L 253.810951 3.456 
" style="fill:none;stroke:#b0b0b0;stroke-linecap:square;stroke-width:0.8;"/>
     </g>
     <g id="line2d_60">
      <g>
       <use style="stroke:#000000;stroke-width:0.6;" x="253.810951" xlink:href="#me397177ec6" y="293.76"/>
      </g>
     </g>
    </g>
    <g id="xtick_16">
     <g id="line2d_61">
      <path clip-path="url(#p4bca857bd4)" d="M 261.024737 293.76 
L 261.024737 3.456 
" style="fill:none;stroke:#b0b0b0;stroke-linecap:square;stroke-width:0.8;"/>
     </g>
     <g id="line2d_62">
      <g>
       <use style="stroke:#000000;stroke-width:0.6;" x="261.024737" xlink:href="#me397177ec6" y="293.76"/>
      </g>
     </g>
    </g>
    <g id="xtick_17">
     <g id="line2d_63">
      <path clip-path="url(#p4bca857bd4)" d="M 267.273602 293.76 
L 267.273602 3.456 
" style="fill:none;stroke:#b0b0b0;stroke-linecap:square;stroke-width:0.8;"/>
     </g>
     <g id="line2d_64">
      <g>
       <use style="stroke:#000000;stroke-width:0.6;" x="267.273602" xlink:href="#me397177ec6" y="293.76"/>
      </g>
     </g>
    </g>
    <g id="xtick_18">
     <g id="line2d_65">
      <path clip-path="url(#p4bca857bd4)" d="M 272.785492 293.76 
L 272.785492 3.456 
" style="fill:none;stroke:#b0b0b0;stroke-linecap:square;stroke-width:0.8;"/>
     </g>
     <g id="line2d_66">
      <g>
       <use style="stroke:#000000;stroke-width:0.6;" x="272.785492" xlink:href="#me397177ec6" y="293.76"/>
      </g>
     </g>
    </g>
    <g id="xtick_19">
     <g id="line2d_67">
      <path clip-path="url(#p4bca857bd4)" d="M 310.153239 293.76 
L 310.153239 3.456 
" style="fill:none;stroke:#b0b0b0;stroke-linecap:square;stroke-width:0.8;"/>
     </g>
     <g id="line2d_68">
      <g>
       <use style="stroke:#000000;stroke-width:0.6;" x="310.153239" xlink:href="#me397177ec6" y="293.76"/>
      </g>
     </g>
    </g>
    <g id="xtick_20">
     <g id="line2d_69">
      <path clip-path="url(#p4bca857bd4)" d="M 329.12778 293.76 
L 329.12778 3.456 
" style="fill:none;stroke:#b0b0b0;stroke-linecap:square;stroke-width:0.8;"/>
     </g>
     <g id="line2d_70">
      <g>
       <use style="stroke:#000000;stroke-width:0.6;" x="329.12778" xlink:href="#me397177ec6" y="293.76"/>
      </g>
     </g>
    </g>
    <g id="xtick_21">
     <g id="line2d_71">
      <path clip-path="url(#p4bca857bd4)" d="M 342.590432 293.76 
L 342.590432 3.456 
" style="fill:none;stroke:#b0b0b0;stroke-linecap:square;stroke-width:0.8;"/>
     </g>
     <g id="line2d_72">
      <g>
       <use style="stroke:#000000;stroke-width:0.6;" x="342.590432" xlink:href="#me397177ec6" y="293.76"/>
      </g>
     </g>
    </g>
    <g id="xtick_22">
     <g id="line2d_73">
      <path clip-path="url(#p4bca857bd4)" d="M 353.032876 293.76 
L 353.032876 3.456 
" style="fill:none;stroke:#b0b0b0;stroke-linecap:square;stroke-width:0.8;"/>
     </g>
     <g id="line2d_74">
      <g>
       <use style="stroke:#000000;stroke-width:0.6;" x="353.032876" xlink:href="#me397177ec6" y="293.76"/>
      </g>
     </g>
    </g>
    <g id="xtick_23">
     <g id="line2d_75">
      <path clip-path="url(#p4bca857bd4)" d="M 361.564974 293.76 
L 361.564974 3.456 
" style="fill:none;stroke:#b0b0b0;stroke-linecap:square;stroke-width:0.8;"/>
     </g>
     <g id="line2d_76">
      <g>
       <use style="stroke:#000000;stroke-width:0.6;" x="361.564974" xlink:href="#me397177ec6" y="293.76"/>
      </g>
     </g>
    </g>
    <g id="xtick_24">
     <g id="line2d_77">
      <path clip-path="url(#p4bca857bd4)" d="M 368.778759 293.76 
L 368.778759 3.456 
" style="fill:none;stroke:#b0b0b0;stroke-linecap:square;stroke-width:0.8;"/>
     </g>
     <g id="line2d_78">
      <g>
       <use style="stroke:#000000;stroke-width:0.6;" x="368.778759" xlink:href="#me397177ec6" y="293.76"/>
      </g>
     </g>
    </g>
    <g id="xtick_25">
     <g id="line2d_79">
      <path clip-path="url(#p4bca857bd4)" d="M 375.027625 293.76 
L 375.027625 3.456 
" style="fill:none;stroke:#b0b0b0;stroke-linecap:square;stroke-width:0.8;"/>
     </g>
     <g id="line2d_80">
      <g>
       <use style="stroke:#000000;stroke-width:0.6;" x="375.027625" xlink:href="#me397177ec6" y="293.76"/>
      </g>
     </g>
    </g>
    <g id="xtick_26">
     <g id="line2d_81">
      <path clip-path="url(#p4bca857bd4)" d="M 380.539515 293.76 
L 380.539515 3.456 
" style="fill:none;stroke:#b0b0b0;stroke-linecap:square;stroke-width:0.8;"/>
     </g>
     <g id="line2d_82">
      <g>
       <use style="stroke:#000000;stroke-width:0.6;" x="380.539515" xlink:href="#me397177ec6" y="293.76"/>
      </g>
     </g>
    </g>
    <g id="xtick_27">
     <g id="line2d_83">
      <path clip-path="url(#p4bca857bd4)" d="M 417.907262 293.76 
L 417.907262 3.456 
" style="fill:none;stroke:#b0b0b0;stroke-linecap:square;stroke-width:0.8;"/>
     </g>
     <g id="line2d_84">
      <g>
       <use style="stroke:#000000;stroke-width:0.6;" x="417.907262" xlink:href="#me397177ec6" y="293.76"/>
      </g>
     </g>
    </g>
    <g id="xtick_28">
     <g id="line2d_85">
      <path clip-path="url(#p4bca857bd4)" d="M 436.881803 293.76 
L 436.881803 3.456 
" style="fill:none;stroke:#b0b0b0;stroke-linecap:square;stroke-width:0.8;"/>
     </g>
     <g id="line2d_86">
      <g>
       <use style="stroke:#000000;stroke-width:0.6;" x="436.881803" xlink:href="#me397177ec6" y="293.76"/>
      </g>
     </g>
    </g>
    <g id="xtick_29">
     <g id="line2d_87">
      <path clip-path="url(#p4bca857bd4)" d="M 450.344455 293.76 
L 450.344455 3.456 
" style="fill:none;stroke:#b0b0b0;stroke-linecap:square;stroke-width:0.8;"/>
     </g>
     <g id="line2d_88">
      <g>
       <use style="stroke:#000000;stroke-width:0.6;" x="450.344455" xlink:href="#me397177ec6" y="293.76"/>
      </g>
     </g>
    </g>
    <g id="xtick_30">
     <g id="line2d_89">
      <path clip-path="url(#p4bca857bd4)" d="M 460.786899 293.76 
L 460.786899 3.456 
" style="fill:none;stroke:#b0b0b0;stroke-linecap:square;stroke-width:0.8;"/>
     </g>
     <g id="line2d_90">
      <g>
       <use style="stroke:#000000;stroke-width:0.6;" x="460.786899" xlink:href="#me397177ec6" y="293.76"/>
      </g>
     </g>
    </g>
    <g id="text_3">
     <!-- log10 of FEvals / DIM -->
     <g transform="translate(156.430563 339.313125)scale(0.2 -0.2)">
      <defs>
       <path d="M 9.421875 75.984375 
L 18.40625 75.984375 
L 18.40625 0 
L 9.421875 0 
z
" id="DejaVuSans-108"/>
       <path d="M 30.609375 48.390625 
Q 23.390625 48.390625 19.1875 42.75 
Q 14.984375 37.109375 14.984375 27.296875 
Q 14.984375 17.484375 19.15625 11.84375 
Q 23.34375 6.203125 30.609375 6.203125 
Q 37.796875 6.203125 41.984375 11.859375 
Q 46.1875 17.53125 46.1875 27.296875 
Q 46.1875 37.015625 41.984375 42.703125 
Q 37.796875 48.390625 30.609375 48.390625 
z
M 30.609375 56 
Q 42.328125 56 49.015625 48.375 
Q 55.71875 40.765625 55.71875 27.296875 
Q 55.71875 13.875 49.015625 6.21875 
Q 42.328125 -1.421875 30.609375 -1.421875 
Q 18.84375 -1.421875 12.171875 6.21875 
Q 5.515625 13.875 5.515625 27.296875 
Q 5.515625 40.765625 12.171875 48.375 
Q 18.84375 56 30.609375 56 
z
" id="DejaVuSans-111"/>
       <path d="M 45.40625 27.984375 
Q 45.40625 37.75 41.375 43.109375 
Q 37.359375 48.484375 30.078125 48.484375 
Q 22.859375 48.484375 18.828125 43.109375 
Q 14.796875 37.75 14.796875 27.984375 
Q 14.796875 18.265625 18.828125 12.890625 
Q 22.859375 7.515625 30.078125 7.515625 
Q 37.359375 7.515625 41.375 12.890625 
Q 45.40625 18.265625 45.40625 27.984375 
z
M 54.390625 6.78125 
Q 54.390625 -7.171875 48.1875 -13.984375 
Q 42 -20.796875 29.203125 -20.796875 
Q 24.46875 -20.796875 20.265625 -20.09375 
Q 16.0625 -19.390625 12.109375 -17.921875 
L 12.109375 -9.1875 
Q 16.0625 -11.328125 19.921875 -12.34375 
Q 23.78125 -13.375 27.78125 -13.375 
Q 36.625 -13.375 41.015625 -8.765625 
Q 45.40625 -4.15625 45.40625 5.171875 
L 45.40625 9.625 
Q 42.625 4.78125 38.28125 2.390625 
Q 33.9375 0 27.875 0 
Q 17.828125 0 11.671875 7.65625 
Q 5.515625 15.328125 5.515625 27.984375 
Q 5.515625 40.671875 11.671875 48.328125 
Q 17.828125 56 27.875 56 
Q 33.9375 56 38.28125 53.609375 
Q 42.625 51.21875 45.40625 46.390625 
L 45.40625 54.6875 
L 54.390625 54.6875 
z
" id="DejaVuSans-103"/>
       <path d="M 12.40625 8.296875 
L 28.515625 8.296875 
L 28.515625 63.921875 
L 10.984375 60.40625 
L 10.984375 69.390625 
L 28.421875 72.90625 
L 38.28125 72.90625 
L 38.28125 8.296875 
L 54.390625 8.296875 
L 54.390625 0 
L 12.40625 0 
z
" id="DejaVuSans-49"/>
       <path id="DejaVuSans-32"/>
       <path d="M 37.109375 75.984375 
L 37.109375 68.5 
L 28.515625 68.5 
Q 23.6875 68.5 21.796875 66.546875 
Q 19.921875 64.59375 19.921875 59.515625 
L 19.921875 54.6875 
L 34.71875 54.6875 
L 34.71875 47.703125 
L 19.921875 47.703125 
L 19.921875 0 
L 10.890625 0 
L 10.890625 47.703125 
L 2.296875 47.703125 
L 2.296875 54.6875 
L 10.890625 54.6875 
L 10.890625 58.5 
Q 10.890625 67.625 15.140625 71.796875 
Q 19.390625 75.984375 28.609375 75.984375 
z
" id="DejaVuSans-102"/>
       <path d="M 9.8125 72.90625 
L 51.703125 72.90625 
L 51.703125 64.59375 
L 19.671875 64.59375 
L 19.671875 43.109375 
L 48.578125 43.109375 
L 48.578125 34.8125 
L 19.671875 34.8125 
L 19.671875 0 
L 9.8125 0 
z
" id="DejaVuSans-70"/>
       <path d="M 9.8125 72.90625 
L 55.90625 72.90625 
L 55.90625 64.59375 
L 19.671875 64.59375 
L 19.671875 43.015625 
L 54.390625 43.015625 
L 54.390625 34.71875 
L 19.671875 34.71875 
L 19.671875 8.296875 
L 56.78125 8.296875 
L 56.78125 0 
L 9.8125 0 
z
" id="DejaVuSans-69"/>
       <path d="M 2.984375 54.6875 
L 12.5 54.6875 
L 29.59375 8.796875 
L 46.6875 54.6875 
L 56.203125 54.6875 
L 35.6875 0 
L 23.484375 0 
z
" id="DejaVuSans-118"/>
       <path d="M 34.28125 27.484375 
Q 23.390625 27.484375 19.1875 25 
Q 14.984375 22.515625 14.984375 16.5 
Q 14.984375 11.71875 18.140625 8.90625 
Q 21.296875 6.109375 26.703125 6.109375 
Q 34.1875 6.109375 38.703125 11.40625 
Q 43.21875 16.703125 43.21875 25.484375 
L 43.21875 27.484375 
z
M 52.203125 31.203125 
L 52.203125 0 
L 43.21875 0 
L 43.21875 8.296875 
Q 40.140625 3.328125 35.546875 0.953125 
Q 30.953125 -1.421875 24.3125 -1.421875 
Q 15.921875 -1.421875 10.953125 3.296875 
Q 6 8.015625 6 15.921875 
Q 6 25.140625 12.171875 29.828125 
Q 18.359375 34.515625 30.609375 34.515625 
L 43.21875 34.515625 
L 43.21875 35.40625 
Q 43.21875 41.609375 39.140625 45 
Q 35.0625 48.390625 27.6875 48.390625 
Q 23 48.390625 18.546875 47.265625 
Q 14.109375 46.140625 10.015625 43.890625 
L 10.015625 52.203125 
Q 14.9375 54.109375 19.578125 55.046875 
Q 24.21875 56 28.609375 56 
Q 40.484375 56 46.34375 49.84375 
Q 52.203125 43.703125 52.203125 31.203125 
z
" id="DejaVuSans-97"/>
       <path d="M 44.28125 53.078125 
L 44.28125 44.578125 
Q 40.484375 46.53125 36.375 47.5 
Q 32.28125 48.484375 27.875 48.484375 
Q 21.1875 48.484375 17.84375 46.4375 
Q 14.5 44.390625 14.5 40.28125 
Q 14.5 37.15625 16.890625 35.375 
Q 19.28125 33.59375 26.515625 31.984375 
L 29.59375 31.296875 
Q 39.15625 29.25 43.1875 25.515625 
Q 47.21875 21.78125 47.21875 15.09375 
Q 47.21875 7.46875 41.1875 3.015625 
Q 35.15625 -1.421875 24.609375 -1.421875 
Q 20.21875 -1.421875 15.453125 -0.5625 
Q 10.6875 0.296875 5.421875 2 
L 5.421875 11.28125 
Q 10.40625 8.6875 15.234375 7.390625 
Q 20.0625 6.109375 24.8125 6.109375 
Q 31.15625 6.109375 34.5625 8.28125 
Q 37.984375 10.453125 37.984375 14.40625 
Q 37.984375 18.0625 35.515625 20.015625 
Q 33.0625 21.96875 24.703125 23.78125 
L 21.578125 24.515625 
Q 13.234375 26.265625 9.515625 29.90625 
Q 5.8125 33.546875 5.8125 39.890625 
Q 5.8125 47.609375 11.28125 51.796875 
Q 16.75 56 26.8125 56 
Q 31.78125 56 36.171875 55.265625 
Q 40.578125 54.546875 44.28125 53.078125 
z
" id="DejaVuSans-115"/>
       <path d="M 25.390625 72.90625 
L 33.6875 72.90625 
L 8.296875 -9.28125 
L 0 -9.28125 
z
" id="DejaVuSans-47"/>
       <path d="M 19.671875 64.796875 
L 19.671875 8.109375 
L 31.59375 8.109375 
Q 46.6875 8.109375 53.6875 14.9375 
Q 60.6875 21.78125 60.6875 36.53125 
Q 60.6875 51.171875 53.6875 57.984375 
Q 46.6875 64.796875 31.59375 64.796875 
z
M 9.8125 72.90625 
L 30.078125 72.90625 
Q 51.265625 72.90625 61.171875 64.09375 
Q 71.09375 55.28125 71.09375 36.53125 
Q 71.09375 17.671875 61.125 8.828125 
Q 51.171875 0 30.078125 0 
L 9.8125 0 
z
" id="DejaVuSans-68"/>
       <path d="M 9.8125 72.90625 
L 19.671875 72.90625 
L 19.671875 0 
L 9.8125 0 
z
" id="DejaVuSans-73"/>
       <path d="M 9.8125 72.90625 
L 24.515625 72.90625 
L 43.109375 23.296875 
L 61.8125 72.90625 
L 76.515625 72.90625 
L 76.515625 0 
L 66.890625 0 
L 66.890625 64.015625 
L 48.09375 14.015625 
L 38.1875 14.015625 
L 19.390625 64.015625 
L 19.390625 0 
L 9.8125 0 
z
" id="DejaVuSans-77"/>
      </defs>
      <use xlink:href="#DejaVuSans-108"/>
      <use x="27.783203" xlink:href="#DejaVuSans-111"/>
      <use x="88.964844" xlink:href="#DejaVuSans-103"/>
      <use x="152.441406" xlink:href="#DejaVuSans-49"/>
      <use x="216.064453" xlink:href="#DejaVuSans-48"/>
      <use x="279.6875" xlink:href="#DejaVuSans-32"/>
      <use x="311.474609" xlink:href="#DejaVuSans-111"/>
      <use x="372.65625" xlink:href="#DejaVuSans-102"/>
      <use x="407.861328" xlink:href="#DejaVuSans-32"/>
      <use x="439.648438" xlink:href="#DejaVuSans-70"/>
      <use x="497.167969" xlink:href="#DejaVuSans-69"/>
      <use x="560.351562" xlink:href="#DejaVuSans-118"/>
      <use x="619.53125" xlink:href="#DejaVuSans-97"/>
      <use x="680.810547" xlink:href="#DejaVuSans-108"/>
      <use x="708.59375" xlink:href="#DejaVuSans-115"/>
      <use x="760.693359" xlink:href="#DejaVuSans-32"/>
      <use x="792.480469" xlink:href="#DejaVuSans-47"/>
      <use x="826.171875" xlink:href="#DejaVuSans-32"/>
      <use x="857.958984" xlink:href="#DejaVuSans-68"/>
      <use x="934.960938" xlink:href="#DejaVuSans-73"/>
      <use x="964.453125" xlink:href="#DejaVuSans-77"/>
     </g>
    </g>
   </g>
   <g id="matplotlib.axis_2">
    <g id="ytick_1">
     <g id="line2d_91">
      <path clip-path="url(#p4bca857bd4)" d="M 62.208 293.76 
L 460.8 293.76 
" style="fill:none;stroke:#b0b0b0;stroke-linecap:square;stroke-width:0.8;"/>
     </g>
     <g id="line2d_92">
      <defs>
       <path d="M 0 0 
L -3.5 0 
" id="mf1d2879bdc" style="stroke:#000000;stroke-width:0.8;"/>
      </defs>
      <g>
       <use style="stroke:#000000;stroke-width:0.8;" x="62.208" xlink:href="#mf1d2879bdc" y="293.76"/>
      </g>
     </g>
     <g id="text_4">
      <!-- 0.0 -->
      <g transform="translate(29.763 299.83875)scale(0.16 -0.16)">
       <defs>
        <path d="M 10.6875 12.40625 
L 21 12.40625 
L 21 0 
L 10.6875 0 
z
" id="DejaVuSans-46"/>
       </defs>
       <use xlink:href="#DejaVuSans-48"/>
       <use x="63.623047" xlink:href="#DejaVuSans-46"/>
       <use x="95.410156" xlink:href="#DejaVuSans-48"/>
      </g>
     </g>
    </g>
    <g id="ytick_2">
     <g id="line2d_93">
      <path clip-path="url(#p4bca857bd4)" d="M 62.208 236.274059 
L 460.8 236.274059 
" style="fill:none;stroke:#b0b0b0;stroke-linecap:square;stroke-width:0.8;"/>
     </g>
     <g id="line2d_94">
      <g>
       <use style="stroke:#000000;stroke-width:0.8;" x="62.208" xlink:href="#mf1d2879bdc" y="236.274059"/>
      </g>
     </g>
     <g id="text_5">
      <!-- 0.2 -->
      <g transform="translate(29.763 242.352809)scale(0.16 -0.16)">
       <use xlink:href="#DejaVuSans-48"/>
       <use x="63.623047" xlink:href="#DejaVuSans-46"/>
       <use x="95.410156" xlink:href="#DejaVuSans-50"/>
      </g>
     </g>
    </g>
    <g id="ytick_3">
     <g id="line2d_95">
      <path clip-path="url(#p4bca857bd4)" d="M 62.208 178.788119 
L 460.8 178.788119 
" style="fill:none;stroke:#b0b0b0;stroke-linecap:square;stroke-width:0.8;"/>
     </g>
     <g id="line2d_96">
      <g>
       <use style="stroke:#000000;stroke-width:0.8;" x="62.208" xlink:href="#mf1d2879bdc" y="178.788119"/>
      </g>
     </g>
     <g id="text_6">
      <!-- 0.4 -->
      <g transform="translate(29.763 184.866869)scale(0.16 -0.16)">
       <defs>
        <path d="M 37.796875 64.3125 
L 12.890625 25.390625 
L 37.796875 25.390625 
z
M 35.203125 72.90625 
L 47.609375 72.90625 
L 47.609375 25.390625 
L 58.015625 25.390625 
L 58.015625 17.1875 
L 47.609375 17.1875 
L 47.609375 0 
L 37.796875 0 
L 37.796875 17.1875 
L 4.890625 17.1875 
L 4.890625 26.703125 
z
" id="DejaVuSans-52"/>
       </defs>
       <use xlink:href="#DejaVuSans-48"/>
       <use x="63.623047" xlink:href="#DejaVuSans-46"/>
       <use x="95.410156" xlink:href="#DejaVuSans-52"/>
      </g>
     </g>
    </g>
    <g id="ytick_4">
     <g id="line2d_97">
      <path clip-path="url(#p4bca857bd4)" d="M 62.208 121.302178 
L 460.8 121.302178 
" style="fill:none;stroke:#b0b0b0;stroke-linecap:square;stroke-width:0.8;"/>
     </g>
     <g id="line2d_98">
      <g>
       <use style="stroke:#000000;stroke-width:0.8;" x="62.208" xlink:href="#mf1d2879bdc" y="121.302178"/>
      </g>
     </g>
     <g id="text_7">
      <!-- 0.6 -->
      <g transform="translate(29.763 127.380928)scale(0.16 -0.16)">
       <defs>
        <path d="M 33.015625 40.375 
Q 26.375 40.375 22.484375 35.828125 
Q 18.609375 31.296875 18.609375 23.390625 
Q 18.609375 15.53125 22.484375 10.953125 
Q 26.375 6.390625 33.015625 6.390625 
Q 39.65625 6.390625 43.53125 10.953125 
Q 47.40625 15.53125 47.40625 23.390625 
Q 47.40625 31.296875 43.53125 35.828125 
Q 39.65625 40.375 33.015625 40.375 
z
M 52.59375 71.296875 
L 52.59375 62.3125 
Q 48.875 64.0625 45.09375 64.984375 
Q 41.3125 65.921875 37.59375 65.921875 
Q 27.828125 65.921875 22.671875 59.328125 
Q 17.53125 52.734375 16.796875 39.40625 
Q 19.671875 43.65625 24.015625 45.921875 
Q 28.375 48.1875 33.59375 48.1875 
Q 44.578125 48.1875 50.953125 41.515625 
Q 57.328125 34.859375 57.328125 23.390625 
Q 57.328125 12.15625 50.6875 5.359375 
Q 44.046875 -1.421875 33.015625 -1.421875 
Q 20.359375 -1.421875 13.671875 8.265625 
Q 6.984375 17.96875 6.984375 36.375 
Q 6.984375 53.65625 15.1875 63.9375 
Q 23.390625 74.21875 37.203125 74.21875 
Q 40.921875 74.21875 44.703125 73.484375 
Q 48.484375 72.75 52.59375 71.296875 
z
" id="DejaVuSans-54"/>
       </defs>
       <use xlink:href="#DejaVuSans-48"/>
       <use x="63.623047" xlink:href="#DejaVuSans-46"/>
       <use x="95.410156" xlink:href="#DejaVuSans-54"/>
      </g>
     </g>
    </g>
    <g id="ytick_5">
     <g id="line2d_99">
      <path clip-path="url(#p4bca857bd4)" d="M 62.208 63.816238 
L 460.8 63.816238 
" style="fill:none;stroke:#b0b0b0;stroke-linecap:square;stroke-width:0.8;"/>
     </g>
     <g id="line2d_100">
      <g>
       <use style="stroke:#000000;stroke-width:0.8;" x="62.208" xlink:href="#mf1d2879bdc" y="63.816238"/>
      </g>
     </g>
     <g id="text_8">
      <!-- 0.8 -->
      <g transform="translate(29.763 69.894988)scale(0.16 -0.16)">
       <defs>
        <path d="M 31.78125 34.625 
Q 24.75 34.625 20.71875 30.859375 
Q 16.703125 27.09375 16.703125 20.515625 
Q 16.703125 13.921875 20.71875 10.15625 
Q 24.75 6.390625 31.78125 6.390625 
Q 38.8125 6.390625 42.859375 10.171875 
Q 46.921875 13.96875 46.921875 20.515625 
Q 46.921875 27.09375 42.890625 30.859375 
Q 38.875 34.625 31.78125 34.625 
z
M 21.921875 38.8125 
Q 15.578125 40.375 12.03125 44.71875 
Q 8.5 49.078125 8.5 55.328125 
Q 8.5 64.0625 14.71875 69.140625 
Q 20.953125 74.21875 31.78125 74.21875 
Q 42.671875 74.21875 48.875 69.140625 
Q 55.078125 64.0625 55.078125 55.328125 
Q 55.078125 49.078125 51.53125 44.71875 
Q 48 40.375 41.703125 38.8125 
Q 48.828125 37.15625 52.796875 32.3125 
Q 56.78125 27.484375 56.78125 20.515625 
Q 56.78125 9.90625 50.3125 4.234375 
Q 43.84375 -1.421875 31.78125 -1.421875 
Q 19.734375 -1.421875 13.25 4.234375 
Q 6.78125 9.90625 6.78125 20.515625 
Q 6.78125 27.484375 10.78125 32.3125 
Q 14.796875 37.15625 21.921875 38.8125 
z
M 18.3125 54.390625 
Q 18.3125 48.734375 21.84375 45.5625 
Q 25.390625 42.390625 31.78125 42.390625 
Q 38.140625 42.390625 41.71875 45.5625 
Q 45.3125 48.734375 45.3125 54.390625 
Q 45.3125 60.0625 41.71875 63.234375 
Q 38.140625 66.40625 31.78125 66.40625 
Q 25.390625 66.40625 21.84375 63.234375 
Q 18.3125 60.0625 18.3125 54.390625 
z
" id="DejaVuSans-56"/>
       </defs>
       <use xlink:href="#DejaVuSans-48"/>
       <use x="63.623047" xlink:href="#DejaVuSans-46"/>
       <use x="95.410156" xlink:href="#DejaVuSans-56"/>
      </g>
     </g>
    </g>
    <g id="ytick_6">
     <g id="line2d_101">
      <path clip-path="url(#p4bca857bd4)" d="M 62.208 6.330297 
L 460.8 6.330297 
" style="fill:none;stroke:#b0b0b0;stroke-linecap:square;stroke-width:0.8;"/>
     </g>
     <g id="line2d_102">
      <g>
       <use style="stroke:#000000;stroke-width:0.8;" x="62.208" xlink:href="#mf1d2879bdc" y="6.330297"/>
      </g>
     </g>
     <g id="text_9">
      <!-- 1.0 -->
      <g transform="translate(29.763 12.409047)scale(0.16 -0.16)">
       <use xlink:href="#DejaVuSans-49"/>
       <use x="63.623047" xlink:href="#DejaVuSans-46"/>
       <use x="95.410156" xlink:href="#DejaVuSans-48"/>
      </g>
     </g>
    </g>
    <g id="text_10">
     <!-- proportion of trials -->
     <g transform="translate(21.603625 241.61425)rotate(-90)scale(0.2 -0.2)">
      <defs>
       <path d="M 18.109375 8.203125 
L 18.109375 -20.796875 
L 9.078125 -20.796875 
L 9.078125 54.6875 
L 18.109375 54.6875 
L 18.109375 46.390625 
Q 20.953125 51.265625 25.265625 53.625 
Q 29.59375 56 35.59375 56 
Q 45.5625 56 51.78125 48.09375 
Q 58.015625 40.1875 58.015625 27.296875 
Q 58.015625 14.40625 51.78125 6.484375 
Q 45.5625 -1.421875 35.59375 -1.421875 
Q 29.59375 -1.421875 25.265625 0.953125 
Q 20.953125 3.328125 18.109375 8.203125 
z
M 48.6875 27.296875 
Q 48.6875 37.203125 44.609375 42.84375 
Q 40.53125 48.484375 33.40625 48.484375 
Q 26.265625 48.484375 22.1875 42.84375 
Q 18.109375 37.203125 18.109375 27.296875 
Q 18.109375 17.390625 22.1875 11.75 
Q 26.265625 6.109375 33.40625 6.109375 
Q 40.53125 6.109375 44.609375 11.75 
Q 48.6875 17.390625 48.6875 27.296875 
z
" id="DejaVuSans-112"/>
       <path d="M 41.109375 46.296875 
Q 39.59375 47.171875 37.8125 47.578125 
Q 36.03125 48 33.890625 48 
Q 26.265625 48 22.1875 43.046875 
Q 18.109375 38.09375 18.109375 28.8125 
L 18.109375 0 
L 9.078125 0 
L 9.078125 54.6875 
L 18.109375 54.6875 
L 18.109375 46.1875 
Q 20.953125 51.171875 25.484375 53.578125 
Q 30.03125 56 36.53125 56 
Q 37.453125 56 38.578125 55.875 
Q 39.703125 55.765625 41.0625 55.515625 
z
" id="DejaVuSans-114"/>
       <path d="M 18.3125 70.21875 
L 18.3125 54.6875 
L 36.8125 54.6875 
L 36.8125 47.703125 
L 18.3125 47.703125 
L 18.3125 18.015625 
Q 18.3125 11.328125 20.140625 9.421875 
Q 21.96875 7.515625 27.59375 7.515625 
L 36.8125 7.515625 
L 36.8125 0 
L 27.59375 0 
Q 17.1875 0 13.234375 3.875 
Q 9.28125 7.765625 9.28125 18.015625 
L 9.28125 47.703125 
L 2.6875 47.703125 
L 2.6875 54.6875 
L 9.28125 54.6875 
L 9.28125 70.21875 
z
" id="DejaVuSans-116"/>
       <path d="M 9.421875 54.6875 
L 18.40625 54.6875 
L 18.40625 0 
L 9.421875 0 
z
M 9.421875 75.984375 
L 18.40625 75.984375 
L 18.40625 64.59375 
L 9.421875 64.59375 
z
" id="DejaVuSans-105"/>
       <path d="M 54.890625 33.015625 
L 54.890625 0 
L 45.90625 0 
L 45.90625 32.71875 
Q 45.90625 40.484375 42.875 44.328125 
Q 39.84375 48.1875 33.796875 48.1875 
Q 26.515625 48.1875 22.3125 43.546875 
Q 18.109375 38.921875 18.109375 30.90625 
L 18.109375 0 
L 9.078125 0 
L 9.078125 54.6875 
L 18.109375 54.6875 
L 18.109375 46.1875 
Q 21.34375 51.125 25.703125 53.5625 
Q 30.078125 56 35.796875 56 
Q 45.21875 56 50.046875 50.171875 
Q 54.890625 44.34375 54.890625 33.015625 
z
" id="DejaVuSans-110"/>
      </defs>
      <use xlink:href="#DejaVuSans-112"/>
      <use x="63.476562" xlink:href="#DejaVuSans-114"/>
      <use x="102.339844" xlink:href="#DejaVuSans-111"/>
      <use x="163.521484" xlink:href="#DejaVuSans-112"/>
      <use x="226.998047" xlink:href="#DejaVuSans-111"/>
      <use x="288.179688" xlink:href="#DejaVuSans-114"/>
      <use x="329.292969" xlink:href="#DejaVuSans-116"/>
      <use x="368.501953" xlink:href="#DejaVuSans-105"/>
      <use x="396.285156" xlink:href="#DejaVuSans-111"/>
      <use x="457.466797" xlink:href="#DejaVuSans-110"/>
      <use x="520.845703" xlink:href="#DejaVuSans-32"/>
      <use x="552.632812" xlink:href="#DejaVuSans-111"/>
      <use x="613.814453" xlink:href="#DejaVuSans-102"/>
      <use x="649.019531" xlink:href="#DejaVuSans-32"/>
      <use x="680.806641" xlink:href="#DejaVuSans-116"/>
      <use x="720.015625" xlink:href="#DejaVuSans-114"/>
      <use x="761.128906" xlink:href="#DejaVuSans-105"/>
      <use x="788.912109" xlink:href="#DejaVuSans-97"/>
      <use x="850.191406" xlink:href="#DejaVuSans-108"/>
      <use x="877.974609" xlink:href="#DejaVuSans-115"/>
     </g>
    </g>
   </g>
   <g id="line2d_103">
    <path clip-path="url(#p4bca857bd4)" d="M -1 274.59802 
L 19.328363 274.59802 
L 19.328363 270.765624 
L 157.119208 270.765624 
L 157.119208 259.268436 
L 165.031469 259.268436 
L 165.031469 255.43604 
L 177.707598 255.43604 
L 177.707598 251.603644 
L 183.658076 251.603644 
L 183.658076 247.771248 
L 193.679555 247.771248 
L 193.679555 243.938851 
L 202.399216 243.938851 
L 202.399216 240.106455 
L 210.931314 240.106455 
L 210.931314 236.274059 
L 256.242509 236.274059 
L 256.242509 232.441663 
L 258.412774 232.441663 
L 258.412774 228.609267 
L 273.712195 228.609267 
L 273.712195 224.776871 
L 274.017063 224.776871 
L 274.017063 220.944475 
L 275.708105 220.944475 
L 275.708105 217.112079 
L 277.995989 217.112079 
L 277.995989 213.279683 
L 279.551457 213.279683 
L 279.551457 209.447287 
L 280.08833 209.447287 
L 280.08833 205.614891 
L 283.683284 205.614891 
L 283.683284 201.782495 
L 284.256482 201.782495 
L 284.256482 197.950099 
L 287.174847 197.950099 
L 287.174847 194.117703 
L 287.479714 194.117703 
L 287.479714 190.285307 
L 289.92185 190.285307 
L 289.92185 182.620515 
L 290.566348 182.620515 
L 290.566348 178.788119 
L 291.412099 178.788119 
L 291.412099 171.123327 
L 292.65274 171.123327 
L 292.65274 163.458535 
L 294.454129 163.458535 
L 294.454129 159.626139 
L 294.780241 159.626139 
L 294.780241 155.793743 
L 297.433412 155.793743 
L 297.433412 151.961347 
L 299.710795 151.961347 
L 299.710795 148.12895 
L 300.407537 148.12895 
L 300.407537 144.296554 
L 304.647198 144.296554 
L 304.647198 140.464158 
L 305.014235 140.464158 
L 305.014235 136.631762 
L 306.504874 136.631762 
L 306.504874 132.799366 
L 311.672605 132.799366 
L 311.672605 128.96697 
L 313.581139 128.96697 
L 313.581139 125.134574 
L 314.613467 125.134574 
L 314.613467 121.302178 
L 315.289248 121.302178 
L 315.289248 117.469782 
L 324.370229 117.469782 
L 324.370229 113.637386 
L 325.563659 113.637386 
L 325.563659 109.80499 
L 325.765226 109.80499 
L 325.765226 105.972594 
L 330.843045 105.972594 
L 330.843045 102.140198 
L 334.653534 102.140198 
L 334.653534 98.307802 
L 334.874797 98.307802 
L 334.874797 94.475406 
L 335.450683 94.475406 
L 335.450683 90.64301 
L 336.608217 90.64301 
L 336.608217 86.810614 
L 336.899787 86.810614 
L 336.899787 82.978218 
L 337.555769 82.978218 
L 337.555769 79.145822 
L 337.919142 79.145822 
L 337.919142 75.313426 
L 341.573323 75.313426 
L 341.573323 71.48103 
L 342.261701 71.48103 
L 342.261701 67.648634 
L 342.893628 67.648634 
L 342.893628 63.816238 
L 344.019107 63.816238 
L 344.019107 59.983842 
L 344.132444 59.983842 
L 344.132444 56.151446 
L 345.273072 56.151446 
L 345.273072 52.31905 
L 347.38977 52.31905 
L 347.49524 44.654257 
L 348.45457 44.654257 
L 348.45457 40.821861 
L 358.436488 40.821861 
L 358.436488 36.989465 
L 361.596161 36.989465 
L 361.596161 33.157069 
L 365.296329 33.157069 
L 365.296329 29.324673 
L 365.897399 29.324673 
L 365.897399 25.492277 
L 370.369261 25.492277 
L 370.369261 21.659881 
L 372.343148 21.659881 
L 372.343148 17.827485 
L 377.366535 17.827485 
L 377.366535 13.995089 
L 382.00348 13.995089 
L 382.00348 10.162693 
L 384.734282 10.162693 
L 384.734282 6.330297 
L 384.734282 6.330297 
L 460.8 6.330297 
L 460.8 6.330297 
" style="fill:none;stroke:#000000;stroke-linecap:square;stroke-width:1.5;"/>
   </g>
   <g id="line2d_104">
    <path clip-path="url(#p4bca857bd4)" style="fill:none;stroke:#000000;stroke-linecap:square;stroke-width:1.5;"/>
   </g>
   <g id="line2d_105">
    <path clip-path="url(#p4bca857bd4)" d="M 222.908222 293.76 
L 222.908222 286.095208 
L 228.319365 286.095208 
L 228.319365 282.262812 
L 239.508869 282.262812 
L 239.508869 278.430416 
L 242.779858 278.430416 
L 242.779858 274.59802 
L 243.563089 274.59802 
L 243.563089 270.765624 
L 249.225764 270.765624 
L 249.225764 266.933228 
L 260.351387 266.933228 
L 260.351387 263.100832 
L 268.543142 263.100832 
L 268.543142 259.268436 
L 269.221371 259.268436 
L 269.221371 255.43604 
L 278.088932 255.43604 
L 278.088932 251.603644 
L 280.265928 251.603644 
L 280.265928 247.771248 
L 283.102977 247.771248 
L 283.102977 243.938851 
L 287.021665 243.938851 
L 287.021665 240.106455 
L 292.448237 240.106455 
L 292.448237 236.274059 
L 293.993719 236.274059 
L 293.993719 232.441663 
L 301.994027 232.441663 
L 301.994027 228.609267 
L 306.149388 228.609267 
L 306.149388 224.776871 
L 312.123447 224.776871 
L 312.123447 220.944475 
L 331.854589 220.944475 
L 331.854589 217.112079 
L 333.786122 217.112079 
L 333.786122 213.279683 
L 335.857733 213.279683 
L 335.857733 209.447287 
L 340.777478 209.447287 
L 340.777478 205.614891 
L 341.788044 205.614891 
L 341.788044 201.782495 
L 345.118151 201.782495 
L 345.118151 197.950099 
L 348.309848 197.950099 
L 348.309848 194.117703 
L 348.763191 194.117703 
L 348.763191 190.285307 
L 348.967813 190.285307 
L 348.967813 186.452911 
L 352.656994 186.452911 
L 352.656994 182.620515 
L 354.633715 182.620515 
L 354.633715 178.788119 
L 360.010746 178.788119 
L 360.010746 174.955723 
L 360.810167 174.955723 
L 360.810167 171.123327 
L 361.844916 171.123327 
L 361.844916 167.290931 
L 363.520223 167.290931 
L 363.520223 163.458535 
L 365.655038 163.458535 
L 365.712177 155.793743 
L 368.078273 155.793743 
L 368.078273 151.961347 
L 372.503942 151.961347 
L 372.602617 144.296554 
L 373.214671 144.296554 
L 373.214671 140.464158 
L 373.566029 140.464158 
L 373.566029 136.631762 
L 374.165691 136.631762 
L 374.165691 132.799366 
L 375.097768 132.799366 
L 375.179469 125.134574 
L 375.562719 125.134574 
L 375.562719 121.302178 
L 376.64881 121.302178 
L 376.64881 117.469782 
L 377.809586 117.469782 
L 377.809586 113.637386 
L 378.59666 113.637386 
L 378.59666 109.80499 
L 378.92074 109.80499 
L 378.92074 105.972594 
L 380.351952 105.972594 
L 380.351952 102.140198 
L 382.9118 102.140198 
L 382.9118 98.307802 
L 384.03502 98.307802 
L 384.03502 94.475406 
L 385.479427 94.475406 
L 385.479427 90.64301 
L 386.000536 90.64301 
L 386.000536 86.810614 
L 388.373138 86.810614 
L 388.469798 79.145822 
L 390.998595 79.145822 
L 390.998595 75.313426 
L 391.197767 75.313426 
L 391.197767 71.48103 
L 392.80937 71.48103 
L 392.80937 67.648634 
L 396.949197 67.648634 
L 396.949197 63.816238 
L 397.182963 63.816238 
L 397.182963 59.983842 
L 401.175824 59.983842 
L 401.175824 56.151446 
L 402.247405 56.151446 
L 402.247405 52.31905 
L 404.44461 52.31905 
L 404.44461 48.486653 
L 404.928786 48.486653 
L 404.928786 44.654257 
L 416.732063 44.654257 
L 416.732063 40.821861 
L 419.801132 40.821861 
L 419.801132 36.989465 
L 422.753036 36.989465 
L 422.753036 33.157069 
L 424.284643 33.157069 
L 424.284643 29.324673 
L 425.43819 29.324673 
L 425.43819 25.492277 
L 427.381353 25.492277 
L 427.381353 21.659881 
L 430.069782 21.659881 
L 430.069782 17.827485 
L 440.711 17.827485 
L 440.711 13.995089 
L 440.711 13.995089 
L 460.8 13.995089 
L 460.8 13.995089 
" style="fill:none;stroke:#00bfbf;stroke-linecap:square;stroke-width:1.5;"/>
   </g>
   <g id="line2d_106">
    <path clip-path="url(#p4bca857bd4)" style="fill:none;stroke:#00bfbf;stroke-linecap:square;stroke-width:1.5;"/>
   </g>
   <g id="line2d_107">
    <path clip-path="url(#p4bca857bd4)" d="M 304.436163 293.76 
L 304.436163 289.927604 
L 311.672605 289.927604 
L 311.672605 286.095208 
L 312.078558 286.095208 
L 312.078558 282.262812 
L 317.938456 282.262812 
L 317.938456 278.430416 
L 318.802183 278.430416 
L 318.802183 274.59802 
L 324.645708 274.59802 
L 324.645708 270.765624 
L 325.765226 270.765624 
L 325.765226 266.933228 
L 327.02204 266.933228 
L 327.02204 263.100832 
L 332.060162 263.100832 
L 332.060162 259.268436 
L 335.58676 259.268436 
L 335.58676 255.43604 
L 338.382227 255.43604 
L 338.382227 251.603644 
L 340.435715 251.603644 
L 340.435715 247.771248 
L 342.332338 247.771248 
L 342.332338 243.938851 
L 346.922858 243.938851 
L 346.922858 240.106455 
L 350.652204 240.106455 
L 350.652204 236.274059 
L 352.656994 236.274059 
L 352.656994 232.441663 
L 352.864103 232.441663 
L 352.864103 228.609267 
L 358.068137 228.609267 
L 358.068137 224.776871 
L 358.967147 224.776871 
L 358.967147 220.944475 
L 364.716613 220.944475 
L 364.716613 217.112079 
L 366.293866 217.112079 
L 366.293866 213.279683 
L 366.784773 213.279683 
L 366.784773 209.447287 
L 366.993595 209.447287 
L 366.993595 205.614891 
L 370.433835 205.614891 
L 370.433835 201.782495 
L 372.194232 201.782495 
L 372.194232 197.950099 
L 373.974634 197.950099 
L 373.974634 194.117703 
L 376.580956 194.117703 
L 376.580956 190.285307 
L 376.761683 190.285307 
L 376.761683 186.452911 
L 377.919697 186.452911 
L 377.919697 182.620515 
L 378.368461 182.620515 
L 378.412013 174.955723 
L 379.445291 174.955723 
L 379.445291 171.123327 
L 380.06919 171.123327 
L 380.06919 167.290931 
L 380.664141 167.290931 
L 380.664141 163.458535 
L 381.087459 163.458535 
L 381.087459 159.626139 
L 381.669684 159.626139 
L 381.669684 155.793743 
L 382.194591 155.793743 
L 382.194591 151.961347 
L 386.671242 151.961347 
L 386.671242 148.12895 
L 387.637279 148.12895 
L 387.637279 144.296554 
L 388.108498 144.296554 
L 388.205706 132.799366 
L 388.548736 132.799366 
L 388.548736 128.96697 
L 388.714947 128.96697 
L 388.714947 125.134574 
L 389.434181 125.134574 
L 389.434181 121.302178 
L 390.848658 121.302178 
L 390.848658 117.469782 
L 391.716594 117.469782 
L 391.716594 113.637386 
L 392.849357 113.637386 
L 392.849357 109.80499 
L 393.657724 109.80499 
L 393.657724 105.972594 
L 394.243329 105.972594 
L 394.243329 102.140198 
L 394.375053 102.140198 
L 394.375053 98.307802 
L 395.596975 98.307802 
L 395.596975 94.475406 
L 396.292826 94.475406 
L 396.292826 90.64301 
L 400.853548 90.64301 
L 400.853548 86.810614 
L 403.231006 86.810614 
L 403.231006 82.978218 
L 403.721499 82.978218 
L 403.721499 79.145822 
L 406.501482 79.145822 
L 406.501482 75.313426 
L 410.455769 75.313426 
L 410.455769 71.48103 
L 410.919893 71.48103 
L 410.919893 67.648634 
L 414.596638 67.648634 
L 414.596638 63.816238 
L 416.44808 63.816238 
L 416.44808 59.983842 
L 416.885371 59.983842 
L 416.885371 56.151446 
L 418.86607 56.151446 
L 418.86607 52.31905 
L 423.787911 52.31905 
L 423.787911 48.486653 
L 426.703794 48.486653 
L 426.703794 44.654257 
L 430.192315 44.654257 
L 430.23189 36.989465 
L 435.433885 36.989465 
L 435.433885 33.157069 
L 440.021775 33.157069 
L 440.021775 29.324673 
L 441.832943 29.324673 
L 441.832943 25.492277 
L 447.29179 25.492277 
L 447.29179 21.659881 
L 454.000131 21.659881 
L 454.000131 17.827485 
L 454.000131 17.827485 
L 460.8 17.827485 
L 460.8 17.827485 
" style="fill:none;stroke:#bf00bf;stroke-linecap:square;stroke-width:1.5;"/>
   </g>
   <g id="line2d_108">
    <path clip-path="url(#p4bca857bd4)" style="fill:none;stroke:#bf00bf;stroke-linecap:square;stroke-width:1.5;"/>
   </g>
   <g id="line2d_109">
    <path clip-path="url(#p4bca857bd4)" d="M 353.665026 293.76 
L 353.665026 289.927604 
L 357.696865 289.927604 
L 357.696865 286.095208 
L 357.950324 286.095208 
L 357.950324 282.262812 
L 358.685983 282.262812 
L 358.685983 278.430416 
L 359.930048 278.430416 
L 359.930048 274.59802 
L 362.75094 274.59802 
L 362.75094 270.765624 
L 363.189925 270.765624 
L 363.189925 266.933228 
L 364.14439 266.933228 
L 364.14439 263.100832 
L 364.555924 263.100832 
L 364.555924 259.268436 
L 364.949362 259.268436 
L 364.949362 255.43604 
L 365.253099 255.43604 
L 365.253099 251.603644 
L 366.673019 251.603644 
L 366.673019 247.771248 
L 367.792386 247.771248 
L 367.792386 243.938851 
L 368.213799 243.938851 
L 368.213799 240.106455 
L 369.587338 240.106455 
L 369.587338 236.274059 
L 371.22724 236.274059 
L 371.22724 232.441663 
L 371.555996 232.441663 
L 371.555996 228.609267 
L 371.844906 228.609267 
L 371.844906 224.776871 
L 371.994936 224.776871 
L 371.994936 220.944475 
L 374.189518 220.944475 
L 374.189518 217.112079 
L 374.379702 217.112079 
L 374.379702 213.279683 
L 375.191128 213.279683 
L 375.191128 209.447287 
L 375.330821 209.447287 
L 375.330821 205.614891 
L 376.240199 205.614891 
L 376.240199 201.782495 
L 376.952944 201.782495 
L 376.952944 197.950099 
L 378.150089 197.950099 
L 378.150089 194.117703 
L 381.087459 194.117703 
L 381.108011 186.452911 
L 382.384924 186.452911 
L 382.384924 182.620515 
L 382.544607 182.620515 
L 382.544607 178.788119 
L 382.822747 178.788119 
L 382.822747 174.955723 
L 383.295747 174.955723 
L 383.295747 171.123327 
L 383.481663 171.123327 
L 383.481663 167.290931 
L 384.22764 167.290931 
L 384.22764 163.458535 
L 385.712783 163.458535 
L 385.712783 159.626139 
L 386.81697 159.626139 
L 386.81697 155.793743 
L 391.363098 155.793743 
L 391.363098 148.12895 
L 391.519623 148.12895 
L 391.568944 140.464158 
L 392.059311 140.464158 
L 392.059311 136.631762 
L 394.212281 136.631762 
L 394.212281 132.799366 
L 396.292826 132.799366 
L 396.292826 128.96697 
L 396.728975 128.96697 
L 396.728975 125.134574 
L 397.711912 125.134574 
L 397.747923 117.469782 
L 398.327482 117.469782 
L 398.327482 113.637386 
L 399.047233 113.637386 
L 399.047233 109.80499 
L 406.899858 109.80499 
L 406.899858 105.972594 
L 411.519135 105.972594 
L 411.519135 102.140198 
L 412.862176 102.140198 
L 412.862176 98.307802 
L 413.488664 98.307802 
L 413.488664 94.475406 
L 414.742071 94.475406 
L 414.742071 90.64301 
L 415.757445 90.64301 
L 415.757445 86.810614 
L 416.708064 86.810614 
L 416.708064 82.978218 
L 418.627051 82.978218 
L 418.627051 79.145822 
L 420.065535 79.145822 
L 420.065535 75.313426 
L 421.565102 75.313426 
L 421.565102 71.48103 
L 422.795211 71.48103 
L 422.795211 67.648634 
L 427.476807 67.648634 
L 427.476807 63.816238 
L 429.250709 63.816238 
L 429.250709 59.983842 
L 429.881755 59.983842 
L 429.881755 56.151446 
L 430.920855 56.151446 
L 430.920855 52.31905 
L 434.847802 52.31905 
L 434.847802 48.486653 
L 441.858196 48.486653 
L 441.858196 44.654257 
L 444.608868 44.654257 
L 444.608868 40.821861 
L 451.525098 40.821861 
L 451.525098 36.989465 
L 455.641627 36.989465 
L 455.641627 33.157069 
L 457.659747 33.157069 
L 457.659747 29.324673 
L 457.659747 29.324673 
L 460.8 29.324673 
L 460.8 29.324673 
" style="fill:none;stroke:#ff0000;stroke-linecap:square;stroke-width:3;"/>
   </g>
   <g id="line2d_110">
    <path clip-path="url(#p4bca857bd4)" style="fill:none;stroke:#ff0000;stroke-linecap:square;stroke-width:3;"/>
   </g>
   <g id="line2d_111">
    <path clip-path="url(#p4bca857bd4)" d="M 460.8 293.76 
L 460.8 3.456 
" style="fill:none;stroke:#000000;stroke-linecap:square;stroke-width:1.5;"/>
   </g>
   <g id="patch_3">
    <path d="M 62.208 293.76 
L 62.208 3.456 
" style="fill:none;stroke:#000000;stroke-linecap:square;stroke-linejoin:miter;stroke-width:0.8;"/>
   </g>
   <g id="patch_4">
    <path d="M 460.8 293.76 
L 460.8 3.456 
" style="fill:none;stroke:#000000;stroke-linecap:square;stroke-linejoin:miter;stroke-width:0.8;"/>
   </g>
   <g id="patch_5">
    <path d="M 62.208 293.76 
L 460.8 293.76 
" style="fill:none;stroke:#000000;stroke-linecap:square;stroke-linejoin:miter;stroke-width:0.8;"/>
   </g>
   <g id="patch_6">
    <path d="M 62.208 3.456 
L 460.8 3.456 
" style="fill:none;stroke:#000000;stroke-linecap:square;stroke-linejoin:miter;stroke-width:0.8;"/>
   </g>
   <g id="text_11">
    <!-- {f10-f14}, 5-D -->
    <g transform="translate(188.654 24.458955)scale(0.2 -0.2)">
     <defs>
      <path d="M 51.125 -9.28125 
L 51.125 -16.3125 
L 48.09375 -16.3125 
Q 35.9375 -16.3125 31.8125 -12.6875 
Q 27.6875 -9.078125 27.6875 1.703125 
L 27.6875 13.375 
Q 27.6875 20.75 25.046875 23.578125 
Q 22.40625 26.421875 15.484375 26.421875 
L 12.5 26.421875 
L 12.5 33.40625 
L 15.484375 33.40625 
Q 22.46875 33.40625 25.078125 36.203125 
Q 27.6875 39.015625 27.6875 46.296875 
L 27.6875 58.015625 
Q 27.6875 68.796875 31.8125 72.390625 
Q 35.9375 75.984375 48.09375 75.984375 
L 51.125 75.984375 
L 51.125 69 
L 47.796875 69 
Q 40.921875 69 38.8125 66.84375 
Q 36.71875 64.703125 36.71875 57.8125 
L 36.71875 45.703125 
Q 36.71875 38.03125 34.5 34.5625 
Q 32.28125 31.109375 26.90625 29.890625 
Q 32.328125 28.5625 34.515625 25.09375 
Q 36.71875 21.625 36.71875 14.015625 
L 36.71875 1.90625 
Q 36.71875 -4.984375 38.8125 -7.125 
Q 40.921875 -9.28125 47.796875 -9.28125 
z
" id="DejaVuSans-123"/>
      <path d="M 4.890625 31.390625 
L 31.203125 31.390625 
L 31.203125 23.390625 
L 4.890625 23.390625 
z
" id="DejaVuSans-45"/>
      <path d="M 12.5 -9.28125 
L 15.921875 -9.28125 
Q 22.75 -9.28125 24.828125 -7.171875 
Q 26.90625 -5.078125 26.90625 1.90625 
L 26.90625 14.015625 
Q 26.90625 21.625 29.09375 25.09375 
Q 31.296875 28.5625 36.71875 29.890625 
Q 31.296875 31.109375 29.09375 34.5625 
Q 26.90625 38.03125 26.90625 45.703125 
L 26.90625 57.8125 
Q 26.90625 64.75 24.828125 66.875 
Q 22.75 69 15.921875 69 
L 12.5 69 
L 12.5 75.984375 
L 15.578125 75.984375 
Q 27.734375 75.984375 31.8125 72.390625 
Q 35.890625 68.796875 35.890625 58.015625 
L 35.890625 46.296875 
Q 35.890625 39.015625 38.515625 36.203125 
Q 41.15625 33.40625 48.09375 33.40625 
L 51.125 33.40625 
L 51.125 26.421875 
L 48.09375 26.421875 
Q 41.15625 26.421875 38.515625 23.578125 
Q 35.890625 20.75 35.890625 13.375 
L 35.890625 1.703125 
Q 35.890625 -9.078125 31.8125 -12.6875 
Q 27.734375 -16.3125 15.578125 -16.3125 
L 12.5 -16.3125 
z
" id="DejaVuSans-125"/>
      <path d="M 11.71875 12.40625 
L 22.015625 12.40625 
L 22.015625 4 
L 14.015625 -11.625 
L 7.71875 -11.625 
L 11.71875 4 
z
" id="DejaVuSans-44"/>
      <path d="M 10.796875 72.90625 
L 49.515625 72.90625 
L 49.515625 64.59375 
L 19.828125 64.59375 
L 19.828125 46.734375 
Q 21.96875 47.46875 24.109375 47.828125 
Q 26.265625 48.1875 28.421875 48.1875 
Q 40.625 48.1875 47.75 41.5 
Q 54.890625 34.8125 54.890625 23.390625 
Q 54.890625 11.625 47.5625 5.09375 
Q 40.234375 -1.421875 26.90625 -1.421875 
Q 22.3125 -1.421875 17.546875 -0.640625 
Q 12.796875 0.140625 7.71875 1.703125 
L 7.71875 11.625 
Q 12.109375 9.234375 16.796875 8.0625 
Q 21.484375 6.890625 26.703125 6.890625 
Q 35.15625 6.890625 40.078125 11.328125 
Q 45.015625 15.765625 45.015625 23.390625 
Q 45.015625 31 40.078125 35.4375 
Q 35.15625 39.890625 26.703125 39.890625 
Q 22.75 39.890625 18.8125 39.015625 
Q 14.890625 38.140625 10.796875 36.28125 
z
" id="DejaVuSans-53"/>
     </defs>
     <use xlink:href="#DejaVuSans-123"/>
     <use x="63.623047" xlink:href="#DejaVuSans-102"/>
     <use x="98.828125" xlink:href="#DejaVuSans-49"/>
     <use x="162.451172" xlink:href="#DejaVuSans-48"/>
     <use x="226.074219" xlink:href="#DejaVuSans-45"/>
     <use x="262.158203" xlink:href="#DejaVuSans-102"/>
     <use x="297.363281" xlink:href="#DejaVuSans-49"/>
     <use x="360.986328" xlink:href="#DejaVuSans-52"/>
     <use x="424.609375" xlink:href="#DejaVuSans-125"/>
     <use x="488.232422" xlink:href="#DejaVuSans-44"/>
     <use x="520.019531" xlink:href="#DejaVuSans-32"/>
     <use x="551.806641" xlink:href="#DejaVuSans-53"/>
     <use x="615.429688" xlink:href="#DejaVuSans-45"/>
     <use x="651.513672" xlink:href="#DejaVuSans-68"/>
    </g>
   </g>
   <g id="text_12">
    <!-- absolute targets -->
    <g transform="translate(62.208 609.932673)scale(0.14 -0.14)">
     <defs>
      <path d="M 48.6875 27.296875 
Q 48.6875 37.203125 44.609375 42.84375 
Q 40.53125 48.484375 33.40625 48.484375 
Q 26.265625 48.484375 22.1875 42.84375 
Q 18.109375 37.203125 18.109375 27.296875 
Q 18.109375 17.390625 22.1875 11.75 
Q 26.265625 6.109375 33.40625 6.109375 
Q 40.53125 6.109375 44.609375 11.75 
Q 48.6875 17.390625 48.6875 27.296875 
z
M 18.109375 46.390625 
Q 20.953125 51.265625 25.265625 53.625 
Q 29.59375 56 35.59375 56 
Q 45.5625 56 51.78125 48.09375 
Q 58.015625 40.1875 58.015625 27.296875 
Q 58.015625 14.40625 51.78125 6.484375 
Q 45.5625 -1.421875 35.59375 -1.421875 
Q 29.59375 -1.421875 25.265625 0.953125 
Q 20.953125 3.328125 18.109375 8.203125 
L 18.109375 0 
L 9.078125 0 
L 9.078125 75.984375 
L 18.109375 75.984375 
z
" id="DejaVuSans-98"/>
      <path d="M 8.5 21.578125 
L 8.5 54.6875 
L 17.484375 54.6875 
L 17.484375 21.921875 
Q 17.484375 14.15625 20.5 10.265625 
Q 23.53125 6.390625 29.59375 6.390625 
Q 36.859375 6.390625 41.078125 11.03125 
Q 45.3125 15.671875 45.3125 23.6875 
L 45.3125 54.6875 
L 54.296875 54.6875 
L 54.296875 0 
L 45.3125 0 
L 45.3125 8.40625 
Q 42.046875 3.421875 37.71875 1 
Q 33.40625 -1.421875 27.6875 -1.421875 
Q 18.265625 -1.421875 13.375 4.4375 
Q 8.5 10.296875 8.5 21.578125 
z
M 31.109375 56 
z
" id="DejaVuSans-117"/>
      <path d="M 56.203125 29.59375 
L 56.203125 25.203125 
L 14.890625 25.203125 
Q 15.484375 15.921875 20.484375 11.0625 
Q 25.484375 6.203125 34.421875 6.203125 
Q 39.59375 6.203125 44.453125 7.46875 
Q 49.3125 8.734375 54.109375 11.28125 
L 54.109375 2.78125 
Q 49.265625 0.734375 44.1875 -0.34375 
Q 39.109375 -1.421875 33.890625 -1.421875 
Q 20.796875 -1.421875 13.15625 6.1875 
Q 5.515625 13.8125 5.515625 26.8125 
Q 5.515625 40.234375 12.765625 48.109375 
Q 20.015625 56 32.328125 56 
Q 43.359375 56 49.78125 48.890625 
Q 56.203125 41.796875 56.203125 29.59375 
z
M 47.21875 32.234375 
Q 47.125 39.59375 43.09375 43.984375 
Q 39.0625 48.390625 32.421875 48.390625 
Q 24.90625 48.390625 20.390625 44.140625 
Q 15.875 39.890625 15.1875 32.171875 
z
" id="DejaVuSans-101"/>
     </defs>
     <use xlink:href="#DejaVuSans-97"/>
     <use x="61.279297" xlink:href="#DejaVuSans-98"/>
     <use x="124.755859" xlink:href="#DejaVuSans-115"/>
     <use x="176.855469" xlink:href="#DejaVuSans-111"/>
     <use x="238.037109" xlink:href="#DejaVuSans-108"/>
     <use x="265.820312" xlink:href="#DejaVuSans-117"/>
     <use x="329.199219" xlink:href="#DejaVuSans-116"/>
     <use x="368.408203" xlink:href="#DejaVuSans-101"/>
     <use x="429.931641" xlink:href="#DejaVuSans-32"/>
     <use x="461.71875" xlink:href="#DejaVuSans-116"/>
     <use x="500.927734" xlink:href="#DejaVuSans-97"/>
     <use x="562.207031" xlink:href="#DejaVuSans-114"/>
     <use x="601.570312" xlink:href="#DejaVuSans-103"/>
     <use x="665.046875" xlink:href="#DejaVuSans-101"/>
     <use x="726.570312" xlink:href="#DejaVuSans-116"/>
     <use x="765.779297" xlink:href="#DejaVuSans-115"/>
    </g>
   </g>
   <g id="text_13">
    <!-- v2.4 -->
    <g style="fill:#808080;" transform="translate(250.593063 288.777272)scale(0.1 -0.1)">
     <use xlink:href="#DejaVuSans-118"/>
     <use x="59.179688" xlink:href="#DejaVuSans-50"/>
     <use x="122.802734" xlink:href="#DejaVuSans-46"/>
     <use x="154.589844" xlink:href="#DejaVuSans-52"/>
    </g>
   </g>
   <g id="legend_1">
    <g id="patch_7">
     <path d="M 76.208 136.881 
L 205.429875 136.881 
Q 209.429875 136.881 209.429875 132.881 
L 209.429875 17.456 
Q 209.429875 13.456 205.429875 13.456 
L 76.208 13.456 
Q 72.208 13.456 72.208 17.456 
L 72.208 132.881 
Q 72.208 136.881 76.208 136.881 
z
" style="fill:#ffffff;opacity:0.2;stroke:#cccccc;stroke-linejoin:miter;"/>
    </g>
    <g id="line2d_112">
     <path d="M 80.208 29.652875 
L 120.208 29.652875 
" style="fill:none;stroke:#000000;stroke-linecap:square;stroke-width:1.5;"/>
    </g>
    <g id="line2d_113"/>
    <g id="text_14">
     <!-- 1: 5/5 -->
     <g transform="translate(136.208 36.652875)scale(0.2 -0.2)">
      <defs>
       <path d="M 11.71875 12.40625 
L 22.015625 12.40625 
L 22.015625 0 
L 11.71875 0 
z
M 11.71875 51.703125 
L 22.015625 51.703125 
L 22.015625 39.3125 
L 11.71875 39.3125 
z
" id="DejaVuSans-58"/>
      </defs>
      <use xlink:href="#DejaVuSans-49"/>
      <use x="63.623047" xlink:href="#DejaVuSans-58"/>
      <use x="97.314453" xlink:href="#DejaVuSans-32"/>
      <use x="129.101562" xlink:href="#DejaVuSans-53"/>
      <use x="192.724609" xlink:href="#DejaVuSans-47"/>
      <use x="226.416016" xlink:href="#DejaVuSans-53"/>
     </g>
    </g>
    <g id="line2d_114">
     <path d="M 80.208 59.009125 
L 120.208 59.009125 
" style="fill:none;stroke:#00bfbf;stroke-linecap:square;stroke-width:1.5;"/>
    </g>
    <g id="line2d_115"/>
    <g id="text_15">
     <!-- -1: 5/5 -->
     <g transform="translate(136.208 66.009125)scale(0.2 -0.2)">
      <use xlink:href="#DejaVuSans-45"/>
      <use x="36.083984" xlink:href="#DejaVuSans-49"/>
      <use x="99.707031" xlink:href="#DejaVuSans-58"/>
      <use x="133.398438" xlink:href="#DejaVuSans-32"/>
      <use x="165.185547" xlink:href="#DejaVuSans-53"/>
      <use x="228.808594" xlink:href="#DejaVuSans-47"/>
      <use x="262.5" xlink:href="#DejaVuSans-53"/>
     </g>
    </g>
    <g id="line2d_116">
     <path d="M 80.208 88.365375 
L 120.208 88.365375 
" style="fill:none;stroke:#bf00bf;stroke-linecap:square;stroke-width:1.5;"/>
    </g>
    <g id="line2d_117"/>
    <g id="text_16">
     <!-- -4: 5/5 -->
     <g transform="translate(136.208 95.365375)scale(0.2 -0.2)">
      <use xlink:href="#DejaVuSans-45"/>
      <use x="36.083984" xlink:href="#DejaVuSans-52"/>
      <use x="99.707031" xlink:href="#DejaVuSans-58"/>
      <use x="133.398438" xlink:href="#DejaVuSans-32"/>
      <use x="165.185547" xlink:href="#DejaVuSans-53"/>
      <use x="228.808594" xlink:href="#DejaVuSans-47"/>
      <use x="262.5" xlink:href="#DejaVuSans-53"/>
     </g>
    </g>
    <g id="line2d_118">
     <path d="M 80.208 117.721625 
L 120.208 117.721625 
" style="fill:none;stroke:#ff0000;stroke-linecap:square;stroke-width:3;"/>
    </g>
    <g id="line2d_119"/>
    <g id="text_17">
     <!-- -8: 5/5 -->
     <g transform="translate(136.208 124.721625)scale(0.2 -0.2)">
      <use xlink:href="#DejaVuSans-45"/>
      <use x="36.083984" xlink:href="#DejaVuSans-56"/>
      <use x="99.707031" xlink:href="#DejaVuSans-58"/>
      <use x="133.398438" xlink:href="#DejaVuSans-32"/>
      <use x="165.185547" xlink:href="#DejaVuSans-53"/>
      <use x="228.808594" xlink:href="#DejaVuSans-47"/>
      <use x="262.5" xlink:href="#DejaVuSans-53"/>
     </g>
    </g>
   </g>
  </g>
 </g>
 <defs>
  <clipPath id="p4bca857bd4">
   <rect height="290.304" width="398.592" x="62.208" y="3.456"/>
  </clipPath>
 </defs>
</svg>
