<?xml version="1.0" encoding="utf-8" standalone="no"?>
<!DOCTYPE svg PUBLIC "-//W3C//DTD SVG 1.1//EN"
  "http://www.w3.org/Graphics/SVG/1.1/DTD/svg11.dtd">
<!-- Created with matplotlib (https://matplotlib.org/) -->
<svg height="345.6pt" version="1.1" viewBox="0 0 460.8 345.6" width="460.8pt" xmlns="http://www.w3.org/2000/svg" xmlns:xlink="http://www.w3.org/1999/xlink">
 <metadata>
  <rdf:RDF xmlns:cc="http://creativecommons.org/ns#" xmlns:dc="http://purl.org/dc/elements/1.1/" xmlns:rdf="http://www.w3.org/1999/02/22-rdf-syntax-ns#">
   <cc:Work>
    <dc:type rdf:resource="http://purl.org/dc/dcmitype/StillImage"/>
    <dc:date>2021-06-17T01:38:48.519194</dc:date>
    <dc:format>image/svg+xml</dc:format>
    <dc:creator>
     <cc:Agent>
      <dc:title>Matplotlib v3.3.4, https://matplotlib.org/</dc:title>
     </cc:Agent>
    </dc:creator>
   </cc:Work>
  </rdf:RDF>
 </metadata>
 <defs>
  <style type="text/css">*{stroke-linecap:butt;stroke-linejoin:round;}</style>
 </defs>
 <g id="figure_1">
  <g id="patch_1">
   <path d="M 0 345.6 
L 460.8 345.6 
L 460.8 0 
L 0 0 
z
" style="fill:#ffffff;"/>
  </g>
  <g id="axes_1">
   <g id="patch_2">
    <path d="M 57.6 298.944 
L 338.688 298.944 
L 338.688 27.648 
L 57.6 27.648 
z
" style="fill:#ffffff;"/>
   </g>
   <g id="matplotlib.axis_1">
    <g id="xtick_1">
     <g id="line2d_1">
      <path clip-path="url(#p35521fdd2e)" d="M 57.6 298.944 
L 57.6 27.648 
" style="fill:none;stroke:#b0b0b0;stroke-linecap:square;stroke-width:0.8;"/>
     </g>
     <g id="line2d_2">
      <defs>
       <path d="M 0 0 
L 0 3.5 
" id="ma746dd8c39" style="stroke:#000000;stroke-width:0.8;"/>
      </defs>
      <g>
       <use style="stroke:#000000;stroke-width:0.8;" x="57.6" xlink:href="#ma746dd8c39" y="298.944"/>
      </g>
     </g>
     <g id="text_1">
      <!-- 0 -->
      <g transform="translate(51.2375 321.140875)scale(0.2 -0.2)">
       <defs>
        <path d="M 31.78125 66.40625 
Q 24.171875 66.40625 20.328125 58.90625 
Q 16.5 51.421875 16.5 36.375 
Q 16.5 21.390625 20.328125 13.890625 
Q 24.171875 6.390625 31.78125 6.390625 
Q 39.453125 6.390625 43.28125 13.890625 
Q 47.125 21.390625 47.125 36.375 
Q 47.125 51.421875 43.28125 58.90625 
Q 39.453125 66.40625 31.78125 66.40625 
z
M 31.78125 74.21875 
Q 44.046875 74.21875 50.515625 64.515625 
Q 56.984375 54.828125 56.984375 36.375 
Q 56.984375 17.96875 50.515625 8.265625 
Q 44.046875 -1.421875 31.78125 -1.421875 
Q 19.53125 -1.421875 13.0625 8.265625 
Q 6.59375 17.96875 6.59375 36.375 
Q 6.59375 54.828125 13.0625 64.515625 
Q 19.53125 74.21875 31.78125 74.21875 
z
" id="DejaVuSans-48"/>
       </defs>
       <use xlink:href="#DejaVuSans-48"/>
      </g>
     </g>
    </g>
    <g id="xtick_2">
     <g id="line2d_3">
      <path clip-path="url(#p35521fdd2e)" d="M 137.910857 298.944 
L 137.910857 27.648 
" style="fill:none;stroke:#b0b0b0;stroke-linecap:square;stroke-width:0.8;"/>
     </g>
     <g id="line2d_4">
      <g>
       <use style="stroke:#000000;stroke-width:0.8;" x="137.910857" xlink:href="#ma746dd8c39" y="298.944"/>
      </g>
     </g>
     <g id="text_2">
      <!-- 2 -->
      <g transform="translate(131.548357 321.140875)scale(0.2 -0.2)">
       <defs>
        <path d="M 19.1875 8.296875 
L 53.609375 8.296875 
L 53.609375 0 
L 7.328125 0 
L 7.328125 8.296875 
Q 12.9375 14.109375 22.625 23.890625 
Q 32.328125 33.6875 34.8125 36.53125 
Q 39.546875 41.84375 41.421875 45.53125 
Q 43.3125 49.21875 43.3125 52.78125 
Q 43.3125 58.59375 39.234375 62.25 
Q 35.15625 65.921875 28.609375 65.921875 
Q 23.96875 65.921875 18.8125 64.3125 
Q 13.671875 62.703125 7.8125 59.421875 
L 7.8125 69.390625 
Q 13.765625 71.78125 18.9375 73 
Q 24.125 74.21875 28.421875 74.21875 
Q 39.75 74.21875 46.484375 68.546875 
Q 53.21875 62.890625 53.21875 53.421875 
Q 53.21875 48.921875 51.53125 44.890625 
Q 49.859375 40.875 45.40625 35.40625 
Q 44.1875 33.984375 37.640625 27.21875 
Q 31.109375 20.453125 19.1875 8.296875 
z
" id="DejaVuSans-50"/>
       </defs>
       <use xlink:href="#DejaVuSans-50"/>
      </g>
     </g>
    </g>
    <g id="xtick_3">
     <g id="line2d_5">
      <path clip-path="url(#p35521fdd2e)" d="M 218.221714 298.944 
L 218.221714 27.648 
" style="fill:none;stroke:#b0b0b0;stroke-linecap:square;stroke-width:0.8;"/>
     </g>
     <g id="line2d_6">
      <g>
       <use style="stroke:#000000;stroke-width:0.8;" x="218.221714" xlink:href="#ma746dd8c39" y="298.944"/>
      </g>
     </g>
     <g id="text_3">
      <!-- 4 -->
      <g transform="translate(211.859214 321.140875)scale(0.2 -0.2)">
       <defs>
        <path d="M 37.796875 64.3125 
L 12.890625 25.390625 
L 37.796875 25.390625 
z
M 35.203125 72.90625 
L 47.609375 72.90625 
L 47.609375 25.390625 
L 58.015625 25.390625 
L 58.015625 17.1875 
L 47.609375 17.1875 
L 47.609375 0 
L 37.796875 0 
L 37.796875 17.1875 
L 4.890625 17.1875 
L 4.890625 26.703125 
z
" id="DejaVuSans-52"/>
       </defs>
       <use xlink:href="#DejaVuSans-52"/>
      </g>
     </g>
    </g>
    <g id="xtick_4">
     <g id="line2d_7">
      <path clip-path="url(#p35521fdd2e)" d="M 298.532571 298.944 
L 298.532571 27.648 
" style="fill:none;stroke:#b0b0b0;stroke-linecap:square;stroke-width:0.8;"/>
     </g>
     <g id="line2d_8">
      <g>
       <use style="stroke:#000000;stroke-width:0.8;" x="298.532571" xlink:href="#ma746dd8c39" y="298.944"/>
      </g>
     </g>
     <g id="text_4">
      <!-- 6 -->
      <g transform="translate(292.170071 321.140875)scale(0.2 -0.2)">
       <defs>
        <path d="M 33.015625 40.375 
Q 26.375 40.375 22.484375 35.828125 
Q 18.609375 31.296875 18.609375 23.390625 
Q 18.609375 15.53125 22.484375 10.953125 
Q 26.375 6.390625 33.015625 6.390625 
Q 39.65625 6.390625 43.53125 10.953125 
Q 47.40625 15.53125 47.40625 23.390625 
Q 47.40625 31.296875 43.53125 35.828125 
Q 39.65625 40.375 33.015625 40.375 
z
M 52.59375 71.296875 
L 52.59375 62.3125 
Q 48.875 64.0625 45.09375 64.984375 
Q 41.3125 65.921875 37.59375 65.921875 
Q 27.828125 65.921875 22.671875 59.328125 
Q 17.53125 52.734375 16.796875 39.40625 
Q 19.671875 43.65625 24.015625 45.921875 
Q 28.375 48.1875 33.59375 48.1875 
Q 44.578125 48.1875 50.953125 41.515625 
Q 57.328125 34.859375 57.328125 23.390625 
Q 57.328125 12.15625 50.6875 5.359375 
Q 44.046875 -1.421875 33.015625 -1.421875 
Q 20.359375 -1.421875 13.671875 8.265625 
Q 6.984375 17.96875 6.984375 36.375 
Q 6.984375 53.65625 15.1875 63.9375 
Q 23.390625 74.21875 37.203125 74.21875 
Q 40.921875 74.21875 44.703125 73.484375 
Q 48.484375 72.75 52.59375 71.296875 
z
" id="DejaVuSans-54"/>
       </defs>
       <use xlink:href="#DejaVuSans-54"/>
      </g>
     </g>
    </g>
    <g id="xtick_5">
     <g id="line2d_9">
      <path clip-path="url(#p35521fdd2e)" d="M 97.755429 298.944 
L 97.755429 27.648 
" style="fill:none;stroke:#b0b0b0;stroke-linecap:square;stroke-width:0.8;"/>
     </g>
     <g id="line2d_10">
      <defs>
       <path d="M 0 0 
L 0 2 
" id="m3edd313d9f" style="stroke:#000000;stroke-width:0.6;"/>
      </defs>
      <g>
       <use style="stroke:#000000;stroke-width:0.6;" x="97.755429" xlink:href="#m3edd313d9f" y="298.944"/>
      </g>
     </g>
    </g>
    <g id="xtick_6">
     <g id="line2d_11">
      <path clip-path="url(#p35521fdd2e)" d="M 178.066286 298.944 
L 178.066286 27.648 
" style="fill:none;stroke:#b0b0b0;stroke-linecap:square;stroke-width:0.8;"/>
     </g>
     <g id="line2d_12">
      <g>
       <use style="stroke:#000000;stroke-width:0.6;" x="178.066286" xlink:href="#m3edd313d9f" y="298.944"/>
      </g>
     </g>
    </g>
    <g id="xtick_7">
     <g id="line2d_13">
      <path clip-path="url(#p35521fdd2e)" d="M 258.377143 298.944 
L 258.377143 27.648 
" style="fill:none;stroke:#b0b0b0;stroke-linecap:square;stroke-width:0.8;"/>
     </g>
     <g id="line2d_14">
      <g>
       <use style="stroke:#000000;stroke-width:0.6;" x="258.377143" xlink:href="#m3edd313d9f" y="298.944"/>
      </g>
     </g>
    </g>
    <g id="xtick_8">
     <g id="line2d_15">
      <path clip-path="url(#p35521fdd2e)" d="M 338.688 298.944 
L 338.688 27.648 
" style="fill:none;stroke:#b0b0b0;stroke-linecap:square;stroke-width:0.8;"/>
     </g>
     <g id="line2d_16">
      <g>
       <use style="stroke:#000000;stroke-width:0.6;" x="338.688" xlink:href="#m3edd313d9f" y="298.944"/>
      </g>
     </g>
    </g>
    <g id="text_5">
     <!-- log10(# f-evals / dimension) -->
     <g transform="translate(77.764078 342.217594)scale(0.17 -0.17)">
      <defs>
       <path d="M 9.421875 75.984375 
L 18.40625 75.984375 
L 18.40625 0 
L 9.421875 0 
z
" id="DejaVuSans-108"/>
       <path d="M 30.609375 48.390625 
Q 23.390625 48.390625 19.1875 42.75 
Q 14.984375 37.109375 14.984375 27.296875 
Q 14.984375 17.484375 19.15625 11.84375 
Q 23.34375 6.203125 30.609375 6.203125 
Q 37.796875 6.203125 41.984375 11.859375 
Q 46.1875 17.53125 46.1875 27.296875 
Q 46.1875 37.015625 41.984375 42.703125 
Q 37.796875 48.390625 30.609375 48.390625 
z
M 30.609375 56 
Q 42.328125 56 49.015625 48.375 
Q 55.71875 40.765625 55.71875 27.296875 
Q 55.71875 13.875 49.015625 6.21875 
Q 42.328125 -1.421875 30.609375 -1.421875 
Q 18.84375 -1.421875 12.171875 6.21875 
Q 5.515625 13.875 5.515625 27.296875 
Q 5.515625 40.765625 12.171875 48.375 
Q 18.84375 56 30.609375 56 
z
" id="DejaVuSans-111"/>
       <path d="M 45.40625 27.984375 
Q 45.40625 37.75 41.375 43.109375 
Q 37.359375 48.484375 30.078125 48.484375 
Q 22.859375 48.484375 18.828125 43.109375 
Q 14.796875 37.75 14.796875 27.984375 
Q 14.796875 18.265625 18.828125 12.890625 
Q 22.859375 7.515625 30.078125 7.515625 
Q 37.359375 7.515625 41.375 12.890625 
Q 45.40625 18.265625 45.40625 27.984375 
z
M 54.390625 6.78125 
Q 54.390625 -7.171875 48.1875 -13.984375 
Q 42 -20.796875 29.203125 -20.796875 
Q 24.46875 -20.796875 20.265625 -20.09375 
Q 16.0625 -19.390625 12.109375 -17.921875 
L 12.109375 -9.1875 
Q 16.0625 -11.328125 19.921875 -12.34375 
Q 23.78125 -13.375 27.78125 -13.375 
Q 36.625 -13.375 41.015625 -8.765625 
Q 45.40625 -4.15625 45.40625 5.171875 
L 45.40625 9.625 
Q 42.625 4.78125 38.28125 2.390625 
Q 33.9375 0 27.875 0 
Q 17.828125 0 11.671875 7.65625 
Q 5.515625 15.328125 5.515625 27.984375 
Q 5.515625 40.671875 11.671875 48.328125 
Q 17.828125 56 27.875 56 
Q 33.9375 56 38.28125 53.609375 
Q 42.625 51.21875 45.40625 46.390625 
L 45.40625 54.6875 
L 54.390625 54.6875 
z
" id="DejaVuSans-103"/>
       <path d="M 12.40625 8.296875 
L 28.515625 8.296875 
L 28.515625 63.921875 
L 10.984375 60.40625 
L 10.984375 69.390625 
L 28.421875 72.90625 
L 38.28125 72.90625 
L 38.28125 8.296875 
L 54.390625 8.296875 
L 54.390625 0 
L 12.40625 0 
z
" id="DejaVuSans-49"/>
       <path d="M 31 75.875 
Q 24.46875 64.65625 21.28125 53.65625 
Q 18.109375 42.671875 18.109375 31.390625 
Q 18.109375 20.125 21.3125 9.0625 
Q 24.515625 -2 31 -13.1875 
L 23.1875 -13.1875 
Q 15.875 -1.703125 12.234375 9.375 
Q 8.59375 20.453125 8.59375 31.390625 
Q 8.59375 42.28125 12.203125 53.3125 
Q 15.828125 64.359375 23.1875 75.875 
z
" id="DejaVuSans-40"/>
       <path d="M 51.125 44 
L 36.921875 44 
L 32.8125 27.6875 
L 47.125 27.6875 
z
M 43.796875 71.78125 
L 38.71875 51.515625 
L 52.984375 51.515625 
L 58.109375 71.78125 
L 65.921875 71.78125 
L 60.890625 51.515625 
L 76.125 51.515625 
L 76.125 44 
L 58.984375 44 
L 54.984375 27.6875 
L 70.515625 27.6875 
L 70.515625 20.21875 
L 53.078125 20.21875 
L 48 0 
L 40.1875 0 
L 45.21875 20.21875 
L 30.90625 20.21875 
L 25.875 0 
L 18.015625 0 
L 23.09375 20.21875 
L 7.71875 20.21875 
L 7.71875 27.6875 
L 24.90625 27.6875 
L 29 44 
L 13.28125 44 
L 13.28125 51.515625 
L 30.90625 51.515625 
L 35.890625 71.78125 
z
" id="DejaVuSans-35"/>
       <path id="DejaVuSans-32"/>
       <path d="M 37.109375 75.984375 
L 37.109375 68.5 
L 28.515625 68.5 
Q 23.6875 68.5 21.796875 66.546875 
Q 19.921875 64.59375 19.921875 59.515625 
L 19.921875 54.6875 
L 34.71875 54.6875 
L 34.71875 47.703125 
L 19.921875 47.703125 
L 19.921875 0 
L 10.890625 0 
L 10.890625 47.703125 
L 2.296875 47.703125 
L 2.296875 54.6875 
L 10.890625 54.6875 
L 10.890625 58.5 
Q 10.890625 67.625 15.140625 71.796875 
Q 19.390625 75.984375 28.609375 75.984375 
z
" id="DejaVuSans-102"/>
       <path d="M 4.890625 31.390625 
L 31.203125 31.390625 
L 31.203125 23.390625 
L 4.890625 23.390625 
z
" id="DejaVuSans-45"/>
       <path d="M 56.203125 29.59375 
L 56.203125 25.203125 
L 14.890625 25.203125 
Q 15.484375 15.921875 20.484375 11.0625 
Q 25.484375 6.203125 34.421875 6.203125 
Q 39.59375 6.203125 44.453125 7.46875 
Q 49.3125 8.734375 54.109375 11.28125 
L 54.109375 2.78125 
Q 49.265625 0.734375 44.1875 -0.34375 
Q 39.109375 -1.421875 33.890625 -1.421875 
Q 20.796875 -1.421875 13.15625 6.1875 
Q 5.515625 13.8125 5.515625 26.8125 
Q 5.515625 40.234375 12.765625 48.109375 
Q 20.015625 56 32.328125 56 
Q 43.359375 56 49.78125 48.890625 
Q 56.203125 41.796875 56.203125 29.59375 
z
M 47.21875 32.234375 
Q 47.125 39.59375 43.09375 43.984375 
Q 39.0625 48.390625 32.421875 48.390625 
Q 24.90625 48.390625 20.390625 44.140625 
Q 15.875 39.890625 15.1875 32.171875 
z
" id="DejaVuSans-101"/>
       <path d="M 2.984375 54.6875 
L 12.5 54.6875 
L 29.59375 8.796875 
L 46.6875 54.6875 
L 56.203125 54.6875 
L 35.6875 0 
L 23.484375 0 
z
" id="DejaVuSans-118"/>
       <path d="M 34.28125 27.484375 
Q 23.390625 27.484375 19.1875 25 
Q 14.984375 22.515625 14.984375 16.5 
Q 14.984375 11.71875 18.140625 8.90625 
Q 21.296875 6.109375 26.703125 6.109375 
Q 34.1875 6.109375 38.703125 11.40625 
Q 43.21875 16.703125 43.21875 25.484375 
L 43.21875 27.484375 
z
M 52.203125 31.203125 
L 52.203125 0 
L 43.21875 0 
L 43.21875 8.296875 
Q 40.140625 3.328125 35.546875 0.953125 
Q 30.953125 -1.421875 24.3125 -1.421875 
Q 15.921875 -1.421875 10.953125 3.296875 
Q 6 8.015625 6 15.921875 
Q 6 25.140625 12.171875 29.828125 
Q 18.359375 34.515625 30.609375 34.515625 
L 43.21875 34.515625 
L 43.21875 35.40625 
Q 43.21875 41.609375 39.140625 45 
Q 35.0625 48.390625 27.6875 48.390625 
Q 23 48.390625 18.546875 47.265625 
Q 14.109375 46.140625 10.015625 43.890625 
L 10.015625 52.203125 
Q 14.9375 54.109375 19.578125 55.046875 
Q 24.21875 56 28.609375 56 
Q 40.484375 56 46.34375 49.84375 
Q 52.203125 43.703125 52.203125 31.203125 
z
" id="DejaVuSans-97"/>
       <path d="M 44.28125 53.078125 
L 44.28125 44.578125 
Q 40.484375 46.53125 36.375 47.5 
Q 32.28125 48.484375 27.875 48.484375 
Q 21.1875 48.484375 17.84375 46.4375 
Q 14.5 44.390625 14.5 40.28125 
Q 14.5 37.15625 16.890625 35.375 
Q 19.28125 33.59375 26.515625 31.984375 
L 29.59375 31.296875 
Q 39.15625 29.25 43.1875 25.515625 
Q 47.21875 21.78125 47.21875 15.09375 
Q 47.21875 7.46875 41.1875 3.015625 
Q 35.15625 -1.421875 24.609375 -1.421875 
Q 20.21875 -1.421875 15.453125 -0.5625 
Q 10.6875 0.296875 5.421875 2 
L 5.421875 11.28125 
Q 10.40625 8.6875 15.234375 7.390625 
Q 20.0625 6.109375 24.8125 6.109375 
Q 31.15625 6.109375 34.5625 8.28125 
Q 37.984375 10.453125 37.984375 14.40625 
Q 37.984375 18.0625 35.515625 20.015625 
Q 33.0625 21.96875 24.703125 23.78125 
L 21.578125 24.515625 
Q 13.234375 26.265625 9.515625 29.90625 
Q 5.8125 33.546875 5.8125 39.890625 
Q 5.8125 47.609375 11.28125 51.796875 
Q 16.75 56 26.8125 56 
Q 31.78125 56 36.171875 55.265625 
Q 40.578125 54.546875 44.28125 53.078125 
z
" id="DejaVuSans-115"/>
       <path d="M 25.390625 72.90625 
L 33.6875 72.90625 
L 8.296875 -9.28125 
L 0 -9.28125 
z
" id="DejaVuSans-47"/>
       <path d="M 45.40625 46.390625 
L 45.40625 75.984375 
L 54.390625 75.984375 
L 54.390625 0 
L 45.40625 0 
L 45.40625 8.203125 
Q 42.578125 3.328125 38.25 0.953125 
Q 33.9375 -1.421875 27.875 -1.421875 
Q 17.96875 -1.421875 11.734375 6.484375 
Q 5.515625 14.40625 5.515625 27.296875 
Q 5.515625 40.1875 11.734375 48.09375 
Q 17.96875 56 27.875 56 
Q 33.9375 56 38.25 53.625 
Q 42.578125 51.265625 45.40625 46.390625 
z
M 14.796875 27.296875 
Q 14.796875 17.390625 18.875 11.75 
Q 22.953125 6.109375 30.078125 6.109375 
Q 37.203125 6.109375 41.296875 11.75 
Q 45.40625 17.390625 45.40625 27.296875 
Q 45.40625 37.203125 41.296875 42.84375 
Q 37.203125 48.484375 30.078125 48.484375 
Q 22.953125 48.484375 18.875 42.84375 
Q 14.796875 37.203125 14.796875 27.296875 
z
" id="DejaVuSans-100"/>
       <path d="M 9.421875 54.6875 
L 18.40625 54.6875 
L 18.40625 0 
L 9.421875 0 
z
M 9.421875 75.984375 
L 18.40625 75.984375 
L 18.40625 64.59375 
L 9.421875 64.59375 
z
" id="DejaVuSans-105"/>
       <path d="M 52 44.1875 
Q 55.375 50.25 60.0625 53.125 
Q 64.75 56 71.09375 56 
Q 79.640625 56 84.28125 50.015625 
Q 88.921875 44.046875 88.921875 33.015625 
L 88.921875 0 
L 79.890625 0 
L 79.890625 32.71875 
Q 79.890625 40.578125 77.09375 44.375 
Q 74.3125 48.1875 68.609375 48.1875 
Q 61.625 48.1875 57.5625 43.546875 
Q 53.515625 38.921875 53.515625 30.90625 
L 53.515625 0 
L 44.484375 0 
L 44.484375 32.71875 
Q 44.484375 40.625 41.703125 44.40625 
Q 38.921875 48.1875 33.109375 48.1875 
Q 26.21875 48.1875 22.15625 43.53125 
Q 18.109375 38.875 18.109375 30.90625 
L 18.109375 0 
L 9.078125 0 
L 9.078125 54.6875 
L 18.109375 54.6875 
L 18.109375 46.1875 
Q 21.1875 51.21875 25.484375 53.609375 
Q 29.78125 56 35.6875 56 
Q 41.65625 56 45.828125 52.96875 
Q 50 49.953125 52 44.1875 
z
" id="DejaVuSans-109"/>
       <path d="M 54.890625 33.015625 
L 54.890625 0 
L 45.90625 0 
L 45.90625 32.71875 
Q 45.90625 40.484375 42.875 44.328125 
Q 39.84375 48.1875 33.796875 48.1875 
Q 26.515625 48.1875 22.3125 43.546875 
Q 18.109375 38.921875 18.109375 30.90625 
L 18.109375 0 
L 9.078125 0 
L 9.078125 54.6875 
L 18.109375 54.6875 
L 18.109375 46.1875 
Q 21.34375 51.125 25.703125 53.5625 
Q 30.078125 56 35.796875 56 
Q 45.21875 56 50.046875 50.171875 
Q 54.890625 44.34375 54.890625 33.015625 
z
" id="DejaVuSans-110"/>
       <path d="M 8.015625 75.875 
L 15.828125 75.875 
Q 23.140625 64.359375 26.78125 53.3125 
Q 30.421875 42.28125 30.421875 31.390625 
Q 30.421875 20.453125 26.78125 9.375 
Q 23.140625 -1.703125 15.828125 -13.1875 
L 8.015625 -13.1875 
Q 14.5 -2 17.703125 9.0625 
Q 20.90625 20.125 20.90625 31.390625 
Q 20.90625 42.671875 17.703125 53.65625 
Q 14.5 64.65625 8.015625 75.875 
z
" id="DejaVuSans-41"/>
      </defs>
      <use xlink:href="#DejaVuSans-108"/>
      <use x="27.783203" xlink:href="#DejaVuSans-111"/>
      <use x="88.964844" xlink:href="#DejaVuSans-103"/>
      <use x="152.441406" xlink:href="#DejaVuSans-49"/>
      <use x="216.064453" xlink:href="#DejaVuSans-48"/>
      <use x="279.6875" xlink:href="#DejaVuSans-40"/>
      <use x="318.701172" xlink:href="#DejaVuSans-35"/>
      <use x="402.490234" xlink:href="#DejaVuSans-32"/>
      <use x="434.277344" xlink:href="#DejaVuSans-102"/>
      <use x="463.982422" xlink:href="#DejaVuSans-45"/>
      <use x="500.066406" xlink:href="#DejaVuSans-101"/>
      <use x="561.589844" xlink:href="#DejaVuSans-118"/>
      <use x="620.769531" xlink:href="#DejaVuSans-97"/>
      <use x="682.048828" xlink:href="#DejaVuSans-108"/>
      <use x="709.832031" xlink:href="#DejaVuSans-115"/>
      <use x="761.931641" xlink:href="#DejaVuSans-32"/>
      <use x="793.71875" xlink:href="#DejaVuSans-47"/>
      <use x="827.410156" xlink:href="#DejaVuSans-32"/>
      <use x="859.197266" xlink:href="#DejaVuSans-100"/>
      <use x="922.673828" xlink:href="#DejaVuSans-105"/>
      <use x="950.457031" xlink:href="#DejaVuSans-109"/>
      <use x="1047.869141" xlink:href="#DejaVuSans-101"/>
      <use x="1109.392578" xlink:href="#DejaVuSans-110"/>
      <use x="1172.771484" xlink:href="#DejaVuSans-115"/>
      <use x="1224.871094" xlink:href="#DejaVuSans-105"/>
      <use x="1252.654297" xlink:href="#DejaVuSans-111"/>
      <use x="1313.835938" xlink:href="#DejaVuSans-110"/>
      <use x="1377.214844" xlink:href="#DejaVuSans-41"/>
     </g>
    </g>
   </g>
   <g id="matplotlib.axis_2">
    <g id="ytick_1">
     <g id="line2d_17">
      <path clip-path="url(#p35521fdd2e)" d="M 57.6 298.944 
L 338.688 298.944 
" style="fill:none;stroke:#b0b0b0;stroke-linecap:square;stroke-width:0.8;"/>
     </g>
     <g id="line2d_18">
      <defs>
       <path d="M 0 0 
L -3.5 0 
" id="m4c04bba6c1" style="stroke:#000000;stroke-width:0.8;"/>
      </defs>
      <g>
       <use style="stroke:#000000;stroke-width:0.8;" x="57.6" xlink:href="#m4c04bba6c1" y="298.944"/>
      </g>
     </g>
     <g id="text_6">
      <!-- 0.0 -->
      <g transform="translate(25.155 305.02275)scale(0.16 -0.16)">
       <defs>
        <path d="M 10.6875 12.40625 
L 21 12.40625 
L 21 0 
L 10.6875 0 
z
" id="DejaVuSans-46"/>
       </defs>
       <use xlink:href="#DejaVuSans-48"/>
       <use x="63.623047" xlink:href="#DejaVuSans-46"/>
       <use x="95.410156" xlink:href="#DejaVuSans-48"/>
      </g>
     </g>
    </g>
    <g id="ytick_2">
     <g id="line2d_19">
      <path clip-path="url(#p35521fdd2e)" d="M 57.6 245.22202 
L 338.688 245.22202 
" style="fill:none;stroke:#b0b0b0;stroke-linecap:square;stroke-width:0.8;"/>
     </g>
     <g id="line2d_20">
      <g>
       <use style="stroke:#000000;stroke-width:0.8;" x="57.6" xlink:href="#m4c04bba6c1" y="245.22202"/>
      </g>
     </g>
     <g id="text_7">
      <!-- 0.2 -->
      <g transform="translate(25.155 251.30077)scale(0.16 -0.16)">
       <use xlink:href="#DejaVuSans-48"/>
       <use x="63.623047" xlink:href="#DejaVuSans-46"/>
       <use x="95.410156" xlink:href="#DejaVuSans-50"/>
      </g>
     </g>
    </g>
    <g id="ytick_3">
     <g id="line2d_21">
      <path clip-path="url(#p35521fdd2e)" d="M 57.6 191.50004 
L 338.688 191.50004 
" style="fill:none;stroke:#b0b0b0;stroke-linecap:square;stroke-width:0.8;"/>
     </g>
     <g id="line2d_22">
      <g>
       <use style="stroke:#000000;stroke-width:0.8;" x="57.6" xlink:href="#m4c04bba6c1" y="191.50004"/>
      </g>
     </g>
     <g id="text_8">
      <!-- 0.4 -->
      <g transform="translate(25.155 197.57879)scale(0.16 -0.16)">
       <use xlink:href="#DejaVuSans-48"/>
       <use x="63.623047" xlink:href="#DejaVuSans-46"/>
       <use x="95.410156" xlink:href="#DejaVuSans-52"/>
      </g>
     </g>
    </g>
    <g id="ytick_4">
     <g id="line2d_23">
      <path clip-path="url(#p35521fdd2e)" d="M 57.6 137.778059 
L 338.688 137.778059 
" style="fill:none;stroke:#b0b0b0;stroke-linecap:square;stroke-width:0.8;"/>
     </g>
     <g id="line2d_24">
      <g>
       <use style="stroke:#000000;stroke-width:0.8;" x="57.6" xlink:href="#m4c04bba6c1" y="137.778059"/>
      </g>
     </g>
     <g id="text_9">
      <!-- 0.6 -->
      <g transform="translate(25.155 143.856809)scale(0.16 -0.16)">
       <use xlink:href="#DejaVuSans-48"/>
       <use x="63.623047" xlink:href="#DejaVuSans-46"/>
       <use x="95.410156" xlink:href="#DejaVuSans-54"/>
      </g>
     </g>
    </g>
    <g id="ytick_5">
     <g id="line2d_25">
      <path clip-path="url(#p35521fdd2e)" d="M 57.6 84.056079 
L 338.688 84.056079 
" style="fill:none;stroke:#b0b0b0;stroke-linecap:square;stroke-width:0.8;"/>
     </g>
     <g id="line2d_26">
      <g>
       <use style="stroke:#000000;stroke-width:0.8;" x="57.6" xlink:href="#m4c04bba6c1" y="84.056079"/>
      </g>
     </g>
     <g id="text_10">
      <!-- 0.8 -->
      <g transform="translate(25.155 90.134829)scale(0.16 -0.16)">
       <defs>
        <path d="M 31.78125 34.625 
Q 24.75 34.625 20.71875 30.859375 
Q 16.703125 27.09375 16.703125 20.515625 
Q 16.703125 13.921875 20.71875 10.15625 
Q 24.75 6.390625 31.78125 6.390625 
Q 38.8125 6.390625 42.859375 10.171875 
Q 46.921875 13.96875 46.921875 20.515625 
Q 46.921875 27.09375 42.890625 30.859375 
Q 38.875 34.625 31.78125 34.625 
z
M 21.921875 38.8125 
Q 15.578125 40.375 12.03125 44.71875 
Q 8.5 49.078125 8.5 55.328125 
Q 8.5 64.0625 14.71875 69.140625 
Q 20.953125 74.21875 31.78125 74.21875 
Q 42.671875 74.21875 48.875 69.140625 
Q 55.078125 64.0625 55.078125 55.328125 
Q 55.078125 49.078125 51.53125 44.71875 
Q 48 40.375 41.703125 38.8125 
Q 48.828125 37.15625 52.796875 32.3125 
Q 56.78125 27.484375 56.78125 20.515625 
Q 56.78125 9.90625 50.3125 4.234375 
Q 43.84375 -1.421875 31.78125 -1.421875 
Q 19.734375 -1.421875 13.25 4.234375 
Q 6.78125 9.90625 6.78125 20.515625 
Q 6.78125 27.484375 10.78125 32.3125 
Q 14.796875 37.15625 21.921875 38.8125 
z
M 18.3125 54.390625 
Q 18.3125 48.734375 21.84375 45.5625 
Q 25.390625 42.390625 31.78125 42.390625 
Q 38.140625 42.390625 41.71875 45.5625 
Q 45.3125 48.734375 45.3125 54.390625 
Q 45.3125 60.0625 41.71875 63.234375 
Q 38.140625 66.40625 31.78125 66.40625 
Q 25.390625 66.40625 21.84375 63.234375 
Q 18.3125 60.0625 18.3125 54.390625 
z
" id="DejaVuSans-56"/>
       </defs>
       <use xlink:href="#DejaVuSans-48"/>
       <use x="63.623047" xlink:href="#DejaVuSans-46"/>
       <use x="95.410156" xlink:href="#DejaVuSans-56"/>
      </g>
     </g>
    </g>
    <g id="ytick_6">
     <g id="line2d_27">
      <path clip-path="url(#p35521fdd2e)" d="M 57.6 30.334099 
L 338.688 30.334099 
" style="fill:none;stroke:#b0b0b0;stroke-linecap:square;stroke-width:0.8;"/>
     </g>
     <g id="line2d_28">
      <g>
       <use style="stroke:#000000;stroke-width:0.8;" x="57.6" xlink:href="#m4c04bba6c1" y="30.334099"/>
      </g>
     </g>
     <g id="text_11">
      <!-- 1.0 -->
      <g transform="translate(25.155 36.412849)scale(0.16 -0.16)">
       <use xlink:href="#DejaVuSans-49"/>
       <use x="63.623047" xlink:href="#DejaVuSans-46"/>
       <use x="95.410156" xlink:href="#DejaVuSans-48"/>
      </g>
     </g>
    </g>
    <g id="text_12">
     <!-- Fraction of function,target pairs -->
     <g transform="translate(17.619531 297.681)rotate(-90)scale(0.17 -0.17)">
      <defs>
       <path d="M 9.8125 72.90625 
L 51.703125 72.90625 
L 51.703125 64.59375 
L 19.671875 64.59375 
L 19.671875 43.109375 
L 48.578125 43.109375 
L 48.578125 34.8125 
L 19.671875 34.8125 
L 19.671875 0 
L 9.8125 0 
z
" id="DejaVuSans-70"/>
       <path d="M 41.109375 46.296875 
Q 39.59375 47.171875 37.8125 47.578125 
Q 36.03125 48 33.890625 48 
Q 26.265625 48 22.1875 43.046875 
Q 18.109375 38.09375 18.109375 28.8125 
L 18.109375 0 
L 9.078125 0 
L 9.078125 54.6875 
L 18.109375 54.6875 
L 18.109375 46.1875 
Q 20.953125 51.171875 25.484375 53.578125 
Q 30.03125 56 36.53125 56 
Q 37.453125 56 38.578125 55.875 
Q 39.703125 55.765625 41.0625 55.515625 
z
" id="DejaVuSans-114"/>
       <path d="M 48.78125 52.59375 
L 48.78125 44.1875 
Q 44.96875 46.296875 41.140625 47.34375 
Q 37.3125 48.390625 33.40625 48.390625 
Q 24.65625 48.390625 19.8125 42.84375 
Q 14.984375 37.3125 14.984375 27.296875 
Q 14.984375 17.28125 19.8125 11.734375 
Q 24.65625 6.203125 33.40625 6.203125 
Q 37.3125 6.203125 41.140625 7.25 
Q 44.96875 8.296875 48.78125 10.40625 
L 48.78125 2.09375 
Q 45.015625 0.34375 40.984375 -0.53125 
Q 36.96875 -1.421875 32.421875 -1.421875 
Q 20.0625 -1.421875 12.78125 6.34375 
Q 5.515625 14.109375 5.515625 27.296875 
Q 5.515625 40.671875 12.859375 48.328125 
Q 20.21875 56 33.015625 56 
Q 37.15625 56 41.109375 55.140625 
Q 45.0625 54.296875 48.78125 52.59375 
z
" id="DejaVuSans-99"/>
       <path d="M 18.3125 70.21875 
L 18.3125 54.6875 
L 36.8125 54.6875 
L 36.8125 47.703125 
L 18.3125 47.703125 
L 18.3125 18.015625 
Q 18.3125 11.328125 20.140625 9.421875 
Q 21.96875 7.515625 27.59375 7.515625 
L 36.8125 7.515625 
L 36.8125 0 
L 27.59375 0 
Q 17.1875 0 13.234375 3.875 
Q 9.28125 7.765625 9.28125 18.015625 
L 9.28125 47.703125 
L 2.6875 47.703125 
L 2.6875 54.6875 
L 9.28125 54.6875 
L 9.28125 70.21875 
z
" id="DejaVuSans-116"/>
       <path d="M 8.5 21.578125 
L 8.5 54.6875 
L 17.484375 54.6875 
L 17.484375 21.921875 
Q 17.484375 14.15625 20.5 10.265625 
Q 23.53125 6.390625 29.59375 6.390625 
Q 36.859375 6.390625 41.078125 11.03125 
Q 45.3125 15.671875 45.3125 23.6875 
L 45.3125 54.6875 
L 54.296875 54.6875 
L 54.296875 0 
L 45.3125 0 
L 45.3125 8.40625 
Q 42.046875 3.421875 37.71875 1 
Q 33.40625 -1.421875 27.6875 -1.421875 
Q 18.265625 -1.421875 13.375 4.4375 
Q 8.5 10.296875 8.5 21.578125 
z
M 31.109375 56 
z
" id="DejaVuSans-117"/>
       <path d="M 11.71875 12.40625 
L 22.015625 12.40625 
L 22.015625 4 
L 14.015625 -11.625 
L 7.71875 -11.625 
L 11.71875 4 
z
" id="DejaVuSans-44"/>
       <path d="M 18.109375 8.203125 
L 18.109375 -20.796875 
L 9.078125 -20.796875 
L 9.078125 54.6875 
L 18.109375 54.6875 
L 18.109375 46.390625 
Q 20.953125 51.265625 25.265625 53.625 
Q 29.59375 56 35.59375 56 
Q 45.5625 56 51.78125 48.09375 
Q 58.015625 40.1875 58.015625 27.296875 
Q 58.015625 14.40625 51.78125 6.484375 
Q 45.5625 -1.421875 35.59375 -1.421875 
Q 29.59375 -1.421875 25.265625 0.953125 
Q 20.953125 3.328125 18.109375 8.203125 
z
M 48.6875 27.296875 
Q 48.6875 37.203125 44.609375 42.84375 
Q 40.53125 48.484375 33.40625 48.484375 
Q 26.265625 48.484375 22.1875 42.84375 
Q 18.109375 37.203125 18.109375 27.296875 
Q 18.109375 17.390625 22.1875 11.75 
Q 26.265625 6.109375 33.40625 6.109375 
Q 40.53125 6.109375 44.609375 11.75 
Q 48.6875 17.390625 48.6875 27.296875 
z
" id="DejaVuSans-112"/>
      </defs>
      <use xlink:href="#DejaVuSans-70"/>
      <use x="50.269531" xlink:href="#DejaVuSans-114"/>
      <use x="91.382812" xlink:href="#DejaVuSans-97"/>
      <use x="152.662109" xlink:href="#DejaVuSans-99"/>
      <use x="207.642578" xlink:href="#DejaVuSans-116"/>
      <use x="246.851562" xlink:href="#DejaVuSans-105"/>
      <use x="274.634766" xlink:href="#DejaVuSans-111"/>
      <use x="335.816406" xlink:href="#DejaVuSans-110"/>
      <use x="399.195312" xlink:href="#DejaVuSans-32"/>
      <use x="430.982422" xlink:href="#DejaVuSans-111"/>
      <use x="492.164062" xlink:href="#DejaVuSans-102"/>
      <use x="527.369141" xlink:href="#DejaVuSans-32"/>
      <use x="559.15625" xlink:href="#DejaVuSans-102"/>
      <use x="594.361328" xlink:href="#DejaVuSans-117"/>
      <use x="657.740234" xlink:href="#DejaVuSans-110"/>
      <use x="721.119141" xlink:href="#DejaVuSans-99"/>
      <use x="776.099609" xlink:href="#DejaVuSans-116"/>
      <use x="815.308594" xlink:href="#DejaVuSans-105"/>
      <use x="843.091797" xlink:href="#DejaVuSans-111"/>
      <use x="904.273438" xlink:href="#DejaVuSans-110"/>
      <use x="967.652344" xlink:href="#DejaVuSans-44"/>
      <use x="999.439453" xlink:href="#DejaVuSans-116"/>
      <use x="1038.648438" xlink:href="#DejaVuSans-97"/>
      <use x="1099.927734" xlink:href="#DejaVuSans-114"/>
      <use x="1139.291016" xlink:href="#DejaVuSans-103"/>
      <use x="1202.767578" xlink:href="#DejaVuSans-101"/>
      <use x="1264.291016" xlink:href="#DejaVuSans-116"/>
      <use x="1303.5" xlink:href="#DejaVuSans-32"/>
      <use x="1335.287109" xlink:href="#DejaVuSans-112"/>
      <use x="1398.763672" xlink:href="#DejaVuSans-97"/>
      <use x="1460.042969" xlink:href="#DejaVuSans-105"/>
      <use x="1487.826172" xlink:href="#DejaVuSans-114"/>
      <use x="1528.939453" xlink:href="#DejaVuSans-115"/>
     </g>
    </g>
   </g>
   <g id="line2d_29">
    <defs>
     <path d="M 0 1.5 
C 0.397805 1.5 0.77937 1.341951 1.06066 1.06066 
C 1.341951 0.77937 1.5 0.397805 1.5 0 
C 1.5 -0.397805 1.341951 -0.77937 1.06066 -1.06066 
C 0.77937 -1.341951 0.397805 -1.5 0 -1.5 
C -0.397805 -1.5 -0.77937 -1.341951 -1.06066 -1.06066 
C -1.341951 -0.77937 -1.5 -0.397805 -1.5 0 
C -1.5 0.397805 -1.341951 0.77937 -1.06066 1.06066 
C -0.77937 1.341951 -0.397805 1.5 0 1.5 
z
" id="m4c4909782d" style="stroke:#00bfbf;"/>
    </defs>
    <g>
     <use style="fill:#00bfbf;stroke:#00bfbf;" x="180.692168" xlink:href="#m4c4909782d" y="30.334099"/>
     <use style="fill:#00bfbf;stroke:#00bfbf;" x="180.692168" xlink:href="#m4c4909782d" y="30.334099"/>
    </g>
   </g>
   <g id="line2d_30">
    <path d="M 45.512012 298.944 
L 45.512012 298.417314 
L 88.846997 298.417314 
L 88.846997 297.890628 
L 93.863965 297.890628 
L 93.863965 297.363942 
L 96.86091 297.363942 
L 96.86091 295.783884 
L 97.755429 295.783884 
L 97.755429 294.203825 
L 98.606294 294.203825 
L 98.606294 293.677139 
L 100.192776 293.677139 
L 100.192776 293.150453 
L 100.934985 293.150453 
L 100.934985 292.623767 
L 102.330873 292.623767 
L 102.330873 292.097081 
L 104.826449 292.097081 
L 104.826449 290.517023 
L 106.48859 290.517023 
L 106.48859 289.990337 
L 108.483824 289.990337 
L 108.483824 288.936964 
L 108.948899 288.936964 
L 108.948899 287.883592 
L 109.843417 287.883592 
L 109.843417 287.356906 
L 112.655818 287.356906 
L 112.655818 285.776848 
L 113.022974 285.776848 
L 113.022974 284.723476 
L 113.73488 284.723476 
L 113.73488 284.19679 
L 114.418861 284.19679 
L 114.418861 283.143418 
L 115.397021 283.143418 
L 115.397021 282.616732 
L 116.323218 282.616732 
L 116.323218 282.090045 
L 117.486268 282.090045 
L 117.486268 281.563359 
L 117.765302 281.563359 
L 117.765302 281.036673 
L 118.310324 281.036673 
L 118.310324 280.509987 
L 119.351785 280.509987 
L 119.351785 277.876557 
L 121.712041 277.876557 
L 121.712041 275.769812 
L 122.782271 275.769812 
L 122.782271 274.71644 
L 123.192626 274.71644 
L 123.192626 274.189754 
L 123.593547 274.189754 
L 123.593547 273.136382 
L 125.822869 273.136382 
L 125.822869 272.609696 
L 125.996395 272.609696 
L 125.996395 271.029638 
L 126.338353 271.029638 
L 126.338353 270.502952 
L 126.50685 270.502952 
L 126.50685 269.449579 
L 126.673734 269.449579 
L 126.673734 268.396207 
L 127.642832 268.396207 
L 127.642832 267.869521 
L 128.107907 267.869521 
L 128.107907 267.342835 
L 128.709321 267.342835 
L 128.709321 266.816149 
L 129.290685 266.816149 
L 129.290685 266.289463 
L 130.398313 266.289463 
L 130.398313 264.182719 
L 131.185181 264.182719 
L 131.185181 262.075974 
L 131.814826 262.075974 
L 131.814826 261.549288 
L 132.541568 261.549288 
L 132.541568 261.022602 
L 133.910056 261.022602 
L 133.910056 258.389172 
L 134.12805 258.389172 
L 134.12805 257.862486 
L 135.076644 257.862486 
L 135.076644 257.3358 
L 135.97629 257.3358 
L 135.97629 256.809114 
L 136.645276 256.809114 
L 136.645276 256.282427 
L 137.997836 256.282427 
L 137.997836 253.648997 
L 138.594838 253.648997 
L 138.594838 252.595625 
L 139.090775 252.595625 
L 139.090775 252.068939 
L 140.64889 252.068939 
L 140.64889 251.542253 
L 142.949611 251.542253 
L 142.949611 249.962195 
L 145.097753 249.962195 
L 145.097753 248.908822 
L 145.497361 248.908822 
L 145.497361 248.382136 
L 146.431341 248.382136 
L 146.431341 247.85545 
L 149.823575 247.85545 
L 149.823575 247.328764 
L 149.955193 247.328764 
L 149.955193 245.22202 
L 151.260066 245.22202 
L 151.260066 244.695334 
L 152.130233 244.695334 
L 152.130233 244.168648 
L 152.398241 244.168648 
L 152.398241 243.641962 
L 152.511852 243.641962 
L 152.511852 242.588589 
L 152.662192 242.588589 
L 152.662192 242.061903 
L 153.644434 242.061903 
L 153.750233 240.481845 
L 154.167129 240.481845 
L 154.167129 239.955159 
L 154.337936 239.955159 
L 154.439623 236.795043 
L 154.507086 236.795043 
L 154.507086 236.268356 
L 154.741174 236.268356 
L 154.741174 235.74167 
L 154.906477 235.74167 
L 154.906477 235.214984 
L 155.773004 235.214984 
L 155.773004 234.688298 
L 155.959855 234.688298 
L 156.021696 233.10824 
L 156.175347 233.10824 
L 156.266892 229.948123 
L 156.38821 229.948123 
L 156.448553 228.894751 
L 156.508689 228.894751 
L 156.508689 228.368065 
L 156.658127 228.368065 
L 156.658127 227.841379 
L 156.776762 227.841379 
L 156.776762 227.314693 
L 156.98245 227.314693 
L 156.98245 225.207949 
L 157.156845 225.207949 
L 157.243392 223.101204 
L 157.528821 223.101204 
L 157.528821 222.574518 
L 157.697862 222.574518 
L 157.753847 221.521146 
L 157.893028 221.521146 
L 157.920731 220.467774 
L 158.249784 220.467774 
L 158.331086 219.414402 
L 158.412011 219.414402 
L 158.412011 218.887716 
L 158.652556 218.887716 
L 158.652556 218.36103 
L 159.149734 218.36103 
L 159.149734 217.834344 
L 159.278248 217.834344 
L 159.278248 217.307658 
L 159.532469 217.307658 
L 159.608019 216.254285 
L 159.708245 216.254285 
L 159.708245 214.674227 
L 160.079044 214.674227 
L 160.103486 213.094169 
L 160.442124 213.094169 
L 160.442124 212.567483 
L 160.585265 212.567483 
L 160.585265 212.040797 
L 160.727241 212.040797 
L 160.727241 211.514111 
L 160.86807 211.514111 
L 160.938061 209.934052 
L 160.984566 209.934052 
L 160.984566 209.407366 
L 161.12334 209.407366 
L 161.12334 208.88068 
L 161.420284 208.88068 
L 161.465522 207.300622 
L 161.555647 207.300622 
L 161.555647 206.773936 
L 161.911563 206.773936 
L 162.021314 202.560447 
L 162.086834 202.560447 
L 162.086834 202.033761 
L 162.346481 202.033761 
L 162.453536 199.400331 
L 162.9377 199.400331 
L 162.958448 197.820273 
L 163.748975 197.820273 
L 163.748975 197.293586 
L 163.985177 197.293586 
L 164.082658 194.660156 
L 164.121498 194.660156 
L 164.179597 193.606784 
L 164.276 193.606784 
L 164.371873 190.973354 
L 164.562052 190.973354 
L 164.65637 188.339923 
L 164.693955 188.339923 
L 164.712717 186.759865 
L 165.02862 186.759865 
L 165.065412 184.653121 
L 165.193576 184.653121 
L 165.284547 182.01969 
L 165.447111 182.01969 
L 165.447111 181.493004 
L 165.643763 181.493004 
L 165.643763 179.912946 
L 165.803027 179.912946 
L 165.803027 179.38626 
L 166.047915 179.38626 
L 166.151824 174.119399 
L 166.186323 174.119399 
L 166.289413 172.539341 
L 166.306535 172.539341 
L 166.306535 172.012655 
L 166.561376 172.012655 
L 166.561376 171.485969 
L 166.878918 171.485969 
L 166.96153 169.90591 
L 166.994465 169.90591 
L 166.994465 169.379224 
L 167.190782 169.379224 
L 167.288118 168.325852 
L 167.481174 168.325852 
L 167.497166 166.219108 
L 167.624577 166.219108 
L 167.735303 163.058991 
L 167.751064 163.058991 
L 167.829655 160.425561 
L 167.892273 160.425561 
L 167.93909 159.372189 
L 168.140524 159.372189 
L 168.248032 156.212072 
L 168.293904 156.212072 
L 168.293904 155.685386 
L 168.430803 155.685386 
L 168.476198 153.578642 
L 168.566635 153.578642 
L 168.656606 152.52527 
L 168.701418 152.52527 
L 168.77585 148.311781 
L 169.011918 148.311781 
L 169.011918 147.258409 
L 169.143315 147.258409 
L 169.215888 143.571606 
L 169.27373 143.571606 
L 169.331381 140.938176 
L 169.431813 140.938176 
L 169.51744 137.778059 
L 169.602648 137.778059 
L 169.673338 135.671315 
L 169.729685 135.671315 
L 169.729685 135.144629 
L 169.841835 135.144629 
L 169.911564 130.404454 
L 169.994873 130.404454 
L 170.077786 128.29771 
L 170.14658 128.29771 
L 170.256089 124.084221 
L 170.364915 124.084221 
L 170.473066 123.030849 
L 170.59394 123.030849 
L 170.700684 118.817361 
L 170.767069 118.817361 
L 170.846398 116.18393 
L 170.951613 116.18393 
L 171.056197 113.023814 
L 171.224819 113.023814 
L 171.276376 110.917069 
L 171.531901 110.917069 
L 171.569909 108.810325 
L 171.796233 108.810325 
L 171.796233 108.283639 
L 171.908303 108.283639 
L 171.982619 106.703581 
L 172.019658 106.703581 
L 172.068921 103.016778 
L 172.25243 103.016778 
L 172.337411 100.910034 
L 172.434028 100.910034 
L 172.494143 97.749917 
L 172.779844 97.749917 
L 172.850543 96.696545 
L 172.920958 96.696545 
L 172.97942 94.063115 
L 173.084161 94.063115 
L 173.188276 91.429684 
L 173.257343 91.429684 
L 173.337576 88.796254 
L 173.406055 88.796254 
L 173.406055 87.742882 
L 173.542212 87.742882 
L 173.643636 84.582765 
L 173.666095 84.582765 
L 173.722116 83.529393 
L 173.811376 83.529393 
L 173.922314 80.895963 
L 174.087407 80.895963 
L 174.185719 78.789218 
L 174.294307 78.789218 
L 174.305129 76.682474 
L 174.466655 76.682474 
L 174.552194 74.049044 
L 174.605444 74.049044 
L 174.605444 73.522358 
L 174.827334 73.522358 
L 174.827334 71.942299 
L 175.313947 71.942299 
L 175.354741 70.888927 
L 175.486665 70.888927 
L 175.486665 70.362241 
L 175.94562 70.362241 
L 175.94562 69.835555 
L 176.073165 69.835555 
L 176.141459 66.148752 
L 176.199784 66.148752 
L 176.24824 64.568694 
L 176.335123 64.568694 
L 176.440729 62.46195 
L 176.459861 62.46195 
L 176.55521 60.881892 
L 176.574218 60.881892 
L 176.67839 58.248461 
L 176.82881 58.248461 
L 176.894213 57.195089 
L 177.208443 57.195089 
L 177.25418 55.088345 
L 177.345294 55.088345 
L 177.345294 54.561659 
L 177.499105 54.561659 
L 177.517111 53.508287 
L 177.642639 53.508287 
L 177.749519 49.821484 
L 177.891015 49.821484 
L 177.987632 47.71474 
L 178.170609 47.71474 
L 178.248444 46.661368 
L 178.343106 46.661368 
L 178.343106 45.607995 
L 178.547874 45.607995 
L 178.547874 45.081309 
L 178.73349 45.081309 
L 178.73349 43.501251 
L 178.850589 43.501251 
L 178.942047 40.867821 
L 179.164521 40.867821 
L 179.246204 39.287762 
L 179.609115 39.287762 
L 179.609115 38.761076 
L 179.760106 38.761076 
L 179.807517 36.654332 
L 179.878392 36.654332 
L 179.941152 32.440843 
L 180.351324 32.440843 
L 180.351324 31.387471 
L 180.692168 31.387471 
L 180.692168 30.334099 
L 338.688 30.334099 
L 338.688 30.334099 
" style="fill:none;stroke:#00bfbf;stroke-linecap:square;stroke-width:1.5;"/>
   </g>
   <g id="line2d_31">
    <defs>
     <path d="M -6 0 
L 6 0 
M 0 6 
L 0 -6 
" id="me8c076204c" style="stroke:#00bfbf;stroke-width:1.5;"/>
    </defs>
    <g>
     <use style="fill-opacity:0;stroke:#00bfbf;stroke-width:1.5;" x="136.645276" xlink:href="#me8c076204c" y="256.809114"/>
     <use style="fill-opacity:0;stroke:#00bfbf;stroke-width:1.5;" x="167.497166" xlink:href="#me8c076204c" y="166.219108"/>
     <use style="fill-opacity:0;stroke:#00bfbf;stroke-width:1.5;" x="178.170609" xlink:href="#me8c076204c" y="47.71474"/>
     <use style="fill-opacity:0;stroke:#00bfbf;stroke-width:1.5;" x="180.692168" xlink:href="#me8c076204c" y="30.334099"/>
     <use style="fill-opacity:0;stroke:#00bfbf;stroke-width:1.5;" x="180.692168" xlink:href="#me8c076204c" y="30.334099"/>
     <use style="fill-opacity:0;stroke:#00bfbf;stroke-width:1.5;" x="338.688" xlink:href="#me8c076204c" y="30.334099"/>
    </g>
   </g>
   <g id="line2d_32">
    <path style="fill:none;stroke:#00bfbf;stroke-linecap:square;stroke-width:1.5;"/>
    <g/>
   </g>
   <g id="line2d_33">
    <defs>
     <path d="M 0 1.5 
C 0.397805 1.5 0.77937 1.341951 1.06066 1.06066 
C 1.341951 0.77937 1.5 0.397805 1.5 0 
C 1.5 -0.397805 1.341951 -0.77937 1.06066 -1.06066 
C 0.77937 -1.341951 0.397805 -1.5 0 -1.5 
C -0.397805 -1.5 -0.77937 -1.341951 -1.06066 -1.06066 
C -1.341951 -0.77937 -1.5 -0.397805 -1.5 0 
C -1.5 0.397805 -1.341951 0.77937 -1.06066 1.06066 
C -0.77937 1.341951 -0.397805 1.5 0 1.5 
z
" id="m3e481c419a" style="stroke:#008000;"/>
    </defs>
    <g>
     <use style="fill:#008000;stroke:#008000;" x="184.303871" xlink:href="#m3e481c419a" y="30.334099"/>
     <use style="fill:#008000;stroke:#008000;" x="184.303871" xlink:href="#m3e481c419a" y="30.334099"/>
    </g>
   </g>
   <g id="line2d_34">
    <path d="M 98.32726 298.944 
L 98.32726 298.417314 
L 106.66386 298.417314 
L 106.66386 297.890628 
L 108.006005 297.890628 
L 108.006005 296.31057 
L 108.326001 296.31057 
L 108.326001 295.783884 
L 109.550313 295.783884 
L 109.550313 295.257197 
L 111.505558 295.257197 
L 111.505558 294.730511 
L 112.026172 294.730511 
L 112.026172 294.203825 
L 113.26352 294.203825 
L 113.26352 293.677139 
L 114.193835 293.677139 
L 114.193835 293.150453 
L 115.917635 293.150453 
L 115.917635 292.623767 
L 116.323218 292.623767 
L 116.323218 292.097081 
L 117.486268 292.097081 
L 117.486268 291.570395 
L 117.672786 291.570395 
L 117.672786 291.043709 
L 118.039942 291.043709 
L 118.039942 289.990337 
L 118.751849 289.990337 
L 118.751849 289.463651 
L 119.097192 289.463651 
L 119.097192 288.936964 
L 119.931767 288.936964 
L 119.931767 287.883592 
L 120.41399 287.883592 
L 120.41399 287.356906 
L 121.189196 287.356906 
L 121.189196 286.303534 
L 122.219665 286.303534 
L 122.219665 285.776848 
L 123.460928 285.776848 
L 123.460928 285.250162 
L 124.241922 285.250162 
L 124.241922 284.723476 
L 124.743806 284.723476 
L 124.743806 284.19679 
L 125.23165 284.19679 
L 125.23165 283.670104 
L 125.351508 283.670104 
L 125.351508 283.143418 
L 125.470548 283.143418 
L 125.470548 282.616732 
L 126.618283 282.616732 
L 126.729009 281.036673 
L 127.378995 281.036673 
L 127.378995 279.456615 
L 128.209594 279.456615 
L 128.209594 278.403243 
L 130.218525 278.403243 
L 130.30865 276.823185 
L 130.398313 276.823185 
L 130.398313 276.296499 
L 130.664567 276.296499 
L 130.664567 275.769812 
L 132.181982 275.769812 
L 132.181982 273.663068 
L 134.164119 273.663068 
L 134.164119 272.609696 
L 134.591225 272.609696 
L 134.661403 271.556324 
L 135.681535 271.556324 
L 135.681535 271.029638 
L 136.008736 271.029638 
L 136.008736 269.976266 
L 136.707671 269.976266 
L 136.707671 269.449579 
L 137.138292 269.449579 
L 137.138292 268.922893 
L 138.482688 268.922893 
L 138.482688 268.396207 
L 138.761723 268.396207 
L 138.761723 267.869521 
L 139.090775 267.869521 
L 139.090775 267.342835 
L 140.093612 267.342835 
L 140.093612 266.816149 
L 140.79731 266.816149 
L 140.79731 266.289463 
L 143.44331 266.289463 
L 143.44331 265.762777 
L 144.430703 265.762777 
L 144.430703 265.236091 
L 144.904196 265.236091 
L 144.904196 264.709405 
L 145.174578 264.709405 
L 145.174578 264.182719 
L 146.288102 264.182719 
L 146.324022 262.60266 
L 146.749392 262.60266 
L 146.784375 261.549288 
L 147.130404 261.549288 
L 147.130404 261.022602 
L 147.570215 261.022602 
L 147.570215 260.495916 
L 148.161434 260.495916 
L 148.161434 259.442544 
L 150.344189 259.442544 
L 150.344189 258.915858 
L 150.822008 258.915858 
L 150.822008 258.389172 
L 151.501723 258.389172 
L 151.501723 257.3358 
L 152.662192 257.3358 
L 152.736878 256.282427 
L 153.514245 256.282427 
L 153.609024 254.702369 
L 153.983071 254.702369 
L 154.006185 253.648997 
L 154.098334 253.648997 
L 154.098334 253.122311 
L 154.258434 253.122311 
L 154.258434 252.595625 
L 154.484627 252.595625 
L 154.507086 251.542253 
L 154.663493 251.542253 
L 154.663493 251.015567 
L 155.12447 251.015567 
L 155.12447 250.488881 
L 155.531298 250.488881 
L 155.531298 249.435508 
L 155.720743 249.435508 
L 155.720743 248.908822 
L 156.052535 248.908822 
L 156.052535 248.382136 
L 156.175347 248.382136 
L 156.175347 247.328764 
L 156.598505 247.328764 
L 156.598505 246.802078 
L 156.855406 246.802078 
L 156.855406 245.748706 
L 157.166482 245.748706 
L 157.262567 244.695334 
L 157.641697 244.695334 
L 157.641697 244.168648 
L 157.86528 244.168648 
L 157.976006 242.588589 
L 158.195371 242.588589 
L 158.195371 242.061903 
L 158.358103 242.061903 
L 158.39406 241.008531 
L 158.48363 241.008531 
L 158.48363 240.481845 
L 159.0116 240.481845 
L 159.0116 239.955159 
L 159.439685 239.955159 
L 159.490356 238.901787 
L 159.624763 238.901787 
L 159.624763 238.375101 
L 159.741526 238.375101 
L 159.791329 237.321729 
L 160.070889 237.321729 
L 160.103486 235.74167 
L 160.329974 235.74167 
L 160.329974 235.214984 
L 160.601097 235.214984 
L 160.680044 234.161612 
L 160.852479 234.161612 
L 160.914762 233.10824 
L 161.329454 233.10824 
L 161.329454 232.581554 
L 161.689969 232.581554 
L 161.749336 231.528182 
L 162.014019 231.528182 
L 162.014019 231.001496 
L 162.144868 231.001496 
L 162.144868 230.47481 
L 162.260361 230.47481 
L 162.332157 229.421437 
L 162.545789 229.421437 
L 162.588203 227.841379 
L 162.742845 227.841379 
L 162.770815 225.734635 
L 162.868358 225.734635 
L 162.9377 224.681263 
L 163.07556 224.681263 
L 163.103002 223.627891 
L 163.21234 223.627891 
L 163.307451 222.574518 
L 163.348054 222.574518 
L 163.348054 222.047832 
L 163.549667 222.047832 
L 163.656248 220.99446 
L 163.735759 220.99446 
L 163.735759 220.467774 
L 163.919885 220.467774 
L 163.919885 219.941088 
L 164.037234 219.941088 
L 164.037234 219.414402 
L 164.269589 219.414402 
L 164.320806 218.36103 
L 164.410075 218.36103 
L 164.448194 216.780971 
L 164.612418 216.780971 
L 164.650098 215.727599 
L 164.787563 215.727599 
L 164.824867 214.674227 
L 164.899235 214.674227 
L 164.9363 211.514111 
L 165.022481 211.514111 
L 165.034758 210.460738 
L 165.193576 210.460738 
L 165.302685 208.353994 
L 165.326839 208.353994 
L 165.326839 207.827308 
L 165.447111 207.827308 
L 165.483031 206.24725 
L 165.661531 206.24725 
L 165.755989 204.667192 
L 165.814766 204.667192 
L 165.814766 204.140506 
L 165.93173 204.140506 
L 165.955029 203.087133 
L 166.140309 203.087133 
L 166.232216 197.293586 
L 166.277988 197.293586 
L 166.380539 195.713528 
L 166.403246 195.713528 
L 166.403246 195.186842 
L 166.639906 195.186842 
L 166.729224 193.606784 
L 166.884438 193.606784 
L 166.96153 190.973354 
L 167.04922 190.973354 
L 167.136471 189.393295 
L 167.223287 189.393295 
L 167.266534 187.286551 
L 167.363449 187.286551 
L 167.417059 184.653121 
L 167.481174 184.653121 
L 167.502494 183.073062 
L 167.59811 183.073062 
L 167.682664 176.752829 
L 167.850553 176.752829 
L 167.933895 174.119399 
L 167.965045 174.119399 
L 168.068482 172.539341 
L 168.150791 172.539341 
L 168.232714 170.959282 
L 168.304082 170.959282 
L 168.304082 169.379224 
L 168.466121 169.379224 
L 168.576655 166.219108 
L 168.586669 166.219108 
L 168.676537 162.005619 
L 168.71633 162.005619 
L 168.825295 159.898875 
L 168.884444 159.898875 
L 168.963 158.845503 
L 169.021685 158.845503 
L 169.099626 157.265444 
L 169.206229 157.265444 
L 169.264103 155.685386 
L 169.379278 155.685386 
L 169.427043 154.632014 
L 169.512694 154.632014 
L 169.512694 153.578642 
L 169.75779 153.578642 
L 169.75779 153.051956 
L 169.888352 153.051956 
L 169.990255 150.418525 
L 170.027164 150.418525 
L 170.036379 149.365153 
L 170.237885 149.365153 
L 170.346825 146.731723 
L 170.40104 146.731723 
L 170.482048 145.678351 
L 170.758232 145.678351 
L 170.828801 144.098292 
L 170.951613 144.098292 
L 170.977818 140.938176 
L 171.082245 140.938176 
L 171.168792 138.304745 
L 171.220515 138.304745 
L 171.254912 136.724687 
L 171.357698 136.724687 
L 171.357698 136.198001 
L 171.51075 136.198001 
L 171.51075 135.671315 
L 171.66247 135.671315 
L 171.66247 135.144629 
L 171.8212 135.144629 
L 171.928978 129.877768 
L 172.052516 129.877768 
L 172.052516 129.351082 
L 172.232135 129.351082 
L 172.232135 128.824396 
L 172.353551 128.824396 
L 172.450079 124.610907 
L 172.546075 124.610907 
L 172.62567 122.504163 
L 172.728604 122.504163 
L 172.823083 120.924105 
L 172.862299 120.924105 
L 172.862299 120.397419 
L 172.97942 120.397419 
L 173.088028 119.344047 
L 173.111214 119.344047 
L 173.219006 117.763988 
L 173.265 117.763988 
L 173.364239 116.18393 
L 173.455346 116.18393 
L 173.561039 115.130558 
L 173.568564 115.130558 
L 173.60614 113.5505 
L 173.688525 113.5505 
L 173.755642 110.390383 
L 173.881719 110.390383 
L 173.955458 108.810325 
L 174.014225 108.810325 
L 174.014225 108.283639 
L 174.160284 108.283639 
L 174.26903 107.230267 
L 174.326753 107.230267 
L 174.420145 104.07015 
L 174.47737 104.07015 
L 174.577064 101.43672 
L 174.626698 101.43672 
L 174.725545 99.856662 
L 174.774759 99.856662 
L 174.879752 98.276603 
L 174.907643 98.276603 
L 174.984116 97.223231 
L 175.136064 97.223231 
L 175.170413 94.589801 
L 175.266234 94.589801 
L 175.334356 92.483056 
L 175.388663 92.483056 
L 175.496772 90.902998 
L 175.610908 90.902998 
L 175.684365 89.32294 
L 175.797284 89.32294 
L 175.902897 86.68951 
L 175.962024 86.68951 
L 176.020952 85.636137 
L 176.144704 85.636137 
L 176.228874 83.002707 
L 176.286908 83.002707 
L 176.389606 81.949335 
L 176.434347 81.949335 
L 176.529835 79.842591 
L 176.567884 79.842591 
L 176.668945 77.735846 
L 176.719257 77.735846 
L 176.775685 75.629102 
L 176.894213 75.629102 
L 176.894213 74.57573 
L 177.036626 74.57573 
L 177.042792 73.522358 
L 177.232851 73.522358 
L 177.330141 71.415613 
L 177.444973 71.415613 
L 177.553068 69.308869 
L 177.559054 69.308869 
L 177.660498 68.255497 
L 177.937926 68.255497 
L 177.990551 67.202125 
L 178.066286 67.202125 
L 178.066286 66.675439 
L 178.205245 66.675439 
L 178.205245 66.148752 
L 178.320204 66.148752 
L 178.428718 64.568694 
L 178.44579 64.568694 
L 178.547874 62.46195 
L 178.660604 62.46195 
L 178.699888 60.881892 
L 178.883902 60.881892 
L 178.883902 60.355206 
L 179.044023 60.355206 
L 179.060504 59.301833 
L 179.24077 59.301833 
L 179.251636 58.248461 
L 179.359921 58.248461 
L 179.435323 55.615031 
L 179.553156 55.615031 
L 179.553156 55.088345 
L 179.959414 55.088345 
L 180.068589 54.034973 
L 180.218239 54.034973 
L 180.269546 52.454914 
L 180.417488 52.454914 
L 180.503634 50.34817 
L 180.589355 50.34817 
L 180.599412 48.768112 
L 180.729632 48.768112 
L 180.729632 48.241426 
L 180.858886 48.241426 
L 180.858886 47.71474 
L 181.085245 47.71474 
L 181.173027 44.554623 
L 181.250686 44.554623 
L 181.347276 42.974565 
L 181.48161 42.974565 
L 181.553151 41.921193 
L 181.633877 41.921193 
L 181.633877 41.394507 
L 181.756623 41.394507 
L 181.756623 40.867821 
L 182.041257 40.867821 
L 182.082862 39.287762 
L 182.174963 39.287762 
L 182.174963 38.761076 
L 182.389504 38.761076 
L 182.389504 37.707704 
L 182.735382 37.707704 
L 182.735382 37.181018 
L 182.916789 37.181018 
L 183.017734 36.127646 
L 183.217888 36.127646 
L 183.217888 34.547588 
L 183.462759 34.547588 
L 183.509622 33.494215 
L 183.746262 33.494215 
L 183.746262 32.967529 
L 183.913346 32.967529 
L 183.988015 31.914157 
L 184.037617 31.914157 
L 184.037617 30.860785 
L 184.303871 30.860785 
L 184.303871 30.334099 
L 338.688 30.334099 
L 338.688 30.334099 
" style="fill:none;stroke:#008000;stroke-linecap:square;stroke-width:1.5;"/>
   </g>
   <g id="line2d_35">
    <defs>
     <path d="M -0 6 
L 6 -6 
L -6 -6 
z
" id="mb692fee11b" style="stroke:#008000;stroke-linejoin:miter;stroke-width:1.5;"/>
    </defs>
    <g>
     <use style="fill-opacity:0;stroke:#008000;stroke-linejoin:miter;stroke-width:1.5;" x="165.661531" xlink:href="#mb692fee11b" y="206.24725"/>
     <use style="fill-opacity:0;stroke:#008000;stroke-linejoin:miter;stroke-width:1.5;" x="181.48161" xlink:href="#mb692fee11b" y="42.974565"/>
     <use style="fill-opacity:0;stroke:#008000;stroke-linejoin:miter;stroke-width:1.5;" x="184.303871" xlink:href="#mb692fee11b" y="30.334099"/>
     <use style="fill-opacity:0;stroke:#008000;stroke-linejoin:miter;stroke-width:1.5;" x="184.303871" xlink:href="#mb692fee11b" y="30.334099"/>
     <use style="fill-opacity:0;stroke:#008000;stroke-linejoin:miter;stroke-width:1.5;" x="338.688" xlink:href="#mb692fee11b" y="30.334099"/>
    </g>
   </g>
   <g id="line2d_36">
    <path style="fill:none;stroke:#008000;stroke-linecap:square;stroke-width:1.5;"/>
    <g/>
   </g>
   <g id="line2d_37">
    <defs>
     <path d="M 0 1.5 
C 0.397805 1.5 0.77937 1.341951 1.06066 1.06066 
C 1.341951 0.77937 1.5 0.397805 1.5 0 
C 1.5 -0.397805 1.341951 -0.77937 1.06066 -1.06066 
C 0.77937 -1.341951 0.397805 -1.5 0 -1.5 
C -0.397805 -1.5 -0.77937 -1.341951 -1.06066 -1.06066 
C -1.341951 -0.77937 -1.5 -0.397805 -1.5 0 
C -1.5 0.397805 -1.341951 0.77937 -1.06066 1.06066 
C -0.77937 1.341951 -0.397805 1.5 0 1.5 
z
" id="md90f423eaf" style="stroke:#0000ff;"/>
    </defs>
    <g>
     <use style="fill:#0000ff;stroke:#0000ff;" x="226.863954" xlink:href="#md90f423eaf" y="30.334099"/>
     <use style="fill:#0000ff;stroke:#0000ff;" x="226.863954" xlink:href="#md90f423eaf" y="30.334099"/>
    </g>
   </g>
   <g id="line2d_38">
    <path d="M 105.951954 298.944 
L 105.951954 298.417314 
L 111.505558 298.417314 
L 111.505558 297.890628 
L 118.363901 297.890628 
L 118.363901 297.363942 
L 119.80089 297.363942 
L 119.80089 296.837256 
L 120.286695 296.837256 
L 120.286695 296.31057 
L 122.276749 296.31057 
L 122.362027 295.257197 
L 123.273551 295.257197 
L 123.273551 293.677139 
L 124.519744 293.677139 
L 124.519744 293.150453 
L 124.891598 293.150453 
L 124.891598 292.623767 
L 127.674226 292.623767 
L 127.674226 291.570395 
L 128.350967 291.570395 
L 128.350967 290.517023 
L 129.574256 290.517023 
L 129.574256 289.990337 
L 129.908566 289.990337 
L 129.908566 289.463651 
L 130.505303 289.463651 
L 130.505303 288.936964 
L 130.717333 288.936964 
L 130.717333 288.410278 
L 130.874681 288.410278 
L 130.874681 287.883592 
L 131.185181 287.883592 
L 131.185181 287.356906 
L 131.439773 287.356906 
L 131.439773 285.250162 
L 132.133473 285.250162 
L 132.133473 284.723476 
L 132.753813 284.723476 
L 132.847322 283.670104 
L 133.711505 283.670104 
L 133.711505 283.143418 
L 134.106373 283.143418 
L 134.106373 282.616732 
L 134.321942 282.616732 
L 134.364738 281.563359 
L 134.61933 281.563359 
L 134.61933 281.036673 
L 136.227776 281.036673 
L 136.227776 280.509987 
L 136.86886 280.509987 
L 136.905847 279.456615 
L 137.162581 279.456615 
L 137.162581 278.403243 
L 137.70032 278.403243 
L 137.70032 277.876557 
L 138.01518 277.876557 
L 138.01518 277.349871 
L 138.594838 277.349871 
L 138.594838 276.823185 
L 138.761723 276.823185 
L 138.761723 276.296499 
L 138.959898 276.296499 
L 138.959898 275.243126 
L 139.445704 275.243126 
L 139.445704 274.71644 
L 139.636299 274.71644 
L 139.636299 274.189754 
L 139.793552 274.189754 
L 139.793552 273.663068 
L 140.678675 273.663068 
L 140.708409 272.609696 
L 141.032186 272.609696 
L 141.032186 272.08301 
L 141.435758 272.08301 
L 141.435758 271.556324 
L 142.646541 271.556324 
L 142.646541 271.029638 
L 142.831645 271.029638 
L 142.831645 270.502952 
L 143.170282 270.502952 
L 143.170282 269.976266 
L 143.451774 269.976266 
L 143.553018 267.869521 
L 143.628567 267.869521 
L 143.628567 267.342835 
L 144.747789 267.342835 
L 144.747789 266.816149 
L 144.888619 266.816149 
L 144.888619 266.289463 
L 145.372754 266.289463 
L 145.372754 265.762777 
L 146.06373 265.762777 
L 146.06373 264.709405 
L 146.958248 264.709405 
L 147.061745 263.656033 
L 147.848613 263.656033 
L 147.848613 263.129347 
L 147.96658 263.129347 
L 147.96658 262.60266 
L 148.334961 262.60266 
L 148.334961 262.075974 
L 148.901221 262.075974 
L 148.901221 261.549288 
L 149.286939 261.549288 
L 149.286939 261.022602 
L 149.682079 261.022602 
L 149.682079 260.495916 
L 150.49739 260.495916 
L 150.49739 259.96923 
L 152.721966 259.96923 
L 152.721966 259.442544 
L 152.914832 259.442544 
L 152.914832 258.915858 
L 153.48095 258.915858 
L 153.48095 258.389172 
L 154.056927 258.389172 
L 154.056927 257.862486 
L 156.394253 257.862486 
L 156.394253 257.3358 
L 159.718236 257.3358 
L 159.718236 256.809114 
L 160.346039 256.809114 
L 160.346039 256.282427 
L 160.585265 256.282427 
L 160.585265 255.755741 
L 161.832113 255.755741 
L 161.832113 255.229055 
L 162.199823 255.229055 
L 162.199823 254.702369 
L 162.355069 254.702369 
L 162.355069 254.175683 
L 162.661478 254.175683 
L 162.661478 253.648997 
L 163.428979 253.648997 
L 163.501492 252.595625 
L 163.629664 252.595625 
L 163.677486 251.542253 
L 163.875347 251.542253 
L 163.875347 251.015567 
L 164.53934 251.015567 
L 164.53934 250.488881 
L 165.396698 250.488881 
L 165.396698 249.962195 
L 165.838222 249.962195 
L 165.838222 249.435508 
L 166.068747 249.435508 
L 166.068747 248.908822 
L 166.357802 248.908822 
L 166.357802 248.382136 
L 166.574863 248.382136 
L 166.662278 247.328764 
L 167.119055 247.328764 
L 167.119055 246.802078 
L 167.429901 246.802078 
L 167.429901 246.275392 
L 167.716371 246.275392 
L 167.716371 245.748706 
L 167.935973 245.748706 
L 167.935973 245.22202 
L 168.177458 245.22202 
L 168.177458 244.695334 
L 168.452002 244.695334 
L 168.452002 244.168648 
L 169.08212 244.168648 
L 169.08212 243.641962 
L 169.474679 243.641962 
L 169.474679 243.115275 
L 169.886494 243.115275 
L 169.958822 242.061903 
L 170.548375 242.061903 
L 170.548375 241.535217 
L 170.872762 241.535217 
L 170.872762 241.008531 
L 171.144602 241.008531 
L 171.144602 240.481845 
L 171.696007 240.481845 
L 171.696007 239.955159 
L 172.32772 239.955159 
L 172.32772 239.428473 
L 173.17443 239.428473 
L 173.197501 238.375101 
L 173.3124 238.375101 
L 173.3124 237.848415 
L 173.652623 237.848415 
L 173.652623 236.795043 
L 173.804698 236.795043 
L 173.902397 235.74167 
L 174.13117 235.74167 
L 174.235754 234.161612 
L 174.283479 234.161612 
L 174.37423 233.10824 
L 174.417279 233.10824 
L 174.417279 232.581554 
L 174.613949 232.581554 
L 174.613949 232.054868 
L 174.800015 232.054868 
L 174.892309 229.948123 
L 174.963293 229.948123 
L 175.046437 228.368065 
L 175.211544 228.368065 
L 175.211544 227.841379 
L 175.436043 227.841379 
L 175.496772 226.788007 
L 175.597519 226.788007 
L 175.649678 224.681263 
L 175.725632 224.681263 
L 175.725632 224.154577 
L 176.275317 224.154577 
L 176.363988 222.574518 
L 176.406237 222.574518 
L 176.406237 222.047832 
L 176.774433 222.047832 
L 176.841911 220.99446 
L 176.897943 220.99446 
L 176.953797 219.941088 
L 177.149725 219.941088 
L 177.164423 218.887716 
L 177.444973 218.887716 
L 177.52071 217.834344 
L 177.574607 217.834344 
L 177.599702 216.780971 
L 177.92621 216.780971 
L 178.013889 215.727599 
L 178.513913 215.727599 
L 178.56822 214.674227 
L 178.823893 214.674227 
L 178.930433 213.620855 
L 178.940388 213.620855 
L 179.003304 212.567483 
L 179.193971 212.567483 
L 179.282024 210.987425 
L 179.401971 210.987425 
L 179.479336 209.407366 
L 179.533929 209.407366 
L 179.613903 208.353994 
L 179.839052 208.353994 
L 179.839052 207.827308 
L 179.983387 207.827308 
L 179.983387 207.300622 
L 180.163688 207.300622 
L 180.163688 206.773936 
L 180.762533 206.773936 
L 180.762533 206.24725 
L 181.073508 206.24725 
L 181.073508 205.720564 
L 181.266177 205.720564 
L 181.266177 205.193878 
L 181.396332 205.193878 
L 181.399213 204.140506 
L 181.519801 204.140506 
L 181.519801 203.613819 
L 181.639561 203.613819 
L 181.724604 202.560447 
L 181.859814 202.560447 
L 181.859814 202.033761 
L 182.035702 202.033761 
L 182.035702 201.507075 
L 182.151983 201.507075 
L 182.212584 200.453703 
L 182.278455 200.453703 
L 182.281194 199.400331 
L 182.436623 199.400331 
L 182.444765 198.346959 
L 182.639047 198.346959 
L 182.639047 197.820273 
L 183.162423 197.820273 
L 183.162423 197.293586 
L 183.325711 197.293586 
L 183.426033 196.240214 
L 183.492595 196.240214 
L 183.591965 195.186842 
L 183.716016 195.186842 
L 183.799066 194.13347 
L 183.916672 194.13347 
L 184.01118 191.50004 
L 184.050821 191.50004 
L 184.050821 190.973354 
L 184.269691 190.973354 
L 184.345286 189.393295 
L 184.625286 189.393295 
L 184.713659 187.286551 
L 184.884354 187.286551 
L 184.964384 185.706493 
L 185.015972 185.706493 
L 185.118694 183.599748 
L 185.137306 183.599748 
L 185.230068 182.01969 
L 185.303924 182.01969 
L 185.370587 180.966318 
L 185.596261 180.966318 
L 185.65279 179.912946 
L 185.740611 179.912946 
L 185.841397 177.806202 
L 185.903816 177.806202 
L 185.997027 176.226143 
L 186.052274 176.226143 
L 186.122736 173.592713 
L 186.171014 173.592713 
L 186.275886 171.485969 
L 186.526753 171.485969 
L 186.60388 168.852538 
L 186.640183 168.852538 
L 186.74652 166.219108 
L 186.917422 166.219108 
L 186.917422 165.692422 
L 187.070024 165.692422 
L 187.086666 164.63905 
L 187.324164 164.63905 
L 187.424384 162.005619 
L 187.440692 162.005619 
L 187.550373 159.372189 
L 187.582739 159.372189 
L 187.657357 157.265444 
L 187.7096 157.265444 
L 187.757687 154.632014 
L 187.859432 154.632014 
L 187.960587 153.051956 
L 188.019817 153.051956 
L 188.114169 151.998584 
L 188.155287 151.998584 
L 188.161154 150.418525 
L 188.274181 150.418525 
L 188.357507 146.731723 
L 188.401914 146.731723 
L 188.473114 144.098292 
L 188.524888 144.098292 
L 188.631784 139.884804 
L 188.641297 139.884804 
L 188.747484 138.831432 
L 188.868054 138.831432 
L 188.97474 136.724687 
L 188.99898 136.724687 
L 189.075212 135.671315 
L 189.149264 135.671315 
L 189.25792 133.037885 
L 189.261592 133.037885 
L 189.353127 130.93114 
L 189.376848 130.93114 
L 189.464153 129.351082 
L 189.498592 129.351082 
L 189.536576 128.29771 
L 189.705594 128.29771 
L 189.782368 126.717652 
L 189.855258 126.717652 
L 189.927844 125.66428 
L 190.206514 125.66428 
L 190.31571 123.030849 
L 190.338158 123.030849 
L 190.43281 120.924105 
L 190.683298 120.924105 
L 190.745784 119.870733 
L 190.955242 119.870733 
L 190.955242 119.344047 
L 191.642746 119.344047 
L 191.727407 117.763988 
L 191.805314 117.763988 
L 191.912857 116.710616 
L 192.345747 116.710616 
L 192.345747 116.18393 
L 192.530858 116.18393 
L 192.530858 115.657244 
L 192.656708 115.657244 
L 192.730581 114.603872 
L 192.790655 114.603872 
L 192.869934 113.023814 
L 192.902737 113.023814 
L 192.982993 111.443755 
L 193.071735 111.443755 
L 193.1791 109.863697 
L 193.225956 109.863697 
L 193.261016 108.283639 
L 193.339643 108.283639 
L 193.443932 105.650209 
L 193.492963 105.650209 
L 193.492963 105.123522 
L 193.62352 105.123522 
L 193.720444 100.910034 
L 193.751687 100.910034 
L 193.847904 99.329976 
L 193.885961 99.329976 
L 193.885961 98.803289 
L 194.286818 98.803289 
L 194.366443 97.223231 
L 194.399286 97.223231 
L 194.483843 94.589801 
L 194.520539 94.589801 
L 194.616668 91.429684 
L 194.643651 91.429684 
L 194.747149 89.32294 
L 194.792654 89.32294 
L 194.866016 87.216196 
L 194.988043 87.216196 
L 195.0698 84.582765 
L 195.118409 84.582765 
L 195.132834 83.529393 
L 195.345201 83.529393 
L 195.345201 83.002707 
L 195.659616 83.002707 
L 195.659616 82.476021 
L 195.773706 82.476021 
L 195.793911 80.895963 
L 195.967213 80.895963 
L 196.065652 79.315904 
L 196.089245 79.315904 
L 196.198101 77.735846 
L 196.26825 77.735846 
L 196.305057 76.682474 
L 196.467307 76.682474 
L 196.55814 75.629102 
L 196.617229 75.629102 
L 196.617229 74.57573 
L 197.039451 74.57573 
L 197.039451 74.049044 
L 197.697833 74.049044 
L 197.697833 73.522358 
L 198.024041 73.522358 
L 198.024041 72.995672 
L 198.186535 72.995672 
L 198.186535 72.468985 
L 206.856567 72.468985 
L 206.856567 71.415613 
L 207.907123 71.415613 
L 207.987592 70.362241 
L 208.702208 70.362241 
L 208.702208 69.835555 
L 208.98645 69.835555 
L 209.072123 68.255497 
L 209.308632 68.255497 
L 209.308632 67.728811 
L 209.466077 67.728811 
L 209.466077 67.202125 
L 210.439333 67.202125 
L 210.533357 66.148752 
L 210.557732 66.148752 
L 210.557732 65.622066 
L 210.686081 65.622066 
L 210.686081 65.09538 
L 210.853984 65.09538 
L 210.853984 64.568694 
L 211.008685 64.568694 
L 211.097598 63.515322 
L 211.182405 63.515322 
L 211.276673 60.881892 
L 211.426141 60.881892 
L 211.53037 55.615031 
L 211.661437 55.615031 
L 211.754674 53.508287 
L 211.835346 53.508287 
L 211.878052 52.454914 
L 211.947664 52.454914 
L 212.019986 51.401542 
L 212.176073 51.401542 
L 212.233203 50.34817 
L 212.365456 50.34817 
L 212.365456 49.821484 
L 212.835333 49.821484 
L 212.941411 47.71474 
L 212.960286 47.71474 
L 213.064202 45.081309 
L 213.088563 45.081309 
L 213.173094 44.027937 
L 213.26278 44.027937 
L 213.365836 40.867821 
L 213.39898 40.867821 
L 213.419663 39.287762 
L 213.527735 39.287762 
L 213.577879 38.23439 
L 213.76262 38.23439 
L 213.810298 36.654332 
L 214.028573 36.654332 
L 214.107795 35.60096 
L 220.015893 35.60096 
L 220.015893 35.074274 
L 220.43747 35.074274 
L 220.43747 34.547588 
L 221.241847 34.547588 
L 221.241847 34.020902 
L 221.432344 34.020902 
L 221.432344 33.494215 
L 222.069315 33.494215 
L 222.069315 32.967529 
L 222.233303 32.967529 
L 222.273438 31.914157 
L 222.476566 31.914157 
L 222.476566 31.387471 
L 222.614027 31.387471 
L 222.614027 30.860785 
L 226.863954 30.860785 
L 226.863954 30.334099 
L 338.688 30.334099 
L 338.688 30.334099 
" style="fill:none;stroke:#0000ff;stroke-linecap:square;stroke-width:1.5;"/>
   </g>
   <g id="line2d_39">
    <defs>
     <path d="M 0 -6 
L -1.347084 -1.854102 
L -5.706339 -1.854102 
L -2.179628 0.708204 
L -3.526712 4.854102 
L -0 2.291796 
L 3.526712 4.854102 
L 2.179628 0.708204 
L 5.706339 -1.854102 
L 1.347084 -1.854102 
z
" id="m04ca0083f7" style="stroke:#0000ff;stroke-linejoin:bevel;stroke-width:1.5;"/>
    </defs>
    <g>
     <use style="fill-opacity:0;stroke:#0000ff;stroke-linejoin:bevel;stroke-width:1.5;" x="175.725632" xlink:href="#m04ca0083f7" y="224.154577"/>
     <use style="fill-opacity:0;stroke:#0000ff;stroke-linejoin:bevel;stroke-width:1.5;" x="194.732401" xlink:href="#m04ca0083f7" y="90.376312"/>
     <use style="fill-opacity:0;stroke:#0000ff;stroke-linejoin:bevel;stroke-width:1.5;" x="226.863954" xlink:href="#m04ca0083f7" y="30.334099"/>
     <use style="fill-opacity:0;stroke:#0000ff;stroke-linejoin:bevel;stroke-width:1.5;" x="226.863954" xlink:href="#m04ca0083f7" y="30.334099"/>
     <use style="fill-opacity:0;stroke:#0000ff;stroke-linejoin:bevel;stroke-width:1.5;" x="338.688" xlink:href="#m04ca0083f7" y="30.334099"/>
    </g>
   </g>
   <g id="line2d_40">
    <path style="fill:none;stroke:#0000ff;stroke-linecap:square;stroke-width:1.5;"/>
    <g/>
   </g>
   <g id="line2d_41">
    <path clip-path="url(#p35521fdd2e)" d="M 206.138608 72.468985 
" style="fill:none;stroke:#0000ff;stroke-linecap:square;stroke-width:1.5;"/>
    <defs>
     <path d="M -12 12 
L 12 -12 
M -12 -12 
L 12 12 
" id="m529a2c29c3" style="stroke:#0000ff;"/>
    </defs>
    <g clip-path="url(#p35521fdd2e)">
     <use style="fill:#0000ff;stroke:#0000ff;" x="206.138608" xlink:href="#m529a2c29c3" y="72.468985"/>
    </g>
   </g>
   <g id="line2d_42">
    <defs>
     <path d="M 0 1.5 
C 0.397805 1.5 0.77937 1.341951 1.06066 1.06066 
C 1.341951 0.77937 1.5 0.397805 1.5 0 
C 1.5 -0.397805 1.341951 -0.77937 1.06066 -1.06066 
C 0.77937 -1.341951 0.397805 -1.5 0 -1.5 
C -0.397805 -1.5 -0.77937 -1.341951 -1.06066 -1.06066 
C -1.341951 -0.77937 -1.5 -0.397805 -1.5 0 
C -1.5 0.397805 -1.341951 0.77937 -1.06066 1.06066 
C -0.77937 1.341951 -0.397805 1.5 0 1.5 
z
" id="m7b6b92339f" style="stroke:#000000;"/>
    </defs>
    <g>
     <use style="stroke:#000000;" x="273.913153" xlink:href="#m7b6b92339f" y="30.334099"/>
     <use style="stroke:#000000;" x="273.913153" xlink:href="#m7b6b92339f" y="30.334099"/>
    </g>
   </g>
   <g id="line2d_43">
    <path d="M 122.988655 298.944 
L 122.988655 298.417314 
L 124.780872 298.417314 
L 124.780872 297.890628 
L 127.579875 297.890628 
L 127.579875 297.363942 
L 127.985095 297.363942 
L 127.985095 296.837256 
L 128.138476 296.837256 
L 128.138476 296.31057 
L 128.350967 296.31057 
L 128.350967 295.783884 
L 129.404667 295.783884 
L 129.404667 294.730511 
L 129.908566 294.730511 
L 129.908566 294.203825 
L 130.045992 294.203825 
L 130.045992 293.677139 
L 130.638123 293.677139 
L 130.638123 293.150453 
L 130.874681 293.150453 
L 130.926816 291.570395 
L 131.565689 291.570395 
L 131.665771 290.517023 
L 131.913493 290.517023 
L 131.913493 289.990337 
L 132.230358 289.990337 
L 132.230358 289.463651 
L 132.659801 289.463651 
L 132.753813 288.410278 
L 133.488207 288.410278 
L 133.57787 287.356906 
L 134.12805 287.356906 
L 134.12805 286.83022 
L 134.343353 286.83022 
L 134.343353 286.303534 
L 134.492498 286.303534 
L 134.492498 285.250162 
L 134.61933 285.250162 
L 134.61933 284.723476 
L 135.076644 284.723476 
L 135.138086 283.143418 
L 135.321124 283.143418 
L 135.321124 282.616732 
L 135.602085 282.616732 
L 135.602085 282.090045 
L 136.054058 282.090045 
L 136.054058 281.036673 
L 136.342635 281.036673 
L 136.380754 279.983301 
L 136.513517 279.983301 
L 136.513517 279.456615 
L 136.68274 279.456615 
L 136.720123 278.403243 
L 137.594091 278.403243 
L 137.594091 277.876557 
L 137.753193 277.876557 
L 137.84096 276.823185 
L 138.711825 276.823185 
L 138.711825 276.296499 
L 139.058148 276.296499 
L 139.058148 275.769812 
L 139.413734 275.769812 
L 139.413734 275.243126 
L 139.572998 275.243126 
L 139.588845 274.189754 
L 139.77789 274.189754 
L 139.77789 273.663068 
L 139.995884 273.663068 
L 139.995884 273.136382 
L 140.363363 273.136382 
L 140.469102 272.08301 
L 140.484155 272.08301 
L 140.529237 271.029638 
L 140.856326 271.029638 
L 140.944478 269.976266 
L 141.435758 269.976266 
L 141.46423 268.922893 
L 141.549369 268.922893 
L 141.549369 268.396207 
L 141.858037 268.396207 
L 141.858037 267.869521 
L 142.229539 267.869521 
L 142.229539 267.342835 
L 142.539878 267.342835 
L 142.619936 265.236091 
L 143.666219 265.236091 
L 143.666219 264.709405 
L 143.853271 264.709405 
L 143.853271 264.182719 
L 143.989178 264.182719 
L 144.001481 262.60266 
L 145.564956 262.60266 
L 145.564956 262.075974 
L 145.755062 262.075974 
L 145.755062 261.549288 
L 146.074653 261.549288 
L 146.074653 261.022602 
L 147.52003 261.022602 
L 147.52003 260.495916 
L 148.093482 260.495916 
L 148.093482 259.96923 
L 148.742638 259.96923 
L 148.742638 259.442544 
L 153.883332 259.442544 
L 153.883332 258.915858 
L 157.455057 258.915858 
L 157.455057 258.389172 
L 159.041045 258.389172 
L 159.041045 257.862486 
L 161.049465 257.862486 
L 161.049465 257.3358 
L 161.96872 257.3358 
L 161.96872 256.809114 
L 164.787563 256.809114 
L 164.787563 256.282427 
L 165.657978 256.282427 
L 165.657978 255.755741 
L 166.138005 255.755741 
L 166.138005 255.229055 
L 166.862349 255.229055 
L 166.862349 254.702369 
L 167.161475 254.702369 
L 167.161475 254.175683 
L 168.047843 254.175683 
L 168.047843 253.648997 
L 168.300012 253.648997 
L 168.300012 253.122311 
L 168.452002 253.122311 
L 168.452002 252.595625 
L 168.808499 252.595625 
L 168.808499 252.068939 
L 169.143315 252.068939 
L 169.143315 251.542253 
L 169.841835 251.542253 
L 169.841835 251.015567 
L 170.655397 251.015567 
L 170.655397 250.488881 
L 172.230511 250.488881 
L 172.230511 249.962195 
L 172.696997 249.962195 
L 172.696997 249.435508 
L 172.96307 249.435508 
L 172.96307 248.908822 
L 173.909038 248.908822 
L 173.909038 248.382136 
L 177.040942 248.382136 
L 177.090809 247.328764 
L 180.047327 247.328764 
L 180.047327 246.802078 
L 182.089786 246.802078 
L 182.089786 246.275392 
L 182.624282 246.275392 
L 182.624282 245.748706 
L 183.036979 245.748706 
L 183.036979 245.22202 
L 183.446541 245.22202 
L 183.446541 244.695334 
L 183.832928 244.695334 
L 183.832928 244.168648 
L 186.358464 244.168648 
L 186.358464 243.641962 
L 186.594258 243.641962 
L 186.594258 243.115275 
L 187.114715 243.115275 
L 187.114715 242.588589 
L 187.483428 242.588589 
L 187.483428 242.061903 
L 190.21868 242.061903 
L 190.21868 241.535217 
L 190.477377 241.535217 
L 190.477377 241.008531 
L 191.109463 241.008531 
L 191.109463 240.481845 
L 191.405758 240.481845 
L 191.405758 239.955159 
L 192.127531 239.955159 
L 192.127531 239.428473 
L 192.275628 239.428473 
L 192.368034 237.848415 
L 192.459952 237.848415 
L 192.534662 236.795043 
L 192.674828 236.795043 
L 192.762145 235.74167 
L 192.823607 235.74167 
L 192.883361 234.688298 
L 193.329471 234.688298 
L 193.329471 234.161612 
L 195.200211 234.161612 
L 195.200211 233.634926 
L 195.399505 233.634926 
L 195.427882 232.581554 
L 195.517227 232.581554 
L 195.517227 232.054868 
L 196.048247 232.054868 
L 196.048247 231.528182 
L 196.360123 231.528182 
L 196.467914 229.421437 
L 196.526705 229.421437 
L 196.526705 228.894751 
L 196.665318 228.894751 
L 196.72285 227.314693 
L 196.794498 227.314693 
L 196.905568 225.734635 
L 197.079944 225.734635 
L 197.181641 224.681263 
L 197.239821 224.681263 
L 197.334239 223.627891 
L 198.302229 223.627891 
L 198.302229 223.101204 
L 198.930715 223.101204 
L 199.015381 220.99446 
L 199.150206 220.99446 
L 199.191801 219.941088 
L 199.271593 219.941088 
L 199.335577 218.36103 
L 199.383412 218.36103 
L 199.383412 217.834344 
L 199.498601 217.834344 
L 199.498601 217.307658 
L 199.755404 217.307658 
L 199.755404 216.780971 
L 200.388373 216.780971 
L 200.388373 216.254285 
L 200.901513 216.254285 
L 200.901513 215.727599 
L 201.196563 215.727599 
L 201.196563 215.200913 
L 201.337186 215.200913 
L 201.337186 214.674227 
L 201.485338 214.674227 
L 201.574806 213.620855 
L 201.671028 213.620855 
L 201.671028 213.094169 
L 201.846735 213.094169 
L 201.875255 212.040797 
L 201.974265 212.040797 
L 202.066111 210.460738 
L 202.816906 210.460738 
L 202.923728 208.353994 
L 202.99486 208.353994 
L 203.101015 206.773936 
L 203.171015 206.773936 
L 203.252671 205.720564 
L 203.604581 205.720564 
L 203.7071 204.667192 
L 203.828139 204.667192 
L 203.828139 204.140506 
L 204.341984 204.140506 
L 204.341984 203.613819 
L 204.697041 203.613819 
L 204.697041 203.087133 
L 204.907854 203.087133 
L 205.000034 201.507075 
L 205.056889 201.507075 
L 205.134626 200.453703 
L 205.282843 200.453703 
L 205.390182 197.820273 
L 205.436346 197.820273 
L 205.538057 196.240214 
L 205.578431 196.240214 
L 205.681108 193.606784 
L 205.691844 193.606784 
L 205.791723 190.973354 
L 205.838966 190.973354 
L 205.936246 189.919981 
L 206.007357 189.919981 
L 206.007357 189.393295 
L 206.127795 189.393295 
L 206.209596 188.339923 
L 206.277529 188.339923 
L 206.351055 187.286551 
L 206.412605 187.286551 
L 206.412605 186.759865 
L 206.533695 186.759865 
L 206.614297 183.599748 
L 206.650226 183.599748 
L 206.756899 180.966318 
L 206.797909 180.966318 
L 206.892001 179.38626 
L 207.176526 179.38626 
L 207.176526 178.859574 
L 207.704308 178.859574 
L 207.804426 177.806202 
L 207.85506 177.806202 
L 207.85506 177.279515 
L 207.966882 177.279515 
L 207.966882 176.752829 
L 209.283028 176.752829 
L 209.283028 176.226143 
L 210.017374 176.226143 
L 210.017374 175.699457 
L 210.45513 175.699457 
L 210.521157 174.646085 
L 210.985198 174.646085 
L 211.065295 172.539341 
L 211.116742 172.539341 
L 211.216056 170.959282 
L 211.317658 170.959282 
L 211.317658 170.432596 
L 212.000812 170.432596 
L 212.000812 169.90591 
L 218.430429 169.90591 
L 218.510374 168.325852 
L 219.10991 168.325852 
L 219.132104 167.27248 
L 219.353649 167.27248 
L 219.353649 166.745794 
L 220.074797 166.745794 
L 220.074797 165.692422 
L 220.400263 165.692422 
L 220.495582 164.63905 
L 220.824479 164.63905 
L 220.824479 164.112363 
L 221.109497 164.112363 
L 221.109497 163.585677 
L 221.747185 163.585677 
L 221.85697 159.372189 
L 222.399607 159.372189 
L 222.441278 158.318817 
L 222.533587 158.318817 
L 222.639494 156.212072 
L 222.653432 156.212072 
L 222.699764 154.105328 
L 222.764799 154.105328 
L 222.841639 150.945211 
L 223.166816 150.945211 
L 223.263864 148.838467 
L 223.3241 148.838467 
L 223.3241 148.311781 
L 223.638311 148.311781 
L 223.638311 147.785095 
L 223.798133 147.785095 
L 223.836723 146.731723 
L 223.929244 146.731723 
L 224.014398 145.151665 
L 224.25666 145.151665 
L 224.308894 142.518234 
L 224.490735 142.518234 
L 224.55853 140.938176 
L 224.827823 140.938176 
L 224.923916 139.358118 
L 224.942074 139.358118 
L 224.942074 138.831432 
L 225.21116 138.831432 
L 225.228089 137.778059 
L 225.387116 137.778059 
L 225.490073 134.617943 
L 225.503862 134.617943 
L 225.54012 133.037885 
L 225.886491 133.037885 
L 225.926337 131.984513 
L 226.025388 131.984513 
L 226.025388 131.457826 
L 226.407773 131.457826 
L 226.407773 130.404454 
L 226.856091 130.404454 
L 226.856091 129.877768 
L 227.078834 129.877768 
L 227.157156 125.137593 
L 227.476002 125.137593 
L 227.496711 123.557535 
L 230.466732 123.557535 
L 230.466732 123.030849 
L 230.771517 123.030849 
L 230.826118 121.977477 
L 231.978977 121.977477 
L 232.002732 120.924105 
L 232.162001 120.924105 
L 232.25389 119.870733 
L 232.679666 119.870733 
L 232.750159 116.18393 
L 232.995862 116.18393 
L 233.035732 115.130558 
L 233.320447 115.130558 
L 233.425125 113.023814 
L 233.446044 113.023814 
L 233.446044 112.497128 
L 233.587514 112.497128 
L 233.648679 111.443755 
L 233.699726 111.443755 
L 233.724979 110.390383 
L 233.858381 110.390383 
L 233.858381 109.863697 
L 233.981377 109.863697 
L 234.092355 107.756953 
L 234.094952 107.756953 
L 234.201096 104.07015 
L 234.266754 104.07015 
L 234.337149 99.856662 
L 234.644985 99.856662 
L 234.644985 99.329976 
L 234.764939 99.329976 
L 234.764939 98.803289 
L 234.879243 98.803289 
L 234.879243 98.276603 
L 235.14519 98.276603 
L 235.165861 97.223231 
L 235.286493 97.223231 
L 235.323685 95.116487 
L 235.522113 95.116487 
L 235.522113 94.589801 
L 238.293043 94.589801 
L 238.305121 93.536429 
L 238.651296 93.536429 
L 238.676193 91.429684 
L 238.888186 91.429684 
L 238.987234 90.376312 
L 239.015309 90.376312 
L 239.045453 88.269568 
L 239.229048 88.269568 
L 239.251725 87.216196 
L 239.412231 87.216196 
L 239.460643 86.162824 
L 239.643055 86.162824 
L 239.676568 84.056079 
L 240.001754 84.056079 
L 240.10633 81.422649 
L 240.116271 81.422649 
L 240.180553 78.262532 
L 240.74886 78.262532 
L 240.76864 76.155788 
L 240.865922 76.155788 
L 240.878484 72.995672 
L 241.039088 72.995672 
L 241.039088 72.468985 
L 243.397523 72.468985 
L 243.397523 71.942299 
L 243.592964 71.942299 
L 243.673344 69.835555 
L 244.025514 69.835555 
L 244.130871 68.255497 
L 244.330604 68.255497 
L 244.431152 66.675439 
L 244.483028 66.675439 
L 244.512867 62.988636 
L 244.634629 62.988636 
L 244.700313 61.408578 
L 245.082318 61.408578 
L 245.16908 59.82852 
L 246.601572 59.82852 
L 246.67695 58.775147 
L 247.093819 58.775147 
L 247.093819 58.248461 
L 247.67581 58.248461 
L 247.689463 57.195089 
L 247.903859 57.195089 
L 248.000152 56.141717 
L 248.117192 56.141717 
L 248.117192 55.615031 
L 248.343578 55.615031 
L 248.343578 55.088345 
L 248.463116 55.088345 
L 248.46681 54.034973 
L 250.22963 54.034973 
L 250.22963 53.508287 
L 250.63719 53.508287 
L 250.63719 52.9816 
L 250.781578 52.9816 
L 250.852763 51.401542 
L 250.948347 51.401542 
L 250.991842 50.34817 
L 251.281237 50.34817 
L 251.281237 49.821484 
L 251.394273 49.821484 
L 251.394273 49.294798 
L 252.984966 49.294798 
L 252.984966 48.768112 
L 253.117931 48.768112 
L 253.17889 46.661368 
L 253.307195 46.661368 
L 253.37951 45.607995 
L 253.740066 45.607995 
L 253.82033 44.554623 
L 254.993437 44.554623 
L 254.993437 44.027937 
L 255.124663 44.027937 
L 255.124663 43.501251 
L 255.302568 43.501251 
L 255.302568 42.974565 
L 255.647069 42.974565 
L 255.647069 42.447879 
L 255.881614 42.447879 
L 255.942899 40.867821 
L 256.984355 40.867821 
L 256.984355 40.341135 
L 257.118986 40.341135 
L 257.118986 39.814448 
L 257.327795 39.814448 
L 257.327795 39.287762 
L 257.71139 39.287762 
L 257.788293 38.23439 
L 258.875772 38.23439 
L 258.89046 37.181018 
L 259.096286 37.181018 
L 259.096286 36.654332 
L 259.552758 36.654332 
L 259.552758 36.127646 
L 260.808409 36.127646 
L 260.808409 35.60096 
L 262.155892 35.60096 
L 262.155892 35.074274 
L 262.312873 35.074274 
L 262.312873 34.547588 
L 264.871407 34.547588 
L 264.924813 33.494215 
L 265.056851 33.494215 
L 265.056851 32.967529 
L 268.151013 32.967529 
L 268.151013 32.440843 
L 270.199861 32.440843 
L 270.199861 31.914157 
L 271.724786 31.914157 
L 271.724786 31.387471 
L 273.313827 31.387471 
L 273.313827 30.860785 
L 273.913153 30.860785 
L 273.913153 30.334099 
L 338.688 30.334099 
L 338.688 30.334099 
" style="fill:none;stroke:#000000;stroke-linecap:square;stroke-width:1.5;"/>
   </g>
   <g id="line2d_44">
    <defs>
     <path d="M 0 6 
C 1.591219 6 3.117479 5.367802 4.242641 4.242641 
C 5.367802 3.117479 6 1.591219 6 0 
C 6 -1.591219 5.367802 -3.117479 4.242641 -4.242641 
C 3.117479 -5.367802 1.591219 -6 0 -6 
C -1.591219 -6 -3.117479 -5.367802 -4.242641 -4.242641 
C -5.367802 -3.117479 -6 -1.591219 -6 0 
C -6 1.591219 -5.367802 3.117479 -4.242641 4.242641 
C -3.117479 5.367802 -1.591219 6 0 6 
z
" id="m3cbfd87e61" style="stroke:#000000;stroke-width:1.5;"/>
    </defs>
    <g>
     <use style="fill-opacity:0;stroke:#000000;stroke-width:1.5;" x="197.181641" xlink:href="#m3cbfd87e61" y="224.681263"/>
     <use style="fill-opacity:0;stroke:#000000;stroke-width:1.5;" x="244.025514" xlink:href="#m3cbfd87e61" y="69.835555"/>
     <use style="fill-opacity:0;stroke:#000000;stroke-width:1.5;" x="273.913153" xlink:href="#m3cbfd87e61" y="30.334099"/>
     <use style="fill-opacity:0;stroke:#000000;stroke-width:1.5;" x="273.913153" xlink:href="#m3cbfd87e61" y="30.334099"/>
     <use style="fill-opacity:0;stroke:#000000;stroke-width:1.5;" x="338.688" xlink:href="#m3cbfd87e61" y="30.334099"/>
    </g>
   </g>
   <g id="line2d_45">
    <path style="fill:none;stroke:#000000;stroke-linecap:square;stroke-width:1.5;"/>
    <g/>
   </g>
   <g id="line2d_46">
    <path clip-path="url(#p35521fdd2e)" d="M 218.223109 169.90591 
" style="fill:none;stroke:#000000;stroke-linecap:square;stroke-width:1.5;"/>
    <defs>
     <path d="M -12 12 
L 12 -12 
M -12 -12 
L 12 12 
" id="m7f7c548176" style="stroke:#000000;"/>
    </defs>
    <g clip-path="url(#p35521fdd2e)">
     <use style="stroke:#000000;" x="218.223109" xlink:href="#m7f7c548176" y="169.90591"/>
    </g>
   </g>
   <g id="line2d_47">
    <path d="M 338.688 30.334099 
L 369.60768 293.571802 
" style="fill:none;stroke:#000000;stroke-linecap:square;stroke-width:1.5;"/>
    <g>
     <use style="fill-opacity:0;stroke:#000000;stroke-width:1.5;" x="338.688" xlink:href="#m3cbfd87e61" y="30.334099"/>
     <use style="fill-opacity:0;stroke:#000000;stroke-width:1.5;" x="369.60768" xlink:href="#m3cbfd87e61" y="293.571802"/>
    </g>
   </g>
   <g id="line2d_48">
    <path d="M 338.688 30.334099 
L 369.60768 207.616634 
" style="fill:none;stroke:#0000ff;stroke-linecap:square;stroke-width:1.5;"/>
    <g>
     <use style="fill-opacity:0;stroke:#0000ff;stroke-linejoin:bevel;stroke-width:1.5;" x="338.688" xlink:href="#m04ca0083f7" y="30.334099"/>
     <use style="fill-opacity:0;stroke:#0000ff;stroke-linejoin:bevel;stroke-width:1.5;" x="369.60768" xlink:href="#m04ca0083f7" y="207.616634"/>
    </g>
   </g>
   <g id="line2d_49">
    <path d="M 338.688 30.334099 
L 369.60768 121.661465 
" style="fill:none;stroke:#008000;stroke-linecap:square;stroke-width:1.5;"/>
    <g>
     <use style="fill-opacity:0;stroke:#008000;stroke-linejoin:miter;stroke-width:1.5;" x="338.688" xlink:href="#mb692fee11b" y="30.334099"/>
     <use style="fill-opacity:0;stroke:#008000;stroke-linejoin:miter;stroke-width:1.5;" x="369.60768" xlink:href="#mb692fee11b" y="121.661465"/>
    </g>
   </g>
   <g id="line2d_50">
    <path d="M 338.688 30.334099 
L 369.60768 35.706297 
" style="fill:none;stroke:#00bfbf;stroke-linecap:square;stroke-width:1.5;"/>
    <g>
     <use style="fill-opacity:0;stroke:#00bfbf;stroke-width:1.5;" x="338.688" xlink:href="#me8c076204c" y="30.334099"/>
     <use style="fill-opacity:0;stroke:#00bfbf;stroke-width:1.5;" x="369.60768" xlink:href="#me8c076204c" y="35.706297"/>
    </g>
   </g>
   <g id="line2d_51">
    <path d="M 338.688 298.944 
L 338.688 30.334099 
" style="fill:none;stroke:#000000;stroke-linecap:square;stroke-width:1.5;"/>
   </g>
   <g id="patch_3">
    <path d="M 57.6 298.944 
L 57.6 27.648 
" style="fill:none;stroke:#000000;stroke-linecap:square;stroke-linejoin:miter;stroke-width:0.8;"/>
   </g>
   <g id="patch_4">
    <path d="M 338.688 298.944 
L 338.688 27.648 
" style="fill:none;stroke:#000000;stroke-linecap:square;stroke-linejoin:miter;stroke-width:0.8;"/>
   </g>
   <g id="patch_5">
    <path d="M 57.6 298.944 
L 338.688 298.944 
" style="fill:none;stroke:#000000;stroke-linecap:square;stroke-linejoin:miter;stroke-width:0.8;"/>
   </g>
   <g id="patch_6">
    <path d="M 57.6 27.648 
L 338.688 27.648 
" style="fill:none;stroke:#000000;stroke-linecap:square;stroke-linejoin:miter;stroke-width:0.8;"/>
   </g>
   <g id="text_13">
    <!-- 10-D -->
    <g transform="translate(375.22944 298.262739)scale(0.17 -0.17)">
     <defs>
      <path d="M 19.671875 64.796875 
L 19.671875 8.109375 
L 31.59375 8.109375 
Q 46.6875 8.109375 53.6875 14.9375 
Q 60.6875 21.78125 60.6875 36.53125 
Q 60.6875 51.171875 53.6875 57.984375 
Q 46.6875 64.796875 31.59375 64.796875 
z
M 9.8125 72.90625 
L 30.078125 72.90625 
Q 51.265625 72.90625 61.171875 64.09375 
Q 71.09375 55.28125 71.09375 36.53125 
Q 71.09375 17.671875 61.125 8.828125 
Q 51.171875 0 30.078125 0 
L 9.8125 0 
z
" id="DejaVuSans-68"/>
     </defs>
     <use xlink:href="#DejaVuSans-49"/>
     <use x="63.623047" xlink:href="#DejaVuSans-48"/>
     <use x="127.246094" xlink:href="#DejaVuSans-45"/>
     <use x="163.330078" xlink:href="#DejaVuSans-68"/>
    </g>
   </g>
   <g id="text_14">
    <!-- 5-D -->
    <g transform="translate(375.22944 212.307571)scale(0.17 -0.17)">
     <defs>
      <path d="M 10.796875 72.90625 
L 49.515625 72.90625 
L 49.515625 64.59375 
L 19.828125 64.59375 
L 19.828125 46.734375 
Q 21.96875 47.46875 24.109375 47.828125 
Q 26.265625 48.1875 28.421875 48.1875 
Q 40.625 48.1875 47.75 41.5 
Q 54.890625 34.8125 54.890625 23.390625 
Q 54.890625 11.625 47.5625 5.09375 
Q 40.234375 -1.421875 26.90625 -1.421875 
Q 22.3125 -1.421875 17.546875 -0.640625 
Q 12.796875 0.140625 7.71875 1.703125 
L 7.71875 11.625 
Q 12.109375 9.234375 16.796875 8.0625 
Q 21.484375 6.890625 26.703125 6.890625 
Q 35.15625 6.890625 40.078125 11.328125 
Q 45.015625 15.765625 45.015625 23.390625 
Q 45.015625 31 40.078125 35.4375 
Q 35.15625 39.890625 26.703125 39.890625 
Q 22.75 39.890625 18.8125 39.015625 
Q 14.890625 38.140625 10.796875 36.28125 
z
" id="DejaVuSans-53"/>
     </defs>
     <use xlink:href="#DejaVuSans-53"/>
     <use x="63.623047" xlink:href="#DejaVuSans-45"/>
     <use x="99.707031" xlink:href="#DejaVuSans-68"/>
    </g>
   </g>
   <g id="text_15">
    <!-- 3-D -->
    <g transform="translate(375.22944 126.352403)scale(0.17 -0.17)">
     <defs>
      <path d="M 40.578125 39.3125 
Q 47.65625 37.796875 51.625 33 
Q 55.609375 28.21875 55.609375 21.1875 
Q 55.609375 10.40625 48.1875 4.484375 
Q 40.765625 -1.421875 27.09375 -1.421875 
Q 22.515625 -1.421875 17.65625 -0.515625 
Q 12.796875 0.390625 7.625 2.203125 
L 7.625 11.71875 
Q 11.71875 9.328125 16.59375 8.109375 
Q 21.484375 6.890625 26.8125 6.890625 
Q 36.078125 6.890625 40.9375 10.546875 
Q 45.796875 14.203125 45.796875 21.1875 
Q 45.796875 27.640625 41.28125 31.265625 
Q 36.765625 34.90625 28.71875 34.90625 
L 20.21875 34.90625 
L 20.21875 43.015625 
L 29.109375 43.015625 
Q 36.375 43.015625 40.234375 45.921875 
Q 44.09375 48.828125 44.09375 54.296875 
Q 44.09375 59.90625 40.109375 62.90625 
Q 36.140625 65.921875 28.71875 65.921875 
Q 24.65625 65.921875 20.015625 65.03125 
Q 15.375 64.15625 9.8125 62.3125 
L 9.8125 71.09375 
Q 15.4375 72.65625 20.34375 73.4375 
Q 25.25 74.21875 29.59375 74.21875 
Q 40.828125 74.21875 47.359375 69.109375 
Q 53.90625 64.015625 53.90625 55.328125 
Q 53.90625 49.265625 50.4375 45.09375 
Q 46.96875 40.921875 40.578125 39.3125 
z
" id="DejaVuSans-51"/>
     </defs>
     <use xlink:href="#DejaVuSans-51"/>
     <use x="63.623047" xlink:href="#DejaVuSans-45"/>
     <use x="99.707031" xlink:href="#DejaVuSans-68"/>
    </g>
   </g>
   <g id="text_16">
    <!-- 2-D -->
    <g transform="translate(375.22944 40.397235)scale(0.17 -0.17)">
     <use xlink:href="#DejaVuSans-50"/>
     <use x="63.623047" xlink:href="#DejaVuSans-45"/>
     <use x="99.707031" xlink:href="#DejaVuSans-68"/>
    </g>
   </g>
   <g id="text_17">
    <!-- bbob f13 -->
    <g transform="translate(60.41088 38.111366)scale(0.102 -0.102)">
     <defs>
      <path d="M 48.6875 27.296875 
Q 48.6875 37.203125 44.609375 42.84375 
Q 40.53125 48.484375 33.40625 48.484375 
Q 26.265625 48.484375 22.1875 42.84375 
Q 18.109375 37.203125 18.109375 27.296875 
Q 18.109375 17.390625 22.1875 11.75 
Q 26.265625 6.109375 33.40625 6.109375 
Q 40.53125 6.109375 44.609375 11.75 
Q 48.6875 17.390625 48.6875 27.296875 
z
M 18.109375 46.390625 
Q 20.953125 51.265625 25.265625 53.625 
Q 29.59375 56 35.59375 56 
Q 45.5625 56 51.78125 48.09375 
Q 58.015625 40.1875 58.015625 27.296875 
Q 58.015625 14.40625 51.78125 6.484375 
Q 45.5625 -1.421875 35.59375 -1.421875 
Q 29.59375 -1.421875 25.265625 0.953125 
Q 20.953125 3.328125 18.109375 8.203125 
L 18.109375 0 
L 9.078125 0 
L 9.078125 75.984375 
L 18.109375 75.984375 
z
" id="DejaVuSans-98"/>
     </defs>
     <use xlink:href="#DejaVuSans-98"/>
     <use x="63.476562" xlink:href="#DejaVuSans-98"/>
     <use x="126.953125" xlink:href="#DejaVuSans-111"/>
     <use x="188.134766" xlink:href="#DejaVuSans-98"/>
     <use x="251.611328" xlink:href="#DejaVuSans-32"/>
     <use x="283.398438" xlink:href="#DejaVuSans-102"/>
     <use x="318.603516" xlink:href="#DejaVuSans-49"/>
     <use x="382.226562" xlink:href="#DejaVuSans-51"/>
    </g>
    <!-- 51 targets: 100..1e-08 -->
    <g transform="translate(60.41088 49.533135)scale(0.102 -0.102)">
     <defs>
      <path d="M 11.71875 12.40625 
L 22.015625 12.40625 
L 22.015625 0 
L 11.71875 0 
z
M 11.71875 51.703125 
L 22.015625 51.703125 
L 22.015625 39.3125 
L 11.71875 39.3125 
z
" id="DejaVuSans-58"/>
     </defs>
     <use xlink:href="#DejaVuSans-53"/>
     <use x="63.623047" xlink:href="#DejaVuSans-49"/>
     <use x="127.246094" xlink:href="#DejaVuSans-32"/>
     <use x="159.033203" xlink:href="#DejaVuSans-116"/>
     <use x="198.242188" xlink:href="#DejaVuSans-97"/>
     <use x="259.521484" xlink:href="#DejaVuSans-114"/>
     <use x="298.884766" xlink:href="#DejaVuSans-103"/>
     <use x="362.361328" xlink:href="#DejaVuSans-101"/>
     <use x="423.884766" xlink:href="#DejaVuSans-116"/>
     <use x="463.09375" xlink:href="#DejaVuSans-115"/>
     <use x="515.193359" xlink:href="#DejaVuSans-58"/>
     <use x="548.884766" xlink:href="#DejaVuSans-32"/>
     <use x="580.671875" xlink:href="#DejaVuSans-49"/>
     <use x="644.294922" xlink:href="#DejaVuSans-48"/>
     <use x="707.917969" xlink:href="#DejaVuSans-48"/>
     <use x="771.541016" xlink:href="#DejaVuSans-46"/>
     <use x="803.328125" xlink:href="#DejaVuSans-46"/>
     <use x="835.115234" xlink:href="#DejaVuSans-49"/>
     <use x="898.738281" xlink:href="#DejaVuSans-101"/>
     <use x="960.261719" xlink:href="#DejaVuSans-45"/>
     <use x="996.345703" xlink:href="#DejaVuSans-48"/>
     <use x="1059.96875" xlink:href="#DejaVuSans-56"/>
    </g>
    <!-- 15 instances -->
    <g transform="translate(60.41088 60.954904)scale(0.102 -0.102)">
     <use xlink:href="#DejaVuSans-49"/>
     <use x="63.623047" xlink:href="#DejaVuSans-53"/>
     <use x="127.246094" xlink:href="#DejaVuSans-32"/>
     <use x="159.033203" xlink:href="#DejaVuSans-105"/>
     <use x="186.816406" xlink:href="#DejaVuSans-110"/>
     <use x="250.195312" xlink:href="#DejaVuSans-115"/>
     <use x="302.294922" xlink:href="#DejaVuSans-116"/>
     <use x="341.503906" xlink:href="#DejaVuSans-97"/>
     <use x="402.783203" xlink:href="#DejaVuSans-110"/>
     <use x="466.162109" xlink:href="#DejaVuSans-99"/>
     <use x="521.142578" xlink:href="#DejaVuSans-101"/>
     <use x="582.666016" xlink:href="#DejaVuSans-115"/>
    </g>
   </g>
   <g id="text_18">
    <!-- v2.4 -->
    <g style="fill:#808080;" transform="translate(187.233062 294.151352)scale(0.1 -0.1)">
     <use xlink:href="#DejaVuSans-118"/>
     <use x="59.179688" xlink:href="#DejaVuSans-50"/>
     <use x="122.802734" xlink:href="#DejaVuSans-46"/>
     <use x="154.589844" xlink:href="#DejaVuSans-52"/>
    </g>
   </g>
   <g id="text_19">
    <!-- 13 Sharp ridge -->
    <g transform="translate(124.05025 21.648)scale(0.2 -0.2)">
     <defs>
      <path d="M 53.515625 70.515625 
L 53.515625 60.890625 
Q 47.90625 63.578125 42.921875 64.890625 
Q 37.9375 66.21875 33.296875 66.21875 
Q 25.25 66.21875 20.875 63.09375 
Q 16.5 59.96875 16.5 54.203125 
Q 16.5 49.359375 19.40625 46.890625 
Q 22.3125 44.4375 30.421875 42.921875 
L 36.375 41.703125 
Q 47.40625 39.59375 52.65625 34.296875 
Q 57.90625 29 57.90625 20.125 
Q 57.90625 9.515625 50.796875 4.046875 
Q 43.703125 -1.421875 29.984375 -1.421875 
Q 24.8125 -1.421875 18.96875 -0.25 
Q 13.140625 0.921875 6.890625 3.21875 
L 6.890625 13.375 
Q 12.890625 10.015625 18.65625 8.296875 
Q 24.421875 6.59375 29.984375 6.59375 
Q 38.421875 6.59375 43.015625 9.90625 
Q 47.609375 13.234375 47.609375 19.390625 
Q 47.609375 24.75 44.3125 27.78125 
Q 41.015625 30.8125 33.5 32.328125 
L 27.484375 33.5 
Q 16.453125 35.6875 11.515625 40.375 
Q 6.59375 45.0625 6.59375 53.421875 
Q 6.59375 63.09375 13.40625 68.65625 
Q 20.21875 74.21875 32.171875 74.21875 
Q 37.3125 74.21875 42.625 73.28125 
Q 47.953125 72.359375 53.515625 70.515625 
z
" id="DejaVuSans-83"/>
      <path d="M 54.890625 33.015625 
L 54.890625 0 
L 45.90625 0 
L 45.90625 32.71875 
Q 45.90625 40.484375 42.875 44.328125 
Q 39.84375 48.1875 33.796875 48.1875 
Q 26.515625 48.1875 22.3125 43.546875 
Q 18.109375 38.921875 18.109375 30.90625 
L 18.109375 0 
L 9.078125 0 
L 9.078125 75.984375 
L 18.109375 75.984375 
L 18.109375 46.1875 
Q 21.34375 51.125 25.703125 53.5625 
Q 30.078125 56 35.796875 56 
Q 45.21875 56 50.046875 50.171875 
Q 54.890625 44.34375 54.890625 33.015625 
z
" id="DejaVuSans-104"/>
     </defs>
     <use xlink:href="#DejaVuSans-49"/>
     <use x="63.623047" xlink:href="#DejaVuSans-51"/>
     <use x="127.246094" xlink:href="#DejaVuSans-32"/>
     <use x="159.033203" xlink:href="#DejaVuSans-83"/>
     <use x="222.509766" xlink:href="#DejaVuSans-104"/>
     <use x="285.888672" xlink:href="#DejaVuSans-97"/>
     <use x="347.167969" xlink:href="#DejaVuSans-114"/>
     <use x="388.28125" xlink:href="#DejaVuSans-112"/>
     <use x="451.757812" xlink:href="#DejaVuSans-32"/>
     <use x="483.544922" xlink:href="#DejaVuSans-114"/>
     <use x="524.658203" xlink:href="#DejaVuSans-105"/>
     <use x="552.441406" xlink:href="#DejaVuSans-100"/>
     <use x="615.917969" xlink:href="#DejaVuSans-103"/>
     <use x="679.394531" xlink:href="#DejaVuSans-101"/>
    </g>
   </g>
  </g>
 </g>
 <defs>
  <clipPath id="p35521fdd2e">
   <rect height="271.296" width="281.088" x="57.6" y="27.648"/>
  </clipPath>
 </defs>
</svg>
