<?xml version="1.0" encoding="utf-8" standalone="no"?>
<!DOCTYPE svg PUBLIC "-//W3C//DTD SVG 1.1//EN"
  "http://www.w3.org/Graphics/SVG/1.1/DTD/svg11.dtd">
<!-- Created with matplotlib (https://matplotlib.org/) -->
<svg height="345.6pt" version="1.1" viewBox="0 0 460.8 345.6" width="460.8pt" xmlns="http://www.w3.org/2000/svg" xmlns:xlink="http://www.w3.org/1999/xlink">
 <metadata>
  <rdf:RDF xmlns:cc="http://creativecommons.org/ns#" xmlns:dc="http://purl.org/dc/elements/1.1/" xmlns:rdf="http://www.w3.org/1999/02/22-rdf-syntax-ns#">
   <cc:Work>
    <dc:type rdf:resource="http://purl.org/dc/dcmitype/StillImage"/>
    <dc:date>2021-06-17T01:38:50.651591</dc:date>
    <dc:format>image/svg+xml</dc:format>
    <dc:creator>
     <cc:Agent>
      <dc:title>Matplotlib v3.3.4, https://matplotlib.org/</dc:title>
     </cc:Agent>
    </dc:creator>
   </cc:Work>
  </rdf:RDF>
 </metadata>
 <defs>
  <style type="text/css">*{stroke-linecap:butt;stroke-linejoin:round;}</style>
 </defs>
 <g id="figure_1">
  <g id="patch_1">
   <path d="M 0 345.6 
L 460.8 345.6 
L 460.8 0 
L 0 0 
z
" style="fill:#ffffff;"/>
  </g>
  <g id="axes_1">
   <g id="patch_2">
    <path d="M 57.6 298.944 
L 338.688 298.944 
L 338.688 3.456 
L 57.6 3.456 
z
" style="fill:#ffffff;"/>
   </g>
   <g id="matplotlib.axis_1">
    <g id="xtick_1">
     <g id="line2d_1">
      <path clip-path="url(#p51ba67c51d)" d="M 57.6 298.944 
L 57.6 3.456 
" style="fill:none;stroke:#b0b0b0;stroke-linecap:square;stroke-width:0.8;"/>
     </g>
     <g id="line2d_2">
      <defs>
       <path d="M 0 0 
L 0 3.5 
" id="m92281dd9df" style="stroke:#000000;stroke-width:0.8;"/>
      </defs>
      <g>
       <use style="stroke:#000000;stroke-width:0.8;" x="57.6" xlink:href="#m92281dd9df" y="298.944"/>
      </g>
     </g>
     <g id="text_1">
      <!-- 0 -->
      <g transform="translate(51.2375 321.140875)scale(0.2 -0.2)">
       <defs>
        <path d="M 31.78125 66.40625 
Q 24.171875 66.40625 20.328125 58.90625 
Q 16.5 51.421875 16.5 36.375 
Q 16.5 21.390625 20.328125 13.890625 
Q 24.171875 6.390625 31.78125 6.390625 
Q 39.453125 6.390625 43.28125 13.890625 
Q 47.125 21.390625 47.125 36.375 
Q 47.125 51.421875 43.28125 58.90625 
Q 39.453125 66.40625 31.78125 66.40625 
z
M 31.78125 74.21875 
Q 44.046875 74.21875 50.515625 64.515625 
Q 56.984375 54.828125 56.984375 36.375 
Q 56.984375 17.96875 50.515625 8.265625 
Q 44.046875 -1.421875 31.78125 -1.421875 
Q 19.53125 -1.421875 13.0625 8.265625 
Q 6.59375 17.96875 6.59375 36.375 
Q 6.59375 54.828125 13.0625 64.515625 
Q 19.53125 74.21875 31.78125 74.21875 
z
" id="DejaVuSans-48"/>
       </defs>
       <use xlink:href="#DejaVuSans-48"/>
      </g>
     </g>
    </g>
    <g id="xtick_2">
     <g id="line2d_3">
      <path clip-path="url(#p51ba67c51d)" d="M 137.910857 298.944 
L 137.910857 3.456 
" style="fill:none;stroke:#b0b0b0;stroke-linecap:square;stroke-width:0.8;"/>
     </g>
     <g id="line2d_4">
      <g>
       <use style="stroke:#000000;stroke-width:0.8;" x="137.910857" xlink:href="#m92281dd9df" y="298.944"/>
      </g>
     </g>
     <g id="text_2">
      <!-- 2 -->
      <g transform="translate(131.548357 321.140875)scale(0.2 -0.2)">
       <defs>
        <path d="M 19.1875 8.296875 
L 53.609375 8.296875 
L 53.609375 0 
L 7.328125 0 
L 7.328125 8.296875 
Q 12.9375 14.109375 22.625 23.890625 
Q 32.328125 33.6875 34.8125 36.53125 
Q 39.546875 41.84375 41.421875 45.53125 
Q 43.3125 49.21875 43.3125 52.78125 
Q 43.3125 58.59375 39.234375 62.25 
Q 35.15625 65.921875 28.609375 65.921875 
Q 23.96875 65.921875 18.8125 64.3125 
Q 13.671875 62.703125 7.8125 59.421875 
L 7.8125 69.390625 
Q 13.765625 71.78125 18.9375 73 
Q 24.125 74.21875 28.421875 74.21875 
Q 39.75 74.21875 46.484375 68.546875 
Q 53.21875 62.890625 53.21875 53.421875 
Q 53.21875 48.921875 51.53125 44.890625 
Q 49.859375 40.875 45.40625 35.40625 
Q 44.1875 33.984375 37.640625 27.21875 
Q 31.109375 20.453125 19.1875 8.296875 
z
" id="DejaVuSans-50"/>
       </defs>
       <use xlink:href="#DejaVuSans-50"/>
      </g>
     </g>
    </g>
    <g id="xtick_3">
     <g id="line2d_5">
      <path clip-path="url(#p51ba67c51d)" d="M 218.221714 298.944 
L 218.221714 3.456 
" style="fill:none;stroke:#b0b0b0;stroke-linecap:square;stroke-width:0.8;"/>
     </g>
     <g id="line2d_6">
      <g>
       <use style="stroke:#000000;stroke-width:0.8;" x="218.221714" xlink:href="#m92281dd9df" y="298.944"/>
      </g>
     </g>
     <g id="text_3">
      <!-- 4 -->
      <g transform="translate(211.859214 321.140875)scale(0.2 -0.2)">
       <defs>
        <path d="M 37.796875 64.3125 
L 12.890625 25.390625 
L 37.796875 25.390625 
z
M 35.203125 72.90625 
L 47.609375 72.90625 
L 47.609375 25.390625 
L 58.015625 25.390625 
L 58.015625 17.1875 
L 47.609375 17.1875 
L 47.609375 0 
L 37.796875 0 
L 37.796875 17.1875 
L 4.890625 17.1875 
L 4.890625 26.703125 
z
" id="DejaVuSans-52"/>
       </defs>
       <use xlink:href="#DejaVuSans-52"/>
      </g>
     </g>
    </g>
    <g id="xtick_4">
     <g id="line2d_7">
      <path clip-path="url(#p51ba67c51d)" d="M 298.532571 298.944 
L 298.532571 3.456 
" style="fill:none;stroke:#b0b0b0;stroke-linecap:square;stroke-width:0.8;"/>
     </g>
     <g id="line2d_8">
      <g>
       <use style="stroke:#000000;stroke-width:0.8;" x="298.532571" xlink:href="#m92281dd9df" y="298.944"/>
      </g>
     </g>
     <g id="text_4">
      <!-- 6 -->
      <g transform="translate(292.170071 321.140875)scale(0.2 -0.2)">
       <defs>
        <path d="M 33.015625 40.375 
Q 26.375 40.375 22.484375 35.828125 
Q 18.609375 31.296875 18.609375 23.390625 
Q 18.609375 15.53125 22.484375 10.953125 
Q 26.375 6.390625 33.015625 6.390625 
Q 39.65625 6.390625 43.53125 10.953125 
Q 47.40625 15.53125 47.40625 23.390625 
Q 47.40625 31.296875 43.53125 35.828125 
Q 39.65625 40.375 33.015625 40.375 
z
M 52.59375 71.296875 
L 52.59375 62.3125 
Q 48.875 64.0625 45.09375 64.984375 
Q 41.3125 65.921875 37.59375 65.921875 
Q 27.828125 65.921875 22.671875 59.328125 
Q 17.53125 52.734375 16.796875 39.40625 
Q 19.671875 43.65625 24.015625 45.921875 
Q 28.375 48.1875 33.59375 48.1875 
Q 44.578125 48.1875 50.953125 41.515625 
Q 57.328125 34.859375 57.328125 23.390625 
Q 57.328125 12.15625 50.6875 5.359375 
Q 44.046875 -1.421875 33.015625 -1.421875 
Q 20.359375 -1.421875 13.671875 8.265625 
Q 6.984375 17.96875 6.984375 36.375 
Q 6.984375 53.65625 15.1875 63.9375 
Q 23.390625 74.21875 37.203125 74.21875 
Q 40.921875 74.21875 44.703125 73.484375 
Q 48.484375 72.75 52.59375 71.296875 
z
" id="DejaVuSans-54"/>
       </defs>
       <use xlink:href="#DejaVuSans-54"/>
      </g>
     </g>
    </g>
    <g id="xtick_5">
     <g id="line2d_9">
      <path clip-path="url(#p51ba67c51d)" d="M 97.755429 298.944 
L 97.755429 3.456 
" style="fill:none;stroke:#b0b0b0;stroke-linecap:square;stroke-width:0.8;"/>
     </g>
     <g id="line2d_10">
      <defs>
       <path d="M 0 0 
L 0 2 
" id="m60addf1e6e" style="stroke:#000000;stroke-width:0.6;"/>
      </defs>
      <g>
       <use style="stroke:#000000;stroke-width:0.6;" x="97.755429" xlink:href="#m60addf1e6e" y="298.944"/>
      </g>
     </g>
    </g>
    <g id="xtick_6">
     <g id="line2d_11">
      <path clip-path="url(#p51ba67c51d)" d="M 178.066286 298.944 
L 178.066286 3.456 
" style="fill:none;stroke:#b0b0b0;stroke-linecap:square;stroke-width:0.8;"/>
     </g>
     <g id="line2d_12">
      <g>
       <use style="stroke:#000000;stroke-width:0.6;" x="178.066286" xlink:href="#m60addf1e6e" y="298.944"/>
      </g>
     </g>
    </g>
    <g id="xtick_7">
     <g id="line2d_13">
      <path clip-path="url(#p51ba67c51d)" d="M 258.377143 298.944 
L 258.377143 3.456 
" style="fill:none;stroke:#b0b0b0;stroke-linecap:square;stroke-width:0.8;"/>
     </g>
     <g id="line2d_14">
      <g>
       <use style="stroke:#000000;stroke-width:0.6;" x="258.377143" xlink:href="#m60addf1e6e" y="298.944"/>
      </g>
     </g>
    </g>
    <g id="xtick_8">
     <g id="line2d_15">
      <path clip-path="url(#p51ba67c51d)" d="M 338.688 298.944 
L 338.688 3.456 
" style="fill:none;stroke:#b0b0b0;stroke-linecap:square;stroke-width:0.8;"/>
     </g>
     <g id="line2d_16">
      <g>
       <use style="stroke:#000000;stroke-width:0.6;" x="338.688" xlink:href="#m60addf1e6e" y="298.944"/>
      </g>
     </g>
    </g>
    <g id="text_5">
     <!-- log10(# f-evals / dimension) -->
     <g transform="translate(77.764078 342.217594)scale(0.17 -0.17)">
      <defs>
       <path d="M 9.421875 75.984375 
L 18.40625 75.984375 
L 18.40625 0 
L 9.421875 0 
z
" id="DejaVuSans-108"/>
       <path d="M 30.609375 48.390625 
Q 23.390625 48.390625 19.1875 42.75 
Q 14.984375 37.109375 14.984375 27.296875 
Q 14.984375 17.484375 19.15625 11.84375 
Q 23.34375 6.203125 30.609375 6.203125 
Q 37.796875 6.203125 41.984375 11.859375 
Q 46.1875 17.53125 46.1875 27.296875 
Q 46.1875 37.015625 41.984375 42.703125 
Q 37.796875 48.390625 30.609375 48.390625 
z
M 30.609375 56 
Q 42.328125 56 49.015625 48.375 
Q 55.71875 40.765625 55.71875 27.296875 
Q 55.71875 13.875 49.015625 6.21875 
Q 42.328125 -1.421875 30.609375 -1.421875 
Q 18.84375 -1.421875 12.171875 6.21875 
Q 5.515625 13.875 5.515625 27.296875 
Q 5.515625 40.765625 12.171875 48.375 
Q 18.84375 56 30.609375 56 
z
" id="DejaVuSans-111"/>
       <path d="M 45.40625 27.984375 
Q 45.40625 37.75 41.375 43.109375 
Q 37.359375 48.484375 30.078125 48.484375 
Q 22.859375 48.484375 18.828125 43.109375 
Q 14.796875 37.75 14.796875 27.984375 
Q 14.796875 18.265625 18.828125 12.890625 
Q 22.859375 7.515625 30.078125 7.515625 
Q 37.359375 7.515625 41.375 12.890625 
Q 45.40625 18.265625 45.40625 27.984375 
z
M 54.390625 6.78125 
Q 54.390625 -7.171875 48.1875 -13.984375 
Q 42 -20.796875 29.203125 -20.796875 
Q 24.46875 -20.796875 20.265625 -20.09375 
Q 16.0625 -19.390625 12.109375 -17.921875 
L 12.109375 -9.1875 
Q 16.0625 -11.328125 19.921875 -12.34375 
Q 23.78125 -13.375 27.78125 -13.375 
Q 36.625 -13.375 41.015625 -8.765625 
Q 45.40625 -4.15625 45.40625 5.171875 
L 45.40625 9.625 
Q 42.625 4.78125 38.28125 2.390625 
Q 33.9375 0 27.875 0 
Q 17.828125 0 11.671875 7.65625 
Q 5.515625 15.328125 5.515625 27.984375 
Q 5.515625 40.671875 11.671875 48.328125 
Q 17.828125 56 27.875 56 
Q 33.9375 56 38.28125 53.609375 
Q 42.625 51.21875 45.40625 46.390625 
L 45.40625 54.6875 
L 54.390625 54.6875 
z
" id="DejaVuSans-103"/>
       <path d="M 12.40625 8.296875 
L 28.515625 8.296875 
L 28.515625 63.921875 
L 10.984375 60.40625 
L 10.984375 69.390625 
L 28.421875 72.90625 
L 38.28125 72.90625 
L 38.28125 8.296875 
L 54.390625 8.296875 
L 54.390625 0 
L 12.40625 0 
z
" id="DejaVuSans-49"/>
       <path d="M 31 75.875 
Q 24.46875 64.65625 21.28125 53.65625 
Q 18.109375 42.671875 18.109375 31.390625 
Q 18.109375 20.125 21.3125 9.0625 
Q 24.515625 -2 31 -13.1875 
L 23.1875 -13.1875 
Q 15.875 -1.703125 12.234375 9.375 
Q 8.59375 20.453125 8.59375 31.390625 
Q 8.59375 42.28125 12.203125 53.3125 
Q 15.828125 64.359375 23.1875 75.875 
z
" id="DejaVuSans-40"/>
       <path d="M 51.125 44 
L 36.921875 44 
L 32.8125 27.6875 
L 47.125 27.6875 
z
M 43.796875 71.78125 
L 38.71875 51.515625 
L 52.984375 51.515625 
L 58.109375 71.78125 
L 65.921875 71.78125 
L 60.890625 51.515625 
L 76.125 51.515625 
L 76.125 44 
L 58.984375 44 
L 54.984375 27.6875 
L 70.515625 27.6875 
L 70.515625 20.21875 
L 53.078125 20.21875 
L 48 0 
L 40.1875 0 
L 45.21875 20.21875 
L 30.90625 20.21875 
L 25.875 0 
L 18.015625 0 
L 23.09375 20.21875 
L 7.71875 20.21875 
L 7.71875 27.6875 
L 24.90625 27.6875 
L 29 44 
L 13.28125 44 
L 13.28125 51.515625 
L 30.90625 51.515625 
L 35.890625 71.78125 
z
" id="DejaVuSans-35"/>
       <path id="DejaVuSans-32"/>
       <path d="M 37.109375 75.984375 
L 37.109375 68.5 
L 28.515625 68.5 
Q 23.6875 68.5 21.796875 66.546875 
Q 19.921875 64.59375 19.921875 59.515625 
L 19.921875 54.6875 
L 34.71875 54.6875 
L 34.71875 47.703125 
L 19.921875 47.703125 
L 19.921875 0 
L 10.890625 0 
L 10.890625 47.703125 
L 2.296875 47.703125 
L 2.296875 54.6875 
L 10.890625 54.6875 
L 10.890625 58.5 
Q 10.890625 67.625 15.140625 71.796875 
Q 19.390625 75.984375 28.609375 75.984375 
z
" id="DejaVuSans-102"/>
       <path d="M 4.890625 31.390625 
L 31.203125 31.390625 
L 31.203125 23.390625 
L 4.890625 23.390625 
z
" id="DejaVuSans-45"/>
       <path d="M 56.203125 29.59375 
L 56.203125 25.203125 
L 14.890625 25.203125 
Q 15.484375 15.921875 20.484375 11.0625 
Q 25.484375 6.203125 34.421875 6.203125 
Q 39.59375 6.203125 44.453125 7.46875 
Q 49.3125 8.734375 54.109375 11.28125 
L 54.109375 2.78125 
Q 49.265625 0.734375 44.1875 -0.34375 
Q 39.109375 -1.421875 33.890625 -1.421875 
Q 20.796875 -1.421875 13.15625 6.1875 
Q 5.515625 13.8125 5.515625 26.8125 
Q 5.515625 40.234375 12.765625 48.109375 
Q 20.015625 56 32.328125 56 
Q 43.359375 56 49.78125 48.890625 
Q 56.203125 41.796875 56.203125 29.59375 
z
M 47.21875 32.234375 
Q 47.125 39.59375 43.09375 43.984375 
Q 39.0625 48.390625 32.421875 48.390625 
Q 24.90625 48.390625 20.390625 44.140625 
Q 15.875 39.890625 15.1875 32.171875 
z
" id="DejaVuSans-101"/>
       <path d="M 2.984375 54.6875 
L 12.5 54.6875 
L 29.59375 8.796875 
L 46.6875 54.6875 
L 56.203125 54.6875 
L 35.6875 0 
L 23.484375 0 
z
" id="DejaVuSans-118"/>
       <path d="M 34.28125 27.484375 
Q 23.390625 27.484375 19.1875 25 
Q 14.984375 22.515625 14.984375 16.5 
Q 14.984375 11.71875 18.140625 8.90625 
Q 21.296875 6.109375 26.703125 6.109375 
Q 34.1875 6.109375 38.703125 11.40625 
Q 43.21875 16.703125 43.21875 25.484375 
L 43.21875 27.484375 
z
M 52.203125 31.203125 
L 52.203125 0 
L 43.21875 0 
L 43.21875 8.296875 
Q 40.140625 3.328125 35.546875 0.953125 
Q 30.953125 -1.421875 24.3125 -1.421875 
Q 15.921875 -1.421875 10.953125 3.296875 
Q 6 8.015625 6 15.921875 
Q 6 25.140625 12.171875 29.828125 
Q 18.359375 34.515625 30.609375 34.515625 
L 43.21875 34.515625 
L 43.21875 35.40625 
Q 43.21875 41.609375 39.140625 45 
Q 35.0625 48.390625 27.6875 48.390625 
Q 23 48.390625 18.546875 47.265625 
Q 14.109375 46.140625 10.015625 43.890625 
L 10.015625 52.203125 
Q 14.9375 54.109375 19.578125 55.046875 
Q 24.21875 56 28.609375 56 
Q 40.484375 56 46.34375 49.84375 
Q 52.203125 43.703125 52.203125 31.203125 
z
" id="DejaVuSans-97"/>
       <path d="M 44.28125 53.078125 
L 44.28125 44.578125 
Q 40.484375 46.53125 36.375 47.5 
Q 32.28125 48.484375 27.875 48.484375 
Q 21.1875 48.484375 17.84375 46.4375 
Q 14.5 44.390625 14.5 40.28125 
Q 14.5 37.15625 16.890625 35.375 
Q 19.28125 33.59375 26.515625 31.984375 
L 29.59375 31.296875 
Q 39.15625 29.25 43.1875 25.515625 
Q 47.21875 21.78125 47.21875 15.09375 
Q 47.21875 7.46875 41.1875 3.015625 
Q 35.15625 -1.421875 24.609375 -1.421875 
Q 20.21875 -1.421875 15.453125 -0.5625 
Q 10.6875 0.296875 5.421875 2 
L 5.421875 11.28125 
Q 10.40625 8.6875 15.234375 7.390625 
Q 20.0625 6.109375 24.8125 6.109375 
Q 31.15625 6.109375 34.5625 8.28125 
Q 37.984375 10.453125 37.984375 14.40625 
Q 37.984375 18.0625 35.515625 20.015625 
Q 33.0625 21.96875 24.703125 23.78125 
L 21.578125 24.515625 
Q 13.234375 26.265625 9.515625 29.90625 
Q 5.8125 33.546875 5.8125 39.890625 
Q 5.8125 47.609375 11.28125 51.796875 
Q 16.75 56 26.8125 56 
Q 31.78125 56 36.171875 55.265625 
Q 40.578125 54.546875 44.28125 53.078125 
z
" id="DejaVuSans-115"/>
       <path d="M 25.390625 72.90625 
L 33.6875 72.90625 
L 8.296875 -9.28125 
L 0 -9.28125 
z
" id="DejaVuSans-47"/>
       <path d="M 45.40625 46.390625 
L 45.40625 75.984375 
L 54.390625 75.984375 
L 54.390625 0 
L 45.40625 0 
L 45.40625 8.203125 
Q 42.578125 3.328125 38.25 0.953125 
Q 33.9375 -1.421875 27.875 -1.421875 
Q 17.96875 -1.421875 11.734375 6.484375 
Q 5.515625 14.40625 5.515625 27.296875 
Q 5.515625 40.1875 11.734375 48.09375 
Q 17.96875 56 27.875 56 
Q 33.9375 56 38.25 53.625 
Q 42.578125 51.265625 45.40625 46.390625 
z
M 14.796875 27.296875 
Q 14.796875 17.390625 18.875 11.75 
Q 22.953125 6.109375 30.078125 6.109375 
Q 37.203125 6.109375 41.296875 11.75 
Q 45.40625 17.390625 45.40625 27.296875 
Q 45.40625 37.203125 41.296875 42.84375 
Q 37.203125 48.484375 30.078125 48.484375 
Q 22.953125 48.484375 18.875 42.84375 
Q 14.796875 37.203125 14.796875 27.296875 
z
" id="DejaVuSans-100"/>
       <path d="M 9.421875 54.6875 
L 18.40625 54.6875 
L 18.40625 0 
L 9.421875 0 
z
M 9.421875 75.984375 
L 18.40625 75.984375 
L 18.40625 64.59375 
L 9.421875 64.59375 
z
" id="DejaVuSans-105"/>
       <path d="M 52 44.1875 
Q 55.375 50.25 60.0625 53.125 
Q 64.75 56 71.09375 56 
Q 79.640625 56 84.28125 50.015625 
Q 88.921875 44.046875 88.921875 33.015625 
L 88.921875 0 
L 79.890625 0 
L 79.890625 32.71875 
Q 79.890625 40.578125 77.09375 44.375 
Q 74.3125 48.1875 68.609375 48.1875 
Q 61.625 48.1875 57.5625 43.546875 
Q 53.515625 38.921875 53.515625 30.90625 
L 53.515625 0 
L 44.484375 0 
L 44.484375 32.71875 
Q 44.484375 40.625 41.703125 44.40625 
Q 38.921875 48.1875 33.109375 48.1875 
Q 26.21875 48.1875 22.15625 43.53125 
Q 18.109375 38.875 18.109375 30.90625 
L 18.109375 0 
L 9.078125 0 
L 9.078125 54.6875 
L 18.109375 54.6875 
L 18.109375 46.1875 
Q 21.1875 51.21875 25.484375 53.609375 
Q 29.78125 56 35.6875 56 
Q 41.65625 56 45.828125 52.96875 
Q 50 49.953125 52 44.1875 
z
" id="DejaVuSans-109"/>
       <path d="M 54.890625 33.015625 
L 54.890625 0 
L 45.90625 0 
L 45.90625 32.71875 
Q 45.90625 40.484375 42.875 44.328125 
Q 39.84375 48.1875 33.796875 48.1875 
Q 26.515625 48.1875 22.3125 43.546875 
Q 18.109375 38.921875 18.109375 30.90625 
L 18.109375 0 
L 9.078125 0 
L 9.078125 54.6875 
L 18.109375 54.6875 
L 18.109375 46.1875 
Q 21.34375 51.125 25.703125 53.5625 
Q 30.078125 56 35.796875 56 
Q 45.21875 56 50.046875 50.171875 
Q 54.890625 44.34375 54.890625 33.015625 
z
" id="DejaVuSans-110"/>
       <path d="M 8.015625 75.875 
L 15.828125 75.875 
Q 23.140625 64.359375 26.78125 53.3125 
Q 30.421875 42.28125 30.421875 31.390625 
Q 30.421875 20.453125 26.78125 9.375 
Q 23.140625 -1.703125 15.828125 -13.1875 
L 8.015625 -13.1875 
Q 14.5 -2 17.703125 9.0625 
Q 20.90625 20.125 20.90625 31.390625 
Q 20.90625 42.671875 17.703125 53.65625 
Q 14.5 64.65625 8.015625 75.875 
z
" id="DejaVuSans-41"/>
      </defs>
      <use xlink:href="#DejaVuSans-108"/>
      <use x="27.783203" xlink:href="#DejaVuSans-111"/>
      <use x="88.964844" xlink:href="#DejaVuSans-103"/>
      <use x="152.441406" xlink:href="#DejaVuSans-49"/>
      <use x="216.064453" xlink:href="#DejaVuSans-48"/>
      <use x="279.6875" xlink:href="#DejaVuSans-40"/>
      <use x="318.701172" xlink:href="#DejaVuSans-35"/>
      <use x="402.490234" xlink:href="#DejaVuSans-32"/>
      <use x="434.277344" xlink:href="#DejaVuSans-102"/>
      <use x="463.982422" xlink:href="#DejaVuSans-45"/>
      <use x="500.066406" xlink:href="#DejaVuSans-101"/>
      <use x="561.589844" xlink:href="#DejaVuSans-118"/>
      <use x="620.769531" xlink:href="#DejaVuSans-97"/>
      <use x="682.048828" xlink:href="#DejaVuSans-108"/>
      <use x="709.832031" xlink:href="#DejaVuSans-115"/>
      <use x="761.931641" xlink:href="#DejaVuSans-32"/>
      <use x="793.71875" xlink:href="#DejaVuSans-47"/>
      <use x="827.410156" xlink:href="#DejaVuSans-32"/>
      <use x="859.197266" xlink:href="#DejaVuSans-100"/>
      <use x="922.673828" xlink:href="#DejaVuSans-105"/>
      <use x="950.457031" xlink:href="#DejaVuSans-109"/>
      <use x="1047.869141" xlink:href="#DejaVuSans-101"/>
      <use x="1109.392578" xlink:href="#DejaVuSans-110"/>
      <use x="1172.771484" xlink:href="#DejaVuSans-115"/>
      <use x="1224.871094" xlink:href="#DejaVuSans-105"/>
      <use x="1252.654297" xlink:href="#DejaVuSans-111"/>
      <use x="1313.835938" xlink:href="#DejaVuSans-110"/>
      <use x="1377.214844" xlink:href="#DejaVuSans-41"/>
     </g>
    </g>
   </g>
   <g id="matplotlib.axis_2">
    <g id="ytick_1">
     <g id="line2d_17">
      <path clip-path="url(#p51ba67c51d)" d="M 57.6 298.944 
L 338.688 298.944 
" style="fill:none;stroke:#b0b0b0;stroke-linecap:square;stroke-width:0.8;"/>
     </g>
     <g id="line2d_18">
      <defs>
       <path d="M 0 0 
L -3.5 0 
" id="m2f1d55ffad" style="stroke:#000000;stroke-width:0.8;"/>
      </defs>
      <g>
       <use style="stroke:#000000;stroke-width:0.8;" x="57.6" xlink:href="#m2f1d55ffad" y="298.944"/>
      </g>
     </g>
     <g id="text_6">
      <!-- 0.0 -->
      <g transform="translate(25.155 305.02275)scale(0.16 -0.16)">
       <defs>
        <path d="M 10.6875 12.40625 
L 21 12.40625 
L 21 0 
L 10.6875 0 
z
" id="DejaVuSans-46"/>
       </defs>
       <use xlink:href="#DejaVuSans-48"/>
       <use x="63.623047" xlink:href="#DejaVuSans-46"/>
       <use x="95.410156" xlink:href="#DejaVuSans-48"/>
      </g>
     </g>
    </g>
    <g id="ytick_2">
     <g id="line2d_19">
      <path clip-path="url(#p51ba67c51d)" d="M 57.6 240.431525 
L 338.688 240.431525 
" style="fill:none;stroke:#b0b0b0;stroke-linecap:square;stroke-width:0.8;"/>
     </g>
     <g id="line2d_20">
      <g>
       <use style="stroke:#000000;stroke-width:0.8;" x="57.6" xlink:href="#m2f1d55ffad" y="240.431525"/>
      </g>
     </g>
     <g id="text_7">
      <!-- 0.2 -->
      <g transform="translate(25.155 246.510275)scale(0.16 -0.16)">
       <use xlink:href="#DejaVuSans-48"/>
       <use x="63.623047" xlink:href="#DejaVuSans-46"/>
       <use x="95.410156" xlink:href="#DejaVuSans-50"/>
      </g>
     </g>
    </g>
    <g id="ytick_3">
     <g id="line2d_21">
      <path clip-path="url(#p51ba67c51d)" d="M 57.6 181.91905 
L 338.688 181.91905 
" style="fill:none;stroke:#b0b0b0;stroke-linecap:square;stroke-width:0.8;"/>
     </g>
     <g id="line2d_22">
      <g>
       <use style="stroke:#000000;stroke-width:0.8;" x="57.6" xlink:href="#m2f1d55ffad" y="181.91905"/>
      </g>
     </g>
     <g id="text_8">
      <!-- 0.4 -->
      <g transform="translate(25.155 187.9978)scale(0.16 -0.16)">
       <use xlink:href="#DejaVuSans-48"/>
       <use x="63.623047" xlink:href="#DejaVuSans-46"/>
       <use x="95.410156" xlink:href="#DejaVuSans-52"/>
      </g>
     </g>
    </g>
    <g id="ytick_4">
     <g id="line2d_23">
      <path clip-path="url(#p51ba67c51d)" d="M 57.6 123.406574 
L 338.688 123.406574 
" style="fill:none;stroke:#b0b0b0;stroke-linecap:square;stroke-width:0.8;"/>
     </g>
     <g id="line2d_24">
      <g>
       <use style="stroke:#000000;stroke-width:0.8;" x="57.6" xlink:href="#m2f1d55ffad" y="123.406574"/>
      </g>
     </g>
     <g id="text_9">
      <!-- 0.6 -->
      <g transform="translate(25.155 129.485324)scale(0.16 -0.16)">
       <use xlink:href="#DejaVuSans-48"/>
       <use x="63.623047" xlink:href="#DejaVuSans-46"/>
       <use x="95.410156" xlink:href="#DejaVuSans-54"/>
      </g>
     </g>
    </g>
    <g id="ytick_5">
     <g id="line2d_25">
      <path clip-path="url(#p51ba67c51d)" d="M 57.6 64.894099 
L 338.688 64.894099 
" style="fill:none;stroke:#b0b0b0;stroke-linecap:square;stroke-width:0.8;"/>
     </g>
     <g id="line2d_26">
      <g>
       <use style="stroke:#000000;stroke-width:0.8;" x="57.6" xlink:href="#m2f1d55ffad" y="64.894099"/>
      </g>
     </g>
     <g id="text_10">
      <!-- 0.8 -->
      <g transform="translate(25.155 70.972849)scale(0.16 -0.16)">
       <defs>
        <path d="M 31.78125 34.625 
Q 24.75 34.625 20.71875 30.859375 
Q 16.703125 27.09375 16.703125 20.515625 
Q 16.703125 13.921875 20.71875 10.15625 
Q 24.75 6.390625 31.78125 6.390625 
Q 38.8125 6.390625 42.859375 10.171875 
Q 46.921875 13.96875 46.921875 20.515625 
Q 46.921875 27.09375 42.890625 30.859375 
Q 38.875 34.625 31.78125 34.625 
z
M 21.921875 38.8125 
Q 15.578125 40.375 12.03125 44.71875 
Q 8.5 49.078125 8.5 55.328125 
Q 8.5 64.0625 14.71875 69.140625 
Q 20.953125 74.21875 31.78125 74.21875 
Q 42.671875 74.21875 48.875 69.140625 
Q 55.078125 64.0625 55.078125 55.328125 
Q 55.078125 49.078125 51.53125 44.71875 
Q 48 40.375 41.703125 38.8125 
Q 48.828125 37.15625 52.796875 32.3125 
Q 56.78125 27.484375 56.78125 20.515625 
Q 56.78125 9.90625 50.3125 4.234375 
Q 43.84375 -1.421875 31.78125 -1.421875 
Q 19.734375 -1.421875 13.25 4.234375 
Q 6.78125 9.90625 6.78125 20.515625 
Q 6.78125 27.484375 10.78125 32.3125 
Q 14.796875 37.15625 21.921875 38.8125 
z
M 18.3125 54.390625 
Q 18.3125 48.734375 21.84375 45.5625 
Q 25.390625 42.390625 31.78125 42.390625 
Q 38.140625 42.390625 41.71875 45.5625 
Q 45.3125 48.734375 45.3125 54.390625 
Q 45.3125 60.0625 41.71875 63.234375 
Q 38.140625 66.40625 31.78125 66.40625 
Q 25.390625 66.40625 21.84375 63.234375 
Q 18.3125 60.0625 18.3125 54.390625 
z
" id="DejaVuSans-56"/>
       </defs>
       <use xlink:href="#DejaVuSans-48"/>
       <use x="63.623047" xlink:href="#DejaVuSans-46"/>
       <use x="95.410156" xlink:href="#DejaVuSans-56"/>
      </g>
     </g>
    </g>
    <g id="ytick_6">
     <g id="line2d_27">
      <path clip-path="url(#p51ba67c51d)" d="M 57.6 6.381624 
L 338.688 6.381624 
" style="fill:none;stroke:#b0b0b0;stroke-linecap:square;stroke-width:0.8;"/>
     </g>
     <g id="line2d_28">
      <g>
       <use style="stroke:#000000;stroke-width:0.8;" x="57.6" xlink:href="#m2f1d55ffad" y="6.381624"/>
      </g>
     </g>
     <g id="text_11">
      <!-- 1.0 -->
      <g transform="translate(25.155 12.460374)scale(0.16 -0.16)">
       <use xlink:href="#DejaVuSans-49"/>
       <use x="63.623047" xlink:href="#DejaVuSans-46"/>
       <use x="95.410156" xlink:href="#DejaVuSans-48"/>
      </g>
     </g>
    </g>
    <g id="text_12">
     <!-- Fraction of function,target pairs -->
     <g transform="translate(17.619531 285.585)rotate(-90)scale(0.17 -0.17)">
      <defs>
       <path d="M 9.8125 72.90625 
L 51.703125 72.90625 
L 51.703125 64.59375 
L 19.671875 64.59375 
L 19.671875 43.109375 
L 48.578125 43.109375 
L 48.578125 34.8125 
L 19.671875 34.8125 
L 19.671875 0 
L 9.8125 0 
z
" id="DejaVuSans-70"/>
       <path d="M 41.109375 46.296875 
Q 39.59375 47.171875 37.8125 47.578125 
Q 36.03125 48 33.890625 48 
Q 26.265625 48 22.1875 43.046875 
Q 18.109375 38.09375 18.109375 28.8125 
L 18.109375 0 
L 9.078125 0 
L 9.078125 54.6875 
L 18.109375 54.6875 
L 18.109375 46.1875 
Q 20.953125 51.171875 25.484375 53.578125 
Q 30.03125 56 36.53125 56 
Q 37.453125 56 38.578125 55.875 
Q 39.703125 55.765625 41.0625 55.515625 
z
" id="DejaVuSans-114"/>
       <path d="M 48.78125 52.59375 
L 48.78125 44.1875 
Q 44.96875 46.296875 41.140625 47.34375 
Q 37.3125 48.390625 33.40625 48.390625 
Q 24.65625 48.390625 19.8125 42.84375 
Q 14.984375 37.3125 14.984375 27.296875 
Q 14.984375 17.28125 19.8125 11.734375 
Q 24.65625 6.203125 33.40625 6.203125 
Q 37.3125 6.203125 41.140625 7.25 
Q 44.96875 8.296875 48.78125 10.40625 
L 48.78125 2.09375 
Q 45.015625 0.34375 40.984375 -0.53125 
Q 36.96875 -1.421875 32.421875 -1.421875 
Q 20.0625 -1.421875 12.78125 6.34375 
Q 5.515625 14.109375 5.515625 27.296875 
Q 5.515625 40.671875 12.859375 48.328125 
Q 20.21875 56 33.015625 56 
Q 37.15625 56 41.109375 55.140625 
Q 45.0625 54.296875 48.78125 52.59375 
z
" id="DejaVuSans-99"/>
       <path d="M 18.3125 70.21875 
L 18.3125 54.6875 
L 36.8125 54.6875 
L 36.8125 47.703125 
L 18.3125 47.703125 
L 18.3125 18.015625 
Q 18.3125 11.328125 20.140625 9.421875 
Q 21.96875 7.515625 27.59375 7.515625 
L 36.8125 7.515625 
L 36.8125 0 
L 27.59375 0 
Q 17.1875 0 13.234375 3.875 
Q 9.28125 7.765625 9.28125 18.015625 
L 9.28125 47.703125 
L 2.6875 47.703125 
L 2.6875 54.6875 
L 9.28125 54.6875 
L 9.28125 70.21875 
z
" id="DejaVuSans-116"/>
       <path d="M 8.5 21.578125 
L 8.5 54.6875 
L 17.484375 54.6875 
L 17.484375 21.921875 
Q 17.484375 14.15625 20.5 10.265625 
Q 23.53125 6.390625 29.59375 6.390625 
Q 36.859375 6.390625 41.078125 11.03125 
Q 45.3125 15.671875 45.3125 23.6875 
L 45.3125 54.6875 
L 54.296875 54.6875 
L 54.296875 0 
L 45.3125 0 
L 45.3125 8.40625 
Q 42.046875 3.421875 37.71875 1 
Q 33.40625 -1.421875 27.6875 -1.421875 
Q 18.265625 -1.421875 13.375 4.4375 
Q 8.5 10.296875 8.5 21.578125 
z
M 31.109375 56 
z
" id="DejaVuSans-117"/>
       <path d="M 11.71875 12.40625 
L 22.015625 12.40625 
L 22.015625 4 
L 14.015625 -11.625 
L 7.71875 -11.625 
L 11.71875 4 
z
" id="DejaVuSans-44"/>
       <path d="M 18.109375 8.203125 
L 18.109375 -20.796875 
L 9.078125 -20.796875 
L 9.078125 54.6875 
L 18.109375 54.6875 
L 18.109375 46.390625 
Q 20.953125 51.265625 25.265625 53.625 
Q 29.59375 56 35.59375 56 
Q 45.5625 56 51.78125 48.09375 
Q 58.015625 40.1875 58.015625 27.296875 
Q 58.015625 14.40625 51.78125 6.484375 
Q 45.5625 -1.421875 35.59375 -1.421875 
Q 29.59375 -1.421875 25.265625 0.953125 
Q 20.953125 3.328125 18.109375 8.203125 
z
M 48.6875 27.296875 
Q 48.6875 37.203125 44.609375 42.84375 
Q 40.53125 48.484375 33.40625 48.484375 
Q 26.265625 48.484375 22.1875 42.84375 
Q 18.109375 37.203125 18.109375 27.296875 
Q 18.109375 17.390625 22.1875 11.75 
Q 26.265625 6.109375 33.40625 6.109375 
Q 40.53125 6.109375 44.609375 11.75 
Q 48.6875 17.390625 48.6875 27.296875 
z
" id="DejaVuSans-112"/>
      </defs>
      <use xlink:href="#DejaVuSans-70"/>
      <use x="50.269531" xlink:href="#DejaVuSans-114"/>
      <use x="91.382812" xlink:href="#DejaVuSans-97"/>
      <use x="152.662109" xlink:href="#DejaVuSans-99"/>
      <use x="207.642578" xlink:href="#DejaVuSans-116"/>
      <use x="246.851562" xlink:href="#DejaVuSans-105"/>
      <use x="274.634766" xlink:href="#DejaVuSans-111"/>
      <use x="335.816406" xlink:href="#DejaVuSans-110"/>
      <use x="399.195312" xlink:href="#DejaVuSans-32"/>
      <use x="430.982422" xlink:href="#DejaVuSans-111"/>
      <use x="492.164062" xlink:href="#DejaVuSans-102"/>
      <use x="527.369141" xlink:href="#DejaVuSans-32"/>
      <use x="559.15625" xlink:href="#DejaVuSans-102"/>
      <use x="594.361328" xlink:href="#DejaVuSans-117"/>
      <use x="657.740234" xlink:href="#DejaVuSans-110"/>
      <use x="721.119141" xlink:href="#DejaVuSans-99"/>
      <use x="776.099609" xlink:href="#DejaVuSans-116"/>
      <use x="815.308594" xlink:href="#DejaVuSans-105"/>
      <use x="843.091797" xlink:href="#DejaVuSans-111"/>
      <use x="904.273438" xlink:href="#DejaVuSans-110"/>
      <use x="967.652344" xlink:href="#DejaVuSans-44"/>
      <use x="999.439453" xlink:href="#DejaVuSans-116"/>
      <use x="1038.648438" xlink:href="#DejaVuSans-97"/>
      <use x="1099.927734" xlink:href="#DejaVuSans-114"/>
      <use x="1139.291016" xlink:href="#DejaVuSans-103"/>
      <use x="1202.767578" xlink:href="#DejaVuSans-101"/>
      <use x="1264.291016" xlink:href="#DejaVuSans-116"/>
      <use x="1303.5" xlink:href="#DejaVuSans-32"/>
      <use x="1335.287109" xlink:href="#DejaVuSans-112"/>
      <use x="1398.763672" xlink:href="#DejaVuSans-97"/>
      <use x="1460.042969" xlink:href="#DejaVuSans-105"/>
      <use x="1487.826172" xlink:href="#DejaVuSans-114"/>
      <use x="1528.939453" xlink:href="#DejaVuSans-115"/>
     </g>
    </g>
   </g>
   <g id="line2d_29">
    <defs>
     <path d="M 0 1.5 
C 0.397805 1.5 0.77937 1.341951 1.06066 1.06066 
C 1.341951 0.77937 1.5 0.397805 1.5 0 
C 1.5 -0.397805 1.341951 -0.77937 1.06066 -1.06066 
C 0.77937 -1.341951 0.397805 -1.5 0 -1.5 
C -0.397805 -1.5 -0.77937 -1.341951 -1.06066 -1.06066 
C -1.341951 -0.77937 -1.5 -0.397805 -1.5 0 
C -1.5 0.397805 -1.341951 0.77937 -1.06066 1.06066 
C -0.77937 1.341951 -0.397805 1.5 0 1.5 
z
" id="m7b5e094c9d" style="stroke:#000080;"/>
    </defs>
    <g>
     <use style="fill:#000080;stroke:#000080;" x="256.959858" xlink:href="#m7b5e094c9d" y="201.423208"/>
     <use style="fill:#000080;stroke:#000080;" x="256.959858" xlink:href="#m7b5e094c9d" y="201.423208"/>
    </g>
   </g>
   <g id="line2d_30">
    <path d="M 96.86091 298.944 
L 96.86091 297.796697 
L 102.989037 297.796697 
L 102.989037 287.470966 
L 104.826449 287.470966 
L 104.826449 285.75001 
L 105.951954 285.75001 
L 105.951954 281.160797 
L 106.48859 281.160797 
L 106.48859 271.982369 
L 107.514726 271.982369 
L 107.514726 266.819504 
L 108.483824 266.819504 
L 108.483824 265.6722 
L 109.401893 265.6722 
L 109.401893 264.524897 
L 110.274038 264.524897 
L 110.274038 259.362031 
L 110.694282 259.362031 
L 110.694282 253.051863 
L 114.418861 253.051863 
L 114.418861 251.330907 
L 120.093994 251.330907 
L 120.093994 250.757256 
L 125.822869 250.757256 
L 125.822869 249.609952 
L 126.338353 249.609952 
L 126.338353 246.741694 
L 127.165014 246.741694 
L 127.165014 245.59439 
L 127.954256 245.59439 
L 127.954256 242.726132 
L 129.574256 242.726132 
L 129.574256 242.15248 
L 190.3623 242.15248 
L 190.3623 239.857873 
L 190.623135 239.857873 
L 190.712036 231.253097 
L 202.42442 231.253097 
L 202.512645 228.384839 
L 202.536239 228.384839 
L 202.536239 226.090232 
L 209.400262 226.090232 
L 209.50263 223.221973 
L 209.518436 223.221973 
L 209.518436 222.648321 
L 214.478939 222.648321 
L 214.490823 221.501018 
L 218.284383 221.501018 
L 218.345961 218.632759 
L 221.509205 218.632759 
L 221.517147 217.485456 
L 224.192633 217.485456 
L 224.192633 216.911804 
L 226.467219 216.911804 
L 226.505761 215.190849 
L 228.518734 215.190849 
L 228.558306 211.175287 
L 230.367158 211.175287 
L 230.384965 210.027984 
L 232.014597 210.027984 
L 232.046988 208.307029 
L 233.556344 208.307029 
L 233.560325 207.159725 
L 234.93538 207.159725 
L 234.949085 206.012422 
L 236.238778 206.012422 
L 236.242191 204.865118 
L 240.603823 204.865118 
L 240.613727 203.717815 
L 243.298105 203.717815 
L 243.298105 202.570511 
L 247.018185 202.570511 
L 247.018185 201.99686 
L 256.959858 201.99686 
L 256.959858 201.423208 
L 338.688 201.423208 
L 338.688 201.423208 
" style="fill:none;stroke:#000080;stroke-linecap:square;stroke-width:1.5;"/>
   </g>
   <g id="line2d_31">
    <defs>
     <path d="M 0 6 
C 1.591219 6 3.117479 5.367802 4.242641 4.242641 
C 5.367802 3.117479 6 1.591219 6 0 
C 6 -1.591219 5.367802 -3.117479 4.242641 -4.242641 
C 3.117479 -5.367802 1.591219 -6 0 -6 
C -1.591219 -6 -3.117479 -5.367802 -4.242641 -4.242641 
C -5.367802 -3.117479 -6 -1.591219 -6 0 
C -6 1.591219 -5.367802 3.117479 -4.242641 4.242641 
C -3.117479 5.367802 -1.591219 6 0 6 
z
" id="mfc7f223d8d" style="stroke:#000080;stroke-width:1.5;"/>
    </defs>
    <g>
     <use style="fill-opacity:0;stroke:#000080;stroke-width:1.5;" x="129.574256" xlink:href="#mfc7f223d8d" y="242.15248"/>
     <use style="fill-opacity:0;stroke:#000080;stroke-width:1.5;" x="230.384965" xlink:href="#mfc7f223d8d" y="210.601635"/>
     <use style="fill-opacity:0;stroke:#000080;stroke-width:1.5;" x="256.959858" xlink:href="#mfc7f223d8d" y="201.423208"/>
     <use style="fill-opacity:0;stroke:#000080;stroke-width:1.5;" x="256.959858" xlink:href="#mfc7f223d8d" y="201.423208"/>
     <use style="fill-opacity:0;stroke:#000080;stroke-width:1.5;" x="338.688" xlink:href="#mfc7f223d8d" y="201.423208"/>
    </g>
   </g>
   <g id="line2d_32">
    <path style="fill:none;stroke:#000080;stroke-linecap:square;stroke-width:1.5;"/>
    <g/>
   </g>
   <g id="line2d_33">
    <path clip-path="url(#p51ba67c51d)" d="M 190.180414 242.15248 
" style="fill:none;stroke:#000080;stroke-linecap:square;stroke-width:1.5;"/>
    <defs>
     <path d="M -12 12 
L 12 -12 
M -12 -12 
L 12 12 
" id="me08352fe25" style="stroke:#000080;"/>
    </defs>
    <g clip-path="url(#p51ba67c51d)">
     <use style="fill:#000080;stroke:#000080;" x="190.180414" xlink:href="#me08352fe25" y="242.15248"/>
    </g>
   </g>
   <g id="line2d_34">
    <defs>
     <path d="M 0 1.5 
C 0.397805 1.5 0.77937 1.341951 1.06066 1.06066 
C 1.341951 0.77937 1.5 0.397805 1.5 0 
C 1.5 -0.397805 1.341951 -0.77937 1.06066 -1.06066 
C 0.77937 -1.341951 0.397805 -1.5 0 -1.5 
C -0.397805 -1.5 -0.77937 -1.341951 -1.06066 -1.06066 
C -1.341951 -0.77937 -1.5 -0.397805 -1.5 0 
C -1.5 0.397805 -1.341951 0.77937 -1.06066 1.06066 
C -0.77937 1.341951 -0.397805 1.5 0 1.5 
z
" id="m4196abad82" style="stroke:#ff00ff;"/>
    </defs>
    <g>
     <use style="fill:#ff00ff;stroke:#ff00ff;" x="260.706565" xlink:href="#m4196abad82" y="6.381624"/>
     <use style="fill:#ff00ff;stroke:#ff00ff;" x="260.706565" xlink:href="#m4196abad82" y="6.381624"/>
    </g>
   </g>
   <g id="line2d_35">
    <path d="M 45.512012 298.944 
L 45.512012 266.819504 
L 57.6 266.819504 
L 57.6 263.377593 
L 64.67102 263.377593 
L 64.67102 262.803942 
L 69.687988 262.803942 
L 69.687988 262.23029 
L 73.579452 262.23029 
L 73.579452 260.509335 
L 83.830028 260.509335 
L 83.830028 259.362031 
L 91.535274 259.362031 
L 91.535274 256.493773 
L 93.863965 256.493773 
L 93.863965 254.772818 
L 94.921215 254.772818 
L 94.921215 253.625514 
L 96.86091 253.625514 
L 96.86091 253.051863 
L 97.755429 253.051863 
L 97.755429 252.478211 
L 105.951954 252.478211 
L 105.951954 251.904559 
L 106.48859 251.904559 
L 106.48859 251.330907 
L 108.006005 251.330907 
L 108.006005 250.183604 
L 110.274038 250.183604 
L 110.274038 249.609952 
L 110.694282 249.609952 
L 110.694282 249.036301 
L 111.505558 249.036301 
L 111.505558 248.462649 
L 113.73488 248.462649 
L 113.73488 247.888997 
L 115.711251 247.888997 
L 115.711251 247.315345 
L 116.914437 247.315345 
L 116.914437 246.741694 
L 117.765302 246.741694 
L 117.765302 245.020738 
L 120.571812 245.020738 
L 120.571812 244.447087 
L 121.712041 244.447087 
L 121.712041 243.873435 
L 124.743806 243.873435 
L 124.743806 243.299783 
L 127.165014 243.299783 
L 127.165014 242.15248 
L 127.954256 242.15248 
L 127.954256 241.005176 
L 128.709321 241.005176 
L 128.709321 236.415963 
L 129.290685 236.415963 
L 129.290685 235.268659 
L 132.060454 235.268659 
L 132.060454 234.121356 
L 133.124876 234.121356 
L 133.124876 232.400401 
L 135.076644 232.400401 
L 135.076644 231.826749 
L 135.280614 231.826749 
L 135.381712 227.811187 
L 135.780341 227.811187 
L 135.780341 223.221973 
L 137.289545 223.221973 
L 137.289545 222.648321 
L 137.997836 222.648321 
L 137.997836 221.501018 
L 138.84457 221.501018 
L 138.84457 219.780063 
L 139.333553 219.780063 
L 139.333553 215.190849 
L 140.79731 215.190849 
L 140.79731 213.469894 
L 141.017599 213.469894 
L 141.017599 211.175287 
L 142.419098 211.175287 
L 142.419098 210.027984 
L 142.949611 210.027984 
L 142.949611 209.454332 
L 190.197818 209.454332 
L 190.288908 207.733377 
L 190.3623 207.733377 
L 190.469672 203.717815 
L 190.499618 203.717815 
L 190.520976 202.570511 
L 190.644343 202.570511 
L 190.686682 195.686691 
L 190.792081 195.686691 
L 190.87176 192.818432 
L 190.905201 192.818432 
L 191.000987 185.36096 
L 191.034181 185.36096 
L 191.10038 179.624443 
L 191.178666 179.624443 
L 191.272966 175.035229 
L 202.357417 175.035229 
L 202.404994 171.019667 
L 202.501909 171.019667 
L 202.596153 165.28315 
L 202.634561 165.28315 
L 202.734451 157.825677 
L 202.77467 157.825677 
L 202.840093 153.236464 
L 209.400262 153.236464 
L 209.509816 149.220902 
L 209.545704 149.220902 
L 209.651501 141.763429 
L 209.678562 141.763429 
L 209.711264 137.174215 
L 214.40204 137.174215 
L 214.484342 131.437698 
L 214.542584 131.437698 
L 214.636012 122.832923 
L 218.284383 122.832923 
L 218.371915 117.670057 
L 218.397831 117.670057 
L 218.478784 109.638933 
L 221.457857 109.638933 
L 221.555362 99.886854 
L 221.579833 99.886854 
L 221.620064 94.150337 
L 224.161647 94.150337 
L 224.263691 83.250954 
L 224.27602 83.250954 
L 224.27602 82.103651 
L 226.4808 82.103651 
L 226.58475 72.925223 
L 228.550592 72.925223 
L 228.623261 64.894099 
L 230.384965 64.894099 
L 230.448229 56.289323 
L 232.014597 56.289323 
L 232.103331 48.831851 
L 233.530629 48.831851 
L 233.609105 44.242637 
L 234.950756 44.242637 
L 234.983802 38.50612 
L 236.226671 38.50612 
L 236.284026 34.490558 
L 237.425136 34.490558 
L 237.481867 31.048648 
L 238.579374 31.048648 
L 238.597274 29.901344 
L 239.619808 29.901344 
L 239.645097 28.180389 
L 240.628209 28.180389 
L 240.648946 25.885782 
L 241.56982 25.885782 
L 241.588554 24.164827 
L 242.461446 24.164827 
L 242.471 23.017524 
L 243.310522 23.017524 
L 243.311349 21.87022 
L 244.108317 21.87022 
L 244.120961 20.722917 
L 244.883498 20.722917 
L 244.883498 19.575613 
L 245.624778 19.575613 
L 245.642704 17.281006 
L 246.334959 17.281006 
L 246.353039 14.9864 
L 247.038745 14.9864 
L 247.038745 14.412748 
L 248.310001 14.412748 
L 248.318541 13.265444 
L 249.511965 13.265444 
L 249.520516 11.544489 
L 250.647679 11.544489 
L 250.647679 10.970838 
L 251.699742 10.970838 
L 251.700254 9.823534 
L 252.210097 9.823534 
L 252.210097 9.249882 
L 254.096952 9.249882 
L 254.096952 8.676231 
L 254.961224 8.676231 
L 254.961224 8.102579 
L 257.328109 8.102579 
L 257.342827 6.955275 
L 260.706565 6.955275 
L 260.706565 6.381624 
L 338.688 6.381624 
L 338.688 6.381624 
" style="fill:none;stroke:#ff00ff;stroke-linecap:square;stroke-width:1.5;"/>
   </g>
   <g id="line2d_36">
    <defs>
     <path d="M -0 8.485281 
L 5.091169 0 
L 0 -8.485281 
L -5.091169 -0 
z
" id="mca3c4b8e31" style="stroke:#ff00ff;stroke-linejoin:miter;stroke-width:1.5;"/>
    </defs>
    <g>
     <use style="fill-opacity:0;stroke:#ff00ff;stroke-linejoin:miter;stroke-width:1.5;" x="128.709321" xlink:href="#mca3c4b8e31" y="241.005176"/>
     <use style="fill-opacity:0;stroke:#ff00ff;stroke-linejoin:miter;stroke-width:1.5;" x="191.272966" xlink:href="#mca3c4b8e31" y="175.035229"/>
     <use style="fill-opacity:0;stroke:#ff00ff;stroke-linejoin:miter;stroke-width:1.5;" x="236.226671" xlink:href="#mca3c4b8e31" y="37.932468"/>
     <use style="fill-opacity:0;stroke:#ff00ff;stroke-linejoin:miter;stroke-width:1.5;" x="260.706565" xlink:href="#mca3c4b8e31" y="6.381624"/>
     <use style="fill-opacity:0;stroke:#ff00ff;stroke-linejoin:miter;stroke-width:1.5;" x="260.706565" xlink:href="#mca3c4b8e31" y="6.381624"/>
     <use style="fill-opacity:0;stroke:#ff00ff;stroke-linejoin:miter;stroke-width:1.5;" x="338.688" xlink:href="#mca3c4b8e31" y="6.381624"/>
    </g>
   </g>
   <g id="line2d_37">
    <path style="fill:none;stroke:#ff00ff;stroke-linecap:square;stroke-width:1.5;"/>
    <g/>
   </g>
   <g id="line2d_38">
    <path clip-path="url(#p51ba67c51d)" d="M 190.180414 209.454332 
" style="fill:none;stroke:#ff00ff;stroke-linecap:square;stroke-width:1.5;"/>
    <defs>
     <path d="M -12 12 
L 12 -12 
M -12 -12 
L 12 12 
" id="m55431e02d6" style="stroke:#ff00ff;"/>
    </defs>
    <g clip-path="url(#p51ba67c51d)">
     <use style="fill:#ff00ff;stroke:#ff00ff;" x="190.180414" xlink:href="#m55431e02d6" y="209.454332"/>
    </g>
   </g>
   <g id="line2d_39">
    <defs>
     <path d="M 0 1.5 
C 0.397805 1.5 0.77937 1.341951 1.06066 1.06066 
C 1.341951 0.77937 1.5 0.397805 1.5 0 
C 1.5 -0.397805 1.341951 -0.77937 1.06066 -1.06066 
C 0.77937 -1.341951 0.397805 -1.5 0 -1.5 
C -0.397805 -1.5 -0.77937 -1.341951 -1.06066 -1.06066 
C -1.341951 -0.77937 -1.5 -0.397805 -1.5 0 
C -1.5 0.397805 -1.341951 0.77937 -1.06066 1.06066 
C -0.77937 1.341951 -0.397805 1.5 0 1.5 
z
" id="m915475345a" style="stroke:#ff7500;"/>
    </defs>
    <g>
     <use style="fill:#ff7500;stroke:#ff7500;" x="239.603184" xlink:href="#m915475345a" y="6.381624"/>
     <use style="fill:#ff7500;stroke:#ff7500;" x="239.603184" xlink:href="#m915475345a" y="6.381624"/>
    </g>
   </g>
   <g id="line2d_40">
    <path d="M 45.512012 298.944 
L 45.512012 276.571583 
L 57.6 276.571583 
L 57.6 266.819504 
L 64.67102 266.819504 
L 64.67102 266.245852 
L 73.579452 266.245852 
L 73.579452 264.524897 
L 81.775977 264.524897 
L 81.775977 263.951245 
L 87.329581 263.951245 
L 87.329581 262.803942 
L 88.846997 262.803942 
L 88.846997 262.23029 
L 91.535274 262.23029 
L 91.535274 259.362031 
L 102.330873 259.362031 
L 102.330873 258.78838 
L 102.989037 258.78838 
L 102.989037 258.214728 
L 104.826449 258.214728 
L 104.826449 257.067425 
L 105.951954 257.067425 
L 105.951954 255.920121 
L 106.48859 255.920121 
L 106.48859 254.772818 
L 107.514726 254.772818 
L 107.514726 254.199166 
L 109.843417 254.199166 
L 109.843417 253.625514 
L 110.274038 253.625514 
L 110.274038 252.478211 
L 110.694282 252.478211 
L 110.694282 251.330907 
L 112.655818 251.330907 
L 112.655818 250.757256 
L 113.022974 250.757256 
L 113.022974 250.183604 
L 113.73488 250.183604 
L 113.73488 246.168042 
L 114.751048 246.168042 
L 114.751048 238.71057 
L 116.019919 238.71057 
L 116.019919 237.563266 
L 116.323218 237.563266 
L 116.323218 234.695008 
L 117.486268 234.695008 
L 117.486268 233.547704 
L 118.039942 233.547704 
L 118.039942 231.826749 
L 119.097192 231.826749 
L 119.097192 227.237535 
L 120.093994 227.237535 
L 120.093994 226.663884 
L 120.8059 226.663884 
L 120.8059 224.369277 
L 122.573415 224.369277 
L 122.573415 223.795625 
L 123.985457 223.795625 
L 123.985457 222.648321 
L 125.470548 222.648321 
L 125.470548 222.07467 
L 126.50685 222.07467 
L 126.50685 221.501018 
L 127.002787 221.501018 
L 127.002787 220.927366 
L 129.147151 220.927366 
L 129.147151 219.206411 
L 131.312942 219.206411 
L 131.312942 218.059108 
L 132.893889 218.059108 
L 132.893889 216.911804 
L 134.55603 216.911804 
L 134.55603 216.338153 
L 135.076644 216.338153 
L 135.076644 215.190849 
L 135.482227 215.190849 
L 135.582166 210.601635 
L 135.878591 210.601635 
L 135.878591 208.88068 
L 136.645276 208.88068 
L 136.645276 208.307029 
L 137.469333 208.307029 
L 137.469333 207.733377 
L 139.964909 207.733377 
L 139.964909 207.159725 
L 141.662245 207.159725 
L 141.662245 206.586073 
L 141.941279 206.586073 
L 142.010346 205.43877 
L 142.949611 205.43877 
L 142.949611 204.865118 
L 143.144465 204.865118 
L 143.144465 204.291467 
L 143.40093 204.291467 
L 143.40093 198.554949 
L 143.840863 198.554949 
L 143.840863 197.981298 
L 144.026061 197.981298 
L 144.026061 197.407646 
L 144.390658 197.407646 
L 144.390658 195.686691 
L 144.510517 195.686691 
L 144.510517 195.113039 
L 144.688773 195.113039 
L 144.747789 193.965736 
L 145.440832 193.965736 
L 145.440832 191.097477 
L 145.998045 191.097477 
L 145.998045 190.523825 
L 147.419225 190.523825 
L 147.419225 189.950174 
L 147.818997 189.950174 
L 147.818997 189.376522 
L 148.258051 189.376522 
L 148.258051 187.081915 
L 149.60198 187.081915 
L 149.60198 182.492701 
L 152.662192 182.492701 
L 152.736878 180.198094 
L 153.395042 180.198094 
L 153.395042 178.477139 
L 190.189118 178.477139 
L 190.241253 174.461577 
L 190.310526 174.461577 
L 190.409625 167.004105 
L 190.431094 167.004105 
L 190.503892 160.120284 
L 190.567873 160.120284 
L 190.584896 157.825677 
L 190.905201 157.825677 
L 190.938577 154.957419 
L 191.054895 154.957419 
L 191.054895 154.383767 
L 191.305647 154.383767 
L 191.407381 146.926295 
L 191.41955 146.926295 
L 191.472181 141.763429 
L 191.653151 141.763429 
L 191.689121 138.321519 
L 191.804521 138.321519 
L 191.804521 134.305957 
L 192.107273 134.305957 
L 192.177295 129.716743 
L 202.272755 129.716743 
L 202.383384 125.127529 
L 202.392032 125.127529 
L 202.471816 116.522754 
L 202.529807 116.522754 
L 202.59188 113.654495 
L 202.645215 113.654495 
L 202.751397 109.065281 
L 202.800024 109.065281 
L 202.901073 100.460506 
L 202.926244 100.460506 
L 202.926244 99.313202 
L 203.039066 99.313202 
L 203.099355 95.871292 
L 203.258431 95.871292 
L 203.295409 93.576685 
L 209.342324 93.576685 
L 209.432046 86.119213 
L 209.455125 86.119213 
L 209.514127 83.824606 
L 209.590102 83.824606 
L 209.695631 80.382695 
L 209.732558 80.382695 
L 209.780729 69.483313 
L 209.856963 69.483313 
L 209.897767 67.762358 
L 210.002852 67.762358 
L 210.005646 65.467751 
L 214.358567 65.467751 
L 214.454065 59.731234 
L 214.487583 59.731234 
L 214.549044 56.862975 
L 214.65207 56.862975 
L 214.745979 52.847413 
L 214.776816 52.847413 
L 214.877453 51.126458 
L 218.249595 51.126458 
L 218.326037 48.831851 
L 218.390924 48.831851 
L 218.50025 41.94803 
L 218.513975 41.94803 
L 218.560218 39.079772 
L 218.665942 39.079772 
L 218.665942 37.932468 
L 221.449163 37.932468 
L 221.556082 34.490558 
L 221.576237 34.490558 
L 221.64946 30.474996 
L 221.688101 30.474996 
L 221.776509 28.180389 
L 224.116931 28.180389 
L 224.224182 24.738479 
L 224.272322 24.738479 
L 224.35717 20.722917 
L 226.59824 20.722917 
L 226.655859 17.854658 
L 228.619899 17.854658 
L 228.646777 16.707355 
L 230.361073 16.707355 
L 230.453419 14.412748 
L 232.023293 14.412748 
L 232.106084 12.691793 
L 232.15204 12.691793 
L 232.189266 11.544489 
L 233.538601 11.544489 
L 233.646231 9.823534 
L 234.980133 9.823534 
L 235.041731 8.676231 
L 236.220149 8.676231 
L 236.221702 7.528927 
L 237.511606 7.528927 
L 237.511606 6.955275 
L 239.603184 6.955275 
L 239.603184 6.381624 
L 338.688 6.381624 
L 338.688 6.381624 
" style="fill:none;stroke:#ff7500;stroke-linecap:square;stroke-width:1.5;"/>
   </g>
   <g id="line2d_41">
    <defs>
     <path d="M 0 -6 
L -1.347084 -1.854102 
L -5.706339 -1.854102 
L -2.179628 0.708204 
L -3.526712 4.854102 
L -0 2.291796 
L 3.526712 4.854102 
L 2.179628 0.708204 
L 5.706339 -1.854102 
L 1.347084 -1.854102 
z
" id="m62d994bab9" style="stroke:#ff7500;stroke-linejoin:bevel;stroke-width:1.5;"/>
    </defs>
    <g>
     <use style="fill-opacity:0;stroke:#ff7500;stroke-linejoin:bevel;stroke-width:1.5;" x="91.535274" xlink:href="#m62d994bab9" y="259.362031"/>
     <use style="fill-opacity:0;stroke:#ff7500;stroke-linejoin:bevel;stroke-width:1.5;" x="147.419225" xlink:href="#m62d994bab9" y="189.950174"/>
     <use style="fill-opacity:0;stroke:#ff7500;stroke-linejoin:bevel;stroke-width:1.5;" x="209.758077" xlink:href="#m62d994bab9" y="75.21983"/>
     <use style="fill-opacity:0;stroke:#ff7500;stroke-linejoin:bevel;stroke-width:1.5;" x="239.603184" xlink:href="#m62d994bab9" y="6.955275"/>
     <use style="fill-opacity:0;stroke:#ff7500;stroke-linejoin:bevel;stroke-width:1.5;" x="239.603184" xlink:href="#m62d994bab9" y="6.381624"/>
     <use style="fill-opacity:0;stroke:#ff7500;stroke-linejoin:bevel;stroke-width:1.5;" x="338.688" xlink:href="#m62d994bab9" y="6.381624"/>
    </g>
   </g>
   <g id="line2d_42">
    <path style="fill:none;stroke:#ff7500;stroke-linecap:square;stroke-width:1.5;"/>
    <g/>
   </g>
   <g id="line2d_43">
    <path clip-path="url(#p51ba67c51d)" d="M 190.180414 178.477139 
" style="fill:none;stroke:#ff7500;stroke-linecap:square;stroke-width:1.5;"/>
    <defs>
     <path d="M -12 12 
L 12 -12 
M -12 -12 
L 12 12 
" id="mbe4c0bb044" style="stroke:#ff7500;"/>
    </defs>
    <g clip-path="url(#p51ba67c51d)">
     <use style="fill:#ff7500;stroke:#ff7500;" x="190.180414" xlink:href="#mbe4c0bb044" y="178.477139"/>
    </g>
   </g>
   <g id="line2d_44">
    <defs>
     <path d="M 0 1.5 
C 0.397805 1.5 0.77937 1.341951 1.06066 1.06066 
C 1.341951 0.77937 1.5 0.397805 1.5 0 
C 1.5 -0.397805 1.341951 -0.77937 1.06066 -1.06066 
C 0.77937 -1.341951 0.397805 -1.5 0 -1.5 
C -0.397805 -1.5 -0.77937 -1.341951 -1.06066 -1.06066 
C -1.341951 -0.77937 -1.5 -0.397805 -1.5 0 
C -1.5 0.397805 -1.341951 0.77937 -1.06066 1.06066 
C -0.77937 1.341951 -0.397805 1.5 0 1.5 
z
" id="m2359c0068a" style="stroke:#6495ed;"/>
    </defs>
    <g>
     <use style="fill:#6495ed;stroke:#6495ed;" x="237.82495" xlink:href="#m2359c0068a" y="6.381624"/>
     <use style="fill:#6495ed;stroke:#6495ed;" x="237.82495" xlink:href="#m2359c0068a" y="6.381624"/>
    </g>
   </g>
   <g id="line2d_45">
    <path d="M 45.512012 298.944 
L 45.512012 283.455404 
L 57.6 283.455404 
L 57.6 278.86619 
L 64.67102 278.86619 
L 64.67102 274.276976 
L 69.687988 274.276976 
L 69.687988 273.703324 
L 73.579452 273.703324 
L 73.579452 269.687762 
L 81.775977 269.687762 
L 81.775977 269.114111 
L 83.830028 269.114111 
L 83.830028 267.393156 
L 85.66744 267.393156 
L 85.66744 265.098549 
L 90.242884 265.098549 
L 90.242884 263.951245 
L 92.73846 263.951245 
L 92.73846 262.23029 
L 93.863965 262.23029 
L 93.863965 261.656638 
L 95.918017 261.656638 
L 95.918017 260.509335 
L 100.192776 260.509335 
L 100.192776 259.935683 
L 100.934985 259.935683 
L 100.934985 259.362031 
L 107.009204 259.362031 
L 107.009204 258.78838 
L 109.401893 258.78838 
L 109.401893 258.214728 
L 110.694282 258.214728 
L 110.694282 257.067425 
L 114.751048 257.067425 
L 114.751048 255.920121 
L 115.077025 255.920121 
L 115.077025 254.772818 
L 115.397021 254.772818 
L 115.397021 254.199166 
L 116.323218 254.199166 
L 116.323218 253.625514 
L 118.039942 253.625514 
L 118.039942 253.051863 
L 122.573415 253.051863 
L 122.573415 252.478211 
L 123.394238 252.478211 
L 123.394238 251.904559 
L 125.291682 251.904559 
L 125.291682 251.330907 
L 125.996395 251.330907 
L 125.996395 250.757256 
L 127.642832 250.757256 
L 127.642832 250.183604 
L 131.056477 250.183604 
L 131.056477 249.609952 
L 131.439773 249.609952 
L 131.439773 248.462649 
L 131.814826 248.462649 
L 131.814826 247.315345 
L 131.938072 247.315345 
L 131.938072 246.168042 
L 132.659801 246.168042 
L 132.659801 243.873435 
L 133.689303 243.873435 
L 133.689303 242.726132 
L 134.236034 242.726132 
L 134.236034 242.15248 
L 134.766144 242.15248 
L 134.766144 241.578828 
L 138.67848 241.578828 
L 138.67848 241.005176 
L 138.84457 241.005176 
L 138.84457 240.431525 
L 139.572998 240.431525 
L 139.572998 238.71057 
L 140.574203 238.71057 
L 140.574203 238.136918 
L 140.871049 238.136918 
L 140.871049 237.563266 
L 141.235139 237.563266 
L 141.235139 236.989614 
L 141.378673 236.989614 
L 141.378673 236.415963 
L 142.147664 236.415963 
L 142.147664 235.842311 
L 142.419098 235.842311 
L 142.486301 232.974052 
L 143.40093 232.974052 
L 143.464461 231.826749 
L 144.981877 231.826749 
L 144.981877 229.532142 
L 149.467659 229.532142 
L 149.467659 228.95849 
L 149.955193 228.95849 
L 149.955193 228.384839 
L 150.215485 228.384839 
L 150.301393 226.090232 
L 150.891184 226.090232 
L 150.891184 224.369277 
L 151.541675 224.369277 
L 151.581536 223.221973 
L 152.848312 223.221973 
L 152.922207 221.501018 
L 153.032466 221.501018 
L 153.069065 218.632759 
L 153.644434 218.632759 
L 153.750233 217.485456 
L 153.959927 217.485456 
L 154.063835 216.338153 
L 154.405793 216.338153 
L 154.473387 215.190849 
L 154.54072 215.190849 
L 154.54072 214.617197 
L 154.707925 214.617197 
L 154.707925 213.469894 
L 155.232454 213.469894 
L 155.232454 212.322591 
L 155.361158 212.322591 
L 155.361158 211.748939 
L 155.61575 211.748939 
L 155.61575 211.175287 
L 155.86668 211.175287 
L 155.86668 210.601635 
L 155.990803 210.601635 
L 156.083319 209.454332 
L 156.205916 209.454332 
L 156.205916 208.88068 
L 156.357959 208.88068 
L 156.448553 206.012422 
L 156.98245 206.012422 
L 156.98245 205.43877 
L 157.976006 205.43877 
L 158.086033 204.291467 
L 158.51933 204.291467 
L 158.625992 201.99686 
L 158.705563 201.99686 
L 158.732007 200.275904 
L 159.481921 200.275904 
L 159.507213 199.128601 
L 159.832723 199.128601 
L 159.882266 196.833994 
L 160.225184 196.833994 
L 160.249422 195.113039 
L 160.750792 195.113039 
L 160.844678 193.392084 
L 160.86807 193.392084 
L 160.891432 190.523825 
L 161.007772 190.523825 
L 161.007772 189.950174 
L 161.306672 189.950174 
L 161.306672 189.376522 
L 161.442917 189.376522 
L 161.442917 188.80287 
L 161.555647 188.80287 
L 161.578106 186.508263 
L 161.801118 186.508263 
L 161.911563 184.787308 
L 162.10862 184.787308 
L 162.217141 181.91905 
L 162.410793 181.91905 
L 162.453536 180.771746 
L 162.581141 180.771746 
L 162.581141 179.624443 
L 162.9377 179.624443 
L 162.9377 179.050791 
L 163.649606 179.050791 
L 163.729146 177.329836 
L 164.004716 177.329836 
L 164.082658 175.035229 
L 164.19892 175.035229 
L 164.19892 173.887925 
L 164.371873 173.887925 
L 164.371873 172.740622 
L 164.486229 172.740622 
L 164.486229 172.16697 
L 164.618704 172.16697 
L 164.618704 171.593319 
L 165.010195 171.593319 
L 165.102127 169.872363 
L 165.138764 169.872363 
L 165.138764 169.298712 
L 165.302685 169.298712 
L 165.302685 168.72506 
L 165.429123 168.72506 
L 165.500963 167.004105 
L 165.643763 167.004105 
L 165.643763 166.430453 
L 165.785402 166.430453 
L 165.785402 165.856801 
L 166.013141 165.856801 
L 166.013141 165.28315 
L 166.169082 165.28315 
L 166.203547 163.562195 
L 166.6119 163.562195 
L 166.6119 162.988543 
L 166.779265 162.988543 
L 166.779265 162.414891 
L 167.336582 162.414891 
L 167.417059 161.267588 
L 167.465168 161.267588 
L 167.497166 160.120284 
L 167.624577 160.120284 
L 167.624577 158.972981 
L 167.751064 158.972981 
L 167.751064 157.825677 
L 168.18668 157.825677 
L 168.18668 157.252026 
L 168.46108 157.252026 
L 168.46108 156.104722 
L 169.070439 156.104722 
L 169.070439 155.53107 
L 169.316986 155.53107 
L 169.316986 154.957419 
L 169.673338 154.957419 
L 169.729685 153.810115 
L 170.077786 153.810115 
L 170.119095 152.08916 
L 170.378471 152.08916 
L 170.378471 151.515508 
L 170.499999 151.515508 
L 170.59394 149.794553 
L 170.96472 149.794553 
L 170.990905 148.64725 
L 171.173108 148.64725 
L 171.250617 146.352643 
L 171.302098 146.352643 
L 171.302098 144.631688 
L 171.871027 144.631688 
L 171.871027 144.058036 
L 172.019658 144.058036 
L 172.019658 142.337081 
L 172.203683 142.337081 
L 172.203683 141.763429 
L 172.554051 141.763429 
L 172.554051 141.189778 
L 172.909242 141.189778 
L 172.909242 140.042474 
L 173.188276 140.042474 
L 173.188276 139.468822 
L 173.688525 139.468822 
L 173.688525 138.895171 
L 173.800244 138.895171 
L 173.800244 137.747867 
L 174.054514 137.747867 
L 174.054514 135.45326 
L 175.170413 135.45326 
L 175.221811 134.305957 
L 175.385274 134.305957 
L 175.385274 133.732305 
L 175.817135 133.732305 
L 175.896315 132.01135 
L 175.965303 132.01135 
L 175.965303 131.437698 
L 176.583714 131.437698 
L 176.583714 130.864047 
L 176.734949 130.864047 
L 176.838169 129.716743 
L 176.959372 129.716743 
L 176.959372 129.143091 
L 177.354379 129.143091 
L 177.354379 128.56944 
L 190.859203 128.56944 
L 190.892668 126.848485 
L 191.112764 126.848485 
L 191.211524 123.980226 
L 191.256603 123.980226 
L 191.256603 123.406574 
L 191.439811 123.406574 
L 191.439811 122.832923 
L 191.792618 122.832923 
L 191.859959 121.111967 
L 191.923102 121.111967 
L 191.989942 117.670057 
L 192.060435 117.670057 
L 192.142319 114.228147 
L 192.28952 114.228147 
L 192.385689 110.786236 
L 192.401027 110.786236 
L 192.508017 106.770674 
L 192.735094 106.770674 
L 192.84006 102.181461 
L 192.948112 102.181461 
L 193.007442 100.460506 
L 193.062882 100.460506 
L 193.16223 98.165899 
L 193.271957 98.165899 
L 193.377375 95.871292 
L 193.409962 95.871292 
L 193.500162 92.429381 
L 193.625663 92.429381 
L 193.725419 90.134775 
L 193.757362 90.134775 
L 193.77154 88.987471 
L 193.877511 88.987471 
L 193.877511 88.413819 
L 194.073618 88.413819 
L 194.10493 87.266516 
L 194.363704 87.266516 
L 194.435477 84.971909 
L 194.870008 84.971909 
L 194.976143 81.529999 
L 195.038857 81.529999 
L 195.075062 79.809044 
L 195.26798 79.809044 
L 195.26798 79.235392 
L 195.50055 79.235392 
L 195.50055 78.66174 
L 195.688843 78.66174 
L 195.764859 76.367133 
L 195.903367 76.367133 
L 196.00653 74.646178 
L 196.525494 74.646178 
L 196.549682 72.925223 
L 196.76289 72.925223 
L 196.810579 71.77792 
L 202.566222 71.77792 
L 202.566222 71.204268 
L 202.740807 71.204268 
L 202.740807 70.630616 
L 203.161505 70.630616 
L 203.264599 68.909661 
L 203.309768 68.909661 
L 203.41403 67.188706 
L 203.438472 67.188706 
L 203.521724 64.894099 
L 203.632783 64.894099 
L 203.701086 63.173144 
L 203.820972 63.173144 
L 203.930147 58.58393 
L 203.973627 58.58393 
L 203.973627 58.010278 
L 204.113213 58.010278 
L 204.21474 55.715672 
L 204.245861 55.715672 
L 204.340824 53.421065 
L 204.515824 53.421065 
L 204.613139 51.700109 
L 204.770362 51.700109 
L 204.777903 50.552806 
L 204.978432 50.552806 
L 204.997056 48.831851 
L 205.102833 48.831851 
L 205.184049 45.389941 
L 205.283209 45.389941 
L 205.381809 44.242637 
L 205.423636 44.242637 
L 205.429084 42.521682 
L 205.622304 42.521682 
L 205.727938 41.374379 
L 205.742212 41.374379 
L 205.742212 40.800727 
L 205.903762 40.800727 
L 205.903762 40.227075 
L 209.711264 40.227075 
L 209.711264 39.653423 
L 209.939877 39.653423 
L 210.04471 37.932468 
L 210.111474 37.932468 
L 210.184897 36.785165 
L 210.312991 36.785165 
L 210.333563 35.637861 
L 210.430611 35.637861 
L 210.494559 33.343255 
L 210.707828 33.343255 
L 210.806824 29.327692 
L 210.876054 29.327692 
L 210.876054 28.180389 
L 211.27927 28.180389 
L 211.336303 26.459434 
L 211.505012 26.459434 
L 211.505012 25.885782 
L 211.819997 25.885782 
L 211.819997 25.31213 
L 214.61994 25.31213 
L 214.679869 23.591175 
L 214.773628 23.591175 
L 214.773628 23.017524 
L 214.917546 23.017524 
L 214.93861 20.722917 
L 215.197718 20.722917 
L 215.303179 19.575613 
L 215.487745 19.575613 
L 215.568136 17.854658 
L 215.875076 17.854658 
L 215.875076 17.281006 
L 216.005269 17.281006 
L 216.005269 16.133703 
L 218.883883 16.133703 
L 218.883883 15.560051 
L 219.009352 15.560051 
L 219.099134 14.412748 
L 219.391035 14.412748 
L 219.473198 13.265444 
L 221.817709 13.265444 
L 221.885687 12.118141 
L 222.063579 12.118141 
L 222.063579 11.544489 
L 224.509229 11.544489 
L 224.509229 10.970838 
L 224.630411 10.970838 
L 224.630411 10.397186 
L 224.774727 10.397186 
L 224.786101 9.249882 
L 226.735778 9.249882 
L 226.735778 8.676231 
L 228.81146 8.676231 
L 228.81146 8.102579 
L 230.633234 8.102579 
L 230.633234 7.528927 
L 232.506173 7.528927 
L 232.506173 6.955275 
L 237.82495 6.955275 
L 237.82495 6.381624 
L 338.688 6.381624 
L 338.688 6.381624 
" style="fill:none;stroke:#6495ed;stroke-linecap:square;stroke-width:1.5;"/>
   </g>
   <g id="line2d_46">
    <defs>
     <path d="M -0 6 
L 6 -6 
L -6 -6 
z
" id="m62c9936264" style="stroke:#6495ed;stroke-linejoin:miter;stroke-width:1.5;"/>
    </defs>
    <g>
     <use style="fill-opacity:0;stroke:#6495ed;stroke-linejoin:miter;stroke-width:1.5;" x="110.694282" xlink:href="#m62c9936264" y="257.067425"/>
     <use style="fill-opacity:0;stroke:#6495ed;stroke-linejoin:miter;stroke-width:1.5;" x="162.9377" xlink:href="#m62c9936264" y="179.050791"/>
     <use style="fill-opacity:0;stroke:#6495ed;stroke-linejoin:miter;stroke-width:1.5;" x="211.505012" xlink:href="#m62c9936264" y="26.459434"/>
     <use style="fill-opacity:0;stroke:#6495ed;stroke-linejoin:miter;stroke-width:1.5;" x="237.82495" xlink:href="#m62c9936264" y="6.381624"/>
     <use style="fill-opacity:0;stroke:#6495ed;stroke-linejoin:miter;stroke-width:1.5;" x="237.82495" xlink:href="#m62c9936264" y="6.381624"/>
     <use style="fill-opacity:0;stroke:#6495ed;stroke-linejoin:miter;stroke-width:1.5;" x="338.688" xlink:href="#m62c9936264" y="6.381624"/>
    </g>
   </g>
   <g id="line2d_47">
    <path style="fill:none;stroke:#6495ed;stroke-linecap:square;stroke-width:1.5;"/>
    <g/>
   </g>
   <g id="line2d_48">
    <path clip-path="url(#p51ba67c51d)" d="M 190.180414 128.56944 
" style="fill:none;stroke:#6495ed;stroke-linecap:square;stroke-width:1.5;"/>
    <defs>
     <path d="M -12 12 
L 12 -12 
M -12 -12 
L 12 12 
" id="m60877bd8ad" style="stroke:#6495ed;"/>
    </defs>
    <g clip-path="url(#p51ba67c51d)">
     <use style="fill:#6495ed;stroke:#6495ed;" x="190.180414" xlink:href="#m60877bd8ad" y="128.56944"/>
    </g>
   </g>
   <g id="line2d_49">
    <defs>
     <path d="M 0 1.5 
C 0.397805 1.5 0.77937 1.341951 1.06066 1.06066 
C 1.341951 0.77937 1.5 0.397805 1.5 0 
C 1.5 -0.397805 1.341951 -0.77937 1.06066 -1.06066 
C 0.77937 -1.341951 0.397805 -1.5 0 -1.5 
C -0.397805 -1.5 -0.77937 -1.341951 -1.06066 -1.06066 
C -1.341951 -0.77937 -1.5 -0.397805 -1.5 0 
C -1.5 0.397805 -1.341951 0.77937 -1.06066 1.06066 
C -0.77937 1.341951 -0.397805 1.5 0 1.5 
z
" id="m324d3712d2" style="stroke:#ff0000;"/>
    </defs>
    <g>
     <use style="fill:#ff0000;stroke:#ff0000;" x="251.712142" xlink:href="#m324d3712d2" y="235.842311"/>
     <use style="fill:#ff0000;stroke:#ff0000;" x="251.712142" xlink:href="#m324d3712d2" y="235.842311"/>
    </g>
   </g>
   <g id="line2d_50">
    <path d="M 45.512012 298.944 
L 45.512012 283.455404 
L 57.6 283.455404 
L 57.6 281.734448 
L 64.67102 281.734448 
L 64.67102 276.571583 
L 73.579452 276.571583 
L 73.579452 273.703324 
L 76.759008 273.703324 
L 76.759008 273.129673 
L 79.447285 273.129673 
L 79.447285 272.556021 
L 81.775977 272.556021 
L 81.775977 271.982369 
L 88.846997 271.982369 
L 88.846997 270.835066 
L 96.86091 270.835066 
L 96.86091 270.261414 
L 101.646892 270.261414 
L 101.646892 269.687762 
L 110.274038 269.687762 
L 110.274038 269.114111 
L 117.202696 269.114111 
L 117.202696 268.540459 
L 123.394238 268.540459 
L 123.394238 267.966807 
L 124.368753 267.966807 
L 124.368753 266.819504 
L 127.954256 266.819504 
L 127.954256 266.245852 
L 128.107907 266.245852 
L 128.107907 265.6722 
L 131.185181 265.6722 
L 131.185181 265.098549 
L 131.439773 265.098549 
L 131.439773 264.524897 
L 132.422528 264.524897 
L 132.422528 263.951245 
L 132.893889 263.951245 
L 132.893889 263.377593 
L 135.582166 263.377593 
L 135.582166 262.803942 
L 136.361705 262.803942 
L 136.361705 262.23029 
L 137.37967 262.23029 
L 137.37967 261.656638 
L 137.997836 261.656638 
L 137.997836 261.082987 
L 142.419098 261.082987 
L 142.419098 259.935683 
L 143.144465 259.935683 
L 143.144465 259.362031 
L 190.193469 259.362031 
L 190.193469 258.78838 
L 190.443963 258.78838 
L 190.443963 258.214728 
L 190.555096 258.214728 
L 190.555096 257.067425 
L 190.576387 257.067425 
L 190.576387 255.920121 
L 190.762633 255.920121 
L 190.762633 255.346469 
L 190.804686 255.346469 
L 190.804686 254.772818 
L 190.97605 254.772818 
L 190.97605 254.199166 
L 191.00514 254.199166 
L 191.00514 253.625514 
L 191.034181 253.625514 
L 191.034181 253.051863 
L 191.272966 253.051863 
L 191.272966 251.904559 
L 202.456749 251.904559 
L 202.456749 251.330907 
L 202.467512 251.330907 
L 202.467512 250.757256 
L 202.514791 250.757256 
L 202.514791 250.183604 
L 202.59188 250.183604 
L 202.59188 249.609952 
L 202.823233 249.609952 
L 202.823233 249.036301 
L 202.898974 249.036301 
L 202.898974 247.888997 
L 209.46089 247.888997 
L 209.46089 247.315345 
L 209.472414 247.315345 
L 209.472414 246.741694 
L 209.726882 246.741694 
L 209.726882 246.168042 
L 214.558728 246.168042 
L 214.558728 245.59439 
L 214.636012 245.59439 
L 214.636012 244.447087 
L 214.674526 244.447087 
L 214.674526 243.873435 
L 218.471909 243.873435 
L 218.471909 243.299783 
L 221.562563 243.299783 
L 221.562563 242.726132 
L 221.640144 242.726132 
L 221.640144 242.15248 
L 228.628543 242.15248 
L 228.628543 241.578828 
L 230.448229 241.578828 
L 230.448229 241.005176 
L 236.284026 241.005176 
L 236.284026 240.431525 
L 236.287431 240.431525 
L 236.287431 239.857873 
L 237.481867 239.857873 
L 237.481867 239.284221 
L 241.591065 239.284221 
L 241.591065 238.71057 
L 244.139317 238.71057 
L 244.139317 238.136918 
L 244.912207 238.136918 
L 244.912207 237.563266 
L 247.044423 237.563266 
L 247.044423 236.989614 
L 251.192573 236.989614 
L 251.192573 236.415963 
L 251.712142 236.415963 
L 251.712142 235.842311 
L 338.688 235.842311 
" style="fill:none;stroke:#ff0000;stroke-linecap:square;stroke-width:1.5;"/>
   </g>
   <g id="line2d_51">
    <defs>
     <path d="M 0 -6 
L -5.196152 -3 
L -5.196152 3 
L -0 6 
L 5.196152 3 
L 5.196152 -3 
z
" id="m1b010e0a38" style="stroke:#ff0000;stroke-linejoin:miter;stroke-width:1.5;"/>
    </defs>
    <g>
     <use style="fill-opacity:0;stroke:#ff0000;stroke-linejoin:miter;stroke-width:1.5;" x="88.846997" xlink:href="#m1b010e0a38" y="270.835066"/>
     <use style="fill-opacity:0;stroke:#ff0000;stroke-linejoin:miter;stroke-width:1.5;" x="143.144465" xlink:href="#m1b010e0a38" y="259.362031"/>
     <use style="fill-opacity:0;stroke:#ff0000;stroke-linejoin:miter;stroke-width:1.5;" x="237.481867" xlink:href="#m1b010e0a38" y="239.857873"/>
     <use style="fill-opacity:0;stroke:#ff0000;stroke-linejoin:miter;stroke-width:1.5;" x="251.712142" xlink:href="#m1b010e0a38" y="235.842311"/>
     <use style="fill-opacity:0;stroke:#ff0000;stroke-linejoin:miter;stroke-width:1.5;" x="251.712142" xlink:href="#m1b010e0a38" y="235.842311"/>
     <use style="fill-opacity:0;stroke:#ff0000;stroke-linejoin:miter;stroke-width:1.5;" x="338.688" xlink:href="#m1b010e0a38" y="235.842311"/>
    </g>
   </g>
   <g id="line2d_52">
    <path style="fill:none;stroke:#ff0000;stroke-linecap:square;stroke-width:1.5;"/>
    <g/>
   </g>
   <g id="line2d_53">
    <path clip-path="url(#p51ba67c51d)" d="M 190.180414 259.362031 
" style="fill:none;stroke:#ff0000;stroke-linecap:square;stroke-width:1.5;"/>
    <defs>
     <path d="M -12 12 
L 12 -12 
M -12 -12 
L 12 12 
" id="m24019c60ac" style="stroke:#ff0000;"/>
    </defs>
    <g clip-path="url(#p51ba67c51d)">
     <use style="fill:#ff0000;stroke:#ff0000;" x="190.180414" xlink:href="#m24019c60ac" y="259.362031"/>
    </g>
   </g>
   <g id="line2d_54">
    <path d="M 338.688 235.842311 
L 369.60768 293.092752 
" style="fill:none;stroke:#ff0000;stroke-linecap:square;stroke-width:1.5;"/>
    <g>
     <use style="fill-opacity:0;stroke:#ff0000;stroke-linejoin:miter;stroke-width:1.5;" x="338.688" xlink:href="#m1b010e0a38" y="235.842311"/>
     <use style="fill-opacity:0;stroke:#ff0000;stroke-linejoin:miter;stroke-width:1.5;" x="369.60768" xlink:href="#m1b010e0a38" y="293.092752"/>
    </g>
   </g>
   <g id="line2d_55">
    <path d="M 338.688 201.423208 
L 369.60768 222.877782 
" style="fill:none;stroke:#000080;stroke-linecap:square;stroke-width:1.5;"/>
    <g>
     <use style="fill-opacity:0;stroke:#000080;stroke-width:1.5;" x="338.688" xlink:href="#mfc7f223d8d" y="201.423208"/>
     <use style="fill-opacity:0;stroke:#000080;stroke-width:1.5;" x="369.60768" xlink:href="#mfc7f223d8d" y="222.877782"/>
    </g>
   </g>
   <g id="line2d_56">
    <path d="M 338.688 6.381624 
L 369.60768 152.662812 
" style="fill:none;stroke:#ff00ff;stroke-linecap:square;stroke-width:1.5;"/>
    <g>
     <use style="fill-opacity:0;stroke:#ff00ff;stroke-linejoin:miter;stroke-width:1.5;" x="338.688" xlink:href="#mca3c4b8e31" y="6.381624"/>
     <use style="fill-opacity:0;stroke:#ff00ff;stroke-linejoin:miter;stroke-width:1.5;" x="369.60768" xlink:href="#mca3c4b8e31" y="152.662812"/>
    </g>
   </g>
   <g id="line2d_57">
    <path d="M 338.688 6.381624 
L 369.60768 82.447842 
" style="fill:none;stroke:#ff7500;stroke-linecap:square;stroke-width:1.5;"/>
    <g>
     <use style="fill-opacity:0;stroke:#ff7500;stroke-linejoin:bevel;stroke-width:1.5;" x="338.688" xlink:href="#m62d994bab9" y="6.381624"/>
     <use style="fill-opacity:0;stroke:#ff7500;stroke-linejoin:bevel;stroke-width:1.5;" x="369.60768" xlink:href="#m62d994bab9" y="82.447842"/>
    </g>
   </g>
   <g id="line2d_58">
    <path d="M 338.688 6.381624 
L 369.60768 12.232871 
" style="fill:none;stroke:#6495ed;stroke-linecap:square;stroke-width:1.5;"/>
    <g>
     <use style="fill-opacity:0;stroke:#6495ed;stroke-linejoin:miter;stroke-width:1.5;" x="338.688" xlink:href="#m62c9936264" y="6.381624"/>
     <use style="fill-opacity:0;stroke:#6495ed;stroke-linejoin:miter;stroke-width:1.5;" x="369.60768" xlink:href="#m62c9936264" y="12.232871"/>
    </g>
   </g>
   <g id="line2d_59">
    <path d="M 338.688 298.944 
L 338.688 6.381624 
" style="fill:none;stroke:#000000;stroke-linecap:square;stroke-width:1.5;"/>
   </g>
   <g id="patch_3">
    <path d="M 57.6 298.944 
L 57.6 3.456 
" style="fill:none;stroke:#000000;stroke-linecap:square;stroke-linejoin:miter;stroke-width:0.8;"/>
   </g>
   <g id="patch_4">
    <path d="M 338.688 298.944 
L 338.688 3.456 
" style="fill:none;stroke:#000000;stroke-linecap:square;stroke-linejoin:miter;stroke-width:0.8;"/>
   </g>
   <g id="patch_5">
    <path d="M 57.6 298.944 
L 338.688 298.944 
" style="fill:none;stroke:#000000;stroke-linecap:square;stroke-linejoin:miter;stroke-width:0.8;"/>
   </g>
   <g id="patch_6">
    <path d="M 57.6 3.456 
L 338.688 3.456 
" style="fill:none;stroke:#000000;stroke-linecap:square;stroke-linejoin:miter;stroke-width:0.8;"/>
   </g>
   <g id="text_13">
    <!-- f24 -->
    <g transform="translate(375.22944 297.78369)scale(0.17 -0.17)">
     <use xlink:href="#DejaVuSans-102"/>
     <use x="35.205078" xlink:href="#DejaVuSans-50"/>
     <use x="98.828125" xlink:href="#DejaVuSans-52"/>
    </g>
   </g>
   <g id="text_14">
    <!-- f20 -->
    <g transform="translate(375.22944 227.56872)scale(0.17 -0.17)">
     <use xlink:href="#DejaVuSans-102"/>
     <use x="35.205078" xlink:href="#DejaVuSans-50"/>
     <use x="98.828125" xlink:href="#DejaVuSans-48"/>
    </g>
   </g>
   <g id="text_15">
    <!-- f21 -->
    <g transform="translate(375.22944 157.353749)scale(0.17 -0.17)">
     <use xlink:href="#DejaVuSans-102"/>
     <use x="35.205078" xlink:href="#DejaVuSans-50"/>
     <use x="98.828125" xlink:href="#DejaVuSans-49"/>
    </g>
   </g>
   <g id="text_16">
    <!-- f22 -->
    <g transform="translate(375.22944 87.138779)scale(0.17 -0.17)">
     <use xlink:href="#DejaVuSans-102"/>
     <use x="35.205078" xlink:href="#DejaVuSans-50"/>
     <use x="98.828125" xlink:href="#DejaVuSans-50"/>
    </g>
   </g>
   <g id="text_17">
    <!-- f23 -->
    <g transform="translate(375.22944 16.923809)scale(0.17 -0.17)">
     <defs>
      <path d="M 40.578125 39.3125 
Q 47.65625 37.796875 51.625 33 
Q 55.609375 28.21875 55.609375 21.1875 
Q 55.609375 10.40625 48.1875 4.484375 
Q 40.765625 -1.421875 27.09375 -1.421875 
Q 22.515625 -1.421875 17.65625 -0.515625 
Q 12.796875 0.390625 7.625 2.203125 
L 7.625 11.71875 
Q 11.71875 9.328125 16.59375 8.109375 
Q 21.484375 6.890625 26.8125 6.890625 
Q 36.078125 6.890625 40.9375 10.546875 
Q 45.796875 14.203125 45.796875 21.1875 
Q 45.796875 27.640625 41.28125 31.265625 
Q 36.765625 34.90625 28.71875 34.90625 
L 20.21875 34.90625 
L 20.21875 43.015625 
L 29.109375 43.015625 
Q 36.375 43.015625 40.234375 45.921875 
Q 44.09375 48.828125 44.09375 54.296875 
Q 44.09375 59.90625 40.109375 62.90625 
Q 36.140625 65.921875 28.71875 65.921875 
Q 24.65625 65.921875 20.015625 65.03125 
Q 15.375 64.15625 9.8125 62.3125 
L 9.8125 71.09375 
Q 15.4375 72.65625 20.34375 73.4375 
Q 25.25 74.21875 29.59375 74.21875 
Q 40.828125 74.21875 47.359375 69.109375 
Q 53.90625 64.015625 53.90625 55.328125 
Q 53.90625 49.265625 50.4375 45.09375 
Q 46.96875 40.921875 40.578125 39.3125 
z
" id="DejaVuSans-51"/>
     </defs>
     <use xlink:href="#DejaVuSans-102"/>
     <use x="35.205078" xlink:href="#DejaVuSans-50"/>
     <use x="98.828125" xlink:href="#DejaVuSans-51"/>
    </g>
   </g>
   <g id="text_18">
    <!-- bbob -->
    <g transform="translate(60.41088 14.161286)scale(0.102 -0.102)">
     <defs>
      <path d="M 48.6875 27.296875 
Q 48.6875 37.203125 44.609375 42.84375 
Q 40.53125 48.484375 33.40625 48.484375 
Q 26.265625 48.484375 22.1875 42.84375 
Q 18.109375 37.203125 18.109375 27.296875 
Q 18.109375 17.390625 22.1875 11.75 
Q 26.265625 6.109375 33.40625 6.109375 
Q 40.53125 6.109375 44.609375 11.75 
Q 48.6875 17.390625 48.6875 27.296875 
z
M 18.109375 46.390625 
Q 20.953125 51.265625 25.265625 53.625 
Q 29.59375 56 35.59375 56 
Q 45.5625 56 51.78125 48.09375 
Q 58.015625 40.1875 58.015625 27.296875 
Q 58.015625 14.40625 51.78125 6.484375 
Q 45.5625 -1.421875 35.59375 -1.421875 
Q 29.59375 -1.421875 25.265625 0.953125 
Q 20.953125 3.328125 18.109375 8.203125 
L 18.109375 0 
L 9.078125 0 
L 9.078125 75.984375 
L 18.109375 75.984375 
z
" id="DejaVuSans-98"/>
     </defs>
     <use xlink:href="#DejaVuSans-98"/>
     <use x="63.476562" xlink:href="#DejaVuSans-98"/>
     <use x="126.953125" xlink:href="#DejaVuSans-111"/>
     <use x="188.134766" xlink:href="#DejaVuSans-98"/>
    </g>
    <!-- Weak structure functions, 2-D -->
    <g transform="translate(60.41088 25.583055)scale(0.102 -0.102)">
     <defs>
      <path d="M 3.328125 72.90625 
L 13.28125 72.90625 
L 28.609375 11.28125 
L 43.890625 72.90625 
L 54.984375 72.90625 
L 70.3125 11.28125 
L 85.59375 72.90625 
L 95.609375 72.90625 
L 77.296875 0 
L 64.890625 0 
L 49.515625 63.28125 
L 33.984375 0 
L 21.578125 0 
z
" id="DejaVuSans-87"/>
      <path d="M 9.078125 75.984375 
L 18.109375 75.984375 
L 18.109375 31.109375 
L 44.921875 54.6875 
L 56.390625 54.6875 
L 27.390625 29.109375 
L 57.625 0 
L 45.90625 0 
L 18.109375 26.703125 
L 18.109375 0 
L 9.078125 0 
z
" id="DejaVuSans-107"/>
      <path d="M 19.671875 64.796875 
L 19.671875 8.109375 
L 31.59375 8.109375 
Q 46.6875 8.109375 53.6875 14.9375 
Q 60.6875 21.78125 60.6875 36.53125 
Q 60.6875 51.171875 53.6875 57.984375 
Q 46.6875 64.796875 31.59375 64.796875 
z
M 9.8125 72.90625 
L 30.078125 72.90625 
Q 51.265625 72.90625 61.171875 64.09375 
Q 71.09375 55.28125 71.09375 36.53125 
Q 71.09375 17.671875 61.125 8.828125 
Q 51.171875 0 30.078125 0 
L 9.8125 0 
z
" id="DejaVuSans-68"/>
     </defs>
     <use xlink:href="#DejaVuSans-87"/>
     <use x="93.001953" xlink:href="#DejaVuSans-101"/>
     <use x="154.525391" xlink:href="#DejaVuSans-97"/>
     <use x="215.804688" xlink:href="#DejaVuSans-107"/>
     <use x="273.714844" xlink:href="#DejaVuSans-32"/>
     <use x="305.501953" xlink:href="#DejaVuSans-115"/>
     <use x="357.601562" xlink:href="#DejaVuSans-116"/>
     <use x="396.810547" xlink:href="#DejaVuSans-114"/>
     <use x="437.923828" xlink:href="#DejaVuSans-117"/>
     <use x="501.302734" xlink:href="#DejaVuSans-99"/>
     <use x="556.283203" xlink:href="#DejaVuSans-116"/>
     <use x="595.492188" xlink:href="#DejaVuSans-117"/>
     <use x="658.871094" xlink:href="#DejaVuSans-114"/>
     <use x="697.734375" xlink:href="#DejaVuSans-101"/>
     <use x="759.257812" xlink:href="#DejaVuSans-32"/>
     <use x="791.044922" xlink:href="#DejaVuSans-102"/>
     <use x="826.25" xlink:href="#DejaVuSans-117"/>
     <use x="889.628906" xlink:href="#DejaVuSans-110"/>
     <use x="953.007812" xlink:href="#DejaVuSans-99"/>
     <use x="1007.988281" xlink:href="#DejaVuSans-116"/>
     <use x="1047.197266" xlink:href="#DejaVuSans-105"/>
     <use x="1074.980469" xlink:href="#DejaVuSans-111"/>
     <use x="1136.162109" xlink:href="#DejaVuSans-110"/>
     <use x="1199.541016" xlink:href="#DejaVuSans-115"/>
     <use x="1251.640625" xlink:href="#DejaVuSans-44"/>
     <use x="1283.427734" xlink:href="#DejaVuSans-32"/>
     <use x="1315.214844" xlink:href="#DejaVuSans-50"/>
     <use x="1378.837891" xlink:href="#DejaVuSans-45"/>
     <use x="1414.921875" xlink:href="#DejaVuSans-68"/>
    </g>
    <!-- 51 targets: 100..1e-08 -->
    <g transform="translate(60.41088 37.004824)scale(0.102 -0.102)">
     <defs>
      <path d="M 10.796875 72.90625 
L 49.515625 72.90625 
L 49.515625 64.59375 
L 19.828125 64.59375 
L 19.828125 46.734375 
Q 21.96875 47.46875 24.109375 47.828125 
Q 26.265625 48.1875 28.421875 48.1875 
Q 40.625 48.1875 47.75 41.5 
Q 54.890625 34.8125 54.890625 23.390625 
Q 54.890625 11.625 47.5625 5.09375 
Q 40.234375 -1.421875 26.90625 -1.421875 
Q 22.3125 -1.421875 17.546875 -0.640625 
Q 12.796875 0.140625 7.71875 1.703125 
L 7.71875 11.625 
Q 12.109375 9.234375 16.796875 8.0625 
Q 21.484375 6.890625 26.703125 6.890625 
Q 35.15625 6.890625 40.078125 11.328125 
Q 45.015625 15.765625 45.015625 23.390625 
Q 45.015625 31 40.078125 35.4375 
Q 35.15625 39.890625 26.703125 39.890625 
Q 22.75 39.890625 18.8125 39.015625 
Q 14.890625 38.140625 10.796875 36.28125 
z
" id="DejaVuSans-53"/>
      <path d="M 11.71875 12.40625 
L 22.015625 12.40625 
L 22.015625 0 
L 11.71875 0 
z
M 11.71875 51.703125 
L 22.015625 51.703125 
L 22.015625 39.3125 
L 11.71875 39.3125 
z
" id="DejaVuSans-58"/>
     </defs>
     <use xlink:href="#DejaVuSans-53"/>
     <use x="63.623047" xlink:href="#DejaVuSans-49"/>
     <use x="127.246094" xlink:href="#DejaVuSans-32"/>
     <use x="159.033203" xlink:href="#DejaVuSans-116"/>
     <use x="198.242188" xlink:href="#DejaVuSans-97"/>
     <use x="259.521484" xlink:href="#DejaVuSans-114"/>
     <use x="298.884766" xlink:href="#DejaVuSans-103"/>
     <use x="362.361328" xlink:href="#DejaVuSans-101"/>
     <use x="423.884766" xlink:href="#DejaVuSans-116"/>
     <use x="463.09375" xlink:href="#DejaVuSans-115"/>
     <use x="515.193359" xlink:href="#DejaVuSans-58"/>
     <use x="548.884766" xlink:href="#DejaVuSans-32"/>
     <use x="580.671875" xlink:href="#DejaVuSans-49"/>
     <use x="644.294922" xlink:href="#DejaVuSans-48"/>
     <use x="707.917969" xlink:href="#DejaVuSans-48"/>
     <use x="771.541016" xlink:href="#DejaVuSans-46"/>
     <use x="803.328125" xlink:href="#DejaVuSans-46"/>
     <use x="835.115234" xlink:href="#DejaVuSans-49"/>
     <use x="898.738281" xlink:href="#DejaVuSans-101"/>
     <use x="960.261719" xlink:href="#DejaVuSans-45"/>
     <use x="996.345703" xlink:href="#DejaVuSans-48"/>
     <use x="1059.96875" xlink:href="#DejaVuSans-56"/>
    </g>
    <!-- 15 instances -->
    <g transform="translate(60.41088 48.426593)scale(0.102 -0.102)">
     <use xlink:href="#DejaVuSans-49"/>
     <use x="63.623047" xlink:href="#DejaVuSans-53"/>
     <use x="127.246094" xlink:href="#DejaVuSans-32"/>
     <use x="159.033203" xlink:href="#DejaVuSans-105"/>
     <use x="186.816406" xlink:href="#DejaVuSans-110"/>
     <use x="250.195312" xlink:href="#DejaVuSans-115"/>
     <use x="302.294922" xlink:href="#DejaVuSans-116"/>
     <use x="341.503906" xlink:href="#DejaVuSans-97"/>
     <use x="402.783203" xlink:href="#DejaVuSans-110"/>
     <use x="466.162109" xlink:href="#DejaVuSans-99"/>
     <use x="521.142578" xlink:href="#DejaVuSans-101"/>
     <use x="582.666016" xlink:href="#DejaVuSans-115"/>
    </g>
   </g>
   <g id="text_19">
    <!-- v2.4 -->
    <g style="fill:#808080;" transform="translate(187.233062 293.909432)scale(0.1 -0.1)">
     <use xlink:href="#DejaVuSans-118"/>
     <use x="59.179688" xlink:href="#DejaVuSans-50"/>
     <use x="122.802734" xlink:href="#DejaVuSans-46"/>
     <use x="154.589844" xlink:href="#DejaVuSans-52"/>
    </g>
   </g>
  </g>
 </g>
 <defs>
  <clipPath id="p51ba67c51d">
   <rect height="295.488" width="281.088" x="57.6" y="3.456"/>
  </clipPath>
 </defs>
</svg>
