<?xml version="1.0" encoding="utf-8" standalone="no"?>
<!DOCTYPE svg PUBLIC "-//W3C//DTD SVG 1.1//EN"
  "http://www.w3.org/Graphics/SVG/1.1/DTD/svg11.dtd">
<!-- Created with matplotlib (https://matplotlib.org/) -->
<svg height="345.6pt" version="1.1" viewBox="0 0 460.8 345.6" width="460.8pt" xmlns="http://www.w3.org/2000/svg" xmlns:xlink="http://www.w3.org/1999/xlink">
 <metadata>
  <rdf:RDF xmlns:cc="http://creativecommons.org/ns#" xmlns:dc="http://purl.org/dc/elements/1.1/" xmlns:rdf="http://www.w3.org/1999/02/22-rdf-syntax-ns#">
   <cc:Work>
    <dc:type rdf:resource="http://purl.org/dc/dcmitype/StillImage"/>
    <dc:date>2021-06-17T01:38:47.757172</dc:date>
    <dc:format>image/svg+xml</dc:format>
    <dc:creator>
     <cc:Agent>
      <dc:title>Matplotlib v3.3.4, https://matplotlib.org/</dc:title>
     </cc:Agent>
    </dc:creator>
   </cc:Work>
  </rdf:RDF>
 </metadata>
 <defs>
  <style type="text/css">*{stroke-linecap:butt;stroke-linejoin:round;}</style>
 </defs>
 <g id="figure_1">
  <g id="patch_1">
   <path d="M 0 345.6 
L 460.8 345.6 
L 460.8 0 
L 0 0 
z
" style="fill:#ffffff;"/>
  </g>
  <g id="axes_1">
   <g id="patch_2">
    <path d="M 57.6 298.944 
L 338.688 298.944 
L 338.688 27.648 
L 57.6 27.648 
z
" style="fill:#ffffff;"/>
   </g>
   <g id="matplotlib.axis_1">
    <g id="xtick_1">
     <g id="line2d_1">
      <path clip-path="url(#pbf53d6fdd1)" d="M 57.6 298.944 
L 57.6 27.648 
" style="fill:none;stroke:#b0b0b0;stroke-linecap:square;stroke-width:0.8;"/>
     </g>
     <g id="line2d_2">
      <defs>
       <path d="M 0 0 
L 0 3.5 
" id="m636bf42f26" style="stroke:#000000;stroke-width:0.8;"/>
      </defs>
      <g>
       <use style="stroke:#000000;stroke-width:0.8;" x="57.6" xlink:href="#m636bf42f26" y="298.944"/>
      </g>
     </g>
     <g id="text_1">
      <!-- 0 -->
      <g transform="translate(51.2375 321.140875)scale(0.2 -0.2)">
       <defs>
        <path d="M 31.78125 66.40625 
Q 24.171875 66.40625 20.328125 58.90625 
Q 16.5 51.421875 16.5 36.375 
Q 16.5 21.390625 20.328125 13.890625 
Q 24.171875 6.390625 31.78125 6.390625 
Q 39.453125 6.390625 43.28125 13.890625 
Q 47.125 21.390625 47.125 36.375 
Q 47.125 51.421875 43.28125 58.90625 
Q 39.453125 66.40625 31.78125 66.40625 
z
M 31.78125 74.21875 
Q 44.046875 74.21875 50.515625 64.515625 
Q 56.984375 54.828125 56.984375 36.375 
Q 56.984375 17.96875 50.515625 8.265625 
Q 44.046875 -1.421875 31.78125 -1.421875 
Q 19.53125 -1.421875 13.0625 8.265625 
Q 6.59375 17.96875 6.59375 36.375 
Q 6.59375 54.828125 13.0625 64.515625 
Q 19.53125 74.21875 31.78125 74.21875 
z
" id="DejaVuSans-48"/>
       </defs>
       <use xlink:href="#DejaVuSans-48"/>
      </g>
     </g>
    </g>
    <g id="xtick_2">
     <g id="line2d_3">
      <path clip-path="url(#pbf53d6fdd1)" d="M 137.910857 298.944 
L 137.910857 27.648 
" style="fill:none;stroke:#b0b0b0;stroke-linecap:square;stroke-width:0.8;"/>
     </g>
     <g id="line2d_4">
      <g>
       <use style="stroke:#000000;stroke-width:0.8;" x="137.910857" xlink:href="#m636bf42f26" y="298.944"/>
      </g>
     </g>
     <g id="text_2">
      <!-- 2 -->
      <g transform="translate(131.548357 321.140875)scale(0.2 -0.2)">
       <defs>
        <path d="M 19.1875 8.296875 
L 53.609375 8.296875 
L 53.609375 0 
L 7.328125 0 
L 7.328125 8.296875 
Q 12.9375 14.109375 22.625 23.890625 
Q 32.328125 33.6875 34.8125 36.53125 
Q 39.546875 41.84375 41.421875 45.53125 
Q 43.3125 49.21875 43.3125 52.78125 
Q 43.3125 58.59375 39.234375 62.25 
Q 35.15625 65.921875 28.609375 65.921875 
Q 23.96875 65.921875 18.8125 64.3125 
Q 13.671875 62.703125 7.8125 59.421875 
L 7.8125 69.390625 
Q 13.765625 71.78125 18.9375 73 
Q 24.125 74.21875 28.421875 74.21875 
Q 39.75 74.21875 46.484375 68.546875 
Q 53.21875 62.890625 53.21875 53.421875 
Q 53.21875 48.921875 51.53125 44.890625 
Q 49.859375 40.875 45.40625 35.40625 
Q 44.1875 33.984375 37.640625 27.21875 
Q 31.109375 20.453125 19.1875 8.296875 
z
" id="DejaVuSans-50"/>
       </defs>
       <use xlink:href="#DejaVuSans-50"/>
      </g>
     </g>
    </g>
    <g id="xtick_3">
     <g id="line2d_5">
      <path clip-path="url(#pbf53d6fdd1)" d="M 218.221714 298.944 
L 218.221714 27.648 
" style="fill:none;stroke:#b0b0b0;stroke-linecap:square;stroke-width:0.8;"/>
     </g>
     <g id="line2d_6">
      <g>
       <use style="stroke:#000000;stroke-width:0.8;" x="218.221714" xlink:href="#m636bf42f26" y="298.944"/>
      </g>
     </g>
     <g id="text_3">
      <!-- 4 -->
      <g transform="translate(211.859214 321.140875)scale(0.2 -0.2)">
       <defs>
        <path d="M 37.796875 64.3125 
L 12.890625 25.390625 
L 37.796875 25.390625 
z
M 35.203125 72.90625 
L 47.609375 72.90625 
L 47.609375 25.390625 
L 58.015625 25.390625 
L 58.015625 17.1875 
L 47.609375 17.1875 
L 47.609375 0 
L 37.796875 0 
L 37.796875 17.1875 
L 4.890625 17.1875 
L 4.890625 26.703125 
z
" id="DejaVuSans-52"/>
       </defs>
       <use xlink:href="#DejaVuSans-52"/>
      </g>
     </g>
    </g>
    <g id="xtick_4">
     <g id="line2d_7">
      <path clip-path="url(#pbf53d6fdd1)" d="M 298.532571 298.944 
L 298.532571 27.648 
" style="fill:none;stroke:#b0b0b0;stroke-linecap:square;stroke-width:0.8;"/>
     </g>
     <g id="line2d_8">
      <g>
       <use style="stroke:#000000;stroke-width:0.8;" x="298.532571" xlink:href="#m636bf42f26" y="298.944"/>
      </g>
     </g>
     <g id="text_4">
      <!-- 6 -->
      <g transform="translate(292.170071 321.140875)scale(0.2 -0.2)">
       <defs>
        <path d="M 33.015625 40.375 
Q 26.375 40.375 22.484375 35.828125 
Q 18.609375 31.296875 18.609375 23.390625 
Q 18.609375 15.53125 22.484375 10.953125 
Q 26.375 6.390625 33.015625 6.390625 
Q 39.65625 6.390625 43.53125 10.953125 
Q 47.40625 15.53125 47.40625 23.390625 
Q 47.40625 31.296875 43.53125 35.828125 
Q 39.65625 40.375 33.015625 40.375 
z
M 52.59375 71.296875 
L 52.59375 62.3125 
Q 48.875 64.0625 45.09375 64.984375 
Q 41.3125 65.921875 37.59375 65.921875 
Q 27.828125 65.921875 22.671875 59.328125 
Q 17.53125 52.734375 16.796875 39.40625 
Q 19.671875 43.65625 24.015625 45.921875 
Q 28.375 48.1875 33.59375 48.1875 
Q 44.578125 48.1875 50.953125 41.515625 
Q 57.328125 34.859375 57.328125 23.390625 
Q 57.328125 12.15625 50.6875 5.359375 
Q 44.046875 -1.421875 33.015625 -1.421875 
Q 20.359375 -1.421875 13.671875 8.265625 
Q 6.984375 17.96875 6.984375 36.375 
Q 6.984375 53.65625 15.1875 63.9375 
Q 23.390625 74.21875 37.203125 74.21875 
Q 40.921875 74.21875 44.703125 73.484375 
Q 48.484375 72.75 52.59375 71.296875 
z
" id="DejaVuSans-54"/>
       </defs>
       <use xlink:href="#DejaVuSans-54"/>
      </g>
     </g>
    </g>
    <g id="xtick_5">
     <g id="line2d_9">
      <path clip-path="url(#pbf53d6fdd1)" d="M 97.755429 298.944 
L 97.755429 27.648 
" style="fill:none;stroke:#b0b0b0;stroke-linecap:square;stroke-width:0.8;"/>
     </g>
     <g id="line2d_10">
      <defs>
       <path d="M 0 0 
L 0 2 
" id="m409cafa8a7" style="stroke:#000000;stroke-width:0.6;"/>
      </defs>
      <g>
       <use style="stroke:#000000;stroke-width:0.6;" x="97.755429" xlink:href="#m409cafa8a7" y="298.944"/>
      </g>
     </g>
    </g>
    <g id="xtick_6">
     <g id="line2d_11">
      <path clip-path="url(#pbf53d6fdd1)" d="M 178.066286 298.944 
L 178.066286 27.648 
" style="fill:none;stroke:#b0b0b0;stroke-linecap:square;stroke-width:0.8;"/>
     </g>
     <g id="line2d_12">
      <g>
       <use style="stroke:#000000;stroke-width:0.6;" x="178.066286" xlink:href="#m409cafa8a7" y="298.944"/>
      </g>
     </g>
    </g>
    <g id="xtick_7">
     <g id="line2d_13">
      <path clip-path="url(#pbf53d6fdd1)" d="M 258.377143 298.944 
L 258.377143 27.648 
" style="fill:none;stroke:#b0b0b0;stroke-linecap:square;stroke-width:0.8;"/>
     </g>
     <g id="line2d_14">
      <g>
       <use style="stroke:#000000;stroke-width:0.6;" x="258.377143" xlink:href="#m409cafa8a7" y="298.944"/>
      </g>
     </g>
    </g>
    <g id="xtick_8">
     <g id="line2d_15">
      <path clip-path="url(#pbf53d6fdd1)" d="M 338.688 298.944 
L 338.688 27.648 
" style="fill:none;stroke:#b0b0b0;stroke-linecap:square;stroke-width:0.8;"/>
     </g>
     <g id="line2d_16">
      <g>
       <use style="stroke:#000000;stroke-width:0.6;" x="338.688" xlink:href="#m409cafa8a7" y="298.944"/>
      </g>
     </g>
    </g>
    <g id="text_5">
     <!-- log10(# f-evals / dimension) -->
     <g transform="translate(77.764078 342.217594)scale(0.17 -0.17)">
      <defs>
       <path d="M 9.421875 75.984375 
L 18.40625 75.984375 
L 18.40625 0 
L 9.421875 0 
z
" id="DejaVuSans-108"/>
       <path d="M 30.609375 48.390625 
Q 23.390625 48.390625 19.1875 42.75 
Q 14.984375 37.109375 14.984375 27.296875 
Q 14.984375 17.484375 19.15625 11.84375 
Q 23.34375 6.203125 30.609375 6.203125 
Q 37.796875 6.203125 41.984375 11.859375 
Q 46.1875 17.53125 46.1875 27.296875 
Q 46.1875 37.015625 41.984375 42.703125 
Q 37.796875 48.390625 30.609375 48.390625 
z
M 30.609375 56 
Q 42.328125 56 49.015625 48.375 
Q 55.71875 40.765625 55.71875 27.296875 
Q 55.71875 13.875 49.015625 6.21875 
Q 42.328125 -1.421875 30.609375 -1.421875 
Q 18.84375 -1.421875 12.171875 6.21875 
Q 5.515625 13.875 5.515625 27.296875 
Q 5.515625 40.765625 12.171875 48.375 
Q 18.84375 56 30.609375 56 
z
" id="DejaVuSans-111"/>
       <path d="M 45.40625 27.984375 
Q 45.40625 37.75 41.375 43.109375 
Q 37.359375 48.484375 30.078125 48.484375 
Q 22.859375 48.484375 18.828125 43.109375 
Q 14.796875 37.75 14.796875 27.984375 
Q 14.796875 18.265625 18.828125 12.890625 
Q 22.859375 7.515625 30.078125 7.515625 
Q 37.359375 7.515625 41.375 12.890625 
Q 45.40625 18.265625 45.40625 27.984375 
z
M 54.390625 6.78125 
Q 54.390625 -7.171875 48.1875 -13.984375 
Q 42 -20.796875 29.203125 -20.796875 
Q 24.46875 -20.796875 20.265625 -20.09375 
Q 16.0625 -19.390625 12.109375 -17.921875 
L 12.109375 -9.1875 
Q 16.0625 -11.328125 19.921875 -12.34375 
Q 23.78125 -13.375 27.78125 -13.375 
Q 36.625 -13.375 41.015625 -8.765625 
Q 45.40625 -4.15625 45.40625 5.171875 
L 45.40625 9.625 
Q 42.625 4.78125 38.28125 2.390625 
Q 33.9375 0 27.875 0 
Q 17.828125 0 11.671875 7.65625 
Q 5.515625 15.328125 5.515625 27.984375 
Q 5.515625 40.671875 11.671875 48.328125 
Q 17.828125 56 27.875 56 
Q 33.9375 56 38.28125 53.609375 
Q 42.625 51.21875 45.40625 46.390625 
L 45.40625 54.6875 
L 54.390625 54.6875 
z
" id="DejaVuSans-103"/>
       <path d="M 12.40625 8.296875 
L 28.515625 8.296875 
L 28.515625 63.921875 
L 10.984375 60.40625 
L 10.984375 69.390625 
L 28.421875 72.90625 
L 38.28125 72.90625 
L 38.28125 8.296875 
L 54.390625 8.296875 
L 54.390625 0 
L 12.40625 0 
z
" id="DejaVuSans-49"/>
       <path d="M 31 75.875 
Q 24.46875 64.65625 21.28125 53.65625 
Q 18.109375 42.671875 18.109375 31.390625 
Q 18.109375 20.125 21.3125 9.0625 
Q 24.515625 -2 31 -13.1875 
L 23.1875 -13.1875 
Q 15.875 -1.703125 12.234375 9.375 
Q 8.59375 20.453125 8.59375 31.390625 
Q 8.59375 42.28125 12.203125 53.3125 
Q 15.828125 64.359375 23.1875 75.875 
z
" id="DejaVuSans-40"/>
       <path d="M 51.125 44 
L 36.921875 44 
L 32.8125 27.6875 
L 47.125 27.6875 
z
M 43.796875 71.78125 
L 38.71875 51.515625 
L 52.984375 51.515625 
L 58.109375 71.78125 
L 65.921875 71.78125 
L 60.890625 51.515625 
L 76.125 51.515625 
L 76.125 44 
L 58.984375 44 
L 54.984375 27.6875 
L 70.515625 27.6875 
L 70.515625 20.21875 
L 53.078125 20.21875 
L 48 0 
L 40.1875 0 
L 45.21875 20.21875 
L 30.90625 20.21875 
L 25.875 0 
L 18.015625 0 
L 23.09375 20.21875 
L 7.71875 20.21875 
L 7.71875 27.6875 
L 24.90625 27.6875 
L 29 44 
L 13.28125 44 
L 13.28125 51.515625 
L 30.90625 51.515625 
L 35.890625 71.78125 
z
" id="DejaVuSans-35"/>
       <path id="DejaVuSans-32"/>
       <path d="M 37.109375 75.984375 
L 37.109375 68.5 
L 28.515625 68.5 
Q 23.6875 68.5 21.796875 66.546875 
Q 19.921875 64.59375 19.921875 59.515625 
L 19.921875 54.6875 
L 34.71875 54.6875 
L 34.71875 47.703125 
L 19.921875 47.703125 
L 19.921875 0 
L 10.890625 0 
L 10.890625 47.703125 
L 2.296875 47.703125 
L 2.296875 54.6875 
L 10.890625 54.6875 
L 10.890625 58.5 
Q 10.890625 67.625 15.140625 71.796875 
Q 19.390625 75.984375 28.609375 75.984375 
z
" id="DejaVuSans-102"/>
       <path d="M 4.890625 31.390625 
L 31.203125 31.390625 
L 31.203125 23.390625 
L 4.890625 23.390625 
z
" id="DejaVuSans-45"/>
       <path d="M 56.203125 29.59375 
L 56.203125 25.203125 
L 14.890625 25.203125 
Q 15.484375 15.921875 20.484375 11.0625 
Q 25.484375 6.203125 34.421875 6.203125 
Q 39.59375 6.203125 44.453125 7.46875 
Q 49.3125 8.734375 54.109375 11.28125 
L 54.109375 2.78125 
Q 49.265625 0.734375 44.1875 -0.34375 
Q 39.109375 -1.421875 33.890625 -1.421875 
Q 20.796875 -1.421875 13.15625 6.1875 
Q 5.515625 13.8125 5.515625 26.8125 
Q 5.515625 40.234375 12.765625 48.109375 
Q 20.015625 56 32.328125 56 
Q 43.359375 56 49.78125 48.890625 
Q 56.203125 41.796875 56.203125 29.59375 
z
M 47.21875 32.234375 
Q 47.125 39.59375 43.09375 43.984375 
Q 39.0625 48.390625 32.421875 48.390625 
Q 24.90625 48.390625 20.390625 44.140625 
Q 15.875 39.890625 15.1875 32.171875 
z
" id="DejaVuSans-101"/>
       <path d="M 2.984375 54.6875 
L 12.5 54.6875 
L 29.59375 8.796875 
L 46.6875 54.6875 
L 56.203125 54.6875 
L 35.6875 0 
L 23.484375 0 
z
" id="DejaVuSans-118"/>
       <path d="M 34.28125 27.484375 
Q 23.390625 27.484375 19.1875 25 
Q 14.984375 22.515625 14.984375 16.5 
Q 14.984375 11.71875 18.140625 8.90625 
Q 21.296875 6.109375 26.703125 6.109375 
Q 34.1875 6.109375 38.703125 11.40625 
Q 43.21875 16.703125 43.21875 25.484375 
L 43.21875 27.484375 
z
M 52.203125 31.203125 
L 52.203125 0 
L 43.21875 0 
L 43.21875 8.296875 
Q 40.140625 3.328125 35.546875 0.953125 
Q 30.953125 -1.421875 24.3125 -1.421875 
Q 15.921875 -1.421875 10.953125 3.296875 
Q 6 8.015625 6 15.921875 
Q 6 25.140625 12.171875 29.828125 
Q 18.359375 34.515625 30.609375 34.515625 
L 43.21875 34.515625 
L 43.21875 35.40625 
Q 43.21875 41.609375 39.140625 45 
Q 35.0625 48.390625 27.6875 48.390625 
Q 23 48.390625 18.546875 47.265625 
Q 14.109375 46.140625 10.015625 43.890625 
L 10.015625 52.203125 
Q 14.9375 54.109375 19.578125 55.046875 
Q 24.21875 56 28.609375 56 
Q 40.484375 56 46.34375 49.84375 
Q 52.203125 43.703125 52.203125 31.203125 
z
" id="DejaVuSans-97"/>
       <path d="M 44.28125 53.078125 
L 44.28125 44.578125 
Q 40.484375 46.53125 36.375 47.5 
Q 32.28125 48.484375 27.875 48.484375 
Q 21.1875 48.484375 17.84375 46.4375 
Q 14.5 44.390625 14.5 40.28125 
Q 14.5 37.15625 16.890625 35.375 
Q 19.28125 33.59375 26.515625 31.984375 
L 29.59375 31.296875 
Q 39.15625 29.25 43.1875 25.515625 
Q 47.21875 21.78125 47.21875 15.09375 
Q 47.21875 7.46875 41.1875 3.015625 
Q 35.15625 -1.421875 24.609375 -1.421875 
Q 20.21875 -1.421875 15.453125 -0.5625 
Q 10.6875 0.296875 5.421875 2 
L 5.421875 11.28125 
Q 10.40625 8.6875 15.234375 7.390625 
Q 20.0625 6.109375 24.8125 6.109375 
Q 31.15625 6.109375 34.5625 8.28125 
Q 37.984375 10.453125 37.984375 14.40625 
Q 37.984375 18.0625 35.515625 20.015625 
Q 33.0625 21.96875 24.703125 23.78125 
L 21.578125 24.515625 
Q 13.234375 26.265625 9.515625 29.90625 
Q 5.8125 33.546875 5.8125 39.890625 
Q 5.8125 47.609375 11.28125 51.796875 
Q 16.75 56 26.8125 56 
Q 31.78125 56 36.171875 55.265625 
Q 40.578125 54.546875 44.28125 53.078125 
z
" id="DejaVuSans-115"/>
       <path d="M 25.390625 72.90625 
L 33.6875 72.90625 
L 8.296875 -9.28125 
L 0 -9.28125 
z
" id="DejaVuSans-47"/>
       <path d="M 45.40625 46.390625 
L 45.40625 75.984375 
L 54.390625 75.984375 
L 54.390625 0 
L 45.40625 0 
L 45.40625 8.203125 
Q 42.578125 3.328125 38.25 0.953125 
Q 33.9375 -1.421875 27.875 -1.421875 
Q 17.96875 -1.421875 11.734375 6.484375 
Q 5.515625 14.40625 5.515625 27.296875 
Q 5.515625 40.1875 11.734375 48.09375 
Q 17.96875 56 27.875 56 
Q 33.9375 56 38.25 53.625 
Q 42.578125 51.265625 45.40625 46.390625 
z
M 14.796875 27.296875 
Q 14.796875 17.390625 18.875 11.75 
Q 22.953125 6.109375 30.078125 6.109375 
Q 37.203125 6.109375 41.296875 11.75 
Q 45.40625 17.390625 45.40625 27.296875 
Q 45.40625 37.203125 41.296875 42.84375 
Q 37.203125 48.484375 30.078125 48.484375 
Q 22.953125 48.484375 18.875 42.84375 
Q 14.796875 37.203125 14.796875 27.296875 
z
" id="DejaVuSans-100"/>
       <path d="M 9.421875 54.6875 
L 18.40625 54.6875 
L 18.40625 0 
L 9.421875 0 
z
M 9.421875 75.984375 
L 18.40625 75.984375 
L 18.40625 64.59375 
L 9.421875 64.59375 
z
" id="DejaVuSans-105"/>
       <path d="M 52 44.1875 
Q 55.375 50.25 60.0625 53.125 
Q 64.75 56 71.09375 56 
Q 79.640625 56 84.28125 50.015625 
Q 88.921875 44.046875 88.921875 33.015625 
L 88.921875 0 
L 79.890625 0 
L 79.890625 32.71875 
Q 79.890625 40.578125 77.09375 44.375 
Q 74.3125 48.1875 68.609375 48.1875 
Q 61.625 48.1875 57.5625 43.546875 
Q 53.515625 38.921875 53.515625 30.90625 
L 53.515625 0 
L 44.484375 0 
L 44.484375 32.71875 
Q 44.484375 40.625 41.703125 44.40625 
Q 38.921875 48.1875 33.109375 48.1875 
Q 26.21875 48.1875 22.15625 43.53125 
Q 18.109375 38.875 18.109375 30.90625 
L 18.109375 0 
L 9.078125 0 
L 9.078125 54.6875 
L 18.109375 54.6875 
L 18.109375 46.1875 
Q 21.1875 51.21875 25.484375 53.609375 
Q 29.78125 56 35.6875 56 
Q 41.65625 56 45.828125 52.96875 
Q 50 49.953125 52 44.1875 
z
" id="DejaVuSans-109"/>
       <path d="M 54.890625 33.015625 
L 54.890625 0 
L 45.90625 0 
L 45.90625 32.71875 
Q 45.90625 40.484375 42.875 44.328125 
Q 39.84375 48.1875 33.796875 48.1875 
Q 26.515625 48.1875 22.3125 43.546875 
Q 18.109375 38.921875 18.109375 30.90625 
L 18.109375 0 
L 9.078125 0 
L 9.078125 54.6875 
L 18.109375 54.6875 
L 18.109375 46.1875 
Q 21.34375 51.125 25.703125 53.5625 
Q 30.078125 56 35.796875 56 
Q 45.21875 56 50.046875 50.171875 
Q 54.890625 44.34375 54.890625 33.015625 
z
" id="DejaVuSans-110"/>
       <path d="M 8.015625 75.875 
L 15.828125 75.875 
Q 23.140625 64.359375 26.78125 53.3125 
Q 30.421875 42.28125 30.421875 31.390625 
Q 30.421875 20.453125 26.78125 9.375 
Q 23.140625 -1.703125 15.828125 -13.1875 
L 8.015625 -13.1875 
Q 14.5 -2 17.703125 9.0625 
Q 20.90625 20.125 20.90625 31.390625 
Q 20.90625 42.671875 17.703125 53.65625 
Q 14.5 64.65625 8.015625 75.875 
z
" id="DejaVuSans-41"/>
      </defs>
      <use xlink:href="#DejaVuSans-108"/>
      <use x="27.783203" xlink:href="#DejaVuSans-111"/>
      <use x="88.964844" xlink:href="#DejaVuSans-103"/>
      <use x="152.441406" xlink:href="#DejaVuSans-49"/>
      <use x="216.064453" xlink:href="#DejaVuSans-48"/>
      <use x="279.6875" xlink:href="#DejaVuSans-40"/>
      <use x="318.701172" xlink:href="#DejaVuSans-35"/>
      <use x="402.490234" xlink:href="#DejaVuSans-32"/>
      <use x="434.277344" xlink:href="#DejaVuSans-102"/>
      <use x="463.982422" xlink:href="#DejaVuSans-45"/>
      <use x="500.066406" xlink:href="#DejaVuSans-101"/>
      <use x="561.589844" xlink:href="#DejaVuSans-118"/>
      <use x="620.769531" xlink:href="#DejaVuSans-97"/>
      <use x="682.048828" xlink:href="#DejaVuSans-108"/>
      <use x="709.832031" xlink:href="#DejaVuSans-115"/>
      <use x="761.931641" xlink:href="#DejaVuSans-32"/>
      <use x="793.71875" xlink:href="#DejaVuSans-47"/>
      <use x="827.410156" xlink:href="#DejaVuSans-32"/>
      <use x="859.197266" xlink:href="#DejaVuSans-100"/>
      <use x="922.673828" xlink:href="#DejaVuSans-105"/>
      <use x="950.457031" xlink:href="#DejaVuSans-109"/>
      <use x="1047.869141" xlink:href="#DejaVuSans-101"/>
      <use x="1109.392578" xlink:href="#DejaVuSans-110"/>
      <use x="1172.771484" xlink:href="#DejaVuSans-115"/>
      <use x="1224.871094" xlink:href="#DejaVuSans-105"/>
      <use x="1252.654297" xlink:href="#DejaVuSans-111"/>
      <use x="1313.835938" xlink:href="#DejaVuSans-110"/>
      <use x="1377.214844" xlink:href="#DejaVuSans-41"/>
     </g>
    </g>
   </g>
   <g id="matplotlib.axis_2">
    <g id="ytick_1">
     <g id="line2d_17">
      <path clip-path="url(#pbf53d6fdd1)" d="M 57.6 298.944 
L 338.688 298.944 
" style="fill:none;stroke:#b0b0b0;stroke-linecap:square;stroke-width:0.8;"/>
     </g>
     <g id="line2d_18">
      <defs>
       <path d="M 0 0 
L -3.5 0 
" id="ma7be8a9a86" style="stroke:#000000;stroke-width:0.8;"/>
      </defs>
      <g>
       <use style="stroke:#000000;stroke-width:0.8;" x="57.6" xlink:href="#ma7be8a9a86" y="298.944"/>
      </g>
     </g>
     <g id="text_6">
      <!-- 0.0 -->
      <g transform="translate(25.155 305.02275)scale(0.16 -0.16)">
       <defs>
        <path d="M 10.6875 12.40625 
L 21 12.40625 
L 21 0 
L 10.6875 0 
z
" id="DejaVuSans-46"/>
       </defs>
       <use xlink:href="#DejaVuSans-48"/>
       <use x="63.623047" xlink:href="#DejaVuSans-46"/>
       <use x="95.410156" xlink:href="#DejaVuSans-48"/>
      </g>
     </g>
    </g>
    <g id="ytick_2">
     <g id="line2d_19">
      <path clip-path="url(#pbf53d6fdd1)" d="M 57.6 245.22202 
L 338.688 245.22202 
" style="fill:none;stroke:#b0b0b0;stroke-linecap:square;stroke-width:0.8;"/>
     </g>
     <g id="line2d_20">
      <g>
       <use style="stroke:#000000;stroke-width:0.8;" x="57.6" xlink:href="#ma7be8a9a86" y="245.22202"/>
      </g>
     </g>
     <g id="text_7">
      <!-- 0.2 -->
      <g transform="translate(25.155 251.30077)scale(0.16 -0.16)">
       <use xlink:href="#DejaVuSans-48"/>
       <use x="63.623047" xlink:href="#DejaVuSans-46"/>
       <use x="95.410156" xlink:href="#DejaVuSans-50"/>
      </g>
     </g>
    </g>
    <g id="ytick_3">
     <g id="line2d_21">
      <path clip-path="url(#pbf53d6fdd1)" d="M 57.6 191.50004 
L 338.688 191.50004 
" style="fill:none;stroke:#b0b0b0;stroke-linecap:square;stroke-width:0.8;"/>
     </g>
     <g id="line2d_22">
      <g>
       <use style="stroke:#000000;stroke-width:0.8;" x="57.6" xlink:href="#ma7be8a9a86" y="191.50004"/>
      </g>
     </g>
     <g id="text_8">
      <!-- 0.4 -->
      <g transform="translate(25.155 197.57879)scale(0.16 -0.16)">
       <use xlink:href="#DejaVuSans-48"/>
       <use x="63.623047" xlink:href="#DejaVuSans-46"/>
       <use x="95.410156" xlink:href="#DejaVuSans-52"/>
      </g>
     </g>
    </g>
    <g id="ytick_4">
     <g id="line2d_23">
      <path clip-path="url(#pbf53d6fdd1)" d="M 57.6 137.778059 
L 338.688 137.778059 
" style="fill:none;stroke:#b0b0b0;stroke-linecap:square;stroke-width:0.8;"/>
     </g>
     <g id="line2d_24">
      <g>
       <use style="stroke:#000000;stroke-width:0.8;" x="57.6" xlink:href="#ma7be8a9a86" y="137.778059"/>
      </g>
     </g>
     <g id="text_9">
      <!-- 0.6 -->
      <g transform="translate(25.155 143.856809)scale(0.16 -0.16)">
       <use xlink:href="#DejaVuSans-48"/>
       <use x="63.623047" xlink:href="#DejaVuSans-46"/>
       <use x="95.410156" xlink:href="#DejaVuSans-54"/>
      </g>
     </g>
    </g>
    <g id="ytick_5">
     <g id="line2d_25">
      <path clip-path="url(#pbf53d6fdd1)" d="M 57.6 84.056079 
L 338.688 84.056079 
" style="fill:none;stroke:#b0b0b0;stroke-linecap:square;stroke-width:0.8;"/>
     </g>
     <g id="line2d_26">
      <g>
       <use style="stroke:#000000;stroke-width:0.8;" x="57.6" xlink:href="#ma7be8a9a86" y="84.056079"/>
      </g>
     </g>
     <g id="text_10">
      <!-- 0.8 -->
      <g transform="translate(25.155 90.134829)scale(0.16 -0.16)">
       <defs>
        <path d="M 31.78125 34.625 
Q 24.75 34.625 20.71875 30.859375 
Q 16.703125 27.09375 16.703125 20.515625 
Q 16.703125 13.921875 20.71875 10.15625 
Q 24.75 6.390625 31.78125 6.390625 
Q 38.8125 6.390625 42.859375 10.171875 
Q 46.921875 13.96875 46.921875 20.515625 
Q 46.921875 27.09375 42.890625 30.859375 
Q 38.875 34.625 31.78125 34.625 
z
M 21.921875 38.8125 
Q 15.578125 40.375 12.03125 44.71875 
Q 8.5 49.078125 8.5 55.328125 
Q 8.5 64.0625 14.71875 69.140625 
Q 20.953125 74.21875 31.78125 74.21875 
Q 42.671875 74.21875 48.875 69.140625 
Q 55.078125 64.0625 55.078125 55.328125 
Q 55.078125 49.078125 51.53125 44.71875 
Q 48 40.375 41.703125 38.8125 
Q 48.828125 37.15625 52.796875 32.3125 
Q 56.78125 27.484375 56.78125 20.515625 
Q 56.78125 9.90625 50.3125 4.234375 
Q 43.84375 -1.421875 31.78125 -1.421875 
Q 19.734375 -1.421875 13.25 4.234375 
Q 6.78125 9.90625 6.78125 20.515625 
Q 6.78125 27.484375 10.78125 32.3125 
Q 14.796875 37.15625 21.921875 38.8125 
z
M 18.3125 54.390625 
Q 18.3125 48.734375 21.84375 45.5625 
Q 25.390625 42.390625 31.78125 42.390625 
Q 38.140625 42.390625 41.71875 45.5625 
Q 45.3125 48.734375 45.3125 54.390625 
Q 45.3125 60.0625 41.71875 63.234375 
Q 38.140625 66.40625 31.78125 66.40625 
Q 25.390625 66.40625 21.84375 63.234375 
Q 18.3125 60.0625 18.3125 54.390625 
z
" id="DejaVuSans-56"/>
       </defs>
       <use xlink:href="#DejaVuSans-48"/>
       <use x="63.623047" xlink:href="#DejaVuSans-46"/>
       <use x="95.410156" xlink:href="#DejaVuSans-56"/>
      </g>
     </g>
    </g>
    <g id="ytick_6">
     <g id="line2d_27">
      <path clip-path="url(#pbf53d6fdd1)" d="M 57.6 30.334099 
L 338.688 30.334099 
" style="fill:none;stroke:#b0b0b0;stroke-linecap:square;stroke-width:0.8;"/>
     </g>
     <g id="line2d_28">
      <g>
       <use style="stroke:#000000;stroke-width:0.8;" x="57.6" xlink:href="#ma7be8a9a86" y="30.334099"/>
      </g>
     </g>
     <g id="text_11">
      <!-- 1.0 -->
      <g transform="translate(25.155 36.412849)scale(0.16 -0.16)">
       <use xlink:href="#DejaVuSans-49"/>
       <use x="63.623047" xlink:href="#DejaVuSans-46"/>
       <use x="95.410156" xlink:href="#DejaVuSans-48"/>
      </g>
     </g>
    </g>
    <g id="text_12">
     <!-- Fraction of function,target pairs -->
     <g transform="translate(17.619531 297.681)rotate(-90)scale(0.17 -0.17)">
      <defs>
       <path d="M 9.8125 72.90625 
L 51.703125 72.90625 
L 51.703125 64.59375 
L 19.671875 64.59375 
L 19.671875 43.109375 
L 48.578125 43.109375 
L 48.578125 34.8125 
L 19.671875 34.8125 
L 19.671875 0 
L 9.8125 0 
z
" id="DejaVuSans-70"/>
       <path d="M 41.109375 46.296875 
Q 39.59375 47.171875 37.8125 47.578125 
Q 36.03125 48 33.890625 48 
Q 26.265625 48 22.1875 43.046875 
Q 18.109375 38.09375 18.109375 28.8125 
L 18.109375 0 
L 9.078125 0 
L 9.078125 54.6875 
L 18.109375 54.6875 
L 18.109375 46.1875 
Q 20.953125 51.171875 25.484375 53.578125 
Q 30.03125 56 36.53125 56 
Q 37.453125 56 38.578125 55.875 
Q 39.703125 55.765625 41.0625 55.515625 
z
" id="DejaVuSans-114"/>
       <path d="M 48.78125 52.59375 
L 48.78125 44.1875 
Q 44.96875 46.296875 41.140625 47.34375 
Q 37.3125 48.390625 33.40625 48.390625 
Q 24.65625 48.390625 19.8125 42.84375 
Q 14.984375 37.3125 14.984375 27.296875 
Q 14.984375 17.28125 19.8125 11.734375 
Q 24.65625 6.203125 33.40625 6.203125 
Q 37.3125 6.203125 41.140625 7.25 
Q 44.96875 8.296875 48.78125 10.40625 
L 48.78125 2.09375 
Q 45.015625 0.34375 40.984375 -0.53125 
Q 36.96875 -1.421875 32.421875 -1.421875 
Q 20.0625 -1.421875 12.78125 6.34375 
Q 5.515625 14.109375 5.515625 27.296875 
Q 5.515625 40.671875 12.859375 48.328125 
Q 20.21875 56 33.015625 56 
Q 37.15625 56 41.109375 55.140625 
Q 45.0625 54.296875 48.78125 52.59375 
z
" id="DejaVuSans-99"/>
       <path d="M 18.3125 70.21875 
L 18.3125 54.6875 
L 36.8125 54.6875 
L 36.8125 47.703125 
L 18.3125 47.703125 
L 18.3125 18.015625 
Q 18.3125 11.328125 20.140625 9.421875 
Q 21.96875 7.515625 27.59375 7.515625 
L 36.8125 7.515625 
L 36.8125 0 
L 27.59375 0 
Q 17.1875 0 13.234375 3.875 
Q 9.28125 7.765625 9.28125 18.015625 
L 9.28125 47.703125 
L 2.6875 47.703125 
L 2.6875 54.6875 
L 9.28125 54.6875 
L 9.28125 70.21875 
z
" id="DejaVuSans-116"/>
       <path d="M 8.5 21.578125 
L 8.5 54.6875 
L 17.484375 54.6875 
L 17.484375 21.921875 
Q 17.484375 14.15625 20.5 10.265625 
Q 23.53125 6.390625 29.59375 6.390625 
Q 36.859375 6.390625 41.078125 11.03125 
Q 45.3125 15.671875 45.3125 23.6875 
L 45.3125 54.6875 
L 54.296875 54.6875 
L 54.296875 0 
L 45.3125 0 
L 45.3125 8.40625 
Q 42.046875 3.421875 37.71875 1 
Q 33.40625 -1.421875 27.6875 -1.421875 
Q 18.265625 -1.421875 13.375 4.4375 
Q 8.5 10.296875 8.5 21.578125 
z
M 31.109375 56 
z
" id="DejaVuSans-117"/>
       <path d="M 11.71875 12.40625 
L 22.015625 12.40625 
L 22.015625 4 
L 14.015625 -11.625 
L 7.71875 -11.625 
L 11.71875 4 
z
" id="DejaVuSans-44"/>
       <path d="M 18.109375 8.203125 
L 18.109375 -20.796875 
L 9.078125 -20.796875 
L 9.078125 54.6875 
L 18.109375 54.6875 
L 18.109375 46.390625 
Q 20.953125 51.265625 25.265625 53.625 
Q 29.59375 56 35.59375 56 
Q 45.5625 56 51.78125 48.09375 
Q 58.015625 40.1875 58.015625 27.296875 
Q 58.015625 14.40625 51.78125 6.484375 
Q 45.5625 -1.421875 35.59375 -1.421875 
Q 29.59375 -1.421875 25.265625 0.953125 
Q 20.953125 3.328125 18.109375 8.203125 
z
M 48.6875 27.296875 
Q 48.6875 37.203125 44.609375 42.84375 
Q 40.53125 48.484375 33.40625 48.484375 
Q 26.265625 48.484375 22.1875 42.84375 
Q 18.109375 37.203125 18.109375 27.296875 
Q 18.109375 17.390625 22.1875 11.75 
Q 26.265625 6.109375 33.40625 6.109375 
Q 40.53125 6.109375 44.609375 11.75 
Q 48.6875 17.390625 48.6875 27.296875 
z
" id="DejaVuSans-112"/>
      </defs>
      <use xlink:href="#DejaVuSans-70"/>
      <use x="50.269531" xlink:href="#DejaVuSans-114"/>
      <use x="91.382812" xlink:href="#DejaVuSans-97"/>
      <use x="152.662109" xlink:href="#DejaVuSans-99"/>
      <use x="207.642578" xlink:href="#DejaVuSans-116"/>
      <use x="246.851562" xlink:href="#DejaVuSans-105"/>
      <use x="274.634766" xlink:href="#DejaVuSans-111"/>
      <use x="335.816406" xlink:href="#DejaVuSans-110"/>
      <use x="399.195312" xlink:href="#DejaVuSans-32"/>
      <use x="430.982422" xlink:href="#DejaVuSans-111"/>
      <use x="492.164062" xlink:href="#DejaVuSans-102"/>
      <use x="527.369141" xlink:href="#DejaVuSans-32"/>
      <use x="559.15625" xlink:href="#DejaVuSans-102"/>
      <use x="594.361328" xlink:href="#DejaVuSans-117"/>
      <use x="657.740234" xlink:href="#DejaVuSans-110"/>
      <use x="721.119141" xlink:href="#DejaVuSans-99"/>
      <use x="776.099609" xlink:href="#DejaVuSans-116"/>
      <use x="815.308594" xlink:href="#DejaVuSans-105"/>
      <use x="843.091797" xlink:href="#DejaVuSans-111"/>
      <use x="904.273438" xlink:href="#DejaVuSans-110"/>
      <use x="967.652344" xlink:href="#DejaVuSans-44"/>
      <use x="999.439453" xlink:href="#DejaVuSans-116"/>
      <use x="1038.648438" xlink:href="#DejaVuSans-97"/>
      <use x="1099.927734" xlink:href="#DejaVuSans-114"/>
      <use x="1139.291016" xlink:href="#DejaVuSans-103"/>
      <use x="1202.767578" xlink:href="#DejaVuSans-101"/>
      <use x="1264.291016" xlink:href="#DejaVuSans-116"/>
      <use x="1303.5" xlink:href="#DejaVuSans-32"/>
      <use x="1335.287109" xlink:href="#DejaVuSans-112"/>
      <use x="1398.763672" xlink:href="#DejaVuSans-97"/>
      <use x="1460.042969" xlink:href="#DejaVuSans-105"/>
      <use x="1487.826172" xlink:href="#DejaVuSans-114"/>
      <use x="1528.939453" xlink:href="#DejaVuSans-115"/>
     </g>
    </g>
   </g>
   <g id="line2d_29">
    <defs>
     <path d="M 0 1.5 
C 0.397805 1.5 0.77937 1.341951 1.06066 1.06066 
C 1.341951 0.77937 1.5 0.397805 1.5 0 
C 1.5 -0.397805 1.341951 -0.77937 1.06066 -1.06066 
C 0.77937 -1.341951 0.397805 -1.5 0 -1.5 
C -0.397805 -1.5 -0.77937 -1.341951 -1.06066 -1.06066 
C -1.341951 -0.77937 -1.5 -0.397805 -1.5 0 
C -1.5 0.397805 -1.341951 0.77937 -1.06066 1.06066 
C -0.77937 1.341951 -0.397805 1.5 0 1.5 
z
" id="mc919d183fe" style="stroke:#00bfbf;"/>
    </defs>
    <g>
     <use style="fill:#00bfbf;stroke:#00bfbf;" x="183.530881" xlink:href="#mc919d183fe" y="30.334099"/>
     <use style="fill:#00bfbf;stroke:#00bfbf;" x="183.530881" xlink:href="#mc919d183fe" y="30.334099"/>
    </g>
   </g>
   <g id="line2d_30">
    <path d="M 45.512012 298.944 
L 45.512012 290.517023 
L 64.67102 290.517023 
L 64.67102 289.463651 
L 69.687988 289.463651 
L 69.687988 288.936964 
L 73.579452 288.936964 
L 73.579452 287.883592 
L 81.775977 287.883592 
L 81.775977 287.356906 
L 87.329581 287.356906 
L 87.329581 286.303534 
L 91.535274 286.303534 
L 91.535274 285.776848 
L 93.863965 285.776848 
L 93.863965 284.723476 
L 97.755429 284.723476 
L 97.755429 281.036673 
L 98.606294 281.036673 
L 98.606294 278.929929 
L 100.192776 278.929929 
L 100.192776 277.876557 
L 100.934985 277.876557 
L 100.934985 277.349871 
L 102.330873 277.349871 
L 102.330873 276.823185 
L 104.826449 276.823185 
L 104.826449 272.609696 
L 105.398279 272.609696 
L 105.398279 272.08301 
L 106.48859 272.08301 
L 106.48859 271.556324 
L 107.009204 271.556324 
L 107.009204 269.449579 
L 107.514726 269.449579 
L 107.514726 268.922893 
L 108.006005 268.922893 
L 108.006005 268.396207 
L 108.483824 268.396207 
L 108.483824 267.342835 
L 108.948899 267.342835 
L 108.948899 264.182719 
L 109.843417 264.182719 
L 109.843417 261.022602 
L 113.73488 261.022602 
L 113.73488 259.96923 
L 115.077025 259.96923 
L 115.077025 258.915858 
L 115.711251 258.915858 
L 115.711251 258.389172 
L 116.019919 258.389172 
L 116.019919 256.282427 
L 116.323218 256.282427 
L 116.323218 254.702369 
L 116.914437 254.702369 
L 116.914437 253.122311 
L 118.310324 253.122311 
L 118.310324 249.435508 
L 119.351785 249.435508 
L 119.351785 247.85545 
L 120.8059 247.85545 
L 120.8059 245.748706 
L 121.264855 245.748706 
L 121.264855 245.22202 
L 121.489881 245.22202 
L 121.489881 244.695334 
L 121.712041 244.695334 
L 121.712041 241.535217 
L 122.148045 241.535217 
L 122.148045 239.428473 
L 123.192626 239.428473 
L 123.192626 238.901787 
L 123.394238 238.901787 
L 123.394238 238.375101 
L 123.593547 238.375101 
L 123.593547 237.321729 
L 125.110962 237.321729 
L 125.110962 235.74167 
L 127.325746 235.74167 
L 127.325746 235.214984 
L 128.560901 235.214984 
L 128.560901 233.634926 
L 130.263646 233.634926 
L 130.263646 232.054868 
L 130.926816 232.054868 
L 130.926816 231.528182 
L 132.30267 231.528182 
L 132.30267 231.001496 
L 132.893889 231.001496 
L 132.893889 229.948123 
L 133.910056 229.948123 
L 133.910056 229.421437 
L 137.997836 229.421437 
L 137.997836 227.314693 
L 141.378673 227.314693 
L 141.378673 226.788007 
L 141.80232 226.788007 
L 141.80232 226.261321 
L 143.208936 226.261321 
L 143.208936 225.734635 
L 144.45069 225.734635 
L 144.45069 225.207949 
L 145.155404 225.207949 
L 145.155404 224.681263 
L 145.609873 224.681263 
L 145.609873 223.101204 
L 146.431341 223.101204 
L 146.484754 222.047832 
L 147.061745 222.047832 
L 147.113265 218.36103 
L 147.96658 218.36103 
L 147.96658 217.834344 
L 148.306159 217.834344 
L 148.306159 217.307658 
L 149.15016 217.307658 
L 149.241465 215.727599 
L 149.955193 215.727599 
L 149.955193 215.200913 
L 150.344189 215.200913 
L 150.429467 213.094169 
L 151.260066 213.094169 
L 151.300575 212.040797 
L 151.581536 212.040797 
L 151.581536 209.934052 
L 152.474064 209.934052 
L 152.474064 209.407366 
L 153.105587 209.407366 
L 153.105587 208.88068 
L 153.287059 208.88068 
L 153.287059 208.353994 
L 153.502361 208.353994 
L 153.573542 206.24725 
L 153.959927 206.24725 
L 153.959927 205.193878 
L 154.167129 205.193878 
L 154.167129 204.667192 
L 155.0376 204.667192 
L 155.0376 203.613819 
L 155.167744 203.613819 
L 155.232454 202.560447 
L 155.329071 202.560447 
L 155.329071 202.033761 
L 155.678822 202.033761 
L 155.678822 200.980389 
L 155.83551 200.980389 
L 155.897793 199.927017 
L 155.959855 199.927017 
L 156.021696 198.346959 
L 156.478647 198.346959 
L 156.508689 197.293586 
L 156.598505 197.293586 
L 156.598505 196.7669 
L 156.717545 196.7669 
L 156.717545 196.240214 
L 156.865211 196.240214 
L 156.865211 195.186842 
L 157.011638 195.186842 
L 157.040776 194.13347 
L 157.185742 194.13347 
L 157.243392 192.026726 
L 157.415209 192.026726 
L 157.415209 191.50004 
L 157.613546 191.50004 
L 157.669802 189.919981 
L 157.94839 189.919981 
L 158.031107 188.866609 
L 158.168101 188.866609 
L 158.222599 187.813237 
L 158.304027 187.813237 
L 158.412011 186.233179 
L 158.652556 186.233179 
L 158.75841 182.546376 
L 158.811096 182.546376 
L 158.889829 180.439632 
L 159.072168 180.439632 
L 159.149734 179.38626 
L 159.405822 179.38626 
L 159.405822 178.859574 
L 159.708245 178.859574 
L 159.783038 177.279515 
L 159.956318 177.279515 
L 160.005512 175.699457 
L 160.249422 175.699457 
L 160.249422 175.172771 
L 160.394148 175.172771 
L 160.418152 174.119399 
L 160.585265 174.119399 
L 160.585265 173.592713 
L 160.750792 173.592713 
L 160.797798 167.799166 
L 160.914762 167.799166 
L 160.984566 166.745794 
L 161.100288 166.745794 
L 161.146363 162.532305 
L 161.306672 162.532305 
L 161.374928 159.898875 
L 161.442917 159.898875 
L 161.53316 157.265444 
L 161.555647 157.265444 
L 161.64531 154.105328 
L 161.712255 154.105328 
L 161.734513 151.471897 
L 161.911563 151.471897 
L 161.911563 150.418525 
L 162.152109 150.418525 
L 162.238764 148.838467 
L 162.281931 148.838467 
L 162.346481 146.731723 
L 162.410793 146.731723 
L 162.410793 145.151665 
L 162.581141 145.151665 
L 162.581141 141.464862 
L 162.707819 141.464862 
L 162.749842 139.358118 
L 162.854457 139.358118 
L 162.854457 138.831432 
L 163.020547 138.831432 
L 163.020547 138.304745 
L 163.469301 138.304745 
L 163.469301 137.251373 
L 163.689421 137.251373 
L 163.748975 134.091257 
L 163.926426 134.091257 
L 164.024234 128.824396 
L 164.121498 128.824396 
L 164.19892 127.244338 
L 164.314412 127.244338 
L 164.314412 126.190966 
L 164.562052 126.190966 
L 164.637547 122.504163 
L 164.731458 122.504163 
L 164.824867 120.397419 
L 164.917777 120.397419 
L 165.010195 118.817361 
L 165.284547 118.817361 
L 165.284547 117.763988 
L 165.411116 117.763988 
L 165.411116 117.237302 
L 165.679281 117.237302 
L 165.679281 116.710616 
L 165.925901 116.710616 
L 165.925901 115.657244 
L 166.047915 115.657244 
L 166.047915 115.130558 
L 166.255117 115.130558 
L 166.357802 113.023814 
L 166.459886 113.023814 
L 166.561376 109.337011 
L 166.6119 109.337011 
L 166.712511 107.756953 
L 166.74592 107.756953 
L 166.7626 106.176895 
L 166.878918 106.176895 
L 166.928532 104.596836 
L 167.06015 104.596836 
L 167.06015 103.016778 
L 167.255733 103.016778 
L 167.320442 98.803289 
L 167.449146 98.803289 
L 167.465168 96.696545 
L 167.624577 96.696545 
L 167.735303 93.536429 
L 167.751064 93.536429 
L 167.84533 90.902998 
L 168.140524 90.902998 
L 168.140524 88.269568 
L 168.263336 88.269568 
L 168.339657 86.162824 
L 168.445948 86.162824 
L 168.476198 84.056079 
L 168.566635 84.056079 
L 168.641643 80.895963 
L 168.790698 80.895963 
L 168.86475 77.20916 
L 168.9532 77.20916 
L 168.997257 75.102416 
L 169.157854 75.102416 
L 169.157854 71.415613 
L 169.27373 71.415613 
L 169.360135 69.835555 
L 169.616809 69.835555 
L 169.673338 67.202125 
L 169.729685 67.202125 
L 169.729685 66.675439 
L 170.364915 66.675439 
L 170.432588 62.988636 
L 170.58055 62.988636 
L 170.58055 60.881892 
L 170.951613 60.881892 
L 171.056197 58.775147 
L 171.18605 58.775147 
L 171.211906 57.195089 
L 171.595202 57.195089 
L 171.595202 54.034973 
L 173.688525 54.034973 
L 173.688525 51.928228 
L 174.305129 51.928228 
L 174.369919 50.874856 
L 174.594807 50.874856 
L 174.637316 49.294798 
L 174.743137 49.294798 
L 174.743137 46.661368 
L 176.52666 46.661368 
L 176.52666 46.134681 
L 177.996389 46.134681 
L 177.996389 45.607995 
L 178.394524 45.607995 
L 178.394524 45.081309 
L 179.221739 45.081309 
L 179.221739 44.554623 
L 179.744273 44.554623 
L 179.846927 43.501251 
L 179.901953 43.501251 
L 179.901953 42.447879 
L 180.937953 42.447879 
L 181.041188 41.394507 
L 181.20219 41.394507 
L 181.20219 40.867821 
L 181.817674 40.867821 
L 181.901854 39.287762 
L 181.929824 39.287762 
L 181.929824 38.761076 
L 182.082862 38.761076 
L 182.082862 35.60096 
L 182.384967 35.60096 
L 182.384967 32.440843 
L 182.993648 32.440843 
L 182.993648 31.914157 
L 183.530881 31.914157 
L 183.530881 30.334099 
L 338.688 30.334099 
L 338.688 30.334099 
" style="fill:none;stroke:#00bfbf;stroke-linecap:square;stroke-width:1.5;"/>
   </g>
   <g id="line2d_31">
    <defs>
     <path d="M -6 0 
L 6 0 
M 0 6 
L 0 -6 
" id="m6503e4141a" style="stroke:#00bfbf;stroke-width:1.5;"/>
    </defs>
    <g>
     <use style="fill-opacity:0;stroke:#00bfbf;stroke-width:1.5;" x="91.535274" xlink:href="#m6503e4141a" y="285.776848"/>
     <use style="fill-opacity:0;stroke:#00bfbf;stroke-width:1.5;" x="155.0376" xlink:href="#m6503e4141a" y="204.667192"/>
     <use style="fill-opacity:0;stroke:#00bfbf;stroke-width:1.5;" x="166.357802" xlink:href="#m6503e4141a" y="113.023814"/>
     <use style="fill-opacity:0;stroke:#00bfbf;stroke-width:1.5;" x="183.530881" xlink:href="#m6503e4141a" y="31.914157"/>
     <use style="fill-opacity:0;stroke:#00bfbf;stroke-width:1.5;" x="183.530881" xlink:href="#m6503e4141a" y="30.334099"/>
     <use style="fill-opacity:0;stroke:#00bfbf;stroke-width:1.5;" x="338.688" xlink:href="#m6503e4141a" y="30.334099"/>
    </g>
   </g>
   <g id="line2d_32">
    <path style="fill:none;stroke:#00bfbf;stroke-linecap:square;stroke-width:1.5;"/>
    <g/>
   </g>
   <g id="line2d_33">
    <defs>
     <path d="M 0 1.5 
C 0.397805 1.5 0.77937 1.341951 1.06066 1.06066 
C 1.341951 0.77937 1.5 0.397805 1.5 0 
C 1.5 -0.397805 1.341951 -0.77937 1.06066 -1.06066 
C 0.77937 -1.341951 0.397805 -1.5 0 -1.5 
C -0.397805 -1.5 -0.77937 -1.341951 -1.06066 -1.06066 
C -1.341951 -0.77937 -1.5 -0.397805 -1.5 0 
C -1.5 0.397805 -1.341951 0.77937 -1.06066 1.06066 
C -0.77937 1.341951 -0.397805 1.5 0 1.5 
z
" id="m5ccb5c978f" style="stroke:#008000;"/>
    </defs>
    <g>
     <use style="fill:#008000;stroke:#008000;" x="175.046437" xlink:href="#m5ccb5c978f" y="30.334099"/>
     <use style="fill:#008000;stroke:#008000;" x="175.046437" xlink:href="#m5ccb5c978f" y="30.334099"/>
    </g>
   </g>
   <g id="line2d_34">
    <path d="M 62.616969 298.944 
L 62.616969 290.517023 
L 88.846997 290.517023 
L 88.846997 289.463651 
L 91.535274 289.463651 
L 91.535274 288.936964 
L 95.918017 288.936964 
L 95.918017 287.356906 
L 97.755429 287.356906 
L 97.755429 283.670104 
L 99.41757 283.670104 
L 99.41757 282.616732 
L 99.938184 282.616732 
L 99.938184 281.563359 
L 100.443706 281.563359 
L 100.443706 281.036673 
L 104.033617 281.036673 
L 104.033617 279.456615 
L 107.680028 279.456615 
L 107.680028 278.929929 
L 108.006005 278.929929 
L 108.006005 276.823185 
L 108.326001 276.823185 
L 108.326001 275.769812 
L 109.252198 275.769812 
L 109.252198 273.663068 
L 109.550313 273.663068 
L 109.550313 273.136382 
L 111.239304 273.136382 
L 111.239304 272.08301 
L 113.26352 272.08301 
L 113.26352 271.556324 
L 114.641021 271.556324 
L 114.641021 271.029638 
L 115.291007 271.029638 
L 115.291007 270.502952 
L 115.711251 270.502952 
L 115.711251 269.449579 
L 116.323218 269.449579 
L 116.323218 268.922893 
L 116.914437 268.922893 
L 116.914437 267.869521 
L 118.220662 267.869521 
L 118.220662 266.816149 
L 118.751849 266.816149 
L 118.751849 263.656033 
L 118.925375 263.656033 
L 118.925375 261.549288 
L 119.097192 261.549288 
L 119.097192 259.96923 
L 119.768017 259.96923 
L 119.768017 258.915858 
L 120.883236 258.915858 
L 120.883236 257.862486 
L 121.189196 257.862486 
L 121.189196 257.3358 
L 122.503236 257.3358 
L 122.503236 256.809114 
L 122.643312 256.809114 
L 122.643312 254.175683 
L 122.782271 254.175683 
L 122.782271 253.648997 
L 123.056911 253.648997 
L 123.056911 253.122311 
L 123.192626 253.122311 
L 123.192626 251.015567 
L 123.593547 251.015567 
L 123.593547 250.488881 
L 123.725164 250.488881 
L 123.725164 248.382136 
L 124.114161 248.382136 
L 124.114161 247.328764 
L 124.241922 247.328764 
L 124.241922 246.802078 
L 125.23165 246.802078 
L 125.23165 245.22202 
L 125.470548 245.22202 
L 125.470548 244.695334 
L 125.706218 244.695334 
L 125.706218 243.641962 
L 127.48501 243.641962 
L 127.590383 242.588589 
L 127.695124 242.588589 
L 127.695124 242.061903 
L 129.853291 242.061903 
L 129.853291 241.535217 
L 130.218525 241.535217 
L 130.218525 239.428473 
L 130.398313 239.428473 
L 130.398313 238.901787 
L 131.856005 238.901787 
L 131.856005 237.321729 
L 132.181982 237.321729 
L 132.181982 236.268356 
L 132.73818 236.268356 
L 132.73818 235.74167 
L 133.428175 235.74167 
L 133.428175 234.688298 
L 134.236034 234.688298 
L 134.236034 234.161612 
L 134.591225 234.161612 
L 134.591225 233.634926 
L 134.7313 233.634926 
L 134.7313 233.10824 
L 135.212889 233.10824 
L 135.212889 231.528182 
L 135.482227 231.528182 
L 135.482227 231.001496 
L 137.138292 231.001496 
L 137.138292 230.47481 
L 138.026733 230.47481 
L 138.026733 229.948123 
L 138.761723 229.948123 
L 138.816998 227.841379 
L 139.887228 227.841379 
L 139.990725 226.261321 
L 140.64889 226.261321 
L 140.64889 225.734635 
L 140.993259 225.734635 
L 140.993259 224.154577 
L 141.80232 224.154577 
L 141.80232 223.101204 
L 142.441528 223.101204 
L 142.441528 222.574518 
L 144.026061 222.574518 
L 144.026061 221.521146 
L 144.310293 221.521146 
L 144.310293 220.99446 
L 144.470655 220.99446 
L 144.470655 220.467774 
L 145.403044 220.467774 
L 145.403044 219.941088 
L 146.395642 219.941088 
L 146.466968 218.887716 
L 146.749392 218.887716 
L 146.819289 213.094169 
L 146.888907 213.094169 
L 146.888907 212.567483 
L 147.198794 212.567483 
L 147.198794 212.040797 
L 147.334773 212.040797 
L 147.334773 211.514111 
L 147.50327 211.514111 
L 147.50327 210.460738 
L 148.161434 210.460738 
L 148.161434 209.934052 
L 148.639252 209.934052 
L 148.639252 209.407366 
L 148.888835 209.407366 
L 148.888835 208.88068 
L 149.256637 208.88068 
L 149.256637 208.353994 
L 149.437669 208.353994 
L 149.467659 207.300622 
L 150.287105 207.300622 
L 150.372662 205.193878 
L 150.401087 205.193878 
L 150.401087 204.667192 
L 150.79426 204.667192 
L 150.79426 203.613819 
L 151.015013 203.613819 
L 151.069768 202.033761 
L 151.314058 202.033761 
L 151.367883 200.980389 
L 151.634543 200.980389 
L 151.660987 198.873645 
L 151.871101 198.873645 
L 151.949246 197.293586 
L 152.207228 197.293586 
L 152.207228 196.7669 
L 152.436193 196.7669 
L 152.436193 196.240214 
L 152.712018 196.240214 
L 152.712018 194.13347 
L 153.032466 194.13347 
L 153.032466 192.553412 
L 153.226778 192.553412 
L 153.29909 190.973354 
L 153.466662 190.973354 
L 153.561699 189.919981 
L 153.679772 189.919981 
L 153.679772 189.393295 
L 153.983071 189.393295 
L 153.983071 188.866609 
L 154.529516 188.866609 
L 154.551917 187.286551 
L 154.906477 187.286551 
L 154.906477 186.759865 
L 155.146121 186.759865 
L 155.232454 183.599748 
L 155.296925 183.599748 
L 155.296925 183.073062 
L 155.425155 183.073062 
L 155.446436 182.01969 
L 155.573575 182.01969 
L 155.594676 180.966318 
L 155.720743 180.966318 
L 155.783437 179.912946 
L 155.908152 179.912946 
L 155.908152 179.38626 
L 156.134506 179.38626 
L 156.195732 175.172771 
L 156.43851 175.172771 
L 156.43851 174.646085 
L 156.618401 174.646085 
L 156.677955 173.592713 
L 156.737306 173.592713 
L 156.796456 172.012655 
L 157.011638 172.012655 
L 157.089232 170.432596 
L 157.147202 170.432596 
L 157.243392 165.692422 
L 157.262567 165.692422 
L 157.28172 164.63905 
L 157.528821 164.63905 
L 157.528821 164.112363 
L 157.716543 164.112363 
L 157.79107 163.058991 
L 157.86528 163.058991 
L 157.86528 162.005619 
L 158.140788 162.005619 
L 158.213527 156.738758 
L 158.267884 156.738758 
L 158.267884 156.212072 
L 158.501489 156.212072 
L 158.501489 155.685386 
L 158.67908 155.685386 
L 158.69674 154.632014 
L 158.907277 154.632014 
L 158.907277 154.105328 
L 159.098062 154.105328 
L 159.184097 150.945211 
L 159.320876 150.945211 
L 159.405822 149.365153 
L 159.456591 149.365153 
L 159.456591 148.838467 
L 159.591258 148.838467 
L 159.591258 148.311781 
L 159.791329 148.311781 
L 159.84099 147.258409 
L 159.93989 147.258409 
L 159.93989 146.731723 
L 160.103486 146.731723 
L 160.103486 146.205037 
L 160.249422 146.205037 
L 160.249422 145.678351 
L 160.394148 145.678351 
L 160.458086 144.098292 
L 160.680044 144.098292 
L 160.758635 141.991548 
L 160.80562 141.991548 
L 160.86807 138.304745 
L 160.992304 138.304745 
L 161.100288 136.198001 
L 161.299072 136.198001 
L 161.405178 131.984513 
L 161.420284 131.984513 
L 161.450455 130.93114 
L 161.630398 130.93114 
L 161.630398 129.877768 
L 161.749336 129.877768 
L 161.749336 128.824396 
L 161.955547 128.824396 
L 162.014019 127.244338 
L 162.115875 127.244338 
L 162.188268 124.610907 
L 162.260361 124.610907 
L 162.346481 120.924105 
L 162.389382 120.924105 
L 162.474869 115.130558 
L 162.517456 115.130558 
L 162.616422 112.497128 
L 162.658665 112.497128 
L 162.742845 110.390383 
L 162.770815 110.390383 
L 162.868358 106.703581 
L 162.9377 106.703581 
L 163.034316 103.543464 
L 163.171418 103.543464 
L 163.253165 99.856662 
L 163.375071 99.856662 
L 163.482721 90.902998 
L 163.536298 90.902998 
L 163.642961 87.216196 
L 163.762182 87.216196 
L 163.814908 86.162824 
L 164.011225 86.162824 
L 164.037234 84.582765 
L 164.179597 84.582765 
L 164.205356 81.949335 
L 164.333587 81.949335 
L 164.435497 77.20916 
L 164.51154 77.20916 
L 164.51154 76.682474 
L 164.725213 76.682474 
L 164.812441 75.629102 
L 164.837283 75.629102 
L 164.837283 75.102416 
L 164.997901 75.102416 
L 164.997901 74.57573 
L 165.254276 74.57573 
L 165.35096 69.308869 
L 165.506937 69.308869 
L 165.506937 67.728811 
L 165.637836 67.728811 
L 165.637836 67.202125 
L 165.76776 67.202125 
L 165.76776 66.675439 
L 166.117256 66.675439 
L 166.163331 65.622066 
L 166.369174 65.622066 
L 166.369174 64.568694 
L 166.673454 64.568694 
L 166.673454 64.042008 
L 166.807003 64.042008 
L 166.807003 63.515322 
L 167.555679 63.515322 
L 167.555679 62.988636 
L 167.745812 62.988636 
L 167.819196 59.301833 
L 167.902688 59.301833 
L 167.902688 58.248461 
L 168.047843 58.248461 
L 168.047843 56.141717 
L 168.242927 56.141717 
L 168.242927 55.615031 
L 168.445948 55.615031 
L 168.445948 55.088345 
L 168.60668 55.088345 
L 168.686493 52.9816 
L 168.894283 52.9816 
L 168.992367 51.928228 
L 169.225542 51.928228 
L 169.225542 51.401542 
L 169.379278 51.401542 
L 169.3984 50.34817 
L 169.860457 50.34817 
L 169.916203 47.71474 
L 170.455087 47.71474 
L 170.455087 47.188054 
L 170.642945 47.188054 
L 170.642945 46.661368 
L 170.784729 46.661368 
L 170.784729 46.134681 
L 171.003983 46.134681 
L 171.003983 45.607995 
L 171.177424 45.607995 
L 171.177424 45.081309 
L 171.297814 45.081309 
L 171.297814 44.027937 
L 171.679247 44.027937 
L 171.679247 42.974565 
L 171.904165 42.974565 
L 171.904165 42.447879 
L 172.775907 42.447879 
L 172.854463 40.867821 
L 173.088028 40.867821 
L 173.118935 39.287762 
L 173.485609 39.287762 
L 173.55351 37.707704 
L 173.60614 37.707704 
L 173.60614 37.181018 
L 174.028886 37.181018 
L 174.028886 36.654332 
L 174.398638 36.654332 
L 174.470228 34.547588 
L 174.626698 34.547588 
L 174.718503 32.440843 
L 174.921573 32.440843 
L 174.921573 31.387471 
L 175.046437 31.387471 
L 175.046437 30.334099 
L 338.688 30.334099 
L 338.688 30.334099 
" style="fill:none;stroke:#008000;stroke-linecap:square;stroke-width:1.5;"/>
   </g>
   <g id="line2d_35">
    <defs>
     <path d="M -0 6 
L 6 -6 
L -6 -6 
z
" id="mc482eb647c" style="stroke:#008000;stroke-linejoin:miter;stroke-width:1.5;"/>
    </defs>
    <g>
     <use style="fill-opacity:0;stroke:#008000;stroke-linejoin:miter;stroke-width:1.5;" x="147.198794" xlink:href="#mc482eb647c" y="212.040797"/>
     <use style="fill-opacity:0;stroke:#008000;stroke-linejoin:miter;stroke-width:1.5;" x="175.046437" xlink:href="#mc482eb647c" y="31.387471"/>
     <use style="fill-opacity:0;stroke:#008000;stroke-linejoin:miter;stroke-width:1.5;" x="175.046437" xlink:href="#mc482eb647c" y="30.334099"/>
     <use style="fill-opacity:0;stroke:#008000;stroke-linejoin:miter;stroke-width:1.5;" x="175.046437" xlink:href="#mc482eb647c" y="30.334099"/>
     <use style="fill-opacity:0;stroke:#008000;stroke-linejoin:miter;stroke-width:1.5;" x="338.688" xlink:href="#mc482eb647c" y="30.334099"/>
    </g>
   </g>
   <g id="line2d_36">
    <path style="fill:none;stroke:#008000;stroke-linecap:square;stroke-width:1.5;"/>
    <g/>
   </g>
   <g id="line2d_37">
    <defs>
     <path d="M 0 1.5 
C 0.397805 1.5 0.77937 1.341951 1.06066 1.06066 
C 1.341951 0.77937 1.5 0.397805 1.5 0 
C 1.5 -0.397805 1.341951 -0.77937 1.06066 -1.06066 
C 0.77937 -1.341951 0.397805 -1.5 0 -1.5 
C -0.397805 -1.5 -0.77937 -1.341951 -1.06066 -1.06066 
C -1.341951 -0.77937 -1.5 -0.397805 -1.5 0 
C -1.5 0.397805 -1.341951 0.77937 -1.06066 1.06066 
C -0.77937 1.341951 -0.397805 1.5 0 1.5 
z
" id="m5a3d642cee" style="stroke:#0000ff;"/>
    </defs>
    <g>
     <use style="fill:#0000ff;stroke:#0000ff;" x="219.861963" xlink:href="#m5a3d642cee" y="30.334099"/>
     <use style="fill:#0000ff;stroke:#0000ff;" x="219.861963" xlink:href="#m5a3d642cee" y="30.334099"/>
    </g>
   </g>
   <g id="line2d_38">
    <path d="M 106.382575 298.944 
L 106.382575 297.363942 
L 107.614095 297.363942 
L 107.614095 296.837256 
L 108.198707 296.837256 
L 108.198707 296.31057 
L 109.668146 296.31057 
L 109.668146 295.783884 
L 110.188761 295.783884 
L 110.188761 295.257197 
L 114.552496 295.257197 
L 114.552496 293.677139 
L 114.685115 293.677139 
L 114.685115 293.150453 
L 118.039942 293.150453 
L 118.039942 292.097081 
L 118.786692 292.097081 
L 118.786692 291.570395 
L 119.097192 291.570395 
L 119.097192 291.043709 
L 119.502775 291.043709 
L 119.502775 290.517023 
L 120.759333 290.517023 
L 120.759333 289.990337 
L 121.036887 289.990337 
L 121.036887 288.936964 
L 121.756135 288.936964 
L 121.84399 287.356906 
L 121.931406 287.356906 
L 121.931406 286.83022 
L 122.531342 286.83022 
L 122.615387 285.776848 
L 122.947573 285.776848 
L 123.029641 284.19679 
L 124.519744 284.19679 
L 124.519744 283.670104 
L 125.183475 283.670104 
L 125.183475 283.143418 
L 125.399222 283.143418 
L 125.399222 282.616732 
L 127.035353 282.616732 
L 127.035353 282.090045 
L 127.229484 282.090045 
L 127.229484 281.563359 
L 127.674226 281.563359 
L 127.674226 281.036673 
L 128.046609 281.036673 
L 128.046609 280.509987 
L 128.650105 280.509987 
L 128.709321 278.403243 
L 128.944197 278.403243 
L 128.944197 277.876557 
L 130.018593 277.876557 
L 130.127931 276.823185 
L 130.558552 276.823185 
L 130.558552 276.296499 
L 131.540579 276.296499 
L 131.540579 275.769812 
L 132.036046 275.769812 
L 132.036046 275.243126 
L 132.278599 275.243126 
L 132.278599 274.71644 
L 132.565279 274.71644 
L 132.565279 273.136382 
L 132.893889 273.136382 
L 132.893889 272.609696 
L 133.352844 272.609696 
L 133.398082 271.556324 
L 133.622529 271.556324 
L 133.622529 271.029638 
L 134.321942 271.029638 
L 134.321942 270.502952 
L 134.745246 270.502952 
L 134.745246 269.976266 
L 134.911732 269.976266 
L 134.911732 269.449579 
L 135.956794 269.449579 
L 135.956794 268.922893 
L 136.266147 268.922893 
L 136.266147 268.396207 
L 136.720123 268.396207 
L 136.720123 266.289463 
L 136.979586 266.289463 
L 137.053015 263.129347 
L 138.959898 263.129347 
L 138.959898 262.60266 
L 139.381706 262.60266 
L 139.381706 262.075974 
L 140.317849 262.075974 
L 140.317849 261.549288 
L 141.20629 261.549288 
L 141.20629 261.022602 
L 141.774395 261.022602 
L 141.774395 260.495916 
L 142.432559 260.495916 
L 142.459451 259.442544 
L 142.831645 259.442544 
L 142.831645 258.915858 
L 143.678752 258.915858 
L 143.678752 257.862486 
L 144.294175 257.862486 
L 144.294175 257.3358 
L 144.700592 257.3358 
L 144.700592 256.809114 
L 145.553708 256.809114 
L 145.553708 256.282427 
L 146.644018 256.282427 
L 146.644018 255.755741 
L 146.875005 255.755741 
L 146.875005 255.229055 
L 147.550159 255.229055 
L 147.550159 254.702369 
L 148.044783 254.702369 
L 148.083753 253.648997 
L 149.067574 253.648997 
L 149.067574 253.122311 
L 150.206871 253.122311 
L 150.206871 252.595625 
L 150.446473 252.595625 
L 150.446473 252.068939 
L 150.965587 252.068939 
L 150.965587 251.542253 
L 151.276281 251.542253 
L 151.276281 251.015567 
L 151.453659 251.015567 
L 151.453659 250.488881 
L 151.803091 250.488881 
L 151.803091 249.962195 
L 152.145659 249.962195 
L 152.145659 249.435508 
L 152.421022 249.435508 
L 152.421022 248.908822 
L 152.781537 248.908822 
L 152.781537 248.382136 
L 152.900071 248.382136 
L 152.988446 246.802078 
L 153.017805 246.802078 
L 153.076375 245.748706 
L 153.337534 245.748706 
L 153.337534 245.22202 
L 153.792374 245.22202 
L 153.792374 244.695334 
L 154.385464 244.695334 
L 154.385464 244.168648 
L 154.945917 244.168648 
L 154.945917 243.115275 
L 155.102793 243.115275 
L 155.102793 242.588589 
L 155.373976 242.588589 
L 155.373976 242.061903 
L 155.603109 242.061903 
L 155.666226 241.008531 
L 155.716556 241.008531 
L 155.804285 239.428473 
L 155.82927 239.428473 
L 155.82927 238.375101 
L 156.138594 238.375101 
L 156.248622 237.321729 
L 156.333721 237.321729 
L 156.333721 236.795043 
L 156.454576 236.795043 
L 156.514691 235.74167 
L 156.729404 235.74167 
L 156.812195 233.10824 
L 156.92979 233.10824 
L 156.976607 232.054868 
L 157.392398 232.054868 
L 157.483465 229.948123 
L 157.77619 229.948123 
L 157.84305 228.894751 
L 157.909655 228.894751 
L 157.98704 227.841379 
L 158.064083 227.841379 
L 158.064083 227.314693 
L 158.390468 227.314693 
L 158.497919 225.734635 
L 158.636623 225.734635 
L 158.636623 224.154577 
L 159.108409 224.154577 
L 159.190962 223.101204 
L 159.221818 223.101204 
L 159.262876 221.521146 
L 159.415988 221.521146 
L 159.415988 220.99446 
L 159.698248 220.99446 
L 159.738201 219.941088 
L 159.867418 219.941088 
L 159.976013 218.36103 
L 159.985851 218.36103 
L 160.064363 216.780971 
L 160.499521 216.780971 
L 160.518612 215.727599 
L 160.651664 215.727599 
L 160.708377 214.674227 
L 160.905434 214.674227 
L 160.905434 214.147541 
L 161.311231 214.147541 
L 161.411222 212.567483 
L 161.743409 212.567483 
L 161.743409 212.040797 
L 162.112973 212.040797 
L 162.112973 211.514111 
L 162.268992 211.514111 
L 162.29486 210.460738 
L 162.491916 210.460738 
L 162.491916 208.88068 
L 162.80432 208.88068 
L 162.80432 208.353994 
L 163.135875 208.353994 
L 163.225959 206.773936 
L 163.348054 206.773936 
L 163.453184 205.193878 
L 163.461244 205.193878 
L 163.477355 204.140506 
L 163.589711 204.140506 
L 163.589711 203.613819 
L 163.701348 203.613819 
L 163.7569 201.507075 
L 163.883215 201.507075 
L 163.883215 200.980389 
L 164.078769 200.980389 
L 164.171861 198.346959 
L 164.256762 198.346959 
L 164.256762 197.820273 
L 164.448194 197.820273 
L 164.448194 197.293586 
L 164.735204 197.293586 
L 164.839766 194.660156 
L 164.928893 194.660156 
L 164.98806 192.026726 
L 165.09112 192.026726 
L 165.09112 190.973354 
L 165.273656 190.973354 
L 165.382267 188.866609 
L 165.418321 188.866609 
L 165.490206 186.759865 
L 165.55465 186.759865 
L 165.583216 185.179807 
L 165.675732 185.179807 
L 165.711185 184.126434 
L 165.803027 184.126434 
L 165.9084 182.546376 
L 166.040966 182.546376 
L 166.124175 179.912946 
L 166.337313 179.912946 
L 166.439517 178.859574 
L 166.493781 178.859574 
L 166.581603 177.806202 
L 166.615263 177.806202 
L 166.675688 176.752829 
L 166.809221 176.752829 
L 166.908703 174.646085 
L 166.935137 174.646085 
L 166.935137 174.119399 
L 167.053592 174.119399 
L 167.053592 173.592713 
L 167.184273 173.592713 
L 167.255733 172.012655 
L 167.3269 172.012655 
L 167.3269 170.959282 
L 167.455557 170.959282 
L 167.55143 169.379224 
L 167.583271 169.379224 
L 167.583271 168.852538 
L 167.716371 168.852538 
L 167.804544 166.745794 
L 167.829655 166.745794 
L 167.829655 166.219108 
L 167.985782 166.219108 
L 168.084975 165.165736 
L 168.13436 165.165736 
L 168.177458 163.058991 
L 168.287795 163.058991 
L 168.287795 162.532305 
L 168.488284 162.532305 
L 168.548585 158.845503 
L 168.71633 158.845503 
L 168.811464 157.265444 
L 168.894283 157.265444 
L 169.00019 155.1587 
L 169.052903 155.1587 
L 169.128764 154.105328 
L 169.181091 154.105328 
L 169.262177 150.945211 
L 169.296813 150.945211 
L 169.296813 150.418525 
L 169.417501 150.418525 
L 169.486092 148.838467 
L 169.605481 148.838467 
L 169.605481 148.311781 
L 169.752173 148.311781 
L 169.802665 145.678351 
L 169.942157 145.678351 
L 170.036379 141.991548 
L 170.080543 141.991548 
L 170.080543 140.938176 
L 170.195944 140.938176 
L 170.272457 138.831432 
L 170.381181 138.831432 
L 170.429886 136.198001 
L 170.575192 136.198001 
L 170.601968 134.091257 
L 170.692701 134.091257 
L 170.703344 133.037885 
L 170.809423 133.037885 
L 170.809423 131.984513 
L 170.935871 131.984513 
L 171.030109 128.824396 
L 171.061409 128.824396 
L 171.113451 127.771024 
L 171.248038 127.771024 
L 171.35599 126.190966 
L 171.46837 126.190966 
L 171.534438 124.610907 
L 171.585089 124.610907 
L 171.595202 123.030849 
L 171.731152 123.030849 
L 171.731152 121.450791 
L 171.920711 121.450791 
L 172.02459 119.344047 
L 172.137657 119.344047 
L 172.167033 117.763988 
L 172.264595 117.763988 
L 172.366452 115.657244 
L 172.810515 115.657244 
L 172.857598 114.077186 
L 172.932666 114.077186 
L 172.956059 113.023814 
L 173.206721 113.023814 
L 173.303236 111.970441 
L 173.358148 111.970441 
L 173.358148 111.443755 
L 173.589616 111.443755 
L 173.693007 109.337011 
L 173.701969 109.337011 
L 173.742239 107.756953 
L 173.933369 107.756953 
L 173.933369 107.230267 
L 174.083025 107.230267 
L 174.13554 105.123522 
L 174.235754 105.123522 
L 174.266139 104.07015 
L 174.404376 104.07015 
L 174.464511 102.490092 
L 174.558593 102.490092 
L 174.66913 99.856662 
L 174.703001 99.856662 
L 174.795808 98.276603 
L 174.896492 98.276603 
L 175.004915 96.696545 
L 175.02984 96.696545 
L 175.08786 94.063115 
L 175.256675 94.063115 
L 175.305777 91.429684 
L 175.38324 91.429684 
L 175.484643 89.849626 
L 175.529074 89.849626 
L 175.621612 87.216196 
L 175.761495 87.216196 
L 175.825069 85.636137 
L 175.951527 85.636137 
L 176.014414 84.056079 
L 176.158977 84.056079 
L 176.228874 81.949335 
L 176.367833 81.949335 
L 176.452211 78.789218 
L 176.524755 78.789218 
L 176.532374 76.682474 
L 176.650041 76.682474 
L 176.759402 74.57573 
L 176.8157 74.57573 
L 176.8157 74.049044 
L 177.002059 74.049044 
L 177.08712 71.942299 
L 177.230412 71.942299 
L 177.292506 68.782183 
L 177.383421 68.782183 
L 177.488292 66.148752 
L 177.531503 66.148752 
L 177.531503 65.622066 
L 177.664067 65.622066 
L 177.774364 64.568694 
L 177.77791 64.568694 
L 177.873391 63.515322 
L 178.027877 63.515322 
L 178.069773 61.935264 
L 178.156735 61.935264 
L 178.229449 60.355206 
L 178.274311 60.355206 
L 178.360262 58.775147 
L 178.537693 58.775147 
L 178.547874 57.721775 
L 178.763676 57.721775 
L 178.860589 56.141717 
L 179.128459 56.141717 
L 179.128459 55.615031 
L 179.249463 55.615031 
L 179.262495 54.561659 
L 180.85195 54.561659 
L 180.85195 54.034973 
L 181.064699 54.034973 
L 181.064699 53.508287 
L 181.379034 53.508287 
L 181.384802 52.454914 
L 181.611122 52.454914 
L 181.611122 51.928228 
L 182.168531 51.928228 
L 182.218083 49.821484 
L 182.368623 49.821484 
L 182.368623 49.294798 
L 182.799311 49.294798 
L 182.884187 47.71474 
L 182.950209 47.71474 
L 182.950209 47.188054 
L 183.112876 47.188054 
L 183.185844 45.081309 
L 183.307643 45.081309 
L 183.307643 44.554623 
L 206.276837 44.554623 
L 206.276837 44.027937 
L 206.393372 44.027937 
L 206.393372 43.501251 
L 207.085282 43.501251 
L 207.085282 42.974565 
L 207.325375 42.974565 
L 207.325375 42.447879 
L 207.649398 42.447879 
L 207.707496 41.394507 
L 207.76413 41.394507 
L 207.793964 40.341135 
L 207.891362 40.341135 
L 207.983829 39.287762 
L 208.324891 39.287762 
L 208.324891 38.761076 
L 208.605615 38.761076 
L 208.605615 38.23439 
L 208.720861 38.23439 
L 208.720861 37.707704 
L 208.846699 37.707704 
L 208.953842 35.074274 
L 209.089208 35.074274 
L 209.183752 32.967529 
L 209.215348 32.967529 
L 209.215348 32.440843 
L 218.724326 32.440843 
L 218.754122 31.387471 
L 218.836808 31.387471 
L 218.836808 30.860785 
L 219.861963 30.860785 
L 219.861963 30.334099 
L 338.688 30.334099 
L 338.688 30.334099 
" style="fill:none;stroke:#0000ff;stroke-linecap:square;stroke-width:1.5;"/>
   </g>
   <g id="line2d_39">
    <defs>
     <path d="M 0 -6 
L -1.347084 -1.854102 
L -5.706339 -1.854102 
L -2.179628 0.708204 
L -3.526712 4.854102 
L -0 2.291796 
L 3.526712 4.854102 
L 2.179628 0.708204 
L 5.706339 -1.854102 
L 1.347084 -1.854102 
z
" id="m35a264a6c8" style="stroke:#0000ff;stroke-linejoin:bevel;stroke-width:1.5;"/>
    </defs>
    <g>
     <use style="fill-opacity:0;stroke:#0000ff;stroke-linejoin:bevel;stroke-width:1.5;" x="139.381706" xlink:href="#m35a264a6c8" y="262.60266"/>
     <use style="fill-opacity:0;stroke:#0000ff;stroke-linejoin:bevel;stroke-width:1.5;" x="174.567121" xlink:href="#m35a264a6c8" y="101.43672"/>
     <use style="fill-opacity:0;stroke:#0000ff;stroke-linejoin:bevel;stroke-width:1.5;" x="219.861963" xlink:href="#m35a264a6c8" y="30.860785"/>
     <use style="fill-opacity:0;stroke:#0000ff;stroke-linejoin:bevel;stroke-width:1.5;" x="219.861963" xlink:href="#m35a264a6c8" y="30.334099"/>
     <use style="fill-opacity:0;stroke:#0000ff;stroke-linejoin:bevel;stroke-width:1.5;" x="338.688" xlink:href="#m35a264a6c8" y="30.334099"/>
    </g>
   </g>
   <g id="line2d_40">
    <path style="fill:none;stroke:#0000ff;stroke-linecap:square;stroke-width:1.5;"/>
    <g/>
   </g>
   <g id="line2d_41">
    <path clip-path="url(#pbf53d6fdd1)" d="M 206.138608 44.554623 
" style="fill:none;stroke:#0000ff;stroke-linecap:square;stroke-width:1.5;"/>
    <defs>
     <path d="M -12 12 
L 12 -12 
M -12 -12 
L 12 12 
" id="m0f54323ddb" style="stroke:#0000ff;"/>
    </defs>
    <g clip-path="url(#pbf53d6fdd1)">
     <use style="fill:#0000ff;stroke:#0000ff;" x="206.138608" xlink:href="#m0f54323ddb" y="44.554623"/>
    </g>
   </g>
   <g id="line2d_42">
    <defs>
     <path d="M 0 1.5 
C 0.397805 1.5 0.77937 1.341951 1.06066 1.06066 
C 1.341951 0.77937 1.5 0.397805 1.5 0 
C 1.5 -0.397805 1.341951 -0.77937 1.06066 -1.06066 
C 0.77937 -1.341951 0.397805 -1.5 0 -1.5 
C -0.397805 -1.5 -0.77937 -1.341951 -1.06066 -1.06066 
C -1.341951 -0.77937 -1.5 -0.397805 -1.5 0 
C -1.5 0.397805 -1.341951 0.77937 -1.06066 1.06066 
C -0.77937 1.341951 -0.397805 1.5 0 1.5 
z
" id="m9f3c63c603" style="stroke:#000000;"/>
    </defs>
    <g>
     <use style="stroke:#000000;" x="231.581789" xlink:href="#m9f3c63c603" y="30.334099"/>
     <use style="stroke:#000000;" x="231.581789" xlink:href="#m9f3c63c603" y="30.334099"/>
    </g>
   </g>
   <g id="line2d_43">
    <path d="M 109.31223 298.944 
L 109.31223 298.417314 
L 113.804498 298.417314 
L 113.804498 297.890628 
L 117.202696 297.890628 
L 117.202696 297.363942 
L 118.417314 297.363942 
L 118.417314 296.837256 
L 119.40226 296.837256 
L 119.40226 296.31057 
L 120.618882 296.31057 
L 120.618882 295.783884 
L 120.8059 295.783884 
L 120.8059 294.730511 
L 121.219499 294.730511 
L 121.219499 294.203825 
L 121.579085 294.203825 
L 121.579085 293.677139 
L 122.104932 293.677139 
L 122.104932 293.150453 
L 123.111324 293.150453 
L 123.111324 292.623767 
L 123.474235 292.623767 
L 123.474235 292.097081 
L 123.672636 292.097081 
L 123.751369 290.517023 
L 125.074593 290.517023 
L 125.074593 289.990337 
L 125.892487 289.990337 
L 125.892487 289.463651 
L 126.030894 289.463651 
L 126.030894 288.936964 
L 126.338353 288.936964 
L 126.405947 287.883592 
L 126.640485 287.883592 
L 126.640485 287.356906 
L 126.773103 287.356906 
L 126.839037 286.303534 
L 127.325746 286.303534 
L 127.325746 285.250162 
L 127.985095 285.250162 
L 127.985095 284.723476 
L 128.590686 284.723476 
L 128.590686 284.19679 
L 130.045992 284.19679 
L 130.045992 283.143418 
L 130.371462 283.143418 
L 130.371462 282.616732 
L 130.61164 282.616732 
L 130.61164 282.090045 
L 130.926816 282.090045 
L 130.926816 281.563359 
L 132.777237 281.563359 
L 132.777237 281.036673 
L 133.844123 281.036673 
L 133.844123 280.509987 
L 135.621981 280.509987 
L 135.621981 279.983301 
L 136.150782 279.983301 
L 136.150782 279.456615 
L 141.364373 279.456615 
L 141.364373 278.929929 
L 141.549369 278.929929 
L 141.549369 278.403243 
L 143.337167 278.403243 
L 143.337167 277.876557 
L 143.666219 277.876557 
L 143.666219 277.349871 
L 144.330419 277.349871 
L 144.330419 276.823185 
L 146.958248 276.823185 
L 146.958248 276.296499 
L 147.87818 276.296499 
L 147.87818 275.769812 
L 148.563676 275.769812 
L 148.563676 275.243126 
L 149.223242 275.243126 
L 149.223242 274.71644 
L 149.823575 274.71644 
L 149.823575 274.189754 
L 150.505862 274.189754 
L 150.505862 273.663068 
L 151.477707 273.663068 
L 151.477707 273.136382 
L 151.920633 273.136382 
L 151.920633 272.609696 
L 152.222586 272.609696 
L 152.222586 272.08301 
L 152.481628 272.08301 
L 152.481628 271.556324 
L 154.426099 271.556324 
L 154.486875 270.502952 
L 154.54072 270.502952 
L 154.54072 269.976266 
L 154.8141 269.976266 
L 154.8141 269.449579 
L 155.565128 269.449579 
L 155.565128 268.922893 
L 156.364014 268.922893 
L 156.364014 268.396207 
L 156.574599 268.396207 
L 156.574599 267.869521 
L 157.220355 267.869521 
L 157.220355 267.342835 
L 157.56276 267.342835 
L 157.56276 266.816149 
L 158.233478 266.816149 
L 158.233478 266.289463 
L 158.962994 266.289463 
L 158.962994 265.762777 
L 159.738201 265.762777 
L 159.738201 265.236091 
L 159.976013 265.236091 
L 159.976013 264.709405 
L 160.191194 264.709405 
L 160.191194 264.182719 
L 163.180975 264.182719 
L 163.287113 263.129347 
L 164.91407 263.129347 
L 164.943704 262.075974 
L 165.497378 262.075974 
L 165.608172 261.022602 
L 166.134549 261.022602 
L 166.134549 260.495916 
L 166.595075 260.495916 
L 166.645502 259.442544 
L 167.404208 259.442544 
L 167.404208 258.915858 
L 168.232714 258.915858 
L 168.232714 258.389172 
L 168.740162 258.389172 
L 168.740162 257.862486 
L 168.976711 257.862486 
L 169.047054 256.809114 
L 169.468969 256.809114 
L 169.468969 256.282427 
L 169.608314 256.282427 
L 169.608314 255.755741 
L 169.760598 255.755741 
L 169.827856 254.702369 
L 169.967148 254.702369 
L 169.967148 254.175683 
L 170.324185 254.175683 
L 170.324185 253.648997 
L 170.56447 253.648997 
L 170.56447 253.122311 
L 170.703344 253.122311 
L 170.777667 252.068939 
L 170.859585 252.068939 
L 170.859585 251.542253 
L 171.237722 251.542253 
L 171.237722 251.015567 
L 171.376477 251.015567 
L 171.437793 249.435508 
L 172.110686 249.435508 
L 172.164587 247.85545 
L 172.453287 247.85545 
L 172.549266 246.802078 
L 172.647099 246.802078 
L 172.670877 245.748706 
L 173.014404 245.748706 
L 173.08184 244.168648 
L 173.213633 244.168648 
L 173.213633 243.641962 
L 173.330714 243.641962 
L 173.369567 241.535217 
L 173.476535 241.535217 
L 173.476535 241.008531 
L 173.600884 241.008531 
L 173.600884 240.481845 
L 173.979723 240.481845 
L 174.001754 238.375101 
L 174.139909 238.375101 
L 174.224889 237.321729 
L 174.348349 237.321729 
L 174.389309 235.74167 
L 174.554327 235.74167 
L 174.554327 235.214984 
L 174.673367 235.214984 
L 174.726249 234.161612 
L 174.789496 234.161612 
L 174.842027 233.10824 
L 175.011149 233.10824 
L 175.110601 231.528182 
L 175.170413 231.528182 
L 175.264868 229.948123 
L 175.326195 229.948123 
L 175.409661 228.368065 
L 175.450232 228.368065 
L 175.49273 226.788007 
L 175.659691 226.788007 
L 175.769454 224.681263 
L 175.775421 224.681263 
L 175.870621 222.574518 
L 175.941681 222.574518 
L 176.03206 219.941088 
L 176.069255 219.941088 
L 176.12977 217.307658 
L 176.182307 217.307658 
L 176.273384 214.674227 
L 176.319709 214.674227 
L 176.377442 213.094169 
L 176.434985 213.094169 
L 176.532374 211.514111 
L 176.562816 211.514111 
L 176.657605 208.88068 
L 176.704807 208.88068 
L 176.8157 207.827308 
L 176.819447 207.827308 
L 176.929616 205.193878 
L 177.011325 205.193878 
L 177.122133 202.560447 
L 177.146049 202.560447 
L 177.162587 201.507075 
L 177.261486 201.507075 
L 177.332567 197.293586 
L 177.388861 197.293586 
L 177.484686 193.606784 
L 177.579988 193.606784 
L 177.674772 190.446667 
L 177.694379 190.446667 
L 177.77259 188.866609 
L 177.811565 188.866609 
L 177.906862 185.179807 
L 177.922694 185.179807 
L 177.964843 183.599748 
L 178.034867 183.599748 
L 178.078489 180.966318 
L 178.156735 180.966318 
L 178.201784 179.38626 
L 178.313901 179.38626 
L 178.416758 174.119399 
L 178.432134 174.119399 
L 178.449203 173.066027 
L 178.566525 173.066027 
L 178.652737 170.432596 
L 178.723416 170.432596 
L 178.817212 167.27248 
L 178.837246 167.27248 
L 178.942047 163.058991 
L 178.961937 163.058991 
L 179.061053 162.005619 
L 179.077517 162.005619 
L 179.187431 159.898875 
L 179.238053 159.898875 
L 179.348583 153.578642 
L 179.379341 153.578642 
L 179.442308 150.945211 
L 179.506653 150.945211 
L 179.580359 148.838467 
L 179.625071 148.838467 
L 179.72367 145.151665 
L 179.768016 145.151665 
L 179.839052 143.04492 
L 179.912938 143.04492 
L 180.023962 140.41149 
L 180.16678 140.41149 
L 180.250067 139.358118 
L 180.296166 139.358118 
L 180.397157 138.304745 
L 180.429168 138.304745 
L 180.50515 136.198001 
L 180.546043 136.198001 
L 180.627542 135.144629 
L 180.75805 135.144629 
L 180.848977 133.037885 
L 180.872748 133.037885 
L 180.872748 132.511199 
L 181.121875 132.511199 
L 181.196361 131.457826 
L 181.381918 131.457826 
L 181.481132 128.29771 
L 181.502625 128.29771 
L 181.592611 127.244338 
L 181.618236 127.244338 
L 181.718947 125.66428 
L 181.744387 125.66428 
L 181.785296 124.084221 
L 181.922835 124.084221 
L 181.970301 123.030849 
L 182.064845 123.030849 
L 182.138181 121.450791 
L 182.187818 121.450791 
L 182.290778 119.870733 
L 182.338619 119.870733 
L 182.349535 118.817361 
L 182.463749 118.817361 
L 182.524629 116.710616 
L 182.577219 116.710616 
L 182.61891 115.657244 
L 182.711348 115.657244 
L 182.793992 113.5505 
L 182.898733 113.5505 
L 183.004162 111.970441 
L 183.074969 111.970441 
L 183.148095 109.863697 
L 183.220916 109.863697 
L 183.311516 107.756953 
L 183.420902 107.756953 
L 183.4747 106.703581 
L 183.547446 106.703581 
L 183.547446 106.176895 
L 183.688245 106.176895 
L 183.688245 105.650209 
L 183.817886 105.650209 
L 183.922905 103.543464 
L 183.962746 103.543464 
L 184.064426 101.43672 
L 184.087902 101.43672 
L 184.171662 99.329976 
L 184.209713 99.329976 
L 184.272134 98.276603 
L 184.39267 98.276603 
L 184.39267 97.749917 
L 184.517198 97.749917 
L 184.601324 96.696545 
L 184.658777 96.696545 
L 184.737466 95.116487 
L 184.77193 95.116487 
L 184.850112 94.063115 
L 184.942059 94.063115 
L 185.051059 92.483056 
L 185.091905 92.483056 
L 185.202291 89.32294 
L 185.273958 89.32294 
L 185.34648 87.742882 
L 185.436997 87.742882 
L 185.531593 85.636137 
L 185.668585 85.636137 
L 185.750716 84.056079 
L 185.831345 84.056079 
L 185.938273 82.476021 
L 185.981526 82.476021 
L 186.075426 81.422649 
L 186.122736 81.422649 
L 186.225713 80.369277 
L 186.29983 80.369277 
L 186.347621 79.315904 
L 186.427702 79.315904 
L 186.506343 77.735846 
L 186.539631 77.735846 
L 186.60388 76.682474 
L 186.652978 76.682474 
L 186.75394 74.57573 
L 186.820572 74.57573 
L 186.919522 71.942299 
L 186.956222 71.942299 
L 187.054407 69.308869 
L 187.071064 69.308869 
L 187.164467 66.675439 
L 187.2378 66.675439 
L 187.278979 64.568694 
L 219.046983 64.568694 
L 219.08138 63.515322 
L 219.232946 63.515322 
L 219.321914 61.935264 
L 219.437289 61.935264 
L 219.490558 60.881892 
L 219.550775 60.881892 
L 219.550775 60.355206 
L 219.684226 60.355206 
L 219.785761 56.141717 
L 219.801379 56.141717 
L 219.909836 50.874856 
L 219.931194 50.874856 
L 219.999679 46.134681 
L 220.07417 46.134681 
L 220.159739 43.501251 
L 220.222203 43.501251 
L 220.325764 40.867821 
L 220.367911 40.867821 
L 220.423796 39.814448 
L 220.524031 39.814448 
L 220.627643 37.707704 
L 220.741514 37.707704 
L 220.809601 35.60096 
L 220.912134 35.60096 
L 220.95766 34.020902 
L 231.01907 34.020902 
L 231.117415 32.967529 
L 231.153425 32.967529 
L 231.207259 31.387471 
L 231.299939 31.387471 
L 231.299939 30.860785 
L 231.581789 30.860785 
L 231.581789 30.334099 
L 338.688 30.334099 
L 338.688 30.334099 
" style="fill:none;stroke:#000000;stroke-linecap:square;stroke-width:1.5;"/>
   </g>
   <g id="line2d_44">
    <defs>
     <path d="M 0 6 
C 1.591219 6 3.117479 5.367802 4.242641 4.242641 
C 5.367802 3.117479 6 1.591219 6 0 
C 6 -1.591219 5.367802 -3.117479 4.242641 -4.242641 
C 3.117479 -5.367802 1.591219 -6 0 -6 
C -1.591219 -6 -3.117479 -5.367802 -4.242641 -4.242641 
C -5.367802 -3.117479 -6 -1.591219 -6 0 
C -6 1.591219 -5.367802 3.117479 -4.242641 4.242641 
C -3.117479 5.367802 -1.591219 6 0 6 
z
" id="m7277fbdb53" style="stroke:#000000;stroke-width:1.5;"/>
    </defs>
    <g>
     <use style="fill-opacity:0;stroke:#000000;stroke-width:1.5;" x="171.376477" xlink:href="#m7277fbdb53" y="251.015567"/>
     <use style="fill-opacity:0;stroke:#000000;stroke-width:1.5;" x="187.278979" xlink:href="#m7277fbdb53" y="64.568694"/>
     <use style="fill-opacity:0;stroke:#000000;stroke-width:1.5;" x="231.581789" xlink:href="#m7277fbdb53" y="30.860785"/>
     <use style="fill-opacity:0;stroke:#000000;stroke-width:1.5;" x="231.581789" xlink:href="#m7277fbdb53" y="30.334099"/>
     <use style="fill-opacity:0;stroke:#000000;stroke-width:1.5;" x="338.688" xlink:href="#m7277fbdb53" y="30.334099"/>
    </g>
   </g>
   <g id="line2d_45">
    <path style="fill:none;stroke:#000000;stroke-linecap:square;stroke-width:1.5;"/>
    <g/>
   </g>
   <g id="line2d_46">
    <path clip-path="url(#pbf53d6fdd1)" d="M 218.223109 64.568694 
" style="fill:none;stroke:#000000;stroke-linecap:square;stroke-width:1.5;"/>
    <defs>
     <path d="M -12 12 
L 12 -12 
M -12 -12 
L 12 12 
" id="mac7baacfce" style="stroke:#000000;"/>
    </defs>
    <g clip-path="url(#pbf53d6fdd1)">
     <use style="stroke:#000000;" x="218.223109" xlink:href="#mac7baacfce" y="64.568694"/>
    </g>
   </g>
   <g id="line2d_47">
    <path d="M 338.688 30.334099 
L 369.60768 293.571802 
" style="fill:none;stroke:#000000;stroke-linecap:square;stroke-width:1.5;"/>
    <g>
     <use style="fill-opacity:0;stroke:#000000;stroke-width:1.5;" x="338.688" xlink:href="#m7277fbdb53" y="30.334099"/>
     <use style="fill-opacity:0;stroke:#000000;stroke-width:1.5;" x="369.60768" xlink:href="#m7277fbdb53" y="293.571802"/>
    </g>
   </g>
   <g id="line2d_48">
    <path d="M 338.688 30.334099 
L 369.60768 207.616634 
" style="fill:none;stroke:#0000ff;stroke-linecap:square;stroke-width:1.5;"/>
    <g>
     <use style="fill-opacity:0;stroke:#0000ff;stroke-linejoin:bevel;stroke-width:1.5;" x="338.688" xlink:href="#m35a264a6c8" y="30.334099"/>
     <use style="fill-opacity:0;stroke:#0000ff;stroke-linejoin:bevel;stroke-width:1.5;" x="369.60768" xlink:href="#m35a264a6c8" y="207.616634"/>
    </g>
   </g>
   <g id="line2d_49">
    <path d="M 338.688 30.334099 
L 369.60768 121.661465 
" style="fill:none;stroke:#00bfbf;stroke-linecap:square;stroke-width:1.5;"/>
    <g>
     <use style="fill-opacity:0;stroke:#00bfbf;stroke-width:1.5;" x="338.688" xlink:href="#m6503e4141a" y="30.334099"/>
     <use style="fill-opacity:0;stroke:#00bfbf;stroke-width:1.5;" x="369.60768" xlink:href="#m6503e4141a" y="121.661465"/>
    </g>
   </g>
   <g id="line2d_50">
    <path d="M 338.688 30.334099 
L 369.60768 35.706297 
" style="fill:none;stroke:#008000;stroke-linecap:square;stroke-width:1.5;"/>
    <g>
     <use style="fill-opacity:0;stroke:#008000;stroke-linejoin:miter;stroke-width:1.5;" x="338.688" xlink:href="#mc482eb647c" y="30.334099"/>
     <use style="fill-opacity:0;stroke:#008000;stroke-linejoin:miter;stroke-width:1.5;" x="369.60768" xlink:href="#mc482eb647c" y="35.706297"/>
    </g>
   </g>
   <g id="line2d_51">
    <path d="M 338.688 298.944 
L 338.688 30.334099 
" style="fill:none;stroke:#000000;stroke-linecap:square;stroke-width:1.5;"/>
   </g>
   <g id="patch_3">
    <path d="M 57.6 298.944 
L 57.6 27.648 
" style="fill:none;stroke:#000000;stroke-linecap:square;stroke-linejoin:miter;stroke-width:0.8;"/>
   </g>
   <g id="patch_4">
    <path d="M 338.688 298.944 
L 338.688 27.648 
" style="fill:none;stroke:#000000;stroke-linecap:square;stroke-linejoin:miter;stroke-width:0.8;"/>
   </g>
   <g id="patch_5">
    <path d="M 57.6 298.944 
L 338.688 298.944 
" style="fill:none;stroke:#000000;stroke-linecap:square;stroke-linejoin:miter;stroke-width:0.8;"/>
   </g>
   <g id="patch_6">
    <path d="M 57.6 27.648 
L 338.688 27.648 
" style="fill:none;stroke:#000000;stroke-linecap:square;stroke-linejoin:miter;stroke-width:0.8;"/>
   </g>
   <g id="text_13">
    <!-- 10-D -->
    <g transform="translate(375.22944 298.262739)scale(0.17 -0.17)">
     <defs>
      <path d="M 19.671875 64.796875 
L 19.671875 8.109375 
L 31.59375 8.109375 
Q 46.6875 8.109375 53.6875 14.9375 
Q 60.6875 21.78125 60.6875 36.53125 
Q 60.6875 51.171875 53.6875 57.984375 
Q 46.6875 64.796875 31.59375 64.796875 
z
M 9.8125 72.90625 
L 30.078125 72.90625 
Q 51.265625 72.90625 61.171875 64.09375 
Q 71.09375 55.28125 71.09375 36.53125 
Q 71.09375 17.671875 61.125 8.828125 
Q 51.171875 0 30.078125 0 
L 9.8125 0 
z
" id="DejaVuSans-68"/>
     </defs>
     <use xlink:href="#DejaVuSans-49"/>
     <use x="63.623047" xlink:href="#DejaVuSans-48"/>
     <use x="127.246094" xlink:href="#DejaVuSans-45"/>
     <use x="163.330078" xlink:href="#DejaVuSans-68"/>
    </g>
   </g>
   <g id="text_14">
    <!-- 5-D -->
    <g transform="translate(375.22944 212.307571)scale(0.17 -0.17)">
     <defs>
      <path d="M 10.796875 72.90625 
L 49.515625 72.90625 
L 49.515625 64.59375 
L 19.828125 64.59375 
L 19.828125 46.734375 
Q 21.96875 47.46875 24.109375 47.828125 
Q 26.265625 48.1875 28.421875 48.1875 
Q 40.625 48.1875 47.75 41.5 
Q 54.890625 34.8125 54.890625 23.390625 
Q 54.890625 11.625 47.5625 5.09375 
Q 40.234375 -1.421875 26.90625 -1.421875 
Q 22.3125 -1.421875 17.546875 -0.640625 
Q 12.796875 0.140625 7.71875 1.703125 
L 7.71875 11.625 
Q 12.109375 9.234375 16.796875 8.0625 
Q 21.484375 6.890625 26.703125 6.890625 
Q 35.15625 6.890625 40.078125 11.328125 
Q 45.015625 15.765625 45.015625 23.390625 
Q 45.015625 31 40.078125 35.4375 
Q 35.15625 39.890625 26.703125 39.890625 
Q 22.75 39.890625 18.8125 39.015625 
Q 14.890625 38.140625 10.796875 36.28125 
z
" id="DejaVuSans-53"/>
     </defs>
     <use xlink:href="#DejaVuSans-53"/>
     <use x="63.623047" xlink:href="#DejaVuSans-45"/>
     <use x="99.707031" xlink:href="#DejaVuSans-68"/>
    </g>
   </g>
   <g id="text_15">
    <!-- 2-D -->
    <g transform="translate(375.22944 126.352403)scale(0.17 -0.17)">
     <use xlink:href="#DejaVuSans-50"/>
     <use x="63.623047" xlink:href="#DejaVuSans-45"/>
     <use x="99.707031" xlink:href="#DejaVuSans-68"/>
    </g>
   </g>
   <g id="text_16">
    <!-- 3-D -->
    <g transform="translate(375.22944 40.397235)scale(0.17 -0.17)">
     <defs>
      <path d="M 40.578125 39.3125 
Q 47.65625 37.796875 51.625 33 
Q 55.609375 28.21875 55.609375 21.1875 
Q 55.609375 10.40625 48.1875 4.484375 
Q 40.765625 -1.421875 27.09375 -1.421875 
Q 22.515625 -1.421875 17.65625 -0.515625 
Q 12.796875 0.390625 7.625 2.203125 
L 7.625 11.71875 
Q 11.71875 9.328125 16.59375 8.109375 
Q 21.484375 6.890625 26.8125 6.890625 
Q 36.078125 6.890625 40.9375 10.546875 
Q 45.796875 14.203125 45.796875 21.1875 
Q 45.796875 27.640625 41.28125 31.265625 
Q 36.765625 34.90625 28.71875 34.90625 
L 20.21875 34.90625 
L 20.21875 43.015625 
L 29.109375 43.015625 
Q 36.375 43.015625 40.234375 45.921875 
Q 44.09375 48.828125 44.09375 54.296875 
Q 44.09375 59.90625 40.109375 62.90625 
Q 36.140625 65.921875 28.71875 65.921875 
Q 24.65625 65.921875 20.015625 65.03125 
Q 15.375 64.15625 9.8125 62.3125 
L 9.8125 71.09375 
Q 15.4375 72.65625 20.34375 73.4375 
Q 25.25 74.21875 29.59375 74.21875 
Q 40.828125 74.21875 47.359375 69.109375 
Q 53.90625 64.015625 53.90625 55.328125 
Q 53.90625 49.265625 50.4375 45.09375 
Q 46.96875 40.921875 40.578125 39.3125 
z
" id="DejaVuSans-51"/>
     </defs>
     <use xlink:href="#DejaVuSans-51"/>
     <use x="63.623047" xlink:href="#DejaVuSans-45"/>
     <use x="99.707031" xlink:href="#DejaVuSans-68"/>
    </g>
   </g>
   <g id="text_17">
    <!-- bbob f8 -->
    <g transform="translate(60.41088 38.111366)scale(0.102 -0.102)">
     <defs>
      <path d="M 48.6875 27.296875 
Q 48.6875 37.203125 44.609375 42.84375 
Q 40.53125 48.484375 33.40625 48.484375 
Q 26.265625 48.484375 22.1875 42.84375 
Q 18.109375 37.203125 18.109375 27.296875 
Q 18.109375 17.390625 22.1875 11.75 
Q 26.265625 6.109375 33.40625 6.109375 
Q 40.53125 6.109375 44.609375 11.75 
Q 48.6875 17.390625 48.6875 27.296875 
z
M 18.109375 46.390625 
Q 20.953125 51.265625 25.265625 53.625 
Q 29.59375 56 35.59375 56 
Q 45.5625 56 51.78125 48.09375 
Q 58.015625 40.1875 58.015625 27.296875 
Q 58.015625 14.40625 51.78125 6.484375 
Q 45.5625 -1.421875 35.59375 -1.421875 
Q 29.59375 -1.421875 25.265625 0.953125 
Q 20.953125 3.328125 18.109375 8.203125 
L 18.109375 0 
L 9.078125 0 
L 9.078125 75.984375 
L 18.109375 75.984375 
z
" id="DejaVuSans-98"/>
     </defs>
     <use xlink:href="#DejaVuSans-98"/>
     <use x="63.476562" xlink:href="#DejaVuSans-98"/>
     <use x="126.953125" xlink:href="#DejaVuSans-111"/>
     <use x="188.134766" xlink:href="#DejaVuSans-98"/>
     <use x="251.611328" xlink:href="#DejaVuSans-32"/>
     <use x="283.398438" xlink:href="#DejaVuSans-102"/>
     <use x="318.603516" xlink:href="#DejaVuSans-56"/>
    </g>
    <!-- 51 targets: 100..1e-08 -->
    <g transform="translate(60.41088 49.533135)scale(0.102 -0.102)">
     <defs>
      <path d="M 11.71875 12.40625 
L 22.015625 12.40625 
L 22.015625 0 
L 11.71875 0 
z
M 11.71875 51.703125 
L 22.015625 51.703125 
L 22.015625 39.3125 
L 11.71875 39.3125 
z
" id="DejaVuSans-58"/>
     </defs>
     <use xlink:href="#DejaVuSans-53"/>
     <use x="63.623047" xlink:href="#DejaVuSans-49"/>
     <use x="127.246094" xlink:href="#DejaVuSans-32"/>
     <use x="159.033203" xlink:href="#DejaVuSans-116"/>
     <use x="198.242188" xlink:href="#DejaVuSans-97"/>
     <use x="259.521484" xlink:href="#DejaVuSans-114"/>
     <use x="298.884766" xlink:href="#DejaVuSans-103"/>
     <use x="362.361328" xlink:href="#DejaVuSans-101"/>
     <use x="423.884766" xlink:href="#DejaVuSans-116"/>
     <use x="463.09375" xlink:href="#DejaVuSans-115"/>
     <use x="515.193359" xlink:href="#DejaVuSans-58"/>
     <use x="548.884766" xlink:href="#DejaVuSans-32"/>
     <use x="580.671875" xlink:href="#DejaVuSans-49"/>
     <use x="644.294922" xlink:href="#DejaVuSans-48"/>
     <use x="707.917969" xlink:href="#DejaVuSans-48"/>
     <use x="771.541016" xlink:href="#DejaVuSans-46"/>
     <use x="803.328125" xlink:href="#DejaVuSans-46"/>
     <use x="835.115234" xlink:href="#DejaVuSans-49"/>
     <use x="898.738281" xlink:href="#DejaVuSans-101"/>
     <use x="960.261719" xlink:href="#DejaVuSans-45"/>
     <use x="996.345703" xlink:href="#DejaVuSans-48"/>
     <use x="1059.96875" xlink:href="#DejaVuSans-56"/>
    </g>
    <!-- 15 instances -->
    <g transform="translate(60.41088 60.954904)scale(0.102 -0.102)">
     <use xlink:href="#DejaVuSans-49"/>
     <use x="63.623047" xlink:href="#DejaVuSans-53"/>
     <use x="127.246094" xlink:href="#DejaVuSans-32"/>
     <use x="159.033203" xlink:href="#DejaVuSans-105"/>
     <use x="186.816406" xlink:href="#DejaVuSans-110"/>
     <use x="250.195312" xlink:href="#DejaVuSans-115"/>
     <use x="302.294922" xlink:href="#DejaVuSans-116"/>
     <use x="341.503906" xlink:href="#DejaVuSans-97"/>
     <use x="402.783203" xlink:href="#DejaVuSans-110"/>
     <use x="466.162109" xlink:href="#DejaVuSans-99"/>
     <use x="521.142578" xlink:href="#DejaVuSans-101"/>
     <use x="582.666016" xlink:href="#DejaVuSans-115"/>
    </g>
   </g>
   <g id="text_18">
    <!-- v2.4 -->
    <g style="fill:#808080;" transform="translate(187.233062 294.151352)scale(0.1 -0.1)">
     <use xlink:href="#DejaVuSans-118"/>
     <use x="59.179688" xlink:href="#DejaVuSans-50"/>
     <use x="122.802734" xlink:href="#DejaVuSans-46"/>
     <use x="154.589844" xlink:href="#DejaVuSans-52"/>
    </g>
   </g>
   <g id="text_19">
    <!-- 8 Rosenbrock original -->
    <g transform="translate(90.08775 21.648)scale(0.2 -0.2)">
     <defs>
      <path d="M 44.390625 34.1875 
Q 47.5625 33.109375 50.5625 29.59375 
Q 53.5625 26.078125 56.59375 19.921875 
L 66.609375 0 
L 56 0 
L 46.6875 18.703125 
Q 43.0625 26.03125 39.671875 28.421875 
Q 36.28125 30.8125 30.421875 30.8125 
L 19.671875 30.8125 
L 19.671875 0 
L 9.8125 0 
L 9.8125 72.90625 
L 32.078125 72.90625 
Q 44.578125 72.90625 50.734375 67.671875 
Q 56.890625 62.453125 56.890625 51.90625 
Q 56.890625 45.015625 53.6875 40.46875 
Q 50.484375 35.9375 44.390625 34.1875 
z
M 19.671875 64.796875 
L 19.671875 38.921875 
L 32.078125 38.921875 
Q 39.203125 38.921875 42.84375 42.21875 
Q 46.484375 45.515625 46.484375 51.90625 
Q 46.484375 58.296875 42.84375 61.546875 
Q 39.203125 64.796875 32.078125 64.796875 
z
" id="DejaVuSans-82"/>
      <path d="M 9.078125 75.984375 
L 18.109375 75.984375 
L 18.109375 31.109375 
L 44.921875 54.6875 
L 56.390625 54.6875 
L 27.390625 29.109375 
L 57.625 0 
L 45.90625 0 
L 18.109375 26.703125 
L 18.109375 0 
L 9.078125 0 
z
" id="DejaVuSans-107"/>
     </defs>
     <use xlink:href="#DejaVuSans-56"/>
     <use x="63.623047" xlink:href="#DejaVuSans-32"/>
     <use x="95.410156" xlink:href="#DejaVuSans-82"/>
     <use x="160.392578" xlink:href="#DejaVuSans-111"/>
     <use x="221.574219" xlink:href="#DejaVuSans-115"/>
     <use x="273.673828" xlink:href="#DejaVuSans-101"/>
     <use x="335.197266" xlink:href="#DejaVuSans-110"/>
     <use x="398.576172" xlink:href="#DejaVuSans-98"/>
     <use x="462.052734" xlink:href="#DejaVuSans-114"/>
     <use x="500.916016" xlink:href="#DejaVuSans-111"/>
     <use x="562.097656" xlink:href="#DejaVuSans-99"/>
     <use x="617.078125" xlink:href="#DejaVuSans-107"/>
     <use x="674.988281" xlink:href="#DejaVuSans-32"/>
     <use x="706.775391" xlink:href="#DejaVuSans-111"/>
     <use x="767.957031" xlink:href="#DejaVuSans-114"/>
     <use x="809.070312" xlink:href="#DejaVuSans-105"/>
     <use x="836.853516" xlink:href="#DejaVuSans-103"/>
     <use x="900.330078" xlink:href="#DejaVuSans-105"/>
     <use x="928.113281" xlink:href="#DejaVuSans-110"/>
     <use x="991.492188" xlink:href="#DejaVuSans-97"/>
     <use x="1052.771484" xlink:href="#DejaVuSans-108"/>
    </g>
   </g>
  </g>
 </g>
 <defs>
  <clipPath id="pbf53d6fdd1">
   <rect height="271.296" width="281.088" x="57.6" y="27.648"/>
  </clipPath>
 </defs>
</svg>
