<?xml version="1.0" encoding="utf-8" standalone="no"?>
<!DOCTYPE svg PUBLIC "-//W3C//DTD SVG 1.1//EN"
  "http://www.w3.org/Graphics/SVG/1.1/DTD/svg11.dtd">
<!-- Created with matplotlib (https://matplotlib.org/) -->
<svg height="345.6pt" version="1.1" viewBox="0 0 460.8 345.6" width="460.8pt" xmlns="http://www.w3.org/2000/svg" xmlns:xlink="http://www.w3.org/1999/xlink">
 <metadata>
  <rdf:RDF xmlns:cc="http://creativecommons.org/ns#" xmlns:dc="http://purl.org/dc/elements/1.1/" xmlns:rdf="http://www.w3.org/1999/02/22-rdf-syntax-ns#">
   <cc:Work>
    <dc:type rdf:resource="http://purl.org/dc/dcmitype/StillImage"/>
    <dc:date>2021-06-17T01:38:47.930272</dc:date>
    <dc:format>image/svg+xml</dc:format>
    <dc:creator>
     <cc:Agent>
      <dc:title>Matplotlib v3.3.4, https://matplotlib.org/</dc:title>
     </cc:Agent>
    </dc:creator>
   </cc:Work>
  </rdf:RDF>
 </metadata>
 <defs>
  <style type="text/css">*{stroke-linecap:butt;stroke-linejoin:round;}</style>
 </defs>
 <g id="figure_1">
  <g id="patch_1">
   <path d="M 0 345.6 
L 460.8 345.6 
L 460.8 0 
L 0 0 
z
" style="fill:#ffffff;"/>
  </g>
  <g id="axes_1">
   <g id="patch_2">
    <path d="M 57.6 298.944 
L 338.688 298.944 
L 338.688 27.648 
L 57.6 27.648 
z
" style="fill:#ffffff;"/>
   </g>
   <g id="matplotlib.axis_1">
    <g id="xtick_1">
     <g id="line2d_1">
      <path clip-path="url(#p4b3b2d597e)" d="M 57.6 298.944 
L 57.6 27.648 
" style="fill:none;stroke:#b0b0b0;stroke-linecap:square;stroke-width:0.8;"/>
     </g>
     <g id="line2d_2">
      <defs>
       <path d="M 0 0 
L 0 3.5 
" id="m89ea717c1b" style="stroke:#000000;stroke-width:0.8;"/>
      </defs>
      <g>
       <use style="stroke:#000000;stroke-width:0.8;" x="57.6" xlink:href="#m89ea717c1b" y="298.944"/>
      </g>
     </g>
     <g id="text_1">
      <!-- 0 -->
      <g transform="translate(51.2375 321.140875)scale(0.2 -0.2)">
       <defs>
        <path d="M 31.78125 66.40625 
Q 24.171875 66.40625 20.328125 58.90625 
Q 16.5 51.421875 16.5 36.375 
Q 16.5 21.390625 20.328125 13.890625 
Q 24.171875 6.390625 31.78125 6.390625 
Q 39.453125 6.390625 43.28125 13.890625 
Q 47.125 21.390625 47.125 36.375 
Q 47.125 51.421875 43.28125 58.90625 
Q 39.453125 66.40625 31.78125 66.40625 
z
M 31.78125 74.21875 
Q 44.046875 74.21875 50.515625 64.515625 
Q 56.984375 54.828125 56.984375 36.375 
Q 56.984375 17.96875 50.515625 8.265625 
Q 44.046875 -1.421875 31.78125 -1.421875 
Q 19.53125 -1.421875 13.0625 8.265625 
Q 6.59375 17.96875 6.59375 36.375 
Q 6.59375 54.828125 13.0625 64.515625 
Q 19.53125 74.21875 31.78125 74.21875 
z
" id="DejaVuSans-48"/>
       </defs>
       <use xlink:href="#DejaVuSans-48"/>
      </g>
     </g>
    </g>
    <g id="xtick_2">
     <g id="line2d_3">
      <path clip-path="url(#p4b3b2d597e)" d="M 137.910857 298.944 
L 137.910857 27.648 
" style="fill:none;stroke:#b0b0b0;stroke-linecap:square;stroke-width:0.8;"/>
     </g>
     <g id="line2d_4">
      <g>
       <use style="stroke:#000000;stroke-width:0.8;" x="137.910857" xlink:href="#m89ea717c1b" y="298.944"/>
      </g>
     </g>
     <g id="text_2">
      <!-- 2 -->
      <g transform="translate(131.548357 321.140875)scale(0.2 -0.2)">
       <defs>
        <path d="M 19.1875 8.296875 
L 53.609375 8.296875 
L 53.609375 0 
L 7.328125 0 
L 7.328125 8.296875 
Q 12.9375 14.109375 22.625 23.890625 
Q 32.328125 33.6875 34.8125 36.53125 
Q 39.546875 41.84375 41.421875 45.53125 
Q 43.3125 49.21875 43.3125 52.78125 
Q 43.3125 58.59375 39.234375 62.25 
Q 35.15625 65.921875 28.609375 65.921875 
Q 23.96875 65.921875 18.8125 64.3125 
Q 13.671875 62.703125 7.8125 59.421875 
L 7.8125 69.390625 
Q 13.765625 71.78125 18.9375 73 
Q 24.125 74.21875 28.421875 74.21875 
Q 39.75 74.21875 46.484375 68.546875 
Q 53.21875 62.890625 53.21875 53.421875 
Q 53.21875 48.921875 51.53125 44.890625 
Q 49.859375 40.875 45.40625 35.40625 
Q 44.1875 33.984375 37.640625 27.21875 
Q 31.109375 20.453125 19.1875 8.296875 
z
" id="DejaVuSans-50"/>
       </defs>
       <use xlink:href="#DejaVuSans-50"/>
      </g>
     </g>
    </g>
    <g id="xtick_3">
     <g id="line2d_5">
      <path clip-path="url(#p4b3b2d597e)" d="M 218.221714 298.944 
L 218.221714 27.648 
" style="fill:none;stroke:#b0b0b0;stroke-linecap:square;stroke-width:0.8;"/>
     </g>
     <g id="line2d_6">
      <g>
       <use style="stroke:#000000;stroke-width:0.8;" x="218.221714" xlink:href="#m89ea717c1b" y="298.944"/>
      </g>
     </g>
     <g id="text_3">
      <!-- 4 -->
      <g transform="translate(211.859214 321.140875)scale(0.2 -0.2)">
       <defs>
        <path d="M 37.796875 64.3125 
L 12.890625 25.390625 
L 37.796875 25.390625 
z
M 35.203125 72.90625 
L 47.609375 72.90625 
L 47.609375 25.390625 
L 58.015625 25.390625 
L 58.015625 17.1875 
L 47.609375 17.1875 
L 47.609375 0 
L 37.796875 0 
L 37.796875 17.1875 
L 4.890625 17.1875 
L 4.890625 26.703125 
z
" id="DejaVuSans-52"/>
       </defs>
       <use xlink:href="#DejaVuSans-52"/>
      </g>
     </g>
    </g>
    <g id="xtick_4">
     <g id="line2d_7">
      <path clip-path="url(#p4b3b2d597e)" d="M 298.532571 298.944 
L 298.532571 27.648 
" style="fill:none;stroke:#b0b0b0;stroke-linecap:square;stroke-width:0.8;"/>
     </g>
     <g id="line2d_8">
      <g>
       <use style="stroke:#000000;stroke-width:0.8;" x="298.532571" xlink:href="#m89ea717c1b" y="298.944"/>
      </g>
     </g>
     <g id="text_4">
      <!-- 6 -->
      <g transform="translate(292.170071 321.140875)scale(0.2 -0.2)">
       <defs>
        <path d="M 33.015625 40.375 
Q 26.375 40.375 22.484375 35.828125 
Q 18.609375 31.296875 18.609375 23.390625 
Q 18.609375 15.53125 22.484375 10.953125 
Q 26.375 6.390625 33.015625 6.390625 
Q 39.65625 6.390625 43.53125 10.953125 
Q 47.40625 15.53125 47.40625 23.390625 
Q 47.40625 31.296875 43.53125 35.828125 
Q 39.65625 40.375 33.015625 40.375 
z
M 52.59375 71.296875 
L 52.59375 62.3125 
Q 48.875 64.0625 45.09375 64.984375 
Q 41.3125 65.921875 37.59375 65.921875 
Q 27.828125 65.921875 22.671875 59.328125 
Q 17.53125 52.734375 16.796875 39.40625 
Q 19.671875 43.65625 24.015625 45.921875 
Q 28.375 48.1875 33.59375 48.1875 
Q 44.578125 48.1875 50.953125 41.515625 
Q 57.328125 34.859375 57.328125 23.390625 
Q 57.328125 12.15625 50.6875 5.359375 
Q 44.046875 -1.421875 33.015625 -1.421875 
Q 20.359375 -1.421875 13.671875 8.265625 
Q 6.984375 17.96875 6.984375 36.375 
Q 6.984375 53.65625 15.1875 63.9375 
Q 23.390625 74.21875 37.203125 74.21875 
Q 40.921875 74.21875 44.703125 73.484375 
Q 48.484375 72.75 52.59375 71.296875 
z
" id="DejaVuSans-54"/>
       </defs>
       <use xlink:href="#DejaVuSans-54"/>
      </g>
     </g>
    </g>
    <g id="xtick_5">
     <g id="line2d_9">
      <path clip-path="url(#p4b3b2d597e)" d="M 97.755429 298.944 
L 97.755429 27.648 
" style="fill:none;stroke:#b0b0b0;stroke-linecap:square;stroke-width:0.8;"/>
     </g>
     <g id="line2d_10">
      <defs>
       <path d="M 0 0 
L 0 2 
" id="m05a95db911" style="stroke:#000000;stroke-width:0.6;"/>
      </defs>
      <g>
       <use style="stroke:#000000;stroke-width:0.6;" x="97.755429" xlink:href="#m05a95db911" y="298.944"/>
      </g>
     </g>
    </g>
    <g id="xtick_6">
     <g id="line2d_11">
      <path clip-path="url(#p4b3b2d597e)" d="M 178.066286 298.944 
L 178.066286 27.648 
" style="fill:none;stroke:#b0b0b0;stroke-linecap:square;stroke-width:0.8;"/>
     </g>
     <g id="line2d_12">
      <g>
       <use style="stroke:#000000;stroke-width:0.6;" x="178.066286" xlink:href="#m05a95db911" y="298.944"/>
      </g>
     </g>
    </g>
    <g id="xtick_7">
     <g id="line2d_13">
      <path clip-path="url(#p4b3b2d597e)" d="M 258.377143 298.944 
L 258.377143 27.648 
" style="fill:none;stroke:#b0b0b0;stroke-linecap:square;stroke-width:0.8;"/>
     </g>
     <g id="line2d_14">
      <g>
       <use style="stroke:#000000;stroke-width:0.6;" x="258.377143" xlink:href="#m05a95db911" y="298.944"/>
      </g>
     </g>
    </g>
    <g id="xtick_8">
     <g id="line2d_15">
      <path clip-path="url(#p4b3b2d597e)" d="M 338.688 298.944 
L 338.688 27.648 
" style="fill:none;stroke:#b0b0b0;stroke-linecap:square;stroke-width:0.8;"/>
     </g>
     <g id="line2d_16">
      <g>
       <use style="stroke:#000000;stroke-width:0.6;" x="338.688" xlink:href="#m05a95db911" y="298.944"/>
      </g>
     </g>
    </g>
    <g id="text_5">
     <!-- log10(# f-evals / dimension) -->
     <g transform="translate(77.764078 342.217594)scale(0.17 -0.17)">
      <defs>
       <path d="M 9.421875 75.984375 
L 18.40625 75.984375 
L 18.40625 0 
L 9.421875 0 
z
" id="DejaVuSans-108"/>
       <path d="M 30.609375 48.390625 
Q 23.390625 48.390625 19.1875 42.75 
Q 14.984375 37.109375 14.984375 27.296875 
Q 14.984375 17.484375 19.15625 11.84375 
Q 23.34375 6.203125 30.609375 6.203125 
Q 37.796875 6.203125 41.984375 11.859375 
Q 46.1875 17.53125 46.1875 27.296875 
Q 46.1875 37.015625 41.984375 42.703125 
Q 37.796875 48.390625 30.609375 48.390625 
z
M 30.609375 56 
Q 42.328125 56 49.015625 48.375 
Q 55.71875 40.765625 55.71875 27.296875 
Q 55.71875 13.875 49.015625 6.21875 
Q 42.328125 -1.421875 30.609375 -1.421875 
Q 18.84375 -1.421875 12.171875 6.21875 
Q 5.515625 13.875 5.515625 27.296875 
Q 5.515625 40.765625 12.171875 48.375 
Q 18.84375 56 30.609375 56 
z
" id="DejaVuSans-111"/>
       <path d="M 45.40625 27.984375 
Q 45.40625 37.75 41.375 43.109375 
Q 37.359375 48.484375 30.078125 48.484375 
Q 22.859375 48.484375 18.828125 43.109375 
Q 14.796875 37.75 14.796875 27.984375 
Q 14.796875 18.265625 18.828125 12.890625 
Q 22.859375 7.515625 30.078125 7.515625 
Q 37.359375 7.515625 41.375 12.890625 
Q 45.40625 18.265625 45.40625 27.984375 
z
M 54.390625 6.78125 
Q 54.390625 -7.171875 48.1875 -13.984375 
Q 42 -20.796875 29.203125 -20.796875 
Q 24.46875 -20.796875 20.265625 -20.09375 
Q 16.0625 -19.390625 12.109375 -17.921875 
L 12.109375 -9.1875 
Q 16.0625 -11.328125 19.921875 -12.34375 
Q 23.78125 -13.375 27.78125 -13.375 
Q 36.625 -13.375 41.015625 -8.765625 
Q 45.40625 -4.15625 45.40625 5.171875 
L 45.40625 9.625 
Q 42.625 4.78125 38.28125 2.390625 
Q 33.9375 0 27.875 0 
Q 17.828125 0 11.671875 7.65625 
Q 5.515625 15.328125 5.515625 27.984375 
Q 5.515625 40.671875 11.671875 48.328125 
Q 17.828125 56 27.875 56 
Q 33.9375 56 38.28125 53.609375 
Q 42.625 51.21875 45.40625 46.390625 
L 45.40625 54.6875 
L 54.390625 54.6875 
z
" id="DejaVuSans-103"/>
       <path d="M 12.40625 8.296875 
L 28.515625 8.296875 
L 28.515625 63.921875 
L 10.984375 60.40625 
L 10.984375 69.390625 
L 28.421875 72.90625 
L 38.28125 72.90625 
L 38.28125 8.296875 
L 54.390625 8.296875 
L 54.390625 0 
L 12.40625 0 
z
" id="DejaVuSans-49"/>
       <path d="M 31 75.875 
Q 24.46875 64.65625 21.28125 53.65625 
Q 18.109375 42.671875 18.109375 31.390625 
Q 18.109375 20.125 21.3125 9.0625 
Q 24.515625 -2 31 -13.1875 
L 23.1875 -13.1875 
Q 15.875 -1.703125 12.234375 9.375 
Q 8.59375 20.453125 8.59375 31.390625 
Q 8.59375 42.28125 12.203125 53.3125 
Q 15.828125 64.359375 23.1875 75.875 
z
" id="DejaVuSans-40"/>
       <path d="M 51.125 44 
L 36.921875 44 
L 32.8125 27.6875 
L 47.125 27.6875 
z
M 43.796875 71.78125 
L 38.71875 51.515625 
L 52.984375 51.515625 
L 58.109375 71.78125 
L 65.921875 71.78125 
L 60.890625 51.515625 
L 76.125 51.515625 
L 76.125 44 
L 58.984375 44 
L 54.984375 27.6875 
L 70.515625 27.6875 
L 70.515625 20.21875 
L 53.078125 20.21875 
L 48 0 
L 40.1875 0 
L 45.21875 20.21875 
L 30.90625 20.21875 
L 25.875 0 
L 18.015625 0 
L 23.09375 20.21875 
L 7.71875 20.21875 
L 7.71875 27.6875 
L 24.90625 27.6875 
L 29 44 
L 13.28125 44 
L 13.28125 51.515625 
L 30.90625 51.515625 
L 35.890625 71.78125 
z
" id="DejaVuSans-35"/>
       <path id="DejaVuSans-32"/>
       <path d="M 37.109375 75.984375 
L 37.109375 68.5 
L 28.515625 68.5 
Q 23.6875 68.5 21.796875 66.546875 
Q 19.921875 64.59375 19.921875 59.515625 
L 19.921875 54.6875 
L 34.71875 54.6875 
L 34.71875 47.703125 
L 19.921875 47.703125 
L 19.921875 0 
L 10.890625 0 
L 10.890625 47.703125 
L 2.296875 47.703125 
L 2.296875 54.6875 
L 10.890625 54.6875 
L 10.890625 58.5 
Q 10.890625 67.625 15.140625 71.796875 
Q 19.390625 75.984375 28.609375 75.984375 
z
" id="DejaVuSans-102"/>
       <path d="M 4.890625 31.390625 
L 31.203125 31.390625 
L 31.203125 23.390625 
L 4.890625 23.390625 
z
" id="DejaVuSans-45"/>
       <path d="M 56.203125 29.59375 
L 56.203125 25.203125 
L 14.890625 25.203125 
Q 15.484375 15.921875 20.484375 11.0625 
Q 25.484375 6.203125 34.421875 6.203125 
Q 39.59375 6.203125 44.453125 7.46875 
Q 49.3125 8.734375 54.109375 11.28125 
L 54.109375 2.78125 
Q 49.265625 0.734375 44.1875 -0.34375 
Q 39.109375 -1.421875 33.890625 -1.421875 
Q 20.796875 -1.421875 13.15625 6.1875 
Q 5.515625 13.8125 5.515625 26.8125 
Q 5.515625 40.234375 12.765625 48.109375 
Q 20.015625 56 32.328125 56 
Q 43.359375 56 49.78125 48.890625 
Q 56.203125 41.796875 56.203125 29.59375 
z
M 47.21875 32.234375 
Q 47.125 39.59375 43.09375 43.984375 
Q 39.0625 48.390625 32.421875 48.390625 
Q 24.90625 48.390625 20.390625 44.140625 
Q 15.875 39.890625 15.1875 32.171875 
z
" id="DejaVuSans-101"/>
       <path d="M 2.984375 54.6875 
L 12.5 54.6875 
L 29.59375 8.796875 
L 46.6875 54.6875 
L 56.203125 54.6875 
L 35.6875 0 
L 23.484375 0 
z
" id="DejaVuSans-118"/>
       <path d="M 34.28125 27.484375 
Q 23.390625 27.484375 19.1875 25 
Q 14.984375 22.515625 14.984375 16.5 
Q 14.984375 11.71875 18.140625 8.90625 
Q 21.296875 6.109375 26.703125 6.109375 
Q 34.1875 6.109375 38.703125 11.40625 
Q 43.21875 16.703125 43.21875 25.484375 
L 43.21875 27.484375 
z
M 52.203125 31.203125 
L 52.203125 0 
L 43.21875 0 
L 43.21875 8.296875 
Q 40.140625 3.328125 35.546875 0.953125 
Q 30.953125 -1.421875 24.3125 -1.421875 
Q 15.921875 -1.421875 10.953125 3.296875 
Q 6 8.015625 6 15.921875 
Q 6 25.140625 12.171875 29.828125 
Q 18.359375 34.515625 30.609375 34.515625 
L 43.21875 34.515625 
L 43.21875 35.40625 
Q 43.21875 41.609375 39.140625 45 
Q 35.0625 48.390625 27.6875 48.390625 
Q 23 48.390625 18.546875 47.265625 
Q 14.109375 46.140625 10.015625 43.890625 
L 10.015625 52.203125 
Q 14.9375 54.109375 19.578125 55.046875 
Q 24.21875 56 28.609375 56 
Q 40.484375 56 46.34375 49.84375 
Q 52.203125 43.703125 52.203125 31.203125 
z
" id="DejaVuSans-97"/>
       <path d="M 44.28125 53.078125 
L 44.28125 44.578125 
Q 40.484375 46.53125 36.375 47.5 
Q 32.28125 48.484375 27.875 48.484375 
Q 21.1875 48.484375 17.84375 46.4375 
Q 14.5 44.390625 14.5 40.28125 
Q 14.5 37.15625 16.890625 35.375 
Q 19.28125 33.59375 26.515625 31.984375 
L 29.59375 31.296875 
Q 39.15625 29.25 43.1875 25.515625 
Q 47.21875 21.78125 47.21875 15.09375 
Q 47.21875 7.46875 41.1875 3.015625 
Q 35.15625 -1.421875 24.609375 -1.421875 
Q 20.21875 -1.421875 15.453125 -0.5625 
Q 10.6875 0.296875 5.421875 2 
L 5.421875 11.28125 
Q 10.40625 8.6875 15.234375 7.390625 
Q 20.0625 6.109375 24.8125 6.109375 
Q 31.15625 6.109375 34.5625 8.28125 
Q 37.984375 10.453125 37.984375 14.40625 
Q 37.984375 18.0625 35.515625 20.015625 
Q 33.0625 21.96875 24.703125 23.78125 
L 21.578125 24.515625 
Q 13.234375 26.265625 9.515625 29.90625 
Q 5.8125 33.546875 5.8125 39.890625 
Q 5.8125 47.609375 11.28125 51.796875 
Q 16.75 56 26.8125 56 
Q 31.78125 56 36.171875 55.265625 
Q 40.578125 54.546875 44.28125 53.078125 
z
" id="DejaVuSans-115"/>
       <path d="M 25.390625 72.90625 
L 33.6875 72.90625 
L 8.296875 -9.28125 
L 0 -9.28125 
z
" id="DejaVuSans-47"/>
       <path d="M 45.40625 46.390625 
L 45.40625 75.984375 
L 54.390625 75.984375 
L 54.390625 0 
L 45.40625 0 
L 45.40625 8.203125 
Q 42.578125 3.328125 38.25 0.953125 
Q 33.9375 -1.421875 27.875 -1.421875 
Q 17.96875 -1.421875 11.734375 6.484375 
Q 5.515625 14.40625 5.515625 27.296875 
Q 5.515625 40.1875 11.734375 48.09375 
Q 17.96875 56 27.875 56 
Q 33.9375 56 38.25 53.625 
Q 42.578125 51.265625 45.40625 46.390625 
z
M 14.796875 27.296875 
Q 14.796875 17.390625 18.875 11.75 
Q 22.953125 6.109375 30.078125 6.109375 
Q 37.203125 6.109375 41.296875 11.75 
Q 45.40625 17.390625 45.40625 27.296875 
Q 45.40625 37.203125 41.296875 42.84375 
Q 37.203125 48.484375 30.078125 48.484375 
Q 22.953125 48.484375 18.875 42.84375 
Q 14.796875 37.203125 14.796875 27.296875 
z
" id="DejaVuSans-100"/>
       <path d="M 9.421875 54.6875 
L 18.40625 54.6875 
L 18.40625 0 
L 9.421875 0 
z
M 9.421875 75.984375 
L 18.40625 75.984375 
L 18.40625 64.59375 
L 9.421875 64.59375 
z
" id="DejaVuSans-105"/>
       <path d="M 52 44.1875 
Q 55.375 50.25 60.0625 53.125 
Q 64.75 56 71.09375 56 
Q 79.640625 56 84.28125 50.015625 
Q 88.921875 44.046875 88.921875 33.015625 
L 88.921875 0 
L 79.890625 0 
L 79.890625 32.71875 
Q 79.890625 40.578125 77.09375 44.375 
Q 74.3125 48.1875 68.609375 48.1875 
Q 61.625 48.1875 57.5625 43.546875 
Q 53.515625 38.921875 53.515625 30.90625 
L 53.515625 0 
L 44.484375 0 
L 44.484375 32.71875 
Q 44.484375 40.625 41.703125 44.40625 
Q 38.921875 48.1875 33.109375 48.1875 
Q 26.21875 48.1875 22.15625 43.53125 
Q 18.109375 38.875 18.109375 30.90625 
L 18.109375 0 
L 9.078125 0 
L 9.078125 54.6875 
L 18.109375 54.6875 
L 18.109375 46.1875 
Q 21.1875 51.21875 25.484375 53.609375 
Q 29.78125 56 35.6875 56 
Q 41.65625 56 45.828125 52.96875 
Q 50 49.953125 52 44.1875 
z
" id="DejaVuSans-109"/>
       <path d="M 54.890625 33.015625 
L 54.890625 0 
L 45.90625 0 
L 45.90625 32.71875 
Q 45.90625 40.484375 42.875 44.328125 
Q 39.84375 48.1875 33.796875 48.1875 
Q 26.515625 48.1875 22.3125 43.546875 
Q 18.109375 38.921875 18.109375 30.90625 
L 18.109375 0 
L 9.078125 0 
L 9.078125 54.6875 
L 18.109375 54.6875 
L 18.109375 46.1875 
Q 21.34375 51.125 25.703125 53.5625 
Q 30.078125 56 35.796875 56 
Q 45.21875 56 50.046875 50.171875 
Q 54.890625 44.34375 54.890625 33.015625 
z
" id="DejaVuSans-110"/>
       <path d="M 8.015625 75.875 
L 15.828125 75.875 
Q 23.140625 64.359375 26.78125 53.3125 
Q 30.421875 42.28125 30.421875 31.390625 
Q 30.421875 20.453125 26.78125 9.375 
Q 23.140625 -1.703125 15.828125 -13.1875 
L 8.015625 -13.1875 
Q 14.5 -2 17.703125 9.0625 
Q 20.90625 20.125 20.90625 31.390625 
Q 20.90625 42.671875 17.703125 53.65625 
Q 14.5 64.65625 8.015625 75.875 
z
" id="DejaVuSans-41"/>
      </defs>
      <use xlink:href="#DejaVuSans-108"/>
      <use x="27.783203" xlink:href="#DejaVuSans-111"/>
      <use x="88.964844" xlink:href="#DejaVuSans-103"/>
      <use x="152.441406" xlink:href="#DejaVuSans-49"/>
      <use x="216.064453" xlink:href="#DejaVuSans-48"/>
      <use x="279.6875" xlink:href="#DejaVuSans-40"/>
      <use x="318.701172" xlink:href="#DejaVuSans-35"/>
      <use x="402.490234" xlink:href="#DejaVuSans-32"/>
      <use x="434.277344" xlink:href="#DejaVuSans-102"/>
      <use x="463.982422" xlink:href="#DejaVuSans-45"/>
      <use x="500.066406" xlink:href="#DejaVuSans-101"/>
      <use x="561.589844" xlink:href="#DejaVuSans-118"/>
      <use x="620.769531" xlink:href="#DejaVuSans-97"/>
      <use x="682.048828" xlink:href="#DejaVuSans-108"/>
      <use x="709.832031" xlink:href="#DejaVuSans-115"/>
      <use x="761.931641" xlink:href="#DejaVuSans-32"/>
      <use x="793.71875" xlink:href="#DejaVuSans-47"/>
      <use x="827.410156" xlink:href="#DejaVuSans-32"/>
      <use x="859.197266" xlink:href="#DejaVuSans-100"/>
      <use x="922.673828" xlink:href="#DejaVuSans-105"/>
      <use x="950.457031" xlink:href="#DejaVuSans-109"/>
      <use x="1047.869141" xlink:href="#DejaVuSans-101"/>
      <use x="1109.392578" xlink:href="#DejaVuSans-110"/>
      <use x="1172.771484" xlink:href="#DejaVuSans-115"/>
      <use x="1224.871094" xlink:href="#DejaVuSans-105"/>
      <use x="1252.654297" xlink:href="#DejaVuSans-111"/>
      <use x="1313.835938" xlink:href="#DejaVuSans-110"/>
      <use x="1377.214844" xlink:href="#DejaVuSans-41"/>
     </g>
    </g>
   </g>
   <g id="matplotlib.axis_2">
    <g id="ytick_1">
     <g id="line2d_17">
      <path clip-path="url(#p4b3b2d597e)" d="M 57.6 298.944 
L 338.688 298.944 
" style="fill:none;stroke:#b0b0b0;stroke-linecap:square;stroke-width:0.8;"/>
     </g>
     <g id="line2d_18">
      <defs>
       <path d="M 0 0 
L -3.5 0 
" id="maa829b31b4" style="stroke:#000000;stroke-width:0.8;"/>
      </defs>
      <g>
       <use style="stroke:#000000;stroke-width:0.8;" x="57.6" xlink:href="#maa829b31b4" y="298.944"/>
      </g>
     </g>
     <g id="text_6">
      <!-- 0.0 -->
      <g transform="translate(25.155 305.02275)scale(0.16 -0.16)">
       <defs>
        <path d="M 10.6875 12.40625 
L 21 12.40625 
L 21 0 
L 10.6875 0 
z
" id="DejaVuSans-46"/>
       </defs>
       <use xlink:href="#DejaVuSans-48"/>
       <use x="63.623047" xlink:href="#DejaVuSans-46"/>
       <use x="95.410156" xlink:href="#DejaVuSans-48"/>
      </g>
     </g>
    </g>
    <g id="ytick_2">
     <g id="line2d_19">
      <path clip-path="url(#p4b3b2d597e)" d="M 57.6 245.22202 
L 338.688 245.22202 
" style="fill:none;stroke:#b0b0b0;stroke-linecap:square;stroke-width:0.8;"/>
     </g>
     <g id="line2d_20">
      <g>
       <use style="stroke:#000000;stroke-width:0.8;" x="57.6" xlink:href="#maa829b31b4" y="245.22202"/>
      </g>
     </g>
     <g id="text_7">
      <!-- 0.2 -->
      <g transform="translate(25.155 251.30077)scale(0.16 -0.16)">
       <use xlink:href="#DejaVuSans-48"/>
       <use x="63.623047" xlink:href="#DejaVuSans-46"/>
       <use x="95.410156" xlink:href="#DejaVuSans-50"/>
      </g>
     </g>
    </g>
    <g id="ytick_3">
     <g id="line2d_21">
      <path clip-path="url(#p4b3b2d597e)" d="M 57.6 191.50004 
L 338.688 191.50004 
" style="fill:none;stroke:#b0b0b0;stroke-linecap:square;stroke-width:0.8;"/>
     </g>
     <g id="line2d_22">
      <g>
       <use style="stroke:#000000;stroke-width:0.8;" x="57.6" xlink:href="#maa829b31b4" y="191.50004"/>
      </g>
     </g>
     <g id="text_8">
      <!-- 0.4 -->
      <g transform="translate(25.155 197.57879)scale(0.16 -0.16)">
       <use xlink:href="#DejaVuSans-48"/>
       <use x="63.623047" xlink:href="#DejaVuSans-46"/>
       <use x="95.410156" xlink:href="#DejaVuSans-52"/>
      </g>
     </g>
    </g>
    <g id="ytick_4">
     <g id="line2d_23">
      <path clip-path="url(#p4b3b2d597e)" d="M 57.6 137.778059 
L 338.688 137.778059 
" style="fill:none;stroke:#b0b0b0;stroke-linecap:square;stroke-width:0.8;"/>
     </g>
     <g id="line2d_24">
      <g>
       <use style="stroke:#000000;stroke-width:0.8;" x="57.6" xlink:href="#maa829b31b4" y="137.778059"/>
      </g>
     </g>
     <g id="text_9">
      <!-- 0.6 -->
      <g transform="translate(25.155 143.856809)scale(0.16 -0.16)">
       <use xlink:href="#DejaVuSans-48"/>
       <use x="63.623047" xlink:href="#DejaVuSans-46"/>
       <use x="95.410156" xlink:href="#DejaVuSans-54"/>
      </g>
     </g>
    </g>
    <g id="ytick_5">
     <g id="line2d_25">
      <path clip-path="url(#p4b3b2d597e)" d="M 57.6 84.056079 
L 338.688 84.056079 
" style="fill:none;stroke:#b0b0b0;stroke-linecap:square;stroke-width:0.8;"/>
     </g>
     <g id="line2d_26">
      <g>
       <use style="stroke:#000000;stroke-width:0.8;" x="57.6" xlink:href="#maa829b31b4" y="84.056079"/>
      </g>
     </g>
     <g id="text_10">
      <!-- 0.8 -->
      <g transform="translate(25.155 90.134829)scale(0.16 -0.16)">
       <defs>
        <path d="M 31.78125 34.625 
Q 24.75 34.625 20.71875 30.859375 
Q 16.703125 27.09375 16.703125 20.515625 
Q 16.703125 13.921875 20.71875 10.15625 
Q 24.75 6.390625 31.78125 6.390625 
Q 38.8125 6.390625 42.859375 10.171875 
Q 46.921875 13.96875 46.921875 20.515625 
Q 46.921875 27.09375 42.890625 30.859375 
Q 38.875 34.625 31.78125 34.625 
z
M 21.921875 38.8125 
Q 15.578125 40.375 12.03125 44.71875 
Q 8.5 49.078125 8.5 55.328125 
Q 8.5 64.0625 14.71875 69.140625 
Q 20.953125 74.21875 31.78125 74.21875 
Q 42.671875 74.21875 48.875 69.140625 
Q 55.078125 64.0625 55.078125 55.328125 
Q 55.078125 49.078125 51.53125 44.71875 
Q 48 40.375 41.703125 38.8125 
Q 48.828125 37.15625 52.796875 32.3125 
Q 56.78125 27.484375 56.78125 20.515625 
Q 56.78125 9.90625 50.3125 4.234375 
Q 43.84375 -1.421875 31.78125 -1.421875 
Q 19.734375 -1.421875 13.25 4.234375 
Q 6.78125 9.90625 6.78125 20.515625 
Q 6.78125 27.484375 10.78125 32.3125 
Q 14.796875 37.15625 21.921875 38.8125 
z
M 18.3125 54.390625 
Q 18.3125 48.734375 21.84375 45.5625 
Q 25.390625 42.390625 31.78125 42.390625 
Q 38.140625 42.390625 41.71875 45.5625 
Q 45.3125 48.734375 45.3125 54.390625 
Q 45.3125 60.0625 41.71875 63.234375 
Q 38.140625 66.40625 31.78125 66.40625 
Q 25.390625 66.40625 21.84375 63.234375 
Q 18.3125 60.0625 18.3125 54.390625 
z
" id="DejaVuSans-56"/>
       </defs>
       <use xlink:href="#DejaVuSans-48"/>
       <use x="63.623047" xlink:href="#DejaVuSans-46"/>
       <use x="95.410156" xlink:href="#DejaVuSans-56"/>
      </g>
     </g>
    </g>
    <g id="ytick_6">
     <g id="line2d_27">
      <path clip-path="url(#p4b3b2d597e)" d="M 57.6 30.334099 
L 338.688 30.334099 
" style="fill:none;stroke:#b0b0b0;stroke-linecap:square;stroke-width:0.8;"/>
     </g>
     <g id="line2d_28">
      <g>
       <use style="stroke:#000000;stroke-width:0.8;" x="57.6" xlink:href="#maa829b31b4" y="30.334099"/>
      </g>
     </g>
     <g id="text_11">
      <!-- 1.0 -->
      <g transform="translate(25.155 36.412849)scale(0.16 -0.16)">
       <use xlink:href="#DejaVuSans-49"/>
       <use x="63.623047" xlink:href="#DejaVuSans-46"/>
       <use x="95.410156" xlink:href="#DejaVuSans-48"/>
      </g>
     </g>
    </g>
    <g id="text_12">
     <!-- Fraction of function,target pairs -->
     <g transform="translate(17.619531 297.681)rotate(-90)scale(0.17 -0.17)">
      <defs>
       <path d="M 9.8125 72.90625 
L 51.703125 72.90625 
L 51.703125 64.59375 
L 19.671875 64.59375 
L 19.671875 43.109375 
L 48.578125 43.109375 
L 48.578125 34.8125 
L 19.671875 34.8125 
L 19.671875 0 
L 9.8125 0 
z
" id="DejaVuSans-70"/>
       <path d="M 41.109375 46.296875 
Q 39.59375 47.171875 37.8125 47.578125 
Q 36.03125 48 33.890625 48 
Q 26.265625 48 22.1875 43.046875 
Q 18.109375 38.09375 18.109375 28.8125 
L 18.109375 0 
L 9.078125 0 
L 9.078125 54.6875 
L 18.109375 54.6875 
L 18.109375 46.1875 
Q 20.953125 51.171875 25.484375 53.578125 
Q 30.03125 56 36.53125 56 
Q 37.453125 56 38.578125 55.875 
Q 39.703125 55.765625 41.0625 55.515625 
z
" id="DejaVuSans-114"/>
       <path d="M 48.78125 52.59375 
L 48.78125 44.1875 
Q 44.96875 46.296875 41.140625 47.34375 
Q 37.3125 48.390625 33.40625 48.390625 
Q 24.65625 48.390625 19.8125 42.84375 
Q 14.984375 37.3125 14.984375 27.296875 
Q 14.984375 17.28125 19.8125 11.734375 
Q 24.65625 6.203125 33.40625 6.203125 
Q 37.3125 6.203125 41.140625 7.25 
Q 44.96875 8.296875 48.78125 10.40625 
L 48.78125 2.09375 
Q 45.015625 0.34375 40.984375 -0.53125 
Q 36.96875 -1.421875 32.421875 -1.421875 
Q 20.0625 -1.421875 12.78125 6.34375 
Q 5.515625 14.109375 5.515625 27.296875 
Q 5.515625 40.671875 12.859375 48.328125 
Q 20.21875 56 33.015625 56 
Q 37.15625 56 41.109375 55.140625 
Q 45.0625 54.296875 48.78125 52.59375 
z
" id="DejaVuSans-99"/>
       <path d="M 18.3125 70.21875 
L 18.3125 54.6875 
L 36.8125 54.6875 
L 36.8125 47.703125 
L 18.3125 47.703125 
L 18.3125 18.015625 
Q 18.3125 11.328125 20.140625 9.421875 
Q 21.96875 7.515625 27.59375 7.515625 
L 36.8125 7.515625 
L 36.8125 0 
L 27.59375 0 
Q 17.1875 0 13.234375 3.875 
Q 9.28125 7.765625 9.28125 18.015625 
L 9.28125 47.703125 
L 2.6875 47.703125 
L 2.6875 54.6875 
L 9.28125 54.6875 
L 9.28125 70.21875 
z
" id="DejaVuSans-116"/>
       <path d="M 8.5 21.578125 
L 8.5 54.6875 
L 17.484375 54.6875 
L 17.484375 21.921875 
Q 17.484375 14.15625 20.5 10.265625 
Q 23.53125 6.390625 29.59375 6.390625 
Q 36.859375 6.390625 41.078125 11.03125 
Q 45.3125 15.671875 45.3125 23.6875 
L 45.3125 54.6875 
L 54.296875 54.6875 
L 54.296875 0 
L 45.3125 0 
L 45.3125 8.40625 
Q 42.046875 3.421875 37.71875 1 
Q 33.40625 -1.421875 27.6875 -1.421875 
Q 18.265625 -1.421875 13.375 4.4375 
Q 8.5 10.296875 8.5 21.578125 
z
M 31.109375 56 
z
" id="DejaVuSans-117"/>
       <path d="M 11.71875 12.40625 
L 22.015625 12.40625 
L 22.015625 4 
L 14.015625 -11.625 
L 7.71875 -11.625 
L 11.71875 4 
z
" id="DejaVuSans-44"/>
       <path d="M 18.109375 8.203125 
L 18.109375 -20.796875 
L 9.078125 -20.796875 
L 9.078125 54.6875 
L 18.109375 54.6875 
L 18.109375 46.390625 
Q 20.953125 51.265625 25.265625 53.625 
Q 29.59375 56 35.59375 56 
Q 45.5625 56 51.78125 48.09375 
Q 58.015625 40.1875 58.015625 27.296875 
Q 58.015625 14.40625 51.78125 6.484375 
Q 45.5625 -1.421875 35.59375 -1.421875 
Q 29.59375 -1.421875 25.265625 0.953125 
Q 20.953125 3.328125 18.109375 8.203125 
z
M 48.6875 27.296875 
Q 48.6875 37.203125 44.609375 42.84375 
Q 40.53125 48.484375 33.40625 48.484375 
Q 26.265625 48.484375 22.1875 42.84375 
Q 18.109375 37.203125 18.109375 27.296875 
Q 18.109375 17.390625 22.1875 11.75 
Q 26.265625 6.109375 33.40625 6.109375 
Q 40.53125 6.109375 44.609375 11.75 
Q 48.6875 17.390625 48.6875 27.296875 
z
" id="DejaVuSans-112"/>
      </defs>
      <use xlink:href="#DejaVuSans-70"/>
      <use x="50.269531" xlink:href="#DejaVuSans-114"/>
      <use x="91.382812" xlink:href="#DejaVuSans-97"/>
      <use x="152.662109" xlink:href="#DejaVuSans-99"/>
      <use x="207.642578" xlink:href="#DejaVuSans-116"/>
      <use x="246.851562" xlink:href="#DejaVuSans-105"/>
      <use x="274.634766" xlink:href="#DejaVuSans-111"/>
      <use x="335.816406" xlink:href="#DejaVuSans-110"/>
      <use x="399.195312" xlink:href="#DejaVuSans-32"/>
      <use x="430.982422" xlink:href="#DejaVuSans-111"/>
      <use x="492.164062" xlink:href="#DejaVuSans-102"/>
      <use x="527.369141" xlink:href="#DejaVuSans-32"/>
      <use x="559.15625" xlink:href="#DejaVuSans-102"/>
      <use x="594.361328" xlink:href="#DejaVuSans-117"/>
      <use x="657.740234" xlink:href="#DejaVuSans-110"/>
      <use x="721.119141" xlink:href="#DejaVuSans-99"/>
      <use x="776.099609" xlink:href="#DejaVuSans-116"/>
      <use x="815.308594" xlink:href="#DejaVuSans-105"/>
      <use x="843.091797" xlink:href="#DejaVuSans-111"/>
      <use x="904.273438" xlink:href="#DejaVuSans-110"/>
      <use x="967.652344" xlink:href="#DejaVuSans-44"/>
      <use x="999.439453" xlink:href="#DejaVuSans-116"/>
      <use x="1038.648438" xlink:href="#DejaVuSans-97"/>
      <use x="1099.927734" xlink:href="#DejaVuSans-114"/>
      <use x="1139.291016" xlink:href="#DejaVuSans-103"/>
      <use x="1202.767578" xlink:href="#DejaVuSans-101"/>
      <use x="1264.291016" xlink:href="#DejaVuSans-116"/>
      <use x="1303.5" xlink:href="#DejaVuSans-32"/>
      <use x="1335.287109" xlink:href="#DejaVuSans-112"/>
      <use x="1398.763672" xlink:href="#DejaVuSans-97"/>
      <use x="1460.042969" xlink:href="#DejaVuSans-105"/>
      <use x="1487.826172" xlink:href="#DejaVuSans-114"/>
      <use x="1528.939453" xlink:href="#DejaVuSans-115"/>
     </g>
    </g>
   </g>
   <g id="line2d_29">
    <defs>
     <path d="M 0 1.5 
C 0.397805 1.5 0.77937 1.341951 1.06066 1.06066 
C 1.341951 0.77937 1.5 0.397805 1.5 0 
C 1.5 -0.397805 1.341951 -0.77937 1.06066 -1.06066 
C 0.77937 -1.341951 0.397805 -1.5 0 -1.5 
C -0.397805 -1.5 -0.77937 -1.341951 -1.06066 -1.06066 
C -1.341951 -0.77937 -1.5 -0.397805 -1.5 0 
C -1.5 0.397805 -1.341951 0.77937 -1.06066 1.06066 
C -0.77937 1.341951 -0.397805 1.5 0 1.5 
z
" id="m82c90a748d" style="stroke:#00bfbf;"/>
    </defs>
    <g>
     <use style="fill:#00bfbf;stroke:#00bfbf;" x="166.6119" xlink:href="#m82c90a748d" y="30.334099"/>
     <use style="fill:#00bfbf;stroke:#00bfbf;" x="166.6119" xlink:href="#m82c90a748d" y="30.334099"/>
    </g>
   </g>
   <g id="line2d_30">
    <path d="M 45.512012 298.944 
L 45.512012 267.342835 
L 57.6 267.342835 
L 57.6 255.755741 
L 64.67102 255.755741 
L 64.67102 252.068939 
L 69.687988 252.068939 
L 69.687988 248.382136 
L 73.579452 248.382136 
L 73.579452 246.802078 
L 76.759008 246.802078 
L 76.759008 243.115275 
L 79.447285 243.115275 
L 79.447285 237.848415 
L 81.775977 237.848415 
L 81.775977 233.634926 
L 85.66744 233.634926 
L 85.66744 232.054868 
L 88.846997 232.054868 
L 88.846997 228.368065 
L 90.242884 228.368065 
L 90.242884 226.788007 
L 92.73846 226.788007 
L 92.73846 225.207949 
L 94.921215 225.207949 
L 94.921215 224.681263 
L 95.918017 224.681263 
L 95.918017 224.154577 
L 96.86091 224.154577 
L 96.86091 223.627891 
L 97.755429 223.627891 
L 97.755429 223.101204 
L 102.989037 223.101204 
L 102.989037 222.574518 
L 105.398279 222.574518 
L 105.398279 222.047832 
L 108.483824 222.047832 
L 108.483824 221.521146 
L 111.104637 221.521146 
L 111.104637 219.941088 
L 115.711251 219.941088 
L 115.711251 219.414402 
L 116.019919 219.414402 
L 116.019919 218.36103 
L 121.036887 218.36103 
L 121.036887 217.834344 
L 126.168212 217.834344 
L 126.168212 217.307658 
L 127.002787 217.307658 
L 127.002787 216.780971 
L 128.709321 216.780971 
L 128.709321 216.254285 
L 131.814826 216.254285 
L 131.814826 215.727599 
L 132.30267 215.727599 
L 132.30267 215.200913 
L 132.777237 215.200913 
L 132.777237 214.674227 
L 133.46572 214.674227 
L 133.46572 213.620855 
L 133.800029 213.620855 
L 133.800029 212.567483 
L 134.870259 212.567483 
L 134.973757 210.987425 
L 135.076644 210.987425 
L 135.076644 210.460738 
L 135.878591 210.460738 
L 135.878591 209.934052 
L 136.073445 209.934052 
L 136.073445 209.407366 
L 136.645276 209.407366 
L 136.645276 208.88068 
L 136.831795 208.88068 
L 136.924311 206.24725 
L 137.558536 206.24725 
L 137.558536 203.087133 
L 137.997836 203.087133 
L 137.997836 202.033761 
L 138.170504 202.033761 
L 138.256201 199.927017 
L 140.11924 199.927017 
L 140.11924 199.400331 
L 140.348205 199.400331 
L 140.348205 197.820273 
L 140.499195 197.820273 
L 140.499195 196.240214 
L 141.090414 196.240214 
L 141.090414 195.713528 
L 142.351634 195.713528 
L 142.351634 194.660156 
L 142.884173 194.660156 
L 142.949611 193.080098 
L 143.144465 193.080098 
L 143.208936 191.50004 
L 143.273169 191.50004 
L 143.337167 188.866609 
L 143.40093 188.866609 
L 143.40093 187.813237 
L 143.716296 187.813237 
L 143.778691 186.233179 
L 144.390658 186.233179 
L 144.45069 184.653121 
L 145.039911 184.653121 
L 145.039911 184.126434 
L 145.155404 184.126434 
L 145.212864 181.493004 
L 145.327221 181.493004 
L 145.327221 180.439632 
L 145.888018 180.439632 
L 145.888018 179.912946 
L 146.052799 179.912946 
L 146.052799 179.38626 
L 146.538004 179.38626 
L 146.538004 178.332888 
L 146.854132 178.332888 
L 146.958248 173.066027 
L 147.113265 173.066027 
L 147.113265 172.012655 
L 147.419225 172.012655 
L 147.52003 168.325852 
L 147.620256 168.325852 
L 147.620256 167.799166 
L 148.015498 167.799166 
L 148.015498 167.27248 
L 148.209809 167.27248 
L 148.306159 162.005619 
L 148.449693 162.005619 
L 148.449693 160.952247 
L 148.919783 160.952247 
L 148.919783 159.372189 
L 149.241465 159.372189 
L 149.241465 158.845503 
L 149.467659 158.845503 
L 149.467659 158.318817 
L 149.60198 158.318817 
L 149.60198 156.738758 
L 149.823575 156.738758 
L 149.823575 154.632014 
L 149.955193 154.632014 
L 150.042389 153.578642 
L 150.129152 153.578642 
L 150.215485 151.471897 
L 150.344189 151.471897 
L 150.344189 150.945211 
L 150.932558 150.945211 
L 151.015013 148.838467 
L 151.13797 148.838467 
L 151.13797 148.311781 
L 151.300575 148.311781 
L 151.340991 147.258409 
L 151.541675 147.258409 
L 151.581536 145.678351 
L 151.660987 145.678351 
L 151.700576 144.098292 
L 151.858043 144.098292 
L 151.936246 141.464862 
L 151.975216 141.464862 
L 151.975216 139.358118 
L 152.091608 139.358118 
L 152.091608 138.304745 
L 152.207228 138.304745 
L 152.245598 137.251373 
L 152.322086 137.251373 
L 152.360205 133.564571 
L 152.848312 133.564571 
L 152.922207 129.877768 
L 152.995791 129.877768 
L 153.105587 127.771024 
L 153.142033 127.771024 
L 153.250915 125.66428 
L 153.644434 125.66428 
L 153.679772 121.977477 
L 153.785358 121.977477 
L 153.855395 119.870733 
L 154.098334 119.870733 
L 154.201424 117.237302 
L 154.269814 117.237302 
L 154.269814 114.077186 
L 154.473387 114.077186 
L 154.473387 111.443755 
L 154.707925 111.443755 
L 154.807483 108.810325 
L 154.906477 108.810325 
L 154.93935 106.703581 
L 155.102793 106.703581 
L 155.102793 105.123522 
L 155.232454 105.123522 
L 155.232454 104.596836 
L 155.393186 104.596836 
L 155.425155 103.016778 
L 155.61575 103.016778 
L 155.678822 100.910034 
L 155.804285 100.910034 
L 155.83551 96.696545 
L 155.959855 96.696545 
L 155.959855 95.643173 
L 156.175347 95.643173 
L 156.205916 94.063115 
L 156.357959 94.063115 
L 156.38821 90.902998 
L 156.628341 90.902998 
L 156.687861 89.849626 
L 156.776762 89.849626 
L 156.865211 88.269568 
L 156.923929 88.269568 
L 157.011638 86.68951 
L 157.040776 86.68951 
L 157.069866 85.636137 
L 157.243392 85.636137 
L 157.243392 83.529393 
L 157.38669 83.529393 
L 157.415209 82.476021 
L 157.500487 82.476021 
L 157.500487 81.422649 
L 158.003578 81.422649 
L 158.003578 79.842591 
L 158.412011 79.842591 
L 158.412011 79.315904 
L 158.546057 79.315904 
L 158.546057 77.735846 
L 158.705563 77.735846 
L 158.732007 73.522358 
L 158.889829 73.522358 
L 158.889829 71.415613 
L 159.149734 71.415613 
L 159.149734 69.308869 
L 159.733212 69.308869 
L 159.832723 66.148752 
L 159.857512 66.148752 
L 159.857512 65.622066 
L 160.005512 65.622066 
L 160.079044 61.408578 
L 160.249422 61.408578 
L 160.249422 60.881892 
L 160.609008 60.881892 
L 160.609008 59.301833 
L 160.750792 59.301833 
L 160.797798 57.195089 
L 160.961329 57.195089 
L 160.984566 56.141717 
L 161.100288 56.141717 
L 161.192316 54.561659 
L 161.442917 54.561659 
L 161.53316 51.928228 
L 161.734513 51.928228 
L 161.734513 50.874856 
L 161.955547 50.874856 
L 161.955547 50.34817 
L 162.260361 50.34817 
L 162.346481 48.768112 
L 162.410793 48.768112 
L 162.474869 46.661368 
L 163.709295 46.661368 
L 163.729146 42.974565 
L 163.926426 42.974565 
L 163.965615 41.921193 
L 164.218222 41.921193 
L 164.218222 39.814448 
L 164.35274 39.814448 
L 164.35274 38.761076 
L 164.486229 38.761076 
L 164.486229 38.23439 
L 164.599841 38.23439 
L 164.599841 37.181018 
L 164.712717 37.181018 
L 164.75018 35.60096 
L 165.284547 35.60096 
L 165.284547 34.547588 
L 165.55465 34.547588 
L 165.643763 31.914157 
L 165.9084 31.914157 
L 165.9084 31.387471 
L 166.6119 31.387471 
L 166.6119 30.334099 
L 338.688 30.334099 
L 338.688 30.334099 
" style="fill:none;stroke:#00bfbf;stroke-linecap:square;stroke-width:1.5;"/>
   </g>
   <g id="line2d_31">
    <defs>
     <path d="M -6 0 
L 6 0 
M 0 6 
L 0 -6 
" id="m60cf23eae6" style="stroke:#00bfbf;stroke-width:1.5;"/>
    </defs>
    <g>
     <use style="fill-opacity:0;stroke:#00bfbf;stroke-width:1.5;" x="64.67102" xlink:href="#m60cf23eae6" y="255.755741"/>
     <use style="fill-opacity:0;stroke:#00bfbf;stroke-width:1.5;" x="147.113265" xlink:href="#m60cf23eae6" y="172.012655"/>
     <use style="fill-opacity:0;stroke:#00bfbf;stroke-width:1.5;" x="160.079044" xlink:href="#m60cf23eae6" y="61.408578"/>
     <use style="fill-opacity:0;stroke:#00bfbf;stroke-width:1.5;" x="166.6119" xlink:href="#m60cf23eae6" y="30.334099"/>
     <use style="fill-opacity:0;stroke:#00bfbf;stroke-width:1.5;" x="166.6119" xlink:href="#m60cf23eae6" y="30.334099"/>
     <use style="fill-opacity:0;stroke:#00bfbf;stroke-width:1.5;" x="338.688" xlink:href="#m60cf23eae6" y="30.334099"/>
    </g>
   </g>
   <g id="line2d_32">
    <path style="fill:none;stroke:#00bfbf;stroke-linecap:square;stroke-width:1.5;"/>
    <g/>
   </g>
   <g id="line2d_33">
    <defs>
     <path d="M 0 1.5 
C 0.397805 1.5 0.77937 1.341951 1.06066 1.06066 
C 1.341951 0.77937 1.5 0.397805 1.5 0 
C 1.5 -0.397805 1.341951 -0.77937 1.06066 -1.06066 
C 0.77937 -1.341951 0.397805 -1.5 0 -1.5 
C -0.397805 -1.5 -0.77937 -1.341951 -1.06066 -1.06066 
C -1.341951 -0.77937 -1.5 -0.397805 -1.5 0 
C -1.5 0.397805 -1.341951 0.77937 -1.06066 1.06066 
C -0.77937 1.341951 -0.397805 1.5 0 1.5 
z
" id="m718ca593cb" style="stroke:#008000;"/>
    </defs>
    <g>
     <use style="fill:#008000;stroke:#008000;" x="165.814766" xlink:href="#m718ca593cb" y="30.334099"/>
     <use style="fill:#008000;stroke:#008000;" x="165.814766" xlink:href="#m718ca593cb" y="30.334099"/>
    </g>
   </g>
   <g id="line2d_34">
    <path d="M 38.440992 298.944 
L 38.440992 272.609696 
L 50.52898 272.609696 
L 50.52898 271.029638 
L 57.6 271.029638 
L 57.6 268.922893 
L 62.616969 268.922893 
L 62.616969 263.129347 
L 66.508432 263.129347 
L 66.508432 260.495916 
L 69.687988 260.495916 
L 69.687988 257.862486 
L 72.376266 257.862486 
L 72.376266 257.3358 
L 74.704957 257.3358 
L 74.704957 254.702369 
L 76.759008 254.702369 
L 76.759008 254.175683 
L 78.59642 254.175683 
L 78.59642 253.648997 
L 81.775977 253.648997 
L 81.775977 251.015567 
L 84.464254 251.015567 
L 84.464254 248.382136 
L 85.66744 248.382136 
L 85.66744 246.275392 
L 86.792945 246.275392 
L 86.792945 245.22202 
L 88.846997 245.22202 
L 88.846997 244.168648 
L 98.32726 244.168648 
L 98.32726 242.061903 
L 99.938184 242.061903 
L 99.938184 240.481845 
L 103.623262 240.481845 
L 103.623262 239.955159 
L 104.434538 239.955159 
L 104.434538 239.428473 
L 104.826449 239.428473 
L 104.826449 237.848415 
L 108.006005 237.848415 
L 108.006005 237.321729 
L 108.640231 237.321729 
L 108.640231 236.795043 
L 109.252198 236.795043 
L 109.252198 236.268356 
L 111.505558 236.268356 
L 111.505558 235.74167 
L 111.767808 235.74167 
L 111.767808 235.214984 
L 112.280765 235.214984 
L 112.280765 234.688298 
L 112.779064 234.688298 
L 112.779064 233.634926 
L 113.26352 233.634926 
L 113.26352 232.581554 
L 114.193835 232.581554 
L 114.193835 232.054868 
L 114.860386 232.054868 
L 114.860386 231.528182 
L 115.077025 231.528182 
L 115.077025 230.47481 
L 120.571812 230.47481 
L 120.571812 229.948123 
L 120.883236 229.948123 
L 120.883236 228.368065 
L 122.503236 228.368065 
L 122.503236 227.841379 
L 123.460928 227.841379 
L 123.460928 227.314693 
L 124.619683 227.314693 
L 124.619683 226.788007 
L 126.281824 226.788007 
L 126.281824 226.261321 
L 129.195127 226.261321 
L 129.195127 225.734635 
L 132.422528 225.734635 
L 132.422528 225.207949 
L 132.73818 225.207949 
L 132.816208 224.154577 
L 133.72629 224.154577 
L 133.72629 223.627891 
L 133.946579 223.627891 
L 133.946579 223.101204 
L 134.236034 223.101204 
L 134.236034 222.574518 
L 134.37898 222.574518 
L 134.450015 221.521146 
L 134.661403 221.521146 
L 134.661403 220.99446 
L 134.800918 220.99446 
L 134.800918 220.467774 
L 135.144899 220.467774 
L 135.144899 219.941088 
L 135.348078 219.941088 
L 135.348078 219.414402 
L 135.482227 219.414402 
L 135.482227 218.887716 
L 135.615352 218.887716 
L 135.615352 218.36103 
L 136.073445 218.36103 
L 136.073445 217.834344 
L 137.138292 217.834344 
L 137.138292 217.307658 
L 137.852629 217.307658 
L 137.852629 216.780971 
L 138.026733 216.780971 
L 138.026733 216.254285 
L 138.650644 216.254285 
L 138.761723 214.674227 
L 139.939053 214.674227 
L 139.990725 213.620855 
L 140.297583 213.620855 
L 140.297583 213.094169 
L 141.090414 213.094169 
L 141.138789 212.040797 
L 141.283115 212.040797 
L 141.283115 210.987425 
L 141.755753 210.987425 
L 141.755753 210.460738 
L 142.124852 210.460738 
L 142.124852 209.934052 
L 142.261275 209.934052 
L 142.261275 209.407366 
L 142.752555 209.407366 
L 142.752555 208.88068 
L 143.058132 208.88068 
L 143.058132 208.353994 
L 143.358447 208.353994 
L 143.358447 207.827308 
L 144.189046 207.827308 
L 144.189046 207.300622 
L 144.865226 207.300622 
L 144.904196 205.720564 
L 145.059213 205.720564 
L 145.059213 205.193878 
L 145.289185 205.193878 
L 145.289185 204.140506 
L 145.403044 204.140506 
L 145.440832 203.087133 
L 145.516164 203.087133 
L 145.553708 202.033761 
L 145.703082 202.033761 
L 145.777292 200.980389 
L 145.888018 200.980389 
L 145.998045 199.400331 
L 146.071013 199.400331 
L 146.071013 198.873645 
L 146.573414 198.873645 
L 146.573414 198.346959 
L 146.749392 198.346959 
L 146.854132 196.7669 
L 146.888907 196.7669 
L 146.992815 194.13347 
L 147.096109 194.13347 
L 147.198794 193.080098 
L 147.232888 193.080098 
L 147.334773 189.393295 
L 147.436066 189.393295 
L 147.536775 186.759865 
L 147.802521 186.759865 
L 147.802521 183.599748 
L 147.933891 183.599748 
L 148.031773 182.01969 
L 148.225905 182.01969 
L 148.322166 180.439632 
L 148.354135 180.439632 
L 148.354135 179.912946 
L 148.54473 179.912946 
L 148.54473 179.38626 
L 148.733265 179.38626 
L 148.79566 177.806202 
L 148.950676 177.806202 
L 149.012299 176.226143 
L 149.134896 176.226143 
L 149.134896 174.646085 
L 149.286939 174.646085 
L 149.286939 174.119399 
L 149.587107 174.119399 
L 149.646525 172.539341 
L 149.969756 172.539341 
L 149.969756 171.485969 
L 150.429467 171.485969 
L 150.486088 169.379224 
L 150.738632 169.379224 
L 150.849711 164.112363 
L 150.987572 164.112363 
L 151.042412 163.058991 
L 151.287083 163.058991 
L 151.314058 161.478933 
L 151.44831 161.478933 
L 151.501723 155.685386 
L 151.60806 155.685386 
L 151.660987 154.105328 
L 151.740076 154.105328 
L 151.740076 153.051956 
L 151.871101 153.051956 
L 151.975216 150.418525 
L 152.001148 150.418525 
L 152.104493 146.205037 
L 152.155936 146.205037 
L 152.155936 145.151665 
L 152.283884 145.151665 
L 152.283884 144.624978 
L 152.410901 144.624978 
L 152.410901 144.098292 
L 152.612222 144.098292 
L 152.712018 138.304745 
L 152.786492 138.304745 
L 152.885298 130.93114 
L 153.032466 130.93114 
L 153.081247 129.351082 
L 153.202607 129.351082 
L 153.226778 124.610907 
L 153.347132 124.610907 
L 153.347132 124.084221 
L 153.466662 124.084221 
L 153.561699 123.030849 
L 153.679772 123.030849 
L 153.750233 121.977477 
L 153.936752 121.977477 
L 154.029268 119.344047 
L 154.121296 119.344047 
L 154.212841 115.657244 
L 154.439623 115.657244 
L 154.484627 114.603872 
L 154.950294 114.603872 
L 154.950294 113.023814 
L 155.081089 113.023814 
L 155.167744 110.917069 
L 155.275461 110.917069 
L 155.382516 108.283639 
L 155.531298 108.283639 
L 155.594676 103.543464 
L 155.720743 103.543464 
L 155.762564 98.276603 
L 155.845906 98.276603 
L 155.949527 95.643173 
L 156.052535 95.643173 
L 156.052535 94.063115 
L 156.175347 94.063115 
L 156.175347 92.483056 
L 156.317544 92.483056 
L 156.418408 90.376312 
L 156.618401 90.376312 
L 156.677955 86.68951 
L 156.737306 86.68951 
L 156.816128 85.636137 
L 156.894595 85.636137 
L 156.894595 85.109451 
L 157.011638 85.109451 
L 157.011638 84.582765 
L 157.147202 84.582765 
L 157.224197 82.476021 
L 157.28172 82.476021 
L 157.358125 80.895963 
L 157.434196 80.895963 
L 157.434196 78.262532 
L 157.716543 78.262532 
L 157.716543 77.20916 
L 158.195371 77.20916 
L 158.285965 74.049044 
L 158.39406 74.049044 
L 158.39406 72.468985 
L 158.537152 72.468985 
L 158.572743 70.362241 
L 158.767202 70.362241 
L 158.83738 68.782183 
L 159.115303 68.782183 
L 159.218393 66.675439 
L 159.354904 66.675439 
L 159.456591 63.515322 
L 159.658204 63.515322 
L 159.658204 61.408578 
L 159.791329 61.408578 
L 159.791329 60.881892 
L 159.93989 60.881892 
L 159.93989 60.355206 
L 160.103486 60.355206 
L 160.200913 58.775147 
L 160.233268 58.775147 
L 160.313893 57.195089 
L 160.394148 57.195089 
L 160.426146 55.088345 
L 160.601097 55.088345 
L 160.601097 54.561659 
L 160.883648 54.561659 
L 160.883648 54.034973 
L 161.39006 54.034973 
L 161.420284 52.454914 
L 161.510643 52.454914 
L 161.615474 50.874856 
L 161.719678 50.874856 
L 161.719678 50.34817 
L 162.144868 50.34817 
L 162.159347 49.294798 
L 162.289115 49.294798 
L 162.389382 47.188054 
L 162.44642 47.188054 
L 162.44642 46.661368 
L 162.784783 46.661368 
L 162.854457 45.081309 
L 162.896128 45.081309 
L 162.951535 42.974565 
L 163.157756 42.974565 
L 163.253165 38.23439 
L 163.375071 38.23439 
L 163.482721 36.127646 
L 163.814908 36.127646 
L 163.906798 35.074274 
L 164.076176 35.074274 
L 164.076176 34.547588 
L 164.205356 34.547588 
L 164.231078 33.494215 
L 164.448194 33.494215 
L 164.448194 32.440843 
L 165.034758 32.440843 
L 165.034758 31.914157 
L 165.266391 31.914157 
L 165.35096 30.860785 
L 165.814766 30.860785 
L 165.814766 30.334099 
L 338.688 30.334099 
L 338.688 30.334099 
" style="fill:none;stroke:#008000;stroke-linecap:square;stroke-width:1.5;"/>
   </g>
   <g id="line2d_35">
    <defs>
     <path d="M -0 6 
L 6 -6 
L -6 -6 
z
" id="md561c85676" style="stroke:#008000;stroke-linejoin:miter;stroke-width:1.5;"/>
    </defs>
    <g>
     <use style="fill-opacity:0;stroke:#008000;stroke-linejoin:miter;stroke-width:1.5;" x="76.759008" xlink:href="#md561c85676" y="254.702369"/>
     <use style="fill-opacity:0;stroke:#008000;stroke-linejoin:miter;stroke-width:1.5;" x="147.232888" xlink:href="#md561c85676" y="192.553412"/>
     <use style="fill-opacity:0;stroke:#008000;stroke-linejoin:miter;stroke-width:1.5;" x="165.814766" xlink:href="#md561c85676" y="30.860785"/>
     <use style="fill-opacity:0;stroke:#008000;stroke-linejoin:miter;stroke-width:1.5;" x="165.814766" xlink:href="#md561c85676" y="30.334099"/>
     <use style="fill-opacity:0;stroke:#008000;stroke-linejoin:miter;stroke-width:1.5;" x="165.814766" xlink:href="#md561c85676" y="30.334099"/>
     <use style="fill-opacity:0;stroke:#008000;stroke-linejoin:miter;stroke-width:1.5;" x="338.688" xlink:href="#md561c85676" y="30.334099"/>
    </g>
   </g>
   <g id="line2d_36">
    <path style="fill:none;stroke:#008000;stroke-linecap:square;stroke-width:1.5;"/>
    <g/>
   </g>
   <g id="line2d_37">
    <defs>
     <path d="M 0 1.5 
C 0.397805 1.5 0.77937 1.341951 1.06066 1.06066 
C 1.341951 0.77937 1.5 0.397805 1.5 0 
C 1.5 -0.397805 1.341951 -0.77937 1.06066 -1.06066 
C 0.77937 -1.341951 0.397805 -1.5 0 -1.5 
C -0.397805 -1.5 -0.77937 -1.341951 -1.06066 -1.06066 
C -1.341951 -0.77937 -1.5 -0.397805 -1.5 0 
C -1.5 0.397805 -1.341951 0.77937 -1.06066 1.06066 
C -0.77937 1.341951 -0.397805 1.5 0 1.5 
z
" id="mb1bc8850bb" style="stroke:#0000ff;"/>
    </defs>
    <g>
     <use style="fill:#0000ff;stroke:#0000ff;" x="176.968661" xlink:href="#mb1bc8850bb" y="30.334099"/>
     <use style="fill:#0000ff;stroke:#0000ff;" x="176.968661" xlink:href="#mb1bc8850bb" y="30.334099"/>
    </g>
   </g>
   <g id="line2d_38">
    <path d="M 29.53256 298.944 
L 29.53256 283.143418 
L 48.691568 283.143418 
L 48.691568 282.616732 
L 57.6 282.616732 
L 57.6 282.090045 
L 65.796525 282.090045 
L 65.796525 281.036673 
L 69.687988 281.036673 
L 69.687988 279.983301 
L 76.759008 279.983301 
L 76.759008 279.456615 
L 79.938565 279.456615 
L 79.938565 277.876557 
L 80.881459 277.876557 
L 80.881459 277.349871 
L 83.438118 277.349871 
L 83.438118 276.823185 
L 88.255778 276.823185 
L 88.255778 276.296499 
L 91.029752 276.296499 
L 91.029752 275.243126 
L 95.526106 275.243126 
L 95.526106 274.71644 
L 97.043522 274.71644 
L 97.043522 274.189754 
L 98.100772 274.189754 
L 98.100772 273.663068 
L 99.097574 273.663068 
L 99.097574 271.029638 
L 102.330873 271.029638 
L 102.330873 270.502952 
L 102.859376 270.502952 
L 102.859376 268.922893 
L 104.114542 268.922893 
L 104.114542 267.869521 
L 104.826449 267.869521 
L 104.826449 267.342835 
L 105.951954 267.342835 
L 105.951954 266.289463 
L 106.382575 266.289463 
L 106.382575 265.762777 
L 107.213174 265.762777 
L 107.213174 265.236091 
L 108.577836 265.236091 
L 108.577836 264.709405 
L 109.131511 264.709405 
L 109.131511 264.182719 
L 110.016944 264.182719 
L 110.016944 262.60266 
L 110.188761 262.60266 
L 110.188761 262.075974 
L 112.280765 262.075974 
L 112.280765 261.549288 
L 112.877038 261.549288 
L 112.877038 261.022602 
L 114.0117 261.022602 
L 114.0117 260.495916 
L 114.552496 260.495916 
L 114.552496 259.442544 
L 115.460322 259.442544 
L 115.460322 258.915858 
L 115.835374 258.915858 
L 115.835374 258.389172 
L 116.081002 258.389172 
L 116.081002 257.862486 
L 117.709852 257.862486 
L 117.709852 257.3358 
L 118.148599 257.3358 
L 118.148599 256.809114 
L 118.363901 256.809114 
L 118.363901 254.702369 
L 119.097192 254.702369 
L 119.097192 254.175683 
L 119.40226 254.175683 
L 119.40226 253.122311 
L 119.89914 253.122311 
L 119.89914 252.595625 
L 120.286695 252.595625 
L 120.286695 252.068939 
L 121.579085 252.068939 
L 121.579085 251.542253 
L 122.44689 251.542253 
L 122.44689 251.015567 
L 122.865118 251.015567 
L 122.865118 250.488881 
L 123.829748 250.488881 
L 123.829748 249.962195 
L 125.470548 249.962195 
L 125.470548 249.435508 
L 126.573795 249.435508 
L 126.573795 248.908822 
L 126.70692 248.908822 
L 126.70692 248.382136 
L 128.531065 248.382136 
L 128.531065 247.85545 
L 128.650105 247.85545 
L 128.650105 247.328764 
L 131.439773 247.328764 
L 131.439773 246.802078 
L 131.987128 246.802078 
L 131.987128 246.275392 
L 135.602085 246.275392 
L 135.602085 245.22202 
L 135.839358 245.22202 
L 135.839358 244.695334 
L 137.48721 244.695334 
L 137.48721 244.168648 
L 137.770782 244.168648 
L 137.770782 243.641962 
L 138.049816 243.641962 
L 138.153314 242.588589 
L 138.861092 242.588589 
L 138.861092 242.061903 
L 139.381706 242.061903 
L 139.381706 241.535217 
L 139.9494 241.535217 
L 139.9494 241.008531 
L 141.407239 241.008531 
L 141.407239 240.481845 
L 142.459451 240.481845 
L 142.459451 239.955159 
L 142.831645 239.955159 
L 142.831645 238.901787 
L 143.040814 238.901787 
L 143.040814 238.375101 
L 143.375453 238.375101 
L 143.375453 237.848415 
L 144.001481 237.848415 
L 144.001481 237.321729 
L 144.318346 237.321729 
L 144.318346 236.795043 
L 144.462672 236.795043 
L 144.462672 236.268356 
L 144.93531 236.268356 
L 144.93531 235.74167 
L 145.051495 235.74167 
L 145.051495 235.214984 
L 145.258697 235.214984 
L 145.258697 234.688298 
L 145.395476 234.688298 
L 145.395476 233.634926 
L 146.345539 233.634926 
L 146.345539 233.10824 
L 146.559258 233.10824 
L 146.559258 232.581554 
L 147.061745 232.581554 
L 147.12355 231.528182 
L 147.307662 231.528182 
L 147.307662 231.001496 
L 147.809113 231.001496 
L 147.809113 230.47481 
L 147.96658 230.47481 
L 148.005725 229.421437 
L 148.733265 229.421437 
L 148.752007 228.368065 
L 149.049169 228.368065 
L 149.049169 227.841379 
L 149.377533 227.841379 
L 149.377533 227.314693 
L 149.557321 227.314693 
L 149.557321 226.788007 
L 149.770648 226.788007 
L 149.770648 225.734635 
L 150.068464 225.734635 
L 150.155097 224.681263 
L 150.361278 224.681263 
L 150.412445 223.627891 
L 150.54816 223.627891 
L 150.649257 222.574518 
L 150.899466 222.574518 
L 150.899466 222.047832 
L 151.0643 222.047832 
L 151.113448 220.467774 
L 151.389366 220.467774 
L 151.469695 218.887716 
L 151.645126 218.887716 
L 151.645126 218.36103 
L 151.787359 218.36103 
L 151.787359 217.834344 
L 151.944047 217.834344 
L 151.975216 216.254285 
L 152.145659 216.254285 
L 152.145659 215.727599 
L 152.283884 215.727599 
L 152.283884 214.674227 
L 152.405838 214.674227 
L 152.405838 214.147541 
L 152.526944 214.147541 
L 152.572143 213.094169 
L 152.944315 213.094169 
L 153.047115 212.040797 
L 153.105587 212.040797 
L 153.163864 210.987425 
L 153.323128 210.987425 
L 153.323128 210.460738 
L 153.679772 210.460738 
L 153.778339 209.407366 
L 153.848404 209.407366 
L 153.946025 206.773936 
L 154.112115 206.773936 
L 154.167129 205.720564 
L 154.303908 205.720564 
L 154.303908 205.193878 
L 154.507086 205.193878 
L 154.533999 204.140506 
L 154.667942 204.140506 
L 154.667942 203.613819 
L 154.866947 203.613819 
L 154.866947 203.087133 
L 155.0376 203.087133 
L 155.141793 201.507075 
L 155.412374 201.507075 
L 155.412374 200.980389 
L 155.55245 200.980389 
L 155.590458 199.400331 
L 155.678822 199.400331 
L 155.741666 197.820273 
L 155.928852 197.820273 
L 155.97843 195.186842 
L 156.212023 195.186842 
L 156.285144 192.553412 
L 156.370066 192.553412 
L 156.370066 191.50004 
L 156.49067 191.50004 
L 156.598505 189.919981 
L 156.776762 189.919981 
L 156.847557 187.286551 
L 157.034952 187.286551 
L 157.093102 185.706493 
L 157.208825 185.706493 
L 157.208825 185.179807 
L 157.323784 185.179807 
L 157.380981 183.073062 
L 157.44937 183.073062 
L 157.517493 181.493004 
L 157.596634 181.493004 
L 157.697862 177.806202 
L 157.753847 177.806202 
L 157.820792 175.699457 
L 157.887482 175.699457 
L 157.953917 174.119399 
L 158.140788 174.119399 
L 158.140788 173.592713 
L 158.51933 173.592713 
L 158.594062 172.539341 
L 158.657864 172.539341 
L 158.753132 171.485969 
L 158.795307 171.485969 
L 158.83738 169.379224 
L 158.921223 169.379224 
L 158.962994 167.27248 
L 159.087709 167.27248 
L 159.180664 166.219108 
L 159.262876 166.219108 
L 159.314063 164.63905 
L 159.375289 164.63905 
L 159.375289 164.112363 
L 159.486982 164.112363 
L 159.577838 162.005619 
L 159.728221 162.005619 
L 159.807898 159.372189 
L 159.857512 159.372189 
L 159.966168 157.79213 
L 159.976013 157.79213 
L 159.976013 157.265444 
L 160.093714 157.265444 
L 160.200913 155.685386 
L 160.230035 155.685386 
L 160.239731 154.632014 
L 160.489968 154.632014 
L 160.489968 153.051956 
L 160.623238 153.051956 
L 160.727241 149.891839 
L 160.764907 149.891839 
L 160.86807 147.785095 
L 160.905434 147.785095 
L 161.007772 146.205037 
L 161.026314 146.205037 
L 161.109513 144.624978 
L 161.155563 144.624978 
L 161.155563 143.571606 
L 161.374928 143.571606 
L 161.429341 141.464862 
L 161.510643 141.464862 
L 161.546656 140.41149 
L 161.627414 140.41149 
L 161.7078 138.831432 
L 161.743409 138.831432 
L 161.840959 136.198001 
L 161.893939 136.198001 
L 161.990653 134.091257 
L 162.051921 134.091257 
L 162.156452 129.877768 
L 162.191157 129.877768 
L 162.268992 127.244338 
L 162.320689 127.244338 
L 162.415072 125.137593 
L 162.474869 125.137593 
L 162.542958 120.924105 
L 162.636148 120.924105 
L 162.737246 117.763988 
L 162.770815 117.763988 
L 162.871137 112.497128 
L 162.921083 112.497128 
L 162.921083 110.917069 
L 163.152289 110.917069 
L 163.258601 107.230267 
L 163.299319 107.230267 
L 163.356164 105.650209 
L 163.412824 105.650209 
L 163.517565 101.963406 
L 163.541647 101.963406 
L 163.621681 100.383348 
L 163.701348 100.383348 
L 163.796472 97.749917 
L 163.851722 97.749917 
L 163.946031 95.643173 
L 164.032036 95.643173 
L 164.133133 94.063115 
L 164.15638 94.063115 
L 164.179597 92.483056 
L 164.325919 92.483056 
L 164.410075 89.849626 
L 164.463418 89.849626 
L 164.509011 88.796254 
L 164.75018 88.796254 
L 164.824867 87.216196 
L 164.9363 87.216196 
L 164.9363 86.68951 
L 165.09112 86.68951 
L 165.105794 85.109451 
L 165.280918 85.109451 
L 165.360599 80.369277 
L 165.396698 80.369277 
L 165.396698 79.842591 
L 165.568939 79.842591 
L 165.640207 78.262532 
L 165.774819 78.262532 
L 165.774819 77.20916 
L 165.96434 77.20916 
L 166.040966 75.102416 
L 166.124175 75.102416 
L 166.200103 71.942299 
L 166.378267 71.942299 
L 166.473452 70.362241 
L 166.675688 70.362241 
L 166.7626 68.782183 
L 166.809221 68.782183 
L 166.809221 67.728811 
L 166.974711 67.728811 
L 167.053592 65.622066 
L 167.132118 65.622066 
L 167.229781 64.042008 
L 167.262214 64.042008 
L 167.262214 63.515322 
L 167.378477 63.515322 
L 167.391347 62.46195 
L 167.570541 62.46195 
L 167.570541 61.935264 
L 167.728995 61.935264 
L 167.728995 60.881892 
L 167.854729 60.881892 
L 167.935973 58.248461 
L 167.979563 58.248461 
L 168.010633 57.195089 
L 168.177458 57.195089 
L 168.177458 56.141717 
L 168.306117 56.141717 
L 168.385289 55.088345 
L 168.488284 55.088345 
L 168.542565 53.508287 
L 168.71633 53.508287 
L 168.71633 52.9816 
L 168.829244 52.9816 
L 168.829244 51.401542 
L 169.05875 51.401542 
L 169.064596 49.821484 
L 169.239048 49.821484 
L 169.250616 48.768112 
L 169.662047 48.768112 
L 169.662047 47.71474 
L 169.841835 47.71474 
L 169.886494 45.607995 
L 170.014255 45.607995 
L 170.014255 45.081309 
L 170.364915 45.081309 
L 170.364915 44.554623 
L 170.607318 44.554623 
L 170.607318 44.027937 
L 172.539692 44.027937 
L 172.539692 43.501251 
L 173.091121 43.501251 
L 173.091121 42.974565 
L 173.544472 42.974565 
L 173.544472 42.447879 
L 173.733298 42.447879 
L 173.733298 41.921193 
L 173.946625 41.921193 
L 173.946625 41.394507 
L 174.13554 41.394507 
L 174.13554 40.867821 
L 174.32243 40.867821 
L 174.32243 40.341135 
L 174.588422 40.341135 
L 174.656411 39.287762 
L 174.800015 39.287762 
L 174.800015 38.761076 
L 174.954957 38.761076 
L 174.963293 37.707704 
L 175.305777 37.707704 
L 175.36696 36.654332 
L 175.673699 36.654332 
L 175.673699 36.127646 
L 175.990858 36.127646 
L 175.990858 35.60096 
L 176.135616 35.60096 
L 176.135616 35.074274 
L 176.29077 35.074274 
L 176.387046 34.020902 
L 176.440729 34.020902 
L 176.440729 32.967529 
L 176.650041 32.967529 
L 176.702921 30.860785 
L 176.968661 30.860785 
L 176.968661 30.334099 
L 338.688 30.334099 
L 338.688 30.334099 
" style="fill:none;stroke:#0000ff;stroke-linecap:square;stroke-width:1.5;"/>
   </g>
   <g id="line2d_39">
    <defs>
     <path d="M 0 -6 
L -1.347084 -1.854102 
L -5.706339 -1.854102 
L -2.179628 0.708204 
L -3.526712 4.854102 
L -0 2.291796 
L 3.526712 4.854102 
L 2.179628 0.708204 
L 5.706339 -1.854102 
L 1.347084 -1.854102 
z
" id="m4e656ebc6b" style="stroke:#0000ff;stroke-linejoin:bevel;stroke-width:1.5;"/>
    </defs>
    <g>
     <use style="fill-opacity:0;stroke:#0000ff;stroke-linejoin:bevel;stroke-width:1.5;" x="114.552496" xlink:href="#m4e656ebc6b" y="260.495916"/>
     <use style="fill-opacity:0;stroke:#0000ff;stroke-linejoin:bevel;stroke-width:1.5;" x="160.793103" xlink:href="#m4e656ebc6b" y="149.365153"/>
     <use style="fill-opacity:0;stroke:#0000ff;stroke-linejoin:bevel;stroke-width:1.5;" x="176.968661" xlink:href="#m4e656ebc6b" y="30.860785"/>
     <use style="fill-opacity:0;stroke:#0000ff;stroke-linejoin:bevel;stroke-width:1.5;" x="176.968661" xlink:href="#m4e656ebc6b" y="30.334099"/>
     <use style="fill-opacity:0;stroke:#0000ff;stroke-linejoin:bevel;stroke-width:1.5;" x="176.968661" xlink:href="#m4e656ebc6b" y="30.334099"/>
     <use style="fill-opacity:0;stroke:#0000ff;stroke-linejoin:bevel;stroke-width:1.5;" x="338.688" xlink:href="#m4e656ebc6b" y="30.334099"/>
    </g>
   </g>
   <g id="line2d_40">
    <path style="fill:none;stroke:#0000ff;stroke-linecap:square;stroke-width:1.5;"/>
    <g/>
   </g>
   <g id="line2d_41">
    <defs>
     <path d="M 0 1.5 
C 0.397805 1.5 0.77937 1.341951 1.06066 1.06066 
C 1.341951 0.77937 1.5 0.397805 1.5 0 
C 1.5 -0.397805 1.341951 -0.77937 1.06066 -1.06066 
C 0.77937 -1.341951 0.397805 -1.5 0 -1.5 
C -0.397805 -1.5 -0.77937 -1.341951 -1.06066 -1.06066 
C -1.341951 -0.77937 -1.5 -0.397805 -1.5 0 
C -1.5 0.397805 -1.341951 0.77937 -1.06066 1.06066 
C -0.77937 1.341951 -0.397805 1.5 0 1.5 
z
" id="m47234ac042" style="stroke:#000000;"/>
    </defs>
    <g>
     <use style="stroke:#000000;" x="185.003089" xlink:href="#m47234ac042" y="30.334099"/>
     <use style="stroke:#000000;" x="185.003089" xlink:href="#m47234ac042" y="30.334099"/>
    </g>
   </g>
   <g id="line2d_42">
    <path d="M 17.444571 298.944 
L 17.444571 288.410278 
L 82.626842 288.410278 
L 82.626842 287.883592 
L 87.952479 287.883592 
L 87.952479 287.356906 
L 97.403108 287.356906 
L 97.403108 286.83022 
L 102.464508 286.83022 
L 102.464508 286.303534 
L 103.372333 286.303534 
L 103.372333 285.776848 
L 103.993014 285.776848 
L 103.993014 284.723476 
L 104.114542 284.723476 
L 104.114542 284.19679 
L 104.826449 284.19679 
L 104.826449 283.143418 
L 106.802819 283.143418 
L 106.802819 282.616732 
L 107.213174 282.616732 
L 107.213174 282.090045 
L 107.811151 282.090045 
L 107.811151 281.563359 
L 108.006005 281.563359 
L 108.006005 281.036673 
L 108.764355 281.036673 
L 108.856871 279.983301 
L 108.948899 279.983301 
L 108.948899 279.456615 
L 109.401893 279.456615 
L 109.401893 278.929929 
L 110.188761 278.929929 
L 110.188761 278.403243 
L 112.356423 278.403243 
L 112.356423 277.876557 
L 112.506763 277.876557 
L 112.506763 277.349871 
L 113.73488 277.349871 
L 113.73488 276.823185 
L 113.942906 276.823185 
L 113.942906 276.296499 
L 114.080224 276.296499 
L 114.080224 275.769812 
L 115.460322 275.769812 
L 115.460322 275.243126 
L 116.081002 275.243126 
L 116.081002 274.189754 
L 116.323218 274.189754 
L 116.323218 273.663068 
L 117.202696 273.663068 
L 117.202696 272.08301 
L 118.202674 272.08301 
L 118.202674 271.556324 
L 118.942633 271.556324 
L 118.942633 271.029638 
L 120.429836 271.029638 
L 120.47729 269.976266 
L 120.618882 269.976266 
L 120.618882 269.449579 
L 121.355214 269.449579 
L 121.400219 268.396207 
L 122.104932 268.396207 
L 122.104932 267.869521 
L 122.489167 267.869521 
L 122.489167 266.816149 
L 122.740699 266.816149 
L 122.740699 266.289463 
L 123.434283 266.289463 
L 123.434283 265.762777 
L 123.672636 265.762777 
L 123.672636 265.236091 
L 125.001625 265.236091 
L 125.001625 264.709405 
L 125.219619 264.709405 
L 125.219619 263.656033 
L 128.199452 263.656033 
L 128.199452 263.129347 
L 128.709321 263.129347 
L 128.738855 262.075974 
L 129.376241 262.075974 
L 129.376241 261.549288 
L 129.714332 261.549288 
L 129.714332 261.022602 
L 131.108073 261.022602 
L 131.108073 260.495916 
L 131.665771 260.495916 
L 131.665771 259.96923 
L 132.230358 259.96923 
L 132.230358 259.442544 
L 132.350712 259.442544 
L 132.350712 258.915858 
L 132.565279 258.915858 
L 132.565279 258.389172 
L 133.032848 258.389172 
L 133.032848 257.862486 
L 134.343353 257.862486 
L 134.343353 257.3358 
L 136.054058 257.3358 
L 136.054058 256.809114 
L 142.405626 256.809114 
L 142.405626 256.282427 
L 143.014805 256.282427 
L 143.014805 255.755741 
L 143.273169 255.755741 
L 143.273169 255.229055 
L 144.981877 255.229055 
L 144.981877 254.702369 
L 147.96658 254.702369 
L 147.96658 254.175683 
L 148.554206 254.175683 
L 148.554206 253.648997 
L 149.83238 253.648997 
L 149.83238 253.122311 
L 150.505862 253.122311 
L 150.556607 252.068939 
L 150.816462 252.068939 
L 150.816462 251.542253 
L 152.0141 251.542253 
L 152.0141 250.488881 
L 152.161072 250.488881 
L 152.161072 249.962195 
L 152.443774 249.962195 
L 152.443774 249.435508 
L 152.959038 249.435508 
L 153.047115 248.382136 
L 153.430889 248.382136 
L 153.430889 247.85545 
L 153.848404 247.85545 
L 153.848404 247.328764 
L 154.208275 247.328764 
L 154.208275 246.802078 
L 154.46664 246.802078 
L 154.46664 246.275392 
L 154.919633 246.275392 
L 154.985269 245.22202 
L 155.527065 245.22202 
L 155.527065 244.695334 
L 156.058696 244.695334 
L 156.150854 243.115275 
L 156.279062 243.115275 
L 156.279062 242.588589 
L 156.610446 242.588589 
L 156.693802 241.535217 
L 156.964915 241.535217 
L 156.964915 241.008531 
L 157.731474 241.008531 
L 157.80408 239.955159 
L 157.84861 239.955159 
L 157.84861 239.428473 
L 158.003578 239.428473 
L 158.003578 238.901787 
L 158.195371 238.901787 
L 158.238915 237.848415 
L 158.460386 237.848415 
L 158.487203 236.795043 
L 158.75841 236.795043 
L 158.795307 235.74167 
L 159.092886 235.74167 
L 159.139412 234.161612 
L 159.257749 234.161612 
L 159.262876 233.10824 
L 159.39565 233.10824 
L 159.486982 232.054868 
L 159.582872 232.054868 
L 159.582872 231.528182 
L 159.703247 231.528182 
L 159.703247 231.001496 
L 159.872369 231.001496 
L 159.872369 230.47481 
L 160.118135 230.47481 
L 160.186333 228.894751 
L 160.321935 228.894751 
L 160.321935 227.841379 
L 160.509069 227.841379 
L 160.509069 227.314693 
L 160.764907 227.314693 
L 160.764907 226.788007 
L 160.905434 226.788007 
L 160.914762 225.207949 
L 161.077205 225.207949 
L 161.100288 224.154577 
L 161.406689 224.154577 
L 161.406689 223.627891 
L 161.555647 223.627891 
L 161.63189 222.047832 
L 161.681046 222.047832 
L 161.681046 221.521146 
L 161.88953 221.521146 
L 161.946759 220.467774 
L 162.021314 220.467774 
L 162.021314 219.941088 
L 162.156452 219.941088 
L 162.221468 218.36103 
L 162.290551 218.36103 
L 162.290551 217.834344 
L 162.444996 217.834344 
L 162.547205 215.200913 
L 162.657259 215.200913 
L 162.699403 213.094169 
L 162.866969 213.094169 
L 162.866969 212.567483 
L 163.070067 212.567483 
L 163.070067 212.040797 
L 163.404741 212.040797 
L 163.505512 210.460738 
L 163.780654 210.460738 
L 163.780654 209.934052 
L 163.94995 209.934052 
L 163.94995 209.407366 
L 164.13701 209.407366 
L 164.183463 208.353994 
L 164.314412 208.353994 
L 164.314412 207.827308 
L 164.910363 207.827308 
L 164.910363 207.300622 
L 165.10946 207.300622 
L 165.208163 206.24725 
L 165.389484 206.24725 
L 165.389484 205.720564 
L 165.640207 205.720564 
L 165.689922 204.667192 
L 165.841738 204.667192 
L 165.862816 203.613819 
L 166.03749 203.613819 
L 166.03749 203.087133 
L 166.544502 203.087133 
L 166.551253 202.033761 
L 166.772601 202.033761 
L 166.862349 200.980389 
L 166.954935 200.980389 
L 167.06015 199.927017 
L 167.086355 199.927017 
L 167.167992 198.873645 
L 167.252491 198.873645 
L 167.323672 196.240214 
L 167.722684 196.240214 
L 167.807685 195.186842 
L 167.948439 195.186842 
L 168.032349 193.606784 
L 168.128195 193.606784 
L 168.128195 193.080098 
L 168.674545 193.080098 
L 168.707384 192.026726 
L 168.923766 192.026726 
L 168.923766 191.50004 
L 169.192698 191.50004 
L 169.302579 190.446667 
L 169.337135 190.446667 
L 169.337135 189.919981 
L 169.707168 189.919981 
L 169.76902 187.813237 
L 169.936599 187.813237 
L 170.02532 185.706493 
L 170.121846 185.706493 
L 170.121846 185.179807 
L 170.25063 185.179807 
L 170.326903 184.126434 
L 170.427184 184.126434 
L 170.427184 183.599748 
L 170.623359 183.599748 
L 170.623359 183.073062 
L 170.767069 183.073062 
L 170.767069 182.546376 
L 170.917488 182.546376 
L 170.917488 182.01969 
L 171.149789 182.01969 
L 171.229981 180.439632 
L 171.260925 180.439632 
L 171.332914 179.38626 
L 171.379036 179.38626 
L 171.379036 178.859574 
L 171.547114 178.859574 
L 171.648197 177.806202 
L 171.703544 177.806202 
L 171.793735 176.226143 
L 171.898371 176.226143 
L 171.967781 174.119399 
L 172.108232 174.119399 
L 172.157246 173.066027 
L 172.22076 173.066027 
L 172.296186 171.485969 
L 172.458099 171.485969 
L 172.527716 169.379224 
L 172.577957 169.379224 
L 172.637578 166.745794 
L 172.694624 166.745794 
L 172.803442 165.165736 
L 172.857598 165.165736 
L 172.958396 163.058991 
L 172.97942 163.058991 
L 173.08184 160.952247 
L 173.105034 160.952247 
L 173.213633 158.845503 
L 173.241252 158.845503 
L 173.339863 156.738758 
L 173.383259 156.738758 
L 173.417442 155.685386 
L 173.544472 155.685386 
L 173.643636 153.578642 
L 173.684041 153.578642 
L 173.76234 151.471897 
L 173.858056 151.471897 
L 173.968698 149.365153 
L 174.019358 149.365153 
L 174.118053 145.678351 
L 174.335394 145.678351 
L 174.402224 144.098292 
L 174.470942 144.098292 
L 174.577774 139.358118 
L 174.675486 139.358118 
L 174.760009 137.251373 
L 174.793704 137.251373 
L 174.898584 133.564571 
L 174.969543 133.564571 
L 175.054729 129.351082 
L 175.098201 129.351082 
L 175.199215 125.137593 
L 175.215651 125.137593 
L 175.283289 123.030849 
L 175.344551 123.030849 
L 175.409661 119.344047 
L 175.49273 119.344047 
L 175.583449 116.710616 
L 175.633646 116.710616 
L 175.727626 110.390383 
L 175.779398 110.390383 
L 175.882484 106.176895 
L 175.900264 106.176895 
L 175.96727 103.543464 
L 176.03402 103.543464 
L 176.143406 99.329976 
L 176.149247 99.329976 
L 176.182307 97.749917 
L 176.308139 97.749917 
L 176.377442 94.063115 
L 176.456036 94.063115 
L 176.55521 92.483056 
L 176.587511 92.483056 
L 176.691603 89.32294 
L 176.742477 89.32294 
L 176.853131 86.162824 
L 176.860608 86.162824 
L 176.905401 84.582765 
L 177.003912 84.582765 
L 177.07051 80.369277 
L 177.122133 80.369277 
L 177.190115 76.155788 
L 177.241386 76.155788 
L 177.328929 70.362241 
L 177.36346 70.362241 
L 177.46123 66.675439 
L 177.509911 66.675439 
L 177.579988 64.568694 
L 177.631914 64.568694 
L 177.647998 63.515322 
L 177.795631 63.515322 
L 177.875154 58.775147 
L 177.95958 58.775147 
L 178.048838 56.141717 
L 178.10287 56.141717 
L 178.210434 55.088345 
L 178.234632 55.088345 
L 178.336238 52.9816 
L 178.363691 52.9816 
L 178.44579 50.34817 
L 178.5326 50.34817 
L 178.566525 48.768112 
L 178.725096 48.768112 
L 178.798828 46.134681 
L 178.847254 46.134681 
L 178.847254 45.081309 
L 178.980151 45.081309 
L 179.023125 43.501251 
L 179.192336 43.501251 
L 179.262495 41.394507 
L 181.423685 41.394507 
L 181.423685 40.867821 
L 182.103627 40.867821 
L 182.189195 39.814448 
L 182.786012 39.814448 
L 182.786012 39.287762 
L 182.92383 39.287762 
L 182.92383 38.761076 
L 183.085434 38.761076 
L 183.085434 38.23439 
L 183.337316 38.23439 
L 183.337316 37.707704 
L 183.477257 37.707704 
L 183.477257 37.181018 
L 183.743743 37.181018 
L 183.743743 36.654332 
L 183.904198 36.654332 
L 183.904198 36.127646 
L 184.080492 36.127646 
L 184.137221 34.547588 
L 184.209713 34.547588 
L 184.261135 33.494215 
L 184.327027 33.494215 
L 184.327027 32.967529 
L 184.564118 32.967529 
L 184.564118 32.440843 
L 184.70055 32.440843 
L 184.70055 31.914157 
L 184.899683 31.914157 
L 185.003089 30.334099 
L 338.688 30.334099 
L 338.688 30.334099 
" style="fill:none;stroke:#000000;stroke-linecap:square;stroke-width:1.5;"/>
   </g>
   <g id="line2d_43">
    <defs>
     <path d="M 0 6 
C 1.591219 6 3.117479 5.367802 4.242641 4.242641 
C 5.367802 3.117479 6 1.591219 6 0 
C 6 -1.591219 5.367802 -3.117479 4.242641 -4.242641 
C 3.117479 -5.367802 1.591219 -6 0 -6 
C -1.591219 -6 -3.117479 -5.367802 -4.242641 -4.242641 
C -5.367802 -3.117479 -6 -1.591219 -6 0 
C -6 1.591219 -5.367802 3.117479 -4.242641 4.242641 
C -3.117479 5.367802 -1.591219 6 0 6 
z
" id="m39673a6010" style="stroke:#000000;stroke-width:1.5;"/>
    </defs>
    <g>
     <use style="fill-opacity:0;stroke:#000000;stroke-width:1.5;" x="143.273169" xlink:href="#m39673a6010" y="255.755741"/>
     <use style="fill-opacity:0;stroke:#000000;stroke-width:1.5;" x="175.266916" xlink:href="#m39673a6010" y="123.557535"/>
     <use style="fill-opacity:0;stroke:#000000;stroke-width:1.5;" x="185.003089" xlink:href="#m39673a6010" y="31.387471"/>
     <use style="fill-opacity:0;stroke:#000000;stroke-width:1.5;" x="185.003089" xlink:href="#m39673a6010" y="30.334099"/>
     <use style="fill-opacity:0;stroke:#000000;stroke-width:1.5;" x="185.003089" xlink:href="#m39673a6010" y="30.334099"/>
     <use style="fill-opacity:0;stroke:#000000;stroke-width:1.5;" x="338.688" xlink:href="#m39673a6010" y="30.334099"/>
    </g>
   </g>
   <g id="line2d_44">
    <path style="fill:none;stroke:#000000;stroke-linecap:square;stroke-width:1.5;"/>
    <g/>
   </g>
   <g id="line2d_45">
    <path d="M 338.688 30.334099 
L 369.60768 293.571802 
" style="fill:none;stroke:#000000;stroke-linecap:square;stroke-width:1.5;"/>
    <g>
     <use style="fill-opacity:0;stroke:#000000;stroke-width:1.5;" x="338.688" xlink:href="#m39673a6010" y="30.334099"/>
     <use style="fill-opacity:0;stroke:#000000;stroke-width:1.5;" x="369.60768" xlink:href="#m39673a6010" y="293.571802"/>
    </g>
   </g>
   <g id="line2d_46">
    <path d="M 338.688 30.334099 
L 369.60768 207.616634 
" style="fill:none;stroke:#0000ff;stroke-linecap:square;stroke-width:1.5;"/>
    <g>
     <use style="fill-opacity:0;stroke:#0000ff;stroke-linejoin:bevel;stroke-width:1.5;" x="338.688" xlink:href="#m4e656ebc6b" y="30.334099"/>
     <use style="fill-opacity:0;stroke:#0000ff;stroke-linejoin:bevel;stroke-width:1.5;" x="369.60768" xlink:href="#m4e656ebc6b" y="207.616634"/>
    </g>
   </g>
   <g id="line2d_47">
    <path d="M 338.688 30.334099 
L 369.60768 121.661465 
" style="fill:none;stroke:#00bfbf;stroke-linecap:square;stroke-width:1.5;"/>
    <g>
     <use style="fill-opacity:0;stroke:#00bfbf;stroke-width:1.5;" x="338.688" xlink:href="#m60cf23eae6" y="30.334099"/>
     <use style="fill-opacity:0;stroke:#00bfbf;stroke-width:1.5;" x="369.60768" xlink:href="#m60cf23eae6" y="121.661465"/>
    </g>
   </g>
   <g id="line2d_48">
    <path d="M 338.688 30.334099 
L 369.60768 35.706297 
" style="fill:none;stroke:#008000;stroke-linecap:square;stroke-width:1.5;"/>
    <g>
     <use style="fill-opacity:0;stroke:#008000;stroke-linejoin:miter;stroke-width:1.5;" x="338.688" xlink:href="#md561c85676" y="30.334099"/>
     <use style="fill-opacity:0;stroke:#008000;stroke-linejoin:miter;stroke-width:1.5;" x="369.60768" xlink:href="#md561c85676" y="35.706297"/>
    </g>
   </g>
   <g id="line2d_49">
    <path d="M 338.688 298.944 
L 338.688 30.334099 
" style="fill:none;stroke:#000000;stroke-linecap:square;stroke-width:1.5;"/>
   </g>
   <g id="patch_3">
    <path d="M 57.6 298.944 
L 57.6 27.648 
" style="fill:none;stroke:#000000;stroke-linecap:square;stroke-linejoin:miter;stroke-width:0.8;"/>
   </g>
   <g id="patch_4">
    <path d="M 338.688 298.944 
L 338.688 27.648 
" style="fill:none;stroke:#000000;stroke-linecap:square;stroke-linejoin:miter;stroke-width:0.8;"/>
   </g>
   <g id="patch_5">
    <path d="M 57.6 298.944 
L 338.688 298.944 
" style="fill:none;stroke:#000000;stroke-linecap:square;stroke-linejoin:miter;stroke-width:0.8;"/>
   </g>
   <g id="patch_6">
    <path d="M 57.6 27.648 
L 338.688 27.648 
" style="fill:none;stroke:#000000;stroke-linecap:square;stroke-linejoin:miter;stroke-width:0.8;"/>
   </g>
   <g id="text_13">
    <!-- 10-D -->
    <g transform="translate(375.22944 298.262739)scale(0.17 -0.17)">
     <defs>
      <path d="M 19.671875 64.796875 
L 19.671875 8.109375 
L 31.59375 8.109375 
Q 46.6875 8.109375 53.6875 14.9375 
Q 60.6875 21.78125 60.6875 36.53125 
Q 60.6875 51.171875 53.6875 57.984375 
Q 46.6875 64.796875 31.59375 64.796875 
z
M 9.8125 72.90625 
L 30.078125 72.90625 
Q 51.265625 72.90625 61.171875 64.09375 
Q 71.09375 55.28125 71.09375 36.53125 
Q 71.09375 17.671875 61.125 8.828125 
Q 51.171875 0 30.078125 0 
L 9.8125 0 
z
" id="DejaVuSans-68"/>
     </defs>
     <use xlink:href="#DejaVuSans-49"/>
     <use x="63.623047" xlink:href="#DejaVuSans-48"/>
     <use x="127.246094" xlink:href="#DejaVuSans-45"/>
     <use x="163.330078" xlink:href="#DejaVuSans-68"/>
    </g>
   </g>
   <g id="text_14">
    <!-- 5-D -->
    <g transform="translate(375.22944 212.307571)scale(0.17 -0.17)">
     <defs>
      <path d="M 10.796875 72.90625 
L 49.515625 72.90625 
L 49.515625 64.59375 
L 19.828125 64.59375 
L 19.828125 46.734375 
Q 21.96875 47.46875 24.109375 47.828125 
Q 26.265625 48.1875 28.421875 48.1875 
Q 40.625 48.1875 47.75 41.5 
Q 54.890625 34.8125 54.890625 23.390625 
Q 54.890625 11.625 47.5625 5.09375 
Q 40.234375 -1.421875 26.90625 -1.421875 
Q 22.3125 -1.421875 17.546875 -0.640625 
Q 12.796875 0.140625 7.71875 1.703125 
L 7.71875 11.625 
Q 12.109375 9.234375 16.796875 8.0625 
Q 21.484375 6.890625 26.703125 6.890625 
Q 35.15625 6.890625 40.078125 11.328125 
Q 45.015625 15.765625 45.015625 23.390625 
Q 45.015625 31 40.078125 35.4375 
Q 35.15625 39.890625 26.703125 39.890625 
Q 22.75 39.890625 18.8125 39.015625 
Q 14.890625 38.140625 10.796875 36.28125 
z
" id="DejaVuSans-53"/>
     </defs>
     <use xlink:href="#DejaVuSans-53"/>
     <use x="63.623047" xlink:href="#DejaVuSans-45"/>
     <use x="99.707031" xlink:href="#DejaVuSans-68"/>
    </g>
   </g>
   <g id="text_15">
    <!-- 2-D -->
    <g transform="translate(375.22944 126.352403)scale(0.17 -0.17)">
     <use xlink:href="#DejaVuSans-50"/>
     <use x="63.623047" xlink:href="#DejaVuSans-45"/>
     <use x="99.707031" xlink:href="#DejaVuSans-68"/>
    </g>
   </g>
   <g id="text_16">
    <!-- 3-D -->
    <g transform="translate(375.22944 40.397235)scale(0.17 -0.17)">
     <defs>
      <path d="M 40.578125 39.3125 
Q 47.65625 37.796875 51.625 33 
Q 55.609375 28.21875 55.609375 21.1875 
Q 55.609375 10.40625 48.1875 4.484375 
Q 40.765625 -1.421875 27.09375 -1.421875 
Q 22.515625 -1.421875 17.65625 -0.515625 
Q 12.796875 0.390625 7.625 2.203125 
L 7.625 11.71875 
Q 11.71875 9.328125 16.59375 8.109375 
Q 21.484375 6.890625 26.8125 6.890625 
Q 36.078125 6.890625 40.9375 10.546875 
Q 45.796875 14.203125 45.796875 21.1875 
Q 45.796875 27.640625 41.28125 31.265625 
Q 36.765625 34.90625 28.71875 34.90625 
L 20.21875 34.90625 
L 20.21875 43.015625 
L 29.109375 43.015625 
Q 36.375 43.015625 40.234375 45.921875 
Q 44.09375 48.828125 44.09375 54.296875 
Q 44.09375 59.90625 40.109375 62.90625 
Q 36.140625 65.921875 28.71875 65.921875 
Q 24.65625 65.921875 20.015625 65.03125 
Q 15.375 64.15625 9.8125 62.3125 
L 9.8125 71.09375 
Q 15.4375 72.65625 20.34375 73.4375 
Q 25.25 74.21875 29.59375 74.21875 
Q 40.828125 74.21875 47.359375 69.109375 
Q 53.90625 64.015625 53.90625 55.328125 
Q 53.90625 49.265625 50.4375 45.09375 
Q 46.96875 40.921875 40.578125 39.3125 
z
" id="DejaVuSans-51"/>
     </defs>
     <use xlink:href="#DejaVuSans-51"/>
     <use x="63.623047" xlink:href="#DejaVuSans-45"/>
     <use x="99.707031" xlink:href="#DejaVuSans-68"/>
    </g>
   </g>
   <g id="text_17">
    <!-- bbob f9 -->
    <g transform="translate(60.41088 38.111366)scale(0.102 -0.102)">
     <defs>
      <path d="M 48.6875 27.296875 
Q 48.6875 37.203125 44.609375 42.84375 
Q 40.53125 48.484375 33.40625 48.484375 
Q 26.265625 48.484375 22.1875 42.84375 
Q 18.109375 37.203125 18.109375 27.296875 
Q 18.109375 17.390625 22.1875 11.75 
Q 26.265625 6.109375 33.40625 6.109375 
Q 40.53125 6.109375 44.609375 11.75 
Q 48.6875 17.390625 48.6875 27.296875 
z
M 18.109375 46.390625 
Q 20.953125 51.265625 25.265625 53.625 
Q 29.59375 56 35.59375 56 
Q 45.5625 56 51.78125 48.09375 
Q 58.015625 40.1875 58.015625 27.296875 
Q 58.015625 14.40625 51.78125 6.484375 
Q 45.5625 -1.421875 35.59375 -1.421875 
Q 29.59375 -1.421875 25.265625 0.953125 
Q 20.953125 3.328125 18.109375 8.203125 
L 18.109375 0 
L 9.078125 0 
L 9.078125 75.984375 
L 18.109375 75.984375 
z
" id="DejaVuSans-98"/>
      <path d="M 10.984375 1.515625 
L 10.984375 10.5 
Q 14.703125 8.734375 18.5 7.8125 
Q 22.3125 6.890625 25.984375 6.890625 
Q 35.75 6.890625 40.890625 13.453125 
Q 46.046875 20.015625 46.78125 33.40625 
Q 43.953125 29.203125 39.59375 26.953125 
Q 35.25 24.703125 29.984375 24.703125 
Q 19.046875 24.703125 12.671875 31.3125 
Q 6.296875 37.9375 6.296875 49.421875 
Q 6.296875 60.640625 12.9375 67.421875 
Q 19.578125 74.21875 30.609375 74.21875 
Q 43.265625 74.21875 49.921875 64.515625 
Q 56.59375 54.828125 56.59375 36.375 
Q 56.59375 19.140625 48.40625 8.859375 
Q 40.234375 -1.421875 26.421875 -1.421875 
Q 22.703125 -1.421875 18.890625 -0.6875 
Q 15.09375 0.046875 10.984375 1.515625 
z
M 30.609375 32.421875 
Q 37.25 32.421875 41.125 36.953125 
Q 45.015625 41.5 45.015625 49.421875 
Q 45.015625 57.28125 41.125 61.84375 
Q 37.25 66.40625 30.609375 66.40625 
Q 23.96875 66.40625 20.09375 61.84375 
Q 16.21875 57.28125 16.21875 49.421875 
Q 16.21875 41.5 20.09375 36.953125 
Q 23.96875 32.421875 30.609375 32.421875 
z
" id="DejaVuSans-57"/>
     </defs>
     <use xlink:href="#DejaVuSans-98"/>
     <use x="63.476562" xlink:href="#DejaVuSans-98"/>
     <use x="126.953125" xlink:href="#DejaVuSans-111"/>
     <use x="188.134766" xlink:href="#DejaVuSans-98"/>
     <use x="251.611328" xlink:href="#DejaVuSans-32"/>
     <use x="283.398438" xlink:href="#DejaVuSans-102"/>
     <use x="318.603516" xlink:href="#DejaVuSans-57"/>
    </g>
    <!-- 51 targets: 100..1e-08 -->
    <g transform="translate(60.41088 49.533135)scale(0.102 -0.102)">
     <defs>
      <path d="M 11.71875 12.40625 
L 22.015625 12.40625 
L 22.015625 0 
L 11.71875 0 
z
M 11.71875 51.703125 
L 22.015625 51.703125 
L 22.015625 39.3125 
L 11.71875 39.3125 
z
" id="DejaVuSans-58"/>
     </defs>
     <use xlink:href="#DejaVuSans-53"/>
     <use x="63.623047" xlink:href="#DejaVuSans-49"/>
     <use x="127.246094" xlink:href="#DejaVuSans-32"/>
     <use x="159.033203" xlink:href="#DejaVuSans-116"/>
     <use x="198.242188" xlink:href="#DejaVuSans-97"/>
     <use x="259.521484" xlink:href="#DejaVuSans-114"/>
     <use x="298.884766" xlink:href="#DejaVuSans-103"/>
     <use x="362.361328" xlink:href="#DejaVuSans-101"/>
     <use x="423.884766" xlink:href="#DejaVuSans-116"/>
     <use x="463.09375" xlink:href="#DejaVuSans-115"/>
     <use x="515.193359" xlink:href="#DejaVuSans-58"/>
     <use x="548.884766" xlink:href="#DejaVuSans-32"/>
     <use x="580.671875" xlink:href="#DejaVuSans-49"/>
     <use x="644.294922" xlink:href="#DejaVuSans-48"/>
     <use x="707.917969" xlink:href="#DejaVuSans-48"/>
     <use x="771.541016" xlink:href="#DejaVuSans-46"/>
     <use x="803.328125" xlink:href="#DejaVuSans-46"/>
     <use x="835.115234" xlink:href="#DejaVuSans-49"/>
     <use x="898.738281" xlink:href="#DejaVuSans-101"/>
     <use x="960.261719" xlink:href="#DejaVuSans-45"/>
     <use x="996.345703" xlink:href="#DejaVuSans-48"/>
     <use x="1059.96875" xlink:href="#DejaVuSans-56"/>
    </g>
    <!-- 15 instances -->
    <g transform="translate(60.41088 60.954904)scale(0.102 -0.102)">
     <use xlink:href="#DejaVuSans-49"/>
     <use x="63.623047" xlink:href="#DejaVuSans-53"/>
     <use x="127.246094" xlink:href="#DejaVuSans-32"/>
     <use x="159.033203" xlink:href="#DejaVuSans-105"/>
     <use x="186.816406" xlink:href="#DejaVuSans-110"/>
     <use x="250.195312" xlink:href="#DejaVuSans-115"/>
     <use x="302.294922" xlink:href="#DejaVuSans-116"/>
     <use x="341.503906" xlink:href="#DejaVuSans-97"/>
     <use x="402.783203" xlink:href="#DejaVuSans-110"/>
     <use x="466.162109" xlink:href="#DejaVuSans-99"/>
     <use x="521.142578" xlink:href="#DejaVuSans-101"/>
     <use x="582.666016" xlink:href="#DejaVuSans-115"/>
    </g>
   </g>
   <g id="text_18">
    <!-- v2.4 -->
    <g style="fill:#808080;" transform="translate(187.233062 294.151352)scale(0.1 -0.1)">
     <use xlink:href="#DejaVuSans-118"/>
     <use x="59.179688" xlink:href="#DejaVuSans-50"/>
     <use x="122.802734" xlink:href="#DejaVuSans-46"/>
     <use x="154.589844" xlink:href="#DejaVuSans-52"/>
    </g>
   </g>
   <g id="text_19">
    <!-- 9 Rosenbrock rotated -->
    <g transform="translate(90.990875 21.648)scale(0.2 -0.2)">
     <defs>
      <path d="M 44.390625 34.1875 
Q 47.5625 33.109375 50.5625 29.59375 
Q 53.5625 26.078125 56.59375 19.921875 
L 66.609375 0 
L 56 0 
L 46.6875 18.703125 
Q 43.0625 26.03125 39.671875 28.421875 
Q 36.28125 30.8125 30.421875 30.8125 
L 19.671875 30.8125 
L 19.671875 0 
L 9.8125 0 
L 9.8125 72.90625 
L 32.078125 72.90625 
Q 44.578125 72.90625 50.734375 67.671875 
Q 56.890625 62.453125 56.890625 51.90625 
Q 56.890625 45.015625 53.6875 40.46875 
Q 50.484375 35.9375 44.390625 34.1875 
z
M 19.671875 64.796875 
L 19.671875 38.921875 
L 32.078125 38.921875 
Q 39.203125 38.921875 42.84375 42.21875 
Q 46.484375 45.515625 46.484375 51.90625 
Q 46.484375 58.296875 42.84375 61.546875 
Q 39.203125 64.796875 32.078125 64.796875 
z
" id="DejaVuSans-82"/>
      <path d="M 9.078125 75.984375 
L 18.109375 75.984375 
L 18.109375 31.109375 
L 44.921875 54.6875 
L 56.390625 54.6875 
L 27.390625 29.109375 
L 57.625 0 
L 45.90625 0 
L 18.109375 26.703125 
L 18.109375 0 
L 9.078125 0 
z
" id="DejaVuSans-107"/>
     </defs>
     <use xlink:href="#DejaVuSans-57"/>
     <use x="63.623047" xlink:href="#DejaVuSans-32"/>
     <use x="95.410156" xlink:href="#DejaVuSans-82"/>
     <use x="160.392578" xlink:href="#DejaVuSans-111"/>
     <use x="221.574219" xlink:href="#DejaVuSans-115"/>
     <use x="273.673828" xlink:href="#DejaVuSans-101"/>
     <use x="335.197266" xlink:href="#DejaVuSans-110"/>
     <use x="398.576172" xlink:href="#DejaVuSans-98"/>
     <use x="462.052734" xlink:href="#DejaVuSans-114"/>
     <use x="500.916016" xlink:href="#DejaVuSans-111"/>
     <use x="562.097656" xlink:href="#DejaVuSans-99"/>
     <use x="617.078125" xlink:href="#DejaVuSans-107"/>
     <use x="674.988281" xlink:href="#DejaVuSans-32"/>
     <use x="706.775391" xlink:href="#DejaVuSans-114"/>
     <use x="745.638672" xlink:href="#DejaVuSans-111"/>
     <use x="806.820312" xlink:href="#DejaVuSans-116"/>
     <use x="846.029297" xlink:href="#DejaVuSans-97"/>
     <use x="907.308594" xlink:href="#DejaVuSans-116"/>
     <use x="946.517578" xlink:href="#DejaVuSans-101"/>
     <use x="1008.041016" xlink:href="#DejaVuSans-100"/>
    </g>
   </g>
  </g>
 </g>
 <defs>
  <clipPath id="p4b3b2d597e">
   <rect height="271.296" width="281.088" x="57.6" y="27.648"/>
  </clipPath>
 </defs>
</svg>
