<?xml version="1.0" encoding="utf-8" standalone="no"?>
<!DOCTYPE svg PUBLIC "-//W3C//DTD SVG 1.1//EN"
  "http://www.w3.org/Graphics/SVG/1.1/DTD/svg11.dtd">
<!-- Created with matplotlib (https://matplotlib.org/) -->
<svg height="345.6pt" version="1.1" viewBox="0 0 460.8 345.6" width="460.8pt" xmlns="http://www.w3.org/2000/svg" xmlns:xlink="http://www.w3.org/1999/xlink">
 <metadata>
  <rdf:RDF xmlns:cc="http://creativecommons.org/ns#" xmlns:dc="http://purl.org/dc/elements/1.1/" xmlns:rdf="http://www.w3.org/1999/02/22-rdf-syntax-ns#">
   <cc:Work>
    <dc:type rdf:resource="http://purl.org/dc/dcmitype/StillImage"/>
    <dc:date>2021-06-17T01:38:48.666770</dc:date>
    <dc:format>image/svg+xml</dc:format>
    <dc:creator>
     <cc:Agent>
      <dc:title>Matplotlib v3.3.4, https://matplotlib.org/</dc:title>
     </cc:Agent>
    </dc:creator>
   </cc:Work>
  </rdf:RDF>
 </metadata>
 <defs>
  <style type="text/css">*{stroke-linecap:butt;stroke-linejoin:round;}</style>
 </defs>
 <g id="figure_1">
  <g id="patch_1">
   <path d="M 0 345.6 
L 460.8 345.6 
L 460.8 0 
L 0 0 
z
" style="fill:#ffffff;"/>
  </g>
  <g id="axes_1">
   <g id="patch_2">
    <path d="M 57.6 298.944 
L 338.688 298.944 
L 338.688 27.648 
L 57.6 27.648 
z
" style="fill:#ffffff;"/>
   </g>
   <g id="matplotlib.axis_1">
    <g id="xtick_1">
     <g id="line2d_1">
      <path clip-path="url(#p51cac918fe)" d="M 57.6 298.944 
L 57.6 27.648 
" style="fill:none;stroke:#b0b0b0;stroke-linecap:square;stroke-width:0.8;"/>
     </g>
     <g id="line2d_2">
      <defs>
       <path d="M 0 0 
L 0 3.5 
" id="m18a5e107ed" style="stroke:#000000;stroke-width:0.8;"/>
      </defs>
      <g>
       <use style="stroke:#000000;stroke-width:0.8;" x="57.6" xlink:href="#m18a5e107ed" y="298.944"/>
      </g>
     </g>
     <g id="text_1">
      <!-- 0 -->
      <g transform="translate(51.2375 321.140875)scale(0.2 -0.2)">
       <defs>
        <path d="M 31.78125 66.40625 
Q 24.171875 66.40625 20.328125 58.90625 
Q 16.5 51.421875 16.5 36.375 
Q 16.5 21.390625 20.328125 13.890625 
Q 24.171875 6.390625 31.78125 6.390625 
Q 39.453125 6.390625 43.28125 13.890625 
Q 47.125 21.390625 47.125 36.375 
Q 47.125 51.421875 43.28125 58.90625 
Q 39.453125 66.40625 31.78125 66.40625 
z
M 31.78125 74.21875 
Q 44.046875 74.21875 50.515625 64.515625 
Q 56.984375 54.828125 56.984375 36.375 
Q 56.984375 17.96875 50.515625 8.265625 
Q 44.046875 -1.421875 31.78125 -1.421875 
Q 19.53125 -1.421875 13.0625 8.265625 
Q 6.59375 17.96875 6.59375 36.375 
Q 6.59375 54.828125 13.0625 64.515625 
Q 19.53125 74.21875 31.78125 74.21875 
z
" id="DejaVuSans-48"/>
       </defs>
       <use xlink:href="#DejaVuSans-48"/>
      </g>
     </g>
    </g>
    <g id="xtick_2">
     <g id="line2d_3">
      <path clip-path="url(#p51cac918fe)" d="M 137.910857 298.944 
L 137.910857 27.648 
" style="fill:none;stroke:#b0b0b0;stroke-linecap:square;stroke-width:0.8;"/>
     </g>
     <g id="line2d_4">
      <g>
       <use style="stroke:#000000;stroke-width:0.8;" x="137.910857" xlink:href="#m18a5e107ed" y="298.944"/>
      </g>
     </g>
     <g id="text_2">
      <!-- 2 -->
      <g transform="translate(131.548357 321.140875)scale(0.2 -0.2)">
       <defs>
        <path d="M 19.1875 8.296875 
L 53.609375 8.296875 
L 53.609375 0 
L 7.328125 0 
L 7.328125 8.296875 
Q 12.9375 14.109375 22.625 23.890625 
Q 32.328125 33.6875 34.8125 36.53125 
Q 39.546875 41.84375 41.421875 45.53125 
Q 43.3125 49.21875 43.3125 52.78125 
Q 43.3125 58.59375 39.234375 62.25 
Q 35.15625 65.921875 28.609375 65.921875 
Q 23.96875 65.921875 18.8125 64.3125 
Q 13.671875 62.703125 7.8125 59.421875 
L 7.8125 69.390625 
Q 13.765625 71.78125 18.9375 73 
Q 24.125 74.21875 28.421875 74.21875 
Q 39.75 74.21875 46.484375 68.546875 
Q 53.21875 62.890625 53.21875 53.421875 
Q 53.21875 48.921875 51.53125 44.890625 
Q 49.859375 40.875 45.40625 35.40625 
Q 44.1875 33.984375 37.640625 27.21875 
Q 31.109375 20.453125 19.1875 8.296875 
z
" id="DejaVuSans-50"/>
       </defs>
       <use xlink:href="#DejaVuSans-50"/>
      </g>
     </g>
    </g>
    <g id="xtick_3">
     <g id="line2d_5">
      <path clip-path="url(#p51cac918fe)" d="M 218.221714 298.944 
L 218.221714 27.648 
" style="fill:none;stroke:#b0b0b0;stroke-linecap:square;stroke-width:0.8;"/>
     </g>
     <g id="line2d_6">
      <g>
       <use style="stroke:#000000;stroke-width:0.8;" x="218.221714" xlink:href="#m18a5e107ed" y="298.944"/>
      </g>
     </g>
     <g id="text_3">
      <!-- 4 -->
      <g transform="translate(211.859214 321.140875)scale(0.2 -0.2)">
       <defs>
        <path d="M 37.796875 64.3125 
L 12.890625 25.390625 
L 37.796875 25.390625 
z
M 35.203125 72.90625 
L 47.609375 72.90625 
L 47.609375 25.390625 
L 58.015625 25.390625 
L 58.015625 17.1875 
L 47.609375 17.1875 
L 47.609375 0 
L 37.796875 0 
L 37.796875 17.1875 
L 4.890625 17.1875 
L 4.890625 26.703125 
z
" id="DejaVuSans-52"/>
       </defs>
       <use xlink:href="#DejaVuSans-52"/>
      </g>
     </g>
    </g>
    <g id="xtick_4">
     <g id="line2d_7">
      <path clip-path="url(#p51cac918fe)" d="M 298.532571 298.944 
L 298.532571 27.648 
" style="fill:none;stroke:#b0b0b0;stroke-linecap:square;stroke-width:0.8;"/>
     </g>
     <g id="line2d_8">
      <g>
       <use style="stroke:#000000;stroke-width:0.8;" x="298.532571" xlink:href="#m18a5e107ed" y="298.944"/>
      </g>
     </g>
     <g id="text_4">
      <!-- 6 -->
      <g transform="translate(292.170071 321.140875)scale(0.2 -0.2)">
       <defs>
        <path d="M 33.015625 40.375 
Q 26.375 40.375 22.484375 35.828125 
Q 18.609375 31.296875 18.609375 23.390625 
Q 18.609375 15.53125 22.484375 10.953125 
Q 26.375 6.390625 33.015625 6.390625 
Q 39.65625 6.390625 43.53125 10.953125 
Q 47.40625 15.53125 47.40625 23.390625 
Q 47.40625 31.296875 43.53125 35.828125 
Q 39.65625 40.375 33.015625 40.375 
z
M 52.59375 71.296875 
L 52.59375 62.3125 
Q 48.875 64.0625 45.09375 64.984375 
Q 41.3125 65.921875 37.59375 65.921875 
Q 27.828125 65.921875 22.671875 59.328125 
Q 17.53125 52.734375 16.796875 39.40625 
Q 19.671875 43.65625 24.015625 45.921875 
Q 28.375 48.1875 33.59375 48.1875 
Q 44.578125 48.1875 50.953125 41.515625 
Q 57.328125 34.859375 57.328125 23.390625 
Q 57.328125 12.15625 50.6875 5.359375 
Q 44.046875 -1.421875 33.015625 -1.421875 
Q 20.359375 -1.421875 13.671875 8.265625 
Q 6.984375 17.96875 6.984375 36.375 
Q 6.984375 53.65625 15.1875 63.9375 
Q 23.390625 74.21875 37.203125 74.21875 
Q 40.921875 74.21875 44.703125 73.484375 
Q 48.484375 72.75 52.59375 71.296875 
z
" id="DejaVuSans-54"/>
       </defs>
       <use xlink:href="#DejaVuSans-54"/>
      </g>
     </g>
    </g>
    <g id="xtick_5">
     <g id="line2d_9">
      <path clip-path="url(#p51cac918fe)" d="M 97.755429 298.944 
L 97.755429 27.648 
" style="fill:none;stroke:#b0b0b0;stroke-linecap:square;stroke-width:0.8;"/>
     </g>
     <g id="line2d_10">
      <defs>
       <path d="M 0 0 
L 0 2 
" id="m96be959765" style="stroke:#000000;stroke-width:0.6;"/>
      </defs>
      <g>
       <use style="stroke:#000000;stroke-width:0.6;" x="97.755429" xlink:href="#m96be959765" y="298.944"/>
      </g>
     </g>
    </g>
    <g id="xtick_6">
     <g id="line2d_11">
      <path clip-path="url(#p51cac918fe)" d="M 178.066286 298.944 
L 178.066286 27.648 
" style="fill:none;stroke:#b0b0b0;stroke-linecap:square;stroke-width:0.8;"/>
     </g>
     <g id="line2d_12">
      <g>
       <use style="stroke:#000000;stroke-width:0.6;" x="178.066286" xlink:href="#m96be959765" y="298.944"/>
      </g>
     </g>
    </g>
    <g id="xtick_7">
     <g id="line2d_13">
      <path clip-path="url(#p51cac918fe)" d="M 258.377143 298.944 
L 258.377143 27.648 
" style="fill:none;stroke:#b0b0b0;stroke-linecap:square;stroke-width:0.8;"/>
     </g>
     <g id="line2d_14">
      <g>
       <use style="stroke:#000000;stroke-width:0.6;" x="258.377143" xlink:href="#m96be959765" y="298.944"/>
      </g>
     </g>
    </g>
    <g id="xtick_8">
     <g id="line2d_15">
      <path clip-path="url(#p51cac918fe)" d="M 338.688 298.944 
L 338.688 27.648 
" style="fill:none;stroke:#b0b0b0;stroke-linecap:square;stroke-width:0.8;"/>
     </g>
     <g id="line2d_16">
      <g>
       <use style="stroke:#000000;stroke-width:0.6;" x="338.688" xlink:href="#m96be959765" y="298.944"/>
      </g>
     </g>
    </g>
    <g id="text_5">
     <!-- log10(# f-evals / dimension) -->
     <g transform="translate(77.764078 342.217594)scale(0.17 -0.17)">
      <defs>
       <path d="M 9.421875 75.984375 
L 18.40625 75.984375 
L 18.40625 0 
L 9.421875 0 
z
" id="DejaVuSans-108"/>
       <path d="M 30.609375 48.390625 
Q 23.390625 48.390625 19.1875 42.75 
Q 14.984375 37.109375 14.984375 27.296875 
Q 14.984375 17.484375 19.15625 11.84375 
Q 23.34375 6.203125 30.609375 6.203125 
Q 37.796875 6.203125 41.984375 11.859375 
Q 46.1875 17.53125 46.1875 27.296875 
Q 46.1875 37.015625 41.984375 42.703125 
Q 37.796875 48.390625 30.609375 48.390625 
z
M 30.609375 56 
Q 42.328125 56 49.015625 48.375 
Q 55.71875 40.765625 55.71875 27.296875 
Q 55.71875 13.875 49.015625 6.21875 
Q 42.328125 -1.421875 30.609375 -1.421875 
Q 18.84375 -1.421875 12.171875 6.21875 
Q 5.515625 13.875 5.515625 27.296875 
Q 5.515625 40.765625 12.171875 48.375 
Q 18.84375 56 30.609375 56 
z
" id="DejaVuSans-111"/>
       <path d="M 45.40625 27.984375 
Q 45.40625 37.75 41.375 43.109375 
Q 37.359375 48.484375 30.078125 48.484375 
Q 22.859375 48.484375 18.828125 43.109375 
Q 14.796875 37.75 14.796875 27.984375 
Q 14.796875 18.265625 18.828125 12.890625 
Q 22.859375 7.515625 30.078125 7.515625 
Q 37.359375 7.515625 41.375 12.890625 
Q 45.40625 18.265625 45.40625 27.984375 
z
M 54.390625 6.78125 
Q 54.390625 -7.171875 48.1875 -13.984375 
Q 42 -20.796875 29.203125 -20.796875 
Q 24.46875 -20.796875 20.265625 -20.09375 
Q 16.0625 -19.390625 12.109375 -17.921875 
L 12.109375 -9.1875 
Q 16.0625 -11.328125 19.921875 -12.34375 
Q 23.78125 -13.375 27.78125 -13.375 
Q 36.625 -13.375 41.015625 -8.765625 
Q 45.40625 -4.15625 45.40625 5.171875 
L 45.40625 9.625 
Q 42.625 4.78125 38.28125 2.390625 
Q 33.9375 0 27.875 0 
Q 17.828125 0 11.671875 7.65625 
Q 5.515625 15.328125 5.515625 27.984375 
Q 5.515625 40.671875 11.671875 48.328125 
Q 17.828125 56 27.875 56 
Q 33.9375 56 38.28125 53.609375 
Q 42.625 51.21875 45.40625 46.390625 
L 45.40625 54.6875 
L 54.390625 54.6875 
z
" id="DejaVuSans-103"/>
       <path d="M 12.40625 8.296875 
L 28.515625 8.296875 
L 28.515625 63.921875 
L 10.984375 60.40625 
L 10.984375 69.390625 
L 28.421875 72.90625 
L 38.28125 72.90625 
L 38.28125 8.296875 
L 54.390625 8.296875 
L 54.390625 0 
L 12.40625 0 
z
" id="DejaVuSans-49"/>
       <path d="M 31 75.875 
Q 24.46875 64.65625 21.28125 53.65625 
Q 18.109375 42.671875 18.109375 31.390625 
Q 18.109375 20.125 21.3125 9.0625 
Q 24.515625 -2 31 -13.1875 
L 23.1875 -13.1875 
Q 15.875 -1.703125 12.234375 9.375 
Q 8.59375 20.453125 8.59375 31.390625 
Q 8.59375 42.28125 12.203125 53.3125 
Q 15.828125 64.359375 23.1875 75.875 
z
" id="DejaVuSans-40"/>
       <path d="M 51.125 44 
L 36.921875 44 
L 32.8125 27.6875 
L 47.125 27.6875 
z
M 43.796875 71.78125 
L 38.71875 51.515625 
L 52.984375 51.515625 
L 58.109375 71.78125 
L 65.921875 71.78125 
L 60.890625 51.515625 
L 76.125 51.515625 
L 76.125 44 
L 58.984375 44 
L 54.984375 27.6875 
L 70.515625 27.6875 
L 70.515625 20.21875 
L 53.078125 20.21875 
L 48 0 
L 40.1875 0 
L 45.21875 20.21875 
L 30.90625 20.21875 
L 25.875 0 
L 18.015625 0 
L 23.09375 20.21875 
L 7.71875 20.21875 
L 7.71875 27.6875 
L 24.90625 27.6875 
L 29 44 
L 13.28125 44 
L 13.28125 51.515625 
L 30.90625 51.515625 
L 35.890625 71.78125 
z
" id="DejaVuSans-35"/>
       <path id="DejaVuSans-32"/>
       <path d="M 37.109375 75.984375 
L 37.109375 68.5 
L 28.515625 68.5 
Q 23.6875 68.5 21.796875 66.546875 
Q 19.921875 64.59375 19.921875 59.515625 
L 19.921875 54.6875 
L 34.71875 54.6875 
L 34.71875 47.703125 
L 19.921875 47.703125 
L 19.921875 0 
L 10.890625 0 
L 10.890625 47.703125 
L 2.296875 47.703125 
L 2.296875 54.6875 
L 10.890625 54.6875 
L 10.890625 58.5 
Q 10.890625 67.625 15.140625 71.796875 
Q 19.390625 75.984375 28.609375 75.984375 
z
" id="DejaVuSans-102"/>
       <path d="M 4.890625 31.390625 
L 31.203125 31.390625 
L 31.203125 23.390625 
L 4.890625 23.390625 
z
" id="DejaVuSans-45"/>
       <path d="M 56.203125 29.59375 
L 56.203125 25.203125 
L 14.890625 25.203125 
Q 15.484375 15.921875 20.484375 11.0625 
Q 25.484375 6.203125 34.421875 6.203125 
Q 39.59375 6.203125 44.453125 7.46875 
Q 49.3125 8.734375 54.109375 11.28125 
L 54.109375 2.78125 
Q 49.265625 0.734375 44.1875 -0.34375 
Q 39.109375 -1.421875 33.890625 -1.421875 
Q 20.796875 -1.421875 13.15625 6.1875 
Q 5.515625 13.8125 5.515625 26.8125 
Q 5.515625 40.234375 12.765625 48.109375 
Q 20.015625 56 32.328125 56 
Q 43.359375 56 49.78125 48.890625 
Q 56.203125 41.796875 56.203125 29.59375 
z
M 47.21875 32.234375 
Q 47.125 39.59375 43.09375 43.984375 
Q 39.0625 48.390625 32.421875 48.390625 
Q 24.90625 48.390625 20.390625 44.140625 
Q 15.875 39.890625 15.1875 32.171875 
z
" id="DejaVuSans-101"/>
       <path d="M 2.984375 54.6875 
L 12.5 54.6875 
L 29.59375 8.796875 
L 46.6875 54.6875 
L 56.203125 54.6875 
L 35.6875 0 
L 23.484375 0 
z
" id="DejaVuSans-118"/>
       <path d="M 34.28125 27.484375 
Q 23.390625 27.484375 19.1875 25 
Q 14.984375 22.515625 14.984375 16.5 
Q 14.984375 11.71875 18.140625 8.90625 
Q 21.296875 6.109375 26.703125 6.109375 
Q 34.1875 6.109375 38.703125 11.40625 
Q 43.21875 16.703125 43.21875 25.484375 
L 43.21875 27.484375 
z
M 52.203125 31.203125 
L 52.203125 0 
L 43.21875 0 
L 43.21875 8.296875 
Q 40.140625 3.328125 35.546875 0.953125 
Q 30.953125 -1.421875 24.3125 -1.421875 
Q 15.921875 -1.421875 10.953125 3.296875 
Q 6 8.015625 6 15.921875 
Q 6 25.140625 12.171875 29.828125 
Q 18.359375 34.515625 30.609375 34.515625 
L 43.21875 34.515625 
L 43.21875 35.40625 
Q 43.21875 41.609375 39.140625 45 
Q 35.0625 48.390625 27.6875 48.390625 
Q 23 48.390625 18.546875 47.265625 
Q 14.109375 46.140625 10.015625 43.890625 
L 10.015625 52.203125 
Q 14.9375 54.109375 19.578125 55.046875 
Q 24.21875 56 28.609375 56 
Q 40.484375 56 46.34375 49.84375 
Q 52.203125 43.703125 52.203125 31.203125 
z
" id="DejaVuSans-97"/>
       <path d="M 44.28125 53.078125 
L 44.28125 44.578125 
Q 40.484375 46.53125 36.375 47.5 
Q 32.28125 48.484375 27.875 48.484375 
Q 21.1875 48.484375 17.84375 46.4375 
Q 14.5 44.390625 14.5 40.28125 
Q 14.5 37.15625 16.890625 35.375 
Q 19.28125 33.59375 26.515625 31.984375 
L 29.59375 31.296875 
Q 39.15625 29.25 43.1875 25.515625 
Q 47.21875 21.78125 47.21875 15.09375 
Q 47.21875 7.46875 41.1875 3.015625 
Q 35.15625 -1.421875 24.609375 -1.421875 
Q 20.21875 -1.421875 15.453125 -0.5625 
Q 10.6875 0.296875 5.421875 2 
L 5.421875 11.28125 
Q 10.40625 8.6875 15.234375 7.390625 
Q 20.0625 6.109375 24.8125 6.109375 
Q 31.15625 6.109375 34.5625 8.28125 
Q 37.984375 10.453125 37.984375 14.40625 
Q 37.984375 18.0625 35.515625 20.015625 
Q 33.0625 21.96875 24.703125 23.78125 
L 21.578125 24.515625 
Q 13.234375 26.265625 9.515625 29.90625 
Q 5.8125 33.546875 5.8125 39.890625 
Q 5.8125 47.609375 11.28125 51.796875 
Q 16.75 56 26.8125 56 
Q 31.78125 56 36.171875 55.265625 
Q 40.578125 54.546875 44.28125 53.078125 
z
" id="DejaVuSans-115"/>
       <path d="M 25.390625 72.90625 
L 33.6875 72.90625 
L 8.296875 -9.28125 
L 0 -9.28125 
z
" id="DejaVuSans-47"/>
       <path d="M 45.40625 46.390625 
L 45.40625 75.984375 
L 54.390625 75.984375 
L 54.390625 0 
L 45.40625 0 
L 45.40625 8.203125 
Q 42.578125 3.328125 38.25 0.953125 
Q 33.9375 -1.421875 27.875 -1.421875 
Q 17.96875 -1.421875 11.734375 6.484375 
Q 5.515625 14.40625 5.515625 27.296875 
Q 5.515625 40.1875 11.734375 48.09375 
Q 17.96875 56 27.875 56 
Q 33.9375 56 38.25 53.625 
Q 42.578125 51.265625 45.40625 46.390625 
z
M 14.796875 27.296875 
Q 14.796875 17.390625 18.875 11.75 
Q 22.953125 6.109375 30.078125 6.109375 
Q 37.203125 6.109375 41.296875 11.75 
Q 45.40625 17.390625 45.40625 27.296875 
Q 45.40625 37.203125 41.296875 42.84375 
Q 37.203125 48.484375 30.078125 48.484375 
Q 22.953125 48.484375 18.875 42.84375 
Q 14.796875 37.203125 14.796875 27.296875 
z
" id="DejaVuSans-100"/>
       <path d="M 9.421875 54.6875 
L 18.40625 54.6875 
L 18.40625 0 
L 9.421875 0 
z
M 9.421875 75.984375 
L 18.40625 75.984375 
L 18.40625 64.59375 
L 9.421875 64.59375 
z
" id="DejaVuSans-105"/>
       <path d="M 52 44.1875 
Q 55.375 50.25 60.0625 53.125 
Q 64.75 56 71.09375 56 
Q 79.640625 56 84.28125 50.015625 
Q 88.921875 44.046875 88.921875 33.015625 
L 88.921875 0 
L 79.890625 0 
L 79.890625 32.71875 
Q 79.890625 40.578125 77.09375 44.375 
Q 74.3125 48.1875 68.609375 48.1875 
Q 61.625 48.1875 57.5625 43.546875 
Q 53.515625 38.921875 53.515625 30.90625 
L 53.515625 0 
L 44.484375 0 
L 44.484375 32.71875 
Q 44.484375 40.625 41.703125 44.40625 
Q 38.921875 48.1875 33.109375 48.1875 
Q 26.21875 48.1875 22.15625 43.53125 
Q 18.109375 38.875 18.109375 30.90625 
L 18.109375 0 
L 9.078125 0 
L 9.078125 54.6875 
L 18.109375 54.6875 
L 18.109375 46.1875 
Q 21.1875 51.21875 25.484375 53.609375 
Q 29.78125 56 35.6875 56 
Q 41.65625 56 45.828125 52.96875 
Q 50 49.953125 52 44.1875 
z
" id="DejaVuSans-109"/>
       <path d="M 54.890625 33.015625 
L 54.890625 0 
L 45.90625 0 
L 45.90625 32.71875 
Q 45.90625 40.484375 42.875 44.328125 
Q 39.84375 48.1875 33.796875 48.1875 
Q 26.515625 48.1875 22.3125 43.546875 
Q 18.109375 38.921875 18.109375 30.90625 
L 18.109375 0 
L 9.078125 0 
L 9.078125 54.6875 
L 18.109375 54.6875 
L 18.109375 46.1875 
Q 21.34375 51.125 25.703125 53.5625 
Q 30.078125 56 35.796875 56 
Q 45.21875 56 50.046875 50.171875 
Q 54.890625 44.34375 54.890625 33.015625 
z
" id="DejaVuSans-110"/>
       <path d="M 8.015625 75.875 
L 15.828125 75.875 
Q 23.140625 64.359375 26.78125 53.3125 
Q 30.421875 42.28125 30.421875 31.390625 
Q 30.421875 20.453125 26.78125 9.375 
Q 23.140625 -1.703125 15.828125 -13.1875 
L 8.015625 -13.1875 
Q 14.5 -2 17.703125 9.0625 
Q 20.90625 20.125 20.90625 31.390625 
Q 20.90625 42.671875 17.703125 53.65625 
Q 14.5 64.65625 8.015625 75.875 
z
" id="DejaVuSans-41"/>
      </defs>
      <use xlink:href="#DejaVuSans-108"/>
      <use x="27.783203" xlink:href="#DejaVuSans-111"/>
      <use x="88.964844" xlink:href="#DejaVuSans-103"/>
      <use x="152.441406" xlink:href="#DejaVuSans-49"/>
      <use x="216.064453" xlink:href="#DejaVuSans-48"/>
      <use x="279.6875" xlink:href="#DejaVuSans-40"/>
      <use x="318.701172" xlink:href="#DejaVuSans-35"/>
      <use x="402.490234" xlink:href="#DejaVuSans-32"/>
      <use x="434.277344" xlink:href="#DejaVuSans-102"/>
      <use x="463.982422" xlink:href="#DejaVuSans-45"/>
      <use x="500.066406" xlink:href="#DejaVuSans-101"/>
      <use x="561.589844" xlink:href="#DejaVuSans-118"/>
      <use x="620.769531" xlink:href="#DejaVuSans-97"/>
      <use x="682.048828" xlink:href="#DejaVuSans-108"/>
      <use x="709.832031" xlink:href="#DejaVuSans-115"/>
      <use x="761.931641" xlink:href="#DejaVuSans-32"/>
      <use x="793.71875" xlink:href="#DejaVuSans-47"/>
      <use x="827.410156" xlink:href="#DejaVuSans-32"/>
      <use x="859.197266" xlink:href="#DejaVuSans-100"/>
      <use x="922.673828" xlink:href="#DejaVuSans-105"/>
      <use x="950.457031" xlink:href="#DejaVuSans-109"/>
      <use x="1047.869141" xlink:href="#DejaVuSans-101"/>
      <use x="1109.392578" xlink:href="#DejaVuSans-110"/>
      <use x="1172.771484" xlink:href="#DejaVuSans-115"/>
      <use x="1224.871094" xlink:href="#DejaVuSans-105"/>
      <use x="1252.654297" xlink:href="#DejaVuSans-111"/>
      <use x="1313.835938" xlink:href="#DejaVuSans-110"/>
      <use x="1377.214844" xlink:href="#DejaVuSans-41"/>
     </g>
    </g>
   </g>
   <g id="matplotlib.axis_2">
    <g id="ytick_1">
     <g id="line2d_17">
      <path clip-path="url(#p51cac918fe)" d="M 57.6 298.944 
L 338.688 298.944 
" style="fill:none;stroke:#b0b0b0;stroke-linecap:square;stroke-width:0.8;"/>
     </g>
     <g id="line2d_18">
      <defs>
       <path d="M 0 0 
L -3.5 0 
" id="m6622322435" style="stroke:#000000;stroke-width:0.8;"/>
      </defs>
      <g>
       <use style="stroke:#000000;stroke-width:0.8;" x="57.6" xlink:href="#m6622322435" y="298.944"/>
      </g>
     </g>
     <g id="text_6">
      <!-- 0.0 -->
      <g transform="translate(25.155 305.02275)scale(0.16 -0.16)">
       <defs>
        <path d="M 10.6875 12.40625 
L 21 12.40625 
L 21 0 
L 10.6875 0 
z
" id="DejaVuSans-46"/>
       </defs>
       <use xlink:href="#DejaVuSans-48"/>
       <use x="63.623047" xlink:href="#DejaVuSans-46"/>
       <use x="95.410156" xlink:href="#DejaVuSans-48"/>
      </g>
     </g>
    </g>
    <g id="ytick_2">
     <g id="line2d_19">
      <path clip-path="url(#p51cac918fe)" d="M 57.6 245.22202 
L 338.688 245.22202 
" style="fill:none;stroke:#b0b0b0;stroke-linecap:square;stroke-width:0.8;"/>
     </g>
     <g id="line2d_20">
      <g>
       <use style="stroke:#000000;stroke-width:0.8;" x="57.6" xlink:href="#m6622322435" y="245.22202"/>
      </g>
     </g>
     <g id="text_7">
      <!-- 0.2 -->
      <g transform="translate(25.155 251.30077)scale(0.16 -0.16)">
       <use xlink:href="#DejaVuSans-48"/>
       <use x="63.623047" xlink:href="#DejaVuSans-46"/>
       <use x="95.410156" xlink:href="#DejaVuSans-50"/>
      </g>
     </g>
    </g>
    <g id="ytick_3">
     <g id="line2d_21">
      <path clip-path="url(#p51cac918fe)" d="M 57.6 191.50004 
L 338.688 191.50004 
" style="fill:none;stroke:#b0b0b0;stroke-linecap:square;stroke-width:0.8;"/>
     </g>
     <g id="line2d_22">
      <g>
       <use style="stroke:#000000;stroke-width:0.8;" x="57.6" xlink:href="#m6622322435" y="191.50004"/>
      </g>
     </g>
     <g id="text_8">
      <!-- 0.4 -->
      <g transform="translate(25.155 197.57879)scale(0.16 -0.16)">
       <use xlink:href="#DejaVuSans-48"/>
       <use x="63.623047" xlink:href="#DejaVuSans-46"/>
       <use x="95.410156" xlink:href="#DejaVuSans-52"/>
      </g>
     </g>
    </g>
    <g id="ytick_4">
     <g id="line2d_23">
      <path clip-path="url(#p51cac918fe)" d="M 57.6 137.778059 
L 338.688 137.778059 
" style="fill:none;stroke:#b0b0b0;stroke-linecap:square;stroke-width:0.8;"/>
     </g>
     <g id="line2d_24">
      <g>
       <use style="stroke:#000000;stroke-width:0.8;" x="57.6" xlink:href="#m6622322435" y="137.778059"/>
      </g>
     </g>
     <g id="text_9">
      <!-- 0.6 -->
      <g transform="translate(25.155 143.856809)scale(0.16 -0.16)">
       <use xlink:href="#DejaVuSans-48"/>
       <use x="63.623047" xlink:href="#DejaVuSans-46"/>
       <use x="95.410156" xlink:href="#DejaVuSans-54"/>
      </g>
     </g>
    </g>
    <g id="ytick_5">
     <g id="line2d_25">
      <path clip-path="url(#p51cac918fe)" d="M 57.6 84.056079 
L 338.688 84.056079 
" style="fill:none;stroke:#b0b0b0;stroke-linecap:square;stroke-width:0.8;"/>
     </g>
     <g id="line2d_26">
      <g>
       <use style="stroke:#000000;stroke-width:0.8;" x="57.6" xlink:href="#m6622322435" y="84.056079"/>
      </g>
     </g>
     <g id="text_10">
      <!-- 0.8 -->
      <g transform="translate(25.155 90.134829)scale(0.16 -0.16)">
       <defs>
        <path d="M 31.78125 34.625 
Q 24.75 34.625 20.71875 30.859375 
Q 16.703125 27.09375 16.703125 20.515625 
Q 16.703125 13.921875 20.71875 10.15625 
Q 24.75 6.390625 31.78125 6.390625 
Q 38.8125 6.390625 42.859375 10.171875 
Q 46.921875 13.96875 46.921875 20.515625 
Q 46.921875 27.09375 42.890625 30.859375 
Q 38.875 34.625 31.78125 34.625 
z
M 21.921875 38.8125 
Q 15.578125 40.375 12.03125 44.71875 
Q 8.5 49.078125 8.5 55.328125 
Q 8.5 64.0625 14.71875 69.140625 
Q 20.953125 74.21875 31.78125 74.21875 
Q 42.671875 74.21875 48.875 69.140625 
Q 55.078125 64.0625 55.078125 55.328125 
Q 55.078125 49.078125 51.53125 44.71875 
Q 48 40.375 41.703125 38.8125 
Q 48.828125 37.15625 52.796875 32.3125 
Q 56.78125 27.484375 56.78125 20.515625 
Q 56.78125 9.90625 50.3125 4.234375 
Q 43.84375 -1.421875 31.78125 -1.421875 
Q 19.734375 -1.421875 13.25 4.234375 
Q 6.78125 9.90625 6.78125 20.515625 
Q 6.78125 27.484375 10.78125 32.3125 
Q 14.796875 37.15625 21.921875 38.8125 
z
M 18.3125 54.390625 
Q 18.3125 48.734375 21.84375 45.5625 
Q 25.390625 42.390625 31.78125 42.390625 
Q 38.140625 42.390625 41.71875 45.5625 
Q 45.3125 48.734375 45.3125 54.390625 
Q 45.3125 60.0625 41.71875 63.234375 
Q 38.140625 66.40625 31.78125 66.40625 
Q 25.390625 66.40625 21.84375 63.234375 
Q 18.3125 60.0625 18.3125 54.390625 
z
" id="DejaVuSans-56"/>
       </defs>
       <use xlink:href="#DejaVuSans-48"/>
       <use x="63.623047" xlink:href="#DejaVuSans-46"/>
       <use x="95.410156" xlink:href="#DejaVuSans-56"/>
      </g>
     </g>
    </g>
    <g id="ytick_6">
     <g id="line2d_27">
      <path clip-path="url(#p51cac918fe)" d="M 57.6 30.334099 
L 338.688 30.334099 
" style="fill:none;stroke:#b0b0b0;stroke-linecap:square;stroke-width:0.8;"/>
     </g>
     <g id="line2d_28">
      <g>
       <use style="stroke:#000000;stroke-width:0.8;" x="57.6" xlink:href="#m6622322435" y="30.334099"/>
      </g>
     </g>
     <g id="text_11">
      <!-- 1.0 -->
      <g transform="translate(25.155 36.412849)scale(0.16 -0.16)">
       <use xlink:href="#DejaVuSans-49"/>
       <use x="63.623047" xlink:href="#DejaVuSans-46"/>
       <use x="95.410156" xlink:href="#DejaVuSans-48"/>
      </g>
     </g>
    </g>
    <g id="text_12">
     <!-- Fraction of function,target pairs -->
     <g transform="translate(17.619531 297.681)rotate(-90)scale(0.17 -0.17)">
      <defs>
       <path d="M 9.8125 72.90625 
L 51.703125 72.90625 
L 51.703125 64.59375 
L 19.671875 64.59375 
L 19.671875 43.109375 
L 48.578125 43.109375 
L 48.578125 34.8125 
L 19.671875 34.8125 
L 19.671875 0 
L 9.8125 0 
z
" id="DejaVuSans-70"/>
       <path d="M 41.109375 46.296875 
Q 39.59375 47.171875 37.8125 47.578125 
Q 36.03125 48 33.890625 48 
Q 26.265625 48 22.1875 43.046875 
Q 18.109375 38.09375 18.109375 28.8125 
L 18.109375 0 
L 9.078125 0 
L 9.078125 54.6875 
L 18.109375 54.6875 
L 18.109375 46.1875 
Q 20.953125 51.171875 25.484375 53.578125 
Q 30.03125 56 36.53125 56 
Q 37.453125 56 38.578125 55.875 
Q 39.703125 55.765625 41.0625 55.515625 
z
" id="DejaVuSans-114"/>
       <path d="M 48.78125 52.59375 
L 48.78125 44.1875 
Q 44.96875 46.296875 41.140625 47.34375 
Q 37.3125 48.390625 33.40625 48.390625 
Q 24.65625 48.390625 19.8125 42.84375 
Q 14.984375 37.3125 14.984375 27.296875 
Q 14.984375 17.28125 19.8125 11.734375 
Q 24.65625 6.203125 33.40625 6.203125 
Q 37.3125 6.203125 41.140625 7.25 
Q 44.96875 8.296875 48.78125 10.40625 
L 48.78125 2.09375 
Q 45.015625 0.34375 40.984375 -0.53125 
Q 36.96875 -1.421875 32.421875 -1.421875 
Q 20.0625 -1.421875 12.78125 6.34375 
Q 5.515625 14.109375 5.515625 27.296875 
Q 5.515625 40.671875 12.859375 48.328125 
Q 20.21875 56 33.015625 56 
Q 37.15625 56 41.109375 55.140625 
Q 45.0625 54.296875 48.78125 52.59375 
z
" id="DejaVuSans-99"/>
       <path d="M 18.3125 70.21875 
L 18.3125 54.6875 
L 36.8125 54.6875 
L 36.8125 47.703125 
L 18.3125 47.703125 
L 18.3125 18.015625 
Q 18.3125 11.328125 20.140625 9.421875 
Q 21.96875 7.515625 27.59375 7.515625 
L 36.8125 7.515625 
L 36.8125 0 
L 27.59375 0 
Q 17.1875 0 13.234375 3.875 
Q 9.28125 7.765625 9.28125 18.015625 
L 9.28125 47.703125 
L 2.6875 47.703125 
L 2.6875 54.6875 
L 9.28125 54.6875 
L 9.28125 70.21875 
z
" id="DejaVuSans-116"/>
       <path d="M 8.5 21.578125 
L 8.5 54.6875 
L 17.484375 54.6875 
L 17.484375 21.921875 
Q 17.484375 14.15625 20.5 10.265625 
Q 23.53125 6.390625 29.59375 6.390625 
Q 36.859375 6.390625 41.078125 11.03125 
Q 45.3125 15.671875 45.3125 23.6875 
L 45.3125 54.6875 
L 54.296875 54.6875 
L 54.296875 0 
L 45.3125 0 
L 45.3125 8.40625 
Q 42.046875 3.421875 37.71875 1 
Q 33.40625 -1.421875 27.6875 -1.421875 
Q 18.265625 -1.421875 13.375 4.4375 
Q 8.5 10.296875 8.5 21.578125 
z
M 31.109375 56 
z
" id="DejaVuSans-117"/>
       <path d="M 11.71875 12.40625 
L 22.015625 12.40625 
L 22.015625 4 
L 14.015625 -11.625 
L 7.71875 -11.625 
L 11.71875 4 
z
" id="DejaVuSans-44"/>
       <path d="M 18.109375 8.203125 
L 18.109375 -20.796875 
L 9.078125 -20.796875 
L 9.078125 54.6875 
L 18.109375 54.6875 
L 18.109375 46.390625 
Q 20.953125 51.265625 25.265625 53.625 
Q 29.59375 56 35.59375 56 
Q 45.5625 56 51.78125 48.09375 
Q 58.015625 40.1875 58.015625 27.296875 
Q 58.015625 14.40625 51.78125 6.484375 
Q 45.5625 -1.421875 35.59375 -1.421875 
Q 29.59375 -1.421875 25.265625 0.953125 
Q 20.953125 3.328125 18.109375 8.203125 
z
M 48.6875 27.296875 
Q 48.6875 37.203125 44.609375 42.84375 
Q 40.53125 48.484375 33.40625 48.484375 
Q 26.265625 48.484375 22.1875 42.84375 
Q 18.109375 37.203125 18.109375 27.296875 
Q 18.109375 17.390625 22.1875 11.75 
Q 26.265625 6.109375 33.40625 6.109375 
Q 40.53125 6.109375 44.609375 11.75 
Q 48.6875 17.390625 48.6875 27.296875 
z
" id="DejaVuSans-112"/>
      </defs>
      <use xlink:href="#DejaVuSans-70"/>
      <use x="50.269531" xlink:href="#DejaVuSans-114"/>
      <use x="91.382812" xlink:href="#DejaVuSans-97"/>
      <use x="152.662109" xlink:href="#DejaVuSans-99"/>
      <use x="207.642578" xlink:href="#DejaVuSans-116"/>
      <use x="246.851562" xlink:href="#DejaVuSans-105"/>
      <use x="274.634766" xlink:href="#DejaVuSans-111"/>
      <use x="335.816406" xlink:href="#DejaVuSans-110"/>
      <use x="399.195312" xlink:href="#DejaVuSans-32"/>
      <use x="430.982422" xlink:href="#DejaVuSans-111"/>
      <use x="492.164062" xlink:href="#DejaVuSans-102"/>
      <use x="527.369141" xlink:href="#DejaVuSans-32"/>
      <use x="559.15625" xlink:href="#DejaVuSans-102"/>
      <use x="594.361328" xlink:href="#DejaVuSans-117"/>
      <use x="657.740234" xlink:href="#DejaVuSans-110"/>
      <use x="721.119141" xlink:href="#DejaVuSans-99"/>
      <use x="776.099609" xlink:href="#DejaVuSans-116"/>
      <use x="815.308594" xlink:href="#DejaVuSans-105"/>
      <use x="843.091797" xlink:href="#DejaVuSans-111"/>
      <use x="904.273438" xlink:href="#DejaVuSans-110"/>
      <use x="967.652344" xlink:href="#DejaVuSans-44"/>
      <use x="999.439453" xlink:href="#DejaVuSans-116"/>
      <use x="1038.648438" xlink:href="#DejaVuSans-97"/>
      <use x="1099.927734" xlink:href="#DejaVuSans-114"/>
      <use x="1139.291016" xlink:href="#DejaVuSans-103"/>
      <use x="1202.767578" xlink:href="#DejaVuSans-101"/>
      <use x="1264.291016" xlink:href="#DejaVuSans-116"/>
      <use x="1303.5" xlink:href="#DejaVuSans-32"/>
      <use x="1335.287109" xlink:href="#DejaVuSans-112"/>
      <use x="1398.763672" xlink:href="#DejaVuSans-97"/>
      <use x="1460.042969" xlink:href="#DejaVuSans-105"/>
      <use x="1487.826172" xlink:href="#DejaVuSans-114"/>
      <use x="1528.939453" xlink:href="#DejaVuSans-115"/>
     </g>
    </g>
   </g>
   <g id="line2d_29">
    <defs>
     <path d="M 0 1.5 
C 0.397805 1.5 0.77937 1.341951 1.06066 1.06066 
C 1.341951 0.77937 1.5 0.397805 1.5 0 
C 1.5 -0.397805 1.341951 -0.77937 1.06066 -1.06066 
C 0.77937 -1.341951 0.397805 -1.5 0 -1.5 
C -0.397805 -1.5 -0.77937 -1.341951 -1.06066 -1.06066 
C -1.341951 -0.77937 -1.5 -0.397805 -1.5 0 
C -1.5 0.397805 -1.341951 0.77937 -1.06066 1.06066 
C -0.77937 1.341951 -0.397805 1.5 0 1.5 
z
" id="m74d70b269f" style="stroke:#00bfbf;"/>
    </defs>
    <g>
     <use style="fill:#00bfbf;stroke:#00bfbf;" x="169.157854" xlink:href="#m74d70b269f" y="30.334099"/>
     <use style="fill:#00bfbf;stroke:#00bfbf;" x="169.157854" xlink:href="#m74d70b269f" y="30.334099"/>
    </g>
   </g>
   <g id="line2d_30">
    <path d="M 45.512012 298.944 
L 45.512012 267.342835 
L 57.6 267.342835 
L 57.6 264.709405 
L 64.67102 264.709405 
L 64.67102 264.182719 
L 81.775977 264.182719 
L 81.775977 263.656033 
L 83.830028 263.656033 
L 83.830028 261.022602 
L 88.846997 261.022602 
L 88.846997 260.495916 
L 91.535274 260.495916 
L 91.535274 259.442544 
L 93.863965 259.442544 
L 93.863965 257.862486 
L 96.86091 257.862486 
L 96.86091 257.3358 
L 97.755429 257.3358 
L 97.755429 255.229055 
L 100.934985 255.229055 
L 100.934985 254.702369 
L 101.646892 254.702369 
L 101.646892 254.175683 
L 102.330873 254.175683 
L 102.330873 253.648997 
L 104.826449 253.648997 
L 104.826449 252.595625 
L 105.398279 252.595625 
L 105.398279 251.542253 
L 105.951954 251.542253 
L 105.951954 248.382136 
L 106.48859 248.382136 
L 106.48859 245.748706 
L 107.009204 245.748706 
L 107.009204 245.22202 
L 108.006005 245.22202 
L 108.006005 243.641962 
L 108.948899 243.641962 
L 108.948899 243.115275 
L 109.843417 243.115275 
L 109.843417 242.061903 
L 110.274038 242.061903 
L 110.274038 241.535217 
L 111.104637 241.535217 
L 111.104637 241.008531 
L 111.505558 241.008531 
L 111.505558 239.428473 
L 114.418861 239.428473 
L 114.418861 237.848415 
L 114.751048 237.848415 
L 114.751048 237.321729 
L 116.019919 237.321729 
L 116.019919 236.795043 
L 116.621333 236.795043 
L 116.621333 236.268356 
L 117.202696 236.268356 
L 117.202696 235.74167 
L 118.039942 235.74167 
L 118.039942 235.214984 
L 118.310324 235.214984 
L 118.310324 234.688298 
L 118.576578 234.688298 
L 118.576578 233.10824 
L 118.838828 233.10824 
L 118.838828 232.581554 
L 119.097192 232.581554 
L 119.097192 231.528182 
L 119.850084 231.528182 
L 119.850084 231.001496 
L 120.093994 231.001496 
L 120.093994 230.47481 
L 120.571812 230.47481 
L 120.571812 229.948123 
L 121.489881 229.948123 
L 121.489881 228.368065 
L 121.712041 228.368065 
L 121.712041 227.841379 
L 121.931406 227.841379 
L 121.931406 224.154577 
L 123.192626 224.154577 
L 123.192626 223.627891 
L 123.394238 223.627891 
L 123.394238 221.521146 
L 123.593547 221.521146 
L 123.593547 217.834344 
L 123.790603 217.834344 
L 123.790603 217.307658 
L 123.985457 217.307658 
L 123.985457 216.780971 
L 125.996395 216.780971 
L 125.996395 216.254285 
L 126.839037 216.254285 
L 126.839037 214.147541 
L 127.002787 214.147541 
L 127.002787 213.620855 
L 127.165014 213.620855 
L 127.165014 212.567483 
L 127.325746 212.567483 
L 127.325746 210.987425 
L 127.48501 210.987425 
L 127.48501 208.353994 
L 128.260216 208.353994 
L 128.260216 206.24725 
L 128.856489 206.24725 
L 128.856489 204.667192 
L 129.002426 204.667192 
L 129.002426 204.140506 
L 130.796184 204.140506 
L 130.796184 203.613819 
L 131.056477 203.613819 
L 131.056477 203.087133 
L 131.690703 203.087133 
L 131.690703 202.560447 
L 131.938072 202.560447 
L 131.938072 202.033761 
L 132.422528 202.033761 
L 132.422528 201.507075 
L 134.019394 201.507075 
L 134.019394 200.453703 
L 134.343353 200.453703 
L 134.343353 199.927017 
L 134.766144 199.927017 
L 134.870259 197.820273 
L 134.973757 197.820273 
L 134.973757 197.293586 
L 135.178927 197.293586 
L 135.178927 196.240214 
L 135.381712 196.240214 
L 135.482227 192.553412 
L 135.97629 192.553412 
L 136.073445 191.50004 
L 136.645276 191.50004 
L 136.645276 190.973354 
L 137.289545 190.973354 
L 137.37967 188.339923 
L 137.997836 188.339923 
L 138.084384 181.493004 
L 138.256201 181.493004 
L 138.341479 179.912946 
L 138.67848 179.912946 
L 138.761723 178.332888 
L 138.84457 178.332888 
L 138.84457 176.752829 
L 139.090775 176.752829 
L 139.090775 174.646085 
L 139.333553 174.646085 
L 139.333553 174.119399 
L 139.8092 174.119399 
L 139.887228 170.959282 
L 141.871938 170.959282 
L 141.871938 170.432596 
L 142.884173 170.432596 
L 142.884173 168.852538 
L 143.079756 168.852538 
L 143.144465 167.799166 
L 143.40093 167.799166 
L 143.40093 167.27248 
L 143.653678 167.27248 
L 143.716296 165.692422 
L 144.269971 165.692422 
L 144.269971 165.165736 
L 144.865226 165.165736 
L 144.865226 164.112363 
L 145.039911 164.112363 
L 145.097753 160.425561 
L 145.212864 160.425561 
L 145.212864 159.898875 
L 145.384119 159.898875 
L 145.384119 158.845503 
L 145.777292 158.845503 
L 145.888018 157.79213 
L 146.052799 157.79213 
L 146.107383 156.212072 
L 146.270114 156.212072 
L 146.270114 155.685386 
L 146.644018 155.685386 
L 146.696785 154.632014 
L 146.854132 154.632014 
L 146.854132 153.578642 
L 147.215849 153.578642 
L 147.215849 153.051956 
L 147.419225 153.051956 
L 147.419225 151.471897 
L 148.064279 151.471897 
L 148.064279 150.945211 
L 148.497276 150.945211 
L 148.497276 150.418525 
L 149.377533 150.418525 
L 149.377533 149.891839 
L 149.60198 149.891839 
L 149.60198 148.838467 
L 149.955193 148.838467 
L 149.998846 147.785095 
L 150.172372 147.785095 
L 150.172372 147.258409 
L 150.301393 147.258409 
L 150.301393 146.731723 
L 150.429467 146.731723 
L 150.429467 146.205037 
L 150.556607 146.205037 
L 150.598782 145.151665 
L 150.808139 145.151665 
L 150.808139 143.571606 
L 151.056095 143.571606 
L 151.13797 142.518234 
L 151.300575 142.518234 
L 151.381313 139.358118 
L 151.621307 139.358118 
L 151.621307 138.831432 
L 151.818809 138.831432 
L 151.818809 138.304745 
L 152.168773 138.304745 
L 152.168773 137.251373 
L 152.662192 137.251373 
L 152.736878 132.511199 
L 153.069065 132.511199 
L 153.105587 131.457826 
L 153.214697 131.457826 
L 153.214697 130.93114 
L 153.679772 130.93114 
L 153.679772 129.877768 
L 154.303908 129.877768 
L 154.405793 128.29771 
L 154.641235 128.29771 
L 154.707925 127.244338 
L 155.0376 127.244338 
L 155.135299 125.66428 
L 155.361158 125.66428 
L 155.425155 124.084221 
L 155.488919 124.084221 
L 155.488919 123.557535 
L 155.61575 123.557535 
L 155.61575 122.504163 
L 155.741666 122.504163 
L 155.83551 119.344047 
L 155.86668 119.344047 
L 155.86668 118.817361 
L 155.990803 118.817361 
L 156.083319 116.18393 
L 156.114049 116.18393 
L 156.175347 114.077186 
L 156.38821 114.077186 
L 156.478647 110.390383 
L 156.687861 110.390383 
L 156.747178 108.283639 
L 156.865211 108.283639 
L 156.953214 106.176895 
L 156.98245 106.176895 
L 157.011638 104.596836 
L 157.098907 104.596836 
L 157.156845 102.490092 
L 157.358125 102.490092 
L 157.415209 101.43672 
L 157.557108 101.43672 
L 157.613546 99.856662 
L 157.781772 99.856662 
L 157.809652 94.063115 
L 157.893028 94.063115 
L 157.893028 93.536429 
L 158.058592 93.536429 
L 158.140788 92.483056 
L 158.195371 92.483056 
L 158.195371 90.376312 
L 158.385078 90.376312 
L 158.492562 89.32294 
L 158.67908 89.32294 
L 158.67908 87.216196 
L 158.968208 87.216196 
L 158.968208 84.582765 
L 159.123917 84.582765 
L 159.175513 81.949335 
L 159.252621 81.949335 
L 159.32939 79.842591 
L 159.405822 79.842591 
L 159.507213 76.155788 
L 159.532469 76.155788 
L 159.532469 74.049044 
L 159.658204 74.049044 
L 159.658204 73.522358 
L 159.857512 73.522358 
L 159.882266 72.468985 
L 160.030058 72.468985 
L 160.030058 71.942299 
L 160.225184 71.942299 
L 160.249422 70.888927 
L 160.394148 70.888927 
L 160.394148 70.362241 
L 160.750792 70.362241 
L 160.797798 68.782183 
L 160.891432 68.782183 
L 160.961329 66.675439 
L 161.077205 66.675439 
L 161.100288 65.622066 
L 161.192316 65.622066 
L 161.192316 65.09538 
L 161.397621 65.09538 
L 161.420284 64.042008 
L 161.667653 64.042008 
L 161.667653 61.408578 
L 161.977497 61.408578 
L 161.977497 60.355206 
L 162.346481 60.355206 
L 162.346481 59.82852 
L 162.707819 59.82852 
L 162.749842 54.561659 
L 162.916926 54.561659 
L 162.999872 53.508287 
L 163.041197 53.508287 
L 163.041197 52.9816 
L 163.185069 52.9816 
L 163.287113 50.874856 
L 163.348054 50.874856 
L 163.348054 50.34817 
L 163.609699 50.34817 
L 163.649606 49.294798 
L 163.768781 49.294798 
L 163.788565 47.71474 
L 164.160252 47.71474 
L 164.160252 47.188054 
L 164.371873 47.188054 
L 164.467222 46.134681 
L 164.562052 46.134681 
L 164.580957 44.554623 
L 164.693955 44.554623 
L 164.693955 44.027937 
L 164.973287 44.027937 
L 164.973287 43.501251 
L 165.266391 43.501251 
L 165.320804 42.447879 
L 165.411116 42.447879 
L 165.411116 41.921193 
L 165.714726 41.921193 
L 165.7501 40.867821 
L 166.151824 40.867821 
L 166.151824 40.341135 
L 166.459886 40.341135 
L 166.510705 38.761076 
L 166.7626 38.761076 
L 166.862349 35.60096 
L 167.174506 35.60096 
L 167.174506 35.074274 
L 167.497166 35.074274 
L 167.497166 33.494215 
L 167.608702 33.494215 
L 167.608702 32.967529 
L 168.445948 32.967529 
L 168.476198 31.914157 
L 168.879523 31.914157 
L 168.894283 30.860785 
L 169.157854 30.860785 
L 169.157854 30.334099 
L 338.688 30.334099 
L 338.688 30.334099 
" style="fill:none;stroke:#00bfbf;stroke-linecap:square;stroke-width:1.5;"/>
   </g>
   <g id="line2d_31">
    <defs>
     <path d="M -6 0 
L 6 0 
M 0 6 
L 0 -6 
" id="m0011473b63" style="stroke:#00bfbf;stroke-width:1.5;"/>
    </defs>
    <g>
     <use style="fill-opacity:0;stroke:#00bfbf;stroke-width:1.5;" x="121.712041" xlink:href="#m0011473b63" y="227.841379"/>
     <use style="fill-opacity:0;stroke:#00bfbf;stroke-width:1.5;" x="156.175347" xlink:href="#m0011473b63" y="114.077186"/>
     <use style="fill-opacity:0;stroke:#00bfbf;stroke-width:1.5;" x="169.157854" xlink:href="#m0011473b63" y="30.860785"/>
     <use style="fill-opacity:0;stroke:#00bfbf;stroke-width:1.5;" x="169.157854" xlink:href="#m0011473b63" y="30.334099"/>
     <use style="fill-opacity:0;stroke:#00bfbf;stroke-width:1.5;" x="169.157854" xlink:href="#m0011473b63" y="30.334099"/>
     <use style="fill-opacity:0;stroke:#00bfbf;stroke-width:1.5;" x="338.688" xlink:href="#m0011473b63" y="30.334099"/>
    </g>
   </g>
   <g id="line2d_32">
    <path style="fill:none;stroke:#00bfbf;stroke-linecap:square;stroke-width:1.5;"/>
    <g/>
   </g>
   <g id="line2d_33">
    <defs>
     <path d="M 0 1.5 
C 0.397805 1.5 0.77937 1.341951 1.06066 1.06066 
C 1.341951 0.77937 1.5 0.397805 1.5 0 
C 1.5 -0.397805 1.341951 -0.77937 1.06066 -1.06066 
C 0.77937 -1.341951 0.397805 -1.5 0 -1.5 
C -0.397805 -1.5 -0.77937 -1.341951 -1.06066 -1.06066 
C -1.341951 -0.77937 -1.5 -0.397805 -1.5 0 
C -1.5 0.397805 -1.341951 0.77937 -1.06066 1.06066 
C -0.77937 1.341951 -0.397805 1.5 0 1.5 
z
" id="mc24659ac3b" style="stroke:#008000;"/>
    </defs>
    <g>
     <use style="fill:#008000;stroke:#008000;" x="166.96153" xlink:href="#mc24659ac3b" y="30.334099"/>
     <use style="fill:#008000;stroke:#008000;" x="166.96153" xlink:href="#mc24659ac3b" y="30.334099"/>
    </g>
   </g>
   <g id="line2d_34">
    <path d="M 38.440992 298.944 
L 38.440992 269.976266 
L 50.52898 269.976266 
L 50.52898 269.449579 
L 57.6 269.449579 
L 57.6 268.922893 
L 69.687988 268.922893 
L 69.687988 268.396207 
L 83.171864 268.396207 
L 83.171864 267.869521 
L 84.464254 267.869521 
L 84.464254 266.816149 
L 86.792945 266.816149 
L 86.792945 265.762777 
L 87.850195 265.762777 
L 87.850195 265.236091 
L 92.34655 265.236091 
L 92.34655 264.709405 
L 95.259853 264.709405 
L 95.259853 264.182719 
L 96.552242 264.182719 
L 96.552242 262.60266 
L 98.880934 262.60266 
L 98.880934 261.022602 
L 99.41757 261.022602 
L 99.41757 255.229055 
L 101.412804 255.229055 
L 101.412804 254.702369 
L 103.203018 254.702369 
L 103.203018 254.175683 
L 103.623262 254.175683 
L 103.623262 253.648997 
L 104.033617 253.648997 
L 104.033617 252.595625 
L 104.434538 252.595625 
L 104.434538 252.068939 
L 104.826449 252.068939 
L 104.826449 251.015567 
L 108.326001 251.015567 
L 108.326001 250.488881 
L 109.252198 250.488881 
L 109.252198 249.435508 
L 109.550313 249.435508 
L 109.550313 248.382136 
L 110.131676 248.382136 
L 110.131676 247.85545 
L 111.505558 247.85545 
L 111.505558 247.328764 
L 111.767808 247.328764 
L 111.767808 244.695334 
L 112.280765 244.695334 
L 112.280765 244.168648 
L 113.26352 244.168648 
L 113.26352 243.641962 
L 114.193835 243.641962 
L 114.193835 242.588589 
L 114.641021 242.588589 
L 114.641021 242.061903 
L 114.860386 242.061903 
L 114.860386 241.008531 
L 115.291007 241.008531 
L 115.291007 239.428473 
L 115.711251 239.428473 
L 115.711251 238.901787 
L 115.917635 238.901787 
L 115.917635 238.375101 
L 117.107138 238.375101 
L 117.107138 237.848415 
L 117.672786 237.848415 
L 117.672786 236.795043 
L 118.039942 236.795043 
L 118.039942 235.214984 
L 118.220662 235.214984 
L 118.220662 234.688298 
L 119.097192 234.688298 
L 119.097192 234.161612 
L 119.267333 234.161612 
L 119.267333 233.634926 
L 119.602714 233.634926 
L 119.602714 233.10824 
L 119.768017 233.10824 
L 119.768017 231.528182 
L 120.571812 231.528182 
L 120.571812 231.001496 
L 121.638301 231.001496 
L 121.638301 230.47481 
L 122.219665 230.47481 
L 122.219665 229.948123 
L 122.643312 229.948123 
L 122.643312 229.421437 
L 123.192626 229.421437 
L 123.192626 228.894751 
L 123.460928 228.894751 
L 123.460928 227.841379 
L 123.855796 227.841379 
L 123.855796 227.314693 
L 124.241922 227.314693 
L 124.241922 226.261321 
L 124.494669 226.261321 
L 124.494669 225.734635 
L 124.619683 225.734635 
L 124.619683 224.154577 
L 124.989434 224.154577 
L 124.989434 223.627891 
L 125.23165 223.627891 
L 125.23165 223.101204 
L 125.470548 223.101204 
L 125.470548 222.574518 
L 126.618283 222.574518 
L 126.618283 220.99446 
L 127.48501 220.99446 
L 127.590383 219.941088 
L 128.107907 219.941088 
L 128.209594 218.36103 
L 128.310692 218.36103 
L 128.411207 216.254285 
L 128.610515 216.254285 
L 128.610515 214.674227 
L 129.480244 214.674227 
L 129.574256 213.620855 
L 129.667765 213.620855 
L 129.667765 213.094169 
L 129.853291 213.094169 
L 129.853291 212.040797 
L 130.218525 212.040797 
L 130.218525 210.460738 
L 130.487516 210.460738 
L 130.487516 209.934052 
L 130.664567 209.934052 
L 130.664567 209.407366 
L 130.926816 209.407366 
L 130.926816 206.24725 
L 131.60746 206.24725 
L 131.60746 205.720564 
L 131.856005 205.720564 
L 131.856005 205.193878 
L 132.101058 205.193878 
L 132.181982 204.140506 
L 132.342714 204.140506 
L 132.422528 202.033761 
L 132.501978 202.033761 
L 132.501978 200.453703 
L 133.201197 200.453703 
L 133.201197 199.400331 
L 133.428175 199.400331 
L 133.428175 198.873645 
L 133.57787 198.873645 
L 133.57787 196.7669 
L 133.800029 196.7669 
L 133.800029 195.713528 
L 134.019394 195.713528 
L 134.091907 193.080098 
L 134.236034 193.080098 
L 134.307653 192.026726 
L 135.144899 192.026726 
L 135.212889 190.973354 
L 135.681535 190.973354 
L 135.681535 188.866609 
L 136.008736 188.866609 
L 136.008736 188.339923 
L 136.202149 188.339923 
L 136.266147 186.233179 
L 136.831795 186.233179 
L 136.893527 185.179807 
L 137.138292 185.179807 
L 137.198951 184.126434 
L 137.499118 184.126434 
L 137.499118 183.599748 
L 137.852629 183.599748 
L 137.852629 183.073062 
L 138.026733 183.073062 
L 138.026733 182.546376 
L 138.594838 182.546376 
L 138.594838 182.01969 
L 138.761723 182.01969 
L 138.761723 181.493004 
L 138.981779 181.493004 
L 138.981779 179.912946 
L 139.199094 179.912946 
L 139.306744 177.806202 
L 139.625765 177.806202 
L 139.730821 176.752829 
L 139.887228 176.752829 
L 139.990725 173.592713 
L 140.093612 173.592713 
L 140.195896 172.539341 
L 140.246813 172.539341 
L 140.348205 170.959282 
L 140.44901 170.959282 
L 140.549236 169.90591 
L 140.79731 169.90591 
L 140.79731 169.379224 
L 141.378673 169.379224 
L 141.378673 168.852538 
L 141.615302 168.852538 
L 141.615302 168.325852 
L 141.941279 168.325852 
L 141.941279 167.799166 
L 142.170445 167.799166 
L 142.261275 166.219108 
L 142.441528 166.219108 
L 142.441528 164.112363 
L 143.101352 164.112363 
L 143.101352 163.585677 
L 143.230373 163.585677 
L 143.230373 162.005619 
L 143.358447 162.005619 
L 143.358447 161.478933 
L 143.737119 161.478933 
L 143.737119 160.952247 
L 143.943994 160.952247 
L 143.943994 160.425561 
L 145.516164 160.425561 
L 145.516164 159.898875 
L 145.924771 159.898875 
L 145.924771 159.372189 
L 146.107383 159.372189 
L 146.216039 158.318817 
L 146.573414 158.318817 
L 146.573414 156.738758 
L 146.784375 156.738758 
L 146.819289 155.685386 
L 146.992815 155.685386 
L 147.096109 153.578642 
L 147.334773 153.578642 
L 147.368603 152.52527 
L 147.570215 152.52527 
L 147.570215 151.998584 
L 147.736463 151.998584 
L 147.736463 151.471897 
L 147.999207 151.471897 
L 148.096724 149.365153 
L 148.258051 149.365153 
L 148.354135 147.785095 
L 148.79566 147.785095 
L 148.79566 147.258409 
L 149.104327 147.258409 
L 149.165411 144.624978 
L 149.31719 144.624978 
L 149.31719 144.098292 
L 149.557321 144.098292 
L 149.557321 143.571606 
L 149.676158 143.571606 
L 149.764758 141.991548 
L 149.823575 141.991548 
L 149.823575 141.464862 
L 150.085825 141.464862 
L 150.085825 140.938176 
L 150.344189 140.938176 
L 150.344189 139.884804 
L 150.486088 139.884804 
L 150.570677 138.831432 
L 150.654857 138.831432 
L 150.654857 138.304745 
L 150.79426 138.304745 
L 150.79426 137.778059 
L 150.987572 137.778059 
L 151.097081 136.724687 
L 151.151579 136.724687 
L 151.260066 133.564571 
L 151.501723 133.564571 
L 151.501723 133.037885 
L 151.634543 133.037885 
L 151.68739 131.457826 
L 151.844975 131.457826 
L 151.949246 129.877768 
L 152.052897 129.877768 
L 152.155936 128.824396 
L 152.25837 128.824396 
L 152.334802 127.244338 
L 152.461449 127.244338 
L 152.562109 126.190966 
L 152.687123 126.190966 
L 152.687123 125.66428 
L 152.811246 125.66428 
L 152.811246 125.137593 
L 153.056874 125.137593 
L 153.154164 124.084221 
L 153.202607 124.084221 
L 153.226778 122.504163 
L 153.466662 122.504163 
L 153.561699 120.397419 
L 153.585377 120.397419 
L 153.632638 118.817361 
L 153.867041 118.817361 
L 153.936752 117.763988 
L 154.144227 117.763988 
L 154.144227 117.237302 
L 154.258434 117.237302 
L 154.258434 116.710616 
L 154.394502 116.710616 
L 154.46214 114.077186 
L 154.551917 114.077186 
L 154.57429 112.497128 
L 154.796449 112.497128 
L 154.884527 110.917069 
L 154.950294 110.917069 
L 154.950294 110.390383 
L 155.12447 110.390383 
L 155.232454 108.810325 
L 155.275461 108.810325 
L 155.361158 107.230267 
L 155.783437 107.230267 
L 155.804285 106.176895 
L 155.928852 106.176895 
L 155.928852 105.650209 
L 156.052535 105.650209 
L 156.073064 103.016778 
L 156.175347 103.016778 
L 156.175347 102.490092 
L 156.317544 102.490092 
L 156.337763 100.910034 
L 156.43851 100.910034 
L 156.43851 100.383348 
L 156.558644 100.383348 
L 156.638275 97.749917 
L 156.757045 97.749917 
L 156.816128 96.169859 
L 157.011638 96.169859 
L 157.089232 93.536429 
L 157.1279 93.536429 
L 157.1279 93.009743 
L 157.28172 93.009743 
L 157.300853 91.95637 
L 157.697862 91.95637 
L 157.697862 91.429684 
L 157.883783 91.429684 
L 157.902267 90.376312 
L 158.067744 90.376312 
L 158.067744 89.849626 
L 158.195371 89.849626 
L 158.213527 85.109451 
L 158.376091 85.109451 
L 158.48363 81.949335 
L 158.994256 81.949335 
L 159.098062 80.895963 
L 159.218393 80.895963 
L 159.26971 79.842591 
L 159.405822 79.842591 
L 159.490356 77.735846 
L 159.524055 77.735846 
L 159.524055 77.20916 
L 159.658204 77.20916 
L 159.69158 76.155788 
L 159.956318 76.155788 
L 159.956318 75.102416 
L 160.070889 75.102416 
L 160.070889 74.57573 
L 160.200913 74.57573 
L 160.281688 71.942299 
L 160.313893 71.942299 
L 160.410154 69.835555 
L 160.474035 69.835555 
L 160.474035 69.308869 
L 160.585265 69.308869 
L 160.69579 67.728811 
L 160.914762 67.728811 
L 160.992304 66.148752 
L 161.038665 66.148752 
L 161.038665 65.622066 
L 161.177012 65.622066 
L 161.283861 62.46195 
L 161.344625 62.46195 
L 161.420284 60.881892 
L 161.570623 60.881892 
L 161.615474 58.248461 
L 161.749336 58.248461 
L 161.838011 55.088345 
L 161.896878 55.088345 
L 161.955547 52.9816 
L 162.144868 52.9816 
L 162.144868 52.454914 
L 162.260361 52.454914 
L 162.260361 50.34817 
L 162.474869 50.34817 
L 162.574077 49.294798 
L 162.770815 49.294798 
L 162.826621 46.661368 
L 162.896128 46.661368 
L 162.896128 46.134681 
L 163.225959 46.134681 
L 163.33453 44.554623 
L 163.375071 44.554623 
L 163.375071 44.027937 
L 163.50953 44.027937 
L 163.616356 41.921193 
L 163.709295 41.921193 
L 163.722532 40.867821 
L 163.841212 40.867821 
L 163.841212 38.761076 
L 164.166702 38.761076 
L 164.166702 38.23439 
L 164.295217 38.23439 
L 164.320806 36.654332 
L 164.435497 36.654332 
L 164.435497 36.127646 
L 164.899235 36.127646 
L 164.985598 34.547588 
L 165.254276 34.547588 
L 165.254276 34.020902 
L 165.494988 34.020902 
L 165.494988 33.494215 
L 165.661531 33.494215 
L 165.661531 32.967529 
L 165.814766 32.967529 
L 165.861646 31.387471 
L 166.105719 31.387471 
L 166.105719 30.860785 
L 166.96153 30.860785 
L 166.96153 30.334099 
L 338.688 30.334099 
L 338.688 30.334099 
" style="fill:none;stroke:#008000;stroke-linecap:square;stroke-width:1.5;"/>
   </g>
   <g id="line2d_35">
    <defs>
     <path d="M -0 6 
L 6 -6 
L -6 -6 
z
" id="m658e954775" style="stroke:#008000;stroke-linejoin:miter;stroke-width:1.5;"/>
    </defs>
    <g>
     <use style="fill-opacity:0;stroke:#008000;stroke-linejoin:miter;stroke-width:1.5;" x="101.412804" xlink:href="#m658e954775" y="255.229055"/>
     <use style="fill-opacity:0;stroke:#008000;stroke-linejoin:miter;stroke-width:1.5;" x="153.585377" xlink:href="#m658e954775" y="119.344047"/>
     <use style="fill-opacity:0;stroke:#008000;stroke-linejoin:miter;stroke-width:1.5;" x="166.96153" xlink:href="#m658e954775" y="30.860785"/>
     <use style="fill-opacity:0;stroke:#008000;stroke-linejoin:miter;stroke-width:1.5;" x="166.96153" xlink:href="#m658e954775" y="30.334099"/>
     <use style="fill-opacity:0;stroke:#008000;stroke-linejoin:miter;stroke-width:1.5;" x="166.96153" xlink:href="#m658e954775" y="30.334099"/>
     <use style="fill-opacity:0;stroke:#008000;stroke-linejoin:miter;stroke-width:1.5;" x="338.688" xlink:href="#m658e954775" y="30.334099"/>
    </g>
   </g>
   <g id="line2d_36">
    <path style="fill:none;stroke:#008000;stroke-linecap:square;stroke-width:1.5;"/>
    <g/>
   </g>
   <g id="line2d_37">
    <defs>
     <path d="M 0 1.5 
C 0.397805 1.5 0.77937 1.341951 1.06066 1.06066 
C 1.341951 0.77937 1.5 0.397805 1.5 0 
C 1.5 -0.397805 1.341951 -0.77937 1.06066 -1.06066 
C 0.77937 -1.341951 0.397805 -1.5 0 -1.5 
C -0.397805 -1.5 -0.77937 -1.341951 -1.06066 -1.06066 
C -1.341951 -0.77937 -1.5 -0.397805 -1.5 0 
C -1.5 0.397805 -1.341951 0.77937 -1.06066 1.06066 
C -0.77937 1.341951 -0.397805 1.5 0 1.5 
z
" id="m8c37bace0c" style="stroke:#0000ff;"/>
    </defs>
    <g>
     <use style="fill:#0000ff;stroke:#0000ff;" x="174.287811" xlink:href="#m8c37bace0c" y="30.334099"/>
     <use style="fill:#0000ff;stroke:#0000ff;" x="174.287811" xlink:href="#m8c37bace0c" y="30.334099"/>
    </g>
   </g>
   <g id="line2d_38">
    <path d="M 29.53256 298.944 
L 29.53256 277.876557 
L 41.620548 277.876557 
L 41.620548 276.823185 
L 60.779557 276.823185 
L 60.779557 275.769812 
L 67.850577 275.769812 
L 67.850577 275.243126 
L 69.687988 275.243126 
L 69.687988 274.71644 
L 76.759008 274.71644 
L 76.759008 273.663068 
L 79.938565 273.663068 
L 79.938565 273.136382 
L 82.626842 273.136382 
L 82.626842 272.609696 
L 86.351421 272.609696 
L 86.351421 271.556324 
L 87.009585 271.556324 
L 87.009585 271.029638 
L 87.643811 271.029638 
L 87.643811 270.502952 
L 88.846997 270.502952 
L 88.846997 268.922893 
L 92.969447 268.922893 
L 92.969447 266.816149 
L 95.125186 266.816149 
L 95.125186 266.289463 
L 95.918017 266.289463 
L 95.918017 264.709405 
L 97.403108 264.709405 
L 97.403108 264.182719 
L 99.41757 264.182719 
L 99.41757 263.656033 
L 100.641881 263.656033 
L 100.641881 262.075974 
L 101.785851 262.075974 
L 101.785851 261.549288 
L 102.859376 261.549288 
L 102.859376 260.495916 
L 103.372333 260.495916 
L 103.372333 259.442544 
L 104.826449 259.442544 
L 104.826449 257.862486 
L 106.382575 257.862486 
L 106.382575 257.3358 
L 106.802819 257.3358 
L 106.802819 256.809114 
L 108.198707 256.809114 
L 108.198707 256.282427 
L 108.577836 256.282427 
L 108.577836 255.755741 
L 108.948899 255.755741 
L 108.948899 255.229055 
L 109.131511 255.229055 
L 109.131511 254.702369 
L 111.185562 254.702369 
L 111.185562 254.175683 
L 111.346294 254.175683 
L 111.346294 253.648997 
L 111.974805 253.648997 
L 111.974805 253.122311 
L 112.128456 253.122311 
L 112.128456 252.595625 
L 113.022974 252.595625 
L 113.022974 252.068939 
L 113.73488 252.068939 
L 113.73488 251.542253 
L 114.552496 251.542253 
L 114.552496 251.015567 
L 114.685115 251.015567 
L 114.685115 250.488881 
L 116.081002 250.488881 
L 116.081002 249.962195 
L 116.202531 249.962195 
L 116.202531 249.435508 
L 116.323218 249.435508 
L 116.323218 248.908822 
L 117.486268 248.908822 
L 117.486268 245.748706 
L 117.709852 245.748706 
L 117.709852 245.22202 
L 118.681952 245.22202 
L 118.786692 244.168648 
L 118.890808 244.168648 
L 118.890808 243.641962 
L 119.502775 243.641962 
L 119.602714 241.535217 
L 119.80089 241.535217 
L 119.89914 240.481845 
L 119.996839 240.481845 
L 119.996839 239.955159 
L 120.286695 239.955159 
L 120.286695 239.428473 
L 120.852343 239.428473 
L 120.944859 238.375101 
L 121.579085 238.375101 
L 121.579085 237.321729 
L 121.756135 237.321729 
L 121.756135 236.268356 
L 122.782271 236.268356 
L 122.865118 235.214984 
L 123.111324 235.214984 
L 123.111324 234.161612 
L 123.593547 234.161612 
L 123.672636 230.47481 
L 123.751369 230.47481 
L 123.751369 229.421437 
L 124.368753 229.421437 
L 124.368753 228.894751 
L 124.891598 228.894751 
L 124.891598 227.841379 
L 125.183475 227.841379 
L 125.183475 226.788007 
L 125.399222 226.788007 
L 125.470548 225.207949 
L 125.612332 225.207949 
L 125.612332 224.681263 
L 126.236468 224.681263 
L 126.304457 223.627891 
L 126.573795 223.627891 
L 126.640485 222.574518 
L 127.100304 222.574518 
L 127.100304 222.047832 
L 127.293718 222.047832 
L 127.293718 221.521146 
L 127.54831 221.521146 
L 127.54831 220.99446 
L 128.107907 220.99446 
L 128.168991 219.941088 
L 128.471239 219.941088 
L 128.531065 218.36103 
L 129.002426 218.36103 
L 129.002426 217.834344 
L 129.118302 217.834344 
L 129.118302 217.307658 
L 129.630422 217.307658 
L 129.686407 215.727599 
L 129.908566 215.727599 
L 129.908566 214.674227 
L 130.182344 214.674227 
L 130.182344 214.147541 
L 130.61164 214.147541 
L 130.61164 213.620855 
L 131.439773 213.620855 
L 131.439773 213.094169 
L 132.133473 213.094169 
L 132.133473 212.567483 
L 132.70687 212.567483 
L 132.70687 212.040797 
L 132.940331 212.040797 
L 132.940331 211.514111 
L 133.124876 211.514111 
L 133.124876 210.987425 
L 133.755823 210.987425 
L 133.755823 210.460738 
L 134.019394 210.460738 
L 134.019394 209.934052 
L 134.149701 209.934052 
L 134.192921 208.88068 
L 134.321942 208.88068 
L 134.321942 207.827308 
L 134.492498 207.827308 
L 134.492498 207.300622 
L 134.61933 207.300622 
L 134.61933 206.773936 
L 134.870259 206.773936 
L 134.911732 205.720564 
L 134.994383 205.720564 
L 134.994383 205.193878 
L 135.361539 205.193878 
L 135.361539 204.667192 
L 135.482227 204.667192 
L 135.482227 204.140506 
L 135.681535 204.140506 
L 135.681535 203.613819 
L 136.5324 203.613819 
L 136.607732 202.560447 
L 136.86886 202.560447 
L 136.942755 201.507075 
L 137.235245 201.507075 
L 137.235245 200.980389 
L 137.945701 200.980389 
L 138.049816 199.927017 
L 138.290362 199.927017 
L 138.290362 199.400331 
L 138.861092 199.400331 
L 138.861092 198.873645 
L 139.220677 198.873645 
L 139.220677 198.346959 
L 139.541262 198.346959 
L 139.541262 197.820273 
L 139.730821 197.820273 
L 139.730821 197.293586 
L 140.678675 197.293586 
L 140.678675 196.7669 
L 141.20629 196.7669 
L 141.20629 196.240214 
L 141.634094 196.240214 
L 141.662245 195.186842 
L 141.996555 195.186842 
L 141.996555 194.660156 
L 142.405626 194.660156 
L 142.459451 193.606784 
L 143.144465 193.606784 
L 143.144465 193.080098 
L 143.451774 193.080098 
L 143.502469 192.026726 
L 143.976867 192.026726 
L 143.976867 190.973354 
L 144.605813 190.973354 
L 144.605813 189.919981 
L 144.724207 189.919981 
L 144.747789 188.866609 
L 144.841802 188.866609 
L 144.91198 186.759865 
L 145.143889 186.759865 
L 145.143889 186.233179 
L 145.395476 186.233179 
L 145.440832 184.653121 
L 145.843812 184.653121 
L 145.843812 184.126434 
L 146.06373 184.126434 
L 146.06373 183.599748 
L 146.280909 183.599748 
L 146.345539 182.01969 
L 146.580487 182.01969 
L 146.686244 180.439632 
L 146.728368 180.439632 
L 146.749392 178.859574 
L 146.895853 178.859574 
L 146.978997 177.279515 
L 147.185137 177.279515 
L 147.185137 176.752829 
L 147.48985 176.752829 
L 147.570215 174.646085 
L 147.630247 174.646085 
L 147.650212 173.066027 
L 147.809113 173.066027 
L 147.86833 171.485969 
L 147.986163 171.485969 
L 148.025265 170.432596 
L 148.23877 170.432596 
L 148.23877 169.90591 
L 148.411533 169.90591 
L 148.506778 168.852538 
L 148.658095 168.852538 
L 148.695721 167.799166 
L 148.882639 167.799166 
L 148.919783 166.219108 
L 149.067574 166.219108 
L 149.067574 165.692422 
L 149.195872 165.692422 
L 149.268764 164.63905 
L 149.323233 164.63905 
L 149.323233 164.112363 
L 149.628721 164.112363 
L 149.628721 163.585677 
L 149.946449 163.585677 
L 150.033689 162.532305 
L 150.103169 162.532305 
L 150.103169 162.005619 
L 150.275665 162.005619 
L 150.309961 160.952247 
L 150.66605 160.952247 
L 150.716332 159.898875 
L 151.015013 159.898875 
L 151.080698 158.845503 
L 151.740076 158.845503 
L 151.803091 157.79213 
L 152.436193 157.79213 
L 152.436193 157.265444 
L 152.900071 157.265444 
L 152.900071 155.685386 
L 153.149313 155.685386 
L 153.250915 154.105328 
L 153.495227 154.105328 
L 153.509492 153.051956 
L 153.623196 153.051956 
L 153.637357 151.998584 
L 154.507086 151.998584 
L 154.533999 150.418525 
L 154.721232 150.418525 
L 154.721232 149.365153 
L 155.063706 149.365153 
L 155.063706 148.838467 
L 155.206599 148.838467 
L 155.206599 148.311781 
L 155.399584 148.311781 
L 155.399584 147.785095 
L 155.754208 147.785095 
L 155.816782 146.731723 
L 155.891575 146.731723 
L 155.97843 145.678351 
L 156.003167 145.678351 
L 156.003167 145.151665 
L 156.236431 145.151665 
L 156.236431 144.624978 
L 156.370066 144.624978 
L 156.370066 144.098292 
L 156.646219 144.098292 
L 156.646219 143.571606 
L 156.764934 143.571606 
L 156.764934 143.04492 
L 156.964915 143.04492 
L 156.976607 141.991548 
L 157.1279 141.991548 
L 157.139484 140.938176 
L 157.415209 140.938176 
L 157.415209 140.41149 
L 157.60791 140.41149 
L 157.675417 138.831432 
L 157.920731 138.831432 
L 158.031107 137.251373 
L 158.075062 137.251373 
L 158.162642 135.671315 
L 158.304027 135.671315 
L 158.304027 134.617943 
L 158.465753 134.617943 
L 158.562073 133.564571 
L 158.594062 133.564571 
L 158.594062 133.037885 
L 159.087709 133.037885 
L 159.17036 131.984513 
L 159.201253 131.984513 
L 159.273126 130.93114 
L 159.476858 130.93114 
L 159.557689 129.877768 
L 159.618067 129.877768 
L 159.618067 129.351082 
L 159.817832 129.351082 
L 159.906985 128.29771 
L 160.200913 128.29771 
L 160.297798 126.190966 
L 160.556731 126.190966 
L 160.651664 125.137593 
L 160.811875 125.137593 
L 160.886762 123.557535 
L 160.952025 123.557535 
L 160.952025 123.030849 
L 161.155563 123.030849 
L 161.155563 122.504163 
L 161.356752 122.504163 
L 161.456484 121.450791 
L 161.546656 121.450791 
L 161.546656 120.924105 
L 161.778945 120.924105 
L 161.840959 119.870733 
L 161.990653 119.870733 
L 161.990653 119.344047 
L 162.156452 119.344047 
L 162.217141 118.290674 
L 162.423627 118.290674 
L 162.423627 117.763988 
L 162.737246 117.763988 
L 162.80432 116.18393 
L 162.887802 116.18393 
L 162.962595 115.130558 
L 163.086542 115.130558 
L 163.127663 114.077186 
L 163.225959 114.077186 
L 163.323704 112.497128 
L 163.356164 112.497128 
L 163.453184 111.443755 
L 163.485404 111.443755 
L 163.557683 110.390383 
L 163.709295 110.390383 
L 163.748975 109.337011 
L 163.835954 109.337011 
L 163.930348 107.756953 
L 163.969529 107.756953 
L 164.063205 106.703581 
L 164.148635 106.703581 
L 164.195057 105.650209 
L 164.302897 105.650209 
L 164.410075 103.543464 
L 164.50142 103.543464 
L 164.50142 103.016778 
L 164.675172 103.016778 
L 164.765143 101.43672 
L 164.832318 101.43672 
L 164.928893 100.383348 
L 164.995441 100.383348 
L 164.995441 99.856662 
L 165.127781 99.856662 
L 165.127781 99.329976 
L 165.367825 99.329976 
L 165.403908 97.749917 
L 165.518877 97.749917 
L 165.568939 96.169859 
L 165.633093 96.169859 
L 165.7041 95.116487 
L 165.824152 95.116487 
L 165.915403 94.063115 
L 166.027059 94.063115 
L 166.096483 92.483056 
L 166.172531 92.483056 
L 166.282559 90.376312 
L 166.303112 90.376312 
L 166.364626 86.68951 
L 166.419124 86.68951 
L 166.419124 86.162824 
L 166.534369 86.162824 
L 166.547878 85.109451 
L 166.735904 85.109451 
L 166.742582 83.529393 
L 166.915315 83.529393 
L 166.981298 82.476021 
L 167.053592 82.476021 
L 167.053592 81.949335 
L 167.288118 81.949335 
L 167.391347 79.842591 
L 167.46837 79.842591 
L 167.55143 78.262532 
L 167.703739 78.262532 
L 167.747913 77.20916 
L 167.854729 77.20916 
L 167.960895 74.57573 
L 167.979563 74.57573 
L 167.979563 74.049044 
L 168.097334 74.049044 
L 168.165155 72.995672 
L 168.330516 72.995672 
L 168.427772 71.415613 
L 168.445948 71.415613 
L 168.548585 68.782183 
L 168.662588 68.782183 
L 168.698434 66.675439 
L 168.811464 66.675439 
L 168.917874 65.09538 
L 168.970836 65.09538 
L 169.07628 60.881892 
L 169.087957 60.881892 
L 169.181091 58.248461 
L 169.262177 58.248461 
L 169.337135 56.668403 
L 169.417501 56.668403 
L 169.503198 54.034973 
L 169.543046 54.034973 
L 169.577129 52.454914 
L 169.662047 52.454914 
L 169.763406 50.34817 
L 169.78585 50.34817 
L 169.836245 48.241426 
L 169.997643 48.241426 
L 170.102583 46.134681 
L 170.119095 46.134681 
L 170.195944 45.081309 
L 170.272457 45.081309 
L 170.272457 44.027937 
L 170.419074 44.027937 
L 170.419074 43.501251 
L 170.532264 43.501251 
L 170.532264 42.974565 
L 170.698023 42.974565 
L 170.740545 41.921193 
L 170.935871 41.921193 
L 170.935871 41.394507 
L 171.273802 41.394507 
L 171.273802 40.341135 
L 171.473461 40.341135 
L 171.580031 39.287762 
L 171.590146 39.287762 
L 171.660792 37.707704 
L 171.81621 37.707704 
L 171.900854 36.654332 
L 171.975201 36.654332 
L 172.029522 35.60096 
L 172.147455 35.60096 
L 172.225636 34.547588 
L 172.351938 34.547588 
L 172.351938 34.020902 
L 172.544479 34.020902 
L 172.630434 32.967529 
L 172.843486 32.967529 
L 172.852895 31.914157 
L 173.38554 31.914157 
L 173.38554 31.387471 
L 173.862495 31.387471 
L 173.862495 30.860785 
L 174.287811 30.860785 
L 174.287811 30.334099 
L 338.688 30.334099 
L 338.688 30.334099 
" style="fill:none;stroke:#0000ff;stroke-linecap:square;stroke-width:1.5;"/>
   </g>
   <g id="line2d_39">
    <defs>
     <path d="M 0 -6 
L -1.347084 -1.854102 
L -5.706339 -1.854102 
L -2.179628 0.708204 
L -3.526712 4.854102 
L -0 2.291796 
L 3.526712 4.854102 
L 2.179628 0.708204 
L 5.706339 -1.854102 
L 1.347084 -1.854102 
z
" id="maa7d680e86" style="stroke:#0000ff;stroke-linejoin:bevel;stroke-width:1.5;"/>
    </defs>
    <g>
     <use style="fill-opacity:0;stroke:#0000ff;stroke-linejoin:bevel;stroke-width:1.5;" x="106.382575" xlink:href="#maa7d680e86" y="257.862486"/>
     <use style="fill-opacity:0;stroke:#0000ff;stroke-linejoin:bevel;stroke-width:1.5;" x="159.618067" xlink:href="#maa7d680e86" y="129.877768"/>
     <use style="fill-opacity:0;stroke:#0000ff;stroke-linejoin:bevel;stroke-width:1.5;" x="174.287811" xlink:href="#maa7d680e86" y="30.860785"/>
     <use style="fill-opacity:0;stroke:#0000ff;stroke-linejoin:bevel;stroke-width:1.5;" x="174.287811" xlink:href="#maa7d680e86" y="30.334099"/>
     <use style="fill-opacity:0;stroke:#0000ff;stroke-linejoin:bevel;stroke-width:1.5;" x="174.287811" xlink:href="#maa7d680e86" y="30.334099"/>
     <use style="fill-opacity:0;stroke:#0000ff;stroke-linejoin:bevel;stroke-width:1.5;" x="338.688" xlink:href="#maa7d680e86" y="30.334099"/>
    </g>
   </g>
   <g id="line2d_40">
    <path style="fill:none;stroke:#0000ff;stroke-linecap:square;stroke-width:1.5;"/>
    <g/>
   </g>
   <g id="line2d_41">
    <defs>
     <path d="M 0 1.5 
C 0.397805 1.5 0.77937 1.341951 1.06066 1.06066 
C 1.341951 0.77937 1.5 0.397805 1.5 0 
C 1.5 -0.397805 1.341951 -0.77937 1.06066 -1.06066 
C 0.77937 -1.341951 0.397805 -1.5 0 -1.5 
C -0.397805 -1.5 -0.77937 -1.341951 -1.06066 -1.06066 
C -1.341951 -0.77937 -1.5 -0.397805 -1.5 0 
C -1.5 0.397805 -1.341951 0.77937 -1.06066 1.06066 
C -0.77937 1.341951 -0.397805 1.5 0 1.5 
z
" id="m56afe87a57" style="stroke:#000000;"/>
    </defs>
    <g>
     <use style="stroke:#000000;" x="181.738737" xlink:href="#m56afe87a57" y="30.334099"/>
     <use style="stroke:#000000;" x="181.738737" xlink:href="#m56afe87a57" y="30.334099"/>
    </g>
   </g>
   <g id="line2d_42">
    <path d="M 17.444571 298.944 
L 17.444571 286.83022 
L 41.620548 286.83022 
L 41.620548 286.303534 
L 48.691568 286.303534 
L 48.691568 285.776848 
L 53.708537 285.776848 
L 53.708537 285.250162 
L 60.779557 285.250162 
L 60.779557 284.19679 
L 62.175444 284.19679 
L 62.175444 283.670104 
L 65.796525 283.670104 
L 65.796525 283.143418 
L 69.687988 283.143418 
L 69.687988 281.563359 
L 78.421149 281.563359 
L 78.421149 281.036673 
L 78.941764 281.036673 
L 78.941764 280.509987 
L 79.938565 280.509987 
L 79.938565 279.983301 
L 80.416384 279.983301 
L 80.416384 279.456615 
L 82.626842 279.456615 
L 82.626842 278.403243 
L 84.588378 278.403243 
L 84.588378 277.876557 
L 88.255778 277.876557 
L 88.255778 277.349871 
L 89.697862 277.349871 
L 89.697862 276.296499 
L 89.972502 276.296499 
L 89.972502 275.769812 
L 91.284345 275.769812 
L 91.284345 275.243126 
L 91.782644 275.243126 
L 91.782644 274.71644 
L 92.026554 274.71644 
L 92.026554 274.189754 
L 92.267099 274.189754 
L 92.267099 273.663068 
L 92.504372 273.663068 
L 92.504372 273.136382 
L 92.73846 273.136382 
L 92.73846 272.609696 
L 95.326798 272.609696 
L 95.326798 272.08301 
L 95.723163 272.08301 
L 95.723163 271.556324 
L 96.676366 271.556324 
L 96.676366 271.029638 
L 98.100772 271.029638 
L 98.100772 269.976266 
L 98.270913 269.976266 
L 98.270913 269.449579 
L 99.886816 269.449579 
L 99.886816 268.922893 
L 100.192776 268.922893 
L 100.192776 267.869521 
L 101.223245 267.869521 
L 101.223245 267.342835 
L 102.060491 267.342835 
L 102.060491 266.816149 
L 102.989037 266.816149 
L 102.989037 266.289463 
L 103.870632 266.289463 
L 103.870632 265.762777 
L 104.114542 265.762777 
L 104.114542 265.236091 
L 104.826449 265.236091 
L 104.826449 264.709405 
L 104.942325 264.709405 
L 104.942325 264.182719 
L 105.171792 264.182719 
L 105.171792 263.656033 
L 105.951954 263.656033 
L 105.951954 263.129347 
L 106.48859 263.129347 
L 106.593963 262.075974 
L 107.314272 262.075974 
L 107.314272 261.549288 
L 108.671345 261.549288 
L 108.764355 260.495916 
L 108.856871 260.495916 
L 108.856871 259.96923 
L 109.131511 259.96923 
L 109.131511 259.442544 
L 109.491096 259.442544 
L 109.491096 258.915858 
L 111.185562 258.915858 
L 111.185562 258.389172 
L 111.505558 258.389172 
L 111.505558 257.862486 
L 111.663381 257.862486 
L 111.663381 257.3358 
L 112.655818 257.3358 
L 112.655818 256.809114 
L 113.594805 256.809114 
L 113.594805 256.282427 
L 113.873839 256.282427 
L 113.873839 255.755741 
L 114.148479 255.755741 
L 114.148479 254.702369 
L 114.552496 254.702369 
L 114.618932 253.648997 
L 114.882171 253.648997 
L 114.882171 253.122311 
L 115.012316 253.122311 
L 115.012316 252.595625 
L 115.773423 252.595625 
L 115.835374 251.542253 
L 116.081002 251.542253 
L 116.081002 251.015567 
L 116.262979 251.015567 
L 116.262979 250.488881 
L 116.621333 250.488881 
L 116.621333 249.435508 
L 117.202696 249.435508 
L 117.202696 248.908822 
L 117.316679 248.908822 
L 117.316679 248.382136 
L 117.429921 248.382136 
L 117.429921 247.85545 
L 117.765302 247.85545 
L 117.875678 246.275392 
L 118.838828 246.275392 
L 118.838828 245.748706 
L 119.351785 245.748706 
L 119.351785 245.22202 
L 119.751557 245.22202 
L 119.751557 244.695334 
L 120.045484 244.695334 
L 120.093994 243.115275 
L 120.47729 243.115275 
L 120.47729 242.588589 
L 120.759333 242.588589 
L 120.759333 242.061903 
L 121.310093 242.061903 
L 121.355214 241.008531 
L 121.579085 241.008531 
L 121.579085 240.481845 
L 121.756135 240.481845 
L 121.756135 239.955159 
L 122.104932 239.955159 
L 122.104932 239.428473 
L 122.489167 239.428473 
L 122.489167 237.848415 
L 122.699028 237.848415 
L 122.699028 237.321729 
L 123.192626 237.321729 
L 123.233135 235.74167 
L 124.330801 235.74167 
L 124.330801 235.214984 
L 124.854767 235.214984 
L 124.854767 234.688298 
L 125.074593 234.688298 
L 125.074593 234.161612 
L 125.291682 234.161612 
L 125.399222 232.581554 
L 125.787955 232.581554 
L 125.787955 232.054868 
L 126.372183 232.054868 
L 126.439646 230.47481 
L 126.50685 230.47481 
L 126.50685 229.948123 
L 126.640485 229.948123 
L 126.640485 229.421437 
L 127.002787 229.421437 
L 127.002787 228.894751 
L 127.132689 228.894751 
L 127.132689 228.368065 
L 127.293718 228.368065 
L 127.293718 227.841379 
L 127.453273 227.841379 
L 127.453273 227.314693 
L 127.642832 227.314693 
L 127.642832 226.788007 
L 128.168991 226.788007 
L 128.260216 225.207949 
L 128.531065 225.207949 
L 128.590686 224.154577 
L 129.290685 224.154577 
L 129.290685 223.627891 
L 129.404667 223.627891 
L 129.404667 223.101204 
L 129.714332 223.101204 
L 129.714332 222.574518 
L 129.88095 222.574518 
L 129.88095 222.047832 
L 130.073348 222.047832 
L 130.073348 221.521146 
L 130.263646 221.521146 
L 130.290663 218.887716 
L 130.585116 218.887716 
L 130.585116 218.36103 
L 130.822389 218.36103 
L 130.900768 215.727599 
L 131.515432 215.727599 
L 131.565689 214.674227 
L 131.690703 214.674227 
L 131.690703 214.147541 
L 132.084827 214.147541 
L 132.084827 213.620855 
L 132.206187 213.620855 
L 132.206187 213.094169 
L 132.350712 213.094169 
L 132.350712 212.567483 
L 132.565279 212.567483 
L 132.565279 212.040797 
L 132.777237 212.040797 
L 132.777237 210.987425 
L 132.893889 210.987425 
L 132.893889 210.460738 
L 133.352844 210.460738 
L 133.352844 209.934052 
L 133.488207 209.934052 
L 133.488207 209.407366 
L 133.910056 209.407366 
L 133.997581 208.353994 
L 134.062938 208.353994 
L 134.062938 207.827308 
L 134.192921 207.827308 
L 134.257551 206.24725 
L 134.364738 206.24725 
L 134.364738 205.720564 
L 134.61933 205.720564 
L 134.640379 204.667192 
L 135.056115 204.667192 
L 135.138086 202.033761 
L 135.240011 202.033761 
L 135.240011 201.507075 
L 135.701341 201.507075 
L 135.740886 200.453703 
L 135.937276 200.453703 
L 135.937276 199.927017 
L 136.456742 199.927017 
L 136.456742 199.400331 
L 137.126135 199.400331 
L 137.126135 198.873645 
L 137.469333 198.873645 
L 137.469333 198.346959 
L 137.594091 198.346959 
L 137.594091 197.820273 
L 137.753193 197.820273 
L 137.753193 196.7669 
L 138.645071 196.7669 
L 138.645071 196.240214 
L 138.761723 196.240214 
L 138.761723 195.713528 
L 139.058148 195.713528 
L 139.058148 195.186842 
L 139.220677 195.186842 
L 139.220677 194.660156 
L 139.397728 194.660156 
L 139.397728 194.13347 
L 139.77789 194.13347 
L 139.8092 193.080098 
L 140.149942 193.080098 
L 140.149942 192.553412 
L 141.321401 192.553412 
L 141.321401 192.026726 
L 141.521035 192.026726 
L 141.521035 191.50004 
L 141.662245 191.50004 
L 141.662245 190.973354 
L 141.858037 190.973354 
L 141.858037 190.446667 
L 142.037896 190.446667 
L 142.120287 188.866609 
L 142.351634 188.866609 
L 142.351634 188.339923 
L 142.606619 188.339923 
L 142.619936 186.759865 
L 143.349938 186.759865 
L 143.349938 186.233179 
L 143.578237 186.233179 
L 143.641127 185.179807 
L 143.853271 185.179807 
L 143.853271 184.653121 
L 144.075117 184.653121 
L 144.172816 183.073062 
L 144.221461 183.073062 
L 144.221461 182.546376 
L 144.342484 182.546376 
L 144.342484 182.01969 
L 144.605813 182.01969 
L 144.605813 181.493004 
L 144.759569 181.493004 
L 144.759569 180.966318 
L 144.91198 180.966318 
L 144.970247 179.38626 
L 145.338615 179.38626 
L 145.338615 178.859574 
L 145.463466 178.859574 
L 145.463466 178.332888 
L 145.587429 178.332888 
L 145.587429 177.806202 
L 145.743936 177.806202 
L 145.843812 176.752829 
L 145.96511 176.752829 
L 146.06373 175.699457 
L 146.259313 175.699457 
L 146.280909 174.646085 
L 146.431341 174.646085 
L 146.431341 174.119399 
L 146.854132 174.119399 
L 146.854132 173.592713 
L 147.010073 173.592713 
L 147.010073 173.066027 
L 147.52003 173.066027 
L 147.540122 172.012655 
L 147.640233 172.012655 
L 147.640233 171.485969 
L 147.779429 171.485969 
L 147.828875 169.90591 
L 147.946974 169.90591 
L 147.946974 169.379224 
L 148.093482 169.379224 
L 148.093482 168.852538 
L 148.334961 168.852538 
L 148.334961 168.325852 
L 148.554206 168.325852 
L 148.554206 167.799166 
L 148.742638 167.799166 
L 148.742638 167.27248 
L 148.938326 167.27248 
L 149.021524 165.692422 
L 149.113504 165.692422 
L 149.113504 165.165736 
L 149.314167 165.165736 
L 149.314167 164.63905 
L 149.449671 164.63905 
L 149.530471 163.585677 
L 149.690956 163.585677 
L 149.690956 163.058991 
L 149.83238 163.058991 
L 149.83238 162.532305 
L 150.395406 162.532305 
L 150.480434 161.478933 
L 150.624038 161.478933 
L 150.716332 160.425561 
L 150.741418 160.425561 
L 150.783149 159.372189 
L 150.891184 159.372189 
L 150.973835 158.318817 
L 151.469695 158.318817 
L 151.485716 157.265444 
L 151.724287 157.265444 
L 151.724287 156.738758 
L 152.037389 156.738758 
L 152.037389 156.212072 
L 152.428609 156.212072 
L 152.534486 155.1587 
L 152.707042 155.1587 
L 152.781537 154.105328 
L 153.127464 154.105328 
L 153.192929 153.051956 
L 153.502361 153.051956 
L 153.502361 152.52527 
L 153.623196 152.52527 
L 153.623196 151.998584 
L 153.7432 151.998584 
L 153.848404 150.418525 
L 153.952977 150.418525 
L 153.952977 149.891839 
L 154.687945 149.891839 
L 154.687945 149.365153 
L 154.886723 149.365153 
L 154.952482 147.258409 
L 155.463441 147.258409 
L 155.55879 146.205037 
L 155.653621 146.205037 
L 155.760475 145.151665 
L 155.841748 145.151665 
L 155.841748 144.624978 
L 155.996986 144.624978 
L 156.058696 143.04492 
L 156.574599 143.04492 
L 156.670026 141.991548 
L 156.705677 141.991548 
L 156.753099 140.938176 
L 156.923929 140.938176 
L 157.011638 138.304745 
L 157.437991 138.304745 
L 157.523158 137.251373 
L 157.647321 137.251373 
L 157.714676 136.198001 
L 157.84305 136.198001 
L 157.915194 135.144629 
L 158.025604 135.144629 
L 158.080549 134.091257 
L 158.276927 134.091257 
L 158.314856 133.037885 
L 158.401243 133.037885 
L 158.401243 132.511199 
L 158.51398 132.511199 
L 158.51398 131.984513 
L 158.779504 131.984513 
L 158.779504 131.457826 
L 159.020266 131.457826 
L 159.103236 130.404454 
L 159.139412 130.404454 
L 159.247491 129.351082 
L 159.298723 129.351082 
L 159.298723 128.824396 
L 159.502158 128.824396 
L 159.537516 127.771024 
L 159.703247 127.771024 
L 159.768105 126.717652 
L 159.872369 126.717652 
L 159.872369 126.190966 
L 160.103486 126.190966 
L 160.20577 125.137593 
L 160.360486 125.137593 
L 160.466062 124.084221 
L 160.736665 124.084221 
L 160.750792 123.030849 
L 161.077205 123.030849 
L 161.160161 121.977477 
L 161.238149 121.977477 
L 161.26559 120.924105 
L 161.451963 120.924105 
L 161.451963 120.397419 
L 161.582595 120.397419 
L 161.591568 119.344047 
L 161.814408 119.344047 
L 161.823263 118.290674 
L 161.959939 118.290674 
L 162.021314 116.710616 
L 162.260361 116.710616 
L 162.346481 114.603872 
L 162.397949 114.603872 
L 162.491916 113.5505 
L 162.55145 113.5505 
L 162.55145 113.023814 
L 162.699403 113.023814 
L 162.699403 112.497128 
L 162.829407 112.497128 
L 162.90861 111.443755 
L 163.086542 111.443755 
L 163.086542 110.917069 
L 163.343998 110.917069 
L 163.441086 109.863697 
L 163.469301 109.863697 
L 163.469301 109.337011 
L 163.84384 109.337011 
L 163.84384 108.810325 
L 164.043731 108.810325 
L 164.043731 108.283639 
L 164.310575 108.283639 
L 164.310575 107.756953 
L 164.618704 107.756953 
L 164.697709 106.176895 
L 164.798763 106.176895 
L 164.873242 105.123522 
L 164.958502 105.123522 
L 165.010195 104.07015 
L 165.113126 104.07015 
L 165.215452 102.490092 
L 165.237301 102.490092 
L 165.237301 101.963406 
L 165.371436 101.963406 
L 165.396698 100.910034 
L 165.629535 100.910034 
L 165.718267 98.803289 
L 165.77129 98.803289 
L 165.845252 97.749917 
L 165.96434 97.749917 
L 165.96434 97.223231 
L 166.155277 97.223231 
L 166.224193 96.169859 
L 166.601807 96.169859 
L 166.601807 95.643173 
L 166.819194 95.643173 
L 166.819194 95.116487 
L 167.216791 95.116487 
L 167.255733 94.063115 
L 167.397779 94.063115 
L 167.410635 93.009743 
L 167.573724 93.009743 
L 167.621403 91.95637 
L 167.732149 91.95637 
L 167.732149 91.429684 
L 167.882895 91.429684 
L 167.985782 89.32294 
L 168.075699 89.32294 
L 168.183606 87.742882 
L 168.260276 87.742882 
L 168.260276 87.216196 
L 168.575653 87.216196 
L 168.575653 86.68951 
L 168.746115 86.68951 
L 168.746115 86.162824 
L 169.017779 86.162824 
L 169.114201 84.582765 
L 169.134586 84.582765 
L 169.134586 84.056079 
L 169.253507 84.056079 
L 169.253507 83.529393 
L 169.394577 83.529393 
L 169.480386 82.476021 
L 169.754982 82.476021 
L 169.811066 81.422649 
L 169.919913 81.422649 
L 170.011487 79.842591 
L 170.058475 79.842591 
L 170.066754 78.789218 
L 170.228776 78.789218 
L 170.228776 78.262532 
L 170.440691 78.262532 
L 170.486538 77.20916 
L 170.569832 77.20916 
L 170.569832 76.682474 
L 170.764418 76.682474 
L 170.764418 76.155788 
L 170.904345 76.155788 
L 170.935871 75.102416 
L 171.224819 75.102416 
L 171.224819 74.57573 
L 171.425036 74.57573 
L 171.509057 73.522358 
L 171.617934 73.522358 
L 171.668344 72.468985 
L 171.738674 72.468985 
L 171.841148 71.415613 
L 172.308321 71.415613 
L 172.385786 70.362241 
L 172.575567 70.362241 
L 172.575567 69.835555 
L 172.866999 69.835555 
L 172.866999 69.308869 
L 173.03536 69.308869 
L 173.03536 68.782183 
L 173.24815 68.782183 
L 173.24815 68.255497 
L 173.458374 68.255497 
L 173.458374 67.728811 
L 173.72659 67.728811 
L 173.72659 67.202125 
L 173.846953 67.202125 
L 173.846953 66.675439 
L 174.102737 66.675439 
L 174.194431 65.09538 
L 174.248782 65.09538 
L 174.341873 64.042008 
L 174.660652 64.042008 
L 174.660652 63.515322 
L 174.875564 63.515322 
L 174.875564 62.988636 
L 175.006993 62.988636 
L 175.006993 62.46195 
L 175.164235 62.46195 
L 175.266916 61.408578 
L 175.318031 61.408578 
L 175.318031 60.881892 
L 175.535124 60.881892 
L 175.535124 60.355206 
L 175.759504 60.355206 
L 175.829035 59.301833 
L 175.912107 59.301833 
L 175.971204 58.248461 
L 176.092705 58.248461 
L 176.168702 56.668403 
L 176.313925 56.668403 
L 176.362065 55.615031 
L 176.427324 55.615031 
L 176.461773 54.561659 
L 176.559013 54.561659 
L 176.665166 52.9816 
L 176.716117 52.9816 
L 176.76504 51.928228 
L 176.873685 51.928228 
L 176.873685 51.401542 
L 177.007619 51.401542 
L 177.085275 50.34817 
L 177.16626 50.34817 
L 177.16626 49.821484 
L 177.31983 49.821484 
L 177.31983 49.294798 
L 177.597911 49.294798 
L 177.597911 48.768112 
L 177.781456 48.768112 
L 177.781456 48.241426 
L 177.903342 48.241426 
L 177.903342 47.71474 
L 178.094166 47.71474 
L 178.113308 46.661368 
L 178.277758 46.661368 
L 178.319058 45.081309 
L 178.541087 45.081309 
L 178.639242 44.027937 
L 178.73349 44.027937 
L 178.73349 43.501251 
L 178.858923 43.501251 
L 178.888893 42.447879 
L 179.057758 42.447879 
L 179.14486 40.867821 
L 179.450364 40.867821 
L 179.468075 39.814448 
L 179.642605 39.814448 
L 179.642605 39.287762 
L 179.802781 39.287762 
L 179.802781 38.761076 
L 180.260834 38.761076 
L 180.369672 36.654332 
L 180.493015 36.654332 
L 180.594385 35.074274 
L 180.615492 35.074274 
L 180.722145 34.020902 
L 180.844516 34.020902 
L 180.94239 32.967529 
L 181.247296 32.967529 
L 181.311118 31.914157 
L 181.406414 31.914157 
L 181.406414 31.387471 
L 181.575507 31.387471 
L 181.575507 30.860785 
L 181.738737 30.860785 
L 181.738737 30.334099 
L 338.688 30.334099 
L 338.688 30.334099 
" style="fill:none;stroke:#000000;stroke-linecap:square;stroke-width:1.5;"/>
   </g>
   <g id="line2d_43">
    <defs>
     <path d="M 0 6 
C 1.591219 6 3.117479 5.367802 4.242641 4.242641 
C 5.367802 3.117479 6 1.591219 6 0 
C 6 -1.591219 5.367802 -3.117479 4.242641 -4.242641 
C 3.117479 -5.367802 1.591219 -6 0 -6 
C -1.591219 -6 -3.117479 -5.367802 -4.242641 -4.242641 
C -5.367802 -3.117479 -6 -1.591219 -6 0 
C -6 1.591219 -5.367802 3.117479 -4.242641 4.242641 
C -3.117479 5.367802 -1.591219 6 0 6 
z
" id="m3fe8f0ccce" style="stroke:#000000;stroke-width:1.5;"/>
    </defs>
    <g>
     <use style="fill-opacity:0;stroke:#000000;stroke-width:1.5;" x="109.491096" xlink:href="#m3fe8f0ccce" y="258.915858"/>
     <use style="fill-opacity:0;stroke:#000000;stroke-width:1.5;" x="165.010195" xlink:href="#m3fe8f0ccce" y="104.596836"/>
     <use style="fill-opacity:0;stroke:#000000;stroke-width:1.5;" x="181.738737" xlink:href="#m3fe8f0ccce" y="30.860785"/>
     <use style="fill-opacity:0;stroke:#000000;stroke-width:1.5;" x="181.738737" xlink:href="#m3fe8f0ccce" y="30.334099"/>
     <use style="fill-opacity:0;stroke:#000000;stroke-width:1.5;" x="181.738737" xlink:href="#m3fe8f0ccce" y="30.334099"/>
     <use style="fill-opacity:0;stroke:#000000;stroke-width:1.5;" x="338.688" xlink:href="#m3fe8f0ccce" y="30.334099"/>
    </g>
   </g>
   <g id="line2d_44">
    <path style="fill:none;stroke:#000000;stroke-linecap:square;stroke-width:1.5;"/>
    <g/>
   </g>
   <g id="line2d_45">
    <path d="M 338.688 30.334099 
L 369.60768 293.571802 
" style="fill:none;stroke:#000000;stroke-linecap:square;stroke-width:1.5;"/>
    <g>
     <use style="fill-opacity:0;stroke:#000000;stroke-width:1.5;" x="338.688" xlink:href="#m3fe8f0ccce" y="30.334099"/>
     <use style="fill-opacity:0;stroke:#000000;stroke-width:1.5;" x="369.60768" xlink:href="#m3fe8f0ccce" y="293.571802"/>
    </g>
   </g>
   <g id="line2d_46">
    <path d="M 338.688 30.334099 
L 369.60768 207.616634 
" style="fill:none;stroke:#0000ff;stroke-linecap:square;stroke-width:1.5;"/>
    <g>
     <use style="fill-opacity:0;stroke:#0000ff;stroke-linejoin:bevel;stroke-width:1.5;" x="338.688" xlink:href="#maa7d680e86" y="30.334099"/>
     <use style="fill-opacity:0;stroke:#0000ff;stroke-linejoin:bevel;stroke-width:1.5;" x="369.60768" xlink:href="#maa7d680e86" y="207.616634"/>
    </g>
   </g>
   <g id="line2d_47">
    <path d="M 338.688 30.334099 
L 369.60768 121.661465 
" style="fill:none;stroke:#00bfbf;stroke-linecap:square;stroke-width:1.5;"/>
    <g>
     <use style="fill-opacity:0;stroke:#00bfbf;stroke-width:1.5;" x="338.688" xlink:href="#m0011473b63" y="30.334099"/>
     <use style="fill-opacity:0;stroke:#00bfbf;stroke-width:1.5;" x="369.60768" xlink:href="#m0011473b63" y="121.661465"/>
    </g>
   </g>
   <g id="line2d_48">
    <path d="M 338.688 30.334099 
L 369.60768 35.706297 
" style="fill:none;stroke:#008000;stroke-linecap:square;stroke-width:1.5;"/>
    <g>
     <use style="fill-opacity:0;stroke:#008000;stroke-linejoin:miter;stroke-width:1.5;" x="338.688" xlink:href="#m658e954775" y="30.334099"/>
     <use style="fill-opacity:0;stroke:#008000;stroke-linejoin:miter;stroke-width:1.5;" x="369.60768" xlink:href="#m658e954775" y="35.706297"/>
    </g>
   </g>
   <g id="line2d_49">
    <path d="M 338.688 298.944 
L 338.688 30.334099 
" style="fill:none;stroke:#000000;stroke-linecap:square;stroke-width:1.5;"/>
   </g>
   <g id="patch_3">
    <path d="M 57.6 298.944 
L 57.6 27.648 
" style="fill:none;stroke:#000000;stroke-linecap:square;stroke-linejoin:miter;stroke-width:0.8;"/>
   </g>
   <g id="patch_4">
    <path d="M 338.688 298.944 
L 338.688 27.648 
" style="fill:none;stroke:#000000;stroke-linecap:square;stroke-linejoin:miter;stroke-width:0.8;"/>
   </g>
   <g id="patch_5">
    <path d="M 57.6 298.944 
L 338.688 298.944 
" style="fill:none;stroke:#000000;stroke-linecap:square;stroke-linejoin:miter;stroke-width:0.8;"/>
   </g>
   <g id="patch_6">
    <path d="M 57.6 27.648 
L 338.688 27.648 
" style="fill:none;stroke:#000000;stroke-linecap:square;stroke-linejoin:miter;stroke-width:0.8;"/>
   </g>
   <g id="text_13">
    <!-- 10-D -->
    <g transform="translate(375.22944 298.262739)scale(0.17 -0.17)">
     <defs>
      <path d="M 19.671875 64.796875 
L 19.671875 8.109375 
L 31.59375 8.109375 
Q 46.6875 8.109375 53.6875 14.9375 
Q 60.6875 21.78125 60.6875 36.53125 
Q 60.6875 51.171875 53.6875 57.984375 
Q 46.6875 64.796875 31.59375 64.796875 
z
M 9.8125 72.90625 
L 30.078125 72.90625 
Q 51.265625 72.90625 61.171875 64.09375 
Q 71.09375 55.28125 71.09375 36.53125 
Q 71.09375 17.671875 61.125 8.828125 
Q 51.171875 0 30.078125 0 
L 9.8125 0 
z
" id="DejaVuSans-68"/>
     </defs>
     <use xlink:href="#DejaVuSans-49"/>
     <use x="63.623047" xlink:href="#DejaVuSans-48"/>
     <use x="127.246094" xlink:href="#DejaVuSans-45"/>
     <use x="163.330078" xlink:href="#DejaVuSans-68"/>
    </g>
   </g>
   <g id="text_14">
    <!-- 5-D -->
    <g transform="translate(375.22944 212.307571)scale(0.17 -0.17)">
     <defs>
      <path d="M 10.796875 72.90625 
L 49.515625 72.90625 
L 49.515625 64.59375 
L 19.828125 64.59375 
L 19.828125 46.734375 
Q 21.96875 47.46875 24.109375 47.828125 
Q 26.265625 48.1875 28.421875 48.1875 
Q 40.625 48.1875 47.75 41.5 
Q 54.890625 34.8125 54.890625 23.390625 
Q 54.890625 11.625 47.5625 5.09375 
Q 40.234375 -1.421875 26.90625 -1.421875 
Q 22.3125 -1.421875 17.546875 -0.640625 
Q 12.796875 0.140625 7.71875 1.703125 
L 7.71875 11.625 
Q 12.109375 9.234375 16.796875 8.0625 
Q 21.484375 6.890625 26.703125 6.890625 
Q 35.15625 6.890625 40.078125 11.328125 
Q 45.015625 15.765625 45.015625 23.390625 
Q 45.015625 31 40.078125 35.4375 
Q 35.15625 39.890625 26.703125 39.890625 
Q 22.75 39.890625 18.8125 39.015625 
Q 14.890625 38.140625 10.796875 36.28125 
z
" id="DejaVuSans-53"/>
     </defs>
     <use xlink:href="#DejaVuSans-53"/>
     <use x="63.623047" xlink:href="#DejaVuSans-45"/>
     <use x="99.707031" xlink:href="#DejaVuSans-68"/>
    </g>
   </g>
   <g id="text_15">
    <!-- 2-D -->
    <g transform="translate(375.22944 126.352403)scale(0.17 -0.17)">
     <use xlink:href="#DejaVuSans-50"/>
     <use x="63.623047" xlink:href="#DejaVuSans-45"/>
     <use x="99.707031" xlink:href="#DejaVuSans-68"/>
    </g>
   </g>
   <g id="text_16">
    <!-- 3-D -->
    <g transform="translate(375.22944 40.397235)scale(0.17 -0.17)">
     <defs>
      <path d="M 40.578125 39.3125 
Q 47.65625 37.796875 51.625 33 
Q 55.609375 28.21875 55.609375 21.1875 
Q 55.609375 10.40625 48.1875 4.484375 
Q 40.765625 -1.421875 27.09375 -1.421875 
Q 22.515625 -1.421875 17.65625 -0.515625 
Q 12.796875 0.390625 7.625 2.203125 
L 7.625 11.71875 
Q 11.71875 9.328125 16.59375 8.109375 
Q 21.484375 6.890625 26.8125 6.890625 
Q 36.078125 6.890625 40.9375 10.546875 
Q 45.796875 14.203125 45.796875 21.1875 
Q 45.796875 27.640625 41.28125 31.265625 
Q 36.765625 34.90625 28.71875 34.90625 
L 20.21875 34.90625 
L 20.21875 43.015625 
L 29.109375 43.015625 
Q 36.375 43.015625 40.234375 45.921875 
Q 44.09375 48.828125 44.09375 54.296875 
Q 44.09375 59.90625 40.109375 62.90625 
Q 36.140625 65.921875 28.71875 65.921875 
Q 24.65625 65.921875 20.015625 65.03125 
Q 15.375 64.15625 9.8125 62.3125 
L 9.8125 71.09375 
Q 15.4375 72.65625 20.34375 73.4375 
Q 25.25 74.21875 29.59375 74.21875 
Q 40.828125 74.21875 47.359375 69.109375 
Q 53.90625 64.015625 53.90625 55.328125 
Q 53.90625 49.265625 50.4375 45.09375 
Q 46.96875 40.921875 40.578125 39.3125 
z
" id="DejaVuSans-51"/>
     </defs>
     <use xlink:href="#DejaVuSans-51"/>
     <use x="63.623047" xlink:href="#DejaVuSans-45"/>
     <use x="99.707031" xlink:href="#DejaVuSans-68"/>
    </g>
   </g>
   <g id="text_17">
    <!-- bbob f14 -->
    <g transform="translate(60.41088 38.111366)scale(0.102 -0.102)">
     <defs>
      <path d="M 48.6875 27.296875 
Q 48.6875 37.203125 44.609375 42.84375 
Q 40.53125 48.484375 33.40625 48.484375 
Q 26.265625 48.484375 22.1875 42.84375 
Q 18.109375 37.203125 18.109375 27.296875 
Q 18.109375 17.390625 22.1875 11.75 
Q 26.265625 6.109375 33.40625 6.109375 
Q 40.53125 6.109375 44.609375 11.75 
Q 48.6875 17.390625 48.6875 27.296875 
z
M 18.109375 46.390625 
Q 20.953125 51.265625 25.265625 53.625 
Q 29.59375 56 35.59375 56 
Q 45.5625 56 51.78125 48.09375 
Q 58.015625 40.1875 58.015625 27.296875 
Q 58.015625 14.40625 51.78125 6.484375 
Q 45.5625 -1.421875 35.59375 -1.421875 
Q 29.59375 -1.421875 25.265625 0.953125 
Q 20.953125 3.328125 18.109375 8.203125 
L 18.109375 0 
L 9.078125 0 
L 9.078125 75.984375 
L 18.109375 75.984375 
z
" id="DejaVuSans-98"/>
     </defs>
     <use xlink:href="#DejaVuSans-98"/>
     <use x="63.476562" xlink:href="#DejaVuSans-98"/>
     <use x="126.953125" xlink:href="#DejaVuSans-111"/>
     <use x="188.134766" xlink:href="#DejaVuSans-98"/>
     <use x="251.611328" xlink:href="#DejaVuSans-32"/>
     <use x="283.398438" xlink:href="#DejaVuSans-102"/>
     <use x="318.603516" xlink:href="#DejaVuSans-49"/>
     <use x="382.226562" xlink:href="#DejaVuSans-52"/>
    </g>
    <!-- 51 targets: 100..1e-08 -->
    <g transform="translate(60.41088 49.533135)scale(0.102 -0.102)">
     <defs>
      <path d="M 11.71875 12.40625 
L 22.015625 12.40625 
L 22.015625 0 
L 11.71875 0 
z
M 11.71875 51.703125 
L 22.015625 51.703125 
L 22.015625 39.3125 
L 11.71875 39.3125 
z
" id="DejaVuSans-58"/>
     </defs>
     <use xlink:href="#DejaVuSans-53"/>
     <use x="63.623047" xlink:href="#DejaVuSans-49"/>
     <use x="127.246094" xlink:href="#DejaVuSans-32"/>
     <use x="159.033203" xlink:href="#DejaVuSans-116"/>
     <use x="198.242188" xlink:href="#DejaVuSans-97"/>
     <use x="259.521484" xlink:href="#DejaVuSans-114"/>
     <use x="298.884766" xlink:href="#DejaVuSans-103"/>
     <use x="362.361328" xlink:href="#DejaVuSans-101"/>
     <use x="423.884766" xlink:href="#DejaVuSans-116"/>
     <use x="463.09375" xlink:href="#DejaVuSans-115"/>
     <use x="515.193359" xlink:href="#DejaVuSans-58"/>
     <use x="548.884766" xlink:href="#DejaVuSans-32"/>
     <use x="580.671875" xlink:href="#DejaVuSans-49"/>
     <use x="644.294922" xlink:href="#DejaVuSans-48"/>
     <use x="707.917969" xlink:href="#DejaVuSans-48"/>
     <use x="771.541016" xlink:href="#DejaVuSans-46"/>
     <use x="803.328125" xlink:href="#DejaVuSans-46"/>
     <use x="835.115234" xlink:href="#DejaVuSans-49"/>
     <use x="898.738281" xlink:href="#DejaVuSans-101"/>
     <use x="960.261719" xlink:href="#DejaVuSans-45"/>
     <use x="996.345703" xlink:href="#DejaVuSans-48"/>
     <use x="1059.96875" xlink:href="#DejaVuSans-56"/>
    </g>
    <!-- 15 instances -->
    <g transform="translate(60.41088 60.954904)scale(0.102 -0.102)">
     <use xlink:href="#DejaVuSans-49"/>
     <use x="63.623047" xlink:href="#DejaVuSans-53"/>
     <use x="127.246094" xlink:href="#DejaVuSans-32"/>
     <use x="159.033203" xlink:href="#DejaVuSans-105"/>
     <use x="186.816406" xlink:href="#DejaVuSans-110"/>
     <use x="250.195312" xlink:href="#DejaVuSans-115"/>
     <use x="302.294922" xlink:href="#DejaVuSans-116"/>
     <use x="341.503906" xlink:href="#DejaVuSans-97"/>
     <use x="402.783203" xlink:href="#DejaVuSans-110"/>
     <use x="466.162109" xlink:href="#DejaVuSans-99"/>
     <use x="521.142578" xlink:href="#DejaVuSans-101"/>
     <use x="582.666016" xlink:href="#DejaVuSans-115"/>
    </g>
   </g>
   <g id="text_18">
    <!-- v2.4 -->
    <g style="fill:#808080;" transform="translate(187.233062 294.151352)scale(0.1 -0.1)">
     <use xlink:href="#DejaVuSans-118"/>
     <use x="59.179688" xlink:href="#DejaVuSans-50"/>
     <use x="122.802734" xlink:href="#DejaVuSans-46"/>
     <use x="154.589844" xlink:href="#DejaVuSans-52"/>
    </g>
   </g>
   <g id="text_19">
    <!-- 14 Sum of different powers -->
    <g transform="translate(61.904937 21.648)scale(0.2 -0.2)">
     <defs>
      <path d="M 53.515625 70.515625 
L 53.515625 60.890625 
Q 47.90625 63.578125 42.921875 64.890625 
Q 37.9375 66.21875 33.296875 66.21875 
Q 25.25 66.21875 20.875 63.09375 
Q 16.5 59.96875 16.5 54.203125 
Q 16.5 49.359375 19.40625 46.890625 
Q 22.3125 44.4375 30.421875 42.921875 
L 36.375 41.703125 
Q 47.40625 39.59375 52.65625 34.296875 
Q 57.90625 29 57.90625 20.125 
Q 57.90625 9.515625 50.796875 4.046875 
Q 43.703125 -1.421875 29.984375 -1.421875 
Q 24.8125 -1.421875 18.96875 -0.25 
Q 13.140625 0.921875 6.890625 3.21875 
L 6.890625 13.375 
Q 12.890625 10.015625 18.65625 8.296875 
Q 24.421875 6.59375 29.984375 6.59375 
Q 38.421875 6.59375 43.015625 9.90625 
Q 47.609375 13.234375 47.609375 19.390625 
Q 47.609375 24.75 44.3125 27.78125 
Q 41.015625 30.8125 33.5 32.328125 
L 27.484375 33.5 
Q 16.453125 35.6875 11.515625 40.375 
Q 6.59375 45.0625 6.59375 53.421875 
Q 6.59375 63.09375 13.40625 68.65625 
Q 20.21875 74.21875 32.171875 74.21875 
Q 37.3125 74.21875 42.625 73.28125 
Q 47.953125 72.359375 53.515625 70.515625 
z
" id="DejaVuSans-83"/>
      <path d="M 4.203125 54.6875 
L 13.1875 54.6875 
L 24.421875 12.015625 
L 35.59375 54.6875 
L 46.1875 54.6875 
L 57.421875 12.015625 
L 68.609375 54.6875 
L 77.59375 54.6875 
L 63.28125 0 
L 52.6875 0 
L 40.921875 44.828125 
L 29.109375 0 
L 18.5 0 
z
" id="DejaVuSans-119"/>
     </defs>
     <use xlink:href="#DejaVuSans-49"/>
     <use x="63.623047" xlink:href="#DejaVuSans-52"/>
     <use x="127.246094" xlink:href="#DejaVuSans-32"/>
     <use x="159.033203" xlink:href="#DejaVuSans-83"/>
     <use x="222.509766" xlink:href="#DejaVuSans-117"/>
     <use x="285.888672" xlink:href="#DejaVuSans-109"/>
     <use x="383.300781" xlink:href="#DejaVuSans-32"/>
     <use x="415.087891" xlink:href="#DejaVuSans-111"/>
     <use x="476.269531" xlink:href="#DejaVuSans-102"/>
     <use x="511.474609" xlink:href="#DejaVuSans-32"/>
     <use x="543.261719" xlink:href="#DejaVuSans-100"/>
     <use x="606.738281" xlink:href="#DejaVuSans-105"/>
     <use x="634.521484" xlink:href="#DejaVuSans-102"/>
     <use x="669.726562" xlink:href="#DejaVuSans-102"/>
     <use x="704.931641" xlink:href="#DejaVuSans-101"/>
     <use x="766.455078" xlink:href="#DejaVuSans-114"/>
     <use x="805.318359" xlink:href="#DejaVuSans-101"/>
     <use x="866.841797" xlink:href="#DejaVuSans-110"/>
     <use x="930.220703" xlink:href="#DejaVuSans-116"/>
     <use x="969.429688" xlink:href="#DejaVuSans-32"/>
     <use x="1001.216797" xlink:href="#DejaVuSans-112"/>
     <use x="1064.693359" xlink:href="#DejaVuSans-111"/>
     <use x="1125.875" xlink:href="#DejaVuSans-119"/>
     <use x="1207.662109" xlink:href="#DejaVuSans-101"/>
     <use x="1269.185547" xlink:href="#DejaVuSans-114"/>
     <use x="1310.298828" xlink:href="#DejaVuSans-115"/>
    </g>
   </g>
  </g>
 </g>
 <defs>
  <clipPath id="p51cac918fe">
   <rect height="271.296" width="281.088" x="57.6" y="27.648"/>
  </clipPath>
 </defs>
</svg>
