<?xml version="1.0" encoding="utf-8" standalone="no"?>
<!DOCTYPE svg PUBLIC "-//W3C//DTD SVG 1.1//EN"
  "http://www.w3.org/Graphics/SVG/1.1/DTD/svg11.dtd">
<!-- Created with matplotlib (https://matplotlib.org/) -->
<svg height="345.6pt" version="1.1" viewBox="0 0 460.8 345.6" width="460.8pt" xmlns="http://www.w3.org/2000/svg" xmlns:xlink="http://www.w3.org/1999/xlink">
 <metadata>
  <rdf:RDF xmlns:cc="http://creativecommons.org/ns#" xmlns:dc="http://purl.org/dc/elements/1.1/" xmlns:rdf="http://www.w3.org/1999/02/22-rdf-syntax-ns#">
   <cc:Work>
    <dc:type rdf:resource="http://purl.org/dc/dcmitype/StillImage"/>
    <dc:date>2021-06-17T01:38:52.849730</dc:date>
    <dc:format>image/svg+xml</dc:format>
    <dc:creator>
     <cc:Agent>
      <dc:title>Matplotlib v3.3.4, https://matplotlib.org/</dc:title>
     </cc:Agent>
    </dc:creator>
   </cc:Work>
  </rdf:RDF>
 </metadata>
 <defs>
  <style type="text/css">*{stroke-linecap:butt;stroke-linejoin:round;}</style>
 </defs>
 <g id="figure_1">
  <g id="patch_1">
   <path d="M 0 345.6 
L 460.8 345.6 
L 460.8 0 
L 0 0 
z
" style="fill:#ffffff;"/>
  </g>
  <g id="axes_1">
   <g id="patch_2">
    <path d="M 57.6 298.944 
L 338.688 298.944 
L 338.688 3.456 
L 57.6 3.456 
z
" style="fill:#ffffff;"/>
   </g>
   <g id="matplotlib.axis_1">
    <g id="xtick_1">
     <g id="line2d_1">
      <path clip-path="url(#p46ceacc0bc)" d="M 57.6 298.944 
L 57.6 3.456 
" style="fill:none;stroke:#b0b0b0;stroke-linecap:square;stroke-width:0.8;"/>
     </g>
     <g id="line2d_2">
      <defs>
       <path d="M 0 0 
L 0 3.5 
" id="mad6584bdbb" style="stroke:#000000;stroke-width:0.8;"/>
      </defs>
      <g>
       <use style="stroke:#000000;stroke-width:0.8;" x="57.6" xlink:href="#mad6584bdbb" y="298.944"/>
      </g>
     </g>
     <g id="text_1">
      <!-- 0 -->
      <g transform="translate(51.2375 321.140875)scale(0.2 -0.2)">
       <defs>
        <path d="M 31.78125 66.40625 
Q 24.171875 66.40625 20.328125 58.90625 
Q 16.5 51.421875 16.5 36.375 
Q 16.5 21.390625 20.328125 13.890625 
Q 24.171875 6.390625 31.78125 6.390625 
Q 39.453125 6.390625 43.28125 13.890625 
Q 47.125 21.390625 47.125 36.375 
Q 47.125 51.421875 43.28125 58.90625 
Q 39.453125 66.40625 31.78125 66.40625 
z
M 31.78125 74.21875 
Q 44.046875 74.21875 50.515625 64.515625 
Q 56.984375 54.828125 56.984375 36.375 
Q 56.984375 17.96875 50.515625 8.265625 
Q 44.046875 -1.421875 31.78125 -1.421875 
Q 19.53125 -1.421875 13.0625 8.265625 
Q 6.59375 17.96875 6.59375 36.375 
Q 6.59375 54.828125 13.0625 64.515625 
Q 19.53125 74.21875 31.78125 74.21875 
z
" id="DejaVuSans-48"/>
       </defs>
       <use xlink:href="#DejaVuSans-48"/>
      </g>
     </g>
    </g>
    <g id="xtick_2">
     <g id="line2d_3">
      <path clip-path="url(#p46ceacc0bc)" d="M 137.910857 298.944 
L 137.910857 3.456 
" style="fill:none;stroke:#b0b0b0;stroke-linecap:square;stroke-width:0.8;"/>
     </g>
     <g id="line2d_4">
      <g>
       <use style="stroke:#000000;stroke-width:0.8;" x="137.910857" xlink:href="#mad6584bdbb" y="298.944"/>
      </g>
     </g>
     <g id="text_2">
      <!-- 2 -->
      <g transform="translate(131.548357 321.140875)scale(0.2 -0.2)">
       <defs>
        <path d="M 19.1875 8.296875 
L 53.609375 8.296875 
L 53.609375 0 
L 7.328125 0 
L 7.328125 8.296875 
Q 12.9375 14.109375 22.625 23.890625 
Q 32.328125 33.6875 34.8125 36.53125 
Q 39.546875 41.84375 41.421875 45.53125 
Q 43.3125 49.21875 43.3125 52.78125 
Q 43.3125 58.59375 39.234375 62.25 
Q 35.15625 65.921875 28.609375 65.921875 
Q 23.96875 65.921875 18.8125 64.3125 
Q 13.671875 62.703125 7.8125 59.421875 
L 7.8125 69.390625 
Q 13.765625 71.78125 18.9375 73 
Q 24.125 74.21875 28.421875 74.21875 
Q 39.75 74.21875 46.484375 68.546875 
Q 53.21875 62.890625 53.21875 53.421875 
Q 53.21875 48.921875 51.53125 44.890625 
Q 49.859375 40.875 45.40625 35.40625 
Q 44.1875 33.984375 37.640625 27.21875 
Q 31.109375 20.453125 19.1875 8.296875 
z
" id="DejaVuSans-50"/>
       </defs>
       <use xlink:href="#DejaVuSans-50"/>
      </g>
     </g>
    </g>
    <g id="xtick_3">
     <g id="line2d_5">
      <path clip-path="url(#p46ceacc0bc)" d="M 218.221714 298.944 
L 218.221714 3.456 
" style="fill:none;stroke:#b0b0b0;stroke-linecap:square;stroke-width:0.8;"/>
     </g>
     <g id="line2d_6">
      <g>
       <use style="stroke:#000000;stroke-width:0.8;" x="218.221714" xlink:href="#mad6584bdbb" y="298.944"/>
      </g>
     </g>
     <g id="text_3">
      <!-- 4 -->
      <g transform="translate(211.859214 321.140875)scale(0.2 -0.2)">
       <defs>
        <path d="M 37.796875 64.3125 
L 12.890625 25.390625 
L 37.796875 25.390625 
z
M 35.203125 72.90625 
L 47.609375 72.90625 
L 47.609375 25.390625 
L 58.015625 25.390625 
L 58.015625 17.1875 
L 47.609375 17.1875 
L 47.609375 0 
L 37.796875 0 
L 37.796875 17.1875 
L 4.890625 17.1875 
L 4.890625 26.703125 
z
" id="DejaVuSans-52"/>
       </defs>
       <use xlink:href="#DejaVuSans-52"/>
      </g>
     </g>
    </g>
    <g id="xtick_4">
     <g id="line2d_7">
      <path clip-path="url(#p46ceacc0bc)" d="M 298.532571 298.944 
L 298.532571 3.456 
" style="fill:none;stroke:#b0b0b0;stroke-linecap:square;stroke-width:0.8;"/>
     </g>
     <g id="line2d_8">
      <g>
       <use style="stroke:#000000;stroke-width:0.8;" x="298.532571" xlink:href="#mad6584bdbb" y="298.944"/>
      </g>
     </g>
     <g id="text_4">
      <!-- 6 -->
      <g transform="translate(292.170071 321.140875)scale(0.2 -0.2)">
       <defs>
        <path d="M 33.015625 40.375 
Q 26.375 40.375 22.484375 35.828125 
Q 18.609375 31.296875 18.609375 23.390625 
Q 18.609375 15.53125 22.484375 10.953125 
Q 26.375 6.390625 33.015625 6.390625 
Q 39.65625 6.390625 43.53125 10.953125 
Q 47.40625 15.53125 47.40625 23.390625 
Q 47.40625 31.296875 43.53125 35.828125 
Q 39.65625 40.375 33.015625 40.375 
z
M 52.59375 71.296875 
L 52.59375 62.3125 
Q 48.875 64.0625 45.09375 64.984375 
Q 41.3125 65.921875 37.59375 65.921875 
Q 27.828125 65.921875 22.671875 59.328125 
Q 17.53125 52.734375 16.796875 39.40625 
Q 19.671875 43.65625 24.015625 45.921875 
Q 28.375 48.1875 33.59375 48.1875 
Q 44.578125 48.1875 50.953125 41.515625 
Q 57.328125 34.859375 57.328125 23.390625 
Q 57.328125 12.15625 50.6875 5.359375 
Q 44.046875 -1.421875 33.015625 -1.421875 
Q 20.359375 -1.421875 13.671875 8.265625 
Q 6.984375 17.96875 6.984375 36.375 
Q 6.984375 53.65625 15.1875 63.9375 
Q 23.390625 74.21875 37.203125 74.21875 
Q 40.921875 74.21875 44.703125 73.484375 
Q 48.484375 72.75 52.59375 71.296875 
z
" id="DejaVuSans-54"/>
       </defs>
       <use xlink:href="#DejaVuSans-54"/>
      </g>
     </g>
    </g>
    <g id="xtick_5">
     <g id="line2d_9">
      <path clip-path="url(#p46ceacc0bc)" d="M 97.755429 298.944 
L 97.755429 3.456 
" style="fill:none;stroke:#b0b0b0;stroke-linecap:square;stroke-width:0.8;"/>
     </g>
     <g id="line2d_10">
      <defs>
       <path d="M 0 0 
L 0 2 
" id="m3b2d28e078" style="stroke:#000000;stroke-width:0.6;"/>
      </defs>
      <g>
       <use style="stroke:#000000;stroke-width:0.6;" x="97.755429" xlink:href="#m3b2d28e078" y="298.944"/>
      </g>
     </g>
    </g>
    <g id="xtick_6">
     <g id="line2d_11">
      <path clip-path="url(#p46ceacc0bc)" d="M 178.066286 298.944 
L 178.066286 3.456 
" style="fill:none;stroke:#b0b0b0;stroke-linecap:square;stroke-width:0.8;"/>
     </g>
     <g id="line2d_12">
      <g>
       <use style="stroke:#000000;stroke-width:0.6;" x="178.066286" xlink:href="#m3b2d28e078" y="298.944"/>
      </g>
     </g>
    </g>
    <g id="xtick_7">
     <g id="line2d_13">
      <path clip-path="url(#p46ceacc0bc)" d="M 258.377143 298.944 
L 258.377143 3.456 
" style="fill:none;stroke:#b0b0b0;stroke-linecap:square;stroke-width:0.8;"/>
     </g>
     <g id="line2d_14">
      <g>
       <use style="stroke:#000000;stroke-width:0.6;" x="258.377143" xlink:href="#m3b2d28e078" y="298.944"/>
      </g>
     </g>
    </g>
    <g id="xtick_8">
     <g id="line2d_15">
      <path clip-path="url(#p46ceacc0bc)" d="M 338.688 298.944 
L 338.688 3.456 
" style="fill:none;stroke:#b0b0b0;stroke-linecap:square;stroke-width:0.8;"/>
     </g>
     <g id="line2d_16">
      <g>
       <use style="stroke:#000000;stroke-width:0.6;" x="338.688" xlink:href="#m3b2d28e078" y="298.944"/>
      </g>
     </g>
    </g>
    <g id="text_5">
     <!-- log10(# f-evals / dimension) -->
     <g transform="translate(77.764078 342.217594)scale(0.17 -0.17)">
      <defs>
       <path d="M 9.421875 75.984375 
L 18.40625 75.984375 
L 18.40625 0 
L 9.421875 0 
z
" id="DejaVuSans-108"/>
       <path d="M 30.609375 48.390625 
Q 23.390625 48.390625 19.1875 42.75 
Q 14.984375 37.109375 14.984375 27.296875 
Q 14.984375 17.484375 19.15625 11.84375 
Q 23.34375 6.203125 30.609375 6.203125 
Q 37.796875 6.203125 41.984375 11.859375 
Q 46.1875 17.53125 46.1875 27.296875 
Q 46.1875 37.015625 41.984375 42.703125 
Q 37.796875 48.390625 30.609375 48.390625 
z
M 30.609375 56 
Q 42.328125 56 49.015625 48.375 
Q 55.71875 40.765625 55.71875 27.296875 
Q 55.71875 13.875 49.015625 6.21875 
Q 42.328125 -1.421875 30.609375 -1.421875 
Q 18.84375 -1.421875 12.171875 6.21875 
Q 5.515625 13.875 5.515625 27.296875 
Q 5.515625 40.765625 12.171875 48.375 
Q 18.84375 56 30.609375 56 
z
" id="DejaVuSans-111"/>
       <path d="M 45.40625 27.984375 
Q 45.40625 37.75 41.375 43.109375 
Q 37.359375 48.484375 30.078125 48.484375 
Q 22.859375 48.484375 18.828125 43.109375 
Q 14.796875 37.75 14.796875 27.984375 
Q 14.796875 18.265625 18.828125 12.890625 
Q 22.859375 7.515625 30.078125 7.515625 
Q 37.359375 7.515625 41.375 12.890625 
Q 45.40625 18.265625 45.40625 27.984375 
z
M 54.390625 6.78125 
Q 54.390625 -7.171875 48.1875 -13.984375 
Q 42 -20.796875 29.203125 -20.796875 
Q 24.46875 -20.796875 20.265625 -20.09375 
Q 16.0625 -19.390625 12.109375 -17.921875 
L 12.109375 -9.1875 
Q 16.0625 -11.328125 19.921875 -12.34375 
Q 23.78125 -13.375 27.78125 -13.375 
Q 36.625 -13.375 41.015625 -8.765625 
Q 45.40625 -4.15625 45.40625 5.171875 
L 45.40625 9.625 
Q 42.625 4.78125 38.28125 2.390625 
Q 33.9375 0 27.875 0 
Q 17.828125 0 11.671875 7.65625 
Q 5.515625 15.328125 5.515625 27.984375 
Q 5.515625 40.671875 11.671875 48.328125 
Q 17.828125 56 27.875 56 
Q 33.9375 56 38.28125 53.609375 
Q 42.625 51.21875 45.40625 46.390625 
L 45.40625 54.6875 
L 54.390625 54.6875 
z
" id="DejaVuSans-103"/>
       <path d="M 12.40625 8.296875 
L 28.515625 8.296875 
L 28.515625 63.921875 
L 10.984375 60.40625 
L 10.984375 69.390625 
L 28.421875 72.90625 
L 38.28125 72.90625 
L 38.28125 8.296875 
L 54.390625 8.296875 
L 54.390625 0 
L 12.40625 0 
z
" id="DejaVuSans-49"/>
       <path d="M 31 75.875 
Q 24.46875 64.65625 21.28125 53.65625 
Q 18.109375 42.671875 18.109375 31.390625 
Q 18.109375 20.125 21.3125 9.0625 
Q 24.515625 -2 31 -13.1875 
L 23.1875 -13.1875 
Q 15.875 -1.703125 12.234375 9.375 
Q 8.59375 20.453125 8.59375 31.390625 
Q 8.59375 42.28125 12.203125 53.3125 
Q 15.828125 64.359375 23.1875 75.875 
z
" id="DejaVuSans-40"/>
       <path d="M 51.125 44 
L 36.921875 44 
L 32.8125 27.6875 
L 47.125 27.6875 
z
M 43.796875 71.78125 
L 38.71875 51.515625 
L 52.984375 51.515625 
L 58.109375 71.78125 
L 65.921875 71.78125 
L 60.890625 51.515625 
L 76.125 51.515625 
L 76.125 44 
L 58.984375 44 
L 54.984375 27.6875 
L 70.515625 27.6875 
L 70.515625 20.21875 
L 53.078125 20.21875 
L 48 0 
L 40.1875 0 
L 45.21875 20.21875 
L 30.90625 20.21875 
L 25.875 0 
L 18.015625 0 
L 23.09375 20.21875 
L 7.71875 20.21875 
L 7.71875 27.6875 
L 24.90625 27.6875 
L 29 44 
L 13.28125 44 
L 13.28125 51.515625 
L 30.90625 51.515625 
L 35.890625 71.78125 
z
" id="DejaVuSans-35"/>
       <path id="DejaVuSans-32"/>
       <path d="M 37.109375 75.984375 
L 37.109375 68.5 
L 28.515625 68.5 
Q 23.6875 68.5 21.796875 66.546875 
Q 19.921875 64.59375 19.921875 59.515625 
L 19.921875 54.6875 
L 34.71875 54.6875 
L 34.71875 47.703125 
L 19.921875 47.703125 
L 19.921875 0 
L 10.890625 0 
L 10.890625 47.703125 
L 2.296875 47.703125 
L 2.296875 54.6875 
L 10.890625 54.6875 
L 10.890625 58.5 
Q 10.890625 67.625 15.140625 71.796875 
Q 19.390625 75.984375 28.609375 75.984375 
z
" id="DejaVuSans-102"/>
       <path d="M 4.890625 31.390625 
L 31.203125 31.390625 
L 31.203125 23.390625 
L 4.890625 23.390625 
z
" id="DejaVuSans-45"/>
       <path d="M 56.203125 29.59375 
L 56.203125 25.203125 
L 14.890625 25.203125 
Q 15.484375 15.921875 20.484375 11.0625 
Q 25.484375 6.203125 34.421875 6.203125 
Q 39.59375 6.203125 44.453125 7.46875 
Q 49.3125 8.734375 54.109375 11.28125 
L 54.109375 2.78125 
Q 49.265625 0.734375 44.1875 -0.34375 
Q 39.109375 -1.421875 33.890625 -1.421875 
Q 20.796875 -1.421875 13.15625 6.1875 
Q 5.515625 13.8125 5.515625 26.8125 
Q 5.515625 40.234375 12.765625 48.109375 
Q 20.015625 56 32.328125 56 
Q 43.359375 56 49.78125 48.890625 
Q 56.203125 41.796875 56.203125 29.59375 
z
M 47.21875 32.234375 
Q 47.125 39.59375 43.09375 43.984375 
Q 39.0625 48.390625 32.421875 48.390625 
Q 24.90625 48.390625 20.390625 44.140625 
Q 15.875 39.890625 15.1875 32.171875 
z
" id="DejaVuSans-101"/>
       <path d="M 2.984375 54.6875 
L 12.5 54.6875 
L 29.59375 8.796875 
L 46.6875 54.6875 
L 56.203125 54.6875 
L 35.6875 0 
L 23.484375 0 
z
" id="DejaVuSans-118"/>
       <path d="M 34.28125 27.484375 
Q 23.390625 27.484375 19.1875 25 
Q 14.984375 22.515625 14.984375 16.5 
Q 14.984375 11.71875 18.140625 8.90625 
Q 21.296875 6.109375 26.703125 6.109375 
Q 34.1875 6.109375 38.703125 11.40625 
Q 43.21875 16.703125 43.21875 25.484375 
L 43.21875 27.484375 
z
M 52.203125 31.203125 
L 52.203125 0 
L 43.21875 0 
L 43.21875 8.296875 
Q 40.140625 3.328125 35.546875 0.953125 
Q 30.953125 -1.421875 24.3125 -1.421875 
Q 15.921875 -1.421875 10.953125 3.296875 
Q 6 8.015625 6 15.921875 
Q 6 25.140625 12.171875 29.828125 
Q 18.359375 34.515625 30.609375 34.515625 
L 43.21875 34.515625 
L 43.21875 35.40625 
Q 43.21875 41.609375 39.140625 45 
Q 35.0625 48.390625 27.6875 48.390625 
Q 23 48.390625 18.546875 47.265625 
Q 14.109375 46.140625 10.015625 43.890625 
L 10.015625 52.203125 
Q 14.9375 54.109375 19.578125 55.046875 
Q 24.21875 56 28.609375 56 
Q 40.484375 56 46.34375 49.84375 
Q 52.203125 43.703125 52.203125 31.203125 
z
" id="DejaVuSans-97"/>
       <path d="M 44.28125 53.078125 
L 44.28125 44.578125 
Q 40.484375 46.53125 36.375 47.5 
Q 32.28125 48.484375 27.875 48.484375 
Q 21.1875 48.484375 17.84375 46.4375 
Q 14.5 44.390625 14.5 40.28125 
Q 14.5 37.15625 16.890625 35.375 
Q 19.28125 33.59375 26.515625 31.984375 
L 29.59375 31.296875 
Q 39.15625 29.25 43.1875 25.515625 
Q 47.21875 21.78125 47.21875 15.09375 
Q 47.21875 7.46875 41.1875 3.015625 
Q 35.15625 -1.421875 24.609375 -1.421875 
Q 20.21875 -1.421875 15.453125 -0.5625 
Q 10.6875 0.296875 5.421875 2 
L 5.421875 11.28125 
Q 10.40625 8.6875 15.234375 7.390625 
Q 20.0625 6.109375 24.8125 6.109375 
Q 31.15625 6.109375 34.5625 8.28125 
Q 37.984375 10.453125 37.984375 14.40625 
Q 37.984375 18.0625 35.515625 20.015625 
Q 33.0625 21.96875 24.703125 23.78125 
L 21.578125 24.515625 
Q 13.234375 26.265625 9.515625 29.90625 
Q 5.8125 33.546875 5.8125 39.890625 
Q 5.8125 47.609375 11.28125 51.796875 
Q 16.75 56 26.8125 56 
Q 31.78125 56 36.171875 55.265625 
Q 40.578125 54.546875 44.28125 53.078125 
z
" id="DejaVuSans-115"/>
       <path d="M 25.390625 72.90625 
L 33.6875 72.90625 
L 8.296875 -9.28125 
L 0 -9.28125 
z
" id="DejaVuSans-47"/>
       <path d="M 45.40625 46.390625 
L 45.40625 75.984375 
L 54.390625 75.984375 
L 54.390625 0 
L 45.40625 0 
L 45.40625 8.203125 
Q 42.578125 3.328125 38.25 0.953125 
Q 33.9375 -1.421875 27.875 -1.421875 
Q 17.96875 -1.421875 11.734375 6.484375 
Q 5.515625 14.40625 5.515625 27.296875 
Q 5.515625 40.1875 11.734375 48.09375 
Q 17.96875 56 27.875 56 
Q 33.9375 56 38.25 53.625 
Q 42.578125 51.265625 45.40625 46.390625 
z
M 14.796875 27.296875 
Q 14.796875 17.390625 18.875 11.75 
Q 22.953125 6.109375 30.078125 6.109375 
Q 37.203125 6.109375 41.296875 11.75 
Q 45.40625 17.390625 45.40625 27.296875 
Q 45.40625 37.203125 41.296875 42.84375 
Q 37.203125 48.484375 30.078125 48.484375 
Q 22.953125 48.484375 18.875 42.84375 
Q 14.796875 37.203125 14.796875 27.296875 
z
" id="DejaVuSans-100"/>
       <path d="M 9.421875 54.6875 
L 18.40625 54.6875 
L 18.40625 0 
L 9.421875 0 
z
M 9.421875 75.984375 
L 18.40625 75.984375 
L 18.40625 64.59375 
L 9.421875 64.59375 
z
" id="DejaVuSans-105"/>
       <path d="M 52 44.1875 
Q 55.375 50.25 60.0625 53.125 
Q 64.75 56 71.09375 56 
Q 79.640625 56 84.28125 50.015625 
Q 88.921875 44.046875 88.921875 33.015625 
L 88.921875 0 
L 79.890625 0 
L 79.890625 32.71875 
Q 79.890625 40.578125 77.09375 44.375 
Q 74.3125 48.1875 68.609375 48.1875 
Q 61.625 48.1875 57.5625 43.546875 
Q 53.515625 38.921875 53.515625 30.90625 
L 53.515625 0 
L 44.484375 0 
L 44.484375 32.71875 
Q 44.484375 40.625 41.703125 44.40625 
Q 38.921875 48.1875 33.109375 48.1875 
Q 26.21875 48.1875 22.15625 43.53125 
Q 18.109375 38.875 18.109375 30.90625 
L 18.109375 0 
L 9.078125 0 
L 9.078125 54.6875 
L 18.109375 54.6875 
L 18.109375 46.1875 
Q 21.1875 51.21875 25.484375 53.609375 
Q 29.78125 56 35.6875 56 
Q 41.65625 56 45.828125 52.96875 
Q 50 49.953125 52 44.1875 
z
" id="DejaVuSans-109"/>
       <path d="M 54.890625 33.015625 
L 54.890625 0 
L 45.90625 0 
L 45.90625 32.71875 
Q 45.90625 40.484375 42.875 44.328125 
Q 39.84375 48.1875 33.796875 48.1875 
Q 26.515625 48.1875 22.3125 43.546875 
Q 18.109375 38.921875 18.109375 30.90625 
L 18.109375 0 
L 9.078125 0 
L 9.078125 54.6875 
L 18.109375 54.6875 
L 18.109375 46.1875 
Q 21.34375 51.125 25.703125 53.5625 
Q 30.078125 56 35.796875 56 
Q 45.21875 56 50.046875 50.171875 
Q 54.890625 44.34375 54.890625 33.015625 
z
" id="DejaVuSans-110"/>
       <path d="M 8.015625 75.875 
L 15.828125 75.875 
Q 23.140625 64.359375 26.78125 53.3125 
Q 30.421875 42.28125 30.421875 31.390625 
Q 30.421875 20.453125 26.78125 9.375 
Q 23.140625 -1.703125 15.828125 -13.1875 
L 8.015625 -13.1875 
Q 14.5 -2 17.703125 9.0625 
Q 20.90625 20.125 20.90625 31.390625 
Q 20.90625 42.671875 17.703125 53.65625 
Q 14.5 64.65625 8.015625 75.875 
z
" id="DejaVuSans-41"/>
      </defs>
      <use xlink:href="#DejaVuSans-108"/>
      <use x="27.783203" xlink:href="#DejaVuSans-111"/>
      <use x="88.964844" xlink:href="#DejaVuSans-103"/>
      <use x="152.441406" xlink:href="#DejaVuSans-49"/>
      <use x="216.064453" xlink:href="#DejaVuSans-48"/>
      <use x="279.6875" xlink:href="#DejaVuSans-40"/>
      <use x="318.701172" xlink:href="#DejaVuSans-35"/>
      <use x="402.490234" xlink:href="#DejaVuSans-32"/>
      <use x="434.277344" xlink:href="#DejaVuSans-102"/>
      <use x="463.982422" xlink:href="#DejaVuSans-45"/>
      <use x="500.066406" xlink:href="#DejaVuSans-101"/>
      <use x="561.589844" xlink:href="#DejaVuSans-118"/>
      <use x="620.769531" xlink:href="#DejaVuSans-97"/>
      <use x="682.048828" xlink:href="#DejaVuSans-108"/>
      <use x="709.832031" xlink:href="#DejaVuSans-115"/>
      <use x="761.931641" xlink:href="#DejaVuSans-32"/>
      <use x="793.71875" xlink:href="#DejaVuSans-47"/>
      <use x="827.410156" xlink:href="#DejaVuSans-32"/>
      <use x="859.197266" xlink:href="#DejaVuSans-100"/>
      <use x="922.673828" xlink:href="#DejaVuSans-105"/>
      <use x="950.457031" xlink:href="#DejaVuSans-109"/>
      <use x="1047.869141" xlink:href="#DejaVuSans-101"/>
      <use x="1109.392578" xlink:href="#DejaVuSans-110"/>
      <use x="1172.771484" xlink:href="#DejaVuSans-115"/>
      <use x="1224.871094" xlink:href="#DejaVuSans-105"/>
      <use x="1252.654297" xlink:href="#DejaVuSans-111"/>
      <use x="1313.835938" xlink:href="#DejaVuSans-110"/>
      <use x="1377.214844" xlink:href="#DejaVuSans-41"/>
     </g>
    </g>
   </g>
   <g id="matplotlib.axis_2">
    <g id="ytick_1">
     <g id="line2d_17">
      <path clip-path="url(#p46ceacc0bc)" d="M 57.6 298.944 
L 338.688 298.944 
" style="fill:none;stroke:#b0b0b0;stroke-linecap:square;stroke-width:0.8;"/>
     </g>
     <g id="line2d_18">
      <defs>
       <path d="M 0 0 
L -3.5 0 
" id="mf98e0aff96" style="stroke:#000000;stroke-width:0.8;"/>
      </defs>
      <g>
       <use style="stroke:#000000;stroke-width:0.8;" x="57.6" xlink:href="#mf98e0aff96" y="298.944"/>
      </g>
     </g>
     <g id="text_6">
      <!-- 0.0 -->
      <g transform="translate(25.155 305.02275)scale(0.16 -0.16)">
       <defs>
        <path d="M 10.6875 12.40625 
L 21 12.40625 
L 21 0 
L 10.6875 0 
z
" id="DejaVuSans-46"/>
       </defs>
       <use xlink:href="#DejaVuSans-48"/>
       <use x="63.623047" xlink:href="#DejaVuSans-46"/>
       <use x="95.410156" xlink:href="#DejaVuSans-48"/>
      </g>
     </g>
    </g>
    <g id="ytick_2">
     <g id="line2d_19">
      <path clip-path="url(#p46ceacc0bc)" d="M 57.6 240.431525 
L 338.688 240.431525 
" style="fill:none;stroke:#b0b0b0;stroke-linecap:square;stroke-width:0.8;"/>
     </g>
     <g id="line2d_20">
      <g>
       <use style="stroke:#000000;stroke-width:0.8;" x="57.6" xlink:href="#mf98e0aff96" y="240.431525"/>
      </g>
     </g>
     <g id="text_7">
      <!-- 0.2 -->
      <g transform="translate(25.155 246.510275)scale(0.16 -0.16)">
       <use xlink:href="#DejaVuSans-48"/>
       <use x="63.623047" xlink:href="#DejaVuSans-46"/>
       <use x="95.410156" xlink:href="#DejaVuSans-50"/>
      </g>
     </g>
    </g>
    <g id="ytick_3">
     <g id="line2d_21">
      <path clip-path="url(#p46ceacc0bc)" d="M 57.6 181.91905 
L 338.688 181.91905 
" style="fill:none;stroke:#b0b0b0;stroke-linecap:square;stroke-width:0.8;"/>
     </g>
     <g id="line2d_22">
      <g>
       <use style="stroke:#000000;stroke-width:0.8;" x="57.6" xlink:href="#mf98e0aff96" y="181.91905"/>
      </g>
     </g>
     <g id="text_8">
      <!-- 0.4 -->
      <g transform="translate(25.155 187.9978)scale(0.16 -0.16)">
       <use xlink:href="#DejaVuSans-48"/>
       <use x="63.623047" xlink:href="#DejaVuSans-46"/>
       <use x="95.410156" xlink:href="#DejaVuSans-52"/>
      </g>
     </g>
    </g>
    <g id="ytick_4">
     <g id="line2d_23">
      <path clip-path="url(#p46ceacc0bc)" d="M 57.6 123.406574 
L 338.688 123.406574 
" style="fill:none;stroke:#b0b0b0;stroke-linecap:square;stroke-width:0.8;"/>
     </g>
     <g id="line2d_24">
      <g>
       <use style="stroke:#000000;stroke-width:0.8;" x="57.6" xlink:href="#mf98e0aff96" y="123.406574"/>
      </g>
     </g>
     <g id="text_9">
      <!-- 0.6 -->
      <g transform="translate(25.155 129.485324)scale(0.16 -0.16)">
       <use xlink:href="#DejaVuSans-48"/>
       <use x="63.623047" xlink:href="#DejaVuSans-46"/>
       <use x="95.410156" xlink:href="#DejaVuSans-54"/>
      </g>
     </g>
    </g>
    <g id="ytick_5">
     <g id="line2d_25">
      <path clip-path="url(#p46ceacc0bc)" d="M 57.6 64.894099 
L 338.688 64.894099 
" style="fill:none;stroke:#b0b0b0;stroke-linecap:square;stroke-width:0.8;"/>
     </g>
     <g id="line2d_26">
      <g>
       <use style="stroke:#000000;stroke-width:0.8;" x="57.6" xlink:href="#mf98e0aff96" y="64.894099"/>
      </g>
     </g>
     <g id="text_10">
      <!-- 0.8 -->
      <g transform="translate(25.155 70.972849)scale(0.16 -0.16)">
       <defs>
        <path d="M 31.78125 34.625 
Q 24.75 34.625 20.71875 30.859375 
Q 16.703125 27.09375 16.703125 20.515625 
Q 16.703125 13.921875 20.71875 10.15625 
Q 24.75 6.390625 31.78125 6.390625 
Q 38.8125 6.390625 42.859375 10.171875 
Q 46.921875 13.96875 46.921875 20.515625 
Q 46.921875 27.09375 42.890625 30.859375 
Q 38.875 34.625 31.78125 34.625 
z
M 21.921875 38.8125 
Q 15.578125 40.375 12.03125 44.71875 
Q 8.5 49.078125 8.5 55.328125 
Q 8.5 64.0625 14.71875 69.140625 
Q 20.953125 74.21875 31.78125 74.21875 
Q 42.671875 74.21875 48.875 69.140625 
Q 55.078125 64.0625 55.078125 55.328125 
Q 55.078125 49.078125 51.53125 44.71875 
Q 48 40.375 41.703125 38.8125 
Q 48.828125 37.15625 52.796875 32.3125 
Q 56.78125 27.484375 56.78125 20.515625 
Q 56.78125 9.90625 50.3125 4.234375 
Q 43.84375 -1.421875 31.78125 -1.421875 
Q 19.734375 -1.421875 13.25 4.234375 
Q 6.78125 9.90625 6.78125 20.515625 
Q 6.78125 27.484375 10.78125 32.3125 
Q 14.796875 37.15625 21.921875 38.8125 
z
M 18.3125 54.390625 
Q 18.3125 48.734375 21.84375 45.5625 
Q 25.390625 42.390625 31.78125 42.390625 
Q 38.140625 42.390625 41.71875 45.5625 
Q 45.3125 48.734375 45.3125 54.390625 
Q 45.3125 60.0625 41.71875 63.234375 
Q 38.140625 66.40625 31.78125 66.40625 
Q 25.390625 66.40625 21.84375 63.234375 
Q 18.3125 60.0625 18.3125 54.390625 
z
" id="DejaVuSans-56"/>
       </defs>
       <use xlink:href="#DejaVuSans-48"/>
       <use x="63.623047" xlink:href="#DejaVuSans-46"/>
       <use x="95.410156" xlink:href="#DejaVuSans-56"/>
      </g>
     </g>
    </g>
    <g id="ytick_6">
     <g id="line2d_27">
      <path clip-path="url(#p46ceacc0bc)" d="M 57.6 6.381624 
L 338.688 6.381624 
" style="fill:none;stroke:#b0b0b0;stroke-linecap:square;stroke-width:0.8;"/>
     </g>
     <g id="line2d_28">
      <g>
       <use style="stroke:#000000;stroke-width:0.8;" x="57.6" xlink:href="#mf98e0aff96" y="6.381624"/>
      </g>
     </g>
     <g id="text_11">
      <!-- 1.0 -->
      <g transform="translate(25.155 12.460374)scale(0.16 -0.16)">
       <use xlink:href="#DejaVuSans-49"/>
       <use x="63.623047" xlink:href="#DejaVuSans-46"/>
       <use x="95.410156" xlink:href="#DejaVuSans-48"/>
      </g>
     </g>
    </g>
    <g id="text_12">
     <!-- Fraction of function,target pairs -->
     <g transform="translate(17.619531 285.585)rotate(-90)scale(0.17 -0.17)">
      <defs>
       <path d="M 9.8125 72.90625 
L 51.703125 72.90625 
L 51.703125 64.59375 
L 19.671875 64.59375 
L 19.671875 43.109375 
L 48.578125 43.109375 
L 48.578125 34.8125 
L 19.671875 34.8125 
L 19.671875 0 
L 9.8125 0 
z
" id="DejaVuSans-70"/>
       <path d="M 41.109375 46.296875 
Q 39.59375 47.171875 37.8125 47.578125 
Q 36.03125 48 33.890625 48 
Q 26.265625 48 22.1875 43.046875 
Q 18.109375 38.09375 18.109375 28.8125 
L 18.109375 0 
L 9.078125 0 
L 9.078125 54.6875 
L 18.109375 54.6875 
L 18.109375 46.1875 
Q 20.953125 51.171875 25.484375 53.578125 
Q 30.03125 56 36.53125 56 
Q 37.453125 56 38.578125 55.875 
Q 39.703125 55.765625 41.0625 55.515625 
z
" id="DejaVuSans-114"/>
       <path d="M 48.78125 52.59375 
L 48.78125 44.1875 
Q 44.96875 46.296875 41.140625 47.34375 
Q 37.3125 48.390625 33.40625 48.390625 
Q 24.65625 48.390625 19.8125 42.84375 
Q 14.984375 37.3125 14.984375 27.296875 
Q 14.984375 17.28125 19.8125 11.734375 
Q 24.65625 6.203125 33.40625 6.203125 
Q 37.3125 6.203125 41.140625 7.25 
Q 44.96875 8.296875 48.78125 10.40625 
L 48.78125 2.09375 
Q 45.015625 0.34375 40.984375 -0.53125 
Q 36.96875 -1.421875 32.421875 -1.421875 
Q 20.0625 -1.421875 12.78125 6.34375 
Q 5.515625 14.109375 5.515625 27.296875 
Q 5.515625 40.671875 12.859375 48.328125 
Q 20.21875 56 33.015625 56 
Q 37.15625 56 41.109375 55.140625 
Q 45.0625 54.296875 48.78125 52.59375 
z
" id="DejaVuSans-99"/>
       <path d="M 18.3125 70.21875 
L 18.3125 54.6875 
L 36.8125 54.6875 
L 36.8125 47.703125 
L 18.3125 47.703125 
L 18.3125 18.015625 
Q 18.3125 11.328125 20.140625 9.421875 
Q 21.96875 7.515625 27.59375 7.515625 
L 36.8125 7.515625 
L 36.8125 0 
L 27.59375 0 
Q 17.1875 0 13.234375 3.875 
Q 9.28125 7.765625 9.28125 18.015625 
L 9.28125 47.703125 
L 2.6875 47.703125 
L 2.6875 54.6875 
L 9.28125 54.6875 
L 9.28125 70.21875 
z
" id="DejaVuSans-116"/>
       <path d="M 8.5 21.578125 
L 8.5 54.6875 
L 17.484375 54.6875 
L 17.484375 21.921875 
Q 17.484375 14.15625 20.5 10.265625 
Q 23.53125 6.390625 29.59375 6.390625 
Q 36.859375 6.390625 41.078125 11.03125 
Q 45.3125 15.671875 45.3125 23.6875 
L 45.3125 54.6875 
L 54.296875 54.6875 
L 54.296875 0 
L 45.3125 0 
L 45.3125 8.40625 
Q 42.046875 3.421875 37.71875 1 
Q 33.40625 -1.421875 27.6875 -1.421875 
Q 18.265625 -1.421875 13.375 4.4375 
Q 8.5 10.296875 8.5 21.578125 
z
M 31.109375 56 
z
" id="DejaVuSans-117"/>
       <path d="M 11.71875 12.40625 
L 22.015625 12.40625 
L 22.015625 4 
L 14.015625 -11.625 
L 7.71875 -11.625 
L 11.71875 4 
z
" id="DejaVuSans-44"/>
       <path d="M 18.109375 8.203125 
L 18.109375 -20.796875 
L 9.078125 -20.796875 
L 9.078125 54.6875 
L 18.109375 54.6875 
L 18.109375 46.390625 
Q 20.953125 51.265625 25.265625 53.625 
Q 29.59375 56 35.59375 56 
Q 45.5625 56 51.78125 48.09375 
Q 58.015625 40.1875 58.015625 27.296875 
Q 58.015625 14.40625 51.78125 6.484375 
Q 45.5625 -1.421875 35.59375 -1.421875 
Q 29.59375 -1.421875 25.265625 0.953125 
Q 20.953125 3.328125 18.109375 8.203125 
z
M 48.6875 27.296875 
Q 48.6875 37.203125 44.609375 42.84375 
Q 40.53125 48.484375 33.40625 48.484375 
Q 26.265625 48.484375 22.1875 42.84375 
Q 18.109375 37.203125 18.109375 27.296875 
Q 18.109375 17.390625 22.1875 11.75 
Q 26.265625 6.109375 33.40625 6.109375 
Q 40.53125 6.109375 44.609375 11.75 
Q 48.6875 17.390625 48.6875 27.296875 
z
" id="DejaVuSans-112"/>
      </defs>
      <use xlink:href="#DejaVuSans-70"/>
      <use x="50.269531" xlink:href="#DejaVuSans-114"/>
      <use x="91.382812" xlink:href="#DejaVuSans-97"/>
      <use x="152.662109" xlink:href="#DejaVuSans-99"/>
      <use x="207.642578" xlink:href="#DejaVuSans-116"/>
      <use x="246.851562" xlink:href="#DejaVuSans-105"/>
      <use x="274.634766" xlink:href="#DejaVuSans-111"/>
      <use x="335.816406" xlink:href="#DejaVuSans-110"/>
      <use x="399.195312" xlink:href="#DejaVuSans-32"/>
      <use x="430.982422" xlink:href="#DejaVuSans-111"/>
      <use x="492.164062" xlink:href="#DejaVuSans-102"/>
      <use x="527.369141" xlink:href="#DejaVuSans-32"/>
      <use x="559.15625" xlink:href="#DejaVuSans-102"/>
      <use x="594.361328" xlink:href="#DejaVuSans-117"/>
      <use x="657.740234" xlink:href="#DejaVuSans-110"/>
      <use x="721.119141" xlink:href="#DejaVuSans-99"/>
      <use x="776.099609" xlink:href="#DejaVuSans-116"/>
      <use x="815.308594" xlink:href="#DejaVuSans-105"/>
      <use x="843.091797" xlink:href="#DejaVuSans-111"/>
      <use x="904.273438" xlink:href="#DejaVuSans-110"/>
      <use x="967.652344" xlink:href="#DejaVuSans-44"/>
      <use x="999.439453" xlink:href="#DejaVuSans-116"/>
      <use x="1038.648438" xlink:href="#DejaVuSans-97"/>
      <use x="1099.927734" xlink:href="#DejaVuSans-114"/>
      <use x="1139.291016" xlink:href="#DejaVuSans-103"/>
      <use x="1202.767578" xlink:href="#DejaVuSans-101"/>
      <use x="1264.291016" xlink:href="#DejaVuSans-116"/>
      <use x="1303.5" xlink:href="#DejaVuSans-32"/>
      <use x="1335.287109" xlink:href="#DejaVuSans-112"/>
      <use x="1398.763672" xlink:href="#DejaVuSans-97"/>
      <use x="1460.042969" xlink:href="#DejaVuSans-105"/>
      <use x="1487.826172" xlink:href="#DejaVuSans-114"/>
      <use x="1528.939453" xlink:href="#DejaVuSans-115"/>
     </g>
    </g>
   </g>
   <g id="line2d_29">
    <defs>
     <path d="M 0 1.5 
C 0.397805 1.5 0.77937 1.341951 1.06066 1.06066 
C 1.341951 0.77937 1.5 0.397805 1.5 0 
C 1.5 -0.397805 1.341951 -0.77937 1.06066 -1.06066 
C 0.77937 -1.341951 0.397805 -1.5 0 -1.5 
C -0.397805 -1.5 -0.77937 -1.341951 -1.06066 -1.06066 
C -1.341951 -0.77937 -1.5 -0.397805 -1.5 0 
C -1.5 0.397805 -1.341951 0.77937 -1.06066 1.06066 
C -0.77937 1.341951 -0.397805 1.5 0 1.5 
z
" id="mf0a47c8cf7" style="stroke:#000080;"/>
    </defs>
    <g>
     <use style="fill:#000080;stroke:#000080;" x="295.299154" xlink:href="#mf0a47c8cf7" y="161.267588"/>
     <use style="fill:#000080;stroke:#000080;" x="295.299154" xlink:href="#mf0a47c8cf7" y="161.267588"/>
    </g>
   </g>
   <g id="line2d_30">
    <path d="M 107.314272 298.944 
L 107.314272 298.370348 
L 113.311233 298.370348 
L 113.311233 297.796697 
L 114.216469 297.796697 
L 114.216469 297.223045 
L 115.077025 297.223045 
L 115.077025 296.649393 
L 118.417314 296.649393 
L 118.417314 296.075741 
L 118.681952 296.075741 
L 118.681952 295.50209 
L 118.838828 295.50209 
L 118.838828 294.928438 
L 119.097192 294.928438 
L 119.097192 294.354786 
L 122.40451 294.354786 
L 122.40451 293.781135 
L 124.330801 293.781135 
L 124.330801 293.207483 
L 124.444412 293.207483 
L 124.444412 292.633831 
L 126.099688 292.633831 
L 126.099688 290.912876 
L 126.673734 290.912876 
L 126.673734 290.339224 
L 126.937471 290.339224 
L 126.937471 289.765573 
L 127.165014 289.765573 
L 127.165014 289.191921 
L 127.293718 289.191921 
L 127.293718 288.618269 
L 127.736845 288.618269 
L 127.736845 288.044617 
L 128.738855 288.044617 
L 128.827155 286.897314 
L 129.433047 286.897314 
L 129.433047 286.323662 
L 130.045992 286.323662 
L 130.045992 285.75001 
L 131.082294 285.75001 
L 131.133813 284.602707 
L 131.765283 284.602707 
L 131.765283 283.455404 
L 132.636218 283.455404 
L 132.636218 282.881752 
L 132.753813 282.881752 
L 132.80063 281.734448 
L 132.940331 281.734448 
L 132.940331 281.160797 
L 133.19358 281.160797 
L 133.262014 280.013493 
L 133.488207 280.013493 
L 133.488207 279.439842 
L 134.019394 279.439842 
L 134.019394 278.86619 
L 134.47127 278.86619 
L 134.47127 278.292538 
L 134.787017 278.292538 
L 134.787017 277.718886 
L 135.341343 277.718886 
L 135.341343 277.145235 
L 135.46217 277.145235 
L 135.46217 276.571583 
L 136.073445 276.571583 
L 136.073445 275.997931 
L 136.68274 275.997931 
L 136.68274 274.850628 
L 137.343676 274.850628 
L 137.343676 274.276976 
L 137.576323 274.276976 
L 137.576323 273.703324 
L 137.928288 273.703324 
L 137.928288 273.129673 
L 139.058148 273.129673 
L 139.058148 272.556021 
L 139.477614 272.556021 
L 139.477614 271.982369 
L 140.423864 271.982369 
L 140.423864 271.408718 
L 141.80232 271.408718 
L 141.80232 270.835066 
L 142.07914 270.835066 
L 142.07914 270.261414 
L 142.243147 270.261414 
L 142.270332 269.114111 
L 143.40093 269.114111 
L 143.40093 268.540459 
L 143.915178 268.540459 
L 144.026061 267.393156 
L 144.038338 267.393156 
L 144.038338 266.245852 
L 144.570138 266.245852 
L 144.570138 265.6722 
L 145.24725 265.6722 
L 145.24725 265.098549 
L 145.96511 265.098549 
L 145.96511 264.524897 
L 146.205204 264.524897 
L 146.205204 263.951245 
L 147.277111 263.951245 
L 147.277111 263.377593 
L 147.600257 263.377593 
L 147.700024 262.23029 
L 147.838747 262.23029 
L 147.927346 261.082987 
L 148.161434 261.082987 
L 148.161434 260.509335 
L 148.667509 260.509335 
L 148.667509 259.935683 
L 149.494606 259.935683 
L 149.60198 258.78838 
L 150.068464 258.78838 
L 150.068464 258.214728 
L 150.505862 258.214728 
L 150.539708 257.067425 
L 151.308666 257.067425 
L 151.308666 256.493773 
L 151.461678 256.493773 
L 151.461678 255.920121 
L 152.291531 255.920121 
L 152.291531 255.346469 
L 152.534486 255.346469 
L 152.534486 254.772818 
L 154.125885 254.772818 
L 154.125885 254.199166 
L 154.269814 254.199166 
L 154.269814 253.625514 
L 154.54072 253.625514 
L 154.54072 253.051863 
L 154.945917 253.051863 
L 154.945917 252.478211 
L 155.102793 252.478211 
L 155.102793 251.904559 
L 155.609431 251.904559 
L 155.609431 251.330907 
L 156.448553 251.330907 
L 156.448553 250.757256 
L 156.788581 250.757256 
L 156.788581 250.183604 
L 157.854169 250.183604 
L 157.854169 249.609952 
L 158.140788 249.609952 
L 158.140788 249.036301 
L 158.347301 249.036301 
L 158.347301 248.462649 
L 160.461277 248.462649 
L 160.461277 247.888997 
L 160.914762 247.888997 
L 160.914762 247.315345 
L 164.13701 247.315345 
L 164.13701 246.741694 
L 164.580957 246.741694 
L 164.580957 246.168042 
L 166.044441 246.168042 
L 166.044441 245.59439 
L 167.583271 245.59439 
L 167.583271 245.020738 
L 168.72825 245.020738 
L 168.72825 244.447087 
L 171.18605 244.447087 
L 171.18605 243.873435 
L 173.155951 243.873435 
L 173.155951 243.299783 
L 174.432321 243.299783 
L 174.432321 242.726132 
L 174.770546 242.726132 
L 174.770546 242.15248 
L 175.84885 242.15248 
L 175.84885 241.578828 
L 176.10637 241.578828 
L 176.10637 241.005176 
L 176.517133 241.005176 
L 176.517133 240.431525 
L 177.699723 240.431525 
L 177.699723 239.857873 
L 178.06803 239.857873 
L 178.06803 239.284221 
L 178.873915 239.284221 
L 178.873915 238.71057 
L 180.240832 238.71057 
L 180.240832 238.136918 
L 181.55553 238.136918 
L 181.55553 237.563266 
L 185.047553 237.563266 
L 185.047553 236.989614 
L 185.664074 236.989614 
L 185.664074 236.415963 
L 186.187442 236.415963 
L 186.187442 235.842311 
L 191.422793 235.842311 
L 191.422793 235.268659 
L 192.535423 235.268659 
L 192.535423 234.695008 
L 192.837069 234.695008 
L 192.837069 234.121356 
L 193.030379 234.121356 
L 193.030379 233.547704 
L 194.777276 233.547704 
L 194.777276 232.974052 
L 196.891945 232.974052 
L 196.891945 232.400401 
L 197.040039 232.400401 
L 197.040039 231.826749 
L 198.5308 231.826749 
L 198.5308 231.253097 
L 199.671233 231.253097 
L 199.671233 230.679446 
L 200.189901 230.679446 
L 200.189901 230.105794 
L 200.650174 230.105794 
L 200.650174 229.532142 
L 201.310532 229.532142 
L 201.310532 228.95849 
L 201.93881 228.95849 
L 201.941915 227.811187 
L 203.267888 227.811187 
L 203.325754 226.663884 
L 203.484411 226.663884 
L 203.484411 226.090232 
L 204.119869 226.090232 
L 204.119869 225.51658 
L 204.32226 225.51658 
L 204.32226 224.942928 
L 218.362057 224.942928 
L 218.469158 222.07467 
L 218.578509 222.07467 
L 218.669851 219.780063 
L 218.720767 219.780063 
L 218.818112 218.632759 
L 219.176738 218.632759 
L 219.176738 218.059108 
L 221.164827 218.059108 
L 221.173368 216.911804 
L 221.620351 216.911804 
L 221.620351 216.338153 
L 224.407025 216.338153 
L 224.454543 215.190849 
L 230.422691 215.190849 
L 230.479689 213.469894 
L 230.561702 213.469894 
L 230.590298 211.175287 
L 230.79443 211.175287 
L 230.79443 210.601635 
L 230.908628 210.601635 
L 230.908628 209.454332 
L 231.565975 209.454332 
L 231.565975 208.88068 
L 231.848541 208.88068 
L 231.848541 208.307029 
L 232.705146 208.307029 
L 232.705146 207.733377 
L 233.440215 207.733377 
L 233.440215 206.586073 
L 237.463942 206.586073 
L 237.463942 206.012422 
L 237.67144 206.012422 
L 237.705823 204.865118 
L 238.421989 204.865118 
L 238.421989 203.717815 
L 238.835268 203.717815 
L 238.835268 202.570511 
L 242.477381 202.570511 
L 242.488791 201.423208 
L 242.616527 201.423208 
L 242.70041 199.128601 
L 242.820825 199.128601 
L 242.820825 198.554949 
L 243.037809 198.554949 
L 243.037809 197.407646 
L 246.464718 197.407646 
L 246.464718 196.833994 
L 247.072324 196.833994 
L 247.072324 195.686691 
L 247.296205 195.686691 
L 247.296205 195.113039 
L 249.554042 195.113039 
L 249.554042 194.539387 
L 250.123994 194.539387 
L 250.123994 193.965736 
L 252.203166 193.965736 
L 252.221916 192.24478 
L 252.686133 192.24478 
L 252.686133 191.097477 
L 254.542678 191.097477 
L 254.542678 190.523825 
L 254.699219 190.523825 
L 254.80936 189.376522 
L 254.979775 189.376522 
L 254.979775 188.80287 
L 256.638101 188.80287 
L 256.638101 188.229218 
L 257.039086 188.229218 
L 257.039086 187.655567 
L 258.773805 187.655567 
L 258.827336 186.508263 
L 258.888614 186.508263 
L 258.888614 185.934612 
L 260.081135 185.934612 
L 260.12956 183.066353 
L 260.400381 183.066353 
L 260.400381 182.492701 
L 261.600113 182.492701 
L 261.600113 181.91905 
L 261.823933 181.91905 
L 261.823933 181.345398 
L 262.988221 181.345398 
L 262.992772 180.198094 
L 264.282394 180.198094 
L 264.332997 178.477139 
L 264.512243 178.477139 
L 264.568116 177.329836 
L 265.479235 177.329836 
L 265.507808 176.182532 
L 265.714062 176.182532 
L 265.714062 175.608881 
L 266.602887 175.608881 
L 266.602887 175.035229 
L 267.820384 175.035229 
L 267.820384 174.461577 
L 268.653849 174.461577 
L 268.653849 173.887925 
L 269.635879 173.887925 
L 269.635879 173.314274 
L 270.49175 173.314274 
L 270.49175 172.740622 
L 271.341415 172.740622 
L 271.341415 172.16697 
L 271.495089 172.16697 
L 271.532546 170.446015 
L 272.956654 170.446015 
L 273.066191 169.298712 
L 273.100425 169.298712 
L 273.100425 168.72506 
L 273.664638 168.72506 
L 273.696667 167.004105 
L 279.336911 167.004105 
L 279.336911 166.430453 
L 282.215198 166.430453 
L 282.215198 165.856801 
L 282.584883 165.856801 
L 282.634693 164.709498 
L 283.902744 164.709498 
L 283.902744 164.135846 
L 284.301692 164.135846 
L 284.301692 163.562195 
L 290.270538 163.562195 
L 290.270538 162.988543 
L 291.344413 162.988543 
L 291.344413 162.414891 
L 293.987316 162.414891 
L 293.987316 161.841239 
L 295.299154 161.841239 
L 295.299154 161.267588 
L 338.688 161.267588 
L 338.688 161.267588 
" style="fill:none;stroke:#000080;stroke-linecap:square;stroke-width:1.5;"/>
   </g>
   <g id="line2d_31">
    <defs>
     <path d="M 0 6 
C 1.591219 6 3.117479 5.367802 4.242641 4.242641 
C 5.367802 3.117479 6 1.591219 6 0 
C 6 -1.591219 5.367802 -3.117479 4.242641 -4.242641 
C 3.117479 -5.367802 1.591219 -6 0 -6 
C -1.591219 -6 -3.117479 -5.367802 -4.242641 -4.242641 
C -5.367802 -3.117479 -6 -1.591219 -6 0 
C -6 1.591219 -5.367802 3.117479 -4.242641 4.242641 
C -3.117479 5.367802 -1.591219 6 0 6 
z
" id="m241540c657" style="stroke:#000080;stroke-width:1.5;"/>
    </defs>
    <g>
     <use style="fill-opacity:0;stroke:#000080;stroke-width:1.5;" x="147.927346" xlink:href="#m241540c657" y="261.082987"/>
     <use style="fill-opacity:0;stroke:#000080;stroke-width:1.5;" x="219.176738" xlink:href="#m241540c657" y="218.059108"/>
     <use style="fill-opacity:0;stroke:#000080;stroke-width:1.5;" x="264.568116" xlink:href="#m241540c657" y="177.903487"/>
     <use style="fill-opacity:0;stroke:#000080;stroke-width:1.5;" x="295.299154" xlink:href="#m241540c657" y="161.267588"/>
     <use style="fill-opacity:0;stroke:#000080;stroke-width:1.5;" x="338.688" xlink:href="#m241540c657" y="161.267588"/>
    </g>
   </g>
   <g id="line2d_32">
    <path style="fill:none;stroke:#000080;stroke-linecap:square;stroke-width:1.5;"/>
    <g/>
   </g>
   <g id="line2d_33">
    <path clip-path="url(#p46ceacc0bc)" d="M 218.223109 224.942928 
" style="fill:none;stroke:#000080;stroke-linecap:square;stroke-width:1.5;"/>
    <defs>
     <path d="M -12 12 
L 12 -12 
M -12 -12 
L 12 12 
" id="m9131ed58d6" style="stroke:#000080;"/>
    </defs>
    <g clip-path="url(#p46ceacc0bc)">
     <use style="fill:#000080;stroke:#000080;" x="218.223109" xlink:href="#m9131ed58d6" y="224.942928"/>
    </g>
   </g>
   <g id="line2d_34">
    <defs>
     <path d="M 0 1.5 
C 0.397805 1.5 0.77937 1.341951 1.06066 1.06066 
C 1.341951 0.77937 1.5 0.397805 1.5 0 
C 1.5 -0.397805 1.341951 -0.77937 1.06066 -1.06066 
C 0.77937 -1.341951 0.397805 -1.5 0 -1.5 
C -0.397805 -1.5 -0.77937 -1.341951 -1.06066 -1.06066 
C -1.341951 -0.77937 -1.5 -0.397805 -1.5 0 
C -1.5 0.397805 -1.341951 0.77937 -1.06066 1.06066 
C -0.77937 1.341951 -0.397805 1.5 0 1.5 
z
" id="mbef302a0ab" style="stroke:#ff00ff;"/>
    </defs>
    <g>
     <use style="fill:#ff00ff;stroke:#ff00ff;" x="230.383055" xlink:href="#mbef302a0ab" y="264.524897"/>
     <use style="fill:#ff00ff;stroke:#ff00ff;" x="230.383055" xlink:href="#mbef302a0ab" y="264.524897"/>
    </g>
   </g>
   <g id="line2d_35">
    <path d="M 29.53256 298.944 
L 29.53256 298.370348 
L 84.588378 298.370348 
L 84.588378 297.796697 
L 89.135256 297.796697 
L 89.135256 297.223045 
L 94.294587 297.223045 
L 94.294587 296.649393 
L 95.723163 296.649393 
L 95.723163 296.075741 
L 96.489848 296.075741 
L 96.489848 295.50209 
L 98.606294 295.50209 
L 98.606294 294.928438 
L 98.935347 294.928438 
L 98.935347 294.354786 
L 99.575392 294.354786 
L 99.575392 293.781135 
L 100.493461 293.781135 
L 100.493461 293.207483 
L 101.506816 293.207483 
L 101.506816 292.633831 
L 102.989037 292.633831 
L 102.989037 291.486528 
L 103.245502 291.486528 
L 103.245502 290.912876 
L 103.498249 290.912876 
L 103.498249 290.339224 
L 103.870632 290.339224 
L 103.870632 289.765573 
L 104.23523 289.765573 
L 104.23523 289.191921 
L 105.057436 289.191921 
L 105.057436 288.618269 
L 105.398279 288.618269 
L 105.398279 288.044617 
L 105.51043 288.044617 
L 105.51043 287.470966 
L 105.621863 287.470966 
L 105.621863 286.897314 
L 106.275913 286.897314 
L 106.275913 286.323662 
L 106.48859 286.323662 
L 106.48859 285.75001 
L 107.213174 285.75001 
L 107.213174 285.176359 
L 107.414787 285.176359 
L 107.414787 284.602707 
L 110.859585 284.602707 
L 110.859585 284.029055 
L 110.941652 284.029055 
L 110.941652 283.455404 
L 111.74176 283.455404 
L 111.74176 282.881752 
L 111.897469 282.881752 
L 111.897469 282.3081 
L 113.022974 282.3081 
L 113.022974 281.734448 
L 113.239614 281.734448 
L 113.239614 281.160797 
L 113.524343 281.160797 
L 113.524343 280.587145 
L 115.773423 280.587145 
L 115.773423 280.013493 
L 116.019919 280.013493 
L 116.019919 279.439842 
L 116.443076 279.439842 
L 116.443076 278.86619 
L 117.373392 278.86619 
L 117.373392 278.292538 
L 117.429921 278.292538 
L 117.429921 277.718886 
L 118.039942 277.718886 
L 118.039942 277.145235 
L 119.552816 277.145235 
L 119.552816 276.571583 
L 119.850084 276.571583 
L 119.850084 275.997931 
L 120.142369 275.997931 
L 120.142369 275.42428 
L 120.571812 275.42428 
L 120.571812 274.850628 
L 122.276749 274.850628 
L 122.276749 274.276976 
L 122.44689 274.276976 
L 122.44689 273.703324 
L 123.829748 273.703324 
L 123.829748 273.129673 
L 125.647598 273.129673 
L 125.647598 272.556021 
L 126.87191 272.556021 
L 126.87191 271.982369 
L 126.97016 271.982369 
L 126.97016 271.408718 
L 127.611382 271.408718 
L 127.611382 270.835066 
L 127.736845 270.835066 
L 127.736845 270.261414 
L 128.944197 270.261414 
L 128.944197 269.687762 
L 129.233413 269.687762 
L 129.233413 269.114111 
L 131.740458 269.114111 
L 131.740458 268.540459 
L 134.598256 268.540459 
L 134.598256 267.966807 
L 218.31546 267.966807 
L 218.31546 267.393156 
L 218.319449 267.393156 
L 218.319449 266.819504 
L 218.327077 266.819504 
L 218.327077 266.245852 
L 230.346983 266.245852 
L 230.346983 265.6722 
L 230.357595 265.6722 
L 230.357595 265.098549 
L 230.383055 265.098549 
L 230.383055 264.524897 
L 338.688 264.524897 
" style="fill:none;stroke:#ff00ff;stroke-linecap:square;stroke-width:1.5;"/>
   </g>
   <g id="line2d_36">
    <defs>
     <path d="M -0 8.485281 
L 5.091169 0 
L 0 -8.485281 
L -5.091169 -0 
z
" id="m0f6d690814" style="stroke:#ff00ff;stroke-linejoin:miter;stroke-width:1.5;"/>
    </defs>
    <g>
     <use style="fill-opacity:0;stroke:#ff00ff;stroke-linejoin:miter;stroke-width:1.5;" x="113.239614" xlink:href="#m0f6d690814" y="281.734448"/>
     <use style="fill-opacity:0;stroke:#ff00ff;stroke-linejoin:miter;stroke-width:1.5;" x="134.598256" xlink:href="#m0f6d690814" y="267.966807"/>
     <use style="fill-opacity:0;stroke:#ff00ff;stroke-linejoin:miter;stroke-width:1.5;" x="230.383055" xlink:href="#m0f6d690814" y="265.098549"/>
     <use style="fill-opacity:0;stroke:#ff00ff;stroke-linejoin:miter;stroke-width:1.5;" x="230.383055" xlink:href="#m0f6d690814" y="264.524897"/>
     <use style="fill-opacity:0;stroke:#ff00ff;stroke-linejoin:miter;stroke-width:1.5;" x="230.383055" xlink:href="#m0f6d690814" y="264.524897"/>
     <use style="fill-opacity:0;stroke:#ff00ff;stroke-linejoin:miter;stroke-width:1.5;" x="338.688" xlink:href="#m0f6d690814" y="264.524897"/>
    </g>
   </g>
   <g id="line2d_37">
    <path style="fill:none;stroke:#ff00ff;stroke-linecap:square;stroke-width:1.5;"/>
    <g/>
   </g>
   <g id="line2d_38">
    <path clip-path="url(#p46ceacc0bc)" d="M 218.223109 267.966807 
" style="fill:none;stroke:#ff00ff;stroke-linecap:square;stroke-width:1.5;"/>
    <defs>
     <path d="M -12 12 
L 12 -12 
M -12 -12 
L 12 12 
" id="m7e45114c38" style="stroke:#ff00ff;"/>
    </defs>
    <g clip-path="url(#p46ceacc0bc)">
     <use style="fill:#ff00ff;stroke:#ff00ff;" x="218.223109" xlink:href="#m7e45114c38" y="267.966807"/>
    </g>
   </g>
   <g id="line2d_39">
    <defs>
     <path d="M 0 1.5 
C 0.397805 1.5 0.77937 1.341951 1.06066 1.06066 
C 1.341951 0.77937 1.5 0.397805 1.5 0 
C 1.5 -0.397805 1.341951 -0.77937 1.06066 -1.06066 
C 0.77937 -1.341951 0.397805 -1.5 0 -1.5 
C -0.397805 -1.5 -0.77937 -1.341951 -1.06066 -1.06066 
C -1.341951 -0.77937 -1.5 -0.397805 -1.5 0 
C -1.5 0.397805 -1.341951 0.77937 -1.06066 1.06066 
C -0.77937 1.341951 -0.397805 1.5 0 1.5 
z
" id="mca652b8163" style="stroke:#ff7500;"/>
    </defs>
    <g>
     <use style="fill:#ff7500;stroke:#ff7500;" x="238.322037" xlink:href="#mca652b8163" y="6.381624"/>
     <use style="fill:#ff7500;stroke:#ff7500;" x="238.322037" xlink:href="#mca652b8163" y="6.381624"/>
    </g>
   </g>
   <g id="line2d_40">
    <path d="M 109.31223 298.944 
L 109.31223 298.370348 
L 113.804498 298.370348 
L 113.804498 297.796697 
L 114.816733 297.796697 
L 114.816733 297.223045 
L 116.443076 297.223045 
L 116.443076 296.649393 
L 117.202696 296.649393 
L 117.202696 296.075741 
L 119.148409 296.075741 
L 119.148409 295.50209 
L 120.618882 295.50209 
L 120.618882 294.928438 
L 120.8059 294.928438 
L 120.8059 293.207483 
L 121.219499 293.207483 
L 121.219499 292.060179 
L 121.579085 292.060179 
L 121.579085 291.486528 
L 122.104932 291.486528 
L 122.104932 290.912876 
L 123.474235 290.912876 
L 123.474235 290.339224 
L 123.751369 290.339224 
L 123.751369 289.765573 
L 125.074593 289.765573 
L 125.074593 289.191921 
L 125.892487 289.191921 
L 125.892487 288.618269 
L 126.030894 288.618269 
L 126.030894 288.044617 
L 126.338353 288.044617 
L 126.405947 286.897314 
L 126.839037 286.897314 
L 126.839037 286.323662 
L 127.325746 286.323662 
L 127.325746 285.75001 
L 127.642832 285.75001 
L 127.642832 285.176359 
L 127.985095 285.176359 
L 127.985095 284.602707 
L 128.590686 284.602707 
L 128.590686 284.029055 
L 130.045992 284.029055 
L 130.045992 283.455404 
L 130.371462 283.455404 
L 130.371462 282.881752 
L 130.61164 282.881752 
L 130.61164 282.3081 
L 131.590764 282.3081 
L 131.590764 281.734448 
L 132.777237 281.734448 
L 132.777237 281.160797 
L 133.844123 281.160797 
L 133.844123 280.587145 
L 135.701341 280.587145 
L 135.701341 280.013493 
L 138.067109 280.013493 
L 138.067109 279.439842 
L 141.364373 279.439842 
L 141.364373 278.86619 
L 141.549369 278.86619 
L 141.549369 278.292538 
L 142.405626 278.292538 
L 142.405626 277.718886 
L 143.666219 277.718886 
L 143.666219 277.145235 
L 144.330419 277.145235 
L 144.330419 276.571583 
L 145.777292 276.571583 
L 145.777292 275.997931 
L 146.356287 275.997931 
L 146.356287 275.42428 
L 146.958248 275.42428 
L 146.958248 274.850628 
L 147.87818 274.850628 
L 147.87818 274.276976 
L 148.563676 274.276976 
L 148.563676 273.129673 
L 149.223242 273.129673 
L 149.223242 272.556021 
L 149.690956 272.556021 
L 149.690956 271.982369 
L 149.823575 271.982369 
L 149.823575 271.408718 
L 150.505862 271.408718 
L 150.505862 270.835066 
L 151.920633 270.835066 
L 151.920633 270.261414 
L 152.222586 270.261414 
L 152.222586 269.687762 
L 152.481628 269.687762 
L 152.481628 269.114111 
L 154.426099 269.114111 
L 154.426099 268.540459 
L 154.54072 268.540459 
L 154.54072 267.966807 
L 154.8141 267.966807 
L 154.8141 267.393156 
L 155.565128 267.393156 
L 155.565128 266.819504 
L 156.574599 266.819504 
L 156.574599 266.245852 
L 157.363842 266.245852 
L 157.432298 265.098549 
L 158.233478 265.098549 
L 158.266075 263.951245 
L 158.962994 263.951245 
L 158.962994 263.377593 
L 159.623089 263.377593 
L 159.623089 262.803942 
L 159.738201 262.803942 
L 159.738201 262.23029 
L 159.976013 262.23029 
L 159.976013 261.656638 
L 162.707819 261.656638 
L 162.707819 261.082987 
L 163.180975 261.082987 
L 163.287113 259.935683 
L 164.202782 259.935683 
L 164.202782 259.362031 
L 164.448194 259.362031 
L 164.448194 258.78838 
L 165.403908 258.78838 
L 165.497378 257.641076 
L 165.608172 257.641076 
L 165.608172 257.067425 
L 166.134549 257.067425 
L 166.134549 256.493773 
L 166.595075 256.493773 
L 166.645502 255.346469 
L 167.653117 255.346469 
L 167.653117 254.772818 
L 168.232714 254.772818 
L 168.33661 253.051863 
L 168.873615 253.051863 
L 168.873615 252.478211 
L 169.608314 252.478211 
L 169.608314 251.904559 
L 169.760598 251.904559 
L 169.760598 251.330907 
L 169.967148 251.330907 
L 169.967148 250.757256 
L 170.620687 250.757256 
L 170.703344 249.609952 
L 170.777667 249.609952 
L 170.859585 248.462649 
L 171.396939 248.462649 
L 171.43014 247.315345 
L 171.861073 247.315345 
L 171.861073 246.741694 
L 172.110686 246.741694 
L 172.110686 246.168042 
L 172.296186 246.168042 
L 172.383371 245.020738 
L 172.453287 245.020738 
L 172.453287 244.447087 
L 172.647099 244.447087 
L 172.727814 242.726132 
L 172.786927 242.726132 
L 172.786927 242.15248 
L 173.014404 242.15248 
L 173.08184 240.431525 
L 173.330714 240.431525 
L 173.43792 237.563266 
L 173.476535 237.563266 
L 173.539951 235.842311 
L 173.600884 235.842311 
L 173.600884 235.268659 
L 173.733298 235.268659 
L 173.733298 234.695008 
L 173.979723 234.695008 
L 174.001754 232.400401 
L 174.348349 232.400401 
L 174.387156 231.253097 
L 174.554327 231.253097 
L 174.582034 230.105794 
L 174.673367 230.105794 
L 174.673367 229.532142 
L 174.789496 229.532142 
L 174.8944 227.811187 
L 175.110601 227.811187 
L 175.110601 227.237535 
L 175.221811 227.237535 
L 175.326195 225.51658 
L 175.336395 225.51658 
L 175.409661 223.795625 
L 175.450232 223.795625 
L 175.49273 222.07467 
L 175.669698 222.07467 
L 175.775421 218.632759 
L 175.870621 218.632759 
L 175.96727 216.338153 
L 176.03206 216.338153 
L 176.12977 212.896242 
L 176.201725 212.896242 
L 176.308139 210.027984 
L 176.319709 210.027984 
L 176.358219 208.88068 
L 176.434985 208.88068 
L 176.442643 207.733377 
L 176.564717 207.733377 
L 176.661386 204.865118 
L 176.687829 204.865118 
L 176.76504 201.99686 
L 176.819447 201.99686 
L 176.929616 197.407646 
L 176.94078 197.407646 
L 177.037243 196.260342 
L 177.081585 196.260342 
L 177.162587 191.097477 
L 177.261486 191.097477 
L 177.310727 187.655567 
L 177.419654 187.655567 
L 177.484686 184.213656 
L 177.545883 184.213656 
L 177.646212 179.624443 
L 177.674772 179.624443 
L 177.77259 177.329836 
L 177.811565 177.329836 
L 177.906862 172.740622 
L 177.945538 172.740622 
L 178.041854 169.872363 
L 178.057564 169.872363 
L 178.057564 169.298712 
L 178.172342 169.298712 
L 178.201784 166.430453 
L 178.313901 166.430453 
L 178.401368 164.135846 
L 178.432134 164.135846 
L 178.471368 162.414891 
L 178.58177 162.414891 
L 178.666222 159.546632 
L 178.713337 159.546632 
L 178.817212 155.53107 
L 178.837246 155.53107 
L 178.913829 150.941857 
L 178.961937 150.941857 
L 179.061053 148.073598 
L 179.077517 148.073598 
L 179.187431 144.631688 
L 179.20541 144.631688 
L 179.303155 140.042474 
L 179.322639 140.042474 
L 179.392276 135.45326 
L 179.442308 135.45326 
L 179.551555 132.585002 
L 179.580359 132.585002 
L 179.669668 130.864047 
L 179.720498 130.864047 
L 179.816983 127.422136 
L 179.839052 127.422136 
L 179.923915 125.701181 
L 179.96932 125.701181 
L 180.075325 123.406574 
L 180.137381 123.406574 
L 180.16678 122.259271 
L 180.296166 122.259271 
L 180.397157 119.964664 
L 180.429168 119.964664 
L 180.50515 118.243709 
L 180.546043 118.243709 
L 180.610971 116.522754 
L 180.778961 116.522754 
L 180.884622 114.801798 
L 181.196361 114.801798 
L 181.196361 114.228147 
L 181.34005 114.228147 
L 181.407854 111.93354 
L 181.458176 111.93354 
L 181.545534 110.212585 
L 181.592611 110.212585 
L 181.655184 107.917978 
L 181.718947 107.917978 
L 181.781069 106.197023 
L 181.879445 106.197023 
L 181.970301 104.476068 
L 182.064845 104.476068 
L 182.138181 102.181461 
L 182.248295 102.181461 
L 182.349535 99.886854 
L 182.391773 99.886854 
L 182.482712 98.165899 
L 182.504359 98.165899 
L 182.605472 94.723988 
L 182.692632 94.723988 
L 182.793992 91.85573 
L 182.898733 91.85573 
L 183.004162 90.134775 
L 183.067115 90.134775 
L 183.148095 87.840168 
L 183.236481 87.840168 
L 183.311516 86.119213 
L 183.395226 86.119213 
L 183.4747 84.398257 
L 183.547446 84.398257 
L 183.641438 82.677302 
L 183.817886 82.677302 
L 183.922905 80.382695 
L 183.962746 80.382695 
L 183.962746 79.809044 
L 184.087902 79.809044 
L 184.197448 77.514437 
L 184.199902 77.514437 
L 184.272134 75.793482 
L 184.356232 75.793482 
L 184.45565 74.072526 
L 184.601324 74.072526 
L 184.68266 72.351571 
L 184.737466 72.351571 
L 184.816987 71.204268 
L 184.850112 71.204268 
L 184.942059 70.056964 
L 184.987852 70.056964 
L 185.091905 67.762358 
L 185.124512 67.762358 
L 185.202291 66.615054 
L 185.33039 66.615054 
L 185.436997 64.320447 
L 185.509984 64.320447 
L 185.509984 63.173144 
L 185.746226 63.173144 
L 185.831345 60.878537 
L 185.887119 60.878537 
L 185.981526 59.157582 
L 186.031301 59.157582 
L 186.122736 57.436627 
L 186.225713 57.436627 
L 186.29983 55.715672 
L 186.3758 55.715672 
L 186.442811 53.994716 
L 186.492364 53.994716 
L 186.578209 51.700109 
L 186.60388 51.700109 
L 186.663633 50.552806 
L 186.721058 50.552806 
L 186.822684 48.258199 
L 186.866959 48.258199 
L 186.9646 46.537244 
L 187.05024 46.537244 
L 187.071064 45.389941 
L 187.164467 45.389941 
L 187.263548 42.521682 
L 187.278979 42.521682 
L 187.297478 41.374379 
L 218.796695 41.374379 
L 218.796695 40.800727 
L 219.08138 40.800727 
L 219.125647 39.653423 
L 219.551098 39.653423 
L 219.578064 37.932468 
L 219.679575 37.932468 
L 219.753686 34.490558 
L 219.791819 34.490558 
L 219.896534 30.474996 
L 219.909836 30.474996 
L 219.994954 26.459434 
L 220.05173 26.459434 
L 220.159739 23.017524 
L 220.231686 23.017524 
L 220.342295 18.42831 
L 220.350169 18.42831 
L 220.413341 16.133703 
L 220.5066 16.133703 
L 220.5066 15.560051 
L 220.634934 15.560051 
L 220.634934 14.9864 
L 220.766852 14.9864 
L 220.849697 13.265444 
L 220.909742 13.265444 
L 220.945133 11.544489 
L 230.823324 11.544489 
L 230.823324 10.970838 
L 231.056119 10.970838 
L 231.087919 9.823534 
L 231.176256 9.823534 
L 231.267863 7.528927 
L 237.947771 7.528927 
L 237.947771 6.955275 
L 238.322037 6.955275 
L 238.322037 6.381624 
L 338.688 6.381624 
L 338.688 6.381624 
" style="fill:none;stroke:#ff7500;stroke-linecap:square;stroke-width:1.5;"/>
   </g>
   <g id="line2d_41">
    <defs>
     <path d="M 0 -6 
L -1.347084 -1.854102 
L -5.706339 -1.854102 
L -2.179628 0.708204 
L -3.526712 4.854102 
L -0 2.291796 
L 3.526712 4.854102 
L 2.179628 0.708204 
L 5.706339 -1.854102 
L 1.347084 -1.854102 
z
" id="m3c3527a8c9" style="stroke:#ff7500;stroke-linejoin:bevel;stroke-width:1.5;"/>
    </defs>
    <g>
     <use style="fill-opacity:0;stroke:#ff7500;stroke-linejoin:bevel;stroke-width:1.5;" x="159.738201" xlink:href="#m3c3527a8c9" y="262.803942"/>
     <use style="fill-opacity:0;stroke:#ff7500;stroke-linejoin:bevel;stroke-width:1.5;" x="187.297478" xlink:href="#m3c3527a8c9" y="41.94803"/>
     <use style="fill-opacity:0;stroke:#ff7500;stroke-linejoin:bevel;stroke-width:1.5;" x="238.322037" xlink:href="#m3c3527a8c9" y="6.955275"/>
     <use style="fill-opacity:0;stroke:#ff7500;stroke-linejoin:bevel;stroke-width:1.5;" x="238.322037" xlink:href="#m3c3527a8c9" y="6.381624"/>
     <use style="fill-opacity:0;stroke:#ff7500;stroke-linejoin:bevel;stroke-width:1.5;" x="338.688" xlink:href="#m3c3527a8c9" y="6.381624"/>
    </g>
   </g>
   <g id="line2d_42">
    <path style="fill:none;stroke:#ff7500;stroke-linecap:square;stroke-width:1.5;"/>
    <g/>
   </g>
   <g id="line2d_43">
    <path clip-path="url(#p46ceacc0bc)" d="M 218.223109 41.374379 
" style="fill:none;stroke:#ff7500;stroke-linecap:square;stroke-width:1.5;"/>
    <defs>
     <path d="M -12 12 
L 12 -12 
M -12 -12 
L 12 12 
" id="meaca55336e" style="stroke:#ff7500;"/>
    </defs>
    <g clip-path="url(#p46ceacc0bc)">
     <use style="fill:#ff7500;stroke:#ff7500;" x="218.223109" xlink:href="#meaca55336e" y="41.374379"/>
    </g>
   </g>
   <g id="line2d_44">
    <defs>
     <path d="M 0 1.5 
C 0.397805 1.5 0.77937 1.341951 1.06066 1.06066 
C 1.341951 0.77937 1.5 0.397805 1.5 0 
C 1.5 -0.397805 1.341951 -0.77937 1.06066 -1.06066 
C 0.77937 -1.341951 0.397805 -1.5 0 -1.5 
C -0.397805 -1.5 -0.77937 -1.341951 -1.06066 -1.06066 
C -1.341951 -0.77937 -1.5 -0.397805 -1.5 0 
C -1.5 0.397805 -1.341951 0.77937 -1.06066 1.06066 
C -0.77937 1.341951 -0.397805 1.5 0 1.5 
z
" id="mf9a062c1b1" style="stroke:#6495ed;"/>
    </defs>
    <g>
     <use style="fill:#6495ed;stroke:#6495ed;" x="185.038202" xlink:href="#mf9a062c1b1" y="6.381624"/>
     <use style="fill:#6495ed;stroke:#6495ed;" x="185.038202" xlink:href="#mf9a062c1b1" y="6.381624"/>
    </g>
   </g>
   <g id="line2d_45">
    <path d="M 17.444571 298.944 
L 17.444571 287.470966 
L 77.884514 287.470966 
L 77.884514 286.897314 
L 82.626842 286.897314 
L 82.626842 286.323662 
L 97.224242 286.323662 
L 97.224242 285.75001 
L 97.403108 285.75001 
L 97.403108 285.176359 
L 102.464508 285.176359 
L 102.464508 284.602707 
L 103.372333 284.602707 
L 103.372333 284.029055 
L 103.993014 284.029055 
L 103.993014 282.3081 
L 104.23523 282.3081 
L 104.23523 281.734448 
L 104.826449 281.734448 
L 104.826449 280.587145 
L 106.593963 280.587145 
L 106.593963 280.013493 
L 106.802819 280.013493 
L 106.802819 279.439842 
L 108.006005 279.439842 
L 108.006005 278.86619 
L 108.764355 278.86619 
L 108.764355 278.292538 
L 108.948899 278.292538 
L 108.948899 277.718886 
L 109.401893 277.718886 
L 109.401893 277.145235 
L 110.188761 277.145235 
L 110.188761 276.571583 
L 110.358901 276.571583 
L 110.358901 275.997931 
L 112.356423 275.997931 
L 112.356423 275.42428 
L 113.453595 275.42428 
L 113.453595 274.850628 
L 114.080224 274.850628 
L 114.080224 274.276976 
L 115.460322 274.276976 
L 115.460322 273.703324 
L 116.081002 273.703324 
L 116.081002 272.556021 
L 116.323218 272.556021 
L 116.323218 271.982369 
L 117.202696 271.982369 
L 117.202696 270.835066 
L 118.202674 270.835066 
L 118.202674 270.261414 
L 118.942633 270.261414 
L 118.942633 269.687762 
L 120.47729 269.687762 
L 120.47729 269.114111 
L 120.618882 269.114111 
L 120.618882 268.540459 
L 121.355214 268.540459 
L 121.400219 266.819504 
L 122.104932 266.819504 
L 122.104932 266.245852 
L 122.489167 266.245852 
L 122.489167 265.098549 
L 123.434283 265.098549 
L 123.434283 264.524897 
L 123.672636 264.524897 
L 123.672636 263.951245 
L 124.817858 263.951245 
L 124.817858 263.377593 
L 125.219619 263.377593 
L 125.219619 262.803942 
L 126.304457 262.803942 
L 126.304457 262.23029 
L 127.642832 262.23029 
L 127.642832 261.656638 
L 128.199452 261.656638 
L 128.199452 261.082987 
L 128.709321 261.082987 
L 128.709321 260.509335 
L 129.376241 260.509335 
L 129.376241 259.935683 
L 129.714332 259.935683 
L 129.714332 259.362031 
L 131.665771 259.362031 
L 131.665771 258.78838 
L 132.230358 258.78838 
L 132.230358 258.214728 
L 132.565279 258.214728 
L 132.565279 257.641076 
L 133.032848 257.641076 
L 133.032848 257.067425 
L 134.343353 257.067425 
L 134.343353 256.493773 
L 138.794909 256.493773 
L 138.794909 255.920121 
L 142.20229 255.920121 
L 142.20229 255.346469 
L 142.405626 255.346469 
L 142.405626 254.772818 
L 143.014805 254.772818 
L 143.014805 254.199166 
L 143.273169 254.199166 
L 143.273169 253.625514 
L 144.981877 253.625514 
L 144.981877 253.051863 
L 145.553708 253.051863 
L 145.553708 252.478211 
L 145.932112 252.478211 
L 145.932112 251.904559 
L 148.554206 251.904559 
L 148.554206 251.330907 
L 150.505862 251.330907 
L 150.54816 250.183604 
L 150.816462 250.183604 
L 150.816462 249.609952 
L 151.485716 249.609952 
L 151.485716 249.036301 
L 152.0141 249.036301 
L 152.0141 248.462649 
L 152.161072 248.462649 
L 152.161072 247.888997 
L 152.443774 247.888997 
L 152.443774 247.315345 
L 152.959038 247.315345 
L 153.047115 246.168042 
L 153.430889 246.168042 
L 153.430889 245.59439 
L 153.601933 245.59439 
L 153.601933 245.020738 
L 154.208275 245.020738 
L 154.208275 244.447087 
L 154.46664 244.447087 
L 154.46664 243.873435 
L 155.089774 243.873435 
L 155.089774 243.299783 
L 156.095618 243.299783 
L 156.150854 241.578828 
L 156.279062 241.578828 
L 156.279062 241.005176 
L 156.610446 241.005176 
L 156.693802 239.857873 
L 156.964915 239.857873 
L 156.964915 239.284221 
L 157.511826 239.284221 
L 157.551454 238.136918 
L 157.80408 238.136918 
L 157.84861 236.989614 
L 158.003578 236.989614 
L 158.003578 236.415963 
L 158.238915 236.415963 
L 158.238915 235.842311 
L 158.460386 235.842311 
L 158.567409 234.121356 
L 158.795307 234.121356 
L 158.895065 232.974052 
L 158.910765 232.974052 
L 158.910765 232.400401 
L 159.092886 232.400401 
L 159.139412 231.253097 
L 159.257749 231.253097 
L 159.257749 230.679446 
L 159.39565 230.679446 
L 159.39565 230.105794 
L 159.658204 230.105794 
L 159.703247 228.95849 
L 159.872369 228.95849 
L 159.872369 228.384839 
L 160.118135 228.384839 
L 160.186333 226.663884 
L 160.321935 226.663884 
L 160.321935 226.090232 
L 160.509069 226.090232 
L 160.509069 225.51658 
L 160.698938 225.51658 
L 160.698938 224.942928 
L 160.914762 224.942928 
L 161.017045 223.221973 
L 161.406689 223.221973 
L 161.474555 222.07467 
L 161.555647 222.07467 
L 161.63189 220.927366 
L 161.681046 220.927366 
L 161.681046 220.353715 
L 161.88953 220.353715 
L 161.946759 219.206411 
L 162.021314 219.206411 
L 162.021314 218.632759 
L 162.156452 218.632759 
L 162.221468 216.911804 
L 162.290551 216.911804 
L 162.290551 216.338153 
L 162.444996 216.338153 
L 162.500433 214.617197 
L 162.636148 214.617197 
L 162.699403 212.322591 
L 162.866969 212.322591 
L 162.866969 211.748939 
L 163.070067 211.748939 
L 163.070067 211.175287 
L 163.404741 211.175287 
L 163.505512 209.454332 
L 163.94995 209.454332 
L 163.94995 208.88068 
L 164.094319 208.88068 
L 164.140886 207.159725 
L 164.314412 207.159725 
L 164.314412 206.586073 
L 164.727712 206.586073 
L 164.727712 206.012422 
L 165.102127 206.012422 
L 165.208163 204.865118 
L 165.389484 204.865118 
L 165.389484 204.291467 
L 165.689922 204.291467 
L 165.689922 203.717815 
L 165.841738 203.717815 
L 165.841738 203.144163 
L 165.967831 203.144163 
L 166.075685 201.423208 
L 166.374858 201.423208 
L 166.374858 200.849556 
L 166.544502 200.849556 
L 166.551253 199.702253 
L 166.772601 199.702253 
L 166.862349 198.554949 
L 166.954935 198.554949 
L 167.06015 196.833994 
L 167.167992 196.833994 
L 167.252491 195.113039 
L 167.288118 195.113039 
L 167.323672 193.965736 
L 167.449146 193.965736 
L 167.557803 192.818432 
L 167.722684 192.818432 
L 167.807685 191.671129 
L 168.357924 191.671129 
L 168.357924 191.097477 
L 168.488284 191.097477 
L 168.488284 190.523825 
L 168.674545 190.523825 
L 168.707384 189.376522 
L 168.849965 189.376522 
L 168.923766 187.081915 
L 169.192698 187.081915 
L 169.302579 185.934612 
L 169.337135 185.934612 
L 169.337135 185.36096 
L 169.707168 185.36096 
L 169.76902 183.066353 
L 169.936599 183.066353 
L 169.953269 181.91905 
L 170.121846 181.91905 
L 170.201421 180.771746 
L 170.326903 180.771746 
L 170.427184 179.624443 
L 170.494616 179.624443 
L 170.505381 178.477139 
L 170.623359 178.477139 
L 170.623359 177.903487 
L 170.767069 177.903487 
L 170.878029 176.182532 
L 170.88856 176.182532 
L 170.917488 175.035229 
L 171.024887 175.035229 
L 171.024887 174.461577 
L 171.198983 174.461577 
L 171.289242 172.740622 
L 171.379036 172.740622 
L 171.460731 171.019667 
L 171.547114 171.019667 
L 171.648197 169.872363 
L 171.675893 169.872363 
L 171.763723 167.577757 
L 171.793735 167.577757 
L 171.898371 165.856801 
L 171.910786 165.856801 
L 171.967781 164.135846 
L 172.108232 164.135846 
L 172.157246 162.988543 
L 172.22076 162.988543 
L 172.296186 160.693936 
L 172.356777 160.693936 
L 172.462909 158.972981 
L 172.472525 158.972981 
L 172.577957 157.825677 
L 172.58751 157.825677 
L 172.637578 156.104722 
L 172.857598 156.104722 
L 172.958396 152.08916 
L 173.053967 152.08916 
L 173.162883 149.220902 
L 173.213633 149.220902 
L 173.257343 147.499946 
L 173.339863 147.499946 
L 173.417442 144.631688 
L 173.492411 144.631688 
L 173.567059 142.337081 
L 173.645883 142.337081 
L 173.731062 140.616126 
L 173.76234 140.616126 
L 173.76234 140.042474 
L 173.904611 140.042474 
L 173.979723 138.321519 
L 174.019358 138.321519 
L 174.122426 134.305957 
L 174.185719 134.305957 
L 174.263971 133.158653 
L 174.335394 133.158653 
L 174.335394 132.585002 
L 174.515891 132.585002 
L 174.577774 129.143091 
L 174.667011 129.143091 
L 174.747357 127.422136 
L 174.852514 127.422136 
L 174.898584 124.553878 
L 174.977872 124.553878 
L 175.073373 121.111967 
L 175.098201 121.111967 
L 175.199215 115.949102 
L 175.215651 115.949102 
L 175.258724 113.654495 
L 175.332316 113.654495 
L 175.436043 107.344326 
L 175.446179 107.344326 
L 175.545203 104.476068 
L 175.583449 104.476068 
L 175.673699 99.886854 
L 175.699685 99.886854 
L 175.809197 94.723988 
L 175.821103 94.723988 
L 175.929857 89.561123 
L 175.94562 89.561123 
L 176.03402 86.119213 
L 176.067299 86.119213 
L 176.15314 80.382695 
L 176.182307 80.382695 
L 176.182307 79.809044 
L 176.294632 79.809044 
L 176.377442 77.514437 
L 176.456036 77.514437 
L 176.55521 74.646178 
L 176.587511 74.646178 
L 176.691603 71.204268 
L 176.813826 71.204268 
L 176.905401 68.336009 
L 177.003912 68.336009 
L 177.07051 64.320447 
L 177.171768 64.320447 
L 177.241386 62.599492 
L 177.303441 62.599492 
L 177.36346 59.731234 
L 177.443166 59.731234 
L 177.518911 56.862975 
L 177.579988 56.862975 
L 177.690816 54.568368 
L 177.705065 54.568368 
L 177.811565 49.979154 
L 177.820411 49.979154 
L 177.927968 45.389941 
L 177.95958 45.389941 
L 177.991135 43.668985 
L 178.10287 43.668985 
L 178.210434 41.374379 
L 178.21908 41.374379 
L 178.294978 40.227075 
L 178.353401 40.227075 
L 178.44579 36.785165 
L 178.5326 36.785165 
L 178.608839 32.769603 
L 178.656109 32.769603 
L 178.746913 29.901344 
L 178.775401 29.901344 
L 178.810529 28.180389 
L 178.991731 28.180389 
L 179.089033 25.885782 
L 179.159608 25.885782 
L 179.262495 23.591175 
L 180.441348 23.591175 
L 180.441348 23.017524 
L 181.423685 23.017524 
L 181.423685 22.443872 
L 181.744387 22.443872 
L 181.744387 21.87022 
L 181.967512 21.87022 
L 181.967512 21.296568 
L 182.103627 21.296568 
L 182.189195 20.149265 
L 182.463749 20.149265 
L 182.463749 19.575613 
L 182.786012 19.575613 
L 182.786012 19.001962 
L 182.92383 19.001962 
L 182.92383 18.42831 
L 183.085434 18.42831 
L 183.085434 17.854658 
L 183.206636 17.854658 
L 183.206636 17.281006 
L 183.743743 17.281006 
L 183.743743 16.707355 
L 183.904198 16.707355 
L 183.904198 16.133703 
L 184.01614 16.133703 
L 184.12244 14.412748 
L 184.137221 14.412748 
L 184.209713 12.691793 
L 184.327027 12.691793 
L 184.327027 12.118141 
L 184.448394 12.118141 
L 184.478605 10.970838 
L 184.609714 10.970838 
L 184.609714 10.397186 
L 184.733897 10.397186 
L 184.784985 9.249882 
L 184.86547 9.249882 
L 184.899683 8.102579 
L 185.003089 8.102579 
L 185.038202 6.381624 
L 338.688 6.381624 
L 338.688 6.381624 
" style="fill:none;stroke:#6495ed;stroke-linecap:square;stroke-width:1.5;"/>
   </g>
   <g id="line2d_46">
    <defs>
     <path d="M -0 6 
L 6 -6 
L -6 -6 
z
" id="mb5968b73f5" style="stroke:#6495ed;stroke-linejoin:miter;stroke-width:1.5;"/>
    </defs>
    <g>
     <use style="fill-opacity:0;stroke:#6495ed;stroke-linejoin:miter;stroke-width:1.5;" x="129.714332" xlink:href="#mb5968b73f5" y="259.935683"/>
     <use style="fill-opacity:0;stroke:#6495ed;stroke-linejoin:miter;stroke-width:1.5;" x="177.171768" xlink:href="#mb5968b73f5" y="63.746796"/>
     <use style="fill-opacity:0;stroke:#6495ed;stroke-linejoin:miter;stroke-width:1.5;" x="185.038202" xlink:href="#mb5968b73f5" y="6.955275"/>
     <use style="fill-opacity:0;stroke:#6495ed;stroke-linejoin:miter;stroke-width:1.5;" x="185.038202" xlink:href="#mb5968b73f5" y="6.381624"/>
     <use style="fill-opacity:0;stroke:#6495ed;stroke-linejoin:miter;stroke-width:1.5;" x="185.038202" xlink:href="#mb5968b73f5" y="6.381624"/>
     <use style="fill-opacity:0;stroke:#6495ed;stroke-linejoin:miter;stroke-width:1.5;" x="338.688" xlink:href="#mb5968b73f5" y="6.381624"/>
    </g>
   </g>
   <g id="line2d_47">
    <path style="fill:none;stroke:#6495ed;stroke-linecap:square;stroke-width:1.5;"/>
    <g/>
   </g>
   <g id="line2d_48">
    <path d="M 338.688 264.524897 
L 369.60768 293.092752 
" style="fill:none;stroke:#ff00ff;stroke-linecap:square;stroke-width:1.5;"/>
    <g>
     <use style="fill-opacity:0;stroke:#ff00ff;stroke-linejoin:miter;stroke-width:1.5;" x="338.688" xlink:href="#m0f6d690814" y="264.524897"/>
     <use style="fill-opacity:0;stroke:#ff00ff;stroke-linejoin:miter;stroke-width:1.5;" x="369.60768" xlink:href="#m0f6d690814" y="293.092752"/>
    </g>
   </g>
   <g id="line2d_49">
    <path d="M 338.688 161.267588 
L 369.60768 199.472792 
" style="fill:none;stroke:#000080;stroke-linecap:square;stroke-width:1.5;"/>
    <g>
     <use style="fill-opacity:0;stroke:#000080;stroke-width:1.5;" x="338.688" xlink:href="#m241540c657" y="161.267588"/>
     <use style="fill-opacity:0;stroke:#000080;stroke-width:1.5;" x="369.60768" xlink:href="#m241540c657" y="199.472792"/>
    </g>
   </g>
   <g id="line2d_50">
    <path d="M 338.688 6.381624 
L 369.60768 105.852832 
" style="fill:none;stroke:#ff7500;stroke-linecap:square;stroke-width:1.5;"/>
    <g>
     <use style="fill-opacity:0;stroke:#ff7500;stroke-linejoin:bevel;stroke-width:1.5;" x="338.688" xlink:href="#m3c3527a8c9" y="6.381624"/>
     <use style="fill-opacity:0;stroke:#ff7500;stroke-linejoin:bevel;stroke-width:1.5;" x="369.60768" xlink:href="#m3c3527a8c9" y="105.852832"/>
    </g>
   </g>
   <g id="line2d_51">
    <path d="M 338.688 6.381624 
L 369.60768 12.232871 
" style="fill:none;stroke:#6495ed;stroke-linecap:square;stroke-width:1.5;"/>
    <g>
     <use style="fill-opacity:0;stroke:#6495ed;stroke-linejoin:miter;stroke-width:1.5;" x="338.688" xlink:href="#mb5968b73f5" y="6.381624"/>
     <use style="fill-opacity:0;stroke:#6495ed;stroke-linejoin:miter;stroke-width:1.5;" x="369.60768" xlink:href="#mb5968b73f5" y="12.232871"/>
    </g>
   </g>
   <g id="line2d_52">
    <path d="M 338.688 298.944 
L 338.688 6.381624 
" style="fill:none;stroke:#000000;stroke-linecap:square;stroke-width:1.5;"/>
   </g>
   <g id="patch_3">
    <path d="M 57.6 298.944 
L 57.6 3.456 
" style="fill:none;stroke:#000000;stroke-linecap:square;stroke-linejoin:miter;stroke-width:0.8;"/>
   </g>
   <g id="patch_4">
    <path d="M 338.688 298.944 
L 338.688 3.456 
" style="fill:none;stroke:#000000;stroke-linecap:square;stroke-linejoin:miter;stroke-width:0.8;"/>
   </g>
   <g id="patch_5">
    <path d="M 57.6 298.944 
L 338.688 298.944 
" style="fill:none;stroke:#000000;stroke-linecap:square;stroke-linejoin:miter;stroke-width:0.8;"/>
   </g>
   <g id="patch_6">
    <path d="M 57.6 3.456 
L 338.688 3.456 
" style="fill:none;stroke:#000000;stroke-linecap:square;stroke-linejoin:miter;stroke-width:0.8;"/>
   </g>
   <g id="text_13">
    <!-- f7 -->
    <g transform="translate(375.22944 297.78369)scale(0.17 -0.17)">
     <defs>
      <path d="M 8.203125 72.90625 
L 55.078125 72.90625 
L 55.078125 68.703125 
L 28.609375 0 
L 18.3125 0 
L 43.21875 64.59375 
L 8.203125 64.59375 
z
" id="DejaVuSans-55"/>
     </defs>
     <use xlink:href="#DejaVuSans-102"/>
     <use x="35.205078" xlink:href="#DejaVuSans-55"/>
    </g>
   </g>
   <g id="text_14">
    <!-- f6 -->
    <g transform="translate(375.22944 204.16373)scale(0.17 -0.17)">
     <use xlink:href="#DejaVuSans-102"/>
     <use x="35.205078" xlink:href="#DejaVuSans-54"/>
    </g>
   </g>
   <g id="text_15">
    <!-- f8 -->
    <g transform="translate(375.22944 110.543769)scale(0.17 -0.17)">
     <use xlink:href="#DejaVuSans-102"/>
     <use x="35.205078" xlink:href="#DejaVuSans-56"/>
    </g>
   </g>
   <g id="text_16">
    <!-- f9 -->
    <g transform="translate(375.22944 16.923809)scale(0.17 -0.17)">
     <defs>
      <path d="M 10.984375 1.515625 
L 10.984375 10.5 
Q 14.703125 8.734375 18.5 7.8125 
Q 22.3125 6.890625 25.984375 6.890625 
Q 35.75 6.890625 40.890625 13.453125 
Q 46.046875 20.015625 46.78125 33.40625 
Q 43.953125 29.203125 39.59375 26.953125 
Q 35.25 24.703125 29.984375 24.703125 
Q 19.046875 24.703125 12.671875 31.3125 
Q 6.296875 37.9375 6.296875 49.421875 
Q 6.296875 60.640625 12.9375 67.421875 
Q 19.578125 74.21875 30.609375 74.21875 
Q 43.265625 74.21875 49.921875 64.515625 
Q 56.59375 54.828125 56.59375 36.375 
Q 56.59375 19.140625 48.40625 8.859375 
Q 40.234375 -1.421875 26.421875 -1.421875 
Q 22.703125 -1.421875 18.890625 -0.6875 
Q 15.09375 0.046875 10.984375 1.515625 
z
M 30.609375 32.421875 
Q 37.25 32.421875 41.125 36.953125 
Q 45.015625 41.5 45.015625 49.421875 
Q 45.015625 57.28125 41.125 61.84375 
Q 37.25 66.40625 30.609375 66.40625 
Q 23.96875 66.40625 20.09375 61.84375 
Q 16.21875 57.28125 16.21875 49.421875 
Q 16.21875 41.5 20.09375 36.953125 
Q 23.96875 32.421875 30.609375 32.421875 
z
" id="DejaVuSans-57"/>
     </defs>
     <use xlink:href="#DejaVuSans-102"/>
     <use x="35.205078" xlink:href="#DejaVuSans-57"/>
    </g>
   </g>
   <g id="text_17">
    <!-- bbob -->
    <g transform="translate(60.41088 14.161286)scale(0.102 -0.102)">
     <defs>
      <path d="M 48.6875 27.296875 
Q 48.6875 37.203125 44.609375 42.84375 
Q 40.53125 48.484375 33.40625 48.484375 
Q 26.265625 48.484375 22.1875 42.84375 
Q 18.109375 37.203125 18.109375 27.296875 
Q 18.109375 17.390625 22.1875 11.75 
Q 26.265625 6.109375 33.40625 6.109375 
Q 40.53125 6.109375 44.609375 11.75 
Q 48.6875 17.390625 48.6875 27.296875 
z
M 18.109375 46.390625 
Q 20.953125 51.265625 25.265625 53.625 
Q 29.59375 56 35.59375 56 
Q 45.5625 56 51.78125 48.09375 
Q 58.015625 40.1875 58.015625 27.296875 
Q 58.015625 14.40625 51.78125 6.484375 
Q 45.5625 -1.421875 35.59375 -1.421875 
Q 29.59375 -1.421875 25.265625 0.953125 
Q 20.953125 3.328125 18.109375 8.203125 
L 18.109375 0 
L 9.078125 0 
L 9.078125 75.984375 
L 18.109375 75.984375 
z
" id="DejaVuSans-98"/>
     </defs>
     <use xlink:href="#DejaVuSans-98"/>
     <use x="63.476562" xlink:href="#DejaVuSans-98"/>
     <use x="126.953125" xlink:href="#DejaVuSans-111"/>
     <use x="188.134766" xlink:href="#DejaVuSans-98"/>
    </g>
    <!-- Misc. moderate functions, 10-D -->
    <g transform="translate(60.41088 25.583055)scale(0.102 -0.102)">
     <defs>
      <path d="M 9.8125 72.90625 
L 24.515625 72.90625 
L 43.109375 23.296875 
L 61.8125 72.90625 
L 76.515625 72.90625 
L 76.515625 0 
L 66.890625 0 
L 66.890625 64.015625 
L 48.09375 14.015625 
L 38.1875 14.015625 
L 19.390625 64.015625 
L 19.390625 0 
L 9.8125 0 
z
" id="DejaVuSans-77"/>
      <path d="M 19.671875 64.796875 
L 19.671875 8.109375 
L 31.59375 8.109375 
Q 46.6875 8.109375 53.6875 14.9375 
Q 60.6875 21.78125 60.6875 36.53125 
Q 60.6875 51.171875 53.6875 57.984375 
Q 46.6875 64.796875 31.59375 64.796875 
z
M 9.8125 72.90625 
L 30.078125 72.90625 
Q 51.265625 72.90625 61.171875 64.09375 
Q 71.09375 55.28125 71.09375 36.53125 
Q 71.09375 17.671875 61.125 8.828125 
Q 51.171875 0 30.078125 0 
L 9.8125 0 
z
" id="DejaVuSans-68"/>
     </defs>
     <use xlink:href="#DejaVuSans-77"/>
     <use x="86.279297" xlink:href="#DejaVuSans-105"/>
     <use x="114.0625" xlink:href="#DejaVuSans-115"/>
     <use x="166.162109" xlink:href="#DejaVuSans-99"/>
     <use x="221.142578" xlink:href="#DejaVuSans-46"/>
     <use x="252.929688" xlink:href="#DejaVuSans-32"/>
     <use x="284.716797" xlink:href="#DejaVuSans-109"/>
     <use x="382.128906" xlink:href="#DejaVuSans-111"/>
     <use x="443.310547" xlink:href="#DejaVuSans-100"/>
     <use x="506.787109" xlink:href="#DejaVuSans-101"/>
     <use x="568.310547" xlink:href="#DejaVuSans-114"/>
     <use x="609.423828" xlink:href="#DejaVuSans-97"/>
     <use x="670.703125" xlink:href="#DejaVuSans-116"/>
     <use x="709.912109" xlink:href="#DejaVuSans-101"/>
     <use x="771.435547" xlink:href="#DejaVuSans-32"/>
     <use x="803.222656" xlink:href="#DejaVuSans-102"/>
     <use x="838.427734" xlink:href="#DejaVuSans-117"/>
     <use x="901.806641" xlink:href="#DejaVuSans-110"/>
     <use x="965.185547" xlink:href="#DejaVuSans-99"/>
     <use x="1020.166016" xlink:href="#DejaVuSans-116"/>
     <use x="1059.375" xlink:href="#DejaVuSans-105"/>
     <use x="1087.158203" xlink:href="#DejaVuSans-111"/>
     <use x="1148.339844" xlink:href="#DejaVuSans-110"/>
     <use x="1211.71875" xlink:href="#DejaVuSans-115"/>
     <use x="1263.818359" xlink:href="#DejaVuSans-44"/>
     <use x="1295.605469" xlink:href="#DejaVuSans-32"/>
     <use x="1327.392578" xlink:href="#DejaVuSans-49"/>
     <use x="1391.015625" xlink:href="#DejaVuSans-48"/>
     <use x="1454.638672" xlink:href="#DejaVuSans-45"/>
     <use x="1490.722656" xlink:href="#DejaVuSans-68"/>
    </g>
    <!-- 51 targets: 100..1e-08 -->
    <g transform="translate(60.41088 37.004824)scale(0.102 -0.102)">
     <defs>
      <path d="M 10.796875 72.90625 
L 49.515625 72.90625 
L 49.515625 64.59375 
L 19.828125 64.59375 
L 19.828125 46.734375 
Q 21.96875 47.46875 24.109375 47.828125 
Q 26.265625 48.1875 28.421875 48.1875 
Q 40.625 48.1875 47.75 41.5 
Q 54.890625 34.8125 54.890625 23.390625 
Q 54.890625 11.625 47.5625 5.09375 
Q 40.234375 -1.421875 26.90625 -1.421875 
Q 22.3125 -1.421875 17.546875 -0.640625 
Q 12.796875 0.140625 7.71875 1.703125 
L 7.71875 11.625 
Q 12.109375 9.234375 16.796875 8.0625 
Q 21.484375 6.890625 26.703125 6.890625 
Q 35.15625 6.890625 40.078125 11.328125 
Q 45.015625 15.765625 45.015625 23.390625 
Q 45.015625 31 40.078125 35.4375 
Q 35.15625 39.890625 26.703125 39.890625 
Q 22.75 39.890625 18.8125 39.015625 
Q 14.890625 38.140625 10.796875 36.28125 
z
" id="DejaVuSans-53"/>
      <path d="M 11.71875 12.40625 
L 22.015625 12.40625 
L 22.015625 0 
L 11.71875 0 
z
M 11.71875 51.703125 
L 22.015625 51.703125 
L 22.015625 39.3125 
L 11.71875 39.3125 
z
" id="DejaVuSans-58"/>
     </defs>
     <use xlink:href="#DejaVuSans-53"/>
     <use x="63.623047" xlink:href="#DejaVuSans-49"/>
     <use x="127.246094" xlink:href="#DejaVuSans-32"/>
     <use x="159.033203" xlink:href="#DejaVuSans-116"/>
     <use x="198.242188" xlink:href="#DejaVuSans-97"/>
     <use x="259.521484" xlink:href="#DejaVuSans-114"/>
     <use x="298.884766" xlink:href="#DejaVuSans-103"/>
     <use x="362.361328" xlink:href="#DejaVuSans-101"/>
     <use x="423.884766" xlink:href="#DejaVuSans-116"/>
     <use x="463.09375" xlink:href="#DejaVuSans-115"/>
     <use x="515.193359" xlink:href="#DejaVuSans-58"/>
     <use x="548.884766" xlink:href="#DejaVuSans-32"/>
     <use x="580.671875" xlink:href="#DejaVuSans-49"/>
     <use x="644.294922" xlink:href="#DejaVuSans-48"/>
     <use x="707.917969" xlink:href="#DejaVuSans-48"/>
     <use x="771.541016" xlink:href="#DejaVuSans-46"/>
     <use x="803.328125" xlink:href="#DejaVuSans-46"/>
     <use x="835.115234" xlink:href="#DejaVuSans-49"/>
     <use x="898.738281" xlink:href="#DejaVuSans-101"/>
     <use x="960.261719" xlink:href="#DejaVuSans-45"/>
     <use x="996.345703" xlink:href="#DejaVuSans-48"/>
     <use x="1059.96875" xlink:href="#DejaVuSans-56"/>
    </g>
    <!-- 15 instances -->
    <g transform="translate(60.41088 48.426593)scale(0.102 -0.102)">
     <use xlink:href="#DejaVuSans-49"/>
     <use x="63.623047" xlink:href="#DejaVuSans-53"/>
     <use x="127.246094" xlink:href="#DejaVuSans-32"/>
     <use x="159.033203" xlink:href="#DejaVuSans-105"/>
     <use x="186.816406" xlink:href="#DejaVuSans-110"/>
     <use x="250.195312" xlink:href="#DejaVuSans-115"/>
     <use x="302.294922" xlink:href="#DejaVuSans-116"/>
     <use x="341.503906" xlink:href="#DejaVuSans-97"/>
     <use x="402.783203" xlink:href="#DejaVuSans-110"/>
     <use x="466.162109" xlink:href="#DejaVuSans-99"/>
     <use x="521.142578" xlink:href="#DejaVuSans-101"/>
     <use x="582.666016" xlink:href="#DejaVuSans-115"/>
    </g>
   </g>
   <g id="text_18">
    <!-- v2.4 -->
    <g style="fill:#808080;" transform="translate(187.233062 293.909432)scale(0.1 -0.1)">
     <use xlink:href="#DejaVuSans-118"/>
     <use x="59.179688" xlink:href="#DejaVuSans-50"/>
     <use x="122.802734" xlink:href="#DejaVuSans-46"/>
     <use x="154.589844" xlink:href="#DejaVuSans-52"/>
    </g>
   </g>
  </g>
 </g>
 <defs>
  <clipPath id="p46ceacc0bc">
   <rect height="295.488" width="281.088" x="57.6" y="3.456"/>
  </clipPath>
 </defs>
</svg>
