<?xml version="1.0" encoding="utf-8" standalone="no"?>
<!DOCTYPE svg PUBLIC "-//W3C//DTD SVG 1.1//EN"
  "http://www.w3.org/Graphics/SVG/1.1/DTD/svg11.dtd">
<!-- Created with matplotlib (https://matplotlib.org/) -->
<svg height="345.6pt" version="1.1" viewBox="0 0 460.8 345.6" width="460.8pt" xmlns="http://www.w3.org/2000/svg" xmlns:xlink="http://www.w3.org/1999/xlink">
 <metadata>
  <rdf:RDF xmlns:cc="http://creativecommons.org/ns#" xmlns:dc="http://purl.org/dc/elements/1.1/" xmlns:rdf="http://www.w3.org/1999/02/22-rdf-syntax-ns#">
   <cc:Work>
    <dc:type rdf:resource="http://purl.org/dc/dcmitype/StillImage"/>
    <dc:date>2021-06-17T01:38:49.732887</dc:date>
    <dc:format>image/svg+xml</dc:format>
    <dc:creator>
     <cc:Agent>
      <dc:title>Matplotlib v3.3.4, https://matplotlib.org/</dc:title>
     </cc:Agent>
    </dc:creator>
   </cc:Work>
  </rdf:RDF>
 </metadata>
 <defs>
  <style type="text/css">*{stroke-linecap:butt;stroke-linejoin:round;}</style>
 </defs>
 <g id="figure_1">
  <g id="patch_1">
   <path d="M 0 345.6 
L 460.8 345.6 
L 460.8 0 
L 0 0 
z
" style="fill:#ffffff;"/>
  </g>
  <g id="axes_1">
   <g id="patch_2">
    <path d="M 57.6 298.944 
L 338.688 298.944 
L 338.688 27.648 
L 57.6 27.648 
z
" style="fill:#ffffff;"/>
   </g>
   <g id="matplotlib.axis_1">
    <g id="xtick_1">
     <g id="line2d_1">
      <path clip-path="url(#p77b3aee78d)" d="M 57.6 298.944 
L 57.6 27.648 
" style="fill:none;stroke:#b0b0b0;stroke-linecap:square;stroke-width:0.8;"/>
     </g>
     <g id="line2d_2">
      <defs>
       <path d="M 0 0 
L 0 3.5 
" id="m6f7ce0f872" style="stroke:#000000;stroke-width:0.8;"/>
      </defs>
      <g>
       <use style="stroke:#000000;stroke-width:0.8;" x="57.6" xlink:href="#m6f7ce0f872" y="298.944"/>
      </g>
     </g>
     <g id="text_1">
      <!-- 0 -->
      <g transform="translate(51.2375 321.140875)scale(0.2 -0.2)">
       <defs>
        <path d="M 31.78125 66.40625 
Q 24.171875 66.40625 20.328125 58.90625 
Q 16.5 51.421875 16.5 36.375 
Q 16.5 21.390625 20.328125 13.890625 
Q 24.171875 6.390625 31.78125 6.390625 
Q 39.453125 6.390625 43.28125 13.890625 
Q 47.125 21.390625 47.125 36.375 
Q 47.125 51.421875 43.28125 58.90625 
Q 39.453125 66.40625 31.78125 66.40625 
z
M 31.78125 74.21875 
Q 44.046875 74.21875 50.515625 64.515625 
Q 56.984375 54.828125 56.984375 36.375 
Q 56.984375 17.96875 50.515625 8.265625 
Q 44.046875 -1.421875 31.78125 -1.421875 
Q 19.53125 -1.421875 13.0625 8.265625 
Q 6.59375 17.96875 6.59375 36.375 
Q 6.59375 54.828125 13.0625 64.515625 
Q 19.53125 74.21875 31.78125 74.21875 
z
" id="DejaVuSans-48"/>
       </defs>
       <use xlink:href="#DejaVuSans-48"/>
      </g>
     </g>
    </g>
    <g id="xtick_2">
     <g id="line2d_3">
      <path clip-path="url(#p77b3aee78d)" d="M 137.910857 298.944 
L 137.910857 27.648 
" style="fill:none;stroke:#b0b0b0;stroke-linecap:square;stroke-width:0.8;"/>
     </g>
     <g id="line2d_4">
      <g>
       <use style="stroke:#000000;stroke-width:0.8;" x="137.910857" xlink:href="#m6f7ce0f872" y="298.944"/>
      </g>
     </g>
     <g id="text_2">
      <!-- 2 -->
      <g transform="translate(131.548357 321.140875)scale(0.2 -0.2)">
       <defs>
        <path d="M 19.1875 8.296875 
L 53.609375 8.296875 
L 53.609375 0 
L 7.328125 0 
L 7.328125 8.296875 
Q 12.9375 14.109375 22.625 23.890625 
Q 32.328125 33.6875 34.8125 36.53125 
Q 39.546875 41.84375 41.421875 45.53125 
Q 43.3125 49.21875 43.3125 52.78125 
Q 43.3125 58.59375 39.234375 62.25 
Q 35.15625 65.921875 28.609375 65.921875 
Q 23.96875 65.921875 18.8125 64.3125 
Q 13.671875 62.703125 7.8125 59.421875 
L 7.8125 69.390625 
Q 13.765625 71.78125 18.9375 73 
Q 24.125 74.21875 28.421875 74.21875 
Q 39.75 74.21875 46.484375 68.546875 
Q 53.21875 62.890625 53.21875 53.421875 
Q 53.21875 48.921875 51.53125 44.890625 
Q 49.859375 40.875 45.40625 35.40625 
Q 44.1875 33.984375 37.640625 27.21875 
Q 31.109375 20.453125 19.1875 8.296875 
z
" id="DejaVuSans-50"/>
       </defs>
       <use xlink:href="#DejaVuSans-50"/>
      </g>
     </g>
    </g>
    <g id="xtick_3">
     <g id="line2d_5">
      <path clip-path="url(#p77b3aee78d)" d="M 218.221714 298.944 
L 218.221714 27.648 
" style="fill:none;stroke:#b0b0b0;stroke-linecap:square;stroke-width:0.8;"/>
     </g>
     <g id="line2d_6">
      <g>
       <use style="stroke:#000000;stroke-width:0.8;" x="218.221714" xlink:href="#m6f7ce0f872" y="298.944"/>
      </g>
     </g>
     <g id="text_3">
      <!-- 4 -->
      <g transform="translate(211.859214 321.140875)scale(0.2 -0.2)">
       <defs>
        <path d="M 37.796875 64.3125 
L 12.890625 25.390625 
L 37.796875 25.390625 
z
M 35.203125 72.90625 
L 47.609375 72.90625 
L 47.609375 25.390625 
L 58.015625 25.390625 
L 58.015625 17.1875 
L 47.609375 17.1875 
L 47.609375 0 
L 37.796875 0 
L 37.796875 17.1875 
L 4.890625 17.1875 
L 4.890625 26.703125 
z
" id="DejaVuSans-52"/>
       </defs>
       <use xlink:href="#DejaVuSans-52"/>
      </g>
     </g>
    </g>
    <g id="xtick_4">
     <g id="line2d_7">
      <path clip-path="url(#p77b3aee78d)" d="M 298.532571 298.944 
L 298.532571 27.648 
" style="fill:none;stroke:#b0b0b0;stroke-linecap:square;stroke-width:0.8;"/>
     </g>
     <g id="line2d_8">
      <g>
       <use style="stroke:#000000;stroke-width:0.8;" x="298.532571" xlink:href="#m6f7ce0f872" y="298.944"/>
      </g>
     </g>
     <g id="text_4">
      <!-- 6 -->
      <g transform="translate(292.170071 321.140875)scale(0.2 -0.2)">
       <defs>
        <path d="M 33.015625 40.375 
Q 26.375 40.375 22.484375 35.828125 
Q 18.609375 31.296875 18.609375 23.390625 
Q 18.609375 15.53125 22.484375 10.953125 
Q 26.375 6.390625 33.015625 6.390625 
Q 39.65625 6.390625 43.53125 10.953125 
Q 47.40625 15.53125 47.40625 23.390625 
Q 47.40625 31.296875 43.53125 35.828125 
Q 39.65625 40.375 33.015625 40.375 
z
M 52.59375 71.296875 
L 52.59375 62.3125 
Q 48.875 64.0625 45.09375 64.984375 
Q 41.3125 65.921875 37.59375 65.921875 
Q 27.828125 65.921875 22.671875 59.328125 
Q 17.53125 52.734375 16.796875 39.40625 
Q 19.671875 43.65625 24.015625 45.921875 
Q 28.375 48.1875 33.59375 48.1875 
Q 44.578125 48.1875 50.953125 41.515625 
Q 57.328125 34.859375 57.328125 23.390625 
Q 57.328125 12.15625 50.6875 5.359375 
Q 44.046875 -1.421875 33.015625 -1.421875 
Q 20.359375 -1.421875 13.671875 8.265625 
Q 6.984375 17.96875 6.984375 36.375 
Q 6.984375 53.65625 15.1875 63.9375 
Q 23.390625 74.21875 37.203125 74.21875 
Q 40.921875 74.21875 44.703125 73.484375 
Q 48.484375 72.75 52.59375 71.296875 
z
" id="DejaVuSans-54"/>
       </defs>
       <use xlink:href="#DejaVuSans-54"/>
      </g>
     </g>
    </g>
    <g id="xtick_5">
     <g id="line2d_9">
      <path clip-path="url(#p77b3aee78d)" d="M 97.755429 298.944 
L 97.755429 27.648 
" style="fill:none;stroke:#b0b0b0;stroke-linecap:square;stroke-width:0.8;"/>
     </g>
     <g id="line2d_10">
      <defs>
       <path d="M 0 0 
L 0 2 
" id="m0e231c589f" style="stroke:#000000;stroke-width:0.6;"/>
      </defs>
      <g>
       <use style="stroke:#000000;stroke-width:0.6;" x="97.755429" xlink:href="#m0e231c589f" y="298.944"/>
      </g>
     </g>
    </g>
    <g id="xtick_6">
     <g id="line2d_11">
      <path clip-path="url(#p77b3aee78d)" d="M 178.066286 298.944 
L 178.066286 27.648 
" style="fill:none;stroke:#b0b0b0;stroke-linecap:square;stroke-width:0.8;"/>
     </g>
     <g id="line2d_12">
      <g>
       <use style="stroke:#000000;stroke-width:0.6;" x="178.066286" xlink:href="#m0e231c589f" y="298.944"/>
      </g>
     </g>
    </g>
    <g id="xtick_7">
     <g id="line2d_13">
      <path clip-path="url(#p77b3aee78d)" d="M 258.377143 298.944 
L 258.377143 27.648 
" style="fill:none;stroke:#b0b0b0;stroke-linecap:square;stroke-width:0.8;"/>
     </g>
     <g id="line2d_14">
      <g>
       <use style="stroke:#000000;stroke-width:0.6;" x="258.377143" xlink:href="#m0e231c589f" y="298.944"/>
      </g>
     </g>
    </g>
    <g id="xtick_8">
     <g id="line2d_15">
      <path clip-path="url(#p77b3aee78d)" d="M 338.688 298.944 
L 338.688 27.648 
" style="fill:none;stroke:#b0b0b0;stroke-linecap:square;stroke-width:0.8;"/>
     </g>
     <g id="line2d_16">
      <g>
       <use style="stroke:#000000;stroke-width:0.6;" x="338.688" xlink:href="#m0e231c589f" y="298.944"/>
      </g>
     </g>
    </g>
    <g id="text_5">
     <!-- log10(# f-evals / dimension) -->
     <g transform="translate(77.764078 342.217594)scale(0.17 -0.17)">
      <defs>
       <path d="M 9.421875 75.984375 
L 18.40625 75.984375 
L 18.40625 0 
L 9.421875 0 
z
" id="DejaVuSans-108"/>
       <path d="M 30.609375 48.390625 
Q 23.390625 48.390625 19.1875 42.75 
Q 14.984375 37.109375 14.984375 27.296875 
Q 14.984375 17.484375 19.15625 11.84375 
Q 23.34375 6.203125 30.609375 6.203125 
Q 37.796875 6.203125 41.984375 11.859375 
Q 46.1875 17.53125 46.1875 27.296875 
Q 46.1875 37.015625 41.984375 42.703125 
Q 37.796875 48.390625 30.609375 48.390625 
z
M 30.609375 56 
Q 42.328125 56 49.015625 48.375 
Q 55.71875 40.765625 55.71875 27.296875 
Q 55.71875 13.875 49.015625 6.21875 
Q 42.328125 -1.421875 30.609375 -1.421875 
Q 18.84375 -1.421875 12.171875 6.21875 
Q 5.515625 13.875 5.515625 27.296875 
Q 5.515625 40.765625 12.171875 48.375 
Q 18.84375 56 30.609375 56 
z
" id="DejaVuSans-111"/>
       <path d="M 45.40625 27.984375 
Q 45.40625 37.75 41.375 43.109375 
Q 37.359375 48.484375 30.078125 48.484375 
Q 22.859375 48.484375 18.828125 43.109375 
Q 14.796875 37.75 14.796875 27.984375 
Q 14.796875 18.265625 18.828125 12.890625 
Q 22.859375 7.515625 30.078125 7.515625 
Q 37.359375 7.515625 41.375 12.890625 
Q 45.40625 18.265625 45.40625 27.984375 
z
M 54.390625 6.78125 
Q 54.390625 -7.171875 48.1875 -13.984375 
Q 42 -20.796875 29.203125 -20.796875 
Q 24.46875 -20.796875 20.265625 -20.09375 
Q 16.0625 -19.390625 12.109375 -17.921875 
L 12.109375 -9.1875 
Q 16.0625 -11.328125 19.921875 -12.34375 
Q 23.78125 -13.375 27.78125 -13.375 
Q 36.625 -13.375 41.015625 -8.765625 
Q 45.40625 -4.15625 45.40625 5.171875 
L 45.40625 9.625 
Q 42.625 4.78125 38.28125 2.390625 
Q 33.9375 0 27.875 0 
Q 17.828125 0 11.671875 7.65625 
Q 5.515625 15.328125 5.515625 27.984375 
Q 5.515625 40.671875 11.671875 48.328125 
Q 17.828125 56 27.875 56 
Q 33.9375 56 38.28125 53.609375 
Q 42.625 51.21875 45.40625 46.390625 
L 45.40625 54.6875 
L 54.390625 54.6875 
z
" id="DejaVuSans-103"/>
       <path d="M 12.40625 8.296875 
L 28.515625 8.296875 
L 28.515625 63.921875 
L 10.984375 60.40625 
L 10.984375 69.390625 
L 28.421875 72.90625 
L 38.28125 72.90625 
L 38.28125 8.296875 
L 54.390625 8.296875 
L 54.390625 0 
L 12.40625 0 
z
" id="DejaVuSans-49"/>
       <path d="M 31 75.875 
Q 24.46875 64.65625 21.28125 53.65625 
Q 18.109375 42.671875 18.109375 31.390625 
Q 18.109375 20.125 21.3125 9.0625 
Q 24.515625 -2 31 -13.1875 
L 23.1875 -13.1875 
Q 15.875 -1.703125 12.234375 9.375 
Q 8.59375 20.453125 8.59375 31.390625 
Q 8.59375 42.28125 12.203125 53.3125 
Q 15.828125 64.359375 23.1875 75.875 
z
" id="DejaVuSans-40"/>
       <path d="M 51.125 44 
L 36.921875 44 
L 32.8125 27.6875 
L 47.125 27.6875 
z
M 43.796875 71.78125 
L 38.71875 51.515625 
L 52.984375 51.515625 
L 58.109375 71.78125 
L 65.921875 71.78125 
L 60.890625 51.515625 
L 76.125 51.515625 
L 76.125 44 
L 58.984375 44 
L 54.984375 27.6875 
L 70.515625 27.6875 
L 70.515625 20.21875 
L 53.078125 20.21875 
L 48 0 
L 40.1875 0 
L 45.21875 20.21875 
L 30.90625 20.21875 
L 25.875 0 
L 18.015625 0 
L 23.09375 20.21875 
L 7.71875 20.21875 
L 7.71875 27.6875 
L 24.90625 27.6875 
L 29 44 
L 13.28125 44 
L 13.28125 51.515625 
L 30.90625 51.515625 
L 35.890625 71.78125 
z
" id="DejaVuSans-35"/>
       <path id="DejaVuSans-32"/>
       <path d="M 37.109375 75.984375 
L 37.109375 68.5 
L 28.515625 68.5 
Q 23.6875 68.5 21.796875 66.546875 
Q 19.921875 64.59375 19.921875 59.515625 
L 19.921875 54.6875 
L 34.71875 54.6875 
L 34.71875 47.703125 
L 19.921875 47.703125 
L 19.921875 0 
L 10.890625 0 
L 10.890625 47.703125 
L 2.296875 47.703125 
L 2.296875 54.6875 
L 10.890625 54.6875 
L 10.890625 58.5 
Q 10.890625 67.625 15.140625 71.796875 
Q 19.390625 75.984375 28.609375 75.984375 
z
" id="DejaVuSans-102"/>
       <path d="M 4.890625 31.390625 
L 31.203125 31.390625 
L 31.203125 23.390625 
L 4.890625 23.390625 
z
" id="DejaVuSans-45"/>
       <path d="M 56.203125 29.59375 
L 56.203125 25.203125 
L 14.890625 25.203125 
Q 15.484375 15.921875 20.484375 11.0625 
Q 25.484375 6.203125 34.421875 6.203125 
Q 39.59375 6.203125 44.453125 7.46875 
Q 49.3125 8.734375 54.109375 11.28125 
L 54.109375 2.78125 
Q 49.265625 0.734375 44.1875 -0.34375 
Q 39.109375 -1.421875 33.890625 -1.421875 
Q 20.796875 -1.421875 13.15625 6.1875 
Q 5.515625 13.8125 5.515625 26.8125 
Q 5.515625 40.234375 12.765625 48.109375 
Q 20.015625 56 32.328125 56 
Q 43.359375 56 49.78125 48.890625 
Q 56.203125 41.796875 56.203125 29.59375 
z
M 47.21875 32.234375 
Q 47.125 39.59375 43.09375 43.984375 
Q 39.0625 48.390625 32.421875 48.390625 
Q 24.90625 48.390625 20.390625 44.140625 
Q 15.875 39.890625 15.1875 32.171875 
z
" id="DejaVuSans-101"/>
       <path d="M 2.984375 54.6875 
L 12.5 54.6875 
L 29.59375 8.796875 
L 46.6875 54.6875 
L 56.203125 54.6875 
L 35.6875 0 
L 23.484375 0 
z
" id="DejaVuSans-118"/>
       <path d="M 34.28125 27.484375 
Q 23.390625 27.484375 19.1875 25 
Q 14.984375 22.515625 14.984375 16.5 
Q 14.984375 11.71875 18.140625 8.90625 
Q 21.296875 6.109375 26.703125 6.109375 
Q 34.1875 6.109375 38.703125 11.40625 
Q 43.21875 16.703125 43.21875 25.484375 
L 43.21875 27.484375 
z
M 52.203125 31.203125 
L 52.203125 0 
L 43.21875 0 
L 43.21875 8.296875 
Q 40.140625 3.328125 35.546875 0.953125 
Q 30.953125 -1.421875 24.3125 -1.421875 
Q 15.921875 -1.421875 10.953125 3.296875 
Q 6 8.015625 6 15.921875 
Q 6 25.140625 12.171875 29.828125 
Q 18.359375 34.515625 30.609375 34.515625 
L 43.21875 34.515625 
L 43.21875 35.40625 
Q 43.21875 41.609375 39.140625 45 
Q 35.0625 48.390625 27.6875 48.390625 
Q 23 48.390625 18.546875 47.265625 
Q 14.109375 46.140625 10.015625 43.890625 
L 10.015625 52.203125 
Q 14.9375 54.109375 19.578125 55.046875 
Q 24.21875 56 28.609375 56 
Q 40.484375 56 46.34375 49.84375 
Q 52.203125 43.703125 52.203125 31.203125 
z
" id="DejaVuSans-97"/>
       <path d="M 44.28125 53.078125 
L 44.28125 44.578125 
Q 40.484375 46.53125 36.375 47.5 
Q 32.28125 48.484375 27.875 48.484375 
Q 21.1875 48.484375 17.84375 46.4375 
Q 14.5 44.390625 14.5 40.28125 
Q 14.5 37.15625 16.890625 35.375 
Q 19.28125 33.59375 26.515625 31.984375 
L 29.59375 31.296875 
Q 39.15625 29.25 43.1875 25.515625 
Q 47.21875 21.78125 47.21875 15.09375 
Q 47.21875 7.46875 41.1875 3.015625 
Q 35.15625 -1.421875 24.609375 -1.421875 
Q 20.21875 -1.421875 15.453125 -0.5625 
Q 10.6875 0.296875 5.421875 2 
L 5.421875 11.28125 
Q 10.40625 8.6875 15.234375 7.390625 
Q 20.0625 6.109375 24.8125 6.109375 
Q 31.15625 6.109375 34.5625 8.28125 
Q 37.984375 10.453125 37.984375 14.40625 
Q 37.984375 18.0625 35.515625 20.015625 
Q 33.0625 21.96875 24.703125 23.78125 
L 21.578125 24.515625 
Q 13.234375 26.265625 9.515625 29.90625 
Q 5.8125 33.546875 5.8125 39.890625 
Q 5.8125 47.609375 11.28125 51.796875 
Q 16.75 56 26.8125 56 
Q 31.78125 56 36.171875 55.265625 
Q 40.578125 54.546875 44.28125 53.078125 
z
" id="DejaVuSans-115"/>
       <path d="M 25.390625 72.90625 
L 33.6875 72.90625 
L 8.296875 -9.28125 
L 0 -9.28125 
z
" id="DejaVuSans-47"/>
       <path d="M 45.40625 46.390625 
L 45.40625 75.984375 
L 54.390625 75.984375 
L 54.390625 0 
L 45.40625 0 
L 45.40625 8.203125 
Q 42.578125 3.328125 38.25 0.953125 
Q 33.9375 -1.421875 27.875 -1.421875 
Q 17.96875 -1.421875 11.734375 6.484375 
Q 5.515625 14.40625 5.515625 27.296875 
Q 5.515625 40.1875 11.734375 48.09375 
Q 17.96875 56 27.875 56 
Q 33.9375 56 38.25 53.625 
Q 42.578125 51.265625 45.40625 46.390625 
z
M 14.796875 27.296875 
Q 14.796875 17.390625 18.875 11.75 
Q 22.953125 6.109375 30.078125 6.109375 
Q 37.203125 6.109375 41.296875 11.75 
Q 45.40625 17.390625 45.40625 27.296875 
Q 45.40625 37.203125 41.296875 42.84375 
Q 37.203125 48.484375 30.078125 48.484375 
Q 22.953125 48.484375 18.875 42.84375 
Q 14.796875 37.203125 14.796875 27.296875 
z
" id="DejaVuSans-100"/>
       <path d="M 9.421875 54.6875 
L 18.40625 54.6875 
L 18.40625 0 
L 9.421875 0 
z
M 9.421875 75.984375 
L 18.40625 75.984375 
L 18.40625 64.59375 
L 9.421875 64.59375 
z
" id="DejaVuSans-105"/>
       <path d="M 52 44.1875 
Q 55.375 50.25 60.0625 53.125 
Q 64.75 56 71.09375 56 
Q 79.640625 56 84.28125 50.015625 
Q 88.921875 44.046875 88.921875 33.015625 
L 88.921875 0 
L 79.890625 0 
L 79.890625 32.71875 
Q 79.890625 40.578125 77.09375 44.375 
Q 74.3125 48.1875 68.609375 48.1875 
Q 61.625 48.1875 57.5625 43.546875 
Q 53.515625 38.921875 53.515625 30.90625 
L 53.515625 0 
L 44.484375 0 
L 44.484375 32.71875 
Q 44.484375 40.625 41.703125 44.40625 
Q 38.921875 48.1875 33.109375 48.1875 
Q 26.21875 48.1875 22.15625 43.53125 
Q 18.109375 38.875 18.109375 30.90625 
L 18.109375 0 
L 9.078125 0 
L 9.078125 54.6875 
L 18.109375 54.6875 
L 18.109375 46.1875 
Q 21.1875 51.21875 25.484375 53.609375 
Q 29.78125 56 35.6875 56 
Q 41.65625 56 45.828125 52.96875 
Q 50 49.953125 52 44.1875 
z
" id="DejaVuSans-109"/>
       <path d="M 54.890625 33.015625 
L 54.890625 0 
L 45.90625 0 
L 45.90625 32.71875 
Q 45.90625 40.484375 42.875 44.328125 
Q 39.84375 48.1875 33.796875 48.1875 
Q 26.515625 48.1875 22.3125 43.546875 
Q 18.109375 38.921875 18.109375 30.90625 
L 18.109375 0 
L 9.078125 0 
L 9.078125 54.6875 
L 18.109375 54.6875 
L 18.109375 46.1875 
Q 21.34375 51.125 25.703125 53.5625 
Q 30.078125 56 35.796875 56 
Q 45.21875 56 50.046875 50.171875 
Q 54.890625 44.34375 54.890625 33.015625 
z
" id="DejaVuSans-110"/>
       <path d="M 8.015625 75.875 
L 15.828125 75.875 
Q 23.140625 64.359375 26.78125 53.3125 
Q 30.421875 42.28125 30.421875 31.390625 
Q 30.421875 20.453125 26.78125 9.375 
Q 23.140625 -1.703125 15.828125 -13.1875 
L 8.015625 -13.1875 
Q 14.5 -2 17.703125 9.0625 
Q 20.90625 20.125 20.90625 31.390625 
Q 20.90625 42.671875 17.703125 53.65625 
Q 14.5 64.65625 8.015625 75.875 
z
" id="DejaVuSans-41"/>
      </defs>
      <use xlink:href="#DejaVuSans-108"/>
      <use x="27.783203" xlink:href="#DejaVuSans-111"/>
      <use x="88.964844" xlink:href="#DejaVuSans-103"/>
      <use x="152.441406" xlink:href="#DejaVuSans-49"/>
      <use x="216.064453" xlink:href="#DejaVuSans-48"/>
      <use x="279.6875" xlink:href="#DejaVuSans-40"/>
      <use x="318.701172" xlink:href="#DejaVuSans-35"/>
      <use x="402.490234" xlink:href="#DejaVuSans-32"/>
      <use x="434.277344" xlink:href="#DejaVuSans-102"/>
      <use x="463.982422" xlink:href="#DejaVuSans-45"/>
      <use x="500.066406" xlink:href="#DejaVuSans-101"/>
      <use x="561.589844" xlink:href="#DejaVuSans-118"/>
      <use x="620.769531" xlink:href="#DejaVuSans-97"/>
      <use x="682.048828" xlink:href="#DejaVuSans-108"/>
      <use x="709.832031" xlink:href="#DejaVuSans-115"/>
      <use x="761.931641" xlink:href="#DejaVuSans-32"/>
      <use x="793.71875" xlink:href="#DejaVuSans-47"/>
      <use x="827.410156" xlink:href="#DejaVuSans-32"/>
      <use x="859.197266" xlink:href="#DejaVuSans-100"/>
      <use x="922.673828" xlink:href="#DejaVuSans-105"/>
      <use x="950.457031" xlink:href="#DejaVuSans-109"/>
      <use x="1047.869141" xlink:href="#DejaVuSans-101"/>
      <use x="1109.392578" xlink:href="#DejaVuSans-110"/>
      <use x="1172.771484" xlink:href="#DejaVuSans-115"/>
      <use x="1224.871094" xlink:href="#DejaVuSans-105"/>
      <use x="1252.654297" xlink:href="#DejaVuSans-111"/>
      <use x="1313.835938" xlink:href="#DejaVuSans-110"/>
      <use x="1377.214844" xlink:href="#DejaVuSans-41"/>
     </g>
    </g>
   </g>
   <g id="matplotlib.axis_2">
    <g id="ytick_1">
     <g id="line2d_17">
      <path clip-path="url(#p77b3aee78d)" d="M 57.6 298.944 
L 338.688 298.944 
" style="fill:none;stroke:#b0b0b0;stroke-linecap:square;stroke-width:0.8;"/>
     </g>
     <g id="line2d_18">
      <defs>
       <path d="M 0 0 
L -3.5 0 
" id="m6676899f10" style="stroke:#000000;stroke-width:0.8;"/>
      </defs>
      <g>
       <use style="stroke:#000000;stroke-width:0.8;" x="57.6" xlink:href="#m6676899f10" y="298.944"/>
      </g>
     </g>
     <g id="text_6">
      <!-- 0.0 -->
      <g transform="translate(25.155 305.02275)scale(0.16 -0.16)">
       <defs>
        <path d="M 10.6875 12.40625 
L 21 12.40625 
L 21 0 
L 10.6875 0 
z
" id="DejaVuSans-46"/>
       </defs>
       <use xlink:href="#DejaVuSans-48"/>
       <use x="63.623047" xlink:href="#DejaVuSans-46"/>
       <use x="95.410156" xlink:href="#DejaVuSans-48"/>
      </g>
     </g>
    </g>
    <g id="ytick_2">
     <g id="line2d_19">
      <path clip-path="url(#p77b3aee78d)" d="M 57.6 245.22202 
L 338.688 245.22202 
" style="fill:none;stroke:#b0b0b0;stroke-linecap:square;stroke-width:0.8;"/>
     </g>
     <g id="line2d_20">
      <g>
       <use style="stroke:#000000;stroke-width:0.8;" x="57.6" xlink:href="#m6676899f10" y="245.22202"/>
      </g>
     </g>
     <g id="text_7">
      <!-- 0.2 -->
      <g transform="translate(25.155 251.30077)scale(0.16 -0.16)">
       <use xlink:href="#DejaVuSans-48"/>
       <use x="63.623047" xlink:href="#DejaVuSans-46"/>
       <use x="95.410156" xlink:href="#DejaVuSans-50"/>
      </g>
     </g>
    </g>
    <g id="ytick_3">
     <g id="line2d_21">
      <path clip-path="url(#p77b3aee78d)" d="M 57.6 191.50004 
L 338.688 191.50004 
" style="fill:none;stroke:#b0b0b0;stroke-linecap:square;stroke-width:0.8;"/>
     </g>
     <g id="line2d_22">
      <g>
       <use style="stroke:#000000;stroke-width:0.8;" x="57.6" xlink:href="#m6676899f10" y="191.50004"/>
      </g>
     </g>
     <g id="text_8">
      <!-- 0.4 -->
      <g transform="translate(25.155 197.57879)scale(0.16 -0.16)">
       <use xlink:href="#DejaVuSans-48"/>
       <use x="63.623047" xlink:href="#DejaVuSans-46"/>
       <use x="95.410156" xlink:href="#DejaVuSans-52"/>
      </g>
     </g>
    </g>
    <g id="ytick_4">
     <g id="line2d_23">
      <path clip-path="url(#p77b3aee78d)" d="M 57.6 137.778059 
L 338.688 137.778059 
" style="fill:none;stroke:#b0b0b0;stroke-linecap:square;stroke-width:0.8;"/>
     </g>
     <g id="line2d_24">
      <g>
       <use style="stroke:#000000;stroke-width:0.8;" x="57.6" xlink:href="#m6676899f10" y="137.778059"/>
      </g>
     </g>
     <g id="text_9">
      <!-- 0.6 -->
      <g transform="translate(25.155 143.856809)scale(0.16 -0.16)">
       <use xlink:href="#DejaVuSans-48"/>
       <use x="63.623047" xlink:href="#DejaVuSans-46"/>
       <use x="95.410156" xlink:href="#DejaVuSans-54"/>
      </g>
     </g>
    </g>
    <g id="ytick_5">
     <g id="line2d_25">
      <path clip-path="url(#p77b3aee78d)" d="M 57.6 84.056079 
L 338.688 84.056079 
" style="fill:none;stroke:#b0b0b0;stroke-linecap:square;stroke-width:0.8;"/>
     </g>
     <g id="line2d_26">
      <g>
       <use style="stroke:#000000;stroke-width:0.8;" x="57.6" xlink:href="#m6676899f10" y="84.056079"/>
      </g>
     </g>
     <g id="text_10">
      <!-- 0.8 -->
      <g transform="translate(25.155 90.134829)scale(0.16 -0.16)">
       <defs>
        <path d="M 31.78125 34.625 
Q 24.75 34.625 20.71875 30.859375 
Q 16.703125 27.09375 16.703125 20.515625 
Q 16.703125 13.921875 20.71875 10.15625 
Q 24.75 6.390625 31.78125 6.390625 
Q 38.8125 6.390625 42.859375 10.171875 
Q 46.921875 13.96875 46.921875 20.515625 
Q 46.921875 27.09375 42.890625 30.859375 
Q 38.875 34.625 31.78125 34.625 
z
M 21.921875 38.8125 
Q 15.578125 40.375 12.03125 44.71875 
Q 8.5 49.078125 8.5 55.328125 
Q 8.5 64.0625 14.71875 69.140625 
Q 20.953125 74.21875 31.78125 74.21875 
Q 42.671875 74.21875 48.875 69.140625 
Q 55.078125 64.0625 55.078125 55.328125 
Q 55.078125 49.078125 51.53125 44.71875 
Q 48 40.375 41.703125 38.8125 
Q 48.828125 37.15625 52.796875 32.3125 
Q 56.78125 27.484375 56.78125 20.515625 
Q 56.78125 9.90625 50.3125 4.234375 
Q 43.84375 -1.421875 31.78125 -1.421875 
Q 19.734375 -1.421875 13.25 4.234375 
Q 6.78125 9.90625 6.78125 20.515625 
Q 6.78125 27.484375 10.78125 32.3125 
Q 14.796875 37.15625 21.921875 38.8125 
z
M 18.3125 54.390625 
Q 18.3125 48.734375 21.84375 45.5625 
Q 25.390625 42.390625 31.78125 42.390625 
Q 38.140625 42.390625 41.71875 45.5625 
Q 45.3125 48.734375 45.3125 54.390625 
Q 45.3125 60.0625 41.71875 63.234375 
Q 38.140625 66.40625 31.78125 66.40625 
Q 25.390625 66.40625 21.84375 63.234375 
Q 18.3125 60.0625 18.3125 54.390625 
z
" id="DejaVuSans-56"/>
       </defs>
       <use xlink:href="#DejaVuSans-48"/>
       <use x="63.623047" xlink:href="#DejaVuSans-46"/>
       <use x="95.410156" xlink:href="#DejaVuSans-56"/>
      </g>
     </g>
    </g>
    <g id="ytick_6">
     <g id="line2d_27">
      <path clip-path="url(#p77b3aee78d)" d="M 57.6 30.334099 
L 338.688 30.334099 
" style="fill:none;stroke:#b0b0b0;stroke-linecap:square;stroke-width:0.8;"/>
     </g>
     <g id="line2d_28">
      <g>
       <use style="stroke:#000000;stroke-width:0.8;" x="57.6" xlink:href="#m6676899f10" y="30.334099"/>
      </g>
     </g>
     <g id="text_11">
      <!-- 1.0 -->
      <g transform="translate(25.155 36.412849)scale(0.16 -0.16)">
       <use xlink:href="#DejaVuSans-49"/>
       <use x="63.623047" xlink:href="#DejaVuSans-46"/>
       <use x="95.410156" xlink:href="#DejaVuSans-48"/>
      </g>
     </g>
    </g>
    <g id="text_12">
     <!-- Fraction of function,target pairs -->
     <g transform="translate(17.619531 297.681)rotate(-90)scale(0.17 -0.17)">
      <defs>
       <path d="M 9.8125 72.90625 
L 51.703125 72.90625 
L 51.703125 64.59375 
L 19.671875 64.59375 
L 19.671875 43.109375 
L 48.578125 43.109375 
L 48.578125 34.8125 
L 19.671875 34.8125 
L 19.671875 0 
L 9.8125 0 
z
" id="DejaVuSans-70"/>
       <path d="M 41.109375 46.296875 
Q 39.59375 47.171875 37.8125 47.578125 
Q 36.03125 48 33.890625 48 
Q 26.265625 48 22.1875 43.046875 
Q 18.109375 38.09375 18.109375 28.8125 
L 18.109375 0 
L 9.078125 0 
L 9.078125 54.6875 
L 18.109375 54.6875 
L 18.109375 46.1875 
Q 20.953125 51.171875 25.484375 53.578125 
Q 30.03125 56 36.53125 56 
Q 37.453125 56 38.578125 55.875 
Q 39.703125 55.765625 41.0625 55.515625 
z
" id="DejaVuSans-114"/>
       <path d="M 48.78125 52.59375 
L 48.78125 44.1875 
Q 44.96875 46.296875 41.140625 47.34375 
Q 37.3125 48.390625 33.40625 48.390625 
Q 24.65625 48.390625 19.8125 42.84375 
Q 14.984375 37.3125 14.984375 27.296875 
Q 14.984375 17.28125 19.8125 11.734375 
Q 24.65625 6.203125 33.40625 6.203125 
Q 37.3125 6.203125 41.140625 7.25 
Q 44.96875 8.296875 48.78125 10.40625 
L 48.78125 2.09375 
Q 45.015625 0.34375 40.984375 -0.53125 
Q 36.96875 -1.421875 32.421875 -1.421875 
Q 20.0625 -1.421875 12.78125 6.34375 
Q 5.515625 14.109375 5.515625 27.296875 
Q 5.515625 40.671875 12.859375 48.328125 
Q 20.21875 56 33.015625 56 
Q 37.15625 56 41.109375 55.140625 
Q 45.0625 54.296875 48.78125 52.59375 
z
" id="DejaVuSans-99"/>
       <path d="M 18.3125 70.21875 
L 18.3125 54.6875 
L 36.8125 54.6875 
L 36.8125 47.703125 
L 18.3125 47.703125 
L 18.3125 18.015625 
Q 18.3125 11.328125 20.140625 9.421875 
Q 21.96875 7.515625 27.59375 7.515625 
L 36.8125 7.515625 
L 36.8125 0 
L 27.59375 0 
Q 17.1875 0 13.234375 3.875 
Q 9.28125 7.765625 9.28125 18.015625 
L 9.28125 47.703125 
L 2.6875 47.703125 
L 2.6875 54.6875 
L 9.28125 54.6875 
L 9.28125 70.21875 
z
" id="DejaVuSans-116"/>
       <path d="M 8.5 21.578125 
L 8.5 54.6875 
L 17.484375 54.6875 
L 17.484375 21.921875 
Q 17.484375 14.15625 20.5 10.265625 
Q 23.53125 6.390625 29.59375 6.390625 
Q 36.859375 6.390625 41.078125 11.03125 
Q 45.3125 15.671875 45.3125 23.6875 
L 45.3125 54.6875 
L 54.296875 54.6875 
L 54.296875 0 
L 45.3125 0 
L 45.3125 8.40625 
Q 42.046875 3.421875 37.71875 1 
Q 33.40625 -1.421875 27.6875 -1.421875 
Q 18.265625 -1.421875 13.375 4.4375 
Q 8.5 10.296875 8.5 21.578125 
z
M 31.109375 56 
z
" id="DejaVuSans-117"/>
       <path d="M 11.71875 12.40625 
L 22.015625 12.40625 
L 22.015625 4 
L 14.015625 -11.625 
L 7.71875 -11.625 
L 11.71875 4 
z
" id="DejaVuSans-44"/>
       <path d="M 18.109375 8.203125 
L 18.109375 -20.796875 
L 9.078125 -20.796875 
L 9.078125 54.6875 
L 18.109375 54.6875 
L 18.109375 46.390625 
Q 20.953125 51.265625 25.265625 53.625 
Q 29.59375 56 35.59375 56 
Q 45.5625 56 51.78125 48.09375 
Q 58.015625 40.1875 58.015625 27.296875 
Q 58.015625 14.40625 51.78125 6.484375 
Q 45.5625 -1.421875 35.59375 -1.421875 
Q 29.59375 -1.421875 25.265625 0.953125 
Q 20.953125 3.328125 18.109375 8.203125 
z
M 48.6875 27.296875 
Q 48.6875 37.203125 44.609375 42.84375 
Q 40.53125 48.484375 33.40625 48.484375 
Q 26.265625 48.484375 22.1875 42.84375 
Q 18.109375 37.203125 18.109375 27.296875 
Q 18.109375 17.390625 22.1875 11.75 
Q 26.265625 6.109375 33.40625 6.109375 
Q 40.53125 6.109375 44.609375 11.75 
Q 48.6875 17.390625 48.6875 27.296875 
z
" id="DejaVuSans-112"/>
      </defs>
      <use xlink:href="#DejaVuSans-70"/>
      <use x="50.269531" xlink:href="#DejaVuSans-114"/>
      <use x="91.382812" xlink:href="#DejaVuSans-97"/>
      <use x="152.662109" xlink:href="#DejaVuSans-99"/>
      <use x="207.642578" xlink:href="#DejaVuSans-116"/>
      <use x="246.851562" xlink:href="#DejaVuSans-105"/>
      <use x="274.634766" xlink:href="#DejaVuSans-111"/>
      <use x="335.816406" xlink:href="#DejaVuSans-110"/>
      <use x="399.195312" xlink:href="#DejaVuSans-32"/>
      <use x="430.982422" xlink:href="#DejaVuSans-111"/>
      <use x="492.164062" xlink:href="#DejaVuSans-102"/>
      <use x="527.369141" xlink:href="#DejaVuSans-32"/>
      <use x="559.15625" xlink:href="#DejaVuSans-102"/>
      <use x="594.361328" xlink:href="#DejaVuSans-117"/>
      <use x="657.740234" xlink:href="#DejaVuSans-110"/>
      <use x="721.119141" xlink:href="#DejaVuSans-99"/>
      <use x="776.099609" xlink:href="#DejaVuSans-116"/>
      <use x="815.308594" xlink:href="#DejaVuSans-105"/>
      <use x="843.091797" xlink:href="#DejaVuSans-111"/>
      <use x="904.273438" xlink:href="#DejaVuSans-110"/>
      <use x="967.652344" xlink:href="#DejaVuSans-44"/>
      <use x="999.439453" xlink:href="#DejaVuSans-116"/>
      <use x="1038.648438" xlink:href="#DejaVuSans-97"/>
      <use x="1099.927734" xlink:href="#DejaVuSans-114"/>
      <use x="1139.291016" xlink:href="#DejaVuSans-103"/>
      <use x="1202.767578" xlink:href="#DejaVuSans-101"/>
      <use x="1264.291016" xlink:href="#DejaVuSans-116"/>
      <use x="1303.5" xlink:href="#DejaVuSans-32"/>
      <use x="1335.287109" xlink:href="#DejaVuSans-112"/>
      <use x="1398.763672" xlink:href="#DejaVuSans-97"/>
      <use x="1460.042969" xlink:href="#DejaVuSans-105"/>
      <use x="1487.826172" xlink:href="#DejaVuSans-114"/>
      <use x="1528.939453" xlink:href="#DejaVuSans-115"/>
     </g>
    </g>
   </g>
   <g id="line2d_29">
    <defs>
     <path d="M 0 1.5 
C 0.397805 1.5 0.77937 1.341951 1.06066 1.06066 
C 1.341951 0.77937 1.5 0.397805 1.5 0 
C 1.5 -0.397805 1.341951 -0.77937 1.06066 -1.06066 
C 0.77937 -1.341951 0.397805 -1.5 0 -1.5 
C -0.397805 -1.5 -0.77937 -1.341951 -1.06066 -1.06066 
C -1.341951 -0.77937 -1.5 -0.397805 -1.5 0 
C -1.5 0.397805 -1.341951 0.77937 -1.06066 1.06066 
C -0.77937 1.341951 -0.397805 1.5 0 1.5 
z
" id="mea952e670b" style="stroke:#00bfbf;"/>
    </defs>
    <g>
     <use style="fill:#00bfbf;stroke:#00bfbf;" x="251.700254" xlink:href="#mea952e670b" y="30.334099"/>
     <use style="fill:#00bfbf;stroke:#00bfbf;" x="251.700254" xlink:href="#mea952e670b" y="30.334099"/>
    </g>
   </g>
   <g id="line2d_30">
    <path d="M 45.512012 298.944 
L 45.512012 269.976266 
L 57.6 269.976266 
L 57.6 266.289463 
L 64.67102 266.289463 
L 64.67102 265.236091 
L 73.579452 265.236091 
L 73.579452 264.182719 
L 83.830028 264.182719 
L 83.830028 263.129347 
L 91.535274 263.129347 
L 91.535274 261.022602 
L 93.863965 261.022602 
L 93.863965 260.495916 
L 94.921215 260.495916 
L 94.921215 259.442544 
L 96.86091 259.442544 
L 96.86091 258.915858 
L 101.646892 258.915858 
L 101.646892 258.389172 
L 105.951954 258.389172 
L 105.951954 257.862486 
L 107.514726 257.862486 
L 107.514726 257.3358 
L 108.006005 257.3358 
L 108.006005 255.229055 
L 109.401893 255.229055 
L 109.401893 254.702369 
L 110.274038 254.702369 
L 110.274038 254.175683 
L 110.694282 254.175683 
L 110.694282 253.122311 
L 111.505558 253.122311 
L 111.505558 252.595625 
L 113.73488 252.595625 
L 113.73488 252.068939 
L 115.711251 252.068939 
L 115.711251 251.542253 
L 116.323218 251.542253 
L 116.323218 251.015567 
L 117.765302 251.015567 
L 117.765302 249.962195 
L 118.838828 249.962195 
L 118.838828 249.435508 
L 121.489881 249.435508 
L 121.489881 248.908822 
L 124.743806 248.908822 
L 124.743806 248.382136 
L 126.338353 248.382136 
L 126.338353 247.85545 
L 127.165014 247.85545 
L 127.165014 245.748706 
L 127.954256 245.748706 
L 127.954256 245.22202 
L 128.709321 245.22202 
L 128.709321 241.008531 
L 129.290685 241.008531 
L 129.290685 239.955159 
L 132.060454 239.955159 
L 132.060454 239.428473 
L 133.124876 239.428473 
L 133.124876 238.375101 
L 134.236034 238.375101 
L 134.236034 237.848415 
L 135.076644 237.848415 
L 135.076644 237.321729 
L 135.280614 237.321729 
L 135.381712 234.161612 
L 135.780341 234.161612 
L 135.780341 229.421437 
L 137.289545 229.421437 
L 137.289545 228.894751 
L 137.997836 228.894751 
L 137.997836 227.841379 
L 138.84457 227.841379 
L 138.84457 226.261321 
L 139.333553 226.261321 
L 139.333553 223.627891 
L 140.79731 223.627891 
L 140.79731 222.574518 
L 141.017599 222.574518 
L 141.017599 220.467774 
L 142.419098 220.467774 
L 142.419098 218.887716 
L 142.949611 218.887716 
L 142.949611 218.36103 
L 190.249927 218.36103 
L 190.323484 216.780971 
L 190.3623 216.780971 
L 190.370914 214.147541 
L 190.686682 214.147541 
L 190.792081 209.934052 
L 190.829869 209.934052 
L 190.934409 203.613819 
L 191.034181 203.613819 
L 191.10038 199.927017 
L 191.178666 199.927017 
L 191.272966 196.7669 
L 202.270579 196.7669 
L 202.363912 195.186842 
L 202.404994 195.186842 
L 202.512645 192.026726 
L 202.523373 192.026726 
L 202.596153 188.339923 
L 202.638823 188.339923 
L 202.734451 176.226143 
L 202.77467 176.226143 
L 202.823233 171.485969 
L 209.398816 171.485969 
L 209.509816 164.63905 
L 209.545704 164.63905 
L 209.651501 151.998584 
L 209.678562 151.998584 
L 209.722624 147.785095 
L 214.400955 147.785095 
L 214.484342 140.938176 
L 214.521036 140.938176 
L 214.611362 128.29771 
L 214.644578 128.29771 
L 214.644578 127.771024 
L 218.345961 127.771024 
L 218.454709 119.870733 
L 218.471909 119.870733 
L 218.471909 119.344047 
L 221.457857 119.344047 
L 221.555362 111.970441 
L 221.572639 111.970441 
L 221.614322 106.176895 
L 224.179626 106.176895 
L 224.27602 96.696545 
L 226.467219 96.696545 
L 226.573951 85.109451 
L 226.58475 85.109451 
L 226.58475 83.529393 
L 228.518734 83.529393 
L 228.623261 76.682474 
L 230.387135 76.682474 
L 230.448229 72.468985 
L 232.035144 72.468985 
L 232.100183 67.202125 
L 233.530629 67.202125 
L 233.609105 62.46195 
L 234.950756 62.46195 
L 234.978465 59.82852 
L 236.223255 59.82852 
L 236.284026 55.088345 
L 237.438178 55.088345 
L 237.484179 52.9816 
L 238.564443 52.9816 
L 238.604862 48.241426 
L 239.619808 48.241426 
L 239.655815 47.188054 
L 240.614934 47.188054 
L 240.643402 45.081309 
L 241.578961 45.081309 
L 241.588554 43.501251 
L 242.471 43.501251 
L 242.471 42.447879 
L 243.298105 42.447879 
L 243.319622 39.814448 
L 244.137147 39.814448 
L 244.137147 39.287762 
L 244.910131 39.287762 
L 244.910131 38.23439 
L 245.634558 38.23439 
L 245.650304 35.60096 
L 246.335829 35.60096 
L 246.341742 34.547588 
L 247.699148 34.547588 
L 247.699148 34.020902 
L 248.331886 34.020902 
L 248.331886 33.494215 
L 249.511965 33.494215 
L 249.525442 31.914157 
L 250.655555 31.914157 
L 250.655555 31.387471 
L 251.185594 31.387471 
L 251.185594 30.860785 
L 251.700254 30.860785 
L 251.700254 30.334099 
L 338.688 30.334099 
L 338.688 30.334099 
" style="fill:none;stroke:#00bfbf;stroke-linecap:square;stroke-width:1.5;"/>
   </g>
   <g id="line2d_31">
    <defs>
     <path d="M -6 0 
L 6 0 
M 0 6 
L 0 -6 
" id="m126c314a36" style="stroke:#00bfbf;stroke-width:1.5;"/>
    </defs>
    <g>
     <use style="fill-opacity:0;stroke:#00bfbf;stroke-width:1.5;" x="115.711251" xlink:href="#m126c314a36" y="252.068939"/>
     <use style="fill-opacity:0;stroke:#00bfbf;stroke-width:1.5;" x="202.77467" xlink:href="#m126c314a36" y="175.172771"/>
     <use style="fill-opacity:0;stroke:#00bfbf;stroke-width:1.5;" x="224.182724" xlink:href="#m126c314a36" y="105.123522"/>
     <use style="fill-opacity:0;stroke:#00bfbf;stroke-width:1.5;" x="251.700254" xlink:href="#m126c314a36" y="30.860785"/>
     <use style="fill-opacity:0;stroke:#00bfbf;stroke-width:1.5;" x="251.700254" xlink:href="#m126c314a36" y="30.334099"/>
     <use style="fill-opacity:0;stroke:#00bfbf;stroke-width:1.5;" x="338.688" xlink:href="#m126c314a36" y="30.334099"/>
    </g>
   </g>
   <g id="line2d_32">
    <path style="fill:none;stroke:#00bfbf;stroke-linecap:square;stroke-width:1.5;"/>
    <g/>
   </g>
   <g id="line2d_33">
    <path clip-path="url(#p77b3aee78d)" d="M 190.180414 218.36103 
" style="fill:none;stroke:#00bfbf;stroke-linecap:square;stroke-width:1.5;"/>
    <defs>
     <path d="M -12 12 
L 12 -12 
M -12 -12 
L 12 12 
" id="m8e9d6d5361" style="stroke:#00bfbf;"/>
    </defs>
    <g clip-path="url(#p77b3aee78d)">
     <use style="fill:#00bfbf;stroke:#00bfbf;" x="190.180414" xlink:href="#m8e9d6d5361" y="218.36103"/>
    </g>
   </g>
   <g id="line2d_34">
    <defs>
     <path d="M 0 1.5 
C 0.397805 1.5 0.77937 1.341951 1.06066 1.06066 
C 1.341951 0.77937 1.5 0.397805 1.5 0 
C 1.5 -0.397805 1.341951 -0.77937 1.06066 -1.06066 
C 0.77937 -1.341951 0.397805 -1.5 0 -1.5 
C -0.397805 -1.5 -0.77937 -1.341951 -1.06066 -1.06066 
C -1.341951 -0.77937 -1.5 -0.397805 -1.5 0 
C -1.5 0.397805 -1.341951 0.77937 -1.06066 1.06066 
C -0.77937 1.341951 -0.397805 1.5 0 1.5 
z
" id="mbe037b5097" style="stroke:#008000;"/>
    </defs>
    <g>
     <use style="fill:#008000;stroke:#008000;" x="244.490711" xlink:href="#mbe037b5097" y="30.334099"/>
     <use style="fill:#008000;stroke:#008000;" x="244.490711" xlink:href="#mbe037b5097" y="30.334099"/>
    </g>
   </g>
   <g id="line2d_35">
    <path d="M 38.440992 298.944 
L 38.440992 280.509987 
L 50.52898 280.509987 
L 50.52898 278.929929 
L 57.6 278.929929 
L 57.6 278.403243 
L 62.616969 278.403243 
L 62.616969 277.349871 
L 66.508432 277.349871 
L 66.508432 276.296499 
L 69.687988 276.296499 
L 69.687988 275.769812 
L 76.759008 275.769812 
L 76.759008 274.71644 
L 83.171864 274.71644 
L 83.171864 274.189754 
L 86.792945 274.189754 
L 86.792945 273.136382 
L 92.34655 273.136382 
L 92.34655 272.08301 
L 93.121756 272.08301 
L 93.121756 271.029638 
L 93.863965 271.029638 
L 93.863965 269.976266 
L 98.880934 269.976266 
L 98.880934 269.449579 
L 100.443706 269.449579 
L 100.443706 268.922893 
L 100.934985 268.922893 
L 100.934985 268.396207 
L 101.412804 268.396207 
L 101.412804 267.869521 
L 104.033617 267.869521 
L 104.033617 267.342835 
L 105.584798 267.342835 
L 105.584798 266.816149 
L 105.951954 266.816149 
L 105.951954 265.236091 
L 106.66386 265.236091 
L 106.66386 264.709405 
L 107.680028 264.709405 
L 107.680028 263.656033 
L 108.006005 263.656033 
L 108.006005 263.129347 
L 109.550313 263.129347 
L 109.550313 262.075974 
L 111.767808 262.075974 
L 111.767808 261.549288 
L 112.779064 261.549288 
L 112.779064 261.022602 
L 113.73488 261.022602 
L 113.73488 257.862486 
L 114.193835 257.862486 
L 114.193835 257.3358 
L 115.077025 257.3358 
L 115.077025 256.282427 
L 115.291007 256.282427 
L 115.291007 255.755741 
L 115.711251 255.755741 
L 115.711251 255.229055 
L 115.917635 255.229055 
L 115.917635 254.702369 
L 117.486268 254.702369 
L 117.486268 254.175683 
L 118.925375 254.175683 
L 118.925375 253.648997 
L 119.602714 253.648997 
L 119.602714 253.122311 
L 120.728219 253.122311 
L 120.728219 252.595625 
L 120.883236 252.595625 
L 120.883236 252.068939 
L 121.489881 252.068939 
L 121.489881 244.168648 
L 123.192626 244.168648 
L 123.192626 243.641962 
L 123.855796 243.641962 
L 123.855796 243.115275 
L 124.368753 243.115275 
L 124.368753 242.588589 
L 125.110962 242.588589 
L 125.110962 242.061903 
L 125.23165 242.061903 
L 125.23165 239.955159 
L 125.470548 239.955159 
L 125.470548 239.428473 
L 128.005624 239.428473 
L 128.005624 238.901787 
L 128.310692 238.901787 
L 128.310692 236.795043 
L 129.099042 236.795043 
L 129.099042 236.268356 
L 129.667765 236.268356 
L 129.667765 235.74167 
L 130.926816 235.74167 
L 130.926816 233.634926 
L 132.019755 233.634926 
L 132.019755 232.054868 
L 132.181982 232.054868 
L 132.181982 231.528182 
L 132.971225 231.528182 
L 132.971225 231.001496 
L 134.019394 231.001496 
L 134.019394 229.948123 
L 134.307653 229.948123 
L 134.307653 227.841379 
L 135.212889 227.841379 
L 135.212889 223.627891 
L 135.482227 223.627891 
L 135.482227 223.101204 
L 135.681535 223.101204 
L 135.681535 222.047832 
L 135.878591 222.047832 
L 135.878591 220.99446 
L 136.008736 220.99446 
L 136.073445 219.941088 
L 137.198951 219.941088 
L 137.198951 219.414402 
L 137.319638 219.414402 
L 137.37967 217.834344 
L 138.026733 217.834344 
L 138.026733 216.254285 
L 138.482688 216.254285 
L 138.482688 215.727599 
L 138.816998 215.727599 
L 138.816998 214.674227 
L 139.090775 214.674227 
L 139.090775 213.620855 
L 139.939053 213.620855 
L 139.939053 213.094169 
L 140.195896 213.094169 
L 140.297583 208.353994 
L 140.44901 208.353994 
L 140.44901 207.827308 
L 140.846504 207.827308 
L 140.846504 206.24725 
L 141.138789 206.24725 
L 141.138789 205.720564 
L 141.615302 205.720564 
L 141.615302 204.140506 
L 143.943994 204.140506 
L 143.943994 203.613819 
L 144.107744 203.613819 
L 144.107744 203.087133 
L 144.269971 203.087133 
L 144.269971 202.033761 
L 144.430703 202.033761 
L 144.430703 199.927017 
L 144.708467 199.927017 
L 144.708467 197.293586 
L 146.143677 197.293586 
L 146.143677 194.660156 
L 146.359869 194.660156 
L 146.359869 193.606784 
L 147.061745 193.606784 
L 147.061745 192.026726 
L 148.031773 192.026726 
L 148.031773 190.973354 
L 148.161434 190.973354 
L 148.161434 189.919981 
L 149.286939 189.919981 
L 149.286939 187.286551 
L 197.233043 187.286551 
L 197.33732 183.073062 
L 197.34502 183.073062 
L 197.448631 178.332888 
L 197.456281 178.332888 
L 197.563037 162.005619 
L 197.616171 162.005619 
L 197.721956 148.838467 
L 197.729487 148.838467 
L 197.832717 144.624978 
L 197.842072 144.624978 
L 197.93534 136.198001 
L 198.048456 136.198001 
L 198.138791 130.93114 
L 198.239634 130.93114 
L 198.312609 127.771024 
L 209.322968 127.771024 
L 209.432046 114.077186 
L 209.458969 114.077186 
L 209.566246 108.283639 
L 209.572929 108.283639 
L 209.659576 101.963406 
L 209.736341 101.963406 
L 209.83441 97.223231 
L 209.868229 97.223231 
L 209.868229 96.696545 
L 216.432678 96.696545 
L 216.527747 84.582765 
L 216.544394 84.582765 
L 216.628033 72.468985 
L 216.664301 72.468985 
L 216.758119 69.835555 
L 221.430312 69.835555 
L 221.522921 61.935264 
L 221.552721 61.935264 
L 221.638472 56.141717 
L 221.664736 56.141717 
L 221.683812 54.561659 
L 225.327578 54.561659 
L 225.42631 46.661368 
L 225.441687 46.661368 
L 225.506503 45.081309 
L 228.515835 45.081309 
L 228.588809 41.921193 
L 231.198727 41.921193 
L 231.264341 37.707704 
L 231.315173 37.707704 
L 231.315173 37.181018 
L 233.578167 37.181018 
L 233.582263 36.127646 
L 235.565258 36.127646 
L 235.652342 34.020902 
L 237.433735 34.020902 
L 237.452271 32.967529 
L 239.085968 32.967529 
L 239.08632 31.914157 
L 240.574968 31.914157 
L 240.574968 31.387471 
L 241.983869 31.387471 
L 241.983869 30.860785 
L 244.490711 30.860785 
L 244.490711 30.334099 
L 338.688 30.334099 
L 338.688 30.334099 
" style="fill:none;stroke:#008000;stroke-linecap:square;stroke-width:1.5;"/>
   </g>
   <g id="line2d_36">
    <defs>
     <path d="M -0 6 
L 6 -6 
L -6 -6 
z
" id="m15923ecc27" style="stroke:#008000;stroke-linejoin:miter;stroke-width:1.5;"/>
    </defs>
    <g>
     <use style="fill-opacity:0;stroke:#008000;stroke-linejoin:miter;stroke-width:1.5;" x="128.005624" xlink:href="#m15923ecc27" y="238.901787"/>
     <use style="fill-opacity:0;stroke:#008000;stroke-linejoin:miter;stroke-width:1.5;" x="198.312609" xlink:href="#m15923ecc27" y="129.877768"/>
     <use style="fill-opacity:0;stroke:#008000;stroke-linejoin:miter;stroke-width:1.5;" x="244.490711" xlink:href="#m15923ecc27" y="30.860785"/>
     <use style="fill-opacity:0;stroke:#008000;stroke-linejoin:miter;stroke-width:1.5;" x="244.490711" xlink:href="#m15923ecc27" y="30.334099"/>
     <use style="fill-opacity:0;stroke:#008000;stroke-linejoin:miter;stroke-width:1.5;" x="244.490711" xlink:href="#m15923ecc27" y="30.334099"/>
     <use style="fill-opacity:0;stroke:#008000;stroke-linejoin:miter;stroke-width:1.5;" x="338.688" xlink:href="#m15923ecc27" y="30.334099"/>
    </g>
   </g>
   <g id="line2d_37">
    <path style="fill:none;stroke:#008000;stroke-linecap:square;stroke-width:1.5;"/>
    <g/>
   </g>
   <g id="line2d_38">
    <path clip-path="url(#p77b3aee78d)" d="M 197.231106 187.286551 
" style="fill:none;stroke:#008000;stroke-linecap:square;stroke-width:1.5;"/>
    <defs>
     <path d="M -12 12 
L 12 -12 
M -12 -12 
L 12 12 
" id="m9ce0f7bf68" style="stroke:#008000;"/>
    </defs>
    <g clip-path="url(#p77b3aee78d)">
     <use style="fill:#008000;stroke:#008000;" x="197.231106" xlink:href="#m9ce0f7bf68" y="187.286551"/>
    </g>
   </g>
   <g id="line2d_39">
    <defs>
     <path d="M 0 1.5 
C 0.397805 1.5 0.77937 1.341951 1.06066 1.06066 
C 1.341951 0.77937 1.5 0.397805 1.5 0 
C 1.5 -0.397805 1.341951 -0.77937 1.06066 -1.06066 
C 0.77937 -1.341951 0.397805 -1.5 0 -1.5 
C -0.397805 -1.5 -0.77937 -1.341951 -1.06066 -1.06066 
C -1.341951 -0.77937 -1.5 -0.397805 -1.5 0 
C -1.5 0.397805 -1.341951 0.77937 -1.06066 1.06066 
C -0.77937 1.341951 -0.397805 1.5 0 1.5 
z
" id="m90ff935d3e" style="stroke:#0000ff;"/>
    </defs>
    <g>
     <use style="fill:#0000ff;stroke:#0000ff;" x="260.840191" xlink:href="#m90ff935d3e" y="30.334099"/>
     <use style="fill:#0000ff;stroke:#0000ff;" x="260.840191" xlink:href="#m90ff935d3e" y="30.334099"/>
    </g>
   </g>
   <g id="line2d_40">
    <path d="M 29.53256 298.944 
L 29.53256 286.303534 
L 41.620548 286.303534 
L 41.620548 285.250162 
L 48.691568 285.250162 
L 48.691568 284.723476 
L 65.796525 284.723476 
L 65.796525 284.19679 
L 69.687988 284.19679 
L 69.687988 283.670104 
L 74.263433 283.670104 
L 74.263433 283.143418 
L 78.941764 283.143418 
L 78.941764 282.090045 
L 79.938565 282.090045 
L 79.938565 281.563359 
L 81.775977 281.563359 
L 81.775977 280.509987 
L 82.626842 280.509987 
L 82.626842 279.983301 
L 84.955534 279.983301 
L 84.955534 278.403243 
L 85.66744 278.403243 
L 85.66744 277.876557 
L 88.846997 277.876557 
L 88.846997 276.296499 
L 89.418828 276.296499 
L 89.418828 275.769812 
L 90.509138 275.769812 
L 90.509138 275.243126 
L 92.504372 275.243126 
L 92.504372 274.71644 
L 94.714831 274.71644 
L 94.714831 274.189754 
L 95.125186 274.189754 
L 95.125186 273.136382 
L 96.301313 273.136382 
L 96.301313 272.609696 
L 98.100772 272.609696 
L 98.100772 272.08301 
L 99.097574 272.08301 
L 99.097574 271.556324 
L 100.641881 271.556324 
L 100.641881 271.029638 
L 100.934985 271.029638 
L 100.934985 269.976266 
L 102.060491 269.976266 
L 102.060491 269.449579 
L 104.114542 269.449579 
L 104.114542 268.922893 
L 104.826449 268.922893 
L 104.826449 268.396207 
L 106.593963 268.396207 
L 106.593963 267.869521 
L 108.198707 267.869521 
L 108.198707 267.342835 
L 108.577836 267.342835 
L 108.577836 266.289463 
L 109.491096 266.289463 
L 109.491096 265.762777 
L 110.016944 265.762777 
L 110.016944 265.236091 
L 110.358901 265.236091 
L 110.358901 264.182719 
L 114.552496 264.182719 
L 114.552496 263.129347 
L 115.711251 263.129347 
L 115.711251 262.60266 
L 117.486268 262.60266 
L 117.486268 262.075974 
L 118.039942 262.075974 
L 118.039942 261.549288 
L 118.363901 261.549288 
L 118.363901 261.022602 
L 119.502775 261.022602 
L 119.502775 260.495916 
L 120.190611 260.495916 
L 120.286695 259.442544 
L 120.571812 259.442544 
L 120.571812 258.915858 
L 120.759333 258.915858 
L 120.759333 258.389172 
L 120.944859 258.389172 
L 121.036887 257.3358 
L 121.489881 257.3358 
L 121.489881 256.809114 
L 122.362027 256.809114 
L 122.362027 255.755741 
L 122.947573 255.755741 
L 122.947573 255.229055 
L 123.111324 255.229055 
L 123.111324 254.175683 
L 124.216444 254.175683 
L 124.292765 253.122311 
L 125.327602 253.122311 
L 125.327602 252.595625 
L 125.470548 252.595625 
L 125.470548 252.068939 
L 125.822869 252.068939 
L 125.822869 251.542253 
L 127.229484 251.542253 
L 127.229484 251.015567 
L 127.611382 251.015567 
L 127.674226 249.435508 
L 128.107907 249.435508 
L 128.107907 248.908822 
L 129.06046 248.908822 
L 129.06046 247.85545 
L 129.742212 247.85545 
L 129.742212 247.328764 
L 130.76994 247.328764 
L 130.76994 246.802078 
L 131.082294 246.802078 
L 131.082294 246.275392 
L 131.690703 246.275392 
L 131.690703 245.748706 
L 131.938072 245.748706 
L 131.938072 245.22202 
L 132.084827 245.22202 
L 132.084827 244.168648 
L 132.422528 244.168648 
L 132.422528 243.115275 
L 134.61933 243.115275 
L 134.61933 242.588589 
L 134.911732 242.588589 
L 134.994383 238.901787 
L 135.721125 238.901787 
L 135.721125 238.375101 
L 136.607732 238.375101 
L 136.607732 237.321729 
L 137.451437 237.321729 
L 137.451437 236.268356 
L 137.594091 236.268356 
L 137.594091 235.74167 
L 137.980475 235.74167 
L 138.049816 234.688298 
L 138.256201 234.688298 
L 138.358484 233.10824 
L 138.594838 233.10824 
L 138.594838 231.001496 
L 138.794909 231.001496 
L 138.861092 228.368065 
L 139.285267 228.368065 
L 139.285267 227.314693 
L 140.073083 227.314693 
L 140.165274 226.261321 
L 140.317849 226.261321 
L 140.317849 225.207949 
L 140.944478 225.207949 
L 140.944478 223.101204 
L 141.20629 223.101204 
L 141.20629 221.521146 
L 141.435758 221.521146 
L 141.435758 220.99446 
L 141.69035 220.99446 
L 141.69035 220.467774 
L 142.215919 220.467774 
L 142.215919 219.941088 
L 143.451774 219.941088 
L 143.47714 218.887716 
L 144.724207 218.887716 
L 144.724207 218.36103 
L 145.074639 218.36103 
L 145.074639 217.834344 
L 145.258697 217.834344 
L 145.258697 217.307658 
L 145.440832 217.307658 
L 145.440832 216.254285 
L 145.932112 216.254285 
L 145.932112 215.727599 
L 146.06373 215.727599 
L 146.06373 215.200913 
L 146.60169 215.200913 
L 146.60169 213.620855 
L 147.809113 213.620855 
L 147.809113 213.094169 
L 206.150459 213.094169 
L 206.259531 205.193878 
L 206.265071 205.193878 
L 206.372742 196.240214 
L 206.386499 196.240214 
L 206.497525 181.493004 
L 206.502989 181.493004 
L 206.611921 169.90591 
L 206.662073 169.90591 
L 206.743095 166.745794 
L 218.237054 166.745794 
L 218.344057 155.1587 
L 218.350982 155.1587 
L 218.441799 141.991548 
L 218.464515 141.991548 
L 218.493041 138.304745 
L 225.307609 138.304745 
L 225.418078 125.66428 
L 225.419925 125.66428 
L 225.501449 118.290674 
L 230.33619 118.290674 
L 230.446932 100.383348 
L 230.453505 100.383348 
L 230.453505 99.329976 
L 234.211208 99.329976 
L 234.32046 88.269568 
L 237.389092 88.269568 
L 237.481 73.522358 
L 240.092701 73.522358 
L 240.153401 64.568694 
L 242.418432 64.568694 
L 242.44854 58.775147 
L 244.473509 58.775147 
L 244.524834 54.034973 
L 246.308327 54.034973 
L 246.336107 48.241426 
L 247.958523 48.241426 
L 247.999741 45.081309 
L 249.488116 45.081309 
L 249.504135 42.447879 
L 250.888675 42.447879 
L 250.913574 39.287762 
L 252.168694 39.287762 
L 252.202818 36.654332 
L 253.384712 36.654332 
L 253.386569 35.60096 
L 254.50581 35.60096 
L 254.509338 34.547588 
L 255.560155 34.547588 
L 255.573268 33.494215 
L 256.573221 33.494215 
L 256.573221 32.967529 
L 257.488608 32.967529 
L 257.500642 31.914157 
L 258.396768 31.914157 
L 258.396768 31.387471 
L 260.829982 31.387471 
L 260.840191 30.334099 
L 338.688 30.334099 
L 338.688 30.334099 
" style="fill:none;stroke:#0000ff;stroke-linecap:square;stroke-width:1.5;"/>
   </g>
   <g id="line2d_41">
    <defs>
     <path d="M 0 -6 
L -1.347084 -1.854102 
L -5.706339 -1.854102 
L -2.179628 0.708204 
L -3.526712 4.854102 
L -0 2.291796 
L 3.526712 4.854102 
L 2.179628 0.708204 
L 5.706339 -1.854102 
L 1.347084 -1.854102 
z
" id="m30a7fd30ae" style="stroke:#0000ff;stroke-linejoin:bevel;stroke-width:1.5;"/>
    </defs>
    <g>
     <use style="fill-opacity:0;stroke:#0000ff;stroke-linejoin:bevel;stroke-width:1.5;" x="92.504372" xlink:href="#m30a7fd30ae" y="274.71644"/>
     <use style="fill-opacity:0;stroke:#0000ff;stroke-linejoin:bevel;stroke-width:1.5;" x="147.809113" xlink:href="#m30a7fd30ae" y="213.620855"/>
     <use style="fill-opacity:0;stroke:#0000ff;stroke-linejoin:bevel;stroke-width:1.5;" x="218.398003" xlink:href="#m30a7fd30ae" y="150.945211"/>
     <use style="fill-opacity:0;stroke:#0000ff;stroke-linejoin:bevel;stroke-width:1.5;" x="260.840191" xlink:href="#m30a7fd30ae" y="30.860785"/>
     <use style="fill-opacity:0;stroke:#0000ff;stroke-linejoin:bevel;stroke-width:1.5;" x="260.840191" xlink:href="#m30a7fd30ae" y="30.334099"/>
     <use style="fill-opacity:0;stroke:#0000ff;stroke-linejoin:bevel;stroke-width:1.5;" x="338.688" xlink:href="#m30a7fd30ae" y="30.334099"/>
    </g>
   </g>
   <g id="line2d_42">
    <path style="fill:none;stroke:#0000ff;stroke-linecap:square;stroke-width:1.5;"/>
    <g/>
   </g>
   <g id="line2d_43">
    <path clip-path="url(#p77b3aee78d)" d="M 206.138608 213.094169 
" style="fill:none;stroke:#0000ff;stroke-linecap:square;stroke-width:1.5;"/>
    <defs>
     <path d="M -12 12 
L 12 -12 
M -12 -12 
L 12 12 
" id="me50ddfa3f9" style="stroke:#0000ff;"/>
    </defs>
    <g clip-path="url(#p77b3aee78d)">
     <use style="fill:#0000ff;stroke:#0000ff;" x="206.138608" xlink:href="#me50ddfa3f9" y="213.094169"/>
    </g>
   </g>
   <g id="line2d_44">
    <defs>
     <path d="M 0 1.5 
C 0.397805 1.5 0.77937 1.341951 1.06066 1.06066 
C 1.341951 0.77937 1.5 0.397805 1.5 0 
C 1.5 -0.397805 1.341951 -0.77937 1.06066 -1.06066 
C 0.77937 -1.341951 0.397805 -1.5 0 -1.5 
C -0.397805 -1.5 -0.77937 -1.341951 -1.06066 -1.06066 
C -1.341951 -0.77937 -1.5 -0.397805 -1.5 0 
C -1.5 0.397805 -1.341951 0.77937 -1.06066 1.06066 
C -0.77937 1.341951 -0.397805 1.5 0 1.5 
z
" id="m3b898cee3c" style="stroke:#000000;"/>
    </defs>
    <g>
     <use style="stroke:#000000;" x="275.047087" xlink:href="#m3b898cee3c" y="30.334099"/>
     <use style="stroke:#000000;" x="275.047087" xlink:href="#m3b898cee3c" y="30.334099"/>
    </g>
   </g>
   <g id="line2d_45">
    <path d="M 17.444571 298.944 
L 17.444571 292.623767 
L 29.53256 292.623767 
L 29.53256 292.097081 
L 60.779557 292.097081 
L 60.779557 291.570395 
L 64.67102 291.570395 
L 64.67102 290.517023 
L 65.796525 290.517023 
L 65.796525 289.990337 
L 74.921597 289.990337 
L 74.921597 289.463651 
L 78.421149 289.463651 
L 78.421149 288.410278 
L 78.941764 288.410278 
L 78.941764 287.883592 
L 79.938565 287.883592 
L 79.938565 287.356906 
L 80.881459 287.356906 
L 80.881459 286.83022 
L 82.626842 286.83022 
L 82.626842 286.303534 
L 83.037197 286.303534 
L 83.037197 285.776848 
L 86.351421 285.776848 
L 86.351421 285.250162 
L 86.683608 285.250162 
L 86.683608 284.723476 
L 87.009585 284.723476 
L 87.009585 283.670104 
L 87.643811 283.670104 
L 87.643811 283.143418 
L 87.952479 283.143418 
L 87.952479 282.616732 
L 91.029752 282.616732 
L 91.029752 282.090045 
L 91.284345 282.090045 
L 91.284345 281.563359 
L 94.505975 281.563359 
L 94.505975 281.036673 
L 94.714831 281.036673 
L 94.714831 280.509987 
L 94.921215 280.509987 
L 94.921215 279.983301 
L 95.326798 279.983301 
L 95.326798 279.456615 
L 97.043522 279.456615 
L 97.043522 278.929929 
L 97.403108 278.929929 
L 97.403108 278.403243 
L 98.100772 278.403243 
L 98.100772 277.876557 
L 100.040467 277.876557 
L 100.040467 277.349871 
L 101.646892 277.349871 
L 101.646892 276.823185 
L 102.196206 276.823185 
L 102.196206 276.296499 
L 102.464508 276.296499 
L 102.464508 275.769812 
L 103.498249 275.769812 
L 103.498249 275.243126 
L 105.171792 275.243126 
L 105.171792 274.71644 
L 105.621863 274.71644 
L 105.621863 274.189754 
L 106.06061 274.189754 
L 106.06061 273.663068 
L 107.213174 273.663068 
L 107.213174 273.136382 
L 107.712901 273.136382 
L 107.811151 272.08301 
L 108.764355 272.08301 
L 108.764355 271.556324 
L 110.103064 271.556324 
L 110.103064 271.029638 
L 110.443353 271.029638 
L 110.443353 270.502952 
L 110.859585 270.502952 
L 110.859585 269.976266 
L 112.655818 269.976266 
L 112.655818 269.449579 
L 113.453595 269.449579 
L 113.453595 268.922893 
L 116.081002 268.922893 
L 116.081002 268.396207 
L 116.797786 268.396207 
L 116.797786 267.869521 
L 118.681952 267.869521 
L 118.681952 266.289463 
L 120.8059 266.289463 
L 120.8059 265.236091 
L 122.104932 265.236091 
L 122.104932 264.709405 
L 122.44689 264.709405 
L 122.44689 264.182719 
L 122.699028 264.182719 
L 122.699028 263.656033 
L 123.192626 263.656033 
L 123.233135 262.60266 
L 123.434283 262.60266 
L 123.434283 262.075974 
L 123.985457 262.075974 
L 123.985457 261.549288 
L 124.706662 261.549288 
L 124.706662 261.022602 
L 125.219619 261.022602 
L 125.219619 259.96923 
L 126.099688 259.96923 
L 126.168212 258.389172 
L 126.405947 258.389172 
L 126.405947 257.862486 
L 127.100304 257.862486 
L 127.100304 256.809114 
L 127.453273 256.809114 
L 127.54831 255.229055 
L 128.046609 255.229055 
L 128.107907 254.175683 
L 128.290519 254.175683 
L 128.290519 253.648997 
L 129.404667 253.648997 
L 129.404667 252.595625 
L 129.908566 252.595625 
L 129.908566 252.068939 
L 130.045992 252.068939 
L 130.073348 250.488881 
L 130.638123 250.488881 
L 130.638123 249.962195 
L 130.900768 249.962195 
L 130.900768 249.435508 
L 131.056477 249.435508 
L 131.056477 247.85545 
L 131.565689 247.85545 
L 131.565689 247.328764 
L 131.913493 247.328764 
L 131.913493 246.802078 
L 132.30267 246.802078 
L 132.30267 245.748706 
L 132.777237 245.748706 
L 132.777237 245.22202 
L 133.19358 245.22202 
L 133.239232 244.168648 
L 133.375477 244.168648 
L 133.375477 243.641962 
L 133.667073 243.641962 
L 133.667073 243.115275 
L 134.12805 243.115275 
L 134.12805 242.061903 
L 134.343353 242.061903 
L 134.343353 241.008531 
L 135.401861 241.008531 
L 135.50226 237.848415 
L 135.760625 237.848415 
L 135.760625 237.321729 
L 136.380754 237.321729 
L 136.380754 236.268356 
L 136.570107 236.268356 
L 136.570107 234.688298 
L 137.071324 234.688298 
L 137.180776 232.581554 
L 138.187677 232.581554 
L 138.187677 232.054868 
L 138.594838 232.054868 
L 138.594838 231.528182 
L 139.172077 231.528182 
L 139.172077 231.001496 
L 139.572998 231.001496 
L 139.588845 229.421437 
L 139.8092 229.421437 
L 139.856059 228.368065 
L 140.165274 228.368065 
L 140.256979 227.314693 
L 140.484155 227.314693 
L 140.484155 226.788007 
L 140.723258 226.788007 
L 140.723258 226.261321 
L 141.46423 226.261321 
L 141.46423 225.734635 
L 141.577657 225.734635 
L 141.648175 224.154577 
L 141.955115 224.154577 
L 141.955115 223.101204 
L 142.120287 223.101204 
L 142.120287 222.574518 
L 142.539878 222.574518 
L 142.539878 222.047832 
L 144.736002 222.047832 
L 144.736002 221.521146 
L 144.970247 221.521146 
L 144.970247 220.99446 
L 218.249769 220.99446 
L 218.359462 192.553412 
L 218.362403 192.553412 
L 218.443693 175.699457 
L 230.32513 175.699457 
L 230.420785 147.258409 
L 230.439577 147.258409 
L 230.439577 146.731723 
L 237.393042 146.731723 
L 237.455956 120.924105 
L 242.408065 120.924105 
L 242.454494 101.43672 
L 246.30073 101.43672 
L 246.334472 86.68951 
L 249.475569 86.68951 
L 249.507065 72.468985 
L 252.1671 72.468985 
L 252.189793 66.148752 
L 254.496467 66.148752 
L 254.513778 59.301833 
L 256.545117 59.301833 
L 256.563936 54.034973 
L 258.383001 54.034973 
L 258.398737 48.241426 
L 260.045212 48.241426 
L 260.05871 45.607995 
L 261.566608 45.607995 
L 261.577034 42.974565 
L 262.961385 42.974565 
L 262.96924 41.394507 
L 264.256358 41.394507 
L 264.259757 39.287762 
L 265.456253 39.287762 
L 265.462353 38.23439 
L 266.57976 38.23439 
L 266.587527 36.654332 
L 267.636539 36.654332 
L 267.645243 35.074274 
L 268.633106 35.074274 
L 268.633106 34.547588 
L 269.576009 34.547588 
L 269.582642 33.494215 
L 270.469874 33.494215 
L 270.469874 32.967529 
L 271.323577 32.967529 
L 271.327403 31.914157 
L 272.13324 31.914157 
L 272.13324 31.387471 
L 272.912659 31.387471 
L 272.912659 30.860785 
L 275.047087 30.860785 
L 275.047087 30.334099 
L 338.688 30.334099 
L 338.688 30.334099 
" style="fill:none;stroke:#000000;stroke-linecap:square;stroke-width:1.5;"/>
   </g>
   <g id="line2d_46">
    <defs>
     <path d="M 0 6 
C 1.591219 6 3.117479 5.367802 4.242641 4.242641 
C 5.367802 3.117479 6 1.591219 6 0 
C 6 -1.591219 5.367802 -3.117479 4.242641 -4.242641 
C 3.117479 -5.367802 1.591219 -6 0 -6 
C -1.591219 -6 -3.117479 -5.367802 -4.242641 -4.242641 
C -5.367802 -3.117479 -6 -1.591219 -6 0 
C -6 1.591219 -5.367802 3.117479 -4.242641 4.242641 
C -3.117479 5.367802 -1.591219 6 0 6 
z
" id="m57638c56ec" style="stroke:#000000;stroke-width:1.5;"/>
    </defs>
    <g>
     <use style="fill-opacity:0;stroke:#000000;stroke-width:1.5;" x="107.811151" xlink:href="#m57638c56ec" y="272.08301"/>
     <use style="fill-opacity:0;stroke:#000000;stroke-width:1.5;" x="144.970247" xlink:href="#m57638c56ec" y="220.99446"/>
     <use style="fill-opacity:0;stroke:#000000;stroke-width:1.5;" x="230.416886" xlink:href="#m57638c56ec" y="149.365153"/>
     <use style="fill-opacity:0;stroke:#000000;stroke-width:1.5;" x="275.047087" xlink:href="#m57638c56ec" y="30.334099"/>
     <use style="fill-opacity:0;stroke:#000000;stroke-width:1.5;" x="275.047087" xlink:href="#m57638c56ec" y="30.334099"/>
     <use style="fill-opacity:0;stroke:#000000;stroke-width:1.5;" x="338.688" xlink:href="#m57638c56ec" y="30.334099"/>
    </g>
   </g>
   <g id="line2d_47">
    <path style="fill:none;stroke:#000000;stroke-linecap:square;stroke-width:1.5;"/>
    <g/>
   </g>
   <g id="line2d_48">
    <path clip-path="url(#p77b3aee78d)" d="M 218.223109 220.99446 
" style="fill:none;stroke:#000000;stroke-linecap:square;stroke-width:1.5;"/>
    <defs>
     <path d="M -12 12 
L 12 -12 
M -12 -12 
L 12 12 
" id="md1f20547a5" style="stroke:#000000;"/>
    </defs>
    <g clip-path="url(#p77b3aee78d)">
     <use style="stroke:#000000;" x="218.223109" xlink:href="#md1f20547a5" y="220.99446"/>
    </g>
   </g>
   <g id="line2d_49">
    <path d="M 338.688 30.334099 
L 369.60768 293.571802 
" style="fill:none;stroke:#000000;stroke-linecap:square;stroke-width:1.5;"/>
    <g>
     <use style="fill-opacity:0;stroke:#000000;stroke-width:1.5;" x="338.688" xlink:href="#m57638c56ec" y="30.334099"/>
     <use style="fill-opacity:0;stroke:#000000;stroke-width:1.5;" x="369.60768" xlink:href="#m57638c56ec" y="293.571802"/>
    </g>
   </g>
   <g id="line2d_50">
    <path d="M 338.688 30.334099 
L 369.60768 207.616634 
" style="fill:none;stroke:#0000ff;stroke-linecap:square;stroke-width:1.5;"/>
    <g>
     <use style="fill-opacity:0;stroke:#0000ff;stroke-linejoin:bevel;stroke-width:1.5;" x="338.688" xlink:href="#m30a7fd30ae" y="30.334099"/>
     <use style="fill-opacity:0;stroke:#0000ff;stroke-linejoin:bevel;stroke-width:1.5;" x="369.60768" xlink:href="#m30a7fd30ae" y="207.616634"/>
    </g>
   </g>
   <g id="line2d_51">
    <path d="M 338.688 30.334099 
L 369.60768 121.661465 
" style="fill:none;stroke:#00bfbf;stroke-linecap:square;stroke-width:1.5;"/>
    <g>
     <use style="fill-opacity:0;stroke:#00bfbf;stroke-width:1.5;" x="338.688" xlink:href="#m126c314a36" y="30.334099"/>
     <use style="fill-opacity:0;stroke:#00bfbf;stroke-width:1.5;" x="369.60768" xlink:href="#m126c314a36" y="121.661465"/>
    </g>
   </g>
   <g id="line2d_52">
    <path d="M 338.688 30.334099 
L 369.60768 35.706297 
" style="fill:none;stroke:#008000;stroke-linecap:square;stroke-width:1.5;"/>
    <g>
     <use style="fill-opacity:0;stroke:#008000;stroke-linejoin:miter;stroke-width:1.5;" x="338.688" xlink:href="#m15923ecc27" y="30.334099"/>
     <use style="fill-opacity:0;stroke:#008000;stroke-linejoin:miter;stroke-width:1.5;" x="369.60768" xlink:href="#m15923ecc27" y="35.706297"/>
    </g>
   </g>
   <g id="line2d_53">
    <path d="M 338.688 298.944 
L 338.688 30.334099 
" style="fill:none;stroke:#000000;stroke-linecap:square;stroke-width:1.5;"/>
   </g>
   <g id="patch_3">
    <path d="M 57.6 298.944 
L 57.6 27.648 
" style="fill:none;stroke:#000000;stroke-linecap:square;stroke-linejoin:miter;stroke-width:0.8;"/>
   </g>
   <g id="patch_4">
    <path d="M 338.688 298.944 
L 338.688 27.648 
" style="fill:none;stroke:#000000;stroke-linecap:square;stroke-linejoin:miter;stroke-width:0.8;"/>
   </g>
   <g id="patch_5">
    <path d="M 57.6 298.944 
L 338.688 298.944 
" style="fill:none;stroke:#000000;stroke-linecap:square;stroke-linejoin:miter;stroke-width:0.8;"/>
   </g>
   <g id="patch_6">
    <path d="M 57.6 27.648 
L 338.688 27.648 
" style="fill:none;stroke:#000000;stroke-linecap:square;stroke-linejoin:miter;stroke-width:0.8;"/>
   </g>
   <g id="text_13">
    <!-- 10-D -->
    <g transform="translate(375.22944 298.262739)scale(0.17 -0.17)">
     <defs>
      <path d="M 19.671875 64.796875 
L 19.671875 8.109375 
L 31.59375 8.109375 
Q 46.6875 8.109375 53.6875 14.9375 
Q 60.6875 21.78125 60.6875 36.53125 
Q 60.6875 51.171875 53.6875 57.984375 
Q 46.6875 64.796875 31.59375 64.796875 
z
M 9.8125 72.90625 
L 30.078125 72.90625 
Q 51.265625 72.90625 61.171875 64.09375 
Q 71.09375 55.28125 71.09375 36.53125 
Q 71.09375 17.671875 61.125 8.828125 
Q 51.171875 0 30.078125 0 
L 9.8125 0 
z
" id="DejaVuSans-68"/>
     </defs>
     <use xlink:href="#DejaVuSans-49"/>
     <use x="63.623047" xlink:href="#DejaVuSans-48"/>
     <use x="127.246094" xlink:href="#DejaVuSans-45"/>
     <use x="163.330078" xlink:href="#DejaVuSans-68"/>
    </g>
   </g>
   <g id="text_14">
    <!-- 5-D -->
    <g transform="translate(375.22944 212.307571)scale(0.17 -0.17)">
     <defs>
      <path d="M 10.796875 72.90625 
L 49.515625 72.90625 
L 49.515625 64.59375 
L 19.828125 64.59375 
L 19.828125 46.734375 
Q 21.96875 47.46875 24.109375 47.828125 
Q 26.265625 48.1875 28.421875 48.1875 
Q 40.625 48.1875 47.75 41.5 
Q 54.890625 34.8125 54.890625 23.390625 
Q 54.890625 11.625 47.5625 5.09375 
Q 40.234375 -1.421875 26.90625 -1.421875 
Q 22.3125 -1.421875 17.546875 -0.640625 
Q 12.796875 0.140625 7.71875 1.703125 
L 7.71875 11.625 
Q 12.109375 9.234375 16.796875 8.0625 
Q 21.484375 6.890625 26.703125 6.890625 
Q 35.15625 6.890625 40.078125 11.328125 
Q 45.015625 15.765625 45.015625 23.390625 
Q 45.015625 31 40.078125 35.4375 
Q 35.15625 39.890625 26.703125 39.890625 
Q 22.75 39.890625 18.8125 39.015625 
Q 14.890625 38.140625 10.796875 36.28125 
z
" id="DejaVuSans-53"/>
     </defs>
     <use xlink:href="#DejaVuSans-53"/>
     <use x="63.623047" xlink:href="#DejaVuSans-45"/>
     <use x="99.707031" xlink:href="#DejaVuSans-68"/>
    </g>
   </g>
   <g id="text_15">
    <!-- 2-D -->
    <g transform="translate(375.22944 126.352403)scale(0.17 -0.17)">
     <use xlink:href="#DejaVuSans-50"/>
     <use x="63.623047" xlink:href="#DejaVuSans-45"/>
     <use x="99.707031" xlink:href="#DejaVuSans-68"/>
    </g>
   </g>
   <g id="text_16">
    <!-- 3-D -->
    <g transform="translate(375.22944 40.397235)scale(0.17 -0.17)">
     <defs>
      <path d="M 40.578125 39.3125 
Q 47.65625 37.796875 51.625 33 
Q 55.609375 28.21875 55.609375 21.1875 
Q 55.609375 10.40625 48.1875 4.484375 
Q 40.765625 -1.421875 27.09375 -1.421875 
Q 22.515625 -1.421875 17.65625 -0.515625 
Q 12.796875 0.390625 7.625 2.203125 
L 7.625 11.71875 
Q 11.71875 9.328125 16.59375 8.109375 
Q 21.484375 6.890625 26.8125 6.890625 
Q 36.078125 6.890625 40.9375 10.546875 
Q 45.796875 14.203125 45.796875 21.1875 
Q 45.796875 27.640625 41.28125 31.265625 
Q 36.765625 34.90625 28.71875 34.90625 
L 20.21875 34.90625 
L 20.21875 43.015625 
L 29.109375 43.015625 
Q 36.375 43.015625 40.234375 45.921875 
Q 44.09375 48.828125 44.09375 54.296875 
Q 44.09375 59.90625 40.109375 62.90625 
Q 36.140625 65.921875 28.71875 65.921875 
Q 24.65625 65.921875 20.015625 65.03125 
Q 15.375 64.15625 9.8125 62.3125 
L 9.8125 71.09375 
Q 15.4375 72.65625 20.34375 73.4375 
Q 25.25 74.21875 29.59375 74.21875 
Q 40.828125 74.21875 47.359375 69.109375 
Q 53.90625 64.015625 53.90625 55.328125 
Q 53.90625 49.265625 50.4375 45.09375 
Q 46.96875 40.921875 40.578125 39.3125 
z
" id="DejaVuSans-51"/>
     </defs>
     <use xlink:href="#DejaVuSans-51"/>
     <use x="63.623047" xlink:href="#DejaVuSans-45"/>
     <use x="99.707031" xlink:href="#DejaVuSans-68"/>
    </g>
   </g>
   <g id="text_17">
    <!-- bbob f21 -->
    <g transform="translate(60.41088 38.111366)scale(0.102 -0.102)">
     <defs>
      <path d="M 48.6875 27.296875 
Q 48.6875 37.203125 44.609375 42.84375 
Q 40.53125 48.484375 33.40625 48.484375 
Q 26.265625 48.484375 22.1875 42.84375 
Q 18.109375 37.203125 18.109375 27.296875 
Q 18.109375 17.390625 22.1875 11.75 
Q 26.265625 6.109375 33.40625 6.109375 
Q 40.53125 6.109375 44.609375 11.75 
Q 48.6875 17.390625 48.6875 27.296875 
z
M 18.109375 46.390625 
Q 20.953125 51.265625 25.265625 53.625 
Q 29.59375 56 35.59375 56 
Q 45.5625 56 51.78125 48.09375 
Q 58.015625 40.1875 58.015625 27.296875 
Q 58.015625 14.40625 51.78125 6.484375 
Q 45.5625 -1.421875 35.59375 -1.421875 
Q 29.59375 -1.421875 25.265625 0.953125 
Q 20.953125 3.328125 18.109375 8.203125 
L 18.109375 0 
L 9.078125 0 
L 9.078125 75.984375 
L 18.109375 75.984375 
z
" id="DejaVuSans-98"/>
     </defs>
     <use xlink:href="#DejaVuSans-98"/>
     <use x="63.476562" xlink:href="#DejaVuSans-98"/>
     <use x="126.953125" xlink:href="#DejaVuSans-111"/>
     <use x="188.134766" xlink:href="#DejaVuSans-98"/>
     <use x="251.611328" xlink:href="#DejaVuSans-32"/>
     <use x="283.398438" xlink:href="#DejaVuSans-102"/>
     <use x="318.603516" xlink:href="#DejaVuSans-50"/>
     <use x="382.226562" xlink:href="#DejaVuSans-49"/>
    </g>
    <!-- 51 targets: 100..1e-08 -->
    <g transform="translate(60.41088 49.533135)scale(0.102 -0.102)">
     <defs>
      <path d="M 11.71875 12.40625 
L 22.015625 12.40625 
L 22.015625 0 
L 11.71875 0 
z
M 11.71875 51.703125 
L 22.015625 51.703125 
L 22.015625 39.3125 
L 11.71875 39.3125 
z
" id="DejaVuSans-58"/>
     </defs>
     <use xlink:href="#DejaVuSans-53"/>
     <use x="63.623047" xlink:href="#DejaVuSans-49"/>
     <use x="127.246094" xlink:href="#DejaVuSans-32"/>
     <use x="159.033203" xlink:href="#DejaVuSans-116"/>
     <use x="198.242188" xlink:href="#DejaVuSans-97"/>
     <use x="259.521484" xlink:href="#DejaVuSans-114"/>
     <use x="298.884766" xlink:href="#DejaVuSans-103"/>
     <use x="362.361328" xlink:href="#DejaVuSans-101"/>
     <use x="423.884766" xlink:href="#DejaVuSans-116"/>
     <use x="463.09375" xlink:href="#DejaVuSans-115"/>
     <use x="515.193359" xlink:href="#DejaVuSans-58"/>
     <use x="548.884766" xlink:href="#DejaVuSans-32"/>
     <use x="580.671875" xlink:href="#DejaVuSans-49"/>
     <use x="644.294922" xlink:href="#DejaVuSans-48"/>
     <use x="707.917969" xlink:href="#DejaVuSans-48"/>
     <use x="771.541016" xlink:href="#DejaVuSans-46"/>
     <use x="803.328125" xlink:href="#DejaVuSans-46"/>
     <use x="835.115234" xlink:href="#DejaVuSans-49"/>
     <use x="898.738281" xlink:href="#DejaVuSans-101"/>
     <use x="960.261719" xlink:href="#DejaVuSans-45"/>
     <use x="996.345703" xlink:href="#DejaVuSans-48"/>
     <use x="1059.96875" xlink:href="#DejaVuSans-56"/>
    </g>
    <!-- 15 instances -->
    <g transform="translate(60.41088 60.954904)scale(0.102 -0.102)">
     <use xlink:href="#DejaVuSans-49"/>
     <use x="63.623047" xlink:href="#DejaVuSans-53"/>
     <use x="127.246094" xlink:href="#DejaVuSans-32"/>
     <use x="159.033203" xlink:href="#DejaVuSans-105"/>
     <use x="186.816406" xlink:href="#DejaVuSans-110"/>
     <use x="250.195312" xlink:href="#DejaVuSans-115"/>
     <use x="302.294922" xlink:href="#DejaVuSans-116"/>
     <use x="341.503906" xlink:href="#DejaVuSans-97"/>
     <use x="402.783203" xlink:href="#DejaVuSans-110"/>
     <use x="466.162109" xlink:href="#DejaVuSans-99"/>
     <use x="521.142578" xlink:href="#DejaVuSans-101"/>
     <use x="582.666016" xlink:href="#DejaVuSans-115"/>
    </g>
   </g>
   <g id="text_18">
    <!-- v2.4 -->
    <g style="fill:#808080;" transform="translate(187.233062 294.151352)scale(0.1 -0.1)">
     <use xlink:href="#DejaVuSans-118"/>
     <use x="59.179688" xlink:href="#DejaVuSans-50"/>
     <use x="122.802734" xlink:href="#DejaVuSans-46"/>
     <use x="154.589844" xlink:href="#DejaVuSans-52"/>
    </g>
   </g>
   <g id="text_19">
    <!-- 21 Gallagher 101 peaks -->
    <g transform="translate(78.6565 21.648)scale(0.2 -0.2)">
     <defs>
      <path d="M 59.515625 10.40625 
L 59.515625 29.984375 
L 43.40625 29.984375 
L 43.40625 38.09375 
L 69.28125 38.09375 
L 69.28125 6.78125 
Q 63.578125 2.734375 56.6875 0.65625 
Q 49.8125 -1.421875 42 -1.421875 
Q 24.90625 -1.421875 15.25 8.5625 
Q 5.609375 18.5625 5.609375 36.375 
Q 5.609375 54.25 15.25 64.234375 
Q 24.90625 74.21875 42 74.21875 
Q 49.125 74.21875 55.546875 72.453125 
Q 61.96875 70.703125 67.390625 67.28125 
L 67.390625 56.78125 
Q 61.921875 61.421875 55.765625 63.765625 
Q 49.609375 66.109375 42.828125 66.109375 
Q 29.4375 66.109375 22.71875 58.640625 
Q 16.015625 51.171875 16.015625 36.375 
Q 16.015625 21.625 22.71875 14.15625 
Q 29.4375 6.6875 42.828125 6.6875 
Q 48.046875 6.6875 52.140625 7.59375 
Q 56.25 8.5 59.515625 10.40625 
z
" id="DejaVuSans-71"/>
      <path d="M 54.890625 33.015625 
L 54.890625 0 
L 45.90625 0 
L 45.90625 32.71875 
Q 45.90625 40.484375 42.875 44.328125 
Q 39.84375 48.1875 33.796875 48.1875 
Q 26.515625 48.1875 22.3125 43.546875 
Q 18.109375 38.921875 18.109375 30.90625 
L 18.109375 0 
L 9.078125 0 
L 9.078125 75.984375 
L 18.109375 75.984375 
L 18.109375 46.1875 
Q 21.34375 51.125 25.703125 53.5625 
Q 30.078125 56 35.796875 56 
Q 45.21875 56 50.046875 50.171875 
Q 54.890625 44.34375 54.890625 33.015625 
z
" id="DejaVuSans-104"/>
      <path d="M 9.078125 75.984375 
L 18.109375 75.984375 
L 18.109375 31.109375 
L 44.921875 54.6875 
L 56.390625 54.6875 
L 27.390625 29.109375 
L 57.625 0 
L 45.90625 0 
L 18.109375 26.703125 
L 18.109375 0 
L 9.078125 0 
z
" id="DejaVuSans-107"/>
     </defs>
     <use xlink:href="#DejaVuSans-50"/>
     <use x="63.623047" xlink:href="#DejaVuSans-49"/>
     <use x="127.246094" xlink:href="#DejaVuSans-32"/>
     <use x="159.033203" xlink:href="#DejaVuSans-71"/>
     <use x="236.523438" xlink:href="#DejaVuSans-97"/>
     <use x="297.802734" xlink:href="#DejaVuSans-108"/>
     <use x="325.585938" xlink:href="#DejaVuSans-108"/>
     <use x="353.369141" xlink:href="#DejaVuSans-97"/>
     <use x="414.648438" xlink:href="#DejaVuSans-103"/>
     <use x="478.125" xlink:href="#DejaVuSans-104"/>
     <use x="541.503906" xlink:href="#DejaVuSans-101"/>
     <use x="603.027344" xlink:href="#DejaVuSans-114"/>
     <use x="644.140625" xlink:href="#DejaVuSans-32"/>
     <use x="675.927734" xlink:href="#DejaVuSans-49"/>
     <use x="739.550781" xlink:href="#DejaVuSans-48"/>
     <use x="803.173828" xlink:href="#DejaVuSans-49"/>
     <use x="866.796875" xlink:href="#DejaVuSans-32"/>
     <use x="898.583984" xlink:href="#DejaVuSans-112"/>
     <use x="962.060547" xlink:href="#DejaVuSans-101"/>
     <use x="1023.583984" xlink:href="#DejaVuSans-97"/>
     <use x="1084.863281" xlink:href="#DejaVuSans-107"/>
     <use x="1142.773438" xlink:href="#DejaVuSans-115"/>
    </g>
   </g>
  </g>
 </g>
 <defs>
  <clipPath id="p77b3aee78d">
   <rect height="271.296" width="281.088" x="57.6" y="27.648"/>
  </clipPath>
 </defs>
</svg>
